<?xml version="1.0" encoding="UTF-8" standalone="no"?>
<svg
   xmlns:dc="http://purl.org/dc/elements/1.1/"
   xmlns:cc="http://creativecommons.org/ns#"
   xmlns:rdf="http://www.w3.org/1999/02/22-rdf-syntax-ns#"
   xmlns:svg="http://www.w3.org/2000/svg"
   xmlns="http://www.w3.org/2000/svg"
   xmlns:xlink="http://www.w3.org/1999/xlink"
   id="svg2342"
   width="412.478125pt"
   viewBox="0 0 412.478125 277.314375"
   version="1.1"
   height="277.314375pt">
  <metadata
     id="metadata2346">
    <rdf:RDF>
      <cc:Work
         rdf:about="">
        <dc:format>image/svg+xml</dc:format>
        <dc:type
           rdf:resource="http://purl.org/dc/dcmitype/StillImage" />
        <dc:title></dc:title>
      </cc:Work>
    </rdf:RDF>
  </metadata>
  <defs
     id="defs1858">
    <style
       id="style1856"
       type="text/css">
*{stroke-linecap:butt;stroke-linejoin:round;}
  </style>
    <clipPath
       id="p83308eef81">
      <rect
         id="rect3359"
         y="22.318125"
         x="66.978127"
         width="334.79999"
         height="217.44" />
    </clipPath>
    <clipPath
       id="clipPath3925">
      <rect
         id="rect3923"
         y="22.318125"
         x="66.978127"
         width="334.79999"
         height="217.44" />
    </clipPath>
    <clipPath
       id="clipPath3929">
      <rect
         id="rect3927"
         y="22.318125"
         x="66.978127"
         width="334.79999"
         height="217.44" />
    </clipPath>
    <clipPath
       id="clipPath3933">
      <rect
         id="rect3931"
         y="22.318125"
         x="66.978127"
         width="334.79999"
         height="217.44" />
    </clipPath>
    <clipPath
       id="clipPath3937">
      <rect
         id="rect3935"
         y="22.318125"
         x="66.978127"
         width="334.79999"
         height="217.44" />
    </clipPath>
    <clipPath
       id="clipPath3941">
      <rect
         id="rect3939"
         y="22.318125"
         x="66.978127"
         width="334.79999"
         height="217.44" />
    </clipPath>
    <clipPath
       id="clipPath3945">
      <rect
         id="rect3943"
         y="22.318125"
         x="66.978127"
         width="334.79999"
         height="217.44" />
    </clipPath>
    <path
       style="stroke:#000000;stroke-width:0.80000001"
       id="mdea343e673"
       d="M 0,0 V 3.5" />
    <path
       id="DejaVuSans-53-9"
       d="m 10.796875,72.90625 h 38.71875 v -8.3125 h -29.6875 V 46.734375 q 2.140625,0.734375 4.28125,1.09375 2.15625,0.359375 4.3125,0.359375 Q 40.625,48.1875 47.75,41.5 54.890625,34.8125 54.890625,23.390625 54.890625,11.625 47.5625,5.09375 40.234375,-1.421875 26.90625,-1.421875 q -4.59375,0 -9.359375,0.78125 -4.75,0.78125 -9.828125,2.34375 V 11.625 q 4.390625,-2.390625 9.078125,-3.5625 4.6875,-1.171875 9.90625,-1.171875 8.453125,0 13.375,4.4375 4.9375,4.4375 4.9375,12.0625 0,7.609375 -4.9375,12.046875 -4.921875,4.453125 -13.375,4.453125 -3.953125,0 -7.890625,-0.875 -3.921875,-0.875 -8.015625,-2.734375 z" />
    <path
       id="DejaVuSans-48-1"
       d="m 31.78125,66.40625 q -7.609375,0 -11.453125,-7.5 Q 16.5,51.421875 16.5,36.375 q 0,-14.984375 3.828125,-22.484375 3.84375,-7.5 11.453125,-7.5 7.671875,0 11.5,7.5 3.84375,7.5 3.84375,22.484375 0,15.046875 -3.84375,22.53125 -3.828125,7.5 -11.5,7.5 z m 0,7.8125 q 12.265625,0 18.734375,-9.703125 6.46875,-9.6875 6.46875,-28.140625 0,-18.40625 -6.46875,-28.109375 -6.46875,-9.6875 -18.734375,-9.6875 -12.25,0 -18.71875,9.6875 Q 6.59375,17.96875 6.59375,36.375 q 0,18.453125 6.46875,28.140625 6.46875,9.703125 18.71875,9.703125 z" />
    <path
       id="DejaVuSans-49-9"
       d="m 12.40625,8.296875 h 16.109375 v 55.625 L 10.984375,60.40625 v 8.984375 l 17.4375,3.515625 H 38.28125 V 8.296875 H 54.390625 V 0 H 12.40625 Z" />
    <path
       id="DejaVuSans-50-1"
       d="M 19.1875,8.296875 H 53.609375 V 0 H 7.328125 v 8.296875 q 5.609375,5.8125 15.296875,15.59375 9.703125,9.796875 12.1875,12.640625 4.734375,5.3125 6.609375,9 1.890625,3.6875 1.890625,7.25 0,5.8125 -4.078125,9.46875 -4.078125,3.671875 -10.625,3.671875 -4.640625,0 -9.796875,-1.609375 -5.140625,-1.609375 -11,-4.890625 v 9.96875 Q 13.765625,71.78125 18.9375,73 q 5.1875,1.21875 9.484375,1.21875 11.328125,0 18.0625,-5.671875 6.734375,-5.65625 6.734375,-15.125 0,-4.5 -1.6875,-8.53125 Q 49.859375,40.875 45.40625,35.40625 44.1875,33.984375 37.640625,27.21875 31.109375,20.453125 19.1875,8.296875 Z" />
    <path
       id="DejaVuSans-84-0"
       d="M -0.296875,72.90625 H 61.375 v -8.3125 H 35.5 V 0 H 25.59375 V 64.59375 H -0.296875 Z" />
    <path
       id="DejaVuSans-101-2"
       d="m 56.203125,29.59375 v -4.390625 h -41.3125 q 0.59375,-9.28125 5.59375,-14.140625 5,-4.859375 13.9375,-4.859375 5.171875,0 10.03125,1.265625 4.859375,1.265625 9.65625,3.8125 v -8.5 q -4.84375,-2.046875 -9.921875,-3.125 -5.078125,-1.078125 -10.296875,-1.078125 -13.09375,0 -20.734375,7.609375 -7.640625,7.625 -7.640625,20.625 0,13.421875 7.25,21.296875 Q 20.015625,56 32.328125,56 q 11.03125,0 17.453125,-7.109375 6.421875,-7.09375 6.421875,-19.296875 z m -8.984375,2.640625 q -0.09375,7.359375 -4.125,11.75 -4.03125,4.40625 -10.671875,4.40625 -7.515625,0 -12.03125,-4.25 -4.515625,-4.25 -5.203125,-11.96875 z" />
    <path
       id="DejaVuSans-109-3"
       d="M 52,44.1875 Q 55.375,50.25 60.0625,53.125 64.75,56 71.09375,56 q 8.546875,0 13.1875,-5.984375 4.640625,-5.96875 4.640625,-17 V 0 h -9.03125 v 32.71875 q 0,7.859375 -2.796875,11.65625 -2.78125,3.8125 -8.484375,3.8125 -6.984375,0 -11.046875,-4.640625 -4.046875,-4.625 -4.046875,-12.640625 V 0 h -9.03125 v 32.71875 q 0,7.90625 -2.78125,11.6875 -2.78125,3.78125 -8.59375,3.78125 -6.890625,0 -10.953125,-4.65625 -4.046875,-4.65625 -4.046875,-12.625 V 0 h -9.03125 v 54.6875 h 9.03125 v -8.5 q 3.078125,5.03125 7.375,7.421875 Q 29.78125,56 35.6875,56 41.65625,56 45.828125,52.96875 50,49.953125 52,44.1875 Z" />
    <path
       id="DejaVuSans-112-7"
       d="m 18.109375,8.203125 v -29 H 9.078125 V 54.6875 h 9.03125 v -8.296875 q 2.84375,4.875 7.15625,7.234375 Q 29.59375,56 35.59375,56 q 9.96875,0 16.1875,-7.90625 6.234375,-7.90625 6.234375,-20.796875 0,-12.890625 -6.234375,-20.8125 -6.21875,-7.90625 -16.1875,-7.90625 -6,0 -10.328125,2.375 -4.3125,2.375 -7.15625,7.25 z M 48.6875,27.296875 q 0,9.90625 -4.078125,15.546875 -4.078125,5.640625 -11.203125,5.640625 -7.140625,0 -11.21875,-5.640625 -4.078125,-5.640625 -4.078125,-15.546875 0,-9.90625 4.078125,-15.546875 4.078125,-5.640625 11.21875,-5.640625 7.125,0 11.203125,5.640625 4.078125,5.640625 4.078125,15.546875 z" />
    <path
       id="DejaVuSans-114-5"
       d="m 41.109375,46.296875 q -1.515625,0.875 -3.296875,1.28125 Q 36.03125,48 33.890625,48 26.265625,48 22.1875,43.046875 18.109375,38.09375 18.109375,28.8125 V 0 h -9.03125 v 54.6875 h 9.03125 v -8.5 q 2.84375,4.984375 7.375,7.390625 Q 30.03125,56 36.53125,56 q 0.921875,0 2.046875,-0.125 1.125,-0.109375 2.484375,-0.359375 z" />
    <path
       id="DejaVuSans-97-9"
       d="m 34.28125,27.484375 q -10.890625,0 -15.09375,-2.484375 -4.203125,-2.484375 -4.203125,-8.5 0,-4.78125 3.15625,-7.59375 3.15625,-2.796875 8.5625,-2.796875 7.484375,0 12,5.296875 4.515625,5.296875 4.515625,14.078125 v 2 z m 17.921875,3.71875 V 0 H 43.21875 v 8.296875 q -3.078125,-4.96875 -7.671875,-7.34375 -4.59375,-2.375 -11.234375,-2.375 -8.390625,0 -13.359375,4.71875 Q 6,8.015625 6,15.921875 q 0,9.21875 6.171875,13.90625 6.1875,4.6875 18.4375,4.6875 H 43.21875 v 0.890625 q 0,6.203125 -4.078125,9.59375 -4.078125,3.390625 -11.453125,3.390625 -4.6875,0 -9.140625,-1.125 -4.4375,-1.125 -8.53125,-3.375 v 8.3125 q 4.921875,1.90625 9.5625,2.84375 Q 24.21875,56 28.609375,56 q 11.875,0 17.734375,-6.15625 5.859375,-6.140625 5.859375,-18.640625 z" />
    <path
       id="DejaVuSans-116-2"
       d="M 18.3125,70.21875 V 54.6875 h 18.5 v -6.984375 h -18.5 v -29.6875 q 0,-6.6875 1.828125,-8.59375 1.828125,-1.90625 7.453125,-1.90625 H 36.8125 V 0 H 27.59375 Q 17.1875,0 13.234375,3.875 9.28125,7.765625 9.28125,18.015625 v 29.6875 H 2.6875 V 54.6875 h 6.59375 v 15.53125 z" />
    <path
       id="DejaVuSans-117-2"
       d="M 8.5,21.578125 V 54.6875 h 8.984375 V 21.921875 q 0,-7.765625 3.015625,-11.65625 3.03125,-3.875 9.09375,-3.875 7.265625,0 11.484375,4.640625 4.234375,4.640625 4.234375,12.65625 v 31 h 8.984375 V 0 H 45.3125 V 8.40625 Q 42.046875,3.421875 37.71875,1 33.40625,-1.421875 27.6875,-1.421875 18.265625,-1.421875 13.375,4.4375 8.5,10.296875 8.5,21.578125 Z M 31.109375,56 Z" />
    <path
       id="DejaVuSans-32-8"
       d="" />
    <path
       id="DejaVuSans-40-9"
       d="M 31,75.875 Q 24.46875,64.65625 21.28125,53.65625 18.109375,42.671875 18.109375,31.390625 18.109375,20.125 21.3125,9.0625 24.515625,-2 31,-13.1875 H 23.1875 Q 15.875,-1.703125 12.234375,9.375 8.59375,20.453125 8.59375,31.390625 q 0,10.890625 3.609375,21.921875 3.625,11.046875 10.984375,22.5625 z" />
    <path
       id="DejaVuSans-75-7"
       d="m 9.8125,72.90625 h 9.859375 v -30.8125 l 32.71875,30.8125 H 65.09375 L 28.90625,38.921875 67.671875,0 H 54.6875 L 19.671875,35.109375 V 0 H 9.8125 Z" />
    <path
       id="DejaVuSans-41-3"
       d="m 8.015625,75.875 h 7.8125 q 7.3125,-11.515625 10.953125,-22.5625 3.640625,-11.03125 3.640625,-21.921875 0,-10.9375 -3.640625,-22.015625 -3.640625,-11.078125 -10.953125,-22.5625 h -7.8125 Q 14.5,-2 17.703125,9.0625 20.90625,20.125 20.90625,31.390625 q 0,11.28125 -3.203125,22.265625 -3.203125,11 -9.6875,22.21875 z" />
    <path
       style="stroke:#000000;stroke-width:0.80000001"
       id="md4160f5148"
       d="M 0,0 H -3.5" />
    <path
       id="DejaVuSans-51-3"
       d="M 40.578125,39.3125 Q 47.65625,37.796875 51.625,33 q 3.984375,-4.78125 3.984375,-11.8125 0,-10.78125 -7.421875,-16.703125 -7.421875,-5.90625 -21.09375,-5.90625 -4.578125,0 -9.4375,0.90625 -4.859375,0.90625 -10.03125,2.71875 v 9.515625 q 4.09375,-2.390625 8.96875,-3.609375 4.890625,-1.21875 10.21875,-1.21875 9.265625,0 14.125,3.65625 4.859375,3.65625 4.859375,10.640625 0,6.453125 -4.515625,10.078125 -4.515625,3.640625 -12.5625,3.640625 h -8.5 v 8.109375 h 8.890625 q 7.265625,0 11.125,2.90625 3.859375,2.90625 3.859375,8.375 0,5.609375 -3.984375,8.609375 -3.96875,3.015625 -11.390625,3.015625 -4.0625,0 -8.703125,-0.890625 Q 15.375,64.15625 9.8125,62.3125 v 8.78125 q 5.625,1.5625 10.53125,2.34375 4.90625,0.78125 9.25,0.78125 11.234375,0 17.765625,-5.109375 6.546875,-5.09375 6.546875,-13.78125 0,-6.0625 -3.46875,-10.234375 -3.46875,-4.171875 -9.859375,-5.78125 z" />
    <path
       style="stroke:#000000;stroke-width:0.60000002"
       id="m8faecfcc80"
       d="M 0,0 H -2" />
    <path
       id="DejaVuSans-54-4"
       d="m 33.015625,40.375 q -6.640625,0 -10.53125,-4.546875 -3.875,-4.53125 -3.875,-12.4375 0,-7.859375 3.875,-12.4375 3.890625,-4.5625 10.53125,-4.5625 6.640625,0 10.515625,4.5625 3.875,4.578125 3.875,12.4375 0,7.90625 -3.875,12.4375 Q 39.65625,40.375 33.015625,40.375 Z M 52.59375,71.296875 V 62.3125 q -3.71875,1.75 -7.5,2.671875 -3.78125,0.9375 -7.5,0.9375 -9.765625,0 -14.921875,-6.59375 -5.140625,-6.59375 -5.875,-19.921875 2.875,4.25 7.21875,6.515625 4.359375,2.265625 9.578125,2.265625 10.984375,0 17.359375,-6.671875 6.375,-6.65625 6.375,-18.125 0,-11.234375 -6.640625,-18.03125 -6.640625,-6.78125 -17.671875,-6.78125 -12.65625,0 -19.34375,9.6875 -6.6875,9.703125 -6.6875,28.109375 0,17.28125 8.203125,27.5625 8.203125,10.28125 22.015625,10.28125 3.71875,0 7.5,-0.734375 3.78125,-0.734375 7.890625,-2.1875 z" />
    <path
       id="DejaVuSans-215-5"
       d="M 70.125,53.71875 47.796875,31.296875 70.125,8.984375 64.3125,3.078125 41.890625,25.484375 19.484375,3.078125 13.71875,8.984375 35.984375,31.296875 13.71875,53.71875 19.484375,59.625 41.890625,37.203125 64.3125,59.625 Z" />
    <path
       id="DejaVuSans-52-6"
       d="M 37.796875,64.3125 12.890625,25.390625 h 24.90625 z m -2.59375,8.59375 h 12.40625 V 25.390625 h 10.40625 V 17.1875 H 47.609375 V 0 h -9.8125 V 17.1875 H 4.890625 v 9.515625 z" />
    <path
       id="DejaVuSans-111-6"
       d="m 30.609375,48.390625 q -7.21875,0 -11.421875,-5.640625 -4.203125,-5.640625 -4.203125,-15.453125 0,-9.8125 4.171875,-15.453125 4.1875,-5.640625 11.453125,-5.640625 7.1875,0 11.375,5.65625 4.203125,5.671875 4.203125,15.4375 0,9.71875 -4.203125,15.40625 -4.1875,5.6875 -11.375,5.6875 z m 0,7.609375 q 11.71875,0 18.40625,-7.625 6.703125,-7.609375 6.703125,-21.078125 0,-13.421875 -6.703125,-21.078125 -6.6875,-7.640625 -18.40625,-7.640625 -11.765625,0 -18.4375,7.640625 -6.65625,7.65625 -6.65625,21.078125 0,13.46875 6.65625,21.078125 Q 18.84375,56 30.609375,56 Z" />
    <path
       id="DejaVuSans-108-9"
       d="M 9.421875,75.984375 H 18.40625 V 0 H 9.421875 Z" />
    <path
       id="DejaVuSans-47-3"
       d="M 25.390625,72.90625 H 33.6875 L 8.296875,-9.28125 H 0 Z" />
    <path
       id="DejaVuSans-94-7"
       d="m 46.6875,72.90625 26.5,-27.203125 H 63.375 L 41.890625,64.984375 20.40625,45.703125 h -9.8125 L 37.109375,72.90625 Z" />
    <path
       id="DejaVuSans-45-4"
       d="m 4.890625,31.390625 h 26.3125 v -8 h -26.3125 z" />
    <path
       id="DejaVuSans-115-5"
       d="m 44.28125,53.078125 v -8.5 Q 40.484375,46.53125 36.375,47.5 q -4.09375,0.984375 -8.5,0.984375 -6.6875,0 -10.03125,-2.046875 Q 14.5,44.390625 14.5,40.28125 q 0,-3.125 2.390625,-4.90625 2.390625,-1.78125 9.625,-3.390625 l 3.078125,-0.6875 Q 39.15625,29.25 43.1875,25.515625 47.21875,21.78125 47.21875,15.09375 q 0,-7.625 -6.03125,-12.078125 -6.03125,-4.4375 -16.578125,-4.4375 -4.390625,0 -9.15625,0.859375 Q 10.6875,0.296875 5.421875,2 v 9.28125 q 4.984375,-2.59375 9.8125,-3.890625 4.828125,-1.28125 9.578125,-1.28125 6.34375,0 9.75,2.171875 3.421875,2.171875 3.421875,6.125 0,3.65625 -2.46875,5.609375 -2.453125,1.953125 -10.8125,3.765625 l -3.125,0.734375 q -8.34375,1.75 -12.0625,5.390625 -3.703125,3.640625 -3.703125,9.984375 0,7.71875 5.46875,11.90625 Q 16.75,56 26.8125,56 q 4.96875,0 9.359375,-0.734375 4.40625,-0.71875 8.109375,-2.1875 z" />
    <path
       style="stroke:#000000"
       id="mb60f584faa"
       d="M 0,3 C 0.795609,3 1.55874,2.683901 2.12132,2.12132 2.683901,1.55874 3,0.795609 3,0 3,-0.795609 2.683901,-1.55874 2.12132,-2.12132 1.55874,-2.683901 0.795609,-3 0,-3 -0.795609,-3 -1.55874,-2.683901 -2.12132,-2.12132 -2.683901,-1.55874 -3,-0.795609 -3,0 -3,0.795609 -2.683901,1.55874 -2.12132,2.12132 -1.55874,2.683901 -0.795609,3 0,3 Z" />
    <path
       id="DejaVuSans-67-8"
       d="M 64.40625,67.28125 V 56.890625 q -4.984375,4.640625 -10.625,6.921875 -5.640625,2.296875 -11.984375,2.296875 -12.5,0 -19.140625,-7.640625 -6.640625,-7.640625 -6.640625,-22.09375 0,-14.40625 6.640625,-22.046875 Q 29.296875,6.6875 41.796875,6.6875 q 6.34375,0 11.984375,2.296875 5.640625,2.296875 10.625,6.9375 V 5.609375 Q 59.234375,2.09375 53.4375,0.328125 q -5.78125,-1.75 -12.21875,-1.75 -16.5625,0 -26.09375,10.125 Q 5.609375,18.84375 5.609375,36.375 q 0,17.578125 9.515625,27.703125 9.53125,10.140625 26.09375,10.140625 6.53125,0 12.3125,-1.734375 5.796875,-1.734375 10.875,-5.203125 z" />
    <path
       id="DejaVuSans-72-4"
       d="m 9.8125,72.90625 h 9.859375 V 43.015625 h 35.84375 V 72.90625 H 65.375 V 0 H 55.515625 V 34.71875 H 19.671875 V 0 H 9.8125 Z" />
    <path
       id="DejaVuSans-43-3"
       d="M 46,62.703125 V 35.5 H 73.1875 V 27.203125 H 46 V 0 H 37.796875 V 27.203125 H 10.59375 V 35.5 h 27.203125 v 27.203125 z" />
    <path
       id="DejaVuSans-79-1"
       d="m 39.40625,66.21875 q -10.75,0 -17.078125,-8.015625 -6.3125,-8 -6.3125,-21.828125 0,-13.765625 6.3125,-21.78125 6.328125,-8 17.078125,-8 10.734375,0 17.015625,8 6.28125,8.015625 6.28125,21.78125 0,13.828125 -6.28125,21.828125 -6.28125,8.015625 -17.015625,8.015625 z m 0,8 q 15.328125,0 24.5,-10.28125 9.1875,-10.28125 9.1875,-27.5625 0,-17.234375 -9.1875,-27.515625 -9.171875,-10.28125 -24.5,-10.28125 -15.375,0 -24.59375,10.25 Q 5.609375,19.09375 5.609375,36.375 q 0,17.28125 9.203125,27.5625 9.21875,10.28125 24.59375,10.28125 z" />
    <path
       id="DejaVuSans-60-4"
       d="M 73.1875,49.21875 22.796875,31.296875 73.1875,13.484375 V 4.59375 L 10.59375,27.296875 V 35.40625 L 73.1875,58.109375 Z" />
    <path
       id="DejaVuSans-61-9"
       d="M 10.59375,45.40625 H 73.1875 V 37.203125 H 10.59375 Z m 0,-19.921875 H 73.1875 V 17.1875 H 10.59375 Z" />
    <path
       id="DejaVuSans-62-2"
       d="m 10.59375,49.21875 v 8.890625 L 73.1875,35.40625 V 27.296875 L 10.59375,4.59375 v 8.890625 l 50.296875,17.8125 z" />
  </defs>
  <g
     id="figure_1">
    <g
       id="patch_1">
      <path
         id="path1860"
         style="fill:#ffffff;"
         d="M 0 277.314375  L 412.478125 277.314375  L 412.478125 0  L 0 0  z " />
    </g>
    <g
       id="axes_1">
      <g
         id="patch_2">
        <path
           id="path1863"
           style="fill:#ffffff;"
           d="M 66.978125 239.758125  L 401.778125 239.758125  L 401.778125 22.318125  L 66.978125 22.318125  z " />
      </g>
      <g
         id="matplotlib.axis_1">
        <g
           id="xtick_1">
          <g
             id="line2d_1">
            <defs
               id="defs1867">
              <path
                 style="stroke:#000000;stroke-width:0.8;"
                 id="m82adfa8895"
                 d="M 0 0  L 0 3.5  " />
            </defs>
            <g
               id="g1871">
              <use
                 id="use1869"
                 y="239.758125"
                 xlink:href="#m82adfa8895"
                 x="121.895912"
                 style="stroke:#000000;stroke-width:0.8;" />
            </g>
          </g>
          <g
             id="text_1">
            <!-- 500 -->
            <defs
               id="defs1876">
              <path
                 id="DejaVuSans-53"
                 d="M 10.796875 72.90625  L 49.515625 72.90625  L 49.515625 64.59375  L 19.828125 64.59375  L 19.828125 46.734375  Q 21.96875 47.46875 24.109375 47.828125  Q 26.265625 48.1875 28.421875 48.1875  Q 40.625 48.1875 47.75 41.5  Q 54.890625 34.8125 54.890625 23.390625  Q 54.890625 11.625 47.5625 5.09375  Q 40.234375 -1.421875 26.90625 -1.421875  Q 22.3125 -1.421875 17.546875 -0.640625  Q 12.796875 0.140625 7.71875 1.703125  L 7.71875 11.625  Q 12.109375 9.234375 16.796875 8.0625  Q 21.484375 6.890625 26.703125 6.890625  Q 35.15625 6.890625 40.078125 11.328125  Q 45.015625 15.765625 45.015625 23.390625  Q 45.015625 31 40.078125 35.4375  Q 35.15625 39.890625 26.703125 39.890625  Q 22.75 39.890625 18.8125 39.015625  Q 14.890625 38.140625 10.796875 36.28125  z " />
              <path
                 id="DejaVuSans-48"
                 d="M 31.78125 66.40625  Q 24.171875 66.40625 20.328125 58.90625  Q 16.5 51.421875 16.5 36.375  Q 16.5 21.390625 20.328125 13.890625  Q 24.171875 6.390625 31.78125 6.390625  Q 39.453125 6.390625 43.28125 13.890625  Q 47.125 21.390625 47.125 36.375  Q 47.125 51.421875 43.28125 58.90625  Q 39.453125 66.40625 31.78125 66.40625  z M 31.78125 74.21875  Q 44.046875 74.21875 50.515625 64.515625  Q 56.984375 54.828125 56.984375 36.375  Q 56.984375 17.96875 50.515625 8.265625  Q 44.046875 -1.421875 31.78125 -1.421875  Q 19.53125 -1.421875 13.0625 8.265625  Q 6.59375 17.96875 6.59375 36.375  Q 6.59375 54.828125 13.0625 64.515625  Q 19.53125 74.21875 31.78125 74.21875  z " />
            </defs>
            <g
               id="g1884"
               transform="translate(112.352162 254.356562)scale(0.1 -0.1)">
              <use
                 id="use1878"
                 xlink:href="#DejaVuSans-53" />
              <use
                 id="use1880"
                 xlink:href="#DejaVuSans-48"
                 x="63.623047" />
              <use
                 id="use1882"
                 xlink:href="#DejaVuSans-48"
                 x="127.246094" />
            </g>
          </g>
        </g>
        <g
           id="xtick_2">
          <g
             id="line2d_2">
            <g
               id="g1890">
              <use
                 id="use1888"
                 y="239.758125"
                 xlink:href="#m82adfa8895"
                 x="188.061919"
                 style="stroke:#000000;stroke-width:0.8;" />
            </g>
          </g>
          <g
             id="text_2">
            <!-- 1000 -->
            <defs
               id="defs1894">
              <path
                 id="DejaVuSans-49"
                 d="M 12.40625 8.296875  L 28.515625 8.296875  L 28.515625 63.921875  L 10.984375 60.40625  L 10.984375 69.390625  L 28.421875 72.90625  L 38.28125 72.90625  L 38.28125 8.296875  L 54.390625 8.296875  L 54.390625 0  L 12.40625 0  z " />
            </defs>
            <g
               id="g1904"
               transform="translate(175.336919 254.356562)scale(0.1 -0.1)">
              <use
                 id="use1896"
                 xlink:href="#DejaVuSans-49" />
              <use
                 id="use1898"
                 xlink:href="#DejaVuSans-48"
                 x="63.623047" />
              <use
                 id="use1900"
                 xlink:href="#DejaVuSans-48"
                 x="127.246094" />
              <use
                 id="use1902"
                 xlink:href="#DejaVuSans-48"
                 x="190.869141" />
            </g>
          </g>
        </g>
        <g
           id="xtick_3">
          <g
             id="line2d_3">
            <g
               id="g1910">
              <use
                 id="use1908"
                 y="239.758125"
                 xlink:href="#m82adfa8895"
                 x="254.227927"
                 style="stroke:#000000;stroke-width:0.8;" />
            </g>
          </g>
          <g
             id="text_3">
            <!-- 1500 -->
            <g
               id="g1921"
               transform="translate(241.502927 254.356562)scale(0.1 -0.1)">
              <use
                 id="use1913"
                 xlink:href="#DejaVuSans-49" />
              <use
                 id="use1915"
                 xlink:href="#DejaVuSans-53"
                 x="63.623047" />
              <use
                 id="use1917"
                 xlink:href="#DejaVuSans-48"
                 x="127.246094" />
              <use
                 id="use1919"
                 xlink:href="#DejaVuSans-48"
                 x="190.869141" />
            </g>
          </g>
        </g>
        <g
           id="xtick_4">
          <g
             id="line2d_4">
            <g
               id="g1927">
              <use
                 id="use1925"
                 y="239.758125"
                 xlink:href="#m82adfa8895"
                 x="320.393935"
                 style="stroke:#000000;stroke-width:0.8;" />
            </g>
          </g>
          <g
             id="text_4">
            <!-- 2000 -->
            <defs
               id="defs1931">
              <path
                 id="DejaVuSans-50"
                 d="M 19.1875 8.296875  L 53.609375 8.296875  L 53.609375 0  L 7.328125 0  L 7.328125 8.296875  Q 12.9375 14.109375 22.625 23.890625  Q 32.328125 33.6875 34.8125 36.53125  Q 39.546875 41.84375 41.421875 45.53125  Q 43.3125 49.21875 43.3125 52.78125  Q 43.3125 58.59375 39.234375 62.25  Q 35.15625 65.921875 28.609375 65.921875  Q 23.96875 65.921875 18.8125 64.3125  Q 13.671875 62.703125 7.8125 59.421875  L 7.8125 69.390625  Q 13.765625 71.78125 18.9375 73  Q 24.125 74.21875 28.421875 74.21875  Q 39.75 74.21875 46.484375 68.546875  Q 53.21875 62.890625 53.21875 53.421875  Q 53.21875 48.921875 51.53125 44.890625  Q 49.859375 40.875 45.40625 35.40625  Q 44.1875 33.984375 37.640625 27.21875  Q 31.109375 20.453125 19.1875 8.296875  z " />
            </defs>
            <g
               id="g1941"
               transform="translate(307.668935 254.356562)scale(0.1 -0.1)">
              <use
                 id="use1933"
                 xlink:href="#DejaVuSans-50" />
              <use
                 id="use1935"
                 xlink:href="#DejaVuSans-48"
                 x="63.623047" />
              <use
                 id="use1937"
                 xlink:href="#DejaVuSans-48"
                 x="127.246094" />
              <use
                 id="use1939"
                 xlink:href="#DejaVuSans-48"
                 x="190.869141" />
            </g>
          </g>
        </g>
        <g
           id="xtick_5">
          <g
             id="line2d_5">
            <g
               id="g1947">
              <use
                 id="use1945"
                 y="239.758125"
                 xlink:href="#m82adfa8895"
                 x="386.559943"
                 style="stroke:#000000;stroke-width:0.8;" />
            </g>
          </g>
          <g
             id="text_5">
            <!-- 2500 -->
            <g
               id="g1958"
               transform="translate(373.834943 254.356562)scale(0.1 -0.1)">
              <use
                 id="use1950"
                 xlink:href="#DejaVuSans-50" />
              <use
                 id="use1952"
                 xlink:href="#DejaVuSans-53"
                 x="63.623047" />
              <use
                 id="use1954"
                 xlink:href="#DejaVuSans-48"
                 x="127.246094" />
              <use
                 id="use1956"
                 xlink:href="#DejaVuSans-48"
                 x="190.869141" />
            </g>
          </g>
        </g>
        <g
           id="text_6">
          <!-- Temperature (K) -->
          <defs
             id="defs1974">
            <path
               id="DejaVuSans-84"
               d="M -0.296875 72.90625  L 61.375 72.90625  L 61.375 64.59375  L 35.5 64.59375  L 35.5 0  L 25.59375 0  L 25.59375 64.59375  L -0.296875 64.59375  z " />
            <path
               id="DejaVuSans-101"
               d="M 56.203125 29.59375  L 56.203125 25.203125  L 14.890625 25.203125  Q 15.484375 15.921875 20.484375 11.0625  Q 25.484375 6.203125 34.421875 6.203125  Q 39.59375 6.203125 44.453125 7.46875  Q 49.3125 8.734375 54.109375 11.28125  L 54.109375 2.78125  Q 49.265625 0.734375 44.1875 -0.34375  Q 39.109375 -1.421875 33.890625 -1.421875  Q 20.796875 -1.421875 13.15625 6.1875  Q 5.515625 13.8125 5.515625 26.8125  Q 5.515625 40.234375 12.765625 48.109375  Q 20.015625 56 32.328125 56  Q 43.359375 56 49.78125 48.890625  Q 56.203125 41.796875 56.203125 29.59375  z M 47.21875 32.234375  Q 47.125 39.59375 43.09375 43.984375  Q 39.0625 48.390625 32.421875 48.390625  Q 24.90625 48.390625 20.390625 44.140625  Q 15.875 39.890625 15.1875 32.171875  z " />
            <path
               id="DejaVuSans-109"
               d="M 52 44.1875  Q 55.375 50.25 60.0625 53.125  Q 64.75 56 71.09375 56  Q 79.640625 56 84.28125 50.015625  Q 88.921875 44.046875 88.921875 33.015625  L 88.921875 0  L 79.890625 0  L 79.890625 32.71875  Q 79.890625 40.578125 77.09375 44.375  Q 74.3125 48.1875 68.609375 48.1875  Q 61.625 48.1875 57.5625 43.546875  Q 53.515625 38.921875 53.515625 30.90625  L 53.515625 0  L 44.484375 0  L 44.484375 32.71875  Q 44.484375 40.625 41.703125 44.40625  Q 38.921875 48.1875 33.109375 48.1875  Q 26.21875 48.1875 22.15625 43.53125  Q 18.109375 38.875 18.109375 30.90625  L 18.109375 0  L 9.078125 0  L 9.078125 54.6875  L 18.109375 54.6875  L 18.109375 46.1875  Q 21.1875 51.21875 25.484375 53.609375  Q 29.78125 56 35.6875 56  Q 41.65625 56 45.828125 52.96875  Q 50 49.953125 52 44.1875  z " />
            <path
               id="DejaVuSans-112"
               d="M 18.109375 8.203125  L 18.109375 -20.796875  L 9.078125 -20.796875  L 9.078125 54.6875  L 18.109375 54.6875  L 18.109375 46.390625  Q 20.953125 51.265625 25.265625 53.625  Q 29.59375 56 35.59375 56  Q 45.5625 56 51.78125 48.09375  Q 58.015625 40.1875 58.015625 27.296875  Q 58.015625 14.40625 51.78125 6.484375  Q 45.5625 -1.421875 35.59375 -1.421875  Q 29.59375 -1.421875 25.265625 0.953125  Q 20.953125 3.328125 18.109375 8.203125  z M 48.6875 27.296875  Q 48.6875 37.203125 44.609375 42.84375  Q 40.53125 48.484375 33.40625 48.484375  Q 26.265625 48.484375 22.1875 42.84375  Q 18.109375 37.203125 18.109375 27.296875  Q 18.109375 17.390625 22.1875 11.75  Q 26.265625 6.109375 33.40625 6.109375  Q 40.53125 6.109375 44.609375 11.75  Q 48.6875 17.390625 48.6875 27.296875  z " />
            <path
               id="DejaVuSans-114"
               d="M 41.109375 46.296875  Q 39.59375 47.171875 37.8125 47.578125  Q 36.03125 48 33.890625 48  Q 26.265625 48 22.1875 43.046875  Q 18.109375 38.09375 18.109375 28.8125  L 18.109375 0  L 9.078125 0  L 9.078125 54.6875  L 18.109375 54.6875  L 18.109375 46.1875  Q 20.953125 51.171875 25.484375 53.578125  Q 30.03125 56 36.53125 56  Q 37.453125 56 38.578125 55.875  Q 39.703125 55.765625 41.0625 55.515625  z " />
            <path
               id="DejaVuSans-97"
               d="M 34.28125 27.484375  Q 23.390625 27.484375 19.1875 25  Q 14.984375 22.515625 14.984375 16.5  Q 14.984375 11.71875 18.140625 8.90625  Q 21.296875 6.109375 26.703125 6.109375  Q 34.1875 6.109375 38.703125 11.40625  Q 43.21875 16.703125 43.21875 25.484375  L 43.21875 27.484375  z M 52.203125 31.203125  L 52.203125 0  L 43.21875 0  L 43.21875 8.296875  Q 40.140625 3.328125 35.546875 0.953125  Q 30.953125 -1.421875 24.3125 -1.421875  Q 15.921875 -1.421875 10.953125 3.296875  Q 6 8.015625 6 15.921875  Q 6 25.140625 12.171875 29.828125  Q 18.359375 34.515625 30.609375 34.515625  L 43.21875 34.515625  L 43.21875 35.40625  Q 43.21875 41.609375 39.140625 45  Q 35.0625 48.390625 27.6875 48.390625  Q 23 48.390625 18.546875 47.265625  Q 14.109375 46.140625 10.015625 43.890625  L 10.015625 52.203125  Q 14.9375 54.109375 19.578125 55.046875  Q 24.21875 56 28.609375 56  Q 40.484375 56 46.34375 49.84375  Q 52.203125 43.703125 52.203125 31.203125  z " />
            <path
               id="DejaVuSans-116"
               d="M 18.3125 70.21875  L 18.3125 54.6875  L 36.8125 54.6875  L 36.8125 47.703125  L 18.3125 47.703125  L 18.3125 18.015625  Q 18.3125 11.328125 20.140625 9.421875  Q 21.96875 7.515625 27.59375 7.515625  L 36.8125 7.515625  L 36.8125 0  L 27.59375 0  Q 17.1875 0 13.234375 3.875  Q 9.28125 7.765625 9.28125 18.015625  L 9.28125 47.703125  L 2.6875 47.703125  L 2.6875 54.6875  L 9.28125 54.6875  L 9.28125 70.21875  z " />
            <path
               id="DejaVuSans-117"
               d="M 8.5 21.578125  L 8.5 54.6875  L 17.484375 54.6875  L 17.484375 21.921875  Q 17.484375 14.15625 20.5 10.265625  Q 23.53125 6.390625 29.59375 6.390625  Q 36.859375 6.390625 41.078125 11.03125  Q 45.3125 15.671875 45.3125 23.6875  L 45.3125 54.6875  L 54.296875 54.6875  L 54.296875 0  L 45.3125 0  L 45.3125 8.40625  Q 42.046875 3.421875 37.71875 1  Q 33.40625 -1.421875 27.6875 -1.421875  Q 18.265625 -1.421875 13.375 4.4375  Q 8.5 10.296875 8.5 21.578125  z M 31.109375 56  z " />
            <path
               id="DejaVuSans-32" />
            <path
               id="DejaVuSans-40"
               d="M 31 75.875  Q 24.46875 64.65625 21.28125 53.65625  Q 18.109375 42.671875 18.109375 31.390625  Q 18.109375 20.125 21.3125 9.0625  Q 24.515625 -2 31 -13.1875  L 23.1875 -13.1875  Q 15.875 -1.703125 12.234375 9.375  Q 8.59375 20.453125 8.59375 31.390625  Q 8.59375 42.28125 12.203125 53.3125  Q 15.828125 64.359375 23.1875 75.875  z " />
            <path
               id="DejaVuSans-75"
               d="M 9.8125 72.90625  L 19.671875 72.90625  L 19.671875 42.09375  L 52.390625 72.90625  L 65.09375 72.90625  L 28.90625 38.921875  L 67.671875 0  L 54.6875 0  L 19.671875 35.109375  L 19.671875 0  L 9.8125 0  z " />
            <path
               id="DejaVuSans-41"
               d="M 8.015625 75.875  L 15.828125 75.875  Q 23.140625 64.359375 26.78125 53.3125  Q 30.421875 42.28125 30.421875 31.390625  Q 30.421875 20.453125 26.78125 9.375  Q 23.140625 -1.703125 15.828125 -13.1875  L 8.015625 -13.1875  Q 14.5 -2 17.703125 9.0625  Q 20.90625 20.125 20.90625 31.390625  Q 20.90625 42.671875 17.703125 53.65625  Q 14.5 64.65625 8.015625 75.875  z " />
          </defs>
          <g
             id="g2006"
             transform="translate(192.991406 268.034687)scale(0.1 -0.1)">
            <use
               id="use1976"
               xlink:href="#DejaVuSans-84" />
            <use
               id="use1978"
               xlink:href="#DejaVuSans-101"
               x="60.818359" />
            <use
               id="use1980"
               xlink:href="#DejaVuSans-109"
               x="122.341797" />
            <use
               id="use1982"
               xlink:href="#DejaVuSans-112"
               x="219.753906" />
            <use
               id="use1984"
               xlink:href="#DejaVuSans-101"
               x="283.230469" />
            <use
               id="use1986"
               xlink:href="#DejaVuSans-114"
               x="344.753906" />
            <use
               id="use1988"
               xlink:href="#DejaVuSans-97"
               x="385.867188" />
            <use
               id="use1990"
               xlink:href="#DejaVuSans-116"
               x="447.146484" />
            <use
               id="use1992"
               xlink:href="#DejaVuSans-117"
               x="486.355469" />
            <use
               id="use1994"
               xlink:href="#DejaVuSans-114"
               x="549.734375" />
            <use
               id="use1996"
               xlink:href="#DejaVuSans-101"
               x="590.816406" />
            <use
               id="use1998"
               xlink:href="#DejaVuSans-32"
               x="652.339844" />
            <use
               id="use2000"
               xlink:href="#DejaVuSans-40"
               x="684.126953" />
            <use
               id="use2002"
               xlink:href="#DejaVuSans-75"
               x="723.140625" />
            <use
               id="use2004"
               xlink:href="#DejaVuSans-41"
               x="788.716797" />
          </g>
        </g>
      </g>
      <g
         id="matplotlib.axis_2">
        <g
           id="ytick_1">
          <g
             id="line2d_6">
            <defs
               id="defs2011">
              <path
                 style="stroke:#000000;stroke-width:0.8;"
                 id="ma9ad195980"
                 d="M 0 0  L -3.5 0  " />
            </defs>
            <g
               id="g2015">
              <use
                 id="use2013"
                 y="159.307252"
                 xlink:href="#ma9ad195980"
                 x="66.978125"
                 style="stroke:#000000;stroke-width:0.8;" />
            </g>
          </g>
          <g
             id="text_7">
            <!-- $\mathdefault{10^{13}}$ -->
            <defs
               id="defs2019">
              <path
                 id="DejaVuSans-51"
                 d="M 40.578125 39.3125  Q 47.65625 37.796875 51.625 33  Q 55.609375 28.21875 55.609375 21.1875  Q 55.609375 10.40625 48.1875 4.484375  Q 40.765625 -1.421875 27.09375 -1.421875  Q 22.515625 -1.421875 17.65625 -0.515625  Q 12.796875 0.390625 7.625 2.203125  L 7.625 11.71875  Q 11.71875 9.328125 16.59375 8.109375  Q 21.484375 6.890625 26.8125 6.890625  Q 36.078125 6.890625 40.9375 10.546875  Q 45.796875 14.203125 45.796875 21.1875  Q 45.796875 27.640625 41.28125 31.265625  Q 36.765625 34.90625 28.71875 34.90625  L 20.21875 34.90625  L 20.21875 43.015625  L 29.109375 43.015625  Q 36.375 43.015625 40.234375 45.921875  Q 44.09375 48.828125 44.09375 54.296875  Q 44.09375 59.90625 40.109375 62.90625  Q 36.140625 65.921875 28.71875 65.921875  Q 24.65625 65.921875 20.015625 65.03125  Q 15.375 64.15625 9.8125 62.3125  L 9.8125 71.09375  Q 15.4375 72.65625 20.34375 73.4375  Q 25.25 74.21875 29.59375 74.21875  Q 40.828125 74.21875 47.359375 69.109375  Q 53.90625 64.015625 53.90625 55.328125  Q 53.90625 49.265625 50.4375 45.09375  Q 46.96875 40.921875 40.578125 39.3125  z " />
            </defs>
            <g
               id="g2029"
               transform="translate(37.878125 163.106471)scale(0.1 -0.1)">
              <use
                 id="use2021"
                 xlink:href="#DejaVuSans-49"
                 transform="translate(0 0.765625)" />
              <use
                 id="use2023"
                 xlink:href="#DejaVuSans-48"
                 transform="translate(63.623047 0.765625)" />
              <use
                 id="use2025"
                 xlink:href="#DejaVuSans-49"
                 transform="translate(128.203125 39.046875)scale(0.7)" />
              <use
                 id="use2027"
                 xlink:href="#DejaVuSans-51"
                 transform="translate(172.739258 39.046875)scale(0.7)" />
            </g>
          </g>
        </g>
        <g
           id="ytick_2">
          <g
             id="line2d_7">
            <defs
               id="defs2034">
              <path
                 style="stroke:#000000;stroke-width:0.6;"
                 id="mdaf28a2625"
                 d="M 0 0  L -2 0  " />
            </defs>
            <g
               id="g2038">
              <use
                 id="use2036"
                 y="227.875961"
                 xlink:href="#mdaf28a2625"
                 x="66.978125"
                 style="stroke:#000000;stroke-width:0.6;" />
            </g>
          </g>
        </g>
        <g
           id="ytick_3">
          <g
             id="line2d_8">
            <g
               id="g2044">
              <use
                 id="use2042"
                 y="209.840032"
                 xlink:href="#mdaf28a2625"
                 x="66.978125"
                 style="stroke:#000000;stroke-width:0.6;" />
            </g>
          </g>
          <g
             id="text_8">
            <!-- $\mathdefault{6\times10^{12}}$ -->
            <defs
               id="defs2049">
              <path
                 id="DejaVuSans-54"
                 d="M 33.015625 40.375  Q 26.375 40.375 22.484375 35.828125  Q 18.609375 31.296875 18.609375 23.390625  Q 18.609375 15.53125 22.484375 10.953125  Q 26.375 6.390625 33.015625 6.390625  Q 39.65625 6.390625 43.53125 10.953125  Q 47.40625 15.53125 47.40625 23.390625  Q 47.40625 31.296875 43.53125 35.828125  Q 39.65625 40.375 33.015625 40.375  z M 52.59375 71.296875  L 52.59375 62.3125  Q 48.875 64.0625 45.09375 64.984375  Q 41.3125 65.921875 37.59375 65.921875  Q 27.828125 65.921875 22.671875 59.328125  Q 17.53125 52.734375 16.796875 39.40625  Q 19.671875 43.65625 24.015625 45.921875  Q 28.375 48.1875 33.59375 48.1875  Q 44.578125 48.1875 50.953125 41.515625  Q 57.328125 34.859375 57.328125 23.390625  Q 57.328125 12.15625 50.6875 5.359375  Q 44.046875 -1.421875 33.015625 -1.421875  Q 20.359375 -1.421875 13.671875 8.265625  Q 6.984375 17.96875 6.984375 36.375  Q 6.984375 53.65625 15.1875 63.9375  Q 23.390625 74.21875 37.203125 74.21875  Q 40.921875 74.21875 44.703125 73.484375  Q 48.484375 72.75 52.59375 71.296875  z " />
              <path
                 id="DejaVuSans-215"
                 d="M 70.125 53.71875  L 47.796875 31.296875  L 70.125 8.984375  L 64.3125 3.078125  L 41.890625 25.484375  L 19.484375 3.078125  L 13.71875 8.984375  L 35.984375 31.296875  L 13.71875 53.71875  L 19.484375 59.625  L 41.890625 37.203125  L 64.3125 59.625  z " />
            </defs>
            <g
               id="g2063"
               transform="translate(20.878125 213.63925)scale(0.1 -0.1)">
              <use
                 id="use2051"
                 xlink:href="#DejaVuSans-54"
                 transform="translate(0 0.765625)" />
              <use
                 id="use2053"
                 xlink:href="#DejaVuSans-215"
                 transform="translate(83.105469 0.765625)" />
              <use
                 id="use2055"
                 xlink:href="#DejaVuSans-49"
                 transform="translate(186.376953 0.765625)" />
              <use
                 id="use2057"
                 xlink:href="#DejaVuSans-48"
                 transform="translate(250 0.765625)" />
              <use
                 id="use2059"
                 xlink:href="#DejaVuSans-49"
                 transform="translate(314.580078 39.046875)scale(0.7)" />
              <use
                 id="use2061"
                 xlink:href="#DejaVuSans-50"
                 transform="translate(359.116211 39.046875)scale(0.7)" />
            </g>
          </g>
        </g>
        <g
           id="ytick_4">
          <g
             id="line2d_9">
            <g
               id="g2069">
              <use
                 id="use2067"
                 y="194.59087"
                 xlink:href="#mdaf28a2625"
                 x="66.978125"
                 style="stroke:#000000;stroke-width:0.6;" />
            </g>
          </g>
        </g>
        <g
           id="ytick_5">
          <g
             id="line2d_10">
            <g
               id="g2075">
              <use
                 id="use2073"
                 y="181.381446"
                 xlink:href="#mdaf28a2625"
                 x="66.978125"
                 style="stroke:#000000;stroke-width:0.6;" />
            </g>
          </g>
        </g>
        <g
           id="ytick_6">
          <g
             id="line2d_11">
            <g
               id="g2081">
              <use
                 id="use2079"
                 y="169.729908"
                 xlink:href="#mdaf28a2625"
                 x="66.978125"
                 style="stroke:#000000;stroke-width:0.6;" />
            </g>
          </g>
        </g>
        <g
           id="ytick_7">
          <g
             id="line2d_12">
            <g
               id="g2087">
              <use
                 id="use2085"
                 y="90.738543"
                 xlink:href="#mdaf28a2625"
                 x="66.978125"
                 style="stroke:#000000;stroke-width:0.6;" />
            </g>
          </g>
          <g
             id="text_9">
            <!-- $\mathdefault{2\times10^{13}}$ -->
            <g
               id="g2102"
               transform="translate(20.878125 94.537761)scale(0.1 -0.1)">
              <use
                 id="use2090"
                 xlink:href="#DejaVuSans-50"
                 transform="translate(0 0.765625)" />
              <use
                 id="use2092"
                 xlink:href="#DejaVuSans-215"
                 transform="translate(83.105469 0.765625)" />
              <use
                 id="use2094"
                 xlink:href="#DejaVuSans-49"
                 transform="translate(186.376953 0.765625)" />
              <use
                 id="use2096"
                 xlink:href="#DejaVuSans-48"
                 transform="translate(250 0.765625)" />
              <use
                 id="use2098"
                 xlink:href="#DejaVuSans-49"
                 transform="translate(314.580078 39.046875)scale(0.7)" />
              <use
                 id="use2100"
                 xlink:href="#DejaVuSans-51"
                 transform="translate(359.116211 39.046875)scale(0.7)" />
            </g>
          </g>
        </g>
        <g
           id="ytick_8">
          <g
             id="line2d_13">
            <g
               id="g2108">
              <use
                 id="use2106"
                 y="50.628419"
                 xlink:href="#mdaf28a2625"
                 x="66.978125"
                 style="stroke:#000000;stroke-width:0.6;" />
            </g>
          </g>
          <g
             id="text_10">
            <!-- $\mathdefault{3\times10^{13}}$ -->
            <g
               id="g2123"
               transform="translate(20.878125 54.427638)scale(0.1 -0.1)">
              <use
                 id="use2111"
                 xlink:href="#DejaVuSans-51"
                 transform="translate(0 0.765625)" />
              <use
                 id="use2113"
                 xlink:href="#DejaVuSans-215"
                 transform="translate(83.105469 0.765625)" />
              <use
                 id="use2115"
                 xlink:href="#DejaVuSans-49"
                 transform="translate(186.376953 0.765625)" />
              <use
                 id="use2117"
                 xlink:href="#DejaVuSans-48"
                 transform="translate(250 0.765625)" />
              <use
                 id="use2119"
                 xlink:href="#DejaVuSans-49"
                 transform="translate(314.580078 39.046875)scale(0.7)" />
              <use
                 id="use2121"
                 xlink:href="#DejaVuSans-51"
                 transform="translate(359.116211 39.046875)scale(0.7)" />
            </g>
          </g>
        </g>
        <g
           id="ytick_9">
          <g
             id="line2d_14">
            <g
               id="g2129">
              <use
                 id="use2127"
                 y="22.169833"
                 xlink:href="#mdaf28a2625"
                 x="66.978125"
                 style="stroke:#000000;stroke-width:0.6;" />
            </g>
          </g>
          <g
             id="text_11">
            <!-- $\mathdefault{4\times10^{13}}$ -->
            <defs
               id="defs2133">
              <path
                 id="DejaVuSans-52"
                 d="M 37.796875 64.3125  L 12.890625 25.390625  L 37.796875 25.390625  z M 35.203125 72.90625  L 47.609375 72.90625  L 47.609375 25.390625  L 58.015625 25.390625  L 58.015625 17.1875  L 47.609375 17.1875  L 47.609375 0  L 37.796875 0  L 37.796875 17.1875  L 4.890625 17.1875  L 4.890625 26.703125  z " />
            </defs>
            <g
               id="g2147"
               transform="translate(20.878125 25.969052)scale(0.1 -0.1)">
              <use
                 id="use2135"
                 xlink:href="#DejaVuSans-52"
                 transform="translate(0 0.765625)" />
              <use
                 id="use2137"
                 xlink:href="#DejaVuSans-215"
                 transform="translate(83.105469 0.765625)" />
              <use
                 id="use2139"
                 xlink:href="#DejaVuSans-49"
                 transform="translate(186.376953 0.765625)" />
              <use
                 id="use2141"
                 xlink:href="#DejaVuSans-48"
                 transform="translate(250 0.765625)" />
              <use
                 id="use2143"
                 xlink:href="#DejaVuSans-49"
                 transform="translate(314.580078 39.046875)scale(0.7)" />
              <use
                 id="use2145"
                 xlink:href="#DejaVuSans-51"
                 transform="translate(359.116211 39.046875)scale(0.7)" />
            </g>
          </g>
        </g>
        <g
           id="text_12">
          <!-- Kmol/m^3-s -->
          <defs
             id="defs2157">
            <path
               id="DejaVuSans-111"
               d="M 30.609375 48.390625  Q 23.390625 48.390625 19.1875 42.75  Q 14.984375 37.109375 14.984375 27.296875  Q 14.984375 17.484375 19.15625 11.84375  Q 23.34375 6.203125 30.609375 6.203125  Q 37.796875 6.203125 41.984375 11.859375  Q 46.1875 17.53125 46.1875 27.296875  Q 46.1875 37.015625 41.984375 42.703125  Q 37.796875 48.390625 30.609375 48.390625  z M 30.609375 56  Q 42.328125 56 49.015625 48.375  Q 55.71875 40.765625 55.71875 27.296875  Q 55.71875 13.875 49.015625 6.21875  Q 42.328125 -1.421875 30.609375 -1.421875  Q 18.84375 -1.421875 12.171875 6.21875  Q 5.515625 13.875 5.515625 27.296875  Q 5.515625 40.765625 12.171875 48.375  Q 18.84375 56 30.609375 56  z " />
            <path
               id="DejaVuSans-108"
               d="M 9.421875 75.984375  L 18.40625 75.984375  L 18.40625 0  L 9.421875 0  z " />
            <path
               id="DejaVuSans-47"
               d="M 25.390625 72.90625  L 33.6875 72.90625  L 8.296875 -9.28125  L 0 -9.28125  z " />
            <path
               id="DejaVuSans-94"
               d="M 46.6875 72.90625  L 73.1875 45.703125  L 63.375 45.703125  L 41.890625 64.984375  L 20.40625 45.703125  L 10.59375 45.703125  L 37.109375 72.90625  z " />
            <path
               id="DejaVuSans-45"
               d="M 4.890625 31.390625  L 31.203125 31.390625  L 31.203125 23.390625  L 4.890625 23.390625  z " />
            <path
               id="DejaVuSans-115"
               d="M 44.28125 53.078125  L 44.28125 44.578125  Q 40.484375 46.53125 36.375 47.5  Q 32.28125 48.484375 27.875 48.484375  Q 21.1875 48.484375 17.84375 46.4375  Q 14.5 44.390625 14.5 40.28125  Q 14.5 37.15625 16.890625 35.375  Q 19.28125 33.59375 26.515625 31.984375  L 29.59375 31.296875  Q 39.15625 29.25 43.1875 25.515625  Q 47.21875 21.78125 47.21875 15.09375  Q 47.21875 7.46875 41.1875 3.015625  Q 35.15625 -1.421875 24.609375 -1.421875  Q 20.21875 -1.421875 15.453125 -0.5625  Q 10.6875 0.296875 5.421875 2  L 5.421875 11.28125  Q 10.40625 8.6875 15.234375 7.390625  Q 20.0625 6.109375 24.8125 6.109375  Q 31.15625 6.109375 34.5625 8.28125  Q 37.984375 10.453125 37.984375 14.40625  Q 37.984375 18.0625 35.515625 20.015625  Q 33.0625 21.96875 24.703125 23.78125  L 21.578125 24.515625  Q 13.234375 26.265625 9.515625 29.90625  Q 5.8125 33.546875 5.8125 39.890625  Q 5.8125 47.609375 11.28125 51.796875  Q 16.75 56 26.8125 56  Q 31.78125 56 36.171875 55.265625  Q 40.578125 54.546875 44.28125 53.078125  z " />
          </defs>
          <g
             id="g2179"
             transform="translate(14.798438 161.970156)rotate(-90)scale(0.1 -0.1)">
            <use
               id="use2159"
               xlink:href="#DejaVuSans-75" />
            <use
               id="use2161"
               xlink:href="#DejaVuSans-109"
               x="65.576172" />
            <use
               id="use2163"
               xlink:href="#DejaVuSans-111"
               x="162.988281" />
            <use
               id="use2165"
               xlink:href="#DejaVuSans-108"
               x="224.169922" />
            <use
               id="use2167"
               xlink:href="#DejaVuSans-47"
               x="251.953125" />
            <use
               id="use2169"
               xlink:href="#DejaVuSans-109"
               x="285.644531" />
            <use
               id="use2171"
               xlink:href="#DejaVuSans-94"
               x="383.056641" />
            <use
               id="use2173"
               xlink:href="#DejaVuSans-51"
               x="466.845703" />
            <use
               id="use2175"
               xlink:href="#DejaVuSans-45"
               x="530.46875" />
            <use
               id="use2177"
               xlink:href="#DejaVuSans-115"
               x="566.552734" />
          </g>
        </g>
      </g>
      <g
         id="line2d_15">
        <path
           id="path2183"
           style="fill:none;stroke:#0000ff;stroke-linecap:square;stroke-width:1.5;"
           d="M 88.812908 91.955278  L 90.665556 98.702388  L 92.650536 105.097309  L 94.635516 110.762752  L 96.752829 116.125345  L 98.870141 120.890503  L 101.119785 125.396092  L 103.369429 129.410513  L 105.751406 133.202648  L 108.133382 136.58934  L 110.64769 139.785529  L 113.294331 142.787764  L 116.073303 145.595858  L 118.984607 148.212218  L 122.028244 150.641259  L 125.204212 152.888904  L 128.512512 154.962163  L 132.085477 156.937529  L 135.923105 158.798102  L 140.025398 160.532162  L 144.392354 162.132448  L 149.156307 163.634063  L 154.317255 165.019169  L 159.8752 166.276035  L 165.962473 167.420728  L 172.711406 168.456554  L 180.121999 169.363517  L 188.326583 170.140687  L 197.589825 170.78975  L 208.044054 171.293982  L 219.953935 171.64128  L 233.716465 171.815748  L 249.993303 171.792663  L 269.578441 171.533567  L 293.7952 170.981682  L 325.554884 170.0233  L 372.135753 168.375328  L 386.427611 167.841901  L 386.427611 167.841901  "
           clip-path="url(#p024d16f5b2)" />
      </g>
      <g
         id="line2d_16">
        <path
           id="path2186"
           style="fill:none;stroke:#0000ff;stroke-dasharray:5.55,2.4;stroke-dashoffset:0;stroke-width:1.5;"
           d="M 82.196307 34.692034  L 88.812908 67.046556  L 95.429508 87.658574  L 102.046109 101.674713  L 108.66271 111.637753  L 115.279311 118.945487  L 121.895912 124.428196  L 121.895912 124.428196  L 128.512512 128.608993  L 135.129113 131.833105  L 141.745714 134.337048  L 148.362315 136.287938  L 154.978916 137.806944  L 154.978916 137.806944  L 161.595516 138.983867  L 161.595516 138.983867  L 161.595516 138.983867  L 168.212117 139.886535  L 174.828718 140.567017  L 174.828718 140.567017  L 181.445319 141.065866  L 188.061919 141.415068  L 194.67852 141.640135  L 194.888267 141.645478  L 195.689113 141.664937  L 197.062018 141.694887  L 197.862878 141.710422  L 199.121369 141.732038  L 200.37986 141.750335  L 201.295121 141.761619  L 201.409522 141.762912  L 203.812089 141.784222  L 204.498548 141.788316  L 205.642625 141.793241  L 205.871453 141.793946  L 206.329084 141.795081  L 207.358746 141.796312  L 207.911722 141.79623  L 208.388421 141.79575  L 209.761313 141.792293  L 214.223244 141.76088  L 214.528323 141.757662  L 214.528323 141.757662  L 216.282582 141.736642  L 220.7445 141.664876  L 221.144923 141.657219  L 227.761524 141.504297  L 234.378125 141.306752  L 240.994726 141.07119  L 247.611327 140.803192  L 254.227927 140.507497  L 254.227927 140.507497  L 260.844528 140.188145  L 267.461129 139.848595  L 267.461129 139.848595  L 274.07773 139.491816  L 280.694331 139.120369  L 280.694331 139.120369  L 287.310931 138.736465  L 293.927532 138.342024  L 300.544133 137.93871  L 307.160734 137.527976  L 313.777334 137.111088  L 320.393935 136.689153  L 327.010536 136.263141  L 333.627137 135.833903  L 340.243738 135.402185  L 346.860338 134.968645  L 353.476939 134.53386  L 353.476939 134.53386  L 360.09354 134.098339  L 360.09354 134.098339  L 366.710141 133.66253  L 373.326742 133.226827  L 379.943342 132.79158  L 386.559943 132.357094  L 386.559943 132.357094  "
           clip-path="url(#p024d16f5b2)" />
      </g>
      <g
         id="line2d_17">
        <path
           id="path2189"
           style="fill:none;stroke:#0000ff;stroke-dasharray:5.55,2.4;stroke-dashoffset:0;stroke-width:1.5;"
           d="M 82.196307 83.711777  L 88.812908 116.863999  L 95.429508 138.041547  L 102.046109 152.533897  L 108.66271 162.947575  L 115.279311 170.707636  L 121.895912 176.654898  L 121.895912 176.654898  L 128.512512 181.315332  L 135.129113 185.033569  L 141.745714 188.044094  L 148.362315 190.51152  L 154.978916 192.554504  L 154.978916 192.554504  L 161.595516 194.260531  L 161.595516 194.260531  L 161.595516 194.260531  L 168.212117 195.695376  L 174.828718 196.909349  L 174.828718 196.909349  L 181.445319 197.941512  L 188.061919 198.822606  L 194.67852 199.577114  L 194.888267 199.599191  L 195.689113 199.682509  L 197.062018 199.821818  L 197.862878 199.901075  L 199.121369 200.022717  L 200.37986 200.140903  L 201.295121 200.224746  L 201.409522 200.235102  L 203.812089 200.446484  L 204.498548 200.504784  L 205.642625 200.599949  L 205.871453 200.618688  L 206.329084 200.655872  L 207.358746 200.738135  L 207.911722 200.781527  L 208.388421 200.818498  L 209.761313 200.922766  L 214.223244 201.240057  L 214.528323 201.2606  L 214.528323 201.2606  L 216.282582 201.376006  L 220.7445 201.649613  L 221.144923 201.672834  L 227.761524 202.027282  L 234.378125 202.331536  L 240.994726 202.592004  L 247.611327 202.814126  L 254.227927 203.002545  L 254.227927 203.002545  L 260.844528 203.161242  L 267.461129 203.293649  L 267.461129 203.293649  L 274.07773 203.402736  L 280.694331 203.491081  L 280.694331 203.491081  L 287.310931 203.560938  L 293.927532 203.614275  L 300.544133 203.652824  L 307.160734 203.678109  L 313.777334 203.691477  L 320.393935 203.694124  L 327.010536 203.687108  L 333.627137 203.671377  L 340.243738 203.647773  L 346.860338 203.61705  L 353.476939 203.579887  L 353.476939 203.579887  L 360.09354 203.536892  L 360.09354 203.536892  L 366.710141 203.488611  L 373.326742 203.43554  L 379.943342 203.378123  L 386.559943 203.316765  L 386.559943 203.316765  "
           clip-path="url(#p024d16f5b2)" />
      </g>
      <g
         id="line2d_18">
        <path
           id="path2192"
           style="fill:none;stroke:#ff0000;stroke-linecap:square;stroke-width:1.5;"
           d="M 88.812908 89.756045  L 90.665556 96.487682  L 92.650536 102.865819  L 94.635516 108.514396  L 96.752829 113.85902  L 98.870141 118.606315  L 101.119785 123.093111  L 103.369429 127.088984  L 105.751406 130.861785  L 108.133382 134.229485  L 110.64769 137.406016  L 113.294331 140.388002  L 116.073303 143.175327  L 118.984607 145.770468  L 122.028244 148.177906  L 125.204212 150.403625  L 128.512512 152.454692  L 132.085477 154.406805  L 135.923105 156.243194  L 140.025398 157.952263  L 144.392354 159.52687  L 149.156307 161.001494  L 154.317255 162.358487  L 159.8752 163.586298  L 165.962473 164.700515  L 172.711406 165.704066  L 180.121999 166.57727  L 188.458916 167.329222  L 197.722157 167.937275  L 208.308718 168.402976  L 220.350931 168.704629  L 234.378125 168.826904  L 250.919627 168.741234  L 270.901761 168.407155  L 295.912512 167.756862  L 329.26018 166.653734  L 380.605002 164.70853  L 386.427611 164.479372  L 386.427611 164.479372  "
           clip-path="url(#p024d16f5b2)" />
      </g>
      <g
         id="line2d_19">
        <path
           id="path2195"
           style="fill:none;stroke:#ff0000;stroke-dasharray:5.55,2.4;stroke-dashoffset:0;stroke-width:1.5;"
           d="M 82.196307 32.201761  L 88.812908 64.494754  L 95.429508 85.036945  L 102.046109 98.982883  L 108.66271 108.878256  L 115.279311 116.121873  L 121.895912 121.544255  L 121.895912 121.544255  L 128.512512 125.668427  L 135.129113 128.839395  L 141.745714 131.293409  L 148.362315 133.19731  L 154.978916 134.672006  L 154.978916 134.672006  L 161.595516 135.807059  L 161.595516 135.807059  L 161.595516 135.807059  L 168.212117 136.670076  L 174.828718 137.31293  L 174.828718 137.31293  L 181.445319 137.776001  L 188.061919 138.091114  L 194.67852 138.283643  L 194.888267 138.287979  L 195.689113 138.303604  L 197.062018 138.32703  L 197.862878 138.338786  L 199.121369 138.354505  L 200.37986 138.366954  L 201.295121 138.374015  L 201.409522 138.374782  L 203.812089 138.385133  L 204.498548 138.386127  L 205.642625 138.385916  L 205.871453 138.385598  L 206.329084 138.384692  L 207.358746 138.381352  L 207.911722 138.378828  L 208.388421 138.376249  L 209.761313 138.366781  L 214.223244 138.316185  L 214.528323 138.311674  L 214.528323 138.311674  L 216.282582 138.283268  L 220.7445 138.193057  L 221.144923 138.183769  L 227.761524 138.004428  L 234.378125 137.781433  L 240.994726 137.521324  L 247.611327 137.229623  L 254.227927 136.911014  L 254.227927 136.911014  L 260.844528 136.569489  L 267.461129 136.208459  L 267.461129 136.208459  L 274.07773 135.830854  L 280.694331 135.439196  L 280.694331 135.439196  L 287.310931 135.035662  L 293.927532 134.62214  L 300.544133 134.200264  L 307.160734 133.771461  L 313.777334 133.33697  L 320.393935 132.897876  L 327.010536 132.455128  L 333.627137 132.009555  L 340.243738 131.561887  L 346.860338 131.112761  L 353.476939 130.662739  L 353.476939 130.662739  L 360.09354 130.212316  L 360.09354 130.212316  L 366.710141 129.761924  L 373.326742 129.311946  L 379.943342 128.862716  L 386.559943 128.41453  L 386.559943 128.41453  "
           clip-path="url(#p024d16f5b2)" />
      </g>
      <g
         id="line2d_20">
        <path
           id="path2198"
           style="fill:none;stroke:#ff0000;stroke-dasharray:5.55,2.4;stroke-dashoffset:0;stroke-width:1.5;"
           d="M 82.196307 81.90536  L 88.812908 115.017336  L 95.429508 136.152973  L 102.046109 150.604427  L 108.66271 160.979017  L 115.279311 168.701952  L 121.895912 174.613987  L 121.895912 174.613987  L 128.512512 179.240956  L 135.129113 182.92734  L 141.745714 185.907482  L 148.362315 188.345865  L 154.978916 190.361031  L 154.978916 190.361031  L 161.595516 192.040364  L 161.595516 192.040364  L 161.595516 192.040364  L 168.212117 193.449552  L 174.828718 194.638823  L 174.828718 194.638823  L 181.445319 195.647172  L 188.061919 196.505277  L 194.67852 197.237565  L 194.888267 197.25895  L 195.689113 197.339632  L 197.062018 197.474446  L 197.862878 197.551094  L 199.121369 197.668657  L 200.37986 197.78279  L 201.295121 197.863699  L 201.409522 197.873691  L 203.812089 198.07744  L 204.498548 198.133575  L 205.642625 198.225148  L 205.871453 198.243171  L 206.329084 198.278925  L 207.358746 198.357982  L 207.911722 198.399658  L 208.388421 198.435154  L 209.761313 198.535193  L 214.223244 198.838919  L 214.528323 198.858545  L 214.528323 198.858545  L 216.282582 198.9687  L 220.7445 199.229137  L 221.144923 199.251189  L 227.761524 199.586612  L 234.378125 199.872375  L 240.994726 200.114857  L 247.611327 200.319472  L 254.227927 200.490838  L 254.227927 200.490838  L 260.844528 200.632915  L 267.461129 200.749114  L 267.461129 200.749114  L 274.07773 200.842383  L 280.694331 200.915287  L 280.694331 200.915287  L 287.310931 200.970058  L 293.927532 201.008652  L 300.544133 201.032784  L 307.160734 201.043966  L 313.777334 201.043532  L 320.393935 201.032664  L 327.010536 201.012411  L 333.627137 200.983707  L 340.243738 200.947386  L 346.860338 200.904194  L 353.476939 200.854798  L 353.476939 200.854798  L 360.09354 200.799797  L 360.09354 200.799797  L 366.710141 200.739732  L 373.326742 200.675088  L 379.943342 200.606305  L 386.559943 200.533778  L 386.559943 200.533778  "
           clip-path="url(#p024d16f5b2)" />
      </g>
      <g
         id="line2d_21">
        <defs
           id="defs2202">
          <path
             style="stroke:#000000;"
             id="maf2363cd05"
             d="M 0 3  C 0.795609 3 1.55874 2.683901 2.12132 2.12132  C 2.683901 1.55874 3 0.795609 3 0  C 3 -0.795609 2.683901 -1.55874 2.12132 -2.12132  C 1.55874 -2.683901 0.795609 -3 0 -3  C -0.795609 -3 -1.55874 -2.683901 -2.12132 -2.12132  C -2.683901 -1.55874 -3 -0.795609 -3 0  C -3 0.795609 -2.683901 1.55874 -2.12132 2.12132  C -1.55874 2.683901 -0.795609 3 0 3  z " />
        </defs>
        <g
           id="g2262"
           clip-path="url(#p024d16f5b2)">
          <use
             id="use2204"
             y="191.392776"
             xlink:href="#maf2363cd05"
             x="195.689113"
             style="stroke:#000000;" />
          <use
             id="use2206"
             y="194.308634"
             xlink:href="#maf2363cd05"
             x="197.062018"
             style="stroke:#000000;" />
          <use
             id="use2208"
             y="225.917011"
             xlink:href="#maf2363cd05"
             x="197.862878"
             style="stroke:#000000;" />
          <use
             id="use2210"
             y="228.870178"
             xlink:href="#maf2363cd05"
             x="201.409522"
             style="stroke:#000000;" />
          <use
             id="use2212"
             y="192.355211"
             xlink:href="#maf2363cd05"
             x="200.37986"
             style="stroke:#000000;" />
          <use
             id="use2214"
             y="177.027131"
             xlink:href="#maf2363cd05"
             x="199.121369"
             style="stroke:#000000;" />
          <use
             id="use2216"
             y="171.280816"
             xlink:href="#maf2363cd05"
             x="203.812089"
             style="stroke:#000000;" />
          <use
             id="use2218"
             y="167.448205"
             xlink:href="#maf2363cd05"
             x="206.329084"
             style="stroke:#000000;" />
          <use
             id="use2220"
             y="195.300004"
             xlink:href="#maf2363cd05"
             x="204.498548"
             style="stroke:#000000;" />
          <use
             id="use2222"
             y="229.874489"
             xlink:href="#maf2363cd05"
             x="205.642625"
             style="stroke:#000000;" />
          <use
             id="use2224"
             y="229.874489"
             xlink:href="#maf2363cd05"
             x="208.388421"
             style="stroke:#000000;" />
          <use
             id="use2226"
             y="205.801767"
             xlink:href="#maf2363cd05"
             x="207.358746"
             style="stroke:#000000;" />
          <use
             id="use2228"
             y="207.719574"
             xlink:href="#maf2363cd05"
             x="209.761313"
             style="stroke:#000000;" />
          <use
             id="use2230"
             y="208.692602"
             xlink:href="#maf2363cd05"
             x="205.871453"
             style="stroke:#000000;" />
          <use
             id="use2232"
             y="179.908609"
             xlink:href="#maf2363cd05"
             x="214.223244"
             style="stroke:#000000;" />
          <use
             id="use2234"
             y="180.88806"
             xlink:href="#maf2363cd05"
             x="216.282582"
             style="stroke:#000000;" />
          <use
             id="use2236"
             y="167.448205"
             xlink:href="#maf2363cd05"
             x="220.7445"
             style="stroke:#000000;" />
          <use
             id="use2238"
             y="167.448205"
             xlink:href="#maf2363cd05"
             x="161.595516"
             style="stroke:#000000;" />
          <use
             id="use2240"
             y="167.448205"
             xlink:href="#maf2363cd05"
             x="174.828718"
             style="stroke:#000000;" />
          <use
             id="use2242"
             y="167.448205"
             xlink:href="#maf2363cd05"
             x="214.528323"
             style="stroke:#000000;" />
          <use
             id="use2244"
             y="167.448205"
             xlink:href="#maf2363cd05"
             x="154.978916"
             style="stroke:#000000;" />
          <use
             id="use2246"
             y="167.448205"
             xlink:href="#maf2363cd05"
             x="161.595516"
             style="stroke:#000000;" />
          <use
             id="use2248"
             y="167.448205"
             xlink:href="#maf2363cd05"
             x="121.895912"
             style="stroke:#000000;" />
          <use
             id="use2250"
             y="167.448205"
             xlink:href="#maf2363cd05"
             x="254.227927"
             style="stroke:#000000;" />
          <use
             id="use2252"
             y="167.448205"
             xlink:href="#maf2363cd05"
             x="280.694331"
             style="stroke:#000000;" />
          <use
             id="use2254"
             y="167.448205"
             xlink:href="#maf2363cd05"
             x="353.476939"
             style="stroke:#000000;" />
          <use
             id="use2256"
             y="167.448205"
             xlink:href="#maf2363cd05"
             x="360.09354"
             style="stroke:#000000;" />
          <use
             id="use2258"
             y="167.448205"
             xlink:href="#maf2363cd05"
             x="267.461129"
             style="stroke:#000000;" />
          <use
             id="use2260"
             y="167.448205"
             xlink:href="#maf2363cd05"
             x="386.559943"
             style="stroke:#000000;" />
        </g>
      </g>
      <g
         id="patch_3">
        <path
           id="path2265"
           style="fill:none;stroke:#000000;stroke-linecap:square;stroke-linejoin:miter;stroke-width:0.8;"
           d="M 66.978125 239.758125  L 66.978125 22.318125  " />
      </g>
      <g
         id="patch_4">
        <path
           id="path2268"
           style="fill:none;stroke:#000000;stroke-linecap:square;stroke-linejoin:miter;stroke-width:0.8;"
           d="M 401.778125 239.758125  L 401.778125 22.318125  " />
      </g>
      <g
         id="patch_5">
        <path
           id="path2271"
           style="fill:none;stroke:#000000;stroke-linecap:square;stroke-linejoin:miter;stroke-width:0.8;"
           d="M 66.978125 239.758125  L 401.778125 239.758125  " />
      </g>
      <g
         id="patch_6">
        <path
           id="path2274"
           style="fill:none;stroke:#000000;stroke-linecap:square;stroke-linejoin:miter;stroke-width:0.8;"
           d="M 66.978125 22.318125  L 401.778125 22.318125  " />
      </g>
      <g
         id="text_13">
        <!-- CH3 + HO2 &lt;=&gt; CH3O + OH -->
        <defs
           id="defs2284">
          <path
             id="DejaVuSans-67"
             d="M 64.40625 67.28125  L 64.40625 56.890625  Q 59.421875 61.53125 53.78125 63.8125  Q 48.140625 66.109375 41.796875 66.109375  Q 29.296875 66.109375 22.65625 58.46875  Q 16.015625 50.828125 16.015625 36.375  Q 16.015625 21.96875 22.65625 14.328125  Q 29.296875 6.6875 41.796875 6.6875  Q 48.140625 6.6875 53.78125 8.984375  Q 59.421875 11.28125 64.40625 15.921875  L 64.40625 5.609375  Q 59.234375 2.09375 53.4375 0.328125  Q 47.65625 -1.421875 41.21875 -1.421875  Q 24.65625 -1.421875 15.125 8.703125  Q 5.609375 18.84375 5.609375 36.375  Q 5.609375 53.953125 15.125 64.078125  Q 24.65625 74.21875 41.21875 74.21875  Q 47.75 74.21875 53.53125 72.484375  Q 59.328125 70.75 64.40625 67.28125  z " />
          <path
             id="DejaVuSans-72"
             d="M 9.8125 72.90625  L 19.671875 72.90625  L 19.671875 43.015625  L 55.515625 43.015625  L 55.515625 72.90625  L 65.375 72.90625  L 65.375 0  L 55.515625 0  L 55.515625 34.71875  L 19.671875 34.71875  L 19.671875 0  L 9.8125 0  z " />
          <path
             id="DejaVuSans-43"
             d="M 46 62.703125  L 46 35.5  L 73.1875 35.5  L 73.1875 27.203125  L 46 27.203125  L 46 0  L 37.796875 0  L 37.796875 27.203125  L 10.59375 27.203125  L 10.59375 35.5  L 37.796875 35.5  L 37.796875 62.703125  z " />
          <path
             id="DejaVuSans-79"
             d="M 39.40625 66.21875  Q 28.65625 66.21875 22.328125 58.203125  Q 16.015625 50.203125 16.015625 36.375  Q 16.015625 22.609375 22.328125 14.59375  Q 28.65625 6.59375 39.40625 6.59375  Q 50.140625 6.59375 56.421875 14.59375  Q 62.703125 22.609375 62.703125 36.375  Q 62.703125 50.203125 56.421875 58.203125  Q 50.140625 66.21875 39.40625 66.21875  z M 39.40625 74.21875  Q 54.734375 74.21875 63.90625 63.9375  Q 73.09375 53.65625 73.09375 36.375  Q 73.09375 19.140625 63.90625 8.859375  Q 54.734375 -1.421875 39.40625 -1.421875  Q 24.03125 -1.421875 14.8125 8.828125  Q 5.609375 19.09375 5.609375 36.375  Q 5.609375 53.65625 14.8125 63.9375  Q 24.03125 74.21875 39.40625 74.21875  z " />
          <path
             id="DejaVuSans-60"
             d="M 73.1875 49.21875  L 22.796875 31.296875  L 73.1875 13.484375  L 73.1875 4.59375  L 10.59375 27.296875  L 10.59375 35.40625  L 73.1875 58.109375  z " />
          <path
             id="DejaVuSans-61"
             d="M 10.59375 45.40625  L 73.1875 45.40625  L 73.1875 37.203125  L 10.59375 37.203125  z M 10.59375 25.484375  L 73.1875 25.484375  L 73.1875 17.1875  L 10.59375 17.1875  z " />
          <path
             id="DejaVuSans-62"
             d="M 10.59375 49.21875  L 10.59375 58.109375  L 73.1875 35.40625  L 73.1875 27.296875  L 10.59375 4.59375  L 10.59375 13.484375  L 60.890625 31.296875  z " />
        </defs>
        <g
           id="g2332"
           transform="translate(145.747812 16.318125)scale(0.12 -0.12)">
          <use
             id="use2286"
             xlink:href="#DejaVuSans-67" />
          <use
             id="use2288"
             xlink:href="#DejaVuSans-72"
             x="69.824219" />
          <use
             id="use2290"
             xlink:href="#DejaVuSans-51"
             x="145.019531" />
          <use
             id="use2292"
             xlink:href="#DejaVuSans-32"
             x="208.642578" />
          <use
             id="use2294"
             xlink:href="#DejaVuSans-43"
             x="240.429688" />
          <use
             id="use2296"
             xlink:href="#DejaVuSans-32"
             x="324.21875" />
          <use
             id="use2298"
             xlink:href="#DejaVuSans-72"
             x="356.005859" />
          <use
             id="use2300"
             xlink:href="#DejaVuSans-79"
             x="431.201172" />
          <use
             id="use2302"
             xlink:href="#DejaVuSans-50"
             x="509.912109" />
          <use
             id="use2304"
             xlink:href="#DejaVuSans-32"
             x="573.535156" />
          <use
             id="use2306"
             xlink:href="#DejaVuSans-60"
             x="605.322266" />
          <use
             id="use2308"
             xlink:href="#DejaVuSans-61"
             x="689.111328" />
          <use
             id="use2310"
             xlink:href="#DejaVuSans-62"
             x="772.900391" />
          <use
             id="use2312"
             xlink:href="#DejaVuSans-32"
             x="856.689453" />
          <use
             id="use2314"
             xlink:href="#DejaVuSans-67"
             x="888.476562" />
          <use
             id="use2316"
             xlink:href="#DejaVuSans-72"
             x="958.300781" />
          <use
             id="use2318"
             xlink:href="#DejaVuSans-51"
             x="1033.496094" />
          <use
             id="use2320"
             xlink:href="#DejaVuSans-79"
             x="1097.119141" />
          <use
             id="use2322"
             xlink:href="#DejaVuSans-32"
             x="1175.830078" />
          <use
             id="use2324"
             xlink:href="#DejaVuSans-43"
             x="1207.617188" />
          <use
             id="use2326"
             xlink:href="#DejaVuSans-32"
             x="1291.40625" />
          <use
             id="use2328"
             xlink:href="#DejaVuSans-79"
             x="1323.193359" />
          <use
             id="use2330"
             xlink:href="#DejaVuSans-72"
             x="1401.904297" />
        </g>
      </g>
    </g>
  </g>
  <defs
     id="defs2340">
    <clipPath
       id="p024d16f5b2">
      <rect
         id="rect2337"
         y="22.318125"
         x="66.978125"
         width="334.8"
         height="217.44" />
    </clipPath>
  </defs>
  <g
     transform="translate(4.8114255,322.8708)"
     style="stroke-linecap:butt;stroke-linejoin:round"
     id="figure_1-3">
    <g
       transform="translate(-4.822258,-322.92322)"
       style="stroke-linecap:butt;stroke-linejoin:round"
       id="axes_1-7">
      <g
         style="stroke-linecap:butt;stroke-linejoin:round"
         id="patch_2-5" />
      <g
         style="stroke:#00ff00;stroke-linecap:butt;stroke-linejoin:round;stroke-opacity:1"
         id="line2d_15-2">
        <path
           id="path3205"
           style="fill:none;stroke:#00ff00;stroke-width:1.5;stroke-linecap:square;stroke-linejoin:round;stroke-opacity:1"
           d="m 88.812908,87.730197 1.852648,6.540727 1.98498,6.192116 1.98498,5.479 2.117313,5.17931 2.117312,4.59586 2.249639,4.33905 2.24965,3.85992 2.38198,3.64003 2.38197,3.245 2.51431,3.05657 2.64664,2.86504 2.77897,2.67356 2.91131,2.48468 3.04363,2.30032 3.17597,2.12196 3.44063,2.02371 3.57297,1.84232 3.83763,1.72775 4.10229,1.60215 4.49929,1.51098 4.76395,1.36331 5.16095,1.24681 5.69028,1.14364 6.2196,1.021 6.88127,0.90153 7.67525,0.77672 8.60158,0.64135 9.66024,0.49308 10.98356,0.33479 12.70387,0.16051 14.95352,-0.04 17.86482,-0.2771 22.09945,-0.5737 28.84838,-0.98403 41.68458,-1.66365 37.97929,-1.61685 v 0"
           clip-path="url(#p83308eef81)" />
      </g>
      <g
         style="stroke:#00ff00;stroke-linecap:butt;stroke-linejoin:round;stroke-opacity:1"
         id="line2d_16-5">
        <path
           id="path3208"
           style="fill:none;stroke:#00ff00;stroke-width:1.5;stroke-linecap:butt;stroke-linejoin:round;stroke-dasharray:5.55, 2.4;stroke-dashoffset:0;stroke-opacity:1"
           d="m 82.196307,32.201761 6.616601,31.452113 6.6166,19.963147 6.616602,13.519371 6.6166,9.565828 6.6166,6.97984 6.6166,5.20538 v 0 l 6.6166,3.94168 6.6166,3.01474 6.6166,2.31828 6.6166,1.78447 6.61661,1.3685 v 0 l 6.6166,1.03975 v 0 0 l 6.6166,0.77682 6.6166,0.56433 v 0 l 6.6166,0.39111 6.6166,0.2488 6.6166,0.13113 0.20975,0.002 0.80084,0.009 1.37291,0.0114 0.80086,0.005 1.25849,0.005 1.25849,0.002 0.91526,-6e-4 0.1144,-1.9e-4 2.40257,-0.009 0.68646,-0.005 1.14407,-0.009 0.22883,-0.002 0.45763,-0.005 1.02967,-0.0115 0.55297,-0.007 0.4767,-0.006 1.37289,-0.02 4.46193,-0.084 0.30508,-0.007 v 0 l 1.75426,-0.0411 4.46192,-0.12167 0.40042,-0.0121 6.6166,-0.22359 6.6166,-0.26481 6.61661,-0.29974 6.6166,-0.32933 6.6166,-0.35442 v 0 l 6.6166,-0.37567 6.6166,-0.39365 v 0 l 6.6166,-0.4088 6.6166,-0.42156 v 0 l 6.6166,-0.43223 6.6166,-0.4411 6.6166,-0.44841 6.6166,-0.45436 6.6166,-0.45914 6.6166,-0.46289 6.61661,-0.46575 6.6166,-0.46783 6.6166,-0.46921 6.6166,-0.47 6.6166,-0.47027 v 0 l 6.6166,-0.47008 v 0 l 6.6166,-0.46948 6.6166,-0.46854 6.6166,-0.46728 6.6166,-0.46575 v 0"
           clip-path="url(#p83308eef81)" />
      </g>
      <g
         style="stroke:#00ff00;stroke-linecap:butt;stroke-linejoin:round;stroke-opacity:1"
         id="line2d_17-4">
        <path
           id="path3211"
           style="fill:none;stroke:#00ff00;stroke-width:1.5;stroke-linecap:butt;stroke-linejoin:round;stroke-dasharray:5.55, 2.4;stroke-dashoffset:0;stroke-opacity:1"
           d="m 82.196307,79.591182 6.616601,32.215338 6.6166,20.49416 6.616602,13.96191 6.6166,9.98385 6.6166,7.40069 6.6166,5.6396 v 0 l 6.6166,4.39214 6.6166,3.48078 6.6166,2.79784 6.6166,2.275 6.61661,1.86744 v 0 l 6.6166,1.54473 v 0 0 l 6.6166,1.28571 6.6166,1.07536 v 0 l 6.6166,0.90271 6.6166,0.7597 6.6166,0.64024 0.20975,0.0186 0.80084,0.07 1.37291,0.11662 0.80086,0.0661 1.25849,0.10121 1.25849,0.098 0.91526,0.0693 0.1144,0.009 2.40257,0.17368 0.68646,0.0477 1.14407,0.0776 0.22883,0.0152 0.45763,0.0302 1.02967,0.0666 0.55297,0.0351 0.4767,0.0298 1.37289,0.0838 4.46193,0.25223 0.30508,0.0162 v 0 l 1.75426,0.0905 4.46192,0.2116 0.40042,0.0178 6.6166,0.26627 6.6166,0.21994 6.61661,0.1797 6.6166,0.14463 6.6166,0.11393 v 0 l 6.6166,0.087 6.6166,0.0633 v 0 l 6.6166,0.0424 6.6166,0.0239 v 0 l 6.6166,0.008 6.6166,-0.007 6.6166,-0.02 6.6166,-0.0315 6.6166,-0.0418 6.6166,-0.051 6.61661,-0.0591 6.6166,-0.0665 6.6166,-0.073 6.6166,-0.0789 6.6166,-0.0842 v 0 l 6.6166,-0.0889 v 0 l 6.6166,-0.0931 6.6166,-0.0968 6.6166,-0.10019 6.6166,-0.1032 v 0"
           clip-path="url(#p83308eef81)" />
      </g>
      <g
         style="stroke-linecap:butt;stroke-linejoin:round"
         id="patch_3-0">
        <path
           id="path3287"
           style="fill:none;stroke:#000000;stroke-width:0.80000001;stroke-linecap:square;stroke-linejoin:miter"
           d="M 66.978125,239.75812 V 22.318125" />
      </g>
      <g
         style="stroke-linecap:butt;stroke-linejoin:round"
         id="patch_4-7">
        <path
           id="path3290"
           style="fill:none;stroke:#000000;stroke-width:0.80000001;stroke-linecap:square;stroke-linejoin:miter"
           d="M 401.77812,239.75812 V 22.318125" />
      </g>
      <g
         style="stroke-linecap:butt;stroke-linejoin:round"
         id="patch_5-8">
        <path
           id="path3293"
           style="fill:none;stroke:#000000;stroke-width:0.80000001;stroke-linecap:square;stroke-linejoin:miter"
           d="M 66.978125,239.75812 H 401.77812" />
      </g>
      <g
         style="stroke-linecap:butt;stroke-linejoin:round"
         id="patch_6-6">
        <path
           id="path3296"
           style="fill:none;stroke:#000000;stroke-width:0.80000001;stroke-linecap:square;stroke-linejoin:miter"
           d="M 66.978125,22.318125 H 401.77812" />
      </g>
    </g>
  </g>
</svg>
