<?xml version="1.0" encoding="utf-8" standalone="no"?>
<!DOCTYPE svg PUBLIC "-//W3C//DTD SVG 1.1//EN"
  "http://www.w3.org/Graphics/SVG/1.1/DTD/svg11.dtd">
<!-- Created with matplotlib (https://matplotlib.org/) -->
<svg height="277.314375pt" version="1.1" viewBox="0 0 395.478125 277.314375" width="395.478125pt" xmlns="http://www.w3.org/2000/svg" xmlns:xlink="http://www.w3.org/1999/xlink">
 <defs>
  <style type="text/css">
*{stroke-linecap:butt;stroke-linejoin:round;}
  </style>
 </defs>
 <g id="figure_1">
  <g id="patch_1">
   <path d="M 0 277.314375 
L 395.478125 277.314375 
L 395.478125 0 
L 0 0 
z
" style="fill:#ffffff;"/>
  </g>
  <g id="axes_1">
   <g id="patch_2">
    <path d="M 49.978125 239.758125 
L 384.778125 239.758125 
L 384.778125 22.318125 
L 49.978125 22.318125 
z
" style="fill:#ffffff;"/>
   </g>
   <g id="matplotlib.axis_1">
    <g id="xtick_1">
     <g id="line2d_1">
      <defs>
       <path d="M 0 0 
L 0 3.5 
" id="m7fc295b029" style="stroke:#000000;stroke-width:0.8;"/>
      </defs>
      <g>
       <use style="stroke:#000000;stroke-width:0.8;" x="104.895912" xlink:href="#m7fc295b029" y="239.758125"/>
      </g>
     </g>
     <g id="text_1">
      <!-- 500 -->
      <defs>
       <path d="M 10.796875 72.90625 
L 49.515625 72.90625 
L 49.515625 64.59375 
L 19.828125 64.59375 
L 19.828125 46.734375 
Q 21.96875 47.46875 24.109375 47.828125 
Q 26.265625 48.1875 28.421875 48.1875 
Q 40.625 48.1875 47.75 41.5 
Q 54.890625 34.8125 54.890625 23.390625 
Q 54.890625 11.625 47.5625 5.09375 
Q 40.234375 -1.421875 26.90625 -1.421875 
Q 22.3125 -1.421875 17.546875 -0.640625 
Q 12.796875 0.140625 7.71875 1.703125 
L 7.71875 11.625 
Q 12.109375 9.234375 16.796875 8.0625 
Q 21.484375 6.890625 26.703125 6.890625 
Q 35.15625 6.890625 40.078125 11.328125 
Q 45.015625 15.765625 45.015625 23.390625 
Q 45.015625 31 40.078125 35.4375 
Q 35.15625 39.890625 26.703125 39.890625 
Q 22.75 39.890625 18.8125 39.015625 
Q 14.890625 38.140625 10.796875 36.28125 
z
" id="DejaVuSans-53"/>
       <path d="M 31.78125 66.40625 
Q 24.171875 66.40625 20.328125 58.90625 
Q 16.5 51.421875 16.5 36.375 
Q 16.5 21.390625 20.328125 13.890625 
Q 24.171875 6.390625 31.78125 6.390625 
Q 39.453125 6.390625 43.28125 13.890625 
Q 47.125 21.390625 47.125 36.375 
Q 47.125 51.421875 43.28125 58.90625 
Q 39.453125 66.40625 31.78125 66.40625 
z
M 31.78125 74.21875 
Q 44.046875 74.21875 50.515625 64.515625 
Q 56.984375 54.828125 56.984375 36.375 
Q 56.984375 17.96875 50.515625 8.265625 
Q 44.046875 -1.421875 31.78125 -1.421875 
Q 19.53125 -1.421875 13.0625 8.265625 
Q 6.59375 17.96875 6.59375 36.375 
Q 6.59375 54.828125 13.0625 64.515625 
Q 19.53125 74.21875 31.78125 74.21875 
z
" id="DejaVuSans-48"/>
      </defs>
      <g transform="translate(95.352162 254.356562)scale(0.1 -0.1)">
       <use xlink:href="#DejaVuSans-53"/>
       <use x="63.623047" xlink:href="#DejaVuSans-48"/>
       <use x="127.246094" xlink:href="#DejaVuSans-48"/>
      </g>
     </g>
    </g>
    <g id="xtick_2">
     <g id="line2d_2">
      <g>
       <use style="stroke:#000000;stroke-width:0.8;" x="171.061919" xlink:href="#m7fc295b029" y="239.758125"/>
      </g>
     </g>
     <g id="text_2">
      <!-- 1000 -->
      <defs>
       <path d="M 12.40625 8.296875 
L 28.515625 8.296875 
L 28.515625 63.921875 
L 10.984375 60.40625 
L 10.984375 69.390625 
L 28.421875 72.90625 
L 38.28125 72.90625 
L 38.28125 8.296875 
L 54.390625 8.296875 
L 54.390625 0 
L 12.40625 0 
z
" id="DejaVuSans-49"/>
      </defs>
      <g transform="translate(158.336919 254.356562)scale(0.1 -0.1)">
       <use xlink:href="#DejaVuSans-49"/>
       <use x="63.623047" xlink:href="#DejaVuSans-48"/>
       <use x="127.246094" xlink:href="#DejaVuSans-48"/>
       <use x="190.869141" xlink:href="#DejaVuSans-48"/>
      </g>
     </g>
    </g>
    <g id="xtick_3">
     <g id="line2d_3">
      <g>
       <use style="stroke:#000000;stroke-width:0.8;" x="237.227927" xlink:href="#m7fc295b029" y="239.758125"/>
      </g>
     </g>
     <g id="text_3">
      <!-- 1500 -->
      <g transform="translate(224.502927 254.356562)scale(0.1 -0.1)">
       <use xlink:href="#DejaVuSans-49"/>
       <use x="63.623047" xlink:href="#DejaVuSans-53"/>
       <use x="127.246094" xlink:href="#DejaVuSans-48"/>
       <use x="190.869141" xlink:href="#DejaVuSans-48"/>
      </g>
     </g>
    </g>
    <g id="xtick_4">
     <g id="line2d_4">
      <g>
       <use style="stroke:#000000;stroke-width:0.8;" x="303.393935" xlink:href="#m7fc295b029" y="239.758125"/>
      </g>
     </g>
     <g id="text_4">
      <!-- 2000 -->
      <defs>
       <path d="M 19.1875 8.296875 
L 53.609375 8.296875 
L 53.609375 0 
L 7.328125 0 
L 7.328125 8.296875 
Q 12.9375 14.109375 22.625 23.890625 
Q 32.328125 33.6875 34.8125 36.53125 
Q 39.546875 41.84375 41.421875 45.53125 
Q 43.3125 49.21875 43.3125 52.78125 
Q 43.3125 58.59375 39.234375 62.25 
Q 35.15625 65.921875 28.609375 65.921875 
Q 23.96875 65.921875 18.8125 64.3125 
Q 13.671875 62.703125 7.8125 59.421875 
L 7.8125 69.390625 
Q 13.765625 71.78125 18.9375 73 
Q 24.125 74.21875 28.421875 74.21875 
Q 39.75 74.21875 46.484375 68.546875 
Q 53.21875 62.890625 53.21875 53.421875 
Q 53.21875 48.921875 51.53125 44.890625 
Q 49.859375 40.875 45.40625 35.40625 
Q 44.1875 33.984375 37.640625 27.21875 
Q 31.109375 20.453125 19.1875 8.296875 
z
" id="DejaVuSans-50"/>
      </defs>
      <g transform="translate(290.668935 254.356562)scale(0.1 -0.1)">
       <use xlink:href="#DejaVuSans-50"/>
       <use x="63.623047" xlink:href="#DejaVuSans-48"/>
       <use x="127.246094" xlink:href="#DejaVuSans-48"/>
       <use x="190.869141" xlink:href="#DejaVuSans-48"/>
      </g>
     </g>
    </g>
    <g id="xtick_5">
     <g id="line2d_5">
      <g>
       <use style="stroke:#000000;stroke-width:0.8;" x="369.559943" xlink:href="#m7fc295b029" y="239.758125"/>
      </g>
     </g>
     <g id="text_5">
      <!-- 2500 -->
      <g transform="translate(356.834943 254.356562)scale(0.1 -0.1)">
       <use xlink:href="#DejaVuSans-50"/>
       <use x="63.623047" xlink:href="#DejaVuSans-53"/>
       <use x="127.246094" xlink:href="#DejaVuSans-48"/>
       <use x="190.869141" xlink:href="#DejaVuSans-48"/>
      </g>
     </g>
    </g>
    <g id="text_6">
     <!-- Temperature (K) -->
     <defs>
      <path d="M -0.296875 72.90625 
L 61.375 72.90625 
L 61.375 64.59375 
L 35.5 64.59375 
L 35.5 0 
L 25.59375 0 
L 25.59375 64.59375 
L -0.296875 64.59375 
z
" id="DejaVuSans-84"/>
      <path d="M 56.203125 29.59375 
L 56.203125 25.203125 
L 14.890625 25.203125 
Q 15.484375 15.921875 20.484375 11.0625 
Q 25.484375 6.203125 34.421875 6.203125 
Q 39.59375 6.203125 44.453125 7.46875 
Q 49.3125 8.734375 54.109375 11.28125 
L 54.109375 2.78125 
Q 49.265625 0.734375 44.1875 -0.34375 
Q 39.109375 -1.421875 33.890625 -1.421875 
Q 20.796875 -1.421875 13.15625 6.1875 
Q 5.515625 13.8125 5.515625 26.8125 
Q 5.515625 40.234375 12.765625 48.109375 
Q 20.015625 56 32.328125 56 
Q 43.359375 56 49.78125 48.890625 
Q 56.203125 41.796875 56.203125 29.59375 
z
M 47.21875 32.234375 
Q 47.125 39.59375 43.09375 43.984375 
Q 39.0625 48.390625 32.421875 48.390625 
Q 24.90625 48.390625 20.390625 44.140625 
Q 15.875 39.890625 15.1875 32.171875 
z
" id="DejaVuSans-101"/>
      <path d="M 52 44.1875 
Q 55.375 50.25 60.0625 53.125 
Q 64.75 56 71.09375 56 
Q 79.640625 56 84.28125 50.015625 
Q 88.921875 44.046875 88.921875 33.015625 
L 88.921875 0 
L 79.890625 0 
L 79.890625 32.71875 
Q 79.890625 40.578125 77.09375 44.375 
Q 74.3125 48.1875 68.609375 48.1875 
Q 61.625 48.1875 57.5625 43.546875 
Q 53.515625 38.921875 53.515625 30.90625 
L 53.515625 0 
L 44.484375 0 
L 44.484375 32.71875 
Q 44.484375 40.625 41.703125 44.40625 
Q 38.921875 48.1875 33.109375 48.1875 
Q 26.21875 48.1875 22.15625 43.53125 
Q 18.109375 38.875 18.109375 30.90625 
L 18.109375 0 
L 9.078125 0 
L 9.078125 54.6875 
L 18.109375 54.6875 
L 18.109375 46.1875 
Q 21.1875 51.21875 25.484375 53.609375 
Q 29.78125 56 35.6875 56 
Q 41.65625 56 45.828125 52.96875 
Q 50 49.953125 52 44.1875 
z
" id="DejaVuSans-109"/>
      <path d="M 18.109375 8.203125 
L 18.109375 -20.796875 
L 9.078125 -20.796875 
L 9.078125 54.6875 
L 18.109375 54.6875 
L 18.109375 46.390625 
Q 20.953125 51.265625 25.265625 53.625 
Q 29.59375 56 35.59375 56 
Q 45.5625 56 51.78125 48.09375 
Q 58.015625 40.1875 58.015625 27.296875 
Q 58.015625 14.40625 51.78125 6.484375 
Q 45.5625 -1.421875 35.59375 -1.421875 
Q 29.59375 -1.421875 25.265625 0.953125 
Q 20.953125 3.328125 18.109375 8.203125 
z
M 48.6875 27.296875 
Q 48.6875 37.203125 44.609375 42.84375 
Q 40.53125 48.484375 33.40625 48.484375 
Q 26.265625 48.484375 22.1875 42.84375 
Q 18.109375 37.203125 18.109375 27.296875 
Q 18.109375 17.390625 22.1875 11.75 
Q 26.265625 6.109375 33.40625 6.109375 
Q 40.53125 6.109375 44.609375 11.75 
Q 48.6875 17.390625 48.6875 27.296875 
z
" id="DejaVuSans-112"/>
      <path d="M 41.109375 46.296875 
Q 39.59375 47.171875 37.8125 47.578125 
Q 36.03125 48 33.890625 48 
Q 26.265625 48 22.1875 43.046875 
Q 18.109375 38.09375 18.109375 28.8125 
L 18.109375 0 
L 9.078125 0 
L 9.078125 54.6875 
L 18.109375 54.6875 
L 18.109375 46.1875 
Q 20.953125 51.171875 25.484375 53.578125 
Q 30.03125 56 36.53125 56 
Q 37.453125 56 38.578125 55.875 
Q 39.703125 55.765625 41.0625 55.515625 
z
" id="DejaVuSans-114"/>
      <path d="M 34.28125 27.484375 
Q 23.390625 27.484375 19.1875 25 
Q 14.984375 22.515625 14.984375 16.5 
Q 14.984375 11.71875 18.140625 8.90625 
Q 21.296875 6.109375 26.703125 6.109375 
Q 34.1875 6.109375 38.703125 11.40625 
Q 43.21875 16.703125 43.21875 25.484375 
L 43.21875 27.484375 
z
M 52.203125 31.203125 
L 52.203125 0 
L 43.21875 0 
L 43.21875 8.296875 
Q 40.140625 3.328125 35.546875 0.953125 
Q 30.953125 -1.421875 24.3125 -1.421875 
Q 15.921875 -1.421875 10.953125 3.296875 
Q 6 8.015625 6 15.921875 
Q 6 25.140625 12.171875 29.828125 
Q 18.359375 34.515625 30.609375 34.515625 
L 43.21875 34.515625 
L 43.21875 35.40625 
Q 43.21875 41.609375 39.140625 45 
Q 35.0625 48.390625 27.6875 48.390625 
Q 23 48.390625 18.546875 47.265625 
Q 14.109375 46.140625 10.015625 43.890625 
L 10.015625 52.203125 
Q 14.9375 54.109375 19.578125 55.046875 
Q 24.21875 56 28.609375 56 
Q 40.484375 56 46.34375 49.84375 
Q 52.203125 43.703125 52.203125 31.203125 
z
" id="DejaVuSans-97"/>
      <path d="M 18.3125 70.21875 
L 18.3125 54.6875 
L 36.8125 54.6875 
L 36.8125 47.703125 
L 18.3125 47.703125 
L 18.3125 18.015625 
Q 18.3125 11.328125 20.140625 9.421875 
Q 21.96875 7.515625 27.59375 7.515625 
L 36.8125 7.515625 
L 36.8125 0 
L 27.59375 0 
Q 17.1875 0 13.234375 3.875 
Q 9.28125 7.765625 9.28125 18.015625 
L 9.28125 47.703125 
L 2.6875 47.703125 
L 2.6875 54.6875 
L 9.28125 54.6875 
L 9.28125 70.21875 
z
" id="DejaVuSans-116"/>
      <path d="M 8.5 21.578125 
L 8.5 54.6875 
L 17.484375 54.6875 
L 17.484375 21.921875 
Q 17.484375 14.15625 20.5 10.265625 
Q 23.53125 6.390625 29.59375 6.390625 
Q 36.859375 6.390625 41.078125 11.03125 
Q 45.3125 15.671875 45.3125 23.6875 
L 45.3125 54.6875 
L 54.296875 54.6875 
L 54.296875 0 
L 45.3125 0 
L 45.3125 8.40625 
Q 42.046875 3.421875 37.71875 1 
Q 33.40625 -1.421875 27.6875 -1.421875 
Q 18.265625 -1.421875 13.375 4.4375 
Q 8.5 10.296875 8.5 21.578125 
z
M 31.109375 56 
z
" id="DejaVuSans-117"/>
      <path id="DejaVuSans-32"/>
      <path d="M 31 75.875 
Q 24.46875 64.65625 21.28125 53.65625 
Q 18.109375 42.671875 18.109375 31.390625 
Q 18.109375 20.125 21.3125 9.0625 
Q 24.515625 -2 31 -13.1875 
L 23.1875 -13.1875 
Q 15.875 -1.703125 12.234375 9.375 
Q 8.59375 20.453125 8.59375 31.390625 
Q 8.59375 42.28125 12.203125 53.3125 
Q 15.828125 64.359375 23.1875 75.875 
z
" id="DejaVuSans-40"/>
      <path d="M 9.8125 72.90625 
L 19.671875 72.90625 
L 19.671875 42.09375 
L 52.390625 72.90625 
L 65.09375 72.90625 
L 28.90625 38.921875 
L 67.671875 0 
L 54.6875 0 
L 19.671875 35.109375 
L 19.671875 0 
L 9.8125 0 
z
" id="DejaVuSans-75"/>
      <path d="M 8.015625 75.875 
L 15.828125 75.875 
Q 23.140625 64.359375 26.78125 53.3125 
Q 30.421875 42.28125 30.421875 31.390625 
Q 30.421875 20.453125 26.78125 9.375 
Q 23.140625 -1.703125 15.828125 -13.1875 
L 8.015625 -13.1875 
Q 14.5 -2 17.703125 9.0625 
Q 20.90625 20.125 20.90625 31.390625 
Q 20.90625 42.671875 17.703125 53.65625 
Q 14.5 64.65625 8.015625 75.875 
z
" id="DejaVuSans-41"/>
     </defs>
     <g transform="translate(175.991406 268.034687)scale(0.1 -0.1)">
      <use xlink:href="#DejaVuSans-84"/>
      <use x="60.818359" xlink:href="#DejaVuSans-101"/>
      <use x="122.341797" xlink:href="#DejaVuSans-109"/>
      <use x="219.753906" xlink:href="#DejaVuSans-112"/>
      <use x="283.230469" xlink:href="#DejaVuSans-101"/>
      <use x="344.753906" xlink:href="#DejaVuSans-114"/>
      <use x="385.867188" xlink:href="#DejaVuSans-97"/>
      <use x="447.146484" xlink:href="#DejaVuSans-116"/>
      <use x="486.355469" xlink:href="#DejaVuSans-117"/>
      <use x="549.734375" xlink:href="#DejaVuSans-114"/>
      <use x="590.816406" xlink:href="#DejaVuSans-101"/>
      <use x="652.339844" xlink:href="#DejaVuSans-32"/>
      <use x="684.126953" xlink:href="#DejaVuSans-40"/>
      <use x="723.140625" xlink:href="#DejaVuSans-75"/>
      <use x="788.716797" xlink:href="#DejaVuSans-41"/>
     </g>
    </g>
   </g>
   <g id="matplotlib.axis_2">
    <g id="ytick_1">
     <g id="line2d_6">
      <defs>
       <path d="M 0 0 
L -3.5 0 
" id="m2a3e6e60ac" style="stroke:#000000;stroke-width:0.8;"/>
      </defs>
      <g>
       <use style="stroke:#000000;stroke-width:0.8;" x="49.978125" xlink:href="#m2a3e6e60ac" y="135.73634"/>
      </g>
     </g>
     <g id="text_7">
      <!-- $\mathdefault{10^{12}}$ -->
      <g transform="translate(20.878125 139.535559)scale(0.1 -0.1)">
       <use transform="translate(0 0.765625)" xlink:href="#DejaVuSans-49"/>
       <use transform="translate(63.623047 0.765625)" xlink:href="#DejaVuSans-48"/>
       <use transform="translate(128.203125 39.046875)scale(0.7)" xlink:href="#DejaVuSans-49"/>
       <use transform="translate(172.739258 39.046875)scale(0.7)" xlink:href="#DejaVuSans-50"/>
      </g>
     </g>
    </g>
    <g id="ytick_2">
     <g id="line2d_7">
      <g>
       <use style="stroke:#000000;stroke-width:0.8;" x="49.978125" xlink:href="#m2a3e6e60ac" y="24.339234"/>
      </g>
     </g>
     <g id="text_8">
      <!-- $\mathdefault{10^{13}}$ -->
      <defs>
       <path d="M 40.578125 39.3125 
Q 47.65625 37.796875 51.625 33 
Q 55.609375 28.21875 55.609375 21.1875 
Q 55.609375 10.40625 48.1875 4.484375 
Q 40.765625 -1.421875 27.09375 -1.421875 
Q 22.515625 -1.421875 17.65625 -0.515625 
Q 12.796875 0.390625 7.625 2.203125 
L 7.625 11.71875 
Q 11.71875 9.328125 16.59375 8.109375 
Q 21.484375 6.890625 26.8125 6.890625 
Q 36.078125 6.890625 40.9375 10.546875 
Q 45.796875 14.203125 45.796875 21.1875 
Q 45.796875 27.640625 41.28125 31.265625 
Q 36.765625 34.90625 28.71875 34.90625 
L 20.21875 34.90625 
L 20.21875 43.015625 
L 29.109375 43.015625 
Q 36.375 43.015625 40.234375 45.921875 
Q 44.09375 48.828125 44.09375 54.296875 
Q 44.09375 59.90625 40.109375 62.90625 
Q 36.140625 65.921875 28.71875 65.921875 
Q 24.65625 65.921875 20.015625 65.03125 
Q 15.375 64.15625 9.8125 62.3125 
L 9.8125 71.09375 
Q 15.4375 72.65625 20.34375 73.4375 
Q 25.25 74.21875 29.59375 74.21875 
Q 40.828125 74.21875 47.359375 69.109375 
Q 53.90625 64.015625 53.90625 55.328125 
Q 53.90625 49.265625 50.4375 45.09375 
Q 46.96875 40.921875 40.578125 39.3125 
z
" id="DejaVuSans-51"/>
      </defs>
      <g transform="translate(20.878125 28.138453)scale(0.1 -0.1)">
       <use transform="translate(0 0.765625)" xlink:href="#DejaVuSans-49"/>
       <use transform="translate(63.623047 0.765625)" xlink:href="#DejaVuSans-48"/>
       <use transform="translate(128.203125 39.046875)scale(0.7)" xlink:href="#DejaVuSans-49"/>
       <use transform="translate(172.739258 39.046875)scale(0.7)" xlink:href="#DejaVuSans-51"/>
      </g>
     </g>
    </g>
    <g id="ytick_3">
     <g id="line2d_8">
      <defs>
       <path d="M 0 0 
L -2 0 
" id="mfea877230a" style="stroke:#000000;stroke-width:0.6;"/>
      </defs>
      <g>
       <use style="stroke:#000000;stroke-width:0.6;" x="49.978125" xlink:href="#mfea877230a" y="213.599576"/>
      </g>
     </g>
    </g>
    <g id="ytick_4">
     <g id="line2d_9">
      <g>
       <use style="stroke:#000000;stroke-width:0.6;" x="49.978125" xlink:href="#mfea877230a" y="193.983519"/>
      </g>
     </g>
    </g>
    <g id="ytick_5">
     <g id="line2d_10">
      <g>
       <use style="stroke:#000000;stroke-width:0.6;" x="49.978125" xlink:href="#mfea877230a" y="180.065705"/>
      </g>
     </g>
    </g>
    <g id="ytick_6">
     <g id="line2d_11">
      <g>
       <use style="stroke:#000000;stroke-width:0.6;" x="49.978125" xlink:href="#mfea877230a" y="169.27021"/>
      </g>
     </g>
    </g>
    <g id="ytick_7">
     <g id="line2d_12">
      <g>
       <use style="stroke:#000000;stroke-width:0.6;" x="49.978125" xlink:href="#mfea877230a" y="160.449649"/>
      </g>
     </g>
    </g>
    <g id="ytick_8">
     <g id="line2d_13">
      <g>
       <use style="stroke:#000000;stroke-width:0.6;" x="49.978125" xlink:href="#mfea877230a" y="152.99197"/>
      </g>
     </g>
    </g>
    <g id="ytick_9">
     <g id="line2d_14">
      <g>
       <use style="stroke:#000000;stroke-width:0.6;" x="49.978125" xlink:href="#mfea877230a" y="146.531835"/>
      </g>
     </g>
    </g>
    <g id="ytick_10">
     <g id="line2d_15">
      <g>
       <use style="stroke:#000000;stroke-width:0.6;" x="49.978125" xlink:href="#mfea877230a" y="140.833592"/>
      </g>
     </g>
    </g>
    <g id="ytick_11">
     <g id="line2d_16">
      <g>
       <use style="stroke:#000000;stroke-width:0.6;" x="49.978125" xlink:href="#mfea877230a" y="102.20247"/>
      </g>
     </g>
    </g>
    <g id="ytick_12">
     <g id="line2d_17">
      <g>
       <use style="stroke:#000000;stroke-width:0.6;" x="49.978125" xlink:href="#mfea877230a" y="82.586413"/>
      </g>
     </g>
    </g>
    <g id="ytick_13">
     <g id="line2d_18">
      <g>
       <use style="stroke:#000000;stroke-width:0.6;" x="49.978125" xlink:href="#mfea877230a" y="68.668599"/>
      </g>
     </g>
    </g>
    <g id="ytick_14">
     <g id="line2d_19">
      <g>
       <use style="stroke:#000000;stroke-width:0.6;" x="49.978125" xlink:href="#mfea877230a" y="57.873104"/>
      </g>
     </g>
    </g>
    <g id="ytick_15">
     <g id="line2d_20">
      <g>
       <use style="stroke:#000000;stroke-width:0.6;" x="49.978125" xlink:href="#mfea877230a" y="49.052543"/>
      </g>
     </g>
    </g>
    <g id="ytick_16">
     <g id="line2d_21">
      <g>
       <use style="stroke:#000000;stroke-width:0.6;" x="49.978125" xlink:href="#mfea877230a" y="41.594864"/>
      </g>
     </g>
    </g>
    <g id="ytick_17">
     <g id="line2d_22">
      <g>
       <use style="stroke:#000000;stroke-width:0.6;" x="49.978125" xlink:href="#mfea877230a" y="35.134729"/>
      </g>
     </g>
    </g>
    <g id="ytick_18">
     <g id="line2d_23">
      <g>
       <use style="stroke:#000000;stroke-width:0.6;" x="49.978125" xlink:href="#mfea877230a" y="29.436486"/>
      </g>
     </g>
    </g>
    <g id="text_9">
     <!-- Kmol/m^3-s -->
     <defs>
      <path d="M 30.609375 48.390625 
Q 23.390625 48.390625 19.1875 42.75 
Q 14.984375 37.109375 14.984375 27.296875 
Q 14.984375 17.484375 19.15625 11.84375 
Q 23.34375 6.203125 30.609375 6.203125 
Q 37.796875 6.203125 41.984375 11.859375 
Q 46.1875 17.53125 46.1875 27.296875 
Q 46.1875 37.015625 41.984375 42.703125 
Q 37.796875 48.390625 30.609375 48.390625 
z
M 30.609375 56 
Q 42.328125 56 49.015625 48.375 
Q 55.71875 40.765625 55.71875 27.296875 
Q 55.71875 13.875 49.015625 6.21875 
Q 42.328125 -1.421875 30.609375 -1.421875 
Q 18.84375 -1.421875 12.171875 6.21875 
Q 5.515625 13.875 5.515625 27.296875 
Q 5.515625 40.765625 12.171875 48.375 
Q 18.84375 56 30.609375 56 
z
" id="DejaVuSans-111"/>
      <path d="M 9.421875 75.984375 
L 18.40625 75.984375 
L 18.40625 0 
L 9.421875 0 
z
" id="DejaVuSans-108"/>
      <path d="M 25.390625 72.90625 
L 33.6875 72.90625 
L 8.296875 -9.28125 
L 0 -9.28125 
z
" id="DejaVuSans-47"/>
      <path d="M 46.6875 72.90625 
L 73.1875 45.703125 
L 63.375 45.703125 
L 41.890625 64.984375 
L 20.40625 45.703125 
L 10.59375 45.703125 
L 37.109375 72.90625 
z
" id="DejaVuSans-94"/>
      <path d="M 4.890625 31.390625 
L 31.203125 31.390625 
L 31.203125 23.390625 
L 4.890625 23.390625 
z
" id="DejaVuSans-45"/>
      <path d="M 44.28125 53.078125 
L 44.28125 44.578125 
Q 40.484375 46.53125 36.375 47.5 
Q 32.28125 48.484375 27.875 48.484375 
Q 21.1875 48.484375 17.84375 46.4375 
Q 14.5 44.390625 14.5 40.28125 
Q 14.5 37.15625 16.890625 35.375 
Q 19.28125 33.59375 26.515625 31.984375 
L 29.59375 31.296875 
Q 39.15625 29.25 43.1875 25.515625 
Q 47.21875 21.78125 47.21875 15.09375 
Q 47.21875 7.46875 41.1875 3.015625 
Q 35.15625 -1.421875 24.609375 -1.421875 
Q 20.21875 -1.421875 15.453125 -0.5625 
Q 10.6875 0.296875 5.421875 2 
L 5.421875 11.28125 
Q 10.40625 8.6875 15.234375 7.390625 
Q 20.0625 6.109375 24.8125 6.109375 
Q 31.15625 6.109375 34.5625 8.28125 
Q 37.984375 10.453125 37.984375 14.40625 
Q 37.984375 18.0625 35.515625 20.015625 
Q 33.0625 21.96875 24.703125 23.78125 
L 21.578125 24.515625 
Q 13.234375 26.265625 9.515625 29.90625 
Q 5.8125 33.546875 5.8125 39.890625 
Q 5.8125 47.609375 11.28125 51.796875 
Q 16.75 56 26.8125 56 
Q 31.78125 56 36.171875 55.265625 
Q 40.578125 54.546875 44.28125 53.078125 
z
" id="DejaVuSans-115"/>
     </defs>
     <g transform="translate(14.798438 161.970156)rotate(-90)scale(0.1 -0.1)">
      <use xlink:href="#DejaVuSans-75"/>
      <use x="65.576172" xlink:href="#DejaVuSans-109"/>
      <use x="162.988281" xlink:href="#DejaVuSans-111"/>
      <use x="224.169922" xlink:href="#DejaVuSans-108"/>
      <use x="251.953125" xlink:href="#DejaVuSans-47"/>
      <use x="285.644531" xlink:href="#DejaVuSans-109"/>
      <use x="383.056641" xlink:href="#DejaVuSans-94"/>
      <use x="466.845703" xlink:href="#DejaVuSans-51"/>
      <use x="530.46875" xlink:href="#DejaVuSans-45"/>
      <use x="566.552734" xlink:href="#DejaVuSans-115"/>
     </g>
    </g>
   </g>
   <g id="line2d_24">
    <path clip-path="url(#p94c5e2b6cf)" d="M 71.812908 228.182761 
L 73.136228 228.913663 
L 74.59188 229.460052 
L 76.047532 229.770257 
L 77.635516 229.874489 
L 79.355833 229.749191 
L 81.208481 229.377363 
L 83.193461 228.748241 
L 85.443105 227.794378 
L 87.957414 226.479984 
L 90.868718 224.696483 
L 94.30935 222.309539 
L 98.411643 219.173586 
L 103.440259 215.036757 
L 110.321524 209.06835 
L 124.878046 196.059242 
L 137.714251 184.73984 
L 147.903817 176.049624 
L 157.431722 168.211889 
L 166.827295 160.77036 
L 176.222868 153.614958 
L 185.618441 146.739495 
L 195.146346 140.043003 
L 204.806583 133.524782 
L 214.731485 127.098689 
L 224.788718 120.852401 
L 235.110615 114.704824 
L 245.697176 108.661491 
L 256.41607 102.798178 
L 267.399627 97.042546 
L 278.647848 91.39913 
L 290.160734 85.87231 
L 301.938283 80.466412 
L 313.980497 75.185796 
L 326.155042 70.089029 
L 338.594251 65.121562 
L 351.298125 60.288406 
L 364.134331 55.641519 
L 369.427611 53.792457 
L 369.427611 53.792457 
" style="fill:none;stroke:#0000ff;stroke-linecap:square;stroke-width:1.5;"/>
   </g>
   <g id="line2d_25">
    <path clip-path="url(#p94c5e2b6cf)" d="M 65.196307 219.941828 
L 69.563263 226.338393 
L 72.209904 228.427089 
L 74.856544 229.532918 
L 77.503184 229.874172 
L 78.429508 229.845094 
L 81.076149 229.411115 
L 84.649113 228.157241 
L 86.369429 227.337699 
L 88.089746 226.404408 
L 91.66271 224.169476 
L 98.279311 219.278535 
L 104.895912 213.79695 
L 118.129113 202.10482 
L 131.362315 190.298652 
L 144.595516 178.837557 
L 157.828718 167.891517 
L 164.445319 162.629615 
L 171.061919 157.510094 
L 184.295121 147.691136 
L 190.911722 142.98553 
L 201.895279 135.461052 
L 212.746504 128.362486 
L 222.009746 122.552301 
L 231.934647 116.56872 
L 242.785872 110.297651 
L 254.034093 104.079474 
L 254.034093 104.079474 
L 264.620655 98.475236 
L 275.47188 92.967454 
L 275.47188 92.967454 
L 285.793777 87.939651 
L 297.306663 82.563036 
L 310.010536 76.899655 
L 319.141445 72.99599 
L 332.639311 67.469817 
L 345.74018 62.373533 
L 356.326742 58.439973 
L 369.559943 53.746551 
L 369.559943 53.746551 
" style="fill:none;stroke:#0000ff;stroke-dasharray:5.55,2.4;stroke-dashoffset:0;stroke-width:1.5;"/>
   </g>
   <g id="line2d_26">
    <path clip-path="url(#p94c5e2b6cf)" d="M 65.196307 219.94224 
L 69.563263 226.338764 
L 72.209904 228.427436 
L 74.856544 229.533243 
L 77.503184 229.874476 
L 78.429508 229.845392 
L 81.076149 229.411397 
L 84.649113 228.157505 
L 86.369429 227.337956 
L 88.089746 226.404658 
L 91.66271 224.169715 
L 98.279311 219.278762 
L 104.895912 213.797171 
L 118.129113 202.105043 
L 131.362315 190.298885 
L 144.595516 178.837802 
L 157.828718 167.891774 
L 164.445319 162.629878 
L 171.061919 157.510362 
L 184.295121 147.691415 
L 190.911722 142.985813 
L 201.895279 135.461342 
L 212.746504 128.362783 
L 222.009746 122.552602 
L 231.934647 116.569026 
L 242.785872 110.297962 
L 254.034093 104.079789 
L 254.034093 104.079789 
L 264.620655 98.475555 
L 275.47188 92.967776 
L 275.47188 92.967776 
L 285.793777 87.939976 
L 297.306663 82.563365 
L 310.010536 76.899987 
L 319.141445 72.996325 
L 332.639311 67.470155 
L 345.74018 62.373874 
L 356.326742 58.440317 
L 369.559943 53.746897 
L 369.559943 53.746897 
" style="fill:none;stroke:#0000ff;stroke-dasharray:5.55,2.4;stroke-dashoffset:0;stroke-width:1.5;"/>
   </g>
   <g id="line2d_27">
    <path clip-path="url(#p94c5e2b6cf)" d="M 71.812908 228.182761 
L 73.136228 228.913663 
L 74.59188 229.460052 
L 76.047532 229.770257 
L 77.635516 229.874489 
L 79.355833 229.749191 
L 81.208481 229.377363 
L 83.193461 228.748241 
L 85.443105 227.794378 
L 87.957414 226.479984 
L 90.868718 224.696483 
L 94.30935 222.309539 
L 98.411643 219.173586 
L 103.440259 215.036757 
L 110.321524 209.06835 
L 124.878046 196.059242 
L 137.714251 184.73984 
L 147.903817 176.049624 
L 157.431722 168.211889 
L 166.827295 160.77036 
L 176.222868 153.614958 
L 185.618441 146.739495 
L 195.146346 140.043003 
L 204.806583 133.524782 
L 214.731485 127.098689 
L 224.788718 120.852401 
L 235.110615 114.704824 
L 245.697176 108.661491 
L 256.41607 102.798178 
L 267.399627 97.042546 
L 278.647848 91.39913 
L 290.160734 85.87231 
L 301.938283 80.466412 
L 313.980497 75.185796 
L 326.155042 70.089029 
L 338.594251 65.121562 
L 351.298125 60.288406 
L 364.134331 55.641519 
L 369.427611 53.792457 
L 369.427611 53.792457 
" style="fill:none;stroke:#ff0000;stroke-linecap:square;stroke-width:1.5;"/>
   </g>
   <g id="line2d_28">
    <path clip-path="url(#p94c5e2b6cf)" d="M 65.196307 219.941828 
L 69.563263 226.338393 
L 72.209904 228.427089 
L 74.856544 229.532918 
L 77.503184 229.874172 
L 78.429508 229.845094 
L 81.076149 229.411115 
L 84.649113 228.157241 
L 86.369429 227.337699 
L 88.089746 226.404408 
L 91.66271 224.169476 
L 98.279311 219.278535 
L 104.895912 213.79695 
L 118.129113 202.10482 
L 131.362315 190.298652 
L 144.595516 178.837557 
L 157.828718 167.891517 
L 164.445319 162.629615 
L 171.061919 157.510094 
L 184.295121 147.691136 
L 190.911722 142.98553 
L 201.895279 135.461052 
L 212.746504 128.362486 
L 222.009746 122.552301 
L 231.934647 116.56872 
L 242.785872 110.297651 
L 254.034093 104.079474 
L 254.034093 104.079474 
L 264.620655 98.475236 
L 275.47188 92.967454 
L 275.47188 92.967454 
L 285.793777 87.939651 
L 297.306663 82.563036 
L 310.010536 76.899655 
L 319.141445 72.99599 
L 332.639311 67.469817 
L 345.74018 62.373533 
L 356.326742 58.439973 
L 369.559943 53.746551 
L 369.559943 53.746551 
" style="fill:none;stroke:#ff0000;stroke-dasharray:5.55,2.4;stroke-dashoffset:0;stroke-width:1.5;"/>
   </g>
   <g id="line2d_29">
    <path clip-path="url(#p94c5e2b6cf)" d="M 65.196307 219.94224 
L 69.563263 226.338764 
L 72.209904 228.427436 
L 74.856544 229.533243 
L 77.503184 229.874476 
L 78.429508 229.845392 
L 81.076149 229.411397 
L 84.649113 228.157505 
L 86.369429 227.337956 
L 88.089746 226.404658 
L 91.66271 224.169715 
L 98.279311 219.278762 
L 104.895912 213.797171 
L 118.129113 202.105043 
L 131.362315 190.298885 
L 144.595516 178.837802 
L 157.828718 167.891774 
L 164.445319 162.629878 
L 171.061919 157.510362 
L 184.295121 147.691415 
L 190.911722 142.985813 
L 201.895279 135.461342 
L 212.746504 128.362783 
L 222.009746 122.552602 
L 231.934647 116.569026 
L 242.785872 110.297962 
L 254.034093 104.079789 
L 254.034093 104.079789 
L 264.620655 98.475555 
L 275.47188 92.967776 
L 275.47188 92.967776 
L 285.793777 87.939976 
L 297.306663 82.563365 
L 310.010536 76.899987 
L 319.141445 72.996325 
L 332.639311 67.470155 
L 345.74018 62.373874 
L 356.326742 58.440317 
L 369.559943 53.746897 
L 369.559943 53.746897 
" style="fill:none;stroke:#ff0000;stroke-dasharray:5.55,2.4;stroke-dashoffset:0;stroke-width:1.5;"/>
   </g>
   <g id="line2d_30">
    <defs>
     <path d="M 0 3 
C 0.795609 3 1.55874 2.683901 2.12132 2.12132 
C 2.683901 1.55874 3 0.795609 3 0 
C 3 -0.795609 2.683901 -1.55874 2.12132 -2.12132 
C 1.55874 -2.683901 0.795609 -3 0 -3 
C -0.795609 -3 -1.55874 -2.683901 -2.12132 -2.12132 
C -2.683901 -1.55874 -3 -0.795609 -3 0 
C -3 0.795609 -2.683901 1.55874 -2.12132 2.12132 
C -1.55874 2.683901 -0.795609 3 0 3 
z
" id="m9d7a9bebc3" style="stroke:#000000;"/>
    </defs>
    <g clip-path="url(#p94c5e2b6cf)">
     <use style="stroke:#000000;" x="86.369429" xlink:href="#m9d7a9bebc3" y="148.318155"/>
     <use style="stroke:#000000;" x="83.722789" xlink:href="#m9d7a9bebc3" y="147.943121"/>
     <use style="stroke:#000000;" x="81.076149" xlink:href="#m9d7a9bebc3" y="146.110359"/>
     <use style="stroke:#000000;" x="78.297176" xlink:href="#m9d7a9bebc3" y="143.998933"/>
     <use style="stroke:#000000;" x="74.856544" xlink:href="#m9d7a9bebc3" y="137.862695"/>
     <use style="stroke:#000000;" x="72.209904" xlink:href="#m9d7a9bebc3" y="138.781314"/>
     <use style="stroke:#000000;" x="69.563263" xlink:href="#m9d7a9bebc3" y="133.375913"/>
     <use style="stroke:#000000;" x="177.67852" xlink:href="#m9d7a9bebc3" y="103.427324"/>
     <use style="stroke:#000000;" x="180.192829" xlink:href="#m9d7a9bebc3" y="105.974183"/>
     <use style="stroke:#000000;" x="184.692117" xlink:href="#m9d7a9bebc3" y="110.064997"/>
     <use style="stroke:#000000;" x="184.956781" xlink:href="#m9d7a9bebc3" y="105.974183"/>
     <use style="stroke:#000000;" x="186.677097" xlink:href="#m9d7a9bebc3" y="98.703658"/>
     <use style="stroke:#000000;" x="195.278678" xlink:href="#m9d7a9bebc3" y="102.20247"/>
     <use style="stroke:#000000;" x="197.263659" xlink:href="#m9d7a9bebc3" y="103.427324"/>
     <use style="stroke:#000000;" x="201.233619" xlink:href="#m9d7a9bebc3" y="94.400454"/>
     <use style="stroke:#000000;" x="203.880259" xlink:href="#m9d7a9bebc3" y="97.591444"/>
     <use style="stroke:#000000;" x="204.938916" xlink:href="#m9d7a9bebc3" y="93.381908"/>
     <use style="stroke:#000000;" x="210.761524" xlink:href="#m9d7a9bebc3" y="101.961177"/>
     <use style="stroke:#000000;" x="223.730062" xlink:href="#m9d7a9bebc3" y="92.384364"/>
     <use style="stroke:#000000;" x="226.112038" xlink:href="#m9d7a9bebc3" y="90.44894"/>
     <use style="stroke:#000000;" x="236.433935" xlink:href="#m9d7a9bebc3" y="88.405755"/>
     <use style="stroke:#000000;" x="249.270141" xlink:href="#m9d7a9bebc3" y="83.399527"/>
     <use style="stroke:#000000;" x="249.402473" xlink:href="#m9d7a9bebc3" y="81.000069"/>
     <use style="stroke:#000000;" x="256.283738" xlink:href="#m9d7a9bebc3" y="81.000069"/>
     <use style="stroke:#000000;" x="257.07773" xlink:href="#m9d7a9bebc3" y="77.247868"/>
     <use style="stroke:#000000;" x="261.577018" xlink:href="#m9d7a9bebc3" y="73.098542"/>
     <use style="stroke:#000000;" x="270.310931" xlink:href="#m9d7a9bebc3" y="70.517709"/>
     <use style="stroke:#000000;" x="284.999785" xlink:href="#m9d7a9bebc3" y="58.359331"/>
     <use style="stroke:#000000;" x="290.425398" xlink:href="#m9d7a9bebc3" y="60.35463"/>
     <use style="stroke:#000000;" x="305.114251" xlink:href="#m9d7a9bebc3" y="60.661152"/>
     <use style="stroke:#000000;" x="328.404686" xlink:href="#m9d7a9bebc3" y="45.930224"/>
     <use style="stroke:#000000;" x="338.461919" xlink:href="#m9d7a9bebc3" y="39.432307"/>
     <use style="stroke:#000000;" x="349.974805" xlink:href="#m9d7a9bebc3" y="38.257048"/>
     <use style="stroke:#000000;" x="354.209429" xlink:href="#m9d7a9bebc3" y="32.201761"/>
     <use style="stroke:#000000;" x="194.352354" xlink:href="#m9d7a9bebc3" y="110.064997"/>
     <use style="stroke:#000000;" x="201.895279" xlink:href="#m9d7a9bebc3" y="104.683996"/>
     <use style="stroke:#000000;" x="216.584133" xlink:href="#m9d7a9bebc3" y="102.20247"/>
     <use style="stroke:#000000;" x="207.717888" xlink:href="#m9d7a9bebc3" y="102.20247"/>
     <use style="stroke:#000000;" x="213.011168" xlink:href="#m9d7a9bebc3" y="99.842043"/>
     <use style="stroke:#000000;" x="220.554093" xlink:href="#m9d7a9bebc3" y="97.591444"/>
     <use style="stroke:#000000;" x="223.730062" xlink:href="#m9d7a9bebc3" y="95.440906"/>
     <use style="stroke:#000000;" x="227.170694" xlink:href="#m9d7a9bebc3" y="97.591444"/>
     <use style="stroke:#000000;" x="187.338757" xlink:href="#m9d7a9bebc3" y="113.913686"/>
     <use style="stroke:#000000;" x="187.338757" xlink:href="#m9d7a9bebc3" y="116.769678"/>
     <use style="stroke:#000000;" x="187.338757" xlink:href="#m9d7a9bebc3" y="118.432355"/>
     <use style="stroke:#000000;" x="187.338757" xlink:href="#m9d7a9bebc3" y="113.606515"/>
     <use style="stroke:#000000;" x="187.338757" xlink:href="#m9d7a9bebc3" y="112.099255"/>
     <use style="stroke:#000000;" x="187.338757" xlink:href="#m9d7a9bebc3" y="115.798826"/>
     <use style="stroke:#000000;" x="187.338757" xlink:href="#m9d7a9bebc3" y="115.479491"/>
     <use style="stroke:#000000;" x="187.338757" xlink:href="#m9d7a9bebc3" y="115.479491"/>
     <use style="stroke:#000000;" x="187.338757" xlink:href="#m9d7a9bebc3" y="113.606515"/>
     <use style="stroke:#000000;" x="182.971801" xlink:href="#m9d7a9bebc3" y="120.860492"/>
     <use style="stroke:#000000;" x="183.104133" xlink:href="#m9d7a9bebc3" y="120.506064"/>
     <use style="stroke:#000000;" x="182.971801" xlink:href="#m9d7a9bebc3" y="120.860492"/>
     <use style="stroke:#000000;" x="182.971801" xlink:href="#m9d7a9bebc3" y="123.416966"/>
     <use style="stroke:#000000;" x="182.971801" xlink:href="#m9d7a9bebc3" y="119.113763"/>
     <use style="stroke:#000000;" x="182.971801" xlink:href="#m9d7a9bebc3" y="120.860492"/>
     <use style="stroke:#000000;" x="183.104133" xlink:href="#m9d7a9bebc3" y="119.804905"/>
     <use style="stroke:#000000;" x="178.207848" xlink:href="#m9d7a9bebc3" y="123.79346"/>
     <use style="stroke:#000000;" x="178.207848" xlink:href="#m9d7a9bebc3" y="125.329435"/>
     <use style="stroke:#000000;" x="178.075516" xlink:href="#m9d7a9bebc3" y="119.804905"/>
     <use style="stroke:#000000;" x="178.075516" xlink:href="#m9d7a9bebc3" y="126.514289"/>
     <use style="stroke:#000000;" x="178.075516" xlink:href="#m9d7a9bebc3" y="120.506064"/>
     <use style="stroke:#000000;" x="252.446109" xlink:href="#m9d7a9bebc3" y="95.863434"/>
     <use style="stroke:#000000;" x="261.444686" xlink:href="#m9d7a9bebc3" y="85.751754"/>
     <use style="stroke:#000000;" x="282.617809" xlink:href="#m9d7a9bebc3" y="78.863103"/>
     <use style="stroke:#000000;" x="290.028402" xlink:href="#m9d7a9bebc3" y="94.400454"/>
     <use style="stroke:#000000;" x="294.52769" xlink:href="#m9d7a9bebc3" y="80.534135"/>
     <use style="stroke:#000000;" x="294.792354" xlink:href="#m9d7a9bebc3" y="78.417209"/>
     <use style="stroke:#000000;" x="297.306663" xlink:href="#m9d7a9bebc3" y="99.383469"/>
     <use style="stroke:#000000;" x="301.144291" xlink:href="#m9d7a9bebc3" y="80.379815"/>
     <use style="stroke:#000000;" x="302.996939" xlink:href="#m9d7a9bebc3" y="89.883096"/>
     <use style="stroke:#000000;" x="303.526267" xlink:href="#m9d7a9bebc3" y="74.853069"/>
     <use style="stroke:#000000;" x="307.496228" xlink:href="#m9d7a9bebc3" y="82.264956"/>
     <use style="stroke:#000000;" x="307.760892" xlink:href="#m9d7a9bebc3" y="83.563803"/>
     <use style="stroke:#000000;" x="241.727216" xlink:href="#m9d7a9bebc3" y="91.021481"/>
     <use style="stroke:#000000;" x="254.034093" xlink:href="#m9d7a9bebc3" y="113.606515"/>
     <use style="stroke:#000000;" x="262.37101" xlink:href="#m9d7a9bebc3" y="108.93985"/>
     <use style="stroke:#000000;" x="262.900338" xlink:href="#m9d7a9bebc3" y="93.180747"/>
     <use style="stroke:#000000;" x="269.516939" xlink:href="#m9d7a9bebc3" y="96.936186"/>
     <use style="stroke:#000000;" x="273.619232" xlink:href="#m9d7a9bebc3" y="112.396974"/>
     <use style="stroke:#000000;" x="283.808797" xlink:href="#m9d7a9bebc3" y="80.534135"/>
     <use style="stroke:#000000;" x="288.440417" xlink:href="#m9d7a9bebc3" y="68.067608"/>
     <use style="stroke:#000000;" x="289.763738" xlink:href="#m9d7a9bebc3" y="83.728638"/>
     <use style="stroke:#000000;" x="300.085635" xlink:href="#m9d7a9bebc3" y="96.719724"/>
     <use style="stroke:#000000;" x="302.732275" xlink:href="#m9d7a9bebc3" y="80.072645"/>
     <use style="stroke:#000000;" x="304.717255" xlink:href="#m9d7a9bebc3" y="92.980419"/>
     <use style="stroke:#000000;" x="253.504765" xlink:href="#m9d7a9bebc3" y="114.222819"/>
     <use style="stroke:#000000;" x="271.237255" xlink:href="#m9d7a9bebc3" y="106.76514"/>
     <use style="stroke:#000000;" x="288.837414" xlink:href="#m9d7a9bebc3" y="80.534135"/>
     <use style="stroke:#000000;" x="305.511248" xlink:href="#m9d7a9bebc3" y="98.47916"/>
     <use style="stroke:#000000;" x="263.429667" xlink:href="#m9d7a9bebc3" y="100.305005"/>
     <use style="stroke:#000000;" x="264.223659" xlink:href="#m9d7a9bebc3" y="98.255699"/>
     <use style="stroke:#000000;" x="269.384607" xlink:href="#m9d7a9bebc3" y="92.980419"/>
     <use style="stroke:#000000;" x="272.560576" xlink:href="#m9d7a9bebc3" y="90.070976"/>
     <use style="stroke:#000000;" x="273.354568" xlink:href="#m9d7a9bebc3" y="90.44894"/>
     <use style="stroke:#000000;" x="274.016228" xlink:href="#m9d7a9bebc3" y="95.231018"/>
     <use style="stroke:#000000;" x="277.589192" xlink:href="#m9d7a9bebc3" y="85.067939"/>
     <use style="stroke:#000000;" x="280.632829" xlink:href="#m9d7a9bebc3" y="80.844259"/>
     <use style="stroke:#000000;" x="281.559153" xlink:href="#m9d7a9bebc3" y="83.894037"/>
     <use style="stroke:#000000;" x="282.220813" xlink:href="#m9d7a9bebc3" y="86.972194"/>
     <use style="stroke:#000000;" x="284.073461" xlink:href="#m9d7a9bebc3" y="79.767413"/>
     <use style="stroke:#000000;" x="301.541287" xlink:href="#m9d7a9bebc3" y="98.255699"/>
     <use style="stroke:#000000;" x="246.888165" xlink:href="#m9d7a9bebc3" y="112.396974"/>
     <use style="stroke:#000000;" x="248.740813" xlink:href="#m9d7a9bebc3" y="118.771859"/>
     <use style="stroke:#000000;" x="249.005477" xlink:href="#m9d7a9bebc3" y="113.301283"/>
     <use style="stroke:#000000;" x="253.901761" xlink:href="#m9d7a9bebc3" y="102.688696"/>
     <use style="stroke:#000000;" x="259.06271" xlink:href="#m9d7a9bebc3" y="107.840276"/>
     <use style="stroke:#000000;" x="261.312354" xlink:href="#m9d7a9bebc3" y="99.842043"/>
     <use style="stroke:#000000;" x="264.620655" xlink:href="#m9d7a9bebc3" y="99.842043"/>
     <use style="stroke:#000000;" x="215.657809" xlink:href="#m9d7a9bebc3" y="100.305005"/>
     <use style="stroke:#000000;" x="221.083421" xlink:href="#m9d7a9bebc3" y="102.444972"/>
     <use style="stroke:#000000;" x="226.112038" xlink:href="#m9d7a9bebc3" y="100.07297"/>
     <use style="stroke:#000000;" x="230.346663" xlink:href="#m9d7a9bebc3" y="99.842043"/>
     <use style="stroke:#000000;" x="231.140655" xlink:href="#m9d7a9bebc3" y="95.231018"/>
     <use style="stroke:#000000;" x="233.257967" xlink:href="#m9d7a9bebc3" y="95.863434"/>
     <use style="stroke:#000000;" x="233.390299" xlink:href="#m9d7a9bebc3" y="93.990459"/>
     <use style="stroke:#000000;" x="233.787295" xlink:href="#m9d7a9bebc3" y="96.936186"/>
     <use style="stroke:#000000;" x="235.507611" xlink:href="#m9d7a9bebc3" y="92.780917"/>
     <use style="stroke:#000000;" x="245.96184" xlink:href="#m9d7a9bebc3" y="107.840276"/>
     <use style="stroke:#000000;" x="249.534805" xlink:href="#m9d7a9bebc3" y="112.099255"/>
     <use style="stroke:#000000;" x="250.064133" xlink:href="#m9d7a9bebc3" y="112.696536"/>
     <use style="stroke:#000000;" x="259.459706" xlink:href="#m9d7a9bebc3" y="112.396974"/>
     <use style="stroke:#000000;" x="266.208639" xlink:href="#m9d7a9bebc3" y="112.997965"/>
     <use style="stroke:#000000;" x="228.494014" xlink:href="#m9d7a9bebc3" y="96.719724"/>
     <use style="stroke:#000000;" x="209.17354" xlink:href="#m9d7a9bebc3" y="107.569244"/>
     <use style="stroke:#000000;" x="212.746504" xlink:href="#m9d7a9bebc3" y="107.031692"/>
     <use style="stroke:#000000;" x="215.525477" xlink:href="#m9d7a9bebc3" y="129.823555"/>
     <use style="stroke:#000000;" x="216.187137" xlink:href="#m9d7a9bebc3" y="125.329435"/>
     <use style="stroke:#000000;" x="218.039785" xlink:href="#m9d7a9bebc3" y="113.606515"/>
     <use style="stroke:#000000;" x="219.627769" xlink:href="#m9d7a9bebc3" y="108.112836"/>
     <use style="stroke:#000000;" x="226.112038" xlink:href="#m9d7a9bebc3" y="93.990459"/>
     <use style="stroke:#000000;" x="227.832354" xlink:href="#m9d7a9bebc3" y="105.195949"/>
     <use style="stroke:#000000;" x="229.023342" xlink:href="#m9d7a9bebc3" y="112.696536"/>
     <use style="stroke:#000000;" x="230.346663" xlink:href="#m9d7a9bebc3" y="88.043363"/>
     <use style="stroke:#000000;" x="239.080576" xlink:href="#m9d7a9bebc3" y="89.50951"/>
     <use style="stroke:#000000;" x="220.686425" xlink:href="#m9d7a9bebc3" y="93.180747"/>
     <use style="stroke:#000000;" x="231.405319" xlink:href="#m9d7a9bebc3" y="91.213844"/>
     <use style="stroke:#000000;" x="238.021919" xlink:href="#m9d7a9bebc3" y="108.93985"/>
     <use style="stroke:#000000;" x="239.874568" xlink:href="#m9d7a9bebc3" y="128.140632"/>
     <use style="stroke:#000000;" x="249.005477" xlink:href="#m9d7a9bebc3" y="117.427907"/>
     <use style="stroke:#000000;" x="222.009746" xlink:href="#m9d7a9bebc3" y="105.974183"/>
     <use style="stroke:#000000;" x="227.832354" xlink:href="#m9d7a9bebc3" y="108.386939"/>
     <use style="stroke:#000000;" x="229.023342" xlink:href="#m9d7a9bebc3" y="112.997965"/>
     <use style="stroke:#000000;" x="231.537651" xlink:href="#m9d7a9bebc3" y="116.769678"/>
     <use style="stroke:#000000;" x="231.934647" xlink:href="#m9d7a9bebc3" y="116.769678"/>
     <use style="stroke:#000000;" x="247.417493" xlink:href="#m9d7a9bebc3" y="83.563803"/>
     <use style="stroke:#000000;" x="237.227927" xlink:href="#m9d7a9bebc3" y="69.769563"/>
     <use style="stroke:#000000;" x="243.97686" xlink:href="#m9d7a9bebc3" y="76.81655"/>
     <use style="stroke:#000000;" x="263.958995" xlink:href="#m9d7a9bebc3" y="82.425417"/>
     <use style="stroke:#000000;" x="243.844528" xlink:href="#m9d7a9bebc3" y="73.364362"/>
     <use style="stroke:#000000;" x="241.33022" xlink:href="#m9d7a9bebc3" y="67.710565"/>
     <use style="stroke:#000000;" x="240.139232" xlink:href="#m9d7a9bebc3" y="64.83343"/>
     <use style="stroke:#000000;" x="242.785872" xlink:href="#m9d7a9bebc3" y="76.673628"/>
     <use style="stroke:#000000;" x="263.03267" xlink:href="#m9d7a9bebc3" y="86.795949"/>
     <use style="stroke:#000000;" x="258.40105" xlink:href="#m9d7a9bebc3" y="69.769563"/>
     <use style="stroke:#000000;" x="263.826663" xlink:href="#m9d7a9bebc3" y="71.533581"/>
     <use style="stroke:#000000;" x="261.70935" xlink:href="#m9d7a9bebc3" y="63.077985"/>
     <use style="stroke:#000000;" x="284.602789" xlink:href="#m9d7a9bebc3" y="71.662079"/>
     <use style="stroke:#000000;" x="279.971168" xlink:href="#m9d7a9bebc3" y="78.269487"/>
     <use style="stroke:#000000;" x="285.793777" xlink:href="#m9d7a9bebc3" y="73.631651"/>
     <use style="stroke:#000000;" x="266.605635" xlink:href="#m9d7a9bebc3" y="72.702531"/>
     <use style="stroke:#000000;" x="250.461129" xlink:href="#m9d7a9bebc3" y="79.615516"/>
     <use style="stroke:#000000;" x="246.491168" xlink:href="#m9d7a9bebc3" y="79.767413"/>
     <use style="stroke:#000000;" x="254.034093" xlink:href="#m9d7a9bebc3" y="79.012653"/>
     <use style="stroke:#000000;" x="255.09275" xlink:href="#m9d7a9bebc3" y="79.615516"/>
     <use style="stroke:#000000;" x="249.667137" xlink:href="#m9d7a9bebc3" y="69.893453"/>
     <use style="stroke:#000000;" x="249.799469" xlink:href="#m9d7a9bebc3" y="71.662079"/>
     <use style="stroke:#000000;" x="243.97686" xlink:href="#m9d7a9bebc3" y="70.643533"/>
     <use style="stroke:#000000;" x="275.47188" xlink:href="#m9d7a9bebc3" y="66.078343"/>
     <use style="stroke:#000000;" x="261.841682" xlink:href="#m9d7a9bebc3" y="77.829006"/>
     <use style="stroke:#000000;" x="283.941129" xlink:href="#m9d7a9bebc3" y="76.81655"/>
     <use style="stroke:#000000;" x="319.141445" xlink:href="#m9d7a9bebc3" y="68.789699"/>
     <use style="stroke:#000000;" x="303.393935" xlink:href="#m9d7a9bebc3" y="67.473992"/>
     <use style="stroke:#000000;" x="352.224449" xlink:href="#m9d7a9bebc3" y="65.508499"/>
     <use style="stroke:#000000;" x="318.347453" xlink:href="#m9d7a9bebc3" y="64.388561"/>
     <use style="stroke:#000000;" x="302.732275" xlink:href="#m9d7a9bebc3" y="75.965282"/>
     <use style="stroke:#000000;" x="318.876781" xlink:href="#m9d7a9bebc3" y="74.853069"/>
     <use style="stroke:#000000;" x="345.74018" xlink:href="#m9d7a9bebc3" y="68.187211"/>
     <use style="stroke:#000000;" x="315.568481" xlink:href="#m9d7a9bebc3" y="71.920101"/>
     <use style="stroke:#000000;" x="338.461919" xlink:href="#m9d7a9bebc3" y="62.012322"/>
     <use style="stroke:#000000;" x="344.019864" xlink:href="#m9d7a9bebc3" y="67.004288"/>
     <use style="stroke:#000000;" x="281.162157" xlink:href="#m9d7a9bebc3" y="86.972194"/>
     <use style="stroke:#000000;" x="279.44184" xlink:href="#m9d7a9bebc3" y="81.94562"/>
     <use style="stroke:#000000;" x="296.115674" xlink:href="#m9d7a9bebc3" y="60.456588"/>
     <use style="stroke:#000000;" x="275.47188" xlink:href="#m9d7a9bebc3" y="57.873104"/>
     <use style="stroke:#000000;" x="289.366742" xlink:href="#m9d7a9bebc3" y="65.849599"/>
     <use style="stroke:#000000;" x="278.647848" xlink:href="#m9d7a9bebc3" y="59.646877"/>
     <use style="stroke:#000000;" x="305.775912" xlink:href="#m9d7a9bebc3" y="86.795949"/>
     <use style="stroke:#000000;" x="317.288797" xlink:href="#m9d7a9bebc3" y="66.887571"/>
     <use style="stroke:#000000;" x="312.657176" xlink:href="#m9d7a9bebc3" y="56.068766"/>
     <use style="stroke:#000000;" x="325.228718" xlink:href="#m9d7a9bebc3" y="53.086474"/>
     <use style="stroke:#000000;" x="332.639311" xlink:href="#m9d7a9bebc3" y="46.692116"/>
     <use style="stroke:#000000;" x="300.482631" xlink:href="#m9d7a9bebc3" y="59.848038"/>
     <use style="stroke:#000000;" x="294.395358" xlink:href="#m9d7a9bebc3" y="53.792751"/>
     <use style="stroke:#000000;" x="274.016228" xlink:href="#m9d7a9bebc3" y="65.849599"/>
     <use style="stroke:#000000;" x="268.325951" xlink:href="#m9d7a9bebc3" y="65.508499"/>
     <use style="stroke:#000000;" x="295.454014" xlink:href="#m9d7a9bebc3" y="68.789699"/>
     <use style="stroke:#000000;" x="299.688639" xlink:href="#m9d7a9bebc3" y="53.703901"/>
     <use style="stroke:#000000;" x="330.389667" xlink:href="#m9d7a9bebc3" y="68.427306"/>
     <use style="stroke:#000000;" x="315.700813" xlink:href="#m9d7a9bebc3" y="67.948301"/>
     <use style="stroke:#000000;" x="305.378916" xlink:href="#m9d7a9bebc3" y="53.086474"/>
     <use style="stroke:#000000;" x="316.494805" xlink:href="#m9d7a9bebc3" y="62.862966"/>
     <use style="stroke:#000000;" x="328.00769" xlink:href="#m9d7a9bebc3" y="61.697147"/>
     <use style="stroke:#000000;" x="308.29022" xlink:href="#m9d7a9bebc3" y="78.417209"/>
     <use style="stroke:#000000;" x="315.965477" xlink:href="#m9d7a9bebc3" y="61.801978"/>
     <use style="stroke:#000000;" x="319.009113" xlink:href="#m9d7a9bebc3" y="73.765851"/>
     <use style="stroke:#000000;" x="313.980497" xlink:href="#m9d7a9bebc3" y="61.176376"/>
     <use style="stroke:#000000;" x="311.466188" xlink:href="#m9d7a9bebc3" y="64.721829"/>
     <use style="stroke:#000000;" x="333.962631" xlink:href="#m9d7a9bebc3" y="60.151356"/>
     <use style="stroke:#000000;" x="77.503184" xlink:href="#m9d7a9bebc3" y="112.099255"/>
     <use style="stroke:#000000;" x="84.649113" xlink:href="#m9d7a9bebc3" y="126.915778"/>
     <use style="stroke:#000000;" x="88.089746" xlink:href="#m9d7a9bebc3" y="121.217535"/>
    </g>
   </g>
   <g id="patch_3">
    <path d="M 49.978125 239.758125 
L 49.978125 22.318125 
" style="fill:none;stroke:#000000;stroke-linecap:square;stroke-linejoin:miter;stroke-width:0.8;"/>
   </g>
   <g id="patch_4">
    <path d="M 384.778125 239.758125 
L 384.778125 22.318125 
" style="fill:none;stroke:#000000;stroke-linecap:square;stroke-linejoin:miter;stroke-width:0.8;"/>
   </g>
   <g id="patch_5">
    <path d="M 49.978125 239.758125 
L 384.778125 239.758125 
" style="fill:none;stroke:#000000;stroke-linecap:square;stroke-linejoin:miter;stroke-width:0.8;"/>
   </g>
   <g id="patch_6">
    <path d="M 49.978125 22.318125 
L 384.778125 22.318125 
" style="fill:none;stroke:#000000;stroke-linecap:square;stroke-linejoin:miter;stroke-width:0.8;"/>
   </g>
   <g id="text_10">
    <!-- 2 OH &lt;=&gt; H2O + O -->
    <defs>
     <path d="M 39.40625 66.21875 
Q 28.65625 66.21875 22.328125 58.203125 
Q 16.015625 50.203125 16.015625 36.375 
Q 16.015625 22.609375 22.328125 14.59375 
Q 28.65625 6.59375 39.40625 6.59375 
Q 50.140625 6.59375 56.421875 14.59375 
Q 62.703125 22.609375 62.703125 36.375 
Q 62.703125 50.203125 56.421875 58.203125 
Q 50.140625 66.21875 39.40625 66.21875 
z
M 39.40625 74.21875 
Q 54.734375 74.21875 63.90625 63.9375 
Q 73.09375 53.65625 73.09375 36.375 
Q 73.09375 19.140625 63.90625 8.859375 
Q 54.734375 -1.421875 39.40625 -1.421875 
Q 24.03125 -1.421875 14.8125 8.828125 
Q 5.609375 19.09375 5.609375 36.375 
Q 5.609375 53.65625 14.8125 63.9375 
Q 24.03125 74.21875 39.40625 74.21875 
z
" id="DejaVuSans-79"/>
     <path d="M 9.8125 72.90625 
L 19.671875 72.90625 
L 19.671875 43.015625 
L 55.515625 43.015625 
L 55.515625 72.90625 
L 65.375 72.90625 
L 65.375 0 
L 55.515625 0 
L 55.515625 34.71875 
L 19.671875 34.71875 
L 19.671875 0 
L 9.8125 0 
z
" id="DejaVuSans-72"/>
     <path d="M 73.1875 49.21875 
L 22.796875 31.296875 
L 73.1875 13.484375 
L 73.1875 4.59375 
L 10.59375 27.296875 
L 10.59375 35.40625 
L 73.1875 58.109375 
z
" id="DejaVuSans-60"/>
     <path d="M 10.59375 45.40625 
L 73.1875 45.40625 
L 73.1875 37.203125 
L 10.59375 37.203125 
z
M 10.59375 25.484375 
L 73.1875 25.484375 
L 73.1875 17.1875 
L 10.59375 17.1875 
z
" id="DejaVuSans-61"/>
     <path d="M 10.59375 49.21875 
L 10.59375 58.109375 
L 73.1875 35.40625 
L 73.1875 27.296875 
L 10.59375 4.59375 
L 10.59375 13.484375 
L 60.890625 31.296875 
z
" id="DejaVuSans-62"/>
     <path d="M 46 62.703125 
L 46 35.5 
L 73.1875 35.5 
L 73.1875 27.203125 
L 46 27.203125 
L 46 0 
L 37.796875 0 
L 37.796875 27.203125 
L 10.59375 27.203125 
L 10.59375 35.5 
L 37.796875 35.5 
L 37.796875 62.703125 
z
" id="DejaVuSans-43"/>
    </defs>
    <g transform="translate(156.90375 16.318125)scale(0.12 -0.12)">
     <use xlink:href="#DejaVuSans-50"/>
     <use x="63.623047" xlink:href="#DejaVuSans-32"/>
     <use x="95.410156" xlink:href="#DejaVuSans-79"/>
     <use x="174.121094" xlink:href="#DejaVuSans-72"/>
     <use x="249.316406" xlink:href="#DejaVuSans-32"/>
     <use x="281.103516" xlink:href="#DejaVuSans-60"/>
     <use x="364.892578" xlink:href="#DejaVuSans-61"/>
     <use x="448.681641" xlink:href="#DejaVuSans-62"/>
     <use x="532.470703" xlink:href="#DejaVuSans-32"/>
     <use x="564.257812" xlink:href="#DejaVuSans-72"/>
     <use x="639.453125" xlink:href="#DejaVuSans-50"/>
     <use x="703.076172" xlink:href="#DejaVuSans-79"/>
     <use x="781.787109" xlink:href="#DejaVuSans-32"/>
     <use x="813.574219" xlink:href="#DejaVuSans-43"/>
     <use x="897.363281" xlink:href="#DejaVuSans-32"/>
     <use x="929.150391" xlink:href="#DejaVuSans-79"/>
    </g>
   </g>
  </g>
 </g>
 <defs>
  <clipPath id="p94c5e2b6cf">
   <rect height="217.44" width="334.8" x="49.978125" y="22.318125"/>
  </clipPath>
 </defs>
</svg>
