<?xml version="1.0" encoding="utf-8" standalone="no"?>
<!DOCTYPE svg PUBLIC "-//W3C//DTD SVG 1.1//EN"
  "http://www.w3.org/Graphics/SVG/1.1/DTD/svg11.dtd">
<!-- Created with matplotlib (https://matplotlib.org/) -->
<svg height="277.314375pt" version="1.1" viewBox="0 0 395.478125 277.314375" width="395.478125pt" xmlns="http://www.w3.org/2000/svg" xmlns:xlink="http://www.w3.org/1999/xlink">
 <defs>
  <style type="text/css">
*{stroke-linecap:butt;stroke-linejoin:round;}
  </style>
 </defs>
 <g id="figure_1">
  <g id="patch_1">
   <path d="M 0 277.314375 
L 395.478125 277.314375 
L 395.478125 0 
L 0 0 
z
" style="fill:#ffffff;"/>
  </g>
  <g id="axes_1">
   <g id="patch_2">
    <path d="M 49.978125 239.758125 
L 384.778125 239.758125 
L 384.778125 22.318125 
L 49.978125 22.318125 
z
" style="fill:#ffffff;"/>
   </g>
   <g id="matplotlib.axis_1">
    <g id="xtick_1">
     <g id="line2d_1">
      <defs>
       <path d="M 0 0 
L 0 3.5 
" id="m6f9fa41858" style="stroke:#000000;stroke-width:0.8;"/>
      </defs>
      <g>
       <use style="stroke:#000000;stroke-width:0.8;" x="53.042019" xlink:href="#m6f9fa41858" y="239.758125"/>
      </g>
     </g>
     <g id="text_1">
      <!-- 0 -->
      <defs>
       <path d="M 31.78125 66.40625 
Q 24.171875 66.40625 20.328125 58.90625 
Q 16.5 51.421875 16.5 36.375 
Q 16.5 21.390625 20.328125 13.890625 
Q 24.171875 6.390625 31.78125 6.390625 
Q 39.453125 6.390625 43.28125 13.890625 
Q 47.125 21.390625 47.125 36.375 
Q 47.125 51.421875 43.28125 58.90625 
Q 39.453125 66.40625 31.78125 66.40625 
z
M 31.78125 74.21875 
Q 44.046875 74.21875 50.515625 64.515625 
Q 56.984375 54.828125 56.984375 36.375 
Q 56.984375 17.96875 50.515625 8.265625 
Q 44.046875 -1.421875 31.78125 -1.421875 
Q 19.53125 -1.421875 13.0625 8.265625 
Q 6.59375 17.96875 6.59375 36.375 
Q 6.59375 54.828125 13.0625 64.515625 
Q 19.53125 74.21875 31.78125 74.21875 
z
" id="DejaVuSans-48"/>
      </defs>
      <g transform="translate(49.860769 254.356562)scale(0.1 -0.1)">
       <use xlink:href="#DejaVuSans-48"/>
      </g>
     </g>
    </g>
    <g id="xtick_2">
     <g id="line2d_2">
      <g>
       <use style="stroke:#000000;stroke-width:0.8;" x="116.345603" xlink:href="#m6f9fa41858" y="239.758125"/>
      </g>
     </g>
     <g id="text_2">
      <!-- 500 -->
      <defs>
       <path d="M 10.796875 72.90625 
L 49.515625 72.90625 
L 49.515625 64.59375 
L 19.828125 64.59375 
L 19.828125 46.734375 
Q 21.96875 47.46875 24.109375 47.828125 
Q 26.265625 48.1875 28.421875 48.1875 
Q 40.625 48.1875 47.75 41.5 
Q 54.890625 34.8125 54.890625 23.390625 
Q 54.890625 11.625 47.5625 5.09375 
Q 40.234375 -1.421875 26.90625 -1.421875 
Q 22.3125 -1.421875 17.546875 -0.640625 
Q 12.796875 0.140625 7.71875 1.703125 
L 7.71875 11.625 
Q 12.109375 9.234375 16.796875 8.0625 
Q 21.484375 6.890625 26.703125 6.890625 
Q 35.15625 6.890625 40.078125 11.328125 
Q 45.015625 15.765625 45.015625 23.390625 
Q 45.015625 31 40.078125 35.4375 
Q 35.15625 39.890625 26.703125 39.890625 
Q 22.75 39.890625 18.8125 39.015625 
Q 14.890625 38.140625 10.796875 36.28125 
z
" id="DejaVuSans-53"/>
      </defs>
      <g transform="translate(106.801853 254.356562)scale(0.1 -0.1)">
       <use xlink:href="#DejaVuSans-53"/>
       <use x="63.623047" xlink:href="#DejaVuSans-48"/>
       <use x="127.246094" xlink:href="#DejaVuSans-48"/>
      </g>
     </g>
    </g>
    <g id="xtick_3">
     <g id="line2d_3">
      <g>
       <use style="stroke:#000000;stroke-width:0.8;" x="179.649188" xlink:href="#m6f9fa41858" y="239.758125"/>
      </g>
     </g>
     <g id="text_3">
      <!-- 1000 -->
      <defs>
       <path d="M 12.40625 8.296875 
L 28.515625 8.296875 
L 28.515625 63.921875 
L 10.984375 60.40625 
L 10.984375 69.390625 
L 28.421875 72.90625 
L 38.28125 72.90625 
L 38.28125 8.296875 
L 54.390625 8.296875 
L 54.390625 0 
L 12.40625 0 
z
" id="DejaVuSans-49"/>
      </defs>
      <g transform="translate(166.924188 254.356562)scale(0.1 -0.1)">
       <use xlink:href="#DejaVuSans-49"/>
       <use x="63.623047" xlink:href="#DejaVuSans-48"/>
       <use x="127.246094" xlink:href="#DejaVuSans-48"/>
       <use x="190.869141" xlink:href="#DejaVuSans-48"/>
      </g>
     </g>
    </g>
    <g id="xtick_4">
     <g id="line2d_4">
      <g>
       <use style="stroke:#000000;stroke-width:0.8;" x="242.952773" xlink:href="#m6f9fa41858" y="239.758125"/>
      </g>
     </g>
     <g id="text_4">
      <!-- 1500 -->
      <g transform="translate(230.227773 254.356562)scale(0.1 -0.1)">
       <use xlink:href="#DejaVuSans-49"/>
       <use x="63.623047" xlink:href="#DejaVuSans-53"/>
       <use x="127.246094" xlink:href="#DejaVuSans-48"/>
       <use x="190.869141" xlink:href="#DejaVuSans-48"/>
      </g>
     </g>
    </g>
    <g id="xtick_5">
     <g id="line2d_5">
      <g>
       <use style="stroke:#000000;stroke-width:0.8;" x="306.256358" xlink:href="#m6f9fa41858" y="239.758125"/>
      </g>
     </g>
     <g id="text_5">
      <!-- 2000 -->
      <defs>
       <path d="M 19.1875 8.296875 
L 53.609375 8.296875 
L 53.609375 0 
L 7.328125 0 
L 7.328125 8.296875 
Q 12.9375 14.109375 22.625 23.890625 
Q 32.328125 33.6875 34.8125 36.53125 
Q 39.546875 41.84375 41.421875 45.53125 
Q 43.3125 49.21875 43.3125 52.78125 
Q 43.3125 58.59375 39.234375 62.25 
Q 35.15625 65.921875 28.609375 65.921875 
Q 23.96875 65.921875 18.8125 64.3125 
Q 13.671875 62.703125 7.8125 59.421875 
L 7.8125 69.390625 
Q 13.765625 71.78125 18.9375 73 
Q 24.125 74.21875 28.421875 74.21875 
Q 39.75 74.21875 46.484375 68.546875 
Q 53.21875 62.890625 53.21875 53.421875 
Q 53.21875 48.921875 51.53125 44.890625 
Q 49.859375 40.875 45.40625 35.40625 
Q 44.1875 33.984375 37.640625 27.21875 
Q 31.109375 20.453125 19.1875 8.296875 
z
" id="DejaVuSans-50"/>
      </defs>
      <g transform="translate(293.531358 254.356562)scale(0.1 -0.1)">
       <use xlink:href="#DejaVuSans-50"/>
       <use x="63.623047" xlink:href="#DejaVuSans-48"/>
       <use x="127.246094" xlink:href="#DejaVuSans-48"/>
       <use x="190.869141" xlink:href="#DejaVuSans-48"/>
      </g>
     </g>
    </g>
    <g id="xtick_6">
     <g id="line2d_6">
      <g>
       <use style="stroke:#000000;stroke-width:0.8;" x="369.559943" xlink:href="#m6f9fa41858" y="239.758125"/>
      </g>
     </g>
     <g id="text_6">
      <!-- 2500 -->
      <g transform="translate(356.834943 254.356562)scale(0.1 -0.1)">
       <use xlink:href="#DejaVuSans-50"/>
       <use x="63.623047" xlink:href="#DejaVuSans-53"/>
       <use x="127.246094" xlink:href="#DejaVuSans-48"/>
       <use x="190.869141" xlink:href="#DejaVuSans-48"/>
      </g>
     </g>
    </g>
    <g id="text_7">
     <!-- Temperature (K) -->
     <defs>
      <path d="M -0.296875 72.90625 
L 61.375 72.90625 
L 61.375 64.59375 
L 35.5 64.59375 
L 35.5 0 
L 25.59375 0 
L 25.59375 64.59375 
L -0.296875 64.59375 
z
" id="DejaVuSans-84"/>
      <path d="M 56.203125 29.59375 
L 56.203125 25.203125 
L 14.890625 25.203125 
Q 15.484375 15.921875 20.484375 11.0625 
Q 25.484375 6.203125 34.421875 6.203125 
Q 39.59375 6.203125 44.453125 7.46875 
Q 49.3125 8.734375 54.109375 11.28125 
L 54.109375 2.78125 
Q 49.265625 0.734375 44.1875 -0.34375 
Q 39.109375 -1.421875 33.890625 -1.421875 
Q 20.796875 -1.421875 13.15625 6.1875 
Q 5.515625 13.8125 5.515625 26.8125 
Q 5.515625 40.234375 12.765625 48.109375 
Q 20.015625 56 32.328125 56 
Q 43.359375 56 49.78125 48.890625 
Q 56.203125 41.796875 56.203125 29.59375 
z
M 47.21875 32.234375 
Q 47.125 39.59375 43.09375 43.984375 
Q 39.0625 48.390625 32.421875 48.390625 
Q 24.90625 48.390625 20.390625 44.140625 
Q 15.875 39.890625 15.1875 32.171875 
z
" id="DejaVuSans-101"/>
      <path d="M 52 44.1875 
Q 55.375 50.25 60.0625 53.125 
Q 64.75 56 71.09375 56 
Q 79.640625 56 84.28125 50.015625 
Q 88.921875 44.046875 88.921875 33.015625 
L 88.921875 0 
L 79.890625 0 
L 79.890625 32.71875 
Q 79.890625 40.578125 77.09375 44.375 
Q 74.3125 48.1875 68.609375 48.1875 
Q 61.625 48.1875 57.5625 43.546875 
Q 53.515625 38.921875 53.515625 30.90625 
L 53.515625 0 
L 44.484375 0 
L 44.484375 32.71875 
Q 44.484375 40.625 41.703125 44.40625 
Q 38.921875 48.1875 33.109375 48.1875 
Q 26.21875 48.1875 22.15625 43.53125 
Q 18.109375 38.875 18.109375 30.90625 
L 18.109375 0 
L 9.078125 0 
L 9.078125 54.6875 
L 18.109375 54.6875 
L 18.109375 46.1875 
Q 21.1875 51.21875 25.484375 53.609375 
Q 29.78125 56 35.6875 56 
Q 41.65625 56 45.828125 52.96875 
Q 50 49.953125 52 44.1875 
z
" id="DejaVuSans-109"/>
      <path d="M 18.109375 8.203125 
L 18.109375 -20.796875 
L 9.078125 -20.796875 
L 9.078125 54.6875 
L 18.109375 54.6875 
L 18.109375 46.390625 
Q 20.953125 51.265625 25.265625 53.625 
Q 29.59375 56 35.59375 56 
Q 45.5625 56 51.78125 48.09375 
Q 58.015625 40.1875 58.015625 27.296875 
Q 58.015625 14.40625 51.78125 6.484375 
Q 45.5625 -1.421875 35.59375 -1.421875 
Q 29.59375 -1.421875 25.265625 0.953125 
Q 20.953125 3.328125 18.109375 8.203125 
z
M 48.6875 27.296875 
Q 48.6875 37.203125 44.609375 42.84375 
Q 40.53125 48.484375 33.40625 48.484375 
Q 26.265625 48.484375 22.1875 42.84375 
Q 18.109375 37.203125 18.109375 27.296875 
Q 18.109375 17.390625 22.1875 11.75 
Q 26.265625 6.109375 33.40625 6.109375 
Q 40.53125 6.109375 44.609375 11.75 
Q 48.6875 17.390625 48.6875 27.296875 
z
" id="DejaVuSans-112"/>
      <path d="M 41.109375 46.296875 
Q 39.59375 47.171875 37.8125 47.578125 
Q 36.03125 48 33.890625 48 
Q 26.265625 48 22.1875 43.046875 
Q 18.109375 38.09375 18.109375 28.8125 
L 18.109375 0 
L 9.078125 0 
L 9.078125 54.6875 
L 18.109375 54.6875 
L 18.109375 46.1875 
Q 20.953125 51.171875 25.484375 53.578125 
Q 30.03125 56 36.53125 56 
Q 37.453125 56 38.578125 55.875 
Q 39.703125 55.765625 41.0625 55.515625 
z
" id="DejaVuSans-114"/>
      <path d="M 34.28125 27.484375 
Q 23.390625 27.484375 19.1875 25 
Q 14.984375 22.515625 14.984375 16.5 
Q 14.984375 11.71875 18.140625 8.90625 
Q 21.296875 6.109375 26.703125 6.109375 
Q 34.1875 6.109375 38.703125 11.40625 
Q 43.21875 16.703125 43.21875 25.484375 
L 43.21875 27.484375 
z
M 52.203125 31.203125 
L 52.203125 0 
L 43.21875 0 
L 43.21875 8.296875 
Q 40.140625 3.328125 35.546875 0.953125 
Q 30.953125 -1.421875 24.3125 -1.421875 
Q 15.921875 -1.421875 10.953125 3.296875 
Q 6 8.015625 6 15.921875 
Q 6 25.140625 12.171875 29.828125 
Q 18.359375 34.515625 30.609375 34.515625 
L 43.21875 34.515625 
L 43.21875 35.40625 
Q 43.21875 41.609375 39.140625 45 
Q 35.0625 48.390625 27.6875 48.390625 
Q 23 48.390625 18.546875 47.265625 
Q 14.109375 46.140625 10.015625 43.890625 
L 10.015625 52.203125 
Q 14.9375 54.109375 19.578125 55.046875 
Q 24.21875 56 28.609375 56 
Q 40.484375 56 46.34375 49.84375 
Q 52.203125 43.703125 52.203125 31.203125 
z
" id="DejaVuSans-97"/>
      <path d="M 18.3125 70.21875 
L 18.3125 54.6875 
L 36.8125 54.6875 
L 36.8125 47.703125 
L 18.3125 47.703125 
L 18.3125 18.015625 
Q 18.3125 11.328125 20.140625 9.421875 
Q 21.96875 7.515625 27.59375 7.515625 
L 36.8125 7.515625 
L 36.8125 0 
L 27.59375 0 
Q 17.1875 0 13.234375 3.875 
Q 9.28125 7.765625 9.28125 18.015625 
L 9.28125 47.703125 
L 2.6875 47.703125 
L 2.6875 54.6875 
L 9.28125 54.6875 
L 9.28125 70.21875 
z
" id="DejaVuSans-116"/>
      <path d="M 8.5 21.578125 
L 8.5 54.6875 
L 17.484375 54.6875 
L 17.484375 21.921875 
Q 17.484375 14.15625 20.5 10.265625 
Q 23.53125 6.390625 29.59375 6.390625 
Q 36.859375 6.390625 41.078125 11.03125 
Q 45.3125 15.671875 45.3125 23.6875 
L 45.3125 54.6875 
L 54.296875 54.6875 
L 54.296875 0 
L 45.3125 0 
L 45.3125 8.40625 
Q 42.046875 3.421875 37.71875 1 
Q 33.40625 -1.421875 27.6875 -1.421875 
Q 18.265625 -1.421875 13.375 4.4375 
Q 8.5 10.296875 8.5 21.578125 
z
M 31.109375 56 
z
" id="DejaVuSans-117"/>
      <path id="DejaVuSans-32"/>
      <path d="M 31 75.875 
Q 24.46875 64.65625 21.28125 53.65625 
Q 18.109375 42.671875 18.109375 31.390625 
Q 18.109375 20.125 21.3125 9.0625 
Q 24.515625 -2 31 -13.1875 
L 23.1875 -13.1875 
Q 15.875 -1.703125 12.234375 9.375 
Q 8.59375 20.453125 8.59375 31.390625 
Q 8.59375 42.28125 12.203125 53.3125 
Q 15.828125 64.359375 23.1875 75.875 
z
" id="DejaVuSans-40"/>
      <path d="M 9.8125 72.90625 
L 19.671875 72.90625 
L 19.671875 42.09375 
L 52.390625 72.90625 
L 65.09375 72.90625 
L 28.90625 38.921875 
L 67.671875 0 
L 54.6875 0 
L 19.671875 35.109375 
L 19.671875 0 
L 9.8125 0 
z
" id="DejaVuSans-75"/>
      <path d="M 8.015625 75.875 
L 15.828125 75.875 
Q 23.140625 64.359375 26.78125 53.3125 
Q 30.421875 42.28125 30.421875 31.390625 
Q 30.421875 20.453125 26.78125 9.375 
Q 23.140625 -1.703125 15.828125 -13.1875 
L 8.015625 -13.1875 
Q 14.5 -2 17.703125 9.0625 
Q 20.90625 20.125 20.90625 31.390625 
Q 20.90625 42.671875 17.703125 53.65625 
Q 14.5 64.65625 8.015625 75.875 
z
" id="DejaVuSans-41"/>
     </defs>
     <g transform="translate(175.991406 268.034687)scale(0.1 -0.1)">
      <use xlink:href="#DejaVuSans-84"/>
      <use x="60.818359" xlink:href="#DejaVuSans-101"/>
      <use x="122.341797" xlink:href="#DejaVuSans-109"/>
      <use x="219.753906" xlink:href="#DejaVuSans-112"/>
      <use x="283.230469" xlink:href="#DejaVuSans-101"/>
      <use x="344.753906" xlink:href="#DejaVuSans-114"/>
      <use x="385.867188" xlink:href="#DejaVuSans-97"/>
      <use x="447.146484" xlink:href="#DejaVuSans-116"/>
      <use x="486.355469" xlink:href="#DejaVuSans-117"/>
      <use x="549.734375" xlink:href="#DejaVuSans-114"/>
      <use x="590.816406" xlink:href="#DejaVuSans-101"/>
      <use x="652.339844" xlink:href="#DejaVuSans-32"/>
      <use x="684.126953" xlink:href="#DejaVuSans-40"/>
      <use x="723.140625" xlink:href="#DejaVuSans-75"/>
      <use x="788.716797" xlink:href="#DejaVuSans-41"/>
     </g>
    </g>
   </g>
   <g id="matplotlib.axis_2">
    <g id="ytick_1">
     <g id="line2d_7">
      <defs>
       <path d="M 0 0 
L -3.5 0 
" id="m88fef2c08c" style="stroke:#000000;stroke-width:0.8;"/>
      </defs>
      <g>
       <use style="stroke:#000000;stroke-width:0.8;" x="49.978125" xlink:href="#m88fef2c08c" y="219.095687"/>
      </g>
     </g>
     <g id="text_8">
      <!-- $\mathdefault{10^{12}}$ -->
      <g transform="translate(20.878125 222.894906)scale(0.1 -0.1)">
       <use transform="translate(0 0.765625)" xlink:href="#DejaVuSans-49"/>
       <use transform="translate(63.623047 0.765625)" xlink:href="#DejaVuSans-48"/>
       <use transform="translate(128.203125 39.046875)scale(0.7)" xlink:href="#DejaVuSans-49"/>
       <use transform="translate(172.739258 39.046875)scale(0.7)" xlink:href="#DejaVuSans-50"/>
      </g>
     </g>
    </g>
    <g id="ytick_2">
     <g id="line2d_8">
      <g>
       <use style="stroke:#000000;stroke-width:0.8;" x="49.978125" xlink:href="#m88fef2c08c" y="71.41037"/>
      </g>
     </g>
     <g id="text_9">
      <!-- $\mathdefault{10^{13}}$ -->
      <defs>
       <path d="M 40.578125 39.3125 
Q 47.65625 37.796875 51.625 33 
Q 55.609375 28.21875 55.609375 21.1875 
Q 55.609375 10.40625 48.1875 4.484375 
Q 40.765625 -1.421875 27.09375 -1.421875 
Q 22.515625 -1.421875 17.65625 -0.515625 
Q 12.796875 0.390625 7.625 2.203125 
L 7.625 11.71875 
Q 11.71875 9.328125 16.59375 8.109375 
Q 21.484375 6.890625 26.8125 6.890625 
Q 36.078125 6.890625 40.9375 10.546875 
Q 45.796875 14.203125 45.796875 21.1875 
Q 45.796875 27.640625 41.28125 31.265625 
Q 36.765625 34.90625 28.71875 34.90625 
L 20.21875 34.90625 
L 20.21875 43.015625 
L 29.109375 43.015625 
Q 36.375 43.015625 40.234375 45.921875 
Q 44.09375 48.828125 44.09375 54.296875 
Q 44.09375 59.90625 40.109375 62.90625 
Q 36.140625 65.921875 28.71875 65.921875 
Q 24.65625 65.921875 20.015625 65.03125 
Q 15.375 64.15625 9.8125 62.3125 
L 9.8125 71.09375 
Q 15.4375 72.65625 20.34375 73.4375 
Q 25.25 74.21875 29.59375 74.21875 
Q 40.828125 74.21875 47.359375 69.109375 
Q 53.90625 64.015625 53.90625 55.328125 
Q 53.90625 49.265625 50.4375 45.09375 
Q 46.96875 40.921875 40.578125 39.3125 
z
" id="DejaVuSans-51"/>
      </defs>
      <g transform="translate(20.878125 75.209589)scale(0.1 -0.1)">
       <use transform="translate(0 0.765625)" xlink:href="#DejaVuSans-49"/>
       <use transform="translate(63.623047 0.765625)" xlink:href="#DejaVuSans-48"/>
       <use transform="translate(128.203125 39.046875)scale(0.7)" xlink:href="#DejaVuSans-49"/>
       <use transform="translate(172.739258 39.046875)scale(0.7)" xlink:href="#DejaVuSans-51"/>
      </g>
     </g>
    </g>
    <g id="ytick_3">
     <g id="line2d_9">
      <defs>
       <path d="M 0 0 
L -2 0 
" id="ma3dcd318de" style="stroke:#000000;stroke-width:0.6;"/>
      </defs>
      <g>
       <use style="stroke:#000000;stroke-width:0.6;" x="49.978125" xlink:href="#ma3dcd318de" y="233.407873"/>
      </g>
     </g>
    </g>
    <g id="ytick_4">
     <g id="line2d_10">
      <g>
       <use style="stroke:#000000;stroke-width:0.6;" x="49.978125" xlink:href="#ma3dcd318de" y="225.853397"/>
      </g>
     </g>
    </g>
    <g id="ytick_5">
     <g id="line2d_11">
      <g>
       <use style="stroke:#000000;stroke-width:0.6;" x="49.978125" xlink:href="#ma3dcd318de" y="174.637977"/>
      </g>
     </g>
    </g>
    <g id="ytick_6">
     <g id="line2d_12">
      <g>
       <use style="stroke:#000000;stroke-width:0.6;" x="49.978125" xlink:href="#ma3dcd318de" y="148.631883"/>
      </g>
     </g>
    </g>
    <g id="ytick_7">
     <g id="line2d_13">
      <g>
       <use style="stroke:#000000;stroke-width:0.6;" x="49.978125" xlink:href="#ma3dcd318de" y="130.180266"/>
      </g>
     </g>
    </g>
    <g id="ytick_8">
     <g id="line2d_14">
      <g>
       <use style="stroke:#000000;stroke-width:0.6;" x="49.978125" xlink:href="#ma3dcd318de" y="115.86808"/>
      </g>
     </g>
    </g>
    <g id="ytick_9">
     <g id="line2d_15">
      <g>
       <use style="stroke:#000000;stroke-width:0.6;" x="49.978125" xlink:href="#ma3dcd318de" y="104.174173"/>
      </g>
     </g>
    </g>
    <g id="ytick_10">
     <g id="line2d_16">
      <g>
       <use style="stroke:#000000;stroke-width:0.6;" x="49.978125" xlink:href="#ma3dcd318de" y="94.287115"/>
      </g>
     </g>
    </g>
    <g id="ytick_11">
     <g id="line2d_17">
      <g>
       <use style="stroke:#000000;stroke-width:0.6;" x="49.978125" xlink:href="#ma3dcd318de" y="85.722556"/>
      </g>
     </g>
    </g>
    <g id="ytick_12">
     <g id="line2d_18">
      <g>
       <use style="stroke:#000000;stroke-width:0.6;" x="49.978125" xlink:href="#ma3dcd318de" y="78.16808"/>
      </g>
     </g>
    </g>
    <g id="ytick_13">
     <g id="line2d_19">
      <g>
       <use style="stroke:#000000;stroke-width:0.6;" x="49.978125" xlink:href="#ma3dcd318de" y="26.95266"/>
      </g>
     </g>
    </g>
    <g id="text_10">
     <!-- Kmol/m^3-s -->
     <defs>
      <path d="M 30.609375 48.390625 
Q 23.390625 48.390625 19.1875 42.75 
Q 14.984375 37.109375 14.984375 27.296875 
Q 14.984375 17.484375 19.15625 11.84375 
Q 23.34375 6.203125 30.609375 6.203125 
Q 37.796875 6.203125 41.984375 11.859375 
Q 46.1875 17.53125 46.1875 27.296875 
Q 46.1875 37.015625 41.984375 42.703125 
Q 37.796875 48.390625 30.609375 48.390625 
z
M 30.609375 56 
Q 42.328125 56 49.015625 48.375 
Q 55.71875 40.765625 55.71875 27.296875 
Q 55.71875 13.875 49.015625 6.21875 
Q 42.328125 -1.421875 30.609375 -1.421875 
Q 18.84375 -1.421875 12.171875 6.21875 
Q 5.515625 13.875 5.515625 27.296875 
Q 5.515625 40.765625 12.171875 48.375 
Q 18.84375 56 30.609375 56 
z
" id="DejaVuSans-111"/>
      <path d="M 9.421875 75.984375 
L 18.40625 75.984375 
L 18.40625 0 
L 9.421875 0 
z
" id="DejaVuSans-108"/>
      <path d="M 25.390625 72.90625 
L 33.6875 72.90625 
L 8.296875 -9.28125 
L 0 -9.28125 
z
" id="DejaVuSans-47"/>
      <path d="M 46.6875 72.90625 
L 73.1875 45.703125 
L 63.375 45.703125 
L 41.890625 64.984375 
L 20.40625 45.703125 
L 10.59375 45.703125 
L 37.109375 72.90625 
z
" id="DejaVuSans-94"/>
      <path d="M 4.890625 31.390625 
L 31.203125 31.390625 
L 31.203125 23.390625 
L 4.890625 23.390625 
z
" id="DejaVuSans-45"/>
      <path d="M 44.28125 53.078125 
L 44.28125 44.578125 
Q 40.484375 46.53125 36.375 47.5 
Q 32.28125 48.484375 27.875 48.484375 
Q 21.1875 48.484375 17.84375 46.4375 
Q 14.5 44.390625 14.5 40.28125 
Q 14.5 37.15625 16.890625 35.375 
Q 19.28125 33.59375 26.515625 31.984375 
L 29.59375 31.296875 
Q 39.15625 29.25 43.1875 25.515625 
Q 47.21875 21.78125 47.21875 15.09375 
Q 47.21875 7.46875 41.1875 3.015625 
Q 35.15625 -1.421875 24.609375 -1.421875 
Q 20.21875 -1.421875 15.453125 -0.5625 
Q 10.6875 0.296875 5.421875 2 
L 5.421875 11.28125 
Q 10.40625 8.6875 15.234375 7.390625 
Q 20.0625 6.109375 24.8125 6.109375 
Q 31.15625 6.109375 34.5625 8.28125 
Q 37.984375 10.453125 37.984375 14.40625 
Q 37.984375 18.0625 35.515625 20.015625 
Q 33.0625 21.96875 24.703125 23.78125 
L 21.578125 24.515625 
Q 13.234375 26.265625 9.515625 29.90625 
Q 5.8125 33.546875 5.8125 39.890625 
Q 5.8125 47.609375 11.28125 51.796875 
Q 16.75 56 26.8125 56 
Q 31.78125 56 36.171875 55.265625 
Q 40.578125 54.546875 44.28125 53.078125 
z
" id="DejaVuSans-115"/>
     </defs>
     <g transform="translate(14.798438 161.970156)rotate(-90)scale(0.1 -0.1)">
      <use xlink:href="#DejaVuSans-75"/>
      <use x="65.576172" xlink:href="#DejaVuSans-109"/>
      <use x="162.988281" xlink:href="#DejaVuSans-111"/>
      <use x="224.169922" xlink:href="#DejaVuSans-108"/>
      <use x="251.953125" xlink:href="#DejaVuSans-47"/>
      <use x="285.644531" xlink:href="#DejaVuSans-109"/>
      <use x="383.056641" xlink:href="#DejaVuSans-94"/>
      <use x="466.845703" xlink:href="#DejaVuSans-51"/>
      <use x="530.46875" xlink:href="#DejaVuSans-45"/>
      <use x="566.552734" xlink:href="#DejaVuSans-115"/>
     </g>
    </g>
   </g>
   <g id="line2d_20">
    <path clip-path="url(#pa4addbdbb8)" d="M 84.693811 171.873711 
L 86.846133 182.00957 
L 88.74524 189.94319 
L 90.644348 196.943219 
L 92.416848 202.675781 
L 94.189349 207.687256 
L 95.961849 212.033366 
L 97.734349 215.770348 
L 99.380243 218.742588 
L 101.026136 221.277746 
L 102.672029 223.414285 
L 104.317922 225.187782 
L 105.963816 226.630933 
L 107.609709 227.77365 
L 109.255602 228.643222 
L 110.901495 229.264489 
L 112.547388 229.660037 
L 114.319889 229.857074 
L 116.218996 229.830369 
L 118.118104 229.582664 
L 120.143819 229.100659 
L 122.422748 228.319852 
L 124.828284 227.254771 
L 127.487034 225.827654 
L 130.398999 224.006492 
L 133.690786 221.674255 
L 137.362394 218.79094 
L 141.54043 215.220751 
L 146.47811 210.697088 
L 152.428647 204.930823 
L 160.278291 196.990959 
L 173.698651 183.040084 
L 190.664012 165.486204 
L 201.805443 154.28616 
L 211.80741 144.541202 
L 221.429554 135.474138 
L 230.798485 126.949078 
L 240.040808 118.836565 
L 249.283132 111.01787 
L 258.525455 103.487931 
L 267.894386 96.141973 
L 277.389924 88.982265 
L 286.885461 82.099426 
L 296.634213 75.309406 
L 306.509573 68.70424 
L 316.511539 62.281554 
L 326.76672 55.961914 
L 337.148508 49.824438 
L 347.78351 43.794549 
L 358.671727 37.876328 
L 369.433336 32.266735 
L 369.433336 32.266735 
" style="fill:none;stroke:#0000ff;stroke-linecap:square;stroke-width:1.5;"/>
   </g>
   <g id="line2d_21">
    <path clip-path="url(#pa4addbdbb8)" d="M 73.932202 119.157624 
L 78.363452 136.958624 
L 83.554346 166.036482 
L 84.060775 168.668659 
L 84.693811 171.873346 
L 84.693811 171.873346 
L 84.693811 171.873346 
L 84.820418 172.502484 
L 87.605776 185.296629 
L 90.264526 195.615591 
L 90.391134 196.061992 
L 90.517741 196.504415 
L 90.770955 197.377394 
L 91.024169 198.234666 
L 92.543456 203.056676 
L 95.202206 210.248265 
L 95.45542 210.855891 
L 96.088456 212.319512 
L 97.354528 215.017759 
L 99.253636 218.529667 
L 100.013279 219.7669 
L 102.925243 223.709606 
L 103.684886 224.546184 
L 105.33078 226.112706 
L 106.470244 227.012925 
L 106.596851 227.104152 
L 110.015245 228.95911 
L 110.521674 229.141655 
L 111.154709 229.339212 
L 116.345603 229.820184 
L 116.345603 229.820184 
L 122.675962 228.218549 
L 122.675962 228.218549 
L 129.00632 224.908206 
L 135.336679 220.414695 
L 141.667037 215.108227 
L 147.997396 209.252495 
L 154.327754 203.037242 
L 160.658113 196.600181 
L 166.988471 190.041933 
L 166.988471 190.041933 
L 173.31883 183.436365 
L 179.649188 176.837822 
L 179.649188 176.837822 
L 182.181332 174.209715 
L 184.586868 171.721947 
L 185.346511 170.938403 
L 185.979547 170.286267 
L 186.232761 170.025626 
L 190.917226 165.227806 
L 192.309905 163.810973 
L 192.309905 163.810973 
L 193.069548 163.040142 
L 195.854906 160.226313 
L 196.487942 159.589652 
L 196.614549 159.46245 
L 198.260442 157.812822 
L 198.640264 157.433209 
L 199.906336 156.170789 
L 201.93205 154.160571 
L 203.704551 152.411623 
L 203.957765 152.162548 
L 204.970622 151.168213 
L 207.629373 148.573239 
L 209.148659 147.100424 
L 211.174374 145.148221 
L 211.300981 145.026651 
L 214.719374 141.764177 
L 214.719374 141.764177 
L 217.631339 139.015711 
L 219.277233 137.474874 
L 219.783661 137.002619 
L 223.202055 133.83779 
L 223.961698 133.139933 
L 227.00027 130.368369 
L 230.038842 127.62869 
L 230.292056 127.401825 
L 233.330628 124.696766 
L 234.090271 124.025497 
L 236.622415 121.802353 
L 238.015094 120.589071 
L 242.952773 116.341298 
L 242.952773 116.341298 
L 249.283132 111.017547 
L 255.61349 105.829308 
L 261.943849 100.774285 
L 268.274207 95.849806 
L 274.604566 91.052934 
L 280.934924 86.380543 
L 287.265283 81.829384 
L 293.595641 77.396136 
L 299.926 73.077442 
L 306.256358 68.86994 
L 306.256358 68.86994 
L 312.586717 64.77029 
L 318.917075 60.775186 
L 325.247434 56.881375 
L 331.577792 53.085662 
L 337.908151 49.384923 
L 344.238509 45.776106 
L 350.568868 42.256237 
L 356.899226 38.82242 
L 363.229585 35.471839 
L 369.559943 32.201761 
L 369.559943 32.201761 
" style="fill:none;stroke:#0000ff;stroke-dasharray:5.55,2.4;stroke-dashoffset:0;stroke-width:1.5;"/>
   </g>
   <g id="line2d_22">
    <path clip-path="url(#pa4addbdbb8)" d="M 73.932202 119.158321 
L 78.363452 136.959374 
L 83.554346 166.037217 
L 84.060775 168.669392 
L 84.693811 171.874075 
L 84.693811 171.874075 
L 84.693811 171.874075 
L 84.820418 172.503211 
L 87.605776 185.297336 
L 90.264526 195.616278 
L 90.391134 196.062679 
L 90.517741 196.505101 
L 90.770955 197.378078 
L 91.024169 198.235348 
L 92.543456 203.057346 
L 95.202206 210.248917 
L 95.45542 210.856541 
L 96.088456 212.320158 
L 97.354528 215.018396 
L 99.253636 218.530294 
L 100.013279 219.767521 
L 102.925243 223.710212 
L 103.684886 224.546786 
L 105.33078 226.1133 
L 106.470244 227.013515 
L 106.596851 227.104742 
L 110.015245 228.959686 
L 110.521674 229.142229 
L 111.154709 229.339784 
L 116.345603 229.820743 
L 116.345603 229.820743 
L 122.675962 228.219097 
L 122.675962 228.219097 
L 129.00632 224.908749 
L 135.336679 220.415238 
L 141.667037 215.108772 
L 147.997396 209.253044 
L 154.327754 203.037798 
L 160.658113 196.600742 
L 166.988471 190.042502 
L 166.988471 190.042502 
L 173.31883 183.436942 
L 179.649188 176.838406 
L 179.649188 176.838406 
L 182.181332 174.210302 
L 184.586868 171.722536 
L 185.346511 170.938994 
L 185.979547 170.286858 
L 186.232761 170.026217 
L 190.917226 165.228402 
L 192.309905 163.81157 
L 192.309905 163.81157 
L 193.069548 163.04074 
L 195.854906 160.226915 
L 196.487942 159.590255 
L 196.614549 159.463052 
L 198.260442 157.813426 
L 198.640264 157.433814 
L 199.906336 156.171395 
L 201.93205 154.161179 
L 203.704551 152.412233 
L 203.957765 152.163158 
L 204.970622 151.168824 
L 207.629373 148.573853 
L 209.148659 147.101039 
L 211.174374 145.148838 
L 211.300981 145.027268 
L 214.719374 141.764797 
L 214.719374 141.764797 
L 217.631339 139.016334 
L 219.277233 137.475497 
L 219.783661 137.003243 
L 223.202055 133.838417 
L 223.961698 133.14056 
L 227.00027 130.368999 
L 230.038842 127.629322 
L 230.292056 127.402458 
L 233.330628 124.697401 
L 234.090271 124.026132 
L 236.622415 121.80299 
L 238.015094 120.589709 
L 242.952773 116.34194 
L 242.952773 116.34194 
L 249.283132 111.018192 
L 255.61349 105.829957 
L 261.943849 100.774936 
L 268.274207 95.850461 
L 274.604566 91.053591 
L 280.934924 86.381203 
L 287.265283 81.830047 
L 293.595641 77.396801 
L 299.926 73.078108 
L 306.256358 68.870609 
L 306.256358 68.870609 
L 312.586717 64.770961 
L 318.917075 60.775859 
L 325.247434 56.882049 
L 331.577792 53.086338 
L 337.908151 49.385601 
L 344.238509 45.776786 
L 350.568868 42.256918 
L 356.899226 38.823103 
L 363.229585 35.472524 
L 369.559943 32.202448 
L 369.559943 32.202448 
" style="fill:none;stroke:#0000ff;stroke-dasharray:5.55,2.4;stroke-dashoffset:0;stroke-width:1.5;"/>
   </g>
   <g id="line2d_23">
    <path clip-path="url(#pa4addbdbb8)" d="M 84.693811 171.873711 
L 86.846133 182.00957 
L 88.74524 189.94319 
L 90.644348 196.943219 
L 92.416848 202.675781 
L 94.189349 207.687256 
L 95.961849 212.033366 
L 97.734349 215.770348 
L 99.380243 218.742588 
L 101.026136 221.277746 
L 102.672029 223.414285 
L 104.317922 225.187782 
L 105.963816 226.630933 
L 107.609709 227.77365 
L 109.255602 228.643222 
L 110.901495 229.264489 
L 112.547388 229.660037 
L 114.319889 229.857074 
L 116.218996 229.830369 
L 118.118104 229.582664 
L 120.143819 229.100659 
L 122.422748 228.319852 
L 124.828284 227.254771 
L 127.487034 225.827654 
L 130.398999 224.006492 
L 133.690786 221.674255 
L 137.362394 218.79094 
L 141.54043 215.220751 
L 146.47811 210.697088 
L 152.428647 204.930823 
L 160.278291 196.990959 
L 173.698651 183.040084 
L 190.664012 165.486204 
L 201.805443 154.28616 
L 211.80741 144.541202 
L 221.429554 135.474138 
L 230.798485 126.949078 
L 240.040808 118.836565 
L 249.283132 111.01787 
L 258.525455 103.487931 
L 267.894386 96.141973 
L 277.389924 88.982265 
L 286.885461 82.099426 
L 296.634213 75.309406 
L 306.509573 68.70424 
L 316.511539 62.281554 
L 326.76672 55.961914 
L 337.148508 49.824438 
L 347.78351 43.794549 
L 358.671727 37.876328 
L 369.433336 32.266735 
L 369.433336 32.266735 
" style="fill:none;stroke:#ff0000;stroke-linecap:square;stroke-width:1.5;"/>
   </g>
   <g id="line2d_24">
    <path clip-path="url(#pa4addbdbb8)" d="M 73.932202 119.157624 
L 78.363452 136.958624 
L 83.554346 166.036482 
L 84.060775 168.668659 
L 84.693811 171.873346 
L 84.693811 171.873346 
L 84.693811 171.873346 
L 84.820418 172.502484 
L 87.605776 185.296629 
L 90.264526 195.615591 
L 90.391134 196.061992 
L 90.517741 196.504415 
L 90.770955 197.377394 
L 91.024169 198.234666 
L 92.543456 203.056676 
L 95.202206 210.248265 
L 95.45542 210.855891 
L 96.088456 212.319512 
L 97.354528 215.017759 
L 99.253636 218.529667 
L 100.013279 219.7669 
L 102.925243 223.709606 
L 103.684886 224.546184 
L 105.33078 226.112706 
L 106.470244 227.012925 
L 106.596851 227.104152 
L 110.015245 228.95911 
L 110.521674 229.141655 
L 111.154709 229.339212 
L 116.345603 229.820184 
L 116.345603 229.820184 
L 122.675962 228.218549 
L 122.675962 228.218549 
L 129.00632 224.908206 
L 135.336679 220.414695 
L 141.667037 215.108227 
L 147.997396 209.252495 
L 154.327754 203.037242 
L 160.658113 196.60018 
L 166.988471 190.041933 
L 166.988471 190.041933 
L 173.31883 183.436365 
L 179.649188 176.837822 
L 179.649188 176.837822 
L 182.181332 174.209715 
L 184.586868 171.721947 
L 185.346511 170.938403 
L 185.979547 170.286267 
L 186.232761 170.025626 
L 190.917226 165.227806 
L 192.309905 163.810973 
L 192.309905 163.810973 
L 193.069548 163.040142 
L 195.854906 160.226313 
L 196.487942 159.589652 
L 196.614549 159.46245 
L 198.260442 157.812822 
L 198.640264 157.433209 
L 199.906336 156.170789 
L 201.93205 154.160571 
L 203.704551 152.411623 
L 203.957765 152.162548 
L 204.970622 151.168213 
L 207.629373 148.573239 
L 209.148659 147.100424 
L 211.174374 145.148221 
L 211.300981 145.026651 
L 214.719374 141.764177 
L 214.719374 141.764177 
L 217.631339 139.015711 
L 219.277233 137.474874 
L 219.783661 137.002619 
L 223.202055 133.83779 
L 223.961698 133.139933 
L 227.00027 130.368369 
L 230.038842 127.62869 
L 230.292056 127.401825 
L 233.330628 124.696766 
L 234.090271 124.025497 
L 236.622415 121.802353 
L 238.015094 120.589071 
L 242.952773 116.341298 
L 242.952773 116.341298 
L 249.283132 111.017547 
L 255.61349 105.829308 
L 261.943849 100.774285 
L 268.274207 95.849806 
L 274.604566 91.052934 
L 280.934924 86.380543 
L 287.265283 81.829384 
L 293.595641 77.396136 
L 299.926 73.077442 
L 306.256358 68.86994 
L 306.256358 68.86994 
L 312.586717 64.77029 
L 318.917075 60.775186 
L 325.247434 56.881375 
L 331.577792 53.085662 
L 337.908151 49.384923 
L 344.238509 45.776106 
L 350.568868 42.256237 
L 356.899226 38.82242 
L 363.229585 35.471839 
L 369.559943 32.201761 
L 369.559943 32.201761 
" style="fill:none;stroke:#ff0000;stroke-dasharray:5.55,2.4;stroke-dashoffset:0;stroke-width:1.5;"/>
   </g>
   <g id="line2d_25">
    <path clip-path="url(#pa4addbdbb8)" d="M 73.932202 119.158321 
L 78.363452 136.959374 
L 83.554346 166.037217 
L 84.060775 168.669392 
L 84.693811 171.874075 
L 84.693811 171.874075 
L 84.693811 171.874075 
L 84.820418 172.503211 
L 87.605776 185.297336 
L 90.264526 195.616278 
L 90.391134 196.062679 
L 90.517741 196.505101 
L 90.770955 197.378078 
L 91.024169 198.235348 
L 92.543456 203.057346 
L 95.202206 210.248917 
L 95.45542 210.856541 
L 96.088456 212.320158 
L 97.354528 215.018396 
L 99.253636 218.530294 
L 100.013279 219.767521 
L 102.925243 223.710212 
L 103.684886 224.546786 
L 105.33078 226.1133 
L 106.470244 227.013515 
L 106.596851 227.104742 
L 110.015245 228.959686 
L 110.521674 229.142229 
L 111.154709 229.339784 
L 116.345603 229.820743 
L 116.345603 229.820743 
L 122.675962 228.219097 
L 122.675962 228.219097 
L 129.00632 224.908749 
L 135.336679 220.415238 
L 141.667037 215.108772 
L 147.997396 209.253044 
L 154.327754 203.037798 
L 160.658113 196.600742 
L 166.988471 190.042502 
L 166.988471 190.042502 
L 173.31883 183.436942 
L 179.649188 176.838406 
L 179.649188 176.838406 
L 182.181332 174.210302 
L 184.586868 171.722536 
L 185.346511 170.938994 
L 185.979547 170.286858 
L 186.232761 170.026217 
L 190.917226 165.228402 
L 192.309905 163.81157 
L 192.309905 163.81157 
L 193.069548 163.04074 
L 195.854906 160.226915 
L 196.487942 159.590255 
L 196.614549 159.463052 
L 198.260442 157.813426 
L 198.640264 157.433814 
L 199.906336 156.171395 
L 201.93205 154.161179 
L 203.704551 152.412233 
L 203.957765 152.163158 
L 204.970622 151.168824 
L 207.629373 148.573853 
L 209.148659 147.101039 
L 211.174374 145.148838 
L 211.300981 145.027268 
L 214.719374 141.764797 
L 214.719374 141.764797 
L 217.631339 139.016334 
L 219.277233 137.475497 
L 219.783661 137.003243 
L 223.202055 133.838417 
L 223.961698 133.14056 
L 227.00027 130.368999 
L 230.038842 127.629322 
L 230.292056 127.402458 
L 233.330628 124.697401 
L 234.090271 124.026132 
L 236.622415 121.80299 
L 238.015094 120.589709 
L 242.952773 116.34194 
L 242.952773 116.34194 
L 249.283132 111.018192 
L 255.61349 105.829957 
L 261.943849 100.774936 
L 268.274207 95.850461 
L 274.604566 91.053591 
L 280.934924 86.381203 
L 287.265283 81.830047 
L 293.595641 77.396801 
L 299.926 73.078108 
L 306.256358 68.870609 
L 306.256358 68.870609 
L 312.586717 64.770961 
L 318.917075 60.775859 
L 325.247434 56.882049 
L 331.577792 53.086338 
L 337.908151 49.385601 
L 344.238509 45.776786 
L 350.568868 42.256918 
L 356.899226 38.823103 
L 363.229585 35.472524 
L 369.559943 32.202448 
L 369.559943 32.202448 
" style="fill:none;stroke:#ff0000;stroke-dasharray:5.55,2.4;stroke-dashoffset:0;stroke-width:1.5;"/>
   </g>
   <g id="line2d_26">
    <defs>
     <path d="M 0 3 
C 0.795609 3 1.55874 2.683901 2.12132 2.12132 
C 2.683901 1.55874 3 0.795609 3 0 
C 3 -0.795609 2.683901 -1.55874 2.12132 -2.12132 
C 1.55874 -2.683901 0.795609 -3 0 -3 
C -0.795609 -3 -1.55874 -2.683901 -2.12132 -2.12132 
C -2.683901 -1.55874 -3 -0.795609 -3 0 
C -3 0.795609 -2.683901 1.55874 -2.12132 2.12132 
C -1.55874 2.683901 -0.795609 3 0 3 
z
" id="me8537e71ca" style="stroke:#000000;"/>
    </defs>
    <g clip-path="url(#pa4addbdbb8)">
     <use style="stroke:#000000;" x="207.629373" xlink:href="#me8537e71ca" y="109.754989"/>
     <use style="stroke:#000000;" x="203.957765" xlink:href="#me8537e71ca" y="114.597961"/>
     <use style="stroke:#000000;" x="199.906336" xlink:href="#me8537e71ca" y="119.836702"/>
     <use style="stroke:#000000;" x="196.487942" xlink:href="#me8537e71ca" y="124.067175"/>
     <use style="stroke:#000000;" x="193.069548" xlink:href="#me8537e71ca" y="130.180266"/>
     <use style="stroke:#000000;" x="185.346511" xlink:href="#me8537e71ca" y="127.050918"/>
     <use style="stroke:#000000;" x="184.586868" xlink:href="#me8537e71ca" y="130.180266"/>
     <use style="stroke:#000000;" x="182.181332" xlink:href="#me8537e71ca" y="136.937976"/>
     <use style="stroke:#000000;" x="190.917226" xlink:href="#me8537e71ca" y="127.050918"/>
     <use style="stroke:#000000;" x="214.719374" xlink:href="#me8537e71ca" y="104.174173"/>
     <use style="stroke:#000000;" x="186.232761" xlink:href="#me8537e71ca" y="133.470163"/>
     <use style="stroke:#000000;" x="192.309905" xlink:href="#me8537e71ca" y="130.180266"/>
     <use style="stroke:#000000;" x="195.854906" xlink:href="#me8537e71ca" y="125.541697"/>
     <use style="stroke:#000000;" x="201.93205" xlink:href="#me8537e71ca" y="119.836702"/>
     <use style="stroke:#000000;" x="209.148659" xlink:href="#me8537e71ca" y="113.352506"/>
     <use style="stroke:#000000;" x="223.202055" xlink:href="#me8537e71ca" y="96.146344"/>
     <use style="stroke:#000000;" x="214.719374" xlink:href="#me8537e71ca" y="102.071069"/>
     <use style="stroke:#000000;" x="219.783661" xlink:href="#me8537e71ca" y="99.04032"/>
     <use style="stroke:#000000;" x="227.00027" xlink:href="#me8537e71ca" y="86.529346"/>
     <use style="stroke:#000000;" x="230.038842" xlink:href="#me8537e71ca" y="96.146344"/>
     <use style="stroke:#000000;" x="233.330628" xlink:href="#me8537e71ca" y="99.04032"/>
     <use style="stroke:#000000;" x="238.015094" xlink:href="#me8537e71ca" y="84.138799"/>
     <use style="stroke:#000000;" x="196.614549" xlink:href="#me8537e71ca" y="122.62579"/>
     <use style="stroke:#000000;" x="234.090271" xlink:href="#me8537e71ca" y="90.722925"/>
     <use style="stroke:#000000;" x="219.277233" xlink:href="#me8537e71ca" y="99.04032"/>
     <use style="stroke:#000000;" x="211.174374" xlink:href="#me8537e71ca" y="114.597961"/>
     <use style="stroke:#000000;" x="203.704551" xlink:href="#me8537e71ca" y="119.836702"/>
     <use style="stroke:#000000;" x="198.260442" xlink:href="#me8537e71ca" y="125.541697"/>
     <use style="stroke:#000000;" x="90.770955" xlink:href="#me8537e71ca" y="213.568343"/>
     <use style="stroke:#000000;" x="106.596851" xlink:href="#me8537e71ca" y="203.262349"/>
     <use style="stroke:#000000;" x="100.013279" xlink:href="#me8537e71ca" y="208.47977"/>
     <use style="stroke:#000000;" x="95.45542" xlink:href="#me8537e71ca" y="211.826908"/>
     <use style="stroke:#000000;" x="87.605776" xlink:href="#me8537e71ca" y="211.25678"/>
     <use style="stroke:#000000;" x="84.060775" xlink:href="#me8537e71ca" y="213.568343"/>
     <use style="stroke:#000000;" x="84.693811" xlink:href="#me8537e71ca" y="221.049308"/>
     <use style="stroke:#000000;" x="84.693811" xlink:href="#me8537e71ca" y="219.870009"/>
     <use style="stroke:#000000;" x="90.391134" xlink:href="#me8537e71ca" y="217.825568"/>
     <use style="stroke:#000000;" x="92.543456" xlink:href="#me8537e71ca" y="216.580113"/>
     <use style="stroke:#000000;" x="96.088456" xlink:href="#me8537e71ca" y="212.402149"/>
     <use style="stroke:#000000;" x="102.925243" xlink:href="#me8537e71ca" y="209.576188"/>
     <use style="stroke:#000000;" x="106.470244" xlink:href="#me8537e71ca" y="206.341608"/>
     <use style="stroke:#000000;" x="110.521674" xlink:href="#me8537e71ca" y="203.262349"/>
     <use style="stroke:#000000;" x="111.154709" xlink:href="#me8537e71ca" y="199.847303"/>
     <use style="stroke:#000000;" x="83.554346" xlink:href="#me8537e71ca" y="204.783501"/>
     <use style="stroke:#000000;" x="84.820418" xlink:href="#me8537e71ca" y="209.576188"/>
     <use style="stroke:#000000;" x="90.264526" xlink:href="#me8537e71ca" y="214.159489"/>
     <use style="stroke:#000000;" x="95.202206" xlink:href="#me8537e71ca" y="216.580113"/>
     <use style="stroke:#000000;" x="99.253636" xlink:href="#me8537e71ca" y="214.756135"/>
     <use style="stroke:#000000;" x="105.33078" xlink:href="#me8537e71ca" y="212.402149"/>
     <use style="stroke:#000000;" x="65.196307" xlink:href="#me8537e71ca" y="90.636309"/>
     <use style="stroke:#000000;" x="66.968807" xlink:href="#me8537e71ca" y="103.324639"/>
     <use style="stroke:#000000;" x="73.932202" xlink:href="#me8537e71ca" y="173.054219"/>
     <use style="stroke:#000000;" x="90.517741" xlink:href="#me8537e71ca" y="214.756135"/>
    </g>
   </g>
   <g id="patch_3">
    <path d="M 49.978125 239.758125 
L 49.978125 22.318125 
" style="fill:none;stroke:#000000;stroke-linecap:square;stroke-linejoin:miter;stroke-width:0.8;"/>
   </g>
   <g id="patch_4">
    <path d="M 384.778125 239.758125 
L 384.778125 22.318125 
" style="fill:none;stroke:#000000;stroke-linecap:square;stroke-linejoin:miter;stroke-width:0.8;"/>
   </g>
   <g id="patch_5">
    <path d="M 49.978125 239.758125 
L 384.778125 239.758125 
" style="fill:none;stroke:#000000;stroke-linecap:square;stroke-linejoin:miter;stroke-width:0.8;"/>
   </g>
   <g id="patch_6">
    <path d="M 49.978125 22.318125 
L 384.778125 22.318125 
" style="fill:none;stroke:#000000;stroke-linecap:square;stroke-linejoin:miter;stroke-width:0.8;"/>
   </g>
   <g id="text_11">
    <!-- H2O2 + OH &lt;=&gt; H2O + HO2 -->
    <defs>
     <path d="M 9.8125 72.90625 
L 19.671875 72.90625 
L 19.671875 43.015625 
L 55.515625 43.015625 
L 55.515625 72.90625 
L 65.375 72.90625 
L 65.375 0 
L 55.515625 0 
L 55.515625 34.71875 
L 19.671875 34.71875 
L 19.671875 0 
L 9.8125 0 
z
" id="DejaVuSans-72"/>
     <path d="M 39.40625 66.21875 
Q 28.65625 66.21875 22.328125 58.203125 
Q 16.015625 50.203125 16.015625 36.375 
Q 16.015625 22.609375 22.328125 14.59375 
Q 28.65625 6.59375 39.40625 6.59375 
Q 50.140625 6.59375 56.421875 14.59375 
Q 62.703125 22.609375 62.703125 36.375 
Q 62.703125 50.203125 56.421875 58.203125 
Q 50.140625 66.21875 39.40625 66.21875 
z
M 39.40625 74.21875 
Q 54.734375 74.21875 63.90625 63.9375 
Q 73.09375 53.65625 73.09375 36.375 
Q 73.09375 19.140625 63.90625 8.859375 
Q 54.734375 -1.421875 39.40625 -1.421875 
Q 24.03125 -1.421875 14.8125 8.828125 
Q 5.609375 19.09375 5.609375 36.375 
Q 5.609375 53.65625 14.8125 63.9375 
Q 24.03125 74.21875 39.40625 74.21875 
z
" id="DejaVuSans-79"/>
     <path d="M 46 62.703125 
L 46 35.5 
L 73.1875 35.5 
L 73.1875 27.203125 
L 46 27.203125 
L 46 0 
L 37.796875 0 
L 37.796875 27.203125 
L 10.59375 27.203125 
L 10.59375 35.5 
L 37.796875 35.5 
L 37.796875 62.703125 
z
" id="DejaVuSans-43"/>
     <path d="M 73.1875 49.21875 
L 22.796875 31.296875 
L 73.1875 13.484375 
L 73.1875 4.59375 
L 10.59375 27.296875 
L 10.59375 35.40625 
L 73.1875 58.109375 
z
" id="DejaVuSans-60"/>
     <path d="M 10.59375 45.40625 
L 73.1875 45.40625 
L 73.1875 37.203125 
L 10.59375 37.203125 
z
M 10.59375 25.484375 
L 73.1875 25.484375 
L 73.1875 17.1875 
L 10.59375 17.1875 
z
" id="DejaVuSans-61"/>
     <path d="M 10.59375 49.21875 
L 10.59375 58.109375 
L 73.1875 35.40625 
L 73.1875 27.296875 
L 10.59375 4.59375 
L 10.59375 13.484375 
L 60.890625 31.296875 
z
" id="DejaVuSans-62"/>
    </defs>
    <g transform="translate(128.586562 16.318125)scale(0.12 -0.12)">
     <use xlink:href="#DejaVuSans-72"/>
     <use x="75.195312" xlink:href="#DejaVuSans-50"/>
     <use x="138.818359" xlink:href="#DejaVuSans-79"/>
     <use x="217.529297" xlink:href="#DejaVuSans-50"/>
     <use x="281.152344" xlink:href="#DejaVuSans-32"/>
     <use x="312.939453" xlink:href="#DejaVuSans-43"/>
     <use x="396.728516" xlink:href="#DejaVuSans-32"/>
     <use x="428.515625" xlink:href="#DejaVuSans-79"/>
     <use x="507.226562" xlink:href="#DejaVuSans-72"/>
     <use x="582.421875" xlink:href="#DejaVuSans-32"/>
     <use x="614.208984" xlink:href="#DejaVuSans-60"/>
     <use x="697.998047" xlink:href="#DejaVuSans-61"/>
     <use x="781.787109" xlink:href="#DejaVuSans-62"/>
     <use x="865.576172" xlink:href="#DejaVuSans-32"/>
     <use x="897.363281" xlink:href="#DejaVuSans-72"/>
     <use x="972.558594" xlink:href="#DejaVuSans-50"/>
     <use x="1036.181641" xlink:href="#DejaVuSans-79"/>
     <use x="1114.892578" xlink:href="#DejaVuSans-32"/>
     <use x="1146.679688" xlink:href="#DejaVuSans-43"/>
     <use x="1230.46875" xlink:href="#DejaVuSans-32"/>
     <use x="1262.255859" xlink:href="#DejaVuSans-72"/>
     <use x="1337.451172" xlink:href="#DejaVuSans-79"/>
     <use x="1416.162109" xlink:href="#DejaVuSans-50"/>
    </g>
   </g>
  </g>
 </g>
 <defs>
  <clipPath id="pa4addbdbb8">
   <rect height="217.44" width="334.8" x="49.978125" y="22.318125"/>
  </clipPath>
 </defs>
</svg>
