<?xml version="1.0" encoding="utf-8" standalone="no"?>
<!DOCTYPE svg PUBLIC "-//W3C//DTD SVG 1.1//EN"
  "http://www.w3.org/Graphics/SVG/1.1/DTD/svg11.dtd">
<!-- Created with matplotlib (https://matplotlib.org/) -->
<svg height="277.314375pt" version="1.1" viewBox="0 0 395.64375 277.314375" width="395.64375pt" xmlns="http://www.w3.org/2000/svg" xmlns:xlink="http://www.w3.org/1999/xlink">
 <defs>
  <style type="text/css">
*{stroke-linecap:butt;stroke-linejoin:round;}
  </style>
 </defs>
 <g id="figure_1">
  <g id="patch_1">
   <path d="M 0 277.314375 
L 395.64375 277.314375 
L 395.64375 0 
L 0 0 
z
" style="fill:none;"/>
  </g>
  <g id="axes_1">
   <g id="patch_2">
    <path d="M 50.14375 239.758125 
L 384.94375 239.758125 
L 384.94375 22.318125 
L 50.14375 22.318125 
z
" style="fill:none;"/>
   </g>
   <g id="matplotlib.axis_1">
    <g id="xtick_1">
     <g id="line2d_1">
      <defs>
       <path d="M 0 0 
L 0 3.5 
" id="mb9a613b494" style="stroke:#000000;stroke-width:0.8;"/>
      </defs>
      <g>
       <use style="stroke:#000000;stroke-width:0.8;" x="65.361932" xlink:href="#mb9a613b494" y="239.758125"/>
      </g>
     </g>
     <g id="text_1">
      <!-- 0.00 -->
      <defs>
       <path d="M 31.78125 66.40625 
Q 24.171875 66.40625 20.328125 58.90625 
Q 16.5 51.421875 16.5 36.375 
Q 16.5 21.390625 20.328125 13.890625 
Q 24.171875 6.390625 31.78125 6.390625 
Q 39.453125 6.390625 43.28125 13.890625 
Q 47.125 21.390625 47.125 36.375 
Q 47.125 51.421875 43.28125 58.90625 
Q 39.453125 66.40625 31.78125 66.40625 
z
M 31.78125 74.21875 
Q 44.046875 74.21875 50.515625 64.515625 
Q 56.984375 54.828125 56.984375 36.375 
Q 56.984375 17.96875 50.515625 8.265625 
Q 44.046875 -1.421875 31.78125 -1.421875 
Q 19.53125 -1.421875 13.0625 8.265625 
Q 6.59375 17.96875 6.59375 36.375 
Q 6.59375 54.828125 13.0625 64.515625 
Q 19.53125 74.21875 31.78125 74.21875 
z
" id="DejaVuSans-48"/>
       <path d="M 10.6875 12.40625 
L 21 12.40625 
L 21 0 
L 10.6875 0 
z
" id="DejaVuSans-46"/>
      </defs>
      <g transform="translate(54.229119 254.356562)scale(0.1 -0.1)">
       <use xlink:href="#DejaVuSans-48"/>
       <use x="63.623047" xlink:href="#DejaVuSans-46"/>
       <use x="95.410156" xlink:href="#DejaVuSans-48"/>
       <use x="159.033203" xlink:href="#DejaVuSans-48"/>
      </g>
     </g>
    </g>
    <g id="xtick_2">
     <g id="line2d_2">
      <g>
       <use style="stroke:#000000;stroke-width:0.8;" x="103.306719" xlink:href="#mb9a613b494" y="239.758125"/>
      </g>
     </g>
     <g id="text_2">
      <!-- 0.25 -->
      <defs>
       <path d="M 19.1875 8.296875 
L 53.609375 8.296875 
L 53.609375 0 
L 7.328125 0 
L 7.328125 8.296875 
Q 12.9375 14.109375 22.625 23.890625 
Q 32.328125 33.6875 34.8125 36.53125 
Q 39.546875 41.84375 41.421875 45.53125 
Q 43.3125 49.21875 43.3125 52.78125 
Q 43.3125 58.59375 39.234375 62.25 
Q 35.15625 65.921875 28.609375 65.921875 
Q 23.96875 65.921875 18.8125 64.3125 
Q 13.671875 62.703125 7.8125 59.421875 
L 7.8125 69.390625 
Q 13.765625 71.78125 18.9375 73 
Q 24.125 74.21875 28.421875 74.21875 
Q 39.75 74.21875 46.484375 68.546875 
Q 53.21875 62.890625 53.21875 53.421875 
Q 53.21875 48.921875 51.53125 44.890625 
Q 49.859375 40.875 45.40625 35.40625 
Q 44.1875 33.984375 37.640625 27.21875 
Q 31.109375 20.453125 19.1875 8.296875 
z
" id="DejaVuSans-50"/>
       <path d="M 10.796875 72.90625 
L 49.515625 72.90625 
L 49.515625 64.59375 
L 19.828125 64.59375 
L 19.828125 46.734375 
Q 21.96875 47.46875 24.109375 47.828125 
Q 26.265625 48.1875 28.421875 48.1875 
Q 40.625 48.1875 47.75 41.5 
Q 54.890625 34.8125 54.890625 23.390625 
Q 54.890625 11.625 47.5625 5.09375 
Q 40.234375 -1.421875 26.90625 -1.421875 
Q 22.3125 -1.421875 17.546875 -0.640625 
Q 12.796875 0.140625 7.71875 1.703125 
L 7.71875 11.625 
Q 12.109375 9.234375 16.796875 8.0625 
Q 21.484375 6.890625 26.703125 6.890625 
Q 35.15625 6.890625 40.078125 11.328125 
Q 45.015625 15.765625 45.015625 23.390625 
Q 45.015625 31 40.078125 35.4375 
Q 35.15625 39.890625 26.703125 39.890625 
Q 22.75 39.890625 18.8125 39.015625 
Q 14.890625 38.140625 10.796875 36.28125 
z
" id="DejaVuSans-53"/>
      </defs>
      <g transform="translate(92.173906 254.356562)scale(0.1 -0.1)">
       <use xlink:href="#DejaVuSans-48"/>
       <use x="63.623047" xlink:href="#DejaVuSans-46"/>
       <use x="95.410156" xlink:href="#DejaVuSans-50"/>
       <use x="159.033203" xlink:href="#DejaVuSans-53"/>
      </g>
     </g>
    </g>
    <g id="xtick_3">
     <g id="line2d_3">
      <g>
       <use style="stroke:#000000;stroke-width:0.8;" x="141.251506" xlink:href="#mb9a613b494" y="239.758125"/>
      </g>
     </g>
     <g id="text_3">
      <!-- 0.50 -->
      <g transform="translate(130.118693 254.356562)scale(0.1 -0.1)">
       <use xlink:href="#DejaVuSans-48"/>
       <use x="63.623047" xlink:href="#DejaVuSans-46"/>
       <use x="95.410156" xlink:href="#DejaVuSans-53"/>
       <use x="159.033203" xlink:href="#DejaVuSans-48"/>
      </g>
     </g>
    </g>
    <g id="xtick_4">
     <g id="line2d_4">
      <g>
       <use style="stroke:#000000;stroke-width:0.8;" x="179.196293" xlink:href="#mb9a613b494" y="239.758125"/>
      </g>
     </g>
     <g id="text_4">
      <!-- 0.75 -->
      <defs>
       <path d="M 8.203125 72.90625 
L 55.078125 72.90625 
L 55.078125 68.703125 
L 28.609375 0 
L 18.3125 0 
L 43.21875 64.59375 
L 8.203125 64.59375 
z
" id="DejaVuSans-55"/>
      </defs>
      <g transform="translate(168.063481 254.356562)scale(0.1 -0.1)">
       <use xlink:href="#DejaVuSans-48"/>
       <use x="63.623047" xlink:href="#DejaVuSans-46"/>
       <use x="95.410156" xlink:href="#DejaVuSans-55"/>
       <use x="159.033203" xlink:href="#DejaVuSans-53"/>
      </g>
     </g>
    </g>
    <g id="xtick_5">
     <g id="line2d_5">
      <g>
       <use style="stroke:#000000;stroke-width:0.8;" x="217.14108" xlink:href="#mb9a613b494" y="239.758125"/>
      </g>
     </g>
     <g id="text_5">
      <!-- 1.00 -->
      <defs>
       <path d="M 12.40625 8.296875 
L 28.515625 8.296875 
L 28.515625 63.921875 
L 10.984375 60.40625 
L 10.984375 69.390625 
L 28.421875 72.90625 
L 38.28125 72.90625 
L 38.28125 8.296875 
L 54.390625 8.296875 
L 54.390625 0 
L 12.40625 0 
z
" id="DejaVuSans-49"/>
      </defs>
      <g transform="translate(206.008268 254.356562)scale(0.1 -0.1)">
       <use xlink:href="#DejaVuSans-49"/>
       <use x="63.623047" xlink:href="#DejaVuSans-46"/>
       <use x="95.410156" xlink:href="#DejaVuSans-48"/>
       <use x="159.033203" xlink:href="#DejaVuSans-48"/>
      </g>
     </g>
    </g>
    <g id="xtick_6">
     <g id="line2d_6">
      <g>
       <use style="stroke:#000000;stroke-width:0.8;" x="255.085867" xlink:href="#mb9a613b494" y="239.758125"/>
      </g>
     </g>
     <g id="text_6">
      <!-- 1.25 -->
      <g transform="translate(243.953055 254.356562)scale(0.1 -0.1)">
       <use xlink:href="#DejaVuSans-49"/>
       <use x="63.623047" xlink:href="#DejaVuSans-46"/>
       <use x="95.410156" xlink:href="#DejaVuSans-50"/>
       <use x="159.033203" xlink:href="#DejaVuSans-53"/>
      </g>
     </g>
    </g>
    <g id="xtick_7">
     <g id="line2d_7">
      <g>
       <use style="stroke:#000000;stroke-width:0.8;" x="293.030654" xlink:href="#mb9a613b494" y="239.758125"/>
      </g>
     </g>
     <g id="text_7">
      <!-- 1.50 -->
      <g transform="translate(281.897842 254.356562)scale(0.1 -0.1)">
       <use xlink:href="#DejaVuSans-49"/>
       <use x="63.623047" xlink:href="#DejaVuSans-46"/>
       <use x="95.410156" xlink:href="#DejaVuSans-53"/>
       <use x="159.033203" xlink:href="#DejaVuSans-48"/>
      </g>
     </g>
    </g>
    <g id="xtick_8">
     <g id="line2d_8">
      <g>
       <use style="stroke:#000000;stroke-width:0.8;" x="330.975441" xlink:href="#mb9a613b494" y="239.758125"/>
      </g>
     </g>
     <g id="text_8">
      <!-- 1.75 -->
      <g transform="translate(319.842629 254.356562)scale(0.1 -0.1)">
       <use xlink:href="#DejaVuSans-49"/>
       <use x="63.623047" xlink:href="#DejaVuSans-46"/>
       <use x="95.410156" xlink:href="#DejaVuSans-55"/>
       <use x="159.033203" xlink:href="#DejaVuSans-53"/>
      </g>
     </g>
    </g>
    <g id="xtick_9">
     <g id="line2d_9">
      <g>
       <use style="stroke:#000000;stroke-width:0.8;" x="368.920228" xlink:href="#mb9a613b494" y="239.758125"/>
      </g>
     </g>
     <g id="text_9">
      <!-- 2.00 -->
      <g transform="translate(357.787416 254.356562)scale(0.1 -0.1)">
       <use xlink:href="#DejaVuSans-50"/>
       <use x="63.623047" xlink:href="#DejaVuSans-46"/>
       <use x="95.410156" xlink:href="#DejaVuSans-48"/>
       <use x="159.033203" xlink:href="#DejaVuSans-48"/>
      </g>
     </g>
    </g>
    <g id="text_10">
     <!-- Time (ms) -->
     <defs>
      <path d="M -0.296875 72.90625 
L 61.375 72.90625 
L 61.375 64.59375 
L 35.5 64.59375 
L 35.5 0 
L 25.59375 0 
L 25.59375 64.59375 
L -0.296875 64.59375 
z
" id="DejaVuSans-84"/>
      <path d="M 9.421875 54.6875 
L 18.40625 54.6875 
L 18.40625 0 
L 9.421875 0 
z
M 9.421875 75.984375 
L 18.40625 75.984375 
L 18.40625 64.59375 
L 9.421875 64.59375 
z
" id="DejaVuSans-105"/>
      <path d="M 52 44.1875 
Q 55.375 50.25 60.0625 53.125 
Q 64.75 56 71.09375 56 
Q 79.640625 56 84.28125 50.015625 
Q 88.921875 44.046875 88.921875 33.015625 
L 88.921875 0 
L 79.890625 0 
L 79.890625 32.71875 
Q 79.890625 40.578125 77.09375 44.375 
Q 74.3125 48.1875 68.609375 48.1875 
Q 61.625 48.1875 57.5625 43.546875 
Q 53.515625 38.921875 53.515625 30.90625 
L 53.515625 0 
L 44.484375 0 
L 44.484375 32.71875 
Q 44.484375 40.625 41.703125 44.40625 
Q 38.921875 48.1875 33.109375 48.1875 
Q 26.21875 48.1875 22.15625 43.53125 
Q 18.109375 38.875 18.109375 30.90625 
L 18.109375 0 
L 9.078125 0 
L 9.078125 54.6875 
L 18.109375 54.6875 
L 18.109375 46.1875 
Q 21.1875 51.21875 25.484375 53.609375 
Q 29.78125 56 35.6875 56 
Q 41.65625 56 45.828125 52.96875 
Q 50 49.953125 52 44.1875 
z
" id="DejaVuSans-109"/>
      <path d="M 56.203125 29.59375 
L 56.203125 25.203125 
L 14.890625 25.203125 
Q 15.484375 15.921875 20.484375 11.0625 
Q 25.484375 6.203125 34.421875 6.203125 
Q 39.59375 6.203125 44.453125 7.46875 
Q 49.3125 8.734375 54.109375 11.28125 
L 54.109375 2.78125 
Q 49.265625 0.734375 44.1875 -0.34375 
Q 39.109375 -1.421875 33.890625 -1.421875 
Q 20.796875 -1.421875 13.15625 6.1875 
Q 5.515625 13.8125 5.515625 26.8125 
Q 5.515625 40.234375 12.765625 48.109375 
Q 20.015625 56 32.328125 56 
Q 43.359375 56 49.78125 48.890625 
Q 56.203125 41.796875 56.203125 29.59375 
z
M 47.21875 32.234375 
Q 47.125 39.59375 43.09375 43.984375 
Q 39.0625 48.390625 32.421875 48.390625 
Q 24.90625 48.390625 20.390625 44.140625 
Q 15.875 39.890625 15.1875 32.171875 
z
" id="DejaVuSans-101"/>
      <path id="DejaVuSans-32"/>
      <path d="M 31 75.875 
Q 24.46875 64.65625 21.28125 53.65625 
Q 18.109375 42.671875 18.109375 31.390625 
Q 18.109375 20.125 21.3125 9.0625 
Q 24.515625 -2 31 -13.1875 
L 23.1875 -13.1875 
Q 15.875 -1.703125 12.234375 9.375 
Q 8.59375 20.453125 8.59375 31.390625 
Q 8.59375 42.28125 12.203125 53.3125 
Q 15.828125 64.359375 23.1875 75.875 
z
" id="DejaVuSans-40"/>
      <path d="M 44.28125 53.078125 
L 44.28125 44.578125 
Q 40.484375 46.53125 36.375 47.5 
Q 32.28125 48.484375 27.875 48.484375 
Q 21.1875 48.484375 17.84375 46.4375 
Q 14.5 44.390625 14.5 40.28125 
Q 14.5 37.15625 16.890625 35.375 
Q 19.28125 33.59375 26.515625 31.984375 
L 29.59375 31.296875 
Q 39.15625 29.25 43.1875 25.515625 
Q 47.21875 21.78125 47.21875 15.09375 
Q 47.21875 7.46875 41.1875 3.015625 
Q 35.15625 -1.421875 24.609375 -1.421875 
Q 20.21875 -1.421875 15.453125 -0.5625 
Q 10.6875 0.296875 5.421875 2 
L 5.421875 11.28125 
Q 10.40625 8.6875 15.234375 7.390625 
Q 20.0625 6.109375 24.8125 6.109375 
Q 31.15625 6.109375 34.5625 8.28125 
Q 37.984375 10.453125 37.984375 14.40625 
Q 37.984375 18.0625 35.515625 20.015625 
Q 33.0625 21.96875 24.703125 23.78125 
L 21.578125 24.515625 
Q 13.234375 26.265625 9.515625 29.90625 
Q 5.8125 33.546875 5.8125 39.890625 
Q 5.8125 47.609375 11.28125 51.796875 
Q 16.75 56 26.8125 56 
Q 31.78125 56 36.171875 55.265625 
Q 40.578125 54.546875 44.28125 53.078125 
z
" id="DejaVuSans-115"/>
      <path d="M 8.015625 75.875 
L 15.828125 75.875 
Q 23.140625 64.359375 26.78125 53.3125 
Q 30.421875 42.28125 30.421875 31.390625 
Q 30.421875 20.453125 26.78125 9.375 
Q 23.140625 -1.703125 15.828125 -13.1875 
L 8.015625 -13.1875 
Q 14.5 -2 17.703125 9.0625 
Q 20.90625 20.125 20.90625 31.390625 
Q 20.90625 42.671875 17.703125 53.65625 
Q 14.5 64.65625 8.015625 75.875 
z
" id="DejaVuSans-41"/>
     </defs>
     <g transform="translate(192.190625 268.034687)scale(0.1 -0.1)">
      <use xlink:href="#DejaVuSans-84"/>
      <use x="61.037109" xlink:href="#DejaVuSans-105"/>
      <use x="88.820312" xlink:href="#DejaVuSans-109"/>
      <use x="186.232422" xlink:href="#DejaVuSans-101"/>
      <use x="247.755859" xlink:href="#DejaVuSans-32"/>
      <use x="279.542969" xlink:href="#DejaVuSans-40"/>
      <use x="318.556641" xlink:href="#DejaVuSans-109"/>
      <use x="415.96875" xlink:href="#DejaVuSans-115"/>
      <use x="468.068359" xlink:href="#DejaVuSans-41"/>
     </g>
    </g>
   </g>
   <g id="matplotlib.axis_2">
    <g id="ytick_1">
     <g id="line2d_10">
      <defs>
       <path d="M 0 0 
L -3.5 0 
" id="mf8416e56c5" style="stroke:#000000;stroke-width:0.8;"/>
      </defs>
      <g>
       <use style="stroke:#000000;stroke-width:0.8;" x="50.14375" xlink:href="#mf8416e56c5" y="220.54814"/>
      </g>
     </g>
     <g id="text_11">
      <!-- 0.15 -->
      <g transform="translate(20.878125 224.347359)scale(0.1 -0.1)">
       <use xlink:href="#DejaVuSans-48"/>
       <use x="63.623047" xlink:href="#DejaVuSans-46"/>
       <use x="95.410156" xlink:href="#DejaVuSans-49"/>
       <use x="159.033203" xlink:href="#DejaVuSans-53"/>
      </g>
     </g>
    </g>
    <g id="ytick_2">
     <g id="line2d_11">
      <g>
       <use style="stroke:#000000;stroke-width:0.8;" x="50.14375" xlink:href="#mf8416e56c5" y="188.928601"/>
      </g>
     </g>
     <g id="text_12">
      <!-- 0.20 -->
      <g transform="translate(20.878125 192.72782)scale(0.1 -0.1)">
       <use xlink:href="#DejaVuSans-48"/>
       <use x="63.623047" xlink:href="#DejaVuSans-46"/>
       <use x="95.410156" xlink:href="#DejaVuSans-50"/>
       <use x="159.033203" xlink:href="#DejaVuSans-48"/>
      </g>
     </g>
    </g>
    <g id="ytick_3">
     <g id="line2d_12">
      <g>
       <use style="stroke:#000000;stroke-width:0.8;" x="50.14375" xlink:href="#mf8416e56c5" y="157.309062"/>
      </g>
     </g>
     <g id="text_13">
      <!-- 0.25 -->
      <g transform="translate(20.878125 161.108281)scale(0.1 -0.1)">
       <use xlink:href="#DejaVuSans-48"/>
       <use x="63.623047" xlink:href="#DejaVuSans-46"/>
       <use x="95.410156" xlink:href="#DejaVuSans-50"/>
       <use x="159.033203" xlink:href="#DejaVuSans-53"/>
      </g>
     </g>
    </g>
    <g id="ytick_4">
     <g id="line2d_13">
      <g>
       <use style="stroke:#000000;stroke-width:0.8;" x="50.14375" xlink:href="#mf8416e56c5" y="125.689523"/>
      </g>
     </g>
     <g id="text_14">
      <!-- 0.30 -->
      <defs>
       <path d="M 40.578125 39.3125 
Q 47.65625 37.796875 51.625 33 
Q 55.609375 28.21875 55.609375 21.1875 
Q 55.609375 10.40625 48.1875 4.484375 
Q 40.765625 -1.421875 27.09375 -1.421875 
Q 22.515625 -1.421875 17.65625 -0.515625 
Q 12.796875 0.390625 7.625 2.203125 
L 7.625 11.71875 
Q 11.71875 9.328125 16.59375 8.109375 
Q 21.484375 6.890625 26.8125 6.890625 
Q 36.078125 6.890625 40.9375 10.546875 
Q 45.796875 14.203125 45.796875 21.1875 
Q 45.796875 27.640625 41.28125 31.265625 
Q 36.765625 34.90625 28.71875 34.90625 
L 20.21875 34.90625 
L 20.21875 43.015625 
L 29.109375 43.015625 
Q 36.375 43.015625 40.234375 45.921875 
Q 44.09375 48.828125 44.09375 54.296875 
Q 44.09375 59.90625 40.109375 62.90625 
Q 36.140625 65.921875 28.71875 65.921875 
Q 24.65625 65.921875 20.015625 65.03125 
Q 15.375 64.15625 9.8125 62.3125 
L 9.8125 71.09375 
Q 15.4375 72.65625 20.34375 73.4375 
Q 25.25 74.21875 29.59375 74.21875 
Q 40.828125 74.21875 47.359375 69.109375 
Q 53.90625 64.015625 53.90625 55.328125 
Q 53.90625 49.265625 50.4375 45.09375 
Q 46.96875 40.921875 40.578125 39.3125 
z
" id="DejaVuSans-51"/>
      </defs>
      <g transform="translate(20.878125 129.488742)scale(0.1 -0.1)">
       <use xlink:href="#DejaVuSans-48"/>
       <use x="63.623047" xlink:href="#DejaVuSans-46"/>
       <use x="95.410156" xlink:href="#DejaVuSans-51"/>
       <use x="159.033203" xlink:href="#DejaVuSans-48"/>
      </g>
     </g>
    </g>
    <g id="ytick_5">
     <g id="line2d_14">
      <g>
       <use style="stroke:#000000;stroke-width:0.8;" x="50.14375" xlink:href="#mf8416e56c5" y="94.069984"/>
      </g>
     </g>
     <g id="text_15">
      <!-- 0.35 -->
      <g transform="translate(20.878125 97.869203)scale(0.1 -0.1)">
       <use xlink:href="#DejaVuSans-48"/>
       <use x="63.623047" xlink:href="#DejaVuSans-46"/>
       <use x="95.410156" xlink:href="#DejaVuSans-51"/>
       <use x="159.033203" xlink:href="#DejaVuSans-53"/>
      </g>
     </g>
    </g>
    <g id="ytick_6">
     <g id="line2d_15">
      <g>
       <use style="stroke:#000000;stroke-width:0.8;" x="50.14375" xlink:href="#mf8416e56c5" y="62.450445"/>
      </g>
     </g>
     <g id="text_16">
      <!-- 0.40 -->
      <defs>
       <path d="M 37.796875 64.3125 
L 12.890625 25.390625 
L 37.796875 25.390625 
z
M 35.203125 72.90625 
L 47.609375 72.90625 
L 47.609375 25.390625 
L 58.015625 25.390625 
L 58.015625 17.1875 
L 47.609375 17.1875 
L 47.609375 0 
L 37.796875 0 
L 37.796875 17.1875 
L 4.890625 17.1875 
L 4.890625 26.703125 
z
" id="DejaVuSans-52"/>
      </defs>
      <g transform="translate(20.878125 66.249664)scale(0.1 -0.1)">
       <use xlink:href="#DejaVuSans-48"/>
       <use x="63.623047" xlink:href="#DejaVuSans-46"/>
       <use x="95.410156" xlink:href="#DejaVuSans-52"/>
       <use x="159.033203" xlink:href="#DejaVuSans-48"/>
      </g>
     </g>
    </g>
    <g id="ytick_7">
     <g id="line2d_16">
      <g>
       <use style="stroke:#000000;stroke-width:0.8;" x="50.14375" xlink:href="#mf8416e56c5" y="30.830906"/>
      </g>
     </g>
     <g id="text_17">
      <!-- 0.45 -->
      <g transform="translate(20.878125 34.630125)scale(0.1 -0.1)">
       <use xlink:href="#DejaVuSans-48"/>
       <use x="63.623047" xlink:href="#DejaVuSans-46"/>
       <use x="95.410156" xlink:href="#DejaVuSans-52"/>
       <use x="159.033203" xlink:href="#DejaVuSans-53"/>
      </g>
     </g>
    </g>
    <g id="text_18">
     <!-- Absorbance215 -->
     <defs>
      <path d="M 34.1875 63.1875 
L 20.796875 26.90625 
L 47.609375 26.90625 
z
M 28.609375 72.90625 
L 39.796875 72.90625 
L 67.578125 0 
L 57.328125 0 
L 50.6875 18.703125 
L 17.828125 18.703125 
L 11.1875 0 
L 0.78125 0 
z
" id="DejaVuSans-65"/>
      <path d="M 48.6875 27.296875 
Q 48.6875 37.203125 44.609375 42.84375 
Q 40.53125 48.484375 33.40625 48.484375 
Q 26.265625 48.484375 22.1875 42.84375 
Q 18.109375 37.203125 18.109375 27.296875 
Q 18.109375 17.390625 22.1875 11.75 
Q 26.265625 6.109375 33.40625 6.109375 
Q 40.53125 6.109375 44.609375 11.75 
Q 48.6875 17.390625 48.6875 27.296875 
z
M 18.109375 46.390625 
Q 20.953125 51.265625 25.265625 53.625 
Q 29.59375 56 35.59375 56 
Q 45.5625 56 51.78125 48.09375 
Q 58.015625 40.1875 58.015625 27.296875 
Q 58.015625 14.40625 51.78125 6.484375 
Q 45.5625 -1.421875 35.59375 -1.421875 
Q 29.59375 -1.421875 25.265625 0.953125 
Q 20.953125 3.328125 18.109375 8.203125 
L 18.109375 0 
L 9.078125 0 
L 9.078125 75.984375 
L 18.109375 75.984375 
z
" id="DejaVuSans-98"/>
      <path d="M 30.609375 48.390625 
Q 23.390625 48.390625 19.1875 42.75 
Q 14.984375 37.109375 14.984375 27.296875 
Q 14.984375 17.484375 19.15625 11.84375 
Q 23.34375 6.203125 30.609375 6.203125 
Q 37.796875 6.203125 41.984375 11.859375 
Q 46.1875 17.53125 46.1875 27.296875 
Q 46.1875 37.015625 41.984375 42.703125 
Q 37.796875 48.390625 30.609375 48.390625 
z
M 30.609375 56 
Q 42.328125 56 49.015625 48.375 
Q 55.71875 40.765625 55.71875 27.296875 
Q 55.71875 13.875 49.015625 6.21875 
Q 42.328125 -1.421875 30.609375 -1.421875 
Q 18.84375 -1.421875 12.171875 6.21875 
Q 5.515625 13.875 5.515625 27.296875 
Q 5.515625 40.765625 12.171875 48.375 
Q 18.84375 56 30.609375 56 
z
" id="DejaVuSans-111"/>
      <path d="M 41.109375 46.296875 
Q 39.59375 47.171875 37.8125 47.578125 
Q 36.03125 48 33.890625 48 
Q 26.265625 48 22.1875 43.046875 
Q 18.109375 38.09375 18.109375 28.8125 
L 18.109375 0 
L 9.078125 0 
L 9.078125 54.6875 
L 18.109375 54.6875 
L 18.109375 46.1875 
Q 20.953125 51.171875 25.484375 53.578125 
Q 30.03125 56 36.53125 56 
Q 37.453125 56 38.578125 55.875 
Q 39.703125 55.765625 41.0625 55.515625 
z
" id="DejaVuSans-114"/>
      <path d="M 34.28125 27.484375 
Q 23.390625 27.484375 19.1875 25 
Q 14.984375 22.515625 14.984375 16.5 
Q 14.984375 11.71875 18.140625 8.90625 
Q 21.296875 6.109375 26.703125 6.109375 
Q 34.1875 6.109375 38.703125 11.40625 
Q 43.21875 16.703125 43.21875 25.484375 
L 43.21875 27.484375 
z
M 52.203125 31.203125 
L 52.203125 0 
L 43.21875 0 
L 43.21875 8.296875 
Q 40.140625 3.328125 35.546875 0.953125 
Q 30.953125 -1.421875 24.3125 -1.421875 
Q 15.921875 -1.421875 10.953125 3.296875 
Q 6 8.015625 6 15.921875 
Q 6 25.140625 12.171875 29.828125 
Q 18.359375 34.515625 30.609375 34.515625 
L 43.21875 34.515625 
L 43.21875 35.40625 
Q 43.21875 41.609375 39.140625 45 
Q 35.0625 48.390625 27.6875 48.390625 
Q 23 48.390625 18.546875 47.265625 
Q 14.109375 46.140625 10.015625 43.890625 
L 10.015625 52.203125 
Q 14.9375 54.109375 19.578125 55.046875 
Q 24.21875 56 28.609375 56 
Q 40.484375 56 46.34375 49.84375 
Q 52.203125 43.703125 52.203125 31.203125 
z
" id="DejaVuSans-97"/>
      <path d="M 54.890625 33.015625 
L 54.890625 0 
L 45.90625 0 
L 45.90625 32.71875 
Q 45.90625 40.484375 42.875 44.328125 
Q 39.84375 48.1875 33.796875 48.1875 
Q 26.515625 48.1875 22.3125 43.546875 
Q 18.109375 38.921875 18.109375 30.90625 
L 18.109375 0 
L 9.078125 0 
L 9.078125 54.6875 
L 18.109375 54.6875 
L 18.109375 46.1875 
Q 21.34375 51.125 25.703125 53.5625 
Q 30.078125 56 35.796875 56 
Q 45.21875 56 50.046875 50.171875 
Q 54.890625 44.34375 54.890625 33.015625 
z
" id="DejaVuSans-110"/>
      <path d="M 48.78125 52.59375 
L 48.78125 44.1875 
Q 44.96875 46.296875 41.140625 47.34375 
Q 37.3125 48.390625 33.40625 48.390625 
Q 24.65625 48.390625 19.8125 42.84375 
Q 14.984375 37.3125 14.984375 27.296875 
Q 14.984375 17.28125 19.8125 11.734375 
Q 24.65625 6.203125 33.40625 6.203125 
Q 37.3125 6.203125 41.140625 7.25 
Q 44.96875 8.296875 48.78125 10.40625 
L 48.78125 2.09375 
Q 45.015625 0.34375 40.984375 -0.53125 
Q 36.96875 -1.421875 32.421875 -1.421875 
Q 20.0625 -1.421875 12.78125 6.34375 
Q 5.515625 14.109375 5.515625 27.296875 
Q 5.515625 40.671875 12.859375 48.328125 
Q 20.21875 56 33.015625 56 
Q 37.15625 56 41.109375 55.140625 
Q 45.0625 54.296875 48.78125 52.59375 
z
" id="DejaVuSans-99"/>
     </defs>
     <g transform="translate(14.798438 170.12875)rotate(-90)scale(0.1 -0.1)">
      <use xlink:href="#DejaVuSans-65"/>
      <use x="68.408203" xlink:href="#DejaVuSans-98"/>
      <use x="131.884766" xlink:href="#DejaVuSans-115"/>
      <use x="183.984375" xlink:href="#DejaVuSans-111"/>
      <use x="245.166016" xlink:href="#DejaVuSans-114"/>
      <use x="286.279297" xlink:href="#DejaVuSans-98"/>
      <use x="349.755859" xlink:href="#DejaVuSans-97"/>
      <use x="411.035156" xlink:href="#DejaVuSans-110"/>
      <use x="474.414062" xlink:href="#DejaVuSans-99"/>
      <use x="529.394531" xlink:href="#DejaVuSans-101"/>
      <use x="590.917969" xlink:href="#DejaVuSans-50"/>
      <use x="654.541016" xlink:href="#DejaVuSans-49"/>
      <use x="718.164062" xlink:href="#DejaVuSans-53"/>
     </g>
    </g>
   </g>
   <g id="line2d_17">
    <defs>
     <path d="M 0 3 
C 0.795609 3 1.55874 2.683901 2.12132 2.12132 
C 2.683901 1.55874 3 0.795609 3 0 
C 3 -0.795609 2.683901 -1.55874 2.12132 -2.12132 
C 1.55874 -2.683901 0.795609 -3 0 -3 
C -0.795609 -3 -1.55874 -2.683901 -2.12132 -2.12132 
C -2.683901 -1.55874 -3 -0.795609 -3 0 
C -3 0.795609 -2.683901 1.55874 -2.12132 2.12132 
C -1.55874 2.683901 -0.795609 3 0 3 
z
" id="me7d2bf0979" style="stroke:#000000;"/>
    </defs>
    <g clip-path="url(#p328e9c4e63)">
     <use style="stroke:#000000;" x="65.751549" xlink:href="#me7d2bf0979" y="99.761501"/>
     <use style="stroke:#000000;" x="66.530935" xlink:href="#me7d2bf0979" y="111.144535"/>
     <use style="stroke:#000000;" x="67.699938" xlink:href="#me7d2bf0979" y="104.820627"/>
     <use style="stroke:#000000;" x="68.479324" xlink:href="#me7d2bf0979" y="99.12911"/>
     <use style="stroke:#000000;" x="70.427713" xlink:href="#me7d2bf0979" y="89.643249"/>
     <use style="stroke:#000000;" x="71.986333" xlink:href="#me7d2bf0979" y="82.054559"/>
     <use style="stroke:#000000;" x="73.155488" xlink:href="#me7d2bf0979" y="70.671525"/>
     <use style="stroke:#000000;" x="73.545105" xlink:href="#me7d2bf0979" y="66.877181"/>
     <use style="stroke:#000000;" x="75.493494" xlink:href="#me7d2bf0979" y="69.406744"/>
     <use style="stroke:#000000;" x="75.883111" xlink:href="#me7d2bf0979" y="61.185663"/>
     <use style="stroke:#000000;" x="78.221268" xlink:href="#me7d2bf0979" y="63.715227"/>
     <use style="stroke:#000000;" x="79.390271" xlink:href="#me7d2bf0979" y="55.494146"/>
     <use style="stroke:#000000;" x="81.33866" xlink:href="#me7d2bf0979" y="59.288491"/>
     <use style="stroke:#000000;" x="83.287049" xlink:href="#me7d2bf0979" y="52.332193"/>
     <use style="stroke:#000000;" x="85.235438" xlink:href="#me7d2bf0979" y="59.288491"/>
     <use style="stroke:#000000;" x="86.404441" xlink:href="#me7d2bf0979" y="51.067411"/>
     <use style="stroke:#000000;" x="87.963061" xlink:href="#me7d2bf0979" y="58.02371"/>
     <use style="stroke:#000000;" x="89.521833" xlink:href="#me7d2bf0979" y="49.802629"/>
     <use style="stroke:#000000;" x="90.301219" xlink:href="#me7d2bf0979" y="59.288491"/>
     <use style="stroke:#000000;" x="93.028994" xlink:href="#me7d2bf0979" y="53.596974"/>
     <use style="stroke:#000000;" x="93.418611" xlink:href="#me7d2bf0979" y="56.758928"/>
     <use style="stroke:#000000;" x="96.536003" xlink:href="#me7d2bf0979" y="54.229365"/>
     <use style="stroke:#000000;" x="98.094775" xlink:href="#me7d2bf0979" y="61.185663"/>
     <use style="stroke:#000000;" x="100.432781" xlink:href="#me7d2bf0979" y="58.02371"/>
     <use style="stroke:#000000;" x="101.212167" xlink:href="#me7d2bf0979" y="65.612399"/>
     <use style="stroke:#000000;" x="103.550173" xlink:href="#me7d2bf0979" y="59.920882"/>
     <use style="stroke:#000000;" x="103.939941" xlink:href="#me7d2bf0979" y="70.671525"/>
     <use style="stroke:#000000;" x="107.057333" xlink:href="#me7d2bf0979" y="63.715227"/>
     <use style="stroke:#000000;" x="107.057333" xlink:href="#me7d2bf0979" y="70.671525"/>
     <use style="stroke:#000000;" x="109.395339" xlink:href="#me7d2bf0979" y="64.980008"/>
     <use style="stroke:#000000;" x="111.343728" xlink:href="#me7d2bf0979" y="73.833479"/>
     <use style="stroke:#000000;" x="112.9025" xlink:href="#me7d2bf0979" y="65.612399"/>
     <use style="stroke:#000000;" x="114.071503" xlink:href="#me7d2bf0979" y="73.833479"/>
     <use style="stroke:#000000;" x="116.799278" xlink:href="#me7d2bf0979" y="71.303916"/>
     <use style="stroke:#000000;" x="118.357898" xlink:href="#me7d2bf0979" y="75.098261"/>
     <use style="stroke:#000000;" x="121.085673" xlink:href="#me7d2bf0979" y="74.98443"/>
     <use style="stroke:#000000;" x="122.254676" xlink:href="#me7d2bf0979" y="84.099711"/>
     <use style="stroke:#000000;" x="124.982451" xlink:href="#me7d2bf0979" y="77.262934"/>
     <use style="stroke:#000000;" x="125.761837" xlink:href="#me7d2bf0979" y="84.099711"/>
     <use style="stroke:#000000;" x="127.320457" xlink:href="#me7d2bf0979" y="80.681639"/>
     <use style="stroke:#000000;" x="129.658463" xlink:href="#me7d2bf0979" y="86.378847"/>
     <use style="stroke:#000000;" x="130.827162" xlink:href="#me7d2bf0979" y="79.542071"/>
     <use style="stroke:#000000;" x="131.99738" xlink:href="#me7d2bf0979" y="88.657351"/>
     <use style="stroke:#000000;" x="133.166079" xlink:href="#me7d2bf0979" y="82.960143"/>
     <use style="stroke:#000000;" x="133.554634" xlink:href="#me7d2bf0979" y="92.076056"/>
     <use style="stroke:#000000;" x="137.452322" xlink:href="#me7d2bf0979" y="87.518416"/>
     <use style="stroke:#000000;" x="137.452322" xlink:href="#me7d2bf0979" y="94.35456"/>
     <use style="stroke:#000000;" x="140.959938" xlink:href="#me7d2bf0979" y="87.518416"/>
     <use style="stroke:#000000;" x="140.959938" xlink:href="#me7d2bf0979" y="95.494128"/>
     <use style="stroke:#000000;" x="144.075964" xlink:href="#me7d2bf0979" y="93.215624"/>
     <use style="stroke:#000000;" x="144.856109" xlink:href="#me7d2bf0979" y="101.191337"/>
     <use style="stroke:#000000;" x="149.922497" xlink:href="#me7d2bf0979" y="97.773264"/>
     <use style="stroke:#000000;" x="150.311052" xlink:href="#me7d2bf0979" y="103.470473"/>
     <use style="stroke:#000000;" x="154.597295" xlink:href="#me7d2bf0979" y="103.470473"/>
     <use style="stroke:#000000;" x="154.597295" xlink:href="#me7d2bf0979" y="109.167682"/>
     <use style="stroke:#000000;" x="157.326284" xlink:href="#me7d2bf0979" y="105.748977"/>
     <use style="stroke:#000000;" x="158.104911" xlink:href="#me7d2bf0979" y="113.725322"/>
     <use style="stroke:#000000;" x="162.001082" xlink:href="#me7d2bf0979" y="108.028113"/>
     <use style="stroke:#000000;" x="162.001082" xlink:href="#me7d2bf0979" y="118.282962"/>
     <use style="stroke:#000000;" x="164.730071" xlink:href="#me7d2bf0979" y="111.446186"/>
     <use style="stroke:#000000;" x="165.118625" xlink:href="#me7d2bf0979" y="118.282962"/>
     <use style="stroke:#000000;" x="169.016314" xlink:href="#me7d2bf0979" y="112.585754"/>
     <use style="stroke:#000000;" x="169.404868" xlink:href="#me7d2bf0979" y="122.840603"/>
     <use style="stroke:#000000;" x="172.522412" xlink:href="#me7d2bf0979" y="119.42253"/>
     <use style="stroke:#000000;" x="173.692629" xlink:href="#me7d2bf0979" y="123.980171"/>
     <use style="stroke:#000000;" x="177.198728" xlink:href="#me7d2bf0979" y="121.701667"/>
     <use style="stroke:#000000;" x="177.198728" xlink:href="#me7d2bf0979" y="129.677379"/>
     <use style="stroke:#000000;" x="180.316271" xlink:href="#me7d2bf0979" y="127.398875"/>
     <use style="stroke:#000000;" x="182.655188" xlink:href="#me7d2bf0979" y="131.956516"/>
     <use style="stroke:#000000;" x="186.941431" xlink:href="#me7d2bf0979" y="130.816948"/>
     <use style="stroke:#000000;" x="187.720058" xlink:href="#me7d2bf0979" y="136.514156"/>
     <use style="stroke:#000000;" x="190.058975" xlink:href="#me7d2bf0979" y="130.816948"/>
     <use style="stroke:#000000;" x="190.44753" xlink:href="#me7d2bf0979" y="139.932861"/>
     <use style="stroke:#000000;" x="194.73529" xlink:href="#me7d2bf0979" y="136.514156"/>
     <use style="stroke:#000000;" x="195.90399" xlink:href="#me7d2bf0979" y="143.350933"/>
     <use style="stroke:#000000;" x="199.021534" xlink:href="#me7d2bf0979" y="139.932861"/>
     <use style="stroke:#000000;" x="200.96886" xlink:href="#me7d2bf0979" y="146.769005"/>
     <use style="stroke:#000000;" x="202.917704" xlink:href="#me7d2bf0979" y="142.211365"/>
     <use style="stroke:#000000;" x="206.035248" xlink:href="#me7d2bf0979" y="152.466213"/>
     <use style="stroke:#000000;" x="209.152792" xlink:href="#me7d2bf0979" y="146.769005"/>
     <use style="stroke:#000000;" x="209.931419" xlink:href="#me7d2bf0979" y="152.466213"/>
     <use style="stroke:#000000;" x="212.660408" xlink:href="#me7d2bf0979" y="147.908573"/>
     <use style="stroke:#000000;" x="214.607734" xlink:href="#me7d2bf0979" y="155.884918"/>
     <use style="stroke:#000000;" x="216.946651" xlink:href="#me7d2bf0979" y="152.466213"/>
     <use style="stroke:#000000;" x="219.674122" xlink:href="#me7d2bf0979" y="158.163422"/>
     <use style="stroke:#000000;" x="221.232894" xlink:href="#me7d2bf0979" y="151.327278"/>
     <use style="stroke:#000000;" x="222.011521" xlink:href="#me7d2bf0979" y="162.721695"/>
     <use style="stroke:#000000;" x="227.077909" xlink:href="#me7d2bf0979" y="160.442558"/>
     <use style="stroke:#000000;" x="229.80538" xlink:href="#me7d2bf0979" y="168.418903"/>
     <use style="stroke:#000000;" x="231.754225" xlink:href="#me7d2bf0979" y="161.582127"/>
     <use style="stroke:#000000;" x="232.532852" xlink:href="#me7d2bf0979" y="167.279335"/>
     <use style="stroke:#000000;" x="234.871768" xlink:href="#me7d2bf0979" y="163.860631"/>
     <use style="stroke:#000000;" x="237.209167" xlink:href="#me7d2bf0979" y="171.836975"/>
     <use style="stroke:#000000;" x="240.716783" xlink:href="#me7d2bf0979" y="166.139767"/>
     <use style="stroke:#000000;" x="244.612954" xlink:href="#me7d2bf0979" y="179.81332"/>
     <use style="stroke:#000000;" x="246.561798" xlink:href="#me7d2bf0979" y="169.557839"/>
     <use style="stroke:#000000;" x="248.12057" xlink:href="#me7d2bf0979" y="180.952256"/>
     <use style="stroke:#000000;" x="252.796886" xlink:href="#me7d2bf0979" y="175.255048"/>
     <use style="stroke:#000000;" x="255.134285" xlink:href="#me7d2bf0979" y="187.789033"/>
     <use style="stroke:#000000;" x="259.420528" xlink:href="#me7d2bf0979" y="183.231393"/>
     <use style="stroke:#000000;" x="260.200673" xlink:href="#me7d2bf0979" y="191.207737"/>
     <use style="stroke:#000000;" x="262.928144" xlink:href="#me7d2bf0979" y="186.649465"/>
     <use style="stroke:#000000;" x="264.486916" xlink:href="#me7d2bf0979" y="194.62581"/>
     <use style="stroke:#000000;" x="267.60446" xlink:href="#me7d2bf0979" y="188.928601"/>
     <use style="stroke:#000000;" x="269.163231" xlink:href="#me7d2bf0979" y="195.765378"/>
     <use style="stroke:#000000;" x="271.50063" xlink:href="#me7d2bf0979" y="193.486241"/>
     <use style="stroke:#000000;" x="272.66933" xlink:href="#me7d2bf0979" y="199.18345"/>
     <use style="stroke:#000000;" x="277.345645" xlink:href="#me7d2bf0979" y="196.904946"/>
     <use style="stroke:#000000;" x="277.735718" xlink:href="#me7d2bf0979" y="202.602155"/>
     <use style="stroke:#000000;" x="282.021961" xlink:href="#me7d2bf0979" y="200.323018"/>
     <use style="stroke:#000000;" x="283.580733" xlink:href="#me7d2bf0979" y="207.159795"/>
     <use style="stroke:#000000;" x="285.919649" xlink:href="#me7d2bf0979" y="201.462586"/>
     <use style="stroke:#000000;" x="287.478421" xlink:href="#me7d2bf0979" y="210.577867"/>
     <use style="stroke:#000000;" x="289.425748" xlink:href="#me7d2bf0979" y="206.020227"/>
     <use style="stroke:#000000;" x="290.98452" xlink:href="#me7d2bf0979" y="212.857003"/>
     <use style="stroke:#000000;" x="295.270763" xlink:href="#me7d2bf0979" y="207.159795"/>
     <use style="stroke:#000000;" x="296.829535" xlink:href="#me7d2bf0979" y="212.857003"/>
     <use style="stroke:#000000;" x="299.557006" xlink:href="#me7d2bf0979" y="207.159795"/>
     <use style="stroke:#000000;" x="301.115778" xlink:href="#me7d2bf0979" y="218.554212"/>
     <use style="stroke:#000000;" x="303.844767" xlink:href="#me7d2bf0979" y="212.857003"/>
     <use style="stroke:#000000;" x="304.233321" xlink:href="#me7d2bf0979" y="217.414644"/>
     <use style="stroke:#000000;" x="306.572238" xlink:href="#me7d2bf0979" y="220.832716"/>
     <use style="stroke:#000000;" x="306.960793" xlink:href="#me7d2bf0979" y="216.275076"/>
     <use style="stroke:#000000;" x="307.350865" xlink:href="#me7d2bf0979" y="213.996572"/>
    </g>
   </g>
   <g id="line2d_18">
    <path clip-path="url(#p328e9c4e63)" d="M 65.361932 107.854884 
L 65.482624 107.796263 
L 65.666001 107.393496 
L 66.041096 105.926762 
L 67.167047 100.249562 
L 69.080029 91.047484 
L 70.673332 84.381392 
L 72.109897 79.175354 
L 73.548715 74.709691 
L 74.987533 70.957022 
L 76.426351 67.867276 
L 77.865169 65.381965 
L 79.016223 63.787075 
L 80.167277 62.507018 
L 81.318332 61.510454 
L 82.617155 60.688982 
L 83.923752 60.147836 
L 85.230349 59.85549 
L 86.536946 59.77826 
L 87.843543 59.886136 
L 89.15014 60.152632 
L 91.134423 60.809575 
L 93.489358 61.902304 
L 96.030379 63.366192 
L 99.048262 65.376838 
L 102.820617 68.163358 
L 108.101913 72.353914 
L 118.727006 81.155814 
L 135.288012 94.824355 
L 146.769229 104.017056 
L 157.849964 112.628642 
L 169.17683 121.160772 
L 180.696382 129.55664 
L 190.041964 136.160404 
L 201.742889 144.168218 
L 210.518583 149.985828 
L 220.827664 156.616086 
L 231.136746 163.028732 
L 241.445827 169.226855 
L 251.754908 175.213835 
L 262.063989 180.993317 
L 272.37307 186.569183 
L 282.682152 191.945531 
L 296.428669 198.811579 
L 308.068444 204.361796 
L 319.763943 209.702258 
L 331.655722 214.896579 
L 344.220165 220.134585 
L 356.784608 225.124257 
L 369.349052 229.874489 
L 369.349052 229.874489 
" style="fill:none;stroke:#0000ff;stroke-linecap:square;stroke-width:1.5;"/>
   </g>
   <g id="line2d_19">
    <path clip-path="url(#p328e9c4e63)" d="M 65.361932 127.659602 
L 65.495705 127.598037 
L 65.678654 127.206898 
L 66.028056 125.788386 
L 66.673106 122.000658 
L 70.679596 96.738108 
L 72.441297 87.586513 
L 73.893672 80.969723 
L 75.677361 73.915955 
L 77.104312 69.06344 
L 78.531264 64.857726 
L 79.958215 61.246748 
L 81.385166 58.179159 
L 82.635108 55.899319 
L 84.244506 53.470104 
L 85.853903 51.551379 
L 87.463301 50.083585 
L 89.072699 49.012308 
L 90.682096 48.288317 
L 92.291494 47.867424 
L 93.900891 47.710248 
L 95.510289 47.781891 
L 97.119687 48.051579 
L 99.123194 48.623508 
L 101.395939 49.53692 
L 103.975102 50.848384 
L 106.997148 52.674324 
L 110.450916 55.045587 
L 114.768124 58.306677 
L 120.263073 62.756964 
L 128.69694 69.911229 
L 155.89538 93.174066 
L 168.02522 103.170654 
L 179.790743 112.565309 
L 191.445163 121.567949 
L 202.75571 130.013977 
L 212.032432 136.72774 
L 224.746985 145.619148 
L 237.461538 154.155561 
L 247.127382 160.410834 
L 256.793227 166.466705 
L 266.459071 172.326136 
L 276.124916 177.99232 
L 285.79076 183.468664 
L 295.456605 188.758757 
L 305.122449 193.866352 
L 314.788294 198.795344 
L 324.454138 203.549745 
L 334.119983 208.13367 
L 343.785827 212.551311 
L 356.706451 218.204205 
L 369.725568 223.617787 
L 369.725568 223.617787 
" style="fill:none;stroke:#ff0000;stroke-linecap:square;stroke-width:1.5;"/>
   </g>
   <g id="line2d_20">
    <path clip-path="url(#p328e9c4e63)" d="M 65.751549 72.780906 
L 66.530935 69.690638 
L 67.699938 64.455404 
L 68.479324 61.055792 
L 70.427713 53.236005 
L 71.986333 47.858905 
L 73.155488 44.408696 
L 73.545105 43.367176 
L 75.493494 38.983542 
L 75.883111 38.263139 
L 78.221268 34.924016 
L 79.390271 33.816192 
L 81.33866 32.64902 
L 83.287049 32.201761 
L 85.235438 32.278107 
L 86.404441 32.539512 
L 87.963061 33.086591 
L 89.521833 33.83542 
L 90.301219 34.262653 
L 93.028994 36.043344 
L 93.418611 36.317053 
L 96.536003 38.724104 
L 98.094775 40.044924 
L 100.432781 42.117039 
L 101.212167 42.82972 
L 103.550173 45.013123 
L 103.939941 45.383664 
L 107.057333 48.384595 
L 107.057333 48.384595 
L 109.395339 50.670272 
L 111.343728 52.587056 
L 112.9025 54.124206 
L 114.071503 55.278229 
L 116.799278 57.967272 
L 118.357898 59.49921 
L 121.085673 62.167366 
L 122.254676 63.304517 
L 124.982451 65.940818 
L 125.761837 66.689416 
L 127.320457 68.179126 
L 129.658463 70.395974 
L 130.827162 71.495511 
L 131.99738 72.591052 
L 133.166079 73.678871 
L 133.554634 74.038726 
L 137.452322 77.615833 
L 137.452322 77.615833 
L 140.959938 80.774893 
L 140.959938 80.774893 
L 144.075964 83.534485 
L 144.856109 84.21774 
L 149.922497 88.586191 
L 150.311052 88.916016 
L 154.597295 92.508205 
L 154.597295 92.508205 
L 157.326284 94.748887 
L 158.104911 95.382087 
L 162.001082 98.510356 
L 162.001082 98.510356 
L 164.730071 100.660478 
L 165.118625 100.963358 
L 169.016314 103.970708 
L 169.404868 104.266486 
L 172.522412 106.617134 
L 173.692629 107.489384 
L 177.198728 110.069454 
L 177.198728 110.069454 
L 180.316271 112.319689 
L 182.655188 113.983124 
L 186.941431 116.977845 
L 187.720058 117.513465 
L 190.058975 119.115321 
L 190.44753 119.377783 
L 194.73529 122.250575 
L 195.90399 123.025411 
L 199.021534 125.062324 
L 200.96886 126.317542 
L 202.917704 127.562604 
L 206.035248 129.530285 
L 209.152792 131.468839 
L 209.931419 131.949542 
L 212.660408 133.610222 
L 214.607734 134.789121 
L 216.946651 136.188081 
L 219.674122 137.802717 
L 221.232894 138.720118 
L 222.011521 139.171425 
L 227.077909 142.092042 
L 229.80538 143.636445 
L 231.754225 144.732884 
L 232.532852 145.164786 
L 234.871768 146.462584 
L 237.209167 147.749649 
L 240.716783 149.657928 
L 244.612954 151.74037 
L 246.561798 152.779175 
L 248.12057 153.593122 
L 252.796886 156.026859 
L 255.134285 157.226051 
L 259.420528 159.401555 
L 260.200673 159.794596 
L 262.928144 161.16085 
L 264.486916 161.930645 
L 267.60446 163.470074 
L 269.163231 164.226614 
L 271.50063 165.363798 
L 272.66933 165.930225 
L 277.345645 168.164695 
L 277.735718 168.349279 
L 282.021961 170.360691 
L 283.580733 171.084641 
L 285.919649 172.162312 
L 287.478421 172.882645 
L 289.425748 173.768188 
L 290.98452 174.475936 
L 295.270763 176.409642 
L 296.829535 177.106305 
L 299.557006 178.314035 
L 301.115778 178.996687 
L 303.844767 180.189775 
L 304.233321 180.35903 
L 306.572238 181.374454 
L 306.960793 181.54192 
L 307.350865 181.710157 
" style="fill:none;stroke:#0000ff;stroke-dasharray:5.55,2.4;stroke-dashoffset:0;stroke-width:1.5;"/>
   </g>
   <g id="line2d_21">
    <path clip-path="url(#p328e9c4e63)" d="M 65.751549 136.592019 
L 66.530935 132.689502 
L 67.699938 126.30655 
L 68.479324 122.332622 
L 70.427713 113.528815 
L 71.986333 107.566025 
L 73.155488 103.662738 
L 73.545105 102.45967 
L 75.493494 97.181278 
L 75.883111 96.258214 
L 78.221268 91.591789 
L 79.390271 89.768527 
L 81.33866 87.399526 
L 83.287049 85.758004 
L 85.235438 84.745757 
L 86.404441 84.39612 
L 87.963061 84.177676 
L 89.521833 84.201468 
L 90.301219 84.294652 
L 93.028994 84.950458 
L 93.418611 85.077903 
L 96.536003 86.398001 
L 98.094775 87.178896 
L 100.432781 88.474138 
L 101.212167 88.93048 
L 103.550173 90.360568 
L 103.939941 90.606972 
L 107.057333 92.629324 
L 107.057333 92.629324 
L 109.395339 94.196427 
L 111.343728 95.525841 
L 112.9025 96.60082 
L 114.071503 97.411989 
L 116.799278 99.31918 
L 118.357898 100.41562 
L 121.085673 102.343186 
L 122.254676 103.171901 
L 124.982451 105.110782 
L 125.761837 105.665654 
L 127.320457 106.776853 
L 129.658463 108.446198 
L 130.827162 109.281639 
L 131.99738 110.118447 
L 133.166079 110.954982 
L 133.554634 111.233613 
L 137.452322 114.026962 
L 137.452322 114.026962 
L 140.959938 116.544497 
L 140.959938 116.544497 
L 144.075964 118.782706 
L 144.856109 119.34302 
L 149.922497 122.987512 
L 150.311052 123.267138 
L 154.597295 126.353799 
L 154.597295 126.353799 
L 157.326284 128.320787 
L 158.104911 128.882137 
L 162.001082 131.688224 
L 162.001082 131.688224 
L 164.730071 133.651955 
L 165.118625 133.932112 
L 169.016314 136.7343 
L 169.404868 137.013674 
L 172.522412 139.253135 
L 173.692629 140.092475 
L 177.198728 142.602937 
L 177.198728 142.602937 
L 180.316271 144.83106 
L 182.655188 146.498589 
L 186.941431 149.543268 
L 187.720058 150.093395 
L 190.058975 151.746914 
L 190.44753 152.020259 
L 194.73529 155.03568 
L 195.90399 155.856311 
L 199.021534 158.032832 
L 200.96886 159.385785 
L 202.917704 160.735582 
L 206.035248 162.884986 
L 209.152792 165.020775 
L 209.931419 165.552595 
L 212.660408 167.403326 
L 214.607734 168.722087 
L 216.946651 170.294868 
L 219.674122 172.117869 
L 221.232894 173.15596 
L 222.011521 173.669061 
L 227.077909 176.997964 
L 229.80538 178.770822 
L 231.754225 180.031078 
L 232.532852 180.529462 
L 234.871768 182.025692 
L 237.209167 183.511087 
L 240.716783 185.717757 
L 244.612954 188.138313 
L 246.561798 189.343736 
L 248.12057 190.293376 
L 252.796886 193.125605 
L 255.134285 194.52109 
L 259.420528 197.051839 
L 260.200673 197.508725 
L 262.928144 199.096304 
L 264.486916 199.993077 
L 267.60446 201.778897 
L 269.163231 202.657907 
L 271.50063 203.973132 
L 272.66933 204.627043 
L 277.345645 207.20661 
L 277.735718 207.419513 
L 282.021961 209.736703 
L 283.580733 210.569523 
L 285.919649 211.808582 
L 287.478421 212.632262 
L 289.425748 213.645714 
L 290.98452 214.45269 
L 295.270763 216.648516 
L 296.829535 217.437265 
L 299.557006 218.803417 
L 301.115778 219.576171 
L 303.844767 220.919294 
L 304.233321 221.108192 
L 306.572238 222.240945 
L 306.960793 222.42821 
L 307.350865 222.616098 
" style="fill:none;stroke:#0000ff;stroke-dasharray:5.55,2.4;stroke-dashoffset:0;stroke-width:1.5;"/>
   </g>
   <g id="line2d_22"/>
   <g id="line2d_23"/>
   <g id="line2d_24"/>
   <g id="line2d_25"/>
   <g id="patch_3">
    <path d="M 50.14375 239.758125 
L 50.14375 22.318125 
" style="fill:none;stroke:#000000;stroke-linecap:square;stroke-linejoin:miter;stroke-width:0.8;"/>
   </g>
   <g id="patch_4">
    <path d="M 384.94375 239.758125 
L 384.94375 22.318125 
" style="fill:none;stroke:#000000;stroke-linecap:square;stroke-linejoin:miter;stroke-width:0.8;"/>
   </g>
   <g id="patch_5">
    <path d="M 50.14375 239.758125 
L 384.94375 239.758125 
" style="fill:none;stroke:#000000;stroke-linecap:square;stroke-linejoin:miter;stroke-width:0.8;"/>
   </g>
   <g id="patch_6">
    <path d="M 50.14375 22.318125 
L 384.94375 22.318125 
" style="fill:none;stroke:#000000;stroke-linecap:square;stroke-linejoin:miter;stroke-width:0.8;"/>
   </g>
   <g id="text_19">
    <!-- Experiment_6 -->
    <defs>
     <path d="M 9.8125 72.90625 
L 55.90625 72.90625 
L 55.90625 64.59375 
L 19.671875 64.59375 
L 19.671875 43.015625 
L 54.390625 43.015625 
L 54.390625 34.71875 
L 19.671875 34.71875 
L 19.671875 8.296875 
L 56.78125 8.296875 
L 56.78125 0 
L 9.8125 0 
z
" id="DejaVuSans-69"/>
     <path d="M 54.890625 54.6875 
L 35.109375 28.078125 
L 55.90625 0 
L 45.3125 0 
L 29.390625 21.484375 
L 13.484375 0 
L 2.875 0 
L 24.125 28.609375 
L 4.6875 54.6875 
L 15.28125 54.6875 
L 29.78125 35.203125 
L 44.28125 54.6875 
z
" id="DejaVuSans-120"/>
     <path d="M 18.109375 8.203125 
L 18.109375 -20.796875 
L 9.078125 -20.796875 
L 9.078125 54.6875 
L 18.109375 54.6875 
L 18.109375 46.390625 
Q 20.953125 51.265625 25.265625 53.625 
Q 29.59375 56 35.59375 56 
Q 45.5625 56 51.78125 48.09375 
Q 58.015625 40.1875 58.015625 27.296875 
Q 58.015625 14.40625 51.78125 6.484375 
Q 45.5625 -1.421875 35.59375 -1.421875 
Q 29.59375 -1.421875 25.265625 0.953125 
Q 20.953125 3.328125 18.109375 8.203125 
z
M 48.6875 27.296875 
Q 48.6875 37.203125 44.609375 42.84375 
Q 40.53125 48.484375 33.40625 48.484375 
Q 26.265625 48.484375 22.1875 42.84375 
Q 18.109375 37.203125 18.109375 27.296875 
Q 18.109375 17.390625 22.1875 11.75 
Q 26.265625 6.109375 33.40625 6.109375 
Q 40.53125 6.109375 44.609375 11.75 
Q 48.6875 17.390625 48.6875 27.296875 
z
" id="DejaVuSans-112"/>
     <path d="M 18.3125 70.21875 
L 18.3125 54.6875 
L 36.8125 54.6875 
L 36.8125 47.703125 
L 18.3125 47.703125 
L 18.3125 18.015625 
Q 18.3125 11.328125 20.140625 9.421875 
Q 21.96875 7.515625 27.59375 7.515625 
L 36.8125 7.515625 
L 36.8125 0 
L 27.59375 0 
Q 17.1875 0 13.234375 3.875 
Q 9.28125 7.765625 9.28125 18.015625 
L 9.28125 47.703125 
L 2.6875 47.703125 
L 2.6875 54.6875 
L 9.28125 54.6875 
L 9.28125 70.21875 
z
" id="DejaVuSans-116"/>
     <path d="M 50.984375 -16.609375 
L 50.984375 -23.578125 
L -0.984375 -23.578125 
L -0.984375 -16.609375 
z
" id="DejaVuSans-95"/>
     <path d="M 33.015625 40.375 
Q 26.375 40.375 22.484375 35.828125 
Q 18.609375 31.296875 18.609375 23.390625 
Q 18.609375 15.53125 22.484375 10.953125 
Q 26.375 6.390625 33.015625 6.390625 
Q 39.65625 6.390625 43.53125 10.953125 
Q 47.40625 15.53125 47.40625 23.390625 
Q 47.40625 31.296875 43.53125 35.828125 
Q 39.65625 40.375 33.015625 40.375 
z
M 52.59375 71.296875 
L 52.59375 62.3125 
Q 48.875 64.0625 45.09375 64.984375 
Q 41.3125 65.921875 37.59375 65.921875 
Q 27.828125 65.921875 22.671875 59.328125 
Q 17.53125 52.734375 16.796875 39.40625 
Q 19.671875 43.65625 24.015625 45.921875 
Q 28.375 48.1875 33.59375 48.1875 
Q 44.578125 48.1875 50.953125 41.515625 
Q 57.328125 34.859375 57.328125 23.390625 
Q 57.328125 12.15625 50.6875 5.359375 
Q 44.046875 -1.421875 33.015625 -1.421875 
Q 20.359375 -1.421875 13.671875 8.265625 
Q 6.984375 17.96875 6.984375 36.375 
Q 6.984375 53.65625 15.1875 63.9375 
Q 23.390625 74.21875 37.203125 74.21875 
Q 40.921875 74.21875 44.703125 73.484375 
Q 48.484375 72.75 52.59375 71.296875 
z
" id="DejaVuSans-54"/>
    </defs>
    <g transform="translate(176.058438 16.318125)scale(0.12 -0.12)">
     <use xlink:href="#DejaVuSans-69"/>
     <use x="63.183594" xlink:href="#DejaVuSans-120"/>
     <use x="122.363281" xlink:href="#DejaVuSans-112"/>
     <use x="185.839844" xlink:href="#DejaVuSans-101"/>
     <use x="247.363281" xlink:href="#DejaVuSans-114"/>
     <use x="288.476562" xlink:href="#DejaVuSans-105"/>
     <use x="316.259766" xlink:href="#DejaVuSans-109"/>
     <use x="413.671875" xlink:href="#DejaVuSans-101"/>
     <use x="475.195312" xlink:href="#DejaVuSans-110"/>
     <use x="538.574219" xlink:href="#DejaVuSans-116"/>
     <use x="577.783203" xlink:href="#DejaVuSans-95"/>
     <use x="627.783203" xlink:href="#DejaVuSans-54"/>
    </g>
   </g>
   <g id="legend_1">
    <g id="patch_7">
     <path d="M 57.14375 234.758125 
L 325.989063 234.758125 
Q 327.989063 234.758125 327.989063 232.758125 
L 327.989063 175.02375 
Q 327.989063 173.02375 325.989063 173.02375 
L 57.14375 173.02375 
Q 55.14375 173.02375 55.14375 175.02375 
L 55.14375 232.758125 
Q 55.14375 234.758125 57.14375 234.758125 
z
" style="fill:#ffffff;opacity:0.8;stroke:#cccccc;stroke-linejoin:miter;"/>
    </g>
    <g id="line2d_26"/>
    <g id="line2d_27">
     <g>
      <use style="stroke:#000000;" x="69.14375" xlink:href="#me7d2bf0979" y="181.122187"/>
     </g>
    </g>
    <g id="text_20">
     <!-- Experimental Data -->
     <defs>
      <path d="M 9.421875 75.984375 
L 18.40625 75.984375 
L 18.40625 0 
L 9.421875 0 
z
" id="DejaVuSans-108"/>
      <path d="M 19.671875 64.796875 
L 19.671875 8.109375 
L 31.59375 8.109375 
Q 46.6875 8.109375 53.6875 14.9375 
Q 60.6875 21.78125 60.6875 36.53125 
Q 60.6875 51.171875 53.6875 57.984375 
Q 46.6875 64.796875 31.59375 64.796875 
z
M 9.8125 72.90625 
L 30.078125 72.90625 
Q 51.265625 72.90625 61.171875 64.09375 
Q 71.09375 55.28125 71.09375 36.53125 
Q 71.09375 17.671875 61.125 8.828125 
Q 51.171875 0 30.078125 0 
L 9.8125 0 
z
" id="DejaVuSans-68"/>
     </defs>
     <g transform="translate(87.14375 184.622187)scale(0.1 -0.1)">
      <use xlink:href="#DejaVuSans-69"/>
      <use x="63.183594" xlink:href="#DejaVuSans-120"/>
      <use x="122.363281" xlink:href="#DejaVuSans-112"/>
      <use x="185.839844" xlink:href="#DejaVuSans-101"/>
      <use x="247.363281" xlink:href="#DejaVuSans-114"/>
      <use x="288.476562" xlink:href="#DejaVuSans-105"/>
      <use x="316.259766" xlink:href="#DejaVuSans-109"/>
      <use x="413.671875" xlink:href="#DejaVuSans-101"/>
      <use x="475.195312" xlink:href="#DejaVuSans-110"/>
      <use x="538.574219" xlink:href="#DejaVuSans-116"/>
      <use x="577.783203" xlink:href="#DejaVuSans-97"/>
      <use x="639.0625" xlink:href="#DejaVuSans-108"/>
      <use x="666.845703" xlink:href="#DejaVuSans-32"/>
      <use x="698.632812" xlink:href="#DejaVuSans-68"/>
      <use x="775.634766" xlink:href="#DejaVuSans-97"/>
      <use x="836.914062" xlink:href="#DejaVuSans-116"/>
      <use x="876.123047" xlink:href="#DejaVuSans-97"/>
     </g>
    </g>
    <g id="line2d_28">
     <path d="M 59.14375 195.800312 
L 79.14375 195.800312 
" style="fill:none;stroke:#0000ff;stroke-linecap:square;stroke-width:1.5;"/>
    </g>
    <g id="line2d_29"/>
    <g id="text_21">
     <!-- MSI -->
     <defs>
      <path d="M 9.8125 72.90625 
L 24.515625 72.90625 
L 43.109375 23.296875 
L 61.8125 72.90625 
L 76.515625 72.90625 
L 76.515625 0 
L 66.890625 0 
L 66.890625 64.015625 
L 48.09375 14.015625 
L 38.1875 14.015625 
L 19.390625 64.015625 
L 19.390625 0 
L 9.8125 0 
z
" id="DejaVuSans-77"/>
      <path d="M 53.515625 70.515625 
L 53.515625 60.890625 
Q 47.90625 63.578125 42.921875 64.890625 
Q 37.9375 66.21875 33.296875 66.21875 
Q 25.25 66.21875 20.875 63.09375 
Q 16.5 59.96875 16.5 54.203125 
Q 16.5 49.359375 19.40625 46.890625 
Q 22.3125 44.4375 30.421875 42.921875 
L 36.375 41.703125 
Q 47.40625 39.59375 52.65625 34.296875 
Q 57.90625 29 57.90625 20.125 
Q 57.90625 9.515625 50.796875 4.046875 
Q 43.703125 -1.421875 29.984375 -1.421875 
Q 24.8125 -1.421875 18.96875 -0.25 
Q 13.140625 0.921875 6.890625 3.21875 
L 6.890625 13.375 
Q 12.890625 10.015625 18.65625 8.296875 
Q 24.421875 6.59375 29.984375 6.59375 
Q 38.421875 6.59375 43.015625 9.90625 
Q 47.609375 13.234375 47.609375 19.390625 
Q 47.609375 24.75 44.3125 27.78125 
Q 41.015625 30.8125 33.5 32.328125 
L 27.484375 33.5 
Q 16.453125 35.6875 11.515625 40.375 
Q 6.59375 45.0625 6.59375 53.421875 
Q 6.59375 63.09375 13.40625 68.65625 
Q 20.21875 74.21875 32.171875 74.21875 
Q 37.3125 74.21875 42.625 73.28125 
Q 47.953125 72.359375 53.515625 70.515625 
z
" id="DejaVuSans-83"/>
      <path d="M 9.8125 72.90625 
L 19.671875 72.90625 
L 19.671875 0 
L 9.8125 0 
z
" id="DejaVuSans-73"/>
     </defs>
     <g transform="translate(87.14375 199.300312)scale(0.1 -0.1)">
      <use xlink:href="#DejaVuSans-77"/>
      <use x="86.279297" xlink:href="#DejaVuSans-83"/>
      <use x="149.755859" xlink:href="#DejaVuSans-73"/>
     </g>
    </g>
    <g id="line2d_30">
     <path d="M 59.14375 210.48 
L 79.14375 210.48 
" style="fill:none;stroke:#ff0000;stroke-linecap:square;stroke-width:1.5;"/>
    </g>
    <g id="line2d_31"/>
    <g id="text_22">
     <!-- $\it{A priori}$ model -->
     <defs>
      <path d="M 36.8125 72.90625 
L 48 72.90625 
L 61.53125 0 
L 51.21875 0 
L 48.1875 18.703125 
L 15.375 18.703125 
L 5.078125 0 
L -5.328125 0 
z
M 40.375 63.1875 
L 19.921875 26.90625 
L 46.6875 26.90625 
z
" id="DejaVuSans-Oblique-65"/>
      <path d="M 49.609375 33.6875 
Q 49.609375 40.875 46.484375 44.671875 
Q 43.359375 48.484375 37.5 48.484375 
Q 33.5 48.484375 29.859375 46.4375 
Q 26.21875 44.390625 23.390625 40.484375 
Q 20.609375 36.625 18.9375 31.15625 
Q 17.28125 25.6875 17.28125 20.3125 
Q 17.28125 13.484375 20.40625 9.796875 
Q 23.53125 6.109375 29.296875 6.109375 
Q 33.546875 6.109375 37.1875 8.109375 
Q 40.828125 10.109375 43.40625 13.921875 
Q 46.1875 17.921875 47.890625 23.34375 
Q 49.609375 28.765625 49.609375 33.6875 
z
M 21.78125 46.390625 
Q 25.390625 51.125 30.296875 53.5625 
Q 35.203125 56 41.21875 56 
Q 49.609375 56 54.25 50.5 
Q 58.890625 45.015625 58.890625 35.109375 
Q 58.890625 27 56 19.65625 
Q 53.125 12.3125 47.703125 6.5 
Q 44.09375 2.640625 39.546875 0.609375 
Q 35.015625 -1.421875 29.984375 -1.421875 
Q 24.171875 -1.421875 20.21875 1 
Q 16.265625 3.421875 14.3125 8.203125 
L 8.6875 -20.796875 
L -0.296875 -20.796875 
L 14.40625 54.6875 
L 23.390625 54.6875 
z
" id="DejaVuSans-Oblique-112"/>
      <path d="M 44.578125 46.390625 
Q 43.21875 47.125 41.453125 47.515625 
Q 39.703125 47.90625 37.703125 47.90625 
Q 30.515625 47.90625 25.140625 42.453125 
Q 19.78125 37.015625 18.015625 27.875 
L 12.5 0 
L 3.515625 0 
L 14.203125 54.6875 
L 23.1875 54.6875 
L 21.484375 46.1875 
Q 25.046875 50.921875 30 53.453125 
Q 34.96875 56 40.578125 56 
Q 42.046875 56 43.453125 55.828125 
Q 44.875 55.671875 46.296875 55.28125 
z
" id="DejaVuSans-Oblique-114"/>
      <path d="M 18.3125 75.984375 
L 27.296875 75.984375 
L 25.09375 64.59375 
L 16.109375 64.59375 
z
M 14.203125 54.6875 
L 23.1875 54.6875 
L 12.5 0 
L 3.515625 0 
z
" id="DejaVuSans-Oblique-105"/>
      <path d="M 25.390625 -1.421875 
Q 15.765625 -1.421875 10.171875 4.515625 
Q 4.59375 10.453125 4.59375 20.703125 
Q 4.59375 26.65625 6.515625 32.828125 
Q 8.453125 39.015625 11.53125 43.21875 
Q 16.359375 49.75 22.3125 52.875 
Q 28.265625 56 35.796875 56 
Q 45.125 56 50.859375 50.1875 
Q 56.59375 44.390625 56.59375 35.015625 
Q 56.59375 28.515625 54.6875 22.0625 
Q 52.78125 15.625 49.703125 11.375 
Q 44.921875 4.828125 38.96875 1.703125 
Q 33.015625 -1.421875 25.390625 -1.421875 
z
M 13.921875 21 
Q 13.921875 13.578125 17.015625 9.890625 
Q 20.125 6.203125 26.421875 6.203125 
Q 35.453125 6.203125 41.375 14.078125 
Q 47.3125 21.96875 47.3125 34.078125 
Q 47.3125 41.15625 44.140625 44.765625 
Q 40.96875 48.390625 34.8125 48.390625 
Q 29.734375 48.390625 25.78125 46.015625 
Q 21.828125 43.65625 18.703125 38.8125 
Q 16.40625 35.203125 15.15625 30.5625 
Q 13.921875 25.921875 13.921875 21 
z
" id="DejaVuSans-Oblique-111"/>
      <path d="M 45.40625 46.390625 
L 45.40625 75.984375 
L 54.390625 75.984375 
L 54.390625 0 
L 45.40625 0 
L 45.40625 8.203125 
Q 42.578125 3.328125 38.25 0.953125 
Q 33.9375 -1.421875 27.875 -1.421875 
Q 17.96875 -1.421875 11.734375 6.484375 
Q 5.515625 14.40625 5.515625 27.296875 
Q 5.515625 40.1875 11.734375 48.09375 
Q 17.96875 56 27.875 56 
Q 33.9375 56 38.25 53.625 
Q 42.578125 51.265625 45.40625 46.390625 
z
M 14.796875 27.296875 
Q 14.796875 17.390625 18.875 11.75 
Q 22.953125 6.109375 30.078125 6.109375 
Q 37.203125 6.109375 41.296875 11.75 
Q 45.40625 17.390625 45.40625 27.296875 
Q 45.40625 37.203125 41.296875 42.84375 
Q 37.203125 48.484375 30.078125 48.484375 
Q 22.953125 48.484375 18.875 42.84375 
Q 14.796875 37.203125 14.796875 27.296875 
z
" id="DejaVuSans-100"/>
     </defs>
     <g transform="translate(87.14375 213.98)scale(0.1 -0.1)">
      <use transform="translate(0 0.015625)" xlink:href="#DejaVuSans-Oblique-65"/>
      <use transform="translate(68.408203 0.015625)" xlink:href="#DejaVuSans-Oblique-112"/>
      <use transform="translate(131.884766 0.015625)" xlink:href="#DejaVuSans-Oblique-114"/>
      <use transform="translate(172.998047 0.015625)" xlink:href="#DejaVuSans-Oblique-105"/>
      <use transform="translate(200.78125 0.015625)" xlink:href="#DejaVuSans-Oblique-111"/>
      <use transform="translate(261.962891 0.015625)" xlink:href="#DejaVuSans-Oblique-114"/>
      <use transform="translate(303.076172 0.015625)" xlink:href="#DejaVuSans-Oblique-105"/>
      <use transform="translate(330.859375 0.015625)" xlink:href="#DejaVuSans-32"/>
      <use transform="translate(362.646484 0.015625)" xlink:href="#DejaVuSans-109"/>
      <use transform="translate(460.058594 0.015625)" xlink:href="#DejaVuSans-111"/>
      <use transform="translate(521.240234 0.015625)" xlink:href="#DejaVuSans-100"/>
      <use transform="translate(584.716797 0.015625)" xlink:href="#DejaVuSans-101"/>
      <use transform="translate(646.240234 0.015625)" xlink:href="#DejaVuSans-108"/>
     </g>
    </g>
    <g id="line2d_32">
     <path d="M 59.14375 225.178437 
L 79.14375 225.178437 
" style="fill:none;stroke:#ffffff;stroke-linecap:square;stroke-width:1.5;"/>
    </g>
    <g id="line2d_33"/>
    <g id="text_23">
     <!-- T:1015 -->
     <defs>
      <path d="M 11.71875 12.40625 
L 22.015625 12.40625 
L 22.015625 0 
L 11.71875 0 
z
M 11.71875 51.703125 
L 22.015625 51.703125 
L 22.015625 39.3125 
L 11.71875 39.3125 
z
" id="DejaVuSans-58"/>
     </defs>
     <g transform="translate(87.14375 228.678437)scale(0.1 -0.1)">
      <use xlink:href="#DejaVuSans-84"/>
      <use x="60.912109" xlink:href="#DejaVuSans-58"/>
      <use x="94.603516" xlink:href="#DejaVuSans-49"/>
      <use x="158.226562" xlink:href="#DejaVuSans-48"/>
      <use x="221.849609" xlink:href="#DejaVuSans-49"/>
      <use x="285.472656" xlink:href="#DejaVuSans-53"/>
     </g>
    </g>
    <g id="line2d_34">
     <path d="M 200.884375 181.122187 
L 220.884375 181.122187 
" style="fill:none;stroke:#ffffff;stroke-linecap:square;stroke-width:1.5;"/>
    </g>
    <g id="line2d_35"/>
    <g id="text_24">
     <!-- P:3.298 -->
     <defs>
      <path d="M 19.671875 64.796875 
L 19.671875 37.40625 
L 32.078125 37.40625 
Q 38.96875 37.40625 42.71875 40.96875 
Q 46.484375 44.53125 46.484375 51.125 
Q 46.484375 57.671875 42.71875 61.234375 
Q 38.96875 64.796875 32.078125 64.796875 
z
M 9.8125 72.90625 
L 32.078125 72.90625 
Q 44.34375 72.90625 50.609375 67.359375 
Q 56.890625 61.8125 56.890625 51.125 
Q 56.890625 40.328125 50.609375 34.8125 
Q 44.34375 29.296875 32.078125 29.296875 
L 19.671875 29.296875 
L 19.671875 0 
L 9.8125 0 
z
" id="DejaVuSans-80"/>
      <path d="M 10.984375 1.515625 
L 10.984375 10.5 
Q 14.703125 8.734375 18.5 7.8125 
Q 22.3125 6.890625 25.984375 6.890625 
Q 35.75 6.890625 40.890625 13.453125 
Q 46.046875 20.015625 46.78125 33.40625 
Q 43.953125 29.203125 39.59375 26.953125 
Q 35.25 24.703125 29.984375 24.703125 
Q 19.046875 24.703125 12.671875 31.3125 
Q 6.296875 37.9375 6.296875 49.421875 
Q 6.296875 60.640625 12.9375 67.421875 
Q 19.578125 74.21875 30.609375 74.21875 
Q 43.265625 74.21875 49.921875 64.515625 
Q 56.59375 54.828125 56.59375 36.375 
Q 56.59375 19.140625 48.40625 8.859375 
Q 40.234375 -1.421875 26.421875 -1.421875 
Q 22.703125 -1.421875 18.890625 -0.6875 
Q 15.09375 0.046875 10.984375 1.515625 
z
M 30.609375 32.421875 
Q 37.25 32.421875 41.125 36.953125 
Q 45.015625 41.5 45.015625 49.421875 
Q 45.015625 57.28125 41.125 61.84375 
Q 37.25 66.40625 30.609375 66.40625 
Q 23.96875 66.40625 20.09375 61.84375 
Q 16.21875 57.28125 16.21875 49.421875 
Q 16.21875 41.5 20.09375 36.953125 
Q 23.96875 32.421875 30.609375 32.421875 
z
" id="DejaVuSans-57"/>
      <path d="M 31.78125 34.625 
Q 24.75 34.625 20.71875 30.859375 
Q 16.703125 27.09375 16.703125 20.515625 
Q 16.703125 13.921875 20.71875 10.15625 
Q 24.75 6.390625 31.78125 6.390625 
Q 38.8125 6.390625 42.859375 10.171875 
Q 46.921875 13.96875 46.921875 20.515625 
Q 46.921875 27.09375 42.890625 30.859375 
Q 38.875 34.625 31.78125 34.625 
z
M 21.921875 38.8125 
Q 15.578125 40.375 12.03125 44.71875 
Q 8.5 49.078125 8.5 55.328125 
Q 8.5 64.0625 14.71875 69.140625 
Q 20.953125 74.21875 31.78125 74.21875 
Q 42.671875 74.21875 48.875 69.140625 
Q 55.078125 64.0625 55.078125 55.328125 
Q 55.078125 49.078125 51.53125 44.71875 
Q 48 40.375 41.703125 38.8125 
Q 48.828125 37.15625 52.796875 32.3125 
Q 56.78125 27.484375 56.78125 20.515625 
Q 56.78125 9.90625 50.3125 4.234375 
Q 43.84375 -1.421875 31.78125 -1.421875 
Q 19.734375 -1.421875 13.25 4.234375 
Q 6.78125 9.90625 6.78125 20.515625 
Q 6.78125 27.484375 10.78125 32.3125 
Q 14.796875 37.15625 21.921875 38.8125 
z
M 18.3125 54.390625 
Q 18.3125 48.734375 21.84375 45.5625 
Q 25.390625 42.390625 31.78125 42.390625 
Q 38.140625 42.390625 41.71875 45.5625 
Q 45.3125 48.734375 45.3125 54.390625 
Q 45.3125 60.0625 41.71875 63.234375 
Q 38.140625 66.40625 31.78125 66.40625 
Q 25.390625 66.40625 21.84375 63.234375 
Q 18.3125 60.0625 18.3125 54.390625 
z
" id="DejaVuSans-56"/>
     </defs>
     <g transform="translate(228.884375 184.622187)scale(0.1 -0.1)">
      <use xlink:href="#DejaVuSans-80"/>
      <use x="60.302734" xlink:href="#DejaVuSans-58"/>
      <use x="93.994141" xlink:href="#DejaVuSans-51"/>
      <use x="157.617188" xlink:href="#DejaVuSans-46"/>
      <use x="189.404297" xlink:href="#DejaVuSans-50"/>
      <use x="253.027344" xlink:href="#DejaVuSans-57"/>
      <use x="316.650391" xlink:href="#DejaVuSans-56"/>
     </g>
    </g>
    <g id="line2d_36">
     <path d="M 200.884375 195.800312 
L 220.884375 195.800312 
" style="fill:none;stroke:#ffffff;stroke-linecap:square;stroke-width:1.5;"/>
    </g>
    <g id="line2d_37"/>
    <g id="text_25">
     <!-- H2O2: 0.00325758 -->
     <defs>
      <path d="M 9.8125 72.90625 
L 19.671875 72.90625 
L 19.671875 43.015625 
L 55.515625 43.015625 
L 55.515625 72.90625 
L 65.375 72.90625 
L 65.375 0 
L 55.515625 0 
L 55.515625 34.71875 
L 19.671875 34.71875 
L 19.671875 0 
L 9.8125 0 
z
" id="DejaVuSans-72"/>
      <path d="M 39.40625 66.21875 
Q 28.65625 66.21875 22.328125 58.203125 
Q 16.015625 50.203125 16.015625 36.375 
Q 16.015625 22.609375 22.328125 14.59375 
Q 28.65625 6.59375 39.40625 6.59375 
Q 50.140625 6.59375 56.421875 14.59375 
Q 62.703125 22.609375 62.703125 36.375 
Q 62.703125 50.203125 56.421875 58.203125 
Q 50.140625 66.21875 39.40625 66.21875 
z
M 39.40625 74.21875 
Q 54.734375 74.21875 63.90625 63.9375 
Q 73.09375 53.65625 73.09375 36.375 
Q 73.09375 19.140625 63.90625 8.859375 
Q 54.734375 -1.421875 39.40625 -1.421875 
Q 24.03125 -1.421875 14.8125 8.828125 
Q 5.609375 19.09375 5.609375 36.375 
Q 5.609375 53.65625 14.8125 63.9375 
Q 24.03125 74.21875 39.40625 74.21875 
z
" id="DejaVuSans-79"/>
     </defs>
     <g transform="translate(228.884375 199.300312)scale(0.1 -0.1)">
      <use xlink:href="#DejaVuSans-72"/>
      <use x="75.195312" xlink:href="#DejaVuSans-50"/>
      <use x="138.818359" xlink:href="#DejaVuSans-79"/>
      <use x="217.529297" xlink:href="#DejaVuSans-50"/>
      <use x="281.152344" xlink:href="#DejaVuSans-58"/>
      <use x="314.84375" xlink:href="#DejaVuSans-32"/>
      <use x="346.630859" xlink:href="#DejaVuSans-48"/>
      <use x="410.253906" xlink:href="#DejaVuSans-46"/>
      <use x="442.041016" xlink:href="#DejaVuSans-48"/>
      <use x="505.664062" xlink:href="#DejaVuSans-48"/>
      <use x="569.287109" xlink:href="#DejaVuSans-51"/>
      <use x="632.910156" xlink:href="#DejaVuSans-50"/>
      <use x="696.533203" xlink:href="#DejaVuSans-53"/>
      <use x="760.15625" xlink:href="#DejaVuSans-55"/>
      <use x="823.779297" xlink:href="#DejaVuSans-53"/>
      <use x="887.402344" xlink:href="#DejaVuSans-56"/>
     </g>
    </g>
    <g id="line2d_38">
     <path d="M 200.884375 210.478437 
L 220.884375 210.478437 
" style="fill:none;stroke:#ffffff;stroke-linecap:square;stroke-width:1.5;"/>
    </g>
    <g id="line2d_39"/>
    <g id="text_26">
     <!-- Ar: 0.99674242 -->
     <g transform="translate(228.884375 213.978437)scale(0.1 -0.1)">
      <use xlink:href="#DejaVuSans-65"/>
      <use x="68.408203" xlink:href="#DejaVuSans-114"/>
      <use x="109.505859" xlink:href="#DejaVuSans-58"/>
      <use x="143.197266" xlink:href="#DejaVuSans-32"/>
      <use x="174.984375" xlink:href="#DejaVuSans-48"/>
      <use x="238.607422" xlink:href="#DejaVuSans-46"/>
      <use x="270.394531" xlink:href="#DejaVuSans-57"/>
      <use x="334.017578" xlink:href="#DejaVuSans-57"/>
      <use x="397.640625" xlink:href="#DejaVuSans-54"/>
      <use x="461.263672" xlink:href="#DejaVuSans-55"/>
      <use x="524.886719" xlink:href="#DejaVuSans-52"/>
      <use x="588.509766" xlink:href="#DejaVuSans-50"/>
      <use x="652.132812" xlink:href="#DejaVuSans-52"/>
      <use x="715.755859" xlink:href="#DejaVuSans-50"/>
     </g>
    </g>
   </g>
  </g>
 </g>
 <defs>
  <clipPath id="p328e9c4e63">
   <rect height="217.44" width="334.8" x="50.14375" y="22.318125"/>
  </clipPath>
 </defs>
</svg>
