<?xml version="1.0" encoding="utf-8" standalone="no"?>
<!DOCTYPE svg PUBLIC "-//W3C//DTD SVG 1.1//EN"
  "http://www.w3.org/Graphics/SVG/1.1/DTD/svg11.dtd">
<!-- Created with matplotlib (https://matplotlib.org/) -->
<svg height="277.314375pt" version="1.1" viewBox="0 0 397.946203 277.314375" width="397.946203pt" xmlns="http://www.w3.org/2000/svg" xmlns:xlink="http://www.w3.org/1999/xlink">
 <defs>
  <style type="text/css">
*{stroke-linecap:butt;stroke-linejoin:round;}
  </style>
 </defs>
 <g id="figure_1">
  <g id="patch_1">
   <path d="M 0 277.314375 
L 397.946203 277.314375 
L 397.946203 0 
L 0 0 
z
" style="fill:none;"/>
  </g>
  <g id="axes_1">
   <g id="patch_2">
    <path d="M 50.14375 239.758125 
L 384.94375 239.758125 
L 384.94375 22.318125 
L 50.14375 22.318125 
z
" style="fill:none;"/>
   </g>
   <g id="matplotlib.axis_1">
    <g id="xtick_1">
     <g id="line2d_1">
      <defs>
       <path d="M 0 0 
L 0 3.5 
" id="mecdedf467a" style="stroke:#000000;stroke-width:0.8;"/>
      </defs>
      <g>
       <use style="stroke:#000000;stroke-width:0.8;" x="65.361932" xlink:href="#mecdedf467a" y="239.758125"/>
      </g>
     </g>
     <g id="text_1">
      <!-- 0.0 -->
      <defs>
       <path d="M 31.78125 66.40625 
Q 24.171875 66.40625 20.328125 58.90625 
Q 16.5 51.421875 16.5 36.375 
Q 16.5 21.390625 20.328125 13.890625 
Q 24.171875 6.390625 31.78125 6.390625 
Q 39.453125 6.390625 43.28125 13.890625 
Q 47.125 21.390625 47.125 36.375 
Q 47.125 51.421875 43.28125 58.90625 
Q 39.453125 66.40625 31.78125 66.40625 
z
M 31.78125 74.21875 
Q 44.046875 74.21875 50.515625 64.515625 
Q 56.984375 54.828125 56.984375 36.375 
Q 56.984375 17.96875 50.515625 8.265625 
Q 44.046875 -1.421875 31.78125 -1.421875 
Q 19.53125 -1.421875 13.0625 8.265625 
Q 6.59375 17.96875 6.59375 36.375 
Q 6.59375 54.828125 13.0625 64.515625 
Q 19.53125 74.21875 31.78125 74.21875 
z
" id="DejaVuSans-48"/>
       <path d="M 10.6875 12.40625 
L 21 12.40625 
L 21 0 
L 10.6875 0 
z
" id="DejaVuSans-46"/>
      </defs>
      <g transform="translate(57.410369 254.356562)scale(0.1 -0.1)">
       <use xlink:href="#DejaVuSans-48"/>
       <use x="63.623047" xlink:href="#DejaVuSans-46"/>
       <use x="95.410156" xlink:href="#DejaVuSans-48"/>
      </g>
     </g>
    </g>
    <g id="xtick_2">
     <g id="line2d_2">
      <g>
       <use style="stroke:#000000;stroke-width:0.8;" x="105.04102" xlink:href="#mecdedf467a" y="239.758125"/>
      </g>
     </g>
     <g id="text_2">
      <!-- 0.2 -->
      <defs>
       <path d="M 19.1875 8.296875 
L 53.609375 8.296875 
L 53.609375 0 
L 7.328125 0 
L 7.328125 8.296875 
Q 12.9375 14.109375 22.625 23.890625 
Q 32.328125 33.6875 34.8125 36.53125 
Q 39.546875 41.84375 41.421875 45.53125 
Q 43.3125 49.21875 43.3125 52.78125 
Q 43.3125 58.59375 39.234375 62.25 
Q 35.15625 65.921875 28.609375 65.921875 
Q 23.96875 65.921875 18.8125 64.3125 
Q 13.671875 62.703125 7.8125 59.421875 
L 7.8125 69.390625 
Q 13.765625 71.78125 18.9375 73 
Q 24.125 74.21875 28.421875 74.21875 
Q 39.75 74.21875 46.484375 68.546875 
Q 53.21875 62.890625 53.21875 53.421875 
Q 53.21875 48.921875 51.53125 44.890625 
Q 49.859375 40.875 45.40625 35.40625 
Q 44.1875 33.984375 37.640625 27.21875 
Q 31.109375 20.453125 19.1875 8.296875 
z
" id="DejaVuSans-50"/>
      </defs>
      <g transform="translate(97.089458 254.356562)scale(0.1 -0.1)">
       <use xlink:href="#DejaVuSans-48"/>
       <use x="63.623047" xlink:href="#DejaVuSans-46"/>
       <use x="95.410156" xlink:href="#DejaVuSans-50"/>
      </g>
     </g>
    </g>
    <g id="xtick_3">
     <g id="line2d_3">
      <g>
       <use style="stroke:#000000;stroke-width:0.8;" x="144.720109" xlink:href="#mecdedf467a" y="239.758125"/>
      </g>
     </g>
     <g id="text_3">
      <!-- 0.4 -->
      <defs>
       <path d="M 37.796875 64.3125 
L 12.890625 25.390625 
L 37.796875 25.390625 
z
M 35.203125 72.90625 
L 47.609375 72.90625 
L 47.609375 25.390625 
L 58.015625 25.390625 
L 58.015625 17.1875 
L 47.609375 17.1875 
L 47.609375 0 
L 37.796875 0 
L 37.796875 17.1875 
L 4.890625 17.1875 
L 4.890625 26.703125 
z
" id="DejaVuSans-52"/>
      </defs>
      <g transform="translate(136.768547 254.356562)scale(0.1 -0.1)">
       <use xlink:href="#DejaVuSans-48"/>
       <use x="63.623047" xlink:href="#DejaVuSans-46"/>
       <use x="95.410156" xlink:href="#DejaVuSans-52"/>
      </g>
     </g>
    </g>
    <g id="xtick_4">
     <g id="line2d_4">
      <g>
       <use style="stroke:#000000;stroke-width:0.8;" x="184.399198" xlink:href="#mecdedf467a" y="239.758125"/>
      </g>
     </g>
     <g id="text_4">
      <!-- 0.6 -->
      <defs>
       <path d="M 33.015625 40.375 
Q 26.375 40.375 22.484375 35.828125 
Q 18.609375 31.296875 18.609375 23.390625 
Q 18.609375 15.53125 22.484375 10.953125 
Q 26.375 6.390625 33.015625 6.390625 
Q 39.65625 6.390625 43.53125 10.953125 
Q 47.40625 15.53125 47.40625 23.390625 
Q 47.40625 31.296875 43.53125 35.828125 
Q 39.65625 40.375 33.015625 40.375 
z
M 52.59375 71.296875 
L 52.59375 62.3125 
Q 48.875 64.0625 45.09375 64.984375 
Q 41.3125 65.921875 37.59375 65.921875 
Q 27.828125 65.921875 22.671875 59.328125 
Q 17.53125 52.734375 16.796875 39.40625 
Q 19.671875 43.65625 24.015625 45.921875 
Q 28.375 48.1875 33.59375 48.1875 
Q 44.578125 48.1875 50.953125 41.515625 
Q 57.328125 34.859375 57.328125 23.390625 
Q 57.328125 12.15625 50.6875 5.359375 
Q 44.046875 -1.421875 33.015625 -1.421875 
Q 20.359375 -1.421875 13.671875 8.265625 
Q 6.984375 17.96875 6.984375 36.375 
Q 6.984375 53.65625 15.1875 63.9375 
Q 23.390625 74.21875 37.203125 74.21875 
Q 40.921875 74.21875 44.703125 73.484375 
Q 48.484375 72.75 52.59375 71.296875 
z
" id="DejaVuSans-54"/>
      </defs>
      <g transform="translate(176.447635 254.356562)scale(0.1 -0.1)">
       <use xlink:href="#DejaVuSans-48"/>
       <use x="63.623047" xlink:href="#DejaVuSans-46"/>
       <use x="95.410156" xlink:href="#DejaVuSans-54"/>
      </g>
     </g>
    </g>
    <g id="xtick_5">
     <g id="line2d_5">
      <g>
       <use style="stroke:#000000;stroke-width:0.8;" x="224.078286" xlink:href="#mecdedf467a" y="239.758125"/>
      </g>
     </g>
     <g id="text_5">
      <!-- 0.8 -->
      <defs>
       <path d="M 31.78125 34.625 
Q 24.75 34.625 20.71875 30.859375 
Q 16.703125 27.09375 16.703125 20.515625 
Q 16.703125 13.921875 20.71875 10.15625 
Q 24.75 6.390625 31.78125 6.390625 
Q 38.8125 6.390625 42.859375 10.171875 
Q 46.921875 13.96875 46.921875 20.515625 
Q 46.921875 27.09375 42.890625 30.859375 
Q 38.875 34.625 31.78125 34.625 
z
M 21.921875 38.8125 
Q 15.578125 40.375 12.03125 44.71875 
Q 8.5 49.078125 8.5 55.328125 
Q 8.5 64.0625 14.71875 69.140625 
Q 20.953125 74.21875 31.78125 74.21875 
Q 42.671875 74.21875 48.875 69.140625 
Q 55.078125 64.0625 55.078125 55.328125 
Q 55.078125 49.078125 51.53125 44.71875 
Q 48 40.375 41.703125 38.8125 
Q 48.828125 37.15625 52.796875 32.3125 
Q 56.78125 27.484375 56.78125 20.515625 
Q 56.78125 9.90625 50.3125 4.234375 
Q 43.84375 -1.421875 31.78125 -1.421875 
Q 19.734375 -1.421875 13.25 4.234375 
Q 6.78125 9.90625 6.78125 20.515625 
Q 6.78125 27.484375 10.78125 32.3125 
Q 14.796875 37.15625 21.921875 38.8125 
z
M 18.3125 54.390625 
Q 18.3125 48.734375 21.84375 45.5625 
Q 25.390625 42.390625 31.78125 42.390625 
Q 38.140625 42.390625 41.71875 45.5625 
Q 45.3125 48.734375 45.3125 54.390625 
Q 45.3125 60.0625 41.71875 63.234375 
Q 38.140625 66.40625 31.78125 66.40625 
Q 25.390625 66.40625 21.84375 63.234375 
Q 18.3125 60.0625 18.3125 54.390625 
z
" id="DejaVuSans-56"/>
      </defs>
      <g transform="translate(216.126724 254.356562)scale(0.1 -0.1)">
       <use xlink:href="#DejaVuSans-48"/>
       <use x="63.623047" xlink:href="#DejaVuSans-46"/>
       <use x="95.410156" xlink:href="#DejaVuSans-56"/>
      </g>
     </g>
    </g>
    <g id="xtick_6">
     <g id="line2d_6">
      <g>
       <use style="stroke:#000000;stroke-width:0.8;" x="263.757375" xlink:href="#mecdedf467a" y="239.758125"/>
      </g>
     </g>
     <g id="text_6">
      <!-- 1.0 -->
      <defs>
       <path d="M 12.40625 8.296875 
L 28.515625 8.296875 
L 28.515625 63.921875 
L 10.984375 60.40625 
L 10.984375 69.390625 
L 28.421875 72.90625 
L 38.28125 72.90625 
L 38.28125 8.296875 
L 54.390625 8.296875 
L 54.390625 0 
L 12.40625 0 
z
" id="DejaVuSans-49"/>
      </defs>
      <g transform="translate(255.805813 254.356562)scale(0.1 -0.1)">
       <use xlink:href="#DejaVuSans-49"/>
       <use x="63.623047" xlink:href="#DejaVuSans-46"/>
       <use x="95.410156" xlink:href="#DejaVuSans-48"/>
      </g>
     </g>
    </g>
    <g id="xtick_7">
     <g id="line2d_7">
      <g>
       <use style="stroke:#000000;stroke-width:0.8;" x="303.436464" xlink:href="#mecdedf467a" y="239.758125"/>
      </g>
     </g>
     <g id="text_7">
      <!-- 1.2 -->
      <g transform="translate(295.484901 254.356562)scale(0.1 -0.1)">
       <use xlink:href="#DejaVuSans-49"/>
       <use x="63.623047" xlink:href="#DejaVuSans-46"/>
       <use x="95.410156" xlink:href="#DejaVuSans-50"/>
      </g>
     </g>
    </g>
    <g id="xtick_8">
     <g id="line2d_8">
      <g>
       <use style="stroke:#000000;stroke-width:0.8;" x="343.115552" xlink:href="#mecdedf467a" y="239.758125"/>
      </g>
     </g>
     <g id="text_8">
      <!-- 1.4 -->
      <g transform="translate(335.16399 254.356562)scale(0.1 -0.1)">
       <use xlink:href="#DejaVuSans-49"/>
       <use x="63.623047" xlink:href="#DejaVuSans-46"/>
       <use x="95.410156" xlink:href="#DejaVuSans-52"/>
      </g>
     </g>
    </g>
    <g id="xtick_9">
     <g id="line2d_9">
      <g>
       <use style="stroke:#000000;stroke-width:0.8;" x="382.794641" xlink:href="#mecdedf467a" y="239.758125"/>
      </g>
     </g>
     <g id="text_9">
      <!-- 1.6 -->
      <g transform="translate(374.843078 254.356562)scale(0.1 -0.1)">
       <use xlink:href="#DejaVuSans-49"/>
       <use x="63.623047" xlink:href="#DejaVuSans-46"/>
       <use x="95.410156" xlink:href="#DejaVuSans-54"/>
      </g>
     </g>
    </g>
    <g id="text_10">
     <!-- Time (ms) -->
     <defs>
      <path d="M -0.296875 72.90625 
L 61.375 72.90625 
L 61.375 64.59375 
L 35.5 64.59375 
L 35.5 0 
L 25.59375 0 
L 25.59375 64.59375 
L -0.296875 64.59375 
z
" id="DejaVuSans-84"/>
      <path d="M 9.421875 54.6875 
L 18.40625 54.6875 
L 18.40625 0 
L 9.421875 0 
z
M 9.421875 75.984375 
L 18.40625 75.984375 
L 18.40625 64.59375 
L 9.421875 64.59375 
z
" id="DejaVuSans-105"/>
      <path d="M 52 44.1875 
Q 55.375 50.25 60.0625 53.125 
Q 64.75 56 71.09375 56 
Q 79.640625 56 84.28125 50.015625 
Q 88.921875 44.046875 88.921875 33.015625 
L 88.921875 0 
L 79.890625 0 
L 79.890625 32.71875 
Q 79.890625 40.578125 77.09375 44.375 
Q 74.3125 48.1875 68.609375 48.1875 
Q 61.625 48.1875 57.5625 43.546875 
Q 53.515625 38.921875 53.515625 30.90625 
L 53.515625 0 
L 44.484375 0 
L 44.484375 32.71875 
Q 44.484375 40.625 41.703125 44.40625 
Q 38.921875 48.1875 33.109375 48.1875 
Q 26.21875 48.1875 22.15625 43.53125 
Q 18.109375 38.875 18.109375 30.90625 
L 18.109375 0 
L 9.078125 0 
L 9.078125 54.6875 
L 18.109375 54.6875 
L 18.109375 46.1875 
Q 21.1875 51.21875 25.484375 53.609375 
Q 29.78125 56 35.6875 56 
Q 41.65625 56 45.828125 52.96875 
Q 50 49.953125 52 44.1875 
z
" id="DejaVuSans-109"/>
      <path d="M 56.203125 29.59375 
L 56.203125 25.203125 
L 14.890625 25.203125 
Q 15.484375 15.921875 20.484375 11.0625 
Q 25.484375 6.203125 34.421875 6.203125 
Q 39.59375 6.203125 44.453125 7.46875 
Q 49.3125 8.734375 54.109375 11.28125 
L 54.109375 2.78125 
Q 49.265625 0.734375 44.1875 -0.34375 
Q 39.109375 -1.421875 33.890625 -1.421875 
Q 20.796875 -1.421875 13.15625 6.1875 
Q 5.515625 13.8125 5.515625 26.8125 
Q 5.515625 40.234375 12.765625 48.109375 
Q 20.015625 56 32.328125 56 
Q 43.359375 56 49.78125 48.890625 
Q 56.203125 41.796875 56.203125 29.59375 
z
M 47.21875 32.234375 
Q 47.125 39.59375 43.09375 43.984375 
Q 39.0625 48.390625 32.421875 48.390625 
Q 24.90625 48.390625 20.390625 44.140625 
Q 15.875 39.890625 15.1875 32.171875 
z
" id="DejaVuSans-101"/>
      <path id="DejaVuSans-32"/>
      <path d="M 31 75.875 
Q 24.46875 64.65625 21.28125 53.65625 
Q 18.109375 42.671875 18.109375 31.390625 
Q 18.109375 20.125 21.3125 9.0625 
Q 24.515625 -2 31 -13.1875 
L 23.1875 -13.1875 
Q 15.875 -1.703125 12.234375 9.375 
Q 8.59375 20.453125 8.59375 31.390625 
Q 8.59375 42.28125 12.203125 53.3125 
Q 15.828125 64.359375 23.1875 75.875 
z
" id="DejaVuSans-40"/>
      <path d="M 44.28125 53.078125 
L 44.28125 44.578125 
Q 40.484375 46.53125 36.375 47.5 
Q 32.28125 48.484375 27.875 48.484375 
Q 21.1875 48.484375 17.84375 46.4375 
Q 14.5 44.390625 14.5 40.28125 
Q 14.5 37.15625 16.890625 35.375 
Q 19.28125 33.59375 26.515625 31.984375 
L 29.59375 31.296875 
Q 39.15625 29.25 43.1875 25.515625 
Q 47.21875 21.78125 47.21875 15.09375 
Q 47.21875 7.46875 41.1875 3.015625 
Q 35.15625 -1.421875 24.609375 -1.421875 
Q 20.21875 -1.421875 15.453125 -0.5625 
Q 10.6875 0.296875 5.421875 2 
L 5.421875 11.28125 
Q 10.40625 8.6875 15.234375 7.390625 
Q 20.0625 6.109375 24.8125 6.109375 
Q 31.15625 6.109375 34.5625 8.28125 
Q 37.984375 10.453125 37.984375 14.40625 
Q 37.984375 18.0625 35.515625 20.015625 
Q 33.0625 21.96875 24.703125 23.78125 
L 21.578125 24.515625 
Q 13.234375 26.265625 9.515625 29.90625 
Q 5.8125 33.546875 5.8125 39.890625 
Q 5.8125 47.609375 11.28125 51.796875 
Q 16.75 56 26.8125 56 
Q 31.78125 56 36.171875 55.265625 
Q 40.578125 54.546875 44.28125 53.078125 
z
" id="DejaVuSans-115"/>
      <path d="M 8.015625 75.875 
L 15.828125 75.875 
Q 23.140625 64.359375 26.78125 53.3125 
Q 30.421875 42.28125 30.421875 31.390625 
Q 30.421875 20.453125 26.78125 9.375 
Q 23.140625 -1.703125 15.828125 -13.1875 
L 8.015625 -13.1875 
Q 14.5 -2 17.703125 9.0625 
Q 20.90625 20.125 20.90625 31.390625 
Q 20.90625 42.671875 17.703125 53.65625 
Q 14.5 64.65625 8.015625 75.875 
z
" id="DejaVuSans-41"/>
     </defs>
     <g transform="translate(192.190625 268.034687)scale(0.1 -0.1)">
      <use xlink:href="#DejaVuSans-84"/>
      <use x="61.037109" xlink:href="#DejaVuSans-105"/>
      <use x="88.820312" xlink:href="#DejaVuSans-109"/>
      <use x="186.232422" xlink:href="#DejaVuSans-101"/>
      <use x="247.755859" xlink:href="#DejaVuSans-32"/>
      <use x="279.542969" xlink:href="#DejaVuSans-40"/>
      <use x="318.556641" xlink:href="#DejaVuSans-109"/>
      <use x="415.96875" xlink:href="#DejaVuSans-115"/>
      <use x="468.068359" xlink:href="#DejaVuSans-41"/>
     </g>
    </g>
   </g>
   <g id="matplotlib.axis_2">
    <g id="ytick_1">
     <g id="line2d_10">
      <defs>
       <path d="M 0 0 
L -3.5 0 
" id="md05a76b052" style="stroke:#000000;stroke-width:0.8;"/>
      </defs>
      <g>
       <use style="stroke:#000000;stroke-width:0.8;" x="50.14375" xlink:href="#md05a76b052" y="233.391766"/>
      </g>
     </g>
     <g id="text_11">
      <!-- 0.00 -->
      <g transform="translate(20.878125 237.190985)scale(0.1 -0.1)">
       <use xlink:href="#DejaVuSans-48"/>
       <use x="63.623047" xlink:href="#DejaVuSans-46"/>
       <use x="95.410156" xlink:href="#DejaVuSans-48"/>
       <use x="159.033203" xlink:href="#DejaVuSans-48"/>
      </g>
     </g>
    </g>
    <g id="ytick_2">
     <g id="line2d_11">
      <g>
       <use style="stroke:#000000;stroke-width:0.8;" x="50.14375" xlink:href="#md05a76b052" y="207.946263"/>
      </g>
     </g>
     <g id="text_12">
      <!-- 0.05 -->
      <defs>
       <path d="M 10.796875 72.90625 
L 49.515625 72.90625 
L 49.515625 64.59375 
L 19.828125 64.59375 
L 19.828125 46.734375 
Q 21.96875 47.46875 24.109375 47.828125 
Q 26.265625 48.1875 28.421875 48.1875 
Q 40.625 48.1875 47.75 41.5 
Q 54.890625 34.8125 54.890625 23.390625 
Q 54.890625 11.625 47.5625 5.09375 
Q 40.234375 -1.421875 26.90625 -1.421875 
Q 22.3125 -1.421875 17.546875 -0.640625 
Q 12.796875 0.140625 7.71875 1.703125 
L 7.71875 11.625 
Q 12.109375 9.234375 16.796875 8.0625 
Q 21.484375 6.890625 26.703125 6.890625 
Q 35.15625 6.890625 40.078125 11.328125 
Q 45.015625 15.765625 45.015625 23.390625 
Q 45.015625 31 40.078125 35.4375 
Q 35.15625 39.890625 26.703125 39.890625 
Q 22.75 39.890625 18.8125 39.015625 
Q 14.890625 38.140625 10.796875 36.28125 
z
" id="DejaVuSans-53"/>
      </defs>
      <g transform="translate(20.878125 211.745481)scale(0.1 -0.1)">
       <use xlink:href="#DejaVuSans-48"/>
       <use x="63.623047" xlink:href="#DejaVuSans-46"/>
       <use x="95.410156" xlink:href="#DejaVuSans-48"/>
       <use x="159.033203" xlink:href="#DejaVuSans-53"/>
      </g>
     </g>
    </g>
    <g id="ytick_3">
     <g id="line2d_12">
      <g>
       <use style="stroke:#000000;stroke-width:0.8;" x="50.14375" xlink:href="#md05a76b052" y="182.500759"/>
      </g>
     </g>
     <g id="text_13">
      <!-- 0.10 -->
      <g transform="translate(20.878125 186.299978)scale(0.1 -0.1)">
       <use xlink:href="#DejaVuSans-48"/>
       <use x="63.623047" xlink:href="#DejaVuSans-46"/>
       <use x="95.410156" xlink:href="#DejaVuSans-49"/>
       <use x="159.033203" xlink:href="#DejaVuSans-48"/>
      </g>
     </g>
    </g>
    <g id="ytick_4">
     <g id="line2d_13">
      <g>
       <use style="stroke:#000000;stroke-width:0.8;" x="50.14375" xlink:href="#md05a76b052" y="157.055256"/>
      </g>
     </g>
     <g id="text_14">
      <!-- 0.15 -->
      <g transform="translate(20.878125 160.854475)scale(0.1 -0.1)">
       <use xlink:href="#DejaVuSans-48"/>
       <use x="63.623047" xlink:href="#DejaVuSans-46"/>
       <use x="95.410156" xlink:href="#DejaVuSans-49"/>
       <use x="159.033203" xlink:href="#DejaVuSans-53"/>
      </g>
     </g>
    </g>
    <g id="ytick_5">
     <g id="line2d_14">
      <g>
       <use style="stroke:#000000;stroke-width:0.8;" x="50.14375" xlink:href="#md05a76b052" y="131.609753"/>
      </g>
     </g>
     <g id="text_15">
      <!-- 0.20 -->
      <g transform="translate(20.878125 135.408971)scale(0.1 -0.1)">
       <use xlink:href="#DejaVuSans-48"/>
       <use x="63.623047" xlink:href="#DejaVuSans-46"/>
       <use x="95.410156" xlink:href="#DejaVuSans-50"/>
       <use x="159.033203" xlink:href="#DejaVuSans-48"/>
      </g>
     </g>
    </g>
    <g id="ytick_6">
     <g id="line2d_15">
      <g>
       <use style="stroke:#000000;stroke-width:0.8;" x="50.14375" xlink:href="#md05a76b052" y="106.164249"/>
      </g>
     </g>
     <g id="text_16">
      <!-- 0.25 -->
      <g transform="translate(20.878125 109.963468)scale(0.1 -0.1)">
       <use xlink:href="#DejaVuSans-48"/>
       <use x="63.623047" xlink:href="#DejaVuSans-46"/>
       <use x="95.410156" xlink:href="#DejaVuSans-50"/>
       <use x="159.033203" xlink:href="#DejaVuSans-53"/>
      </g>
     </g>
    </g>
    <g id="ytick_7">
     <g id="line2d_16">
      <g>
       <use style="stroke:#000000;stroke-width:0.8;" x="50.14375" xlink:href="#md05a76b052" y="80.718746"/>
      </g>
     </g>
     <g id="text_17">
      <!-- 0.30 -->
      <defs>
       <path d="M 40.578125 39.3125 
Q 47.65625 37.796875 51.625 33 
Q 55.609375 28.21875 55.609375 21.1875 
Q 55.609375 10.40625 48.1875 4.484375 
Q 40.765625 -1.421875 27.09375 -1.421875 
Q 22.515625 -1.421875 17.65625 -0.515625 
Q 12.796875 0.390625 7.625 2.203125 
L 7.625 11.71875 
Q 11.71875 9.328125 16.59375 8.109375 
Q 21.484375 6.890625 26.8125 6.890625 
Q 36.078125 6.890625 40.9375 10.546875 
Q 45.796875 14.203125 45.796875 21.1875 
Q 45.796875 27.640625 41.28125 31.265625 
Q 36.765625 34.90625 28.71875 34.90625 
L 20.21875 34.90625 
L 20.21875 43.015625 
L 29.109375 43.015625 
Q 36.375 43.015625 40.234375 45.921875 
Q 44.09375 48.828125 44.09375 54.296875 
Q 44.09375 59.90625 40.109375 62.90625 
Q 36.140625 65.921875 28.71875 65.921875 
Q 24.65625 65.921875 20.015625 65.03125 
Q 15.375 64.15625 9.8125 62.3125 
L 9.8125 71.09375 
Q 15.4375 72.65625 20.34375 73.4375 
Q 25.25 74.21875 29.59375 74.21875 
Q 40.828125 74.21875 47.359375 69.109375 
Q 53.90625 64.015625 53.90625 55.328125 
Q 53.90625 49.265625 50.4375 45.09375 
Q 46.96875 40.921875 40.578125 39.3125 
z
" id="DejaVuSans-51"/>
      </defs>
      <g transform="translate(20.878125 84.517965)scale(0.1 -0.1)">
       <use xlink:href="#DejaVuSans-48"/>
       <use x="63.623047" xlink:href="#DejaVuSans-46"/>
       <use x="95.410156" xlink:href="#DejaVuSans-51"/>
       <use x="159.033203" xlink:href="#DejaVuSans-48"/>
      </g>
     </g>
    </g>
    <g id="ytick_8">
     <g id="line2d_17">
      <g>
       <use style="stroke:#000000;stroke-width:0.8;" x="50.14375" xlink:href="#md05a76b052" y="55.273243"/>
      </g>
     </g>
     <g id="text_18">
      <!-- 0.35 -->
      <g transform="translate(20.878125 59.072461)scale(0.1 -0.1)">
       <use xlink:href="#DejaVuSans-48"/>
       <use x="63.623047" xlink:href="#DejaVuSans-46"/>
       <use x="95.410156" xlink:href="#DejaVuSans-51"/>
       <use x="159.033203" xlink:href="#DejaVuSans-53"/>
      </g>
     </g>
    </g>
    <g id="ytick_9">
     <g id="line2d_18">
      <g>
       <use style="stroke:#000000;stroke-width:0.8;" x="50.14375" xlink:href="#md05a76b052" y="29.827739"/>
      </g>
     </g>
     <g id="text_19">
      <!-- 0.40 -->
      <g transform="translate(20.878125 33.626958)scale(0.1 -0.1)">
       <use xlink:href="#DejaVuSans-48"/>
       <use x="63.623047" xlink:href="#DejaVuSans-46"/>
       <use x="95.410156" xlink:href="#DejaVuSans-52"/>
       <use x="159.033203" xlink:href="#DejaVuSans-48"/>
      </g>
     </g>
    </g>
    <g id="text_20">
     <!-- ppmH -->
     <defs>
      <path d="M 18.109375 8.203125 
L 18.109375 -20.796875 
L 9.078125 -20.796875 
L 9.078125 54.6875 
L 18.109375 54.6875 
L 18.109375 46.390625 
Q 20.953125 51.265625 25.265625 53.625 
Q 29.59375 56 35.59375 56 
Q 45.5625 56 51.78125 48.09375 
Q 58.015625 40.1875 58.015625 27.296875 
Q 58.015625 14.40625 51.78125 6.484375 
Q 45.5625 -1.421875 35.59375 -1.421875 
Q 29.59375 -1.421875 25.265625 0.953125 
Q 20.953125 3.328125 18.109375 8.203125 
z
M 48.6875 27.296875 
Q 48.6875 37.203125 44.609375 42.84375 
Q 40.53125 48.484375 33.40625 48.484375 
Q 26.265625 48.484375 22.1875 42.84375 
Q 18.109375 37.203125 18.109375 27.296875 
Q 18.109375 17.390625 22.1875 11.75 
Q 26.265625 6.109375 33.40625 6.109375 
Q 40.53125 6.109375 44.609375 11.75 
Q 48.6875 17.390625 48.6875 27.296875 
z
" id="DejaVuSans-112"/>
      <path d="M 9.8125 72.90625 
L 19.671875 72.90625 
L 19.671875 43.015625 
L 55.515625 43.015625 
L 55.515625 72.90625 
L 65.375 72.90625 
L 65.375 0 
L 55.515625 0 
L 55.515625 34.71875 
L 19.671875 34.71875 
L 19.671875 0 
L 9.8125 0 
z
" id="DejaVuSans-72"/>
     </defs>
     <g transform="translate(14.798438 146.017031)rotate(-90)scale(0.1 -0.1)">
      <use xlink:href="#DejaVuSans-112"/>
      <use x="63.476562" xlink:href="#DejaVuSans-112"/>
      <use x="126.953125" xlink:href="#DejaVuSans-109"/>
      <use x="224.365234" xlink:href="#DejaVuSans-72"/>
     </g>
    </g>
   </g>
   <g id="line2d_19">
    <path clip-path="url(#p2b01ef5809)" d="M 65.361932 32.37227 
L 65.36268 32.376377 
L 65.370167 32.417447 
L 65.377653 32.458509 
L 65.385139 32.499562 
L 65.400709 32.584919 
L 65.428991 32.739872 
L 65.479997 33.019026 
L 65.584184 33.588018 
L 65.688371 34.155383 
L 65.792558 34.721123 
L 65.958011 35.616217 
L 66.123465 36.507243 
L 66.288919 37.394222 
L 66.454372 38.277172 
L 66.752265 39.856789 
L 67.050158 41.423508 
L 67.34805 42.977433 
L 67.645943 44.518667 
L 68.12111 46.95107 
L 68.596277 49.351855 
L 69.071445 51.721428 
L 69.546612 54.06019 
L 70.371567 58.04859 
L 71.196523 61.947344 
L 72.021479 65.758441 
L 72.846435 69.483829 
L 73.67139 73.125409 
L 74.960352 78.651881 
L 76.249314 83.985187 
L 77.538276 89.131991 
L 78.827238 94.098729 
L 80.1162 98.891617 
L 81.405162 103.516657 
L 82.694124 107.979649 
L 83.983086 112.286193 
L 86.47711 120.194732 
L 88.095081 125.040499 
L 89.713052 129.673549 
L 91.331023 134.103093 
L 92.948995 138.337947 
L 94.566966 142.386547 
L 96.184937 146.256967 
L 97.802908 149.956936 
L 100.858494 156.505434 
L 103.037169 160.845323 
L 105.215844 164.929132 
L 107.394519 168.771756 
L 109.573194 172.387238 
L 111.75187 175.788813 
L 113.930545 178.988963 
L 116.10922 181.999448 
L 118.287895 184.831353 
L 120.46657 187.495124 
L 122.645245 190.000607 
L 124.82392 192.35708 
L 127.002595 194.573285 
L 129.18127 196.657459 
L 131.359946 198.617366 
L 133.538621 200.460317 
L 135.717296 202.193201 
L 137.895971 203.82251 
L 140.074646 205.354356 
L 142.253321 206.794498 
L 144.431996 208.148361 
L 146.610671 209.421052 
L 148.789346 210.617385 
L 150.968021 211.741888 
L 153.146697 212.79883 
L 156.446004 214.279689 
L 159.745312 215.627705 
L 163.04462 216.854692 
L 166.343927 217.971432 
L 169.643235 218.987762 
L 172.942543 219.912657 
L 176.24185 220.754303 
L 179.541158 221.520169 
L 182.840466 222.217065 
L 186.139774 222.851201 
L 189.439081 223.42824 
L 192.738389 223.953342 
L 196.037697 224.431211 
L 199.337004 224.866136 
L 202.636312 225.262022 
L 205.93562 225.622429 
L 209.234927 225.950598 
L 212.534235 226.249482 
L 215.833543 226.521769 
L 219.132851 226.769909 
L 222.432158 226.996128 
L 225.731466 227.202456 
L 229.030774 227.390738 
L 232.330081 227.562653 
L 237.290577 227.793643 
L 242.251073 227.995671 
L 247.211569 228.17274 
L 252.172065 228.328315 
L 257.132561 228.465398 
L 262.093058 228.586584 
L 267.053554 228.694117 
L 272.01405 228.789936 
L 276.974546 228.875718 
L 281.935042 228.952909 
L 286.895538 229.022754 
L 291.856034 229.086327 
L 296.81653 229.144552 
L 301.777026 229.198223 
L 306.737522 229.248023 
L 314.236817 229.317234 
L 321.736113 229.380577 
L 329.235408 229.439371 
L 336.734703 229.494649 
L 344.233999 229.547215 
L 351.733294 229.597691 
L 359.232589 229.646557 
L 366.731885 229.694178 
" style="fill:none;stroke:#0000ff;stroke-linecap:square;stroke-width:1.5;"/>
   </g>
   <g id="line2d_20">
    <path clip-path="url(#p2b01ef5809)" d="M 65.361932 32.201761 
L 65.362644 32.205871 
L 65.369762 32.24696 
L 65.37688 32.288043 
L 65.383999 32.329116 
L 65.398885 32.414987 
L 65.425972 32.571134 
L 65.474838 32.852531 
L 65.574432 33.424816 
L 65.674027 33.995456 
L 65.773621 34.564455 
L 65.932423 35.468334 
L 66.091225 36.368069 
L 66.250027 37.263681 
L 66.408829 38.155188 
L 66.757349 40.097471 
L 67.10587 42.020269 
L 67.680228 45.147014 
L 68.254586 48.222221 
L 68.828944 51.246729 
L 69.403302 54.221364 
L 69.97766 57.14694 
L 70.848459 61.490687 
L 71.719258 65.726225 
L 72.590058 69.856216 
L 73.460857 73.883259 
L 74.331656 77.809889 
L 75.202456 81.638577 
L 77.01936 89.322207 
L 78.836264 96.610996 
L 80.172036 101.729483 
L 81.507807 106.653014 
L 83.698714 114.325524 
L 85.197478 119.299303 
L 86.696243 124.060623 
L 88.672776 130.029984 
L 90.64931 135.664927 
L 92.625844 140.98394 
L 94.602377 146.004505 
L 96.578911 150.743151 
L 98.555444 155.215499 
L 101.563455 161.543807 
L 104.571466 167.337853 
L 107.579477 172.642162 
L 110.587488 177.4976 
L 113.595498 181.941667 
L 116.603509 186.00877 
L 119.61152 189.730477 
L 122.619531 193.135752 
L 125.627542 196.251162 
L 128.635553 199.101076 
L 131.643563 201.707844 
L 134.651574 204.09196 
L 137.659585 206.272217 
L 140.667596 208.265845 
L 143.675607 210.088639 
L 146.683617 211.755077 
L 149.691628 213.27843 
L 152.699639 214.670857 
L 155.70765 215.943503 
L 158.715661 217.106577 
L 161.723672 218.169434 
L 164.731682 219.140641 
L 167.739693 220.028046 
L 170.747704 220.838837 
L 173.755715 221.579594 
L 176.763726 222.256344 
L 179.771737 222.874604 
L 182.779747 223.439423 
L 185.787758 223.955423 
L 188.795769 224.426835 
L 191.80378 224.85753 
L 194.811791 225.251049 
L 197.819802 225.610633 
L 200.827812 225.939244 
L 203.835823 226.239595 
L 206.843834 226.514163 
L 209.851845 226.765215 
L 212.859856 226.994824 
L 215.867866 227.204883 
L 218.875877 227.397123 
L 223.458761 227.65929 
L 228.041646 227.888732 
L 232.62453 228.089805 
L 237.207414 228.266303 
L 241.790298 228.421528 
L 246.373182 228.558351 
L 250.956067 228.67927 
L 255.538951 228.786456 
L 260.121835 228.881797 
L 264.704719 228.96693 
L 269.287603 229.043277 
L 273.870487 229.112069 
L 278.453372 229.174374 
L 283.036256 229.231117 
L 287.61914 229.283097 
L 292.202024 229.331005 
L 299.249619 229.398078 
L 306.297214 229.458709 
L 313.344809 229.514332 
L 320.392404 229.56608 
L 327.439999 229.614844 
L 334.487594 229.661318 
L 341.535189 229.706045 
L 348.582783 229.749442 
L 355.630378 229.791831 
L 362.677973 229.833454 
L 369.725568 229.874489 
" style="fill:none;stroke:#ff0000;stroke-linecap:square;stroke-width:1.5;"/>
   </g>
   <g id="line2d_21">
    <defs>
     <path d="M 0 3 
C 0.795609 3 1.55874 2.683901 2.12132 2.12132 
C 2.683901 1.55874 3 0.795609 3 0 
C 3 -0.795609 2.683901 -1.55874 2.12132 -2.12132 
C 1.55874 -2.683901 0.795609 -3 0 -3 
C -0.795609 -3 -1.55874 -2.683901 -2.12132 -2.12132 
C -2.683901 -1.55874 -3 -0.795609 -3 0 
C -3 0.795609 -2.683901 1.55874 -2.12132 2.12132 
C -1.55874 2.683901 -0.795609 3 0 3 
z
" id="m5e32619db2" style="stroke:#000000;"/>
    </defs>
    <g clip-path="url(#p2b01ef5809)">
     <use style="stroke:#000000;" x="65.361932" xlink:href="#m5e32619db2" y="32.201761"/>
     <use style="stroke:#000000;" x="65.36265" xlink:href="#m5e32619db2" y="32.205673"/>
     <use style="stroke:#000000;" x="65.369836" xlink:href="#m5e32619db2" y="32.244779"/>
     <use style="stroke:#000000;" x="65.377021" xlink:href="#m5e32619db2" y="32.283879"/>
     <use style="stroke:#000000;" x="65.389433" xlink:href="#m5e32619db2" y="32.351406"/>
     <use style="stroke:#000000;" x="65.410644" xlink:href="#m5e32619db2" y="32.466751"/>
     <use style="stroke:#000000;" x="65.447377" xlink:href="#m5e32619db2" y="32.666345"/>
     <use style="stroke:#000000;" x="65.512391" xlink:href="#m5e32619db2" y="33.019119"/>
     <use style="stroke:#000000;" x="65.643814" xlink:href="#m5e32619db2" y="33.730354"/>
     <use style="stroke:#000000;" x="65.775237" xlink:href="#m5e32619db2" y="34.439065"/>
     <use style="stroke:#000000;" x="65.906661" xlink:href="#m5e32619db2" y="35.14526"/>
     <use style="stroke:#000000;" x="66.117941" xlink:href="#m5e32619db2" y="36.275311"/>
     <use style="stroke:#000000;" x="66.329222" xlink:href="#m5e32619db2" y="37.398916"/>
     <use style="stroke:#000000;" x="66.540503" xlink:href="#m5e32619db2" y="38.516112"/>
     <use style="stroke:#000000;" x="66.751783" xlink:href="#m5e32619db2" y="39.626936"/>
     <use style="stroke:#000000;" x="67.2145" xlink:href="#m5e32619db2" y="42.037621"/>
     <use style="stroke:#000000;" x="67.677216" xlink:href="#m5e32619db2" y="44.418295"/>
     <use style="stroke:#000000;" x="68.430249" xlink:href="#m5e32619db2" y="48.229442"/>
     <use style="stroke:#000000;" x="69.183283" xlink:href="#m5e32619db2" y="51.963657"/>
     <use style="stroke:#000000;" x="69.936316" xlink:href="#m5e32619db2" y="55.622486"/>
     <use style="stroke:#000000;" x="70.689349" xlink:href="#m5e32619db2" y="59.207436"/>
     <use style="stroke:#000000;" x="71.442382" xlink:href="#m5e32619db2" y="62.719988"/>
     <use style="stroke:#000000;" x="72.584673" xlink:href="#m5e32619db2" y="67.913273"/>
     <use style="stroke:#000000;" x="73.726963" xlink:href="#m5e32619db2" y="72.948235"/>
     <use style="stroke:#000000;" x="74.869253" xlink:href="#m5e32619db2" y="77.829665"/>
     <use style="stroke:#000000;" x="76.011544" xlink:href="#m5e32619db2" y="82.562213"/>
     <use style="stroke:#000000;" x="77.153834" xlink:href="#m5e32619db2" y="87.150391"/>
     <use style="stroke:#000000;" x="78.296125" xlink:href="#m5e32619db2" y="91.598575"/>
     <use style="stroke:#000000;" x="81.520437" xlink:href="#m5e32619db2" y="103.435403"/>
     <use style="stroke:#000000;" x="83.466129" xlink:href="#m5e32619db2" y="110.092883"/>
     <use style="stroke:#000000;" x="85.411821" xlink:href="#m5e32619db2" y="116.407729"/>
     <use style="stroke:#000000;" x="87.357514" xlink:href="#m5e32619db2" y="122.397494"/>
     <use style="stroke:#000000;" x="89.303206" xlink:href="#m5e32619db2" y="128.078842"/>
     <use style="stroke:#000000;" x="91.248898" xlink:href="#m5e32619db2" y="133.467585"/>
     <use style="stroke:#000000;" x="93.194591" xlink:href="#m5e32619db2" y="138.578722"/>
     <use style="stroke:#000000;" x="95.140283" xlink:href="#m5e32619db2" y="143.426495"/>
     <use style="stroke:#000000;" x="98.126481" xlink:href="#m5e32619db2" y="150.38521"/>
     <use style="stroke:#000000;" x="101.112678" xlink:href="#m5e32619db2" y="156.800978"/>
     <use style="stroke:#000000;" x="104.098876" xlink:href="#m5e32619db2" y="162.716032"/>
     <use style="stroke:#000000;" x="107.085073" xlink:href="#m5e32619db2" y="168.169338"/>
     <use style="stroke:#000000;" x="110.071271" xlink:href="#m5e32619db2" y="173.19684"/>
     <use style="stroke:#000000;" x="113.057468" xlink:href="#m5e32619db2" y="177.831698"/>
     <use style="stroke:#000000;" x="116.043666" xlink:href="#m5e32619db2" y="182.104504"/>
     <use style="stroke:#000000;" x="119.029863" xlink:href="#m5e32619db2" y="186.043482"/>
     <use style="stroke:#000000;" x="122.016061" xlink:href="#m5e32619db2" y="189.674661"/>
    </g>
   </g>
   <g id="line2d_22">
    <path clip-path="url(#p2b01ef5809)" d="M 65.361932 32.37227 
L 65.36265 32.375889 
L 65.369836 32.412078 
L 65.377021 32.448261 
L 65.389433 32.510748 
L 65.410644 32.617484 
L 65.447377 32.802175 
L 65.512391 33.128565 
L 65.643814 33.786959 
L 65.775237 34.443281 
L 65.906661 35.097017 
L 66.117941 36.144332 
L 66.329222 37.185395 
L 66.540503 38.220255 
L 66.751783 39.251885 
L 67.2145 41.487614 
L 67.677216 43.699491 
L 68.430249 47.240713 
L 69.183283 50.718498 
L 69.936316 54.121248 
L 70.689349 57.46902 
L 71.442382 60.754249 
L 72.584673 65.617414 
L 73.726963 70.347172 
L 74.869253 74.934602 
L 76.011544 79.385472 
L 77.153834 83.711973 
L 78.296125 87.917442 
L 81.520437 99.17248 
L 83.466129 105.510442 
L 85.411821 111.503887 
L 87.357514 117.297118 
L 89.303206 122.778546 
L 91.248898 128.00311 
L 93.194591 132.952486 
L 95.140283 137.6604 
L 98.126481 144.451055 
L 101.112678 150.762879 
L 104.098876 156.578486 
L 107.085073 162.000982 
L 110.071271 167.001881 
L 113.057468 171.632079 
L 116.043666 175.9477 
L 119.029863 179.905436 
L 122.016061 183.588728 
" style="fill:none;stroke:#0000ff;stroke-dasharray:5.55,2.4;stroke-dashoffset:0;stroke-width:1.5;"/>
   </g>
   <g id="line2d_23">
    <path clip-path="url(#p2b01ef5809)" d="M 65.361932 32.37227 
L 65.36265 32.376535 
L 65.369836 32.419182 
L 65.377021 32.461821 
L 65.389433 32.535454 
L 65.410644 32.661222 
L 65.447377 32.878818 
L 65.512391 33.263284 
L 65.643814 34.038445 
L 65.775237 34.810693 
L 65.906661 35.579515 
L 66.117941 36.8101 
L 66.329222 38.032297 
L 66.540503 39.246176 
L 66.751783 40.454719 
L 67.2145 43.07067 
L 67.677216 45.652966 
L 68.430249 49.776587 
L 69.183283 53.812077 
L 69.936316 57.748785 
L 70.689349 61.607215 
L 71.442382 65.380641 
L 72.584673 70.943132 
L 73.726963 76.324377 
L 74.869253 81.518137 
L 76.011544 86.532369 
L 77.153834 91.381031 
L 78.296125 96.069429 
L 81.520437 108.491473 
L 83.466129 115.408227 
L 85.411821 121.89795 
L 87.357514 128.10207 
L 89.303206 133.92543 
L 91.248898 139.425881 
L 93.194591 144.594076 
L 95.140283 149.467222 
L 98.126481 156.417623 
L 101.112678 162.788072 
L 104.098876 168.582713 
L 107.085073 173.908169 
L 110.071271 178.755777 
L 113.057468 183.183546 
L 116.043666 187.251421 
L 119.029863 190.935473 
L 122.016061 194.315661 
" style="fill:none;stroke:#0000ff;stroke-dasharray:5.55,2.4;stroke-dashoffset:0;stroke-width:1.5;"/>
   </g>
   <g id="line2d_24"/>
   <g id="line2d_25"/>
   <g id="line2d_26"/>
   <g id="line2d_27"/>
   <g id="line2d_28"/>
   <g id="line2d_29"/>
   <g id="line2d_30"/>
   <g id="patch_3">
    <path d="M 50.14375 239.758125 
L 50.14375 22.318125 
" style="fill:none;stroke:#000000;stroke-linecap:square;stroke-linejoin:miter;stroke-width:0.8;"/>
   </g>
   <g id="patch_4">
    <path d="M 384.94375 239.758125 
L 384.94375 22.318125 
" style="fill:none;stroke:#000000;stroke-linecap:square;stroke-linejoin:miter;stroke-width:0.8;"/>
   </g>
   <g id="patch_5">
    <path d="M 50.14375 239.758125 
L 384.94375 239.758125 
" style="fill:none;stroke:#000000;stroke-linecap:square;stroke-linejoin:miter;stroke-width:0.8;"/>
   </g>
   <g id="patch_6">
    <path d="M 50.14375 22.318125 
L 384.94375 22.318125 
" style="fill:none;stroke:#000000;stroke-linecap:square;stroke-linejoin:miter;stroke-width:0.8;"/>
   </g>
   <g id="text_21">
    <!-- Experiment_1 -->
    <defs>
     <path d="M 9.8125 72.90625 
L 55.90625 72.90625 
L 55.90625 64.59375 
L 19.671875 64.59375 
L 19.671875 43.015625 
L 54.390625 43.015625 
L 54.390625 34.71875 
L 19.671875 34.71875 
L 19.671875 8.296875 
L 56.78125 8.296875 
L 56.78125 0 
L 9.8125 0 
z
" id="DejaVuSans-69"/>
     <path d="M 54.890625 54.6875 
L 35.109375 28.078125 
L 55.90625 0 
L 45.3125 0 
L 29.390625 21.484375 
L 13.484375 0 
L 2.875 0 
L 24.125 28.609375 
L 4.6875 54.6875 
L 15.28125 54.6875 
L 29.78125 35.203125 
L 44.28125 54.6875 
z
" id="DejaVuSans-120"/>
     <path d="M 41.109375 46.296875 
Q 39.59375 47.171875 37.8125 47.578125 
Q 36.03125 48 33.890625 48 
Q 26.265625 48 22.1875 43.046875 
Q 18.109375 38.09375 18.109375 28.8125 
L 18.109375 0 
L 9.078125 0 
L 9.078125 54.6875 
L 18.109375 54.6875 
L 18.109375 46.1875 
Q 20.953125 51.171875 25.484375 53.578125 
Q 30.03125 56 36.53125 56 
Q 37.453125 56 38.578125 55.875 
Q 39.703125 55.765625 41.0625 55.515625 
z
" id="DejaVuSans-114"/>
     <path d="M 54.890625 33.015625 
L 54.890625 0 
L 45.90625 0 
L 45.90625 32.71875 
Q 45.90625 40.484375 42.875 44.328125 
Q 39.84375 48.1875 33.796875 48.1875 
Q 26.515625 48.1875 22.3125 43.546875 
Q 18.109375 38.921875 18.109375 30.90625 
L 18.109375 0 
L 9.078125 0 
L 9.078125 54.6875 
L 18.109375 54.6875 
L 18.109375 46.1875 
Q 21.34375 51.125 25.703125 53.5625 
Q 30.078125 56 35.796875 56 
Q 45.21875 56 50.046875 50.171875 
Q 54.890625 44.34375 54.890625 33.015625 
z
" id="DejaVuSans-110"/>
     <path d="M 18.3125 70.21875 
L 18.3125 54.6875 
L 36.8125 54.6875 
L 36.8125 47.703125 
L 18.3125 47.703125 
L 18.3125 18.015625 
Q 18.3125 11.328125 20.140625 9.421875 
Q 21.96875 7.515625 27.59375 7.515625 
L 36.8125 7.515625 
L 36.8125 0 
L 27.59375 0 
Q 17.1875 0 13.234375 3.875 
Q 9.28125 7.765625 9.28125 18.015625 
L 9.28125 47.703125 
L 2.6875 47.703125 
L 2.6875 54.6875 
L 9.28125 54.6875 
L 9.28125 70.21875 
z
" id="DejaVuSans-116"/>
     <path d="M 50.984375 -16.609375 
L 50.984375 -23.578125 
L -0.984375 -23.578125 
L -0.984375 -16.609375 
z
" id="DejaVuSans-95"/>
    </defs>
    <g transform="translate(176.058438 16.318125)scale(0.12 -0.12)">
     <use xlink:href="#DejaVuSans-69"/>
     <use x="63.183594" xlink:href="#DejaVuSans-120"/>
     <use x="122.363281" xlink:href="#DejaVuSans-112"/>
     <use x="185.839844" xlink:href="#DejaVuSans-101"/>
     <use x="247.363281" xlink:href="#DejaVuSans-114"/>
     <use x="288.476562" xlink:href="#DejaVuSans-105"/>
     <use x="316.259766" xlink:href="#DejaVuSans-109"/>
     <use x="413.671875" xlink:href="#DejaVuSans-101"/>
     <use x="475.195312" xlink:href="#DejaVuSans-110"/>
     <use x="538.574219" xlink:href="#DejaVuSans-116"/>
     <use x="577.783203" xlink:href="#DejaVuSans-95"/>
     <use x="627.783203" xlink:href="#DejaVuSans-49"/>
    </g>
   </g>
   <g id="legend_1">
    <g id="patch_7">
     <path d="M 15.467188 169.244375 
L 377.94375 169.244375 
Q 379.94375 169.244375 379.94375 167.244375 
L 379.94375 94.831875 
Q 379.94375 92.831875 377.94375 92.831875 
L 15.467188 92.831875 
Q 13.467188 92.831875 13.467188 94.831875 
L 13.467188 167.244375 
Q 13.467188 169.244375 15.467188 169.244375 
z
" style="fill:#ffffff;opacity:0.8;stroke:#cccccc;stroke-linejoin:miter;"/>
    </g>
    <g id="line2d_31">
     <path d="M 17.467188 100.930312 
L 37.467188 100.930312 
" style="fill:none;stroke:#0000ff;stroke-linecap:square;stroke-width:1.5;"/>
    </g>
    <g id="line2d_32"/>
    <g id="text_22">
     <!-- MSI -->
     <defs>
      <path d="M 9.8125 72.90625 
L 24.515625 72.90625 
L 43.109375 23.296875 
L 61.8125 72.90625 
L 76.515625 72.90625 
L 76.515625 0 
L 66.890625 0 
L 66.890625 64.015625 
L 48.09375 14.015625 
L 38.1875 14.015625 
L 19.390625 64.015625 
L 19.390625 0 
L 9.8125 0 
z
" id="DejaVuSans-77"/>
      <path d="M 53.515625 70.515625 
L 53.515625 60.890625 
Q 47.90625 63.578125 42.921875 64.890625 
Q 37.9375 66.21875 33.296875 66.21875 
Q 25.25 66.21875 20.875 63.09375 
Q 16.5 59.96875 16.5 54.203125 
Q 16.5 49.359375 19.40625 46.890625 
Q 22.3125 44.4375 30.421875 42.921875 
L 36.375 41.703125 
Q 47.40625 39.59375 52.65625 34.296875 
Q 57.90625 29 57.90625 20.125 
Q 57.90625 9.515625 50.796875 4.046875 
Q 43.703125 -1.421875 29.984375 -1.421875 
Q 24.8125 -1.421875 18.96875 -0.25 
Q 13.140625 0.921875 6.890625 3.21875 
L 6.890625 13.375 
Q 12.890625 10.015625 18.65625 8.296875 
Q 24.421875 6.59375 29.984375 6.59375 
Q 38.421875 6.59375 43.015625 9.90625 
Q 47.609375 13.234375 47.609375 19.390625 
Q 47.609375 24.75 44.3125 27.78125 
Q 41.015625 30.8125 33.5 32.328125 
L 27.484375 33.5 
Q 16.453125 35.6875 11.515625 40.375 
Q 6.59375 45.0625 6.59375 53.421875 
Q 6.59375 63.09375 13.40625 68.65625 
Q 20.21875 74.21875 32.171875 74.21875 
Q 37.3125 74.21875 42.625 73.28125 
Q 47.953125 72.359375 53.515625 70.515625 
z
" id="DejaVuSans-83"/>
      <path d="M 9.8125 72.90625 
L 19.671875 72.90625 
L 19.671875 0 
L 9.8125 0 
z
" id="DejaVuSans-73"/>
     </defs>
     <g transform="translate(45.467188 104.430312)scale(0.1 -0.1)">
      <use xlink:href="#DejaVuSans-77"/>
      <use x="86.279297" xlink:href="#DejaVuSans-83"/>
      <use x="149.755859" xlink:href="#DejaVuSans-73"/>
     </g>
    </g>
    <g id="line2d_33">
     <path d="M 17.467188 115.61 
L 37.467188 115.61 
" style="fill:none;stroke:#ff0000;stroke-linecap:square;stroke-width:1.5;"/>
    </g>
    <g id="line2d_34"/>
    <g id="text_23">
     <!-- $\it{A priori}$ model -->
     <defs>
      <path d="M 36.8125 72.90625 
L 48 72.90625 
L 61.53125 0 
L 51.21875 0 
L 48.1875 18.703125 
L 15.375 18.703125 
L 5.078125 0 
L -5.328125 0 
z
M 40.375 63.1875 
L 19.921875 26.90625 
L 46.6875 26.90625 
z
" id="DejaVuSans-Oblique-65"/>
      <path d="M 49.609375 33.6875 
Q 49.609375 40.875 46.484375 44.671875 
Q 43.359375 48.484375 37.5 48.484375 
Q 33.5 48.484375 29.859375 46.4375 
Q 26.21875 44.390625 23.390625 40.484375 
Q 20.609375 36.625 18.9375 31.15625 
Q 17.28125 25.6875 17.28125 20.3125 
Q 17.28125 13.484375 20.40625 9.796875 
Q 23.53125 6.109375 29.296875 6.109375 
Q 33.546875 6.109375 37.1875 8.109375 
Q 40.828125 10.109375 43.40625 13.921875 
Q 46.1875 17.921875 47.890625 23.34375 
Q 49.609375 28.765625 49.609375 33.6875 
z
M 21.78125 46.390625 
Q 25.390625 51.125 30.296875 53.5625 
Q 35.203125 56 41.21875 56 
Q 49.609375 56 54.25 50.5 
Q 58.890625 45.015625 58.890625 35.109375 
Q 58.890625 27 56 19.65625 
Q 53.125 12.3125 47.703125 6.5 
Q 44.09375 2.640625 39.546875 0.609375 
Q 35.015625 -1.421875 29.984375 -1.421875 
Q 24.171875 -1.421875 20.21875 1 
Q 16.265625 3.421875 14.3125 8.203125 
L 8.6875 -20.796875 
L -0.296875 -20.796875 
L 14.40625 54.6875 
L 23.390625 54.6875 
z
" id="DejaVuSans-Oblique-112"/>
      <path d="M 44.578125 46.390625 
Q 43.21875 47.125 41.453125 47.515625 
Q 39.703125 47.90625 37.703125 47.90625 
Q 30.515625 47.90625 25.140625 42.453125 
Q 19.78125 37.015625 18.015625 27.875 
L 12.5 0 
L 3.515625 0 
L 14.203125 54.6875 
L 23.1875 54.6875 
L 21.484375 46.1875 
Q 25.046875 50.921875 30 53.453125 
Q 34.96875 56 40.578125 56 
Q 42.046875 56 43.453125 55.828125 
Q 44.875 55.671875 46.296875 55.28125 
z
" id="DejaVuSans-Oblique-114"/>
      <path d="M 18.3125 75.984375 
L 27.296875 75.984375 
L 25.09375 64.59375 
L 16.109375 64.59375 
z
M 14.203125 54.6875 
L 23.1875 54.6875 
L 12.5 0 
L 3.515625 0 
z
" id="DejaVuSans-Oblique-105"/>
      <path d="M 25.390625 -1.421875 
Q 15.765625 -1.421875 10.171875 4.515625 
Q 4.59375 10.453125 4.59375 20.703125 
Q 4.59375 26.65625 6.515625 32.828125 
Q 8.453125 39.015625 11.53125 43.21875 
Q 16.359375 49.75 22.3125 52.875 
Q 28.265625 56 35.796875 56 
Q 45.125 56 50.859375 50.1875 
Q 56.59375 44.390625 56.59375 35.015625 
Q 56.59375 28.515625 54.6875 22.0625 
Q 52.78125 15.625 49.703125 11.375 
Q 44.921875 4.828125 38.96875 1.703125 
Q 33.015625 -1.421875 25.390625 -1.421875 
z
M 13.921875 21 
Q 13.921875 13.578125 17.015625 9.890625 
Q 20.125 6.203125 26.421875 6.203125 
Q 35.453125 6.203125 41.375 14.078125 
Q 47.3125 21.96875 47.3125 34.078125 
Q 47.3125 41.15625 44.140625 44.765625 
Q 40.96875 48.390625 34.8125 48.390625 
Q 29.734375 48.390625 25.78125 46.015625 
Q 21.828125 43.65625 18.703125 38.8125 
Q 16.40625 35.203125 15.15625 30.5625 
Q 13.921875 25.921875 13.921875 21 
z
" id="DejaVuSans-Oblique-111"/>
      <path d="M 30.609375 48.390625 
Q 23.390625 48.390625 19.1875 42.75 
Q 14.984375 37.109375 14.984375 27.296875 
Q 14.984375 17.484375 19.15625 11.84375 
Q 23.34375 6.203125 30.609375 6.203125 
Q 37.796875 6.203125 41.984375 11.859375 
Q 46.1875 17.53125 46.1875 27.296875 
Q 46.1875 37.015625 41.984375 42.703125 
Q 37.796875 48.390625 30.609375 48.390625 
z
M 30.609375 56 
Q 42.328125 56 49.015625 48.375 
Q 55.71875 40.765625 55.71875 27.296875 
Q 55.71875 13.875 49.015625 6.21875 
Q 42.328125 -1.421875 30.609375 -1.421875 
Q 18.84375 -1.421875 12.171875 6.21875 
Q 5.515625 13.875 5.515625 27.296875 
Q 5.515625 40.765625 12.171875 48.375 
Q 18.84375 56 30.609375 56 
z
" id="DejaVuSans-111"/>
      <path d="M 45.40625 46.390625 
L 45.40625 75.984375 
L 54.390625 75.984375 
L 54.390625 0 
L 45.40625 0 
L 45.40625 8.203125 
Q 42.578125 3.328125 38.25 0.953125 
Q 33.9375 -1.421875 27.875 -1.421875 
Q 17.96875 -1.421875 11.734375 6.484375 
Q 5.515625 14.40625 5.515625 27.296875 
Q 5.515625 40.1875 11.734375 48.09375 
Q 17.96875 56 27.875 56 
Q 33.9375 56 38.25 53.625 
Q 42.578125 51.265625 45.40625 46.390625 
z
M 14.796875 27.296875 
Q 14.796875 17.390625 18.875 11.75 
Q 22.953125 6.109375 30.078125 6.109375 
Q 37.203125 6.109375 41.296875 11.75 
Q 45.40625 17.390625 45.40625 27.296875 
Q 45.40625 37.203125 41.296875 42.84375 
Q 37.203125 48.484375 30.078125 48.484375 
Q 22.953125 48.484375 18.875 42.84375 
Q 14.796875 37.203125 14.796875 27.296875 
z
" id="DejaVuSans-100"/>
      <path d="M 9.421875 75.984375 
L 18.40625 75.984375 
L 18.40625 0 
L 9.421875 0 
z
" id="DejaVuSans-108"/>
     </defs>
     <g transform="translate(45.467188 119.11)scale(0.1 -0.1)">
      <use transform="translate(0 0.015625)" xlink:href="#DejaVuSans-Oblique-65"/>
      <use transform="translate(68.408203 0.015625)" xlink:href="#DejaVuSans-Oblique-112"/>
      <use transform="translate(131.884766 0.015625)" xlink:href="#DejaVuSans-Oblique-114"/>
      <use transform="translate(172.998047 0.015625)" xlink:href="#DejaVuSans-Oblique-105"/>
      <use transform="translate(200.78125 0.015625)" xlink:href="#DejaVuSans-Oblique-111"/>
      <use transform="translate(261.962891 0.015625)" xlink:href="#DejaVuSans-Oblique-114"/>
      <use transform="translate(303.076172 0.015625)" xlink:href="#DejaVuSans-Oblique-105"/>
      <use transform="translate(330.859375 0.015625)" xlink:href="#DejaVuSans-32"/>
      <use transform="translate(362.646484 0.015625)" xlink:href="#DejaVuSans-109"/>
      <use transform="translate(460.058594 0.015625)" xlink:href="#DejaVuSans-111"/>
      <use transform="translate(521.240234 0.015625)" xlink:href="#DejaVuSans-100"/>
      <use transform="translate(584.716797 0.015625)" xlink:href="#DejaVuSans-101"/>
      <use transform="translate(646.240234 0.015625)" xlink:href="#DejaVuSans-108"/>
     </g>
    </g>
    <g id="line2d_35"/>
    <g id="line2d_36">
     <g>
      <use style="stroke:#000000;" x="27.467188" xlink:href="#m5e32619db2" y="130.308437"/>
     </g>
    </g>
    <g id="text_24">
     <!-- Experimental Data -->
     <defs>
      <path d="M 34.28125 27.484375 
Q 23.390625 27.484375 19.1875 25 
Q 14.984375 22.515625 14.984375 16.5 
Q 14.984375 11.71875 18.140625 8.90625 
Q 21.296875 6.109375 26.703125 6.109375 
Q 34.1875 6.109375 38.703125 11.40625 
Q 43.21875 16.703125 43.21875 25.484375 
L 43.21875 27.484375 
z
M 52.203125 31.203125 
L 52.203125 0 
L 43.21875 0 
L 43.21875 8.296875 
Q 40.140625 3.328125 35.546875 0.953125 
Q 30.953125 -1.421875 24.3125 -1.421875 
Q 15.921875 -1.421875 10.953125 3.296875 
Q 6 8.015625 6 15.921875 
Q 6 25.140625 12.171875 29.828125 
Q 18.359375 34.515625 30.609375 34.515625 
L 43.21875 34.515625 
L 43.21875 35.40625 
Q 43.21875 41.609375 39.140625 45 
Q 35.0625 48.390625 27.6875 48.390625 
Q 23 48.390625 18.546875 47.265625 
Q 14.109375 46.140625 10.015625 43.890625 
L 10.015625 52.203125 
Q 14.9375 54.109375 19.578125 55.046875 
Q 24.21875 56 28.609375 56 
Q 40.484375 56 46.34375 49.84375 
Q 52.203125 43.703125 52.203125 31.203125 
z
" id="DejaVuSans-97"/>
      <path d="M 19.671875 64.796875 
L 19.671875 8.109375 
L 31.59375 8.109375 
Q 46.6875 8.109375 53.6875 14.9375 
Q 60.6875 21.78125 60.6875 36.53125 
Q 60.6875 51.171875 53.6875 57.984375 
Q 46.6875 64.796875 31.59375 64.796875 
z
M 9.8125 72.90625 
L 30.078125 72.90625 
Q 51.265625 72.90625 61.171875 64.09375 
Q 71.09375 55.28125 71.09375 36.53125 
Q 71.09375 17.671875 61.125 8.828125 
Q 51.171875 0 30.078125 0 
L 9.8125 0 
z
" id="DejaVuSans-68"/>
     </defs>
     <g transform="translate(45.467188 133.808437)scale(0.1 -0.1)">
      <use xlink:href="#DejaVuSans-69"/>
      <use x="63.183594" xlink:href="#DejaVuSans-120"/>
      <use x="122.363281" xlink:href="#DejaVuSans-112"/>
      <use x="185.839844" xlink:href="#DejaVuSans-101"/>
      <use x="247.363281" xlink:href="#DejaVuSans-114"/>
      <use x="288.476562" xlink:href="#DejaVuSans-105"/>
      <use x="316.259766" xlink:href="#DejaVuSans-109"/>
      <use x="413.671875" xlink:href="#DejaVuSans-101"/>
      <use x="475.195312" xlink:href="#DejaVuSans-110"/>
      <use x="538.574219" xlink:href="#DejaVuSans-116"/>
      <use x="577.783203" xlink:href="#DejaVuSans-97"/>
      <use x="639.0625" xlink:href="#DejaVuSans-108"/>
      <use x="666.845703" xlink:href="#DejaVuSans-32"/>
      <use x="698.632812" xlink:href="#DejaVuSans-68"/>
      <use x="775.634766" xlink:href="#DejaVuSans-97"/>
      <use x="836.914062" xlink:href="#DejaVuSans-116"/>
      <use x="876.123047" xlink:href="#DejaVuSans-97"/>
     </g>
    </g>
    <g id="line2d_37">
     <path d="M 17.467188 144.986562 
L 37.467188 144.986562 
" style="fill:none;stroke:#ffffff;stroke-linecap:square;stroke-width:1.5;"/>
    </g>
    <g id="line2d_38"/>
    <g id="text_25">
     <!-- T:1275.0 -->
     <defs>
      <path d="M 11.71875 12.40625 
L 22.015625 12.40625 
L 22.015625 0 
L 11.71875 0 
z
M 11.71875 51.703125 
L 22.015625 51.703125 
L 22.015625 39.3125 
L 11.71875 39.3125 
z
" id="DejaVuSans-58"/>
      <path d="M 8.203125 72.90625 
L 55.078125 72.90625 
L 55.078125 68.703125 
L 28.609375 0 
L 18.3125 0 
L 43.21875 64.59375 
L 8.203125 64.59375 
z
" id="DejaVuSans-55"/>
     </defs>
     <g transform="translate(45.467188 148.486562)scale(0.1 -0.1)">
      <use xlink:href="#DejaVuSans-84"/>
      <use x="60.912109" xlink:href="#DejaVuSans-58"/>
      <use x="94.603516" xlink:href="#DejaVuSans-49"/>
      <use x="158.226562" xlink:href="#DejaVuSans-50"/>
      <use x="221.849609" xlink:href="#DejaVuSans-55"/>
      <use x="285.472656" xlink:href="#DejaVuSans-53"/>
      <use x="349.095703" xlink:href="#DejaVuSans-46"/>
      <use x="380.882812" xlink:href="#DejaVuSans-48"/>
     </g>
    </g>
    <g id="line2d_39">
     <path d="M 17.467188 159.664687 
L 37.467188 159.664687 
" style="fill:none;stroke:#ffffff;stroke-linecap:square;stroke-width:1.5;"/>
    </g>
    <g id="line2d_40"/>
    <g id="text_26">
     <!-- P:0.8789038708031089 -->
     <defs>
      <path d="M 19.671875 64.796875 
L 19.671875 37.40625 
L 32.078125 37.40625 
Q 38.96875 37.40625 42.71875 40.96875 
Q 46.484375 44.53125 46.484375 51.125 
Q 46.484375 57.671875 42.71875 61.234375 
Q 38.96875 64.796875 32.078125 64.796875 
z
M 9.8125 72.90625 
L 32.078125 72.90625 
Q 44.34375 72.90625 50.609375 67.359375 
Q 56.890625 61.8125 56.890625 51.125 
Q 56.890625 40.328125 50.609375 34.8125 
Q 44.34375 29.296875 32.078125 29.296875 
L 19.671875 29.296875 
L 19.671875 0 
L 9.8125 0 
z
" id="DejaVuSans-80"/>
      <path d="M 10.984375 1.515625 
L 10.984375 10.5 
Q 14.703125 8.734375 18.5 7.8125 
Q 22.3125 6.890625 25.984375 6.890625 
Q 35.75 6.890625 40.890625 13.453125 
Q 46.046875 20.015625 46.78125 33.40625 
Q 43.953125 29.203125 39.59375 26.953125 
Q 35.25 24.703125 29.984375 24.703125 
Q 19.046875 24.703125 12.671875 31.3125 
Q 6.296875 37.9375 6.296875 49.421875 
Q 6.296875 60.640625 12.9375 67.421875 
Q 19.578125 74.21875 30.609375 74.21875 
Q 43.265625 74.21875 49.921875 64.515625 
Q 56.59375 54.828125 56.59375 36.375 
Q 56.59375 19.140625 48.40625 8.859375 
Q 40.234375 -1.421875 26.421875 -1.421875 
Q 22.703125 -1.421875 18.890625 -0.6875 
Q 15.09375 0.046875 10.984375 1.515625 
z
M 30.609375 32.421875 
Q 37.25 32.421875 41.125 36.953125 
Q 45.015625 41.5 45.015625 49.421875 
Q 45.015625 57.28125 41.125 61.84375 
Q 37.25 66.40625 30.609375 66.40625 
Q 23.96875 66.40625 20.09375 61.84375 
Q 16.21875 57.28125 16.21875 49.421875 
Q 16.21875 41.5 20.09375 36.953125 
Q 23.96875 32.421875 30.609375 32.421875 
z
" id="DejaVuSans-57"/>
     </defs>
     <g transform="translate(45.467188 163.164687)scale(0.1 -0.1)">
      <use xlink:href="#DejaVuSans-80"/>
      <use x="60.302734" xlink:href="#DejaVuSans-58"/>
      <use x="93.994141" xlink:href="#DejaVuSans-48"/>
      <use x="157.617188" xlink:href="#DejaVuSans-46"/>
      <use x="189.404297" xlink:href="#DejaVuSans-56"/>
      <use x="253.027344" xlink:href="#DejaVuSans-55"/>
      <use x="316.650391" xlink:href="#DejaVuSans-56"/>
      <use x="380.273438" xlink:href="#DejaVuSans-57"/>
      <use x="443.896484" xlink:href="#DejaVuSans-48"/>
      <use x="507.519531" xlink:href="#DejaVuSans-51"/>
      <use x="571.142578" xlink:href="#DejaVuSans-56"/>
      <use x="634.765625" xlink:href="#DejaVuSans-55"/>
      <use x="698.388672" xlink:href="#DejaVuSans-48"/>
      <use x="762.011719" xlink:href="#DejaVuSans-56"/>
      <use x="825.634766" xlink:href="#DejaVuSans-48"/>
      <use x="889.257812" xlink:href="#DejaVuSans-51"/>
      <use x="952.880859" xlink:href="#DejaVuSans-49"/>
      <use x="1016.503906" xlink:href="#DejaVuSans-48"/>
      <use x="1080.126953" xlink:href="#DejaVuSans-56"/>
      <use x="1143.75" xlink:href="#DejaVuSans-57"/>
     </g>
    </g>
    <g id="line2d_41">
     <path d="M 186.20625 100.930312 
L 206.20625 100.930312 
" style="fill:none;stroke:#ffffff;stroke-linecap:square;stroke-width:1.5;"/>
    </g>
    <g id="line2d_42"/>
    <g id="text_27">
     <!-- O2: 0.0025 -->
     <defs>
      <path d="M 39.40625 66.21875 
Q 28.65625 66.21875 22.328125 58.203125 
Q 16.015625 50.203125 16.015625 36.375 
Q 16.015625 22.609375 22.328125 14.59375 
Q 28.65625 6.59375 39.40625 6.59375 
Q 50.140625 6.59375 56.421875 14.59375 
Q 62.703125 22.609375 62.703125 36.375 
Q 62.703125 50.203125 56.421875 58.203125 
Q 50.140625 66.21875 39.40625 66.21875 
z
M 39.40625 74.21875 
Q 54.734375 74.21875 63.90625 63.9375 
Q 73.09375 53.65625 73.09375 36.375 
Q 73.09375 19.140625 63.90625 8.859375 
Q 54.734375 -1.421875 39.40625 -1.421875 
Q 24.03125 -1.421875 14.8125 8.828125 
Q 5.609375 19.09375 5.609375 36.375 
Q 5.609375 53.65625 14.8125 63.9375 
Q 24.03125 74.21875 39.40625 74.21875 
z
" id="DejaVuSans-79"/>
     </defs>
     <g transform="translate(214.20625 104.430312)scale(0.1 -0.1)">
      <use xlink:href="#DejaVuSans-79"/>
      <use x="78.710938" xlink:href="#DejaVuSans-50"/>
      <use x="142.333984" xlink:href="#DejaVuSans-58"/>
      <use x="176.025391" xlink:href="#DejaVuSans-32"/>
      <use x="207.8125" xlink:href="#DejaVuSans-48"/>
      <use x="271.435547" xlink:href="#DejaVuSans-46"/>
      <use x="303.222656" xlink:href="#DejaVuSans-48"/>
      <use x="366.845703" xlink:href="#DejaVuSans-48"/>
      <use x="430.46875" xlink:href="#DejaVuSans-50"/>
      <use x="494.091797" xlink:href="#DejaVuSans-53"/>
     </g>
    </g>
    <g id="line2d_43">
     <path d="M 186.20625 115.608437 
L 206.20625 115.608437 
" style="fill:none;stroke:#ffffff;stroke-linecap:square;stroke-width:1.5;"/>
    </g>
    <g id="line2d_44"/>
    <g id="text_28">
     <!-- H: 3.9533504645186796e-07 -->
     <defs>
      <path d="M 4.890625 31.390625 
L 31.203125 31.390625 
L 31.203125 23.390625 
L 4.890625 23.390625 
z
" id="DejaVuSans-45"/>
     </defs>
     <g transform="translate(214.20625 119.108437)scale(0.1 -0.1)">
      <use xlink:href="#DejaVuSans-72"/>
      <use x="75.195312" xlink:href="#DejaVuSans-58"/>
      <use x="108.886719" xlink:href="#DejaVuSans-32"/>
      <use x="140.673828" xlink:href="#DejaVuSans-51"/>
      <use x="204.296875" xlink:href="#DejaVuSans-46"/>
      <use x="236.083984" xlink:href="#DejaVuSans-57"/>
      <use x="299.707031" xlink:href="#DejaVuSans-53"/>
      <use x="363.330078" xlink:href="#DejaVuSans-51"/>
      <use x="426.953125" xlink:href="#DejaVuSans-51"/>
      <use x="490.576172" xlink:href="#DejaVuSans-53"/>
      <use x="554.199219" xlink:href="#DejaVuSans-48"/>
      <use x="617.822266" xlink:href="#DejaVuSans-52"/>
      <use x="681.445312" xlink:href="#DejaVuSans-54"/>
      <use x="745.068359" xlink:href="#DejaVuSans-52"/>
      <use x="808.691406" xlink:href="#DejaVuSans-53"/>
      <use x="872.314453" xlink:href="#DejaVuSans-49"/>
      <use x="935.9375" xlink:href="#DejaVuSans-56"/>
      <use x="999.560547" xlink:href="#DejaVuSans-54"/>
      <use x="1063.183594" xlink:href="#DejaVuSans-55"/>
      <use x="1126.806641" xlink:href="#DejaVuSans-57"/>
      <use x="1190.429688" xlink:href="#DejaVuSans-54"/>
      <use x="1254.052734" xlink:href="#DejaVuSans-101"/>
      <use x="1315.576172" xlink:href="#DejaVuSans-45"/>
      <use x="1351.660156" xlink:href="#DejaVuSans-48"/>
      <use x="1415.283203" xlink:href="#DejaVuSans-55"/>
     </g>
    </g>
    <g id="line2d_45">
     <path d="M 186.20625 130.286563 
L 206.20625 130.286563 
" style="fill:none;stroke:#ffffff;stroke-linecap:square;stroke-width:1.5;"/>
    </g>
    <g id="line2d_46"/>
    <g id="text_29">
     <!-- NH3: 0.00015 -->
     <defs>
      <path d="M 9.8125 72.90625 
L 23.09375 72.90625 
L 55.421875 11.921875 
L 55.421875 72.90625 
L 64.984375 72.90625 
L 64.984375 0 
L 51.703125 0 
L 19.390625 60.984375 
L 19.390625 0 
L 9.8125 0 
z
" id="DejaVuSans-78"/>
     </defs>
     <g transform="translate(214.20625 133.786563)scale(0.1 -0.1)">
      <use xlink:href="#DejaVuSans-78"/>
      <use x="74.804688" xlink:href="#DejaVuSans-72"/>
      <use x="150" xlink:href="#DejaVuSans-51"/>
      <use x="213.623047" xlink:href="#DejaVuSans-58"/>
      <use x="247.314453" xlink:href="#DejaVuSans-32"/>
      <use x="279.101562" xlink:href="#DejaVuSans-48"/>
      <use x="342.724609" xlink:href="#DejaVuSans-46"/>
      <use x="374.511719" xlink:href="#DejaVuSans-48"/>
      <use x="438.134766" xlink:href="#DejaVuSans-48"/>
      <use x="501.757812" xlink:href="#DejaVuSans-48"/>
      <use x="565.380859" xlink:href="#DejaVuSans-49"/>
      <use x="629.003906" xlink:href="#DejaVuSans-53"/>
     </g>
    </g>
    <g id="line2d_47">
     <path d="M 186.20625 144.964687 
L 206.20625 144.964687 
" style="fill:none;stroke:#ffffff;stroke-linecap:square;stroke-width:1.5;"/>
    </g>
    <g id="line2d_48"/>
    <g id="text_30">
     <!-- NH2: 3.9533504645186796e-07 -->
     <g transform="translate(214.20625 148.464687)scale(0.1 -0.1)">
      <use xlink:href="#DejaVuSans-78"/>
      <use x="74.804688" xlink:href="#DejaVuSans-72"/>
      <use x="150" xlink:href="#DejaVuSans-50"/>
      <use x="213.623047" xlink:href="#DejaVuSans-58"/>
      <use x="247.314453" xlink:href="#DejaVuSans-32"/>
      <use x="279.101562" xlink:href="#DejaVuSans-51"/>
      <use x="342.724609" xlink:href="#DejaVuSans-46"/>
      <use x="374.511719" xlink:href="#DejaVuSans-57"/>
      <use x="438.134766" xlink:href="#DejaVuSans-53"/>
      <use x="501.757812" xlink:href="#DejaVuSans-51"/>
      <use x="565.380859" xlink:href="#DejaVuSans-51"/>
      <use x="629.003906" xlink:href="#DejaVuSans-53"/>
      <use x="692.626953" xlink:href="#DejaVuSans-48"/>
      <use x="756.25" xlink:href="#DejaVuSans-52"/>
      <use x="819.873047" xlink:href="#DejaVuSans-54"/>
      <use x="883.496094" xlink:href="#DejaVuSans-52"/>
      <use x="947.119141" xlink:href="#DejaVuSans-53"/>
      <use x="1010.742188" xlink:href="#DejaVuSans-49"/>
      <use x="1074.365234" xlink:href="#DejaVuSans-56"/>
      <use x="1137.988281" xlink:href="#DejaVuSans-54"/>
      <use x="1201.611328" xlink:href="#DejaVuSans-55"/>
      <use x="1265.234375" xlink:href="#DejaVuSans-57"/>
      <use x="1328.857422" xlink:href="#DejaVuSans-54"/>
      <use x="1392.480469" xlink:href="#DejaVuSans-101"/>
      <use x="1454.003906" xlink:href="#DejaVuSans-45"/>
      <use x="1490.087891" xlink:href="#DejaVuSans-48"/>
      <use x="1553.710938" xlink:href="#DejaVuSans-55"/>
     </g>
    </g>
    <g id="line2d_49">
     <path d="M 186.20625 159.642812 
L 206.20625 159.642812 
" style="fill:none;stroke:#ffffff;stroke-linecap:square;stroke-width:1.5;"/>
    </g>
    <g id="line2d_50"/>
    <g id="text_31">
     <!-- Ar: 0.997349109329907 -->
     <defs>
      <path d="M 34.1875 63.1875 
L 20.796875 26.90625 
L 47.609375 26.90625 
z
M 28.609375 72.90625 
L 39.796875 72.90625 
L 67.578125 0 
L 57.328125 0 
L 50.6875 18.703125 
L 17.828125 18.703125 
L 11.1875 0 
L 0.78125 0 
z
" id="DejaVuSans-65"/>
     </defs>
     <g transform="translate(214.20625 163.142812)scale(0.1 -0.1)">
      <use xlink:href="#DejaVuSans-65"/>
      <use x="68.408203" xlink:href="#DejaVuSans-114"/>
      <use x="109.505859" xlink:href="#DejaVuSans-58"/>
      <use x="143.197266" xlink:href="#DejaVuSans-32"/>
      <use x="174.984375" xlink:href="#DejaVuSans-48"/>
      <use x="238.607422" xlink:href="#DejaVuSans-46"/>
      <use x="270.394531" xlink:href="#DejaVuSans-57"/>
      <use x="334.017578" xlink:href="#DejaVuSans-57"/>
      <use x="397.640625" xlink:href="#DejaVuSans-55"/>
      <use x="461.263672" xlink:href="#DejaVuSans-51"/>
      <use x="524.886719" xlink:href="#DejaVuSans-52"/>
      <use x="588.509766" xlink:href="#DejaVuSans-57"/>
      <use x="652.132812" xlink:href="#DejaVuSans-49"/>
      <use x="715.755859" xlink:href="#DejaVuSans-48"/>
      <use x="779.378906" xlink:href="#DejaVuSans-57"/>
      <use x="843.001953" xlink:href="#DejaVuSans-51"/>
      <use x="906.625" xlink:href="#DejaVuSans-50"/>
      <use x="970.248047" xlink:href="#DejaVuSans-57"/>
      <use x="1033.871094" xlink:href="#DejaVuSans-57"/>
      <use x="1097.494141" xlink:href="#DejaVuSans-48"/>
      <use x="1161.117188" xlink:href="#DejaVuSans-55"/>
     </g>
    </g>
   </g>
  </g>
 </g>
 <defs>
  <clipPath id="p2b01ef5809">
   <rect height="217.44" width="334.8" x="50.14375" y="22.318125"/>
  </clipPath>
 </defs>
</svg>
