<?xml version="1.0" encoding="utf-8" standalone="no"?>
<!DOCTYPE svg PUBLIC "-//W3C//DTD SVG 1.1//EN"
  "http://www.w3.org/Graphics/SVG/1.1/DTD/svg11.dtd">
<!-- Created with matplotlib (https://matplotlib.org/) -->
<svg height="277.314375pt" version="1.1" viewBox="0 0 395.64375 277.314375" width="395.64375pt" xmlns="http://www.w3.org/2000/svg" xmlns:xlink="http://www.w3.org/1999/xlink">
 <defs>
  <style type="text/css">
*{stroke-linecap:butt;stroke-linejoin:round;}
  </style>
 </defs>
 <g id="figure_1">
  <g id="patch_1">
   <path d="M 0 277.314375 
L 395.64375 277.314375 
L 395.64375 0 
L 0 0 
z
" style="fill:none;"/>
  </g>
  <g id="axes_1">
   <g id="patch_2">
    <path d="M 50.14375 239.758125 
L 384.94375 239.758125 
L 384.94375 22.318125 
L 50.14375 22.318125 
z
" style="fill:none;"/>
   </g>
   <g id="matplotlib.axis_1">
    <g id="xtick_1">
     <g id="line2d_1">
      <defs>
       <path d="M 0 0 
L 0 3.5 
" id="maa20346258" style="stroke:#000000;stroke-width:0.8;"/>
      </defs>
      <g>
       <use style="stroke:#000000;stroke-width:0.8;" x="65.361932" xlink:href="#maa20346258" y="239.758125"/>
      </g>
     </g>
     <g id="text_1">
      <!-- 0.00 -->
      <defs>
       <path d="M 31.78125 66.40625 
Q 24.171875 66.40625 20.328125 58.90625 
Q 16.5 51.421875 16.5 36.375 
Q 16.5 21.390625 20.328125 13.890625 
Q 24.171875 6.390625 31.78125 6.390625 
Q 39.453125 6.390625 43.28125 13.890625 
Q 47.125 21.390625 47.125 36.375 
Q 47.125 51.421875 43.28125 58.90625 
Q 39.453125 66.40625 31.78125 66.40625 
z
M 31.78125 74.21875 
Q 44.046875 74.21875 50.515625 64.515625 
Q 56.984375 54.828125 56.984375 36.375 
Q 56.984375 17.96875 50.515625 8.265625 
Q 44.046875 -1.421875 31.78125 -1.421875 
Q 19.53125 -1.421875 13.0625 8.265625 
Q 6.59375 17.96875 6.59375 36.375 
Q 6.59375 54.828125 13.0625 64.515625 
Q 19.53125 74.21875 31.78125 74.21875 
z
" id="DejaVuSans-48"/>
       <path d="M 10.6875 12.40625 
L 21 12.40625 
L 21 0 
L 10.6875 0 
z
" id="DejaVuSans-46"/>
      </defs>
      <g transform="translate(54.229119 254.356562)scale(0.1 -0.1)">
       <use xlink:href="#DejaVuSans-48"/>
       <use x="63.623047" xlink:href="#DejaVuSans-46"/>
       <use x="95.410156" xlink:href="#DejaVuSans-48"/>
       <use x="159.033203" xlink:href="#DejaVuSans-48"/>
      </g>
     </g>
    </g>
    <g id="xtick_2">
     <g id="line2d_2">
      <g>
       <use style="stroke:#000000;stroke-width:0.8;" x="103.217819" xlink:href="#maa20346258" y="239.758125"/>
      </g>
     </g>
     <g id="text_2">
      <!-- 0.25 -->
      <defs>
       <path d="M 19.1875 8.296875 
L 53.609375 8.296875 
L 53.609375 0 
L 7.328125 0 
L 7.328125 8.296875 
Q 12.9375 14.109375 22.625 23.890625 
Q 32.328125 33.6875 34.8125 36.53125 
Q 39.546875 41.84375 41.421875 45.53125 
Q 43.3125 49.21875 43.3125 52.78125 
Q 43.3125 58.59375 39.234375 62.25 
Q 35.15625 65.921875 28.609375 65.921875 
Q 23.96875 65.921875 18.8125 64.3125 
Q 13.671875 62.703125 7.8125 59.421875 
L 7.8125 69.390625 
Q 13.765625 71.78125 18.9375 73 
Q 24.125 74.21875 28.421875 74.21875 
Q 39.75 74.21875 46.484375 68.546875 
Q 53.21875 62.890625 53.21875 53.421875 
Q 53.21875 48.921875 51.53125 44.890625 
Q 49.859375 40.875 45.40625 35.40625 
Q 44.1875 33.984375 37.640625 27.21875 
Q 31.109375 20.453125 19.1875 8.296875 
z
" id="DejaVuSans-50"/>
       <path d="M 10.796875 72.90625 
L 49.515625 72.90625 
L 49.515625 64.59375 
L 19.828125 64.59375 
L 19.828125 46.734375 
Q 21.96875 47.46875 24.109375 47.828125 
Q 26.265625 48.1875 28.421875 48.1875 
Q 40.625 48.1875 47.75 41.5 
Q 54.890625 34.8125 54.890625 23.390625 
Q 54.890625 11.625 47.5625 5.09375 
Q 40.234375 -1.421875 26.90625 -1.421875 
Q 22.3125 -1.421875 17.546875 -0.640625 
Q 12.796875 0.140625 7.71875 1.703125 
L 7.71875 11.625 
Q 12.109375 9.234375 16.796875 8.0625 
Q 21.484375 6.890625 26.703125 6.890625 
Q 35.15625 6.890625 40.078125 11.328125 
Q 45.015625 15.765625 45.015625 23.390625 
Q 45.015625 31 40.078125 35.4375 
Q 35.15625 39.890625 26.703125 39.890625 
Q 22.75 39.890625 18.8125 39.015625 
Q 14.890625 38.140625 10.796875 36.28125 
z
" id="DejaVuSans-53"/>
      </defs>
      <g transform="translate(92.085006 254.356562)scale(0.1 -0.1)">
       <use xlink:href="#DejaVuSans-48"/>
       <use x="63.623047" xlink:href="#DejaVuSans-46"/>
       <use x="95.410156" xlink:href="#DejaVuSans-50"/>
       <use x="159.033203" xlink:href="#DejaVuSans-53"/>
      </g>
     </g>
    </g>
    <g id="xtick_3">
     <g id="line2d_3">
      <g>
       <use style="stroke:#000000;stroke-width:0.8;" x="141.073706" xlink:href="#maa20346258" y="239.758125"/>
      </g>
     </g>
     <g id="text_3">
      <!-- 0.50 -->
      <g transform="translate(129.940894 254.356562)scale(0.1 -0.1)">
       <use xlink:href="#DejaVuSans-48"/>
       <use x="63.623047" xlink:href="#DejaVuSans-46"/>
       <use x="95.410156" xlink:href="#DejaVuSans-53"/>
       <use x="159.033203" xlink:href="#DejaVuSans-48"/>
      </g>
     </g>
    </g>
    <g id="xtick_4">
     <g id="line2d_4">
      <g>
       <use style="stroke:#000000;stroke-width:0.8;" x="178.929593" xlink:href="#maa20346258" y="239.758125"/>
      </g>
     </g>
     <g id="text_4">
      <!-- 0.75 -->
      <defs>
       <path d="M 8.203125 72.90625 
L 55.078125 72.90625 
L 55.078125 68.703125 
L 28.609375 0 
L 18.3125 0 
L 43.21875 64.59375 
L 8.203125 64.59375 
z
" id="DejaVuSans-55"/>
      </defs>
      <g transform="translate(167.796781 254.356562)scale(0.1 -0.1)">
       <use xlink:href="#DejaVuSans-48"/>
       <use x="63.623047" xlink:href="#DejaVuSans-46"/>
       <use x="95.410156" xlink:href="#DejaVuSans-55"/>
       <use x="159.033203" xlink:href="#DejaVuSans-53"/>
      </g>
     </g>
    </g>
    <g id="xtick_5">
     <g id="line2d_5">
      <g>
       <use style="stroke:#000000;stroke-width:0.8;" x="216.78548" xlink:href="#maa20346258" y="239.758125"/>
      </g>
     </g>
     <g id="text_5">
      <!-- 1.00 -->
      <defs>
       <path d="M 12.40625 8.296875 
L 28.515625 8.296875 
L 28.515625 63.921875 
L 10.984375 60.40625 
L 10.984375 69.390625 
L 28.421875 72.90625 
L 38.28125 72.90625 
L 38.28125 8.296875 
L 54.390625 8.296875 
L 54.390625 0 
L 12.40625 0 
z
" id="DejaVuSans-49"/>
      </defs>
      <g transform="translate(205.652668 254.356562)scale(0.1 -0.1)">
       <use xlink:href="#DejaVuSans-49"/>
       <use x="63.623047" xlink:href="#DejaVuSans-46"/>
       <use x="95.410156" xlink:href="#DejaVuSans-48"/>
       <use x="159.033203" xlink:href="#DejaVuSans-48"/>
      </g>
     </g>
    </g>
    <g id="xtick_6">
     <g id="line2d_6">
      <g>
       <use style="stroke:#000000;stroke-width:0.8;" x="254.641367" xlink:href="#maa20346258" y="239.758125"/>
      </g>
     </g>
     <g id="text_6">
      <!-- 1.25 -->
      <g transform="translate(243.508555 254.356562)scale(0.1 -0.1)">
       <use xlink:href="#DejaVuSans-49"/>
       <use x="63.623047" xlink:href="#DejaVuSans-46"/>
       <use x="95.410156" xlink:href="#DejaVuSans-50"/>
       <use x="159.033203" xlink:href="#DejaVuSans-53"/>
      </g>
     </g>
    </g>
    <g id="xtick_7">
     <g id="line2d_7">
      <g>
       <use style="stroke:#000000;stroke-width:0.8;" x="292.497254" xlink:href="#maa20346258" y="239.758125"/>
      </g>
     </g>
     <g id="text_7">
      <!-- 1.50 -->
      <g transform="translate(281.364442 254.356562)scale(0.1 -0.1)">
       <use xlink:href="#DejaVuSans-49"/>
       <use x="63.623047" xlink:href="#DejaVuSans-46"/>
       <use x="95.410156" xlink:href="#DejaVuSans-53"/>
       <use x="159.033203" xlink:href="#DejaVuSans-48"/>
      </g>
     </g>
    </g>
    <g id="xtick_8">
     <g id="line2d_8">
      <g>
       <use style="stroke:#000000;stroke-width:0.8;" x="330.353142" xlink:href="#maa20346258" y="239.758125"/>
      </g>
     </g>
     <g id="text_8">
      <!-- 1.75 -->
      <g transform="translate(319.220329 254.356562)scale(0.1 -0.1)">
       <use xlink:href="#DejaVuSans-49"/>
       <use x="63.623047" xlink:href="#DejaVuSans-46"/>
       <use x="95.410156" xlink:href="#DejaVuSans-55"/>
       <use x="159.033203" xlink:href="#DejaVuSans-53"/>
      </g>
     </g>
    </g>
    <g id="xtick_9">
     <g id="line2d_9">
      <g>
       <use style="stroke:#000000;stroke-width:0.8;" x="368.209029" xlink:href="#maa20346258" y="239.758125"/>
      </g>
     </g>
     <g id="text_9">
      <!-- 2.00 -->
      <g transform="translate(357.076216 254.356562)scale(0.1 -0.1)">
       <use xlink:href="#DejaVuSans-50"/>
       <use x="63.623047" xlink:href="#DejaVuSans-46"/>
       <use x="95.410156" xlink:href="#DejaVuSans-48"/>
       <use x="159.033203" xlink:href="#DejaVuSans-48"/>
      </g>
     </g>
    </g>
    <g id="text_10">
     <!-- Time (ms) -->
     <defs>
      <path d="M -0.296875 72.90625 
L 61.375 72.90625 
L 61.375 64.59375 
L 35.5 64.59375 
L 35.5 0 
L 25.59375 0 
L 25.59375 64.59375 
L -0.296875 64.59375 
z
" id="DejaVuSans-84"/>
      <path d="M 9.421875 54.6875 
L 18.40625 54.6875 
L 18.40625 0 
L 9.421875 0 
z
M 9.421875 75.984375 
L 18.40625 75.984375 
L 18.40625 64.59375 
L 9.421875 64.59375 
z
" id="DejaVuSans-105"/>
      <path d="M 52 44.1875 
Q 55.375 50.25 60.0625 53.125 
Q 64.75 56 71.09375 56 
Q 79.640625 56 84.28125 50.015625 
Q 88.921875 44.046875 88.921875 33.015625 
L 88.921875 0 
L 79.890625 0 
L 79.890625 32.71875 
Q 79.890625 40.578125 77.09375 44.375 
Q 74.3125 48.1875 68.609375 48.1875 
Q 61.625 48.1875 57.5625 43.546875 
Q 53.515625 38.921875 53.515625 30.90625 
L 53.515625 0 
L 44.484375 0 
L 44.484375 32.71875 
Q 44.484375 40.625 41.703125 44.40625 
Q 38.921875 48.1875 33.109375 48.1875 
Q 26.21875 48.1875 22.15625 43.53125 
Q 18.109375 38.875 18.109375 30.90625 
L 18.109375 0 
L 9.078125 0 
L 9.078125 54.6875 
L 18.109375 54.6875 
L 18.109375 46.1875 
Q 21.1875 51.21875 25.484375 53.609375 
Q 29.78125 56 35.6875 56 
Q 41.65625 56 45.828125 52.96875 
Q 50 49.953125 52 44.1875 
z
" id="DejaVuSans-109"/>
      <path d="M 56.203125 29.59375 
L 56.203125 25.203125 
L 14.890625 25.203125 
Q 15.484375 15.921875 20.484375 11.0625 
Q 25.484375 6.203125 34.421875 6.203125 
Q 39.59375 6.203125 44.453125 7.46875 
Q 49.3125 8.734375 54.109375 11.28125 
L 54.109375 2.78125 
Q 49.265625 0.734375 44.1875 -0.34375 
Q 39.109375 -1.421875 33.890625 -1.421875 
Q 20.796875 -1.421875 13.15625 6.1875 
Q 5.515625 13.8125 5.515625 26.8125 
Q 5.515625 40.234375 12.765625 48.109375 
Q 20.015625 56 32.328125 56 
Q 43.359375 56 49.78125 48.890625 
Q 56.203125 41.796875 56.203125 29.59375 
z
M 47.21875 32.234375 
Q 47.125 39.59375 43.09375 43.984375 
Q 39.0625 48.390625 32.421875 48.390625 
Q 24.90625 48.390625 20.390625 44.140625 
Q 15.875 39.890625 15.1875 32.171875 
z
" id="DejaVuSans-101"/>
      <path id="DejaVuSans-32"/>
      <path d="M 31 75.875 
Q 24.46875 64.65625 21.28125 53.65625 
Q 18.109375 42.671875 18.109375 31.390625 
Q 18.109375 20.125 21.3125 9.0625 
Q 24.515625 -2 31 -13.1875 
L 23.1875 -13.1875 
Q 15.875 -1.703125 12.234375 9.375 
Q 8.59375 20.453125 8.59375 31.390625 
Q 8.59375 42.28125 12.203125 53.3125 
Q 15.828125 64.359375 23.1875 75.875 
z
" id="DejaVuSans-40"/>
      <path d="M 44.28125 53.078125 
L 44.28125 44.578125 
Q 40.484375 46.53125 36.375 47.5 
Q 32.28125 48.484375 27.875 48.484375 
Q 21.1875 48.484375 17.84375 46.4375 
Q 14.5 44.390625 14.5 40.28125 
Q 14.5 37.15625 16.890625 35.375 
Q 19.28125 33.59375 26.515625 31.984375 
L 29.59375 31.296875 
Q 39.15625 29.25 43.1875 25.515625 
Q 47.21875 21.78125 47.21875 15.09375 
Q 47.21875 7.46875 41.1875 3.015625 
Q 35.15625 -1.421875 24.609375 -1.421875 
Q 20.21875 -1.421875 15.453125 -0.5625 
Q 10.6875 0.296875 5.421875 2 
L 5.421875 11.28125 
Q 10.40625 8.6875 15.234375 7.390625 
Q 20.0625 6.109375 24.8125 6.109375 
Q 31.15625 6.109375 34.5625 8.28125 
Q 37.984375 10.453125 37.984375 14.40625 
Q 37.984375 18.0625 35.515625 20.015625 
Q 33.0625 21.96875 24.703125 23.78125 
L 21.578125 24.515625 
Q 13.234375 26.265625 9.515625 29.90625 
Q 5.8125 33.546875 5.8125 39.890625 
Q 5.8125 47.609375 11.28125 51.796875 
Q 16.75 56 26.8125 56 
Q 31.78125 56 36.171875 55.265625 
Q 40.578125 54.546875 44.28125 53.078125 
z
" id="DejaVuSans-115"/>
      <path d="M 8.015625 75.875 
L 15.828125 75.875 
Q 23.140625 64.359375 26.78125 53.3125 
Q 30.421875 42.28125 30.421875 31.390625 
Q 30.421875 20.453125 26.78125 9.375 
Q 23.140625 -1.703125 15.828125 -13.1875 
L 8.015625 -13.1875 
Q 14.5 -2 17.703125 9.0625 
Q 20.90625 20.125 20.90625 31.390625 
Q 20.90625 42.671875 17.703125 53.65625 
Q 14.5 64.65625 8.015625 75.875 
z
" id="DejaVuSans-41"/>
     </defs>
     <g transform="translate(192.190625 268.034687)scale(0.1 -0.1)">
      <use xlink:href="#DejaVuSans-84"/>
      <use x="61.037109" xlink:href="#DejaVuSans-105"/>
      <use x="88.820312" xlink:href="#DejaVuSans-109"/>
      <use x="186.232422" xlink:href="#DejaVuSans-101"/>
      <use x="247.755859" xlink:href="#DejaVuSans-32"/>
      <use x="279.542969" xlink:href="#DejaVuSans-40"/>
      <use x="318.556641" xlink:href="#DejaVuSans-109"/>
      <use x="415.96875" xlink:href="#DejaVuSans-115"/>
      <use x="468.068359" xlink:href="#DejaVuSans-41"/>
     </g>
    </g>
   </g>
   <g id="matplotlib.axis_2">
    <g id="ytick_1">
     <g id="line2d_10">
      <defs>
       <path d="M 0 0 
L -3.5 0 
" id="m32e70d5785" style="stroke:#000000;stroke-width:0.8;"/>
      </defs>
      <g>
       <use style="stroke:#000000;stroke-width:0.8;" x="50.14375" xlink:href="#m32e70d5785" y="231.981003"/>
      </g>
     </g>
     <g id="text_11">
      <!-- 0.10 -->
      <g transform="translate(20.878125 235.780222)scale(0.1 -0.1)">
       <use xlink:href="#DejaVuSans-48"/>
       <use x="63.623047" xlink:href="#DejaVuSans-46"/>
       <use x="95.410156" xlink:href="#DejaVuSans-49"/>
       <use x="159.033203" xlink:href="#DejaVuSans-48"/>
      </g>
     </g>
    </g>
    <g id="ytick_2">
     <g id="line2d_11">
      <g>
       <use style="stroke:#000000;stroke-width:0.8;" x="50.14375" xlink:href="#m32e70d5785" y="203.198101"/>
      </g>
     </g>
     <g id="text_12">
      <!-- 0.15 -->
      <g transform="translate(20.878125 206.99732)scale(0.1 -0.1)">
       <use xlink:href="#DejaVuSans-48"/>
       <use x="63.623047" xlink:href="#DejaVuSans-46"/>
       <use x="95.410156" xlink:href="#DejaVuSans-49"/>
       <use x="159.033203" xlink:href="#DejaVuSans-53"/>
      </g>
     </g>
    </g>
    <g id="ytick_3">
     <g id="line2d_12">
      <g>
       <use style="stroke:#000000;stroke-width:0.8;" x="50.14375" xlink:href="#m32e70d5785" y="174.415199"/>
      </g>
     </g>
     <g id="text_13">
      <!-- 0.20 -->
      <g transform="translate(20.878125 178.214417)scale(0.1 -0.1)">
       <use xlink:href="#DejaVuSans-48"/>
       <use x="63.623047" xlink:href="#DejaVuSans-46"/>
       <use x="95.410156" xlink:href="#DejaVuSans-50"/>
       <use x="159.033203" xlink:href="#DejaVuSans-48"/>
      </g>
     </g>
    </g>
    <g id="ytick_4">
     <g id="line2d_13">
      <g>
       <use style="stroke:#000000;stroke-width:0.8;" x="50.14375" xlink:href="#m32e70d5785" y="145.632296"/>
      </g>
     </g>
     <g id="text_14">
      <!-- 0.25 -->
      <g transform="translate(20.878125 149.431515)scale(0.1 -0.1)">
       <use xlink:href="#DejaVuSans-48"/>
       <use x="63.623047" xlink:href="#DejaVuSans-46"/>
       <use x="95.410156" xlink:href="#DejaVuSans-50"/>
       <use x="159.033203" xlink:href="#DejaVuSans-53"/>
      </g>
     </g>
    </g>
    <g id="ytick_5">
     <g id="line2d_14">
      <g>
       <use style="stroke:#000000;stroke-width:0.8;" x="50.14375" xlink:href="#m32e70d5785" y="116.849394"/>
      </g>
     </g>
     <g id="text_15">
      <!-- 0.30 -->
      <defs>
       <path d="M 40.578125 39.3125 
Q 47.65625 37.796875 51.625 33 
Q 55.609375 28.21875 55.609375 21.1875 
Q 55.609375 10.40625 48.1875 4.484375 
Q 40.765625 -1.421875 27.09375 -1.421875 
Q 22.515625 -1.421875 17.65625 -0.515625 
Q 12.796875 0.390625 7.625 2.203125 
L 7.625 11.71875 
Q 11.71875 9.328125 16.59375 8.109375 
Q 21.484375 6.890625 26.8125 6.890625 
Q 36.078125 6.890625 40.9375 10.546875 
Q 45.796875 14.203125 45.796875 21.1875 
Q 45.796875 27.640625 41.28125 31.265625 
Q 36.765625 34.90625 28.71875 34.90625 
L 20.21875 34.90625 
L 20.21875 43.015625 
L 29.109375 43.015625 
Q 36.375 43.015625 40.234375 45.921875 
Q 44.09375 48.828125 44.09375 54.296875 
Q 44.09375 59.90625 40.109375 62.90625 
Q 36.140625 65.921875 28.71875 65.921875 
Q 24.65625 65.921875 20.015625 65.03125 
Q 15.375 64.15625 9.8125 62.3125 
L 9.8125 71.09375 
Q 15.4375 72.65625 20.34375 73.4375 
Q 25.25 74.21875 29.59375 74.21875 
Q 40.828125 74.21875 47.359375 69.109375 
Q 53.90625 64.015625 53.90625 55.328125 
Q 53.90625 49.265625 50.4375 45.09375 
Q 46.96875 40.921875 40.578125 39.3125 
z
" id="DejaVuSans-51"/>
      </defs>
      <g transform="translate(20.878125 120.648613)scale(0.1 -0.1)">
       <use xlink:href="#DejaVuSans-48"/>
       <use x="63.623047" xlink:href="#DejaVuSans-46"/>
       <use x="95.410156" xlink:href="#DejaVuSans-51"/>
       <use x="159.033203" xlink:href="#DejaVuSans-48"/>
      </g>
     </g>
    </g>
    <g id="ytick_6">
     <g id="line2d_15">
      <g>
       <use style="stroke:#000000;stroke-width:0.8;" x="50.14375" xlink:href="#m32e70d5785" y="88.066491"/>
      </g>
     </g>
     <g id="text_16">
      <!-- 0.35 -->
      <g transform="translate(20.878125 91.86571)scale(0.1 -0.1)">
       <use xlink:href="#DejaVuSans-48"/>
       <use x="63.623047" xlink:href="#DejaVuSans-46"/>
       <use x="95.410156" xlink:href="#DejaVuSans-51"/>
       <use x="159.033203" xlink:href="#DejaVuSans-53"/>
      </g>
     </g>
    </g>
    <g id="ytick_7">
     <g id="line2d_16">
      <g>
       <use style="stroke:#000000;stroke-width:0.8;" x="50.14375" xlink:href="#m32e70d5785" y="59.283589"/>
      </g>
     </g>
     <g id="text_17">
      <!-- 0.40 -->
      <defs>
       <path d="M 37.796875 64.3125 
L 12.890625 25.390625 
L 37.796875 25.390625 
z
M 35.203125 72.90625 
L 47.609375 72.90625 
L 47.609375 25.390625 
L 58.015625 25.390625 
L 58.015625 17.1875 
L 47.609375 17.1875 
L 47.609375 0 
L 37.796875 0 
L 37.796875 17.1875 
L 4.890625 17.1875 
L 4.890625 26.703125 
z
" id="DejaVuSans-52"/>
      </defs>
      <g transform="translate(20.878125 63.082808)scale(0.1 -0.1)">
       <use xlink:href="#DejaVuSans-48"/>
       <use x="63.623047" xlink:href="#DejaVuSans-46"/>
       <use x="95.410156" xlink:href="#DejaVuSans-52"/>
       <use x="159.033203" xlink:href="#DejaVuSans-48"/>
      </g>
     </g>
    </g>
    <g id="ytick_8">
     <g id="line2d_17">
      <g>
       <use style="stroke:#000000;stroke-width:0.8;" x="50.14375" xlink:href="#m32e70d5785" y="30.500687"/>
      </g>
     </g>
     <g id="text_18">
      <!-- 0.45 -->
      <g transform="translate(20.878125 34.299905)scale(0.1 -0.1)">
       <use xlink:href="#DejaVuSans-48"/>
       <use x="63.623047" xlink:href="#DejaVuSans-46"/>
       <use x="95.410156" xlink:href="#DejaVuSans-52"/>
       <use x="159.033203" xlink:href="#DejaVuSans-53"/>
      </g>
     </g>
    </g>
    <g id="text_19">
     <!-- Absorbance215 -->
     <defs>
      <path d="M 34.1875 63.1875 
L 20.796875 26.90625 
L 47.609375 26.90625 
z
M 28.609375 72.90625 
L 39.796875 72.90625 
L 67.578125 0 
L 57.328125 0 
L 50.6875 18.703125 
L 17.828125 18.703125 
L 11.1875 0 
L 0.78125 0 
z
" id="DejaVuSans-65"/>
      <path d="M 48.6875 27.296875 
Q 48.6875 37.203125 44.609375 42.84375 
Q 40.53125 48.484375 33.40625 48.484375 
Q 26.265625 48.484375 22.1875 42.84375 
Q 18.109375 37.203125 18.109375 27.296875 
Q 18.109375 17.390625 22.1875 11.75 
Q 26.265625 6.109375 33.40625 6.109375 
Q 40.53125 6.109375 44.609375 11.75 
Q 48.6875 17.390625 48.6875 27.296875 
z
M 18.109375 46.390625 
Q 20.953125 51.265625 25.265625 53.625 
Q 29.59375 56 35.59375 56 
Q 45.5625 56 51.78125 48.09375 
Q 58.015625 40.1875 58.015625 27.296875 
Q 58.015625 14.40625 51.78125 6.484375 
Q 45.5625 -1.421875 35.59375 -1.421875 
Q 29.59375 -1.421875 25.265625 0.953125 
Q 20.953125 3.328125 18.109375 8.203125 
L 18.109375 0 
L 9.078125 0 
L 9.078125 75.984375 
L 18.109375 75.984375 
z
" id="DejaVuSans-98"/>
      <path d="M 30.609375 48.390625 
Q 23.390625 48.390625 19.1875 42.75 
Q 14.984375 37.109375 14.984375 27.296875 
Q 14.984375 17.484375 19.15625 11.84375 
Q 23.34375 6.203125 30.609375 6.203125 
Q 37.796875 6.203125 41.984375 11.859375 
Q 46.1875 17.53125 46.1875 27.296875 
Q 46.1875 37.015625 41.984375 42.703125 
Q 37.796875 48.390625 30.609375 48.390625 
z
M 30.609375 56 
Q 42.328125 56 49.015625 48.375 
Q 55.71875 40.765625 55.71875 27.296875 
Q 55.71875 13.875 49.015625 6.21875 
Q 42.328125 -1.421875 30.609375 -1.421875 
Q 18.84375 -1.421875 12.171875 6.21875 
Q 5.515625 13.875 5.515625 27.296875 
Q 5.515625 40.765625 12.171875 48.375 
Q 18.84375 56 30.609375 56 
z
" id="DejaVuSans-111"/>
      <path d="M 41.109375 46.296875 
Q 39.59375 47.171875 37.8125 47.578125 
Q 36.03125 48 33.890625 48 
Q 26.265625 48 22.1875 43.046875 
Q 18.109375 38.09375 18.109375 28.8125 
L 18.109375 0 
L 9.078125 0 
L 9.078125 54.6875 
L 18.109375 54.6875 
L 18.109375 46.1875 
Q 20.953125 51.171875 25.484375 53.578125 
Q 30.03125 56 36.53125 56 
Q 37.453125 56 38.578125 55.875 
Q 39.703125 55.765625 41.0625 55.515625 
z
" id="DejaVuSans-114"/>
      <path d="M 34.28125 27.484375 
Q 23.390625 27.484375 19.1875 25 
Q 14.984375 22.515625 14.984375 16.5 
Q 14.984375 11.71875 18.140625 8.90625 
Q 21.296875 6.109375 26.703125 6.109375 
Q 34.1875 6.109375 38.703125 11.40625 
Q 43.21875 16.703125 43.21875 25.484375 
L 43.21875 27.484375 
z
M 52.203125 31.203125 
L 52.203125 0 
L 43.21875 0 
L 43.21875 8.296875 
Q 40.140625 3.328125 35.546875 0.953125 
Q 30.953125 -1.421875 24.3125 -1.421875 
Q 15.921875 -1.421875 10.953125 3.296875 
Q 6 8.015625 6 15.921875 
Q 6 25.140625 12.171875 29.828125 
Q 18.359375 34.515625 30.609375 34.515625 
L 43.21875 34.515625 
L 43.21875 35.40625 
Q 43.21875 41.609375 39.140625 45 
Q 35.0625 48.390625 27.6875 48.390625 
Q 23 48.390625 18.546875 47.265625 
Q 14.109375 46.140625 10.015625 43.890625 
L 10.015625 52.203125 
Q 14.9375 54.109375 19.578125 55.046875 
Q 24.21875 56 28.609375 56 
Q 40.484375 56 46.34375 49.84375 
Q 52.203125 43.703125 52.203125 31.203125 
z
" id="DejaVuSans-97"/>
      <path d="M 54.890625 33.015625 
L 54.890625 0 
L 45.90625 0 
L 45.90625 32.71875 
Q 45.90625 40.484375 42.875 44.328125 
Q 39.84375 48.1875 33.796875 48.1875 
Q 26.515625 48.1875 22.3125 43.546875 
Q 18.109375 38.921875 18.109375 30.90625 
L 18.109375 0 
L 9.078125 0 
L 9.078125 54.6875 
L 18.109375 54.6875 
L 18.109375 46.1875 
Q 21.34375 51.125 25.703125 53.5625 
Q 30.078125 56 35.796875 56 
Q 45.21875 56 50.046875 50.171875 
Q 54.890625 44.34375 54.890625 33.015625 
z
" id="DejaVuSans-110"/>
      <path d="M 48.78125 52.59375 
L 48.78125 44.1875 
Q 44.96875 46.296875 41.140625 47.34375 
Q 37.3125 48.390625 33.40625 48.390625 
Q 24.65625 48.390625 19.8125 42.84375 
Q 14.984375 37.3125 14.984375 27.296875 
Q 14.984375 17.28125 19.8125 11.734375 
Q 24.65625 6.203125 33.40625 6.203125 
Q 37.3125 6.203125 41.140625 7.25 
Q 44.96875 8.296875 48.78125 10.40625 
L 48.78125 2.09375 
Q 45.015625 0.34375 40.984375 -0.53125 
Q 36.96875 -1.421875 32.421875 -1.421875 
Q 20.0625 -1.421875 12.78125 6.34375 
Q 5.515625 14.109375 5.515625 27.296875 
Q 5.515625 40.671875 12.859375 48.328125 
Q 20.21875 56 33.015625 56 
Q 37.15625 56 41.109375 55.140625 
Q 45.0625 54.296875 48.78125 52.59375 
z
" id="DejaVuSans-99"/>
     </defs>
     <g transform="translate(14.798438 170.12875)rotate(-90)scale(0.1 -0.1)">
      <use xlink:href="#DejaVuSans-65"/>
      <use x="68.408203" xlink:href="#DejaVuSans-98"/>
      <use x="131.884766" xlink:href="#DejaVuSans-115"/>
      <use x="183.984375" xlink:href="#DejaVuSans-111"/>
      <use x="245.166016" xlink:href="#DejaVuSans-114"/>
      <use x="286.279297" xlink:href="#DejaVuSans-98"/>
      <use x="349.755859" xlink:href="#DejaVuSans-97"/>
      <use x="411.035156" xlink:href="#DejaVuSans-110"/>
      <use x="474.414062" xlink:href="#DejaVuSans-99"/>
      <use x="529.394531" xlink:href="#DejaVuSans-101"/>
      <use x="590.917969" xlink:href="#DejaVuSans-50"/>
      <use x="654.541016" xlink:href="#DejaVuSans-49"/>
      <use x="718.164062" xlink:href="#DejaVuSans-53"/>
     </g>
    </g>
   </g>
   <g id="line2d_18">
    <defs>
     <path d="M 0 3 
C 0.795609 3 1.55874 2.683901 2.12132 2.12132 
C 2.683901 1.55874 3 0.795609 3 0 
C 3 -0.795609 2.683901 -1.55874 2.12132 -2.12132 
C 1.55874 -2.683901 0.795609 -3 0 -3 
C -0.795609 -3 -1.55874 -2.683901 -2.12132 -2.12132 
C -2.683901 -1.55874 -3 -0.795609 -3 0 
C -3 0.795609 -2.683901 1.55874 -2.12132 2.12132 
C -1.55874 2.683901 -0.795609 3 0 3 
z
" id="ma84e24bce2" style="stroke:#000000;"/>
    </defs>
    <g clip-path="url(#p7eb8fac311)">
     <use style="stroke:#000000;" x="65.750636" xlink:href="#ma84e24bce2" y="93.247414"/>
     <use style="stroke:#000000;" x="66.528196" xlink:href="#ma84e24bce2" y="103.609259"/>
     <use style="stroke:#000000;" x="67.69446" xlink:href="#ma84e24bce2" y="97.852678"/>
     <use style="stroke:#000000;" x="68.47202" xlink:href="#ma84e24bce2" y="92.671756"/>
     <use style="stroke:#000000;" x="70.415844" xlink:href="#ma84e24bce2" y="84.036885"/>
     <use style="stroke:#000000;" x="71.970813" xlink:href="#ma84e24bce2" y="77.128988"/>
     <use style="stroke:#000000;" x="73.137228" xlink:href="#ma84e24bce2" y="66.767144"/>
     <use style="stroke:#000000;" x="73.525932" xlink:href="#ma84e24bce2" y="63.313195"/>
     <use style="stroke:#000000;" x="75.469757" xlink:href="#ma84e24bce2" y="65.615828"/>
     <use style="stroke:#000000;" x="75.858461" xlink:href="#ma84e24bce2" y="58.132273"/>
     <use style="stroke:#000000;" x="78.191141" xlink:href="#ma84e24bce2" y="60.434905"/>
     <use style="stroke:#000000;" x="79.357405" xlink:href="#ma84e24bce2" y="52.95135"/>
     <use style="stroke:#000000;" x="81.301229" xlink:href="#ma84e24bce2" y="56.405299"/>
     <use style="stroke:#000000;" x="83.245053" xlink:href="#ma84e24bce2" y="50.07306"/>
     <use style="stroke:#000000;" x="85.188877" xlink:href="#ma84e24bce2" y="56.405299"/>
     <use style="stroke:#000000;" x="86.355141" xlink:href="#ma84e24bce2" y="48.921744"/>
     <use style="stroke:#000000;" x="87.91011" xlink:href="#ma84e24bce2" y="55.253983"/>
     <use style="stroke:#000000;" x="89.465229" xlink:href="#ma84e24bce2" y="47.770428"/>
     <use style="stroke:#000000;" x="90.242789" xlink:href="#ma84e24bce2" y="56.405299"/>
     <use style="stroke:#000000;" x="92.964173" xlink:href="#ma84e24bce2" y="51.224376"/>
     <use style="stroke:#000000;" x="93.352878" xlink:href="#ma84e24bce2" y="54.102667"/>
     <use style="stroke:#000000;" x="96.462966" xlink:href="#ma84e24bce2" y="51.800034"/>
     <use style="stroke:#000000;" x="98.018086" xlink:href="#ma84e24bce2" y="58.132273"/>
     <use style="stroke:#000000;" x="100.350614" xlink:href="#ma84e24bce2" y="55.253983"/>
     <use style="stroke:#000000;" x="101.128174" xlink:href="#ma84e24bce2" y="62.161879"/>
     <use style="stroke:#000000;" x="103.460702" xlink:href="#ma84e24bce2" y="56.980957"/>
     <use style="stroke:#000000;" x="103.849558" xlink:href="#ma84e24bce2" y="66.767144"/>
     <use style="stroke:#000000;" x="106.959646" xlink:href="#ma84e24bce2" y="60.434905"/>
     <use style="stroke:#000000;" x="106.959646" xlink:href="#ma84e24bce2" y="66.767144"/>
     <use style="stroke:#000000;" x="109.292175" xlink:href="#ma84e24bce2" y="61.586221"/>
     <use style="stroke:#000000;" x="111.235999" xlink:href="#ma84e24bce2" y="69.645434"/>
     <use style="stroke:#000000;" x="112.791119" xlink:href="#ma84e24bce2" y="62.161879"/>
     <use style="stroke:#000000;" x="113.957383" xlink:href="#ma84e24bce2" y="69.645434"/>
     <use style="stroke:#000000;" x="116.678767" xlink:href="#ma84e24bce2" y="67.342802"/>
     <use style="stroke:#000000;" x="118.233735" xlink:href="#ma84e24bce2" y="70.79675"/>
     <use style="stroke:#000000;" x="120.955119" xlink:href="#ma84e24bce2" y="70.693131"/>
     <use style="stroke:#000000;" x="122.121383" xlink:href="#ma84e24bce2" y="78.990667"/>
     <use style="stroke:#000000;" x="124.842767" xlink:href="#ma84e24bce2" y="72.767227"/>
     <use style="stroke:#000000;" x="125.620327" xlink:href="#ma84e24bce2" y="78.990667"/>
     <use style="stroke:#000000;" x="127.175296" xlink:href="#ma84e24bce2" y="75.879235"/>
     <use style="stroke:#000000;" x="129.507824" xlink:href="#ma84e24bce2" y="81.065338"/>
     <use style="stroke:#000000;" x="130.673785" xlink:href="#ma84e24bce2" y="74.841899"/>
     <use style="stroke:#000000;" x="131.841261" xlink:href="#ma84e24bce2" y="83.139434"/>
     <use style="stroke:#000000;" x="133.007222" xlink:href="#ma84e24bce2" y="77.953331"/>
     <use style="stroke:#000000;" x="133.394866" xlink:href="#ma84e24bce2" y="86.251442"/>
     <use style="stroke:#000000;" x="137.283423" xlink:href="#ma84e24bce2" y="82.102674"/>
     <use style="stroke:#000000;" x="137.283423" xlink:href="#ma84e24bce2" y="88.325537"/>
     <use style="stroke:#000000;" x="140.782821" xlink:href="#ma84e24bce2" y="82.102674"/>
     <use style="stroke:#000000;" x="140.782821" xlink:href="#ma84e24bce2" y="89.362873"/>
     <use style="stroke:#000000;" x="143.891547" xlink:href="#ma84e24bce2" y="87.288777"/>
     <use style="stroke:#000000;" x="144.669864" xlink:href="#ma84e24bce2" y="94.548977"/>
     <use style="stroke:#000000;" x="149.724382" xlink:href="#ma84e24bce2" y="91.437545"/>
     <use style="stroke:#000000;" x="150.112026" xlink:href="#ma84e24bce2" y="96.623648"/>
     <use style="stroke:#000000;" x="154.388227" xlink:href="#ma84e24bce2" y="96.623648"/>
     <use style="stroke:#000000;" x="154.388227" xlink:href="#ma84e24bce2" y="101.809752"/>
     <use style="stroke:#000000;" x="157.110823" xlink:href="#ma84e24bce2" y="98.697744"/>
     <use style="stroke:#000000;" x="157.887625" xlink:href="#ma84e24bce2" y="105.958519"/>
     <use style="stroke:#000000;" x="161.774668" xlink:href="#ma84e24bce2" y="100.772416"/>
     <use style="stroke:#000000;" x="161.774668" xlink:href="#ma84e24bce2" y="110.107287"/>
     <use style="stroke:#000000;" x="164.497263" xlink:href="#ma84e24bce2" y="103.883848"/>
     <use style="stroke:#000000;" x="164.884908" xlink:href="#ma84e24bce2" y="110.107287"/>
     <use style="stroke:#000000;" x="168.773464" xlink:href="#ma84e24bce2" y="104.921183"/>
     <use style="stroke:#000000;" x="169.161109" xlink:href="#ma84e24bce2" y="114.256054"/>
     <use style="stroke:#000000;" x="172.271348" xlink:href="#ma84e24bce2" y="111.144623"/>
     <use style="stroke:#000000;" x="173.438824" xlink:href="#ma84e24bce2" y="115.29339"/>
     <use style="stroke:#000000;" x="176.936708" xlink:href="#ma84e24bce2" y="113.219294"/>
     <use style="stroke:#000000;" x="176.936708" xlink:href="#ma84e24bce2" y="120.479493"/>
     <use style="stroke:#000000;" x="180.046947" xlink:href="#ma84e24bce2" y="118.405397"/>
     <use style="stroke:#000000;" x="182.380384" xlink:href="#ma84e24bce2" y="122.554165"/>
     <use style="stroke:#000000;" x="186.656585" xlink:href="#ma84e24bce2" y="121.516829"/>
     <use style="stroke:#000000;" x="187.433388" xlink:href="#ma84e24bce2" y="126.702933"/>
     <use style="stroke:#000000;" x="189.766825" xlink:href="#ma84e24bce2" y="121.516829"/>
     <use style="stroke:#000000;" x="190.154469" xlink:href="#ma84e24bce2" y="129.81494"/>
     <use style="stroke:#000000;" x="194.432185" xlink:href="#ma84e24bce2" y="126.702933"/>
     <use style="stroke:#000000;" x="195.598146" xlink:href="#ma84e24bce2" y="132.926372"/>
     <use style="stroke:#000000;" x="198.708386" xlink:href="#ma84e24bce2" y="129.81494"/>
     <use style="stroke:#000000;" x="200.65115" xlink:href="#ma84e24bce2" y="136.037803"/>
     <use style="stroke:#000000;" x="202.595428" xlink:href="#ma84e24bce2" y="131.889036"/>
     <use style="stroke:#000000;" x="205.705668" xlink:href="#ma84e24bce2" y="141.223907"/>
     <use style="stroke:#000000;" x="208.815907" xlink:href="#ma84e24bce2" y="136.037803"/>
     <use style="stroke:#000000;" x="209.59271" xlink:href="#ma84e24bce2" y="141.223907"/>
     <use style="stroke:#000000;" x="212.315306" xlink:href="#ma84e24bce2" y="137.075139"/>
     <use style="stroke:#000000;" x="214.25807" xlink:href="#ma84e24bce2" y="144.335914"/>
     <use style="stroke:#000000;" x="216.591507" xlink:href="#ma84e24bce2" y="141.223907"/>
     <use style="stroke:#000000;" x="219.312588" xlink:href="#ma84e24bce2" y="146.41001"/>
     <use style="stroke:#000000;" x="220.867708" xlink:href="#ma84e24bce2" y="140.187147"/>
     <use style="stroke:#000000;" x="221.64451" xlink:href="#ma84e24bce2" y="150.559353"/>
     <use style="stroke:#000000;" x="226.699029" xlink:href="#ma84e24bce2" y="148.484682"/>
     <use style="stroke:#000000;" x="229.42011" xlink:href="#ma84e24bce2" y="155.745457"/>
     <use style="stroke:#000000;" x="231.364388" xlink:href="#ma84e24bce2" y="149.522018"/>
     <use style="stroke:#000000;" x="232.141191" xlink:href="#ma84e24bce2" y="154.708121"/>
     <use style="stroke:#000000;" x="234.474628" xlink:href="#ma84e24bce2" y="151.596114"/>
     <use style="stroke:#000000;" x="236.80655" xlink:href="#ma84e24bce2" y="158.856888"/>
     <use style="stroke:#000000;" x="240.305949" xlink:href="#ma84e24bce2" y="153.670785"/>
     <use style="stroke:#000000;" x="244.192991" xlink:href="#ma84e24bce2" y="166.117663"/>
     <use style="stroke:#000000;" x="246.137269" xlink:href="#ma84e24bce2" y="156.782217"/>
     <use style="stroke:#000000;" x="247.692389" xlink:href="#ma84e24bce2" y="167.154424"/>
     <use style="stroke:#000000;" x="252.357749" xlink:href="#ma84e24bce2" y="161.96832"/>
     <use style="stroke:#000000;" x="254.689671" xlink:href="#ma84e24bce2" y="173.377863"/>
     <use style="stroke:#000000;" x="258.965872" xlink:href="#ma84e24bce2" y="169.229095"/>
     <use style="stroke:#000000;" x="259.74419" xlink:href="#ma84e24bce2" y="176.48987"/>
     <use style="stroke:#000000;" x="262.465271" xlink:href="#ma84e24bce2" y="172.340527"/>
     <use style="stroke:#000000;" x="264.020391" xlink:href="#ma84e24bce2" y="179.601302"/>
     <use style="stroke:#000000;" x="267.13063" xlink:href="#ma84e24bce2" y="174.415199"/>
     <use style="stroke:#000000;" x="268.68575" xlink:href="#ma84e24bce2" y="180.638638"/>
     <use style="stroke:#000000;" x="271.017673" xlink:href="#ma84e24bce2" y="178.563966"/>
     <use style="stroke:#000000;" x="272.183634" xlink:href="#ma84e24bce2" y="183.750069"/>
     <use style="stroke:#000000;" x="276.848994" xlink:href="#ma84e24bce2" y="181.675973"/>
     <use style="stroke:#000000;" x="277.238152" xlink:href="#ma84e24bce2" y="186.862077"/>
     <use style="stroke:#000000;" x="281.514353" xlink:href="#ma84e24bce2" y="184.787405"/>
     <use style="stroke:#000000;" x="283.069473" xlink:href="#ma84e24bce2" y="191.010844"/>
     <use style="stroke:#000000;" x="285.40291" xlink:href="#ma84e24bce2" y="185.824741"/>
     <use style="stroke:#000000;" x="286.95803" xlink:href="#ma84e24bce2" y="194.122276"/>
     <use style="stroke:#000000;" x="288.900794" xlink:href="#ma84e24bce2" y="189.973509"/>
     <use style="stroke:#000000;" x="290.455914" xlink:href="#ma84e24bce2" y="196.196948"/>
     <use style="stroke:#000000;" x="294.732115" xlink:href="#ma84e24bce2" y="191.010844"/>
     <use style="stroke:#000000;" x="296.287234" xlink:href="#ma84e24bce2" y="196.196948"/>
     <use style="stroke:#000000;" x="299.008316" xlink:href="#ma84e24bce2" y="191.010844"/>
     <use style="stroke:#000000;" x="300.563435" xlink:href="#ma84e24bce2" y="201.383051"/>
     <use style="stroke:#000000;" x="303.286031" xlink:href="#ma84e24bce2" y="196.196948"/>
     <use style="stroke:#000000;" x="303.673675" xlink:href="#ma84e24bce2" y="200.345715"/>
     <use style="stroke:#000000;" x="306.007112" xlink:href="#ma84e24bce2" y="203.457147"/>
     <use style="stroke:#000000;" x="306.394756" xlink:href="#ma84e24bce2" y="199.308379"/>
     <use style="stroke:#000000;" x="306.783915" xlink:href="#ma84e24bce2" y="197.234284"/>
    </g>
   </g>
   <g id="line2d_19">
    <path clip-path="url(#p7eb8fac311)" d="M 65.361932 100.359503 
L 65.491161 100.292471 
L 65.705224 99.845213 
L 66.162067 98.24815 
L 70.303886 82.301008 
L 72.013554 76.888835 
L 73.64747 72.41753 
L 75.181848 68.832931 
L 76.800517 65.669602 
L 78.453894 63.051882 
L 80.10727 61.001612 
L 81.209521 59.921542 
L 82.311772 59.05041 
L 83.414023 58.370791 
L 85.0674 57.673532 
L 86.720776 57.315055 
L 88.374153 57.24586 
L 90.027529 57.421638 
L 91.680906 57.803389 
L 93.885407 58.574961 
L 96.497895 59.79458 
L 99.353793 61.409255 
L 103.025662 63.784485 
L 107.367366 66.868038 
L 114.02006 71.891262 
L 145.543418 96.059966 
L 157.295884 104.637725 
L 167.628477 111.933909 
L 178.852868 119.598183 
L 188.244544 125.80283 
L 199.906421 133.246065 
L 213.161575 141.359895 
L 226.416729 149.112246 
L 236.564972 154.808246 
L 247.031668 160.470243 
L 259.614141 166.997316 
L 272.196613 173.227282 
L 284.102573 178.856712 
L 296.008533 184.235799 
L 307.914493 189.372483 
L 319.820453 194.274832 
L 331.726413 198.950995 
L 345.853923 204.217532 
L 357.475397 208.329373 
L 369.725568 212.457095 
L 369.725568 212.457095 
" style="fill:none;stroke:#0000ff;stroke-linecap:square;stroke-width:1.5;"/>
   </g>
   <g id="line2d_20">
    <path clip-path="url(#p7eb8fac311)" d="M 65.361932 118.642734 
L 65.4954 118.586683 
L 65.704217 118.157665 
L 66.051139 116.826911 
L 66.718297 113.210844 
L 70.107384 93.743765 
L 71.586029 86.766683 
L 72.996384 81.053754 
L 74.223393 76.800071 
L 75.632006 72.688113 
L 77.04062 69.3357 
L 78.449233 66.668781 
L 79.505694 65.0726 
L 80.562154 63.787384 
L 81.618614 62.78248 
L 82.675074 62.028779 
L 83.731534 61.499031 
L 84.787994 61.168018 
L 86.196608 60.996193 
L 87.429972 61.063665 
L 89.017144 61.401659 
L 90.604316 61.973883 
L 92.720545 63.025895 
L 94.836775 64.332136 
L 97.482062 66.224781 
L 101.185463 69.198495 
L 106.241793 73.602717 
L 115.165081 81.72876 
L 128.786619 94.086846 
L 139.244614 103.26313 
L 149.322159 111.795245 
L 159.073447 119.753475 
L 168.846704 127.436502 
L 178.600151 134.814615 
L 188.353597 141.908088 
L 198.107044 148.722064 
L 207.86049 155.262247 
L 217.655311 161.560857 
L 227.854565 167.839864 
L 238.05382 173.841321 
L 248.253074 179.573432 
L 258.452328 185.044643 
L 268.651583 190.263579 
L 280.86831 196.19506 
L 291.767238 201.20413 
L 302.666165 205.957901 
L 313.565093 210.467058 
L 324.464021 214.742174 
L 335.362949 218.793655 
L 347.104054 222.919683 
L 357.642418 226.422359 
L 368.605503 229.874489 
L 368.605503 229.874489 
" style="fill:none;stroke:#ff0000;stroke-linecap:square;stroke-width:1.5;"/>
   </g>
   <g id="line2d_21">
    <path clip-path="url(#p7eb8fac311)" d="M 65.750636 69.00945 
L 66.528196 66.518624 
L 67.69446 62.373834 
L 68.47202 59.658945 
L 70.415844 53.251568 
L 71.970813 48.653322 
L 73.137228 45.569579 
L 73.525932 44.617675 
L 75.469757 40.442842 
L 75.858461 39.721369 
L 78.191141 36.196905 
L 79.357405 34.894958 
L 81.301229 33.349331 
L 83.245053 32.492063 
L 85.188877 32.201761 
L 86.355141 32.25992 
L 87.91011 32.56371 
L 89.465229 33.085525 
L 90.242789 33.419311 
L 92.964173 34.877971 
L 93.352878 35.116863 
L 96.462966 37.259216 
L 98.018086 38.451524 
L 100.350614 40.346398 
L 101.128174 41.000665 
L 103.460702 43.017945 
L 103.849558 43.360722 
L 106.959646 46.13866 
L 106.959646 46.13866 
L 109.292175 48.257957 
L 111.235999 50.03685 
L 112.791119 51.464212 
L 113.957383 52.534742 
L 116.678767 55.02931 
L 118.233735 56.449852 
L 120.955119 58.922377 
L 122.121383 59.975583 
L 124.842767 62.415705 
L 125.620327 63.10814 
L 127.175296 64.485833 
L 129.507824 66.534847 
L 130.673785 67.550711 
L 131.841261 68.562234 
L 133.007222 69.566421 
L 133.394866 69.898954 
L 137.283423 73.199177 
L 137.283423 73.199177 
L 140.782821 76.110788 
L 140.782821 76.110788 
L 143.891547 78.650932 
L 144.669864 79.27997 
L 149.724382 83.29722 
L 150.112026 83.600843 
L 154.388227 86.90131 
L 154.388227 86.90131 
L 157.110823 88.96133 
L 157.887625 89.542763 
L 161.774668 92.414601 
L 161.774668 92.414601 
L 164.497263 94.387619 
L 164.884908 94.665961 
L 168.773464 97.423844 
L 169.161109 97.69587 
L 172.271348 99.85469 
L 173.438824 100.655476 
L 176.936708 103.02276 
L 176.936708 103.02276 
L 180.046947 105.088946 
L 182.380384 106.616913 
L 186.656585 109.364782 
L 187.433388 109.858062 
L 189.766825 111.325827 
L 190.154469 111.568251 
L 194.432185 114.204806 
L 195.598146 114.917887 
L 198.708386 116.789262 
L 200.65115 117.947242 
L 202.595428 119.091235 
L 205.705668 120.903477 
L 208.815907 122.693763 
L 209.59271 123.132662 
L 212.315306 124.669836 
L 214.25807 125.754408 
L 216.591507 127.045796 
L 219.312588 128.533456 
L 220.867708 129.377762 
L 221.64451 129.799509 
L 226.699029 132.494111 
L 229.42011 133.92468 
L 231.364388 134.930596 
L 232.141191 135.334397 
L 234.474628 136.532053 
L 236.80655 137.720963 
L 240.305949 139.481067 
L 244.192991 141.407347 
L 246.137269 142.358294 
L 247.692389 143.116666 
L 252.357749 145.368245 
L 254.689671 146.477785 
L 258.965872 148.487971 
L 259.74419 148.851568 
L 262.465271 150.108766 
L 264.020391 150.822312 
L 267.13063 152.241754 
L 268.68575 152.94707 
L 271.017673 153.993729 
L 272.183634 154.517025 
L 276.848994 156.569319 
L 277.238152 156.741083 
L 281.514353 158.596764 
L 283.069473 159.270731 
L 285.40291 160.267916 
L 286.95803 160.92537 
L 288.900794 161.74884 
L 290.455914 162.405234 
L 294.732115 164.182591 
L 296.287234 164.828481 
L 299.008316 165.934186 
L 300.563435 166.568256 
L 303.286031 167.667295 
L 303.673675 167.821945 
L 306.007112 168.755046 
L 306.394756 168.910423 
L 306.783915 169.066512 
" style="fill:none;stroke:#0000ff;stroke-dasharray:5.55,2.4;stroke-dashoffset:0;stroke-width:1.5;"/>
   </g>
   <g id="line2d_22">
    <path clip-path="url(#p7eb8fac311)" d="M 65.750636 126.144853 
L 66.528196 122.900857 
L 67.69446 117.70696 
L 68.47202 114.451092 
L 70.415844 107.117893 
L 71.970813 102.039344 
L 73.137228 98.660557 
L 73.525932 97.612807 
L 75.469757 92.912585 
L 75.858461 92.077499 
L 78.191141 87.747386 
L 79.357405 85.990614 
L 81.301229 83.600336 
L 83.245053 81.818947 
L 85.188877 80.562725 
L 86.355141 80.032068 
L 87.91011 79.547905 
L 89.465229 79.295469 
L 90.242789 79.249784 
L 92.964173 79.425661 
L 93.352878 79.488141 
L 96.462966 80.284434 
L 98.018086 80.838116 
L 100.350614 81.820342 
L 101.128174 82.181869 
L 103.460702 83.348177 
L 103.849558 83.552969 
L 106.959646 85.286348 
L 106.959646 85.286348 
L 109.292175 86.668811 
L 111.235999 87.861696 
L 112.791119 88.836689 
L 113.957383 89.578403 
L 116.678767 91.337291 
L 118.233735 92.356507 
L 120.955119 94.159556 
L 122.121383 94.938344 
L 124.842767 96.766738 
L 125.620327 97.29149 
L 127.175296 98.343558 
L 129.507824 99.9272 
L 130.673785 100.720772 
L 131.841261 101.516574 
L 133.007222 102.312654 
L 133.394866 102.57723 
L 137.283423 105.237379 
L 137.283423 105.237379 
L 140.782821 107.636337 
L 140.782821 107.636337 
L 143.891547 109.769103 
L 144.669864 110.303558 
L 149.724382 113.774657 
L 150.112026 114.040988 
L 154.388227 116.976584 
L 154.388227 116.976584 
L 157.110823 118.843699 
L 157.887625 119.376388 
L 161.774668 122.037416 
L 161.774668 122.037416 
L 164.497263 123.897622 
L 164.884908 124.16209 
L 168.773464 126.81177 
L 169.161109 127.075779 
L 172.271348 129.18667 
L 173.438824 129.978458 
L 176.936708 132.342362 
L 176.936708 132.342362 
L 180.046947 134.434058 
L 182.380384 135.998649 
L 186.656585 138.848762 
L 187.433388 139.364871 
L 189.766825 140.909935 
L 190.154469 141.166271 
L 194.432185 143.979299 
L 195.598146 144.745051 
L 198.708386 146.764875 
L 200.65115 148.022613 
L 202.595428 149.273087 
L 205.705668 151.264284 
L 208.815907 153.24248 
L 209.59271 153.730569 
L 212.315306 155.441671 
L 214.25807 156.654209 
L 216.591507 158.10253 
L 219.312588 159.777311 
L 220.867708 160.729675 
L 221.64451 161.205281 
L 226.699029 164.260005 
L 229.42011 165.879959 
L 231.364388 167.033345 
L 232.141191 167.488845 
L 234.474628 168.855575 
L 236.80655 170.207892 
L 240.305949 172.219901 
L 244.192991 174.423896 
L 246.137269 175.514525 
L 247.692389 176.38114 
L 252.357749 178.94536 
L 254.689671 180.210611 
L 258.965872 182.50292 
L 259.74419 182.916894 
L 262.465271 184.350782 
L 264.020391 185.16067 
L 267.13063 186.766794 
L 268.68575 187.563135 
L 271.017673 188.74517 
L 272.183634 189.334095 
L 276.848994 191.653152 
L 277.238152 191.84601 
L 281.514353 193.925445 
L 283.069473 194.675603 
L 285.40291 195.787475 
L 286.95803 196.520875 
L 288.900794 197.435049 
L 290.455914 198.16138 
L 294.732115 200.120932 
L 296.287234 200.82846 
L 299.008316 202.044669 
L 300.563435 202.737745 
L 303.286031 203.935829 
L 303.673675 204.104274 
L 306.007112 205.116262 
L 306.394756 205.284051 
L 306.783915 205.452402 
" style="fill:none;stroke:#0000ff;stroke-dasharray:5.55,2.4;stroke-dashoffset:0;stroke-width:1.5;"/>
   </g>
   <g id="line2d_23"/>
   <g id="line2d_24"/>
   <g id="line2d_25"/>
   <g id="line2d_26"/>
   <g id="patch_3">
    <path d="M 50.14375 239.758125 
L 50.14375 22.318125 
" style="fill:none;stroke:#000000;stroke-linecap:square;stroke-linejoin:miter;stroke-width:0.8;"/>
   </g>
   <g id="patch_4">
    <path d="M 384.94375 239.758125 
L 384.94375 22.318125 
" style="fill:none;stroke:#000000;stroke-linecap:square;stroke-linejoin:miter;stroke-width:0.8;"/>
   </g>
   <g id="patch_5">
    <path d="M 50.14375 239.758125 
L 384.94375 239.758125 
" style="fill:none;stroke:#000000;stroke-linecap:square;stroke-linejoin:miter;stroke-width:0.8;"/>
   </g>
   <g id="patch_6">
    <path d="M 50.14375 22.318125 
L 384.94375 22.318125 
" style="fill:none;stroke:#000000;stroke-linecap:square;stroke-linejoin:miter;stroke-width:0.8;"/>
   </g>
   <g id="text_20">
    <!-- Experiment_6 -->
    <defs>
     <path d="M 9.8125 72.90625 
L 55.90625 72.90625 
L 55.90625 64.59375 
L 19.671875 64.59375 
L 19.671875 43.015625 
L 54.390625 43.015625 
L 54.390625 34.71875 
L 19.671875 34.71875 
L 19.671875 8.296875 
L 56.78125 8.296875 
L 56.78125 0 
L 9.8125 0 
z
" id="DejaVuSans-69"/>
     <path d="M 54.890625 54.6875 
L 35.109375 28.078125 
L 55.90625 0 
L 45.3125 0 
L 29.390625 21.484375 
L 13.484375 0 
L 2.875 0 
L 24.125 28.609375 
L 4.6875 54.6875 
L 15.28125 54.6875 
L 29.78125 35.203125 
L 44.28125 54.6875 
z
" id="DejaVuSans-120"/>
     <path d="M 18.109375 8.203125 
L 18.109375 -20.796875 
L 9.078125 -20.796875 
L 9.078125 54.6875 
L 18.109375 54.6875 
L 18.109375 46.390625 
Q 20.953125 51.265625 25.265625 53.625 
Q 29.59375 56 35.59375 56 
Q 45.5625 56 51.78125 48.09375 
Q 58.015625 40.1875 58.015625 27.296875 
Q 58.015625 14.40625 51.78125 6.484375 
Q 45.5625 -1.421875 35.59375 -1.421875 
Q 29.59375 -1.421875 25.265625 0.953125 
Q 20.953125 3.328125 18.109375 8.203125 
z
M 48.6875 27.296875 
Q 48.6875 37.203125 44.609375 42.84375 
Q 40.53125 48.484375 33.40625 48.484375 
Q 26.265625 48.484375 22.1875 42.84375 
Q 18.109375 37.203125 18.109375 27.296875 
Q 18.109375 17.390625 22.1875 11.75 
Q 26.265625 6.109375 33.40625 6.109375 
Q 40.53125 6.109375 44.609375 11.75 
Q 48.6875 17.390625 48.6875 27.296875 
z
" id="DejaVuSans-112"/>
     <path d="M 18.3125 70.21875 
L 18.3125 54.6875 
L 36.8125 54.6875 
L 36.8125 47.703125 
L 18.3125 47.703125 
L 18.3125 18.015625 
Q 18.3125 11.328125 20.140625 9.421875 
Q 21.96875 7.515625 27.59375 7.515625 
L 36.8125 7.515625 
L 36.8125 0 
L 27.59375 0 
Q 17.1875 0 13.234375 3.875 
Q 9.28125 7.765625 9.28125 18.015625 
L 9.28125 47.703125 
L 2.6875 47.703125 
L 2.6875 54.6875 
L 9.28125 54.6875 
L 9.28125 70.21875 
z
" id="DejaVuSans-116"/>
     <path d="M 50.984375 -16.609375 
L 50.984375 -23.578125 
L -0.984375 -23.578125 
L -0.984375 -16.609375 
z
" id="DejaVuSans-95"/>
     <path d="M 33.015625 40.375 
Q 26.375 40.375 22.484375 35.828125 
Q 18.609375 31.296875 18.609375 23.390625 
Q 18.609375 15.53125 22.484375 10.953125 
Q 26.375 6.390625 33.015625 6.390625 
Q 39.65625 6.390625 43.53125 10.953125 
Q 47.40625 15.53125 47.40625 23.390625 
Q 47.40625 31.296875 43.53125 35.828125 
Q 39.65625 40.375 33.015625 40.375 
z
M 52.59375 71.296875 
L 52.59375 62.3125 
Q 48.875 64.0625 45.09375 64.984375 
Q 41.3125 65.921875 37.59375 65.921875 
Q 27.828125 65.921875 22.671875 59.328125 
Q 17.53125 52.734375 16.796875 39.40625 
Q 19.671875 43.65625 24.015625 45.921875 
Q 28.375 48.1875 33.59375 48.1875 
Q 44.578125 48.1875 50.953125 41.515625 
Q 57.328125 34.859375 57.328125 23.390625 
Q 57.328125 12.15625 50.6875 5.359375 
Q 44.046875 -1.421875 33.015625 -1.421875 
Q 20.359375 -1.421875 13.671875 8.265625 
Q 6.984375 17.96875 6.984375 36.375 
Q 6.984375 53.65625 15.1875 63.9375 
Q 23.390625 74.21875 37.203125 74.21875 
Q 40.921875 74.21875 44.703125 73.484375 
Q 48.484375 72.75 52.59375 71.296875 
z
" id="DejaVuSans-54"/>
    </defs>
    <g transform="translate(176.058438 16.318125)scale(0.12 -0.12)">
     <use xlink:href="#DejaVuSans-69"/>
     <use x="63.183594" xlink:href="#DejaVuSans-120"/>
     <use x="122.363281" xlink:href="#DejaVuSans-112"/>
     <use x="185.839844" xlink:href="#DejaVuSans-101"/>
     <use x="247.363281" xlink:href="#DejaVuSans-114"/>
     <use x="288.476562" xlink:href="#DejaVuSans-105"/>
     <use x="316.259766" xlink:href="#DejaVuSans-109"/>
     <use x="413.671875" xlink:href="#DejaVuSans-101"/>
     <use x="475.195312" xlink:href="#DejaVuSans-110"/>
     <use x="538.574219" xlink:href="#DejaVuSans-116"/>
     <use x="577.783203" xlink:href="#DejaVuSans-95"/>
     <use x="627.783203" xlink:href="#DejaVuSans-54"/>
    </g>
   </g>
   <g id="legend_1">
    <g id="patch_7">
     <path d="M 57.14375 234.758125 
L 325.989063 234.758125 
Q 327.989063 234.758125 327.989063 232.758125 
L 327.989063 175.02375 
Q 327.989063 173.02375 325.989063 173.02375 
L 57.14375 173.02375 
Q 55.14375 173.02375 55.14375 175.02375 
L 55.14375 232.758125 
Q 55.14375 234.758125 57.14375 234.758125 
z
" style="fill:#ffffff;opacity:0.8;stroke:#cccccc;stroke-linejoin:miter;"/>
    </g>
    <g id="line2d_27"/>
    <g id="line2d_28">
     <g>
      <use style="stroke:#000000;" x="69.14375" xlink:href="#ma84e24bce2" y="181.122187"/>
     </g>
    </g>
    <g id="text_21">
     <!-- Experimental Data -->
     <defs>
      <path d="M 9.421875 75.984375 
L 18.40625 75.984375 
L 18.40625 0 
L 9.421875 0 
z
" id="DejaVuSans-108"/>
      <path d="M 19.671875 64.796875 
L 19.671875 8.109375 
L 31.59375 8.109375 
Q 46.6875 8.109375 53.6875 14.9375 
Q 60.6875 21.78125 60.6875 36.53125 
Q 60.6875 51.171875 53.6875 57.984375 
Q 46.6875 64.796875 31.59375 64.796875 
z
M 9.8125 72.90625 
L 30.078125 72.90625 
Q 51.265625 72.90625 61.171875 64.09375 
Q 71.09375 55.28125 71.09375 36.53125 
Q 71.09375 17.671875 61.125 8.828125 
Q 51.171875 0 30.078125 0 
L 9.8125 0 
z
" id="DejaVuSans-68"/>
     </defs>
     <g transform="translate(87.14375 184.622187)scale(0.1 -0.1)">
      <use xlink:href="#DejaVuSans-69"/>
      <use x="63.183594" xlink:href="#DejaVuSans-120"/>
      <use x="122.363281" xlink:href="#DejaVuSans-112"/>
      <use x="185.839844" xlink:href="#DejaVuSans-101"/>
      <use x="247.363281" xlink:href="#DejaVuSans-114"/>
      <use x="288.476562" xlink:href="#DejaVuSans-105"/>
      <use x="316.259766" xlink:href="#DejaVuSans-109"/>
      <use x="413.671875" xlink:href="#DejaVuSans-101"/>
      <use x="475.195312" xlink:href="#DejaVuSans-110"/>
      <use x="538.574219" xlink:href="#DejaVuSans-116"/>
      <use x="577.783203" xlink:href="#DejaVuSans-97"/>
      <use x="639.0625" xlink:href="#DejaVuSans-108"/>
      <use x="666.845703" xlink:href="#DejaVuSans-32"/>
      <use x="698.632812" xlink:href="#DejaVuSans-68"/>
      <use x="775.634766" xlink:href="#DejaVuSans-97"/>
      <use x="836.914062" xlink:href="#DejaVuSans-116"/>
      <use x="876.123047" xlink:href="#DejaVuSans-97"/>
     </g>
    </g>
    <g id="line2d_29">
     <path d="M 59.14375 195.800312 
L 79.14375 195.800312 
" style="fill:none;stroke:#0000ff;stroke-linecap:square;stroke-width:1.5;"/>
    </g>
    <g id="line2d_30"/>
    <g id="text_22">
     <!-- MSI -->
     <defs>
      <path d="M 9.8125 72.90625 
L 24.515625 72.90625 
L 43.109375 23.296875 
L 61.8125 72.90625 
L 76.515625 72.90625 
L 76.515625 0 
L 66.890625 0 
L 66.890625 64.015625 
L 48.09375 14.015625 
L 38.1875 14.015625 
L 19.390625 64.015625 
L 19.390625 0 
L 9.8125 0 
z
" id="DejaVuSans-77"/>
      <path d="M 53.515625 70.515625 
L 53.515625 60.890625 
Q 47.90625 63.578125 42.921875 64.890625 
Q 37.9375 66.21875 33.296875 66.21875 
Q 25.25 66.21875 20.875 63.09375 
Q 16.5 59.96875 16.5 54.203125 
Q 16.5 49.359375 19.40625 46.890625 
Q 22.3125 44.4375 30.421875 42.921875 
L 36.375 41.703125 
Q 47.40625 39.59375 52.65625 34.296875 
Q 57.90625 29 57.90625 20.125 
Q 57.90625 9.515625 50.796875 4.046875 
Q 43.703125 -1.421875 29.984375 -1.421875 
Q 24.8125 -1.421875 18.96875 -0.25 
Q 13.140625 0.921875 6.890625 3.21875 
L 6.890625 13.375 
Q 12.890625 10.015625 18.65625 8.296875 
Q 24.421875 6.59375 29.984375 6.59375 
Q 38.421875 6.59375 43.015625 9.90625 
Q 47.609375 13.234375 47.609375 19.390625 
Q 47.609375 24.75 44.3125 27.78125 
Q 41.015625 30.8125 33.5 32.328125 
L 27.484375 33.5 
Q 16.453125 35.6875 11.515625 40.375 
Q 6.59375 45.0625 6.59375 53.421875 
Q 6.59375 63.09375 13.40625 68.65625 
Q 20.21875 74.21875 32.171875 74.21875 
Q 37.3125 74.21875 42.625 73.28125 
Q 47.953125 72.359375 53.515625 70.515625 
z
" id="DejaVuSans-83"/>
      <path d="M 9.8125 72.90625 
L 19.671875 72.90625 
L 19.671875 0 
L 9.8125 0 
z
" id="DejaVuSans-73"/>
     </defs>
     <g transform="translate(87.14375 199.300312)scale(0.1 -0.1)">
      <use xlink:href="#DejaVuSans-77"/>
      <use x="86.279297" xlink:href="#DejaVuSans-83"/>
      <use x="149.755859" xlink:href="#DejaVuSans-73"/>
     </g>
    </g>
    <g id="line2d_31">
     <path d="M 59.14375 210.48 
L 79.14375 210.48 
" style="fill:none;stroke:#ff0000;stroke-linecap:square;stroke-width:1.5;"/>
    </g>
    <g id="line2d_32"/>
    <g id="text_23">
     <!-- $\it{A priori}$ model -->
     <defs>
      <path d="M 36.8125 72.90625 
L 48 72.90625 
L 61.53125 0 
L 51.21875 0 
L 48.1875 18.703125 
L 15.375 18.703125 
L 5.078125 0 
L -5.328125 0 
z
M 40.375 63.1875 
L 19.921875 26.90625 
L 46.6875 26.90625 
z
" id="DejaVuSans-Oblique-65"/>
      <path d="M 49.609375 33.6875 
Q 49.609375 40.875 46.484375 44.671875 
Q 43.359375 48.484375 37.5 48.484375 
Q 33.5 48.484375 29.859375 46.4375 
Q 26.21875 44.390625 23.390625 40.484375 
Q 20.609375 36.625 18.9375 31.15625 
Q 17.28125 25.6875 17.28125 20.3125 
Q 17.28125 13.484375 20.40625 9.796875 
Q 23.53125 6.109375 29.296875 6.109375 
Q 33.546875 6.109375 37.1875 8.109375 
Q 40.828125 10.109375 43.40625 13.921875 
Q 46.1875 17.921875 47.890625 23.34375 
Q 49.609375 28.765625 49.609375 33.6875 
z
M 21.78125 46.390625 
Q 25.390625 51.125 30.296875 53.5625 
Q 35.203125 56 41.21875 56 
Q 49.609375 56 54.25 50.5 
Q 58.890625 45.015625 58.890625 35.109375 
Q 58.890625 27 56 19.65625 
Q 53.125 12.3125 47.703125 6.5 
Q 44.09375 2.640625 39.546875 0.609375 
Q 35.015625 -1.421875 29.984375 -1.421875 
Q 24.171875 -1.421875 20.21875 1 
Q 16.265625 3.421875 14.3125 8.203125 
L 8.6875 -20.796875 
L -0.296875 -20.796875 
L 14.40625 54.6875 
L 23.390625 54.6875 
z
" id="DejaVuSans-Oblique-112"/>
      <path d="M 44.578125 46.390625 
Q 43.21875 47.125 41.453125 47.515625 
Q 39.703125 47.90625 37.703125 47.90625 
Q 30.515625 47.90625 25.140625 42.453125 
Q 19.78125 37.015625 18.015625 27.875 
L 12.5 0 
L 3.515625 0 
L 14.203125 54.6875 
L 23.1875 54.6875 
L 21.484375 46.1875 
Q 25.046875 50.921875 30 53.453125 
Q 34.96875 56 40.578125 56 
Q 42.046875 56 43.453125 55.828125 
Q 44.875 55.671875 46.296875 55.28125 
z
" id="DejaVuSans-Oblique-114"/>
      <path d="M 18.3125 75.984375 
L 27.296875 75.984375 
L 25.09375 64.59375 
L 16.109375 64.59375 
z
M 14.203125 54.6875 
L 23.1875 54.6875 
L 12.5 0 
L 3.515625 0 
z
" id="DejaVuSans-Oblique-105"/>
      <path d="M 25.390625 -1.421875 
Q 15.765625 -1.421875 10.171875 4.515625 
Q 4.59375 10.453125 4.59375 20.703125 
Q 4.59375 26.65625 6.515625 32.828125 
Q 8.453125 39.015625 11.53125 43.21875 
Q 16.359375 49.75 22.3125 52.875 
Q 28.265625 56 35.796875 56 
Q 45.125 56 50.859375 50.1875 
Q 56.59375 44.390625 56.59375 35.015625 
Q 56.59375 28.515625 54.6875 22.0625 
Q 52.78125 15.625 49.703125 11.375 
Q 44.921875 4.828125 38.96875 1.703125 
Q 33.015625 -1.421875 25.390625 -1.421875 
z
M 13.921875 21 
Q 13.921875 13.578125 17.015625 9.890625 
Q 20.125 6.203125 26.421875 6.203125 
Q 35.453125 6.203125 41.375 14.078125 
Q 47.3125 21.96875 47.3125 34.078125 
Q 47.3125 41.15625 44.140625 44.765625 
Q 40.96875 48.390625 34.8125 48.390625 
Q 29.734375 48.390625 25.78125 46.015625 
Q 21.828125 43.65625 18.703125 38.8125 
Q 16.40625 35.203125 15.15625 30.5625 
Q 13.921875 25.921875 13.921875 21 
z
" id="DejaVuSans-Oblique-111"/>
      <path d="M 45.40625 46.390625 
L 45.40625 75.984375 
L 54.390625 75.984375 
L 54.390625 0 
L 45.40625 0 
L 45.40625 8.203125 
Q 42.578125 3.328125 38.25 0.953125 
Q 33.9375 -1.421875 27.875 -1.421875 
Q 17.96875 -1.421875 11.734375 6.484375 
Q 5.515625 14.40625 5.515625 27.296875 
Q 5.515625 40.1875 11.734375 48.09375 
Q 17.96875 56 27.875 56 
Q 33.9375 56 38.25 53.625 
Q 42.578125 51.265625 45.40625 46.390625 
z
M 14.796875 27.296875 
Q 14.796875 17.390625 18.875 11.75 
Q 22.953125 6.109375 30.078125 6.109375 
Q 37.203125 6.109375 41.296875 11.75 
Q 45.40625 17.390625 45.40625 27.296875 
Q 45.40625 37.203125 41.296875 42.84375 
Q 37.203125 48.484375 30.078125 48.484375 
Q 22.953125 48.484375 18.875 42.84375 
Q 14.796875 37.203125 14.796875 27.296875 
z
" id="DejaVuSans-100"/>
     </defs>
     <g transform="translate(87.14375 213.98)scale(0.1 -0.1)">
      <use transform="translate(0 0.015625)" xlink:href="#DejaVuSans-Oblique-65"/>
      <use transform="translate(68.408203 0.015625)" xlink:href="#DejaVuSans-Oblique-112"/>
      <use transform="translate(131.884766 0.015625)" xlink:href="#DejaVuSans-Oblique-114"/>
      <use transform="translate(172.998047 0.015625)" xlink:href="#DejaVuSans-Oblique-105"/>
      <use transform="translate(200.78125 0.015625)" xlink:href="#DejaVuSans-Oblique-111"/>
      <use transform="translate(261.962891 0.015625)" xlink:href="#DejaVuSans-Oblique-114"/>
      <use transform="translate(303.076172 0.015625)" xlink:href="#DejaVuSans-Oblique-105"/>
      <use transform="translate(330.859375 0.015625)" xlink:href="#DejaVuSans-32"/>
      <use transform="translate(362.646484 0.015625)" xlink:href="#DejaVuSans-109"/>
      <use transform="translate(460.058594 0.015625)" xlink:href="#DejaVuSans-111"/>
      <use transform="translate(521.240234 0.015625)" xlink:href="#DejaVuSans-100"/>
      <use transform="translate(584.716797 0.015625)" xlink:href="#DejaVuSans-101"/>
      <use transform="translate(646.240234 0.015625)" xlink:href="#DejaVuSans-108"/>
     </g>
    </g>
    <g id="line2d_33">
     <path d="M 59.14375 225.178437 
L 79.14375 225.178437 
" style="fill:none;stroke:#ffffff;stroke-linecap:square;stroke-width:1.5;"/>
    </g>
    <g id="line2d_34"/>
    <g id="text_24">
     <!-- T:1015 -->
     <defs>
      <path d="M 11.71875 12.40625 
L 22.015625 12.40625 
L 22.015625 0 
L 11.71875 0 
z
M 11.71875 51.703125 
L 22.015625 51.703125 
L 22.015625 39.3125 
L 11.71875 39.3125 
z
" id="DejaVuSans-58"/>
     </defs>
     <g transform="translate(87.14375 228.678437)scale(0.1 -0.1)">
      <use xlink:href="#DejaVuSans-84"/>
      <use x="60.912109" xlink:href="#DejaVuSans-58"/>
      <use x="94.603516" xlink:href="#DejaVuSans-49"/>
      <use x="158.226562" xlink:href="#DejaVuSans-48"/>
      <use x="221.849609" xlink:href="#DejaVuSans-49"/>
      <use x="285.472656" xlink:href="#DejaVuSans-53"/>
     </g>
    </g>
    <g id="line2d_35">
     <path d="M 200.884375 181.122187 
L 220.884375 181.122187 
" style="fill:none;stroke:#ffffff;stroke-linecap:square;stroke-width:1.5;"/>
    </g>
    <g id="line2d_36"/>
    <g id="text_25">
     <!-- P:3.298 -->
     <defs>
      <path d="M 19.671875 64.796875 
L 19.671875 37.40625 
L 32.078125 37.40625 
Q 38.96875 37.40625 42.71875 40.96875 
Q 46.484375 44.53125 46.484375 51.125 
Q 46.484375 57.671875 42.71875 61.234375 
Q 38.96875 64.796875 32.078125 64.796875 
z
M 9.8125 72.90625 
L 32.078125 72.90625 
Q 44.34375 72.90625 50.609375 67.359375 
Q 56.890625 61.8125 56.890625 51.125 
Q 56.890625 40.328125 50.609375 34.8125 
Q 44.34375 29.296875 32.078125 29.296875 
L 19.671875 29.296875 
L 19.671875 0 
L 9.8125 0 
z
" id="DejaVuSans-80"/>
      <path d="M 10.984375 1.515625 
L 10.984375 10.5 
Q 14.703125 8.734375 18.5 7.8125 
Q 22.3125 6.890625 25.984375 6.890625 
Q 35.75 6.890625 40.890625 13.453125 
Q 46.046875 20.015625 46.78125 33.40625 
Q 43.953125 29.203125 39.59375 26.953125 
Q 35.25 24.703125 29.984375 24.703125 
Q 19.046875 24.703125 12.671875 31.3125 
Q 6.296875 37.9375 6.296875 49.421875 
Q 6.296875 60.640625 12.9375 67.421875 
Q 19.578125 74.21875 30.609375 74.21875 
Q 43.265625 74.21875 49.921875 64.515625 
Q 56.59375 54.828125 56.59375 36.375 
Q 56.59375 19.140625 48.40625 8.859375 
Q 40.234375 -1.421875 26.421875 -1.421875 
Q 22.703125 -1.421875 18.890625 -0.6875 
Q 15.09375 0.046875 10.984375 1.515625 
z
M 30.609375 32.421875 
Q 37.25 32.421875 41.125 36.953125 
Q 45.015625 41.5 45.015625 49.421875 
Q 45.015625 57.28125 41.125 61.84375 
Q 37.25 66.40625 30.609375 66.40625 
Q 23.96875 66.40625 20.09375 61.84375 
Q 16.21875 57.28125 16.21875 49.421875 
Q 16.21875 41.5 20.09375 36.953125 
Q 23.96875 32.421875 30.609375 32.421875 
z
" id="DejaVuSans-57"/>
      <path d="M 31.78125 34.625 
Q 24.75 34.625 20.71875 30.859375 
Q 16.703125 27.09375 16.703125 20.515625 
Q 16.703125 13.921875 20.71875 10.15625 
Q 24.75 6.390625 31.78125 6.390625 
Q 38.8125 6.390625 42.859375 10.171875 
Q 46.921875 13.96875 46.921875 20.515625 
Q 46.921875 27.09375 42.890625 30.859375 
Q 38.875 34.625 31.78125 34.625 
z
M 21.921875 38.8125 
Q 15.578125 40.375 12.03125 44.71875 
Q 8.5 49.078125 8.5 55.328125 
Q 8.5 64.0625 14.71875 69.140625 
Q 20.953125 74.21875 31.78125 74.21875 
Q 42.671875 74.21875 48.875 69.140625 
Q 55.078125 64.0625 55.078125 55.328125 
Q 55.078125 49.078125 51.53125 44.71875 
Q 48 40.375 41.703125 38.8125 
Q 48.828125 37.15625 52.796875 32.3125 
Q 56.78125 27.484375 56.78125 20.515625 
Q 56.78125 9.90625 50.3125 4.234375 
Q 43.84375 -1.421875 31.78125 -1.421875 
Q 19.734375 -1.421875 13.25 4.234375 
Q 6.78125 9.90625 6.78125 20.515625 
Q 6.78125 27.484375 10.78125 32.3125 
Q 14.796875 37.15625 21.921875 38.8125 
z
M 18.3125 54.390625 
Q 18.3125 48.734375 21.84375 45.5625 
Q 25.390625 42.390625 31.78125 42.390625 
Q 38.140625 42.390625 41.71875 45.5625 
Q 45.3125 48.734375 45.3125 54.390625 
Q 45.3125 60.0625 41.71875 63.234375 
Q 38.140625 66.40625 31.78125 66.40625 
Q 25.390625 66.40625 21.84375 63.234375 
Q 18.3125 60.0625 18.3125 54.390625 
z
" id="DejaVuSans-56"/>
     </defs>
     <g transform="translate(228.884375 184.622187)scale(0.1 -0.1)">
      <use xlink:href="#DejaVuSans-80"/>
      <use x="60.302734" xlink:href="#DejaVuSans-58"/>
      <use x="93.994141" xlink:href="#DejaVuSans-51"/>
      <use x="157.617188" xlink:href="#DejaVuSans-46"/>
      <use x="189.404297" xlink:href="#DejaVuSans-50"/>
      <use x="253.027344" xlink:href="#DejaVuSans-57"/>
      <use x="316.650391" xlink:href="#DejaVuSans-56"/>
     </g>
    </g>
    <g id="line2d_37">
     <path d="M 200.884375 195.800312 
L 220.884375 195.800312 
" style="fill:none;stroke:#ffffff;stroke-linecap:square;stroke-width:1.5;"/>
    </g>
    <g id="line2d_38"/>
    <g id="text_26">
     <!-- H2O2: 0.00325758 -->
     <defs>
      <path d="M 9.8125 72.90625 
L 19.671875 72.90625 
L 19.671875 43.015625 
L 55.515625 43.015625 
L 55.515625 72.90625 
L 65.375 72.90625 
L 65.375 0 
L 55.515625 0 
L 55.515625 34.71875 
L 19.671875 34.71875 
L 19.671875 0 
L 9.8125 0 
z
" id="DejaVuSans-72"/>
      <path d="M 39.40625 66.21875 
Q 28.65625 66.21875 22.328125 58.203125 
Q 16.015625 50.203125 16.015625 36.375 
Q 16.015625 22.609375 22.328125 14.59375 
Q 28.65625 6.59375 39.40625 6.59375 
Q 50.140625 6.59375 56.421875 14.59375 
Q 62.703125 22.609375 62.703125 36.375 
Q 62.703125 50.203125 56.421875 58.203125 
Q 50.140625 66.21875 39.40625 66.21875 
z
M 39.40625 74.21875 
Q 54.734375 74.21875 63.90625 63.9375 
Q 73.09375 53.65625 73.09375 36.375 
Q 73.09375 19.140625 63.90625 8.859375 
Q 54.734375 -1.421875 39.40625 -1.421875 
Q 24.03125 -1.421875 14.8125 8.828125 
Q 5.609375 19.09375 5.609375 36.375 
Q 5.609375 53.65625 14.8125 63.9375 
Q 24.03125 74.21875 39.40625 74.21875 
z
" id="DejaVuSans-79"/>
     </defs>
     <g transform="translate(228.884375 199.300312)scale(0.1 -0.1)">
      <use xlink:href="#DejaVuSans-72"/>
      <use x="75.195312" xlink:href="#DejaVuSans-50"/>
      <use x="138.818359" xlink:href="#DejaVuSans-79"/>
      <use x="217.529297" xlink:href="#DejaVuSans-50"/>
      <use x="281.152344" xlink:href="#DejaVuSans-58"/>
      <use x="314.84375" xlink:href="#DejaVuSans-32"/>
      <use x="346.630859" xlink:href="#DejaVuSans-48"/>
      <use x="410.253906" xlink:href="#DejaVuSans-46"/>
      <use x="442.041016" xlink:href="#DejaVuSans-48"/>
      <use x="505.664062" xlink:href="#DejaVuSans-48"/>
      <use x="569.287109" xlink:href="#DejaVuSans-51"/>
      <use x="632.910156" xlink:href="#DejaVuSans-50"/>
      <use x="696.533203" xlink:href="#DejaVuSans-53"/>
      <use x="760.15625" xlink:href="#DejaVuSans-55"/>
      <use x="823.779297" xlink:href="#DejaVuSans-53"/>
      <use x="887.402344" xlink:href="#DejaVuSans-56"/>
     </g>
    </g>
    <g id="line2d_39">
     <path d="M 200.884375 210.478437 
L 220.884375 210.478437 
" style="fill:none;stroke:#ffffff;stroke-linecap:square;stroke-width:1.5;"/>
    </g>
    <g id="line2d_40"/>
    <g id="text_27">
     <!-- Ar: 0.99674242 -->
     <g transform="translate(228.884375 213.978437)scale(0.1 -0.1)">
      <use xlink:href="#DejaVuSans-65"/>
      <use x="68.408203" xlink:href="#DejaVuSans-114"/>
      <use x="109.505859" xlink:href="#DejaVuSans-58"/>
      <use x="143.197266" xlink:href="#DejaVuSans-32"/>
      <use x="174.984375" xlink:href="#DejaVuSans-48"/>
      <use x="238.607422" xlink:href="#DejaVuSans-46"/>
      <use x="270.394531" xlink:href="#DejaVuSans-57"/>
      <use x="334.017578" xlink:href="#DejaVuSans-57"/>
      <use x="397.640625" xlink:href="#DejaVuSans-54"/>
      <use x="461.263672" xlink:href="#DejaVuSans-55"/>
      <use x="524.886719" xlink:href="#DejaVuSans-52"/>
      <use x="588.509766" xlink:href="#DejaVuSans-50"/>
      <use x="652.132812" xlink:href="#DejaVuSans-52"/>
      <use x="715.755859" xlink:href="#DejaVuSans-50"/>
     </g>
    </g>
   </g>
  </g>
 </g>
 <defs>
  <clipPath id="p7eb8fac311">
   <rect height="217.44" width="334.8" x="50.14375" y="22.318125"/>
  </clipPath>
 </defs>
</svg>
