<?xml version="1.0" encoding="utf-8" standalone="no"?>
<!DOCTYPE svg PUBLIC "-//W3C//DTD SVG 1.1//EN"
  "http://www.w3.org/Graphics/SVG/1.1/DTD/svg11.dtd">
<!-- Created with matplotlib (http://matplotlib.org/) -->
<svg height="277pt" version="1.1" viewBox="0 0 395 277" width="395pt" xmlns="http://www.w3.org/2000/svg" xmlns:xlink="http://www.w3.org/1999/xlink">
 <defs>
  <style type="text/css">
*{stroke-linecap:butt;stroke-linejoin:round;}
  </style>
 </defs>
 <g id="figure_1">
  <g id="patch_1">
   <path d="M 0 277.314375 
L 395.64375 277.314375 
L 395.64375 0 
L 0 0 
z
" style="fill:none;"/>
  </g>
  <g id="axes_1">
   <g id="patch_2">
    <path d="M 50.14375 239.758125 
L 384.94375 239.758125 
L 384.94375 22.318125 
L 50.14375 22.318125 
z
" style="fill:none;"/>
   </g>
   <g id="matplotlib.axis_1">
    <g id="xtick_1">
     <g id="line2d_1">
      <defs>
       <path d="M 0 0 
L 0 3.5 
" id="mf7685d1a3b" style="stroke:#000000;stroke-width:0.8;"/>
      </defs>
      <g>
       <use style="stroke:#000000;stroke-width:0.8;" x="65.361932" xlink:href="#mf7685d1a3b" y="239.758125"/>
      </g>
     </g>
     <g id="text_1">
      <!-- 0.0 -->
      <defs>
       <path d="M 31.78125 66.40625 
Q 24.171875 66.40625 20.328125 58.90625 
Q 16.5 51.421875 16.5 36.375 
Q 16.5 21.390625 20.328125 13.890625 
Q 24.171875 6.390625 31.78125 6.390625 
Q 39.453125 6.390625 43.28125 13.890625 
Q 47.125 21.390625 47.125 36.375 
Q 47.125 51.421875 43.28125 58.90625 
Q 39.453125 66.40625 31.78125 66.40625 
z
M 31.78125 74.21875 
Q 44.046875 74.21875 50.515625 64.515625 
Q 56.984375 54.828125 56.984375 36.375 
Q 56.984375 17.96875 50.515625 8.265625 
Q 44.046875 -1.421875 31.78125 -1.421875 
Q 19.53125 -1.421875 13.0625 8.265625 
Q 6.59375 17.96875 6.59375 36.375 
Q 6.59375 54.828125 13.0625 64.515625 
Q 19.53125 74.21875 31.78125 74.21875 
z
" id="DejaVuSans-30"/>
       <path d="M 10.6875 12.40625 
L 21 12.40625 
L 21 0 
L 10.6875 0 
z
" id="DejaVuSans-2e"/>
      </defs>
      <g transform="translate(57.410369 254.356562)scale(0.1 -0.1)">
       <use xlink:href="#DejaVuSans-30"/>
       <use x="63.623047" xlink:href="#DejaVuSans-2e"/>
       <use x="95.410156" xlink:href="#DejaVuSans-30"/>
      </g>
     </g>
    </g>
    <g id="xtick_2">
     <g id="line2d_2">
      <g>
       <use style="stroke:#000000;stroke-width:0.8;" x="125.911325" xlink:href="#mf7685d1a3b" y="239.758125"/>
      </g>
     </g>
     <g id="text_2">
      <!-- 0.2 -->
      <defs>
       <path d="M 19.1875 8.296875 
L 53.609375 8.296875 
L 53.609375 0 
L 7.328125 0 
L 7.328125 8.296875 
Q 12.9375 14.109375 22.625 23.890625 
Q 32.328125 33.6875 34.8125 36.53125 
Q 39.546875 41.84375 41.421875 45.53125 
Q 43.3125 49.21875 43.3125 52.78125 
Q 43.3125 58.59375 39.234375 62.25 
Q 35.15625 65.921875 28.609375 65.921875 
Q 23.96875 65.921875 18.8125 64.3125 
Q 13.671875 62.703125 7.8125 59.421875 
L 7.8125 69.390625 
Q 13.765625 71.78125 18.9375 73 
Q 24.125 74.21875 28.421875 74.21875 
Q 39.75 74.21875 46.484375 68.546875 
Q 53.21875 62.890625 53.21875 53.421875 
Q 53.21875 48.921875 51.53125 44.890625 
Q 49.859375 40.875 45.40625 35.40625 
Q 44.1875 33.984375 37.640625 27.21875 
Q 31.109375 20.453125 19.1875 8.296875 
z
" id="DejaVuSans-32"/>
      </defs>
      <g transform="translate(117.959763 254.356562)scale(0.1 -0.1)">
       <use xlink:href="#DejaVuSans-30"/>
       <use x="63.623047" xlink:href="#DejaVuSans-2e"/>
       <use x="95.410156" xlink:href="#DejaVuSans-32"/>
      </g>
     </g>
    </g>
    <g id="xtick_3">
     <g id="line2d_3">
      <g>
       <use style="stroke:#000000;stroke-width:0.8;" x="186.460719" xlink:href="#mf7685d1a3b" y="239.758125"/>
      </g>
     </g>
     <g id="text_3">
      <!-- 0.4 -->
      <defs>
       <path d="M 37.796875 64.3125 
L 12.890625 25.390625 
L 37.796875 25.390625 
z
M 35.203125 72.90625 
L 47.609375 72.90625 
L 47.609375 25.390625 
L 58.015625 25.390625 
L 58.015625 17.1875 
L 47.609375 17.1875 
L 47.609375 0 
L 37.796875 0 
L 37.796875 17.1875 
L 4.890625 17.1875 
L 4.890625 26.703125 
z
" id="DejaVuSans-34"/>
      </defs>
      <g transform="translate(178.509156 254.356562)scale(0.1 -0.1)">
       <use xlink:href="#DejaVuSans-30"/>
       <use x="63.623047" xlink:href="#DejaVuSans-2e"/>
       <use x="95.410156" xlink:href="#DejaVuSans-34"/>
      </g>
     </g>
    </g>
    <g id="xtick_4">
     <g id="line2d_4">
      <g>
       <use style="stroke:#000000;stroke-width:0.8;" x="247.010112" xlink:href="#mf7685d1a3b" y="239.758125"/>
      </g>
     </g>
     <g id="text_4">
      <!-- 0.6 -->
      <defs>
       <path d="M 33.015625 40.375 
Q 26.375 40.375 22.484375 35.828125 
Q 18.609375 31.296875 18.609375 23.390625 
Q 18.609375 15.53125 22.484375 10.953125 
Q 26.375 6.390625 33.015625 6.390625 
Q 39.65625 6.390625 43.53125 10.953125 
Q 47.40625 15.53125 47.40625 23.390625 
Q 47.40625 31.296875 43.53125 35.828125 
Q 39.65625 40.375 33.015625 40.375 
z
M 52.59375 71.296875 
L 52.59375 62.3125 
Q 48.875 64.0625 45.09375 64.984375 
Q 41.3125 65.921875 37.59375 65.921875 
Q 27.828125 65.921875 22.671875 59.328125 
Q 17.53125 52.734375 16.796875 39.40625 
Q 19.671875 43.65625 24.015625 45.921875 
Q 28.375 48.1875 33.59375 48.1875 
Q 44.578125 48.1875 50.953125 41.515625 
Q 57.328125 34.859375 57.328125 23.390625 
Q 57.328125 12.15625 50.6875 5.359375 
Q 44.046875 -1.421875 33.015625 -1.421875 
Q 20.359375 -1.421875 13.671875 8.265625 
Q 6.984375 17.96875 6.984375 36.375 
Q 6.984375 53.65625 15.1875 63.9375 
Q 23.390625 74.21875 37.203125 74.21875 
Q 40.921875 74.21875 44.703125 73.484375 
Q 48.484375 72.75 52.59375 71.296875 
z
" id="DejaVuSans-36"/>
      </defs>
      <g transform="translate(239.05855 254.356562)scale(0.1 -0.1)">
       <use xlink:href="#DejaVuSans-30"/>
       <use x="63.623047" xlink:href="#DejaVuSans-2e"/>
       <use x="95.410156" xlink:href="#DejaVuSans-36"/>
      </g>
     </g>
    </g>
    <g id="xtick_5">
     <g id="line2d_5">
      <g>
       <use style="stroke:#000000;stroke-width:0.8;" x="307.559506" xlink:href="#mf7685d1a3b" y="239.758125"/>
      </g>
     </g>
     <g id="text_5">
      <!-- 0.8 -->
      <defs>
       <path d="M 31.78125 34.625 
Q 24.75 34.625 20.71875 30.859375 
Q 16.703125 27.09375 16.703125 20.515625 
Q 16.703125 13.921875 20.71875 10.15625 
Q 24.75 6.390625 31.78125 6.390625 
Q 38.8125 6.390625 42.859375 10.171875 
Q 46.921875 13.96875 46.921875 20.515625 
Q 46.921875 27.09375 42.890625 30.859375 
Q 38.875 34.625 31.78125 34.625 
z
M 21.921875 38.8125 
Q 15.578125 40.375 12.03125 44.71875 
Q 8.5 49.078125 8.5 55.328125 
Q 8.5 64.0625 14.71875 69.140625 
Q 20.953125 74.21875 31.78125 74.21875 
Q 42.671875 74.21875 48.875 69.140625 
Q 55.078125 64.0625 55.078125 55.328125 
Q 55.078125 49.078125 51.53125 44.71875 
Q 48 40.375 41.703125 38.8125 
Q 48.828125 37.15625 52.796875 32.3125 
Q 56.78125 27.484375 56.78125 20.515625 
Q 56.78125 9.90625 50.3125 4.234375 
Q 43.84375 -1.421875 31.78125 -1.421875 
Q 19.734375 -1.421875 13.25 4.234375 
Q 6.78125 9.90625 6.78125 20.515625 
Q 6.78125 27.484375 10.78125 32.3125 
Q 14.796875 37.15625 21.921875 38.8125 
z
M 18.3125 54.390625 
Q 18.3125 48.734375 21.84375 45.5625 
Q 25.390625 42.390625 31.78125 42.390625 
Q 38.140625 42.390625 41.71875 45.5625 
Q 45.3125 48.734375 45.3125 54.390625 
Q 45.3125 60.0625 41.71875 63.234375 
Q 38.140625 66.40625 31.78125 66.40625 
Q 25.390625 66.40625 21.84375 63.234375 
Q 18.3125 60.0625 18.3125 54.390625 
z
" id="DejaVuSans-38"/>
      </defs>
      <g transform="translate(299.607943 254.356562)scale(0.1 -0.1)">
       <use xlink:href="#DejaVuSans-30"/>
       <use x="63.623047" xlink:href="#DejaVuSans-2e"/>
       <use x="95.410156" xlink:href="#DejaVuSans-38"/>
      </g>
     </g>
    </g>
    <g id="xtick_6">
     <g id="line2d_6">
      <g>
       <use style="stroke:#000000;stroke-width:0.8;" x="368.108899" xlink:href="#mf7685d1a3b" y="239.758125"/>
      </g>
     </g>
     <g id="text_6">
      <!-- 1.0 -->
      <defs>
       <path d="M 12.40625 8.296875 
L 28.515625 8.296875 
L 28.515625 63.921875 
L 10.984375 60.40625 
L 10.984375 69.390625 
L 28.421875 72.90625 
L 38.28125 72.90625 
L 38.28125 8.296875 
L 54.390625 8.296875 
L 54.390625 0 
L 12.40625 0 
z
" id="DejaVuSans-31"/>
      </defs>
      <g transform="translate(360.157337 254.356562)scale(0.1 -0.1)">
       <use xlink:href="#DejaVuSans-31"/>
       <use x="63.623047" xlink:href="#DejaVuSans-2e"/>
       <use x="95.410156" xlink:href="#DejaVuSans-30"/>
      </g>
     </g>
    </g>
    <g id="text_7">
     <!-- Time (ms) -->
     <defs>
      <path d="M -0.296875 72.90625 
L 61.375 72.90625 
L 61.375 64.59375 
L 35.5 64.59375 
L 35.5 0 
L 25.59375 0 
L 25.59375 64.59375 
L -0.296875 64.59375 
z
" id="DejaVuSans-54"/>
      <path d="M 9.421875 54.6875 
L 18.40625 54.6875 
L 18.40625 0 
L 9.421875 0 
z
M 9.421875 75.984375 
L 18.40625 75.984375 
L 18.40625 64.59375 
L 9.421875 64.59375 
z
" id="DejaVuSans-69"/>
      <path d="M 52 44.1875 
Q 55.375 50.25 60.0625 53.125 
Q 64.75 56 71.09375 56 
Q 79.640625 56 84.28125 50.015625 
Q 88.921875 44.046875 88.921875 33.015625 
L 88.921875 0 
L 79.890625 0 
L 79.890625 32.71875 
Q 79.890625 40.578125 77.09375 44.375 
Q 74.3125 48.1875 68.609375 48.1875 
Q 61.625 48.1875 57.5625 43.546875 
Q 53.515625 38.921875 53.515625 30.90625 
L 53.515625 0 
L 44.484375 0 
L 44.484375 32.71875 
Q 44.484375 40.625 41.703125 44.40625 
Q 38.921875 48.1875 33.109375 48.1875 
Q 26.21875 48.1875 22.15625 43.53125 
Q 18.109375 38.875 18.109375 30.90625 
L 18.109375 0 
L 9.078125 0 
L 9.078125 54.6875 
L 18.109375 54.6875 
L 18.109375 46.1875 
Q 21.1875 51.21875 25.484375 53.609375 
Q 29.78125 56 35.6875 56 
Q 41.65625 56 45.828125 52.96875 
Q 50 49.953125 52 44.1875 
z
" id="DejaVuSans-6d"/>
      <path d="M 56.203125 29.59375 
L 56.203125 25.203125 
L 14.890625 25.203125 
Q 15.484375 15.921875 20.484375 11.0625 
Q 25.484375 6.203125 34.421875 6.203125 
Q 39.59375 6.203125 44.453125 7.46875 
Q 49.3125 8.734375 54.109375 11.28125 
L 54.109375 2.78125 
Q 49.265625 0.734375 44.1875 -0.34375 
Q 39.109375 -1.421875 33.890625 -1.421875 
Q 20.796875 -1.421875 13.15625 6.1875 
Q 5.515625 13.8125 5.515625 26.8125 
Q 5.515625 40.234375 12.765625 48.109375 
Q 20.015625 56 32.328125 56 
Q 43.359375 56 49.78125 48.890625 
Q 56.203125 41.796875 56.203125 29.59375 
z
M 47.21875 32.234375 
Q 47.125 39.59375 43.09375 43.984375 
Q 39.0625 48.390625 32.421875 48.390625 
Q 24.90625 48.390625 20.390625 44.140625 
Q 15.875 39.890625 15.1875 32.171875 
z
" id="DejaVuSans-65"/>
      <path id="DejaVuSans-20"/>
      <path d="M 31 75.875 
Q 24.46875 64.65625 21.28125 53.65625 
Q 18.109375 42.671875 18.109375 31.390625 
Q 18.109375 20.125 21.3125 9.0625 
Q 24.515625 -2 31 -13.1875 
L 23.1875 -13.1875 
Q 15.875 -1.703125 12.234375 9.375 
Q 8.59375 20.453125 8.59375 31.390625 
Q 8.59375 42.28125 12.203125 53.3125 
Q 15.828125 64.359375 23.1875 75.875 
z
" id="DejaVuSans-28"/>
      <path d="M 44.28125 53.078125 
L 44.28125 44.578125 
Q 40.484375 46.53125 36.375 47.5 
Q 32.28125 48.484375 27.875 48.484375 
Q 21.1875 48.484375 17.84375 46.4375 
Q 14.5 44.390625 14.5 40.28125 
Q 14.5 37.15625 16.890625 35.375 
Q 19.28125 33.59375 26.515625 31.984375 
L 29.59375 31.296875 
Q 39.15625 29.25 43.1875 25.515625 
Q 47.21875 21.78125 47.21875 15.09375 
Q 47.21875 7.46875 41.1875 3.015625 
Q 35.15625 -1.421875 24.609375 -1.421875 
Q 20.21875 -1.421875 15.453125 -0.5625 
Q 10.6875 0.296875 5.421875 2 
L 5.421875 11.28125 
Q 10.40625 8.6875 15.234375 7.390625 
Q 20.0625 6.109375 24.8125 6.109375 
Q 31.15625 6.109375 34.5625 8.28125 
Q 37.984375 10.453125 37.984375 14.40625 
Q 37.984375 18.0625 35.515625 20.015625 
Q 33.0625 21.96875 24.703125 23.78125 
L 21.578125 24.515625 
Q 13.234375 26.265625 9.515625 29.90625 
Q 5.8125 33.546875 5.8125 39.890625 
Q 5.8125 47.609375 11.28125 51.796875 
Q 16.75 56 26.8125 56 
Q 31.78125 56 36.171875 55.265625 
Q 40.578125 54.546875 44.28125 53.078125 
z
" id="DejaVuSans-73"/>
      <path d="M 8.015625 75.875 
L 15.828125 75.875 
Q 23.140625 64.359375 26.78125 53.3125 
Q 30.421875 42.28125 30.421875 31.390625 
Q 30.421875 20.453125 26.78125 9.375 
Q 23.140625 -1.703125 15.828125 -13.1875 
L 8.015625 -13.1875 
Q 14.5 -2 17.703125 9.0625 
Q 20.90625 20.125 20.90625 31.390625 
Q 20.90625 42.671875 17.703125 53.65625 
Q 14.5 64.65625 8.015625 75.875 
z
" id="DejaVuSans-29"/>
     </defs>
     <g transform="translate(192.190625 268.034687)scale(0.1 -0.1)">
      <use xlink:href="#DejaVuSans-54"/>
      <use x="61.037109" xlink:href="#DejaVuSans-69"/>
      <use x="88.820312" xlink:href="#DejaVuSans-6d"/>
      <use x="186.232422" xlink:href="#DejaVuSans-65"/>
      <use x="247.755859" xlink:href="#DejaVuSans-20"/>
      <use x="279.542969" xlink:href="#DejaVuSans-28"/>
      <use x="318.556641" xlink:href="#DejaVuSans-6d"/>
      <use x="415.96875" xlink:href="#DejaVuSans-73"/>
      <use x="468.068359" xlink:href="#DejaVuSans-29"/>
     </g>
    </g>
   </g>
   <g id="matplotlib.axis_2">
    <g id="ytick_1">
     <g id="line2d_7">
      <defs>
       <path d="M 0 0 
L -3.5 0 
" id="m6273c4dcf5" style="stroke:#000000;stroke-width:0.8;"/>
      </defs>
      <g>
       <use style="stroke:#000000;stroke-width:0.8;" x="50.14375" xlink:href="#m6273c4dcf5" y="212.251547"/>
      </g>
     </g>
     <g id="text_8">
      <!-- 0.02 -->
      <g transform="translate(20.878125 216.050766)scale(0.1 -0.1)">
       <use xlink:href="#DejaVuSans-30"/>
       <use x="63.623047" xlink:href="#DejaVuSans-2e"/>
       <use x="95.410156" xlink:href="#DejaVuSans-30"/>
       <use x="159.033203" xlink:href="#DejaVuSans-32"/>
      </g>
     </g>
    </g>
    <g id="ytick_2">
     <g id="line2d_8">
      <g>
       <use style="stroke:#000000;stroke-width:0.8;" x="50.14375" xlink:href="#m6273c4dcf5" y="178.148403"/>
      </g>
     </g>
     <g id="text_9">
      <!-- 0.04 -->
      <g transform="translate(20.878125 181.947621)scale(0.1 -0.1)">
       <use xlink:href="#DejaVuSans-30"/>
       <use x="63.623047" xlink:href="#DejaVuSans-2e"/>
       <use x="95.410156" xlink:href="#DejaVuSans-30"/>
       <use x="159.033203" xlink:href="#DejaVuSans-34"/>
      </g>
     </g>
    </g>
    <g id="ytick_3">
     <g id="line2d_9">
      <g>
       <use style="stroke:#000000;stroke-width:0.8;" x="50.14375" xlink:href="#m6273c4dcf5" y="144.045258"/>
      </g>
     </g>
     <g id="text_10">
      <!-- 0.06 -->
      <g transform="translate(20.878125 147.844477)scale(0.1 -0.1)">
       <use xlink:href="#DejaVuSans-30"/>
       <use x="63.623047" xlink:href="#DejaVuSans-2e"/>
       <use x="95.410156" xlink:href="#DejaVuSans-30"/>
       <use x="159.033203" xlink:href="#DejaVuSans-36"/>
      </g>
     </g>
    </g>
    <g id="ytick_4">
     <g id="line2d_10">
      <g>
       <use style="stroke:#000000;stroke-width:0.8;" x="50.14375" xlink:href="#m6273c4dcf5" y="109.942114"/>
      </g>
     </g>
     <g id="text_11">
      <!-- 0.08 -->
      <g transform="translate(20.878125 113.741333)scale(0.1 -0.1)">
       <use xlink:href="#DejaVuSans-30"/>
       <use x="63.623047" xlink:href="#DejaVuSans-2e"/>
       <use x="95.410156" xlink:href="#DejaVuSans-30"/>
       <use x="159.033203" xlink:href="#DejaVuSans-38"/>
      </g>
     </g>
    </g>
    <g id="ytick_5">
     <g id="line2d_11">
      <g>
       <use style="stroke:#000000;stroke-width:0.8;" x="50.14375" xlink:href="#m6273c4dcf5" y="75.838969"/>
      </g>
     </g>
     <g id="text_12">
      <!-- 0.10 -->
      <g transform="translate(20.878125 79.638188)scale(0.1 -0.1)">
       <use xlink:href="#DejaVuSans-30"/>
       <use x="63.623047" xlink:href="#DejaVuSans-2e"/>
       <use x="95.410156" xlink:href="#DejaVuSans-31"/>
       <use x="159.033203" xlink:href="#DejaVuSans-30"/>
      </g>
     </g>
    </g>
    <g id="ytick_6">
     <g id="line2d_12">
      <g>
       <use style="stroke:#000000;stroke-width:0.8;" x="50.14375" xlink:href="#m6273c4dcf5" y="41.735825"/>
      </g>
     </g>
     <g id="text_13">
      <!-- 0.12 -->
      <g transform="translate(20.878125 45.535044)scale(0.1 -0.1)">
       <use xlink:href="#DejaVuSans-30"/>
       <use x="63.623047" xlink:href="#DejaVuSans-2e"/>
       <use x="95.410156" xlink:href="#DejaVuSans-31"/>
       <use x="159.033203" xlink:href="#DejaVuSans-32"/>
      </g>
     </g>
    </g>
    <g id="text_14">
     <!-- Absorbance227 -->
     <defs>
      <path d="M 34.1875 63.1875 
L 20.796875 26.90625 
L 47.609375 26.90625 
z
M 28.609375 72.90625 
L 39.796875 72.90625 
L 67.578125 0 
L 57.328125 0 
L 50.6875 18.703125 
L 17.828125 18.703125 
L 11.1875 0 
L 0.78125 0 
z
" id="DejaVuSans-41"/>
      <path d="M 48.6875 27.296875 
Q 48.6875 37.203125 44.609375 42.84375 
Q 40.53125 48.484375 33.40625 48.484375 
Q 26.265625 48.484375 22.1875 42.84375 
Q 18.109375 37.203125 18.109375 27.296875 
Q 18.109375 17.390625 22.1875 11.75 
Q 26.265625 6.109375 33.40625 6.109375 
Q 40.53125 6.109375 44.609375 11.75 
Q 48.6875 17.390625 48.6875 27.296875 
z
M 18.109375 46.390625 
Q 20.953125 51.265625 25.265625 53.625 
Q 29.59375 56 35.59375 56 
Q 45.5625 56 51.78125 48.09375 
Q 58.015625 40.1875 58.015625 27.296875 
Q 58.015625 14.40625 51.78125 6.484375 
Q 45.5625 -1.421875 35.59375 -1.421875 
Q 29.59375 -1.421875 25.265625 0.953125 
Q 20.953125 3.328125 18.109375 8.203125 
L 18.109375 0 
L 9.078125 0 
L 9.078125 75.984375 
L 18.109375 75.984375 
z
" id="DejaVuSans-62"/>
      <path d="M 30.609375 48.390625 
Q 23.390625 48.390625 19.1875 42.75 
Q 14.984375 37.109375 14.984375 27.296875 
Q 14.984375 17.484375 19.15625 11.84375 
Q 23.34375 6.203125 30.609375 6.203125 
Q 37.796875 6.203125 41.984375 11.859375 
Q 46.1875 17.53125 46.1875 27.296875 
Q 46.1875 37.015625 41.984375 42.703125 
Q 37.796875 48.390625 30.609375 48.390625 
z
M 30.609375 56 
Q 42.328125 56 49.015625 48.375 
Q 55.71875 40.765625 55.71875 27.296875 
Q 55.71875 13.875 49.015625 6.21875 
Q 42.328125 -1.421875 30.609375 -1.421875 
Q 18.84375 -1.421875 12.171875 6.21875 
Q 5.515625 13.875 5.515625 27.296875 
Q 5.515625 40.765625 12.171875 48.375 
Q 18.84375 56 30.609375 56 
z
" id="DejaVuSans-6f"/>
      <path d="M 41.109375 46.296875 
Q 39.59375 47.171875 37.8125 47.578125 
Q 36.03125 48 33.890625 48 
Q 26.265625 48 22.1875 43.046875 
Q 18.109375 38.09375 18.109375 28.8125 
L 18.109375 0 
L 9.078125 0 
L 9.078125 54.6875 
L 18.109375 54.6875 
L 18.109375 46.1875 
Q 20.953125 51.171875 25.484375 53.578125 
Q 30.03125 56 36.53125 56 
Q 37.453125 56 38.578125 55.875 
Q 39.703125 55.765625 41.0625 55.515625 
z
" id="DejaVuSans-72"/>
      <path d="M 34.28125 27.484375 
Q 23.390625 27.484375 19.1875 25 
Q 14.984375 22.515625 14.984375 16.5 
Q 14.984375 11.71875 18.140625 8.90625 
Q 21.296875 6.109375 26.703125 6.109375 
Q 34.1875 6.109375 38.703125 11.40625 
Q 43.21875 16.703125 43.21875 25.484375 
L 43.21875 27.484375 
z
M 52.203125 31.203125 
L 52.203125 0 
L 43.21875 0 
L 43.21875 8.296875 
Q 40.140625 3.328125 35.546875 0.953125 
Q 30.953125 -1.421875 24.3125 -1.421875 
Q 15.921875 -1.421875 10.953125 3.296875 
Q 6 8.015625 6 15.921875 
Q 6 25.140625 12.171875 29.828125 
Q 18.359375 34.515625 30.609375 34.515625 
L 43.21875 34.515625 
L 43.21875 35.40625 
Q 43.21875 41.609375 39.140625 45 
Q 35.0625 48.390625 27.6875 48.390625 
Q 23 48.390625 18.546875 47.265625 
Q 14.109375 46.140625 10.015625 43.890625 
L 10.015625 52.203125 
Q 14.9375 54.109375 19.578125 55.046875 
Q 24.21875 56 28.609375 56 
Q 40.484375 56 46.34375 49.84375 
Q 52.203125 43.703125 52.203125 31.203125 
z
" id="DejaVuSans-61"/>
      <path d="M 54.890625 33.015625 
L 54.890625 0 
L 45.90625 0 
L 45.90625 32.71875 
Q 45.90625 40.484375 42.875 44.328125 
Q 39.84375 48.1875 33.796875 48.1875 
Q 26.515625 48.1875 22.3125 43.546875 
Q 18.109375 38.921875 18.109375 30.90625 
L 18.109375 0 
L 9.078125 0 
L 9.078125 54.6875 
L 18.109375 54.6875 
L 18.109375 46.1875 
Q 21.34375 51.125 25.703125 53.5625 
Q 30.078125 56 35.796875 56 
Q 45.21875 56 50.046875 50.171875 
Q 54.890625 44.34375 54.890625 33.015625 
z
" id="DejaVuSans-6e"/>
      <path d="M 48.78125 52.59375 
L 48.78125 44.1875 
Q 44.96875 46.296875 41.140625 47.34375 
Q 37.3125 48.390625 33.40625 48.390625 
Q 24.65625 48.390625 19.8125 42.84375 
Q 14.984375 37.3125 14.984375 27.296875 
Q 14.984375 17.28125 19.8125 11.734375 
Q 24.65625 6.203125 33.40625 6.203125 
Q 37.3125 6.203125 41.140625 7.25 
Q 44.96875 8.296875 48.78125 10.40625 
L 48.78125 2.09375 
Q 45.015625 0.34375 40.984375 -0.53125 
Q 36.96875 -1.421875 32.421875 -1.421875 
Q 20.0625 -1.421875 12.78125 6.34375 
Q 5.515625 14.109375 5.515625 27.296875 
Q 5.515625 40.671875 12.859375 48.328125 
Q 20.21875 56 33.015625 56 
Q 37.15625 56 41.109375 55.140625 
Q 45.0625 54.296875 48.78125 52.59375 
z
" id="DejaVuSans-63"/>
      <path d="M 8.203125 72.90625 
L 55.078125 72.90625 
L 55.078125 68.703125 
L 28.609375 0 
L 18.3125 0 
L 43.21875 64.59375 
L 8.203125 64.59375 
z
" id="DejaVuSans-37"/>
     </defs>
     <g transform="translate(14.798438 170.12875)rotate(-90)scale(0.1 -0.1)">
      <use xlink:href="#DejaVuSans-41"/>
      <use x="68.408203" xlink:href="#DejaVuSans-62"/>
      <use x="131.884766" xlink:href="#DejaVuSans-73"/>
      <use x="183.984375" xlink:href="#DejaVuSans-6f"/>
      <use x="245.166016" xlink:href="#DejaVuSans-72"/>
      <use x="286.279297" xlink:href="#DejaVuSans-62"/>
      <use x="349.755859" xlink:href="#DejaVuSans-61"/>
      <use x="411.035156" xlink:href="#DejaVuSans-6e"/>
      <use x="474.414062" xlink:href="#DejaVuSans-63"/>
      <use x="529.394531" xlink:href="#DejaVuSans-65"/>
      <use x="590.917969" xlink:href="#DejaVuSans-32"/>
      <use x="654.541016" xlink:href="#DejaVuSans-32"/>
      <use x="718.164062" xlink:href="#DejaVuSans-37"/>
     </g>
    </g>
   </g>
   <g id="line2d_13">
    <defs>
     <path d="M 0 3 
C 0.795609 3 1.55874 2.683901 2.12132 2.12132 
C 2.683901 1.55874 3 0.795609 3 0 
C 3 -0.795609 2.683901 -1.55874 2.12132 -2.12132 
C 1.55874 -2.683901 0.795609 -3 0 -3 
C -0.795609 -3 -1.55874 -2.683901 -2.12132 -2.12132 
C -2.683901 -1.55874 -3 -0.795609 -3 0 
C -3 0.795609 -2.683901 1.55874 -2.12132 2.12132 
C -1.55874 2.683901 -0.795609 3 0 3 
z
" id="mc39ce4ea2f" style="stroke:#000000;"/>
    </defs>
    <g clip-path="url(#p53230c19f2)">
     <use style="stroke:#000000;" x="65.361932" xlink:href="#mc39ce4ea2f" y="162.227691"/>
     <use style="stroke:#000000;" x="65.361944" xlink:href="#mc39ce4ea2f" y="162.227691"/>
     <use style="stroke:#000000;" x="65.361989" xlink:href="#mc39ce4ea2f" y="162.227691"/>
     <use style="stroke:#000000;" x="65.362034" xlink:href="#mc39ce4ea2f" y="162.227691"/>
     <use style="stroke:#000000;" x="65.36208" xlink:href="#mc39ce4ea2f" y="162.227691"/>
     <use style="stroke:#000000;" x="65.362149" xlink:href="#mc39ce4ea2f" y="162.227691"/>
     <use style="stroke:#000000;" x="65.362265" xlink:href="#mc39ce4ea2f" y="162.227861"/>
     <use style="stroke:#000000;" x="65.362462" xlink:href="#mc39ce4ea2f" y="162.227861"/>
     <use style="stroke:#000000;" x="65.362804" xlink:href="#mc39ce4ea2f" y="162.228032"/>
     <use style="stroke:#000000;" x="65.363418" xlink:href="#mc39ce4ea2f" y="162.228202"/>
     <use style="stroke:#000000;" x="65.364802" xlink:href="#mc39ce4ea2f" y="162.228543"/>
     <use style="stroke:#000000;" x="65.366201" xlink:href="#mc39ce4ea2f" y="162.229055"/>
     <use style="stroke:#000000;" x="65.367563" xlink:href="#mc39ce4ea2f" y="162.229396"/>
     <use style="stroke:#000000;" x="65.368956" xlink:href="#mc39ce4ea2f" y="162.229737"/>
     <use style="stroke:#000000;" x="65.370348" xlink:href="#mc39ce4ea2f" y="162.230249"/>
     <use style="stroke:#000000;" x="65.372225" xlink:href="#mc39ce4ea2f" y="162.23076"/>
     <use style="stroke:#000000;" x="65.374102" xlink:href="#mc39ce4ea2f" y="162.231272"/>
     <use style="stroke:#000000;" x="65.375979" xlink:href="#mc39ce4ea2f" y="162.231783"/>
     <use style="stroke:#000000;" x="65.377856" xlink:href="#mc39ce4ea2f" y="162.232295"/>
     <use style="stroke:#000000;" x="65.384335" xlink:href="#mc39ce4ea2f" y="162.233829"/>
     <use style="stroke:#000000;" x="65.390814" xlink:href="#mc39ce4ea2f" y="162.235364"/>
     <use style="stroke:#000000;" x="65.397353" xlink:href="#mc39ce4ea2f" y="162.236728"/>
     <use style="stroke:#000000;" x="65.403711" xlink:href="#mc39ce4ea2f" y="162.238092"/>
     <use style="stroke:#000000;" x="65.410371" xlink:href="#mc39ce4ea2f" y="162.239286"/>
     <use style="stroke:#000000;" x="65.416729" xlink:href="#mc39ce4ea2f" y="162.240309"/>
     <use style="stroke:#000000;" x="65.423087" xlink:href="#mc39ce4ea2f" y="162.241162"/>
     <use style="stroke:#000000;" x="65.437921" xlink:href="#mc39ce4ea2f" y="162.243037"/>
     <use style="stroke:#000000;" x="65.452756" xlink:href="#mc39ce4ea2f" y="162.24406"/>
     <use style="stroke:#000000;" x="65.467591" xlink:href="#mc39ce4ea2f" y="162.244572"/>
     <use style="stroke:#000000;" x="65.482425" xlink:href="#mc39ce4ea2f" y="162.244572"/>
     <use style="stroke:#000000;" x="65.497562" xlink:href="#mc39ce4ea2f" y="162.24389"/>
     <use style="stroke:#000000;" x="65.523901" xlink:href="#mc39ce4ea2f" y="162.241332"/>
     <use style="stroke:#000000;" x="65.550543" xlink:href="#mc39ce4ea2f" y="162.236728"/>
     <use style="stroke:#000000;" x="65.576882" xlink:href="#mc39ce4ea2f" y="162.23059"/>
     <use style="stroke:#000000;" x="65.603524" xlink:href="#mc39ce4ea2f" y="162.222405"/>
     <use style="stroke:#000000;" x="65.629863" xlink:href="#mc39ce4ea2f" y="162.212515"/>
     <use style="stroke:#000000;" x="65.656505" xlink:href="#mc39ce4ea2f" y="162.20092"/>
     <use style="stroke:#000000;" x="65.707063" xlink:href="#mc39ce4ea2f" y="162.173978"/>
     <use style="stroke:#000000;" x="65.75853" xlink:href="#mc39ce4ea2f" y="162.140557"/>
     <use style="stroke:#000000;" x="65.79486" xlink:href="#mc39ce4ea2f" y="162.112934"/>
     <use style="stroke:#000000;" x="65.83119" xlink:href="#mc39ce4ea2f" y="162.08207"/>
     <use style="stroke:#000000;" x="65.867519" xlink:href="#mc39ce4ea2f" y="162.048308"/>
     <use style="stroke:#000000;" x="65.903849" xlink:href="#mc39ce4ea2f" y="162.011477"/>
     <use style="stroke:#000000;" x="65.940179" xlink:href="#mc39ce4ea2f" y="161.971747"/>
     <use style="stroke:#000000;" x="65.976508" xlink:href="#mc39ce4ea2f" y="161.929118"/>
     <use style="stroke:#000000;" x="66.015865" xlink:href="#mc39ce4ea2f" y="161.883761"/>
     <use style="stroke:#000000;" x="66.052195" xlink:href="#mc39ce4ea2f" y="161.835505"/>
     <use style="stroke:#000000;" x="66.088525" xlink:href="#mc39ce4ea2f" y="161.784691"/>
     <use style="stroke:#000000;" x="66.152101" xlink:href="#mc39ce4ea2f" y="161.689202"/>
     <use style="stroke:#000000;" x="66.215678" xlink:href="#mc39ce4ea2f" y="161.58604"/>
     <use style="stroke:#000000;" x="66.279255" xlink:href="#mc39ce4ea2f" y="161.475205"/>
     <use style="stroke:#000000;" x="66.342832" xlink:href="#mc39ce4ea2f" y="161.356867"/>
     <use style="stroke:#000000;" x="66.406409" xlink:href="#mc39ce4ea2f" y="161.231367"/>
     <use style="stroke:#000000;" x="66.473013" xlink:href="#mc39ce4ea2f" y="161.099047"/>
     <use style="stroke:#000000;" x="66.53659" xlink:href="#mc39ce4ea2f" y="160.959906"/>
     <use style="stroke:#000000;" x="66.600167" xlink:href="#mc39ce4ea2f" y="160.814456"/>
     <use style="stroke:#000000;" x="66.663744" xlink:href="#mc39ce4ea2f" y="160.662527"/>
     <use style="stroke:#000000;" x="66.727321" xlink:href="#mc39ce4ea2f" y="160.504629"/>
     <use style="stroke:#000000;" x="66.790898" xlink:href="#mc39ce4ea2f" y="160.340934"/>
     <use style="stroke:#000000;" x="66.854474" xlink:href="#mc39ce4ea2f" y="160.171612"/>
     <use style="stroke:#000000;" x="66.921079" xlink:href="#mc39ce4ea2f" y="159.996663"/>
     <use style="stroke:#000000;" x="66.984656" xlink:href="#mc39ce4ea2f" y="159.816598"/>
     <use style="stroke:#000000;" x="67.048232" xlink:href="#mc39ce4ea2f" y="159.631418"/>
     <use style="stroke:#000000;" x="67.111809" xlink:href="#mc39ce4ea2f" y="159.441293"/>
     <use style="stroke:#000000;" x="67.175386" xlink:href="#mc39ce4ea2f" y="159.246564"/>
     <use style="stroke:#000000;" x="67.272265" xlink:href="#mc39ce4ea2f" y="158.945093"/>
     <use style="stroke:#000000;" x="67.369144" xlink:href="#mc39ce4ea2f" y="158.633901"/>
     <use style="stroke:#000000;" x="67.462996" xlink:href="#mc39ce4ea2f" y="158.313502"/>
     <use style="stroke:#000000;" x="67.559875" xlink:href="#mc39ce4ea2f" y="157.984407"/>
     <use style="stroke:#000000;" x="67.656754" xlink:href="#mc39ce4ea2f" y="157.647127"/>
     <use style="stroke:#000000;" x="67.753633" xlink:href="#mc39ce4ea2f" y="157.302003"/>
     <use style="stroke:#000000;" x="67.850512" xlink:href="#mc39ce4ea2f" y="156.949718"/>
     <use style="stroke:#000000;" x="67.944363" xlink:href="#mc39ce4ea2f" y="156.590612"/>
     <use style="stroke:#000000;" x="68.041242" xlink:href="#mc39ce4ea2f" y="156.225026"/>
     <use style="stroke:#000000;" x="68.138122" xlink:href="#mc39ce4ea2f" y="155.853643"/>
     <use style="stroke:#000000;" x="68.235001" xlink:href="#mc39ce4ea2f" y="155.476462"/>
     <use style="stroke:#000000;" x="68.328852" xlink:href="#mc39ce4ea2f" y="155.093995"/>
     <use style="stroke:#000000;" x="68.419676" xlink:href="#mc39ce4ea2f" y="154.706754"/>
     <use style="stroke:#000000;" x="68.5105" xlink:href="#mc39ce4ea2f" y="154.314909"/>
     <use style="stroke:#000000;" x="68.631599" xlink:href="#mc39ce4ea2f" y="153.918801"/>
     <use style="stroke:#000000;" x="68.722423" xlink:href="#mc39ce4ea2f" y="153.518941"/>
     <use style="stroke:#000000;" x="68.813247" xlink:href="#mc39ce4ea2f" y="153.115331"/>
     <use style="stroke:#000000;" x="68.904071" xlink:href="#mc39ce4ea2f" y="152.70848"/>
     <use style="stroke:#000000;" x="68.994895" xlink:href="#mc39ce4ea2f" y="152.29839"/>
     <use style="stroke:#000000;" x="69.08572" xlink:href="#mc39ce4ea2f" y="151.885742"/>
     <use style="stroke:#000000;" x="69.206818" xlink:href="#mc39ce4ea2f" y="151.470365"/>
     <use style="stroke:#000000;" x="69.297642" xlink:href="#mc39ce4ea2f" y="151.052772"/>
     <use style="stroke:#000000;" x="69.388466" xlink:href="#mc39ce4ea2f" y="150.633133"/>
     <use style="stroke:#000000;" x="69.479291" xlink:href="#mc39ce4ea2f" y="150.211618"/>
     <use style="stroke:#000000;" x="69.570115" xlink:href="#mc39ce4ea2f" y="149.788398"/>
     <use style="stroke:#000000;" x="69.691213" xlink:href="#mc39ce4ea2f" y="149.363814"/>
     <use style="stroke:#000000;" x="69.782038" xlink:href="#mc39ce4ea2f" y="148.937866"/>
     <use style="stroke:#000000;" x="69.872862" xlink:href="#mc39ce4ea2f" y="148.510895"/>
     <use style="stroke:#000000;" x="69.963686" xlink:href="#mc39ce4ea2f" y="148.083071"/>
     <use style="stroke:#000000;" x="70.05451" xlink:href="#mc39ce4ea2f" y="147.654565"/>
     <use style="stroke:#000000;" x="70.145334" xlink:href="#mc39ce4ea2f" y="147.225377"/>
     <use style="stroke:#000000;" x="70.266433" xlink:href="#mc39ce4ea2f" y="146.795847"/>
     <use style="stroke:#000000;" x="70.357257" xlink:href="#mc39ce4ea2f" y="146.365977"/>
     <use style="stroke:#000000;" x="70.448081" xlink:href="#mc39ce4ea2f" y="145.936107"/>
     <use style="stroke:#000000;" x="70.538905" xlink:href="#mc39ce4ea2f" y="145.506066"/>
     <use style="stroke:#000000;" x="70.629729" xlink:href="#mc39ce4ea2f" y="145.076367"/>
     <use style="stroke:#000000;" x="70.720553" xlink:href="#mc39ce4ea2f" y="144.646667"/>
     <use style="stroke:#000000;" x="70.841652" xlink:href="#mc39ce4ea2f" y="144.217479"/>
     <use style="stroke:#000000;" x="70.932476" xlink:href="#mc39ce4ea2f" y="143.788803"/>
     <use style="stroke:#000000;" x="71.0233" xlink:href="#mc39ce4ea2f" y="143.360638"/>
     <use style="stroke:#000000;" x="71.114124" xlink:href="#mc39ce4ea2f" y="142.933155"/>
     <use style="stroke:#000000;" x="71.265498" xlink:href="#mc39ce4ea2f" y="142.288264"/>
     <use style="stroke:#000000;" x="71.416871" xlink:href="#mc39ce4ea2f" y="141.64542"/>
     <use style="stroke:#000000;" x="71.568245" xlink:href="#mc39ce4ea2f" y="141.004792"/>
     <use style="stroke:#000000;" x="71.689343" xlink:href="#mc39ce4ea2f" y="140.366893"/>
     <use style="stroke:#000000;" x="71.840717" xlink:href="#mc39ce4ea2f" y="139.731893"/>
     <use style="stroke:#000000;" x="71.99209" xlink:href="#mc39ce4ea2f" y="139.099961"/>
     <use style="stroke:#000000;" x="72.143464" xlink:href="#mc39ce4ea2f" y="138.47127"/>
     <use style="stroke:#000000;" x="72.294837" xlink:href="#mc39ce4ea2f" y="137.845989"/>
     <use style="stroke:#000000;" x="72.415936" xlink:href="#mc39ce4ea2f" y="137.224459"/>
     <use style="stroke:#000000;" x="72.56731" xlink:href="#mc39ce4ea2f" y="136.60668"/>
     <use style="stroke:#000000;" x="72.718683" xlink:href="#mc39ce4ea2f" y="135.992994"/>
     <use style="stroke:#000000;" x="72.870057" xlink:href="#mc39ce4ea2f" y="135.383401"/>
     <use style="stroke:#000000;" x="73.02143" xlink:href="#mc39ce4ea2f" y="134.777899"/>
     <use style="stroke:#000000;" x="73.142529" xlink:href="#mc39ce4ea2f" y="134.176831"/>
     <use style="stroke:#000000;" x="73.293902" xlink:href="#mc39ce4ea2f" y="133.580197"/>
     <use style="stroke:#000000;" x="73.445276" xlink:href="#mc39ce4ea2f" y="132.988166"/>
     <use style="stroke:#000000;" x="73.596649" xlink:href="#mc39ce4ea2f" y="132.40074"/>
     <use style="stroke:#000000;" x="73.748023" xlink:href="#mc39ce4ea2f" y="131.817917"/>
     <use style="stroke:#000000;" x="73.899396" xlink:href="#mc39ce4ea2f" y="131.240039"/>
     <use style="stroke:#000000;" x="74.020495" xlink:href="#mc39ce4ea2f" y="130.666936"/>
     <use style="stroke:#000000;" x="74.171869" xlink:href="#mc39ce4ea2f" y="130.098777"/>
     <use style="stroke:#000000;" x="74.323242" xlink:href="#mc39ce4ea2f" y="129.535393"/>
     <use style="stroke:#000000;" x="74.474616" xlink:href="#mc39ce4ea2f" y="128.977125"/>
     <use style="stroke:#000000;" x="74.625989" xlink:href="#mc39ce4ea2f" y="128.423972"/>
     <use style="stroke:#000000;" x="74.747088" xlink:href="#mc39ce4ea2f" y="127.875764"/>
     <use style="stroke:#000000;" x="74.898461" xlink:href="#mc39ce4ea2f" y="127.332671"/>
     <use style="stroke:#000000;" x="75.049835" xlink:href="#mc39ce4ea2f" y="126.794694"/>
     <use style="stroke:#000000;" x="75.201208" xlink:href="#mc39ce4ea2f" y="126.261833"/>
     <use style="stroke:#000000;" x="75.352582" xlink:href="#mc39ce4ea2f" y="125.734086"/>
     <use style="stroke:#000000;" x="75.473681" xlink:href="#mc39ce4ea2f" y="125.211456"/>
     <use style="stroke:#000000;" x="75.625054" xlink:href="#mc39ce4ea2f" y="124.694111"/>
     <use style="stroke:#000000;" x="75.776428" xlink:href="#mc39ce4ea2f" y="124.181882"/>
     <use style="stroke:#000000;" x="75.927801" xlink:href="#mc39ce4ea2f" y="123.674939"/>
     <use style="stroke:#000000;" x="76.079174" xlink:href="#mc39ce4ea2f" y="123.17294"/>
     <use style="stroke:#000000;" x="76.200273" xlink:href="#mc39ce4ea2f" y="122.676228"/>
     <use style="stroke:#000000;" x="76.351647" xlink:href="#mc39ce4ea2f" y="122.184802"/>
     <use style="stroke:#000000;" x="76.50302" xlink:href="#mc39ce4ea2f" y="121.698491"/>
     <use style="stroke:#000000;" x="76.654394" xlink:href="#mc39ce4ea2f" y="121.217125"/>
     <use style="stroke:#000000;" x="76.805767" xlink:href="#mc39ce4ea2f" y="120.741045"/>
     <use style="stroke:#000000;" x="77.01769" xlink:href="#mc39ce4ea2f" y="120.035622"/>
     <use style="stroke:#000000;" x="77.229613" xlink:href="#mc39ce4ea2f" y="119.341452"/>
     <use style="stroke:#000000;" x="77.441536" xlink:href="#mc39ce4ea2f" y="118.658878"/>
     <use style="stroke:#000000;" x="77.683733" xlink:href="#mc39ce4ea2f" y="117.987728"/>
     <use style="stroke:#000000;" x="77.895656" xlink:href="#mc39ce4ea2f" y="117.327832"/>
     <use style="stroke:#000000;" x="78.107579" xlink:href="#mc39ce4ea2f" y="116.67919"/>
     <use style="stroke:#000000;" x="78.319502" xlink:href="#mc39ce4ea2f" y="116.041632"/>
     <use style="stroke:#000000;" x="78.531425" xlink:href="#mc39ce4ea2f" y="115.415157"/>
     <use style="stroke:#000000;" x="78.773622" xlink:href="#mc39ce4ea2f" y="114.799766"/>
     <use style="stroke:#000000;" x="78.985545" xlink:href="#mc39ce4ea2f" y="114.195117"/>
     <use style="stroke:#000000;" x="79.197468" xlink:href="#mc39ce4ea2f" y="113.601381"/>
     <use style="stroke:#000000;" x="79.409391" xlink:href="#mc39ce4ea2f" y="113.018388"/>
     <use style="stroke:#000000;" x="79.621314" xlink:href="#mc39ce4ea2f" y="112.445796"/>
     <use style="stroke:#000000;" x="79.863512" xlink:href="#mc39ce4ea2f" y="111.883776"/>
     <use style="stroke:#000000;" x="80.075434" xlink:href="#mc39ce4ea2f" y="111.332158"/>
     <use style="stroke:#000000;" x="80.287357" xlink:href="#mc39ce4ea2f" y="110.790771"/>
     <use style="stroke:#000000;" x="80.49928" xlink:href="#mc39ce4ea2f" y="110.259614"/>
     <use style="stroke:#000000;" x="80.741478" xlink:href="#mc39ce4ea2f" y="109.738518"/>
     <use style="stroke:#000000;" x="80.953401" xlink:href="#mc39ce4ea2f" y="109.227312"/>
     <use style="stroke:#000000;" x="81.165324" xlink:href="#mc39ce4ea2f" y="108.725996"/>
     <use style="stroke:#000000;" x="81.377246" xlink:href="#mc39ce4ea2f" y="108.234399"/>
     <use style="stroke:#000000;" x="81.589169" xlink:href="#mc39ce4ea2f" y="107.752351"/>
     <use style="stroke:#000000;" x="81.831367" xlink:href="#mc39ce4ea2f" y="107.279852"/>
     <use style="stroke:#000000;" x="82.04329" xlink:href="#mc39ce4ea2f" y="106.816731"/>
     <use style="stroke:#000000;" x="82.255213" xlink:href="#mc39ce4ea2f" y="106.362989"/>
     <use style="stroke:#000000;" x="82.467135" xlink:href="#mc39ce4ea2f" y="105.918454"/>
     <use style="stroke:#000000;" x="82.709333" xlink:href="#mc39ce4ea2f" y="105.482787"/>
     <use style="stroke:#000000;" x="83.01208" xlink:href="#mc39ce4ea2f" y="104.845569"/>
     <use style="stroke:#000000;" x="83.345102" xlink:href="#mc39ce4ea2f" y="104.227962"/>
     <use style="stroke:#000000;" x="83.678123" xlink:href="#mc39ce4ea2f" y="103.629963"/>
     <use style="stroke:#000000;" x="84.011145" xlink:href="#mc39ce4ea2f" y="103.050891"/>
     <use style="stroke:#000000;" x="84.344167" xlink:href="#mc39ce4ea2f" y="102.490747"/>
     <use style="stroke:#000000;" x="84.677188" xlink:href="#mc39ce4ea2f" y="101.948848"/>
     <use style="stroke:#000000;" x="84.979935" xlink:href="#mc39ce4ea2f" y="101.425195"/>
     <use style="stroke:#000000;" x="85.312957" xlink:href="#mc39ce4ea2f" y="100.918933"/>
     <use style="stroke:#000000;" x="85.645979" xlink:href="#mc39ce4ea2f" y="100.430235"/>
     <use style="stroke:#000000;" x="85.979" xlink:href="#mc39ce4ea2f" y="99.958418"/>
     <use style="stroke:#000000;" x="86.312022" xlink:href="#mc39ce4ea2f" y="99.503312"/>
     <use style="stroke:#000000;" x="86.645044" xlink:href="#mc39ce4ea2f" y="99.064404"/>
     <use style="stroke:#000000;" x="86.978065" xlink:href="#mc39ce4ea2f" y="98.641525"/>
     <use style="stroke:#000000;" x="87.280812" xlink:href="#mc39ce4ea2f" y="98.234163"/>
     <use style="stroke:#000000;" x="87.613834" xlink:href="#mc39ce4ea2f" y="97.842318"/>
     <use style="stroke:#000000;" x="87.946856" xlink:href="#mc39ce4ea2f" y="97.465308"/>
     <use style="stroke:#000000;" x="88.431251" xlink:href="#mc39ce4ea2f" y="96.926819"/>
     <use style="stroke:#000000;" x="88.945921" xlink:href="#mc39ce4ea2f" y="96.420217"/>
     <use style="stroke:#000000;" x="89.430316" xlink:href="#mc39ce4ea2f" y="95.944819"/>
     <use style="stroke:#000000;" x="89.914711" xlink:href="#mc39ce4ea2f" y="95.499432"/>
     <use style="stroke:#000000;" x="90.429381" xlink:href="#mc39ce4ea2f" y="95.083203"/>
     <use style="stroke:#000000;" x="90.913776" xlink:href="#mc39ce4ea2f" y="94.69511"/>
     <use style="stroke:#000000;" x="91.398171" xlink:href="#mc39ce4ea2f" y="94.334128"/>
     <use style="stroke:#000000;" x="91.882566" xlink:href="#mc39ce4ea2f" y="93.999576"/>
     <use style="stroke:#000000;" x="92.397236" xlink:href="#mc39ce4ea2f" y="93.690601"/>
     <use style="stroke:#000000;" x="92.881631" xlink:href="#mc39ce4ea2f" y="93.406011"/>
     <use style="stroke:#000000;" x="93.366026" xlink:href="#mc39ce4ea2f" y="93.145292"/>
     <use style="stroke:#000000;" x="93.880696" xlink:href="#mc39ce4ea2f" y="92.907593"/>
     <use style="stroke:#000000;" x="94.365091" xlink:href="#mc39ce4ea2f" y="92.692061"/>
     <use style="stroke:#000000;" x="94.849486" xlink:href="#mc39ce4ea2f" y="92.498014"/>
     <use style="stroke:#000000;" x="95.333882" xlink:href="#mc39ce4ea2f" y="92.3246"/>
     <use style="stroke:#000000;" x="95.939376" xlink:href="#mc39ce4ea2f" y="92.171306"/>
     <use style="stroke:#000000;" x="96.242123" xlink:href="#mc39ce4ea2f" y="92.03711"/>
     <use style="stroke:#000000;" x="96.847616" xlink:href="#mc39ce4ea2f" y="91.921671"/>
     <use style="stroke:#000000;" x="97.45311" xlink:href="#mc39ce4ea2f" y="91.824136"/>
     <use style="stroke:#000000;" x="97.755857" xlink:href="#mc39ce4ea2f" y="91.743823"/>
     <use style="stroke:#000000;" x="98.361351" xlink:href="#mc39ce4ea2f" y="91.680392"/>
     <use style="stroke:#000000;" x="98.664098" xlink:href="#mc39ce4ea2f" y="91.632988"/>
     <use style="stroke:#000000;" x="99.269592" xlink:href="#mc39ce4ea2f" y="91.601272"/>
     <use style="stroke:#000000;" x="99.875086" xlink:href="#mc39ce4ea2f" y="91.584391"/>
     <use style="stroke:#000000;" x="100.177833" xlink:href="#mc39ce4ea2f" y="91.582004"/>
     <use style="stroke:#000000;" x="100.783327" xlink:href="#mc39ce4ea2f" y="91.593599"/>
     <use style="stroke:#000000;" x="101.388821" xlink:href="#mc39ce4ea2f" y="91.618494"/>
     <use style="stroke:#000000;" x="101.691568" xlink:href="#mc39ce4ea2f" y="91.656349"/>
     <use style="stroke:#000000;" x="102.297062" xlink:href="#mc39ce4ea2f" y="91.706651"/>
     <use style="stroke:#000000;" x="102.599809" xlink:href="#mc39ce4ea2f" y="91.76906"/>
     <use style="stroke:#000000;" x="103.205303" xlink:href="#mc39ce4ea2f" y="91.842893"/>
     <use style="stroke:#000000;" x="103.810797" xlink:href="#mc39ce4ea2f" y="91.92781"/>
     <use style="stroke:#000000;" x="104.113544" xlink:href="#mc39ce4ea2f" y="92.023469"/>
     <use style="stroke:#000000;" x="104.719038" xlink:href="#mc39ce4ea2f" y="92.129359"/>
     <use style="stroke:#000000;" x="105.324532" xlink:href="#mc39ce4ea2f" y="92.309254"/>
     <use style="stroke:#000000;" x="106.232772" xlink:href="#mc39ce4ea2f" y="92.510803"/>
     <use style="stroke:#000000;" x="106.838266" xlink:href="#mc39ce4ea2f" y="92.732644"/>
     <use style="stroke:#000000;" x="107.746507" xlink:href="#mc39ce4ea2f" y="92.973583"/>
     <use style="stroke:#000000;" x="108.352001" xlink:href="#mc39ce4ea2f" y="93.232596"/>
     <use style="stroke:#000000;" x="109.260242" xlink:href="#mc39ce4ea2f" y="93.508661"/>
     <use style="stroke:#000000;" x="109.865736" xlink:href="#mc39ce4ea2f" y="93.800584"/>
     <use style="stroke:#000000;" x="110.773977" xlink:href="#mc39ce4ea2f" y="94.107683"/>
     <use style="stroke:#000000;" x="111.379471" xlink:href="#mc39ce4ea2f" y="94.428764"/>
     <use style="stroke:#000000;" x="112.287712" xlink:href="#mc39ce4ea2f" y="94.763145"/>
     <use style="stroke:#000000;" x="112.893206" xlink:href="#mc39ce4ea2f" y="95.110145"/>
     <use style="stroke:#000000;" x="113.801447" xlink:href="#mc39ce4ea2f" y="95.468569"/>
     <use style="stroke:#000000;" x="114.406941" xlink:href="#mc39ce4ea2f" y="95.838076"/>
     <use style="stroke:#000000;" x="115.315181" xlink:href="#mc39ce4ea2f" y="96.217815"/>
     <use style="stroke:#000000;" x="115.920675" xlink:href="#mc39ce4ea2f" y="96.607273"/>
     <use style="stroke:#000000;" x="116.828916" xlink:href="#mc39ce4ea2f" y="97.005598"/>
     <use style="stroke:#000000;" x="117.43441" xlink:href="#mc39ce4ea2f" y="97.412278"/>
     <use style="stroke:#000000;" x="118.342651" xlink:href="#mc39ce4ea2f" y="97.826801"/>
     <use style="stroke:#000000;" x="118.948145" xlink:href="#mc39ce4ea2f" y="98.248828"/>
     <use style="stroke:#000000;" x="119.553639" xlink:href="#mc39ce4ea2f" y="98.677504"/>
     <use style="stroke:#000000;" x="120.46188" xlink:href="#mc39ce4ea2f" y="99.11249"/>
     <use style="stroke:#000000;" x="121.067374" xlink:href="#mc39ce4ea2f" y="99.553444"/>
     <use style="stroke:#000000;" x="121.975615" xlink:href="#mc39ce4ea2f" y="100.000024"/>
     <use style="stroke:#000000;" x="122.581109" xlink:href="#mc39ce4ea2f" y="100.45155"/>
     <use style="stroke:#000000;" x="123.48935" xlink:href="#mc39ce4ea2f" y="100.907679"/>
     <use style="stroke:#000000;" x="124.094844" xlink:href="#mc39ce4ea2f" y="101.368242"/>
     <use style="stroke:#000000;" x="125.003084" xlink:href="#mc39ce4ea2f" y="101.832898"/>
     <use style="stroke:#000000;" x="125.608578" xlink:href="#mc39ce4ea2f" y="102.301134"/>
     <use style="stroke:#000000;" x="126.819566" xlink:href="#mc39ce4ea2f" y="103.009797"/>
     <use style="stroke:#000000;" x="128.030554" xlink:href="#mc39ce4ea2f" y="103.725111"/>
     <use style="stroke:#000000;" x="128.938795" xlink:href="#mc39ce4ea2f" y="104.446222"/>
     <use style="stroke:#000000;" x="130.149783" xlink:href="#mc39ce4ea2f" y="105.172278"/>
     <use style="stroke:#000000;" x="131.360771" xlink:href="#mc39ce4ea2f" y="105.902426"/>
     <use style="stroke:#000000;" x="132.571759" xlink:href="#mc39ce4ea2f" y="106.636326"/>
     <use style="stroke:#000000;" x="133.48" xlink:href="#mc39ce4ea2f" y="107.373124"/>
     <use style="stroke:#000000;" x="134.690987" xlink:href="#mc39ce4ea2f" y="108.112139"/>
     <use style="stroke:#000000;" x="135.901975" xlink:href="#mc39ce4ea2f" y="108.85303"/>
     <use style="stroke:#000000;" x="136.810216" xlink:href="#mc39ce4ea2f" y="109.595114"/>
     <use style="stroke:#000000;" x="138.021204" xlink:href="#mc39ce4ea2f" y="110.338222"/>
     <use style="stroke:#000000;" x="139.232192" xlink:href="#mc39ce4ea2f" y="111.08167"/>
     <use style="stroke:#000000;" x="140.44318" xlink:href="#mc39ce4ea2f" y="111.82529"/>
     <use style="stroke:#000000;" x="141.351421" xlink:href="#mc39ce4ea2f" y="112.568568"/>
     <use style="stroke:#000000;" x="142.562409" xlink:href="#mc39ce4ea2f" y="113.311334"/>
     <use style="stroke:#000000;" x="143.773396" xlink:href="#mc39ce4ea2f" y="114.053248"/>
     <use style="stroke:#000000;" x="144.681637" xlink:href="#mc39ce4ea2f" y="114.793968"/>
     <use style="stroke:#000000;" x="145.892625" xlink:href="#mc39ce4ea2f" y="115.533154"/>
     <use style="stroke:#000000;" x="147.103613" xlink:href="#mc39ce4ea2f" y="116.270975"/>
     <use style="stroke:#000000;" x="148.314601" xlink:href="#mc39ce4ea2f" y="117.006751"/>
     <use style="stroke:#000000;" x="149.222842" xlink:href="#mc39ce4ea2f" y="117.74065"/>
     <use style="stroke:#000000;" x="150.43383" xlink:href="#mc39ce4ea2f" y="118.472333"/>
     <use style="stroke:#000000;" x="151.644818" xlink:href="#mc39ce4ea2f" y="119.201629"/>
     <use style="stroke:#000000;" x="152.553058" xlink:href="#mc39ce4ea2f" y="119.928538"/>
     <use style="stroke:#000000;" x="153.764046" xlink:href="#mc39ce4ea2f" y="120.652888"/>
     <use style="stroke:#000000;" x="154.975034" xlink:href="#mc39ce4ea2f" y="121.37434"/>
     <use style="stroke:#000000;" x="156.186022" xlink:href="#mc39ce4ea2f" y="122.093064"/>
     <use style="stroke:#000000;" x="157.094263" xlink:href="#mc39ce4ea2f" y="122.808889"/>
     <use style="stroke:#000000;" x="158.305251" xlink:href="#mc39ce4ea2f" y="123.521645"/>
     <use style="stroke:#000000;" x="159.516239" xlink:href="#mc39ce4ea2f" y="124.231161"/>
     <use style="stroke:#000000;" x="160.42448" xlink:href="#mc39ce4ea2f" y="124.937778"/>
     <use style="stroke:#000000;" x="161.635468" xlink:href="#mc39ce4ea2f" y="125.640985"/>
     <use style="stroke:#000000;" x="163.451949" xlink:href="#mc39ce4ea2f" y="126.692896"/>
     <use style="stroke:#000000;" x="164.965684" xlink:href="#mc39ce4ea2f" y="127.737135"/>
     <use style="stroke:#000000;" x="166.782166" xlink:href="#mc39ce4ea2f" y="128.773529"/>
     <use style="stroke:#000000;" x="168.295901" xlink:href="#mc39ce4ea2f" y="129.80208"/>
     <use style="stroke:#000000;" x="170.112383" xlink:href="#mc39ce4ea2f" y="130.822787"/>
     <use style="stroke:#000000;" x="171.928864" xlink:href="#mc39ce4ea2f" y="131.83531"/>
     <use style="stroke:#000000;" x="173.442599" xlink:href="#mc39ce4ea2f" y="132.839647"/>
     <use style="stroke:#000000;" x="175.259081" xlink:href="#mc39ce4ea2f" y="133.8358"/>
     <use style="stroke:#000000;" x="176.772816" xlink:href="#mc39ce4ea2f" y="134.823768"/>
     <use style="stroke:#000000;" x="178.589298" xlink:href="#mc39ce4ea2f" y="135.803381"/>
     <use style="stroke:#000000;" x="180.405779" xlink:href="#mc39ce4ea2f" y="136.774979"/>
     <use style="stroke:#000000;" x="181.919514" xlink:href="#mc39ce4ea2f" y="137.738223"/>
     <use style="stroke:#000000;" x="183.735996" xlink:href="#mc39ce4ea2f" y="138.693111"/>
     <use style="stroke:#000000;" x="185.249731" xlink:href="#mc39ce4ea2f" y="139.639814"/>
     <use style="stroke:#000000;" x="187.066213" xlink:href="#mc39ce4ea2f" y="140.578503"/>
     <use style="stroke:#000000;" x="188.882695" xlink:href="#mc39ce4ea2f" y="141.508837"/>
     <use style="stroke:#000000;" x="190.396429" xlink:href="#mc39ce4ea2f" y="142.430986"/>
     <use style="stroke:#000000;" x="192.212911" xlink:href="#mc39ce4ea2f" y="143.345121"/>
     <use style="stroke:#000000;" x="193.726646" xlink:href="#mc39ce4ea2f" y="144.251241"/>
     <use style="stroke:#000000;" x="195.503165" xlink:href="#mc39ce4ea2f" y="145.149177"/>
     <use style="stroke:#000000;" x="197.194915" xlink:href="#mc39ce4ea2f" y="146.039269"/>
     <use style="stroke:#000000;" x="198.886363" xlink:href="#mc39ce4ea2f" y="146.921347"/>
     <use style="stroke:#000000;" x="200.57781" xlink:href="#mc39ce4ea2f" y="147.795752"/>
     <use style="stroke:#000000;" x="203.138141" xlink:href="#mc39ce4ea2f" y="149.103948"/>
     <use style="stroke:#000000;" x="205.698169" xlink:href="#mc39ce4ea2f" y="150.394582"/>
     <use style="stroke:#000000;" x="208.258501" xlink:href="#mc39ce4ea2f" y="151.667652"/>
     <use style="stroke:#000000;" x="210.818529" xlink:href="#mc39ce4ea2f" y="152.92333"/>
     <use style="stroke:#000000;" x="213.378557" xlink:href="#mc39ce4ea2f" y="154.161956"/>
     <use style="stroke:#000000;" x="215.938888" xlink:href="#mc39ce4ea2f" y="155.383872"/>
     <use style="stroke:#000000;" x="218.498917" xlink:href="#mc39ce4ea2f" y="156.588906"/>
     <use style="stroke:#000000;" x="221.059248" xlink:href="#mc39ce4ea2f" y="157.777571"/>
     <use style="stroke:#000000;" x="223.619276" xlink:href="#mc39ce4ea2f" y="158.949867"/>
     <use style="stroke:#000000;" x="226.179305" xlink:href="#mc39ce4ea2f" y="160.106305"/>
     <use style="stroke:#000000;" x="228.739636" xlink:href="#mc39ce4ea2f" y="161.246884"/>
     <use style="stroke:#000000;" x="231.299664" xlink:href="#mc39ce4ea2f" y="162.371777"/>
     <use style="stroke:#000000;" x="233.859995" xlink:href="#mc39ce4ea2f" y="163.481322"/>
     <use style="stroke:#000000;" x="236.420023" xlink:href="#mc39ce4ea2f" y="164.575863"/>
     <use style="stroke:#000000;" x="238.980052" xlink:href="#mc39ce4ea2f" y="165.655227"/>
     <use style="stroke:#000000;" x="241.540383" xlink:href="#mc39ce4ea2f" y="166.719927"/>
     <use style="stroke:#000000;" x="244.100411" xlink:href="#mc39ce4ea2f" y="167.770134"/>
     <use style="stroke:#000000;" x="247.960738" xlink:href="#mc39ce4ea2f" y="169.326431"/>
     <use style="stroke:#000000;" x="251.820762" xlink:href="#mc39ce4ea2f" y="170.850841"/>
     <use style="stroke:#000000;" x="255.680786" xlink:href="#mc39ce4ea2f" y="172.344048"/>
     <use style="stroke:#000000;" x="259.541112" xlink:href="#mc39ce4ea2f" y="173.806731"/>
     <use style="stroke:#000000;" x="263.401136" xlink:href="#mc39ce4ea2f" y="175.239404"/>
     <use style="stroke:#000000;" x="267.26116" xlink:href="#mc39ce4ea2f" y="176.642919"/>
     <use style="stroke:#000000;" x="271.121184" xlink:href="#mc39ce4ea2f" y="178.017617"/>
     <use style="stroke:#000000;" x="274.98151" xlink:href="#mc39ce4ea2f" y="179.36435"/>
     <use style="stroke:#000000;" x="278.841534" xlink:href="#mc39ce4ea2f" y="180.68363"/>
     <use style="stroke:#000000;" x="282.701558" xlink:href="#mc39ce4ea2f" y="181.97614"/>
     <use style="stroke:#000000;" x="286.561884" xlink:href="#mc39ce4ea2f" y="183.242219"/>
     <use style="stroke:#000000;" x="290.421908" xlink:href="#mc39ce4ea2f" y="184.482721"/>
     <use style="stroke:#000000;" x="294.281932" xlink:href="#mc39ce4ea2f" y="185.697986"/>
     <use style="stroke:#000000;" x="298.142259" xlink:href="#mc39ce4ea2f" y="186.888527"/>
     <use style="stroke:#000000;" x="302.002283" xlink:href="#mc39ce4ea2f" y="188.055025"/>
     <use style="stroke:#000000;" x="305.862306" xlink:href="#mc39ce4ea2f" y="189.197822"/>
     <use style="stroke:#000000;" x="311.825816" xlink:href="#mc39ce4ea2f" y="190.918155"/>
     <use style="stroke:#000000;" x="317.789023" xlink:href="#mc39ce4ea2f" y="192.585116"/>
     <use style="stroke:#000000;" x="323.752533" xlink:href="#mc39ce4ea2f" y="194.200582"/>
     <use style="stroke:#000000;" x="329.716043" xlink:href="#mc39ce4ea2f" y="195.765917"/>
     <use style="stroke:#000000;" x="335.67925" xlink:href="#mc39ce4ea2f" y="197.282995"/>
     <use style="stroke:#000000;" x="341.642759" xlink:href="#mc39ce4ea2f" y="198.753182"/>
     <use style="stroke:#000000;" x="347.606269" xlink:href="#mc39ce4ea2f" y="200.178181"/>
     <use style="stroke:#000000;" x="353.569476" xlink:href="#mc39ce4ea2f" y="201.559188"/>
     <use style="stroke:#000000;" x="359.532986" xlink:href="#mc39ce4ea2f" y="202.897907"/>
     <use style="stroke:#000000;" x="365.496496" xlink:href="#mc39ce4ea2f" y="204.195532"/>
     <use style="stroke:#000000;" x="369.725568" xlink:href="#mc39ce4ea2f" y="205.091762"/>
    </g>
   </g>
   <g id="line2d_14">
    <path clip-path="url(#p53230c19f2)" d="M 65.361932 161.085673 
L 65.658744 161.070366 
L 65.960364 160.870108 
L 66.412902 160.269895 
L 66.993899 159.068536 
L 67.768561 156.904322 
L 68.930554 152.88957 
L 71.256413 143.784452 
L 74.018687 133.272051 
L 75.986902 126.599506 
L 77.959554 120.70523 
L 79.713023 116.117688 
L 81.466492 112.104637 
L 83.340611 108.400004 
L 84.995547 105.587591 
L 86.650483 103.167514 
L 88.473658 100.914733 
L 89.971333 99.359443 
L 91.469009 98.047127 
L 92.966685 96.957606 
L 94.963586 95.819309 
L 96.728119 95.08292 
L 98.260283 94.627812 
L 100.55853 94.231787 
L 102.856777 94.138831 
L 105.155024 94.307937 
L 107.453271 94.703031 
L 109.751517 95.292451 
L 112.435426 96.189889 
L 115.89066 97.618985 
L 119.345894 99.293951 
L 123.952872 101.81562 
L 129.711595 105.291252 
L 136.622062 109.749096 
L 150.442997 119.013042 
L 164.308262 128.210337 
L 175.102867 135.093618 
L 185.051982 141.161701 
L 194.762874 146.810325 
L 204.516994 152.207381 
L 214.343906 157.367729 
L 223.231802 161.801875 
L 232.119699 166.022139 
L 242.814068 170.828158 
L 253.340539 175.282115 
L 263.100478 179.17902 
L 271.972459 182.536751 
L 282.99095 186.47475 
L 292.882641 189.802588 
L 306.02998 193.940536 
L 319.177319 197.774402 
L 333.220708 201.558481 
L 347.264098 205.04565 
L 361.307487 208.259106 
L 368.329182 209.769971 
L 368.329182 209.769971 
" style="fill:none;stroke:#0000ff;stroke-linecap:square;stroke-width:1.5;"/>
   </g>
   <g id="line2d_15">
    <path clip-path="url(#p53230c19f2)" d="M 65.361932 162.227709 
L 65.706086 162.259981 
L 66.057957 162.089451 
L 66.447538 161.682231 
L 67.022939 160.709299 
L 67.647351 159.22659 
L 68.516819 156.575748 
L 69.676111 152.292589 
L 71.704872 143.783055 
L 74.846349 130.717516 
L 76.601213 124.299233 
L 78.356077 118.727254 
L 79.891584 114.563271 
L 81.42709 111.036313 
L 82.749976 108.473956 
L 84.079601 106.306591 
L 85.409226 104.512537 
L 86.73885 103.056676 
L 88.068475 101.905679 
L 89.398099 101.028548 
L 90.727724 100.39683 
L 92.057349 99.984629 
L 93.221442 99.785469 
L 94.719287 99.727417 
L 96.217131 99.867263 
L 98.214256 100.320053 
L 100.211382 101.031916 
L 102.208507 101.960413 
L 104.506345 103.250162 
L 107.570128 105.263375 
L 110.633912 107.532457 
L 114.463641 110.625099 
L 119.825262 115.257653 
L 129.033155 123.56387 
L 140.563698 133.91353 
L 149.263555 141.404943 
L 156.294687 147.188218 
L 163.034585 152.484744 
L 170.056009 157.73955 
L 176.544206 162.35809 
L 183.032403 166.753563 
L 189.520599 170.932602 
L 196.008796 174.902954 
L 204.007611 179.522861 
L 211.699306 183.693169 
L 219.404704 187.617853 
L 228.124283 191.771349 
L 236.843862 195.638259 
L 245.563441 199.237398 
L 255.876599 203.173012 
L 266.189757 206.786595 
L 276.502916 210.103856 
L 286.816074 213.148607 
L 297.129232 215.942853 
L 307.44239 218.506901 
L 319.162358 221.164947 
L 330.902762 223.578964 
L 341.675164 225.594682 
L 354.904736 227.833708 
L 368.393508 229.874489 
L 368.393508 229.874489 
" style="fill:none;stroke:#ff0000;stroke-linecap:square;stroke-width:1.5;"/>
   </g>
   <g id="line2d_16">
    <path clip-path="url(#p53230c19f2)" d="M 65.361932 110.3709 
L 65.79486 110.455553 
L 66.279255 110.320849 
L 66.790898 109.945358 
L 67.369144 109.258742 
L 68.138122 107.953146 
L 68.994895 106.030091 
L 70.05451 103.081516 
L 71.416871 98.597451 
L 73.596649 90.497209 
L 78.319502 72.681753 
L 80.49928 65.330993 
L 82.467135 59.384602 
L 84.344167 54.345762 
L 86.312022 49.728481 
L 87.946856 46.389755 
L 89.914711 42.937096 
L 91.398171 40.715526 
L 92.881631 38.800836 
L 94.365091 37.172792 
L 95.939376 35.733783 
L 97.755857 34.42691 
L 99.269592 33.587586 
L 100.783327 32.962522 
L 102.599809 32.471209 
L 104.113544 32.257256 
L 106.232772 32.226064 
L 108.352001 32.471908 
L 110.773977 33.053597 
L 112.893206 33.791138 
L 115.315181 34.851647 
L 117.43441 35.946002 
L 120.46188 37.735143 
L 124.094844 40.175839 
L 128.030554 43.093097 
L 132.571759 46.714229 
L 139.232192 52.34721 
L 150.43383 62.211407 
L 164.965684 74.994688 
L 175.259081 83.753143 
L 183.735996 90.703157 
L 192.212911 97.392187 
L 200.57781 103.731237 
L 208.258501 109.318456 
L 218.498917 116.430273 
L 226.179305 121.522591 
L 236.420023 127.987793 
L 244.100411 132.617277 
L 251.820762 137.076591 
L 259.541112 141.350819 
L 271.121184 147.439239 
L 282.701558 153.16242 
L 294.281932 158.53091 
L 305.862306 163.586158 
L 317.789023 168.463788 
L 329.716043 173.038473 
L 341.642759 177.343641 
L 353.569476 181.383486 
L 365.496496 185.166583 
L 369.725568 186.043947 
L 369.725568 186.043947 
" style="fill:none;stroke:#0000ff;stroke-dasharray:5.55,2.4;stroke-dashoffset:0;stroke-width:1.5;"/>
   </g>
   <g id="line2d_17">
    <path clip-path="url(#p53230c19f2)" d="M 65.361932 192.886514 
L 65.656505 192.836726 
L 66.015865 192.524693 
L 66.473013 191.79188 
L 67.111809 190.268472 
L 67.944363 187.659993 
L 69.297642 182.598655 
L 72.870057 168.961838 
L 74.625989 163.291248 
L 76.200273 158.921706 
L 77.683733 155.376942 
L 79.197468 152.266118 
L 80.741478 149.553041 
L 82.467135 146.996157 
L 84.011145 145.073919 
L 85.645979 143.367486 
L 87.280812 141.956022 
L 88.945921 140.783425 
L 90.913776 139.700317 
L 92.881631 138.902075 
L 94.849486 138.350896 
L 96.847616 138.011179 
L 99.269592 137.856411 
L 101.691568 137.940818 
L 104.113544 138.227629 
L 106.838266 138.753583 
L 109.865736 139.547218 
L 113.801447 140.840922 
L 118.342651 142.608671 
L 124.094844 145.143316 
L 131.360771 148.632741 
L 144.681637 155.363996 
L 160.42448 163.272561 
L 171.928864 168.805148 
L 181.919514 173.386305 
L 192.212911 177.872233 
L 203.138141 182.370585 
L 213.378557 186.344553 
L 223.619276 190.09222 
L 233.859995 193.620385 
L 244.100411 196.940806 
L 255.680786 200.456029 
L 267.26116 203.731342 
L 278.841534 206.780587 
L 290.421908 209.617103 
L 302.002283 212.258923 
L 311.825816 214.351243 
L 323.752533 216.721537 
L 335.67925 218.92253 
L 347.606269 220.966334 
L 365.496496 223.745544 
L 369.725568 224.162264 
L 369.725568 224.162264 
" style="fill:none;stroke:#0000ff;stroke-dasharray:5.55,2.4;stroke-dashoffset:0;stroke-width:1.5;"/>
   </g>
   <g id="line2d_18"/>
   <g id="line2d_19"/>
   <g id="line2d_20"/>
   <g id="line2d_21"/>
   <g id="line2d_22"/>
   <g id="line2d_23"/>
   <g id="patch_3">
    <path d="M 50.14375 239.758125 
L 50.14375 22.318125 
" style="fill:none;stroke:#000000;stroke-linecap:square;stroke-linejoin:miter;stroke-width:0.8;"/>
   </g>
   <g id="patch_4">
    <path d="M 384.94375 239.758125 
L 384.94375 22.318125 
" style="fill:none;stroke:#000000;stroke-linecap:square;stroke-linejoin:miter;stroke-width:0.8;"/>
   </g>
   <g id="patch_5">
    <path d="M 50.14375 239.758125 
L 384.94375 239.758125 
" style="fill:none;stroke:#000000;stroke-linecap:square;stroke-linejoin:miter;stroke-width:0.8;"/>
   </g>
   <g id="patch_6">
    <path d="M 50.14375 22.318125 
L 384.94375 22.318125 
" style="fill:none;stroke:#000000;stroke-linecap:square;stroke-linejoin:miter;stroke-width:0.8;"/>
   </g>
   <g id="text_15">
    <!-- Experiment_12 -->
    <defs>
     <path d="M 9.8125 72.90625 
L 55.90625 72.90625 
L 55.90625 64.59375 
L 19.671875 64.59375 
L 19.671875 43.015625 
L 54.390625 43.015625 
L 54.390625 34.71875 
L 19.671875 34.71875 
L 19.671875 8.296875 
L 56.78125 8.296875 
L 56.78125 0 
L 9.8125 0 
z
" id="DejaVuSans-45"/>
     <path d="M 54.890625 54.6875 
L 35.109375 28.078125 
L 55.90625 0 
L 45.3125 0 
L 29.390625 21.484375 
L 13.484375 0 
L 2.875 0 
L 24.125 28.609375 
L 4.6875 54.6875 
L 15.28125 54.6875 
L 29.78125 35.203125 
L 44.28125 54.6875 
z
" id="DejaVuSans-78"/>
     <path d="M 18.109375 8.203125 
L 18.109375 -20.796875 
L 9.078125 -20.796875 
L 9.078125 54.6875 
L 18.109375 54.6875 
L 18.109375 46.390625 
Q 20.953125 51.265625 25.265625 53.625 
Q 29.59375 56 35.59375 56 
Q 45.5625 56 51.78125 48.09375 
Q 58.015625 40.1875 58.015625 27.296875 
Q 58.015625 14.40625 51.78125 6.484375 
Q 45.5625 -1.421875 35.59375 -1.421875 
Q 29.59375 -1.421875 25.265625 0.953125 
Q 20.953125 3.328125 18.109375 8.203125 
z
M 48.6875 27.296875 
Q 48.6875 37.203125 44.609375 42.84375 
Q 40.53125 48.484375 33.40625 48.484375 
Q 26.265625 48.484375 22.1875 42.84375 
Q 18.109375 37.203125 18.109375 27.296875 
Q 18.109375 17.390625 22.1875 11.75 
Q 26.265625 6.109375 33.40625 6.109375 
Q 40.53125 6.109375 44.609375 11.75 
Q 48.6875 17.390625 48.6875 27.296875 
z
" id="DejaVuSans-70"/>
     <path d="M 18.3125 70.21875 
L 18.3125 54.6875 
L 36.8125 54.6875 
L 36.8125 47.703125 
L 18.3125 47.703125 
L 18.3125 18.015625 
Q 18.3125 11.328125 20.140625 9.421875 
Q 21.96875 7.515625 27.59375 7.515625 
L 36.8125 7.515625 
L 36.8125 0 
L 27.59375 0 
Q 17.1875 0 13.234375 3.875 
Q 9.28125 7.765625 9.28125 18.015625 
L 9.28125 47.703125 
L 2.6875 47.703125 
L 2.6875 54.6875 
L 9.28125 54.6875 
L 9.28125 70.21875 
z
" id="DejaVuSans-74"/>
     <path d="M 50.984375 -16.609375 
L 50.984375 -23.578125 
L -0.984375 -23.578125 
L -0.984375 -16.609375 
z
" id="DejaVuSans-5f"/>
    </defs>
    <g transform="translate(172.240938 16.318125)scale(0.12 -0.12)">
     <use xlink:href="#DejaVuSans-45"/>
     <use x="63.183594" xlink:href="#DejaVuSans-78"/>
     <use x="122.363281" xlink:href="#DejaVuSans-70"/>
     <use x="185.839844" xlink:href="#DejaVuSans-65"/>
     <use x="247.363281" xlink:href="#DejaVuSans-72"/>
     <use x="288.476562" xlink:href="#DejaVuSans-69"/>
     <use x="316.259766" xlink:href="#DejaVuSans-6d"/>
     <use x="413.671875" xlink:href="#DejaVuSans-65"/>
     <use x="475.195312" xlink:href="#DejaVuSans-6e"/>
     <use x="538.574219" xlink:href="#DejaVuSans-74"/>
     <use x="577.783203" xlink:href="#DejaVuSans-5f"/>
     <use x="627.783203" xlink:href="#DejaVuSans-31"/>
     <use x="691.40625" xlink:href="#DejaVuSans-32"/>
    </g>
   </g>
   <g id="legend_1">
    <g id="patch_7">
     <path d="M 121.823438 103.730625 
L 377.94375 103.730625 
Q 379.94375 103.730625 379.94375 101.730625 
L 379.94375 29.318125 
Q 379.94375 27.318125 377.94375 27.318125 
L 121.823438 27.318125 
Q 119.823438 27.318125 119.823438 29.318125 
L 119.823438 101.730625 
Q 119.823438 103.730625 121.823438 103.730625 
z
" style="fill:#ffffff;opacity:0.8;stroke:#cccccc;stroke-linejoin:miter;"/>
    </g>
    <g id="line2d_24"/>
    <g id="line2d_25">
     <g>
      <use style="stroke:#000000;" x="133.823438" xlink:href="#mc39ce4ea2f" y="35.416562"/>
     </g>
    </g>
    <g id="text_16">
     <!-- Experimental Data -->
     <defs>
      <path d="M 9.421875 75.984375 
L 18.40625 75.984375 
L 18.40625 0 
L 9.421875 0 
z
" id="DejaVuSans-6c"/>
      <path d="M 19.671875 64.796875 
L 19.671875 8.109375 
L 31.59375 8.109375 
Q 46.6875 8.109375 53.6875 14.9375 
Q 60.6875 21.78125 60.6875 36.53125 
Q 60.6875 51.171875 53.6875 57.984375 
Q 46.6875 64.796875 31.59375 64.796875 
z
M 9.8125 72.90625 
L 30.078125 72.90625 
Q 51.265625 72.90625 61.171875 64.09375 
Q 71.09375 55.28125 71.09375 36.53125 
Q 71.09375 17.671875 61.125 8.828125 
Q 51.171875 0 30.078125 0 
L 9.8125 0 
z
" id="DejaVuSans-44"/>
     </defs>
     <g transform="translate(151.823438 38.916562)scale(0.1 -0.1)">
      <use xlink:href="#DejaVuSans-45"/>
      <use x="63.183594" xlink:href="#DejaVuSans-78"/>
      <use x="122.363281" xlink:href="#DejaVuSans-70"/>
      <use x="185.839844" xlink:href="#DejaVuSans-65"/>
      <use x="247.363281" xlink:href="#DejaVuSans-72"/>
      <use x="288.476562" xlink:href="#DejaVuSans-69"/>
      <use x="316.259766" xlink:href="#DejaVuSans-6d"/>
      <use x="413.671875" xlink:href="#DejaVuSans-65"/>
      <use x="475.195312" xlink:href="#DejaVuSans-6e"/>
      <use x="538.574219" xlink:href="#DejaVuSans-74"/>
      <use x="577.783203" xlink:href="#DejaVuSans-61"/>
      <use x="639.0625" xlink:href="#DejaVuSans-6c"/>
      <use x="666.845703" xlink:href="#DejaVuSans-20"/>
      <use x="698.632812" xlink:href="#DejaVuSans-44"/>
      <use x="775.634766" xlink:href="#DejaVuSans-61"/>
      <use x="836.914062" xlink:href="#DejaVuSans-74"/>
      <use x="876.123047" xlink:href="#DejaVuSans-61"/>
     </g>
    </g>
    <g id="line2d_26">
     <path d="M 123.823438 50.094687 
L 143.823438 50.094687 
" style="fill:none;stroke:#0000ff;stroke-linecap:square;stroke-width:1.5;"/>
    </g>
    <g id="line2d_27"/>
    <g id="text_17">
     <!-- MSI -->
     <defs>
      <path d="M 9.8125 72.90625 
L 24.515625 72.90625 
L 43.109375 23.296875 
L 61.8125 72.90625 
L 76.515625 72.90625 
L 76.515625 0 
L 66.890625 0 
L 66.890625 64.015625 
L 48.09375 14.015625 
L 38.1875 14.015625 
L 19.390625 64.015625 
L 19.390625 0 
L 9.8125 0 
z
" id="DejaVuSans-4d"/>
      <path d="M 53.515625 70.515625 
L 53.515625 60.890625 
Q 47.90625 63.578125 42.921875 64.890625 
Q 37.9375 66.21875 33.296875 66.21875 
Q 25.25 66.21875 20.875 63.09375 
Q 16.5 59.96875 16.5 54.203125 
Q 16.5 49.359375 19.40625 46.890625 
Q 22.3125 44.4375 30.421875 42.921875 
L 36.375 41.703125 
Q 47.40625 39.59375 52.65625 34.296875 
Q 57.90625 29 57.90625 20.125 
Q 57.90625 9.515625 50.796875 4.046875 
Q 43.703125 -1.421875 29.984375 -1.421875 
Q 24.8125 -1.421875 18.96875 -0.25 
Q 13.140625 0.921875 6.890625 3.21875 
L 6.890625 13.375 
Q 12.890625 10.015625 18.65625 8.296875 
Q 24.421875 6.59375 29.984375 6.59375 
Q 38.421875 6.59375 43.015625 9.90625 
Q 47.609375 13.234375 47.609375 19.390625 
Q 47.609375 24.75 44.3125 27.78125 
Q 41.015625 30.8125 33.5 32.328125 
L 27.484375 33.5 
Q 16.453125 35.6875 11.515625 40.375 
Q 6.59375 45.0625 6.59375 53.421875 
Q 6.59375 63.09375 13.40625 68.65625 
Q 20.21875 74.21875 32.171875 74.21875 
Q 37.3125 74.21875 42.625 73.28125 
Q 47.953125 72.359375 53.515625 70.515625 
z
" id="DejaVuSans-53"/>
      <path d="M 9.8125 72.90625 
L 19.671875 72.90625 
L 19.671875 0 
L 9.8125 0 
z
" id="DejaVuSans-49"/>
     </defs>
     <g transform="translate(151.823438 53.594687)scale(0.1 -0.1)">
      <use xlink:href="#DejaVuSans-4d"/>
      <use x="86.279297" xlink:href="#DejaVuSans-53"/>
      <use x="149.755859" xlink:href="#DejaVuSans-49"/>
     </g>
    </g>
    <g id="line2d_28">
     <path d="M 123.823438 64.774375 
L 143.823438 64.774375 
" style="fill:none;stroke:#ff0000;stroke-linecap:square;stroke-width:1.5;"/>
    </g>
    <g id="line2d_29"/>
    <g id="text_18">
     <!-- $\it{A priori}$ model -->
     <defs>
      <path d="M 36.8125 72.90625 
L 48 72.90625 
L 61.53125 0 
L 51.21875 0 
L 48.1875 18.703125 
L 15.375 18.703125 
L 5.078125 0 
L -5.328125 0 
z
M 40.375 63.1875 
L 19.921875 26.90625 
L 46.6875 26.90625 
z
" id="DejaVuSans-Oblique-41"/>
      <path d="M 49.609375 33.6875 
Q 49.609375 40.875 46.484375 44.671875 
Q 43.359375 48.484375 37.5 48.484375 
Q 33.5 48.484375 29.859375 46.4375 
Q 26.21875 44.390625 23.390625 40.484375 
Q 20.609375 36.625 18.9375 31.15625 
Q 17.28125 25.6875 17.28125 20.3125 
Q 17.28125 13.484375 20.40625 9.796875 
Q 23.53125 6.109375 29.296875 6.109375 
Q 33.546875 6.109375 37.1875 8.109375 
Q 40.828125 10.109375 43.40625 13.921875 
Q 46.1875 17.921875 47.890625 23.34375 
Q 49.609375 28.765625 49.609375 33.6875 
z
M 21.78125 46.390625 
Q 25.390625 51.125 30.296875 53.5625 
Q 35.203125 56 41.21875 56 
Q 49.609375 56 54.25 50.5 
Q 58.890625 45.015625 58.890625 35.109375 
Q 58.890625 27 56 19.65625 
Q 53.125 12.3125 47.703125 6.5 
Q 44.09375 2.640625 39.546875 0.609375 
Q 35.015625 -1.421875 29.984375 -1.421875 
Q 24.171875 -1.421875 20.21875 1 
Q 16.265625 3.421875 14.3125 8.203125 
L 8.6875 -20.796875 
L -0.296875 -20.796875 
L 14.40625 54.6875 
L 23.390625 54.6875 
z
" id="DejaVuSans-Oblique-70"/>
      <path d="M 44.578125 46.390625 
Q 43.21875 47.125 41.453125 47.515625 
Q 39.703125 47.90625 37.703125 47.90625 
Q 30.515625 47.90625 25.140625 42.453125 
Q 19.78125 37.015625 18.015625 27.875 
L 12.5 0 
L 3.515625 0 
L 14.203125 54.6875 
L 23.1875 54.6875 
L 21.484375 46.1875 
Q 25.046875 50.921875 30 53.453125 
Q 34.96875 56 40.578125 56 
Q 42.046875 56 43.453125 55.828125 
Q 44.875 55.671875 46.296875 55.28125 
z
" id="DejaVuSans-Oblique-72"/>
      <path d="M 18.3125 75.984375 
L 27.296875 75.984375 
L 25.09375 64.59375 
L 16.109375 64.59375 
z
M 14.203125 54.6875 
L 23.1875 54.6875 
L 12.5 0 
L 3.515625 0 
z
" id="DejaVuSans-Oblique-69"/>
      <path d="M 25.390625 -1.421875 
Q 15.765625 -1.421875 10.171875 4.515625 
Q 4.59375 10.453125 4.59375 20.703125 
Q 4.59375 26.65625 6.515625 32.828125 
Q 8.453125 39.015625 11.53125 43.21875 
Q 16.359375 49.75 22.3125 52.875 
Q 28.265625 56 35.796875 56 
Q 45.125 56 50.859375 50.1875 
Q 56.59375 44.390625 56.59375 35.015625 
Q 56.59375 28.515625 54.6875 22.0625 
Q 52.78125 15.625 49.703125 11.375 
Q 44.921875 4.828125 38.96875 1.703125 
Q 33.015625 -1.421875 25.390625 -1.421875 
z
M 13.921875 21 
Q 13.921875 13.578125 17.015625 9.890625 
Q 20.125 6.203125 26.421875 6.203125 
Q 35.453125 6.203125 41.375 14.078125 
Q 47.3125 21.96875 47.3125 34.078125 
Q 47.3125 41.15625 44.140625 44.765625 
Q 40.96875 48.390625 34.8125 48.390625 
Q 29.734375 48.390625 25.78125 46.015625 
Q 21.828125 43.65625 18.703125 38.8125 
Q 16.40625 35.203125 15.15625 30.5625 
Q 13.921875 25.921875 13.921875 21 
z
" id="DejaVuSans-Oblique-6f"/>
      <path d="M 45.40625 46.390625 
L 45.40625 75.984375 
L 54.390625 75.984375 
L 54.390625 0 
L 45.40625 0 
L 45.40625 8.203125 
Q 42.578125 3.328125 38.25 0.953125 
Q 33.9375 -1.421875 27.875 -1.421875 
Q 17.96875 -1.421875 11.734375 6.484375 
Q 5.515625 14.40625 5.515625 27.296875 
Q 5.515625 40.1875 11.734375 48.09375 
Q 17.96875 56 27.875 56 
Q 33.9375 56 38.25 53.625 
Q 42.578125 51.265625 45.40625 46.390625 
z
M 14.796875 27.296875 
Q 14.796875 17.390625 18.875 11.75 
Q 22.953125 6.109375 30.078125 6.109375 
Q 37.203125 6.109375 41.296875 11.75 
Q 45.40625 17.390625 45.40625 27.296875 
Q 45.40625 37.203125 41.296875 42.84375 
Q 37.203125 48.484375 30.078125 48.484375 
Q 22.953125 48.484375 18.875 42.84375 
Q 14.796875 37.203125 14.796875 27.296875 
z
" id="DejaVuSans-64"/>
     </defs>
     <g transform="translate(151.823438 68.274375)scale(0.1 -0.1)">
      <use transform="translate(0 0.015625)" xlink:href="#DejaVuSans-Oblique-41"/>
      <use transform="translate(68.408203 0.015625)" xlink:href="#DejaVuSans-Oblique-70"/>
      <use transform="translate(131.884766 0.015625)" xlink:href="#DejaVuSans-Oblique-72"/>
      <use transform="translate(172.998047 0.015625)" xlink:href="#DejaVuSans-Oblique-69"/>
      <use transform="translate(200.78125 0.015625)" xlink:href="#DejaVuSans-Oblique-6f"/>
      <use transform="translate(261.962891 0.015625)" xlink:href="#DejaVuSans-Oblique-72"/>
      <use transform="translate(303.076172 0.015625)" xlink:href="#DejaVuSans-Oblique-69"/>
      <use transform="translate(330.859375 0.015625)" xlink:href="#DejaVuSans-20"/>
      <use transform="translate(362.646484 0.015625)" xlink:href="#DejaVuSans-6d"/>
      <use transform="translate(460.058594 0.015625)" xlink:href="#DejaVuSans-6f"/>
      <use transform="translate(521.240234 0.015625)" xlink:href="#DejaVuSans-64"/>
      <use transform="translate(584.716797 0.015625)" xlink:href="#DejaVuSans-65"/>
      <use transform="translate(646.240234 0.015625)" xlink:href="#DejaVuSans-6c"/>
     </g>
    </g>
    <g id="line2d_30">
     <path d="M 123.823438 79.472813 
L 143.823438 79.472813 
" style="fill:none;stroke:#ffffff;stroke-linecap:square;stroke-width:1.5;"/>
    </g>
    <g id="line2d_31"/>
    <g id="text_19">
     <!-- T:1135 -->
     <defs>
      <path d="M 11.71875 12.40625 
L 22.015625 12.40625 
L 22.015625 0 
L 11.71875 0 
z
M 11.71875 51.703125 
L 22.015625 51.703125 
L 22.015625 39.3125 
L 11.71875 39.3125 
z
" id="DejaVuSans-3a"/>
      <path d="M 40.578125 39.3125 
Q 47.65625 37.796875 51.625 33 
Q 55.609375 28.21875 55.609375 21.1875 
Q 55.609375 10.40625 48.1875 4.484375 
Q 40.765625 -1.421875 27.09375 -1.421875 
Q 22.515625 -1.421875 17.65625 -0.515625 
Q 12.796875 0.390625 7.625 2.203125 
L 7.625 11.71875 
Q 11.71875 9.328125 16.59375 8.109375 
Q 21.484375 6.890625 26.8125 6.890625 
Q 36.078125 6.890625 40.9375 10.546875 
Q 45.796875 14.203125 45.796875 21.1875 
Q 45.796875 27.640625 41.28125 31.265625 
Q 36.765625 34.90625 28.71875 34.90625 
L 20.21875 34.90625 
L 20.21875 43.015625 
L 29.109375 43.015625 
Q 36.375 43.015625 40.234375 45.921875 
Q 44.09375 48.828125 44.09375 54.296875 
Q 44.09375 59.90625 40.109375 62.90625 
Q 36.140625 65.921875 28.71875 65.921875 
Q 24.65625 65.921875 20.015625 65.03125 
Q 15.375 64.15625 9.8125 62.3125 
L 9.8125 71.09375 
Q 15.4375 72.65625 20.34375 73.4375 
Q 25.25 74.21875 29.59375 74.21875 
Q 40.828125 74.21875 47.359375 69.109375 
Q 53.90625 64.015625 53.90625 55.328125 
Q 53.90625 49.265625 50.4375 45.09375 
Q 46.96875 40.921875 40.578125 39.3125 
z
" id="DejaVuSans-33"/>
      <path d="M 10.796875 72.90625 
L 49.515625 72.90625 
L 49.515625 64.59375 
L 19.828125 64.59375 
L 19.828125 46.734375 
Q 21.96875 47.46875 24.109375 47.828125 
Q 26.265625 48.1875 28.421875 48.1875 
Q 40.625 48.1875 47.75 41.5 
Q 54.890625 34.8125 54.890625 23.390625 
Q 54.890625 11.625 47.5625 5.09375 
Q 40.234375 -1.421875 26.90625 -1.421875 
Q 22.3125 -1.421875 17.546875 -0.640625 
Q 12.796875 0.140625 7.71875 1.703125 
L 7.71875 11.625 
Q 12.109375 9.234375 16.796875 8.0625 
Q 21.484375 6.890625 26.703125 6.890625 
Q 35.15625 6.890625 40.078125 11.328125 
Q 45.015625 15.765625 45.015625 23.390625 
Q 45.015625 31 40.078125 35.4375 
Q 35.15625 39.890625 26.703125 39.890625 
Q 22.75 39.890625 18.8125 39.015625 
Q 14.890625 38.140625 10.796875 36.28125 
z
" id="DejaVuSans-35"/>
     </defs>
     <g transform="translate(151.823438 82.972813)scale(0.1 -0.1)">
      <use xlink:href="#DejaVuSans-54"/>
      <use x="60.912109" xlink:href="#DejaVuSans-3a"/>
      <use x="94.603516" xlink:href="#DejaVuSans-31"/>
      <use x="158.226562" xlink:href="#DejaVuSans-31"/>
      <use x="221.849609" xlink:href="#DejaVuSans-33"/>
      <use x="285.472656" xlink:href="#DejaVuSans-35"/>
     </g>
    </g>
    <g id="line2d_32">
     <path d="M 123.823438 94.150937 
L 143.823438 94.150937 
" style="fill:none;stroke:#ffffff;stroke-linecap:square;stroke-width:1.5;"/>
    </g>
    <g id="line2d_33"/>
    <g id="text_20">
     <!-- P:1.665 -->
     <defs>
      <path d="M 19.671875 64.796875 
L 19.671875 37.40625 
L 32.078125 37.40625 
Q 38.96875 37.40625 42.71875 40.96875 
Q 46.484375 44.53125 46.484375 51.125 
Q 46.484375 57.671875 42.71875 61.234375 
Q 38.96875 64.796875 32.078125 64.796875 
z
M 9.8125 72.90625 
L 32.078125 72.90625 
Q 44.34375 72.90625 50.609375 67.359375 
Q 56.890625 61.8125 56.890625 51.125 
Q 56.890625 40.328125 50.609375 34.8125 
Q 44.34375 29.296875 32.078125 29.296875 
L 19.671875 29.296875 
L 19.671875 0 
L 9.8125 0 
z
" id="DejaVuSans-50"/>
     </defs>
     <g transform="translate(151.823438 97.650937)scale(0.1 -0.1)">
      <use xlink:href="#DejaVuSans-50"/>
      <use x="60.302734" xlink:href="#DejaVuSans-3a"/>
      <use x="93.994141" xlink:href="#DejaVuSans-31"/>
      <use x="157.617188" xlink:href="#DejaVuSans-2e"/>
      <use x="189.404297" xlink:href="#DejaVuSans-36"/>
      <use x="253.027344" xlink:href="#DejaVuSans-36"/>
      <use x="316.650391" xlink:href="#DejaVuSans-35"/>
     </g>
    </g>
    <g id="line2d_34">
     <path d="M 265.564063 35.416562 
L 285.564063 35.416562 
" style="fill:none;stroke:#ffffff;stroke-linecap:square;stroke-width:1.5;"/>
    </g>
    <g id="line2d_35"/>
    <g id="text_21">
     <!-- H2O2: 0.001476 -->
     <defs>
      <path d="M 9.8125 72.90625 
L 19.671875 72.90625 
L 19.671875 43.015625 
L 55.515625 43.015625 
L 55.515625 72.90625 
L 65.375 72.90625 
L 65.375 0 
L 55.515625 0 
L 55.515625 34.71875 
L 19.671875 34.71875 
L 19.671875 0 
L 9.8125 0 
z
" id="DejaVuSans-48"/>
      <path d="M 39.40625 66.21875 
Q 28.65625 66.21875 22.328125 58.203125 
Q 16.015625 50.203125 16.015625 36.375 
Q 16.015625 22.609375 22.328125 14.59375 
Q 28.65625 6.59375 39.40625 6.59375 
Q 50.140625 6.59375 56.421875 14.59375 
Q 62.703125 22.609375 62.703125 36.375 
Q 62.703125 50.203125 56.421875 58.203125 
Q 50.140625 66.21875 39.40625 66.21875 
z
M 39.40625 74.21875 
Q 54.734375 74.21875 63.90625 63.9375 
Q 73.09375 53.65625 73.09375 36.375 
Q 73.09375 19.140625 63.90625 8.859375 
Q 54.734375 -1.421875 39.40625 -1.421875 
Q 24.03125 -1.421875 14.8125 8.828125 
Q 5.609375 19.09375 5.609375 36.375 
Q 5.609375 53.65625 14.8125 63.9375 
Q 24.03125 74.21875 39.40625 74.21875 
z
" id="DejaVuSans-4f"/>
     </defs>
     <g transform="translate(293.564063 38.916562)scale(0.1 -0.1)">
      <use xlink:href="#DejaVuSans-48"/>
      <use x="75.195312" xlink:href="#DejaVuSans-32"/>
      <use x="138.818359" xlink:href="#DejaVuSans-4f"/>
      <use x="217.529297" xlink:href="#DejaVuSans-32"/>
      <use x="281.152344" xlink:href="#DejaVuSans-3a"/>
      <use x="314.84375" xlink:href="#DejaVuSans-20"/>
      <use x="346.630859" xlink:href="#DejaVuSans-30"/>
      <use x="410.253906" xlink:href="#DejaVuSans-2e"/>
      <use x="442.041016" xlink:href="#DejaVuSans-30"/>
      <use x="505.664062" xlink:href="#DejaVuSans-30"/>
      <use x="569.287109" xlink:href="#DejaVuSans-31"/>
      <use x="632.910156" xlink:href="#DejaVuSans-34"/>
      <use x="696.533203" xlink:href="#DejaVuSans-37"/>
      <use x="760.15625" xlink:href="#DejaVuSans-36"/>
     </g>
    </g>
    <g id="line2d_36">
     <path d="M 265.564063 50.094687 
L 285.564063 50.094687 
" style="fill:none;stroke:#ffffff;stroke-linecap:square;stroke-width:1.5;"/>
    </g>
    <g id="line2d_37"/>
    <g id="text_22">
     <!-- H2O: 0.001113 -->
     <g transform="translate(293.564063 53.594687)scale(0.1 -0.1)">
      <use xlink:href="#DejaVuSans-48"/>
      <use x="75.195312" xlink:href="#DejaVuSans-32"/>
      <use x="138.818359" xlink:href="#DejaVuSans-4f"/>
      <use x="217.513672" xlink:href="#DejaVuSans-3a"/>
      <use x="251.205078" xlink:href="#DejaVuSans-20"/>
      <use x="282.992188" xlink:href="#DejaVuSans-30"/>
      <use x="346.615234" xlink:href="#DejaVuSans-2e"/>
      <use x="378.402344" xlink:href="#DejaVuSans-30"/>
      <use x="442.025391" xlink:href="#DejaVuSans-30"/>
      <use x="505.648438" xlink:href="#DejaVuSans-31"/>
      <use x="569.271484" xlink:href="#DejaVuSans-31"/>
      <use x="632.894531" xlink:href="#DejaVuSans-31"/>
      <use x="696.517578" xlink:href="#DejaVuSans-33"/>
     </g>
    </g>
    <g id="line2d_38">
     <path d="M 265.564063 64.772812 
L 285.564063 64.772812 
" style="fill:none;stroke:#ffffff;stroke-linecap:square;stroke-width:1.5;"/>
    </g>
    <g id="line2d_39"/>
    <g id="text_23">
     <!-- O2: 0.000556 -->
     <g transform="translate(293.564063 68.272812)scale(0.1 -0.1)">
      <use xlink:href="#DejaVuSans-4f"/>
      <use x="78.710938" xlink:href="#DejaVuSans-32"/>
      <use x="142.333984" xlink:href="#DejaVuSans-3a"/>
      <use x="176.025391" xlink:href="#DejaVuSans-20"/>
      <use x="207.8125" xlink:href="#DejaVuSans-30"/>
      <use x="271.435547" xlink:href="#DejaVuSans-2e"/>
      <use x="303.222656" xlink:href="#DejaVuSans-30"/>
      <use x="366.845703" xlink:href="#DejaVuSans-30"/>
      <use x="430.46875" xlink:href="#DejaVuSans-30"/>
      <use x="494.091797" xlink:href="#DejaVuSans-35"/>
      <use x="557.714844" xlink:href="#DejaVuSans-35"/>
      <use x="621.337891" xlink:href="#DejaVuSans-36"/>
     </g>
    </g>
    <g id="line2d_40">
     <path d="M 265.564063 79.450938 
L 285.564063 79.450938 
" style="fill:none;stroke:#ffffff;stroke-linecap:square;stroke-width:1.5;"/>
    </g>
    <g id="line2d_41"/>
    <g id="text_24">
     <!-- Ar: 0.99683 -->
     <defs>
      <path d="M 10.984375 1.515625 
L 10.984375 10.5 
Q 14.703125 8.734375 18.5 7.8125 
Q 22.3125 6.890625 25.984375 6.890625 
Q 35.75 6.890625 40.890625 13.453125 
Q 46.046875 20.015625 46.78125 33.40625 
Q 43.953125 29.203125 39.59375 26.953125 
Q 35.25 24.703125 29.984375 24.703125 
Q 19.046875 24.703125 12.671875 31.3125 
Q 6.296875 37.9375 6.296875 49.421875 
Q 6.296875 60.640625 12.9375 67.421875 
Q 19.578125 74.21875 30.609375 74.21875 
Q 43.265625 74.21875 49.921875 64.515625 
Q 56.59375 54.828125 56.59375 36.375 
Q 56.59375 19.140625 48.40625 8.859375 
Q 40.234375 -1.421875 26.421875 -1.421875 
Q 22.703125 -1.421875 18.890625 -0.6875 
Q 15.09375 0.046875 10.984375 1.515625 
z
M 30.609375 32.421875 
Q 37.25 32.421875 41.125 36.953125 
Q 45.015625 41.5 45.015625 49.421875 
Q 45.015625 57.28125 41.125 61.84375 
Q 37.25 66.40625 30.609375 66.40625 
Q 23.96875 66.40625 20.09375 61.84375 
Q 16.21875 57.28125 16.21875 49.421875 
Q 16.21875 41.5 20.09375 36.953125 
Q 23.96875 32.421875 30.609375 32.421875 
z
" id="DejaVuSans-39"/>
     </defs>
     <g transform="translate(293.564063 82.950938)scale(0.1 -0.1)">
      <use xlink:href="#DejaVuSans-41"/>
      <use x="68.408203" xlink:href="#DejaVuSans-72"/>
      <use x="109.505859" xlink:href="#DejaVuSans-3a"/>
      <use x="143.197266" xlink:href="#DejaVuSans-20"/>
      <use x="174.984375" xlink:href="#DejaVuSans-30"/>
      <use x="238.607422" xlink:href="#DejaVuSans-2e"/>
      <use x="270.394531" xlink:href="#DejaVuSans-39"/>
      <use x="334.017578" xlink:href="#DejaVuSans-39"/>
      <use x="397.640625" xlink:href="#DejaVuSans-36"/>
      <use x="461.263672" xlink:href="#DejaVuSans-38"/>
      <use x="524.886719" xlink:href="#DejaVuSans-33"/>
     </g>
    </g>
   </g>
  </g>
 </g>
 <defs>
  <clipPath id="p53230c19f2">
   <rect height="217.44" width="334.8" x="50.14375" y="22.318125"/>
  </clipPath>
 </defs>
</svg>
