<?xml version="1.0" encoding="utf-8" standalone="no"?>
<!DOCTYPE svg PUBLIC "-//W3C//DTD SVG 1.1//EN"
  "http://www.w3.org/Graphics/SVG/1.1/DTD/svg11.dtd">
<!-- Created with matplotlib (http://matplotlib.org/) -->
<svg height="277pt" version="1.1" viewBox="0 0 402 277" width="402pt" xmlns="http://www.w3.org/2000/svg" xmlns:xlink="http://www.w3.org/1999/xlink">
 <defs>
  <style type="text/css">
*{stroke-linecap:butt;stroke-linejoin:round;}
  </style>
 </defs>
 <g id="figure_1">
  <g id="patch_1">
   <path d="M 0 277.314375 
L 402.00625 277.314375 
L 402.00625 0 
L 0 0 
z
" style="fill:none;"/>
  </g>
  <g id="axes_1">
   <g id="patch_2">
    <path d="M 56.50625 239.758125 
L 391.30625 239.758125 
L 391.30625 22.318125 
L 56.50625 22.318125 
z
" style="fill:none;"/>
   </g>
   <g id="matplotlib.axis_1">
    <g id="xtick_1">
     <g id="line2d_1">
      <defs>
       <path d="M 0 0 
L 0 3.5 
" id="mbb6c57b31c" style="stroke:#000000;stroke-width:0.8;"/>
      </defs>
      <g>
       <use style="stroke:#000000;stroke-width:0.8;" x="71.724432" xlink:href="#mbb6c57b31c" y="239.758125"/>
      </g>
     </g>
     <g id="text_1">
      <!-- 0.0 -->
      <defs>
       <path d="M 31.78125 66.40625 
Q 24.171875 66.40625 20.328125 58.90625 
Q 16.5 51.421875 16.5 36.375 
Q 16.5 21.390625 20.328125 13.890625 
Q 24.171875 6.390625 31.78125 6.390625 
Q 39.453125 6.390625 43.28125 13.890625 
Q 47.125 21.390625 47.125 36.375 
Q 47.125 51.421875 43.28125 58.90625 
Q 39.453125 66.40625 31.78125 66.40625 
z
M 31.78125 74.21875 
Q 44.046875 74.21875 50.515625 64.515625 
Q 56.984375 54.828125 56.984375 36.375 
Q 56.984375 17.96875 50.515625 8.265625 
Q 44.046875 -1.421875 31.78125 -1.421875 
Q 19.53125 -1.421875 13.0625 8.265625 
Q 6.59375 17.96875 6.59375 36.375 
Q 6.59375 54.828125 13.0625 64.515625 
Q 19.53125 74.21875 31.78125 74.21875 
z
" id="DejaVuSans-30"/>
       <path d="M 10.6875 12.40625 
L 21 12.40625 
L 21 0 
L 10.6875 0 
z
" id="DejaVuSans-2e"/>
      </defs>
      <g transform="translate(63.772869 254.356562)scale(0.1 -0.1)">
       <use xlink:href="#DejaVuSans-30"/>
       <use x="63.623047" xlink:href="#DejaVuSans-2e"/>
       <use x="95.410156" xlink:href="#DejaVuSans-30"/>
      </g>
     </g>
    </g>
    <g id="xtick_2">
     <g id="line2d_2">
      <g>
       <use style="stroke:#000000;stroke-width:0.8;" x="131.95676" xlink:href="#mbb6c57b31c" y="239.758125"/>
      </g>
     </g>
     <g id="text_2">
      <!-- 0.2 -->
      <defs>
       <path d="M 19.1875 8.296875 
L 53.609375 8.296875 
L 53.609375 0 
L 7.328125 0 
L 7.328125 8.296875 
Q 12.9375 14.109375 22.625 23.890625 
Q 32.328125 33.6875 34.8125 36.53125 
Q 39.546875 41.84375 41.421875 45.53125 
Q 43.3125 49.21875 43.3125 52.78125 
Q 43.3125 58.59375 39.234375 62.25 
Q 35.15625 65.921875 28.609375 65.921875 
Q 23.96875 65.921875 18.8125 64.3125 
Q 13.671875 62.703125 7.8125 59.421875 
L 7.8125 69.390625 
Q 13.765625 71.78125 18.9375 73 
Q 24.125 74.21875 28.421875 74.21875 
Q 39.75 74.21875 46.484375 68.546875 
Q 53.21875 62.890625 53.21875 53.421875 
Q 53.21875 48.921875 51.53125 44.890625 
Q 49.859375 40.875 45.40625 35.40625 
Q 44.1875 33.984375 37.640625 27.21875 
Q 31.109375 20.453125 19.1875 8.296875 
z
" id="DejaVuSans-32"/>
      </defs>
      <g transform="translate(124.005198 254.356562)scale(0.1 -0.1)">
       <use xlink:href="#DejaVuSans-30"/>
       <use x="63.623047" xlink:href="#DejaVuSans-2e"/>
       <use x="95.410156" xlink:href="#DejaVuSans-32"/>
      </g>
     </g>
    </g>
    <g id="xtick_3">
     <g id="line2d_3">
      <g>
       <use style="stroke:#000000;stroke-width:0.8;" x="192.189089" xlink:href="#mbb6c57b31c" y="239.758125"/>
      </g>
     </g>
     <g id="text_3">
      <!-- 0.4 -->
      <defs>
       <path d="M 37.796875 64.3125 
L 12.890625 25.390625 
L 37.796875 25.390625 
z
M 35.203125 72.90625 
L 47.609375 72.90625 
L 47.609375 25.390625 
L 58.015625 25.390625 
L 58.015625 17.1875 
L 47.609375 17.1875 
L 47.609375 0 
L 37.796875 0 
L 37.796875 17.1875 
L 4.890625 17.1875 
L 4.890625 26.703125 
z
" id="DejaVuSans-34"/>
      </defs>
      <g transform="translate(184.237527 254.356562)scale(0.1 -0.1)">
       <use xlink:href="#DejaVuSans-30"/>
       <use x="63.623047" xlink:href="#DejaVuSans-2e"/>
       <use x="95.410156" xlink:href="#DejaVuSans-34"/>
      </g>
     </g>
    </g>
    <g id="xtick_4">
     <g id="line2d_4">
      <g>
       <use style="stroke:#000000;stroke-width:0.8;" x="252.421418" xlink:href="#mbb6c57b31c" y="239.758125"/>
      </g>
     </g>
     <g id="text_4">
      <!-- 0.6 -->
      <defs>
       <path d="M 33.015625 40.375 
Q 26.375 40.375 22.484375 35.828125 
Q 18.609375 31.296875 18.609375 23.390625 
Q 18.609375 15.53125 22.484375 10.953125 
Q 26.375 6.390625 33.015625 6.390625 
Q 39.65625 6.390625 43.53125 10.953125 
Q 47.40625 15.53125 47.40625 23.390625 
Q 47.40625 31.296875 43.53125 35.828125 
Q 39.65625 40.375 33.015625 40.375 
z
M 52.59375 71.296875 
L 52.59375 62.3125 
Q 48.875 64.0625 45.09375 64.984375 
Q 41.3125 65.921875 37.59375 65.921875 
Q 27.828125 65.921875 22.671875 59.328125 
Q 17.53125 52.734375 16.796875 39.40625 
Q 19.671875 43.65625 24.015625 45.921875 
Q 28.375 48.1875 33.59375 48.1875 
Q 44.578125 48.1875 50.953125 41.515625 
Q 57.328125 34.859375 57.328125 23.390625 
Q 57.328125 12.15625 50.6875 5.359375 
Q 44.046875 -1.421875 33.015625 -1.421875 
Q 20.359375 -1.421875 13.671875 8.265625 
Q 6.984375 17.96875 6.984375 36.375 
Q 6.984375 53.65625 15.1875 63.9375 
Q 23.390625 74.21875 37.203125 74.21875 
Q 40.921875 74.21875 44.703125 73.484375 
Q 48.484375 72.75 52.59375 71.296875 
z
" id="DejaVuSans-36"/>
      </defs>
      <g transform="translate(244.469855 254.356562)scale(0.1 -0.1)">
       <use xlink:href="#DejaVuSans-30"/>
       <use x="63.623047" xlink:href="#DejaVuSans-2e"/>
       <use x="95.410156" xlink:href="#DejaVuSans-36"/>
      </g>
     </g>
    </g>
    <g id="xtick_5">
     <g id="line2d_5">
      <g>
       <use style="stroke:#000000;stroke-width:0.8;" x="312.653747" xlink:href="#mbb6c57b31c" y="239.758125"/>
      </g>
     </g>
     <g id="text_5">
      <!-- 0.8 -->
      <defs>
       <path d="M 31.78125 34.625 
Q 24.75 34.625 20.71875 30.859375 
Q 16.703125 27.09375 16.703125 20.515625 
Q 16.703125 13.921875 20.71875 10.15625 
Q 24.75 6.390625 31.78125 6.390625 
Q 38.8125 6.390625 42.859375 10.171875 
Q 46.921875 13.96875 46.921875 20.515625 
Q 46.921875 27.09375 42.890625 30.859375 
Q 38.875 34.625 31.78125 34.625 
z
M 21.921875 38.8125 
Q 15.578125 40.375 12.03125 44.71875 
Q 8.5 49.078125 8.5 55.328125 
Q 8.5 64.0625 14.71875 69.140625 
Q 20.953125 74.21875 31.78125 74.21875 
Q 42.671875 74.21875 48.875 69.140625 
Q 55.078125 64.0625 55.078125 55.328125 
Q 55.078125 49.078125 51.53125 44.71875 
Q 48 40.375 41.703125 38.8125 
Q 48.828125 37.15625 52.796875 32.3125 
Q 56.78125 27.484375 56.78125 20.515625 
Q 56.78125 9.90625 50.3125 4.234375 
Q 43.84375 -1.421875 31.78125 -1.421875 
Q 19.734375 -1.421875 13.25 4.234375 
Q 6.78125 9.90625 6.78125 20.515625 
Q 6.78125 27.484375 10.78125 32.3125 
Q 14.796875 37.15625 21.921875 38.8125 
z
M 18.3125 54.390625 
Q 18.3125 48.734375 21.84375 45.5625 
Q 25.390625 42.390625 31.78125 42.390625 
Q 38.140625 42.390625 41.71875 45.5625 
Q 45.3125 48.734375 45.3125 54.390625 
Q 45.3125 60.0625 41.71875 63.234375 
Q 38.140625 66.40625 31.78125 66.40625 
Q 25.390625 66.40625 21.84375 63.234375 
Q 18.3125 60.0625 18.3125 54.390625 
z
" id="DejaVuSans-38"/>
      </defs>
      <g transform="translate(304.702184 254.356562)scale(0.1 -0.1)">
       <use xlink:href="#DejaVuSans-30"/>
       <use x="63.623047" xlink:href="#DejaVuSans-2e"/>
       <use x="95.410156" xlink:href="#DejaVuSans-38"/>
      </g>
     </g>
    </g>
    <g id="xtick_6">
     <g id="line2d_6">
      <g>
       <use style="stroke:#000000;stroke-width:0.8;" x="372.886075" xlink:href="#mbb6c57b31c" y="239.758125"/>
      </g>
     </g>
     <g id="text_6">
      <!-- 1.0 -->
      <defs>
       <path d="M 12.40625 8.296875 
L 28.515625 8.296875 
L 28.515625 63.921875 
L 10.984375 60.40625 
L 10.984375 69.390625 
L 28.421875 72.90625 
L 38.28125 72.90625 
L 38.28125 8.296875 
L 54.390625 8.296875 
L 54.390625 0 
L 12.40625 0 
z
" id="DejaVuSans-31"/>
      </defs>
      <g transform="translate(364.934513 254.356562)scale(0.1 -0.1)">
       <use xlink:href="#DejaVuSans-31"/>
       <use x="63.623047" xlink:href="#DejaVuSans-2e"/>
       <use x="95.410156" xlink:href="#DejaVuSans-30"/>
      </g>
     </g>
    </g>
    <g id="text_7">
     <!-- Time (ms) -->
     <defs>
      <path d="M -0.296875 72.90625 
L 61.375 72.90625 
L 61.375 64.59375 
L 35.5 64.59375 
L 35.5 0 
L 25.59375 0 
L 25.59375 64.59375 
L -0.296875 64.59375 
z
" id="DejaVuSans-54"/>
      <path d="M 9.421875 54.6875 
L 18.40625 54.6875 
L 18.40625 0 
L 9.421875 0 
z
M 9.421875 75.984375 
L 18.40625 75.984375 
L 18.40625 64.59375 
L 9.421875 64.59375 
z
" id="DejaVuSans-69"/>
      <path d="M 52 44.1875 
Q 55.375 50.25 60.0625 53.125 
Q 64.75 56 71.09375 56 
Q 79.640625 56 84.28125 50.015625 
Q 88.921875 44.046875 88.921875 33.015625 
L 88.921875 0 
L 79.890625 0 
L 79.890625 32.71875 
Q 79.890625 40.578125 77.09375 44.375 
Q 74.3125 48.1875 68.609375 48.1875 
Q 61.625 48.1875 57.5625 43.546875 
Q 53.515625 38.921875 53.515625 30.90625 
L 53.515625 0 
L 44.484375 0 
L 44.484375 32.71875 
Q 44.484375 40.625 41.703125 44.40625 
Q 38.921875 48.1875 33.109375 48.1875 
Q 26.21875 48.1875 22.15625 43.53125 
Q 18.109375 38.875 18.109375 30.90625 
L 18.109375 0 
L 9.078125 0 
L 9.078125 54.6875 
L 18.109375 54.6875 
L 18.109375 46.1875 
Q 21.1875 51.21875 25.484375 53.609375 
Q 29.78125 56 35.6875 56 
Q 41.65625 56 45.828125 52.96875 
Q 50 49.953125 52 44.1875 
z
" id="DejaVuSans-6d"/>
      <path d="M 56.203125 29.59375 
L 56.203125 25.203125 
L 14.890625 25.203125 
Q 15.484375 15.921875 20.484375 11.0625 
Q 25.484375 6.203125 34.421875 6.203125 
Q 39.59375 6.203125 44.453125 7.46875 
Q 49.3125 8.734375 54.109375 11.28125 
L 54.109375 2.78125 
Q 49.265625 0.734375 44.1875 -0.34375 
Q 39.109375 -1.421875 33.890625 -1.421875 
Q 20.796875 -1.421875 13.15625 6.1875 
Q 5.515625 13.8125 5.515625 26.8125 
Q 5.515625 40.234375 12.765625 48.109375 
Q 20.015625 56 32.328125 56 
Q 43.359375 56 49.78125 48.890625 
Q 56.203125 41.796875 56.203125 29.59375 
z
M 47.21875 32.234375 
Q 47.125 39.59375 43.09375 43.984375 
Q 39.0625 48.390625 32.421875 48.390625 
Q 24.90625 48.390625 20.390625 44.140625 
Q 15.875 39.890625 15.1875 32.171875 
z
" id="DejaVuSans-65"/>
      <path id="DejaVuSans-20"/>
      <path d="M 31 75.875 
Q 24.46875 64.65625 21.28125 53.65625 
Q 18.109375 42.671875 18.109375 31.390625 
Q 18.109375 20.125 21.3125 9.0625 
Q 24.515625 -2 31 -13.1875 
L 23.1875 -13.1875 
Q 15.875 -1.703125 12.234375 9.375 
Q 8.59375 20.453125 8.59375 31.390625 
Q 8.59375 42.28125 12.203125 53.3125 
Q 15.828125 64.359375 23.1875 75.875 
z
" id="DejaVuSans-28"/>
      <path d="M 44.28125 53.078125 
L 44.28125 44.578125 
Q 40.484375 46.53125 36.375 47.5 
Q 32.28125 48.484375 27.875 48.484375 
Q 21.1875 48.484375 17.84375 46.4375 
Q 14.5 44.390625 14.5 40.28125 
Q 14.5 37.15625 16.890625 35.375 
Q 19.28125 33.59375 26.515625 31.984375 
L 29.59375 31.296875 
Q 39.15625 29.25 43.1875 25.515625 
Q 47.21875 21.78125 47.21875 15.09375 
Q 47.21875 7.46875 41.1875 3.015625 
Q 35.15625 -1.421875 24.609375 -1.421875 
Q 20.21875 -1.421875 15.453125 -0.5625 
Q 10.6875 0.296875 5.421875 2 
L 5.421875 11.28125 
Q 10.40625 8.6875 15.234375 7.390625 
Q 20.0625 6.109375 24.8125 6.109375 
Q 31.15625 6.109375 34.5625 8.28125 
Q 37.984375 10.453125 37.984375 14.40625 
Q 37.984375 18.0625 35.515625 20.015625 
Q 33.0625 21.96875 24.703125 23.78125 
L 21.578125 24.515625 
Q 13.234375 26.265625 9.515625 29.90625 
Q 5.8125 33.546875 5.8125 39.890625 
Q 5.8125 47.609375 11.28125 51.796875 
Q 16.75 56 26.8125 56 
Q 31.78125 56 36.171875 55.265625 
Q 40.578125 54.546875 44.28125 53.078125 
z
" id="DejaVuSans-73"/>
      <path d="M 8.015625 75.875 
L 15.828125 75.875 
Q 23.140625 64.359375 26.78125 53.3125 
Q 30.421875 42.28125 30.421875 31.390625 
Q 30.421875 20.453125 26.78125 9.375 
Q 23.140625 -1.703125 15.828125 -13.1875 
L 8.015625 -13.1875 
Q 14.5 -2 17.703125 9.0625 
Q 20.90625 20.125 20.90625 31.390625 
Q 20.90625 42.671875 17.703125 53.65625 
Q 14.5 64.65625 8.015625 75.875 
z
" id="DejaVuSans-29"/>
     </defs>
     <g transform="translate(198.553125 268.034687)scale(0.1 -0.1)">
      <use xlink:href="#DejaVuSans-54"/>
      <use x="61.037109" xlink:href="#DejaVuSans-69"/>
      <use x="88.820312" xlink:href="#DejaVuSans-6d"/>
      <use x="186.232422" xlink:href="#DejaVuSans-65"/>
      <use x="247.755859" xlink:href="#DejaVuSans-20"/>
      <use x="279.542969" xlink:href="#DejaVuSans-28"/>
      <use x="318.556641" xlink:href="#DejaVuSans-6d"/>
      <use x="415.96875" xlink:href="#DejaVuSans-73"/>
      <use x="468.068359" xlink:href="#DejaVuSans-29"/>
     </g>
    </g>
   </g>
   <g id="matplotlib.axis_2">
    <g id="ytick_1">
     <g id="line2d_7">
      <defs>
       <path d="M 0 0 
L -3.5 0 
" id="m9408aef232" style="stroke:#000000;stroke-width:0.8;"/>
      </defs>
      <g>
       <use style="stroke:#000000;stroke-width:0.8;" x="56.50625" xlink:href="#m9408aef232" y="239.794909"/>
      </g>
     </g>
     <g id="text_8">
      <!-- 0.000 -->
      <g transform="translate(20.878125 243.594127)scale(0.1 -0.1)">
       <use xlink:href="#DejaVuSans-30"/>
       <use x="63.623047" xlink:href="#DejaVuSans-2e"/>
       <use x="95.410156" xlink:href="#DejaVuSans-30"/>
       <use x="159.033203" xlink:href="#DejaVuSans-30"/>
       <use x="222.65625" xlink:href="#DejaVuSans-30"/>
      </g>
     </g>
    </g>
    <g id="ytick_2">
     <g id="line2d_8">
      <g>
       <use style="stroke:#000000;stroke-width:0.8;" x="56.50625" xlink:href="#m9408aef232" y="213.640972"/>
      </g>
     </g>
     <g id="text_9">
      <!-- 0.025 -->
      <defs>
       <path d="M 10.796875 72.90625 
L 49.515625 72.90625 
L 49.515625 64.59375 
L 19.828125 64.59375 
L 19.828125 46.734375 
Q 21.96875 47.46875 24.109375 47.828125 
Q 26.265625 48.1875 28.421875 48.1875 
Q 40.625 48.1875 47.75 41.5 
Q 54.890625 34.8125 54.890625 23.390625 
Q 54.890625 11.625 47.5625 5.09375 
Q 40.234375 -1.421875 26.90625 -1.421875 
Q 22.3125 -1.421875 17.546875 -0.640625 
Q 12.796875 0.140625 7.71875 1.703125 
L 7.71875 11.625 
Q 12.109375 9.234375 16.796875 8.0625 
Q 21.484375 6.890625 26.703125 6.890625 
Q 35.15625 6.890625 40.078125 11.328125 
Q 45.015625 15.765625 45.015625 23.390625 
Q 45.015625 31 40.078125 35.4375 
Q 35.15625 39.890625 26.703125 39.890625 
Q 22.75 39.890625 18.8125 39.015625 
Q 14.890625 38.140625 10.796875 36.28125 
z
" id="DejaVuSans-35"/>
      </defs>
      <g transform="translate(20.878125 217.440191)scale(0.1 -0.1)">
       <use xlink:href="#DejaVuSans-30"/>
       <use x="63.623047" xlink:href="#DejaVuSans-2e"/>
       <use x="95.410156" xlink:href="#DejaVuSans-30"/>
       <use x="159.033203" xlink:href="#DejaVuSans-32"/>
       <use x="222.65625" xlink:href="#DejaVuSans-35"/>
      </g>
     </g>
    </g>
    <g id="ytick_3">
     <g id="line2d_9">
      <g>
       <use style="stroke:#000000;stroke-width:0.8;" x="56.50625" xlink:href="#m9408aef232" y="187.487036"/>
      </g>
     </g>
     <g id="text_10">
      <!-- 0.050 -->
      <g transform="translate(20.878125 191.286255)scale(0.1 -0.1)">
       <use xlink:href="#DejaVuSans-30"/>
       <use x="63.623047" xlink:href="#DejaVuSans-2e"/>
       <use x="95.410156" xlink:href="#DejaVuSans-30"/>
       <use x="159.033203" xlink:href="#DejaVuSans-35"/>
       <use x="222.65625" xlink:href="#DejaVuSans-30"/>
      </g>
     </g>
    </g>
    <g id="ytick_4">
     <g id="line2d_10">
      <g>
       <use style="stroke:#000000;stroke-width:0.8;" x="56.50625" xlink:href="#m9408aef232" y="161.3331"/>
      </g>
     </g>
     <g id="text_11">
      <!-- 0.075 -->
      <defs>
       <path d="M 8.203125 72.90625 
L 55.078125 72.90625 
L 55.078125 68.703125 
L 28.609375 0 
L 18.3125 0 
L 43.21875 64.59375 
L 8.203125 64.59375 
z
" id="DejaVuSans-37"/>
      </defs>
      <g transform="translate(20.878125 165.132319)scale(0.1 -0.1)">
       <use xlink:href="#DejaVuSans-30"/>
       <use x="63.623047" xlink:href="#DejaVuSans-2e"/>
       <use x="95.410156" xlink:href="#DejaVuSans-30"/>
       <use x="159.033203" xlink:href="#DejaVuSans-37"/>
       <use x="222.65625" xlink:href="#DejaVuSans-35"/>
      </g>
     </g>
    </g>
    <g id="ytick_5">
     <g id="line2d_11">
      <g>
       <use style="stroke:#000000;stroke-width:0.8;" x="56.50625" xlink:href="#m9408aef232" y="135.179164"/>
      </g>
     </g>
     <g id="text_12">
      <!-- 0.100 -->
      <g transform="translate(20.878125 138.978382)scale(0.1 -0.1)">
       <use xlink:href="#DejaVuSans-30"/>
       <use x="63.623047" xlink:href="#DejaVuSans-2e"/>
       <use x="95.410156" xlink:href="#DejaVuSans-31"/>
       <use x="159.033203" xlink:href="#DejaVuSans-30"/>
       <use x="222.65625" xlink:href="#DejaVuSans-30"/>
      </g>
     </g>
    </g>
    <g id="ytick_6">
     <g id="line2d_12">
      <g>
       <use style="stroke:#000000;stroke-width:0.8;" x="56.50625" xlink:href="#m9408aef232" y="109.025227"/>
      </g>
     </g>
     <g id="text_13">
      <!-- 0.125 -->
      <g transform="translate(20.878125 112.824446)scale(0.1 -0.1)">
       <use xlink:href="#DejaVuSans-30"/>
       <use x="63.623047" xlink:href="#DejaVuSans-2e"/>
       <use x="95.410156" xlink:href="#DejaVuSans-31"/>
       <use x="159.033203" xlink:href="#DejaVuSans-32"/>
       <use x="222.65625" xlink:href="#DejaVuSans-35"/>
      </g>
     </g>
    </g>
    <g id="ytick_7">
     <g id="line2d_13">
      <g>
       <use style="stroke:#000000;stroke-width:0.8;" x="56.50625" xlink:href="#m9408aef232" y="82.871291"/>
      </g>
     </g>
     <g id="text_14">
      <!-- 0.150 -->
      <g transform="translate(20.878125 86.67051)scale(0.1 -0.1)">
       <use xlink:href="#DejaVuSans-30"/>
       <use x="63.623047" xlink:href="#DejaVuSans-2e"/>
       <use x="95.410156" xlink:href="#DejaVuSans-31"/>
       <use x="159.033203" xlink:href="#DejaVuSans-35"/>
       <use x="222.65625" xlink:href="#DejaVuSans-30"/>
      </g>
     </g>
    </g>
    <g id="ytick_8">
     <g id="line2d_14">
      <g>
       <use style="stroke:#000000;stroke-width:0.8;" x="56.50625" xlink:href="#m9408aef232" y="56.717355"/>
      </g>
     </g>
     <g id="text_15">
      <!-- 0.175 -->
      <g transform="translate(20.878125 60.516574)scale(0.1 -0.1)">
       <use xlink:href="#DejaVuSans-30"/>
       <use x="63.623047" xlink:href="#DejaVuSans-2e"/>
       <use x="95.410156" xlink:href="#DejaVuSans-31"/>
       <use x="159.033203" xlink:href="#DejaVuSans-37"/>
       <use x="222.65625" xlink:href="#DejaVuSans-35"/>
      </g>
     </g>
    </g>
    <g id="ytick_9">
     <g id="line2d_15">
      <g>
       <use style="stroke:#000000;stroke-width:0.8;" x="56.50625" xlink:href="#m9408aef232" y="30.563419"/>
      </g>
     </g>
     <g id="text_16">
      <!-- 0.200 -->
      <g transform="translate(20.878125 34.362638)scale(0.1 -0.1)">
       <use xlink:href="#DejaVuSans-30"/>
       <use x="63.623047" xlink:href="#DejaVuSans-2e"/>
       <use x="95.410156" xlink:href="#DejaVuSans-32"/>
       <use x="159.033203" xlink:href="#DejaVuSans-30"/>
       <use x="222.65625" xlink:href="#DejaVuSans-30"/>
      </g>
     </g>
    </g>
    <g id="text_17">
     <!-- Absorbance227 -->
     <defs>
      <path d="M 34.1875 63.1875 
L 20.796875 26.90625 
L 47.609375 26.90625 
z
M 28.609375 72.90625 
L 39.796875 72.90625 
L 67.578125 0 
L 57.328125 0 
L 50.6875 18.703125 
L 17.828125 18.703125 
L 11.1875 0 
L 0.78125 0 
z
" id="DejaVuSans-41"/>
      <path d="M 48.6875 27.296875 
Q 48.6875 37.203125 44.609375 42.84375 
Q 40.53125 48.484375 33.40625 48.484375 
Q 26.265625 48.484375 22.1875 42.84375 
Q 18.109375 37.203125 18.109375 27.296875 
Q 18.109375 17.390625 22.1875 11.75 
Q 26.265625 6.109375 33.40625 6.109375 
Q 40.53125 6.109375 44.609375 11.75 
Q 48.6875 17.390625 48.6875 27.296875 
z
M 18.109375 46.390625 
Q 20.953125 51.265625 25.265625 53.625 
Q 29.59375 56 35.59375 56 
Q 45.5625 56 51.78125 48.09375 
Q 58.015625 40.1875 58.015625 27.296875 
Q 58.015625 14.40625 51.78125 6.484375 
Q 45.5625 -1.421875 35.59375 -1.421875 
Q 29.59375 -1.421875 25.265625 0.953125 
Q 20.953125 3.328125 18.109375 8.203125 
L 18.109375 0 
L 9.078125 0 
L 9.078125 75.984375 
L 18.109375 75.984375 
z
" id="DejaVuSans-62"/>
      <path d="M 30.609375 48.390625 
Q 23.390625 48.390625 19.1875 42.75 
Q 14.984375 37.109375 14.984375 27.296875 
Q 14.984375 17.484375 19.15625 11.84375 
Q 23.34375 6.203125 30.609375 6.203125 
Q 37.796875 6.203125 41.984375 11.859375 
Q 46.1875 17.53125 46.1875 27.296875 
Q 46.1875 37.015625 41.984375 42.703125 
Q 37.796875 48.390625 30.609375 48.390625 
z
M 30.609375 56 
Q 42.328125 56 49.015625 48.375 
Q 55.71875 40.765625 55.71875 27.296875 
Q 55.71875 13.875 49.015625 6.21875 
Q 42.328125 -1.421875 30.609375 -1.421875 
Q 18.84375 -1.421875 12.171875 6.21875 
Q 5.515625 13.875 5.515625 27.296875 
Q 5.515625 40.765625 12.171875 48.375 
Q 18.84375 56 30.609375 56 
z
" id="DejaVuSans-6f"/>
      <path d="M 41.109375 46.296875 
Q 39.59375 47.171875 37.8125 47.578125 
Q 36.03125 48 33.890625 48 
Q 26.265625 48 22.1875 43.046875 
Q 18.109375 38.09375 18.109375 28.8125 
L 18.109375 0 
L 9.078125 0 
L 9.078125 54.6875 
L 18.109375 54.6875 
L 18.109375 46.1875 
Q 20.953125 51.171875 25.484375 53.578125 
Q 30.03125 56 36.53125 56 
Q 37.453125 56 38.578125 55.875 
Q 39.703125 55.765625 41.0625 55.515625 
z
" id="DejaVuSans-72"/>
      <path d="M 34.28125 27.484375 
Q 23.390625 27.484375 19.1875 25 
Q 14.984375 22.515625 14.984375 16.5 
Q 14.984375 11.71875 18.140625 8.90625 
Q 21.296875 6.109375 26.703125 6.109375 
Q 34.1875 6.109375 38.703125 11.40625 
Q 43.21875 16.703125 43.21875 25.484375 
L 43.21875 27.484375 
z
M 52.203125 31.203125 
L 52.203125 0 
L 43.21875 0 
L 43.21875 8.296875 
Q 40.140625 3.328125 35.546875 0.953125 
Q 30.953125 -1.421875 24.3125 -1.421875 
Q 15.921875 -1.421875 10.953125 3.296875 
Q 6 8.015625 6 15.921875 
Q 6 25.140625 12.171875 29.828125 
Q 18.359375 34.515625 30.609375 34.515625 
L 43.21875 34.515625 
L 43.21875 35.40625 
Q 43.21875 41.609375 39.140625 45 
Q 35.0625 48.390625 27.6875 48.390625 
Q 23 48.390625 18.546875 47.265625 
Q 14.109375 46.140625 10.015625 43.890625 
L 10.015625 52.203125 
Q 14.9375 54.109375 19.578125 55.046875 
Q 24.21875 56 28.609375 56 
Q 40.484375 56 46.34375 49.84375 
Q 52.203125 43.703125 52.203125 31.203125 
z
" id="DejaVuSans-61"/>
      <path d="M 54.890625 33.015625 
L 54.890625 0 
L 45.90625 0 
L 45.90625 32.71875 
Q 45.90625 40.484375 42.875 44.328125 
Q 39.84375 48.1875 33.796875 48.1875 
Q 26.515625 48.1875 22.3125 43.546875 
Q 18.109375 38.921875 18.109375 30.90625 
L 18.109375 0 
L 9.078125 0 
L 9.078125 54.6875 
L 18.109375 54.6875 
L 18.109375 46.1875 
Q 21.34375 51.125 25.703125 53.5625 
Q 30.078125 56 35.796875 56 
Q 45.21875 56 50.046875 50.171875 
Q 54.890625 44.34375 54.890625 33.015625 
z
" id="DejaVuSans-6e"/>
      <path d="M 48.78125 52.59375 
L 48.78125 44.1875 
Q 44.96875 46.296875 41.140625 47.34375 
Q 37.3125 48.390625 33.40625 48.390625 
Q 24.65625 48.390625 19.8125 42.84375 
Q 14.984375 37.3125 14.984375 27.296875 
Q 14.984375 17.28125 19.8125 11.734375 
Q 24.65625 6.203125 33.40625 6.203125 
Q 37.3125 6.203125 41.140625 7.25 
Q 44.96875 8.296875 48.78125 10.40625 
L 48.78125 2.09375 
Q 45.015625 0.34375 40.984375 -0.53125 
Q 36.96875 -1.421875 32.421875 -1.421875 
Q 20.0625 -1.421875 12.78125 6.34375 
Q 5.515625 14.109375 5.515625 27.296875 
Q 5.515625 40.671875 12.859375 48.328125 
Q 20.21875 56 33.015625 56 
Q 37.15625 56 41.109375 55.140625 
Q 45.0625 54.296875 48.78125 52.59375 
z
" id="DejaVuSans-63"/>
     </defs>
     <g transform="translate(14.798437 170.12875)rotate(-90)scale(0.1 -0.1)">
      <use xlink:href="#DejaVuSans-41"/>
      <use x="68.408203" xlink:href="#DejaVuSans-62"/>
      <use x="131.884766" xlink:href="#DejaVuSans-73"/>
      <use x="183.984375" xlink:href="#DejaVuSans-6f"/>
      <use x="245.166016" xlink:href="#DejaVuSans-72"/>
      <use x="286.279297" xlink:href="#DejaVuSans-62"/>
      <use x="349.755859" xlink:href="#DejaVuSans-61"/>
      <use x="411.035156" xlink:href="#DejaVuSans-6e"/>
      <use x="474.414062" xlink:href="#DejaVuSans-63"/>
      <use x="529.394531" xlink:href="#DejaVuSans-65"/>
      <use x="590.917969" xlink:href="#DejaVuSans-32"/>
      <use x="654.541016" xlink:href="#DejaVuSans-32"/>
      <use x="718.164062" xlink:href="#DejaVuSans-37"/>
     </g>
    </g>
   </g>
   <g id="line2d_16">
    <defs>
     <path d="M 0 3 
C 0.795609 3 1.55874 2.683901 2.12132 2.12132 
C 2.683901 1.55874 3 0.795609 3 0 
C 3 -0.795609 2.683901 -1.55874 2.12132 -2.12132 
C 1.55874 -2.683901 0.795609 -3 0 -3 
C -0.795609 -3 -1.55874 -2.683901 -2.12132 -2.12132 
C -2.683901 -1.55874 -3 -0.795609 -3 0 
C -3 0.795609 -2.683901 1.55874 -2.12132 2.12132 
C -1.55874 2.683901 -0.795609 3 0 3 
z
" id="m889d20d811" style="stroke:#000000;"/>
    </defs>
    <g clip-path="url(#p383bd10ef6)">
     <use style="stroke:#000000;" x="71.724432" xlink:href="#m889d20d811" y="156.281101"/>
     <use style="stroke:#000000;" x="71.724442" xlink:href="#m889d20d811" y="156.281101"/>
     <use style="stroke:#000000;" x="71.724474" xlink:href="#m889d20d811" y="156.281101"/>
     <use style="stroke:#000000;" x="71.724507" xlink:href="#m889d20d811" y="156.281101"/>
     <use style="stroke:#000000;" x="71.72454" xlink:href="#m889d20d811" y="156.281101"/>
     <use style="stroke:#000000;" x="71.724572" xlink:href="#m889d20d811" y="156.281206"/>
     <use style="stroke:#000000;" x="71.724643" xlink:href="#m889d20d811" y="156.281206"/>
     <use style="stroke:#000000;" x="71.724772" xlink:href="#m889d20d811" y="156.281206"/>
     <use style="stroke:#000000;" x="71.725001" xlink:href="#m889d20d811" y="156.28131"/>
     <use style="stroke:#000000;" x="71.725414" xlink:href="#m889d20d811" y="156.281415"/>
     <use style="stroke:#000000;" x="71.726341" xlink:href="#m889d20d811" y="156.281729"/>
     <use style="stroke:#000000;" x="71.727266" xlink:href="#m889d20d811" y="156.282043"/>
     <use style="stroke:#000000;" x="71.728196" xlink:href="#m889d20d811" y="156.282356"/>
     <use style="stroke:#000000;" x="71.72913" xlink:href="#m889d20d811" y="156.28267"/>
     <use style="stroke:#000000;" x="71.730033" xlink:href="#m889d20d811" y="156.282984"/>
     <use style="stroke:#000000;" x="71.731328" xlink:href="#m889d20d811" y="156.283403"/>
     <use style="stroke:#000000;" x="71.732623" xlink:href="#m889d20d811" y="156.283716"/>
     <use style="stroke:#000000;" x="71.733918" xlink:href="#m889d20d811" y="156.284135"/>
     <use style="stroke:#000000;" x="71.735213" xlink:href="#m889d20d811" y="156.284553"/>
     <use style="stroke:#000000;" x="71.739219" xlink:href="#m889d20d811" y="156.285704"/>
     <use style="stroke:#000000;" x="71.743194" xlink:href="#m889d20d811" y="156.286855"/>
     <use style="stroke:#000000;" x="71.74976" xlink:href="#m889d20d811" y="156.288529"/>
     <use style="stroke:#000000;" x="71.756355" xlink:href="#m889d20d811" y="156.290203"/>
     <use style="stroke:#000000;" x="71.762981" xlink:href="#m889d20d811" y="156.291563"/>
     <use style="stroke:#000000;" x="71.769305" xlink:href="#m889d20d811" y="156.292923"/>
     <use style="stroke:#000000;" x="71.77593" xlink:href="#m889d20d811" y="156.294073"/>
     <use style="stroke:#000000;" x="71.782556" xlink:href="#m889d20d811" y="156.295015"/>
     <use style="stroke:#000000;" x="71.789182" xlink:href="#m889d20d811" y="156.295852"/>
     <use style="stroke:#000000;" x="71.802734" xlink:href="#m889d20d811" y="156.297212"/>
     <use style="stroke:#000000;" x="71.816286" xlink:href="#m889d20d811" y="156.297944"/>
     <use style="stroke:#000000;" x="71.829537" xlink:href="#m889d20d811" y="156.298153"/>
     <use style="stroke:#000000;" x="71.84309" xlink:href="#m889d20d811" y="156.297735"/>
     <use style="stroke:#000000;" x="71.856642" xlink:href="#m889d20d811" y="156.296689"/>
     <use style="stroke:#000000;" x="71.870194" xlink:href="#m889d20d811" y="156.295119"/>
     <use style="stroke:#000000;" x="71.89248" xlink:href="#m889d20d811" y="156.291249"/>
     <use style="stroke:#000000;" x="71.914766" xlink:href="#m889d20d811" y="156.285913"/>
     <use style="stroke:#000000;" x="71.937052" xlink:href="#m889d20d811" y="156.279009"/>
     <use style="stroke:#000000;" x="71.959338" xlink:href="#m889d20d811" y="156.270744"/>
     <use style="stroke:#000000;" x="71.981624" xlink:href="#m889d20d811" y="156.26091"/>
     <use style="stroke:#000000;" x="72.025593" xlink:href="#m889d20d811" y="156.236849"/>
     <use style="stroke:#000000;" x="72.070768" xlink:href="#m889d20d811" y="156.207242"/>
     <use style="stroke:#000000;" x="72.115942" xlink:href="#m889d20d811" y="156.172091"/>
     <use style="stroke:#000000;" x="72.161116" xlink:href="#m889d20d811" y="156.13171"/>
     <use style="stroke:#000000;" x="72.20629" xlink:href="#m889d20d811" y="156.086202"/>
     <use style="stroke:#000000;" x="72.251465" xlink:href="#m889d20d811" y="156.035672"/>
     <use style="stroke:#000000;" x="72.296639" xlink:href="#m889d20d811" y="155.980435"/>
     <use style="stroke:#000000;" x="72.341813" xlink:href="#m889d20d811" y="155.920491"/>
     <use style="stroke:#000000;" x="72.386987" xlink:href="#m889d20d811" y="155.855943"/>
     <use style="stroke:#000000;" x="72.432162" xlink:href="#m889d20d811" y="155.787105"/>
     <use style="stroke:#000000;" x="72.474324" xlink:href="#m889d20d811" y="155.714084"/>
     <use style="stroke:#000000;" x="72.519499" xlink:href="#m889d20d811" y="155.636877"/>
     <use style="stroke:#000000;" x="72.564673" xlink:href="#m889d20d811" y="155.555695"/>
     <use style="stroke:#000000;" x="72.609847" xlink:href="#m889d20d811" y="155.470747"/>
     <use style="stroke:#000000;" x="72.655021" xlink:href="#m889d20d811" y="155.382033"/>
     <use style="stroke:#000000;" x="72.700196" xlink:href="#m889d20d811" y="155.289762"/>
     <use style="stroke:#000000;" x="72.74537" xlink:href="#m889d20d811" y="155.194039"/>
     <use style="stroke:#000000;" x="72.790544" xlink:href="#m889d20d811" y="155.094863"/>
     <use style="stroke:#000000;" x="72.835718" xlink:href="#m889d20d811" y="154.992549"/>
     <use style="stroke:#000000;" x="72.880893" xlink:href="#m889d20d811" y="154.886992"/>
     <use style="stroke:#000000;" x="72.923055" xlink:href="#m889d20d811" y="154.778505"/>
     <use style="stroke:#000000;" x="72.968229" xlink:href="#m889d20d811" y="154.667089"/>
     <use style="stroke:#000000;" x="73.013404" xlink:href="#m889d20d811" y="154.552849"/>
     <use style="stroke:#000000;" x="73.058578" xlink:href="#m889d20d811" y="154.435784"/>
     <use style="stroke:#000000;" x="73.103752" xlink:href="#m889d20d811" y="154.316208"/>
     <use style="stroke:#000000;" x="73.148926" xlink:href="#m889d20d811" y="154.194017"/>
     <use style="stroke:#000000;" x="73.218194" xlink:href="#m889d20d811" y="154.005081"/>
     <use style="stroke:#000000;" x="73.284449" xlink:href="#m889d20d811" y="153.810809"/>
     <use style="stroke:#000000;" x="73.350705" xlink:href="#m889d20d811" y="153.611621"/>
     <use style="stroke:#000000;" x="73.419972" xlink:href="#m889d20d811" y="153.407725"/>
     <use style="stroke:#000000;" x="73.486227" xlink:href="#m889d20d811" y="153.19933"/>
     <use style="stroke:#000000;" x="73.555495" xlink:href="#m889d20d811" y="152.986751"/>
     <use style="stroke:#000000;" x="73.62175" xlink:href="#m889d20d811" y="152.770197"/>
     <use style="stroke:#000000;" x="73.691017" xlink:href="#m889d20d811" y="152.549876"/>
     <use style="stroke:#000000;" x="73.757273" xlink:href="#m889d20d811" y="152.326103"/>
     <use style="stroke:#000000;" x="73.82654" xlink:href="#m889d20d811" y="152.099087"/>
     <use style="stroke:#000000;" x="73.892796" xlink:href="#m889d20d811" y="151.868932"/>
     <use style="stroke:#000000;" x="73.962063" xlink:href="#m889d20d811" y="151.635848"/>
     <use style="stroke:#000000;" x="74.028318" xlink:href="#m889d20d811" y="151.400149"/>
     <use style="stroke:#000000;" x="74.097586" xlink:href="#m889d20d811" y="151.161834"/>
     <use style="stroke:#000000;" x="74.163841" xlink:href="#m889d20d811" y="150.921218"/>
     <use style="stroke:#000000;" x="74.233108" xlink:href="#m889d20d811" y="150.678405"/>
     <use style="stroke:#000000;" x="74.299364" xlink:href="#m889d20d811" y="150.433499"/>
     <use style="stroke:#000000;" x="74.368631" xlink:href="#m889d20d811" y="150.186815"/>
     <use style="stroke:#000000;" x="74.434887" xlink:href="#m889d20d811" y="149.938248"/>
     <use style="stroke:#000000;" x="74.504154" xlink:href="#m889d20d811" y="149.688217"/>
     <use style="stroke:#000000;" x="74.570409" xlink:href="#m889d20d811" y="149.436616"/>
     <use style="stroke:#000000;" x="74.639677" xlink:href="#m889d20d811" y="149.18376"/>
     <use style="stroke:#000000;" x="74.705932" xlink:href="#m889d20d811" y="148.929648"/>
     <use style="stroke:#000000;" x="74.766164" xlink:href="#m889d20d811" y="148.674386"/>
     <use style="stroke:#000000;" x="74.856513" xlink:href="#m889d20d811" y="148.418077"/>
     <use style="stroke:#000000;" x="74.916745" xlink:href="#m889d20d811" y="148.161036"/>
     <use style="stroke:#000000;" x="74.976978" xlink:href="#m889d20d811" y="147.903054"/>
     <use style="stroke:#000000;" x="75.03721" xlink:href="#m889d20d811" y="147.644444"/>
     <use style="stroke:#000000;" x="75.127558" xlink:href="#m889d20d811" y="147.385206"/>
     <use style="stroke:#000000;" x="75.187791" xlink:href="#m889d20d811" y="147.125445"/>
     <use style="stroke:#000000;" x="75.248023" xlink:href="#m889d20d811" y="146.865265"/>
     <use style="stroke:#000000;" x="75.308255" xlink:href="#m889d20d811" y="146.604772"/>
     <use style="stroke:#000000;" x="75.398604" xlink:href="#m889d20d811" y="146.343965"/>
     <use style="stroke:#000000;" x="75.458836" xlink:href="#m889d20d811" y="146.082949"/>
     <use style="stroke:#000000;" x="75.519069" xlink:href="#m889d20d811" y="145.821723"/>
     <use style="stroke:#000000;" x="75.579301" xlink:href="#m889d20d811" y="145.560498"/>
     <use style="stroke:#000000;" x="75.669649" xlink:href="#m889d20d811" y="145.299272"/>
     <use style="stroke:#000000;" x="75.729882" xlink:href="#m889d20d811" y="145.038151"/>
     <use style="stroke:#000000;" x="75.790114" xlink:href="#m889d20d811" y="144.777135"/>
     <use style="stroke:#000000;" x="75.880462" xlink:href="#m889d20d811" y="144.385663"/>
     <use style="stroke:#000000;" x="76.000927" xlink:href="#m889d20d811" y="143.994819"/>
     <use style="stroke:#000000;" x="76.091276" xlink:href="#m889d20d811" y="143.604602"/>
     <use style="stroke:#000000;" x="76.21174" xlink:href="#m889d20d811" y="143.215431"/>
     <use style="stroke:#000000;" x="76.302089" xlink:href="#m889d20d811" y="142.827098"/>
     <use style="stroke:#000000;" x="76.392437" xlink:href="#m889d20d811" y="142.440019"/>
     <use style="stroke:#000000;" x="76.512902" xlink:href="#m889d20d811" y="142.054197"/>
     <use style="stroke:#000000;" x="76.60325" xlink:href="#m889d20d811" y="141.669838"/>
     <use style="stroke:#000000;" x="76.693599" xlink:href="#m889d20d811" y="141.286945"/>
     <use style="stroke:#000000;" x="76.814064" xlink:href="#m889d20d811" y="140.90562"/>
     <use style="stroke:#000000;" x="76.904412" xlink:href="#m889d20d811" y="140.52597"/>
     <use style="stroke:#000000;" x="77.024877" xlink:href="#m889d20d811" y="140.148098"/>
     <use style="stroke:#000000;" x="77.115225" xlink:href="#m889d20d811" y="139.772109"/>
     <use style="stroke:#000000;" x="77.205574" xlink:href="#m889d20d811" y="139.398107"/>
     <use style="stroke:#000000;" x="77.326038" xlink:href="#m889d20d811" y="139.025989"/>
     <use style="stroke:#000000;" x="77.416387" xlink:href="#m889d20d811" y="138.656068"/>
     <use style="stroke:#000000;" x="77.506735" xlink:href="#m889d20d811" y="138.288134"/>
     <use style="stroke:#000000;" x="77.6272" xlink:href="#m889d20d811" y="137.922398"/>
     <use style="stroke:#000000;" x="77.717549" xlink:href="#m889d20d811" y="137.558858"/>
     <use style="stroke:#000000;" x="77.838013" xlink:href="#m889d20d811" y="137.19762"/>
     <use style="stroke:#000000;" x="77.928362" xlink:href="#m889d20d811" y="136.838683"/>
     <use style="stroke:#000000;" x="78.01871" xlink:href="#m889d20d811" y="136.482153"/>
     <use style="stroke:#000000;" x="78.139175" xlink:href="#m889d20d811" y="136.127819"/>
     <use style="stroke:#000000;" x="78.229523" xlink:href="#m889d20d811" y="135.775997"/>
     <use style="stroke:#000000;" x="78.319872" xlink:href="#m889d20d811" y="135.426685"/>
     <use style="stroke:#000000;" x="78.440336" xlink:href="#m889d20d811" y="135.079779"/>
     <use style="stroke:#000000;" x="78.530685" xlink:href="#m889d20d811" y="134.735593"/>
     <use style="stroke:#000000;" x="78.65115" xlink:href="#m889d20d811" y="134.393499"/>
     <use style="stroke:#000000;" x="78.741498" xlink:href="#m889d20d811" y="134.053498"/>
     <use style="stroke:#000000;" x="78.831847" xlink:href="#m889d20d811" y="133.716636"/>
     <use style="stroke:#000000;" x="78.952311" xlink:href="#m889d20d811" y="133.382911"/>
     <use style="stroke:#000000;" x="79.04266" xlink:href="#m889d20d811" y="133.051279"/>
     <use style="stroke:#000000;" x="79.133008" xlink:href="#m889d20d811" y="132.72174"/>
     <use style="stroke:#000000;" x="79.253473" xlink:href="#m889d20d811" y="132.395339"/>
     <use style="stroke:#000000;" x="79.343821" xlink:href="#m889d20d811" y="132.07103"/>
     <use style="stroke:#000000;" x="79.464286" xlink:href="#m889d20d811" y="131.74986"/>
     <use style="stroke:#000000;" x="79.554635" xlink:href="#m889d20d811" y="131.430782"/>
     <use style="stroke:#000000;" x="79.644983" xlink:href="#m889d20d811" y="131.114842"/>
     <use style="stroke:#000000;" x="79.795564" xlink:href="#m889d20d811" y="130.641979"/>
     <use style="stroke:#000000;" x="79.946145" xlink:href="#m889d20d811" y="130.174346"/>
     <use style="stroke:#000000;" x="80.126842" xlink:href="#m889d20d811" y="129.714037"/>
     <use style="stroke:#000000;" x="80.277422" xlink:href="#m889d20d811" y="129.258959"/>
     <use style="stroke:#000000;" x="80.428003" xlink:href="#m889d20d811" y="128.810157"/>
     <use style="stroke:#000000;" x="80.578584" xlink:href="#m889d20d811" y="128.366586"/>
     <use style="stroke:#000000;" x="80.729165" xlink:href="#m889d20d811" y="127.930339"/>
     <use style="stroke:#000000;" x="80.879746" xlink:href="#m889d20d811" y="127.498276"/>
     <use style="stroke:#000000;" x="81.030327" xlink:href="#m889d20d811" y="127.073536"/>
     <use style="stroke:#000000;" x="81.180907" xlink:href="#m889d20d811" y="126.654027"/>
     <use style="stroke:#000000;" x="81.331488" xlink:href="#m889d20d811" y="126.240794"/>
     <use style="stroke:#000000;" x="81.482069" xlink:href="#m889d20d811" y="125.832793"/>
     <use style="stroke:#000000;" x="81.662766" xlink:href="#m889d20d811" y="125.431069"/>
     <use style="stroke:#000000;" x="81.813347" xlink:href="#m889d20d811" y="125.034575"/>
     <use style="stroke:#000000;" x="81.963928" xlink:href="#m889d20d811" y="124.644358"/>
     <use style="stroke:#000000;" x="82.114509" xlink:href="#m889d20d811" y="124.259372"/>
     <use style="stroke:#000000;" x="82.265089" xlink:href="#m889d20d811" y="123.879617"/>
     <use style="stroke:#000000;" x="82.41567" xlink:href="#m889d20d811" y="123.506139"/>
     <use style="stroke:#000000;" x="82.566251" xlink:href="#m889d20d811" y="123.138938"/>
     <use style="stroke:#000000;" x="82.716832" xlink:href="#m889d20d811" y="122.775921"/>
     <use style="stroke:#000000;" x="82.867413" xlink:href="#m889d20d811" y="122.419181"/>
     <use style="stroke:#000000;" x="83.017993" xlink:href="#m889d20d811" y="122.067672"/>
     <use style="stroke:#000000;" x="83.19869" xlink:href="#m889d20d811" y="121.721394"/>
     <use style="stroke:#000000;" x="83.349271" xlink:href="#m889d20d811" y="121.381393"/>
     <use style="stroke:#000000;" x="83.499852" xlink:href="#m889d20d811" y="121.045577"/>
     <use style="stroke:#000000;" x="83.650433" xlink:href="#m889d20d811" y="120.716037"/>
     <use style="stroke:#000000;" x="83.801014" xlink:href="#m889d20d811" y="120.390682"/>
     <use style="stroke:#000000;" x="84.041943" xlink:href="#m889d20d811" y="119.908403"/>
     <use style="stroke:#000000;" x="84.252756" xlink:href="#m889d20d811" y="119.436586"/>
     <use style="stroke:#000000;" x="84.493685" xlink:href="#m889d20d811" y="118.977323"/>
     <use style="stroke:#000000;" x="84.734615" xlink:href="#m889d20d811" y="118.529568"/>
     <use style="stroke:#000000;" x="84.975544" xlink:href="#m889d20d811" y="118.09332"/>
     <use style="stroke:#000000;" x="85.186357" xlink:href="#m889d20d811" y="117.667534"/>
     <use style="stroke:#000000;" x="85.427287" xlink:href="#m889d20d811" y="117.253256"/>
     <use style="stroke:#000000;" x="85.668216" xlink:href="#m889d20d811" y="116.850485"/>
     <use style="stroke:#000000;" x="85.909145" xlink:href="#m889d20d811" y="116.458176"/>
     <use style="stroke:#000000;" x="86.119958" xlink:href="#m889d20d811" y="116.076329"/>
     <use style="stroke:#000000;" x="86.360888" xlink:href="#m889d20d811" y="115.704943"/>
     <use style="stroke:#000000;" x="86.601817" xlink:href="#m889d20d811" y="115.344018"/>
     <use style="stroke:#000000;" x="86.842746" xlink:href="#m889d20d811" y="114.99251"/>
     <use style="stroke:#000000;" x="87.053559" xlink:href="#m889d20d811" y="114.651462"/>
     <use style="stroke:#000000;" x="87.294489" xlink:href="#m889d20d811" y="114.320876"/>
     <use style="stroke:#000000;" x="87.535418" xlink:href="#m889d20d811" y="113.99866"/>
     <use style="stroke:#000000;" x="87.776347" xlink:href="#m889d20d811" y="113.686905"/>
     <use style="stroke:#000000;" x="87.987161" xlink:href="#m889d20d811" y="113.384566"/>
     <use style="stroke:#000000;" x="88.22809" xlink:href="#m889d20d811" y="113.091641"/>
     <use style="stroke:#000000;" x="88.589484" xlink:href="#m889d20d811" y="112.658532"/>
     <use style="stroke:#000000;" x="88.950878" xlink:href="#m889d20d811" y="112.2453"/>
     <use style="stroke:#000000;" x="89.312272" xlink:href="#m889d20d811" y="111.854037"/>
     <use style="stroke:#000000;" x="89.673666" xlink:href="#m889d20d811" y="111.481605"/>
     <use style="stroke:#000000;" x="90.03506" xlink:href="#m889d20d811" y="111.12905"/>
     <use style="stroke:#000000;" x="90.396454" xlink:href="#m889d20d811" y="110.795326"/>
     <use style="stroke:#000000;" x="90.727732" xlink:href="#m889d20d811" y="110.479386"/>
     <use style="stroke:#000000;" x="91.089125" xlink:href="#m889d20d811" y="110.182278"/>
     <use style="stroke:#000000;" x="91.450519" xlink:href="#m889d20d811" y="109.901907"/>
     <use style="stroke:#000000;" x="91.811913" xlink:href="#m889d20d811" y="109.639322"/>
     <use style="stroke:#000000;" x="92.173307" xlink:href="#m889d20d811" y="109.392429"/>
     <use style="stroke:#000000;" x="92.534701" xlink:href="#m889d20d811" y="109.162274"/>
     <use style="stroke:#000000;" x="92.896095" xlink:href="#m889d20d811" y="108.947812"/>
     <use style="stroke:#000000;" x="93.257489" xlink:href="#m889d20d811" y="108.747996"/>
     <use style="stroke:#000000;" x="93.618883" xlink:href="#m889d20d811" y="108.562826"/>
     <use style="stroke:#000000;" x="93.980277" xlink:href="#m889d20d811" y="108.392302"/>
     <use style="stroke:#000000;" x="94.341671" xlink:href="#m889d20d811" y="108.235379"/>
     <use style="stroke:#000000;" x="94.703065" xlink:href="#m889d20d811" y="108.092055"/>
     <use style="stroke:#000000;" x="95.034343" xlink:href="#m889d20d811" y="107.962332"/>
     <use style="stroke:#000000;" x="95.395737" xlink:href="#m889d20d811" y="107.845162"/>
     <use style="stroke:#000000;" x="95.757131" xlink:href="#m889d20d811" y="107.7395"/>
     <use style="stroke:#000000;" x="96.118525" xlink:href="#m889d20d811" y="107.646392"/>
     <use style="stroke:#000000;" x="96.479919" xlink:href="#m889d20d811" y="107.565838"/>
     <use style="stroke:#000000;" x="96.841313" xlink:href="#m889d20d811" y="107.495745"/>
     <use style="stroke:#000000;" x="97.202707" xlink:href="#m889d20d811" y="107.436114"/>
     <use style="stroke:#000000;" x="97.564101" xlink:href="#m889d20d811" y="107.387991"/>
     <use style="stroke:#000000;" x="97.925495" xlink:href="#m889d20d811" y="107.349283"/>
     <use style="stroke:#000000;" x="98.286889" xlink:href="#m889d20d811" y="107.321037"/>
     <use style="stroke:#000000;" x="98.648283" xlink:href="#m889d20d811" y="107.302206"/>
     <use style="stroke:#000000;" x="98.979561" xlink:href="#m889d20d811" y="107.292791"/>
     <use style="stroke:#000000;" x="99.340955" xlink:href="#m889d20d811" y="107.292791"/>
     <use style="stroke:#000000;" x="99.702348" xlink:href="#m889d20d811" y="107.30116"/>
     <use style="stroke:#000000;" x="100.063742" xlink:href="#m889d20d811" y="107.317899"/>
     <use style="stroke:#000000;" x="100.425136" xlink:href="#m889d20d811" y="107.343006"/>
     <use style="stroke:#000000;" x="100.967227" xlink:href="#m889d20d811" y="107.39636"/>
     <use style="stroke:#000000;" x="101.509318" xlink:href="#m889d20d811" y="107.465407"/>
     <use style="stroke:#000000;" x="102.141758" xlink:href="#m889d20d811" y="107.552238"/>
     <use style="stroke:#000000;" x="102.442919" xlink:href="#m889d20d811" y="107.653715"/>
     <use style="stroke:#000000;" x="103.045243" xlink:href="#m889d20d811" y="107.769839"/>
     <use style="stroke:#000000;" x="103.647566" xlink:href="#m889d20d811" y="107.899562"/>
     <use style="stroke:#000000;" x="104.249889" xlink:href="#m889d20d811" y="108.042886"/>
     <use style="stroke:#000000;" x="104.852213" xlink:href="#m889d20d811" y="108.199809"/>
     <use style="stroke:#000000;" x="105.153374" xlink:href="#m889d20d811" y="108.367194"/>
     <use style="stroke:#000000;" x="105.755698" xlink:href="#m889d20d811" y="108.547134"/>
     <use style="stroke:#000000;" x="106.358021" xlink:href="#m889d20d811" y="108.737534"/>
     <use style="stroke:#000000;" x="106.960344" xlink:href="#m889d20d811" y="108.938396"/>
     <use style="stroke:#000000;" x="107.562667" xlink:href="#m889d20d811" y="109.148674"/>
     <use style="stroke:#000000;" x="107.863829" xlink:href="#m889d20d811" y="109.368367"/>
     <use style="stroke:#000000;" x="108.466152" xlink:href="#m889d20d811" y="109.596429"/>
     <use style="stroke:#000000;" x="109.369637" xlink:href="#m889d20d811" y="109.961538"/>
     <use style="stroke:#000000;" x="110.273122" xlink:href="#m889d20d811" y="110.344432"/>
     <use style="stroke:#000000;" x="110.875445" xlink:href="#m889d20d811" y="110.743018"/>
     <use style="stroke:#000000;" x="111.77893" xlink:href="#m889d20d811" y="111.157296"/>
     <use style="stroke:#000000;" x="112.682415" xlink:href="#m889d20d811" y="111.585175"/>
     <use style="stroke:#000000;" x="113.5859" xlink:href="#m889d20d811" y="112.025607"/>
     <use style="stroke:#000000;" x="114.188224" xlink:href="#m889d20d811" y="112.477547"/>
     <use style="stroke:#000000;" x="115.091708" xlink:href="#m889d20d811" y="112.939949"/>
     <use style="stroke:#000000;" x="115.995193" xlink:href="#m889d20d811" y="113.411766"/>
     <use style="stroke:#000000;" x="116.597517" xlink:href="#m889d20d811" y="113.892998"/>
     <use style="stroke:#000000;" x="117.501002" xlink:href="#m889d20d811" y="114.381554"/>
     <use style="stroke:#000000;" x="118.404487" xlink:href="#m889d20d811" y="114.876386"/>
     <use style="stroke:#000000;" x="119.307971" xlink:href="#m889d20d811" y="115.378542"/>
     <use style="stroke:#000000;" x="119.910295" xlink:href="#m889d20d811" y="115.885928"/>
     <use style="stroke:#000000;" x="120.81378" xlink:href="#m889d20d811" y="116.398545"/>
     <use style="stroke:#000000;" x="121.717265" xlink:href="#m889d20d811" y="116.916393"/>
     <use style="stroke:#000000;" x="122.62075" xlink:href="#m889d20d811" y="117.43738"/>
     <use style="stroke:#000000;" x="123.223073" xlink:href="#m889d20d811" y="117.962551"/>
     <use style="stroke:#000000;" x="124.126558" xlink:href="#m889d20d811" y="118.49086"/>
     <use style="stroke:#000000;" x="125.030043" xlink:href="#m889d20d811" y="119.021262"/>
     <use style="stroke:#000000;" x="125.632366" xlink:href="#m889d20d811" y="119.553756"/>
     <use style="stroke:#000000;" x="126.535851" xlink:href="#m889d20d811" y="120.089389"/>
     <use style="stroke:#000000;" x="127.439336" xlink:href="#m889d20d811" y="120.626067"/>
     <use style="stroke:#000000;" x="128.342821" xlink:href="#m889d20d811" y="121.163792"/>
     <use style="stroke:#000000;" x="128.945144" xlink:href="#m889d20d811" y="121.702563"/>
     <use style="stroke:#000000;" x="129.848629" xlink:href="#m889d20d811" y="122.241335"/>
     <use style="stroke:#000000;" x="130.752114" xlink:href="#m889d20d811" y="122.782198"/>
     <use style="stroke:#000000;" x="131.655599" xlink:href="#m889d20d811" y="123.322015"/>
     <use style="stroke:#000000;" x="132.257922" xlink:href="#m889d20d811" y="123.862879"/>
     <use style="stroke:#000000;" x="133.161407" xlink:href="#m889d20d811" y="124.402696"/>
     <use style="stroke:#000000;" x="134.064892" xlink:href="#m889d20d811" y="124.942513"/>
     <use style="stroke:#000000;" x="134.968377" xlink:href="#m889d20d811" y="125.48233"/>
     <use style="stroke:#000000;" x="135.5707" xlink:href="#m889d20d811" y="126.021101"/>
     <use style="stroke:#000000;" x="136.474185" xlink:href="#m889d20d811" y="126.559872"/>
     <use style="stroke:#000000;" x="137.37767" xlink:href="#m889d20d811" y="127.096551"/>
     <use style="stroke:#000000;" x="137.979993" xlink:href="#m889d20d811" y="127.632184"/>
     <use style="stroke:#000000;" x="138.883478" xlink:href="#m889d20d811" y="128.167816"/>
     <use style="stroke:#000000;" x="139.786963" xlink:href="#m889d20d811" y="128.701357"/>
     <use style="stroke:#000000;" x="140.690448" xlink:href="#m889d20d811" y="129.233851"/>
     <use style="stroke:#000000;" x="141.292771" xlink:href="#m889d20d811" y="129.764253"/>
     <use style="stroke:#000000;" x="142.196256" xlink:href="#m889d20d811" y="130.293608"/>
     <use style="stroke:#000000;" x="143.400903" xlink:href="#m889d20d811" y="131.087642"/>
     <use style="stroke:#000000;" x="144.60555" xlink:href="#m889d20d811" y="131.876445"/>
     <use style="stroke:#000000;" x="145.810196" xlink:href="#m889d20d811" y="132.662109"/>
     <use style="stroke:#000000;" x="147.316004" xlink:href="#m889d20d811" y="133.443588"/>
     <use style="stroke:#000000;" x="148.520651" xlink:href="#m889d20d811" y="134.219837"/>
     <use style="stroke:#000000;" x="149.725297" xlink:href="#m889d20d811" y="134.991902"/>
     <use style="stroke:#000000;" x="150.929944" xlink:href="#m889d20d811" y="135.75999"/>
     <use style="stroke:#000000;" x="152.134591" xlink:href="#m889d20d811" y="136.522953"/>
     <use style="stroke:#000000;" x="153.339237" xlink:href="#m889d20d811" y="137.280999"/>
     <use style="stroke:#000000;" x="154.543884" xlink:href="#m889d20d811" y="138.034232"/>
     <use style="stroke:#000000;" x="155.74853" xlink:href="#m889d20d811" y="138.782444"/>
     <use style="stroke:#000000;" x="156.953177" xlink:href="#m889d20d811" y="139.525739"/>
     <use style="stroke:#000000;" x="158.458985" xlink:href="#m889d20d811" y="140.263907"/>
     <use style="stroke:#000000;" x="159.663632" xlink:href="#m889d20d811" y="140.99695"/>
     <use style="stroke:#000000;" x="160.868278" xlink:href="#m889d20d811" y="141.724971"/>
     <use style="stroke:#000000;" x="162.072925" xlink:href="#m889d20d811" y="142.447866"/>
     <use style="stroke:#000000;" x="163.277571" xlink:href="#m889d20d811" y="143.165634"/>
     <use style="stroke:#000000;" x="164.482218" xlink:href="#m889d20d811" y="143.878172"/>
     <use style="stroke:#000000;" x="165.686865" xlink:href="#m889d20d811" y="144.585584"/>
     <use style="stroke:#000000;" x="166.891511" xlink:href="#m889d20d811" y="145.287869"/>
     <use style="stroke:#000000;" x="168.096158" xlink:href="#m889d20d811" y="145.985029"/>
     <use style="stroke:#000000;" x="169.300804" xlink:href="#m889d20d811" y="146.677062"/>
     <use style="stroke:#000000;" x="170.806612" xlink:href="#m889d20d811" y="147.363969"/>
     <use style="stroke:#000000;" x="171.925428" xlink:href="#m889d20d811" y="148.04575"/>
     <use style="stroke:#000000;" x="173.162901" xlink:href="#m889d20d811" y="148.722404"/>
     <use style="stroke:#000000;" x="175.039439" xlink:href="#m889d20d811" y="149.73906"/>
     <use style="stroke:#000000;" x="176.915978" xlink:href="#m889d20d811" y="150.743999"/>
     <use style="stroke:#000000;" x="178.792817" xlink:href="#m889d20d811" y="151.737535"/>
     <use style="stroke:#000000;" x="180.669355" xlink:href="#m889d20d811" y="152.719667"/>
     <use style="stroke:#000000;" x="182.545893" xlink:href="#m889d20d811" y="153.690501"/>
     <use style="stroke:#000000;" x="184.422733" xlink:href="#m889d20d811" y="154.650037"/>
     <use style="stroke:#000000;" x="186.299271" xlink:href="#m889d20d811" y="155.598483"/>
     <use style="stroke:#000000;" x="188.175809" xlink:href="#m889d20d811" y="156.53605"/>
     <use style="stroke:#000000;" x="190.052648" xlink:href="#m889d20d811" y="157.462631"/>
     <use style="stroke:#000000;" x="191.929187" xlink:href="#m889d20d811" y="158.378437"/>
     <use style="stroke:#000000;" x="193.805725" xlink:href="#m889d20d811" y="159.283677"/>
     <use style="stroke:#000000;" x="195.682564" xlink:href="#m889d20d811" y="160.178247"/>
     <use style="stroke:#000000;" x="197.559102" xlink:href="#m889d20d811" y="161.062564"/>
     <use style="stroke:#000000;" x="199.435641" xlink:href="#m889d20d811" y="161.936419"/>
     <use style="stroke:#000000;" x="201.312179" xlink:href="#m889d20d811" y="162.800231"/>
     <use style="stroke:#000000;" x="203.189018" xlink:href="#m889d20d811" y="163.653896"/>
     <use style="stroke:#000000;" x="205.065556" xlink:href="#m889d20d811" y="164.497622"/>
     <use style="stroke:#000000;" x="206.942095" xlink:href="#m889d20d811" y="165.331618"/>
     <use style="stroke:#000000;" x="208.818934" xlink:href="#m889d20d811" y="166.155781"/>
     <use style="stroke:#000000;" x="210.695472" xlink:href="#m889d20d811" y="166.970424"/>
     <use style="stroke:#000000;" x="212.57201" xlink:href="#m889d20d811" y="167.775547"/>
     <use style="stroke:#000000;" x="214.44885" xlink:href="#m889d20d811" y="168.571359"/>
     <use style="stroke:#000000;" x="217.287901" xlink:href="#m889d20d811" y="169.757701"/>
     <use style="stroke:#000000;" x="220.126951" xlink:href="#m889d20d811" y="170.92333"/>
     <use style="stroke:#000000;" x="222.966303" xlink:href="#m889d20d811" y="172.068558"/>
     <use style="stroke:#000000;" x="225.805354" xlink:href="#m889d20d811" y="173.193701"/>
     <use style="stroke:#000000;" x="228.644706" xlink:href="#m889d20d811" y="174.299175"/>
     <use style="stroke:#000000;" x="231.483757" xlink:href="#m889d20d811" y="175.385296"/>
     <use style="stroke:#000000;" x="234.322808" xlink:href="#m889d20d811" y="176.452586"/>
     <use style="stroke:#000000;" x="237.16216" xlink:href="#m889d20d811" y="177.501254"/>
     <use style="stroke:#000000;" x="240.001211" xlink:href="#m889d20d811" y="178.531615"/>
     <use style="stroke:#000000;" x="242.840261" xlink:href="#m889d20d811" y="179.544086"/>
     <use style="stroke:#000000;" x="245.679613" xlink:href="#m889d20d811" y="180.538981"/>
     <use style="stroke:#000000;" x="248.518664" xlink:href="#m889d20d811" y="181.516616"/>
     <use style="stroke:#000000;" x="252.803893" xlink:href="#m889d20d811" y="182.960208"/>
     <use style="stroke:#000000;" x="257.089122" xlink:href="#m889d20d811" y="184.366244"/>
     <use style="stroke:#000000;" x="261.374351" xlink:href="#m889d20d811" y="185.735873"/>
     <use style="stroke:#000000;" x="265.65958" xlink:href="#m889d20d811" y="187.069933"/>
     <use style="stroke:#000000;" x="269.944809" xlink:href="#m889d20d811" y="188.36947"/>
     <use style="stroke:#000000;" x="274.230038" xlink:href="#m889d20d811" y="189.635425"/>
     <use style="stroke:#000000;" x="278.515267" xlink:href="#m889d20d811" y="190.868845"/>
     <use style="stroke:#000000;" x="282.800496" xlink:href="#m889d20d811" y="192.070461"/>
     <use style="stroke:#000000;" x="287.085725" xlink:href="#m889d20d811" y="193.241216"/>
     <use style="stroke:#000000;" x="291.370954" xlink:href="#m889d20d811" y="194.381841"/>
     <use style="stroke:#000000;" x="295.656183" xlink:href="#m889d20d811" y="195.493279"/>
     <use style="stroke:#000000;" x="299.941412" xlink:href="#m889d20d811" y="196.576366"/>
     <use style="stroke:#000000;" x="304.226641" xlink:href="#m889d20d811" y="197.63173"/>
     <use style="stroke:#000000;" x="308.51187" xlink:href="#m889d20d811" y="198.660207"/>
     <use style="stroke:#000000;" x="312.797099" xlink:href="#m889d20d811" y="199.662426"/>
     <use style="stroke:#000000;" x="317.082329" xlink:href="#m889d20d811" y="200.639223"/>
     <use style="stroke:#000000;" x="321.367558" xlink:href="#m889d20d811" y="201.591226"/>
     <use style="stroke:#000000;" x="325.652787" xlink:href="#m889d20d811" y="202.519063"/>
     <use style="stroke:#000000;" x="329.938016" xlink:href="#m889d20d811" y="203.423466"/>
     <use style="stroke:#000000;" x="334.223245" xlink:href="#m889d20d811" y="204.304959"/>
     <use style="stroke:#000000;" x="338.508474" xlink:href="#m889d20d811" y="205.164168"/>
     <use style="stroke:#000000;" x="342.793703" xlink:href="#m889d20d811" y="206.001721"/>
     <use style="stroke:#000000;" x="347.078932" xlink:href="#m889d20d811" y="206.818247"/>
     <use style="stroke:#000000;" x="350.216133" xlink:href="#m889d20d811" y="207.402945"/>
     <use style="stroke:#000000;" x="353.353333" xlink:href="#m889d20d811" y="207.976867"/>
     <use style="stroke:#000000;" x="356.490534" xlink:href="#m889d20d811" y="208.540222"/>
     <use style="stroke:#000000;" x="359.628036" xlink:href="#m889d20d811" y="209.093221"/>
     <use style="stroke:#000000;" x="361.91837" xlink:href="#m889d20d811" y="209.490552"/>
     <use style="stroke:#000000;" x="364.208705" xlink:href="#m889d20d811" y="209.882442"/>
     <use style="stroke:#000000;" x="366.49934" xlink:href="#m889d20d811" y="210.269102"/>
     <use style="stroke:#000000;" x="368.789675" xlink:href="#m889d20d811" y="210.650636"/>
     <use style="stroke:#000000;" x="371.08031" xlink:href="#m889d20d811" y="211.026939"/>
     <use style="stroke:#000000;" x="373.370945" xlink:href="#m889d20d811" y="211.39822"/>
    </g>
   </g>
   <g id="line2d_17">
    <path clip-path="url(#p383bd10ef6)" d="M 71.724432 156.281112 
L 72.043158 156.266202 
L 72.382188 156.024967 
L 72.831213 155.412037 
L 73.445778 154.157584 
L 74.388908 151.616382 
L 76.065583 146.278496 
L 78.844914 137.512485 
L 80.577658 132.754027 
L 82.310402 128.647548 
L 83.886087 125.459681 
L 85.541694 122.627206 
L 87.197301 120.274921 
L 88.616393 118.603272 
L 90.036916 117.217471 
L 91.457439 116.092118 
L 92.877962 115.202112 
L 94.298485 114.524416 
L 96.085608 113.941036 
L 97.7009 113.642575 
L 99.316193 113.535335 
L 101.469915 113.651194 
L 103.362793 113.963394 
L 105.810843 114.612155 
L 108.258892 115.490042 
L 111.522957 116.943267 
L 114.787023 118.644395 
L 118.867105 121.021321 
L 124.57922 124.650643 
L 133.154743 130.418482 
L 150.393996 142.057262 
L 160.244998 148.393187 
L 169.328825 153.948617 
L 177.864001 158.902188 
L 185.175875 162.939549 
L 194.023092 167.574904 
L 202.87031 171.945394 
L 211.717527 176.062052 
L 220.564745 179.936806 
L 229.411962 183.581858 
L 239.002815 187.287892 
L 248.169134 190.604818 
L 257.297511 193.702233 
L 266.252226 196.55285 
L 278.191847 200.083065 
L 290.131468 203.326235 
L 302.071088 206.305078 
L 314.010709 209.040714 
L 325.95033 211.55273 
L 337.88995 213.859246 
L 349.829571 215.976998 
L 364.754097 218.38213 
L 373.561201 219.685561 
L 373.561201 219.685561 
" style="fill:none;stroke:#0000ff;stroke-linecap:square;stroke-width:1.5;"/>
   </g>
   <g id="line2d_18">
    <path clip-path="url(#p383bd10ef6)" d="M 71.724432 156.281112 
L 72.051176 156.31553 
L 72.382456 156.157869 
L 72.789605 155.72969 
L 73.319796 154.841842 
L 74.062064 153.101381 
L 75.122446 149.921519 
L 76.876717 143.812429 
L 79.596468 134.464681 
L 81.196322 129.713498 
L 82.63619 126.047732 
L 84.081502 122.952064 
L 85.529536 120.403946 
L 86.97757 118.361065 
L 88.184265 117.006141 
L 89.39096 115.934528 
L 90.597655 115.117325 
L 91.686811 114.575865 
L 93.14737 114.109387 
L 94.607928 113.904597 
L 96.068487 113.92675 
L 97.529046 114.145327 
L 98.989604 114.533583 
L 101.21428 115.399087 
L 103.438956 116.534715 
L 106.219801 118.248342 
L 109.556815 120.622177 
L 113.732754 123.918612 
L 119.58343 128.873876 
L 139.642892 146.151674 
L 147.103407 152.183153 
L 153.52986 157.127782 
L 160.384287 162.135802 
L 167.238715 166.869974 
L 174.093142 171.336699 
L 181.548064 175.902332 
L 188.692779 180.005031 
L 194.637581 183.224911 
L 200.444071 186.207981 
L 208.45079 190.072494 
L 216.45751 193.665277 
L 224.46423 197.004172 
L 232.47095 200.10617 
L 240.477669 202.987354 
L 250.579156 206.330732 
L 259.944645 209.162796 
L 269.449436 211.795685 
L 278.954228 214.205581 
L 288.45902 216.411098 
L 299.547943 218.748661 
L 310.636867 220.856125 
L 321.72579 222.755958 
L 334.398846 224.69891 
L 347.9689 226.538842 
L 361.291247 228.131099 
L 376.088068 229.681042 
L 376.088068 229.681042 
" style="fill:none;stroke:#ff0000;stroke-linecap:square;stroke-width:1.5;"/>
   </g>
   <g id="line2d_19">
    <path clip-path="url(#p383bd10ef6)" d="M 71.724432 71.845296 
L 72.20629 72.034206 
L 72.74537 72.004343 
L 73.284449 71.745598 
L 73.892796 71.200556 
L 74.639677 70.194673 
L 75.519069 68.604711 
L 76.693599 65.967737 
L 78.530685 61.189129 
L 82.41567 50.96451 
L 84.252756 46.742203 
L 86.119958 43.02066 
L 87.776347 40.222604 
L 89.312272 38.045066 
L 90.727732 36.380082 
L 92.173307 34.999008 
L 93.618883 33.921746 
L 95.034343 33.139239 
L 96.479919 32.599731 
L 97.925495 32.294558 
L 99.340955 32.201761 
L 100.967227 32.331178 
L 102.442919 32.642694 
L 104.249889 33.245817 
L 106.358021 34.220485 
L 108.466152 35.439434 
L 110.875445 37.087093 
L 114.188224 39.708442 
L 117.501002 42.6431 
L 121.717265 46.697873 
L 127.439336 52.555751 
L 138.883478 64.72057 
L 149.725297 76.106172 
L 156.953177 83.427913 
L 164.482218 90.766225 
L 171.925428 97.707976 
L 178.792817 103.832304 
L 186.299271 110.220804 
L 193.805725 116.302724 
L 201.312179 122.083592 
L 208.818934 127.580889 
L 217.287901 133.456396 
L 225.805354 139.035582 
L 234.322808 144.304991 
L 242.840261 149.278845 
L 248.518664 152.437897 
L 257.089122 156.981278 
L 265.65958 161.272875 
L 274.230038 165.328309 
L 282.800496 169.158572 
L 291.370954 172.780433 
L 299.941412 176.204297 
L 308.51187 179.442656 
L 317.082329 182.506013 
L 329.938016 186.789534 
L 342.793703 190.734434 
L 353.353333 193.743521 
L 366.49934 197.216493 
L 373.370945 198.920718 
L 373.370945 198.920718 
" style="fill:none;stroke:#0000ff;stroke-dasharray:5.55,2.4;stroke-dashoffset:0;stroke-width:1.5;"/>
   </g>
   <g id="line2d_20">
    <path clip-path="url(#p383bd10ef6)" d="M 71.724432 198.26725 
L 72.025593 198.222995 
L 72.386987 197.955812 
L 72.880893 197.282981 
L 73.555495 195.940046 
L 74.570409 193.351003 
L 79.644983 179.602949 
L 81.180907 176.356013 
L 82.716832 173.599519 
L 84.252756 171.284077 
L 85.909145 169.219207 
L 87.535418 167.570304 
L 88.950878 166.399311 
L 90.727732 165.231949 
L 92.534701 164.342134 
L 94.341671 163.70893 
L 96.118525 163.299421 
L 98.286889 163.043851 
L 100.425136 163.012021 
L 103.045243 163.219766 
L 105.755698 163.659972 
L 108.466152 164.286778 
L 111.77893 165.244588 
L 116.597517 166.909433 
L 122.62075 169.277817 
L 131.655599 173.117475 
L 153.339237 182.418396 
L 164.482218 186.913048 
L 175.039439 190.922542 
L 184.422733 194.274253 
L 195.682564 198.036624 
L 206.942095 201.5235 
L 217.287901 204.49516 
L 228.644706 207.514805 
L 240.001211 210.296131 
L 252.803893 213.162162 
L 265.65958 215.777666 
L 278.515267 218.148496 
L 291.370954 220.294854 
L 304.226641 222.237691 
L 317.082329 223.993258 
L 334.223245 226.071679 
L 350.216133 227.771461 
L 368.789675 229.489475 
L 373.370945 229.874489 
L 373.370945 229.874489 
" style="fill:none;stroke:#0000ff;stroke-dasharray:5.55,2.4;stroke-dashoffset:0;stroke-width:1.5;"/>
   </g>
   <g id="line2d_21"/>
   <g id="line2d_22"/>
   <g id="line2d_23"/>
   <g id="line2d_24"/>
   <g id="line2d_25"/>
   <g id="line2d_26"/>
   <g id="patch_3">
    <path d="M 56.50625 239.758125 
L 56.50625 22.318125 
" style="fill:none;stroke:#000000;stroke-linecap:square;stroke-linejoin:miter;stroke-width:0.8;"/>
   </g>
   <g id="patch_4">
    <path d="M 391.30625 239.758125 
L 391.30625 22.318125 
" style="fill:none;stroke:#000000;stroke-linecap:square;stroke-linejoin:miter;stroke-width:0.8;"/>
   </g>
   <g id="patch_5">
    <path d="M 56.50625 239.758125 
L 391.30625 239.758125 
" style="fill:none;stroke:#000000;stroke-linecap:square;stroke-linejoin:miter;stroke-width:0.8;"/>
   </g>
   <g id="patch_6">
    <path d="M 56.50625 22.318125 
L 391.30625 22.318125 
" style="fill:none;stroke:#000000;stroke-linecap:square;stroke-linejoin:miter;stroke-width:0.8;"/>
   </g>
   <g id="text_18">
    <!-- Experiment_13 -->
    <defs>
     <path d="M 9.8125 72.90625 
L 55.90625 72.90625 
L 55.90625 64.59375 
L 19.671875 64.59375 
L 19.671875 43.015625 
L 54.390625 43.015625 
L 54.390625 34.71875 
L 19.671875 34.71875 
L 19.671875 8.296875 
L 56.78125 8.296875 
L 56.78125 0 
L 9.8125 0 
z
" id="DejaVuSans-45"/>
     <path d="M 54.890625 54.6875 
L 35.109375 28.078125 
L 55.90625 0 
L 45.3125 0 
L 29.390625 21.484375 
L 13.484375 0 
L 2.875 0 
L 24.125 28.609375 
L 4.6875 54.6875 
L 15.28125 54.6875 
L 29.78125 35.203125 
L 44.28125 54.6875 
z
" id="DejaVuSans-78"/>
     <path d="M 18.109375 8.203125 
L 18.109375 -20.796875 
L 9.078125 -20.796875 
L 9.078125 54.6875 
L 18.109375 54.6875 
L 18.109375 46.390625 
Q 20.953125 51.265625 25.265625 53.625 
Q 29.59375 56 35.59375 56 
Q 45.5625 56 51.78125 48.09375 
Q 58.015625 40.1875 58.015625 27.296875 
Q 58.015625 14.40625 51.78125 6.484375 
Q 45.5625 -1.421875 35.59375 -1.421875 
Q 29.59375 -1.421875 25.265625 0.953125 
Q 20.953125 3.328125 18.109375 8.203125 
z
M 48.6875 27.296875 
Q 48.6875 37.203125 44.609375 42.84375 
Q 40.53125 48.484375 33.40625 48.484375 
Q 26.265625 48.484375 22.1875 42.84375 
Q 18.109375 37.203125 18.109375 27.296875 
Q 18.109375 17.390625 22.1875 11.75 
Q 26.265625 6.109375 33.40625 6.109375 
Q 40.53125 6.109375 44.609375 11.75 
Q 48.6875 17.390625 48.6875 27.296875 
z
" id="DejaVuSans-70"/>
     <path d="M 18.3125 70.21875 
L 18.3125 54.6875 
L 36.8125 54.6875 
L 36.8125 47.703125 
L 18.3125 47.703125 
L 18.3125 18.015625 
Q 18.3125 11.328125 20.140625 9.421875 
Q 21.96875 7.515625 27.59375 7.515625 
L 36.8125 7.515625 
L 36.8125 0 
L 27.59375 0 
Q 17.1875 0 13.234375 3.875 
Q 9.28125 7.765625 9.28125 18.015625 
L 9.28125 47.703125 
L 2.6875 47.703125 
L 2.6875 54.6875 
L 9.28125 54.6875 
L 9.28125 70.21875 
z
" id="DejaVuSans-74"/>
     <path d="M 50.984375 -16.609375 
L 50.984375 -23.578125 
L -0.984375 -23.578125 
L -0.984375 -16.609375 
z
" id="DejaVuSans-5f"/>
     <path d="M 40.578125 39.3125 
Q 47.65625 37.796875 51.625 33 
Q 55.609375 28.21875 55.609375 21.1875 
Q 55.609375 10.40625 48.1875 4.484375 
Q 40.765625 -1.421875 27.09375 -1.421875 
Q 22.515625 -1.421875 17.65625 -0.515625 
Q 12.796875 0.390625 7.625 2.203125 
L 7.625 11.71875 
Q 11.71875 9.328125 16.59375 8.109375 
Q 21.484375 6.890625 26.8125 6.890625 
Q 36.078125 6.890625 40.9375 10.546875 
Q 45.796875 14.203125 45.796875 21.1875 
Q 45.796875 27.640625 41.28125 31.265625 
Q 36.765625 34.90625 28.71875 34.90625 
L 20.21875 34.90625 
L 20.21875 43.015625 
L 29.109375 43.015625 
Q 36.375 43.015625 40.234375 45.921875 
Q 44.09375 48.828125 44.09375 54.296875 
Q 44.09375 59.90625 40.109375 62.90625 
Q 36.140625 65.921875 28.71875 65.921875 
Q 24.65625 65.921875 20.015625 65.03125 
Q 15.375 64.15625 9.8125 62.3125 
L 9.8125 71.09375 
Q 15.4375 72.65625 20.34375 73.4375 
Q 25.25 74.21875 29.59375 74.21875 
Q 40.828125 74.21875 47.359375 69.109375 
Q 53.90625 64.015625 53.90625 55.328125 
Q 53.90625 49.265625 50.4375 45.09375 
Q 46.96875 40.921875 40.578125 39.3125 
z
" id="DejaVuSans-33"/>
    </defs>
    <g transform="translate(178.603437 16.318125)scale(0.12 -0.12)">
     <use xlink:href="#DejaVuSans-45"/>
     <use x="63.183594" xlink:href="#DejaVuSans-78"/>
     <use x="122.363281" xlink:href="#DejaVuSans-70"/>
     <use x="185.839844" xlink:href="#DejaVuSans-65"/>
     <use x="247.363281" xlink:href="#DejaVuSans-72"/>
     <use x="288.476562" xlink:href="#DejaVuSans-69"/>
     <use x="316.259766" xlink:href="#DejaVuSans-6d"/>
     <use x="413.671875" xlink:href="#DejaVuSans-65"/>
     <use x="475.195312" xlink:href="#DejaVuSans-6e"/>
     <use x="538.574219" xlink:href="#DejaVuSans-74"/>
     <use x="577.783203" xlink:href="#DejaVuSans-5f"/>
     <use x="627.783203" xlink:href="#DejaVuSans-31"/>
     <use x="691.40625" xlink:href="#DejaVuSans-33"/>
    </g>
   </g>
   <g id="legend_1">
    <g id="patch_7">
     <path d="M 128.185937 103.730625 
L 384.30625 103.730625 
Q 386.30625 103.730625 386.30625 101.730625 
L 386.30625 29.318125 
Q 386.30625 27.318125 384.30625 27.318125 
L 128.185937 27.318125 
Q 126.185937 27.318125 126.185937 29.318125 
L 126.185937 101.730625 
Q 126.185937 103.730625 128.185937 103.730625 
z
" style="fill:#ffffff;opacity:0.8;stroke:#cccccc;stroke-linejoin:miter;"/>
    </g>
    <g id="line2d_27"/>
    <g id="line2d_28">
     <g>
      <use style="stroke:#000000;" x="140.185937" xlink:href="#m889d20d811" y="35.416562"/>
     </g>
    </g>
    <g id="text_19">
     <!-- Experimental Data -->
     <defs>
      <path d="M 9.421875 75.984375 
L 18.40625 75.984375 
L 18.40625 0 
L 9.421875 0 
z
" id="DejaVuSans-6c"/>
      <path d="M 19.671875 64.796875 
L 19.671875 8.109375 
L 31.59375 8.109375 
Q 46.6875 8.109375 53.6875 14.9375 
Q 60.6875 21.78125 60.6875 36.53125 
Q 60.6875 51.171875 53.6875 57.984375 
Q 46.6875 64.796875 31.59375 64.796875 
z
M 9.8125 72.90625 
L 30.078125 72.90625 
Q 51.265625 72.90625 61.171875 64.09375 
Q 71.09375 55.28125 71.09375 36.53125 
Q 71.09375 17.671875 61.125 8.828125 
Q 51.171875 0 30.078125 0 
L 9.8125 0 
z
" id="DejaVuSans-44"/>
     </defs>
     <g transform="translate(158.185937 38.916562)scale(0.1 -0.1)">
      <use xlink:href="#DejaVuSans-45"/>
      <use x="63.183594" xlink:href="#DejaVuSans-78"/>
      <use x="122.363281" xlink:href="#DejaVuSans-70"/>
      <use x="185.839844" xlink:href="#DejaVuSans-65"/>
      <use x="247.363281" xlink:href="#DejaVuSans-72"/>
      <use x="288.476562" xlink:href="#DejaVuSans-69"/>
      <use x="316.259766" xlink:href="#DejaVuSans-6d"/>
      <use x="413.671875" xlink:href="#DejaVuSans-65"/>
      <use x="475.195312" xlink:href="#DejaVuSans-6e"/>
      <use x="538.574219" xlink:href="#DejaVuSans-74"/>
      <use x="577.783203" xlink:href="#DejaVuSans-61"/>
      <use x="639.0625" xlink:href="#DejaVuSans-6c"/>
      <use x="666.845703" xlink:href="#DejaVuSans-20"/>
      <use x="698.632812" xlink:href="#DejaVuSans-44"/>
      <use x="775.634766" xlink:href="#DejaVuSans-61"/>
      <use x="836.914062" xlink:href="#DejaVuSans-74"/>
      <use x="876.123047" xlink:href="#DejaVuSans-61"/>
     </g>
    </g>
    <g id="line2d_29">
     <path d="M 130.185937 50.094687 
L 150.185937 50.094687 
" style="fill:none;stroke:#0000ff;stroke-linecap:square;stroke-width:1.5;"/>
    </g>
    <g id="line2d_30"/>
    <g id="text_20">
     <!-- MSI -->
     <defs>
      <path d="M 9.8125 72.90625 
L 24.515625 72.90625 
L 43.109375 23.296875 
L 61.8125 72.90625 
L 76.515625 72.90625 
L 76.515625 0 
L 66.890625 0 
L 66.890625 64.015625 
L 48.09375 14.015625 
L 38.1875 14.015625 
L 19.390625 64.015625 
L 19.390625 0 
L 9.8125 0 
z
" id="DejaVuSans-4d"/>
      <path d="M 53.515625 70.515625 
L 53.515625 60.890625 
Q 47.90625 63.578125 42.921875 64.890625 
Q 37.9375 66.21875 33.296875 66.21875 
Q 25.25 66.21875 20.875 63.09375 
Q 16.5 59.96875 16.5 54.203125 
Q 16.5 49.359375 19.40625 46.890625 
Q 22.3125 44.4375 30.421875 42.921875 
L 36.375 41.703125 
Q 47.40625 39.59375 52.65625 34.296875 
Q 57.90625 29 57.90625 20.125 
Q 57.90625 9.515625 50.796875 4.046875 
Q 43.703125 -1.421875 29.984375 -1.421875 
Q 24.8125 -1.421875 18.96875 -0.25 
Q 13.140625 0.921875 6.890625 3.21875 
L 6.890625 13.375 
Q 12.890625 10.015625 18.65625 8.296875 
Q 24.421875 6.59375 29.984375 6.59375 
Q 38.421875 6.59375 43.015625 9.90625 
Q 47.609375 13.234375 47.609375 19.390625 
Q 47.609375 24.75 44.3125 27.78125 
Q 41.015625 30.8125 33.5 32.328125 
L 27.484375 33.5 
Q 16.453125 35.6875 11.515625 40.375 
Q 6.59375 45.0625 6.59375 53.421875 
Q 6.59375 63.09375 13.40625 68.65625 
Q 20.21875 74.21875 32.171875 74.21875 
Q 37.3125 74.21875 42.625 73.28125 
Q 47.953125 72.359375 53.515625 70.515625 
z
" id="DejaVuSans-53"/>
      <path d="M 9.8125 72.90625 
L 19.671875 72.90625 
L 19.671875 0 
L 9.8125 0 
z
" id="DejaVuSans-49"/>
     </defs>
     <g transform="translate(158.185937 53.594687)scale(0.1 -0.1)">
      <use xlink:href="#DejaVuSans-4d"/>
      <use x="86.279297" xlink:href="#DejaVuSans-53"/>
      <use x="149.755859" xlink:href="#DejaVuSans-49"/>
     </g>
    </g>
    <g id="line2d_31">
     <path d="M 130.185937 64.774375 
L 150.185937 64.774375 
" style="fill:none;stroke:#ff0000;stroke-linecap:square;stroke-width:1.5;"/>
    </g>
    <g id="line2d_32"/>
    <g id="text_21">
     <!-- $\it{A priori}$ model -->
     <defs>
      <path d="M 36.8125 72.90625 
L 48 72.90625 
L 61.53125 0 
L 51.21875 0 
L 48.1875 18.703125 
L 15.375 18.703125 
L 5.078125 0 
L -5.328125 0 
z
M 40.375 63.1875 
L 19.921875 26.90625 
L 46.6875 26.90625 
z
" id="DejaVuSans-Oblique-41"/>
      <path d="M 49.609375 33.6875 
Q 49.609375 40.875 46.484375 44.671875 
Q 43.359375 48.484375 37.5 48.484375 
Q 33.5 48.484375 29.859375 46.4375 
Q 26.21875 44.390625 23.390625 40.484375 
Q 20.609375 36.625 18.9375 31.15625 
Q 17.28125 25.6875 17.28125 20.3125 
Q 17.28125 13.484375 20.40625 9.796875 
Q 23.53125 6.109375 29.296875 6.109375 
Q 33.546875 6.109375 37.1875 8.109375 
Q 40.828125 10.109375 43.40625 13.921875 
Q 46.1875 17.921875 47.890625 23.34375 
Q 49.609375 28.765625 49.609375 33.6875 
z
M 21.78125 46.390625 
Q 25.390625 51.125 30.296875 53.5625 
Q 35.203125 56 41.21875 56 
Q 49.609375 56 54.25 50.5 
Q 58.890625 45.015625 58.890625 35.109375 
Q 58.890625 27 56 19.65625 
Q 53.125 12.3125 47.703125 6.5 
Q 44.09375 2.640625 39.546875 0.609375 
Q 35.015625 -1.421875 29.984375 -1.421875 
Q 24.171875 -1.421875 20.21875 1 
Q 16.265625 3.421875 14.3125 8.203125 
L 8.6875 -20.796875 
L -0.296875 -20.796875 
L 14.40625 54.6875 
L 23.390625 54.6875 
z
" id="DejaVuSans-Oblique-70"/>
      <path d="M 44.578125 46.390625 
Q 43.21875 47.125 41.453125 47.515625 
Q 39.703125 47.90625 37.703125 47.90625 
Q 30.515625 47.90625 25.140625 42.453125 
Q 19.78125 37.015625 18.015625 27.875 
L 12.5 0 
L 3.515625 0 
L 14.203125 54.6875 
L 23.1875 54.6875 
L 21.484375 46.1875 
Q 25.046875 50.921875 30 53.453125 
Q 34.96875 56 40.578125 56 
Q 42.046875 56 43.453125 55.828125 
Q 44.875 55.671875 46.296875 55.28125 
z
" id="DejaVuSans-Oblique-72"/>
      <path d="M 18.3125 75.984375 
L 27.296875 75.984375 
L 25.09375 64.59375 
L 16.109375 64.59375 
z
M 14.203125 54.6875 
L 23.1875 54.6875 
L 12.5 0 
L 3.515625 0 
z
" id="DejaVuSans-Oblique-69"/>
      <path d="M 25.390625 -1.421875 
Q 15.765625 -1.421875 10.171875 4.515625 
Q 4.59375 10.453125 4.59375 20.703125 
Q 4.59375 26.65625 6.515625 32.828125 
Q 8.453125 39.015625 11.53125 43.21875 
Q 16.359375 49.75 22.3125 52.875 
Q 28.265625 56 35.796875 56 
Q 45.125 56 50.859375 50.1875 
Q 56.59375 44.390625 56.59375 35.015625 
Q 56.59375 28.515625 54.6875 22.0625 
Q 52.78125 15.625 49.703125 11.375 
Q 44.921875 4.828125 38.96875 1.703125 
Q 33.015625 -1.421875 25.390625 -1.421875 
z
M 13.921875 21 
Q 13.921875 13.578125 17.015625 9.890625 
Q 20.125 6.203125 26.421875 6.203125 
Q 35.453125 6.203125 41.375 14.078125 
Q 47.3125 21.96875 47.3125 34.078125 
Q 47.3125 41.15625 44.140625 44.765625 
Q 40.96875 48.390625 34.8125 48.390625 
Q 29.734375 48.390625 25.78125 46.015625 
Q 21.828125 43.65625 18.703125 38.8125 
Q 16.40625 35.203125 15.15625 30.5625 
Q 13.921875 25.921875 13.921875 21 
z
" id="DejaVuSans-Oblique-6f"/>
      <path d="M 45.40625 46.390625 
L 45.40625 75.984375 
L 54.390625 75.984375 
L 54.390625 0 
L 45.40625 0 
L 45.40625 8.203125 
Q 42.578125 3.328125 38.25 0.953125 
Q 33.9375 -1.421875 27.875 -1.421875 
Q 17.96875 -1.421875 11.734375 6.484375 
Q 5.515625 14.40625 5.515625 27.296875 
Q 5.515625 40.1875 11.734375 48.09375 
Q 17.96875 56 27.875 56 
Q 33.9375 56 38.25 53.625 
Q 42.578125 51.265625 45.40625 46.390625 
z
M 14.796875 27.296875 
Q 14.796875 17.390625 18.875 11.75 
Q 22.953125 6.109375 30.078125 6.109375 
Q 37.203125 6.109375 41.296875 11.75 
Q 45.40625 17.390625 45.40625 27.296875 
Q 45.40625 37.203125 41.296875 42.84375 
Q 37.203125 48.484375 30.078125 48.484375 
Q 22.953125 48.484375 18.875 42.84375 
Q 14.796875 37.203125 14.796875 27.296875 
z
" id="DejaVuSans-64"/>
     </defs>
     <g transform="translate(158.185937 68.274375)scale(0.1 -0.1)">
      <use transform="translate(0 0.015625)" xlink:href="#DejaVuSans-Oblique-41"/>
      <use transform="translate(68.408203 0.015625)" xlink:href="#DejaVuSans-Oblique-70"/>
      <use transform="translate(131.884766 0.015625)" xlink:href="#DejaVuSans-Oblique-72"/>
      <use transform="translate(172.998047 0.015625)" xlink:href="#DejaVuSans-Oblique-69"/>
      <use transform="translate(200.78125 0.015625)" xlink:href="#DejaVuSans-Oblique-6f"/>
      <use transform="translate(261.962891 0.015625)" xlink:href="#DejaVuSans-Oblique-72"/>
      <use transform="translate(303.076172 0.015625)" xlink:href="#DejaVuSans-Oblique-69"/>
      <use transform="translate(330.859375 0.015625)" xlink:href="#DejaVuSans-20"/>
      <use transform="translate(362.646484 0.015625)" xlink:href="#DejaVuSans-6d"/>
      <use transform="translate(460.058594 0.015625)" xlink:href="#DejaVuSans-6f"/>
      <use transform="translate(521.240234 0.015625)" xlink:href="#DejaVuSans-64"/>
      <use transform="translate(584.716797 0.015625)" xlink:href="#DejaVuSans-65"/>
      <use transform="translate(646.240234 0.015625)" xlink:href="#DejaVuSans-6c"/>
     </g>
    </g>
    <g id="line2d_33">
     <path d="M 130.185937 79.472813 
L 150.185937 79.472813 
" style="fill:none;stroke:#ffffff;stroke-linecap:square;stroke-width:1.5;"/>
    </g>
    <g id="line2d_34"/>
    <g id="text_22">
     <!-- T:1138 -->
     <defs>
      <path d="M 11.71875 12.40625 
L 22.015625 12.40625 
L 22.015625 0 
L 11.71875 0 
z
M 11.71875 51.703125 
L 22.015625 51.703125 
L 22.015625 39.3125 
L 11.71875 39.3125 
z
" id="DejaVuSans-3a"/>
     </defs>
     <g transform="translate(158.185937 82.972813)scale(0.1 -0.1)">
      <use xlink:href="#DejaVuSans-54"/>
      <use x="60.912109" xlink:href="#DejaVuSans-3a"/>
      <use x="94.603516" xlink:href="#DejaVuSans-31"/>
      <use x="158.226562" xlink:href="#DejaVuSans-31"/>
      <use x="221.849609" xlink:href="#DejaVuSans-33"/>
      <use x="285.472656" xlink:href="#DejaVuSans-38"/>
     </g>
    </g>
    <g id="line2d_35">
     <path d="M 130.185937 94.150937 
L 150.185937 94.150937 
" style="fill:none;stroke:#ffffff;stroke-linecap:square;stroke-width:1.5;"/>
    </g>
    <g id="line2d_36"/>
    <g id="text_23">
     <!-- P:1.676 -->
     <defs>
      <path d="M 19.671875 64.796875 
L 19.671875 37.40625 
L 32.078125 37.40625 
Q 38.96875 37.40625 42.71875 40.96875 
Q 46.484375 44.53125 46.484375 51.125 
Q 46.484375 57.671875 42.71875 61.234375 
Q 38.96875 64.796875 32.078125 64.796875 
z
M 9.8125 72.90625 
L 32.078125 72.90625 
Q 44.34375 72.90625 50.609375 67.359375 
Q 56.890625 61.8125 56.890625 51.125 
Q 56.890625 40.328125 50.609375 34.8125 
Q 44.34375 29.296875 32.078125 29.296875 
L 19.671875 29.296875 
L 19.671875 0 
L 9.8125 0 
z
" id="DejaVuSans-50"/>
     </defs>
     <g transform="translate(158.185937 97.650937)scale(0.1 -0.1)">
      <use xlink:href="#DejaVuSans-50"/>
      <use x="60.302734" xlink:href="#DejaVuSans-3a"/>
      <use x="93.994141" xlink:href="#DejaVuSans-31"/>
      <use x="157.617188" xlink:href="#DejaVuSans-2e"/>
      <use x="189.404297" xlink:href="#DejaVuSans-36"/>
      <use x="253.027344" xlink:href="#DejaVuSans-37"/>
      <use x="316.650391" xlink:href="#DejaVuSans-36"/>
     </g>
    </g>
    <g id="line2d_37">
     <path d="M 271.926563 35.416562 
L 291.926563 35.416562 
" style="fill:none;stroke:#ffffff;stroke-linecap:square;stroke-width:1.5;"/>
    </g>
    <g id="line2d_38"/>
    <g id="text_24">
     <!-- H2O2: 0.001977 -->
     <defs>
      <path d="M 9.8125 72.90625 
L 19.671875 72.90625 
L 19.671875 43.015625 
L 55.515625 43.015625 
L 55.515625 72.90625 
L 65.375 72.90625 
L 65.375 0 
L 55.515625 0 
L 55.515625 34.71875 
L 19.671875 34.71875 
L 19.671875 0 
L 9.8125 0 
z
" id="DejaVuSans-48"/>
      <path d="M 39.40625 66.21875 
Q 28.65625 66.21875 22.328125 58.203125 
Q 16.015625 50.203125 16.015625 36.375 
Q 16.015625 22.609375 22.328125 14.59375 
Q 28.65625 6.59375 39.40625 6.59375 
Q 50.140625 6.59375 56.421875 14.59375 
Q 62.703125 22.609375 62.703125 36.375 
Q 62.703125 50.203125 56.421875 58.203125 
Q 50.140625 66.21875 39.40625 66.21875 
z
M 39.40625 74.21875 
Q 54.734375 74.21875 63.90625 63.9375 
Q 73.09375 53.65625 73.09375 36.375 
Q 73.09375 19.140625 63.90625 8.859375 
Q 54.734375 -1.421875 39.40625 -1.421875 
Q 24.03125 -1.421875 14.8125 8.828125 
Q 5.609375 19.09375 5.609375 36.375 
Q 5.609375 53.65625 14.8125 63.9375 
Q 24.03125 74.21875 39.40625 74.21875 
z
" id="DejaVuSans-4f"/>
      <path d="M 10.984375 1.515625 
L 10.984375 10.5 
Q 14.703125 8.734375 18.5 7.8125 
Q 22.3125 6.890625 25.984375 6.890625 
Q 35.75 6.890625 40.890625 13.453125 
Q 46.046875 20.015625 46.78125 33.40625 
Q 43.953125 29.203125 39.59375 26.953125 
Q 35.25 24.703125 29.984375 24.703125 
Q 19.046875 24.703125 12.671875 31.3125 
Q 6.296875 37.9375 6.296875 49.421875 
Q 6.296875 60.640625 12.9375 67.421875 
Q 19.578125 74.21875 30.609375 74.21875 
Q 43.265625 74.21875 49.921875 64.515625 
Q 56.59375 54.828125 56.59375 36.375 
Q 56.59375 19.140625 48.40625 8.859375 
Q 40.234375 -1.421875 26.421875 -1.421875 
Q 22.703125 -1.421875 18.890625 -0.6875 
Q 15.09375 0.046875 10.984375 1.515625 
z
M 30.609375 32.421875 
Q 37.25 32.421875 41.125 36.953125 
Q 45.015625 41.5 45.015625 49.421875 
Q 45.015625 57.28125 41.125 61.84375 
Q 37.25 66.40625 30.609375 66.40625 
Q 23.96875 66.40625 20.09375 61.84375 
Q 16.21875 57.28125 16.21875 49.421875 
Q 16.21875 41.5 20.09375 36.953125 
Q 23.96875 32.421875 30.609375 32.421875 
z
" id="DejaVuSans-39"/>
     </defs>
     <g transform="translate(299.926563 38.916562)scale(0.1 -0.1)">
      <use xlink:href="#DejaVuSans-48"/>
      <use x="75.195312" xlink:href="#DejaVuSans-32"/>
      <use x="138.818359" xlink:href="#DejaVuSans-4f"/>
      <use x="217.529297" xlink:href="#DejaVuSans-32"/>
      <use x="281.152344" xlink:href="#DejaVuSans-3a"/>
      <use x="314.84375" xlink:href="#DejaVuSans-20"/>
      <use x="346.630859" xlink:href="#DejaVuSans-30"/>
      <use x="410.253906" xlink:href="#DejaVuSans-2e"/>
      <use x="442.041016" xlink:href="#DejaVuSans-30"/>
      <use x="505.664062" xlink:href="#DejaVuSans-30"/>
      <use x="569.287109" xlink:href="#DejaVuSans-31"/>
      <use x="632.910156" xlink:href="#DejaVuSans-39"/>
      <use x="696.533203" xlink:href="#DejaVuSans-37"/>
      <use x="760.15625" xlink:href="#DejaVuSans-37"/>
     </g>
    </g>
    <g id="line2d_39">
     <path d="M 271.926563 50.094687 
L 291.926563 50.094687 
" style="fill:none;stroke:#ffffff;stroke-linecap:square;stroke-width:1.5;"/>
    </g>
    <g id="line2d_40"/>
    <g id="text_25">
     <!-- H2O: 0.001113 -->
     <g transform="translate(299.926563 53.594687)scale(0.1 -0.1)">
      <use xlink:href="#DejaVuSans-48"/>
      <use x="75.195312" xlink:href="#DejaVuSans-32"/>
      <use x="138.818359" xlink:href="#DejaVuSans-4f"/>
      <use x="217.513672" xlink:href="#DejaVuSans-3a"/>
      <use x="251.205078" xlink:href="#DejaVuSans-20"/>
      <use x="282.992188" xlink:href="#DejaVuSans-30"/>
      <use x="346.615234" xlink:href="#DejaVuSans-2e"/>
      <use x="378.402344" xlink:href="#DejaVuSans-30"/>
      <use x="442.025391" xlink:href="#DejaVuSans-30"/>
      <use x="505.648438" xlink:href="#DejaVuSans-31"/>
      <use x="569.271484" xlink:href="#DejaVuSans-31"/>
      <use x="632.894531" xlink:href="#DejaVuSans-31"/>
      <use x="696.517578" xlink:href="#DejaVuSans-33"/>
     </g>
    </g>
    <g id="line2d_41">
     <path d="M 271.926563 64.772812 
L 291.926563 64.772812 
" style="fill:none;stroke:#ffffff;stroke-linecap:square;stroke-width:1.5;"/>
    </g>
    <g id="line2d_42"/>
    <g id="text_26">
     <!-- O2: 0.000556 -->
     <g transform="translate(299.926563 68.272812)scale(0.1 -0.1)">
      <use xlink:href="#DejaVuSans-4f"/>
      <use x="78.710938" xlink:href="#DejaVuSans-32"/>
      <use x="142.333984" xlink:href="#DejaVuSans-3a"/>
      <use x="176.025391" xlink:href="#DejaVuSans-20"/>
      <use x="207.8125" xlink:href="#DejaVuSans-30"/>
      <use x="271.435547" xlink:href="#DejaVuSans-2e"/>
      <use x="303.222656" xlink:href="#DejaVuSans-30"/>
      <use x="366.845703" xlink:href="#DejaVuSans-30"/>
      <use x="430.46875" xlink:href="#DejaVuSans-30"/>
      <use x="494.091797" xlink:href="#DejaVuSans-35"/>
      <use x="557.714844" xlink:href="#DejaVuSans-35"/>
      <use x="621.337891" xlink:href="#DejaVuSans-36"/>
     </g>
    </g>
    <g id="line2d_43">
     <path d="M 271.926563 79.450938 
L 291.926563 79.450938 
" style="fill:none;stroke:#ffffff;stroke-linecap:square;stroke-width:1.5;"/>
    </g>
    <g id="line2d_44"/>
    <g id="text_27">
     <!-- Ar: 0.996329 -->
     <g transform="translate(299.926563 82.950938)scale(0.1 -0.1)">
      <use xlink:href="#DejaVuSans-41"/>
      <use x="68.408203" xlink:href="#DejaVuSans-72"/>
      <use x="109.505859" xlink:href="#DejaVuSans-3a"/>
      <use x="143.197266" xlink:href="#DejaVuSans-20"/>
      <use x="174.984375" xlink:href="#DejaVuSans-30"/>
      <use x="238.607422" xlink:href="#DejaVuSans-2e"/>
      <use x="270.394531" xlink:href="#DejaVuSans-39"/>
      <use x="334.017578" xlink:href="#DejaVuSans-39"/>
      <use x="397.640625" xlink:href="#DejaVuSans-36"/>
      <use x="461.263672" xlink:href="#DejaVuSans-33"/>
      <use x="524.886719" xlink:href="#DejaVuSans-32"/>
      <use x="588.509766" xlink:href="#DejaVuSans-39"/>
     </g>
    </g>
   </g>
  </g>
 </g>
 <defs>
  <clipPath id="p383bd10ef6">
   <rect height="217.44" width="334.8" x="56.50625" y="22.318125"/>
  </clipPath>
 </defs>
</svg>
