<?xml version="1.0" encoding="utf-8" standalone="no"?>
<!DOCTYPE svg PUBLIC "-//W3C//DTD SVG 1.1//EN"
  "http://www.w3.org/Graphics/SVG/1.1/DTD/svg11.dtd">
<!-- Created with matplotlib (http://matplotlib.org/) -->
<svg height="277pt" version="1.1" viewBox="0 0 398 277" width="398pt" xmlns="http://www.w3.org/2000/svg" xmlns:xlink="http://www.w3.org/1999/xlink">
 <defs>
  <style type="text/css">
*{stroke-linecap:butt;stroke-linejoin:round;}
  </style>
 </defs>
 <g id="figure_1">
  <g id="patch_1">
   <path d="M 0 277.314375 
L 398.828125 277.314375 
L 398.828125 0 
L 0 0 
z
" style="fill:none;"/>
  </g>
  <g id="axes_1">
   <g id="patch_2">
    <path d="M 53.328125 239.758125 
L 388.128125 239.758125 
L 388.128125 22.318125 
L 53.328125 22.318125 
z
" style="fill:none;"/>
   </g>
   <g id="matplotlib.axis_1">
    <g id="xtick_1">
     <g id="line2d_1">
      <defs>
       <path d="M 0 0 
L 0 3.5 
" id="m80bc1d1026" style="stroke:#000000;stroke-width:0.8;"/>
      </defs>
      <g>
       <use style="stroke:#000000;stroke-width:0.8;" x="68.546307" xlink:href="#m80bc1d1026" y="239.758125"/>
      </g>
     </g>
     <g id="text_1">
      <!-- 0.0 -->
      <defs>
       <path d="M 31.78125 66.40625 
Q 24.171875 66.40625 20.328125 58.90625 
Q 16.5 51.421875 16.5 36.375 
Q 16.5 21.390625 20.328125 13.890625 
Q 24.171875 6.390625 31.78125 6.390625 
Q 39.453125 6.390625 43.28125 13.890625 
Q 47.125 21.390625 47.125 36.375 
Q 47.125 51.421875 43.28125 58.90625 
Q 39.453125 66.40625 31.78125 66.40625 
z
M 31.78125 74.21875 
Q 44.046875 74.21875 50.515625 64.515625 
Q 56.984375 54.828125 56.984375 36.375 
Q 56.984375 17.96875 50.515625 8.265625 
Q 44.046875 -1.421875 31.78125 -1.421875 
Q 19.53125 -1.421875 13.0625 8.265625 
Q 6.59375 17.96875 6.59375 36.375 
Q 6.59375 54.828125 13.0625 64.515625 
Q 19.53125 74.21875 31.78125 74.21875 
z
" id="DejaVuSans-30"/>
       <path d="M 10.6875 12.40625 
L 21 12.40625 
L 21 0 
L 10.6875 0 
z
" id="DejaVuSans-2e"/>
      </defs>
      <g transform="translate(60.594744 254.356562)scale(0.1 -0.1)">
       <use xlink:href="#DejaVuSans-30"/>
       <use x="63.623047" xlink:href="#DejaVuSans-2e"/>
       <use x="95.410156" xlink:href="#DejaVuSans-30"/>
      </g>
     </g>
    </g>
    <g id="xtick_2">
     <g id="line2d_2">
      <g>
       <use style="stroke:#000000;stroke-width:0.8;" x="129.012073" xlink:href="#m80bc1d1026" y="239.758125"/>
      </g>
     </g>
     <g id="text_2">
      <!-- 0.2 -->
      <defs>
       <path d="M 19.1875 8.296875 
L 53.609375 8.296875 
L 53.609375 0 
L 7.328125 0 
L 7.328125 8.296875 
Q 12.9375 14.109375 22.625 23.890625 
Q 32.328125 33.6875 34.8125 36.53125 
Q 39.546875 41.84375 41.421875 45.53125 
Q 43.3125 49.21875 43.3125 52.78125 
Q 43.3125 58.59375 39.234375 62.25 
Q 35.15625 65.921875 28.609375 65.921875 
Q 23.96875 65.921875 18.8125 64.3125 
Q 13.671875 62.703125 7.8125 59.421875 
L 7.8125 69.390625 
Q 13.765625 71.78125 18.9375 73 
Q 24.125 74.21875 28.421875 74.21875 
Q 39.75 74.21875 46.484375 68.546875 
Q 53.21875 62.890625 53.21875 53.421875 
Q 53.21875 48.921875 51.53125 44.890625 
Q 49.859375 40.875 45.40625 35.40625 
Q 44.1875 33.984375 37.640625 27.21875 
Q 31.109375 20.453125 19.1875 8.296875 
z
" id="DejaVuSans-32"/>
      </defs>
      <g transform="translate(121.06051 254.356562)scale(0.1 -0.1)">
       <use xlink:href="#DejaVuSans-30"/>
       <use x="63.623047" xlink:href="#DejaVuSans-2e"/>
       <use x="95.410156" xlink:href="#DejaVuSans-32"/>
      </g>
     </g>
    </g>
    <g id="xtick_3">
     <g id="line2d_3">
      <g>
       <use style="stroke:#000000;stroke-width:0.8;" x="189.477839" xlink:href="#m80bc1d1026" y="239.758125"/>
      </g>
     </g>
     <g id="text_3">
      <!-- 0.4 -->
      <defs>
       <path d="M 37.796875 64.3125 
L 12.890625 25.390625 
L 37.796875 25.390625 
z
M 35.203125 72.90625 
L 47.609375 72.90625 
L 47.609375 25.390625 
L 58.015625 25.390625 
L 58.015625 17.1875 
L 47.609375 17.1875 
L 47.609375 0 
L 37.796875 0 
L 37.796875 17.1875 
L 4.890625 17.1875 
L 4.890625 26.703125 
z
" id="DejaVuSans-34"/>
      </defs>
      <g transform="translate(181.526276 254.356562)scale(0.1 -0.1)">
       <use xlink:href="#DejaVuSans-30"/>
       <use x="63.623047" xlink:href="#DejaVuSans-2e"/>
       <use x="95.410156" xlink:href="#DejaVuSans-34"/>
      </g>
     </g>
    </g>
    <g id="xtick_4">
     <g id="line2d_4">
      <g>
       <use style="stroke:#000000;stroke-width:0.8;" x="249.943605" xlink:href="#m80bc1d1026" y="239.758125"/>
      </g>
     </g>
     <g id="text_4">
      <!-- 0.6 -->
      <defs>
       <path d="M 33.015625 40.375 
Q 26.375 40.375 22.484375 35.828125 
Q 18.609375 31.296875 18.609375 23.390625 
Q 18.609375 15.53125 22.484375 10.953125 
Q 26.375 6.390625 33.015625 6.390625 
Q 39.65625 6.390625 43.53125 10.953125 
Q 47.40625 15.53125 47.40625 23.390625 
Q 47.40625 31.296875 43.53125 35.828125 
Q 39.65625 40.375 33.015625 40.375 
z
M 52.59375 71.296875 
L 52.59375 62.3125 
Q 48.875 64.0625 45.09375 64.984375 
Q 41.3125 65.921875 37.59375 65.921875 
Q 27.828125 65.921875 22.671875 59.328125 
Q 17.53125 52.734375 16.796875 39.40625 
Q 19.671875 43.65625 24.015625 45.921875 
Q 28.375 48.1875 33.59375 48.1875 
Q 44.578125 48.1875 50.953125 41.515625 
Q 57.328125 34.859375 57.328125 23.390625 
Q 57.328125 12.15625 50.6875 5.359375 
Q 44.046875 -1.421875 33.015625 -1.421875 
Q 20.359375 -1.421875 13.671875 8.265625 
Q 6.984375 17.96875 6.984375 36.375 
Q 6.984375 53.65625 15.1875 63.9375 
Q 23.390625 74.21875 37.203125 74.21875 
Q 40.921875 74.21875 44.703125 73.484375 
Q 48.484375 72.75 52.59375 71.296875 
z
" id="DejaVuSans-36"/>
      </defs>
      <g transform="translate(241.992042 254.356562)scale(0.1 -0.1)">
       <use xlink:href="#DejaVuSans-30"/>
       <use x="63.623047" xlink:href="#DejaVuSans-2e"/>
       <use x="95.410156" xlink:href="#DejaVuSans-36"/>
      </g>
     </g>
    </g>
    <g id="xtick_5">
     <g id="line2d_5">
      <g>
       <use style="stroke:#000000;stroke-width:0.8;" x="310.409371" xlink:href="#m80bc1d1026" y="239.758125"/>
      </g>
     </g>
     <g id="text_5">
      <!-- 0.8 -->
      <defs>
       <path d="M 31.78125 34.625 
Q 24.75 34.625 20.71875 30.859375 
Q 16.703125 27.09375 16.703125 20.515625 
Q 16.703125 13.921875 20.71875 10.15625 
Q 24.75 6.390625 31.78125 6.390625 
Q 38.8125 6.390625 42.859375 10.171875 
Q 46.921875 13.96875 46.921875 20.515625 
Q 46.921875 27.09375 42.890625 30.859375 
Q 38.875 34.625 31.78125 34.625 
z
M 21.921875 38.8125 
Q 15.578125 40.375 12.03125 44.71875 
Q 8.5 49.078125 8.5 55.328125 
Q 8.5 64.0625 14.71875 69.140625 
Q 20.953125 74.21875 31.78125 74.21875 
Q 42.671875 74.21875 48.875 69.140625 
Q 55.078125 64.0625 55.078125 55.328125 
Q 55.078125 49.078125 51.53125 44.71875 
Q 48 40.375 41.703125 38.8125 
Q 48.828125 37.15625 52.796875 32.3125 
Q 56.78125 27.484375 56.78125 20.515625 
Q 56.78125 9.90625 50.3125 4.234375 
Q 43.84375 -1.421875 31.78125 -1.421875 
Q 19.734375 -1.421875 13.25 4.234375 
Q 6.78125 9.90625 6.78125 20.515625 
Q 6.78125 27.484375 10.78125 32.3125 
Q 14.796875 37.15625 21.921875 38.8125 
z
M 18.3125 54.390625 
Q 18.3125 48.734375 21.84375 45.5625 
Q 25.390625 42.390625 31.78125 42.390625 
Q 38.140625 42.390625 41.71875 45.5625 
Q 45.3125 48.734375 45.3125 54.390625 
Q 45.3125 60.0625 41.71875 63.234375 
Q 38.140625 66.40625 31.78125 66.40625 
Q 25.390625 66.40625 21.84375 63.234375 
Q 18.3125 60.0625 18.3125 54.390625 
z
" id="DejaVuSans-38"/>
      </defs>
      <g transform="translate(302.457808 254.356562)scale(0.1 -0.1)">
       <use xlink:href="#DejaVuSans-30"/>
       <use x="63.623047" xlink:href="#DejaVuSans-2e"/>
       <use x="95.410156" xlink:href="#DejaVuSans-38"/>
      </g>
     </g>
    </g>
    <g id="xtick_6">
     <g id="line2d_6">
      <g>
       <use style="stroke:#000000;stroke-width:0.8;" x="370.875137" xlink:href="#m80bc1d1026" y="239.758125"/>
      </g>
     </g>
     <g id="text_6">
      <!-- 1.0 -->
      <defs>
       <path d="M 12.40625 8.296875 
L 28.515625 8.296875 
L 28.515625 63.921875 
L 10.984375 60.40625 
L 10.984375 69.390625 
L 28.421875 72.90625 
L 38.28125 72.90625 
L 38.28125 8.296875 
L 54.390625 8.296875 
L 54.390625 0 
L 12.40625 0 
z
" id="DejaVuSans-31"/>
      </defs>
      <g transform="translate(362.923574 254.356562)scale(0.1 -0.1)">
       <use xlink:href="#DejaVuSans-31"/>
       <use x="63.623047" xlink:href="#DejaVuSans-2e"/>
       <use x="95.410156" xlink:href="#DejaVuSans-30"/>
      </g>
     </g>
    </g>
    <g id="text_7">
     <!-- Time (ms) -->
     <defs>
      <path d="M -0.296875 72.90625 
L 61.375 72.90625 
L 61.375 64.59375 
L 35.5 64.59375 
L 35.5 0 
L 25.59375 0 
L 25.59375 64.59375 
L -0.296875 64.59375 
z
" id="DejaVuSans-54"/>
      <path d="M 9.421875 54.6875 
L 18.40625 54.6875 
L 18.40625 0 
L 9.421875 0 
z
M 9.421875 75.984375 
L 18.40625 75.984375 
L 18.40625 64.59375 
L 9.421875 64.59375 
z
" id="DejaVuSans-69"/>
      <path d="M 52 44.1875 
Q 55.375 50.25 60.0625 53.125 
Q 64.75 56 71.09375 56 
Q 79.640625 56 84.28125 50.015625 
Q 88.921875 44.046875 88.921875 33.015625 
L 88.921875 0 
L 79.890625 0 
L 79.890625 32.71875 
Q 79.890625 40.578125 77.09375 44.375 
Q 74.3125 48.1875 68.609375 48.1875 
Q 61.625 48.1875 57.5625 43.546875 
Q 53.515625 38.921875 53.515625 30.90625 
L 53.515625 0 
L 44.484375 0 
L 44.484375 32.71875 
Q 44.484375 40.625 41.703125 44.40625 
Q 38.921875 48.1875 33.109375 48.1875 
Q 26.21875 48.1875 22.15625 43.53125 
Q 18.109375 38.875 18.109375 30.90625 
L 18.109375 0 
L 9.078125 0 
L 9.078125 54.6875 
L 18.109375 54.6875 
L 18.109375 46.1875 
Q 21.1875 51.21875 25.484375 53.609375 
Q 29.78125 56 35.6875 56 
Q 41.65625 56 45.828125 52.96875 
Q 50 49.953125 52 44.1875 
z
" id="DejaVuSans-6d"/>
      <path d="M 56.203125 29.59375 
L 56.203125 25.203125 
L 14.890625 25.203125 
Q 15.484375 15.921875 20.484375 11.0625 
Q 25.484375 6.203125 34.421875 6.203125 
Q 39.59375 6.203125 44.453125 7.46875 
Q 49.3125 8.734375 54.109375 11.28125 
L 54.109375 2.78125 
Q 49.265625 0.734375 44.1875 -0.34375 
Q 39.109375 -1.421875 33.890625 -1.421875 
Q 20.796875 -1.421875 13.15625 6.1875 
Q 5.515625 13.8125 5.515625 26.8125 
Q 5.515625 40.234375 12.765625 48.109375 
Q 20.015625 56 32.328125 56 
Q 43.359375 56 49.78125 48.890625 
Q 56.203125 41.796875 56.203125 29.59375 
z
M 47.21875 32.234375 
Q 47.125 39.59375 43.09375 43.984375 
Q 39.0625 48.390625 32.421875 48.390625 
Q 24.90625 48.390625 20.390625 44.140625 
Q 15.875 39.890625 15.1875 32.171875 
z
" id="DejaVuSans-65"/>
      <path id="DejaVuSans-20"/>
      <path d="M 31 75.875 
Q 24.46875 64.65625 21.28125 53.65625 
Q 18.109375 42.671875 18.109375 31.390625 
Q 18.109375 20.125 21.3125 9.0625 
Q 24.515625 -2 31 -13.1875 
L 23.1875 -13.1875 
Q 15.875 -1.703125 12.234375 9.375 
Q 8.59375 20.453125 8.59375 31.390625 
Q 8.59375 42.28125 12.203125 53.3125 
Q 15.828125 64.359375 23.1875 75.875 
z
" id="DejaVuSans-28"/>
      <path d="M 44.28125 53.078125 
L 44.28125 44.578125 
Q 40.484375 46.53125 36.375 47.5 
Q 32.28125 48.484375 27.875 48.484375 
Q 21.1875 48.484375 17.84375 46.4375 
Q 14.5 44.390625 14.5 40.28125 
Q 14.5 37.15625 16.890625 35.375 
Q 19.28125 33.59375 26.515625 31.984375 
L 29.59375 31.296875 
Q 39.15625 29.25 43.1875 25.515625 
Q 47.21875 21.78125 47.21875 15.09375 
Q 47.21875 7.46875 41.1875 3.015625 
Q 35.15625 -1.421875 24.609375 -1.421875 
Q 20.21875 -1.421875 15.453125 -0.5625 
Q 10.6875 0.296875 5.421875 2 
L 5.421875 11.28125 
Q 10.40625 8.6875 15.234375 7.390625 
Q 20.0625 6.109375 24.8125 6.109375 
Q 31.15625 6.109375 34.5625 8.28125 
Q 37.984375 10.453125 37.984375 14.40625 
Q 37.984375 18.0625 35.515625 20.015625 
Q 33.0625 21.96875 24.703125 23.78125 
L 21.578125 24.515625 
Q 13.234375 26.265625 9.515625 29.90625 
Q 5.8125 33.546875 5.8125 39.890625 
Q 5.8125 47.609375 11.28125 51.796875 
Q 16.75 56 26.8125 56 
Q 31.78125 56 36.171875 55.265625 
Q 40.578125 54.546875 44.28125 53.078125 
z
" id="DejaVuSans-73"/>
      <path d="M 8.015625 75.875 
L 15.828125 75.875 
Q 23.140625 64.359375 26.78125 53.3125 
Q 30.421875 42.28125 30.421875 31.390625 
Q 30.421875 20.453125 26.78125 9.375 
Q 23.140625 -1.703125 15.828125 -13.1875 
L 8.015625 -13.1875 
Q 14.5 -2 17.703125 9.0625 
Q 20.90625 20.125 20.90625 31.390625 
Q 20.90625 42.671875 17.703125 53.65625 
Q 14.5 64.65625 8.015625 75.875 
z
" id="DejaVuSans-29"/>
     </defs>
     <g transform="translate(195.375 268.034687)scale(0.1 -0.1)">
      <use xlink:href="#DejaVuSans-54"/>
      <use x="61.037109" xlink:href="#DejaVuSans-69"/>
      <use x="88.820312" xlink:href="#DejaVuSans-6d"/>
      <use x="186.232422" xlink:href="#DejaVuSans-65"/>
      <use x="247.755859" xlink:href="#DejaVuSans-20"/>
      <use x="279.542969" xlink:href="#DejaVuSans-28"/>
      <use x="318.556641" xlink:href="#DejaVuSans-6d"/>
      <use x="415.96875" xlink:href="#DejaVuSans-73"/>
      <use x="468.068359" xlink:href="#DejaVuSans-29"/>
     </g>
    </g>
   </g>
   <g id="matplotlib.axis_2">
    <g id="ytick_1">
     <g id="line2d_7">
      <defs>
       <path d="M 0 0 
L -3.5 0 
" id="m485cbb06d6" style="stroke:#000000;stroke-width:0.8;"/>
      </defs>
      <g>
       <use style="stroke:#000000;stroke-width:0.8;" x="53.328125" xlink:href="#m485cbb06d6" y="232.771131"/>
      </g>
     </g>
     <g id="text_8">
      <!-- 1000 -->
      <g transform="translate(20.878125 236.57035)scale(0.1 -0.1)">
       <use xlink:href="#DejaVuSans-31"/>
       <use x="63.623047" xlink:href="#DejaVuSans-30"/>
       <use x="127.246094" xlink:href="#DejaVuSans-30"/>
       <use x="190.869141" xlink:href="#DejaVuSans-30"/>
      </g>
     </g>
    </g>
    <g id="ytick_2">
     <g id="line2d_8">
      <g>
       <use style="stroke:#000000;stroke-width:0.8;" x="53.328125" xlink:href="#m485cbb06d6" y="202.03814"/>
      </g>
     </g>
     <g id="text_9">
      <!-- 1500 -->
      <defs>
       <path d="M 10.796875 72.90625 
L 49.515625 72.90625 
L 49.515625 64.59375 
L 19.828125 64.59375 
L 19.828125 46.734375 
Q 21.96875 47.46875 24.109375 47.828125 
Q 26.265625 48.1875 28.421875 48.1875 
Q 40.625 48.1875 47.75 41.5 
Q 54.890625 34.8125 54.890625 23.390625 
Q 54.890625 11.625 47.5625 5.09375 
Q 40.234375 -1.421875 26.90625 -1.421875 
Q 22.3125 -1.421875 17.546875 -0.640625 
Q 12.796875 0.140625 7.71875 1.703125 
L 7.71875 11.625 
Q 12.109375 9.234375 16.796875 8.0625 
Q 21.484375 6.890625 26.703125 6.890625 
Q 35.15625 6.890625 40.078125 11.328125 
Q 45.015625 15.765625 45.015625 23.390625 
Q 45.015625 31 40.078125 35.4375 
Q 35.15625 39.890625 26.703125 39.890625 
Q 22.75 39.890625 18.8125 39.015625 
Q 14.890625 38.140625 10.796875 36.28125 
z
" id="DejaVuSans-35"/>
      </defs>
      <g transform="translate(20.878125 205.837358)scale(0.1 -0.1)">
       <use xlink:href="#DejaVuSans-31"/>
       <use x="63.623047" xlink:href="#DejaVuSans-35"/>
       <use x="127.246094" xlink:href="#DejaVuSans-30"/>
       <use x="190.869141" xlink:href="#DejaVuSans-30"/>
      </g>
     </g>
    </g>
    <g id="ytick_3">
     <g id="line2d_9">
      <g>
       <use style="stroke:#000000;stroke-width:0.8;" x="53.328125" xlink:href="#m485cbb06d6" y="171.305148"/>
      </g>
     </g>
     <g id="text_10">
      <!-- 2000 -->
      <g transform="translate(20.878125 175.104367)scale(0.1 -0.1)">
       <use xlink:href="#DejaVuSans-32"/>
       <use x="63.623047" xlink:href="#DejaVuSans-30"/>
       <use x="127.246094" xlink:href="#DejaVuSans-30"/>
       <use x="190.869141" xlink:href="#DejaVuSans-30"/>
      </g>
     </g>
    </g>
    <g id="ytick_4">
     <g id="line2d_10">
      <g>
       <use style="stroke:#000000;stroke-width:0.8;" x="53.328125" xlink:href="#m485cbb06d6" y="140.572157"/>
      </g>
     </g>
     <g id="text_11">
      <!-- 2500 -->
      <g transform="translate(20.878125 144.371376)scale(0.1 -0.1)">
       <use xlink:href="#DejaVuSans-32"/>
       <use x="63.623047" xlink:href="#DejaVuSans-35"/>
       <use x="127.246094" xlink:href="#DejaVuSans-30"/>
       <use x="190.869141" xlink:href="#DejaVuSans-30"/>
      </g>
     </g>
    </g>
    <g id="ytick_5">
     <g id="line2d_11">
      <g>
       <use style="stroke:#000000;stroke-width:0.8;" x="53.328125" xlink:href="#m485cbb06d6" y="109.839166"/>
      </g>
     </g>
     <g id="text_12">
      <!-- 3000 -->
      <defs>
       <path d="M 40.578125 39.3125 
Q 47.65625 37.796875 51.625 33 
Q 55.609375 28.21875 55.609375 21.1875 
Q 55.609375 10.40625 48.1875 4.484375 
Q 40.765625 -1.421875 27.09375 -1.421875 
Q 22.515625 -1.421875 17.65625 -0.515625 
Q 12.796875 0.390625 7.625 2.203125 
L 7.625 11.71875 
Q 11.71875 9.328125 16.59375 8.109375 
Q 21.484375 6.890625 26.8125 6.890625 
Q 36.078125 6.890625 40.9375 10.546875 
Q 45.796875 14.203125 45.796875 21.1875 
Q 45.796875 27.640625 41.28125 31.265625 
Q 36.765625 34.90625 28.71875 34.90625 
L 20.21875 34.90625 
L 20.21875 43.015625 
L 29.109375 43.015625 
Q 36.375 43.015625 40.234375 45.921875 
Q 44.09375 48.828125 44.09375 54.296875 
Q 44.09375 59.90625 40.109375 62.90625 
Q 36.140625 65.921875 28.71875 65.921875 
Q 24.65625 65.921875 20.015625 65.03125 
Q 15.375 64.15625 9.8125 62.3125 
L 9.8125 71.09375 
Q 15.4375 72.65625 20.34375 73.4375 
Q 25.25 74.21875 29.59375 74.21875 
Q 40.828125 74.21875 47.359375 69.109375 
Q 53.90625 64.015625 53.90625 55.328125 
Q 53.90625 49.265625 50.4375 45.09375 
Q 46.96875 40.921875 40.578125 39.3125 
z
" id="DejaVuSans-33"/>
      </defs>
      <g transform="translate(20.878125 113.638384)scale(0.1 -0.1)">
       <use xlink:href="#DejaVuSans-33"/>
       <use x="63.623047" xlink:href="#DejaVuSans-30"/>
       <use x="127.246094" xlink:href="#DejaVuSans-30"/>
       <use x="190.869141" xlink:href="#DejaVuSans-30"/>
      </g>
     </g>
    </g>
    <g id="ytick_6">
     <g id="line2d_12">
      <g>
       <use style="stroke:#000000;stroke-width:0.8;" x="53.328125" xlink:href="#m485cbb06d6" y="79.106174"/>
      </g>
     </g>
     <g id="text_13">
      <!-- 3500 -->
      <g transform="translate(20.878125 82.905393)scale(0.1 -0.1)">
       <use xlink:href="#DejaVuSans-33"/>
       <use x="63.623047" xlink:href="#DejaVuSans-35"/>
       <use x="127.246094" xlink:href="#DejaVuSans-30"/>
       <use x="190.869141" xlink:href="#DejaVuSans-30"/>
      </g>
     </g>
    </g>
    <g id="ytick_7">
     <g id="line2d_13">
      <g>
       <use style="stroke:#000000;stroke-width:0.8;" x="53.328125" xlink:href="#m485cbb06d6" y="48.373183"/>
      </g>
     </g>
     <g id="text_14">
      <!-- 4000 -->
      <g transform="translate(20.878125 52.172402)scale(0.1 -0.1)">
       <use xlink:href="#DejaVuSans-34"/>
       <use x="63.623047" xlink:href="#DejaVuSans-30"/>
       <use x="127.246094" xlink:href="#DejaVuSans-30"/>
       <use x="190.869141" xlink:href="#DejaVuSans-30"/>
      </g>
     </g>
    </g>
    <g id="text_15">
     <!-- ppmH2O -->
     <defs>
      <path d="M 18.109375 8.203125 
L 18.109375 -20.796875 
L 9.078125 -20.796875 
L 9.078125 54.6875 
L 18.109375 54.6875 
L 18.109375 46.390625 
Q 20.953125 51.265625 25.265625 53.625 
Q 29.59375 56 35.59375 56 
Q 45.5625 56 51.78125 48.09375 
Q 58.015625 40.1875 58.015625 27.296875 
Q 58.015625 14.40625 51.78125 6.484375 
Q 45.5625 -1.421875 35.59375 -1.421875 
Q 29.59375 -1.421875 25.265625 0.953125 
Q 20.953125 3.328125 18.109375 8.203125 
z
M 48.6875 27.296875 
Q 48.6875 37.203125 44.609375 42.84375 
Q 40.53125 48.484375 33.40625 48.484375 
Q 26.265625 48.484375 22.1875 42.84375 
Q 18.109375 37.203125 18.109375 27.296875 
Q 18.109375 17.390625 22.1875 11.75 
Q 26.265625 6.109375 33.40625 6.109375 
Q 40.53125 6.109375 44.609375 11.75 
Q 48.6875 17.390625 48.6875 27.296875 
z
" id="DejaVuSans-70"/>
      <path d="M 9.8125 72.90625 
L 19.671875 72.90625 
L 19.671875 43.015625 
L 55.515625 43.015625 
L 55.515625 72.90625 
L 65.375 72.90625 
L 65.375 0 
L 55.515625 0 
L 55.515625 34.71875 
L 19.671875 34.71875 
L 19.671875 0 
L 9.8125 0 
z
" id="DejaVuSans-48"/>
      <path d="M 39.40625 66.21875 
Q 28.65625 66.21875 22.328125 58.203125 
Q 16.015625 50.203125 16.015625 36.375 
Q 16.015625 22.609375 22.328125 14.59375 
Q 28.65625 6.59375 39.40625 6.59375 
Q 50.140625 6.59375 56.421875 14.59375 
Q 62.703125 22.609375 62.703125 36.375 
Q 62.703125 50.203125 56.421875 58.203125 
Q 50.140625 66.21875 39.40625 66.21875 
z
M 39.40625 74.21875 
Q 54.734375 74.21875 63.90625 63.9375 
Q 73.09375 53.65625 73.09375 36.375 
Q 73.09375 19.140625 63.90625 8.859375 
Q 54.734375 -1.421875 39.40625 -1.421875 
Q 24.03125 -1.421875 14.8125 8.828125 
Q 5.609375 19.09375 5.609375 36.375 
Q 5.609375 53.65625 14.8125 63.9375 
Q 24.03125 74.21875 39.40625 74.21875 
z
" id="DejaVuSans-4f"/>
     </defs>
     <g transform="translate(14.798438 153.134219)rotate(-90)scale(0.1 -0.1)">
      <use xlink:href="#DejaVuSans-70"/>
      <use x="63.476562" xlink:href="#DejaVuSans-70"/>
      <use x="126.953125" xlink:href="#DejaVuSans-6d"/>
      <use x="224.365234" xlink:href="#DejaVuSans-48"/>
      <use x="299.560547" xlink:href="#DejaVuSans-32"/>
      <use x="363.183594" xlink:href="#DejaVuSans-4f"/>
     </g>
    </g>
   </g>
   <g id="line2d_14">
    <path clip-path="url(#paf34393ec0)" d="M 68.546307 225.210415 
L 68.742497 225.114589 
L 69.01533 224.701269 
L 69.436675 223.567676 
L 70.049541 221.181417 
L 71.02731 216.382661 
L 78.191164 179.197552 
L 80.932823 166.867302 
L 83.578782 155.929304 
L 86.228903 145.857872 
L 88.879023 136.614914 
L 91.529144 128.146023 
L 94.179264 120.397667 
L 96.925226 113.073392 
L 99.554183 106.681603 
L 102.089157 101.048284 
L 104.842251 95.472395 
L 107.318263 90.900939 
L 110.289478 85.921213 
L 113.216856 81.506161 
L 115.976648 77.748062 
L 118.825852 74.24078 
L 121.589677 71.166249 
L 124.7068 68.047637 
L 127.739001 65.332866 
L 130.991503 62.732832 
L 134.701832 60.115993 
L 138.514692 57.766733 
L 142.327552 55.717261 
L 146.140411 53.928252 
L 149.953271 52.365531 
L 153.766131 50.999432 
L 158.849944 49.43986 
L 163.933756 48.132775 
L 169.017569 47.035448 
L 175.372335 45.905584 
L 181.727101 44.992974 
L 189.352821 44.123332 
L 198.249493 43.346984 
L 208.417119 42.691025 
L 221.126651 42.113907 
L 236.37809 41.656012 
L 256.713341 41.284564 
L 285.945265 41.001453 
L 331.699581 40.808451 
L 371.881942 40.734446 
L 371.881942 40.734446 
" style="fill:none;stroke:#0000ff;stroke-linecap:square;stroke-width:1.5;"/>
   </g>
   <g id="line2d_15">
    <path clip-path="url(#paf34393ec0)" d="M 68.546307 225.823764 
L 68.779661 225.728615 
L 69.07625 225.353663 
L 69.46905 224.480526 
L 70.038179 222.591841 
L 70.814265 219.118253 
L 71.927094 212.97488 
L 74.181996 198.929628 
L 77.148435 180.910786 
L 79.554898 167.67487 
L 81.849383 156.22424 
L 84.06075 146.171299 
L 86.48967 136.134296 
L 88.918589 127.05112 
L 91.347509 118.833569 
L 93.776428 111.403036 
L 96.013566 105.193925 
L 98.305177 99.409597 
L 100.596789 94.157797 
L 103.149715 88.877 
L 105.583925 84.3485 
L 108.11978 80.105287 
L 110.70509 76.227982 
L 113.067957 73.040942 
L 115.84685 69.683464 
L 118.141876 67.196944 
L 120.750749 64.652122 
L 123.359621 62.376305 
L 125.968493 60.340669 
L 129.44699 57.955896 
L 132.925486 55.898797 
L 136.403983 54.123135 
L 139.882479 52.589188 
L 143.949658 51.056785 
L 148.211669 49.7055 
L 152.816464 48.488284 
L 157.740288 47.415377 
L 163.281449 46.435624 
L 169.746136 45.532088 
L 177.134351 44.739743 
L 185.446092 44.073185 
L 195.604886 43.485302 
L 208.534261 42.974688 
L 225.157743 42.554266 
L 248.245913 42.208183 
L 283.363549 41.929162 
L 341.653951 41.716412 
L 372.909943 41.652802 
L 372.909943 41.652802 
" style="fill:none;stroke:#ff0000;stroke-linecap:square;stroke-width:1.5;"/>
   </g>
   <g id="line2d_16">
    <defs>
     <path d="M 0 3 
C 0.795609 3 1.55874 2.683901 2.12132 2.12132 
C 2.683901 1.55874 3 0.795609 3 0 
C 3 -0.795609 2.683901 -1.55874 2.12132 -2.12132 
C 1.55874 -2.683901 0.795609 -3 0 -3 
C -0.795609 -3 -1.55874 -2.683901 -2.12132 -2.12132 
C -2.683901 -1.55874 -3 -0.795609 -3 0 
C -3 0.795609 -2.683901 1.55874 -2.12132 2.12132 
C -1.55874 2.683901 -0.795609 3 0 3 
z
" id="ma5d7da3b3a" style="stroke:#000000;"/>
    </defs>
    <g clip-path="url(#paf34393ec0)">
     <use style="stroke:#000000;" x="68.546307" xlink:href="#ma5d7da3b3a" y="225.823631"/>
     <use style="stroke:#000000;" x="68.54631" xlink:href="#ma5d7da3b3a" y="225.823631"/>
     <use style="stroke:#000000;" x="68.54632" xlink:href="#ma5d7da3b3a" y="225.823631"/>
     <use style="stroke:#000000;" x="68.546331" xlink:href="#ma5d7da3b3a" y="225.823631"/>
     <use style="stroke:#000000;" x="68.546341" xlink:href="#ma5d7da3b3a" y="225.823631"/>
     <use style="stroke:#000000;" x="68.546352" xlink:href="#ma5d7da3b3a" y="225.823631"/>
     <use style="stroke:#000000;" x="68.546373" xlink:href="#ma5d7da3b3a" y="225.823631"/>
     <use style="stroke:#000000;" x="68.546413" xlink:href="#ma5d7da3b3a" y="225.823631"/>
     <use style="stroke:#000000;" x="68.546484" xlink:href="#ma5d7da3b3a" y="225.823631"/>
     <use style="stroke:#000000;" x="68.546609" xlink:href="#ma5d7da3b3a" y="225.823631"/>
     <use style="stroke:#000000;" x="68.546848" xlink:href="#ma5d7da3b3a" y="225.823631"/>
     <use style="stroke:#000000;" x="68.547314" xlink:href="#ma5d7da3b3a" y="225.823631"/>
     <use style="stroke:#000000;" x="68.547782" xlink:href="#ma5d7da3b3a" y="225.823631"/>
     <use style="stroke:#000000;" x="68.548251" xlink:href="#ma5d7da3b3a" y="225.823631"/>
     <use style="stroke:#000000;" x="68.548716" xlink:href="#ma5d7da3b3a" y="225.823631"/>
     <use style="stroke:#000000;" x="68.549182" xlink:href="#ma5d7da3b3a" y="225.823631"/>
     <use style="stroke:#000000;" x="68.549632" xlink:href="#ma5d7da3b3a" y="225.823631"/>
     <use style="stroke:#000000;" x="68.550116" xlink:href="#ma5d7da3b3a" y="225.823631"/>
     <use style="stroke:#000000;" x="68.551356" xlink:href="#ma5d7da3b3a" y="225.823631"/>
     <use style="stroke:#000000;" x="68.552565" xlink:href="#ma5d7da3b3a" y="225.823631"/>
     <use style="stroke:#000000;" x="68.553805" xlink:href="#ma5d7da3b3a" y="225.823631"/>
     <use style="stroke:#000000;" x="68.555044" xlink:href="#ma5d7da3b3a" y="225.823631"/>
     <use style="stroke:#000000;" x="68.556284" xlink:href="#ma5d7da3b3a" y="225.823631"/>
     <use style="stroke:#000000;" x="68.558914" xlink:href="#ma5d7da3b3a" y="225.823016"/>
     <use style="stroke:#000000;" x="68.563993" xlink:href="#ma5d7da3b3a" y="225.823016"/>
     <use style="stroke:#000000;" x="68.567077" xlink:href="#ma5d7da3b3a" y="225.822401"/>
     <use style="stroke:#000000;" x="68.570161" xlink:href="#ma5d7da3b3a" y="225.821787"/>
     <use style="stroke:#000000;" x="68.573244" xlink:href="#ma5d7da3b3a" y="225.821172"/>
     <use style="stroke:#000000;" x="68.578051" xlink:href="#ma5d7da3b3a" y="225.820557"/>
     <use style="stroke:#000000;" x="68.583191" xlink:href="#ma5d7da3b3a" y="225.819328"/>
     <use style="stroke:#000000;" x="68.588028" xlink:href="#ma5d7da3b3a" y="225.818099"/>
     <use style="stroke:#000000;" x="68.593168" xlink:href="#ma5d7da3b3a" y="225.816255"/>
     <use style="stroke:#000000;" x="68.598005" xlink:href="#ma5d7da3b3a" y="225.815026"/>
     <use style="stroke:#000000;" x="68.602842" xlink:href="#ma5d7da3b3a" y="225.813182"/>
     <use style="stroke:#000000;" x="68.607982" xlink:href="#ma5d7da3b3a" y="225.811338"/>
     <use style="stroke:#000000;" x="68.617354" xlink:href="#ma5d7da3b3a" y="225.807035"/>
     <use style="stroke:#000000;" x="68.626726" xlink:href="#ma5d7da3b3a" y="225.802732"/>
     <use style="stroke:#000000;" x="68.636401" xlink:href="#ma5d7da3b3a" y="225.7972"/>
     <use style="stroke:#000000;" x="68.645773" xlink:href="#ma5d7da3b3a" y="225.791054"/>
     <use style="stroke:#000000;" x="68.655145" xlink:href="#ma5d7da3b3a" y="225.784907"/>
     <use style="stroke:#000000;" x="68.66482" xlink:href="#ma5d7da3b3a" y="225.778146"/>
     <use style="stroke:#000000;" x="68.680843" xlink:href="#ma5d7da3b3a" y="225.765238"/>
     <use style="stroke:#000000;" x="68.697169" xlink:href="#ma5d7da3b3a" y="225.750486"/>
     <use style="stroke:#000000;" x="68.713192" xlink:href="#ma5d7da3b3a" y="225.73389"/>
     <use style="stroke:#000000;" x="68.729518" xlink:href="#ma5d7da3b3a" y="225.716065"/>
     <use style="stroke:#000000;" x="68.745542" xlink:href="#ma5d7da3b3a" y="225.697011"/>
     <use style="stroke:#000000;" x="68.761867" xlink:href="#ma5d7da3b3a" y="225.676727"/>
     <use style="stroke:#000000;" x="68.778193" xlink:href="#ma5d7da3b3a" y="225.654599"/>
     <use style="stroke:#000000;" x="68.802984" xlink:href="#ma5d7da3b3a" y="225.61772"/>
     <use style="stroke:#000000;" x="68.827775" xlink:href="#ma5d7da3b3a" y="225.578382"/>
     <use style="stroke:#000000;" x="68.851659" xlink:href="#ma5d7da3b3a" y="225.535355"/>
     <use style="stroke:#000000;" x="68.875845" xlink:href="#ma5d7da3b3a" y="225.489256"/>
     <use style="stroke:#000000;" x="68.903055" xlink:href="#ma5d7da3b3a" y="225.440698"/>
     <use style="stroke:#000000;" x="68.927241" xlink:href="#ma5d7da3b3a" y="225.388452"/>
     <use style="stroke:#000000;" x="68.951427" xlink:href="#ma5d7da3b3a" y="225.334362"/>
     <use style="stroke:#000000;" x="68.975614" xlink:href="#ma5d7da3b3a" y="225.276584"/>
     <use style="stroke:#000000;" x="68.9998" xlink:href="#ma5d7da3b3a" y="225.216347"/>
     <use style="stroke:#000000;" x="69.02701" xlink:href="#ma5d7da3b3a" y="225.154266"/>
     <use style="stroke:#000000;" x="69.051196" xlink:href="#ma5d7da3b3a" y="225.088498"/>
     <use style="stroke:#000000;" x="69.075382" xlink:href="#ma5d7da3b3a" y="225.020885"/>
     <use style="stroke:#000000;" x="69.099569" xlink:href="#ma5d7da3b3a" y="224.950814"/>
     <use style="stroke:#000000;" x="69.123755" xlink:href="#ma5d7da3b3a" y="224.878284"/>
     <use style="stroke:#000000;" x="69.150964" xlink:href="#ma5d7da3b3a" y="224.80391"/>
     <use style="stroke:#000000;" x="69.175151" xlink:href="#ma5d7da3b3a" y="224.727078"/>
     <use style="stroke:#000000;" x="69.199337" xlink:href="#ma5d7da3b3a" y="224.647787"/>
     <use style="stroke:#000000;" x="69.223523" xlink:href="#ma5d7da3b3a" y="224.566651"/>
     <use style="stroke:#000000;" x="69.24771" xlink:href="#ma5d7da3b3a" y="224.483058"/>
     <use style="stroke:#000000;" x="69.274919" xlink:href="#ma5d7da3b3a" y="224.39762"/>
     <use style="stroke:#000000;" x="69.299106" xlink:href="#ma5d7da3b3a" y="224.310338"/>
     <use style="stroke:#000000;" x="69.323292" xlink:href="#ma5d7da3b3a" y="224.221213"/>
     <use style="stroke:#000000;" x="69.347478" xlink:href="#ma5d7da3b3a" y="224.130243"/>
     <use style="stroke:#000000;" x="69.371665" xlink:href="#ma5d7da3b3a" y="224.037429"/>
     <use style="stroke:#000000;" x="69.398874" xlink:href="#ma5d7da3b3a" y="223.942772"/>
     <use style="stroke:#000000;" x="69.42306" xlink:href="#ma5d7da3b3a" y="223.84627"/>
     <use style="stroke:#000000;" x="69.447247" xlink:href="#ma5d7da3b3a" y="223.748539"/>
     <use style="stroke:#000000;" x="69.483526" xlink:href="#ma5d7da3b3a" y="223.596718"/>
     <use style="stroke:#000000;" x="69.522829" xlink:href="#ma5d7da3b3a" y="223.441824"/>
     <use style="stroke:#000000;" x="69.559108" xlink:href="#ma5d7da3b3a" y="223.283856"/>
     <use style="stroke:#000000;" x="69.595388" xlink:href="#ma5d7da3b3a" y="223.122201"/>
     <use style="stroke:#000000;" x="69.634691" xlink:href="#ma5d7da3b3a" y="222.957472"/>
     <use style="stroke:#000000;" x="69.67097" xlink:href="#ma5d7da3b3a" y="222.78967"/>
     <use style="stroke:#000000;" x="69.710273" xlink:href="#ma5d7da3b3a" y="222.618794"/>
     <use style="stroke:#000000;" x="69.746552" xlink:href="#ma5d7da3b3a" y="222.44546"/>
     <use style="stroke:#000000;" x="69.782832" xlink:href="#ma5d7da3b3a" y="222.269668"/>
     <use style="stroke:#000000;" x="69.822134" xlink:href="#ma5d7da3b3a" y="222.090802"/>
     <use style="stroke:#000000;" x="69.858414" xlink:href="#ma5d7da3b3a" y="221.910092"/>
     <use style="stroke:#000000;" x="69.897717" xlink:href="#ma5d7da3b3a" y="221.726923"/>
     <use style="stroke:#000000;" x="69.933996" xlink:href="#ma5d7da3b3a" y="221.541296"/>
     <use style="stroke:#000000;" x="69.970276" xlink:href="#ma5d7da3b3a" y="221.35321"/>
     <use style="stroke:#000000;" x="70.009578" xlink:href="#ma5d7da3b3a" y="221.163895"/>
     <use style="stroke:#000000;" x="70.045858" xlink:href="#ma5d7da3b3a" y="220.972121"/>
     <use style="stroke:#000000;" x="70.085161" xlink:href="#ma5d7da3b3a" y="220.778503"/>
     <use style="stroke:#000000;" x="70.12144" xlink:href="#ma5d7da3b3a" y="220.583656"/>
     <use style="stroke:#000000;" x="70.157719" xlink:href="#ma5d7da3b3a" y="220.38635"/>
     <use style="stroke:#000000;" x="70.197022" xlink:href="#ma5d7da3b3a" y="220.187815"/>
     <use style="stroke:#000000;" x="70.233302" xlink:href="#ma5d7da3b3a" y="219.98805"/>
     <use style="stroke:#000000;" x="70.272604" xlink:href="#ma5d7da3b3a" y="219.786442"/>
     <use style="stroke:#000000;" x="70.308884" xlink:href="#ma5d7da3b3a" y="219.583604"/>
     <use style="stroke:#000000;" x="70.345163" xlink:href="#ma5d7da3b3a" y="219.379537"/>
     <use style="stroke:#000000;" x="70.384466" xlink:href="#ma5d7da3b3a" y="219.174241"/>
     <use style="stroke:#000000;" x="70.420746" xlink:href="#ma5d7da3b3a" y="218.967715"/>
     <use style="stroke:#000000;" x="70.460048" xlink:href="#ma5d7da3b3a" y="218.75996"/>
     <use style="stroke:#000000;" x="70.496328" xlink:href="#ma5d7da3b3a" y="218.55159"/>
     <use style="stroke:#000000;" x="70.532607" xlink:href="#ma5d7da3b3a" y="218.341377"/>
     <use style="stroke:#000000;" x="70.57191" xlink:href="#ma5d7da3b3a" y="218.131163"/>
     <use style="stroke:#000000;" x="70.608189" xlink:href="#ma5d7da3b3a" y="217.91972"/>
     <use style="stroke:#000000;" x="70.647492" xlink:href="#ma5d7da3b3a" y="217.707048"/>
     <use style="stroke:#000000;" x="70.683772" xlink:href="#ma5d7da3b3a" y="217.493761"/>
     <use style="stroke:#000000;" x="70.720051" xlink:href="#ma5d7da3b3a" y="217.279859"/>
     <use style="stroke:#000000;" x="70.777494" xlink:href="#ma5d7da3b3a" y="216.957163"/>
     <use style="stroke:#000000;" x="70.834936" xlink:href="#ma5d7da3b3a" y="216.632008"/>
     <use style="stroke:#000000;" x="70.889355" xlink:href="#ma5d7da3b3a" y="216.306238"/>
     <use style="stroke:#000000;" x="70.946798" xlink:href="#ma5d7da3b3a" y="215.979239"/>
     <use style="stroke:#000000;" x="71.00424" xlink:href="#ma5d7da3b3a" y="215.651625"/>
     <use style="stroke:#000000;" x="71.058659" xlink:href="#ma5d7da3b3a" y="215.322168"/>
     <use style="stroke:#000000;" x="71.116102" xlink:href="#ma5d7da3b3a" y="214.99271"/>
     <use style="stroke:#000000;" x="71.173544" xlink:href="#ma5d7da3b3a" y="214.662023"/>
     <use style="stroke:#000000;" x="71.227964" xlink:href="#ma5d7da3b3a" y="214.331336"/>
     <use style="stroke:#000000;" x="71.285406" xlink:href="#ma5d7da3b3a" y="214.000034"/>
     <use style="stroke:#000000;" x="71.342848" xlink:href="#ma5d7da3b3a" y="213.668118"/>
     <use style="stroke:#000000;" x="71.397268" xlink:href="#ma5d7da3b3a" y="213.336202"/>
     <use style="stroke:#000000;" x="71.45471" xlink:href="#ma5d7da3b3a" y="213.003671"/>
     <use style="stroke:#000000;" x="71.512153" xlink:href="#ma5d7da3b3a" y="212.67114"/>
     <use style="stroke:#000000;" x="71.566572" xlink:href="#ma5d7da3b3a" y="212.338609"/>
     <use style="stroke:#000000;" x="71.630061" xlink:href="#ma5d7da3b3a" y="212.006078"/>
     <use style="stroke:#000000;" x="71.690527" xlink:href="#ma5d7da3b3a" y="211.673547"/>
     <use style="stroke:#000000;" x="71.750992" xlink:href="#ma5d7da3b3a" y="211.341016"/>
     <use style="stroke:#000000;" x="71.781225" xlink:href="#ma5d7da3b3a" y="211.008485"/>
     <use style="stroke:#000000;" x="71.841691" xlink:href="#ma5d7da3b3a" y="210.676569"/>
     <use style="stroke:#000000;" x="71.902157" xlink:href="#ma5d7da3b3a" y="210.344652"/>
     <use style="stroke:#000000;" x="71.962623" xlink:href="#ma5d7da3b3a" y="210.013351"/>
     <use style="stroke:#000000;" x="72.023088" xlink:href="#ma5d7da3b3a" y="209.682049"/>
     <use style="stroke:#000000;" x="72.083554" xlink:href="#ma5d7da3b3a" y="209.351362"/>
     <use style="stroke:#000000;" x="72.14402" xlink:href="#ma5d7da3b3a" y="209.020675"/>
     <use style="stroke:#000000;" x="72.174253" xlink:href="#ma5d7da3b3a" y="208.690603"/>
     <use style="stroke:#000000;" x="72.234719" xlink:href="#ma5d7da3b3a" y="208.361145"/>
     <use style="stroke:#000000;" x="72.295184" xlink:href="#ma5d7da3b3a" y="208.032302"/>
     <use style="stroke:#000000;" x="72.35565" xlink:href="#ma5d7da3b3a" y="207.703459"/>
     <use style="stroke:#000000;" x="72.416116" xlink:href="#ma5d7da3b3a" y="207.375845"/>
     <use style="stroke:#000000;" x="72.476582" xlink:href="#ma5d7da3b3a" y="207.048232"/>
     <use style="stroke:#000000;" x="72.537047" xlink:href="#ma5d7da3b3a" y="206.721233"/>
     <use style="stroke:#000000;" x="72.597513" xlink:href="#ma5d7da3b3a" y="206.395463"/>
     <use style="stroke:#000000;" x="72.627746" xlink:href="#ma5d7da3b3a" y="206.069693"/>
     <use style="stroke:#000000;" x="72.688212" xlink:href="#ma5d7da3b3a" y="205.744538"/>
     <use style="stroke:#000000;" x="72.748678" xlink:href="#ma5d7da3b3a" y="205.420613"/>
     <use style="stroke:#000000;" x="72.809143" xlink:href="#ma5d7da3b3a" y="205.096687"/>
     <use style="stroke:#000000;" x="72.869609" xlink:href="#ma5d7da3b3a" y="204.77399"/>
     <use style="stroke:#000000;" x="72.930075" xlink:href="#ma5d7da3b3a" y="204.451909"/>
     <use style="stroke:#000000;" x="72.990541" xlink:href="#ma5d7da3b3a" y="204.130442"/>
     <use style="stroke:#000000;" x="73.020774" xlink:href="#ma5d7da3b3a" y="203.809589"/>
     <use style="stroke:#000000;" x="73.081239" xlink:href="#ma5d7da3b3a" y="203.489351"/>
     <use style="stroke:#000000;" x="73.141705" xlink:href="#ma5d7da3b3a" y="203.170343"/>
     <use style="stroke:#000000;" x="73.202171" xlink:href="#ma5d7da3b3a" y="202.851334"/>
     <use style="stroke:#000000;" x="73.262637" xlink:href="#ma5d7da3b3a" y="202.533555"/>
     <use style="stroke:#000000;" x="73.323102" xlink:href="#ma5d7da3b3a" y="202.216391"/>
     <use style="stroke:#000000;" x="73.383568" xlink:href="#ma5d7da3b3a" y="201.900456"/>
     <use style="stroke:#000000;" x="73.444034" xlink:href="#ma5d7da3b3a" y="201.584521"/>
     <use style="stroke:#000000;" x="73.5045" xlink:href="#ma5d7da3b3a" y="201.111847"/>
     <use style="stroke:#000000;" x="73.595198" xlink:href="#ma5d7da3b3a" y="200.641018"/>
     <use style="stroke:#000000;" x="73.685897" xlink:href="#ma5d7da3b3a" y="200.171418"/>
     <use style="stroke:#000000;" x="73.776596" xlink:href="#ma5d7da3b3a" y="199.703662"/>
     <use style="stroke:#000000;" x="73.867294" xlink:href="#ma5d7da3b3a" y="199.237749"/>
     <use style="stroke:#000000;" x="73.92776" xlink:href="#ma5d7da3b3a" y="198.773681"/>
     <use style="stroke:#000000;" x="74.018459" xlink:href="#ma5d7da3b3a" y="198.311457"/>
     <use style="stroke:#000000;" x="74.109157" xlink:href="#ma5d7da3b3a" y="197.851077"/>
     <use style="stroke:#000000;" x="74.199856" xlink:href="#ma5d7da3b3a" y="197.391926"/>
     <use style="stroke:#000000;" x="74.290555" xlink:href="#ma5d7da3b3a" y="196.934619"/>
     <use style="stroke:#000000;" x="74.35102" xlink:href="#ma5d7da3b3a" y="196.479771"/>
     <use style="stroke:#000000;" x="74.441719" xlink:href="#ma5d7da3b3a" y="196.025537"/>
     <use style="stroke:#000000;" x="74.532418" xlink:href="#ma5d7da3b3a" y="195.573762"/>
     <use style="stroke:#000000;" x="74.623116" xlink:href="#ma5d7da3b3a" y="195.123831"/>
     <use style="stroke:#000000;" x="74.713815" xlink:href="#ma5d7da3b3a" y="194.675129"/>
     <use style="stroke:#000000;" x="74.774281" xlink:href="#ma5d7da3b3a" y="194.228272"/>
     <use style="stroke:#000000;" x="74.864979" xlink:href="#ma5d7da3b3a" y="193.783258"/>
     <use style="stroke:#000000;" x="74.955678" xlink:href="#ma5d7da3b3a" y="193.340088"/>
     <use style="stroke:#000000;" x="75.046377" xlink:href="#ma5d7da3b3a" y="192.898763"/>
     <use style="stroke:#000000;" x="75.137075" xlink:href="#ma5d7da3b3a" y="192.458666"/>
     <use style="stroke:#000000;" x="75.197541" xlink:href="#ma5d7da3b3a" y="192.019799"/>
     <use style="stroke:#000000;" x="75.28824" xlink:href="#ma5d7da3b3a" y="191.583391"/>
     <use style="stroke:#000000;" x="75.378938" xlink:href="#ma5d7da3b3a" y="191.148211"/>
     <use style="stroke:#000000;" x="75.469637" xlink:href="#ma5d7da3b3a" y="190.714876"/>
     <use style="stroke:#000000;" x="75.560336" xlink:href="#ma5d7da3b3a" y="190.28277"/>
     <use style="stroke:#000000;" x="75.620801" xlink:href="#ma5d7da3b3a" y="189.852508"/>
     <use style="stroke:#000000;" x="75.7115" xlink:href="#ma5d7da3b3a" y="189.424091"/>
     <use style="stroke:#000000;" x="75.802199" xlink:href="#ma5d7da3b3a" y="188.996902"/>
     <use style="stroke:#000000;" x="75.92313" xlink:href="#ma5d7da3b3a" y="188.350895"/>
     <use style="stroke:#000000;" x="76.074295" xlink:href="#ma5d7da3b3a" y="187.70796"/>
     <use style="stroke:#000000;" x="76.195226" xlink:href="#ma5d7da3b3a" y="187.068714"/>
     <use style="stroke:#000000;" x="76.316158" xlink:href="#ma5d7da3b3a" y="186.433156"/>
     <use style="stroke:#000000;" x="76.437089" xlink:href="#ma5d7da3b3a" y="185.800671"/>
     <use style="stroke:#000000;" x="76.588254" xlink:href="#ma5d7da3b3a" y="185.171874"/>
     <use style="stroke:#000000;" x="76.709185" xlink:href="#ma5d7da3b3a" y="184.54615"/>
     <use style="stroke:#000000;" x="76.830117" xlink:href="#ma5d7da3b3a" y="183.924729"/>
     <use style="stroke:#000000;" x="76.951048" xlink:href="#ma5d7da3b3a" y="183.305767"/>
     <use style="stroke:#000000;" x="77.102213" xlink:href="#ma5d7da3b3a" y="182.690492"/>
     <use style="stroke:#000000;" x="77.223144" xlink:href="#ma5d7da3b3a" y="182.078291"/>
     <use style="stroke:#000000;" x="77.344076" xlink:href="#ma5d7da3b3a" y="181.469163"/>
     <use style="stroke:#000000;" x="77.465007" xlink:href="#ma5d7da3b3a" y="180.863723"/>
     <use style="stroke:#000000;" x="77.616172" xlink:href="#ma5d7da3b3a" y="180.261357"/>
     <use style="stroke:#000000;" x="77.737103" xlink:href="#ma5d7da3b3a" y="179.662063"/>
     <use style="stroke:#000000;" x="77.858035" xlink:href="#ma5d7da3b3a" y="179.065843"/>
     <use style="stroke:#000000;" x="78.009199" xlink:href="#ma5d7da3b3a" y="178.472696"/>
     <use style="stroke:#000000;" x="78.130131" xlink:href="#ma5d7da3b3a" y="177.882623"/>
     <use style="stroke:#000000;" x="78.251062" xlink:href="#ma5d7da3b3a" y="177.295623"/>
     <use style="stroke:#000000;" x="78.371994" xlink:href="#ma5d7da3b3a" y="176.711081"/>
     <use style="stroke:#000000;" x="78.523158" xlink:href="#ma5d7da3b3a" y="176.130228"/>
     <use style="stroke:#000000;" x="78.64409" xlink:href="#ma5d7da3b3a" y="175.551833"/>
     <use style="stroke:#000000;" x="78.765021" xlink:href="#ma5d7da3b3a" y="174.976511"/>
     <use style="stroke:#000000;" x="78.885953" xlink:href="#ma5d7da3b3a" y="174.404263"/>
     <use style="stroke:#000000;" x="79.037117" xlink:href="#ma5d7da3b3a" y="173.835088"/>
     <use style="stroke:#000000;" x="79.158049" xlink:href="#ma5d7da3b3a" y="173.268372"/>
     <use style="stroke:#000000;" x="79.27898" xlink:href="#ma5d7da3b3a" y="172.704114"/>
     <use style="stroke:#000000;" x="79.399912" xlink:href="#ma5d7da3b3a" y="172.143544"/>
     <use style="stroke:#000000;" x="79.551076" xlink:href="#ma5d7da3b3a" y="171.584818"/>
     <use style="stroke:#000000;" x="79.672008" xlink:href="#ma5d7da3b3a" y="171.029166"/>
     <use style="stroke:#000000;" x="79.792939" xlink:href="#ma5d7da3b3a" y="170.476587"/>
     <use style="stroke:#000000;" x="79.944104" xlink:href="#ma5d7da3b3a" y="169.926466"/>
     <use style="stroke:#000000;" x="80.065035" xlink:href="#ma5d7da3b3a" y="169.378804"/>
     <use style="stroke:#000000;" x="80.185967" xlink:href="#ma5d7da3b3a" y="168.834216"/>
     <use style="stroke:#000000;" x="80.306898" xlink:href="#ma5d7da3b3a" y="168.292086"/>
     <use style="stroke:#000000;" x="80.458063" xlink:href="#ma5d7da3b3a" y="167.752414"/>
     <use style="stroke:#000000;" x="80.578994" xlink:href="#ma5d7da3b3a" y="167.215202"/>
     <use style="stroke:#000000;" x="80.699926" xlink:href="#ma5d7da3b3a" y="166.680448"/>
     <use style="stroke:#000000;" x="80.820857" xlink:href="#ma5d7da3b3a" y="166.148767"/>
     <use style="stroke:#000000;" x="80.972022" xlink:href="#ma5d7da3b3a" y="165.619545"/>
     <use style="stroke:#000000;" x="81.092953" xlink:href="#ma5d7da3b3a" y="165.092781"/>
     <use style="stroke:#000000;" x="81.274351" xlink:href="#ma5d7da3b3a" y="164.29987"/>
     <use style="stroke:#000000;" x="81.485981" xlink:href="#ma5d7da3b3a" y="163.512491"/>
     <use style="stroke:#000000;" x="81.667378" xlink:href="#ma5d7da3b3a" y="162.730644"/>
     <use style="stroke:#000000;" x="81.879008" xlink:href="#ma5d7da3b3a" y="161.954328"/>
     <use style="stroke:#000000;" x="82.060406" xlink:href="#ma5d7da3b3a" y="161.183545"/>
     <use style="stroke:#000000;" x="82.272036" xlink:href="#ma5d7da3b3a" y="160.418293"/>
     <use style="stroke:#000000;" x="82.453433" xlink:href="#ma5d7da3b3a" y="159.657959"/>
     <use style="stroke:#000000;" x="82.665063" xlink:href="#ma5d7da3b3a" y="158.903772"/>
     <use style="stroke:#000000;" x="82.84646" xlink:href="#ma5d7da3b3a" y="158.153887"/>
     <use style="stroke:#000000;" x="83.027858" xlink:href="#ma5d7da3b3a" y="157.410148"/>
     <use style="stroke:#000000;" x="83.239488" xlink:href="#ma5d7da3b3a" y="156.670712"/>
     <use style="stroke:#000000;" x="83.420885" xlink:href="#ma5d7da3b3a" y="155.936809"/>
     <use style="stroke:#000000;" x="83.632515" xlink:href="#ma5d7da3b3a" y="155.207822"/>
     <use style="stroke:#000000;" x="83.813913" xlink:href="#ma5d7da3b3a" y="154.484367"/>
     <use style="stroke:#000000;" x="84.025543" xlink:href="#ma5d7da3b3a" y="153.765215"/>
     <use style="stroke:#000000;" x="84.20694" xlink:href="#ma5d7da3b3a" y="153.051595"/>
     <use style="stroke:#000000;" x="84.41857" xlink:href="#ma5d7da3b3a" y="152.342278"/>
     <use style="stroke:#000000;" x="84.599968" xlink:href="#ma5d7da3b3a" y="151.637878"/>
     <use style="stroke:#000000;" x="84.811598" xlink:href="#ma5d7da3b3a" y="150.938395"/>
     <use style="stroke:#000000;" x="84.992995" xlink:href="#ma5d7da3b3a" y="150.243829"/>
     <use style="stroke:#000000;" x="85.204625" xlink:href="#ma5d7da3b3a" y="149.554181"/>
     <use style="stroke:#000000;" x="85.386023" xlink:href="#ma5d7da3b3a" y="148.868835"/>
     <use style="stroke:#000000;" x="85.56742" xlink:href="#ma5d7da3b3a" y="148.187792"/>
     <use style="stroke:#000000;" x="85.77905" xlink:href="#ma5d7da3b3a" y="147.511666"/>
     <use style="stroke:#000000;" x="85.960447" xlink:href="#ma5d7da3b3a" y="146.840458"/>
     <use style="stroke:#000000;" x="86.262776" xlink:href="#ma5d7da3b3a" y="145.826884"/>
     <use style="stroke:#000000;" x="86.565105" xlink:href="#ma5d7da3b3a" y="144.823144"/>
     <use style="stroke:#000000;" x="86.867434" xlink:href="#ma5d7da3b3a" y="143.830469"/>
     <use style="stroke:#000000;" x="87.169763" xlink:href="#ma5d7da3b3a" y="142.847628"/>
     <use style="stroke:#000000;" x="87.441859" xlink:href="#ma5d7da3b3a" y="141.874621"/>
     <use style="stroke:#000000;" x="87.744188" xlink:href="#ma5d7da3b3a" y="140.911449"/>
     <use style="stroke:#000000;" x="88.046516" xlink:href="#ma5d7da3b3a" y="139.958112"/>
     <use style="stroke:#000000;" x="88.348845" xlink:href="#ma5d7da3b3a" y="139.013994"/>
     <use style="stroke:#000000;" x="88.651174" xlink:href="#ma5d7da3b3a" y="138.079711"/>
     <use style="stroke:#000000;" x="88.953503" xlink:href="#ma5d7da3b3a" y="137.154648"/>
     <use style="stroke:#000000;" x="89.225599" xlink:href="#ma5d7da3b3a" y="136.23942"/>
     <use style="stroke:#000000;" x="89.527928" xlink:href="#ma5d7da3b3a" y="135.332797"/>
     <use style="stroke:#000000;" x="89.830256" xlink:href="#ma5d7da3b3a" y="134.435393"/>
     <use style="stroke:#000000;" x="90.132585" xlink:href="#ma5d7da3b3a" y="133.546595"/>
     <use style="stroke:#000000;" x="90.434914" xlink:href="#ma5d7da3b3a" y="132.667632"/>
     <use style="stroke:#000000;" x="90.737243" xlink:href="#ma5d7da3b3a" y="131.796659"/>
     <use style="stroke:#000000;" x="91.009339" xlink:href="#ma5d7da3b3a" y="130.934291"/>
     <use style="stroke:#000000;" x="91.311668" xlink:href="#ma5d7da3b3a" y="130.081143"/>
     <use style="stroke:#000000;" x="91.613997" xlink:href="#ma5d7da3b3a" y="129.235986"/>
     <use style="stroke:#000000;" x="91.916325" xlink:href="#ma5d7da3b3a" y="128.399434"/>
     <use style="stroke:#000000;" x="92.218654" xlink:href="#ma5d7da3b3a" y="127.570872"/>
     <use style="stroke:#000000;" x="92.520983" xlink:href="#ma5d7da3b3a" y="126.750916"/>
     <use style="stroke:#000000;" x="92.793079" xlink:href="#ma5d7da3b3a" y="125.938951"/>
     <use style="stroke:#000000;" x="93.095408" xlink:href="#ma5d7da3b3a" y="125.134975"/>
     <use style="stroke:#000000;" x="93.397737" xlink:href="#ma5d7da3b3a" y="124.338991"/>
     <use style="stroke:#000000;" x="93.700065" xlink:href="#ma5d7da3b3a" y="123.550997"/>
     <use style="stroke:#000000;" x="94.002394" xlink:href="#ma5d7da3b3a" y="122.770994"/>
     <use style="stroke:#000000;" x="94.304723" xlink:href="#ma5d7da3b3a" y="121.998366"/>
     <use style="stroke:#000000;" x="94.576819" xlink:href="#ma5d7da3b3a" y="121.233115"/>
     <use style="stroke:#000000;" x="94.879148" xlink:href="#ma5d7da3b3a" y="120.475854"/>
     <use style="stroke:#000000;" x="95.181477" xlink:href="#ma5d7da3b3a" y="119.725969"/>
     <use style="stroke:#000000;" x="95.63497" xlink:href="#ma5d7da3b3a" y="118.602371"/>
     <use style="stroke:#000000;" x="96.088463" xlink:href="#ma5d7da3b3a" y="117.495983"/>
     <use style="stroke:#000000;" x="96.541956" xlink:href="#ma5d7da3b3a" y="116.406191"/>
     <use style="stroke:#000000;" x="96.99545" xlink:href="#ma5d7da3b3a" y="115.332381"/>
     <use style="stroke:#000000;" x="97.448943" xlink:href="#ma5d7da3b3a" y="114.274551"/>
     <use style="stroke:#000000;" x="97.902436" xlink:href="#ma5d7da3b3a" y="113.232703"/>
     <use style="stroke:#000000;" x="98.325697" xlink:href="#ma5d7da3b3a" y="112.205606"/>
     <use style="stroke:#000000;" x="98.77919" xlink:href="#ma5d7da3b3a" y="111.193876"/>
     <use style="stroke:#000000;" x="99.383847" xlink:href="#ma5d7da3b3a" y="110.197512"/>
     <use style="stroke:#000000;" x="99.686176" xlink:href="#ma5d7da3b3a" y="109.215901"/>
     <use style="stroke:#000000;" x="100.290834" xlink:href="#ma5d7da3b3a" y="108.248426"/>
     <use style="stroke:#000000;" x="100.593163" xlink:href="#ma5d7da3b3a" y="107.295089"/>
     <use style="stroke:#000000;" x="100.895492" xlink:href="#ma5d7da3b3a" y="106.356503"/>
     <use style="stroke:#000000;" x="101.500149" xlink:href="#ma5d7da3b3a" y="105.43144"/>
     <use style="stroke:#000000;" x="101.802478" xlink:href="#ma5d7da3b3a" y="104.519285"/>
     <use style="stroke:#000000;" x="102.407136" xlink:href="#ma5d7da3b3a" y="103.621267"/>
     <use style="stroke:#000000;" x="102.709465" xlink:href="#ma5d7da3b3a" y="102.736771"/>
     <use style="stroke:#000000;" x="103.314122" xlink:href="#ma5d7da3b3a" y="101.864569"/>
     <use style="stroke:#000000;" x="103.616451" xlink:href="#ma5d7da3b3a" y="101.005275"/>
     <use style="stroke:#000000;" x="104.221109" xlink:href="#ma5d7da3b3a" y="100.158888"/>
     <use style="stroke:#000000;" x="104.523438" xlink:href="#ma5d7da3b3a" y="99.324795"/>
     <use style="stroke:#000000;" x="105.128095" xlink:href="#ma5d7da3b3a" y="98.502995"/>
     <use style="stroke:#000000;" x="105.732753" xlink:href="#ma5d7da3b3a" y="97.288427"/>
     <use style="stroke:#000000;" x="106.337411" xlink:href="#ma5d7da3b3a" y="96.100904"/>
     <use style="stroke:#000000;" x="107.244397" xlink:href="#ma5d7da3b3a" y="94.939197"/>
     <use style="stroke:#000000;" x="107.849055" xlink:href="#ma5d7da3b3a" y="93.803306"/>
     <use style="stroke:#000000;" x="108.453712" xlink:href="#ma5d7da3b3a" y="92.692001"/>
     <use style="stroke:#000000;" x="109.05837" xlink:href="#ma5d7da3b3a" y="91.604667"/>
     <use style="stroke:#000000;" x="109.965357" xlink:href="#ma5d7da3b3a" y="90.541306"/>
     <use style="stroke:#000000;" x="110.570014" xlink:href="#ma5d7da3b3a" y="89.501301"/>
     <use style="stroke:#000000;" x="111.174672" xlink:href="#ma5d7da3b3a" y="88.484039"/>
     <use style="stroke:#000000;" x="111.77933" xlink:href="#ma5d7da3b3a" y="87.488905"/>
     <use style="stroke:#000000;" x="112.686316" xlink:href="#ma5d7da3b3a" y="86.515284"/>
     <use style="stroke:#000000;" x="113.290974" xlink:href="#ma5d7da3b3a" y="85.562561"/>
     <use style="stroke:#000000;" x="113.895631" xlink:href="#ma5d7da3b3a" y="84.631352"/>
     <use style="stroke:#000000;" x="114.500289" xlink:href="#ma5d7da3b3a" y="83.719811"/>
     <use style="stroke:#000000;" x="115.407275" xlink:href="#ma5d7da3b3a" y="82.82794"/>
     <use style="stroke:#000000;" x="116.011933" xlink:href="#ma5d7da3b3a" y="81.955737"/>
     <use style="stroke:#000000;" x="116.628079" xlink:href="#ma5d7da3b3a" y="81.101975"/>
     <use style="stroke:#000000;" x="117.306203" xlink:href="#ma5d7da3b3a" y="80.267267"/>
     <use style="stroke:#000000;" x="118.32626" xlink:href="#ma5d7da3b3a" y="79.045323"/>
     <use style="stroke:#000000;" x="119.346318" xlink:href="#ma5d7da3b3a" y="77.862718"/>
     <use style="stroke:#000000;" x="120.366375" xlink:href="#ma5d7da3b3a" y="76.718221"/>
     <use style="stroke:#000000;" x="121.386735" xlink:href="#ma5d7da3b3a" y="75.610604"/>
     <use style="stroke:#000000;" x="122.406793" xlink:href="#ma5d7da3b3a" y="74.538637"/>
     <use style="stroke:#000000;" x="123.42685" xlink:href="#ma5d7da3b3a" y="73.501091"/>
     <use style="stroke:#000000;" x="124.446908" xlink:href="#ma5d7da3b3a" y="72.496737"/>
     <use style="stroke:#000000;" x="125.466965" xlink:href="#ma5d7da3b3a" y="71.52496"/>
     <use style="stroke:#000000;" x="126.487022" xlink:href="#ma5d7da3b3a" y="70.583916"/>
     <use style="stroke:#000000;" x="127.50708" xlink:href="#ma5d7da3b3a" y="69.67299"/>
     <use style="stroke:#000000;" x="128.527137" xlink:href="#ma5d7da3b3a" y="68.790953"/>
     <use style="stroke:#000000;" x="129.547497" xlink:href="#ma5d7da3b3a" y="67.937191"/>
     <use style="stroke:#000000;" x="130.567555" xlink:href="#ma5d7da3b3a" y="67.110473"/>
     <use style="stroke:#000000;" x="131.587612" xlink:href="#ma5d7da3b3a" y="66.310186"/>
     <use style="stroke:#000000;" x="132.60767" xlink:href="#ma5d7da3b3a" y="65.535715"/>
     <use style="stroke:#000000;" x="133.627727" xlink:href="#ma5d7da3b3a" y="64.785215"/>
     <use style="stroke:#000000;" x="134.647785" xlink:href="#ma5d7da3b3a" y="64.058687"/>
     <use style="stroke:#000000;" x="135.667842" xlink:href="#ma5d7da3b3a" y="63.354902"/>
     <use style="stroke:#000000;" x="136.688202" xlink:href="#ma5d7da3b3a" y="62.673244"/>
     <use style="stroke:#000000;" x="137.708259" xlink:href="#ma5d7da3b3a" y="62.013714"/>
     <use style="stroke:#000000;" x="138.728317" xlink:href="#ma5d7da3b3a" y="61.374468"/>
     <use style="stroke:#000000;" x="139.748374" xlink:href="#ma5d7da3b3a" y="60.755505"/>
     <use style="stroke:#000000;" x="140.768432" xlink:href="#ma5d7da3b3a" y="60.155597"/>
     <use style="stroke:#000000;" x="141.788489" xlink:href="#ma5d7da3b3a" y="59.574744"/>
     <use style="stroke:#000000;" x="142.808547" xlink:href="#ma5d7da3b3a" y="59.01233"/>
     <use style="stroke:#000000;" x="143.828604" xlink:href="#ma5d7da3b3a" y="58.467127"/>
     <use style="stroke:#000000;" x="144.848964" xlink:href="#ma5d7da3b3a" y="57.938519"/>
     <use style="stroke:#000000;" x="145.869021" xlink:href="#ma5d7da3b3a" y="57.427122"/>
     <use style="stroke:#000000;" x="146.889079" xlink:href="#ma5d7da3b3a" y="56.931707"/>
     <use style="stroke:#000000;" x="147.909136" xlink:href="#ma5d7da3b3a" y="56.451043"/>
     <use style="stroke:#000000;" x="148.929194" xlink:href="#ma5d7da3b3a" y="55.985745"/>
     <use style="stroke:#000000;" x="149.949251" xlink:href="#ma5d7da3b3a" y="55.534585"/>
     <use style="stroke:#000000;" x="150.969309" xlink:href="#ma5d7da3b3a" y="55.097562"/>
     <use style="stroke:#000000;" x="151.989669" xlink:href="#ma5d7da3b3a" y="54.674061"/>
     <use style="stroke:#000000;" x="153.009726" xlink:href="#ma5d7da3b3a" y="54.263468"/>
     <use style="stroke:#000000;" x="154.029784" xlink:href="#ma5d7da3b3a" y="53.865783"/>
     <use style="stroke:#000000;" x="155.049841" xlink:href="#ma5d7da3b3a" y="53.480392"/>
     <use style="stroke:#000000;" x="156.069898" xlink:href="#ma5d7da3b3a" y="53.106678"/>
     <use style="stroke:#000000;" x="157.089956" xlink:href="#ma5d7da3b3a" y="52.744029"/>
     <use style="stroke:#000000;" x="158.110013" xlink:href="#ma5d7da3b3a" y="52.393058"/>
     <use style="stroke:#000000;" x="159.130071" xlink:href="#ma5d7da3b3a" y="52.052537"/>
     <use style="stroke:#000000;" x="160.150431" xlink:href="#ma5d7da3b3a" y="51.722465"/>
     <use style="stroke:#000000;" x="161.170488" xlink:href="#ma5d7da3b3a" y="51.402841"/>
     <use style="stroke:#000000;" x="162.190546" xlink:href="#ma5d7da3b3a" y="51.092438"/>
     <use style="stroke:#000000;" x="163.210603" xlink:href="#ma5d7da3b3a" y="50.791255"/>
     <use style="stroke:#000000;" x="164.230661" xlink:href="#ma5d7da3b3a" y="50.499906"/>
     <use style="stroke:#000000;" x="165.250718" xlink:href="#ma5d7da3b3a" y="50.217163"/>
     <use style="stroke:#000000;" x="166.270776" xlink:href="#ma5d7da3b3a" y="49.94241"/>
     <use style="stroke:#000000;" x="167.291135" xlink:href="#ma5d7da3b3a" y="49.676262"/>
     <use style="stroke:#000000;" x="168.311193" xlink:href="#ma5d7da3b3a" y="49.41872"/>
     <use style="stroke:#000000;" x="169.33125" xlink:href="#ma5d7da3b3a" y="49.168553"/>
     <use style="stroke:#000000;" x="170.351308" xlink:href="#ma5d7da3b3a" y="48.925762"/>
     <use style="stroke:#000000;" x="171.371365" xlink:href="#ma5d7da3b3a" y="48.690348"/>
     <use style="stroke:#000000;" x="172.391423" xlink:href="#ma5d7da3b3a" y="48.461694"/>
     <use style="stroke:#000000;" x="173.41148" xlink:href="#ma5d7da3b3a" y="48.240417"/>
     <use style="stroke:#000000;" x="174.431538" xlink:href="#ma5d7da3b3a" y="48.025286"/>
     <use style="stroke:#000000;" x="175.451897" xlink:href="#ma5d7da3b3a" y="47.816916"/>
     <use style="stroke:#000000;" x="176.471955" xlink:href="#ma5d7da3b3a" y="47.614693"/>
     <use style="stroke:#000000;" x="177.492012" xlink:href="#ma5d7da3b3a" y="47.418002"/>
     <use style="stroke:#000000;" x="178.51207" xlink:href="#ma5d7da3b3a" y="47.227457"/>
     <use style="stroke:#000000;" x="179.532127" xlink:href="#ma5d7da3b3a" y="47.043059"/>
     <use style="stroke:#000000;" x="180.552185" xlink:href="#ma5d7da3b3a" y="46.863579"/>
     <use style="stroke:#000000;" x="181.572242" xlink:href="#ma5d7da3b3a" y="46.68963"/>
     <use style="stroke:#000000;" x="182.592602" xlink:href="#ma5d7da3b3a" y="46.520598"/>
     <use style="stroke:#000000;" x="183.61266" xlink:href="#ma5d7da3b3a" y="46.356484"/>
     <use style="stroke:#000000;" x="184.632717" xlink:href="#ma5d7da3b3a" y="46.197287"/>
     <use style="stroke:#000000;" x="185.652775" xlink:href="#ma5d7da3b3a" y="46.043008"/>
     <use style="stroke:#000000;" x="186.672832" xlink:href="#ma5d7da3b3a" y="45.893031"/>
     <use style="stroke:#000000;" x="187.692889" xlink:href="#ma5d7da3b3a" y="45.747356"/>
     <use style="stroke:#000000;" x="188.712947" xlink:href="#ma5d7da3b3a" y="45.605985"/>
     <use style="stroke:#000000;" x="189.733004" xlink:href="#ma5d7da3b3a" y="45.468915"/>
     <use style="stroke:#000000;" x="190.753364" xlink:href="#ma5d7da3b3a" y="45.335534"/>
     <use style="stroke:#000000;" x="191.773422" xlink:href="#ma5d7da3b3a" y="45.206456"/>
     <use style="stroke:#000000;" x="192.793479" xlink:href="#ma5d7da3b3a" y="45.08045"/>
     <use style="stroke:#000000;" x="193.813537" xlink:href="#ma5d7da3b3a" y="44.958748"/>
     <use style="stroke:#000000;" x="194.833594" xlink:href="#ma5d7da3b3a" y="44.840118"/>
     <use style="stroke:#000000;" x="195.853652" xlink:href="#ma5d7da3b3a" y="44.725177"/>
     <use style="stroke:#000000;" x="196.873709" xlink:href="#ma5d7da3b3a" y="44.613309"/>
     <use style="stroke:#000000;" x="197.893767" xlink:href="#ma5d7da3b3a" y="44.505129"/>
     <use style="stroke:#000000;" x="198.914126" xlink:href="#ma5d7da3b3a" y="44.399407"/>
     <use style="stroke:#000000;" x="199.934184" xlink:href="#ma5d7da3b3a" y="44.297374"/>
     <use style="stroke:#000000;" x="200.954241" xlink:href="#ma5d7da3b3a" y="44.197799"/>
     <use style="stroke:#000000;" x="201.974299" xlink:href="#ma5d7da3b3a" y="44.101297"/>
     <use style="stroke:#000000;" x="202.994356" xlink:href="#ma5d7da3b3a" y="44.007254"/>
     <use style="stroke:#000000;" x="204.014414" xlink:href="#ma5d7da3b3a" y="43.916285"/>
     <use style="stroke:#000000;" x="205.034471" xlink:href="#ma5d7da3b3a" y="43.827774"/>
     <use style="stroke:#000000;" x="206.054831" xlink:href="#ma5d7da3b3a" y="43.741721"/>
     <use style="stroke:#000000;" x="207.074888" xlink:href="#ma5d7da3b3a" y="43.658128"/>
     <use style="stroke:#000000;" x="208.094946" xlink:href="#ma5d7da3b3a" y="43.576378"/>
     <use style="stroke:#000000;" x="209.115003" xlink:href="#ma5d7da3b3a" y="43.497701"/>
     <use style="stroke:#000000;" x="210.135061" xlink:href="#ma5d7da3b3a" y="43.420869"/>
     <use style="stroke:#000000;" x="211.155118" xlink:href="#ma5d7da3b3a" y="43.346495"/>
     <use style="stroke:#000000;" x="212.175176" xlink:href="#ma5d7da3b3a" y="43.273351"/>
     <use style="stroke:#000000;" x="213.195233" xlink:href="#ma5d7da3b3a" y="43.203279"/>
     <use style="stroke:#000000;" x="214.215593" xlink:href="#ma5d7da3b3a" y="43.134437"/>
     <use style="stroke:#000000;" x="215.235651" xlink:href="#ma5d7da3b3a" y="43.068054"/>
     <use style="stroke:#000000;" x="216.255708" xlink:href="#ma5d7da3b3a" y="43.003515"/>
     <use style="stroke:#000000;" x="217.275765" xlink:href="#ma5d7da3b3a" y="42.940205"/>
     <use style="stroke:#000000;" x="218.295823" xlink:href="#ma5d7da3b3a" y="42.878739"/>
     <use style="stroke:#000000;" x="219.31588" xlink:href="#ma5d7da3b3a" y="42.819732"/>
     <use style="stroke:#000000;" x="220.335938" xlink:href="#ma5d7da3b3a" y="42.761339"/>
     <use style="stroke:#000000;" x="221.356298" xlink:href="#ma5d7da3b3a" y="42.705405"/>
     <use style="stroke:#000000;" x="222.376355" xlink:href="#ma5d7da3b3a" y="42.6507"/>
     <use style="stroke:#000000;" x="223.396413" xlink:href="#ma5d7da3b3a" y="42.597225"/>
     <use style="stroke:#000000;" x="224.41647" xlink:href="#ma5d7da3b3a" y="42.545593"/>
     <use style="stroke:#000000;" x="225.436528" xlink:href="#ma5d7da3b3a" y="42.495191"/>
     <use style="stroke:#000000;" x="226.456585" xlink:href="#ma5d7da3b3a" y="42.446018"/>
     <use style="stroke:#000000;" x="227.476643" xlink:href="#ma5d7da3b3a" y="42.39869"/>
     <use style="stroke:#000000;" x="228.4967" xlink:href="#ma5d7da3b3a" y="42.351976"/>
     <use style="stroke:#000000;" x="229.51706" xlink:href="#ma5d7da3b3a" y="42.307105"/>
     <use style="stroke:#000000;" x="230.537117" xlink:href="#ma5d7da3b3a" y="42.26285"/>
     <use style="stroke:#000000;" x="231.557175" xlink:href="#ma5d7da3b3a" y="42.220438"/>
     <use style="stroke:#000000;" x="232.577232" xlink:href="#ma5d7da3b3a" y="42.178641"/>
     <use style="stroke:#000000;" x="233.59729" xlink:href="#ma5d7da3b3a" y="42.138074"/>
     <use style="stroke:#000000;" x="234.617347" xlink:href="#ma5d7da3b3a" y="42.098736"/>
     <use style="stroke:#000000;" x="235.637405" xlink:href="#ma5d7da3b3a" y="42.060627"/>
     <use style="stroke:#000000;" x="236.657764" xlink:href="#ma5d7da3b3a" y="42.023133"/>
     <use style="stroke:#000000;" x="237.677822" xlink:href="#ma5d7da3b3a" y="41.986868"/>
     <use style="stroke:#000000;" x="238.697879" xlink:href="#ma5d7da3b3a" y="41.951832"/>
     <use style="stroke:#000000;" x="239.717937" xlink:href="#ma5d7da3b3a" y="41.917411"/>
     <use style="stroke:#000000;" x="240.737994" xlink:href="#ma5d7da3b3a" y="41.884219"/>
     <use style="stroke:#000000;" x="241.758052" xlink:href="#ma5d7da3b3a" y="41.851642"/>
     <use style="stroke:#000000;" x="242.778109" xlink:href="#ma5d7da3b3a" y="41.81968"/>
     <use style="stroke:#000000;" x="243.798167" xlink:href="#ma5d7da3b3a" y="41.788947"/>
     <use style="stroke:#000000;" x="244.818527" xlink:href="#ma5d7da3b3a" y="41.758829"/>
     <use style="stroke:#000000;" x="245.838584" xlink:href="#ma5d7da3b3a" y="41.729325"/>
     <use style="stroke:#000000;" x="246.858642" xlink:href="#ma5d7da3b3a" y="41.701051"/>
     <use style="stroke:#000000;" x="247.878699" xlink:href="#ma5d7da3b3a" y="41.673391"/>
     <use style="stroke:#000000;" x="248.898756" xlink:href="#ma5d7da3b3a" y="41.646346"/>
     <use style="stroke:#000000;" x="249.918814" xlink:href="#ma5d7da3b3a" y="41.619916"/>
     <use style="stroke:#000000;" x="250.938871" xlink:href="#ma5d7da3b3a" y="41.5941"/>
     <use style="stroke:#000000;" x="251.959231" xlink:href="#ma5d7da3b3a" y="41.568899"/>
     <use style="stroke:#000000;" x="252.979289" xlink:href="#ma5d7da3b3a" y="41.544927"/>
     <use style="stroke:#000000;" x="253.999346" xlink:href="#ma5d7da3b3a" y="41.520955"/>
     <use style="stroke:#000000;" x="255.019404" xlink:href="#ma5d7da3b3a" y="41.498213"/>
     <use style="stroke:#000000;" x="256.039461" xlink:href="#ma5d7da3b3a" y="41.475471"/>
     <use style="stroke:#000000;" x="257.059519" xlink:href="#ma5d7da3b3a" y="41.453343"/>
     <use style="stroke:#000000;" x="258.079576" xlink:href="#ma5d7da3b3a" y="41.432444"/>
     <use style="stroke:#000000;" x="259.099634" xlink:href="#ma5d7da3b3a" y="41.411546"/>
     <use style="stroke:#000000;" x="260.119993" xlink:href="#ma5d7da3b3a" y="41.391262"/>
     <use style="stroke:#000000;" x="261.140051" xlink:href="#ma5d7da3b3a" y="41.370978"/>
     <use style="stroke:#000000;" x="262.160108" xlink:href="#ma5d7da3b3a" y="41.351924"/>
     <use style="stroke:#000000;" x="263.180166" xlink:href="#ma5d7da3b3a" y="41.33287"/>
     <use style="stroke:#000000;" x="264.200223" xlink:href="#ma5d7da3b3a" y="41.315044"/>
     <use style="stroke:#000000;" x="265.220281" xlink:href="#ma5d7da3b3a" y="41.297219"/>
     <use style="stroke:#000000;" x="266.240338" xlink:href="#ma5d7da3b3a" y="41.279394"/>
     <use style="stroke:#000000;" x="267.260396" xlink:href="#ma5d7da3b3a" y="41.262798"/>
     <use style="stroke:#000000;" x="268.280755" xlink:href="#ma5d7da3b3a" y="41.246202"/>
     <use style="stroke:#000000;" x="269.300813" xlink:href="#ma5d7da3b3a" y="41.229607"/>
     <use style="stroke:#000000;" x="270.32087" xlink:href="#ma5d7da3b3a" y="41.21424"/>
     <use style="stroke:#000000;" x="271.340928" xlink:href="#ma5d7da3b3a" y="41.198874"/>
     <use style="stroke:#000000;" x="272.360985" xlink:href="#ma5d7da3b3a" y="41.183507"/>
     <use style="stroke:#000000;" x="273.381043" xlink:href="#ma5d7da3b3a" y="41.16937"/>
     <use style="stroke:#000000;" x="274.4011" xlink:href="#ma5d7da3b3a" y="41.154618"/>
     <use style="stroke:#000000;" x="275.42146" xlink:href="#ma5d7da3b3a" y="41.141096"/>
     <use style="stroke:#000000;" x="276.441518" xlink:href="#ma5d7da3b3a" y="41.127573"/>
     <use style="stroke:#000000;" x="277.461575" xlink:href="#ma5d7da3b3a" y="41.114051"/>
     <use style="stroke:#000000;" x="278.481632" xlink:href="#ma5d7da3b3a" y="41.101143"/>
     <use style="stroke:#000000;" x="279.50169" xlink:href="#ma5d7da3b3a" y="41.08885"/>
     <use style="stroke:#000000;" x="280.521747" xlink:href="#ma5d7da3b3a" y="41.076556"/>
     <use style="stroke:#000000;" x="281.541805" xlink:href="#ma5d7da3b3a" y="41.064263"/>
     <use style="stroke:#000000;" x="283.073705" xlink:href="#ma5d7da3b3a" y="41.047053"/>
     <use style="stroke:#000000;" x="284.605303" xlink:href="#ma5d7da3b3a" y="41.030457"/>
     <use style="stroke:#000000;" x="286.136901" xlink:href="#ma5d7da3b3a" y="41.013861"/>
     <use style="stroke:#000000;" x="287.668801" xlink:href="#ma5d7da3b3a" y="40.998495"/>
     <use style="stroke:#000000;" x="289.200399" xlink:href="#ma5d7da3b3a" y="40.983128"/>
     <use style="stroke:#000000;" x="290.731997" xlink:href="#ma5d7da3b3a" y="40.968376"/>
     <use style="stroke:#000000;" x="292.263897" xlink:href="#ma5d7da3b3a" y="40.954854"/>
     <use style="stroke:#000000;" x="293.795495" xlink:href="#ma5d7da3b3a" y="40.941331"/>
     <use style="stroke:#000000;" x="295.327093" xlink:href="#ma5d7da3b3a" y="40.927809"/>
     <use style="stroke:#000000;" x="296.858993" xlink:href="#ma5d7da3b3a" y="40.915516"/>
     <use style="stroke:#000000;" x="298.390591" xlink:href="#ma5d7da3b3a" y="40.903222"/>
     <use style="stroke:#000000;" x="299.922188" xlink:href="#ma5d7da3b3a" y="40.891544"/>
     <use style="stroke:#000000;" x="301.454089" xlink:href="#ma5d7da3b3a" y="40.879865"/>
     <use style="stroke:#000000;" x="302.985687" xlink:href="#ma5d7da3b3a" y="40.868801"/>
     <use style="stroke:#000000;" x="304.517587" xlink:href="#ma5d7da3b3a" y="40.858352"/>
     <use style="stroke:#000000;" x="306.049185" xlink:href="#ma5d7da3b3a" y="40.848518"/>
     <use style="stroke:#000000;" x="307.580782" xlink:href="#ma5d7da3b3a" y="40.838683"/>
     <use style="stroke:#000000;" x="309.112683" xlink:href="#ma5d7da3b3a" y="40.828848"/>
     <use style="stroke:#000000;" x="310.64428" xlink:href="#ma5d7da3b3a" y="40.819629"/>
     <use style="stroke:#000000;" x="312.175878" xlink:href="#ma5d7da3b3a" y="40.810409"/>
     <use style="stroke:#000000;" x="313.707778" xlink:href="#ma5d7da3b3a" y="40.801803"/>
     <use style="stroke:#000000;" x="315.239376" xlink:href="#ma5d7da3b3a" y="40.793813"/>
     <use style="stroke:#000000;" x="316.770974" xlink:href="#ma5d7da3b3a" y="40.785822"/>
     <use style="stroke:#000000;" x="318.302874" xlink:href="#ma5d7da3b3a" y="40.777832"/>
     <use style="stroke:#000000;" x="319.834472" xlink:href="#ma5d7da3b3a" y="40.770456"/>
     <use style="stroke:#000000;" x="321.36607" xlink:href="#ma5d7da3b3a" y="40.76308"/>
     <use style="stroke:#000000;" x="322.89797" xlink:href="#ma5d7da3b3a" y="40.756319"/>
     <use style="stroke:#000000;" x="324.429568" xlink:href="#ma5d7da3b3a" y="40.748943"/>
     <use style="stroke:#000000;" x="325.961166" xlink:href="#ma5d7da3b3a" y="40.742796"/>
     <use style="stroke:#000000;" x="327.493066" xlink:href="#ma5d7da3b3a" y="40.736035"/>
     <use style="stroke:#000000;" x="329.024664" xlink:href="#ma5d7da3b3a" y="40.729888"/>
     <use style="stroke:#000000;" x="330.556262" xlink:href="#ma5d7da3b3a" y="40.723742"/>
     <use style="stroke:#000000;" x="332.088162" xlink:href="#ma5d7da3b3a" y="40.71821"/>
     <use style="stroke:#000000;" x="333.61976" xlink:href="#ma5d7da3b3a" y="40.712678"/>
     <use style="stroke:#000000;" x="335.151358" xlink:href="#ma5d7da3b3a" y="40.707146"/>
     <use style="stroke:#000000;" x="336.683258" xlink:href="#ma5d7da3b3a" y="40.702229"/>
     <use style="stroke:#000000;" x="338.214856" xlink:href="#ma5d7da3b3a" y="40.696697"/>
     <use style="stroke:#000000;" x="339.746454" xlink:href="#ma5d7da3b3a" y="40.691779"/>
     <use style="stroke:#000000;" x="341.278354" xlink:href="#ma5d7da3b3a" y="40.686862"/>
     <use style="stroke:#000000;" x="342.809952" xlink:href="#ma5d7da3b3a" y="40.682559"/>
     <use style="stroke:#000000;" x="344.34155" xlink:href="#ma5d7da3b3a" y="40.678257"/>
     <use style="stroke:#000000;" x="345.87345" xlink:href="#ma5d7da3b3a" y="40.673954"/>
     <use style="stroke:#000000;" x="347.405048" xlink:href="#ma5d7da3b3a" y="40.669652"/>
     <use style="stroke:#000000;" x="348.936948" xlink:href="#ma5d7da3b3a" y="40.665349"/>
     <use style="stroke:#000000;" x="350.468546" xlink:href="#ma5d7da3b3a" y="40.661661"/>
     <use style="stroke:#000000;" x="352.000143" xlink:href="#ma5d7da3b3a" y="40.657358"/>
     <use style="stroke:#000000;" x="353.532044" xlink:href="#ma5d7da3b3a" y="40.65367"/>
     <use style="stroke:#000000;" x="355.063641" xlink:href="#ma5d7da3b3a" y="40.649982"/>
     <use style="stroke:#000000;" x="356.595239" xlink:href="#ma5d7da3b3a" y="40.646909"/>
     <use style="stroke:#000000;" x="358.12714" xlink:href="#ma5d7da3b3a" y="40.643221"/>
     <use style="stroke:#000000;" x="359.658737" xlink:href="#ma5d7da3b3a" y="40.640148"/>
     <use style="stroke:#000000;" x="361.190335" xlink:href="#ma5d7da3b3a" y="40.637075"/>
     <use style="stroke:#000000;" x="362.722235" xlink:href="#ma5d7da3b3a" y="40.634001"/>
     <use style="stroke:#000000;" x="364.253833" xlink:href="#ma5d7da3b3a" y="40.630928"/>
     <use style="stroke:#000000;" x="365.785431" xlink:href="#ma5d7da3b3a" y="40.627855"/>
     <use style="stroke:#000000;" x="367.317331" xlink:href="#ma5d7da3b3a" y="40.624781"/>
     <use style="stroke:#000000;" x="368.848929" xlink:href="#ma5d7da3b3a" y="40.622323"/>
     <use style="stroke:#000000;" x="370.380527" xlink:href="#ma5d7da3b3a" y="40.619249"/>
     <use style="stroke:#000000;" x="371.912125" xlink:href="#ma5d7da3b3a" y="40.616791"/>
    </g>
   </g>
   <g id="line2d_17">
    <path clip-path="url(#paf34393ec0)" d="M 68.546307 220.208358 
L 68.761867 220.104142 
L 69.051196 219.676941 
L 69.483526 218.559677 
L 70.12144 216.170948 
L 71.058659 211.696628 
L 72.869609 201.752563 
L 76.830117 179.993256 
L 79.551076 166.295093 
L 82.272036 153.738258 
L 84.811598 143.02517 
L 87.441859 132.899069 
L 90.132585 123.499582 
L 92.793079 115.087038 
L 95.181477 108.223093 
L 97.902436 101.127823 
L 100.593163 94.804774 
L 102.709465 90.271336 
L 105.128095 85.527977 
L 107.849055 80.690667 
L 110.570014 76.334181 
L 113.290974 72.405939 
L 116.011933 68.862909 
L 119.346318 64.987606 
L 122.406793 61.821529 
L 125.466965 58.985657 
L 128.527137 56.447023 
L 131.587612 54.172219 
L 134.647785 52.12985 
L 138.728317 49.710915 
L 142.808547 47.604832 
L 146.889079 45.766093 
L 150.969309 44.158611 
L 156.069898 42.427516 
L 161.170488 40.95984 
L 166.270776 39.713273 
L 172.391423 38.461309 
L 178.51207 37.425476 
L 185.652775 36.446004 
L 193.813537 35.562716 
L 202.994356 34.797257 
L 213.195233 34.16142 
L 226.456585 33.574693 
L 242.778109 33.100392 
L 263.180166 32.739214 
L 292.263897 32.461306 
L 338.214856 32.267082 
L 371.912125 32.201761 
L 371.912125 32.201761 
" style="fill:none;stroke:#0000ff;stroke-dasharray:5.55,2.4;stroke-dashoffset:0;stroke-width:1.5;"/>
   </g>
   <g id="line2d_18">
    <path clip-path="url(#paf34393ec0)" d="M 68.546307 229.874488 
L 68.745542 229.767853 
L 69.02701 229.300839 
L 69.42306 228.164684 
L 70.045858 225.620572 
L 71.173544 219.873601 
L 75.046377 199.589888 
L 77.465007 188.292115 
L 80.185967 176.622692 
L 83.027858 165.403307 
L 85.960447 154.747497 
L 88.953503 144.759749 
L 91.916325 135.695399 
L 94.879148 127.396364 
L 97.448943 120.778255 
L 100.290834 114.049438 
L 102.709465 108.777697 
L 105.732753 102.739514 
L 108.453712 97.78922 
L 111.174672 93.272814 
L 113.895631 89.144025 
L 116.628079 85.370564 
L 119.346318 81.963571 
L 122.406793 78.500075 
L 125.466965 75.397634 
L 128.527137 72.61799 
L 131.587612 70.133693 
L 134.647785 67.909211 
L 138.728317 65.324848 
L 141.788489 63.629472 
L 145.869021 61.649602 
L 149.949251 59.950853 
L 154.029784 58.496398 
L 158.110013 57.248092 
L 163.210603 55.932122 
L 168.311193 54.841767 
L 174.431538 53.776421 
L 180.552185 52.921067 
L 187.692889 52.130939 
L 195.853652 51.43892 
L 206.054831 50.804123 
L 218.295823 50.274413 
L 233.59729 49.840441 
L 253.999346 49.495182 
L 284.605303 49.228541 
L 335.151358 49.047144 
L 371.912125 48.98928 
L 371.912125 48.98928 
" style="fill:none;stroke:#0000ff;stroke-dasharray:5.55,2.4;stroke-dashoffset:0;stroke-width:1.5;"/>
   </g>
   <g id="line2d_19"/>
   <g id="line2d_20"/>
   <g id="line2d_21"/>
   <g id="line2d_22"/>
   <g id="line2d_23"/>
   <g id="line2d_24"/>
   <g id="patch_3">
    <path d="M 53.328125 239.758125 
L 53.328125 22.318125 
" style="fill:none;stroke:#000000;stroke-linecap:square;stroke-linejoin:miter;stroke-width:0.8;"/>
   </g>
   <g id="patch_4">
    <path d="M 388.128125 239.758125 
L 388.128125 22.318125 
" style="fill:none;stroke:#000000;stroke-linecap:square;stroke-linejoin:miter;stroke-width:0.8;"/>
   </g>
   <g id="patch_5">
    <path d="M 53.328125 239.758125 
L 388.128125 239.758125 
" style="fill:none;stroke:#000000;stroke-linecap:square;stroke-linejoin:miter;stroke-width:0.8;"/>
   </g>
   <g id="patch_6">
    <path d="M 53.328125 22.318125 
L 388.128125 22.318125 
" style="fill:none;stroke:#000000;stroke-linecap:square;stroke-linejoin:miter;stroke-width:0.8;"/>
   </g>
   <g id="text_16">
    <!-- Experiment_18 -->
    <defs>
     <path d="M 9.8125 72.90625 
L 55.90625 72.90625 
L 55.90625 64.59375 
L 19.671875 64.59375 
L 19.671875 43.015625 
L 54.390625 43.015625 
L 54.390625 34.71875 
L 19.671875 34.71875 
L 19.671875 8.296875 
L 56.78125 8.296875 
L 56.78125 0 
L 9.8125 0 
z
" id="DejaVuSans-45"/>
     <path d="M 54.890625 54.6875 
L 35.109375 28.078125 
L 55.90625 0 
L 45.3125 0 
L 29.390625 21.484375 
L 13.484375 0 
L 2.875 0 
L 24.125 28.609375 
L 4.6875 54.6875 
L 15.28125 54.6875 
L 29.78125 35.203125 
L 44.28125 54.6875 
z
" id="DejaVuSans-78"/>
     <path d="M 41.109375 46.296875 
Q 39.59375 47.171875 37.8125 47.578125 
Q 36.03125 48 33.890625 48 
Q 26.265625 48 22.1875 43.046875 
Q 18.109375 38.09375 18.109375 28.8125 
L 18.109375 0 
L 9.078125 0 
L 9.078125 54.6875 
L 18.109375 54.6875 
L 18.109375 46.1875 
Q 20.953125 51.171875 25.484375 53.578125 
Q 30.03125 56 36.53125 56 
Q 37.453125 56 38.578125 55.875 
Q 39.703125 55.765625 41.0625 55.515625 
z
" id="DejaVuSans-72"/>
     <path d="M 54.890625 33.015625 
L 54.890625 0 
L 45.90625 0 
L 45.90625 32.71875 
Q 45.90625 40.484375 42.875 44.328125 
Q 39.84375 48.1875 33.796875 48.1875 
Q 26.515625 48.1875 22.3125 43.546875 
Q 18.109375 38.921875 18.109375 30.90625 
L 18.109375 0 
L 9.078125 0 
L 9.078125 54.6875 
L 18.109375 54.6875 
L 18.109375 46.1875 
Q 21.34375 51.125 25.703125 53.5625 
Q 30.078125 56 35.796875 56 
Q 45.21875 56 50.046875 50.171875 
Q 54.890625 44.34375 54.890625 33.015625 
z
" id="DejaVuSans-6e"/>
     <path d="M 18.3125 70.21875 
L 18.3125 54.6875 
L 36.8125 54.6875 
L 36.8125 47.703125 
L 18.3125 47.703125 
L 18.3125 18.015625 
Q 18.3125 11.328125 20.140625 9.421875 
Q 21.96875 7.515625 27.59375 7.515625 
L 36.8125 7.515625 
L 36.8125 0 
L 27.59375 0 
Q 17.1875 0 13.234375 3.875 
Q 9.28125 7.765625 9.28125 18.015625 
L 9.28125 47.703125 
L 2.6875 47.703125 
L 2.6875 54.6875 
L 9.28125 54.6875 
L 9.28125 70.21875 
z
" id="DejaVuSans-74"/>
     <path d="M 50.984375 -16.609375 
L 50.984375 -23.578125 
L -0.984375 -23.578125 
L -0.984375 -16.609375 
z
" id="DejaVuSans-5f"/>
    </defs>
    <g transform="translate(175.425313 16.318125)scale(0.12 -0.12)">
     <use xlink:href="#DejaVuSans-45"/>
     <use x="63.183594" xlink:href="#DejaVuSans-78"/>
     <use x="122.363281" xlink:href="#DejaVuSans-70"/>
     <use x="185.839844" xlink:href="#DejaVuSans-65"/>
     <use x="247.363281" xlink:href="#DejaVuSans-72"/>
     <use x="288.476562" xlink:href="#DejaVuSans-69"/>
     <use x="316.259766" xlink:href="#DejaVuSans-6d"/>
     <use x="413.671875" xlink:href="#DejaVuSans-65"/>
     <use x="475.195312" xlink:href="#DejaVuSans-6e"/>
     <use x="538.574219" xlink:href="#DejaVuSans-74"/>
     <use x="577.783203" xlink:href="#DejaVuSans-5f"/>
     <use x="627.783203" xlink:href="#DejaVuSans-31"/>
     <use x="691.40625" xlink:href="#DejaVuSans-38"/>
    </g>
   </g>
   <g id="legend_1">
    <g id="patch_7">
     <path d="M 125.007812 234.758125 
L 381.128125 234.758125 
Q 383.128125 234.758125 383.128125 232.758125 
L 383.128125 160.345625 
Q 383.128125 158.345625 381.128125 158.345625 
L 125.007812 158.345625 
Q 123.007812 158.345625 123.007812 160.345625 
L 123.007812 232.758125 
Q 123.007812 234.758125 125.007812 234.758125 
z
" style="fill:#ffffff;opacity:0.8;stroke:#cccccc;stroke-linejoin:miter;"/>
    </g>
    <g id="line2d_25">
     <path d="M 127.007812 166.444062 
L 147.007812 166.444062 
" style="fill:none;stroke:#0000ff;stroke-linecap:square;stroke-width:1.5;"/>
    </g>
    <g id="line2d_26"/>
    <g id="text_17">
     <!-- MSI -->
     <defs>
      <path d="M 9.8125 72.90625 
L 24.515625 72.90625 
L 43.109375 23.296875 
L 61.8125 72.90625 
L 76.515625 72.90625 
L 76.515625 0 
L 66.890625 0 
L 66.890625 64.015625 
L 48.09375 14.015625 
L 38.1875 14.015625 
L 19.390625 64.015625 
L 19.390625 0 
L 9.8125 0 
z
" id="DejaVuSans-4d"/>
      <path d="M 53.515625 70.515625 
L 53.515625 60.890625 
Q 47.90625 63.578125 42.921875 64.890625 
Q 37.9375 66.21875 33.296875 66.21875 
Q 25.25 66.21875 20.875 63.09375 
Q 16.5 59.96875 16.5 54.203125 
Q 16.5 49.359375 19.40625 46.890625 
Q 22.3125 44.4375 30.421875 42.921875 
L 36.375 41.703125 
Q 47.40625 39.59375 52.65625 34.296875 
Q 57.90625 29 57.90625 20.125 
Q 57.90625 9.515625 50.796875 4.046875 
Q 43.703125 -1.421875 29.984375 -1.421875 
Q 24.8125 -1.421875 18.96875 -0.25 
Q 13.140625 0.921875 6.890625 3.21875 
L 6.890625 13.375 
Q 12.890625 10.015625 18.65625 8.296875 
Q 24.421875 6.59375 29.984375 6.59375 
Q 38.421875 6.59375 43.015625 9.90625 
Q 47.609375 13.234375 47.609375 19.390625 
Q 47.609375 24.75 44.3125 27.78125 
Q 41.015625 30.8125 33.5 32.328125 
L 27.484375 33.5 
Q 16.453125 35.6875 11.515625 40.375 
Q 6.59375 45.0625 6.59375 53.421875 
Q 6.59375 63.09375 13.40625 68.65625 
Q 20.21875 74.21875 32.171875 74.21875 
Q 37.3125 74.21875 42.625 73.28125 
Q 47.953125 72.359375 53.515625 70.515625 
z
" id="DejaVuSans-53"/>
      <path d="M 9.8125 72.90625 
L 19.671875 72.90625 
L 19.671875 0 
L 9.8125 0 
z
" id="DejaVuSans-49"/>
     </defs>
     <g transform="translate(155.007812 169.944062)scale(0.1 -0.1)">
      <use xlink:href="#DejaVuSans-4d"/>
      <use x="86.279297" xlink:href="#DejaVuSans-53"/>
      <use x="149.755859" xlink:href="#DejaVuSans-49"/>
     </g>
    </g>
    <g id="line2d_27">
     <path d="M 127.007812 181.12375 
L 147.007812 181.12375 
" style="fill:none;stroke:#ff0000;stroke-linecap:square;stroke-width:1.5;"/>
    </g>
    <g id="line2d_28"/>
    <g id="text_18">
     <!-- $\it{A priori}$ model -->
     <defs>
      <path d="M 36.8125 72.90625 
L 48 72.90625 
L 61.53125 0 
L 51.21875 0 
L 48.1875 18.703125 
L 15.375 18.703125 
L 5.078125 0 
L -5.328125 0 
z
M 40.375 63.1875 
L 19.921875 26.90625 
L 46.6875 26.90625 
z
" id="DejaVuSans-Oblique-41"/>
      <path d="M 49.609375 33.6875 
Q 49.609375 40.875 46.484375 44.671875 
Q 43.359375 48.484375 37.5 48.484375 
Q 33.5 48.484375 29.859375 46.4375 
Q 26.21875 44.390625 23.390625 40.484375 
Q 20.609375 36.625 18.9375 31.15625 
Q 17.28125 25.6875 17.28125 20.3125 
Q 17.28125 13.484375 20.40625 9.796875 
Q 23.53125 6.109375 29.296875 6.109375 
Q 33.546875 6.109375 37.1875 8.109375 
Q 40.828125 10.109375 43.40625 13.921875 
Q 46.1875 17.921875 47.890625 23.34375 
Q 49.609375 28.765625 49.609375 33.6875 
z
M 21.78125 46.390625 
Q 25.390625 51.125 30.296875 53.5625 
Q 35.203125 56 41.21875 56 
Q 49.609375 56 54.25 50.5 
Q 58.890625 45.015625 58.890625 35.109375 
Q 58.890625 27 56 19.65625 
Q 53.125 12.3125 47.703125 6.5 
Q 44.09375 2.640625 39.546875 0.609375 
Q 35.015625 -1.421875 29.984375 -1.421875 
Q 24.171875 -1.421875 20.21875 1 
Q 16.265625 3.421875 14.3125 8.203125 
L 8.6875 -20.796875 
L -0.296875 -20.796875 
L 14.40625 54.6875 
L 23.390625 54.6875 
z
" id="DejaVuSans-Oblique-70"/>
      <path d="M 44.578125 46.390625 
Q 43.21875 47.125 41.453125 47.515625 
Q 39.703125 47.90625 37.703125 47.90625 
Q 30.515625 47.90625 25.140625 42.453125 
Q 19.78125 37.015625 18.015625 27.875 
L 12.5 0 
L 3.515625 0 
L 14.203125 54.6875 
L 23.1875 54.6875 
L 21.484375 46.1875 
Q 25.046875 50.921875 30 53.453125 
Q 34.96875 56 40.578125 56 
Q 42.046875 56 43.453125 55.828125 
Q 44.875 55.671875 46.296875 55.28125 
z
" id="DejaVuSans-Oblique-72"/>
      <path d="M 18.3125 75.984375 
L 27.296875 75.984375 
L 25.09375 64.59375 
L 16.109375 64.59375 
z
M 14.203125 54.6875 
L 23.1875 54.6875 
L 12.5 0 
L 3.515625 0 
z
" id="DejaVuSans-Oblique-69"/>
      <path d="M 25.390625 -1.421875 
Q 15.765625 -1.421875 10.171875 4.515625 
Q 4.59375 10.453125 4.59375 20.703125 
Q 4.59375 26.65625 6.515625 32.828125 
Q 8.453125 39.015625 11.53125 43.21875 
Q 16.359375 49.75 22.3125 52.875 
Q 28.265625 56 35.796875 56 
Q 45.125 56 50.859375 50.1875 
Q 56.59375 44.390625 56.59375 35.015625 
Q 56.59375 28.515625 54.6875 22.0625 
Q 52.78125 15.625 49.703125 11.375 
Q 44.921875 4.828125 38.96875 1.703125 
Q 33.015625 -1.421875 25.390625 -1.421875 
z
M 13.921875 21 
Q 13.921875 13.578125 17.015625 9.890625 
Q 20.125 6.203125 26.421875 6.203125 
Q 35.453125 6.203125 41.375 14.078125 
Q 47.3125 21.96875 47.3125 34.078125 
Q 47.3125 41.15625 44.140625 44.765625 
Q 40.96875 48.390625 34.8125 48.390625 
Q 29.734375 48.390625 25.78125 46.015625 
Q 21.828125 43.65625 18.703125 38.8125 
Q 16.40625 35.203125 15.15625 30.5625 
Q 13.921875 25.921875 13.921875 21 
z
" id="DejaVuSans-Oblique-6f"/>
      <path d="M 30.609375 48.390625 
Q 23.390625 48.390625 19.1875 42.75 
Q 14.984375 37.109375 14.984375 27.296875 
Q 14.984375 17.484375 19.15625 11.84375 
Q 23.34375 6.203125 30.609375 6.203125 
Q 37.796875 6.203125 41.984375 11.859375 
Q 46.1875 17.53125 46.1875 27.296875 
Q 46.1875 37.015625 41.984375 42.703125 
Q 37.796875 48.390625 30.609375 48.390625 
z
M 30.609375 56 
Q 42.328125 56 49.015625 48.375 
Q 55.71875 40.765625 55.71875 27.296875 
Q 55.71875 13.875 49.015625 6.21875 
Q 42.328125 -1.421875 30.609375 -1.421875 
Q 18.84375 -1.421875 12.171875 6.21875 
Q 5.515625 13.875 5.515625 27.296875 
Q 5.515625 40.765625 12.171875 48.375 
Q 18.84375 56 30.609375 56 
z
" id="DejaVuSans-6f"/>
      <path d="M 45.40625 46.390625 
L 45.40625 75.984375 
L 54.390625 75.984375 
L 54.390625 0 
L 45.40625 0 
L 45.40625 8.203125 
Q 42.578125 3.328125 38.25 0.953125 
Q 33.9375 -1.421875 27.875 -1.421875 
Q 17.96875 -1.421875 11.734375 6.484375 
Q 5.515625 14.40625 5.515625 27.296875 
Q 5.515625 40.1875 11.734375 48.09375 
Q 17.96875 56 27.875 56 
Q 33.9375 56 38.25 53.625 
Q 42.578125 51.265625 45.40625 46.390625 
z
M 14.796875 27.296875 
Q 14.796875 17.390625 18.875 11.75 
Q 22.953125 6.109375 30.078125 6.109375 
Q 37.203125 6.109375 41.296875 11.75 
Q 45.40625 17.390625 45.40625 27.296875 
Q 45.40625 37.203125 41.296875 42.84375 
Q 37.203125 48.484375 30.078125 48.484375 
Q 22.953125 48.484375 18.875 42.84375 
Q 14.796875 37.203125 14.796875 27.296875 
z
" id="DejaVuSans-64"/>
      <path d="M 9.421875 75.984375 
L 18.40625 75.984375 
L 18.40625 0 
L 9.421875 0 
z
" id="DejaVuSans-6c"/>
     </defs>
     <g transform="translate(155.007812 184.62375)scale(0.1 -0.1)">
      <use transform="translate(0 0.015625)" xlink:href="#DejaVuSans-Oblique-41"/>
      <use transform="translate(68.408203 0.015625)" xlink:href="#DejaVuSans-Oblique-70"/>
      <use transform="translate(131.884766 0.015625)" xlink:href="#DejaVuSans-Oblique-72"/>
      <use transform="translate(172.998047 0.015625)" xlink:href="#DejaVuSans-Oblique-69"/>
      <use transform="translate(200.78125 0.015625)" xlink:href="#DejaVuSans-Oblique-6f"/>
      <use transform="translate(261.962891 0.015625)" xlink:href="#DejaVuSans-Oblique-72"/>
      <use transform="translate(303.076172 0.015625)" xlink:href="#DejaVuSans-Oblique-69"/>
      <use transform="translate(330.859375 0.015625)" xlink:href="#DejaVuSans-20"/>
      <use transform="translate(362.646484 0.015625)" xlink:href="#DejaVuSans-6d"/>
      <use transform="translate(460.058594 0.015625)" xlink:href="#DejaVuSans-6f"/>
      <use transform="translate(521.240234 0.015625)" xlink:href="#DejaVuSans-64"/>
      <use transform="translate(584.716797 0.015625)" xlink:href="#DejaVuSans-65"/>
      <use transform="translate(646.240234 0.015625)" xlink:href="#DejaVuSans-6c"/>
     </g>
    </g>
    <g id="line2d_29"/>
    <g id="line2d_30">
     <g>
      <use style="stroke:#000000;" x="137.007812" xlink:href="#ma5d7da3b3a" y="195.822187"/>
     </g>
    </g>
    <g id="text_19">
     <!-- Experimental Data -->
     <defs>
      <path d="M 34.28125 27.484375 
Q 23.390625 27.484375 19.1875 25 
Q 14.984375 22.515625 14.984375 16.5 
Q 14.984375 11.71875 18.140625 8.90625 
Q 21.296875 6.109375 26.703125 6.109375 
Q 34.1875 6.109375 38.703125 11.40625 
Q 43.21875 16.703125 43.21875 25.484375 
L 43.21875 27.484375 
z
M 52.203125 31.203125 
L 52.203125 0 
L 43.21875 0 
L 43.21875 8.296875 
Q 40.140625 3.328125 35.546875 0.953125 
Q 30.953125 -1.421875 24.3125 -1.421875 
Q 15.921875 -1.421875 10.953125 3.296875 
Q 6 8.015625 6 15.921875 
Q 6 25.140625 12.171875 29.828125 
Q 18.359375 34.515625 30.609375 34.515625 
L 43.21875 34.515625 
L 43.21875 35.40625 
Q 43.21875 41.609375 39.140625 45 
Q 35.0625 48.390625 27.6875 48.390625 
Q 23 48.390625 18.546875 47.265625 
Q 14.109375 46.140625 10.015625 43.890625 
L 10.015625 52.203125 
Q 14.9375 54.109375 19.578125 55.046875 
Q 24.21875 56 28.609375 56 
Q 40.484375 56 46.34375 49.84375 
Q 52.203125 43.703125 52.203125 31.203125 
z
" id="DejaVuSans-61"/>
      <path d="M 19.671875 64.796875 
L 19.671875 8.109375 
L 31.59375 8.109375 
Q 46.6875 8.109375 53.6875 14.9375 
Q 60.6875 21.78125 60.6875 36.53125 
Q 60.6875 51.171875 53.6875 57.984375 
Q 46.6875 64.796875 31.59375 64.796875 
z
M 9.8125 72.90625 
L 30.078125 72.90625 
Q 51.265625 72.90625 61.171875 64.09375 
Q 71.09375 55.28125 71.09375 36.53125 
Q 71.09375 17.671875 61.125 8.828125 
Q 51.171875 0 30.078125 0 
L 9.8125 0 
z
" id="DejaVuSans-44"/>
     </defs>
     <g transform="translate(155.007812 199.322187)scale(0.1 -0.1)">
      <use xlink:href="#DejaVuSans-45"/>
      <use x="63.183594" xlink:href="#DejaVuSans-78"/>
      <use x="122.363281" xlink:href="#DejaVuSans-70"/>
      <use x="185.839844" xlink:href="#DejaVuSans-65"/>
      <use x="247.363281" xlink:href="#DejaVuSans-72"/>
      <use x="288.476562" xlink:href="#DejaVuSans-69"/>
      <use x="316.259766" xlink:href="#DejaVuSans-6d"/>
      <use x="413.671875" xlink:href="#DejaVuSans-65"/>
      <use x="475.195312" xlink:href="#DejaVuSans-6e"/>
      <use x="538.574219" xlink:href="#DejaVuSans-74"/>
      <use x="577.783203" xlink:href="#DejaVuSans-61"/>
      <use x="639.0625" xlink:href="#DejaVuSans-6c"/>
      <use x="666.845703" xlink:href="#DejaVuSans-20"/>
      <use x="698.632812" xlink:href="#DejaVuSans-44"/>
      <use x="775.634766" xlink:href="#DejaVuSans-61"/>
      <use x="836.914062" xlink:href="#DejaVuSans-74"/>
      <use x="876.123047" xlink:href="#DejaVuSans-61"/>
     </g>
    </g>
    <g id="line2d_31">
     <path d="M 127.007812 210.500312 
L 147.007812 210.500312 
" style="fill:none;stroke:#ffffff;stroke-linecap:square;stroke-width:1.5;"/>
    </g>
    <g id="line2d_32"/>
    <g id="text_20">
     <!-- T:1244 -->
     <defs>
      <path d="M 11.71875 12.40625 
L 22.015625 12.40625 
L 22.015625 0 
L 11.71875 0 
z
M 11.71875 51.703125 
L 22.015625 51.703125 
L 22.015625 39.3125 
L 11.71875 39.3125 
z
" id="DejaVuSans-3a"/>
     </defs>
     <g transform="translate(155.007812 214.000312)scale(0.1 -0.1)">
      <use xlink:href="#DejaVuSans-54"/>
      <use x="60.912109" xlink:href="#DejaVuSans-3a"/>
      <use x="94.603516" xlink:href="#DejaVuSans-31"/>
      <use x="158.226562" xlink:href="#DejaVuSans-32"/>
      <use x="221.849609" xlink:href="#DejaVuSans-34"/>
      <use x="285.472656" xlink:href="#DejaVuSans-34"/>
     </g>
    </g>
    <g id="line2d_33">
     <path d="M 127.007812 225.178437 
L 147.007812 225.178437 
" style="fill:none;stroke:#ffffff;stroke-linecap:square;stroke-width:1.5;"/>
    </g>
    <g id="line2d_34"/>
    <g id="text_21">
     <!-- P:1.546 -->
     <defs>
      <path d="M 19.671875 64.796875 
L 19.671875 37.40625 
L 32.078125 37.40625 
Q 38.96875 37.40625 42.71875 40.96875 
Q 46.484375 44.53125 46.484375 51.125 
Q 46.484375 57.671875 42.71875 61.234375 
Q 38.96875 64.796875 32.078125 64.796875 
z
M 9.8125 72.90625 
L 32.078125 72.90625 
Q 44.34375 72.90625 50.609375 67.359375 
Q 56.890625 61.8125 56.890625 51.125 
Q 56.890625 40.328125 50.609375 34.8125 
Q 44.34375 29.296875 32.078125 29.296875 
L 19.671875 29.296875 
L 19.671875 0 
L 9.8125 0 
z
" id="DejaVuSans-50"/>
     </defs>
     <g transform="translate(155.007812 228.678437)scale(0.1 -0.1)">
      <use xlink:href="#DejaVuSans-50"/>
      <use x="60.302734" xlink:href="#DejaVuSans-3a"/>
      <use x="93.994141" xlink:href="#DejaVuSans-31"/>
      <use x="157.617188" xlink:href="#DejaVuSans-2e"/>
      <use x="189.404297" xlink:href="#DejaVuSans-35"/>
      <use x="253.027344" xlink:href="#DejaVuSans-34"/>
      <use x="316.650391" xlink:href="#DejaVuSans-36"/>
     </g>
    </g>
    <g id="line2d_35">
     <path d="M 268.748438 166.444062 
L 288.748438 166.444062 
" style="fill:none;stroke:#ffffff;stroke-linecap:square;stroke-width:1.5;"/>
    </g>
    <g id="line2d_36"/>
    <g id="text_22">
     <!-- H2O2: 0.003036 -->
     <g transform="translate(296.748438 169.944062)scale(0.1 -0.1)">
      <use xlink:href="#DejaVuSans-48"/>
      <use x="75.195312" xlink:href="#DejaVuSans-32"/>
      <use x="138.818359" xlink:href="#DejaVuSans-4f"/>
      <use x="217.529297" xlink:href="#DejaVuSans-32"/>
      <use x="281.152344" xlink:href="#DejaVuSans-3a"/>
      <use x="314.84375" xlink:href="#DejaVuSans-20"/>
      <use x="346.630859" xlink:href="#DejaVuSans-30"/>
      <use x="410.253906" xlink:href="#DejaVuSans-2e"/>
      <use x="442.041016" xlink:href="#DejaVuSans-30"/>
      <use x="505.664062" xlink:href="#DejaVuSans-30"/>
      <use x="569.287109" xlink:href="#DejaVuSans-33"/>
      <use x="632.910156" xlink:href="#DejaVuSans-30"/>
      <use x="696.533203" xlink:href="#DejaVuSans-33"/>
      <use x="760.15625" xlink:href="#DejaVuSans-36"/>
     </g>
    </g>
    <g id="line2d_37">
     <path d="M 268.748438 181.122187 
L 288.748438 181.122187 
" style="fill:none;stroke:#ffffff;stroke-linecap:square;stroke-width:1.5;"/>
    </g>
    <g id="line2d_38"/>
    <g id="text_23">
     <!-- H2O: 0.001113 -->
     <g transform="translate(296.748438 184.622187)scale(0.1 -0.1)">
      <use xlink:href="#DejaVuSans-48"/>
      <use x="75.195312" xlink:href="#DejaVuSans-32"/>
      <use x="138.818359" xlink:href="#DejaVuSans-4f"/>
      <use x="217.513672" xlink:href="#DejaVuSans-3a"/>
      <use x="251.205078" xlink:href="#DejaVuSans-20"/>
      <use x="282.992188" xlink:href="#DejaVuSans-30"/>
      <use x="346.615234" xlink:href="#DejaVuSans-2e"/>
      <use x="378.402344" xlink:href="#DejaVuSans-30"/>
      <use x="442.025391" xlink:href="#DejaVuSans-30"/>
      <use x="505.648438" xlink:href="#DejaVuSans-31"/>
      <use x="569.271484" xlink:href="#DejaVuSans-31"/>
      <use x="632.894531" xlink:href="#DejaVuSans-31"/>
      <use x="696.517578" xlink:href="#DejaVuSans-33"/>
     </g>
    </g>
    <g id="line2d_39">
     <path d="M 268.748438 195.800312 
L 288.748438 195.800312 
" style="fill:none;stroke:#ffffff;stroke-linecap:square;stroke-width:1.5;"/>
    </g>
    <g id="line2d_40"/>
    <g id="text_24">
     <!-- O2: 0.000556 -->
     <g transform="translate(296.748438 199.300312)scale(0.1 -0.1)">
      <use xlink:href="#DejaVuSans-4f"/>
      <use x="78.710938" xlink:href="#DejaVuSans-32"/>
      <use x="142.333984" xlink:href="#DejaVuSans-3a"/>
      <use x="176.025391" xlink:href="#DejaVuSans-20"/>
      <use x="207.8125" xlink:href="#DejaVuSans-30"/>
      <use x="271.435547" xlink:href="#DejaVuSans-2e"/>
      <use x="303.222656" xlink:href="#DejaVuSans-30"/>
      <use x="366.845703" xlink:href="#DejaVuSans-30"/>
      <use x="430.46875" xlink:href="#DejaVuSans-30"/>
      <use x="494.091797" xlink:href="#DejaVuSans-35"/>
      <use x="557.714844" xlink:href="#DejaVuSans-35"/>
      <use x="621.337891" xlink:href="#DejaVuSans-36"/>
     </g>
    </g>
    <g id="line2d_41">
     <path d="M 268.748438 210.478437 
L 288.748438 210.478437 
" style="fill:none;stroke:#ffffff;stroke-linecap:square;stroke-width:1.5;"/>
    </g>
    <g id="line2d_42"/>
    <g id="text_25">
     <!-- Ar: 0.99527 -->
     <defs>
      <path d="M 34.1875 63.1875 
L 20.796875 26.90625 
L 47.609375 26.90625 
z
M 28.609375 72.90625 
L 39.796875 72.90625 
L 67.578125 0 
L 57.328125 0 
L 50.6875 18.703125 
L 17.828125 18.703125 
L 11.1875 0 
L 0.78125 0 
z
" id="DejaVuSans-41"/>
      <path d="M 10.984375 1.515625 
L 10.984375 10.5 
Q 14.703125 8.734375 18.5 7.8125 
Q 22.3125 6.890625 25.984375 6.890625 
Q 35.75 6.890625 40.890625 13.453125 
Q 46.046875 20.015625 46.78125 33.40625 
Q 43.953125 29.203125 39.59375 26.953125 
Q 35.25 24.703125 29.984375 24.703125 
Q 19.046875 24.703125 12.671875 31.3125 
Q 6.296875 37.9375 6.296875 49.421875 
Q 6.296875 60.640625 12.9375 67.421875 
Q 19.578125 74.21875 30.609375 74.21875 
Q 43.265625 74.21875 49.921875 64.515625 
Q 56.59375 54.828125 56.59375 36.375 
Q 56.59375 19.140625 48.40625 8.859375 
Q 40.234375 -1.421875 26.421875 -1.421875 
Q 22.703125 -1.421875 18.890625 -0.6875 
Q 15.09375 0.046875 10.984375 1.515625 
z
M 30.609375 32.421875 
Q 37.25 32.421875 41.125 36.953125 
Q 45.015625 41.5 45.015625 49.421875 
Q 45.015625 57.28125 41.125 61.84375 
Q 37.25 66.40625 30.609375 66.40625 
Q 23.96875 66.40625 20.09375 61.84375 
Q 16.21875 57.28125 16.21875 49.421875 
Q 16.21875 41.5 20.09375 36.953125 
Q 23.96875 32.421875 30.609375 32.421875 
z
" id="DejaVuSans-39"/>
      <path d="M 8.203125 72.90625 
L 55.078125 72.90625 
L 55.078125 68.703125 
L 28.609375 0 
L 18.3125 0 
L 43.21875 64.59375 
L 8.203125 64.59375 
z
" id="DejaVuSans-37"/>
     </defs>
     <g transform="translate(296.748438 213.978437)scale(0.1 -0.1)">
      <use xlink:href="#DejaVuSans-41"/>
      <use x="68.408203" xlink:href="#DejaVuSans-72"/>
      <use x="109.505859" xlink:href="#DejaVuSans-3a"/>
      <use x="143.197266" xlink:href="#DejaVuSans-20"/>
      <use x="174.984375" xlink:href="#DejaVuSans-30"/>
      <use x="238.607422" xlink:href="#DejaVuSans-2e"/>
      <use x="270.394531" xlink:href="#DejaVuSans-39"/>
      <use x="334.017578" xlink:href="#DejaVuSans-39"/>
      <use x="397.640625" xlink:href="#DejaVuSans-35"/>
      <use x="461.263672" xlink:href="#DejaVuSans-32"/>
      <use x="524.886719" xlink:href="#DejaVuSans-37"/>
     </g>
    </g>
   </g>
  </g>
 </g>
 <defs>
  <clipPath id="paf34393ec0">
   <rect height="217.44" width="334.8" x="53.328125" y="22.318125"/>
  </clipPath>
 </defs>
</svg>
