<?xml version="1.0" encoding="utf-8" standalone="no"?>
<!DOCTYPE svg PUBLIC "-//W3C//DTD SVG 1.1//EN"
  "http://www.w3.org/Graphics/SVG/1.1/DTD/svg11.dtd">
<!-- Created with matplotlib (https://matplotlib.org/) -->
<svg height="277.314375pt" version="1.1" viewBox="0 0 398.828125 277.314375" width="398.828125pt" xmlns="http://www.w3.org/2000/svg" xmlns:xlink="http://www.w3.org/1999/xlink">
 <defs>
  <style type="text/css">
*{stroke-linecap:butt;stroke-linejoin:round;}
  </style>
 </defs>
 <g id="figure_1">
  <g id="patch_1">
   <path d="M 0 277.314375 
L 398.828125 277.314375 
L 398.828125 0 
L 0 0 
z
" style="fill:none;"/>
  </g>
  <g id="axes_1">
   <g id="patch_2">
    <path d="M 53.328125 239.758125 
L 388.128125 239.758125 
L 388.128125 22.318125 
L 53.328125 22.318125 
z
" style="fill:none;"/>
   </g>
   <g id="matplotlib.axis_1">
    <g id="xtick_1">
     <g id="line2d_1">
      <defs>
       <path d="M 0 0 
L 0 3.5 
" id="m549224a582" style="stroke:#000000;stroke-width:0.8;"/>
      </defs>
      <g>
       <use style="stroke:#000000;stroke-width:0.8;" x="68.546307" xlink:href="#m549224a582" y="239.758125"/>
      </g>
     </g>
     <g id="text_1">
      <!-- 0.00 -->
      <defs>
       <path d="M 31.78125 66.40625 
Q 24.171875 66.40625 20.328125 58.90625 
Q 16.5 51.421875 16.5 36.375 
Q 16.5 21.390625 20.328125 13.890625 
Q 24.171875 6.390625 31.78125 6.390625 
Q 39.453125 6.390625 43.28125 13.890625 
Q 47.125 21.390625 47.125 36.375 
Q 47.125 51.421875 43.28125 58.90625 
Q 39.453125 66.40625 31.78125 66.40625 
z
M 31.78125 74.21875 
Q 44.046875 74.21875 50.515625 64.515625 
Q 56.984375 54.828125 56.984375 36.375 
Q 56.984375 17.96875 50.515625 8.265625 
Q 44.046875 -1.421875 31.78125 -1.421875 
Q 19.53125 -1.421875 13.0625 8.265625 
Q 6.59375 17.96875 6.59375 36.375 
Q 6.59375 54.828125 13.0625 64.515625 
Q 19.53125 74.21875 31.78125 74.21875 
z
" id="DejaVuSans-48"/>
       <path d="M 10.6875 12.40625 
L 21 12.40625 
L 21 0 
L 10.6875 0 
z
" id="DejaVuSans-46"/>
      </defs>
      <g transform="translate(57.413494 254.356562)scale(0.1 -0.1)">
       <use xlink:href="#DejaVuSans-48"/>
       <use x="63.623047" xlink:href="#DejaVuSans-46"/>
       <use x="95.410156" xlink:href="#DejaVuSans-48"/>
       <use x="159.033203" xlink:href="#DejaVuSans-48"/>
      </g>
     </g>
    </g>
    <g id="xtick_2">
     <g id="line2d_2">
      <g>
       <use style="stroke:#000000;stroke-width:0.8;" x="106.459992" xlink:href="#m549224a582" y="239.758125"/>
      </g>
     </g>
     <g id="text_2">
      <!-- 0.25 -->
      <defs>
       <path d="M 19.1875 8.296875 
L 53.609375 8.296875 
L 53.609375 0 
L 7.328125 0 
L 7.328125 8.296875 
Q 12.9375 14.109375 22.625 23.890625 
Q 32.328125 33.6875 34.8125 36.53125 
Q 39.546875 41.84375 41.421875 45.53125 
Q 43.3125 49.21875 43.3125 52.78125 
Q 43.3125 58.59375 39.234375 62.25 
Q 35.15625 65.921875 28.609375 65.921875 
Q 23.96875 65.921875 18.8125 64.3125 
Q 13.671875 62.703125 7.8125 59.421875 
L 7.8125 69.390625 
Q 13.765625 71.78125 18.9375 73 
Q 24.125 74.21875 28.421875 74.21875 
Q 39.75 74.21875 46.484375 68.546875 
Q 53.21875 62.890625 53.21875 53.421875 
Q 53.21875 48.921875 51.53125 44.890625 
Q 49.859375 40.875 45.40625 35.40625 
Q 44.1875 33.984375 37.640625 27.21875 
Q 31.109375 20.453125 19.1875 8.296875 
z
" id="DejaVuSans-50"/>
       <path d="M 10.796875 72.90625 
L 49.515625 72.90625 
L 49.515625 64.59375 
L 19.828125 64.59375 
L 19.828125 46.734375 
Q 21.96875 47.46875 24.109375 47.828125 
Q 26.265625 48.1875 28.421875 48.1875 
Q 40.625 48.1875 47.75 41.5 
Q 54.890625 34.8125 54.890625 23.390625 
Q 54.890625 11.625 47.5625 5.09375 
Q 40.234375 -1.421875 26.90625 -1.421875 
Q 22.3125 -1.421875 17.546875 -0.640625 
Q 12.796875 0.140625 7.71875 1.703125 
L 7.71875 11.625 
Q 12.109375 9.234375 16.796875 8.0625 
Q 21.484375 6.890625 26.703125 6.890625 
Q 35.15625 6.890625 40.078125 11.328125 
Q 45.015625 15.765625 45.015625 23.390625 
Q 45.015625 31 40.078125 35.4375 
Q 35.15625 39.890625 26.703125 39.890625 
Q 22.75 39.890625 18.8125 39.015625 
Q 14.890625 38.140625 10.796875 36.28125 
z
" id="DejaVuSans-53"/>
      </defs>
      <g transform="translate(95.327179 254.356562)scale(0.1 -0.1)">
       <use xlink:href="#DejaVuSans-48"/>
       <use x="63.623047" xlink:href="#DejaVuSans-46"/>
       <use x="95.410156" xlink:href="#DejaVuSans-50"/>
       <use x="159.033203" xlink:href="#DejaVuSans-53"/>
      </g>
     </g>
    </g>
    <g id="xtick_3">
     <g id="line2d_3">
      <g>
       <use style="stroke:#000000;stroke-width:0.8;" x="144.373677" xlink:href="#m549224a582" y="239.758125"/>
      </g>
     </g>
     <g id="text_3">
      <!-- 0.50 -->
      <g transform="translate(133.240864 254.356562)scale(0.1 -0.1)">
       <use xlink:href="#DejaVuSans-48"/>
       <use x="63.623047" xlink:href="#DejaVuSans-46"/>
       <use x="95.410156" xlink:href="#DejaVuSans-53"/>
       <use x="159.033203" xlink:href="#DejaVuSans-48"/>
      </g>
     </g>
    </g>
    <g id="xtick_4">
     <g id="line2d_4">
      <g>
       <use style="stroke:#000000;stroke-width:0.8;" x="182.287362" xlink:href="#m549224a582" y="239.758125"/>
      </g>
     </g>
     <g id="text_4">
      <!-- 0.75 -->
      <defs>
       <path d="M 8.203125 72.90625 
L 55.078125 72.90625 
L 55.078125 68.703125 
L 28.609375 0 
L 18.3125 0 
L 43.21875 64.59375 
L 8.203125 64.59375 
z
" id="DejaVuSans-55"/>
      </defs>
      <g transform="translate(171.154549 254.356562)scale(0.1 -0.1)">
       <use xlink:href="#DejaVuSans-48"/>
       <use x="63.623047" xlink:href="#DejaVuSans-46"/>
       <use x="95.410156" xlink:href="#DejaVuSans-55"/>
       <use x="159.033203" xlink:href="#DejaVuSans-53"/>
      </g>
     </g>
    </g>
    <g id="xtick_5">
     <g id="line2d_5">
      <g>
       <use style="stroke:#000000;stroke-width:0.8;" x="220.201046" xlink:href="#m549224a582" y="239.758125"/>
      </g>
     </g>
     <g id="text_5">
      <!-- 1.00 -->
      <defs>
       <path d="M 12.40625 8.296875 
L 28.515625 8.296875 
L 28.515625 63.921875 
L 10.984375 60.40625 
L 10.984375 69.390625 
L 28.421875 72.90625 
L 38.28125 72.90625 
L 38.28125 8.296875 
L 54.390625 8.296875 
L 54.390625 0 
L 12.40625 0 
z
" id="DejaVuSans-49"/>
      </defs>
      <g transform="translate(209.068234 254.356562)scale(0.1 -0.1)">
       <use xlink:href="#DejaVuSans-49"/>
       <use x="63.623047" xlink:href="#DejaVuSans-46"/>
       <use x="95.410156" xlink:href="#DejaVuSans-48"/>
       <use x="159.033203" xlink:href="#DejaVuSans-48"/>
      </g>
     </g>
    </g>
    <g id="xtick_6">
     <g id="line2d_6">
      <g>
       <use style="stroke:#000000;stroke-width:0.8;" x="258.114731" xlink:href="#m549224a582" y="239.758125"/>
      </g>
     </g>
     <g id="text_6">
      <!-- 1.25 -->
      <g transform="translate(246.981919 254.356562)scale(0.1 -0.1)">
       <use xlink:href="#DejaVuSans-49"/>
       <use x="63.623047" xlink:href="#DejaVuSans-46"/>
       <use x="95.410156" xlink:href="#DejaVuSans-50"/>
       <use x="159.033203" xlink:href="#DejaVuSans-53"/>
      </g>
     </g>
    </g>
    <g id="xtick_7">
     <g id="line2d_7">
      <g>
       <use style="stroke:#000000;stroke-width:0.8;" x="296.028416" xlink:href="#m549224a582" y="239.758125"/>
      </g>
     </g>
     <g id="text_7">
      <!-- 1.50 -->
      <g transform="translate(284.895604 254.356562)scale(0.1 -0.1)">
       <use xlink:href="#DejaVuSans-49"/>
       <use x="63.623047" xlink:href="#DejaVuSans-46"/>
       <use x="95.410156" xlink:href="#DejaVuSans-53"/>
       <use x="159.033203" xlink:href="#DejaVuSans-48"/>
      </g>
     </g>
    </g>
    <g id="xtick_8">
     <g id="line2d_8">
      <g>
       <use style="stroke:#000000;stroke-width:0.8;" x="333.942101" xlink:href="#m549224a582" y="239.758125"/>
      </g>
     </g>
     <g id="text_8">
      <!-- 1.75 -->
      <g transform="translate(322.809289 254.356562)scale(0.1 -0.1)">
       <use xlink:href="#DejaVuSans-49"/>
       <use x="63.623047" xlink:href="#DejaVuSans-46"/>
       <use x="95.410156" xlink:href="#DejaVuSans-55"/>
       <use x="159.033203" xlink:href="#DejaVuSans-53"/>
      </g>
     </g>
    </g>
    <g id="xtick_9">
     <g id="line2d_9">
      <g>
       <use style="stroke:#000000;stroke-width:0.8;" x="371.855786" xlink:href="#m549224a582" y="239.758125"/>
      </g>
     </g>
     <g id="text_9">
      <!-- 2.00 -->
      <g transform="translate(360.722974 254.356562)scale(0.1 -0.1)">
       <use xlink:href="#DejaVuSans-50"/>
       <use x="63.623047" xlink:href="#DejaVuSans-46"/>
       <use x="95.410156" xlink:href="#DejaVuSans-48"/>
       <use x="159.033203" xlink:href="#DejaVuSans-48"/>
      </g>
     </g>
    </g>
    <g id="text_10">
     <!-- Time (ms) -->
     <defs>
      <path d="M -0.296875 72.90625 
L 61.375 72.90625 
L 61.375 64.59375 
L 35.5 64.59375 
L 35.5 0 
L 25.59375 0 
L 25.59375 64.59375 
L -0.296875 64.59375 
z
" id="DejaVuSans-84"/>
      <path d="M 9.421875 54.6875 
L 18.40625 54.6875 
L 18.40625 0 
L 9.421875 0 
z
M 9.421875 75.984375 
L 18.40625 75.984375 
L 18.40625 64.59375 
L 9.421875 64.59375 
z
" id="DejaVuSans-105"/>
      <path d="M 52 44.1875 
Q 55.375 50.25 60.0625 53.125 
Q 64.75 56 71.09375 56 
Q 79.640625 56 84.28125 50.015625 
Q 88.921875 44.046875 88.921875 33.015625 
L 88.921875 0 
L 79.890625 0 
L 79.890625 32.71875 
Q 79.890625 40.578125 77.09375 44.375 
Q 74.3125 48.1875 68.609375 48.1875 
Q 61.625 48.1875 57.5625 43.546875 
Q 53.515625 38.921875 53.515625 30.90625 
L 53.515625 0 
L 44.484375 0 
L 44.484375 32.71875 
Q 44.484375 40.625 41.703125 44.40625 
Q 38.921875 48.1875 33.109375 48.1875 
Q 26.21875 48.1875 22.15625 43.53125 
Q 18.109375 38.875 18.109375 30.90625 
L 18.109375 0 
L 9.078125 0 
L 9.078125 54.6875 
L 18.109375 54.6875 
L 18.109375 46.1875 
Q 21.1875 51.21875 25.484375 53.609375 
Q 29.78125 56 35.6875 56 
Q 41.65625 56 45.828125 52.96875 
Q 50 49.953125 52 44.1875 
z
" id="DejaVuSans-109"/>
      <path d="M 56.203125 29.59375 
L 56.203125 25.203125 
L 14.890625 25.203125 
Q 15.484375 15.921875 20.484375 11.0625 
Q 25.484375 6.203125 34.421875 6.203125 
Q 39.59375 6.203125 44.453125 7.46875 
Q 49.3125 8.734375 54.109375 11.28125 
L 54.109375 2.78125 
Q 49.265625 0.734375 44.1875 -0.34375 
Q 39.109375 -1.421875 33.890625 -1.421875 
Q 20.796875 -1.421875 13.15625 6.1875 
Q 5.515625 13.8125 5.515625 26.8125 
Q 5.515625 40.234375 12.765625 48.109375 
Q 20.015625 56 32.328125 56 
Q 43.359375 56 49.78125 48.890625 
Q 56.203125 41.796875 56.203125 29.59375 
z
M 47.21875 32.234375 
Q 47.125 39.59375 43.09375 43.984375 
Q 39.0625 48.390625 32.421875 48.390625 
Q 24.90625 48.390625 20.390625 44.140625 
Q 15.875 39.890625 15.1875 32.171875 
z
" id="DejaVuSans-101"/>
      <path id="DejaVuSans-32"/>
      <path d="M 31 75.875 
Q 24.46875 64.65625 21.28125 53.65625 
Q 18.109375 42.671875 18.109375 31.390625 
Q 18.109375 20.125 21.3125 9.0625 
Q 24.515625 -2 31 -13.1875 
L 23.1875 -13.1875 
Q 15.875 -1.703125 12.234375 9.375 
Q 8.59375 20.453125 8.59375 31.390625 
Q 8.59375 42.28125 12.203125 53.3125 
Q 15.828125 64.359375 23.1875 75.875 
z
" id="DejaVuSans-40"/>
      <path d="M 44.28125 53.078125 
L 44.28125 44.578125 
Q 40.484375 46.53125 36.375 47.5 
Q 32.28125 48.484375 27.875 48.484375 
Q 21.1875 48.484375 17.84375 46.4375 
Q 14.5 44.390625 14.5 40.28125 
Q 14.5 37.15625 16.890625 35.375 
Q 19.28125 33.59375 26.515625 31.984375 
L 29.59375 31.296875 
Q 39.15625 29.25 43.1875 25.515625 
Q 47.21875 21.78125 47.21875 15.09375 
Q 47.21875 7.46875 41.1875 3.015625 
Q 35.15625 -1.421875 24.609375 -1.421875 
Q 20.21875 -1.421875 15.453125 -0.5625 
Q 10.6875 0.296875 5.421875 2 
L 5.421875 11.28125 
Q 10.40625 8.6875 15.234375 7.390625 
Q 20.0625 6.109375 24.8125 6.109375 
Q 31.15625 6.109375 34.5625 8.28125 
Q 37.984375 10.453125 37.984375 14.40625 
Q 37.984375 18.0625 35.515625 20.015625 
Q 33.0625 21.96875 24.703125 23.78125 
L 21.578125 24.515625 
Q 13.234375 26.265625 9.515625 29.90625 
Q 5.8125 33.546875 5.8125 39.890625 
Q 5.8125 47.609375 11.28125 51.796875 
Q 16.75 56 26.8125 56 
Q 31.78125 56 36.171875 55.265625 
Q 40.578125 54.546875 44.28125 53.078125 
z
" id="DejaVuSans-115"/>
      <path d="M 8.015625 75.875 
L 15.828125 75.875 
Q 23.140625 64.359375 26.78125 53.3125 
Q 30.421875 42.28125 30.421875 31.390625 
Q 30.421875 20.453125 26.78125 9.375 
Q 23.140625 -1.703125 15.828125 -13.1875 
L 8.015625 -13.1875 
Q 14.5 -2 17.703125 9.0625 
Q 20.90625 20.125 20.90625 31.390625 
Q 20.90625 42.671875 17.703125 53.65625 
Q 14.5 64.65625 8.015625 75.875 
z
" id="DejaVuSans-41"/>
     </defs>
     <g transform="translate(195.375 268.034687)scale(0.1 -0.1)">
      <use xlink:href="#DejaVuSans-84"/>
      <use x="61.037109" xlink:href="#DejaVuSans-105"/>
      <use x="88.820312" xlink:href="#DejaVuSans-109"/>
      <use x="186.232422" xlink:href="#DejaVuSans-101"/>
      <use x="247.755859" xlink:href="#DejaVuSans-32"/>
      <use x="279.542969" xlink:href="#DejaVuSans-40"/>
      <use x="318.556641" xlink:href="#DejaVuSans-109"/>
      <use x="415.96875" xlink:href="#DejaVuSans-115"/>
      <use x="468.068359" xlink:href="#DejaVuSans-41"/>
     </g>
    </g>
   </g>
   <g id="matplotlib.axis_2">
    <g id="ytick_1">
     <g id="line2d_10">
      <defs>
       <path d="M 0 0 
L -3.5 0 
" id="m404387167e" style="stroke:#000000;stroke-width:0.8;"/>
      </defs>
      <g>
       <use style="stroke:#000000;stroke-width:0.8;" x="53.328125" xlink:href="#m404387167e" y="219.91471"/>
      </g>
     </g>
     <g id="text_11">
      <!-- 1500 -->
      <g transform="translate(20.878125 223.713929)scale(0.1 -0.1)">
       <use xlink:href="#DejaVuSans-49"/>
       <use x="63.623047" xlink:href="#DejaVuSans-53"/>
       <use x="127.246094" xlink:href="#DejaVuSans-48"/>
       <use x="190.869141" xlink:href="#DejaVuSans-48"/>
      </g>
     </g>
    </g>
    <g id="ytick_2">
     <g id="line2d_11">
      <g>
       <use style="stroke:#000000;stroke-width:0.8;" x="53.328125" xlink:href="#m404387167e" y="189.81575"/>
      </g>
     </g>
     <g id="text_12">
      <!-- 2000 -->
      <g transform="translate(20.878125 193.614969)scale(0.1 -0.1)">
       <use xlink:href="#DejaVuSans-50"/>
       <use x="63.623047" xlink:href="#DejaVuSans-48"/>
       <use x="127.246094" xlink:href="#DejaVuSans-48"/>
       <use x="190.869141" xlink:href="#DejaVuSans-48"/>
      </g>
     </g>
    </g>
    <g id="ytick_3">
     <g id="line2d_12">
      <g>
       <use style="stroke:#000000;stroke-width:0.8;" x="53.328125" xlink:href="#m404387167e" y="159.71679"/>
      </g>
     </g>
     <g id="text_13">
      <!-- 2500 -->
      <g transform="translate(20.878125 163.516008)scale(0.1 -0.1)">
       <use xlink:href="#DejaVuSans-50"/>
       <use x="63.623047" xlink:href="#DejaVuSans-53"/>
       <use x="127.246094" xlink:href="#DejaVuSans-48"/>
       <use x="190.869141" xlink:href="#DejaVuSans-48"/>
      </g>
     </g>
    </g>
    <g id="ytick_4">
     <g id="line2d_13">
      <g>
       <use style="stroke:#000000;stroke-width:0.8;" x="53.328125" xlink:href="#m404387167e" y="129.617829"/>
      </g>
     </g>
     <g id="text_14">
      <!-- 3000 -->
      <defs>
       <path d="M 40.578125 39.3125 
Q 47.65625 37.796875 51.625 33 
Q 55.609375 28.21875 55.609375 21.1875 
Q 55.609375 10.40625 48.1875 4.484375 
Q 40.765625 -1.421875 27.09375 -1.421875 
Q 22.515625 -1.421875 17.65625 -0.515625 
Q 12.796875 0.390625 7.625 2.203125 
L 7.625 11.71875 
Q 11.71875 9.328125 16.59375 8.109375 
Q 21.484375 6.890625 26.8125 6.890625 
Q 36.078125 6.890625 40.9375 10.546875 
Q 45.796875 14.203125 45.796875 21.1875 
Q 45.796875 27.640625 41.28125 31.265625 
Q 36.765625 34.90625 28.71875 34.90625 
L 20.21875 34.90625 
L 20.21875 43.015625 
L 29.109375 43.015625 
Q 36.375 43.015625 40.234375 45.921875 
Q 44.09375 48.828125 44.09375 54.296875 
Q 44.09375 59.90625 40.109375 62.90625 
Q 36.140625 65.921875 28.71875 65.921875 
Q 24.65625 65.921875 20.015625 65.03125 
Q 15.375 64.15625 9.8125 62.3125 
L 9.8125 71.09375 
Q 15.4375 72.65625 20.34375 73.4375 
Q 25.25 74.21875 29.59375 74.21875 
Q 40.828125 74.21875 47.359375 69.109375 
Q 53.90625 64.015625 53.90625 55.328125 
Q 53.90625 49.265625 50.4375 45.09375 
Q 46.96875 40.921875 40.578125 39.3125 
z
" id="DejaVuSans-51"/>
      </defs>
      <g transform="translate(20.878125 133.417048)scale(0.1 -0.1)">
       <use xlink:href="#DejaVuSans-51"/>
       <use x="63.623047" xlink:href="#DejaVuSans-48"/>
       <use x="127.246094" xlink:href="#DejaVuSans-48"/>
       <use x="190.869141" xlink:href="#DejaVuSans-48"/>
      </g>
     </g>
    </g>
    <g id="ytick_5">
     <g id="line2d_14">
      <g>
       <use style="stroke:#000000;stroke-width:0.8;" x="53.328125" xlink:href="#m404387167e" y="99.518869"/>
      </g>
     </g>
     <g id="text_15">
      <!-- 3500 -->
      <g transform="translate(20.878125 103.318088)scale(0.1 -0.1)">
       <use xlink:href="#DejaVuSans-51"/>
       <use x="63.623047" xlink:href="#DejaVuSans-53"/>
       <use x="127.246094" xlink:href="#DejaVuSans-48"/>
       <use x="190.869141" xlink:href="#DejaVuSans-48"/>
      </g>
     </g>
    </g>
    <g id="ytick_6">
     <g id="line2d_15">
      <g>
       <use style="stroke:#000000;stroke-width:0.8;" x="53.328125" xlink:href="#m404387167e" y="69.419909"/>
      </g>
     </g>
     <g id="text_16">
      <!-- 4000 -->
      <defs>
       <path d="M 37.796875 64.3125 
L 12.890625 25.390625 
L 37.796875 25.390625 
z
M 35.203125 72.90625 
L 47.609375 72.90625 
L 47.609375 25.390625 
L 58.015625 25.390625 
L 58.015625 17.1875 
L 47.609375 17.1875 
L 47.609375 0 
L 37.796875 0 
L 37.796875 17.1875 
L 4.890625 17.1875 
L 4.890625 26.703125 
z
" id="DejaVuSans-52"/>
      </defs>
      <g transform="translate(20.878125 73.219127)scale(0.1 -0.1)">
       <use xlink:href="#DejaVuSans-52"/>
       <use x="63.623047" xlink:href="#DejaVuSans-48"/>
       <use x="127.246094" xlink:href="#DejaVuSans-48"/>
       <use x="190.869141" xlink:href="#DejaVuSans-48"/>
      </g>
     </g>
    </g>
    <g id="ytick_7">
     <g id="line2d_16">
      <g>
       <use style="stroke:#000000;stroke-width:0.8;" x="53.328125" xlink:href="#m404387167e" y="39.320948"/>
      </g>
     </g>
     <g id="text_17">
      <!-- 4500 -->
      <g transform="translate(20.878125 43.120167)scale(0.1 -0.1)">
       <use xlink:href="#DejaVuSans-52"/>
       <use x="63.623047" xlink:href="#DejaVuSans-53"/>
       <use x="127.246094" xlink:href="#DejaVuSans-48"/>
       <use x="190.869141" xlink:href="#DejaVuSans-48"/>
      </g>
     </g>
    </g>
    <g id="text_18">
     <!-- ppmH2O -->
     <defs>
      <path d="M 18.109375 8.203125 
L 18.109375 -20.796875 
L 9.078125 -20.796875 
L 9.078125 54.6875 
L 18.109375 54.6875 
L 18.109375 46.390625 
Q 20.953125 51.265625 25.265625 53.625 
Q 29.59375 56 35.59375 56 
Q 45.5625 56 51.78125 48.09375 
Q 58.015625 40.1875 58.015625 27.296875 
Q 58.015625 14.40625 51.78125 6.484375 
Q 45.5625 -1.421875 35.59375 -1.421875 
Q 29.59375 -1.421875 25.265625 0.953125 
Q 20.953125 3.328125 18.109375 8.203125 
z
M 48.6875 27.296875 
Q 48.6875 37.203125 44.609375 42.84375 
Q 40.53125 48.484375 33.40625 48.484375 
Q 26.265625 48.484375 22.1875 42.84375 
Q 18.109375 37.203125 18.109375 27.296875 
Q 18.109375 17.390625 22.1875 11.75 
Q 26.265625 6.109375 33.40625 6.109375 
Q 40.53125 6.109375 44.609375 11.75 
Q 48.6875 17.390625 48.6875 27.296875 
z
" id="DejaVuSans-112"/>
      <path d="M 9.8125 72.90625 
L 19.671875 72.90625 
L 19.671875 43.015625 
L 55.515625 43.015625 
L 55.515625 72.90625 
L 65.375 72.90625 
L 65.375 0 
L 55.515625 0 
L 55.515625 34.71875 
L 19.671875 34.71875 
L 19.671875 0 
L 9.8125 0 
z
" id="DejaVuSans-72"/>
      <path d="M 39.40625 66.21875 
Q 28.65625 66.21875 22.328125 58.203125 
Q 16.015625 50.203125 16.015625 36.375 
Q 16.015625 22.609375 22.328125 14.59375 
Q 28.65625 6.59375 39.40625 6.59375 
Q 50.140625 6.59375 56.421875 14.59375 
Q 62.703125 22.609375 62.703125 36.375 
Q 62.703125 50.203125 56.421875 58.203125 
Q 50.140625 66.21875 39.40625 66.21875 
z
M 39.40625 74.21875 
Q 54.734375 74.21875 63.90625 63.9375 
Q 73.09375 53.65625 73.09375 36.375 
Q 73.09375 19.140625 63.90625 8.859375 
Q 54.734375 -1.421875 39.40625 -1.421875 
Q 24.03125 -1.421875 14.8125 8.828125 
Q 5.609375 19.09375 5.609375 36.375 
Q 5.609375 53.65625 14.8125 63.9375 
Q 24.03125 74.21875 39.40625 74.21875 
z
" id="DejaVuSans-79"/>
     </defs>
     <g transform="translate(14.798438 153.134219)rotate(-90)scale(0.1 -0.1)">
      <use xlink:href="#DejaVuSans-112"/>
      <use x="63.476562" xlink:href="#DejaVuSans-112"/>
      <use x="126.953125" xlink:href="#DejaVuSans-109"/>
      <use x="224.365234" xlink:href="#DejaVuSans-72"/>
      <use x="299.560547" xlink:href="#DejaVuSans-50"/>
      <use x="363.183594" xlink:href="#DejaVuSans-79"/>
     </g>
    </g>
   </g>
   <g id="line2d_17">
    <path clip-path="url(#p24a163b800)" d="M 68.546307 213.785077 
L 68.63531 213.683065 
L 68.797136 213.038611 
L 69.093978 210.719597 
L 69.619529 204.542198 
L 73.145025 159.411599 
L 74.614528 144.556369 
L 76.160022 131.113691 
L 77.595371 120.360151 
L 79.206406 110.008107 
L 80.676798 101.933378 
L 82.194366 94.783656 
L 83.741834 88.559091 
L 85.292574 83.245721 
L 86.730056 79.02802 
L 88.324262 75.029965 
L 89.976116 71.527712 
L 91.756254 68.365236 
L 93.536392 65.730998 
L 95.31653 63.534246 
L 97.096668 61.699865 
L 98.876805 60.165779 
L 101.012971 58.649737 
L 103.149136 57.420903 
L 105.641329 56.274757 
L 108.133522 55.371387 
L 110.981742 54.567133 
L 114.542018 53.816684 
L 118.458321 53.224836 
L 123.442707 52.70969 
L 129.851202 52.292335 
L 138.395864 51.975086 
L 151.219679 51.741824 
L 173.663744 51.588498 
L 226.606495 51.504155 
L 371.985942 51.408356 
L 371.985942 51.408356 
" style="fill:none;stroke:#0000ff;stroke-linecap:square;stroke-width:1.5;"/>
   </g>
   <g id="line2d_18">
    <path clip-path="url(#p24a163b800)" d="M 68.546307 211.186012 
L 68.655378 211.081726 
L 68.833641 210.496899 
L 69.123973 208.631591 
L 69.57082 204.114349 
L 70.335013 193.740021 
L 73.047537 155.350572 
L 74.462964 139.192588 
L 75.818997 126.096775 
L 77.227834 114.563334 
L 78.636671 104.808453 
L 80.000981 96.795727 
L 81.384687 89.891762 
L 82.883772 83.587463 
L 84.282594 78.635262 
L 85.719021 74.336387 
L 87.12642 70.776548 
L 88.533818 67.760812 
L 89.941217 65.204076 
L 91.348616 63.034477 
L 93.037495 60.857336 
L 94.765276 59.026653 
L 96.404692 57.592289 
L 98.127628 56.343958 
L 100.009313 55.226917 
L 102.267335 54.155917 
L 104.901694 53.191663 
L 107.91239 52.3669 
L 111.299423 51.689748 
L 115.43913 51.106038 
L 120.707848 50.609453 
L 127.481914 50.207572 
L 137.266676 49.872209 
L 151.767021 49.617131 
L 177.555635 49.418729 
L 239.786392 49.225283 
L 372.909943 48.930253 
L 372.909943 48.930253 
" style="fill:none;stroke:#ff0000;stroke-linecap:square;stroke-width:1.5;"/>
   </g>
   <g id="line2d_19">
    <defs>
     <path d="M 0 3 
C 0.795609 3 1.55874 2.683901 2.12132 2.12132 
C 2.683901 1.55874 3 0.795609 3 0 
C 3 -0.795609 2.683901 -1.55874 2.12132 -2.12132 
C 1.55874 -2.683901 0.795609 -3 0 -3 
C -0.795609 -3 -1.55874 -2.683901 -2.12132 -2.12132 
C -2.683901 -1.55874 -3 -0.795609 -3 0 
C -3 0.795609 -2.683901 1.55874 -2.12132 2.12132 
C -1.55874 2.683901 -0.795609 3 0 3 
z
" id="m6bc168c567" style="stroke:#000000;"/>
    </defs>
    <g clip-path="url(#p24a163b800)">
     <use style="stroke:#000000;" x="68.546307" xlink:href="#m6bc168c567" y="211.143873"/>
     <use style="stroke:#000000;" x="68.697962" xlink:href="#m6bc168c567" y="222.304567"/>
     <use style="stroke:#000000;" x="68.849616" xlink:href="#m6bc168c567" y="221.630351"/>
     <use style="stroke:#000000;" x="69.001271" xlink:href="#m6bc168c567" y="215.213252"/>
     <use style="stroke:#000000;" x="69.152926" xlink:href="#m6bc168c567" y="217.247942"/>
     <use style="stroke:#000000;" x="69.304581" xlink:href="#m6bc168c567" y="215.556381"/>
     <use style="stroke:#000000;" x="69.456235" xlink:href="#m6bc168c567" y="206.713306"/>
     <use style="stroke:#000000;" x="69.60789" xlink:href="#m6bc168c567" y="204.323449"/>
     <use style="stroke:#000000;" x="69.759545" xlink:href="#m6bc168c567" y="205.346813"/>
     <use style="stroke:#000000;" x="69.911199" xlink:href="#m6bc168c567" y="198.833398"/>
     <use style="stroke:#000000;" x="70.062854" xlink:href="#m6bc168c567" y="197.460886"/>
     <use style="stroke:#000000;" x="70.214509" xlink:href="#m6bc168c567" y="194.703821"/>
     <use style="stroke:#000000;" x="70.366164" xlink:href="#m6bc168c567" y="187.77504"/>
     <use style="stroke:#000000;" x="70.517818" xlink:href="#m6bc168c567" y="194.011545"/>
     <use style="stroke:#000000;" x="70.669473" xlink:href="#m6bc168c567" y="188.124188"/>
     <use style="stroke:#000000;" x="70.821128" xlink:href="#m6bc168c567" y="188.124188"/>
     <use style="stroke:#000000;" x="70.972783" xlink:href="#m6bc168c567" y="193.319269"/>
     <use style="stroke:#000000;" x="71.124437" xlink:href="#m6bc168c567" y="187.77504"/>
     <use style="stroke:#000000;" x="71.276092" xlink:href="#m6bc168c567" y="183.597305"/>
     <use style="stroke:#000000;" x="71.427747" xlink:href="#m6bc168c567" y="178.004918"/>
     <use style="stroke:#000000;" x="71.579402" xlink:href="#m6bc168c567" y="179.407529"/>
     <use style="stroke:#000000;" x="71.731056" xlink:href="#m6bc168c567" y="176.602306"/>
     <use style="stroke:#000000;" x="71.882711" xlink:href="#m6bc168c567" y="177.300602"/>
     <use style="stroke:#000000;" x="72.034366" xlink:href="#m6bc168c567" y="176.602306"/>
     <use style="stroke:#000000;" x="72.186021" xlink:href="#m6bc168c567" y="173.791063"/>
     <use style="stroke:#000000;" x="72.337675" xlink:href="#m6bc168c567" y="171.322949"/>
     <use style="stroke:#000000;" x="72.48933" xlink:href="#m6bc168c567" y="174.140211"/>
     <use style="stroke:#000000;" x="72.640985" xlink:href="#m6bc168c567" y="170.263465"/>
     <use style="stroke:#000000;" x="72.79264" xlink:href="#m6bc168c567" y="171.322949"/>
     <use style="stroke:#000000;" x="72.944294" xlink:href="#m6bc168c567" y="166.723827"/>
     <use style="stroke:#000000;" x="73.095949" xlink:href="#m6bc168c567" y="163.533338"/>
     <use style="stroke:#000000;" x="73.247604" xlink:href="#m6bc168c567" y="164.954009"/>
     <use style="stroke:#000000;" x="73.399258" xlink:href="#m6bc168c567" y="163.533338"/>
     <use style="stroke:#000000;" x="73.550913" xlink:href="#m6bc168c567" y="163.533338"/>
     <use style="stroke:#000000;" x="73.702568" xlink:href="#m6bc168c567" y="156.761072"/>
     <use style="stroke:#000000;" x="73.854223" xlink:href="#m6bc168c567" y="159.259285"/>
     <use style="stroke:#000000;" x="74.005877" xlink:href="#m6bc168c567" y="155.683529"/>
     <use style="stroke:#000000;" x="74.157532" xlink:href="#m6bc168c567" y="157.116239"/>
     <use style="stroke:#000000;" x="74.309187" xlink:href="#m6bc168c567" y="158.904118"/>
     <use style="stroke:#000000;" x="74.460842" xlink:href="#m6bc168c567" y="148.140729"/>
     <use style="stroke:#000000;" x="74.612496" xlink:href="#m6bc168c567" y="149.940647"/>
     <use style="stroke:#000000;" x="74.764151" xlink:href="#m6bc168c567" y="148.863104"/>
     <use style="stroke:#000000;" x="74.915806" xlink:href="#m6bc168c567" y="151.02421"/>
     <use style="stroke:#000000;" x="75.067461" xlink:href="#m6bc168c567" y="149.224292"/>
     <use style="stroke:#000000;" x="75.219115" xlink:href="#m6bc168c567" y="148.501917"/>
     <use style="stroke:#000000;" x="75.37077" xlink:href="#m6bc168c567" y="142.355709"/>
     <use style="stroke:#000000;" x="75.522425" xlink:href="#m6bc168c567" y="144.528854"/>
     <use style="stroke:#000000;" x="75.67408" xlink:href="#m6bc168c567" y="136.179403"/>
     <use style="stroke:#000000;" x="75.825734" xlink:href="#m6bc168c567" y="139.092982"/>
     <use style="stroke:#000000;" x="75.977389" xlink:href="#m6bc168c567" y="136.179403"/>
     <use style="stroke:#000000;" x="76.129044" xlink:href="#m6bc168c567" y="142.722917"/>
     <use style="stroke:#000000;" x="76.280699" xlink:href="#m6bc168c567" y="136.54059"/>
     <use style="stroke:#000000;" x="76.432353" xlink:href="#m6bc168c567" y="139.092982"/>
     <use style="stroke:#000000;" x="76.584008" xlink:href="#m6bc168c567" y="135.451008"/>
     <use style="stroke:#000000;" x="76.735663" xlink:href="#m6bc168c567" y="131.062579"/>
     <use style="stroke:#000000;" x="76.887317" xlink:href="#m6bc168c567" y="132.158181"/>
     <use style="stroke:#000000;" x="77.038972" xlink:href="#m6bc168c567" y="132.158181"/>
     <use style="stroke:#000000;" x="77.190627" xlink:href="#m6bc168c567" y="128.498148"/>
     <use style="stroke:#000000;" x="77.342282" xlink:href="#m6bc168c567" y="124.820055"/>
     <use style="stroke:#000000;" x="77.493936" xlink:href="#m6bc168c567" y="124.820055"/>
     <use style="stroke:#000000;" x="77.645591" xlink:href="#m6bc168c567" y="122.604772"/>
     <use style="stroke:#000000;" x="77.797246" xlink:href="#m6bc168c567" y="119.275827"/>
     <use style="stroke:#000000;" x="77.948901" xlink:href="#m6bc168c567" y="117.421731"/>
     <use style="stroke:#000000;" x="78.100555" xlink:href="#m6bc168c567" y="125.187262"/>
     <use style="stroke:#000000;" x="78.25221" xlink:href="#m6bc168c567" y="121.49713"/>
     <use style="stroke:#000000;" x="78.403865" xlink:href="#m6bc168c567" y="117.421731"/>
     <use style="stroke:#000000;" x="78.55552" xlink:href="#m6bc168c567" y="119.649054"/>
     <use style="stroke:#000000;" x="78.707174" xlink:href="#m6bc168c567" y="124.820055"/>
     <use style="stroke:#000000;" x="78.858829" xlink:href="#m6bc168c567" y="117.421731"/>
     <use style="stroke:#000000;" x="79.010484" xlink:href="#m6bc168c567" y="119.649054"/>
     <use style="stroke:#000000;" x="79.162139" xlink:href="#m6bc168c567" y="120.756695"/>
     <use style="stroke:#000000;" x="79.313793" xlink:href="#m6bc168c567" y="117.794958"/>
     <use style="stroke:#000000;" x="79.465448" xlink:href="#m6bc168c567" y="121.864337"/>
     <use style="stroke:#000000;" x="79.617103" xlink:href="#m6bc168c567" y="120.756695"/>
     <use style="stroke:#000000;" x="79.768758" xlink:href="#m6bc168c567" y="116.308069"/>
     <use style="stroke:#000000;" x="79.920412" xlink:href="#m6bc168c567" y="112.22063"/>
     <use style="stroke:#000000;" x="80.072067" xlink:href="#m6bc168c567" y="114.080746"/>
     <use style="stroke:#000000;" x="80.223722" xlink:href="#m6bc168c567" y="113.707519"/>
     <use style="stroke:#000000;" x="80.375377" xlink:href="#m6bc168c567" y="111.100949"/>
     <use style="stroke:#000000;" x="80.527031" xlink:href="#m6bc168c567" y="115.567635"/>
     <use style="stroke:#000000;" x="80.678686" xlink:href="#m6bc168c567" y="111.847403"/>
     <use style="stroke:#000000;" x="80.830341" xlink:href="#m6bc168c567" y="110.354495"/>
     <use style="stroke:#000000;" x="80.981995" xlink:href="#m6bc168c567" y="113.334292"/>
     <use style="stroke:#000000;" x="81.13365" xlink:href="#m6bc168c567" y="108.109112"/>
     <use style="stroke:#000000;" x="81.285305" xlink:href="#m6bc168c567" y="111.847403"/>
     <use style="stroke:#000000;" x="81.43696" xlink:href="#m6bc168c567" y="112.22063"/>
     <use style="stroke:#000000;" x="81.588614" xlink:href="#m6bc168c567" y="106.983411"/>
     <use style="stroke:#000000;" x="81.740269" xlink:href="#m6bc168c567" y="109.981268"/>
     <use style="stroke:#000000;" x="81.891924" xlink:href="#m6bc168c567" y="104.738029"/>
     <use style="stroke:#000000;" x="82.043579" xlink:href="#m6bc168c567" y="105.484483"/>
     <use style="stroke:#000000;" x="82.195233" xlink:href="#m6bc168c567" y="110.354495"/>
     <use style="stroke:#000000;" x="82.346888" xlink:href="#m6bc168c567" y="106.610184"/>
     <use style="stroke:#000000;" x="82.498543" xlink:href="#m6bc168c567" y="103.985555"/>
     <use style="stroke:#000000;" x="82.650198" xlink:href="#m6bc168c567" y="106.236957"/>
     <use style="stroke:#000000;" x="82.801852" xlink:href="#m6bc168c567" y="101.728133"/>
     <use style="stroke:#000000;" x="82.953507" xlink:href="#m6bc168c567" y="103.233081"/>
     <use style="stroke:#000000;" x="83.105162" xlink:href="#m6bc168c567" y="103.612328"/>
     <use style="stroke:#000000;" x="83.256817" xlink:href="#m6bc168c567" y="101.728133"/>
     <use style="stroke:#000000;" x="83.408471" xlink:href="#m6bc168c567" y="102.10738"/>
     <use style="stroke:#000000;" x="83.560126" xlink:href="#m6bc168c567" y="101.728133"/>
     <use style="stroke:#000000;" x="83.711781" xlink:href="#m6bc168c567" y="98.33297"/>
     <use style="stroke:#000000;" x="83.863436" xlink:href="#m6bc168c567" y="99.470711"/>
     <use style="stroke:#000000;" x="84.01509" xlink:href="#m6bc168c567" y="102.10738"/>
     <use style="stroke:#000000;" x="84.166745" xlink:href="#m6bc168c567" y="102.859854"/>
     <use style="stroke:#000000;" x="84.3184" xlink:href="#m6bc168c567" y="99.091464"/>
     <use style="stroke:#000000;" x="84.470054" xlink:href="#m6bc168c567" y="99.091464"/>
     <use style="stroke:#000000;" x="84.621709" xlink:href="#m6bc168c567" y="100.975659"/>
     <use style="stroke:#000000;" x="84.773364" xlink:href="#m6bc168c567" y="97.959743"/>
     <use style="stroke:#000000;" x="84.925019" xlink:href="#m6bc168c567" y="99.091464"/>
     <use style="stroke:#000000;" x="85.076673" xlink:href="#m6bc168c567" y="97.580496"/>
     <use style="stroke:#000000;" x="85.228328" xlink:href="#m6bc168c567" y="103.985555"/>
     <use style="stroke:#000000;" x="85.379983" xlink:href="#m6bc168c567" y="97.580496"/>
     <use style="stroke:#000000;" x="85.531638" xlink:href="#m6bc168c567" y="91.518565"/>
     <use style="stroke:#000000;" x="85.683292" xlink:href="#m6bc168c567" y="94.173294"/>
     <use style="stroke:#000000;" x="85.834947" xlink:href="#m6bc168c567" y="96.822002"/>
     <use style="stroke:#000000;" x="85.986602" xlink:href="#m6bc168c567" y="91.139318"/>
     <use style="stroke:#000000;" x="86.138257" xlink:href="#m6bc168c567" y="96.822002"/>
     <use style="stroke:#000000;" x="86.289911" xlink:href="#m6bc168c567" y="95.311034"/>
     <use style="stroke:#000000;" x="86.441566" xlink:href="#m6bc168c567" y="96.069528"/>
     <use style="stroke:#000000;" x="86.593221" xlink:href="#m6bc168c567" y="94.552541"/>
     <use style="stroke:#000000;" x="86.744876" xlink:href="#m6bc168c567" y="90.374805"/>
     <use style="stroke:#000000;" x="86.89653" xlink:href="#m6bc168c567" y="95.690281"/>
     <use style="stroke:#000000;" x="87.048185" xlink:href="#m6bc168c567" y="86.564276"/>
     <use style="stroke:#000000;" x="87.19984" xlink:href="#m6bc168c567" y="96.822002"/>
     <use style="stroke:#000000;" x="87.351495" xlink:href="#m6bc168c567" y="86.943523"/>
     <use style="stroke:#000000;" x="87.503149" xlink:href="#m6bc168c567" y="93.794047"/>
     <use style="stroke:#000000;" x="87.654804" xlink:href="#m6bc168c567" y="92.277059"/>
     <use style="stroke:#000000;" x="87.806459" xlink:href="#m6bc168c567" y="89.616311"/>
     <use style="stroke:#000000;" x="87.958113" xlink:href="#m6bc168c567" y="89.995558"/>
     <use style="stroke:#000000;" x="88.109768" xlink:href="#m6bc168c567" y="87.32879"/>
     <use style="stroke:#000000;" x="88.261423" xlink:href="#m6bc168c567" y="84.656002"/>
     <use style="stroke:#000000;" x="88.413078" xlink:href="#m6bc168c567" y="86.18503"/>
     <use style="stroke:#000000;" x="88.564732" xlink:href="#m6bc168c567" y="87.708037"/>
     <use style="stroke:#000000;" x="88.716387" xlink:href="#m6bc168c567" y="94.552541"/>
     <use style="stroke:#000000;" x="88.868042" xlink:href="#m6bc168c567" y="89.995558"/>
     <use style="stroke:#000000;" x="89.019697" xlink:href="#m6bc168c567" y="83.506222"/>
     <use style="stroke:#000000;" x="89.171351" xlink:href="#m6bc168c567" y="85.799763"/>
     <use style="stroke:#000000;" x="89.323006" xlink:href="#m6bc168c567" y="84.656002"/>
     <use style="stroke:#000000;" x="89.474661" xlink:href="#m6bc168c567" y="88.851797"/>
     <use style="stroke:#000000;" x="89.626316" xlink:href="#m6bc168c567" y="84.270736"/>
     <use style="stroke:#000000;" x="89.77797" xlink:href="#m6bc168c567" y="85.799763"/>
     <use style="stroke:#000000;" x="89.929625" xlink:href="#m6bc168c567" y="85.799763"/>
     <use style="stroke:#000000;" x="90.08128" xlink:href="#m6bc168c567" y="89.231044"/>
     <use style="stroke:#000000;" x="90.232935" xlink:href="#m6bc168c567" y="85.035249"/>
     <use style="stroke:#000000;" x="90.384589" xlink:href="#m6bc168c567" y="80.436128"/>
     <use style="stroke:#000000;" x="90.536244" xlink:href="#m6bc168c567" y="81.206662"/>
     <use style="stroke:#000000;" x="90.687899" xlink:href="#m6bc168c567" y="80.821395"/>
     <use style="stroke:#000000;" x="90.839554" xlink:href="#m6bc168c567" y="85.420516"/>
     <use style="stroke:#000000;" x="90.991208" xlink:href="#m6bc168c567" y="85.799763"/>
     <use style="stroke:#000000;" x="91.142863" xlink:href="#m6bc168c567" y="86.943523"/>
     <use style="stroke:#000000;" x="91.294518" xlink:href="#m6bc168c567" y="85.035249"/>
     <use style="stroke:#000000;" x="91.446172" xlink:href="#m6bc168c567" y="80.821395"/>
     <use style="stroke:#000000;" x="91.597827" xlink:href="#m6bc168c567" y="82.741709"/>
     <use style="stroke:#000000;" x="91.749482" xlink:href="#m6bc168c567" y="77.745281"/>
     <use style="stroke:#000000;" x="91.901137" xlink:href="#m6bc168c567" y="83.120955"/>
     <use style="stroke:#000000;" x="92.052791" xlink:href="#m6bc168c567" y="80.821395"/>
     <use style="stroke:#000000;" x="92.204446" xlink:href="#m6bc168c567" y="82.741709"/>
     <use style="stroke:#000000;" x="92.356101" xlink:href="#m6bc168c567" y="80.821395"/>
     <use style="stroke:#000000;" x="92.507756" xlink:href="#m6bc168c567" y="81.591928"/>
     <use style="stroke:#000000;" x="92.65941" xlink:href="#m6bc168c567" y="85.799763"/>
     <use style="stroke:#000000;" x="92.811065" xlink:href="#m6bc168c567" y="79.286348"/>
     <use style="stroke:#000000;" x="92.96272" xlink:href="#m6bc168c567" y="78.130548"/>
     <use style="stroke:#000000;" x="93.114375" xlink:href="#m6bc168c567" y="81.206662"/>
     <use style="stroke:#000000;" x="93.266029" xlink:href="#m6bc168c567" y="77.745281"/>
     <use style="stroke:#000000;" x="93.417684" xlink:href="#m6bc168c567" y="78.515815"/>
     <use style="stroke:#000000;" x="93.569339" xlink:href="#m6bc168c567" y="80.056881"/>
     <use style="stroke:#000000;" x="93.720994" xlink:href="#m6bc168c567" y="79.286348"/>
     <use style="stroke:#000000;" x="93.872648" xlink:href="#m6bc168c567" y="75.433681"/>
     <use style="stroke:#000000;" x="94.024303" xlink:href="#m6bc168c567" y="75.818948"/>
     <use style="stroke:#000000;" x="94.175958" xlink:href="#m6bc168c567" y="78.515815"/>
     <use style="stroke:#000000;" x="94.327613" xlink:href="#m6bc168c567" y="75.048414"/>
     <use style="stroke:#000000;" x="94.479267" xlink:href="#m6bc168c567" y="75.818948"/>
     <use style="stroke:#000000;" x="94.630922" xlink:href="#m6bc168c567" y="76.204214"/>
     <use style="stroke:#000000;" x="94.782577" xlink:href="#m6bc168c567" y="78.901081"/>
     <use style="stroke:#000000;" x="94.934232" xlink:href="#m6bc168c567" y="75.818948"/>
     <use style="stroke:#000000;" x="95.085886" xlink:href="#m6bc168c567" y="72.730794"/>
     <use style="stroke:#000000;" x="95.237541" xlink:href="#m6bc168c567" y="77.360014"/>
     <use style="stroke:#000000;" x="95.389196" xlink:href="#m6bc168c567" y="77.745281"/>
     <use style="stroke:#000000;" x="95.54085" xlink:href="#m6bc168c567" y="76.589481"/>
     <use style="stroke:#000000;" x="95.692505" xlink:href="#m6bc168c567" y="76.204214"/>
     <use style="stroke:#000000;" x="95.84416" xlink:href="#m6bc168c567" y="74.663148"/>
     <use style="stroke:#000000;" x="95.995815" xlink:href="#m6bc168c567" y="71.568974"/>
     <use style="stroke:#000000;" x="96.147469" xlink:href="#m6bc168c567" y="68.854048"/>
     <use style="stroke:#000000;" x="96.299124" xlink:href="#m6bc168c567" y="74.663148"/>
     <use style="stroke:#000000;" x="96.450779" xlink:href="#m6bc168c567" y="70.798441"/>
     <use style="stroke:#000000;" x="96.602434" xlink:href="#m6bc168c567" y="76.589481"/>
     <use style="stroke:#000000;" x="96.754088" xlink:href="#m6bc168c567" y="76.974748"/>
     <use style="stroke:#000000;" x="96.905743" xlink:href="#m6bc168c567" y="71.568974"/>
     <use style="stroke:#000000;" x="97.057398" xlink:href="#m6bc168c567" y="76.974748"/>
     <use style="stroke:#000000;" x="97.209053" xlink:href="#m6bc168c567" y="79.286348"/>
     <use style="stroke:#000000;" x="97.360707" xlink:href="#m6bc168c567" y="71.568974"/>
     <use style="stroke:#000000;" x="97.512362" xlink:href="#m6bc168c567" y="78.901081"/>
     <use style="stroke:#000000;" x="97.664017" xlink:href="#m6bc168c567" y="68.854048"/>
     <use style="stroke:#000000;" x="97.815672" xlink:href="#m6bc168c567" y="68.077495"/>
     <use style="stroke:#000000;" x="97.967326" xlink:href="#m6bc168c567" y="75.818948"/>
     <use style="stroke:#000000;" x="98.118981" xlink:href="#m6bc168c567" y="70.798441"/>
     <use style="stroke:#000000;" x="98.270636" xlink:href="#m6bc168c567" y="74.277881"/>
     <use style="stroke:#000000;" x="98.422291" xlink:href="#m6bc168c567" y="76.974748"/>
     <use style="stroke:#000000;" x="98.573945" xlink:href="#m6bc168c567" y="75.818948"/>
     <use style="stroke:#000000;" x="98.7256" xlink:href="#m6bc168c567" y="68.468782"/>
     <use style="stroke:#000000;" x="98.877255" xlink:href="#m6bc168c567" y="73.892614"/>
     <use style="stroke:#000000;" x="99.028909" xlink:href="#m6bc168c567" y="75.818948"/>
     <use style="stroke:#000000;" x="99.180564" xlink:href="#m6bc168c567" y="68.468782"/>
     <use style="stroke:#000000;" x="99.332219" xlink:href="#m6bc168c567" y="71.183708"/>
     <use style="stroke:#000000;" x="99.483874" xlink:href="#m6bc168c567" y="70.798441"/>
     <use style="stroke:#000000;" x="99.635528" xlink:href="#m6bc168c567" y="71.568974"/>
     <use style="stroke:#000000;" x="99.787183" xlink:href="#m6bc168c567" y="71.568974"/>
     <use style="stroke:#000000;" x="99.938838" xlink:href="#m6bc168c567" y="67.300942"/>
     <use style="stroke:#000000;" x="100.090493" xlink:href="#m6bc168c567" y="73.507348"/>
     <use style="stroke:#000000;" x="100.242147" xlink:href="#m6bc168c567" y="71.960261"/>
     <use style="stroke:#000000;" x="100.393802" xlink:href="#m6bc168c567" y="73.116061"/>
     <use style="stroke:#000000;" x="100.545457" xlink:href="#m6bc168c567" y="71.183708"/>
     <use style="stroke:#000000;" x="100.697112" xlink:href="#m6bc168c567" y="67.300942"/>
     <use style="stroke:#000000;" x="100.848766" xlink:href="#m6bc168c567" y="68.077495"/>
     <use style="stroke:#000000;" x="101.000421" xlink:href="#m6bc168c567" y="69.245335"/>
     <use style="stroke:#000000;" x="101.152076" xlink:href="#m6bc168c567" y="72.730794"/>
     <use style="stroke:#000000;" x="101.303731" xlink:href="#m6bc168c567" y="67.300942"/>
     <use style="stroke:#000000;" x="101.455385" xlink:href="#m6bc168c567" y="70.798441"/>
     <use style="stroke:#000000;" x="101.60704" xlink:href="#m6bc168c567" y="67.300942"/>
     <use style="stroke:#000000;" x="101.758695" xlink:href="#m6bc168c567" y="71.568974"/>
     <use style="stroke:#000000;" x="101.91035" xlink:href="#m6bc168c567" y="68.854048"/>
     <use style="stroke:#000000;" x="102.062004" xlink:href="#m6bc168c567" y="69.630601"/>
     <use style="stroke:#000000;" x="102.213659" xlink:href="#m6bc168c567" y="72.345528"/>
     <use style="stroke:#000000;" x="102.365314" xlink:href="#m6bc168c567" y="64.579996"/>
     <use style="stroke:#000000;" x="102.516968" xlink:href="#m6bc168c567" y="66.139122"/>
     <use style="stroke:#000000;" x="102.668623" xlink:href="#m6bc168c567" y="66.915675"/>
     <use style="stroke:#000000;" x="102.820278" xlink:href="#m6bc168c567" y="61.064437"/>
     <use style="stroke:#000000;" x="102.971933" xlink:href="#m6bc168c567" y="66.139122"/>
     <use style="stroke:#000000;" x="103.123587" xlink:href="#m6bc168c567" y="67.692228"/>
     <use style="stroke:#000000;" x="103.275242" xlink:href="#m6bc168c567" y="68.854048"/>
     <use style="stroke:#000000;" x="103.426897" xlink:href="#m6bc168c567" y="70.407155"/>
     <use style="stroke:#000000;" x="103.578552" xlink:href="#m6bc168c567" y="64.579996"/>
     <use style="stroke:#000000;" x="103.730206" xlink:href="#m6bc168c567" y="60.281864"/>
     <use style="stroke:#000000;" x="103.881861" xlink:href="#m6bc168c567" y="61.064437"/>
     <use style="stroke:#000000;" x="104.033516" xlink:href="#m6bc168c567" y="64.579996"/>
     <use style="stroke:#000000;" x="104.185171" xlink:href="#m6bc168c567" y="65.356549"/>
     <use style="stroke:#000000;" x="104.336825" xlink:href="#m6bc168c567" y="68.077495"/>
     <use style="stroke:#000000;" x="104.48848" xlink:href="#m6bc168c567" y="64.188709"/>
     <use style="stroke:#000000;" x="104.640135" xlink:href="#m6bc168c567" y="59.890578"/>
     <use style="stroke:#000000;" x="104.79179" xlink:href="#m6bc168c567" y="64.965263"/>
     <use style="stroke:#000000;" x="104.943444" xlink:href="#m6bc168c567" y="60.673151"/>
     <use style="stroke:#000000;" x="105.095099" xlink:href="#m6bc168c567" y="66.139122"/>
     <use style="stroke:#000000;" x="105.246754" xlink:href="#m6bc168c567" y="60.673151"/>
     <use style="stroke:#000000;" x="105.398409" xlink:href="#m6bc168c567" y="66.524389"/>
     <use style="stroke:#000000;" x="105.550063" xlink:href="#m6bc168c567" y="62.238297"/>
     <use style="stroke:#000000;" x="105.701718" xlink:href="#m6bc168c567" y="59.108005"/>
     <use style="stroke:#000000;" x="105.853373" xlink:href="#m6bc168c567" y="59.890578"/>
     <use style="stroke:#000000;" x="106.005028" xlink:href="#m6bc168c567" y="59.890578"/>
     <use style="stroke:#000000;" x="106.156682" xlink:href="#m6bc168c567" y="62.629583"/>
     <use style="stroke:#000000;" x="106.308337" xlink:href="#m6bc168c567" y="68.077495"/>
     <use style="stroke:#000000;" x="106.459992" xlink:href="#m6bc168c567" y="62.238297"/>
     <use style="stroke:#000000;" x="106.611646" xlink:href="#m6bc168c567" y="62.629583"/>
     <use style="stroke:#000000;" x="106.763301" xlink:href="#m6bc168c567" y="63.797423"/>
     <use style="stroke:#000000;" x="106.914956" xlink:href="#m6bc168c567" y="64.579996"/>
     <use style="stroke:#000000;" x="107.066611" xlink:href="#m6bc168c567" y="62.238297"/>
     <use style="stroke:#000000;" x="107.218265" xlink:href="#m6bc168c567" y="64.965263"/>
     <use style="stroke:#000000;" x="107.36992" xlink:href="#m6bc168c567" y="62.629583"/>
     <use style="stroke:#000000;" x="107.521575" xlink:href="#m6bc168c567" y="61.84701"/>
     <use style="stroke:#000000;" x="107.67323" xlink:href="#m6bc168c567" y="61.064437"/>
     <use style="stroke:#000000;" x="107.824884" xlink:href="#m6bc168c567" y="64.965263"/>
     <use style="stroke:#000000;" x="107.976539" xlink:href="#m6bc168c567" y="60.673151"/>
     <use style="stroke:#000000;" x="108.128194" xlink:href="#m6bc168c567" y="58.716718"/>
     <use style="stroke:#000000;" x="108.279849" xlink:href="#m6bc168c567" y="65.356549"/>
     <use style="stroke:#000000;" x="108.431503" xlink:href="#m6bc168c567" y="64.579996"/>
     <use style="stroke:#000000;" x="108.583158" xlink:href="#m6bc168c567" y="59.890578"/>
     <use style="stroke:#000000;" x="108.734813" xlink:href="#m6bc168c567" y="61.064437"/>
     <use style="stroke:#000000;" x="108.886468" xlink:href="#m6bc168c567" y="64.965263"/>
     <use style="stroke:#000000;" x="109.038122" xlink:href="#m6bc168c567" y="59.108005"/>
     <use style="stroke:#000000;" x="109.189777" xlink:href="#m6bc168c567" y="61.455724"/>
     <use style="stroke:#000000;" x="109.341432" xlink:href="#m6bc168c567" y="65.356549"/>
     <use style="stroke:#000000;" x="109.493087" xlink:href="#m6bc168c567" y="66.915675"/>
     <use style="stroke:#000000;" x="109.644741" xlink:href="#m6bc168c567" y="61.84701"/>
     <use style="stroke:#000000;" x="109.796396" xlink:href="#m6bc168c567" y="61.84701"/>
     <use style="stroke:#000000;" x="109.948051" xlink:href="#m6bc168c567" y="62.629583"/>
     <use style="stroke:#000000;" x="110.099705" xlink:href="#m6bc168c567" y="63.797423"/>
     <use style="stroke:#000000;" x="110.25136" xlink:href="#m6bc168c567" y="63.02087"/>
     <use style="stroke:#000000;" x="110.403015" xlink:href="#m6bc168c567" y="59.108005"/>
     <use style="stroke:#000000;" x="110.55467" xlink:href="#m6bc168c567" y="66.524389"/>
     <use style="stroke:#000000;" x="110.706324" xlink:href="#m6bc168c567" y="59.108005"/>
     <use style="stroke:#000000;" x="110.857979" xlink:href="#m6bc168c567" y="59.499291"/>
     <use style="stroke:#000000;" x="111.009634" xlink:href="#m6bc168c567" y="58.325432"/>
     <use style="stroke:#000000;" x="111.161289" xlink:href="#m6bc168c567" y="64.188709"/>
     <use style="stroke:#000000;" x="111.312943" xlink:href="#m6bc168c567" y="64.579996"/>
     <use style="stroke:#000000;" x="111.464598" xlink:href="#m6bc168c567" y="61.064437"/>
     <use style="stroke:#000000;" x="111.616253" xlink:href="#m6bc168c567" y="70.407155"/>
     <use style="stroke:#000000;" x="111.767908" xlink:href="#m6bc168c567" y="64.965263"/>
     <use style="stroke:#000000;" x="111.919562" xlink:href="#m6bc168c567" y="62.238297"/>
     <use style="stroke:#000000;" x="112.071217" xlink:href="#m6bc168c567" y="66.915675"/>
     <use style="stroke:#000000;" x="112.222872" xlink:href="#m6bc168c567" y="59.890578"/>
     <use style="stroke:#000000;" x="112.374527" xlink:href="#m6bc168c567" y="66.915675"/>
     <use style="stroke:#000000;" x="112.526181" xlink:href="#m6bc168c567" y="61.064437"/>
     <use style="stroke:#000000;" x="112.677836" xlink:href="#m6bc168c567" y="63.797423"/>
     <use style="stroke:#000000;" x="112.829491" xlink:href="#m6bc168c567" y="66.524389"/>
     <use style="stroke:#000000;" x="112.981146" xlink:href="#m6bc168c567" y="65.356549"/>
     <use style="stroke:#000000;" x="113.1328" xlink:href="#m6bc168c567" y="55.971693"/>
     <use style="stroke:#000000;" x="113.284455" xlink:href="#m6bc168c567" y="58.325432"/>
     <use style="stroke:#000000;" x="113.43611" xlink:href="#m6bc168c567" y="62.629583"/>
     <use style="stroke:#000000;" x="113.587764" xlink:href="#m6bc168c567" y="59.499291"/>
     <use style="stroke:#000000;" x="113.739419" xlink:href="#m6bc168c567" y="64.579996"/>
     <use style="stroke:#000000;" x="113.891074" xlink:href="#m6bc168c567" y="61.455724"/>
     <use style="stroke:#000000;" x="114.042729" xlink:href="#m6bc168c567" y="65.356549"/>
     <use style="stroke:#000000;" x="114.194383" xlink:href="#m6bc168c567" y="61.84701"/>
     <use style="stroke:#000000;" x="114.346038" xlink:href="#m6bc168c567" y="63.797423"/>
     <use style="stroke:#000000;" x="114.497693" xlink:href="#m6bc168c567" y="62.238297"/>
     <use style="stroke:#000000;" x="114.649348" xlink:href="#m6bc168c567" y="61.455724"/>
     <use style="stroke:#000000;" x="114.801002" xlink:href="#m6bc168c567" y="63.02087"/>
     <use style="stroke:#000000;" x="114.952657" xlink:href="#m6bc168c567" y="56.36298"/>
     <use style="stroke:#000000;" x="115.104312" xlink:href="#m6bc168c567" y="58.325432"/>
     <use style="stroke:#000000;" x="115.255967" xlink:href="#m6bc168c567" y="61.064437"/>
     <use style="stroke:#000000;" x="115.407621" xlink:href="#m6bc168c567" y="63.797423"/>
     <use style="stroke:#000000;" x="115.559276" xlink:href="#m6bc168c567" y="64.579996"/>
     <use style="stroke:#000000;" x="115.710931" xlink:href="#m6bc168c567" y="59.108005"/>
     <use style="stroke:#000000;" x="115.862586" xlink:href="#m6bc168c567" y="63.406136"/>
     <use style="stroke:#000000;" x="116.01424" xlink:href="#m6bc168c567" y="59.108005"/>
     <use style="stroke:#000000;" x="116.165895" xlink:href="#m6bc168c567" y="57.145553"/>
     <use style="stroke:#000000;" x="116.31755" xlink:href="#m6bc168c567" y="63.406136"/>
     <use style="stroke:#000000;" x="116.469205" xlink:href="#m6bc168c567" y="58.716718"/>
     <use style="stroke:#000000;" x="116.620859" xlink:href="#m6bc168c567" y="61.84701"/>
     <use style="stroke:#000000;" x="116.772514" xlink:href="#m6bc168c567" y="64.965263"/>
     <use style="stroke:#000000;" x="116.924169" xlink:href="#m6bc168c567" y="61.455724"/>
     <use style="stroke:#000000;" x="117.075823" xlink:href="#m6bc168c567" y="62.238297"/>
     <use style="stroke:#000000;" x="117.227478" xlink:href="#m6bc168c567" y="58.325432"/>
     <use style="stroke:#000000;" x="117.379133" xlink:href="#m6bc168c567" y="58.716718"/>
     <use style="stroke:#000000;" x="117.530788" xlink:href="#m6bc168c567" y="59.499291"/>
     <use style="stroke:#000000;" x="117.682442" xlink:href="#m6bc168c567" y="57.542859"/>
     <use style="stroke:#000000;" x="117.834097" xlink:href="#m6bc168c567" y="58.325432"/>
     <use style="stroke:#000000;" x="117.985752" xlink:href="#m6bc168c567" y="56.754266"/>
     <use style="stroke:#000000;" x="118.137407" xlink:href="#m6bc168c567" y="58.325432"/>
     <use style="stroke:#000000;" x="118.289061" xlink:href="#m6bc168c567" y="61.455724"/>
     <use style="stroke:#000000;" x="118.440716" xlink:href="#m6bc168c567" y="53.214629"/>
     <use style="stroke:#000000;" x="118.592371" xlink:href="#m6bc168c567" y="58.716718"/>
     <use style="stroke:#000000;" x="118.744026" xlink:href="#m6bc168c567" y="56.36298"/>
     <use style="stroke:#000000;" x="118.89568" xlink:href="#m6bc168c567" y="55.580407"/>
     <use style="stroke:#000000;" x="119.047335" xlink:href="#m6bc168c567" y="57.542859"/>
     <use style="stroke:#000000;" x="119.19899" xlink:href="#m6bc168c567" y="59.108005"/>
     <use style="stroke:#000000;" x="119.350645" xlink:href="#m6bc168c567" y="59.499291"/>
     <use style="stroke:#000000;" x="119.502299" xlink:href="#m6bc168c567" y="55.971693"/>
     <use style="stroke:#000000;" x="119.653954" xlink:href="#m6bc168c567" y="57.542859"/>
     <use style="stroke:#000000;" x="119.805609" xlink:href="#m6bc168c567" y="52.823342"/>
     <use style="stroke:#000000;" x="119.957264" xlink:href="#m6bc168c567" y="61.455724"/>
     <use style="stroke:#000000;" x="120.108918" xlink:href="#m6bc168c567" y="54.003221"/>
     <use style="stroke:#000000;" x="120.260573" xlink:href="#m6bc168c567" y="55.580407"/>
     <use style="stroke:#000000;" x="120.412228" xlink:href="#m6bc168c567" y="59.108005"/>
     <use style="stroke:#000000;" x="120.563883" xlink:href="#m6bc168c567" y="56.36298"/>
     <use style="stroke:#000000;" x="120.715537" xlink:href="#m6bc168c567" y="61.064437"/>
     <use style="stroke:#000000;" x="120.867192" xlink:href="#m6bc168c567" y="57.934145"/>
     <use style="stroke:#000000;" x="121.018847" xlink:href="#m6bc168c567" y="57.542859"/>
     <use style="stroke:#000000;" x="121.170501" xlink:href="#m6bc168c567" y="59.499291"/>
     <use style="stroke:#000000;" x="121.322156" xlink:href="#m6bc168c567" y="57.542859"/>
     <use style="stroke:#000000;" x="121.473811" xlink:href="#m6bc168c567" y="60.673151"/>
     <use style="stroke:#000000;" x="121.625466" xlink:href="#m6bc168c567" y="57.145553"/>
     <use style="stroke:#000000;" x="121.77712" xlink:href="#m6bc168c567" y="56.36298"/>
     <use style="stroke:#000000;" x="121.928775" xlink:href="#m6bc168c567" y="50.84885"/>
     <use style="stroke:#000000;" x="122.08043" xlink:href="#m6bc168c567" y="58.325432"/>
     <use style="stroke:#000000;" x="122.232085" xlink:href="#m6bc168c567" y="58.325432"/>
     <use style="stroke:#000000;" x="122.383739" xlink:href="#m6bc168c567" y="57.542859"/>
     <use style="stroke:#000000;" x="122.535394" xlink:href="#m6bc168c567" y="58.325432"/>
     <use style="stroke:#000000;" x="122.687049" xlink:href="#m6bc168c567" y="55.580407"/>
     <use style="stroke:#000000;" x="122.838704" xlink:href="#m6bc168c567" y="52.823342"/>
     <use style="stroke:#000000;" x="122.990358" xlink:href="#m6bc168c567" y="57.145553"/>
     <use style="stroke:#000000;" x="123.142013" xlink:href="#m6bc168c567" y="59.108005"/>
     <use style="stroke:#000000;" x="123.293668" xlink:href="#m6bc168c567" y="60.281864"/>
     <use style="stroke:#000000;" x="123.445323" xlink:href="#m6bc168c567" y="57.542859"/>
     <use style="stroke:#000000;" x="123.596977" xlink:href="#m6bc168c567" y="58.716718"/>
     <use style="stroke:#000000;" x="123.748632" xlink:href="#m6bc168c567" y="59.108005"/>
     <use style="stroke:#000000;" x="123.900287" xlink:href="#m6bc168c567" y="57.145553"/>
     <use style="stroke:#000000;" x="124.051942" xlink:href="#m6bc168c567" y="55.580407"/>
     <use style="stroke:#000000;" x="124.203596" xlink:href="#m6bc168c567" y="52.426036"/>
     <use style="stroke:#000000;" x="124.355251" xlink:href="#m6bc168c567" y="56.36298"/>
     <use style="stroke:#000000;" x="124.506906" xlink:href="#m6bc168c567" y="58.325432"/>
     <use style="stroke:#000000;" x="124.65856" xlink:href="#m6bc168c567" y="55.971693"/>
     <use style="stroke:#000000;" x="124.810215" xlink:href="#m6bc168c567" y="59.890578"/>
     <use style="stroke:#000000;" x="124.96187" xlink:href="#m6bc168c567" y="55.580407"/>
     <use style="stroke:#000000;" x="125.113525" xlink:href="#m6bc168c567" y="56.36298"/>
     <use style="stroke:#000000;" x="125.265179" xlink:href="#m6bc168c567" y="52.034749"/>
     <use style="stroke:#000000;" x="125.416834" xlink:href="#m6bc168c567" y="57.934145"/>
     <use style="stroke:#000000;" x="125.568489" xlink:href="#m6bc168c567" y="57.934145"/>
     <use style="stroke:#000000;" x="125.720144" xlink:href="#m6bc168c567" y="51.246157"/>
     <use style="stroke:#000000;" x="125.871798" xlink:href="#m6bc168c567" y="61.455724"/>
     <use style="stroke:#000000;" x="126.023453" xlink:href="#m6bc168c567" y="62.238297"/>
     <use style="stroke:#000000;" x="126.175108" xlink:href="#m6bc168c567" y="61.064437"/>
     <use style="stroke:#000000;" x="126.326763" xlink:href="#m6bc168c567" y="58.325432"/>
     <use style="stroke:#000000;" x="126.478417" xlink:href="#m6bc168c567" y="57.145553"/>
     <use style="stroke:#000000;" x="126.630072" xlink:href="#m6bc168c567" y="57.542859"/>
     <use style="stroke:#000000;" x="126.781727" xlink:href="#m6bc168c567" y="57.934145"/>
     <use style="stroke:#000000;" x="126.933382" xlink:href="#m6bc168c567" y="60.281864"/>
     <use style="stroke:#000000;" x="127.085036" xlink:href="#m6bc168c567" y="54.003221"/>
     <use style="stroke:#000000;" x="127.236691" xlink:href="#m6bc168c567" y="59.499291"/>
     <use style="stroke:#000000;" x="127.388346" xlink:href="#m6bc168c567" y="59.499291"/>
     <use style="stroke:#000000;" x="127.540001" xlink:href="#m6bc168c567" y="50.060257"/>
     <use style="stroke:#000000;" x="127.691655" xlink:href="#m6bc168c567" y="54.400528"/>
     <use style="stroke:#000000;" x="127.84331" xlink:href="#m6bc168c567" y="61.064437"/>
     <use style="stroke:#000000;" x="127.994965" xlink:href="#m6bc168c567" y="55.971693"/>
     <use style="stroke:#000000;" x="128.146619" xlink:href="#m6bc168c567" y="55.971693"/>
     <use style="stroke:#000000;" x="128.298274" xlink:href="#m6bc168c567" y="54.400528"/>
     <use style="stroke:#000000;" x="128.449929" xlink:href="#m6bc168c567" y="52.426036"/>
     <use style="stroke:#000000;" x="128.601584" xlink:href="#m6bc168c567" y="54.791814"/>
     <use style="stroke:#000000;" x="128.753238" xlink:href="#m6bc168c567" y="59.890578"/>
     <use style="stroke:#000000;" x="128.904893" xlink:href="#m6bc168c567" y="55.971693"/>
     <use style="stroke:#000000;" x="129.056548" xlink:href="#m6bc168c567" y="52.823342"/>
     <use style="stroke:#000000;" x="129.208203" xlink:href="#m6bc168c567" y="54.791814"/>
     <use style="stroke:#000000;" x="129.359857" xlink:href="#m6bc168c567" y="59.890578"/>
     <use style="stroke:#000000;" x="129.511512" xlink:href="#m6bc168c567" y="55.971693"/>
     <use style="stroke:#000000;" x="129.663167" xlink:href="#m6bc168c567" y="57.145553"/>
     <use style="stroke:#000000;" x="129.814822" xlink:href="#m6bc168c567" y="54.400528"/>
     <use style="stroke:#000000;" x="129.966476" xlink:href="#m6bc168c567" y="55.183101"/>
     <use style="stroke:#000000;" x="130.118131" xlink:href="#m6bc168c567" y="56.36298"/>
     <use style="stroke:#000000;" x="130.269786" xlink:href="#m6bc168c567" y="55.580407"/>
     <use style="stroke:#000000;" x="130.421441" xlink:href="#m6bc168c567" y="54.400528"/>
     <use style="stroke:#000000;" x="130.573095" xlink:href="#m6bc168c567" y="56.754266"/>
     <use style="stroke:#000000;" x="130.72475" xlink:href="#m6bc168c567" y="58.716718"/>
     <use style="stroke:#000000;" x="130.876405" xlink:href="#m6bc168c567" y="56.754266"/>
     <use style="stroke:#000000;" x="131.02806" xlink:href="#m6bc168c567" y="54.791814"/>
     <use style="stroke:#000000;" x="131.179714" xlink:href="#m6bc168c567" y="51.246157"/>
     <use style="stroke:#000000;" x="131.331369" xlink:href="#m6bc168c567" y="55.971693"/>
     <use style="stroke:#000000;" x="131.483024" xlink:href="#m6bc168c567" y="49.668971"/>
     <use style="stroke:#000000;" x="131.634678" xlink:href="#m6bc168c567" y="60.673151"/>
     <use style="stroke:#000000;" x="131.786333" xlink:href="#m6bc168c567" y="52.034749"/>
     <use style="stroke:#000000;" x="131.937988" xlink:href="#m6bc168c567" y="54.003221"/>
     <use style="stroke:#000000;" x="132.089643" xlink:href="#m6bc168c567" y="53.611935"/>
     <use style="stroke:#000000;" x="132.241297" xlink:href="#m6bc168c567" y="62.629583"/>
     <use style="stroke:#000000;" x="132.392952" xlink:href="#m6bc168c567" y="54.003221"/>
     <use style="stroke:#000000;" x="132.544607" xlink:href="#m6bc168c567" y="52.034749"/>
     <use style="stroke:#000000;" x="132.696262" xlink:href="#m6bc168c567" y="55.971693"/>
     <use style="stroke:#000000;" x="132.847916" xlink:href="#m6bc168c567" y="54.400528"/>
     <use style="stroke:#000000;" x="132.999571" xlink:href="#m6bc168c567" y="54.400528"/>
     <use style="stroke:#000000;" x="133.151226" xlink:href="#m6bc168c567" y="52.823342"/>
     <use style="stroke:#000000;" x="133.302881" xlink:href="#m6bc168c567" y="55.183101"/>
     <use style="stroke:#000000;" x="133.454535" xlink:href="#m6bc168c567" y="55.971693"/>
     <use style="stroke:#000000;" x="133.60619" xlink:href="#m6bc168c567" y="58.325432"/>
     <use style="stroke:#000000;" x="133.757845" xlink:href="#m6bc168c567" y="53.214629"/>
     <use style="stroke:#000000;" x="133.9095" xlink:href="#m6bc168c567" y="54.791814"/>
     <use style="stroke:#000000;" x="134.061154" xlink:href="#m6bc168c567" y="55.580407"/>
     <use style="stroke:#000000;" x="134.212809" xlink:href="#m6bc168c567" y="58.325432"/>
     <use style="stroke:#000000;" x="134.364464" xlink:href="#m6bc168c567" y="50.84885"/>
     <use style="stroke:#000000;" x="134.516119" xlink:href="#m6bc168c567" y="58.325432"/>
     <use style="stroke:#000000;" x="134.667773" xlink:href="#m6bc168c567" y="51.246157"/>
     <use style="stroke:#000000;" x="134.819428" xlink:href="#m6bc168c567" y="52.426036"/>
     <use style="stroke:#000000;" x="134.971083" xlink:href="#m6bc168c567" y="51.246157"/>
     <use style="stroke:#000000;" x="135.122738" xlink:href="#m6bc168c567" y="56.36298"/>
     <use style="stroke:#000000;" x="135.274392" xlink:href="#m6bc168c567" y="56.754266"/>
     <use style="stroke:#000000;" x="135.426047" xlink:href="#m6bc168c567" y="53.611935"/>
     <use style="stroke:#000000;" x="135.577702" xlink:href="#m6bc168c567" y="58.325432"/>
     <use style="stroke:#000000;" x="135.729356" xlink:href="#m6bc168c567" y="51.246157"/>
     <use style="stroke:#000000;" x="135.881011" xlink:href="#m6bc168c567" y="53.214629"/>
     <use style="stroke:#000000;" x="136.032666" xlink:href="#m6bc168c567" y="54.791814"/>
     <use style="stroke:#000000;" x="136.184321" xlink:href="#m6bc168c567" y="52.034749"/>
     <use style="stroke:#000000;" x="136.335975" xlink:href="#m6bc168c567" y="56.754266"/>
     <use style="stroke:#000000;" x="136.48763" xlink:href="#m6bc168c567" y="59.890578"/>
     <use style="stroke:#000000;" x="136.639285" xlink:href="#m6bc168c567" y="54.400528"/>
     <use style="stroke:#000000;" x="136.79094" xlink:href="#m6bc168c567" y="56.36298"/>
     <use style="stroke:#000000;" x="136.942594" xlink:href="#m6bc168c567" y="52.426036"/>
     <use style="stroke:#000000;" x="137.094249" xlink:href="#m6bc168c567" y="60.281864"/>
     <use style="stroke:#000000;" x="137.245904" xlink:href="#m6bc168c567" y="59.499291"/>
     <use style="stroke:#000000;" x="137.397559" xlink:href="#m6bc168c567" y="54.003221"/>
     <use style="stroke:#000000;" x="137.549213" xlink:href="#m6bc168c567" y="57.934145"/>
     <use style="stroke:#000000;" x="137.700868" xlink:href="#m6bc168c567" y="51.643463"/>
     <use style="stroke:#000000;" x="137.852523" xlink:href="#m6bc168c567" y="56.754266"/>
     <use style="stroke:#000000;" x="138.004178" xlink:href="#m6bc168c567" y="57.542859"/>
     <use style="stroke:#000000;" x="138.155832" xlink:href="#m6bc168c567" y="52.823342"/>
     <use style="stroke:#000000;" x="138.307487" xlink:href="#m6bc168c567" y="56.754266"/>
     <use style="stroke:#000000;" x="138.459142" xlink:href="#m6bc168c567" y="54.400528"/>
     <use style="stroke:#000000;" x="138.610797" xlink:href="#m6bc168c567" y="55.183101"/>
     <use style="stroke:#000000;" x="138.762451" xlink:href="#m6bc168c567" y="53.214629"/>
     <use style="stroke:#000000;" x="138.914106" xlink:href="#m6bc168c567" y="52.426036"/>
     <use style="stroke:#000000;" x="139.065761" xlink:href="#m6bc168c567" y="54.400528"/>
     <use style="stroke:#000000;" x="139.217415" xlink:href="#m6bc168c567" y="52.823342"/>
     <use style="stroke:#000000;" x="139.36907" xlink:href="#m6bc168c567" y="53.611935"/>
     <use style="stroke:#000000;" x="139.520725" xlink:href="#m6bc168c567" y="59.108005"/>
     <use style="stroke:#000000;" x="139.67238" xlink:href="#m6bc168c567" y="53.214629"/>
     <use style="stroke:#000000;" x="139.824034" xlink:href="#m6bc168c567" y="59.890578"/>
     <use style="stroke:#000000;" x="139.975689" xlink:href="#m6bc168c567" y="57.934145"/>
     <use style="stroke:#000000;" x="140.127344" xlink:href="#m6bc168c567" y="56.754266"/>
     <use style="stroke:#000000;" x="140.278999" xlink:href="#m6bc168c567" y="57.542859"/>
     <use style="stroke:#000000;" x="140.430653" xlink:href="#m6bc168c567" y="54.003221"/>
     <use style="stroke:#000000;" x="140.582308" xlink:href="#m6bc168c567" y="56.36298"/>
     <use style="stroke:#000000;" x="140.733963" xlink:href="#m6bc168c567" y="55.580407"/>
     <use style="stroke:#000000;" x="140.885618" xlink:href="#m6bc168c567" y="54.003221"/>
     <use style="stroke:#000000;" x="141.037272" xlink:href="#m6bc168c567" y="57.934145"/>
     <use style="stroke:#000000;" x="141.188927" xlink:href="#m6bc168c567" y="58.716718"/>
     <use style="stroke:#000000;" x="141.340582" xlink:href="#m6bc168c567" y="54.400528"/>
     <use style="stroke:#000000;" x="141.492237" xlink:href="#m6bc168c567" y="56.36298"/>
     <use style="stroke:#000000;" x="141.643891" xlink:href="#m6bc168c567" y="61.84701"/>
     <use style="stroke:#000000;" x="141.795546" xlink:href="#m6bc168c567" y="59.108005"/>
     <use style="stroke:#000000;" x="141.947201" xlink:href="#m6bc168c567" y="58.716718"/>
     <use style="stroke:#000000;" x="142.098856" xlink:href="#m6bc168c567" y="60.281864"/>
     <use style="stroke:#000000;" x="142.25051" xlink:href="#m6bc168c567" y="55.183101"/>
     <use style="stroke:#000000;" x="142.402165" xlink:href="#m6bc168c567" y="55.971693"/>
     <use style="stroke:#000000;" x="142.55382" xlink:href="#m6bc168c567" y="60.281864"/>
     <use style="stroke:#000000;" x="142.705474" xlink:href="#m6bc168c567" y="54.400528"/>
     <use style="stroke:#000000;" x="142.857129" xlink:href="#m6bc168c567" y="62.629583"/>
     <use style="stroke:#000000;" x="143.008784" xlink:href="#m6bc168c567" y="57.542859"/>
     <use style="stroke:#000000;" x="143.160439" xlink:href="#m6bc168c567" y="53.611935"/>
     <use style="stroke:#000000;" x="143.312093" xlink:href="#m6bc168c567" y="53.611935"/>
     <use style="stroke:#000000;" x="143.463748" xlink:href="#m6bc168c567" y="59.499291"/>
     <use style="stroke:#000000;" x="143.615403" xlink:href="#m6bc168c567" y="58.716718"/>
     <use style="stroke:#000000;" x="143.767058" xlink:href="#m6bc168c567" y="54.400528"/>
     <use style="stroke:#000000;" x="143.918712" xlink:href="#m6bc168c567" y="57.542859"/>
     <use style="stroke:#000000;" x="144.070367" xlink:href="#m6bc168c567" y="58.716718"/>
     <use style="stroke:#000000;" x="144.222022" xlink:href="#m6bc168c567" y="58.716718"/>
     <use style="stroke:#000000;" x="144.373677" xlink:href="#m6bc168c567" y="56.754266"/>
     <use style="stroke:#000000;" x="144.525331" xlink:href="#m6bc168c567" y="56.754266"/>
     <use style="stroke:#000000;" x="144.676986" xlink:href="#m6bc168c567" y="55.971693"/>
     <use style="stroke:#000000;" x="144.828641" xlink:href="#m6bc168c567" y="57.934145"/>
     <use style="stroke:#000000;" x="144.980296" xlink:href="#m6bc168c567" y="54.791814"/>
     <use style="stroke:#000000;" x="145.13195" xlink:href="#m6bc168c567" y="63.406136"/>
     <use style="stroke:#000000;" x="145.283605" xlink:href="#m6bc168c567" y="60.673151"/>
     <use style="stroke:#000000;" x="145.43526" xlink:href="#m6bc168c567" y="59.108005"/>
     <use style="stroke:#000000;" x="145.586915" xlink:href="#m6bc168c567" y="61.455724"/>
     <use style="stroke:#000000;" x="145.738569" xlink:href="#m6bc168c567" y="58.716718"/>
     <use style="stroke:#000000;" x="145.890224" xlink:href="#m6bc168c567" y="56.36298"/>
    </g>
   </g>
   <g id="line2d_20">
    <path clip-path="url(#p24a163b800)" d="M 68.546307 194.473379 
L 68.697962 194.195029 
L 69.001271 192.318128 
L 69.456235 187.455556 
L 70.669473 170.548116 
L 72.337675 148.317118 
L 73.854223 131.038156 
L 75.37077 116.295298 
L 76.887317 103.779949 
L 78.403865 93.179591 
L 79.768758 85.026401 
L 81.285305 77.335605 
L 82.650198 71.415092 
L 84.166745 65.794849 
L 85.683292 61.035527 
L 87.351495 56.677495 
L 88.868042 53.294399 
L 90.536244 50.130431 
L 92.052791 47.756465 
L 93.720994 45.462176 
L 94.934232 44.034349 
L 96.450779 42.463219 
L 97.664017 41.372434 
L 99.635528 39.817489 
L 101.60704 38.567049 
L 104.185171 37.241461 
L 107.521575 35.939313 
L 112.222872 34.664589 
L 114.649348 34.189414 
L 117.530788 33.738904 
L 123.142013 33.127597 
L 129.056548 32.721779 
L 138.307487 32.363463 
L 145.890224 32.201761 
L 145.890224 32.201761 
" style="fill:none;stroke:#0000ff;stroke-dasharray:5.55,2.4;stroke-dashoffset:0;stroke-width:1.5;"/>
   </g>
   <g id="line2d_21">
    <path clip-path="url(#p24a163b800)" d="M 68.546307 229.874489 
L 68.697962 229.588969 
L 69.001271 227.679365 
L 69.456235 222.827819 
L 73.247604 176.499672 
L 74.915806 160.676923 
L 76.432353 148.277945 
L 77.948901 137.50103 
L 79.617103 127.27552 
L 81.285305 118.525297 
L 83.105162 110.47267 
L 84.925019 103.738711 
L 86.593221 98.531951 
L 88.261423 94.111384 
L 89.77797 90.732535 
L 91.597827 87.288216 
L 92.507756 85.779285 
L 95.237541 82.072615 
L 97.512362 79.672315 
L 99.332219 78.141098 
L 101.91035 76.379689 
L 103.881861 75.313198 
L 106.156682 74.30453 
L 108.279849 73.545699 
L 112.071217 72.525473 
L 117.227478 71.606632 
L 122.990358 70.968365 
L 128.753238 70.575981 
L 136.48763 70.259328 
L 145.890224 70.04728 
L 145.890224 70.04728 
" style="fill:none;stroke:#0000ff;stroke-dasharray:5.55,2.4;stroke-dashoffset:0;stroke-width:1.5;"/>
   </g>
   <g id="line2d_22"/>
   <g id="line2d_23"/>
   <g id="line2d_24"/>
   <g id="line2d_25"/>
   <g id="line2d_26"/>
   <g id="line2d_27"/>
   <g id="patch_3">
    <path d="M 53.328125 239.758125 
L 53.328125 22.318125 
" style="fill:none;stroke:#000000;stroke-linecap:square;stroke-linejoin:miter;stroke-width:0.8;"/>
   </g>
   <g id="patch_4">
    <path d="M 388.128125 239.758125 
L 388.128125 22.318125 
" style="fill:none;stroke:#000000;stroke-linecap:square;stroke-linejoin:miter;stroke-width:0.8;"/>
   </g>
   <g id="patch_5">
    <path d="M 53.328125 239.758125 
L 388.128125 239.758125 
" style="fill:none;stroke:#000000;stroke-linecap:square;stroke-linejoin:miter;stroke-width:0.8;"/>
   </g>
   <g id="patch_6">
    <path d="M 53.328125 22.318125 
L 388.128125 22.318125 
" style="fill:none;stroke:#000000;stroke-linecap:square;stroke-linejoin:miter;stroke-width:0.8;"/>
   </g>
   <g id="text_19">
    <!-- Experiment_21 -->
    <defs>
     <path d="M 9.8125 72.90625 
L 55.90625 72.90625 
L 55.90625 64.59375 
L 19.671875 64.59375 
L 19.671875 43.015625 
L 54.390625 43.015625 
L 54.390625 34.71875 
L 19.671875 34.71875 
L 19.671875 8.296875 
L 56.78125 8.296875 
L 56.78125 0 
L 9.8125 0 
z
" id="DejaVuSans-69"/>
     <path d="M 54.890625 54.6875 
L 35.109375 28.078125 
L 55.90625 0 
L 45.3125 0 
L 29.390625 21.484375 
L 13.484375 0 
L 2.875 0 
L 24.125 28.609375 
L 4.6875 54.6875 
L 15.28125 54.6875 
L 29.78125 35.203125 
L 44.28125 54.6875 
z
" id="DejaVuSans-120"/>
     <path d="M 41.109375 46.296875 
Q 39.59375 47.171875 37.8125 47.578125 
Q 36.03125 48 33.890625 48 
Q 26.265625 48 22.1875 43.046875 
Q 18.109375 38.09375 18.109375 28.8125 
L 18.109375 0 
L 9.078125 0 
L 9.078125 54.6875 
L 18.109375 54.6875 
L 18.109375 46.1875 
Q 20.953125 51.171875 25.484375 53.578125 
Q 30.03125 56 36.53125 56 
Q 37.453125 56 38.578125 55.875 
Q 39.703125 55.765625 41.0625 55.515625 
z
" id="DejaVuSans-114"/>
     <path d="M 54.890625 33.015625 
L 54.890625 0 
L 45.90625 0 
L 45.90625 32.71875 
Q 45.90625 40.484375 42.875 44.328125 
Q 39.84375 48.1875 33.796875 48.1875 
Q 26.515625 48.1875 22.3125 43.546875 
Q 18.109375 38.921875 18.109375 30.90625 
L 18.109375 0 
L 9.078125 0 
L 9.078125 54.6875 
L 18.109375 54.6875 
L 18.109375 46.1875 
Q 21.34375 51.125 25.703125 53.5625 
Q 30.078125 56 35.796875 56 
Q 45.21875 56 50.046875 50.171875 
Q 54.890625 44.34375 54.890625 33.015625 
z
" id="DejaVuSans-110"/>
     <path d="M 18.3125 70.21875 
L 18.3125 54.6875 
L 36.8125 54.6875 
L 36.8125 47.703125 
L 18.3125 47.703125 
L 18.3125 18.015625 
Q 18.3125 11.328125 20.140625 9.421875 
Q 21.96875 7.515625 27.59375 7.515625 
L 36.8125 7.515625 
L 36.8125 0 
L 27.59375 0 
Q 17.1875 0 13.234375 3.875 
Q 9.28125 7.765625 9.28125 18.015625 
L 9.28125 47.703125 
L 2.6875 47.703125 
L 2.6875 54.6875 
L 9.28125 54.6875 
L 9.28125 70.21875 
z
" id="DejaVuSans-116"/>
     <path d="M 50.984375 -16.609375 
L 50.984375 -23.578125 
L -0.984375 -23.578125 
L -0.984375 -16.609375 
z
" id="DejaVuSans-95"/>
    </defs>
    <g transform="translate(175.425313 16.318125)scale(0.12 -0.12)">
     <use xlink:href="#DejaVuSans-69"/>
     <use x="63.183594" xlink:href="#DejaVuSans-120"/>
     <use x="122.363281" xlink:href="#DejaVuSans-112"/>
     <use x="185.839844" xlink:href="#DejaVuSans-101"/>
     <use x="247.363281" xlink:href="#DejaVuSans-114"/>
     <use x="288.476562" xlink:href="#DejaVuSans-105"/>
     <use x="316.259766" xlink:href="#DejaVuSans-109"/>
     <use x="413.671875" xlink:href="#DejaVuSans-101"/>
     <use x="475.195312" xlink:href="#DejaVuSans-110"/>
     <use x="538.574219" xlink:href="#DejaVuSans-116"/>
     <use x="577.783203" xlink:href="#DejaVuSans-95"/>
     <use x="627.783203" xlink:href="#DejaVuSans-50"/>
     <use x="691.40625" xlink:href="#DejaVuSans-49"/>
    </g>
   </g>
   <g id="legend_1">
    <g id="patch_7">
     <path d="M 125.007812 234.758125 
L 381.128125 234.758125 
Q 383.128125 234.758125 383.128125 232.758125 
L 383.128125 160.345625 
Q 383.128125 158.345625 381.128125 158.345625 
L 125.007812 158.345625 
Q 123.007812 158.345625 123.007812 160.345625 
L 123.007812 232.758125 
Q 123.007812 234.758125 125.007812 234.758125 
z
" style="fill:#ffffff;opacity:0.8;stroke:#cccccc;stroke-linejoin:miter;"/>
    </g>
    <g id="line2d_28">
     <path d="M 127.007812 166.444062 
L 147.007812 166.444062 
" style="fill:none;stroke:#0000ff;stroke-linecap:square;stroke-width:1.5;"/>
    </g>
    <g id="line2d_29"/>
    <g id="text_20">
     <!-- MSI -->
     <defs>
      <path d="M 9.8125 72.90625 
L 24.515625 72.90625 
L 43.109375 23.296875 
L 61.8125 72.90625 
L 76.515625 72.90625 
L 76.515625 0 
L 66.890625 0 
L 66.890625 64.015625 
L 48.09375 14.015625 
L 38.1875 14.015625 
L 19.390625 64.015625 
L 19.390625 0 
L 9.8125 0 
z
" id="DejaVuSans-77"/>
      <path d="M 53.515625 70.515625 
L 53.515625 60.890625 
Q 47.90625 63.578125 42.921875 64.890625 
Q 37.9375 66.21875 33.296875 66.21875 
Q 25.25 66.21875 20.875 63.09375 
Q 16.5 59.96875 16.5 54.203125 
Q 16.5 49.359375 19.40625 46.890625 
Q 22.3125 44.4375 30.421875 42.921875 
L 36.375 41.703125 
Q 47.40625 39.59375 52.65625 34.296875 
Q 57.90625 29 57.90625 20.125 
Q 57.90625 9.515625 50.796875 4.046875 
Q 43.703125 -1.421875 29.984375 -1.421875 
Q 24.8125 -1.421875 18.96875 -0.25 
Q 13.140625 0.921875 6.890625 3.21875 
L 6.890625 13.375 
Q 12.890625 10.015625 18.65625 8.296875 
Q 24.421875 6.59375 29.984375 6.59375 
Q 38.421875 6.59375 43.015625 9.90625 
Q 47.609375 13.234375 47.609375 19.390625 
Q 47.609375 24.75 44.3125 27.78125 
Q 41.015625 30.8125 33.5 32.328125 
L 27.484375 33.5 
Q 16.453125 35.6875 11.515625 40.375 
Q 6.59375 45.0625 6.59375 53.421875 
Q 6.59375 63.09375 13.40625 68.65625 
Q 20.21875 74.21875 32.171875 74.21875 
Q 37.3125 74.21875 42.625 73.28125 
Q 47.953125 72.359375 53.515625 70.515625 
z
" id="DejaVuSans-83"/>
      <path d="M 9.8125 72.90625 
L 19.671875 72.90625 
L 19.671875 0 
L 9.8125 0 
z
" id="DejaVuSans-73"/>
     </defs>
     <g transform="translate(155.007812 169.944062)scale(0.1 -0.1)">
      <use xlink:href="#DejaVuSans-77"/>
      <use x="86.279297" xlink:href="#DejaVuSans-83"/>
      <use x="149.755859" xlink:href="#DejaVuSans-73"/>
     </g>
    </g>
    <g id="line2d_30">
     <path d="M 127.007812 181.12375 
L 147.007812 181.12375 
" style="fill:none;stroke:#ff0000;stroke-linecap:square;stroke-width:1.5;"/>
    </g>
    <g id="line2d_31"/>
    <g id="text_21">
     <!-- $\it{A priori}$ model -->
     <defs>
      <path d="M 36.8125 72.90625 
L 48 72.90625 
L 61.53125 0 
L 51.21875 0 
L 48.1875 18.703125 
L 15.375 18.703125 
L 5.078125 0 
L -5.328125 0 
z
M 40.375 63.1875 
L 19.921875 26.90625 
L 46.6875 26.90625 
z
" id="DejaVuSans-Oblique-65"/>
      <path d="M 49.609375 33.6875 
Q 49.609375 40.875 46.484375 44.671875 
Q 43.359375 48.484375 37.5 48.484375 
Q 33.5 48.484375 29.859375 46.4375 
Q 26.21875 44.390625 23.390625 40.484375 
Q 20.609375 36.625 18.9375 31.15625 
Q 17.28125 25.6875 17.28125 20.3125 
Q 17.28125 13.484375 20.40625 9.796875 
Q 23.53125 6.109375 29.296875 6.109375 
Q 33.546875 6.109375 37.1875 8.109375 
Q 40.828125 10.109375 43.40625 13.921875 
Q 46.1875 17.921875 47.890625 23.34375 
Q 49.609375 28.765625 49.609375 33.6875 
z
M 21.78125 46.390625 
Q 25.390625 51.125 30.296875 53.5625 
Q 35.203125 56 41.21875 56 
Q 49.609375 56 54.25 50.5 
Q 58.890625 45.015625 58.890625 35.109375 
Q 58.890625 27 56 19.65625 
Q 53.125 12.3125 47.703125 6.5 
Q 44.09375 2.640625 39.546875 0.609375 
Q 35.015625 -1.421875 29.984375 -1.421875 
Q 24.171875 -1.421875 20.21875 1 
Q 16.265625 3.421875 14.3125 8.203125 
L 8.6875 -20.796875 
L -0.296875 -20.796875 
L 14.40625 54.6875 
L 23.390625 54.6875 
z
" id="DejaVuSans-Oblique-112"/>
      <path d="M 44.578125 46.390625 
Q 43.21875 47.125 41.453125 47.515625 
Q 39.703125 47.90625 37.703125 47.90625 
Q 30.515625 47.90625 25.140625 42.453125 
Q 19.78125 37.015625 18.015625 27.875 
L 12.5 0 
L 3.515625 0 
L 14.203125 54.6875 
L 23.1875 54.6875 
L 21.484375 46.1875 
Q 25.046875 50.921875 30 53.453125 
Q 34.96875 56 40.578125 56 
Q 42.046875 56 43.453125 55.828125 
Q 44.875 55.671875 46.296875 55.28125 
z
" id="DejaVuSans-Oblique-114"/>
      <path d="M 18.3125 75.984375 
L 27.296875 75.984375 
L 25.09375 64.59375 
L 16.109375 64.59375 
z
M 14.203125 54.6875 
L 23.1875 54.6875 
L 12.5 0 
L 3.515625 0 
z
" id="DejaVuSans-Oblique-105"/>
      <path d="M 25.390625 -1.421875 
Q 15.765625 -1.421875 10.171875 4.515625 
Q 4.59375 10.453125 4.59375 20.703125 
Q 4.59375 26.65625 6.515625 32.828125 
Q 8.453125 39.015625 11.53125 43.21875 
Q 16.359375 49.75 22.3125 52.875 
Q 28.265625 56 35.796875 56 
Q 45.125 56 50.859375 50.1875 
Q 56.59375 44.390625 56.59375 35.015625 
Q 56.59375 28.515625 54.6875 22.0625 
Q 52.78125 15.625 49.703125 11.375 
Q 44.921875 4.828125 38.96875 1.703125 
Q 33.015625 -1.421875 25.390625 -1.421875 
z
M 13.921875 21 
Q 13.921875 13.578125 17.015625 9.890625 
Q 20.125 6.203125 26.421875 6.203125 
Q 35.453125 6.203125 41.375 14.078125 
Q 47.3125 21.96875 47.3125 34.078125 
Q 47.3125 41.15625 44.140625 44.765625 
Q 40.96875 48.390625 34.8125 48.390625 
Q 29.734375 48.390625 25.78125 46.015625 
Q 21.828125 43.65625 18.703125 38.8125 
Q 16.40625 35.203125 15.15625 30.5625 
Q 13.921875 25.921875 13.921875 21 
z
" id="DejaVuSans-Oblique-111"/>
      <path d="M 30.609375 48.390625 
Q 23.390625 48.390625 19.1875 42.75 
Q 14.984375 37.109375 14.984375 27.296875 
Q 14.984375 17.484375 19.15625 11.84375 
Q 23.34375 6.203125 30.609375 6.203125 
Q 37.796875 6.203125 41.984375 11.859375 
Q 46.1875 17.53125 46.1875 27.296875 
Q 46.1875 37.015625 41.984375 42.703125 
Q 37.796875 48.390625 30.609375 48.390625 
z
M 30.609375 56 
Q 42.328125 56 49.015625 48.375 
Q 55.71875 40.765625 55.71875 27.296875 
Q 55.71875 13.875 49.015625 6.21875 
Q 42.328125 -1.421875 30.609375 -1.421875 
Q 18.84375 -1.421875 12.171875 6.21875 
Q 5.515625 13.875 5.515625 27.296875 
Q 5.515625 40.765625 12.171875 48.375 
Q 18.84375 56 30.609375 56 
z
" id="DejaVuSans-111"/>
      <path d="M 45.40625 46.390625 
L 45.40625 75.984375 
L 54.390625 75.984375 
L 54.390625 0 
L 45.40625 0 
L 45.40625 8.203125 
Q 42.578125 3.328125 38.25 0.953125 
Q 33.9375 -1.421875 27.875 -1.421875 
Q 17.96875 -1.421875 11.734375 6.484375 
Q 5.515625 14.40625 5.515625 27.296875 
Q 5.515625 40.1875 11.734375 48.09375 
Q 17.96875 56 27.875 56 
Q 33.9375 56 38.25 53.625 
Q 42.578125 51.265625 45.40625 46.390625 
z
M 14.796875 27.296875 
Q 14.796875 17.390625 18.875 11.75 
Q 22.953125 6.109375 30.078125 6.109375 
Q 37.203125 6.109375 41.296875 11.75 
Q 45.40625 17.390625 45.40625 27.296875 
Q 45.40625 37.203125 41.296875 42.84375 
Q 37.203125 48.484375 30.078125 48.484375 
Q 22.953125 48.484375 18.875 42.84375 
Q 14.796875 37.203125 14.796875 27.296875 
z
" id="DejaVuSans-100"/>
      <path d="M 9.421875 75.984375 
L 18.40625 75.984375 
L 18.40625 0 
L 9.421875 0 
z
" id="DejaVuSans-108"/>
     </defs>
     <g transform="translate(155.007812 184.62375)scale(0.1 -0.1)">
      <use transform="translate(0 0.015625)" xlink:href="#DejaVuSans-Oblique-65"/>
      <use transform="translate(68.408203 0.015625)" xlink:href="#DejaVuSans-Oblique-112"/>
      <use transform="translate(131.884766 0.015625)" xlink:href="#DejaVuSans-Oblique-114"/>
      <use transform="translate(172.998047 0.015625)" xlink:href="#DejaVuSans-Oblique-105"/>
      <use transform="translate(200.78125 0.015625)" xlink:href="#DejaVuSans-Oblique-111"/>
      <use transform="translate(261.962891 0.015625)" xlink:href="#DejaVuSans-Oblique-114"/>
      <use transform="translate(303.076172 0.015625)" xlink:href="#DejaVuSans-Oblique-105"/>
      <use transform="translate(330.859375 0.015625)" xlink:href="#DejaVuSans-32"/>
      <use transform="translate(362.646484 0.015625)" xlink:href="#DejaVuSans-109"/>
      <use transform="translate(460.058594 0.015625)" xlink:href="#DejaVuSans-111"/>
      <use transform="translate(521.240234 0.015625)" xlink:href="#DejaVuSans-100"/>
      <use transform="translate(584.716797 0.015625)" xlink:href="#DejaVuSans-101"/>
      <use transform="translate(646.240234 0.015625)" xlink:href="#DejaVuSans-108"/>
     </g>
    </g>
    <g id="line2d_32"/>
    <g id="line2d_33">
     <g>
      <use style="stroke:#000000;" x="137.007812" xlink:href="#m6bc168c567" y="195.822187"/>
     </g>
    </g>
    <g id="text_22">
     <!-- Experimental Data -->
     <defs>
      <path d="M 34.28125 27.484375 
Q 23.390625 27.484375 19.1875 25 
Q 14.984375 22.515625 14.984375 16.5 
Q 14.984375 11.71875 18.140625 8.90625 
Q 21.296875 6.109375 26.703125 6.109375 
Q 34.1875 6.109375 38.703125 11.40625 
Q 43.21875 16.703125 43.21875 25.484375 
L 43.21875 27.484375 
z
M 52.203125 31.203125 
L 52.203125 0 
L 43.21875 0 
L 43.21875 8.296875 
Q 40.140625 3.328125 35.546875 0.953125 
Q 30.953125 -1.421875 24.3125 -1.421875 
Q 15.921875 -1.421875 10.953125 3.296875 
Q 6 8.015625 6 15.921875 
Q 6 25.140625 12.171875 29.828125 
Q 18.359375 34.515625 30.609375 34.515625 
L 43.21875 34.515625 
L 43.21875 35.40625 
Q 43.21875 41.609375 39.140625 45 
Q 35.0625 48.390625 27.6875 48.390625 
Q 23 48.390625 18.546875 47.265625 
Q 14.109375 46.140625 10.015625 43.890625 
L 10.015625 52.203125 
Q 14.9375 54.109375 19.578125 55.046875 
Q 24.21875 56 28.609375 56 
Q 40.484375 56 46.34375 49.84375 
Q 52.203125 43.703125 52.203125 31.203125 
z
" id="DejaVuSans-97"/>
      <path d="M 19.671875 64.796875 
L 19.671875 8.109375 
L 31.59375 8.109375 
Q 46.6875 8.109375 53.6875 14.9375 
Q 60.6875 21.78125 60.6875 36.53125 
Q 60.6875 51.171875 53.6875 57.984375 
Q 46.6875 64.796875 31.59375 64.796875 
z
M 9.8125 72.90625 
L 30.078125 72.90625 
Q 51.265625 72.90625 61.171875 64.09375 
Q 71.09375 55.28125 71.09375 36.53125 
Q 71.09375 17.671875 61.125 8.828125 
Q 51.171875 0 30.078125 0 
L 9.8125 0 
z
" id="DejaVuSans-68"/>
     </defs>
     <g transform="translate(155.007812 199.322187)scale(0.1 -0.1)">
      <use xlink:href="#DejaVuSans-69"/>
      <use x="63.183594" xlink:href="#DejaVuSans-120"/>
      <use x="122.363281" xlink:href="#DejaVuSans-112"/>
      <use x="185.839844" xlink:href="#DejaVuSans-101"/>
      <use x="247.363281" xlink:href="#DejaVuSans-114"/>
      <use x="288.476562" xlink:href="#DejaVuSans-105"/>
      <use x="316.259766" xlink:href="#DejaVuSans-109"/>
      <use x="413.671875" xlink:href="#DejaVuSans-101"/>
      <use x="475.195312" xlink:href="#DejaVuSans-110"/>
      <use x="538.574219" xlink:href="#DejaVuSans-116"/>
      <use x="577.783203" xlink:href="#DejaVuSans-97"/>
      <use x="639.0625" xlink:href="#DejaVuSans-108"/>
      <use x="666.845703" xlink:href="#DejaVuSans-32"/>
      <use x="698.632812" xlink:href="#DejaVuSans-68"/>
      <use x="775.634766" xlink:href="#DejaVuSans-97"/>
      <use x="836.914062" xlink:href="#DejaVuSans-116"/>
      <use x="876.123047" xlink:href="#DejaVuSans-97"/>
     </g>
    </g>
    <g id="line2d_34">
     <path d="M 127.007812 210.500312 
L 147.007812 210.500312 
" style="fill:none;stroke:#ffffff;stroke-linecap:square;stroke-width:1.5;"/>
    </g>
    <g id="line2d_35"/>
    <g id="text_23">
     <!-- T:1268 -->
     <defs>
      <path d="M 11.71875 12.40625 
L 22.015625 12.40625 
L 22.015625 0 
L 11.71875 0 
z
M 11.71875 51.703125 
L 22.015625 51.703125 
L 22.015625 39.3125 
L 11.71875 39.3125 
z
" id="DejaVuSans-58"/>
      <path d="M 33.015625 40.375 
Q 26.375 40.375 22.484375 35.828125 
Q 18.609375 31.296875 18.609375 23.390625 
Q 18.609375 15.53125 22.484375 10.953125 
Q 26.375 6.390625 33.015625 6.390625 
Q 39.65625 6.390625 43.53125 10.953125 
Q 47.40625 15.53125 47.40625 23.390625 
Q 47.40625 31.296875 43.53125 35.828125 
Q 39.65625 40.375 33.015625 40.375 
z
M 52.59375 71.296875 
L 52.59375 62.3125 
Q 48.875 64.0625 45.09375 64.984375 
Q 41.3125 65.921875 37.59375 65.921875 
Q 27.828125 65.921875 22.671875 59.328125 
Q 17.53125 52.734375 16.796875 39.40625 
Q 19.671875 43.65625 24.015625 45.921875 
Q 28.375 48.1875 33.59375 48.1875 
Q 44.578125 48.1875 50.953125 41.515625 
Q 57.328125 34.859375 57.328125 23.390625 
Q 57.328125 12.15625 50.6875 5.359375 
Q 44.046875 -1.421875 33.015625 -1.421875 
Q 20.359375 -1.421875 13.671875 8.265625 
Q 6.984375 17.96875 6.984375 36.375 
Q 6.984375 53.65625 15.1875 63.9375 
Q 23.390625 74.21875 37.203125 74.21875 
Q 40.921875 74.21875 44.703125 73.484375 
Q 48.484375 72.75 52.59375 71.296875 
z
" id="DejaVuSans-54"/>
      <path d="M 31.78125 34.625 
Q 24.75 34.625 20.71875 30.859375 
Q 16.703125 27.09375 16.703125 20.515625 
Q 16.703125 13.921875 20.71875 10.15625 
Q 24.75 6.390625 31.78125 6.390625 
Q 38.8125 6.390625 42.859375 10.171875 
Q 46.921875 13.96875 46.921875 20.515625 
Q 46.921875 27.09375 42.890625 30.859375 
Q 38.875 34.625 31.78125 34.625 
z
M 21.921875 38.8125 
Q 15.578125 40.375 12.03125 44.71875 
Q 8.5 49.078125 8.5 55.328125 
Q 8.5 64.0625 14.71875 69.140625 
Q 20.953125 74.21875 31.78125 74.21875 
Q 42.671875 74.21875 48.875 69.140625 
Q 55.078125 64.0625 55.078125 55.328125 
Q 55.078125 49.078125 51.53125 44.71875 
Q 48 40.375 41.703125 38.8125 
Q 48.828125 37.15625 52.796875 32.3125 
Q 56.78125 27.484375 56.78125 20.515625 
Q 56.78125 9.90625 50.3125 4.234375 
Q 43.84375 -1.421875 31.78125 -1.421875 
Q 19.734375 -1.421875 13.25 4.234375 
Q 6.78125 9.90625 6.78125 20.515625 
Q 6.78125 27.484375 10.78125 32.3125 
Q 14.796875 37.15625 21.921875 38.8125 
z
M 18.3125 54.390625 
Q 18.3125 48.734375 21.84375 45.5625 
Q 25.390625 42.390625 31.78125 42.390625 
Q 38.140625 42.390625 41.71875 45.5625 
Q 45.3125 48.734375 45.3125 54.390625 
Q 45.3125 60.0625 41.71875 63.234375 
Q 38.140625 66.40625 31.78125 66.40625 
Q 25.390625 66.40625 21.84375 63.234375 
Q 18.3125 60.0625 18.3125 54.390625 
z
" id="DejaVuSans-56"/>
     </defs>
     <g transform="translate(155.007812 214.000312)scale(0.1 -0.1)">
      <use xlink:href="#DejaVuSans-84"/>
      <use x="60.912109" xlink:href="#DejaVuSans-58"/>
      <use x="94.603516" xlink:href="#DejaVuSans-49"/>
      <use x="158.226562" xlink:href="#DejaVuSans-50"/>
      <use x="221.849609" xlink:href="#DejaVuSans-54"/>
      <use x="285.472656" xlink:href="#DejaVuSans-56"/>
     </g>
    </g>
    <g id="line2d_36">
     <path d="M 127.007812 225.178437 
L 147.007812 225.178437 
" style="fill:none;stroke:#ffffff;stroke-linecap:square;stroke-width:1.5;"/>
    </g>
    <g id="line2d_37"/>
    <g id="text_24">
     <!-- P:1.661 -->
     <defs>
      <path d="M 19.671875 64.796875 
L 19.671875 37.40625 
L 32.078125 37.40625 
Q 38.96875 37.40625 42.71875 40.96875 
Q 46.484375 44.53125 46.484375 51.125 
Q 46.484375 57.671875 42.71875 61.234375 
Q 38.96875 64.796875 32.078125 64.796875 
z
M 9.8125 72.90625 
L 32.078125 72.90625 
Q 44.34375 72.90625 50.609375 67.359375 
Q 56.890625 61.8125 56.890625 51.125 
Q 56.890625 40.328125 50.609375 34.8125 
Q 44.34375 29.296875 32.078125 29.296875 
L 19.671875 29.296875 
L 19.671875 0 
L 9.8125 0 
z
" id="DejaVuSans-80"/>
     </defs>
     <g transform="translate(155.007812 228.678437)scale(0.1 -0.1)">
      <use xlink:href="#DejaVuSans-80"/>
      <use x="60.302734" xlink:href="#DejaVuSans-58"/>
      <use x="93.994141" xlink:href="#DejaVuSans-49"/>
      <use x="157.617188" xlink:href="#DejaVuSans-46"/>
      <use x="189.404297" xlink:href="#DejaVuSans-54"/>
      <use x="253.027344" xlink:href="#DejaVuSans-54"/>
      <use x="316.650391" xlink:href="#DejaVuSans-49"/>
     </g>
    </g>
    <g id="line2d_38">
     <path d="M 268.748438 166.444062 
L 288.748438 166.444062 
" style="fill:none;stroke:#ffffff;stroke-linecap:square;stroke-width:1.5;"/>
    </g>
    <g id="line2d_39"/>
    <g id="text_25">
     <!-- H2O2: 0.002736 -->
     <g transform="translate(296.748438 169.944062)scale(0.1 -0.1)">
      <use xlink:href="#DejaVuSans-72"/>
      <use x="75.195312" xlink:href="#DejaVuSans-50"/>
      <use x="138.818359" xlink:href="#DejaVuSans-79"/>
      <use x="217.529297" xlink:href="#DejaVuSans-50"/>
      <use x="281.152344" xlink:href="#DejaVuSans-58"/>
      <use x="314.84375" xlink:href="#DejaVuSans-32"/>
      <use x="346.630859" xlink:href="#DejaVuSans-48"/>
      <use x="410.253906" xlink:href="#DejaVuSans-46"/>
      <use x="442.041016" xlink:href="#DejaVuSans-48"/>
      <use x="505.664062" xlink:href="#DejaVuSans-48"/>
      <use x="569.287109" xlink:href="#DejaVuSans-50"/>
      <use x="632.910156" xlink:href="#DejaVuSans-55"/>
      <use x="696.533203" xlink:href="#DejaVuSans-51"/>
      <use x="760.15625" xlink:href="#DejaVuSans-54"/>
     </g>
    </g>
    <g id="line2d_40">
     <path d="M 268.748438 181.122187 
L 288.748438 181.122187 
" style="fill:none;stroke:#ffffff;stroke-linecap:square;stroke-width:1.5;"/>
    </g>
    <g id="line2d_41"/>
    <g id="text_26">
     <!-- H2O: 0.001645 -->
     <g transform="translate(296.748438 184.622187)scale(0.1 -0.1)">
      <use xlink:href="#DejaVuSans-72"/>
      <use x="75.195312" xlink:href="#DejaVuSans-50"/>
      <use x="138.818359" xlink:href="#DejaVuSans-79"/>
      <use x="217.513672" xlink:href="#DejaVuSans-58"/>
      <use x="251.205078" xlink:href="#DejaVuSans-32"/>
      <use x="282.992188" xlink:href="#DejaVuSans-48"/>
      <use x="346.615234" xlink:href="#DejaVuSans-46"/>
      <use x="378.402344" xlink:href="#DejaVuSans-48"/>
      <use x="442.025391" xlink:href="#DejaVuSans-48"/>
      <use x="505.648438" xlink:href="#DejaVuSans-49"/>
      <use x="569.271484" xlink:href="#DejaVuSans-54"/>
      <use x="632.894531" xlink:href="#DejaVuSans-52"/>
      <use x="696.517578" xlink:href="#DejaVuSans-53"/>
     </g>
    </g>
    <g id="line2d_42">
     <path d="M 268.748438 195.800312 
L 288.748438 195.800312 
" style="fill:none;stroke:#ffffff;stroke-linecap:square;stroke-width:1.5;"/>
    </g>
    <g id="line2d_43"/>
    <g id="text_27">
     <!-- O2: 0.000556 -->
     <g transform="translate(296.748438 199.300312)scale(0.1 -0.1)">
      <use xlink:href="#DejaVuSans-79"/>
      <use x="78.710938" xlink:href="#DejaVuSans-50"/>
      <use x="142.333984" xlink:href="#DejaVuSans-58"/>
      <use x="176.025391" xlink:href="#DejaVuSans-32"/>
      <use x="207.8125" xlink:href="#DejaVuSans-48"/>
      <use x="271.435547" xlink:href="#DejaVuSans-46"/>
      <use x="303.222656" xlink:href="#DejaVuSans-48"/>
      <use x="366.845703" xlink:href="#DejaVuSans-48"/>
      <use x="430.46875" xlink:href="#DejaVuSans-48"/>
      <use x="494.091797" xlink:href="#DejaVuSans-53"/>
      <use x="557.714844" xlink:href="#DejaVuSans-53"/>
      <use x="621.337891" xlink:href="#DejaVuSans-54"/>
     </g>
    </g>
    <g id="line2d_44">
     <path d="M 268.748438 210.478437 
L 288.748438 210.478437 
" style="fill:none;stroke:#ffffff;stroke-linecap:square;stroke-width:1.5;"/>
    </g>
    <g id="line2d_45"/>
    <g id="text_28">
     <!-- Ar: 0.995063 -->
     <defs>
      <path d="M 34.1875 63.1875 
L 20.796875 26.90625 
L 47.609375 26.90625 
z
M 28.609375 72.90625 
L 39.796875 72.90625 
L 67.578125 0 
L 57.328125 0 
L 50.6875 18.703125 
L 17.828125 18.703125 
L 11.1875 0 
L 0.78125 0 
z
" id="DejaVuSans-65"/>
      <path d="M 10.984375 1.515625 
L 10.984375 10.5 
Q 14.703125 8.734375 18.5 7.8125 
Q 22.3125 6.890625 25.984375 6.890625 
Q 35.75 6.890625 40.890625 13.453125 
Q 46.046875 20.015625 46.78125 33.40625 
Q 43.953125 29.203125 39.59375 26.953125 
Q 35.25 24.703125 29.984375 24.703125 
Q 19.046875 24.703125 12.671875 31.3125 
Q 6.296875 37.9375 6.296875 49.421875 
Q 6.296875 60.640625 12.9375 67.421875 
Q 19.578125 74.21875 30.609375 74.21875 
Q 43.265625 74.21875 49.921875 64.515625 
Q 56.59375 54.828125 56.59375 36.375 
Q 56.59375 19.140625 48.40625 8.859375 
Q 40.234375 -1.421875 26.421875 -1.421875 
Q 22.703125 -1.421875 18.890625 -0.6875 
Q 15.09375 0.046875 10.984375 1.515625 
z
M 30.609375 32.421875 
Q 37.25 32.421875 41.125 36.953125 
Q 45.015625 41.5 45.015625 49.421875 
Q 45.015625 57.28125 41.125 61.84375 
Q 37.25 66.40625 30.609375 66.40625 
Q 23.96875 66.40625 20.09375 61.84375 
Q 16.21875 57.28125 16.21875 49.421875 
Q 16.21875 41.5 20.09375 36.953125 
Q 23.96875 32.421875 30.609375 32.421875 
z
" id="DejaVuSans-57"/>
     </defs>
     <g transform="translate(296.748438 213.978437)scale(0.1 -0.1)">
      <use xlink:href="#DejaVuSans-65"/>
      <use x="68.408203" xlink:href="#DejaVuSans-114"/>
      <use x="109.505859" xlink:href="#DejaVuSans-58"/>
      <use x="143.197266" xlink:href="#DejaVuSans-32"/>
      <use x="174.984375" xlink:href="#DejaVuSans-48"/>
      <use x="238.607422" xlink:href="#DejaVuSans-46"/>
      <use x="270.394531" xlink:href="#DejaVuSans-57"/>
      <use x="334.017578" xlink:href="#DejaVuSans-57"/>
      <use x="397.640625" xlink:href="#DejaVuSans-53"/>
      <use x="461.263672" xlink:href="#DejaVuSans-48"/>
      <use x="524.886719" xlink:href="#DejaVuSans-54"/>
      <use x="588.509766" xlink:href="#DejaVuSans-51"/>
     </g>
    </g>
   </g>
  </g>
 </g>
 <defs>
  <clipPath id="p24a163b800">
   <rect height="217.44" width="334.8" x="53.328125" y="22.318125"/>
  </clipPath>
 </defs>
</svg>
