<?xml version="1.0" encoding="utf-8" standalone="no"?>
<!DOCTYPE svg PUBLIC "-//W3C//DTD SVG 1.1//EN"
  "http://www.w3.org/Graphics/SVG/1.1/DTD/svg11.dtd">
<!-- Created with matplotlib (https://matplotlib.org/) -->
<svg height="260.69625pt" version="1.1" viewBox="0 0 390.64375 260.69625" width="390.64375pt" xmlns="http://www.w3.org/2000/svg" xmlns:xlink="http://www.w3.org/1999/xlink">
 <defs>
  <style type="text/css">
*{stroke-linecap:butt;stroke-linejoin:round;}
  </style>
 </defs>
 <g id="figure_1">
  <g id="patch_1">
   <path d="M -0 260.69625 
L 390.64375 260.69625 
L 390.64375 0 
L -0 0 
z
" style="fill:none;"/>
  </g>
  <g id="axes_1">
   <g id="patch_2">
    <path d="M 46.64375 226.64 
L 381.44375 226.64 
L 381.44375 9.2 
L 46.64375 9.2 
z
" style="fill:none;"/>
   </g>
   <g id="matplotlib.axis_1">
    <g id="xtick_1">
     <g id="line2d_1">
      <defs>
       <path d="M 0 0 
L 0 -3.5 
" id="mb1f6c5ee2d" style="stroke:#000000;stroke-width:0.8;"/>
      </defs>
      <g>
       <use style="stroke:#000000;stroke-width:0.8;" x="61.861932" xlink:href="#mb1f6c5ee2d" y="226.64"/>
      </g>
     </g>
     <g id="text_1">
      <!-- 0.00 -->
      <defs>
       <path d="M 31.78125 66.40625 
Q 24.171875 66.40625 20.328125 58.90625 
Q 16.5 51.421875 16.5 36.375 
Q 16.5 21.390625 20.328125 13.890625 
Q 24.171875 6.390625 31.78125 6.390625 
Q 39.453125 6.390625 43.28125 13.890625 
Q 47.125 21.390625 47.125 36.375 
Q 47.125 51.421875 43.28125 58.90625 
Q 39.453125 66.40625 31.78125 66.40625 
z
M 31.78125 74.21875 
Q 44.046875 74.21875 50.515625 64.515625 
Q 56.984375 54.828125 56.984375 36.375 
Q 56.984375 17.96875 50.515625 8.265625 
Q 44.046875 -1.421875 31.78125 -1.421875 
Q 19.53125 -1.421875 13.0625 8.265625 
Q 6.59375 17.96875 6.59375 36.375 
Q 6.59375 54.828125 13.0625 64.515625 
Q 19.53125 74.21875 31.78125 74.21875 
z
" id="DejaVuSans-48"/>
       <path d="M 10.6875 12.40625 
L 21 12.40625 
L 21 0 
L 10.6875 0 
z
" id="DejaVuSans-46"/>
      </defs>
      <g transform="translate(50.729119 237.738438)scale(0.1 -0.1)">
       <use xlink:href="#DejaVuSans-48"/>
       <use x="63.623047" xlink:href="#DejaVuSans-46"/>
       <use x="95.410156" xlink:href="#DejaVuSans-48"/>
       <use x="159.033203" xlink:href="#DejaVuSans-48"/>
      </g>
     </g>
    </g>
    <g id="xtick_2">
     <g id="line2d_2">
      <g>
       <use style="stroke:#000000;stroke-width:0.8;" x="99.716402" xlink:href="#mb1f6c5ee2d" y="226.64"/>
      </g>
     </g>
     <g id="text_2">
      <!-- 0.25 -->
      <defs>
       <path d="M 19.1875 8.296875 
L 53.609375 8.296875 
L 53.609375 0 
L 7.328125 0 
L 7.328125 8.296875 
Q 12.9375 14.109375 22.625 23.890625 
Q 32.328125 33.6875 34.8125 36.53125 
Q 39.546875 41.84375 41.421875 45.53125 
Q 43.3125 49.21875 43.3125 52.78125 
Q 43.3125 58.59375 39.234375 62.25 
Q 35.15625 65.921875 28.609375 65.921875 
Q 23.96875 65.921875 18.8125 64.3125 
Q 13.671875 62.703125 7.8125 59.421875 
L 7.8125 69.390625 
Q 13.765625 71.78125 18.9375 73 
Q 24.125 74.21875 28.421875 74.21875 
Q 39.75 74.21875 46.484375 68.546875 
Q 53.21875 62.890625 53.21875 53.421875 
Q 53.21875 48.921875 51.53125 44.890625 
Q 49.859375 40.875 45.40625 35.40625 
Q 44.1875 33.984375 37.640625 27.21875 
Q 31.109375 20.453125 19.1875 8.296875 
z
" id="DejaVuSans-50"/>
       <path d="M 10.796875 72.90625 
L 49.515625 72.90625 
L 49.515625 64.59375 
L 19.828125 64.59375 
L 19.828125 46.734375 
Q 21.96875 47.46875 24.109375 47.828125 
Q 26.265625 48.1875 28.421875 48.1875 
Q 40.625 48.1875 47.75 41.5 
Q 54.890625 34.8125 54.890625 23.390625 
Q 54.890625 11.625 47.5625 5.09375 
Q 40.234375 -1.421875 26.90625 -1.421875 
Q 22.3125 -1.421875 17.546875 -0.640625 
Q 12.796875 0.140625 7.71875 1.703125 
L 7.71875 11.625 
Q 12.109375 9.234375 16.796875 8.0625 
Q 21.484375 6.890625 26.703125 6.890625 
Q 35.15625 6.890625 40.078125 11.328125 
Q 45.015625 15.765625 45.015625 23.390625 
Q 45.015625 31 40.078125 35.4375 
Q 35.15625 39.890625 26.703125 39.890625 
Q 22.75 39.890625 18.8125 39.015625 
Q 14.890625 38.140625 10.796875 36.28125 
z
" id="DejaVuSans-53"/>
      </defs>
      <g transform="translate(88.583589 237.738438)scale(0.1 -0.1)">
       <use xlink:href="#DejaVuSans-48"/>
       <use x="63.623047" xlink:href="#DejaVuSans-46"/>
       <use x="95.410156" xlink:href="#DejaVuSans-50"/>
       <use x="159.033203" xlink:href="#DejaVuSans-53"/>
      </g>
     </g>
    </g>
    <g id="xtick_3">
     <g id="line2d_3">
      <g>
       <use style="stroke:#000000;stroke-width:0.8;" x="137.570872" xlink:href="#mb1f6c5ee2d" y="226.64"/>
      </g>
     </g>
     <g id="text_3">
      <!-- 0.50 -->
      <g transform="translate(126.43806 237.738438)scale(0.1 -0.1)">
       <use xlink:href="#DejaVuSans-48"/>
       <use x="63.623047" xlink:href="#DejaVuSans-46"/>
       <use x="95.410156" xlink:href="#DejaVuSans-53"/>
       <use x="159.033203" xlink:href="#DejaVuSans-48"/>
      </g>
     </g>
    </g>
    <g id="xtick_4">
     <g id="line2d_4">
      <g>
       <use style="stroke:#000000;stroke-width:0.8;" x="175.425342" xlink:href="#mb1f6c5ee2d" y="226.64"/>
      </g>
     </g>
     <g id="text_4">
      <!-- 0.75 -->
      <defs>
       <path d="M 8.203125 72.90625 
L 55.078125 72.90625 
L 55.078125 68.703125 
L 28.609375 0 
L 18.3125 0 
L 43.21875 64.59375 
L 8.203125 64.59375 
z
" id="DejaVuSans-55"/>
      </defs>
      <g transform="translate(164.29253 237.738438)scale(0.1 -0.1)">
       <use xlink:href="#DejaVuSans-48"/>
       <use x="63.623047" xlink:href="#DejaVuSans-46"/>
       <use x="95.410156" xlink:href="#DejaVuSans-55"/>
       <use x="159.033203" xlink:href="#DejaVuSans-53"/>
      </g>
     </g>
    </g>
    <g id="xtick_5">
     <g id="line2d_5">
      <g>
       <use style="stroke:#000000;stroke-width:0.8;" x="213.279812" xlink:href="#mb1f6c5ee2d" y="226.64"/>
      </g>
     </g>
     <g id="text_5">
      <!-- 1.00 -->
      <defs>
       <path d="M 12.40625 8.296875 
L 28.515625 8.296875 
L 28.515625 63.921875 
L 10.984375 60.40625 
L 10.984375 69.390625 
L 28.421875 72.90625 
L 38.28125 72.90625 
L 38.28125 8.296875 
L 54.390625 8.296875 
L 54.390625 0 
L 12.40625 0 
z
" id="DejaVuSans-49"/>
      </defs>
      <g transform="translate(202.147 237.738438)scale(0.1 -0.1)">
       <use xlink:href="#DejaVuSans-49"/>
       <use x="63.623047" xlink:href="#DejaVuSans-46"/>
       <use x="95.410156" xlink:href="#DejaVuSans-48"/>
       <use x="159.033203" xlink:href="#DejaVuSans-48"/>
      </g>
     </g>
    </g>
    <g id="xtick_6">
     <g id="line2d_6">
      <g>
       <use style="stroke:#000000;stroke-width:0.8;" x="251.134283" xlink:href="#mb1f6c5ee2d" y="226.64"/>
      </g>
     </g>
     <g id="text_6">
      <!-- 1.25 -->
      <g transform="translate(240.00147 237.738438)scale(0.1 -0.1)">
       <use xlink:href="#DejaVuSans-49"/>
       <use x="63.623047" xlink:href="#DejaVuSans-46"/>
       <use x="95.410156" xlink:href="#DejaVuSans-50"/>
       <use x="159.033203" xlink:href="#DejaVuSans-53"/>
      </g>
     </g>
    </g>
    <g id="xtick_7">
     <g id="line2d_7">
      <g>
       <use style="stroke:#000000;stroke-width:0.8;" x="288.988753" xlink:href="#mb1f6c5ee2d" y="226.64"/>
      </g>
     </g>
     <g id="text_7">
      <!-- 1.50 -->
      <g transform="translate(277.85594 237.738438)scale(0.1 -0.1)">
       <use xlink:href="#DejaVuSans-49"/>
       <use x="63.623047" xlink:href="#DejaVuSans-46"/>
       <use x="95.410156" xlink:href="#DejaVuSans-53"/>
       <use x="159.033203" xlink:href="#DejaVuSans-48"/>
      </g>
     </g>
    </g>
    <g id="xtick_8">
     <g id="line2d_8">
      <g>
       <use style="stroke:#000000;stroke-width:0.8;" x="326.843223" xlink:href="#mb1f6c5ee2d" y="226.64"/>
      </g>
     </g>
     <g id="text_8">
      <!-- 1.75 -->
      <g transform="translate(315.71041 237.738438)scale(0.1 -0.1)">
       <use xlink:href="#DejaVuSans-49"/>
       <use x="63.623047" xlink:href="#DejaVuSans-46"/>
       <use x="95.410156" xlink:href="#DejaVuSans-55"/>
       <use x="159.033203" xlink:href="#DejaVuSans-53"/>
      </g>
     </g>
    </g>
    <g id="xtick_9">
     <g id="line2d_9">
      <g>
       <use style="stroke:#000000;stroke-width:0.8;" x="364.697693" xlink:href="#mb1f6c5ee2d" y="226.64"/>
      </g>
     </g>
     <g id="text_9">
      <!-- 2.00 -->
      <g transform="translate(353.56488 237.738438)scale(0.1 -0.1)">
       <use xlink:href="#DejaVuSans-50"/>
       <use x="63.623047" xlink:href="#DejaVuSans-46"/>
       <use x="95.410156" xlink:href="#DejaVuSans-48"/>
       <use x="159.033203" xlink:href="#DejaVuSans-48"/>
      </g>
     </g>
    </g>
    <g id="text_10">
     <!-- Time (ms) -->
     <defs>
      <path d="M -0.296875 72.90625 
L 61.375 72.90625 
L 61.375 64.59375 
L 35.5 64.59375 
L 35.5 0 
L 25.59375 0 
L 25.59375 64.59375 
L -0.296875 64.59375 
z
" id="DejaVuSans-84"/>
      <path d="M 9.421875 54.6875 
L 18.40625 54.6875 
L 18.40625 0 
L 9.421875 0 
z
M 9.421875 75.984375 
L 18.40625 75.984375 
L 18.40625 64.59375 
L 9.421875 64.59375 
z
" id="DejaVuSans-105"/>
      <path d="M 52 44.1875 
Q 55.375 50.25 60.0625 53.125 
Q 64.75 56 71.09375 56 
Q 79.640625 56 84.28125 50.015625 
Q 88.921875 44.046875 88.921875 33.015625 
L 88.921875 0 
L 79.890625 0 
L 79.890625 32.71875 
Q 79.890625 40.578125 77.09375 44.375 
Q 74.3125 48.1875 68.609375 48.1875 
Q 61.625 48.1875 57.5625 43.546875 
Q 53.515625 38.921875 53.515625 30.90625 
L 53.515625 0 
L 44.484375 0 
L 44.484375 32.71875 
Q 44.484375 40.625 41.703125 44.40625 
Q 38.921875 48.1875 33.109375 48.1875 
Q 26.21875 48.1875 22.15625 43.53125 
Q 18.109375 38.875 18.109375 30.90625 
L 18.109375 0 
L 9.078125 0 
L 9.078125 54.6875 
L 18.109375 54.6875 
L 18.109375 46.1875 
Q 21.1875 51.21875 25.484375 53.609375 
Q 29.78125 56 35.6875 56 
Q 41.65625 56 45.828125 52.96875 
Q 50 49.953125 52 44.1875 
z
" id="DejaVuSans-109"/>
      <path d="M 56.203125 29.59375 
L 56.203125 25.203125 
L 14.890625 25.203125 
Q 15.484375 15.921875 20.484375 11.0625 
Q 25.484375 6.203125 34.421875 6.203125 
Q 39.59375 6.203125 44.453125 7.46875 
Q 49.3125 8.734375 54.109375 11.28125 
L 54.109375 2.78125 
Q 49.265625 0.734375 44.1875 -0.34375 
Q 39.109375 -1.421875 33.890625 -1.421875 
Q 20.796875 -1.421875 13.15625 6.1875 
Q 5.515625 13.8125 5.515625 26.8125 
Q 5.515625 40.234375 12.765625 48.109375 
Q 20.015625 56 32.328125 56 
Q 43.359375 56 49.78125 48.890625 
Q 56.203125 41.796875 56.203125 29.59375 
z
M 47.21875 32.234375 
Q 47.125 39.59375 43.09375 43.984375 
Q 39.0625 48.390625 32.421875 48.390625 
Q 24.90625 48.390625 20.390625 44.140625 
Q 15.875 39.890625 15.1875 32.171875 
z
" id="DejaVuSans-101"/>
      <path id="DejaVuSans-32"/>
      <path d="M 31 75.875 
Q 24.46875 64.65625 21.28125 53.65625 
Q 18.109375 42.671875 18.109375 31.390625 
Q 18.109375 20.125 21.3125 9.0625 
Q 24.515625 -2 31 -13.1875 
L 23.1875 -13.1875 
Q 15.875 -1.703125 12.234375 9.375 
Q 8.59375 20.453125 8.59375 31.390625 
Q 8.59375 42.28125 12.203125 53.3125 
Q 15.828125 64.359375 23.1875 75.875 
z
" id="DejaVuSans-40"/>
      <path d="M 44.28125 53.078125 
L 44.28125 44.578125 
Q 40.484375 46.53125 36.375 47.5 
Q 32.28125 48.484375 27.875 48.484375 
Q 21.1875 48.484375 17.84375 46.4375 
Q 14.5 44.390625 14.5 40.28125 
Q 14.5 37.15625 16.890625 35.375 
Q 19.28125 33.59375 26.515625 31.984375 
L 29.59375 31.296875 
Q 39.15625 29.25 43.1875 25.515625 
Q 47.21875 21.78125 47.21875 15.09375 
Q 47.21875 7.46875 41.1875 3.015625 
Q 35.15625 -1.421875 24.609375 -1.421875 
Q 20.21875 -1.421875 15.453125 -0.5625 
Q 10.6875 0.296875 5.421875 2 
L 5.421875 11.28125 
Q 10.40625 8.6875 15.234375 7.390625 
Q 20.0625 6.109375 24.8125 6.109375 
Q 31.15625 6.109375 34.5625 8.28125 
Q 37.984375 10.453125 37.984375 14.40625 
Q 37.984375 18.0625 35.515625 20.015625 
Q 33.0625 21.96875 24.703125 23.78125 
L 21.578125 24.515625 
Q 13.234375 26.265625 9.515625 29.90625 
Q 5.8125 33.546875 5.8125 39.890625 
Q 5.8125 47.609375 11.28125 51.796875 
Q 16.75 56 26.8125 56 
Q 31.78125 56 36.171875 55.265625 
Q 40.578125 54.546875 44.28125 53.078125 
z
" id="DejaVuSans-115"/>
      <path d="M 8.015625 75.875 
L 15.828125 75.875 
Q 23.140625 64.359375 26.78125 53.3125 
Q 30.421875 42.28125 30.421875 31.390625 
Q 30.421875 20.453125 26.78125 9.375 
Q 23.140625 -1.703125 15.828125 -13.1875 
L 8.015625 -13.1875 
Q 14.5 -2 17.703125 9.0625 
Q 20.90625 20.125 20.90625 31.390625 
Q 20.90625 42.671875 17.703125 53.65625 
Q 14.5 64.65625 8.015625 75.875 
z
" id="DejaVuSans-41"/>
     </defs>
     <g transform="translate(188.690625 251.416563)scale(0.1 -0.1)">
      <use xlink:href="#DejaVuSans-84"/>
      <use x="61.037109" xlink:href="#DejaVuSans-105"/>
      <use x="88.820312" xlink:href="#DejaVuSans-109"/>
      <use x="186.232422" xlink:href="#DejaVuSans-101"/>
      <use x="247.755859" xlink:href="#DejaVuSans-32"/>
      <use x="279.542969" xlink:href="#DejaVuSans-40"/>
      <use x="318.556641" xlink:href="#DejaVuSans-109"/>
      <use x="415.96875" xlink:href="#DejaVuSans-115"/>
      <use x="468.068359" xlink:href="#DejaVuSans-41"/>
     </g>
    </g>
   </g>
   <g id="matplotlib.axis_2">
    <g id="ytick_1">
     <g id="line2d_10">
      <defs>
       <path d="M 0 0 
L 3.5 0 
" id="m825a25782d" style="stroke:#000000;stroke-width:0.8;"/>
      </defs>
      <g>
       <use style="stroke:#000000;stroke-width:0.8;" x="46.64375" xlink:href="#m825a25782d" y="216.945715"/>
      </g>
     </g>
     <g id="text_11">
      <!-- 0.00 -->
      <g transform="translate(20.878125 220.744933)scale(0.1 -0.1)">
       <use xlink:href="#DejaVuSans-48"/>
       <use x="63.623047" xlink:href="#DejaVuSans-46"/>
       <use x="95.410156" xlink:href="#DejaVuSans-48"/>
       <use x="159.033203" xlink:href="#DejaVuSans-48"/>
      </g>
     </g>
    </g>
    <g id="ytick_2">
     <g id="line2d_11">
      <g>
       <use style="stroke:#000000;stroke-width:0.8;" x="46.64375" xlink:href="#m825a25782d" y="172.020784"/>
      </g>
     </g>
     <g id="text_12">
      <!-- 0.05 -->
      <g transform="translate(20.878125 175.820003)scale(0.1 -0.1)">
       <use xlink:href="#DejaVuSans-48"/>
       <use x="63.623047" xlink:href="#DejaVuSans-46"/>
       <use x="95.410156" xlink:href="#DejaVuSans-48"/>
       <use x="159.033203" xlink:href="#DejaVuSans-53"/>
      </g>
     </g>
    </g>
    <g id="ytick_3">
     <g id="line2d_12">
      <g>
       <use style="stroke:#000000;stroke-width:0.8;" x="46.64375" xlink:href="#m825a25782d" y="127.095853"/>
      </g>
     </g>
     <g id="text_13">
      <!-- 0.10 -->
      <g transform="translate(20.878125 130.895072)scale(0.1 -0.1)">
       <use xlink:href="#DejaVuSans-48"/>
       <use x="63.623047" xlink:href="#DejaVuSans-46"/>
       <use x="95.410156" xlink:href="#DejaVuSans-49"/>
       <use x="159.033203" xlink:href="#DejaVuSans-48"/>
      </g>
     </g>
    </g>
    <g id="ytick_4">
     <g id="line2d_13">
      <g>
       <use style="stroke:#000000;stroke-width:0.8;" x="46.64375" xlink:href="#m825a25782d" y="82.170922"/>
      </g>
     </g>
     <g id="text_14">
      <!-- 0.15 -->
      <g transform="translate(20.878125 85.970141)scale(0.1 -0.1)">
       <use xlink:href="#DejaVuSans-48"/>
       <use x="63.623047" xlink:href="#DejaVuSans-46"/>
       <use x="95.410156" xlink:href="#DejaVuSans-49"/>
       <use x="159.033203" xlink:href="#DejaVuSans-53"/>
      </g>
     </g>
    </g>
    <g id="ytick_5">
     <g id="line2d_14">
      <g>
       <use style="stroke:#000000;stroke-width:0.8;" x="46.64375" xlink:href="#m825a25782d" y="37.245991"/>
      </g>
     </g>
     <g id="text_15">
      <!-- 0.20 -->
      <g transform="translate(20.878125 41.04521)scale(0.1 -0.1)">
       <use xlink:href="#DejaVuSans-48"/>
       <use x="63.623047" xlink:href="#DejaVuSans-46"/>
       <use x="95.410156" xlink:href="#DejaVuSans-50"/>
       <use x="159.033203" xlink:href="#DejaVuSans-48"/>
      </g>
     </g>
    </g>
    <g id="text_16">
     <!-- Absorbance (215 nm) -->
     <defs>
      <path d="M 34.1875 63.1875 
L 20.796875 26.90625 
L 47.609375 26.90625 
z
M 28.609375 72.90625 
L 39.796875 72.90625 
L 67.578125 0 
L 57.328125 0 
L 50.6875 18.703125 
L 17.828125 18.703125 
L 11.1875 0 
L 0.78125 0 
z
" id="DejaVuSans-65"/>
      <path d="M 48.6875 27.296875 
Q 48.6875 37.203125 44.609375 42.84375 
Q 40.53125 48.484375 33.40625 48.484375 
Q 26.265625 48.484375 22.1875 42.84375 
Q 18.109375 37.203125 18.109375 27.296875 
Q 18.109375 17.390625 22.1875 11.75 
Q 26.265625 6.109375 33.40625 6.109375 
Q 40.53125 6.109375 44.609375 11.75 
Q 48.6875 17.390625 48.6875 27.296875 
z
M 18.109375 46.390625 
Q 20.953125 51.265625 25.265625 53.625 
Q 29.59375 56 35.59375 56 
Q 45.5625 56 51.78125 48.09375 
Q 58.015625 40.1875 58.015625 27.296875 
Q 58.015625 14.40625 51.78125 6.484375 
Q 45.5625 -1.421875 35.59375 -1.421875 
Q 29.59375 -1.421875 25.265625 0.953125 
Q 20.953125 3.328125 18.109375 8.203125 
L 18.109375 0 
L 9.078125 0 
L 9.078125 75.984375 
L 18.109375 75.984375 
z
" id="DejaVuSans-98"/>
      <path d="M 30.609375 48.390625 
Q 23.390625 48.390625 19.1875 42.75 
Q 14.984375 37.109375 14.984375 27.296875 
Q 14.984375 17.484375 19.15625 11.84375 
Q 23.34375 6.203125 30.609375 6.203125 
Q 37.796875 6.203125 41.984375 11.859375 
Q 46.1875 17.53125 46.1875 27.296875 
Q 46.1875 37.015625 41.984375 42.703125 
Q 37.796875 48.390625 30.609375 48.390625 
z
M 30.609375 56 
Q 42.328125 56 49.015625 48.375 
Q 55.71875 40.765625 55.71875 27.296875 
Q 55.71875 13.875 49.015625 6.21875 
Q 42.328125 -1.421875 30.609375 -1.421875 
Q 18.84375 -1.421875 12.171875 6.21875 
Q 5.515625 13.875 5.515625 27.296875 
Q 5.515625 40.765625 12.171875 48.375 
Q 18.84375 56 30.609375 56 
z
" id="DejaVuSans-111"/>
      <path d="M 41.109375 46.296875 
Q 39.59375 47.171875 37.8125 47.578125 
Q 36.03125 48 33.890625 48 
Q 26.265625 48 22.1875 43.046875 
Q 18.109375 38.09375 18.109375 28.8125 
L 18.109375 0 
L 9.078125 0 
L 9.078125 54.6875 
L 18.109375 54.6875 
L 18.109375 46.1875 
Q 20.953125 51.171875 25.484375 53.578125 
Q 30.03125 56 36.53125 56 
Q 37.453125 56 38.578125 55.875 
Q 39.703125 55.765625 41.0625 55.515625 
z
" id="DejaVuSans-114"/>
      <path d="M 34.28125 27.484375 
Q 23.390625 27.484375 19.1875 25 
Q 14.984375 22.515625 14.984375 16.5 
Q 14.984375 11.71875 18.140625 8.90625 
Q 21.296875 6.109375 26.703125 6.109375 
Q 34.1875 6.109375 38.703125 11.40625 
Q 43.21875 16.703125 43.21875 25.484375 
L 43.21875 27.484375 
z
M 52.203125 31.203125 
L 52.203125 0 
L 43.21875 0 
L 43.21875 8.296875 
Q 40.140625 3.328125 35.546875 0.953125 
Q 30.953125 -1.421875 24.3125 -1.421875 
Q 15.921875 -1.421875 10.953125 3.296875 
Q 6 8.015625 6 15.921875 
Q 6 25.140625 12.171875 29.828125 
Q 18.359375 34.515625 30.609375 34.515625 
L 43.21875 34.515625 
L 43.21875 35.40625 
Q 43.21875 41.609375 39.140625 45 
Q 35.0625 48.390625 27.6875 48.390625 
Q 23 48.390625 18.546875 47.265625 
Q 14.109375 46.140625 10.015625 43.890625 
L 10.015625 52.203125 
Q 14.9375 54.109375 19.578125 55.046875 
Q 24.21875 56 28.609375 56 
Q 40.484375 56 46.34375 49.84375 
Q 52.203125 43.703125 52.203125 31.203125 
z
" id="DejaVuSans-97"/>
      <path d="M 54.890625 33.015625 
L 54.890625 0 
L 45.90625 0 
L 45.90625 32.71875 
Q 45.90625 40.484375 42.875 44.328125 
Q 39.84375 48.1875 33.796875 48.1875 
Q 26.515625 48.1875 22.3125 43.546875 
Q 18.109375 38.921875 18.109375 30.90625 
L 18.109375 0 
L 9.078125 0 
L 9.078125 54.6875 
L 18.109375 54.6875 
L 18.109375 46.1875 
Q 21.34375 51.125 25.703125 53.5625 
Q 30.078125 56 35.796875 56 
Q 45.21875 56 50.046875 50.171875 
Q 54.890625 44.34375 54.890625 33.015625 
z
" id="DejaVuSans-110"/>
      <path d="M 48.78125 52.59375 
L 48.78125 44.1875 
Q 44.96875 46.296875 41.140625 47.34375 
Q 37.3125 48.390625 33.40625 48.390625 
Q 24.65625 48.390625 19.8125 42.84375 
Q 14.984375 37.3125 14.984375 27.296875 
Q 14.984375 17.28125 19.8125 11.734375 
Q 24.65625 6.203125 33.40625 6.203125 
Q 37.3125 6.203125 41.140625 7.25 
Q 44.96875 8.296875 48.78125 10.40625 
L 48.78125 2.09375 
Q 45.015625 0.34375 40.984375 -0.53125 
Q 36.96875 -1.421875 32.421875 -1.421875 
Q 20.0625 -1.421875 12.78125 6.34375 
Q 5.515625 14.109375 5.515625 27.296875 
Q 5.515625 40.671875 12.859375 48.328125 
Q 20.21875 56 33.015625 56 
Q 37.15625 56 41.109375 55.140625 
Q 45.0625 54.296875 48.78125 52.59375 
z
" id="DejaVuSans-99"/>
     </defs>
     <g transform="translate(14.798438 172.129375)rotate(-90)scale(0.1 -0.1)">
      <use xlink:href="#DejaVuSans-65"/>
      <use x="68.408203" xlink:href="#DejaVuSans-98"/>
      <use x="131.884766" xlink:href="#DejaVuSans-115"/>
      <use x="183.984375" xlink:href="#DejaVuSans-111"/>
      <use x="245.166016" xlink:href="#DejaVuSans-114"/>
      <use x="286.279297" xlink:href="#DejaVuSans-98"/>
      <use x="349.755859" xlink:href="#DejaVuSans-97"/>
      <use x="411.035156" xlink:href="#DejaVuSans-110"/>
      <use x="474.414062" xlink:href="#DejaVuSans-99"/>
      <use x="529.394531" xlink:href="#DejaVuSans-101"/>
      <use x="590.917969" xlink:href="#DejaVuSans-32"/>
      <use x="622.705078" xlink:href="#DejaVuSans-40"/>
      <use x="661.71875" xlink:href="#DejaVuSans-50"/>
      <use x="725.341797" xlink:href="#DejaVuSans-49"/>
      <use x="788.964844" xlink:href="#DejaVuSans-53"/>
      <use x="852.587891" xlink:href="#DejaVuSans-32"/>
      <use x="884.375" xlink:href="#DejaVuSans-110"/>
      <use x="947.753906" xlink:href="#DejaVuSans-109"/>
      <use x="1045.166016" xlink:href="#DejaVuSans-41"/>
     </g>
    </g>
   </g>
   <g id="line2d_15">
    <defs>
     <path d="M 0 3 
C 0.795609 3 1.55874 2.683901 2.12132 2.12132 
C 2.683901 1.55874 3 0.795609 3 0 
C 3 -0.795609 2.683901 -1.55874 2.12132 -2.12132 
C 1.55874 -2.683901 0.795609 -3 0 -3 
C -0.795609 -3 -1.55874 -2.683901 -2.12132 -2.12132 
C -2.683901 -1.55874 -3 -0.795609 -3 0 
C -3 0.795609 -2.683901 1.55874 -2.12132 2.12132 
C -1.55874 2.683901 -0.795609 3 0 3 
z
" id="mdd884a07f1" style="stroke:#000000;"/>
    </defs>
    <g clip-path="url(#pc9a8dbf79e)">
     <use style="stroke:#000000;" x="62.250622" xlink:href="#mdd884a07f1" y="71.896591"/>
     <use style="stroke:#000000;" x="62.639311" xlink:href="#mdd884a07f1" y="96.071594"/>
     <use style="stroke:#000000;" x="63.028152" xlink:href="#mdd884a07f1" y="75.925458"/>
     <use style="stroke:#000000;" x="64.194373" xlink:href="#mdd884a07f1" y="83.984092"/>
     <use style="stroke:#000000;" x="64.194373" xlink:href="#mdd884a07f1" y="58.801872"/>
     <use style="stroke:#000000;" x="65.360593" xlink:href="#mdd884a07f1" y="58.801872"/>
     <use style="stroke:#000000;" x="65.360593" xlink:href="#mdd884a07f1" y="43.692719"/>
     <use style="stroke:#000000;" x="66.138124" xlink:href="#mdd884a07f1" y="48.728804"/>
     <use style="stroke:#000000;" x="66.138124" xlink:href="#mdd884a07f1" y="37.648519"/>
     <use style="stroke:#000000;" x="66.915655" xlink:href="#mdd884a07f1" y="44.699936"/>
     <use style="stroke:#000000;" x="67.304345" xlink:href="#mdd884a07f1" y="35.634085"/>
     <use style="stroke:#000000;" x="68.859406" xlink:href="#mdd884a07f1" y="39.663851"/>
     <use style="stroke:#000000;" x="69.636937" xlink:href="#mdd884a07f1" y="30.598"/>
     <use style="stroke:#000000;" x="70.414317" xlink:href="#mdd884a07f1" y="37.648519"/>
     <use style="stroke:#000000;" x="72.746909" xlink:href="#mdd884a07f1" y="32.612434"/>
     <use style="stroke:#000000;" x="73.524288" xlink:href="#mdd884a07f1" y="41.678285"/>
     <use style="stroke:#000000;" x="74.69066" xlink:href="#mdd884a07f1" y="36.641302"/>
     <use style="stroke:#000000;" x="74.69066" xlink:href="#mdd884a07f1" y="45.707153"/>
     <use style="stroke:#000000;" x="77.023101" xlink:href="#mdd884a07f1" y="44.699936"/>
     <use style="stroke:#000000;" x="78.189322" xlink:href="#mdd884a07f1" y="53.765787"/>
     <use style="stroke:#000000;" x="78.966853" xlink:href="#mdd884a07f1" y="48.728804"/>
     <use style="stroke:#000000;" x="80.910604" xlink:href="#mdd884a07f1" y="62.83074"/>
     <use style="stroke:#000000;" x="81.688135" xlink:href="#mdd884a07f1" y="56.787438"/>
     <use style="stroke:#000000;" x="84.020576" xlink:href="#mdd884a07f1" y="67.867723"/>
     <use style="stroke:#000000;" x="84.409417" xlink:href="#mdd884a07f1" y="62.83074"/>
     <use style="stroke:#000000;" x="85.186796" xlink:href="#mdd884a07f1" y="75.925458"/>
     <use style="stroke:#000000;" x="86.741858" xlink:href="#mdd884a07f1" y="68.87494"/>
     <use style="stroke:#000000;" x="87.519389" xlink:href="#mdd884a07f1" y="80.962442"/>
     <use style="stroke:#000000;" x="89.074299" xlink:href="#mdd884a07f1" y="75.925458"/>
     <use style="stroke:#000000;" x="90.24052" xlink:href="#mdd884a07f1" y="88.01296"/>
     <use style="stroke:#000000;" x="91.01805" xlink:href="#mdd884a07f1" y="80.962442"/>
     <use style="stroke:#000000;" x="92.184271" xlink:href="#mdd884a07f1" y="95.064377"/>
     <use style="stroke:#000000;" x="93.739333" xlink:href="#mdd884a07f1" y="90.027394"/>
     <use style="stroke:#000000;" x="94.516863" xlink:href="#mdd884a07f1" y="99.093245"/>
     <use style="stroke:#000000;" x="96.460615" xlink:href="#mdd884a07f1" y="96.071594"/>
     <use style="stroke:#000000;" x="96.460615" xlink:href="#mdd884a07f1" y="104.12933"/>
     <use style="stroke:#000000;" x="99.570587" xlink:href="#mdd884a07f1" y="102.114896"/>
     <use style="stroke:#000000;" x="99.959276" xlink:href="#mdd884a07f1" y="112.187964"/>
     <use style="stroke:#000000;" x="101.903028" xlink:href="#mdd884a07f1" y="107.151879"/>
     <use style="stroke:#000000;" x="102.680558" xlink:href="#mdd884a07f1" y="116.216832"/>
     <use style="stroke:#000000;" x="104.62431" xlink:href="#mdd884a07f1" y="111.180747"/>
     <use style="stroke:#000000;" x="104.62431" xlink:href="#mdd884a07f1" y="120.246598"/>
     <use style="stroke:#000000;" x="106.568061" xlink:href="#mdd884a07f1" y="116.216832"/>
     <use style="stroke:#000000;" x="106.956751" xlink:href="#mdd884a07f1" y="126.2899"/>
     <use style="stroke:#000000;" x="109.678033" xlink:href="#mdd884a07f1" y="123.268249"/>
     <use style="stroke:#000000;" x="110.066874" xlink:href="#mdd884a07f1" y="132.333741"/>
     <use style="stroke:#000000;" x="112.788005" xlink:href="#mdd884a07f1" y="124.275466"/>
     <use style="stroke:#000000;" x="112.788005" xlink:href="#mdd884a07f1" y="137.370185"/>
     <use style="stroke:#000000;" x="115.120597" xlink:href="#mdd884a07f1" y="132.333741"/>
     <use style="stroke:#000000;" x="117.064349" xlink:href="#mdd884a07f1" y="143.413846"/>
     <use style="stroke:#000000;" x="118.619259" xlink:href="#mdd884a07f1" y="139.384708"/>
     <use style="stroke:#000000;" x="119.39679" xlink:href="#mdd884a07f1" y="149.457597"/>
     <use style="stroke:#000000;" x="122.118072" xlink:href="#mdd884a07f1" y="142.406629"/>
     <use style="stroke:#000000;" x="122.895603" xlink:href="#mdd884a07f1" y="153.486734"/>
     <use style="stroke:#000000;" x="125.228044" xlink:href="#mdd884a07f1" y="147.442983"/>
     <use style="stroke:#000000;" x="126.783257" xlink:href="#mdd884a07f1" y="157.515871"/>
     <use style="stroke:#000000;" x="133.003503" xlink:href="#mdd884a07f1" y="156.508565"/>
     <use style="stroke:#000000;" x="135.335339" xlink:href="#mdd884a07f1" y="169.603283"/>
     <use style="stroke:#000000;" x="138.056318" xlink:href="#mdd884a07f1" y="161.545009"/>
     <use style="stroke:#000000;" x="138.056318" xlink:href="#mdd884a07f1" y="172.625114"/>
     <use style="stroke:#000000;" x="139.611379" xlink:href="#mdd884a07f1" y="161.545009"/>
     <use style="stroke:#000000;" x="141.166441" xlink:href="#mdd884a07f1" y="171.617897"/>
     <use style="stroke:#000000;" x="144.276564" xlink:href="#mdd884a07f1" y="167.58876"/>
     <use style="stroke:#000000;" x="144.276564" xlink:href="#mdd884a07f1" y="175.647034"/>
     <use style="stroke:#000000;" x="147.386688" xlink:href="#mdd884a07f1" y="169.603283"/>
     <use style="stroke:#000000;" x="148.941749" xlink:href="#mdd884a07f1" y="179.676172"/>
     <use style="stroke:#000000;" x="152.051873" xlink:href="#mdd884a07f1" y="172.625114"/>
     <use style="stroke:#000000;" x="152.441016" xlink:href="#mdd884a07f1" y="182.698002"/>
     <use style="stroke:#000000;" x="156.327913" xlink:href="#mdd884a07f1" y="175.647034"/>
     <use style="stroke:#000000;" x="157.106201" xlink:href="#mdd884a07f1" y="185.719833"/>
     <use style="stroke:#000000;" x="160.603954" xlink:href="#mdd884a07f1" y="178.668865"/>
     <use style="stroke:#000000;" x="160.603954" xlink:href="#mdd884a07f1" y="183.705309"/>
     <use style="stroke:#000000;" x="162.937304" xlink:href="#mdd884a07f1" y="178.668865"/>
     <use style="stroke:#000000;" x="162.937304" xlink:href="#mdd884a07f1" y="186.72714"/>
     <use style="stroke:#000000;" x="164.879995" xlink:href="#mdd884a07f1" y="181.690695"/>
     <use style="stroke:#000000;" x="165.658283" xlink:href="#mdd884a07f1" y="187.734446"/>
     <use style="stroke:#000000;" x="168.379263" xlink:href="#mdd884a07f1" y="179.676172"/>
     <use style="stroke:#000000;" x="170.711098" xlink:href="#mdd884a07f1" y="190.756277"/>
     <use style="stroke:#000000;" x="173.433591" xlink:href="#mdd884a07f1" y="180.683478"/>
     <use style="stroke:#000000;" x="174.988653" xlink:href="#mdd884a07f1" y="189.74897"/>
     <use style="stroke:#000000;" x="177.709632" xlink:href="#mdd884a07f1" y="182.698002"/>
     <use style="stroke:#000000;" x="178.87555" xlink:href="#mdd884a07f1" y="188.741753"/>
     <use style="stroke:#000000;" x="180.041468" xlink:href="#mdd884a07f1" y="180.683478"/>
     <use style="stroke:#000000;" x="181.207385" xlink:href="#mdd884a07f1" y="191.763584"/>
     <use style="stroke:#000000;" x="182.762447" xlink:href="#mdd884a07f1" y="182.698002"/>
     <use style="stroke:#000000;" x="183.929879" xlink:href="#mdd884a07f1" y="194.785414"/>
     <use style="stroke:#000000;" x="186.650858" xlink:href="#mdd884a07f1" y="187.734446"/>
     <use style="stroke:#000000;" x="187.427632" xlink:href="#mdd884a07f1" y="196.800028"/>
     <use style="stroke:#000000;" x="188.59355" xlink:href="#mdd884a07f1" y="187.734446"/>
     <use style="stroke:#000000;" x="190.537755" xlink:href="#mdd884a07f1" y="197.807335"/>
     <use style="stroke:#000000;" x="192.092817" xlink:href="#mdd884a07f1" y="191.763584"/>
     <use style="stroke:#000000;" x="192.871105" xlink:href="#mdd884a07f1" y="199.821858"/>
     <use style="stroke:#000000;" x="195.979714" xlink:href="#mdd884a07f1" y="193.778107"/>
     <use style="stroke:#000000;" x="197.534775" xlink:href="#mdd884a07f1" y="200.829165"/>
     <use style="stroke:#000000;" x="199.089837" xlink:href="#mdd884a07f1" y="195.792721"/>
     <use style="stroke:#000000;" x="201.423187" xlink:href="#mdd884a07f1" y="192.77089"/>
     <use style="stroke:#000000;" x="202.589104" xlink:href="#mdd884a07f1" y="200.829165"/>
     <use style="stroke:#000000;" x="204.53331" xlink:href="#mdd884a07f1" y="198.814552"/>
     <use style="stroke:#000000;" x="206.865145" xlink:href="#mdd884a07f1" y="190.756277"/>
     <use style="stroke:#000000;" x="207.643433" xlink:href="#mdd884a07f1" y="201.836472"/>
     <use style="stroke:#000000;" x="211.141186" xlink:href="#mdd884a07f1" y="196.800028"/>
     <use style="stroke:#000000;" x="213.085392" xlink:href="#mdd884a07f1" y="201.836472"/>
     <use style="stroke:#000000;" x="216.195515" xlink:href="#mdd884a07f1" y="194.785414"/>
     <use style="stroke:#000000;" x="220.471556" xlink:href="#mdd884a07f1" y="201.836472"/>
     <use style="stroke:#000000;" x="222.026618" xlink:href="#mdd884a07f1" y="193.778107"/>
     <use style="stroke:#000000;" x="224.358453" xlink:href="#mdd884a07f1" y="203.850996"/>
     <use style="stroke:#000000;" x="225.913515" xlink:href="#mdd884a07f1" y="194.785414"/>
     <use style="stroke:#000000;" x="228.636008" xlink:href="#mdd884a07f1" y="203.850996"/>
     <use style="stroke:#000000;" x="230.967844" xlink:href="#mdd884a07f1" y="198.814552"/>
     <use style="stroke:#000000;" x="232.133761" xlink:href="#mdd884a07f1" y="203.850996"/>
     <use style="stroke:#000000;" x="236.022172" xlink:href="#mdd884a07f1" y="197.807335"/>
     <use style="stroke:#000000;" x="237.964864" xlink:href="#mdd884a07f1" y="207.880133"/>
     <use style="stroke:#000000;" x="240.298213" xlink:href="#mdd884a07f1" y="198.814552"/>
     <use style="stroke:#000000;" x="241.464131" xlink:href="#mdd884a07f1" y="205.865609"/>
     <use style="stroke:#000000;" x="244.574254" xlink:href="#mdd884a07f1" y="202.843689"/>
     <use style="stroke:#000000;" x="245.740172" xlink:href="#mdd884a07f1" y="207.880133"/>
     <use style="stroke:#000000;" x="248.461151" xlink:href="#mdd884a07f1" y="203.850996"/>
     <use style="stroke:#000000;" x="250.794501" xlink:href="#mdd884a07f1" y="208.887431"/>
     <use style="stroke:#000000;" x="252.737192" xlink:href="#mdd884a07f1" y="199.821858"/>
     <use style="stroke:#000000;" x="254.292254" xlink:href="#mdd884a07f1" y="210.902"/>
     <use style="stroke:#000000;" x="258.569809" xlink:href="#mdd884a07f1" y="200.829165"/>
     <use style="stroke:#000000;" x="259.735727" xlink:href="#mdd884a07f1" y="208.887431"/>
     <use style="stroke:#000000;" x="262.067562" xlink:href="#mdd884a07f1" y="200.829165"/>
     <use style="stroke:#000000;" x="264.011768" xlink:href="#mdd884a07f1" y="207.880133"/>
     <use style="stroke:#000000;" x="265.177685" xlink:href="#mdd884a07f1" y="201.836472"/>
     <use style="stroke:#000000;" x="267.511035" xlink:href="#mdd884a07f1" y="209.89472"/>
     <use style="stroke:#000000;" x="270.619644" xlink:href="#mdd884a07f1" y="203.850996"/>
     <use style="stroke:#000000;" x="272.952993" xlink:href="#mdd884a07f1" y="209.89472"/>
     <use style="stroke:#000000;" x="276.063117" xlink:href="#mdd884a07f1" y="203.850996"/>
     <use style="stroke:#000000;" x="277.618178" xlink:href="#mdd884a07f1" y="210.902"/>
     <use style="stroke:#000000;" x="280.339158" xlink:href="#mdd884a07f1" y="202.843689"/>
     <use style="stroke:#000000;" x="282.283363" xlink:href="#mdd884a07f1" y="212.916577"/>
     <use style="stroke:#000000;" x="286.947034" xlink:href="#mdd884a07f1" y="203.850996"/>
     <use style="stroke:#000000;" x="288.89124" xlink:href="#mdd884a07f1" y="211.909288"/>
     <use style="stroke:#000000;" x="292.001363" xlink:href="#mdd884a07f1" y="203.850996"/>
     <use style="stroke:#000000;" x="294.722342" xlink:href="#mdd884a07f1" y="211.909288"/>
     <use style="stroke:#000000;" x="297.055692" xlink:href="#mdd884a07f1" y="205.865609"/>
     <use style="stroke:#000000;" x="298.610753" xlink:href="#mdd884a07f1" y="210.902"/>
     <use style="stroke:#000000;" x="300.942589" xlink:href="#mdd884a07f1" y="204.858302"/>
     <use style="stroke:#000000;" x="302.49765" xlink:href="#mdd884a07f1" y="211.909288"/>
     <use style="stroke:#000000;" x="304.052712" xlink:href="#mdd884a07f1" y="205.865609"/>
     <use style="stroke:#000000;" x="304.441856" xlink:href="#mdd884a07f1" y="211.909288"/>
    </g>
   </g>
   <g id="line2d_16">
    <path clip-path="url(#pc9a8dbf79e)" d="M 61.861932 96.408195 
L 61.94284 96.440322 
L 61.981031 96.399147 
L 62.122701 95.96846 
L 62.375913 94.322791 
L 62.831696 89.597725 
L 65.423584 59.970257 
L 66.316355 53.218806 
L 67.189215 48.256022 
L 67.974789 44.947717 
L 68.673865 42.77981 
L 69.329496 41.313701 
L 69.985127 40.320825 
L 70.578864 39.776446 
L 71.179938 39.52489 
L 71.781012 39.537168 
L 72.382087 39.780117 
L 73.183519 40.412942 
L 73.984952 41.344643 
L 75.089495 43.026815 
L 76.295074 45.275734 
L 77.802049 48.5315 
L 79.911814 53.638626 
L 83.227159 62.32562 
L 91.959352 85.431843 
L 96.092151 95.631144 
L 99.350171 103.214676 
L 102.917206 111.042605 
L 106.484241 118.381177 
L 110.051276 125.247275 
L 114.136647 132.558663 
L 117.149523 137.592619 
L 120.507398 142.864779 
L 123.865272 147.799747 
L 127.223147 152.417044 
L 131.42049 157.770534 
L 135.617833 162.691996 
L 139.815176 167.214341 
L 144.012519 171.368376 
L 148.247009 175.215166 
L 152.124129 178.457644 
L 156.255843 181.641519 
L 160.063725 184.346406 
L 165.140902 187.638897 
L 168.948784 189.891897 
L 172.88389 192.041407 
L 178.786548 194.95482 
L 184.689206 197.53277 
L 190.591865 199.813255 
L 196.494523 201.830071 
L 202.397181 203.613245 
L 208.29984 205.189437 
L 216.170051 207.009543 
L 224.040262 208.552225 
L 231.787062 209.840179 
L 240.455932 211.051941 
L 250.569614 212.210306 
L 260.683296 213.143274 
L 272.24179 213.987889 
L 285.245095 214.715715 
L 301.138024 215.36382 
L 319.920576 215.884543 
L 342.342775 216.274582 
L 366.225568 216.518016 
L 366.225568 216.518016 
" style="fill:none;stroke:#0000ff;stroke-linecap:square;stroke-width:1.5;"/>
   </g>
   <g id="line2d_17">
    <path clip-path="url(#pc9a8dbf79e)" d="M 61.861932 112.498961 
L 61.940768 112.551006 
L 61.972481 112.517742 
L 62.086363 112.160408 
L 62.309409 110.513912 
L 62.666281 105.896653 
L 63.315038 94.073002 
L 64.899384 64.585608 
L 65.719544 53.277625 
L 66.492067 45.310022 
L 67.26459 39.543217 
L 67.959861 35.890863 
L 68.617588 33.529316 
L 69.198785 32.176386 
L 69.779982 31.401771 
L 70.24494 31.138987 
L 70.709898 31.15159 
L 71.120571 31.364997 
L 71.655153 31.892502 
L 72.36793 32.973647 
L 73.2589 34.824951 
L 74.328065 37.620235 
L 75.576877 41.471463 
L 77.450459 48.034347 
L 80.415313 59.401228 
L 87.531642 86.953712 
L 90.803034 98.686913 
L 93.828548 108.806823 
L 96.897562 118.3277 
L 100.043144 127.31932 
L 102.741307 134.437442 
L 105.782558 141.837328 
L 108.429908 147.772376 
L 111.077259 153.265983 
L 113.72461 158.346458 
L 116.37196 163.041363 
L 119.525946 168.16814 
L 122.472071 172.534126 
L 125.272444 176.335761 
L 127.846532 179.553554 
L 131.287174 183.474437 
L 134.820167 187.088098 
L 137.677703 189.733397 
L 141.129393 192.628612 
L 144.222725 194.969254 
L 147.316058 197.092012 
L 150.40939 199.016397 
L 155.049389 201.569638 
L 159.689387 203.770183 
L 164.329386 205.664988 
L 168.969384 207.294943 
L 173.609383 208.695614 
L 178.249382 209.897917 
L 184.577949 211.265916 
L 190.732034 212.344733 
L 197.218557 213.262223 
L 204.349459 214.060185 
L 212.499061 214.758426 
L 222.686063 215.388499 
L 234.910466 215.891567 
L 250.190969 216.269149 
L 270.079552 216.523308 
L 302.214291 216.683362 
L 365.057592 216.756364 
L 365.057592 216.756364 
" style="fill:none;stroke:#ff0000;stroke-linecap:square;stroke-width:1.5;"/>
   </g>
   <g id="line2d_18">
    <path clip-path="url(#pc9a8dbf79e)" d="M 62.250622 72.543984 
L 62.639311 69.879793 
L 63.028152 66.124056 
L 65.360593 40.740075 
L 65.360593 40.740075 
L 66.138124 34.276962 
L 66.138124 34.276962 
L 67.304345 27.052892 
L 68.859406 21.357356 
L 69.636937 19.854362 
L 70.414317 19.083636 
L 72.746909 19.938562 
L 73.524288 21.00559 
L 74.69066 23.123581 
L 74.69066 23.123581 
L 77.023101 28.606587 
L 78.966853 33.969712 
L 84.020576 49.21639 
L 89.074299 64.508191 
L 92.184271 73.48661 
L 96.460615 85.102109 
L 96.460615 85.102109 
L 99.959276 93.928514 
L 102.680558 100.380239 
L 106.956751 109.804653 
L 110.066874 116.146478 
L 115.120597 125.590834 
L 119.39679 132.826068 
L 122.895603 138.286662 
L 126.783257 143.911046 
L 133.003503 152.043017 
L 138.056318 157.939862 
L 138.056318 157.939862 
L 141.166441 161.289154 
L 144.276564 164.44274 
L 144.276564 164.44274 
L 148.941749 168.830615 
L 152.441016 171.871664 
L 157.106201 175.625311 
L 162.937304 179.871226 
L 162.937304 179.871226 
L 168.379263 183.435866 
L 173.433591 186.431539 
L 178.87555 189.367861 
L 183.929879 191.829164 
L 190.537755 194.721879 
L 195.979714 196.852148 
L 202.589104 199.167215 
L 207.643433 200.75074 
L 216.195515 203.125979 
L 225.913515 205.408565 
L 232.133761 206.666714 
L 241.464131 208.308729 
L 250.794501 209.695293 
L 259.735727 210.821288 
L 270.619644 211.969279 
L 282.283363 212.972651 
L 297.055692 213.974083 
L 304.441856 214.381864 
L 304.441856 214.381864 
" style="fill:none;stroke:#0000ff;stroke-dasharray:5.55,2.4;stroke-dashoffset:0;stroke-width:1.5;"/>
   </g>
   <g id="line2d_19">
    <path clip-path="url(#pc9a8dbf79e)" d="M 62.250622 114.398422 
L 62.639311 110.427483 
L 64.194373 89.820131 
L 64.194373 89.820131 
L 65.360593 78.07711 
L 65.360593 78.07711 
L 66.138124 72.346612 
L 66.138124 72.346612 
L 67.304345 66.117922 
L 68.859406 61.027618 
L 69.636937 59.511246 
L 70.414317 58.524019 
L 72.746909 58.070789 
L 73.524288 58.554303 
L 74.69066 59.71516 
L 74.69066 59.71516 
L 77.023101 63.233387 
L 78.966853 66.972176 
L 81.688135 72.902537 
L 96.460615 106.927564 
L 96.460615 106.927564 
L 101.903028 118.261362 
L 104.62431 123.591913 
L 104.62431 123.591913 
L 109.678033 132.892021 
L 112.788005 138.243483 
L 112.788005 138.243483 
L 117.064349 145.124038 
L 119.39679 148.662805 
L 122.895603 153.688671 
L 126.783257 158.885376 
L 133.003503 166.409031 
L 138.056318 171.856115 
L 138.056318 171.856115 
L 141.166441 174.930939 
L 144.276564 177.811453 
L 144.276564 177.811453 
L 148.941749 181.785602 
L 152.441016 184.511279 
L 157.106201 187.831664 
L 162.937304 191.531226 
L 162.937304 191.531226 
L 168.379263 194.570975 
L 173.433591 197.078349 
L 178.87555 199.474405 
L 183.929879 201.445275 
L 190.537755 203.707281 
L 195.979714 205.31949 
L 202.589104 207.027307 
L 207.643433 208.16576 
L 216.195515 209.809391 
L 225.913515 211.310983 
L 236.022172 212.544605 
L 245.740172 213.477518 
L 254.292254 214.133742 
L 267.511035 214.911016 
L 282.283363 215.522303 
L 300.942589 216.027844 
L 304.441856 216.098531 
L 304.441856 216.098531 
" style="fill:none;stroke:#0000ff;stroke-dasharray:5.55,2.4;stroke-dashoffset:0;stroke-width:1.5;"/>
   </g>
   <g id="patch_3">
    <path d="M 46.64375 226.64 
L 46.64375 9.2 
" style="fill:none;stroke:#000000;stroke-linecap:square;stroke-linejoin:miter;stroke-width:0.8;"/>
   </g>
   <g id="patch_4">
    <path d="M 381.44375 226.64 
L 381.44375 9.2 
" style="fill:none;stroke:#000000;stroke-linecap:square;stroke-linejoin:miter;stroke-width:0.8;"/>
   </g>
   <g id="patch_5">
    <path d="M 46.64375 226.64 
L 381.44375 226.64 
" style="fill:none;stroke:#000000;stroke-linecap:square;stroke-linejoin:miter;stroke-width:0.8;"/>
   </g>
   <g id="patch_6">
    <path d="M 46.64375 9.2 
L 381.44375 9.2 
" style="fill:none;stroke:#000000;stroke-linecap:square;stroke-linejoin:miter;stroke-width:0.8;"/>
   </g>
   <g id="legend_1">
    <g id="patch_7">
     <path d="M 209.753125 61.25625 
L 374.44375 61.25625 
Q 376.44375 61.25625 376.44375 59.25625 
L 376.44375 16.2 
Q 376.44375 14.2 374.44375 14.2 
L 209.753125 14.2 
Q 207.753125 14.2 207.753125 16.2 
L 207.753125 59.25625 
Q 207.753125 61.25625 209.753125 61.25625 
z
" style="fill:#ffffff;opacity:0.8;stroke:#cccccc;stroke-linejoin:miter;"/>
    </g>
    <g id="line2d_20"/>
    <g id="line2d_21">
     <g>
      <use style="stroke:#000000;" x="221.753125" xlink:href="#mdd884a07f1" y="22.298438"/>
     </g>
    </g>
    <g id="text_17">
     <!-- Kappel et al. Experimental -->
     <defs>
      <path d="M 9.8125 72.90625 
L 19.671875 72.90625 
L 19.671875 42.09375 
L 52.390625 72.90625 
L 65.09375 72.90625 
L 28.90625 38.921875 
L 67.671875 0 
L 54.6875 0 
L 19.671875 35.109375 
L 19.671875 0 
L 9.8125 0 
z
" id="DejaVuSans-75"/>
      <path d="M 18.109375 8.203125 
L 18.109375 -20.796875 
L 9.078125 -20.796875 
L 9.078125 54.6875 
L 18.109375 54.6875 
L 18.109375 46.390625 
Q 20.953125 51.265625 25.265625 53.625 
Q 29.59375 56 35.59375 56 
Q 45.5625 56 51.78125 48.09375 
Q 58.015625 40.1875 58.015625 27.296875 
Q 58.015625 14.40625 51.78125 6.484375 
Q 45.5625 -1.421875 35.59375 -1.421875 
Q 29.59375 -1.421875 25.265625 0.953125 
Q 20.953125 3.328125 18.109375 8.203125 
z
M 48.6875 27.296875 
Q 48.6875 37.203125 44.609375 42.84375 
Q 40.53125 48.484375 33.40625 48.484375 
Q 26.265625 48.484375 22.1875 42.84375 
Q 18.109375 37.203125 18.109375 27.296875 
Q 18.109375 17.390625 22.1875 11.75 
Q 26.265625 6.109375 33.40625 6.109375 
Q 40.53125 6.109375 44.609375 11.75 
Q 48.6875 17.390625 48.6875 27.296875 
z
" id="DejaVuSans-112"/>
      <path d="M 9.421875 75.984375 
L 18.40625 75.984375 
L 18.40625 0 
L 9.421875 0 
z
" id="DejaVuSans-108"/>
      <path d="M 18.3125 70.21875 
L 18.3125 54.6875 
L 36.8125 54.6875 
L 36.8125 47.703125 
L 18.3125 47.703125 
L 18.3125 18.015625 
Q 18.3125 11.328125 20.140625 9.421875 
Q 21.96875 7.515625 27.59375 7.515625 
L 36.8125 7.515625 
L 36.8125 0 
L 27.59375 0 
Q 17.1875 0 13.234375 3.875 
Q 9.28125 7.765625 9.28125 18.015625 
L 9.28125 47.703125 
L 2.6875 47.703125 
L 2.6875 54.6875 
L 9.28125 54.6875 
L 9.28125 70.21875 
z
" id="DejaVuSans-116"/>
      <path d="M 9.8125 72.90625 
L 55.90625 72.90625 
L 55.90625 64.59375 
L 19.671875 64.59375 
L 19.671875 43.015625 
L 54.390625 43.015625 
L 54.390625 34.71875 
L 19.671875 34.71875 
L 19.671875 8.296875 
L 56.78125 8.296875 
L 56.78125 0 
L 9.8125 0 
z
" id="DejaVuSans-69"/>
      <path d="M 54.890625 54.6875 
L 35.109375 28.078125 
L 55.90625 0 
L 45.3125 0 
L 29.390625 21.484375 
L 13.484375 0 
L 2.875 0 
L 24.125 28.609375 
L 4.6875 54.6875 
L 15.28125 54.6875 
L 29.78125 35.203125 
L 44.28125 54.6875 
z
" id="DejaVuSans-120"/>
     </defs>
     <g transform="translate(239.753125 25.798438)scale(0.1 -0.1)">
      <use xlink:href="#DejaVuSans-75"/>
      <use x="65.560547" xlink:href="#DejaVuSans-97"/>
      <use x="126.839844" xlink:href="#DejaVuSans-112"/>
      <use x="190.316406" xlink:href="#DejaVuSans-112"/>
      <use x="253.792969" xlink:href="#DejaVuSans-101"/>
      <use x="315.316406" xlink:href="#DejaVuSans-108"/>
      <use x="343.099609" xlink:href="#DejaVuSans-32"/>
      <use x="374.886719" xlink:href="#DejaVuSans-101"/>
      <use x="436.410156" xlink:href="#DejaVuSans-116"/>
      <use x="475.619141" xlink:href="#DejaVuSans-32"/>
      <use x="507.40625" xlink:href="#DejaVuSans-97"/>
      <use x="568.685547" xlink:href="#DejaVuSans-108"/>
      <use x="596.46875" xlink:href="#DejaVuSans-46"/>
      <use x="628.255859" xlink:href="#DejaVuSans-32"/>
      <use x="660.042969" xlink:href="#DejaVuSans-69"/>
      <use x="723.226562" xlink:href="#DejaVuSans-120"/>
      <use x="782.40625" xlink:href="#DejaVuSans-112"/>
      <use x="845.882812" xlink:href="#DejaVuSans-101"/>
      <use x="907.40625" xlink:href="#DejaVuSans-114"/>
      <use x="948.519531" xlink:href="#DejaVuSans-105"/>
      <use x="976.302734" xlink:href="#DejaVuSans-109"/>
      <use x="1073.714844" xlink:href="#DejaVuSans-101"/>
      <use x="1135.238281" xlink:href="#DejaVuSans-110"/>
      <use x="1198.617188" xlink:href="#DejaVuSans-116"/>
      <use x="1237.826172" xlink:href="#DejaVuSans-97"/>
      <use x="1299.105469" xlink:href="#DejaVuSans-108"/>
     </g>
    </g>
    <g id="line2d_22">
     <path d="M 211.753125 36.976563 
L 231.753125 36.976563 
" style="fill:none;stroke:#0000ff;stroke-linecap:square;stroke-width:1.5;"/>
    </g>
    <g id="line2d_23"/>
    <g id="text_18">
     <!-- MSI -->
     <defs>
      <path d="M 9.8125 72.90625 
L 24.515625 72.90625 
L 43.109375 23.296875 
L 61.8125 72.90625 
L 76.515625 72.90625 
L 76.515625 0 
L 66.890625 0 
L 66.890625 64.015625 
L 48.09375 14.015625 
L 38.1875 14.015625 
L 19.390625 64.015625 
L 19.390625 0 
L 9.8125 0 
z
" id="DejaVuSans-77"/>
      <path d="M 53.515625 70.515625 
L 53.515625 60.890625 
Q 47.90625 63.578125 42.921875 64.890625 
Q 37.9375 66.21875 33.296875 66.21875 
Q 25.25 66.21875 20.875 63.09375 
Q 16.5 59.96875 16.5 54.203125 
Q 16.5 49.359375 19.40625 46.890625 
Q 22.3125 44.4375 30.421875 42.921875 
L 36.375 41.703125 
Q 47.40625 39.59375 52.65625 34.296875 
Q 57.90625 29 57.90625 20.125 
Q 57.90625 9.515625 50.796875 4.046875 
Q 43.703125 -1.421875 29.984375 -1.421875 
Q 24.8125 -1.421875 18.96875 -0.25 
Q 13.140625 0.921875 6.890625 3.21875 
L 6.890625 13.375 
Q 12.890625 10.015625 18.65625 8.296875 
Q 24.421875 6.59375 29.984375 6.59375 
Q 38.421875 6.59375 43.015625 9.90625 
Q 47.609375 13.234375 47.609375 19.390625 
Q 47.609375 24.75 44.3125 27.78125 
Q 41.015625 30.8125 33.5 32.328125 
L 27.484375 33.5 
Q 16.453125 35.6875 11.515625 40.375 
Q 6.59375 45.0625 6.59375 53.421875 
Q 6.59375 63.09375 13.40625 68.65625 
Q 20.21875 74.21875 32.171875 74.21875 
Q 37.3125 74.21875 42.625 73.28125 
Q 47.953125 72.359375 53.515625 70.515625 
z
" id="DejaVuSans-83"/>
      <path d="M 9.8125 72.90625 
L 19.671875 72.90625 
L 19.671875 0 
L 9.8125 0 
z
" id="DejaVuSans-73"/>
     </defs>
     <g transform="translate(239.753125 40.476563)scale(0.1 -0.1)">
      <use xlink:href="#DejaVuSans-77"/>
      <use x="86.279297" xlink:href="#DejaVuSans-83"/>
      <use x="149.755859" xlink:href="#DejaVuSans-73"/>
     </g>
    </g>
    <g id="line2d_24">
     <path d="M 211.753125 51.65625 
L 231.753125 51.65625 
" style="fill:none;stroke:#ff0000;stroke-linecap:square;stroke-width:1.5;"/>
    </g>
    <g id="line2d_25"/>
    <g id="text_19">
     <!-- $\it{a}$ $\it{priori}$ model -->
     <defs>
      <path d="M 53.71875 31.203125 
L 47.609375 0 
L 38.625 0 
L 40.28125 8.296875 
Q 36.328125 3.421875 31.265625 1 
Q 26.21875 -1.421875 20.015625 -1.421875 
Q 13.03125 -1.421875 8.5625 2.84375 
Q 4.109375 7.125 4.109375 13.8125 
Q 4.109375 23.390625 11.75 28.953125 
Q 19.390625 34.515625 32.8125 34.515625 
L 45.3125 34.515625 
L 45.796875 36.921875 
Q 45.90625 37.3125 45.953125 37.765625 
Q 46 38.234375 46 39.203125 
Q 46 43.5625 42.453125 45.96875 
Q 38.921875 48.390625 32.515625 48.390625 
Q 28.125 48.390625 23.5 47.265625 
Q 18.890625 46.140625 14.015625 43.890625 
L 15.578125 52.203125 
Q 20.65625 54.109375 25.515625 55.046875 
Q 30.375 56 34.90625 56 
Q 44.578125 56 49.625 51.796875 
Q 54.6875 47.609375 54.6875 39.59375 
Q 54.6875 37.984375 54.4375 35.8125 
Q 54.203125 33.640625 53.71875 31.203125 
z
M 44 27.484375 
L 35.015625 27.484375 
Q 23.96875 27.484375 18.671875 24.53125 
Q 13.375 21.578125 13.375 15.375 
Q 13.375 11.078125 16.078125 8.640625 
Q 18.796875 6.203125 23.578125 6.203125 
Q 30.90625 6.203125 36.375 11.453125 
Q 41.84375 16.703125 43.609375 25.484375 
z
" id="DejaVuSans-Oblique-97"/>
      <path d="M 49.609375 33.6875 
Q 49.609375 40.875 46.484375 44.671875 
Q 43.359375 48.484375 37.5 48.484375 
Q 33.5 48.484375 29.859375 46.4375 
Q 26.21875 44.390625 23.390625 40.484375 
Q 20.609375 36.625 18.9375 31.15625 
Q 17.28125 25.6875 17.28125 20.3125 
Q 17.28125 13.484375 20.40625 9.796875 
Q 23.53125 6.109375 29.296875 6.109375 
Q 33.546875 6.109375 37.1875 8.109375 
Q 40.828125 10.109375 43.40625 13.921875 
Q 46.1875 17.921875 47.890625 23.34375 
Q 49.609375 28.765625 49.609375 33.6875 
z
M 21.78125 46.390625 
Q 25.390625 51.125 30.296875 53.5625 
Q 35.203125 56 41.21875 56 
Q 49.609375 56 54.25 50.5 
Q 58.890625 45.015625 58.890625 35.109375 
Q 58.890625 27 56 19.65625 
Q 53.125 12.3125 47.703125 6.5 
Q 44.09375 2.640625 39.546875 0.609375 
Q 35.015625 -1.421875 29.984375 -1.421875 
Q 24.171875 -1.421875 20.21875 1 
Q 16.265625 3.421875 14.3125 8.203125 
L 8.6875 -20.796875 
L -0.296875 -20.796875 
L 14.40625 54.6875 
L 23.390625 54.6875 
z
" id="DejaVuSans-Oblique-112"/>
      <path d="M 44.578125 46.390625 
Q 43.21875 47.125 41.453125 47.515625 
Q 39.703125 47.90625 37.703125 47.90625 
Q 30.515625 47.90625 25.140625 42.453125 
Q 19.78125 37.015625 18.015625 27.875 
L 12.5 0 
L 3.515625 0 
L 14.203125 54.6875 
L 23.1875 54.6875 
L 21.484375 46.1875 
Q 25.046875 50.921875 30 53.453125 
Q 34.96875 56 40.578125 56 
Q 42.046875 56 43.453125 55.828125 
Q 44.875 55.671875 46.296875 55.28125 
z
" id="DejaVuSans-Oblique-114"/>
      <path d="M 18.3125 75.984375 
L 27.296875 75.984375 
L 25.09375 64.59375 
L 16.109375 64.59375 
z
M 14.203125 54.6875 
L 23.1875 54.6875 
L 12.5 0 
L 3.515625 0 
z
" id="DejaVuSans-Oblique-105"/>
      <path d="M 25.390625 -1.421875 
Q 15.765625 -1.421875 10.171875 4.515625 
Q 4.59375 10.453125 4.59375 20.703125 
Q 4.59375 26.65625 6.515625 32.828125 
Q 8.453125 39.015625 11.53125 43.21875 
Q 16.359375 49.75 22.3125 52.875 
Q 28.265625 56 35.796875 56 
Q 45.125 56 50.859375 50.1875 
Q 56.59375 44.390625 56.59375 35.015625 
Q 56.59375 28.515625 54.6875 22.0625 
Q 52.78125 15.625 49.703125 11.375 
Q 44.921875 4.828125 38.96875 1.703125 
Q 33.015625 -1.421875 25.390625 -1.421875 
z
M 13.921875 21 
Q 13.921875 13.578125 17.015625 9.890625 
Q 20.125 6.203125 26.421875 6.203125 
Q 35.453125 6.203125 41.375 14.078125 
Q 47.3125 21.96875 47.3125 34.078125 
Q 47.3125 41.15625 44.140625 44.765625 
Q 40.96875 48.390625 34.8125 48.390625 
Q 29.734375 48.390625 25.78125 46.015625 
Q 21.828125 43.65625 18.703125 38.8125 
Q 16.40625 35.203125 15.15625 30.5625 
Q 13.921875 25.921875 13.921875 21 
z
" id="DejaVuSans-Oblique-111"/>
      <path d="M 45.40625 46.390625 
L 45.40625 75.984375 
L 54.390625 75.984375 
L 54.390625 0 
L 45.40625 0 
L 45.40625 8.203125 
Q 42.578125 3.328125 38.25 0.953125 
Q 33.9375 -1.421875 27.875 -1.421875 
Q 17.96875 -1.421875 11.734375 6.484375 
Q 5.515625 14.40625 5.515625 27.296875 
Q 5.515625 40.1875 11.734375 48.09375 
Q 17.96875 56 27.875 56 
Q 33.9375 56 38.25 53.625 
Q 42.578125 51.265625 45.40625 46.390625 
z
M 14.796875 27.296875 
Q 14.796875 17.390625 18.875 11.75 
Q 22.953125 6.109375 30.078125 6.109375 
Q 37.203125 6.109375 41.296875 11.75 
Q 45.40625 17.390625 45.40625 27.296875 
Q 45.40625 37.203125 41.296875 42.84375 
Q 37.203125 48.484375 30.078125 48.484375 
Q 22.953125 48.484375 18.875 42.84375 
Q 14.796875 37.203125 14.796875 27.296875 
z
" id="DejaVuSans-100"/>
     </defs>
     <g transform="translate(239.753125 55.15625)scale(0.1 -0.1)">
      <use transform="translate(0 0.015625)" xlink:href="#DejaVuSans-Oblique-97"/>
      <use transform="translate(61.279297 0.015625)" xlink:href="#DejaVuSans-32"/>
      <use transform="translate(93.066406 0.015625)" xlink:href="#DejaVuSans-Oblique-112"/>
      <use transform="translate(156.542969 0.015625)" xlink:href="#DejaVuSans-Oblique-114"/>
      <use transform="translate(197.65625 0.015625)" xlink:href="#DejaVuSans-Oblique-105"/>
      <use transform="translate(225.439453 0.015625)" xlink:href="#DejaVuSans-Oblique-111"/>
      <use transform="translate(286.621094 0.015625)" xlink:href="#DejaVuSans-Oblique-114"/>
      <use transform="translate(327.734375 0.015625)" xlink:href="#DejaVuSans-Oblique-105"/>
      <use transform="translate(355.517578 0.015625)" xlink:href="#DejaVuSans-32"/>
      <use transform="translate(387.304688 0.015625)" xlink:href="#DejaVuSans-109"/>
      <use transform="translate(484.716797 0.015625)" xlink:href="#DejaVuSans-111"/>
      <use transform="translate(545.898438 0.015625)" xlink:href="#DejaVuSans-100"/>
      <use transform="translate(609.375 0.015625)" xlink:href="#DejaVuSans-101"/>
      <use transform="translate(670.898438 0.015625)" xlink:href="#DejaVuSans-108"/>
     </g>
    </g>
   </g>
  </g>
 </g>
 <defs>
  <clipPath id="pc9a8dbf79e">
   <rect height="217.44" width="334.8" x="46.64375" y="9.2"/>
  </clipPath>
 </defs>
</svg>
