<?xml version="1.0" encoding="utf-8" standalone="no"?>
<!DOCTYPE svg PUBLIC "-//W3C//DTD SVG 1.1//EN"
  "http://www.w3.org/Graphics/SVG/1.1/DTD/svg11.dtd">
<!-- Created with matplotlib (https://matplotlib.org/) -->
<svg height="277.314375pt" version="1.1" viewBox="0 0 395.478125 277.314375" width="395.478125pt" xmlns="http://www.w3.org/2000/svg" xmlns:xlink="http://www.w3.org/1999/xlink">
 <defs>
  <style type="text/css">
*{stroke-linecap:butt;stroke-linejoin:round;}
  </style>
 </defs>
 <g id="figure_1">
  <g id="patch_1">
   <path d="M 0 277.314375 
L 395.478125 277.314375 
L 395.478125 0 
L 0 0 
z
" style="fill:#ffffff;"/>
  </g>
  <g id="axes_1">
   <g id="patch_2">
    <path d="M 49.978125 239.758125 
L 384.778125 239.758125 
L 384.778125 22.318125 
L 49.978125 22.318125 
z
" style="fill:#ffffff;"/>
   </g>
   <g id="matplotlib.axis_1">
    <g id="xtick_1">
     <g id="line2d_1">
      <defs>
       <path d="M 0 0 
L 0 3.5 
" id="mf417a2e8d9" style="stroke:#000000;stroke-width:0.8;"/>
      </defs>
      <g>
       <use style="stroke:#000000;stroke-width:0.8;" x="104.895912" xlink:href="#mf417a2e8d9" y="239.758125"/>
      </g>
     </g>
     <g id="text_1">
      <!-- 500 -->
      <defs>
       <path d="M 10.796875 72.90625 
L 49.515625 72.90625 
L 49.515625 64.59375 
L 19.828125 64.59375 
L 19.828125 46.734375 
Q 21.96875 47.46875 24.109375 47.828125 
Q 26.265625 48.1875 28.421875 48.1875 
Q 40.625 48.1875 47.75 41.5 
Q 54.890625 34.8125 54.890625 23.390625 
Q 54.890625 11.625 47.5625 5.09375 
Q 40.234375 -1.421875 26.90625 -1.421875 
Q 22.3125 -1.421875 17.546875 -0.640625 
Q 12.796875 0.140625 7.71875 1.703125 
L 7.71875 11.625 
Q 12.109375 9.234375 16.796875 8.0625 
Q 21.484375 6.890625 26.703125 6.890625 
Q 35.15625 6.890625 40.078125 11.328125 
Q 45.015625 15.765625 45.015625 23.390625 
Q 45.015625 31 40.078125 35.4375 
Q 35.15625 39.890625 26.703125 39.890625 
Q 22.75 39.890625 18.8125 39.015625 
Q 14.890625 38.140625 10.796875 36.28125 
z
" id="DejaVuSans-53"/>
       <path d="M 31.78125 66.40625 
Q 24.171875 66.40625 20.328125 58.90625 
Q 16.5 51.421875 16.5 36.375 
Q 16.5 21.390625 20.328125 13.890625 
Q 24.171875 6.390625 31.78125 6.390625 
Q 39.453125 6.390625 43.28125 13.890625 
Q 47.125 21.390625 47.125 36.375 
Q 47.125 51.421875 43.28125 58.90625 
Q 39.453125 66.40625 31.78125 66.40625 
z
M 31.78125 74.21875 
Q 44.046875 74.21875 50.515625 64.515625 
Q 56.984375 54.828125 56.984375 36.375 
Q 56.984375 17.96875 50.515625 8.265625 
Q 44.046875 -1.421875 31.78125 -1.421875 
Q 19.53125 -1.421875 13.0625 8.265625 
Q 6.59375 17.96875 6.59375 36.375 
Q 6.59375 54.828125 13.0625 64.515625 
Q 19.53125 74.21875 31.78125 74.21875 
z
" id="DejaVuSans-48"/>
      </defs>
      <g transform="translate(95.352162 254.356562)scale(0.1 -0.1)">
       <use xlink:href="#DejaVuSans-53"/>
       <use x="63.623047" xlink:href="#DejaVuSans-48"/>
       <use x="127.246094" xlink:href="#DejaVuSans-48"/>
      </g>
     </g>
    </g>
    <g id="xtick_2">
     <g id="line2d_2">
      <g>
       <use style="stroke:#000000;stroke-width:0.8;" x="171.061919" xlink:href="#mf417a2e8d9" y="239.758125"/>
      </g>
     </g>
     <g id="text_2">
      <!-- 1000 -->
      <defs>
       <path d="M 12.40625 8.296875 
L 28.515625 8.296875 
L 28.515625 63.921875 
L 10.984375 60.40625 
L 10.984375 69.390625 
L 28.421875 72.90625 
L 38.28125 72.90625 
L 38.28125 8.296875 
L 54.390625 8.296875 
L 54.390625 0 
L 12.40625 0 
z
" id="DejaVuSans-49"/>
      </defs>
      <g transform="translate(158.336919 254.356562)scale(0.1 -0.1)">
       <use xlink:href="#DejaVuSans-49"/>
       <use x="63.623047" xlink:href="#DejaVuSans-48"/>
       <use x="127.246094" xlink:href="#DejaVuSans-48"/>
       <use x="190.869141" xlink:href="#DejaVuSans-48"/>
      </g>
     </g>
    </g>
    <g id="xtick_3">
     <g id="line2d_3">
      <g>
       <use style="stroke:#000000;stroke-width:0.8;" x="237.227927" xlink:href="#mf417a2e8d9" y="239.758125"/>
      </g>
     </g>
     <g id="text_3">
      <!-- 1500 -->
      <g transform="translate(224.502927 254.356562)scale(0.1 -0.1)">
       <use xlink:href="#DejaVuSans-49"/>
       <use x="63.623047" xlink:href="#DejaVuSans-53"/>
       <use x="127.246094" xlink:href="#DejaVuSans-48"/>
       <use x="190.869141" xlink:href="#DejaVuSans-48"/>
      </g>
     </g>
    </g>
    <g id="xtick_4">
     <g id="line2d_4">
      <g>
       <use style="stroke:#000000;stroke-width:0.8;" x="303.393935" xlink:href="#mf417a2e8d9" y="239.758125"/>
      </g>
     </g>
     <g id="text_4">
      <!-- 2000 -->
      <defs>
       <path d="M 19.1875 8.296875 
L 53.609375 8.296875 
L 53.609375 0 
L 7.328125 0 
L 7.328125 8.296875 
Q 12.9375 14.109375 22.625 23.890625 
Q 32.328125 33.6875 34.8125 36.53125 
Q 39.546875 41.84375 41.421875 45.53125 
Q 43.3125 49.21875 43.3125 52.78125 
Q 43.3125 58.59375 39.234375 62.25 
Q 35.15625 65.921875 28.609375 65.921875 
Q 23.96875 65.921875 18.8125 64.3125 
Q 13.671875 62.703125 7.8125 59.421875 
L 7.8125 69.390625 
Q 13.765625 71.78125 18.9375 73 
Q 24.125 74.21875 28.421875 74.21875 
Q 39.75 74.21875 46.484375 68.546875 
Q 53.21875 62.890625 53.21875 53.421875 
Q 53.21875 48.921875 51.53125 44.890625 
Q 49.859375 40.875 45.40625 35.40625 
Q 44.1875 33.984375 37.640625 27.21875 
Q 31.109375 20.453125 19.1875 8.296875 
z
" id="DejaVuSans-50"/>
      </defs>
      <g transform="translate(290.668935 254.356562)scale(0.1 -0.1)">
       <use xlink:href="#DejaVuSans-50"/>
       <use x="63.623047" xlink:href="#DejaVuSans-48"/>
       <use x="127.246094" xlink:href="#DejaVuSans-48"/>
       <use x="190.869141" xlink:href="#DejaVuSans-48"/>
      </g>
     </g>
    </g>
    <g id="xtick_5">
     <g id="line2d_5">
      <g>
       <use style="stroke:#000000;stroke-width:0.8;" x="369.559943" xlink:href="#mf417a2e8d9" y="239.758125"/>
      </g>
     </g>
     <g id="text_5">
      <!-- 2500 -->
      <g transform="translate(356.834943 254.356562)scale(0.1 -0.1)">
       <use xlink:href="#DejaVuSans-50"/>
       <use x="63.623047" xlink:href="#DejaVuSans-53"/>
       <use x="127.246094" xlink:href="#DejaVuSans-48"/>
       <use x="190.869141" xlink:href="#DejaVuSans-48"/>
      </g>
     </g>
    </g>
    <g id="text_6">
     <!-- Temperature (K) -->
     <defs>
      <path d="M -0.296875 72.90625 
L 61.375 72.90625 
L 61.375 64.59375 
L 35.5 64.59375 
L 35.5 0 
L 25.59375 0 
L 25.59375 64.59375 
L -0.296875 64.59375 
z
" id="DejaVuSans-84"/>
      <path d="M 56.203125 29.59375 
L 56.203125 25.203125 
L 14.890625 25.203125 
Q 15.484375 15.921875 20.484375 11.0625 
Q 25.484375 6.203125 34.421875 6.203125 
Q 39.59375 6.203125 44.453125 7.46875 
Q 49.3125 8.734375 54.109375 11.28125 
L 54.109375 2.78125 
Q 49.265625 0.734375 44.1875 -0.34375 
Q 39.109375 -1.421875 33.890625 -1.421875 
Q 20.796875 -1.421875 13.15625 6.1875 
Q 5.515625 13.8125 5.515625 26.8125 
Q 5.515625 40.234375 12.765625 48.109375 
Q 20.015625 56 32.328125 56 
Q 43.359375 56 49.78125 48.890625 
Q 56.203125 41.796875 56.203125 29.59375 
z
M 47.21875 32.234375 
Q 47.125 39.59375 43.09375 43.984375 
Q 39.0625 48.390625 32.421875 48.390625 
Q 24.90625 48.390625 20.390625 44.140625 
Q 15.875 39.890625 15.1875 32.171875 
z
" id="DejaVuSans-101"/>
      <path d="M 52 44.1875 
Q 55.375 50.25 60.0625 53.125 
Q 64.75 56 71.09375 56 
Q 79.640625 56 84.28125 50.015625 
Q 88.921875 44.046875 88.921875 33.015625 
L 88.921875 0 
L 79.890625 0 
L 79.890625 32.71875 
Q 79.890625 40.578125 77.09375 44.375 
Q 74.3125 48.1875 68.609375 48.1875 
Q 61.625 48.1875 57.5625 43.546875 
Q 53.515625 38.921875 53.515625 30.90625 
L 53.515625 0 
L 44.484375 0 
L 44.484375 32.71875 
Q 44.484375 40.625 41.703125 44.40625 
Q 38.921875 48.1875 33.109375 48.1875 
Q 26.21875 48.1875 22.15625 43.53125 
Q 18.109375 38.875 18.109375 30.90625 
L 18.109375 0 
L 9.078125 0 
L 9.078125 54.6875 
L 18.109375 54.6875 
L 18.109375 46.1875 
Q 21.1875 51.21875 25.484375 53.609375 
Q 29.78125 56 35.6875 56 
Q 41.65625 56 45.828125 52.96875 
Q 50 49.953125 52 44.1875 
z
" id="DejaVuSans-109"/>
      <path d="M 18.109375 8.203125 
L 18.109375 -20.796875 
L 9.078125 -20.796875 
L 9.078125 54.6875 
L 18.109375 54.6875 
L 18.109375 46.390625 
Q 20.953125 51.265625 25.265625 53.625 
Q 29.59375 56 35.59375 56 
Q 45.5625 56 51.78125 48.09375 
Q 58.015625 40.1875 58.015625 27.296875 
Q 58.015625 14.40625 51.78125 6.484375 
Q 45.5625 -1.421875 35.59375 -1.421875 
Q 29.59375 -1.421875 25.265625 0.953125 
Q 20.953125 3.328125 18.109375 8.203125 
z
M 48.6875 27.296875 
Q 48.6875 37.203125 44.609375 42.84375 
Q 40.53125 48.484375 33.40625 48.484375 
Q 26.265625 48.484375 22.1875 42.84375 
Q 18.109375 37.203125 18.109375 27.296875 
Q 18.109375 17.390625 22.1875 11.75 
Q 26.265625 6.109375 33.40625 6.109375 
Q 40.53125 6.109375 44.609375 11.75 
Q 48.6875 17.390625 48.6875 27.296875 
z
" id="DejaVuSans-112"/>
      <path d="M 41.109375 46.296875 
Q 39.59375 47.171875 37.8125 47.578125 
Q 36.03125 48 33.890625 48 
Q 26.265625 48 22.1875 43.046875 
Q 18.109375 38.09375 18.109375 28.8125 
L 18.109375 0 
L 9.078125 0 
L 9.078125 54.6875 
L 18.109375 54.6875 
L 18.109375 46.1875 
Q 20.953125 51.171875 25.484375 53.578125 
Q 30.03125 56 36.53125 56 
Q 37.453125 56 38.578125 55.875 
Q 39.703125 55.765625 41.0625 55.515625 
z
" id="DejaVuSans-114"/>
      <path d="M 34.28125 27.484375 
Q 23.390625 27.484375 19.1875 25 
Q 14.984375 22.515625 14.984375 16.5 
Q 14.984375 11.71875 18.140625 8.90625 
Q 21.296875 6.109375 26.703125 6.109375 
Q 34.1875 6.109375 38.703125 11.40625 
Q 43.21875 16.703125 43.21875 25.484375 
L 43.21875 27.484375 
z
M 52.203125 31.203125 
L 52.203125 0 
L 43.21875 0 
L 43.21875 8.296875 
Q 40.140625 3.328125 35.546875 0.953125 
Q 30.953125 -1.421875 24.3125 -1.421875 
Q 15.921875 -1.421875 10.953125 3.296875 
Q 6 8.015625 6 15.921875 
Q 6 25.140625 12.171875 29.828125 
Q 18.359375 34.515625 30.609375 34.515625 
L 43.21875 34.515625 
L 43.21875 35.40625 
Q 43.21875 41.609375 39.140625 45 
Q 35.0625 48.390625 27.6875 48.390625 
Q 23 48.390625 18.546875 47.265625 
Q 14.109375 46.140625 10.015625 43.890625 
L 10.015625 52.203125 
Q 14.9375 54.109375 19.578125 55.046875 
Q 24.21875 56 28.609375 56 
Q 40.484375 56 46.34375 49.84375 
Q 52.203125 43.703125 52.203125 31.203125 
z
" id="DejaVuSans-97"/>
      <path d="M 18.3125 70.21875 
L 18.3125 54.6875 
L 36.8125 54.6875 
L 36.8125 47.703125 
L 18.3125 47.703125 
L 18.3125 18.015625 
Q 18.3125 11.328125 20.140625 9.421875 
Q 21.96875 7.515625 27.59375 7.515625 
L 36.8125 7.515625 
L 36.8125 0 
L 27.59375 0 
Q 17.1875 0 13.234375 3.875 
Q 9.28125 7.765625 9.28125 18.015625 
L 9.28125 47.703125 
L 2.6875 47.703125 
L 2.6875 54.6875 
L 9.28125 54.6875 
L 9.28125 70.21875 
z
" id="DejaVuSans-116"/>
      <path d="M 8.5 21.578125 
L 8.5 54.6875 
L 17.484375 54.6875 
L 17.484375 21.921875 
Q 17.484375 14.15625 20.5 10.265625 
Q 23.53125 6.390625 29.59375 6.390625 
Q 36.859375 6.390625 41.078125 11.03125 
Q 45.3125 15.671875 45.3125 23.6875 
L 45.3125 54.6875 
L 54.296875 54.6875 
L 54.296875 0 
L 45.3125 0 
L 45.3125 8.40625 
Q 42.046875 3.421875 37.71875 1 
Q 33.40625 -1.421875 27.6875 -1.421875 
Q 18.265625 -1.421875 13.375 4.4375 
Q 8.5 10.296875 8.5 21.578125 
z
M 31.109375 56 
z
" id="DejaVuSans-117"/>
      <path id="DejaVuSans-32"/>
      <path d="M 31 75.875 
Q 24.46875 64.65625 21.28125 53.65625 
Q 18.109375 42.671875 18.109375 31.390625 
Q 18.109375 20.125 21.3125 9.0625 
Q 24.515625 -2 31 -13.1875 
L 23.1875 -13.1875 
Q 15.875 -1.703125 12.234375 9.375 
Q 8.59375 20.453125 8.59375 31.390625 
Q 8.59375 42.28125 12.203125 53.3125 
Q 15.828125 64.359375 23.1875 75.875 
z
" id="DejaVuSans-40"/>
      <path d="M 9.8125 72.90625 
L 19.671875 72.90625 
L 19.671875 42.09375 
L 52.390625 72.90625 
L 65.09375 72.90625 
L 28.90625 38.921875 
L 67.671875 0 
L 54.6875 0 
L 19.671875 35.109375 
L 19.671875 0 
L 9.8125 0 
z
" id="DejaVuSans-75"/>
      <path d="M 8.015625 75.875 
L 15.828125 75.875 
Q 23.140625 64.359375 26.78125 53.3125 
Q 30.421875 42.28125 30.421875 31.390625 
Q 30.421875 20.453125 26.78125 9.375 
Q 23.140625 -1.703125 15.828125 -13.1875 
L 8.015625 -13.1875 
Q 14.5 -2 17.703125 9.0625 
Q 20.90625 20.125 20.90625 31.390625 
Q 20.90625 42.671875 17.703125 53.65625 
Q 14.5 64.65625 8.015625 75.875 
z
" id="DejaVuSans-41"/>
     </defs>
     <g transform="translate(175.991406 268.034687)scale(0.1 -0.1)">
      <use xlink:href="#DejaVuSans-84"/>
      <use x="60.818359" xlink:href="#DejaVuSans-101"/>
      <use x="122.341797" xlink:href="#DejaVuSans-109"/>
      <use x="219.753906" xlink:href="#DejaVuSans-112"/>
      <use x="283.230469" xlink:href="#DejaVuSans-101"/>
      <use x="344.753906" xlink:href="#DejaVuSans-114"/>
      <use x="385.867188" xlink:href="#DejaVuSans-97"/>
      <use x="447.146484" xlink:href="#DejaVuSans-116"/>
      <use x="486.355469" xlink:href="#DejaVuSans-117"/>
      <use x="549.734375" xlink:href="#DejaVuSans-114"/>
      <use x="590.816406" xlink:href="#DejaVuSans-101"/>
      <use x="652.339844" xlink:href="#DejaVuSans-32"/>
      <use x="684.126953" xlink:href="#DejaVuSans-40"/>
      <use x="723.140625" xlink:href="#DejaVuSans-75"/>
      <use x="788.716797" xlink:href="#DejaVuSans-41"/>
     </g>
    </g>
   </g>
   <g id="matplotlib.axis_2">
    <g id="ytick_1">
     <g id="line2d_6">
      <defs>
       <path d="M 0 0 
L -3.5 0 
" id="m06430b51a0" style="stroke:#000000;stroke-width:0.8;"/>
      </defs>
      <g>
       <use style="stroke:#000000;stroke-width:0.8;" x="49.978125" xlink:href="#m06430b51a0" y="133.845258"/>
      </g>
     </g>
     <g id="text_7">
      <!-- $\mathdefault{10^{12}}$ -->
      <g transform="translate(20.878125 137.644476)scale(0.1 -0.1)">
       <use transform="translate(0 0.765625)" xlink:href="#DejaVuSans-49"/>
       <use transform="translate(63.623047 0.765625)" xlink:href="#DejaVuSans-48"/>
       <use transform="translate(128.203125 39.046875)scale(0.7)" xlink:href="#DejaVuSans-49"/>
       <use transform="translate(172.739258 39.046875)scale(0.7)" xlink:href="#DejaVuSans-50"/>
      </g>
     </g>
    </g>
    <g id="ytick_2">
     <g id="line2d_7">
      <defs>
       <path d="M 0 0 
L -2 0 
" id="m0e36e2d4b0" style="stroke:#000000;stroke-width:0.6;"/>
      </defs>
      <g>
       <use style="stroke:#000000;stroke-width:0.6;" x="49.978125" xlink:href="#m0e36e2d4b0" y="223.81988"/>
      </g>
     </g>
    </g>
    <g id="ytick_3">
     <g id="line2d_8">
      <g>
       <use style="stroke:#000000;stroke-width:0.6;" x="49.978125" xlink:href="#m0e36e2d4b0" y="201.152606"/>
      </g>
     </g>
    </g>
    <g id="ytick_4">
     <g id="line2d_9">
      <g>
       <use style="stroke:#000000;stroke-width:0.6;" x="49.978125" xlink:href="#m0e36e2d4b0" y="185.069919"/>
      </g>
     </g>
    </g>
    <g id="ytick_5">
     <g id="line2d_10">
      <g>
       <use style="stroke:#000000;stroke-width:0.6;" x="49.978125" xlink:href="#m0e36e2d4b0" y="172.595218"/>
      </g>
     </g>
    </g>
    <g id="ytick_6">
     <g id="line2d_11">
      <g>
       <use style="stroke:#000000;stroke-width:0.6;" x="49.978125" xlink:href="#m0e36e2d4b0" y="162.402646"/>
      </g>
     </g>
    </g>
    <g id="ytick_7">
     <g id="line2d_12">
      <g>
       <use style="stroke:#000000;stroke-width:0.6;" x="49.978125" xlink:href="#m0e36e2d4b0" y="153.784948"/>
      </g>
     </g>
    </g>
    <g id="ytick_8">
     <g id="line2d_13">
      <g>
       <use style="stroke:#000000;stroke-width:0.6;" x="49.978125" xlink:href="#m0e36e2d4b0" y="146.319959"/>
      </g>
     </g>
    </g>
    <g id="ytick_9">
     <g id="line2d_14">
      <g>
       <use style="stroke:#000000;stroke-width:0.6;" x="49.978125" xlink:href="#m0e36e2d4b0" y="139.735372"/>
      </g>
     </g>
    </g>
    <g id="ytick_10">
     <g id="line2d_15">
      <g>
       <use style="stroke:#000000;stroke-width:0.6;" x="49.978125" xlink:href="#m0e36e2d4b0" y="95.095297"/>
      </g>
     </g>
    </g>
    <g id="ytick_11">
     <g id="line2d_16">
      <g>
       <use style="stroke:#000000;stroke-width:0.6;" x="49.978125" xlink:href="#m0e36e2d4b0" y="72.428023"/>
      </g>
     </g>
    </g>
    <g id="ytick_12">
     <g id="line2d_17">
      <g>
       <use style="stroke:#000000;stroke-width:0.6;" x="49.978125" xlink:href="#m0e36e2d4b0" y="56.345336"/>
      </g>
     </g>
    </g>
    <g id="ytick_13">
     <g id="line2d_18">
      <g>
       <use style="stroke:#000000;stroke-width:0.6;" x="49.978125" xlink:href="#m0e36e2d4b0" y="43.870635"/>
      </g>
     </g>
    </g>
    <g id="ytick_14">
     <g id="line2d_19">
      <g>
       <use style="stroke:#000000;stroke-width:0.6;" x="49.978125" xlink:href="#m0e36e2d4b0" y="33.678062"/>
      </g>
     </g>
    </g>
    <g id="ytick_15">
     <g id="line2d_20">
      <g>
       <use style="stroke:#000000;stroke-width:0.6;" x="49.978125" xlink:href="#m0e36e2d4b0" y="25.060365"/>
      </g>
     </g>
    </g>
    <g id="text_8">
     <!-- Kmol/m^3-s -->
     <defs>
      <path d="M 30.609375 48.390625 
Q 23.390625 48.390625 19.1875 42.75 
Q 14.984375 37.109375 14.984375 27.296875 
Q 14.984375 17.484375 19.15625 11.84375 
Q 23.34375 6.203125 30.609375 6.203125 
Q 37.796875 6.203125 41.984375 11.859375 
Q 46.1875 17.53125 46.1875 27.296875 
Q 46.1875 37.015625 41.984375 42.703125 
Q 37.796875 48.390625 30.609375 48.390625 
z
M 30.609375 56 
Q 42.328125 56 49.015625 48.375 
Q 55.71875 40.765625 55.71875 27.296875 
Q 55.71875 13.875 49.015625 6.21875 
Q 42.328125 -1.421875 30.609375 -1.421875 
Q 18.84375 -1.421875 12.171875 6.21875 
Q 5.515625 13.875 5.515625 27.296875 
Q 5.515625 40.765625 12.171875 48.375 
Q 18.84375 56 30.609375 56 
z
" id="DejaVuSans-111"/>
      <path d="M 9.421875 75.984375 
L 18.40625 75.984375 
L 18.40625 0 
L 9.421875 0 
z
" id="DejaVuSans-108"/>
      <path d="M 25.390625 72.90625 
L 33.6875 72.90625 
L 8.296875 -9.28125 
L 0 -9.28125 
z
" id="DejaVuSans-47"/>
      <path d="M 46.6875 72.90625 
L 73.1875 45.703125 
L 63.375 45.703125 
L 41.890625 64.984375 
L 20.40625 45.703125 
L 10.59375 45.703125 
L 37.109375 72.90625 
z
" id="DejaVuSans-94"/>
      <path d="M 40.578125 39.3125 
Q 47.65625 37.796875 51.625 33 
Q 55.609375 28.21875 55.609375 21.1875 
Q 55.609375 10.40625 48.1875 4.484375 
Q 40.765625 -1.421875 27.09375 -1.421875 
Q 22.515625 -1.421875 17.65625 -0.515625 
Q 12.796875 0.390625 7.625 2.203125 
L 7.625 11.71875 
Q 11.71875 9.328125 16.59375 8.109375 
Q 21.484375 6.890625 26.8125 6.890625 
Q 36.078125 6.890625 40.9375 10.546875 
Q 45.796875 14.203125 45.796875 21.1875 
Q 45.796875 27.640625 41.28125 31.265625 
Q 36.765625 34.90625 28.71875 34.90625 
L 20.21875 34.90625 
L 20.21875 43.015625 
L 29.109375 43.015625 
Q 36.375 43.015625 40.234375 45.921875 
Q 44.09375 48.828125 44.09375 54.296875 
Q 44.09375 59.90625 40.109375 62.90625 
Q 36.140625 65.921875 28.71875 65.921875 
Q 24.65625 65.921875 20.015625 65.03125 
Q 15.375 64.15625 9.8125 62.3125 
L 9.8125 71.09375 
Q 15.4375 72.65625 20.34375 73.4375 
Q 25.25 74.21875 29.59375 74.21875 
Q 40.828125 74.21875 47.359375 69.109375 
Q 53.90625 64.015625 53.90625 55.328125 
Q 53.90625 49.265625 50.4375 45.09375 
Q 46.96875 40.921875 40.578125 39.3125 
z
" id="DejaVuSans-51"/>
      <path d="M 4.890625 31.390625 
L 31.203125 31.390625 
L 31.203125 23.390625 
L 4.890625 23.390625 
z
" id="DejaVuSans-45"/>
      <path d="M 44.28125 53.078125 
L 44.28125 44.578125 
Q 40.484375 46.53125 36.375 47.5 
Q 32.28125 48.484375 27.875 48.484375 
Q 21.1875 48.484375 17.84375 46.4375 
Q 14.5 44.390625 14.5 40.28125 
Q 14.5 37.15625 16.890625 35.375 
Q 19.28125 33.59375 26.515625 31.984375 
L 29.59375 31.296875 
Q 39.15625 29.25 43.1875 25.515625 
Q 47.21875 21.78125 47.21875 15.09375 
Q 47.21875 7.46875 41.1875 3.015625 
Q 35.15625 -1.421875 24.609375 -1.421875 
Q 20.21875 -1.421875 15.453125 -0.5625 
Q 10.6875 0.296875 5.421875 2 
L 5.421875 11.28125 
Q 10.40625 8.6875 15.234375 7.390625 
Q 20.0625 6.109375 24.8125 6.109375 
Q 31.15625 6.109375 34.5625 8.28125 
Q 37.984375 10.453125 37.984375 14.40625 
Q 37.984375 18.0625 35.515625 20.015625 
Q 33.0625 21.96875 24.703125 23.78125 
L 21.578125 24.515625 
Q 13.234375 26.265625 9.515625 29.90625 
Q 5.8125 33.546875 5.8125 39.890625 
Q 5.8125 47.609375 11.28125 51.796875 
Q 16.75 56 26.8125 56 
Q 31.78125 56 36.171875 55.265625 
Q 40.578125 54.546875 44.28125 53.078125 
z
" id="DejaVuSans-115"/>
     </defs>
     <g transform="translate(14.798438 161.970156)rotate(-90)scale(0.1 -0.1)">
      <use xlink:href="#DejaVuSans-75"/>
      <use x="65.576172" xlink:href="#DejaVuSans-109"/>
      <use x="162.988281" xlink:href="#DejaVuSans-111"/>
      <use x="224.169922" xlink:href="#DejaVuSans-108"/>
      <use x="251.953125" xlink:href="#DejaVuSans-47"/>
      <use x="285.644531" xlink:href="#DejaVuSans-109"/>
      <use x="383.056641" xlink:href="#DejaVuSans-94"/>
      <use x="466.845703" xlink:href="#DejaVuSans-51"/>
      <use x="530.46875" xlink:href="#DejaVuSans-45"/>
      <use x="566.552734" xlink:href="#DejaVuSans-115"/>
     </g>
    </g>
   </g>
   <g id="line2d_21">
    <path clip-path="url(#pbd10fd16f1)" d="M 71.812908 97.172568 
L 73.533224 107.188735 
L 75.25354 115.939407 
L 76.973856 123.622459 
L 78.826504 130.868051 
L 80.679153 137.193172 
L 82.531801 142.729179 
L 84.384449 147.589093 
L 86.237097 151.866776 
L 88.222078 155.890292 
L 90.207058 159.408584 
L 92.192038 162.483411 
L 94.177018 165.166454 
L 96.294331 167.646328 
L 98.411643 169.777394 
L 100.528955 171.600235 
L 102.778599 173.238772 
L 105.028244 174.606007 
L 107.41022 175.793015 
L 109.924528 176.789732 
L 112.571168 177.588931 
L 115.350141 178.18572 
L 118.261445 178.577146 
L 121.305082 178.761927 
L 124.613382 178.735032 
L 128.186346 178.473919 
L 132.023975 177.961377 
L 136.126267 177.185457 
L 140.625556 176.104334 
L 145.52184 174.698268 
L 151.079785 172.862963 
L 157.29939 170.565164 
L 164.312987 167.729805 
L 172.38524 164.22029 
L 181.913145 159.827245 
L 193.558362 154.201591 
L 208.908876 146.521224 
L 239.609904 130.841216 
L 263.958995 118.538169 
L 282.220813 109.556883 
L 298.762315 101.666052 
L 314.509825 94.399659 
L 329.728006 87.621196 
L 344.681524 81.201967 
L 359.635042 75.024887 
L 369.427611 71.110692 
L 369.427611 71.110692 
" style="fill:none;stroke:#0000ff;stroke-linecap:square;stroke-width:1.5;"/>
   </g>
   <g id="line2d_22">
    <path clip-path="url(#pbd10fd16f1)" d="M 65.196307 32.201761 
L 71.812908 88.113622 
L 78.164844 119.335229 
L 78.164844 119.335229 
L 78.429508 120.339613 
L 80.679153 128.13527 
L 82.399469 133.299631 
L 84.384449 138.531458 
L 85.046109 140.121772 
L 86.104765 142.521287 
L 89.01607 148.297132 
L 91.66271 152.646486 
L 92.589034 153.992626 
L 94.044686 155.94168 
L 94.97101 157.082959 
L 98.279311 160.596589 
L 98.940971 161.203517 
L 104.895912 165.475628 
L 106.219232 166.174133 
L 111.512512 168.241207 
L 115.085477 169.082029 
L 118.129113 169.507457 
L 121.17275 169.701643 
L 124.745714 169.672863 
L 128.318678 169.403487 
L 131.362315 169.008857 
L 134.405951 168.480714 
L 137.978916 167.710723 
L 141.55188 166.798923 
L 142.822609 166.444023 
L 143.862949 166.142391 
L 144.595516 165.924242 
L 144.924379 165.824805 
L 145.504811 165.647076 
L 145.504811 165.647076 
L 148.06602 164.830339 
L 149.933278 164.203568 
L 150.02381 164.172546 
L 150.02381 164.172546 
L 151.212117 163.760141 
L 154.843518 162.443344 
L 154.843518 162.443344 
L 157.67137 161.364353 
L 157.828718 161.30305 
L 159.563293 160.618907 
L 160.099457 160.404435 
L 161.847892 159.695672 
L 163.533398 158.999498 
L 164.445319 158.617834 
L 164.974647 158.394743 
L 165.735922 158.07195 
L 166.686569 157.665728 
L 166.694963 157.662126 
L 166.827295 157.605305 
L 167.046881 157.510875 
L 168.385186 156.931579 
L 168.385186 156.931579 
L 168.385186 156.931579 
L 168.508271 156.877982 
L 169.751701 156.333606 
L 170.0032 156.222867 
L 170.891431 155.830107 
L 171.061919 155.754429 
L 171.79163 155.429487 
L 171.92127 155.371585 
L 172.704176 155.020821 
L 173.0469 154.866693 
L 173.762573 154.543734 
L 174.237888 154.328426 
L 174.702448 154.117374 
L 174.837825 154.055759 
L 175.381899 153.807624 
L 176.068174 153.493497 
L 176.622148 153.239022 
L 177.67852 152.751584 
L 177.743613 152.721457 
L 178.168843 152.52439 
L 178.596683 152.32567 
L 179.6635 151.828267 
L 180.776028 151.306764 
L 181.516149 150.958309 
L 182.569051 150.460578 
L 183.482566 150.026885 
L 184.162789 149.702867 
L 184.295121 149.639727 
L 186.934116 148.373749 
L 188.230357 147.747403 
L 188.529746 147.602339 
L 189.323738 147.216918 
L 190.911722 146.44312 
L 196.734331 143.575718 
L 197.528323 143.181446 
L 199.910299 141.994533 
L 202.821603 140.536276 
L 204.144923 139.870962 
L 210.761524 136.525316 
L 217.378125 133.15614 
L 223.994726 129.773463 
L 230.611327 126.386006 
L 237.227927 123.001401 
L 243.844528 119.626349 
L 250.461129 116.266739 
L 257.07773 112.927745 
L 263.694331 109.613899 
L 270.310931 106.329159 
L 276.927532 103.076964 
L 283.544133 99.860281 
L 290.160734 96.681651 
L 296.777334 93.543231 
L 303.393935 90.446826 
L 303.393935 90.446826 
L 310.010536 87.393928 
L 316.627137 84.385746 
L 323.243738 81.423232 
L 329.860338 78.507113 
L 336.476939 75.63791 
L 343.09354 72.815964 
L 349.710141 70.041453 
L 356.326742 67.314414 
L 362.943342 64.63476 
L 369.559943 62.002292 
L 369.559943 62.002292 
" style="fill:none;stroke:#0000ff;stroke-dasharray:5.55,2.4;stroke-dashoffset:0;stroke-width:1.5;"/>
   </g>
   <g id="line2d_23">
    <path clip-path="url(#pbd10fd16f1)" d="M 71.812908 167.206566 
L 73.400892 176.00696 
L 74.988876 183.662158 
L 76.709192 190.845925 
L 78.429508 197.044093 
L 80.149825 202.398598 
L 81.870141 207.024053 
L 83.590457 211.014371 
L 85.310773 214.44844 
L 87.031089 217.393868 
L 88.751406 219.909192 
L 90.471722 222.045222 
L 92.192038 223.846013 
L 94.044686 225.454033 
L 95.897334 226.758392 
L 97.749983 227.794225 
L 99.734963 228.640325 
L 101.719943 229.244837 
L 103.837255 229.654402 
L 106.0869 229.855098 
L 108.468876 229.836846 
L 110.983184 229.593214 
L 113.762157 229.092291 
L 116.805793 228.305154 
L 120.114093 227.211128 
L 123.81939 225.741122 
L 127.921682 223.867878 
L 132.553303 221.505884 
L 137.978916 218.481962 
L 144.463184 214.600399 
L 152.403105 209.576664 
L 163.254331 202.428332 
L 212.48184 169.678292 
L 226.376702 160.868221 
L 239.874568 152.572651 
L 253.240101 144.619778 
L 266.605635 136.925125 
L 280.1035 129.410178 
L 293.86603 122.003939 
L 307.760892 114.77874 
L 321.920417 107.665871 
L 336.344607 100.668277 
L 351.033461 93.788349 
L 366.119311 86.969284 
L 369.427611 85.506181 
L 369.427611 85.506181 
" style="fill:none;stroke:#ff0000;stroke-linecap:square;stroke-width:1.5;"/>
   </g>
   <g id="line2d_24">
    <defs>
     <path d="M 0 3 
C 0.795609 3 1.55874 2.683901 2.12132 2.12132 
C 2.683901 1.55874 3 0.795609 3 0 
C 3 -0.795609 2.683901 -1.55874 2.12132 -2.12132 
C 1.55874 -2.683901 0.795609 -3 0 -3 
C -0.795609 -3 -1.55874 -2.683901 -2.12132 -2.12132 
C -2.683901 -1.55874 -3 -0.795609 -3 0 
C -3 0.795609 -2.683901 1.55874 -2.12132 2.12132 
C -1.55874 2.683901 -0.795609 3 0 3 
z
" id="m1a0995bfd1" style="stroke:#000000;"/>
    </defs>
    <g clip-path="url(#pbd10fd16f1)">
     <use style="stroke:#000000;" x="78.164844" xlink:href="#m1a0995bfd1" y="89.767041"/>
     <use style="stroke:#000000;" x="80.679153" xlink:href="#m1a0995bfd1" y="97.377425"/>
     <use style="stroke:#000000;" x="82.399469" xlink:href="#m1a0995bfd1" y="95.657155"/>
     <use style="stroke:#000000;" x="84.384449" xlink:href="#m1a0995bfd1" y="113.073229"/>
     <use style="stroke:#000000;" x="86.104765" xlink:href="#m1a0995bfd1" y="106.189573"/>
     <use style="stroke:#000000;" x="89.01607" xlink:href="#m1a0995bfd1" y="126.520204"/>
     <use style="stroke:#000000;" x="92.589034" xlink:href="#m1a0995bfd1" y="126.031953"/>
     <use style="stroke:#000000;" x="94.97101" xlink:href="#m1a0995bfd1" y="128.011076"/>
     <use style="stroke:#000000;" x="98.940971" xlink:href="#m1a0995bfd1" y="122.728624"/>
     <use style="stroke:#000000;" x="106.219232" xlink:href="#m1a0995bfd1" y="157.927908"/>
     <use style="stroke:#000000;" x="78.164844" xlink:href="#m1a0995bfd1" y="95.095297"/>
     <use style="stroke:#000000;" x="94.044686" xlink:href="#m1a0995bfd1" y="139.735372"/>
     <use style="stroke:#000000;" x="115.085477" xlink:href="#m1a0995bfd1" y="169.65507"/>
     <use style="stroke:#000000;" x="121.17275" xlink:href="#m1a0995bfd1" y="173.724638"/>
     <use style="stroke:#000000;" x="128.318678" xlink:href="#m1a0995bfd1" y="173.157076"/>
     <use style="stroke:#000000;" x="134.405951" xlink:href="#m1a0995bfd1" y="177.622403"/>
     <use style="stroke:#000000;" x="141.55188" xlink:href="#m1a0995bfd1" y="168.086089"/>
     <use style="stroke:#000000;" x="142.822609" xlink:href="#m1a0995bfd1" y="178.859276"/>
     <use style="stroke:#000000;" x="143.862949" xlink:href="#m1a0995bfd1" y="166.060346"/>
     <use style="stroke:#000000;" x="145.504811" xlink:href="#m1a0995bfd1" y="164.684774"/>
     <use style="stroke:#000000;" x="145.504811" xlink:href="#m1a0995bfd1" y="149.779065"/>
     <use style="stroke:#000000;" x="144.924379" xlink:href="#m1a0995bfd1" y="150.67835"/>
     <use style="stroke:#000000;" x="148.06602" xlink:href="#m1a0995bfd1" y="164.879224"/>
     <use style="stroke:#000000;" x="150.02381" xlink:href="#m1a0995bfd1" y="165.172173"/>
     <use style="stroke:#000000;" x="150.02381" xlink:href="#m1a0995bfd1" y="162.964503"/>
     <use style="stroke:#000000;" x="149.933278" xlink:href="#m1a0995bfd1" y="145.076052"/>
     <use style="stroke:#000000;" x="154.843518" xlink:href="#m1a0995bfd1" y="148.967238"/>
     <use style="stroke:#000000;" x="154.843518" xlink:href="#m1a0995bfd1" y="143.658968"/>
     <use style="stroke:#000000;" x="160.099457" xlink:href="#m1a0995bfd1" y="156.568464"/>
     <use style="stroke:#000000;" x="159.563293" xlink:href="#m1a0995bfd1" y="136.127386"/>
     <use style="stroke:#000000;" x="157.67137" xlink:href="#m1a0995bfd1" y="125.068061"/>
     <use style="stroke:#000000;" x="161.847892" xlink:href="#m1a0995bfd1" y="134.407115"/>
     <use style="stroke:#000000;" x="163.533398" xlink:href="#m1a0995bfd1" y="157.074389"/>
     <use style="stroke:#000000;" x="168.385186" xlink:href="#m1a0995bfd1" y="137.782182"/>
     <use style="stroke:#000000;" x="168.385186" xlink:href="#m1a0995bfd1" y="120.925101"/>
     <use style="stroke:#000000;" x="168.508271" xlink:href="#m1a0995bfd1" y="120.044699"/>
     <use style="stroke:#000000;" x="169.751701" xlink:href="#m1a0995bfd1" y="120.044699"/>
     <use style="stroke:#000000;" x="167.046881" xlink:href="#m1a0995bfd1" y="116.24596"/>
     <use style="stroke:#000000;" x="176.068174" xlink:href="#m1a0995bfd1" y="120.044699"/>
     <use style="stroke:#000000;" x="176.622148" xlink:href="#m1a0995bfd1" y="98.85256"/>
     <use style="stroke:#000000;" x="174.702448" xlink:href="#m1a0995bfd1" y="95.940215"/>
     <use style="stroke:#000000;" x="180.776028" xlink:href="#m1a0995bfd1" y="111.928389"/>
     <use style="stroke:#000000;" x="182.569051" xlink:href="#m1a0995bfd1" y="78.525575"/>
     <use style="stroke:#000000;" x="165.735922" xlink:href="#m1a0995bfd1" y="134.407115"/>
     <use style="stroke:#000000;" x="166.686569" xlink:href="#m1a0995bfd1" y="127.012757"/>
     <use style="stroke:#000000;" x="168.385186" xlink:href="#m1a0995bfd1" y="136.948661"/>
     <use style="stroke:#000000;" x="170.891431" xlink:href="#m1a0995bfd1" y="134.407115"/>
     <use style="stroke:#000000;" x="170.0032" xlink:href="#m1a0995bfd1" y="129.027547"/>
     <use style="stroke:#000000;" x="174.837825" xlink:href="#m1a0995bfd1" y="119.177947"/>
     <use style="stroke:#000000;" x="175.381899" xlink:href="#m1a0995bfd1" y="111.177984"/>
     <use style="stroke:#000000;" x="177.743613" xlink:href="#m1a0995bfd1" y="119.177947"/>
     <use style="stroke:#000000;" x="171.92127" xlink:href="#m1a0995bfd1" y="107.569998"/>
     <use style="stroke:#000000;" x="172.704176" xlink:href="#m1a0995bfd1" y="100.985411"/>
     <use style="stroke:#000000;" x="171.79163" xlink:href="#m1a0995bfd1" y="100.985411"/>
     <use style="stroke:#000000;" x="173.762573" xlink:href="#m1a0995bfd1" y="95.095297"/>
     <use style="stroke:#000000;" x="178.596683" xlink:href="#m1a0995bfd1" y="101.296857"/>
     <use style="stroke:#000000;" x="178.168843" xlink:href="#m1a0995bfd1" y="95.37552"/>
     <use style="stroke:#000000;" x="183.482566" xlink:href="#m1a0995bfd1" y="82.620596"/>
     <use style="stroke:#000000;" x="186.934116" xlink:href="#m1a0995bfd1" y="82.397424"/>
     <use style="stroke:#000000;" x="188.230357" xlink:href="#m1a0995bfd1" y="72.056564"/>
     <use style="stroke:#000000;" x="164.974647" xlink:href="#m1a0995bfd1" y="150.67835"/>
     <use style="stroke:#000000;" x="166.694963" xlink:href="#m1a0995bfd1" y="147.735335"/>
     <use style="stroke:#000000;" x="166.827295" xlink:href="#m1a0995bfd1" y="147.735335"/>
     <use style="stroke:#000000;" x="173.0469" xlink:href="#m1a0995bfd1" y="137.304364"/>
     <use style="stroke:#000000;" x="174.237888" xlink:href="#m1a0995bfd1" y="144.261897"/>
     <use style="stroke:#000000;" x="179.6635" xlink:href="#m1a0995bfd1" y="135.548061"/>
     <use style="stroke:#000000;" x="181.516149" xlink:href="#m1a0995bfd1" y="137.902277"/>
     <use style="stroke:#000000;" x="184.162789" xlink:href="#m1a0995bfd1" y="139.117637"/>
     <use style="stroke:#000000;" x="188.529746" xlink:href="#m1a0995bfd1" y="126.520204"/>
     <use style="stroke:#000000;" x="189.323738" xlink:href="#m1a0995bfd1" y="131.117674"/>
     <use style="stroke:#000000;" x="196.734331" xlink:href="#m1a0995bfd1" y="134.974677"/>
     <use style="stroke:#000000;" x="199.910299" xlink:href="#m1a0995bfd1" y="109.344889"/>
     <use style="stroke:#000000;" x="202.821603" xlink:href="#m1a0995bfd1" y="111.177984"/>
     <use style="stroke:#000000;" x="303.393935" xlink:href="#m1a0995bfd1" y="111.177984"/>
     <use style="stroke:#000000;" x="369.559943" xlink:href="#m1a0995bfd1" y="111.177984"/>
     <use style="stroke:#000000;" x="65.196307" xlink:href="#m1a0995bfd1" y="117.068098"/>
     <use style="stroke:#000000;" x="71.812908" xlink:href="#m1a0995bfd1" y="117.068098"/>
     <use style="stroke:#000000;" x="78.429508" xlink:href="#m1a0995bfd1" y="117.068098"/>
     <use style="stroke:#000000;" x="85.046109" xlink:href="#m1a0995bfd1" y="117.068098"/>
     <use style="stroke:#000000;" x="91.66271" xlink:href="#m1a0995bfd1" y="117.068098"/>
     <use style="stroke:#000000;" x="98.279311" xlink:href="#m1a0995bfd1" y="117.068098"/>
     <use style="stroke:#000000;" x="104.895912" xlink:href="#m1a0995bfd1" y="117.068098"/>
     <use style="stroke:#000000;" x="111.512512" xlink:href="#m1a0995bfd1" y="117.068098"/>
     <use style="stroke:#000000;" x="118.129113" xlink:href="#m1a0995bfd1" y="117.068098"/>
     <use style="stroke:#000000;" x="124.745714" xlink:href="#m1a0995bfd1" y="117.068098"/>
     <use style="stroke:#000000;" x="131.362315" xlink:href="#m1a0995bfd1" y="117.068098"/>
     <use style="stroke:#000000;" x="137.978916" xlink:href="#m1a0995bfd1" y="117.068098"/>
     <use style="stroke:#000000;" x="144.595516" xlink:href="#m1a0995bfd1" y="117.068098"/>
     <use style="stroke:#000000;" x="151.212117" xlink:href="#m1a0995bfd1" y="117.068098"/>
     <use style="stroke:#000000;" x="157.828718" xlink:href="#m1a0995bfd1" y="117.068098"/>
     <use style="stroke:#000000;" x="164.445319" xlink:href="#m1a0995bfd1" y="117.068098"/>
     <use style="stroke:#000000;" x="171.061919" xlink:href="#m1a0995bfd1" y="117.068098"/>
     <use style="stroke:#000000;" x="177.67852" xlink:href="#m1a0995bfd1" y="117.068098"/>
     <use style="stroke:#000000;" x="184.295121" xlink:href="#m1a0995bfd1" y="117.068098"/>
     <use style="stroke:#000000;" x="190.911722" xlink:href="#m1a0995bfd1" y="117.068098"/>
     <use style="stroke:#000000;" x="197.528323" xlink:href="#m1a0995bfd1" y="117.068098"/>
     <use style="stroke:#000000;" x="204.144923" xlink:href="#m1a0995bfd1" y="117.068098"/>
     <use style="stroke:#000000;" x="210.761524" xlink:href="#m1a0995bfd1" y="117.068098"/>
     <use style="stroke:#000000;" x="217.378125" xlink:href="#m1a0995bfd1" y="117.068098"/>
     <use style="stroke:#000000;" x="223.994726" xlink:href="#m1a0995bfd1" y="117.068098"/>
     <use style="stroke:#000000;" x="230.611327" xlink:href="#m1a0995bfd1" y="117.068098"/>
     <use style="stroke:#000000;" x="237.227927" xlink:href="#m1a0995bfd1" y="117.068098"/>
     <use style="stroke:#000000;" x="243.844528" xlink:href="#m1a0995bfd1" y="117.068098"/>
     <use style="stroke:#000000;" x="250.461129" xlink:href="#m1a0995bfd1" y="117.068098"/>
     <use style="stroke:#000000;" x="257.07773" xlink:href="#m1a0995bfd1" y="117.068098"/>
     <use style="stroke:#000000;" x="263.694331" xlink:href="#m1a0995bfd1" y="117.068098"/>
     <use style="stroke:#000000;" x="270.310931" xlink:href="#m1a0995bfd1" y="117.068098"/>
     <use style="stroke:#000000;" x="276.927532" xlink:href="#m1a0995bfd1" y="117.068098"/>
     <use style="stroke:#000000;" x="283.544133" xlink:href="#m1a0995bfd1" y="117.068098"/>
     <use style="stroke:#000000;" x="290.160734" xlink:href="#m1a0995bfd1" y="117.068098"/>
     <use style="stroke:#000000;" x="296.777334" xlink:href="#m1a0995bfd1" y="117.068098"/>
     <use style="stroke:#000000;" x="303.393935" xlink:href="#m1a0995bfd1" y="117.068098"/>
     <use style="stroke:#000000;" x="310.010536" xlink:href="#m1a0995bfd1" y="117.068098"/>
     <use style="stroke:#000000;" x="316.627137" xlink:href="#m1a0995bfd1" y="117.068098"/>
     <use style="stroke:#000000;" x="323.243738" xlink:href="#m1a0995bfd1" y="117.068098"/>
     <use style="stroke:#000000;" x="329.860338" xlink:href="#m1a0995bfd1" y="117.068098"/>
     <use style="stroke:#000000;" x="336.476939" xlink:href="#m1a0995bfd1" y="117.068098"/>
     <use style="stroke:#000000;" x="343.09354" xlink:href="#m1a0995bfd1" y="117.068098"/>
     <use style="stroke:#000000;" x="349.710141" xlink:href="#m1a0995bfd1" y="117.068098"/>
     <use style="stroke:#000000;" x="356.326742" xlink:href="#m1a0995bfd1" y="117.068098"/>
     <use style="stroke:#000000;" x="362.943342" xlink:href="#m1a0995bfd1" y="117.068098"/>
     <use style="stroke:#000000;" x="369.559943" xlink:href="#m1a0995bfd1" y="117.068098"/>
    </g>
   </g>
   <g id="patch_3">
    <path d="M 49.978125 239.758125 
L 49.978125 22.318125 
" style="fill:none;stroke:#000000;stroke-linecap:square;stroke-linejoin:miter;stroke-width:0.8;"/>
   </g>
   <g id="patch_4">
    <path d="M 384.778125 239.758125 
L 384.778125 22.318125 
" style="fill:none;stroke:#000000;stroke-linecap:square;stroke-linejoin:miter;stroke-width:0.8;"/>
   </g>
   <g id="patch_5">
    <path d="M 49.978125 239.758125 
L 384.778125 239.758125 
" style="fill:none;stroke:#000000;stroke-linecap:square;stroke-linejoin:miter;stroke-width:0.8;"/>
   </g>
   <g id="patch_6">
    <path d="M 49.978125 22.318125 
L 384.778125 22.318125 
" style="fill:none;stroke:#000000;stroke-linecap:square;stroke-linejoin:miter;stroke-width:0.8;"/>
   </g>
   <g id="text_9">
    <!-- 2 HO2 &lt;=&gt; H2O2 + O2 -->
    <defs>
     <path d="M 9.8125 72.90625 
L 19.671875 72.90625 
L 19.671875 43.015625 
L 55.515625 43.015625 
L 55.515625 72.90625 
L 65.375 72.90625 
L 65.375 0 
L 55.515625 0 
L 55.515625 34.71875 
L 19.671875 34.71875 
L 19.671875 0 
L 9.8125 0 
z
" id="DejaVuSans-72"/>
     <path d="M 39.40625 66.21875 
Q 28.65625 66.21875 22.328125 58.203125 
Q 16.015625 50.203125 16.015625 36.375 
Q 16.015625 22.609375 22.328125 14.59375 
Q 28.65625 6.59375 39.40625 6.59375 
Q 50.140625 6.59375 56.421875 14.59375 
Q 62.703125 22.609375 62.703125 36.375 
Q 62.703125 50.203125 56.421875 58.203125 
Q 50.140625 66.21875 39.40625 66.21875 
z
M 39.40625 74.21875 
Q 54.734375 74.21875 63.90625 63.9375 
Q 73.09375 53.65625 73.09375 36.375 
Q 73.09375 19.140625 63.90625 8.859375 
Q 54.734375 -1.421875 39.40625 -1.421875 
Q 24.03125 -1.421875 14.8125 8.828125 
Q 5.609375 19.09375 5.609375 36.375 
Q 5.609375 53.65625 14.8125 63.9375 
Q 24.03125 74.21875 39.40625 74.21875 
z
" id="DejaVuSans-79"/>
     <path d="M 73.1875 49.21875 
L 22.796875 31.296875 
L 73.1875 13.484375 
L 73.1875 4.59375 
L 10.59375 27.296875 
L 10.59375 35.40625 
L 73.1875 58.109375 
z
" id="DejaVuSans-60"/>
     <path d="M 10.59375 45.40625 
L 73.1875 45.40625 
L 73.1875 37.203125 
L 10.59375 37.203125 
z
M 10.59375 25.484375 
L 73.1875 25.484375 
L 73.1875 17.1875 
L 10.59375 17.1875 
z
" id="DejaVuSans-61"/>
     <path d="M 10.59375 49.21875 
L 10.59375 58.109375 
L 73.1875 35.40625 
L 73.1875 27.296875 
L 10.59375 4.59375 
L 10.59375 13.484375 
L 60.890625 31.296875 
z
" id="DejaVuSans-62"/>
     <path d="M 46 62.703125 
L 46 35.5 
L 73.1875 35.5 
L 73.1875 27.203125 
L 46 27.203125 
L 46 0 
L 37.796875 0 
L 37.796875 27.203125 
L 10.59375 27.203125 
L 10.59375 35.5 
L 37.796875 35.5 
L 37.796875 62.703125 
z
" id="DejaVuSans-43"/>
    </defs>
    <g transform="translate(145.45125 16.318125)scale(0.12 -0.12)">
     <use xlink:href="#DejaVuSans-50"/>
     <use x="63.623047" xlink:href="#DejaVuSans-32"/>
     <use x="95.410156" xlink:href="#DejaVuSans-72"/>
     <use x="170.605469" xlink:href="#DejaVuSans-79"/>
     <use x="249.316406" xlink:href="#DejaVuSans-50"/>
     <use x="312.939453" xlink:href="#DejaVuSans-32"/>
     <use x="344.726562" xlink:href="#DejaVuSans-60"/>
     <use x="428.515625" xlink:href="#DejaVuSans-61"/>
     <use x="512.304688" xlink:href="#DejaVuSans-62"/>
     <use x="596.09375" xlink:href="#DejaVuSans-32"/>
     <use x="627.880859" xlink:href="#DejaVuSans-72"/>
     <use x="703.076172" xlink:href="#DejaVuSans-50"/>
     <use x="766.699219" xlink:href="#DejaVuSans-79"/>
     <use x="845.410156" xlink:href="#DejaVuSans-50"/>
     <use x="909.033203" xlink:href="#DejaVuSans-32"/>
     <use x="940.820312" xlink:href="#DejaVuSans-43"/>
     <use x="1024.609375" xlink:href="#DejaVuSans-32"/>
     <use x="1056.396484" xlink:href="#DejaVuSans-79"/>
     <use x="1135.107422" xlink:href="#DejaVuSans-50"/>
    </g>
   </g>
  </g>
 </g>
 <defs>
  <clipPath id="pbd10fd16f1">
   <rect height="217.44" width="334.8" x="49.978125" y="22.318125"/>
  </clipPath>
 </defs>
</svg>
