<?xml version="1.0" encoding="utf-8" standalone="no"?>
<!DOCTYPE svg PUBLIC "-//W3C//DTD SVG 1.1//EN"
  "http://www.w3.org/Graphics/SVG/1.1/DTD/svg11.dtd">
<!-- Created with matplotlib (https://matplotlib.org/) -->
<svg height="277.314375pt" version="1.1" viewBox="0 0 395.478125 277.314375" width="395.478125pt" xmlns="http://www.w3.org/2000/svg" xmlns:xlink="http://www.w3.org/1999/xlink">
 <defs>
  <style type="text/css">
*{stroke-linecap:butt;stroke-linejoin:round;}
  </style>
 </defs>
 <g id="figure_1">
  <g id="patch_1">
   <path d="M 0 277.314375 
L 395.478125 277.314375 
L 395.478125 0 
L 0 0 
z
" style="fill:#ffffff;"/>
  </g>
  <g id="axes_1">
   <g id="patch_2">
    <path d="M 49.978125 239.758125 
L 384.778125 239.758125 
L 384.778125 22.318125 
L 49.978125 22.318125 
z
" style="fill:#ffffff;"/>
   </g>
   <g id="matplotlib.axis_1">
    <g id="xtick_1">
     <g id="line2d_1">
      <defs>
       <path d="M 0 0 
L 0 3.5 
" id="mfa4917dc1e" style="stroke:#000000;stroke-width:0.8;"/>
      </defs>
      <g>
       <use style="stroke:#000000;stroke-width:0.8;" x="105.47002" xlink:href="#mfa4917dc1e" y="239.758125"/>
      </g>
     </g>
     <g id="text_1">
      <!-- 500 -->
      <defs>
       <path d="M 10.796875 72.90625 
L 49.515625 72.90625 
L 49.515625 64.59375 
L 19.828125 64.59375 
L 19.828125 46.734375 
Q 21.96875 47.46875 24.109375 47.828125 
Q 26.265625 48.1875 28.421875 48.1875 
Q 40.625 48.1875 47.75 41.5 
Q 54.890625 34.8125 54.890625 23.390625 
Q 54.890625 11.625 47.5625 5.09375 
Q 40.234375 -1.421875 26.90625 -1.421875 
Q 22.3125 -1.421875 17.546875 -0.640625 
Q 12.796875 0.140625 7.71875 1.703125 
L 7.71875 11.625 
Q 12.109375 9.234375 16.796875 8.0625 
Q 21.484375 6.890625 26.703125 6.890625 
Q 35.15625 6.890625 40.078125 11.328125 
Q 45.015625 15.765625 45.015625 23.390625 
Q 45.015625 31 40.078125 35.4375 
Q 35.15625 39.890625 26.703125 39.890625 
Q 22.75 39.890625 18.8125 39.015625 
Q 14.890625 38.140625 10.796875 36.28125 
z
" id="DejaVuSans-53"/>
       <path d="M 31.78125 66.40625 
Q 24.171875 66.40625 20.328125 58.90625 
Q 16.5 51.421875 16.5 36.375 
Q 16.5 21.390625 20.328125 13.890625 
Q 24.171875 6.390625 31.78125 6.390625 
Q 39.453125 6.390625 43.28125 13.890625 
Q 47.125 21.390625 47.125 36.375 
Q 47.125 51.421875 43.28125 58.90625 
Q 39.453125 66.40625 31.78125 66.40625 
z
M 31.78125 74.21875 
Q 44.046875 74.21875 50.515625 64.515625 
Q 56.984375 54.828125 56.984375 36.375 
Q 56.984375 17.96875 50.515625 8.265625 
Q 44.046875 -1.421875 31.78125 -1.421875 
Q 19.53125 -1.421875 13.0625 8.265625 
Q 6.59375 17.96875 6.59375 36.375 
Q 6.59375 54.828125 13.0625 64.515625 
Q 19.53125 74.21875 31.78125 74.21875 
z
" id="DejaVuSans-48"/>
      </defs>
      <g transform="translate(95.92627 254.356562)scale(0.1 -0.1)">
       <use xlink:href="#DejaVuSans-53"/>
       <use x="63.623047" xlink:href="#DejaVuSans-48"/>
       <use x="127.246094" xlink:href="#DejaVuSans-48"/>
      </g>
     </g>
    </g>
    <g id="xtick_2">
     <g id="line2d_2">
      <g>
       <use style="stroke:#000000;stroke-width:0.8;" x="171.492501" xlink:href="#mfa4917dc1e" y="239.758125"/>
      </g>
     </g>
     <g id="text_2">
      <!-- 1000 -->
      <defs>
       <path d="M 12.40625 8.296875 
L 28.515625 8.296875 
L 28.515625 63.921875 
L 10.984375 60.40625 
L 10.984375 69.390625 
L 28.421875 72.90625 
L 38.28125 72.90625 
L 38.28125 8.296875 
L 54.390625 8.296875 
L 54.390625 0 
L 12.40625 0 
z
" id="DejaVuSans-49"/>
      </defs>
      <g transform="translate(158.767501 254.356562)scale(0.1 -0.1)">
       <use xlink:href="#DejaVuSans-49"/>
       <use x="63.623047" xlink:href="#DejaVuSans-48"/>
       <use x="127.246094" xlink:href="#DejaVuSans-48"/>
       <use x="190.869141" xlink:href="#DejaVuSans-48"/>
      </g>
     </g>
    </g>
    <g id="xtick_3">
     <g id="line2d_3">
      <g>
       <use style="stroke:#000000;stroke-width:0.8;" x="237.514982" xlink:href="#mfa4917dc1e" y="239.758125"/>
      </g>
     </g>
     <g id="text_3">
      <!-- 1500 -->
      <g transform="translate(224.789982 254.356562)scale(0.1 -0.1)">
       <use xlink:href="#DejaVuSans-49"/>
       <use x="63.623047" xlink:href="#DejaVuSans-53"/>
       <use x="127.246094" xlink:href="#DejaVuSans-48"/>
       <use x="190.869141" xlink:href="#DejaVuSans-48"/>
      </g>
     </g>
    </g>
    <g id="xtick_4">
     <g id="line2d_4">
      <g>
       <use style="stroke:#000000;stroke-width:0.8;" x="303.537462" xlink:href="#mfa4917dc1e" y="239.758125"/>
      </g>
     </g>
     <g id="text_4">
      <!-- 2000 -->
      <defs>
       <path d="M 19.1875 8.296875 
L 53.609375 8.296875 
L 53.609375 0 
L 7.328125 0 
L 7.328125 8.296875 
Q 12.9375 14.109375 22.625 23.890625 
Q 32.328125 33.6875 34.8125 36.53125 
Q 39.546875 41.84375 41.421875 45.53125 
Q 43.3125 49.21875 43.3125 52.78125 
Q 43.3125 58.59375 39.234375 62.25 
Q 35.15625 65.921875 28.609375 65.921875 
Q 23.96875 65.921875 18.8125 64.3125 
Q 13.671875 62.703125 7.8125 59.421875 
L 7.8125 69.390625 
Q 13.765625 71.78125 18.9375 73 
Q 24.125 74.21875 28.421875 74.21875 
Q 39.75 74.21875 46.484375 68.546875 
Q 53.21875 62.890625 53.21875 53.421875 
Q 53.21875 48.921875 51.53125 44.890625 
Q 49.859375 40.875 45.40625 35.40625 
Q 44.1875 33.984375 37.640625 27.21875 
Q 31.109375 20.453125 19.1875 8.296875 
z
" id="DejaVuSans-50"/>
      </defs>
      <g transform="translate(290.812462 254.356562)scale(0.1 -0.1)">
       <use xlink:href="#DejaVuSans-50"/>
       <use x="63.623047" xlink:href="#DejaVuSans-48"/>
       <use x="127.246094" xlink:href="#DejaVuSans-48"/>
       <use x="190.869141" xlink:href="#DejaVuSans-48"/>
      </g>
     </g>
    </g>
    <g id="xtick_5">
     <g id="line2d_5">
      <g>
       <use style="stroke:#000000;stroke-width:0.8;" x="369.559943" xlink:href="#mfa4917dc1e" y="239.758125"/>
      </g>
     </g>
     <g id="text_5">
      <!-- 2500 -->
      <g transform="translate(356.834943 254.356562)scale(0.1 -0.1)">
       <use xlink:href="#DejaVuSans-50"/>
       <use x="63.623047" xlink:href="#DejaVuSans-53"/>
       <use x="127.246094" xlink:href="#DejaVuSans-48"/>
       <use x="190.869141" xlink:href="#DejaVuSans-48"/>
      </g>
     </g>
    </g>
    <g id="text_6">
     <!-- Temperature (K) -->
     <defs>
      <path d="M -0.296875 72.90625 
L 61.375 72.90625 
L 61.375 64.59375 
L 35.5 64.59375 
L 35.5 0 
L 25.59375 0 
L 25.59375 64.59375 
L -0.296875 64.59375 
z
" id="DejaVuSans-84"/>
      <path d="M 56.203125 29.59375 
L 56.203125 25.203125 
L 14.890625 25.203125 
Q 15.484375 15.921875 20.484375 11.0625 
Q 25.484375 6.203125 34.421875 6.203125 
Q 39.59375 6.203125 44.453125 7.46875 
Q 49.3125 8.734375 54.109375 11.28125 
L 54.109375 2.78125 
Q 49.265625 0.734375 44.1875 -0.34375 
Q 39.109375 -1.421875 33.890625 -1.421875 
Q 20.796875 -1.421875 13.15625 6.1875 
Q 5.515625 13.8125 5.515625 26.8125 
Q 5.515625 40.234375 12.765625 48.109375 
Q 20.015625 56 32.328125 56 
Q 43.359375 56 49.78125 48.890625 
Q 56.203125 41.796875 56.203125 29.59375 
z
M 47.21875 32.234375 
Q 47.125 39.59375 43.09375 43.984375 
Q 39.0625 48.390625 32.421875 48.390625 
Q 24.90625 48.390625 20.390625 44.140625 
Q 15.875 39.890625 15.1875 32.171875 
z
" id="DejaVuSans-101"/>
      <path d="M 52 44.1875 
Q 55.375 50.25 60.0625 53.125 
Q 64.75 56 71.09375 56 
Q 79.640625 56 84.28125 50.015625 
Q 88.921875 44.046875 88.921875 33.015625 
L 88.921875 0 
L 79.890625 0 
L 79.890625 32.71875 
Q 79.890625 40.578125 77.09375 44.375 
Q 74.3125 48.1875 68.609375 48.1875 
Q 61.625 48.1875 57.5625 43.546875 
Q 53.515625 38.921875 53.515625 30.90625 
L 53.515625 0 
L 44.484375 0 
L 44.484375 32.71875 
Q 44.484375 40.625 41.703125 44.40625 
Q 38.921875 48.1875 33.109375 48.1875 
Q 26.21875 48.1875 22.15625 43.53125 
Q 18.109375 38.875 18.109375 30.90625 
L 18.109375 0 
L 9.078125 0 
L 9.078125 54.6875 
L 18.109375 54.6875 
L 18.109375 46.1875 
Q 21.1875 51.21875 25.484375 53.609375 
Q 29.78125 56 35.6875 56 
Q 41.65625 56 45.828125 52.96875 
Q 50 49.953125 52 44.1875 
z
" id="DejaVuSans-109"/>
      <path d="M 18.109375 8.203125 
L 18.109375 -20.796875 
L 9.078125 -20.796875 
L 9.078125 54.6875 
L 18.109375 54.6875 
L 18.109375 46.390625 
Q 20.953125 51.265625 25.265625 53.625 
Q 29.59375 56 35.59375 56 
Q 45.5625 56 51.78125 48.09375 
Q 58.015625 40.1875 58.015625 27.296875 
Q 58.015625 14.40625 51.78125 6.484375 
Q 45.5625 -1.421875 35.59375 -1.421875 
Q 29.59375 -1.421875 25.265625 0.953125 
Q 20.953125 3.328125 18.109375 8.203125 
z
M 48.6875 27.296875 
Q 48.6875 37.203125 44.609375 42.84375 
Q 40.53125 48.484375 33.40625 48.484375 
Q 26.265625 48.484375 22.1875 42.84375 
Q 18.109375 37.203125 18.109375 27.296875 
Q 18.109375 17.390625 22.1875 11.75 
Q 26.265625 6.109375 33.40625 6.109375 
Q 40.53125 6.109375 44.609375 11.75 
Q 48.6875 17.390625 48.6875 27.296875 
z
" id="DejaVuSans-112"/>
      <path d="M 41.109375 46.296875 
Q 39.59375 47.171875 37.8125 47.578125 
Q 36.03125 48 33.890625 48 
Q 26.265625 48 22.1875 43.046875 
Q 18.109375 38.09375 18.109375 28.8125 
L 18.109375 0 
L 9.078125 0 
L 9.078125 54.6875 
L 18.109375 54.6875 
L 18.109375 46.1875 
Q 20.953125 51.171875 25.484375 53.578125 
Q 30.03125 56 36.53125 56 
Q 37.453125 56 38.578125 55.875 
Q 39.703125 55.765625 41.0625 55.515625 
z
" id="DejaVuSans-114"/>
      <path d="M 34.28125 27.484375 
Q 23.390625 27.484375 19.1875 25 
Q 14.984375 22.515625 14.984375 16.5 
Q 14.984375 11.71875 18.140625 8.90625 
Q 21.296875 6.109375 26.703125 6.109375 
Q 34.1875 6.109375 38.703125 11.40625 
Q 43.21875 16.703125 43.21875 25.484375 
L 43.21875 27.484375 
z
M 52.203125 31.203125 
L 52.203125 0 
L 43.21875 0 
L 43.21875 8.296875 
Q 40.140625 3.328125 35.546875 0.953125 
Q 30.953125 -1.421875 24.3125 -1.421875 
Q 15.921875 -1.421875 10.953125 3.296875 
Q 6 8.015625 6 15.921875 
Q 6 25.140625 12.171875 29.828125 
Q 18.359375 34.515625 30.609375 34.515625 
L 43.21875 34.515625 
L 43.21875 35.40625 
Q 43.21875 41.609375 39.140625 45 
Q 35.0625 48.390625 27.6875 48.390625 
Q 23 48.390625 18.546875 47.265625 
Q 14.109375 46.140625 10.015625 43.890625 
L 10.015625 52.203125 
Q 14.9375 54.109375 19.578125 55.046875 
Q 24.21875 56 28.609375 56 
Q 40.484375 56 46.34375 49.84375 
Q 52.203125 43.703125 52.203125 31.203125 
z
" id="DejaVuSans-97"/>
      <path d="M 18.3125 70.21875 
L 18.3125 54.6875 
L 36.8125 54.6875 
L 36.8125 47.703125 
L 18.3125 47.703125 
L 18.3125 18.015625 
Q 18.3125 11.328125 20.140625 9.421875 
Q 21.96875 7.515625 27.59375 7.515625 
L 36.8125 7.515625 
L 36.8125 0 
L 27.59375 0 
Q 17.1875 0 13.234375 3.875 
Q 9.28125 7.765625 9.28125 18.015625 
L 9.28125 47.703125 
L 2.6875 47.703125 
L 2.6875 54.6875 
L 9.28125 54.6875 
L 9.28125 70.21875 
z
" id="DejaVuSans-116"/>
      <path d="M 8.5 21.578125 
L 8.5 54.6875 
L 17.484375 54.6875 
L 17.484375 21.921875 
Q 17.484375 14.15625 20.5 10.265625 
Q 23.53125 6.390625 29.59375 6.390625 
Q 36.859375 6.390625 41.078125 11.03125 
Q 45.3125 15.671875 45.3125 23.6875 
L 45.3125 54.6875 
L 54.296875 54.6875 
L 54.296875 0 
L 45.3125 0 
L 45.3125 8.40625 
Q 42.046875 3.421875 37.71875 1 
Q 33.40625 -1.421875 27.6875 -1.421875 
Q 18.265625 -1.421875 13.375 4.4375 
Q 8.5 10.296875 8.5 21.578125 
z
M 31.109375 56 
z
" id="DejaVuSans-117"/>
      <path id="DejaVuSans-32"/>
      <path d="M 31 75.875 
Q 24.46875 64.65625 21.28125 53.65625 
Q 18.109375 42.671875 18.109375 31.390625 
Q 18.109375 20.125 21.3125 9.0625 
Q 24.515625 -2 31 -13.1875 
L 23.1875 -13.1875 
Q 15.875 -1.703125 12.234375 9.375 
Q 8.59375 20.453125 8.59375 31.390625 
Q 8.59375 42.28125 12.203125 53.3125 
Q 15.828125 64.359375 23.1875 75.875 
z
" id="DejaVuSans-40"/>
      <path d="M 9.8125 72.90625 
L 19.671875 72.90625 
L 19.671875 42.09375 
L 52.390625 72.90625 
L 65.09375 72.90625 
L 28.90625 38.921875 
L 67.671875 0 
L 54.6875 0 
L 19.671875 35.109375 
L 19.671875 0 
L 9.8125 0 
z
" id="DejaVuSans-75"/>
      <path d="M 8.015625 75.875 
L 15.828125 75.875 
Q 23.140625 64.359375 26.78125 53.3125 
Q 30.421875 42.28125 30.421875 31.390625 
Q 30.421875 20.453125 26.78125 9.375 
Q 23.140625 -1.703125 15.828125 -13.1875 
L 8.015625 -13.1875 
Q 14.5 -2 17.703125 9.0625 
Q 20.90625 20.125 20.90625 31.390625 
Q 20.90625 42.671875 17.703125 53.65625 
Q 14.5 64.65625 8.015625 75.875 
z
" id="DejaVuSans-41"/>
     </defs>
     <g transform="translate(175.991406 268.034687)scale(0.1 -0.1)">
      <use xlink:href="#DejaVuSans-84"/>
      <use x="60.818359" xlink:href="#DejaVuSans-101"/>
      <use x="122.341797" xlink:href="#DejaVuSans-109"/>
      <use x="219.753906" xlink:href="#DejaVuSans-112"/>
      <use x="283.230469" xlink:href="#DejaVuSans-101"/>
      <use x="344.753906" xlink:href="#DejaVuSans-114"/>
      <use x="385.867188" xlink:href="#DejaVuSans-97"/>
      <use x="447.146484" xlink:href="#DejaVuSans-116"/>
      <use x="486.355469" xlink:href="#DejaVuSans-117"/>
      <use x="549.734375" xlink:href="#DejaVuSans-114"/>
      <use x="590.816406" xlink:href="#DejaVuSans-101"/>
      <use x="652.339844" xlink:href="#DejaVuSans-32"/>
      <use x="684.126953" xlink:href="#DejaVuSans-40"/>
      <use x="723.140625" xlink:href="#DejaVuSans-75"/>
      <use x="788.716797" xlink:href="#DejaVuSans-41"/>
     </g>
    </g>
   </g>
   <g id="matplotlib.axis_2">
    <g id="ytick_1">
     <g id="line2d_6">
      <defs>
       <path d="M 0 0 
L -3.5 0 
" id="m248fde172d" style="stroke:#000000;stroke-width:0.8;"/>
      </defs>
      <g>
       <use style="stroke:#000000;stroke-width:0.8;" x="49.978125" xlink:href="#m248fde172d" y="239.651313"/>
      </g>
     </g>
     <g id="text_7">
      <!-- $\mathdefault{10^{8}}$ -->
      <defs>
       <path d="M 31.78125 34.625 
Q 24.75 34.625 20.71875 30.859375 
Q 16.703125 27.09375 16.703125 20.515625 
Q 16.703125 13.921875 20.71875 10.15625 
Q 24.75 6.390625 31.78125 6.390625 
Q 38.8125 6.390625 42.859375 10.171875 
Q 46.921875 13.96875 46.921875 20.515625 
Q 46.921875 27.09375 42.890625 30.859375 
Q 38.875 34.625 31.78125 34.625 
z
M 21.921875 38.8125 
Q 15.578125 40.375 12.03125 44.71875 
Q 8.5 49.078125 8.5 55.328125 
Q 8.5 64.0625 14.71875 69.140625 
Q 20.953125 74.21875 31.78125 74.21875 
Q 42.671875 74.21875 48.875 69.140625 
Q 55.078125 64.0625 55.078125 55.328125 
Q 55.078125 49.078125 51.53125 44.71875 
Q 48 40.375 41.703125 38.8125 
Q 48.828125 37.15625 52.796875 32.3125 
Q 56.78125 27.484375 56.78125 20.515625 
Q 56.78125 9.90625 50.3125 4.234375 
Q 43.84375 -1.421875 31.78125 -1.421875 
Q 19.734375 -1.421875 13.25 4.234375 
Q 6.78125 9.90625 6.78125 20.515625 
Q 6.78125 27.484375 10.78125 32.3125 
Q 14.796875 37.15625 21.921875 38.8125 
z
M 18.3125 54.390625 
Q 18.3125 48.734375 21.84375 45.5625 
Q 25.390625 42.390625 31.78125 42.390625 
Q 38.140625 42.390625 41.71875 45.5625 
Q 45.3125 48.734375 45.3125 54.390625 
Q 45.3125 60.0625 41.71875 63.234375 
Q 38.140625 66.40625 31.78125 66.40625 
Q 25.390625 66.40625 21.84375 63.234375 
Q 18.3125 60.0625 18.3125 54.390625 
z
" id="DejaVuSans-56"/>
      </defs>
      <g transform="translate(25.378125 243.450532)scale(0.1 -0.1)">
       <use transform="translate(0 0.765625)" xlink:href="#DejaVuSans-49"/>
       <use transform="translate(63.623047 0.765625)" xlink:href="#DejaVuSans-48"/>
       <use transform="translate(128.203125 39.046875)scale(0.7)" xlink:href="#DejaVuSans-56"/>
      </g>
     </g>
    </g>
    <g id="ytick_2">
     <g id="line2d_7">
      <g>
       <use style="stroke:#000000;stroke-width:0.8;" x="49.978125" xlink:href="#m248fde172d" y="210.557366"/>
      </g>
     </g>
     <g id="text_8">
      <!-- $\mathdefault{10^{9}}$ -->
      <defs>
       <path d="M 10.984375 1.515625 
L 10.984375 10.5 
Q 14.703125 8.734375 18.5 7.8125 
Q 22.3125 6.890625 25.984375 6.890625 
Q 35.75 6.890625 40.890625 13.453125 
Q 46.046875 20.015625 46.78125 33.40625 
Q 43.953125 29.203125 39.59375 26.953125 
Q 35.25 24.703125 29.984375 24.703125 
Q 19.046875 24.703125 12.671875 31.3125 
Q 6.296875 37.9375 6.296875 49.421875 
Q 6.296875 60.640625 12.9375 67.421875 
Q 19.578125 74.21875 30.609375 74.21875 
Q 43.265625 74.21875 49.921875 64.515625 
Q 56.59375 54.828125 56.59375 36.375 
Q 56.59375 19.140625 48.40625 8.859375 
Q 40.234375 -1.421875 26.421875 -1.421875 
Q 22.703125 -1.421875 18.890625 -0.6875 
Q 15.09375 0.046875 10.984375 1.515625 
z
M 30.609375 32.421875 
Q 37.25 32.421875 41.125 36.953125 
Q 45.015625 41.5 45.015625 49.421875 
Q 45.015625 57.28125 41.125 61.84375 
Q 37.25 66.40625 30.609375 66.40625 
Q 23.96875 66.40625 20.09375 61.84375 
Q 16.21875 57.28125 16.21875 49.421875 
Q 16.21875 41.5 20.09375 36.953125 
Q 23.96875 32.421875 30.609375 32.421875 
z
" id="DejaVuSans-57"/>
      </defs>
      <g transform="translate(25.378125 214.356585)scale(0.1 -0.1)">
       <use transform="translate(0 0.765625)" xlink:href="#DejaVuSans-49"/>
       <use transform="translate(63.623047 0.765625)" xlink:href="#DejaVuSans-48"/>
       <use transform="translate(128.203125 39.046875)scale(0.7)" xlink:href="#DejaVuSans-57"/>
      </g>
     </g>
    </g>
    <g id="ytick_3">
     <g id="line2d_8">
      <g>
       <use style="stroke:#000000;stroke-width:0.8;" x="49.978125" xlink:href="#m248fde172d" y="181.463419"/>
      </g>
     </g>
     <g id="text_9">
      <!-- $\mathdefault{10^{10}}$ -->
      <g transform="translate(20.878125 185.262638)scale(0.1 -0.1)">
       <use transform="translate(0 0.765625)" xlink:href="#DejaVuSans-49"/>
       <use transform="translate(63.623047 0.765625)" xlink:href="#DejaVuSans-48"/>
       <use transform="translate(128.203125 39.046875)scale(0.7)" xlink:href="#DejaVuSans-49"/>
       <use transform="translate(172.739258 39.046875)scale(0.7)" xlink:href="#DejaVuSans-48"/>
      </g>
     </g>
    </g>
    <g id="ytick_4">
     <g id="line2d_9">
      <g>
       <use style="stroke:#000000;stroke-width:0.8;" x="49.978125" xlink:href="#m248fde172d" y="152.369473"/>
      </g>
     </g>
     <g id="text_10">
      <!-- $\mathdefault{10^{11}}$ -->
      <g transform="translate(20.878125 156.168691)scale(0.1 -0.1)">
       <use transform="translate(0 0.684375)" xlink:href="#DejaVuSans-49"/>
       <use transform="translate(63.623047 0.684375)" xlink:href="#DejaVuSans-48"/>
       <use transform="translate(128.203125 38.965625)scale(0.7)" xlink:href="#DejaVuSans-49"/>
       <use transform="translate(172.739258 38.965625)scale(0.7)" xlink:href="#DejaVuSans-49"/>
      </g>
     </g>
    </g>
    <g id="ytick_5">
     <g id="line2d_10">
      <g>
       <use style="stroke:#000000;stroke-width:0.8;" x="49.978125" xlink:href="#m248fde172d" y="123.275526"/>
      </g>
     </g>
     <g id="text_11">
      <!-- $\mathdefault{10^{12}}$ -->
      <g transform="translate(20.878125 127.074744)scale(0.1 -0.1)">
       <use transform="translate(0 0.765625)" xlink:href="#DejaVuSans-49"/>
       <use transform="translate(63.623047 0.765625)" xlink:href="#DejaVuSans-48"/>
       <use transform="translate(128.203125 39.046875)scale(0.7)" xlink:href="#DejaVuSans-49"/>
       <use transform="translate(172.739258 39.046875)scale(0.7)" xlink:href="#DejaVuSans-50"/>
      </g>
     </g>
    </g>
    <g id="ytick_6">
     <g id="line2d_11">
      <g>
       <use style="stroke:#000000;stroke-width:0.8;" x="49.978125" xlink:href="#m248fde172d" y="94.181579"/>
      </g>
     </g>
     <g id="text_12">
      <!-- $\mathdefault{10^{13}}$ -->
      <defs>
       <path d="M 40.578125 39.3125 
Q 47.65625 37.796875 51.625 33 
Q 55.609375 28.21875 55.609375 21.1875 
Q 55.609375 10.40625 48.1875 4.484375 
Q 40.765625 -1.421875 27.09375 -1.421875 
Q 22.515625 -1.421875 17.65625 -0.515625 
Q 12.796875 0.390625 7.625 2.203125 
L 7.625 11.71875 
Q 11.71875 9.328125 16.59375 8.109375 
Q 21.484375 6.890625 26.8125 6.890625 
Q 36.078125 6.890625 40.9375 10.546875 
Q 45.796875 14.203125 45.796875 21.1875 
Q 45.796875 27.640625 41.28125 31.265625 
Q 36.765625 34.90625 28.71875 34.90625 
L 20.21875 34.90625 
L 20.21875 43.015625 
L 29.109375 43.015625 
Q 36.375 43.015625 40.234375 45.921875 
Q 44.09375 48.828125 44.09375 54.296875 
Q 44.09375 59.90625 40.109375 62.90625 
Q 36.140625 65.921875 28.71875 65.921875 
Q 24.65625 65.921875 20.015625 65.03125 
Q 15.375 64.15625 9.8125 62.3125 
L 9.8125 71.09375 
Q 15.4375 72.65625 20.34375 73.4375 
Q 25.25 74.21875 29.59375 74.21875 
Q 40.828125 74.21875 47.359375 69.109375 
Q 53.90625 64.015625 53.90625 55.328125 
Q 53.90625 49.265625 50.4375 45.09375 
Q 46.96875 40.921875 40.578125 39.3125 
z
" id="DejaVuSans-51"/>
      </defs>
      <g transform="translate(20.878125 97.980798)scale(0.1 -0.1)">
       <use transform="translate(0 0.765625)" xlink:href="#DejaVuSans-49"/>
       <use transform="translate(63.623047 0.765625)" xlink:href="#DejaVuSans-48"/>
       <use transform="translate(128.203125 39.046875)scale(0.7)" xlink:href="#DejaVuSans-49"/>
       <use transform="translate(172.739258 39.046875)scale(0.7)" xlink:href="#DejaVuSans-51"/>
      </g>
     </g>
    </g>
    <g id="ytick_7">
     <g id="line2d_12">
      <g>
       <use style="stroke:#000000;stroke-width:0.8;" x="49.978125" xlink:href="#m248fde172d" y="65.087632"/>
      </g>
     </g>
     <g id="text_13">
      <!-- $\mathdefault{10^{14}}$ -->
      <defs>
       <path d="M 37.796875 64.3125 
L 12.890625 25.390625 
L 37.796875 25.390625 
z
M 35.203125 72.90625 
L 47.609375 72.90625 
L 47.609375 25.390625 
L 58.015625 25.390625 
L 58.015625 17.1875 
L 47.609375 17.1875 
L 47.609375 0 
L 37.796875 0 
L 37.796875 17.1875 
L 4.890625 17.1875 
L 4.890625 26.703125 
z
" id="DejaVuSans-52"/>
      </defs>
      <g transform="translate(20.878125 68.886851)scale(0.1 -0.1)">
       <use transform="translate(0 0.684375)" xlink:href="#DejaVuSans-49"/>
       <use transform="translate(63.623047 0.684375)" xlink:href="#DejaVuSans-48"/>
       <use transform="translate(128.203125 38.965625)scale(0.7)" xlink:href="#DejaVuSans-49"/>
       <use transform="translate(172.739258 38.965625)scale(0.7)" xlink:href="#DejaVuSans-52"/>
      </g>
     </g>
    </g>
    <g id="ytick_8">
     <g id="line2d_13">
      <g>
       <use style="stroke:#000000;stroke-width:0.8;" x="49.978125" xlink:href="#m248fde172d" y="35.993685"/>
      </g>
     </g>
     <g id="text_14">
      <!-- $\mathdefault{10^{15}}$ -->
      <g transform="translate(20.878125 39.792904)scale(0.1 -0.1)">
       <use transform="translate(0 0.684375)" xlink:href="#DejaVuSans-49"/>
       <use transform="translate(63.623047 0.684375)" xlink:href="#DejaVuSans-48"/>
       <use transform="translate(128.203125 38.965625)scale(0.7)" xlink:href="#DejaVuSans-49"/>
       <use transform="translate(172.739258 38.965625)scale(0.7)" xlink:href="#DejaVuSans-53"/>
      </g>
     </g>
    </g>
    <g id="ytick_9">
     <g id="line2d_14">
      <defs>
       <path d="M 0 0 
L -2 0 
" id="m060690125a" style="stroke:#000000;stroke-width:0.6;"/>
      </defs>
      <g>
       <use style="stroke:#000000;stroke-width:0.6;" x="49.978125" xlink:href="#m060690125a" y="230.893162"/>
      </g>
     </g>
    </g>
    <g id="ytick_10">
     <g id="line2d_15">
      <g>
       <use style="stroke:#000000;stroke-width:0.6;" x="49.978125" xlink:href="#m060690125a" y="225.769973"/>
      </g>
     </g>
    </g>
    <g id="ytick_11">
     <g id="line2d_16">
      <g>
       <use style="stroke:#000000;stroke-width:0.6;" x="49.978125" xlink:href="#m060690125a" y="222.135012"/>
      </g>
     </g>
    </g>
    <g id="ytick_12">
     <g id="line2d_17">
      <g>
       <use style="stroke:#000000;stroke-width:0.6;" x="49.978125" xlink:href="#m060690125a" y="219.315517"/>
      </g>
     </g>
    </g>
    <g id="ytick_13">
     <g id="line2d_18">
      <g>
       <use style="stroke:#000000;stroke-width:0.6;" x="49.978125" xlink:href="#m060690125a" y="217.011822"/>
      </g>
     </g>
    </g>
    <g id="ytick_14">
     <g id="line2d_19">
      <g>
       <use style="stroke:#000000;stroke-width:0.6;" x="49.978125" xlink:href="#m060690125a" y="215.064076"/>
      </g>
     </g>
    </g>
    <g id="ytick_15">
     <g id="line2d_20">
      <g>
       <use style="stroke:#000000;stroke-width:0.6;" x="49.978125" xlink:href="#m060690125a" y="213.376861"/>
      </g>
     </g>
    </g>
    <g id="ytick_16">
     <g id="line2d_21">
      <g>
       <use style="stroke:#000000;stroke-width:0.6;" x="49.978125" xlink:href="#m060690125a" y="211.888632"/>
      </g>
     </g>
    </g>
    <g id="ytick_17">
     <g id="line2d_22">
      <g>
       <use style="stroke:#000000;stroke-width:0.6;" x="49.978125" xlink:href="#m060690125a" y="201.799216"/>
      </g>
     </g>
    </g>
    <g id="ytick_18">
     <g id="line2d_23">
      <g>
       <use style="stroke:#000000;stroke-width:0.6;" x="49.978125" xlink:href="#m060690125a" y="196.676026"/>
      </g>
     </g>
    </g>
    <g id="ytick_19">
     <g id="line2d_24">
      <g>
       <use style="stroke:#000000;stroke-width:0.6;" x="49.978125" xlink:href="#m060690125a" y="193.041065"/>
      </g>
     </g>
    </g>
    <g id="ytick_20">
     <g id="line2d_25">
      <g>
       <use style="stroke:#000000;stroke-width:0.6;" x="49.978125" xlink:href="#m060690125a" y="190.22157"/>
      </g>
     </g>
    </g>
    <g id="ytick_21">
     <g id="line2d_26">
      <g>
       <use style="stroke:#000000;stroke-width:0.6;" x="49.978125" xlink:href="#m060690125a" y="187.917875"/>
      </g>
     </g>
    </g>
    <g id="ytick_22">
     <g id="line2d_27">
      <g>
       <use style="stroke:#000000;stroke-width:0.6;" x="49.978125" xlink:href="#m060690125a" y="185.970129"/>
      </g>
     </g>
    </g>
    <g id="ytick_23">
     <g id="line2d_28">
      <g>
       <use style="stroke:#000000;stroke-width:0.6;" x="49.978125" xlink:href="#m060690125a" y="184.282914"/>
      </g>
     </g>
    </g>
    <g id="ytick_24">
     <g id="line2d_29">
      <g>
       <use style="stroke:#000000;stroke-width:0.6;" x="49.978125" xlink:href="#m060690125a" y="182.794685"/>
      </g>
     </g>
    </g>
    <g id="ytick_25">
     <g id="line2d_30">
      <g>
       <use style="stroke:#000000;stroke-width:0.6;" x="49.978125" xlink:href="#m060690125a" y="172.705269"/>
      </g>
     </g>
    </g>
    <g id="ytick_26">
     <g id="line2d_31">
      <g>
       <use style="stroke:#000000;stroke-width:0.6;" x="49.978125" xlink:href="#m060690125a" y="167.582079"/>
      </g>
     </g>
    </g>
    <g id="ytick_27">
     <g id="line2d_32">
      <g>
       <use style="stroke:#000000;stroke-width:0.6;" x="49.978125" xlink:href="#m060690125a" y="163.947118"/>
      </g>
     </g>
    </g>
    <g id="ytick_28">
     <g id="line2d_33">
      <g>
       <use style="stroke:#000000;stroke-width:0.6;" x="49.978125" xlink:href="#m060690125a" y="161.127623"/>
      </g>
     </g>
    </g>
    <g id="ytick_29">
     <g id="line2d_34">
      <g>
       <use style="stroke:#000000;stroke-width:0.6;" x="49.978125" xlink:href="#m060690125a" y="158.823928"/>
      </g>
     </g>
    </g>
    <g id="ytick_30">
     <g id="line2d_35">
      <g>
       <use style="stroke:#000000;stroke-width:0.6;" x="49.978125" xlink:href="#m060690125a" y="156.876182"/>
      </g>
     </g>
    </g>
    <g id="ytick_31">
     <g id="line2d_36">
      <g>
       <use style="stroke:#000000;stroke-width:0.6;" x="49.978125" xlink:href="#m060690125a" y="155.188967"/>
      </g>
     </g>
    </g>
    <g id="ytick_32">
     <g id="line2d_37">
      <g>
       <use style="stroke:#000000;stroke-width:0.6;" x="49.978125" xlink:href="#m060690125a" y="153.700739"/>
      </g>
     </g>
    </g>
    <g id="ytick_33">
     <g id="line2d_38">
      <g>
       <use style="stroke:#000000;stroke-width:0.6;" x="49.978125" xlink:href="#m060690125a" y="143.611322"/>
      </g>
     </g>
    </g>
    <g id="ytick_34">
     <g id="line2d_39">
      <g>
       <use style="stroke:#000000;stroke-width:0.6;" x="49.978125" xlink:href="#m060690125a" y="138.488132"/>
      </g>
     </g>
    </g>
    <g id="ytick_35">
     <g id="line2d_40">
      <g>
       <use style="stroke:#000000;stroke-width:0.6;" x="49.978125" xlink:href="#m060690125a" y="134.853171"/>
      </g>
     </g>
    </g>
    <g id="ytick_36">
     <g id="line2d_41">
      <g>
       <use style="stroke:#000000;stroke-width:0.6;" x="49.978125" xlink:href="#m060690125a" y="132.033676"/>
      </g>
     </g>
    </g>
    <g id="ytick_37">
     <g id="line2d_42">
      <g>
       <use style="stroke:#000000;stroke-width:0.6;" x="49.978125" xlink:href="#m060690125a" y="129.729981"/>
      </g>
     </g>
    </g>
    <g id="ytick_38">
     <g id="line2d_43">
      <g>
       <use style="stroke:#000000;stroke-width:0.6;" x="49.978125" xlink:href="#m060690125a" y="127.782235"/>
      </g>
     </g>
    </g>
    <g id="ytick_39">
     <g id="line2d_44">
      <g>
       <use style="stroke:#000000;stroke-width:0.6;" x="49.978125" xlink:href="#m060690125a" y="126.09502"/>
      </g>
     </g>
    </g>
    <g id="ytick_40">
     <g id="line2d_45">
      <g>
       <use style="stroke:#000000;stroke-width:0.6;" x="49.978125" xlink:href="#m060690125a" y="124.606792"/>
      </g>
     </g>
    </g>
    <g id="ytick_41">
     <g id="line2d_46">
      <g>
       <use style="stroke:#000000;stroke-width:0.6;" x="49.978125" xlink:href="#m060690125a" y="114.517375"/>
      </g>
     </g>
    </g>
    <g id="ytick_42">
     <g id="line2d_47">
      <g>
       <use style="stroke:#000000;stroke-width:0.6;" x="49.978125" xlink:href="#m060690125a" y="109.394185"/>
      </g>
     </g>
    </g>
    <g id="ytick_43">
     <g id="line2d_48">
      <g>
       <use style="stroke:#000000;stroke-width:0.6;" x="49.978125" xlink:href="#m060690125a" y="105.759224"/>
      </g>
     </g>
    </g>
    <g id="ytick_44">
     <g id="line2d_49">
      <g>
       <use style="stroke:#000000;stroke-width:0.6;" x="49.978125" xlink:href="#m060690125a" y="102.93973"/>
      </g>
     </g>
    </g>
    <g id="ytick_45">
     <g id="line2d_50">
      <g>
       <use style="stroke:#000000;stroke-width:0.6;" x="49.978125" xlink:href="#m060690125a" y="100.636035"/>
      </g>
     </g>
    </g>
    <g id="ytick_46">
     <g id="line2d_51">
      <g>
       <use style="stroke:#000000;stroke-width:0.6;" x="49.978125" xlink:href="#m060690125a" y="98.688288"/>
      </g>
     </g>
    </g>
    <g id="ytick_47">
     <g id="line2d_52">
      <g>
       <use style="stroke:#000000;stroke-width:0.6;" x="49.978125" xlink:href="#m060690125a" y="97.001074"/>
      </g>
     </g>
    </g>
    <g id="ytick_48">
     <g id="line2d_53">
      <g>
       <use style="stroke:#000000;stroke-width:0.6;" x="49.978125" xlink:href="#m060690125a" y="95.512845"/>
      </g>
     </g>
    </g>
    <g id="ytick_49">
     <g id="line2d_54">
      <g>
       <use style="stroke:#000000;stroke-width:0.6;" x="49.978125" xlink:href="#m060690125a" y="85.423428"/>
      </g>
     </g>
    </g>
    <g id="ytick_50">
     <g id="line2d_55">
      <g>
       <use style="stroke:#000000;stroke-width:0.6;" x="49.978125" xlink:href="#m060690125a" y="80.300238"/>
      </g>
     </g>
    </g>
    <g id="ytick_51">
     <g id="line2d_56">
      <g>
       <use style="stroke:#000000;stroke-width:0.6;" x="49.978125" xlink:href="#m060690125a" y="76.665277"/>
      </g>
     </g>
    </g>
    <g id="ytick_52">
     <g id="line2d_57">
      <g>
       <use style="stroke:#000000;stroke-width:0.6;" x="49.978125" xlink:href="#m060690125a" y="73.845783"/>
      </g>
     </g>
    </g>
    <g id="ytick_53">
     <g id="line2d_58">
      <g>
       <use style="stroke:#000000;stroke-width:0.6;" x="49.978125" xlink:href="#m060690125a" y="71.542088"/>
      </g>
     </g>
    </g>
    <g id="ytick_54">
     <g id="line2d_59">
      <g>
       <use style="stroke:#000000;stroke-width:0.6;" x="49.978125" xlink:href="#m060690125a" y="69.594341"/>
      </g>
     </g>
    </g>
    <g id="ytick_55">
     <g id="line2d_60">
      <g>
       <use style="stroke:#000000;stroke-width:0.6;" x="49.978125" xlink:href="#m060690125a" y="67.907127"/>
      </g>
     </g>
    </g>
    <g id="ytick_56">
     <g id="line2d_61">
      <g>
       <use style="stroke:#000000;stroke-width:0.6;" x="49.978125" xlink:href="#m060690125a" y="66.418898"/>
      </g>
     </g>
    </g>
    <g id="ytick_57">
     <g id="line2d_62">
      <g>
       <use style="stroke:#000000;stroke-width:0.6;" x="49.978125" xlink:href="#m060690125a" y="56.329481"/>
      </g>
     </g>
    </g>
    <g id="ytick_58">
     <g id="line2d_63">
      <g>
       <use style="stroke:#000000;stroke-width:0.6;" x="49.978125" xlink:href="#m060690125a" y="51.206292"/>
      </g>
     </g>
    </g>
    <g id="ytick_59">
     <g id="line2d_64">
      <g>
       <use style="stroke:#000000;stroke-width:0.6;" x="49.978125" xlink:href="#m060690125a" y="47.571331"/>
      </g>
     </g>
    </g>
    <g id="ytick_60">
     <g id="line2d_65">
      <g>
       <use style="stroke:#000000;stroke-width:0.6;" x="49.978125" xlink:href="#m060690125a" y="44.751836"/>
      </g>
     </g>
    </g>
    <g id="ytick_61">
     <g id="line2d_66">
      <g>
       <use style="stroke:#000000;stroke-width:0.6;" x="49.978125" xlink:href="#m060690125a" y="42.448141"/>
      </g>
     </g>
    </g>
    <g id="ytick_62">
     <g id="line2d_67">
      <g>
       <use style="stroke:#000000;stroke-width:0.6;" x="49.978125" xlink:href="#m060690125a" y="40.500394"/>
      </g>
     </g>
    </g>
    <g id="ytick_63">
     <g id="line2d_68">
      <g>
       <use style="stroke:#000000;stroke-width:0.6;" x="49.978125" xlink:href="#m060690125a" y="38.81318"/>
      </g>
     </g>
    </g>
    <g id="ytick_64">
     <g id="line2d_69">
      <g>
       <use style="stroke:#000000;stroke-width:0.6;" x="49.978125" xlink:href="#m060690125a" y="37.324951"/>
      </g>
     </g>
    </g>
    <g id="ytick_65">
     <g id="line2d_70">
      <g>
       <use style="stroke:#000000;stroke-width:0.6;" x="49.978125" xlink:href="#m060690125a" y="27.235534"/>
      </g>
     </g>
    </g>
    <g id="ytick_66">
     <g id="line2d_71">
      <g>
       <use style="stroke:#000000;stroke-width:0.6;" x="49.978125" xlink:href="#m060690125a" y="22.112345"/>
      </g>
     </g>
    </g>
    <g id="text_15">
     <!-- Kmol/m^3-s -->
     <defs>
      <path d="M 30.609375 48.390625 
Q 23.390625 48.390625 19.1875 42.75 
Q 14.984375 37.109375 14.984375 27.296875 
Q 14.984375 17.484375 19.15625 11.84375 
Q 23.34375 6.203125 30.609375 6.203125 
Q 37.796875 6.203125 41.984375 11.859375 
Q 46.1875 17.53125 46.1875 27.296875 
Q 46.1875 37.015625 41.984375 42.703125 
Q 37.796875 48.390625 30.609375 48.390625 
z
M 30.609375 56 
Q 42.328125 56 49.015625 48.375 
Q 55.71875 40.765625 55.71875 27.296875 
Q 55.71875 13.875 49.015625 6.21875 
Q 42.328125 -1.421875 30.609375 -1.421875 
Q 18.84375 -1.421875 12.171875 6.21875 
Q 5.515625 13.875 5.515625 27.296875 
Q 5.515625 40.765625 12.171875 48.375 
Q 18.84375 56 30.609375 56 
z
" id="DejaVuSans-111"/>
      <path d="M 9.421875 75.984375 
L 18.40625 75.984375 
L 18.40625 0 
L 9.421875 0 
z
" id="DejaVuSans-108"/>
      <path d="M 25.390625 72.90625 
L 33.6875 72.90625 
L 8.296875 -9.28125 
L 0 -9.28125 
z
" id="DejaVuSans-47"/>
      <path d="M 46.6875 72.90625 
L 73.1875 45.703125 
L 63.375 45.703125 
L 41.890625 64.984375 
L 20.40625 45.703125 
L 10.59375 45.703125 
L 37.109375 72.90625 
z
" id="DejaVuSans-94"/>
      <path d="M 4.890625 31.390625 
L 31.203125 31.390625 
L 31.203125 23.390625 
L 4.890625 23.390625 
z
" id="DejaVuSans-45"/>
      <path d="M 44.28125 53.078125 
L 44.28125 44.578125 
Q 40.484375 46.53125 36.375 47.5 
Q 32.28125 48.484375 27.875 48.484375 
Q 21.1875 48.484375 17.84375 46.4375 
Q 14.5 44.390625 14.5 40.28125 
Q 14.5 37.15625 16.890625 35.375 
Q 19.28125 33.59375 26.515625 31.984375 
L 29.59375 31.296875 
Q 39.15625 29.25 43.1875 25.515625 
Q 47.21875 21.78125 47.21875 15.09375 
Q 47.21875 7.46875 41.1875 3.015625 
Q 35.15625 -1.421875 24.609375 -1.421875 
Q 20.21875 -1.421875 15.453125 -0.5625 
Q 10.6875 0.296875 5.421875 2 
L 5.421875 11.28125 
Q 10.40625 8.6875 15.234375 7.390625 
Q 20.0625 6.109375 24.8125 6.109375 
Q 31.15625 6.109375 34.5625 8.28125 
Q 37.984375 10.453125 37.984375 14.40625 
Q 37.984375 18.0625 35.515625 20.015625 
Q 33.0625 21.96875 24.703125 23.78125 
L 21.578125 24.515625 
Q 13.234375 26.265625 9.515625 29.90625 
Q 5.8125 33.546875 5.8125 39.890625 
Q 5.8125 47.609375 11.28125 51.796875 
Q 16.75 56 26.8125 56 
Q 31.78125 56 36.171875 55.265625 
Q 40.578125 54.546875 44.28125 53.078125 
z
" id="DejaVuSans-115"/>
     </defs>
     <g transform="translate(14.798438 161.970156)rotate(-90)scale(0.1 -0.1)">
      <use xlink:href="#DejaVuSans-75"/>
      <use x="65.576172" xlink:href="#DejaVuSans-109"/>
      <use x="162.988281" xlink:href="#DejaVuSans-111"/>
      <use x="224.169922" xlink:href="#DejaVuSans-108"/>
      <use x="251.953125" xlink:href="#DejaVuSans-47"/>
      <use x="285.644531" xlink:href="#DejaVuSans-109"/>
      <use x="383.056641" xlink:href="#DejaVuSans-94"/>
      <use x="466.845703" xlink:href="#DejaVuSans-51"/>
      <use x="530.46875" xlink:href="#DejaVuSans-45"/>
      <use x="566.552734" xlink:href="#DejaVuSans-115"/>
     </g>
    </g>
   </g>
   <g id="line2d_72">
    <path clip-path="url(#pf3f516faa9)" d="M 72.45878 207.409233 
L 74.703544 201.659909 
L 77.080353 196.20581 
L 79.457163 191.296119 
L 81.966017 186.609797 
L 84.606916 182.141674 
L 87.37986 177.884387 
L 90.28485 173.82914 
L 93.321884 169.966279 
L 96.490963 166.285727 
L 99.924132 162.643188 
L 103.489346 159.18504 
L 107.31865 155.785595 
L 111.279998 152.563 
L 115.505437 149.408265 
L 119.994966 146.33096 
L 124.880629 143.257878 
L 130.030383 140.285448 
L 135.576271 137.346625 
L 141.518295 134.456359 
L 147.856453 131.62565 
L 154.590746 128.862236 
L 161.853219 126.123436 
L 169.643871 123.423687 
L 178.094749 120.733402 
L 187.205851 118.07001 
L 196.977178 115.446721 
L 207.540775 112.841996 
L 219.028687 110.241528 
L 231.440913 107.662992 
L 244.909499 105.095661 
L 259.434445 102.555286 
L 275.279841 100.013027 
L 292.445686 97.487367 
L 311.064025 94.975271 
L 331.266904 92.475634 
L 353.318413 89.974387 
L 369.427898 88.275977 
L 369.427898 88.275977 
" style="fill:none;stroke:#0000ff;stroke-linecap:square;stroke-width:1.5;"/>
   </g>
   <g id="line2d_73">
    <path clip-path="url(#pf3f516faa9)" d="M 65.196307 217.841242 
L 66.648801 212.097141 
L 68.893566 204.192827 
L 72.45878 193.558257 
L 78.532848 179.295695 
L 79.061028 178.229504 
L 85.663276 166.620295 
L 92.265524 157.418932 
L 94.906423 154.233713 
L 98.867772 149.878048 
L 105.47002 143.538096 
L 112.072268 138.09958 
L 118.938606 133.180783 
L 125.804944 128.854421 
L 132.407192 125.144033 
L 138.48126 122.051706 
L 145.083509 118.983568 
L 145.083509 118.983568 
L 151.685757 116.17487 
L 160.928904 112.608409 
L 165.418433 111.008618 
L 175.585895 107.657439 
L 184.829042 104.892204 
L 195.128549 102.075236 
L 204.503741 99.717415 
L 217.180058 96.794223 
L 228.535924 94.395946 
L 238.967476 92.350149 
L 255.869231 89.307925 
L 271.450537 86.756547 
L 290.597056 83.898105 
L 310.13971 81.244003 
L 329.946455 78.781576 
L 349.753199 76.513313 
L 369.559943 74.411488 
L 369.559943 74.411488 
" style="fill:none;stroke:#0000ff;stroke-dasharray:5.55,2.4;stroke-dashoffset:0;stroke-width:1.5;"/>
   </g>
   <g id="line2d_74">
    <path clip-path="url(#pf3f516faa9)" d="M 72.45878 208.025987 
L 74.703544 202.251255 
L 77.080353 196.77366 
L 79.457163 191.843356 
L 81.966017 187.137866 
L 84.606916 182.651953 
L 87.37986 178.378182 
L 90.28485 174.307679 
L 93.321884 170.430708 
L 96.490963 166.737114 
L 99.924132 163.082069 
L 103.489346 159.612433 
L 107.31865 156.202073 
L 111.279998 152.969489 
L 115.505437 149.805325 
L 119.994966 146.719163 
L 124.748584 143.71744 
L 129.898338 140.730586 
L 135.444226 137.77827 
L 141.254205 134.937329 
L 147.592363 132.089965 
L 154.326656 129.31128 
L 161.589129 126.55828 
L 169.379781 123.845419 
L 177.830659 121.142916 
L 186.941761 118.468234 
L 196.713089 115.834585 
L 207.276685 113.220292 
L 218.764597 110.610963 
L 231.176823 108.024295 
L 244.64541 105.449492 
L 259.170355 102.90231 
L 274.883706 100.374149 
L 292.049551 97.84112 
L 310.66789 95.322327 
L 330.870769 92.816622 
L 352.790233 90.324243 
L 369.427898 88.567423 
L 369.427898 88.567423 
" style="fill:none;stroke:#ff0000;stroke-linecap:square;stroke-width:1.5;"/>
   </g>
   <g id="line2d_75">
    <defs>
     <path d="M 0 3 
C 0.795609 3 1.55874 2.683901 2.12132 2.12132 
C 2.683901 1.55874 3 0.795609 3 0 
C 3 -0.795609 2.683901 -1.55874 2.12132 -2.12132 
C 1.55874 -2.683901 0.795609 -3 0 -3 
C -0.795609 -3 -1.55874 -2.683901 -2.12132 -2.12132 
C -2.683901 -1.55874 -3 -0.795609 -3 0 
C -3 0.795609 -2.683901 1.55874 -2.12132 2.12132 
C -1.55874 2.683901 -0.795609 3 0 3 
z
" id="m71b37e387b" style="stroke:#000000;"/>
    </defs>
    <g clip-path="url(#pf3f516faa9)">
     <use style="stroke:#000000;" x="230.780689" xlink:href="#m71b37e387b" y="106.032879"/>
     <use style="stroke:#000000;" x="238.967476" xlink:href="#m71b37e387b" y="104.057393"/>
     <use style="stroke:#000000;" x="244.513365" xlink:href="#m71b37e387b" y="106.091343"/>
     <use style="stroke:#000000;" x="252.700152" xlink:href="#m71b37e387b" y="103.456767"/>
     <use style="stroke:#000000;" x="247.814489" xlink:href="#m71b37e387b" y="104.635698"/>
     <use style="stroke:#000000;" x="262.867614" xlink:href="#m71b37e387b" y="101.712202"/>
     <use style="stroke:#000000;" x="233.157498" xlink:href="#m71b37e387b" y="108.143664"/>
     <use style="stroke:#000000;" x="271.450537" xlink:href="#m71b37e387b" y="104.224751"/>
     <use style="stroke:#000000;" x="218.764597" xlink:href="#m71b37e387b" y="111.049623"/>
     <use style="stroke:#000000;" x="233.289543" xlink:href="#m71b37e387b" y="108.375511"/>
     <use style="stroke:#000000;" x="218.896642" xlink:href="#m71b37e387b" y="108.516682"/>
     <use style="stroke:#000000;" x="212.162349" xlink:href="#m71b37e387b" y="109.577457"/>
     <use style="stroke:#000000;" x="236.590667" xlink:href="#m71b37e387b" y="105.668827"/>
     <use style="stroke:#000000;" x="204.107606" xlink:href="#m71b37e387b" y="115.026464"/>
     <use style="stroke:#000000;" x="223.254126" xlink:href="#m71b37e387b" y="107.149981"/>
     <use style="stroke:#000000;" x="228.535924" xlink:href="#m71b37e387b" y="105.763616"/>
     <use style="stroke:#000000;" x="253.096287" xlink:href="#m71b37e387b" y="106.228779"/>
     <use style="stroke:#000000;" x="286.635707" xlink:href="#m71b37e387b" y="101.371607"/>
     <use style="stroke:#000000;" x="279.109145" xlink:href="#m71b37e387b" y="98.181237"/>
     <use style="stroke:#000000;" x="266.564873" xlink:href="#m71b37e387b" y="103.892223"/>
     <use style="stroke:#000000;" x="290.597056" xlink:href="#m71b37e387b" y="101.781437"/>
     <use style="stroke:#000000;" x="281.617999" xlink:href="#m71b37e387b" y="101.781437"/>
     <use style="stroke:#000000;" x="306.838586" xlink:href="#m71b37e387b" y="97.274728"/>
     <use style="stroke:#000000;" x="255.869231" xlink:href="#m71b37e387b" y="106.032879"/>
     <use style="stroke:#000000;" x="180.867693" xlink:href="#m71b37e387b" y="124.560547"/>
     <use style="stroke:#000000;" x="190.242885" xlink:href="#m71b37e387b" y="115.802396"/>
     <use style="stroke:#000000;" x="192.22356" xlink:href="#m71b37e387b" y="118.106091"/>
     <use style="stroke:#000000;" x="202.523067" xlink:href="#m71b37e387b" y="113.85465"/>
     <use style="stroke:#000000;" x="187.601986" xlink:href="#m71b37e387b" y="119.159646"/>
     <use style="stroke:#000000;" x="175.585895" xlink:href="#m71b37e387b" y="127.380042"/>
     <use style="stroke:#000000;" x="165.418433" xlink:href="#m71b37e387b" y="127.380042"/>
     <use style="stroke:#000000;" x="160.928904" xlink:href="#m71b37e387b" y="128.47946"/>
     <use style="stroke:#000000;" x="162.381399" xlink:href="#m71b37e387b" y="129.683737"/>
     <use style="stroke:#000000;" x="172.81295" xlink:href="#m71b37e387b" y="122.256852"/>
     <use style="stroke:#000000;" x="263.527839" xlink:href="#m71b37e387b" y="101.921056"/>
     <use style="stroke:#000000;" x="238.703386" xlink:href="#m71b37e387b" y="103.892223"/>
     <use style="stroke:#000000;" x="237.514982" xlink:href="#m71b37e387b" y="106.548672"/>
     <use style="stroke:#000000;" x="271.318492" xlink:href="#m71b37e387b" y="102.944127"/>
     <use style="stroke:#000000;" x="268.677593" xlink:href="#m71b37e387b" y="104.224751"/>
     <use style="stroke:#000000;" x="243.985185" xlink:href="#m71b37e387b" y="105.096499"/>
     <use style="stroke:#000000;" x="268.413503" xlink:href="#m71b37e387b" y="104.057393"/>
     <use style="stroke:#000000;" x="217.180058" xlink:href="#m71b37e387b" y="107.781343"/>
     <use style="stroke:#000000;" x="237.382937" xlink:href="#m71b37e387b" y="104.074024"/>
     <use style="stroke:#000000;" x="227.479565" xlink:href="#m71b37e387b" y="107.429122"/>
     <use style="stroke:#000000;" x="213.878934" xlink:href="#m71b37e387b" y="110.651168"/>
     <use style="stroke:#000000;" x="200.938527" xlink:href="#m71b37e387b" y="113.963444"/>
     <use style="stroke:#000000;" x="212.162349" xlink:href="#m71b37e387b" y="112.815543"/>
     <use style="stroke:#000000;" x="217.708237" xlink:href="#m71b37e387b" y="109.732803"/>
     <use style="stroke:#000000;" x="275.940065" xlink:href="#m71b37e387b" y="102.349413"/>
     <use style="stroke:#000000;" x="294.42636" xlink:href="#m71b37e387b" y="99.385513"/>
     <use style="stroke:#000000;" x="298.783844" xlink:href="#m71b37e387b" y="98.286095"/>
     <use style="stroke:#000000;" x="268.941682" xlink:href="#m71b37e387b" y="107.044245"/>
     <use style="stroke:#000000;" x="283.862763" xlink:href="#m71b37e387b" y="103.504401"/>
     <use style="stroke:#000000;" x="276.204155" xlink:href="#m71b37e387b" y="104.224751"/>
     <use style="stroke:#000000;" x="292.973865" xlink:href="#m71b37e387b" y="100.653125"/>
     <use style="stroke:#000000;" x="164.494118" xlink:href="#m71b37e387b" y="131.015003"/>
     <use style="stroke:#000000;" x="150.365307" xlink:href="#m71b37e387b" y="134.190446"/>
     <use style="stroke:#000000;" x="163.173668" xlink:href="#m71b37e387b" y="128.47946"/>
     <use style="stroke:#000000;" x="174.1334" xlink:href="#m71b37e387b" y="122.979068"/>
     <use style="stroke:#000000;" x="184.829042" xlink:href="#m71b37e387b" y="115.388086"/>
     <use style="stroke:#000000;" x="198.693763" xlink:href="#m71b37e387b" y="114.98693"/>
     <use style="stroke:#000000;" x="157.0996" xlink:href="#m71b37e387b" y="132.503231"/>
     <use style="stroke:#000000;" x="189.846751" xlink:href="#m71b37e387b" y="117.610524"/>
     <use style="stroke:#000000;" x="195.128549" xlink:href="#m71b37e387b" y="114.220917"/>
     <use style="stroke:#000000;" x="207.276685" xlink:href="#m71b37e387b" y="112.815543"/>
     <use style="stroke:#000000;" x="78.532848" xlink:href="#m71b37e387b" y="193.911775"/>
     <use style="stroke:#000000;" x="78.400803" xlink:href="#m71b37e387b" y="194.014086"/>
     <use style="stroke:#000000;" x="78.400803" xlink:href="#m71b37e387b" y="194.53845"/>
     <use style="stroke:#000000;" x="78.400803" xlink:href="#m71b37e387b" y="194.645985"/>
     <use style="stroke:#000000;" x="78.400803" xlink:href="#m71b37e387b" y="194.284038"/>
     <use style="stroke:#000000;" x="68.893566" xlink:href="#m71b37e387b" y="219.473072"/>
     <use style="stroke:#000000;" x="68.233341" xlink:href="#m71b37e387b" y="220.600538"/>
     <use style="stroke:#000000;" x="67.573116" xlink:href="#m71b37e387b" y="222.803553"/>
     <use style="stroke:#000000;" x="66.648801" xlink:href="#m71b37e387b" y="225.978996"/>
     <use style="stroke:#000000;" x="65.856532" xlink:href="#m71b37e387b" y="228.543223"/>
     <use style="stroke:#000000;" x="65.196307" xlink:href="#m71b37e387b" y="229.874489"/>
     <use style="stroke:#000000;" x="78.136713" xlink:href="#m71b37e387b" y="195.152789"/>
     <use style="stroke:#000000;" x="93.453929" xlink:href="#m71b37e387b" y="171.306296"/>
     <use style="stroke:#000000;" x="94.906423" xlink:href="#m71b37e387b" y="169.678823"/>
     <use style="stroke:#000000;" x="105.20593" xlink:href="#m71b37e387b" y="158.651958"/>
     <use style="stroke:#000000;" x="111.676133" xlink:href="#m71b37e387b" y="153.487136"/>
     <use style="stroke:#000000;" x="118.938606" xlink:href="#m71b37e387b" y="147.87481"/>
     <use style="stroke:#000000;" x="125.804944" xlink:href="#m71b37e387b" y="142.349342"/>
     <use style="stroke:#000000;" x="132.407192" xlink:href="#m71b37e387b" y="139.116615"/>
     <use style="stroke:#000000;" x="137.821036" xlink:href="#m71b37e387b" y="136.653999"/>
     <use style="stroke:#000000;" x="145.083509" xlink:href="#m71b37e387b" y="133.218023"/>
     <use style="stroke:#000000;" x="65.856532" xlink:href="#m71b37e387b" y="32.201761"/>
     <use style="stroke:#000000;" x="72.45878" xlink:href="#m71b37e387b" y="32.201761"/>
     <use style="stroke:#000000;" x="79.061028" xlink:href="#m71b37e387b" y="32.201761"/>
     <use style="stroke:#000000;" x="85.663276" xlink:href="#m71b37e387b" y="32.201761"/>
     <use style="stroke:#000000;" x="92.265524" xlink:href="#m71b37e387b" y="32.201761"/>
     <use style="stroke:#000000;" x="98.867772" xlink:href="#m71b37e387b" y="32.201761"/>
     <use style="stroke:#000000;" x="105.47002" xlink:href="#m71b37e387b" y="32.201761"/>
     <use style="stroke:#000000;" x="112.072268" xlink:href="#m71b37e387b" y="32.201761"/>
     <use style="stroke:#000000;" x="118.674516" xlink:href="#m71b37e387b" y="32.201761"/>
     <use style="stroke:#000000;" x="125.276764" xlink:href="#m71b37e387b" y="32.201761"/>
     <use style="stroke:#000000;" x="131.879012" xlink:href="#m71b37e387b" y="32.201761"/>
     <use style="stroke:#000000;" x="138.48126" xlink:href="#m71b37e387b" y="32.201761"/>
     <use style="stroke:#000000;" x="145.083509" xlink:href="#m71b37e387b" y="32.201761"/>
     <use style="stroke:#000000;" x="151.685757" xlink:href="#m71b37e387b" y="32.201761"/>
     <use style="stroke:#000000;" x="158.288005" xlink:href="#m71b37e387b" y="32.201761"/>
     <use style="stroke:#000000;" x="164.890253" xlink:href="#m71b37e387b" y="32.201761"/>
     <use style="stroke:#000000;" x="171.492501" xlink:href="#m71b37e387b" y="32.201761"/>
     <use style="stroke:#000000;" x="178.094749" xlink:href="#m71b37e387b" y="32.201761"/>
     <use style="stroke:#000000;" x="184.696997" xlink:href="#m71b37e387b" y="32.201761"/>
     <use style="stroke:#000000;" x="191.299245" xlink:href="#m71b37e387b" y="32.201761"/>
     <use style="stroke:#000000;" x="197.901493" xlink:href="#m71b37e387b" y="32.201761"/>
     <use style="stroke:#000000;" x="204.503741" xlink:href="#m71b37e387b" y="32.201761"/>
     <use style="stroke:#000000;" x="211.105989" xlink:href="#m71b37e387b" y="32.201761"/>
     <use style="stroke:#000000;" x="217.708237" xlink:href="#m71b37e387b" y="32.201761"/>
     <use style="stroke:#000000;" x="224.310485" xlink:href="#m71b37e387b" y="32.201761"/>
     <use style="stroke:#000000;" x="230.912734" xlink:href="#m71b37e387b" y="32.201761"/>
     <use style="stroke:#000000;" x="237.514982" xlink:href="#m71b37e387b" y="32.201761"/>
     <use style="stroke:#000000;" x="244.11723" xlink:href="#m71b37e387b" y="32.201761"/>
     <use style="stroke:#000000;" x="250.719478" xlink:href="#m71b37e387b" y="32.201761"/>
     <use style="stroke:#000000;" x="257.321726" xlink:href="#m71b37e387b" y="32.201761"/>
     <use style="stroke:#000000;" x="263.923974" xlink:href="#m71b37e387b" y="32.201761"/>
     <use style="stroke:#000000;" x="270.526222" xlink:href="#m71b37e387b" y="32.201761"/>
     <use style="stroke:#000000;" x="277.12847" xlink:href="#m71b37e387b" y="32.201761"/>
     <use style="stroke:#000000;" x="283.730718" xlink:href="#m71b37e387b" y="32.201761"/>
     <use style="stroke:#000000;" x="290.332966" xlink:href="#m71b37e387b" y="32.201761"/>
     <use style="stroke:#000000;" x="296.935214" xlink:href="#m71b37e387b" y="32.201761"/>
     <use style="stroke:#000000;" x="303.537462" xlink:href="#m71b37e387b" y="32.201761"/>
     <use style="stroke:#000000;" x="310.13971" xlink:href="#m71b37e387b" y="32.201761"/>
     <use style="stroke:#000000;" x="316.741959" xlink:href="#m71b37e387b" y="32.201761"/>
     <use style="stroke:#000000;" x="323.344207" xlink:href="#m71b37e387b" y="32.201761"/>
     <use style="stroke:#000000;" x="329.946455" xlink:href="#m71b37e387b" y="32.201761"/>
     <use style="stroke:#000000;" x="336.548703" xlink:href="#m71b37e387b" y="32.201761"/>
     <use style="stroke:#000000;" x="343.150951" xlink:href="#m71b37e387b" y="32.201761"/>
     <use style="stroke:#000000;" x="349.753199" xlink:href="#m71b37e387b" y="32.201761"/>
     <use style="stroke:#000000;" x="356.355447" xlink:href="#m71b37e387b" y="32.201761"/>
     <use style="stroke:#000000;" x="362.957695" xlink:href="#m71b37e387b" y="32.201761"/>
     <use style="stroke:#000000;" x="369.559943" xlink:href="#m71b37e387b" y="32.201761"/>
    </g>
   </g>
   <g id="patch_3">
    <path d="M 49.978125 239.758125 
L 49.978125 22.318125 
" style="fill:none;stroke:#000000;stroke-linecap:square;stroke-linejoin:miter;stroke-width:0.8;"/>
   </g>
   <g id="patch_4">
    <path d="M 384.778125 239.758125 
L 384.778125 22.318125 
" style="fill:none;stroke:#000000;stroke-linecap:square;stroke-linejoin:miter;stroke-width:0.8;"/>
   </g>
   <g id="patch_5">
    <path d="M 49.978125 239.758125 
L 384.778125 239.758125 
" style="fill:none;stroke:#000000;stroke-linecap:square;stroke-linejoin:miter;stroke-width:0.8;"/>
   </g>
   <g id="patch_6">
    <path d="M 49.978125 22.318125 
L 384.778125 22.318125 
" style="fill:none;stroke:#000000;stroke-linecap:square;stroke-linejoin:miter;stroke-width:0.8;"/>
   </g>
   <g id="text_16">
    <!-- CH4 + OH &lt;=&gt; CH3 + H2O -->
    <defs>
     <path d="M 64.40625 67.28125 
L 64.40625 56.890625 
Q 59.421875 61.53125 53.78125 63.8125 
Q 48.140625 66.109375 41.796875 66.109375 
Q 29.296875 66.109375 22.65625 58.46875 
Q 16.015625 50.828125 16.015625 36.375 
Q 16.015625 21.96875 22.65625 14.328125 
Q 29.296875 6.6875 41.796875 6.6875 
Q 48.140625 6.6875 53.78125 8.984375 
Q 59.421875 11.28125 64.40625 15.921875 
L 64.40625 5.609375 
Q 59.234375 2.09375 53.4375 0.328125 
Q 47.65625 -1.421875 41.21875 -1.421875 
Q 24.65625 -1.421875 15.125 8.703125 
Q 5.609375 18.84375 5.609375 36.375 
Q 5.609375 53.953125 15.125 64.078125 
Q 24.65625 74.21875 41.21875 74.21875 
Q 47.75 74.21875 53.53125 72.484375 
Q 59.328125 70.75 64.40625 67.28125 
z
" id="DejaVuSans-67"/>
     <path d="M 9.8125 72.90625 
L 19.671875 72.90625 
L 19.671875 43.015625 
L 55.515625 43.015625 
L 55.515625 72.90625 
L 65.375 72.90625 
L 65.375 0 
L 55.515625 0 
L 55.515625 34.71875 
L 19.671875 34.71875 
L 19.671875 0 
L 9.8125 0 
z
" id="DejaVuSans-72"/>
     <path d="M 46 62.703125 
L 46 35.5 
L 73.1875 35.5 
L 73.1875 27.203125 
L 46 27.203125 
L 46 0 
L 37.796875 0 
L 37.796875 27.203125 
L 10.59375 27.203125 
L 10.59375 35.5 
L 37.796875 35.5 
L 37.796875 62.703125 
z
" id="DejaVuSans-43"/>
     <path d="M 39.40625 66.21875 
Q 28.65625 66.21875 22.328125 58.203125 
Q 16.015625 50.203125 16.015625 36.375 
Q 16.015625 22.609375 22.328125 14.59375 
Q 28.65625 6.59375 39.40625 6.59375 
Q 50.140625 6.59375 56.421875 14.59375 
Q 62.703125 22.609375 62.703125 36.375 
Q 62.703125 50.203125 56.421875 58.203125 
Q 50.140625 66.21875 39.40625 66.21875 
z
M 39.40625 74.21875 
Q 54.734375 74.21875 63.90625 63.9375 
Q 73.09375 53.65625 73.09375 36.375 
Q 73.09375 19.140625 63.90625 8.859375 
Q 54.734375 -1.421875 39.40625 -1.421875 
Q 24.03125 -1.421875 14.8125 8.828125 
Q 5.609375 19.09375 5.609375 36.375 
Q 5.609375 53.65625 14.8125 63.9375 
Q 24.03125 74.21875 39.40625 74.21875 
z
" id="DejaVuSans-79"/>
     <path d="M 73.1875 49.21875 
L 22.796875 31.296875 
L 73.1875 13.484375 
L 73.1875 4.59375 
L 10.59375 27.296875 
L 10.59375 35.40625 
L 73.1875 58.109375 
z
" id="DejaVuSans-60"/>
     <path d="M 10.59375 45.40625 
L 73.1875 45.40625 
L 73.1875 37.203125 
L 10.59375 37.203125 
z
M 10.59375 25.484375 
L 73.1875 25.484375 
L 73.1875 17.1875 
L 10.59375 17.1875 
z
" id="DejaVuSans-61"/>
     <path d="M 10.59375 49.21875 
L 10.59375 58.109375 
L 73.1875 35.40625 
L 73.1875 27.296875 
L 10.59375 4.59375 
L 10.59375 13.484375 
L 60.890625 31.296875 
z
" id="DejaVuSans-62"/>
    </defs>
    <g transform="translate(133.470937 16.318125)scale(0.12 -0.12)">
     <use xlink:href="#DejaVuSans-67"/>
     <use x="69.824219" xlink:href="#DejaVuSans-72"/>
     <use x="145.019531" xlink:href="#DejaVuSans-52"/>
     <use x="208.642578" xlink:href="#DejaVuSans-32"/>
     <use x="240.429688" xlink:href="#DejaVuSans-43"/>
     <use x="324.21875" xlink:href="#DejaVuSans-32"/>
     <use x="356.005859" xlink:href="#DejaVuSans-79"/>
     <use x="434.716797" xlink:href="#DejaVuSans-72"/>
     <use x="509.912109" xlink:href="#DejaVuSans-32"/>
     <use x="541.699219" xlink:href="#DejaVuSans-60"/>
     <use x="625.488281" xlink:href="#DejaVuSans-61"/>
     <use x="709.277344" xlink:href="#DejaVuSans-62"/>
     <use x="793.066406" xlink:href="#DejaVuSans-32"/>
     <use x="824.853516" xlink:href="#DejaVuSans-67"/>
     <use x="894.677734" xlink:href="#DejaVuSans-72"/>
     <use x="969.873047" xlink:href="#DejaVuSans-51"/>
     <use x="1033.496094" xlink:href="#DejaVuSans-32"/>
     <use x="1065.283203" xlink:href="#DejaVuSans-43"/>
     <use x="1149.072266" xlink:href="#DejaVuSans-32"/>
     <use x="1180.859375" xlink:href="#DejaVuSans-72"/>
     <use x="1256.054688" xlink:href="#DejaVuSans-50"/>
     <use x="1319.677734" xlink:href="#DejaVuSans-79"/>
    </g>
   </g>
  </g>
 </g>
 <defs>
  <clipPath id="pf3f516faa9">
   <rect height="217.44" width="334.8" x="49.978125" y="22.318125"/>
  </clipPath>
 </defs>
</svg>
