<?xml version="1.0" encoding="utf-8" standalone="no"?>
<!DOCTYPE svg PUBLIC "-//W3C//DTD SVG 1.1//EN"
  "http://www.w3.org/Graphics/SVG/1.1/DTD/svg11.dtd">
<!-- Created with matplotlib (https://matplotlib.org/) -->
<svg height="277.314375pt" version="1.1" viewBox="0 0 398.828125 277.314375" width="398.828125pt" xmlns="http://www.w3.org/2000/svg" xmlns:xlink="http://www.w3.org/1999/xlink">
 <defs>
  <style type="text/css">
*{stroke-linecap:butt;stroke-linejoin:round;}
  </style>
 </defs>
 <g id="figure_1">
  <g id="patch_1">
   <path d="M 0 277.314375 
L 398.828125 277.314375 
L 398.828125 0 
L 0 0 
z
" style="fill:none;"/>
  </g>
  <g id="axes_1">
   <g id="patch_2">
    <path d="M 53.328125 239.758125 
L 388.128125 239.758125 
L 388.128125 22.318125 
L 53.328125 22.318125 
z
" style="fill:none;"/>
   </g>
   <g id="matplotlib.axis_1">
    <g id="xtick_1">
     <g id="line2d_1">
      <defs>
       <path d="M 0 0 
L 0 3.5 
" id="m81d996e10f" style="stroke:#000000;stroke-width:0.8;"/>
      </defs>
      <g>
       <use style="stroke:#000000;stroke-width:0.8;" x="68.546307" xlink:href="#m81d996e10f" y="239.758125"/>
      </g>
     </g>
     <g id="text_1">
      <!-- 0.0 -->
      <defs>
       <path d="M 31.78125 66.40625 
Q 24.171875 66.40625 20.328125 58.90625 
Q 16.5 51.421875 16.5 36.375 
Q 16.5 21.390625 20.328125 13.890625 
Q 24.171875 6.390625 31.78125 6.390625 
Q 39.453125 6.390625 43.28125 13.890625 
Q 47.125 21.390625 47.125 36.375 
Q 47.125 51.421875 43.28125 58.90625 
Q 39.453125 66.40625 31.78125 66.40625 
z
M 31.78125 74.21875 
Q 44.046875 74.21875 50.515625 64.515625 
Q 56.984375 54.828125 56.984375 36.375 
Q 56.984375 17.96875 50.515625 8.265625 
Q 44.046875 -1.421875 31.78125 -1.421875 
Q 19.53125 -1.421875 13.0625 8.265625 
Q 6.59375 17.96875 6.59375 36.375 
Q 6.59375 54.828125 13.0625 64.515625 
Q 19.53125 74.21875 31.78125 74.21875 
z
" id="DejaVuSans-48"/>
       <path d="M 10.6875 12.40625 
L 21 12.40625 
L 21 0 
L 10.6875 0 
z
" id="DejaVuSans-46"/>
      </defs>
      <g transform="translate(60.594744 254.356562)scale(0.1 -0.1)">
       <use xlink:href="#DejaVuSans-48"/>
       <use x="63.623047" xlink:href="#DejaVuSans-46"/>
       <use x="95.410156" xlink:href="#DejaVuSans-48"/>
      </g>
     </g>
    </g>
    <g id="xtick_2">
     <g id="line2d_2">
      <g>
       <use style="stroke:#000000;stroke-width:0.8;" x="119.130106" xlink:href="#m81d996e10f" y="239.758125"/>
      </g>
     </g>
     <g id="text_2">
      <!-- 0.5 -->
      <defs>
       <path d="M 10.796875 72.90625 
L 49.515625 72.90625 
L 49.515625 64.59375 
L 19.828125 64.59375 
L 19.828125 46.734375 
Q 21.96875 47.46875 24.109375 47.828125 
Q 26.265625 48.1875 28.421875 48.1875 
Q 40.625 48.1875 47.75 41.5 
Q 54.890625 34.8125 54.890625 23.390625 
Q 54.890625 11.625 47.5625 5.09375 
Q 40.234375 -1.421875 26.90625 -1.421875 
Q 22.3125 -1.421875 17.546875 -0.640625 
Q 12.796875 0.140625 7.71875 1.703125 
L 7.71875 11.625 
Q 12.109375 9.234375 16.796875 8.0625 
Q 21.484375 6.890625 26.703125 6.890625 
Q 35.15625 6.890625 40.078125 11.328125 
Q 45.015625 15.765625 45.015625 23.390625 
Q 45.015625 31 40.078125 35.4375 
Q 35.15625 39.890625 26.703125 39.890625 
Q 22.75 39.890625 18.8125 39.015625 
Q 14.890625 38.140625 10.796875 36.28125 
z
" id="DejaVuSans-53"/>
      </defs>
      <g transform="translate(111.178544 254.356562)scale(0.1 -0.1)">
       <use xlink:href="#DejaVuSans-48"/>
       <use x="63.623047" xlink:href="#DejaVuSans-46"/>
       <use x="95.410156" xlink:href="#DejaVuSans-53"/>
      </g>
     </g>
    </g>
    <g id="xtick_3">
     <g id="line2d_3">
      <g>
       <use style="stroke:#000000;stroke-width:0.8;" x="169.713905" xlink:href="#m81d996e10f" y="239.758125"/>
      </g>
     </g>
     <g id="text_3">
      <!-- 1.0 -->
      <defs>
       <path d="M 12.40625 8.296875 
L 28.515625 8.296875 
L 28.515625 63.921875 
L 10.984375 60.40625 
L 10.984375 69.390625 
L 28.421875 72.90625 
L 38.28125 72.90625 
L 38.28125 8.296875 
L 54.390625 8.296875 
L 54.390625 0 
L 12.40625 0 
z
" id="DejaVuSans-49"/>
      </defs>
      <g transform="translate(161.762343 254.356562)scale(0.1 -0.1)">
       <use xlink:href="#DejaVuSans-49"/>
       <use x="63.623047" xlink:href="#DejaVuSans-46"/>
       <use x="95.410156" xlink:href="#DejaVuSans-48"/>
      </g>
     </g>
    </g>
    <g id="xtick_4">
     <g id="line2d_4">
      <g>
       <use style="stroke:#000000;stroke-width:0.8;" x="220.297704" xlink:href="#m81d996e10f" y="239.758125"/>
      </g>
     </g>
     <g id="text_4">
      <!-- 1.5 -->
      <g transform="translate(212.346142 254.356562)scale(0.1 -0.1)">
       <use xlink:href="#DejaVuSans-49"/>
       <use x="63.623047" xlink:href="#DejaVuSans-46"/>
       <use x="95.410156" xlink:href="#DejaVuSans-53"/>
      </g>
     </g>
    </g>
    <g id="xtick_5">
     <g id="line2d_5">
      <g>
       <use style="stroke:#000000;stroke-width:0.8;" x="270.881504" xlink:href="#m81d996e10f" y="239.758125"/>
      </g>
     </g>
     <g id="text_5">
      <!-- 2.0 -->
      <defs>
       <path d="M 19.1875 8.296875 
L 53.609375 8.296875 
L 53.609375 0 
L 7.328125 0 
L 7.328125 8.296875 
Q 12.9375 14.109375 22.625 23.890625 
Q 32.328125 33.6875 34.8125 36.53125 
Q 39.546875 41.84375 41.421875 45.53125 
Q 43.3125 49.21875 43.3125 52.78125 
Q 43.3125 58.59375 39.234375 62.25 
Q 35.15625 65.921875 28.609375 65.921875 
Q 23.96875 65.921875 18.8125 64.3125 
Q 13.671875 62.703125 7.8125 59.421875 
L 7.8125 69.390625 
Q 13.765625 71.78125 18.9375 73 
Q 24.125 74.21875 28.421875 74.21875 
Q 39.75 74.21875 46.484375 68.546875 
Q 53.21875 62.890625 53.21875 53.421875 
Q 53.21875 48.921875 51.53125 44.890625 
Q 49.859375 40.875 45.40625 35.40625 
Q 44.1875 33.984375 37.640625 27.21875 
Q 31.109375 20.453125 19.1875 8.296875 
z
" id="DejaVuSans-50"/>
      </defs>
      <g transform="translate(262.929941 254.356562)scale(0.1 -0.1)">
       <use xlink:href="#DejaVuSans-50"/>
       <use x="63.623047" xlink:href="#DejaVuSans-46"/>
       <use x="95.410156" xlink:href="#DejaVuSans-48"/>
      </g>
     </g>
    </g>
    <g id="xtick_6">
     <g id="line2d_6">
      <g>
       <use style="stroke:#000000;stroke-width:0.8;" x="321.465303" xlink:href="#m81d996e10f" y="239.758125"/>
      </g>
     </g>
     <g id="text_6">
      <!-- 2.5 -->
      <g transform="translate(313.51374 254.356562)scale(0.1 -0.1)">
       <use xlink:href="#DejaVuSans-50"/>
       <use x="63.623047" xlink:href="#DejaVuSans-46"/>
       <use x="95.410156" xlink:href="#DejaVuSans-53"/>
      </g>
     </g>
    </g>
    <g id="xtick_7">
     <g id="line2d_7">
      <g>
       <use style="stroke:#000000;stroke-width:0.8;" x="372.049102" xlink:href="#m81d996e10f" y="239.758125"/>
      </g>
     </g>
     <g id="text_7">
      <!-- 3.0 -->
      <defs>
       <path d="M 40.578125 39.3125 
Q 47.65625 37.796875 51.625 33 
Q 55.609375 28.21875 55.609375 21.1875 
Q 55.609375 10.40625 48.1875 4.484375 
Q 40.765625 -1.421875 27.09375 -1.421875 
Q 22.515625 -1.421875 17.65625 -0.515625 
Q 12.796875 0.390625 7.625 2.203125 
L 7.625 11.71875 
Q 11.71875 9.328125 16.59375 8.109375 
Q 21.484375 6.890625 26.8125 6.890625 
Q 36.078125 6.890625 40.9375 10.546875 
Q 45.796875 14.203125 45.796875 21.1875 
Q 45.796875 27.640625 41.28125 31.265625 
Q 36.765625 34.90625 28.71875 34.90625 
L 20.21875 34.90625 
L 20.21875 43.015625 
L 29.109375 43.015625 
Q 36.375 43.015625 40.234375 45.921875 
Q 44.09375 48.828125 44.09375 54.296875 
Q 44.09375 59.90625 40.109375 62.90625 
Q 36.140625 65.921875 28.71875 65.921875 
Q 24.65625 65.921875 20.015625 65.03125 
Q 15.375 64.15625 9.8125 62.3125 
L 9.8125 71.09375 
Q 15.4375 72.65625 20.34375 73.4375 
Q 25.25 74.21875 29.59375 74.21875 
Q 40.828125 74.21875 47.359375 69.109375 
Q 53.90625 64.015625 53.90625 55.328125 
Q 53.90625 49.265625 50.4375 45.09375 
Q 46.96875 40.921875 40.578125 39.3125 
z
" id="DejaVuSans-51"/>
      </defs>
      <g transform="translate(364.09754 254.356562)scale(0.1 -0.1)">
       <use xlink:href="#DejaVuSans-51"/>
       <use x="63.623047" xlink:href="#DejaVuSans-46"/>
       <use x="95.410156" xlink:href="#DejaVuSans-48"/>
      </g>
     </g>
    </g>
    <g id="text_8">
     <!-- Time (ms) -->
     <defs>
      <path d="M -0.296875 72.90625 
L 61.375 72.90625 
L 61.375 64.59375 
L 35.5 64.59375 
L 35.5 0 
L 25.59375 0 
L 25.59375 64.59375 
L -0.296875 64.59375 
z
" id="DejaVuSans-84"/>
      <path d="M 9.421875 54.6875 
L 18.40625 54.6875 
L 18.40625 0 
L 9.421875 0 
z
M 9.421875 75.984375 
L 18.40625 75.984375 
L 18.40625 64.59375 
L 9.421875 64.59375 
z
" id="DejaVuSans-105"/>
      <path d="M 52 44.1875 
Q 55.375 50.25 60.0625 53.125 
Q 64.75 56 71.09375 56 
Q 79.640625 56 84.28125 50.015625 
Q 88.921875 44.046875 88.921875 33.015625 
L 88.921875 0 
L 79.890625 0 
L 79.890625 32.71875 
Q 79.890625 40.578125 77.09375 44.375 
Q 74.3125 48.1875 68.609375 48.1875 
Q 61.625 48.1875 57.5625 43.546875 
Q 53.515625 38.921875 53.515625 30.90625 
L 53.515625 0 
L 44.484375 0 
L 44.484375 32.71875 
Q 44.484375 40.625 41.703125 44.40625 
Q 38.921875 48.1875 33.109375 48.1875 
Q 26.21875 48.1875 22.15625 43.53125 
Q 18.109375 38.875 18.109375 30.90625 
L 18.109375 0 
L 9.078125 0 
L 9.078125 54.6875 
L 18.109375 54.6875 
L 18.109375 46.1875 
Q 21.1875 51.21875 25.484375 53.609375 
Q 29.78125 56 35.6875 56 
Q 41.65625 56 45.828125 52.96875 
Q 50 49.953125 52 44.1875 
z
" id="DejaVuSans-109"/>
      <path d="M 56.203125 29.59375 
L 56.203125 25.203125 
L 14.890625 25.203125 
Q 15.484375 15.921875 20.484375 11.0625 
Q 25.484375 6.203125 34.421875 6.203125 
Q 39.59375 6.203125 44.453125 7.46875 
Q 49.3125 8.734375 54.109375 11.28125 
L 54.109375 2.78125 
Q 49.265625 0.734375 44.1875 -0.34375 
Q 39.109375 -1.421875 33.890625 -1.421875 
Q 20.796875 -1.421875 13.15625 6.1875 
Q 5.515625 13.8125 5.515625 26.8125 
Q 5.515625 40.234375 12.765625 48.109375 
Q 20.015625 56 32.328125 56 
Q 43.359375 56 49.78125 48.890625 
Q 56.203125 41.796875 56.203125 29.59375 
z
M 47.21875 32.234375 
Q 47.125 39.59375 43.09375 43.984375 
Q 39.0625 48.390625 32.421875 48.390625 
Q 24.90625 48.390625 20.390625 44.140625 
Q 15.875 39.890625 15.1875 32.171875 
z
" id="DejaVuSans-101"/>
      <path id="DejaVuSans-32"/>
      <path d="M 31 75.875 
Q 24.46875 64.65625 21.28125 53.65625 
Q 18.109375 42.671875 18.109375 31.390625 
Q 18.109375 20.125 21.3125 9.0625 
Q 24.515625 -2 31 -13.1875 
L 23.1875 -13.1875 
Q 15.875 -1.703125 12.234375 9.375 
Q 8.59375 20.453125 8.59375 31.390625 
Q 8.59375 42.28125 12.203125 53.3125 
Q 15.828125 64.359375 23.1875 75.875 
z
" id="DejaVuSans-40"/>
      <path d="M 44.28125 53.078125 
L 44.28125 44.578125 
Q 40.484375 46.53125 36.375 47.5 
Q 32.28125 48.484375 27.875 48.484375 
Q 21.1875 48.484375 17.84375 46.4375 
Q 14.5 44.390625 14.5 40.28125 
Q 14.5 37.15625 16.890625 35.375 
Q 19.28125 33.59375 26.515625 31.984375 
L 29.59375 31.296875 
Q 39.15625 29.25 43.1875 25.515625 
Q 47.21875 21.78125 47.21875 15.09375 
Q 47.21875 7.46875 41.1875 3.015625 
Q 35.15625 -1.421875 24.609375 -1.421875 
Q 20.21875 -1.421875 15.453125 -0.5625 
Q 10.6875 0.296875 5.421875 2 
L 5.421875 11.28125 
Q 10.40625 8.6875 15.234375 7.390625 
Q 20.0625 6.109375 24.8125 6.109375 
Q 31.15625 6.109375 34.5625 8.28125 
Q 37.984375 10.453125 37.984375 14.40625 
Q 37.984375 18.0625 35.515625 20.015625 
Q 33.0625 21.96875 24.703125 23.78125 
L 21.578125 24.515625 
Q 13.234375 26.265625 9.515625 29.90625 
Q 5.8125 33.546875 5.8125 39.890625 
Q 5.8125 47.609375 11.28125 51.796875 
Q 16.75 56 26.8125 56 
Q 31.78125 56 36.171875 55.265625 
Q 40.578125 54.546875 44.28125 53.078125 
z
" id="DejaVuSans-115"/>
      <path d="M 8.015625 75.875 
L 15.828125 75.875 
Q 23.140625 64.359375 26.78125 53.3125 
Q 30.421875 42.28125 30.421875 31.390625 
Q 30.421875 20.453125 26.78125 9.375 
Q 23.140625 -1.703125 15.828125 -13.1875 
L 8.015625 -13.1875 
Q 14.5 -2 17.703125 9.0625 
Q 20.90625 20.125 20.90625 31.390625 
Q 20.90625 42.671875 17.703125 53.65625 
Q 14.5 64.65625 8.015625 75.875 
z
" id="DejaVuSans-41"/>
     </defs>
     <g transform="translate(195.375 268.034687)scale(0.1 -0.1)">
      <use xlink:href="#DejaVuSans-84"/>
      <use x="61.037109" xlink:href="#DejaVuSans-105"/>
      <use x="88.820312" xlink:href="#DejaVuSans-109"/>
      <use x="186.232422" xlink:href="#DejaVuSans-101"/>
      <use x="247.755859" xlink:href="#DejaVuSans-32"/>
      <use x="279.542969" xlink:href="#DejaVuSans-40"/>
      <use x="318.556641" xlink:href="#DejaVuSans-109"/>
      <use x="415.96875" xlink:href="#DejaVuSans-115"/>
      <use x="468.068359" xlink:href="#DejaVuSans-41"/>
     </g>
    </g>
   </g>
   <g id="matplotlib.axis_2">
    <g id="ytick_1">
     <g id="line2d_8">
      <defs>
       <path d="M 0 0 
L -3.5 0 
" id="m2ff7784a48" style="stroke:#000000;stroke-width:0.8;"/>
      </defs>
      <g>
       <use style="stroke:#000000;stroke-width:0.8;" x="53.328125" xlink:href="#m2ff7784a48" y="214.153748"/>
      </g>
     </g>
     <g id="text_9">
      <!-- 1000 -->
      <g transform="translate(20.878125 217.952967)scale(0.1 -0.1)">
       <use xlink:href="#DejaVuSans-49"/>
       <use x="63.623047" xlink:href="#DejaVuSans-48"/>
       <use x="127.246094" xlink:href="#DejaVuSans-48"/>
       <use x="190.869141" xlink:href="#DejaVuSans-48"/>
      </g>
     </g>
    </g>
    <g id="ytick_2">
     <g id="line2d_9">
      <g>
       <use style="stroke:#000000;stroke-width:0.8;" x="53.328125" xlink:href="#m2ff7784a48" y="170.485024"/>
      </g>
     </g>
     <g id="text_10">
      <!-- 1500 -->
      <g transform="translate(20.878125 174.284243)scale(0.1 -0.1)">
       <use xlink:href="#DejaVuSans-49"/>
       <use x="63.623047" xlink:href="#DejaVuSans-53"/>
       <use x="127.246094" xlink:href="#DejaVuSans-48"/>
       <use x="190.869141" xlink:href="#DejaVuSans-48"/>
      </g>
     </g>
    </g>
    <g id="ytick_3">
     <g id="line2d_10">
      <g>
       <use style="stroke:#000000;stroke-width:0.8;" x="53.328125" xlink:href="#m2ff7784a48" y="126.8163"/>
      </g>
     </g>
     <g id="text_11">
      <!-- 2000 -->
      <g transform="translate(20.878125 130.615519)scale(0.1 -0.1)">
       <use xlink:href="#DejaVuSans-50"/>
       <use x="63.623047" xlink:href="#DejaVuSans-48"/>
       <use x="127.246094" xlink:href="#DejaVuSans-48"/>
       <use x="190.869141" xlink:href="#DejaVuSans-48"/>
      </g>
     </g>
    </g>
    <g id="ytick_4">
     <g id="line2d_11">
      <g>
       <use style="stroke:#000000;stroke-width:0.8;" x="53.328125" xlink:href="#m2ff7784a48" y="83.147576"/>
      </g>
     </g>
     <g id="text_12">
      <!-- 2500 -->
      <g transform="translate(20.878125 86.946794)scale(0.1 -0.1)">
       <use xlink:href="#DejaVuSans-50"/>
       <use x="63.623047" xlink:href="#DejaVuSans-53"/>
       <use x="127.246094" xlink:href="#DejaVuSans-48"/>
       <use x="190.869141" xlink:href="#DejaVuSans-48"/>
      </g>
     </g>
    </g>
    <g id="ytick_5">
     <g id="line2d_12">
      <g>
       <use style="stroke:#000000;stroke-width:0.8;" x="53.328125" xlink:href="#m2ff7784a48" y="39.478852"/>
      </g>
     </g>
     <g id="text_13">
      <!-- 3000 -->
      <g transform="translate(20.878125 43.27807)scale(0.1 -0.1)">
       <use xlink:href="#DejaVuSans-51"/>
       <use x="63.623047" xlink:href="#DejaVuSans-48"/>
       <use x="127.246094" xlink:href="#DejaVuSans-48"/>
       <use x="190.869141" xlink:href="#DejaVuSans-48"/>
      </g>
     </g>
    </g>
    <g id="text_14">
     <!-- ppmH2O -->
     <defs>
      <path d="M 18.109375 8.203125 
L 18.109375 -20.796875 
L 9.078125 -20.796875 
L 9.078125 54.6875 
L 18.109375 54.6875 
L 18.109375 46.390625 
Q 20.953125 51.265625 25.265625 53.625 
Q 29.59375 56 35.59375 56 
Q 45.5625 56 51.78125 48.09375 
Q 58.015625 40.1875 58.015625 27.296875 
Q 58.015625 14.40625 51.78125 6.484375 
Q 45.5625 -1.421875 35.59375 -1.421875 
Q 29.59375 -1.421875 25.265625 0.953125 
Q 20.953125 3.328125 18.109375 8.203125 
z
M 48.6875 27.296875 
Q 48.6875 37.203125 44.609375 42.84375 
Q 40.53125 48.484375 33.40625 48.484375 
Q 26.265625 48.484375 22.1875 42.84375 
Q 18.109375 37.203125 18.109375 27.296875 
Q 18.109375 17.390625 22.1875 11.75 
Q 26.265625 6.109375 33.40625 6.109375 
Q 40.53125 6.109375 44.609375 11.75 
Q 48.6875 17.390625 48.6875 27.296875 
z
" id="DejaVuSans-112"/>
      <path d="M 9.8125 72.90625 
L 19.671875 72.90625 
L 19.671875 43.015625 
L 55.515625 43.015625 
L 55.515625 72.90625 
L 65.375 72.90625 
L 65.375 0 
L 55.515625 0 
L 55.515625 34.71875 
L 19.671875 34.71875 
L 19.671875 0 
L 9.8125 0 
z
" id="DejaVuSans-72"/>
      <path d="M 39.40625 66.21875 
Q 28.65625 66.21875 22.328125 58.203125 
Q 16.015625 50.203125 16.015625 36.375 
Q 16.015625 22.609375 22.328125 14.59375 
Q 28.65625 6.59375 39.40625 6.59375 
Q 50.140625 6.59375 56.421875 14.59375 
Q 62.703125 22.609375 62.703125 36.375 
Q 62.703125 50.203125 56.421875 58.203125 
Q 50.140625 66.21875 39.40625 66.21875 
z
M 39.40625 74.21875 
Q 54.734375 74.21875 63.90625 63.9375 
Q 73.09375 53.65625 73.09375 36.375 
Q 73.09375 19.140625 63.90625 8.859375 
Q 54.734375 -1.421875 39.40625 -1.421875 
Q 24.03125 -1.421875 14.8125 8.828125 
Q 5.609375 19.09375 5.609375 36.375 
Q 5.609375 53.65625 14.8125 63.9375 
Q 24.03125 74.21875 39.40625 74.21875 
z
" id="DejaVuSans-79"/>
     </defs>
     <g transform="translate(14.798438 153.134219)rotate(-90)scale(0.1 -0.1)">
      <use xlink:href="#DejaVuSans-112"/>
      <use x="63.476562" xlink:href="#DejaVuSans-112"/>
      <use x="126.953125" xlink:href="#DejaVuSans-109"/>
      <use x="224.365234" xlink:href="#DejaVuSans-72"/>
      <use x="299.560547" xlink:href="#DejaVuSans-50"/>
      <use x="363.183594" xlink:href="#DejaVuSans-79"/>
     </g>
    </g>
   </g>
   <g id="line2d_13">
    <path clip-path="url(#p4ea010489d)" d="M 68.546307 228.804049 
L 68.654719 228.701827 
L 68.942012 227.997521 
L 70.610214 222.915683 
L 72.628151 216.102982 
L 76.856292 200.764711 
L 80.980315 186.229737 
L 84.458972 174.808635 
L 87.513046 165.488458 
L 90.791369 156.211355 
L 94.069692 147.652021 
L 97.03731 140.48444 
L 100.01349 133.812605 
L 102.989671 127.62179 
L 105.965851 121.877112 
L 108.748402 116.880408 
L 111.797097 111.790131 
L 114.845791 107.071385 
L 117.894486 102.69512 
L 120.94318 98.634486 
L 124.754048 93.965023 
L 128.564916 89.706152 
L 132.042406 86.144495 
L 135.519895 82.864529 
L 138.997384 79.841634 
L 142.474873 77.053503 
L 147.111525 73.666526 
L 151.748177 70.618438 
L 156.384829 67.871717 
L 161.021481 65.393397 
L 165.658133 63.154482 
L 170.294785 61.129433 
L 176.0906 58.864808 
L 181.886415 56.861023 
L 187.68223 55.085177 
L 194.637209 53.21545 
L 201.592187 51.591717 
L 208.547165 50.178945 
L 216.661306 48.758171 
L 225.93461 47.386974 
L 235.207914 46.239601 
L 245.046979 45.223856 
L 256.328088 44.267772 
L 269.489381 43.377352 
L 284.530859 42.590084 
L 301.452522 41.925516 
L 322.134554 41.343173 
L 346.576956 40.879213 
L 372.899543 40.557172 
L 372.899543 40.557172 
" style="fill:none;stroke:#0000ff;stroke-linecap:square;stroke-width:1.5;"/>
   </g>
   <g id="line2d_14">
    <path clip-path="url(#p4ea010489d)" d="M 68.546307 229.874489 
L 68.646608 229.772949 
L 68.89464 229.07553 
L 70.038276 224.809748 
L 72.098515 216.434295 
L 80.574367 180.854191 
L 83.56454 169.617996 
L 86.554713 159.231932 
L 89.441237 149.985655 
L 92.214377 141.784507 
L 94.987517 134.208773 
L 97.973529 126.701171 
L 101.140772 119.416587 
L 104.308016 112.771627 
L 107.475259 106.709835 
L 110.387305 101.60602 
L 113.5662 96.50262 
L 116.745095 91.844269 
L 119.92399 87.590018 
L 123.102885 83.702634 
L 126.281781 80.148341 
L 129.460676 76.896542 
L 132.639571 73.919547 
L 135.818466 71.192316 
L 139.792085 68.100234 
L 143.765705 65.323709 
L 147.739324 62.827933 
L 151.712943 60.58221 
L 155.686562 58.559451 
L 160.454905 56.392969 
L 165.223247 54.477125 
L 169.99159 52.780707 
L 175.554657 51.043064 
L 181.842609 49.348549 
L 188.130562 47.897411 
L 194.418514 46.652485 
L 201.964057 45.387411 
L 210.767191 44.172002 
L 220.407377 43.10022 
L 230.54899 42.204056 
L 242.616877 41.376966 
L 256.54928 40.665373 
L 273.268164 40.05882 
L 292.773529 39.58424 
L 318.555936 39.199998 
L 354.095095 38.923476 
L 372.909943 38.842627 
L 372.909943 38.842627 
" style="fill:none;stroke:#ff0000;stroke-linecap:square;stroke-width:1.5;"/>
   </g>
   <g id="line2d_15">
    <defs>
     <path d="M 0 3 
C 0.795609 3 1.55874 2.683901 2.12132 2.12132 
C 2.683901 1.55874 3 0.795609 3 0 
C 3 -0.795609 2.683901 -1.55874 2.12132 -2.12132 
C 1.55874 -2.683901 0.795609 -3 0 -3 
C -0.795609 -3 -1.55874 -2.683901 -2.12132 -2.12132 
C -2.683901 -1.55874 -3 -0.795609 -3 0 
C -3 0.795609 -2.683901 1.55874 -2.12132 2.12132 
C -1.55874 2.683901 -0.795609 3 0 3 
z
" id="m1de75f838f" style="stroke:#000000;"/>
    </defs>
    <g clip-path="url(#p4ea010489d)">
     <use style="stroke:#000000;" x="72.147873" xlink:href="#m1de75f838f" y="212.074276"/>
     <use style="stroke:#000000;" x="73.948657" xlink:href="#m1de75f838f" y="207.933129"/>
     <use style="stroke:#000000;" x="76.164227" xlink:href="#m1de75f838f" y="201.033052"/>
     <use style="stroke:#000000;" x="78.369681" xlink:href="#m1de75f838f" y="190.685442"/>
     <use style="stroke:#000000;" x="79.77591" xlink:href="#m1de75f838f" y="183.097669"/>
     <use style="stroke:#000000;" x="82.406268" xlink:href="#m1de75f838f" y="176.196683"/>
     <use style="stroke:#000000;" x="84.227285" xlink:href="#m1de75f838f" y="166.539485"/>
     <use style="stroke:#000000;" x="86.351804" xlink:href="#m1de75f838f" y="159.639416"/>
     <use style="stroke:#000000;" x="88.375156" xlink:href="#m1de75f838f" y="154.808301"/>
     <use style="stroke:#000000;" x="91.612519" xlink:href="#m1de75f838f" y="145.837418"/>
     <use style="stroke:#000000;" x="94.242877" xlink:href="#m1de75f838f" y="138.936432"/>
     <use style="stroke:#000000;" x="96.266229" xlink:href="#m1de75f838f" y="129.278779"/>
     <use style="stroke:#000000;" x="98.593084" xlink:href="#m1de75f838f" y="123.06775"/>
     <use style="stroke:#000000;" x="100.818771" xlink:href="#m1de75f838f" y="117.546679"/>
     <use style="stroke:#000000;" x="104.056134" xlink:href="#m1de75f838f" y="112.712839"/>
     <use style="stroke:#000000;" x="107.091162" xlink:href="#m1de75f838f" y="104.431921"/>
     <use style="stroke:#000000;" x="110.12619" xlink:href="#m1de75f838f" y="100.977524"/>
     <use style="stroke:#000000;" x="113.667056" xlink:href="#m1de75f838f" y="93.384747"/>
     <use style="stroke:#000000;" x="116.499748" xlink:href="#m1de75f838f" y="90.620342"/>
     <use style="stroke:#000000;" x="120.546452" xlink:href="#m1de75f838f" y="86.474172"/>
     <use style="stroke:#000000;" x="123.986151" xlink:href="#m1de75f838f" y="83.018893"/>
     <use style="stroke:#000000;" x="128.741028" xlink:href="#m1de75f838f" y="75.423364"/>
     <use style="stroke:#000000;" x="132.383061" xlink:href="#m1de75f838f" y="71.96764"/>
     <use style="stroke:#000000;" x="135.620425" xlink:href="#m1de75f838f" y="70.581324"/>
     <use style="stroke:#000000;" x="138.75662" xlink:href="#m1de75f838f" y="67.126482"/>
     <use style="stroke:#000000;" x="143.41033" xlink:href="#m1de75f838f" y="63.668443"/>
     <use style="stroke:#000000;" x="147.861704" xlink:href="#m1de75f838f" y="61.589899"/>
     <use style="stroke:#000000;" x="153.223587" xlink:href="#m1de75f838f" y="58.130043"/>
     <use style="stroke:#000000;" x="159.293643" xlink:href="#m1de75f838f" y="52.600299"/>
     <use style="stroke:#000000;" x="163.340347" xlink:href="#m1de75f838f" y="49.143649"/>
     <use style="stroke:#000000;" x="167.285883" xlink:href="#m1de75f838f" y="48.44501"/>
     <use style="stroke:#000000;" x="171.941919" xlink:href="#m1de75f838f" y="49.813544"/>
     <use style="stroke:#000000;" x="177.967461" xlink:href="#m1de75f838f" y="48.420835"/>
     <use style="stroke:#000000;" x="182.386057" xlink:href="#m1de75f838f" y="46.342282"/>
     <use style="stroke:#000000;" x="187.005775" xlink:href="#m1de75f838f" y="45.642282"/>
     <use style="stroke:#000000;" x="191.625593" xlink:href="#m1de75f838f" y="45.631775"/>
     <use style="stroke:#000000;" x="197.249702" xlink:href="#m1de75f838f" y="45.618997"/>
     <use style="stroke:#000000;" x="202.672589" xlink:href="#m1de75f838f" y="43.538165"/>
     <use style="stroke:#000000;" x="207.694144" xlink:href="#m1de75f838f" y="43.526768"/>
     <use style="stroke:#000000;" x="213.117334" xlink:href="#m1de75f838f" y="42.824924"/>
     <use style="stroke:#000000;" x="217.937869" xlink:href="#m1de75f838f" y="42.124478"/>
     <use style="stroke:#000000;" x="223.963614" xlink:href="#m1de75f838f" y="41.42128"/>
     <use style="stroke:#000000;" x="229.788439" xlink:href="#m1de75f838f" y="40.718519"/>
     <use style="stroke:#000000;" x="232.600595" xlink:href="#m1de75f838f" y="40.712144"/>
     <use style="stroke:#000000;" x="236.617758" xlink:href="#m1de75f838f" y="40.703026"/>
     <use style="stroke:#000000;" x="240.434204" xlink:href="#m1de75f838f" y="40.694344"/>
     <use style="stroke:#000000;" x="246.459747" xlink:href="#m1de75f838f" y="39.301644"/>
     <use style="stroke:#000000;" x="250.075274" xlink:href="#m1de75f838f" y="39.293434"/>
     <use style="stroke:#000000;" x="254.092538" xlink:href="#m1de75f838f" y="39.284307"/>
     <use style="stroke:#000000;" x="258.712256" xlink:href="#m1de75f838f" y="38.584307"/>
     <use style="stroke:#000000;" x="264.938818" xlink:href="#m1de75f838f" y="37.880664"/>
     <use style="stroke:#000000;" x="271.968954" xlink:href="#m1de75f838f" y="37.864681"/>
     <use style="stroke:#000000;" x="278.396435" xlink:href="#m1de75f838f" y="37.160566"/>
     <use style="stroke:#000000;" x="282.815436" xlink:href="#m1de75f838f" y="37.150523"/>
     <use style="stroke:#000000;" x="286.832599" xlink:href="#m1de75f838f" y="37.141405"/>
     <use style="stroke:#000000;" x="291.45262" xlink:href="#m1de75f838f" y="37.820418"/>
     <use style="stroke:#000000;" x="297.076931" xlink:href="#m1de75f838f" y="38.497135"/>
     <use style="stroke:#000000;" x="301.69675" xlink:href="#m1de75f838f" y="38.486646"/>
     <use style="stroke:#000000;" x="307.320859" xlink:href="#m1de75f838f" y="38.473877"/>
     <use style="stroke:#000000;" x="314.953448" xlink:href="#m1de75f838f" y="37.767038"/>
     <use style="stroke:#000000;" x="318.970712" xlink:href="#m1de75f838f" y="37.757902"/>
     <use style="stroke:#000000;" x="323.389713" xlink:href="#m1de75f838f" y="37.747858"/>
     <use style="stroke:#000000;" x="329.214741" xlink:href="#m1de75f838f" y="37.734618"/>
     <use style="stroke:#000000;" x="334.83885" xlink:href="#m1de75f838f" y="37.721849"/>
     <use style="stroke:#000000;" x="339.25775" xlink:href="#m1de75f838f" y="37.711805"/>
     <use style="stroke:#000000;" x="344.681041" xlink:href="#m1de75f838f" y="37.6995"/>
     <use style="stroke:#000000;" x="350.305353" xlink:href="#m1de75f838f" y="38.376216"/>
     <use style="stroke:#000000;" x="355.326604" xlink:href="#m1de75f838f" y="36.985787"/>
     <use style="stroke:#000000;" x="359.745908" xlink:href="#m1de75f838f" y="38.354766"/>
     <use style="stroke:#000000;" x="364.164808" xlink:href="#m1de75f838f" y="38.344722"/>
     <use style="stroke:#000000;" x="367.780335" xlink:href="#m1de75f838f" y="38.336513"/>
     <use style="stroke:#000000;" x="371.998316" xlink:href="#m1de75f838f" y="37.637429"/>
    </g>
   </g>
   <g id="line2d_16">
    <path clip-path="url(#p4ea010489d)" d="M 72.147873 214.295783 
L 73.948657 207.856359 
L 76.164227 199.71536 
L 78.369681 191.664612 
L 79.77591 186.634061 
L 82.406268 177.523499 
L 84.227285 171.476924 
L 86.351804 164.712456 
L 88.375156 158.560635 
L 91.612519 149.303781 
L 94.242877 142.29629 
L 96.266229 137.208745 
L 98.593084 131.660097 
L 100.818771 126.646993 
L 104.056134 119.833743 
L 107.091162 113.934949 
L 110.12619 108.462379 
L 113.667056 102.580259 
L 116.499748 98.23089 
L 120.546452 92.524277 
L 123.986151 88.096108 
L 128.741028 82.558362 
L 132.383061 78.725971 
L 135.620425 75.583956 
L 138.75662 72.763273 
L 143.41033 68.938334 
L 147.861704 65.645823 
L 153.223587 62.093879 
L 159.293643 58.562552 
L 163.340347 56.456772 
L 167.285883 54.582435 
L 171.941919 52.562424 
L 177.967461 50.231494 
L 182.386057 48.701519 
L 187.005775 47.242836 
L 191.625593 45.922401 
L 197.249702 44.470519 
L 202.672589 43.220964 
L 207.694144 42.179743 
L 213.117334 41.162997 
L 217.937869 40.348702 
L 223.963614 39.43207 
L 229.788439 38.641892 
L 232.600595 38.291948 
L 236.617758 37.821973 
L 240.434204 37.409127 
L 246.459747 36.813676 
L 250.075274 36.486817 
L 254.092538 36.147413 
L 258.712256 35.791366 
L 264.938818 35.35358 
L 271.968954 34.915429 
L 278.396435 34.56284 
L 282.815436 34.341288 
L 286.832599 34.155876 
L 291.45262 33.959713 
L 297.076931 33.740109 
L 301.69675 33.575225 
L 307.320859 33.393701 
L 314.953448 33.173189 
L 318.970712 33.068587 
L 323.389713 32.962383 
L 329.214741 32.833734 
L 334.83885 32.721249 
L 339.25775 32.640731 
L 344.681041 32.549769 
L 350.305353 32.46375 
L 355.326604 32.394354 
L 359.745908 32.337825 
L 364.164808 32.285282 
L 367.780335 32.245244 
L 371.998316 32.201761 
" style="fill:none;stroke:#0000ff;stroke-dasharray:5.55,2.4;stroke-dashoffset:0;stroke-width:1.5;"/>
   </g>
   <g id="line2d_17">
    <path clip-path="url(#p4ea010489d)" d="M 72.147873 221.133588 
L 73.948657 214.741907 
L 76.164227 206.720478 
L 78.369681 198.864724 
L 79.77591 193.994692 
L 82.406268 185.245323 
L 84.227285 179.481775 
L 86.351804 173.065973 
L 88.375156 167.258524 
L 91.612519 158.556421 
L 94.242877 151.991023 
L 96.266229 147.229005 
L 98.593084 142.046846 
L 100.818771 137.369534 
L 104.056134 131.017654 
L 107.091162 125.513135 
L 110.12619 120.414459 
L 113.667056 114.934523 
L 116.499748 110.881698 
L 120.546452 105.562191 
L 123.986151 101.43198 
L 128.741028 96.261774 
L 132.383061 92.677201 
L 135.620425 89.73668 
L 138.75662 87.095462 
L 143.41033 83.511358 
L 147.861704 80.42278 
L 153.223587 77.093838 
L 159.293643 73.770541 
L 163.340347 71.786515 
L 167.285883 70.01258 
L 171.941919 68.104284 
L 177.967461 65.896877 
L 182.386057 64.446349 
L 187.005775 63.068193 
L 191.625593 61.809654 
L 197.249702 60.432263 
L 202.672589 59.241384 
L 207.694144 58.248124 
L 213.117334 57.281729 
L 217.937869 56.502756 
L 223.963614 55.626878 
L 229.788439 54.870995 
L 232.600595 54.533955 
L 236.617758 54.084159 
L 240.434204 53.687032 
L 246.459747 53.114105 
L 250.075274 52.800967 
L 254.092538 52.47741 
L 258.712256 52.1305 
L 264.938818 51.710511 
L 271.968954 51.290519 
L 278.396435 50.949261 
L 282.815436 50.738165 
L 286.832599 50.559755 
L 291.45262 50.368638 
L 297.076931 50.15784 
L 301.69675 49.999896 
L 307.320859 49.822968 
L 314.953448 49.610793 
L 318.970712 49.510108 
L 323.389713 49.406584 
L 329.214741 49.282401 
L 334.83885 49.174109 
L 339.25775 49.095673 
L 344.681041 49.007565 
L 350.305353 48.924928 
L 355.326604 48.857216 
L 359.745908 48.802211 
L 364.164808 48.751707 
L 367.780335 48.712932 
L 371.998316 48.670504 
" style="fill:none;stroke:#0000ff;stroke-dasharray:5.55,2.4;stroke-dashoffset:0;stroke-width:1.5;"/>
   </g>
   <g id="line2d_18"/>
   <g id="line2d_19"/>
   <g id="line2d_20"/>
   <g id="line2d_21"/>
   <g id="line2d_22"/>
   <g id="line2d_23"/>
   <g id="line2d_24"/>
   <g id="patch_3">
    <path d="M 53.328125 239.758125 
L 53.328125 22.318125 
" style="fill:none;stroke:#000000;stroke-linecap:square;stroke-linejoin:miter;stroke-width:0.8;"/>
   </g>
   <g id="patch_4">
    <path d="M 388.128125 239.758125 
L 388.128125 22.318125 
" style="fill:none;stroke:#000000;stroke-linecap:square;stroke-linejoin:miter;stroke-width:0.8;"/>
   </g>
   <g id="patch_5">
    <path d="M 53.328125 239.758125 
L 388.128125 239.758125 
" style="fill:none;stroke:#000000;stroke-linecap:square;stroke-linejoin:miter;stroke-width:0.8;"/>
   </g>
   <g id="patch_6">
    <path d="M 53.328125 22.318125 
L 388.128125 22.318125 
" style="fill:none;stroke:#000000;stroke-linecap:square;stroke-linejoin:miter;stroke-width:0.8;"/>
   </g>
   <g id="text_15">
    <!-- Experiment_11 -->
    <defs>
     <path d="M 9.8125 72.90625 
L 55.90625 72.90625 
L 55.90625 64.59375 
L 19.671875 64.59375 
L 19.671875 43.015625 
L 54.390625 43.015625 
L 54.390625 34.71875 
L 19.671875 34.71875 
L 19.671875 8.296875 
L 56.78125 8.296875 
L 56.78125 0 
L 9.8125 0 
z
" id="DejaVuSans-69"/>
     <path d="M 54.890625 54.6875 
L 35.109375 28.078125 
L 55.90625 0 
L 45.3125 0 
L 29.390625 21.484375 
L 13.484375 0 
L 2.875 0 
L 24.125 28.609375 
L 4.6875 54.6875 
L 15.28125 54.6875 
L 29.78125 35.203125 
L 44.28125 54.6875 
z
" id="DejaVuSans-120"/>
     <path d="M 41.109375 46.296875 
Q 39.59375 47.171875 37.8125 47.578125 
Q 36.03125 48 33.890625 48 
Q 26.265625 48 22.1875 43.046875 
Q 18.109375 38.09375 18.109375 28.8125 
L 18.109375 0 
L 9.078125 0 
L 9.078125 54.6875 
L 18.109375 54.6875 
L 18.109375 46.1875 
Q 20.953125 51.171875 25.484375 53.578125 
Q 30.03125 56 36.53125 56 
Q 37.453125 56 38.578125 55.875 
Q 39.703125 55.765625 41.0625 55.515625 
z
" id="DejaVuSans-114"/>
     <path d="M 54.890625 33.015625 
L 54.890625 0 
L 45.90625 0 
L 45.90625 32.71875 
Q 45.90625 40.484375 42.875 44.328125 
Q 39.84375 48.1875 33.796875 48.1875 
Q 26.515625 48.1875 22.3125 43.546875 
Q 18.109375 38.921875 18.109375 30.90625 
L 18.109375 0 
L 9.078125 0 
L 9.078125 54.6875 
L 18.109375 54.6875 
L 18.109375 46.1875 
Q 21.34375 51.125 25.703125 53.5625 
Q 30.078125 56 35.796875 56 
Q 45.21875 56 50.046875 50.171875 
Q 54.890625 44.34375 54.890625 33.015625 
z
" id="DejaVuSans-110"/>
     <path d="M 18.3125 70.21875 
L 18.3125 54.6875 
L 36.8125 54.6875 
L 36.8125 47.703125 
L 18.3125 47.703125 
L 18.3125 18.015625 
Q 18.3125 11.328125 20.140625 9.421875 
Q 21.96875 7.515625 27.59375 7.515625 
L 36.8125 7.515625 
L 36.8125 0 
L 27.59375 0 
Q 17.1875 0 13.234375 3.875 
Q 9.28125 7.765625 9.28125 18.015625 
L 9.28125 47.703125 
L 2.6875 47.703125 
L 2.6875 54.6875 
L 9.28125 54.6875 
L 9.28125 70.21875 
z
" id="DejaVuSans-116"/>
     <path d="M 50.984375 -16.609375 
L 50.984375 -23.578125 
L -0.984375 -23.578125 
L -0.984375 -16.609375 
z
" id="DejaVuSans-95"/>
    </defs>
    <g transform="translate(175.425313 16.318125)scale(0.12 -0.12)">
     <use xlink:href="#DejaVuSans-69"/>
     <use x="63.183594" xlink:href="#DejaVuSans-120"/>
     <use x="122.363281" xlink:href="#DejaVuSans-112"/>
     <use x="185.839844" xlink:href="#DejaVuSans-101"/>
     <use x="247.363281" xlink:href="#DejaVuSans-114"/>
     <use x="288.476562" xlink:href="#DejaVuSans-105"/>
     <use x="316.259766" xlink:href="#DejaVuSans-109"/>
     <use x="413.671875" xlink:href="#DejaVuSans-101"/>
     <use x="475.195312" xlink:href="#DejaVuSans-110"/>
     <use x="538.574219" xlink:href="#DejaVuSans-116"/>
     <use x="577.783203" xlink:href="#DejaVuSans-95"/>
     <use x="627.783203" xlink:href="#DejaVuSans-49"/>
     <use x="691.40625" xlink:href="#DejaVuSans-49"/>
    </g>
   </g>
   <g id="legend_1">
    <g id="patch_7">
     <path d="M 131.370313 234.758125 
L 381.128125 234.758125 
Q 383.128125 234.758125 383.128125 232.758125 
L 383.128125 160.345625 
Q 383.128125 158.345625 381.128125 158.345625 
L 131.370313 158.345625 
Q 129.370313 158.345625 129.370313 160.345625 
L 129.370313 232.758125 
Q 129.370313 234.758125 131.370313 234.758125 
z
" style="fill:#ffffff;opacity:0.8;stroke:#cccccc;stroke-linejoin:miter;"/>
    </g>
    <g id="line2d_25">
     <path d="M 133.370313 166.444062 
L 153.370313 166.444062 
" style="fill:none;stroke:#0000ff;stroke-linecap:square;stroke-width:1.5;"/>
    </g>
    <g id="line2d_26"/>
    <g id="text_16">
     <!-- MSI -->
     <defs>
      <path d="M 9.8125 72.90625 
L 24.515625 72.90625 
L 43.109375 23.296875 
L 61.8125 72.90625 
L 76.515625 72.90625 
L 76.515625 0 
L 66.890625 0 
L 66.890625 64.015625 
L 48.09375 14.015625 
L 38.1875 14.015625 
L 19.390625 64.015625 
L 19.390625 0 
L 9.8125 0 
z
" id="DejaVuSans-77"/>
      <path d="M 53.515625 70.515625 
L 53.515625 60.890625 
Q 47.90625 63.578125 42.921875 64.890625 
Q 37.9375 66.21875 33.296875 66.21875 
Q 25.25 66.21875 20.875 63.09375 
Q 16.5 59.96875 16.5 54.203125 
Q 16.5 49.359375 19.40625 46.890625 
Q 22.3125 44.4375 30.421875 42.921875 
L 36.375 41.703125 
Q 47.40625 39.59375 52.65625 34.296875 
Q 57.90625 29 57.90625 20.125 
Q 57.90625 9.515625 50.796875 4.046875 
Q 43.703125 -1.421875 29.984375 -1.421875 
Q 24.8125 -1.421875 18.96875 -0.25 
Q 13.140625 0.921875 6.890625 3.21875 
L 6.890625 13.375 
Q 12.890625 10.015625 18.65625 8.296875 
Q 24.421875 6.59375 29.984375 6.59375 
Q 38.421875 6.59375 43.015625 9.90625 
Q 47.609375 13.234375 47.609375 19.390625 
Q 47.609375 24.75 44.3125 27.78125 
Q 41.015625 30.8125 33.5 32.328125 
L 27.484375 33.5 
Q 16.453125 35.6875 11.515625 40.375 
Q 6.59375 45.0625 6.59375 53.421875 
Q 6.59375 63.09375 13.40625 68.65625 
Q 20.21875 74.21875 32.171875 74.21875 
Q 37.3125 74.21875 42.625 73.28125 
Q 47.953125 72.359375 53.515625 70.515625 
z
" id="DejaVuSans-83"/>
      <path d="M 9.8125 72.90625 
L 19.671875 72.90625 
L 19.671875 0 
L 9.8125 0 
z
" id="DejaVuSans-73"/>
     </defs>
     <g transform="translate(161.370313 169.944062)scale(0.1 -0.1)">
      <use xlink:href="#DejaVuSans-77"/>
      <use x="86.279297" xlink:href="#DejaVuSans-83"/>
      <use x="149.755859" xlink:href="#DejaVuSans-73"/>
     </g>
    </g>
    <g id="line2d_27">
     <path d="M 133.370313 181.12375 
L 153.370313 181.12375 
" style="fill:none;stroke:#ff0000;stroke-linecap:square;stroke-width:1.5;"/>
    </g>
    <g id="line2d_28"/>
    <g id="text_17">
     <!-- $\it{A priori}$ model -->
     <defs>
      <path d="M 36.8125 72.90625 
L 48 72.90625 
L 61.53125 0 
L 51.21875 0 
L 48.1875 18.703125 
L 15.375 18.703125 
L 5.078125 0 
L -5.328125 0 
z
M 40.375 63.1875 
L 19.921875 26.90625 
L 46.6875 26.90625 
z
" id="DejaVuSans-Oblique-65"/>
      <path d="M 49.609375 33.6875 
Q 49.609375 40.875 46.484375 44.671875 
Q 43.359375 48.484375 37.5 48.484375 
Q 33.5 48.484375 29.859375 46.4375 
Q 26.21875 44.390625 23.390625 40.484375 
Q 20.609375 36.625 18.9375 31.15625 
Q 17.28125 25.6875 17.28125 20.3125 
Q 17.28125 13.484375 20.40625 9.796875 
Q 23.53125 6.109375 29.296875 6.109375 
Q 33.546875 6.109375 37.1875 8.109375 
Q 40.828125 10.109375 43.40625 13.921875 
Q 46.1875 17.921875 47.890625 23.34375 
Q 49.609375 28.765625 49.609375 33.6875 
z
M 21.78125 46.390625 
Q 25.390625 51.125 30.296875 53.5625 
Q 35.203125 56 41.21875 56 
Q 49.609375 56 54.25 50.5 
Q 58.890625 45.015625 58.890625 35.109375 
Q 58.890625 27 56 19.65625 
Q 53.125 12.3125 47.703125 6.5 
Q 44.09375 2.640625 39.546875 0.609375 
Q 35.015625 -1.421875 29.984375 -1.421875 
Q 24.171875 -1.421875 20.21875 1 
Q 16.265625 3.421875 14.3125 8.203125 
L 8.6875 -20.796875 
L -0.296875 -20.796875 
L 14.40625 54.6875 
L 23.390625 54.6875 
z
" id="DejaVuSans-Oblique-112"/>
      <path d="M 44.578125 46.390625 
Q 43.21875 47.125 41.453125 47.515625 
Q 39.703125 47.90625 37.703125 47.90625 
Q 30.515625 47.90625 25.140625 42.453125 
Q 19.78125 37.015625 18.015625 27.875 
L 12.5 0 
L 3.515625 0 
L 14.203125 54.6875 
L 23.1875 54.6875 
L 21.484375 46.1875 
Q 25.046875 50.921875 30 53.453125 
Q 34.96875 56 40.578125 56 
Q 42.046875 56 43.453125 55.828125 
Q 44.875 55.671875 46.296875 55.28125 
z
" id="DejaVuSans-Oblique-114"/>
      <path d="M 18.3125 75.984375 
L 27.296875 75.984375 
L 25.09375 64.59375 
L 16.109375 64.59375 
z
M 14.203125 54.6875 
L 23.1875 54.6875 
L 12.5 0 
L 3.515625 0 
z
" id="DejaVuSans-Oblique-105"/>
      <path d="M 25.390625 -1.421875 
Q 15.765625 -1.421875 10.171875 4.515625 
Q 4.59375 10.453125 4.59375 20.703125 
Q 4.59375 26.65625 6.515625 32.828125 
Q 8.453125 39.015625 11.53125 43.21875 
Q 16.359375 49.75 22.3125 52.875 
Q 28.265625 56 35.796875 56 
Q 45.125 56 50.859375 50.1875 
Q 56.59375 44.390625 56.59375 35.015625 
Q 56.59375 28.515625 54.6875 22.0625 
Q 52.78125 15.625 49.703125 11.375 
Q 44.921875 4.828125 38.96875 1.703125 
Q 33.015625 -1.421875 25.390625 -1.421875 
z
M 13.921875 21 
Q 13.921875 13.578125 17.015625 9.890625 
Q 20.125 6.203125 26.421875 6.203125 
Q 35.453125 6.203125 41.375 14.078125 
Q 47.3125 21.96875 47.3125 34.078125 
Q 47.3125 41.15625 44.140625 44.765625 
Q 40.96875 48.390625 34.8125 48.390625 
Q 29.734375 48.390625 25.78125 46.015625 
Q 21.828125 43.65625 18.703125 38.8125 
Q 16.40625 35.203125 15.15625 30.5625 
Q 13.921875 25.921875 13.921875 21 
z
" id="DejaVuSans-Oblique-111"/>
      <path d="M 30.609375 48.390625 
Q 23.390625 48.390625 19.1875 42.75 
Q 14.984375 37.109375 14.984375 27.296875 
Q 14.984375 17.484375 19.15625 11.84375 
Q 23.34375 6.203125 30.609375 6.203125 
Q 37.796875 6.203125 41.984375 11.859375 
Q 46.1875 17.53125 46.1875 27.296875 
Q 46.1875 37.015625 41.984375 42.703125 
Q 37.796875 48.390625 30.609375 48.390625 
z
M 30.609375 56 
Q 42.328125 56 49.015625 48.375 
Q 55.71875 40.765625 55.71875 27.296875 
Q 55.71875 13.875 49.015625 6.21875 
Q 42.328125 -1.421875 30.609375 -1.421875 
Q 18.84375 -1.421875 12.171875 6.21875 
Q 5.515625 13.875 5.515625 27.296875 
Q 5.515625 40.765625 12.171875 48.375 
Q 18.84375 56 30.609375 56 
z
" id="DejaVuSans-111"/>
      <path d="M 45.40625 46.390625 
L 45.40625 75.984375 
L 54.390625 75.984375 
L 54.390625 0 
L 45.40625 0 
L 45.40625 8.203125 
Q 42.578125 3.328125 38.25 0.953125 
Q 33.9375 -1.421875 27.875 -1.421875 
Q 17.96875 -1.421875 11.734375 6.484375 
Q 5.515625 14.40625 5.515625 27.296875 
Q 5.515625 40.1875 11.734375 48.09375 
Q 17.96875 56 27.875 56 
Q 33.9375 56 38.25 53.625 
Q 42.578125 51.265625 45.40625 46.390625 
z
M 14.796875 27.296875 
Q 14.796875 17.390625 18.875 11.75 
Q 22.953125 6.109375 30.078125 6.109375 
Q 37.203125 6.109375 41.296875 11.75 
Q 45.40625 17.390625 45.40625 27.296875 
Q 45.40625 37.203125 41.296875 42.84375 
Q 37.203125 48.484375 30.078125 48.484375 
Q 22.953125 48.484375 18.875 42.84375 
Q 14.796875 37.203125 14.796875 27.296875 
z
" id="DejaVuSans-100"/>
      <path d="M 9.421875 75.984375 
L 18.40625 75.984375 
L 18.40625 0 
L 9.421875 0 
z
" id="DejaVuSans-108"/>
     </defs>
     <g transform="translate(161.370313 184.62375)scale(0.1 -0.1)">
      <use transform="translate(0 0.015625)" xlink:href="#DejaVuSans-Oblique-65"/>
      <use transform="translate(68.408203 0.015625)" xlink:href="#DejaVuSans-Oblique-112"/>
      <use transform="translate(131.884766 0.015625)" xlink:href="#DejaVuSans-Oblique-114"/>
      <use transform="translate(172.998047 0.015625)" xlink:href="#DejaVuSans-Oblique-105"/>
      <use transform="translate(200.78125 0.015625)" xlink:href="#DejaVuSans-Oblique-111"/>
      <use transform="translate(261.962891 0.015625)" xlink:href="#DejaVuSans-Oblique-114"/>
      <use transform="translate(303.076172 0.015625)" xlink:href="#DejaVuSans-Oblique-105"/>
      <use transform="translate(330.859375 0.015625)" xlink:href="#DejaVuSans-32"/>
      <use transform="translate(362.646484 0.015625)" xlink:href="#DejaVuSans-109"/>
      <use transform="translate(460.058594 0.015625)" xlink:href="#DejaVuSans-111"/>
      <use transform="translate(521.240234 0.015625)" xlink:href="#DejaVuSans-100"/>
      <use transform="translate(584.716797 0.015625)" xlink:href="#DejaVuSans-101"/>
      <use transform="translate(646.240234 0.015625)" xlink:href="#DejaVuSans-108"/>
     </g>
    </g>
    <g id="line2d_29"/>
    <g id="line2d_30">
     <g>
      <use style="stroke:#000000;" x="143.370313" xlink:href="#m1de75f838f" y="195.822187"/>
     </g>
    </g>
    <g id="text_18">
     <!-- Experimental Data -->
     <defs>
      <path d="M 34.28125 27.484375 
Q 23.390625 27.484375 19.1875 25 
Q 14.984375 22.515625 14.984375 16.5 
Q 14.984375 11.71875 18.140625 8.90625 
Q 21.296875 6.109375 26.703125 6.109375 
Q 34.1875 6.109375 38.703125 11.40625 
Q 43.21875 16.703125 43.21875 25.484375 
L 43.21875 27.484375 
z
M 52.203125 31.203125 
L 52.203125 0 
L 43.21875 0 
L 43.21875 8.296875 
Q 40.140625 3.328125 35.546875 0.953125 
Q 30.953125 -1.421875 24.3125 -1.421875 
Q 15.921875 -1.421875 10.953125 3.296875 
Q 6 8.015625 6 15.921875 
Q 6 25.140625 12.171875 29.828125 
Q 18.359375 34.515625 30.609375 34.515625 
L 43.21875 34.515625 
L 43.21875 35.40625 
Q 43.21875 41.609375 39.140625 45 
Q 35.0625 48.390625 27.6875 48.390625 
Q 23 48.390625 18.546875 47.265625 
Q 14.109375 46.140625 10.015625 43.890625 
L 10.015625 52.203125 
Q 14.9375 54.109375 19.578125 55.046875 
Q 24.21875 56 28.609375 56 
Q 40.484375 56 46.34375 49.84375 
Q 52.203125 43.703125 52.203125 31.203125 
z
" id="DejaVuSans-97"/>
      <path d="M 19.671875 64.796875 
L 19.671875 8.109375 
L 31.59375 8.109375 
Q 46.6875 8.109375 53.6875 14.9375 
Q 60.6875 21.78125 60.6875 36.53125 
Q 60.6875 51.171875 53.6875 57.984375 
Q 46.6875 64.796875 31.59375 64.796875 
z
M 9.8125 72.90625 
L 30.078125 72.90625 
Q 51.265625 72.90625 61.171875 64.09375 
Q 71.09375 55.28125 71.09375 36.53125 
Q 71.09375 17.671875 61.125 8.828125 
Q 51.171875 0 30.078125 0 
L 9.8125 0 
z
" id="DejaVuSans-68"/>
     </defs>
     <g transform="translate(161.370313 199.322187)scale(0.1 -0.1)">
      <use xlink:href="#DejaVuSans-69"/>
      <use x="63.183594" xlink:href="#DejaVuSans-120"/>
      <use x="122.363281" xlink:href="#DejaVuSans-112"/>
      <use x="185.839844" xlink:href="#DejaVuSans-101"/>
      <use x="247.363281" xlink:href="#DejaVuSans-114"/>
      <use x="288.476562" xlink:href="#DejaVuSans-105"/>
      <use x="316.259766" xlink:href="#DejaVuSans-109"/>
      <use x="413.671875" xlink:href="#DejaVuSans-101"/>
      <use x="475.195312" xlink:href="#DejaVuSans-110"/>
      <use x="538.574219" xlink:href="#DejaVuSans-116"/>
      <use x="577.783203" xlink:href="#DejaVuSans-97"/>
      <use x="639.0625" xlink:href="#DejaVuSans-108"/>
      <use x="666.845703" xlink:href="#DejaVuSans-32"/>
      <use x="698.632812" xlink:href="#DejaVuSans-68"/>
      <use x="775.634766" xlink:href="#DejaVuSans-97"/>
      <use x="836.914062" xlink:href="#DejaVuSans-116"/>
      <use x="876.123047" xlink:href="#DejaVuSans-97"/>
     </g>
    </g>
    <g id="line2d_31">
     <path d="M 133.370313 210.500312 
L 153.370313 210.500312 
" style="fill:none;stroke:#ffffff;stroke-linecap:square;stroke-width:1.5;"/>
    </g>
    <g id="line2d_32"/>
    <g id="text_19">
     <!-- T:1103 -->
     <defs>
      <path d="M 11.71875 12.40625 
L 22.015625 12.40625 
L 22.015625 0 
L 11.71875 0 
z
M 11.71875 51.703125 
L 22.015625 51.703125 
L 22.015625 39.3125 
L 11.71875 39.3125 
z
" id="DejaVuSans-58"/>
     </defs>
     <g transform="translate(161.370313 214.000312)scale(0.1 -0.1)">
      <use xlink:href="#DejaVuSans-84"/>
      <use x="60.912109" xlink:href="#DejaVuSans-58"/>
      <use x="94.603516" xlink:href="#DejaVuSans-49"/>
      <use x="158.226562" xlink:href="#DejaVuSans-49"/>
      <use x="221.849609" xlink:href="#DejaVuSans-48"/>
      <use x="285.472656" xlink:href="#DejaVuSans-51"/>
     </g>
    </g>
    <g id="line2d_33">
     <path d="M 133.370313 225.178437 
L 153.370313 225.178437 
" style="fill:none;stroke:#ffffff;stroke-linecap:square;stroke-width:1.5;"/>
    </g>
    <g id="line2d_34"/>
    <g id="text_20">
     <!-- P:3.56 -->
     <defs>
      <path d="M 19.671875 64.796875 
L 19.671875 37.40625 
L 32.078125 37.40625 
Q 38.96875 37.40625 42.71875 40.96875 
Q 46.484375 44.53125 46.484375 51.125 
Q 46.484375 57.671875 42.71875 61.234375 
Q 38.96875 64.796875 32.078125 64.796875 
z
M 9.8125 72.90625 
L 32.078125 72.90625 
Q 44.34375 72.90625 50.609375 67.359375 
Q 56.890625 61.8125 56.890625 51.125 
Q 56.890625 40.328125 50.609375 34.8125 
Q 44.34375 29.296875 32.078125 29.296875 
L 19.671875 29.296875 
L 19.671875 0 
L 9.8125 0 
z
" id="DejaVuSans-80"/>
      <path d="M 33.015625 40.375 
Q 26.375 40.375 22.484375 35.828125 
Q 18.609375 31.296875 18.609375 23.390625 
Q 18.609375 15.53125 22.484375 10.953125 
Q 26.375 6.390625 33.015625 6.390625 
Q 39.65625 6.390625 43.53125 10.953125 
Q 47.40625 15.53125 47.40625 23.390625 
Q 47.40625 31.296875 43.53125 35.828125 
Q 39.65625 40.375 33.015625 40.375 
z
M 52.59375 71.296875 
L 52.59375 62.3125 
Q 48.875 64.0625 45.09375 64.984375 
Q 41.3125 65.921875 37.59375 65.921875 
Q 27.828125 65.921875 22.671875 59.328125 
Q 17.53125 52.734375 16.796875 39.40625 
Q 19.671875 43.65625 24.015625 45.921875 
Q 28.375 48.1875 33.59375 48.1875 
Q 44.578125 48.1875 50.953125 41.515625 
Q 57.328125 34.859375 57.328125 23.390625 
Q 57.328125 12.15625 50.6875 5.359375 
Q 44.046875 -1.421875 33.015625 -1.421875 
Q 20.359375 -1.421875 13.671875 8.265625 
Q 6.984375 17.96875 6.984375 36.375 
Q 6.984375 53.65625 15.1875 63.9375 
Q 23.390625 74.21875 37.203125 74.21875 
Q 40.921875 74.21875 44.703125 73.484375 
Q 48.484375 72.75 52.59375 71.296875 
z
" id="DejaVuSans-54"/>
     </defs>
     <g transform="translate(161.370313 228.678437)scale(0.1 -0.1)">
      <use xlink:href="#DejaVuSans-80"/>
      <use x="60.302734" xlink:href="#DejaVuSans-58"/>
      <use x="93.994141" xlink:href="#DejaVuSans-51"/>
      <use x="157.617188" xlink:href="#DejaVuSans-46"/>
      <use x="189.404297" xlink:href="#DejaVuSans-53"/>
      <use x="253.027344" xlink:href="#DejaVuSans-54"/>
     </g>
    </g>
    <g id="line2d_35">
     <path d="M 275.110938 166.444062 
L 295.110938 166.444062 
" style="fill:none;stroke:#ffffff;stroke-linecap:square;stroke-width:1.5;"/>
    </g>
    <g id="line2d_36"/>
    <g id="text_21">
     <!-- H2O2: 0.00124 -->
     <defs>
      <path d="M 37.796875 64.3125 
L 12.890625 25.390625 
L 37.796875 25.390625 
z
M 35.203125 72.90625 
L 47.609375 72.90625 
L 47.609375 25.390625 
L 58.015625 25.390625 
L 58.015625 17.1875 
L 47.609375 17.1875 
L 47.609375 0 
L 37.796875 0 
L 37.796875 17.1875 
L 4.890625 17.1875 
L 4.890625 26.703125 
z
" id="DejaVuSans-52"/>
     </defs>
     <g transform="translate(303.110938 169.944062)scale(0.1 -0.1)">
      <use xlink:href="#DejaVuSans-72"/>
      <use x="75.195312" xlink:href="#DejaVuSans-50"/>
      <use x="138.818359" xlink:href="#DejaVuSans-79"/>
      <use x="217.529297" xlink:href="#DejaVuSans-50"/>
      <use x="281.152344" xlink:href="#DejaVuSans-58"/>
      <use x="314.84375" xlink:href="#DejaVuSans-32"/>
      <use x="346.630859" xlink:href="#DejaVuSans-48"/>
      <use x="410.253906" xlink:href="#DejaVuSans-46"/>
      <use x="442.041016" xlink:href="#DejaVuSans-48"/>
      <use x="505.664062" xlink:href="#DejaVuSans-48"/>
      <use x="569.287109" xlink:href="#DejaVuSans-49"/>
      <use x="632.910156" xlink:href="#DejaVuSans-50"/>
      <use x="696.533203" xlink:href="#DejaVuSans-52"/>
     </g>
    </g>
    <g id="line2d_37">
     <path d="M 275.110938 181.122187 
L 295.110938 181.122187 
" style="fill:none;stroke:#ffffff;stroke-linecap:square;stroke-width:1.5;"/>
    </g>
    <g id="line2d_38"/>
    <g id="text_22">
     <!-- H2O: 0.00082 -->
     <defs>
      <path d="M 31.78125 34.625 
Q 24.75 34.625 20.71875 30.859375 
Q 16.703125 27.09375 16.703125 20.515625 
Q 16.703125 13.921875 20.71875 10.15625 
Q 24.75 6.390625 31.78125 6.390625 
Q 38.8125 6.390625 42.859375 10.171875 
Q 46.921875 13.96875 46.921875 20.515625 
Q 46.921875 27.09375 42.890625 30.859375 
Q 38.875 34.625 31.78125 34.625 
z
M 21.921875 38.8125 
Q 15.578125 40.375 12.03125 44.71875 
Q 8.5 49.078125 8.5 55.328125 
Q 8.5 64.0625 14.71875 69.140625 
Q 20.953125 74.21875 31.78125 74.21875 
Q 42.671875 74.21875 48.875 69.140625 
Q 55.078125 64.0625 55.078125 55.328125 
Q 55.078125 49.078125 51.53125 44.71875 
Q 48 40.375 41.703125 38.8125 
Q 48.828125 37.15625 52.796875 32.3125 
Q 56.78125 27.484375 56.78125 20.515625 
Q 56.78125 9.90625 50.3125 4.234375 
Q 43.84375 -1.421875 31.78125 -1.421875 
Q 19.734375 -1.421875 13.25 4.234375 
Q 6.78125 9.90625 6.78125 20.515625 
Q 6.78125 27.484375 10.78125 32.3125 
Q 14.796875 37.15625 21.921875 38.8125 
z
M 18.3125 54.390625 
Q 18.3125 48.734375 21.84375 45.5625 
Q 25.390625 42.390625 31.78125 42.390625 
Q 38.140625 42.390625 41.71875 45.5625 
Q 45.3125 48.734375 45.3125 54.390625 
Q 45.3125 60.0625 41.71875 63.234375 
Q 38.140625 66.40625 31.78125 66.40625 
Q 25.390625 66.40625 21.84375 63.234375 
Q 18.3125 60.0625 18.3125 54.390625 
z
" id="DejaVuSans-56"/>
     </defs>
     <g transform="translate(303.110938 184.622187)scale(0.1 -0.1)">
      <use xlink:href="#DejaVuSans-72"/>
      <use x="75.195312" xlink:href="#DejaVuSans-50"/>
      <use x="138.818359" xlink:href="#DejaVuSans-79"/>
      <use x="217.513672" xlink:href="#DejaVuSans-58"/>
      <use x="251.205078" xlink:href="#DejaVuSans-32"/>
      <use x="282.992188" xlink:href="#DejaVuSans-48"/>
      <use x="346.615234" xlink:href="#DejaVuSans-46"/>
      <use x="378.402344" xlink:href="#DejaVuSans-48"/>
      <use x="442.025391" xlink:href="#DejaVuSans-48"/>
      <use x="505.648438" xlink:href="#DejaVuSans-48"/>
      <use x="569.271484" xlink:href="#DejaVuSans-56"/>
      <use x="632.894531" xlink:href="#DejaVuSans-50"/>
     </g>
    </g>
    <g id="line2d_39">
     <path d="M 275.110938 195.800312 
L 295.110938 195.800312 
" style="fill:none;stroke:#ffffff;stroke-linecap:square;stroke-width:1.5;"/>
    </g>
    <g id="line2d_40"/>
    <g id="text_23">
     <!-- O2: 0.00041 -->
     <g transform="translate(303.110938 199.300312)scale(0.1 -0.1)">
      <use xlink:href="#DejaVuSans-79"/>
      <use x="78.710938" xlink:href="#DejaVuSans-50"/>
      <use x="142.333984" xlink:href="#DejaVuSans-58"/>
      <use x="176.025391" xlink:href="#DejaVuSans-32"/>
      <use x="207.8125" xlink:href="#DejaVuSans-48"/>
      <use x="271.435547" xlink:href="#DejaVuSans-46"/>
      <use x="303.222656" xlink:href="#DejaVuSans-48"/>
      <use x="366.845703" xlink:href="#DejaVuSans-48"/>
      <use x="430.46875" xlink:href="#DejaVuSans-48"/>
      <use x="494.091797" xlink:href="#DejaVuSans-52"/>
      <use x="557.714844" xlink:href="#DejaVuSans-49"/>
     </g>
    </g>
    <g id="line2d_41">
     <path d="M 275.110938 210.478437 
L 295.110938 210.478437 
" style="fill:none;stroke:#ffffff;stroke-linecap:square;stroke-width:1.5;"/>
    </g>
    <g id="line2d_42"/>
    <g id="text_24">
     <!-- CH4: 0.009975 -->
     <defs>
      <path d="M 64.40625 67.28125 
L 64.40625 56.890625 
Q 59.421875 61.53125 53.78125 63.8125 
Q 48.140625 66.109375 41.796875 66.109375 
Q 29.296875 66.109375 22.65625 58.46875 
Q 16.015625 50.828125 16.015625 36.375 
Q 16.015625 21.96875 22.65625 14.328125 
Q 29.296875 6.6875 41.796875 6.6875 
Q 48.140625 6.6875 53.78125 8.984375 
Q 59.421875 11.28125 64.40625 15.921875 
L 64.40625 5.609375 
Q 59.234375 2.09375 53.4375 0.328125 
Q 47.65625 -1.421875 41.21875 -1.421875 
Q 24.65625 -1.421875 15.125 8.703125 
Q 5.609375 18.84375 5.609375 36.375 
Q 5.609375 53.953125 15.125 64.078125 
Q 24.65625 74.21875 41.21875 74.21875 
Q 47.75 74.21875 53.53125 72.484375 
Q 59.328125 70.75 64.40625 67.28125 
z
" id="DejaVuSans-67"/>
      <path d="M 10.984375 1.515625 
L 10.984375 10.5 
Q 14.703125 8.734375 18.5 7.8125 
Q 22.3125 6.890625 25.984375 6.890625 
Q 35.75 6.890625 40.890625 13.453125 
Q 46.046875 20.015625 46.78125 33.40625 
Q 43.953125 29.203125 39.59375 26.953125 
Q 35.25 24.703125 29.984375 24.703125 
Q 19.046875 24.703125 12.671875 31.3125 
Q 6.296875 37.9375 6.296875 49.421875 
Q 6.296875 60.640625 12.9375 67.421875 
Q 19.578125 74.21875 30.609375 74.21875 
Q 43.265625 74.21875 49.921875 64.515625 
Q 56.59375 54.828125 56.59375 36.375 
Q 56.59375 19.140625 48.40625 8.859375 
Q 40.234375 -1.421875 26.421875 -1.421875 
Q 22.703125 -1.421875 18.890625 -0.6875 
Q 15.09375 0.046875 10.984375 1.515625 
z
M 30.609375 32.421875 
Q 37.25 32.421875 41.125 36.953125 
Q 45.015625 41.5 45.015625 49.421875 
Q 45.015625 57.28125 41.125 61.84375 
Q 37.25 66.40625 30.609375 66.40625 
Q 23.96875 66.40625 20.09375 61.84375 
Q 16.21875 57.28125 16.21875 49.421875 
Q 16.21875 41.5 20.09375 36.953125 
Q 23.96875 32.421875 30.609375 32.421875 
z
" id="DejaVuSans-57"/>
      <path d="M 8.203125 72.90625 
L 55.078125 72.90625 
L 55.078125 68.703125 
L 28.609375 0 
L 18.3125 0 
L 43.21875 64.59375 
L 8.203125 64.59375 
z
" id="DejaVuSans-55"/>
     </defs>
     <g transform="translate(303.110938 213.978437)scale(0.1 -0.1)">
      <use xlink:href="#DejaVuSans-67"/>
      <use x="69.824219" xlink:href="#DejaVuSans-72"/>
      <use x="145.019531" xlink:href="#DejaVuSans-52"/>
      <use x="208.642578" xlink:href="#DejaVuSans-58"/>
      <use x="242.333984" xlink:href="#DejaVuSans-32"/>
      <use x="274.121094" xlink:href="#DejaVuSans-48"/>
      <use x="337.744141" xlink:href="#DejaVuSans-46"/>
      <use x="369.53125" xlink:href="#DejaVuSans-48"/>
      <use x="433.154297" xlink:href="#DejaVuSans-48"/>
      <use x="496.777344" xlink:href="#DejaVuSans-57"/>
      <use x="560.400391" xlink:href="#DejaVuSans-57"/>
      <use x="624.023438" xlink:href="#DejaVuSans-55"/>
      <use x="687.646484" xlink:href="#DejaVuSans-53"/>
     </g>
    </g>
    <g id="line2d_43">
     <path d="M 275.110938 225.156562 
L 295.110938 225.156562 
" style="fill:none;stroke:#ffffff;stroke-linecap:square;stroke-width:1.5;"/>
    </g>
    <g id="line2d_44"/>
    <g id="text_25">
     <!-- Ar: 0.987555 -->
     <defs>
      <path d="M 34.1875 63.1875 
L 20.796875 26.90625 
L 47.609375 26.90625 
z
M 28.609375 72.90625 
L 39.796875 72.90625 
L 67.578125 0 
L 57.328125 0 
L 50.6875 18.703125 
L 17.828125 18.703125 
L 11.1875 0 
L 0.78125 0 
z
" id="DejaVuSans-65"/>
     </defs>
     <g transform="translate(303.110938 228.656562)scale(0.1 -0.1)">
      <use xlink:href="#DejaVuSans-65"/>
      <use x="68.408203" xlink:href="#DejaVuSans-114"/>
      <use x="109.505859" xlink:href="#DejaVuSans-58"/>
      <use x="143.197266" xlink:href="#DejaVuSans-32"/>
      <use x="174.984375" xlink:href="#DejaVuSans-48"/>
      <use x="238.607422" xlink:href="#DejaVuSans-46"/>
      <use x="270.394531" xlink:href="#DejaVuSans-57"/>
      <use x="334.017578" xlink:href="#DejaVuSans-56"/>
      <use x="397.640625" xlink:href="#DejaVuSans-55"/>
      <use x="461.263672" xlink:href="#DejaVuSans-53"/>
      <use x="524.886719" xlink:href="#DejaVuSans-53"/>
      <use x="588.509766" xlink:href="#DejaVuSans-53"/>
     </g>
    </g>
   </g>
  </g>
 </g>
 <defs>
  <clipPath id="p4ea010489d">
   <rect height="217.44" width="334.8" x="53.328125" y="22.318125"/>
  </clipPath>
 </defs>
</svg>
