<?xml version="1.0" encoding="utf-8" standalone="no"?>
<!DOCTYPE svg PUBLIC "-//W3C//DTD SVG 1.1//EN"
  "http://www.w3.org/Graphics/SVG/1.1/DTD/svg11.dtd">
<!-- Created with matplotlib (https://matplotlib.org/) -->
<svg height="277.314375pt" version="1.1" viewBox="0 0 395.478125 277.314375" width="395.478125pt" xmlns="http://www.w3.org/2000/svg" xmlns:xlink="http://www.w3.org/1999/xlink">
 <defs>
  <style type="text/css">
*{stroke-linecap:butt;stroke-linejoin:round;}
  </style>
 </defs>
 <g id="figure_1">
  <g id="patch_1">
   <path d="M 0 277.314375 
L 395.478125 277.314375 
L 395.478125 0 
L 0 0 
z
" style="fill:#ffffff;"/>
  </g>
  <g id="axes_1">
   <g id="patch_2">
    <path d="M 49.978125 239.758125 
L 384.778125 239.758125 
L 384.778125 22.318125 
L 49.978125 22.318125 
z
" style="fill:#ffffff;"/>
   </g>
   <g id="matplotlib.axis_1">
    <g id="xtick_1">
     <g id="line2d_1">
      <defs>
       <path d="M 0 0 
L 0 3.5 
" id="m6a085ed507" style="stroke:#000000;stroke-width:0.8;"/>
      </defs>
      <g>
       <use style="stroke:#000000;stroke-width:0.8;" x="104.895912" xlink:href="#m6a085ed507" y="239.758125"/>
      </g>
     </g>
     <g id="text_1">
      <!-- 500 -->
      <defs>
       <path d="M 10.796875 72.90625 
L 49.515625 72.90625 
L 49.515625 64.59375 
L 19.828125 64.59375 
L 19.828125 46.734375 
Q 21.96875 47.46875 24.109375 47.828125 
Q 26.265625 48.1875 28.421875 48.1875 
Q 40.625 48.1875 47.75 41.5 
Q 54.890625 34.8125 54.890625 23.390625 
Q 54.890625 11.625 47.5625 5.09375 
Q 40.234375 -1.421875 26.90625 -1.421875 
Q 22.3125 -1.421875 17.546875 -0.640625 
Q 12.796875 0.140625 7.71875 1.703125 
L 7.71875 11.625 
Q 12.109375 9.234375 16.796875 8.0625 
Q 21.484375 6.890625 26.703125 6.890625 
Q 35.15625 6.890625 40.078125 11.328125 
Q 45.015625 15.765625 45.015625 23.390625 
Q 45.015625 31 40.078125 35.4375 
Q 35.15625 39.890625 26.703125 39.890625 
Q 22.75 39.890625 18.8125 39.015625 
Q 14.890625 38.140625 10.796875 36.28125 
z
" id="DejaVuSans-53"/>
       <path d="M 31.78125 66.40625 
Q 24.171875 66.40625 20.328125 58.90625 
Q 16.5 51.421875 16.5 36.375 
Q 16.5 21.390625 20.328125 13.890625 
Q 24.171875 6.390625 31.78125 6.390625 
Q 39.453125 6.390625 43.28125 13.890625 
Q 47.125 21.390625 47.125 36.375 
Q 47.125 51.421875 43.28125 58.90625 
Q 39.453125 66.40625 31.78125 66.40625 
z
M 31.78125 74.21875 
Q 44.046875 74.21875 50.515625 64.515625 
Q 56.984375 54.828125 56.984375 36.375 
Q 56.984375 17.96875 50.515625 8.265625 
Q 44.046875 -1.421875 31.78125 -1.421875 
Q 19.53125 -1.421875 13.0625 8.265625 
Q 6.59375 17.96875 6.59375 36.375 
Q 6.59375 54.828125 13.0625 64.515625 
Q 19.53125 74.21875 31.78125 74.21875 
z
" id="DejaVuSans-48"/>
      </defs>
      <g transform="translate(95.352162 254.356562)scale(0.1 -0.1)">
       <use xlink:href="#DejaVuSans-53"/>
       <use x="63.623047" xlink:href="#DejaVuSans-48"/>
       <use x="127.246094" xlink:href="#DejaVuSans-48"/>
      </g>
     </g>
    </g>
    <g id="xtick_2">
     <g id="line2d_2">
      <g>
       <use style="stroke:#000000;stroke-width:0.8;" x="171.061919" xlink:href="#m6a085ed507" y="239.758125"/>
      </g>
     </g>
     <g id="text_2">
      <!-- 1000 -->
      <defs>
       <path d="M 12.40625 8.296875 
L 28.515625 8.296875 
L 28.515625 63.921875 
L 10.984375 60.40625 
L 10.984375 69.390625 
L 28.421875 72.90625 
L 38.28125 72.90625 
L 38.28125 8.296875 
L 54.390625 8.296875 
L 54.390625 0 
L 12.40625 0 
z
" id="DejaVuSans-49"/>
      </defs>
      <g transform="translate(158.336919 254.356562)scale(0.1 -0.1)">
       <use xlink:href="#DejaVuSans-49"/>
       <use x="63.623047" xlink:href="#DejaVuSans-48"/>
       <use x="127.246094" xlink:href="#DejaVuSans-48"/>
       <use x="190.869141" xlink:href="#DejaVuSans-48"/>
      </g>
     </g>
    </g>
    <g id="xtick_3">
     <g id="line2d_3">
      <g>
       <use style="stroke:#000000;stroke-width:0.8;" x="237.227927" xlink:href="#m6a085ed507" y="239.758125"/>
      </g>
     </g>
     <g id="text_3">
      <!-- 1500 -->
      <g transform="translate(224.502927 254.356562)scale(0.1 -0.1)">
       <use xlink:href="#DejaVuSans-49"/>
       <use x="63.623047" xlink:href="#DejaVuSans-53"/>
       <use x="127.246094" xlink:href="#DejaVuSans-48"/>
       <use x="190.869141" xlink:href="#DejaVuSans-48"/>
      </g>
     </g>
    </g>
    <g id="xtick_4">
     <g id="line2d_4">
      <g>
       <use style="stroke:#000000;stroke-width:0.8;" x="303.393935" xlink:href="#m6a085ed507" y="239.758125"/>
      </g>
     </g>
     <g id="text_4">
      <!-- 2000 -->
      <defs>
       <path d="M 19.1875 8.296875 
L 53.609375 8.296875 
L 53.609375 0 
L 7.328125 0 
L 7.328125 8.296875 
Q 12.9375 14.109375 22.625 23.890625 
Q 32.328125 33.6875 34.8125 36.53125 
Q 39.546875 41.84375 41.421875 45.53125 
Q 43.3125 49.21875 43.3125 52.78125 
Q 43.3125 58.59375 39.234375 62.25 
Q 35.15625 65.921875 28.609375 65.921875 
Q 23.96875 65.921875 18.8125 64.3125 
Q 13.671875 62.703125 7.8125 59.421875 
L 7.8125 69.390625 
Q 13.765625 71.78125 18.9375 73 
Q 24.125 74.21875 28.421875 74.21875 
Q 39.75 74.21875 46.484375 68.546875 
Q 53.21875 62.890625 53.21875 53.421875 
Q 53.21875 48.921875 51.53125 44.890625 
Q 49.859375 40.875 45.40625 35.40625 
Q 44.1875 33.984375 37.640625 27.21875 
Q 31.109375 20.453125 19.1875 8.296875 
z
" id="DejaVuSans-50"/>
      </defs>
      <g transform="translate(290.668935 254.356562)scale(0.1 -0.1)">
       <use xlink:href="#DejaVuSans-50"/>
       <use x="63.623047" xlink:href="#DejaVuSans-48"/>
       <use x="127.246094" xlink:href="#DejaVuSans-48"/>
       <use x="190.869141" xlink:href="#DejaVuSans-48"/>
      </g>
     </g>
    </g>
    <g id="xtick_5">
     <g id="line2d_5">
      <g>
       <use style="stroke:#000000;stroke-width:0.8;" x="369.559943" xlink:href="#m6a085ed507" y="239.758125"/>
      </g>
     </g>
     <g id="text_5">
      <!-- 2500 -->
      <g transform="translate(356.834943 254.356562)scale(0.1 -0.1)">
       <use xlink:href="#DejaVuSans-50"/>
       <use x="63.623047" xlink:href="#DejaVuSans-53"/>
       <use x="127.246094" xlink:href="#DejaVuSans-48"/>
       <use x="190.869141" xlink:href="#DejaVuSans-48"/>
      </g>
     </g>
    </g>
    <g id="text_6">
     <!-- Temperature (K) -->
     <defs>
      <path d="M -0.296875 72.90625 
L 61.375 72.90625 
L 61.375 64.59375 
L 35.5 64.59375 
L 35.5 0 
L 25.59375 0 
L 25.59375 64.59375 
L -0.296875 64.59375 
z
" id="DejaVuSans-84"/>
      <path d="M 56.203125 29.59375 
L 56.203125 25.203125 
L 14.890625 25.203125 
Q 15.484375 15.921875 20.484375 11.0625 
Q 25.484375 6.203125 34.421875 6.203125 
Q 39.59375 6.203125 44.453125 7.46875 
Q 49.3125 8.734375 54.109375 11.28125 
L 54.109375 2.78125 
Q 49.265625 0.734375 44.1875 -0.34375 
Q 39.109375 -1.421875 33.890625 -1.421875 
Q 20.796875 -1.421875 13.15625 6.1875 
Q 5.515625 13.8125 5.515625 26.8125 
Q 5.515625 40.234375 12.765625 48.109375 
Q 20.015625 56 32.328125 56 
Q 43.359375 56 49.78125 48.890625 
Q 56.203125 41.796875 56.203125 29.59375 
z
M 47.21875 32.234375 
Q 47.125 39.59375 43.09375 43.984375 
Q 39.0625 48.390625 32.421875 48.390625 
Q 24.90625 48.390625 20.390625 44.140625 
Q 15.875 39.890625 15.1875 32.171875 
z
" id="DejaVuSans-101"/>
      <path d="M 52 44.1875 
Q 55.375 50.25 60.0625 53.125 
Q 64.75 56 71.09375 56 
Q 79.640625 56 84.28125 50.015625 
Q 88.921875 44.046875 88.921875 33.015625 
L 88.921875 0 
L 79.890625 0 
L 79.890625 32.71875 
Q 79.890625 40.578125 77.09375 44.375 
Q 74.3125 48.1875 68.609375 48.1875 
Q 61.625 48.1875 57.5625 43.546875 
Q 53.515625 38.921875 53.515625 30.90625 
L 53.515625 0 
L 44.484375 0 
L 44.484375 32.71875 
Q 44.484375 40.625 41.703125 44.40625 
Q 38.921875 48.1875 33.109375 48.1875 
Q 26.21875 48.1875 22.15625 43.53125 
Q 18.109375 38.875 18.109375 30.90625 
L 18.109375 0 
L 9.078125 0 
L 9.078125 54.6875 
L 18.109375 54.6875 
L 18.109375 46.1875 
Q 21.1875 51.21875 25.484375 53.609375 
Q 29.78125 56 35.6875 56 
Q 41.65625 56 45.828125 52.96875 
Q 50 49.953125 52 44.1875 
z
" id="DejaVuSans-109"/>
      <path d="M 18.109375 8.203125 
L 18.109375 -20.796875 
L 9.078125 -20.796875 
L 9.078125 54.6875 
L 18.109375 54.6875 
L 18.109375 46.390625 
Q 20.953125 51.265625 25.265625 53.625 
Q 29.59375 56 35.59375 56 
Q 45.5625 56 51.78125 48.09375 
Q 58.015625 40.1875 58.015625 27.296875 
Q 58.015625 14.40625 51.78125 6.484375 
Q 45.5625 -1.421875 35.59375 -1.421875 
Q 29.59375 -1.421875 25.265625 0.953125 
Q 20.953125 3.328125 18.109375 8.203125 
z
M 48.6875 27.296875 
Q 48.6875 37.203125 44.609375 42.84375 
Q 40.53125 48.484375 33.40625 48.484375 
Q 26.265625 48.484375 22.1875 42.84375 
Q 18.109375 37.203125 18.109375 27.296875 
Q 18.109375 17.390625 22.1875 11.75 
Q 26.265625 6.109375 33.40625 6.109375 
Q 40.53125 6.109375 44.609375 11.75 
Q 48.6875 17.390625 48.6875 27.296875 
z
" id="DejaVuSans-112"/>
      <path d="M 41.109375 46.296875 
Q 39.59375 47.171875 37.8125 47.578125 
Q 36.03125 48 33.890625 48 
Q 26.265625 48 22.1875 43.046875 
Q 18.109375 38.09375 18.109375 28.8125 
L 18.109375 0 
L 9.078125 0 
L 9.078125 54.6875 
L 18.109375 54.6875 
L 18.109375 46.1875 
Q 20.953125 51.171875 25.484375 53.578125 
Q 30.03125 56 36.53125 56 
Q 37.453125 56 38.578125 55.875 
Q 39.703125 55.765625 41.0625 55.515625 
z
" id="DejaVuSans-114"/>
      <path d="M 34.28125 27.484375 
Q 23.390625 27.484375 19.1875 25 
Q 14.984375 22.515625 14.984375 16.5 
Q 14.984375 11.71875 18.140625 8.90625 
Q 21.296875 6.109375 26.703125 6.109375 
Q 34.1875 6.109375 38.703125 11.40625 
Q 43.21875 16.703125 43.21875 25.484375 
L 43.21875 27.484375 
z
M 52.203125 31.203125 
L 52.203125 0 
L 43.21875 0 
L 43.21875 8.296875 
Q 40.140625 3.328125 35.546875 0.953125 
Q 30.953125 -1.421875 24.3125 -1.421875 
Q 15.921875 -1.421875 10.953125 3.296875 
Q 6 8.015625 6 15.921875 
Q 6 25.140625 12.171875 29.828125 
Q 18.359375 34.515625 30.609375 34.515625 
L 43.21875 34.515625 
L 43.21875 35.40625 
Q 43.21875 41.609375 39.140625 45 
Q 35.0625 48.390625 27.6875 48.390625 
Q 23 48.390625 18.546875 47.265625 
Q 14.109375 46.140625 10.015625 43.890625 
L 10.015625 52.203125 
Q 14.9375 54.109375 19.578125 55.046875 
Q 24.21875 56 28.609375 56 
Q 40.484375 56 46.34375 49.84375 
Q 52.203125 43.703125 52.203125 31.203125 
z
" id="DejaVuSans-97"/>
      <path d="M 18.3125 70.21875 
L 18.3125 54.6875 
L 36.8125 54.6875 
L 36.8125 47.703125 
L 18.3125 47.703125 
L 18.3125 18.015625 
Q 18.3125 11.328125 20.140625 9.421875 
Q 21.96875 7.515625 27.59375 7.515625 
L 36.8125 7.515625 
L 36.8125 0 
L 27.59375 0 
Q 17.1875 0 13.234375 3.875 
Q 9.28125 7.765625 9.28125 18.015625 
L 9.28125 47.703125 
L 2.6875 47.703125 
L 2.6875 54.6875 
L 9.28125 54.6875 
L 9.28125 70.21875 
z
" id="DejaVuSans-116"/>
      <path d="M 8.5 21.578125 
L 8.5 54.6875 
L 17.484375 54.6875 
L 17.484375 21.921875 
Q 17.484375 14.15625 20.5 10.265625 
Q 23.53125 6.390625 29.59375 6.390625 
Q 36.859375 6.390625 41.078125 11.03125 
Q 45.3125 15.671875 45.3125 23.6875 
L 45.3125 54.6875 
L 54.296875 54.6875 
L 54.296875 0 
L 45.3125 0 
L 45.3125 8.40625 
Q 42.046875 3.421875 37.71875 1 
Q 33.40625 -1.421875 27.6875 -1.421875 
Q 18.265625 -1.421875 13.375 4.4375 
Q 8.5 10.296875 8.5 21.578125 
z
M 31.109375 56 
z
" id="DejaVuSans-117"/>
      <path id="DejaVuSans-32"/>
      <path d="M 31 75.875 
Q 24.46875 64.65625 21.28125 53.65625 
Q 18.109375 42.671875 18.109375 31.390625 
Q 18.109375 20.125 21.3125 9.0625 
Q 24.515625 -2 31 -13.1875 
L 23.1875 -13.1875 
Q 15.875 -1.703125 12.234375 9.375 
Q 8.59375 20.453125 8.59375 31.390625 
Q 8.59375 42.28125 12.203125 53.3125 
Q 15.828125 64.359375 23.1875 75.875 
z
" id="DejaVuSans-40"/>
      <path d="M 9.8125 72.90625 
L 19.671875 72.90625 
L 19.671875 42.09375 
L 52.390625 72.90625 
L 65.09375 72.90625 
L 28.90625 38.921875 
L 67.671875 0 
L 54.6875 0 
L 19.671875 35.109375 
L 19.671875 0 
L 9.8125 0 
z
" id="DejaVuSans-75"/>
      <path d="M 8.015625 75.875 
L 15.828125 75.875 
Q 23.140625 64.359375 26.78125 53.3125 
Q 30.421875 42.28125 30.421875 31.390625 
Q 30.421875 20.453125 26.78125 9.375 
Q 23.140625 -1.703125 15.828125 -13.1875 
L 8.015625 -13.1875 
Q 14.5 -2 17.703125 9.0625 
Q 20.90625 20.125 20.90625 31.390625 
Q 20.90625 42.671875 17.703125 53.65625 
Q 14.5 64.65625 8.015625 75.875 
z
" id="DejaVuSans-41"/>
     </defs>
     <g transform="translate(175.991406 268.034687)scale(0.1 -0.1)">
      <use xlink:href="#DejaVuSans-84"/>
      <use x="60.818359" xlink:href="#DejaVuSans-101"/>
      <use x="122.341797" xlink:href="#DejaVuSans-109"/>
      <use x="219.753906" xlink:href="#DejaVuSans-112"/>
      <use x="283.230469" xlink:href="#DejaVuSans-101"/>
      <use x="344.753906" xlink:href="#DejaVuSans-114"/>
      <use x="385.867188" xlink:href="#DejaVuSans-97"/>
      <use x="447.146484" xlink:href="#DejaVuSans-116"/>
      <use x="486.355469" xlink:href="#DejaVuSans-117"/>
      <use x="549.734375" xlink:href="#DejaVuSans-114"/>
      <use x="590.816406" xlink:href="#DejaVuSans-101"/>
      <use x="652.339844" xlink:href="#DejaVuSans-32"/>
      <use x="684.126953" xlink:href="#DejaVuSans-40"/>
      <use x="723.140625" xlink:href="#DejaVuSans-75"/>
      <use x="788.716797" xlink:href="#DejaVuSans-41"/>
     </g>
    </g>
   </g>
   <g id="matplotlib.axis_2">
    <g id="ytick_1">
     <g id="line2d_6">
      <defs>
       <path d="M 0 0 
L -3.5 0 
" id="m9cffc1f4ba" style="stroke:#000000;stroke-width:0.8;"/>
      </defs>
      <g>
       <use style="stroke:#000000;stroke-width:0.8;" x="49.978125" xlink:href="#m9cffc1f4ba" y="231.36667"/>
      </g>
     </g>
     <g id="text_7">
      <!-- $\mathdefault{10^{11}}$ -->
      <g transform="translate(20.878125 235.165888)scale(0.1 -0.1)">
       <use transform="translate(0 0.684375)" xlink:href="#DejaVuSans-49"/>
       <use transform="translate(63.623047 0.684375)" xlink:href="#DejaVuSans-48"/>
       <use transform="translate(128.203125 38.965625)scale(0.7)" xlink:href="#DejaVuSans-49"/>
       <use transform="translate(172.739258 38.965625)scale(0.7)" xlink:href="#DejaVuSans-49"/>
      </g>
     </g>
    </g>
    <g id="ytick_2">
     <g id="line2d_7">
      <g>
       <use style="stroke:#000000;stroke-width:0.8;" x="49.978125" xlink:href="#m9cffc1f4ba" y="129.025497"/>
      </g>
     </g>
     <g id="text_8">
      <!-- $\mathdefault{10^{12}}$ -->
      <g transform="translate(20.878125 132.824716)scale(0.1 -0.1)">
       <use transform="translate(0 0.765625)" xlink:href="#DejaVuSans-49"/>
       <use transform="translate(63.623047 0.765625)" xlink:href="#DejaVuSans-48"/>
       <use transform="translate(128.203125 39.046875)scale(0.7)" xlink:href="#DejaVuSans-49"/>
       <use transform="translate(172.739258 39.046875)scale(0.7)" xlink:href="#DejaVuSans-50"/>
      </g>
     </g>
    </g>
    <g id="ytick_3">
     <g id="line2d_8">
      <g>
       <use style="stroke:#000000;stroke-width:0.8;" x="49.978125" xlink:href="#m9cffc1f4ba" y="26.684324"/>
      </g>
     </g>
     <g id="text_9">
      <!-- $\mathdefault{10^{13}}$ -->
      <defs>
       <path d="M 40.578125 39.3125 
Q 47.65625 37.796875 51.625 33 
Q 55.609375 28.21875 55.609375 21.1875 
Q 55.609375 10.40625 48.1875 4.484375 
Q 40.765625 -1.421875 27.09375 -1.421875 
Q 22.515625 -1.421875 17.65625 -0.515625 
Q 12.796875 0.390625 7.625 2.203125 
L 7.625 11.71875 
Q 11.71875 9.328125 16.59375 8.109375 
Q 21.484375 6.890625 26.8125 6.890625 
Q 36.078125 6.890625 40.9375 10.546875 
Q 45.796875 14.203125 45.796875 21.1875 
Q 45.796875 27.640625 41.28125 31.265625 
Q 36.765625 34.90625 28.71875 34.90625 
L 20.21875 34.90625 
L 20.21875 43.015625 
L 29.109375 43.015625 
Q 36.375 43.015625 40.234375 45.921875 
Q 44.09375 48.828125 44.09375 54.296875 
Q 44.09375 59.90625 40.109375 62.90625 
Q 36.140625 65.921875 28.71875 65.921875 
Q 24.65625 65.921875 20.015625 65.03125 
Q 15.375 64.15625 9.8125 62.3125 
L 9.8125 71.09375 
Q 15.4375 72.65625 20.34375 73.4375 
Q 25.25 74.21875 29.59375 74.21875 
Q 40.828125 74.21875 47.359375 69.109375 
Q 53.90625 64.015625 53.90625 55.328125 
Q 53.90625 49.265625 50.4375 45.09375 
Q 46.96875 40.921875 40.578125 39.3125 
z
" id="DejaVuSans-51"/>
      </defs>
      <g transform="translate(20.878125 30.483543)scale(0.1 -0.1)">
       <use transform="translate(0 0.765625)" xlink:href="#DejaVuSans-49"/>
       <use transform="translate(63.623047 0.765625)" xlink:href="#DejaVuSans-48"/>
       <use transform="translate(128.203125 39.046875)scale(0.7)" xlink:href="#DejaVuSans-49"/>
       <use transform="translate(172.739258 39.046875)scale(0.7)" xlink:href="#DejaVuSans-51"/>
      </g>
     </g>
    </g>
    <g id="ytick_4">
     <g id="line2d_9">
      <defs>
       <path d="M 0 0 
L -2 0 
" id="m4e728182c8" style="stroke:#000000;stroke-width:0.6;"/>
      </defs>
      <g>
       <use style="stroke:#000000;stroke-width:0.6;" x="49.978125" xlink:href="#m4e728182c8" y="236.049545"/>
      </g>
     </g>
    </g>
    <g id="ytick_5">
     <g id="line2d_10">
      <g>
       <use style="stroke:#000000;stroke-width:0.6;" x="49.978125" xlink:href="#m4e728182c8" y="200.558907"/>
      </g>
     </g>
    </g>
    <g id="ytick_6">
     <g id="line2d_11">
      <g>
       <use style="stroke:#000000;stroke-width:0.6;" x="49.978125" xlink:href="#m4e728182c8" y="182.537521"/>
      </g>
     </g>
    </g>
    <g id="ytick_7">
     <g id="line2d_12">
      <g>
       <use style="stroke:#000000;stroke-width:0.6;" x="49.978125" xlink:href="#m4e728182c8" y="169.751144"/>
      </g>
     </g>
    </g>
    <g id="ytick_8">
     <g id="line2d_13">
      <g>
       <use style="stroke:#000000;stroke-width:0.6;" x="49.978125" xlink:href="#m4e728182c8" y="159.83326"/>
      </g>
     </g>
    </g>
    <g id="ytick_9">
     <g id="line2d_14">
      <g>
       <use style="stroke:#000000;stroke-width:0.6;" x="49.978125" xlink:href="#m4e728182c8" y="151.729758"/>
      </g>
     </g>
    </g>
    <g id="ytick_10">
     <g id="line2d_15">
      <g>
       <use style="stroke:#000000;stroke-width:0.6;" x="49.978125" xlink:href="#m4e728182c8" y="144.878345"/>
      </g>
     </g>
    </g>
    <g id="ytick_11">
     <g id="line2d_16">
      <g>
       <use style="stroke:#000000;stroke-width:0.6;" x="49.978125" xlink:href="#m4e728182c8" y="138.943381"/>
      </g>
     </g>
    </g>
    <g id="ytick_12">
     <g id="line2d_17">
      <g>
       <use style="stroke:#000000;stroke-width:0.6;" x="49.978125" xlink:href="#m4e728182c8" y="133.708372"/>
      </g>
     </g>
    </g>
    <g id="ytick_13">
     <g id="line2d_18">
      <g>
       <use style="stroke:#000000;stroke-width:0.6;" x="49.978125" xlink:href="#m4e728182c8" y="98.217734"/>
      </g>
     </g>
    </g>
    <g id="ytick_14">
     <g id="line2d_19">
      <g>
       <use style="stroke:#000000;stroke-width:0.6;" x="49.978125" xlink:href="#m4e728182c8" y="80.196348"/>
      </g>
     </g>
    </g>
    <g id="ytick_15">
     <g id="line2d_20">
      <g>
       <use style="stroke:#000000;stroke-width:0.6;" x="49.978125" xlink:href="#m4e728182c8" y="67.409971"/>
      </g>
     </g>
    </g>
    <g id="ytick_16">
     <g id="line2d_21">
      <g>
       <use style="stroke:#000000;stroke-width:0.6;" x="49.978125" xlink:href="#m4e728182c8" y="57.492087"/>
      </g>
     </g>
    </g>
    <g id="ytick_17">
     <g id="line2d_22">
      <g>
       <use style="stroke:#000000;stroke-width:0.6;" x="49.978125" xlink:href="#m4e728182c8" y="49.388585"/>
      </g>
     </g>
    </g>
    <g id="ytick_18">
     <g id="line2d_23">
      <g>
       <use style="stroke:#000000;stroke-width:0.6;" x="49.978125" xlink:href="#m4e728182c8" y="42.537172"/>
      </g>
     </g>
    </g>
    <g id="ytick_19">
     <g id="line2d_24">
      <g>
       <use style="stroke:#000000;stroke-width:0.6;" x="49.978125" xlink:href="#m4e728182c8" y="36.602208"/>
      </g>
     </g>
    </g>
    <g id="ytick_20">
     <g id="line2d_25">
      <g>
       <use style="stroke:#000000;stroke-width:0.6;" x="49.978125" xlink:href="#m4e728182c8" y="31.367199"/>
      </g>
     </g>
    </g>
    <g id="text_10">
     <!-- Kmol/m^3-s -->
     <defs>
      <path d="M 30.609375 48.390625 
Q 23.390625 48.390625 19.1875 42.75 
Q 14.984375 37.109375 14.984375 27.296875 
Q 14.984375 17.484375 19.15625 11.84375 
Q 23.34375 6.203125 30.609375 6.203125 
Q 37.796875 6.203125 41.984375 11.859375 
Q 46.1875 17.53125 46.1875 27.296875 
Q 46.1875 37.015625 41.984375 42.703125 
Q 37.796875 48.390625 30.609375 48.390625 
z
M 30.609375 56 
Q 42.328125 56 49.015625 48.375 
Q 55.71875 40.765625 55.71875 27.296875 
Q 55.71875 13.875 49.015625 6.21875 
Q 42.328125 -1.421875 30.609375 -1.421875 
Q 18.84375 -1.421875 12.171875 6.21875 
Q 5.515625 13.875 5.515625 27.296875 
Q 5.515625 40.765625 12.171875 48.375 
Q 18.84375 56 30.609375 56 
z
" id="DejaVuSans-111"/>
      <path d="M 9.421875 75.984375 
L 18.40625 75.984375 
L 18.40625 0 
L 9.421875 0 
z
" id="DejaVuSans-108"/>
      <path d="M 25.390625 72.90625 
L 33.6875 72.90625 
L 8.296875 -9.28125 
L 0 -9.28125 
z
" id="DejaVuSans-47"/>
      <path d="M 46.6875 72.90625 
L 73.1875 45.703125 
L 63.375 45.703125 
L 41.890625 64.984375 
L 20.40625 45.703125 
L 10.59375 45.703125 
L 37.109375 72.90625 
z
" id="DejaVuSans-94"/>
      <path d="M 4.890625 31.390625 
L 31.203125 31.390625 
L 31.203125 23.390625 
L 4.890625 23.390625 
z
" id="DejaVuSans-45"/>
      <path d="M 44.28125 53.078125 
L 44.28125 44.578125 
Q 40.484375 46.53125 36.375 47.5 
Q 32.28125 48.484375 27.875 48.484375 
Q 21.1875 48.484375 17.84375 46.4375 
Q 14.5 44.390625 14.5 40.28125 
Q 14.5 37.15625 16.890625 35.375 
Q 19.28125 33.59375 26.515625 31.984375 
L 29.59375 31.296875 
Q 39.15625 29.25 43.1875 25.515625 
Q 47.21875 21.78125 47.21875 15.09375 
Q 47.21875 7.46875 41.1875 3.015625 
Q 35.15625 -1.421875 24.609375 -1.421875 
Q 20.21875 -1.421875 15.453125 -0.5625 
Q 10.6875 0.296875 5.421875 2 
L 5.421875 11.28125 
Q 10.40625 8.6875 15.234375 7.390625 
Q 20.0625 6.109375 24.8125 6.109375 
Q 31.15625 6.109375 34.5625 8.28125 
Q 37.984375 10.453125 37.984375 14.40625 
Q 37.984375 18.0625 35.515625 20.015625 
Q 33.0625 21.96875 24.703125 23.78125 
L 21.578125 24.515625 
Q 13.234375 26.265625 9.515625 29.90625 
Q 5.8125 33.546875 5.8125 39.890625 
Q 5.8125 47.609375 11.28125 51.796875 
Q 16.75 56 26.8125 56 
Q 31.78125 56 36.171875 55.265625 
Q 40.578125 54.546875 44.28125 53.078125 
z
" id="DejaVuSans-115"/>
     </defs>
     <g transform="translate(14.798438 161.970156)rotate(-90)scale(0.1 -0.1)">
      <use xlink:href="#DejaVuSans-75"/>
      <use x="65.576172" xlink:href="#DejaVuSans-109"/>
      <use x="162.988281" xlink:href="#DejaVuSans-111"/>
      <use x="224.169922" xlink:href="#DejaVuSans-108"/>
      <use x="251.953125" xlink:href="#DejaVuSans-47"/>
      <use x="285.644531" xlink:href="#DejaVuSans-109"/>
      <use x="383.056641" xlink:href="#DejaVuSans-94"/>
      <use x="466.845703" xlink:href="#DejaVuSans-51"/>
      <use x="530.46875" xlink:href="#DejaVuSans-45"/>
      <use x="566.552734" xlink:href="#DejaVuSans-115"/>
     </g>
    </g>
   </g>
   <g id="line2d_26">
    <path clip-path="url(#p699165bf41)" d="M 71.812908 106.956961 
L 74.327216 115.846022 
L 76.709192 123.444118 
L 78.958836 129.900669 
L 81.208481 135.698613 
L 83.458125 140.887317 
L 85.707769 145.518668 
L 87.957414 149.643377 
L 90.207058 153.309147 
L 92.456702 156.559891 
L 94.706346 159.435506 
L 97.088323 162.111313 
L 99.470299 164.445052 
L 101.852275 166.470704 
L 104.366583 168.307958 
L 106.880892 169.866988 
L 109.527532 171.237985 
L 112.174172 172.360015 
L 114.953145 173.297684 
L 117.864449 174.043202 
L 120.908085 174.591072 
L 124.084054 174.937858 
L 127.524686 175.083481 
L 131.097651 175.01082 
L 134.935279 174.709364 
L 139.037572 174.163297 
L 143.53686 173.333654 
L 148.433145 172.195131 
L 153.726425 170.729525 
L 159.549034 168.881129 
L 166.033303 166.582603 
L 173.311564 163.760035 
L 181.648481 160.28163 
L 191.573382 155.889234 
L 204.012591 150.12811 
L 223.730062 140.715272 
L 250.990457 127.741437 
L 266.340971 120.689525 
L 279.706504 114.7907 
L 291.88105 109.657074 
L 303.261603 105.094857 
L 314.112829 100.980487 
L 324.567058 97.252531 
L 334.624291 93.899795 
L 344.41686 90.868491 
L 353.944765 88.151354 
L 363.208006 85.739347 
L 369.427611 84.251609 
L 369.427611 84.251609 
" style="fill:none;stroke:#0000ff;stroke-linecap:square;stroke-width:1.5;"/>
   </g>
   <g id="line2d_27">
    <path clip-path="url(#p699165bf41)" d="M 65.196307 32.201761 
L 71.812908 60.404582 
L 78.164844 82.955606 
L 78.164844 82.955606 
L 78.429508 83.781962 
L 80.679153 90.459507 
L 82.399469 95.164876 
L 84.384449 100.190231 
L 85.046109 101.774144 
L 86.104765 104.217885 
L 89.01607 110.396944 
L 91.66271 115.382647 
L 91.66271 115.382647 
L 92.589034 116.997329 
L 94.044686 119.407032 
L 94.97101 120.862727 
L 98.279311 125.603352 
L 98.940971 126.470864 
L 104.895912 133.212302 
L 106.219232 134.474361 
L 111.512512 138.786172 
L 115.085477 141.10507 
L 118.129113 142.752315 
L 121.17275 144.128189 
L 124.745714 145.431051 
L 128.318678 146.430585 
L 131.362315 147.066376 
L 131.362315 147.066376 
L 134.405951 147.52195 
L 137.978916 147.847426 
L 141.55188 147.967803 
L 142.822609 147.964966 
L 143.862949 147.945772 
L 144.595516 147.923396 
L 144.924379 147.911016 
L 145.504811 147.885688 
L 145.504811 147.885688 
L 148.06602 147.722566 
L 149.933278 147.553226 
L 150.02381 147.543979 
L 150.02381 147.543979 
L 151.212117 147.41397 
L 154.843518 146.92153 
L 154.843518 146.92153 
L 157.67137 146.445409 
L 157.828718 146.416674 
L 159.563293 146.084899 
L 160.099457 145.9769 
L 161.847892 145.607487 
L 163.533398 145.227294 
L 164.445319 145.012127 
L 164.974647 144.884269 
L 165.735922 144.696645 
L 166.686569 144.45628 
L 166.694963 144.454129 
L 166.827295 144.420136 
L 167.046881 144.36345 
L 168.385186 144.010535 
L 168.385186 144.010535 
L 168.385186 144.010535 
L 168.508271 143.977446 
L 169.751701 143.637354 
L 170.0032 143.567299 
L 170.891431 143.316543 
L 171.061919 143.267825 
L 171.79163 143.0572 
L 171.92127 143.019427 
L 172.704176 142.789082 
L 173.0469 142.687056 
L 173.762573 142.471708 
L 174.237888 142.326992 
L 174.702448 142.184265 
L 174.837825 142.142436 
L 175.381899 141.973265 
L 176.068174 141.757477 
L 176.622148 141.581368 
L 177.67852 141.240896 
L 177.743613 141.21972 
L 178.168843 141.080832 
L 178.596683 140.940133 
L 179.6635 140.58519 
L 180.776028 140.208948 
L 181.516149 139.955302 
L 182.569051 139.589988 
L 183.482566 139.26889 
L 184.162789 139.027359 
L 184.295121 138.980134 
L 186.934116 138.022775 
L 188.230357 137.542114 
L 188.529746 137.430164 
L 189.323738 137.131615 
L 190.911722 136.527519 
L 196.734331 134.23948 
L 197.528323 133.919376 
L 199.910299 132.948581 
L 202.821603 131.742237 
L 204.144923 131.187275 
L 210.761524 128.358752 
L 217.378125 125.457884 
L 223.994726 122.505782 
L 230.611327 119.520998 
L 237.227927 116.519874 
L 243.844528 113.516849 
L 250.461129 110.524722 
L 257.07773 107.554874 
L 263.694331 104.617472 
L 270.310931 101.721639 
L 276.927532 98.875597 
L 283.544133 96.086796 
L 290.160734 93.362021 
L 296.777334 90.707483 
L 303.393935 88.128898 
L 303.393935 88.128898 
L 303.393935 88.128898 
L 310.010536 85.631547 
L 316.627137 83.22033 
L 323.243738 80.899812 
L 329.860338 78.674256 
L 336.476939 76.547649 
L 343.09354 74.523724 
L 349.710141 72.605976 
L 356.326742 70.797668 
L 362.943342 69.101843 
L 369.559943 67.521321 
L 369.559943 67.521321 
" style="fill:none;stroke:#0000ff;stroke-dasharray:5.55,2.4;stroke-dashoffset:0;stroke-width:1.5;"/>
   </g>
   <g id="line2d_28">
    <path clip-path="url(#p699165bf41)" d="M 65.196307 128.357263 
L 71.812908 153.50934 
L 78.164844 172.443273 
L 78.164844 172.443273 
L 78.429508 173.102903 
L 80.679153 178.322711 
L 82.399469 181.871471 
L 84.384449 185.52757 
L 85.046109 186.648502 
L 86.104765 188.346051 
L 89.01607 192.448735 
L 91.66271 195.532101 
L 91.66271 195.532101 
L 92.589034 196.480789 
L 94.044686 197.84593 
L 94.97101 198.638991 
L 98.279311 201.034095 
L 98.940971 201.437541 
L 104.895912 204.104324 
L 106.219232 204.489784 
L 111.512512 205.416666 
L 115.085477 205.568187 
L 118.129113 205.447403 
L 121.17275 205.128575 
L 124.745714 204.536105 
L 128.318678 203.741524 
L 131.362315 202.927872 
L 131.362315 202.927872 
L 134.405951 202.005299 
L 137.978916 200.801878 
L 141.55188 199.486688 
L 142.822609 198.995199 
L 143.862949 198.584335 
L 144.595516 198.290642 
L 144.924379 198.157658 
L 145.504811 197.921263 
L 145.504811 197.921263 
L 148.06602 196.853815 
L 149.933278 196.052398 
L 150.02381 196.013079 
L 150.02381 196.013079 
L 151.212117 195.493191 
L 154.843518 193.863964 
L 154.843518 193.863964 
L 157.67137 192.557732 
L 157.828718 192.484182 
L 159.563293 191.667769 
L 160.099457 191.413409 
L 161.847892 190.57778 
L 163.533398 189.763873 
L 164.445319 189.320341 
L 164.974647 189.061922 
L 165.735922 188.689062 
L 166.686569 188.221534 
L 166.694963 188.217397 
L 166.827295 188.15215 
L 167.046881 188.043797 
L 168.385186 187.381165 
L 168.385186 187.381165 
L 168.385186 187.381165 
L 168.508271 187.320034 
L 169.751701 186.700776 
L 170.0032 186.57516 
L 170.891431 186.130576 
L 171.061919 186.045078 
L 171.79163 185.678565 
L 171.92127 185.613355 
L 172.704176 185.218954 
L 173.0469 185.045989 
L 173.762573 184.684213 
L 174.237888 184.44351 
L 174.702448 184.207934 
L 174.837825 184.139227 
L 175.381899 183.862837 
L 176.068174 183.513634 
L 176.622148 183.231301 
L 177.67852 182.69186 
L 177.743613 182.658576 
L 178.168843 182.441023 
L 178.596683 182.221927 
L 179.6635 181.674744 
L 180.776028 181.102874 
L 181.516149 180.721777 
L 182.569051 180.178789 
L 183.482566 179.706943 
L 184.162789 179.35518 
L 184.295121 179.286707 
L 186.934116 177.918805 
L 188.230357 177.245428 
L 188.529746 177.089781 
L 189.323738 176.676799 
L 190.911722 175.85006 
L 196.734331 172.812756 
L 197.528323 172.398187 
L 199.910299 171.154397 
L 202.821603 169.634651 
L 204.144923 168.944246 
L 210.761524 165.49909 
L 217.378125 162.071866 
L 223.994726 158.670464 
L 230.611327 155.30185 
L 237.227927 151.972305 
L 243.844528 148.687603 
L 250.461129 145.453135 
L 257.07773 142.273995 
L 263.694331 139.155049 
L 270.310931 136.100974 
L 276.927532 133.116291 
L 283.544133 130.205388 
L 290.160734 127.37254 
L 296.777334 124.621919 
L 303.393935 121.957608 
L 303.393935 121.957608 
L 303.393935 121.957608 
L 310.010536 119.383614 
L 316.627137 116.903879 
L 323.243738 114.52229 
L 329.860338 112.242695 
L 336.476939 110.068913 
L 343.09354 108.004752 
L 349.710141 106.054023 
L 356.326742 104.220557 
L 362.943342 102.508222 
L 369.559943 100.92094 
L 369.559943 100.92094 
" style="fill:none;stroke:#0000ff;stroke-dasharray:5.55,2.4;stroke-dashoffset:0;stroke-width:1.5;"/>
   </g>
   <g id="line2d_29">
    <path clip-path="url(#p699165bf41)" d="M 71.812908 139.095679 
L 74.194884 147.19744 
L 76.444528 154.080746 
L 78.694172 160.232957 
L 80.811485 165.393009 
L 82.928797 169.987091 
L 85.046109 174.062148 
L 87.163421 177.664393 
L 89.280734 180.83761 
L 91.398046 183.622361 
L 93.515358 186.055719 
L 95.63267 188.171281 
L 97.882315 190.10468 
L 100.131959 191.746024 
L 102.381603 193.124324 
L 104.76358 194.325659 
L 107.277888 195.335243 
L 109.792196 196.107081 
L 112.438836 196.69003 
L 115.217809 197.07619 
L 118.129113 197.260195 
L 121.305082 197.233494 
L 124.613382 196.983852 
L 128.186346 196.49229 
L 132.023975 195.741688 
L 136.258599 194.683722 
L 140.89022 193.292452 
L 146.051168 191.501489 
L 151.741445 189.285535 
L 158.225714 186.513332 
L 165.636307 183.095411 
L 174.37022 178.81539 
L 185.353777 173.173041 
L 201.365951 164.670764 
L 235.772275 146.353086 
L 250.858125 138.612131 
L 264.091327 132.067173 
L 276.398204 126.225017 
L 288.043421 120.940368 
L 299.159311 116.136223 
L 310.010536 111.688532 
L 320.464765 107.642614 
L 330.654331 103.935814 
L 340.579232 100.559372 
L 350.371801 97.462839 
L 359.899706 94.681518 
L 369.295279 92.169391 
L 369.427611 92.135676 
L 369.427611 92.135676 
" style="fill:none;stroke:#ff0000;stroke-linecap:square;stroke-width:1.5;"/>
   </g>
   <g id="line2d_30">
    <path clip-path="url(#p699165bf41)" d="M 65.196307 65.28147 
L 71.812908 92.659806 
L 78.164844 114.216152 
L 78.164844 114.216152 
L 78.429508 114.995943 
L 80.679153 121.264081 
L 82.399469 125.641925 
L 84.384449 130.276735 
L 85.046109 131.727944 
L 86.104765 133.957139 
L 89.01607 139.535013 
L 91.66271 143.964674 
L 91.66271 143.964674 
L 92.589034 145.383519 
L 94.044686 147.484837 
L 94.97101 148.74412 
L 98.279311 152.784516 
L 98.940971 153.512542 
L 104.895912 159.014951 
L 106.219232 160.006878 
L 111.512512 163.262268 
L 115.085477 164.892404 
L 118.129113 165.969675 
L 121.17275 166.791569 
L 124.745714 167.464934 
L 128.318678 167.857662 
L 131.362315 167.994423 
L 131.362315 167.994423 
L 134.405951 167.967285 
L 137.978916 167.746643 
L 141.55188 167.342676 
L 142.822609 167.158511 
L 143.862949 166.992849 
L 144.595516 166.8684 
L 144.924379 166.810482 
L 145.504811 166.70521 
L 145.504811 166.70521 
L 148.06602 166.195794 
L 149.933278 165.780541 
L 150.02381 165.75951 
L 150.02381 165.75951 
L 151.212117 165.476004 
L 154.843518 164.527851 
L 154.843518 164.527851 
L 157.67137 163.710479 
L 157.828718 163.6631 
L 159.563293 163.128144 
L 160.099457 162.958209 
L 161.847892 162.389632 
L 163.533398 161.82146 
L 164.445319 161.506209 
L 164.974647 161.320772 
L 165.735922 161.050998 
L 166.686569 160.709131 
L 166.694963 160.706089 
L 166.827295 160.658063 
L 167.046881 160.578142 
L 168.385186 160.084981 
L 168.385186 160.084981 
L 168.385186 160.084981 
L 168.508271 160.03911 
L 169.751701 159.570992 
L 170.0032 159.475282 
L 170.891431 159.134563 
L 171.061919 159.068691 
L 171.79163 158.785059 
L 171.92127 158.734386 
L 172.704176 158.426576 
L 173.0469 158.290877 
L 173.762573 158.005679 
L 174.237888 157.814918 
L 174.702448 157.627454 
L 174.837825 157.572637 
L 175.381899 157.351491 
L 176.068174 157.070649 
L 176.622148 156.842436 
L 177.67852 156.403609 
L 177.743613 156.376415 
L 178.168843 156.198337 
L 178.596683 156.018418 
L 179.6635 155.566601 
L 180.776028 155.090718 
L 181.516149 154.771558 
L 182.569051 154.314096 
L 183.482566 153.914041 
L 184.162789 153.614309 
L 184.295121 153.555819 
L 186.934116 152.377743 
L 188.230357 151.791355 
L 188.529746 151.655233 
L 189.323738 151.293024 
L 190.911722 150.56353 
L 196.734331 147.836891 
L 197.528323 147.459473 
L 199.910299 146.320202 
L 202.821603 144.914818 
L 204.144923 144.271815 
L 210.761524 141.024867 
L 217.378125 137.739667 
L 223.994726 134.434452 
L 230.611327 131.125067 
L 237.227927 127.825298 
L 243.844528 124.547171 
L 250.461129 121.301203 
L 257.07773 118.096619 
L 263.694331 114.941542 
L 270.310931 111.843158 
L 276.927532 108.807846 
L 283.544133 105.841309 
L 290.160734 102.948662 
L 296.777334 100.134527 
L 303.393935 97.403098 
L 303.393935 97.403098 
L 303.393935 97.403098 
L 310.010536 94.758202 
L 316.627137 92.203345 
L 323.243738 89.741754 
L 329.860338 87.376405 
L 336.476939 85.110047 
L 343.09354 82.94522 
L 349.710141 80.884268 
L 356.326742 78.929342 
L 362.943342 77.082408 
L 369.559943 75.345244 
L 369.559943 75.345244 
" style="fill:none;stroke:#ff0000;stroke-dasharray:5.55,2.4;stroke-dashoffset:0;stroke-width:1.5;"/>
   </g>
   <g id="line2d_31">
    <path clip-path="url(#p699165bf41)" d="M 65.196307 161.194197 
L 71.812908 185.531552 
L 78.164844 203.482215 
L 78.164844 203.482215 
L 78.429508 204.095826 
L 80.679153 208.911057 
L 82.399469 212.136211 
L 84.384449 215.406499 
L 85.046109 216.396351 
L 86.104765 217.881993 
L 89.01607 221.390989 
L 91.66271 223.925378 
L 91.66271 223.925378 
L 92.589034 224.680744 
L 94.044686 225.741493 
L 94.97101 226.340706 
L 98.279311 228.044845 
L 98.940971 228.310674 
L 104.895912 229.755378 
L 106.219232 229.874489 
L 111.512512 229.760049 
L 115.085477 229.232926 
L 118.129113 228.550715 
L 121.17275 227.686365 
L 124.745714 226.474199 
L 128.318678 225.082453 
L 131.362315 223.777843 
L 131.362315 223.777843 
L 134.405951 222.380493 
L 137.978916 220.640077 
L 141.55188 218.809448 
L 142.822609 218.139742 
L 143.862949 217.584936 
L 144.595516 217.190936 
L 144.924379 217.013203 
L 145.504811 216.698253 
L 145.504811 216.698253 
L 148.06602 215.290559 
L 149.933278 214.247559 
L 150.02381 214.196664 
L 150.02381 214.196664 
L 151.212117 213.525993 
L 154.843518 211.449172 
L 154.843518 211.449172 
L 157.67137 209.807816 
L 157.828718 209.715958 
L 159.563293 208.700031 
L 160.099457 208.384855 
L 161.847892 207.353671 
L 163.533398 206.355199 
L 164.445319 205.813403 
L 164.974647 205.498453 
L 165.735922 205.044939 
L 166.686569 204.47776 
L 166.694963 204.472748 
L 166.827295 204.393724 
L 167.046881 204.262559 
L 168.385186 203.46224 
L 168.385186 203.46224 
L 168.385186 203.46224 
L 168.508271 203.388561 
L 169.751701 202.643612 
L 170.0032 202.492809 
L 170.891431 201.959904 
L 171.061919 201.857567 
L 171.79163 201.419379 
L 171.92127 201.341503 
L 172.704176 200.871051 
L 173.0469 200.665028 
L 173.762573 200.234677 
L 174.237888 199.94877 
L 174.702448 199.669271 
L 174.837825 199.587813 
L 175.381899 199.260395 
L 176.068174 198.847323 
L 176.622148 198.513834 
L 177.67852 197.877828 
L 177.743613 197.838636 
L 178.168843 197.582605 
L 178.596683 197.325002 
L 179.6635 196.682703 
L 180.776028 196.012997 
L 181.516149 195.567572 
L 182.569051 194.9341 
L 183.482566 194.38472 
L 184.162789 193.975804 
L 184.295121 193.89627 
L 186.934116 192.311607 
L 188.230357 191.53439 
L 188.529746 191.355001 
L 189.323738 190.879492 
L 190.911722 189.929576 
L 196.734331 186.461347 
L 197.528323 185.990454 
L 199.910299 184.581079 
L 202.821603 182.865671 
L 204.144923 182.088704 
L 210.761524 178.232012 
L 217.378125 174.426546 
L 223.994726 170.677393 
L 230.611327 166.988879 
L 237.227927 163.364796 
L 243.844528 159.808571 
L 250.461129 156.323373 
L 257.07773 152.9122 
L 263.694331 149.577923 
L 270.310931 146.32333 
L 276.927532 143.151144 
L 283.544133 140.06404 
L 290.160734 137.064659 
L 296.777334 134.155612 
L 303.393935 131.339488 
L 303.393935 131.339488 
L 303.393935 131.339488 
L 310.010536 128.618862 
L 316.627137 125.996302 
L 323.243738 123.474374 
L 329.860338 121.055652 
L 336.476939 118.742732 
L 343.09354 116.538237 
L 349.710141 114.444833 
L 356.326742 112.465244 
L 362.943342 110.602263 
L 369.559943 108.85877 
L 369.559943 108.85877 
" style="fill:none;stroke:#ff0000;stroke-dasharray:5.55,2.4;stroke-dashoffset:0;stroke-width:1.5;"/>
   </g>
   <g id="line2d_32">
    <defs>
     <path d="M 0 3 
C 0.795609 3 1.55874 2.683901 2.12132 2.12132 
C 2.683901 1.55874 3 0.795609 3 0 
C 3 -0.795609 2.683901 -1.55874 2.12132 -2.12132 
C 1.55874 -2.683901 0.795609 -3 0 -3 
C -0.795609 -3 -1.55874 -2.683901 -2.12132 -2.12132 
C -2.683901 -1.55874 -3 -0.795609 -3 0 
C -3 0.795609 -2.683901 1.55874 -2.12132 2.12132 
C -1.55874 2.683901 -0.795609 3 0 3 
z
" id="mfd911a2cf3" style="stroke:#000000;"/>
    </defs>
    <g clip-path="url(#p699165bf41)">
     <use style="stroke:#000000;" x="78.164844" xlink:href="#mfd911a2cf3" y="93.981558"/>
     <use style="stroke:#000000;" x="80.679153" xlink:href="#mfd911a2cf3" y="100.032117"/>
     <use style="stroke:#000000;" x="82.399469" xlink:href="#mfd911a2cf3" y="98.664433"/>
     <use style="stroke:#000000;" x="84.384449" xlink:href="#mfd911a2cf3" y="112.510906"/>
     <use style="stroke:#000000;" x="86.104765" xlink:href="#mfd911a2cf3" y="107.038126"/>
     <use style="stroke:#000000;" x="89.01607" xlink:href="#mfd911a2cf3" y="123.201788"/>
     <use style="stroke:#000000;" x="92.589034" xlink:href="#mfd911a2cf3" y="122.813609"/>
     <use style="stroke:#000000;" x="94.97101" xlink:href="#mfd911a2cf3" y="124.38709"/>
     <use style="stroke:#000000;" x="98.940971" xlink:href="#mfd911a2cf3" y="120.187331"/>
     <use style="stroke:#000000;" x="106.219232" xlink:href="#mfd911a2cf3" y="148.172163"/>
     <use style="stroke:#000000;" x="78.164844" xlink:href="#mfd911a2cf3" y="98.217734"/>
     <use style="stroke:#000000;" x="94.044686" xlink:href="#mfd911a2cf3" y="133.708372"/>
     <use style="stroke:#000000;" x="115.085477" xlink:href="#mfd911a2cf3" y="157.495725"/>
     <use style="stroke:#000000;" x="121.17275" xlink:href="#mfd911a2cf3" y="160.731193"/>
     <use style="stroke:#000000;" x="128.318678" xlink:href="#mfd911a2cf3" y="160.279959"/>
     <use style="stroke:#000000;" x="134.405951" xlink:href="#mfd911a2cf3" y="163.830072"/>
     <use style="stroke:#000000;" x="141.55188" xlink:href="#mfd911a2cf3" y="156.248322"/>
     <use style="stroke:#000000;" x="142.822609" xlink:href="#mfd911a2cf3" y="164.813435"/>
     <use style="stroke:#000000;" x="143.862949" xlink:href="#mfd911a2cf3" y="154.637776"/>
     <use style="stroke:#000000;" x="145.504811" xlink:href="#mfd911a2cf3" y="153.544141"/>
     <use style="stroke:#000000;" x="145.504811" xlink:href="#mfd911a2cf3" y="141.693508"/>
     <use style="stroke:#000000;" x="144.924379" xlink:href="#mfd911a2cf3" y="142.408476"/>
     <use style="stroke:#000000;" x="148.06602" xlink:href="#mfd911a2cf3" y="153.698737"/>
     <use style="stroke:#000000;" x="150.02381" xlink:href="#mfd911a2cf3" y="153.931643"/>
     <use style="stroke:#000000;" x="150.02381" xlink:href="#mfd911a2cf3" y="152.176457"/>
     <use style="stroke:#000000;" x="149.933278" xlink:href="#mfd911a2cf3" y="137.954426"/>
     <use style="stroke:#000000;" x="154.843518" xlink:href="#mfd911a2cf3" y="141.048073"/>
     <use style="stroke:#000000;" x="154.843518" xlink:href="#mfd911a2cf3" y="136.827787"/>
     <use style="stroke:#000000;" x="160.099457" xlink:href="#mfd911a2cf3" y="147.091351"/>
     <use style="stroke:#000000;" x="159.563293" xlink:href="#mfd911a2cf3" y="130.83988"/>
     <use style="stroke:#000000;" x="157.67137" xlink:href="#mfd911a2cf3" y="122.047276"/>
     <use style="stroke:#000000;" x="161.847892" xlink:href="#mfd911a2cf3" y="129.472196"/>
     <use style="stroke:#000000;" x="163.533398" xlink:href="#mfd911a2cf3" y="147.493582"/>
     <use style="stroke:#000000;" x="168.385186" xlink:href="#mfd911a2cf3" y="132.155508"/>
     <use style="stroke:#000000;" x="168.385186" xlink:href="#mfd911a2cf3" y="118.753458"/>
     <use style="stroke:#000000;" x="168.508271" xlink:href="#mfd911a2cf3" y="118.053503"/>
     <use style="stroke:#000000;" x="169.751701" xlink:href="#mfd911a2cf3" y="118.053503"/>
     <use style="stroke:#000000;" x="167.046881" xlink:href="#mfd911a2cf3" y="115.033354"/>
     <use style="stroke:#000000;" x="176.068174" xlink:href="#mfd911a2cf3" y="118.053503"/>
     <use style="stroke:#000000;" x="176.622148" xlink:href="#mfd911a2cf3" y="101.204908"/>
     <use style="stroke:#000000;" x="174.702448" xlink:href="#mfd911a2cf3" y="98.889478"/>
     <use style="stroke:#000000;" x="180.776028" xlink:href="#mfd911a2cf3" y="111.600713"/>
     <use style="stroke:#000000;" x="182.569051" xlink:href="#mfd911a2cf3" y="85.044145"/>
     <use style="stroke:#000000;" x="165.735922" xlink:href="#mfd911a2cf3" y="129.472196"/>
     <use style="stroke:#000000;" x="166.686569" xlink:href="#mfd911a2cf3" y="123.593387"/>
     <use style="stroke:#000000;" x="168.385186" xlink:href="#mfd911a2cf3" y="131.492826"/>
     <use style="stroke:#000000;" x="170.891431" xlink:href="#mfd911a2cf3" y="129.472196"/>
     <use style="stroke:#000000;" x="170.0032" xlink:href="#mfd911a2cf3" y="125.195225"/>
     <use style="stroke:#000000;" x="174.837825" xlink:href="#mfd911a2cf3" y="117.364401"/>
     <use style="stroke:#000000;" x="175.381899" xlink:href="#mfd911a2cf3" y="111.004111"/>
     <use style="stroke:#000000;" x="177.743613" xlink:href="#mfd911a2cf3" y="117.364401"/>
     <use style="stroke:#000000;" x="171.92127" xlink:href="#mfd911a2cf3" y="108.135618"/>
     <use style="stroke:#000000;" x="172.704176" xlink:href="#mfd911a2cf3" y="102.900609"/>
     <use style="stroke:#000000;" x="171.79163" xlink:href="#mfd911a2cf3" y="102.900609"/>
     <use style="stroke:#000000;" x="173.762573" xlink:href="#mfd911a2cf3" y="98.217734"/>
     <use style="stroke:#000000;" x="178.596683" xlink:href="#mfd911a2cf3" y="103.148221"/>
     <use style="stroke:#000000;" x="178.168843" xlink:href="#mfd911a2cf3" y="98.440523"/>
     <use style="stroke:#000000;" x="183.482566" xlink:href="#mfd911a2cf3" y="88.29985"/>
     <use style="stroke:#000000;" x="186.934116" xlink:href="#mfd911a2cf3" y="88.12242"/>
     <use style="stroke:#000000;" x="188.230357" xlink:href="#mfd911a2cf3" y="79.901023"/>
     <use style="stroke:#000000;" x="164.974647" xlink:href="#mfd911a2cf3" y="142.408476"/>
     <use style="stroke:#000000;" x="166.694963" xlink:href="#mfd911a2cf3" y="140.068662"/>
     <use style="stroke:#000000;" x="166.827295" xlink:href="#mfd911a2cf3" y="140.068662"/>
     <use style="stroke:#000000;" x="173.0469" xlink:href="#mfd911a2cf3" y="131.775624"/>
     <use style="stroke:#000000;" x="174.237888" xlink:href="#mfd911a2cf3" y="137.30714"/>
     <use style="stroke:#000000;" x="179.6635" xlink:href="#mfd911a2cf3" y="130.379293"/>
     <use style="stroke:#000000;" x="181.516149" xlink:href="#mfd911a2cf3" y="132.250989"/>
     <use style="stroke:#000000;" x="184.162789" xlink:href="#mfd911a2cf3" y="133.217249"/>
     <use style="stroke:#000000;" x="188.529746" xlink:href="#mfd911a2cf3" y="123.201788"/>
     <use style="stroke:#000000;" x="189.323738" xlink:href="#mfd911a2cf3" y="126.856959"/>
     <use style="stroke:#000000;" x="196.734331" xlink:href="#mfd911a2cf3" y="129.923431"/>
     <use style="stroke:#000000;" x="199.910299" xlink:href="#mfd911a2cf3" y="109.546728"/>
     <use style="stroke:#000000;" x="202.821603" xlink:href="#mfd911a2cf3" y="111.004111"/>
     <use style="stroke:#000000;" x="91.66271" xlink:href="#mfd911a2cf3" y="158.060996"/>
     <use style="stroke:#000000;" x="131.362315" xlink:href="#mfd911a2cf3" y="174.45773"/>
     <use style="stroke:#000000;" x="303.393935" xlink:href="#mfd911a2cf3" y="85.20968"/>
    </g>
   </g>
   <g id="patch_3">
    <path d="M 49.978125 239.758125 
L 49.978125 22.318125 
" style="fill:none;stroke:#000000;stroke-linecap:square;stroke-linejoin:miter;stroke-width:0.8;"/>
   </g>
   <g id="patch_4">
    <path d="M 384.778125 239.758125 
L 384.778125 22.318125 
" style="fill:none;stroke:#000000;stroke-linecap:square;stroke-linejoin:miter;stroke-width:0.8;"/>
   </g>
   <g id="patch_5">
    <path d="M 49.978125 239.758125 
L 384.778125 239.758125 
" style="fill:none;stroke:#000000;stroke-linecap:square;stroke-linejoin:miter;stroke-width:0.8;"/>
   </g>
   <g id="patch_6">
    <path d="M 49.978125 22.318125 
L 384.778125 22.318125 
" style="fill:none;stroke:#000000;stroke-linecap:square;stroke-linejoin:miter;stroke-width:0.8;"/>
   </g>
   <g id="text_11">
    <!-- 2 HO2 &lt;=&gt; H2O2 + O2 -->
    <defs>
     <path d="M 9.8125 72.90625 
L 19.671875 72.90625 
L 19.671875 43.015625 
L 55.515625 43.015625 
L 55.515625 72.90625 
L 65.375 72.90625 
L 65.375 0 
L 55.515625 0 
L 55.515625 34.71875 
L 19.671875 34.71875 
L 19.671875 0 
L 9.8125 0 
z
" id="DejaVuSans-72"/>
     <path d="M 39.40625 66.21875 
Q 28.65625 66.21875 22.328125 58.203125 
Q 16.015625 50.203125 16.015625 36.375 
Q 16.015625 22.609375 22.328125 14.59375 
Q 28.65625 6.59375 39.40625 6.59375 
Q 50.140625 6.59375 56.421875 14.59375 
Q 62.703125 22.609375 62.703125 36.375 
Q 62.703125 50.203125 56.421875 58.203125 
Q 50.140625 66.21875 39.40625 66.21875 
z
M 39.40625 74.21875 
Q 54.734375 74.21875 63.90625 63.9375 
Q 73.09375 53.65625 73.09375 36.375 
Q 73.09375 19.140625 63.90625 8.859375 
Q 54.734375 -1.421875 39.40625 -1.421875 
Q 24.03125 -1.421875 14.8125 8.828125 
Q 5.609375 19.09375 5.609375 36.375 
Q 5.609375 53.65625 14.8125 63.9375 
Q 24.03125 74.21875 39.40625 74.21875 
z
" id="DejaVuSans-79"/>
     <path d="M 73.1875 49.21875 
L 22.796875 31.296875 
L 73.1875 13.484375 
L 73.1875 4.59375 
L 10.59375 27.296875 
L 10.59375 35.40625 
L 73.1875 58.109375 
z
" id="DejaVuSans-60"/>
     <path d="M 10.59375 45.40625 
L 73.1875 45.40625 
L 73.1875 37.203125 
L 10.59375 37.203125 
z
M 10.59375 25.484375 
L 73.1875 25.484375 
L 73.1875 17.1875 
L 10.59375 17.1875 
z
" id="DejaVuSans-61"/>
     <path d="M 10.59375 49.21875 
L 10.59375 58.109375 
L 73.1875 35.40625 
L 73.1875 27.296875 
L 10.59375 4.59375 
L 10.59375 13.484375 
L 60.890625 31.296875 
z
" id="DejaVuSans-62"/>
     <path d="M 46 62.703125 
L 46 35.5 
L 73.1875 35.5 
L 73.1875 27.203125 
L 46 27.203125 
L 46 0 
L 37.796875 0 
L 37.796875 27.203125 
L 10.59375 27.203125 
L 10.59375 35.5 
L 37.796875 35.5 
L 37.796875 62.703125 
z
" id="DejaVuSans-43"/>
    </defs>
    <g transform="translate(145.45125 16.318125)scale(0.12 -0.12)">
     <use xlink:href="#DejaVuSans-50"/>
     <use x="63.623047" xlink:href="#DejaVuSans-32"/>
     <use x="95.410156" xlink:href="#DejaVuSans-72"/>
     <use x="170.605469" xlink:href="#DejaVuSans-79"/>
     <use x="249.316406" xlink:href="#DejaVuSans-50"/>
     <use x="312.939453" xlink:href="#DejaVuSans-32"/>
     <use x="344.726562" xlink:href="#DejaVuSans-60"/>
     <use x="428.515625" xlink:href="#DejaVuSans-61"/>
     <use x="512.304688" xlink:href="#DejaVuSans-62"/>
     <use x="596.09375" xlink:href="#DejaVuSans-32"/>
     <use x="627.880859" xlink:href="#DejaVuSans-72"/>
     <use x="703.076172" xlink:href="#DejaVuSans-50"/>
     <use x="766.699219" xlink:href="#DejaVuSans-79"/>
     <use x="845.410156" xlink:href="#DejaVuSans-50"/>
     <use x="909.033203" xlink:href="#DejaVuSans-32"/>
     <use x="940.820312" xlink:href="#DejaVuSans-43"/>
     <use x="1024.609375" xlink:href="#DejaVuSans-32"/>
     <use x="1056.396484" xlink:href="#DejaVuSans-79"/>
     <use x="1135.107422" xlink:href="#DejaVuSans-50"/>
    </g>
   </g>
  </g>
 </g>
 <defs>
  <clipPath id="p699165bf41">
   <rect height="217.44" width="334.8" x="49.978125" y="22.318125"/>
  </clipPath>
 </defs>
</svg>
