<?xml version="1.0" encoding="utf-8" standalone="no"?>
<!DOCTYPE svg PUBLIC "-//W3C//DTD SVG 1.1//EN"
  "http://www.w3.org/Graphics/SVG/1.1/DTD/svg11.dtd">
<!-- Created with matplotlib (https://matplotlib.org/) -->
<svg height="277.314375pt" version="1.1" viewBox="0 0 395.64375 277.314375" width="395.64375pt" xmlns="http://www.w3.org/2000/svg" xmlns:xlink="http://www.w3.org/1999/xlink">
 <defs>
  <style type="text/css">
*{stroke-linecap:butt;stroke-linejoin:round;}
  </style>
 </defs>
 <g id="figure_1">
  <g id="patch_1">
   <path d="M 0 277.314375 
L 395.64375 277.314375 
L 395.64375 0 
L 0 0 
z
" style="fill:#ffffff;"/>
  </g>
  <g id="axes_1">
   <g id="patch_2">
    <path d="M 50.14375 239.758125 
L 384.94375 239.758125 
L 384.94375 22.318125 
L 50.14375 22.318125 
z
" style="fill:#ffffff;"/>
   </g>
   <g id="matplotlib.axis_1">
    <g id="xtick_1">
     <g id="line2d_1">
      <defs>
       <path d="M 0 0 
L 0 3.5 
" id="m2abc2c66fe" style="stroke:#000000;stroke-width:0.8;"/>
      </defs>
      <g>
       <use style="stroke:#000000;stroke-width:0.8;" x="65.361932" xlink:href="#m2abc2c66fe" y="239.758125"/>
      </g>
     </g>
     <g id="text_1">
      <!-- 0.0 -->
      <defs>
       <path d="M 31.78125 66.40625 
Q 24.171875 66.40625 20.328125 58.90625 
Q 16.5 51.421875 16.5 36.375 
Q 16.5 21.390625 20.328125 13.890625 
Q 24.171875 6.390625 31.78125 6.390625 
Q 39.453125 6.390625 43.28125 13.890625 
Q 47.125 21.390625 47.125 36.375 
Q 47.125 51.421875 43.28125 58.90625 
Q 39.453125 66.40625 31.78125 66.40625 
z
M 31.78125 74.21875 
Q 44.046875 74.21875 50.515625 64.515625 
Q 56.984375 54.828125 56.984375 36.375 
Q 56.984375 17.96875 50.515625 8.265625 
Q 44.046875 -1.421875 31.78125 -1.421875 
Q 19.53125 -1.421875 13.0625 8.265625 
Q 6.59375 17.96875 6.59375 36.375 
Q 6.59375 54.828125 13.0625 64.515625 
Q 19.53125 74.21875 31.78125 74.21875 
z
" id="DejaVuSans-48"/>
       <path d="M 10.6875 12.40625 
L 21 12.40625 
L 21 0 
L 10.6875 0 
z
" id="DejaVuSans-46"/>
      </defs>
      <g transform="translate(57.410369 254.356562)scale(0.1 -0.1)">
       <use xlink:href="#DejaVuSans-48"/>
       <use x="63.623047" xlink:href="#DejaVuSans-46"/>
       <use x="95.410156" xlink:href="#DejaVuSans-48"/>
      </g>
     </g>
    </g>
    <g id="xtick_2">
     <g id="line2d_2">
      <g>
       <use style="stroke:#000000;stroke-width:0.8;" x="115.590541" xlink:href="#m2abc2c66fe" y="239.758125"/>
      </g>
     </g>
     <g id="text_2">
      <!-- 0.5 -->
      <defs>
       <path d="M 10.796875 72.90625 
L 49.515625 72.90625 
L 49.515625 64.59375 
L 19.828125 64.59375 
L 19.828125 46.734375 
Q 21.96875 47.46875 24.109375 47.828125 
Q 26.265625 48.1875 28.421875 48.1875 
Q 40.625 48.1875 47.75 41.5 
Q 54.890625 34.8125 54.890625 23.390625 
Q 54.890625 11.625 47.5625 5.09375 
Q 40.234375 -1.421875 26.90625 -1.421875 
Q 22.3125 -1.421875 17.546875 -0.640625 
Q 12.796875 0.140625 7.71875 1.703125 
L 7.71875 11.625 
Q 12.109375 9.234375 16.796875 8.0625 
Q 21.484375 6.890625 26.703125 6.890625 
Q 35.15625 6.890625 40.078125 11.328125 
Q 45.015625 15.765625 45.015625 23.390625 
Q 45.015625 31 40.078125 35.4375 
Q 35.15625 39.890625 26.703125 39.890625 
Q 22.75 39.890625 18.8125 39.015625 
Q 14.890625 38.140625 10.796875 36.28125 
z
" id="DejaVuSans-53"/>
      </defs>
      <g transform="translate(107.638978 254.356562)scale(0.1 -0.1)">
       <use xlink:href="#DejaVuSans-48"/>
       <use x="63.623047" xlink:href="#DejaVuSans-46"/>
       <use x="95.410156" xlink:href="#DejaVuSans-53"/>
      </g>
     </g>
    </g>
    <g id="xtick_3">
     <g id="line2d_3">
      <g>
       <use style="stroke:#000000;stroke-width:0.8;" x="165.81915" xlink:href="#m2abc2c66fe" y="239.758125"/>
      </g>
     </g>
     <g id="text_3">
      <!-- 1.0 -->
      <defs>
       <path d="M 12.40625 8.296875 
L 28.515625 8.296875 
L 28.515625 63.921875 
L 10.984375 60.40625 
L 10.984375 69.390625 
L 28.421875 72.90625 
L 38.28125 72.90625 
L 38.28125 8.296875 
L 54.390625 8.296875 
L 54.390625 0 
L 12.40625 0 
z
" id="DejaVuSans-49"/>
      </defs>
      <g transform="translate(157.867588 254.356562)scale(0.1 -0.1)">
       <use xlink:href="#DejaVuSans-49"/>
       <use x="63.623047" xlink:href="#DejaVuSans-46"/>
       <use x="95.410156" xlink:href="#DejaVuSans-48"/>
      </g>
     </g>
    </g>
    <g id="xtick_4">
     <g id="line2d_4">
      <g>
       <use style="stroke:#000000;stroke-width:0.8;" x="216.047759" xlink:href="#m2abc2c66fe" y="239.758125"/>
      </g>
     </g>
     <g id="text_4">
      <!-- 1.5 -->
      <g transform="translate(208.096197 254.356562)scale(0.1 -0.1)">
       <use xlink:href="#DejaVuSans-49"/>
       <use x="63.623047" xlink:href="#DejaVuSans-46"/>
       <use x="95.410156" xlink:href="#DejaVuSans-53"/>
      </g>
     </g>
    </g>
    <g id="xtick_5">
     <g id="line2d_5">
      <g>
       <use style="stroke:#000000;stroke-width:0.8;" x="266.276368" xlink:href="#m2abc2c66fe" y="239.758125"/>
      </g>
     </g>
     <g id="text_5">
      <!-- 2.0 -->
      <defs>
       <path d="M 19.1875 8.296875 
L 53.609375 8.296875 
L 53.609375 0 
L 7.328125 0 
L 7.328125 8.296875 
Q 12.9375 14.109375 22.625 23.890625 
Q 32.328125 33.6875 34.8125 36.53125 
Q 39.546875 41.84375 41.421875 45.53125 
Q 43.3125 49.21875 43.3125 52.78125 
Q 43.3125 58.59375 39.234375 62.25 
Q 35.15625 65.921875 28.609375 65.921875 
Q 23.96875 65.921875 18.8125 64.3125 
Q 13.671875 62.703125 7.8125 59.421875 
L 7.8125 69.390625 
Q 13.765625 71.78125 18.9375 73 
Q 24.125 74.21875 28.421875 74.21875 
Q 39.75 74.21875 46.484375 68.546875 
Q 53.21875 62.890625 53.21875 53.421875 
Q 53.21875 48.921875 51.53125 44.890625 
Q 49.859375 40.875 45.40625 35.40625 
Q 44.1875 33.984375 37.640625 27.21875 
Q 31.109375 20.453125 19.1875 8.296875 
z
" id="DejaVuSans-50"/>
      </defs>
      <g transform="translate(258.324806 254.356562)scale(0.1 -0.1)">
       <use xlink:href="#DejaVuSans-50"/>
       <use x="63.623047" xlink:href="#DejaVuSans-46"/>
       <use x="95.410156" xlink:href="#DejaVuSans-48"/>
      </g>
     </g>
    </g>
    <g id="xtick_6">
     <g id="line2d_6">
      <g>
       <use style="stroke:#000000;stroke-width:0.8;" x="316.504977" xlink:href="#m2abc2c66fe" y="239.758125"/>
      </g>
     </g>
     <g id="text_6">
      <!-- 2.5 -->
      <g transform="translate(308.553415 254.356562)scale(0.1 -0.1)">
       <use xlink:href="#DejaVuSans-50"/>
       <use x="63.623047" xlink:href="#DejaVuSans-46"/>
       <use x="95.410156" xlink:href="#DejaVuSans-53"/>
      </g>
     </g>
    </g>
    <g id="xtick_7">
     <g id="line2d_7">
      <g>
       <use style="stroke:#000000;stroke-width:0.8;" x="366.733587" xlink:href="#m2abc2c66fe" y="239.758125"/>
      </g>
     </g>
     <g id="text_7">
      <!-- 3.0 -->
      <defs>
       <path d="M 40.578125 39.3125 
Q 47.65625 37.796875 51.625 33 
Q 55.609375 28.21875 55.609375 21.1875 
Q 55.609375 10.40625 48.1875 4.484375 
Q 40.765625 -1.421875 27.09375 -1.421875 
Q 22.515625 -1.421875 17.65625 -0.515625 
Q 12.796875 0.390625 7.625 2.203125 
L 7.625 11.71875 
Q 11.71875 9.328125 16.59375 8.109375 
Q 21.484375 6.890625 26.8125 6.890625 
Q 36.078125 6.890625 40.9375 10.546875 
Q 45.796875 14.203125 45.796875 21.1875 
Q 45.796875 27.640625 41.28125 31.265625 
Q 36.765625 34.90625 28.71875 34.90625 
L 20.21875 34.90625 
L 20.21875 43.015625 
L 29.109375 43.015625 
Q 36.375 43.015625 40.234375 45.921875 
Q 44.09375 48.828125 44.09375 54.296875 
Q 44.09375 59.90625 40.109375 62.90625 
Q 36.140625 65.921875 28.71875 65.921875 
Q 24.65625 65.921875 20.015625 65.03125 
Q 15.375 64.15625 9.8125 62.3125 
L 9.8125 71.09375 
Q 15.4375 72.65625 20.34375 73.4375 
Q 25.25 74.21875 29.59375 74.21875 
Q 40.828125 74.21875 47.359375 69.109375 
Q 53.90625 64.015625 53.90625 55.328125 
Q 53.90625 49.265625 50.4375 45.09375 
Q 46.96875 40.921875 40.578125 39.3125 
z
" id="DejaVuSans-51"/>
      </defs>
      <g transform="translate(358.782024 254.356562)scale(0.1 -0.1)">
       <use xlink:href="#DejaVuSans-51"/>
       <use x="63.623047" xlink:href="#DejaVuSans-46"/>
       <use x="95.410156" xlink:href="#DejaVuSans-48"/>
      </g>
     </g>
    </g>
    <g id="text_8">
     <!-- Time (ms) -->
     <defs>
      <path d="M -0.296875 72.90625 
L 61.375 72.90625 
L 61.375 64.59375 
L 35.5 64.59375 
L 35.5 0 
L 25.59375 0 
L 25.59375 64.59375 
L -0.296875 64.59375 
z
" id="DejaVuSans-84"/>
      <path d="M 9.421875 54.6875 
L 18.40625 54.6875 
L 18.40625 0 
L 9.421875 0 
z
M 9.421875 75.984375 
L 18.40625 75.984375 
L 18.40625 64.59375 
L 9.421875 64.59375 
z
" id="DejaVuSans-105"/>
      <path d="M 52 44.1875 
Q 55.375 50.25 60.0625 53.125 
Q 64.75 56 71.09375 56 
Q 79.640625 56 84.28125 50.015625 
Q 88.921875 44.046875 88.921875 33.015625 
L 88.921875 0 
L 79.890625 0 
L 79.890625 32.71875 
Q 79.890625 40.578125 77.09375 44.375 
Q 74.3125 48.1875 68.609375 48.1875 
Q 61.625 48.1875 57.5625 43.546875 
Q 53.515625 38.921875 53.515625 30.90625 
L 53.515625 0 
L 44.484375 0 
L 44.484375 32.71875 
Q 44.484375 40.625 41.703125 44.40625 
Q 38.921875 48.1875 33.109375 48.1875 
Q 26.21875 48.1875 22.15625 43.53125 
Q 18.109375 38.875 18.109375 30.90625 
L 18.109375 0 
L 9.078125 0 
L 9.078125 54.6875 
L 18.109375 54.6875 
L 18.109375 46.1875 
Q 21.1875 51.21875 25.484375 53.609375 
Q 29.78125 56 35.6875 56 
Q 41.65625 56 45.828125 52.96875 
Q 50 49.953125 52 44.1875 
z
" id="DejaVuSans-109"/>
      <path d="M 56.203125 29.59375 
L 56.203125 25.203125 
L 14.890625 25.203125 
Q 15.484375 15.921875 20.484375 11.0625 
Q 25.484375 6.203125 34.421875 6.203125 
Q 39.59375 6.203125 44.453125 7.46875 
Q 49.3125 8.734375 54.109375 11.28125 
L 54.109375 2.78125 
Q 49.265625 0.734375 44.1875 -0.34375 
Q 39.109375 -1.421875 33.890625 -1.421875 
Q 20.796875 -1.421875 13.15625 6.1875 
Q 5.515625 13.8125 5.515625 26.8125 
Q 5.515625 40.234375 12.765625 48.109375 
Q 20.015625 56 32.328125 56 
Q 43.359375 56 49.78125 48.890625 
Q 56.203125 41.796875 56.203125 29.59375 
z
M 47.21875 32.234375 
Q 47.125 39.59375 43.09375 43.984375 
Q 39.0625 48.390625 32.421875 48.390625 
Q 24.90625 48.390625 20.390625 44.140625 
Q 15.875 39.890625 15.1875 32.171875 
z
" id="DejaVuSans-101"/>
      <path id="DejaVuSans-32"/>
      <path d="M 31 75.875 
Q 24.46875 64.65625 21.28125 53.65625 
Q 18.109375 42.671875 18.109375 31.390625 
Q 18.109375 20.125 21.3125 9.0625 
Q 24.515625 -2 31 -13.1875 
L 23.1875 -13.1875 
Q 15.875 -1.703125 12.234375 9.375 
Q 8.59375 20.453125 8.59375 31.390625 
Q 8.59375 42.28125 12.203125 53.3125 
Q 15.828125 64.359375 23.1875 75.875 
z
" id="DejaVuSans-40"/>
      <path d="M 44.28125 53.078125 
L 44.28125 44.578125 
Q 40.484375 46.53125 36.375 47.5 
Q 32.28125 48.484375 27.875 48.484375 
Q 21.1875 48.484375 17.84375 46.4375 
Q 14.5 44.390625 14.5 40.28125 
Q 14.5 37.15625 16.890625 35.375 
Q 19.28125 33.59375 26.515625 31.984375 
L 29.59375 31.296875 
Q 39.15625 29.25 43.1875 25.515625 
Q 47.21875 21.78125 47.21875 15.09375 
Q 47.21875 7.46875 41.1875 3.015625 
Q 35.15625 -1.421875 24.609375 -1.421875 
Q 20.21875 -1.421875 15.453125 -0.5625 
Q 10.6875 0.296875 5.421875 2 
L 5.421875 11.28125 
Q 10.40625 8.6875 15.234375 7.390625 
Q 20.0625 6.109375 24.8125 6.109375 
Q 31.15625 6.109375 34.5625 8.28125 
Q 37.984375 10.453125 37.984375 14.40625 
Q 37.984375 18.0625 35.515625 20.015625 
Q 33.0625 21.96875 24.703125 23.78125 
L 21.578125 24.515625 
Q 13.234375 26.265625 9.515625 29.90625 
Q 5.8125 33.546875 5.8125 39.890625 
Q 5.8125 47.609375 11.28125 51.796875 
Q 16.75 56 26.8125 56 
Q 31.78125 56 36.171875 55.265625 
Q 40.578125 54.546875 44.28125 53.078125 
z
" id="DejaVuSans-115"/>
      <path d="M 8.015625 75.875 
L 15.828125 75.875 
Q 23.140625 64.359375 26.78125 53.3125 
Q 30.421875 42.28125 30.421875 31.390625 
Q 30.421875 20.453125 26.78125 9.375 
Q 23.140625 -1.703125 15.828125 -13.1875 
L 8.015625 -13.1875 
Q 14.5 -2 17.703125 9.0625 
Q 20.90625 20.125 20.90625 31.390625 
Q 20.90625 42.671875 17.703125 53.65625 
Q 14.5 64.65625 8.015625 75.875 
z
" id="DejaVuSans-41"/>
     </defs>
     <g transform="translate(192.190625 268.034687)scale(0.1 -0.1)">
      <use xlink:href="#DejaVuSans-84"/>
      <use x="61.037109" xlink:href="#DejaVuSans-105"/>
      <use x="88.820312" xlink:href="#DejaVuSans-109"/>
      <use x="186.232422" xlink:href="#DejaVuSans-101"/>
      <use x="247.755859" xlink:href="#DejaVuSans-32"/>
      <use x="279.542969" xlink:href="#DejaVuSans-40"/>
      <use x="318.556641" xlink:href="#DejaVuSans-109"/>
      <use x="415.96875" xlink:href="#DejaVuSans-115"/>
      <use x="468.068359" xlink:href="#DejaVuSans-41"/>
     </g>
    </g>
   </g>
   <g id="matplotlib.axis_2">
    <g id="ytick_1">
     <g id="line2d_8">
      <defs>
       <path d="M 0 0 
L -3.5 0 
" id="mde6339573c" style="stroke:#000000;stroke-width:0.8;"/>
      </defs>
      <g>
       <use style="stroke:#000000;stroke-width:0.8;" x="50.14375" xlink:href="#mde6339573c" y="229.893337"/>
      </g>
     </g>
     <g id="text_9">
      <!-- 0.00 -->
      <g transform="translate(20.878125 233.692556)scale(0.1 -0.1)">
       <use xlink:href="#DejaVuSans-48"/>
       <use x="63.623047" xlink:href="#DejaVuSans-46"/>
       <use x="95.410156" xlink:href="#DejaVuSans-48"/>
       <use x="159.033203" xlink:href="#DejaVuSans-48"/>
      </g>
     </g>
    </g>
    <g id="ytick_2">
     <g id="line2d_9">
      <g>
       <use style="stroke:#000000;stroke-width:0.8;" x="50.14375" xlink:href="#mde6339573c" y="200.803468"/>
      </g>
     </g>
     <g id="text_10">
      <!-- 0.05 -->
      <g transform="translate(20.878125 204.602686)scale(0.1 -0.1)">
       <use xlink:href="#DejaVuSans-48"/>
       <use x="63.623047" xlink:href="#DejaVuSans-46"/>
       <use x="95.410156" xlink:href="#DejaVuSans-48"/>
       <use x="159.033203" xlink:href="#DejaVuSans-53"/>
      </g>
     </g>
    </g>
    <g id="ytick_3">
     <g id="line2d_10">
      <g>
       <use style="stroke:#000000;stroke-width:0.8;" x="50.14375" xlink:href="#mde6339573c" y="171.713598"/>
      </g>
     </g>
     <g id="text_11">
      <!-- 0.10 -->
      <g transform="translate(20.878125 175.512817)scale(0.1 -0.1)">
       <use xlink:href="#DejaVuSans-48"/>
       <use x="63.623047" xlink:href="#DejaVuSans-46"/>
       <use x="95.410156" xlink:href="#DejaVuSans-49"/>
       <use x="159.033203" xlink:href="#DejaVuSans-48"/>
      </g>
     </g>
    </g>
    <g id="ytick_4">
     <g id="line2d_11">
      <g>
       <use style="stroke:#000000;stroke-width:0.8;" x="50.14375" xlink:href="#mde6339573c" y="142.623728"/>
      </g>
     </g>
     <g id="text_12">
      <!-- 0.15 -->
      <g transform="translate(20.878125 146.422947)scale(0.1 -0.1)">
       <use xlink:href="#DejaVuSans-48"/>
       <use x="63.623047" xlink:href="#DejaVuSans-46"/>
       <use x="95.410156" xlink:href="#DejaVuSans-49"/>
       <use x="159.033203" xlink:href="#DejaVuSans-53"/>
      </g>
     </g>
    </g>
    <g id="ytick_5">
     <g id="line2d_12">
      <g>
       <use style="stroke:#000000;stroke-width:0.8;" x="50.14375" xlink:href="#mde6339573c" y="113.533858"/>
      </g>
     </g>
     <g id="text_13">
      <!-- 0.20 -->
      <g transform="translate(20.878125 117.333077)scale(0.1 -0.1)">
       <use xlink:href="#DejaVuSans-48"/>
       <use x="63.623047" xlink:href="#DejaVuSans-46"/>
       <use x="95.410156" xlink:href="#DejaVuSans-50"/>
       <use x="159.033203" xlink:href="#DejaVuSans-48"/>
      </g>
     </g>
    </g>
    <g id="ytick_6">
     <g id="line2d_13">
      <g>
       <use style="stroke:#000000;stroke-width:0.8;" x="50.14375" xlink:href="#mde6339573c" y="84.443989"/>
      </g>
     </g>
     <g id="text_14">
      <!-- 0.25 -->
      <g transform="translate(20.878125 88.243208)scale(0.1 -0.1)">
       <use xlink:href="#DejaVuSans-48"/>
       <use x="63.623047" xlink:href="#DejaVuSans-46"/>
       <use x="95.410156" xlink:href="#DejaVuSans-50"/>
       <use x="159.033203" xlink:href="#DejaVuSans-53"/>
      </g>
     </g>
    </g>
    <g id="ytick_7">
     <g id="line2d_14">
      <g>
       <use style="stroke:#000000;stroke-width:0.8;" x="50.14375" xlink:href="#mde6339573c" y="55.354119"/>
      </g>
     </g>
     <g id="text_15">
      <!-- 0.30 -->
      <g transform="translate(20.878125 59.153338)scale(0.1 -0.1)">
       <use xlink:href="#DejaVuSans-48"/>
       <use x="63.623047" xlink:href="#DejaVuSans-46"/>
       <use x="95.410156" xlink:href="#DejaVuSans-51"/>
       <use x="159.033203" xlink:href="#DejaVuSans-48"/>
      </g>
     </g>
    </g>
    <g id="ytick_8">
     <g id="line2d_15">
      <g>
       <use style="stroke:#000000;stroke-width:0.8;" x="50.14375" xlink:href="#mde6339573c" y="26.264249"/>
      </g>
     </g>
     <g id="text_16">
      <!-- 0.35 -->
      <g transform="translate(20.878125 30.063468)scale(0.1 -0.1)">
       <use xlink:href="#DejaVuSans-48"/>
       <use x="63.623047" xlink:href="#DejaVuSans-46"/>
       <use x="95.410156" xlink:href="#DejaVuSans-51"/>
       <use x="159.033203" xlink:href="#DejaVuSans-53"/>
      </g>
     </g>
    </g>
    <g id="text_17">
     <!-- Absorbance227 -->
     <defs>
      <path d="M 34.1875 63.1875 
L 20.796875 26.90625 
L 47.609375 26.90625 
z
M 28.609375 72.90625 
L 39.796875 72.90625 
L 67.578125 0 
L 57.328125 0 
L 50.6875 18.703125 
L 17.828125 18.703125 
L 11.1875 0 
L 0.78125 0 
z
" id="DejaVuSans-65"/>
      <path d="M 48.6875 27.296875 
Q 48.6875 37.203125 44.609375 42.84375 
Q 40.53125 48.484375 33.40625 48.484375 
Q 26.265625 48.484375 22.1875 42.84375 
Q 18.109375 37.203125 18.109375 27.296875 
Q 18.109375 17.390625 22.1875 11.75 
Q 26.265625 6.109375 33.40625 6.109375 
Q 40.53125 6.109375 44.609375 11.75 
Q 48.6875 17.390625 48.6875 27.296875 
z
M 18.109375 46.390625 
Q 20.953125 51.265625 25.265625 53.625 
Q 29.59375 56 35.59375 56 
Q 45.5625 56 51.78125 48.09375 
Q 58.015625 40.1875 58.015625 27.296875 
Q 58.015625 14.40625 51.78125 6.484375 
Q 45.5625 -1.421875 35.59375 -1.421875 
Q 29.59375 -1.421875 25.265625 0.953125 
Q 20.953125 3.328125 18.109375 8.203125 
L 18.109375 0 
L 9.078125 0 
L 9.078125 75.984375 
L 18.109375 75.984375 
z
" id="DejaVuSans-98"/>
      <path d="M 30.609375 48.390625 
Q 23.390625 48.390625 19.1875 42.75 
Q 14.984375 37.109375 14.984375 27.296875 
Q 14.984375 17.484375 19.15625 11.84375 
Q 23.34375 6.203125 30.609375 6.203125 
Q 37.796875 6.203125 41.984375 11.859375 
Q 46.1875 17.53125 46.1875 27.296875 
Q 46.1875 37.015625 41.984375 42.703125 
Q 37.796875 48.390625 30.609375 48.390625 
z
M 30.609375 56 
Q 42.328125 56 49.015625 48.375 
Q 55.71875 40.765625 55.71875 27.296875 
Q 55.71875 13.875 49.015625 6.21875 
Q 42.328125 -1.421875 30.609375 -1.421875 
Q 18.84375 -1.421875 12.171875 6.21875 
Q 5.515625 13.875 5.515625 27.296875 
Q 5.515625 40.765625 12.171875 48.375 
Q 18.84375 56 30.609375 56 
z
" id="DejaVuSans-111"/>
      <path d="M 41.109375 46.296875 
Q 39.59375 47.171875 37.8125 47.578125 
Q 36.03125 48 33.890625 48 
Q 26.265625 48 22.1875 43.046875 
Q 18.109375 38.09375 18.109375 28.8125 
L 18.109375 0 
L 9.078125 0 
L 9.078125 54.6875 
L 18.109375 54.6875 
L 18.109375 46.1875 
Q 20.953125 51.171875 25.484375 53.578125 
Q 30.03125 56 36.53125 56 
Q 37.453125 56 38.578125 55.875 
Q 39.703125 55.765625 41.0625 55.515625 
z
" id="DejaVuSans-114"/>
      <path d="M 34.28125 27.484375 
Q 23.390625 27.484375 19.1875 25 
Q 14.984375 22.515625 14.984375 16.5 
Q 14.984375 11.71875 18.140625 8.90625 
Q 21.296875 6.109375 26.703125 6.109375 
Q 34.1875 6.109375 38.703125 11.40625 
Q 43.21875 16.703125 43.21875 25.484375 
L 43.21875 27.484375 
z
M 52.203125 31.203125 
L 52.203125 0 
L 43.21875 0 
L 43.21875 8.296875 
Q 40.140625 3.328125 35.546875 0.953125 
Q 30.953125 -1.421875 24.3125 -1.421875 
Q 15.921875 -1.421875 10.953125 3.296875 
Q 6 8.015625 6 15.921875 
Q 6 25.140625 12.171875 29.828125 
Q 18.359375 34.515625 30.609375 34.515625 
L 43.21875 34.515625 
L 43.21875 35.40625 
Q 43.21875 41.609375 39.140625 45 
Q 35.0625 48.390625 27.6875 48.390625 
Q 23 48.390625 18.546875 47.265625 
Q 14.109375 46.140625 10.015625 43.890625 
L 10.015625 52.203125 
Q 14.9375 54.109375 19.578125 55.046875 
Q 24.21875 56 28.609375 56 
Q 40.484375 56 46.34375 49.84375 
Q 52.203125 43.703125 52.203125 31.203125 
z
" id="DejaVuSans-97"/>
      <path d="M 54.890625 33.015625 
L 54.890625 0 
L 45.90625 0 
L 45.90625 32.71875 
Q 45.90625 40.484375 42.875 44.328125 
Q 39.84375 48.1875 33.796875 48.1875 
Q 26.515625 48.1875 22.3125 43.546875 
Q 18.109375 38.921875 18.109375 30.90625 
L 18.109375 0 
L 9.078125 0 
L 9.078125 54.6875 
L 18.109375 54.6875 
L 18.109375 46.1875 
Q 21.34375 51.125 25.703125 53.5625 
Q 30.078125 56 35.796875 56 
Q 45.21875 56 50.046875 50.171875 
Q 54.890625 44.34375 54.890625 33.015625 
z
" id="DejaVuSans-110"/>
      <path d="M 48.78125 52.59375 
L 48.78125 44.1875 
Q 44.96875 46.296875 41.140625 47.34375 
Q 37.3125 48.390625 33.40625 48.390625 
Q 24.65625 48.390625 19.8125 42.84375 
Q 14.984375 37.3125 14.984375 27.296875 
Q 14.984375 17.28125 19.8125 11.734375 
Q 24.65625 6.203125 33.40625 6.203125 
Q 37.3125 6.203125 41.140625 7.25 
Q 44.96875 8.296875 48.78125 10.40625 
L 48.78125 2.09375 
Q 45.015625 0.34375 40.984375 -0.53125 
Q 36.96875 -1.421875 32.421875 -1.421875 
Q 20.0625 -1.421875 12.78125 6.34375 
Q 5.515625 14.109375 5.515625 27.296875 
Q 5.515625 40.671875 12.859375 48.328125 
Q 20.21875 56 33.015625 56 
Q 37.15625 56 41.109375 55.140625 
Q 45.0625 54.296875 48.78125 52.59375 
z
" id="DejaVuSans-99"/>
      <path d="M 8.203125 72.90625 
L 55.078125 72.90625 
L 55.078125 68.703125 
L 28.609375 0 
L 18.3125 0 
L 43.21875 64.59375 
L 8.203125 64.59375 
z
" id="DejaVuSans-55"/>
     </defs>
     <g transform="translate(14.798438 170.12875)rotate(-90)scale(0.1 -0.1)">
      <use xlink:href="#DejaVuSans-65"/>
      <use x="68.408203" xlink:href="#DejaVuSans-98"/>
      <use x="131.884766" xlink:href="#DejaVuSans-115"/>
      <use x="183.984375" xlink:href="#DejaVuSans-111"/>
      <use x="245.166016" xlink:href="#DejaVuSans-114"/>
      <use x="286.279297" xlink:href="#DejaVuSans-98"/>
      <use x="349.755859" xlink:href="#DejaVuSans-97"/>
      <use x="411.035156" xlink:href="#DejaVuSans-110"/>
      <use x="474.414062" xlink:href="#DejaVuSans-99"/>
      <use x="529.394531" xlink:href="#DejaVuSans-101"/>
      <use x="590.917969" xlink:href="#DejaVuSans-50"/>
      <use x="654.541016" xlink:href="#DejaVuSans-50"/>
      <use x="718.164062" xlink:href="#DejaVuSans-55"/>
     </g>
    </g>
   </g>
   <g id="line2d_16">
    <path clip-path="url(#p2e480134f9)" d="M 65.361932 162.274275 
L 65.386866 162.336684 
L 65.433196 162.11238 
L 65.547827 159.998506 
L 65.83473 149.287003 
L 66.529587 123.687825 
L 66.944651 115.761537 
L 67.294507 112.604777 
L 67.557308 111.776133 
L 67.721559 111.775538 
L 67.885811 112.099805 
L 68.181463 113.344748 
L 68.627382 116.398512 
L 69.373836 123.362341 
L 73.806498 168.034491 
L 75.193339 178.644487 
L 76.532196 187.260806 
L 77.850346 194.379094 
L 79.188867 200.421546 
L 80.59266 205.676107 
L 81.996452 210.006208 
L 83.400245 213.570908 
L 84.804038 216.503582 
L 86.20783 218.915161 
L 87.720126 221.035075 
L 89.156256 222.67263 
L 90.724392 224.121384 
L 92.530917 225.438347 
L 94.233644 226.406566 
L 96.276916 227.297587 
L 98.660733 228.055379 
L 101.385096 228.654522 
L 104.450004 229.096248 
L 108.536549 229.444811 
L 114.32582 229.683402 
L 123.86109 229.813265 
L 148.980233 229.853915 
L 369.075184 229.862957 
L 369.075184 229.862957 
" style="fill:none;stroke:#0000ff;stroke-linecap:square;stroke-width:1.5;"/>
   </g>
   <g id="line2d_17">
    <path clip-path="url(#p2e480134f9)" d="M 65.361932 162.274279 
L 65.399291 162.402607 
L 65.454996 162.150209 
L 65.584345 159.849859 
L 65.872241 149.480627 
L 66.617238 122.257327 
L 67.000198 115.628773 
L 67.298141 113.57557 
L 67.457921 113.333989 
L 67.489877 113.345934 
L 67.6177 113.571785 
L 67.841391 114.559185 
L 68.224862 117.563527 
L 68.864331 124.764383 
L 72.821117 173.395359 
L 74.03662 184.303642 
L 75.296642 193.551472 
L 76.458659 200.494846 
L 77.579127 205.985275 
L 78.695432 210.475909 
L 79.796466 214.110135 
L 80.8975 217.090702 
L 81.998534 219.530832 
L 83.319774 221.877181 
L 84.583752 223.642596 
L 85.850041 225.036518 
L 87.11606 226.130611 
L 88.562938 227.091703 
L 90.190676 227.889067 
L 91.999273 228.514164 
L 94.16959 229.010199 
L 96.882487 229.378754 
L 100.499682 229.626083 
L 106.201473 229.769435 
L 119.547751 229.824731 
L 274.95229 229.838859 
L 369.725568 229.843533 
L 369.725568 229.843533 
" style="fill:none;stroke:#ff0000;stroke-linecap:square;stroke-width:1.5;"/>
   </g>
   <g id="line2d_18">
    <defs>
     <path d="M 0 3 
C 0.795609 3 1.55874 2.683901 2.12132 2.12132 
C 2.683901 1.55874 3 0.795609 3 0 
C 3 -0.795609 2.683901 -1.55874 2.12132 -2.12132 
C 1.55874 -2.683901 0.795609 -3 0 -3 
C -0.795609 -3 -1.55874 -2.683901 -2.12132 -2.12132 
C -2.683901 -1.55874 -3 -0.795609 -3 0 
C -3 0.795609 -2.683901 1.55874 -2.12132 2.12132 
C -1.55874 2.683901 -0.795609 3 0 3 
z
" id="md7f65ecb9c" style="stroke:#000000;"/>
    </defs>
    <g clip-path="url(#p2e480134f9)">
     <use style="stroke:#000000;" x="65.361932" xlink:href="#md7f65ecb9c" y="161.583342"/>
     <use style="stroke:#000000;" x="65.361934" xlink:href="#md7f65ecb9c" y="161.583342"/>
     <use style="stroke:#000000;" x="65.36194" xlink:href="#md7f65ecb9c" y="161.583342"/>
     <use style="stroke:#000000;" x="65.361946" xlink:href="#md7f65ecb9c" y="161.583342"/>
     <use style="stroke:#000000;" x="65.361952" xlink:href="#md7f65ecb9c" y="161.583342"/>
     <use style="stroke:#000000;" x="65.361958" xlink:href="#md7f65ecb9c" y="161.583342"/>
     <use style="stroke:#000000;" x="65.36197" xlink:href="#md7f65ecb9c" y="161.583342"/>
     <use style="stroke:#000000;" x="65.361993" xlink:href="#md7f65ecb9c" y="161.583342"/>
     <use style="stroke:#000000;" x="65.362034" xlink:href="#md7f65ecb9c" y="161.583342"/>
     <use style="stroke:#000000;" x="65.362108" xlink:href="#md7f65ecb9c" y="161.583342"/>
     <use style="stroke:#000000;" x="65.362258" xlink:href="#md7f65ecb9c" y="161.583342"/>
     <use style="stroke:#000000;" x="65.362409" xlink:href="#md7f65ecb9c" y="161.583923"/>
     <use style="stroke:#000000;" x="65.36256" xlink:href="#md7f65ecb9c" y="161.583923"/>
     <use style="stroke:#000000;" x="65.362795" xlink:href="#md7f65ecb9c" y="161.584505"/>
     <use style="stroke:#000000;" x="65.363027" xlink:href="#md7f65ecb9c" y="161.584505"/>
     <use style="stroke:#000000;" x="65.363268" xlink:href="#md7f65ecb9c" y="161.585087"/>
     <use style="stroke:#000000;" x="65.363499" xlink:href="#md7f65ecb9c" y="161.585087"/>
     <use style="stroke:#000000;" x="65.363931" xlink:href="#md7f65ecb9c" y="161.585669"/>
     <use style="stroke:#000000;" x="65.364373" xlink:href="#md7f65ecb9c" y="161.586251"/>
     <use style="stroke:#000000;" x="65.364805" xlink:href="#md7f65ecb9c" y="161.586832"/>
     <use style="stroke:#000000;" x="65.365538" xlink:href="#md7f65ecb9c" y="161.587996"/>
     <use style="stroke:#000000;" x="65.366794" xlink:href="#md7f65ecb9c" y="161.58916"/>
     <use style="stroke:#000000;" x="65.36806" xlink:href="#md7f65ecb9c" y="161.590323"/>
     <use style="stroke:#000000;" x="65.369315" xlink:href="#md7f65ecb9c" y="161.592069"/>
     <use style="stroke:#000000;" x="65.370581" xlink:href="#md7f65ecb9c" y="161.59265"/>
     <use style="stroke:#000000;" x="65.372681" xlink:href="#md7f65ecb9c" y="161.594396"/>
     <use style="stroke:#000000;" x="65.374891" xlink:href="#md7f65ecb9c" y="161.596141"/>
     <use style="stroke:#000000;" x="65.377" xlink:href="#md7f65ecb9c" y="161.596723"/>
     <use style="stroke:#000000;" x="65.37911" xlink:href="#md7f65ecb9c" y="161.597887"/>
     <use style="stroke:#000000;" x="65.38132" xlink:href="#md7f65ecb9c" y="161.597887"/>
     <use style="stroke:#000000;" x="65.38343" xlink:href="#md7f65ecb9c" y="161.598468"/>
     <use style="stroke:#000000;" x="65.385539" xlink:href="#md7f65ecb9c" y="161.597887"/>
     <use style="stroke:#000000;" x="65.389055" xlink:href="#md7f65ecb9c" y="161.597305"/>
     <use style="stroke:#000000;" x="65.392471" xlink:href="#md7f65ecb9c" y="161.595559"/>
     <use style="stroke:#000000;" x="65.399101" xlink:href="#md7f65ecb9c" y="161.590323"/>
     <use style="stroke:#000000;" x="65.405832" xlink:href="#md7f65ecb9c" y="161.58276"/>
     <use style="stroke:#000000;" x="65.412462" xlink:href="#md7f65ecb9c" y="161.572287"/>
     <use style="stroke:#000000;" x="65.419092" xlink:href="#md7f65ecb9c" y="161.559488"/>
     <use style="stroke:#000000;" x="65.425722" xlink:href="#md7f65ecb9c" y="161.543779"/>
     <use style="stroke:#000000;" x="65.43627" xlink:href="#md7f65ecb9c" y="161.514108"/>
     <use style="stroke:#000000;" x="65.446718" xlink:href="#md7f65ecb9c" y="161.478036"/>
     <use style="stroke:#000000;" x="65.457266" xlink:href="#md7f65ecb9c" y="161.436729"/>
     <use style="stroke:#000000;" x="65.467412" xlink:href="#md7f65ecb9c" y="161.389603"/>
     <use style="stroke:#000000;" x="65.478462" xlink:href="#md7f65ecb9c" y="161.33666"/>
     <use style="stroke:#000000;" x="65.488508" xlink:href="#md7f65ecb9c" y="161.279062"/>
     <use style="stroke:#000000;" x="65.499558" xlink:href="#md7f65ecb9c" y="161.215646"/>
     <use style="stroke:#000000;" x="65.509604" xlink:href="#md7f65ecb9c" y="161.147575"/>
     <use style="stroke:#000000;" x="65.520654" xlink:href="#md7f65ecb9c" y="161.074851"/>
     <use style="stroke:#000000;" x="65.5307" xlink:href="#md7f65ecb9c" y="160.997472"/>
     <use style="stroke:#000000;" x="65.540746" xlink:href="#md7f65ecb9c" y="160.915438"/>
     <use style="stroke:#000000;" x="65.551796" xlink:href="#md7f65ecb9c" y="160.82875"/>
     <use style="stroke:#000000;" x="65.561842" xlink:href="#md7f65ecb9c" y="160.738572"/>
     <use style="stroke:#000000;" x="65.572892" xlink:href="#md7f65ecb9c" y="160.643739"/>
     <use style="stroke:#000000;" x="65.582938" xlink:href="#md7f65ecb9c" y="160.545415"/>
     <use style="stroke:#000000;" x="65.593988" xlink:href="#md7f65ecb9c" y="160.443019"/>
     <use style="stroke:#000000;" x="65.604034" xlink:href="#md7f65ecb9c" y="160.337132"/>
     <use style="stroke:#000000;" x="65.615084" xlink:href="#md7f65ecb9c" y="160.227172"/>
     <use style="stroke:#000000;" x="65.62513" xlink:href="#md7f65ecb9c" y="160.114303"/>
     <use style="stroke:#000000;" x="65.63618" xlink:href="#md7f65ecb9c" y="159.997944"/>
     <use style="stroke:#000000;" x="65.646226" xlink:href="#md7f65ecb9c" y="159.878675"/>
     <use style="stroke:#000000;" x="65.656271" xlink:href="#md7f65ecb9c" y="159.755916"/>
     <use style="stroke:#000000;" x="65.667322" xlink:href="#md7f65ecb9c" y="159.63083"/>
     <use style="stroke:#000000;" x="65.677367" xlink:href="#md7f65ecb9c" y="159.502252"/>
     <use style="stroke:#000000;" x="65.688418" xlink:href="#md7f65ecb9c" y="159.371348"/>
     <use style="stroke:#000000;" x="65.698463" xlink:href="#md7f65ecb9c" y="159.237535"/>
     <use style="stroke:#000000;" x="65.709514" xlink:href="#md7f65ecb9c" y="159.100812"/>
     <use style="stroke:#000000;" x="65.724582" xlink:href="#md7f65ecb9c" y="158.890783"/>
     <use style="stroke:#000000;" x="65.740656" xlink:href="#md7f65ecb9c" y="158.674936"/>
     <use style="stroke:#000000;" x="65.756729" xlink:href="#md7f65ecb9c" y="158.453853"/>
     <use style="stroke:#000000;" x="65.772802" xlink:href="#md7f65ecb9c" y="158.228698"/>
     <use style="stroke:#000000;" x="65.788875" xlink:href="#md7f65ecb9c" y="157.998306"/>
     <use style="stroke:#000000;" x="65.803944" xlink:href="#md7f65ecb9c" y="157.764424"/>
     <use style="stroke:#000000;" x="65.820017" xlink:href="#md7f65ecb9c" y="157.526468"/>
     <use style="stroke:#000000;" x="65.83609" xlink:href="#md7f65ecb9c" y="157.285022"/>
     <use style="stroke:#000000;" x="65.852163" xlink:href="#md7f65ecb9c" y="157.039504"/>
     <use style="stroke:#000000;" x="65.867232" xlink:href="#md7f65ecb9c" y="156.791077"/>
     <use style="stroke:#000000;" x="65.883305" xlink:href="#md7f65ecb9c" y="156.540322"/>
     <use style="stroke:#000000;" x="65.899378" xlink:href="#md7f65ecb9c" y="156.286076"/>
     <use style="stroke:#000000;" x="65.915451" xlink:href="#md7f65ecb9c" y="156.028922"/>
     <use style="stroke:#000000;" x="65.931524" xlink:href="#md7f65ecb9c" y="155.770022"/>
     <use style="stroke:#000000;" x="65.946593" xlink:href="#md7f65ecb9c" y="155.508795"/>
     <use style="stroke:#000000;" x="65.962666" xlink:href="#md7f65ecb9c" y="155.245241"/>
     <use style="stroke:#000000;" x="65.978739" xlink:href="#md7f65ecb9c" y="154.979941"/>
     <use style="stroke:#000000;" x="65.994812" xlink:href="#md7f65ecb9c" y="154.712896"/>
     <use style="stroke:#000000;" x="66.010885" xlink:href="#md7f65ecb9c" y="154.444106"/>
     <use style="stroke:#000000;" x="66.025954" xlink:href="#md7f65ecb9c" y="154.174152"/>
     <use style="stroke:#000000;" x="66.042027" xlink:href="#md7f65ecb9c" y="153.903034"/>
     <use style="stroke:#000000;" x="66.0581" xlink:href="#md7f65ecb9c" y="153.630171"/>
     <use style="stroke:#000000;" x="66.074173" xlink:href="#md7f65ecb9c" y="153.356726"/>
     <use style="stroke:#000000;" x="66.089242" xlink:href="#md7f65ecb9c" y="153.082118"/>
     <use style="stroke:#000000;" x="66.105315" xlink:href="#md7f65ecb9c" y="152.806928"/>
     <use style="stroke:#000000;" x="66.121388" xlink:href="#md7f65ecb9c" y="152.530574"/>
     <use style="stroke:#000000;" x="66.137462" xlink:href="#md7f65ecb9c" y="152.25422"/>
     <use style="stroke:#000000;" x="66.153535" xlink:href="#md7f65ecb9c" y="151.976703"/>
     <use style="stroke:#000000;" x="66.168603" xlink:href="#md7f65ecb9c" y="151.699186"/>
     <use style="stroke:#000000;" x="66.184676" xlink:href="#md7f65ecb9c" y="151.421668"/>
     <use style="stroke:#000000;" x="66.20075" xlink:href="#md7f65ecb9c" y="151.143569"/>
     <use style="stroke:#000000;" x="66.216823" xlink:href="#md7f65ecb9c" y="150.86547"/>
     <use style="stroke:#000000;" x="66.231891" xlink:href="#md7f65ecb9c" y="150.586789"/>
     <use style="stroke:#000000;" x="66.247964" xlink:href="#md7f65ecb9c" y="150.30869"/>
     <use style="stroke:#000000;" x="66.264038" xlink:href="#md7f65ecb9c" y="150.030591"/>
     <use style="stroke:#000000;" x="66.280111" xlink:href="#md7f65ecb9c" y="149.752492"/>
     <use style="stroke:#000000;" x="66.296184" xlink:href="#md7f65ecb9c" y="149.474974"/>
     <use style="stroke:#000000;" x="66.311253" xlink:href="#md7f65ecb9c" y="149.197457"/>
     <use style="stroke:#000000;" x="66.335362" xlink:href="#md7f65ecb9c" y="148.780308"/>
     <use style="stroke:#000000;" x="66.359472" xlink:href="#md7f65ecb9c" y="148.364905"/>
     <use style="stroke:#000000;" x="66.386595" xlink:href="#md7f65ecb9c" y="147.950083"/>
     <use style="stroke:#000000;" x="66.406687" xlink:href="#md7f65ecb9c" y="147.536425"/>
     <use style="stroke:#000000;" x="66.426778" xlink:href="#md7f65ecb9c" y="147.124513"/>
     <use style="stroke:#000000;" x="66.456915" xlink:href="#md7f65ecb9c" y="146.714346"/>
     <use style="stroke:#000000;" x="66.477007" xlink:href="#md7f65ecb9c" y="146.305924"/>
     <use style="stroke:#000000;" x="66.507144" xlink:href="#md7f65ecb9c" y="145.899829"/>
     <use style="stroke:#000000;" x="66.527236" xlink:href="#md7f65ecb9c" y="145.494898"/>
     <use style="stroke:#000000;" x="66.547327" xlink:href="#md7f65ecb9c" y="145.092876"/>
     <use style="stroke:#000000;" x="66.577464" xlink:href="#md7f65ecb9c" y="144.6926"/>
     <use style="stroke:#000000;" x="66.597556" xlink:href="#md7f65ecb9c" y="144.29465"/>
     <use style="stroke:#000000;" x="66.617647" xlink:href="#md7f65ecb9c" y="143.899028"/>
     <use style="stroke:#000000;" x="66.647784" xlink:href="#md7f65ecb9c" y="143.506315"/>
     <use style="stroke:#000000;" x="66.667876" xlink:href="#md7f65ecb9c" y="143.115929"/>
     <use style="stroke:#000000;" x="66.698013" xlink:href="#md7f65ecb9c" y="142.72787"/>
     <use style="stroke:#000000;" x="66.718104" xlink:href="#md7f65ecb9c" y="142.34272"/>
     <use style="stroke:#000000;" x="66.738196" xlink:href="#md7f65ecb9c" y="141.960479"/>
     <use style="stroke:#000000;" x="66.768333" xlink:href="#md7f65ecb9c" y="141.580565"/>
     <use style="stroke:#000000;" x="66.788424" xlink:href="#md7f65ecb9c" y="141.203561"/>
     <use style="stroke:#000000;" x="66.808516" xlink:href="#md7f65ecb9c" y="140.830047"/>
     <use style="stroke:#000000;" x="66.838653" xlink:href="#md7f65ecb9c" y="140.45886"/>
     <use style="stroke:#000000;" x="66.858744" xlink:href="#md7f65ecb9c" y="140.090582"/>
     <use style="stroke:#000000;" x="66.888882" xlink:href="#md7f65ecb9c" y="139.725795"/>
     <use style="stroke:#000000;" x="66.908973" xlink:href="#md7f65ecb9c" y="139.363336"/>
     <use style="stroke:#000000;" x="66.929064" xlink:href="#md7f65ecb9c" y="139.004367"/>
     <use style="stroke:#000000;" x="66.959202" xlink:href="#md7f65ecb9c" y="138.648888"/>
     <use style="stroke:#000000;" x="66.979293" xlink:href="#md7f65ecb9c" y="138.295737"/>
     <use style="stroke:#000000;" x="66.999384" xlink:href="#md7f65ecb9c" y="137.946077"/>
     <use style="stroke:#000000;" x="67.029522" xlink:href="#md7f65ecb9c" y="137.599326"/>
     <use style="stroke:#000000;" x="67.049613" xlink:href="#md7f65ecb9c" y="137.255484"/>
     <use style="stroke:#000000;" x="67.07975" xlink:href="#md7f65ecb9c" y="136.915132"/>
     <use style="stroke:#000000;" x="67.099842" xlink:href="#md7f65ecb9c" y="136.578271"/>
     <use style="stroke:#000000;" x="67.119933" xlink:href="#md7f65ecb9c" y="136.243738"/>
     <use style="stroke:#000000;" x="67.15007" xlink:href="#md7f65ecb9c" y="135.913277"/>
     <use style="stroke:#000000;" x="67.170162" xlink:href="#md7f65ecb9c" y="135.585143"/>
     <use style="stroke:#000000;" x="67.190253" xlink:href="#md7f65ecb9c" y="135.2605"/>
     <use style="stroke:#000000;" x="67.230436" xlink:href="#md7f65ecb9c" y="134.777027"/>
     <use style="stroke:#000000;" x="67.270619" xlink:href="#md7f65ecb9c" y="134.301116"/>
     <use style="stroke:#000000;" x="67.300756" xlink:href="#md7f65ecb9c" y="133.832188"/>
     <use style="stroke:#000000;" x="67.340939" xlink:href="#md7f65ecb9c" y="133.370241"/>
     <use style="stroke:#000000;" x="67.371076" xlink:href="#md7f65ecb9c" y="132.915275"/>
     <use style="stroke:#000000;" x="67.411259" xlink:href="#md7f65ecb9c" y="132.467873"/>
     <use style="stroke:#000000;" x="67.441396" xlink:href="#md7f65ecb9c" y="132.027452"/>
     <use style="stroke:#000000;" x="67.481579" xlink:href="#md7f65ecb9c" y="131.594595"/>
     <use style="stroke:#000000;" x="67.521762" xlink:href="#md7f65ecb9c" y="131.168137"/>
     <use style="stroke:#000000;" x="67.551899" xlink:href="#md7f65ecb9c" y="130.749243"/>
     <use style="stroke:#000000;" x="67.592082" xlink:href="#md7f65ecb9c" y="130.336749"/>
     <use style="stroke:#000000;" x="67.622219" xlink:href="#md7f65ecb9c" y="129.931818"/>
     <use style="stroke:#000000;" x="67.662402" xlink:href="#md7f65ecb9c" y="129.533287"/>
     <use style="stroke:#000000;" x="67.692539" xlink:href="#md7f65ecb9c" y="129.141737"/>
     <use style="stroke:#000000;" x="67.732722" xlink:href="#md7f65ecb9c" y="128.757169"/>
     <use style="stroke:#000000;" x="67.772905" xlink:href="#md7f65ecb9c" y="128.379583"/>
     <use style="stroke:#000000;" x="67.803042" xlink:href="#md7f65ecb9c" y="128.008396"/>
     <use style="stroke:#000000;" x="67.843225" xlink:href="#md7f65ecb9c" y="127.644191"/>
     <use style="stroke:#000000;" x="67.873362" xlink:href="#md7f65ecb9c" y="127.285803"/>
     <use style="stroke:#000000;" x="67.913545" xlink:href="#md7f65ecb9c" y="126.93498"/>
     <use style="stroke:#000000;" x="67.953728" xlink:href="#md7f65ecb9c" y="126.589974"/>
     <use style="stroke:#000000;" x="67.983865" xlink:href="#md7f65ecb9c" y="126.251368"/>
     <use style="stroke:#000000;" x="68.024048" xlink:href="#md7f65ecb9c" y="125.919743"/>
     <use style="stroke:#000000;" x="68.054185" xlink:href="#md7f65ecb9c" y="125.593937"/>
     <use style="stroke:#000000;" x="68.094368" xlink:href="#md7f65ecb9c" y="125.27453"/>
     <use style="stroke:#000000;" x="68.124505" xlink:href="#md7f65ecb9c" y="124.960941"/>
     <use style="stroke:#000000;" x="68.18478" xlink:href="#md7f65ecb9c" y="124.501903"/>
     <use style="stroke:#000000;" x="68.235008" xlink:href="#md7f65ecb9c" y="124.055664"/>
     <use style="stroke:#000000;" x="68.295283" xlink:href="#md7f65ecb9c" y="123.623389"/>
     <use style="stroke:#000000;" x="68.345511" xlink:href="#md7f65ecb9c" y="123.204495"/>
     <use style="stroke:#000000;" x="68.39574" xlink:href="#md7f65ecb9c" y="122.7984"/>
     <use style="stroke:#000000;" x="68.456014" xlink:href="#md7f65ecb9c" y="122.405105"/>
     <use style="stroke:#000000;" x="68.506243" xlink:href="#md7f65ecb9c" y="122.024028"/>
     <use style="stroke:#000000;" x="68.566517" xlink:href="#md7f65ecb9c" y="121.65575"/>
     <use style="stroke:#000000;" x="68.616746" xlink:href="#md7f65ecb9c" y="121.29969"/>
     <use style="stroke:#000000;" x="68.666974" xlink:href="#md7f65ecb9c" y="120.955848"/>
     <use style="stroke:#000000;" x="68.727249" xlink:href="#md7f65ecb9c" y="120.62306"/>
     <use style="stroke:#000000;" x="68.777477" xlink:href="#md7f65ecb9c" y="120.302489"/>
     <use style="stroke:#000000;" x="68.827706" xlink:href="#md7f65ecb9c" y="119.992973"/>
     <use style="stroke:#000000;" x="68.88798" xlink:href="#md7f65ecb9c" y="119.693929"/>
     <use style="stroke:#000000;" x="68.938209" xlink:href="#md7f65ecb9c" y="119.406521"/>
     <use style="stroke:#000000;" x="68.998483" xlink:href="#md7f65ecb9c" y="119.129586"/>
     <use style="stroke:#000000;" x="69.048712" xlink:href="#md7f65ecb9c" y="118.863123"/>
     <use style="stroke:#000000;" x="69.09894" xlink:href="#md7f65ecb9c" y="118.607132"/>
     <use style="stroke:#000000;" x="69.159215" xlink:href="#md7f65ecb9c" y="118.361031"/>
     <use style="stroke:#000000;" x="69.23958" xlink:href="#md7f65ecb9c" y="118.006717"/>
     <use style="stroke:#000000;" x="69.319946" xlink:href="#md7f65ecb9c" y="117.673929"/>
     <use style="stroke:#000000;" x="69.400312" xlink:href="#md7f65ecb9c" y="117.362667"/>
     <use style="stroke:#000000;" x="69.480678" xlink:href="#md7f65ecb9c" y="117.07235"/>
     <use style="stroke:#000000;" x="69.571089" xlink:href="#md7f65ecb9c" y="116.802396"/>
     <use style="stroke:#000000;" x="69.651455" xlink:href="#md7f65ecb9c" y="116.551642"/>
     <use style="stroke:#000000;" x="69.731821" xlink:href="#md7f65ecb9c" y="116.320086"/>
     <use style="stroke:#000000;" x="69.812187" xlink:href="#md7f65ecb9c" y="116.106567"/>
     <use style="stroke:#000000;" x="69.892552" xlink:href="#md7f65ecb9c" y="115.910501"/>
     <use style="stroke:#000000;" x="69.972918" xlink:href="#md7f65ecb9c" y="115.731889"/>
     <use style="stroke:#000000;" x="70.06333" xlink:href="#md7f65ecb9c" y="115.570149"/>
     <use style="stroke:#000000;" x="70.143695" xlink:href="#md7f65ecb9c" y="115.424118"/>
     <use style="stroke:#000000;" x="70.224061" xlink:href="#md7f65ecb9c" y="115.293796"/>
     <use style="stroke:#000000;" x="70.304427" xlink:href="#md7f65ecb9c" y="115.178018"/>
     <use style="stroke:#000000;" x="70.424976" xlink:href="#md7f65ecb9c" y="115.031405"/>
     <use style="stroke:#000000;" x="70.55557" xlink:href="#md7f65ecb9c" y="114.915627"/>
     <use style="stroke:#000000;" x="70.676119" xlink:href="#md7f65ecb9c" y="114.828939"/>
     <use style="stroke:#000000;" x="70.796667" xlink:href="#md7f65ecb9c" y="114.770178"/>
     <use style="stroke:#000000;" x="70.927262" xlink:href="#md7f65ecb9c" y="114.738179"/>
     <use style="stroke:#000000;" x="71.04781" xlink:href="#md7f65ecb9c" y="114.730034"/>
     <use style="stroke:#000000;" x="71.168359" xlink:href="#md7f65ecb9c" y="114.746324"/>
     <use style="stroke:#000000;" x="71.288908" xlink:href="#md7f65ecb9c" y="114.784141"/>
     <use style="stroke:#000000;" x="71.419502" xlink:href="#md7f65ecb9c" y="114.843484"/>
     <use style="stroke:#000000;" x="71.540051" xlink:href="#md7f65ecb9c" y="114.922609"/>
     <use style="stroke:#000000;" x="71.660599" xlink:href="#md7f65ecb9c" y="115.020351"/>
     <use style="stroke:#000000;" x="71.851468" xlink:href="#md7f65ecb9c" y="115.201872"/>
     <use style="stroke:#000000;" x="72.032291" xlink:href="#md7f65ecb9c" y="115.420627"/>
     <use style="stroke:#000000;" x="72.22316" xlink:href="#md7f65ecb9c" y="115.673127"/>
     <use style="stroke:#000000;" x="72.414029" xlink:href="#md7f65ecb9c" y="115.957045"/>
     <use style="stroke:#000000;" x="72.594852" xlink:href="#md7f65ecb9c" y="116.26947"/>
     <use style="stroke:#000000;" x="72.78572" xlink:href="#md7f65ecb9c" y="116.607494"/>
     <use style="stroke:#000000;" x="72.966543" xlink:href="#md7f65ecb9c" y="116.96879"/>
     <use style="stroke:#000000;" x="73.157412" xlink:href="#md7f65ecb9c" y="117.351613"/>
     <use style="stroke:#000000;" x="73.348281" xlink:href="#md7f65ecb9c" y="117.754217"/>
     <use style="stroke:#000000;" x="73.529104" xlink:href="#md7f65ecb9c" y="118.173693"/>
     <use style="stroke:#000000;" x="73.719972" xlink:href="#md7f65ecb9c" y="118.608877"/>
     <use style="stroke:#000000;" x="73.900795" xlink:href="#md7f65ecb9c" y="119.058607"/>
     <use style="stroke:#000000;" x="74.091664" xlink:href="#md7f65ecb9c" y="119.521135"/>
     <use style="stroke:#000000;" x="74.282533" xlink:href="#md7f65ecb9c" y="119.9953"/>
     <use style="stroke:#000000;" x="74.463356" xlink:href="#md7f65ecb9c" y="120.479356"/>
     <use style="stroke:#000000;" x="74.654225" xlink:href="#md7f65ecb9c" y="120.973302"/>
     <use style="stroke:#000000;" x="74.845093" xlink:href="#md7f65ecb9c" y="121.474811"/>
     <use style="stroke:#000000;" x="75.025916" xlink:href="#md7f65ecb9c" y="121.983884"/>
     <use style="stroke:#000000;" x="75.216785" xlink:href="#md7f65ecb9c" y="122.499356"/>
     <use style="stroke:#000000;" x="75.397608" xlink:href="#md7f65ecb9c" y="123.020065"/>
     <use style="stroke:#000000;" x="75.588376" xlink:href="#md7f65ecb9c" y="123.54601"/>
     <use style="stroke:#000000;" x="75.775327" xlink:href="#md7f65ecb9c" y="124.076027"/>
     <use style="stroke:#000000;" x="75.962278" xlink:href="#md7f65ecb9c" y="124.610117"/>
     <use style="stroke:#000000;" x="76.149229" xlink:href="#md7f65ecb9c" y="125.146534"/>
     <use style="stroke:#000000;" x="76.33618" xlink:href="#md7f65ecb9c" y="125.686442"/>
     <use style="stroke:#000000;" x="76.523131" xlink:href="#md7f65ecb9c" y="126.227514"/>
     <use style="stroke:#000000;" x="76.710081" xlink:href="#md7f65ecb9c" y="126.770913"/>
     <use style="stroke:#000000;" x="76.897032" xlink:href="#md7f65ecb9c" y="127.314893"/>
     <use style="stroke:#000000;" x="77.083983" xlink:href="#md7f65ecb9c" y="127.860037"/>
     <use style="stroke:#000000;" x="77.270934" xlink:href="#md7f65ecb9c" y="128.405763"/>
     <use style="stroke:#000000;" x="77.457885" xlink:href="#md7f65ecb9c" y="128.952071"/>
     <use style="stroke:#000000;" x="77.644836" xlink:href="#md7f65ecb9c" y="129.498379"/>
     <use style="stroke:#000000;" x="77.831787" xlink:href="#md7f65ecb9c" y="130.044105"/>
     <use style="stroke:#000000;" x="78.018738" xlink:href="#md7f65ecb9c" y="130.589249"/>
     <use style="stroke:#000000;" x="78.205689" xlink:href="#md7f65ecb9c" y="131.133811"/>
     <use style="stroke:#000000;" x="78.39274" xlink:href="#md7f65ecb9c" y="131.67721"/>
     <use style="stroke:#000000;" x="78.579691" xlink:href="#md7f65ecb9c" y="132.220027"/>
     <use style="stroke:#000000;" x="78.766642" xlink:href="#md7f65ecb9c" y="132.761099"/>
     <use style="stroke:#000000;" x="78.953593" xlink:href="#md7f65ecb9c" y="133.301007"/>
     <use style="stroke:#000000;" x="79.140543" xlink:href="#md7f65ecb9c" y="133.839169"/>
     <use style="stroke:#000000;" x="79.327494" xlink:href="#md7f65ecb9c" y="134.376168"/>
     <use style="stroke:#000000;" x="79.514445" xlink:href="#md7f65ecb9c" y="134.91084"/>
     <use style="stroke:#000000;" x="79.701396" xlink:href="#md7f65ecb9c" y="135.444348"/>
     <use style="stroke:#000000;" x="79.888347" xlink:href="#md7f65ecb9c" y="135.975529"/>
     <use style="stroke:#000000;" x="80.075298" xlink:href="#md7f65ecb9c" y="136.504383"/>
     <use style="stroke:#000000;" x="80.262249" xlink:href="#md7f65ecb9c" y="137.031492"/>
     <use style="stroke:#000000;" x="80.4492" xlink:href="#md7f65ecb9c" y="137.556273"/>
     <use style="stroke:#000000;" x="80.63615" xlink:href="#md7f65ecb9c" y="138.078727"/>
     <use style="stroke:#000000;" x="80.823101" xlink:href="#md7f65ecb9c" y="138.599436"/>
     <use style="stroke:#000000;" x="81.010052" xlink:href="#md7f65ecb9c" y="139.117235"/>
     <use style="stroke:#000000;" x="81.197003" xlink:href="#md7f65ecb9c" y="139.632708"/>
     <use style="stroke:#000000;" x="81.479187" xlink:href="#md7f65ecb9c" y="140.405916"/>
     <use style="stroke:#000000;" x="81.761372" xlink:href="#md7f65ecb9c" y="141.173889"/>
     <use style="stroke:#000000;" x="82.043456" xlink:href="#md7f65ecb9c" y="141.936044"/>
     <use style="stroke:#000000;" x="82.32564" xlink:href="#md7f65ecb9c" y="142.69238"/>
     <use style="stroke:#000000;" x="82.607724" xlink:href="#md7f65ecb9c" y="143.442317"/>
     <use style="stroke:#000000;" x="82.889908" xlink:href="#md7f65ecb9c" y="144.187018"/>
     <use style="stroke:#000000;" x="83.172093" xlink:href="#md7f65ecb9c" y="144.925319"/>
     <use style="stroke:#000000;" x="83.454176" xlink:href="#md7f65ecb9c" y="145.657802"/>
     <use style="stroke:#000000;" x="83.736361" xlink:href="#md7f65ecb9c" y="146.383885"/>
     <use style="stroke:#000000;" x="84.018445" xlink:href="#md7f65ecb9c" y="147.10415"/>
     <use style="stroke:#000000;" x="84.300629" xlink:href="#md7f65ecb9c" y="147.818597"/>
     <use style="stroke:#000000;" x="84.582813" xlink:href="#md7f65ecb9c" y="148.527226"/>
     <use style="stroke:#000000;" x="84.864897" xlink:href="#md7f65ecb9c" y="149.229456"/>
     <use style="stroke:#000000;" x="85.147081" xlink:href="#md7f65ecb9c" y="149.925285"/>
     <use style="stroke:#000000;" x="85.429266" xlink:href="#md7f65ecb9c" y="150.615879"/>
     <use style="stroke:#000000;" x="85.71135" xlink:href="#md7f65ecb9c" y="151.300073"/>
     <use style="stroke:#000000;" x="85.993534" xlink:href="#md7f65ecb9c" y="151.978448"/>
     <use style="stroke:#000000;" x="86.275618" xlink:href="#md7f65ecb9c" y="152.651006"/>
     <use style="stroke:#000000;" x="86.557802" xlink:href="#md7f65ecb9c" y="153.317164"/>
     <use style="stroke:#000000;" x="86.839986" xlink:href="#md7f65ecb9c" y="153.978086"/>
     <use style="stroke:#000000;" x="87.12207" xlink:href="#md7f65ecb9c" y="154.63319"/>
     <use style="stroke:#000000;" x="87.404255" xlink:href="#md7f65ecb9c" y="155.282476"/>
     <use style="stroke:#000000;" x="87.831097" xlink:href="#md7f65ecb9c" y="156.253496"/>
     <use style="stroke:#000000;" x="88.258041" xlink:href="#md7f65ecb9c" y="157.212298"/>
     <use style="stroke:#000000;" x="88.684883" xlink:href="#md7f65ecb9c" y="158.157719"/>
     <use style="stroke:#000000;" x="89.111726" xlink:href="#md7f65ecb9c" y="159.09034"/>
     <use style="stroke:#000000;" x="89.538669" xlink:href="#md7f65ecb9c" y="160.010743"/>
     <use style="stroke:#000000;" x="89.965512" xlink:href="#md7f65ecb9c" y="160.918929"/>
     <use style="stroke:#000000;" x="90.392455" xlink:href="#md7f65ecb9c" y="161.814315"/>
     <use style="stroke:#000000;" x="90.819298" xlink:href="#md7f65ecb9c" y="162.698065"/>
     <use style="stroke:#000000;" x="91.246141" xlink:href="#md7f65ecb9c" y="163.57018"/>
     <use style="stroke:#000000;" x="91.673084" xlink:href="#md7f65ecb9c" y="164.430076"/>
     <use style="stroke:#000000;" x="92.099926" xlink:href="#md7f65ecb9c" y="165.278919"/>
     <use style="stroke:#000000;" x="92.52687" xlink:href="#md7f65ecb9c" y="166.115543"/>
     <use style="stroke:#000000;" x="92.953712" xlink:href="#md7f65ecb9c" y="166.941696"/>
     <use style="stroke:#000000;" x="93.380555" xlink:href="#md7f65ecb9c" y="167.756212"/>
     <use style="stroke:#000000;" x="93.807498" xlink:href="#md7f65ecb9c" y="168.560256"/>
     <use style="stroke:#000000;" x="94.234341" xlink:href="#md7f65ecb9c" y="169.353246"/>
     <use style="stroke:#000000;" x="94.661284" xlink:href="#md7f65ecb9c" y="170.135182"/>
     <use style="stroke:#000000;" x="95.088127" xlink:href="#md7f65ecb9c" y="170.907227"/>
     <use style="stroke:#000000;" x="95.752852" xlink:href="#md7f65ecb9c" y="172.088101"/>
     <use style="stroke:#000000;" x="96.417578" xlink:href="#md7f65ecb9c" y="173.244598"/>
     <use style="stroke:#000000;" x="97.082203" xlink:href="#md7f65ecb9c" y="174.377008"/>
     <use style="stroke:#000000;" x="97.746928" xlink:href="#md7f65ecb9c" y="175.485856"/>
     <use style="stroke:#000000;" x="98.411653" xlink:href="#md7f65ecb9c" y="176.571664"/>
     <use style="stroke:#000000;" x="99.076278" xlink:href="#md7f65ecb9c" y="177.634957"/>
     <use style="stroke:#000000;" x="99.741004" xlink:href="#md7f65ecb9c" y="178.6762"/>
     <use style="stroke:#000000;" x="100.405729" xlink:href="#md7f65ecb9c" y="179.695858"/>
     <use style="stroke:#000000;" x="101.070354" xlink:href="#md7f65ecb9c" y="180.694455"/>
     <use style="stroke:#000000;" x="101.73508" xlink:href="#md7f65ecb9c" y="181.67234"/>
     <use style="stroke:#000000;" x="102.399805" xlink:href="#md7f65ecb9c" y="182.630095"/>
     <use style="stroke:#000000;" x="103.401665" xlink:href="#md7f65ecb9c" y="184.036474"/>
     <use style="stroke:#000000;" x="104.403625" xlink:href="#md7f65ecb9c" y="185.399451"/>
     <use style="stroke:#000000;" x="105.405485" xlink:href="#md7f65ecb9c" y="186.720422"/>
     <use style="stroke:#000000;" x="106.407445" xlink:href="#md7f65ecb9c" y="188.000667"/>
     <use style="stroke:#000000;" x="107.409305" xlink:href="#md7f65ecb9c" y="189.241582"/>
     <use style="stroke:#000000;" x="108.411165" xlink:href="#md7f65ecb9c" y="190.44439"/>
     <use style="stroke:#000000;" x="109.413125" xlink:href="#md7f65ecb9c" y="191.610312"/>
     <use style="stroke:#000000;" x="110.414985" xlink:href="#md7f65ecb9c" y="192.74057"/>
     <use style="stroke:#000000;" x="111.416945" xlink:href="#md7f65ecb9c" y="193.836327"/>
     <use style="stroke:#000000;" x="112.418805" xlink:href="#md7f65ecb9c" y="194.898631"/>
     <use style="stroke:#000000;" x="113.420765" xlink:href="#md7f65ecb9c" y="195.928587"/>
     <use style="stroke:#000000;" x="114.422625" xlink:href="#md7f65ecb9c" y="196.927184"/>
     <use style="stroke:#000000;" x="115.424485" xlink:href="#md7f65ecb9c" y="197.895411"/>
     <use style="stroke:#000000;" x="116.426445" xlink:href="#md7f65ecb9c" y="198.834316"/>
     <use style="stroke:#000000;" x="117.428305" xlink:href="#md7f65ecb9c" y="199.744771"/>
     <use style="stroke:#000000;" x="118.430266" xlink:href="#md7f65ecb9c" y="200.627648"/>
     <use style="stroke:#000000;" x="119.432125" xlink:href="#md7f65ecb9c" y="201.48388"/>
     <use style="stroke:#000000;" x="120.434086" xlink:href="#md7f65ecb9c" y="202.314337"/>
     <use style="stroke:#000000;" x="121.435946" xlink:href="#md7f65ecb9c" y="203.119719"/>
     <use style="stroke:#000000;" x="122.437805" xlink:href="#md7f65ecb9c" y="203.900841"/>
     <use style="stroke:#000000;" x="123.439766" xlink:href="#md7f65ecb9c" y="204.658515"/>
     <use style="stroke:#000000;" x="124.180135" xlink:href="#md7f65ecb9c" y="205.203776"/>
     <use style="stroke:#000000;" x="124.920505" xlink:href="#md7f65ecb9c" y="205.736935"/>
     <use style="stroke:#000000;" x="125.660975" xlink:href="#md7f65ecb9c" y="206.258225"/>
     <use style="stroke:#000000;" x="126.401345" xlink:href="#md7f65ecb9c" y="206.767938"/>
     <use style="stroke:#000000;" x="127.141715" xlink:href="#md7f65ecb9c" y="207.266364"/>
     <use style="stroke:#000000;" x="127.882185" xlink:href="#md7f65ecb9c" y="207.753736"/>
     <use style="stroke:#000000;" x="128.622555" xlink:href="#md7f65ecb9c" y="208.230344"/>
     <use style="stroke:#000000;" x="129.362924" xlink:href="#md7f65ecb9c" y="208.696364"/>
     <use style="stroke:#000000;" x="129.894946" xlink:href="#md7f65ecb9c" y="209.024847"/>
     <use style="stroke:#000000;" x="130.426867" xlink:href="#md7f65ecb9c" y="209.348093"/>
     <use style="stroke:#000000;" x="130.958888" xlink:href="#md7f65ecb9c" y="209.66622"/>
     <use style="stroke:#000000;" x="131.490809" xlink:href="#md7f65ecb9c" y="209.979227"/>
     <use style="stroke:#000000;" x="132.02283" xlink:href="#md7f65ecb9c" y="210.287289"/>
     <use style="stroke:#000000;" x="132.554751" xlink:href="#md7f65ecb9c" y="210.590521"/>
     <use style="stroke:#000000;" x="133.086773" xlink:href="#md7f65ecb9c" y="210.888867"/>
     <use style="stroke:#000000;" x="133.618694" xlink:href="#md7f65ecb9c" y="211.1825"/>
     <use style="stroke:#000000;" x="134.006157" xlink:href="#md7f65ecb9c" y="211.39346"/>
     <use style="stroke:#000000;" x="134.393721" xlink:href="#md7f65ecb9c" y="211.601976"/>
     <use style="stroke:#000000;" x="134.781185" xlink:href="#md7f65ecb9c" y="211.808107"/>
     <use style="stroke:#000000;" x="135.168648" xlink:href="#md7f65ecb9c" y="212.011853"/>
     <use style="stroke:#000000;" x="135.556212" xlink:href="#md7f65ecb9c" y="212.213213"/>
     <use style="stroke:#000000;" x="135.943676" xlink:href="#md7f65ecb9c" y="212.412245"/>
     <use style="stroke:#000000;" x="136.331139" xlink:href="#md7f65ecb9c" y="212.609009"/>
     <use style="stroke:#000000;" x="136.718703" xlink:href="#md7f65ecb9c" y="212.803504"/>
     <use style="stroke:#000000;" x="137.106167" xlink:href="#md7f65ecb9c" y="212.995788"/>
     <use style="stroke:#000000;" x="137.49363" xlink:href="#md7f65ecb9c" y="213.185803"/>
     <use style="stroke:#000000;" x="137.881194" xlink:href="#md7f65ecb9c" y="213.373666"/>
     <use style="stroke:#000000;" x="138.268658" xlink:href="#md7f65ecb9c" y="213.559317"/>
     <use style="stroke:#000000;" x="138.656121" xlink:href="#md7f65ecb9c" y="213.742874"/>
     <use style="stroke:#000000;" x="139.043685" xlink:href="#md7f65ecb9c" y="213.924279"/>
     <use style="stroke:#000000;" x="139.431148" xlink:href="#md7f65ecb9c" y="214.103647"/>
     <use style="stroke:#000000;" x="139.818612" xlink:href="#md7f65ecb9c" y="214.280921"/>
     <use style="stroke:#000000;" x="140.206075" xlink:href="#md7f65ecb9c" y="214.456216"/>
     <use style="stroke:#000000;" x="140.593639" xlink:href="#md7f65ecb9c" y="214.629417"/>
     <use style="stroke:#000000;" x="140.981103" xlink:href="#md7f65ecb9c" y="214.800698"/>
     <use style="stroke:#000000;" x="141.368566" xlink:href="#md7f65ecb9c" y="214.970001"/>
     <use style="stroke:#000000;" x="141.75613" xlink:href="#md7f65ecb9c" y="215.137326"/>
     <use style="stroke:#000000;" x="142.143594" xlink:href="#md7f65ecb9c" y="215.302731"/>
     <use style="stroke:#000000;" x="142.531057" xlink:href="#md7f65ecb9c" y="215.466275"/>
     <use style="stroke:#000000;" x="142.918621" xlink:href="#md7f65ecb9c" y="215.627956"/>
     <use style="stroke:#000000;" x="143.306085" xlink:href="#md7f65ecb9c" y="215.787776"/>
     <use style="stroke:#000000;" x="143.693548" xlink:href="#md7f65ecb9c" y="215.945734"/>
     <use style="stroke:#000000;" x="144.081112" xlink:href="#md7f65ecb9c" y="216.101946"/>
     <use style="stroke:#000000;" x="144.468576" xlink:href="#md7f65ecb9c" y="216.256297"/>
     <use style="stroke:#000000;" x="144.856039" xlink:href="#md7f65ecb9c" y="216.408961"/>
     <use style="stroke:#000000;" x="145.243603" xlink:href="#md7f65ecb9c" y="216.559821"/>
     <use style="stroke:#000000;" x="145.631067" xlink:href="#md7f65ecb9c" y="216.708994"/>
     <use style="stroke:#000000;" x="146.01853" xlink:href="#md7f65ecb9c" y="216.856421"/>
     <use style="stroke:#000000;" x="146.406094" xlink:href="#md7f65ecb9c" y="217.00222"/>
     <use style="stroke:#000000;" x="146.793558" xlink:href="#md7f65ecb9c" y="217.146331"/>
     <use style="stroke:#000000;" x="147.418502" xlink:href="#md7f65ecb9c" y="217.375326"/>
     <use style="stroke:#000000;" x="148.043446" xlink:href="#md7f65ecb9c" y="217.600133"/>
     <use style="stroke:#000000;" x="148.668491" xlink:href="#md7f65ecb9c" y="217.820809"/>
     <use style="stroke:#000000;" x="149.293435" xlink:href="#md7f65ecb9c" y="218.037412"/>
     <use style="stroke:#000000;" x="149.91838" xlink:href="#md7f65ecb9c" y="218.250117"/>
     <use style="stroke:#000000;" x="150.543324" xlink:href="#md7f65ecb9c" y="218.458924"/>
     <use style="stroke:#000000;" x="151.168369" xlink:href="#md7f65ecb9c" y="218.663891"/>
     <use style="stroke:#000000;" x="151.793313" xlink:href="#md7f65ecb9c" y="218.865135"/>
     <use style="stroke:#000000;" x="152.418258" xlink:href="#md7f65ecb9c" y="219.062713"/>
     <use style="stroke:#000000;" x="153.404547" xlink:href="#md7f65ecb9c" y="219.367226"/>
     <use style="stroke:#000000;" x="154.390836" xlink:href="#md7f65ecb9c" y="219.66307"/>
     <use style="stroke:#000000;" x="155.377125" xlink:href="#md7f65ecb9c" y="219.95042"/>
     <use style="stroke:#000000;" x="156.363413" xlink:href="#md7f65ecb9c" y="220.229624"/>
     <use style="stroke:#000000;" x="157.349602" xlink:href="#md7f65ecb9c" y="220.500858"/>
     <use style="stroke:#000000;" x="158.335891" xlink:href="#md7f65ecb9c" y="220.764354"/>
     <use style="stroke:#000000;" x="159.32218" xlink:href="#md7f65ecb9c" y="221.020403"/>
     <use style="stroke:#000000;" x="160.308469" xlink:href="#md7f65ecb9c" y="221.269122"/>
     <use style="stroke:#000000;" x="161.294758" xlink:href="#md7f65ecb9c" y="221.510859"/>
     <use style="stroke:#000000;" x="162.281047" xlink:href="#md7f65ecb9c" y="221.745672"/>
     <use style="stroke:#000000;" x="163.267336" xlink:href="#md7f65ecb9c" y="221.973853"/>
     <use style="stroke:#000000;" x="164.253625" xlink:href="#md7f65ecb9c" y="222.195576"/>
     <use style="stroke:#000000;" x="165.239914" xlink:href="#md7f65ecb9c" y="222.411074"/>
     <use style="stroke:#000000;" x="166.226102" xlink:href="#md7f65ecb9c" y="222.620463"/>
    </g>
   </g>
   <g id="line2d_19">
    <path clip-path="url(#p2e480134f9)" d="M 65.361932 93.908688 
L 65.467412 94.4705 
L 65.509604 94.389139 
L 65.604034 93.505724 
L 65.772802 89.434248 
L 66.121388 74.015665 
L 66.808516 45.052299 
L 67.230436 35.93958 
L 67.551899 32.845095 
L 67.772905 32.209346 
L 67.873362 32.250839 
L 68.024048 32.647972 
L 68.235008 33.790286 
L 68.616746 37.224784 
L 69.23958 45.35058 
L 70.424976 64.696634 
L 72.78572 103.475322 
L 74.282533 124.424541 
L 75.775327 142.114359 
L 77.083983 155.225299 
L 78.39274 166.386229 
L 79.701396 175.863154 
L 81.197003 184.95761 
L 82.607724 192.104812 
L 84.018445 198.0953 
L 85.429266 203.120776 
L 86.839986 207.339658 
L 88.258041 210.903535 
L 89.538669 213.6277 
L 91.246141 216.657609 
L 92.953712 219.125172 
L 94.661284 221.131779 
L 96.417578 222.812044 
L 98.411653 224.340773 
L 100.405729 225.548587 
L 102.399805 226.503606 
L 104.403625 227.26129 
L 107.409305 228.107484 
L 110.414985 228.695643 
L 114.422625 229.201377 
L 119.432125 229.543708 
L 126.401345 229.735183 
L 139.818612 229.808206 
L 166.226102 229.817852 
L 166.226102 229.817852 
" style="fill:none;stroke:#0000ff;stroke-dasharray:5.55,2.4;stroke-dashoffset:0;stroke-width:1.5;"/>
   </g>
   <g id="line2d_20">
    <path clip-path="url(#p2e480134f9)" d="M 65.361932 196.269413 
L 65.377 196.28654 
L 65.419092 196.110259 
L 65.5307 194.315643 
L 65.820017 184.892188 
L 66.386595 168.063984 
L 66.788424 162.103033 
L 67.119933 159.81649 
L 67.371076 159.155057 
L 67.551899 159.098714 
L 67.732722 159.319957 
L 68.024048 160.129445 
L 68.456014 162.062208 
L 69.159215 166.284156 
L 73.348281 193.281549 
L 74.654225 199.701105 
L 75.962278 205.097937 
L 77.270934 209.588204 
L 78.579691 213.303111 
L 79.888347 216.359751 
L 81.197003 218.874367 
L 82.607724 221.07827 
L 84.018445 222.853274 
L 85.429266 224.280156 
L 86.839986 225.425069 
L 88.258041 226.347076 
L 89.965512 227.213608 
L 92.099926 228.011353 
L 94.234341 228.575498 
L 97.082203 229.075749 
L 100.405729 229.424268 
L 105.405485 229.684292 
L 113.420765 229.82385 
L 134.781185 229.870166 
L 166.226102 229.874489 
L 166.226102 229.874489 
" style="fill:none;stroke:#0000ff;stroke-dasharray:5.55,2.4;stroke-dashoffset:0;stroke-width:1.5;"/>
   </g>
   <g id="line2d_21">
    <path clip-path="url(#p2e480134f9)" d="M 65.361932 93.908696 
L 65.520654 95.015889 
L 65.540746 94.993498 
L 65.615084 94.549615 
L 65.756729 91.995772 
L 66.010885 82.339048 
L 66.979293 40.862813 
L 67.300756 35.591493 
L 67.551899 34.192998 
L 67.662402 34.194859 
L 67.803042 34.648203 
L 68.054185 36.525794 
L 68.456014 41.648001 
L 69.09894 53.069417 
L 73.157412 131.184908 
L 74.463356 149.659116 
L 75.775327 164.866617 
L 77.083983 177.209994 
L 78.205689 185.921586 
L 79.514445 194.283846 
L 80.823101 201.060437 
L 82.043456 206.218934 
L 83.172093 210.169541 
L 84.582813 214.212133 
L 85.993534 217.445825 
L 87.404255 220.041319 
L 88.684883 221.95179 
L 89.965512 223.518886 
L 91.246141 224.804343 
L 92.953712 226.159792 
L 94.661284 227.188548 
L 96.417578 227.977953 
L 98.411653 228.616544 
L 100.405729 229.046962 
L 103.401665 229.424812 
L 107.409305 229.644234 
L 114.422625 229.744078 
L 145.243603 229.768459 
L 166.226102 229.771577 
L 166.226102 229.771577 
" style="fill:none;stroke:#ff0000;stroke-dasharray:5.55,2.4;stroke-dashoffset:0;stroke-width:1.5;"/>
   </g>
   <g id="line2d_22">
    <path clip-path="url(#p2e480134f9)" d="M 65.361932 196.269415 
L 65.385539 196.304614 
L 65.425722 196.16533 
L 65.540746 194.565188 
L 65.803944 186.673988 
L 66.456915 167.271958 
L 66.838653 162.084856 
L 67.119933 160.524604 
L 67.300756 160.251417 
L 67.441396 160.346208 
L 67.662402 160.922598 
L 68.024048 162.695818 
L 68.616746 166.915168 
L 72.594852 197.856427 
L 73.719972 204.131751 
L 74.845093 209.292003 
L 75.962278 213.465891 
L 77.083983 216.860142 
L 78.205689 219.594945 
L 79.327494 221.788771 
L 80.4492 223.542246 
L 81.761372 225.14358 
L 83.172093 226.440477 
L 84.582813 227.400766 
L 85.993534 228.103926 
L 87.831097 228.738955 
L 89.965512 229.201597 
L 92.52687 229.514422 
L 96.417578 229.727628 
L 103.401665 229.829927 
L 133.086773 229.861093 
L 166.226102 229.862713 
L 166.226102 229.862713 
" style="fill:none;stroke:#ff0000;stroke-dasharray:5.55,2.4;stroke-dashoffset:0;stroke-width:1.5;"/>
   </g>
   <g id="line2d_23"/>
   <g id="line2d_24"/>
   <g id="line2d_25"/>
   <g id="line2d_26"/>
   <g id="line2d_27"/>
   <g id="line2d_28"/>
   <g id="patch_3">
    <path d="M 50.14375 239.758125 
L 50.14375 22.318125 
" style="fill:none;stroke:#000000;stroke-linecap:square;stroke-linejoin:miter;stroke-width:0.8;"/>
   </g>
   <g id="patch_4">
    <path d="M 384.94375 239.758125 
L 384.94375 22.318125 
" style="fill:none;stroke:#000000;stroke-linecap:square;stroke-linejoin:miter;stroke-width:0.8;"/>
   </g>
   <g id="patch_5">
    <path d="M 50.14375 239.758125 
L 384.94375 239.758125 
" style="fill:none;stroke:#000000;stroke-linecap:square;stroke-linejoin:miter;stroke-width:0.8;"/>
   </g>
   <g id="patch_6">
    <path d="M 50.14375 22.318125 
L 384.94375 22.318125 
" style="fill:none;stroke:#000000;stroke-linecap:square;stroke-linejoin:miter;stroke-width:0.8;"/>
   </g>
   <g id="text_18">
    <!-- Experiment_11 -->
    <defs>
     <path d="M 9.8125 72.90625 
L 55.90625 72.90625 
L 55.90625 64.59375 
L 19.671875 64.59375 
L 19.671875 43.015625 
L 54.390625 43.015625 
L 54.390625 34.71875 
L 19.671875 34.71875 
L 19.671875 8.296875 
L 56.78125 8.296875 
L 56.78125 0 
L 9.8125 0 
z
" id="DejaVuSans-69"/>
     <path d="M 54.890625 54.6875 
L 35.109375 28.078125 
L 55.90625 0 
L 45.3125 0 
L 29.390625 21.484375 
L 13.484375 0 
L 2.875 0 
L 24.125 28.609375 
L 4.6875 54.6875 
L 15.28125 54.6875 
L 29.78125 35.203125 
L 44.28125 54.6875 
z
" id="DejaVuSans-120"/>
     <path d="M 18.109375 8.203125 
L 18.109375 -20.796875 
L 9.078125 -20.796875 
L 9.078125 54.6875 
L 18.109375 54.6875 
L 18.109375 46.390625 
Q 20.953125 51.265625 25.265625 53.625 
Q 29.59375 56 35.59375 56 
Q 45.5625 56 51.78125 48.09375 
Q 58.015625 40.1875 58.015625 27.296875 
Q 58.015625 14.40625 51.78125 6.484375 
Q 45.5625 -1.421875 35.59375 -1.421875 
Q 29.59375 -1.421875 25.265625 0.953125 
Q 20.953125 3.328125 18.109375 8.203125 
z
M 48.6875 27.296875 
Q 48.6875 37.203125 44.609375 42.84375 
Q 40.53125 48.484375 33.40625 48.484375 
Q 26.265625 48.484375 22.1875 42.84375 
Q 18.109375 37.203125 18.109375 27.296875 
Q 18.109375 17.390625 22.1875 11.75 
Q 26.265625 6.109375 33.40625 6.109375 
Q 40.53125 6.109375 44.609375 11.75 
Q 48.6875 17.390625 48.6875 27.296875 
z
" id="DejaVuSans-112"/>
     <path d="M 18.3125 70.21875 
L 18.3125 54.6875 
L 36.8125 54.6875 
L 36.8125 47.703125 
L 18.3125 47.703125 
L 18.3125 18.015625 
Q 18.3125 11.328125 20.140625 9.421875 
Q 21.96875 7.515625 27.59375 7.515625 
L 36.8125 7.515625 
L 36.8125 0 
L 27.59375 0 
Q 17.1875 0 13.234375 3.875 
Q 9.28125 7.765625 9.28125 18.015625 
L 9.28125 47.703125 
L 2.6875 47.703125 
L 2.6875 54.6875 
L 9.28125 54.6875 
L 9.28125 70.21875 
z
" id="DejaVuSans-116"/>
     <path d="M 50.984375 -16.609375 
L 50.984375 -23.578125 
L -0.984375 -23.578125 
L -0.984375 -16.609375 
z
" id="DejaVuSans-95"/>
    </defs>
    <g transform="translate(172.240938 16.318125)scale(0.12 -0.12)">
     <use xlink:href="#DejaVuSans-69"/>
     <use x="63.183594" xlink:href="#DejaVuSans-120"/>
     <use x="122.363281" xlink:href="#DejaVuSans-112"/>
     <use x="185.839844" xlink:href="#DejaVuSans-101"/>
     <use x="247.363281" xlink:href="#DejaVuSans-114"/>
     <use x="288.476562" xlink:href="#DejaVuSans-105"/>
     <use x="316.259766" xlink:href="#DejaVuSans-109"/>
     <use x="413.671875" xlink:href="#DejaVuSans-101"/>
     <use x="475.195312" xlink:href="#DejaVuSans-110"/>
     <use x="538.574219" xlink:href="#DejaVuSans-116"/>
     <use x="577.783203" xlink:href="#DejaVuSans-95"/>
     <use x="627.783203" xlink:href="#DejaVuSans-49"/>
     <use x="691.40625" xlink:href="#DejaVuSans-49"/>
    </g>
   </g>
   <g id="legend_1">
    <g id="patch_7">
     <path d="M 121.823438 103.730625 
L 377.94375 103.730625 
Q 379.94375 103.730625 379.94375 101.730625 
L 379.94375 29.318125 
Q 379.94375 27.318125 377.94375 27.318125 
L 121.823438 27.318125 
Q 119.823438 27.318125 119.823438 29.318125 
L 119.823438 101.730625 
Q 119.823438 103.730625 121.823438 103.730625 
z
" style="fill:#ffffff;opacity:0.8;stroke:#cccccc;stroke-linejoin:miter;"/>
    </g>
    <g id="line2d_29">
     <path d="M 123.823438 35.416562 
L 143.823438 35.416562 
" style="fill:none;stroke:#0000ff;stroke-linecap:square;stroke-width:1.5;"/>
    </g>
    <g id="line2d_30"/>
    <g id="text_19">
     <!-- MSI -->
     <defs>
      <path d="M 9.8125 72.90625 
L 24.515625 72.90625 
L 43.109375 23.296875 
L 61.8125 72.90625 
L 76.515625 72.90625 
L 76.515625 0 
L 66.890625 0 
L 66.890625 64.015625 
L 48.09375 14.015625 
L 38.1875 14.015625 
L 19.390625 64.015625 
L 19.390625 0 
L 9.8125 0 
z
" id="DejaVuSans-77"/>
      <path d="M 53.515625 70.515625 
L 53.515625 60.890625 
Q 47.90625 63.578125 42.921875 64.890625 
Q 37.9375 66.21875 33.296875 66.21875 
Q 25.25 66.21875 20.875 63.09375 
Q 16.5 59.96875 16.5 54.203125 
Q 16.5 49.359375 19.40625 46.890625 
Q 22.3125 44.4375 30.421875 42.921875 
L 36.375 41.703125 
Q 47.40625 39.59375 52.65625 34.296875 
Q 57.90625 29 57.90625 20.125 
Q 57.90625 9.515625 50.796875 4.046875 
Q 43.703125 -1.421875 29.984375 -1.421875 
Q 24.8125 -1.421875 18.96875 -0.25 
Q 13.140625 0.921875 6.890625 3.21875 
L 6.890625 13.375 
Q 12.890625 10.015625 18.65625 8.296875 
Q 24.421875 6.59375 29.984375 6.59375 
Q 38.421875 6.59375 43.015625 9.90625 
Q 47.609375 13.234375 47.609375 19.390625 
Q 47.609375 24.75 44.3125 27.78125 
Q 41.015625 30.8125 33.5 32.328125 
L 27.484375 33.5 
Q 16.453125 35.6875 11.515625 40.375 
Q 6.59375 45.0625 6.59375 53.421875 
Q 6.59375 63.09375 13.40625 68.65625 
Q 20.21875 74.21875 32.171875 74.21875 
Q 37.3125 74.21875 42.625 73.28125 
Q 47.953125 72.359375 53.515625 70.515625 
z
" id="DejaVuSans-83"/>
      <path d="M 9.8125 72.90625 
L 19.671875 72.90625 
L 19.671875 0 
L 9.8125 0 
z
" id="DejaVuSans-73"/>
     </defs>
     <g transform="translate(151.823438 38.916562)scale(0.1 -0.1)">
      <use xlink:href="#DejaVuSans-77"/>
      <use x="86.279297" xlink:href="#DejaVuSans-83"/>
      <use x="149.755859" xlink:href="#DejaVuSans-73"/>
     </g>
    </g>
    <g id="line2d_31">
     <path d="M 123.823438 50.09625 
L 143.823438 50.09625 
" style="fill:none;stroke:#ff0000;stroke-linecap:square;stroke-width:1.5;"/>
    </g>
    <g id="line2d_32"/>
    <g id="text_20">
     <!-- $\it{A priori}$ model -->
     <defs>
      <path d="M 36.8125 72.90625 
L 48 72.90625 
L 61.53125 0 
L 51.21875 0 
L 48.1875 18.703125 
L 15.375 18.703125 
L 5.078125 0 
L -5.328125 0 
z
M 40.375 63.1875 
L 19.921875 26.90625 
L 46.6875 26.90625 
z
" id="DejaVuSans-Oblique-65"/>
      <path d="M 49.609375 33.6875 
Q 49.609375 40.875 46.484375 44.671875 
Q 43.359375 48.484375 37.5 48.484375 
Q 33.5 48.484375 29.859375 46.4375 
Q 26.21875 44.390625 23.390625 40.484375 
Q 20.609375 36.625 18.9375 31.15625 
Q 17.28125 25.6875 17.28125 20.3125 
Q 17.28125 13.484375 20.40625 9.796875 
Q 23.53125 6.109375 29.296875 6.109375 
Q 33.546875 6.109375 37.1875 8.109375 
Q 40.828125 10.109375 43.40625 13.921875 
Q 46.1875 17.921875 47.890625 23.34375 
Q 49.609375 28.765625 49.609375 33.6875 
z
M 21.78125 46.390625 
Q 25.390625 51.125 30.296875 53.5625 
Q 35.203125 56 41.21875 56 
Q 49.609375 56 54.25 50.5 
Q 58.890625 45.015625 58.890625 35.109375 
Q 58.890625 27 56 19.65625 
Q 53.125 12.3125 47.703125 6.5 
Q 44.09375 2.640625 39.546875 0.609375 
Q 35.015625 -1.421875 29.984375 -1.421875 
Q 24.171875 -1.421875 20.21875 1 
Q 16.265625 3.421875 14.3125 8.203125 
L 8.6875 -20.796875 
L -0.296875 -20.796875 
L 14.40625 54.6875 
L 23.390625 54.6875 
z
" id="DejaVuSans-Oblique-112"/>
      <path d="M 44.578125 46.390625 
Q 43.21875 47.125 41.453125 47.515625 
Q 39.703125 47.90625 37.703125 47.90625 
Q 30.515625 47.90625 25.140625 42.453125 
Q 19.78125 37.015625 18.015625 27.875 
L 12.5 0 
L 3.515625 0 
L 14.203125 54.6875 
L 23.1875 54.6875 
L 21.484375 46.1875 
Q 25.046875 50.921875 30 53.453125 
Q 34.96875 56 40.578125 56 
Q 42.046875 56 43.453125 55.828125 
Q 44.875 55.671875 46.296875 55.28125 
z
" id="DejaVuSans-Oblique-114"/>
      <path d="M 18.3125 75.984375 
L 27.296875 75.984375 
L 25.09375 64.59375 
L 16.109375 64.59375 
z
M 14.203125 54.6875 
L 23.1875 54.6875 
L 12.5 0 
L 3.515625 0 
z
" id="DejaVuSans-Oblique-105"/>
      <path d="M 25.390625 -1.421875 
Q 15.765625 -1.421875 10.171875 4.515625 
Q 4.59375 10.453125 4.59375 20.703125 
Q 4.59375 26.65625 6.515625 32.828125 
Q 8.453125 39.015625 11.53125 43.21875 
Q 16.359375 49.75 22.3125 52.875 
Q 28.265625 56 35.796875 56 
Q 45.125 56 50.859375 50.1875 
Q 56.59375 44.390625 56.59375 35.015625 
Q 56.59375 28.515625 54.6875 22.0625 
Q 52.78125 15.625 49.703125 11.375 
Q 44.921875 4.828125 38.96875 1.703125 
Q 33.015625 -1.421875 25.390625 -1.421875 
z
M 13.921875 21 
Q 13.921875 13.578125 17.015625 9.890625 
Q 20.125 6.203125 26.421875 6.203125 
Q 35.453125 6.203125 41.375 14.078125 
Q 47.3125 21.96875 47.3125 34.078125 
Q 47.3125 41.15625 44.140625 44.765625 
Q 40.96875 48.390625 34.8125 48.390625 
Q 29.734375 48.390625 25.78125 46.015625 
Q 21.828125 43.65625 18.703125 38.8125 
Q 16.40625 35.203125 15.15625 30.5625 
Q 13.921875 25.921875 13.921875 21 
z
" id="DejaVuSans-Oblique-111"/>
      <path d="M 45.40625 46.390625 
L 45.40625 75.984375 
L 54.390625 75.984375 
L 54.390625 0 
L 45.40625 0 
L 45.40625 8.203125 
Q 42.578125 3.328125 38.25 0.953125 
Q 33.9375 -1.421875 27.875 -1.421875 
Q 17.96875 -1.421875 11.734375 6.484375 
Q 5.515625 14.40625 5.515625 27.296875 
Q 5.515625 40.1875 11.734375 48.09375 
Q 17.96875 56 27.875 56 
Q 33.9375 56 38.25 53.625 
Q 42.578125 51.265625 45.40625 46.390625 
z
M 14.796875 27.296875 
Q 14.796875 17.390625 18.875 11.75 
Q 22.953125 6.109375 30.078125 6.109375 
Q 37.203125 6.109375 41.296875 11.75 
Q 45.40625 17.390625 45.40625 27.296875 
Q 45.40625 37.203125 41.296875 42.84375 
Q 37.203125 48.484375 30.078125 48.484375 
Q 22.953125 48.484375 18.875 42.84375 
Q 14.796875 37.203125 14.796875 27.296875 
z
" id="DejaVuSans-100"/>
      <path d="M 9.421875 75.984375 
L 18.40625 75.984375 
L 18.40625 0 
L 9.421875 0 
z
" id="DejaVuSans-108"/>
     </defs>
     <g transform="translate(151.823438 53.59625)scale(0.1 -0.1)">
      <use transform="translate(0 0.015625)" xlink:href="#DejaVuSans-Oblique-65"/>
      <use transform="translate(68.408203 0.015625)" xlink:href="#DejaVuSans-Oblique-112"/>
      <use transform="translate(131.884766 0.015625)" xlink:href="#DejaVuSans-Oblique-114"/>
      <use transform="translate(172.998047 0.015625)" xlink:href="#DejaVuSans-Oblique-105"/>
      <use transform="translate(200.78125 0.015625)" xlink:href="#DejaVuSans-Oblique-111"/>
      <use transform="translate(261.962891 0.015625)" xlink:href="#DejaVuSans-Oblique-114"/>
      <use transform="translate(303.076172 0.015625)" xlink:href="#DejaVuSans-Oblique-105"/>
      <use transform="translate(330.859375 0.015625)" xlink:href="#DejaVuSans-32"/>
      <use transform="translate(362.646484 0.015625)" xlink:href="#DejaVuSans-109"/>
      <use transform="translate(460.058594 0.015625)" xlink:href="#DejaVuSans-111"/>
      <use transform="translate(521.240234 0.015625)" xlink:href="#DejaVuSans-100"/>
      <use transform="translate(584.716797 0.015625)" xlink:href="#DejaVuSans-101"/>
      <use transform="translate(646.240234 0.015625)" xlink:href="#DejaVuSans-108"/>
     </g>
    </g>
    <g id="line2d_33"/>
    <g id="line2d_34">
     <g>
      <use style="stroke:#000000;" x="133.823438" xlink:href="#md7f65ecb9c" y="64.794688"/>
     </g>
    </g>
    <g id="text_21">
     <!-- Experimental Data -->
     <defs>
      <path d="M 19.671875 64.796875 
L 19.671875 8.109375 
L 31.59375 8.109375 
Q 46.6875 8.109375 53.6875 14.9375 
Q 60.6875 21.78125 60.6875 36.53125 
Q 60.6875 51.171875 53.6875 57.984375 
Q 46.6875 64.796875 31.59375 64.796875 
z
M 9.8125 72.90625 
L 30.078125 72.90625 
Q 51.265625 72.90625 61.171875 64.09375 
Q 71.09375 55.28125 71.09375 36.53125 
Q 71.09375 17.671875 61.125 8.828125 
Q 51.171875 0 30.078125 0 
L 9.8125 0 
z
" id="DejaVuSans-68"/>
     </defs>
     <g transform="translate(151.823438 68.294688)scale(0.1 -0.1)">
      <use xlink:href="#DejaVuSans-69"/>
      <use x="63.183594" xlink:href="#DejaVuSans-120"/>
      <use x="122.363281" xlink:href="#DejaVuSans-112"/>
      <use x="185.839844" xlink:href="#DejaVuSans-101"/>
      <use x="247.363281" xlink:href="#DejaVuSans-114"/>
      <use x="288.476562" xlink:href="#DejaVuSans-105"/>
      <use x="316.259766" xlink:href="#DejaVuSans-109"/>
      <use x="413.671875" xlink:href="#DejaVuSans-101"/>
      <use x="475.195312" xlink:href="#DejaVuSans-110"/>
      <use x="538.574219" xlink:href="#DejaVuSans-116"/>
      <use x="577.783203" xlink:href="#DejaVuSans-97"/>
      <use x="639.0625" xlink:href="#DejaVuSans-108"/>
      <use x="666.845703" xlink:href="#DejaVuSans-32"/>
      <use x="698.632812" xlink:href="#DejaVuSans-68"/>
      <use x="775.634766" xlink:href="#DejaVuSans-97"/>
      <use x="836.914062" xlink:href="#DejaVuSans-116"/>
      <use x="876.123047" xlink:href="#DejaVuSans-97"/>
     </g>
    </g>
    <g id="line2d_35">
     <path d="M 123.823438 79.472813 
L 143.823438 79.472813 
" style="fill:none;stroke:#ffffff;stroke-linecap:square;stroke-width:1.5;"/>
    </g>
    <g id="line2d_36"/>
    <g id="text_22">
     <!-- T:1282 -->
     <defs>
      <path d="M 11.71875 12.40625 
L 22.015625 12.40625 
L 22.015625 0 
L 11.71875 0 
z
M 11.71875 51.703125 
L 22.015625 51.703125 
L 22.015625 39.3125 
L 11.71875 39.3125 
z
" id="DejaVuSans-58"/>
      <path d="M 31.78125 34.625 
Q 24.75 34.625 20.71875 30.859375 
Q 16.703125 27.09375 16.703125 20.515625 
Q 16.703125 13.921875 20.71875 10.15625 
Q 24.75 6.390625 31.78125 6.390625 
Q 38.8125 6.390625 42.859375 10.171875 
Q 46.921875 13.96875 46.921875 20.515625 
Q 46.921875 27.09375 42.890625 30.859375 
Q 38.875 34.625 31.78125 34.625 
z
M 21.921875 38.8125 
Q 15.578125 40.375 12.03125 44.71875 
Q 8.5 49.078125 8.5 55.328125 
Q 8.5 64.0625 14.71875 69.140625 
Q 20.953125 74.21875 31.78125 74.21875 
Q 42.671875 74.21875 48.875 69.140625 
Q 55.078125 64.0625 55.078125 55.328125 
Q 55.078125 49.078125 51.53125 44.71875 
Q 48 40.375 41.703125 38.8125 
Q 48.828125 37.15625 52.796875 32.3125 
Q 56.78125 27.484375 56.78125 20.515625 
Q 56.78125 9.90625 50.3125 4.234375 
Q 43.84375 -1.421875 31.78125 -1.421875 
Q 19.734375 -1.421875 13.25 4.234375 
Q 6.78125 9.90625 6.78125 20.515625 
Q 6.78125 27.484375 10.78125 32.3125 
Q 14.796875 37.15625 21.921875 38.8125 
z
M 18.3125 54.390625 
Q 18.3125 48.734375 21.84375 45.5625 
Q 25.390625 42.390625 31.78125 42.390625 
Q 38.140625 42.390625 41.71875 45.5625 
Q 45.3125 48.734375 45.3125 54.390625 
Q 45.3125 60.0625 41.71875 63.234375 
Q 38.140625 66.40625 31.78125 66.40625 
Q 25.390625 66.40625 21.84375 63.234375 
Q 18.3125 60.0625 18.3125 54.390625 
z
" id="DejaVuSans-56"/>
     </defs>
     <g transform="translate(151.823438 82.972813)scale(0.1 -0.1)">
      <use xlink:href="#DejaVuSans-84"/>
      <use x="60.912109" xlink:href="#DejaVuSans-58"/>
      <use x="94.603516" xlink:href="#DejaVuSans-49"/>
      <use x="158.226562" xlink:href="#DejaVuSans-50"/>
      <use x="221.849609" xlink:href="#DejaVuSans-56"/>
      <use x="285.472656" xlink:href="#DejaVuSans-50"/>
     </g>
    </g>
    <g id="line2d_37">
     <path d="M 123.823438 94.150937 
L 143.823438 94.150937 
" style="fill:none;stroke:#ffffff;stroke-linecap:square;stroke-width:1.5;"/>
    </g>
    <g id="line2d_38"/>
    <g id="text_23">
     <!-- P:1.635 -->
     <defs>
      <path d="M 19.671875 64.796875 
L 19.671875 37.40625 
L 32.078125 37.40625 
Q 38.96875 37.40625 42.71875 40.96875 
Q 46.484375 44.53125 46.484375 51.125 
Q 46.484375 57.671875 42.71875 61.234375 
Q 38.96875 64.796875 32.078125 64.796875 
z
M 9.8125 72.90625 
L 32.078125 72.90625 
Q 44.34375 72.90625 50.609375 67.359375 
Q 56.890625 61.8125 56.890625 51.125 
Q 56.890625 40.328125 50.609375 34.8125 
Q 44.34375 29.296875 32.078125 29.296875 
L 19.671875 29.296875 
L 19.671875 0 
L 9.8125 0 
z
" id="DejaVuSans-80"/>
      <path d="M 33.015625 40.375 
Q 26.375 40.375 22.484375 35.828125 
Q 18.609375 31.296875 18.609375 23.390625 
Q 18.609375 15.53125 22.484375 10.953125 
Q 26.375 6.390625 33.015625 6.390625 
Q 39.65625 6.390625 43.53125 10.953125 
Q 47.40625 15.53125 47.40625 23.390625 
Q 47.40625 31.296875 43.53125 35.828125 
Q 39.65625 40.375 33.015625 40.375 
z
M 52.59375 71.296875 
L 52.59375 62.3125 
Q 48.875 64.0625 45.09375 64.984375 
Q 41.3125 65.921875 37.59375 65.921875 
Q 27.828125 65.921875 22.671875 59.328125 
Q 17.53125 52.734375 16.796875 39.40625 
Q 19.671875 43.65625 24.015625 45.921875 
Q 28.375 48.1875 33.59375 48.1875 
Q 44.578125 48.1875 50.953125 41.515625 
Q 57.328125 34.859375 57.328125 23.390625 
Q 57.328125 12.15625 50.6875 5.359375 
Q 44.046875 -1.421875 33.015625 -1.421875 
Q 20.359375 -1.421875 13.671875 8.265625 
Q 6.984375 17.96875 6.984375 36.375 
Q 6.984375 53.65625 15.1875 63.9375 
Q 23.390625 74.21875 37.203125 74.21875 
Q 40.921875 74.21875 44.703125 73.484375 
Q 48.484375 72.75 52.59375 71.296875 
z
" id="DejaVuSans-54"/>
     </defs>
     <g transform="translate(151.823438 97.650937)scale(0.1 -0.1)">
      <use xlink:href="#DejaVuSans-80"/>
      <use x="60.302734" xlink:href="#DejaVuSans-58"/>
      <use x="93.994141" xlink:href="#DejaVuSans-49"/>
      <use x="157.617188" xlink:href="#DejaVuSans-46"/>
      <use x="189.404297" xlink:href="#DejaVuSans-54"/>
      <use x="253.027344" xlink:href="#DejaVuSans-51"/>
      <use x="316.650391" xlink:href="#DejaVuSans-53"/>
     </g>
    </g>
    <g id="line2d_39">
     <path d="M 265.564063 35.416562 
L 285.564063 35.416562 
" style="fill:none;stroke:#ffffff;stroke-linecap:square;stroke-width:1.5;"/>
    </g>
    <g id="line2d_40"/>
    <g id="text_24">
     <!-- H2O2: 0.003094 -->
     <defs>
      <path d="M 9.8125 72.90625 
L 19.671875 72.90625 
L 19.671875 43.015625 
L 55.515625 43.015625 
L 55.515625 72.90625 
L 65.375 72.90625 
L 65.375 0 
L 55.515625 0 
L 55.515625 34.71875 
L 19.671875 34.71875 
L 19.671875 0 
L 9.8125 0 
z
" id="DejaVuSans-72"/>
      <path d="M 39.40625 66.21875 
Q 28.65625 66.21875 22.328125 58.203125 
Q 16.015625 50.203125 16.015625 36.375 
Q 16.015625 22.609375 22.328125 14.59375 
Q 28.65625 6.59375 39.40625 6.59375 
Q 50.140625 6.59375 56.421875 14.59375 
Q 62.703125 22.609375 62.703125 36.375 
Q 62.703125 50.203125 56.421875 58.203125 
Q 50.140625 66.21875 39.40625 66.21875 
z
M 39.40625 74.21875 
Q 54.734375 74.21875 63.90625 63.9375 
Q 73.09375 53.65625 73.09375 36.375 
Q 73.09375 19.140625 63.90625 8.859375 
Q 54.734375 -1.421875 39.40625 -1.421875 
Q 24.03125 -1.421875 14.8125 8.828125 
Q 5.609375 19.09375 5.609375 36.375 
Q 5.609375 53.65625 14.8125 63.9375 
Q 24.03125 74.21875 39.40625 74.21875 
z
" id="DejaVuSans-79"/>
      <path d="M 10.984375 1.515625 
L 10.984375 10.5 
Q 14.703125 8.734375 18.5 7.8125 
Q 22.3125 6.890625 25.984375 6.890625 
Q 35.75 6.890625 40.890625 13.453125 
Q 46.046875 20.015625 46.78125 33.40625 
Q 43.953125 29.203125 39.59375 26.953125 
Q 35.25 24.703125 29.984375 24.703125 
Q 19.046875 24.703125 12.671875 31.3125 
Q 6.296875 37.9375 6.296875 49.421875 
Q 6.296875 60.640625 12.9375 67.421875 
Q 19.578125 74.21875 30.609375 74.21875 
Q 43.265625 74.21875 49.921875 64.515625 
Q 56.59375 54.828125 56.59375 36.375 
Q 56.59375 19.140625 48.40625 8.859375 
Q 40.234375 -1.421875 26.421875 -1.421875 
Q 22.703125 -1.421875 18.890625 -0.6875 
Q 15.09375 0.046875 10.984375 1.515625 
z
M 30.609375 32.421875 
Q 37.25 32.421875 41.125 36.953125 
Q 45.015625 41.5 45.015625 49.421875 
Q 45.015625 57.28125 41.125 61.84375 
Q 37.25 66.40625 30.609375 66.40625 
Q 23.96875 66.40625 20.09375 61.84375 
Q 16.21875 57.28125 16.21875 49.421875 
Q 16.21875 41.5 20.09375 36.953125 
Q 23.96875 32.421875 30.609375 32.421875 
z
" id="DejaVuSans-57"/>
      <path d="M 37.796875 64.3125 
L 12.890625 25.390625 
L 37.796875 25.390625 
z
M 35.203125 72.90625 
L 47.609375 72.90625 
L 47.609375 25.390625 
L 58.015625 25.390625 
L 58.015625 17.1875 
L 47.609375 17.1875 
L 47.609375 0 
L 37.796875 0 
L 37.796875 17.1875 
L 4.890625 17.1875 
L 4.890625 26.703125 
z
" id="DejaVuSans-52"/>
     </defs>
     <g transform="translate(293.564063 38.916562)scale(0.1 -0.1)">
      <use xlink:href="#DejaVuSans-72"/>
      <use x="75.195312" xlink:href="#DejaVuSans-50"/>
      <use x="138.818359" xlink:href="#DejaVuSans-79"/>
      <use x="217.529297" xlink:href="#DejaVuSans-50"/>
      <use x="281.152344" xlink:href="#DejaVuSans-58"/>
      <use x="314.84375" xlink:href="#DejaVuSans-32"/>
      <use x="346.630859" xlink:href="#DejaVuSans-48"/>
      <use x="410.253906" xlink:href="#DejaVuSans-46"/>
      <use x="442.041016" xlink:href="#DejaVuSans-48"/>
      <use x="505.664062" xlink:href="#DejaVuSans-48"/>
      <use x="569.287109" xlink:href="#DejaVuSans-51"/>
      <use x="632.910156" xlink:href="#DejaVuSans-48"/>
      <use x="696.533203" xlink:href="#DejaVuSans-57"/>
      <use x="760.15625" xlink:href="#DejaVuSans-52"/>
     </g>
    </g>
    <g id="line2d_41">
     <path d="M 265.564063 50.094687 
L 285.564063 50.094687 
" style="fill:none;stroke:#ffffff;stroke-linecap:square;stroke-width:1.5;"/>
    </g>
    <g id="line2d_42"/>
    <g id="text_25">
     <!-- H2O: 0.001113 -->
     <g transform="translate(293.564063 53.594687)scale(0.1 -0.1)">
      <use xlink:href="#DejaVuSans-72"/>
      <use x="75.195312" xlink:href="#DejaVuSans-50"/>
      <use x="138.818359" xlink:href="#DejaVuSans-79"/>
      <use x="217.513672" xlink:href="#DejaVuSans-58"/>
      <use x="251.205078" xlink:href="#DejaVuSans-32"/>
      <use x="282.992188" xlink:href="#DejaVuSans-48"/>
      <use x="346.615234" xlink:href="#DejaVuSans-46"/>
      <use x="378.402344" xlink:href="#DejaVuSans-48"/>
      <use x="442.025391" xlink:href="#DejaVuSans-48"/>
      <use x="505.648438" xlink:href="#DejaVuSans-49"/>
      <use x="569.271484" xlink:href="#DejaVuSans-49"/>
      <use x="632.894531" xlink:href="#DejaVuSans-49"/>
      <use x="696.517578" xlink:href="#DejaVuSans-51"/>
     </g>
    </g>
    <g id="line2d_43">
     <path d="M 265.564063 64.772812 
L 285.564063 64.772812 
" style="fill:none;stroke:#ffffff;stroke-linecap:square;stroke-width:1.5;"/>
    </g>
    <g id="line2d_44"/>
    <g id="text_26">
     <!-- O2: 0.000556 -->
     <g transform="translate(293.564063 68.272812)scale(0.1 -0.1)">
      <use xlink:href="#DejaVuSans-79"/>
      <use x="78.710938" xlink:href="#DejaVuSans-50"/>
      <use x="142.333984" xlink:href="#DejaVuSans-58"/>
      <use x="176.025391" xlink:href="#DejaVuSans-32"/>
      <use x="207.8125" xlink:href="#DejaVuSans-48"/>
      <use x="271.435547" xlink:href="#DejaVuSans-46"/>
      <use x="303.222656" xlink:href="#DejaVuSans-48"/>
      <use x="366.845703" xlink:href="#DejaVuSans-48"/>
      <use x="430.46875" xlink:href="#DejaVuSans-48"/>
      <use x="494.091797" xlink:href="#DejaVuSans-53"/>
      <use x="557.714844" xlink:href="#DejaVuSans-53"/>
      <use x="621.337891" xlink:href="#DejaVuSans-54"/>
     </g>
    </g>
    <g id="line2d_45">
     <path d="M 265.564063 79.450938 
L 285.564063 79.450938 
" style="fill:none;stroke:#ffffff;stroke-linecap:square;stroke-width:1.5;"/>
    </g>
    <g id="line2d_46"/>
    <g id="text_27">
     <!-- Ar: 0.995237 -->
     <g transform="translate(293.564063 82.950938)scale(0.1 -0.1)">
      <use xlink:href="#DejaVuSans-65"/>
      <use x="68.408203" xlink:href="#DejaVuSans-114"/>
      <use x="109.505859" xlink:href="#DejaVuSans-58"/>
      <use x="143.197266" xlink:href="#DejaVuSans-32"/>
      <use x="174.984375" xlink:href="#DejaVuSans-48"/>
      <use x="238.607422" xlink:href="#DejaVuSans-46"/>
      <use x="270.394531" xlink:href="#DejaVuSans-57"/>
      <use x="334.017578" xlink:href="#DejaVuSans-57"/>
      <use x="397.640625" xlink:href="#DejaVuSans-53"/>
      <use x="461.263672" xlink:href="#DejaVuSans-50"/>
      <use x="524.886719" xlink:href="#DejaVuSans-51"/>
      <use x="588.509766" xlink:href="#DejaVuSans-55"/>
     </g>
    </g>
   </g>
  </g>
 </g>
 <defs>
  <clipPath id="p2e480134f9">
   <rect height="217.44" width="334.8" x="50.14375" y="22.318125"/>
  </clipPath>
 </defs>
</svg>
