<?xml version="1.0" encoding="utf-8" standalone="no"?>
<!DOCTYPE svg PUBLIC "-//W3C//DTD SVG 1.1//EN"
  "http://www.w3.org/Graphics/SVG/1.1/DTD/svg11.dtd">
<!-- Created with matplotlib (https://matplotlib.org/) -->
<svg height="277.314375pt" version="1.1" viewBox="0 0 395.478125 277.314375" width="395.478125pt" xmlns="http://www.w3.org/2000/svg" xmlns:xlink="http://www.w3.org/1999/xlink">
 <defs>
  <style type="text/css">
*{stroke-linecap:butt;stroke-linejoin:round;}
  </style>
 </defs>
 <g id="figure_1">
  <g id="patch_1">
   <path d="M 0 277.314375 
L 395.478125 277.314375 
L 395.478125 0 
L 0 0 
z
" style="fill:#ffffff;"/>
  </g>
  <g id="axes_1">
   <g id="patch_2">
    <path d="M 49.978125 239.758125 
L 384.778125 239.758125 
L 384.778125 22.318125 
L 49.978125 22.318125 
z
" style="fill:#ffffff;"/>
   </g>
   <g id="matplotlib.axis_1">
    <g id="xtick_1">
     <g id="line2d_1">
      <defs>
       <path d="M 0 0 
L 0 3.5 
" id="mbb1dbcbb7f" style="stroke:#000000;stroke-width:0.8;"/>
      </defs>
      <g>
       <use style="stroke:#000000;stroke-width:0.8;" x="104.895912" xlink:href="#mbb1dbcbb7f" y="239.758125"/>
      </g>
     </g>
     <g id="text_1">
      <!-- 500 -->
      <defs>
       <path d="M 10.796875 72.90625 
L 49.515625 72.90625 
L 49.515625 64.59375 
L 19.828125 64.59375 
L 19.828125 46.734375 
Q 21.96875 47.46875 24.109375 47.828125 
Q 26.265625 48.1875 28.421875 48.1875 
Q 40.625 48.1875 47.75 41.5 
Q 54.890625 34.8125 54.890625 23.390625 
Q 54.890625 11.625 47.5625 5.09375 
Q 40.234375 -1.421875 26.90625 -1.421875 
Q 22.3125 -1.421875 17.546875 -0.640625 
Q 12.796875 0.140625 7.71875 1.703125 
L 7.71875 11.625 
Q 12.109375 9.234375 16.796875 8.0625 
Q 21.484375 6.890625 26.703125 6.890625 
Q 35.15625 6.890625 40.078125 11.328125 
Q 45.015625 15.765625 45.015625 23.390625 
Q 45.015625 31 40.078125 35.4375 
Q 35.15625 39.890625 26.703125 39.890625 
Q 22.75 39.890625 18.8125 39.015625 
Q 14.890625 38.140625 10.796875 36.28125 
z
" id="DejaVuSans-53"/>
       <path d="M 31.78125 66.40625 
Q 24.171875 66.40625 20.328125 58.90625 
Q 16.5 51.421875 16.5 36.375 
Q 16.5 21.390625 20.328125 13.890625 
Q 24.171875 6.390625 31.78125 6.390625 
Q 39.453125 6.390625 43.28125 13.890625 
Q 47.125 21.390625 47.125 36.375 
Q 47.125 51.421875 43.28125 58.90625 
Q 39.453125 66.40625 31.78125 66.40625 
z
M 31.78125 74.21875 
Q 44.046875 74.21875 50.515625 64.515625 
Q 56.984375 54.828125 56.984375 36.375 
Q 56.984375 17.96875 50.515625 8.265625 
Q 44.046875 -1.421875 31.78125 -1.421875 
Q 19.53125 -1.421875 13.0625 8.265625 
Q 6.59375 17.96875 6.59375 36.375 
Q 6.59375 54.828125 13.0625 64.515625 
Q 19.53125 74.21875 31.78125 74.21875 
z
" id="DejaVuSans-48"/>
      </defs>
      <g transform="translate(95.352162 254.356562)scale(0.1 -0.1)">
       <use xlink:href="#DejaVuSans-53"/>
       <use x="63.623047" xlink:href="#DejaVuSans-48"/>
       <use x="127.246094" xlink:href="#DejaVuSans-48"/>
      </g>
     </g>
    </g>
    <g id="xtick_2">
     <g id="line2d_2">
      <g>
       <use style="stroke:#000000;stroke-width:0.8;" x="171.061919" xlink:href="#mbb1dbcbb7f" y="239.758125"/>
      </g>
     </g>
     <g id="text_2">
      <!-- 1000 -->
      <defs>
       <path d="M 12.40625 8.296875 
L 28.515625 8.296875 
L 28.515625 63.921875 
L 10.984375 60.40625 
L 10.984375 69.390625 
L 28.421875 72.90625 
L 38.28125 72.90625 
L 38.28125 8.296875 
L 54.390625 8.296875 
L 54.390625 0 
L 12.40625 0 
z
" id="DejaVuSans-49"/>
      </defs>
      <g transform="translate(158.336919 254.356562)scale(0.1 -0.1)">
       <use xlink:href="#DejaVuSans-49"/>
       <use x="63.623047" xlink:href="#DejaVuSans-48"/>
       <use x="127.246094" xlink:href="#DejaVuSans-48"/>
       <use x="190.869141" xlink:href="#DejaVuSans-48"/>
      </g>
     </g>
    </g>
    <g id="xtick_3">
     <g id="line2d_3">
      <g>
       <use style="stroke:#000000;stroke-width:0.8;" x="237.227927" xlink:href="#mbb1dbcbb7f" y="239.758125"/>
      </g>
     </g>
     <g id="text_3">
      <!-- 1500 -->
      <g transform="translate(224.502927 254.356562)scale(0.1 -0.1)">
       <use xlink:href="#DejaVuSans-49"/>
       <use x="63.623047" xlink:href="#DejaVuSans-53"/>
       <use x="127.246094" xlink:href="#DejaVuSans-48"/>
       <use x="190.869141" xlink:href="#DejaVuSans-48"/>
      </g>
     </g>
    </g>
    <g id="xtick_4">
     <g id="line2d_4">
      <g>
       <use style="stroke:#000000;stroke-width:0.8;" x="303.393935" xlink:href="#mbb1dbcbb7f" y="239.758125"/>
      </g>
     </g>
     <g id="text_4">
      <!-- 2000 -->
      <defs>
       <path d="M 19.1875 8.296875 
L 53.609375 8.296875 
L 53.609375 0 
L 7.328125 0 
L 7.328125 8.296875 
Q 12.9375 14.109375 22.625 23.890625 
Q 32.328125 33.6875 34.8125 36.53125 
Q 39.546875 41.84375 41.421875 45.53125 
Q 43.3125 49.21875 43.3125 52.78125 
Q 43.3125 58.59375 39.234375 62.25 
Q 35.15625 65.921875 28.609375 65.921875 
Q 23.96875 65.921875 18.8125 64.3125 
Q 13.671875 62.703125 7.8125 59.421875 
L 7.8125 69.390625 
Q 13.765625 71.78125 18.9375 73 
Q 24.125 74.21875 28.421875 74.21875 
Q 39.75 74.21875 46.484375 68.546875 
Q 53.21875 62.890625 53.21875 53.421875 
Q 53.21875 48.921875 51.53125 44.890625 
Q 49.859375 40.875 45.40625 35.40625 
Q 44.1875 33.984375 37.640625 27.21875 
Q 31.109375 20.453125 19.1875 8.296875 
z
" id="DejaVuSans-50"/>
      </defs>
      <g transform="translate(290.668935 254.356562)scale(0.1 -0.1)">
       <use xlink:href="#DejaVuSans-50"/>
       <use x="63.623047" xlink:href="#DejaVuSans-48"/>
       <use x="127.246094" xlink:href="#DejaVuSans-48"/>
       <use x="190.869141" xlink:href="#DejaVuSans-48"/>
      </g>
     </g>
    </g>
    <g id="xtick_5">
     <g id="line2d_5">
      <g>
       <use style="stroke:#000000;stroke-width:0.8;" x="369.559943" xlink:href="#mbb1dbcbb7f" y="239.758125"/>
      </g>
     </g>
     <g id="text_5">
      <!-- 2500 -->
      <g transform="translate(356.834943 254.356562)scale(0.1 -0.1)">
       <use xlink:href="#DejaVuSans-50"/>
       <use x="63.623047" xlink:href="#DejaVuSans-53"/>
       <use x="127.246094" xlink:href="#DejaVuSans-48"/>
       <use x="190.869141" xlink:href="#DejaVuSans-48"/>
      </g>
     </g>
    </g>
    <g id="text_6">
     <!-- Temperature (K) -->
     <defs>
      <path d="M -0.296875 72.90625 
L 61.375 72.90625 
L 61.375 64.59375 
L 35.5 64.59375 
L 35.5 0 
L 25.59375 0 
L 25.59375 64.59375 
L -0.296875 64.59375 
z
" id="DejaVuSans-84"/>
      <path d="M 56.203125 29.59375 
L 56.203125 25.203125 
L 14.890625 25.203125 
Q 15.484375 15.921875 20.484375 11.0625 
Q 25.484375 6.203125 34.421875 6.203125 
Q 39.59375 6.203125 44.453125 7.46875 
Q 49.3125 8.734375 54.109375 11.28125 
L 54.109375 2.78125 
Q 49.265625 0.734375 44.1875 -0.34375 
Q 39.109375 -1.421875 33.890625 -1.421875 
Q 20.796875 -1.421875 13.15625 6.1875 
Q 5.515625 13.8125 5.515625 26.8125 
Q 5.515625 40.234375 12.765625 48.109375 
Q 20.015625 56 32.328125 56 
Q 43.359375 56 49.78125 48.890625 
Q 56.203125 41.796875 56.203125 29.59375 
z
M 47.21875 32.234375 
Q 47.125 39.59375 43.09375 43.984375 
Q 39.0625 48.390625 32.421875 48.390625 
Q 24.90625 48.390625 20.390625 44.140625 
Q 15.875 39.890625 15.1875 32.171875 
z
" id="DejaVuSans-101"/>
      <path d="M 52 44.1875 
Q 55.375 50.25 60.0625 53.125 
Q 64.75 56 71.09375 56 
Q 79.640625 56 84.28125 50.015625 
Q 88.921875 44.046875 88.921875 33.015625 
L 88.921875 0 
L 79.890625 0 
L 79.890625 32.71875 
Q 79.890625 40.578125 77.09375 44.375 
Q 74.3125 48.1875 68.609375 48.1875 
Q 61.625 48.1875 57.5625 43.546875 
Q 53.515625 38.921875 53.515625 30.90625 
L 53.515625 0 
L 44.484375 0 
L 44.484375 32.71875 
Q 44.484375 40.625 41.703125 44.40625 
Q 38.921875 48.1875 33.109375 48.1875 
Q 26.21875 48.1875 22.15625 43.53125 
Q 18.109375 38.875 18.109375 30.90625 
L 18.109375 0 
L 9.078125 0 
L 9.078125 54.6875 
L 18.109375 54.6875 
L 18.109375 46.1875 
Q 21.1875 51.21875 25.484375 53.609375 
Q 29.78125 56 35.6875 56 
Q 41.65625 56 45.828125 52.96875 
Q 50 49.953125 52 44.1875 
z
" id="DejaVuSans-109"/>
      <path d="M 18.109375 8.203125 
L 18.109375 -20.796875 
L 9.078125 -20.796875 
L 9.078125 54.6875 
L 18.109375 54.6875 
L 18.109375 46.390625 
Q 20.953125 51.265625 25.265625 53.625 
Q 29.59375 56 35.59375 56 
Q 45.5625 56 51.78125 48.09375 
Q 58.015625 40.1875 58.015625 27.296875 
Q 58.015625 14.40625 51.78125 6.484375 
Q 45.5625 -1.421875 35.59375 -1.421875 
Q 29.59375 -1.421875 25.265625 0.953125 
Q 20.953125 3.328125 18.109375 8.203125 
z
M 48.6875 27.296875 
Q 48.6875 37.203125 44.609375 42.84375 
Q 40.53125 48.484375 33.40625 48.484375 
Q 26.265625 48.484375 22.1875 42.84375 
Q 18.109375 37.203125 18.109375 27.296875 
Q 18.109375 17.390625 22.1875 11.75 
Q 26.265625 6.109375 33.40625 6.109375 
Q 40.53125 6.109375 44.609375 11.75 
Q 48.6875 17.390625 48.6875 27.296875 
z
" id="DejaVuSans-112"/>
      <path d="M 41.109375 46.296875 
Q 39.59375 47.171875 37.8125 47.578125 
Q 36.03125 48 33.890625 48 
Q 26.265625 48 22.1875 43.046875 
Q 18.109375 38.09375 18.109375 28.8125 
L 18.109375 0 
L 9.078125 0 
L 9.078125 54.6875 
L 18.109375 54.6875 
L 18.109375 46.1875 
Q 20.953125 51.171875 25.484375 53.578125 
Q 30.03125 56 36.53125 56 
Q 37.453125 56 38.578125 55.875 
Q 39.703125 55.765625 41.0625 55.515625 
z
" id="DejaVuSans-114"/>
      <path d="M 34.28125 27.484375 
Q 23.390625 27.484375 19.1875 25 
Q 14.984375 22.515625 14.984375 16.5 
Q 14.984375 11.71875 18.140625 8.90625 
Q 21.296875 6.109375 26.703125 6.109375 
Q 34.1875 6.109375 38.703125 11.40625 
Q 43.21875 16.703125 43.21875 25.484375 
L 43.21875 27.484375 
z
M 52.203125 31.203125 
L 52.203125 0 
L 43.21875 0 
L 43.21875 8.296875 
Q 40.140625 3.328125 35.546875 0.953125 
Q 30.953125 -1.421875 24.3125 -1.421875 
Q 15.921875 -1.421875 10.953125 3.296875 
Q 6 8.015625 6 15.921875 
Q 6 25.140625 12.171875 29.828125 
Q 18.359375 34.515625 30.609375 34.515625 
L 43.21875 34.515625 
L 43.21875 35.40625 
Q 43.21875 41.609375 39.140625 45 
Q 35.0625 48.390625 27.6875 48.390625 
Q 23 48.390625 18.546875 47.265625 
Q 14.109375 46.140625 10.015625 43.890625 
L 10.015625 52.203125 
Q 14.9375 54.109375 19.578125 55.046875 
Q 24.21875 56 28.609375 56 
Q 40.484375 56 46.34375 49.84375 
Q 52.203125 43.703125 52.203125 31.203125 
z
" id="DejaVuSans-97"/>
      <path d="M 18.3125 70.21875 
L 18.3125 54.6875 
L 36.8125 54.6875 
L 36.8125 47.703125 
L 18.3125 47.703125 
L 18.3125 18.015625 
Q 18.3125 11.328125 20.140625 9.421875 
Q 21.96875 7.515625 27.59375 7.515625 
L 36.8125 7.515625 
L 36.8125 0 
L 27.59375 0 
Q 17.1875 0 13.234375 3.875 
Q 9.28125 7.765625 9.28125 18.015625 
L 9.28125 47.703125 
L 2.6875 47.703125 
L 2.6875 54.6875 
L 9.28125 54.6875 
L 9.28125 70.21875 
z
" id="DejaVuSans-116"/>
      <path d="M 8.5 21.578125 
L 8.5 54.6875 
L 17.484375 54.6875 
L 17.484375 21.921875 
Q 17.484375 14.15625 20.5 10.265625 
Q 23.53125 6.390625 29.59375 6.390625 
Q 36.859375 6.390625 41.078125 11.03125 
Q 45.3125 15.671875 45.3125 23.6875 
L 45.3125 54.6875 
L 54.296875 54.6875 
L 54.296875 0 
L 45.3125 0 
L 45.3125 8.40625 
Q 42.046875 3.421875 37.71875 1 
Q 33.40625 -1.421875 27.6875 -1.421875 
Q 18.265625 -1.421875 13.375 4.4375 
Q 8.5 10.296875 8.5 21.578125 
z
M 31.109375 56 
z
" id="DejaVuSans-117"/>
      <path id="DejaVuSans-32"/>
      <path d="M 31 75.875 
Q 24.46875 64.65625 21.28125 53.65625 
Q 18.109375 42.671875 18.109375 31.390625 
Q 18.109375 20.125 21.3125 9.0625 
Q 24.515625 -2 31 -13.1875 
L 23.1875 -13.1875 
Q 15.875 -1.703125 12.234375 9.375 
Q 8.59375 20.453125 8.59375 31.390625 
Q 8.59375 42.28125 12.203125 53.3125 
Q 15.828125 64.359375 23.1875 75.875 
z
" id="DejaVuSans-40"/>
      <path d="M 9.8125 72.90625 
L 19.671875 72.90625 
L 19.671875 42.09375 
L 52.390625 72.90625 
L 65.09375 72.90625 
L 28.90625 38.921875 
L 67.671875 0 
L 54.6875 0 
L 19.671875 35.109375 
L 19.671875 0 
L 9.8125 0 
z
" id="DejaVuSans-75"/>
      <path d="M 8.015625 75.875 
L 15.828125 75.875 
Q 23.140625 64.359375 26.78125 53.3125 
Q 30.421875 42.28125 30.421875 31.390625 
Q 30.421875 20.453125 26.78125 9.375 
Q 23.140625 -1.703125 15.828125 -13.1875 
L 8.015625 -13.1875 
Q 14.5 -2 17.703125 9.0625 
Q 20.90625 20.125 20.90625 31.390625 
Q 20.90625 42.671875 17.703125 53.65625 
Q 14.5 64.65625 8.015625 75.875 
z
" id="DejaVuSans-41"/>
     </defs>
     <g transform="translate(175.991406 268.034687)scale(0.1 -0.1)">
      <use xlink:href="#DejaVuSans-84"/>
      <use x="60.818359" xlink:href="#DejaVuSans-101"/>
      <use x="122.341797" xlink:href="#DejaVuSans-109"/>
      <use x="219.753906" xlink:href="#DejaVuSans-112"/>
      <use x="283.230469" xlink:href="#DejaVuSans-101"/>
      <use x="344.753906" xlink:href="#DejaVuSans-114"/>
      <use x="385.867188" xlink:href="#DejaVuSans-97"/>
      <use x="447.146484" xlink:href="#DejaVuSans-116"/>
      <use x="486.355469" xlink:href="#DejaVuSans-117"/>
      <use x="549.734375" xlink:href="#DejaVuSans-114"/>
      <use x="590.816406" xlink:href="#DejaVuSans-101"/>
      <use x="652.339844" xlink:href="#DejaVuSans-32"/>
      <use x="684.126953" xlink:href="#DejaVuSans-40"/>
      <use x="723.140625" xlink:href="#DejaVuSans-75"/>
      <use x="788.716797" xlink:href="#DejaVuSans-41"/>
     </g>
    </g>
   </g>
   <g id="matplotlib.axis_2">
    <g id="ytick_1">
     <g id="line2d_6">
      <defs>
       <path d="M 0 0 
L -3.5 0 
" id="m9f23dd2a0e" style="stroke:#000000;stroke-width:0.8;"/>
      </defs>
      <g>
       <use style="stroke:#000000;stroke-width:0.8;" x="49.978125" xlink:href="#m9f23dd2a0e" y="222.973657"/>
      </g>
     </g>
     <g id="text_7">
      <!-- $\mathdefault{10^{11}}$ -->
      <g transform="translate(20.878125 226.772876)scale(0.1 -0.1)">
       <use transform="translate(0 0.684375)" xlink:href="#DejaVuSans-49"/>
       <use transform="translate(63.623047 0.684375)" xlink:href="#DejaVuSans-48"/>
       <use transform="translate(128.203125 38.965625)scale(0.7)" xlink:href="#DejaVuSans-49"/>
       <use transform="translate(172.739258 38.965625)scale(0.7)" xlink:href="#DejaVuSans-49"/>
      </g>
     </g>
    </g>
    <g id="ytick_2">
     <g id="line2d_7">
      <g>
       <use style="stroke:#000000;stroke-width:0.8;" x="49.978125" xlink:href="#m9f23dd2a0e" y="125.307629"/>
      </g>
     </g>
     <g id="text_8">
      <!-- $\mathdefault{10^{12}}$ -->
      <g transform="translate(20.878125 129.106848)scale(0.1 -0.1)">
       <use transform="translate(0 0.765625)" xlink:href="#DejaVuSans-49"/>
       <use transform="translate(63.623047 0.765625)" xlink:href="#DejaVuSans-48"/>
       <use transform="translate(128.203125 39.046875)scale(0.7)" xlink:href="#DejaVuSans-49"/>
       <use transform="translate(172.739258 39.046875)scale(0.7)" xlink:href="#DejaVuSans-50"/>
      </g>
     </g>
    </g>
    <g id="ytick_3">
     <g id="line2d_8">
      <g>
       <use style="stroke:#000000;stroke-width:0.8;" x="49.978125" xlink:href="#m9f23dd2a0e" y="27.641601"/>
      </g>
     </g>
     <g id="text_9">
      <!-- $\mathdefault{10^{13}}$ -->
      <defs>
       <path d="M 40.578125 39.3125 
Q 47.65625 37.796875 51.625 33 
Q 55.609375 28.21875 55.609375 21.1875 
Q 55.609375 10.40625 48.1875 4.484375 
Q 40.765625 -1.421875 27.09375 -1.421875 
Q 22.515625 -1.421875 17.65625 -0.515625 
Q 12.796875 0.390625 7.625 2.203125 
L 7.625 11.71875 
Q 11.71875 9.328125 16.59375 8.109375 
Q 21.484375 6.890625 26.8125 6.890625 
Q 36.078125 6.890625 40.9375 10.546875 
Q 45.796875 14.203125 45.796875 21.1875 
Q 45.796875 27.640625 41.28125 31.265625 
Q 36.765625 34.90625 28.71875 34.90625 
L 20.21875 34.90625 
L 20.21875 43.015625 
L 29.109375 43.015625 
Q 36.375 43.015625 40.234375 45.921875 
Q 44.09375 48.828125 44.09375 54.296875 
Q 44.09375 59.90625 40.109375 62.90625 
Q 36.140625 65.921875 28.71875 65.921875 
Q 24.65625 65.921875 20.015625 65.03125 
Q 15.375 64.15625 9.8125 62.3125 
L 9.8125 71.09375 
Q 15.4375 72.65625 20.34375 73.4375 
Q 25.25 74.21875 29.59375 74.21875 
Q 40.828125 74.21875 47.359375 69.109375 
Q 53.90625 64.015625 53.90625 55.328125 
Q 53.90625 49.265625 50.4375 45.09375 
Q 46.96875 40.921875 40.578125 39.3125 
z
" id="DejaVuSans-51"/>
      </defs>
      <g transform="translate(20.878125 31.440819)scale(0.1 -0.1)">
       <use transform="translate(0 0.765625)" xlink:href="#DejaVuSans-49"/>
       <use transform="translate(63.623047 0.765625)" xlink:href="#DejaVuSans-48"/>
       <use transform="translate(128.203125 39.046875)scale(0.7)" xlink:href="#DejaVuSans-49"/>
       <use transform="translate(172.739258 39.046875)scale(0.7)" xlink:href="#DejaVuSans-51"/>
      </g>
     </g>
    </g>
    <g id="ytick_4">
     <g id="line2d_9">
      <defs>
       <path d="M 0 0 
L -2 0 
" id="m18094c1237" style="stroke:#000000;stroke-width:0.6;"/>
      </defs>
      <g>
       <use style="stroke:#000000;stroke-width:0.6;" x="49.978125" xlink:href="#m18094c1237" y="238.102316"/>
      </g>
     </g>
    </g>
    <g id="ytick_5">
     <g id="line2d_10">
      <g>
       <use style="stroke:#000000;stroke-width:0.6;" x="49.978125" xlink:href="#m18094c1237" y="232.438473"/>
      </g>
     </g>
    </g>
    <g id="ytick_6">
     <g id="line2d_11">
      <g>
       <use style="stroke:#000000;stroke-width:0.6;" x="49.978125" xlink:href="#m18094c1237" y="227.44261"/>
      </g>
     </g>
    </g>
    <g id="ytick_7">
     <g id="line2d_12">
      <g>
       <use style="stroke:#000000;stroke-width:0.6;" x="49.978125" xlink:href="#m18094c1237" y="193.573253"/>
      </g>
     </g>
    </g>
    <g id="ytick_8">
     <g id="line2d_13">
      <g>
       <use style="stroke:#000000;stroke-width:0.6;" x="49.978125" xlink:href="#m18094c1237" y="176.375119"/>
      </g>
     </g>
    </g>
    <g id="ytick_9">
     <g id="line2d_14">
      <g>
       <use style="stroke:#000000;stroke-width:0.6;" x="49.978125" xlink:href="#m18094c1237" y="164.172849"/>
      </g>
     </g>
    </g>
    <g id="ytick_10">
     <g id="line2d_15">
      <g>
       <use style="stroke:#000000;stroke-width:0.6;" x="49.978125" xlink:href="#m18094c1237" y="154.708033"/>
      </g>
     </g>
    </g>
    <g id="ytick_11">
     <g id="line2d_16">
      <g>
       <use style="stroke:#000000;stroke-width:0.6;" x="49.978125" xlink:href="#m18094c1237" y="146.974715"/>
      </g>
     </g>
    </g>
    <g id="ytick_12">
     <g id="line2d_17">
      <g>
       <use style="stroke:#000000;stroke-width:0.6;" x="49.978125" xlink:href="#m18094c1237" y="140.436288"/>
      </g>
     </g>
    </g>
    <g id="ytick_13">
     <g id="line2d_18">
      <g>
       <use style="stroke:#000000;stroke-width:0.6;" x="49.978125" xlink:href="#m18094c1237" y="134.772445"/>
      </g>
     </g>
    </g>
    <g id="ytick_14">
     <g id="line2d_19">
      <g>
       <use style="stroke:#000000;stroke-width:0.6;" x="49.978125" xlink:href="#m18094c1237" y="129.776581"/>
      </g>
     </g>
    </g>
    <g id="ytick_15">
     <g id="line2d_20">
      <g>
       <use style="stroke:#000000;stroke-width:0.6;" x="49.978125" xlink:href="#m18094c1237" y="95.907225"/>
      </g>
     </g>
    </g>
    <g id="ytick_16">
     <g id="line2d_21">
      <g>
       <use style="stroke:#000000;stroke-width:0.6;" x="49.978125" xlink:href="#m18094c1237" y="78.709091"/>
      </g>
     </g>
    </g>
    <g id="ytick_17">
     <g id="line2d_22">
      <g>
       <use style="stroke:#000000;stroke-width:0.6;" x="49.978125" xlink:href="#m18094c1237" y="66.506821"/>
      </g>
     </g>
    </g>
    <g id="ytick_18">
     <g id="line2d_23">
      <g>
       <use style="stroke:#000000;stroke-width:0.6;" x="49.978125" xlink:href="#m18094c1237" y="57.042005"/>
      </g>
     </g>
    </g>
    <g id="ytick_19">
     <g id="line2d_24">
      <g>
       <use style="stroke:#000000;stroke-width:0.6;" x="49.978125" xlink:href="#m18094c1237" y="49.308687"/>
      </g>
     </g>
    </g>
    <g id="ytick_20">
     <g id="line2d_25">
      <g>
       <use style="stroke:#000000;stroke-width:0.6;" x="49.978125" xlink:href="#m18094c1237" y="42.77026"/>
      </g>
     </g>
    </g>
    <g id="ytick_21">
     <g id="line2d_26">
      <g>
       <use style="stroke:#000000;stroke-width:0.6;" x="49.978125" xlink:href="#m18094c1237" y="37.106417"/>
      </g>
     </g>
    </g>
    <g id="ytick_22">
     <g id="line2d_27">
      <g>
       <use style="stroke:#000000;stroke-width:0.6;" x="49.978125" xlink:href="#m18094c1237" y="32.110553"/>
      </g>
     </g>
    </g>
    <g id="text_10">
     <!-- Kmol/m^3-s -->
     <defs>
      <path d="M 30.609375 48.390625 
Q 23.390625 48.390625 19.1875 42.75 
Q 14.984375 37.109375 14.984375 27.296875 
Q 14.984375 17.484375 19.15625 11.84375 
Q 23.34375 6.203125 30.609375 6.203125 
Q 37.796875 6.203125 41.984375 11.859375 
Q 46.1875 17.53125 46.1875 27.296875 
Q 46.1875 37.015625 41.984375 42.703125 
Q 37.796875 48.390625 30.609375 48.390625 
z
M 30.609375 56 
Q 42.328125 56 49.015625 48.375 
Q 55.71875 40.765625 55.71875 27.296875 
Q 55.71875 13.875 49.015625 6.21875 
Q 42.328125 -1.421875 30.609375 -1.421875 
Q 18.84375 -1.421875 12.171875 6.21875 
Q 5.515625 13.875 5.515625 27.296875 
Q 5.515625 40.765625 12.171875 48.375 
Q 18.84375 56 30.609375 56 
z
" id="DejaVuSans-111"/>
      <path d="M 9.421875 75.984375 
L 18.40625 75.984375 
L 18.40625 0 
L 9.421875 0 
z
" id="DejaVuSans-108"/>
      <path d="M 25.390625 72.90625 
L 33.6875 72.90625 
L 8.296875 -9.28125 
L 0 -9.28125 
z
" id="DejaVuSans-47"/>
      <path d="M 46.6875 72.90625 
L 73.1875 45.703125 
L 63.375 45.703125 
L 41.890625 64.984375 
L 20.40625 45.703125 
L 10.59375 45.703125 
L 37.109375 72.90625 
z
" id="DejaVuSans-94"/>
      <path d="M 4.890625 31.390625 
L 31.203125 31.390625 
L 31.203125 23.390625 
L 4.890625 23.390625 
z
" id="DejaVuSans-45"/>
      <path d="M 44.28125 53.078125 
L 44.28125 44.578125 
Q 40.484375 46.53125 36.375 47.5 
Q 32.28125 48.484375 27.875 48.484375 
Q 21.1875 48.484375 17.84375 46.4375 
Q 14.5 44.390625 14.5 40.28125 
Q 14.5 37.15625 16.890625 35.375 
Q 19.28125 33.59375 26.515625 31.984375 
L 29.59375 31.296875 
Q 39.15625 29.25 43.1875 25.515625 
Q 47.21875 21.78125 47.21875 15.09375 
Q 47.21875 7.46875 41.1875 3.015625 
Q 35.15625 -1.421875 24.609375 -1.421875 
Q 20.21875 -1.421875 15.453125 -0.5625 
Q 10.6875 0.296875 5.421875 2 
L 5.421875 11.28125 
Q 10.40625 8.6875 15.234375 7.390625 
Q 20.0625 6.109375 24.8125 6.109375 
Q 31.15625 6.109375 34.5625 8.28125 
Q 37.984375 10.453125 37.984375 14.40625 
Q 37.984375 18.0625 35.515625 20.015625 
Q 33.0625 21.96875 24.703125 23.78125 
L 21.578125 24.515625 
Q 13.234375 26.265625 9.515625 29.90625 
Q 5.8125 33.546875 5.8125 39.890625 
Q 5.8125 47.609375 11.28125 51.796875 
Q 16.75 56 26.8125 56 
Q 31.78125 56 36.171875 55.265625 
Q 40.578125 54.546875 44.28125 53.078125 
z
" id="DejaVuSans-115"/>
     </defs>
     <g transform="translate(14.798438 161.970156)rotate(-90)scale(0.1 -0.1)">
      <use xlink:href="#DejaVuSans-75"/>
      <use x="65.576172" xlink:href="#DejaVuSans-109"/>
      <use x="162.988281" xlink:href="#DejaVuSans-111"/>
      <use x="224.169922" xlink:href="#DejaVuSans-108"/>
      <use x="251.953125" xlink:href="#DejaVuSans-47"/>
      <use x="285.644531" xlink:href="#DejaVuSans-109"/>
      <use x="383.056641" xlink:href="#DejaVuSans-94"/>
      <use x="466.845703" xlink:href="#DejaVuSans-51"/>
      <use x="530.46875" xlink:href="#DejaVuSans-45"/>
      <use x="566.552734" xlink:href="#DejaVuSans-115"/>
     </g>
    </g>
   </g>
   <g id="line2d_28">
    <path clip-path="url(#p05dc1c57be)" d="M 71.812908 108.768523 
L 73.93022 112.545269 
L 76.047532 115.874934 
L 78.164844 118.785004 
L 80.282157 121.309746 
L 82.399469 123.48504 
L 84.516781 125.345744 
L 86.634093 126.924418 
L 88.883738 128.325955 
L 91.133382 129.474708 
L 93.515358 130.447089 
L 96.029667 131.233434 
L 98.676307 131.827634 
L 101.455279 132.226711 
L 104.498916 132.434913 
L 107.807216 132.428183 
L 111.38018 132.189239 
L 115.217809 131.707141 
L 119.452433 130.949808 
L 124.216386 129.866339 
L 129.509667 128.431599 
L 135.596939 126.546439 
L 142.742868 124.090718 
L 151.212117 120.936483 
L 161.93101 116.694542 
L 177.01686 110.464917 
L 228.494014 89.039395 
L 246.094172 82.045114 
L 262.503342 75.762248 
L 278.11852 70.019088 
L 293.336702 64.657274 
L 308.157888 59.668523 
L 322.846742 54.959007 
L 337.270931 50.56796 
L 351.430457 46.487984 
L 365.457651 42.676128 
L 369.427611 41.639498 
L 369.427611 41.639498 
" style="fill:none;stroke:#0000ff;stroke-linecap:square;stroke-width:1.5;"/>
   </g>
   <g id="line2d_29">
    <path clip-path="url(#p05dc1c57be)" d="M 65.196307 66.412248 
L 69.563263 79.395203 
L 72.209904 86.091585 
L 74.856544 91.876076 
L 78.429508 98.369722 
L 81.076149 102.328515 
L 84.649113 106.703063 
L 86.369429 108.465384 
L 88.089746 110.03126 
L 91.66271 112.730227 
L 98.279311 116.124702 
L 104.895912 117.949295 
L 111.512512 118.632533 
L 118.129113 118.468376 
L 124.745714 117.663933 
L 131.362315 116.369276 
L 137.978916 114.696138 
L 144.595516 112.729813 
L 151.212117 110.536812 
L 157.828718 108.169895 
L 171.061919 103.075711 
L 187.338757 96.440971 
L 187.338757 96.440971 
L 231.537651 78.223067 
L 248.740813 71.435965 
L 264.620655 65.408298 
L 280.632829 59.583233 
L 295.454014 54.428178 
L 310.010536 49.592144 
L 325.228718 44.780139 
L 338.461919 40.800177 
L 338.461919 40.800177 
L 354.209429 36.313373 
L 369.559943 32.201761 
L 369.559943 32.201761 
" style="fill:none;stroke:#0000ff;stroke-dasharray:5.55,2.4;stroke-dashoffset:0;stroke-width:1.5;"/>
   </g>
   <g id="line2d_30">
    <path clip-path="url(#p05dc1c57be)" d="M 65.196307 122.020978 
L 69.563263 129.113162 
L 72.209904 132.931525 
L 74.856544 136.235185 
L 78.429508 139.872148 
L 81.076149 142.000524 
L 84.649113 144.201639 
L 86.369429 145.01754 
L 88.089746 145.692203 
L 91.66271 146.692611 
L 98.279311 147.380397 
L 104.895912 146.943094 
L 111.512512 145.720011 
L 118.129113 143.950169 
L 124.745714 141.80191 
L 131.362315 139.39404 
L 144.595516 134.110612 
L 164.445319 125.672492 
L 201.895279 109.628634 
L 222.009746 101.268794 
L 240.139232 93.969124 
L 257.07773 87.383707 
L 257.07773 87.383707 
L 273.619232 81.196189 
L 288.837414 75.734326 
L 303.526267 70.686213 
L 318.347453 65.827703 
L 332.639311 61.376849 
L 345.74018 57.506987 
L 356.326742 54.531527 
L 369.559943 51.008773 
L 369.559943 51.008773 
" style="fill:none;stroke:#0000ff;stroke-dasharray:5.55,2.4;stroke-dashoffset:0;stroke-width:1.5;"/>
   </g>
   <g id="line2d_31">
    <path clip-path="url(#p05dc1c57be)" d="M 71.812908 206.35888 
L 73.26856 207.052566 
L 74.724212 207.511586 
L 76.312196 207.780018 
L 78.032512 207.834849 
L 79.885161 207.659588 
L 81.870141 207.243905 
L 84.119785 206.535179 
L 86.634093 205.498324 
L 89.545398 204.040036 
L 92.853698 202.122846 
L 96.823659 199.551667 
L 101.719943 196.098828 
L 108.204212 191.233012 
L 119.055437 182.767226 
L 136.258599 169.380096 
L 146.977493 161.333273 
L 157.034726 154.061381 
L 166.827295 147.255895 
L 176.619864 140.722868 
L 186.412433 134.456089 
L 196.337334 128.366167 
L 206.5269 122.375224 
L 216.848797 116.56271 
L 227.435358 110.854552 
L 238.286583 105.255154 
L 249.402473 99.768229 
L 260.783026 94.397035 
L 272.560576 89.086233 
L 284.602789 83.902302 
L 296.909667 78.847837 
L 309.481208 73.92554 
L 322.317414 69.138296 
L 335.418283 64.489235 
L 348.783817 59.981778 
L 362.414014 55.619689 
L 369.427611 53.464347 
L 369.427611 53.464347 
" style="fill:none;stroke:#ff0000;stroke-linecap:square;stroke-width:1.5;"/>
   </g>
   <g id="line2d_32">
    <path clip-path="url(#p05dc1c57be)" d="M 65.196307 171.395951 
L 69.563263 179.984021 
L 72.209904 183.271998 
L 74.856544 185.497887 
L 77.503184 186.893107 
L 78.429508 187.219444 
L 81.076149 187.767584 
L 84.649113 187.772174 
L 86.369429 187.534876 
L 88.089746 187.170124 
L 91.66271 186.076074 
L 98.279311 183.170631 
L 104.895912 179.524533 
L 111.512512 175.435939 
L 118.129113 171.085514 
L 131.362315 162.013533 
L 151.212117 148.275717 
L 164.445319 139.346886 
L 178.207848 130.391578 
L 178.207848 130.391578 
L 187.338757 124.666557 
L 187.338757 124.666557 
L 197.528323 118.495081 
L 209.17354 111.728372 
L 220.686425 105.337488 
L 231.537651 99.579568 
L 241.727216 94.399281 
L 252.446109 89.17682 
L 264.223659 83.693946 
L 275.47188 78.693934 
L 275.47188 78.693934 
L 285.793777 74.297952 
L 297.306663 69.600063 
L 310.010536 64.653376 
L 323.243738 59.749468 
L 336.476939 55.084229 
L 349.974805 50.557007 
L 362.943342 46.414879 
L 369.559943 44.376269 
L 369.559943 44.376269 
" style="fill:none;stroke:#ff0000;stroke-dasharray:5.55,2.4;stroke-dashoffset:0;stroke-width:1.5;"/>
   </g>
   <g id="line2d_33">
    <path clip-path="url(#p05dc1c57be)" d="M 65.196307 226.871898 
L 69.563263 229.50001 
L 72.209904 229.874489 
L 74.856544 229.587624 
L 78.429508 228.413436 
L 81.076149 227.104311 
L 85.046109 224.631237 
L 88.089746 222.429557 
L 91.66271 219.604701 
L 98.279311 213.933989 
L 124.745714 190.010517 
L 131.362315 184.275587 
L 137.978916 178.723672 
L 144.595516 173.364352 
L 151.212117 168.19849 
L 157.828718 163.221442 
L 164.445319 158.425292 
L 171.061919 153.800397 
L 183.104133 145.788879 
L 183.104133 145.788879 
L 190.911722 140.850699 
L 201.895279 134.211117 
L 212.746504 127.972218 
L 222.009746 122.875969 
L 233.390299 116.880612 
L 243.97686 111.547327 
L 243.97686 111.547327 
L 256.283738 105.62172 
L 268.325951 100.090871 
L 280.632829 94.695678 
L 290.425398 90.579542 
L 304.717255 84.840764 
L 317.288797 80.045662 
L 330.389667 75.290736 
L 344.019864 70.597133 
L 356.326742 66.574784 
L 369.559943 62.472235 
L 369.559943 62.472235 
" style="fill:none;stroke:#ff0000;stroke-dasharray:5.55,2.4;stroke-dashoffset:0;stroke-width:1.5;"/>
   </g>
   <g id="line2d_34">
    <defs>
     <path d="M 0 3 
C 0.795609 3 1.55874 2.683901 2.12132 2.12132 
C 2.683901 1.55874 3 0.795609 3 0 
C 3 -0.795609 2.683901 -1.55874 2.12132 -2.12132 
C 1.55874 -2.683901 0.795609 -3 0 -3 
C -0.795609 -3 -1.55874 -2.683901 -2.12132 -2.12132 
C -2.683901 -1.55874 -3 -0.795609 -3 0 
C -3 0.795609 -2.683901 1.55874 -2.12132 2.12132 
C -1.55874 2.683901 -0.795609 3 0 3 
z
" id="m04cc0797b8" style="stroke:#000000;"/>
    </defs>
    <g clip-path="url(#p05dc1c57be)">
     <use style="stroke:#000000;" x="86.369429" xlink:href="#m04cc0797b8" y="136.348703"/>
     <use style="stroke:#000000;" x="83.722789" xlink:href="#m04cc0797b8" y="136.018617"/>
     <use style="stroke:#000000;" x="81.076149" xlink:href="#m04cc0797b8" y="134.405654"/>
     <use style="stroke:#000000;" x="78.297176" xlink:href="#m04cc0797b8" y="132.54773"/>
     <use style="stroke:#000000;" x="74.856544" xlink:href="#m04cc0797b8" y="127.149818"/>
     <use style="stroke:#000000;" x="72.209904" xlink:href="#m04cc0797b8" y="127.957762"/>
     <use style="stroke:#000000;" x="69.563263" xlink:href="#m04cc0797b8" y="123.325904"/>
     <use style="stroke:#000000;" x="177.67852" xlink:href="#m04cc0797b8" y="96.9811"/>
     <use style="stroke:#000000;" x="180.192829" xlink:href="#m04cc0797b8" y="99.214027"/>
     <use style="stroke:#000000;" x="184.692117" xlink:href="#m04cc0797b8" y="102.800598"/>
     <use style="stroke:#000000;" x="184.956781" xlink:href="#m04cc0797b8" y="99.214027"/>
     <use style="stroke:#000000;" x="186.677097" xlink:href="#m04cc0797b8" y="92.839685"/>
     <use style="stroke:#000000;" x="195.278678" xlink:href="#m04cc0797b8" y="95.907225"/>
     <use style="stroke:#000000;" x="197.263659" xlink:href="#m04cc0797b8" y="96.9811"/>
     <use style="stroke:#000000;" x="201.233619" xlink:href="#m04cc0797b8" y="89.066905"/>
     <use style="stroke:#000000;" x="203.880259" xlink:href="#m04cc0797b8" y="91.864566"/>
     <use style="stroke:#000000;" x="204.938916" xlink:href="#m04cc0797b8" y="88.173907"/>
     <use style="stroke:#000000;" x="210.761524" xlink:href="#m04cc0797b8" y="95.695674"/>
     <use style="stroke:#000000;" x="223.730062" xlink:href="#m04cc0797b8" y="87.299323"/>
     <use style="stroke:#000000;" x="226.112038" xlink:href="#m04cc0797b8" y="85.602464"/>
     <use style="stroke:#000000;" x="236.433935" xlink:href="#m04cc0797b8" y="83.811127"/>
     <use style="stroke:#000000;" x="249.270141" xlink:href="#m04cc0797b8" y="79.421979"/>
     <use style="stroke:#000000;" x="249.402473" xlink:href="#m04cc0797b8" y="77.318284"/>
     <use style="stroke:#000000;" x="256.283738" xlink:href="#m04cc0797b8" y="77.318284"/>
     <use style="stroke:#000000;" x="257.07773" xlink:href="#m04cc0797b8" y="74.028588"/>
     <use style="stroke:#000000;" x="261.577018" xlink:href="#m04cc0797b8" y="70.390718"/>
     <use style="stroke:#000000;" x="270.310931" xlink:href="#m04cc0797b8" y="68.128005"/>
     <use style="stroke:#000000;" x="284.999785" xlink:href="#m04cc0797b8" y="57.468298"/>
     <use style="stroke:#000000;" x="290.425398" xlink:href="#m04cc0797b8" y="59.217652"/>
     <use style="stroke:#000000;" x="305.114251" xlink:href="#m04cc0797b8" y="59.486391"/>
     <use style="stroke:#000000;" x="328.404686" xlink:href="#m04cc0797b8" y="46.571233"/>
     <use style="stroke:#000000;" x="338.461919" xlink:href="#m04cc0797b8" y="40.874265"/>
     <use style="stroke:#000000;" x="349.974805" xlink:href="#m04cc0797b8" y="39.843871"/>
     <use style="stroke:#000000;" x="354.209429" xlink:href="#m04cc0797b8" y="34.534974"/>
     <use style="stroke:#000000;" x="194.352354" xlink:href="#m04cc0797b8" y="102.800598"/>
     <use style="stroke:#000000;" x="201.895279" xlink:href="#m04cc0797b8" y="98.082872"/>
     <use style="stroke:#000000;" x="216.584133" xlink:href="#m04cc0797b8" y="95.907225"/>
     <use style="stroke:#000000;" x="207.717888" xlink:href="#m04cc0797b8" y="95.907225"/>
     <use style="stroke:#000000;" x="213.011168" xlink:href="#m04cc0797b8" y="93.83775"/>
     <use style="stroke:#000000;" x="220.554093" xlink:href="#m04cc0797b8" y="91.864566"/>
     <use style="stroke:#000000;" x="223.730062" xlink:href="#m04cc0797b8" y="89.979108"/>
     <use style="stroke:#000000;" x="227.170694" xlink:href="#m04cc0797b8" y="91.864566"/>
     <use style="stroke:#000000;" x="187.338757" xlink:href="#m04cc0797b8" y="106.174888"/>
     <use style="stroke:#000000;" x="187.338757" xlink:href="#m04cc0797b8" y="108.678843"/>
     <use style="stroke:#000000;" x="187.338757" xlink:href="#m04cc0797b8" y="110.136575"/>
     <use style="stroke:#000000;" x="187.338757" xlink:href="#m04cc0797b8" y="105.90558"/>
     <use style="stroke:#000000;" x="187.338757" xlink:href="#m04cc0797b8" y="104.584108"/>
     <use style="stroke:#000000;" x="187.338757" xlink:href="#m04cc0797b8" y="107.827661"/>
     <use style="stroke:#000000;" x="187.338757" xlink:href="#m04cc0797b8" y="107.547688"/>
     <use style="stroke:#000000;" x="187.338757" xlink:href="#m04cc0797b8" y="107.547688"/>
     <use style="stroke:#000000;" x="187.338757" xlink:href="#m04cc0797b8" y="105.90558"/>
     <use style="stroke:#000000;" x="182.971801" xlink:href="#m04cc0797b8" y="112.265414"/>
     <use style="stroke:#000000;" x="183.104133" xlink:href="#m04cc0797b8" y="111.954674"/>
     <use style="stroke:#000000;" x="182.971801" xlink:href="#m04cc0797b8" y="112.265414"/>
     <use style="stroke:#000000;" x="182.971801" xlink:href="#m04cc0797b8" y="114.506771"/>
     <use style="stroke:#000000;" x="182.971801" xlink:href="#m04cc0797b8" y="110.733991"/>
     <use style="stroke:#000000;" x="182.971801" xlink:href="#m04cc0797b8" y="112.265414"/>
     <use style="stroke:#000000;" x="183.104133" xlink:href="#m04cc0797b8" y="111.339941"/>
     <use style="stroke:#000000;" x="178.207848" xlink:href="#m04cc0797b8" y="114.836857"/>
     <use style="stroke:#000000;" x="178.207848" xlink:href="#m04cc0797b8" y="116.183504"/>
     <use style="stroke:#000000;" x="178.075516" xlink:href="#m04cc0797b8" y="111.339941"/>
     <use style="stroke:#000000;" x="178.075516" xlink:href="#m04cc0797b8" y="117.222311"/>
     <use style="stroke:#000000;" x="178.075516" xlink:href="#m04cc0797b8" y="111.954674"/>
     <use style="stroke:#000000;" x="252.446109" xlink:href="#m04cc0797b8" y="90.349554"/>
     <use style="stroke:#000000;" x="261.444686" xlink:href="#m04cc0797b8" y="81.484265"/>
     <use style="stroke:#000000;" x="282.617809" xlink:href="#m04cc0797b8" y="75.444725"/>
     <use style="stroke:#000000;" x="290.028402" xlink:href="#m04cc0797b8" y="89.066905"/>
     <use style="stroke:#000000;" x="294.52769" xlink:href="#m04cc0797b8" y="76.909782"/>
     <use style="stroke:#000000;" x="294.792354" xlink:href="#m04cc0797b8" y="75.053793"/>
     <use style="stroke:#000000;" x="297.306663" xlink:href="#m04cc0797b8" y="93.435701"/>
     <use style="stroke:#000000;" x="301.144291" xlink:href="#m04cc0797b8" y="76.774484"/>
     <use style="stroke:#000000;" x="302.996939" xlink:href="#m04cc0797b8" y="85.106367"/>
     <use style="stroke:#000000;" x="303.526267" xlink:href="#m04cc0797b8" y="71.928978"/>
     <use style="stroke:#000000;" x="307.496228" xlink:href="#m04cc0797b8" y="78.427257"/>
     <use style="stroke:#000000;" x="307.760892" xlink:href="#m04cc0797b8" y="79.566005"/>
     <use style="stroke:#000000;" x="241.727216" xlink:href="#m04cc0797b8" y="86.104432"/>
     <use style="stroke:#000000;" x="254.034093" xlink:href="#m04cc0797b8" y="105.90558"/>
     <use style="stroke:#000000;" x="262.37101" xlink:href="#m04cc0797b8" y="101.814139"/>
     <use style="stroke:#000000;" x="262.900338" xlink:href="#m04cc0797b8" y="87.997542"/>
     <use style="stroke:#000000;" x="269.516939" xlink:href="#m04cc0797b8" y="91.290076"/>
     <use style="stroke:#000000;" x="273.619232" xlink:href="#m04cc0797b8" y="104.84513"/>
     <use style="stroke:#000000;" x="283.808797" xlink:href="#m04cc0797b8" y="76.909782"/>
     <use style="stroke:#000000;" x="288.440417" xlink:href="#m04cc0797b8" y="65.979909"/>
     <use style="stroke:#000000;" x="289.763738" xlink:href="#m04cc0797b8" y="79.710523"/>
     <use style="stroke:#000000;" x="300.085635" xlink:href="#m04cc0797b8" y="91.100296"/>
     <use style="stroke:#000000;" x="302.732275" xlink:href="#m04cc0797b8" y="76.505176"/>
     <use style="stroke:#000000;" x="304.717255" xlink:href="#m04cc0797b8" y="87.821906"/>
     <use style="stroke:#000000;" x="253.504765" xlink:href="#m04cc0797b8" y="106.445916"/>
     <use style="stroke:#000000;" x="271.237255" xlink:href="#m04cc0797b8" y="99.907489"/>
     <use style="stroke:#000000;" x="288.837414" xlink:href="#m04cc0797b8" y="76.909782"/>
     <use style="stroke:#000000;" x="305.511248" xlink:href="#m04cc0797b8" y="92.642859"/>
     <use style="stroke:#000000;" x="263.429667" xlink:href="#m04cc0797b8" y="94.243646"/>
     <use style="stroke:#000000;" x="264.223659" xlink:href="#m04cc0797b8" y="92.446943"/>
     <use style="stroke:#000000;" x="269.384607" xlink:href="#m04cc0797b8" y="87.821906"/>
     <use style="stroke:#000000;" x="272.560576" xlink:href="#m04cc0797b8" y="85.271089"/>
     <use style="stroke:#000000;" x="273.354568" xlink:href="#m04cc0797b8" y="85.602464"/>
     <use style="stroke:#000000;" x="274.016228" xlink:href="#m04cc0797b8" y="89.795091"/>
     <use style="stroke:#000000;" x="277.589192" xlink:href="#m04cc0797b8" y="80.884738"/>
     <use style="stroke:#000000;" x="280.632829" xlink:href="#m04cc0797b8" y="77.181679"/>
     <use style="stroke:#000000;" x="281.559153" xlink:href="#m04cc0797b8" y="79.855534"/>
     <use style="stroke:#000000;" x="282.220813" xlink:href="#m04cc0797b8" y="82.55427"/>
     <use style="stroke:#000000;" x="284.073461" xlink:href="#m04cc0797b8" y="76.237568"/>
     <use style="stroke:#000000;" x="301.541287" xlink:href="#m04cc0797b8" y="92.446943"/>
     <use style="stroke:#000000;" x="246.888165" xlink:href="#m04cc0797b8" y="104.84513"/>
     <use style="stroke:#000000;" x="248.740813" xlink:href="#m04cc0797b8" y="110.434231"/>
     <use style="stroke:#000000;" x="249.005477" xlink:href="#m04cc0797b8" y="105.637972"/>
     <use style="stroke:#000000;" x="253.901761" xlink:href="#m04cc0797b8" y="96.333518"/>
     <use style="stroke:#000000;" x="259.06271" xlink:href="#m04cc0797b8" y="100.850102"/>
     <use style="stroke:#000000;" x="261.312354" xlink:href="#m04cc0797b8" y="93.83775"/>
     <use style="stroke:#000000;" x="264.620655" xlink:href="#m04cc0797b8" y="93.83775"/>
     <use style="stroke:#000000;" x="215.657809" xlink:href="#m04cc0797b8" y="94.243646"/>
     <use style="stroke:#000000;" x="221.083421" xlink:href="#m04cc0797b8" y="96.119836"/>
     <use style="stroke:#000000;" x="226.112038" xlink:href="#m04cc0797b8" y="94.040213"/>
     <use style="stroke:#000000;" x="230.346663" xlink:href="#m04cc0797b8" y="93.83775"/>
     <use style="stroke:#000000;" x="231.140655" xlink:href="#m04cc0797b8" y="89.795091"/>
     <use style="stroke:#000000;" x="233.257967" xlink:href="#m04cc0797b8" y="90.349554"/>
     <use style="stroke:#000000;" x="233.390299" xlink:href="#m04cc0797b8" y="88.707446"/>
     <use style="stroke:#000000;" x="233.787295" xlink:href="#m04cc0797b8" y="91.290076"/>
     <use style="stroke:#000000;" x="235.507611" xlink:href="#m04cc0797b8" y="87.646996"/>
     <use style="stroke:#000000;" x="245.96184" xlink:href="#m04cc0797b8" y="100.850102"/>
     <use style="stroke:#000000;" x="249.534805" xlink:href="#m04cc0797b8" y="104.584108"/>
     <use style="stroke:#000000;" x="250.064133" xlink:href="#m04cc0797b8" y="105.107767"/>
     <use style="stroke:#000000;" x="259.459706" xlink:href="#m04cc0797b8" y="104.84513"/>
     <use style="stroke:#000000;" x="266.208639" xlink:href="#m04cc0797b8" y="105.372041"/>
     <use style="stroke:#000000;" x="228.494014" xlink:href="#m04cc0797b8" y="91.100296"/>
     <use style="stroke:#000000;" x="209.17354" xlink:href="#m04cc0797b8" y="100.612478"/>
     <use style="stroke:#000000;" x="212.746504" xlink:href="#m04cc0797b8" y="100.141186"/>
     <use style="stroke:#000000;" x="215.525477" xlink:href="#m04cc0797b8" y="120.123668"/>
     <use style="stroke:#000000;" x="216.187137" xlink:href="#m04cc0797b8" y="116.183504"/>
     <use style="stroke:#000000;" x="218.039785" xlink:href="#m04cc0797b8" y="105.90558"/>
     <use style="stroke:#000000;" x="219.627769" xlink:href="#m04cc0797b8" y="101.089065"/>
     <use style="stroke:#000000;" x="226.112038" xlink:href="#m04cc0797b8" y="88.707446"/>
     <use style="stroke:#000000;" x="227.832354" xlink:href="#m04cc0797b8" y="98.531721"/>
     <use style="stroke:#000000;" x="229.023342" xlink:href="#m04cc0797b8" y="105.107767"/>
     <use style="stroke:#000000;" x="230.346663" xlink:href="#m04cc0797b8" y="83.493404"/>
     <use style="stroke:#000000;" x="239.080576" xlink:href="#m04cc0797b8" y="84.77883"/>
     <use style="stroke:#000000;" x="220.686425" xlink:href="#m04cc0797b8" y="87.997542"/>
     <use style="stroke:#000000;" x="231.405319" xlink:href="#m04cc0797b8" y="86.273084"/>
     <use style="stroke:#000000;" x="238.021919" xlink:href="#m04cc0797b8" y="101.814139"/>
     <use style="stroke:#000000;" x="239.874568" xlink:href="#m04cc0797b8" y="118.648187"/>
     <use style="stroke:#000000;" x="249.005477" xlink:href="#m04cc0797b8" y="109.255938"/>
     <use style="stroke:#000000;" x="222.009746" xlink:href="#m04cc0797b8" y="99.214027"/>
     <use style="stroke:#000000;" x="227.832354" xlink:href="#m04cc0797b8" y="101.329382"/>
     <use style="stroke:#000000;" x="229.023342" xlink:href="#m04cc0797b8" y="105.372041"/>
     <use style="stroke:#000000;" x="231.537651" xlink:href="#m04cc0797b8" y="108.678843"/>
     <use style="stroke:#000000;" x="231.934647" xlink:href="#m04cc0797b8" y="108.678843"/>
     <use style="stroke:#000000;" x="247.417493" xlink:href="#m04cc0797b8" y="79.586064"/>
     <use style="stroke:#000000;" x="237.227927" xlink:href="#m04cc0797b8" y="67.481624"/>
     <use style="stroke:#000000;" x="243.97686" xlink:href="#m04cc0797b8" y="73.662233"/>
     <use style="stroke:#000000;" x="263.958995" xlink:href="#m04cc0797b8" y="78.584853"/>
     <use style="stroke:#000000;" x="243.844528" xlink:href="#m04cc0797b8" y="70.669368"/>
     <use style="stroke:#000000;" x="241.33022" xlink:href="#m04cc0797b8" y="65.644323"/>
     <use style="stroke:#000000;" x="240.139232" xlink:href="#m04cc0797b8" y="63.103262"/>
     <use style="stroke:#000000;" x="242.785872" xlink:href="#m04cc0797b8" y="73.520626"/>
     <use style="stroke:#000000;" x="263.03267" xlink:href="#m04cc0797b8" y="82.398824"/>
     <use style="stroke:#000000;" x="258.40105" xlink:href="#m04cc0797b8" y="67.512125"/>
     <use style="stroke:#000000;" x="263.826663" xlink:href="#m04cc0797b8" y="69.023046"/>
     <use style="stroke:#000000;" x="261.70935" xlink:href="#m04cc0797b8" y="61.598707"/>
     <use style="stroke:#000000;" x="284.602789" xlink:href="#m04cc0797b8" y="69.111129"/>
     <use style="stroke:#000000;" x="279.971168" xlink:href="#m04cc0797b8" y="74.93191"/>
     <use style="stroke:#000000;" x="285.793777" xlink:href="#m04cc0797b8" y="70.801285"/>
     <use style="stroke:#000000;" x="266.605635" xlink:href="#m04cc0797b8" y="70.035452"/>
     <use style="stroke:#000000;" x="250.461129" xlink:href="#m04cc0797b8" y="76.102665"/>
     <use style="stroke:#000000;" x="246.491168" xlink:href="#m04cc0797b8" y="76.175723"/>
     <use style="stroke:#000000;" x="254.034093" xlink:href="#m04cc0797b8" y="75.627612"/>
     <use style="stroke:#000000;" x="255.09275" xlink:href="#m04cc0797b8" y="76.074221"/>
     <use style="stroke:#000000;" x="249.667137" xlink:href="#m04cc0797b8" y="67.548951"/>
     <use style="stroke:#000000;" x="249.799469" xlink:href="#m04cc0797b8" y="69.080471"/>
     <use style="stroke:#000000;" x="243.97686" xlink:href="#m04cc0797b8" y="68.262516"/>
     <use style="stroke:#000000;" x="275.47188" xlink:href="#m04cc0797b8" y="64.266613"/>
     <use style="stroke:#000000;" x="261.841682" xlink:href="#m04cc0797b8" y="74.555909"/>
     <use style="stroke:#000000;" x="283.941129" xlink:href="#m04cc0797b8" y="73.590869"/>
     <use style="stroke:#000000;" x="319.141445" xlink:href="#m04cc0797b8" y="66.61799"/>
     <use style="stroke:#000000;" x="303.393935" xlink:href="#m04cc0797b8" y="65.499208"/>
     <use style="stroke:#000000;" x="352.224449" xlink:href="#m04cc0797b8" y="63.742203"/>
     <use style="stroke:#000000;" x="318.347453" xlink:href="#m04cc0797b8" y="62.705945"/>
     <use style="stroke:#000000;" x="302.732275" xlink:href="#m04cc0797b8" y="72.929505"/>
     <use style="stroke:#000000;" x="318.876781" xlink:href="#m04cc0797b8" y="71.918616"/>
     <use style="stroke:#000000;" x="345.74018" xlink:href="#m04cc0797b8" y="66.044577"/>
     <use style="stroke:#000000;" x="315.568481" xlink:href="#m04cc0797b8" y="69.353566"/>
     <use style="stroke:#000000;" x="338.461919" xlink:href="#m04cc0797b8" y="60.673785"/>
     <use style="stroke:#000000;" x="344.019864" xlink:href="#m04cc0797b8" y="65.023791"/>
     <use style="stroke:#000000;" x="281.162157" xlink:href="#m04cc0797b8" y="82.592059"/>
     <use style="stroke:#000000;" x="279.44184" xlink:href="#m04cc0797b8" y="78.093879"/>
     <use style="stroke:#000000;" x="296.115674" xlink:href="#m04cc0797b8" y="59.31626"/>
     <use style="stroke:#000000;" x="275.47188" xlink:href="#m04cc0797b8" y="57.037169"/>
     <use style="stroke:#000000;" x="289.366742" xlink:href="#m04cc0797b8" y="64.082742"/>
     <use style="stroke:#000000;" x="278.647848" xlink:href="#m04cc0797b8" y="58.635347"/>
     <use style="stroke:#000000;" x="305.775912" xlink:href="#m04cc0797b8" y="82.437401"/>
     <use style="stroke:#000000;" x="317.288797" xlink:href="#m04cc0797b8" y="64.97201"/>
     <use style="stroke:#000000;" x="312.657176" xlink:href="#m04cc0797b8" y="55.452392"/>
     <use style="stroke:#000000;" x="325.228718" xlink:href="#m04cc0797b8" y="52.866676"/>
     <use style="stroke:#000000;" x="332.639311" xlink:href="#m04cc0797b8" y="47.242107"/>
     <use style="stroke:#000000;" x="300.482631" xlink:href="#m04cc0797b8" y="58.800905"/>
     <use style="stroke:#000000;" x="294.395358" xlink:href="#m04cc0797b8" y="53.473495"/>
     <use style="stroke:#000000;" x="274.016228" xlink:href="#m04cc0797b8" y="64.015995"/>
     <use style="stroke:#000000;" x="268.325951" xlink:href="#m04cc0797b8" y="63.696825"/>
     <use style="stroke:#000000;" x="295.454014" xlink:href="#m04cc0797b8" y="66.604489"/>
     <use style="stroke:#000000;" x="299.688639" xlink:href="#m04cc0797b8" y="53.361421"/>
     <use style="stroke:#000000;" x="330.389667" xlink:href="#m04cc0797b8" y="66.27913"/>
     <use style="stroke:#000000;" x="315.700813" xlink:href="#m04cc0797b8" y="65.879801"/>
     <use style="stroke:#000000;" x="305.378916" xlink:href="#m04cc0797b8" y="52.842466"/>
     <use style="stroke:#000000;" x="316.494805" xlink:href="#m04cc0797b8" y="61.374879"/>
     <use style="stroke:#000000;" x="328.00769" xlink:href="#m04cc0797b8" y="60.384773"/>
     <use style="stroke:#000000;" x="308.29022" xlink:href="#m04cc0797b8" y="75.093244"/>
     <use style="stroke:#000000;" x="315.965477" xlink:href="#m04cc0797b8" y="60.523507"/>
     <use style="stroke:#000000;" x="319.009113" xlink:href="#m04cc0797b8" y="70.979072"/>
     <use style="stroke:#000000;" x="313.980497" xlink:href="#m04cc0797b8" y="59.919946"/>
     <use style="stroke:#000000;" x="311.466188" xlink:href="#m04cc0797b8" y="63.090248"/>
     <use style="stroke:#000000;" x="333.962631" xlink:href="#m04cc0797b8" y="59.0582"/>
     <use style="stroke:#000000;" x="77.503184" xlink:href="#m04cc0797b8" y="104.689889"/>
     <use style="stroke:#000000;" x="84.649113" xlink:href="#m04cc0797b8" y="117.419071"/>
     <use style="stroke:#000000;" x="88.089746" xlink:href="#m04cc0797b8" y="112.612079"/>
    </g>
   </g>
   <g id="patch_3">
    <path d="M 49.978125 239.758125 
L 49.978125 22.318125 
" style="fill:none;stroke:#000000;stroke-linecap:square;stroke-linejoin:miter;stroke-width:0.8;"/>
   </g>
   <g id="patch_4">
    <path d="M 384.778125 239.758125 
L 384.778125 22.318125 
" style="fill:none;stroke:#000000;stroke-linecap:square;stroke-linejoin:miter;stroke-width:0.8;"/>
   </g>
   <g id="patch_5">
    <path d="M 49.978125 239.758125 
L 384.778125 239.758125 
" style="fill:none;stroke:#000000;stroke-linecap:square;stroke-linejoin:miter;stroke-width:0.8;"/>
   </g>
   <g id="patch_6">
    <path d="M 49.978125 22.318125 
L 384.778125 22.318125 
" style="fill:none;stroke:#000000;stroke-linecap:square;stroke-linejoin:miter;stroke-width:0.8;"/>
   </g>
   <g id="text_11">
    <!-- 2 OH &lt;=&gt; H2O + O -->
    <defs>
     <path d="M 39.40625 66.21875 
Q 28.65625 66.21875 22.328125 58.203125 
Q 16.015625 50.203125 16.015625 36.375 
Q 16.015625 22.609375 22.328125 14.59375 
Q 28.65625 6.59375 39.40625 6.59375 
Q 50.140625 6.59375 56.421875 14.59375 
Q 62.703125 22.609375 62.703125 36.375 
Q 62.703125 50.203125 56.421875 58.203125 
Q 50.140625 66.21875 39.40625 66.21875 
z
M 39.40625 74.21875 
Q 54.734375 74.21875 63.90625 63.9375 
Q 73.09375 53.65625 73.09375 36.375 
Q 73.09375 19.140625 63.90625 8.859375 
Q 54.734375 -1.421875 39.40625 -1.421875 
Q 24.03125 -1.421875 14.8125 8.828125 
Q 5.609375 19.09375 5.609375 36.375 
Q 5.609375 53.65625 14.8125 63.9375 
Q 24.03125 74.21875 39.40625 74.21875 
z
" id="DejaVuSans-79"/>
     <path d="M 9.8125 72.90625 
L 19.671875 72.90625 
L 19.671875 43.015625 
L 55.515625 43.015625 
L 55.515625 72.90625 
L 65.375 72.90625 
L 65.375 0 
L 55.515625 0 
L 55.515625 34.71875 
L 19.671875 34.71875 
L 19.671875 0 
L 9.8125 0 
z
" id="DejaVuSans-72"/>
     <path d="M 73.1875 49.21875 
L 22.796875 31.296875 
L 73.1875 13.484375 
L 73.1875 4.59375 
L 10.59375 27.296875 
L 10.59375 35.40625 
L 73.1875 58.109375 
z
" id="DejaVuSans-60"/>
     <path d="M 10.59375 45.40625 
L 73.1875 45.40625 
L 73.1875 37.203125 
L 10.59375 37.203125 
z
M 10.59375 25.484375 
L 73.1875 25.484375 
L 73.1875 17.1875 
L 10.59375 17.1875 
z
" id="DejaVuSans-61"/>
     <path d="M 10.59375 49.21875 
L 10.59375 58.109375 
L 73.1875 35.40625 
L 73.1875 27.296875 
L 10.59375 4.59375 
L 10.59375 13.484375 
L 60.890625 31.296875 
z
" id="DejaVuSans-62"/>
     <path d="M 46 62.703125 
L 46 35.5 
L 73.1875 35.5 
L 73.1875 27.203125 
L 46 27.203125 
L 46 0 
L 37.796875 0 
L 37.796875 27.203125 
L 10.59375 27.203125 
L 10.59375 35.5 
L 37.796875 35.5 
L 37.796875 62.703125 
z
" id="DejaVuSans-43"/>
    </defs>
    <g transform="translate(156.90375 16.318125)scale(0.12 -0.12)">
     <use xlink:href="#DejaVuSans-50"/>
     <use x="63.623047" xlink:href="#DejaVuSans-32"/>
     <use x="95.410156" xlink:href="#DejaVuSans-79"/>
     <use x="174.121094" xlink:href="#DejaVuSans-72"/>
     <use x="249.316406" xlink:href="#DejaVuSans-32"/>
     <use x="281.103516" xlink:href="#DejaVuSans-60"/>
     <use x="364.892578" xlink:href="#DejaVuSans-61"/>
     <use x="448.681641" xlink:href="#DejaVuSans-62"/>
     <use x="532.470703" xlink:href="#DejaVuSans-32"/>
     <use x="564.257812" xlink:href="#DejaVuSans-72"/>
     <use x="639.453125" xlink:href="#DejaVuSans-50"/>
     <use x="703.076172" xlink:href="#DejaVuSans-79"/>
     <use x="781.787109" xlink:href="#DejaVuSans-32"/>
     <use x="813.574219" xlink:href="#DejaVuSans-43"/>
     <use x="897.363281" xlink:href="#DejaVuSans-32"/>
     <use x="929.150391" xlink:href="#DejaVuSans-79"/>
    </g>
   </g>
  </g>
 </g>
 <defs>
  <clipPath id="p05dc1c57be">
   <rect height="217.44" width="334.8" x="49.978125" y="22.318125"/>
  </clipPath>
 </defs>
</svg>
