<?xml version="1.0" encoding="utf-8" standalone="no"?>
<!DOCTYPE svg PUBLIC "-//W3C//DTD SVG 1.1//EN"
  "http://www.w3.org/Graphics/SVG/1.1/DTD/svg11.dtd">
<!-- Created with matplotlib (https://matplotlib.org/) -->
<svg height="277.314375pt" version="1.1" viewBox="0 0 395.478125 277.314375" width="395.478125pt" xmlns="http://www.w3.org/2000/svg" xmlns:xlink="http://www.w3.org/1999/xlink">
 <defs>
  <style type="text/css">
*{stroke-linecap:butt;stroke-linejoin:round;}
  </style>
 </defs>
 <g id="figure_1">
  <g id="patch_1">
   <path d="M 0 277.314375 
L 395.478125 277.314375 
L 395.478125 0 
L 0 0 
z
" style="fill:#ffffff;"/>
  </g>
  <g id="axes_1">
   <g id="patch_2">
    <path d="M 49.978125 239.758125 
L 384.778125 239.758125 
L 384.778125 22.318125 
L 49.978125 22.318125 
z
" style="fill:#ffffff;"/>
   </g>
   <g id="matplotlib.axis_1">
    <g id="xtick_1">
     <g id="line2d_1">
      <defs>
       <path d="M 0 0 
L 0 3.5 
" id="m36728c0d5e" style="stroke:#000000;stroke-width:0.8;"/>
      </defs>
      <g>
       <use style="stroke:#000000;stroke-width:0.8;" x="104.895912" xlink:href="#m36728c0d5e" y="239.758125"/>
      </g>
     </g>
     <g id="text_1">
      <!-- 500 -->
      <defs>
       <path d="M 10.796875 72.90625 
L 49.515625 72.90625 
L 49.515625 64.59375 
L 19.828125 64.59375 
L 19.828125 46.734375 
Q 21.96875 47.46875 24.109375 47.828125 
Q 26.265625 48.1875 28.421875 48.1875 
Q 40.625 48.1875 47.75 41.5 
Q 54.890625 34.8125 54.890625 23.390625 
Q 54.890625 11.625 47.5625 5.09375 
Q 40.234375 -1.421875 26.90625 -1.421875 
Q 22.3125 -1.421875 17.546875 -0.640625 
Q 12.796875 0.140625 7.71875 1.703125 
L 7.71875 11.625 
Q 12.109375 9.234375 16.796875 8.0625 
Q 21.484375 6.890625 26.703125 6.890625 
Q 35.15625 6.890625 40.078125 11.328125 
Q 45.015625 15.765625 45.015625 23.390625 
Q 45.015625 31 40.078125 35.4375 
Q 35.15625 39.890625 26.703125 39.890625 
Q 22.75 39.890625 18.8125 39.015625 
Q 14.890625 38.140625 10.796875 36.28125 
z
" id="DejaVuSans-53"/>
       <path d="M 31.78125 66.40625 
Q 24.171875 66.40625 20.328125 58.90625 
Q 16.5 51.421875 16.5 36.375 
Q 16.5 21.390625 20.328125 13.890625 
Q 24.171875 6.390625 31.78125 6.390625 
Q 39.453125 6.390625 43.28125 13.890625 
Q 47.125 21.390625 47.125 36.375 
Q 47.125 51.421875 43.28125 58.90625 
Q 39.453125 66.40625 31.78125 66.40625 
z
M 31.78125 74.21875 
Q 44.046875 74.21875 50.515625 64.515625 
Q 56.984375 54.828125 56.984375 36.375 
Q 56.984375 17.96875 50.515625 8.265625 
Q 44.046875 -1.421875 31.78125 -1.421875 
Q 19.53125 -1.421875 13.0625 8.265625 
Q 6.59375 17.96875 6.59375 36.375 
Q 6.59375 54.828125 13.0625 64.515625 
Q 19.53125 74.21875 31.78125 74.21875 
z
" id="DejaVuSans-48"/>
      </defs>
      <g transform="translate(95.352162 254.356562)scale(0.1 -0.1)">
       <use xlink:href="#DejaVuSans-53"/>
       <use x="63.623047" xlink:href="#DejaVuSans-48"/>
       <use x="127.246094" xlink:href="#DejaVuSans-48"/>
      </g>
     </g>
    </g>
    <g id="xtick_2">
     <g id="line2d_2">
      <g>
       <use style="stroke:#000000;stroke-width:0.8;" x="171.061919" xlink:href="#m36728c0d5e" y="239.758125"/>
      </g>
     </g>
     <g id="text_2">
      <!-- 1000 -->
      <defs>
       <path d="M 12.40625 8.296875 
L 28.515625 8.296875 
L 28.515625 63.921875 
L 10.984375 60.40625 
L 10.984375 69.390625 
L 28.421875 72.90625 
L 38.28125 72.90625 
L 38.28125 8.296875 
L 54.390625 8.296875 
L 54.390625 0 
L 12.40625 0 
z
" id="DejaVuSans-49"/>
      </defs>
      <g transform="translate(158.336919 254.356562)scale(0.1 -0.1)">
       <use xlink:href="#DejaVuSans-49"/>
       <use x="63.623047" xlink:href="#DejaVuSans-48"/>
       <use x="127.246094" xlink:href="#DejaVuSans-48"/>
       <use x="190.869141" xlink:href="#DejaVuSans-48"/>
      </g>
     </g>
    </g>
    <g id="xtick_3">
     <g id="line2d_3">
      <g>
       <use style="stroke:#000000;stroke-width:0.8;" x="237.227927" xlink:href="#m36728c0d5e" y="239.758125"/>
      </g>
     </g>
     <g id="text_3">
      <!-- 1500 -->
      <g transform="translate(224.502927 254.356562)scale(0.1 -0.1)">
       <use xlink:href="#DejaVuSans-49"/>
       <use x="63.623047" xlink:href="#DejaVuSans-53"/>
       <use x="127.246094" xlink:href="#DejaVuSans-48"/>
       <use x="190.869141" xlink:href="#DejaVuSans-48"/>
      </g>
     </g>
    </g>
    <g id="xtick_4">
     <g id="line2d_4">
      <g>
       <use style="stroke:#000000;stroke-width:0.8;" x="303.393935" xlink:href="#m36728c0d5e" y="239.758125"/>
      </g>
     </g>
     <g id="text_4">
      <!-- 2000 -->
      <defs>
       <path d="M 19.1875 8.296875 
L 53.609375 8.296875 
L 53.609375 0 
L 7.328125 0 
L 7.328125 8.296875 
Q 12.9375 14.109375 22.625 23.890625 
Q 32.328125 33.6875 34.8125 36.53125 
Q 39.546875 41.84375 41.421875 45.53125 
Q 43.3125 49.21875 43.3125 52.78125 
Q 43.3125 58.59375 39.234375 62.25 
Q 35.15625 65.921875 28.609375 65.921875 
Q 23.96875 65.921875 18.8125 64.3125 
Q 13.671875 62.703125 7.8125 59.421875 
L 7.8125 69.390625 
Q 13.765625 71.78125 18.9375 73 
Q 24.125 74.21875 28.421875 74.21875 
Q 39.75 74.21875 46.484375 68.546875 
Q 53.21875 62.890625 53.21875 53.421875 
Q 53.21875 48.921875 51.53125 44.890625 
Q 49.859375 40.875 45.40625 35.40625 
Q 44.1875 33.984375 37.640625 27.21875 
Q 31.109375 20.453125 19.1875 8.296875 
z
" id="DejaVuSans-50"/>
      </defs>
      <g transform="translate(290.668935 254.356562)scale(0.1 -0.1)">
       <use xlink:href="#DejaVuSans-50"/>
       <use x="63.623047" xlink:href="#DejaVuSans-48"/>
       <use x="127.246094" xlink:href="#DejaVuSans-48"/>
       <use x="190.869141" xlink:href="#DejaVuSans-48"/>
      </g>
     </g>
    </g>
    <g id="xtick_5">
     <g id="line2d_5">
      <g>
       <use style="stroke:#000000;stroke-width:0.8;" x="369.559943" xlink:href="#m36728c0d5e" y="239.758125"/>
      </g>
     </g>
     <g id="text_5">
      <!-- 2500 -->
      <g transform="translate(356.834943 254.356562)scale(0.1 -0.1)">
       <use xlink:href="#DejaVuSans-50"/>
       <use x="63.623047" xlink:href="#DejaVuSans-53"/>
       <use x="127.246094" xlink:href="#DejaVuSans-48"/>
       <use x="190.869141" xlink:href="#DejaVuSans-48"/>
      </g>
     </g>
    </g>
    <g id="text_6">
     <!-- Temperature (K) -->
     <defs>
      <path d="M -0.296875 72.90625 
L 61.375 72.90625 
L 61.375 64.59375 
L 35.5 64.59375 
L 35.5 0 
L 25.59375 0 
L 25.59375 64.59375 
L -0.296875 64.59375 
z
" id="DejaVuSans-84"/>
      <path d="M 56.203125 29.59375 
L 56.203125 25.203125 
L 14.890625 25.203125 
Q 15.484375 15.921875 20.484375 11.0625 
Q 25.484375 6.203125 34.421875 6.203125 
Q 39.59375 6.203125 44.453125 7.46875 
Q 49.3125 8.734375 54.109375 11.28125 
L 54.109375 2.78125 
Q 49.265625 0.734375 44.1875 -0.34375 
Q 39.109375 -1.421875 33.890625 -1.421875 
Q 20.796875 -1.421875 13.15625 6.1875 
Q 5.515625 13.8125 5.515625 26.8125 
Q 5.515625 40.234375 12.765625 48.109375 
Q 20.015625 56 32.328125 56 
Q 43.359375 56 49.78125 48.890625 
Q 56.203125 41.796875 56.203125 29.59375 
z
M 47.21875 32.234375 
Q 47.125 39.59375 43.09375 43.984375 
Q 39.0625 48.390625 32.421875 48.390625 
Q 24.90625 48.390625 20.390625 44.140625 
Q 15.875 39.890625 15.1875 32.171875 
z
" id="DejaVuSans-101"/>
      <path d="M 52 44.1875 
Q 55.375 50.25 60.0625 53.125 
Q 64.75 56 71.09375 56 
Q 79.640625 56 84.28125 50.015625 
Q 88.921875 44.046875 88.921875 33.015625 
L 88.921875 0 
L 79.890625 0 
L 79.890625 32.71875 
Q 79.890625 40.578125 77.09375 44.375 
Q 74.3125 48.1875 68.609375 48.1875 
Q 61.625 48.1875 57.5625 43.546875 
Q 53.515625 38.921875 53.515625 30.90625 
L 53.515625 0 
L 44.484375 0 
L 44.484375 32.71875 
Q 44.484375 40.625 41.703125 44.40625 
Q 38.921875 48.1875 33.109375 48.1875 
Q 26.21875 48.1875 22.15625 43.53125 
Q 18.109375 38.875 18.109375 30.90625 
L 18.109375 0 
L 9.078125 0 
L 9.078125 54.6875 
L 18.109375 54.6875 
L 18.109375 46.1875 
Q 21.1875 51.21875 25.484375 53.609375 
Q 29.78125 56 35.6875 56 
Q 41.65625 56 45.828125 52.96875 
Q 50 49.953125 52 44.1875 
z
" id="DejaVuSans-109"/>
      <path d="M 18.109375 8.203125 
L 18.109375 -20.796875 
L 9.078125 -20.796875 
L 9.078125 54.6875 
L 18.109375 54.6875 
L 18.109375 46.390625 
Q 20.953125 51.265625 25.265625 53.625 
Q 29.59375 56 35.59375 56 
Q 45.5625 56 51.78125 48.09375 
Q 58.015625 40.1875 58.015625 27.296875 
Q 58.015625 14.40625 51.78125 6.484375 
Q 45.5625 -1.421875 35.59375 -1.421875 
Q 29.59375 -1.421875 25.265625 0.953125 
Q 20.953125 3.328125 18.109375 8.203125 
z
M 48.6875 27.296875 
Q 48.6875 37.203125 44.609375 42.84375 
Q 40.53125 48.484375 33.40625 48.484375 
Q 26.265625 48.484375 22.1875 42.84375 
Q 18.109375 37.203125 18.109375 27.296875 
Q 18.109375 17.390625 22.1875 11.75 
Q 26.265625 6.109375 33.40625 6.109375 
Q 40.53125 6.109375 44.609375 11.75 
Q 48.6875 17.390625 48.6875 27.296875 
z
" id="DejaVuSans-112"/>
      <path d="M 41.109375 46.296875 
Q 39.59375 47.171875 37.8125 47.578125 
Q 36.03125 48 33.890625 48 
Q 26.265625 48 22.1875 43.046875 
Q 18.109375 38.09375 18.109375 28.8125 
L 18.109375 0 
L 9.078125 0 
L 9.078125 54.6875 
L 18.109375 54.6875 
L 18.109375 46.1875 
Q 20.953125 51.171875 25.484375 53.578125 
Q 30.03125 56 36.53125 56 
Q 37.453125 56 38.578125 55.875 
Q 39.703125 55.765625 41.0625 55.515625 
z
" id="DejaVuSans-114"/>
      <path d="M 34.28125 27.484375 
Q 23.390625 27.484375 19.1875 25 
Q 14.984375 22.515625 14.984375 16.5 
Q 14.984375 11.71875 18.140625 8.90625 
Q 21.296875 6.109375 26.703125 6.109375 
Q 34.1875 6.109375 38.703125 11.40625 
Q 43.21875 16.703125 43.21875 25.484375 
L 43.21875 27.484375 
z
M 52.203125 31.203125 
L 52.203125 0 
L 43.21875 0 
L 43.21875 8.296875 
Q 40.140625 3.328125 35.546875 0.953125 
Q 30.953125 -1.421875 24.3125 -1.421875 
Q 15.921875 -1.421875 10.953125 3.296875 
Q 6 8.015625 6 15.921875 
Q 6 25.140625 12.171875 29.828125 
Q 18.359375 34.515625 30.609375 34.515625 
L 43.21875 34.515625 
L 43.21875 35.40625 
Q 43.21875 41.609375 39.140625 45 
Q 35.0625 48.390625 27.6875 48.390625 
Q 23 48.390625 18.546875 47.265625 
Q 14.109375 46.140625 10.015625 43.890625 
L 10.015625 52.203125 
Q 14.9375 54.109375 19.578125 55.046875 
Q 24.21875 56 28.609375 56 
Q 40.484375 56 46.34375 49.84375 
Q 52.203125 43.703125 52.203125 31.203125 
z
" id="DejaVuSans-97"/>
      <path d="M 18.3125 70.21875 
L 18.3125 54.6875 
L 36.8125 54.6875 
L 36.8125 47.703125 
L 18.3125 47.703125 
L 18.3125 18.015625 
Q 18.3125 11.328125 20.140625 9.421875 
Q 21.96875 7.515625 27.59375 7.515625 
L 36.8125 7.515625 
L 36.8125 0 
L 27.59375 0 
Q 17.1875 0 13.234375 3.875 
Q 9.28125 7.765625 9.28125 18.015625 
L 9.28125 47.703125 
L 2.6875 47.703125 
L 2.6875 54.6875 
L 9.28125 54.6875 
L 9.28125 70.21875 
z
" id="DejaVuSans-116"/>
      <path d="M 8.5 21.578125 
L 8.5 54.6875 
L 17.484375 54.6875 
L 17.484375 21.921875 
Q 17.484375 14.15625 20.5 10.265625 
Q 23.53125 6.390625 29.59375 6.390625 
Q 36.859375 6.390625 41.078125 11.03125 
Q 45.3125 15.671875 45.3125 23.6875 
L 45.3125 54.6875 
L 54.296875 54.6875 
L 54.296875 0 
L 45.3125 0 
L 45.3125 8.40625 
Q 42.046875 3.421875 37.71875 1 
Q 33.40625 -1.421875 27.6875 -1.421875 
Q 18.265625 -1.421875 13.375 4.4375 
Q 8.5 10.296875 8.5 21.578125 
z
M 31.109375 56 
z
" id="DejaVuSans-117"/>
      <path id="DejaVuSans-32"/>
      <path d="M 31 75.875 
Q 24.46875 64.65625 21.28125 53.65625 
Q 18.109375 42.671875 18.109375 31.390625 
Q 18.109375 20.125 21.3125 9.0625 
Q 24.515625 -2 31 -13.1875 
L 23.1875 -13.1875 
Q 15.875 -1.703125 12.234375 9.375 
Q 8.59375 20.453125 8.59375 31.390625 
Q 8.59375 42.28125 12.203125 53.3125 
Q 15.828125 64.359375 23.1875 75.875 
z
" id="DejaVuSans-40"/>
      <path d="M 9.8125 72.90625 
L 19.671875 72.90625 
L 19.671875 42.09375 
L 52.390625 72.90625 
L 65.09375 72.90625 
L 28.90625 38.921875 
L 67.671875 0 
L 54.6875 0 
L 19.671875 35.109375 
L 19.671875 0 
L 9.8125 0 
z
" id="DejaVuSans-75"/>
      <path d="M 8.015625 75.875 
L 15.828125 75.875 
Q 23.140625 64.359375 26.78125 53.3125 
Q 30.421875 42.28125 30.421875 31.390625 
Q 30.421875 20.453125 26.78125 9.375 
Q 23.140625 -1.703125 15.828125 -13.1875 
L 8.015625 -13.1875 
Q 14.5 -2 17.703125 9.0625 
Q 20.90625 20.125 20.90625 31.390625 
Q 20.90625 42.671875 17.703125 53.65625 
Q 14.5 64.65625 8.015625 75.875 
z
" id="DejaVuSans-41"/>
     </defs>
     <g transform="translate(175.991406 268.034687)scale(0.1 -0.1)">
      <use xlink:href="#DejaVuSans-84"/>
      <use x="60.818359" xlink:href="#DejaVuSans-101"/>
      <use x="122.341797" xlink:href="#DejaVuSans-109"/>
      <use x="219.753906" xlink:href="#DejaVuSans-112"/>
      <use x="283.230469" xlink:href="#DejaVuSans-101"/>
      <use x="344.753906" xlink:href="#DejaVuSans-114"/>
      <use x="385.867188" xlink:href="#DejaVuSans-97"/>
      <use x="447.146484" xlink:href="#DejaVuSans-116"/>
      <use x="486.355469" xlink:href="#DejaVuSans-117"/>
      <use x="549.734375" xlink:href="#DejaVuSans-114"/>
      <use x="590.816406" xlink:href="#DejaVuSans-101"/>
      <use x="652.339844" xlink:href="#DejaVuSans-32"/>
      <use x="684.126953" xlink:href="#DejaVuSans-40"/>
      <use x="723.140625" xlink:href="#DejaVuSans-75"/>
      <use x="788.716797" xlink:href="#DejaVuSans-41"/>
     </g>
    </g>
   </g>
   <g id="matplotlib.axis_2">
    <g id="ytick_1">
     <g id="line2d_6">
      <defs>
       <path d="M 0 0 
L -3.5 0 
" id="m7c98bdaac8" style="stroke:#000000;stroke-width:0.8;"/>
      </defs>
      <g>
       <use style="stroke:#000000;stroke-width:0.8;" x="49.978125" xlink:href="#m7c98bdaac8" y="213.903527"/>
      </g>
     </g>
     <g id="text_7">
      <!-- $\mathdefault{10^{13}}$ -->
      <defs>
       <path d="M 40.578125 39.3125 
Q 47.65625 37.796875 51.625 33 
Q 55.609375 28.21875 55.609375 21.1875 
Q 55.609375 10.40625 48.1875 4.484375 
Q 40.765625 -1.421875 27.09375 -1.421875 
Q 22.515625 -1.421875 17.65625 -0.515625 
Q 12.796875 0.390625 7.625 2.203125 
L 7.625 11.71875 
Q 11.71875 9.328125 16.59375 8.109375 
Q 21.484375 6.890625 26.8125 6.890625 
Q 36.078125 6.890625 40.9375 10.546875 
Q 45.796875 14.203125 45.796875 21.1875 
Q 45.796875 27.640625 41.28125 31.265625 
Q 36.765625 34.90625 28.71875 34.90625 
L 20.21875 34.90625 
L 20.21875 43.015625 
L 29.109375 43.015625 
Q 36.375 43.015625 40.234375 45.921875 
Q 44.09375 48.828125 44.09375 54.296875 
Q 44.09375 59.90625 40.109375 62.90625 
Q 36.140625 65.921875 28.71875 65.921875 
Q 24.65625 65.921875 20.015625 65.03125 
Q 15.375 64.15625 9.8125 62.3125 
L 9.8125 71.09375 
Q 15.4375 72.65625 20.34375 73.4375 
Q 25.25 74.21875 29.59375 74.21875 
Q 40.828125 74.21875 47.359375 69.109375 
Q 53.90625 64.015625 53.90625 55.328125 
Q 53.90625 49.265625 50.4375 45.09375 
Q 46.96875 40.921875 40.578125 39.3125 
z
" id="DejaVuSans-51"/>
      </defs>
      <g transform="translate(20.878125 217.702745)scale(0.1 -0.1)">
       <use transform="translate(0 0.765625)" xlink:href="#DejaVuSans-49"/>
       <use transform="translate(63.623047 0.765625)" xlink:href="#DejaVuSans-48"/>
       <use transform="translate(128.203125 39.046875)scale(0.7)" xlink:href="#DejaVuSans-49"/>
       <use transform="translate(172.739258 39.046875)scale(0.7)" xlink:href="#DejaVuSans-51"/>
      </g>
     </g>
    </g>
    <g id="ytick_2">
     <g id="line2d_7">
      <g>
       <use style="stroke:#000000;stroke-width:0.8;" x="49.978125" xlink:href="#m7c98bdaac8" y="52.722213"/>
      </g>
     </g>
     <g id="text_8">
      <!-- $\mathdefault{10^{14}}$ -->
      <defs>
       <path d="M 37.796875 64.3125 
L 12.890625 25.390625 
L 37.796875 25.390625 
z
M 35.203125 72.90625 
L 47.609375 72.90625 
L 47.609375 25.390625 
L 58.015625 25.390625 
L 58.015625 17.1875 
L 47.609375 17.1875 
L 47.609375 0 
L 37.796875 0 
L 37.796875 17.1875 
L 4.890625 17.1875 
L 4.890625 26.703125 
z
" id="DejaVuSans-52"/>
      </defs>
      <g transform="translate(20.878125 56.521432)scale(0.1 -0.1)">
       <use transform="translate(0 0.684375)" xlink:href="#DejaVuSans-49"/>
       <use transform="translate(63.623047 0.684375)" xlink:href="#DejaVuSans-48"/>
       <use transform="translate(128.203125 38.965625)scale(0.7)" xlink:href="#DejaVuSans-49"/>
       <use transform="translate(172.739258 38.965625)scale(0.7)" xlink:href="#DejaVuSans-52"/>
      </g>
     </g>
    </g>
    <g id="ytick_3">
     <g id="line2d_8">
      <defs>
       <path d="M 0 0 
L -2 0 
" id="m25af3fa1fd" style="stroke:#000000;stroke-width:0.6;"/>
      </defs>
      <g>
       <use style="stroke:#000000;stroke-width:0.6;" x="49.978125" xlink:href="#m25af3fa1fd" y="238.870828"/>
      </g>
     </g>
    </g>
    <g id="ytick_4">
     <g id="line2d_9">
      <g>
       <use style="stroke:#000000;stroke-width:0.6;" x="49.978125" xlink:href="#m25af3fa1fd" y="229.52361"/>
      </g>
     </g>
    </g>
    <g id="ytick_5">
     <g id="line2d_10">
      <g>
       <use style="stroke:#000000;stroke-width:0.6;" x="49.978125" xlink:href="#m25af3fa1fd" y="221.278779"/>
      </g>
     </g>
    </g>
    <g id="ytick_6">
     <g id="line2d_11">
      <g>
       <use style="stroke:#000000;stroke-width:0.6;" x="49.978125" xlink:href="#m25af3fa1fd" y="165.383117"/>
      </g>
     </g>
    </g>
    <g id="ytick_7">
     <g id="line2d_12">
      <g>
       <use style="stroke:#000000;stroke-width:0.6;" x="49.978125" xlink:href="#m25af3fa1fd" y="137.000496"/>
      </g>
     </g>
    </g>
    <g id="ytick_8">
     <g id="line2d_13">
      <g>
       <use style="stroke:#000000;stroke-width:0.6;" x="49.978125" xlink:href="#m25af3fa1fd" y="116.862706"/>
      </g>
     </g>
    </g>
    <g id="ytick_9">
     <g id="line2d_14">
      <g>
       <use style="stroke:#000000;stroke-width:0.6;" x="49.978125" xlink:href="#m25af3fa1fd" y="101.242623"/>
      </g>
     </g>
    </g>
    <g id="ytick_10">
     <g id="line2d_15">
      <g>
       <use style="stroke:#000000;stroke-width:0.6;" x="49.978125" xlink:href="#m25af3fa1fd" y="88.480086"/>
      </g>
     </g>
    </g>
    <g id="ytick_11">
     <g id="line2d_16">
      <g>
       <use style="stroke:#000000;stroke-width:0.6;" x="49.978125" xlink:href="#m25af3fa1fd" y="77.689514"/>
      </g>
     </g>
    </g>
    <g id="ytick_12">
     <g id="line2d_17">
      <g>
       <use style="stroke:#000000;stroke-width:0.6;" x="49.978125" xlink:href="#m25af3fa1fd" y="68.342296"/>
      </g>
     </g>
    </g>
    <g id="ytick_13">
     <g id="line2d_18">
      <g>
       <use style="stroke:#000000;stroke-width:0.6;" x="49.978125" xlink:href="#m25af3fa1fd" y="60.097465"/>
      </g>
     </g>
    </g>
    <g id="text_9">
     <!-- Kmol/m^3-s -->
     <defs>
      <path d="M 30.609375 48.390625 
Q 23.390625 48.390625 19.1875 42.75 
Q 14.984375 37.109375 14.984375 27.296875 
Q 14.984375 17.484375 19.15625 11.84375 
Q 23.34375 6.203125 30.609375 6.203125 
Q 37.796875 6.203125 41.984375 11.859375 
Q 46.1875 17.53125 46.1875 27.296875 
Q 46.1875 37.015625 41.984375 42.703125 
Q 37.796875 48.390625 30.609375 48.390625 
z
M 30.609375 56 
Q 42.328125 56 49.015625 48.375 
Q 55.71875 40.765625 55.71875 27.296875 
Q 55.71875 13.875 49.015625 6.21875 
Q 42.328125 -1.421875 30.609375 -1.421875 
Q 18.84375 -1.421875 12.171875 6.21875 
Q 5.515625 13.875 5.515625 27.296875 
Q 5.515625 40.765625 12.171875 48.375 
Q 18.84375 56 30.609375 56 
z
" id="DejaVuSans-111"/>
      <path d="M 9.421875 75.984375 
L 18.40625 75.984375 
L 18.40625 0 
L 9.421875 0 
z
" id="DejaVuSans-108"/>
      <path d="M 25.390625 72.90625 
L 33.6875 72.90625 
L 8.296875 -9.28125 
L 0 -9.28125 
z
" id="DejaVuSans-47"/>
      <path d="M 46.6875 72.90625 
L 73.1875 45.703125 
L 63.375 45.703125 
L 41.890625 64.984375 
L 20.40625 45.703125 
L 10.59375 45.703125 
L 37.109375 72.90625 
z
" id="DejaVuSans-94"/>
      <path d="M 4.890625 31.390625 
L 31.203125 31.390625 
L 31.203125 23.390625 
L 4.890625 23.390625 
z
" id="DejaVuSans-45"/>
      <path d="M 44.28125 53.078125 
L 44.28125 44.578125 
Q 40.484375 46.53125 36.375 47.5 
Q 32.28125 48.484375 27.875 48.484375 
Q 21.1875 48.484375 17.84375 46.4375 
Q 14.5 44.390625 14.5 40.28125 
Q 14.5 37.15625 16.890625 35.375 
Q 19.28125 33.59375 26.515625 31.984375 
L 29.59375 31.296875 
Q 39.15625 29.25 43.1875 25.515625 
Q 47.21875 21.78125 47.21875 15.09375 
Q 47.21875 7.46875 41.1875 3.015625 
Q 35.15625 -1.421875 24.609375 -1.421875 
Q 20.21875 -1.421875 15.453125 -0.5625 
Q 10.6875 0.296875 5.421875 2 
L 5.421875 11.28125 
Q 10.40625 8.6875 15.234375 7.390625 
Q 20.0625 6.109375 24.8125 6.109375 
Q 31.15625 6.109375 34.5625 8.28125 
Q 37.984375 10.453125 37.984375 14.40625 
Q 37.984375 18.0625 35.515625 20.015625 
Q 33.0625 21.96875 24.703125 23.78125 
L 21.578125 24.515625 
Q 13.234375 26.265625 9.515625 29.90625 
Q 5.8125 33.546875 5.8125 39.890625 
Q 5.8125 47.609375 11.28125 51.796875 
Q 16.75 56 26.8125 56 
Q 31.78125 56 36.171875 55.265625 
Q 40.578125 54.546875 44.28125 53.078125 
z
" id="DejaVuSans-115"/>
     </defs>
     <g transform="translate(14.798438 161.970156)rotate(-90)scale(0.1 -0.1)">
      <use xlink:href="#DejaVuSans-75"/>
      <use x="65.576172" xlink:href="#DejaVuSans-109"/>
      <use x="162.988281" xlink:href="#DejaVuSans-111"/>
      <use x="224.169922" xlink:href="#DejaVuSans-108"/>
      <use x="251.953125" xlink:href="#DejaVuSans-47"/>
      <use x="285.644531" xlink:href="#DejaVuSans-109"/>
      <use x="383.056641" xlink:href="#DejaVuSans-94"/>
      <use x="466.845703" xlink:href="#DejaVuSans-51"/>
      <use x="530.46875" xlink:href="#DejaVuSans-45"/>
      <use x="566.552734" xlink:href="#DejaVuSans-115"/>
     </g>
    </g>
   </g>
   <g id="line2d_19">
    <path clip-path="url(#p93c5be71e6)" d="M 71.812908 71.229845 
L 74.724212 80.069934 
L 77.635516 88.222192 
L 80.546821 95.74125 
L 83.590457 102.982919 
L 86.634093 109.647571 
L 89.67773 115.786795 
L 92.853698 121.682804 
L 96.029667 127.104025 
L 99.205635 132.092083 
L 102.513935 136.867155 
L 105.822236 141.249321 
L 109.130536 145.271444 
L 112.571168 149.103911 
L 116.011801 152.607856 
L 119.584765 155.926834 
L 123.15773 158.94584 
L 126.863026 161.784811 
L 130.568323 164.349716 
L 134.405951 166.739692 
L 138.375912 168.94875 
L 142.478204 170.972059 
L 146.712829 172.805882 
L 151.079785 174.447505 
L 155.579074 175.895178 
L 160.210694 177.148054 
L 164.974647 178.20614 
L 170.003263 179.090642 
L 175.164212 179.771618 
L 180.589825 180.261819 
L 186.280101 180.550266 
L 192.235042 180.628521 
L 198.586979 180.485505 
L 205.335912 180.105069 
L 212.48184 179.475506 
L 220.157097 178.572386 
L 228.494014 177.362423 
L 237.624923 175.807162 
L 247.814489 173.840651 
L 259.592038 171.334218 
L 274.14856 167.998593 
L 298.894647 162.056958 
L 322.05275 156.584762 
L 337.138599 153.246775 
L 350.107137 150.602435 
L 361.752354 148.451296 
L 369.427611 147.167304 
L 369.427611 147.167304 
" style="fill:none;stroke:#0000ff;stroke-linecap:square;stroke-width:1.5;"/>
   </g>
   <g id="line2d_20">
    <path clip-path="url(#p93c5be71e6)" d="M 65.196307 32.201761 
L 71.812908 56.071275 
L 72.342236 57.761826 
L 74.856544 65.409981 
L 77.635516 73.195621 
L 77.90018 73.903748 
L 78.164844 74.606374 
L 78.164844 74.606374 
L 78.164844 74.606374 
L 78.297176 74.955645 
L 78.297176 74.955645 
L 78.297176 74.955645 
L 78.429508 75.303565 
L 78.429508 75.303565 
L 79.488165 78.039303 
L 79.488165 78.039303 
L 83.722789 88.199945 
L 85.046109 91.141274 
L 89.280734 99.894517 
L 91.66271 104.416472 
L 91.66271 104.416472 
L 98.279311 115.660785 
L 104.895912 125.238001 
L 104.895912 125.238001 
L 111.512512 133.414633 
L 111.512512 133.414633 
L 118.129113 140.395663 
L 118.129113 140.395663 
L 118.129113 140.395663 
L 124.745714 146.344059 
L 131.362315 151.392448 
L 131.362315 151.392448 
L 137.978916 155.650682 
L 144.595516 159.211031 
L 144.595516 159.211031 
L 151.212117 162.151929 
L 157.828718 164.540739 
L 157.828718 164.540739 
L 164.445319 166.435873 
L 166.827295 167.007306 
L 171.061919 167.888427 
L 173.0469 168.244768 
L 177.67852 168.943476 
L 181.516149 169.389243 
L 184.295121 169.641103 
L 188.529746 169.91675 
L 190.911722 170.017228 
L 197.528323 170.104282 
L 199.910299 170.070616 
L 202.424607 170.000035 
L 203.086267 169.97566 
L 204.144923 169.93175 
L 204.674251 169.907557 
L 210.629192 169.536829 
L 210.761524 169.526611 
L 210.761524 169.526611 
L 216.054805 169.051776 
L 217.378125 168.9137 
L 218.304449 168.812641 
L 223.068402 168.237988 
L 223.994726 168.115998 
L 224.92105 167.990807 
L 226.112038 167.825235 
L 226.376702 167.787747 
L 226.773698 167.731048 
L 227.038362 167.692938 
L 228.626346 167.459152 
L 230.478995 167.175555 
L 230.611327 167.154862 
L 232.066979 166.923483 
L 232.199311 166.902112 
L 233.654963 166.663393 
L 234.845951 166.463221 
L 235.375279 166.372883 
L 237.227927 166.050216 
L 237.492591 166.003313 
L 238.68358 165.789809 
L 241.594884 165.251639 
L 243.844528 164.820704 
L 244.373856 164.71748 
L 249.316548 163.722031 
L 250.461129 163.483815 
L 257.07773 162.055986 
L 258.073219 161.834265 
L 263.393102 160.622557 
L 263.694331 160.552687 
L 263.694331 160.552687 
L 270.310931 158.988504 
L 272.089658 158.559417 
L 276.620748 157.452759 
L 276.927532 157.377198 
L 283.544133 155.731774 
L 287.529713 154.729346 
L 290.160734 154.06453 
L 290.160734 154.06453 
L 292.009571 153.596359 
L 295.260032 152.772089 
L 296.777334 152.387115 
L 303.393935 150.710576 
L 305.719629 150.123459 
L 310.010536 149.0454 
L 312.651953 148.386062 
L 316.627137 147.401563 
L 318.916437 146.839518 
L 323.243738 145.788565 
L 329.860338 144.215471 
L 336.476939 142.69094 
L 343.09354 141.223263 
L 349.710141 139.820386 
L 356.326742 138.489941 
L 362.943342 137.239267 
L 369.559943 136.075433 
" style="fill:none;stroke:#0000ff;stroke-dasharray:5.55,2.4;stroke-dashoffset:0;stroke-width:1.5;"/>
   </g>
   <g id="line2d_21">
    <path clip-path="url(#p93c5be71e6)" d="M 65.196307 64.4854 
L 71.812908 86.388415 
L 72.342236 88.019555 
L 74.856544 95.500026 
L 77.635516 103.248763 
L 77.90018 103.958427 
L 78.164844 104.66321 
L 78.164844 104.66321 
L 78.164844 104.66321 
L 78.297176 105.013776 
L 78.297176 105.013776 
L 78.297176 105.013776 
L 78.429508 105.363128 
L 78.429508 105.363128 
L 79.488165 108.114458 
L 79.488165 108.114458 
L 83.722789 118.368642 
L 85.046109 121.336838 
L 89.280734 130.133754 
L 91.66271 134.643205 
L 91.66271 134.643205 
L 98.279311 145.698659 
L 104.895912 154.881897 
L 104.895912 154.881897 
L 111.512512 162.507317 
L 111.512512 162.507317 
L 118.129113 168.828902 
L 118.129113 168.828902 
L 118.129113 168.828902 
L 124.745714 174.051027 
L 131.362315 178.339031 
L 131.362315 178.339031 
L 137.978916 181.827904 
L 144.595516 184.62899 
L 144.595516 184.62899 
L 151.212117 186.835099 
L 157.828718 188.524357 
L 157.828718 188.524357 
L 164.445319 189.763144 
L 166.827295 190.11004 
L 171.061919 190.608334 
L 173.0469 190.792658 
L 177.67852 191.109022 
L 181.516149 191.258615 
L 184.295121 191.307874 
L 188.529746 191.294156 
L 190.911722 191.242187 
L 197.528323 190.944736 
L 199.910299 190.786596 
L 202.424607 190.592557 
L 203.086267 190.537038 
L 204.144923 190.444457 
L 204.674251 190.396462 
L 210.629192 189.782142 
L 210.761524 189.767009 
L 210.761524 189.767009 
L 216.054805 189.112925 
L 217.378125 188.935238 
L 218.304449 188.807665 
L 223.068402 188.112122 
L 223.994726 187.969573 
L 224.92105 187.824763 
L 226.112038 187.635331 
L 226.376702 187.592748 
L 226.773698 187.528546 
L 227.038362 187.485528 
L 228.626346 187.223841 
L 230.478995 186.91101 
L 230.611327 186.888363 
L 232.066979 186.636666 
L 232.199311 186.613553 
L 233.654963 186.356824 
L 234.845951 186.143462 
L 235.375279 186.047703 
L 237.227927 185.708163 
L 237.492591 185.659113 
L 238.68358 185.436752 
L 241.594884 184.882354 
L 243.844528 184.443988 
L 244.373856 184.339644 
L 249.316548 183.34484 
L 250.461129 183.10953 
L 257.07773 181.717349 
L 258.073219 181.503625 
L 263.393102 180.345358 
L 263.694331 180.27903 
L 263.694331 180.27903 
L 270.310931 178.805327 
L 272.089658 178.404431 
L 276.620748 177.37621 
L 276.927532 177.306283 
L 283.544133 175.791328 
L 287.529713 174.874847 
L 290.160734 174.269365 
L 290.160734 174.269365 
L 292.009571 173.843996 
L 295.260032 173.09697 
L 296.777334 172.74884 
L 303.393935 171.237806 
L 305.719629 170.710385 
L 310.010536 169.743967 
L 312.651953 169.154076 
L 316.627137 168.274723 
L 318.916437 167.773408 
L 323.243738 166.837205 
L 329.860338 165.438303 
L 336.476939 164.084689 
L 343.09354 162.782845 
L 349.710141 161.539073 
L 356.326742 160.359517 
L 362.943342 159.250175 
L 369.559943 158.216912 
" style="fill:none;stroke:#0000ff;stroke-dasharray:5.55,2.4;stroke-dashoffset:0;stroke-width:1.5;"/>
   </g>
   <g id="line2d_22">
    <path clip-path="url(#p93c5be71e6)" d="M 71.812908 112.391658 
L 74.59188 121.197741 
L 77.370852 129.276774 
L 80.149825 136.666274 
L 82.928797 143.417086 
L 85.707769 149.583077 
L 88.486742 155.216415 
L 91.265714 160.365541 
L 94.177018 165.288443 
L 97.088323 169.773614 
L 99.999627 173.861426 
L 103.043263 177.749006 
L 106.0869 181.277602 
L 109.262868 184.611433 
L 112.438836 187.621288 
L 115.747137 190.442584 
L 119.055437 192.971435 
L 122.49607 195.318159 
L 125.936702 197.400727 
L 129.509667 199.307609 
L 133.214963 201.033201 
L 137.052591 202.573152 
L 141.022552 203.92427 
L 145.124844 205.084422 
L 149.359469 206.052456 
L 153.858757 206.848314 
L 158.490378 207.439971 
L 163.386663 207.837889 
L 168.547611 208.028562 
L 173.973224 208.001238 
L 179.6635 207.747896 
L 185.750773 207.250078 
L 192.235042 206.491819 
L 199.116307 205.461858 
L 206.659232 204.102386 
L 214.863817 202.390966 
L 223.862394 200.282589 
L 234.051959 197.66143 
L 245.96184 194.361368 
L 261.312354 189.862184 
L 314.906821 173.951263 
L 328.404686 170.294456 
L 340.4469 167.260429 
L 351.562789 164.687828 
L 362.017018 162.495993 
L 369.427611 161.089384 
L 369.427611 161.089384 
" style="fill:none;stroke:#ff0000;stroke-linecap:square;stroke-width:1.5;"/>
   </g>
   <g id="line2d_23">
    <path clip-path="url(#p93c5be71e6)" d="M 65.196307 72.78999 
L 71.812908 97.656757 
L 72.342236 99.43306 
L 74.856544 107.445092 
L 77.635516 115.531247 
L 77.90018 116.262021 
L 78.164844 116.986249 
L 78.164844 116.986249 
L 78.164844 116.986249 
L 78.297176 117.345931 
L 78.297176 117.345931 
L 78.297176 117.345931 
L 78.429508 117.704003 
L 78.429508 117.704003 
L 79.488165 120.511659 
L 79.488165 120.511659 
L 83.722789 130.802695 
L 85.046109 133.737286 
L 89.280734 142.339367 
L 91.66271 146.701522 
L 91.66271 146.701522 
L 98.279311 157.286506 
L 104.895912 165.979836 
L 104.895912 165.979836 
L 111.512512 173.134945 
L 111.512512 173.134945 
L 118.129113 179.01602 
L 118.129113 179.01602 
L 118.129113 179.01602 
L 124.745714 183.826011 
L 131.362315 187.724473 
L 131.362315 187.724473 
L 137.978916 190.839329 
L 144.595516 193.27488 
L 144.595516 193.27488 
L 151.212117 195.117438 
L 157.828718 196.43938 
L 157.828718 196.43938 
L 164.445319 197.302142 
L 166.827295 197.510716 
L 171.061919 197.758471 
L 173.0469 197.823117 
L 177.67852 197.854148 
L 181.516149 197.760412 
L 184.295121 197.629327 
L 188.529746 197.33384 
L 190.911722 197.119588 
L 197.528323 196.356766 
L 199.910299 196.025815 
L 202.424607 195.646349 
L 203.086267 195.541523 
L 204.144923 195.369609 
L 204.674251 195.281745 
L 210.629192 194.209789 
L 210.761524 194.1843 
L 210.761524 194.1843 
L 216.054805 193.109591 
L 217.378125 192.824863 
L 218.304449 192.62193 
L 223.068402 191.533439 
L 223.994726 191.313484 
L 224.92105 191.090956 
L 226.112038 190.801157 
L 226.376702 190.736203 
L 226.773698 190.6384 
L 227.038362 190.572952 
L 228.626346 190.1762 
L 230.478995 189.704773 
L 230.611327 189.670758 
L 232.066979 189.293662 
L 232.199311 189.259119 
L 233.654963 188.876331 
L 234.845951 188.5594 
L 235.375279 188.417491 
L 237.227927 187.915878 
L 237.492591 187.843608 
L 238.68358 187.516559 
L 241.594884 186.704984 
L 243.844528 186.066788 
L 244.373856 185.915302 
L 249.316548 184.478388 
L 250.461129 184.140294 
L 257.07773 182.152164 
L 258.073219 181.84864 
L 263.393102 180.210668 
L 263.694331 180.117207 
L 263.694331 180.117207 
L 270.310931 178.049342 
L 272.089658 177.489538 
L 276.620748 176.058721 
L 276.927532 175.961667 
L 283.544133 173.866514 
L 287.529713 172.605764 
L 290.160734 171.775512 
L 290.160734 171.775512 
L 292.009571 171.193483 
L 295.260032 170.173783 
L 296.777334 169.699635 
L 303.393935 167.649261 
L 305.719629 166.936469 
L 310.010536 165.634213 
L 312.651953 164.841749 
L 316.627137 163.663814 
L 318.916437 162.994091 
L 323.243738 161.746922 
L 329.860338 159.891975 
L 336.476939 158.107024 
L 343.09354 156.399771 
L 349.710141 154.777594 
L 356.326742 153.247575 
L 362.943342 151.81653 
L 369.559943 150.491025 
" style="fill:none;stroke:#ff0000;stroke-dasharray:5.55,2.4;stroke-dashoffset:0;stroke-width:1.5;"/>
   </g>
   <g id="line2d_24">
    <path clip-path="url(#p93c5be71e6)" d="M 65.196307 104.543415 
L 71.812908 127.126559 
L 72.342236 128.818773 
L 74.856544 136.551061 
L 77.635516 144.487751 
L 77.90018 145.209985 
L 78.164844 145.926406 
L 78.164844 145.926406 
L 78.164844 145.926406 
L 78.297176 146.282442 
L 78.297176 146.282442 
L 78.297176 146.282442 
L 78.429508 146.637031 
L 78.429508 146.637031 
L 79.488165 149.421949 
L 79.488165 149.421949 
L 83.722789 159.669576 
L 85.046109 162.593109 
L 89.280734 171.130618 
L 91.66271 175.426933 
L 91.66271 175.426933 
L 98.279311 185.69709 
L 104.895912 193.895104 
L 104.895912 193.895104 
L 111.512512 200.415347 
L 111.512512 200.415347 
L 118.129113 205.566639 
L 118.129113 205.566639 
L 118.129113 205.566639 
L 124.745714 209.59057 
L 131.362315 212.677663 
L 131.362315 212.677663 
L 137.978916 214.979899 
L 144.595516 216.620031 
L 144.595516 216.620031 
L 151.212117 217.698431 
L 157.828718 218.298138 
L 157.828718 218.298138 
L 164.445319 218.488586 
L 166.827295 218.468537 
L 171.061919 218.328398 
L 173.0469 218.219628 
L 177.67852 217.867488 
L 181.516149 217.479495 
L 184.295121 217.14867 
L 188.529746 216.570556 
L 190.911722 216.208898 
L 197.528323 215.080237 
L 199.910299 214.633175 
L 202.424607 214.139995 
L 203.086267 214.006743 
L 204.144923 213.790639 
L 204.674251 213.681273 
L 210.629192 212.394288 
L 210.761524 212.364572 
L 210.761524 212.364572 
L 216.054805 211.140004 
L 217.378125 210.823546 
L 218.304449 210.599737 
L 223.068402 209.420854 
L 223.994726 209.186545 
L 224.92105 208.950689 
L 226.112038 208.64524 
L 226.376702 208.577033 
L 226.773698 208.474504 
L 227.038362 208.406006 
L 228.626346 207.992636 
L 230.478995 207.505412 
L 230.611327 207.470414 
L 232.066979 207.083769 
L 232.199311 207.048471 
L 233.654963 206.658618 
L 234.845951 206.337567 
L 235.375279 206.194298 
L 237.227927 205.690175 
L 237.492591 205.617827 
L 238.68358 205.291285 
L 241.594884 204.486707 
L 243.844528 203.859319 
L 244.373856 203.711037 
L 249.316548 202.315653 
L 250.461129 201.990043 
L 257.07773 200.093465 
L 258.073219 199.806399 
L 263.393102 198.267154 
L 263.694331 198.179797 
L 263.694331 198.179797 
L 270.310931 196.258501 
L 272.089658 195.741854 
L 276.620748 194.427285 
L 276.927532 194.338406 
L 283.544133 192.427816 
L 287.529713 191.284846 
L 290.160734 190.534592 
L 290.160734 190.534592 
L 292.009571 190.009708 
L 295.260032 189.092093 
L 296.777334 188.666216 
L 303.393935 186.829851 
L 305.719629 186.193272 
L 310.010536 185.03238 
L 312.651953 184.327164 
L 316.627137 183.280444 
L 318.916437 182.686065 
L 323.243738 181.58047 
L 329.860338 179.938695 
L 336.476939 178.361183 
L 343.09354 176.853848 
L 349.710141 175.422461 
L 356.326742 174.072665 
L 362.943342 172.809988 
L 369.559943 171.639848 
" style="fill:none;stroke:#ff0000;stroke-dasharray:5.55,2.4;stroke-dashoffset:0;stroke-width:1.5;"/>
   </g>
   <g id="line2d_25">
    <defs>
     <path d="M 0 3 
C 0.795609 3 1.55874 2.683901 2.12132 2.12132 
C 2.683901 1.55874 3 0.795609 3 0 
C 3 -0.795609 2.683901 -1.55874 2.12132 -2.12132 
C 1.55874 -2.683901 0.795609 -3 0 -3 
C -0.795609 -3 -1.55874 -2.683901 -2.12132 -2.12132 
C -2.683901 -1.55874 -3 -0.795609 -3 0 
C -3 0.795609 -2.683901 1.55874 -2.12132 2.12132 
C -1.55874 2.683901 -0.795609 3 0 3 
z
" id="mfeecad2b31" style="stroke:#000000;"/>
    </defs>
    <g clip-path="url(#p93c5be71e6)">
     <use style="stroke:#000000;" x="79.488165" xlink:href="#mfeecad2b31" y="88.925769"/>
     <use style="stroke:#000000;" x="78.164844" xlink:href="#mfeecad2b31" y="72.602131"/>
     <use style="stroke:#000000;" x="78.164844" xlink:href="#mfeecad2b31" y="75.459704"/>
     <use style="stroke:#000000;" x="79.488165" xlink:href="#mfeecad2b31" y="88.925769"/>
     <use style="stroke:#000000;" x="77.90018" xlink:href="#mfeecad2b31" y="59.83964"/>
     <use style="stroke:#000000;" x="78.164844" xlink:href="#mfeecad2b31" y="81.596558"/>
     <use style="stroke:#000000;" x="72.342236" xlink:href="#mfeecad2b31" y="70.94201"/>
     <use style="stroke:#000000;" x="74.856544" xlink:href="#mfeecad2b31" y="72.602131"/>
     <use style="stroke:#000000;" x="77.635516" xlink:href="#mfeecad2b31" y="88.925769"/>
     <use style="stroke:#000000;" x="78.297176" xlink:href="#mfeecad2b31" y="81.55047"/>
     <use style="stroke:#000000;" x="78.297176" xlink:href="#mfeecad2b31" y="85.476756"/>
     <use style="stroke:#000000;" x="78.297176" xlink:href="#mfeecad2b31" y="80.916995"/>
     <use style="stroke:#000000;" x="83.722789" xlink:href="#mfeecad2b31" y="88.222261"/>
     <use style="stroke:#000000;" x="89.280734" xlink:href="#mfeecad2b31" y="93.302223"/>
     <use style="stroke:#000000;" x="166.827295" xlink:href="#mfeecad2b31" y="229.874489"/>
     <use style="stroke:#000000;" x="173.0469" xlink:href="#mfeecad2b31" y="216.542663"/>
     <use style="stroke:#000000;" x="181.516149" xlink:href="#mfeecad2b31" y="204.731528"/>
     <use style="stroke:#000000;" x="188.529746" xlink:href="#mfeecad2b31" y="171.601315"/>
     <use style="stroke:#000000;" x="199.910299" xlink:href="#mfeecad2b31" y="145.420546"/>
     <use style="stroke:#000000;" x="224.92105" xlink:href="#mfeecad2b31" y="108.359973"/>
     <use style="stroke:#000000;" x="230.478995" xlink:href="#mfeecad2b31" y="165.616957"/>
     <use style="stroke:#000000;" x="226.112038" xlink:href="#mfeecad2b31" y="95.597462"/>
     <use style="stroke:#000000;" x="237.492591" xlink:href="#mfeecad2b31" y="103.842373"/>
     <use style="stroke:#000000;" x="210.629192" xlink:href="#mfeecad2b31" y="123.980211"/>
     <use style="stroke:#000000;" x="232.066979" xlink:href="#mfeecad2b31" y="123.980211"/>
     <use style="stroke:#000000;" x="202.424607" xlink:href="#mfeecad2b31" y="95.597462"/>
     <use style="stroke:#000000;" x="235.375279" xlink:href="#mfeecad2b31" y="88.222261"/>
     <use style="stroke:#000000;" x="226.773698" xlink:href="#mfeecad2b31" y="152.362638"/>
     <use style="stroke:#000000;" x="234.845951" xlink:href="#mfeecad2b31" y="91.812836"/>
     <use style="stroke:#000000;" x="210.761524" xlink:href="#mfeecad2b31" y="72.602131"/>
     <use style="stroke:#000000;" x="227.038362" xlink:href="#mfeecad2b31" y="93.302223"/>
     <use style="stroke:#000000;" x="223.068402" xlink:href="#mfeecad2b31" y="152.362638"/>
     <use style="stroke:#000000;" x="232.199311" xlink:href="#mfeecad2b31" y="155.953391"/>
     <use style="stroke:#000000;" x="226.376702" xlink:href="#mfeecad2b31" y="95.597462"/>
     <use style="stroke:#000000;" x="218.304449" xlink:href="#mfeecad2b31" y="103.842373"/>
     <use style="stroke:#000000;" x="241.594884" xlink:href="#mfeecad2b31" y="141.073855"/>
     <use style="stroke:#000000;" x="238.68358" xlink:href="#mfeecad2b31" y="123.980211"/>
     <use style="stroke:#000000;" x="228.626346" xlink:href="#mfeecad2b31" y="172.500621"/>
     <use style="stroke:#000000;" x="244.373856" xlink:href="#mfeecad2b31" y="99.598597"/>
     <use style="stroke:#000000;" x="233.654963" xlink:href="#mfeecad2b31" y="132.66393"/>
     <use style="stroke:#000000;" x="204.674251" xlink:href="#mfeecad2b31" y="121.684781"/>
     <use style="stroke:#000000;" x="216.054805" xlink:href="#mfeecad2b31" y="152.362638"/>
     <use style="stroke:#000000;" x="203.086267" xlink:href="#mfeecad2b31" y="152.362638"/>
     <use style="stroke:#000000;" x="318.916437" xlink:href="#mfeecad2b31" y="124.627933"/>
     <use style="stroke:#000000;" x="312.651953" xlink:href="#mfeecad2b31" y="133.363306"/>
     <use style="stroke:#000000;" x="305.719629" xlink:href="#mfeecad2b31" y="126.812512"/>
     <use style="stroke:#000000;" x="295.260032" xlink:href="#mfeecad2b31" y="133.807753"/>
     <use style="stroke:#000000;" x="292.009571" xlink:href="#mfeecad2b31" y="133.807753"/>
     <use style="stroke:#000000;" x="287.529713" xlink:href="#mfeecad2b31" y="137.94011"/>
     <use style="stroke:#000000;" x="276.620748" xlink:href="#mfeecad2b31" y="131.613211"/>
     <use style="stroke:#000000;" x="272.089658" xlink:href="#mfeecad2b31" y="130.754303"/>
     <use style="stroke:#000000;" x="263.393102" xlink:href="#mfeecad2b31" y="139.858042"/>
     <use style="stroke:#000000;" x="258.073219" xlink:href="#mfeecad2b31" y="131.18244"/>
     <use style="stroke:#000000;" x="249.316548" xlink:href="#mfeecad2b31" y="128.445243"/>
    </g>
   </g>
   <g id="patch_3">
    <path d="M 49.978125 239.758125 
L 49.978125 22.318125 
" style="fill:none;stroke:#000000;stroke-linecap:square;stroke-linejoin:miter;stroke-width:0.8;"/>
   </g>
   <g id="patch_4">
    <path d="M 384.778125 239.758125 
L 384.778125 22.318125 
" style="fill:none;stroke:#000000;stroke-linecap:square;stroke-linejoin:miter;stroke-width:0.8;"/>
   </g>
   <g id="patch_5">
    <path d="M 49.978125 239.758125 
L 384.778125 239.758125 
" style="fill:none;stroke:#000000;stroke-linecap:square;stroke-linejoin:miter;stroke-width:0.8;"/>
   </g>
   <g id="patch_6">
    <path d="M 49.978125 22.318125 
L 384.778125 22.318125 
" style="fill:none;stroke:#000000;stroke-linecap:square;stroke-linejoin:miter;stroke-width:0.8;"/>
   </g>
   <g id="text_10">
    <!-- HO2 + OH &lt;=&gt; H2O + O2 -->
    <defs>
     <path d="M 9.8125 72.90625 
L 19.671875 72.90625 
L 19.671875 43.015625 
L 55.515625 43.015625 
L 55.515625 72.90625 
L 65.375 72.90625 
L 65.375 0 
L 55.515625 0 
L 55.515625 34.71875 
L 19.671875 34.71875 
L 19.671875 0 
L 9.8125 0 
z
" id="DejaVuSans-72"/>
     <path d="M 39.40625 66.21875 
Q 28.65625 66.21875 22.328125 58.203125 
Q 16.015625 50.203125 16.015625 36.375 
Q 16.015625 22.609375 22.328125 14.59375 
Q 28.65625 6.59375 39.40625 6.59375 
Q 50.140625 6.59375 56.421875 14.59375 
Q 62.703125 22.609375 62.703125 36.375 
Q 62.703125 50.203125 56.421875 58.203125 
Q 50.140625 66.21875 39.40625 66.21875 
z
M 39.40625 74.21875 
Q 54.734375 74.21875 63.90625 63.9375 
Q 73.09375 53.65625 73.09375 36.375 
Q 73.09375 19.140625 63.90625 8.859375 
Q 54.734375 -1.421875 39.40625 -1.421875 
Q 24.03125 -1.421875 14.8125 8.828125 
Q 5.609375 19.09375 5.609375 36.375 
Q 5.609375 53.65625 14.8125 63.9375 
Q 24.03125 74.21875 39.40625 74.21875 
z
" id="DejaVuSans-79"/>
     <path d="M 46 62.703125 
L 46 35.5 
L 73.1875 35.5 
L 73.1875 27.203125 
L 46 27.203125 
L 46 0 
L 37.796875 0 
L 37.796875 27.203125 
L 10.59375 27.203125 
L 10.59375 35.5 
L 37.796875 35.5 
L 37.796875 62.703125 
z
" id="DejaVuSans-43"/>
     <path d="M 73.1875 49.21875 
L 22.796875 31.296875 
L 73.1875 13.484375 
L 73.1875 4.59375 
L 10.59375 27.296875 
L 10.59375 35.40625 
L 73.1875 58.109375 
z
" id="DejaVuSans-60"/>
     <path d="M 10.59375 45.40625 
L 73.1875 45.40625 
L 73.1875 37.203125 
L 10.59375 37.203125 
z
M 10.59375 25.484375 
L 73.1875 25.484375 
L 73.1875 17.1875 
L 10.59375 17.1875 
z
" id="DejaVuSans-61"/>
     <path d="M 10.59375 49.21875 
L 10.59375 58.109375 
L 73.1875 35.40625 
L 73.1875 27.296875 
L 10.59375 4.59375 
L 10.59375 13.484375 
L 60.890625 31.296875 
z
" id="DejaVuSans-62"/>
    </defs>
    <g transform="translate(136.91625 16.318125)scale(0.12 -0.12)">
     <use xlink:href="#DejaVuSans-72"/>
     <use x="75.195312" xlink:href="#DejaVuSans-79"/>
     <use x="153.90625" xlink:href="#DejaVuSans-50"/>
     <use x="217.529297" xlink:href="#DejaVuSans-32"/>
     <use x="249.316406" xlink:href="#DejaVuSans-43"/>
     <use x="333.105469" xlink:href="#DejaVuSans-32"/>
     <use x="364.892578" xlink:href="#DejaVuSans-79"/>
     <use x="443.603516" xlink:href="#DejaVuSans-72"/>
     <use x="518.798828" xlink:href="#DejaVuSans-32"/>
     <use x="550.585938" xlink:href="#DejaVuSans-60"/>
     <use x="634.375" xlink:href="#DejaVuSans-61"/>
     <use x="718.164062" xlink:href="#DejaVuSans-62"/>
     <use x="801.953125" xlink:href="#DejaVuSans-32"/>
     <use x="833.740234" xlink:href="#DejaVuSans-72"/>
     <use x="908.935547" xlink:href="#DejaVuSans-50"/>
     <use x="972.558594" xlink:href="#DejaVuSans-79"/>
     <use x="1051.269531" xlink:href="#DejaVuSans-32"/>
     <use x="1083.056641" xlink:href="#DejaVuSans-43"/>
     <use x="1166.845703" xlink:href="#DejaVuSans-32"/>
     <use x="1198.632812" xlink:href="#DejaVuSans-79"/>
     <use x="1277.34375" xlink:href="#DejaVuSans-50"/>
    </g>
   </g>
  </g>
 </g>
 <defs>
  <clipPath id="p93c5be71e6">
   <rect height="217.44" width="334.8" x="49.978125" y="22.318125"/>
  </clipPath>
 </defs>
</svg>
