<?xml version="1.0" encoding="utf-8" standalone="no"?>
<!DOCTYPE svg PUBLIC "-//W3C//DTD SVG 1.1//EN"
  "http://www.w3.org/Graphics/SVG/1.1/DTD/svg11.dtd">
<!-- Created with matplotlib (http://matplotlib.org/) -->
<svg height="277pt" version="1.1" viewBox="0 0 398 277" width="398pt" xmlns="http://www.w3.org/2000/svg" xmlns:xlink="http://www.w3.org/1999/xlink">
 <defs>
  <style type="text/css">
*{stroke-linecap:butt;stroke-linejoin:round;}
  </style>
 </defs>
 <g id="figure_1">
  <g id="patch_1">
   <path d="M 0 277.314375 
L 398.828125 277.314375 
L 398.828125 0 
L 0 0 
z
" style="fill:none;"/>
  </g>
  <g id="axes_1">
   <g id="patch_2">
    <path d="M 53.328125 239.758125 
L 388.128125 239.758125 
L 388.128125 22.318125 
L 53.328125 22.318125 
z
" style="fill:none;"/>
   </g>
   <g id="matplotlib.axis_1">
    <g id="xtick_1">
     <g id="line2d_1">
      <defs>
       <path d="M 0 0 
L 0 3.5 
" id="ma04edb1c72" style="stroke:#000000;stroke-width:0.8;"/>
      </defs>
      <g>
       <use style="stroke:#000000;stroke-width:0.8;" x="68.546307" xlink:href="#ma04edb1c72" y="239.758125"/>
      </g>
     </g>
     <g id="text_1">
      <!-- 0.0 -->
      <defs>
       <path d="M 31.78125 66.40625 
Q 24.171875 66.40625 20.328125 58.90625 
Q 16.5 51.421875 16.5 36.375 
Q 16.5 21.390625 20.328125 13.890625 
Q 24.171875 6.390625 31.78125 6.390625 
Q 39.453125 6.390625 43.28125 13.890625 
Q 47.125 21.390625 47.125 36.375 
Q 47.125 51.421875 43.28125 58.90625 
Q 39.453125 66.40625 31.78125 66.40625 
z
M 31.78125 74.21875 
Q 44.046875 74.21875 50.515625 64.515625 
Q 56.984375 54.828125 56.984375 36.375 
Q 56.984375 17.96875 50.515625 8.265625 
Q 44.046875 -1.421875 31.78125 -1.421875 
Q 19.53125 -1.421875 13.0625 8.265625 
Q 6.59375 17.96875 6.59375 36.375 
Q 6.59375 54.828125 13.0625 64.515625 
Q 19.53125 74.21875 31.78125 74.21875 
z
" id="DejaVuSans-30"/>
       <path d="M 10.6875 12.40625 
L 21 12.40625 
L 21 0 
L 10.6875 0 
z
" id="DejaVuSans-2e"/>
      </defs>
      <g transform="translate(60.594744 254.356562)scale(0.1 -0.1)">
       <use xlink:href="#DejaVuSans-30"/>
       <use x="63.623047" xlink:href="#DejaVuSans-2e"/>
       <use x="95.410156" xlink:href="#DejaVuSans-30"/>
      </g>
     </g>
    </g>
    <g id="xtick_2">
     <g id="line2d_2">
      <g>
       <use style="stroke:#000000;stroke-width:0.8;" x="129.00859" xlink:href="#ma04edb1c72" y="239.758125"/>
      </g>
     </g>
     <g id="text_2">
      <!-- 0.2 -->
      <defs>
       <path d="M 19.1875 8.296875 
L 53.609375 8.296875 
L 53.609375 0 
L 7.328125 0 
L 7.328125 8.296875 
Q 12.9375 14.109375 22.625 23.890625 
Q 32.328125 33.6875 34.8125 36.53125 
Q 39.546875 41.84375 41.421875 45.53125 
Q 43.3125 49.21875 43.3125 52.78125 
Q 43.3125 58.59375 39.234375 62.25 
Q 35.15625 65.921875 28.609375 65.921875 
Q 23.96875 65.921875 18.8125 64.3125 
Q 13.671875 62.703125 7.8125 59.421875 
L 7.8125 69.390625 
Q 13.765625 71.78125 18.9375 73 
Q 24.125 74.21875 28.421875 74.21875 
Q 39.75 74.21875 46.484375 68.546875 
Q 53.21875 62.890625 53.21875 53.421875 
Q 53.21875 48.921875 51.53125 44.890625 
Q 49.859375 40.875 45.40625 35.40625 
Q 44.1875 33.984375 37.640625 27.21875 
Q 31.109375 20.453125 19.1875 8.296875 
z
" id="DejaVuSans-32"/>
      </defs>
      <g transform="translate(121.057028 254.356562)scale(0.1 -0.1)">
       <use xlink:href="#DejaVuSans-30"/>
       <use x="63.623047" xlink:href="#DejaVuSans-2e"/>
       <use x="95.410156" xlink:href="#DejaVuSans-32"/>
      </g>
     </g>
    </g>
    <g id="xtick_3">
     <g id="line2d_3">
      <g>
       <use style="stroke:#000000;stroke-width:0.8;" x="189.470874" xlink:href="#ma04edb1c72" y="239.758125"/>
      </g>
     </g>
     <g id="text_3">
      <!-- 0.4 -->
      <defs>
       <path d="M 37.796875 64.3125 
L 12.890625 25.390625 
L 37.796875 25.390625 
z
M 35.203125 72.90625 
L 47.609375 72.90625 
L 47.609375 25.390625 
L 58.015625 25.390625 
L 58.015625 17.1875 
L 47.609375 17.1875 
L 47.609375 0 
L 37.796875 0 
L 37.796875 17.1875 
L 4.890625 17.1875 
L 4.890625 26.703125 
z
" id="DejaVuSans-34"/>
      </defs>
      <g transform="translate(181.519312 254.356562)scale(0.1 -0.1)">
       <use xlink:href="#DejaVuSans-30"/>
       <use x="63.623047" xlink:href="#DejaVuSans-2e"/>
       <use x="95.410156" xlink:href="#DejaVuSans-34"/>
      </g>
     </g>
    </g>
    <g id="xtick_4">
     <g id="line2d_4">
      <g>
       <use style="stroke:#000000;stroke-width:0.8;" x="249.933158" xlink:href="#ma04edb1c72" y="239.758125"/>
      </g>
     </g>
     <g id="text_4">
      <!-- 0.6 -->
      <defs>
       <path d="M 33.015625 40.375 
Q 26.375 40.375 22.484375 35.828125 
Q 18.609375 31.296875 18.609375 23.390625 
Q 18.609375 15.53125 22.484375 10.953125 
Q 26.375 6.390625 33.015625 6.390625 
Q 39.65625 6.390625 43.53125 10.953125 
Q 47.40625 15.53125 47.40625 23.390625 
Q 47.40625 31.296875 43.53125 35.828125 
Q 39.65625 40.375 33.015625 40.375 
z
M 52.59375 71.296875 
L 52.59375 62.3125 
Q 48.875 64.0625 45.09375 64.984375 
Q 41.3125 65.921875 37.59375 65.921875 
Q 27.828125 65.921875 22.671875 59.328125 
Q 17.53125 52.734375 16.796875 39.40625 
Q 19.671875 43.65625 24.015625 45.921875 
Q 28.375 48.1875 33.59375 48.1875 
Q 44.578125 48.1875 50.953125 41.515625 
Q 57.328125 34.859375 57.328125 23.390625 
Q 57.328125 12.15625 50.6875 5.359375 
Q 44.046875 -1.421875 33.015625 -1.421875 
Q 20.359375 -1.421875 13.671875 8.265625 
Q 6.984375 17.96875 6.984375 36.375 
Q 6.984375 53.65625 15.1875 63.9375 
Q 23.390625 74.21875 37.203125 74.21875 
Q 40.921875 74.21875 44.703125 73.484375 
Q 48.484375 72.75 52.59375 71.296875 
z
" id="DejaVuSans-36"/>
      </defs>
      <g transform="translate(241.981595 254.356562)scale(0.1 -0.1)">
       <use xlink:href="#DejaVuSans-30"/>
       <use x="63.623047" xlink:href="#DejaVuSans-2e"/>
       <use x="95.410156" xlink:href="#DejaVuSans-36"/>
      </g>
     </g>
    </g>
    <g id="xtick_5">
     <g id="line2d_5">
      <g>
       <use style="stroke:#000000;stroke-width:0.8;" x="310.395441" xlink:href="#ma04edb1c72" y="239.758125"/>
      </g>
     </g>
     <g id="text_5">
      <!-- 0.8 -->
      <defs>
       <path d="M 31.78125 34.625 
Q 24.75 34.625 20.71875 30.859375 
Q 16.703125 27.09375 16.703125 20.515625 
Q 16.703125 13.921875 20.71875 10.15625 
Q 24.75 6.390625 31.78125 6.390625 
Q 38.8125 6.390625 42.859375 10.171875 
Q 46.921875 13.96875 46.921875 20.515625 
Q 46.921875 27.09375 42.890625 30.859375 
Q 38.875 34.625 31.78125 34.625 
z
M 21.921875 38.8125 
Q 15.578125 40.375 12.03125 44.71875 
Q 8.5 49.078125 8.5 55.328125 
Q 8.5 64.0625 14.71875 69.140625 
Q 20.953125 74.21875 31.78125 74.21875 
Q 42.671875 74.21875 48.875 69.140625 
Q 55.078125 64.0625 55.078125 55.328125 
Q 55.078125 49.078125 51.53125 44.71875 
Q 48 40.375 41.703125 38.8125 
Q 48.828125 37.15625 52.796875 32.3125 
Q 56.78125 27.484375 56.78125 20.515625 
Q 56.78125 9.90625 50.3125 4.234375 
Q 43.84375 -1.421875 31.78125 -1.421875 
Q 19.734375 -1.421875 13.25 4.234375 
Q 6.78125 9.90625 6.78125 20.515625 
Q 6.78125 27.484375 10.78125 32.3125 
Q 14.796875 37.15625 21.921875 38.8125 
z
M 18.3125 54.390625 
Q 18.3125 48.734375 21.84375 45.5625 
Q 25.390625 42.390625 31.78125 42.390625 
Q 38.140625 42.390625 41.71875 45.5625 
Q 45.3125 48.734375 45.3125 54.390625 
Q 45.3125 60.0625 41.71875 63.234375 
Q 38.140625 66.40625 31.78125 66.40625 
Q 25.390625 66.40625 21.84375 63.234375 
Q 18.3125 60.0625 18.3125 54.390625 
z
" id="DejaVuSans-38"/>
      </defs>
      <g transform="translate(302.443879 254.356562)scale(0.1 -0.1)">
       <use xlink:href="#DejaVuSans-30"/>
       <use x="63.623047" xlink:href="#DejaVuSans-2e"/>
       <use x="95.410156" xlink:href="#DejaVuSans-38"/>
      </g>
     </g>
    </g>
    <g id="xtick_6">
     <g id="line2d_6">
      <g>
       <use style="stroke:#000000;stroke-width:0.8;" x="370.857725" xlink:href="#ma04edb1c72" y="239.758125"/>
      </g>
     </g>
     <g id="text_6">
      <!-- 1.0 -->
      <defs>
       <path d="M 12.40625 8.296875 
L 28.515625 8.296875 
L 28.515625 63.921875 
L 10.984375 60.40625 
L 10.984375 69.390625 
L 28.421875 72.90625 
L 38.28125 72.90625 
L 38.28125 8.296875 
L 54.390625 8.296875 
L 54.390625 0 
L 12.40625 0 
z
" id="DejaVuSans-31"/>
      </defs>
      <g transform="translate(362.906163 254.356562)scale(0.1 -0.1)">
       <use xlink:href="#DejaVuSans-31"/>
       <use x="63.623047" xlink:href="#DejaVuSans-2e"/>
       <use x="95.410156" xlink:href="#DejaVuSans-30"/>
      </g>
     </g>
    </g>
    <g id="text_7">
     <!-- Time (ms) -->
     <defs>
      <path d="M -0.296875 72.90625 
L 61.375 72.90625 
L 61.375 64.59375 
L 35.5 64.59375 
L 35.5 0 
L 25.59375 0 
L 25.59375 64.59375 
L -0.296875 64.59375 
z
" id="DejaVuSans-54"/>
      <path d="M 9.421875 54.6875 
L 18.40625 54.6875 
L 18.40625 0 
L 9.421875 0 
z
M 9.421875 75.984375 
L 18.40625 75.984375 
L 18.40625 64.59375 
L 9.421875 64.59375 
z
" id="DejaVuSans-69"/>
      <path d="M 52 44.1875 
Q 55.375 50.25 60.0625 53.125 
Q 64.75 56 71.09375 56 
Q 79.640625 56 84.28125 50.015625 
Q 88.921875 44.046875 88.921875 33.015625 
L 88.921875 0 
L 79.890625 0 
L 79.890625 32.71875 
Q 79.890625 40.578125 77.09375 44.375 
Q 74.3125 48.1875 68.609375 48.1875 
Q 61.625 48.1875 57.5625 43.546875 
Q 53.515625 38.921875 53.515625 30.90625 
L 53.515625 0 
L 44.484375 0 
L 44.484375 32.71875 
Q 44.484375 40.625 41.703125 44.40625 
Q 38.921875 48.1875 33.109375 48.1875 
Q 26.21875 48.1875 22.15625 43.53125 
Q 18.109375 38.875 18.109375 30.90625 
L 18.109375 0 
L 9.078125 0 
L 9.078125 54.6875 
L 18.109375 54.6875 
L 18.109375 46.1875 
Q 21.1875 51.21875 25.484375 53.609375 
Q 29.78125 56 35.6875 56 
Q 41.65625 56 45.828125 52.96875 
Q 50 49.953125 52 44.1875 
z
" id="DejaVuSans-6d"/>
      <path d="M 56.203125 29.59375 
L 56.203125 25.203125 
L 14.890625 25.203125 
Q 15.484375 15.921875 20.484375 11.0625 
Q 25.484375 6.203125 34.421875 6.203125 
Q 39.59375 6.203125 44.453125 7.46875 
Q 49.3125 8.734375 54.109375 11.28125 
L 54.109375 2.78125 
Q 49.265625 0.734375 44.1875 -0.34375 
Q 39.109375 -1.421875 33.890625 -1.421875 
Q 20.796875 -1.421875 13.15625 6.1875 
Q 5.515625 13.8125 5.515625 26.8125 
Q 5.515625 40.234375 12.765625 48.109375 
Q 20.015625 56 32.328125 56 
Q 43.359375 56 49.78125 48.890625 
Q 56.203125 41.796875 56.203125 29.59375 
z
M 47.21875 32.234375 
Q 47.125 39.59375 43.09375 43.984375 
Q 39.0625 48.390625 32.421875 48.390625 
Q 24.90625 48.390625 20.390625 44.140625 
Q 15.875 39.890625 15.1875 32.171875 
z
" id="DejaVuSans-65"/>
      <path id="DejaVuSans-20"/>
      <path d="M 31 75.875 
Q 24.46875 64.65625 21.28125 53.65625 
Q 18.109375 42.671875 18.109375 31.390625 
Q 18.109375 20.125 21.3125 9.0625 
Q 24.515625 -2 31 -13.1875 
L 23.1875 -13.1875 
Q 15.875 -1.703125 12.234375 9.375 
Q 8.59375 20.453125 8.59375 31.390625 
Q 8.59375 42.28125 12.203125 53.3125 
Q 15.828125 64.359375 23.1875 75.875 
z
" id="DejaVuSans-28"/>
      <path d="M 44.28125 53.078125 
L 44.28125 44.578125 
Q 40.484375 46.53125 36.375 47.5 
Q 32.28125 48.484375 27.875 48.484375 
Q 21.1875 48.484375 17.84375 46.4375 
Q 14.5 44.390625 14.5 40.28125 
Q 14.5 37.15625 16.890625 35.375 
Q 19.28125 33.59375 26.515625 31.984375 
L 29.59375 31.296875 
Q 39.15625 29.25 43.1875 25.515625 
Q 47.21875 21.78125 47.21875 15.09375 
Q 47.21875 7.46875 41.1875 3.015625 
Q 35.15625 -1.421875 24.609375 -1.421875 
Q 20.21875 -1.421875 15.453125 -0.5625 
Q 10.6875 0.296875 5.421875 2 
L 5.421875 11.28125 
Q 10.40625 8.6875 15.234375 7.390625 
Q 20.0625 6.109375 24.8125 6.109375 
Q 31.15625 6.109375 34.5625 8.28125 
Q 37.984375 10.453125 37.984375 14.40625 
Q 37.984375 18.0625 35.515625 20.015625 
Q 33.0625 21.96875 24.703125 23.78125 
L 21.578125 24.515625 
Q 13.234375 26.265625 9.515625 29.90625 
Q 5.8125 33.546875 5.8125 39.890625 
Q 5.8125 47.609375 11.28125 51.796875 
Q 16.75 56 26.8125 56 
Q 31.78125 56 36.171875 55.265625 
Q 40.578125 54.546875 44.28125 53.078125 
z
" id="DejaVuSans-73"/>
      <path d="M 8.015625 75.875 
L 15.828125 75.875 
Q 23.140625 64.359375 26.78125 53.3125 
Q 30.421875 42.28125 30.421875 31.390625 
Q 30.421875 20.453125 26.78125 9.375 
Q 23.140625 -1.703125 15.828125 -13.1875 
L 8.015625 -13.1875 
Q 14.5 -2 17.703125 9.0625 
Q 20.90625 20.125 20.90625 31.390625 
Q 20.90625 42.671875 17.703125 53.65625 
Q 14.5 64.65625 8.015625 75.875 
z
" id="DejaVuSans-29"/>
     </defs>
     <g transform="translate(195.375 268.034687)scale(0.1 -0.1)">
      <use xlink:href="#DejaVuSans-54"/>
      <use x="61.037109" xlink:href="#DejaVuSans-69"/>
      <use x="88.820312" xlink:href="#DejaVuSans-6d"/>
      <use x="186.232422" xlink:href="#DejaVuSans-65"/>
      <use x="247.755859" xlink:href="#DejaVuSans-20"/>
      <use x="279.542969" xlink:href="#DejaVuSans-28"/>
      <use x="318.556641" xlink:href="#DejaVuSans-6d"/>
      <use x="415.96875" xlink:href="#DejaVuSans-73"/>
      <use x="468.068359" xlink:href="#DejaVuSans-29"/>
     </g>
    </g>
   </g>
   <g id="matplotlib.axis_2">
    <g id="ytick_1">
     <g id="line2d_7">
      <defs>
       <path d="M 0 0 
L -3.5 0 
" id="m980908699c" style="stroke:#000000;stroke-width:0.8;"/>
      </defs>
      <g>
       <use style="stroke:#000000;stroke-width:0.8;" x="53.328125" xlink:href="#m980908699c" y="222.904212"/>
      </g>
     </g>
     <g id="text_8">
      <!-- 1000 -->
      <g transform="translate(20.878125 226.703431)scale(0.1 -0.1)">
       <use xlink:href="#DejaVuSans-31"/>
       <use x="63.623047" xlink:href="#DejaVuSans-30"/>
       <use x="127.246094" xlink:href="#DejaVuSans-30"/>
       <use x="190.869141" xlink:href="#DejaVuSans-30"/>
      </g>
     </g>
    </g>
    <g id="ytick_2">
     <g id="line2d_8">
      <g>
       <use style="stroke:#000000;stroke-width:0.8;" x="53.328125" xlink:href="#m980908699c" y="183.221121"/>
      </g>
     </g>
     <g id="text_9">
      <!-- 1500 -->
      <defs>
       <path d="M 10.796875 72.90625 
L 49.515625 72.90625 
L 49.515625 64.59375 
L 19.828125 64.59375 
L 19.828125 46.734375 
Q 21.96875 47.46875 24.109375 47.828125 
Q 26.265625 48.1875 28.421875 48.1875 
Q 40.625 48.1875 47.75 41.5 
Q 54.890625 34.8125 54.890625 23.390625 
Q 54.890625 11.625 47.5625 5.09375 
Q 40.234375 -1.421875 26.90625 -1.421875 
Q 22.3125 -1.421875 17.546875 -0.640625 
Q 12.796875 0.140625 7.71875 1.703125 
L 7.71875 11.625 
Q 12.109375 9.234375 16.796875 8.0625 
Q 21.484375 6.890625 26.703125 6.890625 
Q 35.15625 6.890625 40.078125 11.328125 
Q 45.015625 15.765625 45.015625 23.390625 
Q 45.015625 31 40.078125 35.4375 
Q 35.15625 39.890625 26.703125 39.890625 
Q 22.75 39.890625 18.8125 39.015625 
Q 14.890625 38.140625 10.796875 36.28125 
z
" id="DejaVuSans-35"/>
      </defs>
      <g transform="translate(20.878125 187.02034)scale(0.1 -0.1)">
       <use xlink:href="#DejaVuSans-31"/>
       <use x="63.623047" xlink:href="#DejaVuSans-35"/>
       <use x="127.246094" xlink:href="#DejaVuSans-30"/>
       <use x="190.869141" xlink:href="#DejaVuSans-30"/>
      </g>
     </g>
    </g>
    <g id="ytick_3">
     <g id="line2d_9">
      <g>
       <use style="stroke:#000000;stroke-width:0.8;" x="53.328125" xlink:href="#m980908699c" y="143.538029"/>
      </g>
     </g>
     <g id="text_10">
      <!-- 2000 -->
      <g transform="translate(20.878125 147.337248)scale(0.1 -0.1)">
       <use xlink:href="#DejaVuSans-32"/>
       <use x="63.623047" xlink:href="#DejaVuSans-30"/>
       <use x="127.246094" xlink:href="#DejaVuSans-30"/>
       <use x="190.869141" xlink:href="#DejaVuSans-30"/>
      </g>
     </g>
    </g>
    <g id="ytick_4">
     <g id="line2d_10">
      <g>
       <use style="stroke:#000000;stroke-width:0.8;" x="53.328125" xlink:href="#m980908699c" y="103.854938"/>
      </g>
     </g>
     <g id="text_11">
      <!-- 2500 -->
      <g transform="translate(20.878125 107.654157)scale(0.1 -0.1)">
       <use xlink:href="#DejaVuSans-32"/>
       <use x="63.623047" xlink:href="#DejaVuSans-35"/>
       <use x="127.246094" xlink:href="#DejaVuSans-30"/>
       <use x="190.869141" xlink:href="#DejaVuSans-30"/>
      </g>
     </g>
    </g>
    <g id="ytick_5">
     <g id="line2d_11">
      <g>
       <use style="stroke:#000000;stroke-width:0.8;" x="53.328125" xlink:href="#m980908699c" y="64.171846"/>
      </g>
     </g>
     <g id="text_12">
      <!-- 3000 -->
      <defs>
       <path d="M 40.578125 39.3125 
Q 47.65625 37.796875 51.625 33 
Q 55.609375 28.21875 55.609375 21.1875 
Q 55.609375 10.40625 48.1875 4.484375 
Q 40.765625 -1.421875 27.09375 -1.421875 
Q 22.515625 -1.421875 17.65625 -0.515625 
Q 12.796875 0.390625 7.625 2.203125 
L 7.625 11.71875 
Q 11.71875 9.328125 16.59375 8.109375 
Q 21.484375 6.890625 26.8125 6.890625 
Q 36.078125 6.890625 40.9375 10.546875 
Q 45.796875 14.203125 45.796875 21.1875 
Q 45.796875 27.640625 41.28125 31.265625 
Q 36.765625 34.90625 28.71875 34.90625 
L 20.21875 34.90625 
L 20.21875 43.015625 
L 29.109375 43.015625 
Q 36.375 43.015625 40.234375 45.921875 
Q 44.09375 48.828125 44.09375 54.296875 
Q 44.09375 59.90625 40.109375 62.90625 
Q 36.140625 65.921875 28.71875 65.921875 
Q 24.65625 65.921875 20.015625 65.03125 
Q 15.375 64.15625 9.8125 62.3125 
L 9.8125 71.09375 
Q 15.4375 72.65625 20.34375 73.4375 
Q 25.25 74.21875 29.59375 74.21875 
Q 40.828125 74.21875 47.359375 69.109375 
Q 53.90625 64.015625 53.90625 55.328125 
Q 53.90625 49.265625 50.4375 45.09375 
Q 46.96875 40.921875 40.578125 39.3125 
z
" id="DejaVuSans-33"/>
      </defs>
      <g transform="translate(20.878125 67.971065)scale(0.1 -0.1)">
       <use xlink:href="#DejaVuSans-33"/>
       <use x="63.623047" xlink:href="#DejaVuSans-30"/>
       <use x="127.246094" xlink:href="#DejaVuSans-30"/>
       <use x="190.869141" xlink:href="#DejaVuSans-30"/>
      </g>
     </g>
    </g>
    <g id="ytick_6">
     <g id="line2d_12">
      <g>
       <use style="stroke:#000000;stroke-width:0.8;" x="53.328125" xlink:href="#m980908699c" y="24.488755"/>
      </g>
     </g>
     <g id="text_13">
      <!-- 3500 -->
      <g transform="translate(20.878125 28.287974)scale(0.1 -0.1)">
       <use xlink:href="#DejaVuSans-33"/>
       <use x="63.623047" xlink:href="#DejaVuSans-35"/>
       <use x="127.246094" xlink:href="#DejaVuSans-30"/>
       <use x="190.869141" xlink:href="#DejaVuSans-30"/>
      </g>
     </g>
    </g>
    <g id="text_14">
     <!-- ppmH2O -->
     <defs>
      <path d="M 18.109375 8.203125 
L 18.109375 -20.796875 
L 9.078125 -20.796875 
L 9.078125 54.6875 
L 18.109375 54.6875 
L 18.109375 46.390625 
Q 20.953125 51.265625 25.265625 53.625 
Q 29.59375 56 35.59375 56 
Q 45.5625 56 51.78125 48.09375 
Q 58.015625 40.1875 58.015625 27.296875 
Q 58.015625 14.40625 51.78125 6.484375 
Q 45.5625 -1.421875 35.59375 -1.421875 
Q 29.59375 -1.421875 25.265625 0.953125 
Q 20.953125 3.328125 18.109375 8.203125 
z
M 48.6875 27.296875 
Q 48.6875 37.203125 44.609375 42.84375 
Q 40.53125 48.484375 33.40625 48.484375 
Q 26.265625 48.484375 22.1875 42.84375 
Q 18.109375 37.203125 18.109375 27.296875 
Q 18.109375 17.390625 22.1875 11.75 
Q 26.265625 6.109375 33.40625 6.109375 
Q 40.53125 6.109375 44.609375 11.75 
Q 48.6875 17.390625 48.6875 27.296875 
z
" id="DejaVuSans-70"/>
      <path d="M 9.8125 72.90625 
L 19.671875 72.90625 
L 19.671875 43.015625 
L 55.515625 43.015625 
L 55.515625 72.90625 
L 65.375 72.90625 
L 65.375 0 
L 55.515625 0 
L 55.515625 34.71875 
L 19.671875 34.71875 
L 19.671875 0 
L 9.8125 0 
z
" id="DejaVuSans-48"/>
      <path d="M 39.40625 66.21875 
Q 28.65625 66.21875 22.328125 58.203125 
Q 16.015625 50.203125 16.015625 36.375 
Q 16.015625 22.609375 22.328125 14.59375 
Q 28.65625 6.59375 39.40625 6.59375 
Q 50.140625 6.59375 56.421875 14.59375 
Q 62.703125 22.609375 62.703125 36.375 
Q 62.703125 50.203125 56.421875 58.203125 
Q 50.140625 66.21875 39.40625 66.21875 
z
M 39.40625 74.21875 
Q 54.734375 74.21875 63.90625 63.9375 
Q 73.09375 53.65625 73.09375 36.375 
Q 73.09375 19.140625 63.90625 8.859375 
Q 54.734375 -1.421875 39.40625 -1.421875 
Q 24.03125 -1.421875 14.8125 8.828125 
Q 5.609375 19.09375 5.609375 36.375 
Q 5.609375 53.65625 14.8125 63.9375 
Q 24.03125 74.21875 39.40625 74.21875 
z
" id="DejaVuSans-4f"/>
     </defs>
     <g transform="translate(14.798438 153.134219)rotate(-90)scale(0.1 -0.1)">
      <use xlink:href="#DejaVuSans-70"/>
      <use x="63.476562" xlink:href="#DejaVuSans-70"/>
      <use x="126.953125" xlink:href="#DejaVuSans-6d"/>
      <use x="224.365234" xlink:href="#DejaVuSans-48"/>
      <use x="299.560547" xlink:href="#DejaVuSans-32"/>
      <use x="363.183594" xlink:href="#DejaVuSans-4f"/>
     </g>
    </g>
   </g>
   <g id="line2d_13">
    <path clip-path="url(#p9d8e36b064)" d="M 68.546307 213.933625 
L 68.782577 213.842873 
L 69.086689 213.482904 
L 69.531116 212.547909 
L 70.137153 210.665188 
L 70.990802 207.191059 
L 72.397516 200.348373 
L 77.269423 175.898033 
L 79.662599 165.246811 
L 82.063276 155.519867 
L 84.619732 146.106566 
L 87.186786 137.53325 
L 89.764439 129.723281 
L 92.342093 122.638112 
L 94.919746 116.210791 
L 97.4974 110.381066 
L 100.161406 104.925927 
L 102.823527 99.999071 
L 105.451671 95.600587 
L 108.079816 91.620713 
L 110.707961 88.019679 
L 113.566951 84.49038 
L 116.581834 81.161617 
L 119.444024 78.335141 
L 122.217865 75.873343 
L 124.846695 73.766787 
L 128.161501 71.39139 
L 131.645709 69.193659 
L 135.14159 67.258274 
L 139.345986 65.240483 
L 143.550381 63.513045 
L 147.754777 62.032539 
L 151.959172 60.762169 
L 157.114772 59.445846 
L 162.389212 58.328034 
L 168.745019 57.230248 
L 175.100826 56.350286 
L 182.515933 55.538559 
L 190.990342 54.827244 
L 201.583353 54.174779 
L 214.294966 53.631351 
L 230.184483 53.187473 
L 251.370505 52.832591 
L 282.090237 52.561131 
L 331.407858 52.37173 
L 371.98547 52.30289 
L 371.98547 52.30289 
" style="fill:none;stroke:#0000ff;stroke-linecap:square;stroke-width:1.5;"/>
   </g>
   <g id="line2d_14">
    <path clip-path="url(#p9d8e36b064)" d="M 68.546307 213.933625 
L 68.840658 213.830662 
L 69.200773 213.443368 
L 69.628215 212.655712 
L 70.206647 211.105899 
L 70.977889 208.336776 
L 72.006213 203.726993 
L 73.523936 195.801486 
L 78.929922 166.796116 
L 81.275648 155.805171 
L 83.548661 146.213581 
L 85.748624 137.832275 
L 88.060362 129.880399 
L 90.382761 122.680218 
L 92.705159 116.186585 
L 95.010284 110.368001 
L 97.326702 105.086527 
L 99.610951 100.378745 
L 101.8952 96.11924 
L 104.377739 91.947779 
L 107.000481 88.005072 
L 109.439607 84.721308 
L 112.006614 81.621391 
L 114.400316 79.0256 
L 117.238346 76.2765 
L 120.571902 73.448607 
L 123.43649 71.32148 
L 126.786724 69.142222 
L 130.136958 67.25184 
L 133.487191 65.610569 
L 136.837425 64.184189 
L 141.167469 62.611624 
L 145.455437 61.307297 
L 149.963771 60.16023 
L 155.223494 59.059236 
L 161.234606 58.050569 
L 167.997106 57.162144 
L 175.510996 56.404936 
L 184.527663 55.727689 
L 195.42545 55.141707 
L 208.961036 54.643063 
L 227.008485 54.213208 
L 251.823727 53.857802 
L 289.04659 53.56566 
L 349.771631 53.333333 
L 372.909943 53.279095 
L 372.909943 53.279095 
" style="fill:none;stroke:#ff0000;stroke-linecap:square;stroke-width:1.5;"/>
   </g>
   <g id="line2d_15">
    <defs>
     <path d="M 0 3 
C 0.795609 3 1.55874 2.683901 2.12132 2.12132 
C 2.683901 1.55874 3 0.795609 3 0 
C 3 -0.795609 2.683901 -1.55874 2.12132 -2.12132 
C 1.55874 -2.683901 0.795609 -3 0 -3 
C -0.795609 -3 -1.55874 -2.683901 -2.12132 -2.12132 
C -2.683901 -1.55874 -3 -0.795609 -3 0 
C -3 0.795609 -2.683901 1.55874 -2.12132 2.12132 
C -1.55874 2.683901 -0.795609 3 0 3 
z
" id="m635ffad3e5" style="stroke:#000000;"/>
    </defs>
    <g clip-path="url(#p9d8e36b064)">
     <use style="stroke:#000000;" x="68.546307" xlink:href="#m635ffad3e5" y="213.933453"/>
     <use style="stroke:#000000;" x="68.546311" xlink:href="#m635ffad3e5" y="213.933453"/>
     <use style="stroke:#000000;" x="68.546326" xlink:href="#m635ffad3e5" y="213.933453"/>
     <use style="stroke:#000000;" x="68.546341" xlink:href="#m635ffad3e5" y="213.933453"/>
     <use style="stroke:#000000;" x="68.546355" xlink:href="#m635ffad3e5" y="213.933453"/>
     <use style="stroke:#000000;" x="68.54637" xlink:href="#m635ffad3e5" y="213.933453"/>
     <use style="stroke:#000000;" x="68.546401" xlink:href="#m635ffad3e5" y="213.933453"/>
     <use style="stroke:#000000;" x="68.546459" xlink:href="#m635ffad3e5" y="213.933453"/>
     <use style="stroke:#000000;" x="68.546561" xlink:href="#m635ffad3e5" y="213.933453"/>
     <use style="stroke:#000000;" x="68.546742" xlink:href="#m635ffad3e5" y="213.933453"/>
     <use style="stroke:#000000;" x="68.547087" xlink:href="#m635ffad3e5" y="213.933453"/>
     <use style="stroke:#000000;" x="68.547785" xlink:href="#m635ffad3e5" y="213.933453"/>
     <use style="stroke:#000000;" x="68.548483" xlink:href="#m635ffad3e5" y="213.933453"/>
     <use style="stroke:#000000;" x="68.549182" xlink:href="#m635ffad3e5" y="213.933453"/>
     <use style="stroke:#000000;" x="68.549874" xlink:href="#m635ffad3e5" y="213.933453"/>
     <use style="stroke:#000000;" x="68.550569" xlink:href="#m635ffad3e5" y="213.933453"/>
     <use style="stroke:#000000;" x="68.551265" xlink:href="#m635ffad3e5" y="213.933453"/>
     <use style="stroke:#000000;" x="68.55199" xlink:href="#m635ffad3e5" y="213.933453"/>
     <use style="stroke:#000000;" x="68.553623" xlink:href="#m635ffad3e5" y="213.933453"/>
     <use style="stroke:#000000;" x="68.555285" xlink:href="#m635ffad3e5" y="213.933453"/>
     <use style="stroke:#000000;" x="68.556948" xlink:href="#m635ffad3e5" y="213.933453"/>
     <use style="stroke:#000000;" x="68.558611" xlink:href="#m635ffad3e5" y="213.933453"/>
     <use style="stroke:#000000;" x="68.560274" xlink:href="#m635ffad3e5" y="213.933453"/>
     <use style="stroke:#000000;" x="68.564506" xlink:href="#m635ffad3e5" y="213.932659"/>
     <use style="stroke:#000000;" x="68.571036" xlink:href="#m635ffad3e5" y="213.932659"/>
     <use style="stroke:#000000;" x="68.577445" xlink:href="#m635ffad3e5" y="213.931865"/>
     <use style="stroke:#000000;" x="68.584096" xlink:href="#m635ffad3e5" y="213.931072"/>
     <use style="stroke:#000000;" x="68.590747" xlink:href="#m635ffad3e5" y="213.929484"/>
     <use style="stroke:#000000;" x="68.597095" xlink:href="#m635ffad3e5" y="213.928691"/>
     <use style="stroke:#000000;" x="68.603746" xlink:href="#m635ffad3e5" y="213.927103"/>
     <use style="stroke:#000000;" x="68.610397" xlink:href="#m635ffad3e5" y="213.925516"/>
     <use style="stroke:#000000;" x="68.617048" xlink:href="#m635ffad3e5" y="213.923135"/>
     <use style="stroke:#000000;" x="68.623699" xlink:href="#m635ffad3e5" y="213.921548"/>
     <use style="stroke:#000000;" x="68.630349" xlink:href="#m635ffad3e5" y="213.919167"/>
     <use style="stroke:#000000;" x="68.643651" xlink:href="#m635ffad3e5" y="213.914405"/>
     <use style="stroke:#000000;" x="68.65665" xlink:href="#m635ffad3e5" y="213.908849"/>
     <use style="stroke:#000000;" x="68.66965" xlink:href="#m635ffad3e5" y="213.903293"/>
     <use style="stroke:#000000;" x="68.682649" xlink:href="#m635ffad3e5" y="213.89615"/>
     <use style="stroke:#000000;" x="68.695649" xlink:href="#m635ffad3e5" y="213.889008"/>
     <use style="stroke:#000000;" x="68.708648" xlink:href="#m635ffad3e5" y="213.880277"/>
     <use style="stroke:#000000;" x="68.72195" xlink:href="#m635ffad3e5" y="213.871547"/>
     <use style="stroke:#000000;" x="68.734949" xlink:href="#m635ffad3e5" y="213.862817"/>
     <use style="stroke:#000000;" x="68.757622" xlink:href="#m635ffad3e5" y="213.844562"/>
     <use style="stroke:#000000;" x="68.779994" xlink:href="#m635ffad3e5" y="213.825515"/>
     <use style="stroke:#000000;" x="68.802667" xlink:href="#m635ffad3e5" y="213.804086"/>
     <use style="stroke:#000000;" x="68.82534" xlink:href="#m635ffad3e5" y="213.78107"/>
     <use style="stroke:#000000;" x="68.848014" xlink:href="#m635ffad3e5" y="213.755672"/>
     <use style="stroke:#000000;" x="68.86978" xlink:href="#m635ffad3e5" y="213.729481"/>
     <use style="stroke:#000000;" x="68.893965" xlink:href="#m635ffad3e5" y="213.70091"/>
     <use style="stroke:#000000;" x="68.915127" xlink:href="#m635ffad3e5" y="213.670751"/>
     <use style="stroke:#000000;" x="68.951404" xlink:href="#m635ffad3e5" y="213.619956"/>
     <use style="stroke:#000000;" x="68.987681" xlink:href="#m635ffad3e5" y="213.565193"/>
     <use style="stroke:#000000;" x="69.020936" xlink:href="#m635ffad3e5" y="213.506463"/>
     <use style="stroke:#000000;" x="69.057213" xlink:href="#m635ffad3e5" y="213.443763"/>
     <use style="stroke:#000000;" x="69.09349" xlink:href="#m635ffad3e5" y="213.377889"/>
     <use style="stroke:#000000;" x="69.129768" xlink:href="#m635ffad3e5" y="213.308047"/>
     <use style="stroke:#000000;" x="69.166045" xlink:href="#m635ffad3e5" y="213.23503"/>
     <use style="stroke:#000000;" x="69.199299" xlink:href="#m635ffad3e5" y="213.158045"/>
     <use style="stroke:#000000;" x="69.235577" xlink:href="#m635ffad3e5" y="213.077885"/>
     <use style="stroke:#000000;" x="69.271854" xlink:href="#m635ffad3e5" y="212.994551"/>
     <use style="stroke:#000000;" x="69.308132" xlink:href="#m635ffad3e5" y="212.908042"/>
     <use style="stroke:#000000;" x="69.341386" xlink:href="#m635ffad3e5" y="212.817564"/>
     <use style="stroke:#000000;" x="69.377663" xlink:href="#m635ffad3e5" y="212.724706"/>
     <use style="stroke:#000000;" x="69.413941" xlink:href="#m635ffad3e5" y="212.629466"/>
     <use style="stroke:#000000;" x="69.450218" xlink:href="#m635ffad3e5" y="212.530258"/>
     <use style="stroke:#000000;" x="69.483472" xlink:href="#m635ffad3e5" y="212.429463"/>
     <use style="stroke:#000000;" x="69.51975" xlink:href="#m635ffad3e5" y="212.3247"/>
     <use style="stroke:#000000;" x="69.556027" xlink:href="#m635ffad3e5" y="212.218349"/>
     <use style="stroke:#000000;" x="69.592304" xlink:href="#m635ffad3e5" y="212.108824"/>
     <use style="stroke:#000000;" x="69.625559" xlink:href="#m635ffad3e5" y="211.996124"/>
     <use style="stroke:#000000;" x="69.661836" xlink:href="#m635ffad3e5" y="211.881837"/>
     <use style="stroke:#000000;" x="69.698113" xlink:href="#m635ffad3e5" y="211.765168"/>
     <use style="stroke:#000000;" x="69.734391" xlink:href="#m635ffad3e5" y="211.645326"/>
     <use style="stroke:#000000;" x="69.770668" xlink:href="#m635ffad3e5" y="211.523895"/>
     <use style="stroke:#000000;" x="69.803922" xlink:href="#m635ffad3e5" y="211.400084"/>
     <use style="stroke:#000000;" x="69.8402" xlink:href="#m635ffad3e5" y="211.273892"/>
     <use style="stroke:#000000;" x="69.876477" xlink:href="#m635ffad3e5" y="211.146112"/>
     <use style="stroke:#000000;" x="69.912754" xlink:href="#m635ffad3e5" y="211.015952"/>
     <use style="stroke:#000000;" x="69.946009" xlink:href="#m635ffad3e5" y="210.884204"/>
     <use style="stroke:#000000;" x="69.982286" xlink:href="#m635ffad3e5" y="210.750075"/>
     <use style="stroke:#000000;" x="70.018563" xlink:href="#m635ffad3e5" y="210.613565"/>
     <use style="stroke:#000000;" x="70.054841" xlink:href="#m635ffad3e5" y="210.476262"/>
     <use style="stroke:#000000;" x="70.088095" xlink:href="#m635ffad3e5" y="210.336577"/>
     <use style="stroke:#000000;" x="70.142511" xlink:href="#m635ffad3e5" y="210.123082"/>
     <use style="stroke:#000000;" x="70.196927" xlink:href="#m635ffad3e5" y="209.905619"/>
     <use style="stroke:#000000;" x="70.251343" xlink:href="#m635ffad3e5" y="209.684981"/>
     <use style="stroke:#000000;" x="70.302736" xlink:href="#m635ffad3e5" y="209.460375"/>
     <use style="stroke:#000000;" x="70.357152" xlink:href="#m635ffad3e5" y="209.232594"/>
     <use style="stroke:#000000;" x="70.411568" xlink:href="#m635ffad3e5" y="209.002432"/>
     <use style="stroke:#000000;" x="70.462961" xlink:href="#m635ffad3e5" y="208.768301"/>
     <use style="stroke:#000000;" x="70.517377" xlink:href="#m635ffad3e5" y="208.53179"/>
     <use style="stroke:#000000;" x="70.571793" xlink:href="#m635ffad3e5" y="208.292104"/>
     <use style="stroke:#000000;" x="70.626209" xlink:href="#m635ffad3e5" y="208.050037"/>
     <use style="stroke:#000000;" x="70.677602" xlink:href="#m635ffad3e5" y="207.80559"/>
     <use style="stroke:#000000;" x="70.732018" xlink:href="#m635ffad3e5" y="207.557967"/>
     <use style="stroke:#000000;" x="70.786434" xlink:href="#m635ffad3e5" y="207.308757"/>
     <use style="stroke:#000000;" x="70.837827" xlink:href="#m635ffad3e5" y="207.05796"/>
     <use style="stroke:#000000;" x="70.892243" xlink:href="#m635ffad3e5" y="206.803988"/>
     <use style="stroke:#000000;" x="70.946659" xlink:href="#m635ffad3e5" y="206.548429"/>
     <use style="stroke:#000000;" x="71.001076" xlink:href="#m635ffad3e5" y="206.291283"/>
     <use style="stroke:#000000;" x="71.052468" xlink:href="#m635ffad3e5" y="206.032549"/>
     <use style="stroke:#000000;" x="71.106885" xlink:href="#m635ffad3e5" y="205.771434"/>
     <use style="stroke:#000000;" x="71.161301" xlink:href="#m635ffad3e5" y="205.509526"/>
     <use style="stroke:#000000;" x="71.212694" xlink:href="#m635ffad3e5" y="205.245237"/>
     <use style="stroke:#000000;" x="71.26711" xlink:href="#m635ffad3e5" y="204.980153"/>
     <use style="stroke:#000000;" x="71.321526" xlink:href="#m635ffad3e5" y="204.713483"/>
     <use style="stroke:#000000;" x="71.375942" xlink:href="#m635ffad3e5" y="204.446019"/>
     <use style="stroke:#000000;" x="71.427335" xlink:href="#m635ffad3e5" y="204.176968"/>
     <use style="stroke:#000000;" x="71.481751" xlink:href="#m635ffad3e5" y="203.907123"/>
     <use style="stroke:#000000;" x="71.536167" xlink:href="#m635ffad3e5" y="203.636484"/>
     <use style="stroke:#000000;" x="71.599652" xlink:href="#m635ffad3e5" y="203.364258"/>
     <use style="stroke:#000000;" x="71.629883" xlink:href="#m635ffad3e5" y="203.092032"/>
     <use style="stroke:#000000;" x="71.690346" xlink:href="#m635ffad3e5" y="202.818219"/>
     <use style="stroke:#000000;" x="71.750808" xlink:href="#m635ffad3e5" y="202.543612"/>
     <use style="stroke:#000000;" x="71.81127" xlink:href="#m635ffad3e5" y="202.269005"/>
     <use style="stroke:#000000;" x="71.871732" xlink:href="#m635ffad3e5" y="201.99281"/>
     <use style="stroke:#000000;" x="71.901964" xlink:href="#m635ffad3e5" y="201.716616"/>
     <use style="stroke:#000000;" x="71.962426" xlink:href="#m635ffad3e5" y="201.440422"/>
     <use style="stroke:#000000;" x="72.053119" xlink:href="#m635ffad3e5" y="201.020575"/>
     <use style="stroke:#000000;" x="72.113582" xlink:href="#m635ffad3e5" y="200.599934"/>
     <use style="stroke:#000000;" x="72.204275" xlink:href="#m635ffad3e5" y="200.179293"/>
     <use style="stroke:#000000;" x="72.294968" xlink:href="#m635ffad3e5" y="199.757065"/>
     <use style="stroke:#000000;" x="72.355431" xlink:href="#m635ffad3e5" y="199.334837"/>
     <use style="stroke:#000000;" x="72.446124" xlink:href="#m635ffad3e5" y="198.912609"/>
     <use style="stroke:#000000;" x="72.536818" xlink:href="#m635ffad3e5" y="198.489587"/>
     <use style="stroke:#000000;" x="72.59728" xlink:href="#m635ffad3e5" y="198.066565"/>
     <use style="stroke:#000000;" x="72.687973" xlink:href="#m635ffad3e5" y="197.644337"/>
     <use style="stroke:#000000;" x="72.778667" xlink:href="#m635ffad3e5" y="197.221315"/>
     <use style="stroke:#000000;" x="72.86936" xlink:href="#m635ffad3e5" y="196.799087"/>
     <use style="stroke:#000000;" x="72.929822" xlink:href="#m635ffad3e5" y="196.376859"/>
     <use style="stroke:#000000;" x="73.020516" xlink:href="#m635ffad3e5" y="195.954631"/>
     <use style="stroke:#000000;" x="73.111209" xlink:href="#m635ffad3e5" y="195.533197"/>
     <use style="stroke:#000000;" x="73.171672" xlink:href="#m635ffad3e5" y="195.112556"/>
     <use style="stroke:#000000;" x="73.262365" xlink:href="#m635ffad3e5" y="194.692709"/>
     <use style="stroke:#000000;" x="73.353058" xlink:href="#m635ffad3e5" y="194.272862"/>
     <use style="stroke:#000000;" x="73.413521" xlink:href="#m635ffad3e5" y="193.854602"/>
     <use style="stroke:#000000;" x="73.504214" xlink:href="#m635ffad3e5" y="193.436342"/>
     <use style="stroke:#000000;" x="73.594908" xlink:href="#m635ffad3e5" y="193.01967"/>
     <use style="stroke:#000000;" x="73.65537" xlink:href="#m635ffad3e5" y="192.602997"/>
     <use style="stroke:#000000;" x="73.746063" xlink:href="#m635ffad3e5" y="192.187912"/>
     <use style="stroke:#000000;" x="73.836757" xlink:href="#m635ffad3e5" y="191.773621"/>
     <use style="stroke:#000000;" x="73.897219" xlink:href="#m635ffad3e5" y="191.360123"/>
     <use style="stroke:#000000;" x="73.987912" xlink:href="#m635ffad3e5" y="190.948212"/>
     <use style="stroke:#000000;" x="74.078606" xlink:href="#m635ffad3e5" y="190.537096"/>
     <use style="stroke:#000000;" x="74.139068" xlink:href="#m635ffad3e5" y="190.127566"/>
     <use style="stroke:#000000;" x="74.229761" xlink:href="#m635ffad3e5" y="189.71883"/>
     <use style="stroke:#000000;" x="74.320455" xlink:href="#m635ffad3e5" y="189.310888"/>
     <use style="stroke:#000000;" x="74.380917" xlink:href="#m635ffad3e5" y="188.904533"/>
     <use style="stroke:#000000;" x="74.471611" xlink:href="#m635ffad3e5" y="188.499766"/>
     <use style="stroke:#000000;" x="74.562304" xlink:href="#m635ffad3e5" y="188.095792"/>
     <use style="stroke:#000000;" x="74.622766" xlink:href="#m635ffad3e5" y="187.693405"/>
     <use style="stroke:#000000;" x="74.71346" xlink:href="#m635ffad3e5" y="187.291812"/>
     <use style="stroke:#000000;" x="74.804153" xlink:href="#m635ffad3e5" y="186.891807"/>
     <use style="stroke:#000000;" x="74.894847" xlink:href="#m635ffad3e5" y="186.492595"/>
     <use style="stroke:#000000;" x="74.955309" xlink:href="#m635ffad3e5" y="186.095764"/>
     <use style="stroke:#000000;" x="75.046002" xlink:href="#m635ffad3e5" y="185.698933"/>
     <use style="stroke:#000000;" x="75.136696" xlink:href="#m635ffad3e5" y="185.304483"/>
     <use style="stroke:#000000;" x="75.197158" xlink:href="#m635ffad3e5" y="184.910827"/>
     <use style="stroke:#000000;" x="75.287851" xlink:href="#m635ffad3e5" y="184.518758"/>
     <use style="stroke:#000000;" x="75.378545" xlink:href="#m635ffad3e5" y="184.128276"/>
     <use style="stroke:#000000;" x="75.439007" xlink:href="#m635ffad3e5" y="183.738588"/>
     <use style="stroke:#000000;" x="75.529701" xlink:href="#m635ffad3e5" y="183.351281"/>
     <use style="stroke:#000000;" x="75.620394" xlink:href="#m635ffad3e5" y="182.963974"/>
     <use style="stroke:#000000;" x="75.680856" xlink:href="#m635ffad3e5" y="182.579048"/>
     <use style="stroke:#000000;" x="75.77155" xlink:href="#m635ffad3e5" y="182.194916"/>
     <use style="stroke:#000000;" x="75.862243" xlink:href="#m635ffad3e5" y="181.812371"/>
     <use style="stroke:#000000;" x="75.922705" xlink:href="#m635ffad3e5" y="181.431413"/>
     <use style="stroke:#000000;" x="76.013399" xlink:href="#m635ffad3e5" y="181.052043"/>
     <use style="stroke:#000000;" x="76.104092" xlink:href="#m635ffad3e5" y="180.673466"/>
     <use style="stroke:#000000;" x="76.225017" xlink:href="#m635ffad3e5" y="180.105998"/>
     <use style="stroke:#000000;" x="76.345941" xlink:href="#m635ffad3e5" y="179.540911"/>
     <use style="stroke:#000000;" x="76.466866" xlink:href="#m635ffad3e5" y="178.979792"/>
     <use style="stroke:#000000;" x="76.587791" xlink:href="#m635ffad3e5" y="178.421054"/>
     <use style="stroke:#000000;" x="76.708715" xlink:href="#m635ffad3e5" y="177.865491"/>
     <use style="stroke:#000000;" x="76.82964" xlink:href="#m635ffad3e5" y="177.313102"/>
     <use style="stroke:#000000;" x="76.950564" xlink:href="#m635ffad3e5" y="176.763888"/>
     <use style="stroke:#000000;" x="77.071489" xlink:href="#m635ffad3e5" y="176.217849"/>
     <use style="stroke:#000000;" x="77.192413" xlink:href="#m635ffad3e5" y="175.67419"/>
     <use style="stroke:#000000;" x="77.313338" xlink:href="#m635ffad3e5" y="175.1345"/>
     <use style="stroke:#000000;" x="77.434263" xlink:href="#m635ffad3e5" y="174.597191"/>
     <use style="stroke:#000000;" x="77.555187" xlink:href="#m635ffad3e5" y="174.062263"/>
     <use style="stroke:#000000;" x="77.676112" xlink:href="#m635ffad3e5" y="173.531304"/>
     <use style="stroke:#000000;" x="77.797036" xlink:href="#m635ffad3e5" y="173.002725"/>
     <use style="stroke:#000000;" x="77.917961" xlink:href="#m635ffad3e5" y="172.477321"/>
     <use style="stroke:#000000;" x="78.038885" xlink:href="#m635ffad3e5" y="171.954297"/>
     <use style="stroke:#000000;" x="78.15981" xlink:href="#m635ffad3e5" y="171.434449"/>
     <use style="stroke:#000000;" x="78.280734" xlink:href="#m635ffad3e5" y="170.917775"/>
     <use style="stroke:#000000;" x="78.401659" xlink:href="#m635ffad3e5" y="170.403482"/>
     <use style="stroke:#000000;" x="78.552815" xlink:href="#m635ffad3e5" y="169.892364"/>
     <use style="stroke:#000000;" x="78.673739" xlink:href="#m635ffad3e5" y="169.383627"/>
     <use style="stroke:#000000;" x="78.794664" xlink:href="#m635ffad3e5" y="168.877271"/>
     <use style="stroke:#000000;" x="78.976051" xlink:href="#m635ffad3e5" y="168.117736"/>
     <use style="stroke:#000000;" x="79.157438" xlink:href="#m635ffad3e5" y="167.364551"/>
     <use style="stroke:#000000;" x="79.338824" xlink:href="#m635ffad3e5" y="166.616922"/>
     <use style="stroke:#000000;" x="79.520211" xlink:href="#m635ffad3e5" y="165.875642"/>
     <use style="stroke:#000000;" x="79.701598" xlink:href="#m635ffad3e5" y="165.139917"/>
     <use style="stroke:#000000;" x="79.882985" xlink:href="#m635ffad3e5" y="164.409748"/>
     <use style="stroke:#000000;" x="80.064372" xlink:href="#m635ffad3e5" y="163.685929"/>
     <use style="stroke:#000000;" x="80.245759" xlink:href="#m635ffad3e5" y="162.967665"/>
     <use style="stroke:#000000;" x="80.457377" xlink:href="#m635ffad3e5" y="162.254956"/>
     <use style="stroke:#000000;" x="80.638764" xlink:href="#m635ffad3e5" y="161.547804"/>
     <use style="stroke:#000000;" x="80.82015" xlink:href="#m635ffad3e5" y="160.846207"/>
     <use style="stroke:#000000;" x="81.001537" xlink:href="#m635ffad3e5" y="160.150165"/>
     <use style="stroke:#000000;" x="81.182924" xlink:href="#m635ffad3e5" y="159.459679"/>
     <use style="stroke:#000000;" x="81.364311" xlink:href="#m635ffad3e5" y="158.773955"/>
     <use style="stroke:#000000;" x="81.545698" xlink:href="#m635ffad3e5" y="158.093787"/>
     <use style="stroke:#000000;" x="81.727085" xlink:href="#m635ffad3e5" y="157.419175"/>
     <use style="stroke:#000000;" x="81.908472" xlink:href="#m635ffad3e5" y="156.749324"/>
     <use style="stroke:#000000;" x="82.120089" xlink:href="#m635ffad3e5" y="156.084236"/>
     <use style="stroke:#000000;" x="82.301476" xlink:href="#m635ffad3e5" y="155.424703"/>
     <use style="stroke:#000000;" x="82.482863" xlink:href="#m635ffad3e5" y="154.769138"/>
     <use style="stroke:#000000;" x="82.66425" xlink:href="#m635ffad3e5" y="154.119129"/>
     <use style="stroke:#000000;" x="82.845637" xlink:href="#m635ffad3e5" y="153.473882"/>
     <use style="stroke:#000000;" x="83.027024" xlink:href="#m635ffad3e5" y="152.83419"/>
     <use style="stroke:#000000;" x="83.208411" xlink:href="#m635ffad3e5" y="152.198467"/>
     <use style="stroke:#000000;" x="83.389797" xlink:href="#m635ffad3e5" y="151.566712"/>
     <use style="stroke:#000000;" x="83.571184" xlink:href="#m635ffad3e5" y="150.940513"/>
     <use style="stroke:#000000;" x="83.752571" xlink:href="#m635ffad3e5" y="150.319076"/>
     <use style="stroke:#000000;" x="83.964189" xlink:href="#m635ffad3e5" y="149.701607"/>
     <use style="stroke:#000000;" x="84.145576" xlink:href="#m635ffad3e5" y="149.0889"/>
     <use style="stroke:#000000;" x="84.326963" xlink:href="#m635ffad3e5" y="148.480162"/>
     <use style="stroke:#000000;" x="84.50835" xlink:href="#m635ffad3e5" y="147.876185"/>
     <use style="stroke:#000000;" x="84.689737" xlink:href="#m635ffad3e5" y="147.276177"/>
     <use style="stroke:#000000;" x="84.871123" xlink:href="#m635ffad3e5" y="146.68093"/>
     <use style="stroke:#000000;" x="85.05251" xlink:href="#m635ffad3e5" y="146.089652"/>
     <use style="stroke:#000000;" x="85.233897" xlink:href="#m635ffad3e5" y="145.503136"/>
     <use style="stroke:#000000;" x="85.415284" xlink:href="#m635ffad3e5" y="144.919795"/>
     <use style="stroke:#000000;" x="85.626902" xlink:href="#m635ffad3e5" y="144.341215"/>
     <use style="stroke:#000000;" x="85.808289" xlink:href="#m635ffad3e5" y="143.766604"/>
     <use style="stroke:#000000;" x="85.989676" xlink:href="#m635ffad3e5" y="143.195961"/>
     <use style="stroke:#000000;" x="86.171062" xlink:href="#m635ffad3e5" y="142.629287"/>
     <use style="stroke:#000000;" x="86.352449" xlink:href="#m635ffad3e5" y="142.067374"/>
     <use style="stroke:#000000;" x="86.533836" xlink:href="#m635ffad3e5" y="141.508636"/>
     <use style="stroke:#000000;" x="86.715223" xlink:href="#m635ffad3e5" y="140.953866"/>
     <use style="stroke:#000000;" x="86.987303" xlink:href="#m635ffad3e5" y="140.120522"/>
     <use style="stroke:#000000;" x="87.289615" xlink:href="#m635ffad3e5" y="139.296701"/>
     <use style="stroke:#000000;" x="87.561695" xlink:href="#m635ffad3e5" y="138.48161"/>
     <use style="stroke:#000000;" x="87.833775" xlink:href="#m635ffad3e5" y="137.674456"/>
     <use style="stroke:#000000;" x="88.105856" xlink:href="#m635ffad3e5" y="136.876032"/>
     <use style="stroke:#000000;" x="88.408167" xlink:href="#m635ffad3e5" y="136.086338"/>
     <use style="stroke:#000000;" x="88.680247" xlink:href="#m635ffad3e5" y="135.303788"/>
     <use style="stroke:#000000;" x="88.952328" xlink:href="#m635ffad3e5" y="134.529968"/>
     <use style="stroke:#000000;" x="89.224408" xlink:href="#m635ffad3e5" y="133.76329"/>
     <use style="stroke:#000000;" x="89.526719" xlink:href="#m635ffad3e5" y="133.005343"/>
     <use style="stroke:#000000;" x="89.7988" xlink:href="#m635ffad3e5" y="132.254539"/>
     <use style="stroke:#000000;" x="90.07088" xlink:href="#m635ffad3e5" y="131.511672"/>
     <use style="stroke:#000000;" x="90.34296" xlink:href="#m635ffad3e5" y="130.775947"/>
     <use style="stroke:#000000;" x="90.645271" xlink:href="#m635ffad3e5" y="130.048159"/>
     <use style="stroke:#000000;" x="90.917352" xlink:href="#m635ffad3e5" y="129.327514"/>
     <use style="stroke:#000000;" x="91.189432" xlink:href="#m635ffad3e5" y="128.614012"/>
     <use style="stroke:#000000;" x="91.461512" xlink:href="#m635ffad3e5" y="127.907653"/>
     <use style="stroke:#000000;" x="91.763824" xlink:href="#m635ffad3e5" y="127.208437"/>
     <use style="stroke:#000000;" x="92.035904" xlink:href="#m635ffad3e5" y="126.516364"/>
     <use style="stroke:#000000;" x="92.307984" xlink:href="#m635ffad3e5" y="125.831434"/>
     <use style="stroke:#000000;" x="92.580065" xlink:href="#m635ffad3e5" y="125.152853"/>
     <use style="stroke:#000000;" x="92.882376" xlink:href="#m635ffad3e5" y="124.481415"/>
     <use style="stroke:#000000;" x="93.154456" xlink:href="#m635ffad3e5" y="123.816327"/>
     <use style="stroke:#000000;" x="93.426537" xlink:href="#m635ffad3e5" y="123.158381"/>
     <use style="stroke:#000000;" x="93.849773" xlink:href="#m635ffad3e5" y="122.182971"/>
     <use style="stroke:#000000;" x="94.273009" xlink:href="#m635ffad3e5" y="121.221846"/>
     <use style="stroke:#000000;" x="94.696244" xlink:href="#m635ffad3e5" y="120.274214"/>
     <use style="stroke:#000000;" x="95.11948" xlink:href="#m635ffad3e5" y="119.341661"/>
     <use style="stroke:#000000;" x="95.512485" xlink:href="#m635ffad3e5" y="118.422601"/>
     <use style="stroke:#000000;" x="95.935721" xlink:href="#m635ffad3e5" y="117.517033"/>
     <use style="stroke:#000000;" x="96.358957" xlink:href="#m635ffad3e5" y="116.624163"/>
     <use style="stroke:#000000;" x="96.782193" xlink:href="#m635ffad3e5" y="115.744786"/>
     <use style="stroke:#000000;" x="97.205429" xlink:href="#m635ffad3e5" y="114.878107"/>
     <use style="stroke:#000000;" x="97.628665" xlink:href="#m635ffad3e5" y="114.024127"/>
     <use style="stroke:#000000;" x="98.051901" xlink:href="#m635ffad3e5" y="113.182845"/>
     <use style="stroke:#000000;" x="98.475137" xlink:href="#m635ffad3e5" y="112.353469"/>
     <use style="stroke:#000000;" x="98.777449" xlink:href="#m635ffad3e5" y="111.535997"/>
     <use style="stroke:#000000;" x="99.382071" xlink:href="#m635ffad3e5" y="110.731224"/>
     <use style="stroke:#000000;" x="99.684383" xlink:href="#m635ffad3e5" y="109.936768"/>
     <use style="stroke:#000000;" x="100.289006" xlink:href="#m635ffad3e5" y="109.155012"/>
     <use style="stroke:#000000;" x="100.591317" xlink:href="#m635ffad3e5" y="108.383572"/>
     <use style="stroke:#000000;" x="100.893629" xlink:href="#m635ffad3e5" y="107.624038"/>
     <use style="stroke:#000000;" x="101.498251" xlink:href="#m635ffad3e5" y="106.874821"/>
     <use style="stroke:#000000;" x="101.800563" xlink:href="#m635ffad3e5" y="106.136716"/>
     <use style="stroke:#000000;" x="102.102874" xlink:href="#m635ffad3e5" y="105.409721"/>
     <use style="stroke:#000000;" x="102.707497" xlink:href="#m635ffad3e5" y="104.692251"/>
     <use style="stroke:#000000;" x="103.009808" xlink:href="#m635ffad3e5" y="103.985098"/>
     <use style="stroke:#000000;" x="103.614431" xlink:href="#m635ffad3e5" y="103.289057"/>
     <use style="stroke:#000000;" x="103.916743" xlink:href="#m635ffad3e5" y="102.601746"/>
     <use style="stroke:#000000;" x="104.219054" xlink:href="#m635ffad3e5" y="101.924752"/>
     <use style="stroke:#000000;" x="104.823677" xlink:href="#m635ffad3e5" y="101.258076"/>
     <use style="stroke:#000000;" x="105.125988" xlink:href="#m635ffad3e5" y="100.600131"/>
     <use style="stroke:#000000;" x="105.730611" xlink:href="#m635ffad3e5" y="99.951709"/>
     <use style="stroke:#000000;" x="106.032923" xlink:href="#m635ffad3e5" y="99.312811"/>
     <use style="stroke:#000000;" x="106.335234" xlink:href="#m635ffad3e5" y="98.682644"/>
     <use style="stroke:#000000;" x="106.939857" xlink:href="#m635ffad3e5" y="97.751678"/>
     <use style="stroke:#000000;" x="107.54448" xlink:href="#m635ffad3e5" y="96.841348"/>
     <use style="stroke:#000000;" x="108.451414" xlink:href="#m635ffad3e5" y="95.950066"/>
     <use style="stroke:#000000;" x="109.056037" xlink:href="#m635ffad3e5" y="95.077832"/>
     <use style="stroke:#000000;" x="109.66066" xlink:href="#m635ffad3e5" y="94.223852"/>
     <use style="stroke:#000000;" x="110.265283" xlink:href="#m635ffad3e5" y="93.387332"/>
     <use style="stroke:#000000;" x="110.869905" xlink:href="#m635ffad3e5" y="92.569067"/>
     <use style="stroke:#000000;" x="111.474528" xlink:href="#m635ffad3e5" y="91.768262"/>
     <use style="stroke:#000000;" x="112.079151" xlink:href="#m635ffad3e5" y="90.984124"/>
     <use style="stroke:#000000;" x="112.683774" xlink:href="#m635ffad3e5" y="90.216653"/>
     <use style="stroke:#000000;" x="113.288397" xlink:href="#m635ffad3e5" y="89.465055"/>
     <use style="stroke:#000000;" x="113.89302" xlink:href="#m635ffad3e5" y="88.729331"/>
     <use style="stroke:#000000;" x="114.497642" xlink:href="#m635ffad3e5" y="88.008686"/>
     <use style="stroke:#000000;" x="115.256746" xlink:href="#m635ffad3e5" y="87.30312"/>
     <use style="stroke:#000000;" x="115.887368" xlink:href="#m635ffad3e5" y="86.612635"/>
     <use style="stroke:#000000;" x="116.517687" xlink:href="#m635ffad3e5" y="85.936435"/>
     <use style="stroke:#000000;" x="117.148309" xlink:href="#m635ffad3e5" y="85.274521"/>
     <use style="stroke:#000000;" x="117.778628" xlink:href="#m635ffad3e5" y="84.626099"/>
     <use style="stroke:#000000;" x="118.40925" xlink:href="#m635ffad3e5" y="83.991963"/>
     <use style="stroke:#000000;" x="119.039569" xlink:href="#m635ffad3e5" y="83.369732"/>
     <use style="stroke:#000000;" x="119.669888" xlink:href="#m635ffad3e5" y="82.761787"/>
     <use style="stroke:#000000;" x="120.30051" xlink:href="#m635ffad3e5" y="82.164954"/>
     <use style="stroke:#000000;" x="120.930829" xlink:href="#m635ffad3e5" y="81.581612"/>
     <use style="stroke:#000000;" x="121.561451" xlink:href="#m635ffad3e5" y="81.010176"/>
     <use style="stroke:#000000;" x="122.515244" xlink:href="#m635ffad3e5" y="80.167307"/>
     <use style="stroke:#000000;" x="123.469338" xlink:href="#m635ffad3e5" y="79.350629"/>
     <use style="stroke:#000000;" x="124.423433" xlink:href="#m635ffad3e5" y="78.559348"/>
     <use style="stroke:#000000;" x="125.377226" xlink:href="#m635ffad3e5" y="77.792671"/>
     <use style="stroke:#000000;" x="126.331321" xlink:href="#m635ffad3e5" y="77.049803"/>
     <use style="stroke:#000000;" x="127.285113" xlink:href="#m635ffad3e5" y="76.329952"/>
     <use style="stroke:#000000;" x="128.239208" xlink:href="#m635ffad3e5" y="75.632323"/>
     <use style="stroke:#000000;" x="129.193303" xlink:href="#m635ffad3e5" y="74.95533"/>
     <use style="stroke:#000000;" x="130.147095" xlink:href="#m635ffad3e5" y="74.299765"/>
     <use style="stroke:#000000;" x="131.10119" xlink:href="#m635ffad3e5" y="73.664042"/>
     <use style="stroke:#000000;" x="132.054983" xlink:href="#m635ffad3e5" y="73.04816"/>
     <use style="stroke:#000000;" x="133.009077" xlink:href="#m635ffad3e5" y="72.450533"/>
     <use style="stroke:#000000;" x="133.963172" xlink:href="#m635ffad3e5" y="71.87116"/>
     <use style="stroke:#000000;" x="134.916965" xlink:href="#m635ffad3e5" y="71.310041"/>
     <use style="stroke:#000000;" x="135.87106" xlink:href="#m635ffad3e5" y="70.765589"/>
     <use style="stroke:#000000;" x="136.824852" xlink:href="#m635ffad3e5" y="70.23701"/>
     <use style="stroke:#000000;" x="137.778947" xlink:href="#m635ffad3e5" y="69.725098"/>
     <use style="stroke:#000000;" x="138.733042" xlink:href="#m635ffad3e5" y="69.228266"/>
     <use style="stroke:#000000;" x="139.686834" xlink:href="#m635ffad3e5" y="68.747307"/>
     <use style="stroke:#000000;" x="140.640929" xlink:href="#m635ffad3e5" y="68.27984"/>
     <use style="stroke:#000000;" x="141.594722" xlink:href="#m635ffad3e5" y="67.826659"/>
     <use style="stroke:#000000;" x="142.548817" xlink:href="#m635ffad3e5" y="67.386971"/>
     <use style="stroke:#000000;" x="143.502609" xlink:href="#m635ffad3e5" y="66.960774"/>
     <use style="stroke:#000000;" x="144.456704" xlink:href="#m635ffad3e5" y="66.547276"/>
     <use style="stroke:#000000;" x="145.410799" xlink:href="#m635ffad3e5" y="66.146477"/>
     <use style="stroke:#000000;" x="146.364591" xlink:href="#m635ffad3e5" y="65.756789"/>
     <use style="stroke:#000000;" x="147.318686" xlink:href="#m635ffad3e5" y="65.379006"/>
     <use style="stroke:#000000;" x="148.272479" xlink:href="#m635ffad3e5" y="65.012334"/>
     <use style="stroke:#000000;" x="149.226573" xlink:href="#m635ffad3e5" y="64.656774"/>
     <use style="stroke:#000000;" x="150.180668" xlink:href="#m635ffad3e5" y="64.311531"/>
     <use style="stroke:#000000;" x="151.134461" xlink:href="#m635ffad3e5" y="63.976606"/>
     <use style="stroke:#000000;" x="152.088556" xlink:href="#m635ffad3e5" y="63.651998"/>
     <use style="stroke:#000000;" x="153.042348" xlink:href="#m635ffad3e5" y="63.336121"/>
     <use style="stroke:#000000;" x="153.996443" xlink:href="#m635ffad3e5" y="63.029767"/>
     <use style="stroke:#000000;" x="154.950538" xlink:href="#m635ffad3e5" y="62.732144"/>
     <use style="stroke:#000000;" x="155.90433" xlink:href="#m635ffad3e5" y="62.444045"/>
     <use style="stroke:#000000;" x="156.858425" xlink:href="#m635ffad3e5" y="62.163882"/>
     <use style="stroke:#000000;" x="157.812218" xlink:href="#m635ffad3e5" y="61.891656"/>
     <use style="stroke:#000000;" x="158.766313" xlink:href="#m635ffad3e5" y="61.627367"/>
     <use style="stroke:#000000;" x="159.720407" xlink:href="#m635ffad3e5" y="61.371014"/>
     <use style="stroke:#000000;" x="160.6742" xlink:href="#m635ffad3e5" y="61.121804"/>
     <use style="stroke:#000000;" x="161.628295" xlink:href="#m635ffad3e5" y="60.880531"/>
     <use style="stroke:#000000;" x="162.582087" xlink:href="#m635ffad3e5" y="60.645607"/>
     <use style="stroke:#000000;" x="163.536182" xlink:href="#m635ffad3e5" y="60.417032"/>
     <use style="stroke:#000000;" x="164.490277" xlink:href="#m635ffad3e5" y="60.195601"/>
     <use style="stroke:#000000;" x="165.44407" xlink:href="#m635ffad3e5" y="59.980518"/>
     <use style="stroke:#000000;" x="166.398164" xlink:href="#m635ffad3e5" y="59.771785"/>
     <use style="stroke:#000000;" x="167.351957" xlink:href="#m635ffad3e5" y="59.568608"/>
     <use style="stroke:#000000;" x="168.306052" xlink:href="#m635ffad3e5" y="59.370986"/>
     <use style="stroke:#000000;" x="169.260147" xlink:href="#m635ffad3e5" y="59.179714"/>
     <use style="stroke:#000000;" x="170.213939" xlink:href="#m635ffad3e5" y="58.993203"/>
     <use style="stroke:#000000;" x="171.168034" xlink:href="#m635ffad3e5" y="58.812248"/>
     <use style="stroke:#000000;" x="172.121826" xlink:href="#m635ffad3e5" y="58.636849"/>
     <use style="stroke:#000000;" x="173.075921" xlink:href="#m635ffad3e5" y="58.466212"/>
     <use style="stroke:#000000;" x="174.029714" xlink:href="#m635ffad3e5" y="58.299543"/>
     <use style="stroke:#000000;" x="174.983809" xlink:href="#m635ffad3e5" y="58.138429"/>
     <use style="stroke:#000000;" x="175.937903" xlink:href="#m635ffad3e5" y="57.982078"/>
     <use style="stroke:#000000;" x="176.891696" xlink:href="#m635ffad3e5" y="57.829695"/>
     <use style="stroke:#000000;" x="177.845791" xlink:href="#m635ffad3e5" y="57.68128"/>
     <use style="stroke:#000000;" x="178.799583" xlink:href="#m635ffad3e5" y="57.536834"/>
     <use style="stroke:#000000;" x="179.753678" xlink:href="#m635ffad3e5" y="57.397149"/>
     <use style="stroke:#000000;" x="180.707773" xlink:href="#m635ffad3e5" y="57.260639"/>
     <use style="stroke:#000000;" x="181.661566" xlink:href="#m635ffad3e5" y="57.128891"/>
     <use style="stroke:#000000;" x="182.61566" xlink:href="#m635ffad3e5" y="56.999524"/>
     <use style="stroke:#000000;" x="183.569453" xlink:href="#m635ffad3e5" y="56.87492"/>
     <use style="stroke:#000000;" x="184.523548" xlink:href="#m635ffad3e5" y="56.752696"/>
     <use style="stroke:#000000;" x="185.477643" xlink:href="#m635ffad3e5" y="56.63444"/>
     <use style="stroke:#000000;" x="186.431435" xlink:href="#m635ffad3e5" y="56.519359"/>
     <use style="stroke:#000000;" x="187.38553" xlink:href="#m635ffad3e5" y="56.407453"/>
     <use style="stroke:#000000;" x="188.339322" xlink:href="#m635ffad3e5" y="56.298721"/>
     <use style="stroke:#000000;" x="189.293417" xlink:href="#m635ffad3e5" y="56.19237"/>
     <use style="stroke:#000000;" x="190.247512" xlink:href="#m635ffad3e5" y="56.089988"/>
     <use style="stroke:#000000;" x="191.201305" xlink:href="#m635ffad3e5" y="55.989193"/>
     <use style="stroke:#000000;" x="192.155399" xlink:href="#m635ffad3e5" y="55.891573"/>
     <use style="stroke:#000000;" x="193.109192" xlink:href="#m635ffad3e5" y="55.797127"/>
     <use style="stroke:#000000;" x="194.063287" xlink:href="#m635ffad3e5" y="55.705062"/>
     <use style="stroke:#000000;" x="195.017382" xlink:href="#m635ffad3e5" y="55.614585"/>
     <use style="stroke:#000000;" x="195.971174" xlink:href="#m635ffad3e5" y="55.527282"/>
     <use style="stroke:#000000;" x="196.925269" xlink:href="#m635ffad3e5" y="55.44236"/>
     <use style="stroke:#000000;" x="197.879062" xlink:href="#m635ffad3e5" y="55.359819"/>
     <use style="stroke:#000000;" x="198.833156" xlink:href="#m635ffad3e5" y="55.278866"/>
     <use style="stroke:#000000;" x="199.786949" xlink:href="#m635ffad3e5" y="55.200293"/>
     <use style="stroke:#000000;" x="200.741044" xlink:href="#m635ffad3e5" y="55.124102"/>
     <use style="stroke:#000000;" x="201.695139" xlink:href="#m635ffad3e5" y="55.049497"/>
     <use style="stroke:#000000;" x="202.648931" xlink:href="#m635ffad3e5" y="54.977274"/>
     <use style="stroke:#000000;" x="203.603026" xlink:href="#m635ffad3e5" y="54.906638"/>
     <use style="stroke:#000000;" x="204.556818" xlink:href="#m635ffad3e5" y="54.838383"/>
     <use style="stroke:#000000;" x="205.510913" xlink:href="#m635ffad3e5" y="54.770922"/>
     <use style="stroke:#000000;" x="206.465008" xlink:href="#m635ffad3e5" y="54.705842"/>
     <use style="stroke:#000000;" x="207.418801" xlink:href="#m635ffad3e5" y="54.643143"/>
     <use style="stroke:#000000;" x="208.372896" xlink:href="#m635ffad3e5" y="54.581237"/>
     <use style="stroke:#000000;" x="209.326688" xlink:href="#m635ffad3e5" y="54.520919"/>
     <use style="stroke:#000000;" x="210.280783" xlink:href="#m635ffad3e5" y="54.462188"/>
     <use style="stroke:#000000;" x="211.234878" xlink:href="#m635ffad3e5" y="54.405044"/>
     <use style="stroke:#000000;" x="212.18867" xlink:href="#m635ffad3e5" y="54.349488"/>
     <use style="stroke:#000000;" x="213.142765" xlink:href="#m635ffad3e5" y="54.295519"/>
     <use style="stroke:#000000;" x="214.096558" xlink:href="#m635ffad3e5" y="54.243137"/>
     <use style="stroke:#000000;" x="215.050652" xlink:href="#m635ffad3e5" y="54.191549"/>
     <use style="stroke:#000000;" x="216.004747" xlink:href="#m635ffad3e5" y="54.141548"/>
     <use style="stroke:#000000;" x="216.95854" xlink:href="#m635ffad3e5" y="54.092341"/>
     <use style="stroke:#000000;" x="217.912635" xlink:href="#m635ffad3e5" y="54.044722"/>
     <use style="stroke:#000000;" x="218.866427" xlink:href="#m635ffad3e5" y="53.998689"/>
     <use style="stroke:#000000;" x="219.820522" xlink:href="#m635ffad3e5" y="53.95345"/>
     <use style="stroke:#000000;" x="220.774617" xlink:href="#m635ffad3e5" y="53.909799"/>
     <use style="stroke:#000000;" x="221.728409" xlink:href="#m635ffad3e5" y="53.866941"/>
     <use style="stroke:#000000;" x="222.682504" xlink:href="#m635ffad3e5" y="53.824877"/>
     <use style="stroke:#000000;" x="223.636297" xlink:href="#m635ffad3e5" y="53.783607"/>
     <use style="stroke:#000000;" x="224.590392" xlink:href="#m635ffad3e5" y="53.743924"/>
     <use style="stroke:#000000;" x="225.544486" xlink:href="#m635ffad3e5" y="53.705034"/>
     <use style="stroke:#000000;" x="226.498279" xlink:href="#m635ffad3e5" y="53.667732"/>
     <use style="stroke:#000000;" x="227.452374" xlink:href="#m635ffad3e5" y="53.63043"/>
     <use style="stroke:#000000;" x="228.406166" xlink:href="#m635ffad3e5" y="53.594715"/>
     <use style="stroke:#000000;" x="229.360261" xlink:href="#m635ffad3e5" y="53.559794"/>
     <use style="stroke:#000000;" x="230.314054" xlink:href="#m635ffad3e5" y="53.525667"/>
     <use style="stroke:#000000;" x="231.268148" xlink:href="#m635ffad3e5" y="53.492333"/>
     <use style="stroke:#000000;" x="232.222243" xlink:href="#m635ffad3e5" y="53.459793"/>
     <use style="stroke:#000000;" x="233.176036" xlink:href="#m635ffad3e5" y="53.428046"/>
     <use style="stroke:#000000;" x="234.130131" xlink:href="#m635ffad3e5" y="53.397093"/>
     <use style="stroke:#000000;" x="235.083923" xlink:href="#m635ffad3e5" y="53.366934"/>
     <use style="stroke:#000000;" x="236.038018" xlink:href="#m635ffad3e5" y="53.337569"/>
     <use style="stroke:#000000;" x="236.992113" xlink:href="#m635ffad3e5" y="53.308203"/>
     <use style="stroke:#000000;" x="237.945905" xlink:href="#m635ffad3e5" y="53.280425"/>
     <use style="stroke:#000000;" x="238.9" xlink:href="#m635ffad3e5" y="53.252647"/>
     <use style="stroke:#000000;" x="239.853793" xlink:href="#m635ffad3e5" y="53.226456"/>
     <use style="stroke:#000000;" x="240.807888" xlink:href="#m635ffad3e5" y="53.200265"/>
     <use style="stroke:#000000;" x="241.761982" xlink:href="#m635ffad3e5" y="53.174868"/>
     <use style="stroke:#000000;" x="242.715775" xlink:href="#m635ffad3e5" y="53.150265"/>
     <use style="stroke:#000000;" x="243.66987" xlink:href="#m635ffad3e5" y="53.125661"/>
     <use style="stroke:#000000;" x="244.623662" xlink:href="#m635ffad3e5" y="53.101851"/>
     <use style="stroke:#000000;" x="245.577757" xlink:href="#m635ffad3e5" y="53.078835"/>
     <use style="stroke:#000000;" x="246.531852" xlink:href="#m635ffad3e5" y="53.056613"/>
     <use style="stroke:#000000;" x="247.485644" xlink:href="#m635ffad3e5" y="53.03439"/>
     <use style="stroke:#000000;" x="248.439739" xlink:href="#m635ffad3e5" y="53.012961"/>
     <use style="stroke:#000000;" x="249.393532" xlink:href="#m635ffad3e5" y="52.991532"/>
     <use style="stroke:#000000;" x="250.826488" xlink:href="#m635ffad3e5" y="52.960579"/>
     <use style="stroke:#000000;" x="252.259142" xlink:href="#m635ffad3e5" y="52.931214"/>
     <use style="stroke:#000000;" x="253.691796" xlink:href="#m635ffad3e5" y="52.902642"/>
     <use style="stroke:#000000;" x="255.124449" xlink:href="#m635ffad3e5" y="52.874864"/>
     <use style="stroke:#000000;" x="256.557103" xlink:href="#m635ffad3e5" y="52.848673"/>
     <use style="stroke:#000000;" x="257.989757" xlink:href="#m635ffad3e5" y="52.822482"/>
     <use style="stroke:#000000;" x="259.422713" xlink:href="#m635ffad3e5" y="52.797879"/>
     <use style="stroke:#000000;" x="260.855367" xlink:href="#m635ffad3e5" y="52.774069"/>
     <use style="stroke:#000000;" x="262.288021" xlink:href="#m635ffad3e5" y="52.751053"/>
     <use style="stroke:#000000;" x="263.720675" xlink:href="#m635ffad3e5" y="52.728037"/>
     <use style="stroke:#000000;" x="265.153328" xlink:href="#m635ffad3e5" y="52.706608"/>
     <use style="stroke:#000000;" x="266.586285" xlink:href="#m635ffad3e5" y="52.685972"/>
     <use style="stroke:#000000;" x="268.018938" xlink:href="#m635ffad3e5" y="52.665337"/>
     <use style="stroke:#000000;" x="269.451592" xlink:href="#m635ffad3e5" y="52.646289"/>
     <use style="stroke:#000000;" x="270.884246" xlink:href="#m635ffad3e5" y="52.627241"/>
     <use style="stroke:#000000;" x="272.3169" xlink:href="#m635ffad3e5" y="52.608987"/>
     <use style="stroke:#000000;" x="273.749856" xlink:href="#m635ffad3e5" y="52.590733"/>
     <use style="stroke:#000000;" x="275.18251" xlink:href="#m635ffad3e5" y="52.574066"/>
     <use style="stroke:#000000;" x="276.615164" xlink:href="#m635ffad3e5" y="52.557399"/>
     <use style="stroke:#000000;" x="278.047817" xlink:href="#m635ffad3e5" y="52.541526"/>
     <use style="stroke:#000000;" x="279.480471" xlink:href="#m635ffad3e5" y="52.525653"/>
     <use style="stroke:#000000;" x="280.913125" xlink:href="#m635ffad3e5" y="52.510573"/>
     <use style="stroke:#000000;" x="282.346081" xlink:href="#m635ffad3e5" y="52.496287"/>
     <use style="stroke:#000000;" x="283.778735" xlink:href="#m635ffad3e5" y="52.482001"/>
     <use style="stroke:#000000;" x="285.211389" xlink:href="#m635ffad3e5" y="52.468509"/>
     <use style="stroke:#000000;" x="286.644042" xlink:href="#m635ffad3e5" y="52.455017"/>
     <use style="stroke:#000000;" x="288.076696" xlink:href="#m635ffad3e5" y="52.442318"/>
     <use style="stroke:#000000;" x="289.509652" xlink:href="#m635ffad3e5" y="52.42962"/>
     <use style="stroke:#000000;" x="290.942306" xlink:href="#m635ffad3e5" y="52.417715"/>
     <use style="stroke:#000000;" x="292.37496" xlink:href="#m635ffad3e5" y="52.40581"/>
     <use style="stroke:#000000;" x="293.807614" xlink:href="#m635ffad3e5" y="52.394699"/>
     <use style="stroke:#000000;" x="295.240268" xlink:href="#m635ffad3e5" y="52.383587"/>
     <use style="stroke:#000000;" x="296.672921" xlink:href="#m635ffad3e5" y="52.37327"/>
     <use style="stroke:#000000;" x="298.105878" xlink:href="#m635ffad3e5" y="52.362952"/>
     <use style="stroke:#000000;" x="299.538531" xlink:href="#m635ffad3e5" y="52.352634"/>
     <use style="stroke:#000000;" x="300.971185" xlink:href="#m635ffad3e5" y="52.343111"/>
     <use style="stroke:#000000;" x="302.403839" xlink:href="#m635ffad3e5" y="52.333587"/>
     <use style="stroke:#000000;" x="303.836493" xlink:href="#m635ffad3e5" y="52.324856"/>
     <use style="stroke:#000000;" x="305.269449" xlink:href="#m635ffad3e5" y="52.316126"/>
     <use style="stroke:#000000;" x="306.702103" xlink:href="#m635ffad3e5" y="52.307396"/>
     <use style="stroke:#000000;" x="308.134757" xlink:href="#m635ffad3e5" y="52.298665"/>
     <use style="stroke:#000000;" x="309.56741" xlink:href="#m635ffad3e5" y="52.290729"/>
     <use style="stroke:#000000;" x="311.000064" xlink:href="#m635ffad3e5" y="52.282792"/>
     <use style="stroke:#000000;" x="312.43302" xlink:href="#m635ffad3e5" y="52.275649"/>
     <use style="stroke:#000000;" x="313.865674" xlink:href="#m635ffad3e5" y="52.268506"/>
     <use style="stroke:#000000;" x="315.298328" xlink:href="#m635ffad3e5" y="52.26057"/>
     <use style="stroke:#000000;" x="316.730982" xlink:href="#m635ffad3e5" y="52.25422"/>
     <use style="stroke:#000000;" x="318.163636" xlink:href="#m635ffad3e5" y="52.247077"/>
     <use style="stroke:#000000;" x="319.596289" xlink:href="#m635ffad3e5" y="52.240728"/>
     <use style="stroke:#000000;" x="321.029246" xlink:href="#m635ffad3e5" y="52.234379"/>
     <use style="stroke:#000000;" x="322.461899" xlink:href="#m635ffad3e5" y="52.22803"/>
     <use style="stroke:#000000;" x="323.894553" xlink:href="#m635ffad3e5" y="52.22168"/>
     <use style="stroke:#000000;" x="325.327207" xlink:href="#m635ffad3e5" y="52.216125"/>
     <use style="stroke:#000000;" x="326.759861" xlink:href="#m635ffad3e5" y="52.210569"/>
     <use style="stroke:#000000;" x="328.192817" xlink:href="#m635ffad3e5" y="52.205013"/>
     <use style="stroke:#000000;" x="329.625471" xlink:href="#m635ffad3e5" y="52.199458"/>
     <use style="stroke:#000000;" x="331.058124" xlink:href="#m635ffad3e5" y="52.193902"/>
     <use style="stroke:#000000;" x="332.490778" xlink:href="#m635ffad3e5" y="52.18914"/>
     <use style="stroke:#000000;" x="333.923432" xlink:href="#m635ffad3e5" y="52.184378"/>
     <use style="stroke:#000000;" x="335.356086" xlink:href="#m635ffad3e5" y="52.179616"/>
     <use style="stroke:#000000;" x="336.789042" xlink:href="#m635ffad3e5" y="52.174854"/>
     <use style="stroke:#000000;" x="338.221696" xlink:href="#m635ffad3e5" y="52.170092"/>
     <use style="stroke:#000000;" x="339.65435" xlink:href="#m635ffad3e5" y="52.16533"/>
     <use style="stroke:#000000;" x="341.087003" xlink:href="#m635ffad3e5" y="52.161362"/>
     <use style="stroke:#000000;" x="342.519657" xlink:href="#m635ffad3e5" y="52.157394"/>
     <use style="stroke:#000000;" x="343.952613" xlink:href="#m635ffad3e5" y="52.152632"/>
     <use style="stroke:#000000;" x="345.385267" xlink:href="#m635ffad3e5" y="52.148663"/>
     <use style="stroke:#000000;" x="346.817921" xlink:href="#m635ffad3e5" y="52.144695"/>
     <use style="stroke:#000000;" x="348.250575" xlink:href="#m635ffad3e5" y="52.14152"/>
     <use style="stroke:#000000;" x="349.683229" xlink:href="#m635ffad3e5" y="52.137552"/>
     <use style="stroke:#000000;" x="351.116185" xlink:href="#m635ffad3e5" y="52.134377"/>
     <use style="stroke:#000000;" x="352.548839" xlink:href="#m635ffad3e5" y="52.130409"/>
     <use style="stroke:#000000;" x="353.981492" xlink:href="#m635ffad3e5" y="52.127235"/>
     <use style="stroke:#000000;" x="355.414146" xlink:href="#m635ffad3e5" y="52.12406"/>
     <use style="stroke:#000000;" x="356.8468" xlink:href="#m635ffad3e5" y="52.120885"/>
     <use style="stroke:#000000;" x="358.279454" xlink:href="#m635ffad3e5" y="52.117711"/>
     <use style="stroke:#000000;" x="359.71241" xlink:href="#m635ffad3e5" y="52.114536"/>
     <use style="stroke:#000000;" x="361.145064" xlink:href="#m635ffad3e5" y="52.111361"/>
     <use style="stroke:#000000;" x="362.577718" xlink:href="#m635ffad3e5" y="52.108187"/>
     <use style="stroke:#000000;" x="364.010371" xlink:href="#m635ffad3e5" y="52.105806"/>
     <use style="stroke:#000000;" x="365.443025" xlink:href="#m635ffad3e5" y="52.102631"/>
     <use style="stroke:#000000;" x="366.875981" xlink:href="#m635ffad3e5" y="52.10025"/>
     <use style="stroke:#000000;" x="368.308635" xlink:href="#m635ffad3e5" y="52.097869"/>
     <use style="stroke:#000000;" x="369.741289" xlink:href="#m635ffad3e5" y="52.094694"/>
     <use style="stroke:#000000;" x="371.175152" xlink:href="#m635ffad3e5" y="52.092313"/>
    </g>
   </g>
   <g id="line2d_16">
    <path clip-path="url(#p9d8e36b064)" d="M 68.546307 194.482743 
L 68.779994 194.389423 
L 69.129768 193.963723 
L 69.556027 193.051384 
L 70.196927 191.033471 
L 71.106885 187.219667 
L 72.536818 180.02447 
L 78.038885 151.370312 
L 80.457377 140.307484 
L 83.027024 129.69275 
L 85.626902 120.030888 
L 88.105856 111.775944 
L 90.645271 104.132064 
L 92.882376 98.040534 
L 95.11948 92.498156 
L 97.205429 87.785908 
L 99.382071 83.29868 
L 101.800563 78.764391 
L 104.219054 74.662013 
L 106.939857 70.519761 
L 109.66066 66.81315 
L 112.683774 63.160198 
L 115.256746 60.391878 
L 118.40925 57.372388 
L 121.561451 54.692087 
L 126.331321 51.240661 
L 130.147095 48.928225 
L 132.054983 47.849005 
L 136.824852 45.5041 
L 139.686834 44.285865 
L 145.410799 42.171722 
L 150.180668 40.734068 
L 155.90433 39.304685 
L 161.628295 38.132581 
L 167.351957 37.181154 
L 174.983809 36.131494 
L 186.431435 35.013278 
L 195.971174 34.341829 
L 207.418801 33.758185 
L 221.728409 33.267198 
L 242.715775 32.832334 
L 269.451592 32.532607 
L 313.865674 32.308776 
L 371.175152 32.213985 
L 371.175152 32.213985 
" style="fill:none;stroke:#0000ff;stroke-dasharray:5.55,2.4;stroke-dashoffset:0;stroke-width:1.5;"/>
   </g>
   <g id="line2d_17">
    <path clip-path="url(#p9d8e36b064)" d="M 68.546307 229.874488 
L 68.802667 229.77541 
L 69.129768 229.368035 
L 69.625559 228.27862 
L 70.251343 226.282875 
L 71.161301 222.585977 
L 72.86936 214.468713 
L 76.466866 197.313002 
L 78.794664 187.282358 
L 81.182924 177.895433 
L 83.571184 169.280038 
L 86.352449 160.146809 
L 88.680247 153.124538 
L 91.763824 144.665526 
L 94.273009 138.394026 
L 97.205429 131.725699 
L 100.289006 125.402998 
L 103.009808 120.342457 
L 106.032923 115.254405 
L 109.056037 110.694561 
L 112.079151 106.595753 
L 115.256746 102.73014 
L 118.40925 99.304022 
L 121.561451 96.265926 
L 124.423433 93.775519 
L 128.239208 90.82154 
L 132.054983 88.310282 
L 134.916965 86.620244 
L 138.733042 84.690628 
L 141.594722 83.347627 
L 145.410799 81.849478 
L 149.226573 80.513828 
L 153.996443 79.076744 
L 158.766313 77.879178 
L 164.490277 76.653913 
L 171.168034 75.578318 
L 176.891696 74.810513 
L 184.523548 74.013678 
L 192.155399 73.384794 
L 204.556818 72.65747 
L 216.95854 72.167339 
L 233.176036 71.744385 
L 255.124449 71.406193 
L 285.211389 71.157917 
L 338.221696 70.967599 
L 371.175152 70.899288 
L 371.175152 70.899288 
" style="fill:none;stroke:#0000ff;stroke-dasharray:5.55,2.4;stroke-dashoffset:0;stroke-width:1.5;"/>
   </g>
   <g id="line2d_18"/>
   <g id="line2d_19"/>
   <g id="line2d_20"/>
   <g id="line2d_21"/>
   <g id="line2d_22"/>
   <g id="line2d_23"/>
   <g id="patch_3">
    <path d="M 53.328125 239.758125 
L 53.328125 22.318125 
" style="fill:none;stroke:#000000;stroke-linecap:square;stroke-linejoin:miter;stroke-width:0.8;"/>
   </g>
   <g id="patch_4">
    <path d="M 388.128125 239.758125 
L 388.128125 22.318125 
" style="fill:none;stroke:#000000;stroke-linecap:square;stroke-linejoin:miter;stroke-width:0.8;"/>
   </g>
   <g id="patch_5">
    <path d="M 53.328125 239.758125 
L 388.128125 239.758125 
" style="fill:none;stroke:#000000;stroke-linecap:square;stroke-linejoin:miter;stroke-width:0.8;"/>
   </g>
   <g id="patch_6">
    <path d="M 53.328125 22.318125 
L 388.128125 22.318125 
" style="fill:none;stroke:#000000;stroke-linecap:square;stroke-linejoin:miter;stroke-width:0.8;"/>
   </g>
   <g id="text_15">
    <!-- Experiment_21 -->
    <defs>
     <path d="M 9.8125 72.90625 
L 55.90625 72.90625 
L 55.90625 64.59375 
L 19.671875 64.59375 
L 19.671875 43.015625 
L 54.390625 43.015625 
L 54.390625 34.71875 
L 19.671875 34.71875 
L 19.671875 8.296875 
L 56.78125 8.296875 
L 56.78125 0 
L 9.8125 0 
z
" id="DejaVuSans-45"/>
     <path d="M 54.890625 54.6875 
L 35.109375 28.078125 
L 55.90625 0 
L 45.3125 0 
L 29.390625 21.484375 
L 13.484375 0 
L 2.875 0 
L 24.125 28.609375 
L 4.6875 54.6875 
L 15.28125 54.6875 
L 29.78125 35.203125 
L 44.28125 54.6875 
z
" id="DejaVuSans-78"/>
     <path d="M 41.109375 46.296875 
Q 39.59375 47.171875 37.8125 47.578125 
Q 36.03125 48 33.890625 48 
Q 26.265625 48 22.1875 43.046875 
Q 18.109375 38.09375 18.109375 28.8125 
L 18.109375 0 
L 9.078125 0 
L 9.078125 54.6875 
L 18.109375 54.6875 
L 18.109375 46.1875 
Q 20.953125 51.171875 25.484375 53.578125 
Q 30.03125 56 36.53125 56 
Q 37.453125 56 38.578125 55.875 
Q 39.703125 55.765625 41.0625 55.515625 
z
" id="DejaVuSans-72"/>
     <path d="M 54.890625 33.015625 
L 54.890625 0 
L 45.90625 0 
L 45.90625 32.71875 
Q 45.90625 40.484375 42.875 44.328125 
Q 39.84375 48.1875 33.796875 48.1875 
Q 26.515625 48.1875 22.3125 43.546875 
Q 18.109375 38.921875 18.109375 30.90625 
L 18.109375 0 
L 9.078125 0 
L 9.078125 54.6875 
L 18.109375 54.6875 
L 18.109375 46.1875 
Q 21.34375 51.125 25.703125 53.5625 
Q 30.078125 56 35.796875 56 
Q 45.21875 56 50.046875 50.171875 
Q 54.890625 44.34375 54.890625 33.015625 
z
" id="DejaVuSans-6e"/>
     <path d="M 18.3125 70.21875 
L 18.3125 54.6875 
L 36.8125 54.6875 
L 36.8125 47.703125 
L 18.3125 47.703125 
L 18.3125 18.015625 
Q 18.3125 11.328125 20.140625 9.421875 
Q 21.96875 7.515625 27.59375 7.515625 
L 36.8125 7.515625 
L 36.8125 0 
L 27.59375 0 
Q 17.1875 0 13.234375 3.875 
Q 9.28125 7.765625 9.28125 18.015625 
L 9.28125 47.703125 
L 2.6875 47.703125 
L 2.6875 54.6875 
L 9.28125 54.6875 
L 9.28125 70.21875 
z
" id="DejaVuSans-74"/>
     <path d="M 50.984375 -16.609375 
L 50.984375 -23.578125 
L -0.984375 -23.578125 
L -0.984375 -16.609375 
z
" id="DejaVuSans-5f"/>
    </defs>
    <g transform="translate(175.425313 16.318125)scale(0.12 -0.12)">
     <use xlink:href="#DejaVuSans-45"/>
     <use x="63.183594" xlink:href="#DejaVuSans-78"/>
     <use x="122.363281" xlink:href="#DejaVuSans-70"/>
     <use x="185.839844" xlink:href="#DejaVuSans-65"/>
     <use x="247.363281" xlink:href="#DejaVuSans-72"/>
     <use x="288.476562" xlink:href="#DejaVuSans-69"/>
     <use x="316.259766" xlink:href="#DejaVuSans-6d"/>
     <use x="413.671875" xlink:href="#DejaVuSans-65"/>
     <use x="475.195312" xlink:href="#DejaVuSans-6e"/>
     <use x="538.574219" xlink:href="#DejaVuSans-74"/>
     <use x="577.783203" xlink:href="#DejaVuSans-5f"/>
     <use x="627.783203" xlink:href="#DejaVuSans-32"/>
     <use x="691.40625" xlink:href="#DejaVuSans-31"/>
    </g>
   </g>
   <g id="legend_1">
    <g id="patch_7">
     <path d="M 125.007812 234.758125 
L 381.128125 234.758125 
Q 383.128125 234.758125 383.128125 232.758125 
L 383.128125 160.345625 
Q 383.128125 158.345625 381.128125 158.345625 
L 125.007812 158.345625 
Q 123.007812 158.345625 123.007812 160.345625 
L 123.007812 232.758125 
Q 123.007812 234.758125 125.007812 234.758125 
z
" style="fill:#ffffff;opacity:0.8;stroke:#cccccc;stroke-linejoin:miter;"/>
    </g>
    <g id="line2d_24">
     <path d="M 127.007812 166.444062 
L 147.007812 166.444062 
" style="fill:none;stroke:#0000ff;stroke-linecap:square;stroke-width:1.5;"/>
    </g>
    <g id="line2d_25"/>
    <g id="text_16">
     <!-- MSI -->
     <defs>
      <path d="M 9.8125 72.90625 
L 24.515625 72.90625 
L 43.109375 23.296875 
L 61.8125 72.90625 
L 76.515625 72.90625 
L 76.515625 0 
L 66.890625 0 
L 66.890625 64.015625 
L 48.09375 14.015625 
L 38.1875 14.015625 
L 19.390625 64.015625 
L 19.390625 0 
L 9.8125 0 
z
" id="DejaVuSans-4d"/>
      <path d="M 53.515625 70.515625 
L 53.515625 60.890625 
Q 47.90625 63.578125 42.921875 64.890625 
Q 37.9375 66.21875 33.296875 66.21875 
Q 25.25 66.21875 20.875 63.09375 
Q 16.5 59.96875 16.5 54.203125 
Q 16.5 49.359375 19.40625 46.890625 
Q 22.3125 44.4375 30.421875 42.921875 
L 36.375 41.703125 
Q 47.40625 39.59375 52.65625 34.296875 
Q 57.90625 29 57.90625 20.125 
Q 57.90625 9.515625 50.796875 4.046875 
Q 43.703125 -1.421875 29.984375 -1.421875 
Q 24.8125 -1.421875 18.96875 -0.25 
Q 13.140625 0.921875 6.890625 3.21875 
L 6.890625 13.375 
Q 12.890625 10.015625 18.65625 8.296875 
Q 24.421875 6.59375 29.984375 6.59375 
Q 38.421875 6.59375 43.015625 9.90625 
Q 47.609375 13.234375 47.609375 19.390625 
Q 47.609375 24.75 44.3125 27.78125 
Q 41.015625 30.8125 33.5 32.328125 
L 27.484375 33.5 
Q 16.453125 35.6875 11.515625 40.375 
Q 6.59375 45.0625 6.59375 53.421875 
Q 6.59375 63.09375 13.40625 68.65625 
Q 20.21875 74.21875 32.171875 74.21875 
Q 37.3125 74.21875 42.625 73.28125 
Q 47.953125 72.359375 53.515625 70.515625 
z
" id="DejaVuSans-53"/>
      <path d="M 9.8125 72.90625 
L 19.671875 72.90625 
L 19.671875 0 
L 9.8125 0 
z
" id="DejaVuSans-49"/>
     </defs>
     <g transform="translate(155.007812 169.944062)scale(0.1 -0.1)">
      <use xlink:href="#DejaVuSans-4d"/>
      <use x="86.279297" xlink:href="#DejaVuSans-53"/>
      <use x="149.755859" xlink:href="#DejaVuSans-49"/>
     </g>
    </g>
    <g id="line2d_26">
     <path d="M 127.007812 181.12375 
L 147.007812 181.12375 
" style="fill:none;stroke:#ff0000;stroke-linecap:square;stroke-width:1.5;"/>
    </g>
    <g id="line2d_27"/>
    <g id="text_17">
     <!-- $\it{A priori}$ model -->
     <defs>
      <path d="M 36.8125 72.90625 
L 48 72.90625 
L 61.53125 0 
L 51.21875 0 
L 48.1875 18.703125 
L 15.375 18.703125 
L 5.078125 0 
L -5.328125 0 
z
M 40.375 63.1875 
L 19.921875 26.90625 
L 46.6875 26.90625 
z
" id="DejaVuSans-Oblique-41"/>
      <path d="M 49.609375 33.6875 
Q 49.609375 40.875 46.484375 44.671875 
Q 43.359375 48.484375 37.5 48.484375 
Q 33.5 48.484375 29.859375 46.4375 
Q 26.21875 44.390625 23.390625 40.484375 
Q 20.609375 36.625 18.9375 31.15625 
Q 17.28125 25.6875 17.28125 20.3125 
Q 17.28125 13.484375 20.40625 9.796875 
Q 23.53125 6.109375 29.296875 6.109375 
Q 33.546875 6.109375 37.1875 8.109375 
Q 40.828125 10.109375 43.40625 13.921875 
Q 46.1875 17.921875 47.890625 23.34375 
Q 49.609375 28.765625 49.609375 33.6875 
z
M 21.78125 46.390625 
Q 25.390625 51.125 30.296875 53.5625 
Q 35.203125 56 41.21875 56 
Q 49.609375 56 54.25 50.5 
Q 58.890625 45.015625 58.890625 35.109375 
Q 58.890625 27 56 19.65625 
Q 53.125 12.3125 47.703125 6.5 
Q 44.09375 2.640625 39.546875 0.609375 
Q 35.015625 -1.421875 29.984375 -1.421875 
Q 24.171875 -1.421875 20.21875 1 
Q 16.265625 3.421875 14.3125 8.203125 
L 8.6875 -20.796875 
L -0.296875 -20.796875 
L 14.40625 54.6875 
L 23.390625 54.6875 
z
" id="DejaVuSans-Oblique-70"/>
      <path d="M 44.578125 46.390625 
Q 43.21875 47.125 41.453125 47.515625 
Q 39.703125 47.90625 37.703125 47.90625 
Q 30.515625 47.90625 25.140625 42.453125 
Q 19.78125 37.015625 18.015625 27.875 
L 12.5 0 
L 3.515625 0 
L 14.203125 54.6875 
L 23.1875 54.6875 
L 21.484375 46.1875 
Q 25.046875 50.921875 30 53.453125 
Q 34.96875 56 40.578125 56 
Q 42.046875 56 43.453125 55.828125 
Q 44.875 55.671875 46.296875 55.28125 
z
" id="DejaVuSans-Oblique-72"/>
      <path d="M 18.3125 75.984375 
L 27.296875 75.984375 
L 25.09375 64.59375 
L 16.109375 64.59375 
z
M 14.203125 54.6875 
L 23.1875 54.6875 
L 12.5 0 
L 3.515625 0 
z
" id="DejaVuSans-Oblique-69"/>
      <path d="M 25.390625 -1.421875 
Q 15.765625 -1.421875 10.171875 4.515625 
Q 4.59375 10.453125 4.59375 20.703125 
Q 4.59375 26.65625 6.515625 32.828125 
Q 8.453125 39.015625 11.53125 43.21875 
Q 16.359375 49.75 22.3125 52.875 
Q 28.265625 56 35.796875 56 
Q 45.125 56 50.859375 50.1875 
Q 56.59375 44.390625 56.59375 35.015625 
Q 56.59375 28.515625 54.6875 22.0625 
Q 52.78125 15.625 49.703125 11.375 
Q 44.921875 4.828125 38.96875 1.703125 
Q 33.015625 -1.421875 25.390625 -1.421875 
z
M 13.921875 21 
Q 13.921875 13.578125 17.015625 9.890625 
Q 20.125 6.203125 26.421875 6.203125 
Q 35.453125 6.203125 41.375 14.078125 
Q 47.3125 21.96875 47.3125 34.078125 
Q 47.3125 41.15625 44.140625 44.765625 
Q 40.96875 48.390625 34.8125 48.390625 
Q 29.734375 48.390625 25.78125 46.015625 
Q 21.828125 43.65625 18.703125 38.8125 
Q 16.40625 35.203125 15.15625 30.5625 
Q 13.921875 25.921875 13.921875 21 
z
" id="DejaVuSans-Oblique-6f"/>
      <path d="M 30.609375 48.390625 
Q 23.390625 48.390625 19.1875 42.75 
Q 14.984375 37.109375 14.984375 27.296875 
Q 14.984375 17.484375 19.15625 11.84375 
Q 23.34375 6.203125 30.609375 6.203125 
Q 37.796875 6.203125 41.984375 11.859375 
Q 46.1875 17.53125 46.1875 27.296875 
Q 46.1875 37.015625 41.984375 42.703125 
Q 37.796875 48.390625 30.609375 48.390625 
z
M 30.609375 56 
Q 42.328125 56 49.015625 48.375 
Q 55.71875 40.765625 55.71875 27.296875 
Q 55.71875 13.875 49.015625 6.21875 
Q 42.328125 -1.421875 30.609375 -1.421875 
Q 18.84375 -1.421875 12.171875 6.21875 
Q 5.515625 13.875 5.515625 27.296875 
Q 5.515625 40.765625 12.171875 48.375 
Q 18.84375 56 30.609375 56 
z
" id="DejaVuSans-6f"/>
      <path d="M 45.40625 46.390625 
L 45.40625 75.984375 
L 54.390625 75.984375 
L 54.390625 0 
L 45.40625 0 
L 45.40625 8.203125 
Q 42.578125 3.328125 38.25 0.953125 
Q 33.9375 -1.421875 27.875 -1.421875 
Q 17.96875 -1.421875 11.734375 6.484375 
Q 5.515625 14.40625 5.515625 27.296875 
Q 5.515625 40.1875 11.734375 48.09375 
Q 17.96875 56 27.875 56 
Q 33.9375 56 38.25 53.625 
Q 42.578125 51.265625 45.40625 46.390625 
z
M 14.796875 27.296875 
Q 14.796875 17.390625 18.875 11.75 
Q 22.953125 6.109375 30.078125 6.109375 
Q 37.203125 6.109375 41.296875 11.75 
Q 45.40625 17.390625 45.40625 27.296875 
Q 45.40625 37.203125 41.296875 42.84375 
Q 37.203125 48.484375 30.078125 48.484375 
Q 22.953125 48.484375 18.875 42.84375 
Q 14.796875 37.203125 14.796875 27.296875 
z
" id="DejaVuSans-64"/>
      <path d="M 9.421875 75.984375 
L 18.40625 75.984375 
L 18.40625 0 
L 9.421875 0 
z
" id="DejaVuSans-6c"/>
     </defs>
     <g transform="translate(155.007812 184.62375)scale(0.1 -0.1)">
      <use transform="translate(0 0.015625)" xlink:href="#DejaVuSans-Oblique-41"/>
      <use transform="translate(68.408203 0.015625)" xlink:href="#DejaVuSans-Oblique-70"/>
      <use transform="translate(131.884766 0.015625)" xlink:href="#DejaVuSans-Oblique-72"/>
      <use transform="translate(172.998047 0.015625)" xlink:href="#DejaVuSans-Oblique-69"/>
      <use transform="translate(200.78125 0.015625)" xlink:href="#DejaVuSans-Oblique-6f"/>
      <use transform="translate(261.962891 0.015625)" xlink:href="#DejaVuSans-Oblique-72"/>
      <use transform="translate(303.076172 0.015625)" xlink:href="#DejaVuSans-Oblique-69"/>
      <use transform="translate(330.859375 0.015625)" xlink:href="#DejaVuSans-20"/>
      <use transform="translate(362.646484 0.015625)" xlink:href="#DejaVuSans-6d"/>
      <use transform="translate(460.058594 0.015625)" xlink:href="#DejaVuSans-6f"/>
      <use transform="translate(521.240234 0.015625)" xlink:href="#DejaVuSans-64"/>
      <use transform="translate(584.716797 0.015625)" xlink:href="#DejaVuSans-65"/>
      <use transform="translate(646.240234 0.015625)" xlink:href="#DejaVuSans-6c"/>
     </g>
    </g>
    <g id="line2d_28"/>
    <g id="line2d_29">
     <g>
      <use style="stroke:#000000;" x="137.007812" xlink:href="#m635ffad3e5" y="195.822187"/>
     </g>
    </g>
    <g id="text_18">
     <!-- Experimental Data -->
     <defs>
      <path d="M 34.28125 27.484375 
Q 23.390625 27.484375 19.1875 25 
Q 14.984375 22.515625 14.984375 16.5 
Q 14.984375 11.71875 18.140625 8.90625 
Q 21.296875 6.109375 26.703125 6.109375 
Q 34.1875 6.109375 38.703125 11.40625 
Q 43.21875 16.703125 43.21875 25.484375 
L 43.21875 27.484375 
z
M 52.203125 31.203125 
L 52.203125 0 
L 43.21875 0 
L 43.21875 8.296875 
Q 40.140625 3.328125 35.546875 0.953125 
Q 30.953125 -1.421875 24.3125 -1.421875 
Q 15.921875 -1.421875 10.953125 3.296875 
Q 6 8.015625 6 15.921875 
Q 6 25.140625 12.171875 29.828125 
Q 18.359375 34.515625 30.609375 34.515625 
L 43.21875 34.515625 
L 43.21875 35.40625 
Q 43.21875 41.609375 39.140625 45 
Q 35.0625 48.390625 27.6875 48.390625 
Q 23 48.390625 18.546875 47.265625 
Q 14.109375 46.140625 10.015625 43.890625 
L 10.015625 52.203125 
Q 14.9375 54.109375 19.578125 55.046875 
Q 24.21875 56 28.609375 56 
Q 40.484375 56 46.34375 49.84375 
Q 52.203125 43.703125 52.203125 31.203125 
z
" id="DejaVuSans-61"/>
      <path d="M 19.671875 64.796875 
L 19.671875 8.109375 
L 31.59375 8.109375 
Q 46.6875 8.109375 53.6875 14.9375 
Q 60.6875 21.78125 60.6875 36.53125 
Q 60.6875 51.171875 53.6875 57.984375 
Q 46.6875 64.796875 31.59375 64.796875 
z
M 9.8125 72.90625 
L 30.078125 72.90625 
Q 51.265625 72.90625 61.171875 64.09375 
Q 71.09375 55.28125 71.09375 36.53125 
Q 71.09375 17.671875 61.125 8.828125 
Q 51.171875 0 30.078125 0 
L 9.8125 0 
z
" id="DejaVuSans-44"/>
     </defs>
     <g transform="translate(155.007812 199.322187)scale(0.1 -0.1)">
      <use xlink:href="#DejaVuSans-45"/>
      <use x="63.183594" xlink:href="#DejaVuSans-78"/>
      <use x="122.363281" xlink:href="#DejaVuSans-70"/>
      <use x="185.839844" xlink:href="#DejaVuSans-65"/>
      <use x="247.363281" xlink:href="#DejaVuSans-72"/>
      <use x="288.476562" xlink:href="#DejaVuSans-69"/>
      <use x="316.259766" xlink:href="#DejaVuSans-6d"/>
      <use x="413.671875" xlink:href="#DejaVuSans-65"/>
      <use x="475.195312" xlink:href="#DejaVuSans-6e"/>
      <use x="538.574219" xlink:href="#DejaVuSans-74"/>
      <use x="577.783203" xlink:href="#DejaVuSans-61"/>
      <use x="639.0625" xlink:href="#DejaVuSans-6c"/>
      <use x="666.845703" xlink:href="#DejaVuSans-20"/>
      <use x="698.632812" xlink:href="#DejaVuSans-44"/>
      <use x="775.634766" xlink:href="#DejaVuSans-61"/>
      <use x="836.914062" xlink:href="#DejaVuSans-74"/>
      <use x="876.123047" xlink:href="#DejaVuSans-61"/>
     </g>
    </g>
    <g id="line2d_30">
     <path d="M 127.007812 210.500312 
L 147.007812 210.500312 
" style="fill:none;stroke:#ffffff;stroke-linecap:square;stroke-width:1.5;"/>
    </g>
    <g id="line2d_31"/>
    <g id="text_19">
     <!-- T:1245 -->
     <defs>
      <path d="M 11.71875 12.40625 
L 22.015625 12.40625 
L 22.015625 0 
L 11.71875 0 
z
M 11.71875 51.703125 
L 22.015625 51.703125 
L 22.015625 39.3125 
L 11.71875 39.3125 
z
" id="DejaVuSans-3a"/>
     </defs>
     <g transform="translate(155.007812 214.000312)scale(0.1 -0.1)">
      <use xlink:href="#DejaVuSans-54"/>
      <use x="60.912109" xlink:href="#DejaVuSans-3a"/>
      <use x="94.603516" xlink:href="#DejaVuSans-31"/>
      <use x="158.226562" xlink:href="#DejaVuSans-32"/>
      <use x="221.849609" xlink:href="#DejaVuSans-34"/>
      <use x="285.472656" xlink:href="#DejaVuSans-35"/>
     </g>
    </g>
    <g id="line2d_32">
     <path d="M 127.007812 225.178437 
L 147.007812 225.178437 
" style="fill:none;stroke:#ffffff;stroke-linecap:square;stroke-width:1.5;"/>
    </g>
    <g id="line2d_33"/>
    <g id="text_20">
     <!-- P:1.644 -->
     <defs>
      <path d="M 19.671875 64.796875 
L 19.671875 37.40625 
L 32.078125 37.40625 
Q 38.96875 37.40625 42.71875 40.96875 
Q 46.484375 44.53125 46.484375 51.125 
Q 46.484375 57.671875 42.71875 61.234375 
Q 38.96875 64.796875 32.078125 64.796875 
z
M 9.8125 72.90625 
L 32.078125 72.90625 
Q 44.34375 72.90625 50.609375 67.359375 
Q 56.890625 61.8125 56.890625 51.125 
Q 56.890625 40.328125 50.609375 34.8125 
Q 44.34375 29.296875 32.078125 29.296875 
L 19.671875 29.296875 
L 19.671875 0 
L 9.8125 0 
z
" id="DejaVuSans-50"/>
     </defs>
     <g transform="translate(155.007812 228.678437)scale(0.1 -0.1)">
      <use xlink:href="#DejaVuSans-50"/>
      <use x="60.302734" xlink:href="#DejaVuSans-3a"/>
      <use x="93.994141" xlink:href="#DejaVuSans-31"/>
      <use x="157.617188" xlink:href="#DejaVuSans-2e"/>
      <use x="189.404297" xlink:href="#DejaVuSans-36"/>
      <use x="253.027344" xlink:href="#DejaVuSans-34"/>
      <use x="316.650391" xlink:href="#DejaVuSans-34"/>
     </g>
    </g>
    <g id="line2d_34">
     <path d="M 268.748438 166.444062 
L 288.748438 166.444062 
" style="fill:none;stroke:#ffffff;stroke-linecap:square;stroke-width:1.5;"/>
    </g>
    <g id="line2d_35"/>
    <g id="text_21">
     <!-- H2O2: 0.002058 -->
     <g transform="translate(296.748438 169.944062)scale(0.1 -0.1)">
      <use xlink:href="#DejaVuSans-48"/>
      <use x="75.195312" xlink:href="#DejaVuSans-32"/>
      <use x="138.818359" xlink:href="#DejaVuSans-4f"/>
      <use x="217.529297" xlink:href="#DejaVuSans-32"/>
      <use x="281.152344" xlink:href="#DejaVuSans-3a"/>
      <use x="314.84375" xlink:href="#DejaVuSans-20"/>
      <use x="346.630859" xlink:href="#DejaVuSans-30"/>
      <use x="410.253906" xlink:href="#DejaVuSans-2e"/>
      <use x="442.041016" xlink:href="#DejaVuSans-30"/>
      <use x="505.664062" xlink:href="#DejaVuSans-30"/>
      <use x="569.287109" xlink:href="#DejaVuSans-32"/>
      <use x="632.910156" xlink:href="#DejaVuSans-30"/>
      <use x="696.533203" xlink:href="#DejaVuSans-35"/>
      <use x="760.15625" xlink:href="#DejaVuSans-38"/>
     </g>
    </g>
    <g id="line2d_36">
     <path d="M 268.748438 181.122187 
L 288.748438 181.122187 
" style="fill:none;stroke:#ffffff;stroke-linecap:square;stroke-width:1.5;"/>
    </g>
    <g id="line2d_37"/>
    <g id="text_22">
     <!-- H2O: 0.001113 -->
     <g transform="translate(296.748438 184.622187)scale(0.1 -0.1)">
      <use xlink:href="#DejaVuSans-48"/>
      <use x="75.195312" xlink:href="#DejaVuSans-32"/>
      <use x="138.818359" xlink:href="#DejaVuSans-4f"/>
      <use x="217.513672" xlink:href="#DejaVuSans-3a"/>
      <use x="251.205078" xlink:href="#DejaVuSans-20"/>
      <use x="282.992188" xlink:href="#DejaVuSans-30"/>
      <use x="346.615234" xlink:href="#DejaVuSans-2e"/>
      <use x="378.402344" xlink:href="#DejaVuSans-30"/>
      <use x="442.025391" xlink:href="#DejaVuSans-30"/>
      <use x="505.648438" xlink:href="#DejaVuSans-31"/>
      <use x="569.271484" xlink:href="#DejaVuSans-31"/>
      <use x="632.894531" xlink:href="#DejaVuSans-31"/>
      <use x="696.517578" xlink:href="#DejaVuSans-33"/>
     </g>
    </g>
    <g id="line2d_38">
     <path d="M 268.748438 195.800312 
L 288.748438 195.800312 
" style="fill:none;stroke:#ffffff;stroke-linecap:square;stroke-width:1.5;"/>
    </g>
    <g id="line2d_39"/>
    <g id="text_23">
     <!-- O2: 0.000556 -->
     <g transform="translate(296.748438 199.300312)scale(0.1 -0.1)">
      <use xlink:href="#DejaVuSans-4f"/>
      <use x="78.710938" xlink:href="#DejaVuSans-32"/>
      <use x="142.333984" xlink:href="#DejaVuSans-3a"/>
      <use x="176.025391" xlink:href="#DejaVuSans-20"/>
      <use x="207.8125" xlink:href="#DejaVuSans-30"/>
      <use x="271.435547" xlink:href="#DejaVuSans-2e"/>
      <use x="303.222656" xlink:href="#DejaVuSans-30"/>
      <use x="366.845703" xlink:href="#DejaVuSans-30"/>
      <use x="430.46875" xlink:href="#DejaVuSans-30"/>
      <use x="494.091797" xlink:href="#DejaVuSans-35"/>
      <use x="557.714844" xlink:href="#DejaVuSans-35"/>
      <use x="621.337891" xlink:href="#DejaVuSans-36"/>
     </g>
    </g>
    <g id="line2d_40">
     <path d="M 268.748438 210.478437 
L 288.748438 210.478437 
" style="fill:none;stroke:#ffffff;stroke-linecap:square;stroke-width:1.5;"/>
    </g>
    <g id="line2d_41"/>
    <g id="text_24">
     <!-- Ar: 0.996248 -->
     <defs>
      <path d="M 34.1875 63.1875 
L 20.796875 26.90625 
L 47.609375 26.90625 
z
M 28.609375 72.90625 
L 39.796875 72.90625 
L 67.578125 0 
L 57.328125 0 
L 50.6875 18.703125 
L 17.828125 18.703125 
L 11.1875 0 
L 0.78125 0 
z
" id="DejaVuSans-41"/>
      <path d="M 10.984375 1.515625 
L 10.984375 10.5 
Q 14.703125 8.734375 18.5 7.8125 
Q 22.3125 6.890625 25.984375 6.890625 
Q 35.75 6.890625 40.890625 13.453125 
Q 46.046875 20.015625 46.78125 33.40625 
Q 43.953125 29.203125 39.59375 26.953125 
Q 35.25 24.703125 29.984375 24.703125 
Q 19.046875 24.703125 12.671875 31.3125 
Q 6.296875 37.9375 6.296875 49.421875 
Q 6.296875 60.640625 12.9375 67.421875 
Q 19.578125 74.21875 30.609375 74.21875 
Q 43.265625 74.21875 49.921875 64.515625 
Q 56.59375 54.828125 56.59375 36.375 
Q 56.59375 19.140625 48.40625 8.859375 
Q 40.234375 -1.421875 26.421875 -1.421875 
Q 22.703125 -1.421875 18.890625 -0.6875 
Q 15.09375 0.046875 10.984375 1.515625 
z
M 30.609375 32.421875 
Q 37.25 32.421875 41.125 36.953125 
Q 45.015625 41.5 45.015625 49.421875 
Q 45.015625 57.28125 41.125 61.84375 
Q 37.25 66.40625 30.609375 66.40625 
Q 23.96875 66.40625 20.09375 61.84375 
Q 16.21875 57.28125 16.21875 49.421875 
Q 16.21875 41.5 20.09375 36.953125 
Q 23.96875 32.421875 30.609375 32.421875 
z
" id="DejaVuSans-39"/>
     </defs>
     <g transform="translate(296.748438 213.978437)scale(0.1 -0.1)">
      <use xlink:href="#DejaVuSans-41"/>
      <use x="68.408203" xlink:href="#DejaVuSans-72"/>
      <use x="109.505859" xlink:href="#DejaVuSans-3a"/>
      <use x="143.197266" xlink:href="#DejaVuSans-20"/>
      <use x="174.984375" xlink:href="#DejaVuSans-30"/>
      <use x="238.607422" xlink:href="#DejaVuSans-2e"/>
      <use x="270.394531" xlink:href="#DejaVuSans-39"/>
      <use x="334.017578" xlink:href="#DejaVuSans-39"/>
      <use x="397.640625" xlink:href="#DejaVuSans-36"/>
      <use x="461.263672" xlink:href="#DejaVuSans-32"/>
      <use x="524.886719" xlink:href="#DejaVuSans-34"/>
      <use x="588.509766" xlink:href="#DejaVuSans-38"/>
     </g>
    </g>
   </g>
  </g>
 </g>
 <defs>
  <clipPath id="p9d8e36b064">
   <rect height="217.44" width="334.8" x="53.328125" y="22.318125"/>
  </clipPath>
 </defs>
</svg>
