<?xml version="1.0" encoding="utf-8" standalone="no"?>
<!DOCTYPE svg PUBLIC "-//W3C//DTD SVG 1.1//EN"
  "http://www.w3.org/Graphics/SVG/1.1/DTD/svg11.dtd">
<!-- Created with matplotlib (http://matplotlib.org/) -->
<svg height="277pt" version="1.1" viewBox="0 0 392 277" width="392pt" xmlns="http://www.w3.org/2000/svg" xmlns:xlink="http://www.w3.org/1999/xlink">
 <defs>
  <style type="text/css">
*{stroke-linecap:butt;stroke-linejoin:round;}
  </style>
 </defs>
 <g id="figure_1">
  <g id="patch_1">
   <path d="M 0 277.314375 
L 392.465625 277.314375 
L 392.465625 0 
L 0 0 
z
" style="fill:none;"/>
  </g>
  <g id="axes_1">
   <g id="patch_2">
    <path d="M 46.965625 239.758125 
L 381.765625 239.758125 
L 381.765625 22.318125 
L 46.965625 22.318125 
z
" style="fill:none;"/>
   </g>
   <g id="matplotlib.axis_1">
    <g id="xtick_1">
     <g id="line2d_1">
      <defs>
       <path d="M 0 0 
L 0 3.5 
" id="mf39bc53797" style="stroke:#000000;stroke-width:0.8;"/>
      </defs>
      <g>
       <use style="stroke:#000000;stroke-width:0.8;" x="62.183807" xlink:href="#mf39bc53797" y="239.758125"/>
      </g>
     </g>
     <g id="text_1">
      <!-- 0.0 -->
      <defs>
       <path d="M 31.78125 66.40625 
Q 24.171875 66.40625 20.328125 58.90625 
Q 16.5 51.421875 16.5 36.375 
Q 16.5 21.390625 20.328125 13.890625 
Q 24.171875 6.390625 31.78125 6.390625 
Q 39.453125 6.390625 43.28125 13.890625 
Q 47.125 21.390625 47.125 36.375 
Q 47.125 51.421875 43.28125 58.90625 
Q 39.453125 66.40625 31.78125 66.40625 
z
M 31.78125 74.21875 
Q 44.046875 74.21875 50.515625 64.515625 
Q 56.984375 54.828125 56.984375 36.375 
Q 56.984375 17.96875 50.515625 8.265625 
Q 44.046875 -1.421875 31.78125 -1.421875 
Q 19.53125 -1.421875 13.0625 8.265625 
Q 6.59375 17.96875 6.59375 36.375 
Q 6.59375 54.828125 13.0625 64.515625 
Q 19.53125 74.21875 31.78125 74.21875 
z
" id="DejaVuSans-30"/>
       <path d="M 10.6875 12.40625 
L 21 12.40625 
L 21 0 
L 10.6875 0 
z
" id="DejaVuSans-2e"/>
      </defs>
      <g transform="translate(54.232244 254.356562)scale(0.1 -0.1)">
       <use xlink:href="#DejaVuSans-30"/>
       <use x="63.623047" xlink:href="#DejaVuSans-2e"/>
       <use x="95.410156" xlink:href="#DejaVuSans-30"/>
      </g>
     </g>
    </g>
    <g id="xtick_2">
     <g id="line2d_2">
      <g>
       <use style="stroke:#000000;stroke-width:0.8;" x="122.686291" xlink:href="#mf39bc53797" y="239.758125"/>
      </g>
     </g>
     <g id="text_2">
      <!-- 0.2 -->
      <defs>
       <path d="M 19.1875 8.296875 
L 53.609375 8.296875 
L 53.609375 0 
L 7.328125 0 
L 7.328125 8.296875 
Q 12.9375 14.109375 22.625 23.890625 
Q 32.328125 33.6875 34.8125 36.53125 
Q 39.546875 41.84375 41.421875 45.53125 
Q 43.3125 49.21875 43.3125 52.78125 
Q 43.3125 58.59375 39.234375 62.25 
Q 35.15625 65.921875 28.609375 65.921875 
Q 23.96875 65.921875 18.8125 64.3125 
Q 13.671875 62.703125 7.8125 59.421875 
L 7.8125 69.390625 
Q 13.765625 71.78125 18.9375 73 
Q 24.125 74.21875 28.421875 74.21875 
Q 39.75 74.21875 46.484375 68.546875 
Q 53.21875 62.890625 53.21875 53.421875 
Q 53.21875 48.921875 51.53125 44.890625 
Q 49.859375 40.875 45.40625 35.40625 
Q 44.1875 33.984375 37.640625 27.21875 
Q 31.109375 20.453125 19.1875 8.296875 
z
" id="DejaVuSans-32"/>
      </defs>
      <g transform="translate(114.734729 254.356562)scale(0.1 -0.1)">
       <use xlink:href="#DejaVuSans-30"/>
       <use x="63.623047" xlink:href="#DejaVuSans-2e"/>
       <use x="95.410156" xlink:href="#DejaVuSans-32"/>
      </g>
     </g>
    </g>
    <g id="xtick_3">
     <g id="line2d_3">
      <g>
       <use style="stroke:#000000;stroke-width:0.8;" x="183.188776" xlink:href="#mf39bc53797" y="239.758125"/>
      </g>
     </g>
     <g id="text_3">
      <!-- 0.4 -->
      <defs>
       <path d="M 37.796875 64.3125 
L 12.890625 25.390625 
L 37.796875 25.390625 
z
M 35.203125 72.90625 
L 47.609375 72.90625 
L 47.609375 25.390625 
L 58.015625 25.390625 
L 58.015625 17.1875 
L 47.609375 17.1875 
L 47.609375 0 
L 37.796875 0 
L 37.796875 17.1875 
L 4.890625 17.1875 
L 4.890625 26.703125 
z
" id="DejaVuSans-34"/>
      </defs>
      <g transform="translate(175.237213 254.356562)scale(0.1 -0.1)">
       <use xlink:href="#DejaVuSans-30"/>
       <use x="63.623047" xlink:href="#DejaVuSans-2e"/>
       <use x="95.410156" xlink:href="#DejaVuSans-34"/>
      </g>
     </g>
    </g>
    <g id="xtick_4">
     <g id="line2d_4">
      <g>
       <use style="stroke:#000000;stroke-width:0.8;" x="243.69126" xlink:href="#mf39bc53797" y="239.758125"/>
      </g>
     </g>
     <g id="text_4">
      <!-- 0.6 -->
      <defs>
       <path d="M 33.015625 40.375 
Q 26.375 40.375 22.484375 35.828125 
Q 18.609375 31.296875 18.609375 23.390625 
Q 18.609375 15.53125 22.484375 10.953125 
Q 26.375 6.390625 33.015625 6.390625 
Q 39.65625 6.390625 43.53125 10.953125 
Q 47.40625 15.53125 47.40625 23.390625 
Q 47.40625 31.296875 43.53125 35.828125 
Q 39.65625 40.375 33.015625 40.375 
z
M 52.59375 71.296875 
L 52.59375 62.3125 
Q 48.875 64.0625 45.09375 64.984375 
Q 41.3125 65.921875 37.59375 65.921875 
Q 27.828125 65.921875 22.671875 59.328125 
Q 17.53125 52.734375 16.796875 39.40625 
Q 19.671875 43.65625 24.015625 45.921875 
Q 28.375 48.1875 33.59375 48.1875 
Q 44.578125 48.1875 50.953125 41.515625 
Q 57.328125 34.859375 57.328125 23.390625 
Q 57.328125 12.15625 50.6875 5.359375 
Q 44.046875 -1.421875 33.015625 -1.421875 
Q 20.359375 -1.421875 13.671875 8.265625 
Q 6.984375 17.96875 6.984375 36.375 
Q 6.984375 53.65625 15.1875 63.9375 
Q 23.390625 74.21875 37.203125 74.21875 
Q 40.921875 74.21875 44.703125 73.484375 
Q 48.484375 72.75 52.59375 71.296875 
z
" id="DejaVuSans-36"/>
      </defs>
      <g transform="translate(235.739698 254.356562)scale(0.1 -0.1)">
       <use xlink:href="#DejaVuSans-30"/>
       <use x="63.623047" xlink:href="#DejaVuSans-2e"/>
       <use x="95.410156" xlink:href="#DejaVuSans-36"/>
      </g>
     </g>
    </g>
    <g id="xtick_5">
     <g id="line2d_5">
      <g>
       <use style="stroke:#000000;stroke-width:0.8;" x="304.193745" xlink:href="#mf39bc53797" y="239.758125"/>
      </g>
     </g>
     <g id="text_5">
      <!-- 0.8 -->
      <defs>
       <path d="M 31.78125 34.625 
Q 24.75 34.625 20.71875 30.859375 
Q 16.703125 27.09375 16.703125 20.515625 
Q 16.703125 13.921875 20.71875 10.15625 
Q 24.75 6.390625 31.78125 6.390625 
Q 38.8125 6.390625 42.859375 10.171875 
Q 46.921875 13.96875 46.921875 20.515625 
Q 46.921875 27.09375 42.890625 30.859375 
Q 38.875 34.625 31.78125 34.625 
z
M 21.921875 38.8125 
Q 15.578125 40.375 12.03125 44.71875 
Q 8.5 49.078125 8.5 55.328125 
Q 8.5 64.0625 14.71875 69.140625 
Q 20.953125 74.21875 31.78125 74.21875 
Q 42.671875 74.21875 48.875 69.140625 
Q 55.078125 64.0625 55.078125 55.328125 
Q 55.078125 49.078125 51.53125 44.71875 
Q 48 40.375 41.703125 38.8125 
Q 48.828125 37.15625 52.796875 32.3125 
Q 56.78125 27.484375 56.78125 20.515625 
Q 56.78125 9.90625 50.3125 4.234375 
Q 43.84375 -1.421875 31.78125 -1.421875 
Q 19.734375 -1.421875 13.25 4.234375 
Q 6.78125 9.90625 6.78125 20.515625 
Q 6.78125 27.484375 10.78125 32.3125 
Q 14.796875 37.15625 21.921875 38.8125 
z
M 18.3125 54.390625 
Q 18.3125 48.734375 21.84375 45.5625 
Q 25.390625 42.390625 31.78125 42.390625 
Q 38.140625 42.390625 41.71875 45.5625 
Q 45.3125 48.734375 45.3125 54.390625 
Q 45.3125 60.0625 41.71875 63.234375 
Q 38.140625 66.40625 31.78125 66.40625 
Q 25.390625 66.40625 21.84375 63.234375 
Q 18.3125 60.0625 18.3125 54.390625 
z
" id="DejaVuSans-38"/>
      </defs>
      <g transform="translate(296.242182 254.356562)scale(0.1 -0.1)">
       <use xlink:href="#DejaVuSans-30"/>
       <use x="63.623047" xlink:href="#DejaVuSans-2e"/>
       <use x="95.410156" xlink:href="#DejaVuSans-38"/>
      </g>
     </g>
    </g>
    <g id="xtick_6">
     <g id="line2d_6">
      <g>
       <use style="stroke:#000000;stroke-width:0.8;" x="364.696229" xlink:href="#mf39bc53797" y="239.758125"/>
      </g>
     </g>
     <g id="text_6">
      <!-- 1.0 -->
      <defs>
       <path d="M 12.40625 8.296875 
L 28.515625 8.296875 
L 28.515625 63.921875 
L 10.984375 60.40625 
L 10.984375 69.390625 
L 28.421875 72.90625 
L 38.28125 72.90625 
L 38.28125 8.296875 
L 54.390625 8.296875 
L 54.390625 0 
L 12.40625 0 
z
" id="DejaVuSans-31"/>
      </defs>
      <g transform="translate(356.744667 254.356562)scale(0.1 -0.1)">
       <use xlink:href="#DejaVuSans-31"/>
       <use x="63.623047" xlink:href="#DejaVuSans-2e"/>
       <use x="95.410156" xlink:href="#DejaVuSans-30"/>
      </g>
     </g>
    </g>
    <g id="text_7">
     <!-- Time (ms) -->
     <defs>
      <path d="M -0.296875 72.90625 
L 61.375 72.90625 
L 61.375 64.59375 
L 35.5 64.59375 
L 35.5 0 
L 25.59375 0 
L 25.59375 64.59375 
L -0.296875 64.59375 
z
" id="DejaVuSans-54"/>
      <path d="M 9.421875 54.6875 
L 18.40625 54.6875 
L 18.40625 0 
L 9.421875 0 
z
M 9.421875 75.984375 
L 18.40625 75.984375 
L 18.40625 64.59375 
L 9.421875 64.59375 
z
" id="DejaVuSans-69"/>
      <path d="M 52 44.1875 
Q 55.375 50.25 60.0625 53.125 
Q 64.75 56 71.09375 56 
Q 79.640625 56 84.28125 50.015625 
Q 88.921875 44.046875 88.921875 33.015625 
L 88.921875 0 
L 79.890625 0 
L 79.890625 32.71875 
Q 79.890625 40.578125 77.09375 44.375 
Q 74.3125 48.1875 68.609375 48.1875 
Q 61.625 48.1875 57.5625 43.546875 
Q 53.515625 38.921875 53.515625 30.90625 
L 53.515625 0 
L 44.484375 0 
L 44.484375 32.71875 
Q 44.484375 40.625 41.703125 44.40625 
Q 38.921875 48.1875 33.109375 48.1875 
Q 26.21875 48.1875 22.15625 43.53125 
Q 18.109375 38.875 18.109375 30.90625 
L 18.109375 0 
L 9.078125 0 
L 9.078125 54.6875 
L 18.109375 54.6875 
L 18.109375 46.1875 
Q 21.1875 51.21875 25.484375 53.609375 
Q 29.78125 56 35.6875 56 
Q 41.65625 56 45.828125 52.96875 
Q 50 49.953125 52 44.1875 
z
" id="DejaVuSans-6d"/>
      <path d="M 56.203125 29.59375 
L 56.203125 25.203125 
L 14.890625 25.203125 
Q 15.484375 15.921875 20.484375 11.0625 
Q 25.484375 6.203125 34.421875 6.203125 
Q 39.59375 6.203125 44.453125 7.46875 
Q 49.3125 8.734375 54.109375 11.28125 
L 54.109375 2.78125 
Q 49.265625 0.734375 44.1875 -0.34375 
Q 39.109375 -1.421875 33.890625 -1.421875 
Q 20.796875 -1.421875 13.15625 6.1875 
Q 5.515625 13.8125 5.515625 26.8125 
Q 5.515625 40.234375 12.765625 48.109375 
Q 20.015625 56 32.328125 56 
Q 43.359375 56 49.78125 48.890625 
Q 56.203125 41.796875 56.203125 29.59375 
z
M 47.21875 32.234375 
Q 47.125 39.59375 43.09375 43.984375 
Q 39.0625 48.390625 32.421875 48.390625 
Q 24.90625 48.390625 20.390625 44.140625 
Q 15.875 39.890625 15.1875 32.171875 
z
" id="DejaVuSans-65"/>
      <path id="DejaVuSans-20"/>
      <path d="M 31 75.875 
Q 24.46875 64.65625 21.28125 53.65625 
Q 18.109375 42.671875 18.109375 31.390625 
Q 18.109375 20.125 21.3125 9.0625 
Q 24.515625 -2 31 -13.1875 
L 23.1875 -13.1875 
Q 15.875 -1.703125 12.234375 9.375 
Q 8.59375 20.453125 8.59375 31.390625 
Q 8.59375 42.28125 12.203125 53.3125 
Q 15.828125 64.359375 23.1875 75.875 
z
" id="DejaVuSans-28"/>
      <path d="M 44.28125 53.078125 
L 44.28125 44.578125 
Q 40.484375 46.53125 36.375 47.5 
Q 32.28125 48.484375 27.875 48.484375 
Q 21.1875 48.484375 17.84375 46.4375 
Q 14.5 44.390625 14.5 40.28125 
Q 14.5 37.15625 16.890625 35.375 
Q 19.28125 33.59375 26.515625 31.984375 
L 29.59375 31.296875 
Q 39.15625 29.25 43.1875 25.515625 
Q 47.21875 21.78125 47.21875 15.09375 
Q 47.21875 7.46875 41.1875 3.015625 
Q 35.15625 -1.421875 24.609375 -1.421875 
Q 20.21875 -1.421875 15.453125 -0.5625 
Q 10.6875 0.296875 5.421875 2 
L 5.421875 11.28125 
Q 10.40625 8.6875 15.234375 7.390625 
Q 20.0625 6.109375 24.8125 6.109375 
Q 31.15625 6.109375 34.5625 8.28125 
Q 37.984375 10.453125 37.984375 14.40625 
Q 37.984375 18.0625 35.515625 20.015625 
Q 33.0625 21.96875 24.703125 23.78125 
L 21.578125 24.515625 
Q 13.234375 26.265625 9.515625 29.90625 
Q 5.8125 33.546875 5.8125 39.890625 
Q 5.8125 47.609375 11.28125 51.796875 
Q 16.75 56 26.8125 56 
Q 31.78125 56 36.171875 55.265625 
Q 40.578125 54.546875 44.28125 53.078125 
z
" id="DejaVuSans-73"/>
      <path d="M 8.015625 75.875 
L 15.828125 75.875 
Q 23.140625 64.359375 26.78125 53.3125 
Q 30.421875 42.28125 30.421875 31.390625 
Q 30.421875 20.453125 26.78125 9.375 
Q 23.140625 -1.703125 15.828125 -13.1875 
L 8.015625 -13.1875 
Q 14.5 -2 17.703125 9.0625 
Q 20.90625 20.125 20.90625 31.390625 
Q 20.90625 42.671875 17.703125 53.65625 
Q 14.5 64.65625 8.015625 75.875 
z
" id="DejaVuSans-29"/>
     </defs>
     <g transform="translate(189.0125 268.034687)scale(0.1 -0.1)">
      <use xlink:href="#DejaVuSans-54"/>
      <use x="61.037109" xlink:href="#DejaVuSans-69"/>
      <use x="88.820312" xlink:href="#DejaVuSans-6d"/>
      <use x="186.232422" xlink:href="#DejaVuSans-65"/>
      <use x="247.755859" xlink:href="#DejaVuSans-20"/>
      <use x="279.542969" xlink:href="#DejaVuSans-28"/>
      <use x="318.556641" xlink:href="#DejaVuSans-6d"/>
      <use x="415.96875" xlink:href="#DejaVuSans-73"/>
      <use x="468.068359" xlink:href="#DejaVuSans-29"/>
     </g>
    </g>
   </g>
   <g id="matplotlib.axis_2">
    <g id="ytick_1">
     <g id="line2d_7">
      <defs>
       <path d="M 0 0 
L -3.5 0 
" id="m111dc6429d" style="stroke:#000000;stroke-width:0.8;"/>
      </defs>
      <g>
       <use style="stroke:#000000;stroke-width:0.8;" x="46.965625" xlink:href="#m111dc6429d" y="229.874489"/>
      </g>
     </g>
     <g id="text_8">
      <!-- 0 -->
      <g transform="translate(33.603125 233.673707)scale(0.1 -0.1)">
       <use xlink:href="#DejaVuSans-30"/>
      </g>
     </g>
    </g>
    <g id="ytick_2">
     <g id="line2d_8">
      <g>
       <use style="stroke:#000000;stroke-width:0.8;" x="46.965625" xlink:href="#m111dc6429d" y="202.943713"/>
      </g>
     </g>
     <g id="text_9">
      <!-- 20 -->
      <g transform="translate(27.240625 206.742932)scale(0.1 -0.1)">
       <use xlink:href="#DejaVuSans-32"/>
       <use x="63.623047" xlink:href="#DejaVuSans-30"/>
      </g>
     </g>
    </g>
    <g id="ytick_3">
     <g id="line2d_9">
      <g>
       <use style="stroke:#000000;stroke-width:0.8;" x="46.965625" xlink:href="#m111dc6429d" y="176.012938"/>
      </g>
     </g>
     <g id="text_10">
      <!-- 40 -->
      <g transform="translate(27.240625 179.812157)scale(0.1 -0.1)">
       <use xlink:href="#DejaVuSans-34"/>
       <use x="63.623047" xlink:href="#DejaVuSans-30"/>
      </g>
     </g>
    </g>
    <g id="ytick_4">
     <g id="line2d_10">
      <g>
       <use style="stroke:#000000;stroke-width:0.8;" x="46.965625" xlink:href="#m111dc6429d" y="149.082163"/>
      </g>
     </g>
     <g id="text_11">
      <!-- 60 -->
      <g transform="translate(27.240625 152.881382)scale(0.1 -0.1)">
       <use xlink:href="#DejaVuSans-36"/>
       <use x="63.623047" xlink:href="#DejaVuSans-30"/>
      </g>
     </g>
    </g>
    <g id="ytick_5">
     <g id="line2d_11">
      <g>
       <use style="stroke:#000000;stroke-width:0.8;" x="46.965625" xlink:href="#m111dc6429d" y="122.151388"/>
      </g>
     </g>
     <g id="text_12">
      <!-- 80 -->
      <g transform="translate(27.240625 125.950607)scale(0.1 -0.1)">
       <use xlink:href="#DejaVuSans-38"/>
       <use x="63.623047" xlink:href="#DejaVuSans-30"/>
      </g>
     </g>
    </g>
    <g id="ytick_6">
     <g id="line2d_12">
      <g>
       <use style="stroke:#000000;stroke-width:0.8;" x="46.965625" xlink:href="#m111dc6429d" y="95.220613"/>
      </g>
     </g>
     <g id="text_13">
      <!-- 100 -->
      <g transform="translate(20.878125 99.019832)scale(0.1 -0.1)">
       <use xlink:href="#DejaVuSans-31"/>
       <use x="63.623047" xlink:href="#DejaVuSans-30"/>
       <use x="127.246094" xlink:href="#DejaVuSans-30"/>
      </g>
     </g>
    </g>
    <g id="ytick_7">
     <g id="line2d_13">
      <g>
       <use style="stroke:#000000;stroke-width:0.8;" x="46.965625" xlink:href="#m111dc6429d" y="68.289838"/>
      </g>
     </g>
     <g id="text_14">
      <!-- 120 -->
      <g transform="translate(20.878125 72.089056)scale(0.1 -0.1)">
       <use xlink:href="#DejaVuSans-31"/>
       <use x="63.623047" xlink:href="#DejaVuSans-32"/>
       <use x="127.246094" xlink:href="#DejaVuSans-30"/>
      </g>
     </g>
    </g>
    <g id="ytick_8">
     <g id="line2d_14">
      <g>
       <use style="stroke:#000000;stroke-width:0.8;" x="46.965625" xlink:href="#m111dc6429d" y="41.359062"/>
      </g>
     </g>
     <g id="text_15">
      <!-- 140 -->
      <g transform="translate(20.878125 45.158281)scale(0.1 -0.1)">
       <use xlink:href="#DejaVuSans-31"/>
       <use x="63.623047" xlink:href="#DejaVuSans-34"/>
       <use x="127.246094" xlink:href="#DejaVuSans-30"/>
      </g>
     </g>
    </g>
    <g id="text_16">
     <!-- ppmOH -->
     <defs>
      <path d="M 18.109375 8.203125 
L 18.109375 -20.796875 
L 9.078125 -20.796875 
L 9.078125 54.6875 
L 18.109375 54.6875 
L 18.109375 46.390625 
Q 20.953125 51.265625 25.265625 53.625 
Q 29.59375 56 35.59375 56 
Q 45.5625 56 51.78125 48.09375 
Q 58.015625 40.1875 58.015625 27.296875 
Q 58.015625 14.40625 51.78125 6.484375 
Q 45.5625 -1.421875 35.59375 -1.421875 
Q 29.59375 -1.421875 25.265625 0.953125 
Q 20.953125 3.328125 18.109375 8.203125 
z
M 48.6875 27.296875 
Q 48.6875 37.203125 44.609375 42.84375 
Q 40.53125 48.484375 33.40625 48.484375 
Q 26.265625 48.484375 22.1875 42.84375 
Q 18.109375 37.203125 18.109375 27.296875 
Q 18.109375 17.390625 22.1875 11.75 
Q 26.265625 6.109375 33.40625 6.109375 
Q 40.53125 6.109375 44.609375 11.75 
Q 48.6875 17.390625 48.6875 27.296875 
z
" id="DejaVuSans-70"/>
      <path d="M 39.40625 66.21875 
Q 28.65625 66.21875 22.328125 58.203125 
Q 16.015625 50.203125 16.015625 36.375 
Q 16.015625 22.609375 22.328125 14.59375 
Q 28.65625 6.59375 39.40625 6.59375 
Q 50.140625 6.59375 56.421875 14.59375 
Q 62.703125 22.609375 62.703125 36.375 
Q 62.703125 50.203125 56.421875 58.203125 
Q 50.140625 66.21875 39.40625 66.21875 
z
M 39.40625 74.21875 
Q 54.734375 74.21875 63.90625 63.9375 
Q 73.09375 53.65625 73.09375 36.375 
Q 73.09375 19.140625 63.90625 8.859375 
Q 54.734375 -1.421875 39.40625 -1.421875 
Q 24.03125 -1.421875 14.8125 8.828125 
Q 5.609375 19.09375 5.609375 36.375 
Q 5.609375 53.65625 14.8125 63.9375 
Q 24.03125 74.21875 39.40625 74.21875 
z
" id="DejaVuSans-4f"/>
      <path d="M 9.8125 72.90625 
L 19.671875 72.90625 
L 19.671875 43.015625 
L 55.515625 43.015625 
L 55.515625 72.90625 
L 65.375 72.90625 
L 65.375 0 
L 55.515625 0 
L 55.515625 34.71875 
L 19.671875 34.71875 
L 19.671875 0 
L 9.8125 0 
z
" id="DejaVuSans-48"/>
     </defs>
     <g transform="translate(14.798438 149.952969)rotate(-90)scale(0.1 -0.1)">
      <use xlink:href="#DejaVuSans-70"/>
      <use x="63.476562" xlink:href="#DejaVuSans-70"/>
      <use x="126.953125" xlink:href="#DejaVuSans-6d"/>
      <use x="224.365234" xlink:href="#DejaVuSans-4f"/>
      <use x="303.076172" xlink:href="#DejaVuSans-48"/>
     </g>
    </g>
   </g>
   <g id="line2d_15">
    <path clip-path="url(#pa6b9ff53d2)" d="M 62.183807 229.874489 
L 62.917397 190.084547 
L 63.622225 162.807237 
L 64.302722 144.28219 
L 64.983461 131.629354 
L 65.588562 124.14395 
L 66.193663 119.327103 
L 66.685513 116.904773 
L 67.139613 115.575913 
L 67.593713 114.919482 
L 67.934288 114.772087 
L 68.274863 114.857837 
L 68.728963 115.254607 
L 69.296588 116.079582 
L 70.204787 117.856233 
L 74.831186 127.633614 
L 76.377339 130.144294 
L 77.92739 132.263076 
L 79.738059 134.326995 
L 81.548727 136.046679 
L 83.618063 137.697181 
L 85.97102 139.277369 
L 88.716137 140.842025 
L 92.245573 142.560828 
L 96.37564 144.309517 
L 101.6921 146.316932 
L 109.37143 148.957319 
L 120.081258 152.381564 
L 133.283161 156.358271 
L 146.024851 159.98203 
L 159.966595 163.709212 
L 173.908339 167.193184 
L 188.119372 170.510593 
L 203.429246 173.847507 
L 220.130927 177.242332 
L 236.832607 180.411414 
L 254.926095 183.610065 
L 273.019582 186.569047 
L 289.721263 189.081377 
L 306.422943 191.375024 
L 323.124624 193.445141 
L 339.150869 195.22277 
L 355.907129 196.870944 
L 366.379792 197.797929 
L 366.379792 197.797929 
" style="fill:none;stroke:#0000ff;stroke-linecap:square;stroke-width:1.5;"/>
   </g>
   <g id="line2d_16">
    <path clip-path="url(#pa6b9ff53d2)" d="M 62.183807 229.874489 
L 63.087012 169.561933 
L 63.976087 124.47209 
L 64.80876 92.934772 
L 65.641433 69.947755 
L 66.381587 55.380873 
L 67.121741 45.24268 
L 67.769376 39.265763 
L 68.375076 35.608599 
L 68.935959 33.543306 
L 69.35662 32.664967 
L 69.777282 32.255418 
L 70.057724 32.201761 
L 70.478386 32.39641 
L 70.899047 32.864886 
L 71.45993 33.821864 
L 72.301254 35.759855 
L 73.70346 39.709692 
L 77.538711 50.806523 
L 79.459417 55.512968 
L 81.166712 59.13462 
L 82.991493 62.490459 
L 84.933762 65.57763 
L 86.876031 68.265912 
L 89.142011 71.012755 
L 91.426528 73.460373 
L 94.367736 76.264982 
L 97.799146 79.190334 
L 101.720757 82.225879 
L 106.383544 85.5543 
L 112.281626 89.480705 
L 119.654227 94.094693 
L 128.066451 99.077101 
L 136.973102 104.096723 
L 147.232015 109.609495 
L 158.798279 115.540503 
L 171.466271 121.764023 
L 185.541817 128.425674 
L 201.024917 135.505406 
L 215.100463 141.713563 
L 227.768455 147.072397 
L 239.028891 151.607631 
L 250.289328 155.886954 
L 260.14221 159.396312 
L 269.995093 162.671797 
L 279.847975 165.707648 
L 289.700857 168.505312 
L 299.553739 171.072131 
L 309.406621 173.419755 
L 320.667058 175.852933 
L 331.927495 178.042453 
L 343.187932 180.012637 
L 355.929483 182.007082 
L 366.547443 183.500627 
L 366.547443 183.500627 
" style="fill:none;stroke:#ff0000;stroke-linecap:square;stroke-width:1.5;"/>
   </g>
   <g id="line2d_17">
    <defs>
     <path d="M 0 3 
C 0.795609 3 1.55874 2.683901 2.12132 2.12132 
C 2.683901 1.55874 3 0.795609 3 0 
C 3 -0.795609 2.683901 -1.55874 2.12132 -2.12132 
C 1.55874 -2.683901 0.795609 -3 0 -3 
C -0.795609 -3 -1.55874 -2.683901 -2.12132 -2.12132 
C -2.683901 -1.55874 -3 -0.795609 -3 0 
C -3 0.795609 -2.683901 1.55874 -2.12132 2.12132 
C -1.55874 2.683901 -0.795609 3 0 3 
z
" id="m90426ed37d" style="stroke:#000000;"/>
    </defs>
    <g clip-path="url(#pa6b9ff53d2)">
     <use style="stroke:#000000;" x="66.479483" xlink:href="#m90426ed37d" y="145.013327"/>
     <use style="stroke:#000000;" x="66.539986" xlink:href="#m90426ed37d" y="144.929168"/>
     <use style="stroke:#000000;" x="66.630739" xlink:href="#m90426ed37d" y="144.85861"/>
     <use style="stroke:#000000;" x="66.721493" xlink:href="#m90426ed37d" y="144.776605"/>
     <use style="stroke:#000000;" x="66.842498" xlink:href="#m90426ed37d" y="144.721801"/>
     <use style="stroke:#000000;" x="66.933252" xlink:href="#m90426ed37d" y="144.692043"/>
     <use style="stroke:#000000;" x="67.054257" xlink:href="#m90426ed37d" y="144.68531"/>
     <use style="stroke:#000000;" x="67.145011" xlink:href="#m90426ed37d" y="144.699853"/>
     <use style="stroke:#000000;" x="67.266016" xlink:href="#m90426ed37d" y="144.734055"/>
     <use style="stroke:#000000;" x="67.356769" xlink:href="#m90426ed37d" y="144.786301"/>
     <use style="stroke:#000000;" x="67.477774" xlink:href="#m90426ed37d" y="144.855109"/>
     <use style="stroke:#000000;" x="67.568528" xlink:href="#m90426ed37d" y="144.938998"/>
     <use style="stroke:#000000;" x="67.689533" xlink:href="#m90426ed37d" y="145.036891"/>
     <use style="stroke:#000000;" x="67.780287" xlink:href="#m90426ed37d" y="145.147308"/>
     <use style="stroke:#000000;" x="67.901292" xlink:href="#m90426ed37d" y="145.269304"/>
     <use style="stroke:#000000;" x="68.022297" xlink:href="#m90426ed37d" y="145.401803"/>
     <use style="stroke:#000000;" x="68.11305" xlink:href="#m90426ed37d" y="145.543863"/>
     <use style="stroke:#000000;" x="68.234055" xlink:href="#m90426ed37d" y="145.694406"/>
     <use style="stroke:#000000;" x="68.324809" xlink:href="#m90426ed37d" y="145.852759"/>
     <use style="stroke:#000000;" x="68.445814" xlink:href="#m90426ed37d" y="146.01798"/>
     <use style="stroke:#000000;" x="68.536568" xlink:href="#m90426ed37d" y="146.189529"/>
     <use style="stroke:#000000;" x="68.657573" xlink:href="#m90426ed37d" y="146.366464"/>
     <use style="stroke:#000000;" x="68.748326" xlink:href="#m90426ed37d" y="146.548516"/>
     <use style="stroke:#000000;" x="68.869331" xlink:href="#m90426ed37d" y="146.734742"/>
     <use style="stroke:#000000;" x="68.960085" xlink:href="#m90426ed37d" y="146.924739"/>
     <use style="stroke:#000000;" x="69.08109" xlink:href="#m90426ed37d" y="147.118102"/>
     <use style="stroke:#000000;" x="69.171844" xlink:href="#m90426ed37d" y="147.314158"/>
     <use style="stroke:#000000;" x="69.292849" xlink:href="#m90426ed37d" y="147.512638"/>
     <use style="stroke:#000000;" x="69.383602" xlink:href="#m90426ed37d" y="147.713137"/>
     <use style="stroke:#000000;" x="69.504607" xlink:href="#m90426ed37d" y="147.915118"/>
     <use style="stroke:#000000;" x="69.625612" xlink:href="#m90426ed37d" y="148.118445"/>
     <use style="stroke:#000000;" x="69.716366" xlink:href="#m90426ed37d" y="148.322715"/>
     <use style="stroke:#000000;" x="69.837371" xlink:href="#m90426ed37d" y="148.527658"/>
     <use style="stroke:#000000;" x="69.928125" xlink:href="#m90426ed37d" y="148.733006"/>
     <use style="stroke:#000000;" x="70.04913" xlink:href="#m90426ed37d" y="148.938487"/>
     <use style="stroke:#000000;" x="70.139884" xlink:href="#m90426ed37d" y="149.143969"/>
     <use style="stroke:#000000;" x="70.260889" xlink:href="#m90426ed37d" y="149.349182"/>
     <use style="stroke:#000000;" x="70.351642" xlink:href="#m90426ed37d" y="149.553856"/>
     <use style="stroke:#000000;" x="70.472647" xlink:href="#m90426ed37d" y="149.757991"/>
     <use style="stroke:#000000;" x="70.563401" xlink:href="#m90426ed37d" y="149.961318"/>
     <use style="stroke:#000000;" x="70.684406" xlink:href="#m90426ed37d" y="150.163703"/>
     <use style="stroke:#000000;" x="70.77516" xlink:href="#m90426ed37d" y="150.365145"/>
     <use style="stroke:#000000;" x="70.896165" xlink:href="#m90426ed37d" y="150.565376"/>
     <use style="stroke:#000000;" x="71.01717" xlink:href="#m90426ed37d" y="150.764259"/>
     <use style="stroke:#000000;" x="71.107923" xlink:href="#m90426ed37d" y="150.961931"/>
     <use style="stroke:#000000;" x="71.228928" xlink:href="#m90426ed37d" y="151.157987"/>
     <use style="stroke:#000000;" x="71.319682" xlink:href="#m90426ed37d" y="151.352697"/>
     <use style="stroke:#000000;" x="71.440687" xlink:href="#m90426ed37d" y="151.54579"/>
     <use style="stroke:#000000;" x="71.531441" xlink:href="#m90426ed37d" y="151.737134"/>
     <use style="stroke:#000000;" x="71.652446" xlink:href="#m90426ed37d" y="151.926861"/>
     <use style="stroke:#000000;" x="71.743199" xlink:href="#m90426ed37d" y="152.114838"/>
     <use style="stroke:#000000;" x="71.924707" xlink:href="#m90426ed37d" y="152.394783"/>
     <use style="stroke:#000000;" x="72.075963" xlink:href="#m90426ed37d" y="152.670554"/>
     <use style="stroke:#000000;" x="72.227219" xlink:href="#m90426ed37d" y="152.942016"/>
     <use style="stroke:#000000;" x="72.408727" xlink:href="#m90426ed37d" y="153.20917"/>
     <use style="stroke:#000000;" x="72.559983" xlink:href="#m90426ed37d" y="153.472014"/>
     <use style="stroke:#000000;" x="72.711239" xlink:href="#m90426ed37d" y="153.73055"/>
     <use style="stroke:#000000;" x="72.892747" xlink:href="#m90426ed37d" y="153.984641"/>
     <use style="stroke:#000000;" x="73.044003" xlink:href="#m90426ed37d" y="154.234424"/>
     <use style="stroke:#000000;" x="73.195259" xlink:href="#m90426ed37d" y="154.479764"/>
     <use style="stroke:#000000;" x="73.376766" xlink:href="#m90426ed37d" y="154.72066"/>
     <use style="stroke:#000000;" x="73.528023" xlink:href="#m90426ed37d" y="154.957381"/>
     <use style="stroke:#000000;" x="73.679279" xlink:href="#m90426ed37d" y="155.189794"/>
     <use style="stroke:#000000;" x="73.860786" xlink:href="#m90426ed37d" y="155.417897"/>
     <use style="stroke:#000000;" x="74.012043" xlink:href="#m90426ed37d" y="155.641961"/>
     <use style="stroke:#000000;" x="74.163299" xlink:href="#m90426ed37d" y="155.861851"/>
     <use style="stroke:#000000;" x="74.344806" xlink:href="#m90426ed37d" y="156.077567"/>
     <use style="stroke:#000000;" x="74.496062" xlink:href="#m90426ed37d" y="156.289377"/>
     <use style="stroke:#000000;" x="74.647319" xlink:href="#m90426ed37d" y="156.497283"/>
     <use style="stroke:#000000;" x="74.798575" xlink:href="#m90426ed37d" y="156.701283"/>
     <use style="stroke:#000000;" x="74.980082" xlink:href="#m90426ed37d" y="156.901379"/>
     <use style="stroke:#000000;" x="75.131339" xlink:href="#m90426ed37d" y="157.097839"/>
     <use style="stroke:#000000;" x="75.282595" xlink:href="#m90426ed37d" y="157.290663"/>
     <use style="stroke:#000000;" x="75.554856" xlink:href="#m90426ed37d" y="157.576534"/>
     <use style="stroke:#000000;" x="75.796866" xlink:href="#m90426ed37d" y="157.85419"/>
     <use style="stroke:#000000;" x="76.038876" xlink:href="#m90426ed37d" y="158.124306"/>
     <use style="stroke:#000000;" x="76.280886" xlink:href="#m90426ed37d" y="158.386746"/>
     <use style="stroke:#000000;" x="76.522896" xlink:href="#m90426ed37d" y="158.641915"/>
     <use style="stroke:#000000;" x="76.764906" xlink:href="#m90426ed37d" y="158.890217"/>
     <use style="stroke:#000000;" x="77.006916" xlink:href="#m90426ed37d" y="159.131651"/>
     <use style="stroke:#000000;" x="77.248925" xlink:href="#m90426ed37d" y="159.366488"/>
     <use style="stroke:#000000;" x="77.490935" xlink:href="#m90426ed37d" y="159.594995"/>
     <use style="stroke:#000000;" x="77.732945" xlink:href="#m90426ed37d" y="159.817443"/>
     <use style="stroke:#000000;" x="77.974955" xlink:href="#m90426ed37d" y="160.033967"/>
     <use style="stroke:#000000;" x="78.216965" xlink:href="#m90426ed37d" y="160.244835"/>
     <use style="stroke:#000000;" x="78.489226" xlink:href="#m90426ed37d" y="160.450182"/>
     <use style="stroke:#000000;" x="78.731236" xlink:href="#m90426ed37d" y="160.650143"/>
     <use style="stroke:#000000;" x="78.973246" xlink:href="#m90426ed37d" y="160.845122"/>
     <use style="stroke:#000000;" x="79.215256" xlink:href="#m90426ed37d" y="161.035253"/>
     <use style="stroke:#000000;" x="79.457266" xlink:href="#m90426ed37d" y="161.220537"/>
     <use style="stroke:#000000;" x="79.699276" xlink:href="#m90426ed37d" y="161.401242"/>
     <use style="stroke:#000000;" x="79.941286" xlink:href="#m90426ed37d" y="161.577504"/>
     <use style="stroke:#000000;" x="80.183296" xlink:href="#m90426ed37d" y="161.749592"/>
     <use style="stroke:#000000;" x="80.425306" xlink:href="#m90426ed37d" y="161.917505"/>
     <use style="stroke:#000000;" x="80.667316" xlink:href="#m90426ed37d" y="162.081514"/>
     <use style="stroke:#000000;" x="80.909326" xlink:href="#m90426ed37d" y="162.241617"/>
     <use style="stroke:#000000;" x="81.181587" xlink:href="#m90426ed37d" y="162.398085"/>
     <use style="stroke:#000000;" x="81.423597" xlink:href="#m90426ed37d" y="162.551052"/>
     <use style="stroke:#000000;" x="81.665607" xlink:href="#m90426ed37d" y="162.700652"/>
     <use style="stroke:#000000;" x="81.907617" xlink:href="#m90426ed37d" y="162.846886"/>
     <use style="stroke:#000000;" x="82.149627" xlink:href="#m90426ed37d" y="162.989889"/>
     <use style="stroke:#000000;" x="82.391637" xlink:href="#m90426ed37d" y="163.129929"/>
     <use style="stroke:#000000;" x="82.633647" xlink:href="#m90426ed37d" y="163.266872"/>
     <use style="stroke:#000000;" x="82.875657" xlink:href="#m90426ed37d" y="163.400987"/>
     <use style="stroke:#000000;" x="83.117666" xlink:href="#m90426ed37d" y="163.532409"/>
     <use style="stroke:#000000;" x="83.359676" xlink:href="#m90426ed37d" y="163.661138"/>
     <use style="stroke:#000000;" x="83.601686" xlink:href="#m90426ed37d" y="163.787444"/>
     <use style="stroke:#000000;" x="83.843696" xlink:href="#m90426ed37d" y="163.911056"/>
     <use style="stroke:#000000;" x="84.115957" xlink:href="#m90426ed37d" y="164.032379"/>
     <use style="stroke:#000000;" x="84.357967" xlink:href="#m90426ed37d" y="164.151413"/>
     <use style="stroke:#000000;" x="84.599977" xlink:href="#m90426ed37d" y="164.268293"/>
     <use style="stroke:#000000;" x="84.841987" xlink:href="#m90426ed37d" y="164.382883"/>
     <use style="stroke:#000000;" x="85.083997" xlink:href="#m90426ed37d" y="164.495454"/>
     <use style="stroke:#000000;" x="85.326007" xlink:href="#m90426ed37d" y="164.606005"/>
     <use style="stroke:#000000;" x="85.689022" xlink:href="#m90426ed37d" y="164.770282"/>
     <use style="stroke:#000000;" x="86.082288" xlink:href="#m90426ed37d" y="164.930386"/>
     <use style="stroke:#000000;" x="86.445303" xlink:href="#m90426ed37d" y="165.08645"/>
     <use style="stroke:#000000;" x="86.808318" xlink:href="#m90426ed37d" y="165.238743"/>
     <use style="stroke:#000000;" x="87.171333" xlink:href="#m90426ed37d" y="165.387401"/>
     <use style="stroke:#000000;" x="87.564599" xlink:href="#m90426ed37d" y="165.532558"/>
     <use style="stroke:#000000;" x="87.927614" xlink:href="#m90426ed37d" y="165.674618"/>
     <use style="stroke:#000000;" x="88.290629" xlink:href="#m90426ed37d" y="165.813446"/>
     <use style="stroke:#000000;" x="88.653644" xlink:href="#m90426ed37d" y="165.949446"/>
     <use style="stroke:#000000;" x="89.04691" xlink:href="#m90426ed37d" y="166.082619"/>
     <use style="stroke:#000000;" x="89.409925" xlink:href="#m90426ed37d" y="166.213233"/>
     <use style="stroke:#000000;" x="89.77294" xlink:href="#m90426ed37d" y="166.341289"/>
     <use style="stroke:#000000;" x="90.166206" xlink:href="#m90426ed37d" y="166.466921"/>
     <use style="stroke:#000000;" x="90.529221" xlink:href="#m90426ed37d" y="166.590399"/>
     <use style="stroke:#000000;" x="90.892236" xlink:href="#m90426ed37d" y="166.711587"/>
     <use style="stroke:#000000;" x="91.255251" xlink:href="#m90426ed37d" y="166.830756"/>
     <use style="stroke:#000000;" x="91.648517" xlink:href="#m90426ed37d" y="166.948039"/>
     <use style="stroke:#000000;" x="92.011532" xlink:href="#m90426ed37d" y="167.063438"/>
     <use style="stroke:#000000;" x="92.374547" xlink:href="#m90426ed37d" y="167.177086"/>
     <use style="stroke:#000000;" x="92.737562" xlink:href="#m90426ed37d" y="167.288983"/>
     <use style="stroke:#000000;" x="93.040074" xlink:href="#m90426ed37d" y="167.399265"/>
     <use style="stroke:#000000;" x="93.645099" xlink:href="#m90426ed37d" y="167.508065"/>
     <use style="stroke:#000000;" x="93.947611" xlink:href="#m90426ed37d" y="167.615384"/>
     <use style="stroke:#000000;" x="94.250124" xlink:href="#m90426ed37d" y="167.721357"/>
     <use style="stroke:#000000;" x="94.552636" xlink:href="#m90426ed37d" y="167.825983"/>
     <use style="stroke:#000000;" x="94.855148" xlink:href="#m90426ed37d" y="167.929397"/>
     <use style="stroke:#000000;" x="95.460173" xlink:href="#m90426ed37d" y="168.083172"/>
     <use style="stroke:#000000;" x="96.065198" xlink:href="#m90426ed37d" y="168.234388"/>
     <use style="stroke:#000000;" x="96.670223" xlink:href="#m90426ed37d" y="168.38318"/>
     <use style="stroke:#000000;" x="97.275248" xlink:href="#m90426ed37d" y="168.529818"/>
     <use style="stroke:#000000;" x="97.880273" xlink:href="#m90426ed37d" y="168.674302"/>
     <use style="stroke:#000000;" x="98.485298" xlink:href="#m90426ed37d" y="168.816901"/>
     <use style="stroke:#000000;" x="98.78781" xlink:href="#m90426ed37d" y="168.957614"/>
     <use style="stroke:#000000;" x="99.392835" xlink:href="#m90426ed37d" y="169.096711"/>
     <use style="stroke:#000000;" x="99.99786" xlink:href="#m90426ed37d" y="169.234193"/>
     <use style="stroke:#000000;" x="100.602884" xlink:href="#m90426ed37d" y="169.370059"/>
     <use style="stroke:#000000;" x="101.207909" xlink:href="#m90426ed37d" y="169.504578"/>
     <use style="stroke:#000000;" x="101.812934" xlink:href="#m90426ed37d" y="169.637885"/>
     <use style="stroke:#000000;" x="102.417959" xlink:href="#m90426ed37d" y="169.769846"/>
     <use style="stroke:#000000;" x="102.720471" xlink:href="#m90426ed37d" y="169.90073"/>
     <use style="stroke:#000000;" x="103.325496" xlink:href="#m90426ed37d" y="170.030401"/>
     <use style="stroke:#000000;" x="103.930521" xlink:href="#m90426ed37d" y="170.15913"/>
     <use style="stroke:#000000;" x="104.535546" xlink:href="#m90426ed37d" y="170.286782"/>
     <use style="stroke:#000000;" x="105.140571" xlink:href="#m90426ed37d" y="170.413492"/>
     <use style="stroke:#000000;" x="105.745596" xlink:href="#m90426ed37d" y="170.539528"/>
     <use style="stroke:#000000;" x="106.350621" xlink:href="#m90426ed37d" y="170.664486"/>
     <use style="stroke:#000000;" x="106.653133" xlink:href="#m90426ed37d" y="170.788907"/>
     <use style="stroke:#000000;" x="107.258158" xlink:href="#m90426ed37d" y="170.912384"/>
     <use style="stroke:#000000;" x="107.863183" xlink:href="#m90426ed37d" y="171.035323"/>
     <use style="stroke:#000000;" x="108.468207" xlink:href="#m90426ed37d" y="171.157454"/>
     <use style="stroke:#000000;" x="109.073232" xlink:href="#m90426ed37d" y="171.279047"/>
     <use style="stroke:#000000;" x="109.678257" xlink:href="#m90426ed37d" y="171.399966"/>
     <use style="stroke:#000000;" x="109.98077" xlink:href="#m90426ed37d" y="171.520346"/>
     <use style="stroke:#000000;" x="110.585794" xlink:href="#m90426ed37d" y="171.640188"/>
     <use style="stroke:#000000;" x="111.190819" xlink:href="#m90426ed37d" y="171.759492"/>
     <use style="stroke:#000000;" x="111.795844" xlink:href="#m90426ed37d" y="171.878256"/>
     <use style="stroke:#000000;" x="112.703381" xlink:href="#m90426ed37d" y="172.05573"/>
     <use style="stroke:#000000;" x="113.610919" xlink:href="#m90426ed37d" y="172.232261"/>
     <use style="stroke:#000000;" x="114.215944" xlink:href="#m90426ed37d" y="172.407715"/>
     <use style="stroke:#000000;" x="115.123481" xlink:href="#m90426ed37d" y="172.582362"/>
     <use style="stroke:#000000;" x="116.031018" xlink:href="#m90426ed37d" y="172.756065"/>
     <use style="stroke:#000000;" x="116.938555" xlink:href="#m90426ed37d" y="172.928961"/>
     <use style="stroke:#000000;" x="117.846093" xlink:href="#m90426ed37d" y="173.101183"/>
     <use style="stroke:#000000;" x="118.451117" xlink:href="#m90426ed37d" y="173.272597"/>
     <use style="stroke:#000000;" x="119.358655" xlink:href="#m90426ed37d" y="173.443204"/>
     <use style="stroke:#000000;" x="120.266192" xlink:href="#m90426ed37d" y="173.613272"/>
     <use style="stroke:#000000;" x="121.173729" xlink:href="#m90426ed37d" y="173.782666"/>
     <use style="stroke:#000000;" x="121.778754" xlink:href="#m90426ed37d" y="173.951387"/>
     <use style="stroke:#000000;" x="122.686291" xlink:href="#m90426ed37d" y="174.11957"/>
     <use style="stroke:#000000;" x="123.593829" xlink:href="#m90426ed37d" y="174.28708"/>
     <use style="stroke:#000000;" x="124.501366" xlink:href="#m90426ed37d" y="174.45405"/>
     <use style="stroke:#000000;" x="125.408903" xlink:href="#m90426ed37d" y="174.620483"/>
     <use style="stroke:#000000;" x="126.013928" xlink:href="#m90426ed37d" y="174.786376"/>
     <use style="stroke:#000000;" x="126.921465" xlink:href="#m90426ed37d" y="174.951596"/>
     <use style="stroke:#000000;" x="127.829003" xlink:href="#m90426ed37d" y="175.116413"/>
     <use style="stroke:#000000;" x="128.73654" xlink:href="#m90426ed37d" y="175.280825"/>
     <use style="stroke:#000000;" x="129.644077" xlink:href="#m90426ed37d" y="175.444564"/>
     <use style="stroke:#000000;" x="130.338343" xlink:href="#m90426ed37d" y="175.607899"/>
     <use style="stroke:#000000;" x="131.60224" xlink:href="#m90426ed37d" y="175.852027"/>
     <use style="stroke:#000000;" x="132.865834" xlink:href="#m90426ed37d" y="176.095077"/>
     <use style="stroke:#000000;" x="134.129731" xlink:href="#m90426ed37d" y="176.33705"/>
     <use style="stroke:#000000;" x="135.393628" xlink:href="#m90426ed37d" y="176.578081"/>
     <use style="stroke:#000000;" x="136.657525" xlink:href="#m90426ed37d" y="176.818034"/>
     <use style="stroke:#000000;" x="137.921119" xlink:href="#m90426ed37d" y="177.05691"/>
     <use style="stroke:#000000;" x="139.185016" xlink:href="#m90426ed37d" y="177.294843"/>
     <use style="stroke:#000000;" x="140.448913" xlink:href="#m90426ed37d" y="177.531699"/>
     <use style="stroke:#000000;" x="141.71281" xlink:href="#m90426ed37d" y="177.767613"/>
     <use style="stroke:#000000;" x="142.976405" xlink:href="#m90426ed37d" y="178.002449"/>
     <use style="stroke:#000000;" x="144.240301" xlink:href="#m90426ed37d" y="178.236343"/>
     <use style="stroke:#000000;" x="145.504198" xlink:href="#m90426ed37d" y="178.46916"/>
     <use style="stroke:#000000;" x="146.768095" xlink:href="#m90426ed37d" y="178.701034"/>
     <use style="stroke:#000000;" x="148.03169" xlink:href="#m90426ed37d" y="178.931965"/>
     <use style="stroke:#000000;" x="149.295587" xlink:href="#m90426ed37d" y="179.161819"/>
     <use style="stroke:#000000;" x="150.559483" xlink:href="#m90426ed37d" y="179.390731"/>
     <use style="stroke:#000000;" x="151.82338" xlink:href="#m90426ed37d" y="179.618565"/>
     <use style="stroke:#000000;" x="153.086975" xlink:href="#m90426ed37d" y="179.845457"/>
     <use style="stroke:#000000;" x="154.350872" xlink:href="#m90426ed37d" y="180.071406"/>
     <use style="stroke:#000000;" x="155.614769" xlink:href="#m90426ed37d" y="180.296278"/>
     <use style="stroke:#000000;" x="156.878665" xlink:href="#m90426ed37d" y="180.520073"/>
     <use style="stroke:#000000;" x="158.14226" xlink:href="#m90426ed37d" y="180.742925"/>
     <use style="stroke:#000000;" x="159.406157" xlink:href="#m90426ed37d" y="180.964835"/>
     <use style="stroke:#000000;" x="160.670054" xlink:href="#m90426ed37d" y="181.185532"/>
     <use style="stroke:#000000;" x="161.933951" xlink:href="#m90426ed37d" y="181.405422"/>
     <use style="stroke:#000000;" x="163.197545" xlink:href="#m90426ed37d" y="181.6241"/>
     <use style="stroke:#000000;" x="164.461442" xlink:href="#m90426ed37d" y="181.84197"/>
     <use style="stroke:#000000;" x="165.725339" xlink:href="#m90426ed37d" y="182.058628"/>
     <use style="stroke:#000000;" x="166.989236" xlink:href="#m90426ed37d" y="182.274344"/>
     <use style="stroke:#000000;" x="168.25283" xlink:href="#m90426ed37d" y="182.488982"/>
     <use style="stroke:#000000;" x="169.516727" xlink:href="#m90426ed37d" y="182.702543"/>
     <use style="stroke:#000000;" x="170.780624" xlink:href="#m90426ed37d" y="182.915161"/>
     <use style="stroke:#000000;" x="172.044218" xlink:href="#m90426ed37d" y="183.126703"/>
     <use style="stroke:#000000;" x="173.308115" xlink:href="#m90426ed37d" y="183.337167"/>
     <use style="stroke:#000000;" x="174.572012" xlink:href="#m90426ed37d" y="183.546553"/>
     <use style="stroke:#000000;" x="175.835909" xlink:href="#m90426ed37d" y="183.754998"/>
     <use style="stroke:#000000;" x="177.099503" xlink:href="#m90426ed37d" y="183.962365"/>
     <use style="stroke:#000000;" x="178.3634" xlink:href="#m90426ed37d" y="184.168654"/>
     <use style="stroke:#000000;" x="179.627297" xlink:href="#m90426ed37d" y="184.373867"/>
     <use style="stroke:#000000;" x="180.891194" xlink:href="#m90426ed37d" y="184.578137"/>
     <use style="stroke:#000000;" x="182.154788" xlink:href="#m90426ed37d" y="184.781195"/>
     <use style="stroke:#000000;" x="183.418685" xlink:href="#m90426ed37d" y="184.98331"/>
     <use style="stroke:#000000;" x="184.682582" xlink:href="#m90426ed37d" y="185.184348"/>
     <use style="stroke:#000000;" x="185.946479" xlink:href="#m90426ed37d" y="185.384309"/>
     <use style="stroke:#000000;" x="187.210074" xlink:href="#m90426ed37d" y="185.583193"/>
     <use style="stroke:#000000;" x="188.47397" xlink:href="#m90426ed37d" y="185.781"/>
     <use style="stroke:#000000;" x="189.737867" xlink:href="#m90426ed37d" y="185.977864"/>
     <use style="stroke:#000000;" x="191.001764" xlink:href="#m90426ed37d" y="186.173516"/>
     <use style="stroke:#000000;" x="192.265359" xlink:href="#m90426ed37d" y="186.368225"/>
     <use style="stroke:#000000;" x="193.529256" xlink:href="#m90426ed37d" y="186.561858"/>
     <use style="stroke:#000000;" x="194.793152" xlink:href="#m90426ed37d" y="186.754278"/>
     <use style="stroke:#000000;" x="196.057049" xlink:href="#m90426ed37d" y="186.945756"/>
     <use style="stroke:#000000;" x="197.320644" xlink:href="#m90426ed37d" y="187.136156"/>
     <use style="stroke:#000000;" x="198.584541" xlink:href="#m90426ed37d" y="187.325614"/>
     <use style="stroke:#000000;" x="199.848438" xlink:href="#m90426ed37d" y="187.513861"/>
     <use style="stroke:#000000;" x="201.112334" xlink:href="#m90426ed37d" y="187.701029"/>
     <use style="stroke:#000000;" x="202.375929" xlink:href="#m90426ed37d" y="187.887256"/>
     <use style="stroke:#000000;" x="203.639826" xlink:href="#m90426ed37d" y="188.072405"/>
     <use style="stroke:#000000;" x="204.903723" xlink:href="#m90426ed37d" y="188.256477"/>
     <use style="stroke:#000000;" x="206.16762" xlink:href="#m90426ed37d" y="188.439471"/>
     <use style="stroke:#000000;" x="207.431214" xlink:href="#m90426ed37d" y="188.621389"/>
     <use style="stroke:#000000;" x="208.695111" xlink:href="#m90426ed37d" y="188.802229"/>
     <use style="stroke:#000000;" x="209.959008" xlink:href="#m90426ed37d" y="188.982126"/>
     <use style="stroke:#000000;" x="211.222905" xlink:href="#m90426ed37d" y="189.160947"/>
     <use style="stroke:#000000;" x="212.486499" xlink:href="#m90426ed37d" y="189.33869"/>
     <use style="stroke:#000000;" x="213.750396" xlink:href="#m90426ed37d" y="189.515356"/>
     <use style="stroke:#000000;" x="215.014293" xlink:href="#m90426ed37d" y="189.691079"/>
     <use style="stroke:#000000;" x="216.27819" xlink:href="#m90426ed37d" y="189.865725"/>
     <use style="stroke:#000000;" x="217.541784" xlink:href="#m90426ed37d" y="190.039294"/>
     <use style="stroke:#000000;" x="218.805681" xlink:href="#m90426ed37d" y="190.211786"/>
     <use style="stroke:#000000;" x="220.069578" xlink:href="#m90426ed37d" y="190.383335"/>
     <use style="stroke:#000000;" x="221.333475" xlink:href="#m90426ed37d" y="190.553806"/>
     <use style="stroke:#000000;" x="222.597069" xlink:href="#m90426ed37d" y="190.723201"/>
     <use style="stroke:#000000;" x="223.860966" xlink:href="#m90426ed37d" y="190.891653"/>
     <use style="stroke:#000000;" x="225.124863" xlink:href="#m90426ed37d" y="191.059028"/>
     <use style="stroke:#000000;" x="226.38876" xlink:href="#m90426ed37d" y="191.22546"/>
     <use style="stroke:#000000;" x="227.652354" xlink:href="#m90426ed37d" y="191.390815"/>
     <use style="stroke:#000000;" x="228.916251" xlink:href="#m90426ed37d" y="191.555227"/>
     <use style="stroke:#000000;" x="230.180148" xlink:href="#m90426ed37d" y="191.718562"/>
     <use style="stroke:#000000;" x="231.444045" xlink:href="#m90426ed37d" y="191.88082"/>
     <use style="stroke:#000000;" x="232.707639" xlink:href="#m90426ed37d" y="192.04227"/>
     <use style="stroke:#000000;" x="233.971536" xlink:href="#m90426ed37d" y="192.202508"/>
     <use style="stroke:#000000;" x="235.235433" xlink:href="#m90426ed37d" y="192.361939"/>
     <use style="stroke:#000000;" x="236.499028" xlink:href="#m90426ed37d" y="192.520157"/>
     <use style="stroke:#000000;" x="237.762924" xlink:href="#m90426ed37d" y="192.677567"/>
     <use style="stroke:#000000;" x="239.026821" xlink:href="#m90426ed37d" y="192.8339"/>
     <use style="stroke:#000000;" x="240.290718" xlink:href="#m90426ed37d" y="192.989291"/>
     <use style="stroke:#000000;" x="241.554313" xlink:href="#m90426ed37d" y="193.143739"/>
     <use style="stroke:#000000;" x="242.81821" xlink:href="#m90426ed37d" y="193.297244"/>
     <use style="stroke:#000000;" x="244.082106" xlink:href="#m90426ed37d" y="193.449673"/>
     <use style="stroke:#000000;" x="245.977952" xlink:href="#m90426ed37d" y="193.676564"/>
     <use style="stroke:#000000;" x="247.8741" xlink:href="#m90426ed37d" y="193.901302"/>
     <use style="stroke:#000000;" x="249.769945" xlink:href="#m90426ed37d" y="194.123885"/>
     <use style="stroke:#000000;" x="251.666093" xlink:href="#m90426ed37d" y="194.344448"/>
     <use style="stroke:#000000;" x="253.561938" xlink:href="#m90426ed37d" y="194.562856"/>
     <use style="stroke:#000000;" x="255.458086" xlink:href="#m90426ed37d" y="194.77911"/>
     <use style="stroke:#000000;" x="257.353931" xlink:href="#m90426ed37d" y="194.99321"/>
     <use style="stroke:#000000;" x="259.250079" xlink:href="#m90426ed37d" y="195.20529"/>
     <use style="stroke:#000000;" x="261.145925" xlink:href="#m90426ed37d" y="195.41535"/>
     <use style="stroke:#000000;" x="263.042073" xlink:href="#m90426ed37d" y="195.62339"/>
     <use style="stroke:#000000;" x="264.937918" xlink:href="#m90426ed37d" y="195.829411"/>
     <use style="stroke:#000000;" x="266.834066" xlink:href="#m90426ed37d" y="196.033277"/>
     <use style="stroke:#000000;" x="268.729911" xlink:href="#m90426ed37d" y="196.235257"/>
     <use style="stroke:#000000;" x="270.626059" xlink:href="#m90426ed37d" y="196.435218"/>
     <use style="stroke:#000000;" x="272.521904" xlink:href="#m90426ed37d" y="196.633294"/>
     <use style="stroke:#000000;" x="274.418052" xlink:href="#m90426ed37d" y="196.82935"/>
     <use style="stroke:#000000;" x="276.313898" xlink:href="#m90426ed37d" y="197.023521"/>
     <use style="stroke:#000000;" x="278.210045" xlink:href="#m90426ed37d" y="197.215672"/>
     <use style="stroke:#000000;" x="280.105891" xlink:href="#m90426ed37d" y="197.406073"/>
     <use style="stroke:#000000;" x="282.002039" xlink:href="#m90426ed37d" y="197.594454"/>
     <use style="stroke:#000000;" x="283.897884" xlink:href="#m90426ed37d" y="197.781084"/>
     <use style="stroke:#000000;" x="285.794032" xlink:href="#m90426ed37d" y="197.965694"/>
     <use style="stroke:#000000;" x="287.689877" xlink:href="#m90426ed37d" y="198.148554"/>
     <use style="stroke:#000000;" x="289.586025" xlink:href="#m90426ed37d" y="198.329529"/>
     <use style="stroke:#000000;" x="291.48187" xlink:href="#m90426ed37d" y="198.508753"/>
     <use style="stroke:#000000;" x="293.378018" xlink:href="#m90426ed37d" y="198.686227"/>
     <use style="stroke:#000000;" x="295.273864" xlink:href="#m90426ed37d" y="198.861816"/>
     <use style="stroke:#000000;" x="297.170012" xlink:href="#m90426ed37d" y="199.035789"/>
     <use style="stroke:#000000;" x="299.065857" xlink:href="#m90426ed37d" y="199.207876"/>
     <use style="stroke:#000000;" x="300.962005" xlink:href="#m90426ed37d" y="199.378214"/>
     <use style="stroke:#000000;" x="302.85785" xlink:href="#m90426ed37d" y="199.546935"/>
     <use style="stroke:#000000;" x="304.753998" xlink:href="#m90426ed37d" y="199.713771"/>
     <use style="stroke:#000000;" x="306.649843" xlink:href="#m90426ed37d" y="199.879126"/>
     <use style="stroke:#000000;" x="308.545991" xlink:href="#m90426ed37d" y="200.042596"/>
     <use style="stroke:#000000;" x="310.441837" xlink:href="#m90426ed37d" y="200.204584"/>
     <use style="stroke:#000000;" x="312.337984" xlink:href="#m90426ed37d" y="200.364822"/>
     <use style="stroke:#000000;" x="314.23383" xlink:href="#m90426ed37d" y="200.523445"/>
     <use style="stroke:#000000;" x="316.129978" xlink:href="#m90426ed37d" y="200.680316"/>
     <use style="stroke:#000000;" x="318.025823" xlink:href="#m90426ed37d" y="200.835707"/>
     <use style="stroke:#000000;" x="319.921971" xlink:href="#m90426ed37d" y="200.989482"/>
     <use style="stroke:#000000;" x="321.817816" xlink:href="#m90426ed37d" y="201.141641"/>
     <use style="stroke:#000000;" x="323.713964" xlink:href="#m90426ed37d" y="201.292318"/>
     <use style="stroke:#000000;" x="325.609809" xlink:href="#m90426ed37d" y="201.441246"/>
     <use style="stroke:#000000;" x="327.505957" xlink:href="#m90426ed37d" y="201.588826"/>
     <use style="stroke:#000000;" x="329.401803" xlink:href="#m90426ed37d" y="201.734656"/>
     <use style="stroke:#000000;" x="331.29795" xlink:href="#m90426ed37d" y="201.87914"/>
     <use style="stroke:#000000;" x="333.193796" xlink:href="#m90426ed37d" y="202.022008"/>
     <use style="stroke:#000000;" x="335.089944" xlink:href="#m90426ed37d" y="202.163394"/>
     <use style="stroke:#000000;" x="336.985789" xlink:href="#m90426ed37d" y="202.3033"/>
     <use style="stroke:#000000;" x="338.881937" xlink:href="#m90426ed37d" y="202.441724"/>
     <use style="stroke:#000000;" x="340.777782" xlink:href="#m90426ed37d" y="202.578801"/>
     <use style="stroke:#000000;" x="342.67393" xlink:href="#m90426ed37d" y="202.714263"/>
     <use style="stroke:#000000;" x="344.569775" xlink:href="#m90426ed37d" y="202.848244"/>
     <use style="stroke:#000000;" x="346.465923" xlink:href="#m90426ed37d" y="202.980878"/>
     <use style="stroke:#000000;" x="348.361769" xlink:href="#m90426ed37d" y="203.112165"/>
     <use style="stroke:#000000;" x="350.257917" xlink:href="#m90426ed37d" y="203.241972"/>
     <use style="stroke:#000000;" x="352.153762" xlink:href="#m90426ed37d" y="203.370297"/>
     <use style="stroke:#000000;" x="354.04991" xlink:href="#m90426ed37d" y="203.497276"/>
     <use style="stroke:#000000;" x="355.945755" xlink:href="#m90426ed37d" y="203.622908"/>
     <use style="stroke:#000000;" x="357.841903" xlink:href="#m90426ed37d" y="203.747059"/>
     <use style="stroke:#000000;" x="359.737748" xlink:href="#m90426ed37d" y="203.869998"/>
     <use style="stroke:#000000;" x="361.633896" xlink:href="#m90426ed37d" y="203.991455"/>
     <use style="stroke:#000000;" x="363.529742" xlink:href="#m90426ed37d" y="204.111701"/>
     <use style="stroke:#000000;" x="365.425284" xlink:href="#m90426ed37d" y="204.230601"/>
    </g>
   </g>
   <g id="line2d_18">
    <path clip-path="url(#pa6b9ff53d2)" d="M 66.479483 96.6452 
L 66.933252 95.116112 
L 67.356769 94.463036 
L 67.689533 94.359673 
L 68.022297 94.535016 
L 68.445814 95.070547 
L 69.08109 96.339043 
L 70.04913 98.872781 
L 73.679279 108.842265 
L 75.282595 112.3698 
L 76.764906 115.10916 
L 78.489226 117.776676 
L 80.183296 119.970134 
L 82.149627 122.118557 
L 84.357967 124.161012 
L 86.808318 126.103594 
L 89.77294 128.146367 
L 93.040074 130.140259 
L 97.275248 132.46991 
L 102.720471 135.212077 
L 109.98077 138.606744 
L 118.451117 142.325964 
L 127.829003 146.210025 
L 137.921119 150.139608 
L 148.03169 153.827553 
L 158.14226 157.277345 
L 168.25283 160.505675 
L 179.627297 163.894516 
L 191.001764 167.050004 
L 203.639826 170.308277 
L 216.27819 173.324635 
L 228.916251 176.110217 
L 241.554313 178.675923 
L 255.458086 181.266207 
L 270.626059 183.85336 
L 287.689877 186.521828 
L 304.753998 188.974627 
L 323.713964 191.460241 
L 340.777782 193.475449 
L 357.841903 195.268493 
L 363.529742 195.814774 
L 365.425284 195.551717 
L 365.425284 195.551717 
" style="fill:none;stroke:#0000ff;stroke-dasharray:5.55,2.4;stroke-dashoffset:0;stroke-width:1.5;"/>
   </g>
   <g id="line2d_19">
    <path clip-path="url(#pa6b9ff53d2)" d="M 66.479483 135.569704 
L 66.933252 133.798098 
L 67.477774 132.530205 
L 67.901292 132.060663 
L 68.324809 131.927411 
L 68.748326 132.059202 
L 69.292849 132.520638 
L 70.04913 133.52395 
L 71.319682 135.67585 
L 74.163299 140.595492 
L 75.796866 142.965693 
L 77.490935 145.019981 
L 79.215256 146.751551 
L 81.181587 148.371547 
L 83.359676 149.834252 
L 85.689022 151.116996 
L 88.290629 152.307116 
L 91.648517 153.584881 
L 95.460173 154.80701 
L 100.602884 156.228615 
L 108.468207 158.142303 
L 121.173729 160.973179 
L 144.240301 165.864838 
L 165.725339 170.210553 
L 185.946479 174.066617 
L 207.431214 177.925397 
L 235.235433 182.676433 
L 263.042073 187.226807 
L 282.002039 190.117133 
L 299.065857 192.486866 
L 314.23383 194.378637 
L 329.401803 196.067229 
L 346.465923 197.739915 
L 363.529742 199.202229 
L 365.425284 199.744208 
L 365.425284 199.744208 
" style="fill:none;stroke:#0000ff;stroke-dasharray:5.55,2.4;stroke-dashoffset:0;stroke-width:1.5;"/>
   </g>
   <g id="line2d_20"/>
   <g id="line2d_21"/>
   <g id="line2d_22"/>
   <g id="line2d_23"/>
   <g id="line2d_24"/>
   <g id="line2d_25"/>
   <g id="patch_3">
    <path d="M 46.965625 239.758125 
L 46.965625 22.318125 
" style="fill:none;stroke:#000000;stroke-linecap:square;stroke-linejoin:miter;stroke-width:0.8;"/>
   </g>
   <g id="patch_4">
    <path d="M 381.765625 239.758125 
L 381.765625 22.318125 
" style="fill:none;stroke:#000000;stroke-linecap:square;stroke-linejoin:miter;stroke-width:0.8;"/>
   </g>
   <g id="patch_5">
    <path d="M 46.965625 239.758125 
L 381.765625 239.758125 
" style="fill:none;stroke:#000000;stroke-linecap:square;stroke-linejoin:miter;stroke-width:0.8;"/>
   </g>
   <g id="patch_6">
    <path d="M 46.965625 22.318125 
L 381.765625 22.318125 
" style="fill:none;stroke:#000000;stroke-linecap:square;stroke-linejoin:miter;stroke-width:0.8;"/>
   </g>
   <g id="text_17">
    <!-- Experiment_17 -->
    <defs>
     <path d="M 9.8125 72.90625 
L 55.90625 72.90625 
L 55.90625 64.59375 
L 19.671875 64.59375 
L 19.671875 43.015625 
L 54.390625 43.015625 
L 54.390625 34.71875 
L 19.671875 34.71875 
L 19.671875 8.296875 
L 56.78125 8.296875 
L 56.78125 0 
L 9.8125 0 
z
" id="DejaVuSans-45"/>
     <path d="M 54.890625 54.6875 
L 35.109375 28.078125 
L 55.90625 0 
L 45.3125 0 
L 29.390625 21.484375 
L 13.484375 0 
L 2.875 0 
L 24.125 28.609375 
L 4.6875 54.6875 
L 15.28125 54.6875 
L 29.78125 35.203125 
L 44.28125 54.6875 
z
" id="DejaVuSans-78"/>
     <path d="M 41.109375 46.296875 
Q 39.59375 47.171875 37.8125 47.578125 
Q 36.03125 48 33.890625 48 
Q 26.265625 48 22.1875 43.046875 
Q 18.109375 38.09375 18.109375 28.8125 
L 18.109375 0 
L 9.078125 0 
L 9.078125 54.6875 
L 18.109375 54.6875 
L 18.109375 46.1875 
Q 20.953125 51.171875 25.484375 53.578125 
Q 30.03125 56 36.53125 56 
Q 37.453125 56 38.578125 55.875 
Q 39.703125 55.765625 41.0625 55.515625 
z
" id="DejaVuSans-72"/>
     <path d="M 54.890625 33.015625 
L 54.890625 0 
L 45.90625 0 
L 45.90625 32.71875 
Q 45.90625 40.484375 42.875 44.328125 
Q 39.84375 48.1875 33.796875 48.1875 
Q 26.515625 48.1875 22.3125 43.546875 
Q 18.109375 38.921875 18.109375 30.90625 
L 18.109375 0 
L 9.078125 0 
L 9.078125 54.6875 
L 18.109375 54.6875 
L 18.109375 46.1875 
Q 21.34375 51.125 25.703125 53.5625 
Q 30.078125 56 35.796875 56 
Q 45.21875 56 50.046875 50.171875 
Q 54.890625 44.34375 54.890625 33.015625 
z
" id="DejaVuSans-6e"/>
     <path d="M 18.3125 70.21875 
L 18.3125 54.6875 
L 36.8125 54.6875 
L 36.8125 47.703125 
L 18.3125 47.703125 
L 18.3125 18.015625 
Q 18.3125 11.328125 20.140625 9.421875 
Q 21.96875 7.515625 27.59375 7.515625 
L 36.8125 7.515625 
L 36.8125 0 
L 27.59375 0 
Q 17.1875 0 13.234375 3.875 
Q 9.28125 7.765625 9.28125 18.015625 
L 9.28125 47.703125 
L 2.6875 47.703125 
L 2.6875 54.6875 
L 9.28125 54.6875 
L 9.28125 70.21875 
z
" id="DejaVuSans-74"/>
     <path d="M 50.984375 -16.609375 
L 50.984375 -23.578125 
L -0.984375 -23.578125 
L -0.984375 -16.609375 
z
" id="DejaVuSans-5f"/>
     <path d="M 8.203125 72.90625 
L 55.078125 72.90625 
L 55.078125 68.703125 
L 28.609375 0 
L 18.3125 0 
L 43.21875 64.59375 
L 8.203125 64.59375 
z
" id="DejaVuSans-37"/>
    </defs>
    <g transform="translate(169.062813 16.318125)scale(0.12 -0.12)">
     <use xlink:href="#DejaVuSans-45"/>
     <use x="63.183594" xlink:href="#DejaVuSans-78"/>
     <use x="122.363281" xlink:href="#DejaVuSans-70"/>
     <use x="185.839844" xlink:href="#DejaVuSans-65"/>
     <use x="247.363281" xlink:href="#DejaVuSans-72"/>
     <use x="288.476562" xlink:href="#DejaVuSans-69"/>
     <use x="316.259766" xlink:href="#DejaVuSans-6d"/>
     <use x="413.671875" xlink:href="#DejaVuSans-65"/>
     <use x="475.195312" xlink:href="#DejaVuSans-6e"/>
     <use x="538.574219" xlink:href="#DejaVuSans-74"/>
     <use x="577.783203" xlink:href="#DejaVuSans-5f"/>
     <use x="627.783203" xlink:href="#DejaVuSans-31"/>
     <use x="691.40625" xlink:href="#DejaVuSans-37"/>
    </g>
   </g>
   <g id="legend_1">
    <g id="patch_7">
     <path d="M 118.645313 103.730625 
L 374.765625 103.730625 
Q 376.765625 103.730625 376.765625 101.730625 
L 376.765625 29.318125 
Q 376.765625 27.318125 374.765625 27.318125 
L 118.645313 27.318125 
Q 116.645313 27.318125 116.645313 29.318125 
L 116.645313 101.730625 
Q 116.645313 103.730625 118.645313 103.730625 
z
" style="fill:#ffffff;opacity:0.8;stroke:#cccccc;stroke-linejoin:miter;"/>
    </g>
    <g id="line2d_26">
     <path d="M 120.645313 35.416562 
L 140.645313 35.416562 
" style="fill:none;stroke:#0000ff;stroke-linecap:square;stroke-width:1.5;"/>
    </g>
    <g id="line2d_27"/>
    <g id="text_18">
     <!-- MSI -->
     <defs>
      <path d="M 9.8125 72.90625 
L 24.515625 72.90625 
L 43.109375 23.296875 
L 61.8125 72.90625 
L 76.515625 72.90625 
L 76.515625 0 
L 66.890625 0 
L 66.890625 64.015625 
L 48.09375 14.015625 
L 38.1875 14.015625 
L 19.390625 64.015625 
L 19.390625 0 
L 9.8125 0 
z
" id="DejaVuSans-4d"/>
      <path d="M 53.515625 70.515625 
L 53.515625 60.890625 
Q 47.90625 63.578125 42.921875 64.890625 
Q 37.9375 66.21875 33.296875 66.21875 
Q 25.25 66.21875 20.875 63.09375 
Q 16.5 59.96875 16.5 54.203125 
Q 16.5 49.359375 19.40625 46.890625 
Q 22.3125 44.4375 30.421875 42.921875 
L 36.375 41.703125 
Q 47.40625 39.59375 52.65625 34.296875 
Q 57.90625 29 57.90625 20.125 
Q 57.90625 9.515625 50.796875 4.046875 
Q 43.703125 -1.421875 29.984375 -1.421875 
Q 24.8125 -1.421875 18.96875 -0.25 
Q 13.140625 0.921875 6.890625 3.21875 
L 6.890625 13.375 
Q 12.890625 10.015625 18.65625 8.296875 
Q 24.421875 6.59375 29.984375 6.59375 
Q 38.421875 6.59375 43.015625 9.90625 
Q 47.609375 13.234375 47.609375 19.390625 
Q 47.609375 24.75 44.3125 27.78125 
Q 41.015625 30.8125 33.5 32.328125 
L 27.484375 33.5 
Q 16.453125 35.6875 11.515625 40.375 
Q 6.59375 45.0625 6.59375 53.421875 
Q 6.59375 63.09375 13.40625 68.65625 
Q 20.21875 74.21875 32.171875 74.21875 
Q 37.3125 74.21875 42.625 73.28125 
Q 47.953125 72.359375 53.515625 70.515625 
z
" id="DejaVuSans-53"/>
      <path d="M 9.8125 72.90625 
L 19.671875 72.90625 
L 19.671875 0 
L 9.8125 0 
z
" id="DejaVuSans-49"/>
     </defs>
     <g transform="translate(148.645313 38.916562)scale(0.1 -0.1)">
      <use xlink:href="#DejaVuSans-4d"/>
      <use x="86.279297" xlink:href="#DejaVuSans-53"/>
      <use x="149.755859" xlink:href="#DejaVuSans-49"/>
     </g>
    </g>
    <g id="line2d_28">
     <path d="M 120.645313 50.09625 
L 140.645313 50.09625 
" style="fill:none;stroke:#ff0000;stroke-linecap:square;stroke-width:1.5;"/>
    </g>
    <g id="line2d_29"/>
    <g id="text_19">
     <!-- $\it{A priori}$ model -->
     <defs>
      <path d="M 36.8125 72.90625 
L 48 72.90625 
L 61.53125 0 
L 51.21875 0 
L 48.1875 18.703125 
L 15.375 18.703125 
L 5.078125 0 
L -5.328125 0 
z
M 40.375 63.1875 
L 19.921875 26.90625 
L 46.6875 26.90625 
z
" id="DejaVuSans-Oblique-41"/>
      <path d="M 49.609375 33.6875 
Q 49.609375 40.875 46.484375 44.671875 
Q 43.359375 48.484375 37.5 48.484375 
Q 33.5 48.484375 29.859375 46.4375 
Q 26.21875 44.390625 23.390625 40.484375 
Q 20.609375 36.625 18.9375 31.15625 
Q 17.28125 25.6875 17.28125 20.3125 
Q 17.28125 13.484375 20.40625 9.796875 
Q 23.53125 6.109375 29.296875 6.109375 
Q 33.546875 6.109375 37.1875 8.109375 
Q 40.828125 10.109375 43.40625 13.921875 
Q 46.1875 17.921875 47.890625 23.34375 
Q 49.609375 28.765625 49.609375 33.6875 
z
M 21.78125 46.390625 
Q 25.390625 51.125 30.296875 53.5625 
Q 35.203125 56 41.21875 56 
Q 49.609375 56 54.25 50.5 
Q 58.890625 45.015625 58.890625 35.109375 
Q 58.890625 27 56 19.65625 
Q 53.125 12.3125 47.703125 6.5 
Q 44.09375 2.640625 39.546875 0.609375 
Q 35.015625 -1.421875 29.984375 -1.421875 
Q 24.171875 -1.421875 20.21875 1 
Q 16.265625 3.421875 14.3125 8.203125 
L 8.6875 -20.796875 
L -0.296875 -20.796875 
L 14.40625 54.6875 
L 23.390625 54.6875 
z
" id="DejaVuSans-Oblique-70"/>
      <path d="M 44.578125 46.390625 
Q 43.21875 47.125 41.453125 47.515625 
Q 39.703125 47.90625 37.703125 47.90625 
Q 30.515625 47.90625 25.140625 42.453125 
Q 19.78125 37.015625 18.015625 27.875 
L 12.5 0 
L 3.515625 0 
L 14.203125 54.6875 
L 23.1875 54.6875 
L 21.484375 46.1875 
Q 25.046875 50.921875 30 53.453125 
Q 34.96875 56 40.578125 56 
Q 42.046875 56 43.453125 55.828125 
Q 44.875 55.671875 46.296875 55.28125 
z
" id="DejaVuSans-Oblique-72"/>
      <path d="M 18.3125 75.984375 
L 27.296875 75.984375 
L 25.09375 64.59375 
L 16.109375 64.59375 
z
M 14.203125 54.6875 
L 23.1875 54.6875 
L 12.5 0 
L 3.515625 0 
z
" id="DejaVuSans-Oblique-69"/>
      <path d="M 25.390625 -1.421875 
Q 15.765625 -1.421875 10.171875 4.515625 
Q 4.59375 10.453125 4.59375 20.703125 
Q 4.59375 26.65625 6.515625 32.828125 
Q 8.453125 39.015625 11.53125 43.21875 
Q 16.359375 49.75 22.3125 52.875 
Q 28.265625 56 35.796875 56 
Q 45.125 56 50.859375 50.1875 
Q 56.59375 44.390625 56.59375 35.015625 
Q 56.59375 28.515625 54.6875 22.0625 
Q 52.78125 15.625 49.703125 11.375 
Q 44.921875 4.828125 38.96875 1.703125 
Q 33.015625 -1.421875 25.390625 -1.421875 
z
M 13.921875 21 
Q 13.921875 13.578125 17.015625 9.890625 
Q 20.125 6.203125 26.421875 6.203125 
Q 35.453125 6.203125 41.375 14.078125 
Q 47.3125 21.96875 47.3125 34.078125 
Q 47.3125 41.15625 44.140625 44.765625 
Q 40.96875 48.390625 34.8125 48.390625 
Q 29.734375 48.390625 25.78125 46.015625 
Q 21.828125 43.65625 18.703125 38.8125 
Q 16.40625 35.203125 15.15625 30.5625 
Q 13.921875 25.921875 13.921875 21 
z
" id="DejaVuSans-Oblique-6f"/>
      <path d="M 30.609375 48.390625 
Q 23.390625 48.390625 19.1875 42.75 
Q 14.984375 37.109375 14.984375 27.296875 
Q 14.984375 17.484375 19.15625 11.84375 
Q 23.34375 6.203125 30.609375 6.203125 
Q 37.796875 6.203125 41.984375 11.859375 
Q 46.1875 17.53125 46.1875 27.296875 
Q 46.1875 37.015625 41.984375 42.703125 
Q 37.796875 48.390625 30.609375 48.390625 
z
M 30.609375 56 
Q 42.328125 56 49.015625 48.375 
Q 55.71875 40.765625 55.71875 27.296875 
Q 55.71875 13.875 49.015625 6.21875 
Q 42.328125 -1.421875 30.609375 -1.421875 
Q 18.84375 -1.421875 12.171875 6.21875 
Q 5.515625 13.875 5.515625 27.296875 
Q 5.515625 40.765625 12.171875 48.375 
Q 18.84375 56 30.609375 56 
z
" id="DejaVuSans-6f"/>
      <path d="M 45.40625 46.390625 
L 45.40625 75.984375 
L 54.390625 75.984375 
L 54.390625 0 
L 45.40625 0 
L 45.40625 8.203125 
Q 42.578125 3.328125 38.25 0.953125 
Q 33.9375 -1.421875 27.875 -1.421875 
Q 17.96875 -1.421875 11.734375 6.484375 
Q 5.515625 14.40625 5.515625 27.296875 
Q 5.515625 40.1875 11.734375 48.09375 
Q 17.96875 56 27.875 56 
Q 33.9375 56 38.25 53.625 
Q 42.578125 51.265625 45.40625 46.390625 
z
M 14.796875 27.296875 
Q 14.796875 17.390625 18.875 11.75 
Q 22.953125 6.109375 30.078125 6.109375 
Q 37.203125 6.109375 41.296875 11.75 
Q 45.40625 17.390625 45.40625 27.296875 
Q 45.40625 37.203125 41.296875 42.84375 
Q 37.203125 48.484375 30.078125 48.484375 
Q 22.953125 48.484375 18.875 42.84375 
Q 14.796875 37.203125 14.796875 27.296875 
z
" id="DejaVuSans-64"/>
      <path d="M 9.421875 75.984375 
L 18.40625 75.984375 
L 18.40625 0 
L 9.421875 0 
z
" id="DejaVuSans-6c"/>
     </defs>
     <g transform="translate(148.645313 53.59625)scale(0.1 -0.1)">
      <use transform="translate(0 0.015625)" xlink:href="#DejaVuSans-Oblique-41"/>
      <use transform="translate(68.408203 0.015625)" xlink:href="#DejaVuSans-Oblique-70"/>
      <use transform="translate(131.884766 0.015625)" xlink:href="#DejaVuSans-Oblique-72"/>
      <use transform="translate(172.998047 0.015625)" xlink:href="#DejaVuSans-Oblique-69"/>
      <use transform="translate(200.78125 0.015625)" xlink:href="#DejaVuSans-Oblique-6f"/>
      <use transform="translate(261.962891 0.015625)" xlink:href="#DejaVuSans-Oblique-72"/>
      <use transform="translate(303.076172 0.015625)" xlink:href="#DejaVuSans-Oblique-69"/>
      <use transform="translate(330.859375 0.015625)" xlink:href="#DejaVuSans-20"/>
      <use transform="translate(362.646484 0.015625)" xlink:href="#DejaVuSans-6d"/>
      <use transform="translate(460.058594 0.015625)" xlink:href="#DejaVuSans-6f"/>
      <use transform="translate(521.240234 0.015625)" xlink:href="#DejaVuSans-64"/>
      <use transform="translate(584.716797 0.015625)" xlink:href="#DejaVuSans-65"/>
      <use transform="translate(646.240234 0.015625)" xlink:href="#DejaVuSans-6c"/>
     </g>
    </g>
    <g id="line2d_30"/>
    <g id="line2d_31">
     <g>
      <use style="stroke:#000000;" x="130.645313" xlink:href="#m90426ed37d" y="64.794688"/>
     </g>
    </g>
    <g id="text_20">
     <!-- Experimental Data -->
     <defs>
      <path d="M 34.28125 27.484375 
Q 23.390625 27.484375 19.1875 25 
Q 14.984375 22.515625 14.984375 16.5 
Q 14.984375 11.71875 18.140625 8.90625 
Q 21.296875 6.109375 26.703125 6.109375 
Q 34.1875 6.109375 38.703125 11.40625 
Q 43.21875 16.703125 43.21875 25.484375 
L 43.21875 27.484375 
z
M 52.203125 31.203125 
L 52.203125 0 
L 43.21875 0 
L 43.21875 8.296875 
Q 40.140625 3.328125 35.546875 0.953125 
Q 30.953125 -1.421875 24.3125 -1.421875 
Q 15.921875 -1.421875 10.953125 3.296875 
Q 6 8.015625 6 15.921875 
Q 6 25.140625 12.171875 29.828125 
Q 18.359375 34.515625 30.609375 34.515625 
L 43.21875 34.515625 
L 43.21875 35.40625 
Q 43.21875 41.609375 39.140625 45 
Q 35.0625 48.390625 27.6875 48.390625 
Q 23 48.390625 18.546875 47.265625 
Q 14.109375 46.140625 10.015625 43.890625 
L 10.015625 52.203125 
Q 14.9375 54.109375 19.578125 55.046875 
Q 24.21875 56 28.609375 56 
Q 40.484375 56 46.34375 49.84375 
Q 52.203125 43.703125 52.203125 31.203125 
z
" id="DejaVuSans-61"/>
      <path d="M 19.671875 64.796875 
L 19.671875 8.109375 
L 31.59375 8.109375 
Q 46.6875 8.109375 53.6875 14.9375 
Q 60.6875 21.78125 60.6875 36.53125 
Q 60.6875 51.171875 53.6875 57.984375 
Q 46.6875 64.796875 31.59375 64.796875 
z
M 9.8125 72.90625 
L 30.078125 72.90625 
Q 51.265625 72.90625 61.171875 64.09375 
Q 71.09375 55.28125 71.09375 36.53125 
Q 71.09375 17.671875 61.125 8.828125 
Q 51.171875 0 30.078125 0 
L 9.8125 0 
z
" id="DejaVuSans-44"/>
     </defs>
     <g transform="translate(148.645313 68.294688)scale(0.1 -0.1)">
      <use xlink:href="#DejaVuSans-45"/>
      <use x="63.183594" xlink:href="#DejaVuSans-78"/>
      <use x="122.363281" xlink:href="#DejaVuSans-70"/>
      <use x="185.839844" xlink:href="#DejaVuSans-65"/>
      <use x="247.363281" xlink:href="#DejaVuSans-72"/>
      <use x="288.476562" xlink:href="#DejaVuSans-69"/>
      <use x="316.259766" xlink:href="#DejaVuSans-6d"/>
      <use x="413.671875" xlink:href="#DejaVuSans-65"/>
      <use x="475.195312" xlink:href="#DejaVuSans-6e"/>
      <use x="538.574219" xlink:href="#DejaVuSans-74"/>
      <use x="577.783203" xlink:href="#DejaVuSans-61"/>
      <use x="639.0625" xlink:href="#DejaVuSans-6c"/>
      <use x="666.845703" xlink:href="#DejaVuSans-20"/>
      <use x="698.632812" xlink:href="#DejaVuSans-44"/>
      <use x="775.634766" xlink:href="#DejaVuSans-61"/>
      <use x="836.914062" xlink:href="#DejaVuSans-74"/>
      <use x="876.123047" xlink:href="#DejaVuSans-61"/>
     </g>
    </g>
    <g id="line2d_32">
     <path d="M 120.645313 79.472813 
L 140.645313 79.472813 
" style="fill:none;stroke:#ffffff;stroke-linecap:square;stroke-width:1.5;"/>
    </g>
    <g id="line2d_33"/>
    <g id="text_21">
     <!-- T:1227 -->
     <defs>
      <path d="M 11.71875 12.40625 
L 22.015625 12.40625 
L 22.015625 0 
L 11.71875 0 
z
M 11.71875 51.703125 
L 22.015625 51.703125 
L 22.015625 39.3125 
L 11.71875 39.3125 
z
" id="DejaVuSans-3a"/>
     </defs>
     <g transform="translate(148.645313 82.972813)scale(0.1 -0.1)">
      <use xlink:href="#DejaVuSans-54"/>
      <use x="60.912109" xlink:href="#DejaVuSans-3a"/>
      <use x="94.603516" xlink:href="#DejaVuSans-31"/>
      <use x="158.226562" xlink:href="#DejaVuSans-32"/>
      <use x="221.849609" xlink:href="#DejaVuSans-32"/>
      <use x="285.472656" xlink:href="#DejaVuSans-37"/>
     </g>
    </g>
    <g id="line2d_34">
     <path d="M 120.645313 94.150937 
L 140.645313 94.150937 
" style="fill:none;stroke:#ffffff;stroke-linecap:square;stroke-width:1.5;"/>
    </g>
    <g id="line2d_35"/>
    <g id="text_22">
     <!-- P:1.558 -->
     <defs>
      <path d="M 19.671875 64.796875 
L 19.671875 37.40625 
L 32.078125 37.40625 
Q 38.96875 37.40625 42.71875 40.96875 
Q 46.484375 44.53125 46.484375 51.125 
Q 46.484375 57.671875 42.71875 61.234375 
Q 38.96875 64.796875 32.078125 64.796875 
z
M 9.8125 72.90625 
L 32.078125 72.90625 
Q 44.34375 72.90625 50.609375 67.359375 
Q 56.890625 61.8125 56.890625 51.125 
Q 56.890625 40.328125 50.609375 34.8125 
Q 44.34375 29.296875 32.078125 29.296875 
L 19.671875 29.296875 
L 19.671875 0 
L 9.8125 0 
z
" id="DejaVuSans-50"/>
      <path d="M 10.796875 72.90625 
L 49.515625 72.90625 
L 49.515625 64.59375 
L 19.828125 64.59375 
L 19.828125 46.734375 
Q 21.96875 47.46875 24.109375 47.828125 
Q 26.265625 48.1875 28.421875 48.1875 
Q 40.625 48.1875 47.75 41.5 
Q 54.890625 34.8125 54.890625 23.390625 
Q 54.890625 11.625 47.5625 5.09375 
Q 40.234375 -1.421875 26.90625 -1.421875 
Q 22.3125 -1.421875 17.546875 -0.640625 
Q 12.796875 0.140625 7.71875 1.703125 
L 7.71875 11.625 
Q 12.109375 9.234375 16.796875 8.0625 
Q 21.484375 6.890625 26.703125 6.890625 
Q 35.15625 6.890625 40.078125 11.328125 
Q 45.015625 15.765625 45.015625 23.390625 
Q 45.015625 31 40.078125 35.4375 
Q 35.15625 39.890625 26.703125 39.890625 
Q 22.75 39.890625 18.8125 39.015625 
Q 14.890625 38.140625 10.796875 36.28125 
z
" id="DejaVuSans-35"/>
     </defs>
     <g transform="translate(148.645313 97.650937)scale(0.1 -0.1)">
      <use xlink:href="#DejaVuSans-50"/>
      <use x="60.302734" xlink:href="#DejaVuSans-3a"/>
      <use x="93.994141" xlink:href="#DejaVuSans-31"/>
      <use x="157.617188" xlink:href="#DejaVuSans-2e"/>
      <use x="189.404297" xlink:href="#DejaVuSans-35"/>
      <use x="253.027344" xlink:href="#DejaVuSans-35"/>
      <use x="316.650391" xlink:href="#DejaVuSans-38"/>
     </g>
    </g>
    <g id="line2d_36">
     <path d="M 262.385938 35.416562 
L 282.385938 35.416562 
" style="fill:none;stroke:#ffffff;stroke-linecap:square;stroke-width:1.5;"/>
    </g>
    <g id="line2d_37"/>
    <g id="text_23">
     <!-- H2O2: 0.001696 -->
     <defs>
      <path d="M 10.984375 1.515625 
L 10.984375 10.5 
Q 14.703125 8.734375 18.5 7.8125 
Q 22.3125 6.890625 25.984375 6.890625 
Q 35.75 6.890625 40.890625 13.453125 
Q 46.046875 20.015625 46.78125 33.40625 
Q 43.953125 29.203125 39.59375 26.953125 
Q 35.25 24.703125 29.984375 24.703125 
Q 19.046875 24.703125 12.671875 31.3125 
Q 6.296875 37.9375 6.296875 49.421875 
Q 6.296875 60.640625 12.9375 67.421875 
Q 19.578125 74.21875 30.609375 74.21875 
Q 43.265625 74.21875 49.921875 64.515625 
Q 56.59375 54.828125 56.59375 36.375 
Q 56.59375 19.140625 48.40625 8.859375 
Q 40.234375 -1.421875 26.421875 -1.421875 
Q 22.703125 -1.421875 18.890625 -0.6875 
Q 15.09375 0.046875 10.984375 1.515625 
z
M 30.609375 32.421875 
Q 37.25 32.421875 41.125 36.953125 
Q 45.015625 41.5 45.015625 49.421875 
Q 45.015625 57.28125 41.125 61.84375 
Q 37.25 66.40625 30.609375 66.40625 
Q 23.96875 66.40625 20.09375 61.84375 
Q 16.21875 57.28125 16.21875 49.421875 
Q 16.21875 41.5 20.09375 36.953125 
Q 23.96875 32.421875 30.609375 32.421875 
z
" id="DejaVuSans-39"/>
     </defs>
     <g transform="translate(290.385938 38.916562)scale(0.1 -0.1)">
      <use xlink:href="#DejaVuSans-48"/>
      <use x="75.195312" xlink:href="#DejaVuSans-32"/>
      <use x="138.818359" xlink:href="#DejaVuSans-4f"/>
      <use x="217.529297" xlink:href="#DejaVuSans-32"/>
      <use x="281.152344" xlink:href="#DejaVuSans-3a"/>
      <use x="314.84375" xlink:href="#DejaVuSans-20"/>
      <use x="346.630859" xlink:href="#DejaVuSans-30"/>
      <use x="410.253906" xlink:href="#DejaVuSans-2e"/>
      <use x="442.041016" xlink:href="#DejaVuSans-30"/>
      <use x="505.664062" xlink:href="#DejaVuSans-30"/>
      <use x="569.287109" xlink:href="#DejaVuSans-31"/>
      <use x="632.910156" xlink:href="#DejaVuSans-36"/>
      <use x="696.533203" xlink:href="#DejaVuSans-39"/>
      <use x="760.15625" xlink:href="#DejaVuSans-36"/>
     </g>
    </g>
    <g id="line2d_38">
     <path d="M 262.385938 50.094687 
L 282.385938 50.094687 
" style="fill:none;stroke:#ffffff;stroke-linecap:square;stroke-width:1.5;"/>
    </g>
    <g id="line2d_39"/>
    <g id="text_24">
     <!-- H2O: 0.001113 -->
     <defs>
      <path d="M 40.578125 39.3125 
Q 47.65625 37.796875 51.625 33 
Q 55.609375 28.21875 55.609375 21.1875 
Q 55.609375 10.40625 48.1875 4.484375 
Q 40.765625 -1.421875 27.09375 -1.421875 
Q 22.515625 -1.421875 17.65625 -0.515625 
Q 12.796875 0.390625 7.625 2.203125 
L 7.625 11.71875 
Q 11.71875 9.328125 16.59375 8.109375 
Q 21.484375 6.890625 26.8125 6.890625 
Q 36.078125 6.890625 40.9375 10.546875 
Q 45.796875 14.203125 45.796875 21.1875 
Q 45.796875 27.640625 41.28125 31.265625 
Q 36.765625 34.90625 28.71875 34.90625 
L 20.21875 34.90625 
L 20.21875 43.015625 
L 29.109375 43.015625 
Q 36.375 43.015625 40.234375 45.921875 
Q 44.09375 48.828125 44.09375 54.296875 
Q 44.09375 59.90625 40.109375 62.90625 
Q 36.140625 65.921875 28.71875 65.921875 
Q 24.65625 65.921875 20.015625 65.03125 
Q 15.375 64.15625 9.8125 62.3125 
L 9.8125 71.09375 
Q 15.4375 72.65625 20.34375 73.4375 
Q 25.25 74.21875 29.59375 74.21875 
Q 40.828125 74.21875 47.359375 69.109375 
Q 53.90625 64.015625 53.90625 55.328125 
Q 53.90625 49.265625 50.4375 45.09375 
Q 46.96875 40.921875 40.578125 39.3125 
z
" id="DejaVuSans-33"/>
     </defs>
     <g transform="translate(290.385938 53.594687)scale(0.1 -0.1)">
      <use xlink:href="#DejaVuSans-48"/>
      <use x="75.195312" xlink:href="#DejaVuSans-32"/>
      <use x="138.818359" xlink:href="#DejaVuSans-4f"/>
      <use x="217.513672" xlink:href="#DejaVuSans-3a"/>
      <use x="251.205078" xlink:href="#DejaVuSans-20"/>
      <use x="282.992188" xlink:href="#DejaVuSans-30"/>
      <use x="346.615234" xlink:href="#DejaVuSans-2e"/>
      <use x="378.402344" xlink:href="#DejaVuSans-30"/>
      <use x="442.025391" xlink:href="#DejaVuSans-30"/>
      <use x="505.648438" xlink:href="#DejaVuSans-31"/>
      <use x="569.271484" xlink:href="#DejaVuSans-31"/>
      <use x="632.894531" xlink:href="#DejaVuSans-31"/>
      <use x="696.517578" xlink:href="#DejaVuSans-33"/>
     </g>
    </g>
    <g id="line2d_40">
     <path d="M 262.385938 64.772812 
L 282.385938 64.772812 
" style="fill:none;stroke:#ffffff;stroke-linecap:square;stroke-width:1.5;"/>
    </g>
    <g id="line2d_41"/>
    <g id="text_25">
     <!-- O2: 0.000556 -->
     <g transform="translate(290.385938 68.272812)scale(0.1 -0.1)">
      <use xlink:href="#DejaVuSans-4f"/>
      <use x="78.710938" xlink:href="#DejaVuSans-32"/>
      <use x="142.333984" xlink:href="#DejaVuSans-3a"/>
      <use x="176.025391" xlink:href="#DejaVuSans-20"/>
      <use x="207.8125" xlink:href="#DejaVuSans-30"/>
      <use x="271.435547" xlink:href="#DejaVuSans-2e"/>
      <use x="303.222656" xlink:href="#DejaVuSans-30"/>
      <use x="366.845703" xlink:href="#DejaVuSans-30"/>
      <use x="430.46875" xlink:href="#DejaVuSans-30"/>
      <use x="494.091797" xlink:href="#DejaVuSans-35"/>
      <use x="557.714844" xlink:href="#DejaVuSans-35"/>
      <use x="621.337891" xlink:href="#DejaVuSans-36"/>
     </g>
    </g>
    <g id="line2d_42">
     <path d="M 262.385938 79.450938 
L 282.385938 79.450938 
" style="fill:none;stroke:#ffffff;stroke-linecap:square;stroke-width:1.5;"/>
    </g>
    <g id="line2d_43"/>
    <g id="text_26">
     <!-- Ar: 0.996401 -->
     <defs>
      <path d="M 34.1875 63.1875 
L 20.796875 26.90625 
L 47.609375 26.90625 
z
M 28.609375 72.90625 
L 39.796875 72.90625 
L 67.578125 0 
L 57.328125 0 
L 50.6875 18.703125 
L 17.828125 18.703125 
L 11.1875 0 
L 0.78125 0 
z
" id="DejaVuSans-41"/>
     </defs>
     <g transform="translate(290.385938 82.950938)scale(0.1 -0.1)">
      <use xlink:href="#DejaVuSans-41"/>
      <use x="68.408203" xlink:href="#DejaVuSans-72"/>
      <use x="109.505859" xlink:href="#DejaVuSans-3a"/>
      <use x="143.197266" xlink:href="#DejaVuSans-20"/>
      <use x="174.984375" xlink:href="#DejaVuSans-30"/>
      <use x="238.607422" xlink:href="#DejaVuSans-2e"/>
      <use x="270.394531" xlink:href="#DejaVuSans-39"/>
      <use x="334.017578" xlink:href="#DejaVuSans-39"/>
      <use x="397.640625" xlink:href="#DejaVuSans-36"/>
      <use x="461.263672" xlink:href="#DejaVuSans-34"/>
      <use x="524.886719" xlink:href="#DejaVuSans-30"/>
      <use x="588.509766" xlink:href="#DejaVuSans-31"/>
     </g>
    </g>
   </g>
  </g>
 </g>
 <defs>
  <clipPath id="pa6b9ff53d2">
   <rect height="217.44" width="334.8" x="46.965625" y="22.318125"/>
  </clipPath>
 </defs>
</svg>
