<?xml version="1.0" encoding="utf-8" standalone="no"?>
<!DOCTYPE svg PUBLIC "-//W3C//DTD SVG 1.1//EN"
  "http://www.w3.org/Graphics/SVG/1.1/DTD/svg11.dtd">
<!-- Created with matplotlib (http://matplotlib.org/) -->
<svg height="277pt" version="1.1" viewBox="0 0 386 277" width="386pt" xmlns="http://www.w3.org/2000/svg" xmlns:xlink="http://www.w3.org/1999/xlink">
 <defs>
  <style type="text/css">
*{stroke-linecap:butt;stroke-linejoin:round;}
  </style>
 </defs>
 <g id="figure_1">
  <g id="patch_1">
   <path d="M 0 277.314375 
L 386.103125 277.314375 
L 386.103125 0 
L 0 0 
z
" style="fill:none;"/>
  </g>
  <g id="axes_1">
   <g id="patch_2">
    <path d="M 40.603125 239.758125 
L 375.403125 239.758125 
L 375.403125 22.318125 
L 40.603125 22.318125 
z
" style="fill:none;"/>
   </g>
   <g id="matplotlib.axis_1">
    <g id="xtick_1">
     <g id="line2d_1">
      <defs>
       <path d="M 0 0 
L 0 3.5 
" id="md1c3139381" style="stroke:#000000;stroke-width:0.8;"/>
      </defs>
      <g>
       <use style="stroke:#000000;stroke-width:0.8;" x="55.821307" xlink:href="#md1c3139381" y="239.758125"/>
      </g>
     </g>
     <g id="text_1">
      <!-- 0.0 -->
      <defs>
       <path d="M 31.78125 66.40625 
Q 24.171875 66.40625 20.328125 58.90625 
Q 16.5 51.421875 16.5 36.375 
Q 16.5 21.390625 20.328125 13.890625 
Q 24.171875 6.390625 31.78125 6.390625 
Q 39.453125 6.390625 43.28125 13.890625 
Q 47.125 21.390625 47.125 36.375 
Q 47.125 51.421875 43.28125 58.90625 
Q 39.453125 66.40625 31.78125 66.40625 
z
M 31.78125 74.21875 
Q 44.046875 74.21875 50.515625 64.515625 
Q 56.984375 54.828125 56.984375 36.375 
Q 56.984375 17.96875 50.515625 8.265625 
Q 44.046875 -1.421875 31.78125 -1.421875 
Q 19.53125 -1.421875 13.0625 8.265625 
Q 6.59375 17.96875 6.59375 36.375 
Q 6.59375 54.828125 13.0625 64.515625 
Q 19.53125 74.21875 31.78125 74.21875 
z
" id="DejaVuSans-30"/>
       <path d="M 10.6875 12.40625 
L 21 12.40625 
L 21 0 
L 10.6875 0 
z
" id="DejaVuSans-2e"/>
      </defs>
      <g transform="translate(47.869744 254.356562)scale(0.1 -0.1)">
       <use xlink:href="#DejaVuSans-30"/>
       <use x="63.623047" xlink:href="#DejaVuSans-2e"/>
       <use x="95.410156" xlink:href="#DejaVuSans-30"/>
      </g>
     </g>
    </g>
    <g id="xtick_2">
     <g id="line2d_2">
      <g>
       <use style="stroke:#000000;stroke-width:0.8;" x="116.216027" xlink:href="#md1c3139381" y="239.758125"/>
      </g>
     </g>
     <g id="text_2">
      <!-- 0.2 -->
      <defs>
       <path d="M 19.1875 8.296875 
L 53.609375 8.296875 
L 53.609375 0 
L 7.328125 0 
L 7.328125 8.296875 
Q 12.9375 14.109375 22.625 23.890625 
Q 32.328125 33.6875 34.8125 36.53125 
Q 39.546875 41.84375 41.421875 45.53125 
Q 43.3125 49.21875 43.3125 52.78125 
Q 43.3125 58.59375 39.234375 62.25 
Q 35.15625 65.921875 28.609375 65.921875 
Q 23.96875 65.921875 18.8125 64.3125 
Q 13.671875 62.703125 7.8125 59.421875 
L 7.8125 69.390625 
Q 13.765625 71.78125 18.9375 73 
Q 24.125 74.21875 28.421875 74.21875 
Q 39.75 74.21875 46.484375 68.546875 
Q 53.21875 62.890625 53.21875 53.421875 
Q 53.21875 48.921875 51.53125 44.890625 
Q 49.859375 40.875 45.40625 35.40625 
Q 44.1875 33.984375 37.640625 27.21875 
Q 31.109375 20.453125 19.1875 8.296875 
z
" id="DejaVuSans-32"/>
      </defs>
      <g transform="translate(108.264464 254.356562)scale(0.1 -0.1)">
       <use xlink:href="#DejaVuSans-30"/>
       <use x="63.623047" xlink:href="#DejaVuSans-2e"/>
       <use x="95.410156" xlink:href="#DejaVuSans-32"/>
      </g>
     </g>
    </g>
    <g id="xtick_3">
     <g id="line2d_3">
      <g>
       <use style="stroke:#000000;stroke-width:0.8;" x="176.610746" xlink:href="#md1c3139381" y="239.758125"/>
      </g>
     </g>
     <g id="text_3">
      <!-- 0.4 -->
      <defs>
       <path d="M 37.796875 64.3125 
L 12.890625 25.390625 
L 37.796875 25.390625 
z
M 35.203125 72.90625 
L 47.609375 72.90625 
L 47.609375 25.390625 
L 58.015625 25.390625 
L 58.015625 17.1875 
L 47.609375 17.1875 
L 47.609375 0 
L 37.796875 0 
L 37.796875 17.1875 
L 4.890625 17.1875 
L 4.890625 26.703125 
z
" id="DejaVuSans-34"/>
      </defs>
      <g transform="translate(168.659184 254.356562)scale(0.1 -0.1)">
       <use xlink:href="#DejaVuSans-30"/>
       <use x="63.623047" xlink:href="#DejaVuSans-2e"/>
       <use x="95.410156" xlink:href="#DejaVuSans-34"/>
      </g>
     </g>
    </g>
    <g id="xtick_4">
     <g id="line2d_4">
      <g>
       <use style="stroke:#000000;stroke-width:0.8;" x="237.005466" xlink:href="#md1c3139381" y="239.758125"/>
      </g>
     </g>
     <g id="text_4">
      <!-- 0.6 -->
      <defs>
       <path d="M 33.015625 40.375 
Q 26.375 40.375 22.484375 35.828125 
Q 18.609375 31.296875 18.609375 23.390625 
Q 18.609375 15.53125 22.484375 10.953125 
Q 26.375 6.390625 33.015625 6.390625 
Q 39.65625 6.390625 43.53125 10.953125 
Q 47.40625 15.53125 47.40625 23.390625 
Q 47.40625 31.296875 43.53125 35.828125 
Q 39.65625 40.375 33.015625 40.375 
z
M 52.59375 71.296875 
L 52.59375 62.3125 
Q 48.875 64.0625 45.09375 64.984375 
Q 41.3125 65.921875 37.59375 65.921875 
Q 27.828125 65.921875 22.671875 59.328125 
Q 17.53125 52.734375 16.796875 39.40625 
Q 19.671875 43.65625 24.015625 45.921875 
Q 28.375 48.1875 33.59375 48.1875 
Q 44.578125 48.1875 50.953125 41.515625 
Q 57.328125 34.859375 57.328125 23.390625 
Q 57.328125 12.15625 50.6875 5.359375 
Q 44.046875 -1.421875 33.015625 -1.421875 
Q 20.359375 -1.421875 13.671875 8.265625 
Q 6.984375 17.96875 6.984375 36.375 
Q 6.984375 53.65625 15.1875 63.9375 
Q 23.390625 74.21875 37.203125 74.21875 
Q 40.921875 74.21875 44.703125 73.484375 
Q 48.484375 72.75 52.59375 71.296875 
z
" id="DejaVuSans-36"/>
      </defs>
      <g transform="translate(229.053903 254.356562)scale(0.1 -0.1)">
       <use xlink:href="#DejaVuSans-30"/>
       <use x="63.623047" xlink:href="#DejaVuSans-2e"/>
       <use x="95.410156" xlink:href="#DejaVuSans-36"/>
      </g>
     </g>
    </g>
    <g id="xtick_5">
     <g id="line2d_5">
      <g>
       <use style="stroke:#000000;stroke-width:0.8;" x="297.400186" xlink:href="#md1c3139381" y="239.758125"/>
      </g>
     </g>
     <g id="text_5">
      <!-- 0.8 -->
      <defs>
       <path d="M 31.78125 34.625 
Q 24.75 34.625 20.71875 30.859375 
Q 16.703125 27.09375 16.703125 20.515625 
Q 16.703125 13.921875 20.71875 10.15625 
Q 24.75 6.390625 31.78125 6.390625 
Q 38.8125 6.390625 42.859375 10.171875 
Q 46.921875 13.96875 46.921875 20.515625 
Q 46.921875 27.09375 42.890625 30.859375 
Q 38.875 34.625 31.78125 34.625 
z
M 21.921875 38.8125 
Q 15.578125 40.375 12.03125 44.71875 
Q 8.5 49.078125 8.5 55.328125 
Q 8.5 64.0625 14.71875 69.140625 
Q 20.953125 74.21875 31.78125 74.21875 
Q 42.671875 74.21875 48.875 69.140625 
Q 55.078125 64.0625 55.078125 55.328125 
Q 55.078125 49.078125 51.53125 44.71875 
Q 48 40.375 41.703125 38.8125 
Q 48.828125 37.15625 52.796875 32.3125 
Q 56.78125 27.484375 56.78125 20.515625 
Q 56.78125 9.90625 50.3125 4.234375 
Q 43.84375 -1.421875 31.78125 -1.421875 
Q 19.734375 -1.421875 13.25 4.234375 
Q 6.78125 9.90625 6.78125 20.515625 
Q 6.78125 27.484375 10.78125 32.3125 
Q 14.796875 37.15625 21.921875 38.8125 
z
M 18.3125 54.390625 
Q 18.3125 48.734375 21.84375 45.5625 
Q 25.390625 42.390625 31.78125 42.390625 
Q 38.140625 42.390625 41.71875 45.5625 
Q 45.3125 48.734375 45.3125 54.390625 
Q 45.3125 60.0625 41.71875 63.234375 
Q 38.140625 66.40625 31.78125 66.40625 
Q 25.390625 66.40625 21.84375 63.234375 
Q 18.3125 60.0625 18.3125 54.390625 
z
" id="DejaVuSans-38"/>
      </defs>
      <g transform="translate(289.448623 254.356562)scale(0.1 -0.1)">
       <use xlink:href="#DejaVuSans-30"/>
       <use x="63.623047" xlink:href="#DejaVuSans-2e"/>
       <use x="95.410156" xlink:href="#DejaVuSans-38"/>
      </g>
     </g>
    </g>
    <g id="xtick_6">
     <g id="line2d_6">
      <g>
       <use style="stroke:#000000;stroke-width:0.8;" x="357.794905" xlink:href="#md1c3139381" y="239.758125"/>
      </g>
     </g>
     <g id="text_6">
      <!-- 1.0 -->
      <defs>
       <path d="M 12.40625 8.296875 
L 28.515625 8.296875 
L 28.515625 63.921875 
L 10.984375 60.40625 
L 10.984375 69.390625 
L 28.421875 72.90625 
L 38.28125 72.90625 
L 38.28125 8.296875 
L 54.390625 8.296875 
L 54.390625 0 
L 12.40625 0 
z
" id="DejaVuSans-31"/>
      </defs>
      <g transform="translate(349.843343 254.356562)scale(0.1 -0.1)">
       <use xlink:href="#DejaVuSans-31"/>
       <use x="63.623047" xlink:href="#DejaVuSans-2e"/>
       <use x="95.410156" xlink:href="#DejaVuSans-30"/>
      </g>
     </g>
    </g>
    <g id="text_7">
     <!-- Time (ms) -->
     <defs>
      <path d="M -0.296875 72.90625 
L 61.375 72.90625 
L 61.375 64.59375 
L 35.5 64.59375 
L 35.5 0 
L 25.59375 0 
L 25.59375 64.59375 
L -0.296875 64.59375 
z
" id="DejaVuSans-54"/>
      <path d="M 9.421875 54.6875 
L 18.40625 54.6875 
L 18.40625 0 
L 9.421875 0 
z
M 9.421875 75.984375 
L 18.40625 75.984375 
L 18.40625 64.59375 
L 9.421875 64.59375 
z
" id="DejaVuSans-69"/>
      <path d="M 52 44.1875 
Q 55.375 50.25 60.0625 53.125 
Q 64.75 56 71.09375 56 
Q 79.640625 56 84.28125 50.015625 
Q 88.921875 44.046875 88.921875 33.015625 
L 88.921875 0 
L 79.890625 0 
L 79.890625 32.71875 
Q 79.890625 40.578125 77.09375 44.375 
Q 74.3125 48.1875 68.609375 48.1875 
Q 61.625 48.1875 57.5625 43.546875 
Q 53.515625 38.921875 53.515625 30.90625 
L 53.515625 0 
L 44.484375 0 
L 44.484375 32.71875 
Q 44.484375 40.625 41.703125 44.40625 
Q 38.921875 48.1875 33.109375 48.1875 
Q 26.21875 48.1875 22.15625 43.53125 
Q 18.109375 38.875 18.109375 30.90625 
L 18.109375 0 
L 9.078125 0 
L 9.078125 54.6875 
L 18.109375 54.6875 
L 18.109375 46.1875 
Q 21.1875 51.21875 25.484375 53.609375 
Q 29.78125 56 35.6875 56 
Q 41.65625 56 45.828125 52.96875 
Q 50 49.953125 52 44.1875 
z
" id="DejaVuSans-6d"/>
      <path d="M 56.203125 29.59375 
L 56.203125 25.203125 
L 14.890625 25.203125 
Q 15.484375 15.921875 20.484375 11.0625 
Q 25.484375 6.203125 34.421875 6.203125 
Q 39.59375 6.203125 44.453125 7.46875 
Q 49.3125 8.734375 54.109375 11.28125 
L 54.109375 2.78125 
Q 49.265625 0.734375 44.1875 -0.34375 
Q 39.109375 -1.421875 33.890625 -1.421875 
Q 20.796875 -1.421875 13.15625 6.1875 
Q 5.515625 13.8125 5.515625 26.8125 
Q 5.515625 40.234375 12.765625 48.109375 
Q 20.015625 56 32.328125 56 
Q 43.359375 56 49.78125 48.890625 
Q 56.203125 41.796875 56.203125 29.59375 
z
M 47.21875 32.234375 
Q 47.125 39.59375 43.09375 43.984375 
Q 39.0625 48.390625 32.421875 48.390625 
Q 24.90625 48.390625 20.390625 44.140625 
Q 15.875 39.890625 15.1875 32.171875 
z
" id="DejaVuSans-65"/>
      <path id="DejaVuSans-20"/>
      <path d="M 31 75.875 
Q 24.46875 64.65625 21.28125 53.65625 
Q 18.109375 42.671875 18.109375 31.390625 
Q 18.109375 20.125 21.3125 9.0625 
Q 24.515625 -2 31 -13.1875 
L 23.1875 -13.1875 
Q 15.875 -1.703125 12.234375 9.375 
Q 8.59375 20.453125 8.59375 31.390625 
Q 8.59375 42.28125 12.203125 53.3125 
Q 15.828125 64.359375 23.1875 75.875 
z
" id="DejaVuSans-28"/>
      <path d="M 44.28125 53.078125 
L 44.28125 44.578125 
Q 40.484375 46.53125 36.375 47.5 
Q 32.28125 48.484375 27.875 48.484375 
Q 21.1875 48.484375 17.84375 46.4375 
Q 14.5 44.390625 14.5 40.28125 
Q 14.5 37.15625 16.890625 35.375 
Q 19.28125 33.59375 26.515625 31.984375 
L 29.59375 31.296875 
Q 39.15625 29.25 43.1875 25.515625 
Q 47.21875 21.78125 47.21875 15.09375 
Q 47.21875 7.46875 41.1875 3.015625 
Q 35.15625 -1.421875 24.609375 -1.421875 
Q 20.21875 -1.421875 15.453125 -0.5625 
Q 10.6875 0.296875 5.421875 2 
L 5.421875 11.28125 
Q 10.40625 8.6875 15.234375 7.390625 
Q 20.0625 6.109375 24.8125 6.109375 
Q 31.15625 6.109375 34.5625 8.28125 
Q 37.984375 10.453125 37.984375 14.40625 
Q 37.984375 18.0625 35.515625 20.015625 
Q 33.0625 21.96875 24.703125 23.78125 
L 21.578125 24.515625 
Q 13.234375 26.265625 9.515625 29.90625 
Q 5.8125 33.546875 5.8125 39.890625 
Q 5.8125 47.609375 11.28125 51.796875 
Q 16.75 56 26.8125 56 
Q 31.78125 56 36.171875 55.265625 
Q 40.578125 54.546875 44.28125 53.078125 
z
" id="DejaVuSans-73"/>
      <path d="M 8.015625 75.875 
L 15.828125 75.875 
Q 23.140625 64.359375 26.78125 53.3125 
Q 30.421875 42.28125 30.421875 31.390625 
Q 30.421875 20.453125 26.78125 9.375 
Q 23.140625 -1.703125 15.828125 -13.1875 
L 8.015625 -13.1875 
Q 14.5 -2 17.703125 9.0625 
Q 20.90625 20.125 20.90625 31.390625 
Q 20.90625 42.671875 17.703125 53.65625 
Q 14.5 64.65625 8.015625 75.875 
z
" id="DejaVuSans-29"/>
     </defs>
     <g transform="translate(182.65 268.034687)scale(0.1 -0.1)">
      <use xlink:href="#DejaVuSans-54"/>
      <use x="61.037109" xlink:href="#DejaVuSans-69"/>
      <use x="88.820312" xlink:href="#DejaVuSans-6d"/>
      <use x="186.232422" xlink:href="#DejaVuSans-65"/>
      <use x="247.755859" xlink:href="#DejaVuSans-20"/>
      <use x="279.542969" xlink:href="#DejaVuSans-28"/>
      <use x="318.556641" xlink:href="#DejaVuSans-6d"/>
      <use x="415.96875" xlink:href="#DejaVuSans-73"/>
      <use x="468.068359" xlink:href="#DejaVuSans-29"/>
     </g>
    </g>
   </g>
   <g id="matplotlib.axis_2">
    <g id="ytick_1">
     <g id="line2d_7">
      <defs>
       <path d="M 0 0 
L -3.5 0 
" id="m05fa2c7743" style="stroke:#000000;stroke-width:0.8;"/>
      </defs>
      <g>
       <use style="stroke:#000000;stroke-width:0.8;" x="40.603125" xlink:href="#m05fa2c7743" y="229.874489"/>
      </g>
     </g>
     <g id="text_8">
      <!-- 0 -->
      <g transform="translate(27.240625 233.673707)scale(0.1 -0.1)">
       <use xlink:href="#DejaVuSans-30"/>
      </g>
     </g>
    </g>
    <g id="ytick_2">
     <g id="line2d_8">
      <g>
       <use style="stroke:#000000;stroke-width:0.8;" x="40.603125" xlink:href="#m05fa2c7743" y="187.361065"/>
      </g>
     </g>
     <g id="text_9">
      <!-- 20 -->
      <g transform="translate(20.878125 191.160284)scale(0.1 -0.1)">
       <use xlink:href="#DejaVuSans-32"/>
       <use x="63.623047" xlink:href="#DejaVuSans-30"/>
      </g>
     </g>
    </g>
    <g id="ytick_3">
     <g id="line2d_9">
      <g>
       <use style="stroke:#000000;stroke-width:0.8;" x="40.603125" xlink:href="#m05fa2c7743" y="144.847641"/>
      </g>
     </g>
     <g id="text_10">
      <!-- 40 -->
      <g transform="translate(20.878125 148.64686)scale(0.1 -0.1)">
       <use xlink:href="#DejaVuSans-34"/>
       <use x="63.623047" xlink:href="#DejaVuSans-30"/>
      </g>
     </g>
    </g>
    <g id="ytick_4">
     <g id="line2d_10">
      <g>
       <use style="stroke:#000000;stroke-width:0.8;" x="40.603125" xlink:href="#m05fa2c7743" y="102.334218"/>
      </g>
     </g>
     <g id="text_11">
      <!-- 60 -->
      <g transform="translate(20.878125 106.133437)scale(0.1 -0.1)">
       <use xlink:href="#DejaVuSans-36"/>
       <use x="63.623047" xlink:href="#DejaVuSans-30"/>
      </g>
     </g>
    </g>
    <g id="ytick_5">
     <g id="line2d_11">
      <g>
       <use style="stroke:#000000;stroke-width:0.8;" x="40.603125" xlink:href="#m05fa2c7743" y="59.820794"/>
      </g>
     </g>
     <g id="text_12">
      <!-- 80 -->
      <g transform="translate(20.878125 63.620013)scale(0.1 -0.1)">
       <use xlink:href="#DejaVuSans-38"/>
       <use x="63.623047" xlink:href="#DejaVuSans-30"/>
      </g>
     </g>
    </g>
    <g id="text_13">
     <!-- ppmOH -->
     <defs>
      <path d="M 18.109375 8.203125 
L 18.109375 -20.796875 
L 9.078125 -20.796875 
L 9.078125 54.6875 
L 18.109375 54.6875 
L 18.109375 46.390625 
Q 20.953125 51.265625 25.265625 53.625 
Q 29.59375 56 35.59375 56 
Q 45.5625 56 51.78125 48.09375 
Q 58.015625 40.1875 58.015625 27.296875 
Q 58.015625 14.40625 51.78125 6.484375 
Q 45.5625 -1.421875 35.59375 -1.421875 
Q 29.59375 -1.421875 25.265625 0.953125 
Q 20.953125 3.328125 18.109375 8.203125 
z
M 48.6875 27.296875 
Q 48.6875 37.203125 44.609375 42.84375 
Q 40.53125 48.484375 33.40625 48.484375 
Q 26.265625 48.484375 22.1875 42.84375 
Q 18.109375 37.203125 18.109375 27.296875 
Q 18.109375 17.390625 22.1875 11.75 
Q 26.265625 6.109375 33.40625 6.109375 
Q 40.53125 6.109375 44.609375 11.75 
Q 48.6875 17.390625 48.6875 27.296875 
z
" id="DejaVuSans-70"/>
      <path d="M 39.40625 66.21875 
Q 28.65625 66.21875 22.328125 58.203125 
Q 16.015625 50.203125 16.015625 36.375 
Q 16.015625 22.609375 22.328125 14.59375 
Q 28.65625 6.59375 39.40625 6.59375 
Q 50.140625 6.59375 56.421875 14.59375 
Q 62.703125 22.609375 62.703125 36.375 
Q 62.703125 50.203125 56.421875 58.203125 
Q 50.140625 66.21875 39.40625 66.21875 
z
M 39.40625 74.21875 
Q 54.734375 74.21875 63.90625 63.9375 
Q 73.09375 53.65625 73.09375 36.375 
Q 73.09375 19.140625 63.90625 8.859375 
Q 54.734375 -1.421875 39.40625 -1.421875 
Q 24.03125 -1.421875 14.8125 8.828125 
Q 5.609375 19.09375 5.609375 36.375 
Q 5.609375 53.65625 14.8125 63.9375 
Q 24.03125 74.21875 39.40625 74.21875 
z
" id="DejaVuSans-4f"/>
      <path d="M 9.8125 72.90625 
L 19.671875 72.90625 
L 19.671875 43.015625 
L 55.515625 43.015625 
L 55.515625 72.90625 
L 65.375 72.90625 
L 65.375 0 
L 55.515625 0 
L 55.515625 34.71875 
L 19.671875 34.71875 
L 19.671875 0 
L 9.8125 0 
z
" id="DejaVuSans-48"/>
     </defs>
     <g transform="translate(14.798438 149.952969)rotate(-90)scale(0.1 -0.1)">
      <use xlink:href="#DejaVuSans-70"/>
      <use x="63.476562" xlink:href="#DejaVuSans-70"/>
      <use x="126.953125" xlink:href="#DejaVuSans-6d"/>
      <use x="224.365234" xlink:href="#DejaVuSans-4f"/>
      <use x="303.076172" xlink:href="#DejaVuSans-48"/>
     </g>
    </g>
   </g>
   <g id="line2d_12">
    <path clip-path="url(#p8f8866a4c3)" d="M 55.821307 229.874489 
L 56.479188 192.727549 
L 57.096859 168.281741 
L 57.76729 150.057285 
L 58.363229 139.175856 
L 58.959167 131.938952 
L 59.482054 127.804143 
L 60.044347 125.04947 
L 60.494181 123.781488 
L 60.944016 123.1293 
L 61.281392 122.949297 
L 61.618767 122.974339 
L 62.068602 123.251639 
L 62.630895 123.87617 
L 63.530564 125.248016 
L 67.708173 132.097621 
L 69.14981 133.916252 
L 70.679793 135.52218 
L 72.464772 137.049995 
L 74.249752 138.287755 
L 76.166126 139.372988 
L 78.468892 140.431127 
L 81.350293 141.48835 
L 84.822102 142.49973 
L 89.45118 143.574499 
L 95.816162 144.77603 
L 105.762922 146.388773 
L 150.374986 153.414522 
L 201.285778 161.599791 
L 223.775999 164.983385 
L 248.452537 168.457037 
L 273.129074 171.676701 
L 297.805612 174.660619 
L 323.494807 177.547293 
L 352.322771 180.560092 
L 360.184943 181.34507 
L 360.184943 181.34507 
" style="fill:none;stroke:#0000ff;stroke-linecap:square;stroke-width:1.5;"/>
   </g>
   <g id="line2d_13">
    <path clip-path="url(#p8f8866a4c3)" d="M 55.821307 229.874489 
L 56.659076 168.526389 
L 57.457896 124.869006 
L 58.231083 93.576528 
L 59.00427 70.88396 
L 59.691548 56.462603 
L 60.378826 46.319371 
L 61.025045 39.857343 
L 61.671265 35.713575 
L 62.18824 33.702395 
L 62.705216 32.59826 
L 63.092948 32.24766 
L 63.480679 32.228143 
L 63.868411 32.479472 
L 64.385387 33.147323 
L 65.031606 34.376229 
L 66.065557 36.901528 
L 71.045704 49.939034 
L 72.597992 53.13459 
L 74.257402 56.029398 
L 76.01585 58.594869 
L 77.774297 60.741241 
L 79.684395 62.700375 
L 81.90802 64.610016 
L 84.131644 66.224017 
L 86.799993 67.881261 
L 89.913067 69.547761 
L 93.915591 71.417982 
L 99.082569 73.568076 
L 106.068859 76.24196 
L 122.318442 82.154829 
L 155.243406 93.905776 
L 172.298488 99.76633 
L 188.845649 105.213786 
L 204.534741 110.145701 
L 221.285125 115.17441 
L 238.920675 120.241151 
L 260.46027 126.182009 
L 284.393154 132.551817 
L 310.719326 139.340659 
L 334.652209 145.299253 
L 356.191804 150.429562 
L 358.585093 150.982966 
L 358.585093 150.982966 
" style="fill:none;stroke:#ff0000;stroke-linecap:square;stroke-width:1.5;"/>
   </g>
   <g id="line2d_14">
    <defs>
     <path d="M 0 3 
C 0.795609 3 1.55874 2.683901 2.12132 2.12132 
C 2.683901 1.55874 3 0.795609 3 0 
C 3 -0.795609 2.683901 -1.55874 2.12132 -2.12132 
C 1.55874 -2.683901 0.795609 -3 0 -3 
C -0.795609 -3 -1.55874 -2.683901 -2.12132 -2.12132 
C -2.683901 -1.55874 -3 -0.795609 -3 0 
C -3 0.795609 -2.683901 1.55874 -2.12132 2.12132 
C -1.55874 2.683901 -0.795609 3 0 3 
z
" id="m2006264786" style="stroke:#000000;"/>
    </defs>
    <g clip-path="url(#p8f8866a4c3)">
     <use style="stroke:#000000;" x="60.109332" xlink:href="#m2006264786" y="134.135534"/>
     <use style="stroke:#000000;" x="60.199924" xlink:href="#m2006264786" y="134.01926"/>
     <use style="stroke:#000000;" x="60.290516" xlink:href="#m2006264786" y="133.926581"/>
     <use style="stroke:#000000;" x="60.381108" xlink:href="#m2006264786" y="133.855796"/>
     <use style="stroke:#000000;" x="60.501898" xlink:href="#m2006264786" y="133.805205"/>
     <use style="stroke:#000000;" x="60.59249" xlink:href="#m2006264786" y="133.773532"/>
     <use style="stroke:#000000;" x="60.683082" xlink:href="#m2006264786" y="133.759078"/>
     <use style="stroke:#000000;" x="60.773674" xlink:href="#m2006264786" y="133.760778"/>
     <use style="stroke:#000000;" x="60.864266" xlink:href="#m2006264786" y="133.777358"/>
     <use style="stroke:#000000;" x="60.985055" xlink:href="#m2006264786" y="133.807756"/>
     <use style="stroke:#000000;" x="61.075647" xlink:href="#m2006264786" y="133.850694"/>
     <use style="stroke:#000000;" x="61.16624" xlink:href="#m2006264786" y="133.905324"/>
     <use style="stroke:#000000;" x="61.256832" xlink:href="#m2006264786" y="133.970795"/>
     <use style="stroke:#000000;" x="61.347424" xlink:href="#m2006264786" y="134.046043"/>
     <use style="stroke:#000000;" x="61.468213" xlink:href="#m2006264786" y="134.130432"/>
     <use style="stroke:#000000;" x="61.558805" xlink:href="#m2006264786" y="134.223112"/>
     <use style="stroke:#000000;" x="61.649397" xlink:href="#m2006264786" y="134.323443"/>
     <use style="stroke:#000000;" x="61.739989" xlink:href="#m2006264786" y="134.43079"/>
     <use style="stroke:#000000;" x="61.830581" xlink:href="#m2006264786" y="134.544513"/>
     <use style="stroke:#000000;" x="61.951371" xlink:href="#m2006264786" y="134.663976"/>
     <use style="stroke:#000000;" x="62.041963" xlink:href="#m2006264786" y="134.788753"/>
     <use style="stroke:#000000;" x="62.132555" xlink:href="#m2006264786" y="134.918419"/>
     <use style="stroke:#000000;" x="62.223147" xlink:href="#m2006264786" y="135.052123"/>
     <use style="stroke:#000000;" x="62.313739" xlink:href="#m2006264786" y="135.189867"/>
     <use style="stroke:#000000;" x="62.434529" xlink:href="#m2006264786" y="135.331224"/>
     <use style="stroke:#000000;" x="62.525121" xlink:href="#m2006264786" y="135.475557"/>
     <use style="stroke:#000000;" x="62.615713" xlink:href="#m2006264786" y="135.622654"/>
     <use style="stroke:#000000;" x="62.706305" xlink:href="#m2006264786" y="135.772301"/>
     <use style="stroke:#000000;" x="62.827094" xlink:href="#m2006264786" y="135.923861"/>
     <use style="stroke:#000000;" x="62.917686" xlink:href="#m2006264786" y="136.077547"/>
     <use style="stroke:#000000;" x="63.008278" xlink:href="#m2006264786" y="136.232721"/>
     <use style="stroke:#000000;" x="63.098871" xlink:href="#m2006264786" y="136.389383"/>
     <use style="stroke:#000000;" x="63.189463" xlink:href="#m2006264786" y="136.547108"/>
     <use style="stroke:#000000;" x="63.310252" xlink:href="#m2006264786" y="136.705896"/>
     <use style="stroke:#000000;" x="63.400844" xlink:href="#m2006264786" y="136.865321"/>
     <use style="stroke:#000000;" x="63.491436" xlink:href="#m2006264786" y="137.025597"/>
     <use style="stroke:#000000;" x="63.582028" xlink:href="#m2006264786" y="137.186085"/>
     <use style="stroke:#000000;" x="63.67262" xlink:href="#m2006264786" y="137.346998"/>
     <use style="stroke:#000000;" x="63.79341" xlink:href="#m2006264786" y="137.507911"/>
     <use style="stroke:#000000;" x="63.914199" xlink:href="#m2006264786" y="137.750238"/>
     <use style="stroke:#000000;" x="64.065186" xlink:href="#m2006264786" y="137.992139"/>
     <use style="stroke:#000000;" x="64.216173" xlink:href="#m2006264786" y="138.233403"/>
     <use style="stroke:#000000;" x="64.36716" xlink:href="#m2006264786" y="138.473816"/>
     <use style="stroke:#000000;" x="64.518146" xlink:href="#m2006264786" y="138.712742"/>
     <use style="stroke:#000000;" x="64.669133" xlink:href="#m2006264786" y="138.950392"/>
     <use style="stroke:#000000;" x="64.789923" xlink:href="#m2006264786" y="139.186129"/>
     <use style="stroke:#000000;" x="64.940909" xlink:href="#m2006264786" y="139.420165"/>
     <use style="stroke:#000000;" x="65.091896" xlink:href="#m2006264786" y="139.652076"/>
     <use style="stroke:#000000;" x="65.242883" xlink:href="#m2006264786" y="139.881861"/>
     <use style="stroke:#000000;" x="65.39387" xlink:href="#m2006264786" y="140.109308"/>
     <use style="stroke:#000000;" x="65.514659" xlink:href="#m2006264786" y="140.334416"/>
     <use style="stroke:#000000;" x="65.665646" xlink:href="#m2006264786" y="140.557187"/>
     <use style="stroke:#000000;" x="65.816633" xlink:href="#m2006264786" y="140.777194"/>
     <use style="stroke:#000000;" x="65.96762" xlink:href="#m2006264786" y="140.994862"/>
     <use style="stroke:#000000;" x="66.118607" xlink:href="#m2006264786" y="141.209768"/>
     <use style="stroke:#000000;" x="66.269593" xlink:href="#m2006264786" y="141.42191"/>
     <use style="stroke:#000000;" x="66.390383" xlink:href="#m2006264786" y="141.631501"/>
     <use style="stroke:#000000;" x="66.54137" xlink:href="#m2006264786" y="141.838329"/>
     <use style="stroke:#000000;" x="66.692356" xlink:href="#m2006264786" y="142.042393"/>
     <use style="stroke:#000000;" x="66.843343" xlink:href="#m2006264786" y="142.243907"/>
     <use style="stroke:#000000;" x="66.99433" xlink:href="#m2006264786" y="142.442444"/>
     <use style="stroke:#000000;" x="67.145317" xlink:href="#m2006264786" y="142.638431"/>
     <use style="stroke:#000000;" x="67.266106" xlink:href="#m2006264786" y="142.831655"/>
     <use style="stroke:#000000;" x="67.417093" xlink:href="#m2006264786" y="143.022328"/>
     <use style="stroke:#000000;" x="67.56808" xlink:href="#m2006264786" y="143.210024"/>
     <use style="stroke:#000000;" x="67.719067" xlink:href="#m2006264786" y="143.39517"/>
     <use style="stroke:#000000;" x="67.930448" xlink:href="#m2006264786" y="143.669169"/>
     <use style="stroke:#000000;" x="68.14183" xlink:href="#m2006264786" y="143.937004"/>
     <use style="stroke:#000000;" x="68.383409" xlink:href="#m2006264786" y="144.199099"/>
     <use style="stroke:#000000;" x="68.59479" xlink:href="#m2006264786" y="144.455455"/>
     <use style="stroke:#000000;" x="68.806172" xlink:href="#m2006264786" y="144.706284"/>
     <use style="stroke:#000000;" x="69.017553" xlink:href="#m2006264786" y="144.951374"/>
     <use style="stroke:#000000;" x="69.259132" xlink:href="#m2006264786" y="145.190937"/>
     <use style="stroke:#000000;" x="69.470513" xlink:href="#m2006264786" y="145.425399"/>
     <use style="stroke:#000000;" x="69.681895" xlink:href="#m2006264786" y="145.654334"/>
     <use style="stroke:#000000;" x="69.893277" xlink:href="#m2006264786" y="145.878379"/>
     <use style="stroke:#000000;" x="70.134855" xlink:href="#m2006264786" y="146.097324"/>
     <use style="stroke:#000000;" x="70.346237" xlink:href="#m2006264786" y="146.311379"/>
     <use style="stroke:#000000;" x="70.557618" xlink:href="#m2006264786" y="146.520757"/>
     <use style="stroke:#000000;" x="70.799197" xlink:href="#m2006264786" y="146.725459"/>
     <use style="stroke:#000000;" x="71.010579" xlink:href="#m2006264786" y="146.925485"/>
     <use style="stroke:#000000;" x="71.22196" xlink:href="#m2006264786" y="147.121047"/>
     <use style="stroke:#000000;" x="71.433342" xlink:href="#m2006264786" y="147.312357"/>
     <use style="stroke:#000000;" x="71.674921" xlink:href="#m2006264786" y="147.499416"/>
     <use style="stroke:#000000;" x="71.886302" xlink:href="#m2006264786" y="147.682224"/>
     <use style="stroke:#000000;" x="72.097684" xlink:href="#m2006264786" y="147.861205"/>
     <use style="stroke:#000000;" x="72.309065" xlink:href="#m2006264786" y="148.036148"/>
     <use style="stroke:#000000;" x="72.550644" xlink:href="#m2006264786" y="148.207265"/>
     <use style="stroke:#000000;" x="72.762026" xlink:href="#m2006264786" y="148.374768"/>
     <use style="stroke:#000000;" x="72.973407" xlink:href="#m2006264786" y="148.538444"/>
     <use style="stroke:#000000;" x="73.184789" xlink:href="#m2006264786" y="148.69872"/>
     <use style="stroke:#000000;" x="73.426368" xlink:href="#m2006264786" y="148.855382"/>
     <use style="stroke:#000000;" x="73.637749" xlink:href="#m2006264786" y="149.008855"/>
     <use style="stroke:#000000;" x="73.849131" xlink:href="#m2006264786" y="149.158928"/>
     <use style="stroke:#000000;" x="74.060512" xlink:href="#m2006264786" y="149.305812"/>
     <use style="stroke:#000000;" x="74.302091" xlink:href="#m2006264786" y="149.44972"/>
     <use style="stroke:#000000;" x="74.513473" xlink:href="#m2006264786" y="149.590439"/>
     <use style="stroke:#000000;" x="74.724854" xlink:href="#m2006264786" y="149.728395"/>
     <use style="stroke:#000000;" x="74.966433" xlink:href="#m2006264786" y="149.863375"/>
     <use style="stroke:#000000;" x="75.177814" xlink:href="#m2006264786" y="149.995592"/>
     <use style="stroke:#000000;" x="75.389196" xlink:href="#m2006264786" y="150.125045"/>
     <use style="stroke:#000000;" x="75.600578" xlink:href="#m2006264786" y="150.251948"/>
     <use style="stroke:#000000;" x="75.842156" xlink:href="#m2006264786" y="150.3763"/>
     <use style="stroke:#000000;" x="76.053538" xlink:href="#m2006264786" y="150.498101"/>
     <use style="stroke:#000000;" x="76.264919" xlink:href="#m2006264786" y="150.617563"/>
     <use style="stroke:#000000;" x="76.59709" xlink:href="#m2006264786" y="150.793569"/>
     <use style="stroke:#000000;" x="76.929261" xlink:href="#m2006264786" y="150.964473"/>
     <use style="stroke:#000000;" x="77.261432" xlink:href="#m2006264786" y="151.130275"/>
     <use style="stroke:#000000;" x="77.593603" xlink:href="#m2006264786" y="151.291401"/>
     <use style="stroke:#000000;" x="77.925774" xlink:href="#m2006264786" y="151.448063"/>
     <use style="stroke:#000000;" x="78.257945" xlink:href="#m2006264786" y="151.600049"/>
     <use style="stroke:#000000;" x="78.590116" xlink:href="#m2006264786" y="151.748208"/>
     <use style="stroke:#000000;" x="78.922287" xlink:href="#m2006264786" y="151.892116"/>
     <use style="stroke:#000000;" x="79.254458" xlink:href="#m2006264786" y="152.032197"/>
     <use style="stroke:#000000;" x="79.586629" xlink:href="#m2006264786" y="152.168666"/>
     <use style="stroke:#000000;" x="79.9188" xlink:href="#m2006264786" y="152.30152"/>
     <use style="stroke:#000000;" x="80.250971" xlink:href="#m2006264786" y="152.430973"/>
     <use style="stroke:#000000;" x="80.583142" xlink:href="#m2006264786" y="152.557026"/>
     <use style="stroke:#000000;" x="80.915313" xlink:href="#m2006264786" y="152.680315"/>
     <use style="stroke:#000000;" x="81.247484" xlink:href="#m2006264786" y="152.800415"/>
     <use style="stroke:#000000;" x="81.579655" xlink:href="#m2006264786" y="152.917539"/>
     <use style="stroke:#000000;" x="81.911826" xlink:href="#m2006264786" y="153.032113"/>
     <use style="stroke:#000000;" x="82.243997" xlink:href="#m2006264786" y="153.143923"/>
     <use style="stroke:#000000;" x="82.576168" xlink:href="#m2006264786" y="153.253396"/>
     <use style="stroke:#000000;" x="83.059325" xlink:href="#m2006264786" y="153.413671"/>
     <use style="stroke:#000000;" x="83.572681" xlink:href="#m2006264786" y="153.568845"/>
     <use style="stroke:#000000;" x="84.055838" xlink:href="#m2006264786" y="153.71913"/>
     <use style="stroke:#000000;" x="84.569193" xlink:href="#m2006264786" y="153.864951"/>
     <use style="stroke:#000000;" x="85.082549" xlink:href="#m2006264786" y="154.006521"/>
     <use style="stroke:#000000;" x="85.565706" xlink:href="#m2006264786" y="154.144052"/>
     <use style="stroke:#000000;" x="86.018667" xlink:href="#m2006264786" y="154.277756"/>
     <use style="stroke:#000000;" x="86.622614" xlink:href="#m2006264786" y="154.40806"/>
     <use style="stroke:#000000;" x="86.924587" xlink:href="#m2006264786" y="154.534963"/>
     <use style="stroke:#000000;" x="87.528535" xlink:href="#m2006264786" y="154.658889"/>
     <use style="stroke:#000000;" x="88.132482" xlink:href="#m2006264786" y="154.779627"/>
     <use style="stroke:#000000;" x="88.434455" xlink:href="#m2006264786" y="154.897815"/>
     <use style="stroke:#000000;" x="89.038403" xlink:href="#m2006264786" y="155.013451"/>
     <use style="stroke:#000000;" x="89.64235" xlink:href="#m2006264786" y="155.126537"/>
     <use style="stroke:#000000;" x="89.944323" xlink:href="#m2006264786" y="155.237497"/>
     <use style="stroke:#000000;" x="90.548271" xlink:href="#m2006264786" y="155.346119"/>
     <use style="stroke:#000000;" x="91.152218" xlink:href="#m2006264786" y="155.452828"/>
     <use style="stroke:#000000;" x="91.454191" xlink:href="#m2006264786" y="155.557623"/>
     <use style="stroke:#000000;" x="92.058139" xlink:href="#m2006264786" y="155.660718"/>
     <use style="stroke:#000000;" x="92.662086" xlink:href="#m2006264786" y="155.7619"/>
     <use style="stroke:#000000;" x="92.964059" xlink:href="#m2006264786" y="155.861807"/>
     <use style="stroke:#000000;" x="93.568007" xlink:href="#m2006264786" y="155.960013"/>
     <use style="stroke:#000000;" x="94.171954" xlink:href="#m2006264786" y="156.056943"/>
     <use style="stroke:#000000;" x="94.473927" xlink:href="#m2006264786" y="156.152386"/>
     <use style="stroke:#000000;" x="95.077875" xlink:href="#m2006264786" y="156.246553"/>
     <use style="stroke:#000000;" x="95.681822" xlink:href="#m2006264786" y="156.339658"/>
     <use style="stroke:#000000;" x="95.983795" xlink:href="#m2006264786" y="156.431699"/>
     <use style="stroke:#000000;" x="96.587743" xlink:href="#m2006264786" y="156.522678"/>
     <use style="stroke:#000000;" x="97.19169" xlink:href="#m2006264786" y="156.612594"/>
     <use style="stroke:#000000;" x="97.493663" xlink:href="#m2006264786" y="156.701659"/>
     <use style="stroke:#000000;" x="98.097611" xlink:href="#m2006264786" y="156.789875"/>
     <use style="stroke:#000000;" x="98.701558" xlink:href="#m2006264786" y="156.87724"/>
     <use style="stroke:#000000;" x="99.003531" xlink:href="#m2006264786" y="156.963755"/>
     <use style="stroke:#000000;" x="99.607479" xlink:href="#m2006264786" y="157.049632"/>
     <use style="stroke:#000000;" x="100.211426" xlink:href="#m2006264786" y="157.134659"/>
     <use style="stroke:#000000;" x="100.815373" xlink:href="#m2006264786" y="157.261561"/>
     <use style="stroke:#000000;" x="101.721294" xlink:href="#m2006264786" y="157.386976"/>
     <use style="stroke:#000000;" x="102.325241" xlink:href="#m2006264786" y="157.511327"/>
     <use style="stroke:#000000;" x="103.231162" xlink:href="#m2006264786" y="157.634404"/>
     <use style="stroke:#000000;" x="103.835109" xlink:href="#m2006264786" y="157.756417"/>
     <use style="stroke:#000000;" x="104.439056" xlink:href="#m2006264786" y="157.877368"/>
     <use style="stroke:#000000;" x="105.344977" xlink:href="#m2006264786" y="157.997468"/>
     <use style="stroke:#000000;" x="105.948924" xlink:href="#m2006264786" y="158.116931"/>
     <use style="stroke:#000000;" x="106.854845" xlink:href="#m2006264786" y="158.235331"/>
     <use style="stroke:#000000;" x="107.458792" xlink:href="#m2006264786" y="158.353306"/>
     <use style="stroke:#000000;" x="108.364713" xlink:href="#m2006264786" y="158.47043"/>
     <use style="stroke:#000000;" x="108.96866" xlink:href="#m2006264786" y="158.58713"/>
     <use style="stroke:#000000;" x="109.874581" xlink:href="#m2006264786" y="158.703191"/>
     <use style="stroke:#000000;" x="110.478528" xlink:href="#m2006264786" y="158.818615"/>
     <use style="stroke:#000000;" x="111.384449" xlink:href="#m2006264786" y="158.933614"/>
     <use style="stroke:#000000;" x="111.988396" xlink:href="#m2006264786" y="159.0484"/>
     <use style="stroke:#000000;" x="112.894317" xlink:href="#m2006264786" y="159.162549"/>
     <use style="stroke:#000000;" x="113.498264" xlink:href="#m2006264786" y="159.276485"/>
     <use style="stroke:#000000;" x="114.404185" xlink:href="#m2006264786" y="159.389996"/>
     <use style="stroke:#000000;" x="115.008132" xlink:href="#m2006264786" y="159.503081"/>
     <use style="stroke:#000000;" x="115.914053" xlink:href="#m2006264786" y="159.615955"/>
     <use style="stroke:#000000;" x="116.518" xlink:href="#m2006264786" y="159.728615"/>
     <use style="stroke:#000000;" x="117.423921" xlink:href="#m2006264786" y="159.841063"/>
     <use style="stroke:#000000;" x="118.027868" xlink:href="#m2006264786" y="159.953086"/>
     <use style="stroke:#000000;" x="118.933789" xlink:href="#m2006264786" y="160.064896"/>
     <use style="stroke:#000000;" x="119.537736" xlink:href="#m2006264786" y="160.176707"/>
     <use style="stroke:#000000;" x="120.745631" xlink:href="#m2006264786" y="160.346123"/>
     <use style="stroke:#000000;" x="121.953525" xlink:href="#m2006264786" y="160.515326"/>
     <use style="stroke:#000000;" x="123.161419" xlink:href="#m2006264786" y="160.684104"/>
     <use style="stroke:#000000;" x="124.06734" xlink:href="#m2006264786" y="160.852457"/>
     <use style="stroke:#000000;" x="125.360693" xlink:href="#m2006264786" y="161.020598"/>
     <use style="stroke:#000000;" x="126.505475" xlink:href="#m2006264786" y="161.188313"/>
     <use style="stroke:#000000;" x="127.650257" xlink:href="#m2006264786" y="161.355816"/>
     <use style="stroke:#000000;" x="128.795039" xlink:href="#m2006264786" y="161.523107"/>
     <use style="stroke:#000000;" x="129.939821" xlink:href="#m2006264786" y="161.690184"/>
     <use style="stroke:#000000;" x="131.084603" xlink:href="#m2006264786" y="161.85705"/>
     <use style="stroke:#000000;" x="132.229384" xlink:href="#m2006264786" y="162.023702"/>
     <use style="stroke:#000000;" x="133.374166" xlink:href="#m2006264786" y="162.190142"/>
     <use style="stroke:#000000;" x="134.518948" xlink:href="#m2006264786" y="162.35637"/>
     <use style="stroke:#000000;" x="135.66373" xlink:href="#m2006264786" y="162.522597"/>
     <use style="stroke:#000000;" x="136.808512" xlink:href="#m2006264786" y="162.6884"/>
     <use style="stroke:#000000;" x="137.953294" xlink:href="#m2006264786" y="162.854202"/>
     <use style="stroke:#000000;" x="139.098076" xlink:href="#m2006264786" y="163.019792"/>
     <use style="stroke:#000000;" x="140.242858" xlink:href="#m2006264786" y="163.185382"/>
     <use style="stroke:#000000;" x="141.38764" xlink:href="#m2006264786" y="163.350546"/>
     <use style="stroke:#000000;" x="143.113419" xlink:href="#m2006264786" y="163.599462"/>
     <use style="stroke:#000000;" x="144.8395" xlink:href="#m2006264786" y="163.848166"/>
     <use style="stroke:#000000;" x="146.565279" xlink:href="#m2006264786" y="164.096444"/>
     <use style="stroke:#000000;" x="148.291058" xlink:href="#m2006264786" y="164.344298"/>
     <use style="stroke:#000000;" x="150.016837" xlink:href="#m2006264786" y="164.591938"/>
     <use style="stroke:#000000;" x="151.742918" xlink:href="#m2006264786" y="164.839154"/>
     <use style="stroke:#000000;" x="153.468698" xlink:href="#m2006264786" y="165.086157"/>
     <use style="stroke:#000000;" x="155.194477" xlink:href="#m2006264786" y="165.332735"/>
     <use style="stroke:#000000;" x="156.920558" xlink:href="#m2006264786" y="165.5791"/>
     <use style="stroke:#000000;" x="158.646337" xlink:href="#m2006264786" y="165.824827"/>
     <use style="stroke:#000000;" x="160.372116" xlink:href="#m2006264786" y="166.070343"/>
     <use style="stroke:#000000;" x="162.097895" xlink:href="#m2006264786" y="166.315432"/>
     <use style="stroke:#000000;" x="163.823976" xlink:href="#m2006264786" y="166.56031"/>
     <use style="stroke:#000000;" x="165.549755" xlink:href="#m2006264786" y="166.804549"/>
     <use style="stroke:#000000;" x="167.275534" xlink:href="#m2006264786" y="167.048576"/>
     <use style="stroke:#000000;" x="169.001616" xlink:href="#m2006264786" y="167.291966"/>
     <use style="stroke:#000000;" x="170.727395" xlink:href="#m2006264786" y="167.535143"/>
     <use style="stroke:#000000;" x="172.453174" xlink:href="#m2006264786" y="167.777894"/>
     <use style="stroke:#000000;" x="174.179255" xlink:href="#m2006264786" y="168.020008"/>
     <use style="stroke:#000000;" x="175.905034" xlink:href="#m2006264786" y="168.261697"/>
     <use style="stroke:#000000;" x="178.493854" xlink:href="#m2006264786" y="168.623486"/>
     <use style="stroke:#000000;" x="181.082673" xlink:href="#m2006264786" y="168.984213"/>
     <use style="stroke:#000000;" x="183.671795" xlink:href="#m2006264786" y="169.343664"/>
     <use style="stroke:#000000;" x="186.260615" xlink:href="#m2006264786" y="169.702052"/>
     <use style="stroke:#000000;" x="188.849434" xlink:href="#m2006264786" y="170.059377"/>
     <use style="stroke:#000000;" x="191.438254" xlink:href="#m2006264786" y="170.415214"/>
     <use style="stroke:#000000;" x="194.027074" xlink:href="#m2006264786" y="170.769989"/>
     <use style="stroke:#000000;" x="196.616195" xlink:href="#m2006264786" y="171.123488"/>
     <use style="stroke:#000000;" x="199.205015" xlink:href="#m2006264786" y="171.475499"/>
     <use style="stroke:#000000;" x="201.793834" xlink:href="#m2006264786" y="171.826235"/>
     <use style="stroke:#000000;" x="204.382654" xlink:href="#m2006264786" y="172.175483"/>
     <use style="stroke:#000000;" x="206.971776" xlink:href="#m2006264786" y="172.523455"/>
     <use style="stroke:#000000;" x="209.560595" xlink:href="#m2006264786" y="172.869939"/>
     <use style="stroke:#000000;" x="212.149415" xlink:href="#m2006264786" y="173.214936"/>
     <use style="stroke:#000000;" x="214.738235" xlink:href="#m2006264786" y="173.558444"/>
     <use style="stroke:#000000;" x="217.327356" xlink:href="#m2006264786" y="173.900252"/>
     <use style="stroke:#000000;" x="219.916176" xlink:href="#m2006264786" y="174.240785"/>
     <use style="stroke:#000000;" x="222.504996" xlink:href="#m2006264786" y="174.579404"/>
     <use style="stroke:#000000;" x="225.093815" xlink:href="#m2006264786" y="174.916748"/>
     <use style="stroke:#000000;" x="227.682937" xlink:href="#m2006264786" y="175.252179"/>
     <use style="stroke:#000000;" x="230.271757" xlink:href="#m2006264786" y="175.586122"/>
     <use style="stroke:#000000;" x="232.860576" xlink:href="#m2006264786" y="175.918365"/>
     <use style="stroke:#000000;" x="235.449396" xlink:href="#m2006264786" y="176.248694"/>
     <use style="stroke:#000000;" x="238.038216" xlink:href="#m2006264786" y="176.577535"/>
     <use style="stroke:#000000;" x="240.627337" xlink:href="#m2006264786" y="176.904463"/>
     <use style="stroke:#000000;" x="243.216157" xlink:href="#m2006264786" y="177.229691"/>
     <use style="stroke:#000000;" x="245.804977" xlink:href="#m2006264786" y="177.553218"/>
     <use style="stroke:#000000;" x="248.393796" xlink:href="#m2006264786" y="177.874832"/>
     <use style="stroke:#000000;" x="250.274488" xlink:href="#m2006264786" y="178.107381"/>
     <use style="stroke:#000000;" x="252.155179" xlink:href="#m2006264786" y="178.338866"/>
     <use style="stroke:#000000;" x="254.035569" xlink:href="#m2006264786" y="178.569502"/>
     <use style="stroke:#000000;" x="255.916261" xlink:href="#m2006264786" y="178.799074"/>
     <use style="stroke:#000000;" x="257.290542" xlink:href="#m2006264786" y="178.966152"/>
     <use style="stroke:#000000;" x="258.665126" xlink:href="#m2006264786" y="179.132804"/>
     <use style="stroke:#000000;" x="260.039408" xlink:href="#m2006264786" y="179.299032"/>
     <use style="stroke:#000000;" x="261.413992" xlink:href="#m2006264786" y="179.464409"/>
     <use style="stroke:#000000;" x="262.788274" xlink:href="#m2006264786" y="179.629574"/>
     <use style="stroke:#000000;" x="264.162858" xlink:href="#m2006264786" y="179.794101"/>
     <use style="stroke:#000000;" x="265.537139" xlink:href="#m2006264786" y="179.95799"/>
     <use style="stroke:#000000;" x="266.911723" xlink:href="#m2006264786" y="180.121454"/>
     <use style="stroke:#000000;" x="268.286005" xlink:href="#m2006264786" y="180.284281"/>
     <use style="stroke:#000000;" x="269.660589" xlink:href="#m2006264786" y="180.446682"/>
     <use style="stroke:#000000;" x="271.034871" xlink:href="#m2006264786" y="180.608445"/>
     <use style="stroke:#000000;" x="272.409455" xlink:href="#m2006264786" y="180.769571"/>
     <use style="stroke:#000000;" x="273.783736" xlink:href="#m2006264786" y="180.930272"/>
     <use style="stroke:#000000;" x="276.024079" xlink:href="#m2006264786" y="181.191092"/>
     <use style="stroke:#000000;" x="278.264119" xlink:href="#m2006264786" y="181.450211"/>
     <use style="stroke:#000000;" x="280.504461" xlink:href="#m2006264786" y="181.708055"/>
     <use style="stroke:#000000;" x="282.744501" xlink:href="#m2006264786" y="181.964198"/>
     <use style="stroke:#000000;" x="284.984843" xlink:href="#m2006264786" y="182.219066"/>
     <use style="stroke:#000000;" x="287.225185" xlink:href="#m2006264786" y="182.472446"/>
     <use style="stroke:#000000;" x="289.465225" xlink:href="#m2006264786" y="182.724126"/>
     <use style="stroke:#000000;" x="291.705568" xlink:href="#m2006264786" y="182.97453"/>
     <use style="stroke:#000000;" x="293.945608" xlink:href="#m2006264786" y="183.223234"/>
     <use style="stroke:#000000;" x="296.18595" xlink:href="#m2006264786" y="183.470449"/>
     <use style="stroke:#000000;" x="298.426292" xlink:href="#m2006264786" y="183.716177"/>
     <use style="stroke:#000000;" x="300.666332" xlink:href="#m2006264786" y="183.960416"/>
     <use style="stroke:#000000;" x="302.906674" xlink:href="#m2006264786" y="184.203168"/>
     <use style="stroke:#000000;" x="305.147016" xlink:href="#m2006264786" y="184.444432"/>
     <use style="stroke:#000000;" x="307.387057" xlink:href="#m2006264786" y="184.683995"/>
     <use style="stroke:#000000;" x="309.627399" xlink:href="#m2006264786" y="184.922283"/>
     <use style="stroke:#000000;" x="311.867439" xlink:href="#m2006264786" y="185.15887"/>
     <use style="stroke:#000000;" x="314.107781" xlink:href="#m2006264786" y="185.393969"/>
     <use style="stroke:#000000;" x="316.348123" xlink:href="#m2006264786" y="185.627368"/>
     <use style="stroke:#000000;" x="318.588163" xlink:href="#m2006264786" y="185.859491"/>
     <use style="stroke:#000000;" x="320.828505" xlink:href="#m2006264786" y="186.089914"/>
     <use style="stroke:#000000;" x="323.068545" xlink:href="#m2006264786" y="186.318848"/>
     <use style="stroke:#000000;" x="325.308888" xlink:href="#m2006264786" y="186.546295"/>
     <use style="stroke:#000000;" x="327.54923" xlink:href="#m2006264786" y="186.772254"/>
     <use style="stroke:#000000;" x="329.78927" xlink:href="#m2006264786" y="186.996512"/>
     <use style="stroke:#000000;" x="332.029612" xlink:href="#m2006264786" y="187.219283"/>
     <use style="stroke:#000000;" x="334.269652" xlink:href="#m2006264786" y="187.440565"/>
     <use style="stroke:#000000;" x="336.509994" xlink:href="#m2006264786" y="187.66036"/>
     <use style="stroke:#000000;" x="338.750336" xlink:href="#m2006264786" y="187.878666"/>
     <use style="stroke:#000000;" x="340.990377" xlink:href="#m2006264786" y="188.095484"/>
     <use style="stroke:#000000;" x="343.230719" xlink:href="#m2006264786" y="188.310602"/>
     <use style="stroke:#000000;" x="345.471061" xlink:href="#m2006264786" y="188.524232"/>
     <use style="stroke:#000000;" x="347.711101" xlink:href="#m2006264786" y="188.736374"/>
     <use style="stroke:#000000;" x="349.951443" xlink:href="#m2006264786" y="188.947028"/>
     <use style="stroke:#000000;" x="352.191483" xlink:href="#m2006264786" y="189.156194"/>
     <use style="stroke:#000000;" x="354.431825" xlink:href="#m2006264786" y="189.363872"/>
     <use style="stroke:#000000;" x="356.672168" xlink:href="#m2006264786" y="189.570063"/>
     <use style="stroke:#000000;" x="358.912208" xlink:href="#m2006264786" y="189.774552"/>
    </g>
   </g>
   <g id="line2d_15">
    <path clip-path="url(#p8f8866a4c3)" d="M 60.109332 103.564983 
L 60.501898 102.601095 
L 60.864266 102.195715 
L 61.16624 102.13401 
L 61.558805 102.348853 
L 62.041963 102.939574 
L 62.706305 104.146287 
L 64.065186 107.218815 
L 66.269593 112.122302 
L 67.719067 114.813085 
L 69.259132 117.175203 
L 70.799197 119.10618 
L 72.309065 120.66396 
L 74.060512 122.152307 
L 76.053538 123.531488 
L 78.257945 124.777136 
L 80.915313 126.00646 
L 84.055838 127.201942 
L 88.132482 128.496206 
L 93.568007 129.969558 
L 102.325241 132.083103 
L 174.179255 148.700351 
L 191.438254 152.425281 
L 209.560595 156.099342 
L 227.682937 159.521422 
L 245.804977 162.698263 
L 264.162858 165.685994 
L 282.744501 168.498098 
L 302.906674 171.336839 
L 325.308888 174.260131 
L 347.711101 176.963085 
L 356.672168 177.986304 
L 358.912208 176.963329 
L 358.912208 176.963329 
" style="fill:none;stroke:#0000ff;stroke-dasharray:5.55,2.4;stroke-dashoffset:0;stroke-width:1.5;"/>
   </g>
   <g id="line2d_16">
    <path clip-path="url(#p8f8866a4c3)" d="M 60.109332 142.51021 
L 60.59249 141.221975 
L 61.075647 140.516045 
L 61.468213 140.263371 
L 61.830581 140.226895 
L 62.313739 140.401195 
L 63.008278 140.959307 
L 63.914199 141.99791 
L 68.383409 147.522178 
L 70.134855 149.15874 
L 71.886302 150.489242 
L 73.849131 151.6878 
L 76.053538 152.754552 
L 78.590116 153.715386 
L 81.579655 154.590164 
L 85.082549 155.379235 
L 89.64235 156.164273 
L 95.681822 156.962198 
L 104.439056 157.887728 
L 158.646337 163.257563 
L 191.438254 166.942018 
L 245.804977 173.060802 
L 278.264119 176.470435 
L 309.627399 179.543933 
L 347.711101 183.036816 
L 356.672168 183.831113 
L 358.912208 185.132011 
L 358.912208 185.132011 
" style="fill:none;stroke:#0000ff;stroke-dasharray:5.55,2.4;stroke-dashoffset:0;stroke-width:1.5;"/>
   </g>
   <g id="line2d_17"/>
   <g id="line2d_18"/>
   <g id="line2d_19"/>
   <g id="line2d_20"/>
   <g id="line2d_21"/>
   <g id="line2d_22"/>
   <g id="patch_3">
    <path d="M 40.603125 239.758125 
L 40.603125 22.318125 
" style="fill:none;stroke:#000000;stroke-linecap:square;stroke-linejoin:miter;stroke-width:0.8;"/>
   </g>
   <g id="patch_4">
    <path d="M 375.403125 239.758125 
L 375.403125 22.318125 
" style="fill:none;stroke:#000000;stroke-linecap:square;stroke-linejoin:miter;stroke-width:0.8;"/>
   </g>
   <g id="patch_5">
    <path d="M 40.603125 239.758125 
L 375.403125 239.758125 
" style="fill:none;stroke:#000000;stroke-linecap:square;stroke-linejoin:miter;stroke-width:0.8;"/>
   </g>
   <g id="patch_6">
    <path d="M 40.603125 22.318125 
L 375.403125 22.318125 
" style="fill:none;stroke:#000000;stroke-linecap:square;stroke-linejoin:miter;stroke-width:0.8;"/>
   </g>
   <g id="text_14">
    <!-- Experiment_14 -->
    <defs>
     <path d="M 9.8125 72.90625 
L 55.90625 72.90625 
L 55.90625 64.59375 
L 19.671875 64.59375 
L 19.671875 43.015625 
L 54.390625 43.015625 
L 54.390625 34.71875 
L 19.671875 34.71875 
L 19.671875 8.296875 
L 56.78125 8.296875 
L 56.78125 0 
L 9.8125 0 
z
" id="DejaVuSans-45"/>
     <path d="M 54.890625 54.6875 
L 35.109375 28.078125 
L 55.90625 0 
L 45.3125 0 
L 29.390625 21.484375 
L 13.484375 0 
L 2.875 0 
L 24.125 28.609375 
L 4.6875 54.6875 
L 15.28125 54.6875 
L 29.78125 35.203125 
L 44.28125 54.6875 
z
" id="DejaVuSans-78"/>
     <path d="M 41.109375 46.296875 
Q 39.59375 47.171875 37.8125 47.578125 
Q 36.03125 48 33.890625 48 
Q 26.265625 48 22.1875 43.046875 
Q 18.109375 38.09375 18.109375 28.8125 
L 18.109375 0 
L 9.078125 0 
L 9.078125 54.6875 
L 18.109375 54.6875 
L 18.109375 46.1875 
Q 20.953125 51.171875 25.484375 53.578125 
Q 30.03125 56 36.53125 56 
Q 37.453125 56 38.578125 55.875 
Q 39.703125 55.765625 41.0625 55.515625 
z
" id="DejaVuSans-72"/>
     <path d="M 54.890625 33.015625 
L 54.890625 0 
L 45.90625 0 
L 45.90625 32.71875 
Q 45.90625 40.484375 42.875 44.328125 
Q 39.84375 48.1875 33.796875 48.1875 
Q 26.515625 48.1875 22.3125 43.546875 
Q 18.109375 38.921875 18.109375 30.90625 
L 18.109375 0 
L 9.078125 0 
L 9.078125 54.6875 
L 18.109375 54.6875 
L 18.109375 46.1875 
Q 21.34375 51.125 25.703125 53.5625 
Q 30.078125 56 35.796875 56 
Q 45.21875 56 50.046875 50.171875 
Q 54.890625 44.34375 54.890625 33.015625 
z
" id="DejaVuSans-6e"/>
     <path d="M 18.3125 70.21875 
L 18.3125 54.6875 
L 36.8125 54.6875 
L 36.8125 47.703125 
L 18.3125 47.703125 
L 18.3125 18.015625 
Q 18.3125 11.328125 20.140625 9.421875 
Q 21.96875 7.515625 27.59375 7.515625 
L 36.8125 7.515625 
L 36.8125 0 
L 27.59375 0 
Q 17.1875 0 13.234375 3.875 
Q 9.28125 7.765625 9.28125 18.015625 
L 9.28125 47.703125 
L 2.6875 47.703125 
L 2.6875 54.6875 
L 9.28125 54.6875 
L 9.28125 70.21875 
z
" id="DejaVuSans-74"/>
     <path d="M 50.984375 -16.609375 
L 50.984375 -23.578125 
L -0.984375 -23.578125 
L -0.984375 -16.609375 
z
" id="DejaVuSans-5f"/>
    </defs>
    <g transform="translate(162.700312 16.318125)scale(0.12 -0.12)">
     <use xlink:href="#DejaVuSans-45"/>
     <use x="63.183594" xlink:href="#DejaVuSans-78"/>
     <use x="122.363281" xlink:href="#DejaVuSans-70"/>
     <use x="185.839844" xlink:href="#DejaVuSans-65"/>
     <use x="247.363281" xlink:href="#DejaVuSans-72"/>
     <use x="288.476562" xlink:href="#DejaVuSans-69"/>
     <use x="316.259766" xlink:href="#DejaVuSans-6d"/>
     <use x="413.671875" xlink:href="#DejaVuSans-65"/>
     <use x="475.195312" xlink:href="#DejaVuSans-6e"/>
     <use x="538.574219" xlink:href="#DejaVuSans-74"/>
     <use x="577.783203" xlink:href="#DejaVuSans-5f"/>
     <use x="627.783203" xlink:href="#DejaVuSans-31"/>
     <use x="691.40625" xlink:href="#DejaVuSans-34"/>
    </g>
   </g>
   <g id="legend_1">
    <g id="patch_7">
     <path d="M 112.282812 103.730625 
L 368.403125 103.730625 
Q 370.403125 103.730625 370.403125 101.730625 
L 370.403125 29.318125 
Q 370.403125 27.318125 368.403125 27.318125 
L 112.282812 27.318125 
Q 110.282812 27.318125 110.282812 29.318125 
L 110.282812 101.730625 
Q 110.282812 103.730625 112.282812 103.730625 
z
" style="fill:#ffffff;opacity:0.8;stroke:#cccccc;stroke-linejoin:miter;"/>
    </g>
    <g id="line2d_23">
     <path d="M 114.282812 35.416562 
L 134.282812 35.416562 
" style="fill:none;stroke:#0000ff;stroke-linecap:square;stroke-width:1.5;"/>
    </g>
    <g id="line2d_24"/>
    <g id="text_15">
     <!-- MSI -->
     <defs>
      <path d="M 9.8125 72.90625 
L 24.515625 72.90625 
L 43.109375 23.296875 
L 61.8125 72.90625 
L 76.515625 72.90625 
L 76.515625 0 
L 66.890625 0 
L 66.890625 64.015625 
L 48.09375 14.015625 
L 38.1875 14.015625 
L 19.390625 64.015625 
L 19.390625 0 
L 9.8125 0 
z
" id="DejaVuSans-4d"/>
      <path d="M 53.515625 70.515625 
L 53.515625 60.890625 
Q 47.90625 63.578125 42.921875 64.890625 
Q 37.9375 66.21875 33.296875 66.21875 
Q 25.25 66.21875 20.875 63.09375 
Q 16.5 59.96875 16.5 54.203125 
Q 16.5 49.359375 19.40625 46.890625 
Q 22.3125 44.4375 30.421875 42.921875 
L 36.375 41.703125 
Q 47.40625 39.59375 52.65625 34.296875 
Q 57.90625 29 57.90625 20.125 
Q 57.90625 9.515625 50.796875 4.046875 
Q 43.703125 -1.421875 29.984375 -1.421875 
Q 24.8125 -1.421875 18.96875 -0.25 
Q 13.140625 0.921875 6.890625 3.21875 
L 6.890625 13.375 
Q 12.890625 10.015625 18.65625 8.296875 
Q 24.421875 6.59375 29.984375 6.59375 
Q 38.421875 6.59375 43.015625 9.90625 
Q 47.609375 13.234375 47.609375 19.390625 
Q 47.609375 24.75 44.3125 27.78125 
Q 41.015625 30.8125 33.5 32.328125 
L 27.484375 33.5 
Q 16.453125 35.6875 11.515625 40.375 
Q 6.59375 45.0625 6.59375 53.421875 
Q 6.59375 63.09375 13.40625 68.65625 
Q 20.21875 74.21875 32.171875 74.21875 
Q 37.3125 74.21875 42.625 73.28125 
Q 47.953125 72.359375 53.515625 70.515625 
z
" id="DejaVuSans-53"/>
      <path d="M 9.8125 72.90625 
L 19.671875 72.90625 
L 19.671875 0 
L 9.8125 0 
z
" id="DejaVuSans-49"/>
     </defs>
     <g transform="translate(142.282812 38.916562)scale(0.1 -0.1)">
      <use xlink:href="#DejaVuSans-4d"/>
      <use x="86.279297" xlink:href="#DejaVuSans-53"/>
      <use x="149.755859" xlink:href="#DejaVuSans-49"/>
     </g>
    </g>
    <g id="line2d_25">
     <path d="M 114.282812 50.09625 
L 134.282812 50.09625 
" style="fill:none;stroke:#ff0000;stroke-linecap:square;stroke-width:1.5;"/>
    </g>
    <g id="line2d_26"/>
    <g id="text_16">
     <!-- $\it{A priori}$ model -->
     <defs>
      <path d="M 36.8125 72.90625 
L 48 72.90625 
L 61.53125 0 
L 51.21875 0 
L 48.1875 18.703125 
L 15.375 18.703125 
L 5.078125 0 
L -5.328125 0 
z
M 40.375 63.1875 
L 19.921875 26.90625 
L 46.6875 26.90625 
z
" id="DejaVuSans-Oblique-41"/>
      <path d="M 49.609375 33.6875 
Q 49.609375 40.875 46.484375 44.671875 
Q 43.359375 48.484375 37.5 48.484375 
Q 33.5 48.484375 29.859375 46.4375 
Q 26.21875 44.390625 23.390625 40.484375 
Q 20.609375 36.625 18.9375 31.15625 
Q 17.28125 25.6875 17.28125 20.3125 
Q 17.28125 13.484375 20.40625 9.796875 
Q 23.53125 6.109375 29.296875 6.109375 
Q 33.546875 6.109375 37.1875 8.109375 
Q 40.828125 10.109375 43.40625 13.921875 
Q 46.1875 17.921875 47.890625 23.34375 
Q 49.609375 28.765625 49.609375 33.6875 
z
M 21.78125 46.390625 
Q 25.390625 51.125 30.296875 53.5625 
Q 35.203125 56 41.21875 56 
Q 49.609375 56 54.25 50.5 
Q 58.890625 45.015625 58.890625 35.109375 
Q 58.890625 27 56 19.65625 
Q 53.125 12.3125 47.703125 6.5 
Q 44.09375 2.640625 39.546875 0.609375 
Q 35.015625 -1.421875 29.984375 -1.421875 
Q 24.171875 -1.421875 20.21875 1 
Q 16.265625 3.421875 14.3125 8.203125 
L 8.6875 -20.796875 
L -0.296875 -20.796875 
L 14.40625 54.6875 
L 23.390625 54.6875 
z
" id="DejaVuSans-Oblique-70"/>
      <path d="M 44.578125 46.390625 
Q 43.21875 47.125 41.453125 47.515625 
Q 39.703125 47.90625 37.703125 47.90625 
Q 30.515625 47.90625 25.140625 42.453125 
Q 19.78125 37.015625 18.015625 27.875 
L 12.5 0 
L 3.515625 0 
L 14.203125 54.6875 
L 23.1875 54.6875 
L 21.484375 46.1875 
Q 25.046875 50.921875 30 53.453125 
Q 34.96875 56 40.578125 56 
Q 42.046875 56 43.453125 55.828125 
Q 44.875 55.671875 46.296875 55.28125 
z
" id="DejaVuSans-Oblique-72"/>
      <path d="M 18.3125 75.984375 
L 27.296875 75.984375 
L 25.09375 64.59375 
L 16.109375 64.59375 
z
M 14.203125 54.6875 
L 23.1875 54.6875 
L 12.5 0 
L 3.515625 0 
z
" id="DejaVuSans-Oblique-69"/>
      <path d="M 25.390625 -1.421875 
Q 15.765625 -1.421875 10.171875 4.515625 
Q 4.59375 10.453125 4.59375 20.703125 
Q 4.59375 26.65625 6.515625 32.828125 
Q 8.453125 39.015625 11.53125 43.21875 
Q 16.359375 49.75 22.3125 52.875 
Q 28.265625 56 35.796875 56 
Q 45.125 56 50.859375 50.1875 
Q 56.59375 44.390625 56.59375 35.015625 
Q 56.59375 28.515625 54.6875 22.0625 
Q 52.78125 15.625 49.703125 11.375 
Q 44.921875 4.828125 38.96875 1.703125 
Q 33.015625 -1.421875 25.390625 -1.421875 
z
M 13.921875 21 
Q 13.921875 13.578125 17.015625 9.890625 
Q 20.125 6.203125 26.421875 6.203125 
Q 35.453125 6.203125 41.375 14.078125 
Q 47.3125 21.96875 47.3125 34.078125 
Q 47.3125 41.15625 44.140625 44.765625 
Q 40.96875 48.390625 34.8125 48.390625 
Q 29.734375 48.390625 25.78125 46.015625 
Q 21.828125 43.65625 18.703125 38.8125 
Q 16.40625 35.203125 15.15625 30.5625 
Q 13.921875 25.921875 13.921875 21 
z
" id="DejaVuSans-Oblique-6f"/>
      <path d="M 30.609375 48.390625 
Q 23.390625 48.390625 19.1875 42.75 
Q 14.984375 37.109375 14.984375 27.296875 
Q 14.984375 17.484375 19.15625 11.84375 
Q 23.34375 6.203125 30.609375 6.203125 
Q 37.796875 6.203125 41.984375 11.859375 
Q 46.1875 17.53125 46.1875 27.296875 
Q 46.1875 37.015625 41.984375 42.703125 
Q 37.796875 48.390625 30.609375 48.390625 
z
M 30.609375 56 
Q 42.328125 56 49.015625 48.375 
Q 55.71875 40.765625 55.71875 27.296875 
Q 55.71875 13.875 49.015625 6.21875 
Q 42.328125 -1.421875 30.609375 -1.421875 
Q 18.84375 -1.421875 12.171875 6.21875 
Q 5.515625 13.875 5.515625 27.296875 
Q 5.515625 40.765625 12.171875 48.375 
Q 18.84375 56 30.609375 56 
z
" id="DejaVuSans-6f"/>
      <path d="M 45.40625 46.390625 
L 45.40625 75.984375 
L 54.390625 75.984375 
L 54.390625 0 
L 45.40625 0 
L 45.40625 8.203125 
Q 42.578125 3.328125 38.25 0.953125 
Q 33.9375 -1.421875 27.875 -1.421875 
Q 17.96875 -1.421875 11.734375 6.484375 
Q 5.515625 14.40625 5.515625 27.296875 
Q 5.515625 40.1875 11.734375 48.09375 
Q 17.96875 56 27.875 56 
Q 33.9375 56 38.25 53.625 
Q 42.578125 51.265625 45.40625 46.390625 
z
M 14.796875 27.296875 
Q 14.796875 17.390625 18.875 11.75 
Q 22.953125 6.109375 30.078125 6.109375 
Q 37.203125 6.109375 41.296875 11.75 
Q 45.40625 17.390625 45.40625 27.296875 
Q 45.40625 37.203125 41.296875 42.84375 
Q 37.203125 48.484375 30.078125 48.484375 
Q 22.953125 48.484375 18.875 42.84375 
Q 14.796875 37.203125 14.796875 27.296875 
z
" id="DejaVuSans-64"/>
      <path d="M 9.421875 75.984375 
L 18.40625 75.984375 
L 18.40625 0 
L 9.421875 0 
z
" id="DejaVuSans-6c"/>
     </defs>
     <g transform="translate(142.282812 53.59625)scale(0.1 -0.1)">
      <use transform="translate(0 0.015625)" xlink:href="#DejaVuSans-Oblique-41"/>
      <use transform="translate(68.408203 0.015625)" xlink:href="#DejaVuSans-Oblique-70"/>
      <use transform="translate(131.884766 0.015625)" xlink:href="#DejaVuSans-Oblique-72"/>
      <use transform="translate(172.998047 0.015625)" xlink:href="#DejaVuSans-Oblique-69"/>
      <use transform="translate(200.78125 0.015625)" xlink:href="#DejaVuSans-Oblique-6f"/>
      <use transform="translate(261.962891 0.015625)" xlink:href="#DejaVuSans-Oblique-72"/>
      <use transform="translate(303.076172 0.015625)" xlink:href="#DejaVuSans-Oblique-69"/>
      <use transform="translate(330.859375 0.015625)" xlink:href="#DejaVuSans-20"/>
      <use transform="translate(362.646484 0.015625)" xlink:href="#DejaVuSans-6d"/>
      <use transform="translate(460.058594 0.015625)" xlink:href="#DejaVuSans-6f"/>
      <use transform="translate(521.240234 0.015625)" xlink:href="#DejaVuSans-64"/>
      <use transform="translate(584.716797 0.015625)" xlink:href="#DejaVuSans-65"/>
      <use transform="translate(646.240234 0.015625)" xlink:href="#DejaVuSans-6c"/>
     </g>
    </g>
    <g id="line2d_27"/>
    <g id="line2d_28">
     <g>
      <use style="stroke:#000000;" x="124.282812" xlink:href="#m2006264786" y="64.794688"/>
     </g>
    </g>
    <g id="text_17">
     <!-- Experimental Data -->
     <defs>
      <path d="M 34.28125 27.484375 
Q 23.390625 27.484375 19.1875 25 
Q 14.984375 22.515625 14.984375 16.5 
Q 14.984375 11.71875 18.140625 8.90625 
Q 21.296875 6.109375 26.703125 6.109375 
Q 34.1875 6.109375 38.703125 11.40625 
Q 43.21875 16.703125 43.21875 25.484375 
L 43.21875 27.484375 
z
M 52.203125 31.203125 
L 52.203125 0 
L 43.21875 0 
L 43.21875 8.296875 
Q 40.140625 3.328125 35.546875 0.953125 
Q 30.953125 -1.421875 24.3125 -1.421875 
Q 15.921875 -1.421875 10.953125 3.296875 
Q 6 8.015625 6 15.921875 
Q 6 25.140625 12.171875 29.828125 
Q 18.359375 34.515625 30.609375 34.515625 
L 43.21875 34.515625 
L 43.21875 35.40625 
Q 43.21875 41.609375 39.140625 45 
Q 35.0625 48.390625 27.6875 48.390625 
Q 23 48.390625 18.546875 47.265625 
Q 14.109375 46.140625 10.015625 43.890625 
L 10.015625 52.203125 
Q 14.9375 54.109375 19.578125 55.046875 
Q 24.21875 56 28.609375 56 
Q 40.484375 56 46.34375 49.84375 
Q 52.203125 43.703125 52.203125 31.203125 
z
" id="DejaVuSans-61"/>
      <path d="M 19.671875 64.796875 
L 19.671875 8.109375 
L 31.59375 8.109375 
Q 46.6875 8.109375 53.6875 14.9375 
Q 60.6875 21.78125 60.6875 36.53125 
Q 60.6875 51.171875 53.6875 57.984375 
Q 46.6875 64.796875 31.59375 64.796875 
z
M 9.8125 72.90625 
L 30.078125 72.90625 
Q 51.265625 72.90625 61.171875 64.09375 
Q 71.09375 55.28125 71.09375 36.53125 
Q 71.09375 17.671875 61.125 8.828125 
Q 51.171875 0 30.078125 0 
L 9.8125 0 
z
" id="DejaVuSans-44"/>
     </defs>
     <g transform="translate(142.282812 68.294688)scale(0.1 -0.1)">
      <use xlink:href="#DejaVuSans-45"/>
      <use x="63.183594" xlink:href="#DejaVuSans-78"/>
      <use x="122.363281" xlink:href="#DejaVuSans-70"/>
      <use x="185.839844" xlink:href="#DejaVuSans-65"/>
      <use x="247.363281" xlink:href="#DejaVuSans-72"/>
      <use x="288.476562" xlink:href="#DejaVuSans-69"/>
      <use x="316.259766" xlink:href="#DejaVuSans-6d"/>
      <use x="413.671875" xlink:href="#DejaVuSans-65"/>
      <use x="475.195312" xlink:href="#DejaVuSans-6e"/>
      <use x="538.574219" xlink:href="#DejaVuSans-74"/>
      <use x="577.783203" xlink:href="#DejaVuSans-61"/>
      <use x="639.0625" xlink:href="#DejaVuSans-6c"/>
      <use x="666.845703" xlink:href="#DejaVuSans-20"/>
      <use x="698.632812" xlink:href="#DejaVuSans-44"/>
      <use x="775.634766" xlink:href="#DejaVuSans-61"/>
      <use x="836.914062" xlink:href="#DejaVuSans-74"/>
      <use x="876.123047" xlink:href="#DejaVuSans-61"/>
     </g>
    </g>
    <g id="line2d_29">
     <path d="M 114.282812 79.472813 
L 134.282812 79.472813 
" style="fill:none;stroke:#ffffff;stroke-linecap:square;stroke-width:1.5;"/>
    </g>
    <g id="line2d_30"/>
    <g id="text_18">
     <!-- T:1182 -->
     <defs>
      <path d="M 11.71875 12.40625 
L 22.015625 12.40625 
L 22.015625 0 
L 11.71875 0 
z
M 11.71875 51.703125 
L 22.015625 51.703125 
L 22.015625 39.3125 
L 11.71875 39.3125 
z
" id="DejaVuSans-3a"/>
     </defs>
     <g transform="translate(142.282812 82.972813)scale(0.1 -0.1)">
      <use xlink:href="#DejaVuSans-54"/>
      <use x="60.912109" xlink:href="#DejaVuSans-3a"/>
      <use x="94.603516" xlink:href="#DejaVuSans-31"/>
      <use x="158.226562" xlink:href="#DejaVuSans-31"/>
      <use x="221.849609" xlink:href="#DejaVuSans-38"/>
      <use x="285.472656" xlink:href="#DejaVuSans-32"/>
     </g>
    </g>
    <g id="line2d_31">
     <path d="M 114.282812 94.150937 
L 134.282812 94.150937 
" style="fill:none;stroke:#ffffff;stroke-linecap:square;stroke-width:1.5;"/>
    </g>
    <g id="line2d_32"/>
    <g id="text_19">
     <!-- P:1.676 -->
     <defs>
      <path d="M 19.671875 64.796875 
L 19.671875 37.40625 
L 32.078125 37.40625 
Q 38.96875 37.40625 42.71875 40.96875 
Q 46.484375 44.53125 46.484375 51.125 
Q 46.484375 57.671875 42.71875 61.234375 
Q 38.96875 64.796875 32.078125 64.796875 
z
M 9.8125 72.90625 
L 32.078125 72.90625 
Q 44.34375 72.90625 50.609375 67.359375 
Q 56.890625 61.8125 56.890625 51.125 
Q 56.890625 40.328125 50.609375 34.8125 
Q 44.34375 29.296875 32.078125 29.296875 
L 19.671875 29.296875 
L 19.671875 0 
L 9.8125 0 
z
" id="DejaVuSans-50"/>
      <path d="M 8.203125 72.90625 
L 55.078125 72.90625 
L 55.078125 68.703125 
L 28.609375 0 
L 18.3125 0 
L 43.21875 64.59375 
L 8.203125 64.59375 
z
" id="DejaVuSans-37"/>
     </defs>
     <g transform="translate(142.282812 97.650937)scale(0.1 -0.1)">
      <use xlink:href="#DejaVuSans-50"/>
      <use x="60.302734" xlink:href="#DejaVuSans-3a"/>
      <use x="93.994141" xlink:href="#DejaVuSans-31"/>
      <use x="157.617188" xlink:href="#DejaVuSans-2e"/>
      <use x="189.404297" xlink:href="#DejaVuSans-36"/>
      <use x="253.027344" xlink:href="#DejaVuSans-37"/>
      <use x="316.650391" xlink:href="#DejaVuSans-36"/>
     </g>
    </g>
    <g id="line2d_33">
     <path d="M 256.023438 35.416562 
L 276.023438 35.416562 
" style="fill:none;stroke:#ffffff;stroke-linecap:square;stroke-width:1.5;"/>
    </g>
    <g id="line2d_34"/>
    <g id="text_20">
     <!-- H2O2: 0.002046 -->
     <g transform="translate(284.023438 38.916562)scale(0.1 -0.1)">
      <use xlink:href="#DejaVuSans-48"/>
      <use x="75.195312" xlink:href="#DejaVuSans-32"/>
      <use x="138.818359" xlink:href="#DejaVuSans-4f"/>
      <use x="217.529297" xlink:href="#DejaVuSans-32"/>
      <use x="281.152344" xlink:href="#DejaVuSans-3a"/>
      <use x="314.84375" xlink:href="#DejaVuSans-20"/>
      <use x="346.630859" xlink:href="#DejaVuSans-30"/>
      <use x="410.253906" xlink:href="#DejaVuSans-2e"/>
      <use x="442.041016" xlink:href="#DejaVuSans-30"/>
      <use x="505.664062" xlink:href="#DejaVuSans-30"/>
      <use x="569.287109" xlink:href="#DejaVuSans-32"/>
      <use x="632.910156" xlink:href="#DejaVuSans-30"/>
      <use x="696.533203" xlink:href="#DejaVuSans-34"/>
      <use x="760.15625" xlink:href="#DejaVuSans-36"/>
     </g>
    </g>
    <g id="line2d_35">
     <path d="M 256.023438 50.094687 
L 276.023438 50.094687 
" style="fill:none;stroke:#ffffff;stroke-linecap:square;stroke-width:1.5;"/>
    </g>
    <g id="line2d_36"/>
    <g id="text_21">
     <!-- H2O: 0.001113 -->
     <defs>
      <path d="M 40.578125 39.3125 
Q 47.65625 37.796875 51.625 33 
Q 55.609375 28.21875 55.609375 21.1875 
Q 55.609375 10.40625 48.1875 4.484375 
Q 40.765625 -1.421875 27.09375 -1.421875 
Q 22.515625 -1.421875 17.65625 -0.515625 
Q 12.796875 0.390625 7.625 2.203125 
L 7.625 11.71875 
Q 11.71875 9.328125 16.59375 8.109375 
Q 21.484375 6.890625 26.8125 6.890625 
Q 36.078125 6.890625 40.9375 10.546875 
Q 45.796875 14.203125 45.796875 21.1875 
Q 45.796875 27.640625 41.28125 31.265625 
Q 36.765625 34.90625 28.71875 34.90625 
L 20.21875 34.90625 
L 20.21875 43.015625 
L 29.109375 43.015625 
Q 36.375 43.015625 40.234375 45.921875 
Q 44.09375 48.828125 44.09375 54.296875 
Q 44.09375 59.90625 40.109375 62.90625 
Q 36.140625 65.921875 28.71875 65.921875 
Q 24.65625 65.921875 20.015625 65.03125 
Q 15.375 64.15625 9.8125 62.3125 
L 9.8125 71.09375 
Q 15.4375 72.65625 20.34375 73.4375 
Q 25.25 74.21875 29.59375 74.21875 
Q 40.828125 74.21875 47.359375 69.109375 
Q 53.90625 64.015625 53.90625 55.328125 
Q 53.90625 49.265625 50.4375 45.09375 
Q 46.96875 40.921875 40.578125 39.3125 
z
" id="DejaVuSans-33"/>
     </defs>
     <g transform="translate(284.023438 53.594687)scale(0.1 -0.1)">
      <use xlink:href="#DejaVuSans-48"/>
      <use x="75.195312" xlink:href="#DejaVuSans-32"/>
      <use x="138.818359" xlink:href="#DejaVuSans-4f"/>
      <use x="217.513672" xlink:href="#DejaVuSans-3a"/>
      <use x="251.205078" xlink:href="#DejaVuSans-20"/>
      <use x="282.992188" xlink:href="#DejaVuSans-30"/>
      <use x="346.615234" xlink:href="#DejaVuSans-2e"/>
      <use x="378.402344" xlink:href="#DejaVuSans-30"/>
      <use x="442.025391" xlink:href="#DejaVuSans-30"/>
      <use x="505.648438" xlink:href="#DejaVuSans-31"/>
      <use x="569.271484" xlink:href="#DejaVuSans-31"/>
      <use x="632.894531" xlink:href="#DejaVuSans-31"/>
      <use x="696.517578" xlink:href="#DejaVuSans-33"/>
     </g>
    </g>
    <g id="line2d_37">
     <path d="M 256.023438 64.772812 
L 276.023438 64.772812 
" style="fill:none;stroke:#ffffff;stroke-linecap:square;stroke-width:1.5;"/>
    </g>
    <g id="line2d_38"/>
    <g id="text_22">
     <!-- O2: 0.000556 -->
     <defs>
      <path d="M 10.796875 72.90625 
L 49.515625 72.90625 
L 49.515625 64.59375 
L 19.828125 64.59375 
L 19.828125 46.734375 
Q 21.96875 47.46875 24.109375 47.828125 
Q 26.265625 48.1875 28.421875 48.1875 
Q 40.625 48.1875 47.75 41.5 
Q 54.890625 34.8125 54.890625 23.390625 
Q 54.890625 11.625 47.5625 5.09375 
Q 40.234375 -1.421875 26.90625 -1.421875 
Q 22.3125 -1.421875 17.546875 -0.640625 
Q 12.796875 0.140625 7.71875 1.703125 
L 7.71875 11.625 
Q 12.109375 9.234375 16.796875 8.0625 
Q 21.484375 6.890625 26.703125 6.890625 
Q 35.15625 6.890625 40.078125 11.328125 
Q 45.015625 15.765625 45.015625 23.390625 
Q 45.015625 31 40.078125 35.4375 
Q 35.15625 39.890625 26.703125 39.890625 
Q 22.75 39.890625 18.8125 39.015625 
Q 14.890625 38.140625 10.796875 36.28125 
z
" id="DejaVuSans-35"/>
     </defs>
     <g transform="translate(284.023438 68.272812)scale(0.1 -0.1)">
      <use xlink:href="#DejaVuSans-4f"/>
      <use x="78.710938" xlink:href="#DejaVuSans-32"/>
      <use x="142.333984" xlink:href="#DejaVuSans-3a"/>
      <use x="176.025391" xlink:href="#DejaVuSans-20"/>
      <use x="207.8125" xlink:href="#DejaVuSans-30"/>
      <use x="271.435547" xlink:href="#DejaVuSans-2e"/>
      <use x="303.222656" xlink:href="#DejaVuSans-30"/>
      <use x="366.845703" xlink:href="#DejaVuSans-30"/>
      <use x="430.46875" xlink:href="#DejaVuSans-30"/>
      <use x="494.091797" xlink:href="#DejaVuSans-35"/>
      <use x="557.714844" xlink:href="#DejaVuSans-35"/>
      <use x="621.337891" xlink:href="#DejaVuSans-36"/>
     </g>
    </g>
    <g id="line2d_39">
     <path d="M 256.023438 79.450938 
L 276.023438 79.450938 
" style="fill:none;stroke:#ffffff;stroke-linecap:square;stroke-width:1.5;"/>
    </g>
    <g id="line2d_40"/>
    <g id="text_23">
     <!-- Ar: 0.99626 -->
     <defs>
      <path d="M 34.1875 63.1875 
L 20.796875 26.90625 
L 47.609375 26.90625 
z
M 28.609375 72.90625 
L 39.796875 72.90625 
L 67.578125 0 
L 57.328125 0 
L 50.6875 18.703125 
L 17.828125 18.703125 
L 11.1875 0 
L 0.78125 0 
z
" id="DejaVuSans-41"/>
      <path d="M 10.984375 1.515625 
L 10.984375 10.5 
Q 14.703125 8.734375 18.5 7.8125 
Q 22.3125 6.890625 25.984375 6.890625 
Q 35.75 6.890625 40.890625 13.453125 
Q 46.046875 20.015625 46.78125 33.40625 
Q 43.953125 29.203125 39.59375 26.953125 
Q 35.25 24.703125 29.984375 24.703125 
Q 19.046875 24.703125 12.671875 31.3125 
Q 6.296875 37.9375 6.296875 49.421875 
Q 6.296875 60.640625 12.9375 67.421875 
Q 19.578125 74.21875 30.609375 74.21875 
Q 43.265625 74.21875 49.921875 64.515625 
Q 56.59375 54.828125 56.59375 36.375 
Q 56.59375 19.140625 48.40625 8.859375 
Q 40.234375 -1.421875 26.421875 -1.421875 
Q 22.703125 -1.421875 18.890625 -0.6875 
Q 15.09375 0.046875 10.984375 1.515625 
z
M 30.609375 32.421875 
Q 37.25 32.421875 41.125 36.953125 
Q 45.015625 41.5 45.015625 49.421875 
Q 45.015625 57.28125 41.125 61.84375 
Q 37.25 66.40625 30.609375 66.40625 
Q 23.96875 66.40625 20.09375 61.84375 
Q 16.21875 57.28125 16.21875 49.421875 
Q 16.21875 41.5 20.09375 36.953125 
Q 23.96875 32.421875 30.609375 32.421875 
z
" id="DejaVuSans-39"/>
     </defs>
     <g transform="translate(284.023438 82.950938)scale(0.1 -0.1)">
      <use xlink:href="#DejaVuSans-41"/>
      <use x="68.408203" xlink:href="#DejaVuSans-72"/>
      <use x="109.505859" xlink:href="#DejaVuSans-3a"/>
      <use x="143.197266" xlink:href="#DejaVuSans-20"/>
      <use x="174.984375" xlink:href="#DejaVuSans-30"/>
      <use x="238.607422" xlink:href="#DejaVuSans-2e"/>
      <use x="270.394531" xlink:href="#DejaVuSans-39"/>
      <use x="334.017578" xlink:href="#DejaVuSans-39"/>
      <use x="397.640625" xlink:href="#DejaVuSans-36"/>
      <use x="461.263672" xlink:href="#DejaVuSans-32"/>
      <use x="524.886719" xlink:href="#DejaVuSans-36"/>
     </g>
    </g>
   </g>
  </g>
 </g>
 <defs>
  <clipPath id="p8f8866a4c3">
   <rect height="217.44" width="334.8" x="40.603125" y="22.318125"/>
  </clipPath>
 </defs>
</svg>
