<?xml version="1.0" encoding="utf-8" standalone="no"?>
<!DOCTYPE svg PUBLIC "-//W3C//DTD SVG 1.1//EN"
  "http://www.w3.org/Graphics/SVG/1.1/DTD/svg11.dtd">
<!-- Created with matplotlib (http://matplotlib.org/) -->
<svg height="277pt" version="1.1" viewBox="0 0 398 277" width="398pt" xmlns="http://www.w3.org/2000/svg" xmlns:xlink="http://www.w3.org/1999/xlink">
 <defs>
  <style type="text/css">
*{stroke-linecap:butt;stroke-linejoin:round;}
  </style>
 </defs>
 <g id="figure_1">
  <g id="patch_1">
   <path d="M 0 277.314375 
L 398.828125 277.314375 
L 398.828125 0 
L 0 0 
z
" style="fill:none;"/>
  </g>
  <g id="axes_1">
   <g id="patch_2">
    <path d="M 53.328125 239.758125 
L 388.128125 239.758125 
L 388.128125 22.318125 
L 53.328125 22.318125 
z
" style="fill:none;"/>
   </g>
   <g id="matplotlib.axis_1">
    <g id="xtick_1">
     <g id="line2d_1">
      <defs>
       <path d="M 0 0 
L 0 3.5 
" id="ma72b1b38b3" style="stroke:#000000;stroke-width:0.8;"/>
      </defs>
      <g>
       <use style="stroke:#000000;stroke-width:0.8;" x="68.546307" xlink:href="#ma72b1b38b3" y="239.758125"/>
      </g>
     </g>
     <g id="text_1">
      <!-- 0.0 -->
      <defs>
       <path d="M 31.78125 66.40625 
Q 24.171875 66.40625 20.328125 58.90625 
Q 16.5 51.421875 16.5 36.375 
Q 16.5 21.390625 20.328125 13.890625 
Q 24.171875 6.390625 31.78125 6.390625 
Q 39.453125 6.390625 43.28125 13.890625 
Q 47.125 21.390625 47.125 36.375 
Q 47.125 51.421875 43.28125 58.90625 
Q 39.453125 66.40625 31.78125 66.40625 
z
M 31.78125 74.21875 
Q 44.046875 74.21875 50.515625 64.515625 
Q 56.984375 54.828125 56.984375 36.375 
Q 56.984375 17.96875 50.515625 8.265625 
Q 44.046875 -1.421875 31.78125 -1.421875 
Q 19.53125 -1.421875 13.0625 8.265625 
Q 6.59375 17.96875 6.59375 36.375 
Q 6.59375 54.828125 13.0625 64.515625 
Q 19.53125 74.21875 31.78125 74.21875 
z
" id="DejaVuSans-30"/>
       <path d="M 10.6875 12.40625 
L 21 12.40625 
L 21 0 
L 10.6875 0 
z
" id="DejaVuSans-2e"/>
      </defs>
      <g transform="translate(60.594744 254.356562)scale(0.1 -0.1)">
       <use xlink:href="#DejaVuSans-30"/>
       <use x="63.623047" xlink:href="#DejaVuSans-2e"/>
       <use x="95.410156" xlink:href="#DejaVuSans-30"/>
      </g>
     </g>
    </g>
    <g id="xtick_2">
     <g id="line2d_2">
      <g>
       <use style="stroke:#000000;stroke-width:0.8;" x="129.048791" xlink:href="#ma72b1b38b3" y="239.758125"/>
      </g>
     </g>
     <g id="text_2">
      <!-- 0.2 -->
      <defs>
       <path d="M 19.1875 8.296875 
L 53.609375 8.296875 
L 53.609375 0 
L 7.328125 0 
L 7.328125 8.296875 
Q 12.9375 14.109375 22.625 23.890625 
Q 32.328125 33.6875 34.8125 36.53125 
Q 39.546875 41.84375 41.421875 45.53125 
Q 43.3125 49.21875 43.3125 52.78125 
Q 43.3125 58.59375 39.234375 62.25 
Q 35.15625 65.921875 28.609375 65.921875 
Q 23.96875 65.921875 18.8125 64.3125 
Q 13.671875 62.703125 7.8125 59.421875 
L 7.8125 69.390625 
Q 13.765625 71.78125 18.9375 73 
Q 24.125 74.21875 28.421875 74.21875 
Q 39.75 74.21875 46.484375 68.546875 
Q 53.21875 62.890625 53.21875 53.421875 
Q 53.21875 48.921875 51.53125 44.890625 
Q 49.859375 40.875 45.40625 35.40625 
Q 44.1875 33.984375 37.640625 27.21875 
Q 31.109375 20.453125 19.1875 8.296875 
z
" id="DejaVuSans-32"/>
      </defs>
      <g transform="translate(121.097229 254.356562)scale(0.1 -0.1)">
       <use xlink:href="#DejaVuSans-30"/>
       <use x="63.623047" xlink:href="#DejaVuSans-2e"/>
       <use x="95.410156" xlink:href="#DejaVuSans-32"/>
      </g>
     </g>
    </g>
    <g id="xtick_3">
     <g id="line2d_3">
      <g>
       <use style="stroke:#000000;stroke-width:0.8;" x="189.551276" xlink:href="#ma72b1b38b3" y="239.758125"/>
      </g>
     </g>
     <g id="text_3">
      <!-- 0.4 -->
      <defs>
       <path d="M 37.796875 64.3125 
L 12.890625 25.390625 
L 37.796875 25.390625 
z
M 35.203125 72.90625 
L 47.609375 72.90625 
L 47.609375 25.390625 
L 58.015625 25.390625 
L 58.015625 17.1875 
L 47.609375 17.1875 
L 47.609375 0 
L 37.796875 0 
L 37.796875 17.1875 
L 4.890625 17.1875 
L 4.890625 26.703125 
z
" id="DejaVuSans-34"/>
      </defs>
      <g transform="translate(181.599713 254.356562)scale(0.1 -0.1)">
       <use xlink:href="#DejaVuSans-30"/>
       <use x="63.623047" xlink:href="#DejaVuSans-2e"/>
       <use x="95.410156" xlink:href="#DejaVuSans-34"/>
      </g>
     </g>
    </g>
    <g id="xtick_4">
     <g id="line2d_4">
      <g>
       <use style="stroke:#000000;stroke-width:0.8;" x="250.05376" xlink:href="#ma72b1b38b3" y="239.758125"/>
      </g>
     </g>
     <g id="text_4">
      <!-- 0.6 -->
      <defs>
       <path d="M 33.015625 40.375 
Q 26.375 40.375 22.484375 35.828125 
Q 18.609375 31.296875 18.609375 23.390625 
Q 18.609375 15.53125 22.484375 10.953125 
Q 26.375 6.390625 33.015625 6.390625 
Q 39.65625 6.390625 43.53125 10.953125 
Q 47.40625 15.53125 47.40625 23.390625 
Q 47.40625 31.296875 43.53125 35.828125 
Q 39.65625 40.375 33.015625 40.375 
z
M 52.59375 71.296875 
L 52.59375 62.3125 
Q 48.875 64.0625 45.09375 64.984375 
Q 41.3125 65.921875 37.59375 65.921875 
Q 27.828125 65.921875 22.671875 59.328125 
Q 17.53125 52.734375 16.796875 39.40625 
Q 19.671875 43.65625 24.015625 45.921875 
Q 28.375 48.1875 33.59375 48.1875 
Q 44.578125 48.1875 50.953125 41.515625 
Q 57.328125 34.859375 57.328125 23.390625 
Q 57.328125 12.15625 50.6875 5.359375 
Q 44.046875 -1.421875 33.015625 -1.421875 
Q 20.359375 -1.421875 13.671875 8.265625 
Q 6.984375 17.96875 6.984375 36.375 
Q 6.984375 53.65625 15.1875 63.9375 
Q 23.390625 74.21875 37.203125 74.21875 
Q 40.921875 74.21875 44.703125 73.484375 
Q 48.484375 72.75 52.59375 71.296875 
z
" id="DejaVuSans-36"/>
      </defs>
      <g transform="translate(242.102198 254.356562)scale(0.1 -0.1)">
       <use xlink:href="#DejaVuSans-30"/>
       <use x="63.623047" xlink:href="#DejaVuSans-2e"/>
       <use x="95.410156" xlink:href="#DejaVuSans-36"/>
      </g>
     </g>
    </g>
    <g id="xtick_5">
     <g id="line2d_5">
      <g>
       <use style="stroke:#000000;stroke-width:0.8;" x="310.556245" xlink:href="#ma72b1b38b3" y="239.758125"/>
      </g>
     </g>
     <g id="text_5">
      <!-- 0.8 -->
      <defs>
       <path d="M 31.78125 34.625 
Q 24.75 34.625 20.71875 30.859375 
Q 16.703125 27.09375 16.703125 20.515625 
Q 16.703125 13.921875 20.71875 10.15625 
Q 24.75 6.390625 31.78125 6.390625 
Q 38.8125 6.390625 42.859375 10.171875 
Q 46.921875 13.96875 46.921875 20.515625 
Q 46.921875 27.09375 42.890625 30.859375 
Q 38.875 34.625 31.78125 34.625 
z
M 21.921875 38.8125 
Q 15.578125 40.375 12.03125 44.71875 
Q 8.5 49.078125 8.5 55.328125 
Q 8.5 64.0625 14.71875 69.140625 
Q 20.953125 74.21875 31.78125 74.21875 
Q 42.671875 74.21875 48.875 69.140625 
Q 55.078125 64.0625 55.078125 55.328125 
Q 55.078125 49.078125 51.53125 44.71875 
Q 48 40.375 41.703125 38.8125 
Q 48.828125 37.15625 52.796875 32.3125 
Q 56.78125 27.484375 56.78125 20.515625 
Q 56.78125 9.90625 50.3125 4.234375 
Q 43.84375 -1.421875 31.78125 -1.421875 
Q 19.734375 -1.421875 13.25 4.234375 
Q 6.78125 9.90625 6.78125 20.515625 
Q 6.78125 27.484375 10.78125 32.3125 
Q 14.796875 37.15625 21.921875 38.8125 
z
M 18.3125 54.390625 
Q 18.3125 48.734375 21.84375 45.5625 
Q 25.390625 42.390625 31.78125 42.390625 
Q 38.140625 42.390625 41.71875 45.5625 
Q 45.3125 48.734375 45.3125 54.390625 
Q 45.3125 60.0625 41.71875 63.234375 
Q 38.140625 66.40625 31.78125 66.40625 
Q 25.390625 66.40625 21.84375 63.234375 
Q 18.3125 60.0625 18.3125 54.390625 
z
" id="DejaVuSans-38"/>
      </defs>
      <g transform="translate(302.604682 254.356562)scale(0.1 -0.1)">
       <use xlink:href="#DejaVuSans-30"/>
       <use x="63.623047" xlink:href="#DejaVuSans-2e"/>
       <use x="95.410156" xlink:href="#DejaVuSans-38"/>
      </g>
     </g>
    </g>
    <g id="xtick_6">
     <g id="line2d_6">
      <g>
       <use style="stroke:#000000;stroke-width:0.8;" x="371.058729" xlink:href="#ma72b1b38b3" y="239.758125"/>
      </g>
     </g>
     <g id="text_6">
      <!-- 1.0 -->
      <defs>
       <path d="M 12.40625 8.296875 
L 28.515625 8.296875 
L 28.515625 63.921875 
L 10.984375 60.40625 
L 10.984375 69.390625 
L 28.421875 72.90625 
L 38.28125 72.90625 
L 38.28125 8.296875 
L 54.390625 8.296875 
L 54.390625 0 
L 12.40625 0 
z
" id="DejaVuSans-31"/>
      </defs>
      <g transform="translate(363.107167 254.356562)scale(0.1 -0.1)">
       <use xlink:href="#DejaVuSans-31"/>
       <use x="63.623047" xlink:href="#DejaVuSans-2e"/>
       <use x="95.410156" xlink:href="#DejaVuSans-30"/>
      </g>
     </g>
    </g>
    <g id="text_7">
     <!-- Time (ms) -->
     <defs>
      <path d="M -0.296875 72.90625 
L 61.375 72.90625 
L 61.375 64.59375 
L 35.5 64.59375 
L 35.5 0 
L 25.59375 0 
L 25.59375 64.59375 
L -0.296875 64.59375 
z
" id="DejaVuSans-54"/>
      <path d="M 9.421875 54.6875 
L 18.40625 54.6875 
L 18.40625 0 
L 9.421875 0 
z
M 9.421875 75.984375 
L 18.40625 75.984375 
L 18.40625 64.59375 
L 9.421875 64.59375 
z
" id="DejaVuSans-69"/>
      <path d="M 52 44.1875 
Q 55.375 50.25 60.0625 53.125 
Q 64.75 56 71.09375 56 
Q 79.640625 56 84.28125 50.015625 
Q 88.921875 44.046875 88.921875 33.015625 
L 88.921875 0 
L 79.890625 0 
L 79.890625 32.71875 
Q 79.890625 40.578125 77.09375 44.375 
Q 74.3125 48.1875 68.609375 48.1875 
Q 61.625 48.1875 57.5625 43.546875 
Q 53.515625 38.921875 53.515625 30.90625 
L 53.515625 0 
L 44.484375 0 
L 44.484375 32.71875 
Q 44.484375 40.625 41.703125 44.40625 
Q 38.921875 48.1875 33.109375 48.1875 
Q 26.21875 48.1875 22.15625 43.53125 
Q 18.109375 38.875 18.109375 30.90625 
L 18.109375 0 
L 9.078125 0 
L 9.078125 54.6875 
L 18.109375 54.6875 
L 18.109375 46.1875 
Q 21.1875 51.21875 25.484375 53.609375 
Q 29.78125 56 35.6875 56 
Q 41.65625 56 45.828125 52.96875 
Q 50 49.953125 52 44.1875 
z
" id="DejaVuSans-6d"/>
      <path d="M 56.203125 29.59375 
L 56.203125 25.203125 
L 14.890625 25.203125 
Q 15.484375 15.921875 20.484375 11.0625 
Q 25.484375 6.203125 34.421875 6.203125 
Q 39.59375 6.203125 44.453125 7.46875 
Q 49.3125 8.734375 54.109375 11.28125 
L 54.109375 2.78125 
Q 49.265625 0.734375 44.1875 -0.34375 
Q 39.109375 -1.421875 33.890625 -1.421875 
Q 20.796875 -1.421875 13.15625 6.1875 
Q 5.515625 13.8125 5.515625 26.8125 
Q 5.515625 40.234375 12.765625 48.109375 
Q 20.015625 56 32.328125 56 
Q 43.359375 56 49.78125 48.890625 
Q 56.203125 41.796875 56.203125 29.59375 
z
M 47.21875 32.234375 
Q 47.125 39.59375 43.09375 43.984375 
Q 39.0625 48.390625 32.421875 48.390625 
Q 24.90625 48.390625 20.390625 44.140625 
Q 15.875 39.890625 15.1875 32.171875 
z
" id="DejaVuSans-65"/>
      <path id="DejaVuSans-20"/>
      <path d="M 31 75.875 
Q 24.46875 64.65625 21.28125 53.65625 
Q 18.109375 42.671875 18.109375 31.390625 
Q 18.109375 20.125 21.3125 9.0625 
Q 24.515625 -2 31 -13.1875 
L 23.1875 -13.1875 
Q 15.875 -1.703125 12.234375 9.375 
Q 8.59375 20.453125 8.59375 31.390625 
Q 8.59375 42.28125 12.203125 53.3125 
Q 15.828125 64.359375 23.1875 75.875 
z
" id="DejaVuSans-28"/>
      <path d="M 44.28125 53.078125 
L 44.28125 44.578125 
Q 40.484375 46.53125 36.375 47.5 
Q 32.28125 48.484375 27.875 48.484375 
Q 21.1875 48.484375 17.84375 46.4375 
Q 14.5 44.390625 14.5 40.28125 
Q 14.5 37.15625 16.890625 35.375 
Q 19.28125 33.59375 26.515625 31.984375 
L 29.59375 31.296875 
Q 39.15625 29.25 43.1875 25.515625 
Q 47.21875 21.78125 47.21875 15.09375 
Q 47.21875 7.46875 41.1875 3.015625 
Q 35.15625 -1.421875 24.609375 -1.421875 
Q 20.21875 -1.421875 15.453125 -0.5625 
Q 10.6875 0.296875 5.421875 2 
L 5.421875 11.28125 
Q 10.40625 8.6875 15.234375 7.390625 
Q 20.0625 6.109375 24.8125 6.109375 
Q 31.15625 6.109375 34.5625 8.28125 
Q 37.984375 10.453125 37.984375 14.40625 
Q 37.984375 18.0625 35.515625 20.015625 
Q 33.0625 21.96875 24.703125 23.78125 
L 21.578125 24.515625 
Q 13.234375 26.265625 9.515625 29.90625 
Q 5.8125 33.546875 5.8125 39.890625 
Q 5.8125 47.609375 11.28125 51.796875 
Q 16.75 56 26.8125 56 
Q 31.78125 56 36.171875 55.265625 
Q 40.578125 54.546875 44.28125 53.078125 
z
" id="DejaVuSans-73"/>
      <path d="M 8.015625 75.875 
L 15.828125 75.875 
Q 23.140625 64.359375 26.78125 53.3125 
Q 30.421875 42.28125 30.421875 31.390625 
Q 30.421875 20.453125 26.78125 9.375 
Q 23.140625 -1.703125 15.828125 -13.1875 
L 8.015625 -13.1875 
Q 14.5 -2 17.703125 9.0625 
Q 20.90625 20.125 20.90625 31.390625 
Q 20.90625 42.671875 17.703125 53.65625 
Q 14.5 64.65625 8.015625 75.875 
z
" id="DejaVuSans-29"/>
     </defs>
     <g transform="translate(195.375 268.034687)scale(0.1 -0.1)">
      <use xlink:href="#DejaVuSans-54"/>
      <use x="61.037109" xlink:href="#DejaVuSans-69"/>
      <use x="88.820312" xlink:href="#DejaVuSans-6d"/>
      <use x="186.232422" xlink:href="#DejaVuSans-65"/>
      <use x="247.755859" xlink:href="#DejaVuSans-20"/>
      <use x="279.542969" xlink:href="#DejaVuSans-28"/>
      <use x="318.556641" xlink:href="#DejaVuSans-6d"/>
      <use x="415.96875" xlink:href="#DejaVuSans-73"/>
      <use x="468.068359" xlink:href="#DejaVuSans-29"/>
     </g>
    </g>
   </g>
   <g id="matplotlib.axis_2">
    <g id="ytick_1">
     <g id="line2d_7">
      <defs>
       <path d="M 0 0 
L -3.5 0 
" id="m4dd9dd91bb" style="stroke:#000000;stroke-width:0.8;"/>
      </defs>
      <g>
       <use style="stroke:#000000;stroke-width:0.8;" x="53.328125" xlink:href="#m4dd9dd91bb" y="221.724679"/>
      </g>
     </g>
     <g id="text_8">
      <!-- 1000 -->
      <g transform="translate(20.878125 225.523897)scale(0.1 -0.1)">
       <use xlink:href="#DejaVuSans-31"/>
       <use x="63.623047" xlink:href="#DejaVuSans-30"/>
       <use x="127.246094" xlink:href="#DejaVuSans-30"/>
       <use x="190.869141" xlink:href="#DejaVuSans-30"/>
      </g>
     </g>
    </g>
    <g id="ytick_2">
     <g id="line2d_8">
      <g>
       <use style="stroke:#000000;stroke-width:0.8;" x="53.328125" xlink:href="#m4dd9dd91bb" y="175.225291"/>
      </g>
     </g>
     <g id="text_9">
      <!-- 1500 -->
      <defs>
       <path d="M 10.796875 72.90625 
L 49.515625 72.90625 
L 49.515625 64.59375 
L 19.828125 64.59375 
L 19.828125 46.734375 
Q 21.96875 47.46875 24.109375 47.828125 
Q 26.265625 48.1875 28.421875 48.1875 
Q 40.625 48.1875 47.75 41.5 
Q 54.890625 34.8125 54.890625 23.390625 
Q 54.890625 11.625 47.5625 5.09375 
Q 40.234375 -1.421875 26.90625 -1.421875 
Q 22.3125 -1.421875 17.546875 -0.640625 
Q 12.796875 0.140625 7.71875 1.703125 
L 7.71875 11.625 
Q 12.109375 9.234375 16.796875 8.0625 
Q 21.484375 6.890625 26.703125 6.890625 
Q 35.15625 6.890625 40.078125 11.328125 
Q 45.015625 15.765625 45.015625 23.390625 
Q 45.015625 31 40.078125 35.4375 
Q 35.15625 39.890625 26.703125 39.890625 
Q 22.75 39.890625 18.8125 39.015625 
Q 14.890625 38.140625 10.796875 36.28125 
z
" id="DejaVuSans-35"/>
      </defs>
      <g transform="translate(20.878125 179.024509)scale(0.1 -0.1)">
       <use xlink:href="#DejaVuSans-31"/>
       <use x="63.623047" xlink:href="#DejaVuSans-35"/>
       <use x="127.246094" xlink:href="#DejaVuSans-30"/>
       <use x="190.869141" xlink:href="#DejaVuSans-30"/>
      </g>
     </g>
    </g>
    <g id="ytick_3">
     <g id="line2d_9">
      <g>
       <use style="stroke:#000000;stroke-width:0.8;" x="53.328125" xlink:href="#m4dd9dd91bb" y="128.725903"/>
      </g>
     </g>
     <g id="text_10">
      <!-- 2000 -->
      <g transform="translate(20.878125 132.525121)scale(0.1 -0.1)">
       <use xlink:href="#DejaVuSans-32"/>
       <use x="63.623047" xlink:href="#DejaVuSans-30"/>
       <use x="127.246094" xlink:href="#DejaVuSans-30"/>
       <use x="190.869141" xlink:href="#DejaVuSans-30"/>
      </g>
     </g>
    </g>
    <g id="ytick_4">
     <g id="line2d_10">
      <g>
       <use style="stroke:#000000;stroke-width:0.8;" x="53.328125" xlink:href="#m4dd9dd91bb" y="82.226515"/>
      </g>
     </g>
     <g id="text_11">
      <!-- 2500 -->
      <g transform="translate(20.878125 86.025733)scale(0.1 -0.1)">
       <use xlink:href="#DejaVuSans-32"/>
       <use x="63.623047" xlink:href="#DejaVuSans-35"/>
       <use x="127.246094" xlink:href="#DejaVuSans-30"/>
       <use x="190.869141" xlink:href="#DejaVuSans-30"/>
      </g>
     </g>
    </g>
    <g id="ytick_5">
     <g id="line2d_11">
      <g>
       <use style="stroke:#000000;stroke-width:0.8;" x="53.328125" xlink:href="#m4dd9dd91bb" y="35.727127"/>
      </g>
     </g>
     <g id="text_12">
      <!-- 3000 -->
      <defs>
       <path d="M 40.578125 39.3125 
Q 47.65625 37.796875 51.625 33 
Q 55.609375 28.21875 55.609375 21.1875 
Q 55.609375 10.40625 48.1875 4.484375 
Q 40.765625 -1.421875 27.09375 -1.421875 
Q 22.515625 -1.421875 17.65625 -0.515625 
Q 12.796875 0.390625 7.625 2.203125 
L 7.625 11.71875 
Q 11.71875 9.328125 16.59375 8.109375 
Q 21.484375 6.890625 26.8125 6.890625 
Q 36.078125 6.890625 40.9375 10.546875 
Q 45.796875 14.203125 45.796875 21.1875 
Q 45.796875 27.640625 41.28125 31.265625 
Q 36.765625 34.90625 28.71875 34.90625 
L 20.21875 34.90625 
L 20.21875 43.015625 
L 29.109375 43.015625 
Q 36.375 43.015625 40.234375 45.921875 
Q 44.09375 48.828125 44.09375 54.296875 
Q 44.09375 59.90625 40.109375 62.90625 
Q 36.140625 65.921875 28.71875 65.921875 
Q 24.65625 65.921875 20.015625 65.03125 
Q 15.375 64.15625 9.8125 62.3125 
L 9.8125 71.09375 
Q 15.4375 72.65625 20.34375 73.4375 
Q 25.25 74.21875 29.59375 74.21875 
Q 40.828125 74.21875 47.359375 69.109375 
Q 53.90625 64.015625 53.90625 55.328125 
Q 53.90625 49.265625 50.4375 45.09375 
Q 46.96875 40.921875 40.578125 39.3125 
z
" id="DejaVuSans-33"/>
      </defs>
      <g transform="translate(20.878125 39.526345)scale(0.1 -0.1)">
       <use xlink:href="#DejaVuSans-33"/>
       <use x="63.623047" xlink:href="#DejaVuSans-30"/>
       <use x="127.246094" xlink:href="#DejaVuSans-30"/>
       <use x="190.869141" xlink:href="#DejaVuSans-30"/>
      </g>
     </g>
    </g>
    <g id="text_13">
     <!-- ppmH2O -->
     <defs>
      <path d="M 18.109375 8.203125 
L 18.109375 -20.796875 
L 9.078125 -20.796875 
L 9.078125 54.6875 
L 18.109375 54.6875 
L 18.109375 46.390625 
Q 20.953125 51.265625 25.265625 53.625 
Q 29.59375 56 35.59375 56 
Q 45.5625 56 51.78125 48.09375 
Q 58.015625 40.1875 58.015625 27.296875 
Q 58.015625 14.40625 51.78125 6.484375 
Q 45.5625 -1.421875 35.59375 -1.421875 
Q 29.59375 -1.421875 25.265625 0.953125 
Q 20.953125 3.328125 18.109375 8.203125 
z
M 48.6875 27.296875 
Q 48.6875 37.203125 44.609375 42.84375 
Q 40.53125 48.484375 33.40625 48.484375 
Q 26.265625 48.484375 22.1875 42.84375 
Q 18.109375 37.203125 18.109375 27.296875 
Q 18.109375 17.390625 22.1875 11.75 
Q 26.265625 6.109375 33.40625 6.109375 
Q 40.53125 6.109375 44.609375 11.75 
Q 48.6875 17.390625 48.6875 27.296875 
z
" id="DejaVuSans-70"/>
      <path d="M 9.8125 72.90625 
L 19.671875 72.90625 
L 19.671875 43.015625 
L 55.515625 43.015625 
L 55.515625 72.90625 
L 65.375 72.90625 
L 65.375 0 
L 55.515625 0 
L 55.515625 34.71875 
L 19.671875 34.71875 
L 19.671875 0 
L 9.8125 0 
z
" id="DejaVuSans-48"/>
      <path d="M 39.40625 66.21875 
Q 28.65625 66.21875 22.328125 58.203125 
Q 16.015625 50.203125 16.015625 36.375 
Q 16.015625 22.609375 22.328125 14.59375 
Q 28.65625 6.59375 39.40625 6.59375 
Q 50.140625 6.59375 56.421875 14.59375 
Q 62.703125 22.609375 62.703125 36.375 
Q 62.703125 50.203125 56.421875 58.203125 
Q 50.140625 66.21875 39.40625 66.21875 
z
M 39.40625 74.21875 
Q 54.734375 74.21875 63.90625 63.9375 
Q 73.09375 53.65625 73.09375 36.375 
Q 73.09375 19.140625 63.90625 8.859375 
Q 54.734375 -1.421875 39.40625 -1.421875 
Q 24.03125 -1.421875 14.8125 8.828125 
Q 5.609375 19.09375 5.609375 36.375 
Q 5.609375 53.65625 14.8125 63.9375 
Q 24.03125 74.21875 39.40625 74.21875 
z
" id="DejaVuSans-4f"/>
     </defs>
     <g transform="translate(14.798438 153.134219)rotate(-90)scale(0.1 -0.1)">
      <use xlink:href="#DejaVuSans-70"/>
      <use x="63.476562" xlink:href="#DejaVuSans-70"/>
      <use x="126.953125" xlink:href="#DejaVuSans-6d"/>
      <use x="224.365234" xlink:href="#DejaVuSans-48"/>
      <use x="299.560547" xlink:href="#DejaVuSans-32"/>
      <use x="363.183594" xlink:href="#DejaVuSans-4f"/>
     </g>
    </g>
   </g>
   <g id="line2d_12">
    <path clip-path="url(#p60cb8914c1)" d="M 68.546307 211.191591 
L 68.877139 211.094559 
L 69.279897 210.738997 
L 69.83369 209.896226 
L 70.513947 208.41685 
L 71.421599 205.886278 
L 72.707438 201.61608 
L 75.432038 191.580776 
L 78.960355 178.855298 
L 81.880865 169.180625 
L 84.807224 160.2837 
L 87.65256 152.329523 
L 90.372722 145.307064 
L 93.509999 137.850542 
L 96.647275 131.022724 
L 99.784552 124.768868 
L 102.73814 119.361937 
L 105.691729 114.383514 
L 108.645317 109.799735 
L 111.598906 105.579426 
L 114.552494 101.693831 
L 117.506083 98.116409 
L 121.081153 94.16357 
L 124.656223 90.586664 
L 128.231293 87.349609 
L 132.198041 84.116079 
L 135.812459 81.464979 
L 139.645661 78.929458 
L 143.515333 76.628741 
L 147.317626 74.595285 
L 151.11992 72.763817 
L 156.189645 70.600607 
L 161.25937 68.716713 
L 166.329095 67.074778 
L 171.39882 65.642531 
L 177.735976 64.104999 
L 184.784367 62.672842 
L 191.698259 61.503618 
L 200.049099 60.344822 
L 208.399939 59.409612 
L 218.142586 58.541049 
L 229.27704 57.774525 
L 243.195107 57.066266 
L 259.896788 56.472114 
L 279.382082 56.009932 
L 305.82641 55.621863 
L 341.324303 55.333107 
L 372.742292 55.190092 
L 372.742292 55.190092 
" style="fill:none;stroke:#0000ff;stroke-linecap:square;stroke-width:1.5;"/>
   </g>
   <g id="line2d_13">
    <path clip-path="url(#p60cb8914c1)" d="M 68.546307 211.191591 
L 68.951448 211.082958 
L 69.39311 210.733439 
L 69.96851 209.960315 
L 70.708664 208.512658 
L 71.633856 206.115735 
L 72.744087 202.58229 
L 74.316914 196.772858 
L 77.682209 183.195245 
L 80.913446 170.558395 
L 83.687799 160.610728 
L 86.248741 152.221918 
L 88.70657 144.844306 
L 91.296262 137.722261 
L 93.885954 131.206011 
L 96.318424 125.585876 
L 99.259632 119.376846 
L 102.20084 113.748629 
L 105.142049 108.643921 
L 108.083257 104.012021 
L 110.534264 100.480512 
L 113.483305 96.591546 
L 116.432345 93.060759 
L 119.381386 89.854395 
L 122.330427 86.941953 
L 125.279467 84.295847 
L 128.965768 81.324946 
L 132.652069 78.687731 
L 136.04996 76.519073 
L 139.945343 74.306948 
L 143.335602 72.593374 
L 147.421141 70.759264 
L 151.830694 69.028189 
L 156.73383 67.364843 
L 162.34567 65.748166 
L 167.975888 64.384456 
L 173.606107 63.236068 
L 180.64388 62.049166 
L 187.681653 61.085863 
L 196.12698 60.162082 
L 205.979863 59.329514 
L 217.240299 58.615636 
L 231.315845 57.972113 
L 248.206501 57.439978 
L 270.727374 56.976684 
L 301.693575 56.590616 
L 346.735323 56.277964 
L 372.909943 56.164456 
L 372.909943 56.164456 
" style="fill:none;stroke:#ff0000;stroke-linecap:square;stroke-width:1.5;"/>
   </g>
   <g id="line2d_14">
    <defs>
     <path d="M 0 3 
C 0.795609 3 1.55874 2.683901 2.12132 2.12132 
C 2.683901 1.55874 3 0.795609 3 0 
C 3 -0.795609 2.683901 -1.55874 2.12132 -2.12132 
C 1.55874 -2.683901 0.795609 -3 0 -3 
C -0.795609 -3 -1.55874 -2.683901 -2.12132 -2.12132 
C -2.683901 -1.55874 -3 -0.795609 -3 0 
C -3 0.795609 -2.683901 1.55874 -2.12132 2.12132 
C -1.55874 2.683901 -0.795609 3 0 3 
z
" id="mb1197c976c" style="stroke:#000000;"/>
    </defs>
    <g clip-path="url(#p60cb8914c1)">
     <use style="stroke:#000000;" x="68.546307" xlink:href="#mb1197c976c" y="211.213027"/>
     <use style="stroke:#000000;" x="68.546313" xlink:href="#mb1197c976c" y="211.213027"/>
     <use style="stroke:#000000;" x="68.546333" xlink:href="#mb1197c976c" y="211.213027"/>
     <use style="stroke:#000000;" x="68.546353" xlink:href="#mb1197c976c" y="211.213027"/>
     <use style="stroke:#000000;" x="68.546374" xlink:href="#mb1197c976c" y="211.213027"/>
     <use style="stroke:#000000;" x="68.546405" xlink:href="#mb1197c976c" y="211.213027"/>
     <use style="stroke:#000000;" x="68.546455" xlink:href="#mb1197c976c" y="211.213027"/>
     <use style="stroke:#000000;" x="68.54654" xlink:href="#mb1197c976c" y="211.213027"/>
     <use style="stroke:#000000;" x="68.546688" xlink:href="#mb1197c976c" y="211.213027"/>
     <use style="stroke:#000000;" x="68.546945" xlink:href="#mb1197c976c" y="211.213027"/>
     <use style="stroke:#000000;" x="68.54745" xlink:href="#mb1197c976c" y="211.213027"/>
     <use style="stroke:#000000;" x="68.548279" xlink:href="#mb1197c976c" y="211.213027"/>
     <use style="stroke:#000000;" x="68.549105" xlink:href="#mb1197c976c" y="211.213027"/>
     <use style="stroke:#000000;" x="68.549937" xlink:href="#mb1197c976c" y="211.213027"/>
     <use style="stroke:#000000;" x="68.550754" xlink:href="#mb1197c976c" y="211.213027"/>
     <use style="stroke:#000000;" x="68.551661" xlink:href="#mb1197c976c" y="211.213027"/>
     <use style="stroke:#000000;" x="68.552569" xlink:href="#mb1197c976c" y="211.213027"/>
     <use style="stroke:#000000;" x="68.553476" xlink:href="#mb1197c976c" y="211.213027"/>
     <use style="stroke:#000000;" x="68.55511" xlink:href="#mb1197c976c" y="211.213027"/>
     <use style="stroke:#000000;" x="68.556713" xlink:href="#mb1197c976c" y="211.213027"/>
     <use style="stroke:#000000;" x="68.558317" xlink:href="#mb1197c976c" y="211.213027"/>
     <use style="stroke:#000000;" x="68.55995" xlink:href="#mb1197c976c" y="211.213027"/>
     <use style="stroke:#000000;" x="68.563127" xlink:href="#mb1197c976c" y="211.213027"/>
     <use style="stroke:#000000;" x="68.570387" xlink:href="#mb1197c976c" y="211.213027"/>
     <use style="stroke:#000000;" x="68.577768" xlink:href="#mb1197c976c" y="211.212097"/>
     <use style="stroke:#000000;" x="68.585028" xlink:href="#mb1197c976c" y="211.211167"/>
     <use style="stroke:#000000;" x="68.592289" xlink:href="#mb1197c976c" y="211.211167"/>
     <use style="stroke:#000000;" x="68.599549" xlink:href="#mb1197c976c" y="211.210237"/>
     <use style="stroke:#000000;" x="68.606809" xlink:href="#mb1197c976c" y="211.209307"/>
     <use style="stroke:#000000;" x="68.614977" xlink:href="#mb1197c976c" y="211.207447"/>
     <use style="stroke:#000000;" x="68.623447" xlink:href="#mb1197c976c" y="211.206517"/>
     <use style="stroke:#000000;" x="68.631918" xlink:href="#mb1197c976c" y="211.204657"/>
     <use style="stroke:#000000;" x="68.640086" xlink:href="#mb1197c976c" y="211.202797"/>
     <use style="stroke:#000000;" x="68.648556" xlink:href="#mb1197c976c" y="211.200937"/>
     <use style="stroke:#000000;" x="68.662774" xlink:href="#mb1197c976c" y="211.197217"/>
     <use style="stroke:#000000;" x="68.684858" xlink:href="#mb1197c976c" y="211.190707"/>
     <use style="stroke:#000000;" x="68.706638" xlink:href="#mb1197c976c" y="211.183267"/>
     <use style="stroke:#000000;" x="68.728722" xlink:href="#mb1197c976c" y="211.173968"/>
     <use style="stroke:#000000;" x="68.750503" xlink:href="#mb1197c976c" y="211.164668"/>
     <use style="stroke:#000000;" x="68.772586" xlink:href="#mb1197c976c" y="211.153508"/>
     <use style="stroke:#000000;" x="68.820988" xlink:href="#mb1197c976c" y="211.125608"/>
     <use style="stroke:#000000;" x="68.851844" xlink:href="#mb1197c976c" y="211.105148"/>
     <use style="stroke:#000000;" x="68.885121" xlink:href="#mb1197c976c" y="211.082829"/>
     <use style="stroke:#000000;" x="68.915372" xlink:href="#mb1197c976c" y="211.057719"/>
     <use style="stroke:#000000;" x="68.948648" xlink:href="#mb1197c976c" y="211.030749"/>
     <use style="stroke:#000000;" x="68.9789" xlink:href="#mb1197c976c" y="211.00285"/>
     <use style="stroke:#000000;" x="69.012176" xlink:href="#mb1197c976c" y="210.97216"/>
     <use style="stroke:#000000;" x="69.042427" xlink:href="#mb1197c976c" y="210.939611"/>
     <use style="stroke:#000000;" x="69.072678" xlink:href="#mb1197c976c" y="210.905201"/>
     <use style="stroke:#000000;" x="69.145281" xlink:href="#mb1197c976c" y="210.822432"/>
     <use style="stroke:#000000;" x="69.214859" xlink:href="#mb1197c976c" y="210.731293"/>
     <use style="stroke:#000000;" x="69.263261" xlink:href="#mb1197c976c" y="210.665264"/>
     <use style="stroke:#000000;" x="69.308638" xlink:href="#mb1197c976c" y="210.596445"/>
     <use style="stroke:#000000;" x="69.35704" xlink:href="#mb1197c976c" y="210.523906"/>
     <use style="stroke:#000000;" x="69.405442" xlink:href="#mb1197c976c" y="210.448577"/>
     <use style="stroke:#000000;" x="69.450819" xlink:href="#mb1197c976c" y="210.369528"/>
     <use style="stroke:#000000;" x="69.499221" xlink:href="#mb1197c976c" y="210.286759"/>
     <use style="stroke:#000000;" x="69.544598" xlink:href="#mb1197c976c" y="210.2012"/>
     <use style="stroke:#000000;" x="69.593" xlink:href="#mb1197c976c" y="210.112851"/>
     <use style="stroke:#000000;" x="69.641402" xlink:href="#mb1197c976c" y="210.021713"/>
     <use style="stroke:#000000;" x="69.686779" xlink:href="#mb1197c976c" y="209.927784"/>
     <use style="stroke:#000000;" x="69.735181" xlink:href="#mb1197c976c" y="209.831065"/>
     <use style="stroke:#000000;" x="69.780558" xlink:href="#mb1197c976c" y="209.732486"/>
     <use style="stroke:#000000;" x="69.828959" xlink:href="#mb1197c976c" y="209.630188"/>
     <use style="stroke:#000000;" x="69.877361" xlink:href="#mb1197c976c" y="209.526029"/>
     <use style="stroke:#000000;" x="69.922738" xlink:href="#mb1197c976c" y="209.419081"/>
     <use style="stroke:#000000;" x="69.97114" xlink:href="#mb1197c976c" y="209.310272"/>
     <use style="stroke:#000000;" x="70.016517" xlink:href="#mb1197c976c" y="209.198674"/>
     <use style="stroke:#000000;" x="70.064919" xlink:href="#mb1197c976c" y="209.085215"/>
     <use style="stroke:#000000;" x="70.110296" xlink:href="#mb1197c976c" y="208.968967"/>
     <use style="stroke:#000000;" x="70.158698" xlink:href="#mb1197c976c" y="208.850858"/>
     <use style="stroke:#000000;" x="70.2071" xlink:href="#mb1197c976c" y="208.73182"/>
     <use style="stroke:#000000;" x="70.252477" xlink:href="#mb1197c976c" y="208.609991"/>
     <use style="stroke:#000000;" x="70.300879" xlink:href="#mb1197c976c" y="208.486303"/>
     <use style="stroke:#000000;" x="70.346256" xlink:href="#mb1197c976c" y="208.360755"/>
     <use style="stroke:#000000;" x="70.394658" xlink:href="#mb1197c976c" y="208.233346"/>
     <use style="stroke:#000000;" x="70.44306" xlink:href="#mb1197c976c" y="208.104078"/>
     <use style="stroke:#000000;" x="70.488437" xlink:href="#mb1197c976c" y="207.97388"/>
     <use style="stroke:#000000;" x="70.56104" xlink:href="#mb1197c976c" y="207.773002"/>
     <use style="stroke:#000000;" x="70.630617" xlink:href="#mb1197c976c" y="207.569335"/>
     <use style="stroke:#000000;" x="70.70322" xlink:href="#mb1197c976c" y="207.362878"/>
     <use style="stroke:#000000;" x="70.772798" xlink:href="#mb1197c976c" y="207.1527"/>
     <use style="stroke:#000000;" x="70.845401" xlink:href="#mb1197c976c" y="206.938803"/>
     <use style="stroke:#000000;" x="70.914979" xlink:href="#mb1197c976c" y="206.723046"/>
     <use style="stroke:#000000;" x="70.987582" xlink:href="#mb1197c976c" y="206.504499"/>
     <use style="stroke:#000000;" x="71.05716" xlink:href="#mb1197c976c" y="206.283162"/>
     <use style="stroke:#000000;" x="71.129763" xlink:href="#mb1197c976c" y="206.059035"/>
     <use style="stroke:#000000;" x="71.199341" xlink:href="#mb1197c976c" y="205.833048"/>
     <use style="stroke:#000000;" x="71.271944" xlink:href="#mb1197c976c" y="205.605201"/>
     <use style="stroke:#000000;" x="71.344547" xlink:href="#mb1197c976c" y="205.374564"/>
     <use style="stroke:#000000;" x="71.414125" xlink:href="#mb1197c976c" y="205.142067"/>
     <use style="stroke:#000000;" x="71.486728" xlink:href="#mb1197c976c" y="204.90864"/>
     <use style="stroke:#000000;" x="71.556305" xlink:href="#mb1197c976c" y="204.672423"/>
     <use style="stroke:#000000;" x="71.631934" xlink:href="#mb1197c976c" y="204.435276"/>
     <use style="stroke:#000000;" x="71.692436" xlink:href="#mb1197c976c" y="204.196269"/>
     <use style="stroke:#000000;" x="71.78319" xlink:href="#mb1197c976c" y="203.955403"/>
     <use style="stroke:#000000;" x="71.843692" xlink:href="#mb1197c976c" y="203.713606"/>
     <use style="stroke:#000000;" x="71.904195" xlink:href="#mb1197c976c" y="203.469949"/>
     <use style="stroke:#000000;" x="71.994948" xlink:href="#mb1197c976c" y="203.226292"/>
     <use style="stroke:#000000;" x="72.055451" xlink:href="#mb1197c976c" y="202.980775"/>
     <use style="stroke:#000000;" x="72.115953" xlink:href="#mb1197c976c" y="202.734329"/>
     <use style="stroke:#000000;" x="72.206707" xlink:href="#mb1197c976c" y="202.486952"/>
     <use style="stroke:#000000;" x="72.26721" xlink:href="#mb1197c976c" y="202.238645"/>
     <use style="stroke:#000000;" x="72.327712" xlink:href="#mb1197c976c" y="201.989408"/>
     <use style="stroke:#000000;" x="72.418466" xlink:href="#mb1197c976c" y="201.739242"/>
     <use style="stroke:#000000;" x="72.478968" xlink:href="#mb1197c976c" y="201.489075"/>
     <use style="stroke:#000000;" x="72.539471" xlink:href="#mb1197c976c" y="201.237978"/>
     <use style="stroke:#000000;" x="72.630225" xlink:href="#mb1197c976c" y="200.985952"/>
     <use style="stroke:#000000;" x="72.690727" xlink:href="#mb1197c976c" y="200.733925"/>
     <use style="stroke:#000000;" x="72.781481" xlink:href="#mb1197c976c" y="200.480968"/>
     <use style="stroke:#000000;" x="72.841983" xlink:href="#mb1197c976c" y="200.228012"/>
     <use style="stroke:#000000;" x="72.902486" xlink:href="#mb1197c976c" y="199.974125"/>
     <use style="stroke:#000000;" x="72.993239" xlink:href="#mb1197c976c" y="199.720238"/>
     <use style="stroke:#000000;" x="73.083993" xlink:href="#mb1197c976c" y="199.338013"/>
     <use style="stroke:#000000;" x="73.204998" xlink:href="#mb1197c976c" y="198.955788"/>
     <use style="stroke:#000000;" x="73.295752" xlink:href="#mb1197c976c" y="198.572633"/>
     <use style="stroke:#000000;" x="73.416757" xlink:href="#mb1197c976c" y="198.189478"/>
     <use style="stroke:#000000;" x="73.507511" xlink:href="#mb1197c976c" y="197.806323"/>
     <use style="stroke:#000000;" x="73.628516" xlink:href="#mb1197c976c" y="197.423168"/>
     <use style="stroke:#000000;" x="73.719269" xlink:href="#mb1197c976c" y="197.040014"/>
     <use style="stroke:#000000;" x="73.840274" xlink:href="#mb1197c976c" y="196.656859"/>
     <use style="stroke:#000000;" x="73.931028" xlink:href="#mb1197c976c" y="196.274634"/>
     <use style="stroke:#000000;" x="74.052033" xlink:href="#mb1197c976c" y="195.892409"/>
     <use style="stroke:#000000;" x="74.142787" xlink:href="#mb1197c976c" y="195.510184"/>
     <use style="stroke:#000000;" x="74.263792" xlink:href="#mb1197c976c" y="195.128889"/>
     <use style="stroke:#000000;" x="74.384797" xlink:href="#mb1197c976c" y="194.748524"/>
     <use style="stroke:#000000;" x="74.47555" xlink:href="#mb1197c976c" y="194.368159"/>
     <use style="stroke:#000000;" x="74.596555" xlink:href="#mb1197c976c" y="193.988724"/>
     <use style="stroke:#000000;" x="74.687309" xlink:href="#mb1197c976c" y="193.609289"/>
     <use style="stroke:#000000;" x="74.808314" xlink:href="#mb1197c976c" y="193.231714"/>
     <use style="stroke:#000000;" x="74.899068" xlink:href="#mb1197c976c" y="192.854139"/>
     <use style="stroke:#000000;" x="75.020073" xlink:href="#mb1197c976c" y="192.477494"/>
     <use style="stroke:#000000;" x="75.110826" xlink:href="#mb1197c976c" y="192.101779"/>
     <use style="stroke:#000000;" x="75.231831" xlink:href="#mb1197c976c" y="191.727923"/>
     <use style="stroke:#000000;" x="75.322585" xlink:href="#mb1197c976c" y="191.354068"/>
     <use style="stroke:#000000;" x="75.44359" xlink:href="#mb1197c976c" y="190.981143"/>
     <use style="stroke:#000000;" x="75.534344" xlink:href="#mb1197c976c" y="190.610078"/>
     <use style="stroke:#000000;" x="75.655349" xlink:href="#mb1197c976c" y="190.239013"/>
     <use style="stroke:#000000;" x="75.746102" xlink:href="#mb1197c976c" y="189.869808"/>
     <use style="stroke:#000000;" x="75.867107" xlink:href="#mb1197c976c" y="189.501533"/>
     <use style="stroke:#000000;" x="75.988112" xlink:href="#mb1197c976c" y="189.133258"/>
     <use style="stroke:#000000;" x="76.078866" xlink:href="#mb1197c976c" y="188.767772"/>
     <use style="stroke:#000000;" x="76.199871" xlink:href="#mb1197c976c" y="188.402287"/>
     <use style="stroke:#000000;" x="76.290625" xlink:href="#mb1197c976c" y="188.038662"/>
     <use style="stroke:#000000;" x="76.41163" xlink:href="#mb1197c976c" y="187.675037"/>
     <use style="stroke:#000000;" x="76.502384" xlink:href="#mb1197c976c" y="187.313272"/>
     <use style="stroke:#000000;" x="76.623389" xlink:href="#mb1197c976c" y="186.953366"/>
     <use style="stroke:#000000;" x="76.714142" xlink:href="#mb1197c976c" y="186.593461"/>
     <use style="stroke:#000000;" x="76.835147" xlink:href="#mb1197c976c" y="186.235416"/>
     <use style="stroke:#000000;" x="76.925901" xlink:href="#mb1197c976c" y="185.8783"/>
     <use style="stroke:#000000;" x="77.046906" xlink:href="#mb1197c976c" y="185.522115"/>
     <use style="stroke:#000000;" x="77.13766" xlink:href="#mb1197c976c" y="185.16779"/>
     <use style="stroke:#000000;" x="77.258665" xlink:href="#mb1197c976c" y="184.814394"/>
     <use style="stroke:#000000;" x="77.37967" xlink:href="#mb1197c976c" y="184.461929"/>
     <use style="stroke:#000000;" x="77.470423" xlink:href="#mb1197c976c" y="184.110394"/>
     <use style="stroke:#000000;" x="77.591428" xlink:href="#mb1197c976c" y="183.760718"/>
     <use style="stroke:#000000;" x="77.682182" xlink:href="#mb1197c976c" y="183.411973"/>
     <use style="stroke:#000000;" x="77.803187" xlink:href="#mb1197c976c" y="183.064157"/>
     <use style="stroke:#000000;" x="77.893941" xlink:href="#mb1197c976c" y="182.718202"/>
     <use style="stroke:#000000;" x="78.014946" xlink:href="#mb1197c976c" y="182.373177"/>
     <use style="stroke:#000000;" x="78.105699" xlink:href="#mb1197c976c" y="182.029081"/>
     <use style="stroke:#000000;" x="78.287207" xlink:href="#mb1197c976c" y="181.512938"/>
     <use style="stroke:#000000;" x="78.438463" xlink:href="#mb1197c976c" y="180.999585"/>
     <use style="stroke:#000000;" x="78.589719" xlink:href="#mb1197c976c" y="180.488091"/>
     <use style="stroke:#000000;" x="78.771227" xlink:href="#mb1197c976c" y="179.980318"/>
     <use style="stroke:#000000;" x="78.922483" xlink:href="#mb1197c976c" y="179.474405"/>
     <use style="stroke:#000000;" x="79.073739" xlink:href="#mb1197c976c" y="178.971281"/>
     <use style="stroke:#000000;" x="79.255247" xlink:href="#mb1197c976c" y="178.470948"/>
     <use style="stroke:#000000;" x="79.406503" xlink:href="#mb1197c976c" y="177.973404"/>
     <use style="stroke:#000000;" x="79.557759" xlink:href="#mb1197c976c" y="177.478651"/>
     <use style="stroke:#000000;" x="79.739266" xlink:href="#mb1197c976c" y="176.985757"/>
     <use style="stroke:#000000;" x="79.890523" xlink:href="#mb1197c976c" y="176.495654"/>
     <use style="stroke:#000000;" x="80.041779" xlink:href="#mb1197c976c" y="176.00834"/>
     <use style="stroke:#000000;" x="80.223286" xlink:href="#mb1197c976c" y="175.522887"/>
     <use style="stroke:#000000;" x="80.374543" xlink:href="#mb1197c976c" y="175.041153"/>
     <use style="stroke:#000000;" x="80.525799" xlink:href="#mb1197c976c" y="174.560349"/>
     <use style="stroke:#000000;" x="80.707306" xlink:href="#mb1197c976c" y="174.083266"/>
     <use style="stroke:#000000;" x="80.858562" xlink:href="#mb1197c976c" y="173.608042"/>
     <use style="stroke:#000000;" x="81.009819" xlink:href="#mb1197c976c" y="173.134678"/>
     <use style="stroke:#000000;" x="81.161075" xlink:href="#mb1197c976c" y="172.664104"/>
     <use style="stroke:#000000;" x="81.342582" xlink:href="#mb1197c976c" y="172.196321"/>
     <use style="stroke:#000000;" x="81.493839" xlink:href="#mb1197c976c" y="171.730397"/>
     <use style="stroke:#000000;" x="81.645095" xlink:href="#mb1197c976c" y="171.267263"/>
     <use style="stroke:#000000;" x="81.917356" xlink:href="#mb1197c976c" y="170.568842"/>
     <use style="stroke:#000000;" x="82.159366" xlink:href="#mb1197c976c" y="169.875071"/>
     <use style="stroke:#000000;" x="82.401376" xlink:href="#mb1197c976c" y="169.18595"/>
     <use style="stroke:#000000;" x="82.643386" xlink:href="#mb1197c976c" y="168.503339"/>
     <use style="stroke:#000000;" x="82.885396" xlink:href="#mb1197c976c" y="167.824448"/>
     <use style="stroke:#000000;" x="83.127406" xlink:href="#mb1197c976c" y="167.151137"/>
     <use style="stroke:#000000;" x="83.369416" xlink:href="#mb1197c976c" y="166.483406"/>
     <use style="stroke:#000000;" x="83.611425" xlink:href="#mb1197c976c" y="165.819394"/>
     <use style="stroke:#000000;" x="83.853435" xlink:href="#mb1197c976c" y="165.160963"/>
     <use style="stroke:#000000;" x="84.095445" xlink:href="#mb1197c976c" y="164.507182"/>
     <use style="stroke:#000000;" x="84.337455" xlink:href="#mb1197c976c" y="163.85805"/>
     <use style="stroke:#000000;" x="84.579465" xlink:href="#mb1197c976c" y="163.213569"/>
     <use style="stroke:#000000;" x="84.851726" xlink:href="#mb1197c976c" y="162.573737"/>
     <use style="stroke:#000000;" x="85.093736" xlink:href="#mb1197c976c" y="161.938556"/>
     <use style="stroke:#000000;" x="85.335746" xlink:href="#mb1197c976c" y="161.307094"/>
     <use style="stroke:#000000;" x="85.577756" xlink:href="#mb1197c976c" y="160.681212"/>
     <use style="stroke:#000000;" x="85.819766" xlink:href="#mb1197c976c" y="160.05905"/>
     <use style="stroke:#000000;" x="86.061776" xlink:href="#mb1197c976c" y="159.440608"/>
     <use style="stroke:#000000;" x="86.303786" xlink:href="#mb1197c976c" y="158.827746"/>
     <use style="stroke:#000000;" x="86.545796" xlink:href="#mb1197c976c" y="158.217674"/>
     <use style="stroke:#000000;" x="86.787806" xlink:href="#mb1197c976c" y="157.613182"/>
     <use style="stroke:#000000;" x="87.029816" xlink:href="#mb1197c976c" y="157.01241"/>
     <use style="stroke:#000000;" x="87.271826" xlink:href="#mb1197c976c" y="156.415358"/>
     <use style="stroke:#000000;" x="87.544087" xlink:href="#mb1197c976c" y="155.822026"/>
     <use style="stroke:#000000;" x="87.786097" xlink:href="#mb1197c976c" y="155.233344"/>
     <use style="stroke:#000000;" x="88.028107" xlink:href="#mb1197c976c" y="154.648381"/>
     <use style="stroke:#000000;" x="88.270117" xlink:href="#mb1197c976c" y="154.068069"/>
     <use style="stroke:#000000;" x="88.512127" xlink:href="#mb1197c976c" y="153.490547"/>
     <use style="stroke:#000000;" x="88.754137" xlink:href="#mb1197c976c" y="152.917674"/>
     <use style="stroke:#000000;" x="88.996147" xlink:href="#mb1197c976c" y="152.348522"/>
     <use style="stroke:#000000;" x="89.238157" xlink:href="#mb1197c976c" y="151.783089"/>
     <use style="stroke:#000000;" x="89.480166" xlink:href="#mb1197c976c" y="151.221377"/>
     <use style="stroke:#000000;" x="89.722176" xlink:href="#mb1197c976c" y="150.663384"/>
     <use style="stroke:#000000;" x="89.964186" xlink:href="#mb1197c976c" y="150.109111"/>
     <use style="stroke:#000000;" x="90.206196" xlink:href="#mb1197c976c" y="149.557628"/>
     <use style="stroke:#000000;" x="90.478457" xlink:href="#mb1197c976c" y="149.010796"/>
     <use style="stroke:#000000;" x="90.720467" xlink:href="#mb1197c976c" y="148.466753"/>
     <use style="stroke:#000000;" x="90.962477" xlink:href="#mb1197c976c" y="147.92736"/>
     <use style="stroke:#000000;" x="91.204487" xlink:href="#mb1197c976c" y="147.390757"/>
     <use style="stroke:#000000;" x="91.446497" xlink:href="#mb1197c976c" y="146.856944"/>
     <use style="stroke:#000000;" x="91.688507" xlink:href="#mb1197c976c" y="146.327781"/>
     <use style="stroke:#000000;" x="92.051522" xlink:href="#mb1197c976c" y="145.529851"/>
     <use style="stroke:#000000;" x="92.444788" xlink:href="#mb1197c976c" y="144.739362"/>
     <use style="stroke:#000000;" x="92.807803" xlink:href="#mb1197c976c" y="143.956312"/>
     <use style="stroke:#000000;" x="93.170818" xlink:href="#mb1197c976c" y="143.181632"/>
     <use style="stroke:#000000;" x="93.533833" xlink:href="#mb1197c976c" y="142.414392"/>
     <use style="stroke:#000000;" x="93.927099" xlink:href="#mb1197c976c" y="141.653662"/>
     <use style="stroke:#000000;" x="94.290114" xlink:href="#mb1197c976c" y="140.900372"/>
     <use style="stroke:#000000;" x="94.653129" xlink:href="#mb1197c976c" y="140.154522"/>
     <use style="stroke:#000000;" x="95.016144" xlink:href="#mb1197c976c" y="139.416112"/>
     <use style="stroke:#000000;" x="95.40941" xlink:href="#mb1197c976c" y="138.684212"/>
     <use style="stroke:#000000;" x="95.772425" xlink:href="#mb1197c976c" y="137.959751"/>
     <use style="stroke:#000000;" x="96.13544" xlink:href="#mb1197c976c" y="137.241801"/>
     <use style="stroke:#000000;" x="96.528706" xlink:href="#mb1197c976c" y="136.53036"/>
     <use style="stroke:#000000;" x="96.891721" xlink:href="#mb1197c976c" y="135.826359"/>
     <use style="stroke:#000000;" x="97.254736" xlink:href="#mb1197c976c" y="135.127938"/>
     <use style="stroke:#000000;" x="97.617751" xlink:href="#mb1197c976c" y="134.436957"/>
     <use style="stroke:#000000;" x="98.011017" xlink:href="#mb1197c976c" y="133.751556"/>
     <use style="stroke:#000000;" x="98.374032" xlink:href="#mb1197c976c" y="133.073595"/>
     <use style="stroke:#000000;" x="98.737047" xlink:href="#mb1197c976c" y="132.401214"/>
     <use style="stroke:#000000;" x="99.100062" xlink:href="#mb1197c976c" y="131.735343"/>
     <use style="stroke:#000000;" x="99.402574" xlink:href="#mb1197c976c" y="131.075052"/>
     <use style="stroke:#000000;" x="100.007599" xlink:href="#mb1197c976c" y="130.42127"/>
     <use style="stroke:#000000;" x="100.310111" xlink:href="#mb1197c976c" y="129.773999"/>
     <use style="stroke:#000000;" x="100.612624" xlink:href="#mb1197c976c" y="129.132307"/>
     <use style="stroke:#000000;" x="100.915136" xlink:href="#mb1197c976c" y="128.496196"/>
     <use style="stroke:#000000;" x="101.217648" xlink:href="#mb1197c976c" y="127.866594"/>
     <use style="stroke:#000000;" x="101.822673" xlink:href="#mb1197c976c" y="126.926376"/>
     <use style="stroke:#000000;" x="102.427698" xlink:href="#mb1197c976c" y="125.999179"/>
     <use style="stroke:#000000;" x="103.032723" xlink:href="#mb1197c976c" y="125.085001"/>
     <use style="stroke:#000000;" x="103.637748" xlink:href="#mb1197c976c" y="124.182912"/>
     <use style="stroke:#000000;" x="104.242773" xlink:href="#mb1197c976c" y="123.292914"/>
     <use style="stroke:#000000;" x="104.847798" xlink:href="#mb1197c976c" y="122.415936"/>
     <use style="stroke:#000000;" x="105.15031" xlink:href="#mb1197c976c" y="121.550117"/>
     <use style="stroke:#000000;" x="105.755335" xlink:href="#mb1197c976c" y="120.697318"/>
     <use style="stroke:#000000;" x="106.36036" xlink:href="#mb1197c976c" y="119.854749"/>
     <use style="stroke:#000000;" x="106.965384" xlink:href="#mb1197c976c" y="119.02427"/>
     <use style="stroke:#000000;" x="107.570409" xlink:href="#mb1197c976c" y="118.204951"/>
     <use style="stroke:#000000;" x="108.175434" xlink:href="#mb1197c976c" y="117.396792"/>
     <use style="stroke:#000000;" x="108.780459" xlink:href="#mb1197c976c" y="116.599792"/>
     <use style="stroke:#000000;" x="109.082971" xlink:href="#mb1197c976c" y="115.813953"/>
     <use style="stroke:#000000;" x="109.687996" xlink:href="#mb1197c976c" y="115.038343"/>
     <use style="stroke:#000000;" x="110.293021" xlink:href="#mb1197c976c" y="114.272963"/>
     <use style="stroke:#000000;" x="110.898046" xlink:href="#mb1197c976c" y="113.517813"/>
     <use style="stroke:#000000;" x="111.503071" xlink:href="#mb1197c976c" y="112.772893"/>
     <use style="stroke:#000000;" x="112.108096" xlink:href="#mb1197c976c" y="112.038202"/>
     <use style="stroke:#000000;" x="112.713121" xlink:href="#mb1197c976c" y="111.312812"/>
     <use style="stroke:#000000;" x="113.015633" xlink:href="#mb1197c976c" y="110.597651"/>
     <use style="stroke:#000000;" x="113.620658" xlink:href="#mb1197c976c" y="109.89272"/>
     <use style="stroke:#000000;" x="114.225683" xlink:href="#mb1197c976c" y="109.19616"/>
     <use style="stroke:#000000;" x="114.830707" xlink:href="#mb1197c976c" y="108.509829"/>
     <use style="stroke:#000000;" x="115.435732" xlink:href="#mb1197c976c" y="107.831868"/>
     <use style="stroke:#000000;" x="116.040757" xlink:href="#mb1197c976c" y="107.163206"/>
     <use style="stroke:#000000;" x="116.34327" xlink:href="#mb1197c976c" y="106.503845"/>
     <use style="stroke:#000000;" x="116.948294" xlink:href="#mb1197c976c" y="105.852854"/>
     <use style="stroke:#000000;" x="117.553319" xlink:href="#mb1197c976c" y="105.210232"/>
     <use style="stroke:#000000;" x="118.158344" xlink:href="#mb1197c976c" y="104.57691"/>
     <use style="stroke:#000000;" x="119.065881" xlink:href="#mb1197c976c" y="103.640413"/>
     <use style="stroke:#000000;" x="119.973419" xlink:href="#mb1197c976c" y="102.723445"/>
     <use style="stroke:#000000;" x="120.578444" xlink:href="#mb1197c976c" y="101.825077"/>
     <use style="stroke:#000000;" x="121.485981" xlink:href="#mb1197c976c" y="100.943448"/>
     <use style="stroke:#000000;" x="122.393518" xlink:href="#mb1197c976c" y="100.07949"/>
     <use style="stroke:#000000;" x="123.301055" xlink:href="#mb1197c976c" y="99.233201"/>
     <use style="stroke:#000000;" x="124.208593" xlink:href="#mb1197c976c" y="98.403652"/>
     <use style="stroke:#000000;" x="124.813617" xlink:href="#mb1197c976c" y="97.589912"/>
     <use style="stroke:#000000;" x="125.721155" xlink:href="#mb1197c976c" y="96.792913"/>
     <use style="stroke:#000000;" x="126.628692" xlink:href="#mb1197c976c" y="96.010793"/>
     <use style="stroke:#000000;" x="127.536229" xlink:href="#mb1197c976c" y="95.244483"/>
     <use style="stroke:#000000;" x="128.141254" xlink:href="#mb1197c976c" y="94.493053"/>
     <use style="stroke:#000000;" x="129.048791" xlink:href="#mb1197c976c" y="93.756503"/>
     <use style="stroke:#000000;" x="129.956329" xlink:href="#mb1197c976c" y="93.034832"/>
     <use style="stroke:#000000;" x="130.863866" xlink:href="#mb1197c976c" y="92.326182"/>
     <use style="stroke:#000000;" x="131.771403" xlink:href="#mb1197c976c" y="91.632411"/>
     <use style="stroke:#000000;" x="132.376428" xlink:href="#mb1197c976c" y="90.95166"/>
     <use style="stroke:#000000;" x="133.283965" xlink:href="#mb1197c976c" y="90.284859"/>
     <use style="stroke:#000000;" x="134.191503" xlink:href="#mb1197c976c" y="89.630147"/>
     <use style="stroke:#000000;" x="135.09904" xlink:href="#mb1197c976c" y="88.988456"/>
     <use style="stroke:#000000;" x="136.006577" xlink:href="#mb1197c976c" y="88.359784"/>
     <use style="stroke:#000000;" x="136.700843" xlink:href="#mb1197c976c" y="87.743202"/>
     <use style="stroke:#000000;" x="137.96474" xlink:href="#mb1197c976c" y="86.840184"/>
     <use style="stroke:#000000;" x="139.228334" xlink:href="#mb1197c976c" y="85.963205"/>
     <use style="stroke:#000000;" x="140.492231" xlink:href="#mb1197c976c" y="85.111337"/>
     <use style="stroke:#000000;" x="141.756128" xlink:href="#mb1197c976c" y="84.284578"/>
     <use style="stroke:#000000;" x="143.020025" xlink:href="#mb1197c976c" y="83.481068"/>
     <use style="stroke:#000000;" x="144.283619" xlink:href="#mb1197c976c" y="82.701738"/>
     <use style="stroke:#000000;" x="145.547516" xlink:href="#mb1197c976c" y="81.943798"/>
     <use style="stroke:#000000;" x="146.811413" xlink:href="#mb1197c976c" y="81.208178"/>
     <use style="stroke:#000000;" x="148.07531" xlink:href="#mb1197c976c" y="80.493947"/>
     <use style="stroke:#000000;" x="149.338905" xlink:href="#mb1197c976c" y="79.799247"/>
     <use style="stroke:#000000;" x="150.602801" xlink:href="#mb1197c976c" y="79.125005"/>
     <use style="stroke:#000000;" x="151.866698" xlink:href="#mb1197c976c" y="78.470294"/>
     <use style="stroke:#000000;" x="153.130595" xlink:href="#mb1197c976c" y="77.833252"/>
     <use style="stroke:#000000;" x="154.39419" xlink:href="#mb1197c976c" y="77.214811"/>
     <use style="stroke:#000000;" x="155.658087" xlink:href="#mb1197c976c" y="76.614968"/>
     <use style="stroke:#000000;" x="156.921983" xlink:href="#mb1197c976c" y="76.030936"/>
     <use style="stroke:#000000;" x="158.18588" xlink:href="#mb1197c976c" y="75.463644"/>
     <use style="stroke:#000000;" x="159.449475" xlink:href="#mb1197c976c" y="74.913091"/>
     <use style="stroke:#000000;" x="160.713372" xlink:href="#mb1197c976c" y="74.377418"/>
     <use style="stroke:#000000;" x="161.977269" xlink:href="#mb1197c976c" y="73.856625"/>
     <use style="stroke:#000000;" x="163.241165" xlink:href="#mb1197c976c" y="73.350711"/>
     <use style="stroke:#000000;" x="164.50476" xlink:href="#mb1197c976c" y="72.859678"/>
     <use style="stroke:#000000;" x="165.768657" xlink:href="#mb1197c976c" y="72.381664"/>
     <use style="stroke:#000000;" x="167.032554" xlink:href="#mb1197c976c" y="71.9176"/>
     <use style="stroke:#000000;" x="168.296451" xlink:href="#mb1197c976c" y="71.466556"/>
     <use style="stroke:#000000;" x="169.560045" xlink:href="#mb1197c976c" y="71.027602"/>
     <use style="stroke:#000000;" x="170.823942" xlink:href="#mb1197c976c" y="70.600738"/>
     <use style="stroke:#000000;" x="172.087839" xlink:href="#mb1197c976c" y="70.186893"/>
     <use style="stroke:#000000;" x="173.351736" xlink:href="#mb1197c976c" y="69.783278"/>
     <use style="stroke:#000000;" x="174.61533" xlink:href="#mb1197c976c" y="69.391754"/>
     <use style="stroke:#000000;" x="175.879227" xlink:href="#mb1197c976c" y="69.010459"/>
     <use style="stroke:#000000;" x="177.143124" xlink:href="#mb1197c976c" y="68.640323"/>
     <use style="stroke:#000000;" x="178.406718" xlink:href="#mb1197c976c" y="68.280418"/>
     <use style="stroke:#000000;" x="179.670615" xlink:href="#mb1197c976c" y="67.929813"/>
     <use style="stroke:#000000;" x="180.934512" xlink:href="#mb1197c976c" y="67.589437"/>
     <use style="stroke:#000000;" x="182.198409" xlink:href="#mb1197c976c" y="67.258362"/>
     <use style="stroke:#000000;" x="183.462003" xlink:href="#mb1197c976c" y="66.935656"/>
     <use style="stroke:#000000;" x="184.7259" xlink:href="#mb1197c976c" y="66.62225"/>
     <use style="stroke:#000000;" x="185.989797" xlink:href="#mb1197c976c" y="66.318144"/>
     <use style="stroke:#000000;" x="187.253694" xlink:href="#mb1197c976c" y="66.021478"/>
     <use style="stroke:#000000;" x="188.517288" xlink:href="#mb1197c976c" y="65.733182"/>
     <use style="stroke:#000000;" x="189.781185" xlink:href="#mb1197c976c" y="65.453255"/>
     <use style="stroke:#000000;" x="191.045082" xlink:href="#mb1197c976c" y="65.179839"/>
     <use style="stroke:#000000;" x="192.308979" xlink:href="#mb1197c976c" y="64.914792"/>
     <use style="stroke:#000000;" x="193.572574" xlink:href="#mb1197c976c" y="64.656256"/>
     <use style="stroke:#000000;" x="194.83647" xlink:href="#mb1197c976c" y="64.405159"/>
     <use style="stroke:#000000;" x="196.100367" xlink:href="#mb1197c976c" y="64.160572"/>
     <use style="stroke:#000000;" x="197.364264" xlink:href="#mb1197c976c" y="63.922496"/>
     <use style="stroke:#000000;" x="198.627859" xlink:href="#mb1197c976c" y="63.691859"/>
     <use style="stroke:#000000;" x="199.891756" xlink:href="#mb1197c976c" y="63.465872"/>
     <use style="stroke:#000000;" x="201.155652" xlink:href="#mb1197c976c" y="63.247324"/>
     <use style="stroke:#000000;" x="202.419549" xlink:href="#mb1197c976c" y="63.033427"/>
     <use style="stroke:#000000;" x="203.683144" xlink:href="#mb1197c976c" y="62.82604"/>
     <use style="stroke:#000000;" x="204.947041" xlink:href="#mb1197c976c" y="62.624233"/>
     <use style="stroke:#000000;" x="206.210938" xlink:href="#mb1197c976c" y="62.427075"/>
     <use style="stroke:#000000;" x="207.474834" xlink:href="#mb1197c976c" y="62.235498"/>
     <use style="stroke:#000000;" x="208.738429" xlink:href="#mb1197c976c" y="62.0495"/>
     <use style="stroke:#000000;" x="210.002326" xlink:href="#mb1197c976c" y="61.868153"/>
     <use style="stroke:#000000;" x="211.266223" xlink:href="#mb1197c976c" y="61.691455"/>
     <use style="stroke:#000000;" x="212.53012" xlink:href="#mb1197c976c" y="61.519407"/>
     <use style="stroke:#000000;" x="213.793714" xlink:href="#mb1197c976c" y="61.352009"/>
     <use style="stroke:#000000;" x="215.057611" xlink:href="#mb1197c976c" y="61.189261"/>
     <use style="stroke:#000000;" x="216.321508" xlink:href="#mb1197c976c" y="61.030234"/>
     <use style="stroke:#000000;" x="217.585405" xlink:href="#mb1197c976c" y="60.875856"/>
     <use style="stroke:#000000;" x="218.848999" xlink:href="#mb1197c976c" y="60.725198"/>
     <use style="stroke:#000000;" x="220.112896" xlink:href="#mb1197c976c" y="60.57826"/>
     <use style="stroke:#000000;" x="221.376793" xlink:href="#mb1197c976c" y="60.435971"/>
     <use style="stroke:#000000;" x="222.64069" xlink:href="#mb1197c976c" y="60.296473"/>
     <use style="stroke:#000000;" x="223.904284" xlink:href="#mb1197c976c" y="60.161625"/>
     <use style="stroke:#000000;" x="225.168181" xlink:href="#mb1197c976c" y="60.029567"/>
     <use style="stroke:#000000;" x="226.432078" xlink:href="#mb1197c976c" y="59.901228"/>
     <use style="stroke:#000000;" x="227.695975" xlink:href="#mb1197c976c" y="59.77568"/>
     <use style="stroke:#000000;" x="228.959569" xlink:href="#mb1197c976c" y="59.653852"/>
     <use style="stroke:#000000;" x="230.223466" xlink:href="#mb1197c976c" y="59.534813"/>
     <use style="stroke:#000000;" x="231.487363" xlink:href="#mb1197c976c" y="59.418565"/>
     <use style="stroke:#000000;" x="232.75126" xlink:href="#mb1197c976c" y="59.306036"/>
     <use style="stroke:#000000;" x="234.014854" xlink:href="#mb1197c976c" y="59.196298"/>
     <use style="stroke:#000000;" x="235.278751" xlink:href="#mb1197c976c" y="59.089349"/>
     <use style="stroke:#000000;" x="236.542648" xlink:href="#mb1197c976c" y="58.98519"/>
     <use style="stroke:#000000;" x="237.806545" xlink:href="#mb1197c976c" y="58.882892"/>
     <use style="stroke:#000000;" x="239.070139" xlink:href="#mb1197c976c" y="58.784313"/>
     <use style="stroke:#000000;" x="240.334036" xlink:href="#mb1197c976c" y="58.687594"/>
     <use style="stroke:#000000;" x="241.597933" xlink:href="#mb1197c976c" y="58.592736"/>
     <use style="stroke:#000000;" x="242.861528" xlink:href="#mb1197c976c" y="58.501597"/>
     <use style="stroke:#000000;" x="244.125424" xlink:href="#mb1197c976c" y="58.411388"/>
     <use style="stroke:#000000;" x="245.389321" xlink:href="#mb1197c976c" y="58.324899"/>
     <use style="stroke:#000000;" x="246.653218" xlink:href="#mb1197c976c" y="58.23934"/>
     <use style="stroke:#000000;" x="247.916813" xlink:href="#mb1197c976c" y="58.156571"/>
     <use style="stroke:#000000;" x="249.18071" xlink:href="#mb1197c976c" y="58.075662"/>
     <use style="stroke:#000000;" x="250.444606" xlink:href="#mb1197c976c" y="57.996614"/>
     <use style="stroke:#000000;" x="252.340452" xlink:href="#mb1197c976c" y="57.882225"/>
     <use style="stroke:#000000;" x="254.2366" xlink:href="#mb1197c976c" y="57.771556"/>
     <use style="stroke:#000000;" x="256.132445" xlink:href="#mb1197c976c" y="57.665538"/>
     <use style="stroke:#000000;" x="258.028593" xlink:href="#mb1197c976c" y="57.563239"/>
     <use style="stroke:#000000;" x="259.924438" xlink:href="#mb1197c976c" y="57.464661"/>
     <use style="stroke:#000000;" x="261.820586" xlink:href="#mb1197c976c" y="57.369802"/>
     <use style="stroke:#000000;" x="263.716431" xlink:href="#mb1197c976c" y="57.277733"/>
     <use style="stroke:#000000;" x="265.612579" xlink:href="#mb1197c976c" y="57.189384"/>
     <use style="stroke:#000000;" x="267.508425" xlink:href="#mb1197c976c" y="57.104755"/>
     <use style="stroke:#000000;" x="269.404573" xlink:href="#mb1197c976c" y="57.022916"/>
     <use style="stroke:#000000;" x="271.300418" xlink:href="#mb1197c976c" y="56.943867"/>
     <use style="stroke:#000000;" x="273.196566" xlink:href="#mb1197c976c" y="56.867608"/>
     <use style="stroke:#000000;" x="275.092411" xlink:href="#mb1197c976c" y="56.794139"/>
     <use style="stroke:#000000;" x="276.988559" xlink:href="#mb1197c976c" y="56.72346"/>
     <use style="stroke:#000000;" x="278.884404" xlink:href="#mb1197c976c" y="56.655571"/>
     <use style="stroke:#000000;" x="280.780552" xlink:href="#mb1197c976c" y="56.589542"/>
     <use style="stroke:#000000;" x="282.676398" xlink:href="#mb1197c976c" y="56.525373"/>
     <use style="stroke:#000000;" x="284.572545" xlink:href="#mb1197c976c" y="56.463994"/>
     <use style="stroke:#000000;" x="286.468391" xlink:href="#mb1197c976c" y="56.405404"/>
     <use style="stroke:#000000;" x="288.364539" xlink:href="#mb1197c976c" y="56.348675"/>
     <use style="stroke:#000000;" x="290.260384" xlink:href="#mb1197c976c" y="56.292876"/>
     <use style="stroke:#000000;" x="292.156532" xlink:href="#mb1197c976c" y="56.239867"/>
     <use style="stroke:#000000;" x="294.052377" xlink:href="#mb1197c976c" y="56.188717"/>
     <use style="stroke:#000000;" x="295.948525" xlink:href="#mb1197c976c" y="56.139428"/>
     <use style="stroke:#000000;" x="297.84437" xlink:href="#mb1197c976c" y="56.091069"/>
     <use style="stroke:#000000;" x="299.740518" xlink:href="#mb1197c976c" y="56.045499"/>
     <use style="stroke:#000000;" x="301.636364" xlink:href="#mb1197c976c" y="56.00086"/>
     <use style="stroke:#000000;" x="303.532512" xlink:href="#mb1197c976c" y="55.95715"/>
     <use style="stroke:#000000;" x="305.428357" xlink:href="#mb1197c976c" y="55.915301"/>
     <use style="stroke:#000000;" x="307.324505" xlink:href="#mb1197c976c" y="55.875311"/>
     <use style="stroke:#000000;" x="309.22035" xlink:href="#mb1197c976c" y="55.836252"/>
     <use style="stroke:#000000;" x="311.116498" xlink:href="#mb1197c976c" y="55.799052"/>
     <use style="stroke:#000000;" x="313.012343" xlink:href="#mb1197c976c" y="55.762783"/>
     <use style="stroke:#000000;" x="314.908491" xlink:href="#mb1197c976c" y="55.727443"/>
     <use style="stroke:#000000;" x="316.804337" xlink:href="#mb1197c976c" y="55.693964"/>
     <use style="stroke:#000000;" x="318.700484" xlink:href="#mb1197c976c" y="55.660484"/>
     <use style="stroke:#000000;" x="320.59633" xlink:href="#mb1197c976c" y="55.628865"/>
     <use style="stroke:#000000;" x="322.492478" xlink:href="#mb1197c976c" y="55.598175"/>
     <use style="stroke:#000000;" x="324.388323" xlink:href="#mb1197c976c" y="55.569345"/>
     <use style="stroke:#000000;" x="326.284471" xlink:href="#mb1197c976c" y="55.540516"/>
     <use style="stroke:#000000;" x="328.180316" xlink:href="#mb1197c976c" y="55.512616"/>
     <use style="stroke:#000000;" x="330.076464" xlink:href="#mb1197c976c" y="55.485647"/>
     <use style="stroke:#000000;" x="331.972309" xlink:href="#mb1197c976c" y="55.459607"/>
     <use style="stroke:#000000;" x="333.868457" xlink:href="#mb1197c976c" y="55.434497"/>
     <use style="stroke:#000000;" x="335.764303" xlink:href="#mb1197c976c" y="55.410318"/>
     <use style="stroke:#000000;" x="337.66045" xlink:href="#mb1197c976c" y="55.387068"/>
     <use style="stroke:#000000;" x="339.556296" xlink:href="#mb1197c976c" y="55.363818"/>
     <use style="stroke:#000000;" x="341.452444" xlink:href="#mb1197c976c" y="55.341498"/>
     <use style="stroke:#000000;" x="343.348289" xlink:href="#mb1197c976c" y="55.320109"/>
     <use style="stroke:#000000;" x="345.244437" xlink:href="#mb1197c976c" y="55.299649"/>
     <use style="stroke:#000000;" x="347.140282" xlink:href="#mb1197c976c" y="55.280119"/>
     <use style="stroke:#000000;" x="349.03643" xlink:href="#mb1197c976c" y="55.26059"/>
     <use style="stroke:#000000;" x="350.932275" xlink:href="#mb1197c976c" y="55.24106"/>
     <use style="stroke:#000000;" x="352.828423" xlink:href="#mb1197c976c" y="55.22339"/>
     <use style="stroke:#000000;" x="354.724269" xlink:href="#mb1197c976c" y="55.20572"/>
     <use style="stroke:#000000;" x="356.620417" xlink:href="#mb1197c976c" y="55.18805"/>
     <use style="stroke:#000000;" x="358.516262" xlink:href="#mb1197c976c" y="55.172241"/>
     <use style="stroke:#000000;" x="360.41241" xlink:href="#mb1197c976c" y="55.155501"/>
     <use style="stroke:#000000;" x="362.308255" xlink:href="#mb1197c976c" y="55.140621"/>
     <use style="stroke:#000000;" x="364.204403" xlink:href="#mb1197c976c" y="55.124811"/>
     <use style="stroke:#000000;" x="366.100248" xlink:href="#mb1197c976c" y="55.110861"/>
     <use style="stroke:#000000;" x="367.996396" xlink:href="#mb1197c976c" y="55.095982"/>
     <use style="stroke:#000000;" x="369.892242" xlink:href="#mb1197c976c" y="55.082962"/>
     <use style="stroke:#000000;" x="371.787784" xlink:href="#mb1197c976c" y="55.069012"/>
    </g>
   </g>
   <g id="line2d_15">
    <path clip-path="url(#p60cb8914c1)" d="M 68.546307 188.394906 
L 68.885121 188.294989 
L 69.308638 187.916248 
L 69.828959 187.128943 
L 70.488437 185.717905 
L 71.414125 183.155103 
L 72.690727 178.884314 
L 75.020073 170.118531 
L 79.255247 154.224737 
L 82.159366 144.230489 
L 85.093736 134.960421 
L 88.028107 126.471267 
L 90.962477 118.70509 
L 93.533833 112.445438 
L 96.528706 105.747889 
L 99.402574 99.875111 
L 102.427698 94.233383 
L 105.15031 89.583103 
L 108.175434 84.850486 
L 110.898046 80.952185 
L 114.225683 76.610637 
L 117.553319 72.686513 
L 120.578444 69.44737 
L 124.208593 65.927514 
L 127.536229 63.014005 
L 130.863866 60.37039 
L 134.191503 57.973446 
L 137.96474 55.528032 
L 141.756128 53.337844 
L 145.547516 51.348327 
L 150.602801 49.031201 
L 154.39419 47.469299 
L 160.713372 45.206872 
L 167.032554 43.300527 
L 173.351736 41.701661 
L 178.406718 40.596329 
L 184.7259 39.389839 
L 192.308979 38.188532 
L 201.155652 37.050643 
L 213.793714 35.813834 
L 226.432078 34.896649 
L 236.542648 34.337133 
L 250.444606 33.750374 
L 273.196566 33.120595 
L 299.740518 32.685279 
L 337.66045 32.352382 
L 371.787784 32.23834 
L 371.787784 32.23834 
" style="fill:none;stroke:#0000ff;stroke-dasharray:5.55,2.4;stroke-dashoffset:0;stroke-width:1.5;"/>
   </g>
   <g id="line2d_16">
    <path clip-path="url(#p60cb8914c1)" d="M 68.546307 229.874488 
L 68.885121 229.774501 
L 69.308638 229.397191 
L 69.828959 228.615156 
L 70.488437 227.22456 
L 71.414125 224.72775 
L 72.841983 220.127559 
L 81.342582 191.429772 
L 84.095445 183.376389 
L 87.029816 175.455547 
L 89.964186 168.141425 
L 93.170818 160.767654 
L 96.13544 154.475785 
L 99.402574 148.071087 
L 102.427698 142.599391 
L 105.755335 137.045052 
L 109.082971 131.94888 
L 112.108096 127.676014 
L 115.435732 123.345282 
L 119.065881 119.029089 
L 122.393518 115.418463 
L 125.721155 112.110522 
L 129.048791 109.080565 
L 132.376428 106.314573 
L 136.006577 103.552771 
L 140.492231 100.490004 
L 144.283619 98.184062 
L 149.338905 95.435653 
L 154.39419 93.069327 
L 158.18588 91.483864 
L 164.50476 89.182661 
L 170.823942 87.251965 
L 175.879227 85.935354 
L 180.934512 84.781371 
L 187.253694 83.533869 
L 194.83647 82.292623 
L 202.419549 81.273734 
L 210.002326 80.435193 
L 221.376793 79.459706 
L 235.278751 78.589785 
L 247.916813 78.013774 
L 265.612579 77.450855 
L 288.364539 76.986758 
L 314.908491 76.659592 
L 354.724269 76.390536 
L 371.787784 76.28329 
L 371.787784 76.28329 
" style="fill:none;stroke:#0000ff;stroke-dasharray:5.55,2.4;stroke-dashoffset:0;stroke-width:1.5;"/>
   </g>
   <g id="line2d_17"/>
   <g id="line2d_18"/>
   <g id="line2d_19"/>
   <g id="line2d_20"/>
   <g id="line2d_21"/>
   <g id="line2d_22"/>
   <g id="patch_3">
    <path d="M 53.328125 239.758125 
L 53.328125 22.318125 
" style="fill:none;stroke:#000000;stroke-linecap:square;stroke-linejoin:miter;stroke-width:0.8;"/>
   </g>
   <g id="patch_4">
    <path d="M 388.128125 239.758125 
L 388.128125 22.318125 
" style="fill:none;stroke:#000000;stroke-linecap:square;stroke-linejoin:miter;stroke-width:0.8;"/>
   </g>
   <g id="patch_5">
    <path d="M 53.328125 239.758125 
L 388.128125 239.758125 
" style="fill:none;stroke:#000000;stroke-linecap:square;stroke-linejoin:miter;stroke-width:0.8;"/>
   </g>
   <g id="patch_6">
    <path d="M 53.328125 22.318125 
L 388.128125 22.318125 
" style="fill:none;stroke:#000000;stroke-linecap:square;stroke-linejoin:miter;stroke-width:0.8;"/>
   </g>
   <g id="text_14">
    <!-- Experiment_17 -->
    <defs>
     <path d="M 9.8125 72.90625 
L 55.90625 72.90625 
L 55.90625 64.59375 
L 19.671875 64.59375 
L 19.671875 43.015625 
L 54.390625 43.015625 
L 54.390625 34.71875 
L 19.671875 34.71875 
L 19.671875 8.296875 
L 56.78125 8.296875 
L 56.78125 0 
L 9.8125 0 
z
" id="DejaVuSans-45"/>
     <path d="M 54.890625 54.6875 
L 35.109375 28.078125 
L 55.90625 0 
L 45.3125 0 
L 29.390625 21.484375 
L 13.484375 0 
L 2.875 0 
L 24.125 28.609375 
L 4.6875 54.6875 
L 15.28125 54.6875 
L 29.78125 35.203125 
L 44.28125 54.6875 
z
" id="DejaVuSans-78"/>
     <path d="M 41.109375 46.296875 
Q 39.59375 47.171875 37.8125 47.578125 
Q 36.03125 48 33.890625 48 
Q 26.265625 48 22.1875 43.046875 
Q 18.109375 38.09375 18.109375 28.8125 
L 18.109375 0 
L 9.078125 0 
L 9.078125 54.6875 
L 18.109375 54.6875 
L 18.109375 46.1875 
Q 20.953125 51.171875 25.484375 53.578125 
Q 30.03125 56 36.53125 56 
Q 37.453125 56 38.578125 55.875 
Q 39.703125 55.765625 41.0625 55.515625 
z
" id="DejaVuSans-72"/>
     <path d="M 54.890625 33.015625 
L 54.890625 0 
L 45.90625 0 
L 45.90625 32.71875 
Q 45.90625 40.484375 42.875 44.328125 
Q 39.84375 48.1875 33.796875 48.1875 
Q 26.515625 48.1875 22.3125 43.546875 
Q 18.109375 38.921875 18.109375 30.90625 
L 18.109375 0 
L 9.078125 0 
L 9.078125 54.6875 
L 18.109375 54.6875 
L 18.109375 46.1875 
Q 21.34375 51.125 25.703125 53.5625 
Q 30.078125 56 35.796875 56 
Q 45.21875 56 50.046875 50.171875 
Q 54.890625 44.34375 54.890625 33.015625 
z
" id="DejaVuSans-6e"/>
     <path d="M 18.3125 70.21875 
L 18.3125 54.6875 
L 36.8125 54.6875 
L 36.8125 47.703125 
L 18.3125 47.703125 
L 18.3125 18.015625 
Q 18.3125 11.328125 20.140625 9.421875 
Q 21.96875 7.515625 27.59375 7.515625 
L 36.8125 7.515625 
L 36.8125 0 
L 27.59375 0 
Q 17.1875 0 13.234375 3.875 
Q 9.28125 7.765625 9.28125 18.015625 
L 9.28125 47.703125 
L 2.6875 47.703125 
L 2.6875 54.6875 
L 9.28125 54.6875 
L 9.28125 70.21875 
z
" id="DejaVuSans-74"/>
     <path d="M 50.984375 -16.609375 
L 50.984375 -23.578125 
L -0.984375 -23.578125 
L -0.984375 -16.609375 
z
" id="DejaVuSans-5f"/>
     <path d="M 8.203125 72.90625 
L 55.078125 72.90625 
L 55.078125 68.703125 
L 28.609375 0 
L 18.3125 0 
L 43.21875 64.59375 
L 8.203125 64.59375 
z
" id="DejaVuSans-37"/>
    </defs>
    <g transform="translate(175.425313 16.318125)scale(0.12 -0.12)">
     <use xlink:href="#DejaVuSans-45"/>
     <use x="63.183594" xlink:href="#DejaVuSans-78"/>
     <use x="122.363281" xlink:href="#DejaVuSans-70"/>
     <use x="185.839844" xlink:href="#DejaVuSans-65"/>
     <use x="247.363281" xlink:href="#DejaVuSans-72"/>
     <use x="288.476562" xlink:href="#DejaVuSans-69"/>
     <use x="316.259766" xlink:href="#DejaVuSans-6d"/>
     <use x="413.671875" xlink:href="#DejaVuSans-65"/>
     <use x="475.195312" xlink:href="#DejaVuSans-6e"/>
     <use x="538.574219" xlink:href="#DejaVuSans-74"/>
     <use x="577.783203" xlink:href="#DejaVuSans-5f"/>
     <use x="627.783203" xlink:href="#DejaVuSans-31"/>
     <use x="691.40625" xlink:href="#DejaVuSans-37"/>
    </g>
   </g>
   <g id="legend_1">
    <g id="patch_7">
     <path d="M 125.007812 234.758125 
L 381.128125 234.758125 
Q 383.128125 234.758125 383.128125 232.758125 
L 383.128125 160.345625 
Q 383.128125 158.345625 381.128125 158.345625 
L 125.007812 158.345625 
Q 123.007812 158.345625 123.007812 160.345625 
L 123.007812 232.758125 
Q 123.007812 234.758125 125.007812 234.758125 
z
" style="fill:#ffffff;opacity:0.8;stroke:#cccccc;stroke-linejoin:miter;"/>
    </g>
    <g id="line2d_23">
     <path d="M 127.007812 166.444062 
L 147.007812 166.444062 
" style="fill:none;stroke:#0000ff;stroke-linecap:square;stroke-width:1.5;"/>
    </g>
    <g id="line2d_24"/>
    <g id="text_15">
     <!-- MSI -->
     <defs>
      <path d="M 9.8125 72.90625 
L 24.515625 72.90625 
L 43.109375 23.296875 
L 61.8125 72.90625 
L 76.515625 72.90625 
L 76.515625 0 
L 66.890625 0 
L 66.890625 64.015625 
L 48.09375 14.015625 
L 38.1875 14.015625 
L 19.390625 64.015625 
L 19.390625 0 
L 9.8125 0 
z
" id="DejaVuSans-4d"/>
      <path d="M 53.515625 70.515625 
L 53.515625 60.890625 
Q 47.90625 63.578125 42.921875 64.890625 
Q 37.9375 66.21875 33.296875 66.21875 
Q 25.25 66.21875 20.875 63.09375 
Q 16.5 59.96875 16.5 54.203125 
Q 16.5 49.359375 19.40625 46.890625 
Q 22.3125 44.4375 30.421875 42.921875 
L 36.375 41.703125 
Q 47.40625 39.59375 52.65625 34.296875 
Q 57.90625 29 57.90625 20.125 
Q 57.90625 9.515625 50.796875 4.046875 
Q 43.703125 -1.421875 29.984375 -1.421875 
Q 24.8125 -1.421875 18.96875 -0.25 
Q 13.140625 0.921875 6.890625 3.21875 
L 6.890625 13.375 
Q 12.890625 10.015625 18.65625 8.296875 
Q 24.421875 6.59375 29.984375 6.59375 
Q 38.421875 6.59375 43.015625 9.90625 
Q 47.609375 13.234375 47.609375 19.390625 
Q 47.609375 24.75 44.3125 27.78125 
Q 41.015625 30.8125 33.5 32.328125 
L 27.484375 33.5 
Q 16.453125 35.6875 11.515625 40.375 
Q 6.59375 45.0625 6.59375 53.421875 
Q 6.59375 63.09375 13.40625 68.65625 
Q 20.21875 74.21875 32.171875 74.21875 
Q 37.3125 74.21875 42.625 73.28125 
Q 47.953125 72.359375 53.515625 70.515625 
z
" id="DejaVuSans-53"/>
      <path d="M 9.8125 72.90625 
L 19.671875 72.90625 
L 19.671875 0 
L 9.8125 0 
z
" id="DejaVuSans-49"/>
     </defs>
     <g transform="translate(155.007812 169.944062)scale(0.1 -0.1)">
      <use xlink:href="#DejaVuSans-4d"/>
      <use x="86.279297" xlink:href="#DejaVuSans-53"/>
      <use x="149.755859" xlink:href="#DejaVuSans-49"/>
     </g>
    </g>
    <g id="line2d_25">
     <path d="M 127.007812 181.12375 
L 147.007812 181.12375 
" style="fill:none;stroke:#ff0000;stroke-linecap:square;stroke-width:1.5;"/>
    </g>
    <g id="line2d_26"/>
    <g id="text_16">
     <!-- $\it{A priori}$ model -->
     <defs>
      <path d="M 36.8125 72.90625 
L 48 72.90625 
L 61.53125 0 
L 51.21875 0 
L 48.1875 18.703125 
L 15.375 18.703125 
L 5.078125 0 
L -5.328125 0 
z
M 40.375 63.1875 
L 19.921875 26.90625 
L 46.6875 26.90625 
z
" id="DejaVuSans-Oblique-41"/>
      <path d="M 49.609375 33.6875 
Q 49.609375 40.875 46.484375 44.671875 
Q 43.359375 48.484375 37.5 48.484375 
Q 33.5 48.484375 29.859375 46.4375 
Q 26.21875 44.390625 23.390625 40.484375 
Q 20.609375 36.625 18.9375 31.15625 
Q 17.28125 25.6875 17.28125 20.3125 
Q 17.28125 13.484375 20.40625 9.796875 
Q 23.53125 6.109375 29.296875 6.109375 
Q 33.546875 6.109375 37.1875 8.109375 
Q 40.828125 10.109375 43.40625 13.921875 
Q 46.1875 17.921875 47.890625 23.34375 
Q 49.609375 28.765625 49.609375 33.6875 
z
M 21.78125 46.390625 
Q 25.390625 51.125 30.296875 53.5625 
Q 35.203125 56 41.21875 56 
Q 49.609375 56 54.25 50.5 
Q 58.890625 45.015625 58.890625 35.109375 
Q 58.890625 27 56 19.65625 
Q 53.125 12.3125 47.703125 6.5 
Q 44.09375 2.640625 39.546875 0.609375 
Q 35.015625 -1.421875 29.984375 -1.421875 
Q 24.171875 -1.421875 20.21875 1 
Q 16.265625 3.421875 14.3125 8.203125 
L 8.6875 -20.796875 
L -0.296875 -20.796875 
L 14.40625 54.6875 
L 23.390625 54.6875 
z
" id="DejaVuSans-Oblique-70"/>
      <path d="M 44.578125 46.390625 
Q 43.21875 47.125 41.453125 47.515625 
Q 39.703125 47.90625 37.703125 47.90625 
Q 30.515625 47.90625 25.140625 42.453125 
Q 19.78125 37.015625 18.015625 27.875 
L 12.5 0 
L 3.515625 0 
L 14.203125 54.6875 
L 23.1875 54.6875 
L 21.484375 46.1875 
Q 25.046875 50.921875 30 53.453125 
Q 34.96875 56 40.578125 56 
Q 42.046875 56 43.453125 55.828125 
Q 44.875 55.671875 46.296875 55.28125 
z
" id="DejaVuSans-Oblique-72"/>
      <path d="M 18.3125 75.984375 
L 27.296875 75.984375 
L 25.09375 64.59375 
L 16.109375 64.59375 
z
M 14.203125 54.6875 
L 23.1875 54.6875 
L 12.5 0 
L 3.515625 0 
z
" id="DejaVuSans-Oblique-69"/>
      <path d="M 25.390625 -1.421875 
Q 15.765625 -1.421875 10.171875 4.515625 
Q 4.59375 10.453125 4.59375 20.703125 
Q 4.59375 26.65625 6.515625 32.828125 
Q 8.453125 39.015625 11.53125 43.21875 
Q 16.359375 49.75 22.3125 52.875 
Q 28.265625 56 35.796875 56 
Q 45.125 56 50.859375 50.1875 
Q 56.59375 44.390625 56.59375 35.015625 
Q 56.59375 28.515625 54.6875 22.0625 
Q 52.78125 15.625 49.703125 11.375 
Q 44.921875 4.828125 38.96875 1.703125 
Q 33.015625 -1.421875 25.390625 -1.421875 
z
M 13.921875 21 
Q 13.921875 13.578125 17.015625 9.890625 
Q 20.125 6.203125 26.421875 6.203125 
Q 35.453125 6.203125 41.375 14.078125 
Q 47.3125 21.96875 47.3125 34.078125 
Q 47.3125 41.15625 44.140625 44.765625 
Q 40.96875 48.390625 34.8125 48.390625 
Q 29.734375 48.390625 25.78125 46.015625 
Q 21.828125 43.65625 18.703125 38.8125 
Q 16.40625 35.203125 15.15625 30.5625 
Q 13.921875 25.921875 13.921875 21 
z
" id="DejaVuSans-Oblique-6f"/>
      <path d="M 30.609375 48.390625 
Q 23.390625 48.390625 19.1875 42.75 
Q 14.984375 37.109375 14.984375 27.296875 
Q 14.984375 17.484375 19.15625 11.84375 
Q 23.34375 6.203125 30.609375 6.203125 
Q 37.796875 6.203125 41.984375 11.859375 
Q 46.1875 17.53125 46.1875 27.296875 
Q 46.1875 37.015625 41.984375 42.703125 
Q 37.796875 48.390625 30.609375 48.390625 
z
M 30.609375 56 
Q 42.328125 56 49.015625 48.375 
Q 55.71875 40.765625 55.71875 27.296875 
Q 55.71875 13.875 49.015625 6.21875 
Q 42.328125 -1.421875 30.609375 -1.421875 
Q 18.84375 -1.421875 12.171875 6.21875 
Q 5.515625 13.875 5.515625 27.296875 
Q 5.515625 40.765625 12.171875 48.375 
Q 18.84375 56 30.609375 56 
z
" id="DejaVuSans-6f"/>
      <path d="M 45.40625 46.390625 
L 45.40625 75.984375 
L 54.390625 75.984375 
L 54.390625 0 
L 45.40625 0 
L 45.40625 8.203125 
Q 42.578125 3.328125 38.25 0.953125 
Q 33.9375 -1.421875 27.875 -1.421875 
Q 17.96875 -1.421875 11.734375 6.484375 
Q 5.515625 14.40625 5.515625 27.296875 
Q 5.515625 40.1875 11.734375 48.09375 
Q 17.96875 56 27.875 56 
Q 33.9375 56 38.25 53.625 
Q 42.578125 51.265625 45.40625 46.390625 
z
M 14.796875 27.296875 
Q 14.796875 17.390625 18.875 11.75 
Q 22.953125 6.109375 30.078125 6.109375 
Q 37.203125 6.109375 41.296875 11.75 
Q 45.40625 17.390625 45.40625 27.296875 
Q 45.40625 37.203125 41.296875 42.84375 
Q 37.203125 48.484375 30.078125 48.484375 
Q 22.953125 48.484375 18.875 42.84375 
Q 14.796875 37.203125 14.796875 27.296875 
z
" id="DejaVuSans-64"/>
      <path d="M 9.421875 75.984375 
L 18.40625 75.984375 
L 18.40625 0 
L 9.421875 0 
z
" id="DejaVuSans-6c"/>
     </defs>
     <g transform="translate(155.007812 184.62375)scale(0.1 -0.1)">
      <use transform="translate(0 0.015625)" xlink:href="#DejaVuSans-Oblique-41"/>
      <use transform="translate(68.408203 0.015625)" xlink:href="#DejaVuSans-Oblique-70"/>
      <use transform="translate(131.884766 0.015625)" xlink:href="#DejaVuSans-Oblique-72"/>
      <use transform="translate(172.998047 0.015625)" xlink:href="#DejaVuSans-Oblique-69"/>
      <use transform="translate(200.78125 0.015625)" xlink:href="#DejaVuSans-Oblique-6f"/>
      <use transform="translate(261.962891 0.015625)" xlink:href="#DejaVuSans-Oblique-72"/>
      <use transform="translate(303.076172 0.015625)" xlink:href="#DejaVuSans-Oblique-69"/>
      <use transform="translate(330.859375 0.015625)" xlink:href="#DejaVuSans-20"/>
      <use transform="translate(362.646484 0.015625)" xlink:href="#DejaVuSans-6d"/>
      <use transform="translate(460.058594 0.015625)" xlink:href="#DejaVuSans-6f"/>
      <use transform="translate(521.240234 0.015625)" xlink:href="#DejaVuSans-64"/>
      <use transform="translate(584.716797 0.015625)" xlink:href="#DejaVuSans-65"/>
      <use transform="translate(646.240234 0.015625)" xlink:href="#DejaVuSans-6c"/>
     </g>
    </g>
    <g id="line2d_27"/>
    <g id="line2d_28">
     <g>
      <use style="stroke:#000000;" x="137.007812" xlink:href="#mb1197c976c" y="195.822187"/>
     </g>
    </g>
    <g id="text_17">
     <!-- Experimental Data -->
     <defs>
      <path d="M 34.28125 27.484375 
Q 23.390625 27.484375 19.1875 25 
Q 14.984375 22.515625 14.984375 16.5 
Q 14.984375 11.71875 18.140625 8.90625 
Q 21.296875 6.109375 26.703125 6.109375 
Q 34.1875 6.109375 38.703125 11.40625 
Q 43.21875 16.703125 43.21875 25.484375 
L 43.21875 27.484375 
z
M 52.203125 31.203125 
L 52.203125 0 
L 43.21875 0 
L 43.21875 8.296875 
Q 40.140625 3.328125 35.546875 0.953125 
Q 30.953125 -1.421875 24.3125 -1.421875 
Q 15.921875 -1.421875 10.953125 3.296875 
Q 6 8.015625 6 15.921875 
Q 6 25.140625 12.171875 29.828125 
Q 18.359375 34.515625 30.609375 34.515625 
L 43.21875 34.515625 
L 43.21875 35.40625 
Q 43.21875 41.609375 39.140625 45 
Q 35.0625 48.390625 27.6875 48.390625 
Q 23 48.390625 18.546875 47.265625 
Q 14.109375 46.140625 10.015625 43.890625 
L 10.015625 52.203125 
Q 14.9375 54.109375 19.578125 55.046875 
Q 24.21875 56 28.609375 56 
Q 40.484375 56 46.34375 49.84375 
Q 52.203125 43.703125 52.203125 31.203125 
z
" id="DejaVuSans-61"/>
      <path d="M 19.671875 64.796875 
L 19.671875 8.109375 
L 31.59375 8.109375 
Q 46.6875 8.109375 53.6875 14.9375 
Q 60.6875 21.78125 60.6875 36.53125 
Q 60.6875 51.171875 53.6875 57.984375 
Q 46.6875 64.796875 31.59375 64.796875 
z
M 9.8125 72.90625 
L 30.078125 72.90625 
Q 51.265625 72.90625 61.171875 64.09375 
Q 71.09375 55.28125 71.09375 36.53125 
Q 71.09375 17.671875 61.125 8.828125 
Q 51.171875 0 30.078125 0 
L 9.8125 0 
z
" id="DejaVuSans-44"/>
     </defs>
     <g transform="translate(155.007812 199.322187)scale(0.1 -0.1)">
      <use xlink:href="#DejaVuSans-45"/>
      <use x="63.183594" xlink:href="#DejaVuSans-78"/>
      <use x="122.363281" xlink:href="#DejaVuSans-70"/>
      <use x="185.839844" xlink:href="#DejaVuSans-65"/>
      <use x="247.363281" xlink:href="#DejaVuSans-72"/>
      <use x="288.476562" xlink:href="#DejaVuSans-69"/>
      <use x="316.259766" xlink:href="#DejaVuSans-6d"/>
      <use x="413.671875" xlink:href="#DejaVuSans-65"/>
      <use x="475.195312" xlink:href="#DejaVuSans-6e"/>
      <use x="538.574219" xlink:href="#DejaVuSans-74"/>
      <use x="577.783203" xlink:href="#DejaVuSans-61"/>
      <use x="639.0625" xlink:href="#DejaVuSans-6c"/>
      <use x="666.845703" xlink:href="#DejaVuSans-20"/>
      <use x="698.632812" xlink:href="#DejaVuSans-44"/>
      <use x="775.634766" xlink:href="#DejaVuSans-61"/>
      <use x="836.914062" xlink:href="#DejaVuSans-74"/>
      <use x="876.123047" xlink:href="#DejaVuSans-61"/>
     </g>
    </g>
    <g id="line2d_29">
     <path d="M 127.007812 210.500312 
L 147.007812 210.500312 
" style="fill:none;stroke:#ffffff;stroke-linecap:square;stroke-width:1.5;"/>
    </g>
    <g id="line2d_30"/>
    <g id="text_18">
     <!-- T:1227 -->
     <defs>
      <path d="M 11.71875 12.40625 
L 22.015625 12.40625 
L 22.015625 0 
L 11.71875 0 
z
M 11.71875 51.703125 
L 22.015625 51.703125 
L 22.015625 39.3125 
L 11.71875 39.3125 
z
" id="DejaVuSans-3a"/>
     </defs>
     <g transform="translate(155.007812 214.000312)scale(0.1 -0.1)">
      <use xlink:href="#DejaVuSans-54"/>
      <use x="60.912109" xlink:href="#DejaVuSans-3a"/>
      <use x="94.603516" xlink:href="#DejaVuSans-31"/>
      <use x="158.226562" xlink:href="#DejaVuSans-32"/>
      <use x="221.849609" xlink:href="#DejaVuSans-32"/>
      <use x="285.472656" xlink:href="#DejaVuSans-37"/>
     </g>
    </g>
    <g id="line2d_31">
     <path d="M 127.007812 225.178437 
L 147.007812 225.178437 
" style="fill:none;stroke:#ffffff;stroke-linecap:square;stroke-width:1.5;"/>
    </g>
    <g id="line2d_32"/>
    <g id="text_19">
     <!-- P:1.558 -->
     <defs>
      <path d="M 19.671875 64.796875 
L 19.671875 37.40625 
L 32.078125 37.40625 
Q 38.96875 37.40625 42.71875 40.96875 
Q 46.484375 44.53125 46.484375 51.125 
Q 46.484375 57.671875 42.71875 61.234375 
Q 38.96875 64.796875 32.078125 64.796875 
z
M 9.8125 72.90625 
L 32.078125 72.90625 
Q 44.34375 72.90625 50.609375 67.359375 
Q 56.890625 61.8125 56.890625 51.125 
Q 56.890625 40.328125 50.609375 34.8125 
Q 44.34375 29.296875 32.078125 29.296875 
L 19.671875 29.296875 
L 19.671875 0 
L 9.8125 0 
z
" id="DejaVuSans-50"/>
     </defs>
     <g transform="translate(155.007812 228.678437)scale(0.1 -0.1)">
      <use xlink:href="#DejaVuSans-50"/>
      <use x="60.302734" xlink:href="#DejaVuSans-3a"/>
      <use x="93.994141" xlink:href="#DejaVuSans-31"/>
      <use x="157.617188" xlink:href="#DejaVuSans-2e"/>
      <use x="189.404297" xlink:href="#DejaVuSans-35"/>
      <use x="253.027344" xlink:href="#DejaVuSans-35"/>
      <use x="316.650391" xlink:href="#DejaVuSans-38"/>
     </g>
    </g>
    <g id="line2d_33">
     <path d="M 268.748438 166.444062 
L 288.748438 166.444062 
" style="fill:none;stroke:#ffffff;stroke-linecap:square;stroke-width:1.5;"/>
    </g>
    <g id="line2d_34"/>
    <g id="text_20">
     <!-- H2O2: 0.001696 -->
     <defs>
      <path d="M 10.984375 1.515625 
L 10.984375 10.5 
Q 14.703125 8.734375 18.5 7.8125 
Q 22.3125 6.890625 25.984375 6.890625 
Q 35.75 6.890625 40.890625 13.453125 
Q 46.046875 20.015625 46.78125 33.40625 
Q 43.953125 29.203125 39.59375 26.953125 
Q 35.25 24.703125 29.984375 24.703125 
Q 19.046875 24.703125 12.671875 31.3125 
Q 6.296875 37.9375 6.296875 49.421875 
Q 6.296875 60.640625 12.9375 67.421875 
Q 19.578125 74.21875 30.609375 74.21875 
Q 43.265625 74.21875 49.921875 64.515625 
Q 56.59375 54.828125 56.59375 36.375 
Q 56.59375 19.140625 48.40625 8.859375 
Q 40.234375 -1.421875 26.421875 -1.421875 
Q 22.703125 -1.421875 18.890625 -0.6875 
Q 15.09375 0.046875 10.984375 1.515625 
z
M 30.609375 32.421875 
Q 37.25 32.421875 41.125 36.953125 
Q 45.015625 41.5 45.015625 49.421875 
Q 45.015625 57.28125 41.125 61.84375 
Q 37.25 66.40625 30.609375 66.40625 
Q 23.96875 66.40625 20.09375 61.84375 
Q 16.21875 57.28125 16.21875 49.421875 
Q 16.21875 41.5 20.09375 36.953125 
Q 23.96875 32.421875 30.609375 32.421875 
z
" id="DejaVuSans-39"/>
     </defs>
     <g transform="translate(296.748438 169.944062)scale(0.1 -0.1)">
      <use xlink:href="#DejaVuSans-48"/>
      <use x="75.195312" xlink:href="#DejaVuSans-32"/>
      <use x="138.818359" xlink:href="#DejaVuSans-4f"/>
      <use x="217.529297" xlink:href="#DejaVuSans-32"/>
      <use x="281.152344" xlink:href="#DejaVuSans-3a"/>
      <use x="314.84375" xlink:href="#DejaVuSans-20"/>
      <use x="346.630859" xlink:href="#DejaVuSans-30"/>
      <use x="410.253906" xlink:href="#DejaVuSans-2e"/>
      <use x="442.041016" xlink:href="#DejaVuSans-30"/>
      <use x="505.664062" xlink:href="#DejaVuSans-30"/>
      <use x="569.287109" xlink:href="#DejaVuSans-31"/>
      <use x="632.910156" xlink:href="#DejaVuSans-36"/>
      <use x="696.533203" xlink:href="#DejaVuSans-39"/>
      <use x="760.15625" xlink:href="#DejaVuSans-36"/>
     </g>
    </g>
    <g id="line2d_35">
     <path d="M 268.748438 181.122187 
L 288.748438 181.122187 
" style="fill:none;stroke:#ffffff;stroke-linecap:square;stroke-width:1.5;"/>
    </g>
    <g id="line2d_36"/>
    <g id="text_21">
     <!-- H2O: 0.001113 -->
     <g transform="translate(296.748438 184.622187)scale(0.1 -0.1)">
      <use xlink:href="#DejaVuSans-48"/>
      <use x="75.195312" xlink:href="#DejaVuSans-32"/>
      <use x="138.818359" xlink:href="#DejaVuSans-4f"/>
      <use x="217.513672" xlink:href="#DejaVuSans-3a"/>
      <use x="251.205078" xlink:href="#DejaVuSans-20"/>
      <use x="282.992188" xlink:href="#DejaVuSans-30"/>
      <use x="346.615234" xlink:href="#DejaVuSans-2e"/>
      <use x="378.402344" xlink:href="#DejaVuSans-30"/>
      <use x="442.025391" xlink:href="#DejaVuSans-30"/>
      <use x="505.648438" xlink:href="#DejaVuSans-31"/>
      <use x="569.271484" xlink:href="#DejaVuSans-31"/>
      <use x="632.894531" xlink:href="#DejaVuSans-31"/>
      <use x="696.517578" xlink:href="#DejaVuSans-33"/>
     </g>
    </g>
    <g id="line2d_37">
     <path d="M 268.748438 195.800312 
L 288.748438 195.800312 
" style="fill:none;stroke:#ffffff;stroke-linecap:square;stroke-width:1.5;"/>
    </g>
    <g id="line2d_38"/>
    <g id="text_22">
     <!-- O2: 0.000556 -->
     <g transform="translate(296.748438 199.300312)scale(0.1 -0.1)">
      <use xlink:href="#DejaVuSans-4f"/>
      <use x="78.710938" xlink:href="#DejaVuSans-32"/>
      <use x="142.333984" xlink:href="#DejaVuSans-3a"/>
      <use x="176.025391" xlink:href="#DejaVuSans-20"/>
      <use x="207.8125" xlink:href="#DejaVuSans-30"/>
      <use x="271.435547" xlink:href="#DejaVuSans-2e"/>
      <use x="303.222656" xlink:href="#DejaVuSans-30"/>
      <use x="366.845703" xlink:href="#DejaVuSans-30"/>
      <use x="430.46875" xlink:href="#DejaVuSans-30"/>
      <use x="494.091797" xlink:href="#DejaVuSans-35"/>
      <use x="557.714844" xlink:href="#DejaVuSans-35"/>
      <use x="621.337891" xlink:href="#DejaVuSans-36"/>
     </g>
    </g>
    <g id="line2d_39">
     <path d="M 268.748438 210.478437 
L 288.748438 210.478437 
" style="fill:none;stroke:#ffffff;stroke-linecap:square;stroke-width:1.5;"/>
    </g>
    <g id="line2d_40"/>
    <g id="text_23">
     <!-- Ar: 0.996401 -->
     <defs>
      <path d="M 34.1875 63.1875 
L 20.796875 26.90625 
L 47.609375 26.90625 
z
M 28.609375 72.90625 
L 39.796875 72.90625 
L 67.578125 0 
L 57.328125 0 
L 50.6875 18.703125 
L 17.828125 18.703125 
L 11.1875 0 
L 0.78125 0 
z
" id="DejaVuSans-41"/>
     </defs>
     <g transform="translate(296.748438 213.978437)scale(0.1 -0.1)">
      <use xlink:href="#DejaVuSans-41"/>
      <use x="68.408203" xlink:href="#DejaVuSans-72"/>
      <use x="109.505859" xlink:href="#DejaVuSans-3a"/>
      <use x="143.197266" xlink:href="#DejaVuSans-20"/>
      <use x="174.984375" xlink:href="#DejaVuSans-30"/>
      <use x="238.607422" xlink:href="#DejaVuSans-2e"/>
      <use x="270.394531" xlink:href="#DejaVuSans-39"/>
      <use x="334.017578" xlink:href="#DejaVuSans-39"/>
      <use x="397.640625" xlink:href="#DejaVuSans-36"/>
      <use x="461.263672" xlink:href="#DejaVuSans-34"/>
      <use x="524.886719" xlink:href="#DejaVuSans-30"/>
      <use x="588.509766" xlink:href="#DejaVuSans-31"/>
     </g>
    </g>
   </g>
  </g>
 </g>
 <defs>
  <clipPath id="p60cb8914c1">
   <rect height="217.44" width="334.8" x="53.328125" y="22.318125"/>
  </clipPath>
 </defs>
</svg>
