<?xml version="1.0" encoding="utf-8" standalone="no"?>
<!DOCTYPE svg PUBLIC "-//W3C//DTD SVG 1.1//EN"
  "http://www.w3.org/Graphics/SVG/1.1/DTD/svg11.dtd">
<!-- Created with matplotlib (http://matplotlib.org/) -->
<svg height="277pt" version="1.1" viewBox="0 0 395 277" width="395pt" xmlns="http://www.w3.org/2000/svg" xmlns:xlink="http://www.w3.org/1999/xlink">
 <defs>
  <style type="text/css">
*{stroke-linecap:butt;stroke-linejoin:round;}
  </style>
 </defs>
 <g id="figure_1">
  <g id="patch_1">
   <path d="M 0 277.314375 
L 395.64375 277.314375 
L 395.64375 0 
L 0 0 
z
" style="fill:none;"/>
  </g>
  <g id="axes_1">
   <g id="patch_2">
    <path d="M 50.14375 239.758125 
L 384.94375 239.758125 
L 384.94375 22.318125 
L 50.14375 22.318125 
z
" style="fill:none;"/>
   </g>
   <g id="matplotlib.axis_1">
    <g id="xtick_1">
     <g id="line2d_1">
      <defs>
       <path d="M 0 0 
L 0 3.5 
" id="mfc52b248a8" style="stroke:#000000;stroke-width:0.8;"/>
      </defs>
      <g>
       <use style="stroke:#000000;stroke-width:0.8;" x="65.361932" xlink:href="#mfc52b248a8" y="239.758125"/>
      </g>
     </g>
     <g id="text_1">
      <!-- 0.00 -->
      <defs>
       <path d="M 31.78125 66.40625 
Q 24.171875 66.40625 20.328125 58.90625 
Q 16.5 51.421875 16.5 36.375 
Q 16.5 21.390625 20.328125 13.890625 
Q 24.171875 6.390625 31.78125 6.390625 
Q 39.453125 6.390625 43.28125 13.890625 
Q 47.125 21.390625 47.125 36.375 
Q 47.125 51.421875 43.28125 58.90625 
Q 39.453125 66.40625 31.78125 66.40625 
z
M 31.78125 74.21875 
Q 44.046875 74.21875 50.515625 64.515625 
Q 56.984375 54.828125 56.984375 36.375 
Q 56.984375 17.96875 50.515625 8.265625 
Q 44.046875 -1.421875 31.78125 -1.421875 
Q 19.53125 -1.421875 13.0625 8.265625 
Q 6.59375 17.96875 6.59375 36.375 
Q 6.59375 54.828125 13.0625 64.515625 
Q 19.53125 74.21875 31.78125 74.21875 
z
" id="DejaVuSans-30"/>
       <path d="M 10.6875 12.40625 
L 21 12.40625 
L 21 0 
L 10.6875 0 
z
" id="DejaVuSans-2e"/>
      </defs>
      <g transform="translate(54.229119 254.356562)scale(0.1 -0.1)">
       <use xlink:href="#DejaVuSans-30"/>
       <use x="63.623047" xlink:href="#DejaVuSans-2e"/>
       <use x="95.410156" xlink:href="#DejaVuSans-30"/>
       <use x="159.033203" xlink:href="#DejaVuSans-30"/>
      </g>
     </g>
    </g>
    <g id="xtick_2">
     <g id="line2d_2">
      <g>
       <use style="stroke:#000000;stroke-width:0.8;" x="102.813747" xlink:href="#mfc52b248a8" y="239.758125"/>
      </g>
     </g>
     <g id="text_2">
      <!-- 0.25 -->
      <defs>
       <path d="M 19.1875 8.296875 
L 53.609375 8.296875 
L 53.609375 0 
L 7.328125 0 
L 7.328125 8.296875 
Q 12.9375 14.109375 22.625 23.890625 
Q 32.328125 33.6875 34.8125 36.53125 
Q 39.546875 41.84375 41.421875 45.53125 
Q 43.3125 49.21875 43.3125 52.78125 
Q 43.3125 58.59375 39.234375 62.25 
Q 35.15625 65.921875 28.609375 65.921875 
Q 23.96875 65.921875 18.8125 64.3125 
Q 13.671875 62.703125 7.8125 59.421875 
L 7.8125 69.390625 
Q 13.765625 71.78125 18.9375 73 
Q 24.125 74.21875 28.421875 74.21875 
Q 39.75 74.21875 46.484375 68.546875 
Q 53.21875 62.890625 53.21875 53.421875 
Q 53.21875 48.921875 51.53125 44.890625 
Q 49.859375 40.875 45.40625 35.40625 
Q 44.1875 33.984375 37.640625 27.21875 
Q 31.109375 20.453125 19.1875 8.296875 
z
" id="DejaVuSans-32"/>
       <path d="M 10.796875 72.90625 
L 49.515625 72.90625 
L 49.515625 64.59375 
L 19.828125 64.59375 
L 19.828125 46.734375 
Q 21.96875 47.46875 24.109375 47.828125 
Q 26.265625 48.1875 28.421875 48.1875 
Q 40.625 48.1875 47.75 41.5 
Q 54.890625 34.8125 54.890625 23.390625 
Q 54.890625 11.625 47.5625 5.09375 
Q 40.234375 -1.421875 26.90625 -1.421875 
Q 22.3125 -1.421875 17.546875 -0.640625 
Q 12.796875 0.140625 7.71875 1.703125 
L 7.71875 11.625 
Q 12.109375 9.234375 16.796875 8.0625 
Q 21.484375 6.890625 26.703125 6.890625 
Q 35.15625 6.890625 40.078125 11.328125 
Q 45.015625 15.765625 45.015625 23.390625 
Q 45.015625 31 40.078125 35.4375 
Q 35.15625 39.890625 26.703125 39.890625 
Q 22.75 39.890625 18.8125 39.015625 
Q 14.890625 38.140625 10.796875 36.28125 
z
" id="DejaVuSans-35"/>
      </defs>
      <g transform="translate(91.680935 254.356562)scale(0.1 -0.1)">
       <use xlink:href="#DejaVuSans-30"/>
       <use x="63.623047" xlink:href="#DejaVuSans-2e"/>
       <use x="95.410156" xlink:href="#DejaVuSans-32"/>
       <use x="159.033203" xlink:href="#DejaVuSans-35"/>
      </g>
     </g>
    </g>
    <g id="xtick_3">
     <g id="line2d_3">
      <g>
       <use style="stroke:#000000;stroke-width:0.8;" x="140.265562" xlink:href="#mfc52b248a8" y="239.758125"/>
      </g>
     </g>
     <g id="text_3">
      <!-- 0.50 -->
      <g transform="translate(129.13275 254.356562)scale(0.1 -0.1)">
       <use xlink:href="#DejaVuSans-30"/>
       <use x="63.623047" xlink:href="#DejaVuSans-2e"/>
       <use x="95.410156" xlink:href="#DejaVuSans-35"/>
       <use x="159.033203" xlink:href="#DejaVuSans-30"/>
      </g>
     </g>
    </g>
    <g id="xtick_4">
     <g id="line2d_4">
      <g>
       <use style="stroke:#000000;stroke-width:0.8;" x="177.717378" xlink:href="#mfc52b248a8" y="239.758125"/>
      </g>
     </g>
     <g id="text_4">
      <!-- 0.75 -->
      <defs>
       <path d="M 8.203125 72.90625 
L 55.078125 72.90625 
L 55.078125 68.703125 
L 28.609375 0 
L 18.3125 0 
L 43.21875 64.59375 
L 8.203125 64.59375 
z
" id="DejaVuSans-37"/>
      </defs>
      <g transform="translate(166.584565 254.356562)scale(0.1 -0.1)">
       <use xlink:href="#DejaVuSans-30"/>
       <use x="63.623047" xlink:href="#DejaVuSans-2e"/>
       <use x="95.410156" xlink:href="#DejaVuSans-37"/>
       <use x="159.033203" xlink:href="#DejaVuSans-35"/>
      </g>
     </g>
    </g>
    <g id="xtick_5">
     <g id="line2d_5">
      <g>
       <use style="stroke:#000000;stroke-width:0.8;" x="215.169193" xlink:href="#mfc52b248a8" y="239.758125"/>
      </g>
     </g>
     <g id="text_5">
      <!-- 1.00 -->
      <defs>
       <path d="M 12.40625 8.296875 
L 28.515625 8.296875 
L 28.515625 63.921875 
L 10.984375 60.40625 
L 10.984375 69.390625 
L 28.421875 72.90625 
L 38.28125 72.90625 
L 38.28125 8.296875 
L 54.390625 8.296875 
L 54.390625 0 
L 12.40625 0 
z
" id="DejaVuSans-31"/>
      </defs>
      <g transform="translate(204.03638 254.356562)scale(0.1 -0.1)">
       <use xlink:href="#DejaVuSans-31"/>
       <use x="63.623047" xlink:href="#DejaVuSans-2e"/>
       <use x="95.410156" xlink:href="#DejaVuSans-30"/>
       <use x="159.033203" xlink:href="#DejaVuSans-30"/>
      </g>
     </g>
    </g>
    <g id="xtick_6">
     <g id="line2d_6">
      <g>
       <use style="stroke:#000000;stroke-width:0.8;" x="252.621008" xlink:href="#mfc52b248a8" y="239.758125"/>
      </g>
     </g>
     <g id="text_6">
      <!-- 1.25 -->
      <g transform="translate(241.488196 254.356562)scale(0.1 -0.1)">
       <use xlink:href="#DejaVuSans-31"/>
       <use x="63.623047" xlink:href="#DejaVuSans-2e"/>
       <use x="95.410156" xlink:href="#DejaVuSans-32"/>
       <use x="159.033203" xlink:href="#DejaVuSans-35"/>
      </g>
     </g>
    </g>
    <g id="xtick_7">
     <g id="line2d_7">
      <g>
       <use style="stroke:#000000;stroke-width:0.8;" x="290.072824" xlink:href="#mfc52b248a8" y="239.758125"/>
      </g>
     </g>
     <g id="text_7">
      <!-- 1.50 -->
      <g transform="translate(278.940011 254.356562)scale(0.1 -0.1)">
       <use xlink:href="#DejaVuSans-31"/>
       <use x="63.623047" xlink:href="#DejaVuSans-2e"/>
       <use x="95.410156" xlink:href="#DejaVuSans-35"/>
       <use x="159.033203" xlink:href="#DejaVuSans-30"/>
      </g>
     </g>
    </g>
    <g id="xtick_8">
     <g id="line2d_8">
      <g>
       <use style="stroke:#000000;stroke-width:0.8;" x="327.524639" xlink:href="#mfc52b248a8" y="239.758125"/>
      </g>
     </g>
     <g id="text_8">
      <!-- 1.75 -->
      <g transform="translate(316.391826 254.356562)scale(0.1 -0.1)">
       <use xlink:href="#DejaVuSans-31"/>
       <use x="63.623047" xlink:href="#DejaVuSans-2e"/>
       <use x="95.410156" xlink:href="#DejaVuSans-37"/>
       <use x="159.033203" xlink:href="#DejaVuSans-35"/>
      </g>
     </g>
    </g>
    <g id="xtick_9">
     <g id="line2d_9">
      <g>
       <use style="stroke:#000000;stroke-width:0.8;" x="364.976454" xlink:href="#mfc52b248a8" y="239.758125"/>
      </g>
     </g>
     <g id="text_9">
      <!-- 2.00 -->
      <g transform="translate(353.843642 254.356562)scale(0.1 -0.1)">
       <use xlink:href="#DejaVuSans-32"/>
       <use x="63.623047" xlink:href="#DejaVuSans-2e"/>
       <use x="95.410156" xlink:href="#DejaVuSans-30"/>
       <use x="159.033203" xlink:href="#DejaVuSans-30"/>
      </g>
     </g>
    </g>
    <g id="text_10">
     <!-- Time (ms) -->
     <defs>
      <path d="M -0.296875 72.90625 
L 61.375 72.90625 
L 61.375 64.59375 
L 35.5 64.59375 
L 35.5 0 
L 25.59375 0 
L 25.59375 64.59375 
L -0.296875 64.59375 
z
" id="DejaVuSans-54"/>
      <path d="M 9.421875 54.6875 
L 18.40625 54.6875 
L 18.40625 0 
L 9.421875 0 
z
M 9.421875 75.984375 
L 18.40625 75.984375 
L 18.40625 64.59375 
L 9.421875 64.59375 
z
" id="DejaVuSans-69"/>
      <path d="M 52 44.1875 
Q 55.375 50.25 60.0625 53.125 
Q 64.75 56 71.09375 56 
Q 79.640625 56 84.28125 50.015625 
Q 88.921875 44.046875 88.921875 33.015625 
L 88.921875 0 
L 79.890625 0 
L 79.890625 32.71875 
Q 79.890625 40.578125 77.09375 44.375 
Q 74.3125 48.1875 68.609375 48.1875 
Q 61.625 48.1875 57.5625 43.546875 
Q 53.515625 38.921875 53.515625 30.90625 
L 53.515625 0 
L 44.484375 0 
L 44.484375 32.71875 
Q 44.484375 40.625 41.703125 44.40625 
Q 38.921875 48.1875 33.109375 48.1875 
Q 26.21875 48.1875 22.15625 43.53125 
Q 18.109375 38.875 18.109375 30.90625 
L 18.109375 0 
L 9.078125 0 
L 9.078125 54.6875 
L 18.109375 54.6875 
L 18.109375 46.1875 
Q 21.1875 51.21875 25.484375 53.609375 
Q 29.78125 56 35.6875 56 
Q 41.65625 56 45.828125 52.96875 
Q 50 49.953125 52 44.1875 
z
" id="DejaVuSans-6d"/>
      <path d="M 56.203125 29.59375 
L 56.203125 25.203125 
L 14.890625 25.203125 
Q 15.484375 15.921875 20.484375 11.0625 
Q 25.484375 6.203125 34.421875 6.203125 
Q 39.59375 6.203125 44.453125 7.46875 
Q 49.3125 8.734375 54.109375 11.28125 
L 54.109375 2.78125 
Q 49.265625 0.734375 44.1875 -0.34375 
Q 39.109375 -1.421875 33.890625 -1.421875 
Q 20.796875 -1.421875 13.15625 6.1875 
Q 5.515625 13.8125 5.515625 26.8125 
Q 5.515625 40.234375 12.765625 48.109375 
Q 20.015625 56 32.328125 56 
Q 43.359375 56 49.78125 48.890625 
Q 56.203125 41.796875 56.203125 29.59375 
z
M 47.21875 32.234375 
Q 47.125 39.59375 43.09375 43.984375 
Q 39.0625 48.390625 32.421875 48.390625 
Q 24.90625 48.390625 20.390625 44.140625 
Q 15.875 39.890625 15.1875 32.171875 
z
" id="DejaVuSans-65"/>
      <path id="DejaVuSans-20"/>
      <path d="M 31 75.875 
Q 24.46875 64.65625 21.28125 53.65625 
Q 18.109375 42.671875 18.109375 31.390625 
Q 18.109375 20.125 21.3125 9.0625 
Q 24.515625 -2 31 -13.1875 
L 23.1875 -13.1875 
Q 15.875 -1.703125 12.234375 9.375 
Q 8.59375 20.453125 8.59375 31.390625 
Q 8.59375 42.28125 12.203125 53.3125 
Q 15.828125 64.359375 23.1875 75.875 
z
" id="DejaVuSans-28"/>
      <path d="M 44.28125 53.078125 
L 44.28125 44.578125 
Q 40.484375 46.53125 36.375 47.5 
Q 32.28125 48.484375 27.875 48.484375 
Q 21.1875 48.484375 17.84375 46.4375 
Q 14.5 44.390625 14.5 40.28125 
Q 14.5 37.15625 16.890625 35.375 
Q 19.28125 33.59375 26.515625 31.984375 
L 29.59375 31.296875 
Q 39.15625 29.25 43.1875 25.515625 
Q 47.21875 21.78125 47.21875 15.09375 
Q 47.21875 7.46875 41.1875 3.015625 
Q 35.15625 -1.421875 24.609375 -1.421875 
Q 20.21875 -1.421875 15.453125 -0.5625 
Q 10.6875 0.296875 5.421875 2 
L 5.421875 11.28125 
Q 10.40625 8.6875 15.234375 7.390625 
Q 20.0625 6.109375 24.8125 6.109375 
Q 31.15625 6.109375 34.5625 8.28125 
Q 37.984375 10.453125 37.984375 14.40625 
Q 37.984375 18.0625 35.515625 20.015625 
Q 33.0625 21.96875 24.703125 23.78125 
L 21.578125 24.515625 
Q 13.234375 26.265625 9.515625 29.90625 
Q 5.8125 33.546875 5.8125 39.890625 
Q 5.8125 47.609375 11.28125 51.796875 
Q 16.75 56 26.8125 56 
Q 31.78125 56 36.171875 55.265625 
Q 40.578125 54.546875 44.28125 53.078125 
z
" id="DejaVuSans-73"/>
      <path d="M 8.015625 75.875 
L 15.828125 75.875 
Q 23.140625 64.359375 26.78125 53.3125 
Q 30.421875 42.28125 30.421875 31.390625 
Q 30.421875 20.453125 26.78125 9.375 
Q 23.140625 -1.703125 15.828125 -13.1875 
L 8.015625 -13.1875 
Q 14.5 -2 17.703125 9.0625 
Q 20.90625 20.125 20.90625 31.390625 
Q 20.90625 42.671875 17.703125 53.65625 
Q 14.5 64.65625 8.015625 75.875 
z
" id="DejaVuSans-29"/>
     </defs>
     <g transform="translate(192.190625 268.034687)scale(0.1 -0.1)">
      <use xlink:href="#DejaVuSans-54"/>
      <use x="61.037109" xlink:href="#DejaVuSans-69"/>
      <use x="88.820312" xlink:href="#DejaVuSans-6d"/>
      <use x="186.232422" xlink:href="#DejaVuSans-65"/>
      <use x="247.755859" xlink:href="#DejaVuSans-20"/>
      <use x="279.542969" xlink:href="#DejaVuSans-28"/>
      <use x="318.556641" xlink:href="#DejaVuSans-6d"/>
      <use x="415.96875" xlink:href="#DejaVuSans-73"/>
      <use x="468.068359" xlink:href="#DejaVuSans-29"/>
     </g>
    </g>
   </g>
   <g id="matplotlib.axis_2">
    <g id="ytick_1">
     <g id="line2d_10">
      <defs>
       <path d="M 0 0 
L -3.5 0 
" id="m04985bd245" style="stroke:#000000;stroke-width:0.8;"/>
      </defs>
      <g>
       <use style="stroke:#000000;stroke-width:0.8;" x="50.14375" xlink:href="#m04985bd245" y="228.262139"/>
      </g>
     </g>
     <g id="text_11">
      <!-- 0.25 -->
      <g transform="translate(20.878125 232.061358)scale(0.1 -0.1)">
       <use xlink:href="#DejaVuSans-30"/>
       <use x="63.623047" xlink:href="#DejaVuSans-2e"/>
       <use x="95.410156" xlink:href="#DejaVuSans-32"/>
       <use x="159.033203" xlink:href="#DejaVuSans-35"/>
      </g>
     </g>
    </g>
    <g id="ytick_2">
     <g id="line2d_11">
      <g>
       <use style="stroke:#000000;stroke-width:0.8;" x="50.14375" xlink:href="#m04985bd245" y="182.233484"/>
      </g>
     </g>
     <g id="text_12">
      <!-- 0.30 -->
      <defs>
       <path d="M 40.578125 39.3125 
Q 47.65625 37.796875 51.625 33 
Q 55.609375 28.21875 55.609375 21.1875 
Q 55.609375 10.40625 48.1875 4.484375 
Q 40.765625 -1.421875 27.09375 -1.421875 
Q 22.515625 -1.421875 17.65625 -0.515625 
Q 12.796875 0.390625 7.625 2.203125 
L 7.625 11.71875 
Q 11.71875 9.328125 16.59375 8.109375 
Q 21.484375 6.890625 26.8125 6.890625 
Q 36.078125 6.890625 40.9375 10.546875 
Q 45.796875 14.203125 45.796875 21.1875 
Q 45.796875 27.640625 41.28125 31.265625 
Q 36.765625 34.90625 28.71875 34.90625 
L 20.21875 34.90625 
L 20.21875 43.015625 
L 29.109375 43.015625 
Q 36.375 43.015625 40.234375 45.921875 
Q 44.09375 48.828125 44.09375 54.296875 
Q 44.09375 59.90625 40.109375 62.90625 
Q 36.140625 65.921875 28.71875 65.921875 
Q 24.65625 65.921875 20.015625 65.03125 
Q 15.375 64.15625 9.8125 62.3125 
L 9.8125 71.09375 
Q 15.4375 72.65625 20.34375 73.4375 
Q 25.25 74.21875 29.59375 74.21875 
Q 40.828125 74.21875 47.359375 69.109375 
Q 53.90625 64.015625 53.90625 55.328125 
Q 53.90625 49.265625 50.4375 45.09375 
Q 46.96875 40.921875 40.578125 39.3125 
z
" id="DejaVuSans-33"/>
      </defs>
      <g transform="translate(20.878125 186.032702)scale(0.1 -0.1)">
       <use xlink:href="#DejaVuSans-30"/>
       <use x="63.623047" xlink:href="#DejaVuSans-2e"/>
       <use x="95.410156" xlink:href="#DejaVuSans-33"/>
       <use x="159.033203" xlink:href="#DejaVuSans-30"/>
      </g>
     </g>
    </g>
    <g id="ytick_3">
     <g id="line2d_12">
      <g>
       <use style="stroke:#000000;stroke-width:0.8;" x="50.14375" xlink:href="#m04985bd245" y="136.204828"/>
      </g>
     </g>
     <g id="text_13">
      <!-- 0.35 -->
      <g transform="translate(20.878125 140.004047)scale(0.1 -0.1)">
       <use xlink:href="#DejaVuSans-30"/>
       <use x="63.623047" xlink:href="#DejaVuSans-2e"/>
       <use x="95.410156" xlink:href="#DejaVuSans-33"/>
       <use x="159.033203" xlink:href="#DejaVuSans-35"/>
      </g>
     </g>
    </g>
    <g id="ytick_4">
     <g id="line2d_13">
      <g>
       <use style="stroke:#000000;stroke-width:0.8;" x="50.14375" xlink:href="#m04985bd245" y="90.176172"/>
      </g>
     </g>
     <g id="text_14">
      <!-- 0.40 -->
      <defs>
       <path d="M 37.796875 64.3125 
L 12.890625 25.390625 
L 37.796875 25.390625 
z
M 35.203125 72.90625 
L 47.609375 72.90625 
L 47.609375 25.390625 
L 58.015625 25.390625 
L 58.015625 17.1875 
L 47.609375 17.1875 
L 47.609375 0 
L 37.796875 0 
L 37.796875 17.1875 
L 4.890625 17.1875 
L 4.890625 26.703125 
z
" id="DejaVuSans-34"/>
      </defs>
      <g transform="translate(20.878125 93.975391)scale(0.1 -0.1)">
       <use xlink:href="#DejaVuSans-30"/>
       <use x="63.623047" xlink:href="#DejaVuSans-2e"/>
       <use x="95.410156" xlink:href="#DejaVuSans-34"/>
       <use x="159.033203" xlink:href="#DejaVuSans-30"/>
      </g>
     </g>
    </g>
    <g id="ytick_5">
     <g id="line2d_14">
      <g>
       <use style="stroke:#000000;stroke-width:0.8;" x="50.14375" xlink:href="#m04985bd245" y="44.147517"/>
      </g>
     </g>
     <g id="text_15">
      <!-- 0.45 -->
      <g transform="translate(20.878125 47.946736)scale(0.1 -0.1)">
       <use xlink:href="#DejaVuSans-30"/>
       <use x="63.623047" xlink:href="#DejaVuSans-2e"/>
       <use x="95.410156" xlink:href="#DejaVuSans-34"/>
       <use x="159.033203" xlink:href="#DejaVuSans-35"/>
      </g>
     </g>
    </g>
    <g id="text_16">
     <!-- Absorbance215 -->
     <defs>
      <path d="M 34.1875 63.1875 
L 20.796875 26.90625 
L 47.609375 26.90625 
z
M 28.609375 72.90625 
L 39.796875 72.90625 
L 67.578125 0 
L 57.328125 0 
L 50.6875 18.703125 
L 17.828125 18.703125 
L 11.1875 0 
L 0.78125 0 
z
" id="DejaVuSans-41"/>
      <path d="M 48.6875 27.296875 
Q 48.6875 37.203125 44.609375 42.84375 
Q 40.53125 48.484375 33.40625 48.484375 
Q 26.265625 48.484375 22.1875 42.84375 
Q 18.109375 37.203125 18.109375 27.296875 
Q 18.109375 17.390625 22.1875 11.75 
Q 26.265625 6.109375 33.40625 6.109375 
Q 40.53125 6.109375 44.609375 11.75 
Q 48.6875 17.390625 48.6875 27.296875 
z
M 18.109375 46.390625 
Q 20.953125 51.265625 25.265625 53.625 
Q 29.59375 56 35.59375 56 
Q 45.5625 56 51.78125 48.09375 
Q 58.015625 40.1875 58.015625 27.296875 
Q 58.015625 14.40625 51.78125 6.484375 
Q 45.5625 -1.421875 35.59375 -1.421875 
Q 29.59375 -1.421875 25.265625 0.953125 
Q 20.953125 3.328125 18.109375 8.203125 
L 18.109375 0 
L 9.078125 0 
L 9.078125 75.984375 
L 18.109375 75.984375 
z
" id="DejaVuSans-62"/>
      <path d="M 30.609375 48.390625 
Q 23.390625 48.390625 19.1875 42.75 
Q 14.984375 37.109375 14.984375 27.296875 
Q 14.984375 17.484375 19.15625 11.84375 
Q 23.34375 6.203125 30.609375 6.203125 
Q 37.796875 6.203125 41.984375 11.859375 
Q 46.1875 17.53125 46.1875 27.296875 
Q 46.1875 37.015625 41.984375 42.703125 
Q 37.796875 48.390625 30.609375 48.390625 
z
M 30.609375 56 
Q 42.328125 56 49.015625 48.375 
Q 55.71875 40.765625 55.71875 27.296875 
Q 55.71875 13.875 49.015625 6.21875 
Q 42.328125 -1.421875 30.609375 -1.421875 
Q 18.84375 -1.421875 12.171875 6.21875 
Q 5.515625 13.875 5.515625 27.296875 
Q 5.515625 40.765625 12.171875 48.375 
Q 18.84375 56 30.609375 56 
z
" id="DejaVuSans-6f"/>
      <path d="M 41.109375 46.296875 
Q 39.59375 47.171875 37.8125 47.578125 
Q 36.03125 48 33.890625 48 
Q 26.265625 48 22.1875 43.046875 
Q 18.109375 38.09375 18.109375 28.8125 
L 18.109375 0 
L 9.078125 0 
L 9.078125 54.6875 
L 18.109375 54.6875 
L 18.109375 46.1875 
Q 20.953125 51.171875 25.484375 53.578125 
Q 30.03125 56 36.53125 56 
Q 37.453125 56 38.578125 55.875 
Q 39.703125 55.765625 41.0625 55.515625 
z
" id="DejaVuSans-72"/>
      <path d="M 34.28125 27.484375 
Q 23.390625 27.484375 19.1875 25 
Q 14.984375 22.515625 14.984375 16.5 
Q 14.984375 11.71875 18.140625 8.90625 
Q 21.296875 6.109375 26.703125 6.109375 
Q 34.1875 6.109375 38.703125 11.40625 
Q 43.21875 16.703125 43.21875 25.484375 
L 43.21875 27.484375 
z
M 52.203125 31.203125 
L 52.203125 0 
L 43.21875 0 
L 43.21875 8.296875 
Q 40.140625 3.328125 35.546875 0.953125 
Q 30.953125 -1.421875 24.3125 -1.421875 
Q 15.921875 -1.421875 10.953125 3.296875 
Q 6 8.015625 6 15.921875 
Q 6 25.140625 12.171875 29.828125 
Q 18.359375 34.515625 30.609375 34.515625 
L 43.21875 34.515625 
L 43.21875 35.40625 
Q 43.21875 41.609375 39.140625 45 
Q 35.0625 48.390625 27.6875 48.390625 
Q 23 48.390625 18.546875 47.265625 
Q 14.109375 46.140625 10.015625 43.890625 
L 10.015625 52.203125 
Q 14.9375 54.109375 19.578125 55.046875 
Q 24.21875 56 28.609375 56 
Q 40.484375 56 46.34375 49.84375 
Q 52.203125 43.703125 52.203125 31.203125 
z
" id="DejaVuSans-61"/>
      <path d="M 54.890625 33.015625 
L 54.890625 0 
L 45.90625 0 
L 45.90625 32.71875 
Q 45.90625 40.484375 42.875 44.328125 
Q 39.84375 48.1875 33.796875 48.1875 
Q 26.515625 48.1875 22.3125 43.546875 
Q 18.109375 38.921875 18.109375 30.90625 
L 18.109375 0 
L 9.078125 0 
L 9.078125 54.6875 
L 18.109375 54.6875 
L 18.109375 46.1875 
Q 21.34375 51.125 25.703125 53.5625 
Q 30.078125 56 35.796875 56 
Q 45.21875 56 50.046875 50.171875 
Q 54.890625 44.34375 54.890625 33.015625 
z
" id="DejaVuSans-6e"/>
      <path d="M 48.78125 52.59375 
L 48.78125 44.1875 
Q 44.96875 46.296875 41.140625 47.34375 
Q 37.3125 48.390625 33.40625 48.390625 
Q 24.65625 48.390625 19.8125 42.84375 
Q 14.984375 37.3125 14.984375 27.296875 
Q 14.984375 17.28125 19.8125 11.734375 
Q 24.65625 6.203125 33.40625 6.203125 
Q 37.3125 6.203125 41.140625 7.25 
Q 44.96875 8.296875 48.78125 10.40625 
L 48.78125 2.09375 
Q 45.015625 0.34375 40.984375 -0.53125 
Q 36.96875 -1.421875 32.421875 -1.421875 
Q 20.0625 -1.421875 12.78125 6.34375 
Q 5.515625 14.109375 5.515625 27.296875 
Q 5.515625 40.671875 12.859375 48.328125 
Q 20.21875 56 33.015625 56 
Q 37.15625 56 41.109375 55.140625 
Q 45.0625 54.296875 48.78125 52.59375 
z
" id="DejaVuSans-63"/>
     </defs>
     <g transform="translate(14.798438 170.12875)rotate(-90)scale(0.1 -0.1)">
      <use xlink:href="#DejaVuSans-41"/>
      <use x="68.408203" xlink:href="#DejaVuSans-62"/>
      <use x="131.884766" xlink:href="#DejaVuSans-73"/>
      <use x="183.984375" xlink:href="#DejaVuSans-6f"/>
      <use x="245.166016" xlink:href="#DejaVuSans-72"/>
      <use x="286.279297" xlink:href="#DejaVuSans-62"/>
      <use x="349.755859" xlink:href="#DejaVuSans-61"/>
      <use x="411.035156" xlink:href="#DejaVuSans-6e"/>
      <use x="474.414062" xlink:href="#DejaVuSans-63"/>
      <use x="529.394531" xlink:href="#DejaVuSans-65"/>
      <use x="590.917969" xlink:href="#DejaVuSans-32"/>
      <use x="654.541016" xlink:href="#DejaVuSans-31"/>
      <use x="718.164062" xlink:href="#DejaVuSans-35"/>
     </g>
    </g>
   </g>
   <g id="line2d_15">
    <defs>
     <path d="M 0 3 
C 0.795609 3 1.55874 2.683901 2.12132 2.12132 
C 2.683901 1.55874 3 0.795609 3 0 
C 3 -0.795609 2.683901 -1.55874 2.12132 -2.12132 
C 1.55874 -2.683901 0.795609 -3 0 -3 
C -0.795609 -3 -1.55874 -2.683901 -2.12132 -2.12132 
C -2.683901 -1.55874 -3 -0.795609 -3 0 
C -3 0.795609 -2.683901 1.55874 -2.12132 2.12132 
C -1.55874 2.683901 -0.795609 3 0 3 
z
" id="maa61303640" style="stroke:#000000;"/>
    </defs>
    <g clip-path="url(#p644cb372fb)">
     <use style="stroke:#000000;" x="66.136136" xlink:href="#maa61303640" y="133.443109"/>
     <use style="stroke:#000000;" x="67.297442" xlink:href="#maa61303640" y="133.443109"/>
     <use style="stroke:#000000;" x="67.684544" xlink:href="#maa61303640" y="127.91967"/>
     <use style="stroke:#000000;" x="67.684544" xlink:href="#maa61303640" y="123.316804"/>
     <use style="stroke:#000000;" x="69.620053" xlink:href="#maa61303640" y="119.634512"/>
     <use style="stroke:#000000;" x="70.007155" xlink:href="#maa61303640" y="116.872793"/>
     <use style="stroke:#000000;" x="71.555563" xlink:href="#maa61303640" y="115.031646"/>
     <use style="stroke:#000000;" x="72.329767" xlink:href="#maa61303640" y="104.905342"/>
     <use style="stroke:#000000;" x="75.039481" xlink:href="#maa61303640" y="104.905342"/>
     <use style="stroke:#000000;" x="75.426583" xlink:href="#maa61303640" y="94.779038"/>
     <use style="stroke:#000000;" x="77.362093" xlink:href="#maa61303640" y="94.779038"/>
     <use style="stroke:#000000;" x="79.684555" xlink:href="#maa61303640" y="85.573307"/>
     <use style="stroke:#000000;" x="82.007166" xlink:href="#maa61303640" y="86.49388"/>
     <use style="stroke:#000000;" x="83.942676" xlink:href="#maa61303640" y="81.891014"/>
     <use style="stroke:#000000;" x="85.878186" xlink:href="#maa61303640" y="75.447003"/>
     <use style="stroke:#000000;" x="87.813696" xlink:href="#maa61303640" y="80.049868"/>
     <use style="stroke:#000000;" x="88.5879" xlink:href="#maa61303640" y="77.288149"/>
     <use style="stroke:#000000;" x="89.749206" xlink:href="#maa61303640" y="60.717833"/>
     <use style="stroke:#000000;" x="90.52341" xlink:href="#maa61303640" y="77.288149"/>
     <use style="stroke:#000000;" x="93.233123" xlink:href="#maa61303640" y="65.320698"/>
     <use style="stroke:#000000;" x="93.233123" xlink:href="#maa61303640" y="71.76471"/>
     <use style="stroke:#000000;" x="95.555735" xlink:href="#maa61303640" y="61.638406"/>
     <use style="stroke:#000000;" x="97.104143" xlink:href="#maa61303640" y="71.76471"/>
     <use style="stroke:#000000;" x="99.426605" xlink:href="#maa61303640" y="65.320698"/>
     <use style="stroke:#000000;" x="99.426605" xlink:href="#maa61303640" y="69.002991"/>
     <use style="stroke:#000000;" x="102.136319" xlink:href="#maa61303640" y="60.717833"/>
     <use style="stroke:#000000;" x="104.071828" xlink:href="#maa61303640" y="69.002991"/>
     <use style="stroke:#000000;" x="105.233134" xlink:href="#maa61303640" y="58.876687"/>
     <use style="stroke:#000000;" x="106.39444" xlink:href="#maa61303640" y="69.002991"/>
     <use style="stroke:#000000;" x="109.878358" xlink:href="#maa61303640" y="69.002991"/>
     <use style="stroke:#000000;" x="113.362276" xlink:href="#maa61303640" y="67.161845"/>
     <use style="stroke:#000000;" x="115.684887" xlink:href="#maa61303640" y="71.76471"/>
     <use style="stroke:#000000;" x="119.942859" xlink:href="#maa61303640" y="69.002991"/>
     <use style="stroke:#000000;" x="121.104165" xlink:href="#maa61303640" y="75.447003"/>
     <use style="stroke:#000000;" x="125.748789" xlink:href="#maa61303640" y="69.923564"/>
     <use style="stroke:#000000;" x="129.619809" xlink:href="#maa61303640" y="78.208722"/>
     <use style="stroke:#000000;" x="132.717823" xlink:href="#maa61303640" y="73.605856"/>
     <use style="stroke:#000000;" x="133.490829" xlink:href="#maa61303640" y="80.049868"/>
     <use style="stroke:#000000;" x="136.975346" xlink:href="#maa61303640" y="75.447003"/>
     <use style="stroke:#000000;" x="137.361848" xlink:href="#maa61303640" y="83.732161"/>
     <use style="stroke:#000000;" x="140.846365" xlink:href="#maa61303640" y="80.049868"/>
     <use style="stroke:#000000;" x="144.717385" xlink:href="#maa61303640" y="83.732161"/>
     <use style="stroke:#000000;" x="145.103887" xlink:href="#maa61303640" y="75.447003"/>
     <use style="stroke:#000000;" x="147.813901" xlink:href="#maa61303640" y="83.732161"/>
     <use style="stroke:#000000;" x="152.459424" xlink:href="#maa61303640" y="80.049868"/>
     <use style="stroke:#000000;" x="154.006933" xlink:href="#maa61303640" y="88.335026"/>
     <use style="stroke:#000000;" x="155.942443" xlink:href="#maa61303640" y="81.891014"/>
     <use style="stroke:#000000;" x="156.716946" xlink:href="#maa61303640" y="90.176172"/>
     <use style="stroke:#000000;" x="160.975967" xlink:href="#maa61303640" y="85.573307"/>
     <use style="stroke:#000000;" x="163.684482" xlink:href="#maa61303640" y="92.017319"/>
     <use style="stroke:#000000;" x="166.007993" xlink:href="#maa61303640" y="90.176172"/>
     <use style="stroke:#000000;" x="167.943503" xlink:href="#maa61303640" y="94.779038"/>
     <use style="stroke:#000000;" x="170.653516" xlink:href="#maa61303640" y="90.176172"/>
     <use style="stroke:#000000;" x="172.975528" xlink:href="#maa61303640" y="93.858465"/>
     <use style="stroke:#000000;" x="176.460045" xlink:href="#maa61303640" y="88.335026"/>
     <use style="stroke:#000000;" x="177.233051" xlink:href="#maa61303640" y="96.620184"/>
     <use style="stroke:#000000;" x="183.427581" xlink:href="#maa61303640" y="94.779038"/>
     <use style="stroke:#000000;" x="184.97509" xlink:href="#maa61303640" y="104.905342"/>
     <use style="stroke:#000000;" x="188.84611" xlink:href="#maa61303640" y="98.46133"/>
     <use style="stroke:#000000;" x="193.878136" xlink:href="#maa61303640" y="102.143623"/>
     <use style="stroke:#000000;" x="199.298162" xlink:href="#maa61303640" y="103.064196"/>
     <use style="stroke:#000000;" x="203.943685" xlink:href="#maa61303640" y="108.587635"/>
     <use style="stroke:#000000;" x="209.750215" xlink:href="#maa61303640" y="106.746488"/>
     <use style="stroke:#000000;" x="213.233234" xlink:href="#maa61303640" y="104.905342"/>
     <use style="stroke:#000000;" x="215.168744" xlink:href="#maa61303640" y="110.428781"/>
     <use style="stroke:#000000;" x="218.266758" xlink:href="#maa61303640" y="110.428781"/>
     <use style="stroke:#000000;" x="223.685286" xlink:href="#maa61303640" y="113.1905"/>
     <use style="stroke:#000000;" x="230.652822" xlink:href="#maa61303640" y="121.475658"/>
     <use style="stroke:#000000;" x="236.847352" xlink:href="#maa61303640" y="119.634512"/>
     <use style="stroke:#000000;" x="240.330371" xlink:href="#maa61303640" y="119.634512"/>
     <use style="stroke:#000000;" x="245.362397" xlink:href="#maa61303640" y="131.601962"/>
     <use style="stroke:#000000;" x="249.233417" xlink:href="#maa61303640" y="126.999097"/>
     <use style="stroke:#000000;" x="252.717934" xlink:href="#maa61303640" y="133.443109"/>
     <use style="stroke:#000000;" x="258.524463" xlink:href="#maa61303640" y="135.284255"/>
     <use style="stroke:#000000;" x="262.007482" xlink:href="#maa61303640" y="144.489986"/>
     <use style="stroke:#000000;" x="269.363018" xlink:href="#maa61303640" y="150.013425"/>
     <use style="stroke:#000000;" x="275.55605" xlink:href="#maa61303640" y="154.61629"/>
     <use style="stroke:#000000;" x="284.072593" xlink:href="#maa61303640" y="166.583741"/>
     <use style="stroke:#000000;" x="286.782607" xlink:href="#maa61303640" y="164.742594"/>
     <use style="stroke:#000000;" x="291.040129" xlink:href="#maa61303640" y="169.34546"/>
     <use style="stroke:#000000;" x="292.975639" xlink:href="#maa61303640" y="176.710045"/>
     <use style="stroke:#000000;" x="296.460156" xlink:href="#maa61303640" y="177.630618"/>
     <use style="stroke:#000000;" x="299.556672" xlink:href="#maa61303640" y="177.630618"/>
     <use style="stroke:#000000;" x="301.878684" xlink:href="#maa61303640" y="183.154057"/>
    </g>
   </g>
   <g id="line2d_16">
    <path clip-path="url(#p644cb372fb)" d="M 65.361932 120.085159 
L 65.536901 120.01356 
L 65.82057 119.605491 
L 66.423184 118.253518 
L 72.512506 103.401615 
L 75.068448 97.887801 
L 77.624391 92.884598 
L 80.180333 88.416489 
L 82.310285 85.107567 
L 84.23187 82.4427 
L 86.153456 80.07438 
L 88.172337 77.894009 
L 90.191219 76.01399 
L 92.2101 74.416701 
L 94.228981 73.083033 
L 96.247863 71.993105 
L 98.266744 71.126855 
L 100.285626 70.464514 
L 102.304507 69.986969 
L 104.323389 69.676029 
L 107.351711 69.484944 
L 110.380033 69.577997 
L 113.408355 69.908987 
L 116.436678 70.437924 
L 120.474441 71.392777 
L 125.111693 72.763534 
L 129.748945 74.352778 
L 135.931948 76.711384 
L 143.660702 79.910039 
L 154.480957 84.644581 
L 176.121467 94.422712 
L 208.743438 109.116072 
L 234.483952 120.452165 
L 259.395024 131.171932 
L 282.072091 140.711342 
L 309.042392 151.784018 
L 336.012692 162.560603 
L 362.982993 173.042017 
L 369.725568 175.616411 
L 369.725568 175.616411 
" style="fill:none;stroke:#0000ff;stroke-linecap:square;stroke-width:1.5;"/>
   </g>
   <g id="line2d_17">
    <path clip-path="url(#p644cb372fb)" d="M 65.361932 154.217917 
L 65.525314 154.148073 
L 65.751782 153.756532 
L 66.156768 152.514464 
L 66.913827 149.341169 
L 71.899748 127.234124 
L 73.856219 119.715756 
L 75.978425 112.412793 
L 78.10063 106.004573 
L 79.871997 101.328843 
L 81.467944 97.622073 
L 83.063892 94.372748 
L 84.659839 91.55547 
L 86.255786 89.142186 
L 87.851734 87.103303 
L 89.447681 85.408651 
L 91.043628 84.028266 
L 92.639576 82.932997 
L 94.235523 82.094969 
L 95.83147 81.487891 
L 97.427418 81.087257 
L 99.023365 80.87045 
L 101.168776 80.832584 
L 103.588919 81.087971 
L 106.009063 81.606121 
L 108.429206 82.339991 
L 111.283684 83.429538 
L 115.006832 85.133271 
L 118.72998 87.07438 
L 123.694177 89.917808 
L 129.899424 93.732008 
L 139.827819 100.137902 
L 184.260895 129.16489 
L 201.550255 140.075394 
L 218.079041 150.252584 
L 235.136432 160.493012 
L 252.532428 170.662502 
L 269.050393 180.063456 
L 288.118579 190.608632 
L 306.900796 200.67652 
L 330.15868 212.709591 
L 353.416564 224.269443 
L 365.045507 229.874489 
L 365.045507 229.874489 
" style="fill:none;stroke:#ff0000;stroke-linecap:square;stroke-width:1.5;"/>
   </g>
   <g id="line2d_18">
    <path clip-path="url(#p644cb372fb)" d="M 66.136136 74.189187 
L 67.297442 71.847212 
L 67.684544 71.031602 
L 67.684544 71.031602 
L 69.620053 66.911825 
L 70.007155 66.086067 
L 71.555563 62.799935 
L 72.329767 61.177964 
L 75.039481 55.686882 
L 75.426583 54.93448 
L 77.362093 51.322702 
L 79.684555 47.368906 
L 82.007166 43.887767 
L 83.942676 41.369924 
L 85.878186 39.199738 
L 87.813696 37.3699 
L 88.5879 36.727201 
L 89.749206 35.855748 
L 90.52341 35.333009 
L 93.233123 33.86027 
L 93.233123 33.86027 
L 95.555735 33.011908 
L 97.104143 32.622026 
L 99.426605 32.281821 
L 99.426605 32.281821 
L 102.136319 32.201761 
L 104.071828 32.323588 
L 105.233134 32.454816 
L 106.39444 32.630076 
L 109.878358 33.373774 
L 113.362276 34.370921 
L 115.684887 35.151285 
L 119.942859 36.753906 
L 121.104165 37.224892 
L 125.748789 39.189322 
L 129.619809 40.912137 
L 132.717823 42.328719 
L 133.490829 42.686814 
L 136.975346 44.308506 
L 137.361848 44.488644 
L 140.846365 46.124217 
L 144.717385 47.944481 
L 145.103887 48.125648 
L 147.813901 49.397235 
L 152.459424 51.563509 
L 154.006933 52.280245 
L 155.942443 53.172433 
L 156.716946 53.528373 
L 160.975967 55.46936 
L 163.684482 56.689415 
L 166.007993 57.726714 
L 167.943503 58.5838 
L 170.653516 59.773018 
L 172.975528 60.781673 
L 176.460045 62.277204 
L 177.233051 62.605994 
L 183.427581 65.201639 
L 184.97509 65.839199 
L 188.84611 67.415161 
L 193.878136 69.423645 
L 199.298162 71.537476 
L 203.943685 73.309293 
L 209.750215 75.473683 
L 213.233234 76.746449 
L 215.168744 77.445593 
L 218.266758 78.552897 
L 223.685286 80.45618 
L 230.652822 82.843353 
L 236.847352 84.912942 
L 240.330371 86.055758 
L 245.362397 87.68165 
L 249.233417 88.912105 
L 252.717934 90.006523 
L 258.524463 91.803188 
L 262.007482 92.864583 
L 269.363018 95.069587 
L 275.55605 96.890742 
L 284.072593 99.338121 
L 286.782607 100.106821 
L 291.040129 101.304201 
L 292.975639 101.844424 
L 296.460156 102.812311 
L 299.556672 103.662399 
L 301.878684 104.299351 
" style="fill:none;stroke:#0000ff;stroke-dasharray:5.55,2.4;stroke-dashoffset:0;stroke-width:1.5;"/>
   </g>
   <g id="line2d_19">
    <path clip-path="url(#p644cb372fb)" d="M 66.136136 158.480073 
L 67.297442 155.167784 
L 67.684544 154.054078 
L 67.684544 154.054078 
L 69.620053 148.706683 
L 70.007155 147.684253 
L 71.555563 143.750569 
L 72.329767 141.875562 
L 75.039481 135.774151 
L 75.426583 134.959586 
L 77.362093 131.084001 
L 79.684555 126.849049 
L 82.007166 123.037581 
L 83.942676 120.165905 
L 85.878186 117.550557 
L 87.813696 115.192726 
L 88.5879 114.315969 
L 89.749206 113.071373 
L 90.52341 112.287643 
L 93.233123 109.818529 
L 93.233123 109.818529 
L 95.555735 108.044388 
L 97.104143 107.015289 
L 99.426605 105.701221 
L 99.426605 105.701221 
L 102.136319 104.488164 
L 104.071828 103.815691 
L 105.233134 103.482858 
L 106.39444 103.201057 
L 109.878358 102.64414 
L 113.362276 102.457405 
L 115.684887 102.514951 
L 119.942859 102.932582 
L 121.104165 103.109364 
L 125.748789 104.034536 
L 129.619809 105.030326 
L 132.717823 105.948384 
L 133.490829 106.192993 
L 136.975346 107.351738 
L 137.361848 107.485201 
L 140.846365 108.74167 
L 144.717385 110.220759 
L 145.103887 110.372149 
L 147.813901 111.456445 
L 152.459424 113.382986 
L 154.006933 114.041506 
L 155.942443 114.875346 
L 156.716946 115.21234 
L 160.975967 117.092424 
L 163.684482 118.31047 
L 166.007993 119.367814 
L 167.943503 120.256494 
L 170.653516 121.512078 
L 172.975528 122.597594 
L 176.460045 124.241991 
L 177.233051 124.609133 
L 183.427581 127.579071 
L 184.97509 128.328181 
L 188.84611 130.213311 
L 193.878136 132.686115 
L 199.298162 135.374378 
L 203.943685 137.696627 
L 209.750215 140.619781 
L 213.233234 142.382395 
L 215.168744 143.364812 
L 218.266758 144.941357 
L 223.685286 147.70736 
L 230.652822 151.279865 
L 236.847352 154.466611 
L 240.330371 156.261076 
L 245.362397 158.856693 
L 249.233417 160.854343 
L 252.717934 162.653467 
L 258.524463 165.650363 
L 262.007482 167.446835 
L 269.363018 171.236086 
L 275.55605 174.419357 
L 284.072593 178.783387 
L 286.782607 180.16758 
L 291.040129 182.337136 
L 292.975639 183.321231 
L 296.460156 185.090682 
L 299.556672 186.65814 
L 301.878684 187.832923 
" style="fill:none;stroke:#0000ff;stroke-dasharray:5.55,2.4;stroke-dashoffset:0;stroke-width:1.5;"/>
   </g>
   <g id="line2d_20"/>
   <g id="line2d_21"/>
   <g id="line2d_22"/>
   <g id="line2d_23"/>
   <g id="patch_3">
    <path d="M 50.14375 239.758125 
L 50.14375 22.318125 
" style="fill:none;stroke:#000000;stroke-linecap:square;stroke-linejoin:miter;stroke-width:0.8;"/>
   </g>
   <g id="patch_4">
    <path d="M 384.94375 239.758125 
L 384.94375 22.318125 
" style="fill:none;stroke:#000000;stroke-linecap:square;stroke-linejoin:miter;stroke-width:0.8;"/>
   </g>
   <g id="patch_5">
    <path d="M 50.14375 239.758125 
L 384.94375 239.758125 
" style="fill:none;stroke:#000000;stroke-linecap:square;stroke-linejoin:miter;stroke-width:0.8;"/>
   </g>
   <g id="patch_6">
    <path d="M 50.14375 22.318125 
L 384.94375 22.318125 
" style="fill:none;stroke:#000000;stroke-linecap:square;stroke-linejoin:miter;stroke-width:0.8;"/>
   </g>
   <g id="text_17">
    <!-- Experiment_5 -->
    <defs>
     <path d="M 9.8125 72.90625 
L 55.90625 72.90625 
L 55.90625 64.59375 
L 19.671875 64.59375 
L 19.671875 43.015625 
L 54.390625 43.015625 
L 54.390625 34.71875 
L 19.671875 34.71875 
L 19.671875 8.296875 
L 56.78125 8.296875 
L 56.78125 0 
L 9.8125 0 
z
" id="DejaVuSans-45"/>
     <path d="M 54.890625 54.6875 
L 35.109375 28.078125 
L 55.90625 0 
L 45.3125 0 
L 29.390625 21.484375 
L 13.484375 0 
L 2.875 0 
L 24.125 28.609375 
L 4.6875 54.6875 
L 15.28125 54.6875 
L 29.78125 35.203125 
L 44.28125 54.6875 
z
" id="DejaVuSans-78"/>
     <path d="M 18.109375 8.203125 
L 18.109375 -20.796875 
L 9.078125 -20.796875 
L 9.078125 54.6875 
L 18.109375 54.6875 
L 18.109375 46.390625 
Q 20.953125 51.265625 25.265625 53.625 
Q 29.59375 56 35.59375 56 
Q 45.5625 56 51.78125 48.09375 
Q 58.015625 40.1875 58.015625 27.296875 
Q 58.015625 14.40625 51.78125 6.484375 
Q 45.5625 -1.421875 35.59375 -1.421875 
Q 29.59375 -1.421875 25.265625 0.953125 
Q 20.953125 3.328125 18.109375 8.203125 
z
M 48.6875 27.296875 
Q 48.6875 37.203125 44.609375 42.84375 
Q 40.53125 48.484375 33.40625 48.484375 
Q 26.265625 48.484375 22.1875 42.84375 
Q 18.109375 37.203125 18.109375 27.296875 
Q 18.109375 17.390625 22.1875 11.75 
Q 26.265625 6.109375 33.40625 6.109375 
Q 40.53125 6.109375 44.609375 11.75 
Q 48.6875 17.390625 48.6875 27.296875 
z
" id="DejaVuSans-70"/>
     <path d="M 18.3125 70.21875 
L 18.3125 54.6875 
L 36.8125 54.6875 
L 36.8125 47.703125 
L 18.3125 47.703125 
L 18.3125 18.015625 
Q 18.3125 11.328125 20.140625 9.421875 
Q 21.96875 7.515625 27.59375 7.515625 
L 36.8125 7.515625 
L 36.8125 0 
L 27.59375 0 
Q 17.1875 0 13.234375 3.875 
Q 9.28125 7.765625 9.28125 18.015625 
L 9.28125 47.703125 
L 2.6875 47.703125 
L 2.6875 54.6875 
L 9.28125 54.6875 
L 9.28125 70.21875 
z
" id="DejaVuSans-74"/>
     <path d="M 50.984375 -16.609375 
L 50.984375 -23.578125 
L -0.984375 -23.578125 
L -0.984375 -16.609375 
z
" id="DejaVuSans-5f"/>
    </defs>
    <g transform="translate(176.058438 16.318125)scale(0.12 -0.12)">
     <use xlink:href="#DejaVuSans-45"/>
     <use x="63.183594" xlink:href="#DejaVuSans-78"/>
     <use x="122.363281" xlink:href="#DejaVuSans-70"/>
     <use x="185.839844" xlink:href="#DejaVuSans-65"/>
     <use x="247.363281" xlink:href="#DejaVuSans-72"/>
     <use x="288.476562" xlink:href="#DejaVuSans-69"/>
     <use x="316.259766" xlink:href="#DejaVuSans-6d"/>
     <use x="413.671875" xlink:href="#DejaVuSans-65"/>
     <use x="475.195312" xlink:href="#DejaVuSans-6e"/>
     <use x="538.574219" xlink:href="#DejaVuSans-74"/>
     <use x="577.783203" xlink:href="#DejaVuSans-5f"/>
     <use x="627.783203" xlink:href="#DejaVuSans-35"/>
    </g>
   </g>
   <g id="legend_1">
    <g id="patch_7">
     <path d="M 57.14375 234.758125 
L 306.901563 234.758125 
Q 308.901563 234.758125 308.901563 232.758125 
L 308.901563 175.02375 
Q 308.901563 173.02375 306.901563 173.02375 
L 57.14375 173.02375 
Q 55.14375 173.02375 55.14375 175.02375 
L 55.14375 232.758125 
Q 55.14375 234.758125 57.14375 234.758125 
z
" style="fill:#ffffff;opacity:0.8;stroke:#cccccc;stroke-linejoin:miter;"/>
    </g>
    <g id="line2d_24"/>
    <g id="line2d_25">
     <g>
      <use style="stroke:#000000;" x="69.14375" xlink:href="#maa61303640" y="181.122187"/>
     </g>
    </g>
    <g id="text_18">
     <!-- Experimental Data -->
     <defs>
      <path d="M 9.421875 75.984375 
L 18.40625 75.984375 
L 18.40625 0 
L 9.421875 0 
z
" id="DejaVuSans-6c"/>
      <path d="M 19.671875 64.796875 
L 19.671875 8.109375 
L 31.59375 8.109375 
Q 46.6875 8.109375 53.6875 14.9375 
Q 60.6875 21.78125 60.6875 36.53125 
Q 60.6875 51.171875 53.6875 57.984375 
Q 46.6875 64.796875 31.59375 64.796875 
z
M 9.8125 72.90625 
L 30.078125 72.90625 
Q 51.265625 72.90625 61.171875 64.09375 
Q 71.09375 55.28125 71.09375 36.53125 
Q 71.09375 17.671875 61.125 8.828125 
Q 51.171875 0 30.078125 0 
L 9.8125 0 
z
" id="DejaVuSans-44"/>
     </defs>
     <g transform="translate(87.14375 184.622187)scale(0.1 -0.1)">
      <use xlink:href="#DejaVuSans-45"/>
      <use x="63.183594" xlink:href="#DejaVuSans-78"/>
      <use x="122.363281" xlink:href="#DejaVuSans-70"/>
      <use x="185.839844" xlink:href="#DejaVuSans-65"/>
      <use x="247.363281" xlink:href="#DejaVuSans-72"/>
      <use x="288.476562" xlink:href="#DejaVuSans-69"/>
      <use x="316.259766" xlink:href="#DejaVuSans-6d"/>
      <use x="413.671875" xlink:href="#DejaVuSans-65"/>
      <use x="475.195312" xlink:href="#DejaVuSans-6e"/>
      <use x="538.574219" xlink:href="#DejaVuSans-74"/>
      <use x="577.783203" xlink:href="#DejaVuSans-61"/>
      <use x="639.0625" xlink:href="#DejaVuSans-6c"/>
      <use x="666.845703" xlink:href="#DejaVuSans-20"/>
      <use x="698.632812" xlink:href="#DejaVuSans-44"/>
      <use x="775.634766" xlink:href="#DejaVuSans-61"/>
      <use x="836.914062" xlink:href="#DejaVuSans-74"/>
      <use x="876.123047" xlink:href="#DejaVuSans-61"/>
     </g>
    </g>
    <g id="line2d_26">
     <path d="M 59.14375 195.800312 
L 79.14375 195.800312 
" style="fill:none;stroke:#0000ff;stroke-linecap:square;stroke-width:1.5;"/>
    </g>
    <g id="line2d_27"/>
    <g id="text_19">
     <!-- MSI -->
     <defs>
      <path d="M 9.8125 72.90625 
L 24.515625 72.90625 
L 43.109375 23.296875 
L 61.8125 72.90625 
L 76.515625 72.90625 
L 76.515625 0 
L 66.890625 0 
L 66.890625 64.015625 
L 48.09375 14.015625 
L 38.1875 14.015625 
L 19.390625 64.015625 
L 19.390625 0 
L 9.8125 0 
z
" id="DejaVuSans-4d"/>
      <path d="M 53.515625 70.515625 
L 53.515625 60.890625 
Q 47.90625 63.578125 42.921875 64.890625 
Q 37.9375 66.21875 33.296875 66.21875 
Q 25.25 66.21875 20.875 63.09375 
Q 16.5 59.96875 16.5 54.203125 
Q 16.5 49.359375 19.40625 46.890625 
Q 22.3125 44.4375 30.421875 42.921875 
L 36.375 41.703125 
Q 47.40625 39.59375 52.65625 34.296875 
Q 57.90625 29 57.90625 20.125 
Q 57.90625 9.515625 50.796875 4.046875 
Q 43.703125 -1.421875 29.984375 -1.421875 
Q 24.8125 -1.421875 18.96875 -0.25 
Q 13.140625 0.921875 6.890625 3.21875 
L 6.890625 13.375 
Q 12.890625 10.015625 18.65625 8.296875 
Q 24.421875 6.59375 29.984375 6.59375 
Q 38.421875 6.59375 43.015625 9.90625 
Q 47.609375 13.234375 47.609375 19.390625 
Q 47.609375 24.75 44.3125 27.78125 
Q 41.015625 30.8125 33.5 32.328125 
L 27.484375 33.5 
Q 16.453125 35.6875 11.515625 40.375 
Q 6.59375 45.0625 6.59375 53.421875 
Q 6.59375 63.09375 13.40625 68.65625 
Q 20.21875 74.21875 32.171875 74.21875 
Q 37.3125 74.21875 42.625 73.28125 
Q 47.953125 72.359375 53.515625 70.515625 
z
" id="DejaVuSans-53"/>
      <path d="M 9.8125 72.90625 
L 19.671875 72.90625 
L 19.671875 0 
L 9.8125 0 
z
" id="DejaVuSans-49"/>
     </defs>
     <g transform="translate(87.14375 199.300312)scale(0.1 -0.1)">
      <use xlink:href="#DejaVuSans-4d"/>
      <use x="86.279297" xlink:href="#DejaVuSans-53"/>
      <use x="149.755859" xlink:href="#DejaVuSans-49"/>
     </g>
    </g>
    <g id="line2d_28">
     <path d="M 59.14375 210.48 
L 79.14375 210.48 
" style="fill:none;stroke:#ff0000;stroke-linecap:square;stroke-width:1.5;"/>
    </g>
    <g id="line2d_29"/>
    <g id="text_20">
     <!-- $\it{A priori}$ model -->
     <defs>
      <path d="M 36.8125 72.90625 
L 48 72.90625 
L 61.53125 0 
L 51.21875 0 
L 48.1875 18.703125 
L 15.375 18.703125 
L 5.078125 0 
L -5.328125 0 
z
M 40.375 63.1875 
L 19.921875 26.90625 
L 46.6875 26.90625 
z
" id="DejaVuSans-Oblique-41"/>
      <path d="M 49.609375 33.6875 
Q 49.609375 40.875 46.484375 44.671875 
Q 43.359375 48.484375 37.5 48.484375 
Q 33.5 48.484375 29.859375 46.4375 
Q 26.21875 44.390625 23.390625 40.484375 
Q 20.609375 36.625 18.9375 31.15625 
Q 17.28125 25.6875 17.28125 20.3125 
Q 17.28125 13.484375 20.40625 9.796875 
Q 23.53125 6.109375 29.296875 6.109375 
Q 33.546875 6.109375 37.1875 8.109375 
Q 40.828125 10.109375 43.40625 13.921875 
Q 46.1875 17.921875 47.890625 23.34375 
Q 49.609375 28.765625 49.609375 33.6875 
z
M 21.78125 46.390625 
Q 25.390625 51.125 30.296875 53.5625 
Q 35.203125 56 41.21875 56 
Q 49.609375 56 54.25 50.5 
Q 58.890625 45.015625 58.890625 35.109375 
Q 58.890625 27 56 19.65625 
Q 53.125 12.3125 47.703125 6.5 
Q 44.09375 2.640625 39.546875 0.609375 
Q 35.015625 -1.421875 29.984375 -1.421875 
Q 24.171875 -1.421875 20.21875 1 
Q 16.265625 3.421875 14.3125 8.203125 
L 8.6875 -20.796875 
L -0.296875 -20.796875 
L 14.40625 54.6875 
L 23.390625 54.6875 
z
" id="DejaVuSans-Oblique-70"/>
      <path d="M 44.578125 46.390625 
Q 43.21875 47.125 41.453125 47.515625 
Q 39.703125 47.90625 37.703125 47.90625 
Q 30.515625 47.90625 25.140625 42.453125 
Q 19.78125 37.015625 18.015625 27.875 
L 12.5 0 
L 3.515625 0 
L 14.203125 54.6875 
L 23.1875 54.6875 
L 21.484375 46.1875 
Q 25.046875 50.921875 30 53.453125 
Q 34.96875 56 40.578125 56 
Q 42.046875 56 43.453125 55.828125 
Q 44.875 55.671875 46.296875 55.28125 
z
" id="DejaVuSans-Oblique-72"/>
      <path d="M 18.3125 75.984375 
L 27.296875 75.984375 
L 25.09375 64.59375 
L 16.109375 64.59375 
z
M 14.203125 54.6875 
L 23.1875 54.6875 
L 12.5 0 
L 3.515625 0 
z
" id="DejaVuSans-Oblique-69"/>
      <path d="M 25.390625 -1.421875 
Q 15.765625 -1.421875 10.171875 4.515625 
Q 4.59375 10.453125 4.59375 20.703125 
Q 4.59375 26.65625 6.515625 32.828125 
Q 8.453125 39.015625 11.53125 43.21875 
Q 16.359375 49.75 22.3125 52.875 
Q 28.265625 56 35.796875 56 
Q 45.125 56 50.859375 50.1875 
Q 56.59375 44.390625 56.59375 35.015625 
Q 56.59375 28.515625 54.6875 22.0625 
Q 52.78125 15.625 49.703125 11.375 
Q 44.921875 4.828125 38.96875 1.703125 
Q 33.015625 -1.421875 25.390625 -1.421875 
z
M 13.921875 21 
Q 13.921875 13.578125 17.015625 9.890625 
Q 20.125 6.203125 26.421875 6.203125 
Q 35.453125 6.203125 41.375 14.078125 
Q 47.3125 21.96875 47.3125 34.078125 
Q 47.3125 41.15625 44.140625 44.765625 
Q 40.96875 48.390625 34.8125 48.390625 
Q 29.734375 48.390625 25.78125 46.015625 
Q 21.828125 43.65625 18.703125 38.8125 
Q 16.40625 35.203125 15.15625 30.5625 
Q 13.921875 25.921875 13.921875 21 
z
" id="DejaVuSans-Oblique-6f"/>
      <path d="M 45.40625 46.390625 
L 45.40625 75.984375 
L 54.390625 75.984375 
L 54.390625 0 
L 45.40625 0 
L 45.40625 8.203125 
Q 42.578125 3.328125 38.25 0.953125 
Q 33.9375 -1.421875 27.875 -1.421875 
Q 17.96875 -1.421875 11.734375 6.484375 
Q 5.515625 14.40625 5.515625 27.296875 
Q 5.515625 40.1875 11.734375 48.09375 
Q 17.96875 56 27.875 56 
Q 33.9375 56 38.25 53.625 
Q 42.578125 51.265625 45.40625 46.390625 
z
M 14.796875 27.296875 
Q 14.796875 17.390625 18.875 11.75 
Q 22.953125 6.109375 30.078125 6.109375 
Q 37.203125 6.109375 41.296875 11.75 
Q 45.40625 17.390625 45.40625 27.296875 
Q 45.40625 37.203125 41.296875 42.84375 
Q 37.203125 48.484375 30.078125 48.484375 
Q 22.953125 48.484375 18.875 42.84375 
Q 14.796875 37.203125 14.796875 27.296875 
z
" id="DejaVuSans-64"/>
     </defs>
     <g transform="translate(87.14375 213.98)scale(0.1 -0.1)">
      <use transform="translate(0 0.015625)" xlink:href="#DejaVuSans-Oblique-41"/>
      <use transform="translate(68.408203 0.015625)" xlink:href="#DejaVuSans-Oblique-70"/>
      <use transform="translate(131.884766 0.015625)" xlink:href="#DejaVuSans-Oblique-72"/>
      <use transform="translate(172.998047 0.015625)" xlink:href="#DejaVuSans-Oblique-69"/>
      <use transform="translate(200.78125 0.015625)" xlink:href="#DejaVuSans-Oblique-6f"/>
      <use transform="translate(261.962891 0.015625)" xlink:href="#DejaVuSans-Oblique-72"/>
      <use transform="translate(303.076172 0.015625)" xlink:href="#DejaVuSans-Oblique-69"/>
      <use transform="translate(330.859375 0.015625)" xlink:href="#DejaVuSans-20"/>
      <use transform="translate(362.646484 0.015625)" xlink:href="#DejaVuSans-6d"/>
      <use transform="translate(460.058594 0.015625)" xlink:href="#DejaVuSans-6f"/>
      <use transform="translate(521.240234 0.015625)" xlink:href="#DejaVuSans-64"/>
      <use transform="translate(584.716797 0.015625)" xlink:href="#DejaVuSans-65"/>
      <use transform="translate(646.240234 0.015625)" xlink:href="#DejaVuSans-6c"/>
     </g>
    </g>
    <g id="line2d_30">
     <path d="M 59.14375 225.178437 
L 79.14375 225.178437 
" style="fill:none;stroke:#ffffff;stroke-linecap:square;stroke-width:1.5;"/>
    </g>
    <g id="line2d_31"/>
    <g id="text_21">
     <!-- T:968 -->
     <defs>
      <path d="M 11.71875 12.40625 
L 22.015625 12.40625 
L 22.015625 0 
L 11.71875 0 
z
M 11.71875 51.703125 
L 22.015625 51.703125 
L 22.015625 39.3125 
L 11.71875 39.3125 
z
" id="DejaVuSans-3a"/>
      <path d="M 10.984375 1.515625 
L 10.984375 10.5 
Q 14.703125 8.734375 18.5 7.8125 
Q 22.3125 6.890625 25.984375 6.890625 
Q 35.75 6.890625 40.890625 13.453125 
Q 46.046875 20.015625 46.78125 33.40625 
Q 43.953125 29.203125 39.59375 26.953125 
Q 35.25 24.703125 29.984375 24.703125 
Q 19.046875 24.703125 12.671875 31.3125 
Q 6.296875 37.9375 6.296875 49.421875 
Q 6.296875 60.640625 12.9375 67.421875 
Q 19.578125 74.21875 30.609375 74.21875 
Q 43.265625 74.21875 49.921875 64.515625 
Q 56.59375 54.828125 56.59375 36.375 
Q 56.59375 19.140625 48.40625 8.859375 
Q 40.234375 -1.421875 26.421875 -1.421875 
Q 22.703125 -1.421875 18.890625 -0.6875 
Q 15.09375 0.046875 10.984375 1.515625 
z
M 30.609375 32.421875 
Q 37.25 32.421875 41.125 36.953125 
Q 45.015625 41.5 45.015625 49.421875 
Q 45.015625 57.28125 41.125 61.84375 
Q 37.25 66.40625 30.609375 66.40625 
Q 23.96875 66.40625 20.09375 61.84375 
Q 16.21875 57.28125 16.21875 49.421875 
Q 16.21875 41.5 20.09375 36.953125 
Q 23.96875 32.421875 30.609375 32.421875 
z
" id="DejaVuSans-39"/>
      <path d="M 33.015625 40.375 
Q 26.375 40.375 22.484375 35.828125 
Q 18.609375 31.296875 18.609375 23.390625 
Q 18.609375 15.53125 22.484375 10.953125 
Q 26.375 6.390625 33.015625 6.390625 
Q 39.65625 6.390625 43.53125 10.953125 
Q 47.40625 15.53125 47.40625 23.390625 
Q 47.40625 31.296875 43.53125 35.828125 
Q 39.65625 40.375 33.015625 40.375 
z
M 52.59375 71.296875 
L 52.59375 62.3125 
Q 48.875 64.0625 45.09375 64.984375 
Q 41.3125 65.921875 37.59375 65.921875 
Q 27.828125 65.921875 22.671875 59.328125 
Q 17.53125 52.734375 16.796875 39.40625 
Q 19.671875 43.65625 24.015625 45.921875 
Q 28.375 48.1875 33.59375 48.1875 
Q 44.578125 48.1875 50.953125 41.515625 
Q 57.328125 34.859375 57.328125 23.390625 
Q 57.328125 12.15625 50.6875 5.359375 
Q 44.046875 -1.421875 33.015625 -1.421875 
Q 20.359375 -1.421875 13.671875 8.265625 
Q 6.984375 17.96875 6.984375 36.375 
Q 6.984375 53.65625 15.1875 63.9375 
Q 23.390625 74.21875 37.203125 74.21875 
Q 40.921875 74.21875 44.703125 73.484375 
Q 48.484375 72.75 52.59375 71.296875 
z
" id="DejaVuSans-36"/>
      <path d="M 31.78125 34.625 
Q 24.75 34.625 20.71875 30.859375 
Q 16.703125 27.09375 16.703125 20.515625 
Q 16.703125 13.921875 20.71875 10.15625 
Q 24.75 6.390625 31.78125 6.390625 
Q 38.8125 6.390625 42.859375 10.171875 
Q 46.921875 13.96875 46.921875 20.515625 
Q 46.921875 27.09375 42.890625 30.859375 
Q 38.875 34.625 31.78125 34.625 
z
M 21.921875 38.8125 
Q 15.578125 40.375 12.03125 44.71875 
Q 8.5 49.078125 8.5 55.328125 
Q 8.5 64.0625 14.71875 69.140625 
Q 20.953125 74.21875 31.78125 74.21875 
Q 42.671875 74.21875 48.875 69.140625 
Q 55.078125 64.0625 55.078125 55.328125 
Q 55.078125 49.078125 51.53125 44.71875 
Q 48 40.375 41.703125 38.8125 
Q 48.828125 37.15625 52.796875 32.3125 
Q 56.78125 27.484375 56.78125 20.515625 
Q 56.78125 9.90625 50.3125 4.234375 
Q 43.84375 -1.421875 31.78125 -1.421875 
Q 19.734375 -1.421875 13.25 4.234375 
Q 6.78125 9.90625 6.78125 20.515625 
Q 6.78125 27.484375 10.78125 32.3125 
Q 14.796875 37.15625 21.921875 38.8125 
z
M 18.3125 54.390625 
Q 18.3125 48.734375 21.84375 45.5625 
Q 25.390625 42.390625 31.78125 42.390625 
Q 38.140625 42.390625 41.71875 45.5625 
Q 45.3125 48.734375 45.3125 54.390625 
Q 45.3125 60.0625 41.71875 63.234375 
Q 38.140625 66.40625 31.78125 66.40625 
Q 25.390625 66.40625 21.84375 63.234375 
Q 18.3125 60.0625 18.3125 54.390625 
z
" id="DejaVuSans-38"/>
     </defs>
     <g transform="translate(87.14375 228.678437)scale(0.1 -0.1)">
      <use xlink:href="#DejaVuSans-54"/>
      <use x="60.912109" xlink:href="#DejaVuSans-3a"/>
      <use x="94.603516" xlink:href="#DejaVuSans-39"/>
      <use x="158.226562" xlink:href="#DejaVuSans-36"/>
      <use x="221.849609" xlink:href="#DejaVuSans-38"/>
     </g>
    </g>
    <g id="line2d_32">
     <path d="M 200.884375 181.122187 
L 220.884375 181.122187 
" style="fill:none;stroke:#ffffff;stroke-linecap:square;stroke-width:1.5;"/>
    </g>
    <g id="line2d_33"/>
    <g id="text_22">
     <!-- P:3.59 -->
     <defs>
      <path d="M 19.671875 64.796875 
L 19.671875 37.40625 
L 32.078125 37.40625 
Q 38.96875 37.40625 42.71875 40.96875 
Q 46.484375 44.53125 46.484375 51.125 
Q 46.484375 57.671875 42.71875 61.234375 
Q 38.96875 64.796875 32.078125 64.796875 
z
M 9.8125 72.90625 
L 32.078125 72.90625 
Q 44.34375 72.90625 50.609375 67.359375 
Q 56.890625 61.8125 56.890625 51.125 
Q 56.890625 40.328125 50.609375 34.8125 
Q 44.34375 29.296875 32.078125 29.296875 
L 19.671875 29.296875 
L 19.671875 0 
L 9.8125 0 
z
" id="DejaVuSans-50"/>
     </defs>
     <g transform="translate(228.884375 184.622187)scale(0.1 -0.1)">
      <use xlink:href="#DejaVuSans-50"/>
      <use x="60.302734" xlink:href="#DejaVuSans-3a"/>
      <use x="93.994141" xlink:href="#DejaVuSans-33"/>
      <use x="157.617188" xlink:href="#DejaVuSans-2e"/>
      <use x="189.404297" xlink:href="#DejaVuSans-35"/>
      <use x="253.027344" xlink:href="#DejaVuSans-39"/>
     </g>
    </g>
    <g id="line2d_34">
     <path d="M 200.884375 195.800312 
L 220.884375 195.800312 
" style="fill:none;stroke:#ffffff;stroke-linecap:square;stroke-width:1.5;"/>
    </g>
    <g id="line2d_35"/>
    <g id="text_23">
     <!-- H2O2: 0.00314 -->
     <defs>
      <path d="M 9.8125 72.90625 
L 19.671875 72.90625 
L 19.671875 43.015625 
L 55.515625 43.015625 
L 55.515625 72.90625 
L 65.375 72.90625 
L 65.375 0 
L 55.515625 0 
L 55.515625 34.71875 
L 19.671875 34.71875 
L 19.671875 0 
L 9.8125 0 
z
" id="DejaVuSans-48"/>
      <path d="M 39.40625 66.21875 
Q 28.65625 66.21875 22.328125 58.203125 
Q 16.015625 50.203125 16.015625 36.375 
Q 16.015625 22.609375 22.328125 14.59375 
Q 28.65625 6.59375 39.40625 6.59375 
Q 50.140625 6.59375 56.421875 14.59375 
Q 62.703125 22.609375 62.703125 36.375 
Q 62.703125 50.203125 56.421875 58.203125 
Q 50.140625 66.21875 39.40625 66.21875 
z
M 39.40625 74.21875 
Q 54.734375 74.21875 63.90625 63.9375 
Q 73.09375 53.65625 73.09375 36.375 
Q 73.09375 19.140625 63.90625 8.859375 
Q 54.734375 -1.421875 39.40625 -1.421875 
Q 24.03125 -1.421875 14.8125 8.828125 
Q 5.609375 19.09375 5.609375 36.375 
Q 5.609375 53.65625 14.8125 63.9375 
Q 24.03125 74.21875 39.40625 74.21875 
z
" id="DejaVuSans-4f"/>
     </defs>
     <g transform="translate(228.884375 199.300312)scale(0.1 -0.1)">
      <use xlink:href="#DejaVuSans-48"/>
      <use x="75.195312" xlink:href="#DejaVuSans-32"/>
      <use x="138.818359" xlink:href="#DejaVuSans-4f"/>
      <use x="217.529297" xlink:href="#DejaVuSans-32"/>
      <use x="281.152344" xlink:href="#DejaVuSans-3a"/>
      <use x="314.84375" xlink:href="#DejaVuSans-20"/>
      <use x="346.630859" xlink:href="#DejaVuSans-30"/>
      <use x="410.253906" xlink:href="#DejaVuSans-2e"/>
      <use x="442.041016" xlink:href="#DejaVuSans-30"/>
      <use x="505.664062" xlink:href="#DejaVuSans-30"/>
      <use x="569.287109" xlink:href="#DejaVuSans-33"/>
      <use x="632.910156" xlink:href="#DejaVuSans-31"/>
      <use x="696.533203" xlink:href="#DejaVuSans-34"/>
     </g>
    </g>
    <g id="line2d_36">
     <path d="M 200.884375 210.478437 
L 220.884375 210.478437 
" style="fill:none;stroke:#ffffff;stroke-linecap:square;stroke-width:1.5;"/>
    </g>
    <g id="line2d_37"/>
    <g id="text_24">
     <!-- Ar: 0.99686 -->
     <g transform="translate(228.884375 213.978437)scale(0.1 -0.1)">
      <use xlink:href="#DejaVuSans-41"/>
      <use x="68.408203" xlink:href="#DejaVuSans-72"/>
      <use x="109.505859" xlink:href="#DejaVuSans-3a"/>
      <use x="143.197266" xlink:href="#DejaVuSans-20"/>
      <use x="174.984375" xlink:href="#DejaVuSans-30"/>
      <use x="238.607422" xlink:href="#DejaVuSans-2e"/>
      <use x="270.394531" xlink:href="#DejaVuSans-39"/>
      <use x="334.017578" xlink:href="#DejaVuSans-39"/>
      <use x="397.640625" xlink:href="#DejaVuSans-36"/>
      <use x="461.263672" xlink:href="#DejaVuSans-38"/>
      <use x="524.886719" xlink:href="#DejaVuSans-36"/>
     </g>
    </g>
   </g>
  </g>
 </g>
 <defs>
  <clipPath id="p644cb372fb">
   <rect height="217.44" width="334.8" x="50.14375" y="22.318125"/>
  </clipPath>
 </defs>
</svg>
