<?xml version="1.0" encoding="utf-8" standalone="no"?>
<!DOCTYPE svg PUBLIC "-//W3C//DTD SVG 1.1//EN"
  "http://www.w3.org/Graphics/SVG/1.1/DTD/svg11.dtd">
<!-- Created with matplotlib (https://matplotlib.org/) -->
<svg height="277.314375pt" version="1.1" viewBox="0 0 392.465625 277.314375" width="392.465625pt" xmlns="http://www.w3.org/2000/svg" xmlns:xlink="http://www.w3.org/1999/xlink">
 <defs>
  <style type="text/css">
*{stroke-linecap:butt;stroke-linejoin:round;}
  </style>
 </defs>
 <g id="figure_1">
  <g id="patch_1">
   <path d="M 0 277.314375 
L 392.465625 277.314375 
L 392.465625 0 
L 0 0 
z
" style="fill:none;"/>
  </g>
  <g id="axes_1">
   <g id="patch_2">
    <path d="M 46.965625 239.758125 
L 381.765625 239.758125 
L 381.765625 22.318125 
L 46.965625 22.318125 
z
" style="fill:none;"/>
   </g>
   <g id="matplotlib.axis_1">
    <g id="xtick_1">
     <g id="line2d_1">
      <defs>
       <path d="M 0 0 
L 0 3.5 
" id="ma57fe0a104" style="stroke:#000000;stroke-width:0.8;"/>
      </defs>
      <g>
       <use style="stroke:#000000;stroke-width:0.8;" x="62.183807" xlink:href="#ma57fe0a104" y="239.758125"/>
      </g>
     </g>
     <g id="text_1">
      <!-- 0.00 -->
      <defs>
       <path d="M 31.78125 66.40625 
Q 24.171875 66.40625 20.328125 58.90625 
Q 16.5 51.421875 16.5 36.375 
Q 16.5 21.390625 20.328125 13.890625 
Q 24.171875 6.390625 31.78125 6.390625 
Q 39.453125 6.390625 43.28125 13.890625 
Q 47.125 21.390625 47.125 36.375 
Q 47.125 51.421875 43.28125 58.90625 
Q 39.453125 66.40625 31.78125 66.40625 
z
M 31.78125 74.21875 
Q 44.046875 74.21875 50.515625 64.515625 
Q 56.984375 54.828125 56.984375 36.375 
Q 56.984375 17.96875 50.515625 8.265625 
Q 44.046875 -1.421875 31.78125 -1.421875 
Q 19.53125 -1.421875 13.0625 8.265625 
Q 6.59375 17.96875 6.59375 36.375 
Q 6.59375 54.828125 13.0625 64.515625 
Q 19.53125 74.21875 31.78125 74.21875 
z
" id="DejaVuSans-48"/>
       <path d="M 10.6875 12.40625 
L 21 12.40625 
L 21 0 
L 10.6875 0 
z
" id="DejaVuSans-46"/>
      </defs>
      <g transform="translate(51.050994 254.356562)scale(0.1 -0.1)">
       <use xlink:href="#DejaVuSans-48"/>
       <use x="63.623047" xlink:href="#DejaVuSans-46"/>
       <use x="95.410156" xlink:href="#DejaVuSans-48"/>
       <use x="159.033203" xlink:href="#DejaVuSans-48"/>
      </g>
     </g>
    </g>
    <g id="xtick_2">
     <g id="line2d_2">
      <g>
       <use style="stroke:#000000;stroke-width:0.8;" x="112.80091" xlink:href="#ma57fe0a104" y="239.758125"/>
      </g>
     </g>
     <g id="text_2">
      <!-- 0.05 -->
      <defs>
       <path d="M 10.796875 72.90625 
L 49.515625 72.90625 
L 49.515625 64.59375 
L 19.828125 64.59375 
L 19.828125 46.734375 
Q 21.96875 47.46875 24.109375 47.828125 
Q 26.265625 48.1875 28.421875 48.1875 
Q 40.625 48.1875 47.75 41.5 
Q 54.890625 34.8125 54.890625 23.390625 
Q 54.890625 11.625 47.5625 5.09375 
Q 40.234375 -1.421875 26.90625 -1.421875 
Q 22.3125 -1.421875 17.546875 -0.640625 
Q 12.796875 0.140625 7.71875 1.703125 
L 7.71875 11.625 
Q 12.109375 9.234375 16.796875 8.0625 
Q 21.484375 6.890625 26.703125 6.890625 
Q 35.15625 6.890625 40.078125 11.328125 
Q 45.015625 15.765625 45.015625 23.390625 
Q 45.015625 31 40.078125 35.4375 
Q 35.15625 39.890625 26.703125 39.890625 
Q 22.75 39.890625 18.8125 39.015625 
Q 14.890625 38.140625 10.796875 36.28125 
z
" id="DejaVuSans-53"/>
      </defs>
      <g transform="translate(101.668098 254.356562)scale(0.1 -0.1)">
       <use xlink:href="#DejaVuSans-48"/>
       <use x="63.623047" xlink:href="#DejaVuSans-46"/>
       <use x="95.410156" xlink:href="#DejaVuSans-48"/>
       <use x="159.033203" xlink:href="#DejaVuSans-53"/>
      </g>
     </g>
    </g>
    <g id="xtick_3">
     <g id="line2d_3">
      <g>
       <use style="stroke:#000000;stroke-width:0.8;" x="163.418014" xlink:href="#ma57fe0a104" y="239.758125"/>
      </g>
     </g>
     <g id="text_3">
      <!-- 0.10 -->
      <defs>
       <path d="M 12.40625 8.296875 
L 28.515625 8.296875 
L 28.515625 63.921875 
L 10.984375 60.40625 
L 10.984375 69.390625 
L 28.421875 72.90625 
L 38.28125 72.90625 
L 38.28125 8.296875 
L 54.390625 8.296875 
L 54.390625 0 
L 12.40625 0 
z
" id="DejaVuSans-49"/>
      </defs>
      <g transform="translate(152.285201 254.356562)scale(0.1 -0.1)">
       <use xlink:href="#DejaVuSans-48"/>
       <use x="63.623047" xlink:href="#DejaVuSans-46"/>
       <use x="95.410156" xlink:href="#DejaVuSans-49"/>
       <use x="159.033203" xlink:href="#DejaVuSans-48"/>
      </g>
     </g>
    </g>
    <g id="xtick_4">
     <g id="line2d_4">
      <g>
       <use style="stroke:#000000;stroke-width:0.8;" x="214.035117" xlink:href="#ma57fe0a104" y="239.758125"/>
      </g>
     </g>
     <g id="text_4">
      <!-- 0.15 -->
      <g transform="translate(202.902305 254.356562)scale(0.1 -0.1)">
       <use xlink:href="#DejaVuSans-48"/>
       <use x="63.623047" xlink:href="#DejaVuSans-46"/>
       <use x="95.410156" xlink:href="#DejaVuSans-49"/>
       <use x="159.033203" xlink:href="#DejaVuSans-53"/>
      </g>
     </g>
    </g>
    <g id="xtick_5">
     <g id="line2d_5">
      <g>
       <use style="stroke:#000000;stroke-width:0.8;" x="264.652221" xlink:href="#ma57fe0a104" y="239.758125"/>
      </g>
     </g>
     <g id="text_5">
      <!-- 0.20 -->
      <defs>
       <path d="M 19.1875 8.296875 
L 53.609375 8.296875 
L 53.609375 0 
L 7.328125 0 
L 7.328125 8.296875 
Q 12.9375 14.109375 22.625 23.890625 
Q 32.328125 33.6875 34.8125 36.53125 
Q 39.546875 41.84375 41.421875 45.53125 
Q 43.3125 49.21875 43.3125 52.78125 
Q 43.3125 58.59375 39.234375 62.25 
Q 35.15625 65.921875 28.609375 65.921875 
Q 23.96875 65.921875 18.8125 64.3125 
Q 13.671875 62.703125 7.8125 59.421875 
L 7.8125 69.390625 
Q 13.765625 71.78125 18.9375 73 
Q 24.125 74.21875 28.421875 74.21875 
Q 39.75 74.21875 46.484375 68.546875 
Q 53.21875 62.890625 53.21875 53.421875 
Q 53.21875 48.921875 51.53125 44.890625 
Q 49.859375 40.875 45.40625 35.40625 
Q 44.1875 33.984375 37.640625 27.21875 
Q 31.109375 20.453125 19.1875 8.296875 
z
" id="DejaVuSans-50"/>
      </defs>
      <g transform="translate(253.519408 254.356562)scale(0.1 -0.1)">
       <use xlink:href="#DejaVuSans-48"/>
       <use x="63.623047" xlink:href="#DejaVuSans-46"/>
       <use x="95.410156" xlink:href="#DejaVuSans-50"/>
       <use x="159.033203" xlink:href="#DejaVuSans-48"/>
      </g>
     </g>
    </g>
    <g id="xtick_6">
     <g id="line2d_6">
      <g>
       <use style="stroke:#000000;stroke-width:0.8;" x="315.269324" xlink:href="#ma57fe0a104" y="239.758125"/>
      </g>
     </g>
     <g id="text_6">
      <!-- 0.25 -->
      <g transform="translate(304.136512 254.356562)scale(0.1 -0.1)">
       <use xlink:href="#DejaVuSans-48"/>
       <use x="63.623047" xlink:href="#DejaVuSans-46"/>
       <use x="95.410156" xlink:href="#DejaVuSans-50"/>
       <use x="159.033203" xlink:href="#DejaVuSans-53"/>
      </g>
     </g>
    </g>
    <g id="xtick_7">
     <g id="line2d_7">
      <g>
       <use style="stroke:#000000;stroke-width:0.8;" x="365.886428" xlink:href="#ma57fe0a104" y="239.758125"/>
      </g>
     </g>
     <g id="text_7">
      <!-- 0.30 -->
      <defs>
       <path d="M 40.578125 39.3125 
Q 47.65625 37.796875 51.625 33 
Q 55.609375 28.21875 55.609375 21.1875 
Q 55.609375 10.40625 48.1875 4.484375 
Q 40.765625 -1.421875 27.09375 -1.421875 
Q 22.515625 -1.421875 17.65625 -0.515625 
Q 12.796875 0.390625 7.625 2.203125 
L 7.625 11.71875 
Q 11.71875 9.328125 16.59375 8.109375 
Q 21.484375 6.890625 26.8125 6.890625 
Q 36.078125 6.890625 40.9375 10.546875 
Q 45.796875 14.203125 45.796875 21.1875 
Q 45.796875 27.640625 41.28125 31.265625 
Q 36.765625 34.90625 28.71875 34.90625 
L 20.21875 34.90625 
L 20.21875 43.015625 
L 29.109375 43.015625 
Q 36.375 43.015625 40.234375 45.921875 
Q 44.09375 48.828125 44.09375 54.296875 
Q 44.09375 59.90625 40.109375 62.90625 
Q 36.140625 65.921875 28.71875 65.921875 
Q 24.65625 65.921875 20.015625 65.03125 
Q 15.375 64.15625 9.8125 62.3125 
L 9.8125 71.09375 
Q 15.4375 72.65625 20.34375 73.4375 
Q 25.25 74.21875 29.59375 74.21875 
Q 40.828125 74.21875 47.359375 69.109375 
Q 53.90625 64.015625 53.90625 55.328125 
Q 53.90625 49.265625 50.4375 45.09375 
Q 46.96875 40.921875 40.578125 39.3125 
z
" id="DejaVuSans-51"/>
      </defs>
      <g transform="translate(354.753615 254.356562)scale(0.1 -0.1)">
       <use xlink:href="#DejaVuSans-48"/>
       <use x="63.623047" xlink:href="#DejaVuSans-46"/>
       <use x="95.410156" xlink:href="#DejaVuSans-51"/>
       <use x="159.033203" xlink:href="#DejaVuSans-48"/>
      </g>
     </g>
    </g>
    <g id="text_8">
     <!-- Time (ms) -->
     <defs>
      <path d="M -0.296875 72.90625 
L 61.375 72.90625 
L 61.375 64.59375 
L 35.5 64.59375 
L 35.5 0 
L 25.59375 0 
L 25.59375 64.59375 
L -0.296875 64.59375 
z
" id="DejaVuSans-84"/>
      <path d="M 9.421875 54.6875 
L 18.40625 54.6875 
L 18.40625 0 
L 9.421875 0 
z
M 9.421875 75.984375 
L 18.40625 75.984375 
L 18.40625 64.59375 
L 9.421875 64.59375 
z
" id="DejaVuSans-105"/>
      <path d="M 52 44.1875 
Q 55.375 50.25 60.0625 53.125 
Q 64.75 56 71.09375 56 
Q 79.640625 56 84.28125 50.015625 
Q 88.921875 44.046875 88.921875 33.015625 
L 88.921875 0 
L 79.890625 0 
L 79.890625 32.71875 
Q 79.890625 40.578125 77.09375 44.375 
Q 74.3125 48.1875 68.609375 48.1875 
Q 61.625 48.1875 57.5625 43.546875 
Q 53.515625 38.921875 53.515625 30.90625 
L 53.515625 0 
L 44.484375 0 
L 44.484375 32.71875 
Q 44.484375 40.625 41.703125 44.40625 
Q 38.921875 48.1875 33.109375 48.1875 
Q 26.21875 48.1875 22.15625 43.53125 
Q 18.109375 38.875 18.109375 30.90625 
L 18.109375 0 
L 9.078125 0 
L 9.078125 54.6875 
L 18.109375 54.6875 
L 18.109375 46.1875 
Q 21.1875 51.21875 25.484375 53.609375 
Q 29.78125 56 35.6875 56 
Q 41.65625 56 45.828125 52.96875 
Q 50 49.953125 52 44.1875 
z
" id="DejaVuSans-109"/>
      <path d="M 56.203125 29.59375 
L 56.203125 25.203125 
L 14.890625 25.203125 
Q 15.484375 15.921875 20.484375 11.0625 
Q 25.484375 6.203125 34.421875 6.203125 
Q 39.59375 6.203125 44.453125 7.46875 
Q 49.3125 8.734375 54.109375 11.28125 
L 54.109375 2.78125 
Q 49.265625 0.734375 44.1875 -0.34375 
Q 39.109375 -1.421875 33.890625 -1.421875 
Q 20.796875 -1.421875 13.15625 6.1875 
Q 5.515625 13.8125 5.515625 26.8125 
Q 5.515625 40.234375 12.765625 48.109375 
Q 20.015625 56 32.328125 56 
Q 43.359375 56 49.78125 48.890625 
Q 56.203125 41.796875 56.203125 29.59375 
z
M 47.21875 32.234375 
Q 47.125 39.59375 43.09375 43.984375 
Q 39.0625 48.390625 32.421875 48.390625 
Q 24.90625 48.390625 20.390625 44.140625 
Q 15.875 39.890625 15.1875 32.171875 
z
" id="DejaVuSans-101"/>
      <path id="DejaVuSans-32"/>
      <path d="M 31 75.875 
Q 24.46875 64.65625 21.28125 53.65625 
Q 18.109375 42.671875 18.109375 31.390625 
Q 18.109375 20.125 21.3125 9.0625 
Q 24.515625 -2 31 -13.1875 
L 23.1875 -13.1875 
Q 15.875 -1.703125 12.234375 9.375 
Q 8.59375 20.453125 8.59375 31.390625 
Q 8.59375 42.28125 12.203125 53.3125 
Q 15.828125 64.359375 23.1875 75.875 
z
" id="DejaVuSans-40"/>
      <path d="M 44.28125 53.078125 
L 44.28125 44.578125 
Q 40.484375 46.53125 36.375 47.5 
Q 32.28125 48.484375 27.875 48.484375 
Q 21.1875 48.484375 17.84375 46.4375 
Q 14.5 44.390625 14.5 40.28125 
Q 14.5 37.15625 16.890625 35.375 
Q 19.28125 33.59375 26.515625 31.984375 
L 29.59375 31.296875 
Q 39.15625 29.25 43.1875 25.515625 
Q 47.21875 21.78125 47.21875 15.09375 
Q 47.21875 7.46875 41.1875 3.015625 
Q 35.15625 -1.421875 24.609375 -1.421875 
Q 20.21875 -1.421875 15.453125 -0.5625 
Q 10.6875 0.296875 5.421875 2 
L 5.421875 11.28125 
Q 10.40625 8.6875 15.234375 7.390625 
Q 20.0625 6.109375 24.8125 6.109375 
Q 31.15625 6.109375 34.5625 8.28125 
Q 37.984375 10.453125 37.984375 14.40625 
Q 37.984375 18.0625 35.515625 20.015625 
Q 33.0625 21.96875 24.703125 23.78125 
L 21.578125 24.515625 
Q 13.234375 26.265625 9.515625 29.90625 
Q 5.8125 33.546875 5.8125 39.890625 
Q 5.8125 47.609375 11.28125 51.796875 
Q 16.75 56 26.8125 56 
Q 31.78125 56 36.171875 55.265625 
Q 40.578125 54.546875 44.28125 53.078125 
z
" id="DejaVuSans-115"/>
      <path d="M 8.015625 75.875 
L 15.828125 75.875 
Q 23.140625 64.359375 26.78125 53.3125 
Q 30.421875 42.28125 30.421875 31.390625 
Q 30.421875 20.453125 26.78125 9.375 
Q 23.140625 -1.703125 15.828125 -13.1875 
L 8.015625 -13.1875 
Q 14.5 -2 17.703125 9.0625 
Q 20.90625 20.125 20.90625 31.390625 
Q 20.90625 42.671875 17.703125 53.65625 
Q 14.5 64.65625 8.015625 75.875 
z
" id="DejaVuSans-41"/>
     </defs>
     <g transform="translate(189.0125 268.034687)scale(0.1 -0.1)">
      <use xlink:href="#DejaVuSans-84"/>
      <use x="61.037109" xlink:href="#DejaVuSans-105"/>
      <use x="88.820312" xlink:href="#DejaVuSans-109"/>
      <use x="186.232422" xlink:href="#DejaVuSans-101"/>
      <use x="247.755859" xlink:href="#DejaVuSans-32"/>
      <use x="279.542969" xlink:href="#DejaVuSans-40"/>
      <use x="318.556641" xlink:href="#DejaVuSans-109"/>
      <use x="415.96875" xlink:href="#DejaVuSans-115"/>
      <use x="468.068359" xlink:href="#DejaVuSans-41"/>
     </g>
    </g>
   </g>
   <g id="matplotlib.axis_2">
    <g id="ytick_1">
     <g id="line2d_8">
      <defs>
       <path d="M 0 0 
L -3.5 0 
" id="m125641d329" style="stroke:#000000;stroke-width:0.8;"/>
      </defs>
      <g>
       <use style="stroke:#000000;stroke-width:0.8;" x="46.965625" xlink:href="#m125641d329" y="229.874489"/>
      </g>
     </g>
     <g id="text_9">
      <!-- 0 -->
      <g transform="translate(33.603125 233.673707)scale(0.1 -0.1)">
       <use xlink:href="#DejaVuSans-48"/>
      </g>
     </g>
    </g>
    <g id="ytick_2">
     <g id="line2d_9">
      <g>
       <use style="stroke:#000000;stroke-width:0.8;" x="46.965625" xlink:href="#m125641d329" y="203.187632"/>
      </g>
     </g>
     <g id="text_10">
      <!-- 20 -->
      <g transform="translate(27.240625 206.986851)scale(0.1 -0.1)">
       <use xlink:href="#DejaVuSans-50"/>
       <use x="63.623047" xlink:href="#DejaVuSans-48"/>
      </g>
     </g>
    </g>
    <g id="ytick_3">
     <g id="line2d_10">
      <g>
       <use style="stroke:#000000;stroke-width:0.8;" x="46.965625" xlink:href="#m125641d329" y="176.500776"/>
      </g>
     </g>
     <g id="text_11">
      <!-- 40 -->
      <defs>
       <path d="M 37.796875 64.3125 
L 12.890625 25.390625 
L 37.796875 25.390625 
z
M 35.203125 72.90625 
L 47.609375 72.90625 
L 47.609375 25.390625 
L 58.015625 25.390625 
L 58.015625 17.1875 
L 47.609375 17.1875 
L 47.609375 0 
L 37.796875 0 
L 37.796875 17.1875 
L 4.890625 17.1875 
L 4.890625 26.703125 
z
" id="DejaVuSans-52"/>
      </defs>
      <g transform="translate(27.240625 180.299994)scale(0.1 -0.1)">
       <use xlink:href="#DejaVuSans-52"/>
       <use x="63.623047" xlink:href="#DejaVuSans-48"/>
      </g>
     </g>
    </g>
    <g id="ytick_4">
     <g id="line2d_11">
      <g>
       <use style="stroke:#000000;stroke-width:0.8;" x="46.965625" xlink:href="#m125641d329" y="149.813919"/>
      </g>
     </g>
     <g id="text_12">
      <!-- 60 -->
      <defs>
       <path d="M 33.015625 40.375 
Q 26.375 40.375 22.484375 35.828125 
Q 18.609375 31.296875 18.609375 23.390625 
Q 18.609375 15.53125 22.484375 10.953125 
Q 26.375 6.390625 33.015625 6.390625 
Q 39.65625 6.390625 43.53125 10.953125 
Q 47.40625 15.53125 47.40625 23.390625 
Q 47.40625 31.296875 43.53125 35.828125 
Q 39.65625 40.375 33.015625 40.375 
z
M 52.59375 71.296875 
L 52.59375 62.3125 
Q 48.875 64.0625 45.09375 64.984375 
Q 41.3125 65.921875 37.59375 65.921875 
Q 27.828125 65.921875 22.671875 59.328125 
Q 17.53125 52.734375 16.796875 39.40625 
Q 19.671875 43.65625 24.015625 45.921875 
Q 28.375 48.1875 33.59375 48.1875 
Q 44.578125 48.1875 50.953125 41.515625 
Q 57.328125 34.859375 57.328125 23.390625 
Q 57.328125 12.15625 50.6875 5.359375 
Q 44.046875 -1.421875 33.015625 -1.421875 
Q 20.359375 -1.421875 13.671875 8.265625 
Q 6.984375 17.96875 6.984375 36.375 
Q 6.984375 53.65625 15.1875 63.9375 
Q 23.390625 74.21875 37.203125 74.21875 
Q 40.921875 74.21875 44.703125 73.484375 
Q 48.484375 72.75 52.59375 71.296875 
z
" id="DejaVuSans-54"/>
      </defs>
      <g transform="translate(27.240625 153.613138)scale(0.1 -0.1)">
       <use xlink:href="#DejaVuSans-54"/>
       <use x="63.623047" xlink:href="#DejaVuSans-48"/>
      </g>
     </g>
    </g>
    <g id="ytick_5">
     <g id="line2d_12">
      <g>
       <use style="stroke:#000000;stroke-width:0.8;" x="46.965625" xlink:href="#m125641d329" y="123.127063"/>
      </g>
     </g>
     <g id="text_13">
      <!-- 80 -->
      <defs>
       <path d="M 31.78125 34.625 
Q 24.75 34.625 20.71875 30.859375 
Q 16.703125 27.09375 16.703125 20.515625 
Q 16.703125 13.921875 20.71875 10.15625 
Q 24.75 6.390625 31.78125 6.390625 
Q 38.8125 6.390625 42.859375 10.171875 
Q 46.921875 13.96875 46.921875 20.515625 
Q 46.921875 27.09375 42.890625 30.859375 
Q 38.875 34.625 31.78125 34.625 
z
M 21.921875 38.8125 
Q 15.578125 40.375 12.03125 44.71875 
Q 8.5 49.078125 8.5 55.328125 
Q 8.5 64.0625 14.71875 69.140625 
Q 20.953125 74.21875 31.78125 74.21875 
Q 42.671875 74.21875 48.875 69.140625 
Q 55.078125 64.0625 55.078125 55.328125 
Q 55.078125 49.078125 51.53125 44.71875 
Q 48 40.375 41.703125 38.8125 
Q 48.828125 37.15625 52.796875 32.3125 
Q 56.78125 27.484375 56.78125 20.515625 
Q 56.78125 9.90625 50.3125 4.234375 
Q 43.84375 -1.421875 31.78125 -1.421875 
Q 19.734375 -1.421875 13.25 4.234375 
Q 6.78125 9.90625 6.78125 20.515625 
Q 6.78125 27.484375 10.78125 32.3125 
Q 14.796875 37.15625 21.921875 38.8125 
z
M 18.3125 54.390625 
Q 18.3125 48.734375 21.84375 45.5625 
Q 25.390625 42.390625 31.78125 42.390625 
Q 38.140625 42.390625 41.71875 45.5625 
Q 45.3125 48.734375 45.3125 54.390625 
Q 45.3125 60.0625 41.71875 63.234375 
Q 38.140625 66.40625 31.78125 66.40625 
Q 25.390625 66.40625 21.84375 63.234375 
Q 18.3125 60.0625 18.3125 54.390625 
z
" id="DejaVuSans-56"/>
      </defs>
      <g transform="translate(27.240625 126.926282)scale(0.1 -0.1)">
       <use xlink:href="#DejaVuSans-56"/>
       <use x="63.623047" xlink:href="#DejaVuSans-48"/>
      </g>
     </g>
    </g>
    <g id="ytick_6">
     <g id="line2d_13">
      <g>
       <use style="stroke:#000000;stroke-width:0.8;" x="46.965625" xlink:href="#m125641d329" y="96.440206"/>
      </g>
     </g>
     <g id="text_14">
      <!-- 100 -->
      <g transform="translate(20.878125 100.239425)scale(0.1 -0.1)">
       <use xlink:href="#DejaVuSans-49"/>
       <use x="63.623047" xlink:href="#DejaVuSans-48"/>
       <use x="127.246094" xlink:href="#DejaVuSans-48"/>
      </g>
     </g>
    </g>
    <g id="ytick_7">
     <g id="line2d_14">
      <g>
       <use style="stroke:#000000;stroke-width:0.8;" x="46.965625" xlink:href="#m125641d329" y="69.75335"/>
      </g>
     </g>
     <g id="text_15">
      <!-- 120 -->
      <g transform="translate(20.878125 73.552569)scale(0.1 -0.1)">
       <use xlink:href="#DejaVuSans-49"/>
       <use x="63.623047" xlink:href="#DejaVuSans-50"/>
       <use x="127.246094" xlink:href="#DejaVuSans-48"/>
      </g>
     </g>
    </g>
    <g id="ytick_8">
     <g id="line2d_15">
      <g>
       <use style="stroke:#000000;stroke-width:0.8;" x="46.965625" xlink:href="#m125641d329" y="43.066494"/>
      </g>
     </g>
     <g id="text_16">
      <!-- 140 -->
      <g transform="translate(20.878125 46.865712)scale(0.1 -0.1)">
       <use xlink:href="#DejaVuSans-49"/>
       <use x="63.623047" xlink:href="#DejaVuSans-52"/>
       <use x="127.246094" xlink:href="#DejaVuSans-48"/>
      </g>
     </g>
    </g>
    <g id="text_17">
     <!-- ppmOH -->
     <defs>
      <path d="M 18.109375 8.203125 
L 18.109375 -20.796875 
L 9.078125 -20.796875 
L 9.078125 54.6875 
L 18.109375 54.6875 
L 18.109375 46.390625 
Q 20.953125 51.265625 25.265625 53.625 
Q 29.59375 56 35.59375 56 
Q 45.5625 56 51.78125 48.09375 
Q 58.015625 40.1875 58.015625 27.296875 
Q 58.015625 14.40625 51.78125 6.484375 
Q 45.5625 -1.421875 35.59375 -1.421875 
Q 29.59375 -1.421875 25.265625 0.953125 
Q 20.953125 3.328125 18.109375 8.203125 
z
M 48.6875 27.296875 
Q 48.6875 37.203125 44.609375 42.84375 
Q 40.53125 48.484375 33.40625 48.484375 
Q 26.265625 48.484375 22.1875 42.84375 
Q 18.109375 37.203125 18.109375 27.296875 
Q 18.109375 17.390625 22.1875 11.75 
Q 26.265625 6.109375 33.40625 6.109375 
Q 40.53125 6.109375 44.609375 11.75 
Q 48.6875 17.390625 48.6875 27.296875 
z
" id="DejaVuSans-112"/>
      <path d="M 39.40625 66.21875 
Q 28.65625 66.21875 22.328125 58.203125 
Q 16.015625 50.203125 16.015625 36.375 
Q 16.015625 22.609375 22.328125 14.59375 
Q 28.65625 6.59375 39.40625 6.59375 
Q 50.140625 6.59375 56.421875 14.59375 
Q 62.703125 22.609375 62.703125 36.375 
Q 62.703125 50.203125 56.421875 58.203125 
Q 50.140625 66.21875 39.40625 66.21875 
z
M 39.40625 74.21875 
Q 54.734375 74.21875 63.90625 63.9375 
Q 73.09375 53.65625 73.09375 36.375 
Q 73.09375 19.140625 63.90625 8.859375 
Q 54.734375 -1.421875 39.40625 -1.421875 
Q 24.03125 -1.421875 14.8125 8.828125 
Q 5.609375 19.09375 5.609375 36.375 
Q 5.609375 53.65625 14.8125 63.9375 
Q 24.03125 74.21875 39.40625 74.21875 
z
" id="DejaVuSans-79"/>
      <path d="M 9.8125 72.90625 
L 19.671875 72.90625 
L 19.671875 43.015625 
L 55.515625 43.015625 
L 55.515625 72.90625 
L 65.375 72.90625 
L 65.375 0 
L 55.515625 0 
L 55.515625 34.71875 
L 19.671875 34.71875 
L 19.671875 0 
L 9.8125 0 
z
" id="DejaVuSans-72"/>
     </defs>
     <g transform="translate(14.798438 149.952969)rotate(-90)scale(0.1 -0.1)">
      <use xlink:href="#DejaVuSans-112"/>
      <use x="63.476562" xlink:href="#DejaVuSans-112"/>
      <use x="126.953125" xlink:href="#DejaVuSans-109"/>
      <use x="224.365234" xlink:href="#DejaVuSans-79"/>
      <use x="303.076172" xlink:href="#DejaVuSans-72"/>
     </g>
    </g>
   </g>
   <g id="line2d_16">
    <path clip-path="url(#p93cdc4ef7a)" d="M 62.183807 229.874489 
L 126.619801 229.766365 
L 150.101627 229.533498 
L 165.415862 229.166944 
L 176.6463 228.672112 
L 184.813892 228.110054 
L 191.960535 227.41003 
L 198.086229 226.596651 
L 203.190973 225.721287 
L 208.295718 224.617711 
L 212.379514 223.532892 
L 216.46331 222.231408 
L 220.547106 220.672996 
L 223.609953 219.307905 
L 226.6728 217.750366 
L 229.735646 215.97635 
L 232.798493 213.959815 
L 235.86134 211.672861 
L 238.924187 209.08602 
L 241.987034 206.168711 
L 245.049881 202.889897 
L 248.112728 199.218984 
L 251.175575 195.126994 
L 254.238422 190.588039 
L 257.301269 185.581096 
L 260.364115 180.092056 
L 263.426962 174.115988 
L 266.489809 167.659493 
L 269.552656 160.742963 
L 273.636452 150.870227 
L 278.023464 139.580277 
L 284.057961 123.329439 
L 291.813946 102.424856 
L 296.122827 91.449117 
L 299.569931 83.266021 
L 303.017036 75.754525 
L 305.602364 70.619856 
L 308.341962 65.678397 
L 310.845724 61.624895 
L 313.422634 57.915278 
L 315.570059 55.175372 
L 317.717484 52.743764 
L 319.946721 50.530101 
L 322.196412 48.597159 
L 323.996164 47.253365 
L 326.486717 45.665898 
L 328.977271 44.36344 
L 331.467824 43.311908 
L 333.958377 42.478214 
L 337.279114 41.651792 
L 340.599852 41.090077 
L 343.920589 40.734708 
L 348.071511 40.506776 
L 353.558457 40.456431 
L 360.781274 40.639203 
L 366.547443 40.882766 
L 366.547443 40.882766 
" style="fill:none;stroke:#0000ff;stroke-linecap:square;stroke-width:1.5;"/>
   </g>
   <g id="line2d_17">
    <path clip-path="url(#p93cdc4ef7a)" d="M 62.183807 229.874489 
L 124.254353 229.764715 
L 147.442543 229.533632 
L 162.198663 229.187775 
L 172.738749 228.747641 
L 181.170818 228.203577 
L 188.548878 227.519496 
L 194.87293 226.717947 
L 200.142973 225.849053 
L 205.413016 224.746208 
L 209.62905 223.65542 
L 213.845085 222.339396 
L 218.061119 220.754502 
L 221.223145 219.359128 
L 224.385171 217.759872 
L 227.547196 215.929978 
L 230.709222 213.840175 
L 233.871248 211.458781 
L 237.033274 208.75195 
L 240.1953 205.684108 
L 243.357325 202.218615 
L 246.519351 198.318723 
L 249.681377 193.948866 
L 252.843403 189.076321 
L 256.005429 183.673295 
L 259.167454 177.71939 
L 262.32948 171.204427 
L 265.491506 164.13149 
L 268.653532 156.519996 
L 271.815558 148.408515 
L 276.031592 136.922252 
L 281.741498 120.49793 
L 291.829275 91.164689 
L 295.70919 80.606263 
L 298.813121 72.73342 
L 301.917053 65.495607 
L 304.245001 60.538846 
L 306.57295 56.017279 
L 308.900899 51.948135 
L 311.228847 48.338678 
L 313.682234 45.029511 
L 315.918772 42.444203 
L 317.983907 40.40732 
L 319.751743 38.917281 
L 321.622385 37.580208 
L 323.608975 36.411354 
L 325.595566 35.479789 
L 327.582157 34.762909 
L 329.568748 34.237853 
L 332.217535 33.797209 
L 334.866323 33.606042 
L 337.515111 33.616526 
L 340.826095 33.847834 
L 344.799277 34.350703 
L 350.759049 35.362962 
L 365.989578 38.124773 
L 365.989578 38.124773 
" style="fill:none;stroke:#ff0000;stroke-linecap:square;stroke-width:1.5;"/>
   </g>
   <g id="line2d_18">
    <defs>
     <path d="M 0 3 
C 0.795609 3 1.55874 2.683901 2.12132 2.12132 
C 2.683901 1.55874 3 0.795609 3 0 
C 3 -0.795609 2.683901 -1.55874 2.12132 -2.12132 
C 1.55874 -2.683901 0.795609 -3 0 -3 
C -0.795609 -3 -1.55874 -2.683901 -2.12132 -2.12132 
C -2.683901 -1.55874 -3 -0.795609 -3 0 
C -3 0.795609 -2.683901 1.55874 -2.12132 2.12132 
C -1.55874 2.683901 -0.795609 3 0 3 
z
" id="m1092f54e4c" style="stroke:#000000;"/>
    </defs>
    <g clip-path="url(#p93cdc4ef7a)">
     <use style="stroke:#000000;" x="62.183807" xlink:href="#m1092f54e4c" y="229.874489"/>
     <use style="stroke:#000000;" x="62.184429" xlink:href="#m1092f54e4c" y="229.874489"/>
     <use style="stroke:#000000;" x="62.185469" xlink:href="#m1092f54e4c" y="229.874489"/>
     <use style="stroke:#000000;" x="62.187501" xlink:href="#m1092f54e4c" y="229.874489"/>
     <use style="stroke:#000000;" x="62.191303" xlink:href="#m1092f54e4c" y="229.874489"/>
     <use style="stroke:#000000;" x="62.195104" xlink:href="#m1092f54e4c" y="229.874489"/>
     <use style="stroke:#000000;" x="62.198906" xlink:href="#m1092f54e4c" y="229.874489"/>
     <use style="stroke:#000000;" x="62.202708" xlink:href="#m1092f54e4c" y="229.874489"/>
     <use style="stroke:#000000;" x="62.212104" xlink:href="#m1092f54e4c" y="229.874489"/>
     <use style="stroke:#000000;" x="62.231835" xlink:href="#m1092f54e4c" y="229.874488"/>
     <use style="stroke:#000000;" x="62.251566" xlink:href="#m1092f54e4c" y="229.874488"/>
     <use style="stroke:#000000;" x="62.271297" xlink:href="#m1092f54e4c" y="229.874488"/>
     <use style="stroke:#000000;" x="62.291028" xlink:href="#m1092f54e4c" y="229.874488"/>
     <use style="stroke:#000000;" x="62.318861" xlink:href="#m1092f54e4c" y="229.874487"/>
     <use style="stroke:#000000;" x="62.346694" xlink:href="#m1092f54e4c" y="229.874486"/>
     <use style="stroke:#000000;" x="62.374527" xlink:href="#m1092f54e4c" y="229.874485"/>
     <use style="stroke:#000000;" x="62.438803" xlink:href="#m1092f54e4c" y="229.874483"/>
     <use style="stroke:#000000;" x="62.50308" xlink:href="#m1092f54e4c" y="229.87448"/>
     <use style="stroke:#000000;" x="62.567356" xlink:href="#m1092f54e4c" y="229.874476"/>
     <use style="stroke:#000000;" x="62.631632" xlink:href="#m1092f54e4c" y="229.874471"/>
     <use style="stroke:#000000;" x="62.695909" xlink:href="#m1092f54e4c" y="229.874466"/>
     <use style="stroke:#000000;" x="62.813116" xlink:href="#m1092f54e4c" y="229.874455"/>
     <use style="stroke:#000000;" x="62.930324" xlink:href="#m1092f54e4c" y="229.874443"/>
     <use style="stroke:#000000;" x="63.047531" xlink:href="#m1092f54e4c" y="229.874428"/>
     <use style="stroke:#000000;" x="63.164739" xlink:href="#m1092f54e4c" y="229.874412"/>
     <use style="stroke:#000000;" x="63.281946" xlink:href="#m1092f54e4c" y="229.874395"/>
     <use style="stroke:#000000;" x="63.460444" xlink:href="#m1092f54e4c" y="229.874365"/>
     <use style="stroke:#000000;" x="63.638942" xlink:href="#m1092f54e4c" y="229.874333"/>
     <use style="stroke:#000000;" x="63.81744" xlink:href="#m1092f54e4c" y="229.874298"/>
     <use style="stroke:#000000;" x="63.995937" xlink:href="#m1092f54e4c" y="229.874261"/>
     <use style="stroke:#000000;" x="64.293837" xlink:href="#m1092f54e4c" y="229.874194"/>
     <use style="stroke:#000000;" x="64.591737" xlink:href="#m1092f54e4c" y="229.874122"/>
     <use style="stroke:#000000;" x="64.889636" xlink:href="#m1092f54e4c" y="229.874046"/>
     <use style="stroke:#000000;" x="65.187536" xlink:href="#m1092f54e4c" y="229.873966"/>
     <use style="stroke:#000000;" x="65.485436" xlink:href="#m1092f54e4c" y="229.873883"/>
     <use style="stroke:#000000;" x="65.783335" xlink:href="#m1092f54e4c" y="229.873796"/>
     <use style="stroke:#000000;" x="66.081235" xlink:href="#m1092f54e4c" y="229.873707"/>
     <use style="stroke:#000000;" x="66.379134" xlink:href="#m1092f54e4c" y="229.873616"/>
     <use style="stroke:#000000;" x="66.677034" xlink:href="#m1092f54e4c" y="229.873522"/>
     <use style="stroke:#000000;" x="66.974934" xlink:href="#m1092f54e4c" y="229.873426"/>
     <use style="stroke:#000000;" x="67.272833" xlink:href="#m1092f54e4c" y="229.873328"/>
     <use style="stroke:#000000;" x="67.570733" xlink:href="#m1092f54e4c" y="229.873228"/>
     <use style="stroke:#000000;" x="67.868633" xlink:href="#m1092f54e4c" y="229.873126"/>
     <use style="stroke:#000000;" x="68.166532" xlink:href="#m1092f54e4c" y="229.873023"/>
     <use style="stroke:#000000;" x="68.464432" xlink:href="#m1092f54e4c" y="229.872917"/>
     <use style="stroke:#000000;" x="68.941343" xlink:href="#m1092f54e4c" y="229.872744"/>
     <use style="stroke:#000000;" x="69.418254" xlink:href="#m1092f54e4c" y="229.872566"/>
     <use style="stroke:#000000;" x="69.895165" xlink:href="#m1092f54e4c" y="229.872384"/>
     <use style="stroke:#000000;" x="70.372076" xlink:href="#m1092f54e4c" y="229.872196"/>
     <use style="stroke:#000000;" x="70.848987" xlink:href="#m1092f54e4c" y="229.872004"/>
     <use style="stroke:#000000;" x="71.325898" xlink:href="#m1092f54e4c" y="229.871807"/>
     <use style="stroke:#000000;" x="71.80281" xlink:href="#m1092f54e4c" y="229.871604"/>
     <use style="stroke:#000000;" x="72.699859" xlink:href="#m1092f54e4c" y="229.87121"/>
     <use style="stroke:#000000;" x="73.596909" xlink:href="#m1092f54e4c" y="229.870796"/>
     <use style="stroke:#000000;" x="74.493958" xlink:href="#m1092f54e4c" y="229.870362"/>
     <use style="stroke:#000000;" x="75.391008" xlink:href="#m1092f54e4c" y="229.869908"/>
     <use style="stroke:#000000;" x="76.288057" xlink:href="#m1092f54e4c" y="229.869432"/>
     <use style="stroke:#000000;" x="77.185107" xlink:href="#m1092f54e4c" y="229.868933"/>
     <use style="stroke:#000000;" x="78.827711" xlink:href="#m1092f54e4c" y="229.86796"/>
     <use style="stroke:#000000;" x="80.470315" xlink:href="#m1092f54e4c" y="229.866902"/>
     <use style="stroke:#000000;" x="82.112918" xlink:href="#m1092f54e4c" y="229.865754"/>
     <use style="stroke:#000000;" x="83.755522" xlink:href="#m1092f54e4c" y="229.864508"/>
     <use style="stroke:#000000;" x="85.398126" xlink:href="#m1092f54e4c" y="229.863156"/>
     <use style="stroke:#000000;" x="87.04073" xlink:href="#m1092f54e4c" y="229.861691"/>
     <use style="stroke:#000000;" x="88.683334" xlink:href="#m1092f54e4c" y="229.860104"/>
     <use style="stroke:#000000;" x="90.325937" xlink:href="#m1092f54e4c" y="229.858384"/>
     <use style="stroke:#000000;" x="91.968541" xlink:href="#m1092f54e4c" y="229.856523"/>
     <use style="stroke:#000000;" x="93.611145" xlink:href="#m1092f54e4c" y="229.854508"/>
     <use style="stroke:#000000;" x="95.253749" xlink:href="#m1092f54e4c" y="229.852327"/>
     <use style="stroke:#000000;" x="96.896353" xlink:href="#m1092f54e4c" y="229.849968"/>
     <use style="stroke:#000000;" x="98.538957" xlink:href="#m1092f54e4c" y="229.847417"/>
     <use style="stroke:#000000;" x="100.18156" xlink:href="#m1092f54e4c" y="229.844658"/>
     <use style="stroke:#000000;" x="101.824164" xlink:href="#m1092f54e4c" y="229.841676"/>
     <use style="stroke:#000000;" x="103.466768" xlink:href="#m1092f54e4c" y="229.838452"/>
     <use style="stroke:#000000;" x="105.109372" xlink:href="#m1092f54e4c" y="229.834969"/>
     <use style="stroke:#000000;" x="106.751976" xlink:href="#m1092f54e4c" y="229.831204"/>
     <use style="stroke:#000000;" x="108.394579" xlink:href="#m1092f54e4c" y="229.827137"/>
     <use style="stroke:#000000;" x="110.037183" xlink:href="#m1092f54e4c" y="229.822743"/>
     <use style="stroke:#000000;" x="111.679787" xlink:href="#m1092f54e4c" y="229.817996"/>
     <use style="stroke:#000000;" x="113.322391" xlink:href="#m1092f54e4c" y="229.81287"/>
     <use style="stroke:#000000;" x="114.964995" xlink:href="#m1092f54e4c" y="229.807333"/>
     <use style="stroke:#000000;" x="116.607598" xlink:href="#m1092f54e4c" y="229.801355"/>
     <use style="stroke:#000000;" x="118.250202" xlink:href="#m1092f54e4c" y="229.794899"/>
     <use style="stroke:#000000;" x="119.892806" xlink:href="#m1092f54e4c" y="229.787928"/>
     <use style="stroke:#000000;" x="121.53541" xlink:href="#m1092f54e4c" y="229.780402"/>
     <use style="stroke:#000000;" x="123.178014" xlink:href="#m1092f54e4c" y="229.772277"/>
     <use style="stroke:#000000;" x="124.820618" xlink:href="#m1092f54e4c" y="229.763505"/>
     <use style="stroke:#000000;" x="126.038439" xlink:href="#m1092f54e4c" y="229.756555"/>
     <use style="stroke:#000000;" x="127.25626" xlink:href="#m1092f54e4c" y="229.749199"/>
     <use style="stroke:#000000;" x="128.474081" xlink:href="#m1092f54e4c" y="229.741415"/>
     <use style="stroke:#000000;" x="129.691902" xlink:href="#m1092f54e4c" y="229.733176"/>
     <use style="stroke:#000000;" x="130.909723" xlink:href="#m1092f54e4c" y="229.724458"/>
     <use style="stroke:#000000;" x="132.127544" xlink:href="#m1092f54e4c" y="229.715233"/>
     <use style="stroke:#000000;" x="133.345366" xlink:href="#m1092f54e4c" y="229.70547"/>
     <use style="stroke:#000000;" x="134.563187" xlink:href="#m1092f54e4c" y="229.695139"/>
     <use style="stroke:#000000;" x="135.781008" xlink:href="#m1092f54e4c" y="229.684207"/>
     <use style="stroke:#000000;" x="136.998829" xlink:href="#m1092f54e4c" y="229.67264"/>
     <use style="stroke:#000000;" x="138.21665" xlink:href="#m1092f54e4c" y="229.6604"/>
     <use style="stroke:#000000;" x="139.434471" xlink:href="#m1092f54e4c" y="229.647449"/>
     <use style="stroke:#000000;" x="140.652293" xlink:href="#m1092f54e4c" y="229.633745"/>
     <use style="stroke:#000000;" x="141.870114" xlink:href="#m1092f54e4c" y="229.619245"/>
     <use style="stroke:#000000;" x="143.087935" xlink:href="#m1092f54e4c" y="229.603904"/>
     <use style="stroke:#000000;" x="144.305756" xlink:href="#m1092f54e4c" y="229.587672"/>
     <use style="stroke:#000000;" x="145.523577" xlink:href="#m1092f54e4c" y="229.570497"/>
     <use style="stroke:#000000;" x="146.741398" xlink:href="#m1092f54e4c" y="229.552326"/>
     <use style="stroke:#000000;" x="147.959219" xlink:href="#m1092f54e4c" y="229.533101"/>
     <use style="stroke:#000000;" x="149.177041" xlink:href="#m1092f54e4c" y="229.512762"/>
     <use style="stroke:#000000;" x="150.394862" xlink:href="#m1092f54e4c" y="229.491243"/>
     <use style="stroke:#000000;" x="151.612683" xlink:href="#m1092f54e4c" y="229.468476"/>
     <use style="stroke:#000000;" x="152.830504" xlink:href="#m1092f54e4c" y="229.444391"/>
     <use style="stroke:#000000;" x="154.048325" xlink:href="#m1092f54e4c" y="229.41891"/>
     <use style="stroke:#000000;" x="155.266146" xlink:href="#m1092f54e4c" y="229.391954"/>
     <use style="stroke:#000000;" x="156.483968" xlink:href="#m1092f54e4c" y="229.363437"/>
     <use style="stroke:#000000;" x="157.701789" xlink:href="#m1092f54e4c" y="229.333269"/>
     <use style="stroke:#000000;" x="158.91961" xlink:href="#m1092f54e4c" y="229.301356"/>
     <use style="stroke:#000000;" x="160.137431" xlink:href="#m1092f54e4c" y="229.267596"/>
     <use style="stroke:#000000;" x="161.355252" xlink:href="#m1092f54e4c" y="229.231885"/>
     <use style="stroke:#000000;" x="162.573073" xlink:href="#m1092f54e4c" y="229.194109"/>
     <use style="stroke:#000000;" x="163.790894" xlink:href="#m1092f54e4c" y="229.154151"/>
     <use style="stroke:#000000;" x="165.008716" xlink:href="#m1092f54e4c" y="229.111884"/>
     <use style="stroke:#000000;" x="166.226537" xlink:href="#m1092f54e4c" y="229.067176"/>
     <use style="stroke:#000000;" x="167.444358" xlink:href="#m1092f54e4c" y="229.019888"/>
     <use style="stroke:#000000;" x="168.662179" xlink:href="#m1092f54e4c" y="228.969871"/>
     <use style="stroke:#000000;" x="169.88" xlink:href="#m1092f54e4c" y="228.91697"/>
     <use style="stroke:#000000;" x="171.097821" xlink:href="#m1092f54e4c" y="228.861019"/>
     <use style="stroke:#000000;" x="172.315643" xlink:href="#m1092f54e4c" y="228.801844"/>
     <use style="stroke:#000000;" x="173.533464" xlink:href="#m1092f54e4c" y="228.739262"/>
     <use style="stroke:#000000;" x="174.751285" xlink:href="#m1092f54e4c" y="228.673076"/>
     <use style="stroke:#000000;" x="175.969106" xlink:href="#m1092f54e4c" y="228.603084"/>
     <use style="stroke:#000000;" x="177.186927" xlink:href="#m1092f54e4c" y="228.529066"/>
     <use style="stroke:#000000;" x="178.404748" xlink:href="#m1092f54e4c" y="228.450796"/>
     <use style="stroke:#000000;" x="179.622569" xlink:href="#m1092f54e4c" y="228.368031"/>
     <use style="stroke:#000000;" x="180.840391" xlink:href="#m1092f54e4c" y="228.280516"/>
     <use style="stroke:#000000;" x="182.058212" xlink:href="#m1092f54e4c" y="228.187982"/>
     <use style="stroke:#000000;" x="183.276033" xlink:href="#m1092f54e4c" y="228.090146"/>
     <use style="stroke:#000000;" x="184.493854" xlink:href="#m1092f54e4c" y="227.986707"/>
     <use style="stroke:#000000;" x="185.711675" xlink:href="#m1092f54e4c" y="227.877351"/>
     <use style="stroke:#000000;" x="186.929496" xlink:href="#m1092f54e4c" y="227.761743"/>
     <use style="stroke:#000000;" x="188.147318" xlink:href="#m1092f54e4c" y="227.639533"/>
     <use style="stroke:#000000;" x="189.365139" xlink:href="#m1092f54e4c" y="227.51035"/>
     <use style="stroke:#000000;" x="190.58296" xlink:href="#m1092f54e4c" y="227.373804"/>
     <use style="stroke:#000000;" x="191.800781" xlink:href="#m1092f54e4c" y="227.229484"/>
     <use style="stroke:#000000;" x="193.018602" xlink:href="#m1092f54e4c" y="227.076956"/>
     <use style="stroke:#000000;" x="194.236423" xlink:href="#m1092f54e4c" y="226.915764"/>
     <use style="stroke:#000000;" x="195.454245" xlink:href="#m1092f54e4c" y="226.745427"/>
     <use style="stroke:#000000;" x="196.672066" xlink:href="#m1092f54e4c" y="226.565439"/>
     <use style="stroke:#000000;" x="197.889887" xlink:href="#m1092f54e4c" y="226.375268"/>
     <use style="stroke:#000000;" x="199.107708" xlink:href="#m1092f54e4c" y="226.174353"/>
     <use style="stroke:#000000;" x="200.325529" xlink:href="#m1092f54e4c" y="225.962106"/>
     <use style="stroke:#000000;" x="201.54335" xlink:href="#m1092f54e4c" y="225.737906"/>
     <use style="stroke:#000000;" x="202.761171" xlink:href="#m1092f54e4c" y="225.501103"/>
     <use style="stroke:#000000;" x="203.978993" xlink:href="#m1092f54e4c" y="225.251011"/>
     <use style="stroke:#000000;" x="205.196814" xlink:href="#m1092f54e4c" y="224.986914"/>
     <use style="stroke:#000000;" x="206.414635" xlink:href="#m1092f54e4c" y="224.708056"/>
     <use style="stroke:#000000;" x="207.632456" xlink:href="#m1092f54e4c" y="224.413646"/>
     <use style="stroke:#000000;" x="208.850277" xlink:href="#m1092f54e4c" y="224.102854"/>
     <use style="stroke:#000000;" x="210.068098" xlink:href="#m1092f54e4c" y="223.77481"/>
     <use style="stroke:#000000;" x="211.28592" xlink:href="#m1092f54e4c" y="223.428602"/>
     <use style="stroke:#000000;" x="212.503741" xlink:href="#m1092f54e4c" y="223.063275"/>
     <use style="stroke:#000000;" x="213.721562" xlink:href="#m1092f54e4c" y="222.677832"/>
     <use style="stroke:#000000;" x="214.939383" xlink:href="#m1092f54e4c" y="222.271227"/>
     <use style="stroke:#000000;" x="216.157204" xlink:href="#m1092f54e4c" y="221.84237"/>
     <use style="stroke:#000000;" x="217.375025" xlink:href="#m1092f54e4c" y="221.39012"/>
     <use style="stroke:#000000;" x="218.592846" xlink:href="#m1092f54e4c" y="220.913289"/>
     <use style="stroke:#000000;" x="219.810668" xlink:href="#m1092f54e4c" y="220.410638"/>
     <use style="stroke:#000000;" x="221.028489" xlink:href="#m1092f54e4c" y="219.880876"/>
     <use style="stroke:#000000;" x="222.24631" xlink:href="#m1092f54e4c" y="219.322661"/>
     <use style="stroke:#000000;" x="223.464131" xlink:href="#m1092f54e4c" y="218.734598"/>
     <use style="stroke:#000000;" x="224.681952" xlink:href="#m1092f54e4c" y="218.115239"/>
     <use style="stroke:#000000;" x="225.899773" xlink:href="#m1092f54e4c" y="217.463083"/>
     <use style="stroke:#000000;" x="227.117595" xlink:href="#m1092f54e4c" y="216.776574"/>
     <use style="stroke:#000000;" x="228.335416" xlink:href="#m1092f54e4c" y="216.054108"/>
     <use style="stroke:#000000;" x="229.553237" xlink:href="#m1092f54e4c" y="215.294025"/>
     <use style="stroke:#000000;" x="230.771058" xlink:href="#m1092f54e4c" y="214.494618"/>
     <use style="stroke:#000000;" x="231.988879" xlink:href="#m1092f54e4c" y="213.654127"/>
     <use style="stroke:#000000;" x="233.2067" xlink:href="#m1092f54e4c" y="212.77075"/>
     <use style="stroke:#000000;" x="234.424521" xlink:href="#m1092f54e4c" y="211.842639"/>
     <use style="stroke:#000000;" x="235.642343" xlink:href="#m1092f54e4c" y="210.867904"/>
     <use style="stroke:#000000;" x="236.860164" xlink:href="#m1092f54e4c" y="209.844621"/>
     <use style="stroke:#000000;" x="238.077985" xlink:href="#m1092f54e4c" y="208.770833"/>
     <use style="stroke:#000000;" x="239.295806" xlink:href="#m1092f54e4c" y="207.644556"/>
     <use style="stroke:#000000;" x="240.513627" xlink:href="#m1092f54e4c" y="206.463786"/>
     <use style="stroke:#000000;" x="241.731448" xlink:href="#m1092f54e4c" y="205.226508"/>
     <use style="stroke:#000000;" x="242.94927" xlink:href="#m1092f54e4c" y="203.930698"/>
     <use style="stroke:#000000;" x="244.167091" xlink:href="#m1092f54e4c" y="202.574341"/>
     <use style="stroke:#000000;" x="245.384912" xlink:href="#m1092f54e4c" y="201.155433"/>
     <use style="stroke:#000000;" x="246.602733" xlink:href="#m1092f54e4c" y="199.671998"/>
     <use style="stroke:#000000;" x="247.820554" xlink:href="#m1092f54e4c" y="198.122096"/>
     <use style="stroke:#000000;" x="249.038375" xlink:href="#m1092f54e4c" y="196.503842"/>
     <use style="stroke:#000000;" x="250.256196" xlink:href="#m1092f54e4c" y="194.815416"/>
     <use style="stroke:#000000;" x="251.474018" xlink:href="#m1092f54e4c" y="193.055081"/>
     <use style="stroke:#000000;" x="252.691839" xlink:href="#m1092f54e4c" y="191.221202"/>
     <use style="stroke:#000000;" x="253.90966" xlink:href="#m1092f54e4c" y="189.312263"/>
     <use style="stroke:#000000;" x="255.127481" xlink:href="#m1092f54e4c" y="187.326885"/>
     <use style="stroke:#000000;" x="256.345302" xlink:href="#m1092f54e4c" y="185.263852"/>
     <use style="stroke:#000000;" x="257.563123" xlink:href="#m1092f54e4c" y="183.122127"/>
     <use style="stroke:#000000;" x="258.441273" xlink:href="#m1092f54e4c" y="181.52846"/>
     <use style="stroke:#000000;" x="259.319423" xlink:href="#m1092f54e4c" y="179.893201"/>
     <use style="stroke:#000000;" x="260.197574" xlink:href="#m1092f54e4c" y="178.216178"/>
     <use style="stroke:#000000;" x="261.075724" xlink:href="#m1092f54e4c" y="176.497289"/>
     <use style="stroke:#000000;" x="261.953874" xlink:href="#m1092f54e4c" y="174.736508"/>
     <use style="stroke:#000000;" x="262.832024" xlink:href="#m1092f54e4c" y="172.933892"/>
     <use style="stroke:#000000;" x="263.710174" xlink:href="#m1092f54e4c" y="171.089581"/>
     <use style="stroke:#000000;" x="264.588324" xlink:href="#m1092f54e4c" y="169.203805"/>
     <use style="stroke:#000000;" x="265.466474" xlink:href="#m1092f54e4c" y="167.276891"/>
     <use style="stroke:#000000;" x="266.344624" xlink:href="#m1092f54e4c" y="165.309264"/>
     <use style="stroke:#000000;" x="267.222774" xlink:href="#m1092f54e4c" y="163.301451"/>
     <use style="stroke:#000000;" x="268.100924" xlink:href="#m1092f54e4c" y="161.254088"/>
     <use style="stroke:#000000;" x="268.979074" xlink:href="#m1092f54e4c" y="159.167923"/>
     <use style="stroke:#000000;" x="269.857224" xlink:href="#m1092f54e4c" y="157.043817"/>
     <use style="stroke:#000000;" x="270.735374" xlink:href="#m1092f54e4c" y="154.88275"/>
     <use style="stroke:#000000;" x="271.613524" xlink:href="#m1092f54e4c" y="152.685822"/>
     <use style="stroke:#000000;" x="272.491674" xlink:href="#m1092f54e4c" y="150.454255"/>
     <use style="stroke:#000000;" x="273.369825" xlink:href="#m1092f54e4c" y="148.189396"/>
     <use style="stroke:#000000;" x="274.247975" xlink:href="#m1092f54e4c" y="145.892719"/>
     <use style="stroke:#000000;" x="275.126125" xlink:href="#m1092f54e4c" y="143.56582"/>
     <use style="stroke:#000000;" x="276.004275" xlink:href="#m1092f54e4c" y="141.210425"/>
     <use style="stroke:#000000;" x="276.882425" xlink:href="#m1092f54e4c" y="138.828383"/>
     <use style="stroke:#000000;" x="277.760575" xlink:href="#m1092f54e4c" y="136.421666"/>
     <use style="stroke:#000000;" x="278.638725" xlink:href="#m1092f54e4c" y="133.992369"/>
     <use style="stroke:#000000;" x="279.516875" xlink:href="#m1092f54e4c" y="131.542702"/>
     <use style="stroke:#000000;" x="280.395025" xlink:href="#m1092f54e4c" y="129.074991"/>
     <use style="stroke:#000000;" x="281.273175" xlink:href="#m1092f54e4c" y="126.59167"/>
     <use style="stroke:#000000;" x="282.151325" xlink:href="#m1092f54e4c" y="124.095277"/>
     <use style="stroke:#000000;" x="283.029475" xlink:href="#m1092f54e4c" y="121.588447"/>
     <use style="stroke:#000000;" x="283.907625" xlink:href="#m1092f54e4c" y="119.073902"/>
     <use style="stroke:#000000;" x="284.785775" xlink:href="#m1092f54e4c" y="116.55445"/>
     <use style="stroke:#000000;" x="285.663925" xlink:href="#m1092f54e4c" y="114.032965"/>
     <use style="stroke:#000000;" x="286.542076" xlink:href="#m1092f54e4c" y="111.512389"/>
     <use style="stroke:#000000;" x="287.420226" xlink:href="#m1092f54e4c" y="108.995712"/>
     <use style="stroke:#000000;" x="288.298376" xlink:href="#m1092f54e4c" y="106.485967"/>
     <use style="stroke:#000000;" x="289.176526" xlink:href="#m1092f54e4c" y="103.986215"/>
     <use style="stroke:#000000;" x="290.054676" xlink:href="#m1092f54e4c" y="101.499535"/>
     <use style="stroke:#000000;" x="290.932826" xlink:href="#m1092f54e4c" y="99.029007"/>
     <use style="stroke:#000000;" x="291.810976" xlink:href="#m1092f54e4c" y="96.577706"/>
     <use style="stroke:#000000;" x="292.689126" xlink:href="#m1092f54e4c" y="94.148683"/>
     <use style="stroke:#000000;" x="293.567276" xlink:href="#m1092f54e4c" y="91.744952"/>
     <use style="stroke:#000000;" x="294.445426" xlink:href="#m1092f54e4c" y="89.369481"/>
     <use style="stroke:#000000;" x="295.323576" xlink:href="#m1092f54e4c" y="87.025173"/>
     <use style="stroke:#000000;" x="296.201726" xlink:href="#m1092f54e4c" y="84.714856"/>
     <use style="stroke:#000000;" x="297.079876" xlink:href="#m1092f54e4c" y="82.441271"/>
     <use style="stroke:#000000;" x="297.958026" xlink:href="#m1092f54e4c" y="80.207057"/>
     <use style="stroke:#000000;" x="298.836176" xlink:href="#m1092f54e4c" y="78.01474"/>
     <use style="stroke:#000000;" x="299.714327" xlink:href="#m1092f54e4c" y="75.866724"/>
     <use style="stroke:#000000;" x="300.592477" xlink:href="#m1092f54e4c" y="73.765276"/>
     <use style="stroke:#000000;" x="301.470627" xlink:href="#m1092f54e4c" y="71.712521"/>
     <use style="stroke:#000000;" x="302.348777" xlink:href="#m1092f54e4c" y="69.710431"/>
     <use style="stroke:#000000;" x="303.226927" xlink:href="#m1092f54e4c" y="67.760818"/>
     <use style="stroke:#000000;" x="304.105077" xlink:href="#m1092f54e4c" y="65.865325"/>
     <use style="stroke:#000000;" x="304.983227" xlink:href="#m1092f54e4c" y="64.025424"/>
     <use style="stroke:#000000;" x="305.861377" xlink:href="#m1092f54e4c" y="62.242411"/>
     <use style="stroke:#000000;" x="306.739527" xlink:href="#m1092f54e4c" y="60.517399"/>
     <use style="stroke:#000000;" x="307.617677" xlink:href="#m1092f54e4c" y="58.851321"/>
     <use style="stroke:#000000;" x="308.495827" xlink:href="#m1092f54e4c" y="57.244926"/>
     <use style="stroke:#000000;" x="309.373977" xlink:href="#m1092f54e4c" y="55.698781"/>
     <use style="stroke:#000000;" x="310.252127" xlink:href="#m1092f54e4c" y="54.213271"/>
     <use style="stroke:#000000;" x="310.879803" xlink:href="#m1092f54e4c" y="53.188753"/>
     <use style="stroke:#000000;" x="311.507478" xlink:href="#m1092f54e4c" y="52.195343"/>
     <use style="stroke:#000000;" x="312.135154" xlink:href="#m1092f54e4c" y="51.233016"/>
     <use style="stroke:#000000;" x="312.762829" xlink:href="#m1092f54e4c" y="50.301705"/>
     <use style="stroke:#000000;" x="313.390505" xlink:href="#m1092f54e4c" y="49.401297"/>
     <use style="stroke:#000000;" x="314.01818" xlink:href="#m1092f54e4c" y="48.531641"/>
     <use style="stroke:#000000;" x="314.645855" xlink:href="#m1092f54e4c" y="47.692544"/>
     <use style="stroke:#000000;" x="315.273531" xlink:href="#m1092f54e4c" y="46.883774"/>
     <use style="stroke:#000000;" x="315.901206" xlink:href="#m1092f54e4c" y="46.105062"/>
     <use style="stroke:#000000;" x="316.528882" xlink:href="#m1092f54e4c" y="45.356102"/>
     <use style="stroke:#000000;" x="317.156557" xlink:href="#m1092f54e4c" y="44.636558"/>
     <use style="stroke:#000000;" x="317.784233" xlink:href="#m1092f54e4c" y="43.946056"/>
     <use style="stroke:#000000;" x="318.771771" xlink:href="#m1092f54e4c" y="42.917484"/>
     <use style="stroke:#000000;" x="319.75931" xlink:href="#m1092f54e4c" y="41.958093"/>
     <use style="stroke:#000000;" x="320.746849" xlink:href="#m1092f54e4c" y="41.066017"/>
     <use style="stroke:#000000;" x="321.734388" xlink:href="#m1092f54e4c" y="40.23925"/>
     <use style="stroke:#000000;" x="322.721926" xlink:href="#m1092f54e4c" y="39.475663"/>
     <use style="stroke:#000000;" x="323.709465" xlink:href="#m1092f54e4c" y="38.773022"/>
     <use style="stroke:#000000;" x="324.697004" xlink:href="#m1092f54e4c" y="38.129009"/>
     <use style="stroke:#000000;" x="325.684543" xlink:href="#m1092f54e4c" y="37.541235"/>
     <use style="stroke:#000000;" x="326.672082" xlink:href="#m1092f54e4c" y="37.00726"/>
     <use style="stroke:#000000;" x="327.65962" xlink:href="#m1092f54e4c" y="36.524609"/>
     <use style="stroke:#000000;" x="328.647159" xlink:href="#m1092f54e4c" y="36.090786"/>
     <use style="stroke:#000000;" x="329.634698" xlink:href="#m1092f54e4c" y="35.703289"/>
     <use style="stroke:#000000;" x="330.622237" xlink:href="#m1092f54e4c" y="35.359624"/>
     <use style="stroke:#000000;" x="331.348552" xlink:href="#m1092f54e4c" y="35.133398"/>
     <use style="stroke:#000000;" x="332.074868" xlink:href="#m1092f54e4c" y="34.928569"/>
     <use style="stroke:#000000;" x="332.801184" xlink:href="#m1092f54e4c" y="34.744175"/>
     <use style="stroke:#000000;" x="333.5275" xlink:href="#m1092f54e4c" y="34.579268"/>
     <use style="stroke:#000000;" x="334.253815" xlink:href="#m1092f54e4c" y="34.432914"/>
     <use style="stroke:#000000;" x="334.980131" xlink:href="#m1092f54e4c" y="34.304198"/>
     <use style="stroke:#000000;" x="335.706447" xlink:href="#m1092f54e4c" y="34.192222"/>
    </g>
   </g>
   <g id="line2d_19">
    <path clip-path="url(#p93cdc4ef7a)" d="M 62.183807 229.874489 
L 123.178014 229.767613 
L 147.959219 229.522697 
L 162.573073 229.177695 
L 173.533464 228.715202 
L 182.058212 228.152828 
L 189.365139 227.458909 
L 195.454245 226.671867 
L 200.325529 225.862326 
L 205.196814 224.849769 
L 210.068098 223.582696 
L 213.721562 222.431016 
L 217.375025 221.074675 
L 221.028489 219.475582 
L 224.681952 217.601503 
L 228.335416 215.400571 
L 231.988879 212.833175 
L 234.424521 210.888855 
L 236.860164 208.746652 
L 239.295806 206.37662 
L 241.731448 203.775308 
L 244.167091 200.922037 
L 246.602733 197.795563 
L 249.038375 194.393295 
L 251.474018 190.687348 
L 253.90966 186.677231 
L 256.345302 182.357005 
L 259.319423 176.644525 
L 262.832024 169.280759 
L 266.344624 161.290467 
L 269.857224 152.709214 
L 274.247975 141.283775 
L 279.516875 126.839258 
L 292.689126 90.256984 
L 297.079876 78.935416 
L 300.592477 70.501719 
L 304.105077 62.760456 
L 306.739527 57.483897 
L 309.373977 52.685565 
L 311.507478 49.188992 
L 314.01818 45.525925 
L 316.528882 42.346337 
L 318.771771 39.937211 
L 320.746849 38.12328 
L 322.721926 36.588843 
L 324.697004 35.319085 
L 326.672082 34.295738 
L 328.647159 33.511953 
L 330.622237 32.918015 
L 332.801184 32.486378 
L 334.980131 32.244254 
L 335.706447 32.201761 
L 335.706447 32.201761 
" style="fill:none;stroke:#0000ff;stroke-dasharray:5.55,2.4;stroke-dashoffset:0;stroke-width:1.5;"/>
   </g>
   <g id="line2d_20">
    <path clip-path="url(#p93cdc4ef7a)" d="M 62.183807 229.874489 
L 129.691902 229.766463 
L 152.830504 229.532761 
L 167.444358 229.180197 
L 178.404748 228.700295 
L 186.929496 228.114948 
L 194.236423 227.392539 
L 200.325529 226.576591 
L 205.196814 225.741845 
L 210.068098 224.702452 
L 214.939383 223.413577 
L 218.592846 222.251351 
L 222.24631 220.887499 
L 225.899773 219.2949 
L 229.553237 217.437226 
L 233.2067 215.273718 
L 236.860164 212.767944 
L 240.513627 209.862096 
L 242.94927 207.688335 
L 245.384912 205.296372 
L 247.820554 202.681386 
L 250.256196 199.827134 
L 252.691839 196.710816 
L 255.127481 193.332176 
L 258.441273 188.27758 
L 261.075724 183.869023 
L 263.710174 179.112363 
L 266.344624 174.004415 
L 269.857224 166.649751 
L 273.369825 158.714379 
L 276.882425 150.262409 
L 281.273175 139.123161 
L 295.323576 102.798626 
L 298.836176 94.589689 
L 301.470627 88.889216 
L 304.105077 83.63172 
L 306.739527 78.828097 
L 309.373977 74.511319 
L 312.135154 70.470215 
L 314.645855 67.212295 
L 317.156557 64.324596 
L 319.75931 61.694373 
L 322.721926 59.090297 
L 325.684543 56.855181 
L 328.647159 54.919101 
L 332.074868 53.018564 
L 335.706447 51.326089 
L 335.706447 51.326089 
" style="fill:none;stroke:#0000ff;stroke-dasharray:5.55,2.4;stroke-dashoffset:0;stroke-width:1.5;"/>
   </g>
   <g id="line2d_21"/>
   <g id="line2d_22"/>
   <g id="line2d_23"/>
   <g id="line2d_24"/>
   <g id="line2d_25"/>
   <g id="patch_3">
    <path d="M 46.965625 239.758125 
L 46.965625 22.318125 
" style="fill:none;stroke:#000000;stroke-linecap:square;stroke-linejoin:miter;stroke-width:0.8;"/>
   </g>
   <g id="patch_4">
    <path d="M 381.765625 239.758125 
L 381.765625 22.318125 
" style="fill:none;stroke:#000000;stroke-linecap:square;stroke-linejoin:miter;stroke-width:0.8;"/>
   </g>
   <g id="patch_5">
    <path d="M 46.965625 239.758125 
L 381.765625 239.758125 
" style="fill:none;stroke:#000000;stroke-linecap:square;stroke-linejoin:miter;stroke-width:0.8;"/>
   </g>
   <g id="patch_6">
    <path d="M 46.965625 22.318125 
L 381.765625 22.318125 
" style="fill:none;stroke:#000000;stroke-linecap:square;stroke-linejoin:miter;stroke-width:0.8;"/>
   </g>
   <g id="text_18">
    <!-- Experiment_8 -->
    <defs>
     <path d="M 9.8125 72.90625 
L 55.90625 72.90625 
L 55.90625 64.59375 
L 19.671875 64.59375 
L 19.671875 43.015625 
L 54.390625 43.015625 
L 54.390625 34.71875 
L 19.671875 34.71875 
L 19.671875 8.296875 
L 56.78125 8.296875 
L 56.78125 0 
L 9.8125 0 
z
" id="DejaVuSans-69"/>
     <path d="M 54.890625 54.6875 
L 35.109375 28.078125 
L 55.90625 0 
L 45.3125 0 
L 29.390625 21.484375 
L 13.484375 0 
L 2.875 0 
L 24.125 28.609375 
L 4.6875 54.6875 
L 15.28125 54.6875 
L 29.78125 35.203125 
L 44.28125 54.6875 
z
" id="DejaVuSans-120"/>
     <path d="M 41.109375 46.296875 
Q 39.59375 47.171875 37.8125 47.578125 
Q 36.03125 48 33.890625 48 
Q 26.265625 48 22.1875 43.046875 
Q 18.109375 38.09375 18.109375 28.8125 
L 18.109375 0 
L 9.078125 0 
L 9.078125 54.6875 
L 18.109375 54.6875 
L 18.109375 46.1875 
Q 20.953125 51.171875 25.484375 53.578125 
Q 30.03125 56 36.53125 56 
Q 37.453125 56 38.578125 55.875 
Q 39.703125 55.765625 41.0625 55.515625 
z
" id="DejaVuSans-114"/>
     <path d="M 54.890625 33.015625 
L 54.890625 0 
L 45.90625 0 
L 45.90625 32.71875 
Q 45.90625 40.484375 42.875 44.328125 
Q 39.84375 48.1875 33.796875 48.1875 
Q 26.515625 48.1875 22.3125 43.546875 
Q 18.109375 38.921875 18.109375 30.90625 
L 18.109375 0 
L 9.078125 0 
L 9.078125 54.6875 
L 18.109375 54.6875 
L 18.109375 46.1875 
Q 21.34375 51.125 25.703125 53.5625 
Q 30.078125 56 35.796875 56 
Q 45.21875 56 50.046875 50.171875 
Q 54.890625 44.34375 54.890625 33.015625 
z
" id="DejaVuSans-110"/>
     <path d="M 18.3125 70.21875 
L 18.3125 54.6875 
L 36.8125 54.6875 
L 36.8125 47.703125 
L 18.3125 47.703125 
L 18.3125 18.015625 
Q 18.3125 11.328125 20.140625 9.421875 
Q 21.96875 7.515625 27.59375 7.515625 
L 36.8125 7.515625 
L 36.8125 0 
L 27.59375 0 
Q 17.1875 0 13.234375 3.875 
Q 9.28125 7.765625 9.28125 18.015625 
L 9.28125 47.703125 
L 2.6875 47.703125 
L 2.6875 54.6875 
L 9.28125 54.6875 
L 9.28125 70.21875 
z
" id="DejaVuSans-116"/>
     <path d="M 50.984375 -16.609375 
L 50.984375 -23.578125 
L -0.984375 -23.578125 
L -0.984375 -16.609375 
z
" id="DejaVuSans-95"/>
    </defs>
    <g transform="translate(172.880313 16.318125)scale(0.12 -0.12)">
     <use xlink:href="#DejaVuSans-69"/>
     <use x="63.183594" xlink:href="#DejaVuSans-120"/>
     <use x="122.363281" xlink:href="#DejaVuSans-112"/>
     <use x="185.839844" xlink:href="#DejaVuSans-101"/>
     <use x="247.363281" xlink:href="#DejaVuSans-114"/>
     <use x="288.476562" xlink:href="#DejaVuSans-105"/>
     <use x="316.259766" xlink:href="#DejaVuSans-109"/>
     <use x="413.671875" xlink:href="#DejaVuSans-101"/>
     <use x="475.195312" xlink:href="#DejaVuSans-110"/>
     <use x="538.574219" xlink:href="#DejaVuSans-116"/>
     <use x="577.783203" xlink:href="#DejaVuSans-95"/>
     <use x="627.783203" xlink:href="#DejaVuSans-56"/>
    </g>
   </g>
   <g id="legend_1">
    <g id="patch_7">
     <path d="M 53.965625 89.0525 
L 283.126563 89.0525 
Q 285.126563 89.0525 285.126563 87.0525 
L 285.126563 29.318125 
Q 285.126563 27.318125 283.126563 27.318125 
L 53.965625 27.318125 
Q 51.965625 27.318125 51.965625 29.318125 
L 51.965625 87.0525 
Q 51.965625 89.0525 53.965625 89.0525 
z
" style="fill:#ffffff;opacity:0.8;stroke:#cccccc;stroke-linejoin:miter;"/>
    </g>
    <g id="line2d_26">
     <path d="M 55.965625 35.416562 
L 75.965625 35.416562 
" style="fill:none;stroke:#0000ff;stroke-linecap:square;stroke-width:1.5;"/>
    </g>
    <g id="line2d_27"/>
    <g id="text_19">
     <!-- MSI -->
     <defs>
      <path d="M 9.8125 72.90625 
L 24.515625 72.90625 
L 43.109375 23.296875 
L 61.8125 72.90625 
L 76.515625 72.90625 
L 76.515625 0 
L 66.890625 0 
L 66.890625 64.015625 
L 48.09375 14.015625 
L 38.1875 14.015625 
L 19.390625 64.015625 
L 19.390625 0 
L 9.8125 0 
z
" id="DejaVuSans-77"/>
      <path d="M 53.515625 70.515625 
L 53.515625 60.890625 
Q 47.90625 63.578125 42.921875 64.890625 
Q 37.9375 66.21875 33.296875 66.21875 
Q 25.25 66.21875 20.875 63.09375 
Q 16.5 59.96875 16.5 54.203125 
Q 16.5 49.359375 19.40625 46.890625 
Q 22.3125 44.4375 30.421875 42.921875 
L 36.375 41.703125 
Q 47.40625 39.59375 52.65625 34.296875 
Q 57.90625 29 57.90625 20.125 
Q 57.90625 9.515625 50.796875 4.046875 
Q 43.703125 -1.421875 29.984375 -1.421875 
Q 24.8125 -1.421875 18.96875 -0.25 
Q 13.140625 0.921875 6.890625 3.21875 
L 6.890625 13.375 
Q 12.890625 10.015625 18.65625 8.296875 
Q 24.421875 6.59375 29.984375 6.59375 
Q 38.421875 6.59375 43.015625 9.90625 
Q 47.609375 13.234375 47.609375 19.390625 
Q 47.609375 24.75 44.3125 27.78125 
Q 41.015625 30.8125 33.5 32.328125 
L 27.484375 33.5 
Q 16.453125 35.6875 11.515625 40.375 
Q 6.59375 45.0625 6.59375 53.421875 
Q 6.59375 63.09375 13.40625 68.65625 
Q 20.21875 74.21875 32.171875 74.21875 
Q 37.3125 74.21875 42.625 73.28125 
Q 47.953125 72.359375 53.515625 70.515625 
z
" id="DejaVuSans-83"/>
      <path d="M 9.8125 72.90625 
L 19.671875 72.90625 
L 19.671875 0 
L 9.8125 0 
z
" id="DejaVuSans-73"/>
     </defs>
     <g transform="translate(83.965625 38.916562)scale(0.1 -0.1)">
      <use xlink:href="#DejaVuSans-77"/>
      <use x="86.279297" xlink:href="#DejaVuSans-83"/>
      <use x="149.755859" xlink:href="#DejaVuSans-73"/>
     </g>
    </g>
    <g id="line2d_28">
     <path d="M 55.965625 50.09625 
L 75.965625 50.09625 
" style="fill:none;stroke:#ff0000;stroke-linecap:square;stroke-width:1.5;"/>
    </g>
    <g id="line2d_29"/>
    <g id="text_20">
     <!-- $\it{A priori}$ model -->
     <defs>
      <path d="M 36.8125 72.90625 
L 48 72.90625 
L 61.53125 0 
L 51.21875 0 
L 48.1875 18.703125 
L 15.375 18.703125 
L 5.078125 0 
L -5.328125 0 
z
M 40.375 63.1875 
L 19.921875 26.90625 
L 46.6875 26.90625 
z
" id="DejaVuSans-Oblique-65"/>
      <path d="M 49.609375 33.6875 
Q 49.609375 40.875 46.484375 44.671875 
Q 43.359375 48.484375 37.5 48.484375 
Q 33.5 48.484375 29.859375 46.4375 
Q 26.21875 44.390625 23.390625 40.484375 
Q 20.609375 36.625 18.9375 31.15625 
Q 17.28125 25.6875 17.28125 20.3125 
Q 17.28125 13.484375 20.40625 9.796875 
Q 23.53125 6.109375 29.296875 6.109375 
Q 33.546875 6.109375 37.1875 8.109375 
Q 40.828125 10.109375 43.40625 13.921875 
Q 46.1875 17.921875 47.890625 23.34375 
Q 49.609375 28.765625 49.609375 33.6875 
z
M 21.78125 46.390625 
Q 25.390625 51.125 30.296875 53.5625 
Q 35.203125 56 41.21875 56 
Q 49.609375 56 54.25 50.5 
Q 58.890625 45.015625 58.890625 35.109375 
Q 58.890625 27 56 19.65625 
Q 53.125 12.3125 47.703125 6.5 
Q 44.09375 2.640625 39.546875 0.609375 
Q 35.015625 -1.421875 29.984375 -1.421875 
Q 24.171875 -1.421875 20.21875 1 
Q 16.265625 3.421875 14.3125 8.203125 
L 8.6875 -20.796875 
L -0.296875 -20.796875 
L 14.40625 54.6875 
L 23.390625 54.6875 
z
" id="DejaVuSans-Oblique-112"/>
      <path d="M 44.578125 46.390625 
Q 43.21875 47.125 41.453125 47.515625 
Q 39.703125 47.90625 37.703125 47.90625 
Q 30.515625 47.90625 25.140625 42.453125 
Q 19.78125 37.015625 18.015625 27.875 
L 12.5 0 
L 3.515625 0 
L 14.203125 54.6875 
L 23.1875 54.6875 
L 21.484375 46.1875 
Q 25.046875 50.921875 30 53.453125 
Q 34.96875 56 40.578125 56 
Q 42.046875 56 43.453125 55.828125 
Q 44.875 55.671875 46.296875 55.28125 
z
" id="DejaVuSans-Oblique-114"/>
      <path d="M 18.3125 75.984375 
L 27.296875 75.984375 
L 25.09375 64.59375 
L 16.109375 64.59375 
z
M 14.203125 54.6875 
L 23.1875 54.6875 
L 12.5 0 
L 3.515625 0 
z
" id="DejaVuSans-Oblique-105"/>
      <path d="M 25.390625 -1.421875 
Q 15.765625 -1.421875 10.171875 4.515625 
Q 4.59375 10.453125 4.59375 20.703125 
Q 4.59375 26.65625 6.515625 32.828125 
Q 8.453125 39.015625 11.53125 43.21875 
Q 16.359375 49.75 22.3125 52.875 
Q 28.265625 56 35.796875 56 
Q 45.125 56 50.859375 50.1875 
Q 56.59375 44.390625 56.59375 35.015625 
Q 56.59375 28.515625 54.6875 22.0625 
Q 52.78125 15.625 49.703125 11.375 
Q 44.921875 4.828125 38.96875 1.703125 
Q 33.015625 -1.421875 25.390625 -1.421875 
z
M 13.921875 21 
Q 13.921875 13.578125 17.015625 9.890625 
Q 20.125 6.203125 26.421875 6.203125 
Q 35.453125 6.203125 41.375 14.078125 
Q 47.3125 21.96875 47.3125 34.078125 
Q 47.3125 41.15625 44.140625 44.765625 
Q 40.96875 48.390625 34.8125 48.390625 
Q 29.734375 48.390625 25.78125 46.015625 
Q 21.828125 43.65625 18.703125 38.8125 
Q 16.40625 35.203125 15.15625 30.5625 
Q 13.921875 25.921875 13.921875 21 
z
" id="DejaVuSans-Oblique-111"/>
      <path d="M 30.609375 48.390625 
Q 23.390625 48.390625 19.1875 42.75 
Q 14.984375 37.109375 14.984375 27.296875 
Q 14.984375 17.484375 19.15625 11.84375 
Q 23.34375 6.203125 30.609375 6.203125 
Q 37.796875 6.203125 41.984375 11.859375 
Q 46.1875 17.53125 46.1875 27.296875 
Q 46.1875 37.015625 41.984375 42.703125 
Q 37.796875 48.390625 30.609375 48.390625 
z
M 30.609375 56 
Q 42.328125 56 49.015625 48.375 
Q 55.71875 40.765625 55.71875 27.296875 
Q 55.71875 13.875 49.015625 6.21875 
Q 42.328125 -1.421875 30.609375 -1.421875 
Q 18.84375 -1.421875 12.171875 6.21875 
Q 5.515625 13.875 5.515625 27.296875 
Q 5.515625 40.765625 12.171875 48.375 
Q 18.84375 56 30.609375 56 
z
" id="DejaVuSans-111"/>
      <path d="M 45.40625 46.390625 
L 45.40625 75.984375 
L 54.390625 75.984375 
L 54.390625 0 
L 45.40625 0 
L 45.40625 8.203125 
Q 42.578125 3.328125 38.25 0.953125 
Q 33.9375 -1.421875 27.875 -1.421875 
Q 17.96875 -1.421875 11.734375 6.484375 
Q 5.515625 14.40625 5.515625 27.296875 
Q 5.515625 40.1875 11.734375 48.09375 
Q 17.96875 56 27.875 56 
Q 33.9375 56 38.25 53.625 
Q 42.578125 51.265625 45.40625 46.390625 
z
M 14.796875 27.296875 
Q 14.796875 17.390625 18.875 11.75 
Q 22.953125 6.109375 30.078125 6.109375 
Q 37.203125 6.109375 41.296875 11.75 
Q 45.40625 17.390625 45.40625 27.296875 
Q 45.40625 37.203125 41.296875 42.84375 
Q 37.203125 48.484375 30.078125 48.484375 
Q 22.953125 48.484375 18.875 42.84375 
Q 14.796875 37.203125 14.796875 27.296875 
z
" id="DejaVuSans-100"/>
      <path d="M 9.421875 75.984375 
L 18.40625 75.984375 
L 18.40625 0 
L 9.421875 0 
z
" id="DejaVuSans-108"/>
     </defs>
     <g transform="translate(83.965625 53.59625)scale(0.1 -0.1)">
      <use transform="translate(0 0.015625)" xlink:href="#DejaVuSans-Oblique-65"/>
      <use transform="translate(68.408203 0.015625)" xlink:href="#DejaVuSans-Oblique-112"/>
      <use transform="translate(131.884766 0.015625)" xlink:href="#DejaVuSans-Oblique-114"/>
      <use transform="translate(172.998047 0.015625)" xlink:href="#DejaVuSans-Oblique-105"/>
      <use transform="translate(200.78125 0.015625)" xlink:href="#DejaVuSans-Oblique-111"/>
      <use transform="translate(261.962891 0.015625)" xlink:href="#DejaVuSans-Oblique-114"/>
      <use transform="translate(303.076172 0.015625)" xlink:href="#DejaVuSans-Oblique-105"/>
      <use transform="translate(330.859375 0.015625)" xlink:href="#DejaVuSans-32"/>
      <use transform="translate(362.646484 0.015625)" xlink:href="#DejaVuSans-109"/>
      <use transform="translate(460.058594 0.015625)" xlink:href="#DejaVuSans-111"/>
      <use transform="translate(521.240234 0.015625)" xlink:href="#DejaVuSans-100"/>
      <use transform="translate(584.716797 0.015625)" xlink:href="#DejaVuSans-101"/>
      <use transform="translate(646.240234 0.015625)" xlink:href="#DejaVuSans-108"/>
     </g>
    </g>
    <g id="line2d_30"/>
    <g id="line2d_31">
     <g>
      <use style="stroke:#000000;" x="65.965625" xlink:href="#m1092f54e4c" y="64.794687"/>
     </g>
    </g>
    <g id="text_21">
     <!-- Experimental Data -->
     <defs>
      <path d="M 34.28125 27.484375 
Q 23.390625 27.484375 19.1875 25 
Q 14.984375 22.515625 14.984375 16.5 
Q 14.984375 11.71875 18.140625 8.90625 
Q 21.296875 6.109375 26.703125 6.109375 
Q 34.1875 6.109375 38.703125 11.40625 
Q 43.21875 16.703125 43.21875 25.484375 
L 43.21875 27.484375 
z
M 52.203125 31.203125 
L 52.203125 0 
L 43.21875 0 
L 43.21875 8.296875 
Q 40.140625 3.328125 35.546875 0.953125 
Q 30.953125 -1.421875 24.3125 -1.421875 
Q 15.921875 -1.421875 10.953125 3.296875 
Q 6 8.015625 6 15.921875 
Q 6 25.140625 12.171875 29.828125 
Q 18.359375 34.515625 30.609375 34.515625 
L 43.21875 34.515625 
L 43.21875 35.40625 
Q 43.21875 41.609375 39.140625 45 
Q 35.0625 48.390625 27.6875 48.390625 
Q 23 48.390625 18.546875 47.265625 
Q 14.109375 46.140625 10.015625 43.890625 
L 10.015625 52.203125 
Q 14.9375 54.109375 19.578125 55.046875 
Q 24.21875 56 28.609375 56 
Q 40.484375 56 46.34375 49.84375 
Q 52.203125 43.703125 52.203125 31.203125 
z
" id="DejaVuSans-97"/>
      <path d="M 19.671875 64.796875 
L 19.671875 8.109375 
L 31.59375 8.109375 
Q 46.6875 8.109375 53.6875 14.9375 
Q 60.6875 21.78125 60.6875 36.53125 
Q 60.6875 51.171875 53.6875 57.984375 
Q 46.6875 64.796875 31.59375 64.796875 
z
M 9.8125 72.90625 
L 30.078125 72.90625 
Q 51.265625 72.90625 61.171875 64.09375 
Q 71.09375 55.28125 71.09375 36.53125 
Q 71.09375 17.671875 61.125 8.828125 
Q 51.171875 0 30.078125 0 
L 9.8125 0 
z
" id="DejaVuSans-68"/>
     </defs>
     <g transform="translate(83.965625 68.294687)scale(0.1 -0.1)">
      <use xlink:href="#DejaVuSans-69"/>
      <use x="63.183594" xlink:href="#DejaVuSans-120"/>
      <use x="122.363281" xlink:href="#DejaVuSans-112"/>
      <use x="185.839844" xlink:href="#DejaVuSans-101"/>
      <use x="247.363281" xlink:href="#DejaVuSans-114"/>
      <use x="288.476562" xlink:href="#DejaVuSans-105"/>
      <use x="316.259766" xlink:href="#DejaVuSans-109"/>
      <use x="413.671875" xlink:href="#DejaVuSans-101"/>
      <use x="475.195312" xlink:href="#DejaVuSans-110"/>
      <use x="538.574219" xlink:href="#DejaVuSans-116"/>
      <use x="577.783203" xlink:href="#DejaVuSans-97"/>
      <use x="639.0625" xlink:href="#DejaVuSans-108"/>
      <use x="666.845703" xlink:href="#DejaVuSans-32"/>
      <use x="698.632812" xlink:href="#DejaVuSans-68"/>
      <use x="775.634766" xlink:href="#DejaVuSans-97"/>
      <use x="836.914062" xlink:href="#DejaVuSans-116"/>
      <use x="876.123047" xlink:href="#DejaVuSans-97"/>
     </g>
    </g>
    <g id="line2d_32">
     <path d="M 55.965625 79.472812 
L 75.965625 79.472812 
" style="fill:none;stroke:#ffffff;stroke-linecap:square;stroke-width:1.5;"/>
    </g>
    <g id="line2d_33"/>
    <g id="text_22">
     <!-- T:1806 -->
     <defs>
      <path d="M 11.71875 12.40625 
L 22.015625 12.40625 
L 22.015625 0 
L 11.71875 0 
z
M 11.71875 51.703125 
L 22.015625 51.703125 
L 22.015625 39.3125 
L 11.71875 39.3125 
z
" id="DejaVuSans-58"/>
     </defs>
     <g transform="translate(83.965625 82.972812)scale(0.1 -0.1)">
      <use xlink:href="#DejaVuSans-84"/>
      <use x="60.912109" xlink:href="#DejaVuSans-58"/>
      <use x="94.603516" xlink:href="#DejaVuSans-49"/>
      <use x="158.226562" xlink:href="#DejaVuSans-56"/>
      <use x="221.849609" xlink:href="#DejaVuSans-48"/>
      <use x="285.472656" xlink:href="#DejaVuSans-54"/>
     </g>
    </g>
    <g id="line2d_34">
     <path d="M 197.70625 35.416562 
L 217.70625 35.416562 
" style="fill:none;stroke:#ffffff;stroke-linecap:square;stroke-width:1.5;"/>
    </g>
    <g id="line2d_35"/>
    <g id="text_23">
     <!-- P:0.638 -->
     <defs>
      <path d="M 19.671875 64.796875 
L 19.671875 37.40625 
L 32.078125 37.40625 
Q 38.96875 37.40625 42.71875 40.96875 
Q 46.484375 44.53125 46.484375 51.125 
Q 46.484375 57.671875 42.71875 61.234375 
Q 38.96875 64.796875 32.078125 64.796875 
z
M 9.8125 72.90625 
L 32.078125 72.90625 
Q 44.34375 72.90625 50.609375 67.359375 
Q 56.890625 61.8125 56.890625 51.125 
Q 56.890625 40.328125 50.609375 34.8125 
Q 44.34375 29.296875 32.078125 29.296875 
L 19.671875 29.296875 
L 19.671875 0 
L 9.8125 0 
z
" id="DejaVuSans-80"/>
     </defs>
     <g transform="translate(225.70625 38.916562)scale(0.1 -0.1)">
      <use xlink:href="#DejaVuSans-80"/>
      <use x="60.302734" xlink:href="#DejaVuSans-58"/>
      <use x="93.994141" xlink:href="#DejaVuSans-48"/>
      <use x="157.617188" xlink:href="#DejaVuSans-46"/>
      <use x="189.404297" xlink:href="#DejaVuSans-54"/>
      <use x="253.027344" xlink:href="#DejaVuSans-51"/>
      <use x="316.650391" xlink:href="#DejaVuSans-56"/>
     </g>
    </g>
    <g id="line2d_36">
     <path d="M 197.70625 50.094687 
L 217.70625 50.094687 
" style="fill:none;stroke:#ffffff;stroke-linecap:square;stroke-width:1.5;"/>
    </g>
    <g id="line2d_37"/>
    <g id="text_24">
     <!-- O2: 0.004 -->
     <g transform="translate(225.70625 53.594687)scale(0.1 -0.1)">
      <use xlink:href="#DejaVuSans-79"/>
      <use x="78.710938" xlink:href="#DejaVuSans-50"/>
      <use x="142.333984" xlink:href="#DejaVuSans-58"/>
      <use x="176.025391" xlink:href="#DejaVuSans-32"/>
      <use x="207.8125" xlink:href="#DejaVuSans-48"/>
      <use x="271.435547" xlink:href="#DejaVuSans-46"/>
      <use x="303.222656" xlink:href="#DejaVuSans-48"/>
      <use x="366.845703" xlink:href="#DejaVuSans-48"/>
      <use x="430.46875" xlink:href="#DejaVuSans-52"/>
     </g>
    </g>
    <g id="line2d_38">
     <path d="M 197.70625 64.772812 
L 217.70625 64.772812 
" style="fill:none;stroke:#ffffff;stroke-linecap:square;stroke-width:1.5;"/>
    </g>
    <g id="line2d_39"/>
    <g id="text_25">
     <!-- H2: 0.0408 -->
     <g transform="translate(225.70625 68.272812)scale(0.1 -0.1)">
      <use xlink:href="#DejaVuSans-72"/>
      <use x="75.195312" xlink:href="#DejaVuSans-50"/>
      <use x="138.818359" xlink:href="#DejaVuSans-58"/>
      <use x="172.509766" xlink:href="#DejaVuSans-32"/>
      <use x="204.296875" xlink:href="#DejaVuSans-48"/>
      <use x="267.919922" xlink:href="#DejaVuSans-46"/>
      <use x="299.707031" xlink:href="#DejaVuSans-48"/>
      <use x="363.330078" xlink:href="#DejaVuSans-52"/>
      <use x="426.953125" xlink:href="#DejaVuSans-48"/>
      <use x="490.576172" xlink:href="#DejaVuSans-56"/>
     </g>
    </g>
    <g id="line2d_40">
     <path d="M 197.70625 79.450937 
L 217.70625 79.450937 
" style="fill:none;stroke:#ffffff;stroke-linecap:square;stroke-width:1.5;"/>
    </g>
    <g id="line2d_41"/>
    <g id="text_26">
     <!-- Ar: 0.9552 -->
     <defs>
      <path d="M 34.1875 63.1875 
L 20.796875 26.90625 
L 47.609375 26.90625 
z
M 28.609375 72.90625 
L 39.796875 72.90625 
L 67.578125 0 
L 57.328125 0 
L 50.6875 18.703125 
L 17.828125 18.703125 
L 11.1875 0 
L 0.78125 0 
z
" id="DejaVuSans-65"/>
      <path d="M 10.984375 1.515625 
L 10.984375 10.5 
Q 14.703125 8.734375 18.5 7.8125 
Q 22.3125 6.890625 25.984375 6.890625 
Q 35.75 6.890625 40.890625 13.453125 
Q 46.046875 20.015625 46.78125 33.40625 
Q 43.953125 29.203125 39.59375 26.953125 
Q 35.25 24.703125 29.984375 24.703125 
Q 19.046875 24.703125 12.671875 31.3125 
Q 6.296875 37.9375 6.296875 49.421875 
Q 6.296875 60.640625 12.9375 67.421875 
Q 19.578125 74.21875 30.609375 74.21875 
Q 43.265625 74.21875 49.921875 64.515625 
Q 56.59375 54.828125 56.59375 36.375 
Q 56.59375 19.140625 48.40625 8.859375 
Q 40.234375 -1.421875 26.421875 -1.421875 
Q 22.703125 -1.421875 18.890625 -0.6875 
Q 15.09375 0.046875 10.984375 1.515625 
z
M 30.609375 32.421875 
Q 37.25 32.421875 41.125 36.953125 
Q 45.015625 41.5 45.015625 49.421875 
Q 45.015625 57.28125 41.125 61.84375 
Q 37.25 66.40625 30.609375 66.40625 
Q 23.96875 66.40625 20.09375 61.84375 
Q 16.21875 57.28125 16.21875 49.421875 
Q 16.21875 41.5 20.09375 36.953125 
Q 23.96875 32.421875 30.609375 32.421875 
z
" id="DejaVuSans-57"/>
     </defs>
     <g transform="translate(225.70625 82.950937)scale(0.1 -0.1)">
      <use xlink:href="#DejaVuSans-65"/>
      <use x="68.408203" xlink:href="#DejaVuSans-114"/>
      <use x="109.505859" xlink:href="#DejaVuSans-58"/>
      <use x="143.197266" xlink:href="#DejaVuSans-32"/>
      <use x="174.984375" xlink:href="#DejaVuSans-48"/>
      <use x="238.607422" xlink:href="#DejaVuSans-46"/>
      <use x="270.394531" xlink:href="#DejaVuSans-57"/>
      <use x="334.017578" xlink:href="#DejaVuSans-53"/>
      <use x="397.640625" xlink:href="#DejaVuSans-53"/>
      <use x="461.263672" xlink:href="#DejaVuSans-50"/>
     </g>
    </g>
   </g>
  </g>
 </g>
 <defs>
  <clipPath id="p93cdc4ef7a">
   <rect height="217.44" width="334.8" x="46.965625" y="22.318125"/>
  </clipPath>
 </defs>
</svg>
