<?xml version="1.0" encoding="utf-8" standalone="no"?>
<!DOCTYPE svg PUBLIC "-//W3C//DTD SVG 1.1//EN"
  "http://www.w3.org/Graphics/SVG/1.1/DTD/svg11.dtd">
<!-- Created with matplotlib (https://matplotlib.org/) -->
<svg height="277.314375pt" version="1.1" viewBox="0 0 392.465625 277.314375" width="392.465625pt" xmlns="http://www.w3.org/2000/svg" xmlns:xlink="http://www.w3.org/1999/xlink">
 <defs>
  <style type="text/css">
*{stroke-linecap:butt;stroke-linejoin:round;}
  </style>
 </defs>
 <g id="figure_1">
  <g id="patch_1">
   <path d="M 0 277.314375 
L 392.465625 277.314375 
L 392.465625 0 
L 0 0 
z
" style="fill:none;"/>
  </g>
  <g id="axes_1">
   <g id="patch_2">
    <path d="M 46.965625 239.758125 
L 381.765625 239.758125 
L 381.765625 22.318125 
L 46.965625 22.318125 
z
" style="fill:none;"/>
   </g>
   <g id="matplotlib.axis_1">
    <g id="xtick_1">
     <g id="line2d_1">
      <defs>
       <path d="M 0 0 
L 0 3.5 
" id="m9fcae2597f" style="stroke:#000000;stroke-width:0.8;"/>
      </defs>
      <g>
       <use style="stroke:#000000;stroke-width:0.8;" x="62.183807" xlink:href="#m9fcae2597f" y="239.758125"/>
      </g>
     </g>
     <g id="text_1">
      <!-- 0.00 -->
      <defs>
       <path d="M 31.78125 66.40625 
Q 24.171875 66.40625 20.328125 58.90625 
Q 16.5 51.421875 16.5 36.375 
Q 16.5 21.390625 20.328125 13.890625 
Q 24.171875 6.390625 31.78125 6.390625 
Q 39.453125 6.390625 43.28125 13.890625 
Q 47.125 21.390625 47.125 36.375 
Q 47.125 51.421875 43.28125 58.90625 
Q 39.453125 66.40625 31.78125 66.40625 
z
M 31.78125 74.21875 
Q 44.046875 74.21875 50.515625 64.515625 
Q 56.984375 54.828125 56.984375 36.375 
Q 56.984375 17.96875 50.515625 8.265625 
Q 44.046875 -1.421875 31.78125 -1.421875 
Q 19.53125 -1.421875 13.0625 8.265625 
Q 6.59375 17.96875 6.59375 36.375 
Q 6.59375 54.828125 13.0625 64.515625 
Q 19.53125 74.21875 31.78125 74.21875 
z
" id="DejaVuSans-48"/>
       <path d="M 10.6875 12.40625 
L 21 12.40625 
L 21 0 
L 10.6875 0 
z
" id="DejaVuSans-46"/>
      </defs>
      <g transform="translate(51.050994 254.356562)scale(0.1 -0.1)">
       <use xlink:href="#DejaVuSans-48"/>
       <use x="63.623047" xlink:href="#DejaVuSans-46"/>
       <use x="95.410156" xlink:href="#DejaVuSans-48"/>
       <use x="159.033203" xlink:href="#DejaVuSans-48"/>
      </g>
     </g>
    </g>
    <g id="xtick_2">
     <g id="line2d_2">
      <g>
       <use style="stroke:#000000;stroke-width:0.8;" x="122.57823" xlink:href="#m9fcae2597f" y="239.758125"/>
      </g>
     </g>
     <g id="text_2">
      <!-- 0.02 -->
      <defs>
       <path d="M 19.1875 8.296875 
L 53.609375 8.296875 
L 53.609375 0 
L 7.328125 0 
L 7.328125 8.296875 
Q 12.9375 14.109375 22.625 23.890625 
Q 32.328125 33.6875 34.8125 36.53125 
Q 39.546875 41.84375 41.421875 45.53125 
Q 43.3125 49.21875 43.3125 52.78125 
Q 43.3125 58.59375 39.234375 62.25 
Q 35.15625 65.921875 28.609375 65.921875 
Q 23.96875 65.921875 18.8125 64.3125 
Q 13.671875 62.703125 7.8125 59.421875 
L 7.8125 69.390625 
Q 13.765625 71.78125 18.9375 73 
Q 24.125 74.21875 28.421875 74.21875 
Q 39.75 74.21875 46.484375 68.546875 
Q 53.21875 62.890625 53.21875 53.421875 
Q 53.21875 48.921875 51.53125 44.890625 
Q 49.859375 40.875 45.40625 35.40625 
Q 44.1875 33.984375 37.640625 27.21875 
Q 31.109375 20.453125 19.1875 8.296875 
z
" id="DejaVuSans-50"/>
      </defs>
      <g transform="translate(111.445418 254.356562)scale(0.1 -0.1)">
       <use xlink:href="#DejaVuSans-48"/>
       <use x="63.623047" xlink:href="#DejaVuSans-46"/>
       <use x="95.410156" xlink:href="#DejaVuSans-48"/>
       <use x="159.033203" xlink:href="#DejaVuSans-50"/>
      </g>
     </g>
    </g>
    <g id="xtick_3">
     <g id="line2d_3">
      <g>
       <use style="stroke:#000000;stroke-width:0.8;" x="182.972654" xlink:href="#m9fcae2597f" y="239.758125"/>
      </g>
     </g>
     <g id="text_3">
      <!-- 0.04 -->
      <defs>
       <path d="M 37.796875 64.3125 
L 12.890625 25.390625 
L 37.796875 25.390625 
z
M 35.203125 72.90625 
L 47.609375 72.90625 
L 47.609375 25.390625 
L 58.015625 25.390625 
L 58.015625 17.1875 
L 47.609375 17.1875 
L 47.609375 0 
L 37.796875 0 
L 37.796875 17.1875 
L 4.890625 17.1875 
L 4.890625 26.703125 
z
" id="DejaVuSans-52"/>
      </defs>
      <g transform="translate(171.839841 254.356562)scale(0.1 -0.1)">
       <use xlink:href="#DejaVuSans-48"/>
       <use x="63.623047" xlink:href="#DejaVuSans-46"/>
       <use x="95.410156" xlink:href="#DejaVuSans-48"/>
       <use x="159.033203" xlink:href="#DejaVuSans-52"/>
      </g>
     </g>
    </g>
    <g id="xtick_4">
     <g id="line2d_4">
      <g>
       <use style="stroke:#000000;stroke-width:0.8;" x="243.367077" xlink:href="#m9fcae2597f" y="239.758125"/>
      </g>
     </g>
     <g id="text_4">
      <!-- 0.06 -->
      <defs>
       <path d="M 33.015625 40.375 
Q 26.375 40.375 22.484375 35.828125 
Q 18.609375 31.296875 18.609375 23.390625 
Q 18.609375 15.53125 22.484375 10.953125 
Q 26.375 6.390625 33.015625 6.390625 
Q 39.65625 6.390625 43.53125 10.953125 
Q 47.40625 15.53125 47.40625 23.390625 
Q 47.40625 31.296875 43.53125 35.828125 
Q 39.65625 40.375 33.015625 40.375 
z
M 52.59375 71.296875 
L 52.59375 62.3125 
Q 48.875 64.0625 45.09375 64.984375 
Q 41.3125 65.921875 37.59375 65.921875 
Q 27.828125 65.921875 22.671875 59.328125 
Q 17.53125 52.734375 16.796875 39.40625 
Q 19.671875 43.65625 24.015625 45.921875 
Q 28.375 48.1875 33.59375 48.1875 
Q 44.578125 48.1875 50.953125 41.515625 
Q 57.328125 34.859375 57.328125 23.390625 
Q 57.328125 12.15625 50.6875 5.359375 
Q 44.046875 -1.421875 33.015625 -1.421875 
Q 20.359375 -1.421875 13.671875 8.265625 
Q 6.984375 17.96875 6.984375 36.375 
Q 6.984375 53.65625 15.1875 63.9375 
Q 23.390625 74.21875 37.203125 74.21875 
Q 40.921875 74.21875 44.703125 73.484375 
Q 48.484375 72.75 52.59375 71.296875 
z
" id="DejaVuSans-54"/>
      </defs>
      <g transform="translate(232.234264 254.356562)scale(0.1 -0.1)">
       <use xlink:href="#DejaVuSans-48"/>
       <use x="63.623047" xlink:href="#DejaVuSans-46"/>
       <use x="95.410156" xlink:href="#DejaVuSans-48"/>
       <use x="159.033203" xlink:href="#DejaVuSans-54"/>
      </g>
     </g>
    </g>
    <g id="xtick_5">
     <g id="line2d_5">
      <g>
       <use style="stroke:#000000;stroke-width:0.8;" x="303.7615" xlink:href="#m9fcae2597f" y="239.758125"/>
      </g>
     </g>
     <g id="text_5">
      <!-- 0.08 -->
      <defs>
       <path d="M 31.78125 34.625 
Q 24.75 34.625 20.71875 30.859375 
Q 16.703125 27.09375 16.703125 20.515625 
Q 16.703125 13.921875 20.71875 10.15625 
Q 24.75 6.390625 31.78125 6.390625 
Q 38.8125 6.390625 42.859375 10.171875 
Q 46.921875 13.96875 46.921875 20.515625 
Q 46.921875 27.09375 42.890625 30.859375 
Q 38.875 34.625 31.78125 34.625 
z
M 21.921875 38.8125 
Q 15.578125 40.375 12.03125 44.71875 
Q 8.5 49.078125 8.5 55.328125 
Q 8.5 64.0625 14.71875 69.140625 
Q 20.953125 74.21875 31.78125 74.21875 
Q 42.671875 74.21875 48.875 69.140625 
Q 55.078125 64.0625 55.078125 55.328125 
Q 55.078125 49.078125 51.53125 44.71875 
Q 48 40.375 41.703125 38.8125 
Q 48.828125 37.15625 52.796875 32.3125 
Q 56.78125 27.484375 56.78125 20.515625 
Q 56.78125 9.90625 50.3125 4.234375 
Q 43.84375 -1.421875 31.78125 -1.421875 
Q 19.734375 -1.421875 13.25 4.234375 
Q 6.78125 9.90625 6.78125 20.515625 
Q 6.78125 27.484375 10.78125 32.3125 
Q 14.796875 37.15625 21.921875 38.8125 
z
M 18.3125 54.390625 
Q 18.3125 48.734375 21.84375 45.5625 
Q 25.390625 42.390625 31.78125 42.390625 
Q 38.140625 42.390625 41.71875 45.5625 
Q 45.3125 48.734375 45.3125 54.390625 
Q 45.3125 60.0625 41.71875 63.234375 
Q 38.140625 66.40625 31.78125 66.40625 
Q 25.390625 66.40625 21.84375 63.234375 
Q 18.3125 60.0625 18.3125 54.390625 
z
" id="DejaVuSans-56"/>
      </defs>
      <g transform="translate(292.628688 254.356562)scale(0.1 -0.1)">
       <use xlink:href="#DejaVuSans-48"/>
       <use x="63.623047" xlink:href="#DejaVuSans-46"/>
       <use x="95.410156" xlink:href="#DejaVuSans-48"/>
       <use x="159.033203" xlink:href="#DejaVuSans-56"/>
      </g>
     </g>
    </g>
    <g id="xtick_6">
     <g id="line2d_6">
      <g>
       <use style="stroke:#000000;stroke-width:0.8;" x="364.155924" xlink:href="#m9fcae2597f" y="239.758125"/>
      </g>
     </g>
     <g id="text_6">
      <!-- 0.10 -->
      <defs>
       <path d="M 12.40625 8.296875 
L 28.515625 8.296875 
L 28.515625 63.921875 
L 10.984375 60.40625 
L 10.984375 69.390625 
L 28.421875 72.90625 
L 38.28125 72.90625 
L 38.28125 8.296875 
L 54.390625 8.296875 
L 54.390625 0 
L 12.40625 0 
z
" id="DejaVuSans-49"/>
      </defs>
      <g transform="translate(353.023111 254.356562)scale(0.1 -0.1)">
       <use xlink:href="#DejaVuSans-48"/>
       <use x="63.623047" xlink:href="#DejaVuSans-46"/>
       <use x="95.410156" xlink:href="#DejaVuSans-49"/>
       <use x="159.033203" xlink:href="#DejaVuSans-48"/>
      </g>
     </g>
    </g>
    <g id="text_7">
     <!-- Time (ms) -->
     <defs>
      <path d="M -0.296875 72.90625 
L 61.375 72.90625 
L 61.375 64.59375 
L 35.5 64.59375 
L 35.5 0 
L 25.59375 0 
L 25.59375 64.59375 
L -0.296875 64.59375 
z
" id="DejaVuSans-84"/>
      <path d="M 9.421875 54.6875 
L 18.40625 54.6875 
L 18.40625 0 
L 9.421875 0 
z
M 9.421875 75.984375 
L 18.40625 75.984375 
L 18.40625 64.59375 
L 9.421875 64.59375 
z
" id="DejaVuSans-105"/>
      <path d="M 52 44.1875 
Q 55.375 50.25 60.0625 53.125 
Q 64.75 56 71.09375 56 
Q 79.640625 56 84.28125 50.015625 
Q 88.921875 44.046875 88.921875 33.015625 
L 88.921875 0 
L 79.890625 0 
L 79.890625 32.71875 
Q 79.890625 40.578125 77.09375 44.375 
Q 74.3125 48.1875 68.609375 48.1875 
Q 61.625 48.1875 57.5625 43.546875 
Q 53.515625 38.921875 53.515625 30.90625 
L 53.515625 0 
L 44.484375 0 
L 44.484375 32.71875 
Q 44.484375 40.625 41.703125 44.40625 
Q 38.921875 48.1875 33.109375 48.1875 
Q 26.21875 48.1875 22.15625 43.53125 
Q 18.109375 38.875 18.109375 30.90625 
L 18.109375 0 
L 9.078125 0 
L 9.078125 54.6875 
L 18.109375 54.6875 
L 18.109375 46.1875 
Q 21.1875 51.21875 25.484375 53.609375 
Q 29.78125 56 35.6875 56 
Q 41.65625 56 45.828125 52.96875 
Q 50 49.953125 52 44.1875 
z
" id="DejaVuSans-109"/>
      <path d="M 56.203125 29.59375 
L 56.203125 25.203125 
L 14.890625 25.203125 
Q 15.484375 15.921875 20.484375 11.0625 
Q 25.484375 6.203125 34.421875 6.203125 
Q 39.59375 6.203125 44.453125 7.46875 
Q 49.3125 8.734375 54.109375 11.28125 
L 54.109375 2.78125 
Q 49.265625 0.734375 44.1875 -0.34375 
Q 39.109375 -1.421875 33.890625 -1.421875 
Q 20.796875 -1.421875 13.15625 6.1875 
Q 5.515625 13.8125 5.515625 26.8125 
Q 5.515625 40.234375 12.765625 48.109375 
Q 20.015625 56 32.328125 56 
Q 43.359375 56 49.78125 48.890625 
Q 56.203125 41.796875 56.203125 29.59375 
z
M 47.21875 32.234375 
Q 47.125 39.59375 43.09375 43.984375 
Q 39.0625 48.390625 32.421875 48.390625 
Q 24.90625 48.390625 20.390625 44.140625 
Q 15.875 39.890625 15.1875 32.171875 
z
" id="DejaVuSans-101"/>
      <path id="DejaVuSans-32"/>
      <path d="M 31 75.875 
Q 24.46875 64.65625 21.28125 53.65625 
Q 18.109375 42.671875 18.109375 31.390625 
Q 18.109375 20.125 21.3125 9.0625 
Q 24.515625 -2 31 -13.1875 
L 23.1875 -13.1875 
Q 15.875 -1.703125 12.234375 9.375 
Q 8.59375 20.453125 8.59375 31.390625 
Q 8.59375 42.28125 12.203125 53.3125 
Q 15.828125 64.359375 23.1875 75.875 
z
" id="DejaVuSans-40"/>
      <path d="M 44.28125 53.078125 
L 44.28125 44.578125 
Q 40.484375 46.53125 36.375 47.5 
Q 32.28125 48.484375 27.875 48.484375 
Q 21.1875 48.484375 17.84375 46.4375 
Q 14.5 44.390625 14.5 40.28125 
Q 14.5 37.15625 16.890625 35.375 
Q 19.28125 33.59375 26.515625 31.984375 
L 29.59375 31.296875 
Q 39.15625 29.25 43.1875 25.515625 
Q 47.21875 21.78125 47.21875 15.09375 
Q 47.21875 7.46875 41.1875 3.015625 
Q 35.15625 -1.421875 24.609375 -1.421875 
Q 20.21875 -1.421875 15.453125 -0.5625 
Q 10.6875 0.296875 5.421875 2 
L 5.421875 11.28125 
Q 10.40625 8.6875 15.234375 7.390625 
Q 20.0625 6.109375 24.8125 6.109375 
Q 31.15625 6.109375 34.5625 8.28125 
Q 37.984375 10.453125 37.984375 14.40625 
Q 37.984375 18.0625 35.515625 20.015625 
Q 33.0625 21.96875 24.703125 23.78125 
L 21.578125 24.515625 
Q 13.234375 26.265625 9.515625 29.90625 
Q 5.8125 33.546875 5.8125 39.890625 
Q 5.8125 47.609375 11.28125 51.796875 
Q 16.75 56 26.8125 56 
Q 31.78125 56 36.171875 55.265625 
Q 40.578125 54.546875 44.28125 53.078125 
z
" id="DejaVuSans-115"/>
      <path d="M 8.015625 75.875 
L 15.828125 75.875 
Q 23.140625 64.359375 26.78125 53.3125 
Q 30.421875 42.28125 30.421875 31.390625 
Q 30.421875 20.453125 26.78125 9.375 
Q 23.140625 -1.703125 15.828125 -13.1875 
L 8.015625 -13.1875 
Q 14.5 -2 17.703125 9.0625 
Q 20.90625 20.125 20.90625 31.390625 
Q 20.90625 42.671875 17.703125 53.65625 
Q 14.5 64.65625 8.015625 75.875 
z
" id="DejaVuSans-41"/>
     </defs>
     <g transform="translate(189.0125 268.034687)scale(0.1 -0.1)">
      <use xlink:href="#DejaVuSans-84"/>
      <use x="61.037109" xlink:href="#DejaVuSans-105"/>
      <use x="88.820312" xlink:href="#DejaVuSans-109"/>
      <use x="186.232422" xlink:href="#DejaVuSans-101"/>
      <use x="247.755859" xlink:href="#DejaVuSans-32"/>
      <use x="279.542969" xlink:href="#DejaVuSans-40"/>
      <use x="318.556641" xlink:href="#DejaVuSans-109"/>
      <use x="415.96875" xlink:href="#DejaVuSans-115"/>
      <use x="468.068359" xlink:href="#DejaVuSans-41"/>
     </g>
    </g>
   </g>
   <g id="matplotlib.axis_2">
    <g id="ytick_1">
     <g id="line2d_7">
      <defs>
       <path d="M 0 0 
L -3.5 0 
" id="m8b93f1f695" style="stroke:#000000;stroke-width:0.8;"/>
      </defs>
      <g>
       <use style="stroke:#000000;stroke-width:0.8;" x="46.965625" xlink:href="#m8b93f1f695" y="229.874489"/>
      </g>
     </g>
     <g id="text_8">
      <!-- 0 -->
      <g transform="translate(33.603125 233.673707)scale(0.1 -0.1)">
       <use xlink:href="#DejaVuSans-48"/>
      </g>
     </g>
    </g>
    <g id="ytick_2">
     <g id="line2d_8">
      <g>
       <use style="stroke:#000000;stroke-width:0.8;" x="46.965625" xlink:href="#m8b93f1f695" y="193.284055"/>
      </g>
     </g>
     <g id="text_9">
      <!-- 100 -->
      <g transform="translate(20.878125 197.083274)scale(0.1 -0.1)">
       <use xlink:href="#DejaVuSans-49"/>
       <use x="63.623047" xlink:href="#DejaVuSans-48"/>
       <use x="127.246094" xlink:href="#DejaVuSans-48"/>
      </g>
     </g>
    </g>
    <g id="ytick_3">
     <g id="line2d_9">
      <g>
       <use style="stroke:#000000;stroke-width:0.8;" x="46.965625" xlink:href="#m8b93f1f695" y="156.693621"/>
      </g>
     </g>
     <g id="text_10">
      <!-- 200 -->
      <g transform="translate(20.878125 160.49284)scale(0.1 -0.1)">
       <use xlink:href="#DejaVuSans-50"/>
       <use x="63.623047" xlink:href="#DejaVuSans-48"/>
       <use x="127.246094" xlink:href="#DejaVuSans-48"/>
      </g>
     </g>
    </g>
    <g id="ytick_4">
     <g id="line2d_10">
      <g>
       <use style="stroke:#000000;stroke-width:0.8;" x="46.965625" xlink:href="#m8b93f1f695" y="120.103188"/>
      </g>
     </g>
     <g id="text_11">
      <!-- 300 -->
      <defs>
       <path d="M 40.578125 39.3125 
Q 47.65625 37.796875 51.625 33 
Q 55.609375 28.21875 55.609375 21.1875 
Q 55.609375 10.40625 48.1875 4.484375 
Q 40.765625 -1.421875 27.09375 -1.421875 
Q 22.515625 -1.421875 17.65625 -0.515625 
Q 12.796875 0.390625 7.625 2.203125 
L 7.625 11.71875 
Q 11.71875 9.328125 16.59375 8.109375 
Q 21.484375 6.890625 26.8125 6.890625 
Q 36.078125 6.890625 40.9375 10.546875 
Q 45.796875 14.203125 45.796875 21.1875 
Q 45.796875 27.640625 41.28125 31.265625 
Q 36.765625 34.90625 28.71875 34.90625 
L 20.21875 34.90625 
L 20.21875 43.015625 
L 29.109375 43.015625 
Q 36.375 43.015625 40.234375 45.921875 
Q 44.09375 48.828125 44.09375 54.296875 
Q 44.09375 59.90625 40.109375 62.90625 
Q 36.140625 65.921875 28.71875 65.921875 
Q 24.65625 65.921875 20.015625 65.03125 
Q 15.375 64.15625 9.8125 62.3125 
L 9.8125 71.09375 
Q 15.4375 72.65625 20.34375 73.4375 
Q 25.25 74.21875 29.59375 74.21875 
Q 40.828125 74.21875 47.359375 69.109375 
Q 53.90625 64.015625 53.90625 55.328125 
Q 53.90625 49.265625 50.4375 45.09375 
Q 46.96875 40.921875 40.578125 39.3125 
z
" id="DejaVuSans-51"/>
      </defs>
      <g transform="translate(20.878125 123.902406)scale(0.1 -0.1)">
       <use xlink:href="#DejaVuSans-51"/>
       <use x="63.623047" xlink:href="#DejaVuSans-48"/>
       <use x="127.246094" xlink:href="#DejaVuSans-48"/>
      </g>
     </g>
    </g>
    <g id="ytick_5">
     <g id="line2d_11">
      <g>
       <use style="stroke:#000000;stroke-width:0.8;" x="46.965625" xlink:href="#m8b93f1f695" y="83.512754"/>
      </g>
     </g>
     <g id="text_12">
      <!-- 400 -->
      <g transform="translate(20.878125 87.311973)scale(0.1 -0.1)">
       <use xlink:href="#DejaVuSans-52"/>
       <use x="63.623047" xlink:href="#DejaVuSans-48"/>
       <use x="127.246094" xlink:href="#DejaVuSans-48"/>
      </g>
     </g>
    </g>
    <g id="ytick_6">
     <g id="line2d_12">
      <g>
       <use style="stroke:#000000;stroke-width:0.8;" x="46.965625" xlink:href="#m8b93f1f695" y="46.92232"/>
      </g>
     </g>
     <g id="text_13">
      <!-- 500 -->
      <defs>
       <path d="M 10.796875 72.90625 
L 49.515625 72.90625 
L 49.515625 64.59375 
L 19.828125 64.59375 
L 19.828125 46.734375 
Q 21.96875 47.46875 24.109375 47.828125 
Q 26.265625 48.1875 28.421875 48.1875 
Q 40.625 48.1875 47.75 41.5 
Q 54.890625 34.8125 54.890625 23.390625 
Q 54.890625 11.625 47.5625 5.09375 
Q 40.234375 -1.421875 26.90625 -1.421875 
Q 22.3125 -1.421875 17.546875 -0.640625 
Q 12.796875 0.140625 7.71875 1.703125 
L 7.71875 11.625 
Q 12.109375 9.234375 16.796875 8.0625 
Q 21.484375 6.890625 26.703125 6.890625 
Q 35.15625 6.890625 40.078125 11.328125 
Q 45.015625 15.765625 45.015625 23.390625 
Q 45.015625 31 40.078125 35.4375 
Q 35.15625 39.890625 26.703125 39.890625 
Q 22.75 39.890625 18.8125 39.015625 
Q 14.890625 38.140625 10.796875 36.28125 
z
" id="DejaVuSans-53"/>
      </defs>
      <g transform="translate(20.878125 50.721539)scale(0.1 -0.1)">
       <use xlink:href="#DejaVuSans-53"/>
       <use x="63.623047" xlink:href="#DejaVuSans-48"/>
       <use x="127.246094" xlink:href="#DejaVuSans-48"/>
      </g>
     </g>
    </g>
    <g id="text_14">
     <!-- ppmOH -->
     <defs>
      <path d="M 18.109375 8.203125 
L 18.109375 -20.796875 
L 9.078125 -20.796875 
L 9.078125 54.6875 
L 18.109375 54.6875 
L 18.109375 46.390625 
Q 20.953125 51.265625 25.265625 53.625 
Q 29.59375 56 35.59375 56 
Q 45.5625 56 51.78125 48.09375 
Q 58.015625 40.1875 58.015625 27.296875 
Q 58.015625 14.40625 51.78125 6.484375 
Q 45.5625 -1.421875 35.59375 -1.421875 
Q 29.59375 -1.421875 25.265625 0.953125 
Q 20.953125 3.328125 18.109375 8.203125 
z
M 48.6875 27.296875 
Q 48.6875 37.203125 44.609375 42.84375 
Q 40.53125 48.484375 33.40625 48.484375 
Q 26.265625 48.484375 22.1875 42.84375 
Q 18.109375 37.203125 18.109375 27.296875 
Q 18.109375 17.390625 22.1875 11.75 
Q 26.265625 6.109375 33.40625 6.109375 
Q 40.53125 6.109375 44.609375 11.75 
Q 48.6875 17.390625 48.6875 27.296875 
z
" id="DejaVuSans-112"/>
      <path d="M 39.40625 66.21875 
Q 28.65625 66.21875 22.328125 58.203125 
Q 16.015625 50.203125 16.015625 36.375 
Q 16.015625 22.609375 22.328125 14.59375 
Q 28.65625 6.59375 39.40625 6.59375 
Q 50.140625 6.59375 56.421875 14.59375 
Q 62.703125 22.609375 62.703125 36.375 
Q 62.703125 50.203125 56.421875 58.203125 
Q 50.140625 66.21875 39.40625 66.21875 
z
M 39.40625 74.21875 
Q 54.734375 74.21875 63.90625 63.9375 
Q 73.09375 53.65625 73.09375 36.375 
Q 73.09375 19.140625 63.90625 8.859375 
Q 54.734375 -1.421875 39.40625 -1.421875 
Q 24.03125 -1.421875 14.8125 8.828125 
Q 5.609375 19.09375 5.609375 36.375 
Q 5.609375 53.65625 14.8125 63.9375 
Q 24.03125 74.21875 39.40625 74.21875 
z
" id="DejaVuSans-79"/>
      <path d="M 9.8125 72.90625 
L 19.671875 72.90625 
L 19.671875 43.015625 
L 55.515625 43.015625 
L 55.515625 72.90625 
L 65.375 72.90625 
L 65.375 0 
L 55.515625 0 
L 55.515625 34.71875 
L 19.671875 34.71875 
L 19.671875 0 
L 9.8125 0 
z
" id="DejaVuSans-72"/>
     </defs>
     <g transform="translate(14.798438 149.952969)rotate(-90)scale(0.1 -0.1)">
      <use xlink:href="#DejaVuSans-112"/>
      <use x="63.476562" xlink:href="#DejaVuSans-112"/>
      <use x="126.953125" xlink:href="#DejaVuSans-109"/>
      <use x="224.365234" xlink:href="#DejaVuSans-79"/>
      <use x="303.076172" xlink:href="#DejaVuSans-72"/>
     </g>
    </g>
   </g>
   <g id="line2d_13">
    <path clip-path="url(#p4667a4d134)" d="M 62.183807 229.874489 
L 68.466606 229.765449 
L 77.512572 229.395927 
L 84.912452 228.896544 
L 91.346306 228.238852 
L 96.83341 227.438347 
L 101.750437 226.461762 
L 105.684059 225.449112 
L 109.61768 224.175822 
L 112.567896 223.012949 
L 115.518113 221.638382 
L 118.468329 220.017796 
L 121.418545 218.113011 
L 124.368761 215.882257 
L 127.318977 213.280783 
L 130.269194 210.261912 
L 133.21941 206.778652 
L 136.169626 202.785955 
L 139.119842 198.243657 
L 142.070059 193.120063 
L 145.020275 187.396004 
L 147.970491 181.069055 
L 150.920707 174.157432 
L 153.835453 166.795569 
L 157.478886 156.948232 
L 161.851005 144.424169 
L 174.967363 106.184914 
L 178.610795 96.45396 
L 181.525541 89.195146 
L 184.440287 82.465972 
L 187.355034 76.29962 
L 190.26978 70.708463 
L 193.184526 65.687095 
L 196.099272 61.215922 
L 199.014018 57.264855 
L 201.928764 53.796756 
L 204.84351 50.77043 
L 207.758256 48.143067 
L 210.673002 45.872116 
L 213.587748 43.916638 
L 216.502495 42.238214 
L 219.417241 40.801482 
L 222.719746 39.425382 
L 226.069085 38.262318 
L 229.418424 37.296104 
L 233.884208 36.25899 
L 238.349993 35.451589 
L 243.932224 34.689276 
L 250.630901 34.039161 
L 258.446025 33.529796 
L 268.49404 33.121361 
L 281.891395 32.814335 
L 303.773611 32.563695 
L 356.329966 32.258792 
L 366.547443 32.208764 
L 366.547443 32.208764 
" style="fill:none;stroke:#0000ff;stroke-linecap:square;stroke-width:1.5;"/>
   </g>
   <g id="line2d_14">
    <path clip-path="url(#p4667a4d134)" d="M 62.183807 229.874489 
L 68.632591 229.763792 
L 78.025178 229.386101 
L 85.58918 228.87932 
L 91.545736 228.283583 
L 97.231605 227.480447 
L 102.105206 226.541947 
L 106.166541 225.527877 
L 109.415609 224.526719 
L 112.664676 223.321478 
L 115.913744 221.87412 
L 119.162812 220.141163 
L 121.599612 218.624764 
L 124.036413 216.897695 
L 126.473214 214.935931 
L 128.910015 212.714329 
L 131.346815 210.207096 
L 133.783616 207.388448 
L 136.220417 204.233456 
L 138.657218 200.719111 
L 141.094018 196.82558 
L 143.530819 192.537644 
L 145.96762 187.846235 
L 148.404421 182.750002 
L 151.653488 175.340282 
L 154.902556 167.273507 
L 158.151624 158.632554 
L 162.212958 147.205915 
L 177.64603 102.839241 
L 180.895097 94.40893 
L 184.144165 86.578604 
L 187.393233 79.413278 
L 189.830033 74.496078 
L 192.266834 69.974108 
L 194.703635 65.842065 
L 197.140436 62.088223 
L 199.577236 58.695885 
L 202.014037 55.644756 
L 204.450838 52.912174 
L 206.887639 50.474156 
L 209.324439 48.306273 
L 211.76124 46.384331 
L 214.198041 44.684889 
L 217.447108 42.726695 
L 220.696176 41.075489 
L 223.945244 39.687081 
L 226.788402 38.656804 
L 230.444275 37.546585 
L 234.100148 36.638575 
L 238.974645 35.681073 
L 243.849142 34.950373 
L 249.942264 34.274953 
L 257.25401 33.71258 
L 265.78438 33.282567 
L 277.970623 32.917258 
L 296.249988 32.635751 
L 329.956973 32.386672 
L 365.944587 32.201761 
L 365.944587 32.201761 
" style="fill:none;stroke:#ff0000;stroke-linecap:square;stroke-width:1.5;"/>
   </g>
   <g id="line2d_15">
    <defs>
     <path d="M 0 3 
C 0.795609 3 1.55874 2.683901 2.12132 2.12132 
C 2.683901 1.55874 3 0.795609 3 0 
C 3 -0.795609 2.683901 -1.55874 2.12132 -2.12132 
C 1.55874 -2.683901 0.795609 -3 0 -3 
C -0.795609 -3 -1.55874 -2.683901 -2.12132 -2.12132 
C -2.683901 -1.55874 -3 -0.795609 -3 0 
C -3 0.795609 -2.683901 1.55874 -2.12132 2.12132 
C -1.55874 2.683901 -0.795609 3 0 3 
z
" id="m76fb62d76c" style="stroke:#000000;"/>
    </defs>
    <g clip-path="url(#p4667a4d134)">
     <use style="stroke:#000000;" x="62.183807" xlink:href="#m76fb62d76c" y="229.874489"/>
     <use style="stroke:#000000;" x="62.184029" xlink:href="#m76fb62d76c" y="229.874489"/>
     <use style="stroke:#000000;" x="62.184725" xlink:href="#m76fb62d76c" y="229.874489"/>
     <use style="stroke:#000000;" x="62.185422" xlink:href="#m76fb62d76c" y="229.874489"/>
     <use style="stroke:#000000;" x="62.186118" xlink:href="#m76fb62d76c" y="229.874489"/>
     <use style="stroke:#000000;" x="62.186815" xlink:href="#m76fb62d76c" y="229.874489"/>
     <use style="stroke:#000000;" x="62.188291" xlink:href="#m76fb62d76c" y="229.874489"/>
     <use style="stroke:#000000;" x="62.190941" xlink:href="#m76fb62d76c" y="229.874488"/>
     <use style="stroke:#000000;" x="62.196053" xlink:href="#m76fb62d76c" y="229.874488"/>
     <use style="stroke:#000000;" x="62.201164" xlink:href="#m76fb62d76c" y="229.874488"/>
     <use style="stroke:#000000;" x="62.206275" xlink:href="#m76fb62d76c" y="229.874487"/>
     <use style="stroke:#000000;" x="62.211387" xlink:href="#m76fb62d76c" y="229.874486"/>
     <use style="stroke:#000000;" x="62.216498" xlink:href="#m76fb62d76c" y="229.874485"/>
     <use style="stroke:#000000;" x="62.22161" xlink:href="#m76fb62d76c" y="229.874484"/>
     <use style="stroke:#000000;" x="62.226721" xlink:href="#m76fb62d76c" y="229.874482"/>
     <use style="stroke:#000000;" x="62.235261" xlink:href="#m76fb62d76c" y="229.87448"/>
     <use style="stroke:#000000;" x="62.243801" xlink:href="#m76fb62d76c" y="229.874477"/>
     <use style="stroke:#000000;" x="62.252342" xlink:href="#m76fb62d76c" y="229.874473"/>
     <use style="stroke:#000000;" x="62.260882" xlink:href="#m76fb62d76c" y="229.874469"/>
     <use style="stroke:#000000;" x="62.277262" xlink:href="#m76fb62d76c" y="229.874459"/>
     <use style="stroke:#000000;" x="62.293642" xlink:href="#m76fb62d76c" y="229.874448"/>
     <use style="stroke:#000000;" x="62.310022" xlink:href="#m76fb62d76c" y="229.874435"/>
     <use style="stroke:#000000;" x="62.326402" xlink:href="#m76fb62d76c" y="229.87442"/>
     <use style="stroke:#000000;" x="62.352331" xlink:href="#m76fb62d76c" y="229.874393"/>
     <use style="stroke:#000000;" x="62.37826" xlink:href="#m76fb62d76c" y="229.874362"/>
     <use style="stroke:#000000;" x="62.40419" xlink:href="#m76fb62d76c" y="229.874325"/>
     <use style="stroke:#000000;" x="62.430119" xlink:href="#m76fb62d76c" y="229.874284"/>
     <use style="stroke:#000000;" x="62.456048" xlink:href="#m76fb62d76c" y="229.874239"/>
     <use style="stroke:#000000;" x="62.481977" xlink:href="#m76fb62d76c" y="229.874189"/>
     <use style="stroke:#000000;" x="62.507906" xlink:href="#m76fb62d76c" y="229.874135"/>
     <use style="stroke:#000000;" x="62.533835" xlink:href="#m76fb62d76c" y="229.874075"/>
     <use style="stroke:#000000;" x="62.559764" xlink:href="#m76fb62d76c" y="229.874012"/>
     <use style="stroke:#000000;" x="62.585693" xlink:href="#m76fb62d76c" y="229.873943"/>
     <use style="stroke:#000000;" x="62.626151" xlink:href="#m76fb62d76c" y="229.873828"/>
     <use style="stroke:#000000;" x="62.666609" xlink:href="#m76fb62d76c" y="229.873701"/>
     <use style="stroke:#000000;" x="62.707067" xlink:href="#m76fb62d76c" y="229.873563"/>
     <use style="stroke:#000000;" x="62.747525" xlink:href="#m76fb62d76c" y="229.873414"/>
     <use style="stroke:#000000;" x="62.787983" xlink:href="#m76fb62d76c" y="229.873254"/>
     <use style="stroke:#000000;" x="62.828441" xlink:href="#m76fb62d76c" y="229.873083"/>
     <use style="stroke:#000000;" x="62.8689" xlink:href="#m76fb62d76c" y="229.872901"/>
     <use style="stroke:#000000;" x="62.909358" xlink:href="#m76fb62d76c" y="229.872707"/>
     <use style="stroke:#000000;" x="62.949816" xlink:href="#m76fb62d76c" y="229.872503"/>
     <use style="stroke:#000000;" x="62.990274" xlink:href="#m76fb62d76c" y="229.872288"/>
     <use style="stroke:#000000;" x="63.030732" xlink:href="#m76fb62d76c" y="229.872062"/>
     <use style="stroke:#000000;" x="63.099783" xlink:href="#m76fb62d76c" y="229.871652"/>
     <use style="stroke:#000000;" x="63.168835" xlink:href="#m76fb62d76c" y="229.87121"/>
     <use style="stroke:#000000;" x="63.237886" xlink:href="#m76fb62d76c" y="229.870737"/>
     <use style="stroke:#000000;" x="63.283113" xlink:href="#m76fb62d76c" y="229.870411"/>
     <use style="stroke:#000000;" x="63.314198" xlink:href="#m76fb62d76c" y="229.870179"/>
     <use style="stroke:#000000;" x="63.345283" xlink:href="#m76fb62d76c" y="229.86994"/>
     <use style="stroke:#000000;" x="63.376367" xlink:href="#m76fb62d76c" y="229.869696"/>
     <use style="stroke:#000000;" x="63.407452" xlink:href="#m76fb62d76c" y="229.869446"/>
     <use style="stroke:#000000;" x="63.438537" xlink:href="#m76fb62d76c" y="229.869189"/>
     <use style="stroke:#000000;" x="63.469621" xlink:href="#m76fb62d76c" y="229.868926"/>
     <use style="stroke:#000000;" x="63.500706" xlink:href="#m76fb62d76c" y="229.868658"/>
     <use style="stroke:#000000;" x="63.561353" xlink:href="#m76fb62d76c" y="229.868116"/>
     <use style="stroke:#000000;" x="63.622001" xlink:href="#m76fb62d76c" y="229.867552"/>
     <use style="stroke:#000000;" x="63.682648" xlink:href="#m76fb62d76c" y="229.866966"/>
     <use style="stroke:#000000;" x="63.743295" xlink:href="#m76fb62d76c" y="229.866357"/>
     <use style="stroke:#000000;" x="63.803942" xlink:href="#m76fb62d76c" y="229.865727"/>
     <use style="stroke:#000000;" x="63.86459" xlink:href="#m76fb62d76c" y="229.865075"/>
     <use style="stroke:#000000;" x="63.965879" xlink:href="#m76fb62d76c" y="229.863938"/>
     <use style="stroke:#000000;" x="64.067169" xlink:href="#m76fb62d76c" y="229.862742"/>
     <use style="stroke:#000000;" x="64.168458" xlink:href="#m76fb62d76c" y="229.86149"/>
     <use style="stroke:#000000;" x="64.269748" xlink:href="#m76fb62d76c" y="229.86018"/>
     <use style="stroke:#000000;" x="64.371038" xlink:href="#m76fb62d76c" y="229.858816"/>
     <use style="stroke:#000000;" x="64.472327" xlink:href="#m76fb62d76c" y="229.857398"/>
     <use style="stroke:#000000;" x="64.573617" xlink:href="#m76fb62d76c" y="229.855927"/>
     <use style="stroke:#000000;" x="64.674906" xlink:href="#m76fb62d76c" y="229.854404"/>
     <use style="stroke:#000000;" x="64.832715" xlink:href="#m76fb62d76c" y="229.851931"/>
     <use style="stroke:#000000;" x="64.990524" xlink:href="#m76fb62d76c" y="229.849341"/>
     <use style="stroke:#000000;" x="65.148333" xlink:href="#m76fb62d76c" y="229.846635"/>
     <use style="stroke:#000000;" x="65.306141" xlink:href="#m76fb62d76c" y="229.84382"/>
     <use style="stroke:#000000;" x="65.46395" xlink:href="#m76fb62d76c" y="229.840898"/>
     <use style="stroke:#000000;" x="65.621759" xlink:href="#m76fb62d76c" y="229.837874"/>
     <use style="stroke:#000000;" x="65.779567" xlink:href="#m76fb62d76c" y="229.83475"/>
     <use style="stroke:#000000;" x="65.937376" xlink:href="#m76fb62d76c" y="229.831531"/>
     <use style="stroke:#000000;" x="66.095185" xlink:href="#m76fb62d76c" y="229.828219"/>
     <use style="stroke:#000000;" x="66.252994" xlink:href="#m76fb62d76c" y="229.824817"/>
     <use style="stroke:#000000;" x="66.410802" xlink:href="#m76fb62d76c" y="229.821328"/>
     <use style="stroke:#000000;" x="66.568611" xlink:href="#m76fb62d76c" y="229.817755"/>
     <use style="stroke:#000000;" x="66.72642" xlink:href="#m76fb62d76c" y="229.814101"/>
     <use style="stroke:#000000;" x="66.884228" xlink:href="#m76fb62d76c" y="229.810367"/>
     <use style="stroke:#000000;" x="67.042037" xlink:href="#m76fb62d76c" y="229.806557"/>
     <use style="stroke:#000000;" x="67.199846" xlink:href="#m76fb62d76c" y="229.802671"/>
     <use style="stroke:#000000;" x="67.357655" xlink:href="#m76fb62d76c" y="229.798712"/>
     <use style="stroke:#000000;" x="67.515463" xlink:href="#m76fb62d76c" y="229.794682"/>
     <use style="stroke:#000000;" x="67.673272" xlink:href="#m76fb62d76c" y="229.790583"/>
     <use style="stroke:#000000;" x="67.831081" xlink:href="#m76fb62d76c" y="229.786415"/>
     <use style="stroke:#000000;" x="67.988889" xlink:href="#m76fb62d76c" y="229.782181"/>
     <use style="stroke:#000000;" x="68.146698" xlink:href="#m76fb62d76c" y="229.777881"/>
     <use style="stroke:#000000;" x="68.304507" xlink:href="#m76fb62d76c" y="229.773517"/>
     <use style="stroke:#000000;" x="68.462316" xlink:href="#m76fb62d76c" y="229.76909"/>
     <use style="stroke:#000000;" x="68.620124" xlink:href="#m76fb62d76c" y="229.7646"/>
     <use style="stroke:#000000;" x="68.777933" xlink:href="#m76fb62d76c" y="229.760049"/>
     <use style="stroke:#000000;" x="68.935742" xlink:href="#m76fb62d76c" y="229.755438"/>
     <use style="stroke:#000000;" x="69.09355" xlink:href="#m76fb62d76c" y="229.750767"/>
     <use style="stroke:#000000;" x="69.251359" xlink:href="#m76fb62d76c" y="229.746036"/>
     <use style="stroke:#000000;" x="69.409168" xlink:href="#m76fb62d76c" y="229.741247"/>
     <use style="stroke:#000000;" x="69.566977" xlink:href="#m76fb62d76c" y="229.736399"/>
     <use style="stroke:#000000;" x="69.805521" xlink:href="#m76fb62d76c" y="229.728962"/>
     <use style="stroke:#000000;" x="70.044065" xlink:href="#m76fb62d76c" y="229.721393"/>
     <use style="stroke:#000000;" x="70.282609" xlink:href="#m76fb62d76c" y="229.713695"/>
     <use style="stroke:#000000;" x="70.521153" xlink:href="#m76fb62d76c" y="229.705866"/>
     <use style="stroke:#000000;" x="70.759697" xlink:href="#m76fb62d76c" y="229.697909"/>
     <use style="stroke:#000000;" x="70.998242" xlink:href="#m76fb62d76c" y="229.689821"/>
     <use style="stroke:#000000;" x="71.236786" xlink:href="#m76fb62d76c" y="229.681604"/>
     <use style="stroke:#000000;" x="71.47533" xlink:href="#m76fb62d76c" y="229.673258"/>
     <use style="stroke:#000000;" x="71.713874" xlink:href="#m76fb62d76c" y="229.66478"/>
     <use style="stroke:#000000;" x="71.952418" xlink:href="#m76fb62d76c" y="229.656172"/>
     <use style="stroke:#000000;" x="72.190963" xlink:href="#m76fb62d76c" y="229.647432"/>
     <use style="stroke:#000000;" x="72.429507" xlink:href="#m76fb62d76c" y="229.638559"/>
     <use style="stroke:#000000;" x="72.668051" xlink:href="#m76fb62d76c" y="229.629552"/>
     <use style="stroke:#000000;" x="72.906595" xlink:href="#m76fb62d76c" y="229.62041"/>
     <use style="stroke:#000000;" x="73.145139" xlink:href="#m76fb62d76c" y="229.611131"/>
     <use style="stroke:#000000;" x="73.383683" xlink:href="#m76fb62d76c" y="229.601715"/>
     <use style="stroke:#000000;" x="73.622228" xlink:href="#m76fb62d76c" y="229.59216"/>
     <use style="stroke:#000000;" x="73.860772" xlink:href="#m76fb62d76c" y="229.582464"/>
     <use style="stroke:#000000;" x="74.099316" xlink:href="#m76fb62d76c" y="229.572625"/>
     <use style="stroke:#000000;" x="74.33786" xlink:href="#m76fb62d76c" y="229.562642"/>
     <use style="stroke:#000000;" x="74.701016" xlink:href="#m76fb62d76c" y="229.547164"/>
     <use style="stroke:#000000;" x="75.064171" xlink:href="#m76fb62d76c" y="229.531342"/>
     <use style="stroke:#000000;" x="75.427327" xlink:href="#m76fb62d76c" y="229.515168"/>
     <use style="stroke:#000000;" x="75.790483" xlink:href="#m76fb62d76c" y="229.498637"/>
     <use style="stroke:#000000;" x="76.153638" xlink:href="#m76fb62d76c" y="229.481739"/>
     <use style="stroke:#000000;" x="76.516794" xlink:href="#m76fb62d76c" y="229.464469"/>
     <use style="stroke:#000000;" x="76.87995" xlink:href="#m76fb62d76c" y="229.446818"/>
     <use style="stroke:#000000;" x="77.243105" xlink:href="#m76fb62d76c" y="229.428777"/>
     <use style="stroke:#000000;" x="77.606261" xlink:href="#m76fb62d76c" y="229.41034"/>
     <use style="stroke:#000000;" x="77.969417" xlink:href="#m76fb62d76c" y="229.391497"/>
     <use style="stroke:#000000;" x="78.332572" xlink:href="#m76fb62d76c" y="229.37224"/>
     <use style="stroke:#000000;" x="78.695728" xlink:href="#m76fb62d76c" y="229.352559"/>
     <use style="stroke:#000000;" x="79.058883" xlink:href="#m76fb62d76c" y="229.332447"/>
     <use style="stroke:#000000;" x="79.422039" xlink:href="#m76fb62d76c" y="229.311892"/>
     <use style="stroke:#000000;" x="79.979772" xlink:href="#m76fb62d76c" y="229.279443"/>
     <use style="stroke:#000000;" x="80.537505" xlink:href="#m76fb62d76c" y="229.245894"/>
     <use style="stroke:#000000;" x="81.095238" xlink:href="#m76fb62d76c" y="229.211208"/>
     <use style="stroke:#000000;" x="81.652971" xlink:href="#m76fb62d76c" y="229.175347"/>
     <use style="stroke:#000000;" x="82.210704" xlink:href="#m76fb62d76c" y="229.138272"/>
     <use style="stroke:#000000;" x="82.768436" xlink:href="#m76fb62d76c" y="229.099943"/>
     <use style="stroke:#000000;" x="83.326169" xlink:href="#m76fb62d76c" y="229.060316"/>
     <use style="stroke:#000000;" x="83.883902" xlink:href="#m76fb62d76c" y="229.01935"/>
     <use style="stroke:#000000;" x="84.441635" xlink:href="#m76fb62d76c" y="228.976998"/>
     <use style="stroke:#000000;" x="84.999368" xlink:href="#m76fb62d76c" y="228.933216"/>
     <use style="stroke:#000000;" x="85.557101" xlink:href="#m76fb62d76c" y="228.887954"/>
     <use style="stroke:#000000;" x="86.114834" xlink:href="#m76fb62d76c" y="228.841164"/>
     <use style="stroke:#000000;" x="86.672567" xlink:href="#m76fb62d76c" y="228.792794"/>
     <use style="stroke:#000000;" x="87.2303" xlink:href="#m76fb62d76c" y="228.742793"/>
     <use style="stroke:#000000;" x="87.788032" xlink:href="#m76fb62d76c" y="228.691106"/>
     <use style="stroke:#000000;" x="88.345765" xlink:href="#m76fb62d76c" y="228.637676"/>
     <use style="stroke:#000000;" x="89.188203" xlink:href="#m76fb62d76c" y="228.55354"/>
     <use style="stroke:#000000;" x="90.03064" xlink:href="#m76fb62d76c" y="228.46509"/>
     <use style="stroke:#000000;" x="90.873078" xlink:href="#m76fb62d76c" y="228.372107"/>
     <use style="stroke:#000000;" x="91.715515" xlink:href="#m76fb62d76c" y="228.274365"/>
     <use style="stroke:#000000;" x="92.557953" xlink:href="#m76fb62d76c" y="228.171624"/>
     <use style="stroke:#000000;" x="93.40039" xlink:href="#m76fb62d76c" y="228.063634"/>
     <use style="stroke:#000000;" x="94.242828" xlink:href="#m76fb62d76c" y="227.950132"/>
     <use style="stroke:#000000;" x="95.085265" xlink:href="#m76fb62d76c" y="227.830845"/>
     <use style="stroke:#000000;" x="95.927703" xlink:href="#m76fb62d76c" y="227.705484"/>
     <use style="stroke:#000000;" x="96.77014" xlink:href="#m76fb62d76c" y="227.573749"/>
     <use style="stroke:#000000;" x="97.612578" xlink:href="#m76fb62d76c" y="227.435324"/>
     <use style="stroke:#000000;" x="98.455015" xlink:href="#m76fb62d76c" y="227.289879"/>
     <use style="stroke:#000000;" x="99.297453" xlink:href="#m76fb62d76c" y="227.137071"/>
     <use style="stroke:#000000;" x="100.13989" xlink:href="#m76fb62d76c" y="226.976538"/>
     <use style="stroke:#000000;" x="100.982328" xlink:href="#m76fb62d76c" y="226.807904"/>
     <use style="stroke:#000000;" x="101.824765" xlink:href="#m76fb62d76c" y="226.630775"/>
     <use style="stroke:#000000;" x="102.667203" xlink:href="#m76fb62d76c" y="226.44474"/>
     <use style="stroke:#000000;" x="103.50964" xlink:href="#m76fb62d76c" y="226.249371"/>
     <use style="stroke:#000000;" x="104.352078" xlink:href="#m76fb62d76c" y="226.044219"/>
     <use style="stroke:#000000;" x="105.194515" xlink:href="#m76fb62d76c" y="225.828817"/>
     <use style="stroke:#000000;" x="106.036953" xlink:href="#m76fb62d76c" y="225.602679"/>
     <use style="stroke:#000000;" x="106.87939" xlink:href="#m76fb62d76c" y="225.365296"/>
     <use style="stroke:#000000;" x="107.721828" xlink:href="#m76fb62d76c" y="225.116142"/>
     <use style="stroke:#000000;" x="108.564265" xlink:href="#m76fb62d76c" y="224.854666"/>
     <use style="stroke:#000000;" x="109.406703" xlink:href="#m76fb62d76c" y="224.580297"/>
     <use style="stroke:#000000;" x="110.24914" xlink:href="#m76fb62d76c" y="224.29244"/>
     <use style="stroke:#000000;" x="111.091578" xlink:href="#m76fb62d76c" y="223.990477"/>
     <use style="stroke:#000000;" x="111.934015" xlink:href="#m76fb62d76c" y="223.673768"/>
     <use style="stroke:#000000;" x="112.776453" xlink:href="#m76fb62d76c" y="223.341648"/>
     <use style="stroke:#000000;" x="113.61889" xlink:href="#m76fb62d76c" y="222.993428"/>
     <use style="stroke:#000000;" x="114.461328" xlink:href="#m76fb62d76c" y="222.628396"/>
     <use style="stroke:#000000;" x="115.303765" xlink:href="#m76fb62d76c" y="222.245812"/>
     <use style="stroke:#000000;" x="116.146203" xlink:href="#m76fb62d76c" y="221.844914"/>
     <use style="stroke:#000000;" x="116.98864" xlink:href="#m76fb62d76c" y="221.424916"/>
     <use style="stroke:#000000;" x="117.831078" xlink:href="#m76fb62d76c" y="220.985005"/>
     <use style="stroke:#000000;" x="118.673515" xlink:href="#m76fb62d76c" y="220.524344"/>
     <use style="stroke:#000000;" x="119.515953" xlink:href="#m76fb62d76c" y="220.042073"/>
     <use style="stroke:#000000;" x="120.35839" xlink:href="#m76fb62d76c" y="219.537307"/>
     <use style="stroke:#000000;" x="121.200828" xlink:href="#m76fb62d76c" y="219.009139"/>
     <use style="stroke:#000000;" x="122.043265" xlink:href="#m76fb62d76c" y="218.45664"/>
     <use style="stroke:#000000;" x="122.885703" xlink:href="#m76fb62d76c" y="217.878858"/>
     <use style="stroke:#000000;" x="123.72814" xlink:href="#m76fb62d76c" y="217.274822"/>
     <use style="stroke:#000000;" x="124.570578" xlink:href="#m76fb62d76c" y="216.643543"/>
     <use style="stroke:#000000;" x="125.413015" xlink:href="#m76fb62d76c" y="215.984013"/>
     <use style="stroke:#000000;" x="126.255453" xlink:href="#m76fb62d76c" y="215.295211"/>
     <use style="stroke:#000000;" x="127.09789" xlink:href="#m76fb62d76c" y="214.5761"/>
     <use style="stroke:#000000;" x="127.940328" xlink:href="#m76fb62d76c" y="213.825636"/>
     <use style="stroke:#000000;" x="128.782765" xlink:href="#m76fb62d76c" y="213.042763"/>
     <use style="stroke:#000000;" x="129.625203" xlink:href="#m76fb62d76c" y="212.226422"/>
     <use style="stroke:#000000;" x="130.46764" xlink:href="#m76fb62d76c" y="211.375554"/>
     <use style="stroke:#000000;" x="131.310078" xlink:href="#m76fb62d76c" y="210.489098"/>
     <use style="stroke:#000000;" x="132.152515" xlink:href="#m76fb62d76c" y="209.566002"/>
     <use style="stroke:#000000;" x="132.994953" xlink:href="#m76fb62d76c" y="208.605224"/>
     <use style="stroke:#000000;" x="133.837391" xlink:href="#m76fb62d76c" y="207.605735"/>
     <use style="stroke:#000000;" x="134.679828" xlink:href="#m76fb62d76c" y="206.566528"/>
     <use style="stroke:#000000;" x="135.522266" xlink:href="#m76fb62d76c" y="205.48662"/>
     <use style="stroke:#000000;" x="136.364703" xlink:href="#m76fb62d76c" y="204.365062"/>
     <use style="stroke:#000000;" x="137.207141" xlink:href="#m76fb62d76c" y="203.200938"/>
     <use style="stroke:#000000;" x="138.049578" xlink:href="#m76fb62d76c" y="201.993379"/>
     <use style="stroke:#000000;" x="138.892016" xlink:href="#m76fb62d76c" y="200.741565"/>
     <use style="stroke:#000000;" x="139.734453" xlink:href="#m76fb62d76c" y="199.444734"/>
     <use style="stroke:#000000;" x="140.576891" xlink:href="#m76fb62d76c" y="198.102188"/>
     <use style="stroke:#000000;" x="141.419328" xlink:href="#m76fb62d76c" y="196.7133"/>
     <use style="stroke:#000000;" x="142.261766" xlink:href="#m76fb62d76c" y="195.277525"/>
     <use style="stroke:#000000;" x="143.104203" xlink:href="#m76fb62d76c" y="193.794403"/>
     <use style="stroke:#000000;" x="143.946641" xlink:href="#m76fb62d76c" y="192.263569"/>
     <use style="stroke:#000000;" x="144.789078" xlink:href="#m76fb62d76c" y="190.684762"/>
     <use style="stroke:#000000;" x="145.631516" xlink:href="#m76fb62d76c" y="189.057828"/>
     <use style="stroke:#000000;" x="146.473953" xlink:href="#m76fb62d76c" y="187.382734"/>
     <use style="stroke:#000000;" x="147.316391" xlink:href="#m76fb62d76c" y="185.659569"/>
     <use style="stroke:#000000;" x="148.158828" xlink:href="#m76fb62d76c" y="183.888554"/>
     <use style="stroke:#000000;" x="149.001266" xlink:href="#m76fb62d76c" y="182.070047"/>
     <use style="stroke:#000000;" x="149.843703" xlink:href="#m76fb62d76c" y="180.204549"/>
     <use style="stroke:#000000;" x="150.686141" xlink:href="#m76fb62d76c" y="178.292711"/>
     <use style="stroke:#000000;" x="151.528578" xlink:href="#m76fb62d76c" y="176.335334"/>
     <use style="stroke:#000000;" x="152.371016" xlink:href="#m76fb62d76c" y="174.333376"/>
     <use style="stroke:#000000;" x="153.213453" xlink:href="#m76fb62d76c" y="172.287955"/>
     <use style="stroke:#000000;" x="154.055891" xlink:href="#m76fb62d76c" y="170.200348"/>
     <use style="stroke:#000000;" x="154.898328" xlink:href="#m76fb62d76c" y="168.071992"/>
     <use style="stroke:#000000;" x="155.740766" xlink:href="#m76fb62d76c" y="165.904485"/>
     <use style="stroke:#000000;" x="156.583203" xlink:href="#m76fb62d76c" y="163.699582"/>
     <use style="stroke:#000000;" x="157.425641" xlink:href="#m76fb62d76c" y="161.459195"/>
     <use style="stroke:#000000;" x="158.268078" xlink:href="#m76fb62d76c" y="159.185384"/>
     <use style="stroke:#000000;" x="159.110516" xlink:href="#m76fb62d76c" y="156.880355"/>
     <use style="stroke:#000000;" x="159.952953" xlink:href="#m76fb62d76c" y="154.546451"/>
     <use style="stroke:#000000;" x="160.795391" xlink:href="#m76fb62d76c" y="152.186144"/>
     <use style="stroke:#000000;" x="161.637828" xlink:href="#m76fb62d76c" y="149.802029"/>
     <use style="stroke:#000000;" x="162.480266" xlink:href="#m76fb62d76c" y="147.396806"/>
     <use style="stroke:#000000;" x="163.322703" xlink:href="#m76fb62d76c" y="144.973276"/>
     <use style="stroke:#000000;" x="164.165141" xlink:href="#m76fb62d76c" y="142.534323"/>
     <use style="stroke:#000000;" x="165.007578" xlink:href="#m76fb62d76c" y="140.082902"/>
     <use style="stroke:#000000;" x="165.850016" xlink:href="#m76fb62d76c" y="137.622028"/>
     <use style="stroke:#000000;" x="166.692453" xlink:href="#m76fb62d76c" y="135.154757"/>
     <use style="stroke:#000000;" x="167.534891" xlink:href="#m76fb62d76c" y="132.68417"/>
     <use style="stroke:#000000;" x="168.377328" xlink:href="#m76fb62d76c" y="130.213364"/>
     <use style="stroke:#000000;" x="169.219766" xlink:href="#m76fb62d76c" y="127.74543"/>
     <use style="stroke:#000000;" x="170.062203" xlink:href="#m76fb62d76c" y="125.283438"/>
     <use style="stroke:#000000;" x="170.904641" xlink:href="#m76fb62d76c" y="122.830428"/>
     <use style="stroke:#000000;" x="171.747078" xlink:href="#m76fb62d76c" y="120.389387"/>
     <use style="stroke:#000000;" x="172.589516" xlink:href="#m76fb62d76c" y="117.96324"/>
     <use style="stroke:#000000;" x="173.431953" xlink:href="#m76fb62d76c" y="115.554834"/>
     <use style="stroke:#000000;" x="174.274391" xlink:href="#m76fb62d76c" y="113.166928"/>
     <use style="stroke:#000000;" x="175.116828" xlink:href="#m76fb62d76c" y="110.802177"/>
     <use style="stroke:#000000;" x="175.959266" xlink:href="#m76fb62d76c" y="108.463124"/>
     <use style="stroke:#000000;" x="176.801703" xlink:href="#m76fb62d76c" y="106.152191"/>
     <use style="stroke:#000000;" x="177.644141" xlink:href="#m76fb62d76c" y="103.871669"/>
     <use style="stroke:#000000;" x="178.486578" xlink:href="#m76fb62d76c" y="101.623709"/>
     <use style="stroke:#000000;" x="179.329016" xlink:href="#m76fb62d76c" y="99.410321"/>
     <use style="stroke:#000000;" x="180.171453" xlink:href="#m76fb62d76c" y="97.233365"/>
     <use style="stroke:#000000;" x="181.013891" xlink:href="#m76fb62d76c" y="95.094548"/>
     <use style="stroke:#000000;" x="181.856328" xlink:href="#m76fb62d76c" y="92.995423"/>
     <use style="stroke:#000000;" x="182.698766" xlink:href="#m76fb62d76c" y="90.937388"/>
     <use style="stroke:#000000;" x="183.541203" xlink:href="#m76fb62d76c" y="88.921684"/>
     <use style="stroke:#000000;" x="184.383641" xlink:href="#m76fb62d76c" y="86.949399"/>
     <use style="stroke:#000000;" x="185.226078" xlink:href="#m76fb62d76c" y="85.021466"/>
     <use style="stroke:#000000;" x="186.068516" xlink:href="#m76fb62d76c" y="83.138672"/>
     <use style="stroke:#000000;" x="186.910953" xlink:href="#m76fb62d76c" y="81.301654"/>
     <use style="stroke:#000000;" x="187.753391" xlink:href="#m76fb62d76c" y="79.51091"/>
     <use style="stroke:#000000;" x="188.595828" xlink:href="#m76fb62d76c" y="77.766802"/>
     <use style="stroke:#000000;" x="189.438266" xlink:href="#m76fb62d76c" y="76.069561"/>
     <use style="stroke:#000000;" x="190.280703" xlink:href="#m76fb62d76c" y="74.419293"/>
     <use style="stroke:#000000;" x="191.123141" xlink:href="#m76fb62d76c" y="72.815986"/>
     <use style="stroke:#000000;" x="191.965578" xlink:href="#m76fb62d76c" y="71.259518"/>
     <use style="stroke:#000000;" x="192.808016" xlink:href="#m76fb62d76c" y="69.749662"/>
     <use style="stroke:#000000;" x="193.650453" xlink:href="#m76fb62d76c" y="68.286095"/>
     <use style="stroke:#000000;" x="194.492891" xlink:href="#m76fb62d76c" y="66.868403"/>
     <use style="stroke:#000000;" x="195.335328" xlink:href="#m76fb62d76c" y="65.496089"/>
     <use style="stroke:#000000;" x="196.177766" xlink:href="#m76fb62d76c" y="64.168583"/>
     <use style="stroke:#000000;" x="197.020203" xlink:href="#m76fb62d76c" y="62.885244"/>
     <use style="stroke:#000000;" x="197.862641" xlink:href="#m76fb62d76c" y="61.64537"/>
     <use style="stroke:#000000;" x="198.705078" xlink:href="#m76fb62d76c" y="60.448204"/>
     <use style="stroke:#000000;" x="199.547516" xlink:href="#m76fb62d76c" y="59.292942"/>
     <use style="stroke:#000000;" x="200.389953" xlink:href="#m76fb62d76c" y="58.178734"/>
     <use style="stroke:#000000;" x="201.232391" xlink:href="#m76fb62d76c" y="57.104698"/>
     <use style="stroke:#000000;" x="202.074828" xlink:href="#m76fb62d76c" y="56.069917"/>
     <use style="stroke:#000000;" x="202.917266" xlink:href="#m76fb62d76c" y="55.073451"/>
     <use style="stroke:#000000;" x="203.759703" xlink:href="#m76fb62d76c" y="54.114338"/>
     <use style="stroke:#000000;" x="204.602141" xlink:href="#m76fb62d76c" y="53.191601"/>
     <use style="stroke:#000000;" x="205.444578" xlink:href="#m76fb62d76c" y="52.30425"/>
     <use style="stroke:#000000;" x="206.287016" xlink:href="#m76fb62d76c" y="51.45129"/>
     <use style="stroke:#000000;" x="207.129453" xlink:href="#m76fb62d76c" y="50.631718"/>
     <use style="stroke:#000000;" x="207.971891" xlink:href="#m76fb62d76c" y="49.844534"/>
     <use style="stroke:#000000;" x="208.814328" xlink:href="#m76fb62d76c" y="49.088741"/>
     <use style="stroke:#000000;" x="209.656766" xlink:href="#m76fb62d76c" y="48.363344"/>
     <use style="stroke:#000000;" x="210.499203" xlink:href="#m76fb62d76c" y="47.667359"/>
     <use style="stroke:#000000;" x="211.341641" xlink:href="#m76fb62d76c" y="46.999812"/>
     <use style="stroke:#000000;" x="212.184078" xlink:href="#m76fb62d76c" y="46.359741"/>
     <use style="stroke:#000000;" x="213.026516" xlink:href="#m76fb62d76c" y="45.746197"/>
     <use style="stroke:#000000;" x="213.868953" xlink:href="#m76fb62d76c" y="45.15825"/>
     <use style="stroke:#000000;" x="214.711391" xlink:href="#m76fb62d76c" y="44.594984"/>
     <use style="stroke:#000000;" x="215.553828" xlink:href="#m76fb62d76c" y="44.055503"/>
     <use style="stroke:#000000;" x="216.396266" xlink:href="#m76fb62d76c" y="43.538931"/>
     <use style="stroke:#000000;" x="217.238703" xlink:href="#m76fb62d76c" y="43.044411"/>
     <use style="stroke:#000000;" x="218.081141" xlink:href="#m76fb62d76c" y="42.571107"/>
     <use style="stroke:#000000;" x="218.923578" xlink:href="#m76fb62d76c" y="42.118205"/>
     <use style="stroke:#000000;" x="219.766016" xlink:href="#m76fb62d76c" y="41.684913"/>
     <use style="stroke:#000000;" x="220.608453" xlink:href="#m76fb62d76c" y="41.270462"/>
     <use style="stroke:#000000;" x="221.450891" xlink:href="#m76fb62d76c" y="40.874103"/>
     <use style="stroke:#000000;" x="222.293328" xlink:href="#m76fb62d76c" y="40.495113"/>
     <use style="stroke:#000000;" x="223.135766" xlink:href="#m76fb62d76c" y="40.132787"/>
     <use style="stroke:#000000;" x="223.978203" xlink:href="#m76fb62d76c" y="39.786447"/>
     <use style="stroke:#000000;" x="224.820641" xlink:href="#m76fb62d76c" y="39.455433"/>
     <use style="stroke:#000000;" x="225.663078" xlink:href="#m76fb62d76c" y="39.139112"/>
     <use style="stroke:#000000;" x="226.505516" xlink:href="#m76fb62d76c" y="38.836868"/>
     <use style="stroke:#000000;" x="227.347953" xlink:href="#m76fb62d76c" y="38.548109"/>
     <use style="stroke:#000000;" x="228.63911" xlink:href="#m76fb62d76c" y="38.130416"/>
     <use style="stroke:#000000;" x="229.930268" xlink:href="#m76fb62d76c" y="37.741099"/>
     <use style="stroke:#000000;" x="231.221425" xlink:href="#m76fb62d76c" y="37.378305"/>
     <use style="stroke:#000000;" x="232.512582" xlink:href="#m76fb62d76c" y="37.040289"/>
     <use style="stroke:#000000;" x="233.803739" xlink:href="#m76fb62d76c" y="36.725407"/>
     <use style="stroke:#000000;" x="235.094896" xlink:href="#m76fb62d76c" y="36.432113"/>
     <use style="stroke:#000000;" x="236.386053" xlink:href="#m76fb62d76c" y="36.158956"/>
     <use style="stroke:#000000;" x="237.67721" xlink:href="#m76fb62d76c" y="35.904575"/>
     <use style="stroke:#000000;" x="238.968368" xlink:href="#m76fb62d76c" y="35.667692"/>
     <use style="stroke:#000000;" x="240.259525" xlink:href="#m76fb62d76c" y="35.447112"/>
     <use style="stroke:#000000;" x="241.550682" xlink:href="#m76fb62d76c" y="35.241716"/>
     <use style="stroke:#000000;" x="242.841839" xlink:href="#m76fb62d76c" y="35.050455"/>
     <use style="stroke:#000000;" x="244.132996" xlink:href="#m76fb62d76c" y="34.872352"/>
     <use style="stroke:#000000;" x="245.424153" xlink:href="#m76fb62d76c" y="34.706491"/>
    </g>
   </g>
   <g id="line2d_16">
    <path clip-path="url(#p4667a4d134)" d="M 62.183807 229.874489 
L 67.988889 229.765574 
L 76.153638 229.384754 
L 83.326169 228.859364 
L 89.188203 228.240638 
L 94.242828 227.514171 
L 98.455015 226.725186 
L 102.667203 225.72109 
L 106.036953 224.717746 
L 109.406703 223.497435 
L 112.776453 222.008224 
L 115.303765 220.680083 
L 117.831078 219.138207 
L 120.35839 217.355672 
L 122.885703 215.287084 
L 125.413015 212.909792 
L 127.940328 210.167931 
L 130.46764 207.036722 
L 132.994953 203.468647 
L 135.522266 199.428209 
L 138.049578 194.891811 
L 140.576891 189.817682 
L 143.104203 184.216771 
L 145.631516 178.062126 
L 148.158828 171.39422 
L 151.528578 161.75355 
L 154.898328 151.385794 
L 159.952953 134.935508 
L 168.377328 107.324057 
L 171.747078 97.007794 
L 175.116828 87.440012 
L 177.644141 80.848999 
L 180.171453 74.797698 
L 182.698766 69.309524 
L 185.226078 64.37398 
L 187.753391 59.987019 
L 190.280703 56.107837 
L 192.808016 52.716801 
L 195.335328 49.759049 
L 197.862641 47.205276 
L 200.389953 45.002741 
L 202.917266 43.118055 
L 205.444578 41.506974 
L 207.971891 40.13728 
L 210.499203 38.974402 
L 213.868953 37.697469 
L 217.238703 36.677054 
L 221.450891 35.691113 
L 225.663078 34.952512 
L 229.930268 34.392584 
L 236.386053 33.804018 
L 244.132996 33.367938 
L 245.424153 33.315026 
L 245.424153 33.315026 
" style="fill:none;stroke:#0000ff;stroke-dasharray:5.55,2.4;stroke-dashoffset:0;stroke-width:1.5;"/>
   </g>
   <g id="line2d_17">
    <path clip-path="url(#p4667a4d134)" d="M 62.183807 229.874489 
L 69.09355 229.764049 
L 79.058883 229.402588 
L 86.672567 228.917662 
L 92.557953 228.343375 
L 97.612578 227.64893 
L 101.824765 226.882226 
L 106.036953 225.894992 
L 109.406703 224.913828 
L 112.776453 223.728053 
L 116.146203 222.303462 
L 119.515953 220.606254 
L 122.043265 219.123117 
L 124.570578 217.446099 
L 127.09789 215.549829 
L 129.625203 213.413096 
L 132.152515 211.019579 
L 134.679828 208.334202 
L 137.207141 205.352788 
L 139.734453 202.034226 
L 142.261766 198.37817 
L 144.789078 194.358978 
L 147.316391 189.968365 
L 149.843703 185.207625 
L 153.213453 178.275368 
L 156.583203 170.706963 
L 159.952953 162.561531 
L 164.165141 151.706901 
L 170.062203 135.687726 
L 179.329016 110.402367 
L 183.541203 99.61237 
L 186.910953 91.536694 
L 190.280703 84.046353 
L 193.650453 77.209323 
L 196.177766 72.515796 
L 198.705078 68.205927 
L 201.232391 64.262338 
L 203.759703 60.686018 
L 206.287016 57.446945 
L 208.814328 54.539146 
L 211.341641 51.928797 
L 213.868953 49.60269 
L 216.396266 47.530397 
L 218.923578 45.694213 
L 221.450891 44.0685 
L 224.820641 42.19516 
L 227.347953 40.984383 
L 231.221425 39.408398 
L 235.094896 38.116158 
L 238.968368 37.064572 
L 242.841839 36.204888 
L 245.424153 35.724792 
L 245.424153 35.724792 
" style="fill:none;stroke:#0000ff;stroke-dasharray:5.55,2.4;stroke-dashoffset:0;stroke-width:1.5;"/>
   </g>
   <g id="line2d_18"/>
   <g id="line2d_19"/>
   <g id="line2d_20"/>
   <g id="line2d_21"/>
   <g id="line2d_22"/>
   <g id="patch_3">
    <path d="M 46.965625 239.758125 
L 46.965625 22.318125 
" style="fill:none;stroke:#000000;stroke-linecap:square;stroke-linejoin:miter;stroke-width:0.8;"/>
   </g>
   <g id="patch_4">
    <path d="M 381.765625 239.758125 
L 381.765625 22.318125 
" style="fill:none;stroke:#000000;stroke-linecap:square;stroke-linejoin:miter;stroke-width:0.8;"/>
   </g>
   <g id="patch_5">
    <path d="M 46.965625 239.758125 
L 381.765625 239.758125 
" style="fill:none;stroke:#000000;stroke-linecap:square;stroke-linejoin:miter;stroke-width:0.8;"/>
   </g>
   <g id="patch_6">
    <path d="M 46.965625 22.318125 
L 381.765625 22.318125 
" style="fill:none;stroke:#000000;stroke-linecap:square;stroke-linejoin:miter;stroke-width:0.8;"/>
   </g>
   <g id="text_15">
    <!-- Experiment_28 -->
    <defs>
     <path d="M 9.8125 72.90625 
L 55.90625 72.90625 
L 55.90625 64.59375 
L 19.671875 64.59375 
L 19.671875 43.015625 
L 54.390625 43.015625 
L 54.390625 34.71875 
L 19.671875 34.71875 
L 19.671875 8.296875 
L 56.78125 8.296875 
L 56.78125 0 
L 9.8125 0 
z
" id="DejaVuSans-69"/>
     <path d="M 54.890625 54.6875 
L 35.109375 28.078125 
L 55.90625 0 
L 45.3125 0 
L 29.390625 21.484375 
L 13.484375 0 
L 2.875 0 
L 24.125 28.609375 
L 4.6875 54.6875 
L 15.28125 54.6875 
L 29.78125 35.203125 
L 44.28125 54.6875 
z
" id="DejaVuSans-120"/>
     <path d="M 41.109375 46.296875 
Q 39.59375 47.171875 37.8125 47.578125 
Q 36.03125 48 33.890625 48 
Q 26.265625 48 22.1875 43.046875 
Q 18.109375 38.09375 18.109375 28.8125 
L 18.109375 0 
L 9.078125 0 
L 9.078125 54.6875 
L 18.109375 54.6875 
L 18.109375 46.1875 
Q 20.953125 51.171875 25.484375 53.578125 
Q 30.03125 56 36.53125 56 
Q 37.453125 56 38.578125 55.875 
Q 39.703125 55.765625 41.0625 55.515625 
z
" id="DejaVuSans-114"/>
     <path d="M 54.890625 33.015625 
L 54.890625 0 
L 45.90625 0 
L 45.90625 32.71875 
Q 45.90625 40.484375 42.875 44.328125 
Q 39.84375 48.1875 33.796875 48.1875 
Q 26.515625 48.1875 22.3125 43.546875 
Q 18.109375 38.921875 18.109375 30.90625 
L 18.109375 0 
L 9.078125 0 
L 9.078125 54.6875 
L 18.109375 54.6875 
L 18.109375 46.1875 
Q 21.34375 51.125 25.703125 53.5625 
Q 30.078125 56 35.796875 56 
Q 45.21875 56 50.046875 50.171875 
Q 54.890625 44.34375 54.890625 33.015625 
z
" id="DejaVuSans-110"/>
     <path d="M 18.3125 70.21875 
L 18.3125 54.6875 
L 36.8125 54.6875 
L 36.8125 47.703125 
L 18.3125 47.703125 
L 18.3125 18.015625 
Q 18.3125 11.328125 20.140625 9.421875 
Q 21.96875 7.515625 27.59375 7.515625 
L 36.8125 7.515625 
L 36.8125 0 
L 27.59375 0 
Q 17.1875 0 13.234375 3.875 
Q 9.28125 7.765625 9.28125 18.015625 
L 9.28125 47.703125 
L 2.6875 47.703125 
L 2.6875 54.6875 
L 9.28125 54.6875 
L 9.28125 70.21875 
z
" id="DejaVuSans-116"/>
     <path d="M 50.984375 -16.609375 
L 50.984375 -23.578125 
L -0.984375 -23.578125 
L -0.984375 -16.609375 
z
" id="DejaVuSans-95"/>
    </defs>
    <g transform="translate(169.062813 16.318125)scale(0.12 -0.12)">
     <use xlink:href="#DejaVuSans-69"/>
     <use x="63.183594" xlink:href="#DejaVuSans-120"/>
     <use x="122.363281" xlink:href="#DejaVuSans-112"/>
     <use x="185.839844" xlink:href="#DejaVuSans-101"/>
     <use x="247.363281" xlink:href="#DejaVuSans-114"/>
     <use x="288.476562" xlink:href="#DejaVuSans-105"/>
     <use x="316.259766" xlink:href="#DejaVuSans-109"/>
     <use x="413.671875" xlink:href="#DejaVuSans-101"/>
     <use x="475.195312" xlink:href="#DejaVuSans-110"/>
     <use x="538.574219" xlink:href="#DejaVuSans-116"/>
     <use x="577.783203" xlink:href="#DejaVuSans-95"/>
     <use x="627.783203" xlink:href="#DejaVuSans-50"/>
     <use x="691.40625" xlink:href="#DejaVuSans-56"/>
    </g>
   </g>
   <g id="legend_1">
    <g id="patch_7">
     <path d="M 56.529687 161.905312 
L 374.765625 161.905312 
Q 376.765625 161.905312 376.765625 159.905312 
L 376.765625 102.170937 
Q 376.765625 100.170937 374.765625 100.170937 
L 56.529687 100.170937 
Q 54.529687 100.170937 54.529687 102.170937 
L 54.529687 159.905312 
Q 54.529687 161.905312 56.529687 161.905312 
z
" style="fill:#ffffff;opacity:0.8;stroke:#cccccc;stroke-linejoin:miter;"/>
    </g>
    <g id="line2d_23">
     <path d="M 58.529687 108.269375 
L 78.529687 108.269375 
" style="fill:none;stroke:#0000ff;stroke-linecap:square;stroke-width:1.5;"/>
    </g>
    <g id="line2d_24"/>
    <g id="text_16">
     <!-- MSI -->
     <defs>
      <path d="M 9.8125 72.90625 
L 24.515625 72.90625 
L 43.109375 23.296875 
L 61.8125 72.90625 
L 76.515625 72.90625 
L 76.515625 0 
L 66.890625 0 
L 66.890625 64.015625 
L 48.09375 14.015625 
L 38.1875 14.015625 
L 19.390625 64.015625 
L 19.390625 0 
L 9.8125 0 
z
" id="DejaVuSans-77"/>
      <path d="M 53.515625 70.515625 
L 53.515625 60.890625 
Q 47.90625 63.578125 42.921875 64.890625 
Q 37.9375 66.21875 33.296875 66.21875 
Q 25.25 66.21875 20.875 63.09375 
Q 16.5 59.96875 16.5 54.203125 
Q 16.5 49.359375 19.40625 46.890625 
Q 22.3125 44.4375 30.421875 42.921875 
L 36.375 41.703125 
Q 47.40625 39.59375 52.65625 34.296875 
Q 57.90625 29 57.90625 20.125 
Q 57.90625 9.515625 50.796875 4.046875 
Q 43.703125 -1.421875 29.984375 -1.421875 
Q 24.8125 -1.421875 18.96875 -0.25 
Q 13.140625 0.921875 6.890625 3.21875 
L 6.890625 13.375 
Q 12.890625 10.015625 18.65625 8.296875 
Q 24.421875 6.59375 29.984375 6.59375 
Q 38.421875 6.59375 43.015625 9.90625 
Q 47.609375 13.234375 47.609375 19.390625 
Q 47.609375 24.75 44.3125 27.78125 
Q 41.015625 30.8125 33.5 32.328125 
L 27.484375 33.5 
Q 16.453125 35.6875 11.515625 40.375 
Q 6.59375 45.0625 6.59375 53.421875 
Q 6.59375 63.09375 13.40625 68.65625 
Q 20.21875 74.21875 32.171875 74.21875 
Q 37.3125 74.21875 42.625 73.28125 
Q 47.953125 72.359375 53.515625 70.515625 
z
" id="DejaVuSans-83"/>
      <path d="M 9.8125 72.90625 
L 19.671875 72.90625 
L 19.671875 0 
L 9.8125 0 
z
" id="DejaVuSans-73"/>
     </defs>
     <g transform="translate(86.529687 111.769375)scale(0.1 -0.1)">
      <use xlink:href="#DejaVuSans-77"/>
      <use x="86.279297" xlink:href="#DejaVuSans-83"/>
      <use x="149.755859" xlink:href="#DejaVuSans-73"/>
     </g>
    </g>
    <g id="line2d_25">
     <path d="M 58.529687 122.949062 
L 78.529687 122.949062 
" style="fill:none;stroke:#ff0000;stroke-linecap:square;stroke-width:1.5;"/>
    </g>
    <g id="line2d_26"/>
    <g id="text_17">
     <!-- $\it{A priori}$ model -->
     <defs>
      <path d="M 36.8125 72.90625 
L 48 72.90625 
L 61.53125 0 
L 51.21875 0 
L 48.1875 18.703125 
L 15.375 18.703125 
L 5.078125 0 
L -5.328125 0 
z
M 40.375 63.1875 
L 19.921875 26.90625 
L 46.6875 26.90625 
z
" id="DejaVuSans-Oblique-65"/>
      <path d="M 49.609375 33.6875 
Q 49.609375 40.875 46.484375 44.671875 
Q 43.359375 48.484375 37.5 48.484375 
Q 33.5 48.484375 29.859375 46.4375 
Q 26.21875 44.390625 23.390625 40.484375 
Q 20.609375 36.625 18.9375 31.15625 
Q 17.28125 25.6875 17.28125 20.3125 
Q 17.28125 13.484375 20.40625 9.796875 
Q 23.53125 6.109375 29.296875 6.109375 
Q 33.546875 6.109375 37.1875 8.109375 
Q 40.828125 10.109375 43.40625 13.921875 
Q 46.1875 17.921875 47.890625 23.34375 
Q 49.609375 28.765625 49.609375 33.6875 
z
M 21.78125 46.390625 
Q 25.390625 51.125 30.296875 53.5625 
Q 35.203125 56 41.21875 56 
Q 49.609375 56 54.25 50.5 
Q 58.890625 45.015625 58.890625 35.109375 
Q 58.890625 27 56 19.65625 
Q 53.125 12.3125 47.703125 6.5 
Q 44.09375 2.640625 39.546875 0.609375 
Q 35.015625 -1.421875 29.984375 -1.421875 
Q 24.171875 -1.421875 20.21875 1 
Q 16.265625 3.421875 14.3125 8.203125 
L 8.6875 -20.796875 
L -0.296875 -20.796875 
L 14.40625 54.6875 
L 23.390625 54.6875 
z
" id="DejaVuSans-Oblique-112"/>
      <path d="M 44.578125 46.390625 
Q 43.21875 47.125 41.453125 47.515625 
Q 39.703125 47.90625 37.703125 47.90625 
Q 30.515625 47.90625 25.140625 42.453125 
Q 19.78125 37.015625 18.015625 27.875 
L 12.5 0 
L 3.515625 0 
L 14.203125 54.6875 
L 23.1875 54.6875 
L 21.484375 46.1875 
Q 25.046875 50.921875 30 53.453125 
Q 34.96875 56 40.578125 56 
Q 42.046875 56 43.453125 55.828125 
Q 44.875 55.671875 46.296875 55.28125 
z
" id="DejaVuSans-Oblique-114"/>
      <path d="M 18.3125 75.984375 
L 27.296875 75.984375 
L 25.09375 64.59375 
L 16.109375 64.59375 
z
M 14.203125 54.6875 
L 23.1875 54.6875 
L 12.5 0 
L 3.515625 0 
z
" id="DejaVuSans-Oblique-105"/>
      <path d="M 25.390625 -1.421875 
Q 15.765625 -1.421875 10.171875 4.515625 
Q 4.59375 10.453125 4.59375 20.703125 
Q 4.59375 26.65625 6.515625 32.828125 
Q 8.453125 39.015625 11.53125 43.21875 
Q 16.359375 49.75 22.3125 52.875 
Q 28.265625 56 35.796875 56 
Q 45.125 56 50.859375 50.1875 
Q 56.59375 44.390625 56.59375 35.015625 
Q 56.59375 28.515625 54.6875 22.0625 
Q 52.78125 15.625 49.703125 11.375 
Q 44.921875 4.828125 38.96875 1.703125 
Q 33.015625 -1.421875 25.390625 -1.421875 
z
M 13.921875 21 
Q 13.921875 13.578125 17.015625 9.890625 
Q 20.125 6.203125 26.421875 6.203125 
Q 35.453125 6.203125 41.375 14.078125 
Q 47.3125 21.96875 47.3125 34.078125 
Q 47.3125 41.15625 44.140625 44.765625 
Q 40.96875 48.390625 34.8125 48.390625 
Q 29.734375 48.390625 25.78125 46.015625 
Q 21.828125 43.65625 18.703125 38.8125 
Q 16.40625 35.203125 15.15625 30.5625 
Q 13.921875 25.921875 13.921875 21 
z
" id="DejaVuSans-Oblique-111"/>
      <path d="M 30.609375 48.390625 
Q 23.390625 48.390625 19.1875 42.75 
Q 14.984375 37.109375 14.984375 27.296875 
Q 14.984375 17.484375 19.15625 11.84375 
Q 23.34375 6.203125 30.609375 6.203125 
Q 37.796875 6.203125 41.984375 11.859375 
Q 46.1875 17.53125 46.1875 27.296875 
Q 46.1875 37.015625 41.984375 42.703125 
Q 37.796875 48.390625 30.609375 48.390625 
z
M 30.609375 56 
Q 42.328125 56 49.015625 48.375 
Q 55.71875 40.765625 55.71875 27.296875 
Q 55.71875 13.875 49.015625 6.21875 
Q 42.328125 -1.421875 30.609375 -1.421875 
Q 18.84375 -1.421875 12.171875 6.21875 
Q 5.515625 13.875 5.515625 27.296875 
Q 5.515625 40.765625 12.171875 48.375 
Q 18.84375 56 30.609375 56 
z
" id="DejaVuSans-111"/>
      <path d="M 45.40625 46.390625 
L 45.40625 75.984375 
L 54.390625 75.984375 
L 54.390625 0 
L 45.40625 0 
L 45.40625 8.203125 
Q 42.578125 3.328125 38.25 0.953125 
Q 33.9375 -1.421875 27.875 -1.421875 
Q 17.96875 -1.421875 11.734375 6.484375 
Q 5.515625 14.40625 5.515625 27.296875 
Q 5.515625 40.1875 11.734375 48.09375 
Q 17.96875 56 27.875 56 
Q 33.9375 56 38.25 53.625 
Q 42.578125 51.265625 45.40625 46.390625 
z
M 14.796875 27.296875 
Q 14.796875 17.390625 18.875 11.75 
Q 22.953125 6.109375 30.078125 6.109375 
Q 37.203125 6.109375 41.296875 11.75 
Q 45.40625 17.390625 45.40625 27.296875 
Q 45.40625 37.203125 41.296875 42.84375 
Q 37.203125 48.484375 30.078125 48.484375 
Q 22.953125 48.484375 18.875 42.84375 
Q 14.796875 37.203125 14.796875 27.296875 
z
" id="DejaVuSans-100"/>
      <path d="M 9.421875 75.984375 
L 18.40625 75.984375 
L 18.40625 0 
L 9.421875 0 
z
" id="DejaVuSans-108"/>
     </defs>
     <g transform="translate(86.529687 126.449062)scale(0.1 -0.1)">
      <use transform="translate(0 0.015625)" xlink:href="#DejaVuSans-Oblique-65"/>
      <use transform="translate(68.408203 0.015625)" xlink:href="#DejaVuSans-Oblique-112"/>
      <use transform="translate(131.884766 0.015625)" xlink:href="#DejaVuSans-Oblique-114"/>
      <use transform="translate(172.998047 0.015625)" xlink:href="#DejaVuSans-Oblique-105"/>
      <use transform="translate(200.78125 0.015625)" xlink:href="#DejaVuSans-Oblique-111"/>
      <use transform="translate(261.962891 0.015625)" xlink:href="#DejaVuSans-Oblique-114"/>
      <use transform="translate(303.076172 0.015625)" xlink:href="#DejaVuSans-Oblique-105"/>
      <use transform="translate(330.859375 0.015625)" xlink:href="#DejaVuSans-32"/>
      <use transform="translate(362.646484 0.015625)" xlink:href="#DejaVuSans-109"/>
      <use transform="translate(460.058594 0.015625)" xlink:href="#DejaVuSans-111"/>
      <use transform="translate(521.240234 0.015625)" xlink:href="#DejaVuSans-100"/>
      <use transform="translate(584.716797 0.015625)" xlink:href="#DejaVuSans-101"/>
      <use transform="translate(646.240234 0.015625)" xlink:href="#DejaVuSans-108"/>
     </g>
    </g>
    <g id="line2d_27"/>
    <g id="line2d_28">
     <g>
      <use style="stroke:#000000;" x="68.529687" xlink:href="#m76fb62d76c" y="137.6475"/>
     </g>
    </g>
    <g id="text_18">
     <!-- Experimental Data -->
     <defs>
      <path d="M 34.28125 27.484375 
Q 23.390625 27.484375 19.1875 25 
Q 14.984375 22.515625 14.984375 16.5 
Q 14.984375 11.71875 18.140625 8.90625 
Q 21.296875 6.109375 26.703125 6.109375 
Q 34.1875 6.109375 38.703125 11.40625 
Q 43.21875 16.703125 43.21875 25.484375 
L 43.21875 27.484375 
z
M 52.203125 31.203125 
L 52.203125 0 
L 43.21875 0 
L 43.21875 8.296875 
Q 40.140625 3.328125 35.546875 0.953125 
Q 30.953125 -1.421875 24.3125 -1.421875 
Q 15.921875 -1.421875 10.953125 3.296875 
Q 6 8.015625 6 15.921875 
Q 6 25.140625 12.171875 29.828125 
Q 18.359375 34.515625 30.609375 34.515625 
L 43.21875 34.515625 
L 43.21875 35.40625 
Q 43.21875 41.609375 39.140625 45 
Q 35.0625 48.390625 27.6875 48.390625 
Q 23 48.390625 18.546875 47.265625 
Q 14.109375 46.140625 10.015625 43.890625 
L 10.015625 52.203125 
Q 14.9375 54.109375 19.578125 55.046875 
Q 24.21875 56 28.609375 56 
Q 40.484375 56 46.34375 49.84375 
Q 52.203125 43.703125 52.203125 31.203125 
z
" id="DejaVuSans-97"/>
      <path d="M 19.671875 64.796875 
L 19.671875 8.109375 
L 31.59375 8.109375 
Q 46.6875 8.109375 53.6875 14.9375 
Q 60.6875 21.78125 60.6875 36.53125 
Q 60.6875 51.171875 53.6875 57.984375 
Q 46.6875 64.796875 31.59375 64.796875 
z
M 9.8125 72.90625 
L 30.078125 72.90625 
Q 51.265625 72.90625 61.171875 64.09375 
Q 71.09375 55.28125 71.09375 36.53125 
Q 71.09375 17.671875 61.125 8.828125 
Q 51.171875 0 30.078125 0 
L 9.8125 0 
z
" id="DejaVuSans-68"/>
     </defs>
     <g transform="translate(86.529687 141.1475)scale(0.1 -0.1)">
      <use xlink:href="#DejaVuSans-69"/>
      <use x="63.183594" xlink:href="#DejaVuSans-120"/>
      <use x="122.363281" xlink:href="#DejaVuSans-112"/>
      <use x="185.839844" xlink:href="#DejaVuSans-101"/>
      <use x="247.363281" xlink:href="#DejaVuSans-114"/>
      <use x="288.476562" xlink:href="#DejaVuSans-105"/>
      <use x="316.259766" xlink:href="#DejaVuSans-109"/>
      <use x="413.671875" xlink:href="#DejaVuSans-101"/>
      <use x="475.195312" xlink:href="#DejaVuSans-110"/>
      <use x="538.574219" xlink:href="#DejaVuSans-116"/>
      <use x="577.783203" xlink:href="#DejaVuSans-97"/>
      <use x="639.0625" xlink:href="#DejaVuSans-108"/>
      <use x="666.845703" xlink:href="#DejaVuSans-32"/>
      <use x="698.632812" xlink:href="#DejaVuSans-68"/>
      <use x="775.634766" xlink:href="#DejaVuSans-97"/>
      <use x="836.914062" xlink:href="#DejaVuSans-116"/>
      <use x="876.123047" xlink:href="#DejaVuSans-97"/>
     </g>
    </g>
    <g id="line2d_29">
     <path d="M 58.529687 152.325625 
L 78.529687 152.325625 
" style="fill:none;stroke:#ffffff;stroke-linecap:square;stroke-width:1.5;"/>
    </g>
    <g id="line2d_30"/>
    <g id="text_19">
     <!-- T:2769 -->
     <defs>
      <path d="M 11.71875 12.40625 
L 22.015625 12.40625 
L 22.015625 0 
L 11.71875 0 
z
M 11.71875 51.703125 
L 22.015625 51.703125 
L 22.015625 39.3125 
L 11.71875 39.3125 
z
" id="DejaVuSans-58"/>
      <path d="M 8.203125 72.90625 
L 55.078125 72.90625 
L 55.078125 68.703125 
L 28.609375 0 
L 18.3125 0 
L 43.21875 64.59375 
L 8.203125 64.59375 
z
" id="DejaVuSans-55"/>
      <path d="M 10.984375 1.515625 
L 10.984375 10.5 
Q 14.703125 8.734375 18.5 7.8125 
Q 22.3125 6.890625 25.984375 6.890625 
Q 35.75 6.890625 40.890625 13.453125 
Q 46.046875 20.015625 46.78125 33.40625 
Q 43.953125 29.203125 39.59375 26.953125 
Q 35.25 24.703125 29.984375 24.703125 
Q 19.046875 24.703125 12.671875 31.3125 
Q 6.296875 37.9375 6.296875 49.421875 
Q 6.296875 60.640625 12.9375 67.421875 
Q 19.578125 74.21875 30.609375 74.21875 
Q 43.265625 74.21875 49.921875 64.515625 
Q 56.59375 54.828125 56.59375 36.375 
Q 56.59375 19.140625 48.40625 8.859375 
Q 40.234375 -1.421875 26.421875 -1.421875 
Q 22.703125 -1.421875 18.890625 -0.6875 
Q 15.09375 0.046875 10.984375 1.515625 
z
M 30.609375 32.421875 
Q 37.25 32.421875 41.125 36.953125 
Q 45.015625 41.5 45.015625 49.421875 
Q 45.015625 57.28125 41.125 61.84375 
Q 37.25 66.40625 30.609375 66.40625 
Q 23.96875 66.40625 20.09375 61.84375 
Q 16.21875 57.28125 16.21875 49.421875 
Q 16.21875 41.5 20.09375 36.953125 
Q 23.96875 32.421875 30.609375 32.421875 
z
" id="DejaVuSans-57"/>
     </defs>
     <g transform="translate(86.529687 155.825625)scale(0.1 -0.1)">
      <use xlink:href="#DejaVuSans-84"/>
      <use x="60.912109" xlink:href="#DejaVuSans-58"/>
      <use x="94.603516" xlink:href="#DejaVuSans-50"/>
      <use x="158.226562" xlink:href="#DejaVuSans-55"/>
      <use x="221.849609" xlink:href="#DejaVuSans-54"/>
      <use x="285.472656" xlink:href="#DejaVuSans-57"/>
     </g>
    </g>
    <g id="line2d_31">
     <path d="M 200.270313 108.269375 
L 220.270313 108.269375 
" style="fill:none;stroke:#ffffff;stroke-linecap:square;stroke-width:1.5;"/>
    </g>
    <g id="line2d_32"/>
    <g id="text_20">
     <!-- P:1.9909999999999999 -->
     <defs>
      <path d="M 19.671875 64.796875 
L 19.671875 37.40625 
L 32.078125 37.40625 
Q 38.96875 37.40625 42.71875 40.96875 
Q 46.484375 44.53125 46.484375 51.125 
Q 46.484375 57.671875 42.71875 61.234375 
Q 38.96875 64.796875 32.078125 64.796875 
z
M 9.8125 72.90625 
L 32.078125 72.90625 
Q 44.34375 72.90625 50.609375 67.359375 
Q 56.890625 61.8125 56.890625 51.125 
Q 56.890625 40.328125 50.609375 34.8125 
Q 44.34375 29.296875 32.078125 29.296875 
L 19.671875 29.296875 
L 19.671875 0 
L 9.8125 0 
z
" id="DejaVuSans-80"/>
     </defs>
     <g transform="translate(228.270313 111.769375)scale(0.1 -0.1)">
      <use xlink:href="#DejaVuSans-80"/>
      <use x="60.302734" xlink:href="#DejaVuSans-58"/>
      <use x="93.994141" xlink:href="#DejaVuSans-49"/>
      <use x="157.617188" xlink:href="#DejaVuSans-46"/>
      <use x="189.404297" xlink:href="#DejaVuSans-57"/>
      <use x="253.027344" xlink:href="#DejaVuSans-57"/>
      <use x="316.650391" xlink:href="#DejaVuSans-48"/>
      <use x="380.273438" xlink:href="#DejaVuSans-57"/>
      <use x="443.896484" xlink:href="#DejaVuSans-57"/>
      <use x="507.519531" xlink:href="#DejaVuSans-57"/>
      <use x="571.142578" xlink:href="#DejaVuSans-57"/>
      <use x="634.765625" xlink:href="#DejaVuSans-57"/>
      <use x="698.388672" xlink:href="#DejaVuSans-57"/>
      <use x="762.011719" xlink:href="#DejaVuSans-57"/>
      <use x="825.634766" xlink:href="#DejaVuSans-57"/>
      <use x="889.257812" xlink:href="#DejaVuSans-57"/>
      <use x="952.880859" xlink:href="#DejaVuSans-57"/>
      <use x="1016.503906" xlink:href="#DejaVuSans-57"/>
      <use x="1080.126953" xlink:href="#DejaVuSans-57"/>
      <use x="1143.75" xlink:href="#DejaVuSans-57"/>
     </g>
    </g>
    <g id="line2d_33">
     <path d="M 200.270313 122.9475 
L 220.270313 122.9475 
" style="fill:none;stroke:#ffffff;stroke-linecap:square;stroke-width:1.5;"/>
    </g>
    <g id="line2d_34"/>
    <g id="text_21">
     <!-- O2: 0.002 -->
     <g transform="translate(228.270313 126.4475)scale(0.1 -0.1)">
      <use xlink:href="#DejaVuSans-79"/>
      <use x="78.710938" xlink:href="#DejaVuSans-50"/>
      <use x="142.333984" xlink:href="#DejaVuSans-58"/>
      <use x="176.025391" xlink:href="#DejaVuSans-32"/>
      <use x="207.8125" xlink:href="#DejaVuSans-48"/>
      <use x="271.435547" xlink:href="#DejaVuSans-46"/>
      <use x="303.222656" xlink:href="#DejaVuSans-48"/>
      <use x="366.845703" xlink:href="#DejaVuSans-48"/>
      <use x="430.46875" xlink:href="#DejaVuSans-50"/>
     </g>
    </g>
    <g id="line2d_35">
     <path d="M 200.270313 137.625625 
L 220.270313 137.625625 
" style="fill:none;stroke:#ffffff;stroke-linecap:square;stroke-width:1.5;"/>
    </g>
    <g id="line2d_36"/>
    <g id="text_22">
     <!-- H2: 0.009640000000000001 -->
     <g transform="translate(228.270313 141.125625)scale(0.1 -0.1)">
      <use xlink:href="#DejaVuSans-72"/>
      <use x="75.195312" xlink:href="#DejaVuSans-50"/>
      <use x="138.818359" xlink:href="#DejaVuSans-58"/>
      <use x="172.509766" xlink:href="#DejaVuSans-32"/>
      <use x="204.296875" xlink:href="#DejaVuSans-48"/>
      <use x="267.919922" xlink:href="#DejaVuSans-46"/>
      <use x="299.707031" xlink:href="#DejaVuSans-48"/>
      <use x="363.330078" xlink:href="#DejaVuSans-48"/>
      <use x="426.953125" xlink:href="#DejaVuSans-57"/>
      <use x="490.576172" xlink:href="#DejaVuSans-54"/>
      <use x="554.199219" xlink:href="#DejaVuSans-52"/>
      <use x="617.822266" xlink:href="#DejaVuSans-48"/>
      <use x="681.445312" xlink:href="#DejaVuSans-48"/>
      <use x="745.068359" xlink:href="#DejaVuSans-48"/>
      <use x="808.691406" xlink:href="#DejaVuSans-48"/>
      <use x="872.314453" xlink:href="#DejaVuSans-48"/>
      <use x="935.9375" xlink:href="#DejaVuSans-48"/>
      <use x="999.560547" xlink:href="#DejaVuSans-48"/>
      <use x="1063.183594" xlink:href="#DejaVuSans-48"/>
      <use x="1126.806641" xlink:href="#DejaVuSans-48"/>
      <use x="1190.429688" xlink:href="#DejaVuSans-48"/>
      <use x="1254.052734" xlink:href="#DejaVuSans-48"/>
      <use x="1317.675781" xlink:href="#DejaVuSans-48"/>
      <use x="1381.298828" xlink:href="#DejaVuSans-49"/>
     </g>
    </g>
    <g id="line2d_37">
     <path d="M 200.270313 152.30375 
L 220.270313 152.30375 
" style="fill:none;stroke:#ffffff;stroke-linecap:square;stroke-width:1.5;"/>
    </g>
    <g id="line2d_38"/>
    <g id="text_23">
     <!-- Ar: 0.98836 -->
     <defs>
      <path d="M 34.1875 63.1875 
L 20.796875 26.90625 
L 47.609375 26.90625 
z
M 28.609375 72.90625 
L 39.796875 72.90625 
L 67.578125 0 
L 57.328125 0 
L 50.6875 18.703125 
L 17.828125 18.703125 
L 11.1875 0 
L 0.78125 0 
z
" id="DejaVuSans-65"/>
     </defs>
     <g transform="translate(228.270313 155.80375)scale(0.1 -0.1)">
      <use xlink:href="#DejaVuSans-65"/>
      <use x="68.408203" xlink:href="#DejaVuSans-114"/>
      <use x="109.505859" xlink:href="#DejaVuSans-58"/>
      <use x="143.197266" xlink:href="#DejaVuSans-32"/>
      <use x="174.984375" xlink:href="#DejaVuSans-48"/>
      <use x="238.607422" xlink:href="#DejaVuSans-46"/>
      <use x="270.394531" xlink:href="#DejaVuSans-57"/>
      <use x="334.017578" xlink:href="#DejaVuSans-56"/>
      <use x="397.640625" xlink:href="#DejaVuSans-56"/>
      <use x="461.263672" xlink:href="#DejaVuSans-51"/>
      <use x="524.886719" xlink:href="#DejaVuSans-54"/>
     </g>
    </g>
   </g>
  </g>
 </g>
 <defs>
  <clipPath id="p4667a4d134">
   <rect height="217.44" width="334.8" x="46.965625" y="22.318125"/>
  </clipPath>
 </defs>
</svg>
