<?xml version="1.0" encoding="utf-8" standalone="no"?>
<!DOCTYPE svg PUBLIC "-//W3C//DTD SVG 1.1//EN"
  "http://www.w3.org/Graphics/SVG/1.1/DTD/svg11.dtd">
<!-- Created with matplotlib (https://matplotlib.org/) -->
<svg height="277.314375pt" version="1.1" viewBox="0 0 392.465625 277.314375" width="392.465625pt" xmlns="http://www.w3.org/2000/svg" xmlns:xlink="http://www.w3.org/1999/xlink">
 <defs>
  <style type="text/css">
*{stroke-linecap:butt;stroke-linejoin:round;}
  </style>
 </defs>
 <g id="figure_1">
  <g id="patch_1">
   <path d="M 0 277.314375 
L 392.465625 277.314375 
L 392.465625 0 
L 0 0 
z
" style="fill:none;"/>
  </g>
  <g id="axes_1">
   <g id="patch_2">
    <path d="M 46.965625 239.758125 
L 381.765625 239.758125 
L 381.765625 22.318125 
L 46.965625 22.318125 
z
" style="fill:none;"/>
   </g>
   <g id="matplotlib.axis_1">
    <g id="xtick_1">
     <g id="line2d_1">
      <defs>
       <path d="M 0 0 
L 0 3.5 
" id="m8ea321a410" style="stroke:#000000;stroke-width:0.8;"/>
      </defs>
      <g>
       <use style="stroke:#000000;stroke-width:0.8;" x="62.183807" xlink:href="#m8ea321a410" y="239.758125"/>
      </g>
     </g>
     <g id="text_1">
      <!-- 0.00 -->
      <defs>
       <path d="M 31.78125 66.40625 
Q 24.171875 66.40625 20.328125 58.90625 
Q 16.5 51.421875 16.5 36.375 
Q 16.5 21.390625 20.328125 13.890625 
Q 24.171875 6.390625 31.78125 6.390625 
Q 39.453125 6.390625 43.28125 13.890625 
Q 47.125 21.390625 47.125 36.375 
Q 47.125 51.421875 43.28125 58.90625 
Q 39.453125 66.40625 31.78125 66.40625 
z
M 31.78125 74.21875 
Q 44.046875 74.21875 50.515625 64.515625 
Q 56.984375 54.828125 56.984375 36.375 
Q 56.984375 17.96875 50.515625 8.265625 
Q 44.046875 -1.421875 31.78125 -1.421875 
Q 19.53125 -1.421875 13.0625 8.265625 
Q 6.59375 17.96875 6.59375 36.375 
Q 6.59375 54.828125 13.0625 64.515625 
Q 19.53125 74.21875 31.78125 74.21875 
z
" id="DejaVuSans-48"/>
       <path d="M 10.6875 12.40625 
L 21 12.40625 
L 21 0 
L 10.6875 0 
z
" id="DejaVuSans-46"/>
      </defs>
      <g transform="translate(51.050994 254.356562)scale(0.1 -0.1)">
       <use xlink:href="#DejaVuSans-48"/>
       <use x="63.623047" xlink:href="#DejaVuSans-46"/>
       <use x="95.410156" xlink:href="#DejaVuSans-48"/>
       <use x="159.033203" xlink:href="#DejaVuSans-48"/>
      </g>
     </g>
    </g>
    <g id="xtick_2">
     <g id="line2d_2">
      <g>
       <use style="stroke:#000000;stroke-width:0.8;" x="122.87347" xlink:href="#m8ea321a410" y="239.758125"/>
      </g>
     </g>
     <g id="text_2">
      <!-- 0.02 -->
      <defs>
       <path d="M 19.1875 8.296875 
L 53.609375 8.296875 
L 53.609375 0 
L 7.328125 0 
L 7.328125 8.296875 
Q 12.9375 14.109375 22.625 23.890625 
Q 32.328125 33.6875 34.8125 36.53125 
Q 39.546875 41.84375 41.421875 45.53125 
Q 43.3125 49.21875 43.3125 52.78125 
Q 43.3125 58.59375 39.234375 62.25 
Q 35.15625 65.921875 28.609375 65.921875 
Q 23.96875 65.921875 18.8125 64.3125 
Q 13.671875 62.703125 7.8125 59.421875 
L 7.8125 69.390625 
Q 13.765625 71.78125 18.9375 73 
Q 24.125 74.21875 28.421875 74.21875 
Q 39.75 74.21875 46.484375 68.546875 
Q 53.21875 62.890625 53.21875 53.421875 
Q 53.21875 48.921875 51.53125 44.890625 
Q 49.859375 40.875 45.40625 35.40625 
Q 44.1875 33.984375 37.640625 27.21875 
Q 31.109375 20.453125 19.1875 8.296875 
z
" id="DejaVuSans-50"/>
      </defs>
      <g transform="translate(111.740657 254.356562)scale(0.1 -0.1)">
       <use xlink:href="#DejaVuSans-48"/>
       <use x="63.623047" xlink:href="#DejaVuSans-46"/>
       <use x="95.410156" xlink:href="#DejaVuSans-48"/>
       <use x="159.033203" xlink:href="#DejaVuSans-50"/>
      </g>
     </g>
    </g>
    <g id="xtick_3">
     <g id="line2d_3">
      <g>
       <use style="stroke:#000000;stroke-width:0.8;" x="183.563133" xlink:href="#m8ea321a410" y="239.758125"/>
      </g>
     </g>
     <g id="text_3">
      <!-- 0.04 -->
      <defs>
       <path d="M 37.796875 64.3125 
L 12.890625 25.390625 
L 37.796875 25.390625 
z
M 35.203125 72.90625 
L 47.609375 72.90625 
L 47.609375 25.390625 
L 58.015625 25.390625 
L 58.015625 17.1875 
L 47.609375 17.1875 
L 47.609375 0 
L 37.796875 0 
L 37.796875 17.1875 
L 4.890625 17.1875 
L 4.890625 26.703125 
z
" id="DejaVuSans-52"/>
      </defs>
      <g transform="translate(172.43032 254.356562)scale(0.1 -0.1)">
       <use xlink:href="#DejaVuSans-48"/>
       <use x="63.623047" xlink:href="#DejaVuSans-46"/>
       <use x="95.410156" xlink:href="#DejaVuSans-48"/>
       <use x="159.033203" xlink:href="#DejaVuSans-52"/>
      </g>
     </g>
    </g>
    <g id="xtick_4">
     <g id="line2d_4">
      <g>
       <use style="stroke:#000000;stroke-width:0.8;" x="244.252796" xlink:href="#m8ea321a410" y="239.758125"/>
      </g>
     </g>
     <g id="text_4">
      <!-- 0.06 -->
      <defs>
       <path d="M 33.015625 40.375 
Q 26.375 40.375 22.484375 35.828125 
Q 18.609375 31.296875 18.609375 23.390625 
Q 18.609375 15.53125 22.484375 10.953125 
Q 26.375 6.390625 33.015625 6.390625 
Q 39.65625 6.390625 43.53125 10.953125 
Q 47.40625 15.53125 47.40625 23.390625 
Q 47.40625 31.296875 43.53125 35.828125 
Q 39.65625 40.375 33.015625 40.375 
z
M 52.59375 71.296875 
L 52.59375 62.3125 
Q 48.875 64.0625 45.09375 64.984375 
Q 41.3125 65.921875 37.59375 65.921875 
Q 27.828125 65.921875 22.671875 59.328125 
Q 17.53125 52.734375 16.796875 39.40625 
Q 19.671875 43.65625 24.015625 45.921875 
Q 28.375 48.1875 33.59375 48.1875 
Q 44.578125 48.1875 50.953125 41.515625 
Q 57.328125 34.859375 57.328125 23.390625 
Q 57.328125 12.15625 50.6875 5.359375 
Q 44.046875 -1.421875 33.015625 -1.421875 
Q 20.359375 -1.421875 13.671875 8.265625 
Q 6.984375 17.96875 6.984375 36.375 
Q 6.984375 53.65625 15.1875 63.9375 
Q 23.390625 74.21875 37.203125 74.21875 
Q 40.921875 74.21875 44.703125 73.484375 
Q 48.484375 72.75 52.59375 71.296875 
z
" id="DejaVuSans-54"/>
      </defs>
      <g transform="translate(233.119983 254.356562)scale(0.1 -0.1)">
       <use xlink:href="#DejaVuSans-48"/>
       <use x="63.623047" xlink:href="#DejaVuSans-46"/>
       <use x="95.410156" xlink:href="#DejaVuSans-48"/>
       <use x="159.033203" xlink:href="#DejaVuSans-54"/>
      </g>
     </g>
    </g>
    <g id="xtick_5">
     <g id="line2d_5">
      <g>
       <use style="stroke:#000000;stroke-width:0.8;" x="304.942459" xlink:href="#m8ea321a410" y="239.758125"/>
      </g>
     </g>
     <g id="text_5">
      <!-- 0.08 -->
      <defs>
       <path d="M 31.78125 34.625 
Q 24.75 34.625 20.71875 30.859375 
Q 16.703125 27.09375 16.703125 20.515625 
Q 16.703125 13.921875 20.71875 10.15625 
Q 24.75 6.390625 31.78125 6.390625 
Q 38.8125 6.390625 42.859375 10.171875 
Q 46.921875 13.96875 46.921875 20.515625 
Q 46.921875 27.09375 42.890625 30.859375 
Q 38.875 34.625 31.78125 34.625 
z
M 21.921875 38.8125 
Q 15.578125 40.375 12.03125 44.71875 
Q 8.5 49.078125 8.5 55.328125 
Q 8.5 64.0625 14.71875 69.140625 
Q 20.953125 74.21875 31.78125 74.21875 
Q 42.671875 74.21875 48.875 69.140625 
Q 55.078125 64.0625 55.078125 55.328125 
Q 55.078125 49.078125 51.53125 44.71875 
Q 48 40.375 41.703125 38.8125 
Q 48.828125 37.15625 52.796875 32.3125 
Q 56.78125 27.484375 56.78125 20.515625 
Q 56.78125 9.90625 50.3125 4.234375 
Q 43.84375 -1.421875 31.78125 -1.421875 
Q 19.734375 -1.421875 13.25 4.234375 
Q 6.78125 9.90625 6.78125 20.515625 
Q 6.78125 27.484375 10.78125 32.3125 
Q 14.796875 37.15625 21.921875 38.8125 
z
M 18.3125 54.390625 
Q 18.3125 48.734375 21.84375 45.5625 
Q 25.390625 42.390625 31.78125 42.390625 
Q 38.140625 42.390625 41.71875 45.5625 
Q 45.3125 48.734375 45.3125 54.390625 
Q 45.3125 60.0625 41.71875 63.234375 
Q 38.140625 66.40625 31.78125 66.40625 
Q 25.390625 66.40625 21.84375 63.234375 
Q 18.3125 60.0625 18.3125 54.390625 
z
" id="DejaVuSans-56"/>
      </defs>
      <g transform="translate(293.809646 254.356562)scale(0.1 -0.1)">
       <use xlink:href="#DejaVuSans-48"/>
       <use x="63.623047" xlink:href="#DejaVuSans-46"/>
       <use x="95.410156" xlink:href="#DejaVuSans-48"/>
       <use x="159.033203" xlink:href="#DejaVuSans-56"/>
      </g>
     </g>
    </g>
    <g id="xtick_6">
     <g id="line2d_6">
      <g>
       <use style="stroke:#000000;stroke-width:0.8;" x="365.632122" xlink:href="#m8ea321a410" y="239.758125"/>
      </g>
     </g>
     <g id="text_6">
      <!-- 0.10 -->
      <defs>
       <path d="M 12.40625 8.296875 
L 28.515625 8.296875 
L 28.515625 63.921875 
L 10.984375 60.40625 
L 10.984375 69.390625 
L 28.421875 72.90625 
L 38.28125 72.90625 
L 38.28125 8.296875 
L 54.390625 8.296875 
L 54.390625 0 
L 12.40625 0 
z
" id="DejaVuSans-49"/>
      </defs>
      <g transform="translate(354.499309 254.356562)scale(0.1 -0.1)">
       <use xlink:href="#DejaVuSans-48"/>
       <use x="63.623047" xlink:href="#DejaVuSans-46"/>
       <use x="95.410156" xlink:href="#DejaVuSans-49"/>
       <use x="159.033203" xlink:href="#DejaVuSans-48"/>
      </g>
     </g>
    </g>
    <g id="text_7">
     <!-- Time (ms) -->
     <defs>
      <path d="M -0.296875 72.90625 
L 61.375 72.90625 
L 61.375 64.59375 
L 35.5 64.59375 
L 35.5 0 
L 25.59375 0 
L 25.59375 64.59375 
L -0.296875 64.59375 
z
" id="DejaVuSans-84"/>
      <path d="M 9.421875 54.6875 
L 18.40625 54.6875 
L 18.40625 0 
L 9.421875 0 
z
M 9.421875 75.984375 
L 18.40625 75.984375 
L 18.40625 64.59375 
L 9.421875 64.59375 
z
" id="DejaVuSans-105"/>
      <path d="M 52 44.1875 
Q 55.375 50.25 60.0625 53.125 
Q 64.75 56 71.09375 56 
Q 79.640625 56 84.28125 50.015625 
Q 88.921875 44.046875 88.921875 33.015625 
L 88.921875 0 
L 79.890625 0 
L 79.890625 32.71875 
Q 79.890625 40.578125 77.09375 44.375 
Q 74.3125 48.1875 68.609375 48.1875 
Q 61.625 48.1875 57.5625 43.546875 
Q 53.515625 38.921875 53.515625 30.90625 
L 53.515625 0 
L 44.484375 0 
L 44.484375 32.71875 
Q 44.484375 40.625 41.703125 44.40625 
Q 38.921875 48.1875 33.109375 48.1875 
Q 26.21875 48.1875 22.15625 43.53125 
Q 18.109375 38.875 18.109375 30.90625 
L 18.109375 0 
L 9.078125 0 
L 9.078125 54.6875 
L 18.109375 54.6875 
L 18.109375 46.1875 
Q 21.1875 51.21875 25.484375 53.609375 
Q 29.78125 56 35.6875 56 
Q 41.65625 56 45.828125 52.96875 
Q 50 49.953125 52 44.1875 
z
" id="DejaVuSans-109"/>
      <path d="M 56.203125 29.59375 
L 56.203125 25.203125 
L 14.890625 25.203125 
Q 15.484375 15.921875 20.484375 11.0625 
Q 25.484375 6.203125 34.421875 6.203125 
Q 39.59375 6.203125 44.453125 7.46875 
Q 49.3125 8.734375 54.109375 11.28125 
L 54.109375 2.78125 
Q 49.265625 0.734375 44.1875 -0.34375 
Q 39.109375 -1.421875 33.890625 -1.421875 
Q 20.796875 -1.421875 13.15625 6.1875 
Q 5.515625 13.8125 5.515625 26.8125 
Q 5.515625 40.234375 12.765625 48.109375 
Q 20.015625 56 32.328125 56 
Q 43.359375 56 49.78125 48.890625 
Q 56.203125 41.796875 56.203125 29.59375 
z
M 47.21875 32.234375 
Q 47.125 39.59375 43.09375 43.984375 
Q 39.0625 48.390625 32.421875 48.390625 
Q 24.90625 48.390625 20.390625 44.140625 
Q 15.875 39.890625 15.1875 32.171875 
z
" id="DejaVuSans-101"/>
      <path id="DejaVuSans-32"/>
      <path d="M 31 75.875 
Q 24.46875 64.65625 21.28125 53.65625 
Q 18.109375 42.671875 18.109375 31.390625 
Q 18.109375 20.125 21.3125 9.0625 
Q 24.515625 -2 31 -13.1875 
L 23.1875 -13.1875 
Q 15.875 -1.703125 12.234375 9.375 
Q 8.59375 20.453125 8.59375 31.390625 
Q 8.59375 42.28125 12.203125 53.3125 
Q 15.828125 64.359375 23.1875 75.875 
z
" id="DejaVuSans-40"/>
      <path d="M 44.28125 53.078125 
L 44.28125 44.578125 
Q 40.484375 46.53125 36.375 47.5 
Q 32.28125 48.484375 27.875 48.484375 
Q 21.1875 48.484375 17.84375 46.4375 
Q 14.5 44.390625 14.5 40.28125 
Q 14.5 37.15625 16.890625 35.375 
Q 19.28125 33.59375 26.515625 31.984375 
L 29.59375 31.296875 
Q 39.15625 29.25 43.1875 25.515625 
Q 47.21875 21.78125 47.21875 15.09375 
Q 47.21875 7.46875 41.1875 3.015625 
Q 35.15625 -1.421875 24.609375 -1.421875 
Q 20.21875 -1.421875 15.453125 -0.5625 
Q 10.6875 0.296875 5.421875 2 
L 5.421875 11.28125 
Q 10.40625 8.6875 15.234375 7.390625 
Q 20.0625 6.109375 24.8125 6.109375 
Q 31.15625 6.109375 34.5625 8.28125 
Q 37.984375 10.453125 37.984375 14.40625 
Q 37.984375 18.0625 35.515625 20.015625 
Q 33.0625 21.96875 24.703125 23.78125 
L 21.578125 24.515625 
Q 13.234375 26.265625 9.515625 29.90625 
Q 5.8125 33.546875 5.8125 39.890625 
Q 5.8125 47.609375 11.28125 51.796875 
Q 16.75 56 26.8125 56 
Q 31.78125 56 36.171875 55.265625 
Q 40.578125 54.546875 44.28125 53.078125 
z
" id="DejaVuSans-115"/>
      <path d="M 8.015625 75.875 
L 15.828125 75.875 
Q 23.140625 64.359375 26.78125 53.3125 
Q 30.421875 42.28125 30.421875 31.390625 
Q 30.421875 20.453125 26.78125 9.375 
Q 23.140625 -1.703125 15.828125 -13.1875 
L 8.015625 -13.1875 
Q 14.5 -2 17.703125 9.0625 
Q 20.90625 20.125 20.90625 31.390625 
Q 20.90625 42.671875 17.703125 53.65625 
Q 14.5 64.65625 8.015625 75.875 
z
" id="DejaVuSans-41"/>
     </defs>
     <g transform="translate(189.0125 268.034687)scale(0.1 -0.1)">
      <use xlink:href="#DejaVuSans-84"/>
      <use x="61.037109" xlink:href="#DejaVuSans-105"/>
      <use x="88.820312" xlink:href="#DejaVuSans-109"/>
      <use x="186.232422" xlink:href="#DejaVuSans-101"/>
      <use x="247.755859" xlink:href="#DejaVuSans-32"/>
      <use x="279.542969" xlink:href="#DejaVuSans-40"/>
      <use x="318.556641" xlink:href="#DejaVuSans-109"/>
      <use x="415.96875" xlink:href="#DejaVuSans-115"/>
      <use x="468.068359" xlink:href="#DejaVuSans-41"/>
     </g>
    </g>
   </g>
   <g id="matplotlib.axis_2">
    <g id="ytick_1">
     <g id="line2d_7">
      <defs>
       <path d="M 0 0 
L -3.5 0 
" id="m1dcfa5a103" style="stroke:#000000;stroke-width:0.8;"/>
      </defs>
      <g>
       <use style="stroke:#000000;stroke-width:0.8;" x="46.965625" xlink:href="#m1dcfa5a103" y="229.874489"/>
      </g>
     </g>
     <g id="text_8">
      <!-- 0 -->
      <g transform="translate(33.603125 233.673707)scale(0.1 -0.1)">
       <use xlink:href="#DejaVuSans-48"/>
      </g>
     </g>
    </g>
    <g id="ytick_2">
     <g id="line2d_8">
      <g>
       <use style="stroke:#000000;stroke-width:0.8;" x="46.965625" xlink:href="#m1dcfa5a103" y="194.15137"/>
      </g>
     </g>
     <g id="text_9">
      <!-- 100 -->
      <g transform="translate(20.878125 197.950589)scale(0.1 -0.1)">
       <use xlink:href="#DejaVuSans-49"/>
       <use x="63.623047" xlink:href="#DejaVuSans-48"/>
       <use x="127.246094" xlink:href="#DejaVuSans-48"/>
      </g>
     </g>
    </g>
    <g id="ytick_3">
     <g id="line2d_9">
      <g>
       <use style="stroke:#000000;stroke-width:0.8;" x="46.965625" xlink:href="#m1dcfa5a103" y="158.428252"/>
      </g>
     </g>
     <g id="text_10">
      <!-- 200 -->
      <g transform="translate(20.878125 162.227471)scale(0.1 -0.1)">
       <use xlink:href="#DejaVuSans-50"/>
       <use x="63.623047" xlink:href="#DejaVuSans-48"/>
       <use x="127.246094" xlink:href="#DejaVuSans-48"/>
      </g>
     </g>
    </g>
    <g id="ytick_4">
     <g id="line2d_10">
      <g>
       <use style="stroke:#000000;stroke-width:0.8;" x="46.965625" xlink:href="#m1dcfa5a103" y="122.705134"/>
      </g>
     </g>
     <g id="text_11">
      <!-- 300 -->
      <defs>
       <path d="M 40.578125 39.3125 
Q 47.65625 37.796875 51.625 33 
Q 55.609375 28.21875 55.609375 21.1875 
Q 55.609375 10.40625 48.1875 4.484375 
Q 40.765625 -1.421875 27.09375 -1.421875 
Q 22.515625 -1.421875 17.65625 -0.515625 
Q 12.796875 0.390625 7.625 2.203125 
L 7.625 11.71875 
Q 11.71875 9.328125 16.59375 8.109375 
Q 21.484375 6.890625 26.8125 6.890625 
Q 36.078125 6.890625 40.9375 10.546875 
Q 45.796875 14.203125 45.796875 21.1875 
Q 45.796875 27.640625 41.28125 31.265625 
Q 36.765625 34.90625 28.71875 34.90625 
L 20.21875 34.90625 
L 20.21875 43.015625 
L 29.109375 43.015625 
Q 36.375 43.015625 40.234375 45.921875 
Q 44.09375 48.828125 44.09375 54.296875 
Q 44.09375 59.90625 40.109375 62.90625 
Q 36.140625 65.921875 28.71875 65.921875 
Q 24.65625 65.921875 20.015625 65.03125 
Q 15.375 64.15625 9.8125 62.3125 
L 9.8125 71.09375 
Q 15.4375 72.65625 20.34375 73.4375 
Q 25.25 74.21875 29.59375 74.21875 
Q 40.828125 74.21875 47.359375 69.109375 
Q 53.90625 64.015625 53.90625 55.328125 
Q 53.90625 49.265625 50.4375 45.09375 
Q 46.96875 40.921875 40.578125 39.3125 
z
" id="DejaVuSans-51"/>
      </defs>
      <g transform="translate(20.878125 126.504353)scale(0.1 -0.1)">
       <use xlink:href="#DejaVuSans-51"/>
       <use x="63.623047" xlink:href="#DejaVuSans-48"/>
       <use x="127.246094" xlink:href="#DejaVuSans-48"/>
      </g>
     </g>
    </g>
    <g id="ytick_5">
     <g id="line2d_11">
      <g>
       <use style="stroke:#000000;stroke-width:0.8;" x="46.965625" xlink:href="#m1dcfa5a103" y="86.982016"/>
      </g>
     </g>
     <g id="text_12">
      <!-- 400 -->
      <g transform="translate(20.878125 90.781234)scale(0.1 -0.1)">
       <use xlink:href="#DejaVuSans-52"/>
       <use x="63.623047" xlink:href="#DejaVuSans-48"/>
       <use x="127.246094" xlink:href="#DejaVuSans-48"/>
      </g>
     </g>
    </g>
    <g id="ytick_6">
     <g id="line2d_12">
      <g>
       <use style="stroke:#000000;stroke-width:0.8;" x="46.965625" xlink:href="#m1dcfa5a103" y="51.258897"/>
      </g>
     </g>
     <g id="text_13">
      <!-- 500 -->
      <defs>
       <path d="M 10.796875 72.90625 
L 49.515625 72.90625 
L 49.515625 64.59375 
L 19.828125 64.59375 
L 19.828125 46.734375 
Q 21.96875 47.46875 24.109375 47.828125 
Q 26.265625 48.1875 28.421875 48.1875 
Q 40.625 48.1875 47.75 41.5 
Q 54.890625 34.8125 54.890625 23.390625 
Q 54.890625 11.625 47.5625 5.09375 
Q 40.234375 -1.421875 26.90625 -1.421875 
Q 22.3125 -1.421875 17.546875 -0.640625 
Q 12.796875 0.140625 7.71875 1.703125 
L 7.71875 11.625 
Q 12.109375 9.234375 16.796875 8.0625 
Q 21.484375 6.890625 26.703125 6.890625 
Q 35.15625 6.890625 40.078125 11.328125 
Q 45.015625 15.765625 45.015625 23.390625 
Q 45.015625 31 40.078125 35.4375 
Q 35.15625 39.890625 26.703125 39.890625 
Q 22.75 39.890625 18.8125 39.015625 
Q 14.890625 38.140625 10.796875 36.28125 
z
" id="DejaVuSans-53"/>
      </defs>
      <g transform="translate(20.878125 55.058116)scale(0.1 -0.1)">
       <use xlink:href="#DejaVuSans-53"/>
       <use x="63.623047" xlink:href="#DejaVuSans-48"/>
       <use x="127.246094" xlink:href="#DejaVuSans-48"/>
      </g>
     </g>
    </g>
    <g id="text_14">
     <!-- ppmOH -->
     <defs>
      <path d="M 18.109375 8.203125 
L 18.109375 -20.796875 
L 9.078125 -20.796875 
L 9.078125 54.6875 
L 18.109375 54.6875 
L 18.109375 46.390625 
Q 20.953125 51.265625 25.265625 53.625 
Q 29.59375 56 35.59375 56 
Q 45.5625 56 51.78125 48.09375 
Q 58.015625 40.1875 58.015625 27.296875 
Q 58.015625 14.40625 51.78125 6.484375 
Q 45.5625 -1.421875 35.59375 -1.421875 
Q 29.59375 -1.421875 25.265625 0.953125 
Q 20.953125 3.328125 18.109375 8.203125 
z
M 48.6875 27.296875 
Q 48.6875 37.203125 44.609375 42.84375 
Q 40.53125 48.484375 33.40625 48.484375 
Q 26.265625 48.484375 22.1875 42.84375 
Q 18.109375 37.203125 18.109375 27.296875 
Q 18.109375 17.390625 22.1875 11.75 
Q 26.265625 6.109375 33.40625 6.109375 
Q 40.53125 6.109375 44.609375 11.75 
Q 48.6875 17.390625 48.6875 27.296875 
z
" id="DejaVuSans-112"/>
      <path d="M 39.40625 66.21875 
Q 28.65625 66.21875 22.328125 58.203125 
Q 16.015625 50.203125 16.015625 36.375 
Q 16.015625 22.609375 22.328125 14.59375 
Q 28.65625 6.59375 39.40625 6.59375 
Q 50.140625 6.59375 56.421875 14.59375 
Q 62.703125 22.609375 62.703125 36.375 
Q 62.703125 50.203125 56.421875 58.203125 
Q 50.140625 66.21875 39.40625 66.21875 
z
M 39.40625 74.21875 
Q 54.734375 74.21875 63.90625 63.9375 
Q 73.09375 53.65625 73.09375 36.375 
Q 73.09375 19.140625 63.90625 8.859375 
Q 54.734375 -1.421875 39.40625 -1.421875 
Q 24.03125 -1.421875 14.8125 8.828125 
Q 5.609375 19.09375 5.609375 36.375 
Q 5.609375 53.65625 14.8125 63.9375 
Q 24.03125 74.21875 39.40625 74.21875 
z
" id="DejaVuSans-79"/>
      <path d="M 9.8125 72.90625 
L 19.671875 72.90625 
L 19.671875 43.015625 
L 55.515625 43.015625 
L 55.515625 72.90625 
L 65.375 72.90625 
L 65.375 0 
L 55.515625 0 
L 55.515625 34.71875 
L 19.671875 34.71875 
L 19.671875 0 
L 9.8125 0 
z
" id="DejaVuSans-72"/>
     </defs>
     <g transform="translate(14.798438 149.952969)rotate(-90)scale(0.1 -0.1)">
      <use xlink:href="#DejaVuSans-112"/>
      <use x="63.476562" xlink:href="#DejaVuSans-112"/>
      <use x="126.953125" xlink:href="#DejaVuSans-109"/>
      <use x="224.365234" xlink:href="#DejaVuSans-79"/>
      <use x="303.076172" xlink:href="#DejaVuSans-72"/>
     </g>
    </g>
   </g>
   <g id="line2d_13">
    <path clip-path="url(#pd33f3fcaa1)" d="M 62.183807 229.874489 
L 69.896918 229.7679 
L 80.463379 229.413391 
L 88.262362 228.946612 
L 94.261476 228.393044 
L 99.748617 227.666735 
L 104.45188 226.811667 
L 108.371267 225.881785 
L 112.290653 224.699153 
L 115.426162 223.528466 
L 118.561671 222.116408 
L 121.69718 220.418264 
L 124.048812 218.926648 
L 126.400443 217.222217 
L 128.752075 215.279834 
L 131.103707 213.073041 
L 133.455338 210.574538 
L 135.80697 207.756848 
L 138.158602 204.593208 
L 140.510234 201.058686 
L 142.861865 197.131525 
L 145.213497 192.794694 
L 147.565129 188.037563 
L 149.91676 182.857621 
L 153.052269 175.307381 
L 156.187778 167.067764 
L 159.323287 158.224977 
L 163.242674 146.51493 
L 178.136341 101.085273 
L 181.27185 92.499344 
L 184.407359 84.550632 
L 187.542868 77.304848 
L 189.8945 72.351224 
L 192.246131 67.811785 
L 194.597763 63.679384 
L 196.949395 59.940196 
L 199.301027 56.575317 
L 201.652658 53.562253 
L 204.00429 50.876238 
L 206.355922 48.491347 
L 208.707553 46.381409 
L 211.059185 44.520703 
L 213.410817 42.884489 
L 216.546326 41.011854 
L 219.681835 39.445828 
L 222.817344 38.140755 
L 225.577308 37.175889 
L 229.153936 36.140989 
L 232.730564 35.308224 
L 237.499402 34.448427 
L 242.26824 33.810621 
L 248.229287 33.243276 
L 255.382544 32.798732 
L 264.92022 32.460899 
L 278.034524 32.258962 
L 298.302085 32.204764 
L 344.865334 32.367516 
L 366.35673 32.465381 
L 366.35673 32.465381 
" style="fill:none;stroke:#0000ff;stroke-linecap:square;stroke-width:1.5;"/>
   </g>
   <g id="line2d_14">
    <path clip-path="url(#pd33f3fcaa1)" d="M 62.183807 229.874489 
L 70.124599 229.764389 
L 80.475166 229.421854 
L 88.283863 228.965251 
L 94.548633 228.396748 
L 100.035502 227.678494 
L 104.738532 226.834535 
L 108.657725 225.91818 
L 112.576917 224.754374 
L 115.712271 223.603686 
L 118.847624 222.217138 
L 121.982978 220.551214 
L 124.334493 219.08897 
L 126.686009 217.419044 
L 129.037524 215.516919 
L 131.389039 213.356747 
L 133.740555 210.911794 
L 136.09207 208.155057 
L 138.443585 205.060102 
L 140.795101 201.602115 
L 143.146616 197.75918 
L 145.498131 193.51375 
L 147.849647 188.854266 
L 150.201162 183.77682 
L 153.336516 176.367474 
L 156.47187 168.268278 
L 159.607223 159.558619 
L 163.526416 147.993564 
L 170.580962 126.218236 
L 176.067831 109.539666 
L 179.987023 98.328171 
L 183.122377 89.982364 
L 186.25773 82.290365 
L 189.393084 75.305661 
L 191.7446 70.544444 
L 194.096115 66.190597 
L 196.44763 62.23433 
L 198.799146 58.659949 
L 201.150661 55.447369 
L 203.502176 52.573513 
L 205.853692 50.013517 
L 208.205207 47.741735 
L 210.556722 45.732554 
L 212.908238 43.961007 
L 216.043591 41.92753 
L 219.178945 40.221605 
L 222.314299 38.795714 
L 225.449653 37.607691 
L 229.072767 36.483024 
L 232.695881 35.57818 
L 237.5267 34.64426 
L 242.357519 33.951769 
L 248.396043 33.336047 
L 255.642271 32.853707 
L 264.096204 32.520327 
L 276.173252 32.29074 
L 294.288823 32.202133 
L 331.146292 32.299811 
L 366.547443 32.45757 
L 366.547443 32.45757 
" style="fill:none;stroke:#ff0000;stroke-linecap:square;stroke-width:1.5;"/>
   </g>
   <g id="line2d_15">
    <defs>
     <path d="M 0 3 
C 0.795609 3 1.55874 2.683901 2.12132 2.12132 
C 2.683901 1.55874 3 0.795609 3 0 
C 3 -0.795609 2.683901 -1.55874 2.12132 -2.12132 
C 1.55874 -2.683901 0.795609 -3 0 -3 
C -0.795609 -3 -1.55874 -2.683901 -2.12132 -2.12132 
C -2.683901 -1.55874 -3 -0.795609 -3 0 
C -3 0.795609 -2.683901 1.55874 -2.12132 2.12132 
C -1.55874 2.683901 -0.795609 3 0 3 
z
" id="mfaa6389fed" style="stroke:#000000;"/>
    </defs>
    <g clip-path="url(#pd33f3fcaa1)">
     <use style="stroke:#000000;" x="62.183807" xlink:href="#mfaa6389fed" y="229.874489"/>
     <use style="stroke:#000000;" x="62.184068" xlink:href="#mfaa6389fed" y="229.874489"/>
     <use style="stroke:#000000;" x="62.184888" xlink:href="#mfaa6389fed" y="229.874489"/>
     <use style="stroke:#000000;" x="62.185709" xlink:href="#mfaa6389fed" y="229.874489"/>
     <use style="stroke:#000000;" x="62.186529" xlink:href="#mfaa6389fed" y="229.874489"/>
     <use style="stroke:#000000;" x="62.18735" xlink:href="#mfaa6389fed" y="229.874489"/>
     <use style="stroke:#000000;" x="62.189089" xlink:href="#mfaa6389fed" y="229.874489"/>
     <use style="stroke:#000000;" x="62.192175" xlink:href="#mfaa6389fed" y="229.874488"/>
     <use style="stroke:#000000;" x="62.198142" xlink:href="#mfaa6389fed" y="229.874488"/>
     <use style="stroke:#000000;" x="62.204109" xlink:href="#mfaa6389fed" y="229.874488"/>
     <use style="stroke:#000000;" x="62.210076" xlink:href="#mfaa6389fed" y="229.874487"/>
     <use style="stroke:#000000;" x="62.216043" xlink:href="#mfaa6389fed" y="229.874486"/>
     <use style="stroke:#000000;" x="62.22201" xlink:href="#mfaa6389fed" y="229.874485"/>
     <use style="stroke:#000000;" x="62.227977" xlink:href="#mfaa6389fed" y="229.874484"/>
     <use style="stroke:#000000;" x="62.233944" xlink:href="#mfaa6389fed" y="229.874483"/>
     <use style="stroke:#000000;" x="62.248659" xlink:href="#mfaa6389fed" y="229.874479"/>
     <use style="stroke:#000000;" x="62.263374" xlink:href="#mfaa6389fed" y="229.874474"/>
     <use style="stroke:#000000;" x="62.278088" xlink:href="#mfaa6389fed" y="229.874468"/>
     <use style="stroke:#000000;" x="62.292803" xlink:href="#mfaa6389fed" y="229.874461"/>
     <use style="stroke:#000000;" x="62.307518" xlink:href="#mfaa6389fed" y="229.874453"/>
     <use style="stroke:#000000;" x="62.322233" xlink:href="#mfaa6389fed" y="229.874444"/>
     <use style="stroke:#000000;" x="62.336947" xlink:href="#mfaa6389fed" y="229.874434"/>
     <use style="stroke:#000000;" x="62.351662" xlink:href="#mfaa6389fed" y="229.874423"/>
     <use style="stroke:#000000;" x="62.366377" xlink:href="#mfaa6389fed" y="229.874411"/>
     <use style="stroke:#000000;" x="62.391123" xlink:href="#mfaa6389fed" y="229.874388"/>
     <use style="stroke:#000000;" x="62.415869" xlink:href="#mfaa6389fed" y="229.874362"/>
     <use style="stroke:#000000;" x="62.440615" xlink:href="#mfaa6389fed" y="229.874334"/>
     <use style="stroke:#000000;" x="62.492062" xlink:href="#mfaa6389fed" y="229.874265"/>
     <use style="stroke:#000000;" x="62.54351" xlink:href="#mfaa6389fed" y="229.874184"/>
     <use style="stroke:#000000;" x="62.594957" xlink:href="#mfaa6389fed" y="229.874091"/>
     <use style="stroke:#000000;" x="62.646404" xlink:href="#mfaa6389fed" y="229.873985"/>
     <use style="stroke:#000000;" x="62.697852" xlink:href="#mfaa6389fed" y="229.873866"/>
     <use style="stroke:#000000;" x="62.749299" xlink:href="#mfaa6389fed" y="229.873735"/>
     <use style="stroke:#000000;" x="62.800746" xlink:href="#mfaa6389fed" y="229.873591"/>
     <use style="stroke:#000000;" x="62.852194" xlink:href="#mfaa6389fed" y="229.873435"/>
     <use style="stroke:#000000;" x="62.940232" xlink:href="#mfaa6389fed" y="229.873139"/>
     <use style="stroke:#000000;" x="63.02827" xlink:href="#mfaa6389fed" y="229.872807"/>
     <use style="stroke:#000000;" x="63.116307" xlink:href="#mfaa6389fed" y="229.872439"/>
     <use style="stroke:#000000;" x="63.204345" xlink:href="#mfaa6389fed" y="229.872036"/>
     <use style="stroke:#000000;" x="63.292383" xlink:href="#mfaa6389fed" y="229.871597"/>
     <use style="stroke:#000000;" x="63.380421" xlink:href="#mfaa6389fed" y="229.871124"/>
     <use style="stroke:#000000;" x="63.468459" xlink:href="#mfaa6389fed" y="229.870617"/>
     <use style="stroke:#000000;" x="63.556497" xlink:href="#mfaa6389fed" y="229.870076"/>
     <use style="stroke:#000000;" x="63.644535" xlink:href="#mfaa6389fed" y="229.869502"/>
     <use style="stroke:#000000;" x="63.793567" xlink:href="#mfaa6389fed" y="229.868455"/>
     <use style="stroke:#000000;" x="63.902835" xlink:href="#mfaa6389fed" y="229.867629"/>
     <use style="stroke:#000000;" x="64.012102" xlink:href="#mfaa6389fed" y="229.866755"/>
     <use style="stroke:#000000;" x="64.12137" xlink:href="#mfaa6389fed" y="229.865834"/>
     <use style="stroke:#000000;" x="64.230637" xlink:href="#mfaa6389fed" y="229.864866"/>
     <use style="stroke:#000000;" x="64.339905" xlink:href="#mfaa6389fed" y="229.863854"/>
     <use style="stroke:#000000;" x="64.521024" xlink:href="#mfaa6389fed" y="229.862078"/>
     <use style="stroke:#000000;" x="64.702142" xlink:href="#mfaa6389fed" y="229.860185"/>
     <use style="stroke:#000000;" x="64.883261" xlink:href="#mfaa6389fed" y="229.85818"/>
     <use style="stroke:#000000;" x="65.06438" xlink:href="#mfaa6389fed" y="229.856067"/>
     <use style="stroke:#000000;" x="65.245499" xlink:href="#mfaa6389fed" y="229.853849"/>
     <use style="stroke:#000000;" x="65.426617" xlink:href="#mfaa6389fed" y="229.851531"/>
     <use style="stroke:#000000;" x="65.607736" xlink:href="#mfaa6389fed" y="229.849117"/>
     <use style="stroke:#000000;" x="65.788855" xlink:href="#mfaa6389fed" y="229.84661"/>
     <use style="stroke:#000000;" x="65.969974" xlink:href="#mfaa6389fed" y="229.844014"/>
     <use style="stroke:#000000;" x="66.151093" xlink:href="#mfaa6389fed" y="229.841332"/>
     <use style="stroke:#000000;" x="66.332211" xlink:href="#mfaa6389fed" y="229.838566"/>
     <use style="stroke:#000000;" x="66.51333" xlink:href="#mfaa6389fed" y="229.835721"/>
     <use style="stroke:#000000;" x="66.694449" xlink:href="#mfaa6389fed" y="229.832797"/>
     <use style="stroke:#000000;" x="66.875568" xlink:href="#mfaa6389fed" y="229.829798"/>
     <use style="stroke:#000000;" x="67.056686" xlink:href="#mfaa6389fed" y="229.826726"/>
     <use style="stroke:#000000;" x="67.237805" xlink:href="#mfaa6389fed" y="229.823583"/>
     <use style="stroke:#000000;" x="67.418924" xlink:href="#mfaa6389fed" y="229.820371"/>
     <use style="stroke:#000000;" x="67.600043" xlink:href="#mfaa6389fed" y="229.817091"/>
     <use style="stroke:#000000;" x="67.781162" xlink:href="#mfaa6389fed" y="229.813745"/>
     <use style="stroke:#000000;" x="67.96228" xlink:href="#mfaa6389fed" y="229.810335"/>
     <use style="stroke:#000000;" x="68.143399" xlink:href="#mfaa6389fed" y="229.806862"/>
     <use style="stroke:#000000;" x="68.324518" xlink:href="#mfaa6389fed" y="229.803326"/>
     <use style="stroke:#000000;" x="68.505637" xlink:href="#mfaa6389fed" y="229.79973"/>
     <use style="stroke:#000000;" x="68.686755" xlink:href="#mfaa6389fed" y="229.796074"/>
     <use style="stroke:#000000;" x="68.867874" xlink:href="#mfaa6389fed" y="229.792358"/>
     <use style="stroke:#000000;" x="69.048993" xlink:href="#mfaa6389fed" y="229.788584"/>
     <use style="stroke:#000000;" x="69.230112" xlink:href="#mfaa6389fed" y="229.784752"/>
     <use style="stroke:#000000;" x="69.411231" xlink:href="#mfaa6389fed" y="229.780862"/>
     <use style="stroke:#000000;" x="69.592349" xlink:href="#mfaa6389fed" y="229.776915"/>
     <use style="stroke:#000000;" x="69.773468" xlink:href="#mfaa6389fed" y="229.772912"/>
     <use style="stroke:#000000;" x="69.954587" xlink:href="#mfaa6389fed" y="229.768852"/>
     <use style="stroke:#000000;" x="70.135706" xlink:href="#mfaa6389fed" y="229.764736"/>
     <use style="stroke:#000000;" x="70.316824" xlink:href="#mfaa6389fed" y="229.760564"/>
     <use style="stroke:#000000;" x="70.497943" xlink:href="#mfaa6389fed" y="229.756335"/>
     <use style="stroke:#000000;" x="70.76988" xlink:href="#mfaa6389fed" y="229.749882"/>
     <use style="stroke:#000000;" x="71.041817" xlink:href="#mfaa6389fed" y="229.743302"/>
     <use style="stroke:#000000;" x="71.313754" xlink:href="#mfaa6389fed" y="229.736596"/>
     <use style="stroke:#000000;" x="71.585691" xlink:href="#mfaa6389fed" y="229.729762"/>
     <use style="stroke:#000000;" x="71.857628" xlink:href="#mfaa6389fed" y="229.7228"/>
     <use style="stroke:#000000;" x="72.129565" xlink:href="#mfaa6389fed" y="229.715709"/>
     <use style="stroke:#000000;" x="72.401501" xlink:href="#mfaa6389fed" y="229.708487"/>
     <use style="stroke:#000000;" x="72.673438" xlink:href="#mfaa6389fed" y="229.701134"/>
     <use style="stroke:#000000;" x="72.945375" xlink:href="#mfaa6389fed" y="229.693648"/>
     <use style="stroke:#000000;" x="73.217312" xlink:href="#mfaa6389fed" y="229.686027"/>
     <use style="stroke:#000000;" x="73.489249" xlink:href="#mfaa6389fed" y="229.67827"/>
     <use style="stroke:#000000;" x="73.761186" xlink:href="#mfaa6389fed" y="229.670374"/>
     <use style="stroke:#000000;" x="74.033123" xlink:href="#mfaa6389fed" y="229.662339"/>
     <use style="stroke:#000000;" x="74.30506" xlink:href="#mfaa6389fed" y="229.654162"/>
     <use style="stroke:#000000;" x="74.576997" xlink:href="#mfaa6389fed" y="229.64584"/>
     <use style="stroke:#000000;" x="74.848934" xlink:href="#mfaa6389fed" y="229.637373"/>
     <use style="stroke:#000000;" x="75.12087" xlink:href="#mfaa6389fed" y="229.628757"/>
     <use style="stroke:#000000;" x="75.392807" xlink:href="#mfaa6389fed" y="229.61999"/>
     <use style="stroke:#000000;" x="75.664744" xlink:href="#mfaa6389fed" y="229.61107"/>
     <use style="stroke:#000000;" x="75.936681" xlink:href="#mfaa6389fed" y="229.601995"/>
     <use style="stroke:#000000;" x="76.348635" xlink:href="#mfaa6389fed" y="229.587944"/>
     <use style="stroke:#000000;" x="76.760589" xlink:href="#mfaa6389fed" y="229.573522"/>
     <use style="stroke:#000000;" x="77.172543" xlink:href="#mfaa6389fed" y="229.558719"/>
     <use style="stroke:#000000;" x="77.584496" xlink:href="#mfaa6389fed" y="229.543524"/>
     <use style="stroke:#000000;" x="77.99645" xlink:href="#mfaa6389fed" y="229.527929"/>
     <use style="stroke:#000000;" x="78.408404" xlink:href="#mfaa6389fed" y="229.511923"/>
     <use style="stroke:#000000;" x="78.820358" xlink:href="#mfaa6389fed" y="229.495496"/>
     <use style="stroke:#000000;" x="79.232312" xlink:href="#mfaa6389fed" y="229.478636"/>
     <use style="stroke:#000000;" x="79.644266" xlink:href="#mfaa6389fed" y="229.461332"/>
     <use style="stroke:#000000;" x="80.056219" xlink:href="#mfaa6389fed" y="229.443573"/>
     <use style="stroke:#000000;" x="80.468173" xlink:href="#mfaa6389fed" y="229.425347"/>
     <use style="stroke:#000000;" x="80.880127" xlink:href="#mfaa6389fed" y="229.406642"/>
     <use style="stroke:#000000;" x="81.292081" xlink:href="#mfaa6389fed" y="229.387445"/>
     <use style="stroke:#000000;" x="81.704035" xlink:href="#mfaa6389fed" y="229.367744"/>
     <use style="stroke:#000000;" x="82.322743" xlink:href="#mfaa6389fed" y="229.337178"/>
     <use style="stroke:#000000;" x="82.941451" xlink:href="#mfaa6389fed" y="229.3054"/>
     <use style="stroke:#000000;" x="83.560159" xlink:href="#mfaa6389fed" y="229.27236"/>
     <use style="stroke:#000000;" x="84.178867" xlink:href="#mfaa6389fed" y="229.238009"/>
     <use style="stroke:#000000;" x="84.797575" xlink:href="#mfaa6389fed" y="229.202296"/>
     <use style="stroke:#000000;" x="85.416283" xlink:href="#mfaa6389fed" y="229.165168"/>
     <use style="stroke:#000000;" x="86.034991" xlink:href="#mfaa6389fed" y="229.126568"/>
     <use style="stroke:#000000;" x="86.653699" xlink:href="#mfaa6389fed" y="229.086439"/>
     <use style="stroke:#000000;" x="87.272407" xlink:href="#mfaa6389fed" y="229.04472"/>
     <use style="stroke:#000000;" x="87.891116" xlink:href="#mfaa6389fed" y="229.001351"/>
     <use style="stroke:#000000;" x="88.509824" xlink:href="#mfaa6389fed" y="228.956265"/>
     <use style="stroke:#000000;" x="89.128532" xlink:href="#mfaa6389fed" y="228.909397"/>
     <use style="stroke:#000000;" x="89.74724" xlink:href="#mfaa6389fed" y="228.860675"/>
     <use style="stroke:#000000;" x="90.365948" xlink:href="#mfaa6389fed" y="228.810028"/>
     <use style="stroke:#000000;" x="90.984656" xlink:href="#mfaa6389fed" y="228.757381"/>
     <use style="stroke:#000000;" x="91.603364" xlink:href="#mfaa6389fed" y="228.702656"/>
     <use style="stroke:#000000;" x="92.222072" xlink:href="#mfaa6389fed" y="228.645772"/>
     <use style="stroke:#000000;" x="92.84078" xlink:href="#mfaa6389fed" y="228.586644"/>
     <use style="stroke:#000000;" x="93.459488" xlink:href="#mfaa6389fed" y="228.525187"/>
     <use style="stroke:#000000;" x="94.078196" xlink:href="#mfaa6389fed" y="228.461309"/>
     <use style="stroke:#000000;" x="94.696904" xlink:href="#mfaa6389fed" y="228.394917"/>
     <use style="stroke:#000000;" x="95.315613" xlink:href="#mfaa6389fed" y="228.325914"/>
     <use style="stroke:#000000;" x="95.934321" xlink:href="#mfaa6389fed" y="228.254199"/>
     <use style="stroke:#000000;" x="96.553029" xlink:href="#mfaa6389fed" y="228.179667"/>
     <use style="stroke:#000000;" x="97.171737" xlink:href="#mfaa6389fed" y="228.102211"/>
     <use style="stroke:#000000;" x="97.790445" xlink:href="#mfaa6389fed" y="228.021717"/>
     <use style="stroke:#000000;" x="98.409153" xlink:href="#mfaa6389fed" y="227.938069"/>
     <use style="stroke:#000000;" x="99.027861" xlink:href="#mfaa6389fed" y="227.851146"/>
     <use style="stroke:#000000;" x="99.646569" xlink:href="#mfaa6389fed" y="227.760824"/>
     <use style="stroke:#000000;" x="100.265277" xlink:href="#mfaa6389fed" y="227.666973"/>
     <use style="stroke:#000000;" x="101.193902" xlink:href="#mfaa6389fed" y="227.519191"/>
     <use style="stroke:#000000;" x="102.122528" xlink:href="#mfaa6389fed" y="227.36268"/>
     <use style="stroke:#000000;" x="103.051153" xlink:href="#mfaa6389fed" y="227.196941"/>
     <use style="stroke:#000000;" x="103.979778" xlink:href="#mfaa6389fed" y="227.021446"/>
     <use style="stroke:#000000;" x="104.908403" xlink:href="#mfaa6389fed" y="226.835641"/>
     <use style="stroke:#000000;" x="105.837028" xlink:href="#mfaa6389fed" y="226.638942"/>
     <use style="stroke:#000000;" x="106.765654" xlink:href="#mfaa6389fed" y="226.430735"/>
     <use style="stroke:#000000;" x="107.694279" xlink:href="#mfaa6389fed" y="226.210375"/>
     <use style="stroke:#000000;" x="108.622904" xlink:href="#mfaa6389fed" y="225.977183"/>
     <use style="stroke:#000000;" x="109.551529" xlink:href="#mfaa6389fed" y="225.730447"/>
     <use style="stroke:#000000;" x="110.480154" xlink:href="#mfaa6389fed" y="225.469419"/>
     <use style="stroke:#000000;" x="111.40878" xlink:href="#mfaa6389fed" y="225.193317"/>
     <use style="stroke:#000000;" x="112.337405" xlink:href="#mfaa6389fed" y="224.901318"/>
     <use style="stroke:#000000;" x="113.26603" xlink:href="#mfaa6389fed" y="224.592562"/>
     <use style="stroke:#000000;" x="114.194655" xlink:href="#mfaa6389fed" y="224.266149"/>
     <use style="stroke:#000000;" x="115.12328" xlink:href="#mfaa6389fed" y="223.92114"/>
     <use style="stroke:#000000;" x="116.051906" xlink:href="#mfaa6389fed" y="223.55655"/>
     <use style="stroke:#000000;" x="116.980531" xlink:href="#mfaa6389fed" y="223.171356"/>
     <use style="stroke:#000000;" x="117.909156" xlink:href="#mfaa6389fed" y="222.764489"/>
     <use style="stroke:#000000;" x="118.837781" xlink:href="#mfaa6389fed" y="222.334837"/>
     <use style="stroke:#000000;" x="119.766406" xlink:href="#mfaa6389fed" y="221.881244"/>
     <use style="stroke:#000000;" x="120.695032" xlink:href="#mfaa6389fed" y="221.40251"/>
     <use style="stroke:#000000;" x="121.623657" xlink:href="#mfaa6389fed" y="220.897391"/>
     <use style="stroke:#000000;" x="122.552282" xlink:href="#mfaa6389fed" y="220.364597"/>
     <use style="stroke:#000000;" x="123.480907" xlink:href="#mfaa6389fed" y="219.802797"/>
     <use style="stroke:#000000;" x="124.409533" xlink:href="#mfaa6389fed" y="219.210616"/>
     <use style="stroke:#000000;" x="125.338158" xlink:href="#mfaa6389fed" y="218.58664"/>
     <use style="stroke:#000000;" x="126.266783" xlink:href="#mfaa6389fed" y="217.929415"/>
     <use style="stroke:#000000;" x="127.195408" xlink:href="#mfaa6389fed" y="217.237448"/>
     <use style="stroke:#000000;" x="128.124033" xlink:href="#mfaa6389fed" y="216.509213"/>
     <use style="stroke:#000000;" x="129.052659" xlink:href="#mfaa6389fed" y="215.743153"/>
     <use style="stroke:#000000;" x="129.981284" xlink:href="#mfaa6389fed" y="214.937684"/>
     <use style="stroke:#000000;" x="130.909909" xlink:href="#mfaa6389fed" y="214.091197"/>
     <use style="stroke:#000000;" x="131.838534" xlink:href="#mfaa6389fed" y="213.202067"/>
     <use style="stroke:#000000;" x="132.767159" xlink:href="#mfaa6389fed" y="212.268656"/>
     <use style="stroke:#000000;" x="133.695785" xlink:href="#mfaa6389fed" y="211.289319"/>
     <use style="stroke:#000000;" x="134.62441" xlink:href="#mfaa6389fed" y="210.262415"/>
     <use style="stroke:#000000;" x="135.553035" xlink:href="#mfaa6389fed" y="209.186311"/>
     <use style="stroke:#000000;" x="136.48166" xlink:href="#mfaa6389fed" y="208.059394"/>
     <use style="stroke:#000000;" x="137.410285" xlink:href="#mfaa6389fed" y="206.880078"/>
     <use style="stroke:#000000;" x="138.338911" xlink:href="#mfaa6389fed" y="205.646817"/>
     <use style="stroke:#000000;" x="139.267536" xlink:href="#mfaa6389fed" y="204.358115"/>
     <use style="stroke:#000000;" x="140.196161" xlink:href="#mfaa6389fed" y="203.012539"/>
     <use style="stroke:#000000;" x="141.124786" xlink:href="#mfaa6389fed" y="201.60873"/>
     <use style="stroke:#000000;" x="142.053411" xlink:href="#mfaa6389fed" y="200.145421"/>
     <use style="stroke:#000000;" x="142.982037" xlink:href="#mfaa6389fed" y="198.621448"/>
     <use style="stroke:#000000;" x="143.910662" xlink:href="#mfaa6389fed" y="197.035763"/>
     <use style="stroke:#000000;" x="144.839287" xlink:href="#mfaa6389fed" y="195.387456"/>
     <use style="stroke:#000000;" x="145.767912" xlink:href="#mfaa6389fed" y="193.675763"/>
     <use style="stroke:#000000;" x="146.696537" xlink:href="#mfaa6389fed" y="191.900089"/>
     <use style="stroke:#000000;" x="147.625163" xlink:href="#mfaa6389fed" y="190.060017"/>
     <use style="stroke:#000000;" x="148.553788" xlink:href="#mfaa6389fed" y="188.155327"/>
     <use style="stroke:#000000;" x="149.482413" xlink:href="#mfaa6389fed" y="186.186013"/>
     <use style="stroke:#000000;" x="150.411038" xlink:href="#mfaa6389fed" y="184.152293"/>
     <use style="stroke:#000000;" x="151.339663" xlink:href="#mfaa6389fed" y="182.054625"/>
     <use style="stroke:#000000;" x="152.268289" xlink:href="#mfaa6389fed" y="179.89372"/>
     <use style="stroke:#000000;" x="153.196914" xlink:href="#mfaa6389fed" y="177.67055"/>
     <use style="stroke:#000000;" x="154.125539" xlink:href="#mfaa6389fed" y="175.386359"/>
     <use style="stroke:#000000;" x="155.054164" xlink:href="#mfaa6389fed" y="173.042672"/>
     <use style="stroke:#000000;" x="155.982789" xlink:href="#mfaa6389fed" y="170.641294"/>
     <use style="stroke:#000000;" x="156.911415" xlink:href="#mfaa6389fed" y="168.184321"/>
     <use style="stroke:#000000;" x="157.84004" xlink:href="#mfaa6389fed" y="165.674133"/>
     <use style="stroke:#000000;" x="158.768665" xlink:href="#mfaa6389fed" y="163.113391"/>
     <use style="stroke:#000000;" x="159.69729" xlink:href="#mfaa6389fed" y="160.505039"/>
     <use style="stroke:#000000;" x="160.625915" xlink:href="#mfaa6389fed" y="157.852284"/>
     <use style="stroke:#000000;" x="161.554541" xlink:href="#mfaa6389fed" y="155.158592"/>
     <use style="stroke:#000000;" x="162.483166" xlink:href="#mfaa6389fed" y="152.427672"/>
     <use style="stroke:#000000;" x="163.411791" xlink:href="#mfaa6389fed" y="149.663455"/>
     <use style="stroke:#000000;" x="164.340416" xlink:href="#mfaa6389fed" y="146.870076"/>
     <use style="stroke:#000000;" x="165.269042" xlink:href="#mfaa6389fed" y="144.051849"/>
     <use style="stroke:#000000;" x="166.197667" xlink:href="#mfaa6389fed" y="141.213243"/>
     <use style="stroke:#000000;" x="167.126292" xlink:href="#mfaa6389fed" y="138.358854"/>
     <use style="stroke:#000000;" x="168.054917" xlink:href="#mfaa6389fed" y="135.493374"/>
     <use style="stroke:#000000;" x="168.983542" xlink:href="#mfaa6389fed" y="132.621562"/>
     <use style="stroke:#000000;" x="169.912168" xlink:href="#mfaa6389fed" y="129.748214"/>
     <use style="stroke:#000000;" x="170.840793" xlink:href="#mfaa6389fed" y="126.878126"/>
     <use style="stroke:#000000;" x="171.769418" xlink:href="#mfaa6389fed" y="124.016068"/>
     <use style="stroke:#000000;" x="172.698043" xlink:href="#mfaa6389fed" y="121.166749"/>
     <use style="stroke:#000000;" x="173.626668" xlink:href="#mfaa6389fed" y="118.334787"/>
     <use style="stroke:#000000;" x="174.555294" xlink:href="#mfaa6389fed" y="115.524681"/>
     <use style="stroke:#000000;" x="175.483919" xlink:href="#mfaa6389fed" y="112.740782"/>
     <use style="stroke:#000000;" x="176.412544" xlink:href="#mfaa6389fed" y="109.987269"/>
     <use style="stroke:#000000;" x="177.341169" xlink:href="#mfaa6389fed" y="107.268124"/>
     <use style="stroke:#000000;" x="178.269794" xlink:href="#mfaa6389fed" y="104.587114"/>
     <use style="stroke:#000000;" x="179.19842" xlink:href="#mfaa6389fed" y="101.94777"/>
     <use style="stroke:#000000;" x="180.127045" xlink:href="#mfaa6389fed" y="99.353378"/>
     <use style="stroke:#000000;" x="181.05567" xlink:href="#mfaa6389fed" y="96.806959"/>
     <use style="stroke:#000000;" x="181.984295" xlink:href="#mfaa6389fed" y="94.311266"/>
     <use style="stroke:#000000;" x="182.91292" xlink:href="#mfaa6389fed" y="91.868778"/>
     <use style="stroke:#000000;" x="183.841546" xlink:href="#mfaa6389fed" y="89.481691"/>
     <use style="stroke:#000000;" x="184.770171" xlink:href="#mfaa6389fed" y="87.151926"/>
     <use style="stroke:#000000;" x="185.698796" xlink:href="#mfaa6389fed" y="84.881126"/>
     <use style="stroke:#000000;" x="186.627421" xlink:href="#mfaa6389fed" y="82.670659"/>
     <use style="stroke:#000000;" x="187.556046" xlink:href="#mfaa6389fed" y="80.52163"/>
     <use style="stroke:#000000;" x="188.484672" xlink:href="#mfaa6389fed" y="78.434885"/>
     <use style="stroke:#000000;" x="189.413297" xlink:href="#mfaa6389fed" y="76.411023"/>
     <use style="stroke:#000000;" x="190.341922" xlink:href="#mfaa6389fed" y="74.450406"/>
     <use style="stroke:#000000;" x="191.270547" xlink:href="#mfaa6389fed" y="72.553175"/>
     <use style="stroke:#000000;" x="192.199172" xlink:href="#mfaa6389fed" y="70.719259"/>
     <use style="stroke:#000000;" x="193.127798" xlink:href="#mfaa6389fed" y="68.948392"/>
     <use style="stroke:#000000;" x="194.056423" xlink:href="#mfaa6389fed" y="67.240129"/>
     <use style="stroke:#000000;" x="194.985048" xlink:href="#mfaa6389fed" y="65.593855"/>
     <use style="stroke:#000000;" x="195.913673" xlink:href="#mfaa6389fed" y="64.008807"/>
     <use style="stroke:#000000;" x="196.842298" xlink:href="#mfaa6389fed" y="62.484085"/>
     <use style="stroke:#000000;" x="197.770924" xlink:href="#mfaa6389fed" y="61.018667"/>
     <use style="stroke:#000000;" x="198.699549" xlink:href="#mfaa6389fed" y="59.611422"/>
     <use style="stroke:#000000;" x="199.628174" xlink:href="#mfaa6389fed" y="58.261126"/>
     <use style="stroke:#000000;" x="200.556799" xlink:href="#mfaa6389fed" y="56.966474"/>
     <use style="stroke:#000000;" x="201.485424" xlink:href="#mfaa6389fed" y="55.726094"/>
     <use style="stroke:#000000;" x="202.41405" xlink:href="#mfaa6389fed" y="54.538554"/>
     <use style="stroke:#000000;" x="203.342675" xlink:href="#mfaa6389fed" y="53.40238"/>
     <use style="stroke:#000000;" x="204.2713" xlink:href="#mfaa6389fed" y="52.31606"/>
     <use style="stroke:#000000;" x="205.199925" xlink:href="#mfaa6389fed" y="51.278057"/>
     <use style="stroke:#000000;" x="206.12855" xlink:href="#mfaa6389fed" y="50.286818"/>
     <use style="stroke:#000000;" x="207.057176" xlink:href="#mfaa6389fed" y="49.34078"/>
     <use style="stroke:#000000;" x="207.985801" xlink:href="#mfaa6389fed" y="48.438378"/>
     <use style="stroke:#000000;" x="208.914426" xlink:href="#mfaa6389fed" y="47.578054"/>
     <use style="stroke:#000000;" x="209.843051" xlink:href="#mfaa6389fed" y="46.758257"/>
     <use style="stroke:#000000;" x="210.771677" xlink:href="#mfaa6389fed" y="45.977457"/>
     <use style="stroke:#000000;" x="211.700302" xlink:href="#mfaa6389fed" y="45.23414"/>
     <use style="stroke:#000000;" x="212.628927" xlink:href="#mfaa6389fed" y="44.52682"/>
     <use style="stroke:#000000;" x="213.557552" xlink:href="#mfaa6389fed" y="43.854037"/>
     <use style="stroke:#000000;" x="214.486177" xlink:href="#mfaa6389fed" y="43.214363"/>
     <use style="stroke:#000000;" x="215.414803" xlink:href="#mfaa6389fed" y="42.606404"/>
     <use style="stroke:#000000;" x="216.343428" xlink:href="#mfaa6389fed" y="42.0288"/>
     <use style="stroke:#000000;" x="217.272053" xlink:href="#mfaa6389fed" y="41.48023"/>
     <use style="stroke:#000000;" x="218.200678" xlink:href="#mfaa6389fed" y="40.959412"/>
     <use style="stroke:#000000;" x="219.129303" xlink:href="#mfaa6389fed" y="40.465101"/>
     <use style="stroke:#000000;" x="220.057929" xlink:href="#mfaa6389fed" y="39.996094"/>
     <use style="stroke:#000000;" x="220.986554" xlink:href="#mfaa6389fed" y="39.551228"/>
     <use style="stroke:#000000;" x="221.915179" xlink:href="#mfaa6389fed" y="39.129383"/>
     <use style="stroke:#000000;" x="222.843804" xlink:href="#mfaa6389fed" y="38.729476"/>
     <use style="stroke:#000000;" x="223.772429" xlink:href="#mfaa6389fed" y="38.350466"/>
     <use style="stroke:#000000;" x="224.701055" xlink:href="#mfaa6389fed" y="37.991353"/>
     <use style="stroke:#000000;" x="225.62968" xlink:href="#mfaa6389fed" y="37.651177"/>
     <use style="stroke:#000000;" x="226.558305" xlink:href="#mfaa6389fed" y="37.329013"/>
     <use style="stroke:#000000;" x="227.48693" xlink:href="#mfaa6389fed" y="37.023979"/>
     <use style="stroke:#000000;" x="228.415555" xlink:href="#mfaa6389fed" y="36.735228"/>
     <use style="stroke:#000000;" x="229.344181" xlink:href="#mfaa6389fed" y="36.461948"/>
     <use style="stroke:#000000;" x="230.754607" xlink:href="#mfaa6389fed" y="36.074748"/>
     <use style="stroke:#000000;" x="232.165034" xlink:href="#mfaa6389fed" y="35.718896"/>
     <use style="stroke:#000000;" x="233.57546" xlink:href="#mfaa6389fed" y="35.391999"/>
     <use style="stroke:#000000;" x="234.985887" xlink:href="#mfaa6389fed" y="35.091833"/>
     <use style="stroke:#000000;" x="236.396313" xlink:href="#mfaa6389fed" y="34.816329"/>
    </g>
   </g>
   <g id="line2d_16">
    <path clip-path="url(#pd33f3fcaa1)" d="M 62.183807 229.874489 
L 69.411231 229.76351 
L 79.232312 229.390965 
L 87.272407 228.87102 
L 93.459488 228.261412 
L 99.027861 227.480098 
L 103.051153 226.725413 
L 106.765654 225.842388 
L 110.480154 224.727995 
L 113.26603 223.705355 
L 116.051906 222.487005 
L 118.837781 221.034973 
L 121.623657 219.31008 
L 124.409533 217.258805 
L 127.195408 214.837896 
L 129.981284 211.978327 
L 131.838534 209.808959 
L 133.695785 207.397558 
L 135.553035 204.735855 
L 137.410285 201.80847 
L 140.196161 196.868489 
L 142.982037 191.252763 
L 145.767912 184.923305 
L 148.553788 177.883027 
L 151.339663 170.154201 
L 154.125539 161.789969 
L 157.84004 149.820623 
L 162.483166 133.982842 
L 169.912168 108.472227 
L 173.626668 96.513264 
L 176.412544 88.176038 
L 179.19842 80.493432 
L 181.984295 73.517909 
L 184.770171 67.290449 
L 187.556046 61.784952 
L 190.341922 56.995547 
L 192.199172 54.164358 
L 194.056423 51.616413 
L 195.913673 49.323391 
L 197.770924 47.266351 
L 200.556799 44.595493 
L 203.342675 42.352103 
L 206.12855 40.484095 
L 208.914426 38.933267 
L 211.700302 37.651748 
L 214.486177 36.597807 
L 218.200678 35.479951 
L 221.915179 34.626883 
L 225.62968 33.978341 
L 230.754607 33.33666 
L 236.396313 32.868999 
L 236.396313 32.868999 
" style="fill:none;stroke:#0000ff;stroke-dasharray:5.55,2.4;stroke-dashoffset:0;stroke-width:1.5;"/>
   </g>
   <g id="line2d_17">
    <path clip-path="url(#pd33f3fcaa1)" d="M 62.183807 229.874489 
L 70.76988 229.765903 
L 81.704035 229.43532 
L 89.74724 228.977965 
L 95.934321 228.415524 
L 101.193902 227.722541 
L 105.837028 226.885466 
L 109.551529 226.019894 
L 113.26603 224.940074 
L 116.980531 223.602325 
L 119.766406 222.396192 
L 122.552282 220.995164 
L 125.338158 219.365972 
L 128.124033 217.484304 
L 130.909909 215.314616 
L 133.695785 212.823696 
L 136.48166 209.978264 
L 139.267536 206.736685 
L 142.053411 203.074909 
L 144.839287 198.94626 
L 147.625163 194.341833 
L 150.411038 189.227524 
L 153.196914 183.608284 
L 155.982789 177.481428 
L 158.768665 170.871282 
L 162.483166 161.375766 
L 166.197667 151.224695 
L 171.769418 135.211196 
L 180.127045 111.037076 
L 183.841546 100.866598 
L 187.556046 91.339968 
L 190.341922 84.716793 
L 193.127798 78.570699 
L 195.913673 72.938105 
L 198.699549 67.8159 
L 201.485424 63.201063 
L 204.2713 59.076103 
L 207.057176 55.410027 
L 209.843051 52.179901 
L 212.628927 49.339291 
L 215.414803 46.865784 
L 218.200678 44.710321 
L 220.986554 42.846711 
L 223.772429 41.236435 
L 226.558305 39.852725 
L 229.344181 38.663584 
L 233.57546 37.178427 
L 236.396313 36.366854 
L 236.396313 36.366854 
" style="fill:none;stroke:#0000ff;stroke-dasharray:5.55,2.4;stroke-dashoffset:0;stroke-width:1.5;"/>
   </g>
   <g id="line2d_18"/>
   <g id="line2d_19"/>
   <g id="line2d_20"/>
   <g id="line2d_21"/>
   <g id="line2d_22"/>
   <g id="patch_3">
    <path d="M 46.965625 239.758125 
L 46.965625 22.318125 
" style="fill:none;stroke:#000000;stroke-linecap:square;stroke-linejoin:miter;stroke-width:0.8;"/>
   </g>
   <g id="patch_4">
    <path d="M 381.765625 239.758125 
L 381.765625 22.318125 
" style="fill:none;stroke:#000000;stroke-linecap:square;stroke-linejoin:miter;stroke-width:0.8;"/>
   </g>
   <g id="patch_5">
    <path d="M 46.965625 239.758125 
L 381.765625 239.758125 
" style="fill:none;stroke:#000000;stroke-linecap:square;stroke-linejoin:miter;stroke-width:0.8;"/>
   </g>
   <g id="patch_6">
    <path d="M 46.965625 22.318125 
L 381.765625 22.318125 
" style="fill:none;stroke:#000000;stroke-linecap:square;stroke-linejoin:miter;stroke-width:0.8;"/>
   </g>
   <g id="text_15">
    <!-- Experiment_25 -->
    <defs>
     <path d="M 9.8125 72.90625 
L 55.90625 72.90625 
L 55.90625 64.59375 
L 19.671875 64.59375 
L 19.671875 43.015625 
L 54.390625 43.015625 
L 54.390625 34.71875 
L 19.671875 34.71875 
L 19.671875 8.296875 
L 56.78125 8.296875 
L 56.78125 0 
L 9.8125 0 
z
" id="DejaVuSans-69"/>
     <path d="M 54.890625 54.6875 
L 35.109375 28.078125 
L 55.90625 0 
L 45.3125 0 
L 29.390625 21.484375 
L 13.484375 0 
L 2.875 0 
L 24.125 28.609375 
L 4.6875 54.6875 
L 15.28125 54.6875 
L 29.78125 35.203125 
L 44.28125 54.6875 
z
" id="DejaVuSans-120"/>
     <path d="M 41.109375 46.296875 
Q 39.59375 47.171875 37.8125 47.578125 
Q 36.03125 48 33.890625 48 
Q 26.265625 48 22.1875 43.046875 
Q 18.109375 38.09375 18.109375 28.8125 
L 18.109375 0 
L 9.078125 0 
L 9.078125 54.6875 
L 18.109375 54.6875 
L 18.109375 46.1875 
Q 20.953125 51.171875 25.484375 53.578125 
Q 30.03125 56 36.53125 56 
Q 37.453125 56 38.578125 55.875 
Q 39.703125 55.765625 41.0625 55.515625 
z
" id="DejaVuSans-114"/>
     <path d="M 54.890625 33.015625 
L 54.890625 0 
L 45.90625 0 
L 45.90625 32.71875 
Q 45.90625 40.484375 42.875 44.328125 
Q 39.84375 48.1875 33.796875 48.1875 
Q 26.515625 48.1875 22.3125 43.546875 
Q 18.109375 38.921875 18.109375 30.90625 
L 18.109375 0 
L 9.078125 0 
L 9.078125 54.6875 
L 18.109375 54.6875 
L 18.109375 46.1875 
Q 21.34375 51.125 25.703125 53.5625 
Q 30.078125 56 35.796875 56 
Q 45.21875 56 50.046875 50.171875 
Q 54.890625 44.34375 54.890625 33.015625 
z
" id="DejaVuSans-110"/>
     <path d="M 18.3125 70.21875 
L 18.3125 54.6875 
L 36.8125 54.6875 
L 36.8125 47.703125 
L 18.3125 47.703125 
L 18.3125 18.015625 
Q 18.3125 11.328125 20.140625 9.421875 
Q 21.96875 7.515625 27.59375 7.515625 
L 36.8125 7.515625 
L 36.8125 0 
L 27.59375 0 
Q 17.1875 0 13.234375 3.875 
Q 9.28125 7.765625 9.28125 18.015625 
L 9.28125 47.703125 
L 2.6875 47.703125 
L 2.6875 54.6875 
L 9.28125 54.6875 
L 9.28125 70.21875 
z
" id="DejaVuSans-116"/>
     <path d="M 50.984375 -16.609375 
L 50.984375 -23.578125 
L -0.984375 -23.578125 
L -0.984375 -16.609375 
z
" id="DejaVuSans-95"/>
    </defs>
    <g transform="translate(169.062813 16.318125)scale(0.12 -0.12)">
     <use xlink:href="#DejaVuSans-69"/>
     <use x="63.183594" xlink:href="#DejaVuSans-120"/>
     <use x="122.363281" xlink:href="#DejaVuSans-112"/>
     <use x="185.839844" xlink:href="#DejaVuSans-101"/>
     <use x="247.363281" xlink:href="#DejaVuSans-114"/>
     <use x="288.476562" xlink:href="#DejaVuSans-105"/>
     <use x="316.259766" xlink:href="#DejaVuSans-109"/>
     <use x="413.671875" xlink:href="#DejaVuSans-101"/>
     <use x="475.195312" xlink:href="#DejaVuSans-110"/>
     <use x="538.574219" xlink:href="#DejaVuSans-116"/>
     <use x="577.783203" xlink:href="#DejaVuSans-95"/>
     <use x="627.783203" xlink:href="#DejaVuSans-50"/>
     <use x="691.40625" xlink:href="#DejaVuSans-53"/>
    </g>
   </g>
   <g id="legend_1">
    <g id="patch_7">
     <path d="M 72.1875 161.905312 
L 374.765625 161.905312 
Q 376.765625 161.905312 376.765625 159.905312 
L 376.765625 102.170937 
Q 376.765625 100.170937 374.765625 100.170937 
L 72.1875 100.170937 
Q 70.1875 100.170937 70.1875 102.170937 
L 70.1875 159.905312 
Q 70.1875 161.905312 72.1875 161.905312 
z
" style="fill:#ffffff;opacity:0.8;stroke:#cccccc;stroke-linejoin:miter;"/>
    </g>
    <g id="line2d_23">
     <path d="M 74.1875 108.269375 
L 94.1875 108.269375 
" style="fill:none;stroke:#0000ff;stroke-linecap:square;stroke-width:1.5;"/>
    </g>
    <g id="line2d_24"/>
    <g id="text_16">
     <!-- MSI -->
     <defs>
      <path d="M 9.8125 72.90625 
L 24.515625 72.90625 
L 43.109375 23.296875 
L 61.8125 72.90625 
L 76.515625 72.90625 
L 76.515625 0 
L 66.890625 0 
L 66.890625 64.015625 
L 48.09375 14.015625 
L 38.1875 14.015625 
L 19.390625 64.015625 
L 19.390625 0 
L 9.8125 0 
z
" id="DejaVuSans-77"/>
      <path d="M 53.515625 70.515625 
L 53.515625 60.890625 
Q 47.90625 63.578125 42.921875 64.890625 
Q 37.9375 66.21875 33.296875 66.21875 
Q 25.25 66.21875 20.875 63.09375 
Q 16.5 59.96875 16.5 54.203125 
Q 16.5 49.359375 19.40625 46.890625 
Q 22.3125 44.4375 30.421875 42.921875 
L 36.375 41.703125 
Q 47.40625 39.59375 52.65625 34.296875 
Q 57.90625 29 57.90625 20.125 
Q 57.90625 9.515625 50.796875 4.046875 
Q 43.703125 -1.421875 29.984375 -1.421875 
Q 24.8125 -1.421875 18.96875 -0.25 
Q 13.140625 0.921875 6.890625 3.21875 
L 6.890625 13.375 
Q 12.890625 10.015625 18.65625 8.296875 
Q 24.421875 6.59375 29.984375 6.59375 
Q 38.421875 6.59375 43.015625 9.90625 
Q 47.609375 13.234375 47.609375 19.390625 
Q 47.609375 24.75 44.3125 27.78125 
Q 41.015625 30.8125 33.5 32.328125 
L 27.484375 33.5 
Q 16.453125 35.6875 11.515625 40.375 
Q 6.59375 45.0625 6.59375 53.421875 
Q 6.59375 63.09375 13.40625 68.65625 
Q 20.21875 74.21875 32.171875 74.21875 
Q 37.3125 74.21875 42.625 73.28125 
Q 47.953125 72.359375 53.515625 70.515625 
z
" id="DejaVuSans-83"/>
      <path d="M 9.8125 72.90625 
L 19.671875 72.90625 
L 19.671875 0 
L 9.8125 0 
z
" id="DejaVuSans-73"/>
     </defs>
     <g transform="translate(102.1875 111.769375)scale(0.1 -0.1)">
      <use xlink:href="#DejaVuSans-77"/>
      <use x="86.279297" xlink:href="#DejaVuSans-83"/>
      <use x="149.755859" xlink:href="#DejaVuSans-73"/>
     </g>
    </g>
    <g id="line2d_25">
     <path d="M 74.1875 122.949062 
L 94.1875 122.949062 
" style="fill:none;stroke:#ff0000;stroke-linecap:square;stroke-width:1.5;"/>
    </g>
    <g id="line2d_26"/>
    <g id="text_17">
     <!-- $\it{A priori}$ model -->
     <defs>
      <path d="M 36.8125 72.90625 
L 48 72.90625 
L 61.53125 0 
L 51.21875 0 
L 48.1875 18.703125 
L 15.375 18.703125 
L 5.078125 0 
L -5.328125 0 
z
M 40.375 63.1875 
L 19.921875 26.90625 
L 46.6875 26.90625 
z
" id="DejaVuSans-Oblique-65"/>
      <path d="M 49.609375 33.6875 
Q 49.609375 40.875 46.484375 44.671875 
Q 43.359375 48.484375 37.5 48.484375 
Q 33.5 48.484375 29.859375 46.4375 
Q 26.21875 44.390625 23.390625 40.484375 
Q 20.609375 36.625 18.9375 31.15625 
Q 17.28125 25.6875 17.28125 20.3125 
Q 17.28125 13.484375 20.40625 9.796875 
Q 23.53125 6.109375 29.296875 6.109375 
Q 33.546875 6.109375 37.1875 8.109375 
Q 40.828125 10.109375 43.40625 13.921875 
Q 46.1875 17.921875 47.890625 23.34375 
Q 49.609375 28.765625 49.609375 33.6875 
z
M 21.78125 46.390625 
Q 25.390625 51.125 30.296875 53.5625 
Q 35.203125 56 41.21875 56 
Q 49.609375 56 54.25 50.5 
Q 58.890625 45.015625 58.890625 35.109375 
Q 58.890625 27 56 19.65625 
Q 53.125 12.3125 47.703125 6.5 
Q 44.09375 2.640625 39.546875 0.609375 
Q 35.015625 -1.421875 29.984375 -1.421875 
Q 24.171875 -1.421875 20.21875 1 
Q 16.265625 3.421875 14.3125 8.203125 
L 8.6875 -20.796875 
L -0.296875 -20.796875 
L 14.40625 54.6875 
L 23.390625 54.6875 
z
" id="DejaVuSans-Oblique-112"/>
      <path d="M 44.578125 46.390625 
Q 43.21875 47.125 41.453125 47.515625 
Q 39.703125 47.90625 37.703125 47.90625 
Q 30.515625 47.90625 25.140625 42.453125 
Q 19.78125 37.015625 18.015625 27.875 
L 12.5 0 
L 3.515625 0 
L 14.203125 54.6875 
L 23.1875 54.6875 
L 21.484375 46.1875 
Q 25.046875 50.921875 30 53.453125 
Q 34.96875 56 40.578125 56 
Q 42.046875 56 43.453125 55.828125 
Q 44.875 55.671875 46.296875 55.28125 
z
" id="DejaVuSans-Oblique-114"/>
      <path d="M 18.3125 75.984375 
L 27.296875 75.984375 
L 25.09375 64.59375 
L 16.109375 64.59375 
z
M 14.203125 54.6875 
L 23.1875 54.6875 
L 12.5 0 
L 3.515625 0 
z
" id="DejaVuSans-Oblique-105"/>
      <path d="M 25.390625 -1.421875 
Q 15.765625 -1.421875 10.171875 4.515625 
Q 4.59375 10.453125 4.59375 20.703125 
Q 4.59375 26.65625 6.515625 32.828125 
Q 8.453125 39.015625 11.53125 43.21875 
Q 16.359375 49.75 22.3125 52.875 
Q 28.265625 56 35.796875 56 
Q 45.125 56 50.859375 50.1875 
Q 56.59375 44.390625 56.59375 35.015625 
Q 56.59375 28.515625 54.6875 22.0625 
Q 52.78125 15.625 49.703125 11.375 
Q 44.921875 4.828125 38.96875 1.703125 
Q 33.015625 -1.421875 25.390625 -1.421875 
z
M 13.921875 21 
Q 13.921875 13.578125 17.015625 9.890625 
Q 20.125 6.203125 26.421875 6.203125 
Q 35.453125 6.203125 41.375 14.078125 
Q 47.3125 21.96875 47.3125 34.078125 
Q 47.3125 41.15625 44.140625 44.765625 
Q 40.96875 48.390625 34.8125 48.390625 
Q 29.734375 48.390625 25.78125 46.015625 
Q 21.828125 43.65625 18.703125 38.8125 
Q 16.40625 35.203125 15.15625 30.5625 
Q 13.921875 25.921875 13.921875 21 
z
" id="DejaVuSans-Oblique-111"/>
      <path d="M 30.609375 48.390625 
Q 23.390625 48.390625 19.1875 42.75 
Q 14.984375 37.109375 14.984375 27.296875 
Q 14.984375 17.484375 19.15625 11.84375 
Q 23.34375 6.203125 30.609375 6.203125 
Q 37.796875 6.203125 41.984375 11.859375 
Q 46.1875 17.53125 46.1875 27.296875 
Q 46.1875 37.015625 41.984375 42.703125 
Q 37.796875 48.390625 30.609375 48.390625 
z
M 30.609375 56 
Q 42.328125 56 49.015625 48.375 
Q 55.71875 40.765625 55.71875 27.296875 
Q 55.71875 13.875 49.015625 6.21875 
Q 42.328125 -1.421875 30.609375 -1.421875 
Q 18.84375 -1.421875 12.171875 6.21875 
Q 5.515625 13.875 5.515625 27.296875 
Q 5.515625 40.765625 12.171875 48.375 
Q 18.84375 56 30.609375 56 
z
" id="DejaVuSans-111"/>
      <path d="M 45.40625 46.390625 
L 45.40625 75.984375 
L 54.390625 75.984375 
L 54.390625 0 
L 45.40625 0 
L 45.40625 8.203125 
Q 42.578125 3.328125 38.25 0.953125 
Q 33.9375 -1.421875 27.875 -1.421875 
Q 17.96875 -1.421875 11.734375 6.484375 
Q 5.515625 14.40625 5.515625 27.296875 
Q 5.515625 40.1875 11.734375 48.09375 
Q 17.96875 56 27.875 56 
Q 33.9375 56 38.25 53.625 
Q 42.578125 51.265625 45.40625 46.390625 
z
M 14.796875 27.296875 
Q 14.796875 17.390625 18.875 11.75 
Q 22.953125 6.109375 30.078125 6.109375 
Q 37.203125 6.109375 41.296875 11.75 
Q 45.40625 17.390625 45.40625 27.296875 
Q 45.40625 37.203125 41.296875 42.84375 
Q 37.203125 48.484375 30.078125 48.484375 
Q 22.953125 48.484375 18.875 42.84375 
Q 14.796875 37.203125 14.796875 27.296875 
z
" id="DejaVuSans-100"/>
      <path d="M 9.421875 75.984375 
L 18.40625 75.984375 
L 18.40625 0 
L 9.421875 0 
z
" id="DejaVuSans-108"/>
     </defs>
     <g transform="translate(102.1875 126.449062)scale(0.1 -0.1)">
      <use transform="translate(0 0.015625)" xlink:href="#DejaVuSans-Oblique-65"/>
      <use transform="translate(68.408203 0.015625)" xlink:href="#DejaVuSans-Oblique-112"/>
      <use transform="translate(131.884766 0.015625)" xlink:href="#DejaVuSans-Oblique-114"/>
      <use transform="translate(172.998047 0.015625)" xlink:href="#DejaVuSans-Oblique-105"/>
      <use transform="translate(200.78125 0.015625)" xlink:href="#DejaVuSans-Oblique-111"/>
      <use transform="translate(261.962891 0.015625)" xlink:href="#DejaVuSans-Oblique-114"/>
      <use transform="translate(303.076172 0.015625)" xlink:href="#DejaVuSans-Oblique-105"/>
      <use transform="translate(330.859375 0.015625)" xlink:href="#DejaVuSans-32"/>
      <use transform="translate(362.646484 0.015625)" xlink:href="#DejaVuSans-109"/>
      <use transform="translate(460.058594 0.015625)" xlink:href="#DejaVuSans-111"/>
      <use transform="translate(521.240234 0.015625)" xlink:href="#DejaVuSans-100"/>
      <use transform="translate(584.716797 0.015625)" xlink:href="#DejaVuSans-101"/>
      <use transform="translate(646.240234 0.015625)" xlink:href="#DejaVuSans-108"/>
     </g>
    </g>
    <g id="line2d_27"/>
    <g id="line2d_28">
     <g>
      <use style="stroke:#000000;" x="84.1875" xlink:href="#mfaa6389fed" y="137.6475"/>
     </g>
    </g>
    <g id="text_18">
     <!-- Experimental Data -->
     <defs>
      <path d="M 34.28125 27.484375 
Q 23.390625 27.484375 19.1875 25 
Q 14.984375 22.515625 14.984375 16.5 
Q 14.984375 11.71875 18.140625 8.90625 
Q 21.296875 6.109375 26.703125 6.109375 
Q 34.1875 6.109375 38.703125 11.40625 
Q 43.21875 16.703125 43.21875 25.484375 
L 43.21875 27.484375 
z
M 52.203125 31.203125 
L 52.203125 0 
L 43.21875 0 
L 43.21875 8.296875 
Q 40.140625 3.328125 35.546875 0.953125 
Q 30.953125 -1.421875 24.3125 -1.421875 
Q 15.921875 -1.421875 10.953125 3.296875 
Q 6 8.015625 6 15.921875 
Q 6 25.140625 12.171875 29.828125 
Q 18.359375 34.515625 30.609375 34.515625 
L 43.21875 34.515625 
L 43.21875 35.40625 
Q 43.21875 41.609375 39.140625 45 
Q 35.0625 48.390625 27.6875 48.390625 
Q 23 48.390625 18.546875 47.265625 
Q 14.109375 46.140625 10.015625 43.890625 
L 10.015625 52.203125 
Q 14.9375 54.109375 19.578125 55.046875 
Q 24.21875 56 28.609375 56 
Q 40.484375 56 46.34375 49.84375 
Q 52.203125 43.703125 52.203125 31.203125 
z
" id="DejaVuSans-97"/>
      <path d="M 19.671875 64.796875 
L 19.671875 8.109375 
L 31.59375 8.109375 
Q 46.6875 8.109375 53.6875 14.9375 
Q 60.6875 21.78125 60.6875 36.53125 
Q 60.6875 51.171875 53.6875 57.984375 
Q 46.6875 64.796875 31.59375 64.796875 
z
M 9.8125 72.90625 
L 30.078125 72.90625 
Q 51.265625 72.90625 61.171875 64.09375 
Q 71.09375 55.28125 71.09375 36.53125 
Q 71.09375 17.671875 61.125 8.828125 
Q 51.171875 0 30.078125 0 
L 9.8125 0 
z
" id="DejaVuSans-68"/>
     </defs>
     <g transform="translate(102.1875 141.1475)scale(0.1 -0.1)">
      <use xlink:href="#DejaVuSans-69"/>
      <use x="63.183594" xlink:href="#DejaVuSans-120"/>
      <use x="122.363281" xlink:href="#DejaVuSans-112"/>
      <use x="185.839844" xlink:href="#DejaVuSans-101"/>
      <use x="247.363281" xlink:href="#DejaVuSans-114"/>
      <use x="288.476562" xlink:href="#DejaVuSans-105"/>
      <use x="316.259766" xlink:href="#DejaVuSans-109"/>
      <use x="413.671875" xlink:href="#DejaVuSans-101"/>
      <use x="475.195312" xlink:href="#DejaVuSans-110"/>
      <use x="538.574219" xlink:href="#DejaVuSans-116"/>
      <use x="577.783203" xlink:href="#DejaVuSans-97"/>
      <use x="639.0625" xlink:href="#DejaVuSans-108"/>
      <use x="666.845703" xlink:href="#DejaVuSans-32"/>
      <use x="698.632812" xlink:href="#DejaVuSans-68"/>
      <use x="775.634766" xlink:href="#DejaVuSans-97"/>
      <use x="836.914062" xlink:href="#DejaVuSans-116"/>
      <use x="876.123047" xlink:href="#DejaVuSans-97"/>
     </g>
    </g>
    <g id="line2d_29">
     <path d="M 74.1875 152.325625 
L 94.1875 152.325625 
" style="fill:none;stroke:#ffffff;stroke-linecap:square;stroke-width:1.5;"/>
    </g>
    <g id="line2d_30"/>
    <g id="text_19">
     <!-- T:2681 -->
     <defs>
      <path d="M 11.71875 12.40625 
L 22.015625 12.40625 
L 22.015625 0 
L 11.71875 0 
z
M 11.71875 51.703125 
L 22.015625 51.703125 
L 22.015625 39.3125 
L 11.71875 39.3125 
z
" id="DejaVuSans-58"/>
     </defs>
     <g transform="translate(102.1875 155.825625)scale(0.1 -0.1)">
      <use xlink:href="#DejaVuSans-84"/>
      <use x="60.912109" xlink:href="#DejaVuSans-58"/>
      <use x="94.603516" xlink:href="#DejaVuSans-50"/>
      <use x="158.226562" xlink:href="#DejaVuSans-54"/>
      <use x="221.849609" xlink:href="#DejaVuSans-56"/>
      <use x="285.472656" xlink:href="#DejaVuSans-49"/>
     </g>
    </g>
    <g id="line2d_31">
     <path d="M 215.928125 108.269375 
L 235.928125 108.269375 
" style="fill:none;stroke:#ffffff;stroke-linecap:square;stroke-width:1.5;"/>
    </g>
    <g id="line2d_32"/>
    <g id="text_20">
     <!-- P:2.083 -->
     <defs>
      <path d="M 19.671875 64.796875 
L 19.671875 37.40625 
L 32.078125 37.40625 
Q 38.96875 37.40625 42.71875 40.96875 
Q 46.484375 44.53125 46.484375 51.125 
Q 46.484375 57.671875 42.71875 61.234375 
Q 38.96875 64.796875 32.078125 64.796875 
z
M 9.8125 72.90625 
L 32.078125 72.90625 
Q 44.34375 72.90625 50.609375 67.359375 
Q 56.890625 61.8125 56.890625 51.125 
Q 56.890625 40.328125 50.609375 34.8125 
Q 44.34375 29.296875 32.078125 29.296875 
L 19.671875 29.296875 
L 19.671875 0 
L 9.8125 0 
z
" id="DejaVuSans-80"/>
     </defs>
     <g transform="translate(243.928125 111.769375)scale(0.1 -0.1)">
      <use xlink:href="#DejaVuSans-80"/>
      <use x="60.302734" xlink:href="#DejaVuSans-58"/>
      <use x="93.994141" xlink:href="#DejaVuSans-50"/>
      <use x="157.617188" xlink:href="#DejaVuSans-46"/>
      <use x="189.404297" xlink:href="#DejaVuSans-48"/>
      <use x="253.027344" xlink:href="#DejaVuSans-56"/>
      <use x="316.650391" xlink:href="#DejaVuSans-51"/>
     </g>
    </g>
    <g id="line2d_33">
     <path d="M 215.928125 122.9475 
L 235.928125 122.9475 
" style="fill:none;stroke:#ffffff;stroke-linecap:square;stroke-width:1.5;"/>
    </g>
    <g id="line2d_34"/>
    <g id="text_21">
     <!-- O2: 0.00215 -->
     <g transform="translate(243.928125 126.4475)scale(0.1 -0.1)">
      <use xlink:href="#DejaVuSans-79"/>
      <use x="78.710938" xlink:href="#DejaVuSans-50"/>
      <use x="142.333984" xlink:href="#DejaVuSans-58"/>
      <use x="176.025391" xlink:href="#DejaVuSans-32"/>
      <use x="207.8125" xlink:href="#DejaVuSans-48"/>
      <use x="271.435547" xlink:href="#DejaVuSans-46"/>
      <use x="303.222656" xlink:href="#DejaVuSans-48"/>
      <use x="366.845703" xlink:href="#DejaVuSans-48"/>
      <use x="430.46875" xlink:href="#DejaVuSans-50"/>
      <use x="494.091797" xlink:href="#DejaVuSans-49"/>
      <use x="557.714844" xlink:href="#DejaVuSans-53"/>
     </g>
    </g>
    <g id="line2d_35">
     <path d="M 215.928125 137.625625 
L 235.928125 137.625625 
" style="fill:none;stroke:#ffffff;stroke-linecap:square;stroke-width:1.5;"/>
    </g>
    <g id="line2d_36"/>
    <g id="text_22">
     <!-- H2: 0.01014 -->
     <g transform="translate(243.928125 141.125625)scale(0.1 -0.1)">
      <use xlink:href="#DejaVuSans-72"/>
      <use x="75.195312" xlink:href="#DejaVuSans-50"/>
      <use x="138.818359" xlink:href="#DejaVuSans-58"/>
      <use x="172.509766" xlink:href="#DejaVuSans-32"/>
      <use x="204.296875" xlink:href="#DejaVuSans-48"/>
      <use x="267.919922" xlink:href="#DejaVuSans-46"/>
      <use x="299.707031" xlink:href="#DejaVuSans-48"/>
      <use x="363.330078" xlink:href="#DejaVuSans-49"/>
      <use x="426.953125" xlink:href="#DejaVuSans-48"/>
      <use x="490.576172" xlink:href="#DejaVuSans-49"/>
      <use x="554.199219" xlink:href="#DejaVuSans-52"/>
     </g>
    </g>
    <g id="line2d_37">
     <path d="M 215.928125 152.30375 
L 235.928125 152.30375 
" style="fill:none;stroke:#ffffff;stroke-linecap:square;stroke-width:1.5;"/>
    </g>
    <g id="line2d_38"/>
    <g id="text_23">
     <!-- Ar: 0.9877100000000001 -->
     <defs>
      <path d="M 34.1875 63.1875 
L 20.796875 26.90625 
L 47.609375 26.90625 
z
M 28.609375 72.90625 
L 39.796875 72.90625 
L 67.578125 0 
L 57.328125 0 
L 50.6875 18.703125 
L 17.828125 18.703125 
L 11.1875 0 
L 0.78125 0 
z
" id="DejaVuSans-65"/>
      <path d="M 10.984375 1.515625 
L 10.984375 10.5 
Q 14.703125 8.734375 18.5 7.8125 
Q 22.3125 6.890625 25.984375 6.890625 
Q 35.75 6.890625 40.890625 13.453125 
Q 46.046875 20.015625 46.78125 33.40625 
Q 43.953125 29.203125 39.59375 26.953125 
Q 35.25 24.703125 29.984375 24.703125 
Q 19.046875 24.703125 12.671875 31.3125 
Q 6.296875 37.9375 6.296875 49.421875 
Q 6.296875 60.640625 12.9375 67.421875 
Q 19.578125 74.21875 30.609375 74.21875 
Q 43.265625 74.21875 49.921875 64.515625 
Q 56.59375 54.828125 56.59375 36.375 
Q 56.59375 19.140625 48.40625 8.859375 
Q 40.234375 -1.421875 26.421875 -1.421875 
Q 22.703125 -1.421875 18.890625 -0.6875 
Q 15.09375 0.046875 10.984375 1.515625 
z
M 30.609375 32.421875 
Q 37.25 32.421875 41.125 36.953125 
Q 45.015625 41.5 45.015625 49.421875 
Q 45.015625 57.28125 41.125 61.84375 
Q 37.25 66.40625 30.609375 66.40625 
Q 23.96875 66.40625 20.09375 61.84375 
Q 16.21875 57.28125 16.21875 49.421875 
Q 16.21875 41.5 20.09375 36.953125 
Q 23.96875 32.421875 30.609375 32.421875 
z
" id="DejaVuSans-57"/>
      <path d="M 8.203125 72.90625 
L 55.078125 72.90625 
L 55.078125 68.703125 
L 28.609375 0 
L 18.3125 0 
L 43.21875 64.59375 
L 8.203125 64.59375 
z
" id="DejaVuSans-55"/>
     </defs>
     <g transform="translate(243.928125 155.80375)scale(0.1 -0.1)">
      <use xlink:href="#DejaVuSans-65"/>
      <use x="68.408203" xlink:href="#DejaVuSans-114"/>
      <use x="109.505859" xlink:href="#DejaVuSans-58"/>
      <use x="143.197266" xlink:href="#DejaVuSans-32"/>
      <use x="174.984375" xlink:href="#DejaVuSans-48"/>
      <use x="238.607422" xlink:href="#DejaVuSans-46"/>
      <use x="270.394531" xlink:href="#DejaVuSans-57"/>
      <use x="334.017578" xlink:href="#DejaVuSans-56"/>
      <use x="397.640625" xlink:href="#DejaVuSans-55"/>
      <use x="461.263672" xlink:href="#DejaVuSans-55"/>
      <use x="524.886719" xlink:href="#DejaVuSans-49"/>
      <use x="588.509766" xlink:href="#DejaVuSans-48"/>
      <use x="652.132812" xlink:href="#DejaVuSans-48"/>
      <use x="715.755859" xlink:href="#DejaVuSans-48"/>
      <use x="779.378906" xlink:href="#DejaVuSans-48"/>
      <use x="843.001953" xlink:href="#DejaVuSans-48"/>
      <use x="906.625" xlink:href="#DejaVuSans-48"/>
      <use x="970.248047" xlink:href="#DejaVuSans-48"/>
      <use x="1033.871094" xlink:href="#DejaVuSans-48"/>
      <use x="1097.494141" xlink:href="#DejaVuSans-48"/>
      <use x="1161.117188" xlink:href="#DejaVuSans-48"/>
      <use x="1224.740234" xlink:href="#DejaVuSans-49"/>
     </g>
    </g>
   </g>
  </g>
 </g>
 <defs>
  <clipPath id="pd33f3fcaa1">
   <rect height="217.44" width="334.8" x="46.965625" y="22.318125"/>
  </clipPath>
 </defs>
</svg>
