<?xml version="1.0" encoding="utf-8" standalone="no"?>
<!DOCTYPE svg PUBLIC "-//W3C//DTD SVG 1.1//EN"
  "http://www.w3.org/Graphics/SVG/1.1/DTD/svg11.dtd">
<!-- Created with matplotlib (https://matplotlib.org/) -->
<svg height="277.314375pt" version="1.1" viewBox="0 0 392.465625 277.314375" width="392.465625pt" xmlns="http://www.w3.org/2000/svg" xmlns:xlink="http://www.w3.org/1999/xlink">
 <defs>
  <style type="text/css">
*{stroke-linecap:butt;stroke-linejoin:round;}
  </style>
 </defs>
 <g id="figure_1">
  <g id="patch_1">
   <path d="M 0 277.314375 
L 392.465625 277.314375 
L 392.465625 0 
L 0 0 
z
" style="fill:none;"/>
  </g>
  <g id="axes_1">
   <g id="patch_2">
    <path d="M 46.965625 239.758125 
L 381.765625 239.758125 
L 381.765625 22.318125 
L 46.965625 22.318125 
z
" style="fill:none;"/>
   </g>
   <g id="matplotlib.axis_1">
    <g id="xtick_1">
     <g id="line2d_1">
      <defs>
       <path d="M 0 0 
L 0 3.5 
" id="m51ede266d1" style="stroke:#000000;stroke-width:0.8;"/>
      </defs>
      <g>
       <use style="stroke:#000000;stroke-width:0.8;" x="62.183807" xlink:href="#m51ede266d1" y="239.758125"/>
      </g>
     </g>
     <g id="text_1">
      <!-- 0.0 -->
      <defs>
       <path d="M 31.78125 66.40625 
Q 24.171875 66.40625 20.328125 58.90625 
Q 16.5 51.421875 16.5 36.375 
Q 16.5 21.390625 20.328125 13.890625 
Q 24.171875 6.390625 31.78125 6.390625 
Q 39.453125 6.390625 43.28125 13.890625 
Q 47.125 21.390625 47.125 36.375 
Q 47.125 51.421875 43.28125 58.90625 
Q 39.453125 66.40625 31.78125 66.40625 
z
M 31.78125 74.21875 
Q 44.046875 74.21875 50.515625 64.515625 
Q 56.984375 54.828125 56.984375 36.375 
Q 56.984375 17.96875 50.515625 8.265625 
Q 44.046875 -1.421875 31.78125 -1.421875 
Q 19.53125 -1.421875 13.0625 8.265625 
Q 6.59375 17.96875 6.59375 36.375 
Q 6.59375 54.828125 13.0625 64.515625 
Q 19.53125 74.21875 31.78125 74.21875 
z
" id="DejaVuSans-48"/>
       <path d="M 10.6875 12.40625 
L 21 12.40625 
L 21 0 
L 10.6875 0 
z
" id="DejaVuSans-46"/>
      </defs>
      <g transform="translate(54.232244 254.356562)scale(0.1 -0.1)">
       <use xlink:href="#DejaVuSans-48"/>
       <use x="63.623047" xlink:href="#DejaVuSans-46"/>
       <use x="95.410156" xlink:href="#DejaVuSans-48"/>
      </g>
     </g>
    </g>
    <g id="xtick_2">
     <g id="line2d_2">
      <g>
       <use style="stroke:#000000;stroke-width:0.8;" x="129.786365" xlink:href="#m51ede266d1" y="239.758125"/>
      </g>
     </g>
     <g id="text_2">
      <!-- 0.2 -->
      <defs>
       <path d="M 19.1875 8.296875 
L 53.609375 8.296875 
L 53.609375 0 
L 7.328125 0 
L 7.328125 8.296875 
Q 12.9375 14.109375 22.625 23.890625 
Q 32.328125 33.6875 34.8125 36.53125 
Q 39.546875 41.84375 41.421875 45.53125 
Q 43.3125 49.21875 43.3125 52.78125 
Q 43.3125 58.59375 39.234375 62.25 
Q 35.15625 65.921875 28.609375 65.921875 
Q 23.96875 65.921875 18.8125 64.3125 
Q 13.671875 62.703125 7.8125 59.421875 
L 7.8125 69.390625 
Q 13.765625 71.78125 18.9375 73 
Q 24.125 74.21875 28.421875 74.21875 
Q 39.75 74.21875 46.484375 68.546875 
Q 53.21875 62.890625 53.21875 53.421875 
Q 53.21875 48.921875 51.53125 44.890625 
Q 49.859375 40.875 45.40625 35.40625 
Q 44.1875 33.984375 37.640625 27.21875 
Q 31.109375 20.453125 19.1875 8.296875 
z
" id="DejaVuSans-50"/>
      </defs>
      <g transform="translate(121.834803 254.356562)scale(0.1 -0.1)">
       <use xlink:href="#DejaVuSans-48"/>
       <use x="63.623047" xlink:href="#DejaVuSans-46"/>
       <use x="95.410156" xlink:href="#DejaVuSans-50"/>
      </g>
     </g>
    </g>
    <g id="xtick_3">
     <g id="line2d_3">
      <g>
       <use style="stroke:#000000;stroke-width:0.8;" x="197.388924" xlink:href="#m51ede266d1" y="239.758125"/>
      </g>
     </g>
     <g id="text_3">
      <!-- 0.4 -->
      <defs>
       <path d="M 37.796875 64.3125 
L 12.890625 25.390625 
L 37.796875 25.390625 
z
M 35.203125 72.90625 
L 47.609375 72.90625 
L 47.609375 25.390625 
L 58.015625 25.390625 
L 58.015625 17.1875 
L 47.609375 17.1875 
L 47.609375 0 
L 37.796875 0 
L 37.796875 17.1875 
L 4.890625 17.1875 
L 4.890625 26.703125 
z
" id="DejaVuSans-52"/>
      </defs>
      <g transform="translate(189.437361 254.356562)scale(0.1 -0.1)">
       <use xlink:href="#DejaVuSans-48"/>
       <use x="63.623047" xlink:href="#DejaVuSans-46"/>
       <use x="95.410156" xlink:href="#DejaVuSans-52"/>
      </g>
     </g>
    </g>
    <g id="xtick_4">
     <g id="line2d_4">
      <g>
       <use style="stroke:#000000;stroke-width:0.8;" x="264.991482" xlink:href="#m51ede266d1" y="239.758125"/>
      </g>
     </g>
     <g id="text_4">
      <!-- 0.6 -->
      <defs>
       <path d="M 33.015625 40.375 
Q 26.375 40.375 22.484375 35.828125 
Q 18.609375 31.296875 18.609375 23.390625 
Q 18.609375 15.53125 22.484375 10.953125 
Q 26.375 6.390625 33.015625 6.390625 
Q 39.65625 6.390625 43.53125 10.953125 
Q 47.40625 15.53125 47.40625 23.390625 
Q 47.40625 31.296875 43.53125 35.828125 
Q 39.65625 40.375 33.015625 40.375 
z
M 52.59375 71.296875 
L 52.59375 62.3125 
Q 48.875 64.0625 45.09375 64.984375 
Q 41.3125 65.921875 37.59375 65.921875 
Q 27.828125 65.921875 22.671875 59.328125 
Q 17.53125 52.734375 16.796875 39.40625 
Q 19.671875 43.65625 24.015625 45.921875 
Q 28.375 48.1875 33.59375 48.1875 
Q 44.578125 48.1875 50.953125 41.515625 
Q 57.328125 34.859375 57.328125 23.390625 
Q 57.328125 12.15625 50.6875 5.359375 
Q 44.046875 -1.421875 33.015625 -1.421875 
Q 20.359375 -1.421875 13.671875 8.265625 
Q 6.984375 17.96875 6.984375 36.375 
Q 6.984375 53.65625 15.1875 63.9375 
Q 23.390625 74.21875 37.203125 74.21875 
Q 40.921875 74.21875 44.703125 73.484375 
Q 48.484375 72.75 52.59375 71.296875 
z
" id="DejaVuSans-54"/>
      </defs>
      <g transform="translate(257.03992 254.356562)scale(0.1 -0.1)">
       <use xlink:href="#DejaVuSans-48"/>
       <use x="63.623047" xlink:href="#DejaVuSans-46"/>
       <use x="95.410156" xlink:href="#DejaVuSans-54"/>
      </g>
     </g>
    </g>
    <g id="xtick_5">
     <g id="line2d_5">
      <g>
       <use style="stroke:#000000;stroke-width:0.8;" x="332.594041" xlink:href="#m51ede266d1" y="239.758125"/>
      </g>
     </g>
     <g id="text_5">
      <!-- 0.8 -->
      <defs>
       <path d="M 31.78125 34.625 
Q 24.75 34.625 20.71875 30.859375 
Q 16.703125 27.09375 16.703125 20.515625 
Q 16.703125 13.921875 20.71875 10.15625 
Q 24.75 6.390625 31.78125 6.390625 
Q 38.8125 6.390625 42.859375 10.171875 
Q 46.921875 13.96875 46.921875 20.515625 
Q 46.921875 27.09375 42.890625 30.859375 
Q 38.875 34.625 31.78125 34.625 
z
M 21.921875 38.8125 
Q 15.578125 40.375 12.03125 44.71875 
Q 8.5 49.078125 8.5 55.328125 
Q 8.5 64.0625 14.71875 69.140625 
Q 20.953125 74.21875 31.78125 74.21875 
Q 42.671875 74.21875 48.875 69.140625 
Q 55.078125 64.0625 55.078125 55.328125 
Q 55.078125 49.078125 51.53125 44.71875 
Q 48 40.375 41.703125 38.8125 
Q 48.828125 37.15625 52.796875 32.3125 
Q 56.78125 27.484375 56.78125 20.515625 
Q 56.78125 9.90625 50.3125 4.234375 
Q 43.84375 -1.421875 31.78125 -1.421875 
Q 19.734375 -1.421875 13.25 4.234375 
Q 6.78125 9.90625 6.78125 20.515625 
Q 6.78125 27.484375 10.78125 32.3125 
Q 14.796875 37.15625 21.921875 38.8125 
z
M 18.3125 54.390625 
Q 18.3125 48.734375 21.84375 45.5625 
Q 25.390625 42.390625 31.78125 42.390625 
Q 38.140625 42.390625 41.71875 45.5625 
Q 45.3125 48.734375 45.3125 54.390625 
Q 45.3125 60.0625 41.71875 63.234375 
Q 38.140625 66.40625 31.78125 66.40625 
Q 25.390625 66.40625 21.84375 63.234375 
Q 18.3125 60.0625 18.3125 54.390625 
z
" id="DejaVuSans-56"/>
      </defs>
      <g transform="translate(324.642479 254.356562)scale(0.1 -0.1)">
       <use xlink:href="#DejaVuSans-48"/>
       <use x="63.623047" xlink:href="#DejaVuSans-46"/>
       <use x="95.410156" xlink:href="#DejaVuSans-56"/>
      </g>
     </g>
    </g>
    <g id="text_6">
     <!-- Time (ms) -->
     <defs>
      <path d="M -0.296875 72.90625 
L 61.375 72.90625 
L 61.375 64.59375 
L 35.5 64.59375 
L 35.5 0 
L 25.59375 0 
L 25.59375 64.59375 
L -0.296875 64.59375 
z
" id="DejaVuSans-84"/>
      <path d="M 9.421875 54.6875 
L 18.40625 54.6875 
L 18.40625 0 
L 9.421875 0 
z
M 9.421875 75.984375 
L 18.40625 75.984375 
L 18.40625 64.59375 
L 9.421875 64.59375 
z
" id="DejaVuSans-105"/>
      <path d="M 52 44.1875 
Q 55.375 50.25 60.0625 53.125 
Q 64.75 56 71.09375 56 
Q 79.640625 56 84.28125 50.015625 
Q 88.921875 44.046875 88.921875 33.015625 
L 88.921875 0 
L 79.890625 0 
L 79.890625 32.71875 
Q 79.890625 40.578125 77.09375 44.375 
Q 74.3125 48.1875 68.609375 48.1875 
Q 61.625 48.1875 57.5625 43.546875 
Q 53.515625 38.921875 53.515625 30.90625 
L 53.515625 0 
L 44.484375 0 
L 44.484375 32.71875 
Q 44.484375 40.625 41.703125 44.40625 
Q 38.921875 48.1875 33.109375 48.1875 
Q 26.21875 48.1875 22.15625 43.53125 
Q 18.109375 38.875 18.109375 30.90625 
L 18.109375 0 
L 9.078125 0 
L 9.078125 54.6875 
L 18.109375 54.6875 
L 18.109375 46.1875 
Q 21.1875 51.21875 25.484375 53.609375 
Q 29.78125 56 35.6875 56 
Q 41.65625 56 45.828125 52.96875 
Q 50 49.953125 52 44.1875 
z
" id="DejaVuSans-109"/>
      <path d="M 56.203125 29.59375 
L 56.203125 25.203125 
L 14.890625 25.203125 
Q 15.484375 15.921875 20.484375 11.0625 
Q 25.484375 6.203125 34.421875 6.203125 
Q 39.59375 6.203125 44.453125 7.46875 
Q 49.3125 8.734375 54.109375 11.28125 
L 54.109375 2.78125 
Q 49.265625 0.734375 44.1875 -0.34375 
Q 39.109375 -1.421875 33.890625 -1.421875 
Q 20.796875 -1.421875 13.15625 6.1875 
Q 5.515625 13.8125 5.515625 26.8125 
Q 5.515625 40.234375 12.765625 48.109375 
Q 20.015625 56 32.328125 56 
Q 43.359375 56 49.78125 48.890625 
Q 56.203125 41.796875 56.203125 29.59375 
z
M 47.21875 32.234375 
Q 47.125 39.59375 43.09375 43.984375 
Q 39.0625 48.390625 32.421875 48.390625 
Q 24.90625 48.390625 20.390625 44.140625 
Q 15.875 39.890625 15.1875 32.171875 
z
" id="DejaVuSans-101"/>
      <path id="DejaVuSans-32"/>
      <path d="M 31 75.875 
Q 24.46875 64.65625 21.28125 53.65625 
Q 18.109375 42.671875 18.109375 31.390625 
Q 18.109375 20.125 21.3125 9.0625 
Q 24.515625 -2 31 -13.1875 
L 23.1875 -13.1875 
Q 15.875 -1.703125 12.234375 9.375 
Q 8.59375 20.453125 8.59375 31.390625 
Q 8.59375 42.28125 12.203125 53.3125 
Q 15.828125 64.359375 23.1875 75.875 
z
" id="DejaVuSans-40"/>
      <path d="M 44.28125 53.078125 
L 44.28125 44.578125 
Q 40.484375 46.53125 36.375 47.5 
Q 32.28125 48.484375 27.875 48.484375 
Q 21.1875 48.484375 17.84375 46.4375 
Q 14.5 44.390625 14.5 40.28125 
Q 14.5 37.15625 16.890625 35.375 
Q 19.28125 33.59375 26.515625 31.984375 
L 29.59375 31.296875 
Q 39.15625 29.25 43.1875 25.515625 
Q 47.21875 21.78125 47.21875 15.09375 
Q 47.21875 7.46875 41.1875 3.015625 
Q 35.15625 -1.421875 24.609375 -1.421875 
Q 20.21875 -1.421875 15.453125 -0.5625 
Q 10.6875 0.296875 5.421875 2 
L 5.421875 11.28125 
Q 10.40625 8.6875 15.234375 7.390625 
Q 20.0625 6.109375 24.8125 6.109375 
Q 31.15625 6.109375 34.5625 8.28125 
Q 37.984375 10.453125 37.984375 14.40625 
Q 37.984375 18.0625 35.515625 20.015625 
Q 33.0625 21.96875 24.703125 23.78125 
L 21.578125 24.515625 
Q 13.234375 26.265625 9.515625 29.90625 
Q 5.8125 33.546875 5.8125 39.890625 
Q 5.8125 47.609375 11.28125 51.796875 
Q 16.75 56 26.8125 56 
Q 31.78125 56 36.171875 55.265625 
Q 40.578125 54.546875 44.28125 53.078125 
z
" id="DejaVuSans-115"/>
      <path d="M 8.015625 75.875 
L 15.828125 75.875 
Q 23.140625 64.359375 26.78125 53.3125 
Q 30.421875 42.28125 30.421875 31.390625 
Q 30.421875 20.453125 26.78125 9.375 
Q 23.140625 -1.703125 15.828125 -13.1875 
L 8.015625 -13.1875 
Q 14.5 -2 17.703125 9.0625 
Q 20.90625 20.125 20.90625 31.390625 
Q 20.90625 42.671875 17.703125 53.65625 
Q 14.5 64.65625 8.015625 75.875 
z
" id="DejaVuSans-41"/>
     </defs>
     <g transform="translate(189.0125 268.034687)scale(0.1 -0.1)">
      <use xlink:href="#DejaVuSans-84"/>
      <use x="61.037109" xlink:href="#DejaVuSans-105"/>
      <use x="88.820312" xlink:href="#DejaVuSans-109"/>
      <use x="186.232422" xlink:href="#DejaVuSans-101"/>
      <use x="247.755859" xlink:href="#DejaVuSans-32"/>
      <use x="279.542969" xlink:href="#DejaVuSans-40"/>
      <use x="318.556641" xlink:href="#DejaVuSans-109"/>
      <use x="415.96875" xlink:href="#DejaVuSans-115"/>
      <use x="468.068359" xlink:href="#DejaVuSans-41"/>
     </g>
    </g>
   </g>
   <g id="matplotlib.axis_2">
    <g id="ytick_1">
     <g id="line2d_6">
      <defs>
       <path d="M 0 0 
L -3.5 0 
" id="mcebdbf7524" style="stroke:#000000;stroke-width:0.8;"/>
      </defs>
      <g>
       <use style="stroke:#000000;stroke-width:0.8;" x="46.965625" xlink:href="#mcebdbf7524" y="229.874489"/>
      </g>
     </g>
     <g id="text_7">
      <!-- 0 -->
      <g transform="translate(33.603125 233.673707)scale(0.1 -0.1)">
       <use xlink:href="#DejaVuSans-48"/>
      </g>
     </g>
    </g>
    <g id="ytick_2">
     <g id="line2d_7">
      <g>
       <use style="stroke:#000000;stroke-width:0.8;" x="46.965625" xlink:href="#mcebdbf7524" y="193.269912"/>
      </g>
     </g>
     <g id="text_8">
      <!-- 20 -->
      <g transform="translate(27.240625 197.069131)scale(0.1 -0.1)">
       <use xlink:href="#DejaVuSans-50"/>
       <use x="63.623047" xlink:href="#DejaVuSans-48"/>
      </g>
     </g>
    </g>
    <g id="ytick_3">
     <g id="line2d_8">
      <g>
       <use style="stroke:#000000;stroke-width:0.8;" x="46.965625" xlink:href="#mcebdbf7524" y="156.665335"/>
      </g>
     </g>
     <g id="text_9">
      <!-- 40 -->
      <g transform="translate(27.240625 160.464554)scale(0.1 -0.1)">
       <use xlink:href="#DejaVuSans-52"/>
       <use x="63.623047" xlink:href="#DejaVuSans-48"/>
      </g>
     </g>
    </g>
    <g id="ytick_4">
     <g id="line2d_9">
      <g>
       <use style="stroke:#000000;stroke-width:0.8;" x="46.965625" xlink:href="#mcebdbf7524" y="120.060758"/>
      </g>
     </g>
     <g id="text_10">
      <!-- 60 -->
      <g transform="translate(27.240625 123.859977)scale(0.1 -0.1)">
       <use xlink:href="#DejaVuSans-54"/>
       <use x="63.623047" xlink:href="#DejaVuSans-48"/>
      </g>
     </g>
    </g>
    <g id="ytick_5">
     <g id="line2d_10">
      <g>
       <use style="stroke:#000000;stroke-width:0.8;" x="46.965625" xlink:href="#mcebdbf7524" y="83.456182"/>
      </g>
     </g>
     <g id="text_11">
      <!-- 80 -->
      <g transform="translate(27.240625 87.255401)scale(0.1 -0.1)">
       <use xlink:href="#DejaVuSans-56"/>
       <use x="63.623047" xlink:href="#DejaVuSans-48"/>
      </g>
     </g>
    </g>
    <g id="ytick_6">
     <g id="line2d_11">
      <g>
       <use style="stroke:#000000;stroke-width:0.8;" x="46.965625" xlink:href="#mcebdbf7524" y="46.851605"/>
      </g>
     </g>
     <g id="text_12">
      <!-- 100 -->
      <defs>
       <path d="M 12.40625 8.296875 
L 28.515625 8.296875 
L 28.515625 63.921875 
L 10.984375 60.40625 
L 10.984375 69.390625 
L 28.421875 72.90625 
L 38.28125 72.90625 
L 38.28125 8.296875 
L 54.390625 8.296875 
L 54.390625 0 
L 12.40625 0 
z
" id="DejaVuSans-49"/>
      </defs>
      <g transform="translate(20.878125 50.650824)scale(0.1 -0.1)">
       <use xlink:href="#DejaVuSans-49"/>
       <use x="63.623047" xlink:href="#DejaVuSans-48"/>
       <use x="127.246094" xlink:href="#DejaVuSans-48"/>
      </g>
     </g>
    </g>
    <g id="text_13">
     <!-- ppmOH -->
     <defs>
      <path d="M 18.109375 8.203125 
L 18.109375 -20.796875 
L 9.078125 -20.796875 
L 9.078125 54.6875 
L 18.109375 54.6875 
L 18.109375 46.390625 
Q 20.953125 51.265625 25.265625 53.625 
Q 29.59375 56 35.59375 56 
Q 45.5625 56 51.78125 48.09375 
Q 58.015625 40.1875 58.015625 27.296875 
Q 58.015625 14.40625 51.78125 6.484375 
Q 45.5625 -1.421875 35.59375 -1.421875 
Q 29.59375 -1.421875 25.265625 0.953125 
Q 20.953125 3.328125 18.109375 8.203125 
z
M 48.6875 27.296875 
Q 48.6875 37.203125 44.609375 42.84375 
Q 40.53125 48.484375 33.40625 48.484375 
Q 26.265625 48.484375 22.1875 42.84375 
Q 18.109375 37.203125 18.109375 27.296875 
Q 18.109375 17.390625 22.1875 11.75 
Q 26.265625 6.109375 33.40625 6.109375 
Q 40.53125 6.109375 44.609375 11.75 
Q 48.6875 17.390625 48.6875 27.296875 
z
" id="DejaVuSans-112"/>
      <path d="M 39.40625 66.21875 
Q 28.65625 66.21875 22.328125 58.203125 
Q 16.015625 50.203125 16.015625 36.375 
Q 16.015625 22.609375 22.328125 14.59375 
Q 28.65625 6.59375 39.40625 6.59375 
Q 50.140625 6.59375 56.421875 14.59375 
Q 62.703125 22.609375 62.703125 36.375 
Q 62.703125 50.203125 56.421875 58.203125 
Q 50.140625 66.21875 39.40625 66.21875 
z
M 39.40625 74.21875 
Q 54.734375 74.21875 63.90625 63.9375 
Q 73.09375 53.65625 73.09375 36.375 
Q 73.09375 19.140625 63.90625 8.859375 
Q 54.734375 -1.421875 39.40625 -1.421875 
Q 24.03125 -1.421875 14.8125 8.828125 
Q 5.609375 19.09375 5.609375 36.375 
Q 5.609375 53.65625 14.8125 63.9375 
Q 24.03125 74.21875 39.40625 74.21875 
z
" id="DejaVuSans-79"/>
      <path d="M 9.8125 72.90625 
L 19.671875 72.90625 
L 19.671875 43.015625 
L 55.515625 43.015625 
L 55.515625 72.90625 
L 65.375 72.90625 
L 65.375 0 
L 55.515625 0 
L 55.515625 34.71875 
L 19.671875 34.71875 
L 19.671875 0 
L 9.8125 0 
z
" id="DejaVuSans-72"/>
     </defs>
     <g transform="translate(14.798438 149.952969)rotate(-90)scale(0.1 -0.1)">
      <use xlink:href="#DejaVuSans-112"/>
      <use x="63.476562" xlink:href="#DejaVuSans-112"/>
      <use x="126.953125" xlink:href="#DejaVuSans-109"/>
      <use x="224.365234" xlink:href="#DejaVuSans-79"/>
      <use x="303.076172" xlink:href="#DejaVuSans-72"/>
     </g>
    </g>
   </g>
   <g id="line2d_12">
    <path clip-path="url(#pc41945fd75)" d="M 62.183807 229.874489 
L 146.014652 229.765141 
L 169.75056 229.538305 
L 185.109088 229.185279 
L 196.278927 228.716075 
L 204.656307 228.167205 
L 211.637456 227.518755 
L 218.618605 226.628768 
L 224.203525 225.68585 
L 229.788445 224.477295 
L 233.977134 223.355245 
L 238.165824 222.010174 
L 242.354513 220.402334 
L 246.543203 218.48695 
L 250.005737 216.636357 
L 253.105193 214.748416 
L 256.204649 212.618654 
L 259.304106 210.224414 
L 262.403562 207.543455 
L 265.503018 204.554859 
L 268.602474 201.240192 
L 271.701931 197.584893 
L 274.801387 193.579907 
L 277.900843 189.223493 
L 281.000299 184.523121 
L 285.132907 177.754767 
L 289.265516 170.488997 
L 294.431276 160.900297 
L 306.118014 138.97067 
L 309.954207 132.359428 
L 312.736448 127.9268 
L 315.51869 123.864307 
L 318.300932 120.218218 
L 321.083173 117.021594 
L 323.865415 114.293074 
L 325.720242 112.736661 
L 328.023346 111.092728 
L 330.230719 109.808383 
L 332.242395 108.87475 
L 334.210983 108.166953 
L 336.59765 107.561356 
L 339.088312 107.195806 
L 341.578974 107.068852 
L 344.069636 107.145713 
L 347.182964 107.47626 
L 350.918957 108.133744 
L 355.277616 109.138314 
L 363.372269 111.287917 
L 366.485596 112.118773 
L 366.485596 112.118773 
" style="fill:none;stroke:#0000ff;stroke-linecap:square;stroke-width:1.5;"/>
   </g>
   <g id="line2d_13">
    <path clip-path="url(#pc41945fd75)" d="M 62.183807 229.874489 
L 148.806792 229.770157 
L 174.353337 229.543549 
L 189.965114 229.210396 
L 201.319134 228.775423 
L 211.253901 228.169826 
L 218.350163 227.545227 
L 225.446426 226.696258 
L 231.123436 225.804451 
L 236.800445 224.669986 
L 241.058203 223.623417 
L 245.31596 222.375532 
L 249.573718 220.89154 
L 253.831475 219.132346 
L 258.089233 217.054778 
L 261.60633 215.065474 
L 264.753098 213.052131 
L 267.899866 210.797579 
L 271.046634 208.282305 
L 274.193402 205.487942 
L 277.34017 202.398222 
L 280.486938 199.000116 
L 283.633706 195.285158 
L 286.780474 191.250913 
L 289.927241 186.902522 
L 294.122932 180.642103 
L 298.318623 173.912927 
L 303.563236 164.998248 
L 318.260214 139.592271 
L 322.060986 133.651859 
L 325.313773 128.988649 
L 328.018577 125.460124 
L 330.723381 122.281491 
L 333.428186 119.473448 
L 336.13299 117.046504 
L 338.837794 115.00105 
L 340.866397 113.712161 
L 342.895 112.625898 
L 344.923603 111.732913 
L 347.428659 110.879943 
L 349.810922 110.303856 
L 352.193186 109.933513 
L 354.589625 109.744159 
L 357.469605 109.72473 
L 361.309578 109.983627 
L 365.848497 110.594245 
L 366.547443 110.709552 
L 366.547443 110.709552 
" style="fill:none;stroke:#ff0000;stroke-linecap:square;stroke-width:1.5;"/>
   </g>
   <g id="line2d_14">
    <defs>
     <path d="M 0 3 
C 0.795609 3 1.55874 2.683901 2.12132 2.12132 
C 2.683901 1.55874 3 0.795609 3 0 
C 3 -0.795609 2.683901 -1.55874 2.12132 -2.12132 
C 1.55874 -2.683901 0.795609 -3 0 -3 
C -0.795609 -3 -1.55874 -2.683901 -2.12132 -2.12132 
C -2.683901 -1.55874 -3 -0.795609 -3 0 
C -3 0.795609 -2.683901 1.55874 -2.12132 2.12132 
C -1.55874 2.683901 -0.795609 3 0 3 
z
" id="md1b0354de0" style="stroke:#000000;"/>
    </defs>
    <g clip-path="url(#pc41945fd75)">
     <use style="stroke:#000000;" x="62.183807" xlink:href="#md1b0354de0" y="229.874489"/>
     <use style="stroke:#000000;" x="62.186155" xlink:href="#md1b0354de0" y="229.874489"/>
     <use style="stroke:#000000;" x="62.209641" xlink:href="#md1b0354de0" y="229.874489"/>
     <use style="stroke:#000000;" x="62.233126" xlink:href="#md1b0354de0" y="229.874489"/>
     <use style="stroke:#000000;" x="62.256611" xlink:href="#md1b0354de0" y="229.874488"/>
     <use style="stroke:#000000;" x="62.298342" xlink:href="#md1b0354de0" y="229.874488"/>
     <use style="stroke:#000000;" x="62.365397" xlink:href="#md1b0354de0" y="229.874488"/>
     <use style="stroke:#000000;" x="62.432452" xlink:href="#md1b0354de0" y="229.874487"/>
     <use style="stroke:#000000;" x="62.499507" xlink:href="#md1b0354de0" y="229.874485"/>
     <use style="stroke:#000000;" x="62.626054" xlink:href="#md1b0354de0" y="229.874483"/>
     <use style="stroke:#000000;" x="62.752602" xlink:href="#md1b0354de0" y="229.874479"/>
     <use style="stroke:#000000;" x="62.879149" xlink:href="#md1b0354de0" y="229.874474"/>
     <use style="stroke:#000000;" x="63.005697" xlink:href="#md1b0354de0" y="229.874469"/>
     <use style="stroke:#000000;" x="63.202699" xlink:href="#md1b0354de0" y="229.87446"/>
     <use style="stroke:#000000;" x="63.399702" xlink:href="#md1b0354de0" y="229.874449"/>
     <use style="stroke:#000000;" x="63.596704" xlink:href="#md1b0354de0" y="229.874436"/>
     <use style="stroke:#000000;" x="63.793706" xlink:href="#md1b0354de0" y="229.874423"/>
     <use style="stroke:#000000;" x="63.990709" xlink:href="#md1b0354de0" y="229.874409"/>
     <use style="stroke:#000000;" x="64.187711" xlink:href="#md1b0354de0" y="229.874394"/>
     <use style="stroke:#000000;" x="64.384713" xlink:href="#md1b0354de0" y="229.874378"/>
     <use style="stroke:#000000;" x="64.581715" xlink:href="#md1b0354de0" y="229.874361"/>
     <use style="stroke:#000000;" x="64.778718" xlink:href="#md1b0354de0" y="229.874344"/>
     <use style="stroke:#000000;" x="64.97572" xlink:href="#md1b0354de0" y="229.874326"/>
     <use style="stroke:#000000;" x="65.284912" xlink:href="#md1b0354de0" y="229.874297"/>
     <use style="stroke:#000000;" x="65.594105" xlink:href="#md1b0354de0" y="229.874267"/>
     <use style="stroke:#000000;" x="65.903297" xlink:href="#md1b0354de0" y="229.874236"/>
     <use style="stroke:#000000;" x="66.212489" xlink:href="#md1b0354de0" y="229.874203"/>
     <use style="stroke:#000000;" x="66.521682" xlink:href="#md1b0354de0" y="229.87417"/>
     <use style="stroke:#000000;" x="66.830874" xlink:href="#md1b0354de0" y="229.874136"/>
     <use style="stroke:#000000;" x="67.140066" xlink:href="#md1b0354de0" y="229.874101"/>
     <use style="stroke:#000000;" x="67.449259" xlink:href="#md1b0354de0" y="229.874066"/>
     <use style="stroke:#000000;" x="67.953996" xlink:href="#md1b0354de0" y="229.874006"/>
     <use style="stroke:#000000;" x="68.458734" xlink:href="#md1b0354de0" y="229.873944"/>
     <use style="stroke:#000000;" x="68.963471" xlink:href="#md1b0354de0" y="229.873881"/>
     <use style="stroke:#000000;" x="69.814544" xlink:href="#md1b0354de0" y="229.873769"/>
     <use style="stroke:#000000;" x="70.665618" xlink:href="#md1b0354de0" y="229.873653"/>
     <use style="stroke:#000000;" x="71.516691" xlink:href="#md1b0354de0" y="229.87353"/>
     <use style="stroke:#000000;" x="72.367764" xlink:href="#md1b0354de0" y="229.873402"/>
     <use style="stroke:#000000;" x="73.218837" xlink:href="#md1b0354de0" y="229.873268"/>
     <use style="stroke:#000000;" x="74.069911" xlink:href="#md1b0354de0" y="229.873128"/>
     <use style="stroke:#000000;" x="74.920984" xlink:href="#md1b0354de0" y="229.872981"/>
     <use style="stroke:#000000;" x="75.772057" xlink:href="#md1b0354de0" y="229.872828"/>
     <use style="stroke:#000000;" x="76.62313" xlink:href="#md1b0354de0" y="229.872668"/>
     <use style="stroke:#000000;" x="78.503924" xlink:href="#md1b0354de0" y="229.872288"/>
     <use style="stroke:#000000;" x="79.716457" xlink:href="#md1b0354de0" y="229.872022"/>
     <use style="stroke:#000000;" x="80.928991" xlink:href="#md1b0354de0" y="229.87174"/>
     <use style="stroke:#000000;" x="82.141524" xlink:href="#md1b0354de0" y="229.871441"/>
     <use style="stroke:#000000;" x="83.354058" xlink:href="#md1b0354de0" y="229.871122"/>
     <use style="stroke:#000000;" x="84.566592" xlink:href="#md1b0354de0" y="229.870784"/>
     <use style="stroke:#000000;" x="85.779125" xlink:href="#md1b0354de0" y="229.870424"/>
     <use style="stroke:#000000;" x="86.991659" xlink:href="#md1b0354de0" y="229.870043"/>
     <use style="stroke:#000000;" x="88.204193" xlink:href="#md1b0354de0" y="229.869637"/>
     <use style="stroke:#000000;" x="89.416726" xlink:href="#md1b0354de0" y="229.869208"/>
     <use style="stroke:#000000;" x="91.312566" xlink:href="#md1b0354de0" y="229.868482"/>
     <use style="stroke:#000000;" x="93.208406" xlink:href="#md1b0354de0" y="229.867687"/>
     <use style="stroke:#000000;" x="95.104246" xlink:href="#md1b0354de0" y="229.866815"/>
     <use style="stroke:#000000;" x="97.000086" xlink:href="#md1b0354de0" y="229.86586"/>
     <use style="stroke:#000000;" x="98.895926" xlink:href="#md1b0354de0" y="229.864813"/>
     <use style="stroke:#000000;" x="100.791766" xlink:href="#md1b0354de0" y="229.863667"/>
     <use style="stroke:#000000;" x="102.687606" xlink:href="#md1b0354de0" y="229.862413"/>
     <use style="stroke:#000000;" x="104.583446" xlink:href="#md1b0354de0" y="229.86104"/>
     <use style="stroke:#000000;" x="106.479286" xlink:href="#md1b0354de0" y="229.859538"/>
     <use style="stroke:#000000;" x="108.375126" xlink:href="#md1b0354de0" y="229.857895"/>
     <use style="stroke:#000000;" x="110.270966" xlink:href="#md1b0354de0" y="229.856097"/>
     <use style="stroke:#000000;" x="112.166806" xlink:href="#md1b0354de0" y="229.854131"/>
     <use style="stroke:#000000;" x="114.062646" xlink:href="#md1b0354de0" y="229.851981"/>
     <use style="stroke:#000000;" x="115.958486" xlink:href="#md1b0354de0" y="229.84963"/>
     <use style="stroke:#000000;" x="117.854326" xlink:href="#md1b0354de0" y="229.84706"/>
     <use style="stroke:#000000;" x="119.750165" xlink:href="#md1b0354de0" y="229.84425"/>
     <use style="stroke:#000000;" x="121.646005" xlink:href="#md1b0354de0" y="229.841178"/>
     <use style="stroke:#000000;" x="123.541845" xlink:href="#md1b0354de0" y="229.837821"/>
     <use style="stroke:#000000;" x="125.437685" xlink:href="#md1b0354de0" y="229.834151"/>
     <use style="stroke:#000000;" x="127.333525" xlink:href="#md1b0354de0" y="229.830141"/>
     <use style="stroke:#000000;" x="128.727457" xlink:href="#md1b0354de0" y="229.826957"/>
     <use style="stroke:#000000;" x="130.121388" xlink:href="#md1b0354de0" y="229.823558"/>
     <use style="stroke:#000000;" x="131.51532" xlink:href="#md1b0354de0" y="229.81993"/>
     <use style="stroke:#000000;" x="132.909251" xlink:href="#md1b0354de0" y="229.816057"/>
     <use style="stroke:#000000;" x="134.303183" xlink:href="#md1b0354de0" y="229.811924"/>
     <use style="stroke:#000000;" x="135.697115" xlink:href="#md1b0354de0" y="229.807512"/>
     <use style="stroke:#000000;" x="137.091046" xlink:href="#md1b0354de0" y="229.802804"/>
     <use style="stroke:#000000;" x="138.484978" xlink:href="#md1b0354de0" y="229.797779"/>
     <use style="stroke:#000000;" x="139.878909" xlink:href="#md1b0354de0" y="229.792415"/>
     <use style="stroke:#000000;" x="141.272841" xlink:href="#md1b0354de0" y="229.786691"/>
     <use style="stroke:#000000;" x="142.666772" xlink:href="#md1b0354de0" y="229.780583"/>
     <use style="stroke:#000000;" x="144.060704" xlink:href="#md1b0354de0" y="229.774063"/>
     <use style="stroke:#000000;" x="145.454635" xlink:href="#md1b0354de0" y="229.767106"/>
     <use style="stroke:#000000;" x="146.848567" xlink:href="#md1b0354de0" y="229.759681"/>
     <use style="stroke:#000000;" x="148.242498" xlink:href="#md1b0354de0" y="229.751757"/>
     <use style="stroke:#000000;" x="149.63643" xlink:href="#md1b0354de0" y="229.743302"/>
     <use style="stroke:#000000;" x="151.030361" xlink:href="#md1b0354de0" y="229.734278"/>
     <use style="stroke:#000000;" x="152.424293" xlink:href="#md1b0354de0" y="229.724649"/>
     <use style="stroke:#000000;" x="153.818224" xlink:href="#md1b0354de0" y="229.714374"/>
     <use style="stroke:#000000;" x="155.212156" xlink:href="#md1b0354de0" y="229.703409"/>
     <use style="stroke:#000000;" x="156.606088" xlink:href="#md1b0354de0" y="229.691708"/>
     <use style="stroke:#000000;" x="158.000019" xlink:href="#md1b0354de0" y="229.679223"/>
     <use style="stroke:#000000;" x="159.393951" xlink:href="#md1b0354de0" y="229.6659"/>
     <use style="stroke:#000000;" x="160.787882" xlink:href="#md1b0354de0" y="229.651684"/>
     <use style="stroke:#000000;" x="162.181814" xlink:href="#md1b0354de0" y="229.636515"/>
     <use style="stroke:#000000;" x="163.575745" xlink:href="#md1b0354de0" y="229.62033"/>
     <use style="stroke:#000000;" x="164.969677" xlink:href="#md1b0354de0" y="229.60306"/>
     <use style="stroke:#000000;" x="166.363608" xlink:href="#md1b0354de0" y="229.584633"/>
     <use style="stroke:#000000;" x="167.75754" xlink:href="#md1b0354de0" y="229.564972"/>
     <use style="stroke:#000000;" x="169.151471" xlink:href="#md1b0354de0" y="229.543994"/>
     <use style="stroke:#000000;" x="170.545403" xlink:href="#md1b0354de0" y="229.521613"/>
     <use style="stroke:#000000;" x="171.939334" xlink:href="#md1b0354de0" y="229.497733"/>
     <use style="stroke:#000000;" x="173.333266" xlink:href="#md1b0354de0" y="229.472256"/>
     <use style="stroke:#000000;" x="174.727197" xlink:href="#md1b0354de0" y="229.445075"/>
     <use style="stroke:#000000;" x="176.121129" xlink:href="#md1b0354de0" y="229.416076"/>
     <use style="stroke:#000000;" x="177.515061" xlink:href="#md1b0354de0" y="229.38514"/>
     <use style="stroke:#000000;" x="178.908992" xlink:href="#md1b0354de0" y="229.352136"/>
     <use style="stroke:#000000;" x="180.302924" xlink:href="#md1b0354de0" y="229.316928"/>
     <use style="stroke:#000000;" x="181.696855" xlink:href="#md1b0354de0" y="229.27937"/>
     <use style="stroke:#000000;" x="183.090787" xlink:href="#md1b0354de0" y="229.239305"/>
     <use style="stroke:#000000;" x="184.484718" xlink:href="#md1b0354de0" y="229.196568"/>
     <use style="stroke:#000000;" x="185.87865" xlink:href="#md1b0354de0" y="229.150981"/>
     <use style="stroke:#000000;" x="187.272581" xlink:href="#md1b0354de0" y="229.102356"/>
     <use style="stroke:#000000;" x="188.666513" xlink:href="#md1b0354de0" y="229.050493"/>
     <use style="stroke:#000000;" x="190.060444" xlink:href="#md1b0354de0" y="228.995178"/>
     <use style="stroke:#000000;" x="191.454376" xlink:href="#md1b0354de0" y="228.936183"/>
     <use style="stroke:#000000;" x="192.848307" xlink:href="#md1b0354de0" y="228.873266"/>
     <use style="stroke:#000000;" x="194.242239" xlink:href="#md1b0354de0" y="228.806169"/>
     <use style="stroke:#000000;" x="195.63617" xlink:href="#md1b0354de0" y="228.734619"/>
     <use style="stroke:#000000;" x="197.030102" xlink:href="#md1b0354de0" y="228.658322"/>
     <use style="stroke:#000000;" x="198.424034" xlink:href="#md1b0354de0" y="228.576969"/>
     <use style="stroke:#000000;" x="199.817965" xlink:href="#md1b0354de0" y="228.49023"/>
     <use style="stroke:#000000;" x="201.211897" xlink:href="#md1b0354de0" y="228.397753"/>
     <use style="stroke:#000000;" x="202.605828" xlink:href="#md1b0354de0" y="228.299166"/>
     <use style="stroke:#000000;" x="203.99976" xlink:href="#md1b0354de0" y="228.194071"/>
     <use style="stroke:#000000;" x="205.393691" xlink:href="#md1b0354de0" y="228.082047"/>
     <use style="stroke:#000000;" x="206.787623" xlink:href="#md1b0354de0" y="227.962648"/>
     <use style="stroke:#000000;" x="208.181554" xlink:href="#md1b0354de0" y="227.835397"/>
     <use style="stroke:#000000;" x="209.575486" xlink:href="#md1b0354de0" y="227.699792"/>
     <use style="stroke:#000000;" x="210.969417" xlink:href="#md1b0354de0" y="227.555296"/>
     <use style="stroke:#000000;" x="212.363349" xlink:href="#md1b0354de0" y="227.401342"/>
     <use style="stroke:#000000;" x="213.75728" xlink:href="#md1b0354de0" y="227.237331"/>
     <use style="stroke:#000000;" x="215.151212" xlink:href="#md1b0354de0" y="227.062623"/>
     <use style="stroke:#000000;" x="216.545143" xlink:href="#md1b0354de0" y="226.876545"/>
     <use style="stroke:#000000;" x="217.939075" xlink:href="#md1b0354de0" y="226.678382"/>
     <use style="stroke:#000000;" x="219.333007" xlink:href="#md1b0354de0" y="226.46738"/>
     <use style="stroke:#000000;" x="220.726938" xlink:href="#md1b0354de0" y="226.242739"/>
     <use style="stroke:#000000;" x="222.12087" xlink:href="#md1b0354de0" y="226.003615"/>
     <use style="stroke:#000000;" x="223.514801" xlink:href="#md1b0354de0" y="225.749119"/>
     <use style="stroke:#000000;" x="224.908733" xlink:href="#md1b0354de0" y="225.47831"/>
     <use style="stroke:#000000;" x="226.302664" xlink:href="#md1b0354de0" y="225.190197"/>
     <use style="stroke:#000000;" x="227.696596" xlink:href="#md1b0354de0" y="224.883737"/>
     <use style="stroke:#000000;" x="229.090527" xlink:href="#md1b0354de0" y="224.557833"/>
     <use style="stroke:#000000;" x="230.484459" xlink:href="#md1b0354de0" y="224.21133"/>
     <use style="stroke:#000000;" x="231.87839" xlink:href="#md1b0354de0" y="223.843017"/>
     <use style="stroke:#000000;" x="233.272322" xlink:href="#md1b0354de0" y="223.451623"/>
     <use style="stroke:#000000;" x="234.666253" xlink:href="#md1b0354de0" y="223.035817"/>
     <use style="stroke:#000000;" x="236.060185" xlink:href="#md1b0354de0" y="222.594206"/>
     <use style="stroke:#000000;" x="237.454117" xlink:href="#md1b0354de0" y="222.125336"/>
     <use style="stroke:#000000;" x="238.848048" xlink:href="#md1b0354de0" y="221.627691"/>
     <use style="stroke:#000000;" x="240.24198" xlink:href="#md1b0354de0" y="221.099691"/>
     <use style="stroke:#000000;" x="241.635911" xlink:href="#md1b0354de0" y="220.539697"/>
     <use style="stroke:#000000;" x="243.029843" xlink:href="#md1b0354de0" y="219.946008"/>
     <use style="stroke:#000000;" x="244.423774" xlink:href="#md1b0354de0" y="219.316863"/>
     <use style="stroke:#000000;" x="245.817706" xlink:href="#md1b0354de0" y="218.650447"/>
     <use style="stroke:#000000;" x="247.211637" xlink:href="#md1b0354de0" y="217.944893"/>
     <use style="stroke:#000000;" x="248.243532" xlink:href="#md1b0354de0" y="217.396249"/>
     <use style="stroke:#000000;" x="249.275427" xlink:href="#md1b0354de0" y="216.824314"/>
     <use style="stroke:#000000;" x="250.307323" xlink:href="#md1b0354de0" y="216.228281"/>
     <use style="stroke:#000000;" x="251.339218" xlink:href="#md1b0354de0" y="215.607336"/>
     <use style="stroke:#000000;" x="252.371113" xlink:href="#md1b0354de0" y="214.960655"/>
     <use style="stroke:#000000;" x="253.403008" xlink:href="#md1b0354de0" y="214.287408"/>
     <use style="stroke:#000000;" x="254.434903" xlink:href="#md1b0354de0" y="213.586761"/>
     <use style="stroke:#000000;" x="255.466798" xlink:href="#md1b0354de0" y="212.857879"/>
     <use style="stroke:#000000;" x="256.498693" xlink:href="#md1b0354de0" y="212.099928"/>
     <use style="stroke:#000000;" x="257.530588" xlink:href="#md1b0354de0" y="211.312077"/>
     <use style="stroke:#000000;" x="258.562484" xlink:href="#md1b0354de0" y="210.493506"/>
     <use style="stroke:#000000;" x="259.594379" xlink:href="#md1b0354de0" y="209.643402"/>
     <use style="stroke:#000000;" x="260.626274" xlink:href="#md1b0354de0" y="208.760972"/>
     <use style="stroke:#000000;" x="261.658169" xlink:href="#md1b0354de0" y="207.845439"/>
     <use style="stroke:#000000;" x="262.690064" xlink:href="#md1b0354de0" y="206.896053"/>
     <use style="stroke:#000000;" x="263.721959" xlink:href="#md1b0354de0" y="205.912091"/>
     <use style="stroke:#000000;" x="264.753854" xlink:href="#md1b0354de0" y="204.892866"/>
     <use style="stroke:#000000;" x="265.785749" xlink:href="#md1b0354de0" y="203.837733"/>
     <use style="stroke:#000000;" x="266.817645" xlink:href="#md1b0354de0" y="202.746091"/>
     <use style="stroke:#000000;" x="267.84954" xlink:href="#md1b0354de0" y="201.617391"/>
     <use style="stroke:#000000;" x="268.881435" xlink:href="#md1b0354de0" y="200.451147"/>
     <use style="stroke:#000000;" x="269.91333" xlink:href="#md1b0354de0" y="199.246935"/>
     <use style="stroke:#000000;" x="270.945225" xlink:href="#md1b0354de0" y="198.004407"/>
     <use style="stroke:#000000;" x="271.97712" xlink:href="#md1b0354de0" y="196.723295"/>
     <use style="stroke:#000000;" x="273.009015" xlink:href="#md1b0354de0" y="195.40342"/>
     <use style="stroke:#000000;" x="274.04091" xlink:href="#md1b0354de0" y="194.044697"/>
     <use style="stroke:#000000;" x="275.072806" xlink:href="#md1b0354de0" y="192.647147"/>
     <use style="stroke:#000000;" x="276.104701" xlink:href="#md1b0354de0" y="191.210901"/>
     <use style="stroke:#000000;" x="277.136596" xlink:href="#md1b0354de0" y="189.736211"/>
     <use style="stroke:#000000;" x="278.168491" xlink:href="#md1b0354de0" y="188.223455"/>
     <use style="stroke:#000000;" x="279.200386" xlink:href="#md1b0354de0" y="186.673144"/>
     <use style="stroke:#000000;" x="280.232281" xlink:href="#md1b0354de0" y="185.085934"/>
     <use style="stroke:#000000;" x="281.264176" xlink:href="#md1b0354de0" y="183.462627"/>
     <use style="stroke:#000000;" x="282.296071" xlink:href="#md1b0354de0" y="181.804179"/>
     <use style="stroke:#000000;" x="283.327967" xlink:href="#md1b0354de0" y="180.111709"/>
     <use style="stroke:#000000;" x="284.359862" xlink:href="#md1b0354de0" y="178.386499"/>
     <use style="stroke:#000000;" x="285.391757" xlink:href="#md1b0354de0" y="176.630001"/>
     <use style="stroke:#000000;" x="286.423652" xlink:href="#md1b0354de0" y="174.843839"/>
     <use style="stroke:#000000;" x="287.455547" xlink:href="#md1b0354de0" y="173.02981"/>
     <use style="stroke:#000000;" x="288.487442" xlink:href="#md1b0354de0" y="171.18989"/>
     <use style="stroke:#000000;" x="289.519337" xlink:href="#md1b0354de0" y="169.326225"/>
     <use style="stroke:#000000;" x="290.551232" xlink:href="#md1b0354de0" y="167.441138"/>
     <use style="stroke:#000000;" x="291.583127" xlink:href="#md1b0354de0" y="165.537119"/>
     <use style="stroke:#000000;" x="292.615023" xlink:href="#md1b0354de0" y="163.616823"/>
     <use style="stroke:#000000;" x="293.646918" xlink:href="#md1b0354de0" y="161.683064"/>
     <use style="stroke:#000000;" x="294.678813" xlink:href="#md1b0354de0" y="159.738804"/>
     <use style="stroke:#000000;" x="295.710708" xlink:href="#md1b0354de0" y="157.787147"/>
     <use style="stroke:#000000;" x="296.742603" xlink:href="#md1b0354de0" y="155.831322"/>
     <use style="stroke:#000000;" x="297.774498" xlink:href="#md1b0354de0" y="153.874677"/>
     <use style="stroke:#000000;" x="298.806393" xlink:href="#md1b0354de0" y="151.920656"/>
     <use style="stroke:#000000;" x="299.562904" xlink:href="#md1b0354de0" y="150.491817"/>
     <use style="stroke:#000000;" x="300.319414" xlink:href="#md1b0354de0" y="149.067697"/>
     <use style="stroke:#000000;" x="301.075925" xlink:href="#md1b0354de0" y="147.649725"/>
     <use style="stroke:#000000;" x="301.832435" xlink:href="#md1b0354de0" y="146.239339"/>
     <use style="stroke:#000000;" x="302.588946" xlink:href="#md1b0354de0" y="144.837986"/>
     <use style="stroke:#000000;" x="303.345457" xlink:href="#md1b0354de0" y="143.447111"/>
     <use style="stroke:#000000;" x="304.101967" xlink:href="#md1b0354de0" y="142.068158"/>
     <use style="stroke:#000000;" x="304.858478" xlink:href="#md1b0354de0" y="140.702563"/>
     <use style="stroke:#000000;" x="305.614988" xlink:href="#md1b0354de0" y="139.351748"/>
     <use style="stroke:#000000;" x="306.371499" xlink:href="#md1b0354de0" y="138.01712"/>
     <use style="stroke:#000000;" x="307.128009" xlink:href="#md1b0354de0" y="136.700061"/>
     <use style="stroke:#000000;" x="307.88452" xlink:href="#md1b0354de0" y="135.401927"/>
     <use style="stroke:#000000;" x="308.64103" xlink:href="#md1b0354de0" y="134.12404"/>
     <use style="stroke:#000000;" x="309.397541" xlink:href="#md1b0354de0" y="132.867688"/>
     <use style="stroke:#000000;" x="310.154051" xlink:href="#md1b0354de0" y="131.634115"/>
     <use style="stroke:#000000;" x="310.910562" xlink:href="#md1b0354de0" y="130.42452"/>
     <use style="stroke:#000000;" x="311.667072" xlink:href="#md1b0354de0" y="129.240051"/>
     <use style="stroke:#000000;" x="312.423583" xlink:href="#md1b0354de0" y="128.081802"/>
     <use style="stroke:#000000;" x="313.180094" xlink:href="#md1b0354de0" y="126.950809"/>
     <use style="stroke:#000000;" x="313.936604" xlink:href="#md1b0354de0" y="125.848047"/>
     <use style="stroke:#000000;" x="314.693115" xlink:href="#md1b0354de0" y="124.774423"/>
     <use style="stroke:#000000;" x="315.449625" xlink:href="#md1b0354de0" y="123.730779"/>
     <use style="stroke:#000000;" x="316.206136" xlink:href="#md1b0354de0" y="122.717884"/>
     <use style="stroke:#000000;" x="316.962646" xlink:href="#md1b0354de0" y="121.736435"/>
     <use style="stroke:#000000;" x="317.719157" xlink:href="#md1b0354de0" y="120.787055"/>
     <use style="stroke:#000000;" x="318.475667" xlink:href="#md1b0354de0" y="119.870288"/>
     <use style="stroke:#000000;" x="319.232178" xlink:href="#md1b0354de0" y="118.986602"/>
     <use style="stroke:#000000;" x="319.988688" xlink:href="#md1b0354de0" y="118.136386"/>
     <use style="stroke:#000000;" x="320.745199" xlink:href="#md1b0354de0" y="117.319949"/>
     <use style="stroke:#000000;" x="321.50171" xlink:href="#md1b0354de0" y="116.537522"/>
     <use style="stroke:#000000;" x="322.25822" xlink:href="#md1b0354de0" y="115.789257"/>
     <use style="stroke:#000000;" x="323.014731" xlink:href="#md1b0354de0" y="115.075229"/>
     <use style="stroke:#000000;" x="323.771241" xlink:href="#md1b0354de0" y="114.395434"/>
     <use style="stroke:#000000;" x="324.527752" xlink:href="#md1b0354de0" y="113.749794"/>
     <use style="stroke:#000000;" x="325.284262" xlink:href="#md1b0354de0" y="113.138158"/>
     <use style="stroke:#000000;" x="326.040773" xlink:href="#md1b0354de0" y="112.560301"/>
     <use style="stroke:#000000;" x="326.797283" xlink:href="#md1b0354de0" y="112.015931"/>
     <use style="stroke:#000000;" x="327.553794" xlink:href="#md1b0354de0" y="111.504688"/>
     <use style="stroke:#000000;" x="328.310304" xlink:href="#md1b0354de0" y="111.026151"/>
     <use style="stroke:#000000;" x="329.066815" xlink:href="#md1b0354de0" y="110.579834"/>
     <use style="stroke:#000000;" x="329.823325" xlink:href="#md1b0354de0" y="110.165197"/>
     <use style="stroke:#000000;" x="330.579836" xlink:href="#md1b0354de0" y="109.781647"/>
     <use style="stroke:#000000;" x="331.336347" xlink:href="#md1b0354de0" y="109.428538"/>
     <use style="stroke:#000000;" x="332.092857" xlink:href="#md1b0354de0" y="109.10518"/>
     <use style="stroke:#000000;" x="332.849368" xlink:href="#md1b0354de0" y="108.81084"/>
     <use style="stroke:#000000;" x="333.605878" xlink:href="#md1b0354de0" y="108.544746"/>
     <use style="stroke:#000000;" x="334.362389" xlink:href="#md1b0354de0" y="108.306092"/>
     <use style="stroke:#000000;" x="335.118899" xlink:href="#md1b0354de0" y="108.094041"/>
     <use style="stroke:#000000;" x="335.87541" xlink:href="#md1b0354de0" y="107.90773"/>
     <use style="stroke:#000000;" x="336.63192" xlink:href="#md1b0354de0" y="107.746273"/>
     <use style="stroke:#000000;" x="337.388431" xlink:href="#md1b0354de0" y="107.608764"/>
     <use style="stroke:#000000;" x="338.144941" xlink:href="#md1b0354de0" y="107.494283"/>
    </g>
   </g>
   <g id="line2d_15">
    <path clip-path="url(#pc41945fd75)" d="M 62.183807 229.874489 
L 134.303183 229.771527 
L 155.212156 229.553164 
L 169.151471 229.194319 
L 178.908992 228.727514 
L 185.87865 228.210386 
L 192.848307 227.462578 
L 198.424034 226.631736 
L 202.605828 225.828323 
L 206.787623 224.829324 
L 210.969417 223.588901 
L 215.151212 222.051414 
L 217.939075 220.828801 
L 220.726938 219.421628 
L 223.514801 217.804131 
L 226.302664 215.947622 
L 229.090527 213.820387 
L 231.87839 211.387651 
L 234.666253 208.611676 
L 237.454117 205.451988 
L 240.24198 201.865889 
L 243.029843 197.809152 
L 245.817706 193.237169 
L 248.243532 188.814297 
L 250.307323 184.69159 
L 252.371113 180.228366 
L 255.466798 172.868408 
L 258.562484 164.686164 
L 261.658169 155.675413 
L 264.753854 145.859876 
L 267.84954 135.301298 
L 271.97712 120.260221 
L 278.168491 96.512299 
L 283.327967 76.972135 
L 286.423652 66.038652 
L 288.487442 59.301514 
L 290.551232 53.128727 
L 292.615023 47.618889 
L 294.678813 42.859684 
L 296.742603 38.924552 
L 297.774498 37.284082 
L 299.562904 34.962973 
L 301.075925 33.562951 
L 302.588946 32.644331 
L 303.345457 32.376159 
L 304.101967 32.227917 
L 304.858478 32.201761 
L 305.614988 32.292548 
L 307.128009 32.829399 
L 308.64103 33.822495 
L 310.154051 35.220343 
L 311.667072 37.008098 
L 313.180094 39.15137 
L 314.693115 41.594101 
L 316.962646 45.77543 
L 319.988688 52.011157 
L 322.25822 57.105832 
L 323.014731 58.983337 
L 324.527752 61.945807 
L 326.797283 68.259835 
L 327.553794 69.037052 
L 328.310304 70.785063 
L 329.066815 73.193311 
L 329.823325 74.189209 
L 331.336347 78.171627 
L 332.092857 79.060079 
L 332.849368 81.239609 
L 333.605878 82.866194 
L 334.362389 84.094866 
L 335.118899 85.86177 
L 335.87541 87.241924 
L 336.63192 88.255339 
L 338.144941 91.61859 
L 338.144941 91.61859 
" style="fill:none;stroke:#0000ff;stroke-dasharray:5.55,2.4;stroke-dashoffset:0;stroke-width:1.5;"/>
   </g>
   <g id="line2d_16">
    <path clip-path="url(#pc41945fd75)" d="M 62.183807 229.874489 
L 159.393951 229.768458 
L 188.666513 229.531483 
L 206.787623 229.170331 
L 219.333007 228.716824 
L 229.090527 228.169431 
L 237.454117 227.49578 
L 244.423774 226.730858 
L 251.339218 225.722258 
L 256.498693 224.754698 
L 261.658169 223.550191 
L 265.785749 222.373939 
L 269.91333 220.965105 
L 274.04091 219.274042 
L 277.136596 217.784834 
L 280.232281 216.073781 
L 283.327967 214.107551 
L 286.423652 211.849189 
L 289.519337 209.258609 
L 292.615023 206.293709 
L 295.710708 202.912164 
L 298.806393 199.074059 
L 301.075925 195.950219 
L 304.101967 191.359097 
L 307.128009 186.271027 
L 310.154051 180.695073 
L 313.180094 174.662942 
L 316.962646 166.57491 
L 322.25822 154.576251 
L 323.771241 151.149725 
L 324.527752 149.529726 
L 326.797283 143.801296 
L 327.553794 142.612832 
L 328.310304 140.919626 
L 329.066815 138.851128 
L 329.823325 137.61311 
L 331.336347 133.992003 
L 332.092857 132.896825 
L 332.849368 130.983583 
L 333.605878 129.440577 
L 334.362389 128.188691 
L 335.118899 126.57588 
L 335.87541 125.257892 
L 336.63192 124.224515 
L 338.144941 121.213924 
L 338.144941 121.213924 
" style="fill:none;stroke:#0000ff;stroke-dasharray:5.55,2.4;stroke-dashoffset:0;stroke-width:1.5;"/>
   </g>
   <g id="line2d_17"/>
   <g id="line2d_18"/>
   <g id="line2d_19"/>
   <g id="line2d_20"/>
   <g id="line2d_21"/>
   <g id="patch_3">
    <path d="M 46.965625 239.758125 
L 46.965625 22.318125 
" style="fill:none;stroke:#000000;stroke-linecap:square;stroke-linejoin:miter;stroke-width:0.8;"/>
   </g>
   <g id="patch_4">
    <path d="M 381.765625 239.758125 
L 381.765625 22.318125 
" style="fill:none;stroke:#000000;stroke-linecap:square;stroke-linejoin:miter;stroke-width:0.8;"/>
   </g>
   <g id="patch_5">
    <path d="M 46.965625 239.758125 
L 381.765625 239.758125 
" style="fill:none;stroke:#000000;stroke-linecap:square;stroke-linejoin:miter;stroke-width:0.8;"/>
   </g>
   <g id="patch_6">
    <path d="M 46.965625 22.318125 
L 381.765625 22.318125 
" style="fill:none;stroke:#000000;stroke-linecap:square;stroke-linejoin:miter;stroke-width:0.8;"/>
   </g>
   <g id="text_14">
    <!-- Experiment_1 -->
    <defs>
     <path d="M 9.8125 72.90625 
L 55.90625 72.90625 
L 55.90625 64.59375 
L 19.671875 64.59375 
L 19.671875 43.015625 
L 54.390625 43.015625 
L 54.390625 34.71875 
L 19.671875 34.71875 
L 19.671875 8.296875 
L 56.78125 8.296875 
L 56.78125 0 
L 9.8125 0 
z
" id="DejaVuSans-69"/>
     <path d="M 54.890625 54.6875 
L 35.109375 28.078125 
L 55.90625 0 
L 45.3125 0 
L 29.390625 21.484375 
L 13.484375 0 
L 2.875 0 
L 24.125 28.609375 
L 4.6875 54.6875 
L 15.28125 54.6875 
L 29.78125 35.203125 
L 44.28125 54.6875 
z
" id="DejaVuSans-120"/>
     <path d="M 41.109375 46.296875 
Q 39.59375 47.171875 37.8125 47.578125 
Q 36.03125 48 33.890625 48 
Q 26.265625 48 22.1875 43.046875 
Q 18.109375 38.09375 18.109375 28.8125 
L 18.109375 0 
L 9.078125 0 
L 9.078125 54.6875 
L 18.109375 54.6875 
L 18.109375 46.1875 
Q 20.953125 51.171875 25.484375 53.578125 
Q 30.03125 56 36.53125 56 
Q 37.453125 56 38.578125 55.875 
Q 39.703125 55.765625 41.0625 55.515625 
z
" id="DejaVuSans-114"/>
     <path d="M 54.890625 33.015625 
L 54.890625 0 
L 45.90625 0 
L 45.90625 32.71875 
Q 45.90625 40.484375 42.875 44.328125 
Q 39.84375 48.1875 33.796875 48.1875 
Q 26.515625 48.1875 22.3125 43.546875 
Q 18.109375 38.921875 18.109375 30.90625 
L 18.109375 0 
L 9.078125 0 
L 9.078125 54.6875 
L 18.109375 54.6875 
L 18.109375 46.1875 
Q 21.34375 51.125 25.703125 53.5625 
Q 30.078125 56 35.796875 56 
Q 45.21875 56 50.046875 50.171875 
Q 54.890625 44.34375 54.890625 33.015625 
z
" id="DejaVuSans-110"/>
     <path d="M 18.3125 70.21875 
L 18.3125 54.6875 
L 36.8125 54.6875 
L 36.8125 47.703125 
L 18.3125 47.703125 
L 18.3125 18.015625 
Q 18.3125 11.328125 20.140625 9.421875 
Q 21.96875 7.515625 27.59375 7.515625 
L 36.8125 7.515625 
L 36.8125 0 
L 27.59375 0 
Q 17.1875 0 13.234375 3.875 
Q 9.28125 7.765625 9.28125 18.015625 
L 9.28125 47.703125 
L 2.6875 47.703125 
L 2.6875 54.6875 
L 9.28125 54.6875 
L 9.28125 70.21875 
z
" id="DejaVuSans-116"/>
     <path d="M 50.984375 -16.609375 
L 50.984375 -23.578125 
L -0.984375 -23.578125 
L -0.984375 -16.609375 
z
" id="DejaVuSans-95"/>
    </defs>
    <g transform="translate(172.880313 16.318125)scale(0.12 -0.12)">
     <use xlink:href="#DejaVuSans-69"/>
     <use x="63.183594" xlink:href="#DejaVuSans-120"/>
     <use x="122.363281" xlink:href="#DejaVuSans-112"/>
     <use x="185.839844" xlink:href="#DejaVuSans-101"/>
     <use x="247.363281" xlink:href="#DejaVuSans-114"/>
     <use x="288.476562" xlink:href="#DejaVuSans-105"/>
     <use x="316.259766" xlink:href="#DejaVuSans-109"/>
     <use x="413.671875" xlink:href="#DejaVuSans-101"/>
     <use x="475.195312" xlink:href="#DejaVuSans-110"/>
     <use x="538.574219" xlink:href="#DejaVuSans-116"/>
     <use x="577.783203" xlink:href="#DejaVuSans-95"/>
     <use x="627.783203" xlink:href="#DejaVuSans-49"/>
    </g>
   </g>
   <g id="legend_1">
    <g id="patch_7">
     <path d="M 72.1875 89.0525 
L 374.765625 89.0525 
Q 376.765625 89.0525 376.765625 87.0525 
L 376.765625 29.318125 
Q 376.765625 27.318125 374.765625 27.318125 
L 72.1875 27.318125 
Q 70.1875 27.318125 70.1875 29.318125 
L 70.1875 87.0525 
Q 70.1875 89.0525 72.1875 89.0525 
z
" style="fill:#ffffff;opacity:0.8;stroke:#cccccc;stroke-linejoin:miter;"/>
    </g>
    <g id="line2d_22">
     <path d="M 74.1875 35.416562 
L 94.1875 35.416562 
" style="fill:none;stroke:#0000ff;stroke-linecap:square;stroke-width:1.5;"/>
    </g>
    <g id="line2d_23"/>
    <g id="text_15">
     <!-- MSI -->
     <defs>
      <path d="M 9.8125 72.90625 
L 24.515625 72.90625 
L 43.109375 23.296875 
L 61.8125 72.90625 
L 76.515625 72.90625 
L 76.515625 0 
L 66.890625 0 
L 66.890625 64.015625 
L 48.09375 14.015625 
L 38.1875 14.015625 
L 19.390625 64.015625 
L 19.390625 0 
L 9.8125 0 
z
" id="DejaVuSans-77"/>
      <path d="M 53.515625 70.515625 
L 53.515625 60.890625 
Q 47.90625 63.578125 42.921875 64.890625 
Q 37.9375 66.21875 33.296875 66.21875 
Q 25.25 66.21875 20.875 63.09375 
Q 16.5 59.96875 16.5 54.203125 
Q 16.5 49.359375 19.40625 46.890625 
Q 22.3125 44.4375 30.421875 42.921875 
L 36.375 41.703125 
Q 47.40625 39.59375 52.65625 34.296875 
Q 57.90625 29 57.90625 20.125 
Q 57.90625 9.515625 50.796875 4.046875 
Q 43.703125 -1.421875 29.984375 -1.421875 
Q 24.8125 -1.421875 18.96875 -0.25 
Q 13.140625 0.921875 6.890625 3.21875 
L 6.890625 13.375 
Q 12.890625 10.015625 18.65625 8.296875 
Q 24.421875 6.59375 29.984375 6.59375 
Q 38.421875 6.59375 43.015625 9.90625 
Q 47.609375 13.234375 47.609375 19.390625 
Q 47.609375 24.75 44.3125 27.78125 
Q 41.015625 30.8125 33.5 32.328125 
L 27.484375 33.5 
Q 16.453125 35.6875 11.515625 40.375 
Q 6.59375 45.0625 6.59375 53.421875 
Q 6.59375 63.09375 13.40625 68.65625 
Q 20.21875 74.21875 32.171875 74.21875 
Q 37.3125 74.21875 42.625 73.28125 
Q 47.953125 72.359375 53.515625 70.515625 
z
" id="DejaVuSans-83"/>
      <path d="M 9.8125 72.90625 
L 19.671875 72.90625 
L 19.671875 0 
L 9.8125 0 
z
" id="DejaVuSans-73"/>
     </defs>
     <g transform="translate(102.1875 38.916562)scale(0.1 -0.1)">
      <use xlink:href="#DejaVuSans-77"/>
      <use x="86.279297" xlink:href="#DejaVuSans-83"/>
      <use x="149.755859" xlink:href="#DejaVuSans-73"/>
     </g>
    </g>
    <g id="line2d_24">
     <path d="M 74.1875 50.09625 
L 94.1875 50.09625 
" style="fill:none;stroke:#ff0000;stroke-linecap:square;stroke-width:1.5;"/>
    </g>
    <g id="line2d_25"/>
    <g id="text_16">
     <!-- $\it{A priori}$ model -->
     <defs>
      <path d="M 36.8125 72.90625 
L 48 72.90625 
L 61.53125 0 
L 51.21875 0 
L 48.1875 18.703125 
L 15.375 18.703125 
L 5.078125 0 
L -5.328125 0 
z
M 40.375 63.1875 
L 19.921875 26.90625 
L 46.6875 26.90625 
z
" id="DejaVuSans-Oblique-65"/>
      <path d="M 49.609375 33.6875 
Q 49.609375 40.875 46.484375 44.671875 
Q 43.359375 48.484375 37.5 48.484375 
Q 33.5 48.484375 29.859375 46.4375 
Q 26.21875 44.390625 23.390625 40.484375 
Q 20.609375 36.625 18.9375 31.15625 
Q 17.28125 25.6875 17.28125 20.3125 
Q 17.28125 13.484375 20.40625 9.796875 
Q 23.53125 6.109375 29.296875 6.109375 
Q 33.546875 6.109375 37.1875 8.109375 
Q 40.828125 10.109375 43.40625 13.921875 
Q 46.1875 17.921875 47.890625 23.34375 
Q 49.609375 28.765625 49.609375 33.6875 
z
M 21.78125 46.390625 
Q 25.390625 51.125 30.296875 53.5625 
Q 35.203125 56 41.21875 56 
Q 49.609375 56 54.25 50.5 
Q 58.890625 45.015625 58.890625 35.109375 
Q 58.890625 27 56 19.65625 
Q 53.125 12.3125 47.703125 6.5 
Q 44.09375 2.640625 39.546875 0.609375 
Q 35.015625 -1.421875 29.984375 -1.421875 
Q 24.171875 -1.421875 20.21875 1 
Q 16.265625 3.421875 14.3125 8.203125 
L 8.6875 -20.796875 
L -0.296875 -20.796875 
L 14.40625 54.6875 
L 23.390625 54.6875 
z
" id="DejaVuSans-Oblique-112"/>
      <path d="M 44.578125 46.390625 
Q 43.21875 47.125 41.453125 47.515625 
Q 39.703125 47.90625 37.703125 47.90625 
Q 30.515625 47.90625 25.140625 42.453125 
Q 19.78125 37.015625 18.015625 27.875 
L 12.5 0 
L 3.515625 0 
L 14.203125 54.6875 
L 23.1875 54.6875 
L 21.484375 46.1875 
Q 25.046875 50.921875 30 53.453125 
Q 34.96875 56 40.578125 56 
Q 42.046875 56 43.453125 55.828125 
Q 44.875 55.671875 46.296875 55.28125 
z
" id="DejaVuSans-Oblique-114"/>
      <path d="M 18.3125 75.984375 
L 27.296875 75.984375 
L 25.09375 64.59375 
L 16.109375 64.59375 
z
M 14.203125 54.6875 
L 23.1875 54.6875 
L 12.5 0 
L 3.515625 0 
z
" id="DejaVuSans-Oblique-105"/>
      <path d="M 25.390625 -1.421875 
Q 15.765625 -1.421875 10.171875 4.515625 
Q 4.59375 10.453125 4.59375 20.703125 
Q 4.59375 26.65625 6.515625 32.828125 
Q 8.453125 39.015625 11.53125 43.21875 
Q 16.359375 49.75 22.3125 52.875 
Q 28.265625 56 35.796875 56 
Q 45.125 56 50.859375 50.1875 
Q 56.59375 44.390625 56.59375 35.015625 
Q 56.59375 28.515625 54.6875 22.0625 
Q 52.78125 15.625 49.703125 11.375 
Q 44.921875 4.828125 38.96875 1.703125 
Q 33.015625 -1.421875 25.390625 -1.421875 
z
M 13.921875 21 
Q 13.921875 13.578125 17.015625 9.890625 
Q 20.125 6.203125 26.421875 6.203125 
Q 35.453125 6.203125 41.375 14.078125 
Q 47.3125 21.96875 47.3125 34.078125 
Q 47.3125 41.15625 44.140625 44.765625 
Q 40.96875 48.390625 34.8125 48.390625 
Q 29.734375 48.390625 25.78125 46.015625 
Q 21.828125 43.65625 18.703125 38.8125 
Q 16.40625 35.203125 15.15625 30.5625 
Q 13.921875 25.921875 13.921875 21 
z
" id="DejaVuSans-Oblique-111"/>
      <path d="M 30.609375 48.390625 
Q 23.390625 48.390625 19.1875 42.75 
Q 14.984375 37.109375 14.984375 27.296875 
Q 14.984375 17.484375 19.15625 11.84375 
Q 23.34375 6.203125 30.609375 6.203125 
Q 37.796875 6.203125 41.984375 11.859375 
Q 46.1875 17.53125 46.1875 27.296875 
Q 46.1875 37.015625 41.984375 42.703125 
Q 37.796875 48.390625 30.609375 48.390625 
z
M 30.609375 56 
Q 42.328125 56 49.015625 48.375 
Q 55.71875 40.765625 55.71875 27.296875 
Q 55.71875 13.875 49.015625 6.21875 
Q 42.328125 -1.421875 30.609375 -1.421875 
Q 18.84375 -1.421875 12.171875 6.21875 
Q 5.515625 13.875 5.515625 27.296875 
Q 5.515625 40.765625 12.171875 48.375 
Q 18.84375 56 30.609375 56 
z
" id="DejaVuSans-111"/>
      <path d="M 45.40625 46.390625 
L 45.40625 75.984375 
L 54.390625 75.984375 
L 54.390625 0 
L 45.40625 0 
L 45.40625 8.203125 
Q 42.578125 3.328125 38.25 0.953125 
Q 33.9375 -1.421875 27.875 -1.421875 
Q 17.96875 -1.421875 11.734375 6.484375 
Q 5.515625 14.40625 5.515625 27.296875 
Q 5.515625 40.1875 11.734375 48.09375 
Q 17.96875 56 27.875 56 
Q 33.9375 56 38.25 53.625 
Q 42.578125 51.265625 45.40625 46.390625 
z
M 14.796875 27.296875 
Q 14.796875 17.390625 18.875 11.75 
Q 22.953125 6.109375 30.078125 6.109375 
Q 37.203125 6.109375 41.296875 11.75 
Q 45.40625 17.390625 45.40625 27.296875 
Q 45.40625 37.203125 41.296875 42.84375 
Q 37.203125 48.484375 30.078125 48.484375 
Q 22.953125 48.484375 18.875 42.84375 
Q 14.796875 37.203125 14.796875 27.296875 
z
" id="DejaVuSans-100"/>
      <path d="M 9.421875 75.984375 
L 18.40625 75.984375 
L 18.40625 0 
L 9.421875 0 
z
" id="DejaVuSans-108"/>
     </defs>
     <g transform="translate(102.1875 53.59625)scale(0.1 -0.1)">
      <use transform="translate(0 0.015625)" xlink:href="#DejaVuSans-Oblique-65"/>
      <use transform="translate(68.408203 0.015625)" xlink:href="#DejaVuSans-Oblique-112"/>
      <use transform="translate(131.884766 0.015625)" xlink:href="#DejaVuSans-Oblique-114"/>
      <use transform="translate(172.998047 0.015625)" xlink:href="#DejaVuSans-Oblique-105"/>
      <use transform="translate(200.78125 0.015625)" xlink:href="#DejaVuSans-Oblique-111"/>
      <use transform="translate(261.962891 0.015625)" xlink:href="#DejaVuSans-Oblique-114"/>
      <use transform="translate(303.076172 0.015625)" xlink:href="#DejaVuSans-Oblique-105"/>
      <use transform="translate(330.859375 0.015625)" xlink:href="#DejaVuSans-32"/>
      <use transform="translate(362.646484 0.015625)" xlink:href="#DejaVuSans-109"/>
      <use transform="translate(460.058594 0.015625)" xlink:href="#DejaVuSans-111"/>
      <use transform="translate(521.240234 0.015625)" xlink:href="#DejaVuSans-100"/>
      <use transform="translate(584.716797 0.015625)" xlink:href="#DejaVuSans-101"/>
      <use transform="translate(646.240234 0.015625)" xlink:href="#DejaVuSans-108"/>
     </g>
    </g>
    <g id="line2d_26"/>
    <g id="line2d_27">
     <g>
      <use style="stroke:#000000;" x="84.1875" xlink:href="#md1b0354de0" y="64.794687"/>
     </g>
    </g>
    <g id="text_17">
     <!-- Experimental Data -->
     <defs>
      <path d="M 34.28125 27.484375 
Q 23.390625 27.484375 19.1875 25 
Q 14.984375 22.515625 14.984375 16.5 
Q 14.984375 11.71875 18.140625 8.90625 
Q 21.296875 6.109375 26.703125 6.109375 
Q 34.1875 6.109375 38.703125 11.40625 
Q 43.21875 16.703125 43.21875 25.484375 
L 43.21875 27.484375 
z
M 52.203125 31.203125 
L 52.203125 0 
L 43.21875 0 
L 43.21875 8.296875 
Q 40.140625 3.328125 35.546875 0.953125 
Q 30.953125 -1.421875 24.3125 -1.421875 
Q 15.921875 -1.421875 10.953125 3.296875 
Q 6 8.015625 6 15.921875 
Q 6 25.140625 12.171875 29.828125 
Q 18.359375 34.515625 30.609375 34.515625 
L 43.21875 34.515625 
L 43.21875 35.40625 
Q 43.21875 41.609375 39.140625 45 
Q 35.0625 48.390625 27.6875 48.390625 
Q 23 48.390625 18.546875 47.265625 
Q 14.109375 46.140625 10.015625 43.890625 
L 10.015625 52.203125 
Q 14.9375 54.109375 19.578125 55.046875 
Q 24.21875 56 28.609375 56 
Q 40.484375 56 46.34375 49.84375 
Q 52.203125 43.703125 52.203125 31.203125 
z
" id="DejaVuSans-97"/>
      <path d="M 19.671875 64.796875 
L 19.671875 8.109375 
L 31.59375 8.109375 
Q 46.6875 8.109375 53.6875 14.9375 
Q 60.6875 21.78125 60.6875 36.53125 
Q 60.6875 51.171875 53.6875 57.984375 
Q 46.6875 64.796875 31.59375 64.796875 
z
M 9.8125 72.90625 
L 30.078125 72.90625 
Q 51.265625 72.90625 61.171875 64.09375 
Q 71.09375 55.28125 71.09375 36.53125 
Q 71.09375 17.671875 61.125 8.828125 
Q 51.171875 0 30.078125 0 
L 9.8125 0 
z
" id="DejaVuSans-68"/>
     </defs>
     <g transform="translate(102.1875 68.294687)scale(0.1 -0.1)">
      <use xlink:href="#DejaVuSans-69"/>
      <use x="63.183594" xlink:href="#DejaVuSans-120"/>
      <use x="122.363281" xlink:href="#DejaVuSans-112"/>
      <use x="185.839844" xlink:href="#DejaVuSans-101"/>
      <use x="247.363281" xlink:href="#DejaVuSans-114"/>
      <use x="288.476562" xlink:href="#DejaVuSans-105"/>
      <use x="316.259766" xlink:href="#DejaVuSans-109"/>
      <use x="413.671875" xlink:href="#DejaVuSans-101"/>
      <use x="475.195312" xlink:href="#DejaVuSans-110"/>
      <use x="538.574219" xlink:href="#DejaVuSans-116"/>
      <use x="577.783203" xlink:href="#DejaVuSans-97"/>
      <use x="639.0625" xlink:href="#DejaVuSans-108"/>
      <use x="666.845703" xlink:href="#DejaVuSans-32"/>
      <use x="698.632812" xlink:href="#DejaVuSans-68"/>
      <use x="775.634766" xlink:href="#DejaVuSans-97"/>
      <use x="836.914062" xlink:href="#DejaVuSans-116"/>
      <use x="876.123047" xlink:href="#DejaVuSans-97"/>
     </g>
    </g>
    <g id="line2d_28">
     <path d="M 74.1875 79.472812 
L 94.1875 79.472812 
" style="fill:none;stroke:#ffffff;stroke-linecap:square;stroke-width:1.5;"/>
    </g>
    <g id="line2d_29"/>
    <g id="text_18">
     <!-- T:1710 -->
     <defs>
      <path d="M 11.71875 12.40625 
L 22.015625 12.40625 
L 22.015625 0 
L 11.71875 0 
z
M 11.71875 51.703125 
L 22.015625 51.703125 
L 22.015625 39.3125 
L 11.71875 39.3125 
z
" id="DejaVuSans-58"/>
      <path d="M 8.203125 72.90625 
L 55.078125 72.90625 
L 55.078125 68.703125 
L 28.609375 0 
L 18.3125 0 
L 43.21875 64.59375 
L 8.203125 64.59375 
z
" id="DejaVuSans-55"/>
     </defs>
     <g transform="translate(102.1875 82.972812)scale(0.1 -0.1)">
      <use xlink:href="#DejaVuSans-84"/>
      <use x="60.912109" xlink:href="#DejaVuSans-58"/>
      <use x="94.603516" xlink:href="#DejaVuSans-49"/>
      <use x="158.226562" xlink:href="#DejaVuSans-55"/>
      <use x="221.849609" xlink:href="#DejaVuSans-49"/>
      <use x="285.472656" xlink:href="#DejaVuSans-48"/>
     </g>
    </g>
    <g id="line2d_30">
     <path d="M 215.928125 35.416562 
L 235.928125 35.416562 
" style="fill:none;stroke:#ffffff;stroke-linecap:square;stroke-width:1.5;"/>
    </g>
    <g id="line2d_31"/>
    <g id="text_19">
     <!-- P:0.461 -->
     <defs>
      <path d="M 19.671875 64.796875 
L 19.671875 37.40625 
L 32.078125 37.40625 
Q 38.96875 37.40625 42.71875 40.96875 
Q 46.484375 44.53125 46.484375 51.125 
Q 46.484375 57.671875 42.71875 61.234375 
Q 38.96875 64.796875 32.078125 64.796875 
z
M 9.8125 72.90625 
L 32.078125 72.90625 
Q 44.34375 72.90625 50.609375 67.359375 
Q 56.890625 61.8125 56.890625 51.125 
Q 56.890625 40.328125 50.609375 34.8125 
Q 44.34375 29.296875 32.078125 29.296875 
L 19.671875 29.296875 
L 19.671875 0 
L 9.8125 0 
z
" id="DejaVuSans-80"/>
     </defs>
     <g transform="translate(243.928125 38.916562)scale(0.1 -0.1)">
      <use xlink:href="#DejaVuSans-80"/>
      <use x="60.302734" xlink:href="#DejaVuSans-58"/>
      <use x="93.994141" xlink:href="#DejaVuSans-48"/>
      <use x="157.617188" xlink:href="#DejaVuSans-46"/>
      <use x="189.404297" xlink:href="#DejaVuSans-52"/>
      <use x="253.027344" xlink:href="#DejaVuSans-54"/>
      <use x="316.650391" xlink:href="#DejaVuSans-49"/>
     </g>
    </g>
    <g id="line2d_32">
     <path d="M 215.928125 50.094687 
L 235.928125 50.094687 
" style="fill:none;stroke:#ffffff;stroke-linecap:square;stroke-width:1.5;"/>
    </g>
    <g id="line2d_33"/>
    <g id="text_20">
     <!-- O2: 0.00212 -->
     <g transform="translate(243.928125 53.594687)scale(0.1 -0.1)">
      <use xlink:href="#DejaVuSans-79"/>
      <use x="78.710938" xlink:href="#DejaVuSans-50"/>
      <use x="142.333984" xlink:href="#DejaVuSans-58"/>
      <use x="176.025391" xlink:href="#DejaVuSans-32"/>
      <use x="207.8125" xlink:href="#DejaVuSans-48"/>
      <use x="271.435547" xlink:href="#DejaVuSans-46"/>
      <use x="303.222656" xlink:href="#DejaVuSans-48"/>
      <use x="366.845703" xlink:href="#DejaVuSans-48"/>
      <use x="430.46875" xlink:href="#DejaVuSans-50"/>
      <use x="494.091797" xlink:href="#DejaVuSans-49"/>
      <use x="557.714844" xlink:href="#DejaVuSans-50"/>
     </g>
    </g>
    <g id="line2d_34">
     <path d="M 215.928125 64.772812 
L 235.928125 64.772812 
" style="fill:none;stroke:#ffffff;stroke-linecap:square;stroke-width:1.5;"/>
    </g>
    <g id="line2d_35"/>
    <g id="text_21">
     <!-- H2: 0.0214 -->
     <g transform="translate(243.928125 68.272812)scale(0.1 -0.1)">
      <use xlink:href="#DejaVuSans-72"/>
      <use x="75.195312" xlink:href="#DejaVuSans-50"/>
      <use x="138.818359" xlink:href="#DejaVuSans-58"/>
      <use x="172.509766" xlink:href="#DejaVuSans-32"/>
      <use x="204.296875" xlink:href="#DejaVuSans-48"/>
      <use x="267.919922" xlink:href="#DejaVuSans-46"/>
      <use x="299.707031" xlink:href="#DejaVuSans-48"/>
      <use x="363.330078" xlink:href="#DejaVuSans-50"/>
      <use x="426.953125" xlink:href="#DejaVuSans-49"/>
      <use x="490.576172" xlink:href="#DejaVuSans-52"/>
     </g>
    </g>
    <g id="line2d_36">
     <path d="M 215.928125 79.450937 
L 235.928125 79.450937 
" style="fill:none;stroke:#ffffff;stroke-linecap:square;stroke-width:1.5;"/>
    </g>
    <g id="line2d_37"/>
    <g id="text_22">
     <!-- Ar: 0.9764799999999999 -->
     <defs>
      <path d="M 34.1875 63.1875 
L 20.796875 26.90625 
L 47.609375 26.90625 
z
M 28.609375 72.90625 
L 39.796875 72.90625 
L 67.578125 0 
L 57.328125 0 
L 50.6875 18.703125 
L 17.828125 18.703125 
L 11.1875 0 
L 0.78125 0 
z
" id="DejaVuSans-65"/>
      <path d="M 10.984375 1.515625 
L 10.984375 10.5 
Q 14.703125 8.734375 18.5 7.8125 
Q 22.3125 6.890625 25.984375 6.890625 
Q 35.75 6.890625 40.890625 13.453125 
Q 46.046875 20.015625 46.78125 33.40625 
Q 43.953125 29.203125 39.59375 26.953125 
Q 35.25 24.703125 29.984375 24.703125 
Q 19.046875 24.703125 12.671875 31.3125 
Q 6.296875 37.9375 6.296875 49.421875 
Q 6.296875 60.640625 12.9375 67.421875 
Q 19.578125 74.21875 30.609375 74.21875 
Q 43.265625 74.21875 49.921875 64.515625 
Q 56.59375 54.828125 56.59375 36.375 
Q 56.59375 19.140625 48.40625 8.859375 
Q 40.234375 -1.421875 26.421875 -1.421875 
Q 22.703125 -1.421875 18.890625 -0.6875 
Q 15.09375 0.046875 10.984375 1.515625 
z
M 30.609375 32.421875 
Q 37.25 32.421875 41.125 36.953125 
Q 45.015625 41.5 45.015625 49.421875 
Q 45.015625 57.28125 41.125 61.84375 
Q 37.25 66.40625 30.609375 66.40625 
Q 23.96875 66.40625 20.09375 61.84375 
Q 16.21875 57.28125 16.21875 49.421875 
Q 16.21875 41.5 20.09375 36.953125 
Q 23.96875 32.421875 30.609375 32.421875 
z
" id="DejaVuSans-57"/>
     </defs>
     <g transform="translate(243.928125 82.950937)scale(0.1 -0.1)">
      <use xlink:href="#DejaVuSans-65"/>
      <use x="68.408203" xlink:href="#DejaVuSans-114"/>
      <use x="109.505859" xlink:href="#DejaVuSans-58"/>
      <use x="143.197266" xlink:href="#DejaVuSans-32"/>
      <use x="174.984375" xlink:href="#DejaVuSans-48"/>
      <use x="238.607422" xlink:href="#DejaVuSans-46"/>
      <use x="270.394531" xlink:href="#DejaVuSans-57"/>
      <use x="334.017578" xlink:href="#DejaVuSans-55"/>
      <use x="397.640625" xlink:href="#DejaVuSans-54"/>
      <use x="461.263672" xlink:href="#DejaVuSans-52"/>
      <use x="524.886719" xlink:href="#DejaVuSans-55"/>
      <use x="588.509766" xlink:href="#DejaVuSans-57"/>
      <use x="652.132812" xlink:href="#DejaVuSans-57"/>
      <use x="715.755859" xlink:href="#DejaVuSans-57"/>
      <use x="779.378906" xlink:href="#DejaVuSans-57"/>
      <use x="843.001953" xlink:href="#DejaVuSans-57"/>
      <use x="906.625" xlink:href="#DejaVuSans-57"/>
      <use x="970.248047" xlink:href="#DejaVuSans-57"/>
      <use x="1033.871094" xlink:href="#DejaVuSans-57"/>
      <use x="1097.494141" xlink:href="#DejaVuSans-57"/>
      <use x="1161.117188" xlink:href="#DejaVuSans-57"/>
      <use x="1224.740234" xlink:href="#DejaVuSans-57"/>
     </g>
    </g>
   </g>
  </g>
 </g>
 <defs>
  <clipPath id="pc41945fd75">
   <rect height="217.44" width="334.8" x="46.965625" y="22.318125"/>
  </clipPath>
 </defs>
</svg>
