<?xml version="1.0" encoding="utf-8" standalone="no"?>
<!DOCTYPE svg PUBLIC "-//W3C//DTD SVG 1.1//EN"
  "http://www.w3.org/Graphics/SVG/1.1/DTD/svg11.dtd">
<!-- Created with matplotlib (https://matplotlib.org/) -->
<svg height="277.314375pt" version="1.1" viewBox="0 0 392.465625 277.314375" width="392.465625pt" xmlns="http://www.w3.org/2000/svg" xmlns:xlink="http://www.w3.org/1999/xlink">
 <defs>
  <style type="text/css">
*{stroke-linecap:butt;stroke-linejoin:round;}
  </style>
 </defs>
 <g id="figure_1">
  <g id="patch_1">
   <path d="M 0 277.314375 
L 392.465625 277.314375 
L 392.465625 0 
L 0 0 
z
" style="fill:none;"/>
  </g>
  <g id="axes_1">
   <g id="patch_2">
    <path d="M 46.965625 239.758125 
L 381.765625 239.758125 
L 381.765625 22.318125 
L 46.965625 22.318125 
z
" style="fill:none;"/>
   </g>
   <g id="matplotlib.axis_1">
    <g id="xtick_1">
     <g id="line2d_1">
      <defs>
       <path d="M 0 0 
L 0 3.5 
" id="mddbd889c50" style="stroke:#000000;stroke-width:0.8;"/>
      </defs>
      <g>
       <use style="stroke:#000000;stroke-width:0.8;" x="62.183807" xlink:href="#mddbd889c50" y="239.758125"/>
      </g>
     </g>
     <g id="text_1">
      <!-- 0.00 -->
      <defs>
       <path d="M 31.78125 66.40625 
Q 24.171875 66.40625 20.328125 58.90625 
Q 16.5 51.421875 16.5 36.375 
Q 16.5 21.390625 20.328125 13.890625 
Q 24.171875 6.390625 31.78125 6.390625 
Q 39.453125 6.390625 43.28125 13.890625 
Q 47.125 21.390625 47.125 36.375 
Q 47.125 51.421875 43.28125 58.90625 
Q 39.453125 66.40625 31.78125 66.40625 
z
M 31.78125 74.21875 
Q 44.046875 74.21875 50.515625 64.515625 
Q 56.984375 54.828125 56.984375 36.375 
Q 56.984375 17.96875 50.515625 8.265625 
Q 44.046875 -1.421875 31.78125 -1.421875 
Q 19.53125 -1.421875 13.0625 8.265625 
Q 6.59375 17.96875 6.59375 36.375 
Q 6.59375 54.828125 13.0625 64.515625 
Q 19.53125 74.21875 31.78125 74.21875 
z
" id="DejaVuSans-48"/>
       <path d="M 10.6875 12.40625 
L 21 12.40625 
L 21 0 
L 10.6875 0 
z
" id="DejaVuSans-46"/>
      </defs>
      <g transform="translate(51.050994 254.356562)scale(0.1 -0.1)">
       <use xlink:href="#DejaVuSans-48"/>
       <use x="63.623047" xlink:href="#DejaVuSans-46"/>
       <use x="95.410156" xlink:href="#DejaVuSans-48"/>
       <use x="159.033203" xlink:href="#DejaVuSans-48"/>
      </g>
     </g>
    </g>
    <g id="xtick_2">
     <g id="line2d_2">
      <g>
       <use style="stroke:#000000;stroke-width:0.8;" x="112.848717" xlink:href="#mddbd889c50" y="239.758125"/>
      </g>
     </g>
     <g id="text_2">
      <!-- 0.05 -->
      <defs>
       <path d="M 10.796875 72.90625 
L 49.515625 72.90625 
L 49.515625 64.59375 
L 19.828125 64.59375 
L 19.828125 46.734375 
Q 21.96875 47.46875 24.109375 47.828125 
Q 26.265625 48.1875 28.421875 48.1875 
Q 40.625 48.1875 47.75 41.5 
Q 54.890625 34.8125 54.890625 23.390625 
Q 54.890625 11.625 47.5625 5.09375 
Q 40.234375 -1.421875 26.90625 -1.421875 
Q 22.3125 -1.421875 17.546875 -0.640625 
Q 12.796875 0.140625 7.71875 1.703125 
L 7.71875 11.625 
Q 12.109375 9.234375 16.796875 8.0625 
Q 21.484375 6.890625 26.703125 6.890625 
Q 35.15625 6.890625 40.078125 11.328125 
Q 45.015625 15.765625 45.015625 23.390625 
Q 45.015625 31 40.078125 35.4375 
Q 35.15625 39.890625 26.703125 39.890625 
Q 22.75 39.890625 18.8125 39.015625 
Q 14.890625 38.140625 10.796875 36.28125 
z
" id="DejaVuSans-53"/>
      </defs>
      <g transform="translate(101.715904 254.356562)scale(0.1 -0.1)">
       <use xlink:href="#DejaVuSans-48"/>
       <use x="63.623047" xlink:href="#DejaVuSans-46"/>
       <use x="95.410156" xlink:href="#DejaVuSans-48"/>
       <use x="159.033203" xlink:href="#DejaVuSans-53"/>
      </g>
     </g>
    </g>
    <g id="xtick_3">
     <g id="line2d_3">
      <g>
       <use style="stroke:#000000;stroke-width:0.8;" x="163.513627" xlink:href="#mddbd889c50" y="239.758125"/>
      </g>
     </g>
     <g id="text_3">
      <!-- 0.10 -->
      <defs>
       <path d="M 12.40625 8.296875 
L 28.515625 8.296875 
L 28.515625 63.921875 
L 10.984375 60.40625 
L 10.984375 69.390625 
L 28.421875 72.90625 
L 38.28125 72.90625 
L 38.28125 8.296875 
L 54.390625 8.296875 
L 54.390625 0 
L 12.40625 0 
z
" id="DejaVuSans-49"/>
      </defs>
      <g transform="translate(152.380814 254.356562)scale(0.1 -0.1)">
       <use xlink:href="#DejaVuSans-48"/>
       <use x="63.623047" xlink:href="#DejaVuSans-46"/>
       <use x="95.410156" xlink:href="#DejaVuSans-49"/>
       <use x="159.033203" xlink:href="#DejaVuSans-48"/>
      </g>
     </g>
    </g>
    <g id="xtick_4">
     <g id="line2d_4">
      <g>
       <use style="stroke:#000000;stroke-width:0.8;" x="214.178537" xlink:href="#mddbd889c50" y="239.758125"/>
      </g>
     </g>
     <g id="text_4">
      <!-- 0.15 -->
      <g transform="translate(203.045724 254.356562)scale(0.1 -0.1)">
       <use xlink:href="#DejaVuSans-48"/>
       <use x="63.623047" xlink:href="#DejaVuSans-46"/>
       <use x="95.410156" xlink:href="#DejaVuSans-49"/>
       <use x="159.033203" xlink:href="#DejaVuSans-53"/>
      </g>
     </g>
    </g>
    <g id="xtick_5">
     <g id="line2d_5">
      <g>
       <use style="stroke:#000000;stroke-width:0.8;" x="264.843447" xlink:href="#mddbd889c50" y="239.758125"/>
      </g>
     </g>
     <g id="text_5">
      <!-- 0.20 -->
      <defs>
       <path d="M 19.1875 8.296875 
L 53.609375 8.296875 
L 53.609375 0 
L 7.328125 0 
L 7.328125 8.296875 
Q 12.9375 14.109375 22.625 23.890625 
Q 32.328125 33.6875 34.8125 36.53125 
Q 39.546875 41.84375 41.421875 45.53125 
Q 43.3125 49.21875 43.3125 52.78125 
Q 43.3125 58.59375 39.234375 62.25 
Q 35.15625 65.921875 28.609375 65.921875 
Q 23.96875 65.921875 18.8125 64.3125 
Q 13.671875 62.703125 7.8125 59.421875 
L 7.8125 69.390625 
Q 13.765625 71.78125 18.9375 73 
Q 24.125 74.21875 28.421875 74.21875 
Q 39.75 74.21875 46.484375 68.546875 
Q 53.21875 62.890625 53.21875 53.421875 
Q 53.21875 48.921875 51.53125 44.890625 
Q 49.859375 40.875 45.40625 35.40625 
Q 44.1875 33.984375 37.640625 27.21875 
Q 31.109375 20.453125 19.1875 8.296875 
z
" id="DejaVuSans-50"/>
      </defs>
      <g transform="translate(253.710634 254.356562)scale(0.1 -0.1)">
       <use xlink:href="#DejaVuSans-48"/>
       <use x="63.623047" xlink:href="#DejaVuSans-46"/>
       <use x="95.410156" xlink:href="#DejaVuSans-50"/>
       <use x="159.033203" xlink:href="#DejaVuSans-48"/>
      </g>
     </g>
    </g>
    <g id="xtick_6">
     <g id="line2d_6">
      <g>
       <use style="stroke:#000000;stroke-width:0.8;" x="315.508357" xlink:href="#mddbd889c50" y="239.758125"/>
      </g>
     </g>
     <g id="text_6">
      <!-- 0.25 -->
      <g transform="translate(304.375544 254.356562)scale(0.1 -0.1)">
       <use xlink:href="#DejaVuSans-48"/>
       <use x="63.623047" xlink:href="#DejaVuSans-46"/>
       <use x="95.410156" xlink:href="#DejaVuSans-50"/>
       <use x="159.033203" xlink:href="#DejaVuSans-53"/>
      </g>
     </g>
    </g>
    <g id="xtick_7">
     <g id="line2d_7">
      <g>
       <use style="stroke:#000000;stroke-width:0.8;" x="366.173267" xlink:href="#mddbd889c50" y="239.758125"/>
      </g>
     </g>
     <g id="text_7">
      <!-- 0.30 -->
      <defs>
       <path d="M 40.578125 39.3125 
Q 47.65625 37.796875 51.625 33 
Q 55.609375 28.21875 55.609375 21.1875 
Q 55.609375 10.40625 48.1875 4.484375 
Q 40.765625 -1.421875 27.09375 -1.421875 
Q 22.515625 -1.421875 17.65625 -0.515625 
Q 12.796875 0.390625 7.625 2.203125 
L 7.625 11.71875 
Q 11.71875 9.328125 16.59375 8.109375 
Q 21.484375 6.890625 26.8125 6.890625 
Q 36.078125 6.890625 40.9375 10.546875 
Q 45.796875 14.203125 45.796875 21.1875 
Q 45.796875 27.640625 41.28125 31.265625 
Q 36.765625 34.90625 28.71875 34.90625 
L 20.21875 34.90625 
L 20.21875 43.015625 
L 29.109375 43.015625 
Q 36.375 43.015625 40.234375 45.921875 
Q 44.09375 48.828125 44.09375 54.296875 
Q 44.09375 59.90625 40.109375 62.90625 
Q 36.140625 65.921875 28.71875 65.921875 
Q 24.65625 65.921875 20.015625 65.03125 
Q 15.375 64.15625 9.8125 62.3125 
L 9.8125 71.09375 
Q 15.4375 72.65625 20.34375 73.4375 
Q 25.25 74.21875 29.59375 74.21875 
Q 40.828125 74.21875 47.359375 69.109375 
Q 53.90625 64.015625 53.90625 55.328125 
Q 53.90625 49.265625 50.4375 45.09375 
Q 46.96875 40.921875 40.578125 39.3125 
z
" id="DejaVuSans-51"/>
      </defs>
      <g transform="translate(355.040454 254.356562)scale(0.1 -0.1)">
       <use xlink:href="#DejaVuSans-48"/>
       <use x="63.623047" xlink:href="#DejaVuSans-46"/>
       <use x="95.410156" xlink:href="#DejaVuSans-51"/>
       <use x="159.033203" xlink:href="#DejaVuSans-48"/>
      </g>
     </g>
    </g>
    <g id="text_8">
     <!-- Time (ms) -->
     <defs>
      <path d="M -0.296875 72.90625 
L 61.375 72.90625 
L 61.375 64.59375 
L 35.5 64.59375 
L 35.5 0 
L 25.59375 0 
L 25.59375 64.59375 
L -0.296875 64.59375 
z
" id="DejaVuSans-84"/>
      <path d="M 9.421875 54.6875 
L 18.40625 54.6875 
L 18.40625 0 
L 9.421875 0 
z
M 9.421875 75.984375 
L 18.40625 75.984375 
L 18.40625 64.59375 
L 9.421875 64.59375 
z
" id="DejaVuSans-105"/>
      <path d="M 52 44.1875 
Q 55.375 50.25 60.0625 53.125 
Q 64.75 56 71.09375 56 
Q 79.640625 56 84.28125 50.015625 
Q 88.921875 44.046875 88.921875 33.015625 
L 88.921875 0 
L 79.890625 0 
L 79.890625 32.71875 
Q 79.890625 40.578125 77.09375 44.375 
Q 74.3125 48.1875 68.609375 48.1875 
Q 61.625 48.1875 57.5625 43.546875 
Q 53.515625 38.921875 53.515625 30.90625 
L 53.515625 0 
L 44.484375 0 
L 44.484375 32.71875 
Q 44.484375 40.625 41.703125 44.40625 
Q 38.921875 48.1875 33.109375 48.1875 
Q 26.21875 48.1875 22.15625 43.53125 
Q 18.109375 38.875 18.109375 30.90625 
L 18.109375 0 
L 9.078125 0 
L 9.078125 54.6875 
L 18.109375 54.6875 
L 18.109375 46.1875 
Q 21.1875 51.21875 25.484375 53.609375 
Q 29.78125 56 35.6875 56 
Q 41.65625 56 45.828125 52.96875 
Q 50 49.953125 52 44.1875 
z
" id="DejaVuSans-109"/>
      <path d="M 56.203125 29.59375 
L 56.203125 25.203125 
L 14.890625 25.203125 
Q 15.484375 15.921875 20.484375 11.0625 
Q 25.484375 6.203125 34.421875 6.203125 
Q 39.59375 6.203125 44.453125 7.46875 
Q 49.3125 8.734375 54.109375 11.28125 
L 54.109375 2.78125 
Q 49.265625 0.734375 44.1875 -0.34375 
Q 39.109375 -1.421875 33.890625 -1.421875 
Q 20.796875 -1.421875 13.15625 6.1875 
Q 5.515625 13.8125 5.515625 26.8125 
Q 5.515625 40.234375 12.765625 48.109375 
Q 20.015625 56 32.328125 56 
Q 43.359375 56 49.78125 48.890625 
Q 56.203125 41.796875 56.203125 29.59375 
z
M 47.21875 32.234375 
Q 47.125 39.59375 43.09375 43.984375 
Q 39.0625 48.390625 32.421875 48.390625 
Q 24.90625 48.390625 20.390625 44.140625 
Q 15.875 39.890625 15.1875 32.171875 
z
" id="DejaVuSans-101"/>
      <path id="DejaVuSans-32"/>
      <path d="M 31 75.875 
Q 24.46875 64.65625 21.28125 53.65625 
Q 18.109375 42.671875 18.109375 31.390625 
Q 18.109375 20.125 21.3125 9.0625 
Q 24.515625 -2 31 -13.1875 
L 23.1875 -13.1875 
Q 15.875 -1.703125 12.234375 9.375 
Q 8.59375 20.453125 8.59375 31.390625 
Q 8.59375 42.28125 12.203125 53.3125 
Q 15.828125 64.359375 23.1875 75.875 
z
" id="DejaVuSans-40"/>
      <path d="M 44.28125 53.078125 
L 44.28125 44.578125 
Q 40.484375 46.53125 36.375 47.5 
Q 32.28125 48.484375 27.875 48.484375 
Q 21.1875 48.484375 17.84375 46.4375 
Q 14.5 44.390625 14.5 40.28125 
Q 14.5 37.15625 16.890625 35.375 
Q 19.28125 33.59375 26.515625 31.984375 
L 29.59375 31.296875 
Q 39.15625 29.25 43.1875 25.515625 
Q 47.21875 21.78125 47.21875 15.09375 
Q 47.21875 7.46875 41.1875 3.015625 
Q 35.15625 -1.421875 24.609375 -1.421875 
Q 20.21875 -1.421875 15.453125 -0.5625 
Q 10.6875 0.296875 5.421875 2 
L 5.421875 11.28125 
Q 10.40625 8.6875 15.234375 7.390625 
Q 20.0625 6.109375 24.8125 6.109375 
Q 31.15625 6.109375 34.5625 8.28125 
Q 37.984375 10.453125 37.984375 14.40625 
Q 37.984375 18.0625 35.515625 20.015625 
Q 33.0625 21.96875 24.703125 23.78125 
L 21.578125 24.515625 
Q 13.234375 26.265625 9.515625 29.90625 
Q 5.8125 33.546875 5.8125 39.890625 
Q 5.8125 47.609375 11.28125 51.796875 
Q 16.75 56 26.8125 56 
Q 31.78125 56 36.171875 55.265625 
Q 40.578125 54.546875 44.28125 53.078125 
z
" id="DejaVuSans-115"/>
      <path d="M 8.015625 75.875 
L 15.828125 75.875 
Q 23.140625 64.359375 26.78125 53.3125 
Q 30.421875 42.28125 30.421875 31.390625 
Q 30.421875 20.453125 26.78125 9.375 
Q 23.140625 -1.703125 15.828125 -13.1875 
L 8.015625 -13.1875 
Q 14.5 -2 17.703125 9.0625 
Q 20.90625 20.125 20.90625 31.390625 
Q 20.90625 42.671875 17.703125 53.65625 
Q 14.5 64.65625 8.015625 75.875 
z
" id="DejaVuSans-41"/>
     </defs>
     <g transform="translate(189.0125 268.034687)scale(0.1 -0.1)">
      <use xlink:href="#DejaVuSans-84"/>
      <use x="61.037109" xlink:href="#DejaVuSans-105"/>
      <use x="88.820312" xlink:href="#DejaVuSans-109"/>
      <use x="186.232422" xlink:href="#DejaVuSans-101"/>
      <use x="247.755859" xlink:href="#DejaVuSans-32"/>
      <use x="279.542969" xlink:href="#DejaVuSans-40"/>
      <use x="318.556641" xlink:href="#DejaVuSans-109"/>
      <use x="415.96875" xlink:href="#DejaVuSans-115"/>
      <use x="468.068359" xlink:href="#DejaVuSans-41"/>
     </g>
    </g>
   </g>
   <g id="matplotlib.axis_2">
    <g id="ytick_1">
     <g id="line2d_8">
      <defs>
       <path d="M 0 0 
L -3.5 0 
" id="m8b7e6fee32" style="stroke:#000000;stroke-width:0.8;"/>
      </defs>
      <g>
       <use style="stroke:#000000;stroke-width:0.8;" x="46.965625" xlink:href="#m8b7e6fee32" y="229.874489"/>
      </g>
     </g>
     <g id="text_9">
      <!-- 0 -->
      <g transform="translate(33.603125 233.673707)scale(0.1 -0.1)">
       <use xlink:href="#DejaVuSans-48"/>
      </g>
     </g>
    </g>
    <g id="ytick_2">
     <g id="line2d_9">
      <g>
       <use style="stroke:#000000;stroke-width:0.8;" x="46.965625" xlink:href="#m8b7e6fee32" y="194.788871"/>
      </g>
     </g>
     <g id="text_10">
      <!-- 20 -->
      <g transform="translate(27.240625 198.58809)scale(0.1 -0.1)">
       <use xlink:href="#DejaVuSans-50"/>
       <use x="63.623047" xlink:href="#DejaVuSans-48"/>
      </g>
     </g>
    </g>
    <g id="ytick_3">
     <g id="line2d_10">
      <g>
       <use style="stroke:#000000;stroke-width:0.8;" x="46.965625" xlink:href="#m8b7e6fee32" y="159.703253"/>
      </g>
     </g>
     <g id="text_11">
      <!-- 40 -->
      <defs>
       <path d="M 37.796875 64.3125 
L 12.890625 25.390625 
L 37.796875 25.390625 
z
M 35.203125 72.90625 
L 47.609375 72.90625 
L 47.609375 25.390625 
L 58.015625 25.390625 
L 58.015625 17.1875 
L 47.609375 17.1875 
L 47.609375 0 
L 37.796875 0 
L 37.796875 17.1875 
L 4.890625 17.1875 
L 4.890625 26.703125 
z
" id="DejaVuSans-52"/>
      </defs>
      <g transform="translate(27.240625 163.502472)scale(0.1 -0.1)">
       <use xlink:href="#DejaVuSans-52"/>
       <use x="63.623047" xlink:href="#DejaVuSans-48"/>
      </g>
     </g>
    </g>
    <g id="ytick_4">
     <g id="line2d_11">
      <g>
       <use style="stroke:#000000;stroke-width:0.8;" x="46.965625" xlink:href="#m8b7e6fee32" y="124.617636"/>
      </g>
     </g>
     <g id="text_12">
      <!-- 60 -->
      <defs>
       <path d="M 33.015625 40.375 
Q 26.375 40.375 22.484375 35.828125 
Q 18.609375 31.296875 18.609375 23.390625 
Q 18.609375 15.53125 22.484375 10.953125 
Q 26.375 6.390625 33.015625 6.390625 
Q 39.65625 6.390625 43.53125 10.953125 
Q 47.40625 15.53125 47.40625 23.390625 
Q 47.40625 31.296875 43.53125 35.828125 
Q 39.65625 40.375 33.015625 40.375 
z
M 52.59375 71.296875 
L 52.59375 62.3125 
Q 48.875 64.0625 45.09375 64.984375 
Q 41.3125 65.921875 37.59375 65.921875 
Q 27.828125 65.921875 22.671875 59.328125 
Q 17.53125 52.734375 16.796875 39.40625 
Q 19.671875 43.65625 24.015625 45.921875 
Q 28.375 48.1875 33.59375 48.1875 
Q 44.578125 48.1875 50.953125 41.515625 
Q 57.328125 34.859375 57.328125 23.390625 
Q 57.328125 12.15625 50.6875 5.359375 
Q 44.046875 -1.421875 33.015625 -1.421875 
Q 20.359375 -1.421875 13.671875 8.265625 
Q 6.984375 17.96875 6.984375 36.375 
Q 6.984375 53.65625 15.1875 63.9375 
Q 23.390625 74.21875 37.203125 74.21875 
Q 40.921875 74.21875 44.703125 73.484375 
Q 48.484375 72.75 52.59375 71.296875 
z
" id="DejaVuSans-54"/>
      </defs>
      <g transform="translate(27.240625 128.416854)scale(0.1 -0.1)">
       <use xlink:href="#DejaVuSans-54"/>
       <use x="63.623047" xlink:href="#DejaVuSans-48"/>
      </g>
     </g>
    </g>
    <g id="ytick_5">
     <g id="line2d_12">
      <g>
       <use style="stroke:#000000;stroke-width:0.8;" x="46.965625" xlink:href="#m8b7e6fee32" y="89.532018"/>
      </g>
     </g>
     <g id="text_13">
      <!-- 80 -->
      <defs>
       <path d="M 31.78125 34.625 
Q 24.75 34.625 20.71875 30.859375 
Q 16.703125 27.09375 16.703125 20.515625 
Q 16.703125 13.921875 20.71875 10.15625 
Q 24.75 6.390625 31.78125 6.390625 
Q 38.8125 6.390625 42.859375 10.171875 
Q 46.921875 13.96875 46.921875 20.515625 
Q 46.921875 27.09375 42.890625 30.859375 
Q 38.875 34.625 31.78125 34.625 
z
M 21.921875 38.8125 
Q 15.578125 40.375 12.03125 44.71875 
Q 8.5 49.078125 8.5 55.328125 
Q 8.5 64.0625 14.71875 69.140625 
Q 20.953125 74.21875 31.78125 74.21875 
Q 42.671875 74.21875 48.875 69.140625 
Q 55.078125 64.0625 55.078125 55.328125 
Q 55.078125 49.078125 51.53125 44.71875 
Q 48 40.375 41.703125 38.8125 
Q 48.828125 37.15625 52.796875 32.3125 
Q 56.78125 27.484375 56.78125 20.515625 
Q 56.78125 9.90625 50.3125 4.234375 
Q 43.84375 -1.421875 31.78125 -1.421875 
Q 19.734375 -1.421875 13.25 4.234375 
Q 6.78125 9.90625 6.78125 20.515625 
Q 6.78125 27.484375 10.78125 32.3125 
Q 14.796875 37.15625 21.921875 38.8125 
z
M 18.3125 54.390625 
Q 18.3125 48.734375 21.84375 45.5625 
Q 25.390625 42.390625 31.78125 42.390625 
Q 38.140625 42.390625 41.71875 45.5625 
Q 45.3125 48.734375 45.3125 54.390625 
Q 45.3125 60.0625 41.71875 63.234375 
Q 38.140625 66.40625 31.78125 66.40625 
Q 25.390625 66.40625 21.84375 63.234375 
Q 18.3125 60.0625 18.3125 54.390625 
z
" id="DejaVuSans-56"/>
      </defs>
      <g transform="translate(27.240625 93.331237)scale(0.1 -0.1)">
       <use xlink:href="#DejaVuSans-56"/>
       <use x="63.623047" xlink:href="#DejaVuSans-48"/>
      </g>
     </g>
    </g>
    <g id="ytick_6">
     <g id="line2d_13">
      <g>
       <use style="stroke:#000000;stroke-width:0.8;" x="46.965625" xlink:href="#m8b7e6fee32" y="54.4464"/>
      </g>
     </g>
     <g id="text_14">
      <!-- 100 -->
      <g transform="translate(20.878125 58.245619)scale(0.1 -0.1)">
       <use xlink:href="#DejaVuSans-49"/>
       <use x="63.623047" xlink:href="#DejaVuSans-48"/>
       <use x="127.246094" xlink:href="#DejaVuSans-48"/>
      </g>
     </g>
    </g>
    <g id="text_15">
     <!-- ppmOH -->
     <defs>
      <path d="M 18.109375 8.203125 
L 18.109375 -20.796875 
L 9.078125 -20.796875 
L 9.078125 54.6875 
L 18.109375 54.6875 
L 18.109375 46.390625 
Q 20.953125 51.265625 25.265625 53.625 
Q 29.59375 56 35.59375 56 
Q 45.5625 56 51.78125 48.09375 
Q 58.015625 40.1875 58.015625 27.296875 
Q 58.015625 14.40625 51.78125 6.484375 
Q 45.5625 -1.421875 35.59375 -1.421875 
Q 29.59375 -1.421875 25.265625 0.953125 
Q 20.953125 3.328125 18.109375 8.203125 
z
M 48.6875 27.296875 
Q 48.6875 37.203125 44.609375 42.84375 
Q 40.53125 48.484375 33.40625 48.484375 
Q 26.265625 48.484375 22.1875 42.84375 
Q 18.109375 37.203125 18.109375 27.296875 
Q 18.109375 17.390625 22.1875 11.75 
Q 26.265625 6.109375 33.40625 6.109375 
Q 40.53125 6.109375 44.609375 11.75 
Q 48.6875 17.390625 48.6875 27.296875 
z
" id="DejaVuSans-112"/>
      <path d="M 39.40625 66.21875 
Q 28.65625 66.21875 22.328125 58.203125 
Q 16.015625 50.203125 16.015625 36.375 
Q 16.015625 22.609375 22.328125 14.59375 
Q 28.65625 6.59375 39.40625 6.59375 
Q 50.140625 6.59375 56.421875 14.59375 
Q 62.703125 22.609375 62.703125 36.375 
Q 62.703125 50.203125 56.421875 58.203125 
Q 50.140625 66.21875 39.40625 66.21875 
z
M 39.40625 74.21875 
Q 54.734375 74.21875 63.90625 63.9375 
Q 73.09375 53.65625 73.09375 36.375 
Q 73.09375 19.140625 63.90625 8.859375 
Q 54.734375 -1.421875 39.40625 -1.421875 
Q 24.03125 -1.421875 14.8125 8.828125 
Q 5.609375 19.09375 5.609375 36.375 
Q 5.609375 53.65625 14.8125 63.9375 
Q 24.03125 74.21875 39.40625 74.21875 
z
" id="DejaVuSans-79"/>
      <path d="M 9.8125 72.90625 
L 19.671875 72.90625 
L 19.671875 43.015625 
L 55.515625 43.015625 
L 55.515625 72.90625 
L 65.375 72.90625 
L 65.375 0 
L 55.515625 0 
L 55.515625 34.71875 
L 19.671875 34.71875 
L 19.671875 0 
L 9.8125 0 
z
" id="DejaVuSans-72"/>
     </defs>
     <g transform="translate(14.798438 149.952969)rotate(-90)scale(0.1 -0.1)">
      <use xlink:href="#DejaVuSans-112"/>
      <use x="63.476562" xlink:href="#DejaVuSans-112"/>
      <use x="126.953125" xlink:href="#DejaVuSans-109"/>
      <use x="224.365234" xlink:href="#DejaVuSans-79"/>
      <use x="303.076172" xlink:href="#DejaVuSans-72"/>
     </g>
    </g>
   </g>
   <g id="line2d_14">
    <path clip-path="url(#pfcee9519e6)" d="M 62.183807 229.874489 
L 154.430257 229.769288 
L 179.457388 229.539244 
L 194.17923 229.214928 
L 205.956703 228.742977 
L 214.789808 228.180153 
L 222.150729 227.504867 
L 228.039466 226.778453 
L 233.928202 225.834167 
L 238.344755 224.946391 
L 242.761307 223.870164 
L 247.457717 222.477651 
L 251.756685 220.935908 
L 254.98091 219.584275 
L 258.205136 218.041991 
L 261.429362 216.286442 
L 264.653587 214.29372 
L 267.877813 212.039036 
L 271.102039 209.497353 
L 274.326264 206.644231 
L 277.55049 203.456958 
L 280.774716 199.915965 
L 283.998941 196.006556 
L 287.223167 191.720924 
L 290.447393 187.060391 
L 293.671618 182.037742 
L 297.970586 174.825609 
L 302.269553 167.12524 
L 308.718005 155.023792 
L 315.166456 142.94386 
L 319.465423 135.348613 
L 322.689649 130.087513 
L 325.913875 125.315558 
L 328.247246 122.216559 
L 330.721974 119.287062 
L 332.984558 116.947943 
L 335.247142 114.942071 
L 337.332997 113.389756 
L 339.418852 112.118578 
L 341.470028 111.134749 
L 343.599487 110.380092 
L 345.728946 109.880593 
L 347.858405 109.616489 
L 350.235329 109.572659 
L 352.512277 109.749768 
L 354.750318 110.103727 
L 357.847902 110.835751 
L 361.565003 111.994951 
L 365.90162 113.596681 
L 366.521137 113.839159 
L 366.521137 113.839159 
" style="fill:none;stroke:#0000ff;stroke-linecap:square;stroke-width:1.5;"/>
   </g>
   <g id="line2d_15">
    <path clip-path="url(#pfcee9519e6)" d="M 62.183807 229.874489 
L 154.646822 229.763465 
L 178.830856 229.530407 
L 193.609989 229.190994 
L 204.358448 228.750184 
L 213.763351 228.138606 
L 220.481138 227.509351 
L 227.198925 226.65568 
L 232.573155 225.760462 
L 237.947385 224.623454 
L 241.978058 223.575983 
L 246.00873 222.328453 
L 250.039402 220.846396 
L 254.070075 219.090909 
L 258.100747 217.018757 
L 261.069885 215.262443 
L 264.039023 213.288972 
L 267.008161 211.078035 
L 269.977299 208.609362 
L 272.946437 205.863394 
L 275.915575 202.822128 
L 278.884713 199.47017 
L 281.853851 195.795987 
L 284.822989 191.793344 
L 287.792127 187.462885 
L 290.761265 182.813785 
L 294.720116 176.154351 
L 298.678966 169.042349 
L 304.617242 157.795986 
L 313.459944 140.932496 
L 317.130921 134.379937 
L 320.067702 129.506984 
L 323.004484 125.051245 
L 325.941266 121.081718 
L 328.143852 118.455851 
L 330.346438 116.148328 
L 332.549025 114.167617 
L 334.751611 112.515576 
L 336.954197 111.187651 
L 339.156784 110.17334 
L 341.488143 109.423783 
L 343.351622 109.048568 
L 344.923339 108.875399 
L 346.824454 108.827048 
L 349.676125 109.048801 
L 352.527797 109.569608 
L 355.808022 110.460294 
L 359.255797 111.642104 
L 364.083887 113.554141 
L 366.547443 114.587163 
L 366.547443 114.587163 
" style="fill:none;stroke:#ff0000;stroke-linecap:square;stroke-width:1.5;"/>
   </g>
   <g id="line2d_16">
    <defs>
     <path d="M 0 3 
C 0.795609 3 1.55874 2.683901 2.12132 2.12132 
C 2.683901 1.55874 3 0.795609 3 0 
C 3 -0.795609 2.683901 -1.55874 2.12132 -2.12132 
C 1.55874 -2.683901 0.795609 -3 0 -3 
C -0.795609 -3 -1.55874 -2.683901 -2.12132 -2.12132 
C -2.683901 -1.55874 -3 -0.795609 -3 0 
C -3 0.795609 -2.683901 1.55874 -2.12132 2.12132 
C -1.55874 2.683901 -0.795609 3 0 3 
z
" id="m232271dc5c" style="stroke:#000000;"/>
    </defs>
    <g clip-path="url(#pfcee9519e6)">
     <use style="stroke:#000000;" x="62.183807" xlink:href="#m232271dc5c" y="229.874489"/>
     <use style="stroke:#000000;" x="62.186368" xlink:href="#m232271dc5c" y="229.874489"/>
     <use style="stroke:#000000;" x="62.211985" xlink:href="#m232271dc5c" y="229.874489"/>
     <use style="stroke:#000000;" x="62.237602" xlink:href="#m232271dc5c" y="229.874489"/>
     <use style="stroke:#000000;" x="62.263218" xlink:href="#m232271dc5c" y="229.874488"/>
     <use style="stroke:#000000;" x="62.30909" xlink:href="#m232271dc5c" y="229.874488"/>
     <use style="stroke:#000000;" x="62.354961" xlink:href="#m232271dc5c" y="229.874488"/>
     <use style="stroke:#000000;" x="62.424603" xlink:href="#m232271dc5c" y="229.874487"/>
     <use style="stroke:#000000;" x="62.494246" xlink:href="#m232271dc5c" y="229.874486"/>
     <use style="stroke:#000000;" x="62.563888" xlink:href="#m232271dc5c" y="229.874484"/>
     <use style="stroke:#000000;" x="62.672611" xlink:href="#m232271dc5c" y="229.874482"/>
     <use style="stroke:#000000;" x="62.781334" xlink:href="#m232271dc5c" y="229.874479"/>
     <use style="stroke:#000000;" x="62.890057" xlink:href="#m232271dc5c" y="229.874475"/>
     <use style="stroke:#000000;" x="62.99878" xlink:href="#m232271dc5c" y="229.874472"/>
     <use style="stroke:#000000;" x="63.107503" xlink:href="#m232271dc5c" y="229.874467"/>
     <use style="stroke:#000000;" x="63.295834" xlink:href="#m232271dc5c" y="229.874459"/>
     <use style="stroke:#000000;" x="63.484165" xlink:href="#m232271dc5c" y="229.87445"/>
     <use style="stroke:#000000;" x="63.672496" xlink:href="#m232271dc5c" y="229.87444"/>
     <use style="stroke:#000000;" x="63.860827" xlink:href="#m232271dc5c" y="229.87443"/>
     <use style="stroke:#000000;" x="64.342166" xlink:href="#m232271dc5c" y="229.874401"/>
     <use style="stroke:#000000;" x="64.625669" xlink:href="#m232271dc5c" y="229.874382"/>
     <use style="stroke:#000000;" x="64.909171" xlink:href="#m232271dc5c" y="229.874363"/>
     <use style="stroke:#000000;" x="65.192674" xlink:href="#m232271dc5c" y="229.874343"/>
     <use style="stroke:#000000;" x="65.753782" xlink:href="#m232271dc5c" y="229.874302"/>
     <use style="stroke:#000000;" x="66.314891" xlink:href="#m232271dc5c" y="229.874259"/>
     <use style="stroke:#000000;" x="66.694382" xlink:href="#m232271dc5c" y="229.874229"/>
     <use style="stroke:#000000;" x="67.073872" xlink:href="#m232271dc5c" y="229.874198"/>
     <use style="stroke:#000000;" x="67.453363" xlink:href="#m232271dc5c" y="229.874167"/>
     <use style="stroke:#000000;" x="67.832854" xlink:href="#m232271dc5c" y="229.874134"/>
     <use style="stroke:#000000;" x="68.530097" xlink:href="#m232271dc5c" y="229.874073"/>
     <use style="stroke:#000000;" x="69.22734" xlink:href="#m232271dc5c" y="229.87401"/>
     <use style="stroke:#000000;" x="69.924584" xlink:href="#m232271dc5c" y="229.873945"/>
     <use style="stroke:#000000;" x="70.621827" xlink:href="#m232271dc5c" y="229.873877"/>
     <use style="stroke:#000000;" x="71.31907" xlink:href="#m232271dc5c" y="229.873807"/>
     <use style="stroke:#000000;" x="72.016313" xlink:href="#m232271dc5c" y="229.873734"/>
     <use style="stroke:#000000;" x="72.713556" xlink:href="#m232271dc5c" y="229.873659"/>
     <use style="stroke:#000000;" x="73.819047" xlink:href="#m232271dc5c" y="229.873534"/>
     <use style="stroke:#000000;" x="74.924538" xlink:href="#m232271dc5c" y="229.873403"/>
     <use style="stroke:#000000;" x="76.030029" xlink:href="#m232271dc5c" y="229.873264"/>
     <use style="stroke:#000000;" x="77.13552" xlink:href="#m232271dc5c" y="229.873117"/>
     <use style="stroke:#000000;" x="78.241011" xlink:href="#m232271dc5c" y="229.872962"/>
     <use style="stroke:#000000;" x="79.346502" xlink:href="#m232271dc5c" y="229.872799"/>
     <use style="stroke:#000000;" x="80.451994" xlink:href="#m232271dc5c" y="229.872627"/>
     <use style="stroke:#000000;" x="81.557485" xlink:href="#m232271dc5c" y="229.872446"/>
     <use style="stroke:#000000;" x="82.662976" xlink:href="#m232271dc5c" y="229.872254"/>
     <use style="stroke:#000000;" x="83.768467" xlink:href="#m232271dc5c" y="229.872052"/>
     <use style="stroke:#000000;" x="85.676092" xlink:href="#m232271dc5c" y="229.871678"/>
     <use style="stroke:#000000;" x="86.986172" xlink:href="#m232271dc5c" y="229.871401"/>
     <use style="stroke:#000000;" x="88.296251" xlink:href="#m232271dc5c" y="229.871106"/>
     <use style="stroke:#000000;" x="89.60633" xlink:href="#m232271dc5c" y="229.870792"/>
     <use style="stroke:#000000;" x="90.91641" xlink:href="#m232271dc5c" y="229.870458"/>
     <use style="stroke:#000000;" x="92.226489" xlink:href="#m232271dc5c" y="229.870103"/>
     <use style="stroke:#000000;" x="93.536568" xlink:href="#m232271dc5c" y="229.869725"/>
     <use style="stroke:#000000;" x="94.846648" xlink:href="#m232271dc5c" y="229.869324"/>
     <use style="stroke:#000000;" x="96.156727" xlink:href="#m232271dc5c" y="229.868896"/>
     <use style="stroke:#000000;" x="98.344318" xlink:href="#m232271dc5c" y="229.868122"/>
     <use style="stroke:#000000;" x="100.531909" xlink:href="#m232271dc5c" y="229.867265"/>
     <use style="stroke:#000000;" x="102.719501" xlink:href="#m232271dc5c" y="229.866316"/>
     <use style="stroke:#000000;" x="104.319547" xlink:href="#m232271dc5c" y="229.865558"/>
     <use style="stroke:#000000;" x="105.919593" xlink:href="#m232271dc5c" y="229.864741"/>
     <use style="stroke:#000000;" x="107.519638" xlink:href="#m232271dc5c" y="229.863862"/>
     <use style="stroke:#000000;" x="109.866472" xlink:href="#m232271dc5c" y="229.862448"/>
     <use style="stroke:#000000;" x="111.436463" xlink:href="#m232271dc5c" y="229.861413"/>
     <use style="stroke:#000000;" x="113.006453" xlink:href="#m232271dc5c" y="229.860299"/>
     <use style="stroke:#000000;" x="114.576444" xlink:href="#m232271dc5c" y="229.859102"/>
     <use style="stroke:#000000;" x="117.242502" xlink:href="#m232271dc5c" y="229.85686"/>
     <use style="stroke:#000000;" x="118.81869" xlink:href="#m232271dc5c" y="229.855399"/>
     <use style="stroke:#000000;" x="120.394878" xlink:href="#m232271dc5c" y="229.853827"/>
     <use style="stroke:#000000;" x="121.971066" xlink:href="#m232271dc5c" y="229.852138"/>
     <use style="stroke:#000000;" x="123.921564" xlink:href="#m232271dc5c" y="229.849869"/>
     <use style="stroke:#000000;" x="125.359528" xlink:href="#m232271dc5c" y="229.848062"/>
     <use style="stroke:#000000;" x="126.797493" xlink:href="#m232271dc5c" y="229.84613"/>
     <use style="stroke:#000000;" x="128.235457" xlink:href="#m232271dc5c" y="229.844067"/>
     <use style="stroke:#000000;" x="129.673422" xlink:href="#m232271dc5c" y="229.841863"/>
     <use style="stroke:#000000;" x="131.111386" xlink:href="#m232271dc5c" y="229.839508"/>
     <use style="stroke:#000000;" x="132.549351" xlink:href="#m232271dc5c" y="229.836992"/>
     <use style="stroke:#000000;" x="133.987315" xlink:href="#m232271dc5c" y="229.834304"/>
     <use style="stroke:#000000;" x="135.42528" xlink:href="#m232271dc5c" y="229.831433"/>
     <use style="stroke:#000000;" x="136.863245" xlink:href="#m232271dc5c" y="229.828365"/>
     <use style="stroke:#000000;" x="138.301209" xlink:href="#m232271dc5c" y="229.825088"/>
     <use style="stroke:#000000;" x="139.739174" xlink:href="#m232271dc5c" y="229.821588"/>
     <use style="stroke:#000000;" x="141.177138" xlink:href="#m232271dc5c" y="229.817849"/>
     <use style="stroke:#000000;" x="142.615103" xlink:href="#m232271dc5c" y="229.813854"/>
     <use style="stroke:#000000;" x="144.053067" xlink:href="#m232271dc5c" y="229.809587"/>
     <use style="stroke:#000000;" x="145.491032" xlink:href="#m232271dc5c" y="229.805029"/>
     <use style="stroke:#000000;" x="146.928996" xlink:href="#m232271dc5c" y="229.80016"/>
     <use style="stroke:#000000;" x="148.366961" xlink:href="#m232271dc5c" y="229.794959"/>
     <use style="stroke:#000000;" x="149.804925" xlink:href="#m232271dc5c" y="229.789404"/>
     <use style="stroke:#000000;" x="151.24289" xlink:href="#m232271dc5c" y="229.78347"/>
     <use style="stroke:#000000;" x="152.680854" xlink:href="#m232271dc5c" y="229.777131"/>
     <use style="stroke:#000000;" x="154.118819" xlink:href="#m232271dc5c" y="229.77036"/>
     <use style="stroke:#000000;" x="155.556783" xlink:href="#m232271dc5c" y="229.763127"/>
     <use style="stroke:#000000;" x="156.994748" xlink:href="#m232271dc5c" y="229.755402"/>
     <use style="stroke:#000000;" x="158.432712" xlink:href="#m232271dc5c" y="229.74715"/>
     <use style="stroke:#000000;" x="159.870677" xlink:href="#m232271dc5c" y="229.738336"/>
     <use style="stroke:#000000;" x="161.308642" xlink:href="#m232271dc5c" y="229.728921"/>
     <use style="stroke:#000000;" x="162.746606" xlink:href="#m232271dc5c" y="229.718865"/>
     <use style="stroke:#000000;" x="164.184571" xlink:href="#m232271dc5c" y="229.708124"/>
     <use style="stroke:#000000;" x="165.622535" xlink:href="#m232271dc5c" y="229.696651"/>
     <use style="stroke:#000000;" x="167.0605" xlink:href="#m232271dc5c" y="229.684396"/>
     <use style="stroke:#000000;" x="168.498464" xlink:href="#m232271dc5c" y="229.671307"/>
     <use style="stroke:#000000;" x="169.936429" xlink:href="#m232271dc5c" y="229.657326"/>
     <use style="stroke:#000000;" x="171.374393" xlink:href="#m232271dc5c" y="229.642393"/>
     <use style="stroke:#000000;" x="172.812358" xlink:href="#m232271dc5c" y="229.626443"/>
     <use style="stroke:#000000;" x="174.250322" xlink:href="#m232271dc5c" y="229.609407"/>
     <use style="stroke:#000000;" x="175.688287" xlink:href="#m232271dc5c" y="229.591211"/>
     <use style="stroke:#000000;" x="177.126251" xlink:href="#m232271dc5c" y="229.571777"/>
     <use style="stroke:#000000;" x="178.564216" xlink:href="#m232271dc5c" y="229.551019"/>
     <use style="stroke:#000000;" x="180.00218" xlink:href="#m232271dc5c" y="229.528848"/>
     <use style="stroke:#000000;" x="181.440145" xlink:href="#m232271dc5c" y="229.505168"/>
     <use style="stroke:#000000;" x="182.878109" xlink:href="#m232271dc5c" y="229.479876"/>
     <use style="stroke:#000000;" x="184.316074" xlink:href="#m232271dc5c" y="229.452864"/>
     <use style="stroke:#000000;" x="185.754039" xlink:href="#m232271dc5c" y="229.424013"/>
     <use style="stroke:#000000;" x="187.192003" xlink:href="#m232271dc5c" y="229.393201"/>
     <use style="stroke:#000000;" x="188.629968" xlink:href="#m232271dc5c" y="229.360292"/>
     <use style="stroke:#000000;" x="190.067932" xlink:href="#m232271dc5c" y="229.325146"/>
     <use style="stroke:#000000;" x="191.505897" xlink:href="#m232271dc5c" y="229.28761"/>
     <use style="stroke:#000000;" x="192.943861" xlink:href="#m232271dc5c" y="229.247523"/>
     <use style="stroke:#000000;" x="194.381826" xlink:href="#m232271dc5c" y="229.204711"/>
     <use style="stroke:#000000;" x="195.81979" xlink:href="#m232271dc5c" y="229.158992"/>
     <use style="stroke:#000000;" x="197.257755" xlink:href="#m232271dc5c" y="229.110168"/>
     <use style="stroke:#000000;" x="198.695719" xlink:href="#m232271dc5c" y="229.058029"/>
     <use style="stroke:#000000;" x="200.133684" xlink:href="#m232271dc5c" y="229.002351"/>
     <use style="stroke:#000000;" x="201.571648" xlink:href="#m232271dc5c" y="228.942897"/>
     <use style="stroke:#000000;" x="203.009613" xlink:href="#m232271dc5c" y="228.879413"/>
     <use style="stroke:#000000;" x="204.447577" xlink:href="#m232271dc5c" y="228.811626"/>
     <use style="stroke:#000000;" x="205.885542" xlink:href="#m232271dc5c" y="228.739248"/>
     <use style="stroke:#000000;" x="207.323506" xlink:href="#m232271dc5c" y="228.661972"/>
     <use style="stroke:#000000;" x="208.761471" xlink:href="#m232271dc5c" y="228.57947"/>
     <use style="stroke:#000000;" x="210.199436" xlink:href="#m232271dc5c" y="228.491393"/>
     <use style="stroke:#000000;" x="211.6374" xlink:href="#m232271dc5c" y="228.397368"/>
     <use style="stroke:#000000;" x="213.075365" xlink:href="#m232271dc5c" y="228.297001"/>
     <use style="stroke:#000000;" x="214.513329" xlink:href="#m232271dc5c" y="228.189871"/>
     <use style="stroke:#000000;" x="215.951294" xlink:href="#m232271dc5c" y="228.075529"/>
     <use style="stroke:#000000;" x="217.389258" xlink:href="#m232271dc5c" y="227.953502"/>
     <use style="stroke:#000000;" x="218.827223" xlink:href="#m232271dc5c" y="227.823282"/>
     <use style="stroke:#000000;" x="220.265187" xlink:href="#m232271dc5c" y="227.684333"/>
     <use style="stroke:#000000;" x="221.703152" xlink:href="#m232271dc5c" y="227.536085"/>
     <use style="stroke:#000000;" x="223.141116" xlink:href="#m232271dc5c" y="227.377933"/>
     <use style="stroke:#000000;" x="224.579081" xlink:href="#m232271dc5c" y="227.209235"/>
     <use style="stroke:#000000;" x="226.017045" xlink:href="#m232271dc5c" y="227.029311"/>
     <use style="stroke:#000000;" x="227.45501" xlink:href="#m232271dc5c" y="226.837441"/>
     <use style="stroke:#000000;" x="228.892974" xlink:href="#m232271dc5c" y="226.632861"/>
     <use style="stroke:#000000;" x="230.330939" xlink:href="#m232271dc5c" y="226.414764"/>
     <use style="stroke:#000000;" x="231.768903" xlink:href="#m232271dc5c" y="226.182296"/>
     <use style="stroke:#000000;" x="233.206868" xlink:href="#m232271dc5c" y="225.934556"/>
     <use style="stroke:#000000;" x="234.644833" xlink:href="#m232271dc5c" y="225.670592"/>
     <use style="stroke:#000000;" x="236.082797" xlink:href="#m232271dc5c" y="225.389397"/>
     <use style="stroke:#000000;" x="237.520762" xlink:href="#m232271dc5c" y="225.089913"/>
     <use style="stroke:#000000;" x="238.958726" xlink:href="#m232271dc5c" y="224.771023"/>
     <use style="stroke:#000000;" x="240.396691" xlink:href="#m232271dc5c" y="224.431552"/>
     <use style="stroke:#000000;" x="241.834655" xlink:href="#m232271dc5c" y="224.070267"/>
     <use style="stroke:#000000;" x="243.27262" xlink:href="#m232271dc5c" y="223.685868"/>
     <use style="stroke:#000000;" x="244.710584" xlink:href="#m232271dc5c" y="223.276995"/>
     <use style="stroke:#000000;" x="245.768186" xlink:href="#m232271dc5c" y="222.959828"/>
     <use style="stroke:#000000;" x="246.825788" xlink:href="#m232271dc5c" y="222.628061"/>
     <use style="stroke:#000000;" x="247.883389" xlink:href="#m232271dc5c" y="222.281084"/>
     <use style="stroke:#000000;" x="248.940991" xlink:href="#m232271dc5c" y="221.918267"/>
     <use style="stroke:#000000;" x="249.998593" xlink:href="#m232271dc5c" y="221.538961"/>
     <use style="stroke:#000000;" x="251.056194" xlink:href="#m232271dc5c" y="221.142496"/>
     <use style="stroke:#000000;" x="252.113796" xlink:href="#m232271dc5c" y="220.728184"/>
     <use style="stroke:#000000;" x="253.171398" xlink:href="#m232271dc5c" y="220.295315"/>
     <use style="stroke:#000000;" x="254.228999" xlink:href="#m232271dc5c" y="219.843162"/>
     <use style="stroke:#000000;" x="255.286601" xlink:href="#m232271dc5c" y="219.370979"/>
     <use style="stroke:#000000;" x="256.344203" xlink:href="#m232271dc5c" y="218.878001"/>
     <use style="stroke:#000000;" x="257.401804" xlink:href="#m232271dc5c" y="218.363448"/>
     <use style="stroke:#000000;" x="258.459406" xlink:href="#m232271dc5c" y="217.826521"/>
     <use style="stroke:#000000;" x="259.517008" xlink:href="#m232271dc5c" y="217.266407"/>
     <use style="stroke:#000000;" x="260.574609" xlink:href="#m232271dc5c" y="216.682279"/>
     <use style="stroke:#000000;" x="261.632211" xlink:href="#m232271dc5c" y="216.073299"/>
     <use style="stroke:#000000;" x="262.689813" xlink:href="#m232271dc5c" y="215.438616"/>
     <use style="stroke:#000000;" x="263.747414" xlink:href="#m232271dc5c" y="214.777372"/>
     <use style="stroke:#000000;" x="264.805016" xlink:href="#m232271dc5c" y="214.088702"/>
     <use style="stroke:#000000;" x="265.862618" xlink:href="#m232271dc5c" y="213.371738"/>
     <use style="stroke:#000000;" x="266.920219" xlink:href="#m232271dc5c" y="212.625609"/>
     <use style="stroke:#000000;" x="267.977821" xlink:href="#m232271dc5c" y="211.849448"/>
     <use style="stroke:#000000;" x="269.035423" xlink:href="#m232271dc5c" y="211.042392"/>
     <use style="stroke:#000000;" x="270.093024" xlink:href="#m232271dc5c" y="210.203588"/>
     <use style="stroke:#000000;" x="271.150626" xlink:href="#m232271dc5c" y="209.332195"/>
     <use style="stroke:#000000;" x="272.208228" xlink:href="#m232271dc5c" y="208.42739"/>
     <use style="stroke:#000000;" x="273.265829" xlink:href="#m232271dc5c" y="207.488372"/>
     <use style="stroke:#000000;" x="274.323431" xlink:href="#m232271dc5c" y="206.514369"/>
     <use style="stroke:#000000;" x="275.381033" xlink:href="#m232271dc5c" y="205.504639"/>
     <use style="stroke:#000000;" x="276.438634" xlink:href="#m232271dc5c" y="204.458481"/>
     <use style="stroke:#000000;" x="277.496236" xlink:href="#m232271dc5c" y="203.375238"/>
     <use style="stroke:#000000;" x="278.553838" xlink:href="#m232271dc5c" y="202.254304"/>
     <use style="stroke:#000000;" x="279.611439" xlink:href="#m232271dc5c" y="201.095133"/>
     <use style="stroke:#000000;" x="280.669041" xlink:href="#m232271dc5c" y="199.897242"/>
     <use style="stroke:#000000;" x="281.726643" xlink:href="#m232271dc5c" y="198.660225"/>
     <use style="stroke:#000000;" x="282.784244" xlink:href="#m232271dc5c" y="197.383756"/>
     <use style="stroke:#000000;" x="283.841846" xlink:href="#m232271dc5c" y="196.067597"/>
     <use style="stroke:#000000;" x="284.899448" xlink:href="#m232271dc5c" y="194.71161"/>
     <use style="stroke:#000000;" x="285.957049" xlink:href="#m232271dc5c" y="193.315762"/>
     <use style="stroke:#000000;" x="287.014651" xlink:href="#m232271dc5c" y="191.880137"/>
     <use style="stroke:#000000;" x="288.072253" xlink:href="#m232271dc5c" y="190.404941"/>
     <use style="stroke:#000000;" x="289.129854" xlink:href="#m232271dc5c" y="188.890513"/>
     <use style="stroke:#000000;" x="290.187456" xlink:href="#m232271dc5c" y="187.337334"/>
     <use style="stroke:#000000;" x="291.245058" xlink:href="#m232271dc5c" y="185.746032"/>
     <use style="stroke:#000000;" x="292.302659" xlink:href="#m232271dc5c" y="184.117393"/>
     <use style="stroke:#000000;" x="293.360261" xlink:href="#m232271dc5c" y="182.452369"/>
     <use style="stroke:#000000;" x="294.417863" xlink:href="#m232271dc5c" y="180.752082"/>
     <use style="stroke:#000000;" x="295.475464" xlink:href="#m232271dc5c" y="179.01783"/>
     <use style="stroke:#000000;" x="296.533066" xlink:href="#m232271dc5c" y="177.251096"/>
     <use style="stroke:#000000;" x="297.590668" xlink:href="#m232271dc5c" y="175.453549"/>
     <use style="stroke:#000000;" x="298.648269" xlink:href="#m232271dc5c" y="173.62705"/>
     <use style="stroke:#000000;" x="299.705871" xlink:href="#m232271dc5c" y="171.773649"/>
     <use style="stroke:#000000;" x="300.763473" xlink:href="#m232271dc5c" y="169.89559"/>
     <use style="stroke:#000000;" x="301.821074" xlink:href="#m232271dc5c" y="167.995311"/>
     <use style="stroke:#000000;" x="302.878676" xlink:href="#m232271dc5c" y="166.075435"/>
     <use style="stroke:#000000;" x="303.64191" xlink:href="#m232271dc5c" y="164.679332"/>
     <use style="stroke:#000000;" x="304.405144" xlink:href="#m232271dc5c" y="163.275597"/>
     <use style="stroke:#000000;" x="305.168378" xlink:href="#m232271dc5c" y="161.865392"/>
     <use style="stroke:#000000;" x="305.931611" xlink:href="#m232271dc5c" y="160.449922"/>
     <use style="stroke:#000000;" x="306.694845" xlink:href="#m232271dc5c" y="159.030438"/>
     <use style="stroke:#000000;" x="307.458079" xlink:href="#m232271dc5c" y="157.608228"/>
     <use style="stroke:#000000;" x="308.221313" xlink:href="#m232271dc5c" y="156.184621"/>
     <use style="stroke:#000000;" x="308.984547" xlink:href="#m232271dc5c" y="154.76098"/>
     <use style="stroke:#000000;" x="309.747781" xlink:href="#m232271dc5c" y="153.3387"/>
     <use style="stroke:#000000;" x="310.511014" xlink:href="#m232271dc5c" y="151.919203"/>
     <use style="stroke:#000000;" x="311.274248" xlink:href="#m232271dc5c" y="150.503938"/>
     <use style="stroke:#000000;" x="312.037482" xlink:href="#m232271dc5c" y="149.094373"/>
     <use style="stroke:#000000;" x="312.800716" xlink:href="#m232271dc5c" y="147.691994"/>
     <use style="stroke:#000000;" x="313.56395" xlink:href="#m232271dc5c" y="146.298297"/>
     <use style="stroke:#000000;" x="314.327184" xlink:href="#m232271dc5c" y="144.914788"/>
     <use style="stroke:#000000;" x="315.090418" xlink:href="#m232271dc5c" y="143.542972"/>
     <use style="stroke:#000000;" x="315.853651" xlink:href="#m232271dc5c" y="142.184355"/>
     <use style="stroke:#000000;" x="316.616885" xlink:href="#m232271dc5c" y="140.840435"/>
     <use style="stroke:#000000;" x="317.380119" xlink:href="#m232271dc5c" y="139.512697"/>
     <use style="stroke:#000000;" x="318.143353" xlink:href="#m232271dc5c" y="138.202609"/>
     <use style="stroke:#000000;" x="318.906587" xlink:href="#m232271dc5c" y="136.911615"/>
     <use style="stroke:#000000;" x="319.669821" xlink:href="#m232271dc5c" y="135.641131"/>
     <use style="stroke:#000000;" x="320.433054" xlink:href="#m232271dc5c" y="134.392541"/>
     <use style="stroke:#000000;" x="321.196288" xlink:href="#m232271dc5c" y="133.167191"/>
     <use style="stroke:#000000;" x="321.959522" xlink:href="#m232271dc5c" y="131.966381"/>
     <use style="stroke:#000000;" x="322.722756" xlink:href="#m232271dc5c" y="130.791364"/>
     <use style="stroke:#000000;" x="323.48599" xlink:href="#m232271dc5c" y="129.643342"/>
     <use style="stroke:#000000;" x="324.249224" xlink:href="#m232271dc5c" y="128.523457"/>
     <use style="stroke:#000000;" x="325.012457" xlink:href="#m232271dc5c" y="127.43279"/>
     <use style="stroke:#000000;" x="325.775691" xlink:href="#m232271dc5c" y="126.372357"/>
     <use style="stroke:#000000;" x="326.538925" xlink:href="#m232271dc5c" y="125.343105"/>
     <use style="stroke:#000000;" x="327.302159" xlink:href="#m232271dc5c" y="124.345907"/>
     <use style="stroke:#000000;" x="328.065393" xlink:href="#m232271dc5c" y="123.381562"/>
     <use style="stroke:#000000;" x="328.828627" xlink:href="#m232271dc5c" y="122.45079"/>
     <use style="stroke:#000000;" x="329.59186" xlink:href="#m232271dc5c" y="121.554229"/>
     <use style="stroke:#000000;" x="330.355094" xlink:href="#m232271dc5c" y="120.692439"/>
     <use style="stroke:#000000;" x="331.118328" xlink:href="#m232271dc5c" y="119.865892"/>
     <use style="stroke:#000000;" x="331.881562" xlink:href="#m232271dc5c" y="119.074978"/>
     <use style="stroke:#000000;" x="332.438013" xlink:href="#m232271dc5c" y="118.520983"/>
     <use style="stroke:#000000;" x="332.994465" xlink:href="#m232271dc5c" y="117.986181"/>
     <use style="stroke:#000000;" x="333.550916" xlink:href="#m232271dc5c" y="117.470637"/>
     <use style="stroke:#000000;" x="334.107368" xlink:href="#m232271dc5c" y="116.974393"/>
     <use style="stroke:#000000;" x="334.519645" xlink:href="#m232271dc5c" y="116.619181"/>
     <use style="stroke:#000000;" x="334.931922" xlink:href="#m232271dc5c" y="116.274573"/>
     <use style="stroke:#000000;" x="335.344199" xlink:href="#m232271dc5c" y="115.940559"/>
     <use style="stroke:#000000;" x="335.756477" xlink:href="#m232271dc5c" y="115.617125"/>
     <use style="stroke:#000000;" x="336.168754" xlink:href="#m232271dc5c" y="115.304248"/>
     <use style="stroke:#000000;" x="336.581031" xlink:href="#m232271dc5c" y="115.0019"/>
     <use style="stroke:#000000;" x="336.993308" xlink:href="#m232271dc5c" y="114.710045"/>
     <use style="stroke:#000000;" x="337.405585" xlink:href="#m232271dc5c" y="114.428641"/>
     <use style="stroke:#000000;" x="337.817863" xlink:href="#m232271dc5c" y="114.157639"/>
     <use style="stroke:#000000;" x="338.23014" xlink:href="#m232271dc5c" y="113.896985"/>
     <use style="stroke:#000000;" x="338.533291" xlink:href="#m232271dc5c" y="113.71189"/>
     <use style="stroke:#000000;" x="338.836442" xlink:href="#m232271dc5c" y="113.532331"/>
     <use style="stroke:#000000;" x="339.139593" xlink:href="#m232271dc5c" y="113.358279"/>
     <use style="stroke:#000000;" x="339.442744" xlink:href="#m232271dc5c" y="113.189704"/>
     <use style="stroke:#000000;" x="339.745895" xlink:href="#m232271dc5c" y="113.026575"/>
     <use style="stroke:#000000;" x="340.049046" xlink:href="#m232271dc5c" y="112.868859"/>
     <use style="stroke:#000000;" x="340.352198" xlink:href="#m232271dc5c" y="112.716522"/>
     <use style="stroke:#000000;" x="340.655349" xlink:href="#m232271dc5c" y="112.569526"/>
     <use style="stroke:#000000;" x="340.9585" xlink:href="#m232271dc5c" y="112.427834"/>
     <use style="stroke:#000000;" x="341.261651" xlink:href="#m232271dc5c" y="112.291407"/>
     <use style="stroke:#000000;" x="341.820651" xlink:href="#m232271dc5c" y="112.053507"/>
     <use style="stroke:#000000;" x="342.379651" xlink:href="#m232271dc5c" y="111.8331"/>
     <use style="stroke:#000000;" x="342.786427" xlink:href="#m232271dc5c" y="111.683549"/>
     <use style="stroke:#000000;" x="343.193204" xlink:href="#m232271dc5c" y="111.542996"/>
     <use style="stroke:#000000;" x="343.599981" xlink:href="#m232271dc5c" y="111.411326"/>
     <use style="stroke:#000000;" x="344.006758" xlink:href="#m232271dc5c" y="111.288415"/>
     <use style="stroke:#000000;" x="344.413534" xlink:href="#m232271dc5c" y="111.174138"/>
     <use style="stroke:#000000;" x="344.820311" xlink:href="#m232271dc5c" y="111.068367"/>
     <use style="stroke:#000000;" x="345.68977" xlink:href="#m232271dc5c" y="110.870195"/>
    </g>
   </g>
   <g id="line2d_17">
    <path clip-path="url(#pfcee9519e6)" d="M 62.183807 229.874489 
L 144.053067 229.763375 
L 165.622535 229.526386 
L 178.564216 229.187026 
L 188.629968 228.708958 
L 195.81979 228.176275 
L 203.009613 227.401891 
L 208.761471 226.535983 
L 213.075365 225.695208 
L 217.389258 224.646115 
L 221.703152 223.339202 
L 226.017045 221.714431 
L 228.892974 220.419554 
L 231.768903 218.926866 
L 234.644833 217.208701 
L 237.520762 215.234298 
L 240.396691 212.969655 
L 243.27262 210.377495 
L 245.768186 207.835051 
L 247.883389 205.438966 
L 249.998593 202.805384 
L 252.113796 199.915673 
L 254.228999 196.750877 
L 256.344203 193.292018 
L 258.459406 189.520483 
L 260.574609 185.418562 
L 262.689813 180.969981 
L 264.805016 176.16068 
L 267.977821 168.247057 
L 271.150626 159.477595 
L 274.323431 149.859331 
L 277.496236 139.43145 
L 280.669041 128.286852 
L 284.899448 112.565549 
L 295.475464 72.5483 
L 298.648269 61.705704 
L 300.763473 55.123669 
L 302.878676 49.350082 
L 305.168378 43.715383 
L 306.694845 40.256489 
L 307.458079 38.858231 
L 310.511014 34.837337 
L 311.274248 33.950753 
L 312.037482 33.253422 
L 313.56395 32.589217 
L 315.090418 32.23538 
L 315.853651 32.201761 
L 316.616885 32.33998 
L 318.143353 33.013796 
L 320.433054 34.737043 
L 321.959522 37.252398 
L 323.48599 38.635782 
L 324.249224 39.809651 
L 328.065393 47.712588 
L 331.118328 54.754207 
L 332.438013 58.683125 
L 332.994465 59.197067 
L 333.550916 60.047412 
L 334.519645 63.870916 
L 334.931922 64.778172 
L 335.344199 65.326159 
L 335.756477 66.065459 
L 336.581031 68.45793 
L 337.405585 70.424214 
L 338.836442 74.505854 
L 339.442744 76.39746 
L 340.049046 77.177985 
L 340.352198 77.801898 
L 341.261651 80.758764 
L 341.820651 81.813715 
L 342.379651 82.577929 
L 342.786427 84.061026 
L 344.006758 86.975291 
L 344.413534 88.655413 
L 344.820311 89.160939 
L 345.68977 91.31994 
L 345.68977 91.31994 
" style="fill:none;stroke:#0000ff;stroke-dasharray:5.55,2.4;stroke-dashoffset:0;stroke-width:1.5;"/>
   </g>
   <g id="line2d_18">
    <path clip-path="url(#pfcee9519e6)" d="M 62.183807 229.874489 
L 169.936429 229.767488 
L 198.695719 229.540859 
L 217.389258 229.177901 
L 230.330939 228.713943 
L 240.396691 228.146155 
L 248.940991 227.44834 
L 256.344203 226.614835 
L 262.689813 225.669973 
L 267.977821 224.66883 
L 273.265829 223.417686 
L 277.496236 222.190615 
L 281.726643 220.715462 
L 284.899448 219.414225 
L 288.072253 217.916155 
L 291.245058 216.190047 
L 294.417863 214.200381 
L 297.590668 211.907254 
L 300.763473 209.268345 
L 303.64191 206.516296 
L 305.931611 204.111611 
L 307.458079 202.38619 
L 311.274248 197.462027 
L 313.56395 194.129105 
L 316.616885 189.278404 
L 319.669821 183.861842 
L 321.196288 180.919787 
L 326.538925 169.903737 
L 328.828627 164.779211 
L 331.881562 157.476671 
L 332.438013 156.08662 
L 333.550916 154.072726 
L 334.519645 151.144252 
L 335.344199 149.489072 
L 336.168754 147.604588 
L 339.442744 139.506323 
L 340.352198 137.947797 
L 341.261651 135.464307 
L 342.379651 133.582447 
L 343.193204 131.478319 
L 343.599981 130.787518 
L 344.006758 129.760578 
L 344.413534 128.390906 
L 344.820311 127.86149 
L 345.68977 125.967468 
L 345.68977 125.967468 
" style="fill:none;stroke:#0000ff;stroke-dasharray:5.55,2.4;stroke-dashoffset:0;stroke-width:1.5;"/>
   </g>
   <g id="line2d_19"/>
   <g id="line2d_20"/>
   <g id="line2d_21"/>
   <g id="line2d_22"/>
   <g id="line2d_23"/>
   <g id="patch_3">
    <path d="M 46.965625 239.758125 
L 46.965625 22.318125 
" style="fill:none;stroke:#000000;stroke-linecap:square;stroke-linejoin:miter;stroke-width:0.8;"/>
   </g>
   <g id="patch_4">
    <path d="M 381.765625 239.758125 
L 381.765625 22.318125 
" style="fill:none;stroke:#000000;stroke-linecap:square;stroke-linejoin:miter;stroke-width:0.8;"/>
   </g>
   <g id="patch_5">
    <path d="M 46.965625 239.758125 
L 381.765625 239.758125 
" style="fill:none;stroke:#000000;stroke-linecap:square;stroke-linejoin:miter;stroke-width:0.8;"/>
   </g>
   <g id="patch_6">
    <path d="M 46.965625 22.318125 
L 381.765625 22.318125 
" style="fill:none;stroke:#000000;stroke-linecap:square;stroke-linejoin:miter;stroke-width:0.8;"/>
   </g>
   <g id="text_16">
    <!-- Experiment_1 -->
    <defs>
     <path d="M 9.8125 72.90625 
L 55.90625 72.90625 
L 55.90625 64.59375 
L 19.671875 64.59375 
L 19.671875 43.015625 
L 54.390625 43.015625 
L 54.390625 34.71875 
L 19.671875 34.71875 
L 19.671875 8.296875 
L 56.78125 8.296875 
L 56.78125 0 
L 9.8125 0 
z
" id="DejaVuSans-69"/>
     <path d="M 54.890625 54.6875 
L 35.109375 28.078125 
L 55.90625 0 
L 45.3125 0 
L 29.390625 21.484375 
L 13.484375 0 
L 2.875 0 
L 24.125 28.609375 
L 4.6875 54.6875 
L 15.28125 54.6875 
L 29.78125 35.203125 
L 44.28125 54.6875 
z
" id="DejaVuSans-120"/>
     <path d="M 41.109375 46.296875 
Q 39.59375 47.171875 37.8125 47.578125 
Q 36.03125 48 33.890625 48 
Q 26.265625 48 22.1875 43.046875 
Q 18.109375 38.09375 18.109375 28.8125 
L 18.109375 0 
L 9.078125 0 
L 9.078125 54.6875 
L 18.109375 54.6875 
L 18.109375 46.1875 
Q 20.953125 51.171875 25.484375 53.578125 
Q 30.03125 56 36.53125 56 
Q 37.453125 56 38.578125 55.875 
Q 39.703125 55.765625 41.0625 55.515625 
z
" id="DejaVuSans-114"/>
     <path d="M 54.890625 33.015625 
L 54.890625 0 
L 45.90625 0 
L 45.90625 32.71875 
Q 45.90625 40.484375 42.875 44.328125 
Q 39.84375 48.1875 33.796875 48.1875 
Q 26.515625 48.1875 22.3125 43.546875 
Q 18.109375 38.921875 18.109375 30.90625 
L 18.109375 0 
L 9.078125 0 
L 9.078125 54.6875 
L 18.109375 54.6875 
L 18.109375 46.1875 
Q 21.34375 51.125 25.703125 53.5625 
Q 30.078125 56 35.796875 56 
Q 45.21875 56 50.046875 50.171875 
Q 54.890625 44.34375 54.890625 33.015625 
z
" id="DejaVuSans-110"/>
     <path d="M 18.3125 70.21875 
L 18.3125 54.6875 
L 36.8125 54.6875 
L 36.8125 47.703125 
L 18.3125 47.703125 
L 18.3125 18.015625 
Q 18.3125 11.328125 20.140625 9.421875 
Q 21.96875 7.515625 27.59375 7.515625 
L 36.8125 7.515625 
L 36.8125 0 
L 27.59375 0 
Q 17.1875 0 13.234375 3.875 
Q 9.28125 7.765625 9.28125 18.015625 
L 9.28125 47.703125 
L 2.6875 47.703125 
L 2.6875 54.6875 
L 9.28125 54.6875 
L 9.28125 70.21875 
z
" id="DejaVuSans-116"/>
     <path d="M 50.984375 -16.609375 
L 50.984375 -23.578125 
L -0.984375 -23.578125 
L -0.984375 -16.609375 
z
" id="DejaVuSans-95"/>
    </defs>
    <g transform="translate(172.880313 16.318125)scale(0.12 -0.12)">
     <use xlink:href="#DejaVuSans-69"/>
     <use x="63.183594" xlink:href="#DejaVuSans-120"/>
     <use x="122.363281" xlink:href="#DejaVuSans-112"/>
     <use x="185.839844" xlink:href="#DejaVuSans-101"/>
     <use x="247.363281" xlink:href="#DejaVuSans-114"/>
     <use x="288.476562" xlink:href="#DejaVuSans-105"/>
     <use x="316.259766" xlink:href="#DejaVuSans-109"/>
     <use x="413.671875" xlink:href="#DejaVuSans-101"/>
     <use x="475.195312" xlink:href="#DejaVuSans-110"/>
     <use x="538.574219" xlink:href="#DejaVuSans-116"/>
     <use x="577.783203" xlink:href="#DejaVuSans-95"/>
     <use x="627.783203" xlink:href="#DejaVuSans-49"/>
    </g>
   </g>
   <g id="legend_1">
    <g id="patch_7">
     <path d="M 53.965625 89.0525 
L 289.840625 89.0525 
Q 291.840625 89.0525 291.840625 87.0525 
L 291.840625 29.318125 
Q 291.840625 27.318125 289.840625 27.318125 
L 53.965625 27.318125 
Q 51.965625 27.318125 51.965625 29.318125 
L 51.965625 87.0525 
Q 51.965625 89.0525 53.965625 89.0525 
z
" style="fill:#ffffff;opacity:0.8;stroke:#cccccc;stroke-linejoin:miter;"/>
    </g>
    <g id="line2d_24">
     <path d="M 55.965625 35.416562 
L 75.965625 35.416562 
" style="fill:none;stroke:#0000ff;stroke-linecap:square;stroke-width:1.5;"/>
    </g>
    <g id="line2d_25"/>
    <g id="text_17">
     <!-- MSI -->
     <defs>
      <path d="M 9.8125 72.90625 
L 24.515625 72.90625 
L 43.109375 23.296875 
L 61.8125 72.90625 
L 76.515625 72.90625 
L 76.515625 0 
L 66.890625 0 
L 66.890625 64.015625 
L 48.09375 14.015625 
L 38.1875 14.015625 
L 19.390625 64.015625 
L 19.390625 0 
L 9.8125 0 
z
" id="DejaVuSans-77"/>
      <path d="M 53.515625 70.515625 
L 53.515625 60.890625 
Q 47.90625 63.578125 42.921875 64.890625 
Q 37.9375 66.21875 33.296875 66.21875 
Q 25.25 66.21875 20.875 63.09375 
Q 16.5 59.96875 16.5 54.203125 
Q 16.5 49.359375 19.40625 46.890625 
Q 22.3125 44.4375 30.421875 42.921875 
L 36.375 41.703125 
Q 47.40625 39.59375 52.65625 34.296875 
Q 57.90625 29 57.90625 20.125 
Q 57.90625 9.515625 50.796875 4.046875 
Q 43.703125 -1.421875 29.984375 -1.421875 
Q 24.8125 -1.421875 18.96875 -0.25 
Q 13.140625 0.921875 6.890625 3.21875 
L 6.890625 13.375 
Q 12.890625 10.015625 18.65625 8.296875 
Q 24.421875 6.59375 29.984375 6.59375 
Q 38.421875 6.59375 43.015625 9.90625 
Q 47.609375 13.234375 47.609375 19.390625 
Q 47.609375 24.75 44.3125 27.78125 
Q 41.015625 30.8125 33.5 32.328125 
L 27.484375 33.5 
Q 16.453125 35.6875 11.515625 40.375 
Q 6.59375 45.0625 6.59375 53.421875 
Q 6.59375 63.09375 13.40625 68.65625 
Q 20.21875 74.21875 32.171875 74.21875 
Q 37.3125 74.21875 42.625 73.28125 
Q 47.953125 72.359375 53.515625 70.515625 
z
" id="DejaVuSans-83"/>
      <path d="M 9.8125 72.90625 
L 19.671875 72.90625 
L 19.671875 0 
L 9.8125 0 
z
" id="DejaVuSans-73"/>
     </defs>
     <g transform="translate(83.965625 38.916562)scale(0.1 -0.1)">
      <use xlink:href="#DejaVuSans-77"/>
      <use x="86.279297" xlink:href="#DejaVuSans-83"/>
      <use x="149.755859" xlink:href="#DejaVuSans-73"/>
     </g>
    </g>
    <g id="line2d_26">
     <path d="M 55.965625 50.09625 
L 75.965625 50.09625 
" style="fill:none;stroke:#ff0000;stroke-linecap:square;stroke-width:1.5;"/>
    </g>
    <g id="line2d_27"/>
    <g id="text_18">
     <!-- $\it{A priori}$ model -->
     <defs>
      <path d="M 36.8125 72.90625 
L 48 72.90625 
L 61.53125 0 
L 51.21875 0 
L 48.1875 18.703125 
L 15.375 18.703125 
L 5.078125 0 
L -5.328125 0 
z
M 40.375 63.1875 
L 19.921875 26.90625 
L 46.6875 26.90625 
z
" id="DejaVuSans-Oblique-65"/>
      <path d="M 49.609375 33.6875 
Q 49.609375 40.875 46.484375 44.671875 
Q 43.359375 48.484375 37.5 48.484375 
Q 33.5 48.484375 29.859375 46.4375 
Q 26.21875 44.390625 23.390625 40.484375 
Q 20.609375 36.625 18.9375 31.15625 
Q 17.28125 25.6875 17.28125 20.3125 
Q 17.28125 13.484375 20.40625 9.796875 
Q 23.53125 6.109375 29.296875 6.109375 
Q 33.546875 6.109375 37.1875 8.109375 
Q 40.828125 10.109375 43.40625 13.921875 
Q 46.1875 17.921875 47.890625 23.34375 
Q 49.609375 28.765625 49.609375 33.6875 
z
M 21.78125 46.390625 
Q 25.390625 51.125 30.296875 53.5625 
Q 35.203125 56 41.21875 56 
Q 49.609375 56 54.25 50.5 
Q 58.890625 45.015625 58.890625 35.109375 
Q 58.890625 27 56 19.65625 
Q 53.125 12.3125 47.703125 6.5 
Q 44.09375 2.640625 39.546875 0.609375 
Q 35.015625 -1.421875 29.984375 -1.421875 
Q 24.171875 -1.421875 20.21875 1 
Q 16.265625 3.421875 14.3125 8.203125 
L 8.6875 -20.796875 
L -0.296875 -20.796875 
L 14.40625 54.6875 
L 23.390625 54.6875 
z
" id="DejaVuSans-Oblique-112"/>
      <path d="M 44.578125 46.390625 
Q 43.21875 47.125 41.453125 47.515625 
Q 39.703125 47.90625 37.703125 47.90625 
Q 30.515625 47.90625 25.140625 42.453125 
Q 19.78125 37.015625 18.015625 27.875 
L 12.5 0 
L 3.515625 0 
L 14.203125 54.6875 
L 23.1875 54.6875 
L 21.484375 46.1875 
Q 25.046875 50.921875 30 53.453125 
Q 34.96875 56 40.578125 56 
Q 42.046875 56 43.453125 55.828125 
Q 44.875 55.671875 46.296875 55.28125 
z
" id="DejaVuSans-Oblique-114"/>
      <path d="M 18.3125 75.984375 
L 27.296875 75.984375 
L 25.09375 64.59375 
L 16.109375 64.59375 
z
M 14.203125 54.6875 
L 23.1875 54.6875 
L 12.5 0 
L 3.515625 0 
z
" id="DejaVuSans-Oblique-105"/>
      <path d="M 25.390625 -1.421875 
Q 15.765625 -1.421875 10.171875 4.515625 
Q 4.59375 10.453125 4.59375 20.703125 
Q 4.59375 26.65625 6.515625 32.828125 
Q 8.453125 39.015625 11.53125 43.21875 
Q 16.359375 49.75 22.3125 52.875 
Q 28.265625 56 35.796875 56 
Q 45.125 56 50.859375 50.1875 
Q 56.59375 44.390625 56.59375 35.015625 
Q 56.59375 28.515625 54.6875 22.0625 
Q 52.78125 15.625 49.703125 11.375 
Q 44.921875 4.828125 38.96875 1.703125 
Q 33.015625 -1.421875 25.390625 -1.421875 
z
M 13.921875 21 
Q 13.921875 13.578125 17.015625 9.890625 
Q 20.125 6.203125 26.421875 6.203125 
Q 35.453125 6.203125 41.375 14.078125 
Q 47.3125 21.96875 47.3125 34.078125 
Q 47.3125 41.15625 44.140625 44.765625 
Q 40.96875 48.390625 34.8125 48.390625 
Q 29.734375 48.390625 25.78125 46.015625 
Q 21.828125 43.65625 18.703125 38.8125 
Q 16.40625 35.203125 15.15625 30.5625 
Q 13.921875 25.921875 13.921875 21 
z
" id="DejaVuSans-Oblique-111"/>
      <path d="M 30.609375 48.390625 
Q 23.390625 48.390625 19.1875 42.75 
Q 14.984375 37.109375 14.984375 27.296875 
Q 14.984375 17.484375 19.15625 11.84375 
Q 23.34375 6.203125 30.609375 6.203125 
Q 37.796875 6.203125 41.984375 11.859375 
Q 46.1875 17.53125 46.1875 27.296875 
Q 46.1875 37.015625 41.984375 42.703125 
Q 37.796875 48.390625 30.609375 48.390625 
z
M 30.609375 56 
Q 42.328125 56 49.015625 48.375 
Q 55.71875 40.765625 55.71875 27.296875 
Q 55.71875 13.875 49.015625 6.21875 
Q 42.328125 -1.421875 30.609375 -1.421875 
Q 18.84375 -1.421875 12.171875 6.21875 
Q 5.515625 13.875 5.515625 27.296875 
Q 5.515625 40.765625 12.171875 48.375 
Q 18.84375 56 30.609375 56 
z
" id="DejaVuSans-111"/>
      <path d="M 45.40625 46.390625 
L 45.40625 75.984375 
L 54.390625 75.984375 
L 54.390625 0 
L 45.40625 0 
L 45.40625 8.203125 
Q 42.578125 3.328125 38.25 0.953125 
Q 33.9375 -1.421875 27.875 -1.421875 
Q 17.96875 -1.421875 11.734375 6.484375 
Q 5.515625 14.40625 5.515625 27.296875 
Q 5.515625 40.1875 11.734375 48.09375 
Q 17.96875 56 27.875 56 
Q 33.9375 56 38.25 53.625 
Q 42.578125 51.265625 45.40625 46.390625 
z
M 14.796875 27.296875 
Q 14.796875 17.390625 18.875 11.75 
Q 22.953125 6.109375 30.078125 6.109375 
Q 37.203125 6.109375 41.296875 11.75 
Q 45.40625 17.390625 45.40625 27.296875 
Q 45.40625 37.203125 41.296875 42.84375 
Q 37.203125 48.484375 30.078125 48.484375 
Q 22.953125 48.484375 18.875 42.84375 
Q 14.796875 37.203125 14.796875 27.296875 
z
" id="DejaVuSans-100"/>
      <path d="M 9.421875 75.984375 
L 18.40625 75.984375 
L 18.40625 0 
L 9.421875 0 
z
" id="DejaVuSans-108"/>
     </defs>
     <g transform="translate(83.965625 53.59625)scale(0.1 -0.1)">
      <use transform="translate(0 0.015625)" xlink:href="#DejaVuSans-Oblique-65"/>
      <use transform="translate(68.408203 0.015625)" xlink:href="#DejaVuSans-Oblique-112"/>
      <use transform="translate(131.884766 0.015625)" xlink:href="#DejaVuSans-Oblique-114"/>
      <use transform="translate(172.998047 0.015625)" xlink:href="#DejaVuSans-Oblique-105"/>
      <use transform="translate(200.78125 0.015625)" xlink:href="#DejaVuSans-Oblique-111"/>
      <use transform="translate(261.962891 0.015625)" xlink:href="#DejaVuSans-Oblique-114"/>
      <use transform="translate(303.076172 0.015625)" xlink:href="#DejaVuSans-Oblique-105"/>
      <use transform="translate(330.859375 0.015625)" xlink:href="#DejaVuSans-32"/>
      <use transform="translate(362.646484 0.015625)" xlink:href="#DejaVuSans-109"/>
      <use transform="translate(460.058594 0.015625)" xlink:href="#DejaVuSans-111"/>
      <use transform="translate(521.240234 0.015625)" xlink:href="#DejaVuSans-100"/>
      <use transform="translate(584.716797 0.015625)" xlink:href="#DejaVuSans-101"/>
      <use transform="translate(646.240234 0.015625)" xlink:href="#DejaVuSans-108"/>
     </g>
    </g>
    <g id="line2d_28"/>
    <g id="line2d_29">
     <g>
      <use style="stroke:#000000;" x="65.965625" xlink:href="#m232271dc5c" y="64.794687"/>
     </g>
    </g>
    <g id="text_19">
     <!-- Experimental Data -->
     <defs>
      <path d="M 34.28125 27.484375 
Q 23.390625 27.484375 19.1875 25 
Q 14.984375 22.515625 14.984375 16.5 
Q 14.984375 11.71875 18.140625 8.90625 
Q 21.296875 6.109375 26.703125 6.109375 
Q 34.1875 6.109375 38.703125 11.40625 
Q 43.21875 16.703125 43.21875 25.484375 
L 43.21875 27.484375 
z
M 52.203125 31.203125 
L 52.203125 0 
L 43.21875 0 
L 43.21875 8.296875 
Q 40.140625 3.328125 35.546875 0.953125 
Q 30.953125 -1.421875 24.3125 -1.421875 
Q 15.921875 -1.421875 10.953125 3.296875 
Q 6 8.015625 6 15.921875 
Q 6 25.140625 12.171875 29.828125 
Q 18.359375 34.515625 30.609375 34.515625 
L 43.21875 34.515625 
L 43.21875 35.40625 
Q 43.21875 41.609375 39.140625 45 
Q 35.0625 48.390625 27.6875 48.390625 
Q 23 48.390625 18.546875 47.265625 
Q 14.109375 46.140625 10.015625 43.890625 
L 10.015625 52.203125 
Q 14.9375 54.109375 19.578125 55.046875 
Q 24.21875 56 28.609375 56 
Q 40.484375 56 46.34375 49.84375 
Q 52.203125 43.703125 52.203125 31.203125 
z
" id="DejaVuSans-97"/>
      <path d="M 19.671875 64.796875 
L 19.671875 8.109375 
L 31.59375 8.109375 
Q 46.6875 8.109375 53.6875 14.9375 
Q 60.6875 21.78125 60.6875 36.53125 
Q 60.6875 51.171875 53.6875 57.984375 
Q 46.6875 64.796875 31.59375 64.796875 
z
M 9.8125 72.90625 
L 30.078125 72.90625 
Q 51.265625 72.90625 61.171875 64.09375 
Q 71.09375 55.28125 71.09375 36.53125 
Q 71.09375 17.671875 61.125 8.828125 
Q 51.171875 0 30.078125 0 
L 9.8125 0 
z
" id="DejaVuSans-68"/>
     </defs>
     <g transform="translate(83.965625 68.294687)scale(0.1 -0.1)">
      <use xlink:href="#DejaVuSans-69"/>
      <use x="63.183594" xlink:href="#DejaVuSans-120"/>
      <use x="122.363281" xlink:href="#DejaVuSans-112"/>
      <use x="185.839844" xlink:href="#DejaVuSans-101"/>
      <use x="247.363281" xlink:href="#DejaVuSans-114"/>
      <use x="288.476562" xlink:href="#DejaVuSans-105"/>
      <use x="316.259766" xlink:href="#DejaVuSans-109"/>
      <use x="413.671875" xlink:href="#DejaVuSans-101"/>
      <use x="475.195312" xlink:href="#DejaVuSans-110"/>
      <use x="538.574219" xlink:href="#DejaVuSans-116"/>
      <use x="577.783203" xlink:href="#DejaVuSans-97"/>
      <use x="639.0625" xlink:href="#DejaVuSans-108"/>
      <use x="666.845703" xlink:href="#DejaVuSans-32"/>
      <use x="698.632812" xlink:href="#DejaVuSans-68"/>
      <use x="775.634766" xlink:href="#DejaVuSans-97"/>
      <use x="836.914062" xlink:href="#DejaVuSans-116"/>
      <use x="876.123047" xlink:href="#DejaVuSans-97"/>
     </g>
    </g>
    <g id="line2d_30">
     <path d="M 55.965625 79.472812 
L 75.965625 79.472812 
" style="fill:none;stroke:#ffffff;stroke-linecap:square;stroke-width:1.5;"/>
    </g>
    <g id="line2d_31"/>
    <g id="text_20">
     <!-- T:1635 -->
     <defs>
      <path d="M 11.71875 12.40625 
L 22.015625 12.40625 
L 22.015625 0 
L 11.71875 0 
z
M 11.71875 51.703125 
L 22.015625 51.703125 
L 22.015625 39.3125 
L 11.71875 39.3125 
z
" id="DejaVuSans-58"/>
     </defs>
     <g transform="translate(83.965625 82.972812)scale(0.1 -0.1)">
      <use xlink:href="#DejaVuSans-84"/>
      <use x="60.912109" xlink:href="#DejaVuSans-58"/>
      <use x="94.603516" xlink:href="#DejaVuSans-49"/>
      <use x="158.226562" xlink:href="#DejaVuSans-54"/>
      <use x="221.849609" xlink:href="#DejaVuSans-51"/>
      <use x="285.472656" xlink:href="#DejaVuSans-53"/>
     </g>
    </g>
    <g id="line2d_32">
     <path d="M 197.70625 35.416562 
L 217.70625 35.416562 
" style="fill:none;stroke:#ffffff;stroke-linecap:square;stroke-width:1.5;"/>
    </g>
    <g id="line2d_33"/>
    <g id="text_21">
     <!-- P:1.1 -->
     <defs>
      <path d="M 19.671875 64.796875 
L 19.671875 37.40625 
L 32.078125 37.40625 
Q 38.96875 37.40625 42.71875 40.96875 
Q 46.484375 44.53125 46.484375 51.125 
Q 46.484375 57.671875 42.71875 61.234375 
Q 38.96875 64.796875 32.078125 64.796875 
z
M 9.8125 72.90625 
L 32.078125 72.90625 
Q 44.34375 72.90625 50.609375 67.359375 
Q 56.890625 61.8125 56.890625 51.125 
Q 56.890625 40.328125 50.609375 34.8125 
Q 44.34375 29.296875 32.078125 29.296875 
L 19.671875 29.296875 
L 19.671875 0 
L 9.8125 0 
z
" id="DejaVuSans-80"/>
     </defs>
     <g transform="translate(225.70625 38.916562)scale(0.1 -0.1)">
      <use xlink:href="#DejaVuSans-80"/>
      <use x="60.302734" xlink:href="#DejaVuSans-58"/>
      <use x="93.994141" xlink:href="#DejaVuSans-49"/>
      <use x="157.617188" xlink:href="#DejaVuSans-46"/>
      <use x="189.404297" xlink:href="#DejaVuSans-49"/>
     </g>
    </g>
    <g id="line2d_34">
     <path d="M 197.70625 50.094687 
L 217.70625 50.094687 
" style="fill:none;stroke:#ffffff;stroke-linecap:square;stroke-width:1.5;"/>
    </g>
    <g id="line2d_35"/>
    <g id="text_22">
     <!-- O2: 0.00317 -->
     <defs>
      <path d="M 8.203125 72.90625 
L 55.078125 72.90625 
L 55.078125 68.703125 
L 28.609375 0 
L 18.3125 0 
L 43.21875 64.59375 
L 8.203125 64.59375 
z
" id="DejaVuSans-55"/>
     </defs>
     <g transform="translate(225.70625 53.594687)scale(0.1 -0.1)">
      <use xlink:href="#DejaVuSans-79"/>
      <use x="78.710938" xlink:href="#DejaVuSans-50"/>
      <use x="142.333984" xlink:href="#DejaVuSans-58"/>
      <use x="176.025391" xlink:href="#DejaVuSans-32"/>
      <use x="207.8125" xlink:href="#DejaVuSans-48"/>
      <use x="271.435547" xlink:href="#DejaVuSans-46"/>
      <use x="303.222656" xlink:href="#DejaVuSans-48"/>
      <use x="366.845703" xlink:href="#DejaVuSans-48"/>
      <use x="430.46875" xlink:href="#DejaVuSans-51"/>
      <use x="494.091797" xlink:href="#DejaVuSans-49"/>
      <use x="557.714844" xlink:href="#DejaVuSans-55"/>
     </g>
    </g>
    <g id="line2d_36">
     <path d="M 197.70625 64.772812 
L 217.70625 64.772812 
" style="fill:none;stroke:#ffffff;stroke-linecap:square;stroke-width:1.5;"/>
    </g>
    <g id="line2d_37"/>
    <g id="text_23">
     <!-- H2: 0.0381 -->
     <g transform="translate(225.70625 68.272812)scale(0.1 -0.1)">
      <use xlink:href="#DejaVuSans-72"/>
      <use x="75.195312" xlink:href="#DejaVuSans-50"/>
      <use x="138.818359" xlink:href="#DejaVuSans-58"/>
      <use x="172.509766" xlink:href="#DejaVuSans-32"/>
      <use x="204.296875" xlink:href="#DejaVuSans-48"/>
      <use x="267.919922" xlink:href="#DejaVuSans-46"/>
      <use x="299.707031" xlink:href="#DejaVuSans-48"/>
      <use x="363.330078" xlink:href="#DejaVuSans-51"/>
      <use x="426.953125" xlink:href="#DejaVuSans-56"/>
      <use x="490.576172" xlink:href="#DejaVuSans-49"/>
     </g>
    </g>
    <g id="line2d_38">
     <path d="M 197.70625 79.450937 
L 217.70625 79.450937 
" style="fill:none;stroke:#ffffff;stroke-linecap:square;stroke-width:1.5;"/>
    </g>
    <g id="line2d_39"/>
    <g id="text_24">
     <!-- Ar: 0.95873 -->
     <defs>
      <path d="M 34.1875 63.1875 
L 20.796875 26.90625 
L 47.609375 26.90625 
z
M 28.609375 72.90625 
L 39.796875 72.90625 
L 67.578125 0 
L 57.328125 0 
L 50.6875 18.703125 
L 17.828125 18.703125 
L 11.1875 0 
L 0.78125 0 
z
" id="DejaVuSans-65"/>
      <path d="M 10.984375 1.515625 
L 10.984375 10.5 
Q 14.703125 8.734375 18.5 7.8125 
Q 22.3125 6.890625 25.984375 6.890625 
Q 35.75 6.890625 40.890625 13.453125 
Q 46.046875 20.015625 46.78125 33.40625 
Q 43.953125 29.203125 39.59375 26.953125 
Q 35.25 24.703125 29.984375 24.703125 
Q 19.046875 24.703125 12.671875 31.3125 
Q 6.296875 37.9375 6.296875 49.421875 
Q 6.296875 60.640625 12.9375 67.421875 
Q 19.578125 74.21875 30.609375 74.21875 
Q 43.265625 74.21875 49.921875 64.515625 
Q 56.59375 54.828125 56.59375 36.375 
Q 56.59375 19.140625 48.40625 8.859375 
Q 40.234375 -1.421875 26.421875 -1.421875 
Q 22.703125 -1.421875 18.890625 -0.6875 
Q 15.09375 0.046875 10.984375 1.515625 
z
M 30.609375 32.421875 
Q 37.25 32.421875 41.125 36.953125 
Q 45.015625 41.5 45.015625 49.421875 
Q 45.015625 57.28125 41.125 61.84375 
Q 37.25 66.40625 30.609375 66.40625 
Q 23.96875 66.40625 20.09375 61.84375 
Q 16.21875 57.28125 16.21875 49.421875 
Q 16.21875 41.5 20.09375 36.953125 
Q 23.96875 32.421875 30.609375 32.421875 
z
" id="DejaVuSans-57"/>
     </defs>
     <g transform="translate(225.70625 82.950937)scale(0.1 -0.1)">
      <use xlink:href="#DejaVuSans-65"/>
      <use x="68.408203" xlink:href="#DejaVuSans-114"/>
      <use x="109.505859" xlink:href="#DejaVuSans-58"/>
      <use x="143.197266" xlink:href="#DejaVuSans-32"/>
      <use x="174.984375" xlink:href="#DejaVuSans-48"/>
      <use x="238.607422" xlink:href="#DejaVuSans-46"/>
      <use x="270.394531" xlink:href="#DejaVuSans-57"/>
      <use x="334.017578" xlink:href="#DejaVuSans-53"/>
      <use x="397.640625" xlink:href="#DejaVuSans-56"/>
      <use x="461.263672" xlink:href="#DejaVuSans-55"/>
      <use x="524.886719" xlink:href="#DejaVuSans-51"/>
     </g>
    </g>
   </g>
  </g>
 </g>
 <defs>
  <clipPath id="pfcee9519e6">
   <rect height="217.44" width="334.8" x="46.965625" y="22.318125"/>
  </clipPath>
 </defs>
</svg>
