<?xml version="1.0" encoding="utf-8" standalone="no"?>
<!DOCTYPE svg PUBLIC "-//W3C//DTD SVG 1.1//EN"
  "http://www.w3.org/Graphics/SVG/1.1/DTD/svg11.dtd">
<!-- Created with matplotlib (https://matplotlib.org/) -->
<svg height="277.314375pt" version="1.1" viewBox="0 0 392.465625 277.314375" width="392.465625pt" xmlns="http://www.w3.org/2000/svg" xmlns:xlink="http://www.w3.org/1999/xlink">
 <defs>
  <style type="text/css">
*{stroke-linecap:butt;stroke-linejoin:round;}
  </style>
 </defs>
 <g id="figure_1">
  <g id="patch_1">
   <path d="M 0 277.314375 
L 392.465625 277.314375 
L 392.465625 0 
L 0 0 
z
" style="fill:none;"/>
  </g>
  <g id="axes_1">
   <g id="patch_2">
    <path d="M 46.965625 239.758125 
L 381.765625 239.758125 
L 381.765625 22.318125 
L 46.965625 22.318125 
z
" style="fill:none;"/>
   </g>
   <g id="matplotlib.axis_1">
    <g id="xtick_1">
     <g id="line2d_1">
      <defs>
       <path d="M 0 0 
L 0 3.5 
" id="m669dcf202f" style="stroke:#000000;stroke-width:0.8;"/>
      </defs>
      <g>
       <use style="stroke:#000000;stroke-width:0.8;" x="62.183807" xlink:href="#m669dcf202f" y="239.758125"/>
      </g>
     </g>
     <g id="text_1">
      <!-- 0.00 -->
      <defs>
       <path d="M 31.78125 66.40625 
Q 24.171875 66.40625 20.328125 58.90625 
Q 16.5 51.421875 16.5 36.375 
Q 16.5 21.390625 20.328125 13.890625 
Q 24.171875 6.390625 31.78125 6.390625 
Q 39.453125 6.390625 43.28125 13.890625 
Q 47.125 21.390625 47.125 36.375 
Q 47.125 51.421875 43.28125 58.90625 
Q 39.453125 66.40625 31.78125 66.40625 
z
M 31.78125 74.21875 
Q 44.046875 74.21875 50.515625 64.515625 
Q 56.984375 54.828125 56.984375 36.375 
Q 56.984375 17.96875 50.515625 8.265625 
Q 44.046875 -1.421875 31.78125 -1.421875 
Q 19.53125 -1.421875 13.0625 8.265625 
Q 6.59375 17.96875 6.59375 36.375 
Q 6.59375 54.828125 13.0625 64.515625 
Q 19.53125 74.21875 31.78125 74.21875 
z
" id="DejaVuSans-48"/>
       <path d="M 10.6875 12.40625 
L 21 12.40625 
L 21 0 
L 10.6875 0 
z
" id="DejaVuSans-46"/>
      </defs>
      <g transform="translate(51.050994 254.356562)scale(0.1 -0.1)">
       <use xlink:href="#DejaVuSans-48"/>
       <use x="63.623047" xlink:href="#DejaVuSans-46"/>
       <use x="95.410156" xlink:href="#DejaVuSans-48"/>
       <use x="159.033203" xlink:href="#DejaVuSans-48"/>
      </g>
     </g>
    </g>
    <g id="xtick_2">
     <g id="line2d_2">
      <g>
       <use style="stroke:#000000;stroke-width:0.8;" x="122.901646" xlink:href="#m669dcf202f" y="239.758125"/>
      </g>
     </g>
     <g id="text_2">
      <!-- 0.02 -->
      <defs>
       <path d="M 19.1875 8.296875 
L 53.609375 8.296875 
L 53.609375 0 
L 7.328125 0 
L 7.328125 8.296875 
Q 12.9375 14.109375 22.625 23.890625 
Q 32.328125 33.6875 34.8125 36.53125 
Q 39.546875 41.84375 41.421875 45.53125 
Q 43.3125 49.21875 43.3125 52.78125 
Q 43.3125 58.59375 39.234375 62.25 
Q 35.15625 65.921875 28.609375 65.921875 
Q 23.96875 65.921875 18.8125 64.3125 
Q 13.671875 62.703125 7.8125 59.421875 
L 7.8125 69.390625 
Q 13.765625 71.78125 18.9375 73 
Q 24.125 74.21875 28.421875 74.21875 
Q 39.75 74.21875 46.484375 68.546875 
Q 53.21875 62.890625 53.21875 53.421875 
Q 53.21875 48.921875 51.53125 44.890625 
Q 49.859375 40.875 45.40625 35.40625 
Q 44.1875 33.984375 37.640625 27.21875 
Q 31.109375 20.453125 19.1875 8.296875 
z
" id="DejaVuSans-50"/>
      </defs>
      <g transform="translate(111.768833 254.356562)scale(0.1 -0.1)">
       <use xlink:href="#DejaVuSans-48"/>
       <use x="63.623047" xlink:href="#DejaVuSans-46"/>
       <use x="95.410156" xlink:href="#DejaVuSans-48"/>
       <use x="159.033203" xlink:href="#DejaVuSans-50"/>
      </g>
     </g>
    </g>
    <g id="xtick_3">
     <g id="line2d_3">
      <g>
       <use style="stroke:#000000;stroke-width:0.8;" x="183.619484" xlink:href="#m669dcf202f" y="239.758125"/>
      </g>
     </g>
     <g id="text_3">
      <!-- 0.04 -->
      <defs>
       <path d="M 37.796875 64.3125 
L 12.890625 25.390625 
L 37.796875 25.390625 
z
M 35.203125 72.90625 
L 47.609375 72.90625 
L 47.609375 25.390625 
L 58.015625 25.390625 
L 58.015625 17.1875 
L 47.609375 17.1875 
L 47.609375 0 
L 37.796875 0 
L 37.796875 17.1875 
L 4.890625 17.1875 
L 4.890625 26.703125 
z
" id="DejaVuSans-52"/>
      </defs>
      <g transform="translate(172.486672 254.356562)scale(0.1 -0.1)">
       <use xlink:href="#DejaVuSans-48"/>
       <use x="63.623047" xlink:href="#DejaVuSans-46"/>
       <use x="95.410156" xlink:href="#DejaVuSans-48"/>
       <use x="159.033203" xlink:href="#DejaVuSans-52"/>
      </g>
     </g>
    </g>
    <g id="xtick_4">
     <g id="line2d_4">
      <g>
       <use style="stroke:#000000;stroke-width:0.8;" x="244.337323" xlink:href="#m669dcf202f" y="239.758125"/>
      </g>
     </g>
     <g id="text_4">
      <!-- 0.06 -->
      <defs>
       <path d="M 33.015625 40.375 
Q 26.375 40.375 22.484375 35.828125 
Q 18.609375 31.296875 18.609375 23.390625 
Q 18.609375 15.53125 22.484375 10.953125 
Q 26.375 6.390625 33.015625 6.390625 
Q 39.65625 6.390625 43.53125 10.953125 
Q 47.40625 15.53125 47.40625 23.390625 
Q 47.40625 31.296875 43.53125 35.828125 
Q 39.65625 40.375 33.015625 40.375 
z
M 52.59375 71.296875 
L 52.59375 62.3125 
Q 48.875 64.0625 45.09375 64.984375 
Q 41.3125 65.921875 37.59375 65.921875 
Q 27.828125 65.921875 22.671875 59.328125 
Q 17.53125 52.734375 16.796875 39.40625 
Q 19.671875 43.65625 24.015625 45.921875 
Q 28.375 48.1875 33.59375 48.1875 
Q 44.578125 48.1875 50.953125 41.515625 
Q 57.328125 34.859375 57.328125 23.390625 
Q 57.328125 12.15625 50.6875 5.359375 
Q 44.046875 -1.421875 33.015625 -1.421875 
Q 20.359375 -1.421875 13.671875 8.265625 
Q 6.984375 17.96875 6.984375 36.375 
Q 6.984375 53.65625 15.1875 63.9375 
Q 23.390625 74.21875 37.203125 74.21875 
Q 40.921875 74.21875 44.703125 73.484375 
Q 48.484375 72.75 52.59375 71.296875 
z
" id="DejaVuSans-54"/>
      </defs>
      <g transform="translate(233.204511 254.356562)scale(0.1 -0.1)">
       <use xlink:href="#DejaVuSans-48"/>
       <use x="63.623047" xlink:href="#DejaVuSans-46"/>
       <use x="95.410156" xlink:href="#DejaVuSans-48"/>
       <use x="159.033203" xlink:href="#DejaVuSans-54"/>
      </g>
     </g>
    </g>
    <g id="xtick_5">
     <g id="line2d_5">
      <g>
       <use style="stroke:#000000;stroke-width:0.8;" x="305.055162" xlink:href="#m669dcf202f" y="239.758125"/>
      </g>
     </g>
     <g id="text_5">
      <!-- 0.08 -->
      <defs>
       <path d="M 31.78125 34.625 
Q 24.75 34.625 20.71875 30.859375 
Q 16.703125 27.09375 16.703125 20.515625 
Q 16.703125 13.921875 20.71875 10.15625 
Q 24.75 6.390625 31.78125 6.390625 
Q 38.8125 6.390625 42.859375 10.171875 
Q 46.921875 13.96875 46.921875 20.515625 
Q 46.921875 27.09375 42.890625 30.859375 
Q 38.875 34.625 31.78125 34.625 
z
M 21.921875 38.8125 
Q 15.578125 40.375 12.03125 44.71875 
Q 8.5 49.078125 8.5 55.328125 
Q 8.5 64.0625 14.71875 69.140625 
Q 20.953125 74.21875 31.78125 74.21875 
Q 42.671875 74.21875 48.875 69.140625 
Q 55.078125 64.0625 55.078125 55.328125 
Q 55.078125 49.078125 51.53125 44.71875 
Q 48 40.375 41.703125 38.8125 
Q 48.828125 37.15625 52.796875 32.3125 
Q 56.78125 27.484375 56.78125 20.515625 
Q 56.78125 9.90625 50.3125 4.234375 
Q 43.84375 -1.421875 31.78125 -1.421875 
Q 19.734375 -1.421875 13.25 4.234375 
Q 6.78125 9.90625 6.78125 20.515625 
Q 6.78125 27.484375 10.78125 32.3125 
Q 14.796875 37.15625 21.921875 38.8125 
z
M 18.3125 54.390625 
Q 18.3125 48.734375 21.84375 45.5625 
Q 25.390625 42.390625 31.78125 42.390625 
Q 38.140625 42.390625 41.71875 45.5625 
Q 45.3125 48.734375 45.3125 54.390625 
Q 45.3125 60.0625 41.71875 63.234375 
Q 38.140625 66.40625 31.78125 66.40625 
Q 25.390625 66.40625 21.84375 63.234375 
Q 18.3125 60.0625 18.3125 54.390625 
z
" id="DejaVuSans-56"/>
      </defs>
      <g transform="translate(293.922349 254.356562)scale(0.1 -0.1)">
       <use xlink:href="#DejaVuSans-48"/>
       <use x="63.623047" xlink:href="#DejaVuSans-46"/>
       <use x="95.410156" xlink:href="#DejaVuSans-48"/>
       <use x="159.033203" xlink:href="#DejaVuSans-56"/>
      </g>
     </g>
    </g>
    <g id="xtick_6">
     <g id="line2d_6">
      <g>
       <use style="stroke:#000000;stroke-width:0.8;" x="365.773001" xlink:href="#m669dcf202f" y="239.758125"/>
      </g>
     </g>
     <g id="text_6">
      <!-- 0.10 -->
      <defs>
       <path d="M 12.40625 8.296875 
L 28.515625 8.296875 
L 28.515625 63.921875 
L 10.984375 60.40625 
L 10.984375 69.390625 
L 28.421875 72.90625 
L 38.28125 72.90625 
L 38.28125 8.296875 
L 54.390625 8.296875 
L 54.390625 0 
L 12.40625 0 
z
" id="DejaVuSans-49"/>
      </defs>
      <g transform="translate(354.640188 254.356562)scale(0.1 -0.1)">
       <use xlink:href="#DejaVuSans-48"/>
       <use x="63.623047" xlink:href="#DejaVuSans-46"/>
       <use x="95.410156" xlink:href="#DejaVuSans-49"/>
       <use x="159.033203" xlink:href="#DejaVuSans-48"/>
      </g>
     </g>
    </g>
    <g id="text_7">
     <!-- Time (ms) -->
     <defs>
      <path d="M -0.296875 72.90625 
L 61.375 72.90625 
L 61.375 64.59375 
L 35.5 64.59375 
L 35.5 0 
L 25.59375 0 
L 25.59375 64.59375 
L -0.296875 64.59375 
z
" id="DejaVuSans-84"/>
      <path d="M 9.421875 54.6875 
L 18.40625 54.6875 
L 18.40625 0 
L 9.421875 0 
z
M 9.421875 75.984375 
L 18.40625 75.984375 
L 18.40625 64.59375 
L 9.421875 64.59375 
z
" id="DejaVuSans-105"/>
      <path d="M 52 44.1875 
Q 55.375 50.25 60.0625 53.125 
Q 64.75 56 71.09375 56 
Q 79.640625 56 84.28125 50.015625 
Q 88.921875 44.046875 88.921875 33.015625 
L 88.921875 0 
L 79.890625 0 
L 79.890625 32.71875 
Q 79.890625 40.578125 77.09375 44.375 
Q 74.3125 48.1875 68.609375 48.1875 
Q 61.625 48.1875 57.5625 43.546875 
Q 53.515625 38.921875 53.515625 30.90625 
L 53.515625 0 
L 44.484375 0 
L 44.484375 32.71875 
Q 44.484375 40.625 41.703125 44.40625 
Q 38.921875 48.1875 33.109375 48.1875 
Q 26.21875 48.1875 22.15625 43.53125 
Q 18.109375 38.875 18.109375 30.90625 
L 18.109375 0 
L 9.078125 0 
L 9.078125 54.6875 
L 18.109375 54.6875 
L 18.109375 46.1875 
Q 21.1875 51.21875 25.484375 53.609375 
Q 29.78125 56 35.6875 56 
Q 41.65625 56 45.828125 52.96875 
Q 50 49.953125 52 44.1875 
z
" id="DejaVuSans-109"/>
      <path d="M 56.203125 29.59375 
L 56.203125 25.203125 
L 14.890625 25.203125 
Q 15.484375 15.921875 20.484375 11.0625 
Q 25.484375 6.203125 34.421875 6.203125 
Q 39.59375 6.203125 44.453125 7.46875 
Q 49.3125 8.734375 54.109375 11.28125 
L 54.109375 2.78125 
Q 49.265625 0.734375 44.1875 -0.34375 
Q 39.109375 -1.421875 33.890625 -1.421875 
Q 20.796875 -1.421875 13.15625 6.1875 
Q 5.515625 13.8125 5.515625 26.8125 
Q 5.515625 40.234375 12.765625 48.109375 
Q 20.015625 56 32.328125 56 
Q 43.359375 56 49.78125 48.890625 
Q 56.203125 41.796875 56.203125 29.59375 
z
M 47.21875 32.234375 
Q 47.125 39.59375 43.09375 43.984375 
Q 39.0625 48.390625 32.421875 48.390625 
Q 24.90625 48.390625 20.390625 44.140625 
Q 15.875 39.890625 15.1875 32.171875 
z
" id="DejaVuSans-101"/>
      <path id="DejaVuSans-32"/>
      <path d="M 31 75.875 
Q 24.46875 64.65625 21.28125 53.65625 
Q 18.109375 42.671875 18.109375 31.390625 
Q 18.109375 20.125 21.3125 9.0625 
Q 24.515625 -2 31 -13.1875 
L 23.1875 -13.1875 
Q 15.875 -1.703125 12.234375 9.375 
Q 8.59375 20.453125 8.59375 31.390625 
Q 8.59375 42.28125 12.203125 53.3125 
Q 15.828125 64.359375 23.1875 75.875 
z
" id="DejaVuSans-40"/>
      <path d="M 44.28125 53.078125 
L 44.28125 44.578125 
Q 40.484375 46.53125 36.375 47.5 
Q 32.28125 48.484375 27.875 48.484375 
Q 21.1875 48.484375 17.84375 46.4375 
Q 14.5 44.390625 14.5 40.28125 
Q 14.5 37.15625 16.890625 35.375 
Q 19.28125 33.59375 26.515625 31.984375 
L 29.59375 31.296875 
Q 39.15625 29.25 43.1875 25.515625 
Q 47.21875 21.78125 47.21875 15.09375 
Q 47.21875 7.46875 41.1875 3.015625 
Q 35.15625 -1.421875 24.609375 -1.421875 
Q 20.21875 -1.421875 15.453125 -0.5625 
Q 10.6875 0.296875 5.421875 2 
L 5.421875 11.28125 
Q 10.40625 8.6875 15.234375 7.390625 
Q 20.0625 6.109375 24.8125 6.109375 
Q 31.15625 6.109375 34.5625 8.28125 
Q 37.984375 10.453125 37.984375 14.40625 
Q 37.984375 18.0625 35.515625 20.015625 
Q 33.0625 21.96875 24.703125 23.78125 
L 21.578125 24.515625 
Q 13.234375 26.265625 9.515625 29.90625 
Q 5.8125 33.546875 5.8125 39.890625 
Q 5.8125 47.609375 11.28125 51.796875 
Q 16.75 56 26.8125 56 
Q 31.78125 56 36.171875 55.265625 
Q 40.578125 54.546875 44.28125 53.078125 
z
" id="DejaVuSans-115"/>
      <path d="M 8.015625 75.875 
L 15.828125 75.875 
Q 23.140625 64.359375 26.78125 53.3125 
Q 30.421875 42.28125 30.421875 31.390625 
Q 30.421875 20.453125 26.78125 9.375 
Q 23.140625 -1.703125 15.828125 -13.1875 
L 8.015625 -13.1875 
Q 14.5 -2 17.703125 9.0625 
Q 20.90625 20.125 20.90625 31.390625 
Q 20.90625 42.671875 17.703125 53.65625 
Q 14.5 64.65625 8.015625 75.875 
z
" id="DejaVuSans-41"/>
     </defs>
     <g transform="translate(189.0125 268.034687)scale(0.1 -0.1)">
      <use xlink:href="#DejaVuSans-84"/>
      <use x="61.037109" xlink:href="#DejaVuSans-105"/>
      <use x="88.820312" xlink:href="#DejaVuSans-109"/>
      <use x="186.232422" xlink:href="#DejaVuSans-101"/>
      <use x="247.755859" xlink:href="#DejaVuSans-32"/>
      <use x="279.542969" xlink:href="#DejaVuSans-40"/>
      <use x="318.556641" xlink:href="#DejaVuSans-109"/>
      <use x="415.96875" xlink:href="#DejaVuSans-115"/>
      <use x="468.068359" xlink:href="#DejaVuSans-41"/>
     </g>
    </g>
   </g>
   <g id="matplotlib.axis_2">
    <g id="ytick_1">
     <g id="line2d_7">
      <defs>
       <path d="M 0 0 
L -3.5 0 
" id="m108696a289" style="stroke:#000000;stroke-width:0.8;"/>
      </defs>
      <g>
       <use style="stroke:#000000;stroke-width:0.8;" x="46.965625" xlink:href="#m108696a289" y="229.874489"/>
      </g>
     </g>
     <g id="text_8">
      <!-- 0 -->
      <g transform="translate(33.603125 233.673707)scale(0.1 -0.1)">
       <use xlink:href="#DejaVuSans-48"/>
      </g>
     </g>
    </g>
    <g id="ytick_2">
     <g id="line2d_8">
      <g>
       <use style="stroke:#000000;stroke-width:0.8;" x="46.965625" xlink:href="#m108696a289" y="185.750822"/>
      </g>
     </g>
     <g id="text_9">
      <!-- 100 -->
      <g transform="translate(20.878125 189.55004)scale(0.1 -0.1)">
       <use xlink:href="#DejaVuSans-49"/>
       <use x="63.623047" xlink:href="#DejaVuSans-48"/>
       <use x="127.246094" xlink:href="#DejaVuSans-48"/>
      </g>
     </g>
    </g>
    <g id="ytick_3">
     <g id="line2d_9">
      <g>
       <use style="stroke:#000000;stroke-width:0.8;" x="46.965625" xlink:href="#m108696a289" y="141.627155"/>
      </g>
     </g>
     <g id="text_10">
      <!-- 200 -->
      <g transform="translate(20.878125 145.426374)scale(0.1 -0.1)">
       <use xlink:href="#DejaVuSans-50"/>
       <use x="63.623047" xlink:href="#DejaVuSans-48"/>
       <use x="127.246094" xlink:href="#DejaVuSans-48"/>
      </g>
     </g>
    </g>
    <g id="ytick_4">
     <g id="line2d_10">
      <g>
       <use style="stroke:#000000;stroke-width:0.8;" x="46.965625" xlink:href="#m108696a289" y="97.503488"/>
      </g>
     </g>
     <g id="text_11">
      <!-- 300 -->
      <defs>
       <path d="M 40.578125 39.3125 
Q 47.65625 37.796875 51.625 33 
Q 55.609375 28.21875 55.609375 21.1875 
Q 55.609375 10.40625 48.1875 4.484375 
Q 40.765625 -1.421875 27.09375 -1.421875 
Q 22.515625 -1.421875 17.65625 -0.515625 
Q 12.796875 0.390625 7.625 2.203125 
L 7.625 11.71875 
Q 11.71875 9.328125 16.59375 8.109375 
Q 21.484375 6.890625 26.8125 6.890625 
Q 36.078125 6.890625 40.9375 10.546875 
Q 45.796875 14.203125 45.796875 21.1875 
Q 45.796875 27.640625 41.28125 31.265625 
Q 36.765625 34.90625 28.71875 34.90625 
L 20.21875 34.90625 
L 20.21875 43.015625 
L 29.109375 43.015625 
Q 36.375 43.015625 40.234375 45.921875 
Q 44.09375 48.828125 44.09375 54.296875 
Q 44.09375 59.90625 40.109375 62.90625 
Q 36.140625 65.921875 28.71875 65.921875 
Q 24.65625 65.921875 20.015625 65.03125 
Q 15.375 64.15625 9.8125 62.3125 
L 9.8125 71.09375 
Q 15.4375 72.65625 20.34375 73.4375 
Q 25.25 74.21875 29.59375 74.21875 
Q 40.828125 74.21875 47.359375 69.109375 
Q 53.90625 64.015625 53.90625 55.328125 
Q 53.90625 49.265625 50.4375 45.09375 
Q 46.96875 40.921875 40.578125 39.3125 
z
" id="DejaVuSans-51"/>
      </defs>
      <g transform="translate(20.878125 101.302707)scale(0.1 -0.1)">
       <use xlink:href="#DejaVuSans-51"/>
       <use x="63.623047" xlink:href="#DejaVuSans-48"/>
       <use x="127.246094" xlink:href="#DejaVuSans-48"/>
      </g>
     </g>
    </g>
    <g id="ytick_5">
     <g id="line2d_11">
      <g>
       <use style="stroke:#000000;stroke-width:0.8;" x="46.965625" xlink:href="#m108696a289" y="53.379821"/>
      </g>
     </g>
     <g id="text_12">
      <!-- 400 -->
      <g transform="translate(20.878125 57.17904)scale(0.1 -0.1)">
       <use xlink:href="#DejaVuSans-52"/>
       <use x="63.623047" xlink:href="#DejaVuSans-48"/>
       <use x="127.246094" xlink:href="#DejaVuSans-48"/>
      </g>
     </g>
    </g>
    <g id="text_13">
     <!-- ppmOH -->
     <defs>
      <path d="M 18.109375 8.203125 
L 18.109375 -20.796875 
L 9.078125 -20.796875 
L 9.078125 54.6875 
L 18.109375 54.6875 
L 18.109375 46.390625 
Q 20.953125 51.265625 25.265625 53.625 
Q 29.59375 56 35.59375 56 
Q 45.5625 56 51.78125 48.09375 
Q 58.015625 40.1875 58.015625 27.296875 
Q 58.015625 14.40625 51.78125 6.484375 
Q 45.5625 -1.421875 35.59375 -1.421875 
Q 29.59375 -1.421875 25.265625 0.953125 
Q 20.953125 3.328125 18.109375 8.203125 
z
M 48.6875 27.296875 
Q 48.6875 37.203125 44.609375 42.84375 
Q 40.53125 48.484375 33.40625 48.484375 
Q 26.265625 48.484375 22.1875 42.84375 
Q 18.109375 37.203125 18.109375 27.296875 
Q 18.109375 17.390625 22.1875 11.75 
Q 26.265625 6.109375 33.40625 6.109375 
Q 40.53125 6.109375 44.609375 11.75 
Q 48.6875 17.390625 48.6875 27.296875 
z
" id="DejaVuSans-112"/>
      <path d="M 39.40625 66.21875 
Q 28.65625 66.21875 22.328125 58.203125 
Q 16.015625 50.203125 16.015625 36.375 
Q 16.015625 22.609375 22.328125 14.59375 
Q 28.65625 6.59375 39.40625 6.59375 
Q 50.140625 6.59375 56.421875 14.59375 
Q 62.703125 22.609375 62.703125 36.375 
Q 62.703125 50.203125 56.421875 58.203125 
Q 50.140625 66.21875 39.40625 66.21875 
z
M 39.40625 74.21875 
Q 54.734375 74.21875 63.90625 63.9375 
Q 73.09375 53.65625 73.09375 36.375 
Q 73.09375 19.140625 63.90625 8.859375 
Q 54.734375 -1.421875 39.40625 -1.421875 
Q 24.03125 -1.421875 14.8125 8.828125 
Q 5.609375 19.09375 5.609375 36.375 
Q 5.609375 53.65625 14.8125 63.9375 
Q 24.03125 74.21875 39.40625 74.21875 
z
" id="DejaVuSans-79"/>
      <path d="M 9.8125 72.90625 
L 19.671875 72.90625 
L 19.671875 43.015625 
L 55.515625 43.015625 
L 55.515625 72.90625 
L 65.375 72.90625 
L 65.375 0 
L 55.515625 0 
L 55.515625 34.71875 
L 19.671875 34.71875 
L 19.671875 0 
L 9.8125 0 
z
" id="DejaVuSans-72"/>
     </defs>
     <g transform="translate(14.798438 149.952969)rotate(-90)scale(0.1 -0.1)">
      <use xlink:href="#DejaVuSans-112"/>
      <use x="63.476562" xlink:href="#DejaVuSans-112"/>
      <use x="126.953125" xlink:href="#DejaVuSans-109"/>
      <use x="224.365234" xlink:href="#DejaVuSans-79"/>
      <use x="303.076172" xlink:href="#DejaVuSans-72"/>
     </g>
    </g>
   </g>
   <g id="line2d_12">
    <path clip-path="url(#p6195029372)" d="M 62.183807 229.874489 
L 113.326678 229.769341 
L 139.096288 229.529425 
L 155.49513 229.171968 
L 167.208589 228.718809 
L 176.579357 228.160925 
L 184.778778 227.462802 
L 192.09795 226.610482 
L 199.197975 225.507906 
L 204.76727 224.399654 
L 210.336564 223.025457 
L 214.513534 221.78695 
L 218.690505 220.341189 
L 222.867475 218.659686 
L 227.044446 216.712334 
L 231.221416 214.468213 
L 235.398387 211.896743 
L 239.575358 208.969241 
L 243.752328 205.660897 
L 247.929299 201.953112 
L 252.106269 197.836102 
L 256.28324 193.311528 
L 260.46021 188.394882 
L 264.637181 183.117226 
L 270.141323 175.69351 
L 276.30905 166.91549 
L 292.756324 143.180693 
L 297.896097 136.28439 
L 302.007915 131.10958 
L 306.119733 126.289086 
L 310.231552 121.852973 
L 314.34337 117.816678 
L 317.427234 115.053693 
L 320.638896 112.413504 
L 323.850558 110.008611 
L 327.06222 107.829445 
L 330.273882 105.864426 
L 334.675136 103.495565 
L 338.32792 101.790838 
L 342.148723 100.237072 
L 345.969527 98.894573 
L 349.79033 97.740639 
L 354.884734 96.458663 
L 359.979139 95.427854 
L 365.073543 94.607401 
L 366.347144 94.430895 
L 366.347144 94.430895 
" style="fill:none;stroke:#0000ff;stroke-linecap:square;stroke-width:1.5;"/>
   </g>
   <g id="line2d_13">
    <path clip-path="url(#p6195029372)" d="M 62.183807 229.874489 
L 112.153126 229.764751 
L 136.179379 229.526243 
L 151.796444 229.168029 
L 163.809571 228.6704 
L 173.420073 228.038844 
L 180.627949 227.3627 
L 186.086348 226.69455 
L 191.649732 225.836918 
L 197.459983 224.703944 
L 202.734369 223.416342 
L 206.690158 222.256501 
L 210.645947 220.902802 
L 214.601737 219.328148 
L 218.557526 217.503632 
L 222.513315 215.39917 
L 226.469104 212.984457 
L 230.424894 210.230293 
L 234.380683 207.110305 
L 238.336472 203.603059 
L 242.292262 199.69448 
L 246.476704 195.118784 
L 250.297833 190.552602 
L 254.118961 185.637696 
L 258.895372 179.058106 
L 263.671782 172.087413 
L 271.314039 160.449295 
L 280.86686 145.916449 
L 285.64327 139.011507 
L 290.419681 132.522087 
L 294.240809 127.694387 
L 298.061938 123.226561 
L 302.001397 119.017166 
L 305.382888 115.730673 
L 308.780919 112.729291 
L 312.17895 110.021316 
L 315.57698 107.593876 
L 318.975011 105.430936 
L 322.373042 103.51437 
L 325.771073 101.824892 
L 329.169104 100.342817 
L 333.699812 98.655774 
L 338.230519 97.258713 
L 342.761227 96.110742 
L 347.291935 95.174947 
L 352.95532 94.254182 
L 358.618705 93.55945 
L 365.414766 92.960923 
L 366.547443 92.881881 
L 366.547443 92.881881 
" style="fill:none;stroke:#ff0000;stroke-linecap:square;stroke-width:1.5;"/>
   </g>
   <g id="line2d_14">
    <defs>
     <path d="M 0 3 
C 0.795609 3 1.55874 2.683901 2.12132 2.12132 
C 2.683901 1.55874 3 0.795609 3 0 
C 3 -0.795609 2.683901 -1.55874 2.12132 -2.12132 
C 1.55874 -2.683901 0.795609 -3 0 -3 
C -0.795609 -3 -1.55874 -2.683901 -2.12132 -2.12132 
C -2.683901 -1.55874 -3 -0.795609 -3 0 
C -3 0.795609 -2.683901 1.55874 -2.12132 2.12132 
C -1.55874 2.683901 -0.795609 3 0 3 
z
" id="maf8416b79b" style="stroke:#000000;"/>
    </defs>
    <g clip-path="url(#p6195029372)">
     <use style="stroke:#000000;" x="62.183807" xlink:href="#maf8416b79b" y="229.874489"/>
     <use style="stroke:#000000;" x="62.184481" xlink:href="#maf8416b79b" y="229.874489"/>
     <use style="stroke:#000000;" x="62.191222" xlink:href="#maf8416b79b" y="229.874489"/>
     <use style="stroke:#000000;" x="62.197963" xlink:href="#maf8416b79b" y="229.874489"/>
     <use style="stroke:#000000;" x="62.204704" xlink:href="#maf8416b79b" y="229.874489"/>
     <use style="stroke:#000000;" x="62.211445" xlink:href="#maf8416b79b" y="229.874489"/>
     <use style="stroke:#000000;" x="62.224865" xlink:href="#maf8416b79b" y="229.874489"/>
     <use style="stroke:#000000;" x="62.249437" xlink:href="#maf8416b79b" y="229.874488"/>
     <use style="stroke:#000000;" x="62.294463" xlink:href="#maf8416b79b" y="229.874488"/>
     <use style="stroke:#000000;" x="62.339489" xlink:href="#maf8416b79b" y="229.874487"/>
     <use style="stroke:#000000;" x="62.384515" xlink:href="#maf8416b79b" y="229.874486"/>
     <use style="stroke:#000000;" x="62.45611" xlink:href="#maf8416b79b" y="229.874484"/>
     <use style="stroke:#000000;" x="62.527704" xlink:href="#maf8416b79b" y="229.874481"/>
     <use style="stroke:#000000;" x="62.599299" xlink:href="#maf8416b79b" y="229.874477"/>
     <use style="stroke:#000000;" x="62.670893" xlink:href="#maf8416b79b" y="229.874473"/>
     <use style="stroke:#000000;" x="62.805446" xlink:href="#maf8416b79b" y="229.874463"/>
     <use style="stroke:#000000;" x="62.939998" xlink:href="#maf8416b79b" y="229.874451"/>
     <use style="stroke:#000000;" x="63.074551" xlink:href="#maf8416b79b" y="229.874436"/>
     <use style="stroke:#000000;" x="63.209104" xlink:href="#maf8416b79b" y="229.874419"/>
     <use style="stroke:#000000;" x="63.343657" xlink:href="#maf8416b79b" y="229.8744"/>
     <use style="stroke:#000000;" x="63.47821" xlink:href="#maf8416b79b" y="229.874379"/>
     <use style="stroke:#000000;" x="63.709641" xlink:href="#maf8416b79b" y="229.874338"/>
     <use style="stroke:#000000;" x="63.941073" xlink:href="#maf8416b79b" y="229.87429"/>
     <use style="stroke:#000000;" x="64.172504" xlink:href="#maf8416b79b" y="229.874236"/>
     <use style="stroke:#000000;" x="64.403936" xlink:href="#maf8416b79b" y="229.874177"/>
     <use style="stroke:#000000;" x="64.635368" xlink:href="#maf8416b79b" y="229.874111"/>
     <use style="stroke:#000000;" x="64.866799" xlink:href="#maf8416b79b" y="229.874041"/>
     <use style="stroke:#000000;" x="65.098231" xlink:href="#maf8416b79b" y="229.873965"/>
     <use style="stroke:#000000;" x="65.329662" xlink:href="#maf8416b79b" y="229.873884"/>
     <use style="stroke:#000000;" x="65.561094" xlink:href="#maf8416b79b" y="229.873799"/>
     <use style="stroke:#000000;" x="65.945211" xlink:href="#maf8416b79b" y="229.873646"/>
     <use style="stroke:#000000;" x="66.329329" xlink:href="#maf8416b79b" y="229.873481"/>
     <use style="stroke:#000000;" x="66.713446" xlink:href="#maf8416b79b" y="229.873305"/>
     <use style="stroke:#000000;" x="67.097564" xlink:href="#maf8416b79b" y="229.873117"/>
     <use style="stroke:#000000;" x="67.481681" xlink:href="#maf8416b79b" y="229.872919"/>
     <use style="stroke:#000000;" x="67.865798" xlink:href="#maf8416b79b" y="229.872711"/>
     <use style="stroke:#000000;" x="68.249916" xlink:href="#maf8416b79b" y="229.872493"/>
     <use style="stroke:#000000;" x="68.634033" xlink:href="#maf8416b79b" y="229.872265"/>
     <use style="stroke:#000000;" x="69.018151" xlink:href="#maf8416b79b" y="229.872028"/>
     <use style="stroke:#000000;" x="69.649914" xlink:href="#maf8416b79b" y="229.87162"/>
     <use style="stroke:#000000;" x="70.281678" xlink:href="#maf8416b79b" y="229.871189"/>
     <use style="stroke:#000000;" x="70.913442" xlink:href="#maf8416b79b" y="229.870736"/>
     <use style="stroke:#000000;" x="71.545206" xlink:href="#maf8416b79b" y="229.870261"/>
     <use style="stroke:#000000;" x="72.17697" xlink:href="#maf8416b79b" y="229.869765"/>
     <use style="stroke:#000000;" x="72.808734" xlink:href="#maf8416b79b" y="229.869248"/>
     <use style="stroke:#000000;" x="73.440497" xlink:href="#maf8416b79b" y="229.868709"/>
     <use style="stroke:#000000;" x="74.072261" xlink:href="#maf8416b79b" y="229.86815"/>
     <use style="stroke:#000000;" x="74.704025" xlink:href="#maf8416b79b" y="229.86757"/>
     <use style="stroke:#000000;" x="75.335789" xlink:href="#maf8416b79b" y="229.866969"/>
     <use style="stroke:#000000;" x="75.967553" xlink:href="#maf8416b79b" y="229.866346"/>
     <use style="stroke:#000000;" x="76.599317" xlink:href="#maf8416b79b" y="229.865702"/>
     <use style="stroke:#000000;" x="77.231081" xlink:href="#maf8416b79b" y="229.865037"/>
     <use style="stroke:#000000;" x="77.862844" xlink:href="#maf8416b79b" y="229.864349"/>
     <use style="stroke:#000000;" x="78.494608" xlink:href="#maf8416b79b" y="229.863639"/>
     <use style="stroke:#000000;" x="79.126372" xlink:href="#maf8416b79b" y="229.862906"/>
     <use style="stroke:#000000;" x="80.076695" xlink:href="#maf8416b79b" y="229.861761"/>
     <use style="stroke:#000000;" x="81.027018" xlink:href="#maf8416b79b" y="229.860561"/>
     <use style="stroke:#000000;" x="81.977342" xlink:href="#maf8416b79b" y="229.859306"/>
     <use style="stroke:#000000;" x="82.927665" xlink:href="#maf8416b79b" y="229.857995"/>
     <use style="stroke:#000000;" x="83.877988" xlink:href="#maf8416b79b" y="229.856624"/>
     <use style="stroke:#000000;" x="84.828311" xlink:href="#maf8416b79b" y="229.855193"/>
     <use style="stroke:#000000;" x="85.778634" xlink:href="#maf8416b79b" y="229.853699"/>
     <use style="stroke:#000000;" x="86.728957" xlink:href="#maf8416b79b" y="229.85214"/>
     <use style="stroke:#000000;" x="87.679281" xlink:href="#maf8416b79b" y="229.850514"/>
     <use style="stroke:#000000;" x="88.629604" xlink:href="#maf8416b79b" y="229.848819"/>
     <use style="stroke:#000000;" x="89.579927" xlink:href="#maf8416b79b" y="229.847051"/>
     <use style="stroke:#000000;" x="90.53025" xlink:href="#maf8416b79b" y="229.845208"/>
     <use style="stroke:#000000;" x="91.480573" xlink:href="#maf8416b79b" y="229.843288"/>
     <use style="stroke:#000000;" x="92.430896" xlink:href="#maf8416b79b" y="229.841288"/>
     <use style="stroke:#000000;" x="93.381219" xlink:href="#maf8416b79b" y="229.839204"/>
     <use style="stroke:#000000;" x="94.331543" xlink:href="#maf8416b79b" y="229.837033"/>
     <use style="stroke:#000000;" x="95.281866" xlink:href="#maf8416b79b" y="229.834772"/>
     <use style="stroke:#000000;" x="96.232189" xlink:href="#maf8416b79b" y="229.832417"/>
     <use style="stroke:#000000;" x="97.182512" xlink:href="#maf8416b79b" y="229.829965"/>
     <use style="stroke:#000000;" x="98.132835" xlink:href="#maf8416b79b" y="229.827413"/>
     <use style="stroke:#000000;" x="99.083158" xlink:href="#maf8416b79b" y="229.824755"/>
     <use style="stroke:#000000;" x="100.033482" xlink:href="#maf8416b79b" y="229.821988"/>
     <use style="stroke:#000000;" x="100.983805" xlink:href="#maf8416b79b" y="229.819107"/>
     <use style="stroke:#000000;" x="101.934128" xlink:href="#maf8416b79b" y="229.816108"/>
     <use style="stroke:#000000;" x="102.884451" xlink:href="#maf8416b79b" y="229.812987"/>
     <use style="stroke:#000000;" x="103.834774" xlink:href="#maf8416b79b" y="229.809738"/>
     <use style="stroke:#000000;" x="104.785097" xlink:href="#maf8416b79b" y="229.806356"/>
     <use style="stroke:#000000;" x="105.735421" xlink:href="#maf8416b79b" y="229.802837"/>
     <use style="stroke:#000000;" x="106.685744" xlink:href="#maf8416b79b" y="229.799173"/>
     <use style="stroke:#000000;" x="107.636067" xlink:href="#maf8416b79b" y="229.79536"/>
     <use style="stroke:#000000;" x="108.58639" xlink:href="#maf8416b79b" y="229.791392"/>
     <use style="stroke:#000000;" x="109.536713" xlink:href="#maf8416b79b" y="229.787263"/>
     <use style="stroke:#000000;" x="110.487036" xlink:href="#maf8416b79b" y="229.782965"/>
     <use style="stroke:#000000;" x="111.43736" xlink:href="#maf8416b79b" y="229.778492"/>
     <use style="stroke:#000000;" x="112.387683" xlink:href="#maf8416b79b" y="229.773838"/>
     <use style="stroke:#000000;" x="113.338006" xlink:href="#maf8416b79b" y="229.768994"/>
     <use style="stroke:#000000;" x="114.288329" xlink:href="#maf8416b79b" y="229.763953"/>
     <use style="stroke:#000000;" x="115.238652" xlink:href="#maf8416b79b" y="229.758707"/>
     <use style="stroke:#000000;" x="116.188975" xlink:href="#maf8416b79b" y="229.753248"/>
     <use style="stroke:#000000;" x="117.139299" xlink:href="#maf8416b79b" y="229.747567"/>
     <use style="stroke:#000000;" x="118.089622" xlink:href="#maf8416b79b" y="229.741656"/>
     <use style="stroke:#000000;" x="119.039945" xlink:href="#maf8416b79b" y="229.735504"/>
     <use style="stroke:#000000;" x="119.990268" xlink:href="#maf8416b79b" y="229.729103"/>
     <use style="stroke:#000000;" x="120.940591" xlink:href="#maf8416b79b" y="229.722442"/>
     <use style="stroke:#000000;" x="121.890914" xlink:href="#maf8416b79b" y="229.715511"/>
     <use style="stroke:#000000;" x="122.841238" xlink:href="#maf8416b79b" y="229.708298"/>
     <use style="stroke:#000000;" x="123.791561" xlink:href="#maf8416b79b" y="229.700793"/>
     <use style="stroke:#000000;" x="124.741884" xlink:href="#maf8416b79b" y="229.692983"/>
     <use style="stroke:#000000;" x="125.692207" xlink:href="#maf8416b79b" y="229.684856"/>
     <use style="stroke:#000000;" x="126.64253" xlink:href="#maf8416b79b" y="229.6764"/>
     <use style="stroke:#000000;" x="127.592853" xlink:href="#maf8416b79b" y="229.667601"/>
     <use style="stroke:#000000;" x="128.543177" xlink:href="#maf8416b79b" y="229.658446"/>
     <use style="stroke:#000000;" x="129.4935" xlink:href="#maf8416b79b" y="229.648919"/>
     <use style="stroke:#000000;" x="130.443823" xlink:href="#maf8416b79b" y="229.639006"/>
     <use style="stroke:#000000;" x="131.394146" xlink:href="#maf8416b79b" y="229.628691"/>
     <use style="stroke:#000000;" x="132.344469" xlink:href="#maf8416b79b" y="229.617959"/>
     <use style="stroke:#000000;" x="133.294792" xlink:href="#maf8416b79b" y="229.606791"/>
     <use style="stroke:#000000;" x="134.245116" xlink:href="#maf8416b79b" y="229.595172"/>
     <use style="stroke:#000000;" x="135.195439" xlink:href="#maf8416b79b" y="229.583082"/>
     <use style="stroke:#000000;" x="136.145762" xlink:href="#maf8416b79b" y="229.570502"/>
     <use style="stroke:#000000;" x="137.096085" xlink:href="#maf8416b79b" y="229.557413"/>
     <use style="stroke:#000000;" x="138.046408" xlink:href="#maf8416b79b" y="229.543794"/>
     <use style="stroke:#000000;" x="138.996731" xlink:href="#maf8416b79b" y="229.529625"/>
     <use style="stroke:#000000;" x="139.947054" xlink:href="#maf8416b79b" y="229.514882"/>
     <use style="stroke:#000000;" x="140.897378" xlink:href="#maf8416b79b" y="229.499542"/>
     <use style="stroke:#000000;" x="141.847701" xlink:href="#maf8416b79b" y="229.483583"/>
     <use style="stroke:#000000;" x="142.798024" xlink:href="#maf8416b79b" y="229.466978"/>
     <use style="stroke:#000000;" x="143.748347" xlink:href="#maf8416b79b" y="229.449701"/>
     <use style="stroke:#000000;" x="144.69867" xlink:href="#maf8416b79b" y="229.431727"/>
     <use style="stroke:#000000;" x="145.648993" xlink:href="#maf8416b79b" y="229.413027"/>
     <use style="stroke:#000000;" x="146.599317" xlink:href="#maf8416b79b" y="229.393571"/>
     <use style="stroke:#000000;" x="147.54964" xlink:href="#maf8416b79b" y="229.37333"/>
     <use style="stroke:#000000;" x="148.499963" xlink:href="#maf8416b79b" y="229.352271"/>
     <use style="stroke:#000000;" x="149.450286" xlink:href="#maf8416b79b" y="229.330363"/>
     <use style="stroke:#000000;" x="150.400609" xlink:href="#maf8416b79b" y="229.30757"/>
     <use style="stroke:#000000;" x="151.350932" xlink:href="#maf8416b79b" y="229.283859"/>
     <use style="stroke:#000000;" x="152.301256" xlink:href="#maf8416b79b" y="229.259192"/>
     <use style="stroke:#000000;" x="153.251579" xlink:href="#maf8416b79b" y="229.23353"/>
     <use style="stroke:#000000;" x="154.201902" xlink:href="#maf8416b79b" y="229.206835"/>
     <use style="stroke:#000000;" x="155.152225" xlink:href="#maf8416b79b" y="229.179064"/>
     <use style="stroke:#000000;" x="156.102548" xlink:href="#maf8416b79b" y="229.150176"/>
     <use style="stroke:#000000;" x="157.052871" xlink:href="#maf8416b79b" y="229.120125"/>
     <use style="stroke:#000000;" x="158.003195" xlink:href="#maf8416b79b" y="229.088865"/>
     <use style="stroke:#000000;" x="158.953518" xlink:href="#maf8416b79b" y="229.056348"/>
     <use style="stroke:#000000;" x="159.903841" xlink:href="#maf8416b79b" y="229.022525"/>
     <use style="stroke:#000000;" x="160.854164" xlink:href="#maf8416b79b" y="228.987343"/>
     <use style="stroke:#000000;" x="161.804487" xlink:href="#maf8416b79b" y="228.950748"/>
     <use style="stroke:#000000;" x="162.75481" xlink:href="#maf8416b79b" y="228.912685"/>
     <use style="stroke:#000000;" x="163.705134" xlink:href="#maf8416b79b" y="228.873096"/>
     <use style="stroke:#000000;" x="164.655457" xlink:href="#maf8416b79b" y="228.83192"/>
     <use style="stroke:#000000;" x="165.60578" xlink:href="#maf8416b79b" y="228.789094"/>
     <use style="stroke:#000000;" x="166.556103" xlink:href="#maf8416b79b" y="228.744554"/>
     <use style="stroke:#000000;" x="167.506426" xlink:href="#maf8416b79b" y="228.698232"/>
     <use style="stroke:#000000;" x="168.456749" xlink:href="#maf8416b79b" y="228.650057"/>
     <use style="stroke:#000000;" x="169.407073" xlink:href="#maf8416b79b" y="228.599958"/>
     <use style="stroke:#000000;" x="170.357396" xlink:href="#maf8416b79b" y="228.547859"/>
     <use style="stroke:#000000;" x="171.307719" xlink:href="#maf8416b79b" y="228.493682"/>
     <use style="stroke:#000000;" x="172.258042" xlink:href="#maf8416b79b" y="228.437344"/>
     <use style="stroke:#000000;" x="173.208365" xlink:href="#maf8416b79b" y="228.378763"/>
     <use style="stroke:#000000;" x="174.158688" xlink:href="#maf8416b79b" y="228.317851"/>
     <use style="stroke:#000000;" x="175.109012" xlink:href="#maf8416b79b" y="228.254516"/>
     <use style="stroke:#000000;" x="176.059335" xlink:href="#maf8416b79b" y="228.188666"/>
     <use style="stroke:#000000;" x="177.009658" xlink:href="#maf8416b79b" y="228.120202"/>
     <use style="stroke:#000000;" x="177.959981" xlink:href="#maf8416b79b" y="228.049024"/>
     <use style="stroke:#000000;" x="178.910304" xlink:href="#maf8416b79b" y="227.975027"/>
     <use style="stroke:#000000;" x="179.860627" xlink:href="#maf8416b79b" y="227.898102"/>
     <use style="stroke:#000000;" x="181.300736" xlink:href="#maf8416b79b" y="227.7757"/>
     <use style="stroke:#000000;" x="182.740845" xlink:href="#maf8416b79b" y="227.645908"/>
     <use style="stroke:#000000;" x="184.180953" xlink:href="#maf8416b79b" y="227.508295"/>
     <use style="stroke:#000000;" x="185.621062" xlink:href="#maf8416b79b" y="227.362407"/>
     <use style="stroke:#000000;" x="187.06117" xlink:href="#maf8416b79b" y="227.207765"/>
     <use style="stroke:#000000;" x="188.501279" xlink:href="#maf8416b79b" y="227.043867"/>
     <use style="stroke:#000000;" x="189.941388" xlink:href="#maf8416b79b" y="226.870182"/>
     <use style="stroke:#000000;" x="191.381496" xlink:href="#maf8416b79b" y="226.686154"/>
     <use style="stroke:#000000;" x="192.821605" xlink:href="#maf8416b79b" y="226.491198"/>
     <use style="stroke:#000000;" x="194.261713" xlink:href="#maf8416b79b" y="226.284701"/>
     <use style="stroke:#000000;" x="195.701822" xlink:href="#maf8416b79b" y="226.066017"/>
     <use style="stroke:#000000;" x="197.141931" xlink:href="#maf8416b79b" y="225.834472"/>
     <use style="stroke:#000000;" x="198.582039" xlink:href="#maf8416b79b" y="225.58936"/>
     <use style="stroke:#000000;" x="200.022148" xlink:href="#maf8416b79b" y="225.329939"/>
     <use style="stroke:#000000;" x="201.462256" xlink:href="#maf8416b79b" y="225.055438"/>
     <use style="stroke:#000000;" x="202.902365" xlink:href="#maf8416b79b" y="224.765049"/>
     <use style="stroke:#000000;" x="204.342474" xlink:href="#maf8416b79b" y="224.457932"/>
     <use style="stroke:#000000;" x="205.782582" xlink:href="#maf8416b79b" y="224.133209"/>
     <use style="stroke:#000000;" x="207.222691" xlink:href="#maf8416b79b" y="223.789969"/>
     <use style="stroke:#000000;" x="208.662799" xlink:href="#maf8416b79b" y="223.427266"/>
     <use style="stroke:#000000;" x="210.102908" xlink:href="#maf8416b79b" y="223.044118"/>
     <use style="stroke:#000000;" x="211.543017" xlink:href="#maf8416b79b" y="222.639508"/>
     <use style="stroke:#000000;" x="212.983125" xlink:href="#maf8416b79b" y="222.212388"/>
     <use style="stroke:#000000;" x="214.423234" xlink:href="#maf8416b79b" y="221.761673"/>
     <use style="stroke:#000000;" x="215.863342" xlink:href="#maf8416b79b" y="221.286249"/>
     <use style="stroke:#000000;" x="217.303451" xlink:href="#maf8416b79b" y="220.784971"/>
     <use style="stroke:#000000;" x="218.74356" xlink:href="#maf8416b79b" y="220.256665"/>
     <use style="stroke:#000000;" x="220.183668" xlink:href="#maf8416b79b" y="219.700134"/>
     <use style="stroke:#000000;" x="221.623777" xlink:href="#maf8416b79b" y="219.114156"/>
     <use style="stroke:#000000;" x="223.063885" xlink:href="#maf8416b79b" y="218.497491"/>
     <use style="stroke:#000000;" x="224.503994" xlink:href="#maf8416b79b" y="217.848882"/>
     <use style="stroke:#000000;" x="225.944103" xlink:href="#maf8416b79b" y="217.167064"/>
     <use style="stroke:#000000;" x="227.384211" xlink:href="#maf8416b79b" y="216.450764"/>
     <use style="stroke:#000000;" x="228.82432" xlink:href="#maf8416b79b" y="215.698711"/>
     <use style="stroke:#000000;" x="230.264428" xlink:href="#maf8416b79b" y="214.909641"/>
     <use style="stroke:#000000;" x="231.704537" xlink:href="#maf8416b79b" y="214.082302"/>
     <use style="stroke:#000000;" x="233.144646" xlink:href="#maf8416b79b" y="213.215466"/>
     <use style="stroke:#000000;" x="234.584754" xlink:href="#maf8416b79b" y="212.307936"/>
     <use style="stroke:#000000;" x="236.024863" xlink:href="#maf8416b79b" y="211.358551"/>
     <use style="stroke:#000000;" x="237.464971" xlink:href="#maf8416b79b" y="210.366205"/>
     <use style="stroke:#000000;" x="238.90508" xlink:href="#maf8416b79b" y="209.329849"/>
     <use style="stroke:#000000;" x="240.345189" xlink:href="#maf8416b79b" y="208.248506"/>
     <use style="stroke:#000000;" x="241.785297" xlink:href="#maf8416b79b" y="207.121284"/>
     <use style="stroke:#000000;" x="243.225406" xlink:href="#maf8416b79b" y="205.947387"/>
     <use style="stroke:#000000;" x="244.665514" xlink:href="#maf8416b79b" y="204.726125"/>
     <use style="stroke:#000000;" x="246.105623" xlink:href="#maf8416b79b" y="203.456933"/>
     <use style="stroke:#000000;" x="247.545732" xlink:href="#maf8416b79b" y="202.139378"/>
     <use style="stroke:#000000;" x="248.98584" xlink:href="#maf8416b79b" y="200.773174"/>
     <use style="stroke:#000000;" x="250.425949" xlink:href="#maf8416b79b" y="199.358199"/>
     <use style="stroke:#000000;" x="251.866057" xlink:href="#maf8416b79b" y="197.8945"/>
     <use style="stroke:#000000;" x="253.306166" xlink:href="#maf8416b79b" y="196.38231"/>
     <use style="stroke:#000000;" x="254.746275" xlink:href="#maf8416b79b" y="194.822058"/>
     <use style="stroke:#000000;" x="255.805259" xlink:href="#maf8416b79b" y="193.644421"/>
     <use style="stroke:#000000;" x="256.864243" xlink:href="#maf8416b79b" y="192.44146"/>
     <use style="stroke:#000000;" x="257.923226" xlink:href="#maf8416b79b" y="191.213562"/>
     <use style="stroke:#000000;" x="258.98221" xlink:href="#maf8416b79b" y="189.961185"/>
     <use style="stroke:#000000;" x="260.041194" xlink:href="#maf8416b79b" y="188.684849"/>
     <use style="stroke:#000000;" x="261.100178" xlink:href="#maf8416b79b" y="187.385144"/>
     <use style="stroke:#000000;" x="262.159162" xlink:href="#maf8416b79b" y="186.062727"/>
     <use style="stroke:#000000;" x="263.218146" xlink:href="#maf8416b79b" y="184.718321"/>
     <use style="stroke:#000000;" x="264.27713" xlink:href="#maf8416b79b" y="183.352717"/>
     <use style="stroke:#000000;" x="265.336114" xlink:href="#maf8416b79b" y="181.966775"/>
     <use style="stroke:#000000;" x="266.395098" xlink:href="#maf8416b79b" y="180.561416"/>
     <use style="stroke:#000000;" x="267.454082" xlink:href="#maf8416b79b" y="179.137629"/>
     <use style="stroke:#000000;" x="268.513066" xlink:href="#maf8416b79b" y="177.696461"/>
     <use style="stroke:#000000;" x="269.57205" xlink:href="#maf8416b79b" y="176.23902"/>
     <use style="stroke:#000000;" x="270.631034" xlink:href="#maf8416b79b" y="174.766471"/>
     <use style="stroke:#000000;" x="271.690018" xlink:href="#maf8416b79b" y="173.280032"/>
     <use style="stroke:#000000;" x="272.749002" xlink:href="#maf8416b79b" y="171.78097"/>
     <use style="stroke:#000000;" x="273.807986" xlink:href="#maf8416b79b" y="170.270599"/>
     <use style="stroke:#000000;" x="274.86697" xlink:href="#maf8416b79b" y="168.750273"/>
     <use style="stroke:#000000;" x="275.925954" xlink:href="#maf8416b79b" y="167.221384"/>
     <use style="stroke:#000000;" x="276.984938" xlink:href="#maf8416b79b" y="165.685357"/>
     <use style="stroke:#000000;" x="278.043922" xlink:href="#maf8416b79b" y="164.143641"/>
     <use style="stroke:#000000;" x="279.102906" xlink:href="#maf8416b79b" y="162.59771"/>
     <use style="stroke:#000000;" x="280.16189" xlink:href="#maf8416b79b" y="161.049052"/>
     <use style="stroke:#000000;" x="281.220874" xlink:href="#maf8416b79b" y="159.499166"/>
     <use style="stroke:#000000;" x="282.279858" xlink:href="#maf8416b79b" y="157.949556"/>
     <use style="stroke:#000000;" x="283.338842" xlink:href="#maf8416b79b" y="156.401725"/>
     <use style="stroke:#000000;" x="284.397826" xlink:href="#maf8416b79b" y="154.857169"/>
     <use style="stroke:#000000;" x="285.45681" xlink:href="#maf8416b79b" y="153.317372"/>
     <use style="stroke:#000000;" x="286.515794" xlink:href="#maf8416b79b" y="151.783801"/>
     <use style="stroke:#000000;" x="287.574778" xlink:href="#maf8416b79b" y="150.257898"/>
     <use style="stroke:#000000;" x="288.633762" xlink:href="#maf8416b79b" y="148.741077"/>
     <use style="stroke:#000000;" x="289.692746" xlink:href="#maf8416b79b" y="147.234721"/>
     <use style="stroke:#000000;" x="290.75173" xlink:href="#maf8416b79b" y="145.740171"/>
     <use style="stroke:#000000;" x="291.810714" xlink:href="#maf8416b79b" y="144.258729"/>
     <use style="stroke:#000000;" x="292.869698" xlink:href="#maf8416b79b" y="142.791646"/>
     <use style="stroke:#000000;" x="293.928682" xlink:href="#maf8416b79b" y="141.340128"/>
     <use style="stroke:#000000;" x="294.987666" xlink:href="#maf8416b79b" y="139.905322"/>
     <use style="stroke:#000000;" x="296.04665" xlink:href="#maf8416b79b" y="138.488321"/>
     <use style="stroke:#000000;" x="297.105634" xlink:href="#maf8416b79b" y="137.090157"/>
     <use style="stroke:#000000;" x="298.164617" xlink:href="#maf8416b79b" y="135.711802"/>
     <use style="stroke:#000000;" x="299.223601" xlink:href="#maf8416b79b" y="134.354163"/>
     <use style="stroke:#000000;" x="300.282585" xlink:href="#maf8416b79b" y="133.018082"/>
     <use style="stroke:#000000;" x="301.341569" xlink:href="#maf8416b79b" y="131.704336"/>
     <use style="stroke:#000000;" x="302.400553" xlink:href="#maf8416b79b" y="130.413635"/>
     <use style="stroke:#000000;" x="303.459537" xlink:href="#maf8416b79b" y="129.14662"/>
     <use style="stroke:#000000;" x="304.518521" xlink:href="#maf8416b79b" y="127.903869"/>
     <use style="stroke:#000000;" x="305.577505" xlink:href="#maf8416b79b" y="126.685891"/>
     <use style="stroke:#000000;" x="306.636489" xlink:href="#maf8416b79b" y="125.49313"/>
     <use style="stroke:#000000;" x="307.695473" xlink:href="#maf8416b79b" y="124.325965"/>
     <use style="stroke:#000000;" x="308.754457" xlink:href="#maf8416b79b" y="123.184713"/>
     <use style="stroke:#000000;" x="309.813441" xlink:href="#maf8416b79b" y="122.069628"/>
     <use style="stroke:#000000;" x="310.872425" xlink:href="#maf8416b79b" y="120.980905"/>
     <use style="stroke:#000000;" x="311.931409" xlink:href="#maf8416b79b" y="119.918682"/>
     <use style="stroke:#000000;" x="312.990393" xlink:href="#maf8416b79b" y="118.883039"/>
     <use style="stroke:#000000;" x="314.049377" xlink:href="#maf8416b79b" y="117.874006"/>
     <use style="stroke:#000000;" x="315.108361" xlink:href="#maf8416b79b" y="116.891558"/>
     <use style="stroke:#000000;" x="316.167345" xlink:href="#maf8416b79b" y="115.935626"/>
     <use style="stroke:#000000;" x="317.226329" xlink:href="#maf8416b79b" y="115.006092"/>
     <use style="stroke:#000000;" x="318.285313" xlink:href="#maf8416b79b" y="114.102799"/>
     <use style="stroke:#000000;" x="319.344297" xlink:href="#maf8416b79b" y="113.225545"/>
     <use style="stroke:#000000;" x="320.403281" xlink:href="#maf8416b79b" y="112.374094"/>
     <use style="stroke:#000000;" x="321.462265" xlink:href="#maf8416b79b" y="111.548174"/>
     <use style="stroke:#000000;" x="322.521249" xlink:href="#maf8416b79b" y="110.747481"/>
     <use style="stroke:#000000;" x="323.580233" xlink:href="#maf8416b79b" y="109.971683"/>
     <use style="stroke:#000000;" x="324.639217" xlink:href="#maf8416b79b" y="109.220419"/>
     <use style="stroke:#000000;" x="325.698201" xlink:href="#maf8416b79b" y="108.493306"/>
     <use style="stroke:#000000;" x="326.757185" xlink:href="#maf8416b79b" y="107.789939"/>
     <use style="stroke:#000000;" x="327.816169" xlink:href="#maf8416b79b" y="107.109891"/>
     <use style="stroke:#000000;" x="328.875153" xlink:href="#maf8416b79b" y="106.452722"/>
     <use style="stroke:#000000;" x="329.934137" xlink:href="#maf8416b79b" y="105.817976"/>
     <use style="stroke:#000000;" x="330.993121" xlink:href="#maf8416b79b" y="105.205184"/>
     <use style="stroke:#000000;" x="332.052105" xlink:href="#maf8416b79b" y="104.613866"/>
     <use style="stroke:#000000;" x="333.111089" xlink:href="#maf8416b79b" y="104.043534"/>
     <use style="stroke:#000000;" x="334.170073" xlink:href="#maf8416b79b" y="103.493694"/>
     <use style="stroke:#000000;" x="335.229057" xlink:href="#maf8416b79b" y="102.963847"/>
     <use style="stroke:#000000;" x="336.288041" xlink:href="#maf8416b79b" y="102.453488"/>
     <use style="stroke:#000000;" x="337.347025" xlink:href="#maf8416b79b" y="101.962114"/>
     <use style="stroke:#000000;" x="338.406008" xlink:href="#maf8416b79b" y="101.489218"/>
     <use style="stroke:#000000;" x="339.464992" xlink:href="#maf8416b79b" y="101.034295"/>
     <use style="stroke:#000000;" x="340.523976" xlink:href="#maf8416b79b" y="100.596842"/>
     <use style="stroke:#000000;" x="341.58296" xlink:href="#maf8416b79b" y="100.17636"/>
     <use style="stroke:#000000;" x="342.641944" xlink:href="#maf8416b79b" y="99.772352"/>
     <use style="stroke:#000000;" x="343.700928" xlink:href="#maf8416b79b" y="99.384327"/>
     <use style="stroke:#000000;" x="344.759912" xlink:href="#maf8416b79b" y="99.0118"/>
     <use style="stroke:#000000;" x="345.818896" xlink:href="#maf8416b79b" y="98.654291"/>
     <use style="stroke:#000000;" x="346.87788" xlink:href="#maf8416b79b" y="98.311329"/>
     <use style="stroke:#000000;" x="347.936864" xlink:href="#maf8416b79b" y="97.982448"/>
     <use style="stroke:#000000;" x="348.995848" xlink:href="#maf8416b79b" y="97.667193"/>
    </g>
   </g>
   <g id="line2d_15">
    <path clip-path="url(#p6195029372)" d="M 62.183807 229.874489 
L 104.785097 229.76789 
L 125.692207 229.529596 
L 138.996731 229.178085 
L 149.450286 228.677367 
L 157.052871 228.105966 
L 163.705134 227.39253 
L 169.407073 226.560046 
L 174.158688 225.662316 
L 178.910304 224.527988 
L 182.740845 223.399655 
L 187.06117 221.852239 
L 189.941388 220.62457 
L 192.821605 219.216601 
L 195.701822 217.614511 
L 198.582039 215.778189 
L 201.462256 213.686956 
L 204.342474 211.308995 
L 207.222691 208.611945 
L 210.102908 205.561822 
L 212.983125 202.123641 
L 215.863342 198.262214 
L 218.74356 193.939935 
L 221.623777 189.124712 
L 224.503994 183.790909 
L 227.384211 177.916613 
L 230.264428 171.488298 
L 233.144646 164.503491 
L 236.024863 156.973423 
L 238.90508 148.925756 
L 243.225406 135.990789 
L 247.545732 122.244472 
L 261.100178 78.284267 
L 264.27713 68.960244 
L 267.454082 60.437271 
L 269.57205 55.286603 
L 271.690018 50.633821 
L 273.807986 46.447754 
L 275.925954 42.83571 
L 278.043922 39.710746 
L 279.102906 38.325464 
L 280.16189 37.145326 
L 282.279858 35.228282 
L 283.338842 34.384589 
L 284.397826 33.69183 
L 285.45681 33.152438 
L 287.574778 32.519455 
L 289.692746 32.201761 
L 290.75173 32.241824 
L 292.869698 32.625398 
L 294.987666 33.329002 
L 297.105634 34.373588 
L 299.223601 35.673455 
L 301.341569 37.206253 
L 304.518521 39.840563 
L 307.695473 42.767206 
L 312.990393 47.993558 
L 321.462265 56.4173 
L 325.698201 60.382672 
L 329.934137 64.078864 
L 334.170073 67.472217 
L 338.406008 70.553968 
L 342.641944 73.323609 
L 346.87788 75.788802 
L 348.995848 76.916262 
L 348.995848 76.916262 
" style="fill:none;stroke:#0000ff;stroke-dasharray:5.55,2.4;stroke-dashoffset:0;stroke-width:1.5;"/>
   </g>
   <g id="line2d_16">
    <path clip-path="url(#p6195029372)" d="M 62.183807 229.874489 
L 126.64253 229.767004 
L 159.903841 229.52285 
L 181.300736 229.151584 
L 197.141931 228.6473 
L 208.662799 228.069743 
L 218.74356 227.334556 
L 225.944103 226.61879 
L 233.144646 225.683358 
L 238.90508 224.725571 
L 244.665514 223.524994 
L 248.98584 222.425002 
L 253.306166 221.115675 
L 257.923226 219.437825 
L 262.159162 217.598992 
L 265.336114 216.001822 
L 268.513066 214.197323 
L 271.690018 212.159223 
L 274.86697 209.874942 
L 278.043922 207.325854 
L 281.220874 204.487489 
L 284.397826 201.375962 
L 287.574778 197.949672 
L 290.75173 194.258399 
L 294.987666 188.90159 
L 299.223601 183.113018 
L 304.518521 175.394735 
L 311.931409 164.051222 
L 321.462265 149.475414 
L 326.757185 141.790429 
L 330.993121 136.01497 
L 335.229057 130.617915 
L 339.464992 125.652098 
L 343.700928 121.132033 
L 346.87788 118.044518 
L 348.995848 116.122987 
L 348.995848 116.122987 
" style="fill:none;stroke:#0000ff;stroke-dasharray:5.55,2.4;stroke-dashoffset:0;stroke-width:1.5;"/>
   </g>
   <g id="line2d_17"/>
   <g id="line2d_18"/>
   <g id="line2d_19"/>
   <g id="line2d_20"/>
   <g id="line2d_21"/>
   <g id="patch_3">
    <path d="M 46.965625 239.758125 
L 46.965625 22.318125 
" style="fill:none;stroke:#000000;stroke-linecap:square;stroke-linejoin:miter;stroke-width:0.8;"/>
   </g>
   <g id="patch_4">
    <path d="M 381.765625 239.758125 
L 381.765625 22.318125 
" style="fill:none;stroke:#000000;stroke-linecap:square;stroke-linejoin:miter;stroke-width:0.8;"/>
   </g>
   <g id="patch_5">
    <path d="M 46.965625 239.758125 
L 381.765625 239.758125 
" style="fill:none;stroke:#000000;stroke-linecap:square;stroke-linejoin:miter;stroke-width:0.8;"/>
   </g>
   <g id="patch_6">
    <path d="M 46.965625 22.318125 
L 381.765625 22.318125 
" style="fill:none;stroke:#000000;stroke-linecap:square;stroke-linejoin:miter;stroke-width:0.8;"/>
   </g>
   <g id="text_14">
    <!-- Experiment_1 -->
    <defs>
     <path d="M 9.8125 72.90625 
L 55.90625 72.90625 
L 55.90625 64.59375 
L 19.671875 64.59375 
L 19.671875 43.015625 
L 54.390625 43.015625 
L 54.390625 34.71875 
L 19.671875 34.71875 
L 19.671875 8.296875 
L 56.78125 8.296875 
L 56.78125 0 
L 9.8125 0 
z
" id="DejaVuSans-69"/>
     <path d="M 54.890625 54.6875 
L 35.109375 28.078125 
L 55.90625 0 
L 45.3125 0 
L 29.390625 21.484375 
L 13.484375 0 
L 2.875 0 
L 24.125 28.609375 
L 4.6875 54.6875 
L 15.28125 54.6875 
L 29.78125 35.203125 
L 44.28125 54.6875 
z
" id="DejaVuSans-120"/>
     <path d="M 41.109375 46.296875 
Q 39.59375 47.171875 37.8125 47.578125 
Q 36.03125 48 33.890625 48 
Q 26.265625 48 22.1875 43.046875 
Q 18.109375 38.09375 18.109375 28.8125 
L 18.109375 0 
L 9.078125 0 
L 9.078125 54.6875 
L 18.109375 54.6875 
L 18.109375 46.1875 
Q 20.953125 51.171875 25.484375 53.578125 
Q 30.03125 56 36.53125 56 
Q 37.453125 56 38.578125 55.875 
Q 39.703125 55.765625 41.0625 55.515625 
z
" id="DejaVuSans-114"/>
     <path d="M 54.890625 33.015625 
L 54.890625 0 
L 45.90625 0 
L 45.90625 32.71875 
Q 45.90625 40.484375 42.875 44.328125 
Q 39.84375 48.1875 33.796875 48.1875 
Q 26.515625 48.1875 22.3125 43.546875 
Q 18.109375 38.921875 18.109375 30.90625 
L 18.109375 0 
L 9.078125 0 
L 9.078125 54.6875 
L 18.109375 54.6875 
L 18.109375 46.1875 
Q 21.34375 51.125 25.703125 53.5625 
Q 30.078125 56 35.796875 56 
Q 45.21875 56 50.046875 50.171875 
Q 54.890625 44.34375 54.890625 33.015625 
z
" id="DejaVuSans-110"/>
     <path d="M 18.3125 70.21875 
L 18.3125 54.6875 
L 36.8125 54.6875 
L 36.8125 47.703125 
L 18.3125 47.703125 
L 18.3125 18.015625 
Q 18.3125 11.328125 20.140625 9.421875 
Q 21.96875 7.515625 27.59375 7.515625 
L 36.8125 7.515625 
L 36.8125 0 
L 27.59375 0 
Q 17.1875 0 13.234375 3.875 
Q 9.28125 7.765625 9.28125 18.015625 
L 9.28125 47.703125 
L 2.6875 47.703125 
L 2.6875 54.6875 
L 9.28125 54.6875 
L 9.28125 70.21875 
z
" id="DejaVuSans-116"/>
     <path d="M 50.984375 -16.609375 
L 50.984375 -23.578125 
L -0.984375 -23.578125 
L -0.984375 -16.609375 
z
" id="DejaVuSans-95"/>
    </defs>
    <g transform="translate(172.880313 16.318125)scale(0.12 -0.12)">
     <use xlink:href="#DejaVuSans-69"/>
     <use x="63.183594" xlink:href="#DejaVuSans-120"/>
     <use x="122.363281" xlink:href="#DejaVuSans-112"/>
     <use x="185.839844" xlink:href="#DejaVuSans-101"/>
     <use x="247.363281" xlink:href="#DejaVuSans-114"/>
     <use x="288.476562" xlink:href="#DejaVuSans-105"/>
     <use x="316.259766" xlink:href="#DejaVuSans-109"/>
     <use x="413.671875" xlink:href="#DejaVuSans-101"/>
     <use x="475.195312" xlink:href="#DejaVuSans-110"/>
     <use x="538.574219" xlink:href="#DejaVuSans-116"/>
     <use x="577.783203" xlink:href="#DejaVuSans-95"/>
     <use x="627.783203" xlink:href="#DejaVuSans-49"/>
    </g>
   </g>
   <g id="legend_1">
    <g id="patch_7">
     <path d="M 56.529687 89.0525 
L 374.765625 89.0525 
Q 376.765625 89.0525 376.765625 87.0525 
L 376.765625 29.318125 
Q 376.765625 27.318125 374.765625 27.318125 
L 56.529687 27.318125 
Q 54.529687 27.318125 54.529687 29.318125 
L 54.529687 87.0525 
Q 54.529687 89.0525 56.529687 89.0525 
z
" style="fill:#ffffff;opacity:0.8;stroke:#cccccc;stroke-linejoin:miter;"/>
    </g>
    <g id="line2d_22">
     <path d="M 58.529687 35.416562 
L 78.529687 35.416562 
" style="fill:none;stroke:#0000ff;stroke-linecap:square;stroke-width:1.5;"/>
    </g>
    <g id="line2d_23"/>
    <g id="text_15">
     <!-- MSI -->
     <defs>
      <path d="M 9.8125 72.90625 
L 24.515625 72.90625 
L 43.109375 23.296875 
L 61.8125 72.90625 
L 76.515625 72.90625 
L 76.515625 0 
L 66.890625 0 
L 66.890625 64.015625 
L 48.09375 14.015625 
L 38.1875 14.015625 
L 19.390625 64.015625 
L 19.390625 0 
L 9.8125 0 
z
" id="DejaVuSans-77"/>
      <path d="M 53.515625 70.515625 
L 53.515625 60.890625 
Q 47.90625 63.578125 42.921875 64.890625 
Q 37.9375 66.21875 33.296875 66.21875 
Q 25.25 66.21875 20.875 63.09375 
Q 16.5 59.96875 16.5 54.203125 
Q 16.5 49.359375 19.40625 46.890625 
Q 22.3125 44.4375 30.421875 42.921875 
L 36.375 41.703125 
Q 47.40625 39.59375 52.65625 34.296875 
Q 57.90625 29 57.90625 20.125 
Q 57.90625 9.515625 50.796875 4.046875 
Q 43.703125 -1.421875 29.984375 -1.421875 
Q 24.8125 -1.421875 18.96875 -0.25 
Q 13.140625 0.921875 6.890625 3.21875 
L 6.890625 13.375 
Q 12.890625 10.015625 18.65625 8.296875 
Q 24.421875 6.59375 29.984375 6.59375 
Q 38.421875 6.59375 43.015625 9.90625 
Q 47.609375 13.234375 47.609375 19.390625 
Q 47.609375 24.75 44.3125 27.78125 
Q 41.015625 30.8125 33.5 32.328125 
L 27.484375 33.5 
Q 16.453125 35.6875 11.515625 40.375 
Q 6.59375 45.0625 6.59375 53.421875 
Q 6.59375 63.09375 13.40625 68.65625 
Q 20.21875 74.21875 32.171875 74.21875 
Q 37.3125 74.21875 42.625 73.28125 
Q 47.953125 72.359375 53.515625 70.515625 
z
" id="DejaVuSans-83"/>
      <path d="M 9.8125 72.90625 
L 19.671875 72.90625 
L 19.671875 0 
L 9.8125 0 
z
" id="DejaVuSans-73"/>
     </defs>
     <g transform="translate(86.529687 38.916562)scale(0.1 -0.1)">
      <use xlink:href="#DejaVuSans-77"/>
      <use x="86.279297" xlink:href="#DejaVuSans-83"/>
      <use x="149.755859" xlink:href="#DejaVuSans-73"/>
     </g>
    </g>
    <g id="line2d_24">
     <path d="M 58.529687 50.09625 
L 78.529687 50.09625 
" style="fill:none;stroke:#ff0000;stroke-linecap:square;stroke-width:1.5;"/>
    </g>
    <g id="line2d_25"/>
    <g id="text_16">
     <!-- $\it{A priori}$ model -->
     <defs>
      <path d="M 36.8125 72.90625 
L 48 72.90625 
L 61.53125 0 
L 51.21875 0 
L 48.1875 18.703125 
L 15.375 18.703125 
L 5.078125 0 
L -5.328125 0 
z
M 40.375 63.1875 
L 19.921875 26.90625 
L 46.6875 26.90625 
z
" id="DejaVuSans-Oblique-65"/>
      <path d="M 49.609375 33.6875 
Q 49.609375 40.875 46.484375 44.671875 
Q 43.359375 48.484375 37.5 48.484375 
Q 33.5 48.484375 29.859375 46.4375 
Q 26.21875 44.390625 23.390625 40.484375 
Q 20.609375 36.625 18.9375 31.15625 
Q 17.28125 25.6875 17.28125 20.3125 
Q 17.28125 13.484375 20.40625 9.796875 
Q 23.53125 6.109375 29.296875 6.109375 
Q 33.546875 6.109375 37.1875 8.109375 
Q 40.828125 10.109375 43.40625 13.921875 
Q 46.1875 17.921875 47.890625 23.34375 
Q 49.609375 28.765625 49.609375 33.6875 
z
M 21.78125 46.390625 
Q 25.390625 51.125 30.296875 53.5625 
Q 35.203125 56 41.21875 56 
Q 49.609375 56 54.25 50.5 
Q 58.890625 45.015625 58.890625 35.109375 
Q 58.890625 27 56 19.65625 
Q 53.125 12.3125 47.703125 6.5 
Q 44.09375 2.640625 39.546875 0.609375 
Q 35.015625 -1.421875 29.984375 -1.421875 
Q 24.171875 -1.421875 20.21875 1 
Q 16.265625 3.421875 14.3125 8.203125 
L 8.6875 -20.796875 
L -0.296875 -20.796875 
L 14.40625 54.6875 
L 23.390625 54.6875 
z
" id="DejaVuSans-Oblique-112"/>
      <path d="M 44.578125 46.390625 
Q 43.21875 47.125 41.453125 47.515625 
Q 39.703125 47.90625 37.703125 47.90625 
Q 30.515625 47.90625 25.140625 42.453125 
Q 19.78125 37.015625 18.015625 27.875 
L 12.5 0 
L 3.515625 0 
L 14.203125 54.6875 
L 23.1875 54.6875 
L 21.484375 46.1875 
Q 25.046875 50.921875 30 53.453125 
Q 34.96875 56 40.578125 56 
Q 42.046875 56 43.453125 55.828125 
Q 44.875 55.671875 46.296875 55.28125 
z
" id="DejaVuSans-Oblique-114"/>
      <path d="M 18.3125 75.984375 
L 27.296875 75.984375 
L 25.09375 64.59375 
L 16.109375 64.59375 
z
M 14.203125 54.6875 
L 23.1875 54.6875 
L 12.5 0 
L 3.515625 0 
z
" id="DejaVuSans-Oblique-105"/>
      <path d="M 25.390625 -1.421875 
Q 15.765625 -1.421875 10.171875 4.515625 
Q 4.59375 10.453125 4.59375 20.703125 
Q 4.59375 26.65625 6.515625 32.828125 
Q 8.453125 39.015625 11.53125 43.21875 
Q 16.359375 49.75 22.3125 52.875 
Q 28.265625 56 35.796875 56 
Q 45.125 56 50.859375 50.1875 
Q 56.59375 44.390625 56.59375 35.015625 
Q 56.59375 28.515625 54.6875 22.0625 
Q 52.78125 15.625 49.703125 11.375 
Q 44.921875 4.828125 38.96875 1.703125 
Q 33.015625 -1.421875 25.390625 -1.421875 
z
M 13.921875 21 
Q 13.921875 13.578125 17.015625 9.890625 
Q 20.125 6.203125 26.421875 6.203125 
Q 35.453125 6.203125 41.375 14.078125 
Q 47.3125 21.96875 47.3125 34.078125 
Q 47.3125 41.15625 44.140625 44.765625 
Q 40.96875 48.390625 34.8125 48.390625 
Q 29.734375 48.390625 25.78125 46.015625 
Q 21.828125 43.65625 18.703125 38.8125 
Q 16.40625 35.203125 15.15625 30.5625 
Q 13.921875 25.921875 13.921875 21 
z
" id="DejaVuSans-Oblique-111"/>
      <path d="M 30.609375 48.390625 
Q 23.390625 48.390625 19.1875 42.75 
Q 14.984375 37.109375 14.984375 27.296875 
Q 14.984375 17.484375 19.15625 11.84375 
Q 23.34375 6.203125 30.609375 6.203125 
Q 37.796875 6.203125 41.984375 11.859375 
Q 46.1875 17.53125 46.1875 27.296875 
Q 46.1875 37.015625 41.984375 42.703125 
Q 37.796875 48.390625 30.609375 48.390625 
z
M 30.609375 56 
Q 42.328125 56 49.015625 48.375 
Q 55.71875 40.765625 55.71875 27.296875 
Q 55.71875 13.875 49.015625 6.21875 
Q 42.328125 -1.421875 30.609375 -1.421875 
Q 18.84375 -1.421875 12.171875 6.21875 
Q 5.515625 13.875 5.515625 27.296875 
Q 5.515625 40.765625 12.171875 48.375 
Q 18.84375 56 30.609375 56 
z
" id="DejaVuSans-111"/>
      <path d="M 45.40625 46.390625 
L 45.40625 75.984375 
L 54.390625 75.984375 
L 54.390625 0 
L 45.40625 0 
L 45.40625 8.203125 
Q 42.578125 3.328125 38.25 0.953125 
Q 33.9375 -1.421875 27.875 -1.421875 
Q 17.96875 -1.421875 11.734375 6.484375 
Q 5.515625 14.40625 5.515625 27.296875 
Q 5.515625 40.1875 11.734375 48.09375 
Q 17.96875 56 27.875 56 
Q 33.9375 56 38.25 53.625 
Q 42.578125 51.265625 45.40625 46.390625 
z
M 14.796875 27.296875 
Q 14.796875 17.390625 18.875 11.75 
Q 22.953125 6.109375 30.078125 6.109375 
Q 37.203125 6.109375 41.296875 11.75 
Q 45.40625 17.390625 45.40625 27.296875 
Q 45.40625 37.203125 41.296875 42.84375 
Q 37.203125 48.484375 30.078125 48.484375 
Q 22.953125 48.484375 18.875 42.84375 
Q 14.796875 37.203125 14.796875 27.296875 
z
" id="DejaVuSans-100"/>
      <path d="M 9.421875 75.984375 
L 18.40625 75.984375 
L 18.40625 0 
L 9.421875 0 
z
" id="DejaVuSans-108"/>
     </defs>
     <g transform="translate(86.529687 53.59625)scale(0.1 -0.1)">
      <use transform="translate(0 0.015625)" xlink:href="#DejaVuSans-Oblique-65"/>
      <use transform="translate(68.408203 0.015625)" xlink:href="#DejaVuSans-Oblique-112"/>
      <use transform="translate(131.884766 0.015625)" xlink:href="#DejaVuSans-Oblique-114"/>
      <use transform="translate(172.998047 0.015625)" xlink:href="#DejaVuSans-Oblique-105"/>
      <use transform="translate(200.78125 0.015625)" xlink:href="#DejaVuSans-Oblique-111"/>
      <use transform="translate(261.962891 0.015625)" xlink:href="#DejaVuSans-Oblique-114"/>
      <use transform="translate(303.076172 0.015625)" xlink:href="#DejaVuSans-Oblique-105"/>
      <use transform="translate(330.859375 0.015625)" xlink:href="#DejaVuSans-32"/>
      <use transform="translate(362.646484 0.015625)" xlink:href="#DejaVuSans-109"/>
      <use transform="translate(460.058594 0.015625)" xlink:href="#DejaVuSans-111"/>
      <use transform="translate(521.240234 0.015625)" xlink:href="#DejaVuSans-100"/>
      <use transform="translate(584.716797 0.015625)" xlink:href="#DejaVuSans-101"/>
      <use transform="translate(646.240234 0.015625)" xlink:href="#DejaVuSans-108"/>
     </g>
    </g>
    <g id="line2d_26"/>
    <g id="line2d_27">
     <g>
      <use style="stroke:#000000;" x="68.529687" xlink:href="#maf8416b79b" y="64.794687"/>
     </g>
    </g>
    <g id="text_17">
     <!-- Experimental Data -->
     <defs>
      <path d="M 34.28125 27.484375 
Q 23.390625 27.484375 19.1875 25 
Q 14.984375 22.515625 14.984375 16.5 
Q 14.984375 11.71875 18.140625 8.90625 
Q 21.296875 6.109375 26.703125 6.109375 
Q 34.1875 6.109375 38.703125 11.40625 
Q 43.21875 16.703125 43.21875 25.484375 
L 43.21875 27.484375 
z
M 52.203125 31.203125 
L 52.203125 0 
L 43.21875 0 
L 43.21875 8.296875 
Q 40.140625 3.328125 35.546875 0.953125 
Q 30.953125 -1.421875 24.3125 -1.421875 
Q 15.921875 -1.421875 10.953125 3.296875 
Q 6 8.015625 6 15.921875 
Q 6 25.140625 12.171875 29.828125 
Q 18.359375 34.515625 30.609375 34.515625 
L 43.21875 34.515625 
L 43.21875 35.40625 
Q 43.21875 41.609375 39.140625 45 
Q 35.0625 48.390625 27.6875 48.390625 
Q 23 48.390625 18.546875 47.265625 
Q 14.109375 46.140625 10.015625 43.890625 
L 10.015625 52.203125 
Q 14.9375 54.109375 19.578125 55.046875 
Q 24.21875 56 28.609375 56 
Q 40.484375 56 46.34375 49.84375 
Q 52.203125 43.703125 52.203125 31.203125 
z
" id="DejaVuSans-97"/>
      <path d="M 19.671875 64.796875 
L 19.671875 8.109375 
L 31.59375 8.109375 
Q 46.6875 8.109375 53.6875 14.9375 
Q 60.6875 21.78125 60.6875 36.53125 
Q 60.6875 51.171875 53.6875 57.984375 
Q 46.6875 64.796875 31.59375 64.796875 
z
M 9.8125 72.90625 
L 30.078125 72.90625 
Q 51.265625 72.90625 61.171875 64.09375 
Q 71.09375 55.28125 71.09375 36.53125 
Q 71.09375 17.671875 61.125 8.828125 
Q 51.171875 0 30.078125 0 
L 9.8125 0 
z
" id="DejaVuSans-68"/>
     </defs>
     <g transform="translate(86.529687 68.294687)scale(0.1 -0.1)">
      <use xlink:href="#DejaVuSans-69"/>
      <use x="63.183594" xlink:href="#DejaVuSans-120"/>
      <use x="122.363281" xlink:href="#DejaVuSans-112"/>
      <use x="185.839844" xlink:href="#DejaVuSans-101"/>
      <use x="247.363281" xlink:href="#DejaVuSans-114"/>
      <use x="288.476562" xlink:href="#DejaVuSans-105"/>
      <use x="316.259766" xlink:href="#DejaVuSans-109"/>
      <use x="413.671875" xlink:href="#DejaVuSans-101"/>
      <use x="475.195312" xlink:href="#DejaVuSans-110"/>
      <use x="538.574219" xlink:href="#DejaVuSans-116"/>
      <use x="577.783203" xlink:href="#DejaVuSans-97"/>
      <use x="639.0625" xlink:href="#DejaVuSans-108"/>
      <use x="666.845703" xlink:href="#DejaVuSans-32"/>
      <use x="698.632812" xlink:href="#DejaVuSans-68"/>
      <use x="775.634766" xlink:href="#DejaVuSans-97"/>
      <use x="836.914062" xlink:href="#DejaVuSans-116"/>
      <use x="876.123047" xlink:href="#DejaVuSans-97"/>
     </g>
    </g>
    <g id="line2d_28">
     <path d="M 58.529687 79.472812 
L 78.529687 79.472812 
" style="fill:none;stroke:#ffffff;stroke-linecap:square;stroke-width:1.5;"/>
    </g>
    <g id="line2d_29"/>
    <g id="text_18">
     <!-- T:2151 -->
     <defs>
      <path d="M 11.71875 12.40625 
L 22.015625 12.40625 
L 22.015625 0 
L 11.71875 0 
z
M 11.71875 51.703125 
L 22.015625 51.703125 
L 22.015625 39.3125 
L 11.71875 39.3125 
z
" id="DejaVuSans-58"/>
      <path d="M 10.796875 72.90625 
L 49.515625 72.90625 
L 49.515625 64.59375 
L 19.828125 64.59375 
L 19.828125 46.734375 
Q 21.96875 47.46875 24.109375 47.828125 
Q 26.265625 48.1875 28.421875 48.1875 
Q 40.625 48.1875 47.75 41.5 
Q 54.890625 34.8125 54.890625 23.390625 
Q 54.890625 11.625 47.5625 5.09375 
Q 40.234375 -1.421875 26.90625 -1.421875 
Q 22.3125 -1.421875 17.546875 -0.640625 
Q 12.796875 0.140625 7.71875 1.703125 
L 7.71875 11.625 
Q 12.109375 9.234375 16.796875 8.0625 
Q 21.484375 6.890625 26.703125 6.890625 
Q 35.15625 6.890625 40.078125 11.328125 
Q 45.015625 15.765625 45.015625 23.390625 
Q 45.015625 31 40.078125 35.4375 
Q 35.15625 39.890625 26.703125 39.890625 
Q 22.75 39.890625 18.8125 39.015625 
Q 14.890625 38.140625 10.796875 36.28125 
z
" id="DejaVuSans-53"/>
     </defs>
     <g transform="translate(86.529687 82.972812)scale(0.1 -0.1)">
      <use xlink:href="#DejaVuSans-84"/>
      <use x="60.912109" xlink:href="#DejaVuSans-58"/>
      <use x="94.603516" xlink:href="#DejaVuSans-50"/>
      <use x="158.226562" xlink:href="#DejaVuSans-49"/>
      <use x="221.849609" xlink:href="#DejaVuSans-53"/>
      <use x="285.472656" xlink:href="#DejaVuSans-49"/>
     </g>
    </g>
    <g id="line2d_30">
     <path d="M 200.270313 35.416562 
L 220.270313 35.416562 
" style="fill:none;stroke:#ffffff;stroke-linecap:square;stroke-width:1.5;"/>
    </g>
    <g id="line2d_31"/>
    <g id="text_19">
     <!-- P:2.4419999999999997 -->
     <defs>
      <path d="M 19.671875 64.796875 
L 19.671875 37.40625 
L 32.078125 37.40625 
Q 38.96875 37.40625 42.71875 40.96875 
Q 46.484375 44.53125 46.484375 51.125 
Q 46.484375 57.671875 42.71875 61.234375 
Q 38.96875 64.796875 32.078125 64.796875 
z
M 9.8125 72.90625 
L 32.078125 72.90625 
Q 44.34375 72.90625 50.609375 67.359375 
Q 56.890625 61.8125 56.890625 51.125 
Q 56.890625 40.328125 50.609375 34.8125 
Q 44.34375 29.296875 32.078125 29.296875 
L 19.671875 29.296875 
L 19.671875 0 
L 9.8125 0 
z
" id="DejaVuSans-80"/>
      <path d="M 10.984375 1.515625 
L 10.984375 10.5 
Q 14.703125 8.734375 18.5 7.8125 
Q 22.3125 6.890625 25.984375 6.890625 
Q 35.75 6.890625 40.890625 13.453125 
Q 46.046875 20.015625 46.78125 33.40625 
Q 43.953125 29.203125 39.59375 26.953125 
Q 35.25 24.703125 29.984375 24.703125 
Q 19.046875 24.703125 12.671875 31.3125 
Q 6.296875 37.9375 6.296875 49.421875 
Q 6.296875 60.640625 12.9375 67.421875 
Q 19.578125 74.21875 30.609375 74.21875 
Q 43.265625 74.21875 49.921875 64.515625 
Q 56.59375 54.828125 56.59375 36.375 
Q 56.59375 19.140625 48.40625 8.859375 
Q 40.234375 -1.421875 26.421875 -1.421875 
Q 22.703125 -1.421875 18.890625 -0.6875 
Q 15.09375 0.046875 10.984375 1.515625 
z
M 30.609375 32.421875 
Q 37.25 32.421875 41.125 36.953125 
Q 45.015625 41.5 45.015625 49.421875 
Q 45.015625 57.28125 41.125 61.84375 
Q 37.25 66.40625 30.609375 66.40625 
Q 23.96875 66.40625 20.09375 61.84375 
Q 16.21875 57.28125 16.21875 49.421875 
Q 16.21875 41.5 20.09375 36.953125 
Q 23.96875 32.421875 30.609375 32.421875 
z
" id="DejaVuSans-57"/>
      <path d="M 8.203125 72.90625 
L 55.078125 72.90625 
L 55.078125 68.703125 
L 28.609375 0 
L 18.3125 0 
L 43.21875 64.59375 
L 8.203125 64.59375 
z
" id="DejaVuSans-55"/>
     </defs>
     <g transform="translate(228.270313 38.916562)scale(0.1 -0.1)">
      <use xlink:href="#DejaVuSans-80"/>
      <use x="60.302734" xlink:href="#DejaVuSans-58"/>
      <use x="93.994141" xlink:href="#DejaVuSans-50"/>
      <use x="157.617188" xlink:href="#DejaVuSans-46"/>
      <use x="189.404297" xlink:href="#DejaVuSans-52"/>
      <use x="253.027344" xlink:href="#DejaVuSans-52"/>
      <use x="316.650391" xlink:href="#DejaVuSans-49"/>
      <use x="380.273438" xlink:href="#DejaVuSans-57"/>
      <use x="443.896484" xlink:href="#DejaVuSans-57"/>
      <use x="507.519531" xlink:href="#DejaVuSans-57"/>
      <use x="571.142578" xlink:href="#DejaVuSans-57"/>
      <use x="634.765625" xlink:href="#DejaVuSans-57"/>
      <use x="698.388672" xlink:href="#DejaVuSans-57"/>
      <use x="762.011719" xlink:href="#DejaVuSans-57"/>
      <use x="825.634766" xlink:href="#DejaVuSans-57"/>
      <use x="889.257812" xlink:href="#DejaVuSans-57"/>
      <use x="952.880859" xlink:href="#DejaVuSans-57"/>
      <use x="1016.503906" xlink:href="#DejaVuSans-57"/>
      <use x="1080.126953" xlink:href="#DejaVuSans-57"/>
      <use x="1143.75" xlink:href="#DejaVuSans-55"/>
     </g>
    </g>
    <g id="line2d_32">
     <path d="M 200.270313 50.094687 
L 220.270313 50.094687 
" style="fill:none;stroke:#ffffff;stroke-linecap:square;stroke-width:1.5;"/>
    </g>
    <g id="line2d_33"/>
    <g id="text_20">
     <!-- O2: 0.002 -->
     <g transform="translate(228.270313 53.594687)scale(0.1 -0.1)">
      <use xlink:href="#DejaVuSans-79"/>
      <use x="78.710938" xlink:href="#DejaVuSans-50"/>
      <use x="142.333984" xlink:href="#DejaVuSans-58"/>
      <use x="176.025391" xlink:href="#DejaVuSans-32"/>
      <use x="207.8125" xlink:href="#DejaVuSans-48"/>
      <use x="271.435547" xlink:href="#DejaVuSans-46"/>
      <use x="303.222656" xlink:href="#DejaVuSans-48"/>
      <use x="366.845703" xlink:href="#DejaVuSans-48"/>
      <use x="430.46875" xlink:href="#DejaVuSans-50"/>
     </g>
    </g>
    <g id="line2d_34">
     <path d="M 200.270313 64.772812 
L 220.270313 64.772812 
" style="fill:none;stroke:#ffffff;stroke-linecap:square;stroke-width:1.5;"/>
    </g>
    <g id="line2d_35"/>
    <g id="text_21">
     <!-- H2: 0.009640000000000001 -->
     <g transform="translate(228.270313 68.272812)scale(0.1 -0.1)">
      <use xlink:href="#DejaVuSans-72"/>
      <use x="75.195312" xlink:href="#DejaVuSans-50"/>
      <use x="138.818359" xlink:href="#DejaVuSans-58"/>
      <use x="172.509766" xlink:href="#DejaVuSans-32"/>
      <use x="204.296875" xlink:href="#DejaVuSans-48"/>
      <use x="267.919922" xlink:href="#DejaVuSans-46"/>
      <use x="299.707031" xlink:href="#DejaVuSans-48"/>
      <use x="363.330078" xlink:href="#DejaVuSans-48"/>
      <use x="426.953125" xlink:href="#DejaVuSans-57"/>
      <use x="490.576172" xlink:href="#DejaVuSans-54"/>
      <use x="554.199219" xlink:href="#DejaVuSans-52"/>
      <use x="617.822266" xlink:href="#DejaVuSans-48"/>
      <use x="681.445312" xlink:href="#DejaVuSans-48"/>
      <use x="745.068359" xlink:href="#DejaVuSans-48"/>
      <use x="808.691406" xlink:href="#DejaVuSans-48"/>
      <use x="872.314453" xlink:href="#DejaVuSans-48"/>
      <use x="935.9375" xlink:href="#DejaVuSans-48"/>
      <use x="999.560547" xlink:href="#DejaVuSans-48"/>
      <use x="1063.183594" xlink:href="#DejaVuSans-48"/>
      <use x="1126.806641" xlink:href="#DejaVuSans-48"/>
      <use x="1190.429688" xlink:href="#DejaVuSans-48"/>
      <use x="1254.052734" xlink:href="#DejaVuSans-48"/>
      <use x="1317.675781" xlink:href="#DejaVuSans-48"/>
      <use x="1381.298828" xlink:href="#DejaVuSans-49"/>
     </g>
    </g>
    <g id="line2d_36">
     <path d="M 200.270313 79.450937 
L 220.270313 79.450937 
" style="fill:none;stroke:#ffffff;stroke-linecap:square;stroke-width:1.5;"/>
    </g>
    <g id="line2d_37"/>
    <g id="text_22">
     <!-- Ar: 0.98836 -->
     <defs>
      <path d="M 34.1875 63.1875 
L 20.796875 26.90625 
L 47.609375 26.90625 
z
M 28.609375 72.90625 
L 39.796875 72.90625 
L 67.578125 0 
L 57.328125 0 
L 50.6875 18.703125 
L 17.828125 18.703125 
L 11.1875 0 
L 0.78125 0 
z
" id="DejaVuSans-65"/>
     </defs>
     <g transform="translate(228.270313 82.950937)scale(0.1 -0.1)">
      <use xlink:href="#DejaVuSans-65"/>
      <use x="68.408203" xlink:href="#DejaVuSans-114"/>
      <use x="109.505859" xlink:href="#DejaVuSans-58"/>
      <use x="143.197266" xlink:href="#DejaVuSans-32"/>
      <use x="174.984375" xlink:href="#DejaVuSans-48"/>
      <use x="238.607422" xlink:href="#DejaVuSans-46"/>
      <use x="270.394531" xlink:href="#DejaVuSans-57"/>
      <use x="334.017578" xlink:href="#DejaVuSans-56"/>
      <use x="397.640625" xlink:href="#DejaVuSans-56"/>
      <use x="461.263672" xlink:href="#DejaVuSans-51"/>
      <use x="524.886719" xlink:href="#DejaVuSans-54"/>
     </g>
    </g>
   </g>
  </g>
 </g>
 <defs>
  <clipPath id="p6195029372">
   <rect height="217.44" width="334.8" x="46.965625" y="22.318125"/>
  </clipPath>
 </defs>
</svg>
