<?xml version="1.0" encoding="utf-8" standalone="no"?>
<!DOCTYPE svg PUBLIC "-//W3C//DTD SVG 1.1//EN"
  "http://www.w3.org/Graphics/SVG/1.1/DTD/svg11.dtd">
<!-- Created with matplotlib (https://matplotlib.org/) -->
<svg height="277.314375pt" version="1.1" viewBox="0 0 392.465625 277.314375" width="392.465625pt" xmlns="http://www.w3.org/2000/svg" xmlns:xlink="http://www.w3.org/1999/xlink">
 <defs>
  <style type="text/css">
*{stroke-linecap:butt;stroke-linejoin:round;}
  </style>
 </defs>
 <g id="figure_1">
  <g id="patch_1">
   <path d="M 0 277.314375 
L 392.465625 277.314375 
L 392.465625 0 
L 0 0 
z
" style="fill:none;"/>
  </g>
  <g id="axes_1">
   <g id="patch_2">
    <path d="M 46.965625 239.758125 
L 381.765625 239.758125 
L 381.765625 22.318125 
L 46.965625 22.318125 
z
" style="fill:none;"/>
   </g>
   <g id="matplotlib.axis_1">
    <g id="xtick_1">
     <g id="line2d_1">
      <defs>
       <path d="M 0 0 
L 0 3.5 
" id="m87133643b7" style="stroke:#000000;stroke-width:0.8;"/>
      </defs>
      <g>
       <use style="stroke:#000000;stroke-width:0.8;" x="62.183807" xlink:href="#m87133643b7" y="239.758125"/>
      </g>
     </g>
     <g id="text_1">
      <!-- 0.000 -->
      <defs>
       <path d="M 31.78125 66.40625 
Q 24.171875 66.40625 20.328125 58.90625 
Q 16.5 51.421875 16.5 36.375 
Q 16.5 21.390625 20.328125 13.890625 
Q 24.171875 6.390625 31.78125 6.390625 
Q 39.453125 6.390625 43.28125 13.890625 
Q 47.125 21.390625 47.125 36.375 
Q 47.125 51.421875 43.28125 58.90625 
Q 39.453125 66.40625 31.78125 66.40625 
z
M 31.78125 74.21875 
Q 44.046875 74.21875 50.515625 64.515625 
Q 56.984375 54.828125 56.984375 36.375 
Q 56.984375 17.96875 50.515625 8.265625 
Q 44.046875 -1.421875 31.78125 -1.421875 
Q 19.53125 -1.421875 13.0625 8.265625 
Q 6.59375 17.96875 6.59375 36.375 
Q 6.59375 54.828125 13.0625 64.515625 
Q 19.53125 74.21875 31.78125 74.21875 
z
" id="DejaVuSans-48"/>
       <path d="M 10.6875 12.40625 
L 21 12.40625 
L 21 0 
L 10.6875 0 
z
" id="DejaVuSans-46"/>
      </defs>
      <g transform="translate(47.869744 254.356562)scale(0.1 -0.1)">
       <use xlink:href="#DejaVuSans-48"/>
       <use x="63.623047" xlink:href="#DejaVuSans-46"/>
       <use x="95.410156" xlink:href="#DejaVuSans-48"/>
       <use x="159.033203" xlink:href="#DejaVuSans-48"/>
       <use x="222.65625" xlink:href="#DejaVuSans-48"/>
      </g>
     </g>
    </g>
    <g id="xtick_2">
     <g id="line2d_2">
      <g>
       <use style="stroke:#000000;stroke-width:0.8;" x="100.165235" xlink:href="#m87133643b7" y="239.758125"/>
      </g>
     </g>
     <g id="text_2">
      <!-- 0.025 -->
      <defs>
       <path d="M 19.1875 8.296875 
L 53.609375 8.296875 
L 53.609375 0 
L 7.328125 0 
L 7.328125 8.296875 
Q 12.9375 14.109375 22.625 23.890625 
Q 32.328125 33.6875 34.8125 36.53125 
Q 39.546875 41.84375 41.421875 45.53125 
Q 43.3125 49.21875 43.3125 52.78125 
Q 43.3125 58.59375 39.234375 62.25 
Q 35.15625 65.921875 28.609375 65.921875 
Q 23.96875 65.921875 18.8125 64.3125 
Q 13.671875 62.703125 7.8125 59.421875 
L 7.8125 69.390625 
Q 13.765625 71.78125 18.9375 73 
Q 24.125 74.21875 28.421875 74.21875 
Q 39.75 74.21875 46.484375 68.546875 
Q 53.21875 62.890625 53.21875 53.421875 
Q 53.21875 48.921875 51.53125 44.890625 
Q 49.859375 40.875 45.40625 35.40625 
Q 44.1875 33.984375 37.640625 27.21875 
Q 31.109375 20.453125 19.1875 8.296875 
z
" id="DejaVuSans-50"/>
       <path d="M 10.796875 72.90625 
L 49.515625 72.90625 
L 49.515625 64.59375 
L 19.828125 64.59375 
L 19.828125 46.734375 
Q 21.96875 47.46875 24.109375 47.828125 
Q 26.265625 48.1875 28.421875 48.1875 
Q 40.625 48.1875 47.75 41.5 
Q 54.890625 34.8125 54.890625 23.390625 
Q 54.890625 11.625 47.5625 5.09375 
Q 40.234375 -1.421875 26.90625 -1.421875 
Q 22.3125 -1.421875 17.546875 -0.640625 
Q 12.796875 0.140625 7.71875 1.703125 
L 7.71875 11.625 
Q 12.109375 9.234375 16.796875 8.0625 
Q 21.484375 6.890625 26.703125 6.890625 
Q 35.15625 6.890625 40.078125 11.328125 
Q 45.015625 15.765625 45.015625 23.390625 
Q 45.015625 31 40.078125 35.4375 
Q 35.15625 39.890625 26.703125 39.890625 
Q 22.75 39.890625 18.8125 39.015625 
Q 14.890625 38.140625 10.796875 36.28125 
z
" id="DejaVuSans-53"/>
      </defs>
      <g transform="translate(85.851172 254.356562)scale(0.1 -0.1)">
       <use xlink:href="#DejaVuSans-48"/>
       <use x="63.623047" xlink:href="#DejaVuSans-46"/>
       <use x="95.410156" xlink:href="#DejaVuSans-48"/>
       <use x="159.033203" xlink:href="#DejaVuSans-50"/>
       <use x="222.65625" xlink:href="#DejaVuSans-53"/>
      </g>
     </g>
    </g>
    <g id="xtick_3">
     <g id="line2d_3">
      <g>
       <use style="stroke:#000000;stroke-width:0.8;" x="138.146662" xlink:href="#m87133643b7" y="239.758125"/>
      </g>
     </g>
     <g id="text_3">
      <!-- 0.050 -->
      <g transform="translate(123.8326 254.356562)scale(0.1 -0.1)">
       <use xlink:href="#DejaVuSans-48"/>
       <use x="63.623047" xlink:href="#DejaVuSans-46"/>
       <use x="95.410156" xlink:href="#DejaVuSans-48"/>
       <use x="159.033203" xlink:href="#DejaVuSans-53"/>
       <use x="222.65625" xlink:href="#DejaVuSans-48"/>
      </g>
     </g>
    </g>
    <g id="xtick_4">
     <g id="line2d_4">
      <g>
       <use style="stroke:#000000;stroke-width:0.8;" x="176.12809" xlink:href="#m87133643b7" y="239.758125"/>
      </g>
     </g>
     <g id="text_4">
      <!-- 0.075 -->
      <defs>
       <path d="M 8.203125 72.90625 
L 55.078125 72.90625 
L 55.078125 68.703125 
L 28.609375 0 
L 18.3125 0 
L 43.21875 64.59375 
L 8.203125 64.59375 
z
" id="DejaVuSans-55"/>
      </defs>
      <g transform="translate(161.814028 254.356562)scale(0.1 -0.1)">
       <use xlink:href="#DejaVuSans-48"/>
       <use x="63.623047" xlink:href="#DejaVuSans-46"/>
       <use x="95.410156" xlink:href="#DejaVuSans-48"/>
       <use x="159.033203" xlink:href="#DejaVuSans-55"/>
       <use x="222.65625" xlink:href="#DejaVuSans-53"/>
      </g>
     </g>
    </g>
    <g id="xtick_5">
     <g id="line2d_5">
      <g>
       <use style="stroke:#000000;stroke-width:0.8;" x="214.109518" xlink:href="#m87133643b7" y="239.758125"/>
      </g>
     </g>
     <g id="text_5">
      <!-- 0.100 -->
      <defs>
       <path d="M 12.40625 8.296875 
L 28.515625 8.296875 
L 28.515625 63.921875 
L 10.984375 60.40625 
L 10.984375 69.390625 
L 28.421875 72.90625 
L 38.28125 72.90625 
L 38.28125 8.296875 
L 54.390625 8.296875 
L 54.390625 0 
L 12.40625 0 
z
" id="DejaVuSans-49"/>
      </defs>
      <g transform="translate(199.795455 254.356562)scale(0.1 -0.1)">
       <use xlink:href="#DejaVuSans-48"/>
       <use x="63.623047" xlink:href="#DejaVuSans-46"/>
       <use x="95.410156" xlink:href="#DejaVuSans-49"/>
       <use x="159.033203" xlink:href="#DejaVuSans-48"/>
       <use x="222.65625" xlink:href="#DejaVuSans-48"/>
      </g>
     </g>
    </g>
    <g id="xtick_6">
     <g id="line2d_6">
      <g>
       <use style="stroke:#000000;stroke-width:0.8;" x="252.090945" xlink:href="#m87133643b7" y="239.758125"/>
      </g>
     </g>
     <g id="text_6">
      <!-- 0.125 -->
      <g transform="translate(237.776883 254.356562)scale(0.1 -0.1)">
       <use xlink:href="#DejaVuSans-48"/>
       <use x="63.623047" xlink:href="#DejaVuSans-46"/>
       <use x="95.410156" xlink:href="#DejaVuSans-49"/>
       <use x="159.033203" xlink:href="#DejaVuSans-50"/>
       <use x="222.65625" xlink:href="#DejaVuSans-53"/>
      </g>
     </g>
    </g>
    <g id="xtick_7">
     <g id="line2d_7">
      <g>
       <use style="stroke:#000000;stroke-width:0.8;" x="290.072373" xlink:href="#m87133643b7" y="239.758125"/>
      </g>
     </g>
     <g id="text_7">
      <!-- 0.150 -->
      <g transform="translate(275.758311 254.356562)scale(0.1 -0.1)">
       <use xlink:href="#DejaVuSans-48"/>
       <use x="63.623047" xlink:href="#DejaVuSans-46"/>
       <use x="95.410156" xlink:href="#DejaVuSans-49"/>
       <use x="159.033203" xlink:href="#DejaVuSans-53"/>
       <use x="222.65625" xlink:href="#DejaVuSans-48"/>
      </g>
     </g>
    </g>
    <g id="xtick_8">
     <g id="line2d_8">
      <g>
       <use style="stroke:#000000;stroke-width:0.8;" x="328.053801" xlink:href="#m87133643b7" y="239.758125"/>
      </g>
     </g>
     <g id="text_8">
      <!-- 0.175 -->
      <g transform="translate(313.739738 254.356562)scale(0.1 -0.1)">
       <use xlink:href="#DejaVuSans-48"/>
       <use x="63.623047" xlink:href="#DejaVuSans-46"/>
       <use x="95.410156" xlink:href="#DejaVuSans-49"/>
       <use x="159.033203" xlink:href="#DejaVuSans-55"/>
       <use x="222.65625" xlink:href="#DejaVuSans-53"/>
      </g>
     </g>
    </g>
    <g id="xtick_9">
     <g id="line2d_9">
      <g>
       <use style="stroke:#000000;stroke-width:0.8;" x="366.035229" xlink:href="#m87133643b7" y="239.758125"/>
      </g>
     </g>
     <g id="text_9">
      <!-- 0.200 -->
      <g transform="translate(351.721166 254.356562)scale(0.1 -0.1)">
       <use xlink:href="#DejaVuSans-48"/>
       <use x="63.623047" xlink:href="#DejaVuSans-46"/>
       <use x="95.410156" xlink:href="#DejaVuSans-50"/>
       <use x="159.033203" xlink:href="#DejaVuSans-48"/>
       <use x="222.65625" xlink:href="#DejaVuSans-48"/>
      </g>
     </g>
    </g>
    <g id="text_10">
     <!-- Time (ms) -->
     <defs>
      <path d="M -0.296875 72.90625 
L 61.375 72.90625 
L 61.375 64.59375 
L 35.5 64.59375 
L 35.5 0 
L 25.59375 0 
L 25.59375 64.59375 
L -0.296875 64.59375 
z
" id="DejaVuSans-84"/>
      <path d="M 9.421875 54.6875 
L 18.40625 54.6875 
L 18.40625 0 
L 9.421875 0 
z
M 9.421875 75.984375 
L 18.40625 75.984375 
L 18.40625 64.59375 
L 9.421875 64.59375 
z
" id="DejaVuSans-105"/>
      <path d="M 52 44.1875 
Q 55.375 50.25 60.0625 53.125 
Q 64.75 56 71.09375 56 
Q 79.640625 56 84.28125 50.015625 
Q 88.921875 44.046875 88.921875 33.015625 
L 88.921875 0 
L 79.890625 0 
L 79.890625 32.71875 
Q 79.890625 40.578125 77.09375 44.375 
Q 74.3125 48.1875 68.609375 48.1875 
Q 61.625 48.1875 57.5625 43.546875 
Q 53.515625 38.921875 53.515625 30.90625 
L 53.515625 0 
L 44.484375 0 
L 44.484375 32.71875 
Q 44.484375 40.625 41.703125 44.40625 
Q 38.921875 48.1875 33.109375 48.1875 
Q 26.21875 48.1875 22.15625 43.53125 
Q 18.109375 38.875 18.109375 30.90625 
L 18.109375 0 
L 9.078125 0 
L 9.078125 54.6875 
L 18.109375 54.6875 
L 18.109375 46.1875 
Q 21.1875 51.21875 25.484375 53.609375 
Q 29.78125 56 35.6875 56 
Q 41.65625 56 45.828125 52.96875 
Q 50 49.953125 52 44.1875 
z
" id="DejaVuSans-109"/>
      <path d="M 56.203125 29.59375 
L 56.203125 25.203125 
L 14.890625 25.203125 
Q 15.484375 15.921875 20.484375 11.0625 
Q 25.484375 6.203125 34.421875 6.203125 
Q 39.59375 6.203125 44.453125 7.46875 
Q 49.3125 8.734375 54.109375 11.28125 
L 54.109375 2.78125 
Q 49.265625 0.734375 44.1875 -0.34375 
Q 39.109375 -1.421875 33.890625 -1.421875 
Q 20.796875 -1.421875 13.15625 6.1875 
Q 5.515625 13.8125 5.515625 26.8125 
Q 5.515625 40.234375 12.765625 48.109375 
Q 20.015625 56 32.328125 56 
Q 43.359375 56 49.78125 48.890625 
Q 56.203125 41.796875 56.203125 29.59375 
z
M 47.21875 32.234375 
Q 47.125 39.59375 43.09375 43.984375 
Q 39.0625 48.390625 32.421875 48.390625 
Q 24.90625 48.390625 20.390625 44.140625 
Q 15.875 39.890625 15.1875 32.171875 
z
" id="DejaVuSans-101"/>
      <path id="DejaVuSans-32"/>
      <path d="M 31 75.875 
Q 24.46875 64.65625 21.28125 53.65625 
Q 18.109375 42.671875 18.109375 31.390625 
Q 18.109375 20.125 21.3125 9.0625 
Q 24.515625 -2 31 -13.1875 
L 23.1875 -13.1875 
Q 15.875 -1.703125 12.234375 9.375 
Q 8.59375 20.453125 8.59375 31.390625 
Q 8.59375 42.28125 12.203125 53.3125 
Q 15.828125 64.359375 23.1875 75.875 
z
" id="DejaVuSans-40"/>
      <path d="M 44.28125 53.078125 
L 44.28125 44.578125 
Q 40.484375 46.53125 36.375 47.5 
Q 32.28125 48.484375 27.875 48.484375 
Q 21.1875 48.484375 17.84375 46.4375 
Q 14.5 44.390625 14.5 40.28125 
Q 14.5 37.15625 16.890625 35.375 
Q 19.28125 33.59375 26.515625 31.984375 
L 29.59375 31.296875 
Q 39.15625 29.25 43.1875 25.515625 
Q 47.21875 21.78125 47.21875 15.09375 
Q 47.21875 7.46875 41.1875 3.015625 
Q 35.15625 -1.421875 24.609375 -1.421875 
Q 20.21875 -1.421875 15.453125 -0.5625 
Q 10.6875 0.296875 5.421875 2 
L 5.421875 11.28125 
Q 10.40625 8.6875 15.234375 7.390625 
Q 20.0625 6.109375 24.8125 6.109375 
Q 31.15625 6.109375 34.5625 8.28125 
Q 37.984375 10.453125 37.984375 14.40625 
Q 37.984375 18.0625 35.515625 20.015625 
Q 33.0625 21.96875 24.703125 23.78125 
L 21.578125 24.515625 
Q 13.234375 26.265625 9.515625 29.90625 
Q 5.8125 33.546875 5.8125 39.890625 
Q 5.8125 47.609375 11.28125 51.796875 
Q 16.75 56 26.8125 56 
Q 31.78125 56 36.171875 55.265625 
Q 40.578125 54.546875 44.28125 53.078125 
z
" id="DejaVuSans-115"/>
      <path d="M 8.015625 75.875 
L 15.828125 75.875 
Q 23.140625 64.359375 26.78125 53.3125 
Q 30.421875 42.28125 30.421875 31.390625 
Q 30.421875 20.453125 26.78125 9.375 
Q 23.140625 -1.703125 15.828125 -13.1875 
L 8.015625 -13.1875 
Q 14.5 -2 17.703125 9.0625 
Q 20.90625 20.125 20.90625 31.390625 
Q 20.90625 42.671875 17.703125 53.65625 
Q 14.5 64.65625 8.015625 75.875 
z
" id="DejaVuSans-41"/>
     </defs>
     <g transform="translate(189.0125 268.034687)scale(0.1 -0.1)">
      <use xlink:href="#DejaVuSans-84"/>
      <use x="61.037109" xlink:href="#DejaVuSans-105"/>
      <use x="88.820312" xlink:href="#DejaVuSans-109"/>
      <use x="186.232422" xlink:href="#DejaVuSans-101"/>
      <use x="247.755859" xlink:href="#DejaVuSans-32"/>
      <use x="279.542969" xlink:href="#DejaVuSans-40"/>
      <use x="318.556641" xlink:href="#DejaVuSans-109"/>
      <use x="415.96875" xlink:href="#DejaVuSans-115"/>
      <use x="468.068359" xlink:href="#DejaVuSans-41"/>
     </g>
    </g>
   </g>
   <g id="matplotlib.axis_2">
    <g id="ytick_1">
     <g id="line2d_10">
      <defs>
       <path d="M 0 0 
L -3.5 0 
" id="m920ddc11ab" style="stroke:#000000;stroke-width:0.8;"/>
      </defs>
      <g>
       <use style="stroke:#000000;stroke-width:0.8;" x="46.965625" xlink:href="#m920ddc11ab" y="229.874489"/>
      </g>
     </g>
     <g id="text_11">
      <!-- 0 -->
      <g transform="translate(33.603125 233.673707)scale(0.1 -0.1)">
       <use xlink:href="#DejaVuSans-48"/>
      </g>
     </g>
    </g>
    <g id="ytick_2">
     <g id="line2d_11">
      <g>
       <use style="stroke:#000000;stroke-width:0.8;" x="46.965625" xlink:href="#m920ddc11ab" y="196.892186"/>
      </g>
     </g>
     <g id="text_12">
      <!-- 100 -->
      <g transform="translate(20.878125 200.691405)scale(0.1 -0.1)">
       <use xlink:href="#DejaVuSans-49"/>
       <use x="63.623047" xlink:href="#DejaVuSans-48"/>
       <use x="127.246094" xlink:href="#DejaVuSans-48"/>
      </g>
     </g>
    </g>
    <g id="ytick_3">
     <g id="line2d_12">
      <g>
       <use style="stroke:#000000;stroke-width:0.8;" x="46.965625" xlink:href="#m920ddc11ab" y="163.909883"/>
      </g>
     </g>
     <g id="text_13">
      <!-- 200 -->
      <g transform="translate(20.878125 167.709102)scale(0.1 -0.1)">
       <use xlink:href="#DejaVuSans-50"/>
       <use x="63.623047" xlink:href="#DejaVuSans-48"/>
       <use x="127.246094" xlink:href="#DejaVuSans-48"/>
      </g>
     </g>
    </g>
    <g id="ytick_4">
     <g id="line2d_13">
      <g>
       <use style="stroke:#000000;stroke-width:0.8;" x="46.965625" xlink:href="#m920ddc11ab" y="130.927581"/>
      </g>
     </g>
     <g id="text_14">
      <!-- 300 -->
      <defs>
       <path d="M 40.578125 39.3125 
Q 47.65625 37.796875 51.625 33 
Q 55.609375 28.21875 55.609375 21.1875 
Q 55.609375 10.40625 48.1875 4.484375 
Q 40.765625 -1.421875 27.09375 -1.421875 
Q 22.515625 -1.421875 17.65625 -0.515625 
Q 12.796875 0.390625 7.625 2.203125 
L 7.625 11.71875 
Q 11.71875 9.328125 16.59375 8.109375 
Q 21.484375 6.890625 26.8125 6.890625 
Q 36.078125 6.890625 40.9375 10.546875 
Q 45.796875 14.203125 45.796875 21.1875 
Q 45.796875 27.640625 41.28125 31.265625 
Q 36.765625 34.90625 28.71875 34.90625 
L 20.21875 34.90625 
L 20.21875 43.015625 
L 29.109375 43.015625 
Q 36.375 43.015625 40.234375 45.921875 
Q 44.09375 48.828125 44.09375 54.296875 
Q 44.09375 59.90625 40.109375 62.90625 
Q 36.140625 65.921875 28.71875 65.921875 
Q 24.65625 65.921875 20.015625 65.03125 
Q 15.375 64.15625 9.8125 62.3125 
L 9.8125 71.09375 
Q 15.4375 72.65625 20.34375 73.4375 
Q 25.25 74.21875 29.59375 74.21875 
Q 40.828125 74.21875 47.359375 69.109375 
Q 53.90625 64.015625 53.90625 55.328125 
Q 53.90625 49.265625 50.4375 45.09375 
Q 46.96875 40.921875 40.578125 39.3125 
z
" id="DejaVuSans-51"/>
      </defs>
      <g transform="translate(20.878125 134.726799)scale(0.1 -0.1)">
       <use xlink:href="#DejaVuSans-51"/>
       <use x="63.623047" xlink:href="#DejaVuSans-48"/>
       <use x="127.246094" xlink:href="#DejaVuSans-48"/>
      </g>
     </g>
    </g>
    <g id="ytick_5">
     <g id="line2d_14">
      <g>
       <use style="stroke:#000000;stroke-width:0.8;" x="46.965625" xlink:href="#m920ddc11ab" y="97.945278"/>
      </g>
     </g>
     <g id="text_15">
      <!-- 400 -->
      <defs>
       <path d="M 37.796875 64.3125 
L 12.890625 25.390625 
L 37.796875 25.390625 
z
M 35.203125 72.90625 
L 47.609375 72.90625 
L 47.609375 25.390625 
L 58.015625 25.390625 
L 58.015625 17.1875 
L 47.609375 17.1875 
L 47.609375 0 
L 37.796875 0 
L 37.796875 17.1875 
L 4.890625 17.1875 
L 4.890625 26.703125 
z
" id="DejaVuSans-52"/>
      </defs>
      <g transform="translate(20.878125 101.744497)scale(0.1 -0.1)">
       <use xlink:href="#DejaVuSans-52"/>
       <use x="63.623047" xlink:href="#DejaVuSans-48"/>
       <use x="127.246094" xlink:href="#DejaVuSans-48"/>
      </g>
     </g>
    </g>
    <g id="ytick_6">
     <g id="line2d_15">
      <g>
       <use style="stroke:#000000;stroke-width:0.8;" x="46.965625" xlink:href="#m920ddc11ab" y="64.962975"/>
      </g>
     </g>
     <g id="text_16">
      <!-- 500 -->
      <g transform="translate(20.878125 68.762194)scale(0.1 -0.1)">
       <use xlink:href="#DejaVuSans-53"/>
       <use x="63.623047" xlink:href="#DejaVuSans-48"/>
       <use x="127.246094" xlink:href="#DejaVuSans-48"/>
      </g>
     </g>
    </g>
    <g id="ytick_7">
     <g id="line2d_16">
      <g>
       <use style="stroke:#000000;stroke-width:0.8;" x="46.965625" xlink:href="#m920ddc11ab" y="31.980673"/>
      </g>
     </g>
     <g id="text_17">
      <!-- 600 -->
      <defs>
       <path d="M 33.015625 40.375 
Q 26.375 40.375 22.484375 35.828125 
Q 18.609375 31.296875 18.609375 23.390625 
Q 18.609375 15.53125 22.484375 10.953125 
Q 26.375 6.390625 33.015625 6.390625 
Q 39.65625 6.390625 43.53125 10.953125 
Q 47.40625 15.53125 47.40625 23.390625 
Q 47.40625 31.296875 43.53125 35.828125 
Q 39.65625 40.375 33.015625 40.375 
z
M 52.59375 71.296875 
L 52.59375 62.3125 
Q 48.875 64.0625 45.09375 64.984375 
Q 41.3125 65.921875 37.59375 65.921875 
Q 27.828125 65.921875 22.671875 59.328125 
Q 17.53125 52.734375 16.796875 39.40625 
Q 19.671875 43.65625 24.015625 45.921875 
Q 28.375 48.1875 33.59375 48.1875 
Q 44.578125 48.1875 50.953125 41.515625 
Q 57.328125 34.859375 57.328125 23.390625 
Q 57.328125 12.15625 50.6875 5.359375 
Q 44.046875 -1.421875 33.015625 -1.421875 
Q 20.359375 -1.421875 13.671875 8.265625 
Q 6.984375 17.96875 6.984375 36.375 
Q 6.984375 53.65625 15.1875 63.9375 
Q 23.390625 74.21875 37.203125 74.21875 
Q 40.921875 74.21875 44.703125 73.484375 
Q 48.484375 72.75 52.59375 71.296875 
z
" id="DejaVuSans-54"/>
      </defs>
      <g transform="translate(20.878125 35.779891)scale(0.1 -0.1)">
       <use xlink:href="#DejaVuSans-54"/>
       <use x="63.623047" xlink:href="#DejaVuSans-48"/>
       <use x="127.246094" xlink:href="#DejaVuSans-48"/>
      </g>
     </g>
    </g>
    <g id="text_18">
     <!-- ppmOH -->
     <defs>
      <path d="M 18.109375 8.203125 
L 18.109375 -20.796875 
L 9.078125 -20.796875 
L 9.078125 54.6875 
L 18.109375 54.6875 
L 18.109375 46.390625 
Q 20.953125 51.265625 25.265625 53.625 
Q 29.59375 56 35.59375 56 
Q 45.5625 56 51.78125 48.09375 
Q 58.015625 40.1875 58.015625 27.296875 
Q 58.015625 14.40625 51.78125 6.484375 
Q 45.5625 -1.421875 35.59375 -1.421875 
Q 29.59375 -1.421875 25.265625 0.953125 
Q 20.953125 3.328125 18.109375 8.203125 
z
M 48.6875 27.296875 
Q 48.6875 37.203125 44.609375 42.84375 
Q 40.53125 48.484375 33.40625 48.484375 
Q 26.265625 48.484375 22.1875 42.84375 
Q 18.109375 37.203125 18.109375 27.296875 
Q 18.109375 17.390625 22.1875 11.75 
Q 26.265625 6.109375 33.40625 6.109375 
Q 40.53125 6.109375 44.609375 11.75 
Q 48.6875 17.390625 48.6875 27.296875 
z
" id="DejaVuSans-112"/>
      <path d="M 39.40625 66.21875 
Q 28.65625 66.21875 22.328125 58.203125 
Q 16.015625 50.203125 16.015625 36.375 
Q 16.015625 22.609375 22.328125 14.59375 
Q 28.65625 6.59375 39.40625 6.59375 
Q 50.140625 6.59375 56.421875 14.59375 
Q 62.703125 22.609375 62.703125 36.375 
Q 62.703125 50.203125 56.421875 58.203125 
Q 50.140625 66.21875 39.40625 66.21875 
z
M 39.40625 74.21875 
Q 54.734375 74.21875 63.90625 63.9375 
Q 73.09375 53.65625 73.09375 36.375 
Q 73.09375 19.140625 63.90625 8.859375 
Q 54.734375 -1.421875 39.40625 -1.421875 
Q 24.03125 -1.421875 14.8125 8.828125 
Q 5.609375 19.09375 5.609375 36.375 
Q 5.609375 53.65625 14.8125 63.9375 
Q 24.03125 74.21875 39.40625 74.21875 
z
" id="DejaVuSans-79"/>
      <path d="M 9.8125 72.90625 
L 19.671875 72.90625 
L 19.671875 43.015625 
L 55.515625 43.015625 
L 55.515625 72.90625 
L 65.375 72.90625 
L 65.375 0 
L 55.515625 0 
L 55.515625 34.71875 
L 19.671875 34.71875 
L 19.671875 0 
L 9.8125 0 
z
" id="DejaVuSans-72"/>
     </defs>
     <g transform="translate(14.798438 149.952969)rotate(-90)scale(0.1 -0.1)">
      <use xlink:href="#DejaVuSans-112"/>
      <use x="63.476562" xlink:href="#DejaVuSans-112"/>
      <use x="126.953125" xlink:href="#DejaVuSans-109"/>
      <use x="224.365234" xlink:href="#DejaVuSans-79"/>
      <use x="303.076172" xlink:href="#DejaVuSans-72"/>
     </g>
    </g>
   </g>
   <g id="line2d_17">
    <path clip-path="url(#p254325d9aa)" d="M 62.183807 229.874489 
L 96.024123 229.766809 
L 117.319066 229.517687 
L 131.515695 229.146311 
L 142.163166 228.656034 
L 151.036059 228.019395 
L 158.134373 227.289803 
L 164.378443 226.42529 
L 169.735223 225.467563 
L 175.092003 224.258214 
L 179.109588 223.150667 
L 183.127174 221.839448 
L 187.090279 220.315233 
L 191.053385 218.528254 
L 195.016491 216.443128 
L 197.988821 214.661832 
L 200.96115 212.677404 
L 203.93348 210.47561 
L 206.905809 208.043692 
L 209.878139 205.371148 
L 212.850468 202.45062 
L 215.822797 199.27885 
L 219.785903 194.662996 
L 223.749009 189.62571 
L 227.712115 184.210319 
L 232.665998 177.013521 
L 239.95929 165.926563 
L 247.252582 154.911738 
L 251.628557 148.656053 
L 255.275204 143.775183 
L 258.92185 139.264799 
L 262.568496 135.168336 
L 265.485813 132.20512 
L 268.403129 129.52424 
L 271.320446 127.121083 
L 274.237763 124.985112 
L 277.15508 123.101204 
L 280.072397 121.451027 
L 282.989714 120.014317 
L 286.63636 118.486494 
L 290.283006 117.218498 
L 293.929652 116.171753 
L 298.305628 115.158571 
L 302.681603 114.360822 
L 307.786907 113.644017 
L 313.621541 113.039359 
L 320.555438 112.53607 
L 329.31582 112.126785 
L 341.361345 111.81672 
L 357.787061 111.643022 
L 366.547443 111.611628 
L 366.547443 111.611628 
" style="fill:none;stroke:#0000ff;stroke-linecap:square;stroke-width:1.5;"/>
   </g>
   <g id="line2d_18">
    <path clip-path="url(#p254325d9aa)" d="M 62.183807 229.874489 
L 97.291712 229.768129 
L 120.44473 229.506573 
L 134.777551 229.144366 
L 145.802797 228.661263 
L 154.622995 228.067794 
L 162.340668 227.326905 
L 168.955816 226.465807 
L 174.468439 225.540443 
L 179.981062 224.377467 
L 184.391161 223.239406 
L 188.80126 221.88193 
L 193.211358 220.268997 
L 197.621457 218.361366 
L 200.929031 216.712342 
L 204.236605 214.856418 
L 207.544179 212.776115 
L 210.851753 210.455007 
L 214.159327 207.878593 
L 217.466901 205.035336 
L 220.774475 201.917827 
L 224.082049 198.524023 
L 227.389623 194.85849 
L 231.799722 189.570897 
L 236.209821 183.87622 
L 241.722444 176.31242 
L 260.398867 150.112693 
L 264.450214 144.994847 
L 268.501561 140.269539 
L 271.742638 136.805473 
L 274.983716 133.638057 
L 278.224793 130.771658 
L 281.465871 128.202302 
L 284.706949 125.919116 
L 287.948026 123.905953 
L 291.189104 122.143019 
L 294.430181 120.608381 
L 297.671259 119.279249 
L 301.722606 117.872449 
L 305.773953 116.709485 
L 310.635569 115.582184 
L 315.497185 114.693382 
L 321.169071 113.89401 
L 327.651226 113.219633 
L 334.54771 112.708142 
L 344.295462 112.234773 
L 356.480152 111.902805 
L 366.227904 111.761867 
L 366.227904 111.761867 
" style="fill:none;stroke:#ff0000;stroke-linecap:square;stroke-width:1.5;"/>
   </g>
   <g id="line2d_19">
    <defs>
     <path d="M 0 3 
C 0.795609 3 1.55874 2.683901 2.12132 2.12132 
C 2.683901 1.55874 3 0.795609 3 0 
C 3 -0.795609 2.683901 -1.55874 2.12132 -2.12132 
C 1.55874 -2.683901 0.795609 -3 0 -3 
C -0.795609 -3 -1.55874 -2.683901 -2.12132 -2.12132 
C -2.683901 -1.55874 -3 -0.795609 -3 0 
C -3 0.795609 -2.683901 1.55874 -2.12132 2.12132 
C -1.55874 2.683901 -0.795609 3 0 3 
z
" id="m971a0535f0" style="stroke:#000000;"/>
    </defs>
    <g clip-path="url(#p254325d9aa)">
     <use style="stroke:#000000;" x="62.183807" xlink:href="#m971a0535f0" y="229.874489"/>
     <use style="stroke:#000000;" x="62.184084" xlink:href="#m971a0535f0" y="229.874489"/>
     <use style="stroke:#000000;" x="62.186857" xlink:href="#m971a0535f0" y="229.874489"/>
     <use style="stroke:#000000;" x="62.18963" xlink:href="#m971a0535f0" y="229.874489"/>
     <use style="stroke:#000000;" x="62.192404" xlink:href="#m971a0535f0" y="229.874489"/>
     <use style="stroke:#000000;" x="62.196988" xlink:href="#m971a0535f0" y="229.874489"/>
     <use style="stroke:#000000;" x="62.204743" xlink:href="#m971a0535f0" y="229.874489"/>
     <use style="stroke:#000000;" x="62.218154" xlink:href="#m971a0535f0" y="229.874488"/>
     <use style="stroke:#000000;" x="62.238547" xlink:href="#m971a0535f0" y="229.874488"/>
     <use style="stroke:#000000;" x="62.258939" xlink:href="#m971a0535f0" y="229.874487"/>
     <use style="stroke:#000000;" x="62.279332" xlink:href="#m971a0535f0" y="229.874486"/>
     <use style="stroke:#000000;" x="62.315301" xlink:href="#m971a0535f0" y="229.874484"/>
     <use style="stroke:#000000;" x="62.351269" xlink:href="#m971a0535f0" y="229.874481"/>
     <use style="stroke:#000000;" x="62.387237" xlink:href="#m971a0535f0" y="229.874477"/>
     <use style="stroke:#000000;" x="62.423206" xlink:href="#m971a0535f0" y="229.874473"/>
     <use style="stroke:#000000;" x="62.479352" xlink:href="#m971a0535f0" y="229.874465"/>
     <use style="stroke:#000000;" x="62.535498" xlink:href="#m971a0535f0" y="229.874455"/>
     <use style="stroke:#000000;" x="62.622034" xlink:href="#m971a0535f0" y="229.874437"/>
     <use style="stroke:#000000;" x="62.708571" xlink:href="#m971a0535f0" y="229.874415"/>
     <use style="stroke:#000000;" x="62.795107" xlink:href="#m971a0535f0" y="229.874389"/>
     <use style="stroke:#000000;" x="62.881644" xlink:href="#m971a0535f0" y="229.874359"/>
     <use style="stroke:#000000;" x="62.96818" xlink:href="#m971a0535f0" y="229.874326"/>
     <use style="stroke:#000000;" x="63.054716" xlink:href="#m971a0535f0" y="229.874289"/>
     <use style="stroke:#000000;" x="63.141253" xlink:href="#m971a0535f0" y="229.874249"/>
     <use style="stroke:#000000;" x="63.27372" xlink:href="#m971a0535f0" y="229.874182"/>
     <use style="stroke:#000000;" x="63.406188" xlink:href="#m971a0535f0" y="229.874107"/>
     <use style="stroke:#000000;" x="63.538655" xlink:href="#m971a0535f0" y="229.874025"/>
     <use style="stroke:#000000;" x="63.671122" xlink:href="#m971a0535f0" y="229.873937"/>
     <use style="stroke:#000000;" x="63.803589" xlink:href="#m971a0535f0" y="229.873843"/>
     <use style="stroke:#000000;" x="63.936057" xlink:href="#m971a0535f0" y="229.873742"/>
     <use style="stroke:#000000;" x="64.068524" xlink:href="#m971a0535f0" y="229.873636"/>
     <use style="stroke:#000000;" x="64.200991" xlink:href="#m971a0535f0" y="229.873525"/>
     <use style="stroke:#000000;" x="64.421305" xlink:href="#m971a0535f0" y="229.873329"/>
     <use style="stroke:#000000;" x="64.641619" xlink:href="#m971a0535f0" y="229.87312"/>
     <use style="stroke:#000000;" x="64.861932" xlink:href="#m971a0535f0" y="229.872899"/>
     <use style="stroke:#000000;" x="65.082246" xlink:href="#m971a0535f0" y="229.872668"/>
     <use style="stroke:#000000;" x="65.302559" xlink:href="#m971a0535f0" y="229.872427"/>
     <use style="stroke:#000000;" x="65.522873" xlink:href="#m971a0535f0" y="229.872176"/>
     <use style="stroke:#000000;" x="65.743187" xlink:href="#m971a0535f0" y="229.871917"/>
     <use style="stroke:#000000;" x="65.9635" xlink:href="#m971a0535f0" y="229.871649"/>
     <use style="stroke:#000000;" x="66.327987" xlink:href="#m971a0535f0" y="229.87119"/>
     <use style="stroke:#000000;" x="66.692474" xlink:href="#m971a0535f0" y="229.870712"/>
     <use style="stroke:#000000;" x="67.056961" xlink:href="#m971a0535f0" y="229.870216"/>
     <use style="stroke:#000000;" x="67.421448" xlink:href="#m971a0535f0" y="229.869703"/>
     <use style="stroke:#000000;" x="67.785935" xlink:href="#m971a0535f0" y="229.869174"/>
     <use style="stroke:#000000;" x="68.150423" xlink:href="#m971a0535f0" y="229.86863"/>
     <use style="stroke:#000000;" x="68.51491" xlink:href="#m971a0535f0" y="229.86807"/>
     <use style="stroke:#000000;" x="68.879397" xlink:href="#m971a0535f0" y="229.867495"/>
     <use style="stroke:#000000;" x="69.243884" xlink:href="#m971a0535f0" y="229.866905"/>
     <use style="stroke:#000000;" x="69.608371" xlink:href="#m971a0535f0" y="229.8663"/>
     <use style="stroke:#000000;" x="69.972858" xlink:href="#m971a0535f0" y="229.865681"/>
     <use style="stroke:#000000;" x="70.337345" xlink:href="#m971a0535f0" y="229.865046"/>
     <use style="stroke:#000000;" x="70.701832" xlink:href="#m971a0535f0" y="229.864396"/>
     <use style="stroke:#000000;" x="71.066319" xlink:href="#m971a0535f0" y="229.863731"/>
     <use style="stroke:#000000;" x="71.430806" xlink:href="#m971a0535f0" y="229.863051"/>
     <use style="stroke:#000000;" x="71.795293" xlink:href="#m971a0535f0" y="229.862355"/>
     <use style="stroke:#000000;" x="72.15978" xlink:href="#m971a0535f0" y="229.861644"/>
     <use style="stroke:#000000;" x="72.524267" xlink:href="#m971a0535f0" y="229.860916"/>
     <use style="stroke:#000000;" x="72.888754" xlink:href="#m971a0535f0" y="229.860173"/>
     <use style="stroke:#000000;" x="73.439894" xlink:href="#m971a0535f0" y="229.859018"/>
     <use style="stroke:#000000;" x="73.991033" xlink:href="#m971a0535f0" y="229.857825"/>
     <use style="stroke:#000000;" x="74.542172" xlink:href="#m971a0535f0" y="229.856593"/>
     <use style="stroke:#000000;" x="75.093311" xlink:href="#m971a0535f0" y="229.855322"/>
     <use style="stroke:#000000;" x="75.64445" xlink:href="#m971a0535f0" y="229.85401"/>
     <use style="stroke:#000000;" x="76.195589" xlink:href="#m971a0535f0" y="229.852657"/>
     <use style="stroke:#000000;" x="77.26909" xlink:href="#m971a0535f0" y="229.849899"/>
     <use style="stroke:#000000;" x="78.34259" xlink:href="#m971a0535f0" y="229.846975"/>
     <use style="stroke:#000000;" x="79.41609" xlink:href="#m971a0535f0" y="229.843876"/>
     <use style="stroke:#000000;" x="80.48959" xlink:href="#m971a0535f0" y="229.840595"/>
     <use style="stroke:#000000;" x="81.56309" xlink:href="#m971a0535f0" y="229.837123"/>
     <use style="stroke:#000000;" x="82.636591" xlink:href="#m971a0535f0" y="229.833452"/>
     <use style="stroke:#000000;" x="83.710091" xlink:href="#m971a0535f0" y="229.829572"/>
     <use style="stroke:#000000;" x="84.783591" xlink:href="#m971a0535f0" y="229.825474"/>
     <use style="stroke:#000000;" x="85.857091" xlink:href="#m971a0535f0" y="229.821146"/>
     <use style="stroke:#000000;" x="86.930591" xlink:href="#m971a0535f0" y="229.81658"/>
     <use style="stroke:#000000;" x="88.004092" xlink:href="#m971a0535f0" y="229.811762"/>
     <use style="stroke:#000000;" x="89.077592" xlink:href="#m971a0535f0" y="229.806681"/>
     <use style="stroke:#000000;" x="90.151092" xlink:href="#m971a0535f0" y="229.801324"/>
     <use style="stroke:#000000;" x="91.224592" xlink:href="#m971a0535f0" y="229.795677"/>
     <use style="stroke:#000000;" x="92.298092" xlink:href="#m971a0535f0" y="229.789727"/>
     <use style="stroke:#000000;" x="93.371593" xlink:href="#m971a0535f0" y="229.783459"/>
     <use style="stroke:#000000;" x="94.445093" xlink:href="#m971a0535f0" y="229.776856"/>
     <use style="stroke:#000000;" x="95.518593" xlink:href="#m971a0535f0" y="229.769903"/>
     <use style="stroke:#000000;" x="96.592093" xlink:href="#m971a0535f0" y="229.762581"/>
     <use style="stroke:#000000;" x="97.665594" xlink:href="#m971a0535f0" y="229.754873"/>
     <use style="stroke:#000000;" x="98.739094" xlink:href="#m971a0535f0" y="229.746759"/>
     <use style="stroke:#000000;" x="99.812594" xlink:href="#m971a0535f0" y="229.738219"/>
     <use style="stroke:#000000;" x="100.886094" xlink:href="#m971a0535f0" y="229.729232"/>
     <use style="stroke:#000000;" x="101.959594" xlink:href="#m971a0535f0" y="229.719776"/>
     <use style="stroke:#000000;" x="103.033095" xlink:href="#m971a0535f0" y="229.709826"/>
     <use style="stroke:#000000;" x="104.106595" xlink:href="#m971a0535f0" y="229.699357"/>
     <use style="stroke:#000000;" x="105.180095" xlink:href="#m971a0535f0" y="229.688345"/>
     <use style="stroke:#000000;" x="106.253595" xlink:href="#m971a0535f0" y="229.676761"/>
     <use style="stroke:#000000;" x="107.327095" xlink:href="#m971a0535f0" y="229.664576"/>
     <use style="stroke:#000000;" x="108.400596" xlink:href="#m971a0535f0" y="229.651761"/>
     <use style="stroke:#000000;" x="109.474096" xlink:href="#m971a0535f0" y="229.638283"/>
     <use style="stroke:#000000;" x="110.547596" xlink:href="#m971a0535f0" y="229.624109"/>
     <use style="stroke:#000000;" x="111.621096" xlink:href="#m971a0535f0" y="229.609204"/>
     <use style="stroke:#000000;" x="112.694596" xlink:href="#m971a0535f0" y="229.59353"/>
     <use style="stroke:#000000;" x="113.768097" xlink:href="#m971a0535f0" y="229.57705"/>
     <use style="stroke:#000000;" x="114.841597" xlink:href="#m971a0535f0" y="229.559721"/>
     <use style="stroke:#000000;" x="115.915097" xlink:href="#m971a0535f0" y="229.541502"/>
     <use style="stroke:#000000;" x="116.988597" xlink:href="#m971a0535f0" y="229.522347"/>
     <use style="stroke:#000000;" x="118.062097" xlink:href="#m971a0535f0" y="229.502209"/>
     <use style="stroke:#000000;" x="119.135598" xlink:href="#m971a0535f0" y="229.481038"/>
     <use style="stroke:#000000;" x="120.209098" xlink:href="#m971a0535f0" y="229.458782"/>
     <use style="stroke:#000000;" x="121.282598" xlink:href="#m971a0535f0" y="229.435386"/>
     <use style="stroke:#000000;" x="122.356098" xlink:href="#m971a0535f0" y="229.410793"/>
     <use style="stroke:#000000;" x="123.429599" xlink:href="#m971a0535f0" y="229.384942"/>
     <use style="stroke:#000000;" x="124.503099" xlink:href="#m971a0535f0" y="229.35777"/>
     <use style="stroke:#000000;" x="125.576599" xlink:href="#m971a0535f0" y="229.32921"/>
     <use style="stroke:#000000;" x="126.650099" xlink:href="#m971a0535f0" y="229.299193"/>
     <use style="stroke:#000000;" x="127.723599" xlink:href="#m971a0535f0" y="229.267644"/>
     <use style="stroke:#000000;" x="128.7971" xlink:href="#m971a0535f0" y="229.234487"/>
     <use style="stroke:#000000;" x="129.8706" xlink:href="#m971a0535f0" y="229.199641"/>
     <use style="stroke:#000000;" x="130.9441" xlink:href="#m971a0535f0" y="229.163022"/>
     <use style="stroke:#000000;" x="132.0176" xlink:href="#m971a0535f0" y="229.12454"/>
     <use style="stroke:#000000;" x="133.0911" xlink:href="#m971a0535f0" y="229.084102"/>
     <use style="stroke:#000000;" x="134.164601" xlink:href="#m971a0535f0" y="229.04161"/>
     <use style="stroke:#000000;" x="135.238101" xlink:href="#m971a0535f0" y="228.996962"/>
     <use style="stroke:#000000;" x="136.311601" xlink:href="#m971a0535f0" y="228.95005"/>
     <use style="stroke:#000000;" x="137.385101" xlink:href="#m971a0535f0" y="228.900761"/>
     <use style="stroke:#000000;" x="138.458601" xlink:href="#m971a0535f0" y="228.848976"/>
     <use style="stroke:#000000;" x="139.532102" xlink:href="#m971a0535f0" y="228.794572"/>
     <use style="stroke:#000000;" x="140.605602" xlink:href="#m971a0535f0" y="228.73742"/>
     <use style="stroke:#000000;" x="141.679102" xlink:href="#m971a0535f0" y="228.677382"/>
     <use style="stroke:#000000;" x="142.752602" xlink:href="#m971a0535f0" y="228.614316"/>
     <use style="stroke:#000000;" x="143.826102" xlink:href="#m971a0535f0" y="228.548073"/>
     <use style="stroke:#000000;" x="144.899603" xlink:href="#m971a0535f0" y="228.478496"/>
     <use style="stroke:#000000;" x="145.973103" xlink:href="#m971a0535f0" y="228.405422"/>
     <use style="stroke:#000000;" x="147.046603" xlink:href="#m971a0535f0" y="228.328679"/>
     <use style="stroke:#000000;" x="148.120103" xlink:href="#m971a0535f0" y="228.248088"/>
     <use style="stroke:#000000;" x="149.193603" xlink:href="#m971a0535f0" y="228.163461"/>
     <use style="stroke:#000000;" x="150.267104" xlink:href="#m971a0535f0" y="228.074601"/>
     <use style="stroke:#000000;" x="151.340604" xlink:href="#m971a0535f0" y="227.981304"/>
     <use style="stroke:#000000;" x="152.414104" xlink:href="#m971a0535f0" y="227.883355"/>
     <use style="stroke:#000000;" x="153.487604" xlink:href="#m971a0535f0" y="227.78053"/>
     <use style="stroke:#000000;" x="154.561105" xlink:href="#m971a0535f0" y="227.672593"/>
     <use style="stroke:#000000;" x="155.634605" xlink:href="#m971a0535f0" y="227.559301"/>
     <use style="stroke:#000000;" x="156.708105" xlink:href="#m971a0535f0" y="227.440398"/>
     <use style="stroke:#000000;" x="157.781605" xlink:href="#m971a0535f0" y="227.315617"/>
     <use style="stroke:#000000;" x="158.855105" xlink:href="#m971a0535f0" y="227.184679"/>
     <use style="stroke:#000000;" x="159.928606" xlink:href="#m971a0535f0" y="227.047295"/>
     <use style="stroke:#000000;" x="161.002106" xlink:href="#m971a0535f0" y="226.903162"/>
     <use style="stroke:#000000;" x="162.075606" xlink:href="#m971a0535f0" y="226.751963"/>
     <use style="stroke:#000000;" x="163.149106" xlink:href="#m971a0535f0" y="226.593372"/>
     <use style="stroke:#000000;" x="164.222606" xlink:href="#m971a0535f0" y="226.427046"/>
     <use style="stroke:#000000;" x="165.296107" xlink:href="#m971a0535f0" y="226.252628"/>
     <use style="stroke:#000000;" x="166.369607" xlink:href="#m971a0535f0" y="226.069749"/>
     <use style="stroke:#000000;" x="167.443107" xlink:href="#m971a0535f0" y="225.878024"/>
     <use style="stroke:#000000;" x="168.516607" xlink:href="#m971a0535f0" y="225.677054"/>
     <use style="stroke:#000000;" x="169.590107" xlink:href="#m971a0535f0" y="225.466423"/>
     <use style="stroke:#000000;" x="170.663608" xlink:href="#m971a0535f0" y="225.245701"/>
     <use style="stroke:#000000;" x="171.737108" xlink:href="#m971a0535f0" y="225.014441"/>
     <use style="stroke:#000000;" x="172.810608" xlink:href="#m971a0535f0" y="224.772183"/>
     <use style="stroke:#000000;" x="173.884108" xlink:href="#m971a0535f0" y="224.518446"/>
     <use style="stroke:#000000;" x="174.957608" xlink:href="#m971a0535f0" y="224.252736"/>
     <use style="stroke:#000000;" x="176.031109" xlink:href="#m971a0535f0" y="223.974542"/>
     <use style="stroke:#000000;" x="177.104609" xlink:href="#m971a0535f0" y="223.683335"/>
     <use style="stroke:#000000;" x="178.178109" xlink:href="#m971a0535f0" y="223.378572"/>
     <use style="stroke:#000000;" x="179.251609" xlink:href="#m971a0535f0" y="223.059692"/>
     <use style="stroke:#000000;" x="180.325109" xlink:href="#m971a0535f0" y="222.726116"/>
     <use style="stroke:#000000;" x="181.39861" xlink:href="#m971a0535f0" y="222.377254"/>
     <use style="stroke:#000000;" x="182.47211" xlink:href="#m971a0535f0" y="222.012494"/>
     <use style="stroke:#000000;" x="183.54561" xlink:href="#m971a0535f0" y="221.631215"/>
     <use style="stroke:#000000;" x="184.61911" xlink:href="#m971a0535f0" y="221.232778"/>
     <use style="stroke:#000000;" x="185.692611" xlink:href="#m971a0535f0" y="220.816531"/>
     <use style="stroke:#000000;" x="186.766111" xlink:href="#m971a0535f0" y="220.381808"/>
     <use style="stroke:#000000;" x="187.839611" xlink:href="#m971a0535f0" y="219.927933"/>
     <use style="stroke:#000000;" x="188.913111" xlink:href="#m971a0535f0" y="219.454219"/>
     <use style="stroke:#000000;" x="189.986611" xlink:href="#m971a0535f0" y="218.959969"/>
     <use style="stroke:#000000;" x="191.060112" xlink:href="#m971a0535f0" y="218.444478"/>
     <use style="stroke:#000000;" x="192.133612" xlink:href="#m971a0535f0" y="217.907036"/>
     <use style="stroke:#000000;" x="193.207112" xlink:href="#m971a0535f0" y="217.346928"/>
     <use style="stroke:#000000;" x="194.280612" xlink:href="#m971a0535f0" y="216.763439"/>
     <use style="stroke:#000000;" x="195.354112" xlink:href="#m971a0535f0" y="216.155854"/>
     <use style="stroke:#000000;" x="196.427613" xlink:href="#m971a0535f0" y="215.52346"/>
     <use style="stroke:#000000;" x="197.501113" xlink:href="#m971a0535f0" y="214.865552"/>
     <use style="stroke:#000000;" x="198.574613" xlink:href="#m971a0535f0" y="214.181436"/>
     <use style="stroke:#000000;" x="199.648113" xlink:href="#m971a0535f0" y="213.470428"/>
     <use style="stroke:#000000;" x="200.721613" xlink:href="#m971a0535f0" y="212.731863"/>
     <use style="stroke:#000000;" x="201.795114" xlink:href="#m971a0535f0" y="211.965097"/>
     <use style="stroke:#000000;" x="202.868614" xlink:href="#m971a0535f0" y="211.169511"/>
     <use style="stroke:#000000;" x="203.942114" xlink:href="#m971a0535f0" y="210.344516"/>
     <use style="stroke:#000000;" x="205.015614" xlink:href="#m971a0535f0" y="209.489558"/>
     <use style="stroke:#000000;" x="206.089114" xlink:href="#m971a0535f0" y="208.604121"/>
     <use style="stroke:#000000;" x="207.162615" xlink:href="#m971a0535f0" y="207.687737"/>
     <use style="stroke:#000000;" x="208.236115" xlink:href="#m971a0535f0" y="206.739986"/>
     <use style="stroke:#000000;" x="209.309615" xlink:href="#m971a0535f0" y="205.760506"/>
     <use style="stroke:#000000;" x="210.383115" xlink:href="#m971a0535f0" y="204.748995"/>
     <use style="stroke:#000000;" x="211.456616" xlink:href="#m971a0535f0" y="203.70522"/>
     <use style="stroke:#000000;" x="212.530116" xlink:href="#m971a0535f0" y="202.629022"/>
     <use style="stroke:#000000;" x="213.603616" xlink:href="#m971a0535f0" y="201.52032"/>
     <use style="stroke:#000000;" x="214.677116" xlink:href="#m971a0535f0" y="200.379121"/>
     <use style="stroke:#000000;" x="215.750616" xlink:href="#m971a0535f0" y="199.20552"/>
     <use style="stroke:#000000;" x="216.824117" xlink:href="#m971a0535f0" y="197.999711"/>
     <use style="stroke:#000000;" x="217.897617" xlink:href="#m971a0535f0" y="196.761989"/>
     <use style="stroke:#000000;" x="218.971117" xlink:href="#m971a0535f0" y="195.492757"/>
     <use style="stroke:#000000;" x="220.044617" xlink:href="#m971a0535f0" y="194.192528"/>
     <use style="stroke:#000000;" x="221.118117" xlink:href="#m971a0535f0" y="192.861931"/>
     <use style="stroke:#000000;" x="222.191618" xlink:href="#m971a0535f0" y="191.501714"/>
     <use style="stroke:#000000;" x="223.265118" xlink:href="#m971a0535f0" y="190.112749"/>
     <use style="stroke:#000000;" x="224.338618" xlink:href="#m971a0535f0" y="188.696027"/>
     <use style="stroke:#000000;" x="225.412118" xlink:href="#m971a0535f0" y="187.25267"/>
     <use style="stroke:#000000;" x="226.485618" xlink:href="#m971a0535f0" y="185.78392"/>
     <use style="stroke:#000000;" x="227.559119" xlink:href="#m971a0535f0" y="184.291147"/>
     <use style="stroke:#000000;" x="228.632619" xlink:href="#m971a0535f0" y="182.775843"/>
     <use style="stroke:#000000;" x="229.706119" xlink:href="#m971a0535f0" y="181.239621"/>
     <use style="stroke:#000000;" x="230.779619" xlink:href="#m971a0535f0" y="179.68421"/>
     <use style="stroke:#000000;" x="231.853119" xlink:href="#m971a0535f0" y="178.111449"/>
     <use style="stroke:#000000;" x="232.92662" xlink:href="#m971a0535f0" y="176.523284"/>
     <use style="stroke:#000000;" x="234.00012" xlink:href="#m971a0535f0" y="174.921758"/>
     <use style="stroke:#000000;" x="235.07362" xlink:href="#m971a0535f0" y="173.309005"/>
     <use style="stroke:#000000;" x="236.14712" xlink:href="#m971a0535f0" y="171.687237"/>
     <use style="stroke:#000000;" x="237.22062" xlink:href="#m971a0535f0" y="170.058735"/>
     <use style="stroke:#000000;" x="238.294121" xlink:href="#m971a0535f0" y="168.42584"/>
     <use style="stroke:#000000;" x="239.367621" xlink:href="#m971a0535f0" y="166.790938"/>
     <use style="stroke:#000000;" x="240.441121" xlink:href="#m971a0535f0" y="165.156446"/>
     <use style="stroke:#000000;" x="241.514621" xlink:href="#m971a0535f0" y="163.524804"/>
     <use style="stroke:#000000;" x="242.588122" xlink:href="#m971a0535f0" y="161.898453"/>
     <use style="stroke:#000000;" x="243.661622" xlink:href="#m971a0535f0" y="160.279827"/>
     <use style="stroke:#000000;" x="244.735122" xlink:href="#m971a0535f0" y="158.671338"/>
     <use style="stroke:#000000;" x="245.808622" xlink:href="#m971a0535f0" y="157.075359"/>
     <use style="stroke:#000000;" x="246.882122" xlink:href="#m971a0535f0" y="155.494212"/>
     <use style="stroke:#000000;" x="247.955623" xlink:href="#m971a0535f0" y="153.930154"/>
     <use style="stroke:#000000;" x="249.029123" xlink:href="#m971a0535f0" y="152.385363"/>
     <use style="stroke:#000000;" x="250.102623" xlink:href="#m971a0535f0" y="150.861928"/>
     <use style="stroke:#000000;" x="251.176123" xlink:href="#m971a0535f0" y="149.361837"/>
     <use style="stroke:#000000;" x="252.249623" xlink:href="#m971a0535f0" y="147.886964"/>
     <use style="stroke:#000000;" x="253.323124" xlink:href="#m971a0535f0" y="146.439063"/>
     <use style="stroke:#000000;" x="254.396624" xlink:href="#m971a0535f0" y="145.01976"/>
     <use style="stroke:#000000;" x="255.470124" xlink:href="#m971a0535f0" y="143.630542"/>
     <use style="stroke:#000000;" x="256.543624" xlink:href="#m971a0535f0" y="142.272757"/>
     <use style="stroke:#000000;" x="257.303273" xlink:href="#m971a0535f0" y="141.331591"/>
     <use style="stroke:#000000;" x="258.062923" xlink:href="#m971a0535f0" y="140.407151"/>
     <use style="stroke:#000000;" x="258.822572" xlink:href="#m971a0535f0" y="139.499782"/>
     <use style="stroke:#000000;" x="259.582221" xlink:href="#m971a0535f0" y="138.60979"/>
     <use style="stroke:#000000;" x="260.341871" xlink:href="#m971a0535f0" y="137.737445"/>
     <use style="stroke:#000000;" x="261.10152" xlink:href="#m971a0535f0" y="136.882978"/>
     <use style="stroke:#000000;" x="261.861169" xlink:href="#m971a0535f0" y="136.046585"/>
     <use style="stroke:#000000;" x="262.620818" xlink:href="#m971a0535f0" y="135.228425"/>
     <use style="stroke:#000000;" x="263.380468" xlink:href="#m971a0535f0" y="134.428622"/>
     <use style="stroke:#000000;" x="264.140117" xlink:href="#m971a0535f0" y="133.647264"/>
     <use style="stroke:#000000;" x="264.899766" xlink:href="#m971a0535f0" y="132.884407"/>
     <use style="stroke:#000000;" x="265.659415" xlink:href="#m971a0535f0" y="132.140073"/>
     <use style="stroke:#000000;" x="266.419065" xlink:href="#m971a0535f0" y="131.414253"/>
     <use style="stroke:#000000;" x="267.178714" xlink:href="#m971a0535f0" y="130.706907"/>
     <use style="stroke:#000000;" x="267.938363" xlink:href="#m971a0535f0" y="130.017967"/>
     <use style="stroke:#000000;" x="268.698013" xlink:href="#m971a0535f0" y="129.347335"/>
     <use style="stroke:#000000;" x="269.457662" xlink:href="#m971a0535f0" y="128.694888"/>
     <use style="stroke:#000000;" x="270.217311" xlink:href="#m971a0535f0" y="128.06048"/>
     <use style="stroke:#000000;" x="270.97696" xlink:href="#m971a0535f0" y="127.443939"/>
     <use style="stroke:#000000;" x="271.73661" xlink:href="#m971a0535f0" y="126.845072"/>
     <use style="stroke:#000000;" x="272.496259" xlink:href="#m971a0535f0" y="126.263666"/>
     <use style="stroke:#000000;" x="273.255908" xlink:href="#m971a0535f0" y="125.699488"/>
     <use style="stroke:#000000;" x="274.015557" xlink:href="#m971a0535f0" y="125.152289"/>
     <use style="stroke:#000000;" x="274.775207" xlink:href="#m971a0535f0" y="124.621804"/>
     <use style="stroke:#000000;" x="275.534856" xlink:href="#m971a0535f0" y="124.107754"/>
     <use style="stroke:#000000;" x="276.294505" xlink:href="#m971a0535f0" y="123.609846"/>
     <use style="stroke:#000000;" x="277.054154" xlink:href="#m971a0535f0" y="123.127776"/>
     <use style="stroke:#000000;" x="277.813804" xlink:href="#m971a0535f0" y="122.661232"/>
     <use style="stroke:#000000;" x="278.573453" xlink:href="#m971a0535f0" y="122.209891"/>
     <use style="stroke:#000000;" x="279.333102" xlink:href="#m971a0535f0" y="121.773424"/>
     <use style="stroke:#000000;" x="280.092752" xlink:href="#m971a0535f0" y="121.351495"/>
     <use style="stroke:#000000;" x="280.852401" xlink:href="#m971a0535f0" y="120.943764"/>
     <use style="stroke:#000000;" x="281.61205" xlink:href="#m971a0535f0" y="120.549887"/>
     <use style="stroke:#000000;" x="282.371699" xlink:href="#m971a0535f0" y="120.169517"/>
     <use style="stroke:#000000;" x="283.131349" xlink:href="#m971a0535f0" y="119.802307"/>
     <use style="stroke:#000000;" x="283.890998" xlink:href="#m971a0535f0" y="119.447908"/>
     <use style="stroke:#000000;" x="284.650647" xlink:href="#m971a0535f0" y="119.10597"/>
     <use style="stroke:#000000;" x="285.410296" xlink:href="#m971a0535f0" y="118.776147"/>
     <use style="stroke:#000000;" x="286.169946" xlink:href="#m971a0535f0" y="118.458092"/>
     <use style="stroke:#000000;" x="286.929595" xlink:href="#m971a0535f0" y="118.151463"/>
     <use style="stroke:#000000;" x="287.689244" xlink:href="#m971a0535f0" y="117.855921"/>
     <use style="stroke:#000000;" x="288.448893" xlink:href="#m971a0535f0" y="117.571127"/>
     <use style="stroke:#000000;" x="289.208543" xlink:href="#m971a0535f0" y="117.296752"/>
     <use style="stroke:#000000;" x="289.968192" xlink:href="#m971a0535f0" y="117.032469"/>
     <use style="stroke:#000000;" x="290.727841" xlink:href="#m971a0535f0" y="116.777955"/>
     <use style="stroke:#000000;" x="291.487491" xlink:href="#m971a0535f0" y="116.532894"/>
     <use style="stroke:#000000;" x="292.24714" xlink:href="#m971a0535f0" y="116.296977"/>
     <use style="stroke:#000000;" x="293.006789" xlink:href="#m971a0535f0" y="116.0699"/>
     <use style="stroke:#000000;" x="293.766438" xlink:href="#m971a0535f0" y="115.851366"/>
     <use style="stroke:#000000;" x="294.526088" xlink:href="#m971a0535f0" y="115.641083"/>
     <use style="stroke:#000000;" x="295.285737" xlink:href="#m971a0535f0" y="115.438769"/>
     <use style="stroke:#000000;" x="296.045386" xlink:href="#m971a0535f0" y="115.244147"/>
     <use style="stroke:#000000;" x="296.805035" xlink:href="#m971a0535f0" y="115.056947"/>
     <use style="stroke:#000000;" x="297.564685" xlink:href="#m971a0535f0" y="114.876906"/>
     <use style="stroke:#000000;" x="298.324334" xlink:href="#m971a0535f0" y="114.70377"/>
     <use style="stroke:#000000;" x="299.083983" xlink:href="#m971a0535f0" y="114.537289"/>
     <use style="stroke:#000000;" x="299.843632" xlink:href="#m971a0535f0" y="114.377225"/>
     <use style="stroke:#000000;" x="300.603282" xlink:href="#m971a0535f0" y="114.223342"/>
     <use style="stroke:#000000;" x="301.362931" xlink:href="#m971a0535f0" y="114.075415"/>
     <use style="stroke:#000000;" x="302.12258" xlink:href="#m971a0535f0" y="113.933223"/>
     <use style="stroke:#000000;" x="302.88223" xlink:href="#m971a0535f0" y="113.796555"/>
     <use style="stroke:#000000;" x="303.641879" xlink:href="#m971a0535f0" y="113.665205"/>
     <use style="stroke:#000000;" x="304.401528" xlink:href="#m971a0535f0" y="113.538973"/>
     <use style="stroke:#000000;" x="305.161177" xlink:href="#m971a0535f0" y="113.417668"/>
     <use style="stroke:#000000;" x="305.920827" xlink:href="#m971a0535f0" y="113.301103"/>
     <use style="stroke:#000000;" x="306.680476" xlink:href="#m971a0535f0" y="113.1891"/>
     <use style="stroke:#000000;" x="307.440125" xlink:href="#m971a0535f0" y="113.081486"/>
     <use style="stroke:#000000;" x="308.199774" xlink:href="#m971a0535f0" y="112.978092"/>
     <use style="stroke:#000000;" x="308.959424" xlink:href="#m971a0535f0" y="112.878759"/>
     <use style="stroke:#000000;" x="309.719073" xlink:href="#m971a0535f0" y="112.783331"/>
     <use style="stroke:#000000;" x="310.478722" xlink:href="#m971a0535f0" y="112.691659"/>
     <use style="stroke:#000000;" x="311.238372" xlink:href="#m971a0535f0" y="112.603597"/>
     <use style="stroke:#000000;" x="311.998021" xlink:href="#m971a0535f0" y="112.519008"/>
     <use style="stroke:#000000;" x="312.75767" xlink:href="#m971a0535f0" y="112.437757"/>
     <use style="stroke:#000000;" x="313.517319" xlink:href="#m971a0535f0" y="112.359716"/>
     <use style="stroke:#000000;" x="314.276969" xlink:href="#m971a0535f0" y="112.284761"/>
     <use style="stroke:#000000;" x="315.036618" xlink:href="#m971a0535f0" y="112.212773"/>
     <use style="stroke:#000000;" x="315.796267" xlink:href="#m971a0535f0" y="112.143637"/>
     <use style="stroke:#000000;" x="316.555916" xlink:href="#m971a0535f0" y="112.077242"/>
     <use style="stroke:#000000;" x="317.315566" xlink:href="#m971a0535f0" y="112.013483"/>
     <use style="stroke:#000000;" x="318.075215" xlink:href="#m971a0535f0" y="111.952258"/>
     <use style="stroke:#000000;" x="319.221333" xlink:href="#m971a0535f0" y="111.864463"/>
     <use style="stroke:#000000;" x="320.367452" xlink:href="#m971a0535f0" y="111.781893"/>
     <use style="stroke:#000000;" x="321.51357" xlink:href="#m971a0535f0" y="111.704244"/>
     <use style="stroke:#000000;" x="322.659688" xlink:href="#m971a0535f0" y="111.631234"/>
     <use style="stroke:#000000;" x="323.805806" xlink:href="#m971a0535f0" y="111.562593"/>
     <use style="stroke:#000000;" x="324.951925" xlink:href="#m971a0535f0" y="111.498071"/>
     <use style="stroke:#000000;" x="326.098043" xlink:href="#m971a0535f0" y="111.437428"/>
     <use style="stroke:#000000;" x="327.244161" xlink:href="#m971a0535f0" y="111.380443"/>
     <use style="stroke:#000000;" x="328.39028" xlink:href="#m971a0535f0" y="111.326904"/>
     <use style="stroke:#000000;" x="329.536398" xlink:href="#m971a0535f0" y="111.276613"/>
     <use style="stroke:#000000;" x="330.682516" xlink:href="#m971a0535f0" y="111.229385"/>
     <use style="stroke:#000000;" x="331.828635" xlink:href="#m971a0535f0" y="111.185043"/>
     <use style="stroke:#000000;" x="332.974753" xlink:href="#m971a0535f0" y="111.143423"/>
     <use style="stroke:#000000;" x="334.120871" xlink:href="#m971a0535f0" y="111.104368"/>
     <use style="stroke:#000000;" x="335.266989" xlink:href="#m971a0535f0" y="111.067734"/>
     <use style="stroke:#000000;" x="336.413108" xlink:href="#m971a0535f0" y="111.03338"/>
     <use style="stroke:#000000;" x="337.559226" xlink:href="#m971a0535f0" y="111.001179"/>
     <use style="stroke:#000000;" x="338.705344" xlink:href="#m971a0535f0" y="110.971008"/>
     <use style="stroke:#000000;" x="339.851463" xlink:href="#m971a0535f0" y="110.942751"/>
    </g>
   </g>
   <g id="line2d_20">
    <path clip-path="url(#p254325d9aa)" d="M 62.183807 229.874489 
L 89.077592 229.771026 
L 106.253595 229.526973 
L 118.062097 229.144863 
L 126.650099 228.647994 
L 133.0911 228.076471 
L 138.458601 227.409697 
L 143.826102 226.504595 
L 148.120103 225.553889 
L 152.414104 224.344325 
L 155.634605 223.228082 
L 158.855105 221.894514 
L 162.075606 220.302468 
L 165.296107 218.410822 
L 168.516607 216.169483 
L 170.663608 214.445639 
L 172.810608 212.523361 
L 174.957608 210.383265 
L 177.104609 207.991234 
L 179.251609 205.344955 
L 181.39861 202.400686 
L 183.54561 199.152128 
L 185.692611 195.56575 
L 187.839611 191.62327 
L 189.986611 187.30356 
L 192.133612 182.581924 
L 194.280612 177.442719 
L 196.427613 171.879362 
L 199.648113 162.728809 
L 202.868614 152.625668 
L 206.089114 141.616905 
L 209.309615 129.827953 
L 213.603616 113.230207 
L 222.191618 79.572466 
L 225.412118 67.922846 
L 227.559119 60.773505 
L 229.706119 54.249917 
L 231.853119 48.461578 
L 234.00012 43.480949 
L 236.14712 39.381378 
L 237.22062 37.674517 
L 238.294121 36.200692 
L 239.367621 34.959308 
L 240.441121 33.954536 
L 241.514621 33.176867 
L 242.588122 32.633112 
L 243.661622 32.304628 
L 244.735122 32.201761 
L 245.808622 32.294559 
L 246.882122 32.603406 
L 247.955623 33.097452 
L 249.029123 33.772564 
L 250.102623 34.607072 
L 252.249623 36.746857 
L 254.396624 39.409328 
L 256.543624 42.493996 
L 259.582221 47.384531 
L 263.380468 54.002113 
L 270.97696 67.349274 
L 274.775207 73.508258 
L 277.813804 78.037005 
L 280.852401 82.169178 
L 283.890998 85.892776 
L 286.929595 89.215985 
L 289.968192 92.157486 
L 293.006789 94.743831 
L 296.045386 97.005478 
L 299.083983 98.9744 
L 302.12258 100.682245 
L 305.161177 102.161577 
L 308.959424 103.73264 
L 312.75767 105.04095 
L 316.555916 106.128312 
L 320.367452 107.037845 
L 324.951925 107.932658 
L 330.682516 108.807351 
L 337.559226 109.589928 
L 339.851463 109.800313 
L 339.851463 109.800313 
" style="fill:none;stroke:#0000ff;stroke-dasharray:5.55,2.4;stroke-dashoffset:0;stroke-width:1.5;"/>
   </g>
   <g id="line2d_21">
    <path clip-path="url(#p254325d9aa)" d="M 62.183807 229.874489 
L 105.180095 229.768225 
L 134.164601 229.515904 
L 153.487604 229.137689 
L 167.443107 228.65377 
L 178.178109 228.07792 
L 186.766111 227.421894 
L 194.280612 226.640354 
L 200.721613 225.754704 
L 206.089114 224.810459 
L 211.456616 223.616888 
L 215.750616 222.433254 
L 220.044617 220.990089 
L 223.265118 219.702796 
L 226.485618 218.208306 
L 229.706119 216.47436 
L 232.92662 214.464253 
L 236.14712 212.145982 
L 239.367621 209.485452 
L 242.588122 206.453984 
L 245.808622 203.032443 
L 249.029123 199.209884 
L 252.249623 194.996471 
L 255.470124 190.417649 
L 259.582221 184.114446 
L 264.899766 175.431109 
L 276.294505 156.606139 
L 280.092752 150.802915 
L 283.890998 145.433538 
L 286.929595 141.491922 
L 289.968192 137.884716 
L 293.006789 134.616607 
L 296.045386 131.681996 
L 299.083983 129.068 
L 302.12258 126.755523 
L 305.161177 124.718936 
L 308.199774 122.933374 
L 311.238372 121.373739 
L 315.036618 119.704447 
L 319.221333 118.178787 
L 323.805806 116.817185 
L 328.39028 115.725438 
L 332.974753 114.85043 
L 338.705344 113.997732 
L 339.851463 113.854011 
L 339.851463 113.854011 
" style="fill:none;stroke:#0000ff;stroke-dasharray:5.55,2.4;stroke-dashoffset:0;stroke-width:1.5;"/>
   </g>
   <g id="line2d_22"/>
   <g id="line2d_23"/>
   <g id="line2d_24"/>
   <g id="line2d_25"/>
   <g id="line2d_26"/>
   <g id="patch_3">
    <path d="M 46.965625 239.758125 
L 46.965625 22.318125 
" style="fill:none;stroke:#000000;stroke-linecap:square;stroke-linejoin:miter;stroke-width:0.8;"/>
   </g>
   <g id="patch_4">
    <path d="M 381.765625 239.758125 
L 381.765625 22.318125 
" style="fill:none;stroke:#000000;stroke-linecap:square;stroke-linejoin:miter;stroke-width:0.8;"/>
   </g>
   <g id="patch_5">
    <path d="M 46.965625 239.758125 
L 381.765625 239.758125 
" style="fill:none;stroke:#000000;stroke-linecap:square;stroke-linejoin:miter;stroke-width:0.8;"/>
   </g>
   <g id="patch_6">
    <path d="M 46.965625 22.318125 
L 381.765625 22.318125 
" style="fill:none;stroke:#000000;stroke-linecap:square;stroke-linejoin:miter;stroke-width:0.8;"/>
   </g>
   <g id="text_19">
    <!-- Experiment_1 -->
    <defs>
     <path d="M 9.8125 72.90625 
L 55.90625 72.90625 
L 55.90625 64.59375 
L 19.671875 64.59375 
L 19.671875 43.015625 
L 54.390625 43.015625 
L 54.390625 34.71875 
L 19.671875 34.71875 
L 19.671875 8.296875 
L 56.78125 8.296875 
L 56.78125 0 
L 9.8125 0 
z
" id="DejaVuSans-69"/>
     <path d="M 54.890625 54.6875 
L 35.109375 28.078125 
L 55.90625 0 
L 45.3125 0 
L 29.390625 21.484375 
L 13.484375 0 
L 2.875 0 
L 24.125 28.609375 
L 4.6875 54.6875 
L 15.28125 54.6875 
L 29.78125 35.203125 
L 44.28125 54.6875 
z
" id="DejaVuSans-120"/>
     <path d="M 41.109375 46.296875 
Q 39.59375 47.171875 37.8125 47.578125 
Q 36.03125 48 33.890625 48 
Q 26.265625 48 22.1875 43.046875 
Q 18.109375 38.09375 18.109375 28.8125 
L 18.109375 0 
L 9.078125 0 
L 9.078125 54.6875 
L 18.109375 54.6875 
L 18.109375 46.1875 
Q 20.953125 51.171875 25.484375 53.578125 
Q 30.03125 56 36.53125 56 
Q 37.453125 56 38.578125 55.875 
Q 39.703125 55.765625 41.0625 55.515625 
z
" id="DejaVuSans-114"/>
     <path d="M 54.890625 33.015625 
L 54.890625 0 
L 45.90625 0 
L 45.90625 32.71875 
Q 45.90625 40.484375 42.875 44.328125 
Q 39.84375 48.1875 33.796875 48.1875 
Q 26.515625 48.1875 22.3125 43.546875 
Q 18.109375 38.921875 18.109375 30.90625 
L 18.109375 0 
L 9.078125 0 
L 9.078125 54.6875 
L 18.109375 54.6875 
L 18.109375 46.1875 
Q 21.34375 51.125 25.703125 53.5625 
Q 30.078125 56 35.796875 56 
Q 45.21875 56 50.046875 50.171875 
Q 54.890625 44.34375 54.890625 33.015625 
z
" id="DejaVuSans-110"/>
     <path d="M 18.3125 70.21875 
L 18.3125 54.6875 
L 36.8125 54.6875 
L 36.8125 47.703125 
L 18.3125 47.703125 
L 18.3125 18.015625 
Q 18.3125 11.328125 20.140625 9.421875 
Q 21.96875 7.515625 27.59375 7.515625 
L 36.8125 7.515625 
L 36.8125 0 
L 27.59375 0 
Q 17.1875 0 13.234375 3.875 
Q 9.28125 7.765625 9.28125 18.015625 
L 9.28125 47.703125 
L 2.6875 47.703125 
L 2.6875 54.6875 
L 9.28125 54.6875 
L 9.28125 70.21875 
z
" id="DejaVuSans-116"/>
     <path d="M 50.984375 -16.609375 
L 50.984375 -23.578125 
L -0.984375 -23.578125 
L -0.984375 -16.609375 
z
" id="DejaVuSans-95"/>
    </defs>
    <g transform="translate(172.880313 16.318125)scale(0.12 -0.12)">
     <use xlink:href="#DejaVuSans-69"/>
     <use x="63.183594" xlink:href="#DejaVuSans-120"/>
     <use x="122.363281" xlink:href="#DejaVuSans-112"/>
     <use x="185.839844" xlink:href="#DejaVuSans-101"/>
     <use x="247.363281" xlink:href="#DejaVuSans-114"/>
     <use x="288.476562" xlink:href="#DejaVuSans-105"/>
     <use x="316.259766" xlink:href="#DejaVuSans-109"/>
     <use x="413.671875" xlink:href="#DejaVuSans-101"/>
     <use x="475.195312" xlink:href="#DejaVuSans-110"/>
     <use x="538.574219" xlink:href="#DejaVuSans-116"/>
     <use x="577.783203" xlink:href="#DejaVuSans-95"/>
     <use x="627.783203" xlink:href="#DejaVuSans-49"/>
    </g>
   </g>
   <g id="legend_1">
    <g id="patch_7">
     <path d="M 73.923438 89.0525 
L 374.765625 89.0525 
Q 376.765625 89.0525 376.765625 87.0525 
L 376.765625 29.318125 
Q 376.765625 27.318125 374.765625 27.318125 
L 73.923438 27.318125 
Q 71.923438 27.318125 71.923438 29.318125 
L 71.923438 87.0525 
Q 71.923438 89.0525 73.923438 89.0525 
z
" style="fill:#ffffff;opacity:0.8;stroke:#cccccc;stroke-linejoin:miter;"/>
    </g>
    <g id="line2d_27">
     <path d="M 75.923438 35.416562 
L 95.923438 35.416562 
" style="fill:none;stroke:#0000ff;stroke-linecap:square;stroke-width:1.5;"/>
    </g>
    <g id="line2d_28"/>
    <g id="text_20">
     <!-- MSI -->
     <defs>
      <path d="M 9.8125 72.90625 
L 24.515625 72.90625 
L 43.109375 23.296875 
L 61.8125 72.90625 
L 76.515625 72.90625 
L 76.515625 0 
L 66.890625 0 
L 66.890625 64.015625 
L 48.09375 14.015625 
L 38.1875 14.015625 
L 19.390625 64.015625 
L 19.390625 0 
L 9.8125 0 
z
" id="DejaVuSans-77"/>
      <path d="M 53.515625 70.515625 
L 53.515625 60.890625 
Q 47.90625 63.578125 42.921875 64.890625 
Q 37.9375 66.21875 33.296875 66.21875 
Q 25.25 66.21875 20.875 63.09375 
Q 16.5 59.96875 16.5 54.203125 
Q 16.5 49.359375 19.40625 46.890625 
Q 22.3125 44.4375 30.421875 42.921875 
L 36.375 41.703125 
Q 47.40625 39.59375 52.65625 34.296875 
Q 57.90625 29 57.90625 20.125 
Q 57.90625 9.515625 50.796875 4.046875 
Q 43.703125 -1.421875 29.984375 -1.421875 
Q 24.8125 -1.421875 18.96875 -0.25 
Q 13.140625 0.921875 6.890625 3.21875 
L 6.890625 13.375 
Q 12.890625 10.015625 18.65625 8.296875 
Q 24.421875 6.59375 29.984375 6.59375 
Q 38.421875 6.59375 43.015625 9.90625 
Q 47.609375 13.234375 47.609375 19.390625 
Q 47.609375 24.75 44.3125 27.78125 
Q 41.015625 30.8125 33.5 32.328125 
L 27.484375 33.5 
Q 16.453125 35.6875 11.515625 40.375 
Q 6.59375 45.0625 6.59375 53.421875 
Q 6.59375 63.09375 13.40625 68.65625 
Q 20.21875 74.21875 32.171875 74.21875 
Q 37.3125 74.21875 42.625 73.28125 
Q 47.953125 72.359375 53.515625 70.515625 
z
" id="DejaVuSans-83"/>
      <path d="M 9.8125 72.90625 
L 19.671875 72.90625 
L 19.671875 0 
L 9.8125 0 
z
" id="DejaVuSans-73"/>
     </defs>
     <g transform="translate(103.923438 38.916562)scale(0.1 -0.1)">
      <use xlink:href="#DejaVuSans-77"/>
      <use x="86.279297" xlink:href="#DejaVuSans-83"/>
      <use x="149.755859" xlink:href="#DejaVuSans-73"/>
     </g>
    </g>
    <g id="line2d_29">
     <path d="M 75.923438 50.09625 
L 95.923438 50.09625 
" style="fill:none;stroke:#ff0000;stroke-linecap:square;stroke-width:1.5;"/>
    </g>
    <g id="line2d_30"/>
    <g id="text_21">
     <!-- $\it{A priori}$ model -->
     <defs>
      <path d="M 36.8125 72.90625 
L 48 72.90625 
L 61.53125 0 
L 51.21875 0 
L 48.1875 18.703125 
L 15.375 18.703125 
L 5.078125 0 
L -5.328125 0 
z
M 40.375 63.1875 
L 19.921875 26.90625 
L 46.6875 26.90625 
z
" id="DejaVuSans-Oblique-65"/>
      <path d="M 49.609375 33.6875 
Q 49.609375 40.875 46.484375 44.671875 
Q 43.359375 48.484375 37.5 48.484375 
Q 33.5 48.484375 29.859375 46.4375 
Q 26.21875 44.390625 23.390625 40.484375 
Q 20.609375 36.625 18.9375 31.15625 
Q 17.28125 25.6875 17.28125 20.3125 
Q 17.28125 13.484375 20.40625 9.796875 
Q 23.53125 6.109375 29.296875 6.109375 
Q 33.546875 6.109375 37.1875 8.109375 
Q 40.828125 10.109375 43.40625 13.921875 
Q 46.1875 17.921875 47.890625 23.34375 
Q 49.609375 28.765625 49.609375 33.6875 
z
M 21.78125 46.390625 
Q 25.390625 51.125 30.296875 53.5625 
Q 35.203125 56 41.21875 56 
Q 49.609375 56 54.25 50.5 
Q 58.890625 45.015625 58.890625 35.109375 
Q 58.890625 27 56 19.65625 
Q 53.125 12.3125 47.703125 6.5 
Q 44.09375 2.640625 39.546875 0.609375 
Q 35.015625 -1.421875 29.984375 -1.421875 
Q 24.171875 -1.421875 20.21875 1 
Q 16.265625 3.421875 14.3125 8.203125 
L 8.6875 -20.796875 
L -0.296875 -20.796875 
L 14.40625 54.6875 
L 23.390625 54.6875 
z
" id="DejaVuSans-Oblique-112"/>
      <path d="M 44.578125 46.390625 
Q 43.21875 47.125 41.453125 47.515625 
Q 39.703125 47.90625 37.703125 47.90625 
Q 30.515625 47.90625 25.140625 42.453125 
Q 19.78125 37.015625 18.015625 27.875 
L 12.5 0 
L 3.515625 0 
L 14.203125 54.6875 
L 23.1875 54.6875 
L 21.484375 46.1875 
Q 25.046875 50.921875 30 53.453125 
Q 34.96875 56 40.578125 56 
Q 42.046875 56 43.453125 55.828125 
Q 44.875 55.671875 46.296875 55.28125 
z
" id="DejaVuSans-Oblique-114"/>
      <path d="M 18.3125 75.984375 
L 27.296875 75.984375 
L 25.09375 64.59375 
L 16.109375 64.59375 
z
M 14.203125 54.6875 
L 23.1875 54.6875 
L 12.5 0 
L 3.515625 0 
z
" id="DejaVuSans-Oblique-105"/>
      <path d="M 25.390625 -1.421875 
Q 15.765625 -1.421875 10.171875 4.515625 
Q 4.59375 10.453125 4.59375 20.703125 
Q 4.59375 26.65625 6.515625 32.828125 
Q 8.453125 39.015625 11.53125 43.21875 
Q 16.359375 49.75 22.3125 52.875 
Q 28.265625 56 35.796875 56 
Q 45.125 56 50.859375 50.1875 
Q 56.59375 44.390625 56.59375 35.015625 
Q 56.59375 28.515625 54.6875 22.0625 
Q 52.78125 15.625 49.703125 11.375 
Q 44.921875 4.828125 38.96875 1.703125 
Q 33.015625 -1.421875 25.390625 -1.421875 
z
M 13.921875 21 
Q 13.921875 13.578125 17.015625 9.890625 
Q 20.125 6.203125 26.421875 6.203125 
Q 35.453125 6.203125 41.375 14.078125 
Q 47.3125 21.96875 47.3125 34.078125 
Q 47.3125 41.15625 44.140625 44.765625 
Q 40.96875 48.390625 34.8125 48.390625 
Q 29.734375 48.390625 25.78125 46.015625 
Q 21.828125 43.65625 18.703125 38.8125 
Q 16.40625 35.203125 15.15625 30.5625 
Q 13.921875 25.921875 13.921875 21 
z
" id="DejaVuSans-Oblique-111"/>
      <path d="M 30.609375 48.390625 
Q 23.390625 48.390625 19.1875 42.75 
Q 14.984375 37.109375 14.984375 27.296875 
Q 14.984375 17.484375 19.15625 11.84375 
Q 23.34375 6.203125 30.609375 6.203125 
Q 37.796875 6.203125 41.984375 11.859375 
Q 46.1875 17.53125 46.1875 27.296875 
Q 46.1875 37.015625 41.984375 42.703125 
Q 37.796875 48.390625 30.609375 48.390625 
z
M 30.609375 56 
Q 42.328125 56 49.015625 48.375 
Q 55.71875 40.765625 55.71875 27.296875 
Q 55.71875 13.875 49.015625 6.21875 
Q 42.328125 -1.421875 30.609375 -1.421875 
Q 18.84375 -1.421875 12.171875 6.21875 
Q 5.515625 13.875 5.515625 27.296875 
Q 5.515625 40.765625 12.171875 48.375 
Q 18.84375 56 30.609375 56 
z
" id="DejaVuSans-111"/>
      <path d="M 45.40625 46.390625 
L 45.40625 75.984375 
L 54.390625 75.984375 
L 54.390625 0 
L 45.40625 0 
L 45.40625 8.203125 
Q 42.578125 3.328125 38.25 0.953125 
Q 33.9375 -1.421875 27.875 -1.421875 
Q 17.96875 -1.421875 11.734375 6.484375 
Q 5.515625 14.40625 5.515625 27.296875 
Q 5.515625 40.1875 11.734375 48.09375 
Q 17.96875 56 27.875 56 
Q 33.9375 56 38.25 53.625 
Q 42.578125 51.265625 45.40625 46.390625 
z
M 14.796875 27.296875 
Q 14.796875 17.390625 18.875 11.75 
Q 22.953125 6.109375 30.078125 6.109375 
Q 37.203125 6.109375 41.296875 11.75 
Q 45.40625 17.390625 45.40625 27.296875 
Q 45.40625 37.203125 41.296875 42.84375 
Q 37.203125 48.484375 30.078125 48.484375 
Q 22.953125 48.484375 18.875 42.84375 
Q 14.796875 37.203125 14.796875 27.296875 
z
" id="DejaVuSans-100"/>
      <path d="M 9.421875 75.984375 
L 18.40625 75.984375 
L 18.40625 0 
L 9.421875 0 
z
" id="DejaVuSans-108"/>
     </defs>
     <g transform="translate(103.923438 53.59625)scale(0.1 -0.1)">
      <use transform="translate(0 0.015625)" xlink:href="#DejaVuSans-Oblique-65"/>
      <use transform="translate(68.408203 0.015625)" xlink:href="#DejaVuSans-Oblique-112"/>
      <use transform="translate(131.884766 0.015625)" xlink:href="#DejaVuSans-Oblique-114"/>
      <use transform="translate(172.998047 0.015625)" xlink:href="#DejaVuSans-Oblique-105"/>
      <use transform="translate(200.78125 0.015625)" xlink:href="#DejaVuSans-Oblique-111"/>
      <use transform="translate(261.962891 0.015625)" xlink:href="#DejaVuSans-Oblique-114"/>
      <use transform="translate(303.076172 0.015625)" xlink:href="#DejaVuSans-Oblique-105"/>
      <use transform="translate(330.859375 0.015625)" xlink:href="#DejaVuSans-32"/>
      <use transform="translate(362.646484 0.015625)" xlink:href="#DejaVuSans-109"/>
      <use transform="translate(460.058594 0.015625)" xlink:href="#DejaVuSans-111"/>
      <use transform="translate(521.240234 0.015625)" xlink:href="#DejaVuSans-100"/>
      <use transform="translate(584.716797 0.015625)" xlink:href="#DejaVuSans-101"/>
      <use transform="translate(646.240234 0.015625)" xlink:href="#DejaVuSans-108"/>
     </g>
    </g>
    <g id="line2d_31"/>
    <g id="line2d_32">
     <g>
      <use style="stroke:#000000;" x="85.923438" xlink:href="#m971a0535f0" y="64.794687"/>
     </g>
    </g>
    <g id="text_22">
     <!-- Experimental Data -->
     <defs>
      <path d="M 34.28125 27.484375 
Q 23.390625 27.484375 19.1875 25 
Q 14.984375 22.515625 14.984375 16.5 
Q 14.984375 11.71875 18.140625 8.90625 
Q 21.296875 6.109375 26.703125 6.109375 
Q 34.1875 6.109375 38.703125 11.40625 
Q 43.21875 16.703125 43.21875 25.484375 
L 43.21875 27.484375 
z
M 52.203125 31.203125 
L 52.203125 0 
L 43.21875 0 
L 43.21875 8.296875 
Q 40.140625 3.328125 35.546875 0.953125 
Q 30.953125 -1.421875 24.3125 -1.421875 
Q 15.921875 -1.421875 10.953125 3.296875 
Q 6 8.015625 6 15.921875 
Q 6 25.140625 12.171875 29.828125 
Q 18.359375 34.515625 30.609375 34.515625 
L 43.21875 34.515625 
L 43.21875 35.40625 
Q 43.21875 41.609375 39.140625 45 
Q 35.0625 48.390625 27.6875 48.390625 
Q 23 48.390625 18.546875 47.265625 
Q 14.109375 46.140625 10.015625 43.890625 
L 10.015625 52.203125 
Q 14.9375 54.109375 19.578125 55.046875 
Q 24.21875 56 28.609375 56 
Q 40.484375 56 46.34375 49.84375 
Q 52.203125 43.703125 52.203125 31.203125 
z
" id="DejaVuSans-97"/>
      <path d="M 19.671875 64.796875 
L 19.671875 8.109375 
L 31.59375 8.109375 
Q 46.6875 8.109375 53.6875 14.9375 
Q 60.6875 21.78125 60.6875 36.53125 
Q 60.6875 51.171875 53.6875 57.984375 
Q 46.6875 64.796875 31.59375 64.796875 
z
M 9.8125 72.90625 
L 30.078125 72.90625 
Q 51.265625 72.90625 61.171875 64.09375 
Q 71.09375 55.28125 71.09375 36.53125 
Q 71.09375 17.671875 61.125 8.828125 
Q 51.171875 0 30.078125 0 
L 9.8125 0 
z
" id="DejaVuSans-68"/>
     </defs>
     <g transform="translate(103.923438 68.294687)scale(0.1 -0.1)">
      <use xlink:href="#DejaVuSans-69"/>
      <use x="63.183594" xlink:href="#DejaVuSans-120"/>
      <use x="122.363281" xlink:href="#DejaVuSans-112"/>
      <use x="185.839844" xlink:href="#DejaVuSans-101"/>
      <use x="247.363281" xlink:href="#DejaVuSans-114"/>
      <use x="288.476562" xlink:href="#DejaVuSans-105"/>
      <use x="316.259766" xlink:href="#DejaVuSans-109"/>
      <use x="413.671875" xlink:href="#DejaVuSans-101"/>
      <use x="475.195312" xlink:href="#DejaVuSans-110"/>
      <use x="538.574219" xlink:href="#DejaVuSans-116"/>
      <use x="577.783203" xlink:href="#DejaVuSans-97"/>
      <use x="639.0625" xlink:href="#DejaVuSans-108"/>
      <use x="666.845703" xlink:href="#DejaVuSans-32"/>
      <use x="698.632812" xlink:href="#DejaVuSans-68"/>
      <use x="775.634766" xlink:href="#DejaVuSans-97"/>
      <use x="836.914062" xlink:href="#DejaVuSans-116"/>
      <use x="876.123047" xlink:href="#DejaVuSans-97"/>
     </g>
    </g>
    <g id="line2d_33">
     <path d="M 75.923438 79.472812 
L 95.923438 79.472812 
" style="fill:none;stroke:#ffffff;stroke-linecap:square;stroke-width:1.5;"/>
    </g>
    <g id="line2d_34"/>
    <g id="text_23">
     <!-- T:2206 -->
     <defs>
      <path d="M 11.71875 12.40625 
L 22.015625 12.40625 
L 22.015625 0 
L 11.71875 0 
z
M 11.71875 51.703125 
L 22.015625 51.703125 
L 22.015625 39.3125 
L 11.71875 39.3125 
z
" id="DejaVuSans-58"/>
     </defs>
     <g transform="translate(103.923438 82.972812)scale(0.1 -0.1)">
      <use xlink:href="#DejaVuSans-84"/>
      <use x="60.912109" xlink:href="#DejaVuSans-58"/>
      <use x="94.603516" xlink:href="#DejaVuSans-50"/>
      <use x="158.226562" xlink:href="#DejaVuSans-50"/>
      <use x="221.849609" xlink:href="#DejaVuSans-48"/>
      <use x="285.472656" xlink:href="#DejaVuSans-54"/>
     </g>
    </g>
    <g id="line2d_35">
     <path d="M 217.664063 35.416562 
L 237.664063 35.416562 
" style="fill:none;stroke:#ffffff;stroke-linecap:square;stroke-width:1.5;"/>
    </g>
    <g id="line2d_36"/>
    <g id="text_24">
     <!-- P:0.43200000000000005 -->
     <defs>
      <path d="M 19.671875 64.796875 
L 19.671875 37.40625 
L 32.078125 37.40625 
Q 38.96875 37.40625 42.71875 40.96875 
Q 46.484375 44.53125 46.484375 51.125 
Q 46.484375 57.671875 42.71875 61.234375 
Q 38.96875 64.796875 32.078125 64.796875 
z
M 9.8125 72.90625 
L 32.078125 72.90625 
Q 44.34375 72.90625 50.609375 67.359375 
Q 56.890625 61.8125 56.890625 51.125 
Q 56.890625 40.328125 50.609375 34.8125 
Q 44.34375 29.296875 32.078125 29.296875 
L 19.671875 29.296875 
L 19.671875 0 
L 9.8125 0 
z
" id="DejaVuSans-80"/>
     </defs>
     <g transform="translate(245.664063 38.916562)scale(0.1 -0.1)">
      <use xlink:href="#DejaVuSans-80"/>
      <use x="60.302734" xlink:href="#DejaVuSans-58"/>
      <use x="93.994141" xlink:href="#DejaVuSans-48"/>
      <use x="157.617188" xlink:href="#DejaVuSans-46"/>
      <use x="189.404297" xlink:href="#DejaVuSans-52"/>
      <use x="253.027344" xlink:href="#DejaVuSans-51"/>
      <use x="316.650391" xlink:href="#DejaVuSans-50"/>
      <use x="380.273438" xlink:href="#DejaVuSans-48"/>
      <use x="443.896484" xlink:href="#DejaVuSans-48"/>
      <use x="507.519531" xlink:href="#DejaVuSans-48"/>
      <use x="571.142578" xlink:href="#DejaVuSans-48"/>
      <use x="634.765625" xlink:href="#DejaVuSans-48"/>
      <use x="698.388672" xlink:href="#DejaVuSans-48"/>
      <use x="762.011719" xlink:href="#DejaVuSans-48"/>
      <use x="825.634766" xlink:href="#DejaVuSans-48"/>
      <use x="889.257812" xlink:href="#DejaVuSans-48"/>
      <use x="952.880859" xlink:href="#DejaVuSans-48"/>
      <use x="1016.503906" xlink:href="#DejaVuSans-48"/>
      <use x="1080.126953" xlink:href="#DejaVuSans-48"/>
      <use x="1143.75" xlink:href="#DejaVuSans-48"/>
      <use x="1207.373047" xlink:href="#DejaVuSans-53"/>
     </g>
    </g>
    <g id="line2d_37">
     <path d="M 217.664063 50.094687 
L 237.664063 50.094687 
" style="fill:none;stroke:#ffffff;stroke-linecap:square;stroke-width:1.5;"/>
    </g>
    <g id="line2d_38"/>
    <g id="text_25">
     <!-- O2: 0.00496 -->
     <defs>
      <path d="M 10.984375 1.515625 
L 10.984375 10.5 
Q 14.703125 8.734375 18.5 7.8125 
Q 22.3125 6.890625 25.984375 6.890625 
Q 35.75 6.890625 40.890625 13.453125 
Q 46.046875 20.015625 46.78125 33.40625 
Q 43.953125 29.203125 39.59375 26.953125 
Q 35.25 24.703125 29.984375 24.703125 
Q 19.046875 24.703125 12.671875 31.3125 
Q 6.296875 37.9375 6.296875 49.421875 
Q 6.296875 60.640625 12.9375 67.421875 
Q 19.578125 74.21875 30.609375 74.21875 
Q 43.265625 74.21875 49.921875 64.515625 
Q 56.59375 54.828125 56.59375 36.375 
Q 56.59375 19.140625 48.40625 8.859375 
Q 40.234375 -1.421875 26.421875 -1.421875 
Q 22.703125 -1.421875 18.890625 -0.6875 
Q 15.09375 0.046875 10.984375 1.515625 
z
M 30.609375 32.421875 
Q 37.25 32.421875 41.125 36.953125 
Q 45.015625 41.5 45.015625 49.421875 
Q 45.015625 57.28125 41.125 61.84375 
Q 37.25 66.40625 30.609375 66.40625 
Q 23.96875 66.40625 20.09375 61.84375 
Q 16.21875 57.28125 16.21875 49.421875 
Q 16.21875 41.5 20.09375 36.953125 
Q 23.96875 32.421875 30.609375 32.421875 
z
" id="DejaVuSans-57"/>
     </defs>
     <g transform="translate(245.664063 53.594687)scale(0.1 -0.1)">
      <use xlink:href="#DejaVuSans-79"/>
      <use x="78.710938" xlink:href="#DejaVuSans-50"/>
      <use x="142.333984" xlink:href="#DejaVuSans-58"/>
      <use x="176.025391" xlink:href="#DejaVuSans-32"/>
      <use x="207.8125" xlink:href="#DejaVuSans-48"/>
      <use x="271.435547" xlink:href="#DejaVuSans-46"/>
      <use x="303.222656" xlink:href="#DejaVuSans-48"/>
      <use x="366.845703" xlink:href="#DejaVuSans-48"/>
      <use x="430.46875" xlink:href="#DejaVuSans-52"/>
      <use x="494.091797" xlink:href="#DejaVuSans-57"/>
      <use x="557.714844" xlink:href="#DejaVuSans-54"/>
     </g>
    </g>
    <g id="line2d_39">
     <path d="M 217.664063 64.772812 
L 237.664063 64.772812 
" style="fill:none;stroke:#ffffff;stroke-linecap:square;stroke-width:1.5;"/>
    </g>
    <g id="line2d_40"/>
    <g id="text_26">
     <!-- H2: 0.0497 -->
     <g transform="translate(245.664063 68.272812)scale(0.1 -0.1)">
      <use xlink:href="#DejaVuSans-72"/>
      <use x="75.195312" xlink:href="#DejaVuSans-50"/>
      <use x="138.818359" xlink:href="#DejaVuSans-58"/>
      <use x="172.509766" xlink:href="#DejaVuSans-32"/>
      <use x="204.296875" xlink:href="#DejaVuSans-48"/>
      <use x="267.919922" xlink:href="#DejaVuSans-46"/>
      <use x="299.707031" xlink:href="#DejaVuSans-48"/>
      <use x="363.330078" xlink:href="#DejaVuSans-52"/>
      <use x="426.953125" xlink:href="#DejaVuSans-57"/>
      <use x="490.576172" xlink:href="#DejaVuSans-55"/>
     </g>
    </g>
    <g id="line2d_41">
     <path d="M 217.664063 79.450937 
L 237.664063 79.450937 
" style="fill:none;stroke:#ffffff;stroke-linecap:square;stroke-width:1.5;"/>
    </g>
    <g id="line2d_42"/>
    <g id="text_27">
     <!-- Ar: 0.94534 -->
     <defs>
      <path d="M 34.1875 63.1875 
L 20.796875 26.90625 
L 47.609375 26.90625 
z
M 28.609375 72.90625 
L 39.796875 72.90625 
L 67.578125 0 
L 57.328125 0 
L 50.6875 18.703125 
L 17.828125 18.703125 
L 11.1875 0 
L 0.78125 0 
z
" id="DejaVuSans-65"/>
     </defs>
     <g transform="translate(245.664063 82.950937)scale(0.1 -0.1)">
      <use xlink:href="#DejaVuSans-65"/>
      <use x="68.408203" xlink:href="#DejaVuSans-114"/>
      <use x="109.505859" xlink:href="#DejaVuSans-58"/>
      <use x="143.197266" xlink:href="#DejaVuSans-32"/>
      <use x="174.984375" xlink:href="#DejaVuSans-48"/>
      <use x="238.607422" xlink:href="#DejaVuSans-46"/>
      <use x="270.394531" xlink:href="#DejaVuSans-57"/>
      <use x="334.017578" xlink:href="#DejaVuSans-52"/>
      <use x="397.640625" xlink:href="#DejaVuSans-53"/>
      <use x="461.263672" xlink:href="#DejaVuSans-51"/>
      <use x="524.886719" xlink:href="#DejaVuSans-52"/>
     </g>
    </g>
   </g>
  </g>
 </g>
 <defs>
  <clipPath id="p254325d9aa">
   <rect height="217.44" width="334.8" x="46.965625" y="22.318125"/>
  </clipPath>
 </defs>
</svg>
