<?xml version="1.0" encoding="utf-8" standalone="no"?>
<!DOCTYPE svg PUBLIC "-//W3C//DTD SVG 1.1//EN"
  "http://www.w3.org/Graphics/SVG/1.1/DTD/svg11.dtd">
<!-- Created with matplotlib (https://matplotlib.org/) -->
<svg height="277.314375pt" version="1.1" viewBox="0 0 386.103125 277.314375" width="386.103125pt" xmlns="http://www.w3.org/2000/svg" xmlns:xlink="http://www.w3.org/1999/xlink">
 <defs>
  <style type="text/css">
*{stroke-linecap:butt;stroke-linejoin:round;}
  </style>
 </defs>
 <g id="figure_1">
  <g id="patch_1">
   <path d="M 0 277.314375 
L 386.103125 277.314375 
L 386.103125 0 
L 0 0 
z
" style="fill:none;"/>
  </g>
  <g id="axes_1">
   <g id="patch_2">
    <path d="M 40.603125 239.758125 
L 375.403125 239.758125 
L 375.403125 22.318125 
L 40.603125 22.318125 
z
" style="fill:none;"/>
   </g>
   <g id="matplotlib.axis_1">
    <g id="xtick_1">
     <g id="line2d_1">
      <defs>
       <path d="M 0 0 
L 0 3.5 
" id="mee08510ab6" style="stroke:#000000;stroke-width:0.8;"/>
      </defs>
      <g>
       <use style="stroke:#000000;stroke-width:0.8;" x="55.821307" xlink:href="#mee08510ab6" y="239.758125"/>
      </g>
     </g>
     <g id="text_1">
      <!-- 0.00 -->
      <defs>
       <path d="M 31.78125 66.40625 
Q 24.171875 66.40625 20.328125 58.90625 
Q 16.5 51.421875 16.5 36.375 
Q 16.5 21.390625 20.328125 13.890625 
Q 24.171875 6.390625 31.78125 6.390625 
Q 39.453125 6.390625 43.28125 13.890625 
Q 47.125 21.390625 47.125 36.375 
Q 47.125 51.421875 43.28125 58.90625 
Q 39.453125 66.40625 31.78125 66.40625 
z
M 31.78125 74.21875 
Q 44.046875 74.21875 50.515625 64.515625 
Q 56.984375 54.828125 56.984375 36.375 
Q 56.984375 17.96875 50.515625 8.265625 
Q 44.046875 -1.421875 31.78125 -1.421875 
Q 19.53125 -1.421875 13.0625 8.265625 
Q 6.59375 17.96875 6.59375 36.375 
Q 6.59375 54.828125 13.0625 64.515625 
Q 19.53125 74.21875 31.78125 74.21875 
z
" id="DejaVuSans-48"/>
       <path d="M 10.6875 12.40625 
L 21 12.40625 
L 21 0 
L 10.6875 0 
z
" id="DejaVuSans-46"/>
      </defs>
      <g transform="translate(44.688494 254.356562)scale(0.1 -0.1)">
       <use xlink:href="#DejaVuSans-48"/>
       <use x="63.623047" xlink:href="#DejaVuSans-46"/>
       <use x="95.410156" xlink:href="#DejaVuSans-48"/>
       <use x="159.033203" xlink:href="#DejaVuSans-48"/>
      </g>
     </g>
    </g>
    <g id="xtick_2">
     <g id="line2d_2">
      <g>
       <use style="stroke:#000000;stroke-width:0.8;" x="116.64352" xlink:href="#mee08510ab6" y="239.758125"/>
      </g>
     </g>
     <g id="text_2">
      <!-- 0.05 -->
      <defs>
       <path d="M 10.796875 72.90625 
L 49.515625 72.90625 
L 49.515625 64.59375 
L 19.828125 64.59375 
L 19.828125 46.734375 
Q 21.96875 47.46875 24.109375 47.828125 
Q 26.265625 48.1875 28.421875 48.1875 
Q 40.625 48.1875 47.75 41.5 
Q 54.890625 34.8125 54.890625 23.390625 
Q 54.890625 11.625 47.5625 5.09375 
Q 40.234375 -1.421875 26.90625 -1.421875 
Q 22.3125 -1.421875 17.546875 -0.640625 
Q 12.796875 0.140625 7.71875 1.703125 
L 7.71875 11.625 
Q 12.109375 9.234375 16.796875 8.0625 
Q 21.484375 6.890625 26.703125 6.890625 
Q 35.15625 6.890625 40.078125 11.328125 
Q 45.015625 15.765625 45.015625 23.390625 
Q 45.015625 31 40.078125 35.4375 
Q 35.15625 39.890625 26.703125 39.890625 
Q 22.75 39.890625 18.8125 39.015625 
Q 14.890625 38.140625 10.796875 36.28125 
z
" id="DejaVuSans-53"/>
      </defs>
      <g transform="translate(105.510708 254.356562)scale(0.1 -0.1)">
       <use xlink:href="#DejaVuSans-48"/>
       <use x="63.623047" xlink:href="#DejaVuSans-46"/>
       <use x="95.410156" xlink:href="#DejaVuSans-48"/>
       <use x="159.033203" xlink:href="#DejaVuSans-53"/>
      </g>
     </g>
    </g>
    <g id="xtick_3">
     <g id="line2d_3">
      <g>
       <use style="stroke:#000000;stroke-width:0.8;" x="177.465734" xlink:href="#mee08510ab6" y="239.758125"/>
      </g>
     </g>
     <g id="text_3">
      <!-- 0.10 -->
      <defs>
       <path d="M 12.40625 8.296875 
L 28.515625 8.296875 
L 28.515625 63.921875 
L 10.984375 60.40625 
L 10.984375 69.390625 
L 28.421875 72.90625 
L 38.28125 72.90625 
L 38.28125 8.296875 
L 54.390625 8.296875 
L 54.390625 0 
L 12.40625 0 
z
" id="DejaVuSans-49"/>
      </defs>
      <g transform="translate(166.332921 254.356562)scale(0.1 -0.1)">
       <use xlink:href="#DejaVuSans-48"/>
       <use x="63.623047" xlink:href="#DejaVuSans-46"/>
       <use x="95.410156" xlink:href="#DejaVuSans-49"/>
       <use x="159.033203" xlink:href="#DejaVuSans-48"/>
      </g>
     </g>
    </g>
    <g id="xtick_4">
     <g id="line2d_4">
      <g>
       <use style="stroke:#000000;stroke-width:0.8;" x="238.287947" xlink:href="#mee08510ab6" y="239.758125"/>
      </g>
     </g>
     <g id="text_4">
      <!-- 0.15 -->
      <g transform="translate(227.155135 254.356562)scale(0.1 -0.1)">
       <use xlink:href="#DejaVuSans-48"/>
       <use x="63.623047" xlink:href="#DejaVuSans-46"/>
       <use x="95.410156" xlink:href="#DejaVuSans-49"/>
       <use x="159.033203" xlink:href="#DejaVuSans-53"/>
      </g>
     </g>
    </g>
    <g id="xtick_5">
     <g id="line2d_5">
      <g>
       <use style="stroke:#000000;stroke-width:0.8;" x="299.110161" xlink:href="#mee08510ab6" y="239.758125"/>
      </g>
     </g>
     <g id="text_5">
      <!-- 0.20 -->
      <defs>
       <path d="M 19.1875 8.296875 
L 53.609375 8.296875 
L 53.609375 0 
L 7.328125 0 
L 7.328125 8.296875 
Q 12.9375 14.109375 22.625 23.890625 
Q 32.328125 33.6875 34.8125 36.53125 
Q 39.546875 41.84375 41.421875 45.53125 
Q 43.3125 49.21875 43.3125 52.78125 
Q 43.3125 58.59375 39.234375 62.25 
Q 35.15625 65.921875 28.609375 65.921875 
Q 23.96875 65.921875 18.8125 64.3125 
Q 13.671875 62.703125 7.8125 59.421875 
L 7.8125 69.390625 
Q 13.765625 71.78125 18.9375 73 
Q 24.125 74.21875 28.421875 74.21875 
Q 39.75 74.21875 46.484375 68.546875 
Q 53.21875 62.890625 53.21875 53.421875 
Q 53.21875 48.921875 51.53125 44.890625 
Q 49.859375 40.875 45.40625 35.40625 
Q 44.1875 33.984375 37.640625 27.21875 
Q 31.109375 20.453125 19.1875 8.296875 
z
" id="DejaVuSans-50"/>
      </defs>
      <g transform="translate(287.977348 254.356562)scale(0.1 -0.1)">
       <use xlink:href="#DejaVuSans-48"/>
       <use x="63.623047" xlink:href="#DejaVuSans-46"/>
       <use x="95.410156" xlink:href="#DejaVuSans-50"/>
       <use x="159.033203" xlink:href="#DejaVuSans-48"/>
      </g>
     </g>
    </g>
    <g id="xtick_6">
     <g id="line2d_6">
      <g>
       <use style="stroke:#000000;stroke-width:0.8;" x="359.932374" xlink:href="#mee08510ab6" y="239.758125"/>
      </g>
     </g>
     <g id="text_6">
      <!-- 0.25 -->
      <g transform="translate(348.799562 254.356562)scale(0.1 -0.1)">
       <use xlink:href="#DejaVuSans-48"/>
       <use x="63.623047" xlink:href="#DejaVuSans-46"/>
       <use x="95.410156" xlink:href="#DejaVuSans-50"/>
       <use x="159.033203" xlink:href="#DejaVuSans-53"/>
      </g>
     </g>
    </g>
    <g id="text_7">
     <!-- Time (ms) -->
     <defs>
      <path d="M -0.296875 72.90625 
L 61.375 72.90625 
L 61.375 64.59375 
L 35.5 64.59375 
L 35.5 0 
L 25.59375 0 
L 25.59375 64.59375 
L -0.296875 64.59375 
z
" id="DejaVuSans-84"/>
      <path d="M 9.421875 54.6875 
L 18.40625 54.6875 
L 18.40625 0 
L 9.421875 0 
z
M 9.421875 75.984375 
L 18.40625 75.984375 
L 18.40625 64.59375 
L 9.421875 64.59375 
z
" id="DejaVuSans-105"/>
      <path d="M 52 44.1875 
Q 55.375 50.25 60.0625 53.125 
Q 64.75 56 71.09375 56 
Q 79.640625 56 84.28125 50.015625 
Q 88.921875 44.046875 88.921875 33.015625 
L 88.921875 0 
L 79.890625 0 
L 79.890625 32.71875 
Q 79.890625 40.578125 77.09375 44.375 
Q 74.3125 48.1875 68.609375 48.1875 
Q 61.625 48.1875 57.5625 43.546875 
Q 53.515625 38.921875 53.515625 30.90625 
L 53.515625 0 
L 44.484375 0 
L 44.484375 32.71875 
Q 44.484375 40.625 41.703125 44.40625 
Q 38.921875 48.1875 33.109375 48.1875 
Q 26.21875 48.1875 22.15625 43.53125 
Q 18.109375 38.875 18.109375 30.90625 
L 18.109375 0 
L 9.078125 0 
L 9.078125 54.6875 
L 18.109375 54.6875 
L 18.109375 46.1875 
Q 21.1875 51.21875 25.484375 53.609375 
Q 29.78125 56 35.6875 56 
Q 41.65625 56 45.828125 52.96875 
Q 50 49.953125 52 44.1875 
z
" id="DejaVuSans-109"/>
      <path d="M 56.203125 29.59375 
L 56.203125 25.203125 
L 14.890625 25.203125 
Q 15.484375 15.921875 20.484375 11.0625 
Q 25.484375 6.203125 34.421875 6.203125 
Q 39.59375 6.203125 44.453125 7.46875 
Q 49.3125 8.734375 54.109375 11.28125 
L 54.109375 2.78125 
Q 49.265625 0.734375 44.1875 -0.34375 
Q 39.109375 -1.421875 33.890625 -1.421875 
Q 20.796875 -1.421875 13.15625 6.1875 
Q 5.515625 13.8125 5.515625 26.8125 
Q 5.515625 40.234375 12.765625 48.109375 
Q 20.015625 56 32.328125 56 
Q 43.359375 56 49.78125 48.890625 
Q 56.203125 41.796875 56.203125 29.59375 
z
M 47.21875 32.234375 
Q 47.125 39.59375 43.09375 43.984375 
Q 39.0625 48.390625 32.421875 48.390625 
Q 24.90625 48.390625 20.390625 44.140625 
Q 15.875 39.890625 15.1875 32.171875 
z
" id="DejaVuSans-101"/>
      <path id="DejaVuSans-32"/>
      <path d="M 31 75.875 
Q 24.46875 64.65625 21.28125 53.65625 
Q 18.109375 42.671875 18.109375 31.390625 
Q 18.109375 20.125 21.3125 9.0625 
Q 24.515625 -2 31 -13.1875 
L 23.1875 -13.1875 
Q 15.875 -1.703125 12.234375 9.375 
Q 8.59375 20.453125 8.59375 31.390625 
Q 8.59375 42.28125 12.203125 53.3125 
Q 15.828125 64.359375 23.1875 75.875 
z
" id="DejaVuSans-40"/>
      <path d="M 44.28125 53.078125 
L 44.28125 44.578125 
Q 40.484375 46.53125 36.375 47.5 
Q 32.28125 48.484375 27.875 48.484375 
Q 21.1875 48.484375 17.84375 46.4375 
Q 14.5 44.390625 14.5 40.28125 
Q 14.5 37.15625 16.890625 35.375 
Q 19.28125 33.59375 26.515625 31.984375 
L 29.59375 31.296875 
Q 39.15625 29.25 43.1875 25.515625 
Q 47.21875 21.78125 47.21875 15.09375 
Q 47.21875 7.46875 41.1875 3.015625 
Q 35.15625 -1.421875 24.609375 -1.421875 
Q 20.21875 -1.421875 15.453125 -0.5625 
Q 10.6875 0.296875 5.421875 2 
L 5.421875 11.28125 
Q 10.40625 8.6875 15.234375 7.390625 
Q 20.0625 6.109375 24.8125 6.109375 
Q 31.15625 6.109375 34.5625 8.28125 
Q 37.984375 10.453125 37.984375 14.40625 
Q 37.984375 18.0625 35.515625 20.015625 
Q 33.0625 21.96875 24.703125 23.78125 
L 21.578125 24.515625 
Q 13.234375 26.265625 9.515625 29.90625 
Q 5.8125 33.546875 5.8125 39.890625 
Q 5.8125 47.609375 11.28125 51.796875 
Q 16.75 56 26.8125 56 
Q 31.78125 56 36.171875 55.265625 
Q 40.578125 54.546875 44.28125 53.078125 
z
" id="DejaVuSans-115"/>
      <path d="M 8.015625 75.875 
L 15.828125 75.875 
Q 23.140625 64.359375 26.78125 53.3125 
Q 30.421875 42.28125 30.421875 31.390625 
Q 30.421875 20.453125 26.78125 9.375 
Q 23.140625 -1.703125 15.828125 -13.1875 
L 8.015625 -13.1875 
Q 14.5 -2 17.703125 9.0625 
Q 20.90625 20.125 20.90625 31.390625 
Q 20.90625 42.671875 17.703125 53.65625 
Q 14.5 64.65625 8.015625 75.875 
z
" id="DejaVuSans-41"/>
     </defs>
     <g transform="translate(182.65 268.034687)scale(0.1 -0.1)">
      <use xlink:href="#DejaVuSans-84"/>
      <use x="61.037109" xlink:href="#DejaVuSans-105"/>
      <use x="88.820312" xlink:href="#DejaVuSans-109"/>
      <use x="186.232422" xlink:href="#DejaVuSans-101"/>
      <use x="247.755859" xlink:href="#DejaVuSans-32"/>
      <use x="279.542969" xlink:href="#DejaVuSans-40"/>
      <use x="318.556641" xlink:href="#DejaVuSans-109"/>
      <use x="415.96875" xlink:href="#DejaVuSans-115"/>
      <use x="468.068359" xlink:href="#DejaVuSans-41"/>
     </g>
    </g>
   </g>
   <g id="matplotlib.axis_2">
    <g id="ytick_1">
     <g id="line2d_7">
      <defs>
       <path d="M 0 0 
L -3.5 0 
" id="m95908c3ccf" style="stroke:#000000;stroke-width:0.8;"/>
      </defs>
      <g>
       <use style="stroke:#000000;stroke-width:0.8;" x="40.603125" xlink:href="#m95908c3ccf" y="229.874489"/>
      </g>
     </g>
     <g id="text_8">
      <!-- 0 -->
      <g transform="translate(27.240625 233.673707)scale(0.1 -0.1)">
       <use xlink:href="#DejaVuSans-48"/>
      </g>
     </g>
    </g>
    <g id="ytick_2">
     <g id="line2d_8">
      <g>
       <use style="stroke:#000000;stroke-width:0.8;" x="40.603125" xlink:href="#m95908c3ccf" y="183.404689"/>
      </g>
     </g>
     <g id="text_9">
      <!-- 20 -->
      <g transform="translate(20.878125 187.203908)scale(0.1 -0.1)">
       <use xlink:href="#DejaVuSans-50"/>
       <use x="63.623047" xlink:href="#DejaVuSans-48"/>
      </g>
     </g>
    </g>
    <g id="ytick_3">
     <g id="line2d_9">
      <g>
       <use style="stroke:#000000;stroke-width:0.8;" x="40.603125" xlink:href="#m95908c3ccf" y="136.93489"/>
      </g>
     </g>
     <g id="text_10">
      <!-- 40 -->
      <defs>
       <path d="M 37.796875 64.3125 
L 12.890625 25.390625 
L 37.796875 25.390625 
z
M 35.203125 72.90625 
L 47.609375 72.90625 
L 47.609375 25.390625 
L 58.015625 25.390625 
L 58.015625 17.1875 
L 47.609375 17.1875 
L 47.609375 0 
L 37.796875 0 
L 37.796875 17.1875 
L 4.890625 17.1875 
L 4.890625 26.703125 
z
" id="DejaVuSans-52"/>
      </defs>
      <g transform="translate(20.878125 140.734108)scale(0.1 -0.1)">
       <use xlink:href="#DejaVuSans-52"/>
       <use x="63.623047" xlink:href="#DejaVuSans-48"/>
      </g>
     </g>
    </g>
    <g id="ytick_4">
     <g id="line2d_10">
      <g>
       <use style="stroke:#000000;stroke-width:0.8;" x="40.603125" xlink:href="#m95908c3ccf" y="90.46509"/>
      </g>
     </g>
     <g id="text_11">
      <!-- 60 -->
      <defs>
       <path d="M 33.015625 40.375 
Q 26.375 40.375 22.484375 35.828125 
Q 18.609375 31.296875 18.609375 23.390625 
Q 18.609375 15.53125 22.484375 10.953125 
Q 26.375 6.390625 33.015625 6.390625 
Q 39.65625 6.390625 43.53125 10.953125 
Q 47.40625 15.53125 47.40625 23.390625 
Q 47.40625 31.296875 43.53125 35.828125 
Q 39.65625 40.375 33.015625 40.375 
z
M 52.59375 71.296875 
L 52.59375 62.3125 
Q 48.875 64.0625 45.09375 64.984375 
Q 41.3125 65.921875 37.59375 65.921875 
Q 27.828125 65.921875 22.671875 59.328125 
Q 17.53125 52.734375 16.796875 39.40625 
Q 19.671875 43.65625 24.015625 45.921875 
Q 28.375 48.1875 33.59375 48.1875 
Q 44.578125 48.1875 50.953125 41.515625 
Q 57.328125 34.859375 57.328125 23.390625 
Q 57.328125 12.15625 50.6875 5.359375 
Q 44.046875 -1.421875 33.015625 -1.421875 
Q 20.359375 -1.421875 13.671875 8.265625 
Q 6.984375 17.96875 6.984375 36.375 
Q 6.984375 53.65625 15.1875 63.9375 
Q 23.390625 74.21875 37.203125 74.21875 
Q 40.921875 74.21875 44.703125 73.484375 
Q 48.484375 72.75 52.59375 71.296875 
z
" id="DejaVuSans-54"/>
      </defs>
      <g transform="translate(20.878125 94.264309)scale(0.1 -0.1)">
       <use xlink:href="#DejaVuSans-54"/>
       <use x="63.623047" xlink:href="#DejaVuSans-48"/>
      </g>
     </g>
    </g>
    <g id="ytick_5">
     <g id="line2d_11">
      <g>
       <use style="stroke:#000000;stroke-width:0.8;" x="40.603125" xlink:href="#m95908c3ccf" y="43.995291"/>
      </g>
     </g>
     <g id="text_12">
      <!-- 80 -->
      <defs>
       <path d="M 31.78125 34.625 
Q 24.75 34.625 20.71875 30.859375 
Q 16.703125 27.09375 16.703125 20.515625 
Q 16.703125 13.921875 20.71875 10.15625 
Q 24.75 6.390625 31.78125 6.390625 
Q 38.8125 6.390625 42.859375 10.171875 
Q 46.921875 13.96875 46.921875 20.515625 
Q 46.921875 27.09375 42.890625 30.859375 
Q 38.875 34.625 31.78125 34.625 
z
M 21.921875 38.8125 
Q 15.578125 40.375 12.03125 44.71875 
Q 8.5 49.078125 8.5 55.328125 
Q 8.5 64.0625 14.71875 69.140625 
Q 20.953125 74.21875 31.78125 74.21875 
Q 42.671875 74.21875 48.875 69.140625 
Q 55.078125 64.0625 55.078125 55.328125 
Q 55.078125 49.078125 51.53125 44.71875 
Q 48 40.375 41.703125 38.8125 
Q 48.828125 37.15625 52.796875 32.3125 
Q 56.78125 27.484375 56.78125 20.515625 
Q 56.78125 9.90625 50.3125 4.234375 
Q 43.84375 -1.421875 31.78125 -1.421875 
Q 19.734375 -1.421875 13.25 4.234375 
Q 6.78125 9.90625 6.78125 20.515625 
Q 6.78125 27.484375 10.78125 32.3125 
Q 14.796875 37.15625 21.921875 38.8125 
z
M 18.3125 54.390625 
Q 18.3125 48.734375 21.84375 45.5625 
Q 25.390625 42.390625 31.78125 42.390625 
Q 38.140625 42.390625 41.71875 45.5625 
Q 45.3125 48.734375 45.3125 54.390625 
Q 45.3125 60.0625 41.71875 63.234375 
Q 38.140625 66.40625 31.78125 66.40625 
Q 25.390625 66.40625 21.84375 63.234375 
Q 18.3125 60.0625 18.3125 54.390625 
z
" id="DejaVuSans-56"/>
      </defs>
      <g transform="translate(20.878125 47.79451)scale(0.1 -0.1)">
       <use xlink:href="#DejaVuSans-56"/>
       <use x="63.623047" xlink:href="#DejaVuSans-48"/>
      </g>
     </g>
    </g>
    <g id="text_13">
     <!-- ppmOH -->
     <defs>
      <path d="M 18.109375 8.203125 
L 18.109375 -20.796875 
L 9.078125 -20.796875 
L 9.078125 54.6875 
L 18.109375 54.6875 
L 18.109375 46.390625 
Q 20.953125 51.265625 25.265625 53.625 
Q 29.59375 56 35.59375 56 
Q 45.5625 56 51.78125 48.09375 
Q 58.015625 40.1875 58.015625 27.296875 
Q 58.015625 14.40625 51.78125 6.484375 
Q 45.5625 -1.421875 35.59375 -1.421875 
Q 29.59375 -1.421875 25.265625 0.953125 
Q 20.953125 3.328125 18.109375 8.203125 
z
M 48.6875 27.296875 
Q 48.6875 37.203125 44.609375 42.84375 
Q 40.53125 48.484375 33.40625 48.484375 
Q 26.265625 48.484375 22.1875 42.84375 
Q 18.109375 37.203125 18.109375 27.296875 
Q 18.109375 17.390625 22.1875 11.75 
Q 26.265625 6.109375 33.40625 6.109375 
Q 40.53125 6.109375 44.609375 11.75 
Q 48.6875 17.390625 48.6875 27.296875 
z
" id="DejaVuSans-112"/>
      <path d="M 39.40625 66.21875 
Q 28.65625 66.21875 22.328125 58.203125 
Q 16.015625 50.203125 16.015625 36.375 
Q 16.015625 22.609375 22.328125 14.59375 
Q 28.65625 6.59375 39.40625 6.59375 
Q 50.140625 6.59375 56.421875 14.59375 
Q 62.703125 22.609375 62.703125 36.375 
Q 62.703125 50.203125 56.421875 58.203125 
Q 50.140625 66.21875 39.40625 66.21875 
z
M 39.40625 74.21875 
Q 54.734375 74.21875 63.90625 63.9375 
Q 73.09375 53.65625 73.09375 36.375 
Q 73.09375 19.140625 63.90625 8.859375 
Q 54.734375 -1.421875 39.40625 -1.421875 
Q 24.03125 -1.421875 14.8125 8.828125 
Q 5.609375 19.09375 5.609375 36.375 
Q 5.609375 53.65625 14.8125 63.9375 
Q 24.03125 74.21875 39.40625 74.21875 
z
" id="DejaVuSans-79"/>
      <path d="M 9.8125 72.90625 
L 19.671875 72.90625 
L 19.671875 43.015625 
L 55.515625 43.015625 
L 55.515625 72.90625 
L 65.375 72.90625 
L 65.375 0 
L 55.515625 0 
L 55.515625 34.71875 
L 19.671875 34.71875 
L 19.671875 0 
L 9.8125 0 
z
" id="DejaVuSans-72"/>
     </defs>
     <g transform="translate(14.798438 149.952969)rotate(-90)scale(0.1 -0.1)">
      <use xlink:href="#DejaVuSans-112"/>
      <use x="63.476562" xlink:href="#DejaVuSans-112"/>
      <use x="126.953125" xlink:href="#DejaVuSans-109"/>
      <use x="224.365234" xlink:href="#DejaVuSans-79"/>
      <use x="303.076172" xlink:href="#DejaVuSans-72"/>
     </g>
    </g>
   </g>
   <g id="line2d_12">
    <path clip-path="url(#pe62c03b850)" d="M 55.821307 229.874489 
L 61.821215 229.765824 
L 74.420887 229.299156 
L 85.424592 228.684372 
L 94.172879 227.999512 
L 101.491385 227.247064 
L 109.127964 226.23685 
L 115.596302 225.156236 
L 122.06464 223.821833 
L 126.915893 222.623404 
L 131.767146 221.228605 
L 136.618399 219.61117 
L 141.469653 217.743536 
L 146.320906 215.597649 
L 151.172159 213.146105 
L 156.023412 210.363677 
L 160.874666 207.229225 
L 165.725919 203.72793 
L 170.577172 199.853738 
L 175.428425 195.611795 
L 180.279679 191.02057 
L 185.130932 186.113307 
L 191.59927 179.164482 
L 199.684692 170.048562 
L 213.098671 154.826902 
L 218.997118 148.472956 
L 223.715876 143.665116 
L 228.434634 139.154684 
L 233.153392 134.975519 
L 237.87215 131.147517 
L 242.590908 127.677672 
L 247.309666 124.561882 
L 252.028424 121.787173 
L 256.747182 119.334028 
L 261.46594 117.178584 
L 266.184698 115.294549 
L 270.903456 113.654765 
L 275.622214 112.232391 
L 281.520661 110.721204 
L 287.419108 109.463453 
L 293.317556 108.417892 
L 300.395693 107.393065 
L 308.0905 106.506267 
L 317.072301 105.700794 
L 327.850461 104.972751 
L 340.424982 104.348935 
L 356.592223 103.770843 
L 360.184943 103.665276 
L 360.184943 103.665276 
" style="fill:none;stroke:#0000ff;stroke-linecap:square;stroke-width:1.5;"/>
   </g>
   <g id="line2d_13">
    <path clip-path="url(#pe62c03b850)" d="M 55.821307 229.874489 
L 61.82082 229.765365 
L 74.410334 229.296642 
L 85.392362 228.679251 
L 94.108339 227.99243 
L 101.408824 227.236751 
L 109.027351 226.221756 
L 115.474085 225.136872 
L 121.920819 223.797119 
L 126.75587 222.593841 
L 131.59092 221.193375 
L 136.425971 219.569366 
L 141.261021 217.694171 
L 146.096072 215.539672 
L 150.931123 213.078434 
L 155.766173 210.285243 
L 160.601224 207.139029 
L 165.436274 203.625118 
L 170.271325 199.73769 
L 175.106375 195.482217 
L 179.941426 190.877586 
L 184.776477 185.957537 
L 191.223211 178.993574 
L 199.281628 169.863613 
L 212.686965 154.595347 
L 218.583792 148.228891 
L 223.301253 143.416399 
L 228.018714 138.906004 
L 232.736175 134.731207 
L 237.453637 130.911344 
L 242.171098 127.452717 
L 246.888559 124.35048 
L 251.60602 121.590923 
L 256.323482 119.153853 
L 261.040943 117.014824 
L 265.758404 115.147063 
L 270.475865 113.523043 
L 275.193327 112.115655 
L 281.090153 110.62184 
L 286.98698 109.379775 
L 292.883806 108.348159 
L 299.959998 107.337826 
L 307.665319 106.46294 
L 316.707788 105.665303 
L 327.558751 104.945816 
L 340.218207 104.33013 
L 356.494652 103.75942 
L 360.11164 103.65507 
L 360.11164 103.65507 
" style="fill:none;stroke:#ff0000;stroke-linecap:square;stroke-width:1.5;"/>
   </g>
   <g id="line2d_14">
    <defs>
     <path d="M 0 3 
C 0.795609 3 1.55874 2.683901 2.12132 2.12132 
C 2.683901 1.55874 3 0.795609 3 0 
C 3 -0.795609 2.683901 -1.55874 2.12132 -2.12132 
C 1.55874 -2.683901 0.795609 -3 0 -3 
C -0.795609 -3 -1.55874 -2.683901 -2.12132 -2.12132 
C -2.683901 -1.55874 -3 -0.795609 -3 0 
C -3 0.795609 -2.683901 1.55874 -2.12132 2.12132 
C -1.55874 2.683901 -0.795609 3 0 3 
z
" id="m81da127ef3" style="stroke:#000000;"/>
    </defs>
    <g clip-path="url(#pe62c03b850)">
     <use style="stroke:#000000;" x="55.821307" xlink:href="#m81da127ef3" y="229.874489"/>
     <use style="stroke:#000000;" x="55.821593" xlink:href="#m81da127ef3" y="229.874489"/>
     <use style="stroke:#000000;" x="55.822771" xlink:href="#m81da127ef3" y="229.874489"/>
     <use style="stroke:#000000;" x="55.823948" xlink:href="#m81da127ef3" y="229.874489"/>
     <use style="stroke:#000000;" x="55.825126" xlink:href="#m81da127ef3" y="229.874489"/>
     <use style="stroke:#000000;" x="55.827018" xlink:href="#m81da127ef3" y="229.874488"/>
     <use style="stroke:#000000;" x="55.830219" xlink:href="#m81da127ef3" y="229.874488"/>
     <use style="stroke:#000000;" x="55.836149" xlink:href="#m81da127ef3" y="229.874488"/>
     <use style="stroke:#000000;" x="55.849479" xlink:href="#m81da127ef3" y="229.874485"/>
     <use style="stroke:#000000;" x="55.862808" xlink:href="#m81da127ef3" y="229.874481"/>
     <use style="stroke:#000000;" x="55.876138" xlink:href="#m81da127ef3" y="229.874476"/>
     <use style="stroke:#000000;" x="55.889468" xlink:href="#m81da127ef3" y="229.874469"/>
     <use style="stroke:#000000;" x="55.902798" xlink:href="#m81da127ef3" y="229.87446"/>
     <use style="stroke:#000000;" x="55.919122" xlink:href="#m81da127ef3" y="229.874447"/>
     <use style="stroke:#000000;" x="55.935446" xlink:href="#m81da127ef3" y="229.874433"/>
     <use style="stroke:#000000;" x="55.95177" xlink:href="#m81da127ef3" y="229.874415"/>
     <use style="stroke:#000000;" x="55.968094" xlink:href="#m81da127ef3" y="229.874396"/>
     <use style="stroke:#000000;" x="55.993845" xlink:href="#m81da127ef3" y="229.87436"/>
     <use style="stroke:#000000;" x="56.019595" xlink:href="#m81da127ef3" y="229.874319"/>
     <use style="stroke:#000000;" x="56.066022" xlink:href="#m81da127ef3" y="229.874231"/>
     <use style="stroke:#000000;" x="56.11245" xlink:href="#m81da127ef3" y="229.874124"/>
     <use style="stroke:#000000;" x="56.158877" xlink:href="#m81da127ef3" y="229.873998"/>
     <use style="stroke:#000000;" x="56.205304" xlink:href="#m81da127ef3" y="229.873854"/>
     <use style="stroke:#000000;" x="56.251731" xlink:href="#m81da127ef3" y="229.873692"/>
     <use style="stroke:#000000;" x="56.298159" xlink:href="#m81da127ef3" y="229.873511"/>
     <use style="stroke:#000000;" x="56.344586" xlink:href="#m81da127ef3" y="229.873312"/>
     <use style="stroke:#000000;" x="56.391013" xlink:href="#m81da127ef3" y="229.873095"/>
     <use style="stroke:#000000;" x="56.469417" xlink:href="#m81da127ef3" y="229.872688"/>
     <use style="stroke:#000000;" x="56.547822" xlink:href="#m81da127ef3" y="229.872231"/>
     <use style="stroke:#000000;" x="56.626226" xlink:href="#m81da127ef3" y="229.871723"/>
     <use style="stroke:#000000;" x="56.704631" xlink:href="#m81da127ef3" y="229.871166"/>
     <use style="stroke:#000000;" x="56.783035" xlink:href="#m81da127ef3" y="229.87056"/>
     <use style="stroke:#000000;" x="56.86144" xlink:href="#m81da127ef3" y="229.869906"/>
     <use style="stroke:#000000;" x="56.939844" xlink:href="#m81da127ef3" y="229.869205"/>
     <use style="stroke:#000000;" x="57.018248" xlink:href="#m81da127ef3" y="229.868458"/>
     <use style="stroke:#000000;" x="57.096653" xlink:href="#m81da127ef3" y="229.867666"/>
     <use style="stroke:#000000;" x="57.218826" xlink:href="#m81da127ef3" y="229.866342"/>
     <use style="stroke:#000000;" x="57.341" xlink:href="#m81da127ef3" y="229.864914"/>
     <use style="stroke:#000000;" x="57.463173" xlink:href="#m81da127ef3" y="229.863385"/>
     <use style="stroke:#000000;" x="57.585347" xlink:href="#m81da127ef3" y="229.861757"/>
     <use style="stroke:#000000;" x="57.70752" xlink:href="#m81da127ef3" y="229.860035"/>
     <use style="stroke:#000000;" x="57.829694" xlink:href="#m81da127ef3" y="229.858222"/>
     <use style="stroke:#000000;" x="57.951867" xlink:href="#m81da127ef3" y="229.85632"/>
     <use style="stroke:#000000;" x="58.07404" xlink:href="#m81da127ef3" y="229.854335"/>
     <use style="stroke:#000000;" x="58.289134" xlink:href="#m81da127ef3" y="229.850643"/>
     <use style="stroke:#000000;" x="58.442302" xlink:href="#m81da127ef3" y="229.84787"/>
     <use style="stroke:#000000;" x="58.59547" xlink:href="#m81da127ef3" y="229.844984"/>
     <use style="stroke:#000000;" x="58.748638" xlink:href="#m81da127ef3" y="229.84199"/>
     <use style="stroke:#000000;" x="58.901806" xlink:href="#m81da127ef3" y="229.838894"/>
     <use style="stroke:#000000;" x="59.054974" xlink:href="#m81da127ef3" y="229.835701"/>
     <use style="stroke:#000000;" x="59.208142" xlink:href="#m81da127ef3" y="229.832416"/>
     <use style="stroke:#000000;" x="59.36131" xlink:href="#m81da127ef3" y="229.829044"/>
     <use style="stroke:#000000;" x="59.514478" xlink:href="#m81da127ef3" y="229.825589"/>
     <use style="stroke:#000000;" x="59.667646" xlink:href="#m81da127ef3" y="229.822055"/>
     <use style="stroke:#000000;" x="59.820814" xlink:href="#m81da127ef3" y="229.818446"/>
     <use style="stroke:#000000;" x="59.973982" xlink:href="#m81da127ef3" y="229.814766"/>
     <use style="stroke:#000000;" x="60.12715" xlink:href="#m81da127ef3" y="229.811017"/>
     <use style="stroke:#000000;" x="60.280318" xlink:href="#m81da127ef3" y="229.807204"/>
     <use style="stroke:#000000;" x="60.433486" xlink:href="#m81da127ef3" y="229.80333"/>
     <use style="stroke:#000000;" x="60.586654" xlink:href="#m81da127ef3" y="229.799396"/>
     <use style="stroke:#000000;" x="60.739822" xlink:href="#m81da127ef3" y="229.795407"/>
     <use style="stroke:#000000;" x="60.89299" xlink:href="#m81da127ef3" y="229.791363"/>
     <use style="stroke:#000000;" x="61.046158" xlink:href="#m81da127ef3" y="229.787268"/>
     <use style="stroke:#000000;" x="61.278558" xlink:href="#m81da127ef3" y="229.78096"/>
     <use style="stroke:#000000;" x="61.510958" xlink:href="#m81da127ef3" y="229.774544"/>
     <use style="stroke:#000000;" x="61.743358" xlink:href="#m81da127ef3" y="229.768027"/>
     <use style="stroke:#000000;" x="61.975758" xlink:href="#m81da127ef3" y="229.761413"/>
     <use style="stroke:#000000;" x="62.208158" xlink:href="#m81da127ef3" y="229.754707"/>
     <use style="stroke:#000000;" x="62.440558" xlink:href="#m81da127ef3" y="229.747912"/>
     <use style="stroke:#000000;" x="62.672958" xlink:href="#m81da127ef3" y="229.741032"/>
     <use style="stroke:#000000;" x="62.905358" xlink:href="#m81da127ef3" y="229.734071"/>
     <use style="stroke:#000000;" x="63.137758" xlink:href="#m81da127ef3" y="229.72703"/>
     <use style="stroke:#000000;" x="63.370158" xlink:href="#m81da127ef3" y="229.719912"/>
     <use style="stroke:#000000;" x="63.602558" xlink:href="#m81da127ef3" y="229.712719"/>
     <use style="stroke:#000000;" x="63.834958" xlink:href="#m81da127ef3" y="229.705452"/>
     <use style="stroke:#000000;" x="64.067358" xlink:href="#m81da127ef3" y="229.698113"/>
     <use style="stroke:#000000;" x="64.299758" xlink:href="#m81da127ef3" y="229.690703"/>
     <use style="stroke:#000000;" x="64.649191" xlink:href="#m81da127ef3" y="229.679429"/>
     <use style="stroke:#000000;" x="64.998624" xlink:href="#m81da127ef3" y="229.667998"/>
     <use style="stroke:#000000;" x="65.348057" xlink:href="#m81da127ef3" y="229.656413"/>
     <use style="stroke:#000000;" x="65.69749" xlink:href="#m81da127ef3" y="229.644674"/>
     <use style="stroke:#000000;" x="66.046923" xlink:href="#m81da127ef3" y="229.632782"/>
     <use style="stroke:#000000;" x="66.396355" xlink:href="#m81da127ef3" y="229.620736"/>
     <use style="stroke:#000000;" x="66.745788" xlink:href="#m81da127ef3" y="229.608537"/>
     <use style="stroke:#000000;" x="67.095221" xlink:href="#m81da127ef3" y="229.596184"/>
     <use style="stroke:#000000;" x="67.444654" xlink:href="#m81da127ef3" y="229.583676"/>
     <use style="stroke:#000000;" x="67.794087" xlink:href="#m81da127ef3" y="229.571012"/>
     <use style="stroke:#000000;" x="68.14352" xlink:href="#m81da127ef3" y="229.558191"/>
     <use style="stroke:#000000;" x="68.492953" xlink:href="#m81da127ef3" y="229.545211"/>
     <use style="stroke:#000000;" x="69.020184" xlink:href="#m81da127ef3" y="229.525323"/>
     <use style="stroke:#000000;" x="69.547416" xlink:href="#m81da127ef3" y="229.505065"/>
     <use style="stroke:#000000;" x="70.074647" xlink:href="#m81da127ef3" y="229.484432"/>
     <use style="stroke:#000000;" x="70.601879" xlink:href="#m81da127ef3" y="229.463416"/>
     <use style="stroke:#000000;" x="71.12911" xlink:href="#m81da127ef3" y="229.442011"/>
     <use style="stroke:#000000;" x="71.656341" xlink:href="#m81da127ef3" y="229.420211"/>
     <use style="stroke:#000000;" x="72.183573" xlink:href="#m81da127ef3" y="229.398009"/>
     <use style="stroke:#000000;" x="72.710804" xlink:href="#m81da127ef3" y="229.375396"/>
     <use style="stroke:#000000;" x="73.238035" xlink:href="#m81da127ef3" y="229.352367"/>
     <use style="stroke:#000000;" x="73.765267" xlink:href="#m81da127ef3" y="229.328913"/>
     <use style="stroke:#000000;" x="74.673969" xlink:href="#m81da127ef3" y="229.28747"/>
     <use style="stroke:#000000;" x="76.05377" xlink:href="#m81da127ef3" y="229.221996"/>
     <use style="stroke:#000000;" x="77.045995" xlink:href="#m81da127ef3" y="229.172943"/>
     <use style="stroke:#000000;" x="78.03822" xlink:href="#m81da127ef3" y="229.122178"/>
     <use style="stroke:#000000;" x="79.030445" xlink:href="#m81da127ef3" y="229.069643"/>
     <use style="stroke:#000000;" x="80.02267" xlink:href="#m81da127ef3" y="229.015276"/>
     <use style="stroke:#000000;" x="81.014896" xlink:href="#m81da127ef3" y="228.959015"/>
     <use style="stroke:#000000;" x="82.007121" xlink:href="#m81da127ef3" y="228.900796"/>
     <use style="stroke:#000000;" x="82.999346" xlink:href="#m81da127ef3" y="228.840551"/>
     <use style="stroke:#000000;" x="83.991571" xlink:href="#m81da127ef3" y="228.778211"/>
     <use style="stroke:#000000;" x="84.983797" xlink:href="#m81da127ef3" y="228.713706"/>
     <use style="stroke:#000000;" x="85.976022" xlink:href="#m81da127ef3" y="228.646962"/>
     <use style="stroke:#000000;" x="86.968247" xlink:href="#m81da127ef3" y="228.577903"/>
     <use style="stroke:#000000;" x="87.960472" xlink:href="#m81da127ef3" y="228.506451"/>
     <use style="stroke:#000000;" x="89.496417" xlink:href="#m81da127ef3" y="228.390937"/>
     <use style="stroke:#000000;" x="91.032361" xlink:href="#m81da127ef3" y="228.269184"/>
     <use style="stroke:#000000;" x="92.568306" xlink:href="#m81da127ef3" y="228.140866"/>
     <use style="stroke:#000000;" x="94.10425" xlink:href="#m81da127ef3" y="228.005641"/>
     <use style="stroke:#000000;" x="95.640195" xlink:href="#m81da127ef3" y="227.863151"/>
     <use style="stroke:#000000;" x="97.176139" xlink:href="#m81da127ef3" y="227.713022"/>
     <use style="stroke:#000000;" x="98.712084" xlink:href="#m81da127ef3" y="227.554861"/>
     <use style="stroke:#000000;" x="100.248028" xlink:href="#m81da127ef3" y="227.388258"/>
     <use style="stroke:#000000;" x="101.783972" xlink:href="#m81da127ef3" y="227.212785"/>
     <use style="stroke:#000000;" x="103.319917" xlink:href="#m81da127ef3" y="227.027993"/>
     <use style="stroke:#000000;" x="104.855861" xlink:href="#m81da127ef3" y="226.833415"/>
     <use style="stroke:#000000;" x="106.391806" xlink:href="#m81da127ef3" y="226.628563"/>
     <use style="stroke:#000000;" x="107.92775" xlink:href="#m81da127ef3" y="226.41293"/>
     <use style="stroke:#000000;" x="109.463695" xlink:href="#m81da127ef3" y="226.185986"/>
     <use style="stroke:#000000;" x="110.999639" xlink:href="#m81da127ef3" y="225.94718"/>
     <use style="stroke:#000000;" x="112.535584" xlink:href="#m81da127ef3" y="225.695939"/>
     <use style="stroke:#000000;" x="114.071528" xlink:href="#m81da127ef3" y="225.431669"/>
     <use style="stroke:#000000;" x="115.607472" xlink:href="#m81da127ef3" y="225.153751"/>
     <use style="stroke:#000000;" x="117.143417" xlink:href="#m81da127ef3" y="224.861548"/>
     <use style="stroke:#000000;" x="118.679361" xlink:href="#m81da127ef3" y="224.554395"/>
     <use style="stroke:#000000;" x="120.215306" xlink:href="#m81da127ef3" y="224.231609"/>
     <use style="stroke:#000000;" x="121.75125" xlink:href="#m81da127ef3" y="223.892482"/>
     <use style="stroke:#000000;" x="123.287195" xlink:href="#m81da127ef3" y="223.536285"/>
     <use style="stroke:#000000;" x="124.823139" xlink:href="#m81da127ef3" y="223.162268"/>
     <use style="stroke:#000000;" x="126.359084" xlink:href="#m81da127ef3" y="222.76966"/>
     <use style="stroke:#000000;" x="127.895028" xlink:href="#m81da127ef3" y="222.357669"/>
     <use style="stroke:#000000;" x="129.430973" xlink:href="#m81da127ef3" y="221.925484"/>
     <use style="stroke:#000000;" x="130.966917" xlink:href="#m81da127ef3" y="221.472279"/>
     <use style="stroke:#000000;" x="132.502861" xlink:href="#m81da127ef3" y="220.997208"/>
     <use style="stroke:#000000;" x="134.038806" xlink:href="#m81da127ef3" y="220.499413"/>
     <use style="stroke:#000000;" x="135.57475" xlink:href="#m81da127ef3" y="219.978023"/>
     <use style="stroke:#000000;" x="137.110695" xlink:href="#m81da127ef3" y="219.432156"/>
     <use style="stroke:#000000;" x="138.646639" xlink:href="#m81da127ef3" y="218.860924"/>
     <use style="stroke:#000000;" x="140.182584" xlink:href="#m81da127ef3" y="218.263433"/>
     <use style="stroke:#000000;" x="141.718528" xlink:href="#m81da127ef3" y="217.638791"/>
     <use style="stroke:#000000;" x="143.254473" xlink:href="#m81da127ef3" y="216.986104"/>
     <use style="stroke:#000000;" x="144.790417" xlink:href="#m81da127ef3" y="216.304489"/>
     <use style="stroke:#000000;" x="146.326362" xlink:href="#m81da127ef3" y="215.593071"/>
     <use style="stroke:#000000;" x="147.862306" xlink:href="#m81da127ef3" y="214.850994"/>
     <use style="stroke:#000000;" x="149.39825" xlink:href="#m81da127ef3" y="214.077422"/>
     <use style="stroke:#000000;" x="150.934195" xlink:href="#m81da127ef3" y="213.271544"/>
     <use style="stroke:#000000;" x="152.470139" xlink:href="#m81da127ef3" y="212.432586"/>
     <use style="stroke:#000000;" x="154.006084" xlink:href="#m81da127ef3" y="211.55981"/>
     <use style="stroke:#000000;" x="155.542028" xlink:href="#m81da127ef3" y="210.652528"/>
     <use style="stroke:#000000;" x="157.077973" xlink:href="#m81da127ef3" y="209.710103"/>
     <use style="stroke:#000000;" x="158.613917" xlink:href="#m81da127ef3" y="208.731958"/>
     <use style="stroke:#000000;" x="160.149862" xlink:href="#m81da127ef3" y="207.717588"/>
     <use style="stroke:#000000;" x="161.685806" xlink:href="#m81da127ef3" y="206.666561"/>
     <use style="stroke:#000000;" x="163.22175" xlink:href="#m81da127ef3" y="205.578531"/>
     <use style="stroke:#000000;" x="164.757695" xlink:href="#m81da127ef3" y="204.453244"/>
     <use style="stroke:#000000;" x="166.293639" xlink:href="#m81da127ef3" y="203.290546"/>
     <use style="stroke:#000000;" x="167.829584" xlink:href="#m81da127ef3" y="202.090392"/>
     <use style="stroke:#000000;" x="169.365528" xlink:href="#m81da127ef3" y="200.852852"/>
     <use style="stroke:#000000;" x="170.901473" xlink:href="#m81da127ef3" y="199.578119"/>
     <use style="stroke:#000000;" x="172.437417" xlink:href="#m81da127ef3" y="198.266516"/>
     <use style="stroke:#000000;" x="173.973362" xlink:href="#m81da127ef3" y="196.918502"/>
     <use style="stroke:#000000;" x="175.509306" xlink:href="#m81da127ef3" y="195.534678"/>
     <use style="stroke:#000000;" x="177.045251" xlink:href="#m81da127ef3" y="194.11579"/>
     <use style="stroke:#000000;" x="178.581195" xlink:href="#m81da127ef3" y="192.662737"/>
     <use style="stroke:#000000;" x="180.117139" xlink:href="#m81da127ef3" y="191.176566"/>
     <use style="stroke:#000000;" x="181.653084" xlink:href="#m81da127ef3" y="189.658484"/>
     <use style="stroke:#000000;" x="183.189028" xlink:href="#m81da127ef3" y="188.109847"/>
     <use style="stroke:#000000;" x="184.724973" xlink:href="#m81da127ef3" y="186.532168"/>
     <use style="stroke:#000000;" x="186.260917" xlink:href="#m81da127ef3" y="184.92711"/>
     <use style="stroke:#000000;" x="187.796862" xlink:href="#m81da127ef3" y="183.296481"/>
     <use style="stroke:#000000;" x="189.332806" xlink:href="#m81da127ef3" y="181.642232"/>
     <use style="stroke:#000000;" x="190.868751" xlink:href="#m81da127ef3" y="179.966447"/>
     <use style="stroke:#000000;" x="192.404695" xlink:href="#m81da127ef3" y="178.271335"/>
     <use style="stroke:#000000;" x="193.94064" xlink:href="#m81da127ef3" y="176.55922"/>
     <use style="stroke:#000000;" x="195.476584" xlink:href="#m81da127ef3" y="174.832532"/>
     <use style="stroke:#000000;" x="197.012528" xlink:href="#m81da127ef3" y="173.093787"/>
     <use style="stroke:#000000;" x="198.548473" xlink:href="#m81da127ef3" y="171.345581"/>
     <use style="stroke:#000000;" x="200.084417" xlink:href="#m81da127ef3" y="169.590572"/>
     <use style="stroke:#000000;" x="201.620362" xlink:href="#m81da127ef3" y="167.831462"/>
     <use style="stroke:#000000;" x="203.156306" xlink:href="#m81da127ef3" y="166.070983"/>
     <use style="stroke:#000000;" x="204.692251" xlink:href="#m81da127ef3" y="164.31188"/>
     <use style="stroke:#000000;" x="206.228195" xlink:href="#m81da127ef3" y="162.556893"/>
     <use style="stroke:#000000;" x="207.76414" xlink:href="#m81da127ef3" y="160.808738"/>
     <use style="stroke:#000000;" x="208.899146" xlink:href="#m81da127ef3" y="159.522881"/>
     <use style="stroke:#000000;" x="210.034153" xlink:href="#m81da127ef3" y="158.243281"/>
     <use style="stroke:#000000;" x="211.169159" xlink:href="#m81da127ef3" y="156.970982"/>
     <use style="stroke:#000000;" x="212.304166" xlink:href="#m81da127ef3" y="155.707003"/>
     <use style="stroke:#000000;" x="213.439172" xlink:href="#m81da127ef3" y="154.452335"/>
     <use style="stroke:#000000;" x="214.574178" xlink:href="#m81da127ef3" y="153.207942"/>
     <use style="stroke:#000000;" x="215.709185" xlink:href="#m81da127ef3" y="151.974754"/>
     <use style="stroke:#000000;" x="216.844191" xlink:href="#m81da127ef3" y="150.753667"/>
     <use style="stroke:#000000;" x="217.979198" xlink:href="#m81da127ef3" y="149.545537"/>
     <use style="stroke:#000000;" x="219.114204" xlink:href="#m81da127ef3" y="148.351184"/>
     <use style="stroke:#000000;" x="220.249211" xlink:href="#m81da127ef3" y="147.171385"/>
     <use style="stroke:#000000;" x="221.384217" xlink:href="#m81da127ef3" y="146.006871"/>
     <use style="stroke:#000000;" x="222.519224" xlink:href="#m81da127ef3" y="144.858333"/>
     <use style="stroke:#000000;" x="223.65423" xlink:href="#m81da127ef3" y="143.726412"/>
     <use style="stroke:#000000;" x="224.789237" xlink:href="#m81da127ef3" y="142.611706"/>
     <use style="stroke:#000000;" x="225.924243" xlink:href="#m81da127ef3" y="141.514763"/>
     <use style="stroke:#000000;" x="227.05925" xlink:href="#m81da127ef3" y="140.436086"/>
     <use style="stroke:#000000;" x="228.194256" xlink:href="#m81da127ef3" y="139.376127"/>
     <use style="stroke:#000000;" x="229.329263" xlink:href="#m81da127ef3" y="138.335292"/>
     <use style="stroke:#000000;" x="230.464269" xlink:href="#m81da127ef3" y="137.313942"/>
     <use style="stroke:#000000;" x="231.599276" xlink:href="#m81da127ef3" y="136.312387"/>
     <use style="stroke:#000000;" x="232.734282" xlink:href="#m81da127ef3" y="135.330894"/>
     <use style="stroke:#000000;" x="233.869289" xlink:href="#m81da127ef3" y="134.369683"/>
     <use style="stroke:#000000;" x="235.004295" xlink:href="#m81da127ef3" y="133.428933"/>
     <use style="stroke:#000000;" x="236.139302" xlink:href="#m81da127ef3" y="132.508777"/>
     <use style="stroke:#000000;" x="237.274308" xlink:href="#m81da127ef3" y="131.609309"/>
     <use style="stroke:#000000;" x="238.409314" xlink:href="#m81da127ef3" y="130.730582"/>
     <use style="stroke:#000000;" x="239.544321" xlink:href="#m81da127ef3" y="129.87261"/>
     <use style="stroke:#000000;" x="240.679327" xlink:href="#m81da127ef3" y="129.035373"/>
     <use style="stroke:#000000;" x="241.814334" xlink:href="#m81da127ef3" y="128.218815"/>
     <use style="stroke:#000000;" x="242.94934" xlink:href="#m81da127ef3" y="127.422847"/>
     <use style="stroke:#000000;" x="244.084347" xlink:href="#m81da127ef3" y="126.647348"/>
     <use style="stroke:#000000;" x="245.219353" xlink:href="#m81da127ef3" y="125.892169"/>
     <use style="stroke:#000000;" x="246.35436" xlink:href="#m81da127ef3" y="125.157135"/>
     <use style="stroke:#000000;" x="247.489366" xlink:href="#m81da127ef3" y="124.442044"/>
     <use style="stroke:#000000;" x="248.624373" xlink:href="#m81da127ef3" y="123.74667"/>
     <use style="stroke:#000000;" x="249.759379" xlink:href="#m81da127ef3" y="123.070767"/>
     <use style="stroke:#000000;" x="250.894386" xlink:href="#m81da127ef3" y="122.414069"/>
     <use style="stroke:#000000;" x="252.029392" xlink:href="#m81da127ef3" y="121.776291"/>
     <use style="stroke:#000000;" x="253.164399" xlink:href="#m81da127ef3" y="121.157133"/>
     <use style="stroke:#000000;" x="254.299405" xlink:href="#m81da127ef3" y="120.55628"/>
     <use style="stroke:#000000;" x="255.434412" xlink:href="#m81da127ef3" y="119.973406"/>
     <use style="stroke:#000000;" x="256.569418" xlink:href="#m81da127ef3" y="119.40817"/>
     <use style="stroke:#000000;" x="257.704425" xlink:href="#m81da127ef3" y="118.860226"/>
     <use style="stroke:#000000;" x="258.839431" xlink:href="#m81da127ef3" y="118.329215"/>
     <use style="stroke:#000000;" x="259.974438" xlink:href="#m81da127ef3" y="117.814775"/>
     <use style="stroke:#000000;" x="261.109444" xlink:href="#m81da127ef3" y="117.316538"/>
     <use style="stroke:#000000;" x="262.244451" xlink:href="#m81da127ef3" y="116.834129"/>
     <use style="stroke:#000000;" x="263.379457" xlink:href="#m81da127ef3" y="116.367173"/>
     <use style="stroke:#000000;" x="264.514463" xlink:href="#m81da127ef3" y="115.91529"/>
     <use style="stroke:#000000;" x="265.64947" xlink:href="#m81da127ef3" y="115.478103"/>
     <use style="stroke:#000000;" x="266.784476" xlink:href="#m81da127ef3" y="115.055232"/>
     <use style="stroke:#000000;" x="267.919483" xlink:href="#m81da127ef3" y="114.646297"/>
     <use style="stroke:#000000;" x="269.054489" xlink:href="#m81da127ef3" y="114.250923"/>
     <use style="stroke:#000000;" x="270.189496" xlink:href="#m81da127ef3" y="113.868735"/>
     <use style="stroke:#000000;" x="271.324502" xlink:href="#m81da127ef3" y="113.499361"/>
     <use style="stroke:#000000;" x="272.459509" xlink:href="#m81da127ef3" y="113.142433"/>
     <use style="stroke:#000000;" x="273.594515" xlink:href="#m81da127ef3" y="112.797587"/>
     <use style="stroke:#000000;" x="274.729522" xlink:href="#m81da127ef3" y="112.464466"/>
     <use style="stroke:#000000;" x="275.864528" xlink:href="#m81da127ef3" y="112.142715"/>
     <use style="stroke:#000000;" x="276.999535" xlink:href="#m81da127ef3" y="111.831985"/>
     <use style="stroke:#000000;" x="278.134541" xlink:href="#m81da127ef3" y="111.531935"/>
     <use style="stroke:#000000;" x="279.269548" xlink:href="#m81da127ef3" y="111.242229"/>
     <use style="stroke:#000000;" x="280.404554" xlink:href="#m81da127ef3" y="110.962536"/>
     <use style="stroke:#000000;" x="281.539561" xlink:href="#m81da127ef3" y="110.692534"/>
     <use style="stroke:#000000;" x="282.674567" xlink:href="#m81da127ef3" y="110.431907"/>
     <use style="stroke:#000000;" x="283.809574" xlink:href="#m81da127ef3" y="110.180346"/>
     <use style="stroke:#000000;" x="284.94458" xlink:href="#m81da127ef3" y="109.937549"/>
     <use style="stroke:#000000;" x="286.079587" xlink:href="#m81da127ef3" y="109.703221"/>
     <use style="stroke:#000000;" x="287.214593" xlink:href="#m81da127ef3" y="109.477075"/>
    </g>
   </g>
   <g id="line2d_15">
    <path clip-path="url(#pe62c03b850)" d="M 55.821307 229.874489 
L 60.280318 229.769051 
L 68.492953 229.329497 
L 76.05377 228.726725 
L 82.999346 227.941594 
L 87.960472 227.198421 
L 92.568306 226.333173 
L 97.176139 225.257915 
L 101.783972 223.923611 
L 106.391806 222.275934 
L 109.463695 220.970126 
L 112.535584 219.471815 
L 115.607472 217.755683 
L 118.679361 215.789816 
L 121.75125 213.547032 
L 124.823139 210.995281 
L 127.895028 208.100428 
L 130.966917 204.827014 
L 134.038806 201.139021 
L 137.110695 197.000862 
L 140.182584 192.378667 
L 143.254473 187.241909 
L 146.326362 181.565342 
L 149.39825 175.32228 
L 152.470139 168.513566 
L 155.542028 161.145131 
L 158.613917 153.23813 
L 161.685806 144.831586 
L 166.293639 131.419903 
L 172.437417 112.516711 
L 180.117139 88.653922 
L 184.724973 75.127403 
L 187.796862 66.771519 
L 190.868751 59.117294 
L 193.94064 52.29204 
L 197.012528 46.397757 
L 198.548473 43.823538 
L 200.084417 41.506527 
L 201.620362 39.44669 
L 203.156306 37.657469 
L 204.692251 36.123797 
L 206.228195 34.856864 
L 207.76414 33.848252 
L 208.899146 33.260471 
L 210.034153 32.805699 
L 211.169159 32.480369 
L 212.304166 32.280496 
L 213.439172 32.201761 
L 214.574178 32.239501 
L 216.844191 32.644305 
L 219.114204 33.452685 
L 221.384217 34.620066 
L 223.65423 36.102745 
L 225.924243 37.85271 
L 229.329263 40.879973 
L 232.734282 44.264703 
L 237.274308 49.11679 
L 249.759379 62.712952 
L 254.299405 67.299848 
L 258.839431 71.560993 
L 263.379457 75.463192 
L 267.919483 78.995325 
L 272.459509 82.162807 
L 276.999535 84.98162 
L 281.539561 87.474389 
L 286.079587 89.664597 
L 287.214593 90.168482 
L 287.214593 90.168482 
" style="fill:none;stroke:#0000ff;stroke-dasharray:5.55,2.4;stroke-dashoffset:0;stroke-width:1.5;"/>
   </g>
   <g id="line2d_16">
    <path clip-path="url(#pe62c03b850)" d="M 55.821307 229.874489 
L 64.067358 229.764502 
L 84.983797 229.264105 
L 103.319917 228.619635 
L 118.679361 227.864804 
L 130.966917 227.054604 
L 141.718528 226.131282 
L 150.934195 225.112431 
L 158.613917 224.040599 
L 164.757695 222.990588 
L 170.901473 221.720376 
L 175.509306 220.589141 
L 180.117139 219.271155 
L 184.724973 217.734919 
L 189.332806 215.946091 
L 193.94064 213.867533 
L 198.548473 211.462266 
L 203.156306 208.696098 
L 206.228195 206.637396 
L 210.034153 203.838008 
L 213.439172 201.097383 
L 216.844191 198.134536 
L 221.384217 193.850502 
L 225.924243 189.216412 
L 230.464269 184.281734 
L 236.139302 177.790727 
L 247.489366 164.327416 
L 255.434412 155.09378 
L 261.109444 148.849702 
L 265.64947 144.145733 
L 270.189496 139.741368 
L 274.729522 135.660166 
L 279.269548 131.913203 
L 283.809574 128.503246 
L 287.214593 126.163289 
L 287.214593 126.163289 
" style="fill:none;stroke:#0000ff;stroke-dasharray:5.55,2.4;stroke-dashoffset:0;stroke-width:1.5;"/>
   </g>
   <g id="line2d_17"/>
   <g id="line2d_18"/>
   <g id="line2d_19"/>
   <g id="line2d_20"/>
   <g id="line2d_21"/>
   <g id="patch_3">
    <path d="M 40.603125 239.758125 
L 40.603125 22.318125 
" style="fill:none;stroke:#000000;stroke-linecap:square;stroke-linejoin:miter;stroke-width:0.8;"/>
   </g>
   <g id="patch_4">
    <path d="M 375.403125 239.758125 
L 375.403125 22.318125 
" style="fill:none;stroke:#000000;stroke-linecap:square;stroke-linejoin:miter;stroke-width:0.8;"/>
   </g>
   <g id="patch_5">
    <path d="M 40.603125 239.758125 
L 375.403125 239.758125 
" style="fill:none;stroke:#000000;stroke-linecap:square;stroke-linejoin:miter;stroke-width:0.8;"/>
   </g>
   <g id="patch_6">
    <path d="M 40.603125 22.318125 
L 375.403125 22.318125 
" style="fill:none;stroke:#000000;stroke-linecap:square;stroke-linejoin:miter;stroke-width:0.8;"/>
   </g>
   <g id="text_14">
    <!-- Experiment_1 -->
    <defs>
     <path d="M 9.8125 72.90625 
L 55.90625 72.90625 
L 55.90625 64.59375 
L 19.671875 64.59375 
L 19.671875 43.015625 
L 54.390625 43.015625 
L 54.390625 34.71875 
L 19.671875 34.71875 
L 19.671875 8.296875 
L 56.78125 8.296875 
L 56.78125 0 
L 9.8125 0 
z
" id="DejaVuSans-69"/>
     <path d="M 54.890625 54.6875 
L 35.109375 28.078125 
L 55.90625 0 
L 45.3125 0 
L 29.390625 21.484375 
L 13.484375 0 
L 2.875 0 
L 24.125 28.609375 
L 4.6875 54.6875 
L 15.28125 54.6875 
L 29.78125 35.203125 
L 44.28125 54.6875 
z
" id="DejaVuSans-120"/>
     <path d="M 41.109375 46.296875 
Q 39.59375 47.171875 37.8125 47.578125 
Q 36.03125 48 33.890625 48 
Q 26.265625 48 22.1875 43.046875 
Q 18.109375 38.09375 18.109375 28.8125 
L 18.109375 0 
L 9.078125 0 
L 9.078125 54.6875 
L 18.109375 54.6875 
L 18.109375 46.1875 
Q 20.953125 51.171875 25.484375 53.578125 
Q 30.03125 56 36.53125 56 
Q 37.453125 56 38.578125 55.875 
Q 39.703125 55.765625 41.0625 55.515625 
z
" id="DejaVuSans-114"/>
     <path d="M 54.890625 33.015625 
L 54.890625 0 
L 45.90625 0 
L 45.90625 32.71875 
Q 45.90625 40.484375 42.875 44.328125 
Q 39.84375 48.1875 33.796875 48.1875 
Q 26.515625 48.1875 22.3125 43.546875 
Q 18.109375 38.921875 18.109375 30.90625 
L 18.109375 0 
L 9.078125 0 
L 9.078125 54.6875 
L 18.109375 54.6875 
L 18.109375 46.1875 
Q 21.34375 51.125 25.703125 53.5625 
Q 30.078125 56 35.796875 56 
Q 45.21875 56 50.046875 50.171875 
Q 54.890625 44.34375 54.890625 33.015625 
z
" id="DejaVuSans-110"/>
     <path d="M 18.3125 70.21875 
L 18.3125 54.6875 
L 36.8125 54.6875 
L 36.8125 47.703125 
L 18.3125 47.703125 
L 18.3125 18.015625 
Q 18.3125 11.328125 20.140625 9.421875 
Q 21.96875 7.515625 27.59375 7.515625 
L 36.8125 7.515625 
L 36.8125 0 
L 27.59375 0 
Q 17.1875 0 13.234375 3.875 
Q 9.28125 7.765625 9.28125 18.015625 
L 9.28125 47.703125 
L 2.6875 47.703125 
L 2.6875 54.6875 
L 9.28125 54.6875 
L 9.28125 70.21875 
z
" id="DejaVuSans-116"/>
     <path d="M 50.984375 -16.609375 
L 50.984375 -23.578125 
L -0.984375 -23.578125 
L -0.984375 -16.609375 
z
" id="DejaVuSans-95"/>
    </defs>
    <g transform="translate(166.517812 16.318125)scale(0.12 -0.12)">
     <use xlink:href="#DejaVuSans-69"/>
     <use x="63.183594" xlink:href="#DejaVuSans-120"/>
     <use x="122.363281" xlink:href="#DejaVuSans-112"/>
     <use x="185.839844" xlink:href="#DejaVuSans-101"/>
     <use x="247.363281" xlink:href="#DejaVuSans-114"/>
     <use x="288.476562" xlink:href="#DejaVuSans-105"/>
     <use x="316.259766" xlink:href="#DejaVuSans-109"/>
     <use x="413.671875" xlink:href="#DejaVuSans-101"/>
     <use x="475.195312" xlink:href="#DejaVuSans-110"/>
     <use x="538.574219" xlink:href="#DejaVuSans-116"/>
     <use x="577.783203" xlink:href="#DejaVuSans-95"/>
     <use x="627.783203" xlink:href="#DejaVuSans-49"/>
    </g>
   </g>
   <g id="legend_1">
    <g id="patch_7">
     <path d="M 37.090625 89.0525 
L 368.403125 89.0525 
Q 370.403125 89.0525 370.403125 87.0525 
L 370.403125 29.318125 
Q 370.403125 27.318125 368.403125 27.318125 
L 37.090625 27.318125 
Q 35.090625 27.318125 35.090625 29.318125 
L 35.090625 87.0525 
Q 35.090625 89.0525 37.090625 89.0525 
z
" style="fill:#ffffff;opacity:0.8;stroke:#cccccc;stroke-linejoin:miter;"/>
    </g>
    <g id="line2d_22">
     <path d="M 39.090625 35.416562 
L 59.090625 35.416562 
" style="fill:none;stroke:#0000ff;stroke-linecap:square;stroke-width:1.5;"/>
    </g>
    <g id="line2d_23"/>
    <g id="text_15">
     <!-- MSI -->
     <defs>
      <path d="M 9.8125 72.90625 
L 24.515625 72.90625 
L 43.109375 23.296875 
L 61.8125 72.90625 
L 76.515625 72.90625 
L 76.515625 0 
L 66.890625 0 
L 66.890625 64.015625 
L 48.09375 14.015625 
L 38.1875 14.015625 
L 19.390625 64.015625 
L 19.390625 0 
L 9.8125 0 
z
" id="DejaVuSans-77"/>
      <path d="M 53.515625 70.515625 
L 53.515625 60.890625 
Q 47.90625 63.578125 42.921875 64.890625 
Q 37.9375 66.21875 33.296875 66.21875 
Q 25.25 66.21875 20.875 63.09375 
Q 16.5 59.96875 16.5 54.203125 
Q 16.5 49.359375 19.40625 46.890625 
Q 22.3125 44.4375 30.421875 42.921875 
L 36.375 41.703125 
Q 47.40625 39.59375 52.65625 34.296875 
Q 57.90625 29 57.90625 20.125 
Q 57.90625 9.515625 50.796875 4.046875 
Q 43.703125 -1.421875 29.984375 -1.421875 
Q 24.8125 -1.421875 18.96875 -0.25 
Q 13.140625 0.921875 6.890625 3.21875 
L 6.890625 13.375 
Q 12.890625 10.015625 18.65625 8.296875 
Q 24.421875 6.59375 29.984375 6.59375 
Q 38.421875 6.59375 43.015625 9.90625 
Q 47.609375 13.234375 47.609375 19.390625 
Q 47.609375 24.75 44.3125 27.78125 
Q 41.015625 30.8125 33.5 32.328125 
L 27.484375 33.5 
Q 16.453125 35.6875 11.515625 40.375 
Q 6.59375 45.0625 6.59375 53.421875 
Q 6.59375 63.09375 13.40625 68.65625 
Q 20.21875 74.21875 32.171875 74.21875 
Q 37.3125 74.21875 42.625 73.28125 
Q 47.953125 72.359375 53.515625 70.515625 
z
" id="DejaVuSans-83"/>
      <path d="M 9.8125 72.90625 
L 19.671875 72.90625 
L 19.671875 0 
L 9.8125 0 
z
" id="DejaVuSans-73"/>
     </defs>
     <g transform="translate(67.090625 38.916562)scale(0.1 -0.1)">
      <use xlink:href="#DejaVuSans-77"/>
      <use x="86.279297" xlink:href="#DejaVuSans-83"/>
      <use x="149.755859" xlink:href="#DejaVuSans-73"/>
     </g>
    </g>
    <g id="line2d_24">
     <path d="M 39.090625 50.09625 
L 59.090625 50.09625 
" style="fill:none;stroke:#ff0000;stroke-linecap:square;stroke-width:1.5;"/>
    </g>
    <g id="line2d_25"/>
    <g id="text_16">
     <!-- $\it{A priori}$ model -->
     <defs>
      <path d="M 36.8125 72.90625 
L 48 72.90625 
L 61.53125 0 
L 51.21875 0 
L 48.1875 18.703125 
L 15.375 18.703125 
L 5.078125 0 
L -5.328125 0 
z
M 40.375 63.1875 
L 19.921875 26.90625 
L 46.6875 26.90625 
z
" id="DejaVuSans-Oblique-65"/>
      <path d="M 49.609375 33.6875 
Q 49.609375 40.875 46.484375 44.671875 
Q 43.359375 48.484375 37.5 48.484375 
Q 33.5 48.484375 29.859375 46.4375 
Q 26.21875 44.390625 23.390625 40.484375 
Q 20.609375 36.625 18.9375 31.15625 
Q 17.28125 25.6875 17.28125 20.3125 
Q 17.28125 13.484375 20.40625 9.796875 
Q 23.53125 6.109375 29.296875 6.109375 
Q 33.546875 6.109375 37.1875 8.109375 
Q 40.828125 10.109375 43.40625 13.921875 
Q 46.1875 17.921875 47.890625 23.34375 
Q 49.609375 28.765625 49.609375 33.6875 
z
M 21.78125 46.390625 
Q 25.390625 51.125 30.296875 53.5625 
Q 35.203125 56 41.21875 56 
Q 49.609375 56 54.25 50.5 
Q 58.890625 45.015625 58.890625 35.109375 
Q 58.890625 27 56 19.65625 
Q 53.125 12.3125 47.703125 6.5 
Q 44.09375 2.640625 39.546875 0.609375 
Q 35.015625 -1.421875 29.984375 -1.421875 
Q 24.171875 -1.421875 20.21875 1 
Q 16.265625 3.421875 14.3125 8.203125 
L 8.6875 -20.796875 
L -0.296875 -20.796875 
L 14.40625 54.6875 
L 23.390625 54.6875 
z
" id="DejaVuSans-Oblique-112"/>
      <path d="M 44.578125 46.390625 
Q 43.21875 47.125 41.453125 47.515625 
Q 39.703125 47.90625 37.703125 47.90625 
Q 30.515625 47.90625 25.140625 42.453125 
Q 19.78125 37.015625 18.015625 27.875 
L 12.5 0 
L 3.515625 0 
L 14.203125 54.6875 
L 23.1875 54.6875 
L 21.484375 46.1875 
Q 25.046875 50.921875 30 53.453125 
Q 34.96875 56 40.578125 56 
Q 42.046875 56 43.453125 55.828125 
Q 44.875 55.671875 46.296875 55.28125 
z
" id="DejaVuSans-Oblique-114"/>
      <path d="M 18.3125 75.984375 
L 27.296875 75.984375 
L 25.09375 64.59375 
L 16.109375 64.59375 
z
M 14.203125 54.6875 
L 23.1875 54.6875 
L 12.5 0 
L 3.515625 0 
z
" id="DejaVuSans-Oblique-105"/>
      <path d="M 25.390625 -1.421875 
Q 15.765625 -1.421875 10.171875 4.515625 
Q 4.59375 10.453125 4.59375 20.703125 
Q 4.59375 26.65625 6.515625 32.828125 
Q 8.453125 39.015625 11.53125 43.21875 
Q 16.359375 49.75 22.3125 52.875 
Q 28.265625 56 35.796875 56 
Q 45.125 56 50.859375 50.1875 
Q 56.59375 44.390625 56.59375 35.015625 
Q 56.59375 28.515625 54.6875 22.0625 
Q 52.78125 15.625 49.703125 11.375 
Q 44.921875 4.828125 38.96875 1.703125 
Q 33.015625 -1.421875 25.390625 -1.421875 
z
M 13.921875 21 
Q 13.921875 13.578125 17.015625 9.890625 
Q 20.125 6.203125 26.421875 6.203125 
Q 35.453125 6.203125 41.375 14.078125 
Q 47.3125 21.96875 47.3125 34.078125 
Q 47.3125 41.15625 44.140625 44.765625 
Q 40.96875 48.390625 34.8125 48.390625 
Q 29.734375 48.390625 25.78125 46.015625 
Q 21.828125 43.65625 18.703125 38.8125 
Q 16.40625 35.203125 15.15625 30.5625 
Q 13.921875 25.921875 13.921875 21 
z
" id="DejaVuSans-Oblique-111"/>
      <path d="M 30.609375 48.390625 
Q 23.390625 48.390625 19.1875 42.75 
Q 14.984375 37.109375 14.984375 27.296875 
Q 14.984375 17.484375 19.15625 11.84375 
Q 23.34375 6.203125 30.609375 6.203125 
Q 37.796875 6.203125 41.984375 11.859375 
Q 46.1875 17.53125 46.1875 27.296875 
Q 46.1875 37.015625 41.984375 42.703125 
Q 37.796875 48.390625 30.609375 48.390625 
z
M 30.609375 56 
Q 42.328125 56 49.015625 48.375 
Q 55.71875 40.765625 55.71875 27.296875 
Q 55.71875 13.875 49.015625 6.21875 
Q 42.328125 -1.421875 30.609375 -1.421875 
Q 18.84375 -1.421875 12.171875 6.21875 
Q 5.515625 13.875 5.515625 27.296875 
Q 5.515625 40.765625 12.171875 48.375 
Q 18.84375 56 30.609375 56 
z
" id="DejaVuSans-111"/>
      <path d="M 45.40625 46.390625 
L 45.40625 75.984375 
L 54.390625 75.984375 
L 54.390625 0 
L 45.40625 0 
L 45.40625 8.203125 
Q 42.578125 3.328125 38.25 0.953125 
Q 33.9375 -1.421875 27.875 -1.421875 
Q 17.96875 -1.421875 11.734375 6.484375 
Q 5.515625 14.40625 5.515625 27.296875 
Q 5.515625 40.1875 11.734375 48.09375 
Q 17.96875 56 27.875 56 
Q 33.9375 56 38.25 53.625 
Q 42.578125 51.265625 45.40625 46.390625 
z
M 14.796875 27.296875 
Q 14.796875 17.390625 18.875 11.75 
Q 22.953125 6.109375 30.078125 6.109375 
Q 37.203125 6.109375 41.296875 11.75 
Q 45.40625 17.390625 45.40625 27.296875 
Q 45.40625 37.203125 41.296875 42.84375 
Q 37.203125 48.484375 30.078125 48.484375 
Q 22.953125 48.484375 18.875 42.84375 
Q 14.796875 37.203125 14.796875 27.296875 
z
" id="DejaVuSans-100"/>
      <path d="M 9.421875 75.984375 
L 18.40625 75.984375 
L 18.40625 0 
L 9.421875 0 
z
" id="DejaVuSans-108"/>
     </defs>
     <g transform="translate(67.090625 53.59625)scale(0.1 -0.1)">
      <use transform="translate(0 0.015625)" xlink:href="#DejaVuSans-Oblique-65"/>
      <use transform="translate(68.408203 0.015625)" xlink:href="#DejaVuSans-Oblique-112"/>
      <use transform="translate(131.884766 0.015625)" xlink:href="#DejaVuSans-Oblique-114"/>
      <use transform="translate(172.998047 0.015625)" xlink:href="#DejaVuSans-Oblique-105"/>
      <use transform="translate(200.78125 0.015625)" xlink:href="#DejaVuSans-Oblique-111"/>
      <use transform="translate(261.962891 0.015625)" xlink:href="#DejaVuSans-Oblique-114"/>
      <use transform="translate(303.076172 0.015625)" xlink:href="#DejaVuSans-Oblique-105"/>
      <use transform="translate(330.859375 0.015625)" xlink:href="#DejaVuSans-32"/>
      <use transform="translate(362.646484 0.015625)" xlink:href="#DejaVuSans-109"/>
      <use transform="translate(460.058594 0.015625)" xlink:href="#DejaVuSans-111"/>
      <use transform="translate(521.240234 0.015625)" xlink:href="#DejaVuSans-100"/>
      <use transform="translate(584.716797 0.015625)" xlink:href="#DejaVuSans-101"/>
      <use transform="translate(646.240234 0.015625)" xlink:href="#DejaVuSans-108"/>
     </g>
    </g>
    <g id="line2d_26"/>
    <g id="line2d_27">
     <g>
      <use style="stroke:#000000;" x="49.090625" xlink:href="#m81da127ef3" y="64.794687"/>
     </g>
    </g>
    <g id="text_17">
     <!-- Experimental Data -->
     <defs>
      <path d="M 34.28125 27.484375 
Q 23.390625 27.484375 19.1875 25 
Q 14.984375 22.515625 14.984375 16.5 
Q 14.984375 11.71875 18.140625 8.90625 
Q 21.296875 6.109375 26.703125 6.109375 
Q 34.1875 6.109375 38.703125 11.40625 
Q 43.21875 16.703125 43.21875 25.484375 
L 43.21875 27.484375 
z
M 52.203125 31.203125 
L 52.203125 0 
L 43.21875 0 
L 43.21875 8.296875 
Q 40.140625 3.328125 35.546875 0.953125 
Q 30.953125 -1.421875 24.3125 -1.421875 
Q 15.921875 -1.421875 10.953125 3.296875 
Q 6 8.015625 6 15.921875 
Q 6 25.140625 12.171875 29.828125 
Q 18.359375 34.515625 30.609375 34.515625 
L 43.21875 34.515625 
L 43.21875 35.40625 
Q 43.21875 41.609375 39.140625 45 
Q 35.0625 48.390625 27.6875 48.390625 
Q 23 48.390625 18.546875 47.265625 
Q 14.109375 46.140625 10.015625 43.890625 
L 10.015625 52.203125 
Q 14.9375 54.109375 19.578125 55.046875 
Q 24.21875 56 28.609375 56 
Q 40.484375 56 46.34375 49.84375 
Q 52.203125 43.703125 52.203125 31.203125 
z
" id="DejaVuSans-97"/>
      <path d="M 19.671875 64.796875 
L 19.671875 8.109375 
L 31.59375 8.109375 
Q 46.6875 8.109375 53.6875 14.9375 
Q 60.6875 21.78125 60.6875 36.53125 
Q 60.6875 51.171875 53.6875 57.984375 
Q 46.6875 64.796875 31.59375 64.796875 
z
M 9.8125 72.90625 
L 30.078125 72.90625 
Q 51.265625 72.90625 61.171875 64.09375 
Q 71.09375 55.28125 71.09375 36.53125 
Q 71.09375 17.671875 61.125 8.828125 
Q 51.171875 0 30.078125 0 
L 9.8125 0 
z
" id="DejaVuSans-68"/>
     </defs>
     <g transform="translate(67.090625 68.294687)scale(0.1 -0.1)">
      <use xlink:href="#DejaVuSans-69"/>
      <use x="63.183594" xlink:href="#DejaVuSans-120"/>
      <use x="122.363281" xlink:href="#DejaVuSans-112"/>
      <use x="185.839844" xlink:href="#DejaVuSans-101"/>
      <use x="247.363281" xlink:href="#DejaVuSans-114"/>
      <use x="288.476562" xlink:href="#DejaVuSans-105"/>
      <use x="316.259766" xlink:href="#DejaVuSans-109"/>
      <use x="413.671875" xlink:href="#DejaVuSans-101"/>
      <use x="475.195312" xlink:href="#DejaVuSans-110"/>
      <use x="538.574219" xlink:href="#DejaVuSans-116"/>
      <use x="577.783203" xlink:href="#DejaVuSans-97"/>
      <use x="639.0625" xlink:href="#DejaVuSans-108"/>
      <use x="666.845703" xlink:href="#DejaVuSans-32"/>
      <use x="698.632812" xlink:href="#DejaVuSans-68"/>
      <use x="775.634766" xlink:href="#DejaVuSans-97"/>
      <use x="836.914062" xlink:href="#DejaVuSans-116"/>
      <use x="876.123047" xlink:href="#DejaVuSans-97"/>
     </g>
    </g>
    <g id="line2d_28">
     <path d="M 39.090625 79.472812 
L 59.090625 79.472812 
" style="fill:none;stroke:#ffffff;stroke-linecap:square;stroke-width:1.5;"/>
    </g>
    <g id="line2d_29"/>
    <g id="text_18">
     <!-- T:2616 -->
     <defs>
      <path d="M 11.71875 12.40625 
L 22.015625 12.40625 
L 22.015625 0 
L 11.71875 0 
z
M 11.71875 51.703125 
L 22.015625 51.703125 
L 22.015625 39.3125 
L 11.71875 39.3125 
z
" id="DejaVuSans-58"/>
     </defs>
     <g transform="translate(67.090625 82.972812)scale(0.1 -0.1)">
      <use xlink:href="#DejaVuSans-84"/>
      <use x="60.912109" xlink:href="#DejaVuSans-58"/>
      <use x="94.603516" xlink:href="#DejaVuSans-50"/>
      <use x="158.226562" xlink:href="#DejaVuSans-54"/>
      <use x="221.849609" xlink:href="#DejaVuSans-49"/>
      <use x="285.472656" xlink:href="#DejaVuSans-54"/>
     </g>
    </g>
    <g id="line2d_30">
     <path d="M 180.83125 35.416562 
L 200.83125 35.416562 
" style="fill:none;stroke:#ffffff;stroke-linecap:square;stroke-width:1.5;"/>
    </g>
    <g id="line2d_31"/>
    <g id="text_19">
     <!-- P:2.037 -->
     <defs>
      <path d="M 19.671875 64.796875 
L 19.671875 37.40625 
L 32.078125 37.40625 
Q 38.96875 37.40625 42.71875 40.96875 
Q 46.484375 44.53125 46.484375 51.125 
Q 46.484375 57.671875 42.71875 61.234375 
Q 38.96875 64.796875 32.078125 64.796875 
z
M 9.8125 72.90625 
L 32.078125 72.90625 
Q 44.34375 72.90625 50.609375 67.359375 
Q 56.890625 61.8125 56.890625 51.125 
Q 56.890625 40.328125 50.609375 34.8125 
Q 44.34375 29.296875 32.078125 29.296875 
L 19.671875 29.296875 
L 19.671875 0 
L 9.8125 0 
z
" id="DejaVuSans-80"/>
      <path d="M 40.578125 39.3125 
Q 47.65625 37.796875 51.625 33 
Q 55.609375 28.21875 55.609375 21.1875 
Q 55.609375 10.40625 48.1875 4.484375 
Q 40.765625 -1.421875 27.09375 -1.421875 
Q 22.515625 -1.421875 17.65625 -0.515625 
Q 12.796875 0.390625 7.625 2.203125 
L 7.625 11.71875 
Q 11.71875 9.328125 16.59375 8.109375 
Q 21.484375 6.890625 26.8125 6.890625 
Q 36.078125 6.890625 40.9375 10.546875 
Q 45.796875 14.203125 45.796875 21.1875 
Q 45.796875 27.640625 41.28125 31.265625 
Q 36.765625 34.90625 28.71875 34.90625 
L 20.21875 34.90625 
L 20.21875 43.015625 
L 29.109375 43.015625 
Q 36.375 43.015625 40.234375 45.921875 
Q 44.09375 48.828125 44.09375 54.296875 
Q 44.09375 59.90625 40.109375 62.90625 
Q 36.140625 65.921875 28.71875 65.921875 
Q 24.65625 65.921875 20.015625 65.03125 
Q 15.375 64.15625 9.8125 62.3125 
L 9.8125 71.09375 
Q 15.4375 72.65625 20.34375 73.4375 
Q 25.25 74.21875 29.59375 74.21875 
Q 40.828125 74.21875 47.359375 69.109375 
Q 53.90625 64.015625 53.90625 55.328125 
Q 53.90625 49.265625 50.4375 45.09375 
Q 46.96875 40.921875 40.578125 39.3125 
z
" id="DejaVuSans-51"/>
      <path d="M 8.203125 72.90625 
L 55.078125 72.90625 
L 55.078125 68.703125 
L 28.609375 0 
L 18.3125 0 
L 43.21875 64.59375 
L 8.203125 64.59375 
z
" id="DejaVuSans-55"/>
     </defs>
     <g transform="translate(208.83125 38.916562)scale(0.1 -0.1)">
      <use xlink:href="#DejaVuSans-80"/>
      <use x="60.302734" xlink:href="#DejaVuSans-58"/>
      <use x="93.994141" xlink:href="#DejaVuSans-50"/>
      <use x="157.617188" xlink:href="#DejaVuSans-46"/>
      <use x="189.404297" xlink:href="#DejaVuSans-48"/>
      <use x="253.027344" xlink:href="#DejaVuSans-51"/>
      <use x="316.650391" xlink:href="#DejaVuSans-55"/>
     </g>
    </g>
    <g id="line2d_32">
     <path d="M 180.83125 50.094687 
L 200.83125 50.094687 
" style="fill:none;stroke:#ffffff;stroke-linecap:square;stroke-width:1.5;"/>
    </g>
    <g id="line2d_33"/>
    <g id="text_20">
     <!-- O2: 0.00045999999999999996 -->
     <defs>
      <path d="M 10.984375 1.515625 
L 10.984375 10.5 
Q 14.703125 8.734375 18.5 7.8125 
Q 22.3125 6.890625 25.984375 6.890625 
Q 35.75 6.890625 40.890625 13.453125 
Q 46.046875 20.015625 46.78125 33.40625 
Q 43.953125 29.203125 39.59375 26.953125 
Q 35.25 24.703125 29.984375 24.703125 
Q 19.046875 24.703125 12.671875 31.3125 
Q 6.296875 37.9375 6.296875 49.421875 
Q 6.296875 60.640625 12.9375 67.421875 
Q 19.578125 74.21875 30.609375 74.21875 
Q 43.265625 74.21875 49.921875 64.515625 
Q 56.59375 54.828125 56.59375 36.375 
Q 56.59375 19.140625 48.40625 8.859375 
Q 40.234375 -1.421875 26.421875 -1.421875 
Q 22.703125 -1.421875 18.890625 -0.6875 
Q 15.09375 0.046875 10.984375 1.515625 
z
M 30.609375 32.421875 
Q 37.25 32.421875 41.125 36.953125 
Q 45.015625 41.5 45.015625 49.421875 
Q 45.015625 57.28125 41.125 61.84375 
Q 37.25 66.40625 30.609375 66.40625 
Q 23.96875 66.40625 20.09375 61.84375 
Q 16.21875 57.28125 16.21875 49.421875 
Q 16.21875 41.5 20.09375 36.953125 
Q 23.96875 32.421875 30.609375 32.421875 
z
" id="DejaVuSans-57"/>
     </defs>
     <g transform="translate(208.83125 53.594687)scale(0.1 -0.1)">
      <use xlink:href="#DejaVuSans-79"/>
      <use x="78.710938" xlink:href="#DejaVuSans-50"/>
      <use x="142.333984" xlink:href="#DejaVuSans-58"/>
      <use x="176.025391" xlink:href="#DejaVuSans-32"/>
      <use x="207.8125" xlink:href="#DejaVuSans-48"/>
      <use x="271.435547" xlink:href="#DejaVuSans-46"/>
      <use x="303.222656" xlink:href="#DejaVuSans-48"/>
      <use x="366.845703" xlink:href="#DejaVuSans-48"/>
      <use x="430.46875" xlink:href="#DejaVuSans-48"/>
      <use x="494.091797" xlink:href="#DejaVuSans-52"/>
      <use x="557.714844" xlink:href="#DejaVuSans-53"/>
      <use x="621.337891" xlink:href="#DejaVuSans-57"/>
      <use x="684.960938" xlink:href="#DejaVuSans-57"/>
      <use x="748.583984" xlink:href="#DejaVuSans-57"/>
      <use x="812.207031" xlink:href="#DejaVuSans-57"/>
      <use x="875.830078" xlink:href="#DejaVuSans-57"/>
      <use x="939.453125" xlink:href="#DejaVuSans-57"/>
      <use x="1003.076172" xlink:href="#DejaVuSans-57"/>
      <use x="1066.699219" xlink:href="#DejaVuSans-57"/>
      <use x="1130.322266" xlink:href="#DejaVuSans-57"/>
      <use x="1193.945312" xlink:href="#DejaVuSans-57"/>
      <use x="1257.568359" xlink:href="#DejaVuSans-57"/>
      <use x="1321.191406" xlink:href="#DejaVuSans-57"/>
      <use x="1384.814453" xlink:href="#DejaVuSans-57"/>
      <use x="1448.4375" xlink:href="#DejaVuSans-57"/>
      <use x="1512.060547" xlink:href="#DejaVuSans-54"/>
     </g>
    </g>
    <g id="line2d_34">
     <path d="M 180.83125 64.772812 
L 200.83125 64.772812 
" style="fill:none;stroke:#ffffff;stroke-linecap:square;stroke-width:1.5;"/>
    </g>
    <g id="line2d_35"/>
    <g id="text_21">
     <!-- H2: 0.00461 -->
     <g transform="translate(208.83125 68.272812)scale(0.1 -0.1)">
      <use xlink:href="#DejaVuSans-72"/>
      <use x="75.195312" xlink:href="#DejaVuSans-50"/>
      <use x="138.818359" xlink:href="#DejaVuSans-58"/>
      <use x="172.509766" xlink:href="#DejaVuSans-32"/>
      <use x="204.296875" xlink:href="#DejaVuSans-48"/>
      <use x="267.919922" xlink:href="#DejaVuSans-46"/>
      <use x="299.707031" xlink:href="#DejaVuSans-48"/>
      <use x="363.330078" xlink:href="#DejaVuSans-48"/>
      <use x="426.953125" xlink:href="#DejaVuSans-52"/>
      <use x="490.576172" xlink:href="#DejaVuSans-54"/>
      <use x="554.199219" xlink:href="#DejaVuSans-49"/>
     </g>
    </g>
    <g id="line2d_36">
     <path d="M 180.83125 79.450937 
L 200.83125 79.450937 
" style="fill:none;stroke:#ffffff;stroke-linecap:square;stroke-width:1.5;"/>
    </g>
    <g id="line2d_37"/>
    <g id="text_22">
     <!-- Ar: 0.99493 -->
     <defs>
      <path d="M 34.1875 63.1875 
L 20.796875 26.90625 
L 47.609375 26.90625 
z
M 28.609375 72.90625 
L 39.796875 72.90625 
L 67.578125 0 
L 57.328125 0 
L 50.6875 18.703125 
L 17.828125 18.703125 
L 11.1875 0 
L 0.78125 0 
z
" id="DejaVuSans-65"/>
     </defs>
     <g transform="translate(208.83125 82.950937)scale(0.1 -0.1)">
      <use xlink:href="#DejaVuSans-65"/>
      <use x="68.408203" xlink:href="#DejaVuSans-114"/>
      <use x="109.505859" xlink:href="#DejaVuSans-58"/>
      <use x="143.197266" xlink:href="#DejaVuSans-32"/>
      <use x="174.984375" xlink:href="#DejaVuSans-48"/>
      <use x="238.607422" xlink:href="#DejaVuSans-46"/>
      <use x="270.394531" xlink:href="#DejaVuSans-57"/>
      <use x="334.017578" xlink:href="#DejaVuSans-57"/>
      <use x="397.640625" xlink:href="#DejaVuSans-52"/>
      <use x="461.263672" xlink:href="#DejaVuSans-57"/>
      <use x="524.886719" xlink:href="#DejaVuSans-51"/>
     </g>
    </g>
   </g>
  </g>
 </g>
 <defs>
  <clipPath id="pe62c03b850">
   <rect height="217.44" width="334.8" x="40.603125" y="22.318125"/>
  </clipPath>
 </defs>
</svg>
