<?xml version="1.0" encoding="utf-8" standalone="no"?>
<!DOCTYPE svg PUBLIC "-//W3C//DTD SVG 1.1//EN"
  "http://www.w3.org/Graphics/SVG/1.1/DTD/svg11.dtd">
<!-- Created with matplotlib (https://matplotlib.org/) -->
<svg height="273.814375pt" version="1.1" viewBox="0 0 393.8 273.814375" width="393.8pt" xmlns="http://www.w3.org/2000/svg" xmlns:xlink="http://www.w3.org/1999/xlink">
 <defs>
  <style type="text/css">
*{stroke-linecap:butt;stroke-linejoin:round;}
  </style>
 </defs>
 <g id="figure_1">
  <g id="patch_1">
   <path d="M 0 273.814375 
L 393.8 273.814375 
L 393.8 0 
L 0 0 
z
" style="fill:#ffffff;"/>
  </g>
  <g id="axes_1">
   <g id="patch_2">
    <path d="M 51.8 239.758125 
L 386.6 239.758125 
L 386.6 22.318125 
L 51.8 22.318125 
z
" style="fill:#ffffff;"/>
   </g>
   <g id="matplotlib.axis_1">
    <g id="xtick_1">
     <g id="line2d_1">
      <defs>
       <path d="M 0 0 
L 0 -3.5 
" id="mb0730b00f3" style="stroke:#000000;stroke-width:0.8;"/>
      </defs>
      <g>
       <use style="stroke:#000000;stroke-width:0.8;" x="106.717787" xlink:href="#mb0730b00f3" y="239.758125"/>
      </g>
     </g>
     <g id="text_1">
      <!-- 500 -->
      <defs>
       <path d="M 10.796875 72.90625 
L 49.515625 72.90625 
L 49.515625 64.59375 
L 19.828125 64.59375 
L 19.828125 46.734375 
Q 21.96875 47.46875 24.109375 47.828125 
Q 26.265625 48.1875 28.421875 48.1875 
Q 40.625 48.1875 47.75 41.5 
Q 54.890625 34.8125 54.890625 23.390625 
Q 54.890625 11.625 47.5625 5.09375 
Q 40.234375 -1.421875 26.90625 -1.421875 
Q 22.3125 -1.421875 17.546875 -0.640625 
Q 12.796875 0.140625 7.71875 1.703125 
L 7.71875 11.625 
Q 12.109375 9.234375 16.796875 8.0625 
Q 21.484375 6.890625 26.703125 6.890625 
Q 35.15625 6.890625 40.078125 11.328125 
Q 45.015625 15.765625 45.015625 23.390625 
Q 45.015625 31 40.078125 35.4375 
Q 35.15625 39.890625 26.703125 39.890625 
Q 22.75 39.890625 18.8125 39.015625 
Q 14.890625 38.140625 10.796875 36.28125 
z
" id="DejaVuSans-53"/>
       <path d="M 31.78125 66.40625 
Q 24.171875 66.40625 20.328125 58.90625 
Q 16.5 51.421875 16.5 36.375 
Q 16.5 21.390625 20.328125 13.890625 
Q 24.171875 6.390625 31.78125 6.390625 
Q 39.453125 6.390625 43.28125 13.890625 
Q 47.125 21.390625 47.125 36.375 
Q 47.125 51.421875 43.28125 58.90625 
Q 39.453125 66.40625 31.78125 66.40625 
z
M 31.78125 74.21875 
Q 44.046875 74.21875 50.515625 64.515625 
Q 56.984375 54.828125 56.984375 36.375 
Q 56.984375 17.96875 50.515625 8.265625 
Q 44.046875 -1.421875 31.78125 -1.421875 
Q 19.53125 -1.421875 13.0625 8.265625 
Q 6.59375 17.96875 6.59375 36.375 
Q 6.59375 54.828125 13.0625 64.515625 
Q 19.53125 74.21875 31.78125 74.21875 
z
" id="DejaVuSans-48"/>
      </defs>
      <g transform="translate(97.174037 250.856563)scale(0.1 -0.1)">
       <use xlink:href="#DejaVuSans-53"/>
       <use x="63.623047" xlink:href="#DejaVuSans-48"/>
       <use x="127.246094" xlink:href="#DejaVuSans-48"/>
      </g>
     </g>
    </g>
    <g id="xtick_2">
     <g id="line2d_2">
      <g>
       <use style="stroke:#000000;stroke-width:0.8;" x="172.883794" xlink:href="#mb0730b00f3" y="239.758125"/>
      </g>
     </g>
     <g id="text_2">
      <!-- 1000 -->
      <defs>
       <path d="M 12.40625 8.296875 
L 28.515625 8.296875 
L 28.515625 63.921875 
L 10.984375 60.40625 
L 10.984375 69.390625 
L 28.421875 72.90625 
L 38.28125 72.90625 
L 38.28125 8.296875 
L 54.390625 8.296875 
L 54.390625 0 
L 12.40625 0 
z
" id="DejaVuSans-49"/>
      </defs>
      <g transform="translate(160.158794 250.856563)scale(0.1 -0.1)">
       <use xlink:href="#DejaVuSans-49"/>
       <use x="63.623047" xlink:href="#DejaVuSans-48"/>
       <use x="127.246094" xlink:href="#DejaVuSans-48"/>
       <use x="190.869141" xlink:href="#DejaVuSans-48"/>
      </g>
     </g>
    </g>
    <g id="xtick_3">
     <g id="line2d_3">
      <g>
       <use style="stroke:#000000;stroke-width:0.8;" x="239.049802" xlink:href="#mb0730b00f3" y="239.758125"/>
      </g>
     </g>
     <g id="text_3">
      <!-- 1500 -->
      <g transform="translate(226.324802 250.856563)scale(0.1 -0.1)">
       <use xlink:href="#DejaVuSans-49"/>
       <use x="63.623047" xlink:href="#DejaVuSans-53"/>
       <use x="127.246094" xlink:href="#DejaVuSans-48"/>
       <use x="190.869141" xlink:href="#DejaVuSans-48"/>
      </g>
     </g>
    </g>
    <g id="xtick_4">
     <g id="line2d_4">
      <g>
       <use style="stroke:#000000;stroke-width:0.8;" x="305.21581" xlink:href="#mb0730b00f3" y="239.758125"/>
      </g>
     </g>
     <g id="text_4">
      <!-- 2000 -->
      <defs>
       <path d="M 19.1875 8.296875 
L 53.609375 8.296875 
L 53.609375 0 
L 7.328125 0 
L 7.328125 8.296875 
Q 12.9375 14.109375 22.625 23.890625 
Q 32.328125 33.6875 34.8125 36.53125 
Q 39.546875 41.84375 41.421875 45.53125 
Q 43.3125 49.21875 43.3125 52.78125 
Q 43.3125 58.59375 39.234375 62.25 
Q 35.15625 65.921875 28.609375 65.921875 
Q 23.96875 65.921875 18.8125 64.3125 
Q 13.671875 62.703125 7.8125 59.421875 
L 7.8125 69.390625 
Q 13.765625 71.78125 18.9375 73 
Q 24.125 74.21875 28.421875 74.21875 
Q 39.75 74.21875 46.484375 68.546875 
Q 53.21875 62.890625 53.21875 53.421875 
Q 53.21875 48.921875 51.53125 44.890625 
Q 49.859375 40.875 45.40625 35.40625 
Q 44.1875 33.984375 37.640625 27.21875 
Q 31.109375 20.453125 19.1875 8.296875 
z
" id="DejaVuSans-50"/>
      </defs>
      <g transform="translate(292.49081 250.856563)scale(0.1 -0.1)">
       <use xlink:href="#DejaVuSans-50"/>
       <use x="63.623047" xlink:href="#DejaVuSans-48"/>
       <use x="127.246094" xlink:href="#DejaVuSans-48"/>
       <use x="190.869141" xlink:href="#DejaVuSans-48"/>
      </g>
     </g>
    </g>
    <g id="xtick_5">
     <g id="line2d_5">
      <g>
       <use style="stroke:#000000;stroke-width:0.8;" x="371.381818" xlink:href="#mb0730b00f3" y="239.758125"/>
      </g>
     </g>
     <g id="text_5">
      <!-- 2500 -->
      <g transform="translate(358.656818 250.856563)scale(0.1 -0.1)">
       <use xlink:href="#DejaVuSans-50"/>
       <use x="63.623047" xlink:href="#DejaVuSans-53"/>
       <use x="127.246094" xlink:href="#DejaVuSans-48"/>
       <use x="190.869141" xlink:href="#DejaVuSans-48"/>
      </g>
     </g>
    </g>
    <g id="text_6">
     <!-- Temperature [K] -->
     <defs>
      <path d="M -0.296875 72.90625 
L 61.375 72.90625 
L 61.375 64.59375 
L 35.5 64.59375 
L 35.5 0 
L 25.59375 0 
L 25.59375 64.59375 
L -0.296875 64.59375 
z
" id="DejaVuSans-84"/>
      <path d="M 56.203125 29.59375 
L 56.203125 25.203125 
L 14.890625 25.203125 
Q 15.484375 15.921875 20.484375 11.0625 
Q 25.484375 6.203125 34.421875 6.203125 
Q 39.59375 6.203125 44.453125 7.46875 
Q 49.3125 8.734375 54.109375 11.28125 
L 54.109375 2.78125 
Q 49.265625 0.734375 44.1875 -0.34375 
Q 39.109375 -1.421875 33.890625 -1.421875 
Q 20.796875 -1.421875 13.15625 6.1875 
Q 5.515625 13.8125 5.515625 26.8125 
Q 5.515625 40.234375 12.765625 48.109375 
Q 20.015625 56 32.328125 56 
Q 43.359375 56 49.78125 48.890625 
Q 56.203125 41.796875 56.203125 29.59375 
z
M 47.21875 32.234375 
Q 47.125 39.59375 43.09375 43.984375 
Q 39.0625 48.390625 32.421875 48.390625 
Q 24.90625 48.390625 20.390625 44.140625 
Q 15.875 39.890625 15.1875 32.171875 
z
" id="DejaVuSans-101"/>
      <path d="M 52 44.1875 
Q 55.375 50.25 60.0625 53.125 
Q 64.75 56 71.09375 56 
Q 79.640625 56 84.28125 50.015625 
Q 88.921875 44.046875 88.921875 33.015625 
L 88.921875 0 
L 79.890625 0 
L 79.890625 32.71875 
Q 79.890625 40.578125 77.09375 44.375 
Q 74.3125 48.1875 68.609375 48.1875 
Q 61.625 48.1875 57.5625 43.546875 
Q 53.515625 38.921875 53.515625 30.90625 
L 53.515625 0 
L 44.484375 0 
L 44.484375 32.71875 
Q 44.484375 40.625 41.703125 44.40625 
Q 38.921875 48.1875 33.109375 48.1875 
Q 26.21875 48.1875 22.15625 43.53125 
Q 18.109375 38.875 18.109375 30.90625 
L 18.109375 0 
L 9.078125 0 
L 9.078125 54.6875 
L 18.109375 54.6875 
L 18.109375 46.1875 
Q 21.1875 51.21875 25.484375 53.609375 
Q 29.78125 56 35.6875 56 
Q 41.65625 56 45.828125 52.96875 
Q 50 49.953125 52 44.1875 
z
" id="DejaVuSans-109"/>
      <path d="M 18.109375 8.203125 
L 18.109375 -20.796875 
L 9.078125 -20.796875 
L 9.078125 54.6875 
L 18.109375 54.6875 
L 18.109375 46.390625 
Q 20.953125 51.265625 25.265625 53.625 
Q 29.59375 56 35.59375 56 
Q 45.5625 56 51.78125 48.09375 
Q 58.015625 40.1875 58.015625 27.296875 
Q 58.015625 14.40625 51.78125 6.484375 
Q 45.5625 -1.421875 35.59375 -1.421875 
Q 29.59375 -1.421875 25.265625 0.953125 
Q 20.953125 3.328125 18.109375 8.203125 
z
M 48.6875 27.296875 
Q 48.6875 37.203125 44.609375 42.84375 
Q 40.53125 48.484375 33.40625 48.484375 
Q 26.265625 48.484375 22.1875 42.84375 
Q 18.109375 37.203125 18.109375 27.296875 
Q 18.109375 17.390625 22.1875 11.75 
Q 26.265625 6.109375 33.40625 6.109375 
Q 40.53125 6.109375 44.609375 11.75 
Q 48.6875 17.390625 48.6875 27.296875 
z
" id="DejaVuSans-112"/>
      <path d="M 41.109375 46.296875 
Q 39.59375 47.171875 37.8125 47.578125 
Q 36.03125 48 33.890625 48 
Q 26.265625 48 22.1875 43.046875 
Q 18.109375 38.09375 18.109375 28.8125 
L 18.109375 0 
L 9.078125 0 
L 9.078125 54.6875 
L 18.109375 54.6875 
L 18.109375 46.1875 
Q 20.953125 51.171875 25.484375 53.578125 
Q 30.03125 56 36.53125 56 
Q 37.453125 56 38.578125 55.875 
Q 39.703125 55.765625 41.0625 55.515625 
z
" id="DejaVuSans-114"/>
      <path d="M 34.28125 27.484375 
Q 23.390625 27.484375 19.1875 25 
Q 14.984375 22.515625 14.984375 16.5 
Q 14.984375 11.71875 18.140625 8.90625 
Q 21.296875 6.109375 26.703125 6.109375 
Q 34.1875 6.109375 38.703125 11.40625 
Q 43.21875 16.703125 43.21875 25.484375 
L 43.21875 27.484375 
z
M 52.203125 31.203125 
L 52.203125 0 
L 43.21875 0 
L 43.21875 8.296875 
Q 40.140625 3.328125 35.546875 0.953125 
Q 30.953125 -1.421875 24.3125 -1.421875 
Q 15.921875 -1.421875 10.953125 3.296875 
Q 6 8.015625 6 15.921875 
Q 6 25.140625 12.171875 29.828125 
Q 18.359375 34.515625 30.609375 34.515625 
L 43.21875 34.515625 
L 43.21875 35.40625 
Q 43.21875 41.609375 39.140625 45 
Q 35.0625 48.390625 27.6875 48.390625 
Q 23 48.390625 18.546875 47.265625 
Q 14.109375 46.140625 10.015625 43.890625 
L 10.015625 52.203125 
Q 14.9375 54.109375 19.578125 55.046875 
Q 24.21875 56 28.609375 56 
Q 40.484375 56 46.34375 49.84375 
Q 52.203125 43.703125 52.203125 31.203125 
z
" id="DejaVuSans-97"/>
      <path d="M 18.3125 70.21875 
L 18.3125 54.6875 
L 36.8125 54.6875 
L 36.8125 47.703125 
L 18.3125 47.703125 
L 18.3125 18.015625 
Q 18.3125 11.328125 20.140625 9.421875 
Q 21.96875 7.515625 27.59375 7.515625 
L 36.8125 7.515625 
L 36.8125 0 
L 27.59375 0 
Q 17.1875 0 13.234375 3.875 
Q 9.28125 7.765625 9.28125 18.015625 
L 9.28125 47.703125 
L 2.6875 47.703125 
L 2.6875 54.6875 
L 9.28125 54.6875 
L 9.28125 70.21875 
z
" id="DejaVuSans-116"/>
      <path d="M 8.5 21.578125 
L 8.5 54.6875 
L 17.484375 54.6875 
L 17.484375 21.921875 
Q 17.484375 14.15625 20.5 10.265625 
Q 23.53125 6.390625 29.59375 6.390625 
Q 36.859375 6.390625 41.078125 11.03125 
Q 45.3125 15.671875 45.3125 23.6875 
L 45.3125 54.6875 
L 54.296875 54.6875 
L 54.296875 0 
L 45.3125 0 
L 45.3125 8.40625 
Q 42.046875 3.421875 37.71875 1 
Q 33.40625 -1.421875 27.6875 -1.421875 
Q 18.265625 -1.421875 13.375 4.4375 
Q 8.5 10.296875 8.5 21.578125 
z
M 31.109375 56 
z
" id="DejaVuSans-117"/>
      <path id="DejaVuSans-32"/>
      <path d="M 8.59375 75.984375 
L 29.296875 75.984375 
L 29.296875 69 
L 17.578125 69 
L 17.578125 -6.203125 
L 29.296875 -6.203125 
L 29.296875 -13.1875 
L 8.59375 -13.1875 
z
" id="DejaVuSans-91"/>
      <path d="M 9.8125 72.90625 
L 19.671875 72.90625 
L 19.671875 42.09375 
L 52.390625 72.90625 
L 65.09375 72.90625 
L 28.90625 38.921875 
L 67.671875 0 
L 54.6875 0 
L 19.671875 35.109375 
L 19.671875 0 
L 9.8125 0 
z
" id="DejaVuSans-75"/>
      <path d="M 30.421875 75.984375 
L 30.421875 -13.1875 
L 9.71875 -13.1875 
L 9.71875 -6.203125 
L 21.390625 -6.203125 
L 21.390625 69 
L 9.71875 69 
L 9.71875 75.984375 
z
" id="DejaVuSans-93"/>
     </defs>
     <g transform="translate(177.813281 264.534688)scale(0.1 -0.1)">
      <use xlink:href="#DejaVuSans-84"/>
      <use x="60.818359" xlink:href="#DejaVuSans-101"/>
      <use x="122.341797" xlink:href="#DejaVuSans-109"/>
      <use x="219.753906" xlink:href="#DejaVuSans-112"/>
      <use x="283.230469" xlink:href="#DejaVuSans-101"/>
      <use x="344.753906" xlink:href="#DejaVuSans-114"/>
      <use x="385.867188" xlink:href="#DejaVuSans-97"/>
      <use x="447.146484" xlink:href="#DejaVuSans-116"/>
      <use x="486.355469" xlink:href="#DejaVuSans-117"/>
      <use x="549.734375" xlink:href="#DejaVuSans-114"/>
      <use x="590.816406" xlink:href="#DejaVuSans-101"/>
      <use x="652.339844" xlink:href="#DejaVuSans-32"/>
      <use x="684.126953" xlink:href="#DejaVuSans-91"/>
      <use x="723.140625" xlink:href="#DejaVuSans-75"/>
      <use x="788.716797" xlink:href="#DejaVuSans-93"/>
     </g>
    </g>
   </g>
   <g id="matplotlib.axis_2">
    <g id="ytick_1">
     <g id="line2d_6">
      <defs>
       <path d="M 0 0 
L 3.5 0 
" id="m289dfa1ef1" style="stroke:#000000;stroke-width:0.8;"/>
      </defs>
      <g>
       <use style="stroke:#000000;stroke-width:0.8;" x="51.8" xlink:href="#m289dfa1ef1" y="114.932622"/>
      </g>
     </g>
     <g id="text_7">
      <!-- $\mathdefault{10^{12}}$ -->
      <g transform="translate(26.2 118.73184)scale(0.1 -0.1)">
       <use transform="translate(0 0.765625)" xlink:href="#DejaVuSans-49"/>
       <use transform="translate(63.623047 0.765625)" xlink:href="#DejaVuSans-48"/>
       <use transform="translate(128.203125 39.046875)scale(0.7)" xlink:href="#DejaVuSans-49"/>
       <use transform="translate(172.739258 39.046875)scale(0.7)" xlink:href="#DejaVuSans-50"/>
      </g>
     </g>
    </g>
    <g id="ytick_2">
     <g id="line2d_7">
      <defs>
       <path d="M 0 0 
L 2 0 
" id="m02a4780db3" style="stroke:#000000;stroke-width:0.6;"/>
      </defs>
      <g>
       <use style="stroke:#000000;stroke-width:0.6;" x="51.8" xlink:href="#m02a4780db3" y="235.402525"/>
      </g>
     </g>
    </g>
    <g id="ytick_3">
     <g id="line2d_8">
      <g>
       <use style="stroke:#000000;stroke-width:0.6;" x="51.8" xlink:href="#m02a4780db3" y="205.052586"/>
      </g>
     </g>
    </g>
    <g id="ytick_4">
     <g id="line2d_9">
      <g>
       <use style="stroke:#000000;stroke-width:0.6;" x="51.8" xlink:href="#m02a4780db3" y="183.518961"/>
      </g>
     </g>
    </g>
    <g id="ytick_5">
     <g id="line2d_10">
      <g>
       <use style="stroke:#000000;stroke-width:0.6;" x="51.8" xlink:href="#m02a4780db3" y="166.816185"/>
      </g>
     </g>
    </g>
    <g id="ytick_6">
     <g id="line2d_11">
      <g>
       <use style="stroke:#000000;stroke-width:0.6;" x="51.8" xlink:href="#m02a4780db3" y="153.169023"/>
      </g>
     </g>
    </g>
    <g id="ytick_7">
     <g id="line2d_12">
      <g>
       <use style="stroke:#000000;stroke-width:0.6;" x="51.8" xlink:href="#m02a4780db3" y="141.630511"/>
      </g>
     </g>
    </g>
    <g id="ytick_8">
     <g id="line2d_13">
      <g>
       <use style="stroke:#000000;stroke-width:0.6;" x="51.8" xlink:href="#m02a4780db3" y="131.635398"/>
      </g>
     </g>
    </g>
    <g id="ytick_9">
     <g id="line2d_14">
      <g>
       <use style="stroke:#000000;stroke-width:0.6;" x="51.8" xlink:href="#m02a4780db3" y="122.819084"/>
      </g>
     </g>
    </g>
    <g id="ytick_10">
     <g id="line2d_15">
      <g>
       <use style="stroke:#000000;stroke-width:0.6;" x="51.8" xlink:href="#m02a4780db3" y="63.049059"/>
      </g>
     </g>
    </g>
    <g id="ytick_11">
     <g id="line2d_16">
      <g>
       <use style="stroke:#000000;stroke-width:0.6;" x="51.8" xlink:href="#m02a4780db3" y="32.69912"/>
      </g>
     </g>
    </g>
    <g id="text_8">
     <!-- k [$\frac{cm^3}{{mol s}}$] -->
     <defs>
      <path d="M 9.078125 75.984375 
L 18.109375 75.984375 
L 18.109375 31.109375 
L 44.921875 54.6875 
L 56.390625 54.6875 
L 27.390625 29.109375 
L 57.625 0 
L 45.90625 0 
L 18.109375 26.703125 
L 18.109375 0 
L 9.078125 0 
z
" id="DejaVuSans-107"/>
      <path d="M 53.609375 52.59375 
L 51.8125 43.703125 
Q 48.578125 46.046875 44.9375 47.21875 
Q 41.3125 48.390625 37.40625 48.390625 
Q 33.109375 48.390625 29.21875 46.875 
Q 25.34375 45.359375 22.703125 42.578125 
Q 18.5 38.328125 16.203125 32.609375 
Q 13.921875 26.90625 13.921875 20.796875 
Q 13.921875 13.421875 17.609375 9.8125 
Q 21.296875 6.203125 28.8125 6.203125 
Q 32.515625 6.203125 36.6875 7.328125 
Q 40.875 8.453125 45.40625 10.6875 
L 43.703125 1.8125 
Q 39.796875 0.203125 35.671875 -0.609375 
Q 31.546875 -1.421875 27.203125 -1.421875 
Q 16.3125 -1.421875 10.453125 4.015625 
Q 4.59375 9.46875 4.59375 19.578125 
Q 4.59375 28.078125 7.640625 35.234375 
Q 10.6875 42.390625 16.703125 48.09375 
Q 20.796875 52 26.3125 54 
Q 31.84375 56 38.375 56 
Q 42.1875 56 45.9375 55.140625 
Q 49.703125 54.296875 53.609375 52.59375 
z
" id="DejaVuSans-Oblique-99"/>
      <path d="M 89.796875 33.015625 
L 83.40625 0 
L 74.421875 0 
L 80.71875 32.71875 
Q 81.109375 34.8125 81.296875 36.328125 
Q 81.5 37.84375 81.5 38.921875 
Q 81.5 43.3125 79.046875 45.75 
Q 76.609375 48.1875 72.21875 48.1875 
Q 65.671875 48.1875 60.546875 43.28125 
Q 55.421875 38.375 53.90625 30.515625 
L 47.90625 0 
L 38.921875 0 
L 45.3125 32.71875 
Q 45.703125 34.515625 45.890625 36.046875 
Q 46.09375 37.59375 46.09375 38.8125 
Q 46.09375 43.265625 43.65625 45.71875 
Q 41.21875 48.1875 36.921875 48.1875 
Q 30.28125 48.1875 25.140625 43.28125 
Q 20.015625 38.375 18.5 30.515625 
L 12.5 0 
L 3.515625 0 
L 14.203125 54.6875 
L 23.1875 54.6875 
L 21.484375 46.1875 
Q 25.140625 50.984375 30.046875 53.484375 
Q 34.96875 56 40.578125 56 
Q 46.53125 56 50.359375 52.875 
Q 54.203125 49.75 54.984375 44.1875 
Q 59.078125 49.953125 64.46875 52.96875 
Q 69.875 56 75.875 56 
Q 82.90625 56 86.734375 51.953125 
Q 90.578125 47.90625 90.578125 40.484375 
Q 90.578125 38.875 90.375 36.9375 
Q 90.1875 35.015625 89.796875 33.015625 
z
" id="DejaVuSans-Oblique-109"/>
      <path d="M 40.578125 39.3125 
Q 47.65625 37.796875 51.625 33 
Q 55.609375 28.21875 55.609375 21.1875 
Q 55.609375 10.40625 48.1875 4.484375 
Q 40.765625 -1.421875 27.09375 -1.421875 
Q 22.515625 -1.421875 17.65625 -0.515625 
Q 12.796875 0.390625 7.625 2.203125 
L 7.625 11.71875 
Q 11.71875 9.328125 16.59375 8.109375 
Q 21.484375 6.890625 26.8125 6.890625 
Q 36.078125 6.890625 40.9375 10.546875 
Q 45.796875 14.203125 45.796875 21.1875 
Q 45.796875 27.640625 41.28125 31.265625 
Q 36.765625 34.90625 28.71875 34.90625 
L 20.21875 34.90625 
L 20.21875 43.015625 
L 29.109375 43.015625 
Q 36.375 43.015625 40.234375 45.921875 
Q 44.09375 48.828125 44.09375 54.296875 
Q 44.09375 59.90625 40.109375 62.90625 
Q 36.140625 65.921875 28.71875 65.921875 
Q 24.65625 65.921875 20.015625 65.03125 
Q 15.375 64.15625 9.8125 62.3125 
L 9.8125 71.09375 
Q 15.4375 72.65625 20.34375 73.4375 
Q 25.25 74.21875 29.59375 74.21875 
Q 40.828125 74.21875 47.359375 69.109375 
Q 53.90625 64.015625 53.90625 55.328125 
Q 53.90625 49.265625 50.4375 45.09375 
Q 46.96875 40.921875 40.578125 39.3125 
z
" id="DejaVuSans-51"/>
      <path d="M 25.390625 -1.421875 
Q 15.765625 -1.421875 10.171875 4.515625 
Q 4.59375 10.453125 4.59375 20.703125 
Q 4.59375 26.65625 6.515625 32.828125 
Q 8.453125 39.015625 11.53125 43.21875 
Q 16.359375 49.75 22.3125 52.875 
Q 28.265625 56 35.796875 56 
Q 45.125 56 50.859375 50.1875 
Q 56.59375 44.390625 56.59375 35.015625 
Q 56.59375 28.515625 54.6875 22.0625 
Q 52.78125 15.625 49.703125 11.375 
Q 44.921875 4.828125 38.96875 1.703125 
Q 33.015625 -1.421875 25.390625 -1.421875 
z
M 13.921875 21 
Q 13.921875 13.578125 17.015625 9.890625 
Q 20.125 6.203125 26.421875 6.203125 
Q 35.453125 6.203125 41.375 14.078125 
Q 47.3125 21.96875 47.3125 34.078125 
Q 47.3125 41.15625 44.140625 44.765625 
Q 40.96875 48.390625 34.8125 48.390625 
Q 29.734375 48.390625 25.78125 46.015625 
Q 21.828125 43.65625 18.703125 38.8125 
Q 16.40625 35.203125 15.15625 30.5625 
Q 13.921875 25.921875 13.921875 21 
z
" id="DejaVuSans-Oblique-111"/>
      <path d="M 18.3125 75.984375 
L 27.296875 75.984375 
L 12.5 0 
L 3.515625 0 
z
" id="DejaVuSans-Oblique-108"/>
      <path d="M 50 53.078125 
L 48.296875 44.578125 
Q 44.734375 46.53125 40.765625 47.5 
Q 36.8125 48.484375 32.625 48.484375 
Q 25.53125 48.484375 21.453125 46.0625 
Q 17.390625 43.65625 17.390625 39.5 
Q 17.390625 34.671875 26.859375 32.078125 
Q 27.59375 31.890625 27.9375 31.78125 
L 30.8125 30.90625 
Q 39.796875 28.421875 42.796875 25.6875 
Q 45.796875 22.953125 45.796875 18.21875 
Q 45.796875 9.515625 38.890625 4.046875 
Q 31.984375 -1.421875 20.796875 -1.421875 
Q 16.453125 -1.421875 11.671875 -0.578125 
Q 6.890625 0.25 1.125 2 
L 2.875 11.28125 
Q 7.8125 8.734375 12.59375 7.421875 
Q 17.390625 6.109375 21.78125 6.109375 
Q 28.375 6.109375 32.5 8.9375 
Q 36.625 11.765625 36.625 16.109375 
Q 36.625 20.796875 25.78125 23.6875 
L 24.859375 23.921875 
L 21.78125 24.703125 
Q 14.9375 26.515625 11.765625 29.46875 
Q 8.59375 32.421875 8.59375 37.015625 
Q 8.59375 45.75 15.15625 50.875 
Q 21.734375 56 33.015625 56 
Q 37.453125 56 41.671875 55.265625 
Q 45.90625 54.546875 50 53.078125 
z
" id="DejaVuSans-Oblique-115"/>
     </defs>
     <g transform="translate(18 148.438125)rotate(-90)scale(0.1 -0.1)">
      <use transform="translate(0 0.04375)" xlink:href="#DejaVuSans-107"/>
      <use transform="translate(57.910156 0.04375)" xlink:href="#DejaVuSans-32"/>
      <use transform="translate(89.697266 0.04375)" xlink:href="#DejaVuSans-91"/>
      <use transform="translate(140.710938 44.835938)scale(0.7)" xlink:href="#DejaVuSans-Oblique-99"/>
      <use transform="translate(179.197266 44.835938)scale(0.7)" xlink:href="#DejaVuSans-Oblique-109"/>
      <use transform="translate(250.640669 71.632812)scale(0.49)" xlink:href="#DejaVuSans-51"/>
      <use transform="translate(128.710938 -40.598437)scale(0.7)" xlink:href="#DejaVuSans-Oblique-109"/>
      <use transform="translate(196.899414 -40.598437)scale(0.7)" xlink:href="#DejaVuSans-Oblique-111"/>
      <use transform="translate(239.726562 -40.598437)scale(0.7)" xlink:href="#DejaVuSans-Oblique-108"/>
      <use transform="translate(259.174805 -40.598437)scale(0.7)" xlink:href="#DejaVuSans-Oblique-115"/>
      <use transform="translate(308.144531 0.04375)" xlink:href="#DejaVuSans-93"/>
      <path d="M 128.710938 18.840625 
L 128.710938 25.090625 
L 295.644531 25.090625 
L 295.644531 18.840625 
L 128.710938 18.840625 
z
"/>
     </g>
    </g>
   </g>
   <g id="line2d_17">
    <path clip-path="url(#p3d8769a57a)" d="M 73.634783 131.891885 
L 76.016759 145.536115 
L 78.266403 157.128338 
L 80.383715 166.912785 
L 82.501028 175.665003 
L 84.61834 183.459193 
L 86.735652 190.374344 
L 88.720632 196.128374 
L 90.705613 201.239561 
L 92.690593 205.764935 
L 94.675573 209.75701 
L 96.660553 213.263741 
L 98.645534 216.328701 
L 100.630514 218.991344 
L 102.615494 221.287336 
L 104.600474 223.248885 
L 106.585455 224.90507 
L 108.570435 226.28215 
L 110.555415 227.403856 
L 112.672727 228.343004 
L 114.79004 229.039489 
L 117.039684 229.537258 
L 119.289328 229.807784 
L 121.671304 229.869274 
L 124.185613 229.706749 
L 126.832253 229.307987 
L 129.611225 228.663447 
L 132.654862 227.720352 
L 135.83083 226.501404 
L 139.271462 224.942208 
L 142.976759 223.020105 
L 147.079051 220.637623 
L 151.57834 217.761879 
L 156.606957 214.274655 
L 162.164901 210.144298 
L 168.516838 205.139986 
L 175.927431 199.007879 
L 184.926008 191.257522 
L 196.835889 180.682425 
L 243.152095 139.259842 
L 255.194308 128.95092 
L 266.177866 119.839166 
L 276.367431 111.669997 
L 286.16 104.102662 
L 295.555573 97.123526 
L 304.55415 90.7137 
L 313.288063 84.762432 
L 321.757312 79.256759 
L 330.094229 74.102093 
L 338.166482 69.370232 
L 346.106403 64.972475 
L 353.913992 60.903196 
L 361.589249 57.156061 
L 368.999842 53.782162 
L 371.249486 52.806223 
L 371.249486 52.806223 
" style="fill:none;stroke:#0000ff;stroke-linecap:square;stroke-width:1.5;"/>
   </g>
   <g id="line2d_18">
    <path clip-path="url(#p3d8769a57a)" d="M 67.018182 88.344184 
L 73.634783 131.891563 
L 79.986719 165.158581 
L 79.986719 165.158581 
L 80.251383 166.3319 
L 82.501028 175.664691 
L 84.221344 182.066824 
L 86.206324 188.72334 
L 86.867984 190.778844 
L 87.92664 193.906936 
L 90.837945 201.558567 
L 93.484585 207.422671 
L 94.410909 209.253473 
L 95.866561 211.916103 
L 96.792885 213.481056 
L 100.101186 218.318262 
L 100.762846 219.155141 
L 106.717787 225.00498 
L 108.041107 225.940533 
L 113.334387 228.58538 
L 116.907352 229.514173 
L 119.950988 229.846834 
L 122.994625 229.811082 
L 126.567589 229.357381 
L 130.140553 228.516152 
L 133.18419 227.532759 
L 136.227826 226.333261 
L 139.800791 224.681943 
L 143.373755 222.800292 
L 144.644484 222.081286 
L 145.684824 221.474612 
L 146.417391 221.03805 
L 146.746254 220.83962 
L 147.326686 220.485769 
L 147.326686 220.485769 
L 149.887895 218.871458 
L 151.755153 217.64353 
L 151.845685 217.582965 
L 151.845685 217.582965 
L 153.033992 216.779496 
L 156.665393 214.232303 
L 156.665393 214.232303 
L 159.493245 212.161922 
L 159.650593 212.044675 
L 161.385168 210.738748 
L 161.921332 210.330258 
L 163.669767 208.983173 
L 165.355273 207.663974 
L 166.267194 206.942294 
L 166.796522 206.520941 
L 167.557797 205.911894 
L 168.508444 205.146428 
L 168.516838 205.139645 
L 168.64917 205.032663 
L 168.868756 204.854917 
L 170.207061 203.765737 
L 170.207061 203.765737 
L 170.207061 203.765737 
L 170.330146 203.665069 
L 171.573576 202.643601 
L 171.825075 202.436024 
L 172.713306 201.700386 
L 172.883794 201.558744 
L 173.613505 200.950933 
L 173.743145 200.842687 
L 174.526051 200.187348 
L 174.868775 199.8996 
L 175.584448 199.29707 
L 176.059763 198.895689 
L 176.524323 198.502481 
L 176.6597 198.38773 
L 177.203774 197.925809 
L 177.890049 197.341496 
L 178.444023 196.868513 
L 179.500395 195.963446 
L 179.565488 195.907545 
L 179.990718 195.542001 
L 180.418558 195.173585 
L 181.485375 194.25228 
L 182.597903 193.287631 
L 183.338024 192.64381 
L 184.390926 191.725185 
L 185.304441 190.925709 
L 185.984664 190.328989 
L 186.116996 190.212766 
L 188.755991 187.88639 
L 190.052232 186.738161 
L 190.351621 186.472484 
L 191.145613 185.767081 
L 192.733597 184.352926 
L 198.556206 179.136513 
L 199.350198 178.422191 
L 201.732174 176.276093 
L 204.643478 173.648217 
L 205.966798 172.452527 
L 212.583399 166.47088 
L 219.2 160.500156 
L 225.816601 154.56 
L 232.433202 148.667391 
L 239.049802 142.837136 
L 245.666403 137.082244 
L 252.283004 131.414241 
L 258.899605 125.843418 
L 265.516206 120.379035 
L 272.132806 115.029486 
L 278.749407 109.80244 
L 285.366008 104.70495 
L 291.982609 99.743547 
L 298.599209 94.92432 
L 305.21581 90.252984 
L 305.21581 90.252984 
L 311.832411 85.734927 
L 318.449012 81.375264 
L 325.065613 77.178874 
L 331.682213 73.15043 
L 338.298814 69.294433 
L 344.915415 65.61523 
L 351.532016 62.117039 
L 358.148617 58.803967 
L 364.765217 55.680019 
L 371.381818 52.749121 
L 371.381818 52.749121 
" style="fill:none;stroke:#0000ff;stroke-dasharray:5.55,2.4;stroke-dashoffset:0;stroke-width:1.5;"/>
   </g>
   <g id="line2d_19">
    <path clip-path="url(#p3d8769a57a)" d="M 67.018182 88.344836 
L 73.634783 131.892207 
L 79.986719 165.15921 
L 79.986719 165.15921 
L 80.251383 166.332529 
L 82.501028 175.665315 
L 84.221344 182.067444 
L 86.206324 188.723956 
L 86.867984 190.77946 
L 87.92664 193.90755 
L 90.837945 201.559178 
L 93.484585 207.423279 
L 94.410909 209.25408 
L 95.866561 211.916709 
L 96.792885 213.481661 
L 100.101186 218.318866 
L 100.762846 219.155745 
L 106.717787 225.005586 
L 108.041107 225.941139 
L 113.334387 228.585989 
L 116.907352 229.514786 
L 119.950988 229.847449 
L 122.994625 229.811701 
L 126.567589 229.358004 
L 130.140553 228.516779 
L 133.18419 227.53339 
L 136.227826 226.333897 
L 139.800791 224.682584 
L 143.373755 222.800938 
L 144.644484 222.081934 
L 145.684824 221.475261 
L 146.417391 221.038701 
L 146.746254 220.840271 
L 147.326686 220.486421 
L 147.326686 220.486421 
L 149.887895 218.872114 
L 151.755153 217.644189 
L 151.845685 217.583623 
L 151.845685 217.583623 
L 153.033992 216.780157 
L 156.665393 214.232969 
L 156.665393 214.232969 
L 159.493245 212.162591 
L 159.650593 212.045346 
L 161.385168 210.739421 
L 161.921332 210.330931 
L 163.669767 208.983849 
L 165.355273 207.664652 
L 166.267194 206.942973 
L 166.796522 206.521621 
L 167.557797 205.912575 
L 168.508444 205.14711 
L 168.516838 205.140328 
L 168.64917 205.033345 
L 168.868756 204.8556 
L 170.207061 203.766422 
L 170.207061 203.766422 
L 170.207061 203.766422 
L 170.330146 203.665754 
L 171.573576 202.644287 
L 171.825075 202.436711 
L 172.713306 201.701074 
L 172.883794 201.559432 
L 173.613505 200.951622 
L 173.743145 200.843377 
L 174.526051 200.188039 
L 174.868775 199.900291 
L 175.584448 199.297762 
L 176.059763 198.896382 
L 176.524323 198.503174 
L 176.6597 198.388423 
L 177.203774 197.926503 
L 177.890049 197.342191 
L 178.444023 196.869209 
L 179.500395 195.964143 
L 179.565488 195.908242 
L 179.990718 195.542699 
L 180.418558 195.174283 
L 181.485375 194.252979 
L 182.597903 193.288332 
L 183.338024 192.644512 
L 184.390926 191.725888 
L 185.304441 190.926414 
L 185.984664 190.329694 
L 186.116996 190.213471 
L 188.755991 187.887098 
L 190.052232 186.738871 
L 190.351621 186.473195 
L 191.145613 185.767792 
L 192.733597 184.353639 
L 198.556206 179.137233 
L 199.350198 178.422911 
L 201.732174 176.276816 
L 204.643478 173.648943 
L 205.966798 172.453254 
L 212.583399 166.471613 
L 219.2 160.500896 
L 225.816601 154.560745 
L 232.433202 148.668142 
L 239.049802 142.837892 
L 245.666403 137.083004 
L 252.283004 131.415005 
L 258.899605 125.844186 
L 265.516206 120.379806 
L 272.132806 115.030261 
L 278.749407 109.803218 
L 285.366008 104.70573 
L 291.982609 99.744329 
L 298.599209 94.925105 
L 305.21581 90.253771 
L 305.21581 90.253771 
L 311.832411 85.735716 
L 318.449012 81.376055 
L 325.065613 77.179666 
L 331.682213 73.151224 
L 338.298814 69.295228 
L 344.915415 65.616027 
L 351.532016 62.117838 
L 358.148617 58.804766 
L 364.765217 55.68082 
L 371.381818 52.749922 
L 371.381818 52.749922 
" style="fill:none;stroke:#0000ff;stroke-dasharray:5.55,2.4;stroke-dashoffset:0;stroke-width:1.5;"/>
   </g>
   <g id="line2d_20">
    <path clip-path="url(#p3d8769a57a)" d="M 73.634783 131.891885 
L 76.016759 145.536115 
L 78.266403 157.128338 
L 80.383715 166.912785 
L 82.501028 175.665003 
L 84.61834 183.459193 
L 86.735652 190.374344 
L 88.720632 196.128374 
L 90.705613 201.239561 
L 92.690593 205.764935 
L 94.675573 209.75701 
L 96.660553 213.263741 
L 98.645534 216.328701 
L 100.630514 218.991344 
L 102.615494 221.287336 
L 104.600474 223.248885 
L 106.585455 224.90507 
L 108.570435 226.28215 
L 110.555415 227.403856 
L 112.672727 228.343004 
L 114.79004 229.039489 
L 117.039684 229.537258 
L 119.289328 229.807784 
L 121.671304 229.869274 
L 124.185613 229.706749 
L 126.832253 229.307987 
L 129.611225 228.663447 
L 132.654862 227.720352 
L 135.83083 226.501404 
L 139.271462 224.942208 
L 142.976759 223.020105 
L 147.079051 220.637623 
L 151.57834 217.761879 
L 156.606957 214.274655 
L 162.164901 210.144298 
L 168.516838 205.139986 
L 175.927431 199.007879 
L 184.926008 191.257522 
L 196.835889 180.682425 
L 243.152095 139.259842 
L 255.194308 128.95092 
L 266.177866 119.839166 
L 276.367431 111.669997 
L 286.16 104.102662 
L 295.555573 97.123526 
L 304.55415 90.7137 
L 313.288063 84.762432 
L 321.757312 79.256759 
L 330.094229 74.102093 
L 338.166482 69.370232 
L 346.106403 64.972475 
L 353.913992 60.903196 
L 361.589249 57.156061 
L 368.999842 53.782162 
L 371.249486 52.806223 
L 371.249486 52.806223 
" style="fill:none;stroke:#ff0000;stroke-linecap:square;stroke-width:1.5;"/>
   </g>
   <g id="line2d_21">
    <path clip-path="url(#p3d8769a57a)" d="M 67.018182 88.344184 
L 73.634783 131.891563 
L 79.986719 165.158581 
L 79.986719 165.158581 
L 80.251383 166.3319 
L 82.501028 175.664691 
L 84.221344 182.066824 
L 86.206324 188.72334 
L 86.867984 190.778844 
L 87.92664 193.906936 
L 90.837945 201.558567 
L 93.484585 207.422671 
L 94.410909 209.253473 
L 95.866561 211.916103 
L 96.792885 213.481056 
L 100.101186 218.318262 
L 100.762846 219.155141 
L 106.717787 225.00498 
L 108.041107 225.940533 
L 113.334387 228.58538 
L 116.907352 229.514173 
L 119.950988 229.846834 
L 122.994625 229.811082 
L 126.567589 229.357381 
L 130.140553 228.516152 
L 133.18419 227.532759 
L 136.227826 226.333261 
L 139.800791 224.681943 
L 143.373755 222.800292 
L 144.644484 222.081286 
L 145.684824 221.474612 
L 146.417391 221.03805 
L 146.746254 220.83962 
L 147.326686 220.485769 
L 147.326686 220.485769 
L 149.887895 218.871458 
L 151.755153 217.64353 
L 151.845685 217.582965 
L 151.845685 217.582965 
L 153.033992 216.779496 
L 156.665393 214.232303 
L 156.665393 214.232303 
L 159.493245 212.161922 
L 159.650593 212.044675 
L 161.385168 210.738748 
L 161.921332 210.330258 
L 163.669767 208.983173 
L 165.355273 207.663974 
L 166.267194 206.942294 
L 166.796522 206.520941 
L 167.557797 205.911894 
L 168.508444 205.146428 
L 168.516838 205.139645 
L 168.64917 205.032663 
L 168.868756 204.854917 
L 170.207061 203.765737 
L 170.207061 203.765737 
L 170.207061 203.765737 
L 170.330146 203.665069 
L 171.573576 202.643601 
L 171.825075 202.436024 
L 172.713306 201.700386 
L 172.883794 201.558744 
L 173.613505 200.950933 
L 173.743145 200.842687 
L 174.526051 200.187348 
L 174.868775 199.8996 
L 175.584448 199.29707 
L 176.059763 198.895689 
L 176.524323 198.502481 
L 176.6597 198.38773 
L 177.203774 197.925809 
L 177.890049 197.341496 
L 178.444023 196.868513 
L 179.500395 195.963446 
L 179.565488 195.907545 
L 179.990718 195.542001 
L 180.418558 195.173585 
L 181.485375 194.25228 
L 182.597903 193.287631 
L 183.338024 192.64381 
L 184.390926 191.725185 
L 185.304441 190.925709 
L 185.984664 190.328989 
L 186.116996 190.212766 
L 188.755991 187.88639 
L 190.052232 186.738161 
L 190.351621 186.472484 
L 191.145613 185.767081 
L 192.733597 184.352926 
L 198.556206 179.136513 
L 199.350198 178.422191 
L 201.732174 176.276093 
L 204.643478 173.648217 
L 205.966798 172.452527 
L 212.583399 166.47088 
L 219.2 160.500156 
L 225.816601 154.56 
L 232.433202 148.667391 
L 239.049802 142.837136 
L 245.666403 137.082244 
L 252.283004 131.414241 
L 258.899605 125.843418 
L 265.516206 120.379035 
L 272.132806 115.029486 
L 278.749407 109.80244 
L 285.366008 104.70495 
L 291.982609 99.743547 
L 298.599209 94.92432 
L 305.21581 90.252984 
L 305.21581 90.252984 
L 311.832411 85.734927 
L 318.449012 81.375264 
L 325.065613 77.178874 
L 331.682213 73.15043 
L 338.298814 69.294433 
L 344.915415 65.61523 
L 351.532016 62.117039 
L 358.148617 58.803967 
L 364.765217 55.680019 
L 371.381818 52.749121 
L 371.381818 52.749121 
" style="fill:none;stroke:#ff0000;stroke-dasharray:5.55,2.4;stroke-dashoffset:0;stroke-width:1.5;"/>
   </g>
   <g id="line2d_22">
    <path clip-path="url(#p3d8769a57a)" d="M 67.018182 88.344836 
L 73.634783 131.892207 
L 79.986719 165.15921 
L 79.986719 165.15921 
L 80.251383 166.332529 
L 82.501028 175.665315 
L 84.221344 182.067444 
L 86.206324 188.723956 
L 86.867984 190.77946 
L 87.92664 193.90755 
L 90.837945 201.559178 
L 93.484585 207.423279 
L 94.410909 209.25408 
L 95.866561 211.916709 
L 96.792885 213.481661 
L 100.101186 218.318866 
L 100.762846 219.155745 
L 106.717787 225.005586 
L 108.041107 225.941139 
L 113.334387 228.585989 
L 116.907352 229.514786 
L 119.950988 229.847449 
L 122.994625 229.811701 
L 126.567589 229.358004 
L 130.140553 228.516779 
L 133.18419 227.53339 
L 136.227826 226.333897 
L 139.800791 224.682584 
L 143.373755 222.800938 
L 144.644484 222.081934 
L 145.684824 221.475261 
L 146.417391 221.038701 
L 146.746254 220.840271 
L 147.326686 220.486421 
L 147.326686 220.486421 
L 149.887895 218.872114 
L 151.755153 217.644189 
L 151.845685 217.583623 
L 151.845685 217.583623 
L 153.033992 216.780157 
L 156.665393 214.232969 
L 156.665393 214.232969 
L 159.493245 212.162591 
L 159.650593 212.045346 
L 161.385168 210.739421 
L 161.921332 210.330931 
L 163.669767 208.983849 
L 165.355273 207.664652 
L 166.267194 206.942973 
L 166.796522 206.521621 
L 167.557797 205.912575 
L 168.508444 205.14711 
L 168.516838 205.140328 
L 168.64917 205.033345 
L 168.868756 204.8556 
L 170.207061 203.766422 
L 170.207061 203.766422 
L 170.207061 203.766422 
L 170.330146 203.665754 
L 171.573576 202.644287 
L 171.825075 202.436711 
L 172.713306 201.701074 
L 172.883794 201.559432 
L 173.613505 200.951622 
L 173.743145 200.843377 
L 174.526051 200.188039 
L 174.868775 199.900291 
L 175.584448 199.297762 
L 176.059763 198.896382 
L 176.524323 198.503174 
L 176.6597 198.388423 
L 177.203774 197.926503 
L 177.890049 197.342191 
L 178.444023 196.869209 
L 179.500395 195.964143 
L 179.565488 195.908242 
L 179.990718 195.542699 
L 180.418558 195.174283 
L 181.485375 194.252979 
L 182.597903 193.288332 
L 183.338024 192.644512 
L 184.390926 191.725888 
L 185.304441 190.926414 
L 185.984664 190.329694 
L 186.116996 190.213471 
L 188.755991 187.887098 
L 190.052232 186.738871 
L 190.351621 186.473195 
L 191.145613 185.767792 
L 192.733597 184.353639 
L 198.556206 179.137233 
L 199.350198 178.422911 
L 201.732174 176.276816 
L 204.643478 173.648943 
L 205.966798 172.453254 
L 212.583399 166.471613 
L 219.2 160.500896 
L 225.816601 154.560745 
L 232.433202 148.668142 
L 239.049802 142.837892 
L 245.666403 137.083004 
L 252.283004 131.415005 
L 258.899605 125.844186 
L 265.516206 120.379806 
L 272.132806 115.030261 
L 278.749407 109.803218 
L 285.366008 104.70573 
L 291.982609 99.744329 
L 298.599209 94.925105 
L 305.21581 90.253771 
L 305.21581 90.253771 
L 311.832411 85.735716 
L 318.449012 81.376055 
L 325.065613 77.179666 
L 331.682213 73.151224 
L 338.298814 69.295228 
L 344.915415 65.616027 
L 351.532016 62.117838 
L 358.148617 58.804766 
L 364.765217 55.68082 
L 371.381818 52.749922 
L 371.381818 52.749922 
" style="fill:none;stroke:#ff0000;stroke-dasharray:5.55,2.4;stroke-dashoffset:0;stroke-width:1.5;"/>
   </g>
   <g id="line2d_23">
    <defs>
     <path d="M 0 3 
C 0.795609 3 1.55874 2.683901 2.12132 2.12132 
C 2.683901 1.55874 3 0.795609 3 0 
C 3 -0.795609 2.683901 -1.55874 2.12132 -2.12132 
C 1.55874 -2.683901 0.795609 -3 0 -3 
C -0.795609 -3 -1.55874 -2.683901 -2.12132 -2.12132 
C -2.683901 -1.55874 -3 -0.795609 -3 0 
C -3 0.795609 -2.683901 1.55874 -2.12132 2.12132 
C -1.55874 2.683901 -0.795609 3 0 3 
z
" id="m51abc9c9f1" style="stroke:#000000;"/>
    </defs>
    <g clip-path="url(#p3d8769a57a)">
     <use style="stroke:#000000;" x="79.986719" xlink:href="#m51abc9c9f1" y="55.914886"/>
     <use style="stroke:#000000;" x="82.501028" xlink:href="#m51abc9c9f1" y="66.104673"/>
     <use style="stroke:#000000;" x="84.221344" xlink:href="#m51abc9c9f1" y="63.801348"/>
     <use style="stroke:#000000;" x="86.206324" xlink:href="#m51abc9c9f1" y="87.120287"/>
     <use style="stroke:#000000;" x="87.92664" xlink:href="#m51abc9c9f1" y="77.90354"/>
     <use style="stroke:#000000;" x="90.837945" xlink:href="#m51abc9c9f1" y="105.124873"/>
     <use style="stroke:#000000;" x="94.410909" xlink:href="#m51abc9c9f1" y="104.471139"/>
     <use style="stroke:#000000;" x="96.792885" xlink:href="#m51abc9c9f1" y="107.121049"/>
     <use style="stroke:#000000;" x="100.762846" xlink:href="#m51abc9c9f1" y="100.048206"/>
     <use style="stroke:#000000;" x="108.041107" xlink:href="#m51abc9c9f1" y="147.177653"/>
     <use style="stroke:#000000;" x="79.986719" xlink:href="#m51abc9c9f1" y="63.049059"/>
     <use style="stroke:#000000;" x="95.866561" xlink:href="#m51abc9c9f1" y="122.819084"/>
     <use style="stroke:#000000;" x="116.907352" xlink:href="#m51abc9c9f1" y="162.879526"/>
     <use style="stroke:#000000;" x="122.994625" xlink:href="#m51abc9c9f1" y="168.328401"/>
     <use style="stroke:#000000;" x="130.140553" xlink:href="#m51abc9c9f1" y="167.568474"/>
     <use style="stroke:#000000;" x="136.227826" xlink:href="#m51abc9c9f1" y="173.547243"/>
     <use style="stroke:#000000;" x="143.373755" xlink:href="#m51abc9c9f1" y="160.778767"/>
     <use style="stroke:#000000;" x="144.644484" xlink:href="#m51abc9c9f1" y="175.203332"/>
     <use style="stroke:#000000;" x="145.684824" xlink:href="#m51abc9c9f1" y="158.066435"/>
     <use style="stroke:#000000;" x="147.326686" xlink:href="#m51abc9c9f1" y="156.224637"/>
     <use style="stroke:#000000;" x="147.326686" xlink:href="#m51abc9c9f1" y="136.266906"/>
     <use style="stroke:#000000;" x="146.746254" xlink:href="#m51abc9c9f1" y="137.470988"/>
     <use style="stroke:#000000;" x="149.887895" xlink:href="#m51abc9c9f1" y="156.484993"/>
     <use style="stroke:#000000;" x="151.845685" xlink:href="#m51abc9c9f1" y="156.877232"/>
     <use style="stroke:#000000;" x="151.845685" xlink:href="#m51abc9c9f1" y="153.921312"/>
     <use style="stroke:#000000;" x="151.755153" xlink:href="#m51abc9c9f1" y="129.969892"/>
     <use style="stroke:#000000;" x="156.665393" xlink:href="#m51abc9c9f1" y="135.179925"/>
     <use style="stroke:#000000;" x="156.665393" xlink:href="#m51abc9c9f1" y="128.072512"/>
     <use style="stroke:#000000;" x="161.921332" xlink:href="#m51abc9c9f1" y="145.35745"/>
     <use style="stroke:#000000;" x="161.385168" xlink:href="#m51abc9c9f1" y="117.988236"/>
     <use style="stroke:#000000;" x="159.493245" xlink:href="#m51abc9c9f1" y="103.180552"/>
     <use style="stroke:#000000;" x="163.669767" xlink:href="#m51abc9c9f1" y="115.684911"/>
     <use style="stroke:#000000;" x="165.355273" xlink:href="#m51abc9c9f1" y="146.03485"/>
     <use style="stroke:#000000;" x="170.207061" xlink:href="#m51abc9c9f1" y="120.203895"/>
     <use style="stroke:#000000;" x="170.207061" xlink:href="#m51abc9c9f1" y="97.63341"/>
     <use style="stroke:#000000;" x="170.330146" xlink:href="#m51abc9c9f1" y="96.454612"/>
     <use style="stroke:#000000;" x="171.573576" xlink:href="#m51abc9c9f1" y="96.454612"/>
     <use style="stroke:#000000;" x="168.868756" xlink:href="#m51abc9c9f1" y="91.368358"/>
     <use style="stroke:#000000;" x="177.890049" xlink:href="#m51abc9c9f1" y="96.454612"/>
     <use style="stroke:#000000;" x="178.444023" xlink:href="#m51abc9c9f1" y="68.079779"/>
     <use style="stroke:#000000;" x="176.524323" xlink:href="#m51abc9c9f1" y="64.180347"/>
     <use style="stroke:#000000;" x="182.597903" xlink:href="#m51abc9c9f1" y="85.587425"/>
     <use style="stroke:#000000;" x="184.390926" xlink:href="#m51abc9c9f1" y="40.863327"/>
     <use style="stroke:#000000;" x="167.557797" xlink:href="#m51abc9c9f1" y="115.684911"/>
     <use style="stroke:#000000;" x="168.508444" xlink:href="#m51abc9c9f1" y="105.784368"/>
     <use style="stroke:#000000;" x="170.207061" xlink:href="#m51abc9c9f1" y="119.087868"/>
     <use style="stroke:#000000;" x="172.713306" xlink:href="#m51abc9c9f1" y="115.684911"/>
     <use style="stroke:#000000;" x="171.825075" xlink:href="#m51abc9c9f1" y="108.482035"/>
     <use style="stroke:#000000;" x="176.6597" xlink:href="#m51abc9c9f1" y="95.29409"/>
     <use style="stroke:#000000;" x="177.203774" xlink:href="#m51abc9c9f1" y="84.582683"/>
     <use style="stroke:#000000;" x="179.565488" xlink:href="#m51abc9c9f1" y="95.29409"/>
     <use style="stroke:#000000;" x="173.743145" xlink:href="#m51abc9c9f1" y="79.751835"/>
     <use style="stroke:#000000;" x="174.526051" xlink:href="#m51abc9c9f1" y="70.935521"/>
     <use style="stroke:#000000;" x="173.613505" xlink:href="#m51abc9c9f1" y="70.935521"/>
     <use style="stroke:#000000;" x="175.584448" xlink:href="#m51abc9c9f1" y="63.049059"/>
     <use style="stroke:#000000;" x="180.418558" xlink:href="#m51abc9c9f1" y="71.352525"/>
     <use style="stroke:#000000;" x="179.990718" xlink:href="#m51abc9c9f1" y="63.424258"/>
     <use style="stroke:#000000;" x="185.304441" xlink:href="#m51abc9c9f1" y="46.346282"/>
     <use style="stroke:#000000;" x="188.755991" xlink:href="#m51abc9c9f1" y="46.047471"/>
     <use style="stroke:#000000;" x="190.052232" xlink:href="#m51abc9c9f1" y="32.201761"/>
     <use style="stroke:#000000;" x="166.796522" xlink:href="#m51abc9c9f1" y="137.470988"/>
     <use style="stroke:#000000;" x="168.516838" xlink:href="#m51abc9c9f1" y="133.530491"/>
     <use style="stroke:#000000;" x="168.64917" xlink:href="#m51abc9c9f1" y="133.530491"/>
     <use style="stroke:#000000;" x="174.868775" xlink:href="#m51abc9c9f1" y="119.564129"/>
     <use style="stroke:#000000;" x="176.059763" xlink:href="#m51abc9c9f1" y="128.879793"/>
     <use style="stroke:#000000;" x="181.485375" xlink:href="#m51abc9c9f1" y="117.212559"/>
     <use style="stroke:#000000;" x="183.338024" xlink:href="#m51abc9c9f1" y="120.364695"/>
     <use style="stroke:#000000;" x="185.984664" xlink:href="#m51abc9c9f1" y="121.99198"/>
     <use style="stroke:#000000;" x="190.351621" xlink:href="#m51abc9c9f1" y="105.124873"/>
     <use style="stroke:#000000;" x="191.145613" xlink:href="#m51abc9c9f1" y="111.280573"/>
     <use style="stroke:#000000;" x="198.556206" xlink:href="#m51abc9c9f1" y="116.444838"/>
     <use style="stroke:#000000;" x="201.732174" xlink:href="#m51abc9c9f1" y="82.128294"/>
     <use style="stroke:#000000;" x="204.643478" xlink:href="#m51abc9c9f1" y="84.582683"/>
    </g>
   </g>
   <g id="patch_3">
    <path d="M 51.8 239.758125 
L 51.8 22.318125 
" style="fill:none;stroke:#000000;stroke-linecap:square;stroke-linejoin:miter;stroke-width:0.8;"/>
   </g>
   <g id="patch_4">
    <path d="M 386.6 239.758125 
L 386.6 22.318125 
" style="fill:none;stroke:#000000;stroke-linecap:square;stroke-linejoin:miter;stroke-width:0.8;"/>
   </g>
   <g id="patch_5">
    <path d="M 51.8 239.758125 
L 386.6 239.758125 
" style="fill:none;stroke:#000000;stroke-linecap:square;stroke-linejoin:miter;stroke-width:0.8;"/>
   </g>
   <g id="patch_6">
    <path d="M 51.8 22.318125 
L 386.6 22.318125 
" style="fill:none;stroke:#000000;stroke-linecap:square;stroke-linejoin:miter;stroke-width:0.8;"/>
   </g>
   <g id="text_9">
    <!-- 2 HO2 &lt;=&gt; H2O2 + O2 -->
    <defs>
     <path d="M 9.8125 72.90625 
L 19.671875 72.90625 
L 19.671875 43.015625 
L 55.515625 43.015625 
L 55.515625 72.90625 
L 65.375 72.90625 
L 65.375 0 
L 55.515625 0 
L 55.515625 34.71875 
L 19.671875 34.71875 
L 19.671875 0 
L 9.8125 0 
z
" id="DejaVuSans-72"/>
     <path d="M 39.40625 66.21875 
Q 28.65625 66.21875 22.328125 58.203125 
Q 16.015625 50.203125 16.015625 36.375 
Q 16.015625 22.609375 22.328125 14.59375 
Q 28.65625 6.59375 39.40625 6.59375 
Q 50.140625 6.59375 56.421875 14.59375 
Q 62.703125 22.609375 62.703125 36.375 
Q 62.703125 50.203125 56.421875 58.203125 
Q 50.140625 66.21875 39.40625 66.21875 
z
M 39.40625 74.21875 
Q 54.734375 74.21875 63.90625 63.9375 
Q 73.09375 53.65625 73.09375 36.375 
Q 73.09375 19.140625 63.90625 8.859375 
Q 54.734375 -1.421875 39.40625 -1.421875 
Q 24.03125 -1.421875 14.8125 8.828125 
Q 5.609375 19.09375 5.609375 36.375 
Q 5.609375 53.65625 14.8125 63.9375 
Q 24.03125 74.21875 39.40625 74.21875 
z
" id="DejaVuSans-79"/>
     <path d="M 73.1875 49.21875 
L 22.796875 31.296875 
L 73.1875 13.484375 
L 73.1875 4.59375 
L 10.59375 27.296875 
L 10.59375 35.40625 
L 73.1875 58.109375 
z
" id="DejaVuSans-60"/>
     <path d="M 10.59375 45.40625 
L 73.1875 45.40625 
L 73.1875 37.203125 
L 10.59375 37.203125 
z
M 10.59375 25.484375 
L 73.1875 25.484375 
L 73.1875 17.1875 
L 10.59375 17.1875 
z
" id="DejaVuSans-61"/>
     <path d="M 10.59375 49.21875 
L 10.59375 58.109375 
L 73.1875 35.40625 
L 73.1875 27.296875 
L 10.59375 4.59375 
L 10.59375 13.484375 
L 60.890625 31.296875 
z
" id="DejaVuSans-62"/>
     <path d="M 46 62.703125 
L 46 35.5 
L 73.1875 35.5 
L 73.1875 27.203125 
L 46 27.203125 
L 46 0 
L 37.796875 0 
L 37.796875 27.203125 
L 10.59375 27.203125 
L 10.59375 35.5 
L 37.796875 35.5 
L 37.796875 62.703125 
z
" id="DejaVuSans-43"/>
    </defs>
    <g transform="translate(147.273125 16.318125)scale(0.12 -0.12)">
     <use xlink:href="#DejaVuSans-50"/>
     <use x="63.623047" xlink:href="#DejaVuSans-32"/>
     <use x="95.410156" xlink:href="#DejaVuSans-72"/>
     <use x="170.605469" xlink:href="#DejaVuSans-79"/>
     <use x="249.316406" xlink:href="#DejaVuSans-50"/>
     <use x="312.939453" xlink:href="#DejaVuSans-32"/>
     <use x="344.726562" xlink:href="#DejaVuSans-60"/>
     <use x="428.515625" xlink:href="#DejaVuSans-61"/>
     <use x="512.304688" xlink:href="#DejaVuSans-62"/>
     <use x="596.09375" xlink:href="#DejaVuSans-32"/>
     <use x="627.880859" xlink:href="#DejaVuSans-72"/>
     <use x="703.076172" xlink:href="#DejaVuSans-50"/>
     <use x="766.699219" xlink:href="#DejaVuSans-79"/>
     <use x="845.410156" xlink:href="#DejaVuSans-50"/>
     <use x="909.033203" xlink:href="#DejaVuSans-32"/>
     <use x="940.820312" xlink:href="#DejaVuSans-43"/>
     <use x="1024.609375" xlink:href="#DejaVuSans-32"/>
     <use x="1056.396484" xlink:href="#DejaVuSans-79"/>
     <use x="1135.107422" xlink:href="#DejaVuSans-50"/>
    </g>
   </g>
  </g>
 </g>
 <defs>
  <clipPath id="p3d8769a57a">
   <rect height="217.44" width="334.8" x="51.8" y="22.318125"/>
  </clipPath>
 </defs>
</svg>
