<?xml version="1.0" encoding="utf-8" standalone="no"?>
<!DOCTYPE svg PUBLIC "-//W3C//DTD SVG 1.1//EN"
  "http://www.w3.org/Graphics/SVG/1.1/DTD/svg11.dtd">
<!-- Created with matplotlib (https://matplotlib.org/) -->
<svg height="277.314375pt" version="1.1" viewBox="0 0 379.740625 277.314375" width="379.740625pt" xmlns="http://www.w3.org/2000/svg" xmlns:xlink="http://www.w3.org/1999/xlink">
 <defs>
  <style type="text/css">
*{stroke-linecap:butt;stroke-linejoin:round;}
  </style>
 </defs>
 <g id="figure_1">
  <g id="patch_1">
   <path d="M 0 277.314375 
L 379.740625 277.314375 
L 379.740625 0 
L 0 0 
z
" style="fill:#ffffff;"/>
  </g>
  <g id="axes_1">
   <g id="patch_2">
    <path d="M 34.240625 239.758125 
L 369.040625 239.758125 
L 369.040625 22.318125 
L 34.240625 22.318125 
z
" style="fill:#ffffff;"/>
   </g>
   <g id="matplotlib.axis_1">
    <g id="xtick_1">
     <g id="line2d_1">
      <defs>
       <path d="M 0 0 
L 0 3.5 
" id="m78ccac97ef" style="stroke:#000000;stroke-width:0.8;"/>
      </defs>
      <g>
       <use style="stroke:#000000;stroke-width:0.8;" x="49.458807" xlink:href="#m78ccac97ef" y="239.758125"/>
      </g>
     </g>
     <g id="text_1">
      <!-- 0.0 -->
      <defs>
       <path d="M 31.78125 66.40625 
Q 24.171875 66.40625 20.328125 58.90625 
Q 16.5 51.421875 16.5 36.375 
Q 16.5 21.390625 20.328125 13.890625 
Q 24.171875 6.390625 31.78125 6.390625 
Q 39.453125 6.390625 43.28125 13.890625 
Q 47.125 21.390625 47.125 36.375 
Q 47.125 51.421875 43.28125 58.90625 
Q 39.453125 66.40625 31.78125 66.40625 
z
M 31.78125 74.21875 
Q 44.046875 74.21875 50.515625 64.515625 
Q 56.984375 54.828125 56.984375 36.375 
Q 56.984375 17.96875 50.515625 8.265625 
Q 44.046875 -1.421875 31.78125 -1.421875 
Q 19.53125 -1.421875 13.0625 8.265625 
Q 6.59375 17.96875 6.59375 36.375 
Q 6.59375 54.828125 13.0625 64.515625 
Q 19.53125 74.21875 31.78125 74.21875 
z
" id="DejaVuSans-48"/>
       <path d="M 10.6875 12.40625 
L 21 12.40625 
L 21 0 
L 10.6875 0 
z
" id="DejaVuSans-46"/>
      </defs>
      <g transform="translate(41.507244 254.356562)scale(0.1 -0.1)">
       <use xlink:href="#DejaVuSans-48"/>
       <use x="63.623047" xlink:href="#DejaVuSans-46"/>
       <use x="95.410156" xlink:href="#DejaVuSans-48"/>
      </g>
     </g>
    </g>
    <g id="xtick_2">
     <g id="line2d_2">
      <g>
       <use style="stroke:#000000;stroke-width:0.8;" x="99.842826" xlink:href="#m78ccac97ef" y="239.758125"/>
      </g>
     </g>
     <g id="text_2">
      <!-- 0.5 -->
      <defs>
       <path d="M 10.796875 72.90625 
L 49.515625 72.90625 
L 49.515625 64.59375 
L 19.828125 64.59375 
L 19.828125 46.734375 
Q 21.96875 47.46875 24.109375 47.828125 
Q 26.265625 48.1875 28.421875 48.1875 
Q 40.625 48.1875 47.75 41.5 
Q 54.890625 34.8125 54.890625 23.390625 
Q 54.890625 11.625 47.5625 5.09375 
Q 40.234375 -1.421875 26.90625 -1.421875 
Q 22.3125 -1.421875 17.546875 -0.640625 
Q 12.796875 0.140625 7.71875 1.703125 
L 7.71875 11.625 
Q 12.109375 9.234375 16.796875 8.0625 
Q 21.484375 6.890625 26.703125 6.890625 
Q 35.15625 6.890625 40.078125 11.328125 
Q 45.015625 15.765625 45.015625 23.390625 
Q 45.015625 31 40.078125 35.4375 
Q 35.15625 39.890625 26.703125 39.890625 
Q 22.75 39.890625 18.8125 39.015625 
Q 14.890625 38.140625 10.796875 36.28125 
z
" id="DejaVuSans-53"/>
      </defs>
      <g transform="translate(91.891264 254.356562)scale(0.1 -0.1)">
       <use xlink:href="#DejaVuSans-48"/>
       <use x="63.623047" xlink:href="#DejaVuSans-46"/>
       <use x="95.410156" xlink:href="#DejaVuSans-53"/>
      </g>
     </g>
    </g>
    <g id="xtick_3">
     <g id="line2d_3">
      <g>
       <use style="stroke:#000000;stroke-width:0.8;" x="150.226846" xlink:href="#m78ccac97ef" y="239.758125"/>
      </g>
     </g>
     <g id="text_3">
      <!-- 1.0 -->
      <defs>
       <path d="M 12.40625 8.296875 
L 28.515625 8.296875 
L 28.515625 63.921875 
L 10.984375 60.40625 
L 10.984375 69.390625 
L 28.421875 72.90625 
L 38.28125 72.90625 
L 38.28125 8.296875 
L 54.390625 8.296875 
L 54.390625 0 
L 12.40625 0 
z
" id="DejaVuSans-49"/>
      </defs>
      <g transform="translate(142.275283 254.356562)scale(0.1 -0.1)">
       <use xlink:href="#DejaVuSans-49"/>
       <use x="63.623047" xlink:href="#DejaVuSans-46"/>
       <use x="95.410156" xlink:href="#DejaVuSans-48"/>
      </g>
     </g>
    </g>
    <g id="xtick_4">
     <g id="line2d_4">
      <g>
       <use style="stroke:#000000;stroke-width:0.8;" x="200.610865" xlink:href="#m78ccac97ef" y="239.758125"/>
      </g>
     </g>
     <g id="text_4">
      <!-- 1.5 -->
      <g transform="translate(192.659302 254.356562)scale(0.1 -0.1)">
       <use xlink:href="#DejaVuSans-49"/>
       <use x="63.623047" xlink:href="#DejaVuSans-46"/>
       <use x="95.410156" xlink:href="#DejaVuSans-53"/>
      </g>
     </g>
    </g>
    <g id="xtick_5">
     <g id="line2d_5">
      <g>
       <use style="stroke:#000000;stroke-width:0.8;" x="250.994884" xlink:href="#m78ccac97ef" y="239.758125"/>
      </g>
     </g>
     <g id="text_5">
      <!-- 2.0 -->
      <defs>
       <path d="M 19.1875 8.296875 
L 53.609375 8.296875 
L 53.609375 0 
L 7.328125 0 
L 7.328125 8.296875 
Q 12.9375 14.109375 22.625 23.890625 
Q 32.328125 33.6875 34.8125 36.53125 
Q 39.546875 41.84375 41.421875 45.53125 
Q 43.3125 49.21875 43.3125 52.78125 
Q 43.3125 58.59375 39.234375 62.25 
Q 35.15625 65.921875 28.609375 65.921875 
Q 23.96875 65.921875 18.8125 64.3125 
Q 13.671875 62.703125 7.8125 59.421875 
L 7.8125 69.390625 
Q 13.765625 71.78125 18.9375 73 
Q 24.125 74.21875 28.421875 74.21875 
Q 39.75 74.21875 46.484375 68.546875 
Q 53.21875 62.890625 53.21875 53.421875 
Q 53.21875 48.921875 51.53125 44.890625 
Q 49.859375 40.875 45.40625 35.40625 
Q 44.1875 33.984375 37.640625 27.21875 
Q 31.109375 20.453125 19.1875 8.296875 
z
" id="DejaVuSans-50"/>
      </defs>
      <g transform="translate(243.043322 254.356562)scale(0.1 -0.1)">
       <use xlink:href="#DejaVuSans-50"/>
       <use x="63.623047" xlink:href="#DejaVuSans-46"/>
       <use x="95.410156" xlink:href="#DejaVuSans-48"/>
      </g>
     </g>
    </g>
    <g id="xtick_6">
     <g id="line2d_6">
      <g>
       <use style="stroke:#000000;stroke-width:0.8;" x="301.378904" xlink:href="#m78ccac97ef" y="239.758125"/>
      </g>
     </g>
     <g id="text_6">
      <!-- 2.5 -->
      <g transform="translate(293.427341 254.356562)scale(0.1 -0.1)">
       <use xlink:href="#DejaVuSans-50"/>
       <use x="63.623047" xlink:href="#DejaVuSans-46"/>
       <use x="95.410156" xlink:href="#DejaVuSans-53"/>
      </g>
     </g>
    </g>
    <g id="xtick_7">
     <g id="line2d_7">
      <g>
       <use style="stroke:#000000;stroke-width:0.8;" x="351.762923" xlink:href="#m78ccac97ef" y="239.758125"/>
      </g>
     </g>
     <g id="text_7">
      <!-- 3.0 -->
      <defs>
       <path d="M 40.578125 39.3125 
Q 47.65625 37.796875 51.625 33 
Q 55.609375 28.21875 55.609375 21.1875 
Q 55.609375 10.40625 48.1875 4.484375 
Q 40.765625 -1.421875 27.09375 -1.421875 
Q 22.515625 -1.421875 17.65625 -0.515625 
Q 12.796875 0.390625 7.625 2.203125 
L 7.625 11.71875 
Q 11.71875 9.328125 16.59375 8.109375 
Q 21.484375 6.890625 26.8125 6.890625 
Q 36.078125 6.890625 40.9375 10.546875 
Q 45.796875 14.203125 45.796875 21.1875 
Q 45.796875 27.640625 41.28125 31.265625 
Q 36.765625 34.90625 28.71875 34.90625 
L 20.21875 34.90625 
L 20.21875 43.015625 
L 29.109375 43.015625 
Q 36.375 43.015625 40.234375 45.921875 
Q 44.09375 48.828125 44.09375 54.296875 
Q 44.09375 59.90625 40.109375 62.90625 
Q 36.140625 65.921875 28.71875 65.921875 
Q 24.65625 65.921875 20.015625 65.03125 
Q 15.375 64.15625 9.8125 62.3125 
L 9.8125 71.09375 
Q 15.4375 72.65625 20.34375 73.4375 
Q 25.25 74.21875 29.59375 74.21875 
Q 40.828125 74.21875 47.359375 69.109375 
Q 53.90625 64.015625 53.90625 55.328125 
Q 53.90625 49.265625 50.4375 45.09375 
Q 46.96875 40.921875 40.578125 39.3125 
z
" id="DejaVuSans-51"/>
      </defs>
      <g transform="translate(343.81136 254.356562)scale(0.1 -0.1)">
       <use xlink:href="#DejaVuSans-51"/>
       <use x="63.623047" xlink:href="#DejaVuSans-46"/>
       <use x="95.410156" xlink:href="#DejaVuSans-48"/>
      </g>
     </g>
    </g>
    <g id="text_8">
     <!-- Time (ms) -->
     <defs>
      <path d="M -0.296875 72.90625 
L 61.375 72.90625 
L 61.375 64.59375 
L 35.5 64.59375 
L 35.5 0 
L 25.59375 0 
L 25.59375 64.59375 
L -0.296875 64.59375 
z
" id="DejaVuSans-84"/>
      <path d="M 9.421875 54.6875 
L 18.40625 54.6875 
L 18.40625 0 
L 9.421875 0 
z
M 9.421875 75.984375 
L 18.40625 75.984375 
L 18.40625 64.59375 
L 9.421875 64.59375 
z
" id="DejaVuSans-105"/>
      <path d="M 52 44.1875 
Q 55.375 50.25 60.0625 53.125 
Q 64.75 56 71.09375 56 
Q 79.640625 56 84.28125 50.015625 
Q 88.921875 44.046875 88.921875 33.015625 
L 88.921875 0 
L 79.890625 0 
L 79.890625 32.71875 
Q 79.890625 40.578125 77.09375 44.375 
Q 74.3125 48.1875 68.609375 48.1875 
Q 61.625 48.1875 57.5625 43.546875 
Q 53.515625 38.921875 53.515625 30.90625 
L 53.515625 0 
L 44.484375 0 
L 44.484375 32.71875 
Q 44.484375 40.625 41.703125 44.40625 
Q 38.921875 48.1875 33.109375 48.1875 
Q 26.21875 48.1875 22.15625 43.53125 
Q 18.109375 38.875 18.109375 30.90625 
L 18.109375 0 
L 9.078125 0 
L 9.078125 54.6875 
L 18.109375 54.6875 
L 18.109375 46.1875 
Q 21.1875 51.21875 25.484375 53.609375 
Q 29.78125 56 35.6875 56 
Q 41.65625 56 45.828125 52.96875 
Q 50 49.953125 52 44.1875 
z
" id="DejaVuSans-109"/>
      <path d="M 56.203125 29.59375 
L 56.203125 25.203125 
L 14.890625 25.203125 
Q 15.484375 15.921875 20.484375 11.0625 
Q 25.484375 6.203125 34.421875 6.203125 
Q 39.59375 6.203125 44.453125 7.46875 
Q 49.3125 8.734375 54.109375 11.28125 
L 54.109375 2.78125 
Q 49.265625 0.734375 44.1875 -0.34375 
Q 39.109375 -1.421875 33.890625 -1.421875 
Q 20.796875 -1.421875 13.15625 6.1875 
Q 5.515625 13.8125 5.515625 26.8125 
Q 5.515625 40.234375 12.765625 48.109375 
Q 20.015625 56 32.328125 56 
Q 43.359375 56 49.78125 48.890625 
Q 56.203125 41.796875 56.203125 29.59375 
z
M 47.21875 32.234375 
Q 47.125 39.59375 43.09375 43.984375 
Q 39.0625 48.390625 32.421875 48.390625 
Q 24.90625 48.390625 20.390625 44.140625 
Q 15.875 39.890625 15.1875 32.171875 
z
" id="DejaVuSans-101"/>
      <path id="DejaVuSans-32"/>
      <path d="M 31 75.875 
Q 24.46875 64.65625 21.28125 53.65625 
Q 18.109375 42.671875 18.109375 31.390625 
Q 18.109375 20.125 21.3125 9.0625 
Q 24.515625 -2 31 -13.1875 
L 23.1875 -13.1875 
Q 15.875 -1.703125 12.234375 9.375 
Q 8.59375 20.453125 8.59375 31.390625 
Q 8.59375 42.28125 12.203125 53.3125 
Q 15.828125 64.359375 23.1875 75.875 
z
" id="DejaVuSans-40"/>
      <path d="M 44.28125 53.078125 
L 44.28125 44.578125 
Q 40.484375 46.53125 36.375 47.5 
Q 32.28125 48.484375 27.875 48.484375 
Q 21.1875 48.484375 17.84375 46.4375 
Q 14.5 44.390625 14.5 40.28125 
Q 14.5 37.15625 16.890625 35.375 
Q 19.28125 33.59375 26.515625 31.984375 
L 29.59375 31.296875 
Q 39.15625 29.25 43.1875 25.515625 
Q 47.21875 21.78125 47.21875 15.09375 
Q 47.21875 7.46875 41.1875 3.015625 
Q 35.15625 -1.421875 24.609375 -1.421875 
Q 20.21875 -1.421875 15.453125 -0.5625 
Q 10.6875 0.296875 5.421875 2 
L 5.421875 11.28125 
Q 10.40625 8.6875 15.234375 7.390625 
Q 20.0625 6.109375 24.8125 6.109375 
Q 31.15625 6.109375 34.5625 8.28125 
Q 37.984375 10.453125 37.984375 14.40625 
Q 37.984375 18.0625 35.515625 20.015625 
Q 33.0625 21.96875 24.703125 23.78125 
L 21.578125 24.515625 
Q 13.234375 26.265625 9.515625 29.90625 
Q 5.8125 33.546875 5.8125 39.890625 
Q 5.8125 47.609375 11.28125 51.796875 
Q 16.75 56 26.8125 56 
Q 31.78125 56 36.171875 55.265625 
Q 40.578125 54.546875 44.28125 53.078125 
z
" id="DejaVuSans-115"/>
      <path d="M 8.015625 75.875 
L 15.828125 75.875 
Q 23.140625 64.359375 26.78125 53.3125 
Q 30.421875 42.28125 30.421875 31.390625 
Q 30.421875 20.453125 26.78125 9.375 
Q 23.140625 -1.703125 15.828125 -13.1875 
L 8.015625 -13.1875 
Q 14.5 -2 17.703125 9.0625 
Q 20.90625 20.125 20.90625 31.390625 
Q 20.90625 42.671875 17.703125 53.65625 
Q 14.5 64.65625 8.015625 75.875 
z
" id="DejaVuSans-41"/>
     </defs>
     <g transform="translate(176.2875 268.034687)scale(0.1 -0.1)">
      <use xlink:href="#DejaVuSans-84"/>
      <use x="61.037109" xlink:href="#DejaVuSans-105"/>
      <use x="88.820312" xlink:href="#DejaVuSans-109"/>
      <use x="186.232422" xlink:href="#DejaVuSans-101"/>
      <use x="247.755859" xlink:href="#DejaVuSans-32"/>
      <use x="279.542969" xlink:href="#DejaVuSans-40"/>
      <use x="318.556641" xlink:href="#DejaVuSans-109"/>
      <use x="415.96875" xlink:href="#DejaVuSans-115"/>
      <use x="468.068359" xlink:href="#DejaVuSans-41"/>
     </g>
    </g>
   </g>
   <g id="matplotlib.axis_2">
    <g id="ytick_1">
     <g id="line2d_8">
      <defs>
       <path d="M 0 0 
L -3.5 0 
" id="md7812fff85" style="stroke:#000000;stroke-width:0.8;"/>
      </defs>
      <g>
       <use style="stroke:#000000;stroke-width:0.8;" x="34.240625" xlink:href="#md7812fff85" y="229.874489"/>
      </g>
     </g>
     <g id="text_9">
      <!-- 0 -->
      <g transform="translate(20.878125 233.673707)scale(0.1 -0.1)">
       <use xlink:href="#DejaVuSans-48"/>
      </g>
     </g>
    </g>
    <g id="ytick_2">
     <g id="line2d_9">
      <g>
       <use style="stroke:#000000;stroke-width:0.8;" x="34.240625" xlink:href="#md7812fff85" y="190.862749"/>
      </g>
     </g>
     <g id="text_10">
      <!-- 1 -->
      <g transform="translate(20.878125 194.661968)scale(0.1 -0.1)">
       <use xlink:href="#DejaVuSans-49"/>
      </g>
     </g>
    </g>
    <g id="ytick_3">
     <g id="line2d_10">
      <g>
       <use style="stroke:#000000;stroke-width:0.8;" x="34.240625" xlink:href="#md7812fff85" y="151.851009"/>
      </g>
     </g>
     <g id="text_11">
      <!-- 2 -->
      <g transform="translate(20.878125 155.650228)scale(0.1 -0.1)">
       <use xlink:href="#DejaVuSans-50"/>
      </g>
     </g>
    </g>
    <g id="ytick_4">
     <g id="line2d_11">
      <g>
       <use style="stroke:#000000;stroke-width:0.8;" x="34.240625" xlink:href="#md7812fff85" y="112.83927"/>
      </g>
     </g>
     <g id="text_12">
      <!-- 3 -->
      <g transform="translate(20.878125 116.638489)scale(0.1 -0.1)">
       <use xlink:href="#DejaVuSans-51"/>
      </g>
     </g>
    </g>
    <g id="ytick_5">
     <g id="line2d_12">
      <g>
       <use style="stroke:#000000;stroke-width:0.8;" x="34.240625" xlink:href="#md7812fff85" y="73.82753"/>
      </g>
     </g>
     <g id="text_13">
      <!-- 4 -->
      <defs>
       <path d="M 37.796875 64.3125 
L 12.890625 25.390625 
L 37.796875 25.390625 
z
M 35.203125 72.90625 
L 47.609375 72.90625 
L 47.609375 25.390625 
L 58.015625 25.390625 
L 58.015625 17.1875 
L 47.609375 17.1875 
L 47.609375 0 
L 37.796875 0 
L 37.796875 17.1875 
L 4.890625 17.1875 
L 4.890625 26.703125 
z
" id="DejaVuSans-52"/>
      </defs>
      <g transform="translate(20.878125 77.626749)scale(0.1 -0.1)">
       <use xlink:href="#DejaVuSans-52"/>
      </g>
     </g>
    </g>
    <g id="ytick_6">
     <g id="line2d_13">
      <g>
       <use style="stroke:#000000;stroke-width:0.8;" x="34.240625" xlink:href="#md7812fff85" y="34.815791"/>
      </g>
     </g>
     <g id="text_14">
      <!-- 5 -->
      <g transform="translate(20.878125 38.615009)scale(0.1 -0.1)">
       <use xlink:href="#DejaVuSans-53"/>
      </g>
     </g>
    </g>
    <g id="text_15">
     <!-- ppmOH -->
     <defs>
      <path d="M 18.109375 8.203125 
L 18.109375 -20.796875 
L 9.078125 -20.796875 
L 9.078125 54.6875 
L 18.109375 54.6875 
L 18.109375 46.390625 
Q 20.953125 51.265625 25.265625 53.625 
Q 29.59375 56 35.59375 56 
Q 45.5625 56 51.78125 48.09375 
Q 58.015625 40.1875 58.015625 27.296875 
Q 58.015625 14.40625 51.78125 6.484375 
Q 45.5625 -1.421875 35.59375 -1.421875 
Q 29.59375 -1.421875 25.265625 0.953125 
Q 20.953125 3.328125 18.109375 8.203125 
z
M 48.6875 27.296875 
Q 48.6875 37.203125 44.609375 42.84375 
Q 40.53125 48.484375 33.40625 48.484375 
Q 26.265625 48.484375 22.1875 42.84375 
Q 18.109375 37.203125 18.109375 27.296875 
Q 18.109375 17.390625 22.1875 11.75 
Q 26.265625 6.109375 33.40625 6.109375 
Q 40.53125 6.109375 44.609375 11.75 
Q 48.6875 17.390625 48.6875 27.296875 
z
" id="DejaVuSans-112"/>
      <path d="M 39.40625 66.21875 
Q 28.65625 66.21875 22.328125 58.203125 
Q 16.015625 50.203125 16.015625 36.375 
Q 16.015625 22.609375 22.328125 14.59375 
Q 28.65625 6.59375 39.40625 6.59375 
Q 50.140625 6.59375 56.421875 14.59375 
Q 62.703125 22.609375 62.703125 36.375 
Q 62.703125 50.203125 56.421875 58.203125 
Q 50.140625 66.21875 39.40625 66.21875 
z
M 39.40625 74.21875 
Q 54.734375 74.21875 63.90625 63.9375 
Q 73.09375 53.65625 73.09375 36.375 
Q 73.09375 19.140625 63.90625 8.859375 
Q 54.734375 -1.421875 39.40625 -1.421875 
Q 24.03125 -1.421875 14.8125 8.828125 
Q 5.609375 19.09375 5.609375 36.375 
Q 5.609375 53.65625 14.8125 63.9375 
Q 24.03125 74.21875 39.40625 74.21875 
z
" id="DejaVuSans-79"/>
      <path d="M 9.8125 72.90625 
L 19.671875 72.90625 
L 19.671875 43.015625 
L 55.515625 43.015625 
L 55.515625 72.90625 
L 65.375 72.90625 
L 65.375 0 
L 55.515625 0 
L 55.515625 34.71875 
L 19.671875 34.71875 
L 19.671875 0 
L 9.8125 0 
z
" id="DejaVuSans-72"/>
     </defs>
     <g transform="translate(14.798437 149.952969)rotate(-90)scale(0.1 -0.1)">
      <use xlink:href="#DejaVuSans-112"/>
      <use x="63.476562" xlink:href="#DejaVuSans-112"/>
      <use x="126.953125" xlink:href="#DejaVuSans-109"/>
      <use x="224.365234" xlink:href="#DejaVuSans-79"/>
      <use x="303.076172" xlink:href="#DejaVuSans-72"/>
     </g>
    </g>
    <g id="text_16">
     <!-- 1e8 -->
     <defs>
      <path d="M 31.78125 34.625 
Q 24.75 34.625 20.71875 30.859375 
Q 16.703125 27.09375 16.703125 20.515625 
Q 16.703125 13.921875 20.71875 10.15625 
Q 24.75 6.390625 31.78125 6.390625 
Q 38.8125 6.390625 42.859375 10.171875 
Q 46.921875 13.96875 46.921875 20.515625 
Q 46.921875 27.09375 42.890625 30.859375 
Q 38.875 34.625 31.78125 34.625 
z
M 21.921875 38.8125 
Q 15.578125 40.375 12.03125 44.71875 
Q 8.5 49.078125 8.5 55.328125 
Q 8.5 64.0625 14.71875 69.140625 
Q 20.953125 74.21875 31.78125 74.21875 
Q 42.671875 74.21875 48.875 69.140625 
Q 55.078125 64.0625 55.078125 55.328125 
Q 55.078125 49.078125 51.53125 44.71875 
Q 48 40.375 41.703125 38.8125 
Q 48.828125 37.15625 52.796875 32.3125 
Q 56.78125 27.484375 56.78125 20.515625 
Q 56.78125 9.90625 50.3125 4.234375 
Q 43.84375 -1.421875 31.78125 -1.421875 
Q 19.734375 -1.421875 13.25 4.234375 
Q 6.78125 9.90625 6.78125 20.515625 
Q 6.78125 27.484375 10.78125 32.3125 
Q 14.796875 37.15625 21.921875 38.8125 
z
M 18.3125 54.390625 
Q 18.3125 48.734375 21.84375 45.5625 
Q 25.390625 42.390625 31.78125 42.390625 
Q 38.140625 42.390625 41.71875 45.5625 
Q 45.3125 48.734375 45.3125 54.390625 
Q 45.3125 60.0625 41.71875 63.234375 
Q 38.140625 66.40625 31.78125 66.40625 
Q 25.390625 66.40625 21.84375 63.234375 
Q 18.3125 60.0625 18.3125 54.390625 
z
" id="DejaVuSans-56"/>
     </defs>
     <g transform="translate(34.240625 19.318125)scale(0.1 -0.1)">
      <use xlink:href="#DejaVuSans-49"/>
      <use x="63.623047" xlink:href="#DejaVuSans-101"/>
      <use x="125.146484" xlink:href="#DejaVuSans-56"/>
     </g>
    </g>
   </g>
   <g id="line2d_14">
    <path clip-path="url(#p2cf9321174)" d="M 49.458807 229.874489 
L 353.822443 229.874489 
L 353.822443 229.874489 
" style="fill:none;stroke:#0000ff;stroke-linecap:square;stroke-width:1.5;"/>
   </g>
   <g id="line2d_15">
    <path clip-path="url(#p2cf9321174)" d="M 49.458807 229.874489 
L 353.299805 229.874489 
L 353.299805 229.874489 
" style="fill:none;stroke:#ff0000;stroke-linecap:square;stroke-width:1.5;"/>
   </g>
   <g id="line2d_16">
    <defs>
     <path d="M 0 3 
C 0.795609 3 1.55874 2.683901 2.12132 2.12132 
C 2.683901 1.55874 3 0.795609 3 0 
C 3 -0.795609 2.683901 -1.55874 2.12132 -2.12132 
C 1.55874 -2.683901 0.795609 -3 0 -3 
C -0.795609 -3 -1.55874 -2.683901 -2.12132 -2.12132 
C -2.683901 -1.55874 -3 -0.795609 -3 0 
C -3 0.795609 -2.683901 1.55874 -2.12132 2.12132 
C -1.55874 2.683901 -0.795609 3 0 3 
z
" id="m75f2264443" style="stroke:#000000;"/>
    </defs>
    <g clip-path="url(#p2cf9321174)">
     <use style="stroke:#000000;" x="50.281074" xlink:href="#m75f2264443" y="229.874487"/>
     <use style="stroke:#000000;" x="50.688177" xlink:href="#m75f2264443" y="229.874487"/>
     <use style="stroke:#000000;" x="50.990481" xlink:href="#m75f2264443" y="229.874487"/>
     <use style="stroke:#000000;" x="51.474168" xlink:href="#m75f2264443" y="229.874487"/>
     <use style="stroke:#000000;" x="51.927624" xlink:href="#m75f2264443" y="229.874487"/>
     <use style="stroke:#000000;" x="52.300466" xlink:href="#m75f2264443" y="229.874487"/>
     <use style="stroke:#000000;" x="52.673307" xlink:href="#m75f2264443" y="229.874487"/>
     <use style="stroke:#000000;" x="53.348453" xlink:href="#m75f2264443" y="229.874487"/>
     <use style="stroke:#000000;" x="53.761602" xlink:href="#m75f2264443" y="229.874487"/>
     <use style="stroke:#000000;" x="54.134444" xlink:href="#m75f2264443" y="229.874487"/>
     <use style="stroke:#000000;" x="54.507286" xlink:href="#m75f2264443" y="229.874487"/>
     <use style="stroke:#000000;" x="55.031279" xlink:href="#m75f2264443" y="229.874487"/>
     <use style="stroke:#000000;" x="55.031279" xlink:href="#m75f2264443" y="229.874487"/>
     <use style="stroke:#000000;" x="55.514966" xlink:href="#m75f2264443" y="229.874487"/>
     <use style="stroke:#000000;" x="55.887808" xlink:href="#m75f2264443" y="229.874487"/>
     <use style="stroke:#000000;" x="56.190112" xlink:href="#m75f2264443" y="229.874487"/>
     <use style="stroke:#000000;" x="56.300957" xlink:href="#m75f2264443" y="229.874487"/>
     <use style="stroke:#000000;" x="56.82495" xlink:href="#m75f2264443" y="229.874487"/>
     <use style="stroke:#000000;" x="57.04664" xlink:href="#m75f2264443" y="229.874487"/>
     <use style="stroke:#000000;" x="57.459789" xlink:href="#m75f2264443" y="229.874487"/>
     <use style="stroke:#000000;" x="57.752016" xlink:href="#m75f2264443" y="229.874487"/>
     <use style="stroke:#000000;" x="57.903168" xlink:href="#m75f2264443" y="229.874487"/>
     <use style="stroke:#000000;" x="58.165165" xlink:href="#m75f2264443" y="229.874487"/>
     <use style="stroke:#000000;" x="58.800004" xlink:href="#m75f2264443" y="229.874487"/>
     <use style="stroke:#000000;" x="59.03177" xlink:href="#m75f2264443" y="229.874487"/>
     <use style="stroke:#000000;" x="59.25346" xlink:href="#m75f2264443" y="229.874487"/>
     <use style="stroke:#000000;" x="59.636379" xlink:href="#m75f2264443" y="229.874487"/>
     <use style="stroke:#000000;" x="60.140219" xlink:href="#m75f2264443" y="229.874487"/>
     <use style="stroke:#000000;" x="60.442523" xlink:href="#m75f2264443" y="229.874487"/>
     <use style="stroke:#000000;" x="60.744827" xlink:href="#m75f2264443" y="229.874487"/>
     <use style="stroke:#000000;" x="61.550971" xlink:href="#m75f2264443" y="229.874487"/>
     <use style="stroke:#000000;" x="61.550971" xlink:href="#m75f2264443" y="229.874487"/>
     <use style="stroke:#000000;" x="62.357116" xlink:href="#m75f2264443" y="229.874487"/>
     <use style="stroke:#000000;" x="62.760188" xlink:href="#m75f2264443" y="229.874487"/>
     <use style="stroke:#000000;" x="62.961724" xlink:href="#m75f2264443" y="229.874487"/>
     <use style="stroke:#000000;" x="63.6671" xlink:href="#m75f2264443" y="229.874487"/>
     <use style="stroke:#000000;" x="63.969404" xlink:href="#m75f2264443" y="229.874487"/>
     <use style="stroke:#000000;" x="64.372477" xlink:href="#m75f2264443" y="229.874487"/>
     <use style="stroke:#000000;" x="64.674781" xlink:href="#m75f2264443" y="229.874487"/>
     <use style="stroke:#000000;" x="65.178621" xlink:href="#m75f2264443" y="229.874487"/>
     <use style="stroke:#000000;" x="65.178621" xlink:href="#m75f2264443" y="229.874487"/>
     <use style="stroke:#000000;" x="65.581693" xlink:href="#m75f2264443" y="229.874487"/>
     <use style="stroke:#000000;" x="66.387837" xlink:href="#m75f2264443" y="229.874487"/>
     <use style="stroke:#000000;" x="67.093214" xlink:href="#m75f2264443" y="229.874487"/>
     <use style="stroke:#000000;" x="67.496286" xlink:href="#m75f2264443" y="229.874487"/>
     <use style="stroke:#000000;" x="68.000126" xlink:href="#m75f2264443" y="229.874487"/>
     <use style="stroke:#000000;" x="68.30243" xlink:href="#m75f2264443" y="229.874487"/>
     <use style="stroke:#000000;" x="68.907038" xlink:href="#m75f2264443" y="229.874487"/>
     <use style="stroke:#000000;" x="69.410878" xlink:href="#m75f2264443" y="229.874487"/>
     <use style="stroke:#000000;" x="70.015487" xlink:href="#m75f2264443" y="229.874487"/>
     <use style="stroke:#000000;" x="70.821631" xlink:href="#m75f2264443" y="229.874487"/>
     <use style="stroke:#000000;" x="71.224703" xlink:href="#m75f2264443" y="229.874487"/>
     <use style="stroke:#000000;" x="71.426239" xlink:href="#m75f2264443" y="229.874487"/>
     <use style="stroke:#000000;" x="71.930079" xlink:href="#m75f2264443" y="229.874487"/>
     <use style="stroke:#000000;" x="72.131616" xlink:href="#m75f2264443" y="229.874487"/>
     <use style="stroke:#000000;" x="72.534688" xlink:href="#m75f2264443" y="229.874487"/>
     <use style="stroke:#000000;" x="72.736224" xlink:href="#m75f2264443" y="229.874487"/>
     <use style="stroke:#000000;" x="73.038528" xlink:href="#m75f2264443" y="229.874487"/>
     <use style="stroke:#000000;" x="73.340832" xlink:href="#m75f2264443" y="229.874487"/>
     <use style="stroke:#000000;" x="73.743904" xlink:href="#m75f2264443" y="229.874487"/>
     <use style="stroke:#000000;" x="74.046208" xlink:href="#m75f2264443" y="229.874487"/>
     <use style="stroke:#000000;" x="74.44928" xlink:href="#m75f2264443" y="229.874487"/>
     <use style="stroke:#000000;" x="74.650816" xlink:href="#m75f2264443" y="229.874487"/>
     <use style="stroke:#000000;" x="74.953121" xlink:href="#m75f2264443" y="229.874487"/>
     <use style="stroke:#000000;" x="75.557729" xlink:href="#m75f2264443" y="229.874487"/>
     <use style="stroke:#000000;" x="75.759265" xlink:href="#m75f2264443" y="229.874487"/>
     <use style="stroke:#000000;" x="75.860033" xlink:href="#m75f2264443" y="229.874487"/>
     <use style="stroke:#000000;" x="76.263105" xlink:href="#m75f2264443" y="229.874487"/>
     <use style="stroke:#000000;" x="76.363873" xlink:href="#m75f2264443" y="229.874487"/>
     <use style="stroke:#000000;" x="76.666177" xlink:href="#m75f2264443" y="229.874487"/>
     <use style="stroke:#000000;" x="76.766945" xlink:href="#m75f2264443" y="229.874487"/>
     <use style="stroke:#000000;" x="77.170017" xlink:href="#m75f2264443" y="229.874487"/>
     <use style="stroke:#000000;" x="77.270786" xlink:href="#m75f2264443" y="229.874487"/>
     <use style="stroke:#000000;" x="77.371554" xlink:href="#m75f2264443" y="229.874487"/>
     <use style="stroke:#000000;" x="77.371554" xlink:href="#m75f2264443" y="229.874487"/>
     <use style="stroke:#000000;" x="77.774626" xlink:href="#m75f2264443" y="229.874487"/>
     <use style="stroke:#000000;" x="77.976162" xlink:href="#m75f2264443" y="229.874487"/>
     <use style="stroke:#000000;" x="78.07693" xlink:href="#m75f2264443" y="229.874487"/>
     <use style="stroke:#000000;" x="78.278466" xlink:href="#m75f2264443" y="229.874487"/>
     <use style="stroke:#000000;" x="78.782306" xlink:href="#m75f2264443" y="229.874487"/>
     <use style="stroke:#000000;" x="79.386914" xlink:href="#m75f2264443" y="229.874487"/>
     <use style="stroke:#000000;" x="79.286146" xlink:href="#m75f2264443" y="229.874487"/>
     <use style="stroke:#000000;" x="79.890755" xlink:href="#m75f2264443" y="229.874487"/>
     <use style="stroke:#000000;" x="79.991523" xlink:href="#m75f2264443" y="229.874487"/>
     <use style="stroke:#000000;" x="80.596131" xlink:href="#m75f2264443" y="229.874487"/>
     <use style="stroke:#000000;" x="80.999203" xlink:href="#m75f2264443" y="229.874487"/>
     <use style="stroke:#000000;" x="81.603811" xlink:href="#m75f2264443" y="229.874487"/>
     <use style="stroke:#000000;" x="82.309187" xlink:href="#m75f2264443" y="229.874487"/>
     <use style="stroke:#000000;" x="82.813028" xlink:href="#m75f2264443" y="229.874487"/>
     <use style="stroke:#000000;" x="83.417636" xlink:href="#m75f2264443" y="229.874487"/>
     <use style="stroke:#000000;" x="83.619172" xlink:href="#m75f2264443" y="229.874487"/>
     <use style="stroke:#000000;" x="84.324548" xlink:href="#m75f2264443" y="229.874487"/>
     <use style="stroke:#000000;" x="84.72762" xlink:href="#m75f2264443" y="229.874488"/>
     <use style="stroke:#000000;" x="85.735301" xlink:href="#m75f2264443" y="229.874488"/>
     <use style="stroke:#000000;" x="86.138373" xlink:href="#m75f2264443" y="229.874488"/>
     <use style="stroke:#000000;" x="86.541445" xlink:href="#m75f2264443" y="229.874488"/>
     <use style="stroke:#000000;" x="87.146053" xlink:href="#m75f2264443" y="229.874488"/>
     <use style="stroke:#000000;" x="87.448357" xlink:href="#m75f2264443" y="229.874488"/>
     <use style="stroke:#000000;" x="87.952198" xlink:href="#m75f2264443" y="229.874488"/>
     <use style="stroke:#000000;" x="88.35527" xlink:href="#m75f2264443" y="229.874488"/>
     <use style="stroke:#000000;" x="89.262182" xlink:href="#m75f2264443" y="229.874488"/>
     <use style="stroke:#000000;" x="89.564486" xlink:href="#m75f2264443" y="229.874488"/>
     <use style="stroke:#000000;" x="90.572167" xlink:href="#m75f2264443" y="229.874488"/>
     <use style="stroke:#000000;" x="91.176775" xlink:href="#m75f2264443" y="229.874488"/>
     <use style="stroke:#000000;" x="91.277543" xlink:href="#m75f2264443" y="229.874488"/>
     <use style="stroke:#000000;" x="92.184455" xlink:href="#m75f2264443" y="229.874488"/>
     <use style="stroke:#000000;" x="92.486759" xlink:href="#m75f2264443" y="229.874488"/>
     <use style="stroke:#000000;" x="93.595208" xlink:href="#m75f2264443" y="229.874488"/>
     <use style="stroke:#000000;" x="94.804424" xlink:href="#m75f2264443" y="229.874488"/>
     <use style="stroke:#000000;" x="95.207496" xlink:href="#m75f2264443" y="229.874488"/>
     <use style="stroke:#000000;" x="96.215177" xlink:href="#m75f2264443" y="229.874488"/>
     <use style="stroke:#000000;" x="96.719017" xlink:href="#m75f2264443" y="229.874488"/>
     <use style="stroke:#000000;" x="97.625929" xlink:href="#m75f2264443" y="229.874488"/>
     <use style="stroke:#000000;" x="98.12977" xlink:href="#m75f2264443" y="229.874488"/>
    </g>
   </g>
   <g id="line2d_17">
    <path clip-path="url(#p2cf9321174)" d="M 50.281074 220.729976 
L 50.688177 219.605473 
L 50.990481 219.297343 
L 51.474168 217.718474 
L 51.927624 215.074217 
L 52.300466 212.215603 
L 52.673307 208.915923 
L 53.348453 202.489367 
L 53.761602 198.713213 
L 54.134444 195.650311 
L 54.507286 193.033135 
L 55.031279 190.212425 
L 55.031279 190.212425 
L 55.514966 188.521524 
L 55.887808 187.775337 
L 56.190112 187.487853 
L 56.300957 187.450162 
L 56.82495 187.694541 
L 57.04664 187.979902 
L 57.459789 188.754505 
L 57.752016 189.459679 
L 57.903168 189.868445 
L 58.165165 190.634507 
L 58.800004 192.734438 
L 59.03177 193.566849 
L 59.25346 194.380739 
L 59.636379 195.821011 
L 60.140219 197.752843 
L 60.442523 198.916555 
L 60.744827 200.073367 
L 61.550971 203.089858 
L 61.550971 203.089858 
L 62.357116 205.943192 
L 62.760188 207.29523 
L 62.961724 207.949914 
L 63.6671 210.13117 
L 63.969404 211.010133 
L 64.372477 212.130955 
L 64.674781 212.934827 
L 65.178621 214.202293 
L 65.178621 214.202293 
L 65.581693 215.153707 
L 66.387837 216.897417 
L 67.093214 218.259587 
L 67.496286 218.974006 
L 68.000126 219.806082 
L 68.30243 220.274789 
L 68.907038 221.146488 
L 69.410878 221.811197 
L 70.015487 222.540634 
L 70.821631 223.408192 
L 71.224703 223.800435 
L 71.426239 223.987271 
L 71.930079 224.42851 
L 72.131616 224.594934 
L 72.534688 224.911887 
L 72.736224 225.062802 
L 73.038528 225.279823 
L 73.340832 225.486399 
L 73.743904 225.746506 
L 74.046208 225.93069 
L 74.44928 226.162613 
L 74.650816 226.273049 
L 74.953121 226.431947 
L 75.557729 226.727556 
L 75.759265 226.819671 
L 75.860033 226.86474 
L 76.263105 227.037741 
L 76.363873 227.079357 
L 76.666177 227.199872 
L 76.766945 227.23888 
L 77.170017 227.388464 
L 77.270786 227.424303 
L 77.371554 227.45964 
L 77.371554 227.45964 
L 77.774626 227.595582 
L 77.976162 227.660488 
L 78.07693 227.692013 
L 78.278466 227.753763 
L 78.782306 227.899922 
L 79.386914 228.060618 
L 79.286146 228.034882 
L 79.890755 228.183424 
L 79.991523 228.206901 
L 80.596131 228.340249 
L 80.999203 228.422539 
L 81.603811 228.536843 
L 82.309187 228.65759 
L 82.813028 228.736411 
L 83.417636 228.823474 
L 83.619172 228.850765 
L 84.324548 228.940288 
L 84.72762 228.987425 
L 85.735301 229.093988 
L 86.138373 229.132359 
L 86.541445 229.168667 
L 87.146053 229.219426 
L 87.448357 229.243262 
L 87.952198 229.280701 
L 88.35527 229.308847 
L 89.262182 229.366795 
L 89.564486 229.384535 
L 90.572167 229.438751 
L 91.176775 229.468 
L 91.277543 229.472637 
L 92.184455 229.511649 
L 92.486759 229.523681 
L 93.595208 229.564154 
L 94.804424 229.601901 
L 95.207496 229.61337 
L 96.215177 229.639687 
L 96.719017 229.651417 
L 97.625929 229.671173 
L 98.12977 229.681372 
" style="fill:none;stroke:#0000ff;stroke-dasharray:5.55,2.4;stroke-dashoffset:0;stroke-width:1.5;"/>
   </g>
   <g id="line2d_18">
    <path clip-path="url(#p2cf9321174)" d="M 50.281074 229.874489 
L 50.688177 229.874489 
L 50.990481 229.874489 
L 51.474168 229.874489 
L 51.927624 229.874489 
L 52.300466 229.874489 
L 52.673307 229.874489 
L 53.348453 229.874489 
L 53.761602 229.874489 
L 54.134444 229.874489 
L 54.507286 229.874489 
L 55.031279 229.874489 
L 55.031279 229.874489 
L 55.514966 229.874489 
L 55.887808 229.874489 
L 56.190112 229.874489 
L 56.300957 229.874489 
L 56.82495 229.874489 
L 57.04664 229.874489 
L 57.459789 229.874489 
L 57.752016 229.874489 
L 57.903168 229.874489 
L 58.165165 229.874489 
L 58.800004 229.874489 
L 59.03177 229.874489 
L 59.25346 229.874489 
L 59.636379 229.874489 
L 60.140219 229.874489 
L 60.442523 229.874489 
L 60.744827 229.874489 
L 61.550971 229.874489 
L 61.550971 229.874489 
L 62.357116 229.874489 
L 62.760188 229.874489 
L 62.961724 229.874489 
L 63.6671 229.874489 
L 63.969404 229.874489 
L 64.372477 229.874489 
L 64.674781 229.874489 
L 65.178621 229.874489 
L 65.178621 229.874489 
L 65.581693 229.874489 
L 66.387837 229.874489 
L 67.093214 229.874489 
L 67.496286 229.874489 
L 68.000126 229.874489 
L 68.30243 229.874489 
L 68.907038 229.874489 
L 69.410878 229.874489 
L 70.015487 229.874489 
L 70.821631 229.874489 
L 71.224703 229.874489 
L 71.426239 229.874489 
L 71.930079 229.874489 
L 72.131616 229.874489 
L 72.534688 229.874489 
L 72.736224 229.874489 
L 73.038528 229.874489 
L 73.340832 229.874489 
L 73.743904 229.874489 
L 74.046208 229.874489 
L 74.44928 229.874489 
L 74.650816 229.874489 
L 74.953121 229.874489 
L 75.557729 229.874489 
L 75.759265 229.874489 
L 75.860033 229.874489 
L 76.263105 229.874489 
L 76.363873 229.874489 
L 76.666177 229.874489 
L 76.766945 229.874489 
L 77.170017 229.874489 
L 77.270786 229.874489 
L 77.371554 229.874489 
L 77.371554 229.874489 
L 77.774626 229.874489 
L 77.976162 229.874489 
L 78.07693 229.874489 
L 78.278466 229.874489 
L 78.782306 229.874489 
L 79.386914 229.874489 
L 79.286146 229.874489 
L 79.890755 229.874489 
L 79.991523 229.874489 
L 80.596131 229.874489 
L 80.999203 229.874489 
L 81.603811 229.874489 
L 82.309187 229.874489 
L 82.813028 229.874489 
L 83.417636 229.874489 
L 83.619172 229.874489 
L 84.324548 229.874489 
L 84.72762 229.874489 
L 85.735301 229.874489 
L 86.138373 229.874489 
L 86.541445 229.874489 
L 87.146053 229.874489 
L 87.448357 229.874489 
L 87.952198 229.874489 
L 88.35527 229.874489 
L 89.262182 229.874489 
L 89.564486 229.874489 
L 90.572167 229.874489 
L 91.176775 229.874489 
L 91.277543 229.874489 
L 92.184455 229.874489 
L 92.486759 229.874489 
L 93.595208 229.874489 
L 94.804424 229.874489 
L 95.207496 229.874489 
L 96.215177 229.874489 
L 96.719017 229.874489 
L 97.625929 229.874489 
L 98.12977 229.874489 
" style="fill:none;stroke:#0000ff;stroke-dasharray:5.55,2.4;stroke-dashoffset:0;stroke-width:1.5;"/>
   </g>
   <g id="line2d_19">
    <path clip-path="url(#p2cf9321174)" d="M 50.281074 173.588584 
L 50.688177 158.197516 
L 50.990481 155.486273 
L 51.474168 144.659168 
L 51.927624 127.611473 
L 52.300466 110.652392 
L 52.673307 92.879165 
L 53.348453 63.546544 
L 53.761602 49.722278 
L 54.134444 40.664359 
L 54.507286 34.952828 
L 55.031279 32.201761 
L 55.031279 32.201761 
L 55.514966 34.313042 
L 55.887808 38.370771 
L 56.190112 42.867644 
L 56.300957 44.739937 
L 56.82495 54.877078 
L 57.04664 59.646179 
L 57.459789 69.014801 
L 57.752016 75.856618 
L 57.903168 79.431836 
L 58.165165 85.640471 
L 58.800004 100.518075 
L 59.03177 105.807998 
L 59.25346 110.759698 
L 59.636379 119.053039 
L 60.140219 129.364309 
L 60.442523 135.206178 
L 60.744827 140.774415 
L 61.550971 154.295209 
L 61.550971 154.295209 
L 62.357116 165.940409 
L 62.760188 171.105922 
L 62.961724 173.533879 
L 63.6671 181.275549 
L 63.969404 184.256355 
L 64.372477 187.942491 
L 64.674781 190.506286 
L 65.178621 194.419168 
L 65.178621 194.419168 
L 65.581693 197.256178 
L 66.387837 202.230586 
L 67.093214 205.91718 
L 67.496286 207.780701 
L 68.000126 209.89293 
L 68.30243 211.054767 
L 68.907038 213.16167 
L 69.410878 214.719977 
L 70.015487 216.380333 
L 70.821631 218.288846 
L 71.224703 219.128328 
L 71.426239 219.522737 
L 71.930079 220.439338 
L 72.131616 220.780548 
L 72.534688 221.421409 
L 72.736224 221.723194 
L 73.038528 222.153262 
L 73.340832 222.558006 
L 73.743904 223.06075 
L 74.046208 223.412034 
L 74.44928 223.848914 
L 74.650816 224.055056 
L 74.953121 224.349373 
L 75.557729 224.888999 
L 75.759265 225.054686 
L 75.860033 225.135511 
L 76.263105 225.443498 
L 76.363873 225.516974 
L 76.666177 225.729163 
L 76.766945 225.797152 
L 77.170017 226.057212 
L 77.270786 226.119109 
L 77.371554 226.180032 
L 77.371554 226.180032 
L 77.774626 226.412301 
L 77.976162 226.522465 
L 78.07693 226.57589 
L 78.278466 226.679608 
L 78.782306 226.92368 
L 79.386914 227.188994 
L 79.286146 227.146676 
L 79.890755 227.389139 
L 79.991523 227.427255 
L 80.596131 227.64138 
L 80.999203 227.772358 
L 81.603811 227.95225 
L 82.309187 228.140278 
L 82.813028 228.261666 
L 83.417636 228.394533 
L 83.619172 228.435948 
L 84.324548 228.570762 
L 84.72762 228.641125 
L 85.735301 228.798505 
L 86.138373 228.855051 
L 86.541445 228.907936 
L 87.146053 228.981567 
L 87.448357 229.015758 
L 87.952198 229.069523 
L 88.35527 229.109685 
L 89.262182 229.19183 
L 89.564486 229.216722 
L 90.572167 229.292782 
L 91.176775 229.333309 
L 91.277543 229.339751 
L 92.184455 229.39373 
L 92.486759 229.410266 
L 93.595208 229.465646 
L 94.804424 229.516824 
L 95.207496 229.532178 
L 96.215177 229.567703 
L 96.719017 229.583877 
L 97.625929 229.60965 
L 98.12977 229.62273 
" style="fill:none;stroke:#ff0000;stroke-dasharray:5.55,2.4;stroke-dashoffset:0;stroke-width:1.5;"/>
   </g>
   <g id="line2d_20">
    <path clip-path="url(#p2cf9321174)" d="M 50.281074 229.874489 
L 50.688177 229.874489 
L 50.990481 229.874489 
L 51.474168 229.874489 
L 51.927624 229.874489 
L 52.300466 229.874489 
L 52.673307 229.874489 
L 53.348453 229.874489 
L 53.761602 229.874489 
L 54.134444 229.874489 
L 54.507286 229.874489 
L 55.031279 229.874489 
L 55.031279 229.874489 
L 55.514966 229.874489 
L 55.887808 229.874489 
L 56.190112 229.874489 
L 56.300957 229.874489 
L 56.82495 229.874489 
L 57.04664 229.874489 
L 57.459789 229.874489 
L 57.752016 229.874489 
L 57.903168 229.874489 
L 58.165165 229.874489 
L 58.800004 229.874489 
L 59.03177 229.874489 
L 59.25346 229.874489 
L 59.636379 229.874489 
L 60.140219 229.874489 
L 60.442523 229.874489 
L 60.744827 229.874489 
L 61.550971 229.874489 
L 61.550971 229.874489 
L 62.357116 229.874489 
L 62.760188 229.874489 
L 62.961724 229.874489 
L 63.6671 229.874489 
L 63.969404 229.874489 
L 64.372477 229.874489 
L 64.674781 229.874489 
L 65.178621 229.874489 
L 65.178621 229.874489 
L 65.581693 229.874489 
L 66.387837 229.874489 
L 67.093214 229.874489 
L 67.496286 229.874489 
L 68.000126 229.874489 
L 68.30243 229.874489 
L 68.907038 229.874489 
L 69.410878 229.874489 
L 70.015487 229.874489 
L 70.821631 229.874489 
L 71.224703 229.874489 
L 71.426239 229.874489 
L 71.930079 229.874489 
L 72.131616 229.874489 
L 72.534688 229.874489 
L 72.736224 229.874489 
L 73.038528 229.874489 
L 73.340832 229.874489 
L 73.743904 229.874489 
L 74.046208 229.874489 
L 74.44928 229.874489 
L 74.650816 229.874489 
L 74.953121 229.874489 
L 75.557729 229.874489 
L 75.759265 229.874489 
L 75.860033 229.874489 
L 76.263105 229.874489 
L 76.363873 229.874489 
L 76.666177 229.874489 
L 76.766945 229.874489 
L 77.170017 229.874489 
L 77.270786 229.874489 
L 77.371554 229.874489 
L 77.371554 229.874489 
L 77.774626 229.874489 
L 77.976162 229.874489 
L 78.07693 229.874489 
L 78.278466 229.874489 
L 78.782306 229.874489 
L 79.386914 229.874489 
L 79.286146 229.874489 
L 79.890755 229.874489 
L 79.991523 229.874489 
L 80.596131 229.874489 
L 80.999203 229.874489 
L 81.603811 229.874489 
L 82.309187 229.874489 
L 82.813028 229.874489 
L 83.417636 229.874489 
L 83.619172 229.874489 
L 84.324548 229.874489 
L 84.72762 229.874489 
L 85.735301 229.874489 
L 86.138373 229.874489 
L 86.541445 229.874489 
L 87.146053 229.874489 
L 87.448357 229.874489 
L 87.952198 229.874489 
L 88.35527 229.874489 
L 89.262182 229.874489 
L 89.564486 229.874489 
L 90.572167 229.874489 
L 91.176775 229.874489 
L 91.277543 229.874489 
L 92.184455 229.874489 
L 92.486759 229.874489 
L 93.595208 229.874489 
L 94.804424 229.874489 
L 95.207496 229.874489 
L 96.215177 229.874489 
L 96.719017 229.874489 
L 97.625929 229.874489 
L 98.12977 229.874489 
" style="fill:none;stroke:#ff0000;stroke-dasharray:5.55,2.4;stroke-dashoffset:0;stroke-width:1.5;"/>
   </g>
   <g id="line2d_21"/>
   <g id="line2d_22"/>
   <g id="line2d_23"/>
   <g id="line2d_24"/>
   <g id="line2d_25"/>
   <g id="line2d_26"/>
   <g id="line2d_27"/>
   <g id="patch_3">
    <path d="M 34.240625 239.758125 
L 34.240625 22.318125 
" style="fill:none;stroke:#000000;stroke-linecap:square;stroke-linejoin:miter;stroke-width:0.8;"/>
   </g>
   <g id="patch_4">
    <path d="M 369.040625 239.758125 
L 369.040625 22.318125 
" style="fill:none;stroke:#000000;stroke-linecap:square;stroke-linejoin:miter;stroke-width:0.8;"/>
   </g>
   <g id="patch_5">
    <path d="M 34.240625 239.758125 
L 369.040625 239.758125 
" style="fill:none;stroke:#000000;stroke-linecap:square;stroke-linejoin:miter;stroke-width:0.8;"/>
   </g>
   <g id="patch_6">
    <path d="M 34.240625 22.318125 
L 369.040625 22.318125 
" style="fill:none;stroke:#000000;stroke-linecap:square;stroke-linejoin:miter;stroke-width:0.8;"/>
   </g>
   <g id="text_17">
    <!-- Experiment_10 -->
    <defs>
     <path d="M 9.8125 72.90625 
L 55.90625 72.90625 
L 55.90625 64.59375 
L 19.671875 64.59375 
L 19.671875 43.015625 
L 54.390625 43.015625 
L 54.390625 34.71875 
L 19.671875 34.71875 
L 19.671875 8.296875 
L 56.78125 8.296875 
L 56.78125 0 
L 9.8125 0 
z
" id="DejaVuSans-69"/>
     <path d="M 54.890625 54.6875 
L 35.109375 28.078125 
L 55.90625 0 
L 45.3125 0 
L 29.390625 21.484375 
L 13.484375 0 
L 2.875 0 
L 24.125 28.609375 
L 4.6875 54.6875 
L 15.28125 54.6875 
L 29.78125 35.203125 
L 44.28125 54.6875 
z
" id="DejaVuSans-120"/>
     <path d="M 41.109375 46.296875 
Q 39.59375 47.171875 37.8125 47.578125 
Q 36.03125 48 33.890625 48 
Q 26.265625 48 22.1875 43.046875 
Q 18.109375 38.09375 18.109375 28.8125 
L 18.109375 0 
L 9.078125 0 
L 9.078125 54.6875 
L 18.109375 54.6875 
L 18.109375 46.1875 
Q 20.953125 51.171875 25.484375 53.578125 
Q 30.03125 56 36.53125 56 
Q 37.453125 56 38.578125 55.875 
Q 39.703125 55.765625 41.0625 55.515625 
z
" id="DejaVuSans-114"/>
     <path d="M 54.890625 33.015625 
L 54.890625 0 
L 45.90625 0 
L 45.90625 32.71875 
Q 45.90625 40.484375 42.875 44.328125 
Q 39.84375 48.1875 33.796875 48.1875 
Q 26.515625 48.1875 22.3125 43.546875 
Q 18.109375 38.921875 18.109375 30.90625 
L 18.109375 0 
L 9.078125 0 
L 9.078125 54.6875 
L 18.109375 54.6875 
L 18.109375 46.1875 
Q 21.34375 51.125 25.703125 53.5625 
Q 30.078125 56 35.796875 56 
Q 45.21875 56 50.046875 50.171875 
Q 54.890625 44.34375 54.890625 33.015625 
z
" id="DejaVuSans-110"/>
     <path d="M 18.3125 70.21875 
L 18.3125 54.6875 
L 36.8125 54.6875 
L 36.8125 47.703125 
L 18.3125 47.703125 
L 18.3125 18.015625 
Q 18.3125 11.328125 20.140625 9.421875 
Q 21.96875 7.515625 27.59375 7.515625 
L 36.8125 7.515625 
L 36.8125 0 
L 27.59375 0 
Q 17.1875 0 13.234375 3.875 
Q 9.28125 7.765625 9.28125 18.015625 
L 9.28125 47.703125 
L 2.6875 47.703125 
L 2.6875 54.6875 
L 9.28125 54.6875 
L 9.28125 70.21875 
z
" id="DejaVuSans-116"/>
     <path d="M 50.984375 -16.609375 
L 50.984375 -23.578125 
L -0.984375 -23.578125 
L -0.984375 -16.609375 
z
" id="DejaVuSans-95"/>
    </defs>
    <g transform="translate(156.337813 16.318125)scale(0.12 -0.12)">
     <use xlink:href="#DejaVuSans-69"/>
     <use x="63.183594" xlink:href="#DejaVuSans-120"/>
     <use x="122.363281" xlink:href="#DejaVuSans-112"/>
     <use x="185.839844" xlink:href="#DejaVuSans-101"/>
     <use x="247.363281" xlink:href="#DejaVuSans-114"/>
     <use x="288.476562" xlink:href="#DejaVuSans-105"/>
     <use x="316.259766" xlink:href="#DejaVuSans-109"/>
     <use x="413.671875" xlink:href="#DejaVuSans-101"/>
     <use x="475.195312" xlink:href="#DejaVuSans-110"/>
     <use x="538.574219" xlink:href="#DejaVuSans-116"/>
     <use x="577.783203" xlink:href="#DejaVuSans-95"/>
     <use x="627.783203" xlink:href="#DejaVuSans-49"/>
     <use x="691.40625" xlink:href="#DejaVuSans-48"/>
    </g>
   </g>
   <g id="legend_1">
    <g id="patch_7">
     <path d="M 112.282813 103.730625 
L 362.040625 103.730625 
Q 364.040625 103.730625 364.040625 101.730625 
L 364.040625 29.318125 
Q 364.040625 27.318125 362.040625 27.318125 
L 112.282813 27.318125 
Q 110.282813 27.318125 110.282813 29.318125 
L 110.282813 101.730625 
Q 110.282813 103.730625 112.282813 103.730625 
z
" style="fill:#ffffff;opacity:0.8;stroke:#cccccc;stroke-linejoin:miter;"/>
    </g>
    <g id="line2d_28">
     <path d="M 114.282813 35.416562 
L 134.282813 35.416562 
" style="fill:none;stroke:#0000ff;stroke-linecap:square;stroke-width:1.5;"/>
    </g>
    <g id="line2d_29"/>
    <g id="text_18">
     <!-- MSI -->
     <defs>
      <path d="M 9.8125 72.90625 
L 24.515625 72.90625 
L 43.109375 23.296875 
L 61.8125 72.90625 
L 76.515625 72.90625 
L 76.515625 0 
L 66.890625 0 
L 66.890625 64.015625 
L 48.09375 14.015625 
L 38.1875 14.015625 
L 19.390625 64.015625 
L 19.390625 0 
L 9.8125 0 
z
" id="DejaVuSans-77"/>
      <path d="M 53.515625 70.515625 
L 53.515625 60.890625 
Q 47.90625 63.578125 42.921875 64.890625 
Q 37.9375 66.21875 33.296875 66.21875 
Q 25.25 66.21875 20.875 63.09375 
Q 16.5 59.96875 16.5 54.203125 
Q 16.5 49.359375 19.40625 46.890625 
Q 22.3125 44.4375 30.421875 42.921875 
L 36.375 41.703125 
Q 47.40625 39.59375 52.65625 34.296875 
Q 57.90625 29 57.90625 20.125 
Q 57.90625 9.515625 50.796875 4.046875 
Q 43.703125 -1.421875 29.984375 -1.421875 
Q 24.8125 -1.421875 18.96875 -0.25 
Q 13.140625 0.921875 6.890625 3.21875 
L 6.890625 13.375 
Q 12.890625 10.015625 18.65625 8.296875 
Q 24.421875 6.59375 29.984375 6.59375 
Q 38.421875 6.59375 43.015625 9.90625 
Q 47.609375 13.234375 47.609375 19.390625 
Q 47.609375 24.75 44.3125 27.78125 
Q 41.015625 30.8125 33.5 32.328125 
L 27.484375 33.5 
Q 16.453125 35.6875 11.515625 40.375 
Q 6.59375 45.0625 6.59375 53.421875 
Q 6.59375 63.09375 13.40625 68.65625 
Q 20.21875 74.21875 32.171875 74.21875 
Q 37.3125 74.21875 42.625 73.28125 
Q 47.953125 72.359375 53.515625 70.515625 
z
" id="DejaVuSans-83"/>
      <path d="M 9.8125 72.90625 
L 19.671875 72.90625 
L 19.671875 0 
L 9.8125 0 
z
" id="DejaVuSans-73"/>
     </defs>
     <g transform="translate(142.282813 38.916562)scale(0.1 -0.1)">
      <use xlink:href="#DejaVuSans-77"/>
      <use x="86.279297" xlink:href="#DejaVuSans-83"/>
      <use x="149.755859" xlink:href="#DejaVuSans-73"/>
     </g>
    </g>
    <g id="line2d_30">
     <path d="M 114.282813 50.09625 
L 134.282813 50.09625 
" style="fill:none;stroke:#ff0000;stroke-linecap:square;stroke-width:1.5;"/>
    </g>
    <g id="line2d_31"/>
    <g id="text_19">
     <!-- $\it{A priori}$ model -->
     <defs>
      <path d="M 36.8125 72.90625 
L 48 72.90625 
L 61.53125 0 
L 51.21875 0 
L 48.1875 18.703125 
L 15.375 18.703125 
L 5.078125 0 
L -5.328125 0 
z
M 40.375 63.1875 
L 19.921875 26.90625 
L 46.6875 26.90625 
z
" id="DejaVuSans-Oblique-65"/>
      <path d="M 49.609375 33.6875 
Q 49.609375 40.875 46.484375 44.671875 
Q 43.359375 48.484375 37.5 48.484375 
Q 33.5 48.484375 29.859375 46.4375 
Q 26.21875 44.390625 23.390625 40.484375 
Q 20.609375 36.625 18.9375 31.15625 
Q 17.28125 25.6875 17.28125 20.3125 
Q 17.28125 13.484375 20.40625 9.796875 
Q 23.53125 6.109375 29.296875 6.109375 
Q 33.546875 6.109375 37.1875 8.109375 
Q 40.828125 10.109375 43.40625 13.921875 
Q 46.1875 17.921875 47.890625 23.34375 
Q 49.609375 28.765625 49.609375 33.6875 
z
M 21.78125 46.390625 
Q 25.390625 51.125 30.296875 53.5625 
Q 35.203125 56 41.21875 56 
Q 49.609375 56 54.25 50.5 
Q 58.890625 45.015625 58.890625 35.109375 
Q 58.890625 27 56 19.65625 
Q 53.125 12.3125 47.703125 6.5 
Q 44.09375 2.640625 39.546875 0.609375 
Q 35.015625 -1.421875 29.984375 -1.421875 
Q 24.171875 -1.421875 20.21875 1 
Q 16.265625 3.421875 14.3125 8.203125 
L 8.6875 -20.796875 
L -0.296875 -20.796875 
L 14.40625 54.6875 
L 23.390625 54.6875 
z
" id="DejaVuSans-Oblique-112"/>
      <path d="M 44.578125 46.390625 
Q 43.21875 47.125 41.453125 47.515625 
Q 39.703125 47.90625 37.703125 47.90625 
Q 30.515625 47.90625 25.140625 42.453125 
Q 19.78125 37.015625 18.015625 27.875 
L 12.5 0 
L 3.515625 0 
L 14.203125 54.6875 
L 23.1875 54.6875 
L 21.484375 46.1875 
Q 25.046875 50.921875 30 53.453125 
Q 34.96875 56 40.578125 56 
Q 42.046875 56 43.453125 55.828125 
Q 44.875 55.671875 46.296875 55.28125 
z
" id="DejaVuSans-Oblique-114"/>
      <path d="M 18.3125 75.984375 
L 27.296875 75.984375 
L 25.09375 64.59375 
L 16.109375 64.59375 
z
M 14.203125 54.6875 
L 23.1875 54.6875 
L 12.5 0 
L 3.515625 0 
z
" id="DejaVuSans-Oblique-105"/>
      <path d="M 25.390625 -1.421875 
Q 15.765625 -1.421875 10.171875 4.515625 
Q 4.59375 10.453125 4.59375 20.703125 
Q 4.59375 26.65625 6.515625 32.828125 
Q 8.453125 39.015625 11.53125 43.21875 
Q 16.359375 49.75 22.3125 52.875 
Q 28.265625 56 35.796875 56 
Q 45.125 56 50.859375 50.1875 
Q 56.59375 44.390625 56.59375 35.015625 
Q 56.59375 28.515625 54.6875 22.0625 
Q 52.78125 15.625 49.703125 11.375 
Q 44.921875 4.828125 38.96875 1.703125 
Q 33.015625 -1.421875 25.390625 -1.421875 
z
M 13.921875 21 
Q 13.921875 13.578125 17.015625 9.890625 
Q 20.125 6.203125 26.421875 6.203125 
Q 35.453125 6.203125 41.375 14.078125 
Q 47.3125 21.96875 47.3125 34.078125 
Q 47.3125 41.15625 44.140625 44.765625 
Q 40.96875 48.390625 34.8125 48.390625 
Q 29.734375 48.390625 25.78125 46.015625 
Q 21.828125 43.65625 18.703125 38.8125 
Q 16.40625 35.203125 15.15625 30.5625 
Q 13.921875 25.921875 13.921875 21 
z
" id="DejaVuSans-Oblique-111"/>
      <path d="M 30.609375 48.390625 
Q 23.390625 48.390625 19.1875 42.75 
Q 14.984375 37.109375 14.984375 27.296875 
Q 14.984375 17.484375 19.15625 11.84375 
Q 23.34375 6.203125 30.609375 6.203125 
Q 37.796875 6.203125 41.984375 11.859375 
Q 46.1875 17.53125 46.1875 27.296875 
Q 46.1875 37.015625 41.984375 42.703125 
Q 37.796875 48.390625 30.609375 48.390625 
z
M 30.609375 56 
Q 42.328125 56 49.015625 48.375 
Q 55.71875 40.765625 55.71875 27.296875 
Q 55.71875 13.875 49.015625 6.21875 
Q 42.328125 -1.421875 30.609375 -1.421875 
Q 18.84375 -1.421875 12.171875 6.21875 
Q 5.515625 13.875 5.515625 27.296875 
Q 5.515625 40.765625 12.171875 48.375 
Q 18.84375 56 30.609375 56 
z
" id="DejaVuSans-111"/>
      <path d="M 45.40625 46.390625 
L 45.40625 75.984375 
L 54.390625 75.984375 
L 54.390625 0 
L 45.40625 0 
L 45.40625 8.203125 
Q 42.578125 3.328125 38.25 0.953125 
Q 33.9375 -1.421875 27.875 -1.421875 
Q 17.96875 -1.421875 11.734375 6.484375 
Q 5.515625 14.40625 5.515625 27.296875 
Q 5.515625 40.1875 11.734375 48.09375 
Q 17.96875 56 27.875 56 
Q 33.9375 56 38.25 53.625 
Q 42.578125 51.265625 45.40625 46.390625 
z
M 14.796875 27.296875 
Q 14.796875 17.390625 18.875 11.75 
Q 22.953125 6.109375 30.078125 6.109375 
Q 37.203125 6.109375 41.296875 11.75 
Q 45.40625 17.390625 45.40625 27.296875 
Q 45.40625 37.203125 41.296875 42.84375 
Q 37.203125 48.484375 30.078125 48.484375 
Q 22.953125 48.484375 18.875 42.84375 
Q 14.796875 37.203125 14.796875 27.296875 
z
" id="DejaVuSans-100"/>
      <path d="M 9.421875 75.984375 
L 18.40625 75.984375 
L 18.40625 0 
L 9.421875 0 
z
" id="DejaVuSans-108"/>
     </defs>
     <g transform="translate(142.282813 53.59625)scale(0.1 -0.1)">
      <use transform="translate(0 0.015625)" xlink:href="#DejaVuSans-Oblique-65"/>
      <use transform="translate(68.408203 0.015625)" xlink:href="#DejaVuSans-Oblique-112"/>
      <use transform="translate(131.884766 0.015625)" xlink:href="#DejaVuSans-Oblique-114"/>
      <use transform="translate(172.998047 0.015625)" xlink:href="#DejaVuSans-Oblique-105"/>
      <use transform="translate(200.78125 0.015625)" xlink:href="#DejaVuSans-Oblique-111"/>
      <use transform="translate(261.962891 0.015625)" xlink:href="#DejaVuSans-Oblique-114"/>
      <use transform="translate(303.076172 0.015625)" xlink:href="#DejaVuSans-Oblique-105"/>
      <use transform="translate(330.859375 0.015625)" xlink:href="#DejaVuSans-32"/>
      <use transform="translate(362.646484 0.015625)" xlink:href="#DejaVuSans-109"/>
      <use transform="translate(460.058594 0.015625)" xlink:href="#DejaVuSans-111"/>
      <use transform="translate(521.240234 0.015625)" xlink:href="#DejaVuSans-100"/>
      <use transform="translate(584.716797 0.015625)" xlink:href="#DejaVuSans-101"/>
      <use transform="translate(646.240234 0.015625)" xlink:href="#DejaVuSans-108"/>
     </g>
    </g>
    <g id="line2d_32"/>
    <g id="line2d_33">
     <g>
      <use style="stroke:#000000;" x="124.282813" xlink:href="#m75f2264443" y="64.794688"/>
     </g>
    </g>
    <g id="text_20">
     <!-- Experimental Data -->
     <defs>
      <path d="M 34.28125 27.484375 
Q 23.390625 27.484375 19.1875 25 
Q 14.984375 22.515625 14.984375 16.5 
Q 14.984375 11.71875 18.140625 8.90625 
Q 21.296875 6.109375 26.703125 6.109375 
Q 34.1875 6.109375 38.703125 11.40625 
Q 43.21875 16.703125 43.21875 25.484375 
L 43.21875 27.484375 
z
M 52.203125 31.203125 
L 52.203125 0 
L 43.21875 0 
L 43.21875 8.296875 
Q 40.140625 3.328125 35.546875 0.953125 
Q 30.953125 -1.421875 24.3125 -1.421875 
Q 15.921875 -1.421875 10.953125 3.296875 
Q 6 8.015625 6 15.921875 
Q 6 25.140625 12.171875 29.828125 
Q 18.359375 34.515625 30.609375 34.515625 
L 43.21875 34.515625 
L 43.21875 35.40625 
Q 43.21875 41.609375 39.140625 45 
Q 35.0625 48.390625 27.6875 48.390625 
Q 23 48.390625 18.546875 47.265625 
Q 14.109375 46.140625 10.015625 43.890625 
L 10.015625 52.203125 
Q 14.9375 54.109375 19.578125 55.046875 
Q 24.21875 56 28.609375 56 
Q 40.484375 56 46.34375 49.84375 
Q 52.203125 43.703125 52.203125 31.203125 
z
" id="DejaVuSans-97"/>
      <path d="M 19.671875 64.796875 
L 19.671875 8.109375 
L 31.59375 8.109375 
Q 46.6875 8.109375 53.6875 14.9375 
Q 60.6875 21.78125 60.6875 36.53125 
Q 60.6875 51.171875 53.6875 57.984375 
Q 46.6875 64.796875 31.59375 64.796875 
z
M 9.8125 72.90625 
L 30.078125 72.90625 
Q 51.265625 72.90625 61.171875 64.09375 
Q 71.09375 55.28125 71.09375 36.53125 
Q 71.09375 17.671875 61.125 8.828125 
Q 51.171875 0 30.078125 0 
L 9.8125 0 
z
" id="DejaVuSans-68"/>
     </defs>
     <g transform="translate(142.282813 68.294688)scale(0.1 -0.1)">
      <use xlink:href="#DejaVuSans-69"/>
      <use x="63.183594" xlink:href="#DejaVuSans-120"/>
      <use x="122.363281" xlink:href="#DejaVuSans-112"/>
      <use x="185.839844" xlink:href="#DejaVuSans-101"/>
      <use x="247.363281" xlink:href="#DejaVuSans-114"/>
      <use x="288.476562" xlink:href="#DejaVuSans-105"/>
      <use x="316.259766" xlink:href="#DejaVuSans-109"/>
      <use x="413.671875" xlink:href="#DejaVuSans-101"/>
      <use x="475.195312" xlink:href="#DejaVuSans-110"/>
      <use x="538.574219" xlink:href="#DejaVuSans-116"/>
      <use x="577.783203" xlink:href="#DejaVuSans-97"/>
      <use x="639.0625" xlink:href="#DejaVuSans-108"/>
      <use x="666.845703" xlink:href="#DejaVuSans-32"/>
      <use x="698.632812" xlink:href="#DejaVuSans-68"/>
      <use x="775.634766" xlink:href="#DejaVuSans-97"/>
      <use x="836.914062" xlink:href="#DejaVuSans-116"/>
      <use x="876.123047" xlink:href="#DejaVuSans-97"/>
     </g>
    </g>
    <g id="line2d_34">
     <path d="M 114.282813 79.472813 
L 134.282813 79.472813 
" style="fill:none;stroke:#ffffff;stroke-linecap:square;stroke-width:1.5;"/>
    </g>
    <g id="line2d_35"/>
    <g id="text_21">
     <!-- T:1103 -->
     <defs>
      <path d="M 11.71875 12.40625 
L 22.015625 12.40625 
L 22.015625 0 
L 11.71875 0 
z
M 11.71875 51.703125 
L 22.015625 51.703125 
L 22.015625 39.3125 
L 11.71875 39.3125 
z
" id="DejaVuSans-58"/>
     </defs>
     <g transform="translate(142.282813 82.972813)scale(0.1 -0.1)">
      <use xlink:href="#DejaVuSans-84"/>
      <use x="60.912109" xlink:href="#DejaVuSans-58"/>
      <use x="94.603516" xlink:href="#DejaVuSans-49"/>
      <use x="158.226562" xlink:href="#DejaVuSans-49"/>
      <use x="221.849609" xlink:href="#DejaVuSans-48"/>
      <use x="285.472656" xlink:href="#DejaVuSans-51"/>
     </g>
    </g>
    <g id="line2d_36">
     <path d="M 114.282813 94.150937 
L 134.282813 94.150937 
" style="fill:none;stroke:#ffffff;stroke-linecap:square;stroke-width:1.5;"/>
    </g>
    <g id="line2d_37"/>
    <g id="text_22">
     <!-- P:3.56 -->
     <defs>
      <path d="M 19.671875 64.796875 
L 19.671875 37.40625 
L 32.078125 37.40625 
Q 38.96875 37.40625 42.71875 40.96875 
Q 46.484375 44.53125 46.484375 51.125 
Q 46.484375 57.671875 42.71875 61.234375 
Q 38.96875 64.796875 32.078125 64.796875 
z
M 9.8125 72.90625 
L 32.078125 72.90625 
Q 44.34375 72.90625 50.609375 67.359375 
Q 56.890625 61.8125 56.890625 51.125 
Q 56.890625 40.328125 50.609375 34.8125 
Q 44.34375 29.296875 32.078125 29.296875 
L 19.671875 29.296875 
L 19.671875 0 
L 9.8125 0 
z
" id="DejaVuSans-80"/>
      <path d="M 33.015625 40.375 
Q 26.375 40.375 22.484375 35.828125 
Q 18.609375 31.296875 18.609375 23.390625 
Q 18.609375 15.53125 22.484375 10.953125 
Q 26.375 6.390625 33.015625 6.390625 
Q 39.65625 6.390625 43.53125 10.953125 
Q 47.40625 15.53125 47.40625 23.390625 
Q 47.40625 31.296875 43.53125 35.828125 
Q 39.65625 40.375 33.015625 40.375 
z
M 52.59375 71.296875 
L 52.59375 62.3125 
Q 48.875 64.0625 45.09375 64.984375 
Q 41.3125 65.921875 37.59375 65.921875 
Q 27.828125 65.921875 22.671875 59.328125 
Q 17.53125 52.734375 16.796875 39.40625 
Q 19.671875 43.65625 24.015625 45.921875 
Q 28.375 48.1875 33.59375 48.1875 
Q 44.578125 48.1875 50.953125 41.515625 
Q 57.328125 34.859375 57.328125 23.390625 
Q 57.328125 12.15625 50.6875 5.359375 
Q 44.046875 -1.421875 33.015625 -1.421875 
Q 20.359375 -1.421875 13.671875 8.265625 
Q 6.984375 17.96875 6.984375 36.375 
Q 6.984375 53.65625 15.1875 63.9375 
Q 23.390625 74.21875 37.203125 74.21875 
Q 40.921875 74.21875 44.703125 73.484375 
Q 48.484375 72.75 52.59375 71.296875 
z
" id="DejaVuSans-54"/>
     </defs>
     <g transform="translate(142.282813 97.650937)scale(0.1 -0.1)">
      <use xlink:href="#DejaVuSans-80"/>
      <use x="60.302734" xlink:href="#DejaVuSans-58"/>
      <use x="93.994141" xlink:href="#DejaVuSans-51"/>
      <use x="157.617188" xlink:href="#DejaVuSans-46"/>
      <use x="189.404297" xlink:href="#DejaVuSans-53"/>
      <use x="253.027344" xlink:href="#DejaVuSans-54"/>
     </g>
    </g>
    <g id="line2d_38">
     <path d="M 256.023438 35.416562 
L 276.023438 35.416562 
" style="fill:none;stroke:#ffffff;stroke-linecap:square;stroke-width:1.5;"/>
    </g>
    <g id="line2d_39"/>
    <g id="text_23">
     <!-- H2O2: 0.00124 -->
     <g transform="translate(284.023438 38.916562)scale(0.1 -0.1)">
      <use xlink:href="#DejaVuSans-72"/>
      <use x="75.195312" xlink:href="#DejaVuSans-50"/>
      <use x="138.818359" xlink:href="#DejaVuSans-79"/>
      <use x="217.529297" xlink:href="#DejaVuSans-50"/>
      <use x="281.152344" xlink:href="#DejaVuSans-58"/>
      <use x="314.84375" xlink:href="#DejaVuSans-32"/>
      <use x="346.630859" xlink:href="#DejaVuSans-48"/>
      <use x="410.253906" xlink:href="#DejaVuSans-46"/>
      <use x="442.041016" xlink:href="#DejaVuSans-48"/>
      <use x="505.664062" xlink:href="#DejaVuSans-48"/>
      <use x="569.287109" xlink:href="#DejaVuSans-49"/>
      <use x="632.910156" xlink:href="#DejaVuSans-50"/>
      <use x="696.533203" xlink:href="#DejaVuSans-52"/>
     </g>
    </g>
    <g id="line2d_40">
     <path d="M 256.023438 50.094687 
L 276.023438 50.094687 
" style="fill:none;stroke:#ffffff;stroke-linecap:square;stroke-width:1.5;"/>
    </g>
    <g id="line2d_41"/>
    <g id="text_24">
     <!-- H2O: 0.00082 -->
     <g transform="translate(284.023438 53.594687)scale(0.1 -0.1)">
      <use xlink:href="#DejaVuSans-72"/>
      <use x="75.195312" xlink:href="#DejaVuSans-50"/>
      <use x="138.818359" xlink:href="#DejaVuSans-79"/>
      <use x="217.513672" xlink:href="#DejaVuSans-58"/>
      <use x="251.205078" xlink:href="#DejaVuSans-32"/>
      <use x="282.992188" xlink:href="#DejaVuSans-48"/>
      <use x="346.615234" xlink:href="#DejaVuSans-46"/>
      <use x="378.402344" xlink:href="#DejaVuSans-48"/>
      <use x="442.025391" xlink:href="#DejaVuSans-48"/>
      <use x="505.648438" xlink:href="#DejaVuSans-48"/>
      <use x="569.271484" xlink:href="#DejaVuSans-56"/>
      <use x="632.894531" xlink:href="#DejaVuSans-50"/>
     </g>
    </g>
    <g id="line2d_42">
     <path d="M 256.023438 64.772812 
L 276.023438 64.772812 
" style="fill:none;stroke:#ffffff;stroke-linecap:square;stroke-width:1.5;"/>
    </g>
    <g id="line2d_43"/>
    <g id="text_25">
     <!-- O2: 0.00041 -->
     <g transform="translate(284.023438 68.272812)scale(0.1 -0.1)">
      <use xlink:href="#DejaVuSans-79"/>
      <use x="78.710938" xlink:href="#DejaVuSans-50"/>
      <use x="142.333984" xlink:href="#DejaVuSans-58"/>
      <use x="176.025391" xlink:href="#DejaVuSans-32"/>
      <use x="207.8125" xlink:href="#DejaVuSans-48"/>
      <use x="271.435547" xlink:href="#DejaVuSans-46"/>
      <use x="303.222656" xlink:href="#DejaVuSans-48"/>
      <use x="366.845703" xlink:href="#DejaVuSans-48"/>
      <use x="430.46875" xlink:href="#DejaVuSans-48"/>
      <use x="494.091797" xlink:href="#DejaVuSans-52"/>
      <use x="557.714844" xlink:href="#DejaVuSans-49"/>
     </g>
    </g>
    <g id="line2d_44">
     <path d="M 256.023438 79.450938 
L 276.023438 79.450938 
" style="fill:none;stroke:#ffffff;stroke-linecap:square;stroke-width:1.5;"/>
    </g>
    <g id="line2d_45"/>
    <g id="text_26">
     <!-- CH4: 0.009975 -->
     <defs>
      <path d="M 64.40625 67.28125 
L 64.40625 56.890625 
Q 59.421875 61.53125 53.78125 63.8125 
Q 48.140625 66.109375 41.796875 66.109375 
Q 29.296875 66.109375 22.65625 58.46875 
Q 16.015625 50.828125 16.015625 36.375 
Q 16.015625 21.96875 22.65625 14.328125 
Q 29.296875 6.6875 41.796875 6.6875 
Q 48.140625 6.6875 53.78125 8.984375 
Q 59.421875 11.28125 64.40625 15.921875 
L 64.40625 5.609375 
Q 59.234375 2.09375 53.4375 0.328125 
Q 47.65625 -1.421875 41.21875 -1.421875 
Q 24.65625 -1.421875 15.125 8.703125 
Q 5.609375 18.84375 5.609375 36.375 
Q 5.609375 53.953125 15.125 64.078125 
Q 24.65625 74.21875 41.21875 74.21875 
Q 47.75 74.21875 53.53125 72.484375 
Q 59.328125 70.75 64.40625 67.28125 
z
" id="DejaVuSans-67"/>
      <path d="M 10.984375 1.515625 
L 10.984375 10.5 
Q 14.703125 8.734375 18.5 7.8125 
Q 22.3125 6.890625 25.984375 6.890625 
Q 35.75 6.890625 40.890625 13.453125 
Q 46.046875 20.015625 46.78125 33.40625 
Q 43.953125 29.203125 39.59375 26.953125 
Q 35.25 24.703125 29.984375 24.703125 
Q 19.046875 24.703125 12.671875 31.3125 
Q 6.296875 37.9375 6.296875 49.421875 
Q 6.296875 60.640625 12.9375 67.421875 
Q 19.578125 74.21875 30.609375 74.21875 
Q 43.265625 74.21875 49.921875 64.515625 
Q 56.59375 54.828125 56.59375 36.375 
Q 56.59375 19.140625 48.40625 8.859375 
Q 40.234375 -1.421875 26.421875 -1.421875 
Q 22.703125 -1.421875 18.890625 -0.6875 
Q 15.09375 0.046875 10.984375 1.515625 
z
M 30.609375 32.421875 
Q 37.25 32.421875 41.125 36.953125 
Q 45.015625 41.5 45.015625 49.421875 
Q 45.015625 57.28125 41.125 61.84375 
Q 37.25 66.40625 30.609375 66.40625 
Q 23.96875 66.40625 20.09375 61.84375 
Q 16.21875 57.28125 16.21875 49.421875 
Q 16.21875 41.5 20.09375 36.953125 
Q 23.96875 32.421875 30.609375 32.421875 
z
" id="DejaVuSans-57"/>
      <path d="M 8.203125 72.90625 
L 55.078125 72.90625 
L 55.078125 68.703125 
L 28.609375 0 
L 18.3125 0 
L 43.21875 64.59375 
L 8.203125 64.59375 
z
" id="DejaVuSans-55"/>
     </defs>
     <g transform="translate(284.023438 82.950938)scale(0.1 -0.1)">
      <use xlink:href="#DejaVuSans-67"/>
      <use x="69.824219" xlink:href="#DejaVuSans-72"/>
      <use x="145.019531" xlink:href="#DejaVuSans-52"/>
      <use x="208.642578" xlink:href="#DejaVuSans-58"/>
      <use x="242.333984" xlink:href="#DejaVuSans-32"/>
      <use x="274.121094" xlink:href="#DejaVuSans-48"/>
      <use x="337.744141" xlink:href="#DejaVuSans-46"/>
      <use x="369.53125" xlink:href="#DejaVuSans-48"/>
      <use x="433.154297" xlink:href="#DejaVuSans-48"/>
      <use x="496.777344" xlink:href="#DejaVuSans-57"/>
      <use x="560.400391" xlink:href="#DejaVuSans-57"/>
      <use x="624.023438" xlink:href="#DejaVuSans-55"/>
      <use x="687.646484" xlink:href="#DejaVuSans-53"/>
     </g>
    </g>
    <g id="line2d_46">
     <path d="M 256.023438 94.129063 
L 276.023438 94.129063 
" style="fill:none;stroke:#ffffff;stroke-linecap:square;stroke-width:1.5;"/>
    </g>
    <g id="line2d_47"/>
    <g id="text_27">
     <!-- Ar: 0.987555 -->
     <defs>
      <path d="M 34.1875 63.1875 
L 20.796875 26.90625 
L 47.609375 26.90625 
z
M 28.609375 72.90625 
L 39.796875 72.90625 
L 67.578125 0 
L 57.328125 0 
L 50.6875 18.703125 
L 17.828125 18.703125 
L 11.1875 0 
L 0.78125 0 
z
" id="DejaVuSans-65"/>
     </defs>
     <g transform="translate(284.023438 97.629063)scale(0.1 -0.1)">
      <use xlink:href="#DejaVuSans-65"/>
      <use x="68.408203" xlink:href="#DejaVuSans-114"/>
      <use x="109.505859" xlink:href="#DejaVuSans-58"/>
      <use x="143.197266" xlink:href="#DejaVuSans-32"/>
      <use x="174.984375" xlink:href="#DejaVuSans-48"/>
      <use x="238.607422" xlink:href="#DejaVuSans-46"/>
      <use x="270.394531" xlink:href="#DejaVuSans-57"/>
      <use x="334.017578" xlink:href="#DejaVuSans-56"/>
      <use x="397.640625" xlink:href="#DejaVuSans-55"/>
      <use x="461.263672" xlink:href="#DejaVuSans-53"/>
      <use x="524.886719" xlink:href="#DejaVuSans-53"/>
      <use x="588.509766" xlink:href="#DejaVuSans-53"/>
     </g>
    </g>
   </g>
  </g>
 </g>
 <defs>
  <clipPath id="p2cf9321174">
   <rect height="217.44" width="334.8" x="34.240625" y="22.318125"/>
  </clipPath>
 </defs>
</svg>
