<?xml version="1.0" encoding="utf-8" standalone="no"?>
<!DOCTYPE svg PUBLIC "-//W3C//DTD SVG 1.1//EN"
  "http://www.w3.org/Graphics/SVG/1.1/DTD/svg11.dtd">
<!-- Created with matplotlib (https://matplotlib.org/) -->
<svg height="277.314375pt" version="1.1" viewBox="0 0 395.478125 277.314375" width="395.478125pt" xmlns="http://www.w3.org/2000/svg" xmlns:xlink="http://www.w3.org/1999/xlink">
 <defs>
  <style type="text/css">
*{stroke-linecap:butt;stroke-linejoin:round;}
  </style>
 </defs>
 <g id="figure_1">
  <g id="patch_1">
   <path d="M 0 277.314375 
L 395.478125 277.314375 
L 395.478125 0 
L 0 0 
z
" style="fill:#ffffff;"/>
  </g>
  <g id="axes_1">
   <g id="patch_2">
    <path d="M 49.978125 239.758125 
L 384.778125 239.758125 
L 384.778125 22.318125 
L 49.978125 22.318125 
z
" style="fill:#ffffff;"/>
   </g>
   <g id="matplotlib.axis_1">
    <g id="xtick_1">
     <g id="line2d_1">
      <defs>
       <path d="M 0 0 
L 0 3.5 
" id="m13d985a289" style="stroke:#000000;stroke-width:0.8;"/>
      </defs>
      <g>
       <use style="stroke:#000000;stroke-width:0.8;" x="104.895912" xlink:href="#m13d985a289" y="239.758125"/>
      </g>
     </g>
     <g id="text_1">
      <!-- 500 -->
      <defs>
       <path d="M 10.796875 72.90625 
L 49.515625 72.90625 
L 49.515625 64.59375 
L 19.828125 64.59375 
L 19.828125 46.734375 
Q 21.96875 47.46875 24.109375 47.828125 
Q 26.265625 48.1875 28.421875 48.1875 
Q 40.625 48.1875 47.75 41.5 
Q 54.890625 34.8125 54.890625 23.390625 
Q 54.890625 11.625 47.5625 5.09375 
Q 40.234375 -1.421875 26.90625 -1.421875 
Q 22.3125 -1.421875 17.546875 -0.640625 
Q 12.796875 0.140625 7.71875 1.703125 
L 7.71875 11.625 
Q 12.109375 9.234375 16.796875 8.0625 
Q 21.484375 6.890625 26.703125 6.890625 
Q 35.15625 6.890625 40.078125 11.328125 
Q 45.015625 15.765625 45.015625 23.390625 
Q 45.015625 31 40.078125 35.4375 
Q 35.15625 39.890625 26.703125 39.890625 
Q 22.75 39.890625 18.8125 39.015625 
Q 14.890625 38.140625 10.796875 36.28125 
z
" id="DejaVuSans-53"/>
       <path d="M 31.78125 66.40625 
Q 24.171875 66.40625 20.328125 58.90625 
Q 16.5 51.421875 16.5 36.375 
Q 16.5 21.390625 20.328125 13.890625 
Q 24.171875 6.390625 31.78125 6.390625 
Q 39.453125 6.390625 43.28125 13.890625 
Q 47.125 21.390625 47.125 36.375 
Q 47.125 51.421875 43.28125 58.90625 
Q 39.453125 66.40625 31.78125 66.40625 
z
M 31.78125 74.21875 
Q 44.046875 74.21875 50.515625 64.515625 
Q 56.984375 54.828125 56.984375 36.375 
Q 56.984375 17.96875 50.515625 8.265625 
Q 44.046875 -1.421875 31.78125 -1.421875 
Q 19.53125 -1.421875 13.0625 8.265625 
Q 6.59375 17.96875 6.59375 36.375 
Q 6.59375 54.828125 13.0625 64.515625 
Q 19.53125 74.21875 31.78125 74.21875 
z
" id="DejaVuSans-48"/>
      </defs>
      <g transform="translate(95.352162 254.356562)scale(0.1 -0.1)">
       <use xlink:href="#DejaVuSans-53"/>
       <use x="63.623047" xlink:href="#DejaVuSans-48"/>
       <use x="127.246094" xlink:href="#DejaVuSans-48"/>
      </g>
     </g>
    </g>
    <g id="xtick_2">
     <g id="line2d_2">
      <g>
       <use style="stroke:#000000;stroke-width:0.8;" x="171.061919" xlink:href="#m13d985a289" y="239.758125"/>
      </g>
     </g>
     <g id="text_2">
      <!-- 1000 -->
      <defs>
       <path d="M 12.40625 8.296875 
L 28.515625 8.296875 
L 28.515625 63.921875 
L 10.984375 60.40625 
L 10.984375 69.390625 
L 28.421875 72.90625 
L 38.28125 72.90625 
L 38.28125 8.296875 
L 54.390625 8.296875 
L 54.390625 0 
L 12.40625 0 
z
" id="DejaVuSans-49"/>
      </defs>
      <g transform="translate(158.336919 254.356562)scale(0.1 -0.1)">
       <use xlink:href="#DejaVuSans-49"/>
       <use x="63.623047" xlink:href="#DejaVuSans-48"/>
       <use x="127.246094" xlink:href="#DejaVuSans-48"/>
       <use x="190.869141" xlink:href="#DejaVuSans-48"/>
      </g>
     </g>
    </g>
    <g id="xtick_3">
     <g id="line2d_3">
      <g>
       <use style="stroke:#000000;stroke-width:0.8;" x="237.227927" xlink:href="#m13d985a289" y="239.758125"/>
      </g>
     </g>
     <g id="text_3">
      <!-- 1500 -->
      <g transform="translate(224.502927 254.356562)scale(0.1 -0.1)">
       <use xlink:href="#DejaVuSans-49"/>
       <use x="63.623047" xlink:href="#DejaVuSans-53"/>
       <use x="127.246094" xlink:href="#DejaVuSans-48"/>
       <use x="190.869141" xlink:href="#DejaVuSans-48"/>
      </g>
     </g>
    </g>
    <g id="xtick_4">
     <g id="line2d_4">
      <g>
       <use style="stroke:#000000;stroke-width:0.8;" x="303.393935" xlink:href="#m13d985a289" y="239.758125"/>
      </g>
     </g>
     <g id="text_4">
      <!-- 2000 -->
      <defs>
       <path d="M 19.1875 8.296875 
L 53.609375 8.296875 
L 53.609375 0 
L 7.328125 0 
L 7.328125 8.296875 
Q 12.9375 14.109375 22.625 23.890625 
Q 32.328125 33.6875 34.8125 36.53125 
Q 39.546875 41.84375 41.421875 45.53125 
Q 43.3125 49.21875 43.3125 52.78125 
Q 43.3125 58.59375 39.234375 62.25 
Q 35.15625 65.921875 28.609375 65.921875 
Q 23.96875 65.921875 18.8125 64.3125 
Q 13.671875 62.703125 7.8125 59.421875 
L 7.8125 69.390625 
Q 13.765625 71.78125 18.9375 73 
Q 24.125 74.21875 28.421875 74.21875 
Q 39.75 74.21875 46.484375 68.546875 
Q 53.21875 62.890625 53.21875 53.421875 
Q 53.21875 48.921875 51.53125 44.890625 
Q 49.859375 40.875 45.40625 35.40625 
Q 44.1875 33.984375 37.640625 27.21875 
Q 31.109375 20.453125 19.1875 8.296875 
z
" id="DejaVuSans-50"/>
      </defs>
      <g transform="translate(290.668935 254.356562)scale(0.1 -0.1)">
       <use xlink:href="#DejaVuSans-50"/>
       <use x="63.623047" xlink:href="#DejaVuSans-48"/>
       <use x="127.246094" xlink:href="#DejaVuSans-48"/>
       <use x="190.869141" xlink:href="#DejaVuSans-48"/>
      </g>
     </g>
    </g>
    <g id="xtick_5">
     <g id="line2d_5">
      <g>
       <use style="stroke:#000000;stroke-width:0.8;" x="369.559943" xlink:href="#m13d985a289" y="239.758125"/>
      </g>
     </g>
     <g id="text_5">
      <!-- 2500 -->
      <g transform="translate(356.834943 254.356562)scale(0.1 -0.1)">
       <use xlink:href="#DejaVuSans-50"/>
       <use x="63.623047" xlink:href="#DejaVuSans-53"/>
       <use x="127.246094" xlink:href="#DejaVuSans-48"/>
       <use x="190.869141" xlink:href="#DejaVuSans-48"/>
      </g>
     </g>
    </g>
    <g id="text_6">
     <!-- Temperature (K) -->
     <defs>
      <path d="M -0.296875 72.90625 
L 61.375 72.90625 
L 61.375 64.59375 
L 35.5 64.59375 
L 35.5 0 
L 25.59375 0 
L 25.59375 64.59375 
L -0.296875 64.59375 
z
" id="DejaVuSans-84"/>
      <path d="M 56.203125 29.59375 
L 56.203125 25.203125 
L 14.890625 25.203125 
Q 15.484375 15.921875 20.484375 11.0625 
Q 25.484375 6.203125 34.421875 6.203125 
Q 39.59375 6.203125 44.453125 7.46875 
Q 49.3125 8.734375 54.109375 11.28125 
L 54.109375 2.78125 
Q 49.265625 0.734375 44.1875 -0.34375 
Q 39.109375 -1.421875 33.890625 -1.421875 
Q 20.796875 -1.421875 13.15625 6.1875 
Q 5.515625 13.8125 5.515625 26.8125 
Q 5.515625 40.234375 12.765625 48.109375 
Q 20.015625 56 32.328125 56 
Q 43.359375 56 49.78125 48.890625 
Q 56.203125 41.796875 56.203125 29.59375 
z
M 47.21875 32.234375 
Q 47.125 39.59375 43.09375 43.984375 
Q 39.0625 48.390625 32.421875 48.390625 
Q 24.90625 48.390625 20.390625 44.140625 
Q 15.875 39.890625 15.1875 32.171875 
z
" id="DejaVuSans-101"/>
      <path d="M 52 44.1875 
Q 55.375 50.25 60.0625 53.125 
Q 64.75 56 71.09375 56 
Q 79.640625 56 84.28125 50.015625 
Q 88.921875 44.046875 88.921875 33.015625 
L 88.921875 0 
L 79.890625 0 
L 79.890625 32.71875 
Q 79.890625 40.578125 77.09375 44.375 
Q 74.3125 48.1875 68.609375 48.1875 
Q 61.625 48.1875 57.5625 43.546875 
Q 53.515625 38.921875 53.515625 30.90625 
L 53.515625 0 
L 44.484375 0 
L 44.484375 32.71875 
Q 44.484375 40.625 41.703125 44.40625 
Q 38.921875 48.1875 33.109375 48.1875 
Q 26.21875 48.1875 22.15625 43.53125 
Q 18.109375 38.875 18.109375 30.90625 
L 18.109375 0 
L 9.078125 0 
L 9.078125 54.6875 
L 18.109375 54.6875 
L 18.109375 46.1875 
Q 21.1875 51.21875 25.484375 53.609375 
Q 29.78125 56 35.6875 56 
Q 41.65625 56 45.828125 52.96875 
Q 50 49.953125 52 44.1875 
z
" id="DejaVuSans-109"/>
      <path d="M 18.109375 8.203125 
L 18.109375 -20.796875 
L 9.078125 -20.796875 
L 9.078125 54.6875 
L 18.109375 54.6875 
L 18.109375 46.390625 
Q 20.953125 51.265625 25.265625 53.625 
Q 29.59375 56 35.59375 56 
Q 45.5625 56 51.78125 48.09375 
Q 58.015625 40.1875 58.015625 27.296875 
Q 58.015625 14.40625 51.78125 6.484375 
Q 45.5625 -1.421875 35.59375 -1.421875 
Q 29.59375 -1.421875 25.265625 0.953125 
Q 20.953125 3.328125 18.109375 8.203125 
z
M 48.6875 27.296875 
Q 48.6875 37.203125 44.609375 42.84375 
Q 40.53125 48.484375 33.40625 48.484375 
Q 26.265625 48.484375 22.1875 42.84375 
Q 18.109375 37.203125 18.109375 27.296875 
Q 18.109375 17.390625 22.1875 11.75 
Q 26.265625 6.109375 33.40625 6.109375 
Q 40.53125 6.109375 44.609375 11.75 
Q 48.6875 17.390625 48.6875 27.296875 
z
" id="DejaVuSans-112"/>
      <path d="M 41.109375 46.296875 
Q 39.59375 47.171875 37.8125 47.578125 
Q 36.03125 48 33.890625 48 
Q 26.265625 48 22.1875 43.046875 
Q 18.109375 38.09375 18.109375 28.8125 
L 18.109375 0 
L 9.078125 0 
L 9.078125 54.6875 
L 18.109375 54.6875 
L 18.109375 46.1875 
Q 20.953125 51.171875 25.484375 53.578125 
Q 30.03125 56 36.53125 56 
Q 37.453125 56 38.578125 55.875 
Q 39.703125 55.765625 41.0625 55.515625 
z
" id="DejaVuSans-114"/>
      <path d="M 34.28125 27.484375 
Q 23.390625 27.484375 19.1875 25 
Q 14.984375 22.515625 14.984375 16.5 
Q 14.984375 11.71875 18.140625 8.90625 
Q 21.296875 6.109375 26.703125 6.109375 
Q 34.1875 6.109375 38.703125 11.40625 
Q 43.21875 16.703125 43.21875 25.484375 
L 43.21875 27.484375 
z
M 52.203125 31.203125 
L 52.203125 0 
L 43.21875 0 
L 43.21875 8.296875 
Q 40.140625 3.328125 35.546875 0.953125 
Q 30.953125 -1.421875 24.3125 -1.421875 
Q 15.921875 -1.421875 10.953125 3.296875 
Q 6 8.015625 6 15.921875 
Q 6 25.140625 12.171875 29.828125 
Q 18.359375 34.515625 30.609375 34.515625 
L 43.21875 34.515625 
L 43.21875 35.40625 
Q 43.21875 41.609375 39.140625 45 
Q 35.0625 48.390625 27.6875 48.390625 
Q 23 48.390625 18.546875 47.265625 
Q 14.109375 46.140625 10.015625 43.890625 
L 10.015625 52.203125 
Q 14.9375 54.109375 19.578125 55.046875 
Q 24.21875 56 28.609375 56 
Q 40.484375 56 46.34375 49.84375 
Q 52.203125 43.703125 52.203125 31.203125 
z
" id="DejaVuSans-97"/>
      <path d="M 18.3125 70.21875 
L 18.3125 54.6875 
L 36.8125 54.6875 
L 36.8125 47.703125 
L 18.3125 47.703125 
L 18.3125 18.015625 
Q 18.3125 11.328125 20.140625 9.421875 
Q 21.96875 7.515625 27.59375 7.515625 
L 36.8125 7.515625 
L 36.8125 0 
L 27.59375 0 
Q 17.1875 0 13.234375 3.875 
Q 9.28125 7.765625 9.28125 18.015625 
L 9.28125 47.703125 
L 2.6875 47.703125 
L 2.6875 54.6875 
L 9.28125 54.6875 
L 9.28125 70.21875 
z
" id="DejaVuSans-116"/>
      <path d="M 8.5 21.578125 
L 8.5 54.6875 
L 17.484375 54.6875 
L 17.484375 21.921875 
Q 17.484375 14.15625 20.5 10.265625 
Q 23.53125 6.390625 29.59375 6.390625 
Q 36.859375 6.390625 41.078125 11.03125 
Q 45.3125 15.671875 45.3125 23.6875 
L 45.3125 54.6875 
L 54.296875 54.6875 
L 54.296875 0 
L 45.3125 0 
L 45.3125 8.40625 
Q 42.046875 3.421875 37.71875 1 
Q 33.40625 -1.421875 27.6875 -1.421875 
Q 18.265625 -1.421875 13.375 4.4375 
Q 8.5 10.296875 8.5 21.578125 
z
M 31.109375 56 
z
" id="DejaVuSans-117"/>
      <path id="DejaVuSans-32"/>
      <path d="M 31 75.875 
Q 24.46875 64.65625 21.28125 53.65625 
Q 18.109375 42.671875 18.109375 31.390625 
Q 18.109375 20.125 21.3125 9.0625 
Q 24.515625 -2 31 -13.1875 
L 23.1875 -13.1875 
Q 15.875 -1.703125 12.234375 9.375 
Q 8.59375 20.453125 8.59375 31.390625 
Q 8.59375 42.28125 12.203125 53.3125 
Q 15.828125 64.359375 23.1875 75.875 
z
" id="DejaVuSans-40"/>
      <path d="M 9.8125 72.90625 
L 19.671875 72.90625 
L 19.671875 42.09375 
L 52.390625 72.90625 
L 65.09375 72.90625 
L 28.90625 38.921875 
L 67.671875 0 
L 54.6875 0 
L 19.671875 35.109375 
L 19.671875 0 
L 9.8125 0 
z
" id="DejaVuSans-75"/>
      <path d="M 8.015625 75.875 
L 15.828125 75.875 
Q 23.140625 64.359375 26.78125 53.3125 
Q 30.421875 42.28125 30.421875 31.390625 
Q 30.421875 20.453125 26.78125 9.375 
Q 23.140625 -1.703125 15.828125 -13.1875 
L 8.015625 -13.1875 
Q 14.5 -2 17.703125 9.0625 
Q 20.90625 20.125 20.90625 31.390625 
Q 20.90625 42.671875 17.703125 53.65625 
Q 14.5 64.65625 8.015625 75.875 
z
" id="DejaVuSans-41"/>
     </defs>
     <g transform="translate(175.991406 268.034687)scale(0.1 -0.1)">
      <use xlink:href="#DejaVuSans-84"/>
      <use x="60.818359" xlink:href="#DejaVuSans-101"/>
      <use x="122.341797" xlink:href="#DejaVuSans-109"/>
      <use x="219.753906" xlink:href="#DejaVuSans-112"/>
      <use x="283.230469" xlink:href="#DejaVuSans-101"/>
      <use x="344.753906" xlink:href="#DejaVuSans-114"/>
      <use x="385.867188" xlink:href="#DejaVuSans-97"/>
      <use x="447.146484" xlink:href="#DejaVuSans-116"/>
      <use x="486.355469" xlink:href="#DejaVuSans-117"/>
      <use x="549.734375" xlink:href="#DejaVuSans-114"/>
      <use x="590.816406" xlink:href="#DejaVuSans-101"/>
      <use x="652.339844" xlink:href="#DejaVuSans-32"/>
      <use x="684.126953" xlink:href="#DejaVuSans-40"/>
      <use x="723.140625" xlink:href="#DejaVuSans-75"/>
      <use x="788.716797" xlink:href="#DejaVuSans-41"/>
     </g>
    </g>
   </g>
   <g id="matplotlib.axis_2">
    <g id="ytick_1">
     <g id="line2d_6">
      <defs>
       <path d="M 0 0 
L -3.5 0 
" id="m72c730da5e" style="stroke:#000000;stroke-width:0.8;"/>
      </defs>
      <g>
       <use style="stroke:#000000;stroke-width:0.8;" x="49.978125" xlink:href="#m72c730da5e" y="217.278961"/>
      </g>
     </g>
     <g id="text_7">
      <!-- $\mathdefault{10^{11}}$ -->
      <g transform="translate(20.878125 221.078179)scale(0.1 -0.1)">
       <use transform="translate(0 0.684375)" xlink:href="#DejaVuSans-49"/>
       <use transform="translate(63.623047 0.684375)" xlink:href="#DejaVuSans-48"/>
       <use transform="translate(128.203125 38.965625)scale(0.7)" xlink:href="#DejaVuSans-49"/>
       <use transform="translate(172.739258 38.965625)scale(0.7)" xlink:href="#DejaVuSans-49"/>
      </g>
     </g>
    </g>
    <g id="ytick_2">
     <g id="line2d_7">
      <g>
       <use style="stroke:#000000;stroke-width:0.8;" x="49.978125" xlink:href="#m72c730da5e" y="164.005246"/>
      </g>
     </g>
     <g id="text_8">
      <!-- $\mathdefault{10^{12}}$ -->
      <g transform="translate(20.878125 167.804464)scale(0.1 -0.1)">
       <use transform="translate(0 0.765625)" xlink:href="#DejaVuSans-49"/>
       <use transform="translate(63.623047 0.765625)" xlink:href="#DejaVuSans-48"/>
       <use transform="translate(128.203125 39.046875)scale(0.7)" xlink:href="#DejaVuSans-49"/>
       <use transform="translate(172.739258 39.046875)scale(0.7)" xlink:href="#DejaVuSans-50"/>
      </g>
     </g>
    </g>
    <g id="ytick_3">
     <g id="line2d_8">
      <g>
       <use style="stroke:#000000;stroke-width:0.8;" x="49.978125" xlink:href="#m72c730da5e" y="110.731531"/>
      </g>
     </g>
     <g id="text_9">
      <!-- $\mathdefault{10^{13}}$ -->
      <defs>
       <path d="M 40.578125 39.3125 
Q 47.65625 37.796875 51.625 33 
Q 55.609375 28.21875 55.609375 21.1875 
Q 55.609375 10.40625 48.1875 4.484375 
Q 40.765625 -1.421875 27.09375 -1.421875 
Q 22.515625 -1.421875 17.65625 -0.515625 
Q 12.796875 0.390625 7.625 2.203125 
L 7.625 11.71875 
Q 11.71875 9.328125 16.59375 8.109375 
Q 21.484375 6.890625 26.8125 6.890625 
Q 36.078125 6.890625 40.9375 10.546875 
Q 45.796875 14.203125 45.796875 21.1875 
Q 45.796875 27.640625 41.28125 31.265625 
Q 36.765625 34.90625 28.71875 34.90625 
L 20.21875 34.90625 
L 20.21875 43.015625 
L 29.109375 43.015625 
Q 36.375 43.015625 40.234375 45.921875 
Q 44.09375 48.828125 44.09375 54.296875 
Q 44.09375 59.90625 40.109375 62.90625 
Q 36.140625 65.921875 28.71875 65.921875 
Q 24.65625 65.921875 20.015625 65.03125 
Q 15.375 64.15625 9.8125 62.3125 
L 9.8125 71.09375 
Q 15.4375 72.65625 20.34375 73.4375 
Q 25.25 74.21875 29.59375 74.21875 
Q 40.828125 74.21875 47.359375 69.109375 
Q 53.90625 64.015625 53.90625 55.328125 
Q 53.90625 49.265625 50.4375 45.09375 
Q 46.96875 40.921875 40.578125 39.3125 
z
" id="DejaVuSans-51"/>
      </defs>
      <g transform="translate(20.878125 114.530749)scale(0.1 -0.1)">
       <use transform="translate(0 0.765625)" xlink:href="#DejaVuSans-49"/>
       <use transform="translate(63.623047 0.765625)" xlink:href="#DejaVuSans-48"/>
       <use transform="translate(128.203125 39.046875)scale(0.7)" xlink:href="#DejaVuSans-49"/>
       <use transform="translate(172.739258 39.046875)scale(0.7)" xlink:href="#DejaVuSans-51"/>
      </g>
     </g>
    </g>
    <g id="ytick_4">
     <g id="line2d_9">
      <g>
       <use style="stroke:#000000;stroke-width:0.8;" x="49.978125" xlink:href="#m72c730da5e" y="57.457816"/>
      </g>
     </g>
     <g id="text_10">
      <!-- $\mathdefault{10^{14}}$ -->
      <defs>
       <path d="M 37.796875 64.3125 
L 12.890625 25.390625 
L 37.796875 25.390625 
z
M 35.203125 72.90625 
L 47.609375 72.90625 
L 47.609375 25.390625 
L 58.015625 25.390625 
L 58.015625 17.1875 
L 47.609375 17.1875 
L 47.609375 0 
L 37.796875 0 
L 37.796875 17.1875 
L 4.890625 17.1875 
L 4.890625 26.703125 
z
" id="DejaVuSans-52"/>
      </defs>
      <g transform="translate(20.878125 61.257034)scale(0.1 -0.1)">
       <use transform="translate(0 0.684375)" xlink:href="#DejaVuSans-49"/>
       <use transform="translate(63.623047 0.684375)" xlink:href="#DejaVuSans-48"/>
       <use transform="translate(128.203125 38.965625)scale(0.7)" xlink:href="#DejaVuSans-49"/>
       <use transform="translate(172.739258 38.965625)scale(0.7)" xlink:href="#DejaVuSans-52"/>
      </g>
     </g>
    </g>
    <g id="ytick_5">
     <g id="line2d_10">
      <defs>
       <path d="M 0 0 
L -2 0 
" id="m168c50297c" style="stroke:#000000;stroke-width:0.6;"/>
      </defs>
      <g>
       <use style="stroke:#000000;stroke-width:0.6;" x="49.978125" xlink:href="#m168c50297c" y="238.478703"/>
      </g>
     </g>
    </g>
    <g id="ytick_6">
     <g id="line2d_11">
      <g>
       <use style="stroke:#000000;stroke-width:0.6;" x="49.978125" xlink:href="#m168c50297c" y="233.315947"/>
      </g>
     </g>
    </g>
    <g id="ytick_7">
     <g id="line2d_12">
      <g>
       <use style="stroke:#000000;stroke-width:0.6;" x="49.978125" xlink:href="#m168c50297c" y="229.097668"/>
      </g>
     </g>
    </g>
    <g id="ytick_8">
     <g id="line2d_13">
      <g>
       <use style="stroke:#000000;stroke-width:0.6;" x="49.978125" xlink:href="#m168c50297c" y="225.531164"/>
      </g>
     </g>
    </g>
    <g id="ytick_9">
     <g id="line2d_14">
      <g>
       <use style="stroke:#000000;stroke-width:0.6;" x="49.978125" xlink:href="#m168c50297c" y="222.441717"/>
      </g>
     </g>
    </g>
    <g id="ytick_10">
     <g id="line2d_15">
      <g>
       <use style="stroke:#000000;stroke-width:0.6;" x="49.978125" xlink:href="#m168c50297c" y="219.716632"/>
      </g>
     </g>
    </g>
    <g id="ytick_11">
     <g id="line2d_16">
      <g>
       <use style="stroke:#000000;stroke-width:0.6;" x="49.978125" xlink:href="#m168c50297c" y="201.241975"/>
      </g>
     </g>
    </g>
    <g id="ytick_12">
     <g id="line2d_17">
      <g>
       <use style="stroke:#000000;stroke-width:0.6;" x="49.978125" xlink:href="#m168c50297c" y="191.860939"/>
      </g>
     </g>
    </g>
    <g id="ytick_13">
     <g id="line2d_18">
      <g>
       <use style="stroke:#000000;stroke-width:0.6;" x="49.978125" xlink:href="#m168c50297c" y="185.204988"/>
      </g>
     </g>
    </g>
    <g id="ytick_14">
     <g id="line2d_19">
      <g>
       <use style="stroke:#000000;stroke-width:0.6;" x="49.978125" xlink:href="#m168c50297c" y="180.042232"/>
      </g>
     </g>
    </g>
    <g id="ytick_15">
     <g id="line2d_20">
      <g>
       <use style="stroke:#000000;stroke-width:0.6;" x="49.978125" xlink:href="#m168c50297c" y="175.823953"/>
      </g>
     </g>
    </g>
    <g id="ytick_16">
     <g id="line2d_21">
      <g>
       <use style="stroke:#000000;stroke-width:0.6;" x="49.978125" xlink:href="#m168c50297c" y="172.257449"/>
      </g>
     </g>
    </g>
    <g id="ytick_17">
     <g id="line2d_22">
      <g>
       <use style="stroke:#000000;stroke-width:0.6;" x="49.978125" xlink:href="#m168c50297c" y="169.168002"/>
      </g>
     </g>
    </g>
    <g id="ytick_18">
     <g id="line2d_23">
      <g>
       <use style="stroke:#000000;stroke-width:0.6;" x="49.978125" xlink:href="#m168c50297c" y="166.442917"/>
      </g>
     </g>
    </g>
    <g id="ytick_19">
     <g id="line2d_24">
      <g>
       <use style="stroke:#000000;stroke-width:0.6;" x="49.978125" xlink:href="#m168c50297c" y="147.968259"/>
      </g>
     </g>
    </g>
    <g id="ytick_20">
     <g id="line2d_25">
      <g>
       <use style="stroke:#000000;stroke-width:0.6;" x="49.978125" xlink:href="#m168c50297c" y="138.587224"/>
      </g>
     </g>
    </g>
    <g id="ytick_21">
     <g id="line2d_26">
      <g>
       <use style="stroke:#000000;stroke-width:0.6;" x="49.978125" xlink:href="#m168c50297c" y="131.931273"/>
      </g>
     </g>
    </g>
    <g id="ytick_22">
     <g id="line2d_27">
      <g>
       <use style="stroke:#000000;stroke-width:0.6;" x="49.978125" xlink:href="#m168c50297c" y="126.768517"/>
      </g>
     </g>
    </g>
    <g id="ytick_23">
     <g id="line2d_28">
      <g>
       <use style="stroke:#000000;stroke-width:0.6;" x="49.978125" xlink:href="#m168c50297c" y="122.550238"/>
      </g>
     </g>
    </g>
    <g id="ytick_24">
     <g id="line2d_29">
      <g>
       <use style="stroke:#000000;stroke-width:0.6;" x="49.978125" xlink:href="#m168c50297c" y="118.983734"/>
      </g>
     </g>
    </g>
    <g id="ytick_25">
     <g id="line2d_30">
      <g>
       <use style="stroke:#000000;stroke-width:0.6;" x="49.978125" xlink:href="#m168c50297c" y="115.894287"/>
      </g>
     </g>
    </g>
    <g id="ytick_26">
     <g id="line2d_31">
      <g>
       <use style="stroke:#000000;stroke-width:0.6;" x="49.978125" xlink:href="#m168c50297c" y="113.169202"/>
      </g>
     </g>
    </g>
    <g id="ytick_27">
     <g id="line2d_32">
      <g>
       <use style="stroke:#000000;stroke-width:0.6;" x="49.978125" xlink:href="#m168c50297c" y="94.694544"/>
      </g>
     </g>
    </g>
    <g id="ytick_28">
     <g id="line2d_33">
      <g>
       <use style="stroke:#000000;stroke-width:0.6;" x="49.978125" xlink:href="#m168c50297c" y="85.313509"/>
      </g>
     </g>
    </g>
    <g id="ytick_29">
     <g id="line2d_34">
      <g>
       <use style="stroke:#000000;stroke-width:0.6;" x="49.978125" xlink:href="#m168c50297c" y="78.657558"/>
      </g>
     </g>
    </g>
    <g id="ytick_30">
     <g id="line2d_35">
      <g>
       <use style="stroke:#000000;stroke-width:0.6;" x="49.978125" xlink:href="#m168c50297c" y="73.494802"/>
      </g>
     </g>
    </g>
    <g id="ytick_31">
     <g id="line2d_36">
      <g>
       <use style="stroke:#000000;stroke-width:0.6;" x="49.978125" xlink:href="#m168c50297c" y="69.276523"/>
      </g>
     </g>
    </g>
    <g id="ytick_32">
     <g id="line2d_37">
      <g>
       <use style="stroke:#000000;stroke-width:0.6;" x="49.978125" xlink:href="#m168c50297c" y="65.710018"/>
      </g>
     </g>
    </g>
    <g id="ytick_33">
     <g id="line2d_38">
      <g>
       <use style="stroke:#000000;stroke-width:0.6;" x="49.978125" xlink:href="#m168c50297c" y="62.620572"/>
      </g>
     </g>
    </g>
    <g id="ytick_34">
     <g id="line2d_39">
      <g>
       <use style="stroke:#000000;stroke-width:0.6;" x="49.978125" xlink:href="#m168c50297c" y="59.895487"/>
      </g>
     </g>
    </g>
    <g id="ytick_35">
     <g id="line2d_40">
      <g>
       <use style="stroke:#000000;stroke-width:0.6;" x="49.978125" xlink:href="#m168c50297c" y="41.420829"/>
      </g>
     </g>
    </g>
    <g id="ytick_36">
     <g id="line2d_41">
      <g>
       <use style="stroke:#000000;stroke-width:0.6;" x="49.978125" xlink:href="#m168c50297c" y="32.039794"/>
      </g>
     </g>
    </g>
    <g id="ytick_37">
     <g id="line2d_42">
      <g>
       <use style="stroke:#000000;stroke-width:0.6;" x="49.978125" xlink:href="#m168c50297c" y="25.383843"/>
      </g>
     </g>
    </g>
    <g id="text_11">
     <!-- Kmol/m^3-s -->
     <defs>
      <path d="M 30.609375 48.390625 
Q 23.390625 48.390625 19.1875 42.75 
Q 14.984375 37.109375 14.984375 27.296875 
Q 14.984375 17.484375 19.15625 11.84375 
Q 23.34375 6.203125 30.609375 6.203125 
Q 37.796875 6.203125 41.984375 11.859375 
Q 46.1875 17.53125 46.1875 27.296875 
Q 46.1875 37.015625 41.984375 42.703125 
Q 37.796875 48.390625 30.609375 48.390625 
z
M 30.609375 56 
Q 42.328125 56 49.015625 48.375 
Q 55.71875 40.765625 55.71875 27.296875 
Q 55.71875 13.875 49.015625 6.21875 
Q 42.328125 -1.421875 30.609375 -1.421875 
Q 18.84375 -1.421875 12.171875 6.21875 
Q 5.515625 13.875 5.515625 27.296875 
Q 5.515625 40.765625 12.171875 48.375 
Q 18.84375 56 30.609375 56 
z
" id="DejaVuSans-111"/>
      <path d="M 9.421875 75.984375 
L 18.40625 75.984375 
L 18.40625 0 
L 9.421875 0 
z
" id="DejaVuSans-108"/>
      <path d="M 25.390625 72.90625 
L 33.6875 72.90625 
L 8.296875 -9.28125 
L 0 -9.28125 
z
" id="DejaVuSans-47"/>
      <path d="M 46.6875 72.90625 
L 73.1875 45.703125 
L 63.375 45.703125 
L 41.890625 64.984375 
L 20.40625 45.703125 
L 10.59375 45.703125 
L 37.109375 72.90625 
z
" id="DejaVuSans-94"/>
      <path d="M 4.890625 31.390625 
L 31.203125 31.390625 
L 31.203125 23.390625 
L 4.890625 23.390625 
z
" id="DejaVuSans-45"/>
      <path d="M 44.28125 53.078125 
L 44.28125 44.578125 
Q 40.484375 46.53125 36.375 47.5 
Q 32.28125 48.484375 27.875 48.484375 
Q 21.1875 48.484375 17.84375 46.4375 
Q 14.5 44.390625 14.5 40.28125 
Q 14.5 37.15625 16.890625 35.375 
Q 19.28125 33.59375 26.515625 31.984375 
L 29.59375 31.296875 
Q 39.15625 29.25 43.1875 25.515625 
Q 47.21875 21.78125 47.21875 15.09375 
Q 47.21875 7.46875 41.1875 3.015625 
Q 35.15625 -1.421875 24.609375 -1.421875 
Q 20.21875 -1.421875 15.453125 -0.5625 
Q 10.6875 0.296875 5.421875 2 
L 5.421875 11.28125 
Q 10.40625 8.6875 15.234375 7.390625 
Q 20.0625 6.109375 24.8125 6.109375 
Q 31.15625 6.109375 34.5625 8.28125 
Q 37.984375 10.453125 37.984375 14.40625 
Q 37.984375 18.0625 35.515625 20.015625 
Q 33.0625 21.96875 24.703125 23.78125 
L 21.578125 24.515625 
Q 13.234375 26.265625 9.515625 29.90625 
Q 5.8125 33.546875 5.8125 39.890625 
Q 5.8125 47.609375 11.28125 51.796875 
Q 16.75 56 26.8125 56 
Q 31.78125 56 36.171875 55.265625 
Q 40.578125 54.546875 44.28125 53.078125 
z
" id="DejaVuSans-115"/>
     </defs>
     <g transform="translate(14.798438 161.970156)rotate(-90)scale(0.1 -0.1)">
      <use xlink:href="#DejaVuSans-75"/>
      <use x="65.576172" xlink:href="#DejaVuSans-109"/>
      <use x="162.988281" xlink:href="#DejaVuSans-111"/>
      <use x="224.169922" xlink:href="#DejaVuSans-108"/>
      <use x="251.953125" xlink:href="#DejaVuSans-47"/>
      <use x="285.644531" xlink:href="#DejaVuSans-109"/>
      <use x="383.056641" xlink:href="#DejaVuSans-94"/>
      <use x="466.845703" xlink:href="#DejaVuSans-51"/>
      <use x="530.46875" xlink:href="#DejaVuSans-45"/>
      <use x="566.552734" xlink:href="#DejaVuSans-115"/>
     </g>
    </g>
   </g>
   <g id="line2d_43">
    <path clip-path="url(#pb3973cdf16)" d="M 71.812908 87.339698 
L 74.856544 93.854205 
L 77.767848 99.566612 
L 80.679153 104.783425 
L 83.590457 109.535335 
L 86.501761 113.85951 
L 89.413066 117.793858 
L 92.456702 121.529331 
L 95.500338 124.915911 
L 98.676307 128.114457 
L 101.852275 131.004351 
L 105.160576 133.718991 
L 108.601208 136.253918 
L 112.174172 138.606368 
L 115.879469 140.775004 
L 119.717097 142.759673 
L 123.687058 144.561219 
L 127.78935 146.181312 
L 132.156307 147.663821 
L 136.655595 148.957115 
L 141.419548 150.094731 
L 146.448165 151.064618 
L 151.741445 151.857449 
L 157.29939 152.466464 
L 163.254331 152.894494 
L 169.606267 153.126087 
L 176.3552 153.15005 
L 183.633461 152.95395 
L 191.573382 152.515347 
L 200.307295 151.805103 
L 209.967532 150.791137 
L 220.951089 149.407164 
L 233.787295 147.556981 
L 250.064133 144.97343 
L 314.377493 134.523253 
L 329.066346 132.500381 
L 342.299548 130.898479 
L 354.606425 129.629288 
L 366.251643 128.649487 
L 369.427611 128.422582 
L 369.427611 128.422582 
" style="fill:none;stroke:#0000ff;stroke-linecap:square;stroke-width:1.5;"/>
   </g>
   <g id="line2d_44">
    <path clip-path="url(#pb3973cdf16)" d="M 65.196307 32.201761 
L 71.812908 49.169463 
L 78.164844 63.647116 
L 78.164844 63.647116 
L 78.429508 64.205422 
L 80.679153 68.808174 
L 82.399469 72.159135 
L 84.384449 75.850421 
L 85.046109 77.040397 
L 86.104765 78.903446 
L 89.01607 83.77653 
L 91.66271 87.904907 
L 92.589034 89.285594 
L 94.044686 91.390793 
L 94.97101 92.690603 
L 98.279311 97.091799 
L 98.940971 97.928722 
L 104.895912 104.863904 
L 106.219232 106.268541 
L 111.512512 111.439842 
L 115.085477 114.557727 
L 118.129113 116.998084 
L 121.17275 119.254278 
L 124.745714 121.684293 
L 128.318678 123.895271 
L 131.362315 125.618149 
L 134.405951 127.203053 
L 137.978916 128.898905 
L 141.55188 130.428779 
L 142.822609 130.935071 
L 143.862949 131.335366 
L 144.595516 131.609718 
L 144.924379 131.730887 
L 145.504811 131.941763 
L 145.504811 131.941763 
L 148.06602 132.827826 
L 149.933278 133.42959 
L 150.02381 133.457845 
L 150.02381 133.457845 
L 151.212117 133.820985 
L 154.843518 134.844372 
L 154.843518 134.844372 
L 157.67137 135.555454 
L 157.828718 135.592903 
L 159.563293 135.991384 
L 160.099457 136.109311 
L 161.847892 136.477091 
L 163.533398 136.807914 
L 164.445319 136.977456 
L 164.974647 137.072883 
L 165.735922 137.206336 
L 166.686569 137.366795 
L 166.694963 137.368182 
L 166.827295 137.389971 
L 167.046881 137.425838 
L 168.385186 137.636745 
L 168.385186 137.636745 
L 168.385186 137.636745 
L 168.508271 137.655485 
L 169.751701 137.838702 
L 170.0032 137.874423 
L 170.891431 137.997036 
L 171.061919 138.019943 
L 171.79163 138.115732 
L 171.92127 138.13237 
L 172.704176 138.230431 
L 173.0469 138.272065 
L 173.762573 138.356495 
L 174.237888 138.41071 
L 174.702448 138.46228 
L 174.837825 138.477046 
L 175.381899 138.535205 
L 176.068174 138.605882 
L 176.622148 138.660776 
L 177.67852 138.760184 
L 177.743613 138.766086 
L 178.168843 138.804007 
L 178.596683 138.84106 
L 179.6635 138.928697 
L 180.776028 139.012979 
L 181.516149 139.0651 
L 182.569051 139.133911 
L 183.482566 139.188621 
L 184.162789 139.226397 
L 184.295121 139.233455 
L 186.934116 139.354877 
L 188.230357 139.401376 
L 188.529746 139.410918 
L 189.323738 139.434082 
L 190.911722 139.471231 
L 196.734331 139.508176 
L 197.528323 139.501765 
L 199.910299 139.467011 
L 202.821603 139.394194 
L 204.144923 139.350553 
L 210.761524 139.040702 
L 217.378125 138.593225 
L 223.994726 138.027283 
L 230.611327 137.360384 
L 237.227927 136.608555 
L 243.844528 135.786485 
L 250.461129 134.907657 
L 257.07773 133.984465 
L 263.694331 133.028319 
L 270.310931 132.049744 
L 276.927532 131.058463 
L 283.544133 130.063484 
L 290.160734 129.073169 
L 296.777334 128.095298 
L 303.393935 127.137128 
L 303.393935 127.137128 
L 310.010536 126.205442 
L 316.627137 125.306594 
L 323.243738 124.446542 
L 329.860338 123.630878 
L 336.476939 122.864853 
L 343.09354 122.153395 
L 349.710141 121.501117 
L 356.326742 120.91233 
L 362.943342 120.391041 
L 369.559943 119.940954 
L 369.559943 119.940954 
" style="fill:none;stroke:#0000ff;stroke-dasharray:5.55,2.4;stroke-dashoffset:0;stroke-width:1.5;"/>
   </g>
   <g id="line2d_45">
    <path clip-path="url(#pb3973cdf16)" d="M 65.196307 111.083131 
L 71.812908 125.509932 
L 78.164844 136.966112 
L 78.164844 136.966112 
L 78.429508 137.384274 
L 80.679153 140.758676 
L 82.399469 143.131346 
L 84.384449 145.660508 
L 85.046109 146.456597 
L 86.104765 147.68383 
L 89.01607 150.781398 
L 91.66271 153.275014 
L 92.589034 154.081544 
L 94.044686 155.284271 
L 94.97101 156.010333 
L 98.279311 158.372562 
L 98.940971 158.804533 
L 104.895912 162.16051 
L 106.219232 162.789203 
L 111.512512 164.941982 
L 115.085477 166.106455 
L 118.129113 166.939749 
L 121.17275 167.642776 
L 124.745714 168.319251 
L 128.318678 168.852294 
L 131.362315 169.20517 
L 134.405951 169.47409 
L 137.978916 169.692938 
L 141.55188 169.817574 
L 142.822609 169.841052 
L 143.862949 169.852596 
L 144.595516 169.856702 
L 144.924379 169.857486 
L 145.504811 169.857294 
L 145.504811 169.857294 
L 148.06602 169.833222 
L 149.933278 169.792938 
L 150.02381 169.790518 
L 150.02381 169.790518 
L 151.212117 169.754883 
L 154.843518 169.603347 
L 154.843518 169.603347 
L 157.67137 169.443961 
L 157.828718 169.434093 
L 159.563293 169.318637 
L 160.099457 169.280528 
L 161.847892 169.148603 
L 163.533398 169.010742 
L 164.445319 168.931955 
L 164.974647 168.884909 
L 165.735922 168.815591 
L 166.686569 168.72634 
L 166.694963 168.725539 
L 166.827295 168.712879 
L 167.046881 168.691747 
L 168.385186 168.559661 
L 168.385186 168.559661 
L 168.385186 168.559661 
L 168.508271 168.547234 
L 169.751701 168.419107 
L 170.0032 168.39263 
L 170.891431 168.297639 
L 171.061919 168.279146 
L 171.79163 168.199058 
L 171.92127 168.184673 
L 172.704176 168.09681 
L 173.0469 168.057818 
L 173.762573 167.975375 
L 174.237888 167.919869 
L 174.702448 167.865046 
L 174.837825 167.848966 
L 175.381899 167.783863 
L 176.068174 167.700677 
L 176.622148 167.632671 
L 177.67852 167.500917 
L 177.743613 167.492711 
L 178.168843 167.438856 
L 178.596683 167.384241 
L 179.6635 167.246222 
L 180.776028 167.09956 
L 181.516149 167.00049 
L 182.569051 166.857537 
L 183.482566 166.731641 
L 184.162789 166.636796 
L 184.295121 166.618237 
L 186.934116 166.241062 
L 188.230357 166.05105 
L 188.529746 166.006737 
L 189.323738 165.888455 
L 190.911722 165.648668 
L 196.734331 164.735412 
L 197.528323 164.60705 
L 199.910299 164.216926 
L 202.821603 163.730449 
L 204.144923 163.506042 
L 210.761524 162.356556 
L 217.378125 161.168112 
L 223.994726 159.949117 
L 230.611327 158.707103 
L 237.227927 157.448911 
L 243.844528 156.180841 
L 250.461129 154.90877 
L 257.07773 153.638243 
L 263.694331 152.374544 
L 270.310931 151.122751 
L 276.927532 149.88777 
L 283.544133 148.674373 
L 290.160734 147.487212 
L 296.777334 146.330842 
L 303.393935 145.209735 
L 303.393935 145.209735 
L 310.010536 144.128287 
L 316.627137 143.090836 
L 323.243738 142.10167 
L 329.860338 141.165044 
L 336.476939 140.285186 
L 343.09354 139.466322 
L 349.710141 138.712688 
L 356.326742 138.028547 
L 362.943342 137.418215 
L 369.559943 136.886082 
L 369.559943 136.886082 
" style="fill:none;stroke:#0000ff;stroke-dasharray:5.55,2.4;stroke-dashoffset:0;stroke-width:1.5;"/>
   </g>
   <g id="line2d_46">
    <path clip-path="url(#pb3973cdf16)" d="M 71.812908 169.247281 
L 74.327216 173.686204 
L 76.709192 177.443943 
L 79.091168 180.777474 
L 81.473145 183.714194 
L 83.855121 186.287671 
L 86.237097 188.532642 
L 88.619074 190.482536 
L 91.133382 192.254834 
L 93.780022 193.838702 
L 96.426663 195.167186 
L 99.205635 196.320019 
L 102.116939 197.294147 
L 105.292908 198.118882 
L 108.601208 198.748826 
L 112.174172 199.202817 
L 116.011801 199.466238 
L 120.246425 199.528356 
L 124.878046 199.365943 
L 129.906663 198.963766 
L 135.464607 198.295587 
L 141.816544 197.301124 
L 148.962473 195.951764 
L 157.29939 194.143925 
L 167.224291 191.755496 
L 179.6635 188.522719 
L 197.660655 183.592894 
L 244.241524 170.745808 
L 262.503342 165.990303 
L 278.912512 161.942666 
L 294.263026 158.381644 
L 308.95188 155.200678 
L 323.111406 152.361285 
L 336.741603 149.852254 
L 350.107137 147.61723 
L 363.075674 145.671938 
L 369.427611 144.802243 
L 369.427611 144.802243 
" style="fill:none;stroke:#ff0000;stroke-linecap:square;stroke-width:1.5;"/>
   </g>
   <g id="line2d_47">
    <path clip-path="url(#pb3973cdf16)" d="M 65.196307 112.709652 
L 71.812908 127.494463 
L 78.164844 139.355593 
L 78.164844 139.355593 
L 78.429508 139.791553 
L 80.679153 143.318892 
L 82.399469 145.809795 
L 84.384449 148.475772 
L 85.046109 149.317404 
L 86.104765 150.617317 
L 89.01607 153.912683 
L 91.66271 156.58211 
L 92.589034 157.449015 
L 94.044686 158.745226 
L 94.97101 159.52983 
L 98.279311 162.094516 
L 98.940971 162.565654 
L 104.895912 166.252389 
L 106.219232 166.948999 
L 111.512512 169.352137 
L 115.085477 170.665967 
L 118.129113 171.61391 
L 121.17275 172.420048 
L 124.745714 173.202982 
L 128.318678 173.826973 
L 131.362315 174.245332 
L 134.405951 174.568945 
L 137.978916 174.838582 
L 141.55188 174.999945 
L 142.822609 175.033186 
L 143.862949 175.05146 
L 144.595516 175.059629 
L 144.924379 175.062057 
L 145.504811 175.064496 
L 145.504811 175.064496 
L 148.06602 175.047961 
L 149.933278 175.009065 
L 150.02381 175.006626 
L 150.02381 175.006626 
L 151.212117 174.970007 
L 154.843518 174.807213 
L 154.843518 174.807213 
L 157.67137 174.630728 
L 157.828718 174.619701 
L 159.563293 174.490046 
L 160.099457 174.447028 
L 161.847892 174.297419 
L 163.533398 174.140135 
L 164.445319 174.049889 
L 164.974647 173.995892 
L 165.735922 173.916192 
L 166.686569 173.81335 
L 166.694963 173.812426 
L 166.827295 173.797819 
L 167.046881 173.773426 
L 168.385186 173.62069 
L 168.385186 173.62069 
L 168.385186 173.62069 
L 168.508271 173.606296 
L 169.751701 173.457689 
L 170.0032 173.426934 
L 170.891431 173.316474 
L 171.061919 173.294948 
L 171.79163 173.20165 
L 171.92127 173.184879 
L 172.704176 173.082364 
L 173.0469 173.036827 
L 173.762573 172.940461 
L 174.237888 172.875519 
L 174.702448 172.811332 
L 174.837825 172.792496 
L 175.381899 172.716199 
L 176.068174 172.61862 
L 176.622148 172.538779 
L 177.67852 172.383926 
L 177.743613 172.374274 
L 178.168843 172.31091 
L 178.596683 172.246617 
L 179.6635 172.083991 
L 180.776028 171.910956 
L 181.516149 171.793949 
L 182.569051 171.624951 
L 183.482566 171.475966 
L 184.162789 171.363638 
L 184.295121 171.34165 
L 186.934116 170.894207 
L 188.230357 170.668418 
L 188.529746 170.615728 
L 189.323738 170.475028 
L 190.911722 170.189547 
L 196.734331 169.099721 
L 197.528323 168.946276 
L 199.910299 168.479595 
L 202.821603 167.897086 
L 204.144923 167.628207 
L 210.761524 166.24979 
L 217.378125 164.823849 
L 223.994726 163.361802 
L 230.611327 161.873855 
L 237.227927 160.369148 
L 243.844528 158.85588 
L 250.461129 157.341424 
L 257.07773 155.832414 
L 263.694331 154.334832 
L 270.310931 152.854081 
L 276.927532 151.395051 
L 283.544133 149.962175 
L 290.160734 148.559482 
L 296.777334 147.190646 
L 303.393935 145.859016 
L 303.393935 145.859016 
L 310.010536 144.56766 
L 316.627137 143.319383 
L 323.243738 142.116757 
L 329.860338 140.962132 
L 336.476939 139.857653 
L 343.09354 138.805264 
L 349.710141 137.806713 
L 356.326742 136.86355 
L 362.943342 135.97712 
L 369.559943 135.148556 
L 369.559943 135.148556 
" style="fill:none;stroke:#ff0000;stroke-dasharray:5.55,2.4;stroke-dashoffset:0;stroke-width:1.5;"/>
   </g>
   <g id="line2d_48">
    <path clip-path="url(#pb3973cdf16)" d="M 65.196307 198.864297 
L 71.812908 211.000099 
L 78.164844 219.704349 
L 78.164844 219.704349 
L 78.429508 219.993725 
L 80.679153 222.235836 
L 82.399469 223.702674 
L 84.384449 225.151697 
L 85.046109 225.58076 
L 86.104765 226.214606 
L 89.01607 227.649411 
L 91.66271 228.605122 
L 92.589034 228.870003 
L 94.044686 229.219806 
L 94.97101 229.402643 
L 98.279311 229.828276 
L 98.940971 229.874489 
L 104.895912 229.804074 
L 106.219232 229.685815 
L 111.512512 228.9177 
L 115.085477 228.178043 
L 118.129113 227.435749 
L 121.17275 226.60751 
L 124.745714 225.544104 
L 128.318678 224.400073 
L 131.362315 223.373791 
L 134.405951 222.30866 
L 137.978916 221.018194 
L 141.55188 219.693612 
L 142.822609 219.215888 
L 143.862949 218.822574 
L 144.595516 218.544527 
L 144.924379 218.419431 
L 145.504811 218.198245 
L 145.504811 218.198245 
L 148.06602 217.216828 
L 149.933278 216.49663 
L 150.02381 216.461628 
L 150.02381 216.461628 
L 151.212117 216.00155 
L 154.843518 214.589693 
L 154.843518 214.589693 
L 157.67137 213.486287 
L 157.828718 213.424833 
L 159.563293 212.747176 
L 160.099457 212.53767 
L 161.847892 211.854523 
L 163.533398 211.19629 
L 164.445319 210.8404 
L 164.974647 210.633921 
L 165.735922 210.337114 
L 166.686569 209.966751 
L 166.694963 209.963482 
L 166.827295 209.911954 
L 167.046881 209.826465 
L 168.385186 209.305881 
L 168.385186 209.305881 
L 168.385186 209.305881 
L 168.508271 209.258043 
L 169.751701 208.775187 
L 170.0032 208.67762 
L 170.891431 208.333315 
L 171.061919 208.26728 
L 171.79163 207.984835 
L 171.92127 207.934689 
L 172.704176 207.63208 
L 173.0469 207.499734 
L 173.762573 207.22362 
L 174.237888 207.040432 
L 174.702448 206.861542 
L 174.837825 206.80944 
L 175.381899 206.600182 
L 176.068174 206.336543 
L 176.622148 206.12399 
L 177.67852 205.719339 
L 177.743613 205.694434 
L 178.168843 205.531822 
L 178.596683 205.368363 
L 179.6635 204.961447 
L 180.776028 204.538145 
L 181.516149 204.257147 
L 182.569051 203.858259 
L 183.482566 203.513016 
L 184.162789 203.256457 
L 184.295121 203.206597 
L 186.934116 202.215895 
L 188.230357 201.731859 
L 188.529746 201.620311 
L 189.323738 201.324936 
L 190.911722 200.7362 
L 196.734331 198.601286 
L 197.528323 198.313144 
L 199.910299 197.453126 
L 202.821603 196.411106 
L 204.144923 195.94082 
L 210.761524 193.621435 
L 217.378125 191.356329 
L 223.994726 189.146224 
L 230.611327 186.991413 
L 237.227927 184.891908 
L 243.844528 182.847552 
L 250.461129 180.858099 
L 257.07773 178.923275 
L 263.694331 177.042823 
L 270.310931 175.21653 
L 276.927532 173.444247 
L 283.544133 171.725899 
L 290.160734 170.061495 
L 296.777334 168.451128 
L 303.393935 166.894978 
L 303.393935 166.894978 
L 310.010536 165.393311 
L 316.627137 163.946483 
L 323.243738 162.554937 
L 329.860338 161.219213 
L 336.476939 159.939949 
L 343.09354 158.717886 
L 349.710141 157.553886 
L 356.326742 156.448936 
L 362.943342 155.404169 
L 369.559943 154.420878 
L 369.559943 154.420878 
" style="fill:none;stroke:#ff0000;stroke-dasharray:5.55,2.4;stroke-dashoffset:0;stroke-width:1.5;"/>
   </g>
   <g id="line2d_49">
    <defs>
     <path d="M 0 3 
C 0.795609 3 1.55874 2.683901 2.12132 2.12132 
C 2.683901 1.55874 3 0.795609 3 0 
C 3 -0.795609 2.683901 -1.55874 2.12132 -2.12132 
C 1.55874 -2.683901 0.795609 -3 0 -3 
C -0.795609 -3 -1.55874 -2.683901 -2.12132 -2.12132 
C -2.683901 -1.55874 -3 -0.795609 -3 0 
C -3 0.795609 -2.683901 1.55874 -2.12132 2.12132 
C -1.55874 2.683901 -0.795609 3 0 3 
z
" id="m331c0fbe8a" style="stroke:#000000;"/>
    </defs>
    <g clip-path="url(#pb3973cdf16)">
     <use style="stroke:#000000;" x="78.164844" xlink:href="#m331c0fbe8a" y="145.720564"/>
     <use style="stroke:#000000;" x="80.679153" xlink:href="#m331c0fbe8a" y="148.973067"/>
     <use style="stroke:#000000;" x="82.399469" xlink:href="#m331c0fbe8a" y="148.256711"/>
     <use style="stroke:#000000;" x="84.384449" xlink:href="#m331c0fbe8a" y="155.484009"/>
     <use style="stroke:#000000;" x="86.104765" xlink:href="#m331c0fbe8a" y="152.588231"/>
     <use style="stroke:#000000;" x="89.01607" xlink:href="#m331c0fbe8a" y="160.889034"/>
     <use style="stroke:#000000;" x="92.589034" xlink:href="#m331c0fbe8a" y="160.767623"/>
     <use style="stroke:#000000;" x="94.97101" xlink:href="#m331c0fbe8a" y="161.631403"/>
     <use style="stroke:#000000;" x="98.940971" xlink:href="#m331c0fbe8a" y="159.357742"/>
     <use style="stroke:#000000;" x="106.219232" xlink:href="#m331c0fbe8a" y="173.958667"/>
     <use style="stroke:#000000;" x="78.164844" xlink:href="#m331c0fbe8a" y="147.968259"/>
     <use style="stroke:#000000;" x="94.044686" xlink:href="#m331c0fbe8a" y="166.442917"/>
     <use style="stroke:#000000;" x="115.085477" xlink:href="#m331c0fbe8a" y="178.825428"/>
     <use style="stroke:#000000;" x="121.17275" xlink:href="#m331c0fbe8a" y="180.509651"/>
     <use style="stroke:#000000;" x="128.318678" xlink:href="#m331c0fbe8a" y="180.274761"/>
     <use style="stroke:#000000;" x="134.405951" xlink:href="#m331c0fbe8a" y="182.122773"/>
     <use style="stroke:#000000;" x="141.55188" xlink:href="#m331c0fbe8a" y="178.176092"/>
     <use style="stroke:#000000;" x="142.822609" xlink:href="#m331c0fbe8a" y="182.634663"/>
     <use style="stroke:#000000;" x="143.862949" xlink:href="#m331c0fbe8a" y="177.337722"/>
     <use style="stroke:#000000;" x="145.504811" xlink:href="#m331c0fbe8a" y="176.76843"/>
     <use style="stroke:#000000;" x="145.504811" xlink:href="#m331c0fbe8a" y="170.599581"/>
     <use style="stroke:#000000;" x="144.924379" xlink:href="#m331c0fbe8a" y="170.971758"/>
     <use style="stroke:#000000;" x="148.06602" xlink:href="#m331c0fbe8a" y="176.848905"/>
     <use style="stroke:#000000;" x="150.02381" xlink:href="#m331c0fbe8a" y="176.970144"/>
     <use style="stroke:#000000;" x="150.02381" xlink:href="#m331c0fbe8a" y="176.056482"/>
     <use style="stroke:#000000;" x="149.933278" xlink:href="#m331c0fbe8a" y="168.653201"/>
     <use style="stroke:#000000;" x="154.843518" xlink:href="#m331c0fbe8a" y="170.2636"/>
     <use style="stroke:#000000;" x="154.843518" xlink:href="#m331c0fbe8a" y="168.066729"/>
     <use style="stroke:#000000;" x="160.099457" xlink:href="#m331c0fbe8a" y="173.409429"/>
     <use style="stroke:#000000;" x="159.563293" xlink:href="#m331c0fbe8a" y="164.949723"/>
     <use style="stroke:#000000;" x="157.67137" xlink:href="#m331c0fbe8a" y="160.372732"/>
     <use style="stroke:#000000;" x="161.847892" xlink:href="#m331c0fbe8a" y="164.237775"/>
     <use style="stroke:#000000;" x="163.533398" xlink:href="#m331c0fbe8a" y="173.618811"/>
     <use style="stroke:#000000;" x="168.385186" xlink:href="#m331c0fbe8a" y="165.634574"/>
     <use style="stroke:#000000;" x="168.385186" xlink:href="#m331c0fbe8a" y="158.658134"/>
     <use style="stroke:#000000;" x="168.508271" xlink:href="#m331c0fbe8a" y="158.293772"/>
     <use style="stroke:#000000;" x="169.751701" xlink:href="#m331c0fbe8a" y="158.293772"/>
     <use style="stroke:#000000;" x="167.046881" xlink:href="#m331c0fbe8a" y="156.721633"/>
     <use style="stroke:#000000;" x="176.068174" xlink:href="#m331c0fbe8a" y="158.293772"/>
     <use style="stroke:#000000;" x="176.622148" xlink:href="#m331c0fbe8a" y="149.523233"/>
     <use style="stroke:#000000;" x="174.702448" xlink:href="#m331c0fbe8a" y="148.317936"/>
     <use style="stroke:#000000;" x="180.776028" xlink:href="#m331c0fbe8a" y="154.934772"/>
     <use style="stroke:#000000;" x="182.569051" xlink:href="#m331c0fbe8a" y="141.110745"/>
     <use style="stroke:#000000;" x="165.735922" xlink:href="#m331c0fbe8a" y="164.237775"/>
     <use style="stroke:#000000;" x="166.686569" xlink:href="#m331c0fbe8a" y="161.17756"/>
     <use style="stroke:#000000;" x="168.385186" xlink:href="#m331c0fbe8a" y="165.289614"/>
     <use style="stroke:#000000;" x="170.891431" xlink:href="#m331c0fbe8a" y="164.237775"/>
     <use style="stroke:#000000;" x="170.0032" xlink:href="#m331c0fbe8a" y="162.011397"/>
     <use style="stroke:#000000;" x="174.837825" xlink:href="#m331c0fbe8a" y="157.93506"/>
     <use style="stroke:#000000;" x="175.381899" xlink:href="#m331c0fbe8a" y="154.62421"/>
     <use style="stroke:#000000;" x="177.743613" xlink:href="#m331c0fbe8a" y="157.93506"/>
     <use style="stroke:#000000;" x="171.92127" xlink:href="#m331c0fbe8a" y="153.131016"/>
     <use style="stroke:#000000;" x="172.704176" xlink:href="#m331c0fbe8a" y="150.405931"/>
     <use style="stroke:#000000;" x="171.79163" xlink:href="#m331c0fbe8a" y="150.405931"/>
     <use style="stroke:#000000;" x="173.762573" xlink:href="#m331c0fbe8a" y="147.968259"/>
     <use style="stroke:#000000;" x="178.596683" xlink:href="#m331c0fbe8a" y="150.534825"/>
     <use style="stroke:#000000;" x="178.168843" xlink:href="#m331c0fbe8a" y="148.084232"/>
     <use style="stroke:#000000;" x="183.482566" xlink:href="#m331c0fbe8a" y="142.805503"/>
     <use style="stroke:#000000;" x="186.934116" xlink:href="#m331c0fbe8a" y="142.713142"/>
     <use style="stroke:#000000;" x="188.230357" xlink:href="#m331c0fbe8a" y="138.433493"/>
     <use style="stroke:#000000;" x="164.974647" xlink:href="#m331c0fbe8a" y="170.971758"/>
     <use style="stroke:#000000;" x="166.694963" xlink:href="#m331c0fbe8a" y="169.753767"/>
     <use style="stroke:#000000;" x="166.827295" xlink:href="#m331c0fbe8a" y="169.753767"/>
     <use style="stroke:#000000;" x="173.0469" xlink:href="#m331c0fbe8a" y="165.436825"/>
     <use style="stroke:#000000;" x="174.237888" xlink:href="#m331c0fbe8a" y="168.316256"/>
     <use style="stroke:#000000;" x="179.6635" xlink:href="#m331c0fbe8a" y="164.709965"/>
     <use style="stroke:#000000;" x="181.516149" xlink:href="#m331c0fbe8a" y="165.684276"/>
     <use style="stroke:#000000;" x="184.162789" xlink:href="#m331c0fbe8a" y="166.187263"/>
     <use style="stroke:#000000;" x="188.529746" xlink:href="#m331c0fbe8a" y="160.973713"/>
     <use style="stroke:#000000;" x="189.323738" xlink:href="#m331c0fbe8a" y="162.876413"/>
     <use style="stroke:#000000;" x="196.734331" xlink:href="#m331c0fbe8a" y="164.472665"/>
     <use style="stroke:#000000;" x="199.910299" xlink:href="#m331c0fbe8a" y="153.865569"/>
     <use style="stroke:#000000;" x="202.821603" xlink:href="#m331c0fbe8a" y="154.62421"/>
    </g>
   </g>
   <g id="patch_3">
    <path d="M 49.978125 239.758125 
L 49.978125 22.318125 
" style="fill:none;stroke:#000000;stroke-linecap:square;stroke-linejoin:miter;stroke-width:0.8;"/>
   </g>
   <g id="patch_4">
    <path d="M 384.778125 239.758125 
L 384.778125 22.318125 
" style="fill:none;stroke:#000000;stroke-linecap:square;stroke-linejoin:miter;stroke-width:0.8;"/>
   </g>
   <g id="patch_5">
    <path d="M 49.978125 239.758125 
L 384.778125 239.758125 
" style="fill:none;stroke:#000000;stroke-linecap:square;stroke-linejoin:miter;stroke-width:0.8;"/>
   </g>
   <g id="patch_6">
    <path d="M 49.978125 22.318125 
L 384.778125 22.318125 
" style="fill:none;stroke:#000000;stroke-linecap:square;stroke-linejoin:miter;stroke-width:0.8;"/>
   </g>
   <g id="text_12">
    <!-- 2 HO2 &lt;=&gt; H2O2 + O2 -->
    <defs>
     <path d="M 9.8125 72.90625 
L 19.671875 72.90625 
L 19.671875 43.015625 
L 55.515625 43.015625 
L 55.515625 72.90625 
L 65.375 72.90625 
L 65.375 0 
L 55.515625 0 
L 55.515625 34.71875 
L 19.671875 34.71875 
L 19.671875 0 
L 9.8125 0 
z
" id="DejaVuSans-72"/>
     <path d="M 39.40625 66.21875 
Q 28.65625 66.21875 22.328125 58.203125 
Q 16.015625 50.203125 16.015625 36.375 
Q 16.015625 22.609375 22.328125 14.59375 
Q 28.65625 6.59375 39.40625 6.59375 
Q 50.140625 6.59375 56.421875 14.59375 
Q 62.703125 22.609375 62.703125 36.375 
Q 62.703125 50.203125 56.421875 58.203125 
Q 50.140625 66.21875 39.40625 66.21875 
z
M 39.40625 74.21875 
Q 54.734375 74.21875 63.90625 63.9375 
Q 73.09375 53.65625 73.09375 36.375 
Q 73.09375 19.140625 63.90625 8.859375 
Q 54.734375 -1.421875 39.40625 -1.421875 
Q 24.03125 -1.421875 14.8125 8.828125 
Q 5.609375 19.09375 5.609375 36.375 
Q 5.609375 53.65625 14.8125 63.9375 
Q 24.03125 74.21875 39.40625 74.21875 
z
" id="DejaVuSans-79"/>
     <path d="M 73.1875 49.21875 
L 22.796875 31.296875 
L 73.1875 13.484375 
L 73.1875 4.59375 
L 10.59375 27.296875 
L 10.59375 35.40625 
L 73.1875 58.109375 
z
" id="DejaVuSans-60"/>
     <path d="M 10.59375 45.40625 
L 73.1875 45.40625 
L 73.1875 37.203125 
L 10.59375 37.203125 
z
M 10.59375 25.484375 
L 73.1875 25.484375 
L 73.1875 17.1875 
L 10.59375 17.1875 
z
" id="DejaVuSans-61"/>
     <path d="M 10.59375 49.21875 
L 10.59375 58.109375 
L 73.1875 35.40625 
L 73.1875 27.296875 
L 10.59375 4.59375 
L 10.59375 13.484375 
L 60.890625 31.296875 
z
" id="DejaVuSans-62"/>
     <path d="M 46 62.703125 
L 46 35.5 
L 73.1875 35.5 
L 73.1875 27.203125 
L 46 27.203125 
L 46 0 
L 37.796875 0 
L 37.796875 27.203125 
L 10.59375 27.203125 
L 10.59375 35.5 
L 37.796875 35.5 
L 37.796875 62.703125 
z
" id="DejaVuSans-43"/>
    </defs>
    <g transform="translate(145.45125 16.318125)scale(0.12 -0.12)">
     <use xlink:href="#DejaVuSans-50"/>
     <use x="63.623047" xlink:href="#DejaVuSans-32"/>
     <use x="95.410156" xlink:href="#DejaVuSans-72"/>
     <use x="170.605469" xlink:href="#DejaVuSans-79"/>
     <use x="249.316406" xlink:href="#DejaVuSans-50"/>
     <use x="312.939453" xlink:href="#DejaVuSans-32"/>
     <use x="344.726562" xlink:href="#DejaVuSans-60"/>
     <use x="428.515625" xlink:href="#DejaVuSans-61"/>
     <use x="512.304688" xlink:href="#DejaVuSans-62"/>
     <use x="596.09375" xlink:href="#DejaVuSans-32"/>
     <use x="627.880859" xlink:href="#DejaVuSans-72"/>
     <use x="703.076172" xlink:href="#DejaVuSans-50"/>
     <use x="766.699219" xlink:href="#DejaVuSans-79"/>
     <use x="845.410156" xlink:href="#DejaVuSans-50"/>
     <use x="909.033203" xlink:href="#DejaVuSans-32"/>
     <use x="940.820312" xlink:href="#DejaVuSans-43"/>
     <use x="1024.609375" xlink:href="#DejaVuSans-32"/>
     <use x="1056.396484" xlink:href="#DejaVuSans-79"/>
     <use x="1135.107422" xlink:href="#DejaVuSans-50"/>
    </g>
   </g>
  </g>
 </g>
 <defs>
  <clipPath id="pb3973cdf16">
   <rect height="217.44" width="334.8" x="49.978125" y="22.318125"/>
  </clipPath>
 </defs>
</svg>
