<?xml version="1.0" encoding="utf-8" standalone="no"?>
<!DOCTYPE svg PUBLIC "-//W3C//DTD SVG 1.1//EN"
  "http://www.w3.org/Graphics/SVG/1.1/DTD/svg11.dtd">
<!-- Created with matplotlib (https://matplotlib.org/) -->
<svg height="277.314375pt" version="1.1" viewBox="0 0 392.465625 277.314375" width="392.465625pt" xmlns="http://www.w3.org/2000/svg" xmlns:xlink="http://www.w3.org/1999/xlink">
 <defs>
  <style type="text/css">
*{stroke-linecap:butt;stroke-linejoin:round;}
  </style>
 </defs>
 <g id="figure_1">
  <g id="patch_1">
   <path d="M 0 277.314375 
L 392.465625 277.314375 
L 392.465625 0 
L 0 0 
z
" style="fill:#ffffff;"/>
  </g>
  <g id="axes_1">
   <g id="patch_2">
    <path d="M 46.965625 239.758125 
L 381.765625 239.758125 
L 381.765625 22.318125 
L 46.965625 22.318125 
z
" style="fill:#ffffff;"/>
   </g>
   <g id="matplotlib.axis_1">
    <g id="xtick_1">
     <g id="line2d_1">
      <defs>
       <path d="M 0 0 
L 0 3.5 
" id="mc2da3bc8b9" style="stroke:#000000;stroke-width:0.8;"/>
      </defs>
      <g>
       <use style="stroke:#000000;stroke-width:0.8;" x="62.183807" xlink:href="#mc2da3bc8b9" y="239.758125"/>
      </g>
     </g>
     <g id="text_1">
      <!-- 0.0 -->
      <defs>
       <path d="M 31.78125 66.40625 
Q 24.171875 66.40625 20.328125 58.90625 
Q 16.5 51.421875 16.5 36.375 
Q 16.5 21.390625 20.328125 13.890625 
Q 24.171875 6.390625 31.78125 6.390625 
Q 39.453125 6.390625 43.28125 13.890625 
Q 47.125 21.390625 47.125 36.375 
Q 47.125 51.421875 43.28125 58.90625 
Q 39.453125 66.40625 31.78125 66.40625 
z
M 31.78125 74.21875 
Q 44.046875 74.21875 50.515625 64.515625 
Q 56.984375 54.828125 56.984375 36.375 
Q 56.984375 17.96875 50.515625 8.265625 
Q 44.046875 -1.421875 31.78125 -1.421875 
Q 19.53125 -1.421875 13.0625 8.265625 
Q 6.59375 17.96875 6.59375 36.375 
Q 6.59375 54.828125 13.0625 64.515625 
Q 19.53125 74.21875 31.78125 74.21875 
z
" id="DejaVuSans-48"/>
       <path d="M 10.6875 12.40625 
L 21 12.40625 
L 21 0 
L 10.6875 0 
z
" id="DejaVuSans-46"/>
      </defs>
      <g transform="translate(54.232244 254.356562)scale(0.1 -0.1)">
       <use xlink:href="#DejaVuSans-48"/>
       <use x="63.623047" xlink:href="#DejaVuSans-46"/>
       <use x="95.410156" xlink:href="#DejaVuSans-48"/>
      </g>
     </g>
    </g>
    <g id="xtick_2">
     <g id="line2d_2">
      <g>
       <use style="stroke:#000000;stroke-width:0.8;" x="112.165615" xlink:href="#mc2da3bc8b9" y="239.758125"/>
      </g>
     </g>
     <g id="text_2">
      <!-- 0.5 -->
      <defs>
       <path d="M 10.796875 72.90625 
L 49.515625 72.90625 
L 49.515625 64.59375 
L 19.828125 64.59375 
L 19.828125 46.734375 
Q 21.96875 47.46875 24.109375 47.828125 
Q 26.265625 48.1875 28.421875 48.1875 
Q 40.625 48.1875 47.75 41.5 
Q 54.890625 34.8125 54.890625 23.390625 
Q 54.890625 11.625 47.5625 5.09375 
Q 40.234375 -1.421875 26.90625 -1.421875 
Q 22.3125 -1.421875 17.546875 -0.640625 
Q 12.796875 0.140625 7.71875 1.703125 
L 7.71875 11.625 
Q 12.109375 9.234375 16.796875 8.0625 
Q 21.484375 6.890625 26.703125 6.890625 
Q 35.15625 6.890625 40.078125 11.328125 
Q 45.015625 15.765625 45.015625 23.390625 
Q 45.015625 31 40.078125 35.4375 
Q 35.15625 39.890625 26.703125 39.890625 
Q 22.75 39.890625 18.8125 39.015625 
Q 14.890625 38.140625 10.796875 36.28125 
z
" id="DejaVuSans-53"/>
      </defs>
      <g transform="translate(104.214052 254.356562)scale(0.1 -0.1)">
       <use xlink:href="#DejaVuSans-48"/>
       <use x="63.623047" xlink:href="#DejaVuSans-46"/>
       <use x="95.410156" xlink:href="#DejaVuSans-53"/>
      </g>
     </g>
    </g>
    <g id="xtick_3">
     <g id="line2d_3">
      <g>
       <use style="stroke:#000000;stroke-width:0.8;" x="162.147422" xlink:href="#mc2da3bc8b9" y="239.758125"/>
      </g>
     </g>
     <g id="text_3">
      <!-- 1.0 -->
      <defs>
       <path d="M 12.40625 8.296875 
L 28.515625 8.296875 
L 28.515625 63.921875 
L 10.984375 60.40625 
L 10.984375 69.390625 
L 28.421875 72.90625 
L 38.28125 72.90625 
L 38.28125 8.296875 
L 54.390625 8.296875 
L 54.390625 0 
L 12.40625 0 
z
" id="DejaVuSans-49"/>
      </defs>
      <g transform="translate(154.19586 254.356562)scale(0.1 -0.1)">
       <use xlink:href="#DejaVuSans-49"/>
       <use x="63.623047" xlink:href="#DejaVuSans-46"/>
       <use x="95.410156" xlink:href="#DejaVuSans-48"/>
      </g>
     </g>
    </g>
    <g id="xtick_4">
     <g id="line2d_4">
      <g>
       <use style="stroke:#000000;stroke-width:0.8;" x="212.12923" xlink:href="#mc2da3bc8b9" y="239.758125"/>
      </g>
     </g>
     <g id="text_4">
      <!-- 1.5 -->
      <g transform="translate(204.177668 254.356562)scale(0.1 -0.1)">
       <use xlink:href="#DejaVuSans-49"/>
       <use x="63.623047" xlink:href="#DejaVuSans-46"/>
       <use x="95.410156" xlink:href="#DejaVuSans-53"/>
      </g>
     </g>
    </g>
    <g id="xtick_5">
     <g id="line2d_5">
      <g>
       <use style="stroke:#000000;stroke-width:0.8;" x="262.111038" xlink:href="#mc2da3bc8b9" y="239.758125"/>
      </g>
     </g>
     <g id="text_5">
      <!-- 2.0 -->
      <defs>
       <path d="M 19.1875 8.296875 
L 53.609375 8.296875 
L 53.609375 0 
L 7.328125 0 
L 7.328125 8.296875 
Q 12.9375 14.109375 22.625 23.890625 
Q 32.328125 33.6875 34.8125 36.53125 
Q 39.546875 41.84375 41.421875 45.53125 
Q 43.3125 49.21875 43.3125 52.78125 
Q 43.3125 58.59375 39.234375 62.25 
Q 35.15625 65.921875 28.609375 65.921875 
Q 23.96875 65.921875 18.8125 64.3125 
Q 13.671875 62.703125 7.8125 59.421875 
L 7.8125 69.390625 
Q 13.765625 71.78125 18.9375 73 
Q 24.125 74.21875 28.421875 74.21875 
Q 39.75 74.21875 46.484375 68.546875 
Q 53.21875 62.890625 53.21875 53.421875 
Q 53.21875 48.921875 51.53125 44.890625 
Q 49.859375 40.875 45.40625 35.40625 
Q 44.1875 33.984375 37.640625 27.21875 
Q 31.109375 20.453125 19.1875 8.296875 
z
" id="DejaVuSans-50"/>
      </defs>
      <g transform="translate(254.159475 254.356562)scale(0.1 -0.1)">
       <use xlink:href="#DejaVuSans-50"/>
       <use x="63.623047" xlink:href="#DejaVuSans-46"/>
       <use x="95.410156" xlink:href="#DejaVuSans-48"/>
      </g>
     </g>
    </g>
    <g id="xtick_6">
     <g id="line2d_6">
      <g>
       <use style="stroke:#000000;stroke-width:0.8;" x="312.092846" xlink:href="#mc2da3bc8b9" y="239.758125"/>
      </g>
     </g>
     <g id="text_6">
      <!-- 2.5 -->
      <g transform="translate(304.141283 254.356562)scale(0.1 -0.1)">
       <use xlink:href="#DejaVuSans-50"/>
       <use x="63.623047" xlink:href="#DejaVuSans-46"/>
       <use x="95.410156" xlink:href="#DejaVuSans-53"/>
      </g>
     </g>
    </g>
    <g id="xtick_7">
     <g id="line2d_7">
      <g>
       <use style="stroke:#000000;stroke-width:0.8;" x="362.074653" xlink:href="#mc2da3bc8b9" y="239.758125"/>
      </g>
     </g>
     <g id="text_7">
      <!-- 3.0 -->
      <defs>
       <path d="M 40.578125 39.3125 
Q 47.65625 37.796875 51.625 33 
Q 55.609375 28.21875 55.609375 21.1875 
Q 55.609375 10.40625 48.1875 4.484375 
Q 40.765625 -1.421875 27.09375 -1.421875 
Q 22.515625 -1.421875 17.65625 -0.515625 
Q 12.796875 0.390625 7.625 2.203125 
L 7.625 11.71875 
Q 11.71875 9.328125 16.59375 8.109375 
Q 21.484375 6.890625 26.8125 6.890625 
Q 36.078125 6.890625 40.9375 10.546875 
Q 45.796875 14.203125 45.796875 21.1875 
Q 45.796875 27.640625 41.28125 31.265625 
Q 36.765625 34.90625 28.71875 34.90625 
L 20.21875 34.90625 
L 20.21875 43.015625 
L 29.109375 43.015625 
Q 36.375 43.015625 40.234375 45.921875 
Q 44.09375 48.828125 44.09375 54.296875 
Q 44.09375 59.90625 40.109375 62.90625 
Q 36.140625 65.921875 28.71875 65.921875 
Q 24.65625 65.921875 20.015625 65.03125 
Q 15.375 64.15625 9.8125 62.3125 
L 9.8125 71.09375 
Q 15.4375 72.65625 20.34375 73.4375 
Q 25.25 74.21875 29.59375 74.21875 
Q 40.828125 74.21875 47.359375 69.109375 
Q 53.90625 64.015625 53.90625 55.328125 
Q 53.90625 49.265625 50.4375 45.09375 
Q 46.96875 40.921875 40.578125 39.3125 
z
" id="DejaVuSans-51"/>
      </defs>
      <g transform="translate(354.123091 254.356562)scale(0.1 -0.1)">
       <use xlink:href="#DejaVuSans-51"/>
       <use x="63.623047" xlink:href="#DejaVuSans-46"/>
       <use x="95.410156" xlink:href="#DejaVuSans-48"/>
      </g>
     </g>
    </g>
    <g id="text_8">
     <!-- Time (ms) -->
     <defs>
      <path d="M -0.296875 72.90625 
L 61.375 72.90625 
L 61.375 64.59375 
L 35.5 64.59375 
L 35.5 0 
L 25.59375 0 
L 25.59375 64.59375 
L -0.296875 64.59375 
z
" id="DejaVuSans-84"/>
      <path d="M 9.421875 54.6875 
L 18.40625 54.6875 
L 18.40625 0 
L 9.421875 0 
z
M 9.421875 75.984375 
L 18.40625 75.984375 
L 18.40625 64.59375 
L 9.421875 64.59375 
z
" id="DejaVuSans-105"/>
      <path d="M 52 44.1875 
Q 55.375 50.25 60.0625 53.125 
Q 64.75 56 71.09375 56 
Q 79.640625 56 84.28125 50.015625 
Q 88.921875 44.046875 88.921875 33.015625 
L 88.921875 0 
L 79.890625 0 
L 79.890625 32.71875 
Q 79.890625 40.578125 77.09375 44.375 
Q 74.3125 48.1875 68.609375 48.1875 
Q 61.625 48.1875 57.5625 43.546875 
Q 53.515625 38.921875 53.515625 30.90625 
L 53.515625 0 
L 44.484375 0 
L 44.484375 32.71875 
Q 44.484375 40.625 41.703125 44.40625 
Q 38.921875 48.1875 33.109375 48.1875 
Q 26.21875 48.1875 22.15625 43.53125 
Q 18.109375 38.875 18.109375 30.90625 
L 18.109375 0 
L 9.078125 0 
L 9.078125 54.6875 
L 18.109375 54.6875 
L 18.109375 46.1875 
Q 21.1875 51.21875 25.484375 53.609375 
Q 29.78125 56 35.6875 56 
Q 41.65625 56 45.828125 52.96875 
Q 50 49.953125 52 44.1875 
z
" id="DejaVuSans-109"/>
      <path d="M 56.203125 29.59375 
L 56.203125 25.203125 
L 14.890625 25.203125 
Q 15.484375 15.921875 20.484375 11.0625 
Q 25.484375 6.203125 34.421875 6.203125 
Q 39.59375 6.203125 44.453125 7.46875 
Q 49.3125 8.734375 54.109375 11.28125 
L 54.109375 2.78125 
Q 49.265625 0.734375 44.1875 -0.34375 
Q 39.109375 -1.421875 33.890625 -1.421875 
Q 20.796875 -1.421875 13.15625 6.1875 
Q 5.515625 13.8125 5.515625 26.8125 
Q 5.515625 40.234375 12.765625 48.109375 
Q 20.015625 56 32.328125 56 
Q 43.359375 56 49.78125 48.890625 
Q 56.203125 41.796875 56.203125 29.59375 
z
M 47.21875 32.234375 
Q 47.125 39.59375 43.09375 43.984375 
Q 39.0625 48.390625 32.421875 48.390625 
Q 24.90625 48.390625 20.390625 44.140625 
Q 15.875 39.890625 15.1875 32.171875 
z
" id="DejaVuSans-101"/>
      <path id="DejaVuSans-32"/>
      <path d="M 31 75.875 
Q 24.46875 64.65625 21.28125 53.65625 
Q 18.109375 42.671875 18.109375 31.390625 
Q 18.109375 20.125 21.3125 9.0625 
Q 24.515625 -2 31 -13.1875 
L 23.1875 -13.1875 
Q 15.875 -1.703125 12.234375 9.375 
Q 8.59375 20.453125 8.59375 31.390625 
Q 8.59375 42.28125 12.203125 53.3125 
Q 15.828125 64.359375 23.1875 75.875 
z
" id="DejaVuSans-40"/>
      <path d="M 44.28125 53.078125 
L 44.28125 44.578125 
Q 40.484375 46.53125 36.375 47.5 
Q 32.28125 48.484375 27.875 48.484375 
Q 21.1875 48.484375 17.84375 46.4375 
Q 14.5 44.390625 14.5 40.28125 
Q 14.5 37.15625 16.890625 35.375 
Q 19.28125 33.59375 26.515625 31.984375 
L 29.59375 31.296875 
Q 39.15625 29.25 43.1875 25.515625 
Q 47.21875 21.78125 47.21875 15.09375 
Q 47.21875 7.46875 41.1875 3.015625 
Q 35.15625 -1.421875 24.609375 -1.421875 
Q 20.21875 -1.421875 15.453125 -0.5625 
Q 10.6875 0.296875 5.421875 2 
L 5.421875 11.28125 
Q 10.40625 8.6875 15.234375 7.390625 
Q 20.0625 6.109375 24.8125 6.109375 
Q 31.15625 6.109375 34.5625 8.28125 
Q 37.984375 10.453125 37.984375 14.40625 
Q 37.984375 18.0625 35.515625 20.015625 
Q 33.0625 21.96875 24.703125 23.78125 
L 21.578125 24.515625 
Q 13.234375 26.265625 9.515625 29.90625 
Q 5.8125 33.546875 5.8125 39.890625 
Q 5.8125 47.609375 11.28125 51.796875 
Q 16.75 56 26.8125 56 
Q 31.78125 56 36.171875 55.265625 
Q 40.578125 54.546875 44.28125 53.078125 
z
" id="DejaVuSans-115"/>
      <path d="M 8.015625 75.875 
L 15.828125 75.875 
Q 23.140625 64.359375 26.78125 53.3125 
Q 30.421875 42.28125 30.421875 31.390625 
Q 30.421875 20.453125 26.78125 9.375 
Q 23.140625 -1.703125 15.828125 -13.1875 
L 8.015625 -13.1875 
Q 14.5 -2 17.703125 9.0625 
Q 20.90625 20.125 20.90625 31.390625 
Q 20.90625 42.671875 17.703125 53.65625 
Q 14.5 64.65625 8.015625 75.875 
z
" id="DejaVuSans-41"/>
     </defs>
     <g transform="translate(189.0125 268.034687)scale(0.1 -0.1)">
      <use xlink:href="#DejaVuSans-84"/>
      <use x="61.037109" xlink:href="#DejaVuSans-105"/>
      <use x="88.820312" xlink:href="#DejaVuSans-109"/>
      <use x="186.232422" xlink:href="#DejaVuSans-101"/>
      <use x="247.755859" xlink:href="#DejaVuSans-32"/>
      <use x="279.542969" xlink:href="#DejaVuSans-40"/>
      <use x="318.556641" xlink:href="#DejaVuSans-109"/>
      <use x="415.96875" xlink:href="#DejaVuSans-115"/>
      <use x="468.068359" xlink:href="#DejaVuSans-41"/>
     </g>
    </g>
   </g>
   <g id="matplotlib.axis_2">
    <g id="ytick_1">
     <g id="line2d_8">
      <defs>
       <path d="M 0 0 
L -3.5 0 
" id="m8777e6ed5e" style="stroke:#000000;stroke-width:0.8;"/>
      </defs>
      <g>
       <use style="stroke:#000000;stroke-width:0.8;" x="46.965625" xlink:href="#m8777e6ed5e" y="229.874489"/>
      </g>
     </g>
     <g id="text_9">
      <!-- 0 -->
      <g transform="translate(33.603125 233.673707)scale(0.1 -0.1)">
       <use xlink:href="#DejaVuSans-48"/>
      </g>
     </g>
    </g>
    <g id="ytick_2">
     <g id="line2d_9">
      <g>
       <use style="stroke:#000000;stroke-width:0.8;" x="46.965625" xlink:href="#m8777e6ed5e" y="195.452859"/>
      </g>
     </g>
     <g id="text_10">
      <!-- 50 -->
      <g transform="translate(27.240625 199.252078)scale(0.1 -0.1)">
       <use xlink:href="#DejaVuSans-53"/>
       <use x="63.623047" xlink:href="#DejaVuSans-48"/>
      </g>
     </g>
    </g>
    <g id="ytick_3">
     <g id="line2d_10">
      <g>
       <use style="stroke:#000000;stroke-width:0.8;" x="46.965625" xlink:href="#m8777e6ed5e" y="161.031229"/>
      </g>
     </g>
     <g id="text_11">
      <!-- 100 -->
      <g transform="translate(20.878125 164.830448)scale(0.1 -0.1)">
       <use xlink:href="#DejaVuSans-49"/>
       <use x="63.623047" xlink:href="#DejaVuSans-48"/>
       <use x="127.246094" xlink:href="#DejaVuSans-48"/>
      </g>
     </g>
    </g>
    <g id="ytick_4">
     <g id="line2d_11">
      <g>
       <use style="stroke:#000000;stroke-width:0.8;" x="46.965625" xlink:href="#m8777e6ed5e" y="126.6096"/>
      </g>
     </g>
     <g id="text_12">
      <!-- 150 -->
      <g transform="translate(20.878125 130.408818)scale(0.1 -0.1)">
       <use xlink:href="#DejaVuSans-49"/>
       <use x="63.623047" xlink:href="#DejaVuSans-53"/>
       <use x="127.246094" xlink:href="#DejaVuSans-48"/>
      </g>
     </g>
    </g>
    <g id="ytick_5">
     <g id="line2d_12">
      <g>
       <use style="stroke:#000000;stroke-width:0.8;" x="46.965625" xlink:href="#m8777e6ed5e" y="92.18797"/>
      </g>
     </g>
     <g id="text_13">
      <!-- 200 -->
      <g transform="translate(20.878125 95.987189)scale(0.1 -0.1)">
       <use xlink:href="#DejaVuSans-50"/>
       <use x="63.623047" xlink:href="#DejaVuSans-48"/>
       <use x="127.246094" xlink:href="#DejaVuSans-48"/>
      </g>
     </g>
    </g>
    <g id="ytick_6">
     <g id="line2d_13">
      <g>
       <use style="stroke:#000000;stroke-width:0.8;" x="46.965625" xlink:href="#m8777e6ed5e" y="57.76634"/>
      </g>
     </g>
     <g id="text_14">
      <!-- 250 -->
      <g transform="translate(20.878125 61.565559)scale(0.1 -0.1)">
       <use xlink:href="#DejaVuSans-50"/>
       <use x="63.623047" xlink:href="#DejaVuSans-53"/>
       <use x="127.246094" xlink:href="#DejaVuSans-48"/>
      </g>
     </g>
    </g>
    <g id="ytick_7">
     <g id="line2d_14">
      <g>
       <use style="stroke:#000000;stroke-width:0.8;" x="46.965625" xlink:href="#m8777e6ed5e" y="23.34471"/>
      </g>
     </g>
     <g id="text_15">
      <!-- 300 -->
      <g transform="translate(20.878125 27.143929)scale(0.1 -0.1)">
       <use xlink:href="#DejaVuSans-51"/>
       <use x="63.623047" xlink:href="#DejaVuSans-48"/>
       <use x="127.246094" xlink:href="#DejaVuSans-48"/>
      </g>
     </g>
    </g>
    <g id="text_16">
     <!-- ppmOH -->
     <defs>
      <path d="M 18.109375 8.203125 
L 18.109375 -20.796875 
L 9.078125 -20.796875 
L 9.078125 54.6875 
L 18.109375 54.6875 
L 18.109375 46.390625 
Q 20.953125 51.265625 25.265625 53.625 
Q 29.59375 56 35.59375 56 
Q 45.5625 56 51.78125 48.09375 
Q 58.015625 40.1875 58.015625 27.296875 
Q 58.015625 14.40625 51.78125 6.484375 
Q 45.5625 -1.421875 35.59375 -1.421875 
Q 29.59375 -1.421875 25.265625 0.953125 
Q 20.953125 3.328125 18.109375 8.203125 
z
M 48.6875 27.296875 
Q 48.6875 37.203125 44.609375 42.84375 
Q 40.53125 48.484375 33.40625 48.484375 
Q 26.265625 48.484375 22.1875 42.84375 
Q 18.109375 37.203125 18.109375 27.296875 
Q 18.109375 17.390625 22.1875 11.75 
Q 26.265625 6.109375 33.40625 6.109375 
Q 40.53125 6.109375 44.609375 11.75 
Q 48.6875 17.390625 48.6875 27.296875 
z
" id="DejaVuSans-112"/>
      <path d="M 39.40625 66.21875 
Q 28.65625 66.21875 22.328125 58.203125 
Q 16.015625 50.203125 16.015625 36.375 
Q 16.015625 22.609375 22.328125 14.59375 
Q 28.65625 6.59375 39.40625 6.59375 
Q 50.140625 6.59375 56.421875 14.59375 
Q 62.703125 22.609375 62.703125 36.375 
Q 62.703125 50.203125 56.421875 58.203125 
Q 50.140625 66.21875 39.40625 66.21875 
z
M 39.40625 74.21875 
Q 54.734375 74.21875 63.90625 63.9375 
Q 73.09375 53.65625 73.09375 36.375 
Q 73.09375 19.140625 63.90625 8.859375 
Q 54.734375 -1.421875 39.40625 -1.421875 
Q 24.03125 -1.421875 14.8125 8.828125 
Q 5.609375 19.09375 5.609375 36.375 
Q 5.609375 53.65625 14.8125 63.9375 
Q 24.03125 74.21875 39.40625 74.21875 
z
" id="DejaVuSans-79"/>
      <path d="M 9.8125 72.90625 
L 19.671875 72.90625 
L 19.671875 43.015625 
L 55.515625 43.015625 
L 55.515625 72.90625 
L 65.375 72.90625 
L 65.375 0 
L 55.515625 0 
L 55.515625 34.71875 
L 19.671875 34.71875 
L 19.671875 0 
L 9.8125 0 
z
" id="DejaVuSans-72"/>
     </defs>
     <g transform="translate(14.798438 149.952969)rotate(-90)scale(0.1 -0.1)">
      <use xlink:href="#DejaVuSans-112"/>
      <use x="63.476562" xlink:href="#DejaVuSans-112"/>
      <use x="126.953125" xlink:href="#DejaVuSans-109"/>
      <use x="224.365234" xlink:href="#DejaVuSans-79"/>
      <use x="303.076172" xlink:href="#DejaVuSans-72"/>
     </g>
    </g>
   </g>
   <g id="line2d_15">
    <path clip-path="url(#pa0bb6c39ae)" d="M 62.183807 229.874489 
L 62.510566 208.643263 
L 62.830432 199.963969 
L 63.117256 196.981073 
L 63.370828 196.16693 
L 63.548329 196.123133 
L 63.776545 196.396801 
L 64.311646 197.554767 
L 65.195189 199.349003 
L 65.951322 200.394732 
L 66.768583 201.133691 
L 67.648452 201.633692 
L 68.795509 202.011669 
L 70.384113 202.268173 
L 73.031786 202.432082 
L 83.10949 202.909457 
L 89.851086 203.518662 
L 97.668728 204.44766 
L 109.404146 206.081214 
L 137.299622 210.028059 
L 151.7773 211.819413 
L 166.254978 213.393602 
L 181.846324 214.859827 
L 197.437669 216.100052 
L 213.029015 217.121643 
L 229.734028 217.991324 
L 248.666377 218.739552 
L 270.939728 219.37862 
L 298.251395 219.931239 
L 336.741447 220.472905 
L 363.829796 220.765161 
L 363.829796 220.765161 
" style="fill:none;stroke:#0000ff;stroke-linecap:square;stroke-width:1.5;"/>
   </g>
   <g id="line2d_16">
    <path clip-path="url(#pa0bb6c39ae)" d="M 62.183807 229.874489 
L 62.568204 108.508311 
L 62.915259 60.010326 
L 63.201323 45.304691 
L 63.412515 42.60817 
L 63.454753 42.595676 
L 63.475873 42.640345 
L 63.602588 43.503288 
L 63.856018 47.275687 
L 65.588499 77.41851 
L 66.29853 84.583714 
L 67.098281 90.44115 
L 68.005749 95.470298 
L 69.134376 100.448347 
L 70.623059 105.94343 
L 72.57243 112.281255 
L 75.357436 120.527293 
L 78.49977 129.15572 
L 82.286552 138.901818 
L 86.277886 148.570724 
L 89.770303 156.463652 
L 92.514345 162.167364 
L 95.008929 166.885583 
L 97.503512 171.115035 
L 99.748638 174.49679 
L 101.993763 177.491534 
L 104.238888 180.128035 
L 106.484014 182.44223 
L 108.978597 184.681881 
L 111.473181 186.621133 
L 114.095071 188.385633 
L 117.109188 190.125828 
L 120.123306 191.612908 
L 123.514188 193.04118 
L 127.097267 194.32422 
L 131.080003 195.533902 
L 135.631701 196.697569 
L 141.038722 197.846891 
L 147.025987 198.897031 
L 154.723899 199.99597 
L 162.961354 200.947147 
L 173.404248 201.920639 
L 185.152503 202.802786 
L 201.014183 203.757852 
L 220.841282 204.708223 
L 244.848913 205.635129 
L 278.155184 206.677479 
L 320.76429 207.768759 
L 366.547443 208.760378 
L 366.547443 208.760378 
" style="fill:none;stroke:#ff0000;stroke-linecap:square;stroke-width:1.5;"/>
   </g>
   <g id="line2d_17">
    <defs>
     <path d="M 0 3 
C 0.795609 3 1.55874 2.683901 2.12132 2.12132 
C 2.683901 1.55874 3 0.795609 3 0 
C 3 -0.795609 2.683901 -1.55874 2.12132 -2.12132 
C 1.55874 -2.683901 0.795609 -3 0 -3 
C -0.795609 -3 -1.55874 -2.683901 -2.12132 -2.12132 
C -2.683901 -1.55874 -3 -0.795609 -3 0 
C -3 0.795609 -2.683901 1.55874 -2.12132 2.12132 
C -1.55874 2.683901 -0.795609 3 0 3 
z
" id="m5ab8b7a9e5" style="stroke:#000000;"/>
    </defs>
    <g clip-path="url(#pa0bb6c39ae)">
     <use style="stroke:#000000;" x="62.183807" xlink:href="#m5ab8b7a9e5" y="229.874489"/>
     <use style="stroke:#000000;" x="62.183809" xlink:href="#m5ab8b7a9e5" y="229.874316"/>
     <use style="stroke:#000000;" x="62.183815" xlink:href="#m5ab8b7a9e5" y="229.873773"/>
     <use style="stroke:#000000;" x="62.183821" xlink:href="#m5ab8b7a9e5" y="229.873231"/>
     <use style="stroke:#000000;" x="62.183827" xlink:href="#m5ab8b7a9e5" y="229.872688"/>
     <use style="stroke:#000000;" x="62.183833" xlink:href="#m5ab8b7a9e5" y="229.872145"/>
     <use style="stroke:#000000;" x="62.183845" xlink:href="#m5ab8b7a9e5" y="229.871"/>
     <use style="stroke:#000000;" x="62.183868" xlink:href="#m5ab8b7a9e5" y="229.868915"/>
     <use style="stroke:#000000;" x="62.183909" xlink:href="#m5ab8b7a9e5" y="229.865219"/>
     <use style="stroke:#000000;" x="62.183982" xlink:href="#m5ab8b7a9e5" y="229.858609"/>
     <use style="stroke:#000000;" x="62.184132" xlink:href="#m5ab8b7a9e5" y="229.844956"/>
     <use style="stroke:#000000;" x="62.184282" xlink:href="#m5ab8b7a9e5" y="229.831308"/>
     <use style="stroke:#000000;" x="62.184432" xlink:href="#m5ab8b7a9e5" y="229.817667"/>
     <use style="stroke:#000000;" x="62.184666" xlink:href="#m5ab8b7a9e5" y="229.796456"/>
     <use style="stroke:#000000;" x="62.184896" xlink:href="#m5ab8b7a9e5" y="229.775259"/>
     <use style="stroke:#000000;" x="62.185136" xlink:href="#m5ab8b7a9e5" y="229.754076"/>
     <use style="stroke:#000000;" x="62.185366" xlink:href="#m5ab8b7a9e5" y="229.732908"/>
     <use style="stroke:#000000;" x="62.185796" xlink:href="#m5ab8b7a9e5" y="229.693632"/>
     <use style="stroke:#000000;" x="62.186236" xlink:href="#m5ab8b7a9e5" y="229.654406"/>
     <use style="stroke:#000000;" x="62.186666" xlink:href="#m5ab8b7a9e5" y="229.615228"/>
     <use style="stroke:#000000;" x="62.187396" xlink:href="#m5ab8b7a9e5" y="229.549582"/>
     <use style="stroke:#000000;" x="62.188645" xlink:href="#m5ab8b7a9e5" y="229.436953"/>
     <use style="stroke:#000000;" x="62.189905" xlink:href="#m5ab8b7a9e5" y="229.324728"/>
     <use style="stroke:#000000;" x="62.191154" xlink:href="#m5ab8b7a9e5" y="229.212908"/>
     <use style="stroke:#000000;" x="62.192404" xlink:href="#m5ab8b7a9e5" y="229.101491"/>
     <use style="stroke:#000000;" x="62.194503" xlink:href="#m5ab8b7a9e5" y="228.912953"/>
     <use style="stroke:#000000;" x="62.196702" xlink:href="#m5ab8b7a9e5" y="228.725568"/>
     <use style="stroke:#000000;" x="62.198801" xlink:href="#m5ab8b7a9e5" y="228.539329"/>
     <use style="stroke:#000000;" x="62.200901" xlink:href="#m5ab8b7a9e5" y="228.354229"/>
     <use style="stroke:#000000;" x="62.2031" xlink:href="#m5ab8b7a9e5" y="228.170261"/>
     <use style="stroke:#000000;" x="62.205199" xlink:href="#m5ab8b7a9e5" y="227.987418"/>
     <use style="stroke:#000000;" x="62.207298" xlink:href="#m5ab8b7a9e5" y="227.805694"/>
     <use style="stroke:#000000;" x="62.210697" xlink:href="#m5ab8b7a9e5" y="227.51586"/>
     <use style="stroke:#000000;" x="62.214196" xlink:href="#m5ab8b7a9e5" y="227.228871"/>
     <use style="stroke:#000000;" x="62.220693" xlink:href="#m5ab8b7a9e5" y="226.685671"/>
     <use style="stroke:#000000;" x="62.227291" xlink:href="#m5ab8b7a9e5" y="226.152671"/>
     <use style="stroke:#000000;" x="62.233889" xlink:href="#m5ab8b7a9e5" y="225.629685"/>
     <use style="stroke:#000000;" x="62.240486" xlink:href="#m5ab8b7a9e5" y="225.116528"/>
     <use style="stroke:#000000;" x="62.247084" xlink:href="#m5ab8b7a9e5" y="224.613019"/>
     <use style="stroke:#000000;" x="62.25768" xlink:href="#m5ab8b7a9e5" y="223.81822"/>
     <use style="stroke:#000000;" x="62.268276" xlink:href="#m5ab8b7a9e5" y="223.047488"/>
     <use style="stroke:#000000;" x="62.278972" xlink:href="#m5ab8b7a9e5" y="222.300108"/>
     <use style="stroke:#000000;" x="62.289768" xlink:href="#m5ab8b7a9e5" y="221.57539"/>
     <use style="stroke:#000000;" x="62.299765" xlink:href="#m5ab8b7a9e5" y="220.872666"/>
     <use style="stroke:#000000;" x="62.310761" xlink:href="#m5ab8b7a9e5" y="220.191285"/>
     <use style="stroke:#000000;" x="62.321757" xlink:href="#m5ab8b7a9e5" y="219.530616"/>
     <use style="stroke:#000000;" x="62.331753" xlink:href="#m5ab8b7a9e5" y="218.89005"/>
     <use style="stroke:#000000;" x="62.342749" xlink:href="#m5ab8b7a9e5" y="218.268993"/>
     <use style="stroke:#000000;" x="62.353745" xlink:href="#m5ab8b7a9e5" y="217.666869"/>
     <use style="stroke:#000000;" x="62.363741" xlink:href="#m5ab8b7a9e5" y="217.083121"/>
     <use style="stroke:#000000;" x="62.374737" xlink:href="#m5ab8b7a9e5" y="216.517208"/>
     <use style="stroke:#000000;" x="62.385733" xlink:href="#m5ab8b7a9e5" y="215.968603"/>
     <use style="stroke:#000000;" x="62.39573" xlink:href="#m5ab8b7a9e5" y="215.436799"/>
     <use style="stroke:#000000;" x="62.406726" xlink:href="#m5ab8b7a9e5" y="214.921299"/>
     <use style="stroke:#000000;" x="62.417722" xlink:href="#m5ab8b7a9e5" y="214.421626"/>
     <use style="stroke:#000000;" x="62.427718" xlink:href="#m5ab8b7a9e5" y="213.937312"/>
     <use style="stroke:#000000;" x="62.438714" xlink:href="#m5ab8b7a9e5" y="213.467907"/>
     <use style="stroke:#000000;" x="62.44871" xlink:href="#m5ab8b7a9e5" y="213.012971"/>
     <use style="stroke:#000000;" x="62.459706" xlink:href="#m5ab8b7a9e5" y="212.572081"/>
     <use style="stroke:#000000;" x="62.470702" xlink:href="#m5ab8b7a9e5" y="212.144822"/>
     <use style="stroke:#000000;" x="62.480699" xlink:href="#m5ab8b7a9e5" y="211.730794"/>
     <use style="stroke:#000000;" x="62.491695" xlink:href="#m5ab8b7a9e5" y="211.32961"/>
     <use style="stroke:#000000;" x="62.502691" xlink:href="#m5ab8b7a9e5" y="210.94089"/>
     <use style="stroke:#000000;" x="62.512687" xlink:href="#m5ab8b7a9e5" y="210.564269"/>
     <use style="stroke:#000000;" x="62.523683" xlink:href="#m5ab8b7a9e5" y="210.199393"/>
     <use style="stroke:#000000;" x="62.534679" xlink:href="#m5ab8b7a9e5" y="209.845915"/>
     <use style="stroke:#000000;" x="62.544675" xlink:href="#m5ab8b7a9e5" y="209.5035"/>
     <use style="stroke:#000000;" x="62.56067" xlink:href="#m5ab8b7a9e5" y="209.0096"/>
     <use style="stroke:#000000;" x="62.576664" xlink:href="#m5ab8b7a9e5" y="208.538836"/>
     <use style="stroke:#000000;" x="62.592658" xlink:href="#m5ab8b7a9e5" y="208.090199"/>
     <use style="stroke:#000000;" x="62.608652" xlink:href="#m5ab8b7a9e5" y="207.662718"/>
     <use style="stroke:#000000;" x="62.624646" xlink:href="#m5ab8b7a9e5" y="207.255467"/>
     <use style="stroke:#000000;" x="62.640641" xlink:href="#m5ab8b7a9e5" y="206.867562"/>
     <use style="stroke:#000000;" x="62.656635" xlink:href="#m5ab8b7a9e5" y="206.498155"/>
     <use style="stroke:#000000;" x="62.672629" xlink:href="#m5ab8b7a9e5" y="206.146435"/>
     <use style="stroke:#000000;" x="62.688623" xlink:href="#m5ab8b7a9e5" y="205.811628"/>
     <use style="stroke:#000000;" x="62.704617" xlink:href="#m5ab8b7a9e5" y="205.492992"/>
     <use style="stroke:#000000;" x="62.720611" xlink:href="#m5ab8b7a9e5" y="205.189819"/>
     <use style="stroke:#000000;" x="62.736606" xlink:href="#m5ab8b7a9e5" y="204.90143"/>
     <use style="stroke:#000000;" x="62.7526" xlink:href="#m5ab8b7a9e5" y="204.627177"/>
     <use style="stroke:#000000;" x="62.768594" xlink:href="#m5ab8b7a9e5" y="204.366439"/>
     <use style="stroke:#000000;" x="62.784588" xlink:href="#m5ab8b7a9e5" y="204.118622"/>
     <use style="stroke:#000000;" x="62.800582" xlink:href="#m5ab8b7a9e5" y="203.883158"/>
     <use style="stroke:#000000;" x="62.816577" xlink:href="#m5ab8b7a9e5" y="203.659505"/>
     <use style="stroke:#000000;" x="62.832571" xlink:href="#m5ab8b7a9e5" y="203.447142"/>
     <use style="stroke:#000000;" x="62.848565" xlink:href="#m5ab8b7a9e5" y="203.245574"/>
     <use style="stroke:#000000;" x="62.864559" xlink:href="#m5ab8b7a9e5" y="203.054323"/>
     <use style="stroke:#000000;" x="62.880553" xlink:href="#m5ab8b7a9e5" y="202.872935"/>
     <use style="stroke:#000000;" x="62.896547" xlink:href="#m5ab8b7a9e5" y="202.700976"/>
     <use style="stroke:#000000;" x="62.912542" xlink:href="#m5ab8b7a9e5" y="202.538029"/>
     <use style="stroke:#000000;" x="62.928536" xlink:href="#m5ab8b7a9e5" y="202.383695"/>
     <use style="stroke:#000000;" x="62.94453" xlink:href="#m5ab8b7a9e5" y="202.237593"/>
     <use style="stroke:#000000;" x="62.960524" xlink:href="#m5ab8b7a9e5" y="202.09936"/>
     <use style="stroke:#000000;" x="62.976518" xlink:href="#m5ab8b7a9e5" y="201.968647"/>
     <use style="stroke:#000000;" x="62.992512" xlink:href="#m5ab8b7a9e5" y="201.845119"/>
     <use style="stroke:#000000;" x="63.008507" xlink:href="#m5ab8b7a9e5" y="201.728459"/>
     <use style="stroke:#000000;" x="63.024501" xlink:href="#m5ab8b7a9e5" y="201.61836"/>
     <use style="stroke:#000000;" x="63.040495" xlink:href="#m5ab8b7a9e5" y="201.514531"/>
     <use style="stroke:#000000;" x="63.05549" xlink:href="#m5ab8b7a9e5" y="201.416693"/>
     <use style="stroke:#000000;" x="63.071484" xlink:href="#m5ab8b7a9e5" y="201.324578"/>
     <use style="stroke:#000000;" x="63.087478" xlink:href="#m5ab8b7a9e5" y="201.237931"/>
     <use style="stroke:#000000;" x="63.103472" xlink:href="#m5ab8b7a9e5" y="201.156507"/>
     <use style="stroke:#000000;" x="63.119466" xlink:href="#m5ab8b7a9e5" y="201.080073"/>
     <use style="stroke:#000000;" x="63.13546" xlink:href="#m5ab8b7a9e5" y="201.008405"/>
     <use style="stroke:#000000;" x="63.151455" xlink:href="#m5ab8b7a9e5" y="200.941288"/>
     <use style="stroke:#000000;" x="63.175446" xlink:href="#m5ab8b7a9e5" y="200.848575"/>
     <use style="stroke:#000000;" x="63.203436" xlink:href="#m5ab8b7a9e5" y="200.765017"/>
     <use style="stroke:#000000;" x="63.223428" xlink:href="#m5ab8b7a9e5" y="200.69"/>
     <use style="stroke:#000000;" x="63.243421" xlink:href="#m5ab8b7a9e5" y="200.622949"/>
     <use style="stroke:#000000;" x="63.27341" xlink:href="#m5ab8b7a9e5" y="200.563326"/>
     <use style="stroke:#000000;" x="63.293403" xlink:href="#m5ab8b7a9e5" y="200.51063"/>
     <use style="stroke:#000000;" x="63.323392" xlink:href="#m5ab8b7a9e5" y="200.464389"/>
     <use style="stroke:#000000;" x="63.343385" xlink:href="#m5ab8b7a9e5" y="200.424165"/>
     <use style="stroke:#000000;" x="63.363377" xlink:href="#m5ab8b7a9e5" y="200.389547"/>
     <use style="stroke:#000000;" x="63.393367" xlink:href="#m5ab8b7a9e5" y="200.360148"/>
     <use style="stroke:#000000;" x="63.413359" xlink:href="#m5ab8b7a9e5" y="200.335611"/>
     <use style="stroke:#000000;" x="63.443348" xlink:href="#m5ab8b7a9e5" y="200.315598"/>
     <use style="stroke:#000000;" x="63.463341" xlink:href="#m5ab8b7a9e5" y="200.299795"/>
     <use style="stroke:#000000;" x="63.483334" xlink:href="#m5ab8b7a9e5" y="200.287908"/>
     <use style="stroke:#000000;" x="63.513323" xlink:href="#m5ab8b7a9e5" y="200.279662"/>
     <use style="stroke:#000000;" x="63.533316" xlink:href="#m5ab8b7a9e5" y="200.274799"/>
     <use style="stroke:#000000;" x="63.563305" xlink:href="#m5ab8b7a9e5" y="200.27308"/>
     <use style="stroke:#000000;" x="63.583297" xlink:href="#m5ab8b7a9e5" y="200.274278"/>
     <use style="stroke:#000000;" x="63.60329" xlink:href="#m5ab8b7a9e5" y="200.278185"/>
     <use style="stroke:#000000;" x="63.633279" xlink:href="#m5ab8b7a9e5" y="200.284603"/>
     <use style="stroke:#000000;" x="63.653272" xlink:href="#m5ab8b7a9e5" y="200.293349"/>
     <use style="stroke:#000000;" x="63.683261" xlink:href="#m5ab8b7a9e5" y="200.30425"/>
     <use style="stroke:#000000;" x="63.703254" xlink:href="#m5ab8b7a9e5" y="200.317147"/>
     <use style="stroke:#000000;" x="63.723246" xlink:href="#m5ab8b7a9e5" y="200.33189"/>
     <use style="stroke:#000000;" x="63.753236" xlink:href="#m5ab8b7a9e5" y="200.348337"/>
     <use style="stroke:#000000;" x="63.773228" xlink:href="#m5ab8b7a9e5" y="200.366358"/>
     <use style="stroke:#000000;" x="63.803217" xlink:href="#m5ab8b7a9e5" y="200.385831"/>
     <use style="stroke:#000000;" x="63.82321" xlink:href="#m5ab8b7a9e5" y="200.40664"/>
     <use style="stroke:#000000;" x="63.843203" xlink:href="#m5ab8b7a9e5" y="200.428679"/>
     <use style="stroke:#000000;" x="63.873192" xlink:href="#m5ab8b7a9e5" y="200.451849"/>
     <use style="stroke:#000000;" x="63.893185" xlink:href="#m5ab8b7a9e5" y="200.476054"/>
     <use style="stroke:#000000;" x="63.923174" xlink:href="#m5ab8b7a9e5" y="200.501209"/>
     <use style="stroke:#000000;" x="63.943166" xlink:href="#m5ab8b7a9e5" y="200.527231"/>
     <use style="stroke:#000000;" x="63.963159" xlink:href="#m5ab8b7a9e5" y="200.554045"/>
     <use style="stroke:#000000;" x="63.993148" xlink:href="#m5ab8b7a9e5" y="200.581579"/>
     <use style="stroke:#000000;" x="64.013141" xlink:href="#m5ab8b7a9e5" y="200.609767"/>
     <use style="stroke:#000000;" x="64.053126" xlink:href="#m5ab8b7a9e5" y="200.653226"/>
     <use style="stroke:#000000;" x="64.083116" xlink:href="#m5ab8b7a9e5" y="200.697829"/>
     <use style="stroke:#000000;" x="64.123101" xlink:href="#m5ab8b7a9e5" y="200.743402"/>
     <use style="stroke:#000000;" x="64.163086" xlink:href="#m5ab8b7a9e5" y="200.789788"/>
     <use style="stroke:#000000;" x="64.193075" xlink:href="#m5ab8b7a9e5" y="200.836846"/>
     <use style="stroke:#000000;" x="64.233061" xlink:href="#m5ab8b7a9e5" y="200.884449"/>
     <use style="stroke:#000000;" x="64.26305" xlink:href="#m5ab8b7a9e5" y="200.932481"/>
     <use style="stroke:#000000;" x="64.303035" xlink:href="#m5ab8b7a9e5" y="200.980839"/>
     <use style="stroke:#000000;" x="64.343021" xlink:href="#m5ab8b7a9e5" y="201.029431"/>
     <use style="stroke:#000000;" x="64.37301" xlink:href="#m5ab8b7a9e5" y="201.078173"/>
     <use style="stroke:#000000;" x="64.412995" xlink:href="#m5ab8b7a9e5" y="201.126991"/>
     <use style="stroke:#000000;" x="64.452981" xlink:href="#m5ab8b7a9e5" y="201.175817"/>
     <use style="stroke:#000000;" x="64.48297" xlink:href="#m5ab8b7a9e5" y="201.224591"/>
     <use style="stroke:#000000;" x="64.522955" xlink:href="#m5ab8b7a9e5" y="201.27326"/>
     <use style="stroke:#000000;" x="64.552945" xlink:href="#m5ab8b7a9e5" y="201.321776"/>
     <use style="stroke:#000000;" x="64.59293" xlink:href="#m5ab8b7a9e5" y="201.370095"/>
     <use style="stroke:#000000;" x="64.632915" xlink:href="#m5ab8b7a9e5" y="201.41818"/>
     <use style="stroke:#000000;" x="64.662904" xlink:href="#m5ab8b7a9e5" y="201.465997"/>
     <use style="stroke:#000000;" x="64.70289" xlink:href="#m5ab8b7a9e5" y="201.513515"/>
     <use style="stroke:#000000;" x="64.732879" xlink:href="#m5ab8b7a9e5" y="201.560708"/>
     <use style="stroke:#000000;" x="64.772864" xlink:href="#m5ab8b7a9e5" y="201.607552"/>
     <use style="stroke:#000000;" x="64.81285" xlink:href="#m5ab8b7a9e5" y="201.654027"/>
     <use style="stroke:#000000;" x="64.842839" xlink:href="#m5ab8b7a9e5" y="201.700115"/>
     <use style="stroke:#000000;" x="64.882824" xlink:href="#m5ab8b7a9e5" y="201.745801"/>
     <use style="stroke:#000000;" x="64.912814" xlink:href="#m5ab8b7a9e5" y="201.791069"/>
     <use style="stroke:#000000;" x="64.952799" xlink:href="#m5ab8b7a9e5" y="201.835909"/>
     <use style="stroke:#000000;" x="65.002781" xlink:href="#m5ab8b7a9e5" y="201.902882"/>
     <use style="stroke:#000000;" x="65.062759" xlink:href="#m5ab8b7a9e5" y="201.968826"/>
     <use style="stroke:#000000;" x="65.112741" xlink:href="#m5ab8b7a9e5" y="202.033717"/>
     <use style="stroke:#000000;" x="65.172719" xlink:href="#m5ab8b7a9e5" y="202.097543"/>
     <use style="stroke:#000000;" x="65.222701" xlink:href="#m5ab8b7a9e5" y="202.160292"/>
     <use style="stroke:#000000;" x="65.282679" xlink:href="#m5ab8b7a9e5" y="202.221959"/>
     <use style="stroke:#000000;" x="65.332661" xlink:href="#m5ab8b7a9e5" y="202.282543"/>
     <use style="stroke:#000000;" x="65.392639" xlink:href="#m5ab8b7a9e5" y="202.342044"/>
     <use style="stroke:#000000;" x="65.442621" xlink:href="#m5ab8b7a9e5" y="202.400466"/>
     <use style="stroke:#000000;" x="65.502599" xlink:href="#m5ab8b7a9e5" y="202.457817"/>
     <use style="stroke:#000000;" x="65.552581" xlink:href="#m5ab8b7a9e5" y="202.514103"/>
     <use style="stroke:#000000;" x="65.602562" xlink:href="#m5ab8b7a9e5" y="202.569336"/>
     <use style="stroke:#000000;" x="65.662541" xlink:href="#m5ab8b7a9e5" y="202.623526"/>
     <use style="stroke:#000000;" x="65.712522" xlink:href="#m5ab8b7a9e5" y="202.676686"/>
     <use style="stroke:#000000;" x="65.772501" xlink:href="#m5ab8b7a9e5" y="202.728829"/>
     <use style="stroke:#000000;" x="65.822482" xlink:href="#m5ab8b7a9e5" y="202.77997"/>
     <use style="stroke:#000000;" x="65.882461" xlink:href="#m5ab8b7a9e5" y="202.830122"/>
     <use style="stroke:#000000;" x="65.932442" xlink:href="#m5ab8b7a9e5" y="202.879303"/>
     <use style="stroke:#000000;" x="65.992421" xlink:href="#m5ab8b7a9e5" y="202.927526"/>
     <use style="stroke:#000000;" x="66.072391" xlink:href="#m5ab8b7a9e5" y="202.998915"/>
     <use style="stroke:#000000;" x="66.152362" xlink:href="#m5ab8b7a9e5" y="203.068193"/>
     <use style="stroke:#000000;" x="66.232333" xlink:href="#m5ab8b7a9e5" y="203.135419"/>
     <use style="stroke:#000000;" x="66.3223" xlink:href="#m5ab8b7a9e5" y="203.20065"/>
     <use style="stroke:#000000;" x="66.402271" xlink:href="#m5ab8b7a9e5" y="203.263944"/>
     <use style="stroke:#000000;" x="66.482242" xlink:href="#m5ab8b7a9e5" y="203.325357"/>
     <use style="stroke:#000000;" x="66.57221" xlink:href="#m5ab8b7a9e5" y="203.384946"/>
     <use style="stroke:#000000;" x="66.65218" xlink:href="#m5ab8b7a9e5" y="203.442766"/>
     <use style="stroke:#000000;" x="66.732151" xlink:href="#m5ab8b7a9e5" y="203.498871"/>
     <use style="stroke:#000000;" x="66.812122" xlink:href="#m5ab8b7a9e5" y="203.553316"/>
     <use style="stroke:#000000;" x="66.902089" xlink:href="#m5ab8b7a9e5" y="203.606152"/>
     <use style="stroke:#000000;" x="66.98206" xlink:href="#m5ab8b7a9e5" y="203.657431"/>
     <use style="stroke:#000000;" x="67.062031" xlink:href="#m5ab8b7a9e5" y="203.707202"/>
     <use style="stroke:#000000;" x="67.151999" xlink:href="#m5ab8b7a9e5" y="203.755515"/>
     <use style="stroke:#000000;" x="67.231969" xlink:href="#m5ab8b7a9e5" y="203.802417"/>
     <use style="stroke:#000000;" x="67.351926" xlink:href="#m5ab8b7a9e5" y="203.870418"/>
     <use style="stroke:#000000;" x="67.481878" xlink:href="#m5ab8b7a9e5" y="203.935482"/>
     <use style="stroke:#000000;" x="67.601835" xlink:href="#m5ab8b7a9e5" y="203.997753"/>
     <use style="stroke:#000000;" x="67.731787" xlink:href="#m5ab8b7a9e5" y="204.05737"/>
     <use style="stroke:#000000;" x="67.851744" xlink:href="#m5ab8b7a9e5" y="204.114467"/>
     <use style="stroke:#000000;" x="67.9717" xlink:href="#m5ab8b7a9e5" y="204.169169"/>
     <use style="stroke:#000000;" x="68.101653" xlink:href="#m5ab8b7a9e5" y="204.221599"/>
     <use style="stroke:#000000;" x="68.221609" xlink:href="#m5ab8b7a9e5" y="204.271871"/>
     <use style="stroke:#000000;" x="68.351562" xlink:href="#m5ab8b7a9e5" y="204.320095"/>
     <use style="stroke:#000000;" x="68.471518" xlink:href="#m5ab8b7a9e5" y="204.366376"/>
     <use style="stroke:#000000;" x="68.601471" xlink:href="#m5ab8b7a9e5" y="204.410813"/>
     <use style="stroke:#000000;" x="68.721427" xlink:href="#m5ab8b7a9e5" y="204.4535"/>
     <use style="stroke:#000000;" x="68.921355" xlink:href="#m5ab8b7a9e5" y="204.51676"/>
     <use style="stroke:#000000;" x="69.111285" xlink:href="#m5ab8b7a9e5" y="204.576306"/>
     <use style="stroke:#000000;" x="69.301216" xlink:href="#m5ab8b7a9e5" y="204.632434"/>
     <use style="stroke:#000000;" x="69.501143" xlink:href="#m5ab8b7a9e5" y="204.685417"/>
     <use style="stroke:#000000;" x="69.691074" xlink:href="#m5ab8b7a9e5" y="204.735504"/>
     <use style="stroke:#000000;" x="69.891002" xlink:href="#m5ab8b7a9e5" y="204.782928"/>
     <use style="stroke:#000000;" x="70.080932" xlink:href="#m5ab8b7a9e5" y="204.827901"/>
     <use style="stroke:#000000;" x="70.270863" xlink:href="#m5ab8b7a9e5" y="204.87062"/>
     <use style="stroke:#000000;" x="70.470791" xlink:href="#m5ab8b7a9e5" y="204.911266"/>
     <use style="stroke:#000000;" x="70.660721" xlink:href="#m5ab8b7a9e5" y="204.950005"/>
     <use style="stroke:#000000;" x="70.860649" xlink:href="#m5ab8b7a9e5" y="204.986991"/>
     <use style="stroke:#000000;" x="71.05058" xlink:href="#m5ab8b7a9e5" y="205.022363"/>
     <use style="stroke:#000000;" x="71.250507" xlink:href="#m5ab8b7a9e5" y="205.056253"/>
     <use style="stroke:#000000;" x="71.440438" xlink:href="#m5ab8b7a9e5" y="205.088779"/>
     <use style="stroke:#000000;" x="71.630368" xlink:href="#m5ab8b7a9e5" y="205.120051"/>
     <use style="stroke:#000000;" x="71.830296" xlink:href="#m5ab8b7a9e5" y="205.150171"/>
     <use style="stroke:#000000;" x="72.020227" xlink:href="#m5ab8b7a9e5" y="205.179232"/>
     <use style="stroke:#000000;" x="72.215555" xlink:href="#m5ab8b7a9e5" y="205.207318"/>
     <use style="stroke:#000000;" x="72.409585" xlink:href="#m5ab8b7a9e5" y="205.234509"/>
     <use style="stroke:#000000;" x="72.603614" xlink:href="#m5ab8b7a9e5" y="205.260877"/>
     <use style="stroke:#000000;" x="72.797644" xlink:href="#m5ab8b7a9e5" y="205.286489"/>
     <use style="stroke:#000000;" x="72.991573" xlink:href="#m5ab8b7a9e5" y="205.311406"/>
     <use style="stroke:#000000;" x="73.185602" xlink:href="#m5ab8b7a9e5" y="205.335685"/>
     <use style="stroke:#000000;" x="73.379632" xlink:href="#m5ab8b7a9e5" y="205.359378"/>
     <use style="stroke:#000000;" x="73.573661" xlink:href="#m5ab8b7a9e5" y="205.382532"/>
     <use style="stroke:#000000;" x="73.767691" xlink:href="#m5ab8b7a9e5" y="205.405192"/>
     <use style="stroke:#000000;" x="73.96162" xlink:href="#m5ab8b7a9e5" y="205.427399"/>
     <use style="stroke:#000000;" x="74.155649" xlink:href="#m5ab8b7a9e5" y="205.449189"/>
     <use style="stroke:#000000;" x="74.349679" xlink:href="#m5ab8b7a9e5" y="205.470597"/>
     <use style="stroke:#000000;" x="74.543708" xlink:href="#m5ab8b7a9e5" y="205.491655"/>
     <use style="stroke:#000000;" x="74.737737" xlink:href="#m5ab8b7a9e5" y="205.512392"/>
     <use style="stroke:#000000;" x="74.931667" xlink:href="#m5ab8b7a9e5" y="205.532835"/>
     <use style="stroke:#000000;" x="75.125696" xlink:href="#m5ab8b7a9e5" y="205.553009"/>
     <use style="stroke:#000000;" x="75.319726" xlink:href="#m5ab8b7a9e5" y="205.572937"/>
     <use style="stroke:#000000;" x="75.513755" xlink:href="#m5ab8b7a9e5" y="205.592639"/>
     <use style="stroke:#000000;" x="75.707684" xlink:href="#m5ab8b7a9e5" y="205.612136"/>
     <use style="stroke:#000000;" x="75.901714" xlink:href="#m5ab8b7a9e5" y="205.631445"/>
     <use style="stroke:#000000;" x="76.095743" xlink:href="#m5ab8b7a9e5" y="205.650583"/>
     <use style="stroke:#000000;" x="76.289773" xlink:href="#m5ab8b7a9e5" y="205.669565"/>
     <use style="stroke:#000000;" x="76.483802" xlink:href="#m5ab8b7a9e5" y="205.688405"/>
     <use style="stroke:#000000;" x="76.677731" xlink:href="#m5ab8b7a9e5" y="205.707116"/>
     <use style="stroke:#000000;" x="76.871761" xlink:href="#m5ab8b7a9e5" y="205.725711"/>
     <use style="stroke:#000000;" x="77.06579" xlink:href="#m5ab8b7a9e5" y="205.744199"/>
     <use style="stroke:#000000;" x="77.259819" xlink:href="#m5ab8b7a9e5" y="205.762592"/>
     <use style="stroke:#000000;" x="77.453849" xlink:href="#m5ab8b7a9e5" y="205.780898"/>
     <use style="stroke:#000000;" x="77.647778" xlink:href="#m5ab8b7a9e5" y="205.799127"/>
     <use style="stroke:#000000;" x="77.841808" xlink:href="#m5ab8b7a9e5" y="205.817287"/>
     <use style="stroke:#000000;" x="78.035837" xlink:href="#m5ab8b7a9e5" y="205.835385"/>
     <use style="stroke:#000000;" x="78.229866" xlink:href="#m5ab8b7a9e5" y="205.853427"/>
     <use style="stroke:#000000;" x="78.423896" xlink:href="#m5ab8b7a9e5" y="205.87142"/>
     <use style="stroke:#000000;" x="78.617825" xlink:href="#m5ab8b7a9e5" y="205.88937"/>
     <use style="stroke:#000000;" x="78.911118" xlink:href="#m5ab8b7a9e5" y="205.916429"/>
     <use style="stroke:#000000;" x="79.204312" xlink:href="#m5ab8b7a9e5" y="205.943418"/>
     <use style="stroke:#000000;" x="79.497505" xlink:href="#m5ab8b7a9e5" y="205.970353"/>
     <use style="stroke:#000000;" x="79.790698" xlink:href="#m5ab8b7a9e5" y="205.997246"/>
     <use style="stroke:#000000;" x="80.083892" xlink:href="#m5ab8b7a9e5" y="206.024109"/>
     <use style="stroke:#000000;" x="80.377185" xlink:href="#m5ab8b7a9e5" y="206.050953"/>
     <use style="stroke:#000000;" x="80.670378" xlink:href="#m5ab8b7a9e5" y="206.077786"/>
     <use style="stroke:#000000;" x="80.963571" xlink:href="#m5ab8b7a9e5" y="206.104617"/>
     <use style="stroke:#000000;" x="81.256765" xlink:href="#m5ab8b7a9e5" y="206.131453"/>
     <use style="stroke:#000000;" x="81.549958" xlink:href="#m5ab8b7a9e5" y="206.1583"/>
     <use style="stroke:#000000;" x="81.843151" xlink:href="#m5ab8b7a9e5" y="206.185164"/>
     <use style="stroke:#000000;" x="82.136445" xlink:href="#m5ab8b7a9e5" y="206.212049"/>
     <use style="stroke:#000000;" x="82.429638" xlink:href="#m5ab8b7a9e5" y="206.23896"/>
     <use style="stroke:#000000;" x="82.722831" xlink:href="#m5ab8b7a9e5" y="206.2659"/>
     <use style="stroke:#000000;" x="83.016024" xlink:href="#m5ab8b7a9e5" y="206.292873"/>
     <use style="stroke:#000000;" x="83.309218" xlink:href="#m5ab8b7a9e5" y="206.319881"/>
     <use style="stroke:#000000;" x="83.602511" xlink:href="#m5ab8b7a9e5" y="206.346928"/>
     <use style="stroke:#000000;" x="83.895704" xlink:href="#m5ab8b7a9e5" y="206.374014"/>
     <use style="stroke:#000000;" x="84.188897" xlink:href="#m5ab8b7a9e5" y="206.401143"/>
     <use style="stroke:#000000;" x="84.482091" xlink:href="#m5ab8b7a9e5" y="206.428314"/>
     <use style="stroke:#000000;" x="84.775284" xlink:href="#m5ab8b7a9e5" y="206.455531"/>
     <use style="stroke:#000000;" x="85.220822" xlink:href="#m5ab8b7a9e5" y="206.496975"/>
     <use style="stroke:#000000;" x="85.66636" xlink:href="#m5ab8b7a9e5" y="206.538527"/>
     <use style="stroke:#000000;" x="86.111898" xlink:href="#m5ab8b7a9e5" y="206.580191"/>
     <use style="stroke:#000000;" x="86.557535" xlink:href="#m5ab8b7a9e5" y="206.621967"/>
     <use style="stroke:#000000;" x="87.003073" xlink:href="#m5ab8b7a9e5" y="206.663855"/>
     <use style="stroke:#000000;" x="87.448611" xlink:href="#m5ab8b7a9e5" y="206.705857"/>
     <use style="stroke:#000000;" x="87.894149" xlink:href="#m5ab8b7a9e5" y="206.747972"/>
     <use style="stroke:#000000;" x="88.339687" xlink:href="#m5ab8b7a9e5" y="206.790199"/>
     <use style="stroke:#000000;" x="88.785225" xlink:href="#m5ab8b7a9e5" y="206.832537"/>
     <use style="stroke:#000000;" x="89.230762" xlink:href="#m5ab8b7a9e5" y="206.874986"/>
     <use style="stroke:#000000;" x="89.6763" xlink:href="#m5ab8b7a9e5" y="206.917544"/>
     <use style="stroke:#000000;" x="90.121838" xlink:href="#m5ab8b7a9e5" y="206.960209"/>
     <use style="stroke:#000000;" x="90.567376" xlink:href="#m5ab8b7a9e5" y="207.002979"/>
     <use style="stroke:#000000;" x="91.012914" xlink:href="#m5ab8b7a9e5" y="207.045853"/>
     <use style="stroke:#000000;" x="91.458452" xlink:href="#m5ab8b7a9e5" y="207.088829"/>
     <use style="stroke:#000000;" x="91.903989" xlink:href="#m5ab8b7a9e5" y="207.131905"/>
     <use style="stroke:#000000;" x="92.587641" xlink:href="#m5ab8b7a9e5" y="207.198188"/>
     <use style="stroke:#000000;" x="93.271292" xlink:href="#m5ab8b7a9e5" y="207.264692"/>
     <use style="stroke:#000000;" x="93.954943" xlink:href="#m5ab8b7a9e5" y="207.33141"/>
     <use style="stroke:#000000;" x="94.638594" xlink:href="#m5ab8b7a9e5" y="207.398331"/>
     <use style="stroke:#000000;" x="95.322145" xlink:href="#m5ab8b7a9e5" y="207.465449"/>
     <use style="stroke:#000000;" x="96.005796" xlink:href="#m5ab8b7a9e5" y="207.532753"/>
     <use style="stroke:#000000;" x="96.689448" xlink:href="#m5ab8b7a9e5" y="207.600236"/>
     <use style="stroke:#000000;" x="97.373099" xlink:href="#m5ab8b7a9e5" y="207.667887"/>
     <use style="stroke:#000000;" x="98.05675" xlink:href="#m5ab8b7a9e5" y="207.7357"/>
     <use style="stroke:#000000;" x="98.740401" xlink:href="#m5ab8b7a9e5" y="207.803665"/>
     <use style="stroke:#000000;" x="99.424052" xlink:href="#m5ab8b7a9e5" y="207.871772"/>
     <use style="stroke:#000000;" x="100.107703" xlink:href="#m5ab8b7a9e5" y="207.940014"/>
     <use style="stroke:#000000;" x="100.791255" xlink:href="#m5ab8b7a9e5" y="208.008382"/>
     <use style="stroke:#000000;" x="101.474906" xlink:href="#m5ab8b7a9e5" y="208.076869"/>
     <use style="stroke:#000000;" x="102.158557" xlink:href="#m5ab8b7a9e5" y="208.145463"/>
     <use style="stroke:#000000;" x="102.842208" xlink:href="#m5ab8b7a9e5" y="208.214159"/>
     <use style="stroke:#000000;" x="103.525859" xlink:href="#m5ab8b7a9e5" y="208.282948"/>
     <use style="stroke:#000000;" x="104.20951" xlink:href="#m5ab8b7a9e5" y="208.351821"/>
     <use style="stroke:#000000;" x="104.893162" xlink:href="#m5ab8b7a9e5" y="208.42077"/>
     <use style="stroke:#000000;" x="105.576813" xlink:href="#m5ab8b7a9e5" y="208.489788"/>
     <use style="stroke:#000000;" x="106.074332" xlink:href="#m5ab8b7a9e5" y="208.540063"/>
     <use style="stroke:#000000;" x="106.571951" xlink:href="#m5ab8b7a9e5" y="208.590368"/>
     <use style="stroke:#000000;" x="107.069569" xlink:href="#m5ab8b7a9e5" y="208.640698"/>
     <use style="stroke:#000000;" x="107.567188" xlink:href="#m5ab8b7a9e5" y="208.691052"/>
     <use style="stroke:#000000;" x="108.064807" xlink:href="#m5ab8b7a9e5" y="208.741426"/>
     <use style="stroke:#000000;" x="108.562426" xlink:href="#m5ab8b7a9e5" y="208.791818"/>
     <use style="stroke:#000000;" x="109.060045" xlink:href="#m5ab8b7a9e5" y="208.842223"/>
     <use style="stroke:#000000;" x="109.557664" xlink:href="#m5ab8b7a9e5" y="208.892641"/>
     <use style="stroke:#000000;" x="110.055283" xlink:href="#m5ab8b7a9e5" y="208.943067"/>
     <use style="stroke:#000000;" x="110.552802" xlink:href="#m5ab8b7a9e5" y="208.9935"/>
     <use style="stroke:#000000;" x="111.05042" xlink:href="#m5ab8b7a9e5" y="209.043935"/>
     <use style="stroke:#000000;" x="111.548039" xlink:href="#m5ab8b7a9e5" y="209.094372"/>
     <use style="stroke:#000000;" x="112.045658" xlink:href="#m5ab8b7a9e5" y="209.144806"/>
     <use style="stroke:#000000;" x="112.543277" xlink:href="#m5ab8b7a9e5" y="209.195235"/>
     <use style="stroke:#000000;" x="113.040896" xlink:href="#m5ab8b7a9e5" y="209.245657"/>
     <use style="stroke:#000000;" x="113.538515" xlink:href="#m5ab8b7a9e5" y="209.296068"/>
     <use style="stroke:#000000;" x="114.036134" xlink:href="#m5ab8b7a9e5" y="209.346467"/>
     <use style="stroke:#000000;" x="114.533753" xlink:href="#m5ab8b7a9e5" y="209.39685"/>
     <use style="stroke:#000000;" x="115.031272" xlink:href="#m5ab8b7a9e5" y="209.447216"/>
     <use style="stroke:#000000;" x="115.80469" xlink:href="#m5ab8b7a9e5" y="209.525448"/>
     <use style="stroke:#000000;" x="116.578009" xlink:href="#m5ab8b7a9e5" y="209.603621"/>
     <use style="stroke:#000000;" x="117.351327" xlink:href="#m5ab8b7a9e5" y="209.681727"/>
     <use style="stroke:#000000;" x="118.124646" xlink:href="#m5ab8b7a9e5" y="209.759755"/>
     <use style="stroke:#000000;" x="118.897964" xlink:href="#m5ab8b7a9e5" y="209.837698"/>
     <use style="stroke:#000000;" x="119.671383" xlink:href="#m5ab8b7a9e5" y="209.915545"/>
     <use style="stroke:#000000;" x="120.444701" xlink:href="#m5ab8b7a9e5" y="209.993289"/>
     <use style="stroke:#000000;" x="121.21802" xlink:href="#m5ab8b7a9e5" y="210.070921"/>
     <use style="stroke:#000000;" x="121.991338" xlink:href="#m5ab8b7a9e5" y="210.148433"/>
     <use style="stroke:#000000;" x="122.764757" xlink:href="#m5ab8b7a9e5" y="210.225815"/>
     <use style="stroke:#000000;" x="123.538075" xlink:href="#m5ab8b7a9e5" y="210.303061"/>
     <use style="stroke:#000000;" x="124.311394" xlink:href="#m5ab8b7a9e5" y="210.380162"/>
     <use style="stroke:#000000;" x="125.084712" xlink:href="#m5ab8b7a9e5" y="210.457111"/>
     <use style="stroke:#000000;" x="125.858031" xlink:href="#m5ab8b7a9e5" y="210.5339"/>
     <use style="stroke:#000000;" x="126.631449" xlink:href="#m5ab8b7a9e5" y="210.61052"/>
     <use style="stroke:#000000;" x="127.404768" xlink:href="#m5ab8b7a9e5" y="210.686965"/>
     <use style="stroke:#000000;" x="127.937874" xlink:href="#m5ab8b7a9e5" y="210.739563"/>
     <use style="stroke:#000000;" x="128.47108" xlink:href="#m5ab8b7a9e5" y="210.792071"/>
     <use style="stroke:#000000;" x="129.004286" xlink:href="#m5ab8b7a9e5" y="210.844488"/>
     <use style="stroke:#000000;" x="129.537392" xlink:href="#m5ab8b7a9e5" y="210.896812"/>
     <use style="stroke:#000000;" x="130.070598" xlink:href="#m5ab8b7a9e5" y="210.949039"/>
     <use style="stroke:#000000;" x="130.603704" xlink:href="#m5ab8b7a9e5" y="211.001168"/>
     <use style="stroke:#000000;" x="131.136909" xlink:href="#m5ab8b7a9e5" y="211.053197"/>
     <use style="stroke:#000000;" x="131.670015" xlink:href="#m5ab8b7a9e5" y="211.105123"/>
     <use style="stroke:#000000;" x="132.203221" xlink:href="#m5ab8b7a9e5" y="211.156944"/>
     <use style="stroke:#000000;" x="132.736427" xlink:href="#m5ab8b7a9e5" y="211.208658"/>
     <use style="stroke:#000000;" x="133.269533" xlink:href="#m5ab8b7a9e5" y="211.260264"/>
     <use style="stroke:#000000;" x="133.802739" xlink:href="#m5ab8b7a9e5" y="211.311758"/>
     <use style="stroke:#000000;" x="134.335845" xlink:href="#m5ab8b7a9e5" y="211.363139"/>
     <use style="stroke:#000000;" x="134.869051" xlink:href="#m5ab8b7a9e5" y="211.414406"/>
     <use style="stroke:#000000;" x="135.402157" xlink:href="#m5ab8b7a9e5" y="211.465555"/>
     <use style="stroke:#000000;" x="135.935363" xlink:href="#m5ab8b7a9e5" y="211.516584"/>
     <use style="stroke:#000000;" x="136.468569" xlink:href="#m5ab8b7a9e5" y="211.567494"/>
     <use style="stroke:#000000;" x="137.001675" xlink:href="#m5ab8b7a9e5" y="211.61828"/>
     <use style="stroke:#000000;" x="137.534881" xlink:href="#m5ab8b7a9e5" y="211.668942"/>
     <use style="stroke:#000000;" x="138.067987" xlink:href="#m5ab8b7a9e5" y="211.719477"/>
     <use style="stroke:#000000;" x="138.601193" xlink:href="#m5ab8b7a9e5" y="211.769884"/>
     <use style="stroke:#000000;" x="139.134399" xlink:href="#m5ab8b7a9e5" y="211.820161"/>
     <use style="stroke:#000000;" x="139.667505" xlink:href="#m5ab8b7a9e5" y="211.870306"/>
     <use style="stroke:#000000;" x="140.20071" xlink:href="#m5ab8b7a9e5" y="211.920318"/>
     <use style="stroke:#000000;" x="140.733816" xlink:href="#m5ab8b7a9e5" y="211.970194"/>
     <use style="stroke:#000000;" x="141.267022" xlink:href="#m5ab8b7a9e5" y="212.019934"/>
     <use style="stroke:#000000;" x="141.800128" xlink:href="#m5ab8b7a9e5" y="212.069535"/>
     <use style="stroke:#000000;" x="142.333334" xlink:href="#m5ab8b7a9e5" y="212.118996"/>
     <use style="stroke:#000000;" x="142.86654" xlink:href="#m5ab8b7a9e5" y="212.168315"/>
     <use style="stroke:#000000;" x="143.399646" xlink:href="#m5ab8b7a9e5" y="212.217491"/>
     <use style="stroke:#000000;" x="143.932852" xlink:href="#m5ab8b7a9e5" y="212.266522"/>
     <use style="stroke:#000000;" x="144.465958" xlink:href="#m5ab8b7a9e5" y="212.315407"/>
     <use style="stroke:#000000;" x="144.999164" xlink:href="#m5ab8b7a9e5" y="212.364144"/>
     <use style="stroke:#000000;" x="145.53237" xlink:href="#m5ab8b7a9e5" y="212.412732"/>
     <use style="stroke:#000000;" x="146.065476" xlink:href="#m5ab8b7a9e5" y="212.46117"/>
     <use style="stroke:#000000;" x="146.919765" xlink:href="#m5ab8b7a9e5" y="212.538459"/>
     <use style="stroke:#000000;" x="147.773954" xlink:href="#m5ab8b7a9e5" y="212.615352"/>
     <use style="stroke:#000000;" x="148.628143" xlink:href="#m5ab8b7a9e5" y="212.691844"/>
     <use style="stroke:#000000;" x="149.482432" xlink:href="#m5ab8b7a9e5" y="212.76793"/>
     <use style="stroke:#000000;" x="150.336621" xlink:href="#m5ab8b7a9e5" y="212.843605"/>
     <use style="stroke:#000000;" x="151.19091" xlink:href="#m5ab8b7a9e5" y="212.918863"/>
     <use style="stroke:#000000;" x="152.045099" xlink:href="#m5ab8b7a9e5" y="212.993699"/>
     <use style="stroke:#000000;" x="152.899388" xlink:href="#m5ab8b7a9e5" y="213.068111"/>
     <use style="stroke:#000000;" x="153.753577" xlink:href="#m5ab8b7a9e5" y="213.142092"/>
     <use style="stroke:#000000;" x="154.607867" xlink:href="#m5ab8b7a9e5" y="213.215639"/>
     <use style="stroke:#000000;" x="155.462056" xlink:href="#m5ab8b7a9e5" y="213.288748"/>
     <use style="stroke:#000000;" x="156.316345" xlink:href="#m5ab8b7a9e5" y="213.361414"/>
     <use style="stroke:#000000;" x="157.170534" xlink:href="#m5ab8b7a9e5" y="213.433635"/>
     <use style="stroke:#000000;" x="158.024823" xlink:href="#m5ab8b7a9e5" y="213.505406"/>
     <use style="stroke:#000000;" x="158.879012" xlink:href="#m5ab8b7a9e5" y="213.576724"/>
     <use style="stroke:#000000;" x="159.733201" xlink:href="#m5ab8b7a9e5" y="213.647586"/>
     <use style="stroke:#000000;" x="160.58749" xlink:href="#m5ab8b7a9e5" y="213.717988"/>
     <use style="stroke:#000000;" x="161.441679" xlink:href="#m5ab8b7a9e5" y="213.787928"/>
     <use style="stroke:#000000;" x="162.295968" xlink:href="#m5ab8b7a9e5" y="213.857403"/>
    </g>
   </g>
   <g id="line2d_18">
    <path clip-path="url(#pa0bb6c39ae)" d="M 62.183807 229.874489 
L 62.512687 207.087845 
L 62.832571 197.956892 
L 63.13546 194.638364 
L 63.393367 193.783833 
L 63.563305 193.745485 
L 63.773228 194.012112 
L 64.233061 195.107453 
L 65.282679 197.595205 
L 65.992421 198.737662 
L 66.732151 199.539198 
L 67.481878 200.064809 
L 68.471518 200.472479 
L 69.691074 200.720554 
L 71.830296 200.874635 
L 82.136445 201.338565 
L 88.339687 201.941332 
L 96.005796 202.930253 
L 107.567188 204.6875 
L 131.136909 208.310937 
L 143.932852 210.022366 
L 157.170534 211.568837 
L 162.295968 212.114845 
L 162.295968 212.114845 
" style="fill:none;stroke:#0000ff;stroke-dasharray:5.55,2.4;stroke-dashoffset:0;stroke-width:1.5;"/>
   </g>
   <g id="line2d_19">
    <path clip-path="url(#pa0bb6c39ae)" d="M 62.183807 229.874489 
L 62.523683 209.514666 
L 62.848565 201.545299 
L 63.13546 198.982406 
L 63.363377 198.374871 
L 63.533316 198.343846 
L 63.773228 198.612602 
L 64.412995 199.848898 
L 65.222701 201.196992 
L 65.992421 202.049475 
L 66.812122 202.641084 
L 67.851744 203.116515 
L 69.111285 203.462114 
L 71.05058 203.739412 
L 74.349679 203.930641 
L 84.775284 204.433892 
L 91.903989 205.044367 
L 100.791255 206.035306 
L 114.533753 207.82079 
L 144.999164 211.82422 
L 160.58749 213.627309 
L 162.295968 213.810501 
L 162.295968 213.810501 
" style="fill:none;stroke:#0000ff;stroke-dasharray:5.55,2.4;stroke-dashoffset:0;stroke-width:1.5;"/>
   </g>
   <g id="line2d_20">
    <path clip-path="url(#pa0bb6c39ae)" d="M 62.183807 229.874489 
L 62.56067 102.877071 
L 62.896547 52.48242 
L 63.175446 36.130051 
L 63.413359 32.267426 
L 63.463341 32.201761 
L 63.483334 32.228856 
L 63.60329 32.943876 
L 63.843203 36.370883 
L 64.59293 52.058034 
L 65.332661 65.165779 
L 66.072391 74.457391 
L 66.812122 81.119713 
L 67.601835 86.476131 
L 68.601471 91.778784 
L 69.891002 97.338606 
L 71.630368 103.745167 
L 73.96162 111.391306 
L 76.677731 119.524995 
L 79.790698 128.178475 
L 83.602511 138.129875 
L 87.003073 146.486364 
L 90.121838 153.6136 
L 92.587641 158.796575 
L 95.322145 164.016316 
L 98.05675 168.656566 
L 100.107703 171.760646 
L 102.158557 174.55852 
L 104.20951 177.071297 
L 106.571951 179.643352 
L 109.060045 182.021206 
L 111.548039 184.103116 
L 114.036134 185.930022 
L 116.578009 187.570928 
L 119.671383 189.308627 
L 122.764757 190.807785 
L 126.631449 192.406311 
L 130.603704 193.79103 
L 134.869051 195.044453 
L 139.667505 196.224708 
L 144.999164 197.310386 
L 151.19091 198.34358 
L 158.879012 199.372292 
L 162.295968 199.760159 
L 162.295968 199.760159 
" style="fill:none;stroke:#ff0000;stroke-dasharray:5.55,2.4;stroke-dashoffset:0;stroke-width:1.5;"/>
   </g>
   <g id="line2d_21">
    <path clip-path="url(#pa0bb6c39ae)" d="M 62.183807 229.874489 
L 62.576664 113.726569 
L 62.912542 68.956011 
L 63.203436 54.698747 
L 63.413359 52.405973 
L 63.483334 52.554236 
L 63.633279 53.862732 
L 63.963159 59.384679 
L 65.112741 79.817234 
L 65.822482 87.978391 
L 66.57221 94.025411 
L 67.351926 98.690355 
L 68.351562 103.345996 
L 69.501143 107.730754 
L 71.250507 113.452468 
L 73.767691 120.810661 
L 77.06579 129.745135 
L 80.670378 138.915679 
L 84.775284 148.759578 
L 88.785225 157.80163 
L 91.903989 164.307877 
L 94.638594 169.486912 
L 96.689448 172.989454 
L 98.740401 176.146711 
L 100.791255 178.961179 
L 102.842208 181.452076 
L 104.893162 183.646621 
L 107.069569 185.685982 
L 109.557664 187.70028 
L 112.045658 189.427214 
L 115.031272 191.185862 
L 118.124646 192.717029 
L 121.21802 194.011957 
L 125.084712 195.37033 
L 129.537392 196.661469 
L 134.335845 197.810646 
L 140.20071 198.968985 
L 146.919765 200.05884 
L 155.462056 201.191866 
L 162.295968 201.951805 
L 162.295968 201.951805 
" style="fill:none;stroke:#ff0000;stroke-dasharray:5.55,2.4;stroke-dashoffset:0;stroke-width:1.5;"/>
   </g>
   <g id="line2d_22"/>
   <g id="line2d_23"/>
   <g id="line2d_24"/>
   <g id="line2d_25"/>
   <g id="line2d_26"/>
   <g id="line2d_27"/>
   <g id="patch_3">
    <path d="M 46.965625 239.758125 
L 46.965625 22.318125 
" style="fill:none;stroke:#000000;stroke-linecap:square;stroke-linejoin:miter;stroke-width:0.8;"/>
   </g>
   <g id="patch_4">
    <path d="M 381.765625 239.758125 
L 381.765625 22.318125 
" style="fill:none;stroke:#000000;stroke-linecap:square;stroke-linejoin:miter;stroke-width:0.8;"/>
   </g>
   <g id="patch_5">
    <path d="M 46.965625 239.758125 
L 381.765625 239.758125 
" style="fill:none;stroke:#000000;stroke-linecap:square;stroke-linejoin:miter;stroke-width:0.8;"/>
   </g>
   <g id="patch_6">
    <path d="M 46.965625 22.318125 
L 381.765625 22.318125 
" style="fill:none;stroke:#000000;stroke-linecap:square;stroke-linejoin:miter;stroke-width:0.8;"/>
   </g>
   <g id="text_17">
    <!-- Experiment_11 -->
    <defs>
     <path d="M 9.8125 72.90625 
L 55.90625 72.90625 
L 55.90625 64.59375 
L 19.671875 64.59375 
L 19.671875 43.015625 
L 54.390625 43.015625 
L 54.390625 34.71875 
L 19.671875 34.71875 
L 19.671875 8.296875 
L 56.78125 8.296875 
L 56.78125 0 
L 9.8125 0 
z
" id="DejaVuSans-69"/>
     <path d="M 54.890625 54.6875 
L 35.109375 28.078125 
L 55.90625 0 
L 45.3125 0 
L 29.390625 21.484375 
L 13.484375 0 
L 2.875 0 
L 24.125 28.609375 
L 4.6875 54.6875 
L 15.28125 54.6875 
L 29.78125 35.203125 
L 44.28125 54.6875 
z
" id="DejaVuSans-120"/>
     <path d="M 41.109375 46.296875 
Q 39.59375 47.171875 37.8125 47.578125 
Q 36.03125 48 33.890625 48 
Q 26.265625 48 22.1875 43.046875 
Q 18.109375 38.09375 18.109375 28.8125 
L 18.109375 0 
L 9.078125 0 
L 9.078125 54.6875 
L 18.109375 54.6875 
L 18.109375 46.1875 
Q 20.953125 51.171875 25.484375 53.578125 
Q 30.03125 56 36.53125 56 
Q 37.453125 56 38.578125 55.875 
Q 39.703125 55.765625 41.0625 55.515625 
z
" id="DejaVuSans-114"/>
     <path d="M 54.890625 33.015625 
L 54.890625 0 
L 45.90625 0 
L 45.90625 32.71875 
Q 45.90625 40.484375 42.875 44.328125 
Q 39.84375 48.1875 33.796875 48.1875 
Q 26.515625 48.1875 22.3125 43.546875 
Q 18.109375 38.921875 18.109375 30.90625 
L 18.109375 0 
L 9.078125 0 
L 9.078125 54.6875 
L 18.109375 54.6875 
L 18.109375 46.1875 
Q 21.34375 51.125 25.703125 53.5625 
Q 30.078125 56 35.796875 56 
Q 45.21875 56 50.046875 50.171875 
Q 54.890625 44.34375 54.890625 33.015625 
z
" id="DejaVuSans-110"/>
     <path d="M 18.3125 70.21875 
L 18.3125 54.6875 
L 36.8125 54.6875 
L 36.8125 47.703125 
L 18.3125 47.703125 
L 18.3125 18.015625 
Q 18.3125 11.328125 20.140625 9.421875 
Q 21.96875 7.515625 27.59375 7.515625 
L 36.8125 7.515625 
L 36.8125 0 
L 27.59375 0 
Q 17.1875 0 13.234375 3.875 
Q 9.28125 7.765625 9.28125 18.015625 
L 9.28125 47.703125 
L 2.6875 47.703125 
L 2.6875 54.6875 
L 9.28125 54.6875 
L 9.28125 70.21875 
z
" id="DejaVuSans-116"/>
     <path d="M 50.984375 -16.609375 
L 50.984375 -23.578125 
L -0.984375 -23.578125 
L -0.984375 -16.609375 
z
" id="DejaVuSans-95"/>
    </defs>
    <g transform="translate(169.062813 16.318125)scale(0.12 -0.12)">
     <use xlink:href="#DejaVuSans-69"/>
     <use x="63.183594" xlink:href="#DejaVuSans-120"/>
     <use x="122.363281" xlink:href="#DejaVuSans-112"/>
     <use x="185.839844" xlink:href="#DejaVuSans-101"/>
     <use x="247.363281" xlink:href="#DejaVuSans-114"/>
     <use x="288.476562" xlink:href="#DejaVuSans-105"/>
     <use x="316.259766" xlink:href="#DejaVuSans-109"/>
     <use x="413.671875" xlink:href="#DejaVuSans-101"/>
     <use x="475.195312" xlink:href="#DejaVuSans-110"/>
     <use x="538.574219" xlink:href="#DejaVuSans-116"/>
     <use x="577.783203" xlink:href="#DejaVuSans-95"/>
     <use x="627.783203" xlink:href="#DejaVuSans-49"/>
     <use x="691.40625" xlink:href="#DejaVuSans-49"/>
    </g>
   </g>
   <g id="legend_1">
    <g id="patch_7">
     <path d="M 118.645313 103.730625 
L 374.765625 103.730625 
Q 376.765625 103.730625 376.765625 101.730625 
L 376.765625 29.318125 
Q 376.765625 27.318125 374.765625 27.318125 
L 118.645313 27.318125 
Q 116.645313 27.318125 116.645313 29.318125 
L 116.645313 101.730625 
Q 116.645313 103.730625 118.645313 103.730625 
z
" style="fill:#ffffff;opacity:0.8;stroke:#cccccc;stroke-linejoin:miter;"/>
    </g>
    <g id="line2d_28">
     <path d="M 120.645313 35.416562 
L 140.645313 35.416562 
" style="fill:none;stroke:#0000ff;stroke-linecap:square;stroke-width:1.5;"/>
    </g>
    <g id="line2d_29"/>
    <g id="text_18">
     <!-- MSI -->
     <defs>
      <path d="M 9.8125 72.90625 
L 24.515625 72.90625 
L 43.109375 23.296875 
L 61.8125 72.90625 
L 76.515625 72.90625 
L 76.515625 0 
L 66.890625 0 
L 66.890625 64.015625 
L 48.09375 14.015625 
L 38.1875 14.015625 
L 19.390625 64.015625 
L 19.390625 0 
L 9.8125 0 
z
" id="DejaVuSans-77"/>
      <path d="M 53.515625 70.515625 
L 53.515625 60.890625 
Q 47.90625 63.578125 42.921875 64.890625 
Q 37.9375 66.21875 33.296875 66.21875 
Q 25.25 66.21875 20.875 63.09375 
Q 16.5 59.96875 16.5 54.203125 
Q 16.5 49.359375 19.40625 46.890625 
Q 22.3125 44.4375 30.421875 42.921875 
L 36.375 41.703125 
Q 47.40625 39.59375 52.65625 34.296875 
Q 57.90625 29 57.90625 20.125 
Q 57.90625 9.515625 50.796875 4.046875 
Q 43.703125 -1.421875 29.984375 -1.421875 
Q 24.8125 -1.421875 18.96875 -0.25 
Q 13.140625 0.921875 6.890625 3.21875 
L 6.890625 13.375 
Q 12.890625 10.015625 18.65625 8.296875 
Q 24.421875 6.59375 29.984375 6.59375 
Q 38.421875 6.59375 43.015625 9.90625 
Q 47.609375 13.234375 47.609375 19.390625 
Q 47.609375 24.75 44.3125 27.78125 
Q 41.015625 30.8125 33.5 32.328125 
L 27.484375 33.5 
Q 16.453125 35.6875 11.515625 40.375 
Q 6.59375 45.0625 6.59375 53.421875 
Q 6.59375 63.09375 13.40625 68.65625 
Q 20.21875 74.21875 32.171875 74.21875 
Q 37.3125 74.21875 42.625 73.28125 
Q 47.953125 72.359375 53.515625 70.515625 
z
" id="DejaVuSans-83"/>
      <path d="M 9.8125 72.90625 
L 19.671875 72.90625 
L 19.671875 0 
L 9.8125 0 
z
" id="DejaVuSans-73"/>
     </defs>
     <g transform="translate(148.645313 38.916562)scale(0.1 -0.1)">
      <use xlink:href="#DejaVuSans-77"/>
      <use x="86.279297" xlink:href="#DejaVuSans-83"/>
      <use x="149.755859" xlink:href="#DejaVuSans-73"/>
     </g>
    </g>
    <g id="line2d_30">
     <path d="M 120.645313 50.09625 
L 140.645313 50.09625 
" style="fill:none;stroke:#ff0000;stroke-linecap:square;stroke-width:1.5;"/>
    </g>
    <g id="line2d_31"/>
    <g id="text_19">
     <!-- $\it{A priori}$ model -->
     <defs>
      <path d="M 36.8125 72.90625 
L 48 72.90625 
L 61.53125 0 
L 51.21875 0 
L 48.1875 18.703125 
L 15.375 18.703125 
L 5.078125 0 
L -5.328125 0 
z
M 40.375 63.1875 
L 19.921875 26.90625 
L 46.6875 26.90625 
z
" id="DejaVuSans-Oblique-65"/>
      <path d="M 49.609375 33.6875 
Q 49.609375 40.875 46.484375 44.671875 
Q 43.359375 48.484375 37.5 48.484375 
Q 33.5 48.484375 29.859375 46.4375 
Q 26.21875 44.390625 23.390625 40.484375 
Q 20.609375 36.625 18.9375 31.15625 
Q 17.28125 25.6875 17.28125 20.3125 
Q 17.28125 13.484375 20.40625 9.796875 
Q 23.53125 6.109375 29.296875 6.109375 
Q 33.546875 6.109375 37.1875 8.109375 
Q 40.828125 10.109375 43.40625 13.921875 
Q 46.1875 17.921875 47.890625 23.34375 
Q 49.609375 28.765625 49.609375 33.6875 
z
M 21.78125 46.390625 
Q 25.390625 51.125 30.296875 53.5625 
Q 35.203125 56 41.21875 56 
Q 49.609375 56 54.25 50.5 
Q 58.890625 45.015625 58.890625 35.109375 
Q 58.890625 27 56 19.65625 
Q 53.125 12.3125 47.703125 6.5 
Q 44.09375 2.640625 39.546875 0.609375 
Q 35.015625 -1.421875 29.984375 -1.421875 
Q 24.171875 -1.421875 20.21875 1 
Q 16.265625 3.421875 14.3125 8.203125 
L 8.6875 -20.796875 
L -0.296875 -20.796875 
L 14.40625 54.6875 
L 23.390625 54.6875 
z
" id="DejaVuSans-Oblique-112"/>
      <path d="M 44.578125 46.390625 
Q 43.21875 47.125 41.453125 47.515625 
Q 39.703125 47.90625 37.703125 47.90625 
Q 30.515625 47.90625 25.140625 42.453125 
Q 19.78125 37.015625 18.015625 27.875 
L 12.5 0 
L 3.515625 0 
L 14.203125 54.6875 
L 23.1875 54.6875 
L 21.484375 46.1875 
Q 25.046875 50.921875 30 53.453125 
Q 34.96875 56 40.578125 56 
Q 42.046875 56 43.453125 55.828125 
Q 44.875 55.671875 46.296875 55.28125 
z
" id="DejaVuSans-Oblique-114"/>
      <path d="M 18.3125 75.984375 
L 27.296875 75.984375 
L 25.09375 64.59375 
L 16.109375 64.59375 
z
M 14.203125 54.6875 
L 23.1875 54.6875 
L 12.5 0 
L 3.515625 0 
z
" id="DejaVuSans-Oblique-105"/>
      <path d="M 25.390625 -1.421875 
Q 15.765625 -1.421875 10.171875 4.515625 
Q 4.59375 10.453125 4.59375 20.703125 
Q 4.59375 26.65625 6.515625 32.828125 
Q 8.453125 39.015625 11.53125 43.21875 
Q 16.359375 49.75 22.3125 52.875 
Q 28.265625 56 35.796875 56 
Q 45.125 56 50.859375 50.1875 
Q 56.59375 44.390625 56.59375 35.015625 
Q 56.59375 28.515625 54.6875 22.0625 
Q 52.78125 15.625 49.703125 11.375 
Q 44.921875 4.828125 38.96875 1.703125 
Q 33.015625 -1.421875 25.390625 -1.421875 
z
M 13.921875 21 
Q 13.921875 13.578125 17.015625 9.890625 
Q 20.125 6.203125 26.421875 6.203125 
Q 35.453125 6.203125 41.375 14.078125 
Q 47.3125 21.96875 47.3125 34.078125 
Q 47.3125 41.15625 44.140625 44.765625 
Q 40.96875 48.390625 34.8125 48.390625 
Q 29.734375 48.390625 25.78125 46.015625 
Q 21.828125 43.65625 18.703125 38.8125 
Q 16.40625 35.203125 15.15625 30.5625 
Q 13.921875 25.921875 13.921875 21 
z
" id="DejaVuSans-Oblique-111"/>
      <path d="M 30.609375 48.390625 
Q 23.390625 48.390625 19.1875 42.75 
Q 14.984375 37.109375 14.984375 27.296875 
Q 14.984375 17.484375 19.15625 11.84375 
Q 23.34375 6.203125 30.609375 6.203125 
Q 37.796875 6.203125 41.984375 11.859375 
Q 46.1875 17.53125 46.1875 27.296875 
Q 46.1875 37.015625 41.984375 42.703125 
Q 37.796875 48.390625 30.609375 48.390625 
z
M 30.609375 56 
Q 42.328125 56 49.015625 48.375 
Q 55.71875 40.765625 55.71875 27.296875 
Q 55.71875 13.875 49.015625 6.21875 
Q 42.328125 -1.421875 30.609375 -1.421875 
Q 18.84375 -1.421875 12.171875 6.21875 
Q 5.515625 13.875 5.515625 27.296875 
Q 5.515625 40.765625 12.171875 48.375 
Q 18.84375 56 30.609375 56 
z
" id="DejaVuSans-111"/>
      <path d="M 45.40625 46.390625 
L 45.40625 75.984375 
L 54.390625 75.984375 
L 54.390625 0 
L 45.40625 0 
L 45.40625 8.203125 
Q 42.578125 3.328125 38.25 0.953125 
Q 33.9375 -1.421875 27.875 -1.421875 
Q 17.96875 -1.421875 11.734375 6.484375 
Q 5.515625 14.40625 5.515625 27.296875 
Q 5.515625 40.1875 11.734375 48.09375 
Q 17.96875 56 27.875 56 
Q 33.9375 56 38.25 53.625 
Q 42.578125 51.265625 45.40625 46.390625 
z
M 14.796875 27.296875 
Q 14.796875 17.390625 18.875 11.75 
Q 22.953125 6.109375 30.078125 6.109375 
Q 37.203125 6.109375 41.296875 11.75 
Q 45.40625 17.390625 45.40625 27.296875 
Q 45.40625 37.203125 41.296875 42.84375 
Q 37.203125 48.484375 30.078125 48.484375 
Q 22.953125 48.484375 18.875 42.84375 
Q 14.796875 37.203125 14.796875 27.296875 
z
" id="DejaVuSans-100"/>
      <path d="M 9.421875 75.984375 
L 18.40625 75.984375 
L 18.40625 0 
L 9.421875 0 
z
" id="DejaVuSans-108"/>
     </defs>
     <g transform="translate(148.645313 53.59625)scale(0.1 -0.1)">
      <use transform="translate(0 0.015625)" xlink:href="#DejaVuSans-Oblique-65"/>
      <use transform="translate(68.408203 0.015625)" xlink:href="#DejaVuSans-Oblique-112"/>
      <use transform="translate(131.884766 0.015625)" xlink:href="#DejaVuSans-Oblique-114"/>
      <use transform="translate(172.998047 0.015625)" xlink:href="#DejaVuSans-Oblique-105"/>
      <use transform="translate(200.78125 0.015625)" xlink:href="#DejaVuSans-Oblique-111"/>
      <use transform="translate(261.962891 0.015625)" xlink:href="#DejaVuSans-Oblique-114"/>
      <use transform="translate(303.076172 0.015625)" xlink:href="#DejaVuSans-Oblique-105"/>
      <use transform="translate(330.859375 0.015625)" xlink:href="#DejaVuSans-32"/>
      <use transform="translate(362.646484 0.015625)" xlink:href="#DejaVuSans-109"/>
      <use transform="translate(460.058594 0.015625)" xlink:href="#DejaVuSans-111"/>
      <use transform="translate(521.240234 0.015625)" xlink:href="#DejaVuSans-100"/>
      <use transform="translate(584.716797 0.015625)" xlink:href="#DejaVuSans-101"/>
      <use transform="translate(646.240234 0.015625)" xlink:href="#DejaVuSans-108"/>
     </g>
    </g>
    <g id="line2d_32"/>
    <g id="line2d_33">
     <g>
      <use style="stroke:#000000;" x="130.645313" xlink:href="#m5ab8b7a9e5" y="64.794688"/>
     </g>
    </g>
    <g id="text_20">
     <!-- Experimental Data -->
     <defs>
      <path d="M 34.28125 27.484375 
Q 23.390625 27.484375 19.1875 25 
Q 14.984375 22.515625 14.984375 16.5 
Q 14.984375 11.71875 18.140625 8.90625 
Q 21.296875 6.109375 26.703125 6.109375 
Q 34.1875 6.109375 38.703125 11.40625 
Q 43.21875 16.703125 43.21875 25.484375 
L 43.21875 27.484375 
z
M 52.203125 31.203125 
L 52.203125 0 
L 43.21875 0 
L 43.21875 8.296875 
Q 40.140625 3.328125 35.546875 0.953125 
Q 30.953125 -1.421875 24.3125 -1.421875 
Q 15.921875 -1.421875 10.953125 3.296875 
Q 6 8.015625 6 15.921875 
Q 6 25.140625 12.171875 29.828125 
Q 18.359375 34.515625 30.609375 34.515625 
L 43.21875 34.515625 
L 43.21875 35.40625 
Q 43.21875 41.609375 39.140625 45 
Q 35.0625 48.390625 27.6875 48.390625 
Q 23 48.390625 18.546875 47.265625 
Q 14.109375 46.140625 10.015625 43.890625 
L 10.015625 52.203125 
Q 14.9375 54.109375 19.578125 55.046875 
Q 24.21875 56 28.609375 56 
Q 40.484375 56 46.34375 49.84375 
Q 52.203125 43.703125 52.203125 31.203125 
z
" id="DejaVuSans-97"/>
      <path d="M 19.671875 64.796875 
L 19.671875 8.109375 
L 31.59375 8.109375 
Q 46.6875 8.109375 53.6875 14.9375 
Q 60.6875 21.78125 60.6875 36.53125 
Q 60.6875 51.171875 53.6875 57.984375 
Q 46.6875 64.796875 31.59375 64.796875 
z
M 9.8125 72.90625 
L 30.078125 72.90625 
Q 51.265625 72.90625 61.171875 64.09375 
Q 71.09375 55.28125 71.09375 36.53125 
Q 71.09375 17.671875 61.125 8.828125 
Q 51.171875 0 30.078125 0 
L 9.8125 0 
z
" id="DejaVuSans-68"/>
     </defs>
     <g transform="translate(148.645313 68.294688)scale(0.1 -0.1)">
      <use xlink:href="#DejaVuSans-69"/>
      <use x="63.183594" xlink:href="#DejaVuSans-120"/>
      <use x="122.363281" xlink:href="#DejaVuSans-112"/>
      <use x="185.839844" xlink:href="#DejaVuSans-101"/>
      <use x="247.363281" xlink:href="#DejaVuSans-114"/>
      <use x="288.476562" xlink:href="#DejaVuSans-105"/>
      <use x="316.259766" xlink:href="#DejaVuSans-109"/>
      <use x="413.671875" xlink:href="#DejaVuSans-101"/>
      <use x="475.195312" xlink:href="#DejaVuSans-110"/>
      <use x="538.574219" xlink:href="#DejaVuSans-116"/>
      <use x="577.783203" xlink:href="#DejaVuSans-97"/>
      <use x="639.0625" xlink:href="#DejaVuSans-108"/>
      <use x="666.845703" xlink:href="#DejaVuSans-32"/>
      <use x="698.632812" xlink:href="#DejaVuSans-68"/>
      <use x="775.634766" xlink:href="#DejaVuSans-97"/>
      <use x="836.914062" xlink:href="#DejaVuSans-116"/>
      <use x="876.123047" xlink:href="#DejaVuSans-97"/>
     </g>
    </g>
    <g id="line2d_34">
     <path d="M 120.645313 79.472813 
L 140.645313 79.472813 
" style="fill:none;stroke:#ffffff;stroke-linecap:square;stroke-width:1.5;"/>
    </g>
    <g id="line2d_35"/>
    <g id="text_21">
     <!-- T:1282 -->
     <defs>
      <path d="M 11.71875 12.40625 
L 22.015625 12.40625 
L 22.015625 0 
L 11.71875 0 
z
M 11.71875 51.703125 
L 22.015625 51.703125 
L 22.015625 39.3125 
L 11.71875 39.3125 
z
" id="DejaVuSans-58"/>
      <path d="M 31.78125 34.625 
Q 24.75 34.625 20.71875 30.859375 
Q 16.703125 27.09375 16.703125 20.515625 
Q 16.703125 13.921875 20.71875 10.15625 
Q 24.75 6.390625 31.78125 6.390625 
Q 38.8125 6.390625 42.859375 10.171875 
Q 46.921875 13.96875 46.921875 20.515625 
Q 46.921875 27.09375 42.890625 30.859375 
Q 38.875 34.625 31.78125 34.625 
z
M 21.921875 38.8125 
Q 15.578125 40.375 12.03125 44.71875 
Q 8.5 49.078125 8.5 55.328125 
Q 8.5 64.0625 14.71875 69.140625 
Q 20.953125 74.21875 31.78125 74.21875 
Q 42.671875 74.21875 48.875 69.140625 
Q 55.078125 64.0625 55.078125 55.328125 
Q 55.078125 49.078125 51.53125 44.71875 
Q 48 40.375 41.703125 38.8125 
Q 48.828125 37.15625 52.796875 32.3125 
Q 56.78125 27.484375 56.78125 20.515625 
Q 56.78125 9.90625 50.3125 4.234375 
Q 43.84375 -1.421875 31.78125 -1.421875 
Q 19.734375 -1.421875 13.25 4.234375 
Q 6.78125 9.90625 6.78125 20.515625 
Q 6.78125 27.484375 10.78125 32.3125 
Q 14.796875 37.15625 21.921875 38.8125 
z
M 18.3125 54.390625 
Q 18.3125 48.734375 21.84375 45.5625 
Q 25.390625 42.390625 31.78125 42.390625 
Q 38.140625 42.390625 41.71875 45.5625 
Q 45.3125 48.734375 45.3125 54.390625 
Q 45.3125 60.0625 41.71875 63.234375 
Q 38.140625 66.40625 31.78125 66.40625 
Q 25.390625 66.40625 21.84375 63.234375 
Q 18.3125 60.0625 18.3125 54.390625 
z
" id="DejaVuSans-56"/>
     </defs>
     <g transform="translate(148.645313 82.972813)scale(0.1 -0.1)">
      <use xlink:href="#DejaVuSans-84"/>
      <use x="60.912109" xlink:href="#DejaVuSans-58"/>
      <use x="94.603516" xlink:href="#DejaVuSans-49"/>
      <use x="158.226562" xlink:href="#DejaVuSans-50"/>
      <use x="221.849609" xlink:href="#DejaVuSans-56"/>
      <use x="285.472656" xlink:href="#DejaVuSans-50"/>
     </g>
    </g>
    <g id="line2d_36">
     <path d="M 120.645313 94.150937 
L 140.645313 94.150937 
" style="fill:none;stroke:#ffffff;stroke-linecap:square;stroke-width:1.5;"/>
    </g>
    <g id="line2d_37"/>
    <g id="text_22">
     <!-- P:1.635 -->
     <defs>
      <path d="M 19.671875 64.796875 
L 19.671875 37.40625 
L 32.078125 37.40625 
Q 38.96875 37.40625 42.71875 40.96875 
Q 46.484375 44.53125 46.484375 51.125 
Q 46.484375 57.671875 42.71875 61.234375 
Q 38.96875 64.796875 32.078125 64.796875 
z
M 9.8125 72.90625 
L 32.078125 72.90625 
Q 44.34375 72.90625 50.609375 67.359375 
Q 56.890625 61.8125 56.890625 51.125 
Q 56.890625 40.328125 50.609375 34.8125 
Q 44.34375 29.296875 32.078125 29.296875 
L 19.671875 29.296875 
L 19.671875 0 
L 9.8125 0 
z
" id="DejaVuSans-80"/>
      <path d="M 33.015625 40.375 
Q 26.375 40.375 22.484375 35.828125 
Q 18.609375 31.296875 18.609375 23.390625 
Q 18.609375 15.53125 22.484375 10.953125 
Q 26.375 6.390625 33.015625 6.390625 
Q 39.65625 6.390625 43.53125 10.953125 
Q 47.40625 15.53125 47.40625 23.390625 
Q 47.40625 31.296875 43.53125 35.828125 
Q 39.65625 40.375 33.015625 40.375 
z
M 52.59375 71.296875 
L 52.59375 62.3125 
Q 48.875 64.0625 45.09375 64.984375 
Q 41.3125 65.921875 37.59375 65.921875 
Q 27.828125 65.921875 22.671875 59.328125 
Q 17.53125 52.734375 16.796875 39.40625 
Q 19.671875 43.65625 24.015625 45.921875 
Q 28.375 48.1875 33.59375 48.1875 
Q 44.578125 48.1875 50.953125 41.515625 
Q 57.328125 34.859375 57.328125 23.390625 
Q 57.328125 12.15625 50.6875 5.359375 
Q 44.046875 -1.421875 33.015625 -1.421875 
Q 20.359375 -1.421875 13.671875 8.265625 
Q 6.984375 17.96875 6.984375 36.375 
Q 6.984375 53.65625 15.1875 63.9375 
Q 23.390625 74.21875 37.203125 74.21875 
Q 40.921875 74.21875 44.703125 73.484375 
Q 48.484375 72.75 52.59375 71.296875 
z
" id="DejaVuSans-54"/>
     </defs>
     <g transform="translate(148.645313 97.650937)scale(0.1 -0.1)">
      <use xlink:href="#DejaVuSans-80"/>
      <use x="60.302734" xlink:href="#DejaVuSans-58"/>
      <use x="93.994141" xlink:href="#DejaVuSans-49"/>
      <use x="157.617188" xlink:href="#DejaVuSans-46"/>
      <use x="189.404297" xlink:href="#DejaVuSans-54"/>
      <use x="253.027344" xlink:href="#DejaVuSans-51"/>
      <use x="316.650391" xlink:href="#DejaVuSans-53"/>
     </g>
    </g>
    <g id="line2d_38">
     <path d="M 262.385938 35.416562 
L 282.385938 35.416562 
" style="fill:none;stroke:#ffffff;stroke-linecap:square;stroke-width:1.5;"/>
    </g>
    <g id="line2d_39"/>
    <g id="text_23">
     <!-- H2O2: 0.003094 -->
     <defs>
      <path d="M 10.984375 1.515625 
L 10.984375 10.5 
Q 14.703125 8.734375 18.5 7.8125 
Q 22.3125 6.890625 25.984375 6.890625 
Q 35.75 6.890625 40.890625 13.453125 
Q 46.046875 20.015625 46.78125 33.40625 
Q 43.953125 29.203125 39.59375 26.953125 
Q 35.25 24.703125 29.984375 24.703125 
Q 19.046875 24.703125 12.671875 31.3125 
Q 6.296875 37.9375 6.296875 49.421875 
Q 6.296875 60.640625 12.9375 67.421875 
Q 19.578125 74.21875 30.609375 74.21875 
Q 43.265625 74.21875 49.921875 64.515625 
Q 56.59375 54.828125 56.59375 36.375 
Q 56.59375 19.140625 48.40625 8.859375 
Q 40.234375 -1.421875 26.421875 -1.421875 
Q 22.703125 -1.421875 18.890625 -0.6875 
Q 15.09375 0.046875 10.984375 1.515625 
z
M 30.609375 32.421875 
Q 37.25 32.421875 41.125 36.953125 
Q 45.015625 41.5 45.015625 49.421875 
Q 45.015625 57.28125 41.125 61.84375 
Q 37.25 66.40625 30.609375 66.40625 
Q 23.96875 66.40625 20.09375 61.84375 
Q 16.21875 57.28125 16.21875 49.421875 
Q 16.21875 41.5 20.09375 36.953125 
Q 23.96875 32.421875 30.609375 32.421875 
z
" id="DejaVuSans-57"/>
      <path d="M 37.796875 64.3125 
L 12.890625 25.390625 
L 37.796875 25.390625 
z
M 35.203125 72.90625 
L 47.609375 72.90625 
L 47.609375 25.390625 
L 58.015625 25.390625 
L 58.015625 17.1875 
L 47.609375 17.1875 
L 47.609375 0 
L 37.796875 0 
L 37.796875 17.1875 
L 4.890625 17.1875 
L 4.890625 26.703125 
z
" id="DejaVuSans-52"/>
     </defs>
     <g transform="translate(290.385938 38.916562)scale(0.1 -0.1)">
      <use xlink:href="#DejaVuSans-72"/>
      <use x="75.195312" xlink:href="#DejaVuSans-50"/>
      <use x="138.818359" xlink:href="#DejaVuSans-79"/>
      <use x="217.529297" xlink:href="#DejaVuSans-50"/>
      <use x="281.152344" xlink:href="#DejaVuSans-58"/>
      <use x="314.84375" xlink:href="#DejaVuSans-32"/>
      <use x="346.630859" xlink:href="#DejaVuSans-48"/>
      <use x="410.253906" xlink:href="#DejaVuSans-46"/>
      <use x="442.041016" xlink:href="#DejaVuSans-48"/>
      <use x="505.664062" xlink:href="#DejaVuSans-48"/>
      <use x="569.287109" xlink:href="#DejaVuSans-51"/>
      <use x="632.910156" xlink:href="#DejaVuSans-48"/>
      <use x="696.533203" xlink:href="#DejaVuSans-57"/>
      <use x="760.15625" xlink:href="#DejaVuSans-52"/>
     </g>
    </g>
    <g id="line2d_40">
     <path d="M 262.385938 50.094687 
L 282.385938 50.094687 
" style="fill:none;stroke:#ffffff;stroke-linecap:square;stroke-width:1.5;"/>
    </g>
    <g id="line2d_41"/>
    <g id="text_24">
     <!-- H2O: 0.001113 -->
     <g transform="translate(290.385938 53.594687)scale(0.1 -0.1)">
      <use xlink:href="#DejaVuSans-72"/>
      <use x="75.195312" xlink:href="#DejaVuSans-50"/>
      <use x="138.818359" xlink:href="#DejaVuSans-79"/>
      <use x="217.513672" xlink:href="#DejaVuSans-58"/>
      <use x="251.205078" xlink:href="#DejaVuSans-32"/>
      <use x="282.992188" xlink:href="#DejaVuSans-48"/>
      <use x="346.615234" xlink:href="#DejaVuSans-46"/>
      <use x="378.402344" xlink:href="#DejaVuSans-48"/>
      <use x="442.025391" xlink:href="#DejaVuSans-48"/>
      <use x="505.648438" xlink:href="#DejaVuSans-49"/>
      <use x="569.271484" xlink:href="#DejaVuSans-49"/>
      <use x="632.894531" xlink:href="#DejaVuSans-49"/>
      <use x="696.517578" xlink:href="#DejaVuSans-51"/>
     </g>
    </g>
    <g id="line2d_42">
     <path d="M 262.385938 64.772812 
L 282.385938 64.772812 
" style="fill:none;stroke:#ffffff;stroke-linecap:square;stroke-width:1.5;"/>
    </g>
    <g id="line2d_43"/>
    <g id="text_25">
     <!-- O2: 0.000556 -->
     <g transform="translate(290.385938 68.272812)scale(0.1 -0.1)">
      <use xlink:href="#DejaVuSans-79"/>
      <use x="78.710938" xlink:href="#DejaVuSans-50"/>
      <use x="142.333984" xlink:href="#DejaVuSans-58"/>
      <use x="176.025391" xlink:href="#DejaVuSans-32"/>
      <use x="207.8125" xlink:href="#DejaVuSans-48"/>
      <use x="271.435547" xlink:href="#DejaVuSans-46"/>
      <use x="303.222656" xlink:href="#DejaVuSans-48"/>
      <use x="366.845703" xlink:href="#DejaVuSans-48"/>
      <use x="430.46875" xlink:href="#DejaVuSans-48"/>
      <use x="494.091797" xlink:href="#DejaVuSans-53"/>
      <use x="557.714844" xlink:href="#DejaVuSans-53"/>
      <use x="621.337891" xlink:href="#DejaVuSans-54"/>
     </g>
    </g>
    <g id="line2d_44">
     <path d="M 262.385938 79.450938 
L 282.385938 79.450938 
" style="fill:none;stroke:#ffffff;stroke-linecap:square;stroke-width:1.5;"/>
    </g>
    <g id="line2d_45"/>
    <g id="text_26">
     <!-- Ar: 0.995237 -->
     <defs>
      <path d="M 34.1875 63.1875 
L 20.796875 26.90625 
L 47.609375 26.90625 
z
M 28.609375 72.90625 
L 39.796875 72.90625 
L 67.578125 0 
L 57.328125 0 
L 50.6875 18.703125 
L 17.828125 18.703125 
L 11.1875 0 
L 0.78125 0 
z
" id="DejaVuSans-65"/>
      <path d="M 8.203125 72.90625 
L 55.078125 72.90625 
L 55.078125 68.703125 
L 28.609375 0 
L 18.3125 0 
L 43.21875 64.59375 
L 8.203125 64.59375 
z
" id="DejaVuSans-55"/>
     </defs>
     <g transform="translate(290.385938 82.950938)scale(0.1 -0.1)">
      <use xlink:href="#DejaVuSans-65"/>
      <use x="68.408203" xlink:href="#DejaVuSans-114"/>
      <use x="109.505859" xlink:href="#DejaVuSans-58"/>
      <use x="143.197266" xlink:href="#DejaVuSans-32"/>
      <use x="174.984375" xlink:href="#DejaVuSans-48"/>
      <use x="238.607422" xlink:href="#DejaVuSans-46"/>
      <use x="270.394531" xlink:href="#DejaVuSans-57"/>
      <use x="334.017578" xlink:href="#DejaVuSans-57"/>
      <use x="397.640625" xlink:href="#DejaVuSans-53"/>
      <use x="461.263672" xlink:href="#DejaVuSans-50"/>
      <use x="524.886719" xlink:href="#DejaVuSans-51"/>
      <use x="588.509766" xlink:href="#DejaVuSans-55"/>
     </g>
    </g>
   </g>
  </g>
 </g>
 <defs>
  <clipPath id="pa0bb6c39ae">
   <rect height="217.44" width="334.8" x="46.965625" y="22.318125"/>
  </clipPath>
 </defs>
</svg>
