<?xml version="1.0" encoding="utf-8" standalone="no"?>
<!DOCTYPE svg PUBLIC "-//W3C//DTD SVG 1.1//EN"
  "http://www.w3.org/Graphics/SVG/1.1/DTD/svg11.dtd">
<!-- Created with matplotlib (https://matplotlib.org/) -->
<svg height="277.314375pt" version="1.1" viewBox="0 0 386.103125 277.314375" width="386.103125pt" xmlns="http://www.w3.org/2000/svg" xmlns:xlink="http://www.w3.org/1999/xlink">
 <defs>
  <style type="text/css">
*{stroke-linecap:butt;stroke-linejoin:round;}
  </style>
 </defs>
 <g id="figure_1">
  <g id="patch_1">
   <path d="M 0 277.314375 
L 386.103125 277.314375 
L 386.103125 0 
L 0 0 
z
" style="fill:none;"/>
  </g>
  <g id="axes_1">
   <g id="patch_2">
    <path d="M 40.603125 239.758125 
L 375.403125 239.758125 
L 375.403125 22.318125 
L 40.603125 22.318125 
z
" style="fill:none;"/>
   </g>
   <g id="matplotlib.axis_1">
    <g id="xtick_1">
     <g id="line2d_1">
      <defs>
       <path d="M 0 0 
L 0 3.5 
" id="m0081d49f48" style="stroke:#000000;stroke-width:0.8;"/>
      </defs>
      <g>
       <use style="stroke:#000000;stroke-width:0.8;" x="55.821307" xlink:href="#m0081d49f48" y="239.758125"/>
      </g>
     </g>
     <g id="text_1">
      <!-- 0.0 -->
      <defs>
       <path d="M 31.78125 66.40625 
Q 24.171875 66.40625 20.328125 58.90625 
Q 16.5 51.421875 16.5 36.375 
Q 16.5 21.390625 20.328125 13.890625 
Q 24.171875 6.390625 31.78125 6.390625 
Q 39.453125 6.390625 43.28125 13.890625 
Q 47.125 21.390625 47.125 36.375 
Q 47.125 51.421875 43.28125 58.90625 
Q 39.453125 66.40625 31.78125 66.40625 
z
M 31.78125 74.21875 
Q 44.046875 74.21875 50.515625 64.515625 
Q 56.984375 54.828125 56.984375 36.375 
Q 56.984375 17.96875 50.515625 8.265625 
Q 44.046875 -1.421875 31.78125 -1.421875 
Q 19.53125 -1.421875 13.0625 8.265625 
Q 6.59375 17.96875 6.59375 36.375 
Q 6.59375 54.828125 13.0625 64.515625 
Q 19.53125 74.21875 31.78125 74.21875 
z
" id="DejaVuSans-48"/>
       <path d="M 10.6875 12.40625 
L 21 12.40625 
L 21 0 
L 10.6875 0 
z
" id="DejaVuSans-46"/>
      </defs>
      <g transform="translate(47.869744 254.356562)scale(0.1 -0.1)">
       <use xlink:href="#DejaVuSans-48"/>
       <use x="63.623047" xlink:href="#DejaVuSans-46"/>
       <use x="95.410156" xlink:href="#DejaVuSans-48"/>
      </g>
     </g>
    </g>
    <g id="xtick_2">
     <g id="line2d_2">
      <g>
       <use style="stroke:#000000;stroke-width:0.8;" x="115.883731" xlink:href="#m0081d49f48" y="239.758125"/>
      </g>
     </g>
     <g id="text_2">
      <!-- 0.2 -->
      <defs>
       <path d="M 19.1875 8.296875 
L 53.609375 8.296875 
L 53.609375 0 
L 7.328125 0 
L 7.328125 8.296875 
Q 12.9375 14.109375 22.625 23.890625 
Q 32.328125 33.6875 34.8125 36.53125 
Q 39.546875 41.84375 41.421875 45.53125 
Q 43.3125 49.21875 43.3125 52.78125 
Q 43.3125 58.59375 39.234375 62.25 
Q 35.15625 65.921875 28.609375 65.921875 
Q 23.96875 65.921875 18.8125 64.3125 
Q 13.671875 62.703125 7.8125 59.421875 
L 7.8125 69.390625 
Q 13.765625 71.78125 18.9375 73 
Q 24.125 74.21875 28.421875 74.21875 
Q 39.75 74.21875 46.484375 68.546875 
Q 53.21875 62.890625 53.21875 53.421875 
Q 53.21875 48.921875 51.53125 44.890625 
Q 49.859375 40.875 45.40625 35.40625 
Q 44.1875 33.984375 37.640625 27.21875 
Q 31.109375 20.453125 19.1875 8.296875 
z
" id="DejaVuSans-50"/>
      </defs>
      <g transform="translate(107.932168 254.356562)scale(0.1 -0.1)">
       <use xlink:href="#DejaVuSans-48"/>
       <use x="63.623047" xlink:href="#DejaVuSans-46"/>
       <use x="95.410156" xlink:href="#DejaVuSans-50"/>
      </g>
     </g>
    </g>
    <g id="xtick_3">
     <g id="line2d_3">
      <g>
       <use style="stroke:#000000;stroke-width:0.8;" x="175.946155" xlink:href="#m0081d49f48" y="239.758125"/>
      </g>
     </g>
     <g id="text_3">
      <!-- 0.4 -->
      <defs>
       <path d="M 37.796875 64.3125 
L 12.890625 25.390625 
L 37.796875 25.390625 
z
M 35.203125 72.90625 
L 47.609375 72.90625 
L 47.609375 25.390625 
L 58.015625 25.390625 
L 58.015625 17.1875 
L 47.609375 17.1875 
L 47.609375 0 
L 37.796875 0 
L 37.796875 17.1875 
L 4.890625 17.1875 
L 4.890625 26.703125 
z
" id="DejaVuSans-52"/>
      </defs>
      <g transform="translate(167.994592 254.356562)scale(0.1 -0.1)">
       <use xlink:href="#DejaVuSans-48"/>
       <use x="63.623047" xlink:href="#DejaVuSans-46"/>
       <use x="95.410156" xlink:href="#DejaVuSans-52"/>
      </g>
     </g>
    </g>
    <g id="xtick_4">
     <g id="line2d_4">
      <g>
       <use style="stroke:#000000;stroke-width:0.8;" x="236.008578" xlink:href="#m0081d49f48" y="239.758125"/>
      </g>
     </g>
     <g id="text_4">
      <!-- 0.6 -->
      <defs>
       <path d="M 33.015625 40.375 
Q 26.375 40.375 22.484375 35.828125 
Q 18.609375 31.296875 18.609375 23.390625 
Q 18.609375 15.53125 22.484375 10.953125 
Q 26.375 6.390625 33.015625 6.390625 
Q 39.65625 6.390625 43.53125 10.953125 
Q 47.40625 15.53125 47.40625 23.390625 
Q 47.40625 31.296875 43.53125 35.828125 
Q 39.65625 40.375 33.015625 40.375 
z
M 52.59375 71.296875 
L 52.59375 62.3125 
Q 48.875 64.0625 45.09375 64.984375 
Q 41.3125 65.921875 37.59375 65.921875 
Q 27.828125 65.921875 22.671875 59.328125 
Q 17.53125 52.734375 16.796875 39.40625 
Q 19.671875 43.65625 24.015625 45.921875 
Q 28.375 48.1875 33.59375 48.1875 
Q 44.578125 48.1875 50.953125 41.515625 
Q 57.328125 34.859375 57.328125 23.390625 
Q 57.328125 12.15625 50.6875 5.359375 
Q 44.046875 -1.421875 33.015625 -1.421875 
Q 20.359375 -1.421875 13.671875 8.265625 
Q 6.984375 17.96875 6.984375 36.375 
Q 6.984375 53.65625 15.1875 63.9375 
Q 23.390625 74.21875 37.203125 74.21875 
Q 40.921875 74.21875 44.703125 73.484375 
Q 48.484375 72.75 52.59375 71.296875 
z
" id="DejaVuSans-54"/>
      </defs>
      <g transform="translate(228.057016 254.356562)scale(0.1 -0.1)">
       <use xlink:href="#DejaVuSans-48"/>
       <use x="63.623047" xlink:href="#DejaVuSans-46"/>
       <use x="95.410156" xlink:href="#DejaVuSans-54"/>
      </g>
     </g>
    </g>
    <g id="xtick_5">
     <g id="line2d_5">
      <g>
       <use style="stroke:#000000;stroke-width:0.8;" x="296.071002" xlink:href="#m0081d49f48" y="239.758125"/>
      </g>
     </g>
     <g id="text_5">
      <!-- 0.8 -->
      <defs>
       <path d="M 31.78125 34.625 
Q 24.75 34.625 20.71875 30.859375 
Q 16.703125 27.09375 16.703125 20.515625 
Q 16.703125 13.921875 20.71875 10.15625 
Q 24.75 6.390625 31.78125 6.390625 
Q 38.8125 6.390625 42.859375 10.171875 
Q 46.921875 13.96875 46.921875 20.515625 
Q 46.921875 27.09375 42.890625 30.859375 
Q 38.875 34.625 31.78125 34.625 
z
M 21.921875 38.8125 
Q 15.578125 40.375 12.03125 44.71875 
Q 8.5 49.078125 8.5 55.328125 
Q 8.5 64.0625 14.71875 69.140625 
Q 20.953125 74.21875 31.78125 74.21875 
Q 42.671875 74.21875 48.875 69.140625 
Q 55.078125 64.0625 55.078125 55.328125 
Q 55.078125 49.078125 51.53125 44.71875 
Q 48 40.375 41.703125 38.8125 
Q 48.828125 37.15625 52.796875 32.3125 
Q 56.78125 27.484375 56.78125 20.515625 
Q 56.78125 9.90625 50.3125 4.234375 
Q 43.84375 -1.421875 31.78125 -1.421875 
Q 19.734375 -1.421875 13.25 4.234375 
Q 6.78125 9.90625 6.78125 20.515625 
Q 6.78125 27.484375 10.78125 32.3125 
Q 14.796875 37.15625 21.921875 38.8125 
z
M 18.3125 54.390625 
Q 18.3125 48.734375 21.84375 45.5625 
Q 25.390625 42.390625 31.78125 42.390625 
Q 38.140625 42.390625 41.71875 45.5625 
Q 45.3125 48.734375 45.3125 54.390625 
Q 45.3125 60.0625 41.71875 63.234375 
Q 38.140625 66.40625 31.78125 66.40625 
Q 25.390625 66.40625 21.84375 63.234375 
Q 18.3125 60.0625 18.3125 54.390625 
z
" id="DejaVuSans-56"/>
      </defs>
      <g transform="translate(288.11944 254.356562)scale(0.1 -0.1)">
       <use xlink:href="#DejaVuSans-48"/>
       <use x="63.623047" xlink:href="#DejaVuSans-46"/>
       <use x="95.410156" xlink:href="#DejaVuSans-56"/>
      </g>
     </g>
    </g>
    <g id="xtick_6">
     <g id="line2d_6">
      <g>
       <use style="stroke:#000000;stroke-width:0.8;" x="356.133426" xlink:href="#m0081d49f48" y="239.758125"/>
      </g>
     </g>
     <g id="text_6">
      <!-- 1.0 -->
      <defs>
       <path d="M 12.40625 8.296875 
L 28.515625 8.296875 
L 28.515625 63.921875 
L 10.984375 60.40625 
L 10.984375 69.390625 
L 28.421875 72.90625 
L 38.28125 72.90625 
L 38.28125 8.296875 
L 54.390625 8.296875 
L 54.390625 0 
L 12.40625 0 
z
" id="DejaVuSans-49"/>
      </defs>
      <g transform="translate(348.181864 254.356562)scale(0.1 -0.1)">
       <use xlink:href="#DejaVuSans-49"/>
       <use x="63.623047" xlink:href="#DejaVuSans-46"/>
       <use x="95.410156" xlink:href="#DejaVuSans-48"/>
      </g>
     </g>
    </g>
    <g id="text_7">
     <!-- Time (ms) -->
     <defs>
      <path d="M -0.296875 72.90625 
L 61.375 72.90625 
L 61.375 64.59375 
L 35.5 64.59375 
L 35.5 0 
L 25.59375 0 
L 25.59375 64.59375 
L -0.296875 64.59375 
z
" id="DejaVuSans-84"/>
      <path d="M 9.421875 54.6875 
L 18.40625 54.6875 
L 18.40625 0 
L 9.421875 0 
z
M 9.421875 75.984375 
L 18.40625 75.984375 
L 18.40625 64.59375 
L 9.421875 64.59375 
z
" id="DejaVuSans-105"/>
      <path d="M 52 44.1875 
Q 55.375 50.25 60.0625 53.125 
Q 64.75 56 71.09375 56 
Q 79.640625 56 84.28125 50.015625 
Q 88.921875 44.046875 88.921875 33.015625 
L 88.921875 0 
L 79.890625 0 
L 79.890625 32.71875 
Q 79.890625 40.578125 77.09375 44.375 
Q 74.3125 48.1875 68.609375 48.1875 
Q 61.625 48.1875 57.5625 43.546875 
Q 53.515625 38.921875 53.515625 30.90625 
L 53.515625 0 
L 44.484375 0 
L 44.484375 32.71875 
Q 44.484375 40.625 41.703125 44.40625 
Q 38.921875 48.1875 33.109375 48.1875 
Q 26.21875 48.1875 22.15625 43.53125 
Q 18.109375 38.875 18.109375 30.90625 
L 18.109375 0 
L 9.078125 0 
L 9.078125 54.6875 
L 18.109375 54.6875 
L 18.109375 46.1875 
Q 21.1875 51.21875 25.484375 53.609375 
Q 29.78125 56 35.6875 56 
Q 41.65625 56 45.828125 52.96875 
Q 50 49.953125 52 44.1875 
z
" id="DejaVuSans-109"/>
      <path d="M 56.203125 29.59375 
L 56.203125 25.203125 
L 14.890625 25.203125 
Q 15.484375 15.921875 20.484375 11.0625 
Q 25.484375 6.203125 34.421875 6.203125 
Q 39.59375 6.203125 44.453125 7.46875 
Q 49.3125 8.734375 54.109375 11.28125 
L 54.109375 2.78125 
Q 49.265625 0.734375 44.1875 -0.34375 
Q 39.109375 -1.421875 33.890625 -1.421875 
Q 20.796875 -1.421875 13.15625 6.1875 
Q 5.515625 13.8125 5.515625 26.8125 
Q 5.515625 40.234375 12.765625 48.109375 
Q 20.015625 56 32.328125 56 
Q 43.359375 56 49.78125 48.890625 
Q 56.203125 41.796875 56.203125 29.59375 
z
M 47.21875 32.234375 
Q 47.125 39.59375 43.09375 43.984375 
Q 39.0625 48.390625 32.421875 48.390625 
Q 24.90625 48.390625 20.390625 44.140625 
Q 15.875 39.890625 15.1875 32.171875 
z
" id="DejaVuSans-101"/>
      <path id="DejaVuSans-32"/>
      <path d="M 31 75.875 
Q 24.46875 64.65625 21.28125 53.65625 
Q 18.109375 42.671875 18.109375 31.390625 
Q 18.109375 20.125 21.3125 9.0625 
Q 24.515625 -2 31 -13.1875 
L 23.1875 -13.1875 
Q 15.875 -1.703125 12.234375 9.375 
Q 8.59375 20.453125 8.59375 31.390625 
Q 8.59375 42.28125 12.203125 53.3125 
Q 15.828125 64.359375 23.1875 75.875 
z
" id="DejaVuSans-40"/>
      <path d="M 44.28125 53.078125 
L 44.28125 44.578125 
Q 40.484375 46.53125 36.375 47.5 
Q 32.28125 48.484375 27.875 48.484375 
Q 21.1875 48.484375 17.84375 46.4375 
Q 14.5 44.390625 14.5 40.28125 
Q 14.5 37.15625 16.890625 35.375 
Q 19.28125 33.59375 26.515625 31.984375 
L 29.59375 31.296875 
Q 39.15625 29.25 43.1875 25.515625 
Q 47.21875 21.78125 47.21875 15.09375 
Q 47.21875 7.46875 41.1875 3.015625 
Q 35.15625 -1.421875 24.609375 -1.421875 
Q 20.21875 -1.421875 15.453125 -0.5625 
Q 10.6875 0.296875 5.421875 2 
L 5.421875 11.28125 
Q 10.40625 8.6875 15.234375 7.390625 
Q 20.0625 6.109375 24.8125 6.109375 
Q 31.15625 6.109375 34.5625 8.28125 
Q 37.984375 10.453125 37.984375 14.40625 
Q 37.984375 18.0625 35.515625 20.015625 
Q 33.0625 21.96875 24.703125 23.78125 
L 21.578125 24.515625 
Q 13.234375 26.265625 9.515625 29.90625 
Q 5.8125 33.546875 5.8125 39.890625 
Q 5.8125 47.609375 11.28125 51.796875 
Q 16.75 56 26.8125 56 
Q 31.78125 56 36.171875 55.265625 
Q 40.578125 54.546875 44.28125 53.078125 
z
" id="DejaVuSans-115"/>
      <path d="M 8.015625 75.875 
L 15.828125 75.875 
Q 23.140625 64.359375 26.78125 53.3125 
Q 30.421875 42.28125 30.421875 31.390625 
Q 30.421875 20.453125 26.78125 9.375 
Q 23.140625 -1.703125 15.828125 -13.1875 
L 8.015625 -13.1875 
Q 14.5 -2 17.703125 9.0625 
Q 20.90625 20.125 20.90625 31.390625 
Q 20.90625 42.671875 17.703125 53.65625 
Q 14.5 64.65625 8.015625 75.875 
z
" id="DejaVuSans-41"/>
     </defs>
     <g transform="translate(182.65 268.034687)scale(0.1 -0.1)">
      <use xlink:href="#DejaVuSans-84"/>
      <use x="61.037109" xlink:href="#DejaVuSans-105"/>
      <use x="88.820312" xlink:href="#DejaVuSans-109"/>
      <use x="186.232422" xlink:href="#DejaVuSans-101"/>
      <use x="247.755859" xlink:href="#DejaVuSans-32"/>
      <use x="279.542969" xlink:href="#DejaVuSans-40"/>
      <use x="318.556641" xlink:href="#DejaVuSans-109"/>
      <use x="415.96875" xlink:href="#DejaVuSans-115"/>
      <use x="468.068359" xlink:href="#DejaVuSans-41"/>
     </g>
    </g>
   </g>
   <g id="matplotlib.axis_2">
    <g id="ytick_1">
     <g id="line2d_7">
      <defs>
       <path d="M 0 0 
L -3.5 0 
" id="mc234b1e706" style="stroke:#000000;stroke-width:0.8;"/>
      </defs>
      <g>
       <use style="stroke:#000000;stroke-width:0.8;" x="40.603125" xlink:href="#mc234b1e706" y="229.874489"/>
      </g>
     </g>
     <g id="text_8">
      <!-- 0 -->
      <g transform="translate(27.240625 233.673707)scale(0.1 -0.1)">
       <use xlink:href="#DejaVuSans-48"/>
      </g>
     </g>
    </g>
    <g id="ytick_2">
     <g id="line2d_8">
      <g>
       <use style="stroke:#000000;stroke-width:0.8;" x="40.603125" xlink:href="#mc234b1e706" y="201.752308"/>
      </g>
     </g>
     <g id="text_9">
      <!-- 5 -->
      <defs>
       <path d="M 10.796875 72.90625 
L 49.515625 72.90625 
L 49.515625 64.59375 
L 19.828125 64.59375 
L 19.828125 46.734375 
Q 21.96875 47.46875 24.109375 47.828125 
Q 26.265625 48.1875 28.421875 48.1875 
Q 40.625 48.1875 47.75 41.5 
Q 54.890625 34.8125 54.890625 23.390625 
Q 54.890625 11.625 47.5625 5.09375 
Q 40.234375 -1.421875 26.90625 -1.421875 
Q 22.3125 -1.421875 17.546875 -0.640625 
Q 12.796875 0.140625 7.71875 1.703125 
L 7.71875 11.625 
Q 12.109375 9.234375 16.796875 8.0625 
Q 21.484375 6.890625 26.703125 6.890625 
Q 35.15625 6.890625 40.078125 11.328125 
Q 45.015625 15.765625 45.015625 23.390625 
Q 45.015625 31 40.078125 35.4375 
Q 35.15625 39.890625 26.703125 39.890625 
Q 22.75 39.890625 18.8125 39.015625 
Q 14.890625 38.140625 10.796875 36.28125 
z
" id="DejaVuSans-53"/>
      </defs>
      <g transform="translate(27.240625 205.551526)scale(0.1 -0.1)">
       <use xlink:href="#DejaVuSans-53"/>
      </g>
     </g>
    </g>
    <g id="ytick_3">
     <g id="line2d_9">
      <g>
       <use style="stroke:#000000;stroke-width:0.8;" x="40.603125" xlink:href="#mc234b1e706" y="173.630127"/>
      </g>
     </g>
     <g id="text_10">
      <!-- 10 -->
      <g transform="translate(20.878125 177.429345)scale(0.1 -0.1)">
       <use xlink:href="#DejaVuSans-49"/>
       <use x="63.623047" xlink:href="#DejaVuSans-48"/>
      </g>
     </g>
    </g>
    <g id="ytick_4">
     <g id="line2d_10">
      <g>
       <use style="stroke:#000000;stroke-width:0.8;" x="40.603125" xlink:href="#mc234b1e706" y="145.507945"/>
      </g>
     </g>
     <g id="text_11">
      <!-- 15 -->
      <g transform="translate(20.878125 149.307164)scale(0.1 -0.1)">
       <use xlink:href="#DejaVuSans-49"/>
       <use x="63.623047" xlink:href="#DejaVuSans-53"/>
      </g>
     </g>
    </g>
    <g id="ytick_5">
     <g id="line2d_11">
      <g>
       <use style="stroke:#000000;stroke-width:0.8;" x="40.603125" xlink:href="#mc234b1e706" y="117.385764"/>
      </g>
     </g>
     <g id="text_12">
      <!-- 20 -->
      <g transform="translate(20.878125 121.184983)scale(0.1 -0.1)">
       <use xlink:href="#DejaVuSans-50"/>
       <use x="63.623047" xlink:href="#DejaVuSans-48"/>
      </g>
     </g>
    </g>
    <g id="ytick_6">
     <g id="line2d_12">
      <g>
       <use style="stroke:#000000;stroke-width:0.8;" x="40.603125" xlink:href="#mc234b1e706" y="89.263583"/>
      </g>
     </g>
     <g id="text_13">
      <!-- 25 -->
      <g transform="translate(20.878125 93.062802)scale(0.1 -0.1)">
       <use xlink:href="#DejaVuSans-50"/>
       <use x="63.623047" xlink:href="#DejaVuSans-53"/>
      </g>
     </g>
    </g>
    <g id="ytick_7">
     <g id="line2d_13">
      <g>
       <use style="stroke:#000000;stroke-width:0.8;" x="40.603125" xlink:href="#mc234b1e706" y="61.141402"/>
      </g>
     </g>
     <g id="text_14">
      <!-- 30 -->
      <defs>
       <path d="M 40.578125 39.3125 
Q 47.65625 37.796875 51.625 33 
Q 55.609375 28.21875 55.609375 21.1875 
Q 55.609375 10.40625 48.1875 4.484375 
Q 40.765625 -1.421875 27.09375 -1.421875 
Q 22.515625 -1.421875 17.65625 -0.515625 
Q 12.796875 0.390625 7.625 2.203125 
L 7.625 11.71875 
Q 11.71875 9.328125 16.59375 8.109375 
Q 21.484375 6.890625 26.8125 6.890625 
Q 36.078125 6.890625 40.9375 10.546875 
Q 45.796875 14.203125 45.796875 21.1875 
Q 45.796875 27.640625 41.28125 31.265625 
Q 36.765625 34.90625 28.71875 34.90625 
L 20.21875 34.90625 
L 20.21875 43.015625 
L 29.109375 43.015625 
Q 36.375 43.015625 40.234375 45.921875 
Q 44.09375 48.828125 44.09375 54.296875 
Q 44.09375 59.90625 40.109375 62.90625 
Q 36.140625 65.921875 28.71875 65.921875 
Q 24.65625 65.921875 20.015625 65.03125 
Q 15.375 64.15625 9.8125 62.3125 
L 9.8125 71.09375 
Q 15.4375 72.65625 20.34375 73.4375 
Q 25.25 74.21875 29.59375 74.21875 
Q 40.828125 74.21875 47.359375 69.109375 
Q 53.90625 64.015625 53.90625 55.328125 
Q 53.90625 49.265625 50.4375 45.09375 
Q 46.96875 40.921875 40.578125 39.3125 
z
" id="DejaVuSans-51"/>
      </defs>
      <g transform="translate(20.878125 64.940621)scale(0.1 -0.1)">
       <use xlink:href="#DejaVuSans-51"/>
       <use x="63.623047" xlink:href="#DejaVuSans-48"/>
      </g>
     </g>
    </g>
    <g id="ytick_8">
     <g id="line2d_14">
      <g>
       <use style="stroke:#000000;stroke-width:0.8;" x="40.603125" xlink:href="#mc234b1e706" y="33.019221"/>
      </g>
     </g>
     <g id="text_15">
      <!-- 35 -->
      <g transform="translate(20.878125 36.81844)scale(0.1 -0.1)">
       <use xlink:href="#DejaVuSans-51"/>
       <use x="63.623047" xlink:href="#DejaVuSans-53"/>
      </g>
     </g>
    </g>
    <g id="text_16">
     <!-- ppmOH -->
     <defs>
      <path d="M 18.109375 8.203125 
L 18.109375 -20.796875 
L 9.078125 -20.796875 
L 9.078125 54.6875 
L 18.109375 54.6875 
L 18.109375 46.390625 
Q 20.953125 51.265625 25.265625 53.625 
Q 29.59375 56 35.59375 56 
Q 45.5625 56 51.78125 48.09375 
Q 58.015625 40.1875 58.015625 27.296875 
Q 58.015625 14.40625 51.78125 6.484375 
Q 45.5625 -1.421875 35.59375 -1.421875 
Q 29.59375 -1.421875 25.265625 0.953125 
Q 20.953125 3.328125 18.109375 8.203125 
z
M 48.6875 27.296875 
Q 48.6875 37.203125 44.609375 42.84375 
Q 40.53125 48.484375 33.40625 48.484375 
Q 26.265625 48.484375 22.1875 42.84375 
Q 18.109375 37.203125 18.109375 27.296875 
Q 18.109375 17.390625 22.1875 11.75 
Q 26.265625 6.109375 33.40625 6.109375 
Q 40.53125 6.109375 44.609375 11.75 
Q 48.6875 17.390625 48.6875 27.296875 
z
" id="DejaVuSans-112"/>
      <path d="M 39.40625 66.21875 
Q 28.65625 66.21875 22.328125 58.203125 
Q 16.015625 50.203125 16.015625 36.375 
Q 16.015625 22.609375 22.328125 14.59375 
Q 28.65625 6.59375 39.40625 6.59375 
Q 50.140625 6.59375 56.421875 14.59375 
Q 62.703125 22.609375 62.703125 36.375 
Q 62.703125 50.203125 56.421875 58.203125 
Q 50.140625 66.21875 39.40625 66.21875 
z
M 39.40625 74.21875 
Q 54.734375 74.21875 63.90625 63.9375 
Q 73.09375 53.65625 73.09375 36.375 
Q 73.09375 19.140625 63.90625 8.859375 
Q 54.734375 -1.421875 39.40625 -1.421875 
Q 24.03125 -1.421875 14.8125 8.828125 
Q 5.609375 19.09375 5.609375 36.375 
Q 5.609375 53.65625 14.8125 63.9375 
Q 24.03125 74.21875 39.40625 74.21875 
z
" id="DejaVuSans-79"/>
      <path d="M 9.8125 72.90625 
L 19.671875 72.90625 
L 19.671875 43.015625 
L 55.515625 43.015625 
L 55.515625 72.90625 
L 65.375 72.90625 
L 65.375 0 
L 55.515625 0 
L 55.515625 34.71875 
L 19.671875 34.71875 
L 19.671875 0 
L 9.8125 0 
z
" id="DejaVuSans-72"/>
     </defs>
     <g transform="translate(14.798438 149.952969)rotate(-90)scale(0.1 -0.1)">
      <use xlink:href="#DejaVuSans-112"/>
      <use x="63.476562" xlink:href="#DejaVuSans-112"/>
      <use x="126.953125" xlink:href="#DejaVuSans-109"/>
      <use x="224.365234" xlink:href="#DejaVuSans-79"/>
      <use x="303.076172" xlink:href="#DejaVuSans-72"/>
     </g>
    </g>
   </g>
   <g id="line2d_15">
    <path clip-path="url(#p0f9c03cf6e)" d="M 55.821307 229.874489 
L 56.538838 205.63265 
L 57.258327 187.916454 
L 57.977816 175.0828 
L 58.697305 165.864415 
L 59.416794 159.320909 
L 60.096437 154.96256 
L 60.776081 151.920617 
L 61.455724 149.858605 
L 62.135367 148.521815 
L 62.81501 147.717915 
L 63.494653 147.302145 
L 64.174297 147.165964 
L 64.855833 147.228734 
L 65.880029 147.569834 
L 67.313905 148.320049 
L 74.216356 152.269965 
L 77.014686 153.471084 
L 79.891906 154.467722 
L 83.248663 155.388732 
L 86.641473 156.118301 
L 91.011384 156.841048 
L 96.514245 157.511227 
L 103.150056 158.091241 
L 111.997803 158.636952 
L 125.269425 159.20649 
L 147.964194 159.914612 
L 237.244734 162.531321 
L 293.121963 164.46638 
L 360.184943 166.988998 
L 360.184943 166.988998 
" style="fill:none;stroke:#0000ff;stroke-linecap:square;stroke-width:1.5;"/>
   </g>
   <g id="line2d_16">
    <path clip-path="url(#p0f9c03cf6e)" d="M 55.821307 229.874489 
L 56.772556 179.027019 
L 57.720635 139.655588 
L 58.594875 111.382113 
L 59.469114 89.347753 
L 60.343353 72.388999 
L 61.217593 59.542936 
L 62.095945 49.970955 
L 62.97841 43.041 
L 63.640259 39.267202 
L 64.302108 36.48768 
L 64.963956 34.529847 
L 65.625805 33.246064 
L 66.287654 32.510671 
L 66.728887 32.27181 
L 67.390735 32.222347 
L 68.052584 32.473761 
L 68.714433 32.9596 
L 69.596898 33.878222 
L 70.920596 35.634249 
L 73.466721 39.533528 
L 76.461309 44.017638 
L 78.790433 47.086864 
L 80.786825 49.377518 
L 82.623162 51.220921 
L 84.644795 52.988774 
L 87.171837 54.868485 
L 89.698879 56.445856 
L 92.258911 57.796384 
L 95.357341 59.16864 
L 98.455771 60.317904 
L 102.328809 61.518319 
L 106.976455 62.705771 
L 112.405123 63.849422 
L 119.395836 65.069388 
L 128.716786 66.433139 
L 142.698212 68.20484 
L 238.535458 79.841829 
L 356.446036 94.899985 
L 356.446036 94.899985 
" style="fill:none;stroke:#ff0000;stroke-linecap:square;stroke-width:1.5;"/>
   </g>
   <g id="line2d_17">
    <defs>
     <path d="M 0 3 
C 0.795609 3 1.55874 2.683901 2.12132 2.12132 
C 2.683901 1.55874 3 0.795609 3 0 
C 3 -0.795609 2.683901 -1.55874 2.12132 -2.12132 
C 1.55874 -2.683901 0.795609 -3 0 -3 
C -0.795609 -3 -1.55874 -2.683901 -2.12132 -2.12132 
C -2.683901 -1.55874 -3 -0.795609 -3 0 
C -3 0.795609 -2.683901 1.55874 -2.12132 2.12132 
C -1.55874 2.683901 -0.795609 3 0 3 
z
" id="mfd2a12e2dc" style="stroke:#000000;"/>
    </defs>
    <g clip-path="url(#p0f9c03cf6e)">
     <use style="stroke:#000000;" x="62.638392" xlink:href="#mfd2a12e2dc" y="139.852012"/>
     <use style="stroke:#000000;" x="62.758517" xlink:href="#mfd2a12e2dc" y="139.817141"/>
     <use style="stroke:#000000;" x="62.908673" xlink:href="#mfd2a12e2dc" y="139.796893"/>
     <use style="stroke:#000000;" x="63.028798" xlink:href="#mfd2a12e2dc" y="139.789019"/>
     <use style="stroke:#000000;" x="63.178954" xlink:href="#mfd2a12e2dc" y="139.792956"/>
     <use style="stroke:#000000;" x="63.299079" xlink:href="#mfd2a12e2dc" y="139.808704"/>
     <use style="stroke:#000000;" x="63.449235" xlink:href="#mfd2a12e2dc" y="139.834014"/>
     <use style="stroke:#000000;" x="63.569359" xlink:href="#mfd2a12e2dc" y="139.869448"/>
     <use style="stroke:#000000;" x="63.719516" xlink:href="#mfd2a12e2dc" y="139.913881"/>
     <use style="stroke:#000000;" x="63.83964" xlink:href="#mfd2a12e2dc" y="139.966188"/>
     <use style="stroke:#000000;" x="63.989796" xlink:href="#mfd2a12e2dc" y="140.025807"/>
     <use style="stroke:#000000;" x="64.109921" xlink:href="#mfd2a12e2dc" y="140.092738"/>
     <use style="stroke:#000000;" x="64.260077" xlink:href="#mfd2a12e2dc" y="140.165856"/>
     <use style="stroke:#000000;" x="64.380202" xlink:href="#mfd2a12e2dc" y="140.244598"/>
     <use style="stroke:#000000;" x="64.530358" xlink:href="#mfd2a12e2dc" y="140.328965"/>
     <use style="stroke:#000000;" x="64.650483" xlink:href="#mfd2a12e2dc" y="140.418393"/>
     <use style="stroke:#000000;" x="64.800639" xlink:href="#mfd2a12e2dc" y="140.512321"/>
     <use style="stroke:#000000;" x="64.920764" xlink:href="#mfd2a12e2dc" y="140.610749"/>
     <use style="stroke:#000000;" x="65.07092" xlink:href="#mfd2a12e2dc" y="140.712551"/>
     <use style="stroke:#000000;" x="65.191045" xlink:href="#mfd2a12e2dc" y="140.817728"/>
     <use style="stroke:#000000;" x="65.341201" xlink:href="#mfd2a12e2dc" y="140.92628"/>
     <use style="stroke:#000000;" x="65.461326" xlink:href="#mfd2a12e2dc" y="141.037644"/>
     <use style="stroke:#000000;" x="65.611482" xlink:href="#mfd2a12e2dc" y="141.151257"/>
     <use style="stroke:#000000;" x="65.731607" xlink:href="#mfd2a12e2dc" y="141.267683"/>
     <use style="stroke:#000000;" x="65.851732" xlink:href="#mfd2a12e2dc" y="141.385796"/>
     <use style="stroke:#000000;" x="66.001888" xlink:href="#mfd2a12e2dc" y="141.506159"/>
     <use style="stroke:#000000;" x="66.122013" xlink:href="#mfd2a12e2dc" y="141.628209"/>
     <use style="stroke:#000000;" x="66.272169" xlink:href="#mfd2a12e2dc" y="141.751384"/>
     <use style="stroke:#000000;" x="66.482387" xlink:href="#mfd2a12e2dc" y="141.938678"/>
     <use style="stroke:#000000;" x="66.662574" xlink:href="#mfd2a12e2dc" y="142.128784"/>
     <use style="stroke:#000000;" x="66.872793" xlink:href="#mfd2a12e2dc" y="142.320015"/>
     <use style="stroke:#000000;" x="67.083011" xlink:href="#mfd2a12e2dc" y="142.513496"/>
     <use style="stroke:#000000;" x="67.29323" xlink:href="#mfd2a12e2dc" y="142.707539"/>
     <use style="stroke:#000000;" x="67.473417" xlink:href="#mfd2a12e2dc" y="142.902144"/>
     <use style="stroke:#000000;" x="67.683636" xlink:href="#mfd2a12e2dc" y="143.097312"/>
     <use style="stroke:#000000;" x="67.893854" xlink:href="#mfd2a12e2dc" y="143.29248"/>
     <use style="stroke:#000000;" x="68.074041" xlink:href="#mfd2a12e2dc" y="143.487648"/>
     <use style="stroke:#000000;" x="68.28426" xlink:href="#mfd2a12e2dc" y="143.682253"/>
     <use style="stroke:#000000;" x="68.494478" xlink:href="#mfd2a12e2dc" y="143.876297"/>
     <use style="stroke:#000000;" x="68.704697" xlink:href="#mfd2a12e2dc" y="144.069777"/>
     <use style="stroke:#000000;" x="68.884884" xlink:href="#mfd2a12e2dc" y="144.262133"/>
     <use style="stroke:#000000;" x="69.095102" xlink:href="#mfd2a12e2dc" y="144.453926"/>
     <use style="stroke:#000000;" x="69.305321" xlink:href="#mfd2a12e2dc" y="144.644032"/>
     <use style="stroke:#000000;" x="69.515539" xlink:href="#mfd2a12e2dc" y="144.833576"/>
     <use style="stroke:#000000;" x="69.695727" xlink:href="#mfd2a12e2dc" y="145.020869"/>
     <use style="stroke:#000000;" x="69.905945" xlink:href="#mfd2a12e2dc" y="145.207601"/>
     <use style="stroke:#000000;" x="70.116164" xlink:href="#mfd2a12e2dc" y="145.392645"/>
     <use style="stroke:#000000;" x="70.296351" xlink:href="#mfd2a12e2dc" y="145.576001"/>
     <use style="stroke:#000000;" x="70.506569" xlink:href="#mfd2a12e2dc" y="145.75767"/>
     <use style="stroke:#000000;" x="70.716788" xlink:href="#mfd2a12e2dc" y="145.938215"/>
     <use style="stroke:#000000;" x="70.927006" xlink:href="#mfd2a12e2dc" y="146.116509"/>
     <use style="stroke:#000000;" x="71.107194" xlink:href="#mfd2a12e2dc" y="146.293679"/>
     <use style="stroke:#000000;" x="71.317412" xlink:href="#mfd2a12e2dc" y="146.468599"/>
     <use style="stroke:#000000;" x="71.527631" xlink:href="#mfd2a12e2dc" y="146.642394"/>
     <use style="stroke:#000000;" x="71.737849" xlink:href="#mfd2a12e2dc" y="146.814502"/>
     <use style="stroke:#000000;" x="72.038161" xlink:href="#mfd2a12e2dc" y="147.072101"/>
     <use style="stroke:#000000;" x="72.338473" xlink:href="#mfd2a12e2dc" y="147.325763"/>
     <use style="stroke:#000000;" x="72.638786" xlink:href="#mfd2a12e2dc" y="147.576051"/>
     <use style="stroke:#000000;" x="72.939098" xlink:href="#mfd2a12e2dc" y="147.821839"/>
     <use style="stroke:#000000;" x="73.269441" xlink:href="#mfd2a12e2dc" y="148.063689"/>
     <use style="stroke:#000000;" x="73.569753" xlink:href="#mfd2a12e2dc" y="148.301603"/>
     <use style="stroke:#000000;" x="73.870065" xlink:href="#mfd2a12e2dc" y="148.535579"/>
     <use style="stroke:#000000;" x="74.170377" xlink:href="#mfd2a12e2dc" y="148.766181"/>
     <use style="stroke:#000000;" x="74.500721" xlink:href="#mfd2a12e2dc" y="148.992284"/>
     <use style="stroke:#000000;" x="74.801033" xlink:href="#mfd2a12e2dc" y="149.215011"/>
     <use style="stroke:#000000;" x="75.101345" xlink:href="#mfd2a12e2dc" y="149.434364"/>
     <use style="stroke:#000000;" x="75.401657" xlink:href="#mfd2a12e2dc" y="149.64978"/>
     <use style="stroke:#000000;" x="75.701969" xlink:href="#mfd2a12e2dc" y="149.861259"/>
     <use style="stroke:#000000;" x="76.032312" xlink:href="#mfd2a12e2dc" y="150.069926"/>
     <use style="stroke:#000000;" x="76.332625" xlink:href="#mfd2a12e2dc" y="150.274655"/>
     <use style="stroke:#000000;" x="76.632937" xlink:href="#mfd2a12e2dc" y="150.47601"/>
     <use style="stroke:#000000;" x="76.933249" xlink:href="#mfd2a12e2dc" y="150.67399"/>
     <use style="stroke:#000000;" x="77.413748" xlink:href="#mfd2a12e2dc" y="150.967586"/>
     <use style="stroke:#000000;" x="77.864216" xlink:href="#mfd2a12e2dc" y="151.254432"/>
     <use style="stroke:#000000;" x="78.344716" xlink:href="#mfd2a12e2dc" y="151.533404"/>
     <use style="stroke:#000000;" x="78.795184" xlink:href="#mfd2a12e2dc" y="151.805627"/>
     <use style="stroke:#000000;" x="79.275683" xlink:href="#mfd2a12e2dc" y="152.0711"/>
     <use style="stroke:#000000;" x="79.726152" xlink:href="#mfd2a12e2dc" y="152.329824"/>
     <use style="stroke:#000000;" x="80.206651" xlink:href="#mfd2a12e2dc" y="152.582361"/>
     <use style="stroke:#000000;" x="80.657119" xlink:href="#mfd2a12e2dc" y="152.828149"/>
     <use style="stroke:#000000;" x="81.137618" xlink:href="#mfd2a12e2dc" y="153.068313"/>
     <use style="stroke:#000000;" x="81.588087" xlink:href="#mfd2a12e2dc" y="153.302289"/>
     <use style="stroke:#000000;" x="82.308836" xlink:href="#mfd2a12e2dc" y="153.64763"/>
     <use style="stroke:#000000;" x="83.029585" xlink:href="#mfd2a12e2dc" y="153.980034"/>
     <use style="stroke:#000000;" x="83.720303" xlink:href="#mfd2a12e2dc" y="154.300064"/>
     <use style="stroke:#000000;" x="84.441052" xlink:href="#mfd2a12e2dc" y="154.607721"/>
     <use style="stroke:#000000;" x="85.13177" xlink:href="#mfd2a12e2dc" y="154.904691"/>
     <use style="stroke:#000000;" x="85.852519" xlink:href="#mfd2a12e2dc" y="155.190975"/>
     <use style="stroke:#000000;" x="86.453143" xlink:href="#mfd2a12e2dc" y="155.466572"/>
     <use style="stroke:#000000;" x="87.354079" xlink:href="#mfd2a12e2dc" y="155.732046"/>
     <use style="stroke:#000000;" x="87.954704" xlink:href="#mfd2a12e2dc" y="155.987957"/>
     <use style="stroke:#000000;" x="88.555328" xlink:href="#mfd2a12e2dc" y="156.23487"/>
     <use style="stroke:#000000;" x="89.456264" xlink:href="#mfd2a12e2dc" y="156.473346"/>
     <use style="stroke:#000000;" x="90.056888" xlink:href="#mfd2a12e2dc" y="156.702823"/>
     <use style="stroke:#000000;" x="90.957825" xlink:href="#mfd2a12e2dc" y="156.924426"/>
     <use style="stroke:#000000;" x="91.558449" xlink:href="#mfd2a12e2dc" y="157.138155"/>
     <use style="stroke:#000000;" x="92.159073" xlink:href="#mfd2a12e2dc" y="157.344571"/>
     <use style="stroke:#000000;" x="93.06001" xlink:href="#mfd2a12e2dc" y="157.544239"/>
     <use style="stroke:#000000;" x="93.660634" xlink:href="#mfd2a12e2dc" y="157.736595"/>
     <use style="stroke:#000000;" x="94.261258" xlink:href="#mfd2a12e2dc" y="157.922764"/>
     <use style="stroke:#000000;" x="95.162194" xlink:href="#mfd2a12e2dc" y="158.102183"/>
     <use style="stroke:#000000;" x="95.762819" xlink:href="#mfd2a12e2dc" y="158.275978"/>
     <use style="stroke:#000000;" x="96.363443" xlink:href="#mfd2a12e2dc" y="158.444149"/>
     <use style="stroke:#000000;" x="97.264379" xlink:href="#mfd2a12e2dc" y="158.606695"/>
     <use style="stroke:#000000;" x="97.865004" xlink:href="#mfd2a12e2dc" y="158.763617"/>
     <use style="stroke:#000000;" x="98.465628" xlink:href="#mfd2a12e2dc" y="158.916039"/>
     <use style="stroke:#000000;" x="99.366564" xlink:href="#mfd2a12e2dc" y="159.063399"/>
     <use style="stroke:#000000;" x="99.967188" xlink:href="#mfd2a12e2dc" y="159.205697"/>
     <use style="stroke:#000000;" x="100.868125" xlink:href="#mfd2a12e2dc" y="159.344059"/>
     <use style="stroke:#000000;" x="101.468749" xlink:href="#mfd2a12e2dc" y="159.47792"/>
     <use style="stroke:#000000;" x="102.069373" xlink:href="#mfd2a12e2dc" y="159.607845"/>
     <use style="stroke:#000000;" x="102.97031" xlink:href="#mfd2a12e2dc" y="159.733832"/>
     <use style="stroke:#000000;" x="103.871246" xlink:href="#mfd2a12e2dc" y="159.921688"/>
     <use style="stroke:#000000;" x="105.072494" xlink:href="#mfd2a12e2dc" y="160.101108"/>
     <use style="stroke:#000000;" x="106.273743" xlink:href="#mfd2a12e2dc" y="160.272091"/>
     <use style="stroke:#000000;" x="107.174679" xlink:href="#mfd2a12e2dc" y="160.436324"/>
     <use style="stroke:#000000;" x="108.375928" xlink:href="#mfd2a12e2dc" y="160.593246"/>
     <use style="stroke:#000000;" x="109.577176" xlink:href="#mfd2a12e2dc" y="160.743418"/>
     <use style="stroke:#000000;" x="110.478113" xlink:href="#mfd2a12e2dc" y="160.887404"/>
     <use style="stroke:#000000;" x="111.679361" xlink:href="#mfd2a12e2dc" y="161.025765"/>
     <use style="stroke:#000000;" x="112.88061" xlink:href="#mfd2a12e2dc" y="161.159064"/>
     <use style="stroke:#000000;" x="113.781546" xlink:href="#mfd2a12e2dc" y="161.286739"/>
     <use style="stroke:#000000;" x="114.982794" xlink:href="#mfd2a12e2dc" y="161.409914"/>
     <use style="stroke:#000000;" x="115.883731" xlink:href="#mfd2a12e2dc" y="161.52859"/>
     <use style="stroke:#000000;" x="117.084979" xlink:href="#mfd2a12e2dc" y="161.642766"/>
     <use style="stroke:#000000;" x="118.286228" xlink:href="#mfd2a12e2dc" y="161.753005"/>
     <use style="stroke:#000000;" x="119.187164" xlink:href="#mfd2a12e2dc" y="161.859869"/>
     <use style="stroke:#000000;" x="120.388412" xlink:href="#mfd2a12e2dc" y="161.962796"/>
     <use style="stroke:#000000;" x="121.589661" xlink:href="#mfd2a12e2dc" y="162.062349"/>
     <use style="stroke:#000000;" x="122.490597" xlink:href="#mfd2a12e2dc" y="162.159089"/>
     <use style="stroke:#000000;" x="123.691846" xlink:href="#mfd2a12e2dc" y="162.253017"/>
     <use style="stroke:#000000;" x="124.893094" xlink:href="#mfd2a12e2dc" y="162.344133"/>
     <use style="stroke:#000000;" x="125.794031" xlink:href="#mfd2a12e2dc" y="162.432436"/>
     <use style="stroke:#000000;" x="126.995279" xlink:href="#mfd2a12e2dc" y="162.51849"/>
     <use style="stroke:#000000;" x="128.196528" xlink:href="#mfd2a12e2dc" y="162.601732"/>
     <use style="stroke:#000000;" x="129.097464" xlink:href="#mfd2a12e2dc" y="162.683286"/>
     <use style="stroke:#000000;" x="130.298712" xlink:href="#mfd2a12e2dc" y="162.762591"/>
     <use style="stroke:#000000;" x="131.499961" xlink:href="#mfd2a12e2dc" y="162.840208"/>
     <use style="stroke:#000000;" x="132.400897" xlink:href="#mfd2a12e2dc" y="162.916138"/>
     <use style="stroke:#000000;" x="133.602146" xlink:href="#mfd2a12e2dc" y="162.989818"/>
     <use style="stroke:#000000;" x="134.803394" xlink:href="#mfd2a12e2dc" y="163.062373"/>
     <use style="stroke:#000000;" x="135.704331" xlink:href="#mfd2a12e2dc" y="163.133241"/>
     <use style="stroke:#000000;" x="136.905579" xlink:href="#mfd2a12e2dc" y="163.202422"/>
     <use style="stroke:#000000;" x="138.106828" xlink:href="#mfd2a12e2dc" y="163.270477"/>
     <use style="stroke:#000000;" x="139.007764" xlink:href="#mfd2a12e2dc" y="163.337408"/>
     <use style="stroke:#000000;" x="140.209012" xlink:href="#mfd2a12e2dc" y="163.403214"/>
     <use style="stroke:#000000;" x="141.410261" xlink:href="#mfd2a12e2dc" y="163.467333"/>
     <use style="stroke:#000000;" x="142.311197" xlink:href="#mfd2a12e2dc" y="163.530889"/>
     <use style="stroke:#000000;" x="143.512446" xlink:href="#mfd2a12e2dc" y="163.59332"/>
     <use style="stroke:#000000;" x="144.713694" xlink:href="#mfd2a12e2dc" y="163.654626"/>
     <use style="stroke:#000000;" x="145.614631" xlink:href="#mfd2a12e2dc" y="163.714808"/>
     <use style="stroke:#000000;" x="146.815879" xlink:href="#mfd2a12e2dc" y="163.774427"/>
     <use style="stroke:#000000;" x="148.017127" xlink:href="#mfd2a12e2dc" y="163.833484"/>
     <use style="stroke:#000000;" x="149.518688" xlink:href="#mfd2a12e2dc" y="163.920662"/>
     <use style="stroke:#000000;" x="151.320561" xlink:href="#mfd2a12e2dc" y="164.006716"/>
     <use style="stroke:#000000;" x="152.822121" xlink:href="#mfd2a12e2dc" y="164.091083"/>
     <use style="stroke:#000000;" x="154.623994" xlink:href="#mfd2a12e2dc" y="164.173762"/>
     <use style="stroke:#000000;" x="156.125555" xlink:href="#mfd2a12e2dc" y="164.255316"/>
     <use style="stroke:#000000;" x="157.927427" xlink:href="#mfd2a12e2dc" y="164.336308"/>
     <use style="stroke:#000000;" x="159.428988" xlink:href="#mfd2a12e2dc" y="164.415613"/>
     <use style="stroke:#000000;" x="161.230861" xlink:href="#mfd2a12e2dc" y="164.494355"/>
     <use style="stroke:#000000;" x="162.732421" xlink:href="#mfd2a12e2dc" y="164.571972"/>
     <use style="stroke:#000000;" x="164.534294" xlink:href="#mfd2a12e2dc" y="164.648464"/>
     <use style="stroke:#000000;" x="166.035855" xlink:href="#mfd2a12e2dc" y="164.724394"/>
     <use style="stroke:#000000;" x="167.837727" xlink:href="#mfd2a12e2dc" y="164.799762"/>
     <use style="stroke:#000000;" x="169.339288" xlink:href="#mfd2a12e2dc" y="164.874567"/>
     <use style="stroke:#000000;" x="171.141161" xlink:href="#mfd2a12e2dc" y="164.948809"/>
     <use style="stroke:#000000;" x="172.642721" xlink:href="#mfd2a12e2dc" y="165.021927"/>
     <use style="stroke:#000000;" x="174.444594" xlink:href="#mfd2a12e2dc" y="165.095045"/>
     <use style="stroke:#000000;" x="175.946155" xlink:href="#mfd2a12e2dc" y="165.1676"/>
     <use style="stroke:#000000;" x="177.748027" xlink:href="#mfd2a12e2dc" y="165.239593"/>
     <use style="stroke:#000000;" x="179.249588" xlink:href="#mfd2a12e2dc" y="165.311585"/>
     <use style="stroke:#000000;" x="181.051461" xlink:href="#mfd2a12e2dc" y="165.382453"/>
     <use style="stroke:#000000;" x="182.853333" xlink:href="#mfd2a12e2dc" y="165.453884"/>
     <use style="stroke:#000000;" x="184.354894" xlink:href="#mfd2a12e2dc" y="165.524189"/>
     <use style="stroke:#000000;" x="186.156767" xlink:href="#mfd2a12e2dc" y="165.594495"/>
     <use style="stroke:#000000;" x="187.658327" xlink:href="#mfd2a12e2dc" y="165.6648"/>
     <use style="stroke:#000000;" x="189.4602" xlink:href="#mfd2a12e2dc" y="165.734543"/>
     <use style="stroke:#000000;" x="190.961761" xlink:href="#mfd2a12e2dc" y="165.803724"/>
     <use style="stroke:#000000;" x="192.763633" xlink:href="#mfd2a12e2dc" y="165.872904"/>
     <use style="stroke:#000000;" x="195.16613" xlink:href="#mfd2a12e2dc" y="165.976956"/>
     <use style="stroke:#000000;" x="197.568627" xlink:href="#mfd2a12e2dc" y="166.080446"/>
     <use style="stroke:#000000;" x="200.271436" xlink:href="#mfd2a12e2dc" y="166.183373"/>
     <use style="stroke:#000000;" x="202.673933" xlink:href="#mfd2a12e2dc" y="166.285738"/>
     <use style="stroke:#000000;" x="205.07643" xlink:href="#mfd2a12e2dc" y="166.388102"/>
     <use style="stroke:#000000;" x="207.478927" xlink:href="#mfd2a12e2dc" y="166.489905"/>
     <use style="stroke:#000000;" x="210.181736" xlink:href="#mfd2a12e2dc" y="166.591707"/>
     <use style="stroke:#000000;" x="212.584233" xlink:href="#mfd2a12e2dc" y="166.692947"/>
     <use style="stroke:#000000;" x="214.98673" xlink:href="#mfd2a12e2dc" y="166.794187"/>
     <use style="stroke:#000000;" x="217.689539" xlink:href="#mfd2a12e2dc" y="166.895427"/>
     <use style="stroke:#000000;" x="220.07672" xlink:href="#mfd2a12e2dc" y="166.996104"/>
     <use style="stroke:#000000;" x="222.56901" xlink:href="#mfd2a12e2dc" y="167.096781"/>
     <use style="stroke:#000000;" x="225.061601" xlink:href="#mfd2a12e2dc" y="167.197459"/>
     <use style="stroke:#000000;" x="227.553891" xlink:href="#mfd2a12e2dc" y="167.297574"/>
     <use style="stroke:#000000;" x="230.046482" xlink:href="#mfd2a12e2dc" y="167.397689"/>
     <use style="stroke:#000000;" x="232.538772" xlink:href="#mfd2a12e2dc" y="167.497804"/>
     <use style="stroke:#000000;" x="235.031063" xlink:href="#mfd2a12e2dc" y="167.597356"/>
     <use style="stroke:#000000;" x="237.523653" xlink:href="#mfd2a12e2dc" y="167.697471"/>
     <use style="stroke:#000000;" x="240.015943" xlink:href="#mfd2a12e2dc" y="167.797024"/>
     <use style="stroke:#000000;" x="242.508534" xlink:href="#mfd2a12e2dc" y="167.896576"/>
     <use style="stroke:#000000;" x="246.349526" xlink:href="#mfd2a12e2dc" y="168.049561"/>
     <use style="stroke:#000000;" x="250.190218" xlink:href="#mfd2a12e2dc" y="168.202546"/>
     <use style="stroke:#000000;" x="254.03121" xlink:href="#mfd2a12e2dc" y="168.35553"/>
     <use style="stroke:#000000;" x="257.872202" xlink:href="#mfd2a12e2dc" y="168.507952"/>
     <use style="stroke:#000000;" x="261.713194" xlink:href="#mfd2a12e2dc" y="168.660375"/>
     <use style="stroke:#000000;" x="265.553885" xlink:href="#mfd2a12e2dc" y="168.812234"/>
     <use style="stroke:#000000;" x="269.394877" xlink:href="#mfd2a12e2dc" y="168.964094"/>
     <use style="stroke:#000000;" x="273.235869" xlink:href="#mfd2a12e2dc" y="169.115392"/>
     <use style="stroke:#000000;" x="277.076861" xlink:href="#mfd2a12e2dc" y="169.267251"/>
     <use style="stroke:#000000;" x="280.917853" xlink:href="#mfd2a12e2dc" y="169.417986"/>
     <use style="stroke:#000000;" x="284.758545" xlink:href="#mfd2a12e2dc" y="169.569284"/>
     <use style="stroke:#000000;" x="288.599537" xlink:href="#mfd2a12e2dc" y="169.720018"/>
     <use style="stroke:#000000;" x="292.440529" xlink:href="#mfd2a12e2dc" y="169.870191"/>
     <use style="stroke:#000000;" x="296.281521" xlink:href="#mfd2a12e2dc" y="170.020926"/>
     <use style="stroke:#000000;" x="300.122213" xlink:href="#mfd2a12e2dc" y="170.171098"/>
     <use style="stroke:#000000;" x="305.908326" xlink:href="#mfd2a12e2dc" y="170.396638"/>
     <use style="stroke:#000000;" x="311.69414" xlink:href="#mfd2a12e2dc" y="170.621616"/>
     <use style="stroke:#000000;" x="317.479953" xlink:href="#mfd2a12e2dc" y="170.846593"/>
     <use style="stroke:#000000;" x="323.265766" xlink:href="#mfd2a12e2dc" y="171.071008"/>
     <use style="stroke:#000000;" x="329.05158" xlink:href="#mfd2a12e2dc" y="171.294298"/>
     <use style="stroke:#000000;" x="334.837393" xlink:href="#mfd2a12e2dc" y="171.517588"/>
     <use style="stroke:#000000;" x="340.623206" xlink:href="#mfd2a12e2dc" y="171.740316"/>
     <use style="stroke:#000000;" x="346.409019" xlink:href="#mfd2a12e2dc" y="171.961919"/>
     <use style="stroke:#000000;" x="352.194833" xlink:href="#mfd2a12e2dc" y="172.183522"/>
     <use style="stroke:#000000;" x="357.980346" xlink:href="#mfd2a12e2dc" y="172.403999"/>
    </g>
   </g>
   <g id="line2d_18">
    <path clip-path="url(#p0f9c03cf6e)" d="M 62.638392 134.719248 
L 63.178954 134.318666 
L 63.719516 134.153245 
L 64.380202 134.185736 
L 65.191045 134.477355 
L 66.272169 135.128539 
L 68.28426 136.682639 
L 71.737849 139.341399 
L 74.170377 140.911654 
L 76.632937 142.228228 
L 79.275683 143.379753 
L 82.308836 144.4386 
L 85.852519 145.403689 
L 90.056888 146.277755 
L 95.162194 147.067706 
L 101.468749 147.780223 
L 108.375928 148.357477 
L 119.187164 149.025296 
L 135.704331 149.794835 
L 254.03121 154.854408 
L 317.479953 158.008069 
L 352.194833 159.783567 
L 357.980346 159.876579 
L 357.980346 159.876579 
" style="fill:none;stroke:#0000ff;stroke-dasharray:5.55,2.4;stroke-dashoffset:0;stroke-width:1.5;"/>
   </g>
   <g id="line2d_19">
    <path clip-path="url(#p0f9c03cf6e)" d="M 62.638392 159.23109 
L 63.299079 158.71455 
L 63.989796 158.446484 
L 64.800639 158.384691 
L 65.851732 158.56703 
L 67.29323 159.085302 
L 70.716788 160.669879 
L 74.170377 162.13955 
L 77.413748 163.256783 
L 80.657119 164.144692 
L 84.441052 164.952252 
L 88.555328 165.620491 
L 94.261258 166.296074 
L 101.468749 166.879847 
L 110.478113 167.36518 
L 123.691846 167.827275 
L 145.614631 168.32816 
L 280.917853 171.048651 
L 346.409019 172.742011 
L 352.194833 172.900899 
L 357.980346 173.226184 
L 357.980346 173.226184 
" style="fill:none;stroke:#0000ff;stroke-dasharray:5.55,2.4;stroke-dashoffset:0;stroke-width:1.5;"/>
   </g>
   <g id="line2d_20"/>
   <g id="line2d_21"/>
   <g id="line2d_22"/>
   <g id="line2d_23"/>
   <g id="line2d_24"/>
   <g id="line2d_25"/>
   <g id="patch_3">
    <path d="M 40.603125 239.758125 
L 40.603125 22.318125 
" style="fill:none;stroke:#000000;stroke-linecap:square;stroke-linejoin:miter;stroke-width:0.8;"/>
   </g>
   <g id="patch_4">
    <path d="M 375.403125 239.758125 
L 375.403125 22.318125 
" style="fill:none;stroke:#000000;stroke-linecap:square;stroke-linejoin:miter;stroke-width:0.8;"/>
   </g>
   <g id="patch_5">
    <path d="M 40.603125 239.758125 
L 375.403125 239.758125 
" style="fill:none;stroke:#000000;stroke-linecap:square;stroke-linejoin:miter;stroke-width:0.8;"/>
   </g>
   <g id="patch_6">
    <path d="M 40.603125 22.318125 
L 375.403125 22.318125 
" style="fill:none;stroke:#000000;stroke-linecap:square;stroke-linejoin:miter;stroke-width:0.8;"/>
   </g>
   <g id="text_17">
    <!-- Experiment_11 -->
    <defs>
     <path d="M 9.8125 72.90625 
L 55.90625 72.90625 
L 55.90625 64.59375 
L 19.671875 64.59375 
L 19.671875 43.015625 
L 54.390625 43.015625 
L 54.390625 34.71875 
L 19.671875 34.71875 
L 19.671875 8.296875 
L 56.78125 8.296875 
L 56.78125 0 
L 9.8125 0 
z
" id="DejaVuSans-69"/>
     <path d="M 54.890625 54.6875 
L 35.109375 28.078125 
L 55.90625 0 
L 45.3125 0 
L 29.390625 21.484375 
L 13.484375 0 
L 2.875 0 
L 24.125 28.609375 
L 4.6875 54.6875 
L 15.28125 54.6875 
L 29.78125 35.203125 
L 44.28125 54.6875 
z
" id="DejaVuSans-120"/>
     <path d="M 41.109375 46.296875 
Q 39.59375 47.171875 37.8125 47.578125 
Q 36.03125 48 33.890625 48 
Q 26.265625 48 22.1875 43.046875 
Q 18.109375 38.09375 18.109375 28.8125 
L 18.109375 0 
L 9.078125 0 
L 9.078125 54.6875 
L 18.109375 54.6875 
L 18.109375 46.1875 
Q 20.953125 51.171875 25.484375 53.578125 
Q 30.03125 56 36.53125 56 
Q 37.453125 56 38.578125 55.875 
Q 39.703125 55.765625 41.0625 55.515625 
z
" id="DejaVuSans-114"/>
     <path d="M 54.890625 33.015625 
L 54.890625 0 
L 45.90625 0 
L 45.90625 32.71875 
Q 45.90625 40.484375 42.875 44.328125 
Q 39.84375 48.1875 33.796875 48.1875 
Q 26.515625 48.1875 22.3125 43.546875 
Q 18.109375 38.921875 18.109375 30.90625 
L 18.109375 0 
L 9.078125 0 
L 9.078125 54.6875 
L 18.109375 54.6875 
L 18.109375 46.1875 
Q 21.34375 51.125 25.703125 53.5625 
Q 30.078125 56 35.796875 56 
Q 45.21875 56 50.046875 50.171875 
Q 54.890625 44.34375 54.890625 33.015625 
z
" id="DejaVuSans-110"/>
     <path d="M 18.3125 70.21875 
L 18.3125 54.6875 
L 36.8125 54.6875 
L 36.8125 47.703125 
L 18.3125 47.703125 
L 18.3125 18.015625 
Q 18.3125 11.328125 20.140625 9.421875 
Q 21.96875 7.515625 27.59375 7.515625 
L 36.8125 7.515625 
L 36.8125 0 
L 27.59375 0 
Q 17.1875 0 13.234375 3.875 
Q 9.28125 7.765625 9.28125 18.015625 
L 9.28125 47.703125 
L 2.6875 47.703125 
L 2.6875 54.6875 
L 9.28125 54.6875 
L 9.28125 70.21875 
z
" id="DejaVuSans-116"/>
     <path d="M 50.984375 -16.609375 
L 50.984375 -23.578125 
L -0.984375 -23.578125 
L -0.984375 -16.609375 
z
" id="DejaVuSans-95"/>
    </defs>
    <g transform="translate(162.700312 16.318125)scale(0.12 -0.12)">
     <use xlink:href="#DejaVuSans-69"/>
     <use x="63.183594" xlink:href="#DejaVuSans-120"/>
     <use x="122.363281" xlink:href="#DejaVuSans-112"/>
     <use x="185.839844" xlink:href="#DejaVuSans-101"/>
     <use x="247.363281" xlink:href="#DejaVuSans-114"/>
     <use x="288.476562" xlink:href="#DejaVuSans-105"/>
     <use x="316.259766" xlink:href="#DejaVuSans-109"/>
     <use x="413.671875" xlink:href="#DejaVuSans-101"/>
     <use x="475.195312" xlink:href="#DejaVuSans-110"/>
     <use x="538.574219" xlink:href="#DejaVuSans-116"/>
     <use x="577.783203" xlink:href="#DejaVuSans-95"/>
     <use x="627.783203" xlink:href="#DejaVuSans-49"/>
     <use x="691.40625" xlink:href="#DejaVuSans-49"/>
    </g>
   </g>
   <g id="legend_1">
    <g id="patch_7">
     <path d="M 112.282812 103.730625 
L 368.403125 103.730625 
Q 370.403125 103.730625 370.403125 101.730625 
L 370.403125 29.318125 
Q 370.403125 27.318125 368.403125 27.318125 
L 112.282812 27.318125 
Q 110.282812 27.318125 110.282812 29.318125 
L 110.282812 101.730625 
Q 110.282812 103.730625 112.282812 103.730625 
z
" style="fill:#ffffff;opacity:0.8;stroke:#cccccc;stroke-linejoin:miter;"/>
    </g>
    <g id="line2d_26">
     <path d="M 114.282812 35.416562 
L 134.282812 35.416562 
" style="fill:none;stroke:#0000ff;stroke-linecap:square;stroke-width:1.5;"/>
    </g>
    <g id="line2d_27"/>
    <g id="text_18">
     <!-- MSI -->
     <defs>
      <path d="M 9.8125 72.90625 
L 24.515625 72.90625 
L 43.109375 23.296875 
L 61.8125 72.90625 
L 76.515625 72.90625 
L 76.515625 0 
L 66.890625 0 
L 66.890625 64.015625 
L 48.09375 14.015625 
L 38.1875 14.015625 
L 19.390625 64.015625 
L 19.390625 0 
L 9.8125 0 
z
" id="DejaVuSans-77"/>
      <path d="M 53.515625 70.515625 
L 53.515625 60.890625 
Q 47.90625 63.578125 42.921875 64.890625 
Q 37.9375 66.21875 33.296875 66.21875 
Q 25.25 66.21875 20.875 63.09375 
Q 16.5 59.96875 16.5 54.203125 
Q 16.5 49.359375 19.40625 46.890625 
Q 22.3125 44.4375 30.421875 42.921875 
L 36.375 41.703125 
Q 47.40625 39.59375 52.65625 34.296875 
Q 57.90625 29 57.90625 20.125 
Q 57.90625 9.515625 50.796875 4.046875 
Q 43.703125 -1.421875 29.984375 -1.421875 
Q 24.8125 -1.421875 18.96875 -0.25 
Q 13.140625 0.921875 6.890625 3.21875 
L 6.890625 13.375 
Q 12.890625 10.015625 18.65625 8.296875 
Q 24.421875 6.59375 29.984375 6.59375 
Q 38.421875 6.59375 43.015625 9.90625 
Q 47.609375 13.234375 47.609375 19.390625 
Q 47.609375 24.75 44.3125 27.78125 
Q 41.015625 30.8125 33.5 32.328125 
L 27.484375 33.5 
Q 16.453125 35.6875 11.515625 40.375 
Q 6.59375 45.0625 6.59375 53.421875 
Q 6.59375 63.09375 13.40625 68.65625 
Q 20.21875 74.21875 32.171875 74.21875 
Q 37.3125 74.21875 42.625 73.28125 
Q 47.953125 72.359375 53.515625 70.515625 
z
" id="DejaVuSans-83"/>
      <path d="M 9.8125 72.90625 
L 19.671875 72.90625 
L 19.671875 0 
L 9.8125 0 
z
" id="DejaVuSans-73"/>
     </defs>
     <g transform="translate(142.282812 38.916562)scale(0.1 -0.1)">
      <use xlink:href="#DejaVuSans-77"/>
      <use x="86.279297" xlink:href="#DejaVuSans-83"/>
      <use x="149.755859" xlink:href="#DejaVuSans-73"/>
     </g>
    </g>
    <g id="line2d_28">
     <path d="M 114.282812 50.09625 
L 134.282812 50.09625 
" style="fill:none;stroke:#ff0000;stroke-linecap:square;stroke-width:1.5;"/>
    </g>
    <g id="line2d_29"/>
    <g id="text_19">
     <!-- $\it{A priori}$ model -->
     <defs>
      <path d="M 36.8125 72.90625 
L 48 72.90625 
L 61.53125 0 
L 51.21875 0 
L 48.1875 18.703125 
L 15.375 18.703125 
L 5.078125 0 
L -5.328125 0 
z
M 40.375 63.1875 
L 19.921875 26.90625 
L 46.6875 26.90625 
z
" id="DejaVuSans-Oblique-65"/>
      <path d="M 49.609375 33.6875 
Q 49.609375 40.875 46.484375 44.671875 
Q 43.359375 48.484375 37.5 48.484375 
Q 33.5 48.484375 29.859375 46.4375 
Q 26.21875 44.390625 23.390625 40.484375 
Q 20.609375 36.625 18.9375 31.15625 
Q 17.28125 25.6875 17.28125 20.3125 
Q 17.28125 13.484375 20.40625 9.796875 
Q 23.53125 6.109375 29.296875 6.109375 
Q 33.546875 6.109375 37.1875 8.109375 
Q 40.828125 10.109375 43.40625 13.921875 
Q 46.1875 17.921875 47.890625 23.34375 
Q 49.609375 28.765625 49.609375 33.6875 
z
M 21.78125 46.390625 
Q 25.390625 51.125 30.296875 53.5625 
Q 35.203125 56 41.21875 56 
Q 49.609375 56 54.25 50.5 
Q 58.890625 45.015625 58.890625 35.109375 
Q 58.890625 27 56 19.65625 
Q 53.125 12.3125 47.703125 6.5 
Q 44.09375 2.640625 39.546875 0.609375 
Q 35.015625 -1.421875 29.984375 -1.421875 
Q 24.171875 -1.421875 20.21875 1 
Q 16.265625 3.421875 14.3125 8.203125 
L 8.6875 -20.796875 
L -0.296875 -20.796875 
L 14.40625 54.6875 
L 23.390625 54.6875 
z
" id="DejaVuSans-Oblique-112"/>
      <path d="M 44.578125 46.390625 
Q 43.21875 47.125 41.453125 47.515625 
Q 39.703125 47.90625 37.703125 47.90625 
Q 30.515625 47.90625 25.140625 42.453125 
Q 19.78125 37.015625 18.015625 27.875 
L 12.5 0 
L 3.515625 0 
L 14.203125 54.6875 
L 23.1875 54.6875 
L 21.484375 46.1875 
Q 25.046875 50.921875 30 53.453125 
Q 34.96875 56 40.578125 56 
Q 42.046875 56 43.453125 55.828125 
Q 44.875 55.671875 46.296875 55.28125 
z
" id="DejaVuSans-Oblique-114"/>
      <path d="M 18.3125 75.984375 
L 27.296875 75.984375 
L 25.09375 64.59375 
L 16.109375 64.59375 
z
M 14.203125 54.6875 
L 23.1875 54.6875 
L 12.5 0 
L 3.515625 0 
z
" id="DejaVuSans-Oblique-105"/>
      <path d="M 25.390625 -1.421875 
Q 15.765625 -1.421875 10.171875 4.515625 
Q 4.59375 10.453125 4.59375 20.703125 
Q 4.59375 26.65625 6.515625 32.828125 
Q 8.453125 39.015625 11.53125 43.21875 
Q 16.359375 49.75 22.3125 52.875 
Q 28.265625 56 35.796875 56 
Q 45.125 56 50.859375 50.1875 
Q 56.59375 44.390625 56.59375 35.015625 
Q 56.59375 28.515625 54.6875 22.0625 
Q 52.78125 15.625 49.703125 11.375 
Q 44.921875 4.828125 38.96875 1.703125 
Q 33.015625 -1.421875 25.390625 -1.421875 
z
M 13.921875 21 
Q 13.921875 13.578125 17.015625 9.890625 
Q 20.125 6.203125 26.421875 6.203125 
Q 35.453125 6.203125 41.375 14.078125 
Q 47.3125 21.96875 47.3125 34.078125 
Q 47.3125 41.15625 44.140625 44.765625 
Q 40.96875 48.390625 34.8125 48.390625 
Q 29.734375 48.390625 25.78125 46.015625 
Q 21.828125 43.65625 18.703125 38.8125 
Q 16.40625 35.203125 15.15625 30.5625 
Q 13.921875 25.921875 13.921875 21 
z
" id="DejaVuSans-Oblique-111"/>
      <path d="M 30.609375 48.390625 
Q 23.390625 48.390625 19.1875 42.75 
Q 14.984375 37.109375 14.984375 27.296875 
Q 14.984375 17.484375 19.15625 11.84375 
Q 23.34375 6.203125 30.609375 6.203125 
Q 37.796875 6.203125 41.984375 11.859375 
Q 46.1875 17.53125 46.1875 27.296875 
Q 46.1875 37.015625 41.984375 42.703125 
Q 37.796875 48.390625 30.609375 48.390625 
z
M 30.609375 56 
Q 42.328125 56 49.015625 48.375 
Q 55.71875 40.765625 55.71875 27.296875 
Q 55.71875 13.875 49.015625 6.21875 
Q 42.328125 -1.421875 30.609375 -1.421875 
Q 18.84375 -1.421875 12.171875 6.21875 
Q 5.515625 13.875 5.515625 27.296875 
Q 5.515625 40.765625 12.171875 48.375 
Q 18.84375 56 30.609375 56 
z
" id="DejaVuSans-111"/>
      <path d="M 45.40625 46.390625 
L 45.40625 75.984375 
L 54.390625 75.984375 
L 54.390625 0 
L 45.40625 0 
L 45.40625 8.203125 
Q 42.578125 3.328125 38.25 0.953125 
Q 33.9375 -1.421875 27.875 -1.421875 
Q 17.96875 -1.421875 11.734375 6.484375 
Q 5.515625 14.40625 5.515625 27.296875 
Q 5.515625 40.1875 11.734375 48.09375 
Q 17.96875 56 27.875 56 
Q 33.9375 56 38.25 53.625 
Q 42.578125 51.265625 45.40625 46.390625 
z
M 14.796875 27.296875 
Q 14.796875 17.390625 18.875 11.75 
Q 22.953125 6.109375 30.078125 6.109375 
Q 37.203125 6.109375 41.296875 11.75 
Q 45.40625 17.390625 45.40625 27.296875 
Q 45.40625 37.203125 41.296875 42.84375 
Q 37.203125 48.484375 30.078125 48.484375 
Q 22.953125 48.484375 18.875 42.84375 
Q 14.796875 37.203125 14.796875 27.296875 
z
" id="DejaVuSans-100"/>
      <path d="M 9.421875 75.984375 
L 18.40625 75.984375 
L 18.40625 0 
L 9.421875 0 
z
" id="DejaVuSans-108"/>
     </defs>
     <g transform="translate(142.282812 53.59625)scale(0.1 -0.1)">
      <use transform="translate(0 0.015625)" xlink:href="#DejaVuSans-Oblique-65"/>
      <use transform="translate(68.408203 0.015625)" xlink:href="#DejaVuSans-Oblique-112"/>
      <use transform="translate(131.884766 0.015625)" xlink:href="#DejaVuSans-Oblique-114"/>
      <use transform="translate(172.998047 0.015625)" xlink:href="#DejaVuSans-Oblique-105"/>
      <use transform="translate(200.78125 0.015625)" xlink:href="#DejaVuSans-Oblique-111"/>
      <use transform="translate(261.962891 0.015625)" xlink:href="#DejaVuSans-Oblique-114"/>
      <use transform="translate(303.076172 0.015625)" xlink:href="#DejaVuSans-Oblique-105"/>
      <use transform="translate(330.859375 0.015625)" xlink:href="#DejaVuSans-32"/>
      <use transform="translate(362.646484 0.015625)" xlink:href="#DejaVuSans-109"/>
      <use transform="translate(460.058594 0.015625)" xlink:href="#DejaVuSans-111"/>
      <use transform="translate(521.240234 0.015625)" xlink:href="#DejaVuSans-100"/>
      <use transform="translate(584.716797 0.015625)" xlink:href="#DejaVuSans-101"/>
      <use transform="translate(646.240234 0.015625)" xlink:href="#DejaVuSans-108"/>
     </g>
    </g>
    <g id="line2d_30"/>
    <g id="line2d_31">
     <g>
      <use style="stroke:#000000;" x="124.282812" xlink:href="#mfd2a12e2dc" y="64.794688"/>
     </g>
    </g>
    <g id="text_20">
     <!-- Experimental Data -->
     <defs>
      <path d="M 34.28125 27.484375 
Q 23.390625 27.484375 19.1875 25 
Q 14.984375 22.515625 14.984375 16.5 
Q 14.984375 11.71875 18.140625 8.90625 
Q 21.296875 6.109375 26.703125 6.109375 
Q 34.1875 6.109375 38.703125 11.40625 
Q 43.21875 16.703125 43.21875 25.484375 
L 43.21875 27.484375 
z
M 52.203125 31.203125 
L 52.203125 0 
L 43.21875 0 
L 43.21875 8.296875 
Q 40.140625 3.328125 35.546875 0.953125 
Q 30.953125 -1.421875 24.3125 -1.421875 
Q 15.921875 -1.421875 10.953125 3.296875 
Q 6 8.015625 6 15.921875 
Q 6 25.140625 12.171875 29.828125 
Q 18.359375 34.515625 30.609375 34.515625 
L 43.21875 34.515625 
L 43.21875 35.40625 
Q 43.21875 41.609375 39.140625 45 
Q 35.0625 48.390625 27.6875 48.390625 
Q 23 48.390625 18.546875 47.265625 
Q 14.109375 46.140625 10.015625 43.890625 
L 10.015625 52.203125 
Q 14.9375 54.109375 19.578125 55.046875 
Q 24.21875 56 28.609375 56 
Q 40.484375 56 46.34375 49.84375 
Q 52.203125 43.703125 52.203125 31.203125 
z
" id="DejaVuSans-97"/>
      <path d="M 19.671875 64.796875 
L 19.671875 8.109375 
L 31.59375 8.109375 
Q 46.6875 8.109375 53.6875 14.9375 
Q 60.6875 21.78125 60.6875 36.53125 
Q 60.6875 51.171875 53.6875 57.984375 
Q 46.6875 64.796875 31.59375 64.796875 
z
M 9.8125 72.90625 
L 30.078125 72.90625 
Q 51.265625 72.90625 61.171875 64.09375 
Q 71.09375 55.28125 71.09375 36.53125 
Q 71.09375 17.671875 61.125 8.828125 
Q 51.171875 0 30.078125 0 
L 9.8125 0 
z
" id="DejaVuSans-68"/>
     </defs>
     <g transform="translate(142.282812 68.294688)scale(0.1 -0.1)">
      <use xlink:href="#DejaVuSans-69"/>
      <use x="63.183594" xlink:href="#DejaVuSans-120"/>
      <use x="122.363281" xlink:href="#DejaVuSans-112"/>
      <use x="185.839844" xlink:href="#DejaVuSans-101"/>
      <use x="247.363281" xlink:href="#DejaVuSans-114"/>
      <use x="288.476562" xlink:href="#DejaVuSans-105"/>
      <use x="316.259766" xlink:href="#DejaVuSans-109"/>
      <use x="413.671875" xlink:href="#DejaVuSans-101"/>
      <use x="475.195312" xlink:href="#DejaVuSans-110"/>
      <use x="538.574219" xlink:href="#DejaVuSans-116"/>
      <use x="577.783203" xlink:href="#DejaVuSans-97"/>
      <use x="639.0625" xlink:href="#DejaVuSans-108"/>
      <use x="666.845703" xlink:href="#DejaVuSans-32"/>
      <use x="698.632812" xlink:href="#DejaVuSans-68"/>
      <use x="775.634766" xlink:href="#DejaVuSans-97"/>
      <use x="836.914062" xlink:href="#DejaVuSans-116"/>
      <use x="876.123047" xlink:href="#DejaVuSans-97"/>
     </g>
    </g>
    <g id="line2d_32">
     <path d="M 114.282812 79.472813 
L 134.282812 79.472813 
" style="fill:none;stroke:#ffffff;stroke-linecap:square;stroke-width:1.5;"/>
    </g>
    <g id="line2d_33"/>
    <g id="text_21">
     <!-- T:1108 -->
     <defs>
      <path d="M 11.71875 12.40625 
L 22.015625 12.40625 
L 22.015625 0 
L 11.71875 0 
z
M 11.71875 51.703125 
L 22.015625 51.703125 
L 22.015625 39.3125 
L 11.71875 39.3125 
z
" id="DejaVuSans-58"/>
     </defs>
     <g transform="translate(142.282812 82.972813)scale(0.1 -0.1)">
      <use xlink:href="#DejaVuSans-84"/>
      <use x="60.912109" xlink:href="#DejaVuSans-58"/>
      <use x="94.603516" xlink:href="#DejaVuSans-49"/>
      <use x="158.226562" xlink:href="#DejaVuSans-49"/>
      <use x="221.849609" xlink:href="#DejaVuSans-48"/>
      <use x="285.472656" xlink:href="#DejaVuSans-56"/>
     </g>
    </g>
    <g id="line2d_34">
     <path d="M 114.282812 94.150937 
L 134.282812 94.150937 
" style="fill:none;stroke:#ffffff;stroke-linecap:square;stroke-width:1.5;"/>
    </g>
    <g id="line2d_35"/>
    <g id="text_22">
     <!-- P:1.774 -->
     <defs>
      <path d="M 19.671875 64.796875 
L 19.671875 37.40625 
L 32.078125 37.40625 
Q 38.96875 37.40625 42.71875 40.96875 
Q 46.484375 44.53125 46.484375 51.125 
Q 46.484375 57.671875 42.71875 61.234375 
Q 38.96875 64.796875 32.078125 64.796875 
z
M 9.8125 72.90625 
L 32.078125 72.90625 
Q 44.34375 72.90625 50.609375 67.359375 
Q 56.890625 61.8125 56.890625 51.125 
Q 56.890625 40.328125 50.609375 34.8125 
Q 44.34375 29.296875 32.078125 29.296875 
L 19.671875 29.296875 
L 19.671875 0 
L 9.8125 0 
z
" id="DejaVuSans-80"/>
      <path d="M 8.203125 72.90625 
L 55.078125 72.90625 
L 55.078125 68.703125 
L 28.609375 0 
L 18.3125 0 
L 43.21875 64.59375 
L 8.203125 64.59375 
z
" id="DejaVuSans-55"/>
     </defs>
     <g transform="translate(142.282812 97.650937)scale(0.1 -0.1)">
      <use xlink:href="#DejaVuSans-80"/>
      <use x="60.302734" xlink:href="#DejaVuSans-58"/>
      <use x="93.994141" xlink:href="#DejaVuSans-49"/>
      <use x="157.617188" xlink:href="#DejaVuSans-46"/>
      <use x="189.404297" xlink:href="#DejaVuSans-55"/>
      <use x="253.027344" xlink:href="#DejaVuSans-55"/>
      <use x="316.650391" xlink:href="#DejaVuSans-52"/>
     </g>
    </g>
    <g id="line2d_36">
     <path d="M 256.023438 35.416562 
L 276.023438 35.416562 
" style="fill:none;stroke:#ffffff;stroke-linecap:square;stroke-width:1.5;"/>
    </g>
    <g id="line2d_37"/>
    <g id="text_23">
     <!-- H2O2: 0.001611 -->
     <g transform="translate(284.023438 38.916562)scale(0.1 -0.1)">
      <use xlink:href="#DejaVuSans-72"/>
      <use x="75.195312" xlink:href="#DejaVuSans-50"/>
      <use x="138.818359" xlink:href="#DejaVuSans-79"/>
      <use x="217.529297" xlink:href="#DejaVuSans-50"/>
      <use x="281.152344" xlink:href="#DejaVuSans-58"/>
      <use x="314.84375" xlink:href="#DejaVuSans-32"/>
      <use x="346.630859" xlink:href="#DejaVuSans-48"/>
      <use x="410.253906" xlink:href="#DejaVuSans-46"/>
      <use x="442.041016" xlink:href="#DejaVuSans-48"/>
      <use x="505.664062" xlink:href="#DejaVuSans-48"/>
      <use x="569.287109" xlink:href="#DejaVuSans-49"/>
      <use x="632.910156" xlink:href="#DejaVuSans-54"/>
      <use x="696.533203" xlink:href="#DejaVuSans-49"/>
      <use x="760.15625" xlink:href="#DejaVuSans-49"/>
     </g>
    </g>
    <g id="line2d_38">
     <path d="M 256.023438 50.094687 
L 276.023438 50.094687 
" style="fill:none;stroke:#ffffff;stroke-linecap:square;stroke-width:1.5;"/>
    </g>
    <g id="line2d_39"/>
    <g id="text_24">
     <!-- H2O: 0.001113 -->
     <g transform="translate(284.023438 53.594687)scale(0.1 -0.1)">
      <use xlink:href="#DejaVuSans-72"/>
      <use x="75.195312" xlink:href="#DejaVuSans-50"/>
      <use x="138.818359" xlink:href="#DejaVuSans-79"/>
      <use x="217.513672" xlink:href="#DejaVuSans-58"/>
      <use x="251.205078" xlink:href="#DejaVuSans-32"/>
      <use x="282.992188" xlink:href="#DejaVuSans-48"/>
      <use x="346.615234" xlink:href="#DejaVuSans-46"/>
      <use x="378.402344" xlink:href="#DejaVuSans-48"/>
      <use x="442.025391" xlink:href="#DejaVuSans-48"/>
      <use x="505.648438" xlink:href="#DejaVuSans-49"/>
      <use x="569.271484" xlink:href="#DejaVuSans-49"/>
      <use x="632.894531" xlink:href="#DejaVuSans-49"/>
      <use x="696.517578" xlink:href="#DejaVuSans-51"/>
     </g>
    </g>
    <g id="line2d_40">
     <path d="M 256.023438 64.772812 
L 276.023438 64.772812 
" style="fill:none;stroke:#ffffff;stroke-linecap:square;stroke-width:1.5;"/>
    </g>
    <g id="line2d_41"/>
    <g id="text_25">
     <!-- O2: 0.000556 -->
     <g transform="translate(284.023438 68.272812)scale(0.1 -0.1)">
      <use xlink:href="#DejaVuSans-79"/>
      <use x="78.710938" xlink:href="#DejaVuSans-50"/>
      <use x="142.333984" xlink:href="#DejaVuSans-58"/>
      <use x="176.025391" xlink:href="#DejaVuSans-32"/>
      <use x="207.8125" xlink:href="#DejaVuSans-48"/>
      <use x="271.435547" xlink:href="#DejaVuSans-46"/>
      <use x="303.222656" xlink:href="#DejaVuSans-48"/>
      <use x="366.845703" xlink:href="#DejaVuSans-48"/>
      <use x="430.46875" xlink:href="#DejaVuSans-48"/>
      <use x="494.091797" xlink:href="#DejaVuSans-53"/>
      <use x="557.714844" xlink:href="#DejaVuSans-53"/>
      <use x="621.337891" xlink:href="#DejaVuSans-54"/>
     </g>
    </g>
    <g id="line2d_42">
     <path d="M 256.023438 79.450938 
L 276.023438 79.450938 
" style="fill:none;stroke:#ffffff;stroke-linecap:square;stroke-width:1.5;"/>
    </g>
    <g id="line2d_43"/>
    <g id="text_26">
     <!-- Ar: 0.991716 -->
     <defs>
      <path d="M 34.1875 63.1875 
L 20.796875 26.90625 
L 47.609375 26.90625 
z
M 28.609375 72.90625 
L 39.796875 72.90625 
L 67.578125 0 
L 57.328125 0 
L 50.6875 18.703125 
L 17.828125 18.703125 
L 11.1875 0 
L 0.78125 0 
z
" id="DejaVuSans-65"/>
      <path d="M 10.984375 1.515625 
L 10.984375 10.5 
Q 14.703125 8.734375 18.5 7.8125 
Q 22.3125 6.890625 25.984375 6.890625 
Q 35.75 6.890625 40.890625 13.453125 
Q 46.046875 20.015625 46.78125 33.40625 
Q 43.953125 29.203125 39.59375 26.953125 
Q 35.25 24.703125 29.984375 24.703125 
Q 19.046875 24.703125 12.671875 31.3125 
Q 6.296875 37.9375 6.296875 49.421875 
Q 6.296875 60.640625 12.9375 67.421875 
Q 19.578125 74.21875 30.609375 74.21875 
Q 43.265625 74.21875 49.921875 64.515625 
Q 56.59375 54.828125 56.59375 36.375 
Q 56.59375 19.140625 48.40625 8.859375 
Q 40.234375 -1.421875 26.421875 -1.421875 
Q 22.703125 -1.421875 18.890625 -0.6875 
Q 15.09375 0.046875 10.984375 1.515625 
z
M 30.609375 32.421875 
Q 37.25 32.421875 41.125 36.953125 
Q 45.015625 41.5 45.015625 49.421875 
Q 45.015625 57.28125 41.125 61.84375 
Q 37.25 66.40625 30.609375 66.40625 
Q 23.96875 66.40625 20.09375 61.84375 
Q 16.21875 57.28125 16.21875 49.421875 
Q 16.21875 41.5 20.09375 36.953125 
Q 23.96875 32.421875 30.609375 32.421875 
z
" id="DejaVuSans-57"/>
     </defs>
     <g transform="translate(284.023438 82.950938)scale(0.1 -0.1)">
      <use xlink:href="#DejaVuSans-65"/>
      <use x="68.408203" xlink:href="#DejaVuSans-114"/>
      <use x="109.505859" xlink:href="#DejaVuSans-58"/>
      <use x="143.197266" xlink:href="#DejaVuSans-32"/>
      <use x="174.984375" xlink:href="#DejaVuSans-48"/>
      <use x="238.607422" xlink:href="#DejaVuSans-46"/>
      <use x="270.394531" xlink:href="#DejaVuSans-57"/>
      <use x="334.017578" xlink:href="#DejaVuSans-57"/>
      <use x="397.640625" xlink:href="#DejaVuSans-49"/>
      <use x="461.263672" xlink:href="#DejaVuSans-55"/>
      <use x="524.886719" xlink:href="#DejaVuSans-49"/>
      <use x="588.509766" xlink:href="#DejaVuSans-54"/>
     </g>
    </g>
   </g>
  </g>
 </g>
 <defs>
  <clipPath id="p0f9c03cf6e">
   <rect height="217.44" width="334.8" x="40.603125" y="22.318125"/>
  </clipPath>
 </defs>
</svg>
