<?xml version="1.0" encoding="utf-8" standalone="no"?>
<!DOCTYPE svg PUBLIC "-//W3C//DTD SVG 1.1//EN"
  "http://www.w3.org/Graphics/SVG/1.1/DTD/svg11.dtd">
<!-- Created with matplotlib (https://matplotlib.org/) -->
<svg height="277.314375pt" version="1.1" viewBox="0 0 398.828125 277.314375" width="398.828125pt" xmlns="http://www.w3.org/2000/svg" xmlns:xlink="http://www.w3.org/1999/xlink">
 <defs>
  <style type="text/css">
*{stroke-linecap:butt;stroke-linejoin:round;}
  </style>
 </defs>
 <g id="figure_1">
  <g id="patch_1">
   <path d="M 0 277.314375 
L 398.828125 277.314375 
L 398.828125 0 
L 0 0 
z
" style="fill:none;"/>
  </g>
  <g id="axes_1">
   <g id="patch_2">
    <path d="M 53.328125 239.758125 
L 388.128125 239.758125 
L 388.128125 22.318125 
L 53.328125 22.318125 
z
" style="fill:none;"/>
   </g>
   <g id="matplotlib.axis_1">
    <g id="xtick_1">
     <g id="line2d_1">
      <defs>
       <path d="M 0 0 
L 0 3.5 
" id="m39c928d23a" style="stroke:#000000;stroke-width:0.8;"/>
      </defs>
      <g>
       <use style="stroke:#000000;stroke-width:0.8;" x="68.546307" xlink:href="#m39c928d23a" y="239.758125"/>
      </g>
     </g>
     <g id="text_1">
      <!-- 0.0 -->
      <defs>
       <path d="M 31.78125 66.40625 
Q 24.171875 66.40625 20.328125 58.90625 
Q 16.5 51.421875 16.5 36.375 
Q 16.5 21.390625 20.328125 13.890625 
Q 24.171875 6.390625 31.78125 6.390625 
Q 39.453125 6.390625 43.28125 13.890625 
Q 47.125 21.390625 47.125 36.375 
Q 47.125 51.421875 43.28125 58.90625 
Q 39.453125 66.40625 31.78125 66.40625 
z
M 31.78125 74.21875 
Q 44.046875 74.21875 50.515625 64.515625 
Q 56.984375 54.828125 56.984375 36.375 
Q 56.984375 17.96875 50.515625 8.265625 
Q 44.046875 -1.421875 31.78125 -1.421875 
Q 19.53125 -1.421875 13.0625 8.265625 
Q 6.59375 17.96875 6.59375 36.375 
Q 6.59375 54.828125 13.0625 64.515625 
Q 19.53125 74.21875 31.78125 74.21875 
z
" id="DejaVuSans-48"/>
       <path d="M 10.6875 12.40625 
L 21 12.40625 
L 21 0 
L 10.6875 0 
z
" id="DejaVuSans-46"/>
      </defs>
      <g transform="translate(60.594744 254.356562)scale(0.1 -0.1)">
       <use xlink:href="#DejaVuSans-48"/>
       <use x="63.623047" xlink:href="#DejaVuSans-46"/>
       <use x="95.410156" xlink:href="#DejaVuSans-48"/>
      </g>
     </g>
    </g>
    <g id="xtick_2">
     <g id="line2d_2">
      <g>
       <use style="stroke:#000000;stroke-width:0.8;" x="129.012587" xlink:href="#m39c928d23a" y="239.758125"/>
      </g>
     </g>
     <g id="text_2">
      <!-- 0.2 -->
      <defs>
       <path d="M 19.1875 8.296875 
L 53.609375 8.296875 
L 53.609375 0 
L 7.328125 0 
L 7.328125 8.296875 
Q 12.9375 14.109375 22.625 23.890625 
Q 32.328125 33.6875 34.8125 36.53125 
Q 39.546875 41.84375 41.421875 45.53125 
Q 43.3125 49.21875 43.3125 52.78125 
Q 43.3125 58.59375 39.234375 62.25 
Q 35.15625 65.921875 28.609375 65.921875 
Q 23.96875 65.921875 18.8125 64.3125 
Q 13.671875 62.703125 7.8125 59.421875 
L 7.8125 69.390625 
Q 13.765625 71.78125 18.9375 73 
Q 24.125 74.21875 28.421875 74.21875 
Q 39.75 74.21875 46.484375 68.546875 
Q 53.21875 62.890625 53.21875 53.421875 
Q 53.21875 48.921875 51.53125 44.890625 
Q 49.859375 40.875 45.40625 35.40625 
Q 44.1875 33.984375 37.640625 27.21875 
Q 31.109375 20.453125 19.1875 8.296875 
z
" id="DejaVuSans-50"/>
      </defs>
      <g transform="translate(121.061024 254.356562)scale(0.1 -0.1)">
       <use xlink:href="#DejaVuSans-48"/>
       <use x="63.623047" xlink:href="#DejaVuSans-46"/>
       <use x="95.410156" xlink:href="#DejaVuSans-50"/>
      </g>
     </g>
    </g>
    <g id="xtick_3">
     <g id="line2d_3">
      <g>
       <use style="stroke:#000000;stroke-width:0.8;" x="189.478867" xlink:href="#m39c928d23a" y="239.758125"/>
      </g>
     </g>
     <g id="text_3">
      <!-- 0.4 -->
      <defs>
       <path d="M 37.796875 64.3125 
L 12.890625 25.390625 
L 37.796875 25.390625 
z
M 35.203125 72.90625 
L 47.609375 72.90625 
L 47.609375 25.390625 
L 58.015625 25.390625 
L 58.015625 17.1875 
L 47.609375 17.1875 
L 47.609375 0 
L 37.796875 0 
L 37.796875 17.1875 
L 4.890625 17.1875 
L 4.890625 26.703125 
z
" id="DejaVuSans-52"/>
      </defs>
      <g transform="translate(181.527305 254.356562)scale(0.1 -0.1)">
       <use xlink:href="#DejaVuSans-48"/>
       <use x="63.623047" xlink:href="#DejaVuSans-46"/>
       <use x="95.410156" xlink:href="#DejaVuSans-52"/>
      </g>
     </g>
    </g>
    <g id="xtick_4">
     <g id="line2d_4">
      <g>
       <use style="stroke:#000000;stroke-width:0.8;" x="249.945147" xlink:href="#m39c928d23a" y="239.758125"/>
      </g>
     </g>
     <g id="text_4">
      <!-- 0.6 -->
      <defs>
       <path d="M 33.015625 40.375 
Q 26.375 40.375 22.484375 35.828125 
Q 18.609375 31.296875 18.609375 23.390625 
Q 18.609375 15.53125 22.484375 10.953125 
Q 26.375 6.390625 33.015625 6.390625 
Q 39.65625 6.390625 43.53125 10.953125 
Q 47.40625 15.53125 47.40625 23.390625 
Q 47.40625 31.296875 43.53125 35.828125 
Q 39.65625 40.375 33.015625 40.375 
z
M 52.59375 71.296875 
L 52.59375 62.3125 
Q 48.875 64.0625 45.09375 64.984375 
Q 41.3125 65.921875 37.59375 65.921875 
Q 27.828125 65.921875 22.671875 59.328125 
Q 17.53125 52.734375 16.796875 39.40625 
Q 19.671875 43.65625 24.015625 45.921875 
Q 28.375 48.1875 33.59375 48.1875 
Q 44.578125 48.1875 50.953125 41.515625 
Q 57.328125 34.859375 57.328125 23.390625 
Q 57.328125 12.15625 50.6875 5.359375 
Q 44.046875 -1.421875 33.015625 -1.421875 
Q 20.359375 -1.421875 13.671875 8.265625 
Q 6.984375 17.96875 6.984375 36.375 
Q 6.984375 53.65625 15.1875 63.9375 
Q 23.390625 74.21875 37.203125 74.21875 
Q 40.921875 74.21875 44.703125 73.484375 
Q 48.484375 72.75 52.59375 71.296875 
z
" id="DejaVuSans-54"/>
      </defs>
      <g transform="translate(241.993585 254.356562)scale(0.1 -0.1)">
       <use xlink:href="#DejaVuSans-48"/>
       <use x="63.623047" xlink:href="#DejaVuSans-46"/>
       <use x="95.410156" xlink:href="#DejaVuSans-54"/>
      </g>
     </g>
    </g>
    <g id="xtick_5">
     <g id="line2d_5">
      <g>
       <use style="stroke:#000000;stroke-width:0.8;" x="310.411427" xlink:href="#m39c928d23a" y="239.758125"/>
      </g>
     </g>
     <g id="text_5">
      <!-- 0.8 -->
      <defs>
       <path d="M 31.78125 34.625 
Q 24.75 34.625 20.71875 30.859375 
Q 16.703125 27.09375 16.703125 20.515625 
Q 16.703125 13.921875 20.71875 10.15625 
Q 24.75 6.390625 31.78125 6.390625 
Q 38.8125 6.390625 42.859375 10.171875 
Q 46.921875 13.96875 46.921875 20.515625 
Q 46.921875 27.09375 42.890625 30.859375 
Q 38.875 34.625 31.78125 34.625 
z
M 21.921875 38.8125 
Q 15.578125 40.375 12.03125 44.71875 
Q 8.5 49.078125 8.5 55.328125 
Q 8.5 64.0625 14.71875 69.140625 
Q 20.953125 74.21875 31.78125 74.21875 
Q 42.671875 74.21875 48.875 69.140625 
Q 55.078125 64.0625 55.078125 55.328125 
Q 55.078125 49.078125 51.53125 44.71875 
Q 48 40.375 41.703125 38.8125 
Q 48.828125 37.15625 52.796875 32.3125 
Q 56.78125 27.484375 56.78125 20.515625 
Q 56.78125 9.90625 50.3125 4.234375 
Q 43.84375 -1.421875 31.78125 -1.421875 
Q 19.734375 -1.421875 13.25 4.234375 
Q 6.78125 9.90625 6.78125 20.515625 
Q 6.78125 27.484375 10.78125 32.3125 
Q 14.796875 37.15625 21.921875 38.8125 
z
M 18.3125 54.390625 
Q 18.3125 48.734375 21.84375 45.5625 
Q 25.390625 42.390625 31.78125 42.390625 
Q 38.140625 42.390625 41.71875 45.5625 
Q 45.3125 48.734375 45.3125 54.390625 
Q 45.3125 60.0625 41.71875 63.234375 
Q 38.140625 66.40625 31.78125 66.40625 
Q 25.390625 66.40625 21.84375 63.234375 
Q 18.3125 60.0625 18.3125 54.390625 
z
" id="DejaVuSans-56"/>
      </defs>
      <g transform="translate(302.459865 254.356562)scale(0.1 -0.1)">
       <use xlink:href="#DejaVuSans-48"/>
       <use x="63.623047" xlink:href="#DejaVuSans-46"/>
       <use x="95.410156" xlink:href="#DejaVuSans-56"/>
      </g>
     </g>
    </g>
    <g id="xtick_6">
     <g id="line2d_6">
      <g>
       <use style="stroke:#000000;stroke-width:0.8;" x="370.877708" xlink:href="#m39c928d23a" y="239.758125"/>
      </g>
     </g>
     <g id="text_6">
      <!-- 1.0 -->
      <defs>
       <path d="M 12.40625 8.296875 
L 28.515625 8.296875 
L 28.515625 63.921875 
L 10.984375 60.40625 
L 10.984375 69.390625 
L 28.421875 72.90625 
L 38.28125 72.90625 
L 38.28125 8.296875 
L 54.390625 8.296875 
L 54.390625 0 
L 12.40625 0 
z
" id="DejaVuSans-49"/>
      </defs>
      <g transform="translate(362.926145 254.356562)scale(0.1 -0.1)">
       <use xlink:href="#DejaVuSans-49"/>
       <use x="63.623047" xlink:href="#DejaVuSans-46"/>
       <use x="95.410156" xlink:href="#DejaVuSans-48"/>
      </g>
     </g>
    </g>
    <g id="text_7">
     <!-- Time (ms) -->
     <defs>
      <path d="M -0.296875 72.90625 
L 61.375 72.90625 
L 61.375 64.59375 
L 35.5 64.59375 
L 35.5 0 
L 25.59375 0 
L 25.59375 64.59375 
L -0.296875 64.59375 
z
" id="DejaVuSans-84"/>
      <path d="M 9.421875 54.6875 
L 18.40625 54.6875 
L 18.40625 0 
L 9.421875 0 
z
M 9.421875 75.984375 
L 18.40625 75.984375 
L 18.40625 64.59375 
L 9.421875 64.59375 
z
" id="DejaVuSans-105"/>
      <path d="M 52 44.1875 
Q 55.375 50.25 60.0625 53.125 
Q 64.75 56 71.09375 56 
Q 79.640625 56 84.28125 50.015625 
Q 88.921875 44.046875 88.921875 33.015625 
L 88.921875 0 
L 79.890625 0 
L 79.890625 32.71875 
Q 79.890625 40.578125 77.09375 44.375 
Q 74.3125 48.1875 68.609375 48.1875 
Q 61.625 48.1875 57.5625 43.546875 
Q 53.515625 38.921875 53.515625 30.90625 
L 53.515625 0 
L 44.484375 0 
L 44.484375 32.71875 
Q 44.484375 40.625 41.703125 44.40625 
Q 38.921875 48.1875 33.109375 48.1875 
Q 26.21875 48.1875 22.15625 43.53125 
Q 18.109375 38.875 18.109375 30.90625 
L 18.109375 0 
L 9.078125 0 
L 9.078125 54.6875 
L 18.109375 54.6875 
L 18.109375 46.1875 
Q 21.1875 51.21875 25.484375 53.609375 
Q 29.78125 56 35.6875 56 
Q 41.65625 56 45.828125 52.96875 
Q 50 49.953125 52 44.1875 
z
" id="DejaVuSans-109"/>
      <path d="M 56.203125 29.59375 
L 56.203125 25.203125 
L 14.890625 25.203125 
Q 15.484375 15.921875 20.484375 11.0625 
Q 25.484375 6.203125 34.421875 6.203125 
Q 39.59375 6.203125 44.453125 7.46875 
Q 49.3125 8.734375 54.109375 11.28125 
L 54.109375 2.78125 
Q 49.265625 0.734375 44.1875 -0.34375 
Q 39.109375 -1.421875 33.890625 -1.421875 
Q 20.796875 -1.421875 13.15625 6.1875 
Q 5.515625 13.8125 5.515625 26.8125 
Q 5.515625 40.234375 12.765625 48.109375 
Q 20.015625 56 32.328125 56 
Q 43.359375 56 49.78125 48.890625 
Q 56.203125 41.796875 56.203125 29.59375 
z
M 47.21875 32.234375 
Q 47.125 39.59375 43.09375 43.984375 
Q 39.0625 48.390625 32.421875 48.390625 
Q 24.90625 48.390625 20.390625 44.140625 
Q 15.875 39.890625 15.1875 32.171875 
z
" id="DejaVuSans-101"/>
      <path id="DejaVuSans-32"/>
      <path d="M 31 75.875 
Q 24.46875 64.65625 21.28125 53.65625 
Q 18.109375 42.671875 18.109375 31.390625 
Q 18.109375 20.125 21.3125 9.0625 
Q 24.515625 -2 31 -13.1875 
L 23.1875 -13.1875 
Q 15.875 -1.703125 12.234375 9.375 
Q 8.59375 20.453125 8.59375 31.390625 
Q 8.59375 42.28125 12.203125 53.3125 
Q 15.828125 64.359375 23.1875 75.875 
z
" id="DejaVuSans-40"/>
      <path d="M 44.28125 53.078125 
L 44.28125 44.578125 
Q 40.484375 46.53125 36.375 47.5 
Q 32.28125 48.484375 27.875 48.484375 
Q 21.1875 48.484375 17.84375 46.4375 
Q 14.5 44.390625 14.5 40.28125 
Q 14.5 37.15625 16.890625 35.375 
Q 19.28125 33.59375 26.515625 31.984375 
L 29.59375 31.296875 
Q 39.15625 29.25 43.1875 25.515625 
Q 47.21875 21.78125 47.21875 15.09375 
Q 47.21875 7.46875 41.1875 3.015625 
Q 35.15625 -1.421875 24.609375 -1.421875 
Q 20.21875 -1.421875 15.453125 -0.5625 
Q 10.6875 0.296875 5.421875 2 
L 5.421875 11.28125 
Q 10.40625 8.6875 15.234375 7.390625 
Q 20.0625 6.109375 24.8125 6.109375 
Q 31.15625 6.109375 34.5625 8.28125 
Q 37.984375 10.453125 37.984375 14.40625 
Q 37.984375 18.0625 35.515625 20.015625 
Q 33.0625 21.96875 24.703125 23.78125 
L 21.578125 24.515625 
Q 13.234375 26.265625 9.515625 29.90625 
Q 5.8125 33.546875 5.8125 39.890625 
Q 5.8125 47.609375 11.28125 51.796875 
Q 16.75 56 26.8125 56 
Q 31.78125 56 36.171875 55.265625 
Q 40.578125 54.546875 44.28125 53.078125 
z
" id="DejaVuSans-115"/>
      <path d="M 8.015625 75.875 
L 15.828125 75.875 
Q 23.140625 64.359375 26.78125 53.3125 
Q 30.421875 42.28125 30.421875 31.390625 
Q 30.421875 20.453125 26.78125 9.375 
Q 23.140625 -1.703125 15.828125 -13.1875 
L 8.015625 -13.1875 
Q 14.5 -2 17.703125 9.0625 
Q 20.90625 20.125 20.90625 31.390625 
Q 20.90625 42.671875 17.703125 53.65625 
Q 14.5 64.65625 8.015625 75.875 
z
" id="DejaVuSans-41"/>
     </defs>
     <g transform="translate(195.375 268.034687)scale(0.1 -0.1)">
      <use xlink:href="#DejaVuSans-84"/>
      <use x="61.037109" xlink:href="#DejaVuSans-105"/>
      <use x="88.820312" xlink:href="#DejaVuSans-109"/>
      <use x="186.232422" xlink:href="#DejaVuSans-101"/>
      <use x="247.755859" xlink:href="#DejaVuSans-32"/>
      <use x="279.542969" xlink:href="#DejaVuSans-40"/>
      <use x="318.556641" xlink:href="#DejaVuSans-109"/>
      <use x="415.96875" xlink:href="#DejaVuSans-115"/>
      <use x="468.068359" xlink:href="#DejaVuSans-41"/>
     </g>
    </g>
   </g>
   <g id="matplotlib.axis_2">
    <g id="ytick_1">
     <g id="line2d_7">
      <defs>
       <path d="M 0 0 
L -3.5 0 
" id="me66057c065" style="stroke:#000000;stroke-width:0.8;"/>
      </defs>
      <g>
       <use style="stroke:#000000;stroke-width:0.8;" x="53.328125" xlink:href="#me66057c065" y="234.085816"/>
      </g>
     </g>
     <g id="text_8">
      <!-- 1000 -->
      <g transform="translate(20.878125 237.885035)scale(0.1 -0.1)">
       <use xlink:href="#DejaVuSans-49"/>
       <use x="63.623047" xlink:href="#DejaVuSans-48"/>
       <use x="127.246094" xlink:href="#DejaVuSans-48"/>
       <use x="190.869141" xlink:href="#DejaVuSans-48"/>
      </g>
     </g>
    </g>
    <g id="ytick_2">
     <g id="line2d_8">
      <g>
       <use style="stroke:#000000;stroke-width:0.8;" x="53.328125" xlink:href="#me66057c065" y="203.417568"/>
      </g>
     </g>
     <g id="text_9">
      <!-- 1500 -->
      <defs>
       <path d="M 10.796875 72.90625 
L 49.515625 72.90625 
L 49.515625 64.59375 
L 19.828125 64.59375 
L 19.828125 46.734375 
Q 21.96875 47.46875 24.109375 47.828125 
Q 26.265625 48.1875 28.421875 48.1875 
Q 40.625 48.1875 47.75 41.5 
Q 54.890625 34.8125 54.890625 23.390625 
Q 54.890625 11.625 47.5625 5.09375 
Q 40.234375 -1.421875 26.90625 -1.421875 
Q 22.3125 -1.421875 17.546875 -0.640625 
Q 12.796875 0.140625 7.71875 1.703125 
L 7.71875 11.625 
Q 12.109375 9.234375 16.796875 8.0625 
Q 21.484375 6.890625 26.703125 6.890625 
Q 35.15625 6.890625 40.078125 11.328125 
Q 45.015625 15.765625 45.015625 23.390625 
Q 45.015625 31 40.078125 35.4375 
Q 35.15625 39.890625 26.703125 39.890625 
Q 22.75 39.890625 18.8125 39.015625 
Q 14.890625 38.140625 10.796875 36.28125 
z
" id="DejaVuSans-53"/>
      </defs>
      <g transform="translate(20.878125 207.216786)scale(0.1 -0.1)">
       <use xlink:href="#DejaVuSans-49"/>
       <use x="63.623047" xlink:href="#DejaVuSans-53"/>
       <use x="127.246094" xlink:href="#DejaVuSans-48"/>
       <use x="190.869141" xlink:href="#DejaVuSans-48"/>
      </g>
     </g>
    </g>
    <g id="ytick_3">
     <g id="line2d_9">
      <g>
       <use style="stroke:#000000;stroke-width:0.8;" x="53.328125" xlink:href="#me66057c065" y="172.749319"/>
      </g>
     </g>
     <g id="text_10">
      <!-- 2000 -->
      <g transform="translate(20.878125 176.548538)scale(0.1 -0.1)">
       <use xlink:href="#DejaVuSans-50"/>
       <use x="63.623047" xlink:href="#DejaVuSans-48"/>
       <use x="127.246094" xlink:href="#DejaVuSans-48"/>
       <use x="190.869141" xlink:href="#DejaVuSans-48"/>
      </g>
     </g>
    </g>
    <g id="ytick_4">
     <g id="line2d_10">
      <g>
       <use style="stroke:#000000;stroke-width:0.8;" x="53.328125" xlink:href="#me66057c065" y="142.08107"/>
      </g>
     </g>
     <g id="text_11">
      <!-- 2500 -->
      <g transform="translate(20.878125 145.880289)scale(0.1 -0.1)">
       <use xlink:href="#DejaVuSans-50"/>
       <use x="63.623047" xlink:href="#DejaVuSans-53"/>
       <use x="127.246094" xlink:href="#DejaVuSans-48"/>
       <use x="190.869141" xlink:href="#DejaVuSans-48"/>
      </g>
     </g>
    </g>
    <g id="ytick_5">
     <g id="line2d_11">
      <g>
       <use style="stroke:#000000;stroke-width:0.8;" x="53.328125" xlink:href="#me66057c065" y="111.412822"/>
      </g>
     </g>
     <g id="text_12">
      <!-- 3000 -->
      <defs>
       <path d="M 40.578125 39.3125 
Q 47.65625 37.796875 51.625 33 
Q 55.609375 28.21875 55.609375 21.1875 
Q 55.609375 10.40625 48.1875 4.484375 
Q 40.765625 -1.421875 27.09375 -1.421875 
Q 22.515625 -1.421875 17.65625 -0.515625 
Q 12.796875 0.390625 7.625 2.203125 
L 7.625 11.71875 
Q 11.71875 9.328125 16.59375 8.109375 
Q 21.484375 6.890625 26.8125 6.890625 
Q 36.078125 6.890625 40.9375 10.546875 
Q 45.796875 14.203125 45.796875 21.1875 
Q 45.796875 27.640625 41.28125 31.265625 
Q 36.765625 34.90625 28.71875 34.90625 
L 20.21875 34.90625 
L 20.21875 43.015625 
L 29.109375 43.015625 
Q 36.375 43.015625 40.234375 45.921875 
Q 44.09375 48.828125 44.09375 54.296875 
Q 44.09375 59.90625 40.109375 62.90625 
Q 36.140625 65.921875 28.71875 65.921875 
Q 24.65625 65.921875 20.015625 65.03125 
Q 15.375 64.15625 9.8125 62.3125 
L 9.8125 71.09375 
Q 15.4375 72.65625 20.34375 73.4375 
Q 25.25 74.21875 29.59375 74.21875 
Q 40.828125 74.21875 47.359375 69.109375 
Q 53.90625 64.015625 53.90625 55.328125 
Q 53.90625 49.265625 50.4375 45.09375 
Q 46.96875 40.921875 40.578125 39.3125 
z
" id="DejaVuSans-51"/>
      </defs>
      <g transform="translate(20.878125 115.21204)scale(0.1 -0.1)">
       <use xlink:href="#DejaVuSans-51"/>
       <use x="63.623047" xlink:href="#DejaVuSans-48"/>
       <use x="127.246094" xlink:href="#DejaVuSans-48"/>
       <use x="190.869141" xlink:href="#DejaVuSans-48"/>
      </g>
     </g>
    </g>
    <g id="ytick_6">
     <g id="line2d_12">
      <g>
       <use style="stroke:#000000;stroke-width:0.8;" x="53.328125" xlink:href="#me66057c065" y="80.744573"/>
      </g>
     </g>
     <g id="text_13">
      <!-- 3500 -->
      <g transform="translate(20.878125 84.543792)scale(0.1 -0.1)">
       <use xlink:href="#DejaVuSans-51"/>
       <use x="63.623047" xlink:href="#DejaVuSans-53"/>
       <use x="127.246094" xlink:href="#DejaVuSans-48"/>
       <use x="190.869141" xlink:href="#DejaVuSans-48"/>
      </g>
     </g>
    </g>
    <g id="ytick_7">
     <g id="line2d_13">
      <g>
       <use style="stroke:#000000;stroke-width:0.8;" x="53.328125" xlink:href="#me66057c065" y="50.076324"/>
      </g>
     </g>
     <g id="text_14">
      <!-- 4000 -->
      <g transform="translate(20.878125 53.875543)scale(0.1 -0.1)">
       <use xlink:href="#DejaVuSans-52"/>
       <use x="63.623047" xlink:href="#DejaVuSans-48"/>
       <use x="127.246094" xlink:href="#DejaVuSans-48"/>
       <use x="190.869141" xlink:href="#DejaVuSans-48"/>
      </g>
     </g>
    </g>
    <g id="text_15">
     <!-- ppmH2O -->
     <defs>
      <path d="M 18.109375 8.203125 
L 18.109375 -20.796875 
L 9.078125 -20.796875 
L 9.078125 54.6875 
L 18.109375 54.6875 
L 18.109375 46.390625 
Q 20.953125 51.265625 25.265625 53.625 
Q 29.59375 56 35.59375 56 
Q 45.5625 56 51.78125 48.09375 
Q 58.015625 40.1875 58.015625 27.296875 
Q 58.015625 14.40625 51.78125 6.484375 
Q 45.5625 -1.421875 35.59375 -1.421875 
Q 29.59375 -1.421875 25.265625 0.953125 
Q 20.953125 3.328125 18.109375 8.203125 
z
M 48.6875 27.296875 
Q 48.6875 37.203125 44.609375 42.84375 
Q 40.53125 48.484375 33.40625 48.484375 
Q 26.265625 48.484375 22.1875 42.84375 
Q 18.109375 37.203125 18.109375 27.296875 
Q 18.109375 17.390625 22.1875 11.75 
Q 26.265625 6.109375 33.40625 6.109375 
Q 40.53125 6.109375 44.609375 11.75 
Q 48.6875 17.390625 48.6875 27.296875 
z
" id="DejaVuSans-112"/>
      <path d="M 9.8125 72.90625 
L 19.671875 72.90625 
L 19.671875 43.015625 
L 55.515625 43.015625 
L 55.515625 72.90625 
L 65.375 72.90625 
L 65.375 0 
L 55.515625 0 
L 55.515625 34.71875 
L 19.671875 34.71875 
L 19.671875 0 
L 9.8125 0 
z
" id="DejaVuSans-72"/>
      <path d="M 39.40625 66.21875 
Q 28.65625 66.21875 22.328125 58.203125 
Q 16.015625 50.203125 16.015625 36.375 
Q 16.015625 22.609375 22.328125 14.59375 
Q 28.65625 6.59375 39.40625 6.59375 
Q 50.140625 6.59375 56.421875 14.59375 
Q 62.703125 22.609375 62.703125 36.375 
Q 62.703125 50.203125 56.421875 58.203125 
Q 50.140625 66.21875 39.40625 66.21875 
z
M 39.40625 74.21875 
Q 54.734375 74.21875 63.90625 63.9375 
Q 73.09375 53.65625 73.09375 36.375 
Q 73.09375 19.140625 63.90625 8.859375 
Q 54.734375 -1.421875 39.40625 -1.421875 
Q 24.03125 -1.421875 14.8125 8.828125 
Q 5.609375 19.09375 5.609375 36.375 
Q 5.609375 53.65625 14.8125 63.9375 
Q 24.03125 74.21875 39.40625 74.21875 
z
" id="DejaVuSans-79"/>
     </defs>
     <g transform="translate(14.798438 153.134219)rotate(-90)scale(0.1 -0.1)">
      <use xlink:href="#DejaVuSans-112"/>
      <use x="63.476562" xlink:href="#DejaVuSans-112"/>
      <use x="126.953125" xlink:href="#DejaVuSans-109"/>
      <use x="224.365234" xlink:href="#DejaVuSans-72"/>
      <use x="299.560547" xlink:href="#DejaVuSans-50"/>
      <use x="363.183594" xlink:href="#DejaVuSans-79"/>
     </g>
    </g>
   </g>
   <g id="line2d_14">
    <path clip-path="url(#p8ea0223505)" d="M 68.546307 225.331211 
L 68.770722 225.224742 
L 69.062361 224.807618 
L 69.48431 223.770352 
L 70.136415 221.465674 
L 71.123016 217.063379 
L 73.857914 203.408192 
L 76.746412 189.599475 
L 79.643066 176.846291 
L 82.429834 165.529457 
L 85.347881 154.605734 
L 88.075943 145.196911 
L 90.804006 136.517478 
L 93.532069 128.522176 
L 96.292085 121.083862 
L 99.063179 114.22878 
L 101.946019 107.701789 
L 105.021393 101.365542 
L 107.955745 95.873675 
L 110.88655 90.882841 
L 113.507839 86.803402 
L 116.240084 82.906119 
L 119.301441 78.933622 
L 122.012557 75.733616 
L 124.723674 72.806446 
L 127.789019 69.796739 
L 130.854364 67.076187 
L 133.919709 64.617066 
L 136.985054 62.394163 
L 140.050399 60.384587 
L 143.868262 58.148779 
L 147.230916 56.398466 
L 151.608282 54.389956 
L 156.150946 52.587122 
L 160.693609 51.030921 
L 164.984347 49.756027 
L 170.308084 48.399144 
L 175.63182 47.25335 
L 182.286491 46.066392 
L 188.941161 45.101632 
L 196.926766 44.176583 
L 206.243305 43.345413 
L 217.382591 42.611041 
L 229.957943 42.022486 
L 245.255336 41.537226 
L 265.141947 41.142205 
L 292.677254 40.838314 
L 333.980215 40.625577 
L 372.223697 40.536398 
L 372.223697 40.536398 
" style="fill:none;stroke:#0000ff;stroke-linecap:square;stroke-width:1.5;"/>
   </g>
   <g id="line2d_15">
    <path clip-path="url(#p8ea0223505)" d="M 68.546307 227.153085 
L 68.779663 227.058136 
L 69.076255 226.683974 
L 69.469058 225.812676 
L 70.038192 223.927969 
L 70.814285 220.461698 
L 71.927124 214.331265 
L 74.182045 200.315598 
L 77.148509 182.334713 
L 79.554994 169.126679 
L 81.849498 157.700169 
L 84.060885 147.668405 
L 86.489826 137.652545 
L 88.918766 128.588503 
L 91.347707 120.388263 
L 93.776648 112.973383 
L 96.013805 106.777351 
L 98.305375 101.005358 
L 100.596944 95.764742 
L 103.150536 90.493785 
L 105.585717 85.973253 
L 108.117959 81.744992 
L 110.698884 77.881735 
L 113.060786 74.701774 
L 115.839088 71.350981 
L 118.133856 68.869118 
L 120.742517 66.328953 
L 123.351178 64.057279 
L 125.959839 62.02533 
L 129.438054 59.644852 
L 132.916269 57.591434 
L 136.394484 55.818929 
L 139.872698 54.287694 
L 143.912547 52.76731 
L 148.12349 51.431597 
L 152.725627 50.213177 
L 157.646949 49.139072 
L 163.192782 48.15699 
L 169.66292 47.25155 
L 177.057364 46.457782 
L 185.376113 45.79026 
L 195.543473 45.201761 
L 208.483749 44.690853 
L 225.121248 44.270414 
L 248.228884 43.924519 
L 283.364282 43.645884 
L 341.654111 43.433581 
L 372.909943 43.370104 
L 372.909943 43.370104 
" style="fill:none;stroke:#ff0000;stroke-linecap:square;stroke-width:1.5;"/>
   </g>
   <g id="line2d_16">
    <defs>
     <path d="M 0 3 
C 0.795609 3 1.55874 2.683901 2.12132 2.12132 
C 2.683901 1.55874 3 0.795609 3 0 
C 3 -0.795609 2.683901 -1.55874 2.12132 -2.12132 
C 1.55874 -2.683901 0.795609 -3 0 -3 
C -0.795609 -3 -1.55874 -2.683901 -2.12132 -2.12132 
C -2.683901 -1.55874 -3 -0.795609 -3 0 
C -3 0.795609 -2.683901 1.55874 -2.12132 2.12132 
C -1.55874 2.683901 -0.795609 3 0 3 
z
" id="m611190b18f" style="stroke:#000000;"/>
    </defs>
    <g clip-path="url(#p8ea0223505)">
     <use style="stroke:#000000;" x="68.546307" xlink:href="#m611190b18f" y="227.152952"/>
     <use style="stroke:#000000;" x="68.54631" xlink:href="#m611190b18f" y="227.152952"/>
     <use style="stroke:#000000;" x="68.54632" xlink:href="#m611190b18f" y="227.152952"/>
     <use style="stroke:#000000;" x="68.546331" xlink:href="#m611190b18f" y="227.152952"/>
     <use style="stroke:#000000;" x="68.546341" xlink:href="#m611190b18f" y="227.152952"/>
     <use style="stroke:#000000;" x="68.546352" xlink:href="#m611190b18f" y="227.152952"/>
     <use style="stroke:#000000;" x="68.546373" xlink:href="#m611190b18f" y="227.152952"/>
     <use style="stroke:#000000;" x="68.546413" xlink:href="#m611190b18f" y="227.152952"/>
     <use style="stroke:#000000;" x="68.546484" xlink:href="#m611190b18f" y="227.152952"/>
     <use style="stroke:#000000;" x="68.546609" xlink:href="#m611190b18f" y="227.152952"/>
     <use style="stroke:#000000;" x="68.546848" xlink:href="#m611190b18f" y="227.152952"/>
     <use style="stroke:#000000;" x="68.547314" xlink:href="#m611190b18f" y="227.152952"/>
     <use style="stroke:#000000;" x="68.547782" xlink:href="#m611190b18f" y="227.152952"/>
     <use style="stroke:#000000;" x="68.548251" xlink:href="#m611190b18f" y="227.152952"/>
     <use style="stroke:#000000;" x="68.548716" xlink:href="#m611190b18f" y="227.152952"/>
     <use style="stroke:#000000;" x="68.549182" xlink:href="#m611190b18f" y="227.152952"/>
     <use style="stroke:#000000;" x="68.549632" xlink:href="#m611190b18f" y="227.152952"/>
     <use style="stroke:#000000;" x="68.550116" xlink:href="#m611190b18f" y="227.152952"/>
     <use style="stroke:#000000;" x="68.551356" xlink:href="#m611190b18f" y="227.152952"/>
     <use style="stroke:#000000;" x="68.552565" xlink:href="#m611190b18f" y="227.152952"/>
     <use style="stroke:#000000;" x="68.553805" xlink:href="#m611190b18f" y="227.152952"/>
     <use style="stroke:#000000;" x="68.555044" xlink:href="#m611190b18f" y="227.152952"/>
     <use style="stroke:#000000;" x="68.556284" xlink:href="#m611190b18f" y="227.152952"/>
     <use style="stroke:#000000;" x="68.558914" xlink:href="#m611190b18f" y="227.152339"/>
     <use style="stroke:#000000;" x="68.563993" xlink:href="#m611190b18f" y="227.152339"/>
     <use style="stroke:#000000;" x="68.567077" xlink:href="#m611190b18f" y="227.151725"/>
     <use style="stroke:#000000;" x="68.570161" xlink:href="#m611190b18f" y="227.151112"/>
     <use style="stroke:#000000;" x="68.573245" xlink:href="#m611190b18f" y="227.150499"/>
     <use style="stroke:#000000;" x="68.578052" xlink:href="#m611190b18f" y="227.149885"/>
     <use style="stroke:#000000;" x="68.583191" xlink:href="#m611190b18f" y="227.148659"/>
     <use style="stroke:#000000;" x="68.588029" xlink:href="#m611190b18f" y="227.147432"/>
     <use style="stroke:#000000;" x="68.593168" xlink:href="#m611190b18f" y="227.145592"/>
     <use style="stroke:#000000;" x="68.598005" xlink:href="#m611190b18f" y="227.144365"/>
     <use style="stroke:#000000;" x="68.602843" xlink:href="#m611190b18f" y="227.142525"/>
     <use style="stroke:#000000;" x="68.607982" xlink:href="#m611190b18f" y="227.140685"/>
     <use style="stroke:#000000;" x="68.617355" xlink:href="#m611190b18f" y="227.136391"/>
     <use style="stroke:#000000;" x="68.626727" xlink:href="#m611190b18f" y="227.132098"/>
     <use style="stroke:#000000;" x="68.636402" xlink:href="#m611190b18f" y="227.126577"/>
     <use style="stroke:#000000;" x="68.645774" xlink:href="#m611190b18f" y="227.120444"/>
     <use style="stroke:#000000;" x="68.655146" xlink:href="#m611190b18f" y="227.11431"/>
     <use style="stroke:#000000;" x="68.664821" xlink:href="#m611190b18f" y="227.107563"/>
     <use style="stroke:#000000;" x="68.680844" xlink:href="#m611190b18f" y="227.094682"/>
     <use style="stroke:#000000;" x="68.69717" xlink:href="#m611190b18f" y="227.079962"/>
     <use style="stroke:#000000;" x="68.713194" xlink:href="#m611190b18f" y="227.063401"/>
     <use style="stroke:#000000;" x="68.72952" xlink:href="#m611190b18f" y="227.045613"/>
     <use style="stroke:#000000;" x="68.745543" xlink:href="#m611190b18f" y="227.026599"/>
     <use style="stroke:#000000;" x="68.761869" xlink:href="#m611190b18f" y="227.006358"/>
     <use style="stroke:#000000;" x="68.778195" xlink:href="#m611190b18f" y="226.984277"/>
     <use style="stroke:#000000;" x="68.802986" xlink:href="#m611190b18f" y="226.947475"/>
     <use style="stroke:#000000;" x="68.827777" xlink:href="#m611190b18f" y="226.908219"/>
     <use style="stroke:#000000;" x="68.851662" xlink:href="#m611190b18f" y="226.865284"/>
     <use style="stroke:#000000;" x="68.875848" xlink:href="#m611190b18f" y="226.819282"/>
     <use style="stroke:#000000;" x="68.903058" xlink:href="#m611190b18f" y="226.770826"/>
     <use style="stroke:#000000;" x="68.927244" xlink:href="#m611190b18f" y="226.71869"/>
     <use style="stroke:#000000;" x="68.951431" xlink:href="#m611190b18f" y="226.664714"/>
     <use style="stroke:#000000;" x="68.975617" xlink:href="#m611190b18f" y="226.607057"/>
     <use style="stroke:#000000;" x="68.999804" xlink:href="#m611190b18f" y="226.546947"/>
     <use style="stroke:#000000;" x="69.027014" xlink:href="#m611190b18f" y="226.484998"/>
     <use style="stroke:#000000;" x="69.0512" xlink:href="#m611190b18f" y="226.419368"/>
     <use style="stroke:#000000;" x="69.075387" xlink:href="#m611190b18f" y="226.351897"/>
     <use style="stroke:#000000;" x="69.099573" xlink:href="#m611190b18f" y="226.281974"/>
     <use style="stroke:#000000;" x="69.12376" xlink:href="#m611190b18f" y="226.209597"/>
     <use style="stroke:#000000;" x="69.15097" xlink:href="#m611190b18f" y="226.13538"/>
     <use style="stroke:#000000;" x="69.175156" xlink:href="#m611190b18f" y="226.058709"/>
     <use style="stroke:#000000;" x="69.199343" xlink:href="#m611190b18f" y="225.979585"/>
     <use style="stroke:#000000;" x="69.223529" xlink:href="#m611190b18f" y="225.898621"/>
     <use style="stroke:#000000;" x="69.247716" xlink:href="#m611190b18f" y="225.815203"/>
     <use style="stroke:#000000;" x="69.274925" xlink:href="#m611190b18f" y="225.729945"/>
     <use style="stroke:#000000;" x="69.299112" xlink:href="#m611190b18f" y="225.642848"/>
     <use style="stroke:#000000;" x="69.323299" xlink:href="#m611190b18f" y="225.55391"/>
     <use style="stroke:#000000;" x="69.347485" xlink:href="#m611190b18f" y="225.463132"/>
     <use style="stroke:#000000;" x="69.371672" xlink:href="#m611190b18f" y="225.370513"/>
     <use style="stroke:#000000;" x="69.398881" xlink:href="#m611190b18f" y="225.276055"/>
     <use style="stroke:#000000;" x="69.423068" xlink:href="#m611190b18f" y="225.179757"/>
     <use style="stroke:#000000;" x="69.447254" xlink:href="#m611190b18f" y="225.082232"/>
     <use style="stroke:#000000;" x="69.483534" xlink:href="#m611190b18f" y="224.930731"/>
     <use style="stroke:#000000;" x="69.522837" xlink:href="#m611190b18f" y="224.776163"/>
     <use style="stroke:#000000;" x="69.559117" xlink:href="#m611190b18f" y="224.618528"/>
     <use style="stroke:#000000;" x="69.595397" xlink:href="#m611190b18f" y="224.457213"/>
     <use style="stroke:#000000;" x="69.6347" xlink:href="#m611190b18f" y="224.292831"/>
     <use style="stroke:#000000;" x="69.67098" xlink:href="#m611190b18f" y="224.125383"/>
     <use style="stroke:#000000;" x="69.710283" xlink:href="#m611190b18f" y="223.954867"/>
     <use style="stroke:#000000;" x="69.746562" xlink:href="#m611190b18f" y="223.781898"/>
     <use style="stroke:#000000;" x="69.782842" xlink:href="#m611190b18f" y="223.606476"/>
     <use style="stroke:#000000;" x="69.822145" xlink:href="#m611190b18f" y="223.427987"/>
     <use style="stroke:#000000;" x="69.858425" xlink:href="#m611190b18f" y="223.247657"/>
     <use style="stroke:#000000;" x="69.897728" xlink:href="#m611190b18f" y="223.064875"/>
     <use style="stroke:#000000;" x="69.934008" xlink:href="#m611190b18f" y="222.879638"/>
     <use style="stroke:#000000;" x="69.970288" xlink:href="#m611190b18f" y="222.691949"/>
     <use style="stroke:#000000;" x="70.009591" xlink:href="#m611190b18f" y="222.503032"/>
     <use style="stroke:#000000;" x="70.045871" xlink:href="#m611190b18f" y="222.311662"/>
     <use style="stroke:#000000;" x="70.085174" xlink:href="#m611190b18f" y="222.118452"/>
     <use style="stroke:#000000;" x="70.121453" xlink:href="#m611190b18f" y="221.924016"/>
     <use style="stroke:#000000;" x="70.157733" xlink:href="#m611190b18f" y="221.727126"/>
     <use style="stroke:#000000;" x="70.197036" xlink:href="#m611190b18f" y="221.529009"/>
     <use style="stroke:#000000;" x="70.233316" xlink:href="#m611190b18f" y="221.329665"/>
     <use style="stroke:#000000;" x="70.272619" xlink:href="#m611190b18f" y="221.128481"/>
     <use style="stroke:#000000;" x="70.308899" xlink:href="#m611190b18f" y="220.926071"/>
     <use style="stroke:#000000;" x="70.345179" xlink:href="#m611190b18f" y="220.722434"/>
     <use style="stroke:#000000;" x="70.384482" xlink:href="#m611190b18f" y="220.51757"/>
     <use style="stroke:#000000;" x="70.420762" xlink:href="#m611190b18f" y="220.311479"/>
     <use style="stroke:#000000;" x="70.460065" xlink:href="#m611190b18f" y="220.104162"/>
     <use style="stroke:#000000;" x="70.496344" xlink:href="#m611190b18f" y="219.896231"/>
     <use style="stroke:#000000;" x="70.532624" xlink:href="#m611190b18f" y="219.68646"/>
     <use style="stroke:#000000;" x="70.571927" xlink:href="#m611190b18f" y="219.476689"/>
     <use style="stroke:#000000;" x="70.608207" xlink:href="#m611190b18f" y="219.265692"/>
     <use style="stroke:#000000;" x="70.64751" xlink:href="#m611190b18f" y="219.053468"/>
     <use style="stroke:#000000;" x="70.68379" xlink:href="#m611190b18f" y="218.84063"/>
     <use style="stroke:#000000;" x="70.72007" xlink:href="#m611190b18f" y="218.627179"/>
     <use style="stroke:#000000;" x="70.777513" xlink:href="#m611190b18f" y="218.305162"/>
     <use style="stroke:#000000;" x="70.834956" xlink:href="#m611190b18f" y="217.980692"/>
     <use style="stroke:#000000;" x="70.889375" xlink:href="#m611190b18f" y="217.655609"/>
     <use style="stroke:#000000;" x="70.946818" xlink:href="#m611190b18f" y="217.329299"/>
     <use style="stroke:#000000;" x="71.004261" xlink:href="#m611190b18f" y="217.002375"/>
     <use style="stroke:#000000;" x="71.058681" xlink:href="#m611190b18f" y="216.673611"/>
     <use style="stroke:#000000;" x="71.116124" xlink:href="#m611190b18f" y="216.344848"/>
     <use style="stroke:#000000;" x="71.173567" xlink:href="#m611190b18f" y="216.014858"/>
     <use style="stroke:#000000;" x="71.227986" xlink:href="#m611190b18f" y="215.684867"/>
     <use style="stroke:#000000;" x="71.285429" xlink:href="#m611190b18f" y="215.354263"/>
     <use style="stroke:#000000;" x="71.342872" xlink:href="#m611190b18f" y="215.023046"/>
     <use style="stroke:#000000;" x="71.397292" xlink:href="#m611190b18f" y="214.691829"/>
     <use style="stroke:#000000;" x="71.454735" xlink:href="#m611190b18f" y="214.359999"/>
     <use style="stroke:#000000;" x="71.512178" xlink:href="#m611190b18f" y="214.028168"/>
     <use style="stroke:#000000;" x="71.566598" xlink:href="#m611190b18f" y="213.696338"/>
     <use style="stroke:#000000;" x="71.630087" xlink:href="#m611190b18f" y="213.364507"/>
     <use style="stroke:#000000;" x="71.690553" xlink:href="#m611190b18f" y="213.032677"/>
     <use style="stroke:#000000;" x="71.75102" xlink:href="#m611190b18f" y="212.700847"/>
     <use style="stroke:#000000;" x="71.781253" xlink:href="#m611190b18f" y="212.369016"/>
     <use style="stroke:#000000;" x="71.841719" xlink:href="#m611190b18f" y="212.037799"/>
     <use style="stroke:#000000;" x="71.902185" xlink:href="#m611190b18f" y="211.706582"/>
     <use style="stroke:#000000;" x="71.962652" xlink:href="#m611190b18f" y="211.375978"/>
     <use style="stroke:#000000;" x="72.023118" xlink:href="#m611190b18f" y="211.045374"/>
     <use style="stroke:#000000;" x="72.083584" xlink:href="#m611190b18f" y="210.715384"/>
     <use style="stroke:#000000;" x="72.14405" xlink:href="#m611190b18f" y="210.385394"/>
     <use style="stroke:#000000;" x="72.174284" xlink:href="#m611190b18f" y="210.056017"/>
     <use style="stroke:#000000;" x="72.23475" xlink:href="#m611190b18f" y="209.727253"/>
     <use style="stroke:#000000;" x="72.295216" xlink:href="#m611190b18f" y="209.399103"/>
     <use style="stroke:#000000;" x="72.355682" xlink:href="#m611190b18f" y="209.070953"/>
     <use style="stroke:#000000;" x="72.416149" xlink:href="#m611190b18f" y="208.744029"/>
     <use style="stroke:#000000;" x="72.476615" xlink:href="#m611190b18f" y="208.417106"/>
     <use style="stroke:#000000;" x="72.537081" xlink:href="#m611190b18f" y="208.090795"/>
     <use style="stroke:#000000;" x="72.597548" xlink:href="#m611190b18f" y="207.765712"/>
     <use style="stroke:#000000;" x="72.627781" xlink:href="#m611190b18f" y="207.440629"/>
     <use style="stroke:#000000;" x="72.688247" xlink:href="#m611190b18f" y="207.116158"/>
     <use style="stroke:#000000;" x="72.748713" xlink:href="#m611190b18f" y="206.792915"/>
     <use style="stroke:#000000;" x="72.80918" xlink:href="#m611190b18f" y="206.469672"/>
     <use style="stroke:#000000;" x="72.869646" xlink:href="#m611190b18f" y="206.147655"/>
     <use style="stroke:#000000;" x="72.930112" xlink:href="#m611190b18f" y="205.826252"/>
     <use style="stroke:#000000;" x="72.990578" xlink:href="#m611190b18f" y="205.505462"/>
     <use style="stroke:#000000;" x="73.020812" xlink:href="#m611190b18f" y="205.185286"/>
     <use style="stroke:#000000;" x="73.081278" xlink:href="#m611190b18f" y="204.865722"/>
     <use style="stroke:#000000;" x="73.141744" xlink:href="#m611190b18f" y="204.547386"/>
     <use style="stroke:#000000;" x="73.20221" xlink:href="#m611190b18f" y="204.22905"/>
     <use style="stroke:#000000;" x="73.262677" xlink:href="#m611190b18f" y="203.91194"/>
     <use style="stroke:#000000;" x="73.323143" xlink:href="#m611190b18f" y="203.595444"/>
     <use style="stroke:#000000;" x="73.383609" xlink:href="#m611190b18f" y="203.280174"/>
     <use style="stroke:#000000;" x="73.444076" xlink:href="#m611190b18f" y="202.964904"/>
     <use style="stroke:#000000;" x="73.504542" xlink:href="#m611190b18f" y="202.493227"/>
     <use style="stroke:#000000;" x="73.595241" xlink:href="#m611190b18f" y="202.023389"/>
     <use style="stroke:#000000;" x="73.685941" xlink:href="#m611190b18f" y="201.554778"/>
     <use style="stroke:#000000;" x="73.77664" xlink:href="#m611190b18f" y="201.088007"/>
     <use style="stroke:#000000;" x="73.867339" xlink:href="#m611190b18f" y="200.623077"/>
     <use style="stroke:#000000;" x="73.927806" xlink:href="#m611190b18f" y="200.159986"/>
     <use style="stroke:#000000;" x="74.018505" xlink:href="#m611190b18f" y="199.698736"/>
     <use style="stroke:#000000;" x="74.109205" xlink:href="#m611190b18f" y="199.239325"/>
     <use style="stroke:#000000;" x="74.199904" xlink:href="#m611190b18f" y="198.781142"/>
     <use style="stroke:#000000;" x="74.290603" xlink:href="#m611190b18f" y="198.324798"/>
     <use style="stroke:#000000;" x="74.35107" xlink:href="#m611190b18f" y="197.870908"/>
     <use style="stroke:#000000;" x="74.441769" xlink:href="#m611190b18f" y="197.417631"/>
     <use style="stroke:#000000;" x="74.532469" xlink:href="#m611190b18f" y="196.966808"/>
     <use style="stroke:#000000;" x="74.623168" xlink:href="#m611190b18f" y="196.517825"/>
     <use style="stroke:#000000;" x="74.713867" xlink:href="#m611190b18f" y="196.070069"/>
     <use style="stroke:#000000;" x="74.774334" xlink:href="#m611190b18f" y="195.624152"/>
     <use style="stroke:#000000;" x="74.865033" xlink:href="#m611190b18f" y="195.180076"/>
     <use style="stroke:#000000;" x="74.955733" xlink:href="#m611190b18f" y="194.73784"/>
     <use style="stroke:#000000;" x="75.046432" xlink:href="#m611190b18f" y="194.297444"/>
     <use style="stroke:#000000;" x="75.137131" xlink:href="#m611190b18f" y="193.858275"/>
     <use style="stroke:#000000;" x="75.197598" xlink:href="#m611190b18f" y="193.420332"/>
     <use style="stroke:#000000;" x="75.288297" xlink:href="#m611190b18f" y="192.984843"/>
     <use style="stroke:#000000;" x="75.378996" xlink:href="#m611190b18f" y="192.55058"/>
     <use style="stroke:#000000;" x="75.469696" xlink:href="#m611190b18f" y="192.118158"/>
     <use style="stroke:#000000;" x="75.560395" xlink:href="#m611190b18f" y="191.686963"/>
     <use style="stroke:#000000;" x="75.620862" xlink:href="#m611190b18f" y="191.257607"/>
     <use style="stroke:#000000;" x="75.711561" xlink:href="#m611190b18f" y="190.830092"/>
     <use style="stroke:#000000;" x="75.80226" xlink:href="#m611190b18f" y="190.403803"/>
     <use style="stroke:#000000;" x="75.923193" xlink:href="#m611190b18f" y="189.759156"/>
     <use style="stroke:#000000;" x="76.074359" xlink:href="#m611190b18f" y="189.117577"/>
     <use style="stroke:#000000;" x="76.195291" xlink:href="#m611190b18f" y="188.479677"/>
     <use style="stroke:#000000;" x="76.316224" xlink:href="#m611190b18f" y="187.845458"/>
     <use style="stroke:#000000;" x="76.437156" xlink:href="#m611190b18f" y="187.214305"/>
     <use style="stroke:#000000;" x="76.588322" xlink:href="#m611190b18f" y="186.586833"/>
     <use style="stroke:#000000;" x="76.709255" xlink:href="#m611190b18f" y="185.962427"/>
     <use style="stroke:#000000;" x="76.830187" xlink:href="#m611190b18f" y="185.342315"/>
     <use style="stroke:#000000;" x="76.95112" xlink:href="#m611190b18f" y="184.724657"/>
     <use style="stroke:#000000;" x="77.102285" xlink:href="#m611190b18f" y="184.110678"/>
     <use style="stroke:#000000;" x="77.223218" xlink:href="#m611190b18f" y="183.499767"/>
     <use style="stroke:#000000;" x="77.344151" xlink:href="#m611190b18f" y="182.891922"/>
     <use style="stroke:#000000;" x="77.465083" xlink:href="#m611190b18f" y="182.287758"/>
     <use style="stroke:#000000;" x="77.616249" xlink:href="#m611190b18f" y="181.68666"/>
     <use style="stroke:#000000;" x="77.737181" xlink:href="#m611190b18f" y="181.088629"/>
     <use style="stroke:#000000;" x="77.858114" xlink:href="#m611190b18f" y="180.493665"/>
     <use style="stroke:#000000;" x="78.00928" xlink:href="#m611190b18f" y="179.901768"/>
     <use style="stroke:#000000;" x="78.130212" xlink:href="#m611190b18f" y="179.312938"/>
     <use style="stroke:#000000;" x="78.251145" xlink:href="#m611190b18f" y="178.727174"/>
     <use style="stroke:#000000;" x="78.372077" xlink:href="#m611190b18f" y="178.143864"/>
     <use style="stroke:#000000;" x="78.523243" xlink:href="#m611190b18f" y="177.564234"/>
     <use style="stroke:#000000;" x="78.644176" xlink:href="#m611190b18f" y="176.987058"/>
     <use style="stroke:#000000;" x="78.765108" xlink:href="#m611190b18f" y="176.412948"/>
     <use style="stroke:#000000;" x="78.886041" xlink:href="#m611190b18f" y="175.841905"/>
     <use style="stroke:#000000;" x="79.037206" xlink:href="#m611190b18f" y="175.273929"/>
     <use style="stroke:#000000;" x="79.158139" xlink:href="#m611190b18f" y="174.708407"/>
     <use style="stroke:#000000;" x="79.279072" xlink:href="#m611190b18f" y="174.145338"/>
     <use style="stroke:#000000;" x="79.400004" xlink:href="#m611190b18f" y="173.585949"/>
     <use style="stroke:#000000;" x="79.55117" xlink:href="#m611190b18f" y="173.0284"/>
     <use style="stroke:#000000;" x="79.672102" xlink:href="#m611190b18f" y="172.473918"/>
     <use style="stroke:#000000;" x="79.793035" xlink:href="#m611190b18f" y="171.922503"/>
     <use style="stroke:#000000;" x="79.944201" xlink:href="#m611190b18f" y="171.373541"/>
     <use style="stroke:#000000;" x="80.065133" xlink:href="#m611190b18f" y="170.827033"/>
     <use style="stroke:#000000;" x="80.186066" xlink:href="#m611190b18f" y="170.283592"/>
     <use style="stroke:#000000;" x="80.306998" xlink:href="#m611190b18f" y="169.742604"/>
     <use style="stroke:#000000;" x="80.458164" xlink:href="#m611190b18f" y="169.204069"/>
     <use style="stroke:#000000;" x="80.579097" xlink:href="#m611190b18f" y="168.667988"/>
     <use style="stroke:#000000;" x="80.700029" xlink:href="#m611190b18f" y="168.134361"/>
     <use style="stroke:#000000;" x="80.820962" xlink:href="#m611190b18f" y="167.6038"/>
     <use style="stroke:#000000;" x="80.972127" xlink:href="#m611190b18f" y="167.075693"/>
     <use style="stroke:#000000;" x="81.09306" xlink:href="#m611190b18f" y="166.550039"/>
     <use style="stroke:#000000;" x="81.274459" xlink:href="#m611190b18f" y="165.758798"/>
     <use style="stroke:#000000;" x="81.486091" xlink:href="#m611190b18f" y="164.973078"/>
     <use style="stroke:#000000;" x="81.66749" xlink:href="#m611190b18f" y="164.192878"/>
     <use style="stroke:#000000;" x="81.879122" xlink:href="#m611190b18f" y="163.418198"/>
     <use style="stroke:#000000;" x="82.06052" xlink:href="#m611190b18f" y="162.649038"/>
     <use style="stroke:#000000;" x="82.272152" xlink:href="#m611190b18f" y="161.885399"/>
     <use style="stroke:#000000;" x="82.453551" xlink:href="#m611190b18f" y="161.126666"/>
     <use style="stroke:#000000;" x="82.665183" xlink:href="#m611190b18f" y="160.374067"/>
     <use style="stroke:#000000;" x="82.846582" xlink:href="#m611190b18f" y="159.625762"/>
     <use style="stroke:#000000;" x="83.027981" xlink:href="#m611190b18f" y="158.88359"/>
     <use style="stroke:#000000;" x="83.239613" xlink:href="#m611190b18f" y="158.145712"/>
     <use style="stroke:#000000;" x="83.421012" xlink:href="#m611190b18f" y="157.413354"/>
     <use style="stroke:#000000;" x="83.632644" xlink:href="#m611190b18f" y="156.685904"/>
     <use style="stroke:#000000;" x="83.814043" xlink:href="#m611190b18f" y="155.963973"/>
     <use style="stroke:#000000;" x="84.025675" xlink:href="#m611190b18f" y="155.246336"/>
     <use style="stroke:#000000;" x="84.207073" xlink:href="#m611190b18f" y="154.534219"/>
     <use style="stroke:#000000;" x="84.418705" xlink:href="#m611190b18f" y="153.826396"/>
     <use style="stroke:#000000;" x="84.600104" xlink:href="#m611190b18f" y="153.12348"/>
     <use style="stroke:#000000;" x="84.811736" xlink:href="#m611190b18f" y="152.425471"/>
     <use style="stroke:#000000;" x="84.993135" xlink:href="#m611190b18f" y="151.732368"/>
     <use style="stroke:#000000;" x="85.204767" xlink:href="#m611190b18f" y="151.044173"/>
     <use style="stroke:#000000;" x="85.386166" xlink:href="#m611190b18f" y="150.360271"/>
     <use style="stroke:#000000;" x="85.567565" xlink:href="#m611190b18f" y="149.680662"/>
     <use style="stroke:#000000;" x="85.779197" xlink:href="#m611190b18f" y="149.005961"/>
     <use style="stroke:#000000;" x="85.960596" xlink:href="#m611190b18f" y="148.336166"/>
     <use style="stroke:#000000;" x="86.262927" xlink:href="#m611190b18f" y="147.324727"/>
     <use style="stroke:#000000;" x="86.565258" xlink:href="#m611190b18f" y="146.323102"/>
     <use style="stroke:#000000;" x="86.86759" xlink:href="#m611190b18f" y="145.332518"/>
     <use style="stroke:#000000;" x="87.169921" xlink:href="#m611190b18f" y="144.351747"/>
     <use style="stroke:#000000;" x="87.442019" xlink:href="#m611190b18f" y="143.380791"/>
     <use style="stroke:#000000;" x="87.744351" xlink:href="#m611190b18f" y="142.419648"/>
     <use style="stroke:#000000;" x="88.046682" xlink:href="#m611190b18f" y="141.468319"/>
     <use style="stroke:#000000;" x="88.349014" xlink:href="#m611190b18f" y="140.52619"/>
     <use style="stroke:#000000;" x="88.651345" xlink:href="#m611190b18f" y="139.593875"/>
     <use style="stroke:#000000;" x="88.953676" xlink:href="#m611190b18f" y="138.670761"/>
     <use style="stroke:#000000;" x="89.225775" xlink:href="#m611190b18f" y="137.757461"/>
     <use style="stroke:#000000;" x="89.528106" xlink:href="#m611190b18f" y="136.852747"/>
     <use style="stroke:#000000;" x="89.830437" xlink:href="#m611190b18f" y="135.957234"/>
     <use style="stroke:#000000;" x="90.132769" xlink:href="#m611190b18f" y="135.070309"/>
     <use style="stroke:#000000;" x="90.4351" xlink:href="#m611190b18f" y="134.193197"/>
     <use style="stroke:#000000;" x="90.737432" xlink:href="#m611190b18f" y="133.324058"/>
     <use style="stroke:#000000;" x="91.00953" xlink:href="#m611190b18f" y="132.463507"/>
     <use style="stroke:#000000;" x="91.311861" xlink:href="#m611190b18f" y="131.612157"/>
     <use style="stroke:#000000;" x="91.614193" xlink:href="#m611190b18f" y="130.76878"/>
     <use style="stroke:#000000;" x="91.916524" xlink:href="#m611190b18f" y="129.93399"/>
     <use style="stroke:#000000;" x="92.218856" xlink:href="#m611190b18f" y="129.107174"/>
     <use style="stroke:#000000;" x="92.521187" xlink:href="#m611190b18f" y="128.288945"/>
     <use style="stroke:#000000;" x="92.793285" xlink:href="#m611190b18f" y="127.47869"/>
     <use style="stroke:#000000;" x="93.095617" xlink:href="#m611190b18f" y="126.676409"/>
     <use style="stroke:#000000;" x="93.397948" xlink:href="#m611190b18f" y="125.882101"/>
     <use style="stroke:#000000;" x="93.700279" xlink:href="#m611190b18f" y="125.095767"/>
     <use style="stroke:#000000;" x="94.002611" xlink:href="#m611190b18f" y="124.317407"/>
     <use style="stroke:#000000;" x="94.304942" xlink:href="#m611190b18f" y="123.546407"/>
     <use style="stroke:#000000;" x="94.57704" xlink:href="#m611190b18f" y="122.782768"/>
     <use style="stroke:#000000;" x="94.879372" xlink:href="#m611190b18f" y="122.027102"/>
     <use style="stroke:#000000;" x="95.181703" xlink:href="#m611190b18f" y="121.278797"/>
     <use style="stroke:#000000;" x="95.6352" xlink:href="#m611190b18f" y="120.157566"/>
     <use style="stroke:#000000;" x="96.088697" xlink:href="#m611190b18f" y="119.053509"/>
     <use style="stroke:#000000;" x="96.542195" xlink:href="#m611190b18f" y="117.966013"/>
     <use style="stroke:#000000;" x="96.995692" xlink:href="#m611190b18f" y="116.894464"/>
     <use style="stroke:#000000;" x="97.449189" xlink:href="#m611190b18f" y="115.838863"/>
     <use style="stroke:#000000;" x="97.902686" xlink:href="#m611190b18f" y="114.79921"/>
     <use style="stroke:#000000;" x="98.32595" xlink:href="#m611190b18f" y="113.774277"/>
     <use style="stroke:#000000;" x="98.779447" xlink:href="#m611190b18f" y="112.764678"/>
     <use style="stroke:#000000;" x="99.38411" xlink:href="#m611190b18f" y="111.770413"/>
     <use style="stroke:#000000;" x="99.686441" xlink:href="#m611190b18f" y="110.790869"/>
     <use style="stroke:#000000;" x="100.291104" xlink:href="#m611190b18f" y="109.825433"/>
     <use style="stroke:#000000;" x="100.593435" xlink:href="#m611190b18f" y="108.874104"/>
     <use style="stroke:#000000;" x="100.895767" xlink:href="#m611190b18f" y="107.937496"/>
     <use style="stroke:#000000;" x="101.50043" xlink:href="#m611190b18f" y="107.014381"/>
     <use style="stroke:#000000;" x="101.802761" xlink:href="#m611190b18f" y="106.104148"/>
     <use style="stroke:#000000;" x="102.407424" xlink:href="#m611190b18f" y="105.208021"/>
     <use style="stroke:#000000;" x="102.709755" xlink:href="#m611190b18f" y="104.325389"/>
     <use style="stroke:#000000;" x="103.314418" xlink:href="#m611190b18f" y="103.455024"/>
     <use style="stroke:#000000;" x="103.616749" xlink:href="#m611190b18f" y="102.59754"/>
     <use style="stroke:#000000;" x="104.221412" xlink:href="#m611190b18f" y="101.752937"/>
     <use style="stroke:#000000;" x="104.523744" xlink:href="#m611190b18f" y="100.9206"/>
     <use style="stroke:#000000;" x="105.128406" xlink:href="#m611190b18f" y="100.100531"/>
     <use style="stroke:#000000;" x="105.733069" xlink:href="#m611190b18f" y="98.888522"/>
     <use style="stroke:#000000;" x="106.337732" xlink:href="#m611190b18f" y="97.703501"/>
     <use style="stroke:#000000;" x="107.244726" xlink:href="#m611190b18f" y="96.544241"/>
     <use style="stroke:#000000;" x="107.849389" xlink:href="#m611190b18f" y="95.410743"/>
     <use style="stroke:#000000;" x="108.454052" xlink:href="#m611190b18f" y="94.301779"/>
     <use style="stroke:#000000;" x="109.058715" xlink:href="#m611190b18f" y="93.216736"/>
     <use style="stroke:#000000;" x="109.965709" xlink:href="#m611190b18f" y="92.155615"/>
     <use style="stroke:#000000;" x="110.570372" xlink:href="#m611190b18f" y="91.117801"/>
     <use style="stroke:#000000;" x="111.175034" xlink:href="#m611190b18f" y="90.102682"/>
     <use style="stroke:#000000;" x="111.779697" xlink:href="#m611190b18f" y="89.109644"/>
     <use style="stroke:#000000;" x="112.686691" xlink:href="#m611190b18f" y="88.138074"/>
     <use style="stroke:#000000;" x="113.291354" xlink:href="#m611190b18f" y="87.187358"/>
     <use style="stroke:#000000;" x="113.896017" xlink:href="#m611190b18f" y="86.258111"/>
     <use style="stroke:#000000;" x="114.50068" xlink:href="#m611190b18f" y="85.34849"/>
     <use style="stroke:#000000;" x="115.407674" xlink:href="#m611190b18f" y="84.458498"/>
     <use style="stroke:#000000;" x="116.012337" xlink:href="#m611190b18f" y="83.588133"/>
     <use style="stroke:#000000;" x="116.628488" xlink:href="#m611190b18f" y="82.736169"/>
     <use style="stroke:#000000;" x="117.306617" xlink:href="#m611190b18f" y="81.903219"/>
     <use style="stroke:#000000;" x="118.326684" xlink:href="#m611190b18f" y="80.68385"/>
     <use style="stroke:#000000;" x="119.34675" xlink:href="#m611190b18f" y="79.503735"/>
     <use style="stroke:#000000;" x="120.366816" xlink:href="#m611190b18f" y="78.36165"/>
     <use style="stroke:#000000;" x="121.387184" xlink:href="#m611190b18f" y="77.256366"/>
     <use style="stroke:#000000;" x="122.407251" xlink:href="#m611190b18f" y="76.186658"/>
     <use style="stroke:#000000;" x="123.427317" xlink:href="#m611190b18f" y="75.151298"/>
     <use style="stroke:#000000;" x="124.447383" xlink:href="#m611190b18f" y="74.149059"/>
     <use style="stroke:#000000;" x="125.467449" xlink:href="#m611190b18f" y="73.179329"/>
     <use style="stroke:#000000;" x="126.487515" xlink:href="#m611190b18f" y="72.240267"/>
     <use style="stroke:#000000;" x="127.507581" xlink:href="#m611190b18f" y="71.331261"/>
     <use style="stroke:#000000;" x="128.527647" xlink:href="#m611190b18f" y="70.451082"/>
     <use style="stroke:#000000;" x="129.548016" xlink:href="#m611190b18f" y="69.599118"/>
     <use style="stroke:#000000;" x="130.568082" xlink:href="#m611190b18f" y="68.774142"/>
     <use style="stroke:#000000;" x="131.588148" xlink:href="#m611190b18f" y="67.975541"/>
     <use style="stroke:#000000;" x="132.608214" xlink:href="#m611190b18f" y="67.202701"/>
     <use style="stroke:#000000;" x="133.62828" xlink:href="#m611190b18f" y="66.453782"/>
     <use style="stroke:#000000;" x="134.648347" xlink:href="#m611190b18f" y="65.728785"/>
     <use style="stroke:#000000;" x="135.668413" xlink:href="#m611190b18f" y="65.026482"/>
     <use style="stroke:#000000;" x="136.688781" xlink:href="#m611190b18f" y="64.34626"/>
     <use style="stroke:#000000;" x="137.708847" xlink:href="#m611190b18f" y="63.68812"/>
     <use style="stroke:#000000;" x="138.728914" xlink:href="#m611190b18f" y="63.05022"/>
     <use style="stroke:#000000;" x="139.74898" xlink:href="#m611190b18f" y="62.432562"/>
     <use style="stroke:#000000;" x="140.769046" xlink:href="#m611190b18f" y="61.833917"/>
     <use style="stroke:#000000;" x="141.789112" xlink:href="#m611190b18f" y="61.254287"/>
     <use style="stroke:#000000;" x="142.809178" xlink:href="#m611190b18f" y="60.693058"/>
     <use style="stroke:#000000;" x="143.829244" xlink:href="#m611190b18f" y="60.149004"/>
     <use style="stroke:#000000;" x="144.849613" xlink:href="#m611190b18f" y="59.62151"/>
     <use style="stroke:#000000;" x="145.869679" xlink:href="#m611190b18f" y="59.11119"/>
     <use style="stroke:#000000;" x="146.889745" xlink:href="#m611190b18f" y="58.616818"/>
     <use style="stroke:#000000;" x="147.909811" xlink:href="#m611190b18f" y="58.137167"/>
     <use style="stroke:#000000;" x="148.929877" xlink:href="#m611190b18f" y="57.672849"/>
     <use style="stroke:#000000;" x="149.949943" xlink:href="#m611190b18f" y="57.222639"/>
     <use style="stroke:#000000;" x="150.97001" xlink:href="#m611190b18f" y="56.786537"/>
     <use style="stroke:#000000;" x="151.990378" xlink:href="#m611190b18f" y="56.363928"/>
     <use style="stroke:#000000;" x="153.010444" xlink:href="#m611190b18f" y="55.954201"/>
     <use style="stroke:#000000;" x="154.03051" xlink:href="#m611190b18f" y="55.557354"/>
     <use style="stroke:#000000;" x="155.050577" xlink:href="#m611190b18f" y="55.172774"/>
     <use style="stroke:#000000;" x="156.070643" xlink:href="#m611190b18f" y="54.799848"/>
     <use style="stroke:#000000;" x="157.090709" xlink:href="#m611190b18f" y="54.437962"/>
     <use style="stroke:#000000;" x="158.110775" xlink:href="#m611190b18f" y="54.087731"/>
     <use style="stroke:#000000;" x="159.130841" xlink:href="#m611190b18f" y="53.747927"/>
     <use style="stroke:#000000;" x="160.15121" xlink:href="#m611190b18f" y="53.41855"/>
     <use style="stroke:#000000;" x="161.171276" xlink:href="#m611190b18f" y="53.0996"/>
     <use style="stroke:#000000;" x="162.191342" xlink:href="#m611190b18f" y="52.789851"/>
     <use style="stroke:#000000;" x="163.211408" xlink:href="#m611190b18f" y="52.489302"/>
     <use style="stroke:#000000;" x="164.231474" xlink:href="#m611190b18f" y="52.198567"/>
     <use style="stroke:#000000;" x="165.25154" xlink:href="#m611190b18f" y="51.916419"/>
     <use style="stroke:#000000;" x="166.271606" xlink:href="#m611190b18f" y="51.642245"/>
     <use style="stroke:#000000;" x="167.291975" xlink:href="#m611190b18f" y="51.376658"/>
     <use style="stroke:#000000;" x="168.312041" xlink:href="#m611190b18f" y="51.119658"/>
     <use style="stroke:#000000;" x="169.332107" xlink:href="#m611190b18f" y="50.870018"/>
     <use style="stroke:#000000;" x="170.352173" xlink:href="#m611190b18f" y="50.627739"/>
     <use style="stroke:#000000;" x="171.37224" xlink:href="#m611190b18f" y="50.39282"/>
     <use style="stroke:#000000;" x="172.392306" xlink:href="#m611190b18f" y="50.164649"/>
     <use style="stroke:#000000;" x="173.412372" xlink:href="#m611190b18f" y="49.943837"/>
     <use style="stroke:#000000;" x="174.432438" xlink:href="#m611190b18f" y="49.72916"/>
     <use style="stroke:#000000;" x="175.452806" xlink:href="#m611190b18f" y="49.521229"/>
     <use style="stroke:#000000;" x="176.472873" xlink:href="#m611190b18f" y="49.319432"/>
     <use style="stroke:#000000;" x="177.492939" xlink:href="#m611190b18f" y="49.123155"/>
     <use style="stroke:#000000;" x="178.513005" xlink:href="#m611190b18f" y="48.933012"/>
     <use style="stroke:#000000;" x="179.533071" xlink:href="#m611190b18f" y="48.749002"/>
     <use style="stroke:#000000;" x="180.553137" xlink:href="#m611190b18f" y="48.5699"/>
     <use style="stroke:#000000;" x="181.573203" xlink:href="#m611190b18f" y="48.396317"/>
     <use style="stroke:#000000;" x="182.593572" xlink:href="#m611190b18f" y="48.227642"/>
     <use style="stroke:#000000;" x="183.613638" xlink:href="#m611190b18f" y="48.063874"/>
     <use style="stroke:#000000;" x="184.633704" xlink:href="#m611190b18f" y="47.905012"/>
     <use style="stroke:#000000;" x="185.65377" xlink:href="#m611190b18f" y="47.751057"/>
     <use style="stroke:#000000;" x="186.673836" xlink:href="#m611190b18f" y="47.601396"/>
     <use style="stroke:#000000;" x="187.693903" xlink:href="#m611190b18f" y="47.456029"/>
     <use style="stroke:#000000;" x="188.713969" xlink:href="#m611190b18f" y="47.314955"/>
     <use style="stroke:#000000;" x="189.734035" xlink:href="#m611190b18f" y="47.178175"/>
     <use style="stroke:#000000;" x="190.754403" xlink:href="#m611190b18f" y="47.045074"/>
     <use style="stroke:#000000;" x="191.774469" xlink:href="#m611190b18f" y="46.916268"/>
     <use style="stroke:#000000;" x="192.794536" xlink:href="#m611190b18f" y="46.790528"/>
     <use style="stroke:#000000;" x="193.814602" xlink:href="#m611190b18f" y="46.669082"/>
     <use style="stroke:#000000;" x="194.834668" xlink:href="#m611190b18f" y="46.550702"/>
     <use style="stroke:#000000;" x="195.854734" xlink:href="#m611190b18f" y="46.436003"/>
     <use style="stroke:#000000;" x="196.8748" xlink:href="#m611190b18f" y="46.324371"/>
     <use style="stroke:#000000;" x="197.894866" xlink:href="#m611190b18f" y="46.216418"/>
     <use style="stroke:#000000;" x="198.915235" xlink:href="#m611190b18f" y="46.11092"/>
     <use style="stroke:#000000;" x="199.935301" xlink:href="#m611190b18f" y="46.009101"/>
     <use style="stroke:#000000;" x="200.955367" xlink:href="#m611190b18f" y="45.909736"/>
     <use style="stroke:#000000;" x="201.975433" xlink:href="#m611190b18f" y="45.813438"/>
     <use style="stroke:#000000;" x="202.995499" xlink:href="#m611190b18f" y="45.719593"/>
     <use style="stroke:#000000;" x="204.015566" xlink:href="#m611190b18f" y="45.628815"/>
     <use style="stroke:#000000;" x="205.035632" xlink:href="#m611190b18f" y="45.54049"/>
     <use style="stroke:#000000;" x="206.056" xlink:href="#m611190b18f" y="45.454619"/>
     <use style="stroke:#000000;" x="207.076066" xlink:href="#m611190b18f" y="45.371201"/>
     <use style="stroke:#000000;" x="208.096132" xlink:href="#m611190b18f" y="45.289624"/>
     <use style="stroke:#000000;" x="209.116199" xlink:href="#m611190b18f" y="45.211113"/>
     <use style="stroke:#000000;" x="210.136265" xlink:href="#m611190b18f" y="45.134442"/>
     <use style="stroke:#000000;" x="211.156331" xlink:href="#m611190b18f" y="45.060225"/>
     <use style="stroke:#000000;" x="212.176397" xlink:href="#m611190b18f" y="44.987235"/>
     <use style="stroke:#000000;" x="213.196463" xlink:href="#m611190b18f" y="44.917311"/>
     <use style="stroke:#000000;" x="214.216832" xlink:href="#m611190b18f" y="44.848614"/>
     <use style="stroke:#000000;" x="215.236898" xlink:href="#m611190b18f" y="44.782371"/>
     <use style="stroke:#000000;" x="216.256964" xlink:href="#m611190b18f" y="44.717968"/>
     <use style="stroke:#000000;" x="217.27703" xlink:href="#m611190b18f" y="44.654791"/>
     <use style="stroke:#000000;" x="218.297096" xlink:href="#m611190b18f" y="44.593455"/>
     <use style="stroke:#000000;" x="219.317162" xlink:href="#m611190b18f" y="44.534572"/>
     <use style="stroke:#000000;" x="220.337229" xlink:href="#m611190b18f" y="44.476302"/>
     <use style="stroke:#000000;" x="221.357597" xlink:href="#m611190b18f" y="44.420486"/>
     <use style="stroke:#000000;" x="222.377663" xlink:href="#m611190b18f" y="44.365896"/>
     <use style="stroke:#000000;" x="223.397729" xlink:href="#m611190b18f" y="44.312533"/>
     <use style="stroke:#000000;" x="224.417795" xlink:href="#m611190b18f" y="44.261011"/>
     <use style="stroke:#000000;" x="225.437862" xlink:href="#m611190b18f" y="44.210715"/>
     <use style="stroke:#000000;" x="226.457928" xlink:href="#m611190b18f" y="44.161646"/>
     <use style="stroke:#000000;" x="227.477994" xlink:href="#m611190b18f" y="44.114417"/>
     <use style="stroke:#000000;" x="228.49806" xlink:href="#m611190b18f" y="44.067801"/>
     <use style="stroke:#000000;" x="229.518429" xlink:href="#m611190b18f" y="44.023025"/>
     <use style="stroke:#000000;" x="230.538495" xlink:href="#m611190b18f" y="43.978863"/>
     <use style="stroke:#000000;" x="231.558561" xlink:href="#m611190b18f" y="43.936541"/>
     <use style="stroke:#000000;" x="232.578627" xlink:href="#m611190b18f" y="43.894832"/>
     <use style="stroke:#000000;" x="233.598693" xlink:href="#m611190b18f" y="43.85435"/>
     <use style="stroke:#000000;" x="234.618759" xlink:href="#m611190b18f" y="43.815094"/>
     <use style="stroke:#000000;" x="235.638825" xlink:href="#m611190b18f" y="43.777066"/>
     <use style="stroke:#000000;" x="236.659194" xlink:href="#m611190b18f" y="43.739651"/>
     <use style="stroke:#000000;" x="237.67926" xlink:href="#m611190b18f" y="43.703462"/>
     <use style="stroke:#000000;" x="238.699326" xlink:href="#m611190b18f" y="43.6685"/>
     <use style="stroke:#000000;" x="239.719392" xlink:href="#m611190b18f" y="43.634152"/>
     <use style="stroke:#000000;" x="240.739458" xlink:href="#m611190b18f" y="43.60103"/>
     <use style="stroke:#000000;" x="241.759525" xlink:href="#m611190b18f" y="43.568522"/>
     <use style="stroke:#000000;" x="242.779591" xlink:href="#m611190b18f" y="43.536627"/>
     <use style="stroke:#000000;" x="243.799657" xlink:href="#m611190b18f" y="43.505958"/>
     <use style="stroke:#000000;" x="244.820025" xlink:href="#m611190b18f" y="43.475904"/>
     <use style="stroke:#000000;" x="245.840092" xlink:href="#m611190b18f" y="43.446462"/>
     <use style="stroke:#000000;" x="246.860158" xlink:href="#m611190b18f" y="43.418247"/>
     <use style="stroke:#000000;" x="247.880224" xlink:href="#m611190b18f" y="43.390646"/>
     <use style="stroke:#000000;" x="248.90029" xlink:href="#m611190b18f" y="43.363658"/>
     <use style="stroke:#000000;" x="249.920356" xlink:href="#m611190b18f" y="43.337283"/>
     <use style="stroke:#000000;" x="250.940422" xlink:href="#m611190b18f" y="43.311522"/>
     <use style="stroke:#000000;" x="251.960791" xlink:href="#m611190b18f" y="43.286374"/>
     <use style="stroke:#000000;" x="252.980857" xlink:href="#m611190b18f" y="43.262453"/>
     <use style="stroke:#000000;" x="254.000923" xlink:href="#m611190b18f" y="43.238531"/>
     <use style="stroke:#000000;" x="255.020989" xlink:href="#m611190b18f" y="43.215837"/>
     <use style="stroke:#000000;" x="256.041055" xlink:href="#m611190b18f" y="43.193142"/>
     <use style="stroke:#000000;" x="257.061121" xlink:href="#m611190b18f" y="43.171061"/>
     <use style="stroke:#000000;" x="258.081188" xlink:href="#m611190b18f" y="43.150207"/>
     <use style="stroke:#000000;" x="259.101254" xlink:href="#m611190b18f" y="43.129352"/>
     <use style="stroke:#000000;" x="260.121622" xlink:href="#m611190b18f" y="43.109111"/>
     <use style="stroke:#000000;" x="261.141688" xlink:href="#m611190b18f" y="43.08887"/>
     <use style="stroke:#000000;" x="262.161755" xlink:href="#m611190b18f" y="43.069856"/>
     <use style="stroke:#000000;" x="263.181821" xlink:href="#m611190b18f" y="43.050842"/>
     <use style="stroke:#000000;" x="264.201887" xlink:href="#m611190b18f" y="43.033054"/>
     <use style="stroke:#000000;" x="265.221953" xlink:href="#m611190b18f" y="43.015267"/>
     <use style="stroke:#000000;" x="266.242019" xlink:href="#m611190b18f" y="42.997479"/>
     <use style="stroke:#000000;" x="267.262085" xlink:href="#m611190b18f" y="42.980918"/>
     <use style="stroke:#000000;" x="268.282454" xlink:href="#m611190b18f" y="42.964357"/>
     <use style="stroke:#000000;" x="269.30252" xlink:href="#m611190b18f" y="42.947796"/>
     <use style="stroke:#000000;" x="270.322586" xlink:href="#m611190b18f" y="42.932462"/>
     <use style="stroke:#000000;" x="271.342652" xlink:href="#m611190b18f" y="42.917128"/>
     <use style="stroke:#000000;" x="272.362718" xlink:href="#m611190b18f" y="42.901794"/>
     <use style="stroke:#000000;" x="273.382785" xlink:href="#m611190b18f" y="42.887687"/>
     <use style="stroke:#000000;" x="274.402851" xlink:href="#m611190b18f" y="42.872966"/>
     <use style="stroke:#000000;" x="275.423219" xlink:href="#m611190b18f" y="42.859472"/>
     <use style="stroke:#000000;" x="276.443285" xlink:href="#m611190b18f" y="42.845978"/>
     <use style="stroke:#000000;" x="277.463351" xlink:href="#m611190b18f" y="42.832484"/>
     <use style="stroke:#000000;" x="278.483418" xlink:href="#m611190b18f" y="42.819603"/>
     <use style="stroke:#000000;" x="279.503484" xlink:href="#m611190b18f" y="42.807336"/>
     <use style="stroke:#000000;" x="280.52355" xlink:href="#m611190b18f" y="42.795068"/>
     <use style="stroke:#000000;" x="281.543616" xlink:href="#m611190b18f" y="42.782801"/>
     <use style="stroke:#000000;" x="283.075529" xlink:href="#m611190b18f" y="42.765627"/>
     <use style="stroke:#000000;" x="284.60714" xlink:href="#m611190b18f" y="42.749066"/>
     <use style="stroke:#000000;" x="286.138751" xlink:href="#m611190b18f" y="42.732505"/>
     <use style="stroke:#000000;" x="287.670664" xlink:href="#m611190b18f" y="42.717171"/>
     <use style="stroke:#000000;" x="289.202275" xlink:href="#m611190b18f" y="42.701837"/>
     <use style="stroke:#000000;" x="290.733886" xlink:href="#m611190b18f" y="42.687116"/>
     <use style="stroke:#000000;" x="292.265799" xlink:href="#m611190b18f" y="42.673622"/>
     <use style="stroke:#000000;" x="293.79741" xlink:href="#m611190b18f" y="42.660128"/>
     <use style="stroke:#000000;" x="295.329021" xlink:href="#m611190b18f" y="42.646634"/>
     <use style="stroke:#000000;" x="296.860934" xlink:href="#m611190b18f" y="42.634367"/>
     <use style="stroke:#000000;" x="298.392545" xlink:href="#m611190b18f" y="42.6221"/>
     <use style="stroke:#000000;" x="299.924156" xlink:href="#m611190b18f" y="42.610446"/>
     <use style="stroke:#000000;" x="301.456069" xlink:href="#m611190b18f" y="42.598792"/>
     <use style="stroke:#000000;" x="302.98768" xlink:href="#m611190b18f" y="42.587751"/>
     <use style="stroke:#000000;" x="304.519593" xlink:href="#m611190b18f" y="42.577324"/>
     <use style="stroke:#000000;" x="306.051204" xlink:href="#m611190b18f" y="42.56751"/>
     <use style="stroke:#000000;" x="307.582815" xlink:href="#m611190b18f" y="42.557696"/>
     <use style="stroke:#000000;" x="309.114728" xlink:href="#m611190b18f" y="42.547882"/>
     <use style="stroke:#000000;" x="310.646339" xlink:href="#m611190b18f" y="42.538682"/>
     <use style="stroke:#000000;" x="312.17795" xlink:href="#m611190b18f" y="42.529481"/>
     <use style="stroke:#000000;" x="313.709863" xlink:href="#m611190b18f" y="42.520894"/>
     <use style="stroke:#000000;" x="315.241474" xlink:href="#m611190b18f" y="42.512921"/>
     <use style="stroke:#000000;" x="316.773085" xlink:href="#m611190b18f" y="42.504947"/>
     <use style="stroke:#000000;" x="318.304998" xlink:href="#m611190b18f" y="42.496973"/>
     <use style="stroke:#000000;" x="319.836609" xlink:href="#m611190b18f" y="42.489613"/>
     <use style="stroke:#000000;" x="321.36822" xlink:href="#m611190b18f" y="42.482252"/>
     <use style="stroke:#000000;" x="322.900133" xlink:href="#m611190b18f" y="42.475505"/>
     <use style="stroke:#000000;" x="324.431744" xlink:href="#m611190b18f" y="42.468145"/>
     <use style="stroke:#000000;" x="325.963355" xlink:href="#m611190b18f" y="42.462011"/>
     <use style="stroke:#000000;" x="327.495268" xlink:href="#m611190b18f" y="42.455264"/>
     <use style="stroke:#000000;" x="329.026879" xlink:href="#m611190b18f" y="42.449131"/>
     <use style="stroke:#000000;" x="330.55849" xlink:href="#m611190b18f" y="42.442997"/>
     <use style="stroke:#000000;" x="332.090403" xlink:href="#m611190b18f" y="42.437477"/>
     <use style="stroke:#000000;" x="333.622014" xlink:href="#m611190b18f" y="42.431956"/>
     <use style="stroke:#000000;" x="335.153625" xlink:href="#m611190b18f" y="42.426436"/>
     <use style="stroke:#000000;" x="336.685538" xlink:href="#m611190b18f" y="42.421529"/>
     <use style="stroke:#000000;" x="338.217149" xlink:href="#m611190b18f" y="42.416009"/>
     <use style="stroke:#000000;" x="339.74876" xlink:href="#m611190b18f" y="42.411102"/>
     <use style="stroke:#000000;" x="341.280673" xlink:href="#m611190b18f" y="42.406195"/>
     <use style="stroke:#000000;" x="342.812284" xlink:href="#m611190b18f" y="42.401902"/>
     <use style="stroke:#000000;" x="344.343895" xlink:href="#m611190b18f" y="42.397608"/>
     <use style="stroke:#000000;" x="345.875808" xlink:href="#m611190b18f" y="42.393314"/>
     <use style="stroke:#000000;" x="347.407419" xlink:href="#m611190b18f" y="42.389021"/>
     <use style="stroke:#000000;" x="348.939332" xlink:href="#m611190b18f" y="42.384727"/>
     <use style="stroke:#000000;" x="350.470943" xlink:href="#m611190b18f" y="42.381047"/>
     <use style="stroke:#000000;" x="352.002554" xlink:href="#m611190b18f" y="42.376754"/>
     <use style="stroke:#000000;" x="353.534467" xlink:href="#m611190b18f" y="42.373073"/>
     <use style="stroke:#000000;" x="355.066078" xlink:href="#m611190b18f" y="42.369393"/>
     <use style="stroke:#000000;" x="356.597689" xlink:href="#m611190b18f" y="42.366326"/>
     <use style="stroke:#000000;" x="358.129602" xlink:href="#m611190b18f" y="42.362646"/>
     <use style="stroke:#000000;" x="359.661213" xlink:href="#m611190b18f" y="42.359579"/>
     <use style="stroke:#000000;" x="361.192824" xlink:href="#m611190b18f" y="42.356513"/>
     <use style="stroke:#000000;" x="362.724737" xlink:href="#m611190b18f" y="42.353446"/>
     <use style="stroke:#000000;" x="364.256348" xlink:href="#m611190b18f" y="42.350379"/>
     <use style="stroke:#000000;" x="365.787959" xlink:href="#m611190b18f" y="42.347312"/>
     <use style="stroke:#000000;" x="367.319872" xlink:href="#m611190b18f" y="42.344245"/>
     <use style="stroke:#000000;" x="368.851483" xlink:href="#m611190b18f" y="42.341792"/>
     <use style="stroke:#000000;" x="370.383093" xlink:href="#m611190b18f" y="42.338725"/>
     <use style="stroke:#000000;" x="371.914704" xlink:href="#m611190b18f" y="42.336271"/>
    </g>
   </g>
   <g id="line2d_17">
    <path clip-path="url(#p8ea0223505)" d="M 68.546307 220.473029 
L 68.778195 220.367309 
L 69.075387 219.960311 
L 69.483534 219.009152 
L 70.121453 216.866932 
L 71.058681 212.833956 
L 72.869646 203.852892 
L 77.102285 182.851723 
L 80.065133 169.334455 
L 82.846582 157.609865 
L 85.567565 147.029045 
L 88.349014 137.0843 
L 91.00953 128.355631 
L 93.700279 120.257533 
L 96.542195 112.44797 
L 99.38411 105.345099 
L 101.802761 99.811266 
L 104.523744 94.09699 
L 107.244726 88.882617 
L 109.965709 84.129781 
L 112.686691 79.799729 
L 115.407674 75.849702 
L 118.326684 72.000933 
L 121.387184 68.33963 
L 124.447383 65.037044 
L 127.507581 62.056674 
L 130.568082 59.360305 
L 133.62828 56.920471 
L 136.688781 54.713783 
L 139.74898 52.71144 
L 143.829244 50.328881 
L 147.909811 48.242342 
L 153.010444 45.9793 
L 158.110775 44.054629 
L 163.211408 42.405428 
L 168.312041 40.997725 
L 174.432438 39.571307 
L 180.553137 38.387129 
L 187.693903 37.254648 
L 195.854734 36.224164 
L 205.035632 35.327379 
L 215.236898 34.573623 
L 227.477994 33.916414 
L 241.759525 33.385614 
L 260.121622 32.943622 
L 284.60714 32.59978 
L 319.836609 32.351647 
L 371.914704 32.206826 
L 371.914704 32.206826 
" style="fill:none;stroke:#0000ff;stroke-dasharray:5.55,2.4;stroke-dashoffset:0;stroke-width:1.5;"/>
   </g>
   <g id="line2d_18">
    <path clip-path="url(#p8ea0223505)" d="M 68.546307 229.874488 
L 68.761869 229.770069 
L 69.0512 229.344229 
L 69.483534 228.239135 
L 70.121453 225.907572 
L 71.173567 221.100458 
L 76.830187 194.054586 
L 79.55117 182.611095 
L 82.453551 171.379411 
L 85.386166 160.921011 
L 88.349014 151.180054 
L 91.311861 142.20809 
L 94.304942 133.870826 
L 96.995692 126.957889 
L 99.686441 120.560916 
L 102.709755 113.953076 
L 105.733069 107.916351 
L 108.454052 102.938126 
L 111.175034 98.358175 
L 113.896017 94.144722 
L 116.628488 90.262944 
L 119.34675 86.725804 
L 122.407251 83.09793 
L 125.467449 79.811484 
L 128.527647 76.838322 
L 131.588148 74.148343 
L 134.648347 71.720527 
L 137.708847 69.525874 
L 141.789112 66.926827 
L 145.869679 64.668744 
L 149.949943 62.691434 
L 154.03051 60.972874 
L 158.110775 59.479374 
L 162.191342 58.180439 
L 167.291975 56.777854 
L 172.392306 55.592271 
L 178.513005 54.415958 
L 184.633704 53.45163 
L 191.774469 52.536204 
L 199.935301 51.715699 
L 208.096132 51.081581 
L 219.317162 50.427095 
L 232.578627 49.887946 
L 248.90029 49.449181 
L 270.322586 49.100382 
L 301.456069 48.832013 
L 352.002554 48.647069 
L 371.914704 48.603365 
L 371.914704 48.603365 
" style="fill:none;stroke:#0000ff;stroke-dasharray:5.55,2.4;stroke-dashoffset:0;stroke-width:1.5;"/>
   </g>
   <g id="line2d_19"/>
   <g id="line2d_20"/>
   <g id="line2d_21"/>
   <g id="line2d_22"/>
   <g id="line2d_23"/>
   <g id="line2d_24"/>
   <g id="patch_3">
    <path d="M 53.328125 239.758125 
L 53.328125 22.318125 
" style="fill:none;stroke:#000000;stroke-linecap:square;stroke-linejoin:miter;stroke-width:0.8;"/>
   </g>
   <g id="patch_4">
    <path d="M 388.128125 239.758125 
L 388.128125 22.318125 
" style="fill:none;stroke:#000000;stroke-linecap:square;stroke-linejoin:miter;stroke-width:0.8;"/>
   </g>
   <g id="patch_5">
    <path d="M 53.328125 239.758125 
L 388.128125 239.758125 
" style="fill:none;stroke:#000000;stroke-linecap:square;stroke-linejoin:miter;stroke-width:0.8;"/>
   </g>
   <g id="patch_6">
    <path d="M 53.328125 22.318125 
L 388.128125 22.318125 
" style="fill:none;stroke:#000000;stroke-linecap:square;stroke-linejoin:miter;stroke-width:0.8;"/>
   </g>
   <g id="text_16">
    <!-- Experiment_24 -->
    <defs>
     <path d="M 9.8125 72.90625 
L 55.90625 72.90625 
L 55.90625 64.59375 
L 19.671875 64.59375 
L 19.671875 43.015625 
L 54.390625 43.015625 
L 54.390625 34.71875 
L 19.671875 34.71875 
L 19.671875 8.296875 
L 56.78125 8.296875 
L 56.78125 0 
L 9.8125 0 
z
" id="DejaVuSans-69"/>
     <path d="M 54.890625 54.6875 
L 35.109375 28.078125 
L 55.90625 0 
L 45.3125 0 
L 29.390625 21.484375 
L 13.484375 0 
L 2.875 0 
L 24.125 28.609375 
L 4.6875 54.6875 
L 15.28125 54.6875 
L 29.78125 35.203125 
L 44.28125 54.6875 
z
" id="DejaVuSans-120"/>
     <path d="M 41.109375 46.296875 
Q 39.59375 47.171875 37.8125 47.578125 
Q 36.03125 48 33.890625 48 
Q 26.265625 48 22.1875 43.046875 
Q 18.109375 38.09375 18.109375 28.8125 
L 18.109375 0 
L 9.078125 0 
L 9.078125 54.6875 
L 18.109375 54.6875 
L 18.109375 46.1875 
Q 20.953125 51.171875 25.484375 53.578125 
Q 30.03125 56 36.53125 56 
Q 37.453125 56 38.578125 55.875 
Q 39.703125 55.765625 41.0625 55.515625 
z
" id="DejaVuSans-114"/>
     <path d="M 54.890625 33.015625 
L 54.890625 0 
L 45.90625 0 
L 45.90625 32.71875 
Q 45.90625 40.484375 42.875 44.328125 
Q 39.84375 48.1875 33.796875 48.1875 
Q 26.515625 48.1875 22.3125 43.546875 
Q 18.109375 38.921875 18.109375 30.90625 
L 18.109375 0 
L 9.078125 0 
L 9.078125 54.6875 
L 18.109375 54.6875 
L 18.109375 46.1875 
Q 21.34375 51.125 25.703125 53.5625 
Q 30.078125 56 35.796875 56 
Q 45.21875 56 50.046875 50.171875 
Q 54.890625 44.34375 54.890625 33.015625 
z
" id="DejaVuSans-110"/>
     <path d="M 18.3125 70.21875 
L 18.3125 54.6875 
L 36.8125 54.6875 
L 36.8125 47.703125 
L 18.3125 47.703125 
L 18.3125 18.015625 
Q 18.3125 11.328125 20.140625 9.421875 
Q 21.96875 7.515625 27.59375 7.515625 
L 36.8125 7.515625 
L 36.8125 0 
L 27.59375 0 
Q 17.1875 0 13.234375 3.875 
Q 9.28125 7.765625 9.28125 18.015625 
L 9.28125 47.703125 
L 2.6875 47.703125 
L 2.6875 54.6875 
L 9.28125 54.6875 
L 9.28125 70.21875 
z
" id="DejaVuSans-116"/>
     <path d="M 50.984375 -16.609375 
L 50.984375 -23.578125 
L -0.984375 -23.578125 
L -0.984375 -16.609375 
z
" id="DejaVuSans-95"/>
    </defs>
    <g transform="translate(175.425313 16.318125)scale(0.12 -0.12)">
     <use xlink:href="#DejaVuSans-69"/>
     <use x="63.183594" xlink:href="#DejaVuSans-120"/>
     <use x="122.363281" xlink:href="#DejaVuSans-112"/>
     <use x="185.839844" xlink:href="#DejaVuSans-101"/>
     <use x="247.363281" xlink:href="#DejaVuSans-114"/>
     <use x="288.476562" xlink:href="#DejaVuSans-105"/>
     <use x="316.259766" xlink:href="#DejaVuSans-109"/>
     <use x="413.671875" xlink:href="#DejaVuSans-101"/>
     <use x="475.195312" xlink:href="#DejaVuSans-110"/>
     <use x="538.574219" xlink:href="#DejaVuSans-116"/>
     <use x="577.783203" xlink:href="#DejaVuSans-95"/>
     <use x="627.783203" xlink:href="#DejaVuSans-50"/>
     <use x="691.40625" xlink:href="#DejaVuSans-52"/>
    </g>
   </g>
   <g id="legend_1">
    <g id="patch_7">
     <path d="M 125.007812 234.758125 
L 381.128125 234.758125 
Q 383.128125 234.758125 383.128125 232.758125 
L 383.128125 160.345625 
Q 383.128125 158.345625 381.128125 158.345625 
L 125.007812 158.345625 
Q 123.007812 158.345625 123.007812 160.345625 
L 123.007812 232.758125 
Q 123.007812 234.758125 125.007812 234.758125 
z
" style="fill:#ffffff;opacity:0.8;stroke:#cccccc;stroke-linejoin:miter;"/>
    </g>
    <g id="line2d_25">
     <path d="M 127.007812 166.444062 
L 147.007812 166.444062 
" style="fill:none;stroke:#0000ff;stroke-linecap:square;stroke-width:1.5;"/>
    </g>
    <g id="line2d_26"/>
    <g id="text_17">
     <!-- MSI -->
     <defs>
      <path d="M 9.8125 72.90625 
L 24.515625 72.90625 
L 43.109375 23.296875 
L 61.8125 72.90625 
L 76.515625 72.90625 
L 76.515625 0 
L 66.890625 0 
L 66.890625 64.015625 
L 48.09375 14.015625 
L 38.1875 14.015625 
L 19.390625 64.015625 
L 19.390625 0 
L 9.8125 0 
z
" id="DejaVuSans-77"/>
      <path d="M 53.515625 70.515625 
L 53.515625 60.890625 
Q 47.90625 63.578125 42.921875 64.890625 
Q 37.9375 66.21875 33.296875 66.21875 
Q 25.25 66.21875 20.875 63.09375 
Q 16.5 59.96875 16.5 54.203125 
Q 16.5 49.359375 19.40625 46.890625 
Q 22.3125 44.4375 30.421875 42.921875 
L 36.375 41.703125 
Q 47.40625 39.59375 52.65625 34.296875 
Q 57.90625 29 57.90625 20.125 
Q 57.90625 9.515625 50.796875 4.046875 
Q 43.703125 -1.421875 29.984375 -1.421875 
Q 24.8125 -1.421875 18.96875 -0.25 
Q 13.140625 0.921875 6.890625 3.21875 
L 6.890625 13.375 
Q 12.890625 10.015625 18.65625 8.296875 
Q 24.421875 6.59375 29.984375 6.59375 
Q 38.421875 6.59375 43.015625 9.90625 
Q 47.609375 13.234375 47.609375 19.390625 
Q 47.609375 24.75 44.3125 27.78125 
Q 41.015625 30.8125 33.5 32.328125 
L 27.484375 33.5 
Q 16.453125 35.6875 11.515625 40.375 
Q 6.59375 45.0625 6.59375 53.421875 
Q 6.59375 63.09375 13.40625 68.65625 
Q 20.21875 74.21875 32.171875 74.21875 
Q 37.3125 74.21875 42.625 73.28125 
Q 47.953125 72.359375 53.515625 70.515625 
z
" id="DejaVuSans-83"/>
      <path d="M 9.8125 72.90625 
L 19.671875 72.90625 
L 19.671875 0 
L 9.8125 0 
z
" id="DejaVuSans-73"/>
     </defs>
     <g transform="translate(155.007812 169.944062)scale(0.1 -0.1)">
      <use xlink:href="#DejaVuSans-77"/>
      <use x="86.279297" xlink:href="#DejaVuSans-83"/>
      <use x="149.755859" xlink:href="#DejaVuSans-73"/>
     </g>
    </g>
    <g id="line2d_27">
     <path d="M 127.007812 181.12375 
L 147.007812 181.12375 
" style="fill:none;stroke:#ff0000;stroke-linecap:square;stroke-width:1.5;"/>
    </g>
    <g id="line2d_28"/>
    <g id="text_18">
     <!-- $\it{A priori}$ model -->
     <defs>
      <path d="M 36.8125 72.90625 
L 48 72.90625 
L 61.53125 0 
L 51.21875 0 
L 48.1875 18.703125 
L 15.375 18.703125 
L 5.078125 0 
L -5.328125 0 
z
M 40.375 63.1875 
L 19.921875 26.90625 
L 46.6875 26.90625 
z
" id="DejaVuSans-Oblique-65"/>
      <path d="M 49.609375 33.6875 
Q 49.609375 40.875 46.484375 44.671875 
Q 43.359375 48.484375 37.5 48.484375 
Q 33.5 48.484375 29.859375 46.4375 
Q 26.21875 44.390625 23.390625 40.484375 
Q 20.609375 36.625 18.9375 31.15625 
Q 17.28125 25.6875 17.28125 20.3125 
Q 17.28125 13.484375 20.40625 9.796875 
Q 23.53125 6.109375 29.296875 6.109375 
Q 33.546875 6.109375 37.1875 8.109375 
Q 40.828125 10.109375 43.40625 13.921875 
Q 46.1875 17.921875 47.890625 23.34375 
Q 49.609375 28.765625 49.609375 33.6875 
z
M 21.78125 46.390625 
Q 25.390625 51.125 30.296875 53.5625 
Q 35.203125 56 41.21875 56 
Q 49.609375 56 54.25 50.5 
Q 58.890625 45.015625 58.890625 35.109375 
Q 58.890625 27 56 19.65625 
Q 53.125 12.3125 47.703125 6.5 
Q 44.09375 2.640625 39.546875 0.609375 
Q 35.015625 -1.421875 29.984375 -1.421875 
Q 24.171875 -1.421875 20.21875 1 
Q 16.265625 3.421875 14.3125 8.203125 
L 8.6875 -20.796875 
L -0.296875 -20.796875 
L 14.40625 54.6875 
L 23.390625 54.6875 
z
" id="DejaVuSans-Oblique-112"/>
      <path d="M 44.578125 46.390625 
Q 43.21875 47.125 41.453125 47.515625 
Q 39.703125 47.90625 37.703125 47.90625 
Q 30.515625 47.90625 25.140625 42.453125 
Q 19.78125 37.015625 18.015625 27.875 
L 12.5 0 
L 3.515625 0 
L 14.203125 54.6875 
L 23.1875 54.6875 
L 21.484375 46.1875 
Q 25.046875 50.921875 30 53.453125 
Q 34.96875 56 40.578125 56 
Q 42.046875 56 43.453125 55.828125 
Q 44.875 55.671875 46.296875 55.28125 
z
" id="DejaVuSans-Oblique-114"/>
      <path d="M 18.3125 75.984375 
L 27.296875 75.984375 
L 25.09375 64.59375 
L 16.109375 64.59375 
z
M 14.203125 54.6875 
L 23.1875 54.6875 
L 12.5 0 
L 3.515625 0 
z
" id="DejaVuSans-Oblique-105"/>
      <path d="M 25.390625 -1.421875 
Q 15.765625 -1.421875 10.171875 4.515625 
Q 4.59375 10.453125 4.59375 20.703125 
Q 4.59375 26.65625 6.515625 32.828125 
Q 8.453125 39.015625 11.53125 43.21875 
Q 16.359375 49.75 22.3125 52.875 
Q 28.265625 56 35.796875 56 
Q 45.125 56 50.859375 50.1875 
Q 56.59375 44.390625 56.59375 35.015625 
Q 56.59375 28.515625 54.6875 22.0625 
Q 52.78125 15.625 49.703125 11.375 
Q 44.921875 4.828125 38.96875 1.703125 
Q 33.015625 -1.421875 25.390625 -1.421875 
z
M 13.921875 21 
Q 13.921875 13.578125 17.015625 9.890625 
Q 20.125 6.203125 26.421875 6.203125 
Q 35.453125 6.203125 41.375 14.078125 
Q 47.3125 21.96875 47.3125 34.078125 
Q 47.3125 41.15625 44.140625 44.765625 
Q 40.96875 48.390625 34.8125 48.390625 
Q 29.734375 48.390625 25.78125 46.015625 
Q 21.828125 43.65625 18.703125 38.8125 
Q 16.40625 35.203125 15.15625 30.5625 
Q 13.921875 25.921875 13.921875 21 
z
" id="DejaVuSans-Oblique-111"/>
      <path d="M 30.609375 48.390625 
Q 23.390625 48.390625 19.1875 42.75 
Q 14.984375 37.109375 14.984375 27.296875 
Q 14.984375 17.484375 19.15625 11.84375 
Q 23.34375 6.203125 30.609375 6.203125 
Q 37.796875 6.203125 41.984375 11.859375 
Q 46.1875 17.53125 46.1875 27.296875 
Q 46.1875 37.015625 41.984375 42.703125 
Q 37.796875 48.390625 30.609375 48.390625 
z
M 30.609375 56 
Q 42.328125 56 49.015625 48.375 
Q 55.71875 40.765625 55.71875 27.296875 
Q 55.71875 13.875 49.015625 6.21875 
Q 42.328125 -1.421875 30.609375 -1.421875 
Q 18.84375 -1.421875 12.171875 6.21875 
Q 5.515625 13.875 5.515625 27.296875 
Q 5.515625 40.765625 12.171875 48.375 
Q 18.84375 56 30.609375 56 
z
" id="DejaVuSans-111"/>
      <path d="M 45.40625 46.390625 
L 45.40625 75.984375 
L 54.390625 75.984375 
L 54.390625 0 
L 45.40625 0 
L 45.40625 8.203125 
Q 42.578125 3.328125 38.25 0.953125 
Q 33.9375 -1.421875 27.875 -1.421875 
Q 17.96875 -1.421875 11.734375 6.484375 
Q 5.515625 14.40625 5.515625 27.296875 
Q 5.515625 40.1875 11.734375 48.09375 
Q 17.96875 56 27.875 56 
Q 33.9375 56 38.25 53.625 
Q 42.578125 51.265625 45.40625 46.390625 
z
M 14.796875 27.296875 
Q 14.796875 17.390625 18.875 11.75 
Q 22.953125 6.109375 30.078125 6.109375 
Q 37.203125 6.109375 41.296875 11.75 
Q 45.40625 17.390625 45.40625 27.296875 
Q 45.40625 37.203125 41.296875 42.84375 
Q 37.203125 48.484375 30.078125 48.484375 
Q 22.953125 48.484375 18.875 42.84375 
Q 14.796875 37.203125 14.796875 27.296875 
z
" id="DejaVuSans-100"/>
      <path d="M 9.421875 75.984375 
L 18.40625 75.984375 
L 18.40625 0 
L 9.421875 0 
z
" id="DejaVuSans-108"/>
     </defs>
     <g transform="translate(155.007812 184.62375)scale(0.1 -0.1)">
      <use transform="translate(0 0.015625)" xlink:href="#DejaVuSans-Oblique-65"/>
      <use transform="translate(68.408203 0.015625)" xlink:href="#DejaVuSans-Oblique-112"/>
      <use transform="translate(131.884766 0.015625)" xlink:href="#DejaVuSans-Oblique-114"/>
      <use transform="translate(172.998047 0.015625)" xlink:href="#DejaVuSans-Oblique-105"/>
      <use transform="translate(200.78125 0.015625)" xlink:href="#DejaVuSans-Oblique-111"/>
      <use transform="translate(261.962891 0.015625)" xlink:href="#DejaVuSans-Oblique-114"/>
      <use transform="translate(303.076172 0.015625)" xlink:href="#DejaVuSans-Oblique-105"/>
      <use transform="translate(330.859375 0.015625)" xlink:href="#DejaVuSans-32"/>
      <use transform="translate(362.646484 0.015625)" xlink:href="#DejaVuSans-109"/>
      <use transform="translate(460.058594 0.015625)" xlink:href="#DejaVuSans-111"/>
      <use transform="translate(521.240234 0.015625)" xlink:href="#DejaVuSans-100"/>
      <use transform="translate(584.716797 0.015625)" xlink:href="#DejaVuSans-101"/>
      <use transform="translate(646.240234 0.015625)" xlink:href="#DejaVuSans-108"/>
     </g>
    </g>
    <g id="line2d_29"/>
    <g id="line2d_30">
     <g>
      <use style="stroke:#000000;" x="137.007812" xlink:href="#m611190b18f" y="195.822187"/>
     </g>
    </g>
    <g id="text_19">
     <!-- Experimental Data -->
     <defs>
      <path d="M 34.28125 27.484375 
Q 23.390625 27.484375 19.1875 25 
Q 14.984375 22.515625 14.984375 16.5 
Q 14.984375 11.71875 18.140625 8.90625 
Q 21.296875 6.109375 26.703125 6.109375 
Q 34.1875 6.109375 38.703125 11.40625 
Q 43.21875 16.703125 43.21875 25.484375 
L 43.21875 27.484375 
z
M 52.203125 31.203125 
L 52.203125 0 
L 43.21875 0 
L 43.21875 8.296875 
Q 40.140625 3.328125 35.546875 0.953125 
Q 30.953125 -1.421875 24.3125 -1.421875 
Q 15.921875 -1.421875 10.953125 3.296875 
Q 6 8.015625 6 15.921875 
Q 6 25.140625 12.171875 29.828125 
Q 18.359375 34.515625 30.609375 34.515625 
L 43.21875 34.515625 
L 43.21875 35.40625 
Q 43.21875 41.609375 39.140625 45 
Q 35.0625 48.390625 27.6875 48.390625 
Q 23 48.390625 18.546875 47.265625 
Q 14.109375 46.140625 10.015625 43.890625 
L 10.015625 52.203125 
Q 14.9375 54.109375 19.578125 55.046875 
Q 24.21875 56 28.609375 56 
Q 40.484375 56 46.34375 49.84375 
Q 52.203125 43.703125 52.203125 31.203125 
z
" id="DejaVuSans-97"/>
      <path d="M 19.671875 64.796875 
L 19.671875 8.109375 
L 31.59375 8.109375 
Q 46.6875 8.109375 53.6875 14.9375 
Q 60.6875 21.78125 60.6875 36.53125 
Q 60.6875 51.171875 53.6875 57.984375 
Q 46.6875 64.796875 31.59375 64.796875 
z
M 9.8125 72.90625 
L 30.078125 72.90625 
Q 51.265625 72.90625 61.171875 64.09375 
Q 71.09375 55.28125 71.09375 36.53125 
Q 71.09375 17.671875 61.125 8.828125 
Q 51.171875 0 30.078125 0 
L 9.8125 0 
z
" id="DejaVuSans-68"/>
     </defs>
     <g transform="translate(155.007812 199.322187)scale(0.1 -0.1)">
      <use xlink:href="#DejaVuSans-69"/>
      <use x="63.183594" xlink:href="#DejaVuSans-120"/>
      <use x="122.363281" xlink:href="#DejaVuSans-112"/>
      <use x="185.839844" xlink:href="#DejaVuSans-101"/>
      <use x="247.363281" xlink:href="#DejaVuSans-114"/>
      <use x="288.476562" xlink:href="#DejaVuSans-105"/>
      <use x="316.259766" xlink:href="#DejaVuSans-109"/>
      <use x="413.671875" xlink:href="#DejaVuSans-101"/>
      <use x="475.195312" xlink:href="#DejaVuSans-110"/>
      <use x="538.574219" xlink:href="#DejaVuSans-116"/>
      <use x="577.783203" xlink:href="#DejaVuSans-97"/>
      <use x="639.0625" xlink:href="#DejaVuSans-108"/>
      <use x="666.845703" xlink:href="#DejaVuSans-32"/>
      <use x="698.632812" xlink:href="#DejaVuSans-68"/>
      <use x="775.634766" xlink:href="#DejaVuSans-97"/>
      <use x="836.914062" xlink:href="#DejaVuSans-116"/>
      <use x="876.123047" xlink:href="#DejaVuSans-97"/>
     </g>
    </g>
    <g id="line2d_31">
     <path d="M 127.007812 210.500312 
L 147.007812 210.500312 
" style="fill:none;stroke:#ffffff;stroke-linecap:square;stroke-width:1.5;"/>
    </g>
    <g id="line2d_32"/>
    <g id="text_20">
     <!-- T:1244 -->
     <defs>
      <path d="M 11.71875 12.40625 
L 22.015625 12.40625 
L 22.015625 0 
L 11.71875 0 
z
M 11.71875 51.703125 
L 22.015625 51.703125 
L 22.015625 39.3125 
L 11.71875 39.3125 
z
" id="DejaVuSans-58"/>
     </defs>
     <g transform="translate(155.007812 214.000312)scale(0.1 -0.1)">
      <use xlink:href="#DejaVuSans-84"/>
      <use x="60.912109" xlink:href="#DejaVuSans-58"/>
      <use x="94.603516" xlink:href="#DejaVuSans-49"/>
      <use x="158.226562" xlink:href="#DejaVuSans-50"/>
      <use x="221.849609" xlink:href="#DejaVuSans-52"/>
      <use x="285.472656" xlink:href="#DejaVuSans-52"/>
     </g>
    </g>
    <g id="line2d_33">
     <path d="M 127.007812 225.178437 
L 147.007812 225.178437 
" style="fill:none;stroke:#ffffff;stroke-linecap:square;stroke-width:1.5;"/>
    </g>
    <g id="line2d_34"/>
    <g id="text_21">
     <!-- P:1.546 -->
     <defs>
      <path d="M 19.671875 64.796875 
L 19.671875 37.40625 
L 32.078125 37.40625 
Q 38.96875 37.40625 42.71875 40.96875 
Q 46.484375 44.53125 46.484375 51.125 
Q 46.484375 57.671875 42.71875 61.234375 
Q 38.96875 64.796875 32.078125 64.796875 
z
M 9.8125 72.90625 
L 32.078125 72.90625 
Q 44.34375 72.90625 50.609375 67.359375 
Q 56.890625 61.8125 56.890625 51.125 
Q 56.890625 40.328125 50.609375 34.8125 
Q 44.34375 29.296875 32.078125 29.296875 
L 19.671875 29.296875 
L 19.671875 0 
L 9.8125 0 
z
" id="DejaVuSans-80"/>
     </defs>
     <g transform="translate(155.007812 228.678437)scale(0.1 -0.1)">
      <use xlink:href="#DejaVuSans-80"/>
      <use x="60.302734" xlink:href="#DejaVuSans-58"/>
      <use x="93.994141" xlink:href="#DejaVuSans-49"/>
      <use x="157.617188" xlink:href="#DejaVuSans-46"/>
      <use x="189.404297" xlink:href="#DejaVuSans-53"/>
      <use x="253.027344" xlink:href="#DejaVuSans-52"/>
      <use x="316.650391" xlink:href="#DejaVuSans-54"/>
     </g>
    </g>
    <g id="line2d_35">
     <path d="M 268.748438 166.444062 
L 288.748438 166.444062 
" style="fill:none;stroke:#ffffff;stroke-linecap:square;stroke-width:1.5;"/>
    </g>
    <g id="line2d_36"/>
    <g id="text_22">
     <!-- H2O2: 0.003036 -->
     <g transform="translate(296.748438 169.944062)scale(0.1 -0.1)">
      <use xlink:href="#DejaVuSans-72"/>
      <use x="75.195312" xlink:href="#DejaVuSans-50"/>
      <use x="138.818359" xlink:href="#DejaVuSans-79"/>
      <use x="217.529297" xlink:href="#DejaVuSans-50"/>
      <use x="281.152344" xlink:href="#DejaVuSans-58"/>
      <use x="314.84375" xlink:href="#DejaVuSans-32"/>
      <use x="346.630859" xlink:href="#DejaVuSans-48"/>
      <use x="410.253906" xlink:href="#DejaVuSans-46"/>
      <use x="442.041016" xlink:href="#DejaVuSans-48"/>
      <use x="505.664062" xlink:href="#DejaVuSans-48"/>
      <use x="569.287109" xlink:href="#DejaVuSans-51"/>
      <use x="632.910156" xlink:href="#DejaVuSans-48"/>
      <use x="696.533203" xlink:href="#DejaVuSans-51"/>
      <use x="760.15625" xlink:href="#DejaVuSans-54"/>
     </g>
    </g>
    <g id="line2d_37">
     <path d="M 268.748438 181.122187 
L 288.748438 181.122187 
" style="fill:none;stroke:#ffffff;stroke-linecap:square;stroke-width:1.5;"/>
    </g>
    <g id="line2d_38"/>
    <g id="text_23">
     <!-- H2O: 0.001113 -->
     <g transform="translate(296.748438 184.622187)scale(0.1 -0.1)">
      <use xlink:href="#DejaVuSans-72"/>
      <use x="75.195312" xlink:href="#DejaVuSans-50"/>
      <use x="138.818359" xlink:href="#DejaVuSans-79"/>
      <use x="217.513672" xlink:href="#DejaVuSans-58"/>
      <use x="251.205078" xlink:href="#DejaVuSans-32"/>
      <use x="282.992188" xlink:href="#DejaVuSans-48"/>
      <use x="346.615234" xlink:href="#DejaVuSans-46"/>
      <use x="378.402344" xlink:href="#DejaVuSans-48"/>
      <use x="442.025391" xlink:href="#DejaVuSans-48"/>
      <use x="505.648438" xlink:href="#DejaVuSans-49"/>
      <use x="569.271484" xlink:href="#DejaVuSans-49"/>
      <use x="632.894531" xlink:href="#DejaVuSans-49"/>
      <use x="696.517578" xlink:href="#DejaVuSans-51"/>
     </g>
    </g>
    <g id="line2d_39">
     <path d="M 268.748438 195.800312 
L 288.748438 195.800312 
" style="fill:none;stroke:#ffffff;stroke-linecap:square;stroke-width:1.5;"/>
    </g>
    <g id="line2d_40"/>
    <g id="text_24">
     <!-- O2: 0.000556 -->
     <g transform="translate(296.748438 199.300312)scale(0.1 -0.1)">
      <use xlink:href="#DejaVuSans-79"/>
      <use x="78.710938" xlink:href="#DejaVuSans-50"/>
      <use x="142.333984" xlink:href="#DejaVuSans-58"/>
      <use x="176.025391" xlink:href="#DejaVuSans-32"/>
      <use x="207.8125" xlink:href="#DejaVuSans-48"/>
      <use x="271.435547" xlink:href="#DejaVuSans-46"/>
      <use x="303.222656" xlink:href="#DejaVuSans-48"/>
      <use x="366.845703" xlink:href="#DejaVuSans-48"/>
      <use x="430.46875" xlink:href="#DejaVuSans-48"/>
      <use x="494.091797" xlink:href="#DejaVuSans-53"/>
      <use x="557.714844" xlink:href="#DejaVuSans-53"/>
      <use x="621.337891" xlink:href="#DejaVuSans-54"/>
     </g>
    </g>
    <g id="line2d_41">
     <path d="M 268.748438 210.478437 
L 288.748438 210.478437 
" style="fill:none;stroke:#ffffff;stroke-linecap:square;stroke-width:1.5;"/>
    </g>
    <g id="line2d_42"/>
    <g id="text_25">
     <!-- Ar: 0.99527 -->
     <defs>
      <path d="M 34.1875 63.1875 
L 20.796875 26.90625 
L 47.609375 26.90625 
z
M 28.609375 72.90625 
L 39.796875 72.90625 
L 67.578125 0 
L 57.328125 0 
L 50.6875 18.703125 
L 17.828125 18.703125 
L 11.1875 0 
L 0.78125 0 
z
" id="DejaVuSans-65"/>
      <path d="M 10.984375 1.515625 
L 10.984375 10.5 
Q 14.703125 8.734375 18.5 7.8125 
Q 22.3125 6.890625 25.984375 6.890625 
Q 35.75 6.890625 40.890625 13.453125 
Q 46.046875 20.015625 46.78125 33.40625 
Q 43.953125 29.203125 39.59375 26.953125 
Q 35.25 24.703125 29.984375 24.703125 
Q 19.046875 24.703125 12.671875 31.3125 
Q 6.296875 37.9375 6.296875 49.421875 
Q 6.296875 60.640625 12.9375 67.421875 
Q 19.578125 74.21875 30.609375 74.21875 
Q 43.265625 74.21875 49.921875 64.515625 
Q 56.59375 54.828125 56.59375 36.375 
Q 56.59375 19.140625 48.40625 8.859375 
Q 40.234375 -1.421875 26.421875 -1.421875 
Q 22.703125 -1.421875 18.890625 -0.6875 
Q 15.09375 0.046875 10.984375 1.515625 
z
M 30.609375 32.421875 
Q 37.25 32.421875 41.125 36.953125 
Q 45.015625 41.5 45.015625 49.421875 
Q 45.015625 57.28125 41.125 61.84375 
Q 37.25 66.40625 30.609375 66.40625 
Q 23.96875 66.40625 20.09375 61.84375 
Q 16.21875 57.28125 16.21875 49.421875 
Q 16.21875 41.5 20.09375 36.953125 
Q 23.96875 32.421875 30.609375 32.421875 
z
" id="DejaVuSans-57"/>
      <path d="M 8.203125 72.90625 
L 55.078125 72.90625 
L 55.078125 68.703125 
L 28.609375 0 
L 18.3125 0 
L 43.21875 64.59375 
L 8.203125 64.59375 
z
" id="DejaVuSans-55"/>
     </defs>
     <g transform="translate(296.748438 213.978437)scale(0.1 -0.1)">
      <use xlink:href="#DejaVuSans-65"/>
      <use x="68.408203" xlink:href="#DejaVuSans-114"/>
      <use x="109.505859" xlink:href="#DejaVuSans-58"/>
      <use x="143.197266" xlink:href="#DejaVuSans-32"/>
      <use x="174.984375" xlink:href="#DejaVuSans-48"/>
      <use x="238.607422" xlink:href="#DejaVuSans-46"/>
      <use x="270.394531" xlink:href="#DejaVuSans-57"/>
      <use x="334.017578" xlink:href="#DejaVuSans-57"/>
      <use x="397.640625" xlink:href="#DejaVuSans-53"/>
      <use x="461.263672" xlink:href="#DejaVuSans-50"/>
      <use x="524.886719" xlink:href="#DejaVuSans-55"/>
     </g>
    </g>
   </g>
  </g>
 </g>
 <defs>
  <clipPath id="p8ea0223505">
   <rect height="217.44" width="334.8" x="53.328125" y="22.318125"/>
  </clipPath>
 </defs>
</svg>
