<?xml version="1.0" encoding="utf-8" standalone="no"?>
<!DOCTYPE svg PUBLIC "-//W3C//DTD SVG 1.1//EN"
  "http://www.w3.org/Graphics/SVG/1.1/DTD/svg11.dtd">
<!-- Created with matplotlib (https://matplotlib.org/) -->
<svg height="277.314375pt" version="1.1" viewBox="0 0 398.828125 277.314375" width="398.828125pt" xmlns="http://www.w3.org/2000/svg" xmlns:xlink="http://www.w3.org/1999/xlink">
 <defs>
  <style type="text/css">
*{stroke-linecap:butt;stroke-linejoin:round;}
  </style>
 </defs>
 <g id="figure_1">
  <g id="patch_1">
   <path d="M 0 277.314375 
L 398.828125 277.314375 
L 398.828125 0 
L 0 0 
z
" style="fill:none;"/>
  </g>
  <g id="axes_1">
   <g id="patch_2">
    <path d="M 53.328125 239.758125 
L 388.128125 239.758125 
L 388.128125 22.318125 
L 53.328125 22.318125 
z
" style="fill:none;"/>
   </g>
   <g id="matplotlib.axis_1">
    <g id="xtick_1">
     <g id="line2d_1">
      <defs>
       <path d="M 0 0 
L 0 3.5 
" id="md30a0efcbe" style="stroke:#000000;stroke-width:0.8;"/>
      </defs>
      <g>
       <use style="stroke:#000000;stroke-width:0.8;" x="68.546307" xlink:href="#md30a0efcbe" y="239.758125"/>
      </g>
     </g>
     <g id="text_1">
      <!-- 0.0 -->
      <defs>
       <path d="M 31.78125 66.40625 
Q 24.171875 66.40625 20.328125 58.90625 
Q 16.5 51.421875 16.5 36.375 
Q 16.5 21.390625 20.328125 13.890625 
Q 24.171875 6.390625 31.78125 6.390625 
Q 39.453125 6.390625 43.28125 13.890625 
Q 47.125 21.390625 47.125 36.375 
Q 47.125 51.421875 43.28125 58.90625 
Q 39.453125 66.40625 31.78125 66.40625 
z
M 31.78125 74.21875 
Q 44.046875 74.21875 50.515625 64.515625 
Q 56.984375 54.828125 56.984375 36.375 
Q 56.984375 17.96875 50.515625 8.265625 
Q 44.046875 -1.421875 31.78125 -1.421875 
Q 19.53125 -1.421875 13.0625 8.265625 
Q 6.59375 17.96875 6.59375 36.375 
Q 6.59375 54.828125 13.0625 64.515625 
Q 19.53125 74.21875 31.78125 74.21875 
z
" id="DejaVuSans-48"/>
       <path d="M 10.6875 12.40625 
L 21 12.40625 
L 21 0 
L 10.6875 0 
z
" id="DejaVuSans-46"/>
      </defs>
      <g transform="translate(60.594744 254.356562)scale(0.1 -0.1)">
       <use xlink:href="#DejaVuSans-48"/>
       <use x="63.623047" xlink:href="#DejaVuSans-46"/>
       <use x="95.410156" xlink:href="#DejaVuSans-48"/>
      </g>
     </g>
    </g>
    <g id="xtick_2">
     <g id="line2d_2">
      <g>
       <use style="stroke:#000000;stroke-width:0.8;" x="129.122122" xlink:href="#md30a0efcbe" y="239.758125"/>
      </g>
     </g>
     <g id="text_2">
      <!-- 0.2 -->
      <defs>
       <path d="M 19.1875 8.296875 
L 53.609375 8.296875 
L 53.609375 0 
L 7.328125 0 
L 7.328125 8.296875 
Q 12.9375 14.109375 22.625 23.890625 
Q 32.328125 33.6875 34.8125 36.53125 
Q 39.546875 41.84375 41.421875 45.53125 
Q 43.3125 49.21875 43.3125 52.78125 
Q 43.3125 58.59375 39.234375 62.25 
Q 35.15625 65.921875 28.609375 65.921875 
Q 23.96875 65.921875 18.8125 64.3125 
Q 13.671875 62.703125 7.8125 59.421875 
L 7.8125 69.390625 
Q 13.765625 71.78125 18.9375 73 
Q 24.125 74.21875 28.421875 74.21875 
Q 39.75 74.21875 46.484375 68.546875 
Q 53.21875 62.890625 53.21875 53.421875 
Q 53.21875 48.921875 51.53125 44.890625 
Q 49.859375 40.875 45.40625 35.40625 
Q 44.1875 33.984375 37.640625 27.21875 
Q 31.109375 20.453125 19.1875 8.296875 
z
" id="DejaVuSans-50"/>
      </defs>
      <g transform="translate(121.170559 254.356562)scale(0.1 -0.1)">
       <use xlink:href="#DejaVuSans-48"/>
       <use x="63.623047" xlink:href="#DejaVuSans-46"/>
       <use x="95.410156" xlink:href="#DejaVuSans-50"/>
      </g>
     </g>
    </g>
    <g id="xtick_3">
     <g id="line2d_3">
      <g>
       <use style="stroke:#000000;stroke-width:0.8;" x="189.697937" xlink:href="#md30a0efcbe" y="239.758125"/>
      </g>
     </g>
     <g id="text_3">
      <!-- 0.4 -->
      <defs>
       <path d="M 37.796875 64.3125 
L 12.890625 25.390625 
L 37.796875 25.390625 
z
M 35.203125 72.90625 
L 47.609375 72.90625 
L 47.609375 25.390625 
L 58.015625 25.390625 
L 58.015625 17.1875 
L 47.609375 17.1875 
L 47.609375 0 
L 37.796875 0 
L 37.796875 17.1875 
L 4.890625 17.1875 
L 4.890625 26.703125 
z
" id="DejaVuSans-52"/>
      </defs>
      <g transform="translate(181.746374 254.356562)scale(0.1 -0.1)">
       <use xlink:href="#DejaVuSans-48"/>
       <use x="63.623047" xlink:href="#DejaVuSans-46"/>
       <use x="95.410156" xlink:href="#DejaVuSans-52"/>
      </g>
     </g>
    </g>
    <g id="xtick_4">
     <g id="line2d_4">
      <g>
       <use style="stroke:#000000;stroke-width:0.8;" x="250.273751" xlink:href="#md30a0efcbe" y="239.758125"/>
      </g>
     </g>
     <g id="text_4">
      <!-- 0.6 -->
      <defs>
       <path d="M 33.015625 40.375 
Q 26.375 40.375 22.484375 35.828125 
Q 18.609375 31.296875 18.609375 23.390625 
Q 18.609375 15.53125 22.484375 10.953125 
Q 26.375 6.390625 33.015625 6.390625 
Q 39.65625 6.390625 43.53125 10.953125 
Q 47.40625 15.53125 47.40625 23.390625 
Q 47.40625 31.296875 43.53125 35.828125 
Q 39.65625 40.375 33.015625 40.375 
z
M 52.59375 71.296875 
L 52.59375 62.3125 
Q 48.875 64.0625 45.09375 64.984375 
Q 41.3125 65.921875 37.59375 65.921875 
Q 27.828125 65.921875 22.671875 59.328125 
Q 17.53125 52.734375 16.796875 39.40625 
Q 19.671875 43.65625 24.015625 45.921875 
Q 28.375 48.1875 33.59375 48.1875 
Q 44.578125 48.1875 50.953125 41.515625 
Q 57.328125 34.859375 57.328125 23.390625 
Q 57.328125 12.15625 50.6875 5.359375 
Q 44.046875 -1.421875 33.015625 -1.421875 
Q 20.359375 -1.421875 13.671875 8.265625 
Q 6.984375 17.96875 6.984375 36.375 
Q 6.984375 53.65625 15.1875 63.9375 
Q 23.390625 74.21875 37.203125 74.21875 
Q 40.921875 74.21875 44.703125 73.484375 
Q 48.484375 72.75 52.59375 71.296875 
z
" id="DejaVuSans-54"/>
      </defs>
      <g transform="translate(242.322189 254.356562)scale(0.1 -0.1)">
       <use xlink:href="#DejaVuSans-48"/>
       <use x="63.623047" xlink:href="#DejaVuSans-46"/>
       <use x="95.410156" xlink:href="#DejaVuSans-54"/>
      </g>
     </g>
    </g>
    <g id="xtick_5">
     <g id="line2d_5">
      <g>
       <use style="stroke:#000000;stroke-width:0.8;" x="310.849566" xlink:href="#md30a0efcbe" y="239.758125"/>
      </g>
     </g>
     <g id="text_5">
      <!-- 0.8 -->
      <defs>
       <path d="M 31.78125 34.625 
Q 24.75 34.625 20.71875 30.859375 
Q 16.703125 27.09375 16.703125 20.515625 
Q 16.703125 13.921875 20.71875 10.15625 
Q 24.75 6.390625 31.78125 6.390625 
Q 38.8125 6.390625 42.859375 10.171875 
Q 46.921875 13.96875 46.921875 20.515625 
Q 46.921875 27.09375 42.890625 30.859375 
Q 38.875 34.625 31.78125 34.625 
z
M 21.921875 38.8125 
Q 15.578125 40.375 12.03125 44.71875 
Q 8.5 49.078125 8.5 55.328125 
Q 8.5 64.0625 14.71875 69.140625 
Q 20.953125 74.21875 31.78125 74.21875 
Q 42.671875 74.21875 48.875 69.140625 
Q 55.078125 64.0625 55.078125 55.328125 
Q 55.078125 49.078125 51.53125 44.71875 
Q 48 40.375 41.703125 38.8125 
Q 48.828125 37.15625 52.796875 32.3125 
Q 56.78125 27.484375 56.78125 20.515625 
Q 56.78125 9.90625 50.3125 4.234375 
Q 43.84375 -1.421875 31.78125 -1.421875 
Q 19.734375 -1.421875 13.25 4.234375 
Q 6.78125 9.90625 6.78125 20.515625 
Q 6.78125 27.484375 10.78125 32.3125 
Q 14.796875 37.15625 21.921875 38.8125 
z
M 18.3125 54.390625 
Q 18.3125 48.734375 21.84375 45.5625 
Q 25.390625 42.390625 31.78125 42.390625 
Q 38.140625 42.390625 41.71875 45.5625 
Q 45.3125 48.734375 45.3125 54.390625 
Q 45.3125 60.0625 41.71875 63.234375 
Q 38.140625 66.40625 31.78125 66.40625 
Q 25.390625 66.40625 21.84375 63.234375 
Q 18.3125 60.0625 18.3125 54.390625 
z
" id="DejaVuSans-56"/>
      </defs>
      <g transform="translate(302.898004 254.356562)scale(0.1 -0.1)">
       <use xlink:href="#DejaVuSans-48"/>
       <use x="63.623047" xlink:href="#DejaVuSans-46"/>
       <use x="95.410156" xlink:href="#DejaVuSans-56"/>
      </g>
     </g>
    </g>
    <g id="xtick_6">
     <g id="line2d_6">
      <g>
       <use style="stroke:#000000;stroke-width:0.8;" x="371.425381" xlink:href="#md30a0efcbe" y="239.758125"/>
      </g>
     </g>
     <g id="text_6">
      <!-- 1.0 -->
      <defs>
       <path d="M 12.40625 8.296875 
L 28.515625 8.296875 
L 28.515625 63.921875 
L 10.984375 60.40625 
L 10.984375 69.390625 
L 28.421875 72.90625 
L 38.28125 72.90625 
L 38.28125 8.296875 
L 54.390625 8.296875 
L 54.390625 0 
L 12.40625 0 
z
" id="DejaVuSans-49"/>
      </defs>
      <g transform="translate(363.473819 254.356562)scale(0.1 -0.1)">
       <use xlink:href="#DejaVuSans-49"/>
       <use x="63.623047" xlink:href="#DejaVuSans-46"/>
       <use x="95.410156" xlink:href="#DejaVuSans-48"/>
      </g>
     </g>
    </g>
    <g id="text_7">
     <!-- Time (ms) -->
     <defs>
      <path d="M -0.296875 72.90625 
L 61.375 72.90625 
L 61.375 64.59375 
L 35.5 64.59375 
L 35.5 0 
L 25.59375 0 
L 25.59375 64.59375 
L -0.296875 64.59375 
z
" id="DejaVuSans-84"/>
      <path d="M 9.421875 54.6875 
L 18.40625 54.6875 
L 18.40625 0 
L 9.421875 0 
z
M 9.421875 75.984375 
L 18.40625 75.984375 
L 18.40625 64.59375 
L 9.421875 64.59375 
z
" id="DejaVuSans-105"/>
      <path d="M 52 44.1875 
Q 55.375 50.25 60.0625 53.125 
Q 64.75 56 71.09375 56 
Q 79.640625 56 84.28125 50.015625 
Q 88.921875 44.046875 88.921875 33.015625 
L 88.921875 0 
L 79.890625 0 
L 79.890625 32.71875 
Q 79.890625 40.578125 77.09375 44.375 
Q 74.3125 48.1875 68.609375 48.1875 
Q 61.625 48.1875 57.5625 43.546875 
Q 53.515625 38.921875 53.515625 30.90625 
L 53.515625 0 
L 44.484375 0 
L 44.484375 32.71875 
Q 44.484375 40.625 41.703125 44.40625 
Q 38.921875 48.1875 33.109375 48.1875 
Q 26.21875 48.1875 22.15625 43.53125 
Q 18.109375 38.875 18.109375 30.90625 
L 18.109375 0 
L 9.078125 0 
L 9.078125 54.6875 
L 18.109375 54.6875 
L 18.109375 46.1875 
Q 21.1875 51.21875 25.484375 53.609375 
Q 29.78125 56 35.6875 56 
Q 41.65625 56 45.828125 52.96875 
Q 50 49.953125 52 44.1875 
z
" id="DejaVuSans-109"/>
      <path d="M 56.203125 29.59375 
L 56.203125 25.203125 
L 14.890625 25.203125 
Q 15.484375 15.921875 20.484375 11.0625 
Q 25.484375 6.203125 34.421875 6.203125 
Q 39.59375 6.203125 44.453125 7.46875 
Q 49.3125 8.734375 54.109375 11.28125 
L 54.109375 2.78125 
Q 49.265625 0.734375 44.1875 -0.34375 
Q 39.109375 -1.421875 33.890625 -1.421875 
Q 20.796875 -1.421875 13.15625 6.1875 
Q 5.515625 13.8125 5.515625 26.8125 
Q 5.515625 40.234375 12.765625 48.109375 
Q 20.015625 56 32.328125 56 
Q 43.359375 56 49.78125 48.890625 
Q 56.203125 41.796875 56.203125 29.59375 
z
M 47.21875 32.234375 
Q 47.125 39.59375 43.09375 43.984375 
Q 39.0625 48.390625 32.421875 48.390625 
Q 24.90625 48.390625 20.390625 44.140625 
Q 15.875 39.890625 15.1875 32.171875 
z
" id="DejaVuSans-101"/>
      <path id="DejaVuSans-32"/>
      <path d="M 31 75.875 
Q 24.46875 64.65625 21.28125 53.65625 
Q 18.109375 42.671875 18.109375 31.390625 
Q 18.109375 20.125 21.3125 9.0625 
Q 24.515625 -2 31 -13.1875 
L 23.1875 -13.1875 
Q 15.875 -1.703125 12.234375 9.375 
Q 8.59375 20.453125 8.59375 31.390625 
Q 8.59375 42.28125 12.203125 53.3125 
Q 15.828125 64.359375 23.1875 75.875 
z
" id="DejaVuSans-40"/>
      <path d="M 44.28125 53.078125 
L 44.28125 44.578125 
Q 40.484375 46.53125 36.375 47.5 
Q 32.28125 48.484375 27.875 48.484375 
Q 21.1875 48.484375 17.84375 46.4375 
Q 14.5 44.390625 14.5 40.28125 
Q 14.5 37.15625 16.890625 35.375 
Q 19.28125 33.59375 26.515625 31.984375 
L 29.59375 31.296875 
Q 39.15625 29.25 43.1875 25.515625 
Q 47.21875 21.78125 47.21875 15.09375 
Q 47.21875 7.46875 41.1875 3.015625 
Q 35.15625 -1.421875 24.609375 -1.421875 
Q 20.21875 -1.421875 15.453125 -0.5625 
Q 10.6875 0.296875 5.421875 2 
L 5.421875 11.28125 
Q 10.40625 8.6875 15.234375 7.390625 
Q 20.0625 6.109375 24.8125 6.109375 
Q 31.15625 6.109375 34.5625 8.28125 
Q 37.984375 10.453125 37.984375 14.40625 
Q 37.984375 18.0625 35.515625 20.015625 
Q 33.0625 21.96875 24.703125 23.78125 
L 21.578125 24.515625 
Q 13.234375 26.265625 9.515625 29.90625 
Q 5.8125 33.546875 5.8125 39.890625 
Q 5.8125 47.609375 11.28125 51.796875 
Q 16.75 56 26.8125 56 
Q 31.78125 56 36.171875 55.265625 
Q 40.578125 54.546875 44.28125 53.078125 
z
" id="DejaVuSans-115"/>
      <path d="M 8.015625 75.875 
L 15.828125 75.875 
Q 23.140625 64.359375 26.78125 53.3125 
Q 30.421875 42.28125 30.421875 31.390625 
Q 30.421875 20.453125 26.78125 9.375 
Q 23.140625 -1.703125 15.828125 -13.1875 
L 8.015625 -13.1875 
Q 14.5 -2 17.703125 9.0625 
Q 20.90625 20.125 20.90625 31.390625 
Q 20.90625 42.671875 17.703125 53.65625 
Q 14.5 64.65625 8.015625 75.875 
z
" id="DejaVuSans-41"/>
     </defs>
     <g transform="translate(195.375 268.034687)scale(0.1 -0.1)">
      <use xlink:href="#DejaVuSans-84"/>
      <use x="61.037109" xlink:href="#DejaVuSans-105"/>
      <use x="88.820312" xlink:href="#DejaVuSans-109"/>
      <use x="186.232422" xlink:href="#DejaVuSans-101"/>
      <use x="247.755859" xlink:href="#DejaVuSans-32"/>
      <use x="279.542969" xlink:href="#DejaVuSans-40"/>
      <use x="318.556641" xlink:href="#DejaVuSans-109"/>
      <use x="415.96875" xlink:href="#DejaVuSans-115"/>
      <use x="468.068359" xlink:href="#DejaVuSans-41"/>
     </g>
    </g>
   </g>
   <g id="matplotlib.axis_2">
    <g id="ytick_1">
     <g id="line2d_7">
      <defs>
       <path d="M 0 0 
L -3.5 0 
" id="m259505e086" style="stroke:#000000;stroke-width:0.8;"/>
      </defs>
      <g>
       <use style="stroke:#000000;stroke-width:0.8;" x="53.328125" xlink:href="#m259505e086" y="222.904718"/>
      </g>
     </g>
     <g id="text_8">
      <!-- 1000 -->
      <g transform="translate(20.878125 226.703937)scale(0.1 -0.1)">
       <use xlink:href="#DejaVuSans-49"/>
       <use x="63.623047" xlink:href="#DejaVuSans-48"/>
       <use x="127.246094" xlink:href="#DejaVuSans-48"/>
       <use x="190.869141" xlink:href="#DejaVuSans-48"/>
      </g>
     </g>
    </g>
    <g id="ytick_2">
     <g id="line2d_8">
      <g>
       <use style="stroke:#000000;stroke-width:0.8;" x="53.328125" xlink:href="#m259505e086" y="183.224505"/>
      </g>
     </g>
     <g id="text_9">
      <!-- 1500 -->
      <defs>
       <path d="M 10.796875 72.90625 
L 49.515625 72.90625 
L 49.515625 64.59375 
L 19.828125 64.59375 
L 19.828125 46.734375 
Q 21.96875 47.46875 24.109375 47.828125 
Q 26.265625 48.1875 28.421875 48.1875 
Q 40.625 48.1875 47.75 41.5 
Q 54.890625 34.8125 54.890625 23.390625 
Q 54.890625 11.625 47.5625 5.09375 
Q 40.234375 -1.421875 26.90625 -1.421875 
Q 22.3125 -1.421875 17.546875 -0.640625 
Q 12.796875 0.140625 7.71875 1.703125 
L 7.71875 11.625 
Q 12.109375 9.234375 16.796875 8.0625 
Q 21.484375 6.890625 26.703125 6.890625 
Q 35.15625 6.890625 40.078125 11.328125 
Q 45.015625 15.765625 45.015625 23.390625 
Q 45.015625 31 40.078125 35.4375 
Q 35.15625 39.890625 26.703125 39.890625 
Q 22.75 39.890625 18.8125 39.015625 
Q 14.890625 38.140625 10.796875 36.28125 
z
" id="DejaVuSans-53"/>
      </defs>
      <g transform="translate(20.878125 187.023723)scale(0.1 -0.1)">
       <use xlink:href="#DejaVuSans-49"/>
       <use x="63.623047" xlink:href="#DejaVuSans-53"/>
       <use x="127.246094" xlink:href="#DejaVuSans-48"/>
       <use x="190.869141" xlink:href="#DejaVuSans-48"/>
      </g>
     </g>
    </g>
    <g id="ytick_3">
     <g id="line2d_9">
      <g>
       <use style="stroke:#000000;stroke-width:0.8;" x="53.328125" xlink:href="#m259505e086" y="143.544291"/>
      </g>
     </g>
     <g id="text_10">
      <!-- 2000 -->
      <g transform="translate(20.878125 147.34351)scale(0.1 -0.1)">
       <use xlink:href="#DejaVuSans-50"/>
       <use x="63.623047" xlink:href="#DejaVuSans-48"/>
       <use x="127.246094" xlink:href="#DejaVuSans-48"/>
       <use x="190.869141" xlink:href="#DejaVuSans-48"/>
      </g>
     </g>
    </g>
    <g id="ytick_4">
     <g id="line2d_10">
      <g>
       <use style="stroke:#000000;stroke-width:0.8;" x="53.328125" xlink:href="#m259505e086" y="103.864078"/>
      </g>
     </g>
     <g id="text_11">
      <!-- 2500 -->
      <g transform="translate(20.878125 107.663297)scale(0.1 -0.1)">
       <use xlink:href="#DejaVuSans-50"/>
       <use x="63.623047" xlink:href="#DejaVuSans-53"/>
       <use x="127.246094" xlink:href="#DejaVuSans-48"/>
       <use x="190.869141" xlink:href="#DejaVuSans-48"/>
      </g>
     </g>
    </g>
    <g id="ytick_5">
     <g id="line2d_11">
      <g>
       <use style="stroke:#000000;stroke-width:0.8;" x="53.328125" xlink:href="#m259505e086" y="64.183865"/>
      </g>
     </g>
     <g id="text_12">
      <!-- 3000 -->
      <defs>
       <path d="M 40.578125 39.3125 
Q 47.65625 37.796875 51.625 33 
Q 55.609375 28.21875 55.609375 21.1875 
Q 55.609375 10.40625 48.1875 4.484375 
Q 40.765625 -1.421875 27.09375 -1.421875 
Q 22.515625 -1.421875 17.65625 -0.515625 
Q 12.796875 0.390625 7.625 2.203125 
L 7.625 11.71875 
Q 11.71875 9.328125 16.59375 8.109375 
Q 21.484375 6.890625 26.8125 6.890625 
Q 36.078125 6.890625 40.9375 10.546875 
Q 45.796875 14.203125 45.796875 21.1875 
Q 45.796875 27.640625 41.28125 31.265625 
Q 36.765625 34.90625 28.71875 34.90625 
L 20.21875 34.90625 
L 20.21875 43.015625 
L 29.109375 43.015625 
Q 36.375 43.015625 40.234375 45.921875 
Q 44.09375 48.828125 44.09375 54.296875 
Q 44.09375 59.90625 40.109375 62.90625 
Q 36.140625 65.921875 28.71875 65.921875 
Q 24.65625 65.921875 20.015625 65.03125 
Q 15.375 64.15625 9.8125 62.3125 
L 9.8125 71.09375 
Q 15.4375 72.65625 20.34375 73.4375 
Q 25.25 74.21875 29.59375 74.21875 
Q 40.828125 74.21875 47.359375 69.109375 
Q 53.90625 64.015625 53.90625 55.328125 
Q 53.90625 49.265625 50.4375 45.09375 
Q 46.96875 40.921875 40.578125 39.3125 
z
" id="DejaVuSans-51"/>
      </defs>
      <g transform="translate(20.878125 67.983084)scale(0.1 -0.1)">
       <use xlink:href="#DejaVuSans-51"/>
       <use x="63.623047" xlink:href="#DejaVuSans-48"/>
       <use x="127.246094" xlink:href="#DejaVuSans-48"/>
       <use x="190.869141" xlink:href="#DejaVuSans-48"/>
      </g>
     </g>
    </g>
    <g id="ytick_6">
     <g id="line2d_12">
      <g>
       <use style="stroke:#000000;stroke-width:0.8;" x="53.328125" xlink:href="#m259505e086" y="24.503652"/>
      </g>
     </g>
     <g id="text_13">
      <!-- 3500 -->
      <g transform="translate(20.878125 28.30287)scale(0.1 -0.1)">
       <use xlink:href="#DejaVuSans-51"/>
       <use x="63.623047" xlink:href="#DejaVuSans-53"/>
       <use x="127.246094" xlink:href="#DejaVuSans-48"/>
       <use x="190.869141" xlink:href="#DejaVuSans-48"/>
      </g>
     </g>
    </g>
    <g id="text_14">
     <!-- ppmH2O -->
     <defs>
      <path d="M 18.109375 8.203125 
L 18.109375 -20.796875 
L 9.078125 -20.796875 
L 9.078125 54.6875 
L 18.109375 54.6875 
L 18.109375 46.390625 
Q 20.953125 51.265625 25.265625 53.625 
Q 29.59375 56 35.59375 56 
Q 45.5625 56 51.78125 48.09375 
Q 58.015625 40.1875 58.015625 27.296875 
Q 58.015625 14.40625 51.78125 6.484375 
Q 45.5625 -1.421875 35.59375 -1.421875 
Q 29.59375 -1.421875 25.265625 0.953125 
Q 20.953125 3.328125 18.109375 8.203125 
z
M 48.6875 27.296875 
Q 48.6875 37.203125 44.609375 42.84375 
Q 40.53125 48.484375 33.40625 48.484375 
Q 26.265625 48.484375 22.1875 42.84375 
Q 18.109375 37.203125 18.109375 27.296875 
Q 18.109375 17.390625 22.1875 11.75 
Q 26.265625 6.109375 33.40625 6.109375 
Q 40.53125 6.109375 44.609375 11.75 
Q 48.6875 17.390625 48.6875 27.296875 
z
" id="DejaVuSans-112"/>
      <path d="M 9.8125 72.90625 
L 19.671875 72.90625 
L 19.671875 43.015625 
L 55.515625 43.015625 
L 55.515625 72.90625 
L 65.375 72.90625 
L 65.375 0 
L 55.515625 0 
L 55.515625 34.71875 
L 19.671875 34.71875 
L 19.671875 0 
L 9.8125 0 
z
" id="DejaVuSans-72"/>
      <path d="M 39.40625 66.21875 
Q 28.65625 66.21875 22.328125 58.203125 
Q 16.015625 50.203125 16.015625 36.375 
Q 16.015625 22.609375 22.328125 14.59375 
Q 28.65625 6.59375 39.40625 6.59375 
Q 50.140625 6.59375 56.421875 14.59375 
Q 62.703125 22.609375 62.703125 36.375 
Q 62.703125 50.203125 56.421875 58.203125 
Q 50.140625 66.21875 39.40625 66.21875 
z
M 39.40625 74.21875 
Q 54.734375 74.21875 63.90625 63.9375 
Q 73.09375 53.65625 73.09375 36.375 
Q 73.09375 19.140625 63.90625 8.859375 
Q 54.734375 -1.421875 39.40625 -1.421875 
Q 24.03125 -1.421875 14.8125 8.828125 
Q 5.609375 19.09375 5.609375 36.375 
Q 5.609375 53.65625 14.8125 63.9375 
Q 24.03125 74.21875 39.40625 74.21875 
z
" id="DejaVuSans-79"/>
     </defs>
     <g transform="translate(14.798438 153.134219)rotate(-90)scale(0.1 -0.1)">
      <use xlink:href="#DejaVuSans-112"/>
      <use x="63.476562" xlink:href="#DejaVuSans-112"/>
      <use x="126.953125" xlink:href="#DejaVuSans-109"/>
      <use x="224.365234" xlink:href="#DejaVuSans-72"/>
      <use x="299.560547" xlink:href="#DejaVuSans-50"/>
      <use x="363.183594" xlink:href="#DejaVuSans-79"/>
     </g>
    </g>
   </g>
   <g id="line2d_13">
    <path clip-path="url(#p08431dd959)" d="M 68.546307 213.934781 
L 68.780801 213.841069 
L 69.089308 213.458787 
L 69.492558 212.589512 
L 70.098892 210.66963 
L 70.938432 207.169072 
L 72.326453 200.250393 
L 77.101174 175.781778 
L 79.498267 164.922597 
L 81.895359 155.058763 
L 84.381348 145.767283 
L 86.791287 137.577547 
L 89.094928 130.429884 
L 91.645244 123.22229 
L 94.195559 116.68891 
L 96.745875 110.767399 
L 99.114763 105.7658 
L 101.850937 100.531172 
L 104.587111 95.82278 
L 107.323285 91.588082 
L 110.126105 87.691712 
L 112.92612 84.199691 
L 115.431254 81.380675 
L 118.390494 78.384081 
L 121.536751 75.552039 
L 124.404692 73.252994 
L 127.563758 70.996972 
L 131.195221 68.718966 
L 134.138153 67.090573 
L 137.463113 65.456662 
L 141.896394 63.573589 
L 146.329674 61.978595 
L 150.762954 60.625837 
L 155.196234 59.476928 
L 160.737835 58.278982 
L 166.279435 57.298111 
L 172.929355 56.349914 
L 180.687596 55.4895 
L 189.554156 54.749194 
L 199.529037 54.140289 
L 211.720557 53.618267 
L 227.237038 53.182218 
L 248.295119 52.8287 
L 278.219761 52.56443 
L 327.07183 52.377498 
L 372.909943 52.303772 
L 372.909943 52.303772 
" style="fill:none;stroke:#0000ff;stroke-linecap:square;stroke-width:1.5;"/>
   </g>
   <g id="line2d_14">
    <path clip-path="url(#p08431dd959)" d="M 68.546307 213.934781 
L 68.841211 213.831825 
L 69.202002 213.44456 
L 69.630247 212.65696 
L 70.209766 211.107256 
L 70.982457 208.338329 
L 72.012713 203.728874 
L 73.533288 195.803931 
L 78.94943 166.800641 
L 81.299563 155.810486 
L 83.576846 146.219591 
L 85.780942 137.838892 
L 88.097022 129.887593 
L 90.423784 122.687932 
L 92.750547 116.194768 
L 95.059994 110.376625 
L 97.372206 105.114038 
L 99.650054 100.425757 
L 101.927902 96.18192 
L 104.418756 91.999509 
L 106.635321 88.640704 
L 109.177039 85.167258 
L 111.790065 81.974058 
L 114.508368 79.014004 
L 116.966758 76.620145 
L 119.788073 74.167411 
L 123.064595 71.667236 
L 126.341117 69.493085 
L 129.506364 67.661044 
L 132.671611 66.057876 
L 135.836857 64.653795 
L 140.057186 63.047197 
L 144.277515 61.696916 
L 149.345028 60.354021 
L 154.373189 59.265832 
L 159.999458 58.278387 
L 166.589967 57.363728 
L 173.460557 56.622636 
L 181.996993 55.924412 
L 192.222078 55.317259 
L 205.514688 54.773067 
L 222.897331 54.313085 
L 246.415026 53.936677 
L 281.1907 53.628085 
L 336.593104 53.384555 
L 372.218755 53.294575 
L 372.218755 53.294575 
" style="fill:none;stroke:#ff0000;stroke-linecap:square;stroke-width:1.5;"/>
   </g>
   <g id="line2d_15">
    <defs>
     <path d="M 0 3 
C 0.795609 3 1.55874 2.683901 2.12132 2.12132 
C 2.683901 1.55874 3 0.795609 3 0 
C 3 -0.795609 2.683901 -1.55874 2.12132 -2.12132 
C 1.55874 -2.683901 0.795609 -3 0 -3 
C -0.795609 -3 -1.55874 -2.683901 -2.12132 -2.12132 
C -2.683901 -1.55874 -3 -0.795609 -3 0 
C -3 0.795609 -2.683901 1.55874 -2.12132 2.12132 
C -1.55874 2.683901 -0.795609 3 0 3 
z
" id="me8eec6bd5a" style="stroke:#000000;"/>
    </defs>
    <g clip-path="url(#p08431dd959)">
     <use style="stroke:#000000;" x="68.546307" xlink:href="#me8eec6bd5a" y="213.934609"/>
     <use style="stroke:#000000;" x="68.546311" xlink:href="#me8eec6bd5a" y="213.934609"/>
     <use style="stroke:#000000;" x="68.546326" xlink:href="#me8eec6bd5a" y="213.934609"/>
     <use style="stroke:#000000;" x="68.546341" xlink:href="#me8eec6bd5a" y="213.934609"/>
     <use style="stroke:#000000;" x="68.546356" xlink:href="#me8eec6bd5a" y="213.934609"/>
     <use style="stroke:#000000;" x="68.54637" xlink:href="#me8eec6bd5a" y="213.934609"/>
     <use style="stroke:#000000;" x="68.546402" xlink:href="#me8eec6bd5a" y="213.934609"/>
     <use style="stroke:#000000;" x="68.546459" xlink:href="#me8eec6bd5a" y="213.934609"/>
     <use style="stroke:#000000;" x="68.546561" xlink:href="#me8eec6bd5a" y="213.934609"/>
     <use style="stroke:#000000;" x="68.546743" xlink:href="#me8eec6bd5a" y="213.934609"/>
     <use style="stroke:#000000;" x="68.547088" xlink:href="#me8eec6bd5a" y="213.934609"/>
     <use style="stroke:#000000;" x="68.547788" xlink:href="#me8eec6bd5a" y="213.934609"/>
     <use style="stroke:#000000;" x="68.548488" xlink:href="#me8eec6bd5a" y="213.934609"/>
     <use style="stroke:#000000;" x="68.549187" xlink:href="#me8eec6bd5a" y="213.934609"/>
     <use style="stroke:#000000;" x="68.549881" xlink:href="#me8eec6bd5a" y="213.934609"/>
     <use style="stroke:#000000;" x="68.550577" xlink:href="#me8eec6bd5a" y="213.934609"/>
     <use style="stroke:#000000;" x="68.551274" xlink:href="#me8eec6bd5a" y="213.934609"/>
     <use style="stroke:#000000;" x="68.552001" xlink:href="#me8eec6bd5a" y="213.934609"/>
     <use style="stroke:#000000;" x="68.553636" xlink:href="#me8eec6bd5a" y="213.934609"/>
     <use style="stroke:#000000;" x="68.555302" xlink:href="#me8eec6bd5a" y="213.934609"/>
     <use style="stroke:#000000;" x="68.556968" xlink:href="#me8eec6bd5a" y="213.934609"/>
     <use style="stroke:#000000;" x="68.558634" xlink:href="#me8eec6bd5a" y="213.934609"/>
     <use style="stroke:#000000;" x="68.5603" xlink:href="#me8eec6bd5a" y="213.934609"/>
     <use style="stroke:#000000;" x="68.56454" xlink:href="#me8eec6bd5a" y="213.933815"/>
     <use style="stroke:#000000;" x="68.571082" xlink:href="#me8eec6bd5a" y="213.933815"/>
     <use style="stroke:#000000;" x="68.577503" xlink:href="#me8eec6bd5a" y="213.933022"/>
     <use style="stroke:#000000;" x="68.584167" xlink:href="#me8eec6bd5a" y="213.932228"/>
     <use style="stroke:#000000;" x="68.59083" xlink:href="#me8eec6bd5a" y="213.930641"/>
     <use style="stroke:#000000;" x="68.597191" xlink:href="#me8eec6bd5a" y="213.929847"/>
     <use style="stroke:#000000;" x="68.603854" xlink:href="#me8eec6bd5a" y="213.92826"/>
     <use style="stroke:#000000;" x="68.610517" xlink:href="#me8eec6bd5a" y="213.926673"/>
     <use style="stroke:#000000;" x="68.617181" xlink:href="#me8eec6bd5a" y="213.924292"/>
     <use style="stroke:#000000;" x="68.623844" xlink:href="#me8eec6bd5a" y="213.922705"/>
     <use style="stroke:#000000;" x="68.630507" xlink:href="#me8eec6bd5a" y="213.920324"/>
     <use style="stroke:#000000;" x="68.643834" xlink:href="#me8eec6bd5a" y="213.915562"/>
     <use style="stroke:#000000;" x="68.656858" xlink:href="#me8eec6bd5a" y="213.910007"/>
     <use style="stroke:#000000;" x="68.669881" xlink:href="#me8eec6bd5a" y="213.904452"/>
     <use style="stroke:#000000;" x="68.682905" xlink:href="#me8eec6bd5a" y="213.897309"/>
     <use style="stroke:#000000;" x="68.695929" xlink:href="#me8eec6bd5a" y="213.890167"/>
     <use style="stroke:#000000;" x="68.708953" xlink:href="#me8eec6bd5a" y="213.881437"/>
     <use style="stroke:#000000;" x="68.72228" xlink:href="#me8eec6bd5a" y="213.872708"/>
     <use style="stroke:#000000;" x="68.735303" xlink:href="#me8eec6bd5a" y="213.863978"/>
     <use style="stroke:#000000;" x="68.758019" xlink:href="#me8eec6bd5a" y="213.845725"/>
     <use style="stroke:#000000;" x="68.780432" xlink:href="#me8eec6bd5a" y="213.826679"/>
     <use style="stroke:#000000;" x="68.803148" xlink:href="#me8eec6bd5a" y="213.805251"/>
     <use style="stroke:#000000;" x="68.825864" xlink:href="#me8eec6bd5a" y="213.782237"/>
     <use style="stroke:#000000;" x="68.84858" xlink:href="#me8eec6bd5a" y="213.756841"/>
     <use style="stroke:#000000;" x="68.870387" xlink:href="#me8eec6bd5a" y="213.730653"/>
     <use style="stroke:#000000;" x="68.894618" xlink:href="#me8eec6bd5a" y="213.702083"/>
     <use style="stroke:#000000;" x="68.915819" xlink:href="#me8eec6bd5a" y="213.671926"/>
     <use style="stroke:#000000;" x="68.952165" xlink:href="#me8eec6bd5a" y="213.621135"/>
     <use style="stroke:#000000;" x="68.98851" xlink:href="#me8eec6bd5a" y="213.566376"/>
     <use style="stroke:#000000;" x="69.021827" xlink:href="#me8eec6bd5a" y="213.50765"/>
     <use style="stroke:#000000;" x="69.058172" xlink:href="#me8eec6bd5a" y="213.444955"/>
     <use style="stroke:#000000;" x="69.094518" xlink:href="#me8eec6bd5a" y="213.379086"/>
     <use style="stroke:#000000;" x="69.130863" xlink:href="#me8eec6bd5a" y="213.309249"/>
     <use style="stroke:#000000;" x="69.167209" xlink:href="#me8eec6bd5a" y="213.236237"/>
     <use style="stroke:#000000;" x="69.200526" xlink:href="#me8eec6bd5a" y="213.159257"/>
     <use style="stroke:#000000;" x="69.236871" xlink:href="#me8eec6bd5a" y="213.079103"/>
     <use style="stroke:#000000;" x="69.273217" xlink:href="#me8eec6bd5a" y="212.995775"/>
     <use style="stroke:#000000;" x="69.309562" xlink:href="#me8eec6bd5a" y="212.909272"/>
     <use style="stroke:#000000;" x="69.342879" xlink:href="#me8eec6bd5a" y="212.818801"/>
     <use style="stroke:#000000;" x="69.379224" xlink:href="#me8eec6bd5a" y="212.72595"/>
     <use style="stroke:#000000;" x="69.41557" xlink:href="#me8eec6bd5a" y="212.630717"/>
     <use style="stroke:#000000;" x="69.451915" xlink:href="#me8eec6bd5a" y="212.531516"/>
     <use style="stroke:#000000;" x="69.485232" xlink:href="#me8eec6bd5a" y="212.430729"/>
     <use style="stroke:#000000;" x="69.521577" xlink:href="#me8eec6bd5a" y="212.325973"/>
     <use style="stroke:#000000;" x="69.557923" xlink:href="#me8eec6bd5a" y="212.21963"/>
     <use style="stroke:#000000;" x="69.594268" xlink:href="#me8eec6bd5a" y="212.110113"/>
     <use style="stroke:#000000;" x="69.627585" xlink:href="#me8eec6bd5a" y="211.997421"/>
     <use style="stroke:#000000;" x="69.663931" xlink:href="#me8eec6bd5a" y="211.883142"/>
     <use style="stroke:#000000;" x="69.700276" xlink:href="#me8eec6bd5a" y="211.766482"/>
     <use style="stroke:#000000;" x="69.736622" xlink:href="#me8eec6bd5a" y="211.646648"/>
     <use style="stroke:#000000;" x="69.772967" xlink:href="#me8eec6bd5a" y="211.525226"/>
     <use style="stroke:#000000;" x="69.806284" xlink:href="#me8eec6bd5a" y="211.401424"/>
     <use style="stroke:#000000;" x="69.842629" xlink:href="#me8eec6bd5a" y="211.275241"/>
     <use style="stroke:#000000;" x="69.878975" xlink:href="#me8eec6bd5a" y="211.147471"/>
     <use style="stroke:#000000;" x="69.91532" xlink:href="#me8eec6bd5a" y="211.01732"/>
     <use style="stroke:#000000;" x="69.948637" xlink:href="#me8eec6bd5a" y="210.885581"/>
     <use style="stroke:#000000;" x="69.984982" xlink:href="#me8eec6bd5a" y="210.751462"/>
     <use style="stroke:#000000;" x="70.021328" xlink:href="#me8eec6bd5a" y="210.614962"/>
     <use style="stroke:#000000;" x="70.057673" xlink:href="#me8eec6bd5a" y="210.477669"/>
     <use style="stroke:#000000;" x="70.09099" xlink:href="#me8eec6bd5a" y="210.337994"/>
     <use style="stroke:#000000;" x="70.145508" xlink:href="#me8eec6bd5a" y="210.124515"/>
     <use style="stroke:#000000;" x="70.200027" xlink:href="#me8eec6bd5a" y="209.907067"/>
     <use style="stroke:#000000;" x="70.254545" xlink:href="#me8eec6bd5a" y="209.686445"/>
     <use style="stroke:#000000;" x="70.306034" xlink:href="#me8eec6bd5a" y="209.461855"/>
     <use style="stroke:#000000;" x="70.360552" xlink:href="#me8eec6bd5a" y="209.234091"/>
     <use style="stroke:#000000;" x="70.415071" xlink:href="#me8eec6bd5a" y="209.003946"/>
     <use style="stroke:#000000;" x="70.46656" xlink:href="#me8eec6bd5a" y="208.769832"/>
     <use style="stroke:#000000;" x="70.521078" xlink:href="#me8eec6bd5a" y="208.533338"/>
     <use style="stroke:#000000;" x="70.575597" xlink:href="#me8eec6bd5a" y="208.29367"/>
     <use style="stroke:#000000;" x="70.630115" xlink:href="#me8eec6bd5a" y="208.05162"/>
     <use style="stroke:#000000;" x="70.681604" xlink:href="#me8eec6bd5a" y="207.80719"/>
     <use style="stroke:#000000;" x="70.736123" xlink:href="#me8eec6bd5a" y="207.559586"/>
     <use style="stroke:#000000;" x="70.790641" xlink:href="#me8eec6bd5a" y="207.310394"/>
     <use style="stroke:#000000;" x="70.84213" xlink:href="#me8eec6bd5a" y="207.059615"/>
     <use style="stroke:#000000;" x="70.896648" xlink:href="#me8eec6bd5a" y="206.805662"/>
     <use style="stroke:#000000;" x="70.951167" xlink:href="#me8eec6bd5a" y="206.550121"/>
     <use style="stroke:#000000;" x="71.005685" xlink:href="#me8eec6bd5a" y="206.292993"/>
     <use style="stroke:#000000;" x="71.057174" xlink:href="#me8eec6bd5a" y="206.034278"/>
     <use style="stroke:#000000;" x="71.111693" xlink:href="#me8eec6bd5a" y="205.773183"/>
     <use style="stroke:#000000;" x="71.166211" xlink:href="#me8eec6bd5a" y="205.511293"/>
     <use style="stroke:#000000;" x="71.2177" xlink:href="#me8eec6bd5a" y="205.247023"/>
     <use style="stroke:#000000;" x="71.272218" xlink:href="#me8eec6bd5a" y="204.981959"/>
     <use style="stroke:#000000;" x="71.326737" xlink:href="#me8eec6bd5a" y="204.715308"/>
     <use style="stroke:#000000;" x="71.381255" xlink:href="#me8eec6bd5a" y="204.447863"/>
     <use style="stroke:#000000;" x="71.432744" xlink:href="#me8eec6bd5a" y="204.178832"/>
     <use style="stroke:#000000;" x="71.487263" xlink:href="#me8eec6bd5a" y="203.909006"/>
     <use style="stroke:#000000;" x="71.541781" xlink:href="#me8eec6bd5a" y="203.638387"/>
     <use style="stroke:#000000;" x="71.605385" xlink:href="#me8eec6bd5a" y="203.366181"/>
     <use style="stroke:#000000;" x="71.635673" xlink:href="#me8eec6bd5a" y="203.093975"/>
     <use style="stroke:#000000;" x="71.696249" xlink:href="#me8eec6bd5a" y="202.820181"/>
     <use style="stroke:#000000;" x="71.756825" xlink:href="#me8eec6bd5a" y="202.545594"/>
     <use style="stroke:#000000;" x="71.817401" xlink:href="#me8eec6bd5a" y="202.271007"/>
     <use style="stroke:#000000;" x="71.877977" xlink:href="#me8eec6bd5a" y="201.994833"/>
     <use style="stroke:#000000;" x="71.908265" xlink:href="#me8eec6bd5a" y="201.718658"/>
     <use style="stroke:#000000;" x="71.96884" xlink:href="#me8eec6bd5a" y="201.442484"/>
     <use style="stroke:#000000;" x="72.059704" xlink:href="#me8eec6bd5a" y="201.022667"/>
     <use style="stroke:#000000;" x="72.12028" xlink:href="#me8eec6bd5a" y="200.602057"/>
     <use style="stroke:#000000;" x="72.211144" xlink:href="#me8eec6bd5a" y="200.181447"/>
     <use style="stroke:#000000;" x="72.302007" xlink:href="#me8eec6bd5a" y="199.759249"/>
     <use style="stroke:#000000;" x="72.362583" xlink:href="#me8eec6bd5a" y="199.337052"/>
     <use style="stroke:#000000;" x="72.453447" xlink:href="#me8eec6bd5a" y="198.914855"/>
     <use style="stroke:#000000;" x="72.544311" xlink:href="#me8eec6bd5a" y="198.491863"/>
     <use style="stroke:#000000;" x="72.604886" xlink:href="#me8eec6bd5a" y="198.068872"/>
     <use style="stroke:#000000;" x="72.69575" xlink:href="#me8eec6bd5a" y="197.646675"/>
     <use style="stroke:#000000;" x="72.786614" xlink:href="#me8eec6bd5a" y="197.223684"/>
     <use style="stroke:#000000;" x="72.877478" xlink:href="#me8eec6bd5a" y="196.801486"/>
     <use style="stroke:#000000;" x="72.938053" xlink:href="#me8eec6bd5a" y="196.379289"/>
     <use style="stroke:#000000;" x="73.028917" xlink:href="#me8eec6bd5a" y="195.957091"/>
     <use style="stroke:#000000;" x="73.119781" xlink:href="#me8eec6bd5a" y="195.535688"/>
     <use style="stroke:#000000;" x="73.180357" xlink:href="#me8eec6bd5a" y="195.115077"/>
     <use style="stroke:#000000;" x="73.27122" xlink:href="#me8eec6bd5a" y="194.695261"/>
     <use style="stroke:#000000;" x="73.362084" xlink:href="#me8eec6bd5a" y="194.275444"/>
     <use style="stroke:#000000;" x="73.42266" xlink:href="#me8eec6bd5a" y="193.857215"/>
     <use style="stroke:#000000;" x="73.513524" xlink:href="#me8eec6bd5a" y="193.438985"/>
     <use style="stroke:#000000;" x="73.604387" xlink:href="#me8eec6bd5a" y="193.022343"/>
     <use style="stroke:#000000;" x="73.664963" xlink:href="#me8eec6bd5a" y="192.605701"/>
     <use style="stroke:#000000;" x="73.755827" xlink:href="#me8eec6bd5a" y="192.190646"/>
     <use style="stroke:#000000;" x="73.846691" xlink:href="#me8eec6bd5a" y="191.776384"/>
     <use style="stroke:#000000;" x="73.907266" xlink:href="#me8eec6bd5a" y="191.362916"/>
     <use style="stroke:#000000;" x="73.99813" xlink:href="#me8eec6bd5a" y="190.951036"/>
     <use style="stroke:#000000;" x="74.088994" xlink:href="#me8eec6bd5a" y="190.539949"/>
     <use style="stroke:#000000;" x="74.14957" xlink:href="#me8eec6bd5a" y="190.130449"/>
     <use style="stroke:#000000;" x="74.240433" xlink:href="#me8eec6bd5a" y="189.721743"/>
     <use style="stroke:#000000;" x="74.331297" xlink:href="#me8eec6bd5a" y="189.31383"/>
     <use style="stroke:#000000;" x="74.391873" xlink:href="#me8eec6bd5a" y="188.907505"/>
     <use style="stroke:#000000;" x="74.482737" xlink:href="#me8eec6bd5a" y="188.502767"/>
     <use style="stroke:#000000;" x="74.5736" xlink:href="#me8eec6bd5a" y="188.098822"/>
     <use style="stroke:#000000;" x="74.634176" xlink:href="#me8eec6bd5a" y="187.696465"/>
     <use style="stroke:#000000;" x="74.72504" xlink:href="#me8eec6bd5a" y="187.294901"/>
     <use style="stroke:#000000;" x="74.815904" xlink:href="#me8eec6bd5a" y="186.894924"/>
     <use style="stroke:#000000;" x="74.906767" xlink:href="#me8eec6bd5a" y="186.495741"/>
     <use style="stroke:#000000;" x="74.967343" xlink:href="#me8eec6bd5a" y="186.098939"/>
     <use style="stroke:#000000;" x="75.058207" xlink:href="#me8eec6bd5a" y="185.702137"/>
     <use style="stroke:#000000;" x="75.149071" xlink:href="#me8eec6bd5a" y="185.307716"/>
     <use style="stroke:#000000;" x="75.209646" xlink:href="#me8eec6bd5a" y="184.914088"/>
     <use style="stroke:#000000;" x="75.30051" xlink:href="#me8eec6bd5a" y="184.522048"/>
     <use style="stroke:#000000;" x="75.391374" xlink:href="#me8eec6bd5a" y="184.131594"/>
     <use style="stroke:#000000;" x="75.45195" xlink:href="#me8eec6bd5a" y="183.741935"/>
     <use style="stroke:#000000;" x="75.542813" xlink:href="#me8eec6bd5a" y="183.354656"/>
     <use style="stroke:#000000;" x="75.633677" xlink:href="#me8eec6bd5a" y="182.967377"/>
     <use style="stroke:#000000;" x="75.694253" xlink:href="#me8eec6bd5a" y="182.582479"/>
     <use style="stroke:#000000;" x="75.785117" xlink:href="#me8eec6bd5a" y="182.198374"/>
     <use style="stroke:#000000;" x="75.87598" xlink:href="#me8eec6bd5a" y="181.815857"/>
     <use style="stroke:#000000;" x="75.936556" xlink:href="#me8eec6bd5a" y="181.434927"/>
     <use style="stroke:#000000;" x="76.02742" xlink:href="#me8eec6bd5a" y="181.055584"/>
     <use style="stroke:#000000;" x="76.118284" xlink:href="#me8eec6bd5a" y="180.677035"/>
     <use style="stroke:#000000;" x="76.239435" xlink:href="#me8eec6bd5a" y="180.109608"/>
     <use style="stroke:#000000;" x="76.360587" xlink:href="#me8eec6bd5a" y="179.544562"/>
     <use style="stroke:#000000;" x="76.481739" xlink:href="#me8eec6bd5a" y="178.983483"/>
     <use style="stroke:#000000;" x="76.60289" xlink:href="#me8eec6bd5a" y="178.424786"/>
     <use style="stroke:#000000;" x="76.724042" xlink:href="#me8eec6bd5a" y="177.869263"/>
     <use style="stroke:#000000;" x="76.845193" xlink:href="#me8eec6bd5a" y="177.316914"/>
     <use style="stroke:#000000;" x="76.966345" xlink:href="#me8eec6bd5a" y="176.76774"/>
     <use style="stroke:#000000;" x="77.087497" xlink:href="#me8eec6bd5a" y="176.221741"/>
     <use style="stroke:#000000;" x="77.208648" xlink:href="#me8eec6bd5a" y="175.678122"/>
     <use style="stroke:#000000;" x="77.3298" xlink:href="#me8eec6bd5a" y="175.138471"/>
     <use style="stroke:#000000;" x="77.450952" xlink:href="#me8eec6bd5a" y="174.601201"/>
     <use style="stroke:#000000;" x="77.572103" xlink:href="#me8eec6bd5a" y="174.066311"/>
     <use style="stroke:#000000;" x="77.693255" xlink:href="#me8eec6bd5a" y="173.53539"/>
     <use style="stroke:#000000;" x="77.814406" xlink:href="#me8eec6bd5a" y="173.00685"/>
     <use style="stroke:#000000;" x="77.935558" xlink:href="#me8eec6bd5a" y="172.481484"/>
     <use style="stroke:#000000;" x="78.05671" xlink:href="#me8eec6bd5a" y="171.958498"/>
     <use style="stroke:#000000;" x="78.177861" xlink:href="#me8eec6bd5a" y="171.438688"/>
     <use style="stroke:#000000;" x="78.299013" xlink:href="#me8eec6bd5a" y="170.922051"/>
     <use style="stroke:#000000;" x="78.420165" xlink:href="#me8eec6bd5a" y="170.407796"/>
     <use style="stroke:#000000;" x="78.571604" xlink:href="#me8eec6bd5a" y="169.896715"/>
     <use style="stroke:#000000;" x="78.692756" xlink:href="#me8eec6bd5a" y="169.388014"/>
     <use style="stroke:#000000;" x="78.813907" xlink:href="#me8eec6bd5a" y="168.881695"/>
     <use style="stroke:#000000;" x="78.995635" xlink:href="#me8eec6bd5a" y="168.122215"/>
     <use style="stroke:#000000;" x="79.177362" xlink:href="#me8eec6bd5a" y="167.369085"/>
     <use style="stroke:#000000;" x="79.35909" xlink:href="#me8eec6bd5a" y="166.62151"/>
     <use style="stroke:#000000;" x="79.540817" xlink:href="#me8eec6bd5a" y="165.880283"/>
     <use style="stroke:#000000;" x="79.722545" xlink:href="#me8eec6bd5a" y="165.144612"/>
     <use style="stroke:#000000;" x="79.904272" xlink:href="#me8eec6bd5a" y="164.414496"/>
     <use style="stroke:#000000;" x="80.086" xlink:href="#me8eec6bd5a" y="163.690729"/>
     <use style="stroke:#000000;" x="80.267727" xlink:href="#me8eec6bd5a" y="162.972517"/>
     <use style="stroke:#000000;" x="80.479742" xlink:href="#me8eec6bd5a" y="162.259861"/>
     <use style="stroke:#000000;" x="80.66147" xlink:href="#me8eec6bd5a" y="161.552759"/>
     <use style="stroke:#000000;" x="80.843197" xlink:href="#me8eec6bd5a" y="160.851213"/>
     <use style="stroke:#000000;" x="81.024925" xlink:href="#me8eec6bd5a" y="160.155222"/>
     <use style="stroke:#000000;" x="81.206652" xlink:href="#me8eec6bd5a" y="159.464787"/>
     <use style="stroke:#000000;" x="81.38838" xlink:href="#me8eec6bd5a" y="158.779112"/>
     <use style="stroke:#000000;" x="81.570107" xlink:href="#me8eec6bd5a" y="158.098994"/>
     <use style="stroke:#000000;" x="81.751834" xlink:href="#me8eec6bd5a" y="157.42443"/>
     <use style="stroke:#000000;" x="81.933562" xlink:href="#me8eec6bd5a" y="156.754628"/>
     <use style="stroke:#000000;" x="82.145577" xlink:href="#me8eec6bd5a" y="156.089588"/>
     <use style="stroke:#000000;" x="82.327305" xlink:href="#me8eec6bd5a" y="155.430102"/>
     <use style="stroke:#000000;" x="82.509032" xlink:href="#me8eec6bd5a" y="154.774585"/>
     <use style="stroke:#000000;" x="82.69076" xlink:href="#me8eec6bd5a" y="154.124623"/>
     <use style="stroke:#000000;" x="82.872487" xlink:href="#me8eec6bd5a" y="153.479423"/>
     <use style="stroke:#000000;" x="83.054214" xlink:href="#me8eec6bd5a" y="152.839778"/>
     <use style="stroke:#000000;" x="83.235942" xlink:href="#me8eec6bd5a" y="152.204101"/>
     <use style="stroke:#000000;" x="83.417669" xlink:href="#me8eec6bd5a" y="151.572392"/>
     <use style="stroke:#000000;" x="83.599397" xlink:href="#me8eec6bd5a" y="150.946238"/>
     <use style="stroke:#000000;" x="83.781124" xlink:href="#me8eec6bd5a" y="150.324846"/>
     <use style="stroke:#000000;" x="83.99314" xlink:href="#me8eec6bd5a" y="149.707422"/>
     <use style="stroke:#000000;" x="84.174867" xlink:href="#me8eec6bd5a" y="149.09476"/>
     <use style="stroke:#000000;" x="84.356594" xlink:href="#me8eec6bd5a" y="148.486065"/>
     <use style="stroke:#000000;" x="84.538322" xlink:href="#me8eec6bd5a" y="147.882132"/>
     <use style="stroke:#000000;" x="84.720049" xlink:href="#me8eec6bd5a" y="147.282167"/>
     <use style="stroke:#000000;" x="84.901777" xlink:href="#me8eec6bd5a" y="146.686964"/>
     <use style="stroke:#000000;" x="85.083504" xlink:href="#me8eec6bd5a" y="146.095729"/>
     <use style="stroke:#000000;" x="85.265232" xlink:href="#me8eec6bd5a" y="145.509256"/>
     <use style="stroke:#000000;" x="85.446959" xlink:href="#me8eec6bd5a" y="144.925956"/>
     <use style="stroke:#000000;" x="85.658975" xlink:href="#me8eec6bd5a" y="144.347419"/>
     <use style="stroke:#000000;" x="85.840702" xlink:href="#me8eec6bd5a" y="143.772849"/>
     <use style="stroke:#000000;" x="86.022429" xlink:href="#me8eec6bd5a" y="143.202248"/>
     <use style="stroke:#000000;" x="86.204157" xlink:href="#me8eec6bd5a" y="142.635614"/>
     <use style="stroke:#000000;" x="86.385884" xlink:href="#me8eec6bd5a" y="142.073743"/>
     <use style="stroke:#000000;" x="86.567612" xlink:href="#me8eec6bd5a" y="141.515045"/>
     <use style="stroke:#000000;" x="86.749339" xlink:href="#me8eec6bd5a" y="140.960316"/>
     <use style="stroke:#000000;" x="87.02193" xlink:href="#me8eec6bd5a" y="140.127031"/>
     <use style="stroke:#000000;" x="87.324809" xlink:href="#me8eec6bd5a" y="139.30327"/>
     <use style="stroke:#000000;" x="87.597401" xlink:href="#me8eec6bd5a" y="138.488239"/>
     <use style="stroke:#000000;" x="87.869992" xlink:href="#me8eec6bd5a" y="137.681143"/>
     <use style="stroke:#000000;" x="88.142583" xlink:href="#me8eec6bd5a" y="136.882777"/>
     <use style="stroke:#000000;" x="88.445462" xlink:href="#me8eec6bd5a" y="136.093141"/>
     <use style="stroke:#000000;" x="88.718053" xlink:href="#me8eec6bd5a" y="135.310647"/>
     <use style="stroke:#000000;" x="88.990644" xlink:href="#me8eec6bd5a" y="134.536883"/>
     <use style="stroke:#000000;" x="89.263236" xlink:href="#me8eec6bd5a" y="133.770261"/>
     <use style="stroke:#000000;" x="89.566115" xlink:href="#me8eec6bd5a" y="133.012369"/>
     <use style="stroke:#000000;" x="89.838706" xlink:href="#me8eec6bd5a" y="132.26162"/>
     <use style="stroke:#000000;" x="90.111297" xlink:href="#me8eec6bd5a" y="131.518806"/>
     <use style="stroke:#000000;" x="90.383888" xlink:href="#me8eec6bd5a" y="130.783135"/>
     <use style="stroke:#000000;" x="90.686767" xlink:href="#me8eec6bd5a" y="130.0554"/>
     <use style="stroke:#000000;" x="90.959358" xlink:href="#me8eec6bd5a" y="129.334807"/>
     <use style="stroke:#000000;" x="91.231949" xlink:href="#me8eec6bd5a" y="128.621357"/>
     <use style="stroke:#000000;" x="91.504541" xlink:href="#me8eec6bd5a" y="127.915049"/>
     <use style="stroke:#000000;" x="91.80742" xlink:href="#me8eec6bd5a" y="127.215884"/>
     <use style="stroke:#000000;" x="92.080011" xlink:href="#me8eec6bd5a" y="126.523861"/>
     <use style="stroke:#000000;" x="92.352602" xlink:href="#me8eec6bd5a" y="125.83898"/>
     <use style="stroke:#000000;" x="92.625193" xlink:href="#me8eec6bd5a" y="125.160449"/>
     <use style="stroke:#000000;" x="92.928072" xlink:href="#me8eec6bd5a" y="124.489059"/>
     <use style="stroke:#000000;" x="93.200663" xlink:href="#me8eec6bd5a" y="123.824019"/>
     <use style="stroke:#000000;" x="93.473255" xlink:href="#me8eec6bd5a" y="123.166121"/>
     <use style="stroke:#000000;" x="93.897285" xlink:href="#me8eec6bd5a" y="122.190781"/>
     <use style="stroke:#000000;" x="94.321316" xlink:href="#me8eec6bd5a" y="121.229727"/>
     <use style="stroke:#000000;" x="94.745347" xlink:href="#me8eec6bd5a" y="120.282163"/>
     <use style="stroke:#000000;" x="95.169377" xlink:href="#me8eec6bd5a" y="119.349678"/>
     <use style="stroke:#000000;" x="95.56312" xlink:href="#me8eec6bd5a" y="118.430684"/>
     <use style="stroke:#000000;" x="95.987151" xlink:href="#me8eec6bd5a" y="117.525182"/>
     <use style="stroke:#000000;" x="96.411182" xlink:href="#me8eec6bd5a" y="116.632377"/>
     <use style="stroke:#000000;" x="96.835212" xlink:href="#me8eec6bd5a" y="115.753064"/>
     <use style="stroke:#000000;" x="97.259243" xlink:href="#me8eec6bd5a" y="114.886448"/>
     <use style="stroke:#000000;" x="97.683274" xlink:href="#me8eec6bd5a" y="114.03253"/>
     <use style="stroke:#000000;" x="98.107304" xlink:href="#me8eec6bd5a" y="113.191309"/>
     <use style="stroke:#000000;" x="98.531335" xlink:href="#me8eec6bd5a" y="112.361993"/>
     <use style="stroke:#000000;" x="98.834214" xlink:href="#me8eec6bd5a" y="111.54458"/>
     <use style="stroke:#000000;" x="99.439972" xlink:href="#me8eec6bd5a" y="110.739865"/>
     <use style="stroke:#000000;" x="99.742851" xlink:href="#me8eec6bd5a" y="109.945468"/>
     <use style="stroke:#000000;" x="100.34861" xlink:href="#me8eec6bd5a" y="109.163767"/>
     <use style="stroke:#000000;" x="100.651489" xlink:href="#me8eec6bd5a" y="108.392384"/>
     <use style="stroke:#000000;" x="100.954368" xlink:href="#me8eec6bd5a" y="107.632905"/>
     <use style="stroke:#000000;" x="101.560126" xlink:href="#me8eec6bd5a" y="106.883742"/>
     <use style="stroke:#000000;" x="101.863005" xlink:href="#me8eec6bd5a" y="106.14569"/>
     <use style="stroke:#000000;" x="102.165884" xlink:href="#me8eec6bd5a" y="105.418749"/>
     <use style="stroke:#000000;" x="102.771642" xlink:href="#me8eec6bd5a" y="104.701331"/>
     <use style="stroke:#000000;" x="103.074521" xlink:href="#me8eec6bd5a" y="103.994229"/>
     <use style="stroke:#000000;" x="103.680279" xlink:href="#me8eec6bd5a" y="103.298238"/>
     <use style="stroke:#000000;" x="103.983159" xlink:href="#me8eec6bd5a" y="102.610977"/>
     <use style="stroke:#000000;" x="104.286038" xlink:href="#me8eec6bd5a" y="101.934033"/>
     <use style="stroke:#000000;" x="104.891796" xlink:href="#me8eec6bd5a" y="101.267405"/>
     <use style="stroke:#000000;" x="105.194675" xlink:href="#me8eec6bd5a" y="100.609507"/>
     <use style="stroke:#000000;" x="105.800433" xlink:href="#me8eec6bd5a" y="99.961132"/>
     <use style="stroke:#000000;" x="106.103312" xlink:href="#me8eec6bd5a" y="99.322281"/>
     <use style="stroke:#000000;" x="106.406191" xlink:href="#me8eec6bd5a" y="98.692159"/>
     <use style="stroke:#000000;" x="107.011949" xlink:href="#me8eec6bd5a" y="97.761261"/>
     <use style="stroke:#000000;" x="107.617707" xlink:href="#me8eec6bd5a" y="96.850997"/>
     <use style="stroke:#000000;" x="108.526345" xlink:href="#me8eec6bd5a" y="95.95978"/>
     <use style="stroke:#000000;" x="109.132103" xlink:href="#me8eec6bd5a" y="95.087609"/>
     <use style="stroke:#000000;" x="109.737861" xlink:href="#me8eec6bd5a" y="94.23369"/>
     <use style="stroke:#000000;" x="110.343619" xlink:href="#me8eec6bd5a" y="93.397232"/>
     <use style="stroke:#000000;" x="110.949377" xlink:href="#me8eec6bd5a" y="92.579026"/>
     <use style="stroke:#000000;" x="111.555135" xlink:href="#me8eec6bd5a" y="91.778279"/>
     <use style="stroke:#000000;" x="112.160894" xlink:href="#me8eec6bd5a" y="90.994198"/>
     <use style="stroke:#000000;" x="112.766652" xlink:href="#me8eec6bd5a" y="90.226782"/>
     <use style="stroke:#000000;" x="113.37241" xlink:href="#me8eec6bd5a" y="89.475239"/>
     <use style="stroke:#000000;" x="113.978168" xlink:href="#me8eec6bd5a" y="88.739568"/>
     <use style="stroke:#000000;" x="114.583926" xlink:href="#me8eec6bd5a" y="88.018975"/>
     <use style="stroke:#000000;" x="115.344455" xlink:href="#me8eec6bd5a" y="87.313461"/>
     <use style="stroke:#000000;" x="115.976261" xlink:href="#me8eec6bd5a" y="86.623026"/>
     <use style="stroke:#000000;" x="116.607764" xlink:href="#me8eec6bd5a" y="85.946875"/>
     <use style="stroke:#000000;" x="117.23957" xlink:href="#me8eec6bd5a" y="85.285009"/>
     <use style="stroke:#000000;" x="117.871073" xlink:href="#me8eec6bd5a" y="84.636634"/>
     <use style="stroke:#000000;" x="118.502878" xlink:href="#me8eec6bd5a" y="84.002544"/>
     <use style="stroke:#000000;" x="119.134381" xlink:href="#me8eec6bd5a" y="83.380358"/>
     <use style="stroke:#000000;" x="119.765884" xlink:href="#me8eec6bd5a" y="82.772458"/>
     <use style="stroke:#000000;" x="120.39769" xlink:href="#me8eec6bd5a" y="82.175667"/>
     <use style="stroke:#000000;" x="121.029193" xlink:href="#me8eec6bd5a" y="81.592368"/>
     <use style="stroke:#000000;" x="121.660999" xlink:href="#me8eec6bd5a" y="81.020973"/>
     <use style="stroke:#000000;" x="122.616582" xlink:href="#me8eec6bd5a" y="80.178165"/>
     <use style="stroke:#000000;" x="123.572468" xlink:href="#me8eec6bd5a" y="79.361546"/>
     <use style="stroke:#000000;" x="124.528355" xlink:href="#me8eec6bd5a" y="78.570323"/>
     <use style="stroke:#000000;" x="125.483938" xlink:href="#me8eec6bd5a" y="77.803701"/>
     <use style="stroke:#000000;" x="126.439825" xlink:href="#me8eec6bd5a" y="77.060888"/>
     <use style="stroke:#000000;" x="127.395408" xlink:href="#me8eec6bd5a" y="76.341089"/>
     <use style="stroke:#000000;" x="128.351294" xlink:href="#me8eec6bd5a" y="75.643511"/>
     <use style="stroke:#000000;" x="129.307181" xlink:href="#me8eec6bd5a" y="74.966566"/>
     <use style="stroke:#000000;" x="130.262764" xlink:href="#me8eec6bd5a" y="74.311049"/>
     <use style="stroke:#000000;" x="131.218651" xlink:href="#me8eec6bd5a" y="73.675372"/>
     <use style="stroke:#000000;" x="132.174234" xlink:href="#me8eec6bd5a" y="73.059535"/>
     <use style="stroke:#000000;" x="133.13012" xlink:href="#me8eec6bd5a" y="72.461951"/>
     <use style="stroke:#000000;" x="134.086007" xlink:href="#me8eec6bd5a" y="71.88262"/>
     <use style="stroke:#000000;" x="135.04159" xlink:href="#me8eec6bd5a" y="71.321542"/>
     <use style="stroke:#000000;" x="135.997477" xlink:href="#me8eec6bd5a" y="70.777129"/>
     <use style="stroke:#000000;" x="136.95306" xlink:href="#me8eec6bd5a" y="70.248589"/>
     <use style="stroke:#000000;" x="137.908947" xlink:href="#me8eec6bd5a" y="69.736714"/>
     <use style="stroke:#000000;" x="138.864833" xlink:href="#me8eec6bd5a" y="69.239918"/>
     <use style="stroke:#000000;" x="139.820416" xlink:href="#me8eec6bd5a" y="68.758994"/>
     <use style="stroke:#000000;" x="140.776303" xlink:href="#me8eec6bd5a" y="68.291561"/>
     <use style="stroke:#000000;" x="141.731886" xlink:href="#me8eec6bd5a" y="67.838413"/>
     <use style="stroke:#000000;" x="142.687773" xlink:href="#me8eec6bd5a" y="67.398756"/>
     <use style="stroke:#000000;" x="143.643356" xlink:href="#me8eec6bd5a" y="66.97259"/>
     <use style="stroke:#000000;" x="144.599242" xlink:href="#me8eec6bd5a" y="66.559122"/>
     <use style="stroke:#000000;" x="145.555129" xlink:href="#me8eec6bd5a" y="66.158352"/>
     <use style="stroke:#000000;" x="146.510712" xlink:href="#me8eec6bd5a" y="65.768693"/>
     <use style="stroke:#000000;" x="147.466599" xlink:href="#me8eec6bd5a" y="65.390937"/>
     <use style="stroke:#000000;" x="148.422182" xlink:href="#me8eec6bd5a" y="65.024292"/>
     <use style="stroke:#000000;" x="149.378068" xlink:href="#me8eec6bd5a" y="64.668757"/>
     <use style="stroke:#000000;" x="150.333955" xlink:href="#me8eec6bd5a" y="64.323539"/>
     <use style="stroke:#000000;" x="151.289538" xlink:href="#me8eec6bd5a" y="63.988638"/>
     <use style="stroke:#000000;" x="152.245425" xlink:href="#me8eec6bd5a" y="63.664054"/>
     <use style="stroke:#000000;" x="153.201008" xlink:href="#me8eec6bd5a" y="63.3482"/>
     <use style="stroke:#000000;" x="154.156894" xlink:href="#me8eec6bd5a" y="63.041868"/>
     <use style="stroke:#000000;" x="155.112781" xlink:href="#me8eec6bd5a" y="62.744267"/>
     <use style="stroke:#000000;" x="156.068364" xlink:href="#me8eec6bd5a" y="62.456188"/>
     <use style="stroke:#000000;" x="157.024251" xlink:href="#me8eec6bd5a" y="62.176046"/>
     <use style="stroke:#000000;" x="157.979834" xlink:href="#me8eec6bd5a" y="61.90384"/>
     <use style="stroke:#000000;" x="158.93572" xlink:href="#me8eec6bd5a" y="61.63957"/>
     <use style="stroke:#000000;" x="159.891607" xlink:href="#me8eec6bd5a" y="61.383235"/>
     <use style="stroke:#000000;" x="160.84719" xlink:href="#me8eec6bd5a" y="61.134044"/>
     <use style="stroke:#000000;" x="161.803077" xlink:href="#me8eec6bd5a" y="60.892788"/>
     <use style="stroke:#000000;" x="162.75866" xlink:href="#me8eec6bd5a" y="60.657881"/>
     <use style="stroke:#000000;" x="163.714547" xlink:href="#me8eec6bd5a" y="60.429323"/>
     <use style="stroke:#000000;" x="164.670433" xlink:href="#me8eec6bd5a" y="60.207908"/>
     <use style="stroke:#000000;" x="165.626016" xlink:href="#me8eec6bd5a" y="59.992841"/>
     <use style="stroke:#000000;" x="166.581903" xlink:href="#me8eec6bd5a" y="59.784123"/>
     <use style="stroke:#000000;" x="167.537486" xlink:href="#me8eec6bd5a" y="59.58096"/>
     <use style="stroke:#000000;" x="168.493373" xlink:href="#me8eec6bd5a" y="59.383353"/>
     <use style="stroke:#000000;" x="169.449259" xlink:href="#me8eec6bd5a" y="59.192094"/>
     <use style="stroke:#000000;" x="170.404842" xlink:href="#me8eec6bd5a" y="59.005597"/>
     <use style="stroke:#000000;" x="171.360729" xlink:href="#me8eec6bd5a" y="58.824655"/>
     <use style="stroke:#000000;" x="172.316312" xlink:href="#me8eec6bd5a" y="58.649269"/>
     <use style="stroke:#000000;" x="173.272199" xlink:href="#me8eec6bd5a" y="58.478644"/>
     <use style="stroke:#000000;" x="174.227782" xlink:href="#me8eec6bd5a" y="58.311987"/>
     <use style="stroke:#000000;" x="175.183668" xlink:href="#me8eec6bd5a" y="58.150885"/>
     <use style="stroke:#000000;" x="176.139555" xlink:href="#me8eec6bd5a" y="57.994545"/>
     <use style="stroke:#000000;" x="177.095138" xlink:href="#me8eec6bd5a" y="57.842173"/>
     <use style="stroke:#000000;" x="178.051025" xlink:href="#me8eec6bd5a" y="57.693769"/>
     <use style="stroke:#000000;" x="179.006608" xlink:href="#me8eec6bd5a" y="57.549333"/>
     <use style="stroke:#000000;" x="179.962494" xlink:href="#me8eec6bd5a" y="57.409659"/>
     <use style="stroke:#000000;" x="180.918381" xlink:href="#me8eec6bd5a" y="57.273159"/>
     <use style="stroke:#000000;" x="181.873964" xlink:href="#me8eec6bd5a" y="57.141421"/>
     <use style="stroke:#000000;" x="182.829851" xlink:href="#me8eec6bd5a" y="57.012063"/>
     <use style="stroke:#000000;" x="183.785434" xlink:href="#me8eec6bd5a" y="56.887467"/>
     <use style="stroke:#000000;" x="184.741321" xlink:href="#me8eec6bd5a" y="56.765252"/>
     <use style="stroke:#000000;" x="185.697207" xlink:href="#me8eec6bd5a" y="56.647005"/>
     <use style="stroke:#000000;" x="186.65279" xlink:href="#me8eec6bd5a" y="56.531933"/>
     <use style="stroke:#000000;" x="187.608677" xlink:href="#me8eec6bd5a" y="56.420034"/>
     <use style="stroke:#000000;" x="188.56426" xlink:href="#me8eec6bd5a" y="56.311311"/>
     <use style="stroke:#000000;" x="189.520147" xlink:href="#me8eec6bd5a" y="56.204968"/>
     <use style="stroke:#000000;" x="190.476033" xlink:href="#me8eec6bd5a" y="56.102593"/>
     <use style="stroke:#000000;" x="191.431616" xlink:href="#me8eec6bd5a" y="56.001805"/>
     <use style="stroke:#000000;" x="192.387503" xlink:href="#me8eec6bd5a" y="55.904192"/>
     <use style="stroke:#000000;" x="193.343086" xlink:href="#me8eec6bd5a" y="55.809753"/>
     <use style="stroke:#000000;" x="194.298973" xlink:href="#me8eec6bd5a" y="55.717695"/>
     <use style="stroke:#000000;" x="195.254859" xlink:href="#me8eec6bd5a" y="55.627224"/>
     <use style="stroke:#000000;" x="196.210442" xlink:href="#me8eec6bd5a" y="55.539927"/>
     <use style="stroke:#000000;" x="197.166329" xlink:href="#me8eec6bd5a" y="55.455012"/>
     <use style="stroke:#000000;" x="198.121912" xlink:href="#me8eec6bd5a" y="55.372477"/>
     <use style="stroke:#000000;" x="199.077799" xlink:href="#me8eec6bd5a" y="55.291529"/>
     <use style="stroke:#000000;" x="200.033382" xlink:href="#me8eec6bd5a" y="55.212962"/>
     <use style="stroke:#000000;" x="200.989268" xlink:href="#me8eec6bd5a" y="55.136776"/>
     <use style="stroke:#000000;" x="201.945155" xlink:href="#me8eec6bd5a" y="55.062178"/>
     <use style="stroke:#000000;" x="202.900738" xlink:href="#me8eec6bd5a" y="54.98996"/>
     <use style="stroke:#000000;" x="203.856625" xlink:href="#me8eec6bd5a" y="54.919329"/>
     <use style="stroke:#000000;" x="204.812208" xlink:href="#me8eec6bd5a" y="54.851079"/>
     <use style="stroke:#000000;" x="205.768094" xlink:href="#me8eec6bd5a" y="54.783622"/>
     <use style="stroke:#000000;" x="206.723981" xlink:href="#me8eec6bd5a" y="54.718547"/>
     <use style="stroke:#000000;" x="207.679564" xlink:href="#me8eec6bd5a" y="54.655852"/>
     <use style="stroke:#000000;" x="208.635451" xlink:href="#me8eec6bd5a" y="54.593951"/>
     <use style="stroke:#000000;" x="209.591034" xlink:href="#me8eec6bd5a" y="54.533637"/>
     <use style="stroke:#000000;" x="210.546921" xlink:href="#me8eec6bd5a" y="54.47491"/>
     <use style="stroke:#000000;" x="211.502807" xlink:href="#me8eec6bd5a" y="54.417771"/>
     <use style="stroke:#000000;" x="212.45839" xlink:href="#me8eec6bd5a" y="54.362219"/>
     <use style="stroke:#000000;" x="213.414277" xlink:href="#me8eec6bd5a" y="54.308253"/>
     <use style="stroke:#000000;" x="214.36986" xlink:href="#me8eec6bd5a" y="54.255876"/>
     <use style="stroke:#000000;" x="215.325747" xlink:href="#me8eec6bd5a" y="54.204291"/>
     <use style="stroke:#000000;" x="216.281633" xlink:href="#me8eec6bd5a" y="54.154294"/>
     <use style="stroke:#000000;" x="217.237216" xlink:href="#me8eec6bd5a" y="54.105091"/>
     <use style="stroke:#000000;" x="218.193103" xlink:href="#me8eec6bd5a" y="54.057475"/>
     <use style="stroke:#000000;" x="219.148686" xlink:href="#me8eec6bd5a" y="54.011445"/>
     <use style="stroke:#000000;" x="220.104573" xlink:href="#me8eec6bd5a" y="53.96621"/>
     <use style="stroke:#000000;" x="221.060459" xlink:href="#me8eec6bd5a" y="53.922562"/>
     <use style="stroke:#000000;" x="222.016042" xlink:href="#me8eec6bd5a" y="53.879707"/>
     <use style="stroke:#000000;" x="222.971929" xlink:href="#me8eec6bd5a" y="53.837646"/>
     <use style="stroke:#000000;" x="223.927512" xlink:href="#me8eec6bd5a" y="53.796379"/>
     <use style="stroke:#000000;" x="224.883399" xlink:href="#me8eec6bd5a" y="53.756699"/>
     <use style="stroke:#000000;" x="225.839285" xlink:href="#me8eec6bd5a" y="53.717812"/>
     <use style="stroke:#000000;" x="226.794868" xlink:href="#me8eec6bd5a" y="53.680512"/>
     <use style="stroke:#000000;" x="227.750755" xlink:href="#me8eec6bd5a" y="53.643213"/>
     <use style="stroke:#000000;" x="228.706338" xlink:href="#me8eec6bd5a" y="53.607501"/>
     <use style="stroke:#000000;" x="229.662225" xlink:href="#me8eec6bd5a" y="53.572582"/>
     <use style="stroke:#000000;" x="230.617808" xlink:href="#me8eec6bd5a" y="53.538457"/>
     <use style="stroke:#000000;" x="231.573695" xlink:href="#me8eec6bd5a" y="53.505126"/>
     <use style="stroke:#000000;" x="232.529581" xlink:href="#me8eec6bd5a" y="53.472588"/>
     <use style="stroke:#000000;" x="233.485164" xlink:href="#me8eec6bd5a" y="53.440844"/>
     <use style="stroke:#000000;" x="234.441051" xlink:href="#me8eec6bd5a" y="53.409893"/>
     <use style="stroke:#000000;" x="235.396634" xlink:href="#me8eec6bd5a" y="53.379736"/>
     <use style="stroke:#000000;" x="236.352521" xlink:href="#me8eec6bd5a" y="53.350373"/>
     <use style="stroke:#000000;" x="237.308407" xlink:href="#me8eec6bd5a" y="53.32101"/>
     <use style="stroke:#000000;" x="238.26399" xlink:href="#me8eec6bd5a" y="53.293234"/>
     <use style="stroke:#000000;" x="239.219877" xlink:href="#me8eec6bd5a" y="53.265457"/>
     <use style="stroke:#000000;" x="240.17546" xlink:href="#me8eec6bd5a" y="53.239269"/>
     <use style="stroke:#000000;" x="241.131347" xlink:href="#me8eec6bd5a" y="53.21308"/>
     <use style="stroke:#000000;" x="242.087233" xlink:href="#me8eec6bd5a" y="53.187684"/>
     <use style="stroke:#000000;" x="243.042816" xlink:href="#me8eec6bd5a" y="53.163083"/>
     <use style="stroke:#000000;" x="243.998703" xlink:href="#me8eec6bd5a" y="53.138481"/>
     <use style="stroke:#000000;" x="244.954286" xlink:href="#me8eec6bd5a" y="53.114673"/>
     <use style="stroke:#000000;" x="245.910173" xlink:href="#me8eec6bd5a" y="53.091658"/>
     <use style="stroke:#000000;" x="246.866059" xlink:href="#me8eec6bd5a" y="53.069437"/>
     <use style="stroke:#000000;" x="247.821642" xlink:href="#me8eec6bd5a" y="53.047216"/>
     <use style="stroke:#000000;" x="248.777529" xlink:href="#me8eec6bd5a" y="53.025789"/>
     <use style="stroke:#000000;" x="249.733112" xlink:href="#me8eec6bd5a" y="53.004362"/>
     <use style="stroke:#000000;" x="251.168759" xlink:href="#me8eec6bd5a" y="52.973411"/>
     <use style="stroke:#000000;" x="252.604103" xlink:href="#me8eec6bd5a" y="52.944048"/>
     <use style="stroke:#000000;" x="254.039447" xlink:href="#me8eec6bd5a" y="52.915478"/>
     <use style="stroke:#000000;" x="255.474791" xlink:href="#me8eec6bd5a" y="52.887702"/>
     <use style="stroke:#000000;" x="256.910135" xlink:href="#me8eec6bd5a" y="52.861513"/>
     <use style="stroke:#000000;" x="258.345479" xlink:href="#me8eec6bd5a" y="52.835324"/>
     <use style="stroke:#000000;" x="259.781126" xlink:href="#me8eec6bd5a" y="52.810722"/>
     <use style="stroke:#000000;" x="261.21647" xlink:href="#me8eec6bd5a" y="52.786914"/>
     <use style="stroke:#000000;" x="262.651813" xlink:href="#me8eec6bd5a" y="52.7639"/>
     <use style="stroke:#000000;" x="264.087157" xlink:href="#me8eec6bd5a" y="52.740885"/>
     <use style="stroke:#000000;" x="265.522501" xlink:href="#me8eec6bd5a" y="52.719458"/>
     <use style="stroke:#000000;" x="266.958148" xlink:href="#me8eec6bd5a" y="52.698824"/>
     <use style="stroke:#000000;" x="268.393492" xlink:href="#me8eec6bd5a" y="52.67819"/>
     <use style="stroke:#000000;" x="269.828836" xlink:href="#me8eec6bd5a" y="52.659144"/>
     <use style="stroke:#000000;" x="271.26418" xlink:href="#me8eec6bd5a" y="52.640097"/>
     <use style="stroke:#000000;" x="272.699524" xlink:href="#me8eec6bd5a" y="52.621844"/>
     <use style="stroke:#000000;" x="274.135171" xlink:href="#me8eec6bd5a" y="52.603592"/>
     <use style="stroke:#000000;" x="275.570515" xlink:href="#me8eec6bd5a" y="52.586926"/>
     <use style="stroke:#000000;" x="277.005859" xlink:href="#me8eec6bd5a" y="52.57026"/>
     <use style="stroke:#000000;" x="278.441202" xlink:href="#me8eec6bd5a" y="52.554388"/>
     <use style="stroke:#000000;" x="279.876546" xlink:href="#me8eec6bd5a" y="52.538516"/>
     <use style="stroke:#000000;" x="281.31189" xlink:href="#me8eec6bd5a" y="52.523437"/>
     <use style="stroke:#000000;" x="282.747537" xlink:href="#me8eec6bd5a" y="52.509153"/>
     <use style="stroke:#000000;" x="284.182881" xlink:href="#me8eec6bd5a" y="52.494868"/>
     <use style="stroke:#000000;" x="285.618225" xlink:href="#me8eec6bd5a" y="52.481376"/>
     <use style="stroke:#000000;" x="287.053569" xlink:href="#me8eec6bd5a" y="52.467885"/>
     <use style="stroke:#000000;" x="288.488913" xlink:href="#me8eec6bd5a" y="52.455188"/>
     <use style="stroke:#000000;" x="289.92456" xlink:href="#me8eec6bd5a" y="52.44249"/>
     <use style="stroke:#000000;" x="291.359904" xlink:href="#me8eec6bd5a" y="52.430586"/>
     <use style="stroke:#000000;" x="292.795248" xlink:href="#me8eec6bd5a" y="52.418682"/>
     <use style="stroke:#000000;" x="294.230591" xlink:href="#me8eec6bd5a" y="52.407571"/>
     <use style="stroke:#000000;" x="295.665935" xlink:href="#me8eec6bd5a" y="52.396461"/>
     <use style="stroke:#000000;" x="297.101279" xlink:href="#me8eec6bd5a" y="52.386144"/>
     <use style="stroke:#000000;" x="298.536926" xlink:href="#me8eec6bd5a" y="52.375827"/>
     <use style="stroke:#000000;" x="299.97227" xlink:href="#me8eec6bd5a" y="52.36551"/>
     <use style="stroke:#000000;" x="301.407614" xlink:href="#me8eec6bd5a" y="52.355987"/>
     <use style="stroke:#000000;" x="302.842958" xlink:href="#me8eec6bd5a" y="52.346464"/>
     <use style="stroke:#000000;" x="304.278302" xlink:href="#me8eec6bd5a" y="52.337734"/>
     <use style="stroke:#000000;" x="305.713949" xlink:href="#me8eec6bd5a" y="52.329004"/>
     <use style="stroke:#000000;" x="307.149293" xlink:href="#me8eec6bd5a" y="52.320275"/>
     <use style="stroke:#000000;" x="308.584637" xlink:href="#me8eec6bd5a" y="52.311545"/>
     <use style="stroke:#000000;" x="310.019981" xlink:href="#me8eec6bd5a" y="52.303609"/>
     <use style="stroke:#000000;" x="311.455324" xlink:href="#me8eec6bd5a" y="52.295673"/>
     <use style="stroke:#000000;" x="312.890971" xlink:href="#me8eec6bd5a" y="52.288531"/>
     <use style="stroke:#000000;" x="314.326315" xlink:href="#me8eec6bd5a" y="52.281388"/>
     <use style="stroke:#000000;" x="315.761659" xlink:href="#me8eec6bd5a" y="52.273452"/>
     <use style="stroke:#000000;" x="317.197003" xlink:href="#me8eec6bd5a" y="52.267103"/>
     <use style="stroke:#000000;" x="318.632347" xlink:href="#me8eec6bd5a" y="52.259961"/>
     <use style="stroke:#000000;" x="320.067691" xlink:href="#me8eec6bd5a" y="52.253612"/>
     <use style="stroke:#000000;" x="321.503338" xlink:href="#me8eec6bd5a" y="52.247263"/>
     <use style="stroke:#000000;" x="322.938682" xlink:href="#me8eec6bd5a" y="52.240914"/>
     <use style="stroke:#000000;" x="324.374026" xlink:href="#me8eec6bd5a" y="52.234566"/>
     <use style="stroke:#000000;" x="325.80937" xlink:href="#me8eec6bd5a" y="52.22901"/>
     <use style="stroke:#000000;" x="327.244713" xlink:href="#me8eec6bd5a" y="52.223455"/>
     <use style="stroke:#000000;" x="328.68036" xlink:href="#me8eec6bd5a" y="52.2179"/>
     <use style="stroke:#000000;" x="330.115704" xlink:href="#me8eec6bd5a" y="52.212345"/>
     <use style="stroke:#000000;" x="331.551048" xlink:href="#me8eec6bd5a" y="52.206789"/>
     <use style="stroke:#000000;" x="332.986392" xlink:href="#me8eec6bd5a" y="52.202028"/>
     <use style="stroke:#000000;" x="334.421736" xlink:href="#me8eec6bd5a" y="52.197266"/>
     <use style="stroke:#000000;" x="335.85708" xlink:href="#me8eec6bd5a" y="52.192504"/>
     <use style="stroke:#000000;" x="337.292727" xlink:href="#me8eec6bd5a" y="52.187743"/>
     <use style="stroke:#000000;" x="338.728071" xlink:href="#me8eec6bd5a" y="52.182981"/>
     <use style="stroke:#000000;" x="340.163415" xlink:href="#me8eec6bd5a" y="52.17822"/>
     <use style="stroke:#000000;" x="341.598759" xlink:href="#me8eec6bd5a" y="52.174252"/>
     <use style="stroke:#000000;" x="343.034103" xlink:href="#me8eec6bd5a" y="52.170284"/>
     <use style="stroke:#000000;" x="344.469749" xlink:href="#me8eec6bd5a" y="52.165522"/>
     <use style="stroke:#000000;" x="345.905093" xlink:href="#me8eec6bd5a" y="52.161554"/>
     <use style="stroke:#000000;" x="347.340437" xlink:href="#me8eec6bd5a" y="52.157586"/>
     <use style="stroke:#000000;" x="348.775781" xlink:href="#me8eec6bd5a" y="52.154411"/>
     <use style="stroke:#000000;" x="350.211125" xlink:href="#me8eec6bd5a" y="52.150443"/>
     <use style="stroke:#000000;" x="351.646772" xlink:href="#me8eec6bd5a" y="52.147269"/>
     <use style="stroke:#000000;" x="353.082116" xlink:href="#me8eec6bd5a" y="52.143301"/>
     <use style="stroke:#000000;" x="354.51746" xlink:href="#me8eec6bd5a" y="52.140127"/>
     <use style="stroke:#000000;" x="355.952804" xlink:href="#me8eec6bd5a" y="52.136952"/>
     <use style="stroke:#000000;" x="357.388148" xlink:href="#me8eec6bd5a" y="52.133778"/>
     <use style="stroke:#000000;" x="358.823492" xlink:href="#me8eec6bd5a" y="52.130603"/>
     <use style="stroke:#000000;" x="360.259138" xlink:href="#me8eec6bd5a" y="52.127429"/>
     <use style="stroke:#000000;" x="361.694482" xlink:href="#me8eec6bd5a" y="52.124255"/>
     <use style="stroke:#000000;" x="363.129826" xlink:href="#me8eec6bd5a" y="52.12108"/>
     <use style="stroke:#000000;" x="364.56517" xlink:href="#me8eec6bd5a" y="52.118699"/>
     <use style="stroke:#000000;" x="366.000514" xlink:href="#me8eec6bd5a" y="52.115525"/>
     <use style="stroke:#000000;" x="367.436161" xlink:href="#me8eec6bd5a" y="52.113144"/>
     <use style="stroke:#000000;" x="368.871505" xlink:href="#me8eec6bd5a" y="52.110763"/>
     <use style="stroke:#000000;" x="370.306849" xlink:href="#me8eec6bd5a" y="52.107589"/>
     <use style="stroke:#000000;" x="371.743404" xlink:href="#me8eec6bd5a" y="52.105208"/>
    </g>
   </g>
   <g id="line2d_16">
    <path clip-path="url(#p08431dd959)" d="M 68.546307 194.48531 
L 68.780432 194.387809 
L 69.094518 194.004266 
L 69.627585 192.792136 
L 70.254545 190.658717 
L 71.111693 186.91951 
L 72.362583 180.472718 
L 77.814406 151.487639 
L 80.086 140.887355 
L 82.327305 131.35855 
L 84.901777 121.453928 
L 87.02193 114.089831 
L 89.566115 106.067784 
L 91.80742 99.682692 
L 93.897285 94.290221 
L 95.987151 89.320863 
L 97.683274 85.611619 
L 99.742851 81.442806 
L 102.165884 77.009611 
L 105.194675 72.092737 
L 108.526345 67.303249 
L 111.555135 63.524017 
L 113.978168 60.81483 
L 117.23957 57.568556 
L 120.39769 54.812966 
L 122.616582 53.07526 
L 125.483938 51.070057 
L 129.307181 48.689779 
L 133.13012 46.611057 
L 137.908947 44.430478 
L 142.687773 42.602481 
L 147.466599 41.061814 
L 152.245425 39.770151 
L 157.979834 38.482854 
L 163.714547 37.432497 
L 170.404842 36.441467 
L 178.051025 35.564102 
L 190.476033 34.529726 
L 200.989268 33.92674 
L 213.414277 33.42809 
L 230.617808 32.986736 
L 252.604103 32.660203 
L 285.618225 32.410055 
L 343.034103 32.239742 
L 371.743404 32.201761 
L 371.743404 32.201761 
" style="fill:none;stroke:#0000ff;stroke-dasharray:5.55,2.4;stroke-dashoffset:0;stroke-width:1.5;"/>
   </g>
   <g id="line2d_17">
    <path clip-path="url(#p08431dd959)" d="M 68.546307 229.874488 
L 68.803148 229.768245 
L 69.130863 229.344515 
L 69.594268 228.292624 
L 70.254545 226.125751 
L 71.2177 222.03939 
L 72.877478 213.912988 
L 76.239435 197.520081 
L 78.571604 187.251053 
L 81.206652 176.726535 
L 83.99314 166.680961 
L 86.385884 158.813531 
L 89.263236 150.191023 
L 91.80742 143.260065 
L 94.745347 135.974901 
L 97.259243 130.288021 
L 100.34861 123.997023 
L 103.074521 118.944296 
L 106.406191 113.409834 
L 109.132103 109.379654 
L 111.555135 106.110465 
L 114.583926 102.399984 
L 117.871073 98.827714 
L 121.029193 95.777409 
L 124.528355 92.763265 
L 127.395408 90.59425 
L 130.262764 88.648773 
L 133.13012 86.919001 
L 135.997477 85.347854 
L 139.820416 83.510765 
L 143.643356 81.920418 
L 147.466599 80.542475 
L 152.245425 79.080389 
L 157.024251 77.856407 
L 162.75866 76.649168 
L 168.493373 75.666739 
L 174.227782 74.873297 
L 181.873964 74.030037 
L 190.476033 73.321773 
L 200.989268 72.695308 
L 214.36986 72.152563 
L 229.662225 71.749998 
L 252.604103 71.394198 
L 285.618225 71.136604 
L 338.728071 70.962367 
L 371.743404 70.911926 
L 371.743404 70.911926 
" style="fill:none;stroke:#0000ff;stroke-dasharray:5.55,2.4;stroke-dashoffset:0;stroke-width:1.5;"/>
   </g>
   <g id="line2d_18"/>
   <g id="line2d_19"/>
   <g id="line2d_20"/>
   <g id="line2d_21"/>
   <g id="line2d_22"/>
   <g id="line2d_23"/>
   <g id="patch_3">
    <path d="M 53.328125 239.758125 
L 53.328125 22.318125 
" style="fill:none;stroke:#000000;stroke-linecap:square;stroke-linejoin:miter;stroke-width:0.8;"/>
   </g>
   <g id="patch_4">
    <path d="M 388.128125 239.758125 
L 388.128125 22.318125 
" style="fill:none;stroke:#000000;stroke-linecap:square;stroke-linejoin:miter;stroke-width:0.8;"/>
   </g>
   <g id="patch_5">
    <path d="M 53.328125 239.758125 
L 388.128125 239.758125 
" style="fill:none;stroke:#000000;stroke-linecap:square;stroke-linejoin:miter;stroke-width:0.8;"/>
   </g>
   <g id="patch_6">
    <path d="M 53.328125 22.318125 
L 388.128125 22.318125 
" style="fill:none;stroke:#000000;stroke-linecap:square;stroke-linejoin:miter;stroke-width:0.8;"/>
   </g>
   <g id="text_15">
    <!-- Experiment_21 -->
    <defs>
     <path d="M 9.8125 72.90625 
L 55.90625 72.90625 
L 55.90625 64.59375 
L 19.671875 64.59375 
L 19.671875 43.015625 
L 54.390625 43.015625 
L 54.390625 34.71875 
L 19.671875 34.71875 
L 19.671875 8.296875 
L 56.78125 8.296875 
L 56.78125 0 
L 9.8125 0 
z
" id="DejaVuSans-69"/>
     <path d="M 54.890625 54.6875 
L 35.109375 28.078125 
L 55.90625 0 
L 45.3125 0 
L 29.390625 21.484375 
L 13.484375 0 
L 2.875 0 
L 24.125 28.609375 
L 4.6875 54.6875 
L 15.28125 54.6875 
L 29.78125 35.203125 
L 44.28125 54.6875 
z
" id="DejaVuSans-120"/>
     <path d="M 41.109375 46.296875 
Q 39.59375 47.171875 37.8125 47.578125 
Q 36.03125 48 33.890625 48 
Q 26.265625 48 22.1875 43.046875 
Q 18.109375 38.09375 18.109375 28.8125 
L 18.109375 0 
L 9.078125 0 
L 9.078125 54.6875 
L 18.109375 54.6875 
L 18.109375 46.1875 
Q 20.953125 51.171875 25.484375 53.578125 
Q 30.03125 56 36.53125 56 
Q 37.453125 56 38.578125 55.875 
Q 39.703125 55.765625 41.0625 55.515625 
z
" id="DejaVuSans-114"/>
     <path d="M 54.890625 33.015625 
L 54.890625 0 
L 45.90625 0 
L 45.90625 32.71875 
Q 45.90625 40.484375 42.875 44.328125 
Q 39.84375 48.1875 33.796875 48.1875 
Q 26.515625 48.1875 22.3125 43.546875 
Q 18.109375 38.921875 18.109375 30.90625 
L 18.109375 0 
L 9.078125 0 
L 9.078125 54.6875 
L 18.109375 54.6875 
L 18.109375 46.1875 
Q 21.34375 51.125 25.703125 53.5625 
Q 30.078125 56 35.796875 56 
Q 45.21875 56 50.046875 50.171875 
Q 54.890625 44.34375 54.890625 33.015625 
z
" id="DejaVuSans-110"/>
     <path d="M 18.3125 70.21875 
L 18.3125 54.6875 
L 36.8125 54.6875 
L 36.8125 47.703125 
L 18.3125 47.703125 
L 18.3125 18.015625 
Q 18.3125 11.328125 20.140625 9.421875 
Q 21.96875 7.515625 27.59375 7.515625 
L 36.8125 7.515625 
L 36.8125 0 
L 27.59375 0 
Q 17.1875 0 13.234375 3.875 
Q 9.28125 7.765625 9.28125 18.015625 
L 9.28125 47.703125 
L 2.6875 47.703125 
L 2.6875 54.6875 
L 9.28125 54.6875 
L 9.28125 70.21875 
z
" id="DejaVuSans-116"/>
     <path d="M 50.984375 -16.609375 
L 50.984375 -23.578125 
L -0.984375 -23.578125 
L -0.984375 -16.609375 
z
" id="DejaVuSans-95"/>
    </defs>
    <g transform="translate(175.425313 16.318125)scale(0.12 -0.12)">
     <use xlink:href="#DejaVuSans-69"/>
     <use x="63.183594" xlink:href="#DejaVuSans-120"/>
     <use x="122.363281" xlink:href="#DejaVuSans-112"/>
     <use x="185.839844" xlink:href="#DejaVuSans-101"/>
     <use x="247.363281" xlink:href="#DejaVuSans-114"/>
     <use x="288.476562" xlink:href="#DejaVuSans-105"/>
     <use x="316.259766" xlink:href="#DejaVuSans-109"/>
     <use x="413.671875" xlink:href="#DejaVuSans-101"/>
     <use x="475.195312" xlink:href="#DejaVuSans-110"/>
     <use x="538.574219" xlink:href="#DejaVuSans-116"/>
     <use x="577.783203" xlink:href="#DejaVuSans-95"/>
     <use x="627.783203" xlink:href="#DejaVuSans-50"/>
     <use x="691.40625" xlink:href="#DejaVuSans-49"/>
    </g>
   </g>
   <g id="legend_1">
    <g id="patch_7">
     <path d="M 125.007812 234.758125 
L 381.128125 234.758125 
Q 383.128125 234.758125 383.128125 232.758125 
L 383.128125 160.345625 
Q 383.128125 158.345625 381.128125 158.345625 
L 125.007812 158.345625 
Q 123.007812 158.345625 123.007812 160.345625 
L 123.007812 232.758125 
Q 123.007812 234.758125 125.007812 234.758125 
z
" style="fill:#ffffff;opacity:0.8;stroke:#cccccc;stroke-linejoin:miter;"/>
    </g>
    <g id="line2d_24">
     <path d="M 127.007812 166.444062 
L 147.007812 166.444062 
" style="fill:none;stroke:#0000ff;stroke-linecap:square;stroke-width:1.5;"/>
    </g>
    <g id="line2d_25"/>
    <g id="text_16">
     <!-- MSI -->
     <defs>
      <path d="M 9.8125 72.90625 
L 24.515625 72.90625 
L 43.109375 23.296875 
L 61.8125 72.90625 
L 76.515625 72.90625 
L 76.515625 0 
L 66.890625 0 
L 66.890625 64.015625 
L 48.09375 14.015625 
L 38.1875 14.015625 
L 19.390625 64.015625 
L 19.390625 0 
L 9.8125 0 
z
" id="DejaVuSans-77"/>
      <path d="M 53.515625 70.515625 
L 53.515625 60.890625 
Q 47.90625 63.578125 42.921875 64.890625 
Q 37.9375 66.21875 33.296875 66.21875 
Q 25.25 66.21875 20.875 63.09375 
Q 16.5 59.96875 16.5 54.203125 
Q 16.5 49.359375 19.40625 46.890625 
Q 22.3125 44.4375 30.421875 42.921875 
L 36.375 41.703125 
Q 47.40625 39.59375 52.65625 34.296875 
Q 57.90625 29 57.90625 20.125 
Q 57.90625 9.515625 50.796875 4.046875 
Q 43.703125 -1.421875 29.984375 -1.421875 
Q 24.8125 -1.421875 18.96875 -0.25 
Q 13.140625 0.921875 6.890625 3.21875 
L 6.890625 13.375 
Q 12.890625 10.015625 18.65625 8.296875 
Q 24.421875 6.59375 29.984375 6.59375 
Q 38.421875 6.59375 43.015625 9.90625 
Q 47.609375 13.234375 47.609375 19.390625 
Q 47.609375 24.75 44.3125 27.78125 
Q 41.015625 30.8125 33.5 32.328125 
L 27.484375 33.5 
Q 16.453125 35.6875 11.515625 40.375 
Q 6.59375 45.0625 6.59375 53.421875 
Q 6.59375 63.09375 13.40625 68.65625 
Q 20.21875 74.21875 32.171875 74.21875 
Q 37.3125 74.21875 42.625 73.28125 
Q 47.953125 72.359375 53.515625 70.515625 
z
" id="DejaVuSans-83"/>
      <path d="M 9.8125 72.90625 
L 19.671875 72.90625 
L 19.671875 0 
L 9.8125 0 
z
" id="DejaVuSans-73"/>
     </defs>
     <g transform="translate(155.007812 169.944062)scale(0.1 -0.1)">
      <use xlink:href="#DejaVuSans-77"/>
      <use x="86.279297" xlink:href="#DejaVuSans-83"/>
      <use x="149.755859" xlink:href="#DejaVuSans-73"/>
     </g>
    </g>
    <g id="line2d_26">
     <path d="M 127.007812 181.12375 
L 147.007812 181.12375 
" style="fill:none;stroke:#ff0000;stroke-linecap:square;stroke-width:1.5;"/>
    </g>
    <g id="line2d_27"/>
    <g id="text_17">
     <!-- $\it{A priori}$ model -->
     <defs>
      <path d="M 36.8125 72.90625 
L 48 72.90625 
L 61.53125 0 
L 51.21875 0 
L 48.1875 18.703125 
L 15.375 18.703125 
L 5.078125 0 
L -5.328125 0 
z
M 40.375 63.1875 
L 19.921875 26.90625 
L 46.6875 26.90625 
z
" id="DejaVuSans-Oblique-65"/>
      <path d="M 49.609375 33.6875 
Q 49.609375 40.875 46.484375 44.671875 
Q 43.359375 48.484375 37.5 48.484375 
Q 33.5 48.484375 29.859375 46.4375 
Q 26.21875 44.390625 23.390625 40.484375 
Q 20.609375 36.625 18.9375 31.15625 
Q 17.28125 25.6875 17.28125 20.3125 
Q 17.28125 13.484375 20.40625 9.796875 
Q 23.53125 6.109375 29.296875 6.109375 
Q 33.546875 6.109375 37.1875 8.109375 
Q 40.828125 10.109375 43.40625 13.921875 
Q 46.1875 17.921875 47.890625 23.34375 
Q 49.609375 28.765625 49.609375 33.6875 
z
M 21.78125 46.390625 
Q 25.390625 51.125 30.296875 53.5625 
Q 35.203125 56 41.21875 56 
Q 49.609375 56 54.25 50.5 
Q 58.890625 45.015625 58.890625 35.109375 
Q 58.890625 27 56 19.65625 
Q 53.125 12.3125 47.703125 6.5 
Q 44.09375 2.640625 39.546875 0.609375 
Q 35.015625 -1.421875 29.984375 -1.421875 
Q 24.171875 -1.421875 20.21875 1 
Q 16.265625 3.421875 14.3125 8.203125 
L 8.6875 -20.796875 
L -0.296875 -20.796875 
L 14.40625 54.6875 
L 23.390625 54.6875 
z
" id="DejaVuSans-Oblique-112"/>
      <path d="M 44.578125 46.390625 
Q 43.21875 47.125 41.453125 47.515625 
Q 39.703125 47.90625 37.703125 47.90625 
Q 30.515625 47.90625 25.140625 42.453125 
Q 19.78125 37.015625 18.015625 27.875 
L 12.5 0 
L 3.515625 0 
L 14.203125 54.6875 
L 23.1875 54.6875 
L 21.484375 46.1875 
Q 25.046875 50.921875 30 53.453125 
Q 34.96875 56 40.578125 56 
Q 42.046875 56 43.453125 55.828125 
Q 44.875 55.671875 46.296875 55.28125 
z
" id="DejaVuSans-Oblique-114"/>
      <path d="M 18.3125 75.984375 
L 27.296875 75.984375 
L 25.09375 64.59375 
L 16.109375 64.59375 
z
M 14.203125 54.6875 
L 23.1875 54.6875 
L 12.5 0 
L 3.515625 0 
z
" id="DejaVuSans-Oblique-105"/>
      <path d="M 25.390625 -1.421875 
Q 15.765625 -1.421875 10.171875 4.515625 
Q 4.59375 10.453125 4.59375 20.703125 
Q 4.59375 26.65625 6.515625 32.828125 
Q 8.453125 39.015625 11.53125 43.21875 
Q 16.359375 49.75 22.3125 52.875 
Q 28.265625 56 35.796875 56 
Q 45.125 56 50.859375 50.1875 
Q 56.59375 44.390625 56.59375 35.015625 
Q 56.59375 28.515625 54.6875 22.0625 
Q 52.78125 15.625 49.703125 11.375 
Q 44.921875 4.828125 38.96875 1.703125 
Q 33.015625 -1.421875 25.390625 -1.421875 
z
M 13.921875 21 
Q 13.921875 13.578125 17.015625 9.890625 
Q 20.125 6.203125 26.421875 6.203125 
Q 35.453125 6.203125 41.375 14.078125 
Q 47.3125 21.96875 47.3125 34.078125 
Q 47.3125 41.15625 44.140625 44.765625 
Q 40.96875 48.390625 34.8125 48.390625 
Q 29.734375 48.390625 25.78125 46.015625 
Q 21.828125 43.65625 18.703125 38.8125 
Q 16.40625 35.203125 15.15625 30.5625 
Q 13.921875 25.921875 13.921875 21 
z
" id="DejaVuSans-Oblique-111"/>
      <path d="M 30.609375 48.390625 
Q 23.390625 48.390625 19.1875 42.75 
Q 14.984375 37.109375 14.984375 27.296875 
Q 14.984375 17.484375 19.15625 11.84375 
Q 23.34375 6.203125 30.609375 6.203125 
Q 37.796875 6.203125 41.984375 11.859375 
Q 46.1875 17.53125 46.1875 27.296875 
Q 46.1875 37.015625 41.984375 42.703125 
Q 37.796875 48.390625 30.609375 48.390625 
z
M 30.609375 56 
Q 42.328125 56 49.015625 48.375 
Q 55.71875 40.765625 55.71875 27.296875 
Q 55.71875 13.875 49.015625 6.21875 
Q 42.328125 -1.421875 30.609375 -1.421875 
Q 18.84375 -1.421875 12.171875 6.21875 
Q 5.515625 13.875 5.515625 27.296875 
Q 5.515625 40.765625 12.171875 48.375 
Q 18.84375 56 30.609375 56 
z
" id="DejaVuSans-111"/>
      <path d="M 45.40625 46.390625 
L 45.40625 75.984375 
L 54.390625 75.984375 
L 54.390625 0 
L 45.40625 0 
L 45.40625 8.203125 
Q 42.578125 3.328125 38.25 0.953125 
Q 33.9375 -1.421875 27.875 -1.421875 
Q 17.96875 -1.421875 11.734375 6.484375 
Q 5.515625 14.40625 5.515625 27.296875 
Q 5.515625 40.1875 11.734375 48.09375 
Q 17.96875 56 27.875 56 
Q 33.9375 56 38.25 53.625 
Q 42.578125 51.265625 45.40625 46.390625 
z
M 14.796875 27.296875 
Q 14.796875 17.390625 18.875 11.75 
Q 22.953125 6.109375 30.078125 6.109375 
Q 37.203125 6.109375 41.296875 11.75 
Q 45.40625 17.390625 45.40625 27.296875 
Q 45.40625 37.203125 41.296875 42.84375 
Q 37.203125 48.484375 30.078125 48.484375 
Q 22.953125 48.484375 18.875 42.84375 
Q 14.796875 37.203125 14.796875 27.296875 
z
" id="DejaVuSans-100"/>
      <path d="M 9.421875 75.984375 
L 18.40625 75.984375 
L 18.40625 0 
L 9.421875 0 
z
" id="DejaVuSans-108"/>
     </defs>
     <g transform="translate(155.007812 184.62375)scale(0.1 -0.1)">
      <use transform="translate(0 0.015625)" xlink:href="#DejaVuSans-Oblique-65"/>
      <use transform="translate(68.408203 0.015625)" xlink:href="#DejaVuSans-Oblique-112"/>
      <use transform="translate(131.884766 0.015625)" xlink:href="#DejaVuSans-Oblique-114"/>
      <use transform="translate(172.998047 0.015625)" xlink:href="#DejaVuSans-Oblique-105"/>
      <use transform="translate(200.78125 0.015625)" xlink:href="#DejaVuSans-Oblique-111"/>
      <use transform="translate(261.962891 0.015625)" xlink:href="#DejaVuSans-Oblique-114"/>
      <use transform="translate(303.076172 0.015625)" xlink:href="#DejaVuSans-Oblique-105"/>
      <use transform="translate(330.859375 0.015625)" xlink:href="#DejaVuSans-32"/>
      <use transform="translate(362.646484 0.015625)" xlink:href="#DejaVuSans-109"/>
      <use transform="translate(460.058594 0.015625)" xlink:href="#DejaVuSans-111"/>
      <use transform="translate(521.240234 0.015625)" xlink:href="#DejaVuSans-100"/>
      <use transform="translate(584.716797 0.015625)" xlink:href="#DejaVuSans-101"/>
      <use transform="translate(646.240234 0.015625)" xlink:href="#DejaVuSans-108"/>
     </g>
    </g>
    <g id="line2d_28"/>
    <g id="line2d_29">
     <g>
      <use style="stroke:#000000;" x="137.007812" xlink:href="#me8eec6bd5a" y="195.822187"/>
     </g>
    </g>
    <g id="text_18">
     <!-- Experimental Data -->
     <defs>
      <path d="M 34.28125 27.484375 
Q 23.390625 27.484375 19.1875 25 
Q 14.984375 22.515625 14.984375 16.5 
Q 14.984375 11.71875 18.140625 8.90625 
Q 21.296875 6.109375 26.703125 6.109375 
Q 34.1875 6.109375 38.703125 11.40625 
Q 43.21875 16.703125 43.21875 25.484375 
L 43.21875 27.484375 
z
M 52.203125 31.203125 
L 52.203125 0 
L 43.21875 0 
L 43.21875 8.296875 
Q 40.140625 3.328125 35.546875 0.953125 
Q 30.953125 -1.421875 24.3125 -1.421875 
Q 15.921875 -1.421875 10.953125 3.296875 
Q 6 8.015625 6 15.921875 
Q 6 25.140625 12.171875 29.828125 
Q 18.359375 34.515625 30.609375 34.515625 
L 43.21875 34.515625 
L 43.21875 35.40625 
Q 43.21875 41.609375 39.140625 45 
Q 35.0625 48.390625 27.6875 48.390625 
Q 23 48.390625 18.546875 47.265625 
Q 14.109375 46.140625 10.015625 43.890625 
L 10.015625 52.203125 
Q 14.9375 54.109375 19.578125 55.046875 
Q 24.21875 56 28.609375 56 
Q 40.484375 56 46.34375 49.84375 
Q 52.203125 43.703125 52.203125 31.203125 
z
" id="DejaVuSans-97"/>
      <path d="M 19.671875 64.796875 
L 19.671875 8.109375 
L 31.59375 8.109375 
Q 46.6875 8.109375 53.6875 14.9375 
Q 60.6875 21.78125 60.6875 36.53125 
Q 60.6875 51.171875 53.6875 57.984375 
Q 46.6875 64.796875 31.59375 64.796875 
z
M 9.8125 72.90625 
L 30.078125 72.90625 
Q 51.265625 72.90625 61.171875 64.09375 
Q 71.09375 55.28125 71.09375 36.53125 
Q 71.09375 17.671875 61.125 8.828125 
Q 51.171875 0 30.078125 0 
L 9.8125 0 
z
" id="DejaVuSans-68"/>
     </defs>
     <g transform="translate(155.007812 199.322187)scale(0.1 -0.1)">
      <use xlink:href="#DejaVuSans-69"/>
      <use x="63.183594" xlink:href="#DejaVuSans-120"/>
      <use x="122.363281" xlink:href="#DejaVuSans-112"/>
      <use x="185.839844" xlink:href="#DejaVuSans-101"/>
      <use x="247.363281" xlink:href="#DejaVuSans-114"/>
      <use x="288.476562" xlink:href="#DejaVuSans-105"/>
      <use x="316.259766" xlink:href="#DejaVuSans-109"/>
      <use x="413.671875" xlink:href="#DejaVuSans-101"/>
      <use x="475.195312" xlink:href="#DejaVuSans-110"/>
      <use x="538.574219" xlink:href="#DejaVuSans-116"/>
      <use x="577.783203" xlink:href="#DejaVuSans-97"/>
      <use x="639.0625" xlink:href="#DejaVuSans-108"/>
      <use x="666.845703" xlink:href="#DejaVuSans-32"/>
      <use x="698.632812" xlink:href="#DejaVuSans-68"/>
      <use x="775.634766" xlink:href="#DejaVuSans-97"/>
      <use x="836.914062" xlink:href="#DejaVuSans-116"/>
      <use x="876.123047" xlink:href="#DejaVuSans-97"/>
     </g>
    </g>
    <g id="line2d_30">
     <path d="M 127.007812 210.500312 
L 147.007812 210.500312 
" style="fill:none;stroke:#ffffff;stroke-linecap:square;stroke-width:1.5;"/>
    </g>
    <g id="line2d_31"/>
    <g id="text_19">
     <!-- T:1245 -->
     <defs>
      <path d="M 11.71875 12.40625 
L 22.015625 12.40625 
L 22.015625 0 
L 11.71875 0 
z
M 11.71875 51.703125 
L 22.015625 51.703125 
L 22.015625 39.3125 
L 11.71875 39.3125 
z
" id="DejaVuSans-58"/>
     </defs>
     <g transform="translate(155.007812 214.000312)scale(0.1 -0.1)">
      <use xlink:href="#DejaVuSans-84"/>
      <use x="60.912109" xlink:href="#DejaVuSans-58"/>
      <use x="94.603516" xlink:href="#DejaVuSans-49"/>
      <use x="158.226562" xlink:href="#DejaVuSans-50"/>
      <use x="221.849609" xlink:href="#DejaVuSans-52"/>
      <use x="285.472656" xlink:href="#DejaVuSans-53"/>
     </g>
    </g>
    <g id="line2d_32">
     <path d="M 127.007812 225.178437 
L 147.007812 225.178437 
" style="fill:none;stroke:#ffffff;stroke-linecap:square;stroke-width:1.5;"/>
    </g>
    <g id="line2d_33"/>
    <g id="text_20">
     <!-- P:1.644 -->
     <defs>
      <path d="M 19.671875 64.796875 
L 19.671875 37.40625 
L 32.078125 37.40625 
Q 38.96875 37.40625 42.71875 40.96875 
Q 46.484375 44.53125 46.484375 51.125 
Q 46.484375 57.671875 42.71875 61.234375 
Q 38.96875 64.796875 32.078125 64.796875 
z
M 9.8125 72.90625 
L 32.078125 72.90625 
Q 44.34375 72.90625 50.609375 67.359375 
Q 56.890625 61.8125 56.890625 51.125 
Q 56.890625 40.328125 50.609375 34.8125 
Q 44.34375 29.296875 32.078125 29.296875 
L 19.671875 29.296875 
L 19.671875 0 
L 9.8125 0 
z
" id="DejaVuSans-80"/>
     </defs>
     <g transform="translate(155.007812 228.678437)scale(0.1 -0.1)">
      <use xlink:href="#DejaVuSans-80"/>
      <use x="60.302734" xlink:href="#DejaVuSans-58"/>
      <use x="93.994141" xlink:href="#DejaVuSans-49"/>
      <use x="157.617188" xlink:href="#DejaVuSans-46"/>
      <use x="189.404297" xlink:href="#DejaVuSans-54"/>
      <use x="253.027344" xlink:href="#DejaVuSans-52"/>
      <use x="316.650391" xlink:href="#DejaVuSans-52"/>
     </g>
    </g>
    <g id="line2d_34">
     <path d="M 268.748438 166.444062 
L 288.748438 166.444062 
" style="fill:none;stroke:#ffffff;stroke-linecap:square;stroke-width:1.5;"/>
    </g>
    <g id="line2d_35"/>
    <g id="text_21">
     <!-- H2O2: 0.002058 -->
     <g transform="translate(296.748438 169.944062)scale(0.1 -0.1)">
      <use xlink:href="#DejaVuSans-72"/>
      <use x="75.195312" xlink:href="#DejaVuSans-50"/>
      <use x="138.818359" xlink:href="#DejaVuSans-79"/>
      <use x="217.529297" xlink:href="#DejaVuSans-50"/>
      <use x="281.152344" xlink:href="#DejaVuSans-58"/>
      <use x="314.84375" xlink:href="#DejaVuSans-32"/>
      <use x="346.630859" xlink:href="#DejaVuSans-48"/>
      <use x="410.253906" xlink:href="#DejaVuSans-46"/>
      <use x="442.041016" xlink:href="#DejaVuSans-48"/>
      <use x="505.664062" xlink:href="#DejaVuSans-48"/>
      <use x="569.287109" xlink:href="#DejaVuSans-50"/>
      <use x="632.910156" xlink:href="#DejaVuSans-48"/>
      <use x="696.533203" xlink:href="#DejaVuSans-53"/>
      <use x="760.15625" xlink:href="#DejaVuSans-56"/>
     </g>
    </g>
    <g id="line2d_36">
     <path d="M 268.748438 181.122187 
L 288.748438 181.122187 
" style="fill:none;stroke:#ffffff;stroke-linecap:square;stroke-width:1.5;"/>
    </g>
    <g id="line2d_37"/>
    <g id="text_22">
     <!-- H2O: 0.001113 -->
     <g transform="translate(296.748438 184.622187)scale(0.1 -0.1)">
      <use xlink:href="#DejaVuSans-72"/>
      <use x="75.195312" xlink:href="#DejaVuSans-50"/>
      <use x="138.818359" xlink:href="#DejaVuSans-79"/>
      <use x="217.513672" xlink:href="#DejaVuSans-58"/>
      <use x="251.205078" xlink:href="#DejaVuSans-32"/>
      <use x="282.992188" xlink:href="#DejaVuSans-48"/>
      <use x="346.615234" xlink:href="#DejaVuSans-46"/>
      <use x="378.402344" xlink:href="#DejaVuSans-48"/>
      <use x="442.025391" xlink:href="#DejaVuSans-48"/>
      <use x="505.648438" xlink:href="#DejaVuSans-49"/>
      <use x="569.271484" xlink:href="#DejaVuSans-49"/>
      <use x="632.894531" xlink:href="#DejaVuSans-49"/>
      <use x="696.517578" xlink:href="#DejaVuSans-51"/>
     </g>
    </g>
    <g id="line2d_38">
     <path d="M 268.748438 195.800312 
L 288.748438 195.800312 
" style="fill:none;stroke:#ffffff;stroke-linecap:square;stroke-width:1.5;"/>
    </g>
    <g id="line2d_39"/>
    <g id="text_23">
     <!-- O2: 0.000556 -->
     <g transform="translate(296.748438 199.300312)scale(0.1 -0.1)">
      <use xlink:href="#DejaVuSans-79"/>
      <use x="78.710938" xlink:href="#DejaVuSans-50"/>
      <use x="142.333984" xlink:href="#DejaVuSans-58"/>
      <use x="176.025391" xlink:href="#DejaVuSans-32"/>
      <use x="207.8125" xlink:href="#DejaVuSans-48"/>
      <use x="271.435547" xlink:href="#DejaVuSans-46"/>
      <use x="303.222656" xlink:href="#DejaVuSans-48"/>
      <use x="366.845703" xlink:href="#DejaVuSans-48"/>
      <use x="430.46875" xlink:href="#DejaVuSans-48"/>
      <use x="494.091797" xlink:href="#DejaVuSans-53"/>
      <use x="557.714844" xlink:href="#DejaVuSans-53"/>
      <use x="621.337891" xlink:href="#DejaVuSans-54"/>
     </g>
    </g>
    <g id="line2d_40">
     <path d="M 268.748438 210.478437 
L 288.748438 210.478437 
" style="fill:none;stroke:#ffffff;stroke-linecap:square;stroke-width:1.5;"/>
    </g>
    <g id="line2d_41"/>
    <g id="text_24">
     <!-- Ar: 0.996248 -->
     <defs>
      <path d="M 34.1875 63.1875 
L 20.796875 26.90625 
L 47.609375 26.90625 
z
M 28.609375 72.90625 
L 39.796875 72.90625 
L 67.578125 0 
L 57.328125 0 
L 50.6875 18.703125 
L 17.828125 18.703125 
L 11.1875 0 
L 0.78125 0 
z
" id="DejaVuSans-65"/>
      <path d="M 10.984375 1.515625 
L 10.984375 10.5 
Q 14.703125 8.734375 18.5 7.8125 
Q 22.3125 6.890625 25.984375 6.890625 
Q 35.75 6.890625 40.890625 13.453125 
Q 46.046875 20.015625 46.78125 33.40625 
Q 43.953125 29.203125 39.59375 26.953125 
Q 35.25 24.703125 29.984375 24.703125 
Q 19.046875 24.703125 12.671875 31.3125 
Q 6.296875 37.9375 6.296875 49.421875 
Q 6.296875 60.640625 12.9375 67.421875 
Q 19.578125 74.21875 30.609375 74.21875 
Q 43.265625 74.21875 49.921875 64.515625 
Q 56.59375 54.828125 56.59375 36.375 
Q 56.59375 19.140625 48.40625 8.859375 
Q 40.234375 -1.421875 26.421875 -1.421875 
Q 22.703125 -1.421875 18.890625 -0.6875 
Q 15.09375 0.046875 10.984375 1.515625 
z
M 30.609375 32.421875 
Q 37.25 32.421875 41.125 36.953125 
Q 45.015625 41.5 45.015625 49.421875 
Q 45.015625 57.28125 41.125 61.84375 
Q 37.25 66.40625 30.609375 66.40625 
Q 23.96875 66.40625 20.09375 61.84375 
Q 16.21875 57.28125 16.21875 49.421875 
Q 16.21875 41.5 20.09375 36.953125 
Q 23.96875 32.421875 30.609375 32.421875 
z
" id="DejaVuSans-57"/>
     </defs>
     <g transform="translate(296.748438 213.978437)scale(0.1 -0.1)">
      <use xlink:href="#DejaVuSans-65"/>
      <use x="68.408203" xlink:href="#DejaVuSans-114"/>
      <use x="109.505859" xlink:href="#DejaVuSans-58"/>
      <use x="143.197266" xlink:href="#DejaVuSans-32"/>
      <use x="174.984375" xlink:href="#DejaVuSans-48"/>
      <use x="238.607422" xlink:href="#DejaVuSans-46"/>
      <use x="270.394531" xlink:href="#DejaVuSans-57"/>
      <use x="334.017578" xlink:href="#DejaVuSans-57"/>
      <use x="397.640625" xlink:href="#DejaVuSans-54"/>
      <use x="461.263672" xlink:href="#DejaVuSans-50"/>
      <use x="524.886719" xlink:href="#DejaVuSans-52"/>
      <use x="588.509766" xlink:href="#DejaVuSans-56"/>
     </g>
    </g>
   </g>
  </g>
 </g>
 <defs>
  <clipPath id="p08431dd959">
   <rect height="217.44" width="334.8" x="53.328125" y="22.318125"/>
  </clipPath>
 </defs>
</svg>
