<?xml version="1.0" encoding="utf-8" standalone="no"?>
<!DOCTYPE svg PUBLIC "-//W3C//DTD SVG 1.1//EN"
  "http://www.w3.org/Graphics/SVG/1.1/DTD/svg11.dtd">
<!-- Created with matplotlib (https://matplotlib.org/) -->
<svg height="277.314375pt" version="1.1" viewBox="0 0 395.64375 277.314375" width="395.64375pt" xmlns="http://www.w3.org/2000/svg" xmlns:xlink="http://www.w3.org/1999/xlink">
 <defs>
  <style type="text/css">
*{stroke-linecap:butt;stroke-linejoin:round;}
  </style>
 </defs>
 <g id="figure_1">
  <g id="patch_1">
   <path d="M 0 277.314375 
L 395.64375 277.314375 
L 395.64375 0 
L 0 0 
z
" style="fill:none;"/>
  </g>
  <g id="axes_1">
   <g id="patch_2">
    <path d="M 50.14375 239.758125 
L 384.94375 239.758125 
L 384.94375 22.318125 
L 50.14375 22.318125 
z
" style="fill:none;"/>
   </g>
   <g id="matplotlib.axis_1">
    <g id="xtick_1">
     <g id="line2d_1">
      <defs>
       <path d="M 0 0 
L 0 3.5 
" id="me21b4b7bcb" style="stroke:#000000;stroke-width:0.8;"/>
      </defs>
      <g>
       <use style="stroke:#000000;stroke-width:0.8;" x="65.361932" xlink:href="#me21b4b7bcb" y="239.758125"/>
      </g>
     </g>
     <g id="text_1">
      <!-- 0.0 -->
      <defs>
       <path d="M 31.78125 66.40625 
Q 24.171875 66.40625 20.328125 58.90625 
Q 16.5 51.421875 16.5 36.375 
Q 16.5 21.390625 20.328125 13.890625 
Q 24.171875 6.390625 31.78125 6.390625 
Q 39.453125 6.390625 43.28125 13.890625 
Q 47.125 21.390625 47.125 36.375 
Q 47.125 51.421875 43.28125 58.90625 
Q 39.453125 66.40625 31.78125 66.40625 
z
M 31.78125 74.21875 
Q 44.046875 74.21875 50.515625 64.515625 
Q 56.984375 54.828125 56.984375 36.375 
Q 56.984375 17.96875 50.515625 8.265625 
Q 44.046875 -1.421875 31.78125 -1.421875 
Q 19.53125 -1.421875 13.0625 8.265625 
Q 6.59375 17.96875 6.59375 36.375 
Q 6.59375 54.828125 13.0625 64.515625 
Q 19.53125 74.21875 31.78125 74.21875 
z
" id="DejaVuSans-48"/>
       <path d="M 10.6875 12.40625 
L 21 12.40625 
L 21 0 
L 10.6875 0 
z
" id="DejaVuSans-46"/>
      </defs>
      <g transform="translate(57.410369 254.356562)scale(0.1 -0.1)">
       <use xlink:href="#DejaVuSans-48"/>
       <use x="63.623047" xlink:href="#DejaVuSans-46"/>
       <use x="95.410156" xlink:href="#DejaVuSans-48"/>
      </g>
     </g>
    </g>
    <g id="xtick_2">
     <g id="line2d_2">
      <g>
       <use style="stroke:#000000;stroke-width:0.8;" x="125.027506" xlink:href="#me21b4b7bcb" y="239.758125"/>
      </g>
     </g>
     <g id="text_2">
      <!-- 0.2 -->
      <defs>
       <path d="M 19.1875 8.296875 
L 53.609375 8.296875 
L 53.609375 0 
L 7.328125 0 
L 7.328125 8.296875 
Q 12.9375 14.109375 22.625 23.890625 
Q 32.328125 33.6875 34.8125 36.53125 
Q 39.546875 41.84375 41.421875 45.53125 
Q 43.3125 49.21875 43.3125 52.78125 
Q 43.3125 58.59375 39.234375 62.25 
Q 35.15625 65.921875 28.609375 65.921875 
Q 23.96875 65.921875 18.8125 64.3125 
Q 13.671875 62.703125 7.8125 59.421875 
L 7.8125 69.390625 
Q 13.765625 71.78125 18.9375 73 
Q 24.125 74.21875 28.421875 74.21875 
Q 39.75 74.21875 46.484375 68.546875 
Q 53.21875 62.890625 53.21875 53.421875 
Q 53.21875 48.921875 51.53125 44.890625 
Q 49.859375 40.875 45.40625 35.40625 
Q 44.1875 33.984375 37.640625 27.21875 
Q 31.109375 20.453125 19.1875 8.296875 
z
" id="DejaVuSans-50"/>
      </defs>
      <g transform="translate(117.075944 254.356562)scale(0.1 -0.1)">
       <use xlink:href="#DejaVuSans-48"/>
       <use x="63.623047" xlink:href="#DejaVuSans-46"/>
       <use x="95.410156" xlink:href="#DejaVuSans-50"/>
      </g>
     </g>
    </g>
    <g id="xtick_3">
     <g id="line2d_3">
      <g>
       <use style="stroke:#000000;stroke-width:0.8;" x="184.69308" xlink:href="#me21b4b7bcb" y="239.758125"/>
      </g>
     </g>
     <g id="text_3">
      <!-- 0.4 -->
      <defs>
       <path d="M 37.796875 64.3125 
L 12.890625 25.390625 
L 37.796875 25.390625 
z
M 35.203125 72.90625 
L 47.609375 72.90625 
L 47.609375 25.390625 
L 58.015625 25.390625 
L 58.015625 17.1875 
L 47.609375 17.1875 
L 47.609375 0 
L 37.796875 0 
L 37.796875 17.1875 
L 4.890625 17.1875 
L 4.890625 26.703125 
z
" id="DejaVuSans-52"/>
      </defs>
      <g transform="translate(176.741518 254.356562)scale(0.1 -0.1)">
       <use xlink:href="#DejaVuSans-48"/>
       <use x="63.623047" xlink:href="#DejaVuSans-46"/>
       <use x="95.410156" xlink:href="#DejaVuSans-52"/>
      </g>
     </g>
    </g>
    <g id="xtick_4">
     <g id="line2d_4">
      <g>
       <use style="stroke:#000000;stroke-width:0.8;" x="244.358655" xlink:href="#me21b4b7bcb" y="239.758125"/>
      </g>
     </g>
     <g id="text_4">
      <!-- 0.6 -->
      <defs>
       <path d="M 33.015625 40.375 
Q 26.375 40.375 22.484375 35.828125 
Q 18.609375 31.296875 18.609375 23.390625 
Q 18.609375 15.53125 22.484375 10.953125 
Q 26.375 6.390625 33.015625 6.390625 
Q 39.65625 6.390625 43.53125 10.953125 
Q 47.40625 15.53125 47.40625 23.390625 
Q 47.40625 31.296875 43.53125 35.828125 
Q 39.65625 40.375 33.015625 40.375 
z
M 52.59375 71.296875 
L 52.59375 62.3125 
Q 48.875 64.0625 45.09375 64.984375 
Q 41.3125 65.921875 37.59375 65.921875 
Q 27.828125 65.921875 22.671875 59.328125 
Q 17.53125 52.734375 16.796875 39.40625 
Q 19.671875 43.65625 24.015625 45.921875 
Q 28.375 48.1875 33.59375 48.1875 
Q 44.578125 48.1875 50.953125 41.515625 
Q 57.328125 34.859375 57.328125 23.390625 
Q 57.328125 12.15625 50.6875 5.359375 
Q 44.046875 -1.421875 33.015625 -1.421875 
Q 20.359375 -1.421875 13.671875 8.265625 
Q 6.984375 17.96875 6.984375 36.375 
Q 6.984375 53.65625 15.1875 63.9375 
Q 23.390625 74.21875 37.203125 74.21875 
Q 40.921875 74.21875 44.703125 73.484375 
Q 48.484375 72.75 52.59375 71.296875 
z
" id="DejaVuSans-54"/>
      </defs>
      <g transform="translate(236.407092 254.356562)scale(0.1 -0.1)">
       <use xlink:href="#DejaVuSans-48"/>
       <use x="63.623047" xlink:href="#DejaVuSans-46"/>
       <use x="95.410156" xlink:href="#DejaVuSans-54"/>
      </g>
     </g>
    </g>
    <g id="xtick_5">
     <g id="line2d_5">
      <g>
       <use style="stroke:#000000;stroke-width:0.8;" x="304.024229" xlink:href="#me21b4b7bcb" y="239.758125"/>
      </g>
     </g>
     <g id="text_5">
      <!-- 0.8 -->
      <defs>
       <path d="M 31.78125 34.625 
Q 24.75 34.625 20.71875 30.859375 
Q 16.703125 27.09375 16.703125 20.515625 
Q 16.703125 13.921875 20.71875 10.15625 
Q 24.75 6.390625 31.78125 6.390625 
Q 38.8125 6.390625 42.859375 10.171875 
Q 46.921875 13.96875 46.921875 20.515625 
Q 46.921875 27.09375 42.890625 30.859375 
Q 38.875 34.625 31.78125 34.625 
z
M 21.921875 38.8125 
Q 15.578125 40.375 12.03125 44.71875 
Q 8.5 49.078125 8.5 55.328125 
Q 8.5 64.0625 14.71875 69.140625 
Q 20.953125 74.21875 31.78125 74.21875 
Q 42.671875 74.21875 48.875 69.140625 
Q 55.078125 64.0625 55.078125 55.328125 
Q 55.078125 49.078125 51.53125 44.71875 
Q 48 40.375 41.703125 38.8125 
Q 48.828125 37.15625 52.796875 32.3125 
Q 56.78125 27.484375 56.78125 20.515625 
Q 56.78125 9.90625 50.3125 4.234375 
Q 43.84375 -1.421875 31.78125 -1.421875 
Q 19.734375 -1.421875 13.25 4.234375 
Q 6.78125 9.90625 6.78125 20.515625 
Q 6.78125 27.484375 10.78125 32.3125 
Q 14.796875 37.15625 21.921875 38.8125 
z
M 18.3125 54.390625 
Q 18.3125 48.734375 21.84375 45.5625 
Q 25.390625 42.390625 31.78125 42.390625 
Q 38.140625 42.390625 41.71875 45.5625 
Q 45.3125 48.734375 45.3125 54.390625 
Q 45.3125 60.0625 41.71875 63.234375 
Q 38.140625 66.40625 31.78125 66.40625 
Q 25.390625 66.40625 21.84375 63.234375 
Q 18.3125 60.0625 18.3125 54.390625 
z
" id="DejaVuSans-56"/>
      </defs>
      <g transform="translate(296.072666 254.356562)scale(0.1 -0.1)">
       <use xlink:href="#DejaVuSans-48"/>
       <use x="63.623047" xlink:href="#DejaVuSans-46"/>
       <use x="95.410156" xlink:href="#DejaVuSans-56"/>
      </g>
     </g>
    </g>
    <g id="xtick_6">
     <g id="line2d_6">
      <g>
       <use style="stroke:#000000;stroke-width:0.8;" x="363.689803" xlink:href="#me21b4b7bcb" y="239.758125"/>
      </g>
     </g>
     <g id="text_6">
      <!-- 1.0 -->
      <defs>
       <path d="M 12.40625 8.296875 
L 28.515625 8.296875 
L 28.515625 63.921875 
L 10.984375 60.40625 
L 10.984375 69.390625 
L 28.421875 72.90625 
L 38.28125 72.90625 
L 38.28125 8.296875 
L 54.390625 8.296875 
L 54.390625 0 
L 12.40625 0 
z
" id="DejaVuSans-49"/>
      </defs>
      <g transform="translate(355.738241 254.356562)scale(0.1 -0.1)">
       <use xlink:href="#DejaVuSans-49"/>
       <use x="63.623047" xlink:href="#DejaVuSans-46"/>
       <use x="95.410156" xlink:href="#DejaVuSans-48"/>
      </g>
     </g>
    </g>
    <g id="text_7">
     <!-- Time (ms) -->
     <defs>
      <path d="M -0.296875 72.90625 
L 61.375 72.90625 
L 61.375 64.59375 
L 35.5 64.59375 
L 35.5 0 
L 25.59375 0 
L 25.59375 64.59375 
L -0.296875 64.59375 
z
" id="DejaVuSans-84"/>
      <path d="M 9.421875 54.6875 
L 18.40625 54.6875 
L 18.40625 0 
L 9.421875 0 
z
M 9.421875 75.984375 
L 18.40625 75.984375 
L 18.40625 64.59375 
L 9.421875 64.59375 
z
" id="DejaVuSans-105"/>
      <path d="M 52 44.1875 
Q 55.375 50.25 60.0625 53.125 
Q 64.75 56 71.09375 56 
Q 79.640625 56 84.28125 50.015625 
Q 88.921875 44.046875 88.921875 33.015625 
L 88.921875 0 
L 79.890625 0 
L 79.890625 32.71875 
Q 79.890625 40.578125 77.09375 44.375 
Q 74.3125 48.1875 68.609375 48.1875 
Q 61.625 48.1875 57.5625 43.546875 
Q 53.515625 38.921875 53.515625 30.90625 
L 53.515625 0 
L 44.484375 0 
L 44.484375 32.71875 
Q 44.484375 40.625 41.703125 44.40625 
Q 38.921875 48.1875 33.109375 48.1875 
Q 26.21875 48.1875 22.15625 43.53125 
Q 18.109375 38.875 18.109375 30.90625 
L 18.109375 0 
L 9.078125 0 
L 9.078125 54.6875 
L 18.109375 54.6875 
L 18.109375 46.1875 
Q 21.1875 51.21875 25.484375 53.609375 
Q 29.78125 56 35.6875 56 
Q 41.65625 56 45.828125 52.96875 
Q 50 49.953125 52 44.1875 
z
" id="DejaVuSans-109"/>
      <path d="M 56.203125 29.59375 
L 56.203125 25.203125 
L 14.890625 25.203125 
Q 15.484375 15.921875 20.484375 11.0625 
Q 25.484375 6.203125 34.421875 6.203125 
Q 39.59375 6.203125 44.453125 7.46875 
Q 49.3125 8.734375 54.109375 11.28125 
L 54.109375 2.78125 
Q 49.265625 0.734375 44.1875 -0.34375 
Q 39.109375 -1.421875 33.890625 -1.421875 
Q 20.796875 -1.421875 13.15625 6.1875 
Q 5.515625 13.8125 5.515625 26.8125 
Q 5.515625 40.234375 12.765625 48.109375 
Q 20.015625 56 32.328125 56 
Q 43.359375 56 49.78125 48.890625 
Q 56.203125 41.796875 56.203125 29.59375 
z
M 47.21875 32.234375 
Q 47.125 39.59375 43.09375 43.984375 
Q 39.0625 48.390625 32.421875 48.390625 
Q 24.90625 48.390625 20.390625 44.140625 
Q 15.875 39.890625 15.1875 32.171875 
z
" id="DejaVuSans-101"/>
      <path id="DejaVuSans-32"/>
      <path d="M 31 75.875 
Q 24.46875 64.65625 21.28125 53.65625 
Q 18.109375 42.671875 18.109375 31.390625 
Q 18.109375 20.125 21.3125 9.0625 
Q 24.515625 -2 31 -13.1875 
L 23.1875 -13.1875 
Q 15.875 -1.703125 12.234375 9.375 
Q 8.59375 20.453125 8.59375 31.390625 
Q 8.59375 42.28125 12.203125 53.3125 
Q 15.828125 64.359375 23.1875 75.875 
z
" id="DejaVuSans-40"/>
      <path d="M 44.28125 53.078125 
L 44.28125 44.578125 
Q 40.484375 46.53125 36.375 47.5 
Q 32.28125 48.484375 27.875 48.484375 
Q 21.1875 48.484375 17.84375 46.4375 
Q 14.5 44.390625 14.5 40.28125 
Q 14.5 37.15625 16.890625 35.375 
Q 19.28125 33.59375 26.515625 31.984375 
L 29.59375 31.296875 
Q 39.15625 29.25 43.1875 25.515625 
Q 47.21875 21.78125 47.21875 15.09375 
Q 47.21875 7.46875 41.1875 3.015625 
Q 35.15625 -1.421875 24.609375 -1.421875 
Q 20.21875 -1.421875 15.453125 -0.5625 
Q 10.6875 0.296875 5.421875 2 
L 5.421875 11.28125 
Q 10.40625 8.6875 15.234375 7.390625 
Q 20.0625 6.109375 24.8125 6.109375 
Q 31.15625 6.109375 34.5625 8.28125 
Q 37.984375 10.453125 37.984375 14.40625 
Q 37.984375 18.0625 35.515625 20.015625 
Q 33.0625 21.96875 24.703125 23.78125 
L 21.578125 24.515625 
Q 13.234375 26.265625 9.515625 29.90625 
Q 5.8125 33.546875 5.8125 39.890625 
Q 5.8125 47.609375 11.28125 51.796875 
Q 16.75 56 26.8125 56 
Q 31.78125 56 36.171875 55.265625 
Q 40.578125 54.546875 44.28125 53.078125 
z
" id="DejaVuSans-115"/>
      <path d="M 8.015625 75.875 
L 15.828125 75.875 
Q 23.140625 64.359375 26.78125 53.3125 
Q 30.421875 42.28125 30.421875 31.390625 
Q 30.421875 20.453125 26.78125 9.375 
Q 23.140625 -1.703125 15.828125 -13.1875 
L 8.015625 -13.1875 
Q 14.5 -2 17.703125 9.0625 
Q 20.90625 20.125 20.90625 31.390625 
Q 20.90625 42.671875 17.703125 53.65625 
Q 14.5 64.65625 8.015625 75.875 
z
" id="DejaVuSans-41"/>
     </defs>
     <g transform="translate(192.190625 268.034687)scale(0.1 -0.1)">
      <use xlink:href="#DejaVuSans-84"/>
      <use x="61.037109" xlink:href="#DejaVuSans-105"/>
      <use x="88.820312" xlink:href="#DejaVuSans-109"/>
      <use x="186.232422" xlink:href="#DejaVuSans-101"/>
      <use x="247.755859" xlink:href="#DejaVuSans-32"/>
      <use x="279.542969" xlink:href="#DejaVuSans-40"/>
      <use x="318.556641" xlink:href="#DejaVuSans-109"/>
      <use x="415.96875" xlink:href="#DejaVuSans-115"/>
      <use x="468.068359" xlink:href="#DejaVuSans-41"/>
     </g>
    </g>
   </g>
   <g id="matplotlib.axis_2">
    <g id="ytick_1">
     <g id="line2d_7">
      <defs>
       <path d="M 0 0 
L -3.5 0 
" id="mca44825718" style="stroke:#000000;stroke-width:0.8;"/>
      </defs>
      <g>
       <use style="stroke:#000000;stroke-width:0.8;" x="50.14375" xlink:href="#mca44825718" y="216.25247"/>
      </g>
     </g>
     <g id="text_8">
      <!-- 0.05 -->
      <defs>
       <path d="M 10.796875 72.90625 
L 49.515625 72.90625 
L 49.515625 64.59375 
L 19.828125 64.59375 
L 19.828125 46.734375 
Q 21.96875 47.46875 24.109375 47.828125 
Q 26.265625 48.1875 28.421875 48.1875 
Q 40.625 48.1875 47.75 41.5 
Q 54.890625 34.8125 54.890625 23.390625 
Q 54.890625 11.625 47.5625 5.09375 
Q 40.234375 -1.421875 26.90625 -1.421875 
Q 22.3125 -1.421875 17.546875 -0.640625 
Q 12.796875 0.140625 7.71875 1.703125 
L 7.71875 11.625 
Q 12.109375 9.234375 16.796875 8.0625 
Q 21.484375 6.890625 26.703125 6.890625 
Q 35.15625 6.890625 40.078125 11.328125 
Q 45.015625 15.765625 45.015625 23.390625 
Q 45.015625 31 40.078125 35.4375 
Q 35.15625 39.890625 26.703125 39.890625 
Q 22.75 39.890625 18.8125 39.015625 
Q 14.890625 38.140625 10.796875 36.28125 
z
" id="DejaVuSans-53"/>
      </defs>
      <g transform="translate(20.878125 220.051688)scale(0.1 -0.1)">
       <use xlink:href="#DejaVuSans-48"/>
       <use x="63.623047" xlink:href="#DejaVuSans-46"/>
       <use x="95.410156" xlink:href="#DejaVuSans-48"/>
       <use x="159.033203" xlink:href="#DejaVuSans-53"/>
      </g>
     </g>
    </g>
    <g id="ytick_2">
     <g id="line2d_8">
      <g>
       <use style="stroke:#000000;stroke-width:0.8;" x="50.14375" xlink:href="#mca44825718" y="171.178983"/>
      </g>
     </g>
     <g id="text_9">
      <!-- 0.10 -->
      <g transform="translate(20.878125 174.978202)scale(0.1 -0.1)">
       <use xlink:href="#DejaVuSans-48"/>
       <use x="63.623047" xlink:href="#DejaVuSans-46"/>
       <use x="95.410156" xlink:href="#DejaVuSans-49"/>
       <use x="159.033203" xlink:href="#DejaVuSans-48"/>
      </g>
     </g>
    </g>
    <g id="ytick_3">
     <g id="line2d_9">
      <g>
       <use style="stroke:#000000;stroke-width:0.8;" x="50.14375" xlink:href="#mca44825718" y="126.105496"/>
      </g>
     </g>
     <g id="text_10">
      <!-- 0.15 -->
      <g transform="translate(20.878125 129.904715)scale(0.1 -0.1)">
       <use xlink:href="#DejaVuSans-48"/>
       <use x="63.623047" xlink:href="#DejaVuSans-46"/>
       <use x="95.410156" xlink:href="#DejaVuSans-49"/>
       <use x="159.033203" xlink:href="#DejaVuSans-53"/>
      </g>
     </g>
    </g>
    <g id="ytick_4">
     <g id="line2d_10">
      <g>
       <use style="stroke:#000000;stroke-width:0.8;" x="50.14375" xlink:href="#mca44825718" y="81.032009"/>
      </g>
     </g>
     <g id="text_11">
      <!-- 0.20 -->
      <g transform="translate(20.878125 84.831228)scale(0.1 -0.1)">
       <use xlink:href="#DejaVuSans-48"/>
       <use x="63.623047" xlink:href="#DejaVuSans-46"/>
       <use x="95.410156" xlink:href="#DejaVuSans-50"/>
       <use x="159.033203" xlink:href="#DejaVuSans-48"/>
      </g>
     </g>
    </g>
    <g id="ytick_5">
     <g id="line2d_11">
      <g>
       <use style="stroke:#000000;stroke-width:0.8;" x="50.14375" xlink:href="#mca44825718" y="35.958522"/>
      </g>
     </g>
     <g id="text_12">
      <!-- 0.25 -->
      <g transform="translate(20.878125 39.757741)scale(0.1 -0.1)">
       <use xlink:href="#DejaVuSans-48"/>
       <use x="63.623047" xlink:href="#DejaVuSans-46"/>
       <use x="95.410156" xlink:href="#DejaVuSans-50"/>
       <use x="159.033203" xlink:href="#DejaVuSans-53"/>
      </g>
     </g>
    </g>
    <g id="text_13">
     <!-- Absorbance227 -->
     <defs>
      <path d="M 34.1875 63.1875 
L 20.796875 26.90625 
L 47.609375 26.90625 
z
M 28.609375 72.90625 
L 39.796875 72.90625 
L 67.578125 0 
L 57.328125 0 
L 50.6875 18.703125 
L 17.828125 18.703125 
L 11.1875 0 
L 0.78125 0 
z
" id="DejaVuSans-65"/>
      <path d="M 48.6875 27.296875 
Q 48.6875 37.203125 44.609375 42.84375 
Q 40.53125 48.484375 33.40625 48.484375 
Q 26.265625 48.484375 22.1875 42.84375 
Q 18.109375 37.203125 18.109375 27.296875 
Q 18.109375 17.390625 22.1875 11.75 
Q 26.265625 6.109375 33.40625 6.109375 
Q 40.53125 6.109375 44.609375 11.75 
Q 48.6875 17.390625 48.6875 27.296875 
z
M 18.109375 46.390625 
Q 20.953125 51.265625 25.265625 53.625 
Q 29.59375 56 35.59375 56 
Q 45.5625 56 51.78125 48.09375 
Q 58.015625 40.1875 58.015625 27.296875 
Q 58.015625 14.40625 51.78125 6.484375 
Q 45.5625 -1.421875 35.59375 -1.421875 
Q 29.59375 -1.421875 25.265625 0.953125 
Q 20.953125 3.328125 18.109375 8.203125 
L 18.109375 0 
L 9.078125 0 
L 9.078125 75.984375 
L 18.109375 75.984375 
z
" id="DejaVuSans-98"/>
      <path d="M 30.609375 48.390625 
Q 23.390625 48.390625 19.1875 42.75 
Q 14.984375 37.109375 14.984375 27.296875 
Q 14.984375 17.484375 19.15625 11.84375 
Q 23.34375 6.203125 30.609375 6.203125 
Q 37.796875 6.203125 41.984375 11.859375 
Q 46.1875 17.53125 46.1875 27.296875 
Q 46.1875 37.015625 41.984375 42.703125 
Q 37.796875 48.390625 30.609375 48.390625 
z
M 30.609375 56 
Q 42.328125 56 49.015625 48.375 
Q 55.71875 40.765625 55.71875 27.296875 
Q 55.71875 13.875 49.015625 6.21875 
Q 42.328125 -1.421875 30.609375 -1.421875 
Q 18.84375 -1.421875 12.171875 6.21875 
Q 5.515625 13.875 5.515625 27.296875 
Q 5.515625 40.765625 12.171875 48.375 
Q 18.84375 56 30.609375 56 
z
" id="DejaVuSans-111"/>
      <path d="M 41.109375 46.296875 
Q 39.59375 47.171875 37.8125 47.578125 
Q 36.03125 48 33.890625 48 
Q 26.265625 48 22.1875 43.046875 
Q 18.109375 38.09375 18.109375 28.8125 
L 18.109375 0 
L 9.078125 0 
L 9.078125 54.6875 
L 18.109375 54.6875 
L 18.109375 46.1875 
Q 20.953125 51.171875 25.484375 53.578125 
Q 30.03125 56 36.53125 56 
Q 37.453125 56 38.578125 55.875 
Q 39.703125 55.765625 41.0625 55.515625 
z
" id="DejaVuSans-114"/>
      <path d="M 34.28125 27.484375 
Q 23.390625 27.484375 19.1875 25 
Q 14.984375 22.515625 14.984375 16.5 
Q 14.984375 11.71875 18.140625 8.90625 
Q 21.296875 6.109375 26.703125 6.109375 
Q 34.1875 6.109375 38.703125 11.40625 
Q 43.21875 16.703125 43.21875 25.484375 
L 43.21875 27.484375 
z
M 52.203125 31.203125 
L 52.203125 0 
L 43.21875 0 
L 43.21875 8.296875 
Q 40.140625 3.328125 35.546875 0.953125 
Q 30.953125 -1.421875 24.3125 -1.421875 
Q 15.921875 -1.421875 10.953125 3.296875 
Q 6 8.015625 6 15.921875 
Q 6 25.140625 12.171875 29.828125 
Q 18.359375 34.515625 30.609375 34.515625 
L 43.21875 34.515625 
L 43.21875 35.40625 
Q 43.21875 41.609375 39.140625 45 
Q 35.0625 48.390625 27.6875 48.390625 
Q 23 48.390625 18.546875 47.265625 
Q 14.109375 46.140625 10.015625 43.890625 
L 10.015625 52.203125 
Q 14.9375 54.109375 19.578125 55.046875 
Q 24.21875 56 28.609375 56 
Q 40.484375 56 46.34375 49.84375 
Q 52.203125 43.703125 52.203125 31.203125 
z
" id="DejaVuSans-97"/>
      <path d="M 54.890625 33.015625 
L 54.890625 0 
L 45.90625 0 
L 45.90625 32.71875 
Q 45.90625 40.484375 42.875 44.328125 
Q 39.84375 48.1875 33.796875 48.1875 
Q 26.515625 48.1875 22.3125 43.546875 
Q 18.109375 38.921875 18.109375 30.90625 
L 18.109375 0 
L 9.078125 0 
L 9.078125 54.6875 
L 18.109375 54.6875 
L 18.109375 46.1875 
Q 21.34375 51.125 25.703125 53.5625 
Q 30.078125 56 35.796875 56 
Q 45.21875 56 50.046875 50.171875 
Q 54.890625 44.34375 54.890625 33.015625 
z
" id="DejaVuSans-110"/>
      <path d="M 48.78125 52.59375 
L 48.78125 44.1875 
Q 44.96875 46.296875 41.140625 47.34375 
Q 37.3125 48.390625 33.40625 48.390625 
Q 24.65625 48.390625 19.8125 42.84375 
Q 14.984375 37.3125 14.984375 27.296875 
Q 14.984375 17.28125 19.8125 11.734375 
Q 24.65625 6.203125 33.40625 6.203125 
Q 37.3125 6.203125 41.140625 7.25 
Q 44.96875 8.296875 48.78125 10.40625 
L 48.78125 2.09375 
Q 45.015625 0.34375 40.984375 -0.53125 
Q 36.96875 -1.421875 32.421875 -1.421875 
Q 20.0625 -1.421875 12.78125 6.34375 
Q 5.515625 14.109375 5.515625 27.296875 
Q 5.515625 40.671875 12.859375 48.328125 
Q 20.21875 56 33.015625 56 
Q 37.15625 56 41.109375 55.140625 
Q 45.0625 54.296875 48.78125 52.59375 
z
" id="DejaVuSans-99"/>
      <path d="M 8.203125 72.90625 
L 55.078125 72.90625 
L 55.078125 68.703125 
L 28.609375 0 
L 18.3125 0 
L 43.21875 64.59375 
L 8.203125 64.59375 
z
" id="DejaVuSans-55"/>
     </defs>
     <g transform="translate(14.798438 170.12875)rotate(-90)scale(0.1 -0.1)">
      <use xlink:href="#DejaVuSans-65"/>
      <use x="68.408203" xlink:href="#DejaVuSans-98"/>
      <use x="131.884766" xlink:href="#DejaVuSans-115"/>
      <use x="183.984375" xlink:href="#DejaVuSans-111"/>
      <use x="245.166016" xlink:href="#DejaVuSans-114"/>
      <use x="286.279297" xlink:href="#DejaVuSans-98"/>
      <use x="349.755859" xlink:href="#DejaVuSans-97"/>
      <use x="411.035156" xlink:href="#DejaVuSans-110"/>
      <use x="474.414062" xlink:href="#DejaVuSans-99"/>
      <use x="529.394531" xlink:href="#DejaVuSans-101"/>
      <use x="590.917969" xlink:href="#DejaVuSans-50"/>
      <use x="654.541016" xlink:href="#DejaVuSans-50"/>
      <use x="718.164062" xlink:href="#DejaVuSans-55"/>
     </g>
    </g>
   </g>
   <g id="line2d_12">
    <defs>
     <path d="M 0 3 
C 0.795609 3 1.55874 2.683901 2.12132 2.12132 
C 2.683901 1.55874 3 0.795609 3 0 
C 3 -0.795609 2.683901 -1.55874 2.12132 -2.12132 
C 1.55874 -2.683901 0.795609 -3 0 -3 
C -0.795609 -3 -1.55874 -2.683901 -2.12132 -2.12132 
C -2.683901 -1.55874 -3 -0.795609 -3 0 
C -3 0.795609 -2.683901 1.55874 -2.12132 2.12132 
C -1.55874 2.683901 -0.795609 3 0 3 
z
" id="m1dc6e1146e" style="stroke:#000000;"/>
    </defs>
    <g clip-path="url(#p83733d2873)">
     <use style="stroke:#000000;" x="65.361932" xlink:href="#m1dc6e1146e" y="164.187183"/>
     <use style="stroke:#000000;" x="65.361943" xlink:href="#m1dc6e1146e" y="164.187183"/>
     <use style="stroke:#000000;" x="65.361977" xlink:href="#m1dc6e1146e" y="164.187183"/>
     <use style="stroke:#000000;" x="65.362012" xlink:href="#m1dc6e1146e" y="164.187183"/>
     <use style="stroke:#000000;" x="65.362047" xlink:href="#m1dc6e1146e" y="164.187183"/>
     <use style="stroke:#000000;" x="65.362081" xlink:href="#m1dc6e1146e" y="164.187183"/>
     <use style="stroke:#000000;" x="65.362154" xlink:href="#m1dc6e1146e" y="164.187183"/>
     <use style="stroke:#000000;" x="65.362287" xlink:href="#m1dc6e1146e" y="164.187183"/>
     <use style="stroke:#000000;" x="65.362523" xlink:href="#m1dc6e1146e" y="164.187183"/>
     <use style="stroke:#000000;" x="65.362955" xlink:href="#m1dc6e1146e" y="164.187183"/>
     <use style="stroke:#000000;" x="65.364086" xlink:href="#m1dc6e1146e" y="164.187183"/>
     <use style="stroke:#000000;" x="65.365213" xlink:href="#m1dc6e1146e" y="164.188085"/>
     <use style="stroke:#000000;" x="65.366347" xlink:href="#m1dc6e1146e" y="164.188085"/>
     <use style="stroke:#000000;" x="65.367481" xlink:href="#m1dc6e1146e" y="164.188085"/>
     <use style="stroke:#000000;" x="65.368614" xlink:href="#m1dc6e1146e" y="164.188986"/>
     <use style="stroke:#000000;" x="65.369838" xlink:href="#m1dc6e1146e" y="164.188986"/>
     <use style="stroke:#000000;" x="65.371061" xlink:href="#m1dc6e1146e" y="164.188986"/>
     <use style="stroke:#000000;" x="65.372284" xlink:href="#m1dc6e1146e" y="164.188986"/>
     <use style="stroke:#000000;" x="65.374432" xlink:href="#m1dc6e1146e" y="164.189888"/>
     <use style="stroke:#000000;" x="65.37658" xlink:href="#m1dc6e1146e" y="164.189888"/>
     <use style="stroke:#000000;" x="65.378758" xlink:href="#m1dc6e1146e" y="164.190789"/>
     <use style="stroke:#000000;" x="65.380905" xlink:href="#m1dc6e1146e" y="164.190789"/>
     <use style="stroke:#000000;" x="65.384724" xlink:href="#m1dc6e1146e" y="164.191691"/>
     <use style="stroke:#000000;" x="65.391108" xlink:href="#m1dc6e1146e" y="164.192592"/>
     <use style="stroke:#000000;" x="65.397433" xlink:href="#m1dc6e1146e" y="164.193494"/>
     <use style="stroke:#000000;" x="65.403996" xlink:href="#m1dc6e1146e" y="164.193494"/>
     <use style="stroke:#000000;" x="65.410261" xlink:href="#m1dc6e1146e" y="164.194395"/>
     <use style="stroke:#000000;" x="65.420404" xlink:href="#m1dc6e1146e" y="164.195297"/>
     <use style="stroke:#000000;" x="65.430547" xlink:href="#m1dc6e1146e" y="164.195297"/>
     <use style="stroke:#000000;" x="65.44069" xlink:href="#m1dc6e1146e" y="164.195297"/>
     <use style="stroke:#000000;" x="65.450834" xlink:href="#m1dc6e1146e" y="164.195297"/>
     <use style="stroke:#000000;" x="65.460977" xlink:href="#m1dc6e1146e" y="164.194395"/>
     <use style="stroke:#000000;" x="65.47112" xlink:href="#m1dc6e1146e" y="164.193494"/>
     <use style="stroke:#000000;" x="65.480965" xlink:href="#m1dc6e1146e" y="164.192592"/>
     <use style="stroke:#000000;" x="65.496776" xlink:href="#m1dc6e1146e" y="164.189888"/>
     <use style="stroke:#000000;" x="65.521537" xlink:href="#m1dc6e1146e" y="164.185381"/>
     <use style="stroke:#000000;" x="65.546" xlink:href="#m1dc6e1146e" y="164.178169"/>
     <use style="stroke:#000000;" x="65.570761" xlink:href="#m1dc6e1146e" y="164.170056"/>
     <use style="stroke:#000000;" x="65.595224" xlink:href="#m1dc6e1146e" y="164.160139"/>
     <use style="stroke:#000000;" x="65.619985" xlink:href="#m1dc6e1146e" y="164.14842"/>
     <use style="stroke:#000000;" x="65.644448" xlink:href="#m1dc6e1146e" y="164.1358"/>
     <use style="stroke:#000000;" x="65.66921" xlink:href="#m1dc6e1146e" y="164.121376"/>
     <use style="stroke:#000000;" x="65.693076" xlink:href="#m1dc6e1146e" y="164.10515"/>
     <use style="stroke:#000000;" x="65.716942" xlink:href="#m1dc6e1146e" y="164.088022"/>
     <use style="stroke:#000000;" x="65.746775" xlink:href="#m1dc6e1146e" y="164.065485"/>
     <use style="stroke:#000000;" x="65.776608" xlink:href="#m1dc6e1146e" y="164.040244"/>
     <use style="stroke:#000000;" x="65.80644" xlink:href="#m1dc6e1146e" y="164.014101"/>
     <use style="stroke:#000000;" x="65.836273" xlink:href="#m1dc6e1146e" y="163.986156"/>
     <use style="stroke:#000000;" x="65.866106" xlink:href="#m1dc6e1146e" y="163.955506"/>
     <use style="stroke:#000000;" x="65.895939" xlink:href="#m1dc6e1146e" y="163.923954"/>
     <use style="stroke:#000000;" x="65.940688" xlink:href="#m1dc6e1146e" y="163.870768"/>
     <use style="stroke:#000000;" x="65.985437" xlink:href="#m1dc6e1146e" y="163.814876"/>
     <use style="stroke:#000000;" x="66.030186" xlink:href="#m1dc6e1146e" y="163.753577"/>
     <use style="stroke:#000000;" x="66.077919" xlink:href="#m1dc6e1146e" y="163.689572"/>
     <use style="stroke:#000000;" x="66.122668" xlink:href="#m1dc6e1146e" y="163.621962"/>
     <use style="stroke:#000000;" x="66.167417" xlink:href="#m1dc6e1146e" y="163.551647"/>
     <use style="stroke:#000000;" x="66.212166" xlink:href="#m1dc6e1146e" y="163.476825"/>
     <use style="stroke:#000000;" x="66.259899" xlink:href="#m1dc6e1146e" y="163.399299"/>
     <use style="stroke:#000000;" x="66.304648" xlink:href="#m1dc6e1146e" y="163.319068"/>
     <use style="stroke:#000000;" x="66.349397" xlink:href="#m1dc6e1146e" y="163.236133"/>
     <use style="stroke:#000000;" x="66.394146" xlink:href="#m1dc6e1146e" y="163.150493"/>
     <use style="stroke:#000000;" x="66.441879" xlink:href="#m1dc6e1146e" y="163.061248"/>
     <use style="stroke:#000000;" x="66.486628" xlink:href="#m1dc6e1146e" y="162.970199"/>
     <use style="stroke:#000000;" x="66.531377" xlink:href="#m1dc6e1146e" y="162.876446"/>
     <use style="stroke:#000000;" x="66.576126" xlink:href="#m1dc6e1146e" y="162.780891"/>
     <use style="stroke:#000000;" x="66.623859" xlink:href="#m1dc6e1146e" y="162.68263"/>
     <use style="stroke:#000000;" x="66.668608" xlink:href="#m1dc6e1146e" y="162.582567"/>
     <use style="stroke:#000000;" x="66.713357" xlink:href="#m1dc6e1146e" y="162.480701"/>
     <use style="stroke:#000000;" x="66.758106" xlink:href="#m1dc6e1146e" y="162.376131"/>
     <use style="stroke:#000000;" x="66.805839" xlink:href="#m1dc6e1146e" y="162.269757"/>
     <use style="stroke:#000000;" x="66.850588" xlink:href="#m1dc6e1146e" y="162.162482"/>
     <use style="stroke:#000000;" x="66.895337" xlink:href="#m1dc6e1146e" y="162.052503"/>
     <use style="stroke:#000000;" x="66.940086" xlink:href="#m1dc6e1146e" y="161.941622"/>
     <use style="stroke:#000000;" x="66.987819" xlink:href="#m1dc6e1146e" y="161.828037"/>
     <use style="stroke:#000000;" x="67.032568" xlink:href="#m1dc6e1146e" y="161.714452"/>
     <use style="stroke:#000000;" x="67.077317" xlink:href="#m1dc6e1146e" y="161.598162"/>
     <use style="stroke:#000000;" x="67.122066" xlink:href="#m1dc6e1146e" y="161.480971"/>
     <use style="stroke:#000000;" x="67.169799" xlink:href="#m1dc6e1146e" y="161.362879"/>
     <use style="stroke:#000000;" x="67.214548" xlink:href="#m1dc6e1146e" y="161.242983"/>
     <use style="stroke:#000000;" x="67.259297" xlink:href="#m1dc6e1146e" y="161.122186"/>
     <use style="stroke:#000000;" x="67.304046" xlink:href="#m1dc6e1146e" y="160.999586"/>
     <use style="stroke:#000000;" x="67.351779" xlink:href="#m1dc6e1146e" y="160.876987"/>
     <use style="stroke:#000000;" x="67.396528" xlink:href="#m1dc6e1146e" y="160.752584"/>
     <use style="stroke:#000000;" x="67.441277" xlink:href="#m1dc6e1146e" y="160.627279"/>
     <use style="stroke:#000000;" x="67.486026" xlink:href="#m1dc6e1146e" y="160.501975"/>
     <use style="stroke:#000000;" x="67.533759" xlink:href="#m1dc6e1146e" y="160.374868"/>
     <use style="stroke:#000000;" x="67.578508" xlink:href="#m1dc6e1146e" y="160.246859"/>
     <use style="stroke:#000000;" x="67.647123" xlink:href="#m1dc6e1146e" y="160.053043"/>
     <use style="stroke:#000000;" x="67.715739" xlink:href="#m1dc6e1146e" y="159.857424"/>
     <use style="stroke:#000000;" x="67.784354" xlink:href="#m1dc6e1146e" y="159.660904"/>
     <use style="stroke:#000000;" x="67.85297" xlink:href="#m1dc6e1146e" y="159.462581"/>
     <use style="stroke:#000000;" x="67.921585" xlink:href="#m1dc6e1146e" y="159.262454"/>
     <use style="stroke:#000000;" x="67.9902" xlink:href="#m1dc6e1146e" y="159.061427"/>
     <use style="stroke:#000000;" x="68.058816" xlink:href="#m1dc6e1146e" y="158.859497"/>
     <use style="stroke:#000000;" x="68.127431" xlink:href="#m1dc6e1146e" y="158.656667"/>
     <use style="stroke:#000000;" x="68.193063" xlink:href="#m1dc6e1146e" y="158.452934"/>
     <use style="stroke:#000000;" x="68.261679" xlink:href="#m1dc6e1146e" y="158.248301"/>
     <use style="stroke:#000000;" x="68.330294" xlink:href="#m1dc6e1146e" y="158.042766"/>
     <use style="stroke:#000000;" x="68.404876" xlink:href="#m1dc6e1146e" y="157.837231"/>
     <use style="stroke:#000000;" x="68.464542" xlink:href="#m1dc6e1146e" y="157.630794"/>
     <use style="stroke:#000000;" x="68.524207" xlink:href="#m1dc6e1146e" y="157.423456"/>
     <use style="stroke:#000000;" x="68.613706" xlink:href="#m1dc6e1146e" y="157.216118"/>
     <use style="stroke:#000000;" x="68.673371" xlink:href="#m1dc6e1146e" y="157.00878"/>
     <use style="stroke:#000000;" x="68.733037" xlink:href="#m1dc6e1146e" y="156.80054"/>
     <use style="stroke:#000000;" x="68.822535" xlink:href="#m1dc6e1146e" y="156.592301"/>
     <use style="stroke:#000000;" x="68.882201" xlink:href="#m1dc6e1146e" y="156.384061"/>
     <use style="stroke:#000000;" x="68.941866" xlink:href="#m1dc6e1146e" y="156.17492"/>
     <use style="stroke:#000000;" x="69.001532" xlink:href="#m1dc6e1146e" y="155.966681"/>
     <use style="stroke:#000000;" x="69.09103" xlink:href="#m1dc6e1146e" y="155.75754"/>
     <use style="stroke:#000000;" x="69.150696" xlink:href="#m1dc6e1146e" y="155.5493"/>
     <use style="stroke:#000000;" x="69.210361" xlink:href="#m1dc6e1146e" y="155.341061"/>
     <use style="stroke:#000000;" x="69.29986" xlink:href="#m1dc6e1146e" y="155.13192"/>
     <use style="stroke:#000000;" x="69.359525" xlink:href="#m1dc6e1146e" y="154.92368"/>
     <use style="stroke:#000000;" x="69.419191" xlink:href="#m1dc6e1146e" y="154.715441"/>
     <use style="stroke:#000000;" x="69.508689" xlink:href="#m1dc6e1146e" y="154.507201"/>
     <use style="stroke:#000000;" x="69.568355" xlink:href="#m1dc6e1146e" y="154.298962"/>
     <use style="stroke:#000000;" x="69.62802" xlink:href="#m1dc6e1146e" y="154.091624"/>
     <use style="stroke:#000000;" x="69.687686" xlink:href="#m1dc6e1146e" y="153.884286"/>
     <use style="stroke:#000000;" x="69.777184" xlink:href="#m1dc6e1146e" y="153.676948"/>
     <use style="stroke:#000000;" x="69.83685" xlink:href="#m1dc6e1146e" y="153.470511"/>
     <use style="stroke:#000000;" x="69.896515" xlink:href="#m1dc6e1146e" y="153.264075"/>
     <use style="stroke:#000000;" x="69.986014" xlink:href="#m1dc6e1146e" y="153.057638"/>
     <use style="stroke:#000000;" x="70.045679" xlink:href="#m1dc6e1146e" y="152.852103"/>
     <use style="stroke:#000000;" x="70.105345" xlink:href="#m1dc6e1146e" y="152.647469"/>
     <use style="stroke:#000000;" x="70.194843" xlink:href="#m1dc6e1146e" y="152.441934"/>
     <use style="stroke:#000000;" x="70.254509" xlink:href="#m1dc6e1146e" y="152.237301"/>
     <use style="stroke:#000000;" x="70.344007" xlink:href="#m1dc6e1146e" y="151.929899"/>
     <use style="stroke:#000000;" x="70.463338" xlink:href="#m1dc6e1146e" y="151.6234"/>
     <use style="stroke:#000000;" x="70.552837" xlink:href="#m1dc6e1146e" y="151.317801"/>
     <use style="stroke:#000000;" x="70.672168" xlink:href="#m1dc6e1146e" y="151.013105"/>
     <use style="stroke:#000000;" x="70.761666" xlink:href="#m1dc6e1146e" y="150.710211"/>
     <use style="stroke:#000000;" x="70.880997" xlink:href="#m1dc6e1146e" y="150.408219"/>
     <use style="stroke:#000000;" x="70.970496" xlink:href="#m1dc6e1146e" y="150.108029"/>
     <use style="stroke:#000000;" x="71.089827" xlink:href="#m1dc6e1146e" y="149.808741"/>
     <use style="stroke:#000000;" x="71.179325" xlink:href="#m1dc6e1146e" y="149.510355"/>
     <use style="stroke:#000000;" x="71.268824" xlink:href="#m1dc6e1146e" y="149.213771"/>
     <use style="stroke:#000000;" x="71.388155" xlink:href="#m1dc6e1146e" y="148.918991"/>
     <use style="stroke:#000000;" x="71.477653" xlink:href="#m1dc6e1146e" y="148.625111"/>
     <use style="stroke:#000000;" x="71.596984" xlink:href="#m1dc6e1146e" y="148.332134"/>
     <use style="stroke:#000000;" x="71.686483" xlink:href="#m1dc6e1146e" y="148.040959"/>
     <use style="stroke:#000000;" x="71.805814" xlink:href="#m1dc6e1146e" y="147.751587"/>
     <use style="stroke:#000000;" x="71.895312" xlink:href="#m1dc6e1146e" y="147.463117"/>
     <use style="stroke:#000000;" x="72.014643" xlink:href="#m1dc6e1146e" y="147.17645"/>
     <use style="stroke:#000000;" x="72.104142" xlink:href="#m1dc6e1146e" y="146.891585"/>
     <use style="stroke:#000000;" x="72.223473" xlink:href="#m1dc6e1146e" y="146.607622"/>
     <use style="stroke:#000000;" x="72.312971" xlink:href="#m1dc6e1146e" y="146.325462"/>
     <use style="stroke:#000000;" x="72.432302" xlink:href="#m1dc6e1146e" y="146.045105"/>
     <use style="stroke:#000000;" x="72.521801" xlink:href="#m1dc6e1146e" y="145.765649"/>
     <use style="stroke:#000000;" x="72.611299" xlink:href="#m1dc6e1146e" y="145.487997"/>
     <use style="stroke:#000000;" x="72.73063" xlink:href="#m1dc6e1146e" y="145.212147"/>
     <use style="stroke:#000000;" x="72.820129" xlink:href="#m1dc6e1146e" y="144.937199"/>
     <use style="stroke:#000000;" x="72.93946" xlink:href="#m1dc6e1146e" y="144.664053"/>
     <use style="stroke:#000000;" x="73.028958" xlink:href="#m1dc6e1146e" y="144.392711"/>
     <use style="stroke:#000000;" x="73.148289" xlink:href="#m1dc6e1146e" y="144.12227"/>
     <use style="stroke:#000000;" x="73.237788" xlink:href="#m1dc6e1146e" y="143.853632"/>
     <use style="stroke:#000000;" x="73.357119" xlink:href="#m1dc6e1146e" y="143.586797"/>
     <use style="stroke:#000000;" x="73.506283" xlink:href="#m1dc6e1146e" y="143.189249"/>
     <use style="stroke:#000000;" x="73.655447" xlink:href="#m1dc6e1146e" y="142.794405"/>
     <use style="stroke:#000000;" x="73.804611" xlink:href="#m1dc6e1146e" y="142.404069"/>
     <use style="stroke:#000000;" x="73.983607" xlink:href="#m1dc6e1146e" y="142.016437"/>
     <use style="stroke:#000000;" x="74.132771" xlink:href="#m1dc6e1146e" y="141.632411"/>
     <use style="stroke:#000000;" x="74.281935" xlink:href="#m1dc6e1146e" y="141.25199"/>
     <use style="stroke:#000000;" x="74.431099" xlink:href="#m1dc6e1146e" y="140.874275"/>
     <use style="stroke:#000000;" x="74.580263" xlink:href="#m1dc6e1146e" y="140.501066"/>
     <use style="stroke:#000000;" x="74.75926" xlink:href="#m1dc6e1146e" y="140.130562"/>
     <use style="stroke:#000000;" x="74.908424" xlink:href="#m1dc6e1146e" y="139.764565"/>
     <use style="stroke:#000000;" x="75.057588" xlink:href="#m1dc6e1146e" y="139.401273"/>
     <use style="stroke:#000000;" x="75.206752" xlink:href="#m1dc6e1146e" y="139.040685"/>
     <use style="stroke:#000000;" x="75.355916" xlink:href="#m1dc6e1146e" y="138.684605"/>
     <use style="stroke:#000000;" x="75.534912" xlink:href="#m1dc6e1146e" y="138.331228"/>
     <use style="stroke:#000000;" x="75.684076" xlink:href="#m1dc6e1146e" y="137.98236"/>
     <use style="stroke:#000000;" x="75.83324" xlink:href="#m1dc6e1146e" y="137.636195"/>
     <use style="stroke:#000000;" x="75.982404" xlink:href="#m1dc6e1146e" y="137.292735"/>
     <use style="stroke:#000000;" x="76.131568" xlink:href="#m1dc6e1146e" y="136.953783"/>
     <use style="stroke:#000000;" x="76.310565" xlink:href="#m1dc6e1146e" y="136.617534"/>
     <use style="stroke:#000000;" x="76.459729" xlink:href="#m1dc6e1146e" y="136.283991"/>
     <use style="stroke:#000000;" x="76.608893" xlink:href="#m1dc6e1146e" y="135.954954"/>
     <use style="stroke:#000000;" x="76.847555" xlink:href="#m1dc6e1146e" y="135.458244"/>
     <use style="stroke:#000000;" x="77.086217" xlink:href="#m1dc6e1146e" y="134.968746"/>
     <use style="stroke:#000000;" x="77.324879" xlink:href="#m1dc6e1146e" y="134.487361"/>
     <use style="stroke:#000000;" x="77.563542" xlink:href="#m1dc6e1146e" y="134.013188"/>
     <use style="stroke:#000000;" x="77.802204" xlink:href="#m1dc6e1146e" y="133.546227"/>
     <use style="stroke:#000000;" x="78.040866" xlink:href="#m1dc6e1146e" y="133.087379"/>
     <use style="stroke:#000000;" x="78.279529" xlink:href="#m1dc6e1146e" y="132.635743"/>
     <use style="stroke:#000000;" x="78.518191" xlink:href="#m1dc6e1146e" y="132.191318"/>
     <use style="stroke:#000000;" x="78.72702" xlink:href="#m1dc6e1146e" y="131.754105"/>
     <use style="stroke:#000000;" x="78.965683" xlink:href="#m1dc6e1146e" y="131.324104"/>
     <use style="stroke:#000000;" x="79.204345" xlink:href="#m1dc6e1146e" y="130.902216"/>
     <use style="stroke:#000000;" x="79.443007" xlink:href="#m1dc6e1146e" y="130.486639"/>
     <use style="stroke:#000000;" x="79.68167" xlink:href="#m1dc6e1146e" y="130.078273"/>
     <use style="stroke:#000000;" x="79.920332" xlink:href="#m1dc6e1146e" y="129.676217"/>
     <use style="stroke:#000000;" x="80.158994" xlink:href="#m1dc6e1146e" y="129.282275"/>
     <use style="stroke:#000000;" x="80.54682" xlink:href="#m1dc6e1146e" y="128.681896"/>
     <use style="stroke:#000000;" x="80.904814" xlink:href="#m1dc6e1146e" y="128.097744"/>
     <use style="stroke:#000000;" x="81.262807" xlink:href="#m1dc6e1146e" y="127.529818"/>
     <use style="stroke:#000000;" x="81.650634" xlink:href="#m1dc6e1146e" y="126.978119"/>
     <use style="stroke:#000000;" x="82.008627" xlink:href="#m1dc6e1146e" y="126.442646"/>
     <use style="stroke:#000000;" x="82.36662" xlink:href="#m1dc6e1146e" y="125.921596"/>
     <use style="stroke:#000000;" x="82.754447" xlink:href="#m1dc6e1146e" y="125.416773"/>
     <use style="stroke:#000000;" x="83.11244" xlink:href="#m1dc6e1146e" y="124.926373"/>
     <use style="stroke:#000000;" x="83.470434" xlink:href="#m1dc6e1146e" y="124.451299"/>
     <use style="stroke:#000000;" x="83.85826" xlink:href="#m1dc6e1146e" y="123.989746"/>
     <use style="stroke:#000000;" x="84.216253" xlink:href="#m1dc6e1146e" y="123.543519"/>
     <use style="stroke:#000000;" x="84.60408" xlink:href="#m1dc6e1146e" y="123.110813"/>
     <use style="stroke:#000000;" x="85.14107" xlink:href="#m1dc6e1146e" y="122.481587"/>
     <use style="stroke:#000000;" x="85.707893" xlink:href="#m1dc6e1146e" y="121.88211"/>
     <use style="stroke:#000000;" x="86.274716" xlink:href="#m1dc6e1146e" y="121.313283"/>
     <use style="stroke:#000000;" x="86.841539" xlink:href="#m1dc6e1146e" y="120.774204"/>
     <use style="stroke:#000000;" x="87.378529" xlink:href="#m1dc6e1146e" y="120.26307"/>
     <use style="stroke:#000000;" x="87.945352" xlink:href="#m1dc6e1146e" y="119.779883"/>
     <use style="stroke:#000000;" x="88.512175" xlink:href="#m1dc6e1146e" y="119.32464"/>
     <use style="stroke:#000000;" x="89.078998" xlink:href="#m1dc6e1146e" y="118.894639"/>
     <use style="stroke:#000000;" x="89.645821" xlink:href="#m1dc6e1146e" y="118.489879"/>
     <use style="stroke:#000000;" x="90.182811" xlink:href="#m1dc6e1146e" y="118.110361"/>
     <use style="stroke:#000000;" x="90.749634" xlink:href="#m1dc6e1146e" y="117.75428"/>
     <use style="stroke:#000000;" x="91.316457" xlink:href="#m1dc6e1146e" y="117.420736"/>
     <use style="stroke:#000000;" x="91.88328" xlink:href="#m1dc6e1146e" y="117.110631"/>
     <use style="stroke:#000000;" x="92.450103" xlink:href="#m1dc6e1146e" y="116.82216"/>
     <use style="stroke:#000000;" x="92.987093" xlink:href="#m1dc6e1146e" y="116.554424"/>
     <use style="stroke:#000000;" x="93.553916" xlink:href="#m1dc6e1146e" y="116.307421"/>
     <use style="stroke:#000000;" x="94.120739" xlink:href="#m1dc6e1146e" y="116.079349"/>
     <use style="stroke:#000000;" x="94.687562" xlink:href="#m1dc6e1146e" y="115.87111"/>
     <use style="stroke:#000000;" x="95.194719" xlink:href="#m1dc6e1146e" y="115.6809"/>
     <use style="stroke:#000000;" x="95.791375" xlink:href="#m1dc6e1146e" y="115.507818"/>
     <use style="stroke:#000000;" x="96.38803" xlink:href="#m1dc6e1146e" y="115.352765"/>
     <use style="stroke:#000000;" x="96.984686" xlink:href="#m1dc6e1146e" y="115.213938"/>
     <use style="stroke:#000000;" x="97.581342" xlink:href="#m1dc6e1146e" y="115.091339"/>
     <use style="stroke:#000000;" x="98.177998" xlink:href="#m1dc6e1146e" y="114.984064"/>
     <use style="stroke:#000000;" x="98.476326" xlink:href="#m1dc6e1146e" y="114.892114"/>
     <use style="stroke:#000000;" x="99.072981" xlink:href="#m1dc6e1146e" y="114.813686"/>
     <use style="stroke:#000000;" x="99.669637" xlink:href="#m1dc6e1146e" y="114.749682"/>
     <use style="stroke:#000000;" x="100.266293" xlink:href="#m1dc6e1146e" y="114.699199"/>
     <use style="stroke:#000000;" x="100.862949" xlink:href="#m1dc6e1146e" y="114.661338"/>
     <use style="stroke:#000000;" x="101.459604" xlink:href="#m1dc6e1146e" y="114.636096"/>
     <use style="stroke:#000000;" x="102.354588" xlink:href="#m1dc6e1146e" y="114.620771"/>
     <use style="stroke:#000000;" x="102.951244" xlink:href="#m1dc6e1146e" y="114.630688"/>
     <use style="stroke:#000000;" x="103.846227" xlink:href="#m1dc6e1146e" y="114.665845"/>
     <use style="stroke:#000000;" x="104.741211" xlink:href="#m1dc6e1146e" y="114.723539"/>
     <use style="stroke:#000000;" x="105.636194" xlink:href="#m1dc6e1146e" y="114.802868"/>
     <use style="stroke:#000000;" x="106.531178" xlink:href="#m1dc6e1146e" y="114.902931"/>
     <use style="stroke:#000000;" x="107.426162" xlink:href="#m1dc6e1146e" y="115.021925"/>
     <use style="stroke:#000000;" x="108.321145" xlink:href="#m1dc6e1146e" y="115.15985"/>
     <use style="stroke:#000000;" x="109.514457" xlink:href="#m1dc6e1146e" y="115.40505"/>
     <use style="stroke:#000000;" x="110.707768" xlink:href="#m1dc6e1146e" y="115.686309"/>
     <use style="stroke:#000000;" x="112.199408" xlink:href="#m1dc6e1146e" y="116.001823"/>
     <use style="stroke:#000000;" x="113.392719" xlink:href="#m1dc6e1146e" y="116.347086"/>
     <use style="stroke:#000000;" x="114.586031" xlink:href="#m1dc6e1146e" y="116.721196"/>
     <use style="stroke:#000000;" x="116.07767" xlink:href="#m1dc6e1146e" y="117.119645"/>
     <use style="stroke:#000000;" x="117.270981" xlink:href="#m1dc6e1146e" y="117.540632"/>
     <use style="stroke:#000000;" x="118.464293" xlink:href="#m1dc6e1146e" y="117.983254"/>
     <use style="stroke:#000000;" x="119.955932" xlink:href="#m1dc6e1146e" y="118.443905"/>
     <use style="stroke:#000000;" x="121.149244" xlink:href="#m1dc6e1146e" y="118.920782"/>
     <use style="stroke:#000000;" x="122.640883" xlink:href="#m1dc6e1146e" y="119.413886"/>
     <use style="stroke:#000000;" x="123.834195" xlink:href="#m1dc6e1146e" y="119.919611"/>
     <use style="stroke:#000000;" x="125.027506" xlink:href="#m1dc6e1146e" y="120.437054"/>
     <use style="stroke:#000000;" x="126.519145" xlink:href="#m1dc6e1146e" y="120.966217"/>
     <use style="stroke:#000000;" x="127.712457" xlink:href="#m1dc6e1146e" y="121.504394"/>
     <use style="stroke:#000000;" x="128.905768" xlink:href="#m1dc6e1146e" y="122.051586"/>
     <use style="stroke:#000000;" x="130.397408" xlink:href="#m1dc6e1146e" y="122.606892"/>
     <use style="stroke:#000000;" x="131.590719" xlink:href="#m1dc6e1146e" y="123.167606"/>
     <use style="stroke:#000000;" x="132.784031" xlink:href="#m1dc6e1146e" y="123.73463"/>
     <use style="stroke:#000000;" x="134.27567" xlink:href="#m1dc6e1146e" y="124.307064"/>
     <use style="stroke:#000000;" x="135.468982" xlink:href="#m1dc6e1146e" y="124.883103"/>
     <use style="stroke:#000000;" x="136.960621" xlink:href="#m1dc6e1146e" y="125.463649"/>
     <use style="stroke:#000000;" x="138.153932" xlink:href="#m1dc6e1146e" y="126.0469"/>
     <use style="stroke:#000000;" x="139.347244" xlink:href="#m1dc6e1146e" y="126.632856"/>
     <use style="stroke:#000000;" x="140.838883" xlink:href="#m1dc6e1146e" y="127.221515"/>
     <use style="stroke:#000000;" x="142.032195" xlink:href="#m1dc6e1146e" y="127.811077"/>
     <use style="stroke:#000000;" x="143.225506" xlink:href="#m1dc6e1146e" y="128.402441"/>
     <use style="stroke:#000000;" x="144.717146" xlink:href="#m1dc6e1146e" y="128.994706"/>
     <use style="stroke:#000000;" x="145.910457" xlink:href="#m1dc6e1146e" y="129.587873"/>
     <use style="stroke:#000000;" x="147.103769" xlink:href="#m1dc6e1146e" y="130.181041"/>
     <use style="stroke:#000000;" x="148.595408" xlink:href="#m1dc6e1146e" y="130.774208"/>
     <use style="stroke:#000000;" x="149.788719" xlink:href="#m1dc6e1146e" y="131.367375"/>
     <use style="stroke:#000000;" x="151.280359" xlink:href="#m1dc6e1146e" y="131.960542"/>
     <use style="stroke:#000000;" x="152.47367" xlink:href="#m1dc6e1146e" y="132.552807"/>
     <use style="stroke:#000000;" x="153.666982" xlink:href="#m1dc6e1146e" y="133.14327"/>
     <use style="stroke:#000000;" x="155.158621" xlink:href="#m1dc6e1146e" y="133.733733"/>
     <use style="stroke:#000000;" x="156.351933" xlink:href="#m1dc6e1146e" y="134.322393"/>
     <use style="stroke:#000000;" x="157.545244" xlink:href="#m1dc6e1146e" y="134.910151"/>
     <use style="stroke:#000000;" x="159.036883" xlink:href="#m1dc6e1146e" y="135.497008"/>
     <use style="stroke:#000000;" x="160.230195" xlink:href="#m1dc6e1146e" y="136.082061"/>
     <use style="stroke:#000000;" x="161.423506" xlink:href="#m1dc6e1146e" y="136.664411"/>
     <use style="stroke:#000000;" x="162.915146" xlink:href="#m1dc6e1146e" y="137.245859"/>
     <use style="stroke:#000000;" x="164.108457" xlink:href="#m1dc6e1146e" y="137.825504"/>
     <use style="stroke:#000000;" x="165.600097" xlink:href="#m1dc6e1146e" y="138.403346"/>
     <use style="stroke:#000000;" x="166.793408" xlink:href="#m1dc6e1146e" y="138.978484"/>
     <use style="stroke:#000000;" x="167.98672" xlink:href="#m1dc6e1146e" y="139.55272"/>
     <use style="stroke:#000000;" x="169.478359" xlink:href="#m1dc6e1146e" y="140.124252"/>
     <use style="stroke:#000000;" x="170.67167" xlink:href="#m1dc6e1146e" y="140.693079"/>
     <use style="stroke:#000000;" x="171.864982" xlink:href="#m1dc6e1146e" y="141.260104"/>
     <use style="stroke:#000000;" x="173.356621" xlink:href="#m1dc6e1146e" y="141.825325"/>
     <use style="stroke:#000000;" x="174.549933" xlink:href="#m1dc6e1146e" y="142.387842"/>
     <use style="stroke:#000000;" x="176.638228" xlink:href="#m1dc6e1146e" y="143.235224"/>
     <use style="stroke:#000000;" x="178.428195" xlink:href="#m1dc6e1146e" y="144.077197"/>
     <use style="stroke:#000000;" x="180.51649" xlink:href="#m1dc6e1146e" y="144.91376"/>
     <use style="stroke:#000000;" x="182.604785" xlink:href="#m1dc6e1146e" y="145.744916"/>
     <use style="stroke:#000000;" x="184.394752" xlink:href="#m1dc6e1146e" y="146.570662"/>
     <use style="stroke:#000000;" x="186.483048" xlink:href="#m1dc6e1146e" y="147.390098"/>
     <use style="stroke:#000000;" x="188.273015" xlink:href="#m1dc6e1146e" y="148.205026"/>
     <use style="stroke:#000000;" x="190.36131" xlink:href="#m1dc6e1146e" y="149.012743"/>
     <use style="stroke:#000000;" x="192.449605" xlink:href="#m1dc6e1146e" y="149.815953"/>
     <use style="stroke:#000000;" x="194.239572" xlink:href="#m1dc6e1146e" y="150.612852"/>
     <use style="stroke:#000000;" x="196.327867" xlink:href="#m1dc6e1146e" y="151.404343"/>
     <use style="stroke:#000000;" x="198.117835" xlink:href="#m1dc6e1146e" y="152.189523"/>
     <use style="stroke:#000000;" x="200.20613" xlink:href="#m1dc6e1146e" y="152.969294"/>
     <use style="stroke:#000000;" x="202.294425" xlink:href="#m1dc6e1146e" y="153.743657"/>
     <use style="stroke:#000000;" x="204.084392" xlink:href="#m1dc6e1146e" y="154.51261"/>
     <use style="stroke:#000000;" x="206.172687" xlink:href="#m1dc6e1146e" y="155.275254"/>
     <use style="stroke:#000000;" x="207.962654" xlink:href="#m1dc6e1146e" y="156.032488"/>
     <use style="stroke:#000000;" x="210.050949" xlink:href="#m1dc6e1146e" y="156.784314"/>
     <use style="stroke:#000000;" x="212.139245" xlink:href="#m1dc6e1146e" y="157.529829"/>
     <use style="stroke:#000000;" x="213.929212" xlink:href="#m1dc6e1146e" y="158.270838"/>
     <use style="stroke:#000000;" x="216.017507" xlink:href="#m1dc6e1146e" y="159.005535"/>
     <use style="stroke:#000000;" x="219.000786" xlink:href="#m1dc6e1146e" y="160.120653"/>
     <use style="stroke:#000000;" x="221.984064" xlink:href="#m1dc6e1146e" y="161.22225"/>
     <use style="stroke:#000000;" x="224.967343" xlink:href="#m1dc6e1146e" y="162.312126"/>
     <use style="stroke:#000000;" x="227.950622" xlink:href="#m1dc6e1146e" y="163.388481"/>
     <use style="stroke:#000000;" x="231.075009" xlink:href="#m1dc6e1146e" y="164.453117"/>
     <use style="stroke:#000000;" x="234.093789" xlink:href="#m1dc6e1146e" y="165.506034"/>
     <use style="stroke:#000000;" x="237.112867" xlink:href="#m1dc6e1146e" y="166.54633"/>
     <use style="stroke:#000000;" x="240.131647" xlink:href="#m1dc6e1146e" y="167.574907"/>
     <use style="stroke:#000000;" x="243.150725" xlink:href="#m1dc6e1146e" y="168.591765"/>
     <use style="stroke:#000000;" x="246.169505" xlink:href="#m1dc6e1146e" y="169.596903"/>
     <use style="stroke:#000000;" x="249.188285" xlink:href="#m1dc6e1146e" y="170.590323"/>
     <use style="stroke:#000000;" x="252.207363" xlink:href="#m1dc6e1146e" y="171.572474"/>
     <use style="stroke:#000000;" x="255.226142" xlink:href="#m1dc6e1146e" y="172.543538"/>
     <use style="stroke:#000000;" x="258.24522" xlink:href="#m1dc6e1146e" y="173.503513"/>
     <use style="stroke:#000000;" x="261.264" xlink:href="#m1dc6e1146e" y="174.45249"/>
     <use style="stroke:#000000;" x="264.28278" xlink:href="#m1dc6e1146e" y="175.39074"/>
     <use style="stroke:#000000;" x="267.301858" xlink:href="#m1dc6e1146e" y="176.318172"/>
     <use style="stroke:#000000;" x="270.320638" xlink:href="#m1dc6e1146e" y="177.235147"/>
     <use style="stroke:#000000;" x="273.339716" xlink:href="#m1dc6e1146e" y="178.141574"/>
     <use style="stroke:#000000;" x="276.358495" xlink:href="#m1dc6e1146e" y="179.037816"/>
     <use style="stroke:#000000;" x="279.377275" xlink:href="#m1dc6e1146e" y="179.92378"/>
     <use style="stroke:#000000;" x="282.396353" xlink:href="#m1dc6e1146e" y="180.799738"/>
     <use style="stroke:#000000;" x="285.415133" xlink:href="#m1dc6e1146e" y="181.66569"/>
     <use style="stroke:#000000;" x="288.434211" xlink:href="#m1dc6e1146e" y="182.521906"/>
     <use style="stroke:#000000;" x="291.452991" xlink:href="#m1dc6e1146e" y="183.368386"/>
     <use style="stroke:#000000;" x="294.47177" xlink:href="#m1dc6e1146e" y="184.205311"/>
     <use style="stroke:#000000;" x="297.490848" xlink:href="#m1dc6e1146e" y="185.03277"/>
     <use style="stroke:#000000;" x="300.509628" xlink:href="#m1dc6e1146e" y="185.850853"/>
     <use style="stroke:#000000;" x="303.528706" xlink:href="#m1dc6e1146e" y="186.659742"/>
     <use style="stroke:#000000;" x="305.749459" xlink:href="#m1dc6e1146e" y="187.248943"/>
     <use style="stroke:#000000;" x="307.97051" xlink:href="#m1dc6e1146e" y="187.833276"/>
     <use style="stroke:#000000;" x="310.191561" xlink:href="#m1dc6e1146e" y="188.41283"/>
     <use style="stroke:#000000;" x="312.412612" xlink:href="#m1dc6e1146e" y="188.987517"/>
     <use style="stroke:#000000;" x="314.633663" xlink:href="#m1dc6e1146e" y="189.557427"/>
     <use style="stroke:#000000;" x="316.854714" xlink:href="#m1dc6e1146e" y="190.122648"/>
     <use style="stroke:#000000;" x="319.075467" xlink:href="#m1dc6e1146e" y="190.683182"/>
     <use style="stroke:#000000;" x="321.296518" xlink:href="#m1dc6e1146e" y="191.239118"/>
     <use style="stroke:#000000;" x="323.517569" xlink:href="#m1dc6e1146e" y="191.790367"/>
     <use style="stroke:#000000;" x="325.73862" xlink:href="#m1dc6e1146e" y="192.337109"/>
     <use style="stroke:#000000;" x="327.349292" xlink:href="#m1dc6e1146e" y="192.73078"/>
     <use style="stroke:#000000;" x="328.960262" xlink:href="#m1dc6e1146e" y="193.122199"/>
     <use style="stroke:#000000;" x="330.571233" xlink:href="#m1dc6e1146e" y="193.511183"/>
     <use style="stroke:#000000;" x="332.181905" xlink:href="#m1dc6e1146e" y="193.897823"/>
     <use style="stroke:#000000;" x="333.792876" xlink:href="#m1dc6e1146e" y="194.28221"/>
     <use style="stroke:#000000;" x="335.403548" xlink:href="#m1dc6e1146e" y="194.664253"/>
     <use style="stroke:#000000;" x="337.014518" xlink:href="#m1dc6e1146e" y="195.044042"/>
     <use style="stroke:#000000;" x="338.625489" xlink:href="#m1dc6e1146e" y="195.421487"/>
     <use style="stroke:#000000;" x="340.236161" xlink:href="#m1dc6e1146e" y="195.796769"/>
     <use style="stroke:#000000;" x="341.847131" xlink:href="#m1dc6e1146e" y="196.169797"/>
     <use style="stroke:#000000;" x="343.457804" xlink:href="#m1dc6e1146e" y="196.540572"/>
     <use style="stroke:#000000;" x="346.234043" xlink:href="#m1dc6e1146e" y="197.174395"/>
     <use style="stroke:#000000;" x="349.009984" xlink:href="#m1dc6e1146e" y="197.801638"/>
     <use style="stroke:#000000;" x="351.786223" xlink:href="#m1dc6e1146e" y="198.42257"/>
     <use style="stroke:#000000;" x="354.562462" xlink:href="#m1dc6e1146e" y="199.037012"/>
     <use style="stroke:#000000;" x="357.338403" xlink:href="#m1dc6e1146e" y="199.645234"/>
     <use style="stroke:#000000;" x="360.114642" xlink:href="#m1dc6e1146e" y="200.247235"/>
     <use style="stroke:#000000;" x="362.890583" xlink:href="#m1dc6e1146e" y="200.843107"/>
     <use style="stroke:#000000;" x="365.667717" xlink:href="#m1dc6e1146e" y="201.432848"/>
    </g>
   </g>
   <g id="line2d_13">
    <path clip-path="url(#p83733d2873)" d="M 65.361932 164.187143 
L 65.685007 164.149485 
L 66.101706 163.864285 
L 66.662289 163.16839 
L 67.472021 161.750279 
L 68.754459 159.001046 
L 73.624328 148.208948 
L 75.906239 143.846546 
L 78.053853 140.214888 
L 80.212158 137.006163 
L 82.177084 134.445933 
L 84.144334 132.204514 
L 86.113908 130.260724 
L 88.083481 128.595266 
L 89.810471 127.346855 
L 92.037079 126.005616 
L 94.263687 124.939715 
L 96.490296 124.12157 
L 98.716904 123.525362 
L 100.943512 123.127136 
L 103.912323 122.866312 
L 106.515639 122.857921 
L 109.872368 123.103846 
L 113.229097 123.591053 
L 116.585826 124.275301 
L 121.061465 125.430861 
L 126.656014 127.168862 
L 133.369472 129.550013 
L 141.20184 132.578219 
L 154.679515 138.078539 
L 181.736378 149.169667 
L 196.923781 155.139177 
L 209.512124 159.897081 
L 224.330188 165.266168 
L 239.148252 170.384191 
L 254.52209 175.433605 
L 269.303076 180.045248 
L 283.180332 184.165336 
L 297.871963 188.314047 
L 312.563594 192.251981 
L 323.877797 195.146426 
L 339.160387 198.872779 
L 354.442978 202.397267 
L 369.725568 205.729349 
L 369.725568 205.729349 
" style="fill:none;stroke:#0000ff;stroke-linecap:square;stroke-width:1.5;"/>
   </g>
   <g id="line2d_14">
    <path clip-path="url(#p83733d2873)" d="M 65.361932 164.187143 
L 65.733473 164.171474 
L 66.136017 163.944861 
L 66.676238 163.356896 
L 67.292509 162.372295 
L 68.236099 160.404169 
L 69.718882 156.670701 
L 74.71395 143.620622 
L 76.748469 139.118339 
L 78.579536 135.588908 
L 80.410603 132.538025 
L 82.154721 130.047776 
L 84.00352 127.814831 
L 85.852319 125.962658 
L 87.548967 124.566129 
L 89.40543 123.337633 
L 91.261893 122.390181 
L 93.351696 121.622135 
L 95.444066 121.131972 
L 97.536435 120.885303 
L 99.628804 120.850406 
L 101.721174 120.999088 
L 104.510999 121.440217 
L 107.300825 122.112642 
L 110.453938 123.097491 
L 114.65809 124.698279 
L 118.862241 126.541909 
L 124.117429 129.080232 
L 131.474694 132.897013 
L 146.189223 140.867072 
L 162.042821 149.365001 
L 174.746447 155.899665 
L 184.923222 160.916807 
L 195.73222 166.023229 
L 207.377731 171.267828 
L 219.523536 176.458912 
L 230.490111 180.908606 
L 242.481861 185.525685 
L 254.688498 189.969436 
L 268.063416 194.555363 
L 281.438333 198.859849 
L 293.63219 202.551538 
L 305.826047 206.032654 
L 318.019904 209.313915 
L 330.213761 212.405705 
L 342.407618 215.318051 
L 354.601475 218.060604 
L 365.038898 220.280261 
L 365.038898 220.280261 
" style="fill:none;stroke:#ff0000;stroke-linecap:square;stroke-width:1.5;"/>
   </g>
   <g id="line2d_15">
    <path clip-path="url(#p83733d2873)" d="M 65.361932 65.975886 
L 65.895939 66.05113 
L 66.531377 65.903374 
L 67.259297 65.492923 
L 68.127431 64.745394 
L 69.210361 63.522362 
L 70.761666 61.398989 
L 73.237788 57.557722 
L 78.72702 48.94057 
L 81.262807 45.384268 
L 83.470434 42.62044 
L 85.707893 40.159143 
L 87.945352 38.05535 
L 90.182811 36.308504 
L 92.450103 34.880021 
L 94.687562 33.79458 
L 96.38803 33.169616 
L 98.476326 32.628652 
L 100.862949 32.28229 
L 102.951244 32.201761 
L 105.636194 32.368083 
L 108.321145 32.79887 
L 110.707768 33.3744 
L 113.392719 34.212031 
L 117.270981 35.724434 
L 121.149244 37.519603 
L 125.027506 39.541796 
L 130.397408 42.613985 
L 136.960621 46.665258 
L 145.910457 52.486884 
L 180.51649 75.322664 
L 192.449605 82.826151 
L 204.084392 89.873128 
L 216.017507 96.816288 
L 227.950622 103.471077 
L 240.131647 109.976167 
L 252.207363 116.14617 
L 264.28278 122.047444 
L 276.358495 127.691572 
L 288.434211 133.087632 
L 300.509628 138.248422 
L 314.633663 144.002027 
L 327.349292 148.922863 
L 340.236161 153.692909 
L 354.562462 158.739293 
L 362.890583 161.453892 
L 365.667717 159.940076 
L 365.667717 159.940076 
" style="fill:none;stroke:#0000ff;stroke-dasharray:5.55,2.4;stroke-dashoffset:0;stroke-width:1.5;"/>
   </g>
   <g id="line2d_16">
    <path clip-path="url(#p83733d2873)" d="M 65.361932 213.023189 
L 65.716942 212.954336 
L 66.167417 212.626505 
L 66.805839 211.83186 
L 67.715739 210.290273 
L 69.419191 206.879807 
L 72.521801 200.714237 
L 74.580263 197.095311 
L 76.608893 193.943075 
L 78.72702 191.064402 
L 80.904814 188.505913 
L 83.11244 186.28564 
L 85.14107 184.542805 
L 87.378529 182.917538 
L 89.645821 181.550849 
L 91.88328 180.447979 
L 94.120739 179.561385 
L 96.984686 178.702753 
L 99.669637 178.139753 
L 102.354588 177.776865 
L 105.636194 177.565322 
L 109.514457 177.58315 
L 113.392719 177.832533 
L 118.464293 178.429793 
L 123.834195 179.307547 
L 130.397408 180.617052 
L 139.347244 182.663953 
L 152.47367 185.934201 
L 196.327867 197.02625 
L 216.017507 201.698932 
L 234.093789 205.766708 
L 252.207363 209.625344 
L 270.320638 213.26652 
L 288.434211 216.694114 
L 307.97051 220.160662 
L 327.349292 223.365457 
L 346.234043 226.283969 
L 362.890583 228.719121 
L 365.667717 229.874489 
L 365.667717 229.874489 
" style="fill:none;stroke:#0000ff;stroke-dasharray:5.55,2.4;stroke-dashoffset:0;stroke-width:1.5;"/>
   </g>
   <g id="line2d_17"/>
   <g id="line2d_18"/>
   <g id="line2d_19"/>
   <g id="line2d_20"/>
   <g id="line2d_21"/>
   <g id="line2d_22"/>
   <g id="patch_3">
    <path d="M 50.14375 239.758125 
L 50.14375 22.318125 
" style="fill:none;stroke:#000000;stroke-linecap:square;stroke-linejoin:miter;stroke-width:0.8;"/>
   </g>
   <g id="patch_4">
    <path d="M 384.94375 239.758125 
L 384.94375 22.318125 
" style="fill:none;stroke:#000000;stroke-linecap:square;stroke-linejoin:miter;stroke-width:0.8;"/>
   </g>
   <g id="patch_5">
    <path d="M 50.14375 239.758125 
L 384.94375 239.758125 
" style="fill:none;stroke:#000000;stroke-linecap:square;stroke-linejoin:miter;stroke-width:0.8;"/>
   </g>
   <g id="patch_6">
    <path d="M 50.14375 22.318125 
L 384.94375 22.318125 
" style="fill:none;stroke:#000000;stroke-linecap:square;stroke-linejoin:miter;stroke-width:0.8;"/>
   </g>
   <g id="text_14">
    <!-- Experiment_23 -->
    <defs>
     <path d="M 9.8125 72.90625 
L 55.90625 72.90625 
L 55.90625 64.59375 
L 19.671875 64.59375 
L 19.671875 43.015625 
L 54.390625 43.015625 
L 54.390625 34.71875 
L 19.671875 34.71875 
L 19.671875 8.296875 
L 56.78125 8.296875 
L 56.78125 0 
L 9.8125 0 
z
" id="DejaVuSans-69"/>
     <path d="M 54.890625 54.6875 
L 35.109375 28.078125 
L 55.90625 0 
L 45.3125 0 
L 29.390625 21.484375 
L 13.484375 0 
L 2.875 0 
L 24.125 28.609375 
L 4.6875 54.6875 
L 15.28125 54.6875 
L 29.78125 35.203125 
L 44.28125 54.6875 
z
" id="DejaVuSans-120"/>
     <path d="M 18.109375 8.203125 
L 18.109375 -20.796875 
L 9.078125 -20.796875 
L 9.078125 54.6875 
L 18.109375 54.6875 
L 18.109375 46.390625 
Q 20.953125 51.265625 25.265625 53.625 
Q 29.59375 56 35.59375 56 
Q 45.5625 56 51.78125 48.09375 
Q 58.015625 40.1875 58.015625 27.296875 
Q 58.015625 14.40625 51.78125 6.484375 
Q 45.5625 -1.421875 35.59375 -1.421875 
Q 29.59375 -1.421875 25.265625 0.953125 
Q 20.953125 3.328125 18.109375 8.203125 
z
M 48.6875 27.296875 
Q 48.6875 37.203125 44.609375 42.84375 
Q 40.53125 48.484375 33.40625 48.484375 
Q 26.265625 48.484375 22.1875 42.84375 
Q 18.109375 37.203125 18.109375 27.296875 
Q 18.109375 17.390625 22.1875 11.75 
Q 26.265625 6.109375 33.40625 6.109375 
Q 40.53125 6.109375 44.609375 11.75 
Q 48.6875 17.390625 48.6875 27.296875 
z
" id="DejaVuSans-112"/>
     <path d="M 18.3125 70.21875 
L 18.3125 54.6875 
L 36.8125 54.6875 
L 36.8125 47.703125 
L 18.3125 47.703125 
L 18.3125 18.015625 
Q 18.3125 11.328125 20.140625 9.421875 
Q 21.96875 7.515625 27.59375 7.515625 
L 36.8125 7.515625 
L 36.8125 0 
L 27.59375 0 
Q 17.1875 0 13.234375 3.875 
Q 9.28125 7.765625 9.28125 18.015625 
L 9.28125 47.703125 
L 2.6875 47.703125 
L 2.6875 54.6875 
L 9.28125 54.6875 
L 9.28125 70.21875 
z
" id="DejaVuSans-116"/>
     <path d="M 50.984375 -16.609375 
L 50.984375 -23.578125 
L -0.984375 -23.578125 
L -0.984375 -16.609375 
z
" id="DejaVuSans-95"/>
     <path d="M 40.578125 39.3125 
Q 47.65625 37.796875 51.625 33 
Q 55.609375 28.21875 55.609375 21.1875 
Q 55.609375 10.40625 48.1875 4.484375 
Q 40.765625 -1.421875 27.09375 -1.421875 
Q 22.515625 -1.421875 17.65625 -0.515625 
Q 12.796875 0.390625 7.625 2.203125 
L 7.625 11.71875 
Q 11.71875 9.328125 16.59375 8.109375 
Q 21.484375 6.890625 26.8125 6.890625 
Q 36.078125 6.890625 40.9375 10.546875 
Q 45.796875 14.203125 45.796875 21.1875 
Q 45.796875 27.640625 41.28125 31.265625 
Q 36.765625 34.90625 28.71875 34.90625 
L 20.21875 34.90625 
L 20.21875 43.015625 
L 29.109375 43.015625 
Q 36.375 43.015625 40.234375 45.921875 
Q 44.09375 48.828125 44.09375 54.296875 
Q 44.09375 59.90625 40.109375 62.90625 
Q 36.140625 65.921875 28.71875 65.921875 
Q 24.65625 65.921875 20.015625 65.03125 
Q 15.375 64.15625 9.8125 62.3125 
L 9.8125 71.09375 
Q 15.4375 72.65625 20.34375 73.4375 
Q 25.25 74.21875 29.59375 74.21875 
Q 40.828125 74.21875 47.359375 69.109375 
Q 53.90625 64.015625 53.90625 55.328125 
Q 53.90625 49.265625 50.4375 45.09375 
Q 46.96875 40.921875 40.578125 39.3125 
z
" id="DejaVuSans-51"/>
    </defs>
    <g transform="translate(172.240938 16.318125)scale(0.12 -0.12)">
     <use xlink:href="#DejaVuSans-69"/>
     <use x="63.183594" xlink:href="#DejaVuSans-120"/>
     <use x="122.363281" xlink:href="#DejaVuSans-112"/>
     <use x="185.839844" xlink:href="#DejaVuSans-101"/>
     <use x="247.363281" xlink:href="#DejaVuSans-114"/>
     <use x="288.476562" xlink:href="#DejaVuSans-105"/>
     <use x="316.259766" xlink:href="#DejaVuSans-109"/>
     <use x="413.671875" xlink:href="#DejaVuSans-101"/>
     <use x="475.195312" xlink:href="#DejaVuSans-110"/>
     <use x="538.574219" xlink:href="#DejaVuSans-116"/>
     <use x="577.783203" xlink:href="#DejaVuSans-95"/>
     <use x="627.783203" xlink:href="#DejaVuSans-50"/>
     <use x="691.40625" xlink:href="#DejaVuSans-51"/>
    </g>
   </g>
   <g id="legend_1">
    <g id="patch_7">
     <path d="M 121.823438 103.730625 
L 377.94375 103.730625 
Q 379.94375 103.730625 379.94375 101.730625 
L 379.94375 29.318125 
Q 379.94375 27.318125 377.94375 27.318125 
L 121.823438 27.318125 
Q 119.823438 27.318125 119.823438 29.318125 
L 119.823438 101.730625 
Q 119.823438 103.730625 121.823438 103.730625 
z
" style="fill:#ffffff;opacity:0.8;stroke:#cccccc;stroke-linejoin:miter;"/>
    </g>
    <g id="line2d_23"/>
    <g id="line2d_24">
     <g>
      <use style="stroke:#000000;" x="133.823438" xlink:href="#m1dc6e1146e" y="35.416562"/>
     </g>
    </g>
    <g id="text_15">
     <!-- Experimental Data -->
     <defs>
      <path d="M 9.421875 75.984375 
L 18.40625 75.984375 
L 18.40625 0 
L 9.421875 0 
z
" id="DejaVuSans-108"/>
      <path d="M 19.671875 64.796875 
L 19.671875 8.109375 
L 31.59375 8.109375 
Q 46.6875 8.109375 53.6875 14.9375 
Q 60.6875 21.78125 60.6875 36.53125 
Q 60.6875 51.171875 53.6875 57.984375 
Q 46.6875 64.796875 31.59375 64.796875 
z
M 9.8125 72.90625 
L 30.078125 72.90625 
Q 51.265625 72.90625 61.171875 64.09375 
Q 71.09375 55.28125 71.09375 36.53125 
Q 71.09375 17.671875 61.125 8.828125 
Q 51.171875 0 30.078125 0 
L 9.8125 0 
z
" id="DejaVuSans-68"/>
     </defs>
     <g transform="translate(151.823438 38.916562)scale(0.1 -0.1)">
      <use xlink:href="#DejaVuSans-69"/>
      <use x="63.183594" xlink:href="#DejaVuSans-120"/>
      <use x="122.363281" xlink:href="#DejaVuSans-112"/>
      <use x="185.839844" xlink:href="#DejaVuSans-101"/>
      <use x="247.363281" xlink:href="#DejaVuSans-114"/>
      <use x="288.476562" xlink:href="#DejaVuSans-105"/>
      <use x="316.259766" xlink:href="#DejaVuSans-109"/>
      <use x="413.671875" xlink:href="#DejaVuSans-101"/>
      <use x="475.195312" xlink:href="#DejaVuSans-110"/>
      <use x="538.574219" xlink:href="#DejaVuSans-116"/>
      <use x="577.783203" xlink:href="#DejaVuSans-97"/>
      <use x="639.0625" xlink:href="#DejaVuSans-108"/>
      <use x="666.845703" xlink:href="#DejaVuSans-32"/>
      <use x="698.632812" xlink:href="#DejaVuSans-68"/>
      <use x="775.634766" xlink:href="#DejaVuSans-97"/>
      <use x="836.914062" xlink:href="#DejaVuSans-116"/>
      <use x="876.123047" xlink:href="#DejaVuSans-97"/>
     </g>
    </g>
    <g id="line2d_25">
     <path d="M 123.823438 50.094687 
L 143.823438 50.094687 
" style="fill:none;stroke:#0000ff;stroke-linecap:square;stroke-width:1.5;"/>
    </g>
    <g id="line2d_26"/>
    <g id="text_16">
     <!-- MSI -->
     <defs>
      <path d="M 9.8125 72.90625 
L 24.515625 72.90625 
L 43.109375 23.296875 
L 61.8125 72.90625 
L 76.515625 72.90625 
L 76.515625 0 
L 66.890625 0 
L 66.890625 64.015625 
L 48.09375 14.015625 
L 38.1875 14.015625 
L 19.390625 64.015625 
L 19.390625 0 
L 9.8125 0 
z
" id="DejaVuSans-77"/>
      <path d="M 53.515625 70.515625 
L 53.515625 60.890625 
Q 47.90625 63.578125 42.921875 64.890625 
Q 37.9375 66.21875 33.296875 66.21875 
Q 25.25 66.21875 20.875 63.09375 
Q 16.5 59.96875 16.5 54.203125 
Q 16.5 49.359375 19.40625 46.890625 
Q 22.3125 44.4375 30.421875 42.921875 
L 36.375 41.703125 
Q 47.40625 39.59375 52.65625 34.296875 
Q 57.90625 29 57.90625 20.125 
Q 57.90625 9.515625 50.796875 4.046875 
Q 43.703125 -1.421875 29.984375 -1.421875 
Q 24.8125 -1.421875 18.96875 -0.25 
Q 13.140625 0.921875 6.890625 3.21875 
L 6.890625 13.375 
Q 12.890625 10.015625 18.65625 8.296875 
Q 24.421875 6.59375 29.984375 6.59375 
Q 38.421875 6.59375 43.015625 9.90625 
Q 47.609375 13.234375 47.609375 19.390625 
Q 47.609375 24.75 44.3125 27.78125 
Q 41.015625 30.8125 33.5 32.328125 
L 27.484375 33.5 
Q 16.453125 35.6875 11.515625 40.375 
Q 6.59375 45.0625 6.59375 53.421875 
Q 6.59375 63.09375 13.40625 68.65625 
Q 20.21875 74.21875 32.171875 74.21875 
Q 37.3125 74.21875 42.625 73.28125 
Q 47.953125 72.359375 53.515625 70.515625 
z
" id="DejaVuSans-83"/>
      <path d="M 9.8125 72.90625 
L 19.671875 72.90625 
L 19.671875 0 
L 9.8125 0 
z
" id="DejaVuSans-73"/>
     </defs>
     <g transform="translate(151.823438 53.594687)scale(0.1 -0.1)">
      <use xlink:href="#DejaVuSans-77"/>
      <use x="86.279297" xlink:href="#DejaVuSans-83"/>
      <use x="149.755859" xlink:href="#DejaVuSans-73"/>
     </g>
    </g>
    <g id="line2d_27">
     <path d="M 123.823438 64.774375 
L 143.823438 64.774375 
" style="fill:none;stroke:#ff0000;stroke-linecap:square;stroke-width:1.5;"/>
    </g>
    <g id="line2d_28"/>
    <g id="text_17">
     <!-- $\it{A priori}$ model -->
     <defs>
      <path d="M 36.8125 72.90625 
L 48 72.90625 
L 61.53125 0 
L 51.21875 0 
L 48.1875 18.703125 
L 15.375 18.703125 
L 5.078125 0 
L -5.328125 0 
z
M 40.375 63.1875 
L 19.921875 26.90625 
L 46.6875 26.90625 
z
" id="DejaVuSans-Oblique-65"/>
      <path d="M 49.609375 33.6875 
Q 49.609375 40.875 46.484375 44.671875 
Q 43.359375 48.484375 37.5 48.484375 
Q 33.5 48.484375 29.859375 46.4375 
Q 26.21875 44.390625 23.390625 40.484375 
Q 20.609375 36.625 18.9375 31.15625 
Q 17.28125 25.6875 17.28125 20.3125 
Q 17.28125 13.484375 20.40625 9.796875 
Q 23.53125 6.109375 29.296875 6.109375 
Q 33.546875 6.109375 37.1875 8.109375 
Q 40.828125 10.109375 43.40625 13.921875 
Q 46.1875 17.921875 47.890625 23.34375 
Q 49.609375 28.765625 49.609375 33.6875 
z
M 21.78125 46.390625 
Q 25.390625 51.125 30.296875 53.5625 
Q 35.203125 56 41.21875 56 
Q 49.609375 56 54.25 50.5 
Q 58.890625 45.015625 58.890625 35.109375 
Q 58.890625 27 56 19.65625 
Q 53.125 12.3125 47.703125 6.5 
Q 44.09375 2.640625 39.546875 0.609375 
Q 35.015625 -1.421875 29.984375 -1.421875 
Q 24.171875 -1.421875 20.21875 1 
Q 16.265625 3.421875 14.3125 8.203125 
L 8.6875 -20.796875 
L -0.296875 -20.796875 
L 14.40625 54.6875 
L 23.390625 54.6875 
z
" id="DejaVuSans-Oblique-112"/>
      <path d="M 44.578125 46.390625 
Q 43.21875 47.125 41.453125 47.515625 
Q 39.703125 47.90625 37.703125 47.90625 
Q 30.515625 47.90625 25.140625 42.453125 
Q 19.78125 37.015625 18.015625 27.875 
L 12.5 0 
L 3.515625 0 
L 14.203125 54.6875 
L 23.1875 54.6875 
L 21.484375 46.1875 
Q 25.046875 50.921875 30 53.453125 
Q 34.96875 56 40.578125 56 
Q 42.046875 56 43.453125 55.828125 
Q 44.875 55.671875 46.296875 55.28125 
z
" id="DejaVuSans-Oblique-114"/>
      <path d="M 18.3125 75.984375 
L 27.296875 75.984375 
L 25.09375 64.59375 
L 16.109375 64.59375 
z
M 14.203125 54.6875 
L 23.1875 54.6875 
L 12.5 0 
L 3.515625 0 
z
" id="DejaVuSans-Oblique-105"/>
      <path d="M 25.390625 -1.421875 
Q 15.765625 -1.421875 10.171875 4.515625 
Q 4.59375 10.453125 4.59375 20.703125 
Q 4.59375 26.65625 6.515625 32.828125 
Q 8.453125 39.015625 11.53125 43.21875 
Q 16.359375 49.75 22.3125 52.875 
Q 28.265625 56 35.796875 56 
Q 45.125 56 50.859375 50.1875 
Q 56.59375 44.390625 56.59375 35.015625 
Q 56.59375 28.515625 54.6875 22.0625 
Q 52.78125 15.625 49.703125 11.375 
Q 44.921875 4.828125 38.96875 1.703125 
Q 33.015625 -1.421875 25.390625 -1.421875 
z
M 13.921875 21 
Q 13.921875 13.578125 17.015625 9.890625 
Q 20.125 6.203125 26.421875 6.203125 
Q 35.453125 6.203125 41.375 14.078125 
Q 47.3125 21.96875 47.3125 34.078125 
Q 47.3125 41.15625 44.140625 44.765625 
Q 40.96875 48.390625 34.8125 48.390625 
Q 29.734375 48.390625 25.78125 46.015625 
Q 21.828125 43.65625 18.703125 38.8125 
Q 16.40625 35.203125 15.15625 30.5625 
Q 13.921875 25.921875 13.921875 21 
z
" id="DejaVuSans-Oblique-111"/>
      <path d="M 45.40625 46.390625 
L 45.40625 75.984375 
L 54.390625 75.984375 
L 54.390625 0 
L 45.40625 0 
L 45.40625 8.203125 
Q 42.578125 3.328125 38.25 0.953125 
Q 33.9375 -1.421875 27.875 -1.421875 
Q 17.96875 -1.421875 11.734375 6.484375 
Q 5.515625 14.40625 5.515625 27.296875 
Q 5.515625 40.1875 11.734375 48.09375 
Q 17.96875 56 27.875 56 
Q 33.9375 56 38.25 53.625 
Q 42.578125 51.265625 45.40625 46.390625 
z
M 14.796875 27.296875 
Q 14.796875 17.390625 18.875 11.75 
Q 22.953125 6.109375 30.078125 6.109375 
Q 37.203125 6.109375 41.296875 11.75 
Q 45.40625 17.390625 45.40625 27.296875 
Q 45.40625 37.203125 41.296875 42.84375 
Q 37.203125 48.484375 30.078125 48.484375 
Q 22.953125 48.484375 18.875 42.84375 
Q 14.796875 37.203125 14.796875 27.296875 
z
" id="DejaVuSans-100"/>
     </defs>
     <g transform="translate(151.823438 68.274375)scale(0.1 -0.1)">
      <use transform="translate(0 0.015625)" xlink:href="#DejaVuSans-Oblique-65"/>
      <use transform="translate(68.408203 0.015625)" xlink:href="#DejaVuSans-Oblique-112"/>
      <use transform="translate(131.884766 0.015625)" xlink:href="#DejaVuSans-Oblique-114"/>
      <use transform="translate(172.998047 0.015625)" xlink:href="#DejaVuSans-Oblique-105"/>
      <use transform="translate(200.78125 0.015625)" xlink:href="#DejaVuSans-Oblique-111"/>
      <use transform="translate(261.962891 0.015625)" xlink:href="#DejaVuSans-Oblique-114"/>
      <use transform="translate(303.076172 0.015625)" xlink:href="#DejaVuSans-Oblique-105"/>
      <use transform="translate(330.859375 0.015625)" xlink:href="#DejaVuSans-32"/>
      <use transform="translate(362.646484 0.015625)" xlink:href="#DejaVuSans-109"/>
      <use transform="translate(460.058594 0.015625)" xlink:href="#DejaVuSans-111"/>
      <use transform="translate(521.240234 0.015625)" xlink:href="#DejaVuSans-100"/>
      <use transform="translate(584.716797 0.015625)" xlink:href="#DejaVuSans-101"/>
      <use transform="translate(646.240234 0.015625)" xlink:href="#DejaVuSans-108"/>
     </g>
    </g>
    <g id="line2d_29">
     <path d="M 123.823438 79.472813 
L 143.823438 79.472813 
" style="fill:none;stroke:#ffffff;stroke-linecap:square;stroke-width:1.5;"/>
    </g>
    <g id="line2d_30"/>
    <g id="text_18">
     <!-- T:1091 -->
     <defs>
      <path d="M 11.71875 12.40625 
L 22.015625 12.40625 
L 22.015625 0 
L 11.71875 0 
z
M 11.71875 51.703125 
L 22.015625 51.703125 
L 22.015625 39.3125 
L 11.71875 39.3125 
z
" id="DejaVuSans-58"/>
      <path d="M 10.984375 1.515625 
L 10.984375 10.5 
Q 14.703125 8.734375 18.5 7.8125 
Q 22.3125 6.890625 25.984375 6.890625 
Q 35.75 6.890625 40.890625 13.453125 
Q 46.046875 20.015625 46.78125 33.40625 
Q 43.953125 29.203125 39.59375 26.953125 
Q 35.25 24.703125 29.984375 24.703125 
Q 19.046875 24.703125 12.671875 31.3125 
Q 6.296875 37.9375 6.296875 49.421875 
Q 6.296875 60.640625 12.9375 67.421875 
Q 19.578125 74.21875 30.609375 74.21875 
Q 43.265625 74.21875 49.921875 64.515625 
Q 56.59375 54.828125 56.59375 36.375 
Q 56.59375 19.140625 48.40625 8.859375 
Q 40.234375 -1.421875 26.421875 -1.421875 
Q 22.703125 -1.421875 18.890625 -0.6875 
Q 15.09375 0.046875 10.984375 1.515625 
z
M 30.609375 32.421875 
Q 37.25 32.421875 41.125 36.953125 
Q 45.015625 41.5 45.015625 49.421875 
Q 45.015625 57.28125 41.125 61.84375 
Q 37.25 66.40625 30.609375 66.40625 
Q 23.96875 66.40625 20.09375 61.84375 
Q 16.21875 57.28125 16.21875 49.421875 
Q 16.21875 41.5 20.09375 36.953125 
Q 23.96875 32.421875 30.609375 32.421875 
z
" id="DejaVuSans-57"/>
     </defs>
     <g transform="translate(151.823438 82.972813)scale(0.1 -0.1)">
      <use xlink:href="#DejaVuSans-84"/>
      <use x="60.912109" xlink:href="#DejaVuSans-58"/>
      <use x="94.603516" xlink:href="#DejaVuSans-49"/>
      <use x="158.226562" xlink:href="#DejaVuSans-48"/>
      <use x="221.849609" xlink:href="#DejaVuSans-57"/>
      <use x="285.472656" xlink:href="#DejaVuSans-49"/>
     </g>
    </g>
    <g id="line2d_31">
     <path d="M 123.823438 94.150937 
L 143.823438 94.150937 
" style="fill:none;stroke:#ffffff;stroke-linecap:square;stroke-width:1.5;"/>
    </g>
    <g id="line2d_32"/>
    <g id="text_19">
     <!-- P:1.754 -->
     <defs>
      <path d="M 19.671875 64.796875 
L 19.671875 37.40625 
L 32.078125 37.40625 
Q 38.96875 37.40625 42.71875 40.96875 
Q 46.484375 44.53125 46.484375 51.125 
Q 46.484375 57.671875 42.71875 61.234375 
Q 38.96875 64.796875 32.078125 64.796875 
z
M 9.8125 72.90625 
L 32.078125 72.90625 
Q 44.34375 72.90625 50.609375 67.359375 
Q 56.890625 61.8125 56.890625 51.125 
Q 56.890625 40.328125 50.609375 34.8125 
Q 44.34375 29.296875 32.078125 29.296875 
L 19.671875 29.296875 
L 19.671875 0 
L 9.8125 0 
z
" id="DejaVuSans-80"/>
     </defs>
     <g transform="translate(151.823438 97.650937)scale(0.1 -0.1)">
      <use xlink:href="#DejaVuSans-80"/>
      <use x="60.302734" xlink:href="#DejaVuSans-58"/>
      <use x="93.994141" xlink:href="#DejaVuSans-49"/>
      <use x="157.617188" xlink:href="#DejaVuSans-46"/>
      <use x="189.404297" xlink:href="#DejaVuSans-55"/>
      <use x="253.027344" xlink:href="#DejaVuSans-53"/>
      <use x="316.650391" xlink:href="#DejaVuSans-52"/>
     </g>
    </g>
    <g id="line2d_33">
     <path d="M 265.564063 35.416562 
L 285.564063 35.416562 
" style="fill:none;stroke:#ffffff;stroke-linecap:square;stroke-width:1.5;"/>
    </g>
    <g id="line2d_34"/>
    <g id="text_20">
     <!-- H2O2: 0.002566 -->
     <defs>
      <path d="M 9.8125 72.90625 
L 19.671875 72.90625 
L 19.671875 43.015625 
L 55.515625 43.015625 
L 55.515625 72.90625 
L 65.375 72.90625 
L 65.375 0 
L 55.515625 0 
L 55.515625 34.71875 
L 19.671875 34.71875 
L 19.671875 0 
L 9.8125 0 
z
" id="DejaVuSans-72"/>
      <path d="M 39.40625 66.21875 
Q 28.65625 66.21875 22.328125 58.203125 
Q 16.015625 50.203125 16.015625 36.375 
Q 16.015625 22.609375 22.328125 14.59375 
Q 28.65625 6.59375 39.40625 6.59375 
Q 50.140625 6.59375 56.421875 14.59375 
Q 62.703125 22.609375 62.703125 36.375 
Q 62.703125 50.203125 56.421875 58.203125 
Q 50.140625 66.21875 39.40625 66.21875 
z
M 39.40625 74.21875 
Q 54.734375 74.21875 63.90625 63.9375 
Q 73.09375 53.65625 73.09375 36.375 
Q 73.09375 19.140625 63.90625 8.859375 
Q 54.734375 -1.421875 39.40625 -1.421875 
Q 24.03125 -1.421875 14.8125 8.828125 
Q 5.609375 19.09375 5.609375 36.375 
Q 5.609375 53.65625 14.8125 63.9375 
Q 24.03125 74.21875 39.40625 74.21875 
z
" id="DejaVuSans-79"/>
     </defs>
     <g transform="translate(293.564063 38.916562)scale(0.1 -0.1)">
      <use xlink:href="#DejaVuSans-72"/>
      <use x="75.195312" xlink:href="#DejaVuSans-50"/>
      <use x="138.818359" xlink:href="#DejaVuSans-79"/>
      <use x="217.529297" xlink:href="#DejaVuSans-50"/>
      <use x="281.152344" xlink:href="#DejaVuSans-58"/>
      <use x="314.84375" xlink:href="#DejaVuSans-32"/>
      <use x="346.630859" xlink:href="#DejaVuSans-48"/>
      <use x="410.253906" xlink:href="#DejaVuSans-46"/>
      <use x="442.041016" xlink:href="#DejaVuSans-48"/>
      <use x="505.664062" xlink:href="#DejaVuSans-48"/>
      <use x="569.287109" xlink:href="#DejaVuSans-50"/>
      <use x="632.910156" xlink:href="#DejaVuSans-53"/>
      <use x="696.533203" xlink:href="#DejaVuSans-54"/>
      <use x="760.15625" xlink:href="#DejaVuSans-54"/>
     </g>
    </g>
    <g id="line2d_35">
     <path d="M 265.564063 50.094687 
L 285.564063 50.094687 
" style="fill:none;stroke:#ffffff;stroke-linecap:square;stroke-width:1.5;"/>
    </g>
    <g id="line2d_36"/>
    <g id="text_21">
     <!-- H2O: 0.001113 -->
     <g transform="translate(293.564063 53.594687)scale(0.1 -0.1)">
      <use xlink:href="#DejaVuSans-72"/>
      <use x="75.195312" xlink:href="#DejaVuSans-50"/>
      <use x="138.818359" xlink:href="#DejaVuSans-79"/>
      <use x="217.513672" xlink:href="#DejaVuSans-58"/>
      <use x="251.205078" xlink:href="#DejaVuSans-32"/>
      <use x="282.992188" xlink:href="#DejaVuSans-48"/>
      <use x="346.615234" xlink:href="#DejaVuSans-46"/>
      <use x="378.402344" xlink:href="#DejaVuSans-48"/>
      <use x="442.025391" xlink:href="#DejaVuSans-48"/>
      <use x="505.648438" xlink:href="#DejaVuSans-49"/>
      <use x="569.271484" xlink:href="#DejaVuSans-49"/>
      <use x="632.894531" xlink:href="#DejaVuSans-49"/>
      <use x="696.517578" xlink:href="#DejaVuSans-51"/>
     </g>
    </g>
    <g id="line2d_37">
     <path d="M 265.564063 64.772812 
L 285.564063 64.772812 
" style="fill:none;stroke:#ffffff;stroke-linecap:square;stroke-width:1.5;"/>
    </g>
    <g id="line2d_38"/>
    <g id="text_22">
     <!-- O2: 0.000556 -->
     <g transform="translate(293.564063 68.272812)scale(0.1 -0.1)">
      <use xlink:href="#DejaVuSans-79"/>
      <use x="78.710938" xlink:href="#DejaVuSans-50"/>
      <use x="142.333984" xlink:href="#DejaVuSans-58"/>
      <use x="176.025391" xlink:href="#DejaVuSans-32"/>
      <use x="207.8125" xlink:href="#DejaVuSans-48"/>
      <use x="271.435547" xlink:href="#DejaVuSans-46"/>
      <use x="303.222656" xlink:href="#DejaVuSans-48"/>
      <use x="366.845703" xlink:href="#DejaVuSans-48"/>
      <use x="430.46875" xlink:href="#DejaVuSans-48"/>
      <use x="494.091797" xlink:href="#DejaVuSans-53"/>
      <use x="557.714844" xlink:href="#DejaVuSans-53"/>
      <use x="621.337891" xlink:href="#DejaVuSans-54"/>
     </g>
    </g>
    <g id="line2d_39">
     <path d="M 265.564063 79.450938 
L 285.564063 79.450938 
" style="fill:none;stroke:#ffffff;stroke-linecap:square;stroke-width:1.5;"/>
    </g>
    <g id="line2d_40"/>
    <g id="text_23">
     <!-- Ar: 0.99574 -->
     <g transform="translate(293.564063 82.950938)scale(0.1 -0.1)">
      <use xlink:href="#DejaVuSans-65"/>
      <use x="68.408203" xlink:href="#DejaVuSans-114"/>
      <use x="109.505859" xlink:href="#DejaVuSans-58"/>
      <use x="143.197266" xlink:href="#DejaVuSans-32"/>
      <use x="174.984375" xlink:href="#DejaVuSans-48"/>
      <use x="238.607422" xlink:href="#DejaVuSans-46"/>
      <use x="270.394531" xlink:href="#DejaVuSans-57"/>
      <use x="334.017578" xlink:href="#DejaVuSans-57"/>
      <use x="397.640625" xlink:href="#DejaVuSans-53"/>
      <use x="461.263672" xlink:href="#DejaVuSans-55"/>
      <use x="524.886719" xlink:href="#DejaVuSans-52"/>
     </g>
    </g>
   </g>
  </g>
 </g>
 <defs>
  <clipPath id="p83733d2873">
   <rect height="217.44" width="334.8" x="50.14375" y="22.318125"/>
  </clipPath>
 </defs>
</svg>
