<?xml version="1.0" encoding="utf-8" standalone="no"?>
<!DOCTYPE svg PUBLIC "-//W3C//DTD SVG 1.1//EN"
  "http://www.w3.org/Graphics/SVG/1.1/DTD/svg11.dtd">
<!-- Created with matplotlib (https://matplotlib.org/) -->
<svg height="277.314375pt" version="1.1" viewBox="0 0 398.828125 277.314375" width="398.828125pt" xmlns="http://www.w3.org/2000/svg" xmlns:xlink="http://www.w3.org/1999/xlink">
 <defs>
  <style type="text/css">
*{stroke-linecap:butt;stroke-linejoin:round;}
  </style>
 </defs>
 <g id="figure_1">
  <g id="patch_1">
   <path d="M 0 277.314375 
L 398.828125 277.314375 
L 398.828125 0 
L 0 0 
z
" style="fill:none;"/>
  </g>
  <g id="axes_1">
   <g id="patch_2">
    <path d="M 53.328125 239.758125 
L 388.128125 239.758125 
L 388.128125 22.318125 
L 53.328125 22.318125 
z
" style="fill:none;"/>
   </g>
   <g id="matplotlib.axis_1">
    <g id="xtick_1">
     <g id="line2d_1">
      <defs>
       <path d="M 0 0 
L 0 3.5 
" id="mfcda751041" style="stroke:#000000;stroke-width:0.8;"/>
      </defs>
      <g>
       <use style="stroke:#000000;stroke-width:0.8;" x="68.546307" xlink:href="#mfcda751041" y="239.758125"/>
      </g>
     </g>
     <g id="text_1">
      <!-- 0.0 -->
      <defs>
       <path d="M 31.78125 66.40625 
Q 24.171875 66.40625 20.328125 58.90625 
Q 16.5 51.421875 16.5 36.375 
Q 16.5 21.390625 20.328125 13.890625 
Q 24.171875 6.390625 31.78125 6.390625 
Q 39.453125 6.390625 43.28125 13.890625 
Q 47.125 21.390625 47.125 36.375 
Q 47.125 51.421875 43.28125 58.90625 
Q 39.453125 66.40625 31.78125 66.40625 
z
M 31.78125 74.21875 
Q 44.046875 74.21875 50.515625 64.515625 
Q 56.984375 54.828125 56.984375 36.375 
Q 56.984375 17.96875 50.515625 8.265625 
Q 44.046875 -1.421875 31.78125 -1.421875 
Q 19.53125 -1.421875 13.0625 8.265625 
Q 6.59375 17.96875 6.59375 36.375 
Q 6.59375 54.828125 13.0625 64.515625 
Q 19.53125 74.21875 31.78125 74.21875 
z
" id="DejaVuSans-48"/>
       <path d="M 10.6875 12.40625 
L 21 12.40625 
L 21 0 
L 10.6875 0 
z
" id="DejaVuSans-46"/>
      </defs>
      <g transform="translate(60.594744 254.356562)scale(0.1 -0.1)">
       <use xlink:href="#DejaVuSans-48"/>
       <use x="63.623047" xlink:href="#DejaVuSans-46"/>
       <use x="95.410156" xlink:href="#DejaVuSans-48"/>
      </g>
     </g>
    </g>
    <g id="xtick_2">
     <g id="line2d_2">
      <g>
       <use style="stroke:#000000;stroke-width:0.8;" x="128.819897" xlink:href="#mfcda751041" y="239.758125"/>
      </g>
     </g>
     <g id="text_2">
      <!-- 0.2 -->
      <defs>
       <path d="M 19.1875 8.296875 
L 53.609375 8.296875 
L 53.609375 0 
L 7.328125 0 
L 7.328125 8.296875 
Q 12.9375 14.109375 22.625 23.890625 
Q 32.328125 33.6875 34.8125 36.53125 
Q 39.546875 41.84375 41.421875 45.53125 
Q 43.3125 49.21875 43.3125 52.78125 
Q 43.3125 58.59375 39.234375 62.25 
Q 35.15625 65.921875 28.609375 65.921875 
Q 23.96875 65.921875 18.8125 64.3125 
Q 13.671875 62.703125 7.8125 59.421875 
L 7.8125 69.390625 
Q 13.765625 71.78125 18.9375 73 
Q 24.125 74.21875 28.421875 74.21875 
Q 39.75 74.21875 46.484375 68.546875 
Q 53.21875 62.890625 53.21875 53.421875 
Q 53.21875 48.921875 51.53125 44.890625 
Q 49.859375 40.875 45.40625 35.40625 
Q 44.1875 33.984375 37.640625 27.21875 
Q 31.109375 20.453125 19.1875 8.296875 
z
" id="DejaVuSans-50"/>
      </defs>
      <g transform="translate(120.868335 254.356562)scale(0.1 -0.1)">
       <use xlink:href="#DejaVuSans-48"/>
       <use x="63.623047" xlink:href="#DejaVuSans-46"/>
       <use x="95.410156" xlink:href="#DejaVuSans-50"/>
      </g>
     </g>
    </g>
    <g id="xtick_3">
     <g id="line2d_3">
      <g>
       <use style="stroke:#000000;stroke-width:0.8;" x="189.093488" xlink:href="#mfcda751041" y="239.758125"/>
      </g>
     </g>
     <g id="text_3">
      <!-- 0.4 -->
      <defs>
       <path d="M 37.796875 64.3125 
L 12.890625 25.390625 
L 37.796875 25.390625 
z
M 35.203125 72.90625 
L 47.609375 72.90625 
L 47.609375 25.390625 
L 58.015625 25.390625 
L 58.015625 17.1875 
L 47.609375 17.1875 
L 47.609375 0 
L 37.796875 0 
L 37.796875 17.1875 
L 4.890625 17.1875 
L 4.890625 26.703125 
z
" id="DejaVuSans-52"/>
      </defs>
      <g transform="translate(181.141925 254.356562)scale(0.1 -0.1)">
       <use xlink:href="#DejaVuSans-48"/>
       <use x="63.623047" xlink:href="#DejaVuSans-46"/>
       <use x="95.410156" xlink:href="#DejaVuSans-52"/>
      </g>
     </g>
    </g>
    <g id="xtick_4">
     <g id="line2d_4">
      <g>
       <use style="stroke:#000000;stroke-width:0.8;" x="249.367078" xlink:href="#mfcda751041" y="239.758125"/>
      </g>
     </g>
     <g id="text_4">
      <!-- 0.6 -->
      <defs>
       <path d="M 33.015625 40.375 
Q 26.375 40.375 22.484375 35.828125 
Q 18.609375 31.296875 18.609375 23.390625 
Q 18.609375 15.53125 22.484375 10.953125 
Q 26.375 6.390625 33.015625 6.390625 
Q 39.65625 6.390625 43.53125 10.953125 
Q 47.40625 15.53125 47.40625 23.390625 
Q 47.40625 31.296875 43.53125 35.828125 
Q 39.65625 40.375 33.015625 40.375 
z
M 52.59375 71.296875 
L 52.59375 62.3125 
Q 48.875 64.0625 45.09375 64.984375 
Q 41.3125 65.921875 37.59375 65.921875 
Q 27.828125 65.921875 22.671875 59.328125 
Q 17.53125 52.734375 16.796875 39.40625 
Q 19.671875 43.65625 24.015625 45.921875 
Q 28.375 48.1875 33.59375 48.1875 
Q 44.578125 48.1875 50.953125 41.515625 
Q 57.328125 34.859375 57.328125 23.390625 
Q 57.328125 12.15625 50.6875 5.359375 
Q 44.046875 -1.421875 33.015625 -1.421875 
Q 20.359375 -1.421875 13.671875 8.265625 
Q 6.984375 17.96875 6.984375 36.375 
Q 6.984375 53.65625 15.1875 63.9375 
Q 23.390625 74.21875 37.203125 74.21875 
Q 40.921875 74.21875 44.703125 73.484375 
Q 48.484375 72.75 52.59375 71.296875 
z
" id="DejaVuSans-54"/>
      </defs>
      <g transform="translate(241.415516 254.356562)scale(0.1 -0.1)">
       <use xlink:href="#DejaVuSans-48"/>
       <use x="63.623047" xlink:href="#DejaVuSans-46"/>
       <use x="95.410156" xlink:href="#DejaVuSans-54"/>
      </g>
     </g>
    </g>
    <g id="xtick_5">
     <g id="line2d_5">
      <g>
       <use style="stroke:#000000;stroke-width:0.8;" x="309.640669" xlink:href="#mfcda751041" y="239.758125"/>
      </g>
     </g>
     <g id="text_5">
      <!-- 0.8 -->
      <defs>
       <path d="M 31.78125 34.625 
Q 24.75 34.625 20.71875 30.859375 
Q 16.703125 27.09375 16.703125 20.515625 
Q 16.703125 13.921875 20.71875 10.15625 
Q 24.75 6.390625 31.78125 6.390625 
Q 38.8125 6.390625 42.859375 10.171875 
Q 46.921875 13.96875 46.921875 20.515625 
Q 46.921875 27.09375 42.890625 30.859375 
Q 38.875 34.625 31.78125 34.625 
z
M 21.921875 38.8125 
Q 15.578125 40.375 12.03125 44.71875 
Q 8.5 49.078125 8.5 55.328125 
Q 8.5 64.0625 14.71875 69.140625 
Q 20.953125 74.21875 31.78125 74.21875 
Q 42.671875 74.21875 48.875 69.140625 
Q 55.078125 64.0625 55.078125 55.328125 
Q 55.078125 49.078125 51.53125 44.71875 
Q 48 40.375 41.703125 38.8125 
Q 48.828125 37.15625 52.796875 32.3125 
Q 56.78125 27.484375 56.78125 20.515625 
Q 56.78125 9.90625 50.3125 4.234375 
Q 43.84375 -1.421875 31.78125 -1.421875 
Q 19.734375 -1.421875 13.25 4.234375 
Q 6.78125 9.90625 6.78125 20.515625 
Q 6.78125 27.484375 10.78125 32.3125 
Q 14.796875 37.15625 21.921875 38.8125 
z
M 18.3125 54.390625 
Q 18.3125 48.734375 21.84375 45.5625 
Q 25.390625 42.390625 31.78125 42.390625 
Q 38.140625 42.390625 41.71875 45.5625 
Q 45.3125 48.734375 45.3125 54.390625 
Q 45.3125 60.0625 41.71875 63.234375 
Q 38.140625 66.40625 31.78125 66.40625 
Q 25.390625 66.40625 21.84375 63.234375 
Q 18.3125 60.0625 18.3125 54.390625 
z
" id="DejaVuSans-56"/>
      </defs>
      <g transform="translate(301.689106 254.356562)scale(0.1 -0.1)">
       <use xlink:href="#DejaVuSans-48"/>
       <use x="63.623047" xlink:href="#DejaVuSans-46"/>
       <use x="95.410156" xlink:href="#DejaVuSans-56"/>
      </g>
     </g>
    </g>
    <g id="xtick_6">
     <g id="line2d_6">
      <g>
       <use style="stroke:#000000;stroke-width:0.8;" x="369.914259" xlink:href="#mfcda751041" y="239.758125"/>
      </g>
     </g>
     <g id="text_6">
      <!-- 1.0 -->
      <defs>
       <path d="M 12.40625 8.296875 
L 28.515625 8.296875 
L 28.515625 63.921875 
L 10.984375 60.40625 
L 10.984375 69.390625 
L 28.421875 72.90625 
L 38.28125 72.90625 
L 38.28125 8.296875 
L 54.390625 8.296875 
L 54.390625 0 
L 12.40625 0 
z
" id="DejaVuSans-49"/>
      </defs>
      <g transform="translate(361.962696 254.356562)scale(0.1 -0.1)">
       <use xlink:href="#DejaVuSans-49"/>
       <use x="63.623047" xlink:href="#DejaVuSans-46"/>
       <use x="95.410156" xlink:href="#DejaVuSans-48"/>
      </g>
     </g>
    </g>
    <g id="text_7">
     <!-- Time (ms) -->
     <defs>
      <path d="M -0.296875 72.90625 
L 61.375 72.90625 
L 61.375 64.59375 
L 35.5 64.59375 
L 35.5 0 
L 25.59375 0 
L 25.59375 64.59375 
L -0.296875 64.59375 
z
" id="DejaVuSans-84"/>
      <path d="M 9.421875 54.6875 
L 18.40625 54.6875 
L 18.40625 0 
L 9.421875 0 
z
M 9.421875 75.984375 
L 18.40625 75.984375 
L 18.40625 64.59375 
L 9.421875 64.59375 
z
" id="DejaVuSans-105"/>
      <path d="M 52 44.1875 
Q 55.375 50.25 60.0625 53.125 
Q 64.75 56 71.09375 56 
Q 79.640625 56 84.28125 50.015625 
Q 88.921875 44.046875 88.921875 33.015625 
L 88.921875 0 
L 79.890625 0 
L 79.890625 32.71875 
Q 79.890625 40.578125 77.09375 44.375 
Q 74.3125 48.1875 68.609375 48.1875 
Q 61.625 48.1875 57.5625 43.546875 
Q 53.515625 38.921875 53.515625 30.90625 
L 53.515625 0 
L 44.484375 0 
L 44.484375 32.71875 
Q 44.484375 40.625 41.703125 44.40625 
Q 38.921875 48.1875 33.109375 48.1875 
Q 26.21875 48.1875 22.15625 43.53125 
Q 18.109375 38.875 18.109375 30.90625 
L 18.109375 0 
L 9.078125 0 
L 9.078125 54.6875 
L 18.109375 54.6875 
L 18.109375 46.1875 
Q 21.1875 51.21875 25.484375 53.609375 
Q 29.78125 56 35.6875 56 
Q 41.65625 56 45.828125 52.96875 
Q 50 49.953125 52 44.1875 
z
" id="DejaVuSans-109"/>
      <path d="M 56.203125 29.59375 
L 56.203125 25.203125 
L 14.890625 25.203125 
Q 15.484375 15.921875 20.484375 11.0625 
Q 25.484375 6.203125 34.421875 6.203125 
Q 39.59375 6.203125 44.453125 7.46875 
Q 49.3125 8.734375 54.109375 11.28125 
L 54.109375 2.78125 
Q 49.265625 0.734375 44.1875 -0.34375 
Q 39.109375 -1.421875 33.890625 -1.421875 
Q 20.796875 -1.421875 13.15625 6.1875 
Q 5.515625 13.8125 5.515625 26.8125 
Q 5.515625 40.234375 12.765625 48.109375 
Q 20.015625 56 32.328125 56 
Q 43.359375 56 49.78125 48.890625 
Q 56.203125 41.796875 56.203125 29.59375 
z
M 47.21875 32.234375 
Q 47.125 39.59375 43.09375 43.984375 
Q 39.0625 48.390625 32.421875 48.390625 
Q 24.90625 48.390625 20.390625 44.140625 
Q 15.875 39.890625 15.1875 32.171875 
z
" id="DejaVuSans-101"/>
      <path id="DejaVuSans-32"/>
      <path d="M 31 75.875 
Q 24.46875 64.65625 21.28125 53.65625 
Q 18.109375 42.671875 18.109375 31.390625 
Q 18.109375 20.125 21.3125 9.0625 
Q 24.515625 -2 31 -13.1875 
L 23.1875 -13.1875 
Q 15.875 -1.703125 12.234375 9.375 
Q 8.59375 20.453125 8.59375 31.390625 
Q 8.59375 42.28125 12.203125 53.3125 
Q 15.828125 64.359375 23.1875 75.875 
z
" id="DejaVuSans-40"/>
      <path d="M 44.28125 53.078125 
L 44.28125 44.578125 
Q 40.484375 46.53125 36.375 47.5 
Q 32.28125 48.484375 27.875 48.484375 
Q 21.1875 48.484375 17.84375 46.4375 
Q 14.5 44.390625 14.5 40.28125 
Q 14.5 37.15625 16.890625 35.375 
Q 19.28125 33.59375 26.515625 31.984375 
L 29.59375 31.296875 
Q 39.15625 29.25 43.1875 25.515625 
Q 47.21875 21.78125 47.21875 15.09375 
Q 47.21875 7.46875 41.1875 3.015625 
Q 35.15625 -1.421875 24.609375 -1.421875 
Q 20.21875 -1.421875 15.453125 -0.5625 
Q 10.6875 0.296875 5.421875 2 
L 5.421875 11.28125 
Q 10.40625 8.6875 15.234375 7.390625 
Q 20.0625 6.109375 24.8125 6.109375 
Q 31.15625 6.109375 34.5625 8.28125 
Q 37.984375 10.453125 37.984375 14.40625 
Q 37.984375 18.0625 35.515625 20.015625 
Q 33.0625 21.96875 24.703125 23.78125 
L 21.578125 24.515625 
Q 13.234375 26.265625 9.515625 29.90625 
Q 5.8125 33.546875 5.8125 39.890625 
Q 5.8125 47.609375 11.28125 51.796875 
Q 16.75 56 26.8125 56 
Q 31.78125 56 36.171875 55.265625 
Q 40.578125 54.546875 44.28125 53.078125 
z
" id="DejaVuSans-115"/>
      <path d="M 8.015625 75.875 
L 15.828125 75.875 
Q 23.140625 64.359375 26.78125 53.3125 
Q 30.421875 42.28125 30.421875 31.390625 
Q 30.421875 20.453125 26.78125 9.375 
Q 23.140625 -1.703125 15.828125 -13.1875 
L 8.015625 -13.1875 
Q 14.5 -2 17.703125 9.0625 
Q 20.90625 20.125 20.90625 31.390625 
Q 20.90625 42.671875 17.703125 53.65625 
Q 14.5 64.65625 8.015625 75.875 
z
" id="DejaVuSans-41"/>
     </defs>
     <g transform="translate(195.375 268.034687)scale(0.1 -0.1)">
      <use xlink:href="#DejaVuSans-84"/>
      <use x="61.037109" xlink:href="#DejaVuSans-105"/>
      <use x="88.820312" xlink:href="#DejaVuSans-109"/>
      <use x="186.232422" xlink:href="#DejaVuSans-101"/>
      <use x="247.755859" xlink:href="#DejaVuSans-32"/>
      <use x="279.542969" xlink:href="#DejaVuSans-40"/>
      <use x="318.556641" xlink:href="#DejaVuSans-109"/>
      <use x="415.96875" xlink:href="#DejaVuSans-115"/>
      <use x="468.068359" xlink:href="#DejaVuSans-41"/>
     </g>
    </g>
   </g>
   <g id="matplotlib.axis_2">
    <g id="ytick_1">
     <g id="line2d_7">
      <defs>
       <path d="M 0 0 
L -3.5 0 
" id="m0ae10cbedc" style="stroke:#000000;stroke-width:0.8;"/>
      </defs>
      <g>
       <use style="stroke:#000000;stroke-width:0.8;" x="53.328125" xlink:href="#m0ae10cbedc" y="220.611252"/>
      </g>
     </g>
     <g id="text_8">
      <!-- 1000 -->
      <g transform="translate(20.878125 224.410471)scale(0.1 -0.1)">
       <use xlink:href="#DejaVuSans-49"/>
       <use x="63.623047" xlink:href="#DejaVuSans-48"/>
       <use x="127.246094" xlink:href="#DejaVuSans-48"/>
       <use x="190.869141" xlink:href="#DejaVuSans-48"/>
      </g>
     </g>
    </g>
    <g id="ytick_2">
     <g id="line2d_8">
      <g>
       <use style="stroke:#000000;stroke-width:0.8;" x="53.328125" xlink:href="#m0ae10cbedc" y="192.796616"/>
      </g>
     </g>
     <g id="text_9">
      <!-- 1250 -->
      <defs>
       <path d="M 10.796875 72.90625 
L 49.515625 72.90625 
L 49.515625 64.59375 
L 19.828125 64.59375 
L 19.828125 46.734375 
Q 21.96875 47.46875 24.109375 47.828125 
Q 26.265625 48.1875 28.421875 48.1875 
Q 40.625 48.1875 47.75 41.5 
Q 54.890625 34.8125 54.890625 23.390625 
Q 54.890625 11.625 47.5625 5.09375 
Q 40.234375 -1.421875 26.90625 -1.421875 
Q 22.3125 -1.421875 17.546875 -0.640625 
Q 12.796875 0.140625 7.71875 1.703125 
L 7.71875 11.625 
Q 12.109375 9.234375 16.796875 8.0625 
Q 21.484375 6.890625 26.703125 6.890625 
Q 35.15625 6.890625 40.078125 11.328125 
Q 45.015625 15.765625 45.015625 23.390625 
Q 45.015625 31 40.078125 35.4375 
Q 35.15625 39.890625 26.703125 39.890625 
Q 22.75 39.890625 18.8125 39.015625 
Q 14.890625 38.140625 10.796875 36.28125 
z
" id="DejaVuSans-53"/>
      </defs>
      <g transform="translate(20.878125 196.595834)scale(0.1 -0.1)">
       <use xlink:href="#DejaVuSans-49"/>
       <use x="63.623047" xlink:href="#DejaVuSans-50"/>
       <use x="127.246094" xlink:href="#DejaVuSans-53"/>
       <use x="190.869141" xlink:href="#DejaVuSans-48"/>
      </g>
     </g>
    </g>
    <g id="ytick_3">
     <g id="line2d_9">
      <g>
       <use style="stroke:#000000;stroke-width:0.8;" x="53.328125" xlink:href="#m0ae10cbedc" y="164.981979"/>
      </g>
     </g>
     <g id="text_10">
      <!-- 1500 -->
      <g transform="translate(20.878125 168.781198)scale(0.1 -0.1)">
       <use xlink:href="#DejaVuSans-49"/>
       <use x="63.623047" xlink:href="#DejaVuSans-53"/>
       <use x="127.246094" xlink:href="#DejaVuSans-48"/>
       <use x="190.869141" xlink:href="#DejaVuSans-48"/>
      </g>
     </g>
    </g>
    <g id="ytick_4">
     <g id="line2d_10">
      <g>
       <use style="stroke:#000000;stroke-width:0.8;" x="53.328125" xlink:href="#m0ae10cbedc" y="137.167343"/>
      </g>
     </g>
     <g id="text_11">
      <!-- 1750 -->
      <defs>
       <path d="M 8.203125 72.90625 
L 55.078125 72.90625 
L 55.078125 68.703125 
L 28.609375 0 
L 18.3125 0 
L 43.21875 64.59375 
L 8.203125 64.59375 
z
" id="DejaVuSans-55"/>
      </defs>
      <g transform="translate(20.878125 140.966562)scale(0.1 -0.1)">
       <use xlink:href="#DejaVuSans-49"/>
       <use x="63.623047" xlink:href="#DejaVuSans-55"/>
       <use x="127.246094" xlink:href="#DejaVuSans-53"/>
       <use x="190.869141" xlink:href="#DejaVuSans-48"/>
      </g>
     </g>
    </g>
    <g id="ytick_5">
     <g id="line2d_11">
      <g>
       <use style="stroke:#000000;stroke-width:0.8;" x="53.328125" xlink:href="#m0ae10cbedc" y="109.352707"/>
      </g>
     </g>
     <g id="text_12">
      <!-- 2000 -->
      <g transform="translate(20.878125 113.151925)scale(0.1 -0.1)">
       <use xlink:href="#DejaVuSans-50"/>
       <use x="63.623047" xlink:href="#DejaVuSans-48"/>
       <use x="127.246094" xlink:href="#DejaVuSans-48"/>
       <use x="190.869141" xlink:href="#DejaVuSans-48"/>
      </g>
     </g>
    </g>
    <g id="ytick_6">
     <g id="line2d_12">
      <g>
       <use style="stroke:#000000;stroke-width:0.8;" x="53.328125" xlink:href="#m0ae10cbedc" y="81.53807"/>
      </g>
     </g>
     <g id="text_13">
      <!-- 2250 -->
      <g transform="translate(20.878125 85.337289)scale(0.1 -0.1)">
       <use xlink:href="#DejaVuSans-50"/>
       <use x="63.623047" xlink:href="#DejaVuSans-50"/>
       <use x="127.246094" xlink:href="#DejaVuSans-53"/>
       <use x="190.869141" xlink:href="#DejaVuSans-48"/>
      </g>
     </g>
    </g>
    <g id="ytick_7">
     <g id="line2d_13">
      <g>
       <use style="stroke:#000000;stroke-width:0.8;" x="53.328125" xlink:href="#m0ae10cbedc" y="53.723434"/>
      </g>
     </g>
     <g id="text_14">
      <!-- 2500 -->
      <g transform="translate(20.878125 57.522653)scale(0.1 -0.1)">
       <use xlink:href="#DejaVuSans-50"/>
       <use x="63.623047" xlink:href="#DejaVuSans-53"/>
       <use x="127.246094" xlink:href="#DejaVuSans-48"/>
       <use x="190.869141" xlink:href="#DejaVuSans-48"/>
      </g>
     </g>
    </g>
    <g id="ytick_8">
     <g id="line2d_14">
      <g>
       <use style="stroke:#000000;stroke-width:0.8;" x="53.328125" xlink:href="#m0ae10cbedc" y="25.908798"/>
      </g>
     </g>
     <g id="text_15">
      <!-- 2750 -->
      <g transform="translate(20.878125 29.708017)scale(0.1 -0.1)">
       <use xlink:href="#DejaVuSans-50"/>
       <use x="63.623047" xlink:href="#DejaVuSans-55"/>
       <use x="127.246094" xlink:href="#DejaVuSans-53"/>
       <use x="190.869141" xlink:href="#DejaVuSans-48"/>
      </g>
     </g>
    </g>
    <g id="text_16">
     <!-- ppmH2O -->
     <defs>
      <path d="M 18.109375 8.203125 
L 18.109375 -20.796875 
L 9.078125 -20.796875 
L 9.078125 54.6875 
L 18.109375 54.6875 
L 18.109375 46.390625 
Q 20.953125 51.265625 25.265625 53.625 
Q 29.59375 56 35.59375 56 
Q 45.5625 56 51.78125 48.09375 
Q 58.015625 40.1875 58.015625 27.296875 
Q 58.015625 14.40625 51.78125 6.484375 
Q 45.5625 -1.421875 35.59375 -1.421875 
Q 29.59375 -1.421875 25.265625 0.953125 
Q 20.953125 3.328125 18.109375 8.203125 
z
M 48.6875 27.296875 
Q 48.6875 37.203125 44.609375 42.84375 
Q 40.53125 48.484375 33.40625 48.484375 
Q 26.265625 48.484375 22.1875 42.84375 
Q 18.109375 37.203125 18.109375 27.296875 
Q 18.109375 17.390625 22.1875 11.75 
Q 26.265625 6.109375 33.40625 6.109375 
Q 40.53125 6.109375 44.609375 11.75 
Q 48.6875 17.390625 48.6875 27.296875 
z
" id="DejaVuSans-112"/>
      <path d="M 9.8125 72.90625 
L 19.671875 72.90625 
L 19.671875 43.015625 
L 55.515625 43.015625 
L 55.515625 72.90625 
L 65.375 72.90625 
L 65.375 0 
L 55.515625 0 
L 55.515625 34.71875 
L 19.671875 34.71875 
L 19.671875 0 
L 9.8125 0 
z
" id="DejaVuSans-72"/>
      <path d="M 39.40625 66.21875 
Q 28.65625 66.21875 22.328125 58.203125 
Q 16.015625 50.203125 16.015625 36.375 
Q 16.015625 22.609375 22.328125 14.59375 
Q 28.65625 6.59375 39.40625 6.59375 
Q 50.140625 6.59375 56.421875 14.59375 
Q 62.703125 22.609375 62.703125 36.375 
Q 62.703125 50.203125 56.421875 58.203125 
Q 50.140625 66.21875 39.40625 66.21875 
z
M 39.40625 74.21875 
Q 54.734375 74.21875 63.90625 63.9375 
Q 73.09375 53.65625 73.09375 36.375 
Q 73.09375 19.140625 63.90625 8.859375 
Q 54.734375 -1.421875 39.40625 -1.421875 
Q 24.03125 -1.421875 14.8125 8.828125 
Q 5.609375 19.09375 5.609375 36.375 
Q 5.609375 53.65625 14.8125 63.9375 
Q 24.03125 74.21875 39.40625 74.21875 
z
" id="DejaVuSans-79"/>
     </defs>
     <g transform="translate(14.798438 153.134219)rotate(-90)scale(0.1 -0.1)">
      <use xlink:href="#DejaVuSans-112"/>
      <use x="63.476562" xlink:href="#DejaVuSans-112"/>
      <use x="126.953125" xlink:href="#DejaVuSans-109"/>
      <use x="224.365234" xlink:href="#DejaVuSans-72"/>
      <use x="299.560547" xlink:href="#DejaVuSans-50"/>
      <use x="363.183594" xlink:href="#DejaVuSans-79"/>
     </g>
    </g>
   </g>
   <g id="line2d_15">
    <path clip-path="url(#p1472321991)" d="M 68.546307 207.416271 
L 69.317318 207.3143 
L 70.294125 206.953309 
L 71.597566 206.206185 
L 73.432947 204.861679 
L 76.615767 202.195775 
L 92.619109 188.48497 
L 102.461359 180.430838 
L 111.6667 173.164286 
L 121.196239 165.92903 
L 129.772825 159.677354 
L 138.386105 153.650523 
L 146.999384 147.87468 
L 155.612664 142.34559 
L 164.225943 137.057075 
L 172.839223 132.001821 
L 182.19012 126.768487 
L 190.882777 122.132521 
L 199.575434 117.708431 
L 208.268091 113.48774 
L 219.047856 108.523671 
L 228.995397 104.195549 
L 239.782491 99.762186 
L 251.277937 95.319615 
L 262.773382 91.151444 
L 273.431642 87.517964 
L 285.410157 83.684271 
L 297.388672 80.099164 
L 308.177425 77.069987 
L 318.966178 74.218985 
L 329.754931 71.535902 
L 345.938061 67.804993 
L 362.12119 64.399468 
L 372.909943 62.295856 
L 372.909943 62.295856 
" style="fill:none;stroke:#0000ff;stroke-linecap:square;stroke-width:1.5;"/>
   </g>
   <g id="line2d_16">
    <path clip-path="url(#p1472321991)" d="M 68.546307 207.416271 
L 69.406761 207.312109 
L 70.452313 206.944961 
L 71.622064 206.291792 
L 73.084252 205.209213 
L 74.843005 203.635974 
L 77.499708 200.926626 
L 82.37033 195.554103 
L 91.596188 185.397916 
L 98.485503 178.150444 
L 105.889348 170.693155 
L 112.885327 163.950859 
L 119.881306 157.497554 
L 126.498275 151.654513 
L 133.513565 145.729844 
L 140.528856 140.07517 
L 147.544146 134.681466 
L 154.559437 129.539191 
L 161.574728 124.638574 
L 169.316573 119.499144 
L 177.075551 114.618573 
L 185.09615 109.844178 
L 193.11675 105.331401 
L 201.137349 101.066946 
L 209.157949 97.038016 
L 217.178548 93.232324 
L 225.199147 89.638101 
L 233.967709 85.937405 
L 242.28966 82.633787 
L 251.902841 79.055306 
L 261.516023 75.715826 
L 272.420586 72.197305 
L 283.325149 68.944816 
L 294.229712 65.938436 
L 305.134276 63.159639 
L 316.038839 60.591214 
L 329.730069 57.639887 
L 342.479339 55.141706 
L 353.636757 53.136039 
L 366.080165 51.081193 
L 370.227968 50.43609 
L 370.227968 50.43609 
" style="fill:none;stroke:#ff0000;stroke-linecap:square;stroke-width:1.5;"/>
   </g>
   <g id="line2d_17">
    <defs>
     <path d="M 0 3 
C 0.795609 3 1.55874 2.683901 2.12132 2.12132 
C 2.683901 1.55874 3 0.795609 3 0 
C 3 -0.795609 2.683901 -1.55874 2.12132 -2.12132 
C 1.55874 -2.683901 0.795609 -3 0 -3 
C -0.795609 -3 -1.55874 -2.683901 -2.12132 -2.12132 
C -2.683901 -1.55874 -3 -0.795609 -3 0 
C -3 0.795609 -2.683901 1.55874 -2.12132 2.12132 
C -1.55874 2.683901 -0.795609 3 0 3 
z
" id="m5709f131d3" style="stroke:#000000;"/>
    </defs>
    <g clip-path="url(#p1472321991)">
     <use style="stroke:#000000;" x="68.546307" xlink:href="#m5709f131d3" y="208.035699"/>
     <use style="stroke:#000000;" x="68.54632" xlink:href="#m5709f131d3" y="208.035699"/>
     <use style="stroke:#000000;" x="68.546369" xlink:href="#m5709f131d3" y="208.035699"/>
     <use style="stroke:#000000;" x="68.546418" xlink:href="#m5709f131d3" y="208.035699"/>
     <use style="stroke:#000000;" x="68.546467" xlink:href="#m5709f131d3" y="208.035699"/>
     <use style="stroke:#000000;" x="68.546542" xlink:href="#m5709f131d3" y="208.035699"/>
     <use style="stroke:#000000;" x="68.546665" xlink:href="#m5709f131d3" y="208.035699"/>
     <use style="stroke:#000000;" x="68.546876" xlink:href="#m5709f131d3" y="208.035699"/>
     <use style="stroke:#000000;" x="68.547244" xlink:href="#m5709f131d3" y="208.035699"/>
     <use style="stroke:#000000;" x="68.547901" xlink:href="#m5709f131d3" y="208.035699"/>
     <use style="stroke:#000000;" x="68.549531" xlink:href="#m5709f131d3" y="208.035699"/>
     <use style="stroke:#000000;" x="68.551159" xlink:href="#m5709f131d3" y="208.035699"/>
     <use style="stroke:#000000;" x="68.552786" xlink:href="#m5709f131d3" y="208.035699"/>
     <use style="stroke:#000000;" x="68.554414" xlink:href="#m5709f131d3" y="208.035699"/>
     <use style="stroke:#000000;" x="68.556041" xlink:href="#m5709f131d3" y="208.035699"/>
     <use style="stroke:#000000;" x="68.55794" xlink:href="#m5709f131d3" y="208.035699"/>
     <use style="stroke:#000000;" x="68.559868" xlink:href="#m5709f131d3" y="208.035699"/>
     <use style="stroke:#000000;" x="68.561767" xlink:href="#m5709f131d3" y="208.035699"/>
     <use style="stroke:#000000;" x="68.56469" xlink:href="#m5709f131d3" y="208.035699"/>
     <use style="stroke:#000000;" x="68.567614" xlink:href="#m5709f131d3" y="208.035699"/>
     <use style="stroke:#000000;" x="68.570537" xlink:href="#m5709f131d3" y="208.035699"/>
     <use style="stroke:#000000;" x="68.575178" xlink:href="#m5709f131d3" y="208.035699"/>
     <use style="stroke:#000000;" x="68.582471" xlink:href="#m5709f131d3" y="208.035699"/>
     <use style="stroke:#000000;" x="68.589704" xlink:href="#m5709f131d3" y="208.035699"/>
     <use style="stroke:#000000;" x="68.596937" xlink:href="#m5709f131d3" y="208.035699"/>
     <use style="stroke:#000000;" x="68.610498" xlink:href="#m5709f131d3" y="208.034586"/>
     <use style="stroke:#000000;" x="68.624361" xlink:href="#m5709f131d3" y="208.034586"/>
     <use style="stroke:#000000;" x="68.638224" xlink:href="#m5709f131d3" y="208.033473"/>
     <use style="stroke:#000000;" x="68.652087" xlink:href="#m5709f131d3" y="208.033473"/>
     <use style="stroke:#000000;" x="68.66595" xlink:href="#m5709f131d3" y="208.032361"/>
     <use style="stroke:#000000;" x="68.686744" xlink:href="#m5709f131d3" y="208.031248"/>
     <use style="stroke:#000000;" x="68.707539" xlink:href="#m5709f131d3" y="208.030136"/>
     <use style="stroke:#000000;" x="68.728634" xlink:href="#m5709f131d3" y="208.02791"/>
     <use style="stroke:#000000;" x="68.749429" xlink:href="#m5709f131d3" y="208.026798"/>
     <use style="stroke:#000000;" x="68.770223" xlink:href="#m5709f131d3" y="208.024573"/>
     <use style="stroke:#000000;" x="68.803072" xlink:href="#m5709f131d3" y="208.021235"/>
     <use style="stroke:#000000;" x="68.853702" xlink:href="#m5709f131d3" y="208.014559"/>
     <use style="stroke:#000000;" x="68.886853" xlink:href="#m5709f131d3" y="208.010109"/>
     <use style="stroke:#000000;" x="68.920003" xlink:href="#m5709f131d3" y="208.004546"/>
     <use style="stroke:#000000;" x="68.95014" xlink:href="#m5709f131d3" y="207.998983"/>
     <use style="stroke:#000000;" x="68.98329" xlink:href="#m5709f131d3" y="207.99342"/>
     <use style="stroke:#000000;" x="69.016441" xlink:href="#m5709f131d3" y="207.986745"/>
     <use style="stroke:#000000;" x="69.046578" xlink:href="#m5709f131d3" y="207.980069"/>
     <use style="stroke:#000000;" x="69.079728" xlink:href="#m5709f131d3" y="207.973394"/>
     <use style="stroke:#000000;" x="69.140002" xlink:href="#m5709f131d3" y="207.95893"/>
     <use style="stroke:#000000;" x="69.200275" xlink:href="#m5709f131d3" y="207.944467"/>
     <use style="stroke:#000000;" x="69.257535" xlink:href="#m5709f131d3" y="207.927778"/>
     <use style="stroke:#000000;" x="69.317809" xlink:href="#m5709f131d3" y="207.909976"/>
     <use style="stroke:#000000;" x="69.378082" xlink:href="#m5709f131d3" y="207.891062"/>
     <use style="stroke:#000000;" x="69.435342" xlink:href="#m5709f131d3" y="207.871036"/>
     <use style="stroke:#000000;" x="69.495616" xlink:href="#m5709f131d3" y="207.849897"/>
     <use style="stroke:#000000;" x="69.586026" xlink:href="#m5709f131d3" y="207.816519"/>
     <use style="stroke:#000000;" x="69.676437" xlink:href="#m5709f131d3" y="207.779804"/>
     <use style="stroke:#000000;" x="69.766847" xlink:href="#m5709f131d3" y="207.741976"/>
     <use style="stroke:#000000;" x="69.854244" xlink:href="#m5709f131d3" y="207.70081"/>
     <use style="stroke:#000000;" x="69.944654" xlink:href="#m5709f131d3" y="207.658532"/>
     <use style="stroke:#000000;" x="70.035065" xlink:href="#m5709f131d3" y="207.614029"/>
     <use style="stroke:#000000;" x="70.125475" xlink:href="#m5709f131d3" y="207.5673"/>
     <use style="stroke:#000000;" x="70.215885" xlink:href="#m5709f131d3" y="207.519459"/>
     <use style="stroke:#000000;" x="70.303282" xlink:href="#m5709f131d3" y="207.469393"/>
     <use style="stroke:#000000;" x="70.393692" xlink:href="#m5709f131d3" y="207.418214"/>
     <use style="stroke:#000000;" x="70.484103" xlink:href="#m5709f131d3" y="207.36481"/>
     <use style="stroke:#000000;" x="70.574513" xlink:href="#m5709f131d3" y="207.310293"/>
     <use style="stroke:#000000;" x="70.664924" xlink:href="#m5709f131d3" y="207.254664"/>
     <use style="stroke:#000000;" x="70.755334" xlink:href="#m5709f131d3" y="207.197922"/>
     <use style="stroke:#000000;" x="70.842731" xlink:href="#m5709f131d3" y="207.138955"/>
     <use style="stroke:#000000;" x="70.933141" xlink:href="#m5709f131d3" y="207.078875"/>
     <use style="stroke:#000000;" x="71.023551" xlink:href="#m5709f131d3" y="207.017683"/>
     <use style="stroke:#000000;" x="71.113962" xlink:href="#m5709f131d3" y="206.955378"/>
     <use style="stroke:#000000;" x="71.204372" xlink:href="#m5709f131d3" y="206.893073"/>
     <use style="stroke:#000000;" x="71.291769" xlink:href="#m5709f131d3" y="206.828543"/>
     <use style="stroke:#000000;" x="71.382179" xlink:href="#m5709f131d3" y="206.762901"/>
     <use style="stroke:#000000;" x="71.47259" xlink:href="#m5709f131d3" y="206.697258"/>
     <use style="stroke:#000000;" x="71.559986" xlink:href="#m5709f131d3" y="206.629391"/>
     <use style="stroke:#000000;" x="71.650397" xlink:href="#m5709f131d3" y="206.561523"/>
     <use style="stroke:#000000;" x="71.740807" xlink:href="#m5709f131d3" y="206.492543"/>
     <use style="stroke:#000000;" x="71.831217" xlink:href="#m5709f131d3" y="206.423562"/>
     <use style="stroke:#000000;" x="71.921628" xlink:href="#m5709f131d3" y="206.353469"/>
     <use style="stroke:#000000;" x="72.012038" xlink:href="#m5709f131d3" y="206.282264"/>
     <use style="stroke:#000000;" x="72.102449" xlink:href="#m5709f131d3" y="206.209946"/>
     <use style="stroke:#000000;" x="72.192859" xlink:href="#m5709f131d3" y="206.137628"/>
     <use style="stroke:#000000;" x="72.283269" xlink:href="#m5709f131d3" y="206.06531"/>
     <use style="stroke:#000000;" x="72.37368" xlink:href="#m5709f131d3" y="205.991879"/>
     <use style="stroke:#000000;" x="72.46409" xlink:href="#m5709f131d3" y="205.917336"/>
     <use style="stroke:#000000;" x="72.554501" xlink:href="#m5709f131d3" y="205.842793"/>
     <use style="stroke:#000000;" x="72.644911" xlink:href="#m5709f131d3" y="205.768249"/>
     <use style="stroke:#000000;" x="72.735321" xlink:href="#m5709f131d3" y="205.692594"/>
     <use style="stroke:#000000;" x="72.825732" xlink:href="#m5709f131d3" y="205.615825"/>
     <use style="stroke:#000000;" x="72.916142" xlink:href="#m5709f131d3" y="205.539057"/>
     <use style="stroke:#000000;" x="73.006553" xlink:href="#m5709f131d3" y="205.462288"/>
     <use style="stroke:#000000;" x="73.096963" xlink:href="#m5709f131d3" y="205.38552"/>
     <use style="stroke:#000000;" x="73.187373" xlink:href="#m5709f131d3" y="205.307639"/>
     <use style="stroke:#000000;" x="73.277784" xlink:href="#m5709f131d3" y="205.229758"/>
     <use style="stroke:#000000;" x="73.368194" xlink:href="#m5709f131d3" y="205.150764"/>
     <use style="stroke:#000000;" x="73.458604" xlink:href="#m5709f131d3" y="205.071771"/>
     <use style="stroke:#000000;" x="73.549015" xlink:href="#m5709f131d3" y="204.992777"/>
     <use style="stroke:#000000;" x="73.639425" xlink:href="#m5709f131d3" y="204.913784"/>
     <use style="stroke:#000000;" x="73.729836" xlink:href="#m5709f131d3" y="204.833678"/>
     <use style="stroke:#000000;" x="73.820246" xlink:href="#m5709f131d3" y="204.754684"/>
     <use style="stroke:#000000;" x="73.910656" xlink:href="#m5709f131d3" y="204.674578"/>
     <use style="stroke:#000000;" x="74.031204" xlink:href="#m5709f131d3" y="204.553306"/>
     <use style="stroke:#000000;" x="74.181888" xlink:href="#m5709f131d3" y="204.432034"/>
     <use style="stroke:#000000;" x="74.302435" xlink:href="#m5709f131d3" y="204.310762"/>
     <use style="stroke:#000000;" x="74.453119" xlink:href="#m5709f131d3" y="204.188378"/>
     <use style="stroke:#000000;" x="74.573666" xlink:href="#m5709f131d3" y="204.065994"/>
     <use style="stroke:#000000;" x="74.72435" xlink:href="#m5709f131d3" y="203.942497"/>
     <use style="stroke:#000000;" x="74.844897" xlink:href="#m5709f131d3" y="203.820112"/>
     <use style="stroke:#000000;" x="74.965444" xlink:href="#m5709f131d3" y="203.696615"/>
     <use style="stroke:#000000;" x="75.116128" xlink:href="#m5709f131d3" y="203.573118"/>
     <use style="stroke:#000000;" x="75.236675" xlink:href="#m5709f131d3" y="203.448509"/>
     <use style="stroke:#000000;" x="75.387359" xlink:href="#m5709f131d3" y="203.325012"/>
     <use style="stroke:#000000;" x="75.507907" xlink:href="#m5709f131d3" y="203.200402"/>
     <use style="stroke:#000000;" x="75.65859" xlink:href="#m5709f131d3" y="203.075793"/>
     <use style="stroke:#000000;" x="75.779138" xlink:href="#m5709f131d3" y="202.951183"/>
     <use style="stroke:#000000;" x="75.929822" xlink:href="#m5709f131d3" y="202.826573"/>
     <use style="stroke:#000000;" x="76.050369" xlink:href="#m5709f131d3" y="202.701964"/>
     <use style="stroke:#000000;" x="76.201053" xlink:href="#m5709f131d3" y="202.577354"/>
     <use style="stroke:#000000;" x="76.3216" xlink:href="#m5709f131d3" y="202.452745"/>
     <use style="stroke:#000000;" x="76.472284" xlink:href="#m5709f131d3" y="202.327023"/>
     <use style="stroke:#000000;" x="76.592831" xlink:href="#m5709f131d3" y="202.202413"/>
     <use style="stroke:#000000;" x="76.743515" xlink:href="#m5709f131d3" y="202.077803"/>
     <use style="stroke:#000000;" x="76.864062" xlink:href="#m5709f131d3" y="201.952081"/>
     <use style="stroke:#000000;" x="77.014746" xlink:href="#m5709f131d3" y="201.827472"/>
     <use style="stroke:#000000;" x="77.135293" xlink:href="#m5709f131d3" y="201.702862"/>
     <use style="stroke:#000000;" x="77.285977" xlink:href="#m5709f131d3" y="201.57714"/>
     <use style="stroke:#000000;" x="77.406525" xlink:href="#m5709f131d3" y="201.45253"/>
     <use style="stroke:#000000;" x="77.557209" xlink:href="#m5709f131d3" y="201.326808"/>
     <use style="stroke:#000000;" x="77.677756" xlink:href="#m5709f131d3" y="201.202199"/>
     <use style="stroke:#000000;" x="77.82844" xlink:href="#m5709f131d3" y="201.077589"/>
     <use style="stroke:#000000;" x="77.948987" xlink:href="#m5709f131d3" y="200.95298"/>
     <use style="stroke:#000000;" x="78.099671" xlink:href="#m5709f131d3" y="200.82837"/>
     <use style="stroke:#000000;" x="78.220218" xlink:href="#m5709f131d3" y="200.702648"/>
     <use style="stroke:#000000;" x="78.370902" xlink:href="#m5709f131d3" y="200.578038"/>
     <use style="stroke:#000000;" x="78.491449" xlink:href="#m5709f131d3" y="200.453429"/>
     <use style="stroke:#000000;" x="78.611996" xlink:href="#m5709f131d3" y="200.328819"/>
     <use style="stroke:#000000;" x="78.76268" xlink:href="#m5709f131d3" y="200.205322"/>
     <use style="stroke:#000000;" x="78.883228" xlink:href="#m5709f131d3" y="200.080713"/>
     <use style="stroke:#000000;" x="79.033912" xlink:href="#m5709f131d3" y="199.956103"/>
     <use style="stroke:#000000;" x="79.244869" xlink:href="#m5709f131d3" y="199.770301"/>
     <use style="stroke:#000000;" x="79.42569" xlink:href="#m5709f131d3" y="199.583387"/>
     <use style="stroke:#000000;" x="79.636647" xlink:href="#m5709f131d3" y="199.397585"/>
     <use style="stroke:#000000;" x="79.847605" xlink:href="#m5709f131d3" y="199.211783"/>
     <use style="stroke:#000000;" x="80.058563" xlink:href="#m5709f131d3" y="199.027094"/>
     <use style="stroke:#000000;" x="80.239383" xlink:href="#m5709f131d3" y="198.841292"/>
     <use style="stroke:#000000;" x="80.450341" xlink:href="#m5709f131d3" y="198.656603"/>
     <use style="stroke:#000000;" x="80.661298" xlink:href="#m5709f131d3" y="198.471914"/>
     <use style="stroke:#000000;" x="80.842119" xlink:href="#m5709f131d3" y="198.287225"/>
     <use style="stroke:#000000;" x="81.053077" xlink:href="#m5709f131d3" y="198.102536"/>
     <use style="stroke:#000000;" x="81.264034" xlink:href="#m5709f131d3" y="197.918959"/>
     <use style="stroke:#000000;" x="81.474992" xlink:href="#m5709f131d3" y="197.735382"/>
     <use style="stroke:#000000;" x="81.655813" xlink:href="#m5709f131d3" y="197.551806"/>
     <use style="stroke:#000000;" x="81.86677" xlink:href="#m5709f131d3" y="197.368229"/>
     <use style="stroke:#000000;" x="82.077728" xlink:href="#m5709f131d3" y="197.185765"/>
     <use style="stroke:#000000;" x="82.288685" xlink:href="#m5709f131d3" y="197.003301"/>
     <use style="stroke:#000000;" x="82.469506" xlink:href="#m5709f131d3" y="196.820837"/>
     <use style="stroke:#000000;" x="82.680464" xlink:href="#m5709f131d3" y="196.638373"/>
     <use style="stroke:#000000;" x="82.891421" xlink:href="#m5709f131d3" y="196.457022"/>
     <use style="stroke:#000000;" x="83.072242" xlink:href="#m5709f131d3" y="196.27567"/>
     <use style="stroke:#000000;" x="83.2832" xlink:href="#m5709f131d3" y="196.094319"/>
     <use style="stroke:#000000;" x="83.494157" xlink:href="#m5709f131d3" y="195.912967"/>
     <use style="stroke:#000000;" x="83.705115" xlink:href="#m5709f131d3" y="195.732729"/>
     <use style="stroke:#000000;" x="83.885936" xlink:href="#m5709f131d3" y="195.55249"/>
     <use style="stroke:#000000;" x="84.096893" xlink:href="#m5709f131d3" y="195.372251"/>
     <use style="stroke:#000000;" x="84.307851" xlink:href="#m5709f131d3" y="195.192012"/>
     <use style="stroke:#000000;" x="84.518808" xlink:href="#m5709f131d3" y="195.012886"/>
     <use style="stroke:#000000;" x="84.820176" xlink:href="#m5709f131d3" y="194.740302"/>
     <use style="stroke:#000000;" x="85.121544" xlink:href="#m5709f131d3" y="194.468832"/>
     <use style="stroke:#000000;" x="85.422912" xlink:href="#m5709f131d3" y="194.197361"/>
     <use style="stroke:#000000;" x="85.72428" xlink:href="#m5709f131d3" y="193.927002"/>
     <use style="stroke:#000000;" x="86.055785" xlink:href="#m5709f131d3" y="193.657757"/>
     <use style="stroke:#000000;" x="86.357153" xlink:href="#m5709f131d3" y="193.388511"/>
     <use style="stroke:#000000;" x="86.658521" xlink:href="#m5709f131d3" y="193.119265"/>
     <use style="stroke:#000000;" x="86.959889" xlink:href="#m5709f131d3" y="192.852245"/>
     <use style="stroke:#000000;" x="87.291393" xlink:href="#m5709f131d3" y="192.584112"/>
     <use style="stroke:#000000;" x="87.592761" xlink:href="#m5709f131d3" y="192.318204"/>
     <use style="stroke:#000000;" x="87.894129" xlink:href="#m5709f131d3" y="192.051183"/>
     <use style="stroke:#000000;" x="88.195497" xlink:href="#m5709f131d3" y="191.786388"/>
     <use style="stroke:#000000;" x="88.496865" xlink:href="#m5709f131d3" y="191.521593"/>
     <use style="stroke:#000000;" x="88.82837" xlink:href="#m5709f131d3" y="191.256797"/>
     <use style="stroke:#000000;" x="89.129738" xlink:href="#m5709f131d3" y="190.993115"/>
     <use style="stroke:#000000;" x="89.431106" xlink:href="#m5709f131d3" y="190.730544"/>
     <use style="stroke:#000000;" x="89.732474" xlink:href="#m5709f131d3" y="190.467974"/>
     <use style="stroke:#000000;" x="90.214663" xlink:href="#m5709f131d3" y="190.070781"/>
     <use style="stroke:#000000;" x="90.666715" xlink:href="#m5709f131d3" y="189.675813"/>
     <use style="stroke:#000000;" x="91.148903" xlink:href="#m5709f131d3" y="189.281958"/>
     <use style="stroke:#000000;" x="91.600955" xlink:href="#m5709f131d3" y="188.889216"/>
     <use style="stroke:#000000;" x="92.083144" xlink:href="#m5709f131d3" y="188.497585"/>
     <use style="stroke:#000000;" x="92.535196" xlink:href="#m5709f131d3" y="188.107068"/>
     <use style="stroke:#000000;" x="93.017385" xlink:href="#m5709f131d3" y="187.718776"/>
     <use style="stroke:#000000;" x="93.469436" xlink:href="#m5709f131d3" y="187.330483"/>
     <use style="stroke:#000000;" x="93.951625" xlink:href="#m5709f131d3" y="186.944416"/>
     <use style="stroke:#000000;" x="94.403677" xlink:href="#m5709f131d3" y="186.559462"/>
     <use style="stroke:#000000;" x="95.12696" xlink:href="#m5709f131d3" y="185.975354"/>
     <use style="stroke:#000000;" x="95.850243" xlink:href="#m5709f131d3" y="185.394585"/>
     <use style="stroke:#000000;" x="96.54339" xlink:href="#m5709f131d3" y="184.81604"/>
     <use style="stroke:#000000;" x="97.266673" xlink:href="#m5709f131d3" y="184.240833"/>
     <use style="stroke:#000000;" x="97.959819" xlink:href="#m5709f131d3" y="183.667852"/>
     <use style="stroke:#000000;" x="98.683102" xlink:href="#m5709f131d3" y="183.098208"/>
     <use style="stroke:#000000;" x="99.285838" xlink:href="#m5709f131d3" y="182.53079"/>
     <use style="stroke:#000000;" x="100.189942" xlink:href="#m5709f131d3" y="181.965596"/>
     <use style="stroke:#000000;" x="100.792678" xlink:href="#m5709f131d3" y="181.403741"/>
     <use style="stroke:#000000;" x="101.395414" xlink:href="#m5709f131d3" y="180.84411"/>
     <use style="stroke:#000000;" x="102.299517" xlink:href="#m5709f131d3" y="180.287817"/>
     <use style="stroke:#000000;" x="102.902253" xlink:href="#m5709f131d3" y="179.732637"/>
     <use style="stroke:#000000;" x="103.806357" xlink:href="#m5709f131d3" y="179.180795"/>
     <use style="stroke:#000000;" x="104.409093" xlink:href="#m5709f131d3" y="178.631178"/>
     <use style="stroke:#000000;" x="105.011829" xlink:href="#m5709f131d3" y="178.083786"/>
     <use style="stroke:#000000;" x="105.915933" xlink:href="#m5709f131d3" y="177.539731"/>
     <use style="stroke:#000000;" x="106.518669" xlink:href="#m5709f131d3" y="176.99679"/>
     <use style="stroke:#000000;" x="107.121405" xlink:href="#m5709f131d3" y="176.457186"/>
     <use style="stroke:#000000;" x="108.025509" xlink:href="#m5709f131d3" y="175.919807"/>
     <use style="stroke:#000000;" x="108.628244" xlink:href="#m5709f131d3" y="175.384653"/>
     <use style="stroke:#000000;" x="109.23098" xlink:href="#m5709f131d3" y="174.851725"/>
     <use style="stroke:#000000;" x="110.135084" xlink:href="#m5709f131d3" y="174.321022"/>
     <use style="stroke:#000000;" x="110.73782" xlink:href="#m5709f131d3" y="173.792544"/>
     <use style="stroke:#000000;" x="111.340556" xlink:href="#m5709f131d3" y="173.266291"/>
     <use style="stroke:#000000;" x="112.24466" xlink:href="#m5709f131d3" y="172.742263"/>
     <use style="stroke:#000000;" x="112.847396" xlink:href="#m5709f131d3" y="172.22046"/>
     <use style="stroke:#000000;" x="113.7515" xlink:href="#m5709f131d3" y="171.700883"/>
     <use style="stroke:#000000;" x="114.354236" xlink:href="#m5709f131d3" y="171.183531"/>
     <use style="stroke:#000000;" x="114.956971" xlink:href="#m5709f131d3" y="170.667291"/>
     <use style="stroke:#000000;" x="115.861075" xlink:href="#m5709f131d3" y="170.154389"/>
     <use style="stroke:#000000;" x="116.765179" xlink:href="#m5709f131d3" y="169.363341"/>
     <use style="stroke:#000000;" x="117.970651" xlink:href="#m5709f131d3" y="168.576743"/>
     <use style="stroke:#000000;" x="119.176123" xlink:href="#m5709f131d3" y="167.794595"/>
     <use style="stroke:#000000;" x="120.080227" xlink:href="#m5709f131d3" y="167.018011"/>
     <use style="stroke:#000000;" x="121.285698" xlink:href="#m5709f131d3" y="166.245876"/>
     <use style="stroke:#000000;" x="122.49117" xlink:href="#m5709f131d3" y="165.479305"/>
     <use style="stroke:#000000;" x="123.395274" xlink:href="#m5709f131d3" y="164.717184"/>
     <use style="stroke:#000000;" x="124.600746" xlink:href="#m5709f131d3" y="163.959513"/>
     <use style="stroke:#000000;" x="125.806218" xlink:href="#m5709f131d3" y="163.206293"/>
     <use style="stroke:#000000;" x="126.710322" xlink:href="#m5709f131d3" y="162.457523"/>
     <use style="stroke:#000000;" x="127.915793" xlink:href="#m5709f131d3" y="161.714316"/>
     <use style="stroke:#000000;" x="128.819897" xlink:href="#m5709f131d3" y="160.974447"/>
     <use style="stroke:#000000;" x="130.025369" xlink:href="#m5709f131d3" y="160.24014"/>
     <use style="stroke:#000000;" x="131.230841" xlink:href="#m5709f131d3" y="159.509171"/>
     <use style="stroke:#000000;" x="132.134945" xlink:href="#m5709f131d3" y="158.782653"/>
     <use style="stroke:#000000;" x="133.340417" xlink:href="#m5709f131d3" y="158.061698"/>
     <use style="stroke:#000000;" x="134.545888" xlink:href="#m5709f131d3" y="157.34408"/>
     <use style="stroke:#000000;" x="135.449992" xlink:href="#m5709f131d3" y="156.630913"/>
     <use style="stroke:#000000;" x="136.655464" xlink:href="#m5709f131d3" y="155.922196"/>
     <use style="stroke:#000000;" x="137.860936" xlink:href="#m5709f131d3" y="155.216817"/>
     <use style="stroke:#000000;" x="138.76504" xlink:href="#m5709f131d3" y="154.515888"/>
     <use style="stroke:#000000;" x="139.970511" xlink:href="#m5709f131d3" y="153.819409"/>
     <use style="stroke:#000000;" x="141.175983" xlink:href="#m5709f131d3" y="153.127381"/>
     <use style="stroke:#000000;" x="142.080087" xlink:href="#m5709f131d3" y="152.439804"/>
     <use style="stroke:#000000;" x="143.285559" xlink:href="#m5709f131d3" y="151.755563"/>
     <use style="stroke:#000000;" x="144.491031" xlink:href="#m5709f131d3" y="151.074661"/>
     <use style="stroke:#000000;" x="145.395135" xlink:href="#m5709f131d3" y="150.398209"/>
     <use style="stroke:#000000;" x="146.600606" xlink:href="#m5709f131d3" y="149.726208"/>
     <use style="stroke:#000000;" x="147.806078" xlink:href="#m5709f131d3" y="149.057544"/>
     <use style="stroke:#000000;" x="148.710182" xlink:href="#m5709f131d3" y="148.39333"/>
     <use style="stroke:#000000;" x="149.915654" xlink:href="#m5709f131d3" y="147.732454"/>
     <use style="stroke:#000000;" x="151.121126" xlink:href="#m5709f131d3" y="147.076029"/>
     <use style="stroke:#000000;" x="152.02523" xlink:href="#m5709f131d3" y="146.422941"/>
     <use style="stroke:#000000;" x="153.230701" xlink:href="#m5709f131d3" y="145.774304"/>
     <use style="stroke:#000000;" x="154.436173" xlink:href="#m5709f131d3" y="145.129005"/>
     <use style="stroke:#000000;" x="155.340277" xlink:href="#m5709f131d3" y="144.487043"/>
     <use style="stroke:#000000;" x="156.545749" xlink:href="#m5709f131d3" y="143.849531"/>
     <use style="stroke:#000000;" x="157.751221" xlink:href="#m5709f131d3" y="143.215358"/>
     <use style="stroke:#000000;" x="158.655325" xlink:href="#m5709f131d3" y="142.584522"/>
     <use style="stroke:#000000;" x="159.860796" xlink:href="#m5709f131d3" y="141.957023"/>
     <use style="stroke:#000000;" x="161.066268" xlink:href="#m5709f131d3" y="141.333976"/>
     <use style="stroke:#000000;" x="162.573108" xlink:href="#m5709f131d3" y="140.399404"/>
     <use style="stroke:#000000;" x="164.381316" xlink:href="#m5709f131d3" y="139.47262"/>
     <use style="stroke:#000000;" x="165.888155" xlink:href="#m5709f131d3" y="138.554737"/>
     <use style="stroke:#000000;" x="167.696363" xlink:href="#m5709f131d3" y="137.644642"/>
     <use style="stroke:#000000;" x="169.203203" xlink:href="#m5709f131d3" y="136.742335"/>
     <use style="stroke:#000000;" x="171.011411" xlink:href="#m5709f131d3" y="135.846704"/>
     <use style="stroke:#000000;" x="172.51825" xlink:href="#m5709f131d3" y="134.959974"/>
     <use style="stroke:#000000;" x="174.326458" xlink:href="#m5709f131d3" y="134.081031"/>
     <use style="stroke:#000000;" x="175.833298" xlink:href="#m5709f131d3" y="133.208764"/>
     <use style="stroke:#000000;" x="177.641506" xlink:href="#m5709f131d3" y="132.344285"/>
     <use style="stroke:#000000;" x="179.148345" xlink:href="#m5709f131d3" y="131.487594"/>
     <use style="stroke:#000000;" x="180.956553" xlink:href="#m5709f131d3" y="130.638692"/>
     <use style="stroke:#000000;" x="182.463393" xlink:href="#m5709f131d3" y="129.796464"/>
     <use style="stroke:#000000;" x="184.2716" xlink:href="#m5709f131d3" y="128.962025"/>
     <use style="stroke:#000000;" x="185.77844" xlink:href="#m5709f131d3" y="128.134262"/>
     <use style="stroke:#000000;" x="187.586648" xlink:href="#m5709f131d3" y="127.313174"/>
     <use style="stroke:#000000;" x="189.093488" xlink:href="#m5709f131d3" y="126.499874"/>
     <use style="stroke:#000000;" x="190.901695" xlink:href="#m5709f131d3" y="125.693249"/>
     <use style="stroke:#000000;" x="192.408535" xlink:href="#m5709f131d3" y="124.8933"/>
     <use style="stroke:#000000;" x="194.216743" xlink:href="#m5709f131d3" y="124.101139"/>
     <use style="stroke:#000000;" x="196.024951" xlink:href="#m5709f131d3" y="123.314542"/>
     <use style="stroke:#000000;" x="197.53179" xlink:href="#m5709f131d3" y="122.535732"/>
     <use style="stroke:#000000;" x="199.339998" xlink:href="#m5709f131d3" y="121.762485"/>
     <use style="stroke:#000000;" x="200.873057" xlink:href="#m5709f131d3" y="120.997026"/>
     <use style="stroke:#000000;" x="202.537512" xlink:href="#m5709f131d3" y="120.23713"/>
     <use style="stroke:#000000;" x="204.201666" xlink:href="#m5709f131d3" y="119.48391"/>
     <use style="stroke:#000000;" x="205.866121" xlink:href="#m5709f131d3" y="118.738478"/>
     <use style="stroke:#000000;" x="208.367174" xlink:href="#m5709f131d3" y="117.628117"/>
     <use style="stroke:#000000;" x="210.79198" xlink:href="#m5709f131d3" y="116.532221"/>
     <use style="stroke:#000000;" x="213.504292" xlink:href="#m5709f131d3" y="115.450788"/>
     <use style="stroke:#000000;" x="215.915235" xlink:href="#m5709f131d3" y="114.382706"/>
     <use style="stroke:#000000;" x="218.326179" xlink:href="#m5709f131d3" y="113.329087"/>
     <use style="stroke:#000000;" x="220.737123" xlink:href="#m5709f131d3" y="112.287707"/>
     <use style="stroke:#000000;" x="223.449434" xlink:href="#m5709f131d3" y="111.260791"/>
     <use style="stroke:#000000;" x="225.860378" xlink:href="#m5709f131d3" y="110.246113"/>
     <use style="stroke:#000000;" x="228.271321" xlink:href="#m5709f131d3" y="109.245899"/>
     <use style="stroke:#000000;" x="230.983633" xlink:href="#m5709f131d3" y="108.25681"/>
     <use style="stroke:#000000;" x="233.394577" xlink:href="#m5709f131d3" y="107.281073"/>
     <use style="stroke:#000000;" x="235.80552" xlink:href="#m5709f131d3" y="106.317574"/>
     <use style="stroke:#000000;" x="238.517832" xlink:href="#m5709f131d3" y="105.366313"/>
     <use style="stroke:#000000;" x="240.928775" xlink:href="#m5709f131d3" y="104.427291"/>
     <use style="stroke:#000000;" x="243.339719" xlink:href="#m5709f131d3" y="103.500507"/>
     <use style="stroke:#000000;" x="245.750663" xlink:href="#m5709f131d3" y="102.584849"/>
     <use style="stroke:#000000;" x="248.462974" xlink:href="#m5709f131d3" y="101.68143"/>
     <use style="stroke:#000000;" x="250.873918" xlink:href="#m5709f131d3" y="100.789137"/>
     <use style="stroke:#000000;" x="253.284862" xlink:href="#m5709f131d3" y="99.907969"/>
     <use style="stroke:#000000;" x="255.997173" xlink:href="#m5709f131d3" y="99.03904"/>
     <use style="stroke:#000000;" x="259.613588" xlink:href="#m5709f131d3" y="97.720626"/>
     <use style="stroke:#000000;" x="263.531372" xlink:href="#m5709f131d3" y="96.427802"/>
     <use style="stroke:#000000;" x="267.449155" xlink:href="#m5709f131d3" y="95.160567"/>
     <use style="stroke:#000000;" x="271.366939" xlink:href="#m5709f131d3" y="93.916696"/>
     <use style="stroke:#000000;" x="275.284722" xlink:href="#m5709f131d3" y="92.698415"/>
     <use style="stroke:#000000;" x="278.901137" xlink:href="#m5709f131d3" y="91.503498"/>
     <use style="stroke:#000000;" x="282.818921" xlink:href="#m5709f131d3" y="90.331946"/>
     <use style="stroke:#000000;" x="286.736704" xlink:href="#m5709f131d3" y="89.182645"/>
     <use style="stroke:#000000;" x="290.654488" xlink:href="#m5709f131d3" y="88.056709"/>
     <use style="stroke:#000000;" x="294.572271" xlink:href="#m5709f131d3" y="86.951911"/>
     <use style="stroke:#000000;" x="298.188686" xlink:href="#m5709f131d3" y="85.868253"/>
     <use style="stroke:#000000;" x="302.10647" xlink:href="#m5709f131d3" y="84.805734"/>
     <use style="stroke:#000000;" x="305.997431" xlink:href="#m5709f131d3" y="83.764354"/>
     <use style="stroke:#000000;" x="309.851927" xlink:href="#m5709f131d3" y="82.743001"/>
     <use style="stroke:#000000;" x="313.706122" xlink:href="#m5709f131d3" y="81.741674"/>
     <use style="stroke:#000000;" x="319.512579" xlink:href="#m5709f131d3" y="80.26861"/>
     <use style="stroke:#000000;" x="325.318734" xlink:href="#m5709f131d3" y="78.838938"/>
     <use style="stroke:#000000;" x="331.124889" xlink:href="#m5709f131d3" y="77.450432"/>
     <use style="stroke:#000000;" x="336.931043" xlink:href="#m5709f131d3" y="76.103091"/>
     <use style="stroke:#000000;" x="342.737198" xlink:href="#m5709f131d3" y="74.793577"/>
     <use style="stroke:#000000;" x="348.543353" xlink:href="#m5709f131d3" y="73.521892"/>
     <use style="stroke:#000000;" x="354.349508" xlink:href="#m5709f131d3" y="72.288035"/>
     <use style="stroke:#000000;" x="360.155663" xlink:href="#m5709f131d3" y="71.088668"/>
     <use style="stroke:#000000;" x="365.961818" xlink:href="#m5709f131d3" y="69.924904"/>
     <use style="stroke:#000000;" x="371.767672" xlink:href="#m5709f131d3" y="68.793404"/>
    </g>
   </g>
   <g id="line2d_18">
    <path clip-path="url(#p1472321991)" d="M 68.546307 180.013007 
L 69.317809 179.911493 
L 70.303282 179.551 
L 71.559986 178.844078 
L 73.368194 177.542881 
L 76.201053 175.197167 
L 85.121544 167.374791 
L 98.683102 155.649008 
L 110.135084 146.039127 
L 120.080227 137.987272 
L 128.819897 131.171735 
L 136.655464 125.315321 
L 145.395135 119.027562 
L 154.436173 112.815392 
L 162.573108 107.494464 
L 171.011411 102.237031 
L 179.148345 97.401428 
L 187.586648 92.622978 
L 196.024951 88.083695 
L 204.201666 83.903718 
L 210.79198 80.677028 
L 220.737123 76.054996 
L 230.983633 71.586639 
L 240.928775 67.525703 
L 253.284862 62.823014 
L 263.531372 59.225175 
L 275.284722 55.317194 
L 290.654488 50.629208 
L 298.188686 48.533869 
L 305.997431 46.496143 
L 313.706122 44.384761 
L 325.318734 41.606794 
L 342.737198 37.727947 
L 354.349508 35.380941 
L 365.961818 33.19759 
L 371.767672 32.201761 
L 371.767672 32.201761 
" style="fill:none;stroke:#0000ff;stroke-dasharray:5.55,2.4;stroke-dashoffset:0;stroke-width:1.5;"/>
   </g>
   <g id="line2d_19">
    <path clip-path="url(#p1472321991)" d="M 68.546307 229.874488 
L 69.317809 229.775318 
L 70.303282 229.418703 
L 71.650397 228.657739 
L 73.458604 227.358844 
L 76.743515 224.679259 
L 88.82837 214.673144 
L 97.266673 208.021802 
L 106.518669 201.017929 
L 114.956971 194.876644 
L 123.395274 188.973754 
L 132.134945 183.103397 
L 142.080087 176.698414 
L 151.121126 171.14879 
L 161.066268 165.313749 
L 171.011411 159.738948 
L 180.956553 154.432456 
L 192.408535 148.623337 
L 202.537512 143.747197 
L 210.79198 139.941899 
L 223.449434 134.39681 
L 233.394577 130.270656 
L 245.750663 125.393685 
L 259.613588 120.297736 
L 267.449155 117.516204 
L 278.901137 113.700153 
L 302.10647 106.542864 
L 309.851927 104.404376 
L 336.931043 97.407038 
L 360.155663 92.19939 
L 371.767672 89.76221 
L 371.767672 89.76221 
" style="fill:none;stroke:#0000ff;stroke-dasharray:5.55,2.4;stroke-dashoffset:0;stroke-width:1.5;"/>
   </g>
   <g id="line2d_20"/>
   <g id="line2d_21"/>
   <g id="line2d_22"/>
   <g id="line2d_23"/>
   <g id="line2d_24"/>
   <g id="line2d_25"/>
   <g id="patch_3">
    <path d="M 53.328125 239.758125 
L 53.328125 22.318125 
" style="fill:none;stroke:#000000;stroke-linecap:square;stroke-linejoin:miter;stroke-width:0.8;"/>
   </g>
   <g id="patch_4">
    <path d="M 388.128125 239.758125 
L 388.128125 22.318125 
" style="fill:none;stroke:#000000;stroke-linecap:square;stroke-linejoin:miter;stroke-width:0.8;"/>
   </g>
   <g id="patch_5">
    <path d="M 53.328125 239.758125 
L 388.128125 239.758125 
" style="fill:none;stroke:#000000;stroke-linecap:square;stroke-linejoin:miter;stroke-width:0.8;"/>
   </g>
   <g id="patch_6">
    <path d="M 53.328125 22.318125 
L 388.128125 22.318125 
" style="fill:none;stroke:#000000;stroke-linecap:square;stroke-linejoin:miter;stroke-width:0.8;"/>
   </g>
   <g id="text_17">
    <!-- Experiment_12 -->
    <defs>
     <path d="M 9.8125 72.90625 
L 55.90625 72.90625 
L 55.90625 64.59375 
L 19.671875 64.59375 
L 19.671875 43.015625 
L 54.390625 43.015625 
L 54.390625 34.71875 
L 19.671875 34.71875 
L 19.671875 8.296875 
L 56.78125 8.296875 
L 56.78125 0 
L 9.8125 0 
z
" id="DejaVuSans-69"/>
     <path d="M 54.890625 54.6875 
L 35.109375 28.078125 
L 55.90625 0 
L 45.3125 0 
L 29.390625 21.484375 
L 13.484375 0 
L 2.875 0 
L 24.125 28.609375 
L 4.6875 54.6875 
L 15.28125 54.6875 
L 29.78125 35.203125 
L 44.28125 54.6875 
z
" id="DejaVuSans-120"/>
     <path d="M 41.109375 46.296875 
Q 39.59375 47.171875 37.8125 47.578125 
Q 36.03125 48 33.890625 48 
Q 26.265625 48 22.1875 43.046875 
Q 18.109375 38.09375 18.109375 28.8125 
L 18.109375 0 
L 9.078125 0 
L 9.078125 54.6875 
L 18.109375 54.6875 
L 18.109375 46.1875 
Q 20.953125 51.171875 25.484375 53.578125 
Q 30.03125 56 36.53125 56 
Q 37.453125 56 38.578125 55.875 
Q 39.703125 55.765625 41.0625 55.515625 
z
" id="DejaVuSans-114"/>
     <path d="M 54.890625 33.015625 
L 54.890625 0 
L 45.90625 0 
L 45.90625 32.71875 
Q 45.90625 40.484375 42.875 44.328125 
Q 39.84375 48.1875 33.796875 48.1875 
Q 26.515625 48.1875 22.3125 43.546875 
Q 18.109375 38.921875 18.109375 30.90625 
L 18.109375 0 
L 9.078125 0 
L 9.078125 54.6875 
L 18.109375 54.6875 
L 18.109375 46.1875 
Q 21.34375 51.125 25.703125 53.5625 
Q 30.078125 56 35.796875 56 
Q 45.21875 56 50.046875 50.171875 
Q 54.890625 44.34375 54.890625 33.015625 
z
" id="DejaVuSans-110"/>
     <path d="M 18.3125 70.21875 
L 18.3125 54.6875 
L 36.8125 54.6875 
L 36.8125 47.703125 
L 18.3125 47.703125 
L 18.3125 18.015625 
Q 18.3125 11.328125 20.140625 9.421875 
Q 21.96875 7.515625 27.59375 7.515625 
L 36.8125 7.515625 
L 36.8125 0 
L 27.59375 0 
Q 17.1875 0 13.234375 3.875 
Q 9.28125 7.765625 9.28125 18.015625 
L 9.28125 47.703125 
L 2.6875 47.703125 
L 2.6875 54.6875 
L 9.28125 54.6875 
L 9.28125 70.21875 
z
" id="DejaVuSans-116"/>
     <path d="M 50.984375 -16.609375 
L 50.984375 -23.578125 
L -0.984375 -23.578125 
L -0.984375 -16.609375 
z
" id="DejaVuSans-95"/>
    </defs>
    <g transform="translate(175.425313 16.318125)scale(0.12 -0.12)">
     <use xlink:href="#DejaVuSans-69"/>
     <use x="63.183594" xlink:href="#DejaVuSans-120"/>
     <use x="122.363281" xlink:href="#DejaVuSans-112"/>
     <use x="185.839844" xlink:href="#DejaVuSans-101"/>
     <use x="247.363281" xlink:href="#DejaVuSans-114"/>
     <use x="288.476562" xlink:href="#DejaVuSans-105"/>
     <use x="316.259766" xlink:href="#DejaVuSans-109"/>
     <use x="413.671875" xlink:href="#DejaVuSans-101"/>
     <use x="475.195312" xlink:href="#DejaVuSans-110"/>
     <use x="538.574219" xlink:href="#DejaVuSans-116"/>
     <use x="577.783203" xlink:href="#DejaVuSans-95"/>
     <use x="627.783203" xlink:href="#DejaVuSans-49"/>
     <use x="691.40625" xlink:href="#DejaVuSans-50"/>
    </g>
   </g>
   <g id="legend_1">
    <g id="patch_7">
     <path d="M 125.007812 234.758125 
L 381.128125 234.758125 
Q 383.128125 234.758125 383.128125 232.758125 
L 383.128125 160.345625 
Q 383.128125 158.345625 381.128125 158.345625 
L 125.007812 158.345625 
Q 123.007812 158.345625 123.007812 160.345625 
L 123.007812 232.758125 
Q 123.007812 234.758125 125.007812 234.758125 
z
" style="fill:#ffffff;opacity:0.8;stroke:#cccccc;stroke-linejoin:miter;"/>
    </g>
    <g id="line2d_26">
     <path d="M 127.007812 166.444062 
L 147.007812 166.444062 
" style="fill:none;stroke:#0000ff;stroke-linecap:square;stroke-width:1.5;"/>
    </g>
    <g id="line2d_27"/>
    <g id="text_18">
     <!-- MSI -->
     <defs>
      <path d="M 9.8125 72.90625 
L 24.515625 72.90625 
L 43.109375 23.296875 
L 61.8125 72.90625 
L 76.515625 72.90625 
L 76.515625 0 
L 66.890625 0 
L 66.890625 64.015625 
L 48.09375 14.015625 
L 38.1875 14.015625 
L 19.390625 64.015625 
L 19.390625 0 
L 9.8125 0 
z
" id="DejaVuSans-77"/>
      <path d="M 53.515625 70.515625 
L 53.515625 60.890625 
Q 47.90625 63.578125 42.921875 64.890625 
Q 37.9375 66.21875 33.296875 66.21875 
Q 25.25 66.21875 20.875 63.09375 
Q 16.5 59.96875 16.5 54.203125 
Q 16.5 49.359375 19.40625 46.890625 
Q 22.3125 44.4375 30.421875 42.921875 
L 36.375 41.703125 
Q 47.40625 39.59375 52.65625 34.296875 
Q 57.90625 29 57.90625 20.125 
Q 57.90625 9.515625 50.796875 4.046875 
Q 43.703125 -1.421875 29.984375 -1.421875 
Q 24.8125 -1.421875 18.96875 -0.25 
Q 13.140625 0.921875 6.890625 3.21875 
L 6.890625 13.375 
Q 12.890625 10.015625 18.65625 8.296875 
Q 24.421875 6.59375 29.984375 6.59375 
Q 38.421875 6.59375 43.015625 9.90625 
Q 47.609375 13.234375 47.609375 19.390625 
Q 47.609375 24.75 44.3125 27.78125 
Q 41.015625 30.8125 33.5 32.328125 
L 27.484375 33.5 
Q 16.453125 35.6875 11.515625 40.375 
Q 6.59375 45.0625 6.59375 53.421875 
Q 6.59375 63.09375 13.40625 68.65625 
Q 20.21875 74.21875 32.171875 74.21875 
Q 37.3125 74.21875 42.625 73.28125 
Q 47.953125 72.359375 53.515625 70.515625 
z
" id="DejaVuSans-83"/>
      <path d="M 9.8125 72.90625 
L 19.671875 72.90625 
L 19.671875 0 
L 9.8125 0 
z
" id="DejaVuSans-73"/>
     </defs>
     <g transform="translate(155.007812 169.944062)scale(0.1 -0.1)">
      <use xlink:href="#DejaVuSans-77"/>
      <use x="86.279297" xlink:href="#DejaVuSans-83"/>
      <use x="149.755859" xlink:href="#DejaVuSans-73"/>
     </g>
    </g>
    <g id="line2d_28">
     <path d="M 127.007812 181.12375 
L 147.007812 181.12375 
" style="fill:none;stroke:#ff0000;stroke-linecap:square;stroke-width:1.5;"/>
    </g>
    <g id="line2d_29"/>
    <g id="text_19">
     <!-- $\it{A priori}$ model -->
     <defs>
      <path d="M 36.8125 72.90625 
L 48 72.90625 
L 61.53125 0 
L 51.21875 0 
L 48.1875 18.703125 
L 15.375 18.703125 
L 5.078125 0 
L -5.328125 0 
z
M 40.375 63.1875 
L 19.921875 26.90625 
L 46.6875 26.90625 
z
" id="DejaVuSans-Oblique-65"/>
      <path d="M 49.609375 33.6875 
Q 49.609375 40.875 46.484375 44.671875 
Q 43.359375 48.484375 37.5 48.484375 
Q 33.5 48.484375 29.859375 46.4375 
Q 26.21875 44.390625 23.390625 40.484375 
Q 20.609375 36.625 18.9375 31.15625 
Q 17.28125 25.6875 17.28125 20.3125 
Q 17.28125 13.484375 20.40625 9.796875 
Q 23.53125 6.109375 29.296875 6.109375 
Q 33.546875 6.109375 37.1875 8.109375 
Q 40.828125 10.109375 43.40625 13.921875 
Q 46.1875 17.921875 47.890625 23.34375 
Q 49.609375 28.765625 49.609375 33.6875 
z
M 21.78125 46.390625 
Q 25.390625 51.125 30.296875 53.5625 
Q 35.203125 56 41.21875 56 
Q 49.609375 56 54.25 50.5 
Q 58.890625 45.015625 58.890625 35.109375 
Q 58.890625 27 56 19.65625 
Q 53.125 12.3125 47.703125 6.5 
Q 44.09375 2.640625 39.546875 0.609375 
Q 35.015625 -1.421875 29.984375 -1.421875 
Q 24.171875 -1.421875 20.21875 1 
Q 16.265625 3.421875 14.3125 8.203125 
L 8.6875 -20.796875 
L -0.296875 -20.796875 
L 14.40625 54.6875 
L 23.390625 54.6875 
z
" id="DejaVuSans-Oblique-112"/>
      <path d="M 44.578125 46.390625 
Q 43.21875 47.125 41.453125 47.515625 
Q 39.703125 47.90625 37.703125 47.90625 
Q 30.515625 47.90625 25.140625 42.453125 
Q 19.78125 37.015625 18.015625 27.875 
L 12.5 0 
L 3.515625 0 
L 14.203125 54.6875 
L 23.1875 54.6875 
L 21.484375 46.1875 
Q 25.046875 50.921875 30 53.453125 
Q 34.96875 56 40.578125 56 
Q 42.046875 56 43.453125 55.828125 
Q 44.875 55.671875 46.296875 55.28125 
z
" id="DejaVuSans-Oblique-114"/>
      <path d="M 18.3125 75.984375 
L 27.296875 75.984375 
L 25.09375 64.59375 
L 16.109375 64.59375 
z
M 14.203125 54.6875 
L 23.1875 54.6875 
L 12.5 0 
L 3.515625 0 
z
" id="DejaVuSans-Oblique-105"/>
      <path d="M 25.390625 -1.421875 
Q 15.765625 -1.421875 10.171875 4.515625 
Q 4.59375 10.453125 4.59375 20.703125 
Q 4.59375 26.65625 6.515625 32.828125 
Q 8.453125 39.015625 11.53125 43.21875 
Q 16.359375 49.75 22.3125 52.875 
Q 28.265625 56 35.796875 56 
Q 45.125 56 50.859375 50.1875 
Q 56.59375 44.390625 56.59375 35.015625 
Q 56.59375 28.515625 54.6875 22.0625 
Q 52.78125 15.625 49.703125 11.375 
Q 44.921875 4.828125 38.96875 1.703125 
Q 33.015625 -1.421875 25.390625 -1.421875 
z
M 13.921875 21 
Q 13.921875 13.578125 17.015625 9.890625 
Q 20.125 6.203125 26.421875 6.203125 
Q 35.453125 6.203125 41.375 14.078125 
Q 47.3125 21.96875 47.3125 34.078125 
Q 47.3125 41.15625 44.140625 44.765625 
Q 40.96875 48.390625 34.8125 48.390625 
Q 29.734375 48.390625 25.78125 46.015625 
Q 21.828125 43.65625 18.703125 38.8125 
Q 16.40625 35.203125 15.15625 30.5625 
Q 13.921875 25.921875 13.921875 21 
z
" id="DejaVuSans-Oblique-111"/>
      <path d="M 30.609375 48.390625 
Q 23.390625 48.390625 19.1875 42.75 
Q 14.984375 37.109375 14.984375 27.296875 
Q 14.984375 17.484375 19.15625 11.84375 
Q 23.34375 6.203125 30.609375 6.203125 
Q 37.796875 6.203125 41.984375 11.859375 
Q 46.1875 17.53125 46.1875 27.296875 
Q 46.1875 37.015625 41.984375 42.703125 
Q 37.796875 48.390625 30.609375 48.390625 
z
M 30.609375 56 
Q 42.328125 56 49.015625 48.375 
Q 55.71875 40.765625 55.71875 27.296875 
Q 55.71875 13.875 49.015625 6.21875 
Q 42.328125 -1.421875 30.609375 -1.421875 
Q 18.84375 -1.421875 12.171875 6.21875 
Q 5.515625 13.875 5.515625 27.296875 
Q 5.515625 40.765625 12.171875 48.375 
Q 18.84375 56 30.609375 56 
z
" id="DejaVuSans-111"/>
      <path d="M 45.40625 46.390625 
L 45.40625 75.984375 
L 54.390625 75.984375 
L 54.390625 0 
L 45.40625 0 
L 45.40625 8.203125 
Q 42.578125 3.328125 38.25 0.953125 
Q 33.9375 -1.421875 27.875 -1.421875 
Q 17.96875 -1.421875 11.734375 6.484375 
Q 5.515625 14.40625 5.515625 27.296875 
Q 5.515625 40.1875 11.734375 48.09375 
Q 17.96875 56 27.875 56 
Q 33.9375 56 38.25 53.625 
Q 42.578125 51.265625 45.40625 46.390625 
z
M 14.796875 27.296875 
Q 14.796875 17.390625 18.875 11.75 
Q 22.953125 6.109375 30.078125 6.109375 
Q 37.203125 6.109375 41.296875 11.75 
Q 45.40625 17.390625 45.40625 27.296875 
Q 45.40625 37.203125 41.296875 42.84375 
Q 37.203125 48.484375 30.078125 48.484375 
Q 22.953125 48.484375 18.875 42.84375 
Q 14.796875 37.203125 14.796875 27.296875 
z
" id="DejaVuSans-100"/>
      <path d="M 9.421875 75.984375 
L 18.40625 75.984375 
L 18.40625 0 
L 9.421875 0 
z
" id="DejaVuSans-108"/>
     </defs>
     <g transform="translate(155.007812 184.62375)scale(0.1 -0.1)">
      <use transform="translate(0 0.015625)" xlink:href="#DejaVuSans-Oblique-65"/>
      <use transform="translate(68.408203 0.015625)" xlink:href="#DejaVuSans-Oblique-112"/>
      <use transform="translate(131.884766 0.015625)" xlink:href="#DejaVuSans-Oblique-114"/>
      <use transform="translate(172.998047 0.015625)" xlink:href="#DejaVuSans-Oblique-105"/>
      <use transform="translate(200.78125 0.015625)" xlink:href="#DejaVuSans-Oblique-111"/>
      <use transform="translate(261.962891 0.015625)" xlink:href="#DejaVuSans-Oblique-114"/>
      <use transform="translate(303.076172 0.015625)" xlink:href="#DejaVuSans-Oblique-105"/>
      <use transform="translate(330.859375 0.015625)" xlink:href="#DejaVuSans-32"/>
      <use transform="translate(362.646484 0.015625)" xlink:href="#DejaVuSans-109"/>
      <use transform="translate(460.058594 0.015625)" xlink:href="#DejaVuSans-111"/>
      <use transform="translate(521.240234 0.015625)" xlink:href="#DejaVuSans-100"/>
      <use transform="translate(584.716797 0.015625)" xlink:href="#DejaVuSans-101"/>
      <use transform="translate(646.240234 0.015625)" xlink:href="#DejaVuSans-108"/>
     </g>
    </g>
    <g id="line2d_30"/>
    <g id="line2d_31">
     <g>
      <use style="stroke:#000000;" x="137.007812" xlink:href="#m5709f131d3" y="195.822187"/>
     </g>
    </g>
    <g id="text_20">
     <!-- Experimental Data -->
     <defs>
      <path d="M 34.28125 27.484375 
Q 23.390625 27.484375 19.1875 25 
Q 14.984375 22.515625 14.984375 16.5 
Q 14.984375 11.71875 18.140625 8.90625 
Q 21.296875 6.109375 26.703125 6.109375 
Q 34.1875 6.109375 38.703125 11.40625 
Q 43.21875 16.703125 43.21875 25.484375 
L 43.21875 27.484375 
z
M 52.203125 31.203125 
L 52.203125 0 
L 43.21875 0 
L 43.21875 8.296875 
Q 40.140625 3.328125 35.546875 0.953125 
Q 30.953125 -1.421875 24.3125 -1.421875 
Q 15.921875 -1.421875 10.953125 3.296875 
Q 6 8.015625 6 15.921875 
Q 6 25.140625 12.171875 29.828125 
Q 18.359375 34.515625 30.609375 34.515625 
L 43.21875 34.515625 
L 43.21875 35.40625 
Q 43.21875 41.609375 39.140625 45 
Q 35.0625 48.390625 27.6875 48.390625 
Q 23 48.390625 18.546875 47.265625 
Q 14.109375 46.140625 10.015625 43.890625 
L 10.015625 52.203125 
Q 14.9375 54.109375 19.578125 55.046875 
Q 24.21875 56 28.609375 56 
Q 40.484375 56 46.34375 49.84375 
Q 52.203125 43.703125 52.203125 31.203125 
z
" id="DejaVuSans-97"/>
      <path d="M 19.671875 64.796875 
L 19.671875 8.109375 
L 31.59375 8.109375 
Q 46.6875 8.109375 53.6875 14.9375 
Q 60.6875 21.78125 60.6875 36.53125 
Q 60.6875 51.171875 53.6875 57.984375 
Q 46.6875 64.796875 31.59375 64.796875 
z
M 9.8125 72.90625 
L 30.078125 72.90625 
Q 51.265625 72.90625 61.171875 64.09375 
Q 71.09375 55.28125 71.09375 36.53125 
Q 71.09375 17.671875 61.125 8.828125 
Q 51.171875 0 30.078125 0 
L 9.8125 0 
z
" id="DejaVuSans-68"/>
     </defs>
     <g transform="translate(155.007812 199.322187)scale(0.1 -0.1)">
      <use xlink:href="#DejaVuSans-69"/>
      <use x="63.183594" xlink:href="#DejaVuSans-120"/>
      <use x="122.363281" xlink:href="#DejaVuSans-112"/>
      <use x="185.839844" xlink:href="#DejaVuSans-101"/>
      <use x="247.363281" xlink:href="#DejaVuSans-114"/>
      <use x="288.476562" xlink:href="#DejaVuSans-105"/>
      <use x="316.259766" xlink:href="#DejaVuSans-109"/>
      <use x="413.671875" xlink:href="#DejaVuSans-101"/>
      <use x="475.195312" xlink:href="#DejaVuSans-110"/>
      <use x="538.574219" xlink:href="#DejaVuSans-116"/>
      <use x="577.783203" xlink:href="#DejaVuSans-97"/>
      <use x="639.0625" xlink:href="#DejaVuSans-108"/>
      <use x="666.845703" xlink:href="#DejaVuSans-32"/>
      <use x="698.632812" xlink:href="#DejaVuSans-68"/>
      <use x="775.634766" xlink:href="#DejaVuSans-97"/>
      <use x="836.914062" xlink:href="#DejaVuSans-116"/>
      <use x="876.123047" xlink:href="#DejaVuSans-97"/>
     </g>
    </g>
    <g id="line2d_32">
     <path d="M 127.007812 210.500312 
L 147.007812 210.500312 
" style="fill:none;stroke:#ffffff;stroke-linecap:square;stroke-width:1.5;"/>
    </g>
    <g id="line2d_33"/>
    <g id="text_21">
     <!-- T:1108 -->
     <defs>
      <path d="M 11.71875 12.40625 
L 22.015625 12.40625 
L 22.015625 0 
L 11.71875 0 
z
M 11.71875 51.703125 
L 22.015625 51.703125 
L 22.015625 39.3125 
L 11.71875 39.3125 
z
" id="DejaVuSans-58"/>
     </defs>
     <g transform="translate(155.007812 214.000312)scale(0.1 -0.1)">
      <use xlink:href="#DejaVuSans-84"/>
      <use x="60.912109" xlink:href="#DejaVuSans-58"/>
      <use x="94.603516" xlink:href="#DejaVuSans-49"/>
      <use x="158.226562" xlink:href="#DejaVuSans-49"/>
      <use x="221.849609" xlink:href="#DejaVuSans-48"/>
      <use x="285.472656" xlink:href="#DejaVuSans-56"/>
     </g>
    </g>
    <g id="line2d_34">
     <path d="M 127.007812 225.178437 
L 147.007812 225.178437 
" style="fill:none;stroke:#ffffff;stroke-linecap:square;stroke-width:1.5;"/>
    </g>
    <g id="line2d_35"/>
    <g id="text_22">
     <!-- P:1.774 -->
     <defs>
      <path d="M 19.671875 64.796875 
L 19.671875 37.40625 
L 32.078125 37.40625 
Q 38.96875 37.40625 42.71875 40.96875 
Q 46.484375 44.53125 46.484375 51.125 
Q 46.484375 57.671875 42.71875 61.234375 
Q 38.96875 64.796875 32.078125 64.796875 
z
M 9.8125 72.90625 
L 32.078125 72.90625 
Q 44.34375 72.90625 50.609375 67.359375 
Q 56.890625 61.8125 56.890625 51.125 
Q 56.890625 40.328125 50.609375 34.8125 
Q 44.34375 29.296875 32.078125 29.296875 
L 19.671875 29.296875 
L 19.671875 0 
L 9.8125 0 
z
" id="DejaVuSans-80"/>
     </defs>
     <g transform="translate(155.007812 228.678437)scale(0.1 -0.1)">
      <use xlink:href="#DejaVuSans-80"/>
      <use x="60.302734" xlink:href="#DejaVuSans-58"/>
      <use x="93.994141" xlink:href="#DejaVuSans-49"/>
      <use x="157.617188" xlink:href="#DejaVuSans-46"/>
      <use x="189.404297" xlink:href="#DejaVuSans-55"/>
      <use x="253.027344" xlink:href="#DejaVuSans-55"/>
      <use x="316.650391" xlink:href="#DejaVuSans-52"/>
     </g>
    </g>
    <g id="line2d_36">
     <path d="M 268.748438 166.444062 
L 288.748438 166.444062 
" style="fill:none;stroke:#ffffff;stroke-linecap:square;stroke-width:1.5;"/>
    </g>
    <g id="line2d_37"/>
    <g id="text_23">
     <!-- H2O2: 0.001611 -->
     <g transform="translate(296.748438 169.944062)scale(0.1 -0.1)">
      <use xlink:href="#DejaVuSans-72"/>
      <use x="75.195312" xlink:href="#DejaVuSans-50"/>
      <use x="138.818359" xlink:href="#DejaVuSans-79"/>
      <use x="217.529297" xlink:href="#DejaVuSans-50"/>
      <use x="281.152344" xlink:href="#DejaVuSans-58"/>
      <use x="314.84375" xlink:href="#DejaVuSans-32"/>
      <use x="346.630859" xlink:href="#DejaVuSans-48"/>
      <use x="410.253906" xlink:href="#DejaVuSans-46"/>
      <use x="442.041016" xlink:href="#DejaVuSans-48"/>
      <use x="505.664062" xlink:href="#DejaVuSans-48"/>
      <use x="569.287109" xlink:href="#DejaVuSans-49"/>
      <use x="632.910156" xlink:href="#DejaVuSans-54"/>
      <use x="696.533203" xlink:href="#DejaVuSans-49"/>
      <use x="760.15625" xlink:href="#DejaVuSans-49"/>
     </g>
    </g>
    <g id="line2d_38">
     <path d="M 268.748438 181.122187 
L 288.748438 181.122187 
" style="fill:none;stroke:#ffffff;stroke-linecap:square;stroke-width:1.5;"/>
    </g>
    <g id="line2d_39"/>
    <g id="text_24">
     <!-- H2O: 0.001113 -->
     <defs>
      <path d="M 40.578125 39.3125 
Q 47.65625 37.796875 51.625 33 
Q 55.609375 28.21875 55.609375 21.1875 
Q 55.609375 10.40625 48.1875 4.484375 
Q 40.765625 -1.421875 27.09375 -1.421875 
Q 22.515625 -1.421875 17.65625 -0.515625 
Q 12.796875 0.390625 7.625 2.203125 
L 7.625 11.71875 
Q 11.71875 9.328125 16.59375 8.109375 
Q 21.484375 6.890625 26.8125 6.890625 
Q 36.078125 6.890625 40.9375 10.546875 
Q 45.796875 14.203125 45.796875 21.1875 
Q 45.796875 27.640625 41.28125 31.265625 
Q 36.765625 34.90625 28.71875 34.90625 
L 20.21875 34.90625 
L 20.21875 43.015625 
L 29.109375 43.015625 
Q 36.375 43.015625 40.234375 45.921875 
Q 44.09375 48.828125 44.09375 54.296875 
Q 44.09375 59.90625 40.109375 62.90625 
Q 36.140625 65.921875 28.71875 65.921875 
Q 24.65625 65.921875 20.015625 65.03125 
Q 15.375 64.15625 9.8125 62.3125 
L 9.8125 71.09375 
Q 15.4375 72.65625 20.34375 73.4375 
Q 25.25 74.21875 29.59375 74.21875 
Q 40.828125 74.21875 47.359375 69.109375 
Q 53.90625 64.015625 53.90625 55.328125 
Q 53.90625 49.265625 50.4375 45.09375 
Q 46.96875 40.921875 40.578125 39.3125 
z
" id="DejaVuSans-51"/>
     </defs>
     <g transform="translate(296.748438 184.622187)scale(0.1 -0.1)">
      <use xlink:href="#DejaVuSans-72"/>
      <use x="75.195312" xlink:href="#DejaVuSans-50"/>
      <use x="138.818359" xlink:href="#DejaVuSans-79"/>
      <use x="217.513672" xlink:href="#DejaVuSans-58"/>
      <use x="251.205078" xlink:href="#DejaVuSans-32"/>
      <use x="282.992188" xlink:href="#DejaVuSans-48"/>
      <use x="346.615234" xlink:href="#DejaVuSans-46"/>
      <use x="378.402344" xlink:href="#DejaVuSans-48"/>
      <use x="442.025391" xlink:href="#DejaVuSans-48"/>
      <use x="505.648438" xlink:href="#DejaVuSans-49"/>
      <use x="569.271484" xlink:href="#DejaVuSans-49"/>
      <use x="632.894531" xlink:href="#DejaVuSans-49"/>
      <use x="696.517578" xlink:href="#DejaVuSans-51"/>
     </g>
    </g>
    <g id="line2d_40">
     <path d="M 268.748438 195.800312 
L 288.748438 195.800312 
" style="fill:none;stroke:#ffffff;stroke-linecap:square;stroke-width:1.5;"/>
    </g>
    <g id="line2d_41"/>
    <g id="text_25">
     <!-- O2: 0.000556 -->
     <g transform="translate(296.748438 199.300312)scale(0.1 -0.1)">
      <use xlink:href="#DejaVuSans-79"/>
      <use x="78.710938" xlink:href="#DejaVuSans-50"/>
      <use x="142.333984" xlink:href="#DejaVuSans-58"/>
      <use x="176.025391" xlink:href="#DejaVuSans-32"/>
      <use x="207.8125" xlink:href="#DejaVuSans-48"/>
      <use x="271.435547" xlink:href="#DejaVuSans-46"/>
      <use x="303.222656" xlink:href="#DejaVuSans-48"/>
      <use x="366.845703" xlink:href="#DejaVuSans-48"/>
      <use x="430.46875" xlink:href="#DejaVuSans-48"/>
      <use x="494.091797" xlink:href="#DejaVuSans-53"/>
      <use x="557.714844" xlink:href="#DejaVuSans-53"/>
      <use x="621.337891" xlink:href="#DejaVuSans-54"/>
     </g>
    </g>
    <g id="line2d_42">
     <path d="M 268.748438 210.478437 
L 288.748438 210.478437 
" style="fill:none;stroke:#ffffff;stroke-linecap:square;stroke-width:1.5;"/>
    </g>
    <g id="line2d_43"/>
    <g id="text_26">
     <!-- Ar: 0.991716 -->
     <defs>
      <path d="M 34.1875 63.1875 
L 20.796875 26.90625 
L 47.609375 26.90625 
z
M 28.609375 72.90625 
L 39.796875 72.90625 
L 67.578125 0 
L 57.328125 0 
L 50.6875 18.703125 
L 17.828125 18.703125 
L 11.1875 0 
L 0.78125 0 
z
" id="DejaVuSans-65"/>
      <path d="M 10.984375 1.515625 
L 10.984375 10.5 
Q 14.703125 8.734375 18.5 7.8125 
Q 22.3125 6.890625 25.984375 6.890625 
Q 35.75 6.890625 40.890625 13.453125 
Q 46.046875 20.015625 46.78125 33.40625 
Q 43.953125 29.203125 39.59375 26.953125 
Q 35.25 24.703125 29.984375 24.703125 
Q 19.046875 24.703125 12.671875 31.3125 
Q 6.296875 37.9375 6.296875 49.421875 
Q 6.296875 60.640625 12.9375 67.421875 
Q 19.578125 74.21875 30.609375 74.21875 
Q 43.265625 74.21875 49.921875 64.515625 
Q 56.59375 54.828125 56.59375 36.375 
Q 56.59375 19.140625 48.40625 8.859375 
Q 40.234375 -1.421875 26.421875 -1.421875 
Q 22.703125 -1.421875 18.890625 -0.6875 
Q 15.09375 0.046875 10.984375 1.515625 
z
M 30.609375 32.421875 
Q 37.25 32.421875 41.125 36.953125 
Q 45.015625 41.5 45.015625 49.421875 
Q 45.015625 57.28125 41.125 61.84375 
Q 37.25 66.40625 30.609375 66.40625 
Q 23.96875 66.40625 20.09375 61.84375 
Q 16.21875 57.28125 16.21875 49.421875 
Q 16.21875 41.5 20.09375 36.953125 
Q 23.96875 32.421875 30.609375 32.421875 
z
" id="DejaVuSans-57"/>
     </defs>
     <g transform="translate(296.748438 213.978437)scale(0.1 -0.1)">
      <use xlink:href="#DejaVuSans-65"/>
      <use x="68.408203" xlink:href="#DejaVuSans-114"/>
      <use x="109.505859" xlink:href="#DejaVuSans-58"/>
      <use x="143.197266" xlink:href="#DejaVuSans-32"/>
      <use x="174.984375" xlink:href="#DejaVuSans-48"/>
      <use x="238.607422" xlink:href="#DejaVuSans-46"/>
      <use x="270.394531" xlink:href="#DejaVuSans-57"/>
      <use x="334.017578" xlink:href="#DejaVuSans-57"/>
      <use x="397.640625" xlink:href="#DejaVuSans-49"/>
      <use x="461.263672" xlink:href="#DejaVuSans-55"/>
      <use x="524.886719" xlink:href="#DejaVuSans-49"/>
      <use x="588.509766" xlink:href="#DejaVuSans-54"/>
     </g>
    </g>
   </g>
  </g>
 </g>
 <defs>
  <clipPath id="p1472321991">
   <rect height="217.44" width="334.8" x="53.328125" y="22.318125"/>
  </clipPath>
 </defs>
</svg>
