<?xml version="1.0" encoding="utf-8" standalone="no"?>
<!DOCTYPE svg PUBLIC "-//W3C//DTD SVG 1.1//EN"
  "http://www.w3.org/Graphics/SVG/1.1/DTD/svg11.dtd">
<!-- Created with matplotlib (https://matplotlib.org/) -->
<svg height="277.314375pt" version="1.1" viewBox="0 0 395.64375 277.314375" width="395.64375pt" xmlns="http://www.w3.org/2000/svg" xmlns:xlink="http://www.w3.org/1999/xlink">
 <defs>
  <style type="text/css">
*{stroke-linecap:butt;stroke-linejoin:round;}
  </style>
 </defs>
 <g id="figure_1">
  <g id="patch_1">
   <path d="M 0 277.314375 
L 395.64375 277.314375 
L 395.64375 0 
L 0 0 
z
" style="fill:none;"/>
  </g>
  <g id="axes_1">
   <g id="patch_2">
    <path d="M 50.14375 239.758125 
L 384.94375 239.758125 
L 384.94375 22.318125 
L 50.14375 22.318125 
z
" style="fill:none;"/>
   </g>
   <g id="matplotlib.axis_1">
    <g id="xtick_1">
     <g id="line2d_1">
      <defs>
       <path d="M 0 0 
L 0 3.5 
" id="mb5c4df6674" style="stroke:#000000;stroke-width:0.8;"/>
      </defs>
      <g>
       <use style="stroke:#000000;stroke-width:0.8;" x="65.361932" xlink:href="#mb5c4df6674" y="239.758125"/>
      </g>
     </g>
     <g id="text_1">
      <!-- 0.0 -->
      <defs>
       <path d="M 31.78125 66.40625 
Q 24.171875 66.40625 20.328125 58.90625 
Q 16.5 51.421875 16.5 36.375 
Q 16.5 21.390625 20.328125 13.890625 
Q 24.171875 6.390625 31.78125 6.390625 
Q 39.453125 6.390625 43.28125 13.890625 
Q 47.125 21.390625 47.125 36.375 
Q 47.125 51.421875 43.28125 58.90625 
Q 39.453125 66.40625 31.78125 66.40625 
z
M 31.78125 74.21875 
Q 44.046875 74.21875 50.515625 64.515625 
Q 56.984375 54.828125 56.984375 36.375 
Q 56.984375 17.96875 50.515625 8.265625 
Q 44.046875 -1.421875 31.78125 -1.421875 
Q 19.53125 -1.421875 13.0625 8.265625 
Q 6.59375 17.96875 6.59375 36.375 
Q 6.59375 54.828125 13.0625 64.515625 
Q 19.53125 74.21875 31.78125 74.21875 
z
" id="DejaVuSans-48"/>
       <path d="M 10.6875 12.40625 
L 21 12.40625 
L 21 0 
L 10.6875 0 
z
" id="DejaVuSans-46"/>
      </defs>
      <g transform="translate(57.410369 254.356562)scale(0.1 -0.1)">
       <use xlink:href="#DejaVuSans-48"/>
       <use x="63.623047" xlink:href="#DejaVuSans-46"/>
       <use x="95.410156" xlink:href="#DejaVuSans-48"/>
      </g>
     </g>
    </g>
    <g id="xtick_2">
     <g id="line2d_2">
      <g>
       <use style="stroke:#000000;stroke-width:0.8;" x="126.03444" xlink:href="#mb5c4df6674" y="239.758125"/>
      </g>
     </g>
     <g id="text_2">
      <!-- 0.2 -->
      <defs>
       <path d="M 19.1875 8.296875 
L 53.609375 8.296875 
L 53.609375 0 
L 7.328125 0 
L 7.328125 8.296875 
Q 12.9375 14.109375 22.625 23.890625 
Q 32.328125 33.6875 34.8125 36.53125 
Q 39.546875 41.84375 41.421875 45.53125 
Q 43.3125 49.21875 43.3125 52.78125 
Q 43.3125 58.59375 39.234375 62.25 
Q 35.15625 65.921875 28.609375 65.921875 
Q 23.96875 65.921875 18.8125 64.3125 
Q 13.671875 62.703125 7.8125 59.421875 
L 7.8125 69.390625 
Q 13.765625 71.78125 18.9375 73 
Q 24.125 74.21875 28.421875 74.21875 
Q 39.75 74.21875 46.484375 68.546875 
Q 53.21875 62.890625 53.21875 53.421875 
Q 53.21875 48.921875 51.53125 44.890625 
Q 49.859375 40.875 45.40625 35.40625 
Q 44.1875 33.984375 37.640625 27.21875 
Q 31.109375 20.453125 19.1875 8.296875 
z
" id="DejaVuSans-50"/>
      </defs>
      <g transform="translate(118.082877 254.356562)scale(0.1 -0.1)">
       <use xlink:href="#DejaVuSans-48"/>
       <use x="63.623047" xlink:href="#DejaVuSans-46"/>
       <use x="95.410156" xlink:href="#DejaVuSans-50"/>
      </g>
     </g>
    </g>
    <g id="xtick_3">
     <g id="line2d_3">
      <g>
       <use style="stroke:#000000;stroke-width:0.8;" x="186.706948" xlink:href="#mb5c4df6674" y="239.758125"/>
      </g>
     </g>
     <g id="text_3">
      <!-- 0.4 -->
      <defs>
       <path d="M 37.796875 64.3125 
L 12.890625 25.390625 
L 37.796875 25.390625 
z
M 35.203125 72.90625 
L 47.609375 72.90625 
L 47.609375 25.390625 
L 58.015625 25.390625 
L 58.015625 17.1875 
L 47.609375 17.1875 
L 47.609375 0 
L 37.796875 0 
L 37.796875 17.1875 
L 4.890625 17.1875 
L 4.890625 26.703125 
z
" id="DejaVuSans-52"/>
      </defs>
      <g transform="translate(178.755385 254.356562)scale(0.1 -0.1)">
       <use xlink:href="#DejaVuSans-48"/>
       <use x="63.623047" xlink:href="#DejaVuSans-46"/>
       <use x="95.410156" xlink:href="#DejaVuSans-52"/>
      </g>
     </g>
    </g>
    <g id="xtick_4">
     <g id="line2d_4">
      <g>
       <use style="stroke:#000000;stroke-width:0.8;" x="247.379456" xlink:href="#mb5c4df6674" y="239.758125"/>
      </g>
     </g>
     <g id="text_4">
      <!-- 0.6 -->
      <defs>
       <path d="M 33.015625 40.375 
Q 26.375 40.375 22.484375 35.828125 
Q 18.609375 31.296875 18.609375 23.390625 
Q 18.609375 15.53125 22.484375 10.953125 
Q 26.375 6.390625 33.015625 6.390625 
Q 39.65625 6.390625 43.53125 10.953125 
Q 47.40625 15.53125 47.40625 23.390625 
Q 47.40625 31.296875 43.53125 35.828125 
Q 39.65625 40.375 33.015625 40.375 
z
M 52.59375 71.296875 
L 52.59375 62.3125 
Q 48.875 64.0625 45.09375 64.984375 
Q 41.3125 65.921875 37.59375 65.921875 
Q 27.828125 65.921875 22.671875 59.328125 
Q 17.53125 52.734375 16.796875 39.40625 
Q 19.671875 43.65625 24.015625 45.921875 
Q 28.375 48.1875 33.59375 48.1875 
Q 44.578125 48.1875 50.953125 41.515625 
Q 57.328125 34.859375 57.328125 23.390625 
Q 57.328125 12.15625 50.6875 5.359375 
Q 44.046875 -1.421875 33.015625 -1.421875 
Q 20.359375 -1.421875 13.671875 8.265625 
Q 6.984375 17.96875 6.984375 36.375 
Q 6.984375 53.65625 15.1875 63.9375 
Q 23.390625 74.21875 37.203125 74.21875 
Q 40.921875 74.21875 44.703125 73.484375 
Q 48.484375 72.75 52.59375 71.296875 
z
" id="DejaVuSans-54"/>
      </defs>
      <g transform="translate(239.427893 254.356562)scale(0.1 -0.1)">
       <use xlink:href="#DejaVuSans-48"/>
       <use x="63.623047" xlink:href="#DejaVuSans-46"/>
       <use x="95.410156" xlink:href="#DejaVuSans-54"/>
      </g>
     </g>
    </g>
    <g id="xtick_5">
     <g id="line2d_5">
      <g>
       <use style="stroke:#000000;stroke-width:0.8;" x="308.051964" xlink:href="#mb5c4df6674" y="239.758125"/>
      </g>
     </g>
     <g id="text_5">
      <!-- 0.8 -->
      <defs>
       <path d="M 31.78125 34.625 
Q 24.75 34.625 20.71875 30.859375 
Q 16.703125 27.09375 16.703125 20.515625 
Q 16.703125 13.921875 20.71875 10.15625 
Q 24.75 6.390625 31.78125 6.390625 
Q 38.8125 6.390625 42.859375 10.171875 
Q 46.921875 13.96875 46.921875 20.515625 
Q 46.921875 27.09375 42.890625 30.859375 
Q 38.875 34.625 31.78125 34.625 
z
M 21.921875 38.8125 
Q 15.578125 40.375 12.03125 44.71875 
Q 8.5 49.078125 8.5 55.328125 
Q 8.5 64.0625 14.71875 69.140625 
Q 20.953125 74.21875 31.78125 74.21875 
Q 42.671875 74.21875 48.875 69.140625 
Q 55.078125 64.0625 55.078125 55.328125 
Q 55.078125 49.078125 51.53125 44.71875 
Q 48 40.375 41.703125 38.8125 
Q 48.828125 37.15625 52.796875 32.3125 
Q 56.78125 27.484375 56.78125 20.515625 
Q 56.78125 9.90625 50.3125 4.234375 
Q 43.84375 -1.421875 31.78125 -1.421875 
Q 19.734375 -1.421875 13.25 4.234375 
Q 6.78125 9.90625 6.78125 20.515625 
Q 6.78125 27.484375 10.78125 32.3125 
Q 14.796875 37.15625 21.921875 38.8125 
z
M 18.3125 54.390625 
Q 18.3125 48.734375 21.84375 45.5625 
Q 25.390625 42.390625 31.78125 42.390625 
Q 38.140625 42.390625 41.71875 45.5625 
Q 45.3125 48.734375 45.3125 54.390625 
Q 45.3125 60.0625 41.71875 63.234375 
Q 38.140625 66.40625 31.78125 66.40625 
Q 25.390625 66.40625 21.84375 63.234375 
Q 18.3125 60.0625 18.3125 54.390625 
z
" id="DejaVuSans-56"/>
      </defs>
      <g transform="translate(300.100401 254.356562)scale(0.1 -0.1)">
       <use xlink:href="#DejaVuSans-48"/>
       <use x="63.623047" xlink:href="#DejaVuSans-46"/>
       <use x="95.410156" xlink:href="#DejaVuSans-56"/>
      </g>
     </g>
    </g>
    <g id="xtick_6">
     <g id="line2d_6">
      <g>
       <use style="stroke:#000000;stroke-width:0.8;" x="368.724472" xlink:href="#mb5c4df6674" y="239.758125"/>
      </g>
     </g>
     <g id="text_6">
      <!-- 1.0 -->
      <defs>
       <path d="M 12.40625 8.296875 
L 28.515625 8.296875 
L 28.515625 63.921875 
L 10.984375 60.40625 
L 10.984375 69.390625 
L 28.421875 72.90625 
L 38.28125 72.90625 
L 38.28125 8.296875 
L 54.390625 8.296875 
L 54.390625 0 
L 12.40625 0 
z
" id="DejaVuSans-49"/>
      </defs>
      <g transform="translate(360.772909 254.356562)scale(0.1 -0.1)">
       <use xlink:href="#DejaVuSans-49"/>
       <use x="63.623047" xlink:href="#DejaVuSans-46"/>
       <use x="95.410156" xlink:href="#DejaVuSans-48"/>
      </g>
     </g>
    </g>
    <g id="text_7">
     <!-- Time (ms) -->
     <defs>
      <path d="M -0.296875 72.90625 
L 61.375 72.90625 
L 61.375 64.59375 
L 35.5 64.59375 
L 35.5 0 
L 25.59375 0 
L 25.59375 64.59375 
L -0.296875 64.59375 
z
" id="DejaVuSans-84"/>
      <path d="M 9.421875 54.6875 
L 18.40625 54.6875 
L 18.40625 0 
L 9.421875 0 
z
M 9.421875 75.984375 
L 18.40625 75.984375 
L 18.40625 64.59375 
L 9.421875 64.59375 
z
" id="DejaVuSans-105"/>
      <path d="M 52 44.1875 
Q 55.375 50.25 60.0625 53.125 
Q 64.75 56 71.09375 56 
Q 79.640625 56 84.28125 50.015625 
Q 88.921875 44.046875 88.921875 33.015625 
L 88.921875 0 
L 79.890625 0 
L 79.890625 32.71875 
Q 79.890625 40.578125 77.09375 44.375 
Q 74.3125 48.1875 68.609375 48.1875 
Q 61.625 48.1875 57.5625 43.546875 
Q 53.515625 38.921875 53.515625 30.90625 
L 53.515625 0 
L 44.484375 0 
L 44.484375 32.71875 
Q 44.484375 40.625 41.703125 44.40625 
Q 38.921875 48.1875 33.109375 48.1875 
Q 26.21875 48.1875 22.15625 43.53125 
Q 18.109375 38.875 18.109375 30.90625 
L 18.109375 0 
L 9.078125 0 
L 9.078125 54.6875 
L 18.109375 54.6875 
L 18.109375 46.1875 
Q 21.1875 51.21875 25.484375 53.609375 
Q 29.78125 56 35.6875 56 
Q 41.65625 56 45.828125 52.96875 
Q 50 49.953125 52 44.1875 
z
" id="DejaVuSans-109"/>
      <path d="M 56.203125 29.59375 
L 56.203125 25.203125 
L 14.890625 25.203125 
Q 15.484375 15.921875 20.484375 11.0625 
Q 25.484375 6.203125 34.421875 6.203125 
Q 39.59375 6.203125 44.453125 7.46875 
Q 49.3125 8.734375 54.109375 11.28125 
L 54.109375 2.78125 
Q 49.265625 0.734375 44.1875 -0.34375 
Q 39.109375 -1.421875 33.890625 -1.421875 
Q 20.796875 -1.421875 13.15625 6.1875 
Q 5.515625 13.8125 5.515625 26.8125 
Q 5.515625 40.234375 12.765625 48.109375 
Q 20.015625 56 32.328125 56 
Q 43.359375 56 49.78125 48.890625 
Q 56.203125 41.796875 56.203125 29.59375 
z
M 47.21875 32.234375 
Q 47.125 39.59375 43.09375 43.984375 
Q 39.0625 48.390625 32.421875 48.390625 
Q 24.90625 48.390625 20.390625 44.140625 
Q 15.875 39.890625 15.1875 32.171875 
z
" id="DejaVuSans-101"/>
      <path id="DejaVuSans-32"/>
      <path d="M 31 75.875 
Q 24.46875 64.65625 21.28125 53.65625 
Q 18.109375 42.671875 18.109375 31.390625 
Q 18.109375 20.125 21.3125 9.0625 
Q 24.515625 -2 31 -13.1875 
L 23.1875 -13.1875 
Q 15.875 -1.703125 12.234375 9.375 
Q 8.59375 20.453125 8.59375 31.390625 
Q 8.59375 42.28125 12.203125 53.3125 
Q 15.828125 64.359375 23.1875 75.875 
z
" id="DejaVuSans-40"/>
      <path d="M 44.28125 53.078125 
L 44.28125 44.578125 
Q 40.484375 46.53125 36.375 47.5 
Q 32.28125 48.484375 27.875 48.484375 
Q 21.1875 48.484375 17.84375 46.4375 
Q 14.5 44.390625 14.5 40.28125 
Q 14.5 37.15625 16.890625 35.375 
Q 19.28125 33.59375 26.515625 31.984375 
L 29.59375 31.296875 
Q 39.15625 29.25 43.1875 25.515625 
Q 47.21875 21.78125 47.21875 15.09375 
Q 47.21875 7.46875 41.1875 3.015625 
Q 35.15625 -1.421875 24.609375 -1.421875 
Q 20.21875 -1.421875 15.453125 -0.5625 
Q 10.6875 0.296875 5.421875 2 
L 5.421875 11.28125 
Q 10.40625 8.6875 15.234375 7.390625 
Q 20.0625 6.109375 24.8125 6.109375 
Q 31.15625 6.109375 34.5625 8.28125 
Q 37.984375 10.453125 37.984375 14.40625 
Q 37.984375 18.0625 35.515625 20.015625 
Q 33.0625 21.96875 24.703125 23.78125 
L 21.578125 24.515625 
Q 13.234375 26.265625 9.515625 29.90625 
Q 5.8125 33.546875 5.8125 39.890625 
Q 5.8125 47.609375 11.28125 51.796875 
Q 16.75 56 26.8125 56 
Q 31.78125 56 36.171875 55.265625 
Q 40.578125 54.546875 44.28125 53.078125 
z
" id="DejaVuSans-115"/>
      <path d="M 8.015625 75.875 
L 15.828125 75.875 
Q 23.140625 64.359375 26.78125 53.3125 
Q 30.421875 42.28125 30.421875 31.390625 
Q 30.421875 20.453125 26.78125 9.375 
Q 23.140625 -1.703125 15.828125 -13.1875 
L 8.015625 -13.1875 
Q 14.5 -2 17.703125 9.0625 
Q 20.90625 20.125 20.90625 31.390625 
Q 20.90625 42.671875 17.703125 53.65625 
Q 14.5 64.65625 8.015625 75.875 
z
" id="DejaVuSans-41"/>
     </defs>
     <g transform="translate(192.190625 268.034687)scale(0.1 -0.1)">
      <use xlink:href="#DejaVuSans-84"/>
      <use x="61.037109" xlink:href="#DejaVuSans-105"/>
      <use x="88.820312" xlink:href="#DejaVuSans-109"/>
      <use x="186.232422" xlink:href="#DejaVuSans-101"/>
      <use x="247.755859" xlink:href="#DejaVuSans-32"/>
      <use x="279.542969" xlink:href="#DejaVuSans-40"/>
      <use x="318.556641" xlink:href="#DejaVuSans-109"/>
      <use x="415.96875" xlink:href="#DejaVuSans-115"/>
      <use x="468.068359" xlink:href="#DejaVuSans-41"/>
     </g>
    </g>
   </g>
   <g id="matplotlib.axis_2">
    <g id="ytick_1">
     <g id="line2d_7">
      <defs>
       <path d="M 0 0 
L -3.5 0 
" id="m450a805498" style="stroke:#000000;stroke-width:0.8;"/>
      </defs>
      <g>
       <use style="stroke:#000000;stroke-width:0.8;" x="50.14375" xlink:href="#m450a805498" y="229.950708"/>
      </g>
     </g>
     <g id="text_8">
      <!-- 0.00 -->
      <g transform="translate(20.878125 233.749927)scale(0.1 -0.1)">
       <use xlink:href="#DejaVuSans-48"/>
       <use x="63.623047" xlink:href="#DejaVuSans-46"/>
       <use x="95.410156" xlink:href="#DejaVuSans-48"/>
       <use x="159.033203" xlink:href="#DejaVuSans-48"/>
      </g>
     </g>
    </g>
    <g id="ytick_2">
     <g id="line2d_8">
      <g>
       <use style="stroke:#000000;stroke-width:0.8;" x="50.14375" xlink:href="#m450a805498" y="187.715769"/>
      </g>
     </g>
     <g id="text_9">
      <!-- 0.05 -->
      <defs>
       <path d="M 10.796875 72.90625 
L 49.515625 72.90625 
L 49.515625 64.59375 
L 19.828125 64.59375 
L 19.828125 46.734375 
Q 21.96875 47.46875 24.109375 47.828125 
Q 26.265625 48.1875 28.421875 48.1875 
Q 40.625 48.1875 47.75 41.5 
Q 54.890625 34.8125 54.890625 23.390625 
Q 54.890625 11.625 47.5625 5.09375 
Q 40.234375 -1.421875 26.90625 -1.421875 
Q 22.3125 -1.421875 17.546875 -0.640625 
Q 12.796875 0.140625 7.71875 1.703125 
L 7.71875 11.625 
Q 12.109375 9.234375 16.796875 8.0625 
Q 21.484375 6.890625 26.703125 6.890625 
Q 35.15625 6.890625 40.078125 11.328125 
Q 45.015625 15.765625 45.015625 23.390625 
Q 45.015625 31 40.078125 35.4375 
Q 35.15625 39.890625 26.703125 39.890625 
Q 22.75 39.890625 18.8125 39.015625 
Q 14.890625 38.140625 10.796875 36.28125 
z
" id="DejaVuSans-53"/>
      </defs>
      <g transform="translate(20.878125 191.514988)scale(0.1 -0.1)">
       <use xlink:href="#DejaVuSans-48"/>
       <use x="63.623047" xlink:href="#DejaVuSans-46"/>
       <use x="95.410156" xlink:href="#DejaVuSans-48"/>
       <use x="159.033203" xlink:href="#DejaVuSans-53"/>
      </g>
     </g>
    </g>
    <g id="ytick_3">
     <g id="line2d_9">
      <g>
       <use style="stroke:#000000;stroke-width:0.8;" x="50.14375" xlink:href="#m450a805498" y="145.48083"/>
      </g>
     </g>
     <g id="text_10">
      <!-- 0.10 -->
      <g transform="translate(20.878125 149.280049)scale(0.1 -0.1)">
       <use xlink:href="#DejaVuSans-48"/>
       <use x="63.623047" xlink:href="#DejaVuSans-46"/>
       <use x="95.410156" xlink:href="#DejaVuSans-49"/>
       <use x="159.033203" xlink:href="#DejaVuSans-48"/>
      </g>
     </g>
    </g>
    <g id="ytick_4">
     <g id="line2d_10">
      <g>
       <use style="stroke:#000000;stroke-width:0.8;" x="50.14375" xlink:href="#m450a805498" y="103.245891"/>
      </g>
     </g>
     <g id="text_11">
      <!-- 0.15 -->
      <g transform="translate(20.878125 107.04511)scale(0.1 -0.1)">
       <use xlink:href="#DejaVuSans-48"/>
       <use x="63.623047" xlink:href="#DejaVuSans-46"/>
       <use x="95.410156" xlink:href="#DejaVuSans-49"/>
       <use x="159.033203" xlink:href="#DejaVuSans-53"/>
      </g>
     </g>
    </g>
    <g id="ytick_5">
     <g id="line2d_11">
      <g>
       <use style="stroke:#000000;stroke-width:0.8;" x="50.14375" xlink:href="#m450a805498" y="61.010952"/>
      </g>
     </g>
     <g id="text_12">
      <!-- 0.20 -->
      <g transform="translate(20.878125 64.810171)scale(0.1 -0.1)">
       <use xlink:href="#DejaVuSans-48"/>
       <use x="63.623047" xlink:href="#DejaVuSans-46"/>
       <use x="95.410156" xlink:href="#DejaVuSans-50"/>
       <use x="159.033203" xlink:href="#DejaVuSans-48"/>
      </g>
     </g>
    </g>
    <g id="text_13">
     <!-- Absorbance227 -->
     <defs>
      <path d="M 34.1875 63.1875 
L 20.796875 26.90625 
L 47.609375 26.90625 
z
M 28.609375 72.90625 
L 39.796875 72.90625 
L 67.578125 0 
L 57.328125 0 
L 50.6875 18.703125 
L 17.828125 18.703125 
L 11.1875 0 
L 0.78125 0 
z
" id="DejaVuSans-65"/>
      <path d="M 48.6875 27.296875 
Q 48.6875 37.203125 44.609375 42.84375 
Q 40.53125 48.484375 33.40625 48.484375 
Q 26.265625 48.484375 22.1875 42.84375 
Q 18.109375 37.203125 18.109375 27.296875 
Q 18.109375 17.390625 22.1875 11.75 
Q 26.265625 6.109375 33.40625 6.109375 
Q 40.53125 6.109375 44.609375 11.75 
Q 48.6875 17.390625 48.6875 27.296875 
z
M 18.109375 46.390625 
Q 20.953125 51.265625 25.265625 53.625 
Q 29.59375 56 35.59375 56 
Q 45.5625 56 51.78125 48.09375 
Q 58.015625 40.1875 58.015625 27.296875 
Q 58.015625 14.40625 51.78125 6.484375 
Q 45.5625 -1.421875 35.59375 -1.421875 
Q 29.59375 -1.421875 25.265625 0.953125 
Q 20.953125 3.328125 18.109375 8.203125 
L 18.109375 0 
L 9.078125 0 
L 9.078125 75.984375 
L 18.109375 75.984375 
z
" id="DejaVuSans-98"/>
      <path d="M 30.609375 48.390625 
Q 23.390625 48.390625 19.1875 42.75 
Q 14.984375 37.109375 14.984375 27.296875 
Q 14.984375 17.484375 19.15625 11.84375 
Q 23.34375 6.203125 30.609375 6.203125 
Q 37.796875 6.203125 41.984375 11.859375 
Q 46.1875 17.53125 46.1875 27.296875 
Q 46.1875 37.015625 41.984375 42.703125 
Q 37.796875 48.390625 30.609375 48.390625 
z
M 30.609375 56 
Q 42.328125 56 49.015625 48.375 
Q 55.71875 40.765625 55.71875 27.296875 
Q 55.71875 13.875 49.015625 6.21875 
Q 42.328125 -1.421875 30.609375 -1.421875 
Q 18.84375 -1.421875 12.171875 6.21875 
Q 5.515625 13.875 5.515625 27.296875 
Q 5.515625 40.765625 12.171875 48.375 
Q 18.84375 56 30.609375 56 
z
" id="DejaVuSans-111"/>
      <path d="M 41.109375 46.296875 
Q 39.59375 47.171875 37.8125 47.578125 
Q 36.03125 48 33.890625 48 
Q 26.265625 48 22.1875 43.046875 
Q 18.109375 38.09375 18.109375 28.8125 
L 18.109375 0 
L 9.078125 0 
L 9.078125 54.6875 
L 18.109375 54.6875 
L 18.109375 46.1875 
Q 20.953125 51.171875 25.484375 53.578125 
Q 30.03125 56 36.53125 56 
Q 37.453125 56 38.578125 55.875 
Q 39.703125 55.765625 41.0625 55.515625 
z
" id="DejaVuSans-114"/>
      <path d="M 34.28125 27.484375 
Q 23.390625 27.484375 19.1875 25 
Q 14.984375 22.515625 14.984375 16.5 
Q 14.984375 11.71875 18.140625 8.90625 
Q 21.296875 6.109375 26.703125 6.109375 
Q 34.1875 6.109375 38.703125 11.40625 
Q 43.21875 16.703125 43.21875 25.484375 
L 43.21875 27.484375 
z
M 52.203125 31.203125 
L 52.203125 0 
L 43.21875 0 
L 43.21875 8.296875 
Q 40.140625 3.328125 35.546875 0.953125 
Q 30.953125 -1.421875 24.3125 -1.421875 
Q 15.921875 -1.421875 10.953125 3.296875 
Q 6 8.015625 6 15.921875 
Q 6 25.140625 12.171875 29.828125 
Q 18.359375 34.515625 30.609375 34.515625 
L 43.21875 34.515625 
L 43.21875 35.40625 
Q 43.21875 41.609375 39.140625 45 
Q 35.0625 48.390625 27.6875 48.390625 
Q 23 48.390625 18.546875 47.265625 
Q 14.109375 46.140625 10.015625 43.890625 
L 10.015625 52.203125 
Q 14.9375 54.109375 19.578125 55.046875 
Q 24.21875 56 28.609375 56 
Q 40.484375 56 46.34375 49.84375 
Q 52.203125 43.703125 52.203125 31.203125 
z
" id="DejaVuSans-97"/>
      <path d="M 54.890625 33.015625 
L 54.890625 0 
L 45.90625 0 
L 45.90625 32.71875 
Q 45.90625 40.484375 42.875 44.328125 
Q 39.84375 48.1875 33.796875 48.1875 
Q 26.515625 48.1875 22.3125 43.546875 
Q 18.109375 38.921875 18.109375 30.90625 
L 18.109375 0 
L 9.078125 0 
L 9.078125 54.6875 
L 18.109375 54.6875 
L 18.109375 46.1875 
Q 21.34375 51.125 25.703125 53.5625 
Q 30.078125 56 35.796875 56 
Q 45.21875 56 50.046875 50.171875 
Q 54.890625 44.34375 54.890625 33.015625 
z
" id="DejaVuSans-110"/>
      <path d="M 48.78125 52.59375 
L 48.78125 44.1875 
Q 44.96875 46.296875 41.140625 47.34375 
Q 37.3125 48.390625 33.40625 48.390625 
Q 24.65625 48.390625 19.8125 42.84375 
Q 14.984375 37.3125 14.984375 27.296875 
Q 14.984375 17.28125 19.8125 11.734375 
Q 24.65625 6.203125 33.40625 6.203125 
Q 37.3125 6.203125 41.140625 7.25 
Q 44.96875 8.296875 48.78125 10.40625 
L 48.78125 2.09375 
Q 45.015625 0.34375 40.984375 -0.53125 
Q 36.96875 -1.421875 32.421875 -1.421875 
Q 20.0625 -1.421875 12.78125 6.34375 
Q 5.515625 14.109375 5.515625 27.296875 
Q 5.515625 40.671875 12.859375 48.328125 
Q 20.21875 56 33.015625 56 
Q 37.15625 56 41.109375 55.140625 
Q 45.0625 54.296875 48.78125 52.59375 
z
" id="DejaVuSans-99"/>
      <path d="M 8.203125 72.90625 
L 55.078125 72.90625 
L 55.078125 68.703125 
L 28.609375 0 
L 18.3125 0 
L 43.21875 64.59375 
L 8.203125 64.59375 
z
" id="DejaVuSans-55"/>
     </defs>
     <g transform="translate(14.798438 170.12875)rotate(-90)scale(0.1 -0.1)">
      <use xlink:href="#DejaVuSans-65"/>
      <use x="68.408203" xlink:href="#DejaVuSans-98"/>
      <use x="131.884766" xlink:href="#DejaVuSans-115"/>
      <use x="183.984375" xlink:href="#DejaVuSans-111"/>
      <use x="245.166016" xlink:href="#DejaVuSans-114"/>
      <use x="286.279297" xlink:href="#DejaVuSans-98"/>
      <use x="349.755859" xlink:href="#DejaVuSans-97"/>
      <use x="411.035156" xlink:href="#DejaVuSans-110"/>
      <use x="474.414062" xlink:href="#DejaVuSans-99"/>
      <use x="529.394531" xlink:href="#DejaVuSans-101"/>
      <use x="590.917969" xlink:href="#DejaVuSans-50"/>
      <use x="654.541016" xlink:href="#DejaVuSans-50"/>
      <use x="718.164062" xlink:href="#DejaVuSans-55"/>
     </g>
    </g>
   </g>
   <g id="line2d_12">
    <defs>
     <path d="M 0 3 
C 0.795609 3 1.55874 2.683901 2.12132 2.12132 
C 2.683901 1.55874 3 0.795609 3 0 
C 3 -0.795609 2.683901 -1.55874 2.12132 -2.12132 
C 1.55874 -2.683901 0.795609 -3 0 -3 
C -0.795609 -3 -1.55874 -2.683901 -2.12132 -2.12132 
C -2.683901 -1.55874 -3 -0.795609 -3 0 
C -3 0.795609 -2.683901 1.55874 -2.12132 2.12132 
C -1.55874 2.683901 -0.795609 3 0 3 
z
" id="m2d66892e0c" style="stroke:#000000;"/>
    </defs>
    <g clip-path="url(#pc5c913370f)">
     <use style="stroke:#000000;" x="65.361932" xlink:href="#m2d66892e0c" y="156.466813"/>
     <use style="stroke:#000000;" x="65.361937" xlink:href="#m2d66892e0c" y="156.466813"/>
     <use style="stroke:#000000;" x="65.361951" xlink:href="#m2d66892e0c" y="156.466813"/>
     <use style="stroke:#000000;" x="65.361966" xlink:href="#m2d66892e0c" y="156.466813"/>
     <use style="stroke:#000000;" x="65.361981" xlink:href="#m2d66892e0c" y="156.466898"/>
     <use style="stroke:#000000;" x="65.361996" xlink:href="#m2d66892e0c" y="156.466898"/>
     <use style="stroke:#000000;" x="65.362026" xlink:href="#m2d66892e0c" y="156.466898"/>
     <use style="stroke:#000000;" x="65.362083" xlink:href="#m2d66892e0c" y="156.466982"/>
     <use style="stroke:#000000;" x="65.362183" xlink:href="#m2d66892e0c" y="156.467067"/>
     <use style="stroke:#000000;" x="65.362363" xlink:href="#m2d66892e0c" y="156.467236"/>
     <use style="stroke:#000000;" x="65.362711" xlink:href="#m2d66892e0c" y="156.467574"/>
     <use style="stroke:#000000;" x="65.363282" xlink:href="#m2d66892e0c" y="156.46808"/>
     <use style="stroke:#000000;" x="65.363849" xlink:href="#m2d66892e0c" y="156.468587"/>
     <use style="stroke:#000000;" x="65.364419" xlink:href="#m2d66892e0c" y="156.469094"/>
     <use style="stroke:#000000;" x="65.364996" xlink:href="#m2d66892e0c" y="156.469685"/>
     <use style="stroke:#000000;" x="65.365603" xlink:href="#m2d66892e0c" y="156.470192"/>
     <use style="stroke:#000000;" x="65.36624" xlink:href="#m2d66892e0c" y="156.470783"/>
     <use style="stroke:#000000;" x="65.366877" xlink:href="#m2d66892e0c" y="156.47129"/>
     <use style="stroke:#000000;" x="65.367969" xlink:href="#m2d66892e0c" y="156.472304"/>
     <use style="stroke:#000000;" x="65.369091" xlink:href="#m2d66892e0c" y="156.473233"/>
     <use style="stroke:#000000;" x="65.370183" xlink:href="#m2d66892e0c" y="156.474162"/>
     <use style="stroke:#000000;" x="65.371306" xlink:href="#m2d66892e0c" y="156.475091"/>
     <use style="stroke:#000000;" x="65.37346" xlink:href="#m2d66892e0c" y="156.476865"/>
     <use style="stroke:#000000;" x="65.378131" xlink:href="#m2d66892e0c" y="156.480413"/>
     <use style="stroke:#000000;" x="65.382773" xlink:href="#m2d66892e0c" y="156.483707"/>
     <use style="stroke:#000000;" x="65.387414" xlink:href="#m2d66892e0c" y="156.486748"/>
     <use style="stroke:#000000;" x="65.392056" xlink:href="#m2d66892e0c" y="156.489451"/>
     <use style="stroke:#000000;" x="65.396819" xlink:href="#m2d66892e0c" y="156.491985"/>
     <use style="stroke:#000000;" x="65.401369" xlink:href="#m2d66892e0c" y="156.494097"/>
     <use style="stroke:#000000;" x="65.406829" xlink:href="#m2d66892e0c" y="156.496293"/>
     <use style="stroke:#000000;" x="65.411987" xlink:href="#m2d66892e0c" y="156.498152"/>
     <use style="stroke:#000000;" x="65.417447" xlink:href="#m2d66892e0c" y="156.499588"/>
     <use style="stroke:#000000;" x="65.422908" xlink:href="#m2d66892e0c" y="156.500686"/>
     <use style="stroke:#000000;" x="65.428368" xlink:href="#m2d66892e0c" y="156.501446"/>
     <use style="stroke:#000000;" x="65.437469" xlink:href="#m2d66892e0c" y="156.501953"/>
     <use style="stroke:#000000;" x="65.453851" xlink:href="#m2d66892e0c" y="156.500179"/>
     <use style="stroke:#000000;" x="65.470232" xlink:href="#m2d66892e0c" y="156.49528"/>
     <use style="stroke:#000000;" x="65.486614" xlink:href="#m2d66892e0c" y="156.487171"/>
     <use style="stroke:#000000;" x="65.502692" xlink:href="#m2d66892e0c" y="156.476021"/>
     <use style="stroke:#000000;" x="65.519074" xlink:href="#m2d66892e0c" y="156.461745"/>
     <use style="stroke:#000000;" x="65.535455" xlink:href="#m2d66892e0c" y="156.444513"/>
     <use style="stroke:#000000;" x="65.551837" xlink:href="#m2d66892e0c" y="156.424325"/>
     <use style="stroke:#000000;" x="65.567915" xlink:href="#m2d66892e0c" y="156.401265"/>
     <use style="stroke:#000000;" x="65.584297" xlink:href="#m2d66892e0c" y="156.375332"/>
     <use style="stroke:#000000;" x="65.608869" xlink:href="#m2d66892e0c" y="156.33107"/>
     <use style="stroke:#000000;" x="65.633441" xlink:href="#m2d66892e0c" y="156.280726"/>
     <use style="stroke:#000000;" x="65.65771" xlink:href="#m2d66892e0c" y="156.2243"/>
     <use style="stroke:#000000;" x="65.683496" xlink:href="#m2d66892e0c" y="156.161962"/>
     <use style="stroke:#000000;" x="65.707765" xlink:href="#m2d66892e0c" y="156.093879"/>
     <use style="stroke:#000000;" x="65.732034" xlink:href="#m2d66892e0c" y="156.020221"/>
     <use style="stroke:#000000;" x="65.768438" xlink:href="#m2d66892e0c" y="155.895712"/>
     <use style="stroke:#000000;" x="65.807875" xlink:href="#m2d66892e0c" y="155.758787"/>
     <use style="stroke:#000000;" x="65.844278" xlink:href="#m2d66892e0c" y="155.609782"/>
     <use style="stroke:#000000;" x="65.883715" xlink:href="#m2d66892e0c" y="155.449205"/>
     <use style="stroke:#000000;" x="65.920119" xlink:href="#m2d66892e0c" y="155.277477"/>
     <use style="stroke:#000000;" x="65.956522" xlink:href="#m2d66892e0c" y="155.095107"/>
     <use style="stroke:#000000;" x="65.99596" xlink:href="#m2d66892e0c" y="154.902516"/>
     <use style="stroke:#000000;" x="66.032363" xlink:href="#m2d66892e0c" y="154.700126"/>
     <use style="stroke:#000000;" x="66.0718" xlink:href="#m2d66892e0c" y="154.488275"/>
     <use style="stroke:#000000;" x="66.108204" xlink:href="#m2d66892e0c" y="154.267556"/>
     <use style="stroke:#000000;" x="66.147641" xlink:href="#m2d66892e0c" y="154.038135"/>
     <use style="stroke:#000000;" x="66.184044" xlink:href="#m2d66892e0c" y="153.800522"/>
     <use style="stroke:#000000;" x="66.223481" xlink:href="#m2d66892e0c" y="153.555052"/>
     <use style="stroke:#000000;" x="66.259885" xlink:href="#m2d66892e0c" y="153.302149"/>
     <use style="stroke:#000000;" x="66.296288" xlink:href="#m2d66892e0c" y="153.041982"/>
     <use style="stroke:#000000;" x="66.335726" xlink:href="#m2d66892e0c" y="152.775057"/>
     <use style="stroke:#000000;" x="66.372129" xlink:href="#m2d66892e0c" y="152.501628"/>
     <use style="stroke:#000000;" x="66.411566" xlink:href="#m2d66892e0c" y="152.222033"/>
     <use style="stroke:#000000;" x="66.44797" xlink:href="#m2d66892e0c" y="151.936609"/>
     <use style="stroke:#000000;" x="66.487407" xlink:href="#m2d66892e0c" y="151.645611"/>
     <use style="stroke:#000000;" x="66.52381" xlink:href="#m2d66892e0c" y="151.349206"/>
     <use style="stroke:#000000;" x="66.563247" xlink:href="#m2d66892e0c" y="151.047902"/>
     <use style="stroke:#000000;" x="66.599651" xlink:href="#m2d66892e0c" y="150.741867"/>
     <use style="stroke:#000000;" x="66.636054" xlink:href="#m2d66892e0c" y="150.431272"/>
     <use style="stroke:#000000;" x="66.675492" xlink:href="#m2d66892e0c" y="150.116537"/>
     <use style="stroke:#000000;" x="66.711895" xlink:href="#m2d66892e0c" y="149.797748"/>
     <use style="stroke:#000000;" x="66.751332" xlink:href="#m2d66892e0c" y="149.475326"/>
     <use style="stroke:#000000;" x="66.787736" xlink:href="#m2d66892e0c" y="149.149272"/>
     <use style="stroke:#000000;" x="66.827173" xlink:href="#m2d66892e0c" y="148.820009"/>
     <use style="stroke:#000000;" x="66.863576" xlink:href="#m2d66892e0c" y="148.48762"/>
     <use style="stroke:#000000;" x="66.903014" xlink:href="#m2d66892e0c" y="148.152359"/>
     <use style="stroke:#000000;" x="66.939417" xlink:href="#m2d66892e0c" y="147.814395"/>
     <use style="stroke:#000000;" x="66.978854" xlink:href="#m2d66892e0c" y="147.474066"/>
     <use style="stroke:#000000;" x="67.015258" xlink:href="#m2d66892e0c" y="147.131371"/>
     <use style="stroke:#000000;" x="67.051661" xlink:href="#m2d66892e0c" y="146.786565"/>
     <use style="stroke:#000000;" x="67.091098" xlink:href="#m2d66892e0c" y="146.439816"/>
     <use style="stroke:#000000;" x="67.127502" xlink:href="#m2d66892e0c" y="146.091294"/>
     <use style="stroke:#000000;" x="67.185141" xlink:href="#m2d66892e0c" y="145.563441"/>
     <use style="stroke:#000000;" x="67.24278" xlink:href="#m2d66892e0c" y="145.032295"/>
     <use style="stroke:#000000;" x="67.300418" xlink:href="#m2d66892e0c" y="144.498445"/>
     <use style="stroke:#000000;" x="67.355024" xlink:href="#m2d66892e0c" y="143.962906"/>
     <use style="stroke:#000000;" x="67.412663" xlink:href="#m2d66892e0c" y="143.425678"/>
     <use style="stroke:#000000;" x="67.470301" xlink:href="#m2d66892e0c" y="142.88676"/>
     <use style="stroke:#000000;" x="67.52794" xlink:href="#m2d66892e0c" y="142.346997"/>
     <use style="stroke:#000000;" x="67.582546" xlink:href="#m2d66892e0c" y="141.807235"/>
     <use style="stroke:#000000;" x="67.640184" xlink:href="#m2d66892e0c" y="141.267472"/>
     <use style="stroke:#000000;" x="67.697823" xlink:href="#m2d66892e0c" y="140.726865"/>
     <use style="stroke:#000000;" x="67.755462" xlink:href="#m2d66892e0c" y="140.187947"/>
     <use style="stroke:#000000;" x="67.810068" xlink:href="#m2d66892e0c" y="139.64903"/>
     <use style="stroke:#000000;" x="67.867706" xlink:href="#m2d66892e0c" y="139.111801"/>
     <use style="stroke:#000000;" x="67.925345" xlink:href="#m2d66892e0c" y="138.575417"/>
     <use style="stroke:#000000;" x="67.982984" xlink:href="#m2d66892e0c" y="138.040723"/>
     <use style="stroke:#000000;" x="68.037589" xlink:href="#m2d66892e0c" y="137.508563"/>
     <use style="stroke:#000000;" x="68.095228" xlink:href="#m2d66892e0c" y="136.978092"/>
     <use style="stroke:#000000;" x="68.152867" xlink:href="#m2d66892e0c" y="136.449311"/>
     <use style="stroke:#000000;" x="68.210506" xlink:href="#m2d66892e0c" y="135.923908"/>
     <use style="stroke:#000000;" x="68.265111" xlink:href="#m2d66892e0c" y="135.401039"/>
     <use style="stroke:#000000;" x="68.32275" xlink:href="#m2d66892e0c" y="134.880705"/>
     <use style="stroke:#000000;" x="68.380389" xlink:href="#m2d66892e0c" y="134.362905"/>
     <use style="stroke:#000000;" x="68.425893" xlink:href="#m2d66892e0c" y="133.848483"/>
     <use style="stroke:#000000;" x="68.486566" xlink:href="#m2d66892e0c" y="133.338285"/>
     <use style="stroke:#000000;" x="68.547238" xlink:href="#m2d66892e0c" y="132.830621"/>
     <use style="stroke:#000000;" x="68.607911" xlink:href="#m2d66892e0c" y="132.326336"/>
     <use style="stroke:#000000;" x="68.668584" xlink:href="#m2d66892e0c" y="131.826274"/>
     <use style="stroke:#000000;" x="68.729256" xlink:href="#m2d66892e0c" y="131.328747"/>
     <use style="stroke:#000000;" x="68.789929" xlink:href="#m2d66892e0c" y="130.836287"/>
     <use style="stroke:#000000;" x="68.820265" xlink:href="#m2d66892e0c" y="130.347207"/>
     <use style="stroke:#000000;" x="68.880937" xlink:href="#m2d66892e0c" y="129.862349"/>
     <use style="stroke:#000000;" x="68.94161" xlink:href="#m2d66892e0c" y="129.380871"/>
     <use style="stroke:#000000;" x="69.002282" xlink:href="#m2d66892e0c" y="128.904461"/>
     <use style="stroke:#000000;" x="69.062955" xlink:href="#m2d66892e0c" y="128.43143"/>
     <use style="stroke:#000000;" x="69.123627" xlink:href="#m2d66892e0c" y="127.963467"/>
     <use style="stroke:#000000;" x="69.1843" xlink:href="#m2d66892e0c" y="127.498882"/>
     <use style="stroke:#000000;" x="69.244972" xlink:href="#m2d66892e0c" y="127.038521"/>
     <use style="stroke:#000000;" x="69.275309" xlink:href="#m2d66892e0c" y="126.583229"/>
     <use style="stroke:#000000;" x="69.335981" xlink:href="#m2d66892e0c" y="126.13216"/>
     <use style="stroke:#000000;" x="69.396654" xlink:href="#m2d66892e0c" y="125.685314"/>
     <use style="stroke:#000000;" x="69.487662" xlink:href="#m2d66892e0c" y="125.021381"/>
     <use style="stroke:#000000;" x="69.578671" xlink:href="#m2d66892e0c" y="124.367584"/>
     <use style="stroke:#000000;" x="69.66968" xlink:href="#m2d66892e0c" y="123.723923"/>
     <use style="stroke:#000000;" x="69.760689" xlink:href="#m2d66892e0c" y="123.090399"/>
     <use style="stroke:#000000;" x="69.821361" xlink:href="#m2d66892e0c" y="122.467012"/>
     <use style="stroke:#000000;" x="69.91237" xlink:href="#m2d66892e0c" y="121.85376"/>
     <use style="stroke:#000000;" x="70.003379" xlink:href="#m2d66892e0c" y="121.25149"/>
     <use style="stroke:#000000;" x="70.094387" xlink:href="#m2d66892e0c" y="120.658512"/>
     <use style="stroke:#000000;" x="70.185396" xlink:href="#m2d66892e0c" y="120.076514"/>
     <use style="stroke:#000000;" x="70.246069" xlink:href="#m2d66892e0c" y="119.504653"/>
     <use style="stroke:#000000;" x="70.337077" xlink:href="#m2d66892e0c" y="118.942084"/>
     <use style="stroke:#000000;" x="70.428086" xlink:href="#m2d66892e0c" y="118.390495"/>
     <use style="stroke:#000000;" x="70.519095" xlink:href="#m2d66892e0c" y="117.848199"/>
     <use style="stroke:#000000;" x="70.610104" xlink:href="#m2d66892e0c" y="117.316883"/>
     <use style="stroke:#000000;" x="70.701113" xlink:href="#m2d66892e0c" y="116.794859"/>
     <use style="stroke:#000000;" x="70.761785" xlink:href="#m2d66892e0c" y="116.282127"/>
     <use style="stroke:#000000;" x="70.852794" xlink:href="#m2d66892e0c" y="115.780376"/>
     <use style="stroke:#000000;" x="70.943803" xlink:href="#m2d66892e0c" y="115.287072"/>
     <use style="stroke:#000000;" x="71.034811" xlink:href="#m2d66892e0c" y="114.803904"/>
     <use style="stroke:#000000;" x="71.12582" xlink:href="#m2d66892e0c" y="114.330028"/>
     <use style="stroke:#000000;" x="71.186493" xlink:href="#m2d66892e0c" y="113.866289"/>
     <use style="stroke:#000000;" x="71.277501" xlink:href="#m2d66892e0c" y="113.410996"/>
     <use style="stroke:#000000;" x="71.36851" xlink:href="#m2d66892e0c" y="112.964995"/>
     <use style="stroke:#000000;" x="71.459519" xlink:href="#m2d66892e0c" y="112.52913"/>
     <use style="stroke:#000000;" x="71.550528" xlink:href="#m2d66892e0c" y="112.100868"/>
     <use style="stroke:#000000;" x="71.641536" xlink:href="#m2d66892e0c" y="111.682742"/>
     <use style="stroke:#000000;" x="71.702209" xlink:href="#m2d66892e0c" y="111.272219"/>
     <use style="stroke:#000000;" x="71.793218" xlink:href="#m2d66892e0c" y="110.871831"/>
     <use style="stroke:#000000;" x="71.884226" xlink:href="#m2d66892e0c" y="110.479047"/>
     <use style="stroke:#000000;" x="71.975235" xlink:href="#m2d66892e0c" y="110.094709"/>
     <use style="stroke:#000000;" x="72.066244" xlink:href="#m2d66892e0c" y="109.719662"/>
     <use style="stroke:#000000;" x="72.157253" xlink:href="#m2d66892e0c" y="109.352218"/>
     <use style="stroke:#000000;" x="72.217925" xlink:href="#m2d66892e0c" y="108.993221"/>
     <use style="stroke:#000000;" x="72.308934" xlink:href="#m2d66892e0c" y="108.641827"/>
     <use style="stroke:#000000;" x="72.399943" xlink:href="#m2d66892e0c" y="108.298879"/>
     <use style="stroke:#000000;" x="72.490952" xlink:href="#m2d66892e0c" y="107.963534"/>
     <use style="stroke:#000000;" x="72.58196" xlink:href="#m2d66892e0c" y="107.636635"/>
     <use style="stroke:#000000;" x="72.642633" xlink:href="#m2d66892e0c" y="107.316494"/>
     <use style="stroke:#000000;" x="72.733642" xlink:href="#m2d66892e0c" y="107.0048"/>
     <use style="stroke:#000000;" x="72.82465" xlink:href="#m2d66892e0c" y="106.699864"/>
     <use style="stroke:#000000;" x="72.945995" xlink:href="#m2d66892e0c" y="106.253019"/>
     <use style="stroke:#000000;" x="73.097677" xlink:href="#m2d66892e0c" y="105.821377"/>
     <use style="stroke:#000000;" x="73.219022" xlink:href="#m2d66892e0c" y="105.40663"/>
     <use style="stroke:#000000;" x="73.340367" xlink:href="#m2d66892e0c" y="105.007933"/>
     <use style="stroke:#000000;" x="73.461712" xlink:href="#m2d66892e0c" y="104.625284"/>
     <use style="stroke:#000000;" x="73.613393" xlink:href="#m2d66892e0c" y="104.256995"/>
     <use style="stroke:#000000;" x="73.734738" xlink:href="#m2d66892e0c" y="103.903911"/>
     <use style="stroke:#000000;" x="73.856083" xlink:href="#m2d66892e0c" y="103.566032"/>
     <use style="stroke:#000000;" x="74.007764" xlink:href="#m2d66892e0c" y="103.241667"/>
     <use style="stroke:#000000;" x="74.129109" xlink:href="#m2d66892e0c" y="102.931663"/>
     <use style="stroke:#000000;" x="74.250454" xlink:href="#m2d66892e0c" y="102.635174"/>
     <use style="stroke:#000000;" x="74.371799" xlink:href="#m2d66892e0c" y="102.3522"/>
     <use style="stroke:#000000;" x="74.523481" xlink:href="#m2d66892e0c" y="102.081896"/>
     <use style="stroke:#000000;" x="74.644826" xlink:href="#m2d66892e0c" y="101.825108"/>
     <use style="stroke:#000000;" x="74.766171" xlink:href="#m2d66892e0c" y="101.580145"/>
     <use style="stroke:#000000;" x="74.917852" xlink:href="#m2d66892e0c" y="101.347853"/>
     <use style="stroke:#000000;" x="75.039197" xlink:href="#m2d66892e0c" y="101.127386"/>
     <use style="stroke:#000000;" x="75.160542" xlink:href="#m2d66892e0c" y="100.918746"/>
     <use style="stroke:#000000;" x="75.281887" xlink:href="#m2d66892e0c" y="100.721086"/>
     <use style="stroke:#000000;" x="75.433568" xlink:href="#m2d66892e0c" y="100.534408"/>
     <use style="stroke:#000000;" x="75.615586" xlink:href="#m2d66892e0c" y="100.273396"/>
     <use style="stroke:#000000;" x="75.827939" xlink:href="#m2d66892e0c" y="100.03688"/>
     <use style="stroke:#000000;" x="76.009957" xlink:href="#m2d66892e0c" y="99.823171"/>
     <use style="stroke:#000000;" x="76.191974" xlink:href="#m2d66892e0c" y="99.631425"/>
     <use style="stroke:#000000;" x="76.404328" xlink:href="#m2d66892e0c" y="99.462485"/>
     <use style="stroke:#000000;" x="76.586346" xlink:href="#m2d66892e0c" y="99.312973"/>
     <use style="stroke:#000000;" x="76.7987" xlink:href="#m2d66892e0c" y="99.184579"/>
     <use style="stroke:#000000;" x="76.980717" xlink:href="#m2d66892e0c" y="99.075613"/>
     <use style="stroke:#000000;" x="77.193071" xlink:href="#m2d66892e0c" y="98.98523"/>
     <use style="stroke:#000000;" x="77.375088" xlink:href="#m2d66892e0c" y="98.913431"/>
     <use style="stroke:#000000;" x="77.587442" xlink:href="#m2d66892e0c" y="98.858525"/>
     <use style="stroke:#000000;" x="77.76946" xlink:href="#m2d66892e0c" y="98.820514"/>
     <use style="stroke:#000000;" x="77.981813" xlink:href="#m2d66892e0c" y="98.798552"/>
     <use style="stroke:#000000;" x="78.163831" xlink:href="#m2d66892e0c" y="98.792639"/>
     <use style="stroke:#000000;" x="78.376185" xlink:href="#m2d66892e0c" y="98.801086"/>
     <use style="stroke:#000000;" x="78.558202" xlink:href="#m2d66892e0c" y="98.824737"/>
     <use style="stroke:#000000;" x="78.770556" xlink:href="#m2d66892e0c" y="98.862749"/>
     <use style="stroke:#000000;" x="78.952574" xlink:href="#m2d66892e0c" y="98.913431"/>
     <use style="stroke:#000000;" x="79.134591" xlink:href="#m2d66892e0c" y="98.977628"/>
     <use style="stroke:#000000;" x="79.346945" xlink:href="#m2d66892e0c" y="99.054496"/>
     <use style="stroke:#000000;" x="79.528962" xlink:href="#m2d66892e0c" y="99.143189"/>
     <use style="stroke:#000000;" x="79.741316" xlink:href="#m2d66892e0c" y="99.243708"/>
     <use style="stroke:#000000;" x="79.923334" xlink:href="#m2d66892e0c" y="99.355208"/>
     <use style="stroke:#000000;" x="80.135688" xlink:href="#m2d66892e0c" y="99.476845"/>
     <use style="stroke:#000000;" x="80.317705" xlink:href="#m2d66892e0c" y="99.609463"/>
     <use style="stroke:#000000;" x="80.530059" xlink:href="#m2d66892e0c" y="99.752217"/>
     <use style="stroke:#000000;" x="80.712076" xlink:href="#m2d66892e0c" y="99.905107"/>
     <use style="stroke:#000000;" x="80.92443" xlink:href="#m2d66892e0c" y="100.066445"/>
     <use style="stroke:#000000;" x="81.106448" xlink:href="#m2d66892e0c" y="100.236229"/>
     <use style="stroke:#000000;" x="81.318801" xlink:href="#m2d66892e0c" y="100.415305"/>
     <use style="stroke:#000000;" x="81.500819" xlink:href="#m2d66892e0c" y="100.602828"/>
     <use style="stroke:#000000;" x="81.682836" xlink:href="#m2d66892e0c" y="100.797109"/>
     <use style="stroke:#000000;" x="81.89519" xlink:href="#m2d66892e0c" y="100.999837"/>
     <use style="stroke:#000000;" x="82.077208" xlink:href="#m2d66892e0c" y="101.210167"/>
     <use style="stroke:#000000;" x="82.289562" xlink:href="#m2d66892e0c" y="101.42641"/>
     <use style="stroke:#000000;" x="82.471579" xlink:href="#m2d66892e0c" y="101.650255"/>
     <use style="stroke:#000000;" x="82.683933" xlink:href="#m2d66892e0c" y="101.880013"/>
     <use style="stroke:#000000;" x="82.86595" xlink:href="#m2d66892e0c" y="102.116529"/>
     <use style="stroke:#000000;" x="83.078304" xlink:href="#m2d66892e0c" y="102.358957"/>
     <use style="stroke:#000000;" x="83.260322" xlink:href="#m2d66892e0c" y="102.606454"/>
     <use style="stroke:#000000;" x="83.472675" xlink:href="#m2d66892e0c" y="102.859864"/>
     <use style="stroke:#000000;" x="83.654693" xlink:href="#m2d66892e0c" y="103.118341"/>
     <use style="stroke:#000000;" x="83.958056" xlink:href="#m2d66892e0c" y="103.520418"/>
     <use style="stroke:#000000;" x="84.261418" xlink:href="#m2d66892e0c" y="103.933476"/>
     <use style="stroke:#000000;" x="84.564781" xlink:href="#m2d66892e0c" y="104.35667"/>
     <use style="stroke:#000000;" x="84.837807" xlink:href="#m2d66892e0c" y="104.789156"/>
     <use style="stroke:#000000;" x="85.141169" xlink:href="#m2d66892e0c" y="105.230933"/>
     <use style="stroke:#000000;" x="85.444532" xlink:href="#m2d66892e0c" y="105.680313"/>
     <use style="stroke:#000000;" x="85.747895" xlink:href="#m2d66892e0c" y="106.13814"/>
     <use style="stroke:#000000;" x="86.051257" xlink:href="#m2d66892e0c" y="106.602724"/>
     <use style="stroke:#000000;" x="86.324283" xlink:href="#m2d66892e0c" y="107.073221"/>
     <use style="stroke:#000000;" x="86.627646" xlink:href="#m2d66892e0c" y="107.551321"/>
     <use style="stroke:#000000;" x="86.931008" xlink:href="#m2d66892e0c" y="108.034488"/>
     <use style="stroke:#000000;" x="87.234371" xlink:href="#m2d66892e0c" y="108.522724"/>
     <use style="stroke:#000000;" x="87.537733" xlink:href="#m2d66892e0c" y="109.016028"/>
     <use style="stroke:#000000;" x="87.841096" xlink:href="#m2d66892e0c" y="109.513556"/>
     <use style="stroke:#000000;" x="88.114122" xlink:href="#m2d66892e0c" y="110.015307"/>
     <use style="stroke:#000000;" x="88.417485" xlink:href="#m2d66892e0c" y="110.521281"/>
     <use style="stroke:#000000;" x="88.720847" xlink:href="#m2d66892e0c" y="111.030635"/>
     <use style="stroke:#000000;" x="89.02421" xlink:href="#m2d66892e0c" y="111.542522"/>
     <use style="stroke:#000000;" x="89.327572" xlink:href="#m2d66892e0c" y="112.057789"/>
     <use style="stroke:#000000;" x="89.75228" xlink:href="#m2d66892e0c" y="112.835756"/>
     <use style="stroke:#000000;" x="90.207324" xlink:href="#m2d66892e0c" y="113.617947"/>
     <use style="stroke:#000000;" x="90.662368" xlink:href="#m2d66892e0c" y="114.404362"/>
     <use style="stroke:#000000;" x="91.117411" xlink:href="#m2d66892e0c" y="115.194155"/>
     <use style="stroke:#000000;" x="91.542119" xlink:href="#m2d66892e0c" y="115.986483"/>
     <use style="stroke:#000000;" x="91.997163" xlink:href="#m2d66892e0c" y="116.781344"/>
     <use style="stroke:#000000;" x="92.452207" xlink:href="#m2d66892e0c" y="117.576206"/>
     <use style="stroke:#000000;" x="92.876914" xlink:href="#m2d66892e0c" y="118.372757"/>
     <use style="stroke:#000000;" x="93.331958" xlink:href="#m2d66892e0c" y="119.169308"/>
     <use style="stroke:#000000;" x="93.787002" xlink:href="#m2d66892e0c" y="119.965014"/>
     <use style="stroke:#000000;" x="94.242046" xlink:href="#m2d66892e0c" y="120.76072"/>
     <use style="stroke:#000000;" x="94.666753" xlink:href="#m2d66892e0c" y="121.554737"/>
     <use style="stroke:#000000;" x="95.121797" xlink:href="#m2d66892e0c" y="122.347909"/>
     <use style="stroke:#000000;" x="95.576841" xlink:href="#m2d66892e0c" y="123.138547"/>
     <use style="stroke:#000000;" x="96.001548" xlink:href="#m2d66892e0c" y="123.927496"/>
     <use style="stroke:#000000;" x="96.608273" xlink:href="#m2d66892e0c" y="124.714755"/>
     <use style="stroke:#000000;" x="96.911636" xlink:href="#m2d66892e0c" y="125.498636"/>
     <use style="stroke:#000000;" x="97.214999" xlink:href="#m2d66892e0c" y="126.279137"/>
     <use style="stroke:#000000;" x="97.821724" xlink:href="#m2d66892e0c" y="127.057105"/>
     <use style="stroke:#000000;" x="98.125086" xlink:href="#m2d66892e0c" y="127.831694"/>
     <use style="stroke:#000000;" x="98.731811" xlink:href="#m2d66892e0c" y="128.602904"/>
     <use style="stroke:#000000;" x="99.035174" xlink:href="#m2d66892e0c" y="129.370735"/>
     <use style="stroke:#000000;" x="99.641899" xlink:href="#m2d66892e0c" y="130.134342"/>
     <use style="stroke:#000000;" x="99.945261" xlink:href="#m2d66892e0c" y="130.893727"/>
     <use style="stroke:#000000;" x="100.551986" xlink:href="#m2d66892e0c" y="131.649732"/>
     <use style="stroke:#000000;" x="100.855349" xlink:href="#m2d66892e0c" y="132.400669"/>
     <use style="stroke:#000000;" x="101.462074" xlink:href="#m2d66892e0c" y="133.148228"/>
     <use style="stroke:#000000;" x="101.765437" xlink:href="#m2d66892e0c" y="133.890718"/>
     <use style="stroke:#000000;" x="102.372162" xlink:href="#m2d66892e0c" y="134.629829"/>
     <use style="stroke:#000000;" x="102.675524" xlink:href="#m2d66892e0c" y="135.363028"/>
     <use style="stroke:#000000;" x="103.282249" xlink:href="#m2d66892e0c" y="136.092848"/>
     <use style="stroke:#000000;" x="103.585612" xlink:href="#m2d66892e0c" y="136.817599"/>
     <use style="stroke:#000000;" x="104.192337" xlink:href="#m2d66892e0c" y="137.537283"/>
     <use style="stroke:#000000;" x="104.495699" xlink:href="#m2d66892e0c" y="138.252742"/>
     <use style="stroke:#000000;" x="105.102425" xlink:href="#m2d66892e0c" y="138.963134"/>
     <use style="stroke:#000000;" x="105.70915" xlink:href="#m2d66892e0c" y="140.020697"/>
     <use style="stroke:#000000;" x="106.315875" xlink:href="#m2d66892e0c" y="141.067279"/>
     <use style="stroke:#000000;" x="106.9226" xlink:href="#m2d66892e0c" y="142.102879"/>
     <use style="stroke:#000000;" x="107.529325" xlink:href="#m2d66892e0c" y="143.127499"/>
     <use style="stroke:#000000;" x="108.439412" xlink:href="#m2d66892e0c" y="144.141138"/>
     <use style="stroke:#000000;" x="109.046138" xlink:href="#m2d66892e0c" y="145.143795"/>
     <use style="stroke:#000000;" x="109.652863" xlink:href="#m2d66892e0c" y="146.135387"/>
     <use style="stroke:#000000;" x="110.259588" xlink:href="#m2d66892e0c" y="147.115744"/>
     <use style="stroke:#000000;" x="110.866313" xlink:href="#m2d66892e0c" y="148.085121"/>
     <use style="stroke:#000000;" x="111.7764" xlink:href="#m2d66892e0c" y="149.043431"/>
     <use style="stroke:#000000;" x="112.383126" xlink:href="#m2d66892e0c" y="149.990846"/>
     <use style="stroke:#000000;" x="112.989851" xlink:href="#m2d66892e0c" y="150.927279"/>
     <use style="stroke:#000000;" x="113.596576" xlink:href="#m2d66892e0c" y="151.852984"/>
     <use style="stroke:#000000;" x="114.506663" xlink:href="#m2d66892e0c" y="152.767877"/>
     <use style="stroke:#000000;" x="115.113388" xlink:href="#m2d66892e0c" y="153.672127"/>
     <use style="stroke:#000000;" x="115.720113" xlink:href="#m2d66892e0c" y="154.565734"/>
     <use style="stroke:#000000;" x="116.326839" xlink:href="#m2d66892e0c" y="155.448782"/>
     <use style="stroke:#000000;" x="116.933564" xlink:href="#m2d66892e0c" y="156.321441"/>
     <use style="stroke:#000000;" x="117.843651" xlink:href="#m2d66892e0c" y="157.183794"/>
     <use style="stroke:#000000;" x="118.38212" xlink:href="#m2d66892e0c" y="158.035926"/>
     <use style="stroke:#000000;" x="119.053158" xlink:href="#m2d66892e0c" y="158.877837"/>
     <use style="stroke:#000000;" x="119.724499" xlink:href="#m2d66892e0c" y="159.709696"/>
     <use style="stroke:#000000;" x="120.395537" xlink:href="#m2d66892e0c" y="160.531673"/>
     <use style="stroke:#000000;" x="121.066575" xlink:href="#m2d66892e0c" y="161.343682"/>
     <use style="stroke:#000000;" x="121.737916" xlink:href="#m2d66892e0c" y="162.146061"/>
     <use style="stroke:#000000;" x="122.749024" xlink:href="#m2d66892e0c" y="163.336664"/>
     <use style="stroke:#000000;" x="123.760131" xlink:href="#m2d66892e0c" y="164.505727"/>
     <use style="stroke:#000000;" x="124.771238" xlink:href="#m2d66892e0c" y="165.653673"/>
     <use style="stroke:#000000;" x="125.782346" xlink:href="#m2d66892e0c" y="166.780754"/>
     <use style="stroke:#000000;" x="126.793453" xlink:href="#m2d66892e0c" y="167.887394"/>
     <use style="stroke:#000000;" x="127.804864" xlink:href="#m2d66892e0c" y="168.973846"/>
     <use style="stroke:#000000;" x="128.815971" xlink:href="#m2d66892e0c" y="170.040616"/>
     <use style="stroke:#000000;" x="129.827078" xlink:href="#m2d66892e0c" y="171.088042"/>
     <use style="stroke:#000000;" x="130.838186" xlink:href="#m2d66892e0c" y="172.116379"/>
     <use style="stroke:#000000;" x="131.849293" xlink:href="#m2d66892e0c" y="173.125963"/>
     <use style="stroke:#000000;" x="132.8604" xlink:href="#m2d66892e0c" y="174.117217"/>
     <use style="stroke:#000000;" x="133.871508" xlink:href="#m2d66892e0c" y="175.090479"/>
     <use style="stroke:#000000;" x="134.882615" xlink:href="#m2d66892e0c" y="176.046002"/>
     <use style="stroke:#000000;" x="135.894026" xlink:href="#m2d66892e0c" y="176.984124"/>
     <use style="stroke:#000000;" x="136.905133" xlink:href="#m2d66892e0c" y="177.905184"/>
     <use style="stroke:#000000;" x="137.91624" xlink:href="#m2d66892e0c" y="178.809518"/>
     <use style="stroke:#000000;" x="138.927348" xlink:href="#m2d66892e0c" y="179.697466"/>
     <use style="stroke:#000000;" x="139.938455" xlink:href="#m2d66892e0c" y="180.569279"/>
     <use style="stroke:#000000;" x="140.949562" xlink:href="#m2d66892e0c" y="181.425297"/>
     <use style="stroke:#000000;" x="141.96067" xlink:href="#m2d66892e0c" y="182.265772"/>
     <use style="stroke:#000000;" x="142.972081" xlink:href="#m2d66892e0c" y="183.091043"/>
     <use style="stroke:#000000;" x="143.983188" xlink:href="#m2d66892e0c" y="183.901278"/>
     <use style="stroke:#000000;" x="145.508495" xlink:href="#m2d66892e0c" y="185.095936"/>
     <use style="stroke:#000000;" x="147.033802" xlink:href="#m2d66892e0c" y="186.258241"/>
     <use style="stroke:#000000;" x="148.558805" xlink:href="#m2d66892e0c" y="187.388955"/>
     <use style="stroke:#000000;" x="150.084112" xlink:href="#m2d66892e0c" y="188.489006"/>
     <use style="stroke:#000000;" x="151.609419" xlink:href="#m2d66892e0c" y="189.559324"/>
     <use style="stroke:#000000;" x="153.134726" xlink:href="#m2d66892e0c" y="190.600753"/>
     <use style="stroke:#000000;" x="154.660032" xlink:href="#m2d66892e0c" y="191.614054"/>
     <use style="stroke:#000000;" x="156.185339" xlink:href="#m2d66892e0c" y="192.600071"/>
     <use style="stroke:#000000;" x="157.710646" xlink:href="#m2d66892e0c" y="193.55948"/>
     <use style="stroke:#000000;" x="159.235953" xlink:href="#m2d66892e0c" y="194.493125"/>
     <use style="stroke:#000000;" x="160.76126" xlink:href="#m2d66892e0c" y="195.401683"/>
     <use style="stroke:#000000;" x="162.286567" xlink:href="#m2d66892e0c" y="196.285914"/>
     <use style="stroke:#000000;" x="163.811874" xlink:href="#m2d66892e0c" y="197.146408"/>
     <use style="stroke:#000000;" x="165.33718" xlink:href="#m2d66892e0c" y="197.983927"/>
     <use style="stroke:#000000;" x="166.862487" xlink:href="#m2d66892e0c" y="198.799062"/>
     <use style="stroke:#000000;" x="168.387794" xlink:href="#m2d66892e0c" y="199.592487"/>
     <use style="stroke:#000000;" x="169.913101" xlink:href="#m2d66892e0c" y="200.364711"/>
     <use style="stroke:#000000;" x="171.438408" xlink:href="#m2d66892e0c" y="201.116408"/>
     <use style="stroke:#000000;" x="172.963411" xlink:href="#m2d66892e0c" y="201.848086"/>
     <use style="stroke:#000000;" x="174.488718" xlink:href="#m2d66892e0c" y="202.560336"/>
     <use style="stroke:#000000;" x="176.014025" xlink:href="#m2d66892e0c" y="203.25375"/>
     <use style="stroke:#000000;" x="177.539332" xlink:href="#m2d66892e0c" y="203.928833"/>
     <use style="stroke:#000000;" x="179.064639" xlink:href="#m2d66892e0c" y="204.586009"/>
     <use style="stroke:#000000;" x="180.589946" xlink:href="#m2d66892e0c" y="205.225868"/>
     <use style="stroke:#000000;" x="182.115252" xlink:href="#m2d66892e0c" y="205.848833"/>
     <use style="stroke:#000000;" x="183.640559" xlink:href="#m2d66892e0c" y="206.455411"/>
     <use style="stroke:#000000;" x="185.165866" xlink:href="#m2d66892e0c" y="207.046025"/>
     <use style="stroke:#000000;" x="186.691173" xlink:href="#m2d66892e0c" y="207.621096"/>
     <use style="stroke:#000000;" x="188.21648" xlink:href="#m2d66892e0c" y="208.181047"/>
     <use style="stroke:#000000;" x="189.741787" xlink:href="#m2d66892e0c" y="208.726384"/>
     <use style="stroke:#000000;" x="191.267094" xlink:href="#m2d66892e0c" y="209.257446"/>
     <use style="stroke:#000000;" x="192.7924" xlink:href="#m2d66892e0c" y="209.774571"/>
     <use style="stroke:#000000;" x="194.317707" xlink:href="#m2d66892e0c" y="210.278265"/>
     <use style="stroke:#000000;" x="195.843014" xlink:href="#m2d66892e0c" y="210.768781"/>
     <use style="stroke:#000000;" x="197.368321" xlink:href="#m2d66892e0c" y="211.246543"/>
     <use style="stroke:#000000;" x="198.893324" xlink:href="#m2d66892e0c" y="211.711887"/>
     <use style="stroke:#000000;" x="200.418631" xlink:href="#m2d66892e0c" y="212.165153"/>
     <use style="stroke:#000000;" x="201.943938" xlink:href="#m2d66892e0c" y="212.606677"/>
     <use style="stroke:#000000;" x="203.469245" xlink:href="#m2d66892e0c" y="213.036713"/>
     <use style="stroke:#000000;" x="204.994552" xlink:href="#m2d66892e0c" y="213.455599"/>
     <use style="stroke:#000000;" x="206.519859" xlink:href="#m2d66892e0c" y="213.863673"/>
     <use style="stroke:#000000;" x="208.045166" xlink:href="#m2d66892e0c" y="214.261273"/>
     <use style="stroke:#000000;" x="209.570472" xlink:href="#m2d66892e0c" y="214.648567"/>
     <use style="stroke:#000000;" x="211.095779" xlink:href="#m2d66892e0c" y="215.025894"/>
     <use style="stroke:#000000;" x="212.621086" xlink:href="#m2d66892e0c" y="215.393592"/>
     <use style="stroke:#000000;" x="214.146393" xlink:href="#m2d66892e0c" y="215.751744"/>
     <use style="stroke:#000000;" x="215.6717" xlink:href="#m2d66892e0c" y="216.100773"/>
     <use style="stroke:#000000;" x="217.197007" xlink:href="#m2d66892e0c" y="216.440849"/>
     <use style="stroke:#000000;" x="218.722313" xlink:href="#m2d66892e0c" y="216.772224"/>
     <use style="stroke:#000000;" x="220.24762" xlink:href="#m2d66892e0c" y="217.095153"/>
     <use style="stroke:#000000;" x="221.772927" xlink:href="#m2d66892e0c" y="217.409803"/>
     <use style="stroke:#000000;" x="223.297931" xlink:href="#m2d66892e0c" y="217.716429"/>
     <use style="stroke:#000000;" x="224.823238" xlink:href="#m2d66892e0c" y="218.015283"/>
     <use style="stroke:#000000;" x="226.348544" xlink:href="#m2d66892e0c" y="218.306451"/>
     <use style="stroke:#000000;" x="227.873851" xlink:href="#m2d66892e0c" y="218.590354"/>
     <use style="stroke:#000000;" x="229.399158" xlink:href="#m2d66892e0c" y="218.866908"/>
     <use style="stroke:#000000;" x="230.924465" xlink:href="#m2d66892e0c" y="219.136621"/>
     <use style="stroke:#000000;" x="232.449772" xlink:href="#m2d66892e0c" y="219.399407"/>
     <use style="stroke:#000000;" x="233.975079" xlink:href="#m2d66892e0c" y="219.655519"/>
     <use style="stroke:#000000;" x="235.500385" xlink:href="#m2d66892e0c" y="219.905212"/>
     <use style="stroke:#000000;" x="237.025692" xlink:href="#m2d66892e0c" y="220.148654"/>
     <use style="stroke:#000000;" x="238.550999" xlink:href="#m2d66892e0c" y="220.38593"/>
     <use style="stroke:#000000;" x="240.076306" xlink:href="#m2d66892e0c" y="220.617209"/>
     <use style="stroke:#000000;" x="241.601613" xlink:href="#m2d66892e0c" y="220.842743"/>
     <use style="stroke:#000000;" x="243.12692" xlink:href="#m2d66892e0c" y="221.062534"/>
     <use style="stroke:#000000;" x="244.652227" xlink:href="#m2d66892e0c" y="221.276919"/>
     <use style="stroke:#000000;" x="246.177533" xlink:href="#m2d66892e0c" y="221.485897"/>
     <use style="stroke:#000000;" x="247.70284" xlink:href="#m2d66892e0c" y="221.689613"/>
     <use style="stroke:#000000;" x="249.227844" xlink:href="#m2d66892e0c" y="221.888269"/>
     <use style="stroke:#000000;" x="250.753151" xlink:href="#m2d66892e0c" y="222.081967"/>
     <use style="stroke:#000000;" x="252.278457" xlink:href="#m2d66892e0c" y="222.27085"/>
     <use style="stroke:#000000;" x="253.803764" xlink:href="#m2d66892e0c" y="222.455028"/>
     <use style="stroke:#000000;" x="255.329071" xlink:href="#m2d66892e0c" y="222.634628"/>
     <use style="stroke:#000000;" x="256.854378" xlink:href="#m2d66892e0c" y="222.809768"/>
     <use style="stroke:#000000;" x="258.379685" xlink:href="#m2d66892e0c" y="222.980575"/>
     <use style="stroke:#000000;" x="259.904992" xlink:href="#m2d66892e0c" y="223.147141"/>
     <use style="stroke:#000000;" x="261.430299" xlink:href="#m2d66892e0c" y="223.309593"/>
     <use style="stroke:#000000;" x="262.955605" xlink:href="#m2d66892e0c" y="223.468033"/>
     <use style="stroke:#000000;" x="264.480912" xlink:href="#m2d66892e0c" y="223.622563"/>
     <use style="stroke:#000000;" x="266.006219" xlink:href="#m2d66892e0c" y="223.773282"/>
     <use style="stroke:#000000;" x="267.531526" xlink:href="#m2d66892e0c" y="223.920294"/>
     <use style="stroke:#000000;" x="269.056833" xlink:href="#m2d66892e0c" y="224.06369"/>
     <use style="stroke:#000000;" x="270.58214" xlink:href="#m2d66892e0c" y="224.203563"/>
     <use style="stroke:#000000;" x="272.107447" xlink:href="#m2d66892e0c" y="224.339999"/>
     <use style="stroke:#000000;" x="273.632753" xlink:href="#m2d66892e0c" y="224.473098"/>
     <use style="stroke:#000000;" x="275.157757" xlink:href="#m2d66892e0c" y="224.602928"/>
     <use style="stroke:#000000;" x="276.683064" xlink:href="#m2d66892e0c" y="224.729591"/>
     <use style="stroke:#000000;" x="278.208371" xlink:href="#m2d66892e0c" y="224.853162"/>
     <use style="stroke:#000000;" x="279.733677" xlink:href="#m2d66892e0c" y="224.973709"/>
     <use style="stroke:#000000;" x="281.258984" xlink:href="#m2d66892e0c" y="225.091325"/>
     <use style="stroke:#000000;" x="282.784291" xlink:href="#m2d66892e0c" y="225.206069"/>
     <use style="stroke:#000000;" x="284.309598" xlink:href="#m2d66892e0c" y="225.318025"/>
     <use style="stroke:#000000;" x="285.834905" xlink:href="#m2d66892e0c" y="225.427262"/>
     <use style="stroke:#000000;" x="287.360212" xlink:href="#m2d66892e0c" y="225.533846"/>
     <use style="stroke:#000000;" x="288.885519" xlink:href="#m2d66892e0c" y="225.637845"/>
     <use style="stroke:#000000;" x="290.410825" xlink:href="#m2d66892e0c" y="225.739327"/>
     <use style="stroke:#000000;" x="291.936132" xlink:href="#m2d66892e0c" y="225.838351"/>
     <use style="stroke:#000000;" x="293.461439" xlink:href="#m2d66892e0c" y="225.934976"/>
     <use style="stroke:#000000;" x="294.986746" xlink:href="#m2d66892e0c" y="226.02927"/>
     <use style="stroke:#000000;" x="296.512053" xlink:href="#m2d66892e0c" y="226.121291"/>
     <use style="stroke:#000000;" x="298.03736" xlink:href="#m2d66892e0c" y="226.211091"/>
     <use style="stroke:#000000;" x="299.562363" xlink:href="#m2d66892e0c" y="226.298729"/>
     <use style="stroke:#000000;" x="301.08767" xlink:href="#m2d66892e0c" y="226.384263"/>
     <use style="stroke:#000000;" x="302.612977" xlink:href="#m2d66892e0c" y="226.467728"/>
     <use style="stroke:#000000;" x="304.138284" xlink:href="#m2d66892e0c" y="226.549199"/>
     <use style="stroke:#000000;" x="305.663591" xlink:href="#m2d66892e0c" y="226.62871"/>
     <use style="stroke:#000000;" x="307.188897" xlink:href="#m2d66892e0c" y="226.706313"/>
     <use style="stroke:#000000;" x="308.714204" xlink:href="#m2d66892e0c" y="226.782065"/>
     <use style="stroke:#000000;" x="310.239511" xlink:href="#m2d66892e0c" y="226.855993"/>
     <use style="stroke:#000000;" x="311.764818" xlink:href="#m2d66892e0c" y="226.928165"/>
     <use style="stroke:#000000;" x="313.290125" xlink:href="#m2d66892e0c" y="226.998604"/>
     <use style="stroke:#000000;" x="314.815432" xlink:href="#m2d66892e0c" y="227.067362"/>
     <use style="stroke:#000000;" x="316.340738" xlink:href="#m2d66892e0c" y="227.134482"/>
     <use style="stroke:#000000;" x="317.866045" xlink:href="#m2d66892e0c" y="227.199997"/>
     <use style="stroke:#000000;" x="319.391352" xlink:href="#m2d66892e0c" y="227.263958"/>
     <use style="stroke:#000000;" x="320.916659" xlink:href="#m2d66892e0c" y="227.326389"/>
     <use style="stroke:#000000;" x="322.441966" xlink:href="#m2d66892e0c" y="227.387343"/>
     <use style="stroke:#000000;" x="323.967273" xlink:href="#m2d66892e0c" y="227.446843"/>
     <use style="stroke:#000000;" x="325.492276" xlink:href="#m2d66892e0c" y="227.504933"/>
     <use style="stroke:#000000;" x="327.017583" xlink:href="#m2d66892e0c" y="227.561646"/>
     <use style="stroke:#000000;" x="328.54289" xlink:href="#m2d66892e0c" y="227.617008"/>
     <use style="stroke:#000000;" x="330.068197" xlink:href="#m2d66892e0c" y="227.67106"/>
     <use style="stroke:#000000;" x="331.593504" xlink:href="#m2d66892e0c" y="227.723829"/>
     <use style="stroke:#000000;" x="333.11881" xlink:href="#m2d66892e0c" y="227.775355"/>
     <use style="stroke:#000000;" x="334.644117" xlink:href="#m2d66892e0c" y="227.825657"/>
     <use style="stroke:#000000;" x="336.169424" xlink:href="#m2d66892e0c" y="227.874776"/>
     <use style="stroke:#000000;" x="337.694731" xlink:href="#m2d66892e0c" y="227.92273"/>
     <use style="stroke:#000000;" x="339.220038" xlink:href="#m2d66892e0c" y="227.969551"/>
     <use style="stroke:#000000;" x="340.745345" xlink:href="#m2d66892e0c" y="228.015275"/>
     <use style="stroke:#000000;" x="342.270652" xlink:href="#m2d66892e0c" y="228.059909"/>
     <use style="stroke:#000000;" x="343.795958" xlink:href="#m2d66892e0c" y="228.103495"/>
     <use style="stroke:#000000;" x="345.321265" xlink:href="#m2d66892e0c" y="228.14606"/>
     <use style="stroke:#000000;" x="346.846572" xlink:href="#m2d66892e0c" y="228.187619"/>
     <use style="stroke:#000000;" x="348.371879" xlink:href="#m2d66892e0c" y="228.228198"/>
     <use style="stroke:#000000;" x="349.896882" xlink:href="#m2d66892e0c" y="228.267823"/>
     <use style="stroke:#000000;" x="351.422189" xlink:href="#m2d66892e0c" y="228.306519"/>
     <use style="stroke:#000000;" x="352.947496" xlink:href="#m2d66892e0c" y="228.344302"/>
     <use style="stroke:#000000;" x="354.472803" xlink:href="#m2d66892e0c" y="228.381199"/>
     <use style="stroke:#000000;" x="355.99811" xlink:href="#m2d66892e0c" y="228.417225"/>
     <use style="stroke:#000000;" x="357.523417" xlink:href="#m2d66892e0c" y="228.452407"/>
     <use style="stroke:#000000;" x="359.048724" xlink:href="#m2d66892e0c" y="228.486769"/>
     <use style="stroke:#000000;" x="360.57403" xlink:href="#m2d66892e0c" y="228.52032"/>
     <use style="stroke:#000000;" x="362.099337" xlink:href="#m2d66892e0c" y="228.553086"/>
     <use style="stroke:#000000;" x="363.624644" xlink:href="#m2d66892e0c" y="228.585083"/>
     <use style="stroke:#000000;" x="365.149951" xlink:href="#m2d66892e0c" y="228.616329"/>
     <use style="stroke:#000000;" x="366.675258" xlink:href="#m2d66892e0c" y="228.646848"/>
     <use style="stroke:#000000;" x="368.200565" xlink:href="#m2d66892e0c" y="228.676649"/>
     <use style="stroke:#000000;" x="369.725568" xlink:href="#m2d66892e0c" y="228.705749"/>
    </g>
   </g>
   <g id="line2d_13">
    <path clip-path="url(#pc5c913370f)" d="M 65.361932 156.466812 
L 65.541471 156.484692 
L 65.726965 156.2392 
L 65.993571 155.486586 
L 66.424281 153.4928 
L 67.071397 149.330019 
L 70.360634 126.409837 
L 71.435354 121.17061 
L 72.412371 117.495761 
L 73.243165 115.090836 
L 74.124455 113.167811 
L 75.005745 111.803149 
L 75.740154 111.034271 
L 76.474562 110.556319 
L 77.208971 110.333061 
L 77.945434 110.33281 
L 78.830832 110.589113 
L 79.716231 111.085313 
L 80.82298 111.987245 
L 82.151078 113.403924 
L 83.83294 115.597555 
L 85.851174 118.646743 
L 88.542153 123.149266 
L 93.592166 132.143984 
L 99.655725 142.844137 
L 103.915731 149.946551 
L 108.083129 156.462553 
L 112.250528 162.526919 
L 116.12972 167.767863 
L 120.034784 172.66324 
L 123.6989 176.92555 
L 128.01508 181.559047 
L 132.356961 185.825495 
L 136.698841 189.725747 
L 141.2613 193.461022 
L 145.55926 196.667294 
L 149.935478 199.646689 
L 154.067535 202.217555 
L 158.696373 204.842031 
L 163.624539 207.366261 
L 168.250497 209.506211 
L 173.345723 211.631159 
L 179.253828 213.822221 
L 185.161933 215.75323 
L 191.070038 217.454914 
L 196.978143 218.954406 
L 204.855616 220.680174 
L 212.218605 222.049924 
L 220.947907 223.416903 
L 229.677209 224.550038 
L 239.861395 225.628934 
L 251.500465 226.603444 
L 264.594419 227.441982 
L 279.143256 228.130976 
L 296.60186 228.712485 
L 316.970232 229.157776 
L 343.158139 229.497199 
L 369.362229 229.683107 
L 369.362229 229.683107 
" style="fill:none;stroke:#0000ff;stroke-linecap:square;stroke-width:1.5;"/>
   </g>
   <g id="line2d_14">
    <path clip-path="url(#pc5c913370f)" d="M 65.361932 156.466812 
L 65.572839 156.545583 
L 65.768524 156.38933 
L 65.977814 156.001799 
L 66.385974 154.681968 
L 66.936999 151.97673 
L 67.794148 146.469615 
L 70.521093 128.117271 
L 71.507686 123.103004 
L 72.494278 119.216717 
L 73.339929 116.726743 
L 74.18558 114.92936 
L 74.890289 113.896968 
L 75.594998 113.234278 
L 76.299707 112.894621 
L 77.004417 112.835563 
L 77.569569 112.965195 
L 78.41799 113.414727 
L 79.266412 114.124562 
L 80.326938 115.310949 
L 81.59957 117.080037 
L 83.296413 119.866863 
L 85.43799 123.839824 
L 88.975354 130.948277 
L 96.572994 146.315881 
L 100.71291 154.107798 
L 104.190564 160.212816 
L 107.544327 165.703699 
L 110.762513 170.610444 
L 113.980699 175.174435 
L 117.198885 179.411595 
L 121.005762 184.02646 
L 124.03228 187.407452 
L 127.675186 191.162524 
L 131.318092 194.598781 
L 135.66272 198.31488 
L 139.612816 201.364399 
L 144.085263 204.474802 
L 148.614891 207.290576 
L 153.144519 209.804499 
L 157.674146 212.048038 
L 162.203774 214.049542 
L 167.568802 216.141896 
L 172.521599 217.836322 
L 178.628276 219.651665 
L 184.734952 221.204423 
L 190.841628 222.53145 
L 198.474974 223.920669 
L 206.108319 225.058769 
L 213.741665 225.98917 
L 222.901679 226.881795 
L 233.588363 227.677727 
L 245.801715 228.340461 
L 259.541737 228.856559 
L 276.335097 229.261556 
L 299.235133 229.56853 
L 332.821853 229.762624 
L 369.461911 229.836045 
L 369.461911 229.836045 
" style="fill:none;stroke:#ff0000;stroke-linecap:square;stroke-width:1.5;"/>
   </g>
   <g id="line2d_15">
    <path clip-path="url(#pc5c913370f)" d="M 65.361932 82.17163 
L 65.683496 82.53489 
L 65.956522 82.556471 
L 66.223481 82.322529 
L 66.563247 81.65317 
L 66.978854 80.270239 
L 67.52794 77.586833 
L 68.32275 72.417615 
L 71.975235 46.889799 
L 72.945995 42.130338 
L 73.856083 38.626382 
L 74.766171 35.978627 
L 75.615586 34.203549 
L 76.404328 33.095358 
L 76.980717 32.578885 
L 77.587442 32.281189 
L 78.163831 32.201761 
L 78.770556 32.325607 
L 79.528962 32.73549 
L 80.317705 33.434705 
L 81.318801 34.664286 
L 82.471579 36.479296 
L 83.958056 39.324256 
L 85.747895 43.309856 
L 88.114122 49.214667 
L 91.542119 58.464294 
L 101.462074 85.619231 
L 105.70915 96.455769 
L 109.652863 105.908332 
L 113.596576 114.751684 
L 116.933564 121.761077 
L 121.066575 129.863759 
L 124.771238 136.606405 
L 128.815971 143.449587 
L 132.8604 149.777613 
L 136.905133 155.631866 
L 140.949562 161.046773 
L 143.983188 164.840161 
L 148.558805 170.156126 
L 153.134726 175.025586 
L 157.710646 179.483511 
L 162.286567 183.569767 
L 166.862487 187.313091 
L 171.438408 190.742857 
L 176.014025 193.884858 
L 180.589946 196.766987 
L 185.165866 199.423988 
L 191.267094 202.615524 
L 197.368321 205.467661 
L 201.943938 207.400942 
L 208.045166 209.744071 
L 214.146393 211.839863 
L 220.24762 213.711653 
L 226.348544 215.389476 
L 233.975079 217.244087 
L 241.601613 218.859532 
L 249.227844 220.272704 
L 258.379685 221.737169 
L 267.531526 222.985871 
L 278.208371 224.212541 
L 290.410825 225.365949 
L 302.612977 226.302416 
L 316.340738 227.14609 
L 333.11881 227.938914 
L 351.422189 228.570846 
L 369.725568 229.011176 
L 369.725568 229.011176 
" style="fill:none;stroke:#0000ff;stroke-dasharray:5.55,2.4;stroke-dashoffset:0;stroke-width:1.5;"/>
   </g>
   <g id="line2d_16">
    <path clip-path="url(#pc5c913370f)" d="M 65.361932 193.410468 
L 65.535455 193.371415 
L 65.732034 193.076805 
L 66.032363 192.195633 
L 66.52381 189.917337 
L 67.355024 184.791597 
L 69.1843 173.432936 
L 70.185396 168.637773 
L 71.12582 165.148432 
L 72.066244 162.507695 
L 72.945995 160.673229 
L 73.856083 159.305169 
L 74.766171 158.379365 
L 75.615586 157.842082 
L 76.404328 157.580014 
L 77.375088 157.516197 
L 78.376185 157.698564 
L 79.528962 158.160884 
L 80.92443 159.003387 
L 82.471579 160.209563 
L 84.564781 162.162614 
L 87.234371 164.984135 
L 91.997163 170.410774 
L 99.035174 178.393186 
L 103.585612 183.227341 
L 107.529325 187.141103 
L 111.7764 191.055342 
L 115.720113 194.413369 
L 119.724499 197.558963 
L 123.760131 200.472476 
L 127.804864 203.149837 
L 131.849293 205.599387 
L 136.905133 208.368546 
L 141.96067 210.837956 
L 147.033802 213.044685 
L 151.609419 214.823256 
L 157.710646 216.917689 
L 163.811874 218.729987 
L 169.913101 220.298362 
L 176.014025 221.653052 
L 183.640559 223.091084 
L 191.267094 224.286044 
L 200.418631 225.454023 
L 209.570472 226.387067 
L 220.24762 227.239693 
L 232.449772 227.971827 
L 246.177533 228.565134 
L 262.955605 229.056366 
L 284.309598 229.43692 
L 313.290125 229.702633 
L 357.523417 229.856548 
L 369.725568 229.874489 
L 369.725568 229.874489 
" style="fill:none;stroke:#0000ff;stroke-dasharray:5.55,2.4;stroke-dashoffset:0;stroke-width:1.5;"/>
   </g>
   <g id="line2d_17"/>
   <g id="line2d_18"/>
   <g id="line2d_19"/>
   <g id="line2d_20"/>
   <g id="line2d_21"/>
   <g id="line2d_22"/>
   <g id="patch_3">
    <path d="M 50.14375 239.758125 
L 50.14375 22.318125 
" style="fill:none;stroke:#000000;stroke-linecap:square;stroke-linejoin:miter;stroke-width:0.8;"/>
   </g>
   <g id="patch_4">
    <path d="M 384.94375 239.758125 
L 384.94375 22.318125 
" style="fill:none;stroke:#000000;stroke-linecap:square;stroke-linejoin:miter;stroke-width:0.8;"/>
   </g>
   <g id="patch_5">
    <path d="M 50.14375 239.758125 
L 384.94375 239.758125 
" style="fill:none;stroke:#000000;stroke-linecap:square;stroke-linejoin:miter;stroke-width:0.8;"/>
   </g>
   <g id="patch_6">
    <path d="M 50.14375 22.318125 
L 384.94375 22.318125 
" style="fill:none;stroke:#000000;stroke-linecap:square;stroke-linejoin:miter;stroke-width:0.8;"/>
   </g>
   <g id="text_14">
    <!-- Experiment_20 -->
    <defs>
     <path d="M 9.8125 72.90625 
L 55.90625 72.90625 
L 55.90625 64.59375 
L 19.671875 64.59375 
L 19.671875 43.015625 
L 54.390625 43.015625 
L 54.390625 34.71875 
L 19.671875 34.71875 
L 19.671875 8.296875 
L 56.78125 8.296875 
L 56.78125 0 
L 9.8125 0 
z
" id="DejaVuSans-69"/>
     <path d="M 54.890625 54.6875 
L 35.109375 28.078125 
L 55.90625 0 
L 45.3125 0 
L 29.390625 21.484375 
L 13.484375 0 
L 2.875 0 
L 24.125 28.609375 
L 4.6875 54.6875 
L 15.28125 54.6875 
L 29.78125 35.203125 
L 44.28125 54.6875 
z
" id="DejaVuSans-120"/>
     <path d="M 18.109375 8.203125 
L 18.109375 -20.796875 
L 9.078125 -20.796875 
L 9.078125 54.6875 
L 18.109375 54.6875 
L 18.109375 46.390625 
Q 20.953125 51.265625 25.265625 53.625 
Q 29.59375 56 35.59375 56 
Q 45.5625 56 51.78125 48.09375 
Q 58.015625 40.1875 58.015625 27.296875 
Q 58.015625 14.40625 51.78125 6.484375 
Q 45.5625 -1.421875 35.59375 -1.421875 
Q 29.59375 -1.421875 25.265625 0.953125 
Q 20.953125 3.328125 18.109375 8.203125 
z
M 48.6875 27.296875 
Q 48.6875 37.203125 44.609375 42.84375 
Q 40.53125 48.484375 33.40625 48.484375 
Q 26.265625 48.484375 22.1875 42.84375 
Q 18.109375 37.203125 18.109375 27.296875 
Q 18.109375 17.390625 22.1875 11.75 
Q 26.265625 6.109375 33.40625 6.109375 
Q 40.53125 6.109375 44.609375 11.75 
Q 48.6875 17.390625 48.6875 27.296875 
z
" id="DejaVuSans-112"/>
     <path d="M 18.3125 70.21875 
L 18.3125 54.6875 
L 36.8125 54.6875 
L 36.8125 47.703125 
L 18.3125 47.703125 
L 18.3125 18.015625 
Q 18.3125 11.328125 20.140625 9.421875 
Q 21.96875 7.515625 27.59375 7.515625 
L 36.8125 7.515625 
L 36.8125 0 
L 27.59375 0 
Q 17.1875 0 13.234375 3.875 
Q 9.28125 7.765625 9.28125 18.015625 
L 9.28125 47.703125 
L 2.6875 47.703125 
L 2.6875 54.6875 
L 9.28125 54.6875 
L 9.28125 70.21875 
z
" id="DejaVuSans-116"/>
     <path d="M 50.984375 -16.609375 
L 50.984375 -23.578125 
L -0.984375 -23.578125 
L -0.984375 -16.609375 
z
" id="DejaVuSans-95"/>
    </defs>
    <g transform="translate(172.240938 16.318125)scale(0.12 -0.12)">
     <use xlink:href="#DejaVuSans-69"/>
     <use x="63.183594" xlink:href="#DejaVuSans-120"/>
     <use x="122.363281" xlink:href="#DejaVuSans-112"/>
     <use x="185.839844" xlink:href="#DejaVuSans-101"/>
     <use x="247.363281" xlink:href="#DejaVuSans-114"/>
     <use x="288.476562" xlink:href="#DejaVuSans-105"/>
     <use x="316.259766" xlink:href="#DejaVuSans-109"/>
     <use x="413.671875" xlink:href="#DejaVuSans-101"/>
     <use x="475.195312" xlink:href="#DejaVuSans-110"/>
     <use x="538.574219" xlink:href="#DejaVuSans-116"/>
     <use x="577.783203" xlink:href="#DejaVuSans-95"/>
     <use x="627.783203" xlink:href="#DejaVuSans-50"/>
     <use x="691.40625" xlink:href="#DejaVuSans-48"/>
    </g>
   </g>
   <g id="legend_1">
    <g id="patch_7">
     <path d="M 121.823438 103.730625 
L 377.94375 103.730625 
Q 379.94375 103.730625 379.94375 101.730625 
L 379.94375 29.318125 
Q 379.94375 27.318125 377.94375 27.318125 
L 121.823438 27.318125 
Q 119.823438 27.318125 119.823438 29.318125 
L 119.823438 101.730625 
Q 119.823438 103.730625 121.823438 103.730625 
z
" style="fill:#ffffff;opacity:0.8;stroke:#cccccc;stroke-linejoin:miter;"/>
    </g>
    <g id="line2d_23"/>
    <g id="line2d_24">
     <g>
      <use style="stroke:#000000;" x="133.823438" xlink:href="#m2d66892e0c" y="35.416562"/>
     </g>
    </g>
    <g id="text_15">
     <!-- Experimental Data -->
     <defs>
      <path d="M 9.421875 75.984375 
L 18.40625 75.984375 
L 18.40625 0 
L 9.421875 0 
z
" id="DejaVuSans-108"/>
      <path d="M 19.671875 64.796875 
L 19.671875 8.109375 
L 31.59375 8.109375 
Q 46.6875 8.109375 53.6875 14.9375 
Q 60.6875 21.78125 60.6875 36.53125 
Q 60.6875 51.171875 53.6875 57.984375 
Q 46.6875 64.796875 31.59375 64.796875 
z
M 9.8125 72.90625 
L 30.078125 72.90625 
Q 51.265625 72.90625 61.171875 64.09375 
Q 71.09375 55.28125 71.09375 36.53125 
Q 71.09375 17.671875 61.125 8.828125 
Q 51.171875 0 30.078125 0 
L 9.8125 0 
z
" id="DejaVuSans-68"/>
     </defs>
     <g transform="translate(151.823438 38.916562)scale(0.1 -0.1)">
      <use xlink:href="#DejaVuSans-69"/>
      <use x="63.183594" xlink:href="#DejaVuSans-120"/>
      <use x="122.363281" xlink:href="#DejaVuSans-112"/>
      <use x="185.839844" xlink:href="#DejaVuSans-101"/>
      <use x="247.363281" xlink:href="#DejaVuSans-114"/>
      <use x="288.476562" xlink:href="#DejaVuSans-105"/>
      <use x="316.259766" xlink:href="#DejaVuSans-109"/>
      <use x="413.671875" xlink:href="#DejaVuSans-101"/>
      <use x="475.195312" xlink:href="#DejaVuSans-110"/>
      <use x="538.574219" xlink:href="#DejaVuSans-116"/>
      <use x="577.783203" xlink:href="#DejaVuSans-97"/>
      <use x="639.0625" xlink:href="#DejaVuSans-108"/>
      <use x="666.845703" xlink:href="#DejaVuSans-32"/>
      <use x="698.632812" xlink:href="#DejaVuSans-68"/>
      <use x="775.634766" xlink:href="#DejaVuSans-97"/>
      <use x="836.914062" xlink:href="#DejaVuSans-116"/>
      <use x="876.123047" xlink:href="#DejaVuSans-97"/>
     </g>
    </g>
    <g id="line2d_25">
     <path d="M 123.823438 50.094687 
L 143.823438 50.094687 
" style="fill:none;stroke:#0000ff;stroke-linecap:square;stroke-width:1.5;"/>
    </g>
    <g id="line2d_26"/>
    <g id="text_16">
     <!-- MSI -->
     <defs>
      <path d="M 9.8125 72.90625 
L 24.515625 72.90625 
L 43.109375 23.296875 
L 61.8125 72.90625 
L 76.515625 72.90625 
L 76.515625 0 
L 66.890625 0 
L 66.890625 64.015625 
L 48.09375 14.015625 
L 38.1875 14.015625 
L 19.390625 64.015625 
L 19.390625 0 
L 9.8125 0 
z
" id="DejaVuSans-77"/>
      <path d="M 53.515625 70.515625 
L 53.515625 60.890625 
Q 47.90625 63.578125 42.921875 64.890625 
Q 37.9375 66.21875 33.296875 66.21875 
Q 25.25 66.21875 20.875 63.09375 
Q 16.5 59.96875 16.5 54.203125 
Q 16.5 49.359375 19.40625 46.890625 
Q 22.3125 44.4375 30.421875 42.921875 
L 36.375 41.703125 
Q 47.40625 39.59375 52.65625 34.296875 
Q 57.90625 29 57.90625 20.125 
Q 57.90625 9.515625 50.796875 4.046875 
Q 43.703125 -1.421875 29.984375 -1.421875 
Q 24.8125 -1.421875 18.96875 -0.25 
Q 13.140625 0.921875 6.890625 3.21875 
L 6.890625 13.375 
Q 12.890625 10.015625 18.65625 8.296875 
Q 24.421875 6.59375 29.984375 6.59375 
Q 38.421875 6.59375 43.015625 9.90625 
Q 47.609375 13.234375 47.609375 19.390625 
Q 47.609375 24.75 44.3125 27.78125 
Q 41.015625 30.8125 33.5 32.328125 
L 27.484375 33.5 
Q 16.453125 35.6875 11.515625 40.375 
Q 6.59375 45.0625 6.59375 53.421875 
Q 6.59375 63.09375 13.40625 68.65625 
Q 20.21875 74.21875 32.171875 74.21875 
Q 37.3125 74.21875 42.625 73.28125 
Q 47.953125 72.359375 53.515625 70.515625 
z
" id="DejaVuSans-83"/>
      <path d="M 9.8125 72.90625 
L 19.671875 72.90625 
L 19.671875 0 
L 9.8125 0 
z
" id="DejaVuSans-73"/>
     </defs>
     <g transform="translate(151.823438 53.594687)scale(0.1 -0.1)">
      <use xlink:href="#DejaVuSans-77"/>
      <use x="86.279297" xlink:href="#DejaVuSans-83"/>
      <use x="149.755859" xlink:href="#DejaVuSans-73"/>
     </g>
    </g>
    <g id="line2d_27">
     <path d="M 123.823438 64.774375 
L 143.823438 64.774375 
" style="fill:none;stroke:#ff0000;stroke-linecap:square;stroke-width:1.5;"/>
    </g>
    <g id="line2d_28"/>
    <g id="text_17">
     <!-- $\it{A priori}$ model -->
     <defs>
      <path d="M 36.8125 72.90625 
L 48 72.90625 
L 61.53125 0 
L 51.21875 0 
L 48.1875 18.703125 
L 15.375 18.703125 
L 5.078125 0 
L -5.328125 0 
z
M 40.375 63.1875 
L 19.921875 26.90625 
L 46.6875 26.90625 
z
" id="DejaVuSans-Oblique-65"/>
      <path d="M 49.609375 33.6875 
Q 49.609375 40.875 46.484375 44.671875 
Q 43.359375 48.484375 37.5 48.484375 
Q 33.5 48.484375 29.859375 46.4375 
Q 26.21875 44.390625 23.390625 40.484375 
Q 20.609375 36.625 18.9375 31.15625 
Q 17.28125 25.6875 17.28125 20.3125 
Q 17.28125 13.484375 20.40625 9.796875 
Q 23.53125 6.109375 29.296875 6.109375 
Q 33.546875 6.109375 37.1875 8.109375 
Q 40.828125 10.109375 43.40625 13.921875 
Q 46.1875 17.921875 47.890625 23.34375 
Q 49.609375 28.765625 49.609375 33.6875 
z
M 21.78125 46.390625 
Q 25.390625 51.125 30.296875 53.5625 
Q 35.203125 56 41.21875 56 
Q 49.609375 56 54.25 50.5 
Q 58.890625 45.015625 58.890625 35.109375 
Q 58.890625 27 56 19.65625 
Q 53.125 12.3125 47.703125 6.5 
Q 44.09375 2.640625 39.546875 0.609375 
Q 35.015625 -1.421875 29.984375 -1.421875 
Q 24.171875 -1.421875 20.21875 1 
Q 16.265625 3.421875 14.3125 8.203125 
L 8.6875 -20.796875 
L -0.296875 -20.796875 
L 14.40625 54.6875 
L 23.390625 54.6875 
z
" id="DejaVuSans-Oblique-112"/>
      <path d="M 44.578125 46.390625 
Q 43.21875 47.125 41.453125 47.515625 
Q 39.703125 47.90625 37.703125 47.90625 
Q 30.515625 47.90625 25.140625 42.453125 
Q 19.78125 37.015625 18.015625 27.875 
L 12.5 0 
L 3.515625 0 
L 14.203125 54.6875 
L 23.1875 54.6875 
L 21.484375 46.1875 
Q 25.046875 50.921875 30 53.453125 
Q 34.96875 56 40.578125 56 
Q 42.046875 56 43.453125 55.828125 
Q 44.875 55.671875 46.296875 55.28125 
z
" id="DejaVuSans-Oblique-114"/>
      <path d="M 18.3125 75.984375 
L 27.296875 75.984375 
L 25.09375 64.59375 
L 16.109375 64.59375 
z
M 14.203125 54.6875 
L 23.1875 54.6875 
L 12.5 0 
L 3.515625 0 
z
" id="DejaVuSans-Oblique-105"/>
      <path d="M 25.390625 -1.421875 
Q 15.765625 -1.421875 10.171875 4.515625 
Q 4.59375 10.453125 4.59375 20.703125 
Q 4.59375 26.65625 6.515625 32.828125 
Q 8.453125 39.015625 11.53125 43.21875 
Q 16.359375 49.75 22.3125 52.875 
Q 28.265625 56 35.796875 56 
Q 45.125 56 50.859375 50.1875 
Q 56.59375 44.390625 56.59375 35.015625 
Q 56.59375 28.515625 54.6875 22.0625 
Q 52.78125 15.625 49.703125 11.375 
Q 44.921875 4.828125 38.96875 1.703125 
Q 33.015625 -1.421875 25.390625 -1.421875 
z
M 13.921875 21 
Q 13.921875 13.578125 17.015625 9.890625 
Q 20.125 6.203125 26.421875 6.203125 
Q 35.453125 6.203125 41.375 14.078125 
Q 47.3125 21.96875 47.3125 34.078125 
Q 47.3125 41.15625 44.140625 44.765625 
Q 40.96875 48.390625 34.8125 48.390625 
Q 29.734375 48.390625 25.78125 46.015625 
Q 21.828125 43.65625 18.703125 38.8125 
Q 16.40625 35.203125 15.15625 30.5625 
Q 13.921875 25.921875 13.921875 21 
z
" id="DejaVuSans-Oblique-111"/>
      <path d="M 45.40625 46.390625 
L 45.40625 75.984375 
L 54.390625 75.984375 
L 54.390625 0 
L 45.40625 0 
L 45.40625 8.203125 
Q 42.578125 3.328125 38.25 0.953125 
Q 33.9375 -1.421875 27.875 -1.421875 
Q 17.96875 -1.421875 11.734375 6.484375 
Q 5.515625 14.40625 5.515625 27.296875 
Q 5.515625 40.1875 11.734375 48.09375 
Q 17.96875 56 27.875 56 
Q 33.9375 56 38.25 53.625 
Q 42.578125 51.265625 45.40625 46.390625 
z
M 14.796875 27.296875 
Q 14.796875 17.390625 18.875 11.75 
Q 22.953125 6.109375 30.078125 6.109375 
Q 37.203125 6.109375 41.296875 11.75 
Q 45.40625 17.390625 45.40625 27.296875 
Q 45.40625 37.203125 41.296875 42.84375 
Q 37.203125 48.484375 30.078125 48.484375 
Q 22.953125 48.484375 18.875 42.84375 
Q 14.796875 37.203125 14.796875 27.296875 
z
" id="DejaVuSans-100"/>
     </defs>
     <g transform="translate(151.823438 68.274375)scale(0.1 -0.1)">
      <use transform="translate(0 0.015625)" xlink:href="#DejaVuSans-Oblique-65"/>
      <use transform="translate(68.408203 0.015625)" xlink:href="#DejaVuSans-Oblique-112"/>
      <use transform="translate(131.884766 0.015625)" xlink:href="#DejaVuSans-Oblique-114"/>
      <use transform="translate(172.998047 0.015625)" xlink:href="#DejaVuSans-Oblique-105"/>
      <use transform="translate(200.78125 0.015625)" xlink:href="#DejaVuSans-Oblique-111"/>
      <use transform="translate(261.962891 0.015625)" xlink:href="#DejaVuSans-Oblique-114"/>
      <use transform="translate(303.076172 0.015625)" xlink:href="#DejaVuSans-Oblique-105"/>
      <use transform="translate(330.859375 0.015625)" xlink:href="#DejaVuSans-32"/>
      <use transform="translate(362.646484 0.015625)" xlink:href="#DejaVuSans-109"/>
      <use transform="translate(460.058594 0.015625)" xlink:href="#DejaVuSans-111"/>
      <use transform="translate(521.240234 0.015625)" xlink:href="#DejaVuSans-100"/>
      <use transform="translate(584.716797 0.015625)" xlink:href="#DejaVuSans-101"/>
      <use transform="translate(646.240234 0.015625)" xlink:href="#DejaVuSans-108"/>
     </g>
    </g>
    <g id="line2d_29">
     <path d="M 123.823438 79.472813 
L 143.823438 79.472813 
" style="fill:none;stroke:#ffffff;stroke-linecap:square;stroke-width:1.5;"/>
    </g>
    <g id="line2d_30"/>
    <g id="text_18">
     <!-- T:1210 -->
     <defs>
      <path d="M 11.71875 12.40625 
L 22.015625 12.40625 
L 22.015625 0 
L 11.71875 0 
z
M 11.71875 51.703125 
L 22.015625 51.703125 
L 22.015625 39.3125 
L 11.71875 39.3125 
z
" id="DejaVuSans-58"/>
     </defs>
     <g transform="translate(151.823438 82.972813)scale(0.1 -0.1)">
      <use xlink:href="#DejaVuSans-84"/>
      <use x="60.912109" xlink:href="#DejaVuSans-58"/>
      <use x="94.603516" xlink:href="#DejaVuSans-49"/>
      <use x="158.226562" xlink:href="#DejaVuSans-50"/>
      <use x="221.849609" xlink:href="#DejaVuSans-49"/>
      <use x="285.472656" xlink:href="#DejaVuSans-48"/>
     </g>
    </g>
    <g id="line2d_31">
     <path d="M 123.823438 94.150937 
L 143.823438 94.150937 
" style="fill:none;stroke:#ffffff;stroke-linecap:square;stroke-width:1.5;"/>
    </g>
    <g id="line2d_32"/>
    <g id="text_19">
     <!-- P:1.668 -->
     <defs>
      <path d="M 19.671875 64.796875 
L 19.671875 37.40625 
L 32.078125 37.40625 
Q 38.96875 37.40625 42.71875 40.96875 
Q 46.484375 44.53125 46.484375 51.125 
Q 46.484375 57.671875 42.71875 61.234375 
Q 38.96875 64.796875 32.078125 64.796875 
z
M 9.8125 72.90625 
L 32.078125 72.90625 
Q 44.34375 72.90625 50.609375 67.359375 
Q 56.890625 61.8125 56.890625 51.125 
Q 56.890625 40.328125 50.609375 34.8125 
Q 44.34375 29.296875 32.078125 29.296875 
L 19.671875 29.296875 
L 19.671875 0 
L 9.8125 0 
z
" id="DejaVuSans-80"/>
     </defs>
     <g transform="translate(151.823438 97.650937)scale(0.1 -0.1)">
      <use xlink:href="#DejaVuSans-80"/>
      <use x="60.302734" xlink:href="#DejaVuSans-58"/>
      <use x="93.994141" xlink:href="#DejaVuSans-49"/>
      <use x="157.617188" xlink:href="#DejaVuSans-46"/>
      <use x="189.404297" xlink:href="#DejaVuSans-54"/>
      <use x="253.027344" xlink:href="#DejaVuSans-54"/>
      <use x="316.650391" xlink:href="#DejaVuSans-56"/>
     </g>
    </g>
    <g id="line2d_33">
     <path d="M 265.564063 35.416562 
L 285.564063 35.416562 
" style="fill:none;stroke:#ffffff;stroke-linecap:square;stroke-width:1.5;"/>
    </g>
    <g id="line2d_34"/>
    <g id="text_20">
     <!-- H2O2: 0.002399 -->
     <defs>
      <path d="M 9.8125 72.90625 
L 19.671875 72.90625 
L 19.671875 43.015625 
L 55.515625 43.015625 
L 55.515625 72.90625 
L 65.375 72.90625 
L 65.375 0 
L 55.515625 0 
L 55.515625 34.71875 
L 19.671875 34.71875 
L 19.671875 0 
L 9.8125 0 
z
" id="DejaVuSans-72"/>
      <path d="M 39.40625 66.21875 
Q 28.65625 66.21875 22.328125 58.203125 
Q 16.015625 50.203125 16.015625 36.375 
Q 16.015625 22.609375 22.328125 14.59375 
Q 28.65625 6.59375 39.40625 6.59375 
Q 50.140625 6.59375 56.421875 14.59375 
Q 62.703125 22.609375 62.703125 36.375 
Q 62.703125 50.203125 56.421875 58.203125 
Q 50.140625 66.21875 39.40625 66.21875 
z
M 39.40625 74.21875 
Q 54.734375 74.21875 63.90625 63.9375 
Q 73.09375 53.65625 73.09375 36.375 
Q 73.09375 19.140625 63.90625 8.859375 
Q 54.734375 -1.421875 39.40625 -1.421875 
Q 24.03125 -1.421875 14.8125 8.828125 
Q 5.609375 19.09375 5.609375 36.375 
Q 5.609375 53.65625 14.8125 63.9375 
Q 24.03125 74.21875 39.40625 74.21875 
z
" id="DejaVuSans-79"/>
      <path d="M 40.578125 39.3125 
Q 47.65625 37.796875 51.625 33 
Q 55.609375 28.21875 55.609375 21.1875 
Q 55.609375 10.40625 48.1875 4.484375 
Q 40.765625 -1.421875 27.09375 -1.421875 
Q 22.515625 -1.421875 17.65625 -0.515625 
Q 12.796875 0.390625 7.625 2.203125 
L 7.625 11.71875 
Q 11.71875 9.328125 16.59375 8.109375 
Q 21.484375 6.890625 26.8125 6.890625 
Q 36.078125 6.890625 40.9375 10.546875 
Q 45.796875 14.203125 45.796875 21.1875 
Q 45.796875 27.640625 41.28125 31.265625 
Q 36.765625 34.90625 28.71875 34.90625 
L 20.21875 34.90625 
L 20.21875 43.015625 
L 29.109375 43.015625 
Q 36.375 43.015625 40.234375 45.921875 
Q 44.09375 48.828125 44.09375 54.296875 
Q 44.09375 59.90625 40.109375 62.90625 
Q 36.140625 65.921875 28.71875 65.921875 
Q 24.65625 65.921875 20.015625 65.03125 
Q 15.375 64.15625 9.8125 62.3125 
L 9.8125 71.09375 
Q 15.4375 72.65625 20.34375 73.4375 
Q 25.25 74.21875 29.59375 74.21875 
Q 40.828125 74.21875 47.359375 69.109375 
Q 53.90625 64.015625 53.90625 55.328125 
Q 53.90625 49.265625 50.4375 45.09375 
Q 46.96875 40.921875 40.578125 39.3125 
z
" id="DejaVuSans-51"/>
      <path d="M 10.984375 1.515625 
L 10.984375 10.5 
Q 14.703125 8.734375 18.5 7.8125 
Q 22.3125 6.890625 25.984375 6.890625 
Q 35.75 6.890625 40.890625 13.453125 
Q 46.046875 20.015625 46.78125 33.40625 
Q 43.953125 29.203125 39.59375 26.953125 
Q 35.25 24.703125 29.984375 24.703125 
Q 19.046875 24.703125 12.671875 31.3125 
Q 6.296875 37.9375 6.296875 49.421875 
Q 6.296875 60.640625 12.9375 67.421875 
Q 19.578125 74.21875 30.609375 74.21875 
Q 43.265625 74.21875 49.921875 64.515625 
Q 56.59375 54.828125 56.59375 36.375 
Q 56.59375 19.140625 48.40625 8.859375 
Q 40.234375 -1.421875 26.421875 -1.421875 
Q 22.703125 -1.421875 18.890625 -0.6875 
Q 15.09375 0.046875 10.984375 1.515625 
z
M 30.609375 32.421875 
Q 37.25 32.421875 41.125 36.953125 
Q 45.015625 41.5 45.015625 49.421875 
Q 45.015625 57.28125 41.125 61.84375 
Q 37.25 66.40625 30.609375 66.40625 
Q 23.96875 66.40625 20.09375 61.84375 
Q 16.21875 57.28125 16.21875 49.421875 
Q 16.21875 41.5 20.09375 36.953125 
Q 23.96875 32.421875 30.609375 32.421875 
z
" id="DejaVuSans-57"/>
     </defs>
     <g transform="translate(293.564063 38.916562)scale(0.1 -0.1)">
      <use xlink:href="#DejaVuSans-72"/>
      <use x="75.195312" xlink:href="#DejaVuSans-50"/>
      <use x="138.818359" xlink:href="#DejaVuSans-79"/>
      <use x="217.529297" xlink:href="#DejaVuSans-50"/>
      <use x="281.152344" xlink:href="#DejaVuSans-58"/>
      <use x="314.84375" xlink:href="#DejaVuSans-32"/>
      <use x="346.630859" xlink:href="#DejaVuSans-48"/>
      <use x="410.253906" xlink:href="#DejaVuSans-46"/>
      <use x="442.041016" xlink:href="#DejaVuSans-48"/>
      <use x="505.664062" xlink:href="#DejaVuSans-48"/>
      <use x="569.287109" xlink:href="#DejaVuSans-50"/>
      <use x="632.910156" xlink:href="#DejaVuSans-51"/>
      <use x="696.533203" xlink:href="#DejaVuSans-57"/>
      <use x="760.15625" xlink:href="#DejaVuSans-57"/>
     </g>
    </g>
    <g id="line2d_35">
     <path d="M 265.564063 50.094687 
L 285.564063 50.094687 
" style="fill:none;stroke:#ffffff;stroke-linecap:square;stroke-width:1.5;"/>
    </g>
    <g id="line2d_36"/>
    <g id="text_21">
     <!-- H2O: 0.001113 -->
     <g transform="translate(293.564063 53.594687)scale(0.1 -0.1)">
      <use xlink:href="#DejaVuSans-72"/>
      <use x="75.195312" xlink:href="#DejaVuSans-50"/>
      <use x="138.818359" xlink:href="#DejaVuSans-79"/>
      <use x="217.513672" xlink:href="#DejaVuSans-58"/>
      <use x="251.205078" xlink:href="#DejaVuSans-32"/>
      <use x="282.992188" xlink:href="#DejaVuSans-48"/>
      <use x="346.615234" xlink:href="#DejaVuSans-46"/>
      <use x="378.402344" xlink:href="#DejaVuSans-48"/>
      <use x="442.025391" xlink:href="#DejaVuSans-48"/>
      <use x="505.648438" xlink:href="#DejaVuSans-49"/>
      <use x="569.271484" xlink:href="#DejaVuSans-49"/>
      <use x="632.894531" xlink:href="#DejaVuSans-49"/>
      <use x="696.517578" xlink:href="#DejaVuSans-51"/>
     </g>
    </g>
    <g id="line2d_37">
     <path d="M 265.564063 64.772812 
L 285.564063 64.772812 
" style="fill:none;stroke:#ffffff;stroke-linecap:square;stroke-width:1.5;"/>
    </g>
    <g id="line2d_38"/>
    <g id="text_22">
     <!-- O2: 0.000556 -->
     <g transform="translate(293.564063 68.272812)scale(0.1 -0.1)">
      <use xlink:href="#DejaVuSans-79"/>
      <use x="78.710938" xlink:href="#DejaVuSans-50"/>
      <use x="142.333984" xlink:href="#DejaVuSans-58"/>
      <use x="176.025391" xlink:href="#DejaVuSans-32"/>
      <use x="207.8125" xlink:href="#DejaVuSans-48"/>
      <use x="271.435547" xlink:href="#DejaVuSans-46"/>
      <use x="303.222656" xlink:href="#DejaVuSans-48"/>
      <use x="366.845703" xlink:href="#DejaVuSans-48"/>
      <use x="430.46875" xlink:href="#DejaVuSans-48"/>
      <use x="494.091797" xlink:href="#DejaVuSans-53"/>
      <use x="557.714844" xlink:href="#DejaVuSans-53"/>
      <use x="621.337891" xlink:href="#DejaVuSans-54"/>
     </g>
    </g>
    <g id="line2d_39">
     <path d="M 265.564063 79.450938 
L 285.564063 79.450938 
" style="fill:none;stroke:#ffffff;stroke-linecap:square;stroke-width:1.5;"/>
    </g>
    <g id="line2d_40"/>
    <g id="text_23">
     <!-- Ar: 0.995907 -->
     <g transform="translate(293.564063 82.950938)scale(0.1 -0.1)">
      <use xlink:href="#DejaVuSans-65"/>
      <use x="68.408203" xlink:href="#DejaVuSans-114"/>
      <use x="109.505859" xlink:href="#DejaVuSans-58"/>
      <use x="143.197266" xlink:href="#DejaVuSans-32"/>
      <use x="174.984375" xlink:href="#DejaVuSans-48"/>
      <use x="238.607422" xlink:href="#DejaVuSans-46"/>
      <use x="270.394531" xlink:href="#DejaVuSans-57"/>
      <use x="334.017578" xlink:href="#DejaVuSans-57"/>
      <use x="397.640625" xlink:href="#DejaVuSans-53"/>
      <use x="461.263672" xlink:href="#DejaVuSans-57"/>
      <use x="524.886719" xlink:href="#DejaVuSans-48"/>
      <use x="588.509766" xlink:href="#DejaVuSans-55"/>
     </g>
    </g>
   </g>
  </g>
 </g>
 <defs>
  <clipPath id="pc5c913370f">
   <rect height="217.44" width="334.8" x="50.14375" y="22.318125"/>
  </clipPath>
 </defs>
</svg>
