<?xml version="1.0" encoding="utf-8" standalone="no"?>
<!DOCTYPE svg PUBLIC "-//W3C//DTD SVG 1.1//EN"
  "http://www.w3.org/Graphics/SVG/1.1/DTD/svg11.dtd">
<!-- Created with matplotlib (https://matplotlib.org/) -->
<svg height="277.314375pt" version="1.1" viewBox="0 0 395.64375 277.314375" width="395.64375pt" xmlns="http://www.w3.org/2000/svg" xmlns:xlink="http://www.w3.org/1999/xlink">
 <defs>
  <style type="text/css">
*{stroke-linecap:butt;stroke-linejoin:round;}
  </style>
 </defs>
 <g id="figure_1">
  <g id="patch_1">
   <path d="M 0 277.314375 
L 395.64375 277.314375 
L 395.64375 0 
L 0 0 
z
" style="fill:none;"/>
  </g>
  <g id="axes_1">
   <g id="patch_2">
    <path d="M 50.14375 239.758125 
L 384.94375 239.758125 
L 384.94375 22.318125 
L 50.14375 22.318125 
z
" style="fill:none;"/>
   </g>
   <g id="matplotlib.axis_1">
    <g id="xtick_1">
     <g id="line2d_1">
      <defs>
       <path d="M 0 0 
L 0 3.5 
" id="mf2bc9aa43a" style="stroke:#000000;stroke-width:0.8;"/>
      </defs>
      <g>
       <use style="stroke:#000000;stroke-width:0.8;" x="65.361932" xlink:href="#mf2bc9aa43a" y="239.758125"/>
      </g>
     </g>
     <g id="text_1">
      <!-- 0.0 -->
      <defs>
       <path d="M 31.78125 66.40625 
Q 24.171875 66.40625 20.328125 58.90625 
Q 16.5 51.421875 16.5 36.375 
Q 16.5 21.390625 20.328125 13.890625 
Q 24.171875 6.390625 31.78125 6.390625 
Q 39.453125 6.390625 43.28125 13.890625 
Q 47.125 21.390625 47.125 36.375 
Q 47.125 51.421875 43.28125 58.90625 
Q 39.453125 66.40625 31.78125 66.40625 
z
M 31.78125 74.21875 
Q 44.046875 74.21875 50.515625 64.515625 
Q 56.984375 54.828125 56.984375 36.375 
Q 56.984375 17.96875 50.515625 8.265625 
Q 44.046875 -1.421875 31.78125 -1.421875 
Q 19.53125 -1.421875 13.0625 8.265625 
Q 6.59375 17.96875 6.59375 36.375 
Q 6.59375 54.828125 13.0625 64.515625 
Q 19.53125 74.21875 31.78125 74.21875 
z
" id="DejaVuSans-48"/>
       <path d="M 10.6875 12.40625 
L 21 12.40625 
L 21 0 
L 10.6875 0 
z
" id="DejaVuSans-46"/>
      </defs>
      <g transform="translate(57.410369 254.356562)scale(0.1 -0.1)">
       <use xlink:href="#DejaVuSans-48"/>
       <use x="63.623047" xlink:href="#DejaVuSans-46"/>
       <use x="95.410156" xlink:href="#DejaVuSans-48"/>
      </g>
     </g>
    </g>
    <g id="xtick_2">
     <g id="line2d_2">
      <g>
       <use style="stroke:#000000;stroke-width:0.8;" x="125.615396" xlink:href="#mf2bc9aa43a" y="239.758125"/>
      </g>
     </g>
     <g id="text_2">
      <!-- 0.2 -->
      <defs>
       <path d="M 19.1875 8.296875 
L 53.609375 8.296875 
L 53.609375 0 
L 7.328125 0 
L 7.328125 8.296875 
Q 12.9375 14.109375 22.625 23.890625 
Q 32.328125 33.6875 34.8125 36.53125 
Q 39.546875 41.84375 41.421875 45.53125 
Q 43.3125 49.21875 43.3125 52.78125 
Q 43.3125 58.59375 39.234375 62.25 
Q 35.15625 65.921875 28.609375 65.921875 
Q 23.96875 65.921875 18.8125 64.3125 
Q 13.671875 62.703125 7.8125 59.421875 
L 7.8125 69.390625 
Q 13.765625 71.78125 18.9375 73 
Q 24.125 74.21875 28.421875 74.21875 
Q 39.75 74.21875 46.484375 68.546875 
Q 53.21875 62.890625 53.21875 53.421875 
Q 53.21875 48.921875 51.53125 44.890625 
Q 49.859375 40.875 45.40625 35.40625 
Q 44.1875 33.984375 37.640625 27.21875 
Q 31.109375 20.453125 19.1875 8.296875 
z
" id="DejaVuSans-50"/>
      </defs>
      <g transform="translate(117.663834 254.356562)scale(0.1 -0.1)">
       <use xlink:href="#DejaVuSans-48"/>
       <use x="63.623047" xlink:href="#DejaVuSans-46"/>
       <use x="95.410156" xlink:href="#DejaVuSans-50"/>
      </g>
     </g>
    </g>
    <g id="xtick_3">
     <g id="line2d_3">
      <g>
       <use style="stroke:#000000;stroke-width:0.8;" x="185.868861" xlink:href="#mf2bc9aa43a" y="239.758125"/>
      </g>
     </g>
     <g id="text_3">
      <!-- 0.4 -->
      <defs>
       <path d="M 37.796875 64.3125 
L 12.890625 25.390625 
L 37.796875 25.390625 
z
M 35.203125 72.90625 
L 47.609375 72.90625 
L 47.609375 25.390625 
L 58.015625 25.390625 
L 58.015625 17.1875 
L 47.609375 17.1875 
L 47.609375 0 
L 37.796875 0 
L 37.796875 17.1875 
L 4.890625 17.1875 
L 4.890625 26.703125 
z
" id="DejaVuSans-52"/>
      </defs>
      <g transform="translate(177.917298 254.356562)scale(0.1 -0.1)">
       <use xlink:href="#DejaVuSans-48"/>
       <use x="63.623047" xlink:href="#DejaVuSans-46"/>
       <use x="95.410156" xlink:href="#DejaVuSans-52"/>
      </g>
     </g>
    </g>
    <g id="xtick_4">
     <g id="line2d_4">
      <g>
       <use style="stroke:#000000;stroke-width:0.8;" x="246.122326" xlink:href="#mf2bc9aa43a" y="239.758125"/>
      </g>
     </g>
     <g id="text_4">
      <!-- 0.6 -->
      <defs>
       <path d="M 33.015625 40.375 
Q 26.375 40.375 22.484375 35.828125 
Q 18.609375 31.296875 18.609375 23.390625 
Q 18.609375 15.53125 22.484375 10.953125 
Q 26.375 6.390625 33.015625 6.390625 
Q 39.65625 6.390625 43.53125 10.953125 
Q 47.40625 15.53125 47.40625 23.390625 
Q 47.40625 31.296875 43.53125 35.828125 
Q 39.65625 40.375 33.015625 40.375 
z
M 52.59375 71.296875 
L 52.59375 62.3125 
Q 48.875 64.0625 45.09375 64.984375 
Q 41.3125 65.921875 37.59375 65.921875 
Q 27.828125 65.921875 22.671875 59.328125 
Q 17.53125 52.734375 16.796875 39.40625 
Q 19.671875 43.65625 24.015625 45.921875 
Q 28.375 48.1875 33.59375 48.1875 
Q 44.578125 48.1875 50.953125 41.515625 
Q 57.328125 34.859375 57.328125 23.390625 
Q 57.328125 12.15625 50.6875 5.359375 
Q 44.046875 -1.421875 33.015625 -1.421875 
Q 20.359375 -1.421875 13.671875 8.265625 
Q 6.984375 17.96875 6.984375 36.375 
Q 6.984375 53.65625 15.1875 63.9375 
Q 23.390625 74.21875 37.203125 74.21875 
Q 40.921875 74.21875 44.703125 73.484375 
Q 48.484375 72.75 52.59375 71.296875 
z
" id="DejaVuSans-54"/>
      </defs>
      <g transform="translate(238.170763 254.356562)scale(0.1 -0.1)">
       <use xlink:href="#DejaVuSans-48"/>
       <use x="63.623047" xlink:href="#DejaVuSans-46"/>
       <use x="95.410156" xlink:href="#DejaVuSans-54"/>
      </g>
     </g>
    </g>
    <g id="xtick_5">
     <g id="line2d_5">
      <g>
       <use style="stroke:#000000;stroke-width:0.8;" x="306.37579" xlink:href="#mf2bc9aa43a" y="239.758125"/>
      </g>
     </g>
     <g id="text_5">
      <!-- 0.8 -->
      <defs>
       <path d="M 31.78125 34.625 
Q 24.75 34.625 20.71875 30.859375 
Q 16.703125 27.09375 16.703125 20.515625 
Q 16.703125 13.921875 20.71875 10.15625 
Q 24.75 6.390625 31.78125 6.390625 
Q 38.8125 6.390625 42.859375 10.171875 
Q 46.921875 13.96875 46.921875 20.515625 
Q 46.921875 27.09375 42.890625 30.859375 
Q 38.875 34.625 31.78125 34.625 
z
M 21.921875 38.8125 
Q 15.578125 40.375 12.03125 44.71875 
Q 8.5 49.078125 8.5 55.328125 
Q 8.5 64.0625 14.71875 69.140625 
Q 20.953125 74.21875 31.78125 74.21875 
Q 42.671875 74.21875 48.875 69.140625 
Q 55.078125 64.0625 55.078125 55.328125 
Q 55.078125 49.078125 51.53125 44.71875 
Q 48 40.375 41.703125 38.8125 
Q 48.828125 37.15625 52.796875 32.3125 
Q 56.78125 27.484375 56.78125 20.515625 
Q 56.78125 9.90625 50.3125 4.234375 
Q 43.84375 -1.421875 31.78125 -1.421875 
Q 19.734375 -1.421875 13.25 4.234375 
Q 6.78125 9.90625 6.78125 20.515625 
Q 6.78125 27.484375 10.78125 32.3125 
Q 14.796875 37.15625 21.921875 38.8125 
z
M 18.3125 54.390625 
Q 18.3125 48.734375 21.84375 45.5625 
Q 25.390625 42.390625 31.78125 42.390625 
Q 38.140625 42.390625 41.71875 45.5625 
Q 45.3125 48.734375 45.3125 54.390625 
Q 45.3125 60.0625 41.71875 63.234375 
Q 38.140625 66.40625 31.78125 66.40625 
Q 25.390625 66.40625 21.84375 63.234375 
Q 18.3125 60.0625 18.3125 54.390625 
z
" id="DejaVuSans-56"/>
      </defs>
      <g transform="translate(298.424228 254.356562)scale(0.1 -0.1)">
       <use xlink:href="#DejaVuSans-48"/>
       <use x="63.623047" xlink:href="#DejaVuSans-46"/>
       <use x="95.410156" xlink:href="#DejaVuSans-56"/>
      </g>
     </g>
    </g>
    <g id="xtick_6">
     <g id="line2d_6">
      <g>
       <use style="stroke:#000000;stroke-width:0.8;" x="366.629255" xlink:href="#mf2bc9aa43a" y="239.758125"/>
      </g>
     </g>
     <g id="text_6">
      <!-- 1.0 -->
      <defs>
       <path d="M 12.40625 8.296875 
L 28.515625 8.296875 
L 28.515625 63.921875 
L 10.984375 60.40625 
L 10.984375 69.390625 
L 28.421875 72.90625 
L 38.28125 72.90625 
L 38.28125 8.296875 
L 54.390625 8.296875 
L 54.390625 0 
L 12.40625 0 
z
" id="DejaVuSans-49"/>
      </defs>
      <g transform="translate(358.677692 254.356562)scale(0.1 -0.1)">
       <use xlink:href="#DejaVuSans-49"/>
       <use x="63.623047" xlink:href="#DejaVuSans-46"/>
       <use x="95.410156" xlink:href="#DejaVuSans-48"/>
      </g>
     </g>
    </g>
    <g id="text_7">
     <!-- Time (ms) -->
     <defs>
      <path d="M -0.296875 72.90625 
L 61.375 72.90625 
L 61.375 64.59375 
L 35.5 64.59375 
L 35.5 0 
L 25.59375 0 
L 25.59375 64.59375 
L -0.296875 64.59375 
z
" id="DejaVuSans-84"/>
      <path d="M 9.421875 54.6875 
L 18.40625 54.6875 
L 18.40625 0 
L 9.421875 0 
z
M 9.421875 75.984375 
L 18.40625 75.984375 
L 18.40625 64.59375 
L 9.421875 64.59375 
z
" id="DejaVuSans-105"/>
      <path d="M 52 44.1875 
Q 55.375 50.25 60.0625 53.125 
Q 64.75 56 71.09375 56 
Q 79.640625 56 84.28125 50.015625 
Q 88.921875 44.046875 88.921875 33.015625 
L 88.921875 0 
L 79.890625 0 
L 79.890625 32.71875 
Q 79.890625 40.578125 77.09375 44.375 
Q 74.3125 48.1875 68.609375 48.1875 
Q 61.625 48.1875 57.5625 43.546875 
Q 53.515625 38.921875 53.515625 30.90625 
L 53.515625 0 
L 44.484375 0 
L 44.484375 32.71875 
Q 44.484375 40.625 41.703125 44.40625 
Q 38.921875 48.1875 33.109375 48.1875 
Q 26.21875 48.1875 22.15625 43.53125 
Q 18.109375 38.875 18.109375 30.90625 
L 18.109375 0 
L 9.078125 0 
L 9.078125 54.6875 
L 18.109375 54.6875 
L 18.109375 46.1875 
Q 21.1875 51.21875 25.484375 53.609375 
Q 29.78125 56 35.6875 56 
Q 41.65625 56 45.828125 52.96875 
Q 50 49.953125 52 44.1875 
z
" id="DejaVuSans-109"/>
      <path d="M 56.203125 29.59375 
L 56.203125 25.203125 
L 14.890625 25.203125 
Q 15.484375 15.921875 20.484375 11.0625 
Q 25.484375 6.203125 34.421875 6.203125 
Q 39.59375 6.203125 44.453125 7.46875 
Q 49.3125 8.734375 54.109375 11.28125 
L 54.109375 2.78125 
Q 49.265625 0.734375 44.1875 -0.34375 
Q 39.109375 -1.421875 33.890625 -1.421875 
Q 20.796875 -1.421875 13.15625 6.1875 
Q 5.515625 13.8125 5.515625 26.8125 
Q 5.515625 40.234375 12.765625 48.109375 
Q 20.015625 56 32.328125 56 
Q 43.359375 56 49.78125 48.890625 
Q 56.203125 41.796875 56.203125 29.59375 
z
M 47.21875 32.234375 
Q 47.125 39.59375 43.09375 43.984375 
Q 39.0625 48.390625 32.421875 48.390625 
Q 24.90625 48.390625 20.390625 44.140625 
Q 15.875 39.890625 15.1875 32.171875 
z
" id="DejaVuSans-101"/>
      <path id="DejaVuSans-32"/>
      <path d="M 31 75.875 
Q 24.46875 64.65625 21.28125 53.65625 
Q 18.109375 42.671875 18.109375 31.390625 
Q 18.109375 20.125 21.3125 9.0625 
Q 24.515625 -2 31 -13.1875 
L 23.1875 -13.1875 
Q 15.875 -1.703125 12.234375 9.375 
Q 8.59375 20.453125 8.59375 31.390625 
Q 8.59375 42.28125 12.203125 53.3125 
Q 15.828125 64.359375 23.1875 75.875 
z
" id="DejaVuSans-40"/>
      <path d="M 44.28125 53.078125 
L 44.28125 44.578125 
Q 40.484375 46.53125 36.375 47.5 
Q 32.28125 48.484375 27.875 48.484375 
Q 21.1875 48.484375 17.84375 46.4375 
Q 14.5 44.390625 14.5 40.28125 
Q 14.5 37.15625 16.890625 35.375 
Q 19.28125 33.59375 26.515625 31.984375 
L 29.59375 31.296875 
Q 39.15625 29.25 43.1875 25.515625 
Q 47.21875 21.78125 47.21875 15.09375 
Q 47.21875 7.46875 41.1875 3.015625 
Q 35.15625 -1.421875 24.609375 -1.421875 
Q 20.21875 -1.421875 15.453125 -0.5625 
Q 10.6875 0.296875 5.421875 2 
L 5.421875 11.28125 
Q 10.40625 8.6875 15.234375 7.390625 
Q 20.0625 6.109375 24.8125 6.109375 
Q 31.15625 6.109375 34.5625 8.28125 
Q 37.984375 10.453125 37.984375 14.40625 
Q 37.984375 18.0625 35.515625 20.015625 
Q 33.0625 21.96875 24.703125 23.78125 
L 21.578125 24.515625 
Q 13.234375 26.265625 9.515625 29.90625 
Q 5.8125 33.546875 5.8125 39.890625 
Q 5.8125 47.609375 11.28125 51.796875 
Q 16.75 56 26.8125 56 
Q 31.78125 56 36.171875 55.265625 
Q 40.578125 54.546875 44.28125 53.078125 
z
" id="DejaVuSans-115"/>
      <path d="M 8.015625 75.875 
L 15.828125 75.875 
Q 23.140625 64.359375 26.78125 53.3125 
Q 30.421875 42.28125 30.421875 31.390625 
Q 30.421875 20.453125 26.78125 9.375 
Q 23.140625 -1.703125 15.828125 -13.1875 
L 8.015625 -13.1875 
Q 14.5 -2 17.703125 9.0625 
Q 20.90625 20.125 20.90625 31.390625 
Q 20.90625 42.671875 17.703125 53.65625 
Q 14.5 64.65625 8.015625 75.875 
z
" id="DejaVuSans-41"/>
     </defs>
     <g transform="translate(192.190625 268.034687)scale(0.1 -0.1)">
      <use xlink:href="#DejaVuSans-84"/>
      <use x="61.037109" xlink:href="#DejaVuSans-105"/>
      <use x="88.820312" xlink:href="#DejaVuSans-109"/>
      <use x="186.232422" xlink:href="#DejaVuSans-101"/>
      <use x="247.755859" xlink:href="#DejaVuSans-32"/>
      <use x="279.542969" xlink:href="#DejaVuSans-40"/>
      <use x="318.556641" xlink:href="#DejaVuSans-109"/>
      <use x="415.96875" xlink:href="#DejaVuSans-115"/>
      <use x="468.068359" xlink:href="#DejaVuSans-41"/>
     </g>
    </g>
   </g>
   <g id="matplotlib.axis_2">
    <g id="ytick_1">
     <g id="line2d_7">
      <defs>
       <path d="M 0 0 
L -3.5 0 
" id="m39af0427e8" style="stroke:#000000;stroke-width:0.8;"/>
      </defs>
      <g>
       <use style="stroke:#000000;stroke-width:0.8;" x="50.14375" xlink:href="#m39af0427e8" y="212.193214"/>
      </g>
     </g>
     <g id="text_8">
      <!-- 0.02 -->
      <g transform="translate(20.878125 215.992433)scale(0.1 -0.1)">
       <use xlink:href="#DejaVuSans-48"/>
       <use x="63.623047" xlink:href="#DejaVuSans-46"/>
       <use x="95.410156" xlink:href="#DejaVuSans-48"/>
       <use x="159.033203" xlink:href="#DejaVuSans-50"/>
      </g>
     </g>
    </g>
    <g id="ytick_2">
     <g id="line2d_8">
      <g>
       <use style="stroke:#000000;stroke-width:0.8;" x="50.14375" xlink:href="#m39af0427e8" y="182.86251"/>
      </g>
     </g>
     <g id="text_9">
      <!-- 0.04 -->
      <g transform="translate(20.878125 186.661729)scale(0.1 -0.1)">
       <use xlink:href="#DejaVuSans-48"/>
       <use x="63.623047" xlink:href="#DejaVuSans-46"/>
       <use x="95.410156" xlink:href="#DejaVuSans-48"/>
       <use x="159.033203" xlink:href="#DejaVuSans-52"/>
      </g>
     </g>
    </g>
    <g id="ytick_3">
     <g id="line2d_9">
      <g>
       <use style="stroke:#000000;stroke-width:0.8;" x="50.14375" xlink:href="#m39af0427e8" y="153.531806"/>
      </g>
     </g>
     <g id="text_10">
      <!-- 0.06 -->
      <g transform="translate(20.878125 157.331025)scale(0.1 -0.1)">
       <use xlink:href="#DejaVuSans-48"/>
       <use x="63.623047" xlink:href="#DejaVuSans-46"/>
       <use x="95.410156" xlink:href="#DejaVuSans-48"/>
       <use x="159.033203" xlink:href="#DejaVuSans-54"/>
      </g>
     </g>
    </g>
    <g id="ytick_4">
     <g id="line2d_10">
      <g>
       <use style="stroke:#000000;stroke-width:0.8;" x="50.14375" xlink:href="#m39af0427e8" y="124.201103"/>
      </g>
     </g>
     <g id="text_11">
      <!-- 0.08 -->
      <g transform="translate(20.878125 128.000321)scale(0.1 -0.1)">
       <use xlink:href="#DejaVuSans-48"/>
       <use x="63.623047" xlink:href="#DejaVuSans-46"/>
       <use x="95.410156" xlink:href="#DejaVuSans-48"/>
       <use x="159.033203" xlink:href="#DejaVuSans-56"/>
      </g>
     </g>
    </g>
    <g id="ytick_5">
     <g id="line2d_11">
      <g>
       <use style="stroke:#000000;stroke-width:0.8;" x="50.14375" xlink:href="#m39af0427e8" y="94.870399"/>
      </g>
     </g>
     <g id="text_12">
      <!-- 0.10 -->
      <g transform="translate(20.878125 98.669618)scale(0.1 -0.1)">
       <use xlink:href="#DejaVuSans-48"/>
       <use x="63.623047" xlink:href="#DejaVuSans-46"/>
       <use x="95.410156" xlink:href="#DejaVuSans-49"/>
       <use x="159.033203" xlink:href="#DejaVuSans-48"/>
      </g>
     </g>
    </g>
    <g id="ytick_6">
     <g id="line2d_12">
      <g>
       <use style="stroke:#000000;stroke-width:0.8;" x="50.14375" xlink:href="#m39af0427e8" y="65.539695"/>
      </g>
     </g>
     <g id="text_13">
      <!-- 0.12 -->
      <g transform="translate(20.878125 69.338914)scale(0.1 -0.1)">
       <use xlink:href="#DejaVuSans-48"/>
       <use x="63.623047" xlink:href="#DejaVuSans-46"/>
       <use x="95.410156" xlink:href="#DejaVuSans-49"/>
       <use x="159.033203" xlink:href="#DejaVuSans-50"/>
      </g>
     </g>
    </g>
    <g id="ytick_7">
     <g id="line2d_13">
      <g>
       <use style="stroke:#000000;stroke-width:0.8;" x="50.14375" xlink:href="#m39af0427e8" y="36.208992"/>
      </g>
     </g>
     <g id="text_14">
      <!-- 0.14 -->
      <g transform="translate(20.878125 40.00821)scale(0.1 -0.1)">
       <use xlink:href="#DejaVuSans-48"/>
       <use x="63.623047" xlink:href="#DejaVuSans-46"/>
       <use x="95.410156" xlink:href="#DejaVuSans-49"/>
       <use x="159.033203" xlink:href="#DejaVuSans-52"/>
      </g>
     </g>
    </g>
    <g id="text_15">
     <!-- Absorbance227 -->
     <defs>
      <path d="M 34.1875 63.1875 
L 20.796875 26.90625 
L 47.609375 26.90625 
z
M 28.609375 72.90625 
L 39.796875 72.90625 
L 67.578125 0 
L 57.328125 0 
L 50.6875 18.703125 
L 17.828125 18.703125 
L 11.1875 0 
L 0.78125 0 
z
" id="DejaVuSans-65"/>
      <path d="M 48.6875 27.296875 
Q 48.6875 37.203125 44.609375 42.84375 
Q 40.53125 48.484375 33.40625 48.484375 
Q 26.265625 48.484375 22.1875 42.84375 
Q 18.109375 37.203125 18.109375 27.296875 
Q 18.109375 17.390625 22.1875 11.75 
Q 26.265625 6.109375 33.40625 6.109375 
Q 40.53125 6.109375 44.609375 11.75 
Q 48.6875 17.390625 48.6875 27.296875 
z
M 18.109375 46.390625 
Q 20.953125 51.265625 25.265625 53.625 
Q 29.59375 56 35.59375 56 
Q 45.5625 56 51.78125 48.09375 
Q 58.015625 40.1875 58.015625 27.296875 
Q 58.015625 14.40625 51.78125 6.484375 
Q 45.5625 -1.421875 35.59375 -1.421875 
Q 29.59375 -1.421875 25.265625 0.953125 
Q 20.953125 3.328125 18.109375 8.203125 
L 18.109375 0 
L 9.078125 0 
L 9.078125 75.984375 
L 18.109375 75.984375 
z
" id="DejaVuSans-98"/>
      <path d="M 30.609375 48.390625 
Q 23.390625 48.390625 19.1875 42.75 
Q 14.984375 37.109375 14.984375 27.296875 
Q 14.984375 17.484375 19.15625 11.84375 
Q 23.34375 6.203125 30.609375 6.203125 
Q 37.796875 6.203125 41.984375 11.859375 
Q 46.1875 17.53125 46.1875 27.296875 
Q 46.1875 37.015625 41.984375 42.703125 
Q 37.796875 48.390625 30.609375 48.390625 
z
M 30.609375 56 
Q 42.328125 56 49.015625 48.375 
Q 55.71875 40.765625 55.71875 27.296875 
Q 55.71875 13.875 49.015625 6.21875 
Q 42.328125 -1.421875 30.609375 -1.421875 
Q 18.84375 -1.421875 12.171875 6.21875 
Q 5.515625 13.875 5.515625 27.296875 
Q 5.515625 40.765625 12.171875 48.375 
Q 18.84375 56 30.609375 56 
z
" id="DejaVuSans-111"/>
      <path d="M 41.109375 46.296875 
Q 39.59375 47.171875 37.8125 47.578125 
Q 36.03125 48 33.890625 48 
Q 26.265625 48 22.1875 43.046875 
Q 18.109375 38.09375 18.109375 28.8125 
L 18.109375 0 
L 9.078125 0 
L 9.078125 54.6875 
L 18.109375 54.6875 
L 18.109375 46.1875 
Q 20.953125 51.171875 25.484375 53.578125 
Q 30.03125 56 36.53125 56 
Q 37.453125 56 38.578125 55.875 
Q 39.703125 55.765625 41.0625 55.515625 
z
" id="DejaVuSans-114"/>
      <path d="M 34.28125 27.484375 
Q 23.390625 27.484375 19.1875 25 
Q 14.984375 22.515625 14.984375 16.5 
Q 14.984375 11.71875 18.140625 8.90625 
Q 21.296875 6.109375 26.703125 6.109375 
Q 34.1875 6.109375 38.703125 11.40625 
Q 43.21875 16.703125 43.21875 25.484375 
L 43.21875 27.484375 
z
M 52.203125 31.203125 
L 52.203125 0 
L 43.21875 0 
L 43.21875 8.296875 
Q 40.140625 3.328125 35.546875 0.953125 
Q 30.953125 -1.421875 24.3125 -1.421875 
Q 15.921875 -1.421875 10.953125 3.296875 
Q 6 8.015625 6 15.921875 
Q 6 25.140625 12.171875 29.828125 
Q 18.359375 34.515625 30.609375 34.515625 
L 43.21875 34.515625 
L 43.21875 35.40625 
Q 43.21875 41.609375 39.140625 45 
Q 35.0625 48.390625 27.6875 48.390625 
Q 23 48.390625 18.546875 47.265625 
Q 14.109375 46.140625 10.015625 43.890625 
L 10.015625 52.203125 
Q 14.9375 54.109375 19.578125 55.046875 
Q 24.21875 56 28.609375 56 
Q 40.484375 56 46.34375 49.84375 
Q 52.203125 43.703125 52.203125 31.203125 
z
" id="DejaVuSans-97"/>
      <path d="M 54.890625 33.015625 
L 54.890625 0 
L 45.90625 0 
L 45.90625 32.71875 
Q 45.90625 40.484375 42.875 44.328125 
Q 39.84375 48.1875 33.796875 48.1875 
Q 26.515625 48.1875 22.3125 43.546875 
Q 18.109375 38.921875 18.109375 30.90625 
L 18.109375 0 
L 9.078125 0 
L 9.078125 54.6875 
L 18.109375 54.6875 
L 18.109375 46.1875 
Q 21.34375 51.125 25.703125 53.5625 
Q 30.078125 56 35.796875 56 
Q 45.21875 56 50.046875 50.171875 
Q 54.890625 44.34375 54.890625 33.015625 
z
" id="DejaVuSans-110"/>
      <path d="M 48.78125 52.59375 
L 48.78125 44.1875 
Q 44.96875 46.296875 41.140625 47.34375 
Q 37.3125 48.390625 33.40625 48.390625 
Q 24.65625 48.390625 19.8125 42.84375 
Q 14.984375 37.3125 14.984375 27.296875 
Q 14.984375 17.28125 19.8125 11.734375 
Q 24.65625 6.203125 33.40625 6.203125 
Q 37.3125 6.203125 41.140625 7.25 
Q 44.96875 8.296875 48.78125 10.40625 
L 48.78125 2.09375 
Q 45.015625 0.34375 40.984375 -0.53125 
Q 36.96875 -1.421875 32.421875 -1.421875 
Q 20.0625 -1.421875 12.78125 6.34375 
Q 5.515625 14.109375 5.515625 27.296875 
Q 5.515625 40.671875 12.859375 48.328125 
Q 20.21875 56 33.015625 56 
Q 37.15625 56 41.109375 55.140625 
Q 45.0625 54.296875 48.78125 52.59375 
z
" id="DejaVuSans-99"/>
      <path d="M 8.203125 72.90625 
L 55.078125 72.90625 
L 55.078125 68.703125 
L 28.609375 0 
L 18.3125 0 
L 43.21875 64.59375 
L 8.203125 64.59375 
z
" id="DejaVuSans-55"/>
     </defs>
     <g transform="translate(14.798438 170.12875)rotate(-90)scale(0.1 -0.1)">
      <use xlink:href="#DejaVuSans-65"/>
      <use x="68.408203" xlink:href="#DejaVuSans-98"/>
      <use x="131.884766" xlink:href="#DejaVuSans-115"/>
      <use x="183.984375" xlink:href="#DejaVuSans-111"/>
      <use x="245.166016" xlink:href="#DejaVuSans-114"/>
      <use x="286.279297" xlink:href="#DejaVuSans-98"/>
      <use x="349.755859" xlink:href="#DejaVuSans-97"/>
      <use x="411.035156" xlink:href="#DejaVuSans-110"/>
      <use x="474.414062" xlink:href="#DejaVuSans-99"/>
      <use x="529.394531" xlink:href="#DejaVuSans-101"/>
      <use x="590.917969" xlink:href="#DejaVuSans-50"/>
      <use x="654.541016" xlink:href="#DejaVuSans-50"/>
      <use x="718.164062" xlink:href="#DejaVuSans-55"/>
     </g>
    </g>
   </g>
   <g id="line2d_14">
    <defs>
     <path d="M 0 3 
C 0.795609 3 1.55874 2.683901 2.12132 2.12132 
C 2.683901 1.55874 3 0.795609 3 0 
C 3 -0.795609 2.683901 -1.55874 2.12132 -2.12132 
C 1.55874 -2.683901 0.795609 -3 0 -3 
C -0.795609 -3 -1.55874 -2.683901 -2.12132 -2.12132 
C -2.683901 -1.55874 -3 -0.795609 -3 0 
C -3 0.795609 -2.683901 1.55874 -2.12132 2.12132 
C -1.55874 2.683901 -0.795609 3 0 3 
z
" id="m0bb6f2544b" style="stroke:#000000;"/>
    </defs>
    <g clip-path="url(#pa346df4be8)">
     <use style="stroke:#000000;" x="65.361932" xlink:href="#m0bb6f2544b" y="169.169764"/>
     <use style="stroke:#000000;" x="65.361944" xlink:href="#m0bb6f2544b" y="169.169764"/>
     <use style="stroke:#000000;" x="65.361989" xlink:href="#m0bb6f2544b" y="169.169764"/>
     <use style="stroke:#000000;" x="65.362034" xlink:href="#m0bb6f2544b" y="169.169764"/>
     <use style="stroke:#000000;" x="65.362079" xlink:href="#m0bb6f2544b" y="169.169764"/>
     <use style="stroke:#000000;" x="65.362148" xlink:href="#m0bb6f2544b" y="169.169764"/>
     <use style="stroke:#000000;" x="65.362263" xlink:href="#m0bb6f2544b" y="169.169911"/>
     <use style="stroke:#000000;" x="65.362459" xlink:href="#m0bb6f2544b" y="169.169911"/>
     <use style="stroke:#000000;" x="65.362799" xlink:href="#m0bb6f2544b" y="169.170058"/>
     <use style="stroke:#000000;" x="65.363411" xlink:href="#m0bb6f2544b" y="169.170204"/>
     <use style="stroke:#000000;" x="65.364788" xlink:href="#m0bb6f2544b" y="169.170498"/>
     <use style="stroke:#000000;" x="65.36618" xlink:href="#m0bb6f2544b" y="169.170938"/>
     <use style="stroke:#000000;" x="65.367535" xlink:href="#m0bb6f2544b" y="169.171231"/>
     <use style="stroke:#000000;" x="65.368921" xlink:href="#m0bb6f2544b" y="169.171524"/>
     <use style="stroke:#000000;" x="65.370307" xlink:href="#m0bb6f2544b" y="169.171964"/>
     <use style="stroke:#000000;" x="65.372175" xlink:href="#m0bb6f2544b" y="169.172404"/>
     <use style="stroke:#000000;" x="65.374043" xlink:href="#m0bb6f2544b" y="169.172844"/>
     <use style="stroke:#000000;" x="65.375911" xlink:href="#m0bb6f2544b" y="169.173284"/>
     <use style="stroke:#000000;" x="65.377778" xlink:href="#m0bb6f2544b" y="169.173724"/>
     <use style="stroke:#000000;" x="65.384226" xlink:href="#m0bb6f2544b" y="169.175044"/>
     <use style="stroke:#000000;" x="65.390673" xlink:href="#m0bb6f2544b" y="169.176364"/>
     <use style="stroke:#000000;" x="65.39718" xlink:href="#m0bb6f2544b" y="169.177537"/>
     <use style="stroke:#000000;" x="65.403507" xlink:href="#m0bb6f2544b" y="169.17871"/>
     <use style="stroke:#000000;" x="65.410135" xlink:href="#m0bb6f2544b" y="169.179737"/>
     <use style="stroke:#000000;" x="65.416461" xlink:href="#m0bb6f2544b" y="169.180617"/>
     <use style="stroke:#000000;" x="65.422788" xlink:href="#m0bb6f2544b" y="169.18135"/>
     <use style="stroke:#000000;" x="65.43755" xlink:href="#m0bb6f2544b" y="169.182963"/>
     <use style="stroke:#000000;" x="65.452312" xlink:href="#m0bb6f2544b" y="169.183843"/>
     <use style="stroke:#000000;" x="65.467074" xlink:href="#m0bb6f2544b" y="169.184283"/>
     <use style="stroke:#000000;" x="65.481836" xlink:href="#m0bb6f2544b" y="169.184283"/>
     <use style="stroke:#000000;" x="65.4969" xlink:href="#m0bb6f2544b" y="169.183696"/>
     <use style="stroke:#000000;" x="65.52311" xlink:href="#m0bb6f2544b" y="169.181497"/>
     <use style="stroke:#000000;" x="65.549621" xlink:href="#m0bb6f2544b" y="169.177537"/>
     <use style="stroke:#000000;" x="65.575832" xlink:href="#m0bb6f2544b" y="169.172257"/>
     <use style="stroke:#000000;" x="65.602343" xlink:href="#m0bb6f2544b" y="169.165218"/>
     <use style="stroke:#000000;" x="65.628553" xlink:href="#m0bb6f2544b" y="169.156712"/>
     <use style="stroke:#000000;" x="65.655065" xlink:href="#m0bb6f2544b" y="169.14674"/>
     <use style="stroke:#000000;" x="65.705377" xlink:href="#m0bb6f2544b" y="169.123569"/>
     <use style="stroke:#000000;" x="65.756592" xlink:href="#m0bb6f2544b" y="169.094824"/>
     <use style="stroke:#000000;" x="65.792744" xlink:href="#m0bb6f2544b" y="169.071067"/>
     <use style="stroke:#000000;" x="65.828896" xlink:href="#m0bb6f2544b" y="169.044522"/>
     <use style="stroke:#000000;" x="65.865048" xlink:href="#m0bb6f2544b" y="169.015485"/>
     <use style="stroke:#000000;" x="65.9012" xlink:href="#m0bb6f2544b" y="168.983808"/>
     <use style="stroke:#000000;" x="65.937352" xlink:href="#m0bb6f2544b" y="168.949637"/>
     <use style="stroke:#000000;" x="65.973504" xlink:href="#m0bb6f2544b" y="168.912974"/>
     <use style="stroke:#000000;" x="66.012669" xlink:href="#m0bb6f2544b" y="168.873964"/>
     <use style="stroke:#000000;" x="66.048821" xlink:href="#m0bb6f2544b" y="168.832461"/>
     <use style="stroke:#000000;" x="66.084973" xlink:href="#m0bb6f2544b" y="168.788759"/>
     <use style="stroke:#000000;" x="66.14824" xlink:href="#m0bb6f2544b" y="168.706633"/>
     <use style="stroke:#000000;" x="66.211506" xlink:href="#m0bb6f2544b" y="168.617907"/>
     <use style="stroke:#000000;" x="66.274772" xlink:href="#m0bb6f2544b" y="168.522582"/>
     <use style="stroke:#000000;" x="66.338038" xlink:href="#m0bb6f2544b" y="168.420805"/>
     <use style="stroke:#000000;" x="66.401304" xlink:href="#m0bb6f2544b" y="168.312868"/>
     <use style="stroke:#000000;" x="66.467583" xlink:href="#m0bb6f2544b" y="168.199065"/>
     <use style="stroke:#000000;" x="66.530849" xlink:href="#m0bb6f2544b" y="168.079395"/>
     <use style="stroke:#000000;" x="66.594115" xlink:href="#m0bb6f2544b" y="167.9543"/>
     <use style="stroke:#000000;" x="66.657381" xlink:href="#m0bb6f2544b" y="167.823632"/>
     <use style="stroke:#000000;" x="66.720647" xlink:href="#m0bb6f2544b" y="167.687831"/>
     <use style="stroke:#000000;" x="66.783914" xlink:href="#m0bb6f2544b" y="167.547043"/>
     <use style="stroke:#000000;" x="66.84718" xlink:href="#m0bb6f2544b" y="167.401416"/>
     <use style="stroke:#000000;" x="66.913459" xlink:href="#m0bb6f2544b" y="167.25095"/>
     <use style="stroke:#000000;" x="66.976725" xlink:href="#m0bb6f2544b" y="167.096084"/>
     <use style="stroke:#000000;" x="67.039991" xlink:href="#m0bb6f2544b" y="166.936818"/>
     <use style="stroke:#000000;" x="67.103257" xlink:href="#m0bb6f2544b" y="166.773299"/>
     <use style="stroke:#000000;" x="67.166523" xlink:href="#m0bb6f2544b" y="166.605821"/>
     <use style="stroke:#000000;" x="67.262929" xlink:href="#m0bb6f2544b" y="166.346537"/>
     <use style="stroke:#000000;" x="67.359334" xlink:href="#m0bb6f2544b" y="166.078895"/>
     <use style="stroke:#000000;" x="67.452727" xlink:href="#m0bb6f2544b" y="165.803333"/>
     <use style="stroke:#000000;" x="67.549133" xlink:href="#m0bb6f2544b" y="165.520292"/>
     <use style="stroke:#000000;" x="67.645538" xlink:href="#m0bb6f2544b" y="165.230211"/>
     <use style="stroke:#000000;" x="67.741944" xlink:href="#m0bb6f2544b" y="164.933384"/>
     <use style="stroke:#000000;" x="67.838349" xlink:href="#m0bb6f2544b" y="164.630398"/>
     <use style="stroke:#000000;" x="67.931742" xlink:href="#m0bb6f2544b" y="164.321546"/>
     <use style="stroke:#000000;" x="68.028148" xlink:href="#m0bb6f2544b" y="164.007121"/>
     <use style="stroke:#000000;" x="68.124553" xlink:href="#m0bb6f2544b" y="163.687709"/>
     <use style="stroke:#000000;" x="68.220959" xlink:href="#m0bb6f2544b" y="163.363312"/>
     <use style="stroke:#000000;" x="68.314352" xlink:href="#m0bb6f2544b" y="163.034368"/>
     <use style="stroke:#000000;" x="68.404732" xlink:href="#m0bb6f2544b" y="162.701318"/>
     <use style="stroke:#000000;" x="68.495112" xlink:href="#m0bb6f2544b" y="162.364308"/>
     <use style="stroke:#000000;" x="68.615619" xlink:href="#m0bb6f2544b" y="162.023632"/>
     <use style="stroke:#000000;" x="68.705999" xlink:href="#m0bb6f2544b" y="161.679729"/>
     <use style="stroke:#000000;" x="68.796379" xlink:href="#m0bb6f2544b" y="161.3326"/>
     <use style="stroke:#000000;" x="68.886759" xlink:href="#m0bb6f2544b" y="160.982685"/>
     <use style="stroke:#000000;" x="68.97714" xlink:href="#m0bb6f2544b" y="160.629983"/>
     <use style="stroke:#000000;" x="69.06752" xlink:href="#m0bb6f2544b" y="160.275082"/>
     <use style="stroke:#000000;" x="69.188027" xlink:href="#m0bb6f2544b" y="159.917834"/>
     <use style="stroke:#000000;" x="69.278407" xlink:href="#m0bb6f2544b" y="159.558679"/>
     <use style="stroke:#000000;" x="69.368787" xlink:href="#m0bb6f2544b" y="159.197765"/>
     <use style="stroke:#000000;" x="69.459167" xlink:href="#m0bb6f2544b" y="158.835238"/>
     <use style="stroke:#000000;" x="69.549548" xlink:href="#m0bb6f2544b" y="158.471244"/>
     <use style="stroke:#000000;" x="69.670055" xlink:href="#m0bb6f2544b" y="158.106076"/>
     <use style="stroke:#000000;" x="69.760435" xlink:href="#m0bb6f2544b" y="157.739736"/>
     <use style="stroke:#000000;" x="69.850815" xlink:href="#m0bb6f2544b" y="157.372515"/>
     <use style="stroke:#000000;" x="69.941195" xlink:href="#m0bb6f2544b" y="157.004562"/>
     <use style="stroke:#000000;" x="70.031575" xlink:href="#m0bb6f2544b" y="156.636021"/>
     <use style="stroke:#000000;" x="70.121956" xlink:href="#m0bb6f2544b" y="156.266895"/>
     <use style="stroke:#000000;" x="70.242462" xlink:href="#m0bb6f2544b" y="155.897474"/>
     <use style="stroke:#000000;" x="70.332843" xlink:href="#m0bb6f2544b" y="155.527761"/>
     <use style="stroke:#000000;" x="70.423223" xlink:href="#m0bb6f2544b" y="155.158047"/>
     <use style="stroke:#000000;" x="70.513603" xlink:href="#m0bb6f2544b" y="154.788187"/>
     <use style="stroke:#000000;" x="70.603983" xlink:href="#m0bb6f2544b" y="154.41862"/>
     <use style="stroke:#000000;" x="70.694363" xlink:href="#m0bb6f2544b" y="154.049053"/>
     <use style="stroke:#000000;" x="70.81487" xlink:href="#m0bb6f2544b" y="153.679926"/>
     <use style="stroke:#000000;" x="70.905251" xlink:href="#m0bb6f2544b" y="153.31124"/>
     <use style="stroke:#000000;" x="70.995631" xlink:href="#m0bb6f2544b" y="152.942993"/>
     <use style="stroke:#000000;" x="71.086011" xlink:href="#m0bb6f2544b" y="152.575332"/>
     <use style="stroke:#000000;" x="71.236645" xlink:href="#m0bb6f2544b" y="152.020689"/>
     <use style="stroke:#000000;" x="71.387278" xlink:href="#m0bb6f2544b" y="151.467805"/>
     <use style="stroke:#000000;" x="71.537912" xlink:href="#m0bb6f2544b" y="150.916828"/>
     <use style="stroke:#000000;" x="71.658419" xlink:href="#m0bb6f2544b" y="150.368197"/>
     <use style="stroke:#000000;" x="71.809053" xlink:href="#m0bb6f2544b" y="149.822059"/>
     <use style="stroke:#000000;" x="71.959686" xlink:href="#m0bb6f2544b" y="149.278561"/>
     <use style="stroke:#000000;" x="72.11032" xlink:href="#m0bb6f2544b" y="148.73785"/>
     <use style="stroke:#000000;" x="72.260954" xlink:href="#m0bb6f2544b" y="148.200071"/>
     <use style="stroke:#000000;" x="72.38146" xlink:href="#m0bb6f2544b" y="147.665519"/>
     <use style="stroke:#000000;" x="72.532094" xlink:href="#m0bb6f2544b" y="147.134193"/>
     <use style="stroke:#000000;" x="72.682728" xlink:href="#m0bb6f2544b" y="146.606387"/>
     <use style="stroke:#000000;" x="72.833361" xlink:href="#m0bb6f2544b" y="146.082101"/>
     <use style="stroke:#000000;" x="72.983995" xlink:href="#m0bb6f2544b" y="145.561334"/>
     <use style="stroke:#000000;" x="73.104502" xlink:href="#m0bb6f2544b" y="145.044381"/>
     <use style="stroke:#000000;" x="73.255136" xlink:href="#m0bb6f2544b" y="144.53124"/>
     <use style="stroke:#000000;" x="73.405769" xlink:href="#m0bb6f2544b" y="144.022059"/>
     <use style="stroke:#000000;" x="73.556403" xlink:href="#m0bb6f2544b" y="143.516838"/>
     <use style="stroke:#000000;" x="73.707037" xlink:href="#m0bb6f2544b" y="143.015576"/>
     <use style="stroke:#000000;" x="73.85767" xlink:href="#m0bb6f2544b" y="142.518567"/>
     <use style="stroke:#000000;" x="73.978177" xlink:href="#m0bb6f2544b" y="142.025665"/>
     <use style="stroke:#000000;" x="74.128811" xlink:href="#m0bb6f2544b" y="141.537015"/>
     <use style="stroke:#000000;" x="74.279445" xlink:href="#m0bb6f2544b" y="141.052472"/>
     <use style="stroke:#000000;" x="74.430078" xlink:href="#m0bb6f2544b" y="140.572328"/>
     <use style="stroke:#000000;" x="74.580712" xlink:href="#m0bb6f2544b" y="140.096584"/>
     <use style="stroke:#000000;" x="74.701219" xlink:href="#m0bb6f2544b" y="139.625093"/>
     <use style="stroke:#000000;" x="74.851852" xlink:href="#m0bb6f2544b" y="139.158002"/>
     <use style="stroke:#000000;" x="75.002486" xlink:href="#m0bb6f2544b" y="138.69531"/>
     <use style="stroke:#000000;" x="75.15312" xlink:href="#m0bb6f2544b" y="138.237018"/>
     <use style="stroke:#000000;" x="75.303753" xlink:href="#m0bb6f2544b" y="137.783125"/>
     <use style="stroke:#000000;" x="75.42426" xlink:href="#m0bb6f2544b" y="137.333632"/>
     <use style="stroke:#000000;" x="75.574894" xlink:href="#m0bb6f2544b" y="136.888685"/>
     <use style="stroke:#000000;" x="75.725528" xlink:href="#m0bb6f2544b" y="136.448138"/>
     <use style="stroke:#000000;" x="75.876161" xlink:href="#m0bb6f2544b" y="136.012137"/>
     <use style="stroke:#000000;" x="76.026795" xlink:href="#m0bb6f2544b" y="135.580389"/>
     <use style="stroke:#000000;" x="76.147302" xlink:href="#m0bb6f2544b" y="135.153187"/>
     <use style="stroke:#000000;" x="76.297936" xlink:href="#m0bb6f2544b" y="134.730532"/>
     <use style="stroke:#000000;" x="76.448569" xlink:href="#m0bb6f2544b" y="134.312276"/>
     <use style="stroke:#000000;" x="76.599203" xlink:href="#m0bb6f2544b" y="133.898273"/>
     <use style="stroke:#000000;" x="76.749837" xlink:href="#m0bb6f2544b" y="133.488817"/>
     <use style="stroke:#000000;" x="76.960724" xlink:href="#m0bb6f2544b" y="132.882111"/>
     <use style="stroke:#000000;" x="77.171611" xlink:href="#m0bb6f2544b" y="132.285085"/>
     <use style="stroke:#000000;" x="77.382498" xlink:href="#m0bb6f2544b" y="131.698031"/>
     <use style="stroke:#000000;" x="77.623512" xlink:href="#m0bb6f2544b" y="131.120802"/>
     <use style="stroke:#000000;" x="77.834399" xlink:href="#m0bb6f2544b" y="130.553253"/>
     <use style="stroke:#000000;" x="78.045286" xlink:href="#m0bb6f2544b" y="129.995383"/>
     <use style="stroke:#000000;" x="78.256173" xlink:href="#m0bb6f2544b" y="129.447046"/>
     <use style="stroke:#000000;" x="78.46706" xlink:href="#m0bb6f2544b" y="128.908241"/>
     <use style="stroke:#000000;" x="78.708074" xlink:href="#m0bb6f2544b" y="128.378968"/>
     <use style="stroke:#000000;" x="78.918961" xlink:href="#m0bb6f2544b" y="127.858935"/>
     <use style="stroke:#000000;" x="79.129848" xlink:href="#m0bb6f2544b" y="127.348287"/>
     <use style="stroke:#000000;" x="79.340736" xlink:href="#m0bb6f2544b" y="126.846879"/>
     <use style="stroke:#000000;" x="79.551623" xlink:href="#m0bb6f2544b" y="126.354416"/>
     <use style="stroke:#000000;" x="79.792637" xlink:href="#m0bb6f2544b" y="125.871046"/>
     <use style="stroke:#000000;" x="80.003524" xlink:href="#m0bb6f2544b" y="125.396622"/>
     <use style="stroke:#000000;" x="80.214411" xlink:href="#m0bb6f2544b" y="124.930997"/>
     <use style="stroke:#000000;" x="80.425298" xlink:href="#m0bb6f2544b" y="124.474172"/>
     <use style="stroke:#000000;" x="80.666312" xlink:href="#m0bb6f2544b" y="124.025998"/>
     <use style="stroke:#000000;" x="80.877199" xlink:href="#m0bb6f2544b" y="123.586331"/>
     <use style="stroke:#000000;" x="81.088086" xlink:href="#m0bb6f2544b" y="123.15517"/>
     <use style="stroke:#000000;" x="81.298973" xlink:href="#m0bb6f2544b" y="122.732368"/>
     <use style="stroke:#000000;" x="81.50986" xlink:href="#m0bb6f2544b" y="122.317778"/>
     <use style="stroke:#000000;" x="81.750874" xlink:href="#m0bb6f2544b" y="121.911401"/>
     <use style="stroke:#000000;" x="81.961761" xlink:href="#m0bb6f2544b" y="121.51309"/>
     <use style="stroke:#000000;" x="82.172648" xlink:href="#m0bb6f2544b" y="121.122845"/>
     <use style="stroke:#000000;" x="82.383536" xlink:href="#m0bb6f2544b" y="120.74052"/>
     <use style="stroke:#000000;" x="82.624549" xlink:href="#m0bb6f2544b" y="120.36582"/>
     <use style="stroke:#000000;" x="82.925817" xlink:href="#m0bb6f2544b" y="119.817776"/>
     <use style="stroke:#000000;" x="83.257211" xlink:href="#m0bb6f2544b" y="119.286597"/>
     <use style="stroke:#000000;" x="83.588605" xlink:href="#m0bb6f2544b" y="118.772283"/>
     <use style="stroke:#000000;" x="83.919999" xlink:href="#m0bb6f2544b" y="118.274247"/>
     <use style="stroke:#000000;" x="84.251393" xlink:href="#m0bb6f2544b" y="117.792491"/>
     <use style="stroke:#000000;" x="84.582787" xlink:href="#m0bb6f2544b" y="117.326426"/>
     <use style="stroke:#000000;" x="84.884054" xlink:href="#m0bb6f2544b" y="116.876053"/>
     <use style="stroke:#000000;" x="85.215448" xlink:href="#m0bb6f2544b" y="116.440639"/>
     <use style="stroke:#000000;" x="85.546842" xlink:href="#m0bb6f2544b" y="116.02033"/>
     <use style="stroke:#000000;" x="85.878237" xlink:href="#m0bb6f2544b" y="115.614539"/>
     <use style="stroke:#000000;" x="86.209631" xlink:href="#m0bb6f2544b" y="115.223121"/>
     <use style="stroke:#000000;" x="86.541025" xlink:href="#m0bb6f2544b" y="114.845635"/>
     <use style="stroke:#000000;" x="86.872419" xlink:href="#m0bb6f2544b" y="114.481934"/>
     <use style="stroke:#000000;" x="87.173686" xlink:href="#m0bb6f2544b" y="114.131579"/>
     <use style="stroke:#000000;" x="87.50508" xlink:href="#m0bb6f2544b" y="113.794569"/>
     <use style="stroke:#000000;" x="87.836474" xlink:href="#m0bb6f2544b" y="113.470318"/>
     <use style="stroke:#000000;" x="88.318502" xlink:href="#m0bb6f2544b" y="113.007186"/>
     <use style="stroke:#000000;" x="88.830656" xlink:href="#m0bb6f2544b" y="112.571479"/>
     <use style="stroke:#000000;" x="89.312684" xlink:href="#m0bb6f2544b" y="112.162609"/>
     <use style="stroke:#000000;" x="89.794712" xlink:href="#m0bb6f2544b" y="111.77955"/>
     <use style="stroke:#000000;" x="90.306866" xlink:href="#m0bb6f2544b" y="111.421568"/>
     <use style="stroke:#000000;" x="90.788894" xlink:href="#m0bb6f2544b" y="111.087785"/>
     <use style="stroke:#000000;" x="91.270922" xlink:href="#m0bb6f2544b" y="110.77732"/>
     <use style="stroke:#000000;" x="91.752949" xlink:href="#m0bb6f2544b" y="110.489585"/>
     <use style="stroke:#000000;" x="92.265104" xlink:href="#m0bb6f2544b" y="110.223849"/>
     <use style="stroke:#000000;" x="92.747131" xlink:href="#m0bb6f2544b" y="109.979084"/>
     <use style="stroke:#000000;" x="93.229159" xlink:href="#m0bb6f2544b" y="109.754851"/>
     <use style="stroke:#000000;" x="93.741314" xlink:href="#m0bb6f2544b" y="109.550416"/>
     <use style="stroke:#000000;" x="94.223341" xlink:href="#m0bb6f2544b" y="109.365046"/>
     <use style="stroke:#000000;" x="94.705369" xlink:href="#m0bb6f2544b" y="109.198154"/>
     <use style="stroke:#000000;" x="95.187397" xlink:href="#m0bb6f2544b" y="109.049008"/>
     <use style="stroke:#000000;" x="95.789931" xlink:href="#m0bb6f2544b" y="108.917166"/>
     <use style="stroke:#000000;" x="96.091199" xlink:href="#m0bb6f2544b" y="108.80175"/>
     <use style="stroke:#000000;" x="96.693733" xlink:href="#m0bb6f2544b" y="108.702466"/>
     <use style="stroke:#000000;" x="97.296268" xlink:href="#m0bb6f2544b" y="108.61858"/>
     <use style="stroke:#000000;" x="97.597535" xlink:href="#m0bb6f2544b" y="108.549506"/>
     <use style="stroke:#000000;" x="98.20007" xlink:href="#m0bb6f2544b" y="108.494951"/>
     <use style="stroke:#000000;" x="98.501337" xlink:href="#m0bb6f2544b" y="108.454181"/>
     <use style="stroke:#000000;" x="99.103872" xlink:href="#m0bb6f2544b" y="108.426904"/>
     <use style="stroke:#000000;" x="99.706407" xlink:href="#m0bb6f2544b" y="108.412385"/>
     <use style="stroke:#000000;" x="100.007674" xlink:href="#m0bb6f2544b" y="108.410332"/>
     <use style="stroke:#000000;" x="100.610209" xlink:href="#m0bb6f2544b" y="108.420304"/>
     <use style="stroke:#000000;" x="101.212743" xlink:href="#m0bb6f2544b" y="108.441716"/>
     <use style="stroke:#000000;" x="101.514011" xlink:href="#m0bb6f2544b" y="108.474273"/>
     <use style="stroke:#000000;" x="102.116545" xlink:href="#m0bb6f2544b" y="108.517536"/>
     <use style="stroke:#000000;" x="102.417813" xlink:href="#m0bb6f2544b" y="108.571211"/>
     <use style="stroke:#000000;" x="103.020347" xlink:href="#m0bb6f2544b" y="108.634712"/>
     <use style="stroke:#000000;" x="103.622882" xlink:href="#m0bb6f2544b" y="108.707745"/>
     <use style="stroke:#000000;" x="103.924149" xlink:href="#m0bb6f2544b" y="108.790018"/>
     <use style="stroke:#000000;" x="104.526684" xlink:href="#m0bb6f2544b" y="108.88109"/>
     <use style="stroke:#000000;" x="105.129218" xlink:href="#m0bb6f2544b" y="109.035809"/>
     <use style="stroke:#000000;" x="106.03302" xlink:href="#m0bb6f2544b" y="109.209154"/>
     <use style="stroke:#000000;" x="106.635555" xlink:href="#m0bb6f2544b" y="109.39995"/>
     <use style="stroke:#000000;" x="107.539357" xlink:href="#m0bb6f2544b" y="109.607171"/>
     <use style="stroke:#000000;" x="108.141892" xlink:href="#m0bb6f2544b" y="109.829938"/>
     <use style="stroke:#000000;" x="109.045694" xlink:href="#m0bb6f2544b" y="110.06737"/>
     <use style="stroke:#000000;" x="109.648228" xlink:href="#m0bb6f2544b" y="110.318441"/>
     <use style="stroke:#000000;" x="110.55203" xlink:href="#m0bb6f2544b" y="110.582564"/>
     <use style="stroke:#000000;" x="111.154565" xlink:href="#m0bb6f2544b" y="110.858712"/>
     <use style="stroke:#000000;" x="112.058367" xlink:href="#m0bb6f2544b" y="111.1463"/>
     <use style="stroke:#000000;" x="112.660902" xlink:href="#m0bb6f2544b" y="111.44474"/>
     <use style="stroke:#000000;" x="113.564703" xlink:href="#m0bb6f2544b" y="111.753005"/>
     <use style="stroke:#000000;" x="114.167238" xlink:href="#m0bb6f2544b" y="112.070804"/>
     <use style="stroke:#000000;" x="115.07104" xlink:href="#m0bb6f2544b" y="112.397401"/>
     <use style="stroke:#000000;" x="115.673575" xlink:href="#m0bb6f2544b" y="112.732358"/>
     <use style="stroke:#000000;" x="116.577377" xlink:href="#m0bb6f2544b" y="113.07494"/>
     <use style="stroke:#000000;" x="117.179911" xlink:href="#m0bb6f2544b" y="113.424709"/>
     <use style="stroke:#000000;" x="118.083713" xlink:href="#m0bb6f2544b" y="113.781224"/>
     <use style="stroke:#000000;" x="118.686248" xlink:href="#m0bb6f2544b" y="114.144191"/>
     <use style="stroke:#000000;" x="119.288783" xlink:href="#m0bb6f2544b" y="114.512878"/>
     <use style="stroke:#000000;" x="120.192585" xlink:href="#m0bb6f2544b" y="114.886991"/>
     <use style="stroke:#000000;" x="120.795119" xlink:href="#m0bb6f2544b" y="115.266237"/>
     <use style="stroke:#000000;" x="121.698921" xlink:href="#m0bb6f2544b" y="115.650323"/>
     <use style="stroke:#000000;" x="122.301456" xlink:href="#m0bb6f2544b" y="116.038661"/>
     <use style="stroke:#000000;" x="123.205258" xlink:href="#m0bb6f2544b" y="116.430959"/>
     <use style="stroke:#000000;" x="123.807792" xlink:href="#m0bb6f2544b" y="116.827071"/>
     <use style="stroke:#000000;" x="124.711594" xlink:href="#m0bb6f2544b" y="117.226701"/>
     <use style="stroke:#000000;" x="125.314129" xlink:href="#m0bb6f2544b" y="117.629412"/>
     <use style="stroke:#000000;" x="126.519198" xlink:href="#m0bb6f2544b" y="118.238904"/>
     <use style="stroke:#000000;" x="127.724268" xlink:href="#m0bb6f2544b" y="118.854115"/>
     <use style="stroke:#000000;" x="128.62807" xlink:href="#m0bb6f2544b" y="119.474313"/>
     <use style="stroke:#000000;" x="129.833139" xlink:href="#m0bb6f2544b" y="120.098764"/>
     <use style="stroke:#000000;" x="131.038208" xlink:href="#m0bb6f2544b" y="120.726734"/>
     <use style="stroke:#000000;" x="132.243277" xlink:href="#m0bb6f2544b" y="121.357931"/>
     <use style="stroke:#000000;" x="133.147079" xlink:href="#m0bb6f2544b" y="121.991621"/>
     <use style="stroke:#000000;" x="134.352149" xlink:href="#m0bb6f2544b" y="122.627217"/>
     <use style="stroke:#000000;" x="135.557218" xlink:href="#m0bb6f2544b" y="123.264427"/>
     <use style="stroke:#000000;" x="136.46102" xlink:href="#m0bb6f2544b" y="123.902663"/>
     <use style="stroke:#000000;" x="137.666089" xlink:href="#m0bb6f2544b" y="124.541779"/>
     <use style="stroke:#000000;" x="138.871159" xlink:href="#m0bb6f2544b" y="125.181188"/>
     <use style="stroke:#000000;" x="140.076228" xlink:href="#m0bb6f2544b" y="125.820744"/>
     <use style="stroke:#000000;" x="140.98003" xlink:href="#m0bb6f2544b" y="126.460007"/>
     <use style="stroke:#000000;" x="142.185099" xlink:href="#m0bb6f2544b" y="127.09883"/>
     <use style="stroke:#000000;" x="143.390168" xlink:href="#m0bb6f2544b" y="127.736919"/>
     <use style="stroke:#000000;" x="144.29397" xlink:href="#m0bb6f2544b" y="128.373982"/>
     <use style="stroke:#000000;" x="145.49904" xlink:href="#m0bb6f2544b" y="129.009725"/>
     <use style="stroke:#000000;" x="146.704109" xlink:href="#m0bb6f2544b" y="129.644295"/>
     <use style="stroke:#000000;" x="147.909178" xlink:href="#m0bb6f2544b" y="130.277105"/>
     <use style="stroke:#000000;" x="148.81298" xlink:href="#m0bb6f2544b" y="130.908301"/>
     <use style="stroke:#000000;" x="150.01805" xlink:href="#m0bb6f2544b" y="131.537592"/>
     <use style="stroke:#000000;" x="151.223119" xlink:href="#m0bb6f2544b" y="132.164829"/>
     <use style="stroke:#000000;" x="152.126921" xlink:href="#m0bb6f2544b" y="132.790013"/>
     <use style="stroke:#000000;" x="153.33199" xlink:href="#m0bb6f2544b" y="133.412997"/>
     <use style="stroke:#000000;" x="154.537059" xlink:href="#m0bb6f2544b" y="134.033488"/>
     <use style="stroke:#000000;" x="155.742129" xlink:href="#m0bb6f2544b" y="134.651632"/>
     <use style="stroke:#000000;" x="156.645931" xlink:href="#m0bb6f2544b" y="135.267284"/>
     <use style="stroke:#000000;" x="157.851" xlink:href="#m0bb6f2544b" y="135.880296"/>
     <use style="stroke:#000000;" x="159.056069" xlink:href="#m0bb6f2544b" y="136.490521"/>
     <use style="stroke:#000000;" x="159.959871" xlink:href="#m0bb6f2544b" y="137.098253"/>
     <use style="stroke:#000000;" x="161.16494" xlink:href="#m0bb6f2544b" y="137.703052"/>
     <use style="stroke:#000000;" x="162.972544" xlink:href="#m0bb6f2544b" y="138.607758"/>
     <use style="stroke:#000000;" x="164.478881" xlink:href="#m0bb6f2544b" y="139.505864"/>
     <use style="stroke:#000000;" x="166.286485" xlink:href="#m0bb6f2544b" y="140.397224"/>
     <use style="stroke:#000000;" x="167.792822" xlink:href="#m0bb6f2544b" y="141.281838"/>
     <use style="stroke:#000000;" x="169.600426" xlink:href="#m0bb6f2544b" y="142.159706"/>
     <use style="stroke:#000000;" x="171.408029" xlink:href="#m0bb6f2544b" y="143.030535"/>
     <use style="stroke:#000000;" x="172.914366" xlink:href="#m0bb6f2544b" y="143.894324"/>
     <use style="stroke:#000000;" x="174.72197" xlink:href="#m0bb6f2544b" y="144.751074"/>
     <use style="stroke:#000000;" x="176.228307" xlink:href="#m0bb6f2544b" y="145.600784"/>
     <use style="stroke:#000000;" x="178.035911" xlink:href="#m0bb6f2544b" y="146.443309"/>
     <use style="stroke:#000000;" x="179.843514" xlink:href="#m0bb6f2544b" y="147.27894"/>
     <use style="stroke:#000000;" x="181.349851" xlink:href="#m0bb6f2544b" y="148.107386"/>
     <use style="stroke:#000000;" x="183.157455" xlink:href="#m0bb6f2544b" y="148.928646"/>
     <use style="stroke:#000000;" x="184.663792" xlink:href="#m0bb6f2544b" y="149.742866"/>
     <use style="stroke:#000000;" x="186.471396" xlink:href="#m0bb6f2544b" y="150.550194"/>
     <use style="stroke:#000000;" x="188.279" xlink:href="#m0bb6f2544b" y="151.350335"/>
     <use style="stroke:#000000;" x="189.785336" xlink:href="#m0bb6f2544b" y="152.143438"/>
     <use style="stroke:#000000;" x="191.59294" xlink:href="#m0bb6f2544b" y="152.929647"/>
     <use style="stroke:#000000;" x="193.099277" xlink:href="#m0bb6f2544b" y="153.708964"/>
     <use style="stroke:#000000;" x="194.867113" xlink:href="#m0bb6f2544b" y="154.481241"/>
     <use style="stroke:#000000;" x="196.550595" xlink:href="#m0bb6f2544b" y="155.246773"/>
     <use style="stroke:#000000;" x="198.233776" xlink:href="#m0bb6f2544b" y="156.005411"/>
     <use style="stroke:#000000;" x="199.916956" xlink:href="#m0bb6f2544b" y="156.757451"/>
     <use style="stroke:#000000;" x="202.464774" xlink:href="#m0bb6f2544b" y="157.882576"/>
     <use style="stroke:#000000;" x="205.01229" xlink:href="#m0bb6f2544b" y="158.992597"/>
     <use style="stroke:#000000;" x="207.560108" xlink:href="#m0bb6f2544b" y="160.087512"/>
     <use style="stroke:#000000;" x="210.107625" xlink:href="#m0bb6f2544b" y="161.167468"/>
     <use style="stroke:#000000;" x="212.655141" xlink:href="#m0bb6f2544b" y="162.23276"/>
     <use style="stroke:#000000;" x="215.202959" xlink:href="#m0bb6f2544b" y="163.283679"/>
     <use style="stroke:#000000;" x="217.750475" xlink:href="#m0bb6f2544b" y="164.320079"/>
     <use style="stroke:#000000;" x="220.298293" xlink:href="#m0bb6f2544b" y="165.342401"/>
     <use style="stroke:#000000;" x="222.84581" xlink:href="#m0bb6f2544b" y="166.350644"/>
     <use style="stroke:#000000;" x="225.393326" xlink:href="#m0bb6f2544b" y="167.345248"/>
     <use style="stroke:#000000;" x="227.941144" xlink:href="#m0bb6f2544b" y="168.326213"/>
     <use style="stroke:#000000;" x="230.48866" xlink:href="#m0bb6f2544b" y="169.293687"/>
     <use style="stroke:#000000;" x="233.036478" xlink:href="#m0bb6f2544b" y="170.247961"/>
     <use style="stroke:#000000;" x="235.583995" xlink:href="#m0bb6f2544b" y="171.18933"/>
     <use style="stroke:#000000;" x="238.131511" xlink:href="#m0bb6f2544b" y="172.117647"/>
     <use style="stroke:#000000;" x="240.679329" xlink:href="#m0bb6f2544b" y="173.033351"/>
     <use style="stroke:#000000;" x="243.226845" xlink:href="#m0bb6f2544b" y="173.93659"/>
     <use style="stroke:#000000;" x="247.068305" xlink:href="#m0bb6f2544b" y="175.275097"/>
     <use style="stroke:#000000;" x="250.909463" xlink:href="#m0bb6f2544b" y="176.586179"/>
     <use style="stroke:#000000;" x="254.750622" xlink:href="#m0bb6f2544b" y="177.870424"/>
     <use style="stroke:#000000;" x="258.592081" xlink:href="#m0bb6f2544b" y="179.128418"/>
     <use style="stroke:#000000;" x="262.43324" xlink:href="#m0bb6f2544b" y="180.360601"/>
     <use style="stroke:#000000;" x="266.274398" xlink:href="#m0bb6f2544b" y="181.567706"/>
     <use style="stroke:#000000;" x="270.115556" xlink:href="#m0bb6f2544b" y="182.750027"/>
     <use style="stroke:#000000;" x="273.957016" xlink:href="#m0bb6f2544b" y="183.908296"/>
     <use style="stroke:#000000;" x="277.798174" xlink:href="#m0bb6f2544b" y="185.042955"/>
     <use style="stroke:#000000;" x="281.639333" xlink:href="#m0bb6f2544b" y="186.154588"/>
     <use style="stroke:#000000;" x="285.480792" xlink:href="#m0bb6f2544b" y="187.243491"/>
     <use style="stroke:#000000;" x="289.321951" xlink:href="#m0bb6f2544b" y="188.310395"/>
     <use style="stroke:#000000;" x="293.163109" xlink:href="#m0bb6f2544b" y="189.355595"/>
     <use style="stroke:#000000;" x="297.004569" xlink:href="#m0bb6f2544b" y="190.379529"/>
     <use style="stroke:#000000;" x="300.845727" xlink:href="#m0bb6f2544b" y="191.382786"/>
     <use style="stroke:#000000;" x="304.686885" xlink:href="#m0bb6f2544b" y="192.365658"/>
     <use style="stroke:#000000;" x="310.621249" xlink:href="#m0bb6f2544b" y="193.845245"/>
     <use style="stroke:#000000;" x="316.555312" xlink:href="#m0bb6f2544b" y="195.27893"/>
     <use style="stroke:#000000;" x="322.489675" xlink:href="#m0bb6f2544b" y="196.668326"/>
     <use style="stroke:#000000;" x="328.424039" xlink:href="#m0bb6f2544b" y="198.014605"/>
     <use style="stroke:#000000;" x="334.358102" xlink:href="#m0bb6f2544b" y="199.319381"/>
     <use style="stroke:#000000;" x="340.292465" xlink:href="#m0bb6f2544b" y="200.583828"/>
     <use style="stroke:#000000;" x="346.226829" xlink:href="#m0bb6f2544b" y="201.809411"/>
     <use style="stroke:#000000;" x="352.160891" xlink:href="#m0bb6f2544b" y="202.997158"/>
     <use style="stroke:#000000;" x="358.095255" xlink:href="#m0bb6f2544b" y="204.148535"/>
     <use style="stroke:#000000;" x="364.029619" xlink:href="#m0bb6f2544b" y="205.264568"/>
     <use style="stroke:#000000;" x="368.238022" xlink:href="#m0bb6f2544b" y="206.035379"/>
    </g>
   </g>
   <g id="line2d_15">
    <path clip-path="url(#pa346df4be8)" d="M 65.361932 169.16978 
L 65.68461 169.154548 
L 66.036178 168.92581 
L 66.510421 168.317886 
L 67.138726 167.083924 
L 67.946547 164.967098 
L 69.214373 160.907614 
L 75.001352 141.366234 
L 76.843208 136.309413 
L 78.480412 132.404915 
L 80.117617 129.023554 
L 81.862194 125.948138 
L 83.405486 123.638973 
L 84.948777 121.678398 
L 86.492069 120.032874 
L 88.193808 118.546822 
L 90.062229 117.268987 
L 91.930651 116.318597 
L 93.799073 115.656336 
L 95.667494 115.247328 
L 97.55553 115.059764 
L 99.686925 115.085525 
L 101.818321 115.328939 
L 103.949716 115.758901 
L 106.791576 116.576122 
L 109.633437 117.622733 
L 112.839098 119.022396 
L 117.136163 121.175388 
L 122.507493 124.177199 
L 128.95309 128.054577 
L 141.844284 136.145829 
L 154.735477 144.156174 
L 164.403515 149.92606 
L 173.299501 155.003407 
L 182.195487 159.842121 
L 191.091473 164.438447 
L 200.673899 169.121709 
L 209.687105 173.280674 
L 219.014307 177.343198 
L 229.434827 181.605208 
L 240.219168 185.725143 
L 251.003509 189.566899 
L 261.78785 193.147914 
L 272.572191 196.484945 
L 281.588527 199.099232 
L 292.431638 202.044611 
L 303.274749 204.786898 
L 314.117861 207.339834 
L 324.960972 209.716304 
L 335.804083 211.92838 
L 350.943108 214.763091 
L 365.366719 217.21206 
L 369.725568 217.907297 
L 369.725568 217.907297 
" style="fill:none;stroke:#0000ff;stroke-linecap:square;stroke-width:1.5;"/>
   </g>
   <g id="line2d_16">
    <path clip-path="url(#pa346df4be8)" d="M 65.361932 169.16978 
L 65.736635 169.191196 
L 66.155939 168.977566 
L 66.633096 168.461675 
L 67.205685 167.509524 
L 67.92459 165.886751 
L 68.934013 162.997398 
L 70.376045 158.086608 
L 75.891429 138.537249 
L 77.637717 133.465997 
L 79.165719 129.641447 
L 80.693722 126.37738 
L 82.003438 124.000465 
L 83.326564 121.9643 
L 84.64969 120.264618 
L 85.972817 118.870755 
L 87.295943 117.753195 
L 88.61907 116.88424 
L 89.942196 116.238312 
L 91.596104 115.709147 
L 93.08529 115.465792 
L 94.575814 115.415865 
L 96.56318 115.61038 
L 98.550545 116.059269 
L 100.53791 116.721285 
L 102.790637 117.685381 
L 105.839448 119.279566 
L 108.88826 121.129434 
L 112.699274 123.700561 
L 118.034693 127.612434 
L 126.427154 134.114847 
L 141.343599 145.688428 
L 149.827104 151.966251 
L 157.191622 157.162884 
L 165.239981 162.552861 
L 173.848643 167.979398 
L 182.457306 173.062283 
L 191.065969 177.814351 
L 199.674632 182.251556 
L 208.376722 186.434511 
L 216.961911 190.280953 
L 224.553675 193.464148 
L 232.145439 196.454581 
L 241.007126 199.71614 
L 249.868813 202.746816 
L 257.290271 205.118806 
L 266.225394 207.786836 
L 275.160517 210.263301 
L 284.09564 212.561679 
L 293.030763 214.694556 
L 306.433448 217.609003 
L 319.836133 220.213548 
L 333.238818 222.54074 
L 346.641502 224.619754 
L 359.772345 226.441107 
L 366.929014 227.352019 
L 366.929014 227.352019 
" style="fill:none;stroke:#ff0000;stroke-linecap:square;stroke-width:1.5;"/>
   </g>
   <g id="line2d_17">
    <path clip-path="url(#pa346df4be8)" d="M 65.361932 96.016829 
L 65.865048 96.168762 
L 66.401304 96.088904 
L 66.976725 95.743587 
L 67.549133 95.138199 
L 68.220959 94.103357 
L 69.06752 92.337912 
L 70.121956 89.519362 
L 71.387278 85.467807 
L 73.556403 77.641082 
L 77.171611 64.634027 
L 79.340736 57.731238 
L 81.298973 52.285098 
L 82.925817 48.341658 
L 84.582787 44.851881 
L 86.209631 41.919907 
L 87.836474 39.451882 
L 89.312684 37.577275 
L 90.788894 36.026128 
L 92.265104 34.773653 
L 93.741314 33.795628 
L 95.187397 33.082736 
L 96.693733 32.582715 
L 98.501337 32.262526 
L 100.007674 32.210723 
L 101.514011 32.334371 
L 103.622882 32.771454 
L 105.129218 33.250882 
L 107.539357 34.268638 
L 109.648228 35.381488 
L 112.660902 37.271288 
L 115.673575 39.442716 
L 119.288783 42.333473 
L 123.807792 46.276831 
L 129.833139 51.893583 
L 138.871159 60.686253 
L 154.537059 75.936614 
L 162.972544 83.851828 
L 171.408029 91.465597 
L 179.843514 98.751004 
L 188.279 105.697839 
L 196.550595 112.183354 
L 205.01229 118.490868 
L 212.655141 123.912781 
L 220.298293 129.083442 
L 227.941144 134.016137 
L 235.583995 138.719485 
L 243.226845 143.2072 
L 250.909463 147.510409 
L 258.592081 151.607577 
L 266.274398 155.51411 
L 273.957016 159.239896 
L 285.480792 164.508093 
L 297.004569 169.425206 
L 304.686885 172.511582 
L 316.555312 177.008954 
L 328.424039 181.197547 
L 340.292465 185.100904 
L 352.160891 188.739829 
L 364.029619 192.126825 
L 368.238022 192.683476 
L 368.238022 192.683476 
" style="fill:none;stroke:#0000ff;stroke-dasharray:5.55,2.4;stroke-dashoffset:0;stroke-width:1.5;"/>
   </g>
   <g id="line2d_18">
    <path clip-path="url(#pa346df4be8)" d="M 65.361932 205.545456 
L 65.705377 205.490647 
L 66.084973 205.217797 
L 66.594115 204.556864 
L 67.262929 203.284303 
L 68.220959 200.911209 
L 69.850815 196.15093 
L 72.682728 187.914724 
L 74.430078 183.535301 
L 76.026795 180.100421 
L 77.623512 177.176494 
L 79.129848 174.835506 
L 80.666312 172.814252 
L 82.383536 170.934718 
L 83.919999 169.547139 
L 85.546842 168.339459 
L 87.173686 167.367672 
L 88.830656 166.588152 
L 90.788894 165.903566 
L 92.747131 165.439953 
L 95.187397 165.124195 
L 97.597535 165.052173 
L 100.007674 165.179088 
L 103.020347 165.562729 
L 106.635555 166.287048 
L 110.55203 167.318158 
L 115.07104 168.737479 
L 120.795119 170.772036 
L 128.62807 173.797385 
L 161.16494 186.655931 
L 172.914366 190.942326 
L 184.663792 194.959777 
L 196.550595 198.745664 
L 207.560108 202.008565 
L 217.750475 204.826921 
L 230.48866 208.091818 
L 240.679329 210.510172 
L 250.909463 212.773441 
L 262.43324 215.136605 
L 273.957016 217.316767 
L 289.321951 219.95774 
L 304.686885 222.326517 
L 322.489675 224.758877 
L 340.292465 226.896976 
L 358.095255 228.771848 
L 364.029619 229.343432 
L 368.238022 229.874489 
L 368.238022 229.874489 
" style="fill:none;stroke:#0000ff;stroke-dasharray:5.55,2.4;stroke-dashoffset:0;stroke-width:1.5;"/>
   </g>
   <g id="line2d_19"/>
   <g id="line2d_20"/>
   <g id="line2d_21"/>
   <g id="line2d_22"/>
   <g id="line2d_23"/>
   <g id="line2d_24"/>
   <g id="patch_3">
    <path d="M 50.14375 239.758125 
L 50.14375 22.318125 
" style="fill:none;stroke:#000000;stroke-linecap:square;stroke-linejoin:miter;stroke-width:0.8;"/>
   </g>
   <g id="patch_4">
    <path d="M 384.94375 239.758125 
L 384.94375 22.318125 
" style="fill:none;stroke:#000000;stroke-linecap:square;stroke-linejoin:miter;stroke-width:0.8;"/>
   </g>
   <g id="patch_5">
    <path d="M 50.14375 239.758125 
L 384.94375 239.758125 
" style="fill:none;stroke:#000000;stroke-linecap:square;stroke-linejoin:miter;stroke-width:0.8;"/>
   </g>
   <g id="patch_6">
    <path d="M 50.14375 22.318125 
L 384.94375 22.318125 
" style="fill:none;stroke:#000000;stroke-linecap:square;stroke-linejoin:miter;stroke-width:0.8;"/>
   </g>
   <g id="text_16">
    <!-- Experiment_19 -->
    <defs>
     <path d="M 9.8125 72.90625 
L 55.90625 72.90625 
L 55.90625 64.59375 
L 19.671875 64.59375 
L 19.671875 43.015625 
L 54.390625 43.015625 
L 54.390625 34.71875 
L 19.671875 34.71875 
L 19.671875 8.296875 
L 56.78125 8.296875 
L 56.78125 0 
L 9.8125 0 
z
" id="DejaVuSans-69"/>
     <path d="M 54.890625 54.6875 
L 35.109375 28.078125 
L 55.90625 0 
L 45.3125 0 
L 29.390625 21.484375 
L 13.484375 0 
L 2.875 0 
L 24.125 28.609375 
L 4.6875 54.6875 
L 15.28125 54.6875 
L 29.78125 35.203125 
L 44.28125 54.6875 
z
" id="DejaVuSans-120"/>
     <path d="M 18.109375 8.203125 
L 18.109375 -20.796875 
L 9.078125 -20.796875 
L 9.078125 54.6875 
L 18.109375 54.6875 
L 18.109375 46.390625 
Q 20.953125 51.265625 25.265625 53.625 
Q 29.59375 56 35.59375 56 
Q 45.5625 56 51.78125 48.09375 
Q 58.015625 40.1875 58.015625 27.296875 
Q 58.015625 14.40625 51.78125 6.484375 
Q 45.5625 -1.421875 35.59375 -1.421875 
Q 29.59375 -1.421875 25.265625 0.953125 
Q 20.953125 3.328125 18.109375 8.203125 
z
M 48.6875 27.296875 
Q 48.6875 37.203125 44.609375 42.84375 
Q 40.53125 48.484375 33.40625 48.484375 
Q 26.265625 48.484375 22.1875 42.84375 
Q 18.109375 37.203125 18.109375 27.296875 
Q 18.109375 17.390625 22.1875 11.75 
Q 26.265625 6.109375 33.40625 6.109375 
Q 40.53125 6.109375 44.609375 11.75 
Q 48.6875 17.390625 48.6875 27.296875 
z
" id="DejaVuSans-112"/>
     <path d="M 18.3125 70.21875 
L 18.3125 54.6875 
L 36.8125 54.6875 
L 36.8125 47.703125 
L 18.3125 47.703125 
L 18.3125 18.015625 
Q 18.3125 11.328125 20.140625 9.421875 
Q 21.96875 7.515625 27.59375 7.515625 
L 36.8125 7.515625 
L 36.8125 0 
L 27.59375 0 
Q 17.1875 0 13.234375 3.875 
Q 9.28125 7.765625 9.28125 18.015625 
L 9.28125 47.703125 
L 2.6875 47.703125 
L 2.6875 54.6875 
L 9.28125 54.6875 
L 9.28125 70.21875 
z
" id="DejaVuSans-116"/>
     <path d="M 50.984375 -16.609375 
L 50.984375 -23.578125 
L -0.984375 -23.578125 
L -0.984375 -16.609375 
z
" id="DejaVuSans-95"/>
     <path d="M 10.984375 1.515625 
L 10.984375 10.5 
Q 14.703125 8.734375 18.5 7.8125 
Q 22.3125 6.890625 25.984375 6.890625 
Q 35.75 6.890625 40.890625 13.453125 
Q 46.046875 20.015625 46.78125 33.40625 
Q 43.953125 29.203125 39.59375 26.953125 
Q 35.25 24.703125 29.984375 24.703125 
Q 19.046875 24.703125 12.671875 31.3125 
Q 6.296875 37.9375 6.296875 49.421875 
Q 6.296875 60.640625 12.9375 67.421875 
Q 19.578125 74.21875 30.609375 74.21875 
Q 43.265625 74.21875 49.921875 64.515625 
Q 56.59375 54.828125 56.59375 36.375 
Q 56.59375 19.140625 48.40625 8.859375 
Q 40.234375 -1.421875 26.421875 -1.421875 
Q 22.703125 -1.421875 18.890625 -0.6875 
Q 15.09375 0.046875 10.984375 1.515625 
z
M 30.609375 32.421875 
Q 37.25 32.421875 41.125 36.953125 
Q 45.015625 41.5 45.015625 49.421875 
Q 45.015625 57.28125 41.125 61.84375 
Q 37.25 66.40625 30.609375 66.40625 
Q 23.96875 66.40625 20.09375 61.84375 
Q 16.21875 57.28125 16.21875 49.421875 
Q 16.21875 41.5 20.09375 36.953125 
Q 23.96875 32.421875 30.609375 32.421875 
z
" id="DejaVuSans-57"/>
    </defs>
    <g transform="translate(172.240938 16.318125)scale(0.12 -0.12)">
     <use xlink:href="#DejaVuSans-69"/>
     <use x="63.183594" xlink:href="#DejaVuSans-120"/>
     <use x="122.363281" xlink:href="#DejaVuSans-112"/>
     <use x="185.839844" xlink:href="#DejaVuSans-101"/>
     <use x="247.363281" xlink:href="#DejaVuSans-114"/>
     <use x="288.476562" xlink:href="#DejaVuSans-105"/>
     <use x="316.259766" xlink:href="#DejaVuSans-109"/>
     <use x="413.671875" xlink:href="#DejaVuSans-101"/>
     <use x="475.195312" xlink:href="#DejaVuSans-110"/>
     <use x="538.574219" xlink:href="#DejaVuSans-116"/>
     <use x="577.783203" xlink:href="#DejaVuSans-95"/>
     <use x="627.783203" xlink:href="#DejaVuSans-49"/>
     <use x="691.40625" xlink:href="#DejaVuSans-57"/>
    </g>
   </g>
   <g id="legend_1">
    <g id="patch_7">
     <path d="M 121.823438 103.730625 
L 377.94375 103.730625 
Q 379.94375 103.730625 379.94375 101.730625 
L 379.94375 29.318125 
Q 379.94375 27.318125 377.94375 27.318125 
L 121.823438 27.318125 
Q 119.823438 27.318125 119.823438 29.318125 
L 119.823438 101.730625 
Q 119.823438 103.730625 121.823438 103.730625 
z
" style="fill:#ffffff;opacity:0.8;stroke:#cccccc;stroke-linejoin:miter;"/>
    </g>
    <g id="line2d_25"/>
    <g id="line2d_26">
     <g>
      <use style="stroke:#000000;" x="133.823438" xlink:href="#m0bb6f2544b" y="35.416562"/>
     </g>
    </g>
    <g id="text_17">
     <!-- Experimental Data -->
     <defs>
      <path d="M 9.421875 75.984375 
L 18.40625 75.984375 
L 18.40625 0 
L 9.421875 0 
z
" id="DejaVuSans-108"/>
      <path d="M 19.671875 64.796875 
L 19.671875 8.109375 
L 31.59375 8.109375 
Q 46.6875 8.109375 53.6875 14.9375 
Q 60.6875 21.78125 60.6875 36.53125 
Q 60.6875 51.171875 53.6875 57.984375 
Q 46.6875 64.796875 31.59375 64.796875 
z
M 9.8125 72.90625 
L 30.078125 72.90625 
Q 51.265625 72.90625 61.171875 64.09375 
Q 71.09375 55.28125 71.09375 36.53125 
Q 71.09375 17.671875 61.125 8.828125 
Q 51.171875 0 30.078125 0 
L 9.8125 0 
z
" id="DejaVuSans-68"/>
     </defs>
     <g transform="translate(151.823438 38.916562)scale(0.1 -0.1)">
      <use xlink:href="#DejaVuSans-69"/>
      <use x="63.183594" xlink:href="#DejaVuSans-120"/>
      <use x="122.363281" xlink:href="#DejaVuSans-112"/>
      <use x="185.839844" xlink:href="#DejaVuSans-101"/>
      <use x="247.363281" xlink:href="#DejaVuSans-114"/>
      <use x="288.476562" xlink:href="#DejaVuSans-105"/>
      <use x="316.259766" xlink:href="#DejaVuSans-109"/>
      <use x="413.671875" xlink:href="#DejaVuSans-101"/>
      <use x="475.195312" xlink:href="#DejaVuSans-110"/>
      <use x="538.574219" xlink:href="#DejaVuSans-116"/>
      <use x="577.783203" xlink:href="#DejaVuSans-97"/>
      <use x="639.0625" xlink:href="#DejaVuSans-108"/>
      <use x="666.845703" xlink:href="#DejaVuSans-32"/>
      <use x="698.632812" xlink:href="#DejaVuSans-68"/>
      <use x="775.634766" xlink:href="#DejaVuSans-97"/>
      <use x="836.914062" xlink:href="#DejaVuSans-116"/>
      <use x="876.123047" xlink:href="#DejaVuSans-97"/>
     </g>
    </g>
    <g id="line2d_27">
     <path d="M 123.823438 50.094687 
L 143.823438 50.094687 
" style="fill:none;stroke:#0000ff;stroke-linecap:square;stroke-width:1.5;"/>
    </g>
    <g id="line2d_28"/>
    <g id="text_18">
     <!-- MSI -->
     <defs>
      <path d="M 9.8125 72.90625 
L 24.515625 72.90625 
L 43.109375 23.296875 
L 61.8125 72.90625 
L 76.515625 72.90625 
L 76.515625 0 
L 66.890625 0 
L 66.890625 64.015625 
L 48.09375 14.015625 
L 38.1875 14.015625 
L 19.390625 64.015625 
L 19.390625 0 
L 9.8125 0 
z
" id="DejaVuSans-77"/>
      <path d="M 53.515625 70.515625 
L 53.515625 60.890625 
Q 47.90625 63.578125 42.921875 64.890625 
Q 37.9375 66.21875 33.296875 66.21875 
Q 25.25 66.21875 20.875 63.09375 
Q 16.5 59.96875 16.5 54.203125 
Q 16.5 49.359375 19.40625 46.890625 
Q 22.3125 44.4375 30.421875 42.921875 
L 36.375 41.703125 
Q 47.40625 39.59375 52.65625 34.296875 
Q 57.90625 29 57.90625 20.125 
Q 57.90625 9.515625 50.796875 4.046875 
Q 43.703125 -1.421875 29.984375 -1.421875 
Q 24.8125 -1.421875 18.96875 -0.25 
Q 13.140625 0.921875 6.890625 3.21875 
L 6.890625 13.375 
Q 12.890625 10.015625 18.65625 8.296875 
Q 24.421875 6.59375 29.984375 6.59375 
Q 38.421875 6.59375 43.015625 9.90625 
Q 47.609375 13.234375 47.609375 19.390625 
Q 47.609375 24.75 44.3125 27.78125 
Q 41.015625 30.8125 33.5 32.328125 
L 27.484375 33.5 
Q 16.453125 35.6875 11.515625 40.375 
Q 6.59375 45.0625 6.59375 53.421875 
Q 6.59375 63.09375 13.40625 68.65625 
Q 20.21875 74.21875 32.171875 74.21875 
Q 37.3125 74.21875 42.625 73.28125 
Q 47.953125 72.359375 53.515625 70.515625 
z
" id="DejaVuSans-83"/>
      <path d="M 9.8125 72.90625 
L 19.671875 72.90625 
L 19.671875 0 
L 9.8125 0 
z
" id="DejaVuSans-73"/>
     </defs>
     <g transform="translate(151.823438 53.594687)scale(0.1 -0.1)">
      <use xlink:href="#DejaVuSans-77"/>
      <use x="86.279297" xlink:href="#DejaVuSans-83"/>
      <use x="149.755859" xlink:href="#DejaVuSans-73"/>
     </g>
    </g>
    <g id="line2d_29">
     <path d="M 123.823438 64.774375 
L 143.823438 64.774375 
" style="fill:none;stroke:#ff0000;stroke-linecap:square;stroke-width:1.5;"/>
    </g>
    <g id="line2d_30"/>
    <g id="text_19">
     <!-- $\it{A priori}$ model -->
     <defs>
      <path d="M 36.8125 72.90625 
L 48 72.90625 
L 61.53125 0 
L 51.21875 0 
L 48.1875 18.703125 
L 15.375 18.703125 
L 5.078125 0 
L -5.328125 0 
z
M 40.375 63.1875 
L 19.921875 26.90625 
L 46.6875 26.90625 
z
" id="DejaVuSans-Oblique-65"/>
      <path d="M 49.609375 33.6875 
Q 49.609375 40.875 46.484375 44.671875 
Q 43.359375 48.484375 37.5 48.484375 
Q 33.5 48.484375 29.859375 46.4375 
Q 26.21875 44.390625 23.390625 40.484375 
Q 20.609375 36.625 18.9375 31.15625 
Q 17.28125 25.6875 17.28125 20.3125 
Q 17.28125 13.484375 20.40625 9.796875 
Q 23.53125 6.109375 29.296875 6.109375 
Q 33.546875 6.109375 37.1875 8.109375 
Q 40.828125 10.109375 43.40625 13.921875 
Q 46.1875 17.921875 47.890625 23.34375 
Q 49.609375 28.765625 49.609375 33.6875 
z
M 21.78125 46.390625 
Q 25.390625 51.125 30.296875 53.5625 
Q 35.203125 56 41.21875 56 
Q 49.609375 56 54.25 50.5 
Q 58.890625 45.015625 58.890625 35.109375 
Q 58.890625 27 56 19.65625 
Q 53.125 12.3125 47.703125 6.5 
Q 44.09375 2.640625 39.546875 0.609375 
Q 35.015625 -1.421875 29.984375 -1.421875 
Q 24.171875 -1.421875 20.21875 1 
Q 16.265625 3.421875 14.3125 8.203125 
L 8.6875 -20.796875 
L -0.296875 -20.796875 
L 14.40625 54.6875 
L 23.390625 54.6875 
z
" id="DejaVuSans-Oblique-112"/>
      <path d="M 44.578125 46.390625 
Q 43.21875 47.125 41.453125 47.515625 
Q 39.703125 47.90625 37.703125 47.90625 
Q 30.515625 47.90625 25.140625 42.453125 
Q 19.78125 37.015625 18.015625 27.875 
L 12.5 0 
L 3.515625 0 
L 14.203125 54.6875 
L 23.1875 54.6875 
L 21.484375 46.1875 
Q 25.046875 50.921875 30 53.453125 
Q 34.96875 56 40.578125 56 
Q 42.046875 56 43.453125 55.828125 
Q 44.875 55.671875 46.296875 55.28125 
z
" id="DejaVuSans-Oblique-114"/>
      <path d="M 18.3125 75.984375 
L 27.296875 75.984375 
L 25.09375 64.59375 
L 16.109375 64.59375 
z
M 14.203125 54.6875 
L 23.1875 54.6875 
L 12.5 0 
L 3.515625 0 
z
" id="DejaVuSans-Oblique-105"/>
      <path d="M 25.390625 -1.421875 
Q 15.765625 -1.421875 10.171875 4.515625 
Q 4.59375 10.453125 4.59375 20.703125 
Q 4.59375 26.65625 6.515625 32.828125 
Q 8.453125 39.015625 11.53125 43.21875 
Q 16.359375 49.75 22.3125 52.875 
Q 28.265625 56 35.796875 56 
Q 45.125 56 50.859375 50.1875 
Q 56.59375 44.390625 56.59375 35.015625 
Q 56.59375 28.515625 54.6875 22.0625 
Q 52.78125 15.625 49.703125 11.375 
Q 44.921875 4.828125 38.96875 1.703125 
Q 33.015625 -1.421875 25.390625 -1.421875 
z
M 13.921875 21 
Q 13.921875 13.578125 17.015625 9.890625 
Q 20.125 6.203125 26.421875 6.203125 
Q 35.453125 6.203125 41.375 14.078125 
Q 47.3125 21.96875 47.3125 34.078125 
Q 47.3125 41.15625 44.140625 44.765625 
Q 40.96875 48.390625 34.8125 48.390625 
Q 29.734375 48.390625 25.78125 46.015625 
Q 21.828125 43.65625 18.703125 38.8125 
Q 16.40625 35.203125 15.15625 30.5625 
Q 13.921875 25.921875 13.921875 21 
z
" id="DejaVuSans-Oblique-111"/>
      <path d="M 45.40625 46.390625 
L 45.40625 75.984375 
L 54.390625 75.984375 
L 54.390625 0 
L 45.40625 0 
L 45.40625 8.203125 
Q 42.578125 3.328125 38.25 0.953125 
Q 33.9375 -1.421875 27.875 -1.421875 
Q 17.96875 -1.421875 11.734375 6.484375 
Q 5.515625 14.40625 5.515625 27.296875 
Q 5.515625 40.1875 11.734375 48.09375 
Q 17.96875 56 27.875 56 
Q 33.9375 56 38.25 53.625 
Q 42.578125 51.265625 45.40625 46.390625 
z
M 14.796875 27.296875 
Q 14.796875 17.390625 18.875 11.75 
Q 22.953125 6.109375 30.078125 6.109375 
Q 37.203125 6.109375 41.296875 11.75 
Q 45.40625 17.390625 45.40625 27.296875 
Q 45.40625 37.203125 41.296875 42.84375 
Q 37.203125 48.484375 30.078125 48.484375 
Q 22.953125 48.484375 18.875 42.84375 
Q 14.796875 37.203125 14.796875 27.296875 
z
" id="DejaVuSans-100"/>
     </defs>
     <g transform="translate(151.823438 68.274375)scale(0.1 -0.1)">
      <use transform="translate(0 0.015625)" xlink:href="#DejaVuSans-Oblique-65"/>
      <use transform="translate(68.408203 0.015625)" xlink:href="#DejaVuSans-Oblique-112"/>
      <use transform="translate(131.884766 0.015625)" xlink:href="#DejaVuSans-Oblique-114"/>
      <use transform="translate(172.998047 0.015625)" xlink:href="#DejaVuSans-Oblique-105"/>
      <use transform="translate(200.78125 0.015625)" xlink:href="#DejaVuSans-Oblique-111"/>
      <use transform="translate(261.962891 0.015625)" xlink:href="#DejaVuSans-Oblique-114"/>
      <use transform="translate(303.076172 0.015625)" xlink:href="#DejaVuSans-Oblique-105"/>
      <use transform="translate(330.859375 0.015625)" xlink:href="#DejaVuSans-32"/>
      <use transform="translate(362.646484 0.015625)" xlink:href="#DejaVuSans-109"/>
      <use transform="translate(460.058594 0.015625)" xlink:href="#DejaVuSans-111"/>
      <use transform="translate(521.240234 0.015625)" xlink:href="#DejaVuSans-100"/>
      <use transform="translate(584.716797 0.015625)" xlink:href="#DejaVuSans-101"/>
      <use transform="translate(646.240234 0.015625)" xlink:href="#DejaVuSans-108"/>
     </g>
    </g>
    <g id="line2d_31">
     <path d="M 123.823438 79.472813 
L 143.823438 79.472813 
" style="fill:none;stroke:#ffffff;stroke-linecap:square;stroke-width:1.5;"/>
    </g>
    <g id="line2d_32"/>
    <g id="text_20">
     <!-- T:1135 -->
     <defs>
      <path d="M 11.71875 12.40625 
L 22.015625 12.40625 
L 22.015625 0 
L 11.71875 0 
z
M 11.71875 51.703125 
L 22.015625 51.703125 
L 22.015625 39.3125 
L 11.71875 39.3125 
z
" id="DejaVuSans-58"/>
      <path d="M 40.578125 39.3125 
Q 47.65625 37.796875 51.625 33 
Q 55.609375 28.21875 55.609375 21.1875 
Q 55.609375 10.40625 48.1875 4.484375 
Q 40.765625 -1.421875 27.09375 -1.421875 
Q 22.515625 -1.421875 17.65625 -0.515625 
Q 12.796875 0.390625 7.625 2.203125 
L 7.625 11.71875 
Q 11.71875 9.328125 16.59375 8.109375 
Q 21.484375 6.890625 26.8125 6.890625 
Q 36.078125 6.890625 40.9375 10.546875 
Q 45.796875 14.203125 45.796875 21.1875 
Q 45.796875 27.640625 41.28125 31.265625 
Q 36.765625 34.90625 28.71875 34.90625 
L 20.21875 34.90625 
L 20.21875 43.015625 
L 29.109375 43.015625 
Q 36.375 43.015625 40.234375 45.921875 
Q 44.09375 48.828125 44.09375 54.296875 
Q 44.09375 59.90625 40.109375 62.90625 
Q 36.140625 65.921875 28.71875 65.921875 
Q 24.65625 65.921875 20.015625 65.03125 
Q 15.375 64.15625 9.8125 62.3125 
L 9.8125 71.09375 
Q 15.4375 72.65625 20.34375 73.4375 
Q 25.25 74.21875 29.59375 74.21875 
Q 40.828125 74.21875 47.359375 69.109375 
Q 53.90625 64.015625 53.90625 55.328125 
Q 53.90625 49.265625 50.4375 45.09375 
Q 46.96875 40.921875 40.578125 39.3125 
z
" id="DejaVuSans-51"/>
      <path d="M 10.796875 72.90625 
L 49.515625 72.90625 
L 49.515625 64.59375 
L 19.828125 64.59375 
L 19.828125 46.734375 
Q 21.96875 47.46875 24.109375 47.828125 
Q 26.265625 48.1875 28.421875 48.1875 
Q 40.625 48.1875 47.75 41.5 
Q 54.890625 34.8125 54.890625 23.390625 
Q 54.890625 11.625 47.5625 5.09375 
Q 40.234375 -1.421875 26.90625 -1.421875 
Q 22.3125 -1.421875 17.546875 -0.640625 
Q 12.796875 0.140625 7.71875 1.703125 
L 7.71875 11.625 
Q 12.109375 9.234375 16.796875 8.0625 
Q 21.484375 6.890625 26.703125 6.890625 
Q 35.15625 6.890625 40.078125 11.328125 
Q 45.015625 15.765625 45.015625 23.390625 
Q 45.015625 31 40.078125 35.4375 
Q 35.15625 39.890625 26.703125 39.890625 
Q 22.75 39.890625 18.8125 39.015625 
Q 14.890625 38.140625 10.796875 36.28125 
z
" id="DejaVuSans-53"/>
     </defs>
     <g transform="translate(151.823438 82.972813)scale(0.1 -0.1)">
      <use xlink:href="#DejaVuSans-84"/>
      <use x="60.912109" xlink:href="#DejaVuSans-58"/>
      <use x="94.603516" xlink:href="#DejaVuSans-49"/>
      <use x="158.226562" xlink:href="#DejaVuSans-49"/>
      <use x="221.849609" xlink:href="#DejaVuSans-51"/>
      <use x="285.472656" xlink:href="#DejaVuSans-53"/>
     </g>
    </g>
    <g id="line2d_33">
     <path d="M 123.823438 94.150937 
L 143.823438 94.150937 
" style="fill:none;stroke:#ffffff;stroke-linecap:square;stroke-width:1.5;"/>
    </g>
    <g id="line2d_34"/>
    <g id="text_21">
     <!-- P:1.665 -->
     <defs>
      <path d="M 19.671875 64.796875 
L 19.671875 37.40625 
L 32.078125 37.40625 
Q 38.96875 37.40625 42.71875 40.96875 
Q 46.484375 44.53125 46.484375 51.125 
Q 46.484375 57.671875 42.71875 61.234375 
Q 38.96875 64.796875 32.078125 64.796875 
z
M 9.8125 72.90625 
L 32.078125 72.90625 
Q 44.34375 72.90625 50.609375 67.359375 
Q 56.890625 61.8125 56.890625 51.125 
Q 56.890625 40.328125 50.609375 34.8125 
Q 44.34375 29.296875 32.078125 29.296875 
L 19.671875 29.296875 
L 19.671875 0 
L 9.8125 0 
z
" id="DejaVuSans-80"/>
     </defs>
     <g transform="translate(151.823438 97.650937)scale(0.1 -0.1)">
      <use xlink:href="#DejaVuSans-80"/>
      <use x="60.302734" xlink:href="#DejaVuSans-58"/>
      <use x="93.994141" xlink:href="#DejaVuSans-49"/>
      <use x="157.617188" xlink:href="#DejaVuSans-46"/>
      <use x="189.404297" xlink:href="#DejaVuSans-54"/>
      <use x="253.027344" xlink:href="#DejaVuSans-54"/>
      <use x="316.650391" xlink:href="#DejaVuSans-53"/>
     </g>
    </g>
    <g id="line2d_35">
     <path d="M 265.564063 35.416562 
L 285.564063 35.416562 
" style="fill:none;stroke:#ffffff;stroke-linecap:square;stroke-width:1.5;"/>
    </g>
    <g id="line2d_36"/>
    <g id="text_22">
     <!-- H2O2: 0.001476 -->
     <defs>
      <path d="M 9.8125 72.90625 
L 19.671875 72.90625 
L 19.671875 43.015625 
L 55.515625 43.015625 
L 55.515625 72.90625 
L 65.375 72.90625 
L 65.375 0 
L 55.515625 0 
L 55.515625 34.71875 
L 19.671875 34.71875 
L 19.671875 0 
L 9.8125 0 
z
" id="DejaVuSans-72"/>
      <path d="M 39.40625 66.21875 
Q 28.65625 66.21875 22.328125 58.203125 
Q 16.015625 50.203125 16.015625 36.375 
Q 16.015625 22.609375 22.328125 14.59375 
Q 28.65625 6.59375 39.40625 6.59375 
Q 50.140625 6.59375 56.421875 14.59375 
Q 62.703125 22.609375 62.703125 36.375 
Q 62.703125 50.203125 56.421875 58.203125 
Q 50.140625 66.21875 39.40625 66.21875 
z
M 39.40625 74.21875 
Q 54.734375 74.21875 63.90625 63.9375 
Q 73.09375 53.65625 73.09375 36.375 
Q 73.09375 19.140625 63.90625 8.859375 
Q 54.734375 -1.421875 39.40625 -1.421875 
Q 24.03125 -1.421875 14.8125 8.828125 
Q 5.609375 19.09375 5.609375 36.375 
Q 5.609375 53.65625 14.8125 63.9375 
Q 24.03125 74.21875 39.40625 74.21875 
z
" id="DejaVuSans-79"/>
     </defs>
     <g transform="translate(293.564063 38.916562)scale(0.1 -0.1)">
      <use xlink:href="#DejaVuSans-72"/>
      <use x="75.195312" xlink:href="#DejaVuSans-50"/>
      <use x="138.818359" xlink:href="#DejaVuSans-79"/>
      <use x="217.529297" xlink:href="#DejaVuSans-50"/>
      <use x="281.152344" xlink:href="#DejaVuSans-58"/>
      <use x="314.84375" xlink:href="#DejaVuSans-32"/>
      <use x="346.630859" xlink:href="#DejaVuSans-48"/>
      <use x="410.253906" xlink:href="#DejaVuSans-46"/>
      <use x="442.041016" xlink:href="#DejaVuSans-48"/>
      <use x="505.664062" xlink:href="#DejaVuSans-48"/>
      <use x="569.287109" xlink:href="#DejaVuSans-49"/>
      <use x="632.910156" xlink:href="#DejaVuSans-52"/>
      <use x="696.533203" xlink:href="#DejaVuSans-55"/>
      <use x="760.15625" xlink:href="#DejaVuSans-54"/>
     </g>
    </g>
    <g id="line2d_37">
     <path d="M 265.564063 50.094687 
L 285.564063 50.094687 
" style="fill:none;stroke:#ffffff;stroke-linecap:square;stroke-width:1.5;"/>
    </g>
    <g id="line2d_38"/>
    <g id="text_23">
     <!-- H2O: 0.001113 -->
     <g transform="translate(293.564063 53.594687)scale(0.1 -0.1)">
      <use xlink:href="#DejaVuSans-72"/>
      <use x="75.195312" xlink:href="#DejaVuSans-50"/>
      <use x="138.818359" xlink:href="#DejaVuSans-79"/>
      <use x="217.513672" xlink:href="#DejaVuSans-58"/>
      <use x="251.205078" xlink:href="#DejaVuSans-32"/>
      <use x="282.992188" xlink:href="#DejaVuSans-48"/>
      <use x="346.615234" xlink:href="#DejaVuSans-46"/>
      <use x="378.402344" xlink:href="#DejaVuSans-48"/>
      <use x="442.025391" xlink:href="#DejaVuSans-48"/>
      <use x="505.648438" xlink:href="#DejaVuSans-49"/>
      <use x="569.271484" xlink:href="#DejaVuSans-49"/>
      <use x="632.894531" xlink:href="#DejaVuSans-49"/>
      <use x="696.517578" xlink:href="#DejaVuSans-51"/>
     </g>
    </g>
    <g id="line2d_39">
     <path d="M 265.564063 64.772812 
L 285.564063 64.772812 
" style="fill:none;stroke:#ffffff;stroke-linecap:square;stroke-width:1.5;"/>
    </g>
    <g id="line2d_40"/>
    <g id="text_24">
     <!-- O2: 0.000556 -->
     <g transform="translate(293.564063 68.272812)scale(0.1 -0.1)">
      <use xlink:href="#DejaVuSans-79"/>
      <use x="78.710938" xlink:href="#DejaVuSans-50"/>
      <use x="142.333984" xlink:href="#DejaVuSans-58"/>
      <use x="176.025391" xlink:href="#DejaVuSans-32"/>
      <use x="207.8125" xlink:href="#DejaVuSans-48"/>
      <use x="271.435547" xlink:href="#DejaVuSans-46"/>
      <use x="303.222656" xlink:href="#DejaVuSans-48"/>
      <use x="366.845703" xlink:href="#DejaVuSans-48"/>
      <use x="430.46875" xlink:href="#DejaVuSans-48"/>
      <use x="494.091797" xlink:href="#DejaVuSans-53"/>
      <use x="557.714844" xlink:href="#DejaVuSans-53"/>
      <use x="621.337891" xlink:href="#DejaVuSans-54"/>
     </g>
    </g>
    <g id="line2d_41">
     <path d="M 265.564063 79.450938 
L 285.564063 79.450938 
" style="fill:none;stroke:#ffffff;stroke-linecap:square;stroke-width:1.5;"/>
    </g>
    <g id="line2d_42"/>
    <g id="text_25">
     <!-- Ar: 0.99683 -->
     <g transform="translate(293.564063 82.950938)scale(0.1 -0.1)">
      <use xlink:href="#DejaVuSans-65"/>
      <use x="68.408203" xlink:href="#DejaVuSans-114"/>
      <use x="109.505859" xlink:href="#DejaVuSans-58"/>
      <use x="143.197266" xlink:href="#DejaVuSans-32"/>
      <use x="174.984375" xlink:href="#DejaVuSans-48"/>
      <use x="238.607422" xlink:href="#DejaVuSans-46"/>
      <use x="270.394531" xlink:href="#DejaVuSans-57"/>
      <use x="334.017578" xlink:href="#DejaVuSans-57"/>
      <use x="397.640625" xlink:href="#DejaVuSans-54"/>
      <use x="461.263672" xlink:href="#DejaVuSans-56"/>
      <use x="524.886719" xlink:href="#DejaVuSans-51"/>
     </g>
    </g>
   </g>
  </g>
 </g>
 <defs>
  <clipPath id="pa346df4be8">
   <rect height="217.44" width="334.8" x="50.14375" y="22.318125"/>
  </clipPath>
 </defs>
</svg>
