<?xml version="1.0" encoding="utf-8" standalone="no"?>
<!DOCTYPE svg PUBLIC "-//W3C//DTD SVG 1.1//EN"
  "http://www.w3.org/Graphics/SVG/1.1/DTD/svg11.dtd">
<!-- Created with matplotlib (https://matplotlib.org/) -->
<svg height="277.314375pt" version="1.1" viewBox="0 0 402.00625 277.314375" width="402.00625pt" xmlns="http://www.w3.org/2000/svg" xmlns:xlink="http://www.w3.org/1999/xlink">
 <defs>
  <style type="text/css">
*{stroke-linecap:butt;stroke-linejoin:round;}
  </style>
 </defs>
 <g id="figure_1">
  <g id="patch_1">
   <path d="M 0 277.314375 
L 402.00625 277.314375 
L 402.00625 0 
L 0 0 
z
" style="fill:none;"/>
  </g>
  <g id="axes_1">
   <g id="patch_2">
    <path d="M 56.50625 239.758125 
L 391.30625 239.758125 
L 391.30625 22.318125 
L 56.50625 22.318125 
z
" style="fill:none;"/>
   </g>
   <g id="matplotlib.axis_1">
    <g id="xtick_1">
     <g id="line2d_1">
      <defs>
       <path d="M 0 0 
L 0 3.5 
" id="m659478f31d" style="stroke:#000000;stroke-width:0.8;"/>
      </defs>
      <g>
       <use style="stroke:#000000;stroke-width:0.8;" x="71.724432" xlink:href="#m659478f31d" y="239.758125"/>
      </g>
     </g>
     <g id="text_1">
      <!-- 0.0 -->
      <defs>
       <path d="M 31.78125 66.40625 
Q 24.171875 66.40625 20.328125 58.90625 
Q 16.5 51.421875 16.5 36.375 
Q 16.5 21.390625 20.328125 13.890625 
Q 24.171875 6.390625 31.78125 6.390625 
Q 39.453125 6.390625 43.28125 13.890625 
Q 47.125 21.390625 47.125 36.375 
Q 47.125 51.421875 43.28125 58.90625 
Q 39.453125 66.40625 31.78125 66.40625 
z
M 31.78125 74.21875 
Q 44.046875 74.21875 50.515625 64.515625 
Q 56.984375 54.828125 56.984375 36.375 
Q 56.984375 17.96875 50.515625 8.265625 
Q 44.046875 -1.421875 31.78125 -1.421875 
Q 19.53125 -1.421875 13.0625 8.265625 
Q 6.59375 17.96875 6.59375 36.375 
Q 6.59375 54.828125 13.0625 64.515625 
Q 19.53125 74.21875 31.78125 74.21875 
z
" id="DejaVuSans-48"/>
       <path d="M 10.6875 12.40625 
L 21 12.40625 
L 21 0 
L 10.6875 0 
z
" id="DejaVuSans-46"/>
      </defs>
      <g transform="translate(63.772869 254.356562)scale(0.1 -0.1)">
       <use xlink:href="#DejaVuSans-48"/>
       <use x="63.623047" xlink:href="#DejaVuSans-46"/>
       <use x="95.410156" xlink:href="#DejaVuSans-48"/>
      </g>
     </g>
    </g>
    <g id="xtick_2">
     <g id="line2d_2">
      <g>
       <use style="stroke:#000000;stroke-width:0.8;" x="132.325412" xlink:href="#m659478f31d" y="239.758125"/>
      </g>
     </g>
     <g id="text_2">
      <!-- 0.2 -->
      <defs>
       <path d="M 19.1875 8.296875 
L 53.609375 8.296875 
L 53.609375 0 
L 7.328125 0 
L 7.328125 8.296875 
Q 12.9375 14.109375 22.625 23.890625 
Q 32.328125 33.6875 34.8125 36.53125 
Q 39.546875 41.84375 41.421875 45.53125 
Q 43.3125 49.21875 43.3125 52.78125 
Q 43.3125 58.59375 39.234375 62.25 
Q 35.15625 65.921875 28.609375 65.921875 
Q 23.96875 65.921875 18.8125 64.3125 
Q 13.671875 62.703125 7.8125 59.421875 
L 7.8125 69.390625 
Q 13.765625 71.78125 18.9375 73 
Q 24.125 74.21875 28.421875 74.21875 
Q 39.75 74.21875 46.484375 68.546875 
Q 53.21875 62.890625 53.21875 53.421875 
Q 53.21875 48.921875 51.53125 44.890625 
Q 49.859375 40.875 45.40625 35.40625 
Q 44.1875 33.984375 37.640625 27.21875 
Q 31.109375 20.453125 19.1875 8.296875 
z
" id="DejaVuSans-50"/>
      </defs>
      <g transform="translate(124.373849 254.356562)scale(0.1 -0.1)">
       <use xlink:href="#DejaVuSans-48"/>
       <use x="63.623047" xlink:href="#DejaVuSans-46"/>
       <use x="95.410156" xlink:href="#DejaVuSans-50"/>
      </g>
     </g>
    </g>
    <g id="xtick_3">
     <g id="line2d_3">
      <g>
       <use style="stroke:#000000;stroke-width:0.8;" x="192.926392" xlink:href="#m659478f31d" y="239.758125"/>
      </g>
     </g>
     <g id="text_3">
      <!-- 0.4 -->
      <defs>
       <path d="M 37.796875 64.3125 
L 12.890625 25.390625 
L 37.796875 25.390625 
z
M 35.203125 72.90625 
L 47.609375 72.90625 
L 47.609375 25.390625 
L 58.015625 25.390625 
L 58.015625 17.1875 
L 47.609375 17.1875 
L 47.609375 0 
L 37.796875 0 
L 37.796875 17.1875 
L 4.890625 17.1875 
L 4.890625 26.703125 
z
" id="DejaVuSans-52"/>
      </defs>
      <g transform="translate(184.97483 254.356562)scale(0.1 -0.1)">
       <use xlink:href="#DejaVuSans-48"/>
       <use x="63.623047" xlink:href="#DejaVuSans-46"/>
       <use x="95.410156" xlink:href="#DejaVuSans-52"/>
      </g>
     </g>
    </g>
    <g id="xtick_4">
     <g id="line2d_4">
      <g>
       <use style="stroke:#000000;stroke-width:0.8;" x="253.527372" xlink:href="#m659478f31d" y="239.758125"/>
      </g>
     </g>
     <g id="text_4">
      <!-- 0.6 -->
      <defs>
       <path d="M 33.015625 40.375 
Q 26.375 40.375 22.484375 35.828125 
Q 18.609375 31.296875 18.609375 23.390625 
Q 18.609375 15.53125 22.484375 10.953125 
Q 26.375 6.390625 33.015625 6.390625 
Q 39.65625 6.390625 43.53125 10.953125 
Q 47.40625 15.53125 47.40625 23.390625 
Q 47.40625 31.296875 43.53125 35.828125 
Q 39.65625 40.375 33.015625 40.375 
z
M 52.59375 71.296875 
L 52.59375 62.3125 
Q 48.875 64.0625 45.09375 64.984375 
Q 41.3125 65.921875 37.59375 65.921875 
Q 27.828125 65.921875 22.671875 59.328125 
Q 17.53125 52.734375 16.796875 39.40625 
Q 19.671875 43.65625 24.015625 45.921875 
Q 28.375 48.1875 33.59375 48.1875 
Q 44.578125 48.1875 50.953125 41.515625 
Q 57.328125 34.859375 57.328125 23.390625 
Q 57.328125 12.15625 50.6875 5.359375 
Q 44.046875 -1.421875 33.015625 -1.421875 
Q 20.359375 -1.421875 13.671875 8.265625 
Q 6.984375 17.96875 6.984375 36.375 
Q 6.984375 53.65625 15.1875 63.9375 
Q 23.390625 74.21875 37.203125 74.21875 
Q 40.921875 74.21875 44.703125 73.484375 
Q 48.484375 72.75 52.59375 71.296875 
z
" id="DejaVuSans-54"/>
      </defs>
      <g transform="translate(245.57581 254.356562)scale(0.1 -0.1)">
       <use xlink:href="#DejaVuSans-48"/>
       <use x="63.623047" xlink:href="#DejaVuSans-46"/>
       <use x="95.410156" xlink:href="#DejaVuSans-54"/>
      </g>
     </g>
    </g>
    <g id="xtick_5">
     <g id="line2d_5">
      <g>
       <use style="stroke:#000000;stroke-width:0.8;" x="314.128352" xlink:href="#m659478f31d" y="239.758125"/>
      </g>
     </g>
     <g id="text_5">
      <!-- 0.8 -->
      <defs>
       <path d="M 31.78125 34.625 
Q 24.75 34.625 20.71875 30.859375 
Q 16.703125 27.09375 16.703125 20.515625 
Q 16.703125 13.921875 20.71875 10.15625 
Q 24.75 6.390625 31.78125 6.390625 
Q 38.8125 6.390625 42.859375 10.171875 
Q 46.921875 13.96875 46.921875 20.515625 
Q 46.921875 27.09375 42.890625 30.859375 
Q 38.875 34.625 31.78125 34.625 
z
M 21.921875 38.8125 
Q 15.578125 40.375 12.03125 44.71875 
Q 8.5 49.078125 8.5 55.328125 
Q 8.5 64.0625 14.71875 69.140625 
Q 20.953125 74.21875 31.78125 74.21875 
Q 42.671875 74.21875 48.875 69.140625 
Q 55.078125 64.0625 55.078125 55.328125 
Q 55.078125 49.078125 51.53125 44.71875 
Q 48 40.375 41.703125 38.8125 
Q 48.828125 37.15625 52.796875 32.3125 
Q 56.78125 27.484375 56.78125 20.515625 
Q 56.78125 9.90625 50.3125 4.234375 
Q 43.84375 -1.421875 31.78125 -1.421875 
Q 19.734375 -1.421875 13.25 4.234375 
Q 6.78125 9.90625 6.78125 20.515625 
Q 6.78125 27.484375 10.78125 32.3125 
Q 14.796875 37.15625 21.921875 38.8125 
z
M 18.3125 54.390625 
Q 18.3125 48.734375 21.84375 45.5625 
Q 25.390625 42.390625 31.78125 42.390625 
Q 38.140625 42.390625 41.71875 45.5625 
Q 45.3125 48.734375 45.3125 54.390625 
Q 45.3125 60.0625 41.71875 63.234375 
Q 38.140625 66.40625 31.78125 66.40625 
Q 25.390625 66.40625 21.84375 63.234375 
Q 18.3125 60.0625 18.3125 54.390625 
z
" id="DejaVuSans-56"/>
      </defs>
      <g transform="translate(306.17679 254.356562)scale(0.1 -0.1)">
       <use xlink:href="#DejaVuSans-48"/>
       <use x="63.623047" xlink:href="#DejaVuSans-46"/>
       <use x="95.410156" xlink:href="#DejaVuSans-56"/>
      </g>
     </g>
    </g>
    <g id="xtick_6">
     <g id="line2d_6">
      <g>
       <use style="stroke:#000000;stroke-width:0.8;" x="374.729333" xlink:href="#m659478f31d" y="239.758125"/>
      </g>
     </g>
     <g id="text_6">
      <!-- 1.0 -->
      <defs>
       <path d="M 12.40625 8.296875 
L 28.515625 8.296875 
L 28.515625 63.921875 
L 10.984375 60.40625 
L 10.984375 69.390625 
L 28.421875 72.90625 
L 38.28125 72.90625 
L 38.28125 8.296875 
L 54.390625 8.296875 
L 54.390625 0 
L 12.40625 0 
z
" id="DejaVuSans-49"/>
      </defs>
      <g transform="translate(366.77777 254.356562)scale(0.1 -0.1)">
       <use xlink:href="#DejaVuSans-49"/>
       <use x="63.623047" xlink:href="#DejaVuSans-46"/>
       <use x="95.410156" xlink:href="#DejaVuSans-48"/>
      </g>
     </g>
    </g>
    <g id="text_7">
     <!-- Time (ms) -->
     <defs>
      <path d="M -0.296875 72.90625 
L 61.375 72.90625 
L 61.375 64.59375 
L 35.5 64.59375 
L 35.5 0 
L 25.59375 0 
L 25.59375 64.59375 
L -0.296875 64.59375 
z
" id="DejaVuSans-84"/>
      <path d="M 9.421875 54.6875 
L 18.40625 54.6875 
L 18.40625 0 
L 9.421875 0 
z
M 9.421875 75.984375 
L 18.40625 75.984375 
L 18.40625 64.59375 
L 9.421875 64.59375 
z
" id="DejaVuSans-105"/>
      <path d="M 52 44.1875 
Q 55.375 50.25 60.0625 53.125 
Q 64.75 56 71.09375 56 
Q 79.640625 56 84.28125 50.015625 
Q 88.921875 44.046875 88.921875 33.015625 
L 88.921875 0 
L 79.890625 0 
L 79.890625 32.71875 
Q 79.890625 40.578125 77.09375 44.375 
Q 74.3125 48.1875 68.609375 48.1875 
Q 61.625 48.1875 57.5625 43.546875 
Q 53.515625 38.921875 53.515625 30.90625 
L 53.515625 0 
L 44.484375 0 
L 44.484375 32.71875 
Q 44.484375 40.625 41.703125 44.40625 
Q 38.921875 48.1875 33.109375 48.1875 
Q 26.21875 48.1875 22.15625 43.53125 
Q 18.109375 38.875 18.109375 30.90625 
L 18.109375 0 
L 9.078125 0 
L 9.078125 54.6875 
L 18.109375 54.6875 
L 18.109375 46.1875 
Q 21.1875 51.21875 25.484375 53.609375 
Q 29.78125 56 35.6875 56 
Q 41.65625 56 45.828125 52.96875 
Q 50 49.953125 52 44.1875 
z
" id="DejaVuSans-109"/>
      <path d="M 56.203125 29.59375 
L 56.203125 25.203125 
L 14.890625 25.203125 
Q 15.484375 15.921875 20.484375 11.0625 
Q 25.484375 6.203125 34.421875 6.203125 
Q 39.59375 6.203125 44.453125 7.46875 
Q 49.3125 8.734375 54.109375 11.28125 
L 54.109375 2.78125 
Q 49.265625 0.734375 44.1875 -0.34375 
Q 39.109375 -1.421875 33.890625 -1.421875 
Q 20.796875 -1.421875 13.15625 6.1875 
Q 5.515625 13.8125 5.515625 26.8125 
Q 5.515625 40.234375 12.765625 48.109375 
Q 20.015625 56 32.328125 56 
Q 43.359375 56 49.78125 48.890625 
Q 56.203125 41.796875 56.203125 29.59375 
z
M 47.21875 32.234375 
Q 47.125 39.59375 43.09375 43.984375 
Q 39.0625 48.390625 32.421875 48.390625 
Q 24.90625 48.390625 20.390625 44.140625 
Q 15.875 39.890625 15.1875 32.171875 
z
" id="DejaVuSans-101"/>
      <path id="DejaVuSans-32"/>
      <path d="M 31 75.875 
Q 24.46875 64.65625 21.28125 53.65625 
Q 18.109375 42.671875 18.109375 31.390625 
Q 18.109375 20.125 21.3125 9.0625 
Q 24.515625 -2 31 -13.1875 
L 23.1875 -13.1875 
Q 15.875 -1.703125 12.234375 9.375 
Q 8.59375 20.453125 8.59375 31.390625 
Q 8.59375 42.28125 12.203125 53.3125 
Q 15.828125 64.359375 23.1875 75.875 
z
" id="DejaVuSans-40"/>
      <path d="M 44.28125 53.078125 
L 44.28125 44.578125 
Q 40.484375 46.53125 36.375 47.5 
Q 32.28125 48.484375 27.875 48.484375 
Q 21.1875 48.484375 17.84375 46.4375 
Q 14.5 44.390625 14.5 40.28125 
Q 14.5 37.15625 16.890625 35.375 
Q 19.28125 33.59375 26.515625 31.984375 
L 29.59375 31.296875 
Q 39.15625 29.25 43.1875 25.515625 
Q 47.21875 21.78125 47.21875 15.09375 
Q 47.21875 7.46875 41.1875 3.015625 
Q 35.15625 -1.421875 24.609375 -1.421875 
Q 20.21875 -1.421875 15.453125 -0.5625 
Q 10.6875 0.296875 5.421875 2 
L 5.421875 11.28125 
Q 10.40625 8.6875 15.234375 7.390625 
Q 20.0625 6.109375 24.8125 6.109375 
Q 31.15625 6.109375 34.5625 8.28125 
Q 37.984375 10.453125 37.984375 14.40625 
Q 37.984375 18.0625 35.515625 20.015625 
Q 33.0625 21.96875 24.703125 23.78125 
L 21.578125 24.515625 
Q 13.234375 26.265625 9.515625 29.90625 
Q 5.8125 33.546875 5.8125 39.890625 
Q 5.8125 47.609375 11.28125 51.796875 
Q 16.75 56 26.8125 56 
Q 31.78125 56 36.171875 55.265625 
Q 40.578125 54.546875 44.28125 53.078125 
z
" id="DejaVuSans-115"/>
      <path d="M 8.015625 75.875 
L 15.828125 75.875 
Q 23.140625 64.359375 26.78125 53.3125 
Q 30.421875 42.28125 30.421875 31.390625 
Q 30.421875 20.453125 26.78125 9.375 
Q 23.140625 -1.703125 15.828125 -13.1875 
L 8.015625 -13.1875 
Q 14.5 -2 17.703125 9.0625 
Q 20.90625 20.125 20.90625 31.390625 
Q 20.90625 42.671875 17.703125 53.65625 
Q 14.5 64.65625 8.015625 75.875 
z
" id="DejaVuSans-41"/>
     </defs>
     <g transform="translate(198.553125 268.034687)scale(0.1 -0.1)">
      <use xlink:href="#DejaVuSans-84"/>
      <use x="61.037109" xlink:href="#DejaVuSans-105"/>
      <use x="88.820312" xlink:href="#DejaVuSans-109"/>
      <use x="186.232422" xlink:href="#DejaVuSans-101"/>
      <use x="247.755859" xlink:href="#DejaVuSans-32"/>
      <use x="279.542969" xlink:href="#DejaVuSans-40"/>
      <use x="318.556641" xlink:href="#DejaVuSans-109"/>
      <use x="415.96875" xlink:href="#DejaVuSans-115"/>
      <use x="468.068359" xlink:href="#DejaVuSans-41"/>
     </g>
    </g>
   </g>
   <g id="matplotlib.axis_2">
    <g id="ytick_1">
     <g id="line2d_7">
      <defs>
       <path d="M 0 0 
L -3.5 0 
" id="m1a1627a2f8" style="stroke:#000000;stroke-width:0.8;"/>
      </defs>
      <g>
       <use style="stroke:#000000;stroke-width:0.8;" x="56.50625" xlink:href="#m1a1627a2f8" y="230.031553"/>
      </g>
     </g>
     <g id="text_8">
      <!-- 0.000 -->
      <g transform="translate(20.878125 233.830772)scale(0.1 -0.1)">
       <use xlink:href="#DejaVuSans-48"/>
       <use x="63.623047" xlink:href="#DejaVuSans-46"/>
       <use x="95.410156" xlink:href="#DejaVuSans-48"/>
       <use x="159.033203" xlink:href="#DejaVuSans-48"/>
       <use x="222.65625" xlink:href="#DejaVuSans-48"/>
      </g>
     </g>
    </g>
    <g id="ytick_2">
     <g id="line2d_8">
      <g>
       <use style="stroke:#000000;stroke-width:0.8;" x="56.50625" xlink:href="#m1a1627a2f8" y="203.205645"/>
      </g>
     </g>
     <g id="text_9">
      <!-- 0.025 -->
      <defs>
       <path d="M 10.796875 72.90625 
L 49.515625 72.90625 
L 49.515625 64.59375 
L 19.828125 64.59375 
L 19.828125 46.734375 
Q 21.96875 47.46875 24.109375 47.828125 
Q 26.265625 48.1875 28.421875 48.1875 
Q 40.625 48.1875 47.75 41.5 
Q 54.890625 34.8125 54.890625 23.390625 
Q 54.890625 11.625 47.5625 5.09375 
Q 40.234375 -1.421875 26.90625 -1.421875 
Q 22.3125 -1.421875 17.546875 -0.640625 
Q 12.796875 0.140625 7.71875 1.703125 
L 7.71875 11.625 
Q 12.109375 9.234375 16.796875 8.0625 
Q 21.484375 6.890625 26.703125 6.890625 
Q 35.15625 6.890625 40.078125 11.328125 
Q 45.015625 15.765625 45.015625 23.390625 
Q 45.015625 31 40.078125 35.4375 
Q 35.15625 39.890625 26.703125 39.890625 
Q 22.75 39.890625 18.8125 39.015625 
Q 14.890625 38.140625 10.796875 36.28125 
z
" id="DejaVuSans-53"/>
      </defs>
      <g transform="translate(20.878125 207.004864)scale(0.1 -0.1)">
       <use xlink:href="#DejaVuSans-48"/>
       <use x="63.623047" xlink:href="#DejaVuSans-46"/>
       <use x="95.410156" xlink:href="#DejaVuSans-48"/>
       <use x="159.033203" xlink:href="#DejaVuSans-50"/>
       <use x="222.65625" xlink:href="#DejaVuSans-53"/>
      </g>
     </g>
    </g>
    <g id="ytick_3">
     <g id="line2d_9">
      <g>
       <use style="stroke:#000000;stroke-width:0.8;" x="56.50625" xlink:href="#m1a1627a2f8" y="176.379736"/>
      </g>
     </g>
     <g id="text_10">
      <!-- 0.050 -->
      <g transform="translate(20.878125 180.178955)scale(0.1 -0.1)">
       <use xlink:href="#DejaVuSans-48"/>
       <use x="63.623047" xlink:href="#DejaVuSans-46"/>
       <use x="95.410156" xlink:href="#DejaVuSans-48"/>
       <use x="159.033203" xlink:href="#DejaVuSans-53"/>
       <use x="222.65625" xlink:href="#DejaVuSans-48"/>
      </g>
     </g>
    </g>
    <g id="ytick_4">
     <g id="line2d_10">
      <g>
       <use style="stroke:#000000;stroke-width:0.8;" x="56.50625" xlink:href="#m1a1627a2f8" y="149.553828"/>
      </g>
     </g>
     <g id="text_11">
      <!-- 0.075 -->
      <defs>
       <path d="M 8.203125 72.90625 
L 55.078125 72.90625 
L 55.078125 68.703125 
L 28.609375 0 
L 18.3125 0 
L 43.21875 64.59375 
L 8.203125 64.59375 
z
" id="DejaVuSans-55"/>
      </defs>
      <g transform="translate(20.878125 153.353046)scale(0.1 -0.1)">
       <use xlink:href="#DejaVuSans-48"/>
       <use x="63.623047" xlink:href="#DejaVuSans-46"/>
       <use x="95.410156" xlink:href="#DejaVuSans-48"/>
       <use x="159.033203" xlink:href="#DejaVuSans-55"/>
       <use x="222.65625" xlink:href="#DejaVuSans-53"/>
      </g>
     </g>
    </g>
    <g id="ytick_5">
     <g id="line2d_11">
      <g>
       <use style="stroke:#000000;stroke-width:0.8;" x="56.50625" xlink:href="#m1a1627a2f8" y="122.727919"/>
      </g>
     </g>
     <g id="text_12">
      <!-- 0.100 -->
      <g transform="translate(20.878125 126.527138)scale(0.1 -0.1)">
       <use xlink:href="#DejaVuSans-48"/>
       <use x="63.623047" xlink:href="#DejaVuSans-46"/>
       <use x="95.410156" xlink:href="#DejaVuSans-49"/>
       <use x="159.033203" xlink:href="#DejaVuSans-48"/>
       <use x="222.65625" xlink:href="#DejaVuSans-48"/>
      </g>
     </g>
    </g>
    <g id="ytick_6">
     <g id="line2d_12">
      <g>
       <use style="stroke:#000000;stroke-width:0.8;" x="56.50625" xlink:href="#m1a1627a2f8" y="95.90201"/>
      </g>
     </g>
     <g id="text_13">
      <!-- 0.125 -->
      <g transform="translate(20.878125 99.701229)scale(0.1 -0.1)">
       <use xlink:href="#DejaVuSans-48"/>
       <use x="63.623047" xlink:href="#DejaVuSans-46"/>
       <use x="95.410156" xlink:href="#DejaVuSans-49"/>
       <use x="159.033203" xlink:href="#DejaVuSans-50"/>
       <use x="222.65625" xlink:href="#DejaVuSans-53"/>
      </g>
     </g>
    </g>
    <g id="ytick_7">
     <g id="line2d_13">
      <g>
       <use style="stroke:#000000;stroke-width:0.8;" x="56.50625" xlink:href="#m1a1627a2f8" y="69.076102"/>
      </g>
     </g>
     <g id="text_14">
      <!-- 0.150 -->
      <g transform="translate(20.878125 72.87532)scale(0.1 -0.1)">
       <use xlink:href="#DejaVuSans-48"/>
       <use x="63.623047" xlink:href="#DejaVuSans-46"/>
       <use x="95.410156" xlink:href="#DejaVuSans-49"/>
       <use x="159.033203" xlink:href="#DejaVuSans-53"/>
       <use x="222.65625" xlink:href="#DejaVuSans-48"/>
      </g>
     </g>
    </g>
    <g id="ytick_8">
     <g id="line2d_14">
      <g>
       <use style="stroke:#000000;stroke-width:0.8;" x="56.50625" xlink:href="#m1a1627a2f8" y="42.250193"/>
      </g>
     </g>
     <g id="text_15">
      <!-- 0.175 -->
      <g transform="translate(20.878125 46.049412)scale(0.1 -0.1)">
       <use xlink:href="#DejaVuSans-48"/>
       <use x="63.623047" xlink:href="#DejaVuSans-46"/>
       <use x="95.410156" xlink:href="#DejaVuSans-49"/>
       <use x="159.033203" xlink:href="#DejaVuSans-55"/>
       <use x="222.65625" xlink:href="#DejaVuSans-53"/>
      </g>
     </g>
    </g>
    <g id="text_16">
     <!-- Absorbance227 -->
     <defs>
      <path d="M 34.1875 63.1875 
L 20.796875 26.90625 
L 47.609375 26.90625 
z
M 28.609375 72.90625 
L 39.796875 72.90625 
L 67.578125 0 
L 57.328125 0 
L 50.6875 18.703125 
L 17.828125 18.703125 
L 11.1875 0 
L 0.78125 0 
z
" id="DejaVuSans-65"/>
      <path d="M 48.6875 27.296875 
Q 48.6875 37.203125 44.609375 42.84375 
Q 40.53125 48.484375 33.40625 48.484375 
Q 26.265625 48.484375 22.1875 42.84375 
Q 18.109375 37.203125 18.109375 27.296875 
Q 18.109375 17.390625 22.1875 11.75 
Q 26.265625 6.109375 33.40625 6.109375 
Q 40.53125 6.109375 44.609375 11.75 
Q 48.6875 17.390625 48.6875 27.296875 
z
M 18.109375 46.390625 
Q 20.953125 51.265625 25.265625 53.625 
Q 29.59375 56 35.59375 56 
Q 45.5625 56 51.78125 48.09375 
Q 58.015625 40.1875 58.015625 27.296875 
Q 58.015625 14.40625 51.78125 6.484375 
Q 45.5625 -1.421875 35.59375 -1.421875 
Q 29.59375 -1.421875 25.265625 0.953125 
Q 20.953125 3.328125 18.109375 8.203125 
L 18.109375 0 
L 9.078125 0 
L 9.078125 75.984375 
L 18.109375 75.984375 
z
" id="DejaVuSans-98"/>
      <path d="M 30.609375 48.390625 
Q 23.390625 48.390625 19.1875 42.75 
Q 14.984375 37.109375 14.984375 27.296875 
Q 14.984375 17.484375 19.15625 11.84375 
Q 23.34375 6.203125 30.609375 6.203125 
Q 37.796875 6.203125 41.984375 11.859375 
Q 46.1875 17.53125 46.1875 27.296875 
Q 46.1875 37.015625 41.984375 42.703125 
Q 37.796875 48.390625 30.609375 48.390625 
z
M 30.609375 56 
Q 42.328125 56 49.015625 48.375 
Q 55.71875 40.765625 55.71875 27.296875 
Q 55.71875 13.875 49.015625 6.21875 
Q 42.328125 -1.421875 30.609375 -1.421875 
Q 18.84375 -1.421875 12.171875 6.21875 
Q 5.515625 13.875 5.515625 27.296875 
Q 5.515625 40.765625 12.171875 48.375 
Q 18.84375 56 30.609375 56 
z
" id="DejaVuSans-111"/>
      <path d="M 41.109375 46.296875 
Q 39.59375 47.171875 37.8125 47.578125 
Q 36.03125 48 33.890625 48 
Q 26.265625 48 22.1875 43.046875 
Q 18.109375 38.09375 18.109375 28.8125 
L 18.109375 0 
L 9.078125 0 
L 9.078125 54.6875 
L 18.109375 54.6875 
L 18.109375 46.1875 
Q 20.953125 51.171875 25.484375 53.578125 
Q 30.03125 56 36.53125 56 
Q 37.453125 56 38.578125 55.875 
Q 39.703125 55.765625 41.0625 55.515625 
z
" id="DejaVuSans-114"/>
      <path d="M 34.28125 27.484375 
Q 23.390625 27.484375 19.1875 25 
Q 14.984375 22.515625 14.984375 16.5 
Q 14.984375 11.71875 18.140625 8.90625 
Q 21.296875 6.109375 26.703125 6.109375 
Q 34.1875 6.109375 38.703125 11.40625 
Q 43.21875 16.703125 43.21875 25.484375 
L 43.21875 27.484375 
z
M 52.203125 31.203125 
L 52.203125 0 
L 43.21875 0 
L 43.21875 8.296875 
Q 40.140625 3.328125 35.546875 0.953125 
Q 30.953125 -1.421875 24.3125 -1.421875 
Q 15.921875 -1.421875 10.953125 3.296875 
Q 6 8.015625 6 15.921875 
Q 6 25.140625 12.171875 29.828125 
Q 18.359375 34.515625 30.609375 34.515625 
L 43.21875 34.515625 
L 43.21875 35.40625 
Q 43.21875 41.609375 39.140625 45 
Q 35.0625 48.390625 27.6875 48.390625 
Q 23 48.390625 18.546875 47.265625 
Q 14.109375 46.140625 10.015625 43.890625 
L 10.015625 52.203125 
Q 14.9375 54.109375 19.578125 55.046875 
Q 24.21875 56 28.609375 56 
Q 40.484375 56 46.34375 49.84375 
Q 52.203125 43.703125 52.203125 31.203125 
z
" id="DejaVuSans-97"/>
      <path d="M 54.890625 33.015625 
L 54.890625 0 
L 45.90625 0 
L 45.90625 32.71875 
Q 45.90625 40.484375 42.875 44.328125 
Q 39.84375 48.1875 33.796875 48.1875 
Q 26.515625 48.1875 22.3125 43.546875 
Q 18.109375 38.921875 18.109375 30.90625 
L 18.109375 0 
L 9.078125 0 
L 9.078125 54.6875 
L 18.109375 54.6875 
L 18.109375 46.1875 
Q 21.34375 51.125 25.703125 53.5625 
Q 30.078125 56 35.796875 56 
Q 45.21875 56 50.046875 50.171875 
Q 54.890625 44.34375 54.890625 33.015625 
z
" id="DejaVuSans-110"/>
      <path d="M 48.78125 52.59375 
L 48.78125 44.1875 
Q 44.96875 46.296875 41.140625 47.34375 
Q 37.3125 48.390625 33.40625 48.390625 
Q 24.65625 48.390625 19.8125 42.84375 
Q 14.984375 37.3125 14.984375 27.296875 
Q 14.984375 17.28125 19.8125 11.734375 
Q 24.65625 6.203125 33.40625 6.203125 
Q 37.3125 6.203125 41.140625 7.25 
Q 44.96875 8.296875 48.78125 10.40625 
L 48.78125 2.09375 
Q 45.015625 0.34375 40.984375 -0.53125 
Q 36.96875 -1.421875 32.421875 -1.421875 
Q 20.0625 -1.421875 12.78125 6.34375 
Q 5.515625 14.109375 5.515625 27.296875 
Q 5.515625 40.671875 12.859375 48.328125 
Q 20.21875 56 33.015625 56 
Q 37.15625 56 41.109375 55.140625 
Q 45.0625 54.296875 48.78125 52.59375 
z
" id="DejaVuSans-99"/>
     </defs>
     <g transform="translate(14.798437 170.12875)rotate(-90)scale(0.1 -0.1)">
      <use xlink:href="#DejaVuSans-65"/>
      <use x="68.408203" xlink:href="#DejaVuSans-98"/>
      <use x="131.884766" xlink:href="#DejaVuSans-115"/>
      <use x="183.984375" xlink:href="#DejaVuSans-111"/>
      <use x="245.166016" xlink:href="#DejaVuSans-114"/>
      <use x="286.279297" xlink:href="#DejaVuSans-98"/>
      <use x="349.755859" xlink:href="#DejaVuSans-97"/>
      <use x="411.035156" xlink:href="#DejaVuSans-110"/>
      <use x="474.414062" xlink:href="#DejaVuSans-99"/>
      <use x="529.394531" xlink:href="#DejaVuSans-101"/>
      <use x="590.917969" xlink:href="#DejaVuSans-50"/>
      <use x="654.541016" xlink:href="#DejaVuSans-50"/>
      <use x="718.164062" xlink:href="#DejaVuSans-55"/>
     </g>
    </g>
   </g>
   <g id="line2d_15">
    <defs>
     <path d="M 0 3 
C 0.795609 3 1.55874 2.683901 2.12132 2.12132 
C 2.683901 1.55874 3 0.795609 3 0 
C 3 -0.795609 2.683901 -1.55874 2.12132 -2.12132 
C 1.55874 -2.683901 0.795609 -3 0 -3 
C -0.795609 -3 -1.55874 -2.683901 -2.12132 -2.12132 
C -2.683901 -1.55874 -3 -0.795609 -3 0 
C -3 0.795609 -2.683901 1.55874 -2.12132 2.12132 
C -1.55874 2.683901 -0.795609 3 0 3 
z
" id="m50ea489994" style="stroke:#000000;"/>
    </defs>
    <g clip-path="url(#p33b7977a90)">
     <use style="stroke:#000000;" x="71.724432" xlink:href="#m50ea489994" y="136.683615"/>
     <use style="stroke:#000000;" x="71.724437" xlink:href="#m50ea489994" y="136.683615"/>
     <use style="stroke:#000000;" x="71.724451" xlink:href="#m50ea489994" y="136.683615"/>
     <use style="stroke:#000000;" x="71.724466" xlink:href="#m50ea489994" y="136.683615"/>
     <use style="stroke:#000000;" x="71.724481" xlink:href="#m50ea489994" y="136.683722"/>
     <use style="stroke:#000000;" x="71.724495" xlink:href="#m50ea489994" y="136.683722"/>
     <use style="stroke:#000000;" x="71.724526" xlink:href="#m50ea489994" y="136.683722"/>
     <use style="stroke:#000000;" x="71.724583" xlink:href="#m50ea489994" y="136.68383"/>
     <use style="stroke:#000000;" x="71.724683" xlink:href="#m50ea489994" y="136.683937"/>
     <use style="stroke:#000000;" x="71.724862" xlink:href="#m50ea489994" y="136.684152"/>
     <use style="stroke:#000000;" x="71.725211" xlink:href="#m50ea489994" y="136.684581"/>
     <use style="stroke:#000000;" x="71.72578" xlink:href="#m50ea489994" y="136.685225"/>
     <use style="stroke:#000000;" x="71.726347" xlink:href="#m50ea489994" y="136.685868"/>
     <use style="stroke:#000000;" x="71.726916" xlink:href="#m50ea489994" y="136.686512"/>
     <use style="stroke:#000000;" x="71.727492" xlink:href="#m50ea489994" y="136.687263"/>
     <use style="stroke:#000000;" x="71.728098" xlink:href="#m50ea489994" y="136.687907"/>
     <use style="stroke:#000000;" x="71.728734" xlink:href="#m50ea489994" y="136.688658"/>
     <use style="stroke:#000000;" x="71.729371" xlink:href="#m50ea489994" y="136.689302"/>
     <use style="stroke:#000000;" x="71.730462" xlink:href="#m50ea489994" y="136.69059"/>
     <use style="stroke:#000000;" x="71.731583" xlink:href="#m50ea489994" y="136.69177"/>
     <use style="stroke:#000000;" x="71.732674" xlink:href="#m50ea489994" y="136.69295"/>
     <use style="stroke:#000000;" x="71.733795" xlink:href="#m50ea489994" y="136.694131"/>
     <use style="stroke:#000000;" x="71.735946" xlink:href="#m50ea489994" y="136.696384"/>
     <use style="stroke:#000000;" x="71.740612" xlink:href="#m50ea489994" y="136.700891"/>
     <use style="stroke:#000000;" x="71.745248" xlink:href="#m50ea489994" y="136.705076"/>
     <use style="stroke:#000000;" x="71.749884" xlink:href="#m50ea489994" y="136.708939"/>
     <use style="stroke:#000000;" x="71.75452" xlink:href="#m50ea489994" y="136.712372"/>
     <use style="stroke:#000000;" x="71.759277" xlink:href="#m50ea489994" y="136.715592"/>
     <use style="stroke:#000000;" x="71.763822" xlink:href="#m50ea489994" y="136.718274"/>
     <use style="stroke:#000000;" x="71.769277" xlink:href="#m50ea489994" y="136.721064"/>
     <use style="stroke:#000000;" x="71.774428" xlink:href="#m50ea489994" y="136.723425"/>
     <use style="stroke:#000000;" x="71.779882" xlink:href="#m50ea489994" y="136.725249"/>
     <use style="stroke:#000000;" x="71.785336" xlink:href="#m50ea489994" y="136.726644"/>
     <use style="stroke:#000000;" x="71.79079" xlink:href="#m50ea489994" y="136.72761"/>
     <use style="stroke:#000000;" x="71.79988" xlink:href="#m50ea489994" y="136.728253"/>
     <use style="stroke:#000000;" x="71.816242" xlink:href="#m50ea489994" y="136.726"/>
     <use style="stroke:#000000;" x="71.832605" xlink:href="#m50ea489994" y="136.719776"/>
     <use style="stroke:#000000;" x="71.848967" xlink:href="#m50ea489994" y="136.709475"/>
     <use style="stroke:#000000;" x="71.865026" xlink:href="#m50ea489994" y="136.695311"/>
     <use style="stroke:#000000;" x="71.881388" xlink:href="#m50ea489994" y="136.677177"/>
     <use style="stroke:#000000;" x="71.897751" xlink:href="#m50ea489994" y="136.655287"/>
     <use style="stroke:#000000;" x="71.914113" xlink:href="#m50ea489994" y="136.629641"/>
     <use style="stroke:#000000;" x="71.930172" xlink:href="#m50ea489994" y="136.600347"/>
     <use style="stroke:#000000;" x="71.946534" xlink:href="#m50ea489994" y="136.567405"/>
     <use style="stroke:#000000;" x="71.971078" xlink:href="#m50ea489994" y="136.511178"/>
     <use style="stroke:#000000;" x="71.995621" xlink:href="#m50ea489994" y="136.447225"/>
     <use style="stroke:#000000;" x="72.019862" xlink:href="#m50ea489994" y="136.375546"/>
     <use style="stroke:#000000;" x="72.045617" xlink:href="#m50ea489994" y="136.296356"/>
     <use style="stroke:#000000;" x="72.069857" xlink:href="#m50ea489994" y="136.20987"/>
     <use style="stroke:#000000;" x="72.094098" xlink:href="#m50ea489994" y="136.116301"/>
     <use style="stroke:#000000;" x="72.130458" xlink:href="#m50ea489994" y="135.958135"/>
     <use style="stroke:#000000;" x="72.169849" xlink:href="#m50ea489994" y="135.784196"/>
     <use style="stroke:#000000;" x="72.20621" xlink:href="#m50ea489994" y="135.594912"/>
     <use style="stroke:#000000;" x="72.2456" xlink:href="#m50ea489994" y="135.390928"/>
     <use style="stroke:#000000;" x="72.281961" xlink:href="#m50ea489994" y="135.17278"/>
     <use style="stroke:#000000;" x="72.318321" xlink:href="#m50ea489994" y="134.941111"/>
     <use style="stroke:#000000;" x="72.357712" xlink:href="#m50ea489994" y="134.696459"/>
     <use style="stroke:#000000;" x="72.394073" xlink:href="#m50ea489994" y="134.43936"/>
     <use style="stroke:#000000;" x="72.433463" xlink:href="#m50ea489994" y="134.170242"/>
     <use style="stroke:#000000;" x="72.469824" xlink:href="#m50ea489994" y="133.889858"/>
     <use style="stroke:#000000;" x="72.509215" xlink:href="#m50ea489994" y="133.598421"/>
     <use style="stroke:#000000;" x="72.545575" xlink:href="#m50ea489994" y="133.296576"/>
     <use style="stroke:#000000;" x="72.584966" xlink:href="#m50ea489994" y="132.984751"/>
     <use style="stroke:#000000;" x="72.621326" xlink:href="#m50ea489994" y="132.663484"/>
     <use style="stroke:#000000;" x="72.657687" xlink:href="#m50ea489994" y="132.332989"/>
     <use style="stroke:#000000;" x="72.697078" xlink:href="#m50ea489994" y="131.99391"/>
     <use style="stroke:#000000;" x="72.733438" xlink:href="#m50ea489994" y="131.646568"/>
     <use style="stroke:#000000;" x="72.772829" xlink:href="#m50ea489994" y="131.291393"/>
     <use style="stroke:#000000;" x="72.809189" xlink:href="#m50ea489994" y="130.928814"/>
     <use style="stroke:#000000;" x="72.84858" xlink:href="#m50ea489994" y="130.559153"/>
     <use style="stroke:#000000;" x="72.884941" xlink:href="#m50ea489994" y="130.182624"/>
     <use style="stroke:#000000;" x="72.924331" xlink:href="#m50ea489994" y="129.799872"/>
     <use style="stroke:#000000;" x="72.960692" xlink:href="#m50ea489994" y="129.411111"/>
     <use style="stroke:#000000;" x="72.997052" xlink:href="#m50ea489994" y="129.016556"/>
     <use style="stroke:#000000;" x="73.036443" xlink:href="#m50ea489994" y="128.616742"/>
     <use style="stroke:#000000;" x="73.072804" xlink:href="#m50ea489994" y="128.211779"/>
     <use style="stroke:#000000;" x="73.112194" xlink:href="#m50ea489994" y="127.802201"/>
     <use style="stroke:#000000;" x="73.148555" xlink:href="#m50ea489994" y="127.388009"/>
     <use style="stroke:#000000;" x="73.187945" xlink:href="#m50ea489994" y="126.969739"/>
     <use style="stroke:#000000;" x="73.224306" xlink:href="#m50ea489994" y="126.547499"/>
     <use style="stroke:#000000;" x="73.263697" xlink:href="#m50ea489994" y="126.121611"/>
     <use style="stroke:#000000;" x="73.300057" xlink:href="#m50ea489994" y="125.692289"/>
     <use style="stroke:#000000;" x="73.339448" xlink:href="#m50ea489994" y="125.259963"/>
     <use style="stroke:#000000;" x="73.375809" xlink:href="#m50ea489994" y="124.824632"/>
     <use style="stroke:#000000;" x="73.412169" xlink:href="#m50ea489994" y="124.386619"/>
     <use style="stroke:#000000;" x="73.45156" xlink:href="#m50ea489994" y="123.946137"/>
     <use style="stroke:#000000;" x="73.48792" xlink:href="#m50ea489994" y="123.503402"/>
     <use style="stroke:#000000;" x="73.545491" xlink:href="#m50ea489994" y="122.832862"/>
     <use style="stroke:#000000;" x="73.603062" xlink:href="#m50ea489994" y="122.158137"/>
     <use style="stroke:#000000;" x="73.660633" xlink:href="#m50ea489994" y="121.479978"/>
     <use style="stroke:#000000;" x="73.715174" xlink:href="#m50ea489994" y="120.799673"/>
     <use style="stroke:#000000;" x="73.772745" xlink:href="#m50ea489994" y="120.117222"/>
     <use style="stroke:#000000;" x="73.830316" xlink:href="#m50ea489994" y="119.432624"/>
     <use style="stroke:#000000;" x="73.887887" xlink:href="#m50ea489994" y="118.746954"/>
     <use style="stroke:#000000;" x="73.942428" xlink:href="#m50ea489994" y="118.061284"/>
     <use style="stroke:#000000;" x="73.999999" xlink:href="#m50ea489994" y="117.375614"/>
     <use style="stroke:#000000;" x="74.05757" xlink:href="#m50ea489994" y="116.68887"/>
     <use style="stroke:#000000;" x="74.11514" xlink:href="#m50ea489994" y="116.004273"/>
     <use style="stroke:#000000;" x="74.169681" xlink:href="#m50ea489994" y="115.319676"/>
     <use style="stroke:#000000;" x="74.227252" xlink:href="#m50ea489994" y="114.637225"/>
     <use style="stroke:#000000;" x="74.284823" xlink:href="#m50ea489994" y="113.955847"/>
     <use style="stroke:#000000;" x="74.342394" xlink:href="#m50ea489994" y="113.276615"/>
     <use style="stroke:#000000;" x="74.396935" xlink:href="#m50ea489994" y="112.600602"/>
     <use style="stroke:#000000;" x="74.454506" xlink:href="#m50ea489994" y="111.926735"/>
     <use style="stroke:#000000;" x="74.512077" xlink:href="#m50ea489994" y="111.255014"/>
     <use style="stroke:#000000;" x="74.569648" xlink:href="#m50ea489994" y="110.587586"/>
     <use style="stroke:#000000;" x="74.624189" xlink:href="#m50ea489994" y="109.923376"/>
     <use style="stroke:#000000;" x="74.68176" xlink:href="#m50ea489994" y="109.262386"/>
     <use style="stroke:#000000;" x="74.739331" xlink:href="#m50ea489994" y="108.604615"/>
     <use style="stroke:#000000;" x="74.784781" xlink:href="#m50ea489994" y="107.951135"/>
     <use style="stroke:#000000;" x="74.845382" xlink:href="#m50ea489994" y="107.303022"/>
     <use style="stroke:#000000;" x="74.905983" xlink:href="#m50ea489994" y="106.658127"/>
     <use style="stroke:#000000;" x="74.966584" xlink:href="#m50ea489994" y="106.017524"/>
     <use style="stroke:#000000;" x="75.027185" xlink:href="#m50ea489994" y="105.382286"/>
     <use style="stroke:#000000;" x="75.087786" xlink:href="#m50ea489994" y="104.750268"/>
     <use style="stroke:#000000;" x="75.148387" xlink:href="#m50ea489994" y="104.124688"/>
     <use style="stroke:#000000;" x="75.178688" xlink:href="#m50ea489994" y="103.5034"/>
     <use style="stroke:#000000;" x="75.239289" xlink:href="#m50ea489994" y="102.887477"/>
     <use style="stroke:#000000;" x="75.29989" xlink:href="#m50ea489994" y="102.275846"/>
     <use style="stroke:#000000;" x="75.360491" xlink:href="#m50ea489994" y="101.670654"/>
     <use style="stroke:#000000;" x="75.421092" xlink:href="#m50ea489994" y="101.069753"/>
     <use style="stroke:#000000;" x="75.481693" xlink:href="#m50ea489994" y="100.475291"/>
     <use style="stroke:#000000;" x="75.542294" xlink:href="#m50ea489994" y="99.885121"/>
     <use style="stroke:#000000;" x="75.602895" xlink:href="#m50ea489994" y="99.300316"/>
     <use style="stroke:#000000;" x="75.633195" xlink:href="#m50ea489994" y="98.72195"/>
     <use style="stroke:#000000;" x="75.693796" xlink:href="#m50ea489994" y="98.148948"/>
     <use style="stroke:#000000;" x="75.754397" xlink:href="#m50ea489994" y="97.581312"/>
     <use style="stroke:#000000;" x="75.845298" xlink:href="#m50ea489994" y="96.737906"/>
     <use style="stroke:#000000;" x="75.9362" xlink:href="#m50ea489994" y="95.907376"/>
     <use style="stroke:#000000;" x="76.027101" xlink:href="#m50ea489994" y="95.089722"/>
     <use style="stroke:#000000;" x="76.118003" xlink:href="#m50ea489994" y="94.284945"/>
     <use style="stroke:#000000;" x="76.178604" xlink:href="#m50ea489994" y="93.493044"/>
     <use style="stroke:#000000;" x="76.269505" xlink:href="#m50ea489994" y="92.714019"/>
     <use style="stroke:#000000;" x="76.360407" xlink:href="#m50ea489994" y="91.948944"/>
     <use style="stroke:#000000;" x="76.451308" xlink:href="#m50ea489994" y="91.195673"/>
     <use style="stroke:#000000;" x="76.54221" xlink:href="#m50ea489994" y="90.456351"/>
     <use style="stroke:#000000;" x="76.602811" xlink:href="#m50ea489994" y="89.729905"/>
     <use style="stroke:#000000;" x="76.693712" xlink:href="#m50ea489994" y="89.015263"/>
     <use style="stroke:#000000;" x="76.784614" xlink:href="#m50ea489994" y="88.31457"/>
     <use style="stroke:#000000;" x="76.875515" xlink:href="#m50ea489994" y="87.625681"/>
     <use style="stroke:#000000;" x="76.966417" xlink:href="#m50ea489994" y="86.950741"/>
     <use style="stroke:#000000;" x="77.057318" xlink:href="#m50ea489994" y="86.287605"/>
     <use style="stroke:#000000;" x="77.117919" xlink:href="#m50ea489994" y="85.636272"/>
     <use style="stroke:#000000;" x="77.208821" xlink:href="#m50ea489994" y="84.998888"/>
     <use style="stroke:#000000;" x="77.299722" xlink:href="#m50ea489994" y="84.372235"/>
     <use style="stroke:#000000;" x="77.390623" xlink:href="#m50ea489994" y="83.758458"/>
     <use style="stroke:#000000;" x="77.481525" xlink:href="#m50ea489994" y="83.156485"/>
     <use style="stroke:#000000;" x="77.542126" xlink:href="#m50ea489994" y="82.567388"/>
     <use style="stroke:#000000;" x="77.633027" xlink:href="#m50ea489994" y="81.989021"/>
     <use style="stroke:#000000;" x="77.723929" xlink:href="#m50ea489994" y="81.422458"/>
     <use style="stroke:#000000;" x="77.81483" xlink:href="#m50ea489994" y="80.868771"/>
     <use style="stroke:#000000;" x="77.905732" xlink:href="#m50ea489994" y="80.324742"/>
     <use style="stroke:#000000;" x="77.996633" xlink:href="#m50ea489994" y="79.793589"/>
     <use style="stroke:#000000;" x="78.057234" xlink:href="#m50ea489994" y="79.272093"/>
     <use style="stroke:#000000;" x="78.148136" xlink:href="#m50ea489994" y="78.763474"/>
     <use style="stroke:#000000;" x="78.239037" xlink:href="#m50ea489994" y="78.264512"/>
     <use style="stroke:#000000;" x="78.329939" xlink:href="#m50ea489994" y="77.77628"/>
     <use style="stroke:#000000;" x="78.42084" xlink:href="#m50ea489994" y="77.299852"/>
     <use style="stroke:#000000;" x="78.511742" xlink:href="#m50ea489994" y="76.833081"/>
     <use style="stroke:#000000;" x="78.572343" xlink:href="#m50ea489994" y="76.377041"/>
     <use style="stroke:#000000;" x="78.663244" xlink:href="#m50ea489994" y="75.930658"/>
     <use style="stroke:#000000;" x="78.754146" xlink:href="#m50ea489994" y="75.495005"/>
     <use style="stroke:#000000;" x="78.845047" xlink:href="#m50ea489994" y="75.06901"/>
     <use style="stroke:#000000;" x="78.935948" xlink:href="#m50ea489994" y="74.653745"/>
     <use style="stroke:#000000;" x="78.996549" xlink:href="#m50ea489994" y="74.247064"/>
     <use style="stroke:#000000;" x="79.087451" xlink:href="#m50ea489994" y="73.851113"/>
     <use style="stroke:#000000;" x="79.178352" xlink:href="#m50ea489994" y="73.463747"/>
     <use style="stroke:#000000;" x="79.299554" xlink:href="#m50ea489994" y="72.896111"/>
     <use style="stroke:#000000;" x="79.451057" xlink:href="#m50ea489994" y="72.34779"/>
     <use style="stroke:#000000;" x="79.572259" xlink:href="#m50ea489994" y="71.820929"/>
     <use style="stroke:#000000;" x="79.693461" xlink:href="#m50ea489994" y="71.314456"/>
     <use style="stroke:#000000;" x="79.814663" xlink:href="#m50ea489994" y="70.82837"/>
     <use style="stroke:#000000;" x="79.966165" xlink:href="#m50ea489994" y="70.360526"/>
     <use style="stroke:#000000;" x="80.087367" xlink:href="#m50ea489994" y="69.911997"/>
     <use style="stroke:#000000;" x="80.208569" xlink:href="#m50ea489994" y="69.482783"/>
     <use style="stroke:#000000;" x="80.360071" xlink:href="#m50ea489994" y="69.070737"/>
     <use style="stroke:#000000;" x="80.481273" xlink:href="#m50ea489994" y="68.676932"/>
     <use style="stroke:#000000;" x="80.602475" xlink:href="#m50ea489994" y="68.300296"/>
     <use style="stroke:#000000;" x="80.723677" xlink:href="#m50ea489994" y="67.940829"/>
     <use style="stroke:#000000;" x="80.87518" xlink:href="#m50ea489994" y="67.597458"/>
     <use style="stroke:#000000;" x="80.996382" xlink:href="#m50ea489994" y="67.271255"/>
     <use style="stroke:#000000;" x="81.117584" xlink:href="#m50ea489994" y="66.960074"/>
     <use style="stroke:#000000;" x="81.269086" xlink:href="#m50ea489994" y="66.664989"/>
     <use style="stroke:#000000;" x="81.390288" xlink:href="#m50ea489994" y="66.384927"/>
     <use style="stroke:#000000;" x="81.51149" xlink:href="#m50ea489994" y="66.119887"/>
     <use style="stroke:#000000;" x="81.632692" xlink:href="#m50ea489994" y="65.868796"/>
     <use style="stroke:#000000;" x="81.784195" xlink:href="#m50ea489994" y="65.631655"/>
     <use style="stroke:#000000;" x="81.965997" xlink:href="#m50ea489994" y="65.300087"/>
     <use style="stroke:#000000;" x="82.178101" xlink:href="#m50ea489994" y="64.999637"/>
     <use style="stroke:#000000;" x="82.359904" xlink:href="#m50ea489994" y="64.728158"/>
     <use style="stroke:#000000;" x="82.541707" xlink:href="#m50ea489994" y="64.484579"/>
     <use style="stroke:#000000;" x="82.75381" xlink:href="#m50ea489994" y="64.269972"/>
     <use style="stroke:#000000;" x="82.935613" xlink:href="#m50ea489994" y="64.080045"/>
     <use style="stroke:#000000;" x="83.147717" xlink:href="#m50ea489994" y="63.916943"/>
     <use style="stroke:#000000;" x="83.32952" xlink:href="#m50ea489994" y="63.778521"/>
     <use style="stroke:#000000;" x="83.541623" xlink:href="#m50ea489994" y="63.663706"/>
     <use style="stroke:#000000;" x="83.723426" xlink:href="#m50ea489994" y="63.572498"/>
     <use style="stroke:#000000;" x="83.935529" xlink:href="#m50ea489994" y="63.502751"/>
     <use style="stroke:#000000;" x="84.117332" xlink:href="#m50ea489994" y="63.454464"/>
     <use style="stroke:#000000;" x="84.329436" xlink:href="#m50ea489994" y="63.426565"/>
     <use style="stroke:#000000;" x="84.511239" xlink:href="#m50ea489994" y="63.419054"/>
     <use style="stroke:#000000;" x="84.723342" xlink:href="#m50ea489994" y="63.429785"/>
     <use style="stroke:#000000;" x="84.905145" xlink:href="#m50ea489994" y="63.45983"/>
     <use style="stroke:#000000;" x="85.117248" xlink:href="#m50ea489994" y="63.508116"/>
     <use style="stroke:#000000;" x="85.299051" xlink:href="#m50ea489994" y="63.572498"/>
     <use style="stroke:#000000;" x="85.480854" xlink:href="#m50ea489994" y="63.654049"/>
     <use style="stroke:#000000;" x="85.692958" xlink:href="#m50ea489994" y="63.751695"/>
     <use style="stroke:#000000;" x="85.874761" xlink:href="#m50ea489994" y="63.864364"/>
     <use style="stroke:#000000;" x="86.086864" xlink:href="#m50ea489994" y="63.992056"/>
     <use style="stroke:#000000;" x="86.268667" xlink:href="#m50ea489994" y="64.133696"/>
     <use style="stroke:#000000;" x="86.48077" xlink:href="#m50ea489994" y="64.288214"/>
     <use style="stroke:#000000;" x="86.662573" xlink:href="#m50ea489994" y="64.45668"/>
     <use style="stroke:#000000;" x="86.874677" xlink:href="#m50ea489994" y="64.638023"/>
     <use style="stroke:#000000;" x="87.05648" xlink:href="#m50ea489994" y="64.832243"/>
     <use style="stroke:#000000;" x="87.268583" xlink:href="#m50ea489994" y="65.037193"/>
     <use style="stroke:#000000;" x="87.450386" xlink:href="#m50ea489994" y="65.252873"/>
     <use style="stroke:#000000;" x="87.66249" xlink:href="#m50ea489994" y="65.480357"/>
     <use style="stroke:#000000;" x="87.844293" xlink:href="#m50ea489994" y="65.718571"/>
     <use style="stroke:#000000;" x="88.026095" xlink:href="#m50ea489994" y="65.965369"/>
     <use style="stroke:#000000;" x="88.238199" xlink:href="#m50ea489994" y="66.222898"/>
     <use style="stroke:#000000;" x="88.420002" xlink:href="#m50ea489994" y="66.490084"/>
     <use style="stroke:#000000;" x="88.632105" xlink:href="#m50ea489994" y="66.764781"/>
     <use style="stroke:#000000;" x="88.813908" xlink:href="#m50ea489994" y="67.049136"/>
     <use style="stroke:#000000;" x="89.026012" xlink:href="#m50ea489994" y="67.341002"/>
     <use style="stroke:#000000;" x="89.207815" xlink:href="#m50ea489994" y="67.641452"/>
     <use style="stroke:#000000;" x="89.419918" xlink:href="#m50ea489994" y="67.949414"/>
     <use style="stroke:#000000;" x="89.601721" xlink:href="#m50ea489994" y="68.263813"/>
     <use style="stroke:#000000;" x="89.813824" xlink:href="#m50ea489994" y="68.585724"/>
     <use style="stroke:#000000;" x="89.995627" xlink:href="#m50ea489994" y="68.914073"/>
     <use style="stroke:#000000;" x="90.298632" xlink:href="#m50ea489994" y="69.424839"/>
     <use style="stroke:#000000;" x="90.601637" xlink:href="#m50ea489994" y="69.949553"/>
     <use style="stroke:#000000;" x="90.904642" xlink:href="#m50ea489994" y="70.487145"/>
     <use style="stroke:#000000;" x="91.177346" xlink:href="#m50ea489994" y="71.036539"/>
     <use style="stroke:#000000;" x="91.480351" xlink:href="#m50ea489994" y="71.597737"/>
     <use style="stroke:#000000;" x="91.783356" xlink:href="#m50ea489994" y="72.168592"/>
     <use style="stroke:#000000;" x="92.086361" xlink:href="#m50ea489994" y="72.750178"/>
     <use style="stroke:#000000;" x="92.389366" xlink:href="#m50ea489994" y="73.340348"/>
     <use style="stroke:#000000;" x="92.66207" xlink:href="#m50ea489994" y="73.938029"/>
     <use style="stroke:#000000;" x="92.965075" xlink:href="#m50ea489994" y="74.545368"/>
     <use style="stroke:#000000;" x="93.26808" xlink:href="#m50ea489994" y="75.159145"/>
     <use style="stroke:#000000;" x="93.571085" xlink:href="#m50ea489994" y="75.77936"/>
     <use style="stroke:#000000;" x="93.87409" xlink:href="#m50ea489994" y="76.406013"/>
     <use style="stroke:#000000;" x="94.177095" xlink:href="#m50ea489994" y="77.038031"/>
     <use style="stroke:#000000;" x="94.449799" xlink:href="#m50ea489994" y="77.675415"/>
     <use style="stroke:#000000;" x="94.752804" xlink:href="#m50ea489994" y="78.318164"/>
     <use style="stroke:#000000;" x="95.055809" xlink:href="#m50ea489994" y="78.965205"/>
     <use style="stroke:#000000;" x="95.358814" xlink:href="#m50ea489994" y="79.615465"/>
     <use style="stroke:#000000;" x="95.661819" xlink:href="#m50ea489994" y="80.270017"/>
     <use style="stroke:#000000;" x="96.086026" xlink:href="#m50ea489994" y="81.258283"/>
     <use style="stroke:#000000;" x="96.540533" xlink:href="#m50ea489994" y="82.251915"/>
     <use style="stroke:#000000;" x="96.995041" xlink:href="#m50ea489994" y="83.250912"/>
     <use style="stroke:#000000;" x="97.449548" xlink:href="#m50ea489994" y="84.254201"/>
     <use style="stroke:#000000;" x="97.873755" xlink:href="#m50ea489994" y="85.260709"/>
     <use style="stroke:#000000;" x="98.328262" xlink:href="#m50ea489994" y="86.270436"/>
     <use style="stroke:#000000;" x="98.782769" xlink:href="#m50ea489994" y="87.280163"/>
     <use style="stroke:#000000;" x="99.206976" xlink:href="#m50ea489994" y="88.292037"/>
     <use style="stroke:#000000;" x="99.661484" xlink:href="#m50ea489994" y="89.30391"/>
     <use style="stroke:#000000;" x="100.115991" xlink:href="#m50ea489994" y="90.31471"/>
     <use style="stroke:#000000;" x="100.570498" xlink:href="#m50ea489994" y="91.32551"/>
     <use style="stroke:#000000;" x="100.994705" xlink:href="#m50ea489994" y="92.334165"/>
     <use style="stroke:#000000;" x="101.449213" xlink:href="#m50ea489994" y="93.341746"/>
     <use style="stroke:#000000;" x="101.90372" xlink:href="#m50ea489994" y="94.346108"/>
     <use style="stroke:#000000;" x="102.327927" xlink:href="#m50ea489994" y="95.348324"/>
     <use style="stroke:#000000;" x="102.933937" xlink:href="#m50ea489994" y="96.348393"/>
     <use style="stroke:#000000;" x="103.236942" xlink:href="#m50ea489994" y="97.344171"/>
     <use style="stroke:#000000;" x="103.539946" xlink:href="#m50ea489994" y="98.335657"/>
     <use style="stroke:#000000;" x="104.145956" xlink:href="#m50ea489994" y="99.323923"/>
     <use style="stroke:#000000;" x="104.448961" xlink:href="#m50ea489994" y="100.307898"/>
     <use style="stroke:#000000;" x="105.054971" xlink:href="#m50ea489994" y="101.28758"/>
     <use style="stroke:#000000;" x="105.357976" xlink:href="#m50ea489994" y="102.26297"/>
     <use style="stroke:#000000;" x="105.963986" xlink:href="#m50ea489994" y="103.232995"/>
     <use style="stroke:#000000;" x="106.266991" xlink:href="#m50ea489994" y="104.197654"/>
     <use style="stroke:#000000;" x="106.873" xlink:href="#m50ea489994" y="105.158022"/>
     <use style="stroke:#000000;" x="107.176005" xlink:href="#m50ea489994" y="106.111951"/>
     <use style="stroke:#000000;" x="107.782015" xlink:href="#m50ea489994" y="107.061588"/>
     <use style="stroke:#000000;" x="108.08502" xlink:href="#m50ea489994" y="108.004787"/>
     <use style="stroke:#000000;" x="108.69103" xlink:href="#m50ea489994" y="108.943694"/>
     <use style="stroke:#000000;" x="108.994035" xlink:href="#m50ea489994" y="109.87509"/>
     <use style="stroke:#000000;" x="109.600044" xlink:href="#m50ea489994" y="110.802193"/>
     <use style="stroke:#000000;" x="109.903049" xlink:href="#m50ea489994" y="111.722858"/>
     <use style="stroke:#000000;" x="110.509059" xlink:href="#m50ea489994" y="112.637085"/>
     <use style="stroke:#000000;" x="110.812064" xlink:href="#m50ea489994" y="113.545947"/>
     <use style="stroke:#000000;" x="111.418074" xlink:href="#m50ea489994" y="114.448371"/>
     <use style="stroke:#000000;" x="112.024084" xlink:href="#m50ea489994" y="115.791812"/>
     <use style="stroke:#000000;" x="112.630093" xlink:href="#m50ea489994" y="117.121304"/>
     <use style="stroke:#000000;" x="113.236103" xlink:href="#m50ea489994" y="118.436847"/>
     <use style="stroke:#000000;" x="113.842113" xlink:href="#m50ea489994" y="119.73844"/>
     <use style="stroke:#000000;" x="114.751128" xlink:href="#m50ea489994" y="121.026083"/>
     <use style="stroke:#000000;" x="115.357138" xlink:href="#m50ea489994" y="122.299777"/>
     <use style="stroke:#000000;" x="115.963147" xlink:href="#m50ea489994" y="123.559415"/>
     <use style="stroke:#000000;" x="116.569157" xlink:href="#m50ea489994" y="124.804781"/>
     <use style="stroke:#000000;" x="117.175167" xlink:href="#m50ea489994" y="126.036197"/>
     <use style="stroke:#000000;" x="118.084182" xlink:href="#m50ea489994" y="127.253557"/>
     <use style="stroke:#000000;" x="118.690191" xlink:href="#m50ea489994" y="128.457075"/>
     <use style="stroke:#000000;" x="119.296201" xlink:href="#m50ea489994" y="129.646643"/>
     <use style="stroke:#000000;" x="119.902211" xlink:href="#m50ea489994" y="130.822583"/>
     <use style="stroke:#000000;" x="120.811226" xlink:href="#m50ea489994" y="131.984789"/>
     <use style="stroke:#000000;" x="121.417236" xlink:href="#m50ea489994" y="133.133474"/>
     <use style="stroke:#000000;" x="122.023245" xlink:href="#m50ea489994" y="134.268639"/>
     <use style="stroke:#000000;" x="122.629255" xlink:href="#m50ea489994" y="135.390392"/>
     <use style="stroke:#000000;" x="123.235265" xlink:href="#m50ea489994" y="136.498945"/>
     <use style="stroke:#000000;" x="124.14428" xlink:href="#m50ea489994" y="137.594408"/>
     <use style="stroke:#000000;" x="124.682113" xlink:href="#m50ea489994" y="138.676887"/>
     <use style="stroke:#000000;" x="125.35236" xlink:href="#m50ea489994" y="139.746383"/>
     <use style="stroke:#000000;" x="126.02291" xlink:href="#m50ea489994" y="140.803109"/>
     <use style="stroke:#000000;" x="126.693157" xlink:href="#m50ea489994" y="141.847281"/>
     <use style="stroke:#000000;" x="127.363404" xlink:href="#m50ea489994" y="142.87879"/>
     <use style="stroke:#000000;" x="128.033954" xlink:href="#m50ea489994" y="143.898068"/>
     <use style="stroke:#000000;" x="129.043869" xlink:href="#m50ea489994" y="145.410512"/>
     <use style="stroke:#000000;" x="130.053784" xlink:href="#m50ea489994" y="146.895595"/>
     <use style="stroke:#000000;" x="131.0637" xlink:href="#m50ea489994" y="148.353851"/>
     <use style="stroke:#000000;" x="132.073615" xlink:href="#m50ea489994" y="149.785603"/>
     <use style="stroke:#000000;" x="133.08353" xlink:href="#m50ea489994" y="151.191388"/>
     <use style="stroke:#000000;" x="134.093749" xlink:href="#m50ea489994" y="152.571528"/>
     <use style="stroke:#000000;" x="135.103664" xlink:href="#m50ea489994" y="153.926665"/>
     <use style="stroke:#000000;" x="136.113579" xlink:href="#m50ea489994" y="155.25723"/>
     <use style="stroke:#000000;" x="137.123495" xlink:href="#m50ea489994" y="156.563545"/>
     <use style="stroke:#000000;" x="138.13341" xlink:href="#m50ea489994" y="157.846038"/>
     <use style="stroke:#000000;" x="139.143325" xlink:href="#m50ea489994" y="159.105246"/>
     <use style="stroke:#000000;" x="140.153241" xlink:href="#m50ea489994" y="160.341598"/>
     <use style="stroke:#000000;" x="141.163156" xlink:href="#m50ea489994" y="161.555417"/>
     <use style="stroke:#000000;" x="142.173374" xlink:href="#m50ea489994" y="162.747131"/>
     <use style="stroke:#000000;" x="143.18329" xlink:href="#m50ea489994" y="163.91717"/>
     <use style="stroke:#000000;" x="144.193205" xlink:href="#m50ea489994" y="165.065963"/>
     <use style="stroke:#000000;" x="145.20312" xlink:href="#m50ea489994" y="166.193939"/>
     <use style="stroke:#000000;" x="146.213036" xlink:href="#m50ea489994" y="167.301419"/>
     <use style="stroke:#000000;" x="147.222951" xlink:href="#m50ea489994" y="168.388835"/>
     <use style="stroke:#000000;" x="148.232866" xlink:href="#m50ea489994" y="169.456506"/>
     <use style="stroke:#000000;" x="149.243085" xlink:href="#m50ea489994" y="170.504862"/>
     <use style="stroke:#000000;" x="150.253" xlink:href="#m50ea489994" y="171.534119"/>
     <use style="stroke:#000000;" x="151.776509" xlink:href="#m50ea489994" y="173.051714"/>
     <use style="stroke:#000000;" x="153.300017" xlink:href="#m50ea489994" y="174.528212"/>
     <use style="stroke:#000000;" x="154.823223" xlink:href="#m50ea489994" y="175.964578"/>
     <use style="stroke:#000000;" x="156.346732" xlink:href="#m50ea489994" y="177.361994"/>
     <use style="stroke:#000000;" x="157.87024" xlink:href="#m50ea489994" y="178.721638"/>
     <use style="stroke:#000000;" x="159.393749" xlink:href="#m50ea489994" y="180.044585"/>
     <use style="stroke:#000000;" x="160.917257" xlink:href="#m50ea489994" y="181.331799"/>
     <use style="stroke:#000000;" x="162.440766" xlink:href="#m50ea489994" y="182.584354"/>
     <use style="stroke:#000000;" x="163.964275" xlink:href="#m50ea489994" y="183.803109"/>
     <use style="stroke:#000000;" x="165.487783" xlink:href="#m50ea489994" y="184.989136"/>
     <use style="stroke:#000000;" x="167.011292" xlink:href="#m50ea489994" y="186.143294"/>
     <use style="stroke:#000000;" x="168.534801" xlink:href="#m50ea489994" y="187.266548"/>
     <use style="stroke:#000000;" x="170.058309" xlink:href="#m50ea489994" y="188.35965"/>
     <use style="stroke:#000000;" x="171.581818" xlink:href="#m50ea489994" y="189.423566"/>
     <use style="stroke:#000000;" x="173.105327" xlink:href="#m50ea489994" y="190.459046"/>
     <use style="stroke:#000000;" x="174.628835" xlink:href="#m50ea489994" y="191.466949"/>
     <use style="stroke:#000000;" x="176.152344" xlink:href="#m50ea489994" y="192.447919"/>
     <use style="stroke:#000000;" x="177.675852" xlink:href="#m50ea489994" y="193.402814"/>
     <use style="stroke:#000000;" x="179.199058" xlink:href="#m50ea489994" y="194.332278"/>
     <use style="stroke:#000000;" x="180.722567" xlink:href="#m50ea489994" y="195.237062"/>
     <use style="stroke:#000000;" x="182.246075" xlink:href="#m50ea489994" y="196.117918"/>
     <use style="stroke:#000000;" x="183.769584" xlink:href="#m50ea489994" y="196.975488"/>
     <use style="stroke:#000000;" x="185.293093" xlink:href="#m50ea489994" y="197.810311"/>
     <use style="stroke:#000000;" x="186.816601" xlink:href="#m50ea489994" y="198.623136"/>
     <use style="stroke:#000000;" x="188.34011" xlink:href="#m50ea489994" y="199.4145"/>
     <use style="stroke:#000000;" x="189.863619" xlink:href="#m50ea489994" y="200.185047"/>
     <use style="stroke:#000000;" x="191.387127" xlink:href="#m50ea489994" y="200.935314"/>
     <use style="stroke:#000000;" x="192.910636" xlink:href="#m50ea489994" y="201.665838"/>
     <use style="stroke:#000000;" x="194.434145" xlink:href="#m50ea489994" y="202.377153"/>
     <use style="stroke:#000000;" x="195.957653" xlink:href="#m50ea489994" y="203.069906"/>
     <use style="stroke:#000000;" x="197.481162" xlink:href="#m50ea489994" y="203.744524"/>
     <use style="stroke:#000000;" x="199.00467" xlink:href="#m50ea489994" y="204.401436"/>
     <use style="stroke:#000000;" x="200.528179" xlink:href="#m50ea489994" y="205.041288"/>
     <use style="stroke:#000000;" x="202.051688" xlink:href="#m50ea489994" y="205.6644"/>
     <use style="stroke:#000000;" x="203.575196" xlink:href="#m50ea489994" y="206.27131"/>
     <use style="stroke:#000000;" x="205.098402" xlink:href="#m50ea489994" y="206.862445"/>
     <use style="stroke:#000000;" x="206.621911" xlink:href="#m50ea489994" y="207.438237"/>
     <use style="stroke:#000000;" x="208.145419" xlink:href="#m50ea489994" y="207.999113"/>
     <use style="stroke:#000000;" x="209.668928" xlink:href="#m50ea489994" y="208.545396"/>
     <use style="stroke:#000000;" x="211.192437" xlink:href="#m50ea489994" y="209.077514"/>
     <use style="stroke:#000000;" x="212.715945" xlink:href="#m50ea489994" y="209.595898"/>
     <use style="stroke:#000000;" x="214.239454" xlink:href="#m50ea489994" y="210.100976"/>
     <use style="stroke:#000000;" x="215.762963" xlink:href="#m50ea489994" y="210.592963"/>
     <use style="stroke:#000000;" x="217.286471" xlink:href="#m50ea489994" y="211.072289"/>
     <use style="stroke:#000000;" x="218.80998" xlink:href="#m50ea489994" y="211.539382"/>
     <use style="stroke:#000000;" x="220.333488" xlink:href="#m50ea489994" y="211.994349"/>
     <use style="stroke:#000000;" x="221.856997" xlink:href="#m50ea489994" y="212.437728"/>
     <use style="stroke:#000000;" x="223.380506" xlink:href="#m50ea489994" y="212.869732"/>
     <use style="stroke:#000000;" x="224.904014" xlink:href="#m50ea489994" y="213.290684"/>
     <use style="stroke:#000000;" x="226.427523" xlink:href="#m50ea489994" y="213.700906"/>
     <use style="stroke:#000000;" x="227.951032" xlink:href="#m50ea489994" y="214.100612"/>
     <use style="stroke:#000000;" x="229.474237" xlink:href="#m50ea489994" y="214.490124"/>
     <use style="stroke:#000000;" x="230.997746" xlink:href="#m50ea489994" y="214.869764"/>
     <use style="stroke:#000000;" x="232.521255" xlink:href="#m50ea489994" y="215.23964"/>
     <use style="stroke:#000000;" x="234.044763" xlink:href="#m50ea489994" y="215.600288"/>
     <use style="stroke:#000000;" x="235.568272" xlink:href="#m50ea489994" y="215.9516"/>
     <use style="stroke:#000000;" x="237.09178" xlink:href="#m50ea489994" y="216.29422"/>
     <use style="stroke:#000000;" x="238.615289" xlink:href="#m50ea489994" y="216.628042"/>
     <use style="stroke:#000000;" x="240.138798" xlink:href="#m50ea489994" y="216.953386"/>
     <use style="stroke:#000000;" x="241.662306" xlink:href="#m50ea489994" y="217.270576"/>
     <use style="stroke:#000000;" x="243.185815" xlink:href="#m50ea489994" y="217.579825"/>
     <use style="stroke:#000000;" x="244.709324" xlink:href="#m50ea489994" y="217.881241"/>
     <use style="stroke:#000000;" x="246.232832" xlink:href="#m50ea489994" y="218.175038"/>
     <use style="stroke:#000000;" x="247.756341" xlink:href="#m50ea489994" y="218.461539"/>
     <use style="stroke:#000000;" x="249.27985" xlink:href="#m50ea489994" y="218.740743"/>
     <use style="stroke:#000000;" x="250.803358" xlink:href="#m50ea489994" y="219.01308"/>
     <use style="stroke:#000000;" x="252.326867" xlink:href="#m50ea489994" y="219.278549"/>
     <use style="stroke:#000000;" x="253.850376" xlink:href="#m50ea489994" y="219.537333"/>
     <use style="stroke:#000000;" x="255.373581" xlink:href="#m50ea489994" y="219.78969"/>
     <use style="stroke:#000000;" x="256.89709" xlink:href="#m50ea489994" y="220.035748"/>
     <use style="stroke:#000000;" x="258.420598" xlink:href="#m50ea489994" y="220.275689"/>
     <use style="stroke:#000000;" x="259.944107" xlink:href="#m50ea489994" y="220.509654"/>
     <use style="stroke:#000000;" x="261.467616" xlink:href="#m50ea489994" y="220.737803"/>
     <use style="stroke:#000000;" x="262.991124" xlink:href="#m50ea489994" y="220.960287"/>
     <use style="stroke:#000000;" x="264.514633" xlink:href="#m50ea489994" y="221.177265"/>
     <use style="stroke:#000000;" x="266.038142" xlink:href="#m50ea489994" y="221.388857"/>
     <use style="stroke:#000000;" x="267.56165" xlink:href="#m50ea489994" y="221.595224"/>
     <use style="stroke:#000000;" x="269.085159" xlink:href="#m50ea489994" y="221.796493"/>
     <use style="stroke:#000000;" x="270.608668" xlink:href="#m50ea489994" y="221.992794"/>
     <use style="stroke:#000000;" x="272.132176" xlink:href="#m50ea489994" y="222.184256"/>
     <use style="stroke:#000000;" x="273.655685" xlink:href="#m50ea489994" y="222.371007"/>
     <use style="stroke:#000000;" x="275.179194" xlink:href="#m50ea489994" y="222.553166"/>
     <use style="stroke:#000000;" x="276.702702" xlink:href="#m50ea489994" y="222.73085"/>
     <use style="stroke:#000000;" x="278.226211" xlink:href="#m50ea489994" y="222.904167"/>
     <use style="stroke:#000000;" x="279.749719" xlink:href="#m50ea489994" y="223.073245"/>
     <use style="stroke:#000000;" x="281.272925" xlink:href="#m50ea489994" y="223.238171"/>
     <use style="stroke:#000000;" x="282.796434" xlink:href="#m50ea489994" y="223.399073"/>
     <use style="stroke:#000000;" x="284.319942" xlink:href="#m50ea489994" y="223.556047"/>
     <use style="stroke:#000000;" x="285.843451" xlink:href="#m50ea489994" y="223.70918"/>
     <use style="stroke:#000000;" x="287.36696" xlink:href="#m50ea489994" y="223.85859"/>
     <use style="stroke:#000000;" x="288.890468" xlink:href="#m50ea489994" y="224.004351"/>
     <use style="stroke:#000000;" x="290.413977" xlink:href="#m50ea489994" y="224.146571"/>
     <use style="stroke:#000000;" x="291.937486" xlink:href="#m50ea489994" y="224.285336"/>
     <use style="stroke:#000000;" x="293.460994" xlink:href="#m50ea489994" y="224.420732"/>
     <use style="stroke:#000000;" x="294.984503" xlink:href="#m50ea489994" y="224.552844"/>
     <use style="stroke:#000000;" x="296.508011" xlink:href="#m50ea489994" y="224.681759"/>
     <use style="stroke:#000000;" x="298.03152" xlink:href="#m50ea489994" y="224.807551"/>
     <use style="stroke:#000000;" x="299.555029" xlink:href="#m50ea489994" y="224.930296"/>
     <use style="stroke:#000000;" x="301.078537" xlink:href="#m50ea489994" y="225.050079"/>
     <use style="stroke:#000000;" x="302.602046" xlink:href="#m50ea489994" y="225.166975"/>
     <use style="stroke:#000000;" x="304.125555" xlink:href="#m50ea489994" y="225.28105"/>
     <use style="stroke:#000000;" x="305.64876" xlink:href="#m50ea489994" y="225.392377"/>
     <use style="stroke:#000000;" x="307.172269" xlink:href="#m50ea489994" y="225.501033"/>
     <use style="stroke:#000000;" x="308.695778" xlink:href="#m50ea489994" y="225.60706"/>
     <use style="stroke:#000000;" x="310.219286" xlink:href="#m50ea489994" y="225.710554"/>
     <use style="stroke:#000000;" x="311.742795" xlink:href="#m50ea489994" y="225.811559"/>
     <use style="stroke:#000000;" x="313.266304" xlink:href="#m50ea489994" y="225.910139"/>
     <use style="stroke:#000000;" x="314.789812" xlink:href="#m50ea489994" y="226.006369"/>
     <use style="stroke:#000000;" x="316.313321" xlink:href="#m50ea489994" y="226.100281"/>
     <use style="stroke:#000000;" x="317.836829" xlink:href="#m50ea489994" y="226.191961"/>
     <use style="stroke:#000000;" x="319.360338" xlink:href="#m50ea489994" y="226.281442"/>
     <use style="stroke:#000000;" x="320.883847" xlink:href="#m50ea489994" y="226.368787"/>
     <use style="stroke:#000000;" x="322.407355" xlink:href="#m50ea489994" y="226.45405"/>
     <use style="stroke:#000000;" x="323.930864" xlink:href="#m50ea489994" y="226.537275"/>
     <use style="stroke:#000000;" x="325.454373" xlink:href="#m50ea489994" y="226.618525"/>
     <use style="stroke:#000000;" x="326.977881" xlink:href="#m50ea489994" y="226.697833"/>
     <use style="stroke:#000000;" x="328.50139" xlink:href="#m50ea489994" y="226.775264"/>
     <use style="stroke:#000000;" x="330.024899" xlink:href="#m50ea489994" y="226.850848"/>
     <use style="stroke:#000000;" x="331.548104" xlink:href="#m50ea489994" y="226.924641"/>
     <use style="stroke:#000000;" x="333.071613" xlink:href="#m50ea489994" y="226.996685"/>
     <use style="stroke:#000000;" x="334.595122" xlink:href="#m50ea489994" y="227.067011"/>
     <use style="stroke:#000000;" x="336.11863" xlink:href="#m50ea489994" y="227.135675"/>
     <use style="stroke:#000000;" x="337.642139" xlink:href="#m50ea489994" y="227.202708"/>
     <use style="stroke:#000000;" x="339.165647" xlink:href="#m50ea489994" y="227.268163"/>
     <use style="stroke:#000000;" x="340.689156" xlink:href="#m50ea489994" y="227.332062"/>
     <use style="stroke:#000000;" x="342.212665" xlink:href="#m50ea489994" y="227.394459"/>
     <use style="stroke:#000000;" x="343.736173" xlink:href="#m50ea489994" y="227.455376"/>
     <use style="stroke:#000000;" x="345.259682" xlink:href="#m50ea489994" y="227.514854"/>
     <use style="stroke:#000000;" x="346.783191" xlink:href="#m50ea489994" y="227.572937"/>
     <use style="stroke:#000000;" x="348.306699" xlink:href="#m50ea489994" y="227.629637"/>
     <use style="stroke:#000000;" x="349.830208" xlink:href="#m50ea489994" y="227.685005"/>
     <use style="stroke:#000000;" x="351.353717" xlink:href="#m50ea489994" y="227.739076"/>
     <use style="stroke:#000000;" x="352.877225" xlink:href="#m50ea489994" y="227.791869"/>
     <use style="stroke:#000000;" x="354.400734" xlink:href="#m50ea489994" y="227.843418"/>
     <use style="stroke:#000000;" x="355.923939" xlink:href="#m50ea489994" y="227.893754"/>
     <use style="stroke:#000000;" x="357.447448" xlink:href="#m50ea489994" y="227.94291"/>
     <use style="stroke:#000000;" x="358.970957" xlink:href="#m50ea489994" y="227.990907"/>
     <use style="stroke:#000000;" x="360.494465" xlink:href="#m50ea489994" y="228.037777"/>
     <use style="stroke:#000000;" x="362.017974" xlink:href="#m50ea489994" y="228.083542"/>
     <use style="stroke:#000000;" x="363.541483" xlink:href="#m50ea489994" y="228.128234"/>
     <use style="stroke:#000000;" x="365.064991" xlink:href="#m50ea489994" y="228.171885"/>
     <use style="stroke:#000000;" x="366.5885" xlink:href="#m50ea489994" y="228.214506"/>
     <use style="stroke:#000000;" x="368.112009" xlink:href="#m50ea489994" y="228.256129"/>
     <use style="stroke:#000000;" x="369.635517" xlink:href="#m50ea489994" y="228.296776"/>
     <use style="stroke:#000000;" x="371.159026" xlink:href="#m50ea489994" y="228.336467"/>
     <use style="stroke:#000000;" x="372.682535" xlink:href="#m50ea489994" y="228.375236"/>
     <use style="stroke:#000000;" x="374.206043" xlink:href="#m50ea489994" y="228.413093"/>
     <use style="stroke:#000000;" x="375.729249" xlink:href="#m50ea489994" y="228.450059"/>
    </g>
   </g>
   <g id="line2d_16">
    <path clip-path="url(#p33b7977a90)" d="M 71.724432 133.617985 
L 71.883112 133.625939 
L 72.059543 133.322664 
L 72.310816 132.400604 
L 72.698807 130.067181 
L 73.329294 124.662666 
L 74.542764 111.832516 
L 76.328467 93.581102 
L 77.533561 83.516078 
L 78.629101 76.11434 
L 79.724641 70.236501 
L 80.768862 65.878389 
L 81.761766 62.70855 
L 82.589185 60.697255 
L 83.416605 59.187463 
L 84.244024 58.119652 
L 84.988973 57.492457 
L 85.734464 57.1459 
L 86.479956 57.049543 
L 87.225447 57.175583 
L 87.970938 57.499087 
L 88.964927 58.199291 
L 89.837581 59.033775 
L 90.96456 60.36907 
L 92.4672 62.52035 
L 94.3455 65.667998 
L 96.599459 69.920454 
L 99.794936 76.489336 
L 107.151075 92.391597 
L 112.809645 104.350252 
L 117.267234 113.300391 
L 121.902282 122.079238 
L 126.233921 129.774135 
L 130.565561 136.978329 
L 134.966216 143.808828 
L 139.09528 149.788601 
L 142.956362 155.022442 
L 147.274656 160.488163 
L 151.160359 165.075805 
L 155.046061 169.368676 
L 159.814313 174.259043 
L 163.627502 177.889685 
L 168.711753 182.370852 
L 173.857019 186.518478 
L 177.731222 189.403915 
L 183.542527 193.380207 
L 189.353832 196.970003 
L 195.165137 200.210281 
L 200.976442 203.134693 
L 207.082232 205.900455 
L 212.432941 208.090567 
L 218.697962 210.404989 
L 224.603397 212.363899 
L 230.260349 214.057952 
L 236.722613 215.796718 
L 242.944584 217.293128 
L 250.389986 218.880224 
L 259.058819 220.482964 
L 267.727652 221.857615 
L 276.396486 223.036435 
L 287.232527 224.27632 
L 298.068569 225.298664 
L 311.071819 226.290799 
L 326.242277 227.190248 
L 343.579943 227.957003 
L 363.084818 228.573832 
L 376.088068 228.877639 
L 376.088068 228.877639 
" style="fill:none;stroke:#0000ff;stroke-linecap:square;stroke-width:1.5;"/>
   </g>
   <g id="line2d_17">
    <path clip-path="url(#p33b7977a90)" d="M 71.724432 133.463939 
L 71.917267 133.568868 
L 72.071819 133.43682 
L 72.294667 132.938236 
L 72.624961 131.609999 
L 73.114183 128.596861 
L 73.848017 122.480577 
L 77.440613 89.960046 
L 78.426043 83.85741 
L 79.270697 79.823962 
L 80.115351 76.797739 
L 80.819229 74.960995 
L 81.523107 73.672734 
L 82.226986 72.866285 
L 82.790088 72.526471 
L 83.353191 72.426736 
L 83.917677 72.541345 
L 84.553243 72.897738 
L 85.400664 73.696934 
L 86.248085 74.808987 
L 87.307362 76.557915 
L 88.578493 79.070136 
L 90.170824 82.683707 
L 92.419221 88.358359 
L 96.273614 98.807148 
L 102.898698 116.748951 
L 106.777684 126.598912 
L 110.507289 135.448657 
L 113.857098 142.852181 
L 117.07149 149.474522 
L 120.285882 155.639505 
L 123.500274 161.367421 
L 127.082787 167.264748 
L 130.325613 172.187873 
L 133.964224 177.274593 
L 137.602835 181.932344 
L 140.955982 185.873566 
L 144.901421 190.113992 
L 148.846859 193.960927 
L 153.371147 197.932858 
L 157.895434 201.481367 
L 162.419722 204.650153 
L 166.94401 207.478682 
L 171.772983 210.162329 
L 176.113058 212.310066 
L 180.282636 214.162258 
L 184.857244 215.980524 
L 189.431852 217.598217 
L 195.531329 219.479821 
L 201.630806 221.087256 
L 207.730283 222.458924 
L 213.82976 223.627902 
L 221.454107 224.847132 
L 229.078453 225.841117 
L 238.227669 226.791412 
L 248.901753 227.634811 
L 261.100708 228.332958 
L 274.824531 228.872981 
L 291.598093 229.293748 
L 312.946263 229.595712 
L 344.968517 229.799583 
L 375.465903 229.874489 
L 375.465903 229.874489 
" style="fill:none;stroke:#ff0000;stroke-linecap:square;stroke-width:1.5;"/>
   </g>
   <g id="line2d_18">
    <path clip-path="url(#p33b7977a90)" d="M 71.724432 114.019525 
L 71.897751 114.072247 
L 72.069857 113.860136 
L 72.318321 113.148044 
L 72.697078 111.287134 
L 73.263697 107.149009 
L 74.11514 98.957748 
L 77.723929 61.967327 
L 78.845047 53.516401 
L 79.814663 47.60634 
L 80.87518 42.490028 
L 81.784195 39.085344 
L 82.75381 36.332715 
L 83.541623 34.684837 
L 84.329436 33.497622 
L 85.117248 32.725143 
L 85.874761 32.316862 
L 86.662573 32.205507 
L 87.450386 32.375568 
L 88.238199 32.79534 
L 89.207815 33.607756 
L 90.298632 34.861516 
L 91.480351 36.543131 
L 92.965075 39.045066 
L 94.752804 42.496271 
L 96.995041 47.30075 
L 100.570498 55.590602 
L 113.236103 85.553782 
L 117.175167 94.223203 
L 121.417236 103.05807 
L 125.35236 110.781872 
L 129.043869 117.616228 
L 133.08353 124.655858 
L 137.123495 131.255739 
L 141.163156 137.438846 
L 145.20312 143.229711 
L 149.243085 148.651316 
L 153.300017 153.749553 
L 157.87024 159.101985 
L 162.440766 164.082875 
L 167.011292 168.698501 
L 171.581818 172.988558 
L 176.152344 176.976698 
L 180.722567 180.67414 
L 185.293093 184.118508 
L 189.863619 187.316522 
L 194.434145 190.2865 
L 199.00467 193.051722 
L 205.098402 196.427083 
L 211.192437 199.494261 
L 217.286471 202.275863 
L 223.380506 204.802181 
L 229.474237 207.090307 
L 235.568272 209.176491 
L 243.185815 211.514273 
L 250.803358 213.588565 
L 258.420598 215.428491 
L 267.56165 217.368967 
L 276.702702 219.050693 
L 285.843451 220.50997 
L 294.984503 221.778601 
L 305.64876 223.050133 
L 317.836829 224.271078 
L 331.548104 225.39743 
L 345.259682 226.312003 
L 362.017974 227.197921 
L 375.729249 227.779577 
L 375.729249 227.779577 
" style="fill:none;stroke:#0000ff;stroke-dasharray:5.55,2.4;stroke-dashoffset:0;stroke-width:1.5;"/>
   </g>
   <g id="line2d_19">
    <path clip-path="url(#p33b7977a90)" d="M 71.724432 149.905585 
L 71.865026 149.896211 
L 72.019862 149.62081 
L 72.281961 148.607934 
L 72.697078 145.897627 
L 73.375809 139.614108 
L 76.451308 108.962801 
L 77.542126 101.009945 
L 78.572343 94.974028 
L 79.572259 90.299715 
L 80.602475 86.524093 
L 81.632692 83.657809 
L 82.541707 81.769686 
L 83.32952 80.556493 
L 84.117332 79.687336 
L 84.905145 79.122859 
L 85.692958 78.830245 
L 86.48077 78.776505 
L 87.268583 78.937808 
L 88.238199 79.389104 
L 89.207815 80.084827 
L 90.298632 81.115733 
L 91.783356 82.868241 
L 93.571085 85.397641 
L 95.661819 88.783299 
L 98.328262 93.542493 
L 102.327927 101.176727 
L 113.236103 122.219474 
L 118.084182 130.994261 
L 122.629255 138.744188 
L 126.693157 145.260324 
L 131.0637 151.829287 
L 135.103664 157.507331 
L 139.143325 162.815763 
L 143.18329 167.766887 
L 147.222951 172.385883 
L 151.776509 177.201955 
L 156.346732 181.652174 
L 160.917257 185.749827 
L 165.487783 189.507045 
L 170.058309 192.96626 
L 174.628835 196.125205 
L 179.199058 199.032929 
L 183.769584 201.694688 
L 188.34011 204.128713 
L 192.910636 206.36157 
L 199.00467 209.048379 
L 205.098402 211.435936 
L 211.192437 213.554795 
L 217.286471 215.437735 
L 223.380506 217.107118 
L 229.474237 218.587838 
L 237.09178 220.208884 
L 244.709324 221.602182 
L 252.326867 222.804415 
L 261.467616 224.024443 
L 272.132176 225.194014 
L 282.796434 226.138585 
L 294.984503 226.996319 
L 308.695778 227.739318 
L 325.454373 228.404029 
L 345.259682 228.942557 
L 369.635517 229.360132 
L 375.729249 229.432509 
L 375.729249 229.432509 
" style="fill:none;stroke:#0000ff;stroke-dasharray:5.55,2.4;stroke-dashoffset:0;stroke-width:1.5;"/>
   </g>
   <g id="line2d_20"/>
   <g id="line2d_21"/>
   <g id="line2d_22"/>
   <g id="line2d_23"/>
   <g id="line2d_24"/>
   <g id="line2d_25"/>
   <g id="patch_3">
    <path d="M 56.50625 239.758125 
L 56.50625 22.318125 
" style="fill:none;stroke:#000000;stroke-linecap:square;stroke-linejoin:miter;stroke-width:0.8;"/>
   </g>
   <g id="patch_4">
    <path d="M 391.30625 239.758125 
L 391.30625 22.318125 
" style="fill:none;stroke:#000000;stroke-linecap:square;stroke-linejoin:miter;stroke-width:0.8;"/>
   </g>
   <g id="patch_5">
    <path d="M 56.50625 239.758125 
L 391.30625 239.758125 
" style="fill:none;stroke:#000000;stroke-linecap:square;stroke-linejoin:miter;stroke-width:0.8;"/>
   </g>
   <g id="patch_6">
    <path d="M 56.50625 22.318125 
L 391.30625 22.318125 
" style="fill:none;stroke:#000000;stroke-linecap:square;stroke-linejoin:miter;stroke-width:0.8;"/>
   </g>
   <g id="text_17">
    <!-- Experiment_19 -->
    <defs>
     <path d="M 9.8125 72.90625 
L 55.90625 72.90625 
L 55.90625 64.59375 
L 19.671875 64.59375 
L 19.671875 43.015625 
L 54.390625 43.015625 
L 54.390625 34.71875 
L 19.671875 34.71875 
L 19.671875 8.296875 
L 56.78125 8.296875 
L 56.78125 0 
L 9.8125 0 
z
" id="DejaVuSans-69"/>
     <path d="M 54.890625 54.6875 
L 35.109375 28.078125 
L 55.90625 0 
L 45.3125 0 
L 29.390625 21.484375 
L 13.484375 0 
L 2.875 0 
L 24.125 28.609375 
L 4.6875 54.6875 
L 15.28125 54.6875 
L 29.78125 35.203125 
L 44.28125 54.6875 
z
" id="DejaVuSans-120"/>
     <path d="M 18.109375 8.203125 
L 18.109375 -20.796875 
L 9.078125 -20.796875 
L 9.078125 54.6875 
L 18.109375 54.6875 
L 18.109375 46.390625 
Q 20.953125 51.265625 25.265625 53.625 
Q 29.59375 56 35.59375 56 
Q 45.5625 56 51.78125 48.09375 
Q 58.015625 40.1875 58.015625 27.296875 
Q 58.015625 14.40625 51.78125 6.484375 
Q 45.5625 -1.421875 35.59375 -1.421875 
Q 29.59375 -1.421875 25.265625 0.953125 
Q 20.953125 3.328125 18.109375 8.203125 
z
M 48.6875 27.296875 
Q 48.6875 37.203125 44.609375 42.84375 
Q 40.53125 48.484375 33.40625 48.484375 
Q 26.265625 48.484375 22.1875 42.84375 
Q 18.109375 37.203125 18.109375 27.296875 
Q 18.109375 17.390625 22.1875 11.75 
Q 26.265625 6.109375 33.40625 6.109375 
Q 40.53125 6.109375 44.609375 11.75 
Q 48.6875 17.390625 48.6875 27.296875 
z
" id="DejaVuSans-112"/>
     <path d="M 18.3125 70.21875 
L 18.3125 54.6875 
L 36.8125 54.6875 
L 36.8125 47.703125 
L 18.3125 47.703125 
L 18.3125 18.015625 
Q 18.3125 11.328125 20.140625 9.421875 
Q 21.96875 7.515625 27.59375 7.515625 
L 36.8125 7.515625 
L 36.8125 0 
L 27.59375 0 
Q 17.1875 0 13.234375 3.875 
Q 9.28125 7.765625 9.28125 18.015625 
L 9.28125 47.703125 
L 2.6875 47.703125 
L 2.6875 54.6875 
L 9.28125 54.6875 
L 9.28125 70.21875 
z
" id="DejaVuSans-116"/>
     <path d="M 50.984375 -16.609375 
L 50.984375 -23.578125 
L -0.984375 -23.578125 
L -0.984375 -16.609375 
z
" id="DejaVuSans-95"/>
     <path d="M 10.984375 1.515625 
L 10.984375 10.5 
Q 14.703125 8.734375 18.5 7.8125 
Q 22.3125 6.890625 25.984375 6.890625 
Q 35.75 6.890625 40.890625 13.453125 
Q 46.046875 20.015625 46.78125 33.40625 
Q 43.953125 29.203125 39.59375 26.953125 
Q 35.25 24.703125 29.984375 24.703125 
Q 19.046875 24.703125 12.671875 31.3125 
Q 6.296875 37.9375 6.296875 49.421875 
Q 6.296875 60.640625 12.9375 67.421875 
Q 19.578125 74.21875 30.609375 74.21875 
Q 43.265625 74.21875 49.921875 64.515625 
Q 56.59375 54.828125 56.59375 36.375 
Q 56.59375 19.140625 48.40625 8.859375 
Q 40.234375 -1.421875 26.421875 -1.421875 
Q 22.703125 -1.421875 18.890625 -0.6875 
Q 15.09375 0.046875 10.984375 1.515625 
z
M 30.609375 32.421875 
Q 37.25 32.421875 41.125 36.953125 
Q 45.015625 41.5 45.015625 49.421875 
Q 45.015625 57.28125 41.125 61.84375 
Q 37.25 66.40625 30.609375 66.40625 
Q 23.96875 66.40625 20.09375 61.84375 
Q 16.21875 57.28125 16.21875 49.421875 
Q 16.21875 41.5 20.09375 36.953125 
Q 23.96875 32.421875 30.609375 32.421875 
z
" id="DejaVuSans-57"/>
    </defs>
    <g transform="translate(178.603437 16.318125)scale(0.12 -0.12)">
     <use xlink:href="#DejaVuSans-69"/>
     <use x="63.183594" xlink:href="#DejaVuSans-120"/>
     <use x="122.363281" xlink:href="#DejaVuSans-112"/>
     <use x="185.839844" xlink:href="#DejaVuSans-101"/>
     <use x="247.363281" xlink:href="#DejaVuSans-114"/>
     <use x="288.476562" xlink:href="#DejaVuSans-105"/>
     <use x="316.259766" xlink:href="#DejaVuSans-109"/>
     <use x="413.671875" xlink:href="#DejaVuSans-101"/>
     <use x="475.195312" xlink:href="#DejaVuSans-110"/>
     <use x="538.574219" xlink:href="#DejaVuSans-116"/>
     <use x="577.783203" xlink:href="#DejaVuSans-95"/>
     <use x="627.783203" xlink:href="#DejaVuSans-49"/>
     <use x="691.40625" xlink:href="#DejaVuSans-57"/>
    </g>
   </g>
   <g id="legend_1">
    <g id="patch_7">
     <path d="M 128.185937 103.730625 
L 384.30625 103.730625 
Q 386.30625 103.730625 386.30625 101.730625 
L 386.30625 29.318125 
Q 386.30625 27.318125 384.30625 27.318125 
L 128.185937 27.318125 
Q 126.185937 27.318125 126.185937 29.318125 
L 126.185937 101.730625 
Q 126.185937 103.730625 128.185937 103.730625 
z
" style="fill:#ffffff;opacity:0.8;stroke:#cccccc;stroke-linejoin:miter;"/>
    </g>
    <g id="line2d_26"/>
    <g id="line2d_27">
     <g>
      <use style="stroke:#000000;" x="140.185937" xlink:href="#m50ea489994" y="35.416562"/>
     </g>
    </g>
    <g id="text_18">
     <!-- Experimental Data -->
     <defs>
      <path d="M 9.421875 75.984375 
L 18.40625 75.984375 
L 18.40625 0 
L 9.421875 0 
z
" id="DejaVuSans-108"/>
      <path d="M 19.671875 64.796875 
L 19.671875 8.109375 
L 31.59375 8.109375 
Q 46.6875 8.109375 53.6875 14.9375 
Q 60.6875 21.78125 60.6875 36.53125 
Q 60.6875 51.171875 53.6875 57.984375 
Q 46.6875 64.796875 31.59375 64.796875 
z
M 9.8125 72.90625 
L 30.078125 72.90625 
Q 51.265625 72.90625 61.171875 64.09375 
Q 71.09375 55.28125 71.09375 36.53125 
Q 71.09375 17.671875 61.125 8.828125 
Q 51.171875 0 30.078125 0 
L 9.8125 0 
z
" id="DejaVuSans-68"/>
     </defs>
     <g transform="translate(158.185937 38.916562)scale(0.1 -0.1)">
      <use xlink:href="#DejaVuSans-69"/>
      <use x="63.183594" xlink:href="#DejaVuSans-120"/>
      <use x="122.363281" xlink:href="#DejaVuSans-112"/>
      <use x="185.839844" xlink:href="#DejaVuSans-101"/>
      <use x="247.363281" xlink:href="#DejaVuSans-114"/>
      <use x="288.476562" xlink:href="#DejaVuSans-105"/>
      <use x="316.259766" xlink:href="#DejaVuSans-109"/>
      <use x="413.671875" xlink:href="#DejaVuSans-101"/>
      <use x="475.195312" xlink:href="#DejaVuSans-110"/>
      <use x="538.574219" xlink:href="#DejaVuSans-116"/>
      <use x="577.783203" xlink:href="#DejaVuSans-97"/>
      <use x="639.0625" xlink:href="#DejaVuSans-108"/>
      <use x="666.845703" xlink:href="#DejaVuSans-32"/>
      <use x="698.632812" xlink:href="#DejaVuSans-68"/>
      <use x="775.634766" xlink:href="#DejaVuSans-97"/>
      <use x="836.914062" xlink:href="#DejaVuSans-116"/>
      <use x="876.123047" xlink:href="#DejaVuSans-97"/>
     </g>
    </g>
    <g id="line2d_28">
     <path d="M 130.185937 50.094687 
L 150.185937 50.094687 
" style="fill:none;stroke:#0000ff;stroke-linecap:square;stroke-width:1.5;"/>
    </g>
    <g id="line2d_29"/>
    <g id="text_19">
     <!-- MSI -->
     <defs>
      <path d="M 9.8125 72.90625 
L 24.515625 72.90625 
L 43.109375 23.296875 
L 61.8125 72.90625 
L 76.515625 72.90625 
L 76.515625 0 
L 66.890625 0 
L 66.890625 64.015625 
L 48.09375 14.015625 
L 38.1875 14.015625 
L 19.390625 64.015625 
L 19.390625 0 
L 9.8125 0 
z
" id="DejaVuSans-77"/>
      <path d="M 53.515625 70.515625 
L 53.515625 60.890625 
Q 47.90625 63.578125 42.921875 64.890625 
Q 37.9375 66.21875 33.296875 66.21875 
Q 25.25 66.21875 20.875 63.09375 
Q 16.5 59.96875 16.5 54.203125 
Q 16.5 49.359375 19.40625 46.890625 
Q 22.3125 44.4375 30.421875 42.921875 
L 36.375 41.703125 
Q 47.40625 39.59375 52.65625 34.296875 
Q 57.90625 29 57.90625 20.125 
Q 57.90625 9.515625 50.796875 4.046875 
Q 43.703125 -1.421875 29.984375 -1.421875 
Q 24.8125 -1.421875 18.96875 -0.25 
Q 13.140625 0.921875 6.890625 3.21875 
L 6.890625 13.375 
Q 12.890625 10.015625 18.65625 8.296875 
Q 24.421875 6.59375 29.984375 6.59375 
Q 38.421875 6.59375 43.015625 9.90625 
Q 47.609375 13.234375 47.609375 19.390625 
Q 47.609375 24.75 44.3125 27.78125 
Q 41.015625 30.8125 33.5 32.328125 
L 27.484375 33.5 
Q 16.453125 35.6875 11.515625 40.375 
Q 6.59375 45.0625 6.59375 53.421875 
Q 6.59375 63.09375 13.40625 68.65625 
Q 20.21875 74.21875 32.171875 74.21875 
Q 37.3125 74.21875 42.625 73.28125 
Q 47.953125 72.359375 53.515625 70.515625 
z
" id="DejaVuSans-83"/>
      <path d="M 9.8125 72.90625 
L 19.671875 72.90625 
L 19.671875 0 
L 9.8125 0 
z
" id="DejaVuSans-73"/>
     </defs>
     <g transform="translate(158.185937 53.594687)scale(0.1 -0.1)">
      <use xlink:href="#DejaVuSans-77"/>
      <use x="86.279297" xlink:href="#DejaVuSans-83"/>
      <use x="149.755859" xlink:href="#DejaVuSans-73"/>
     </g>
    </g>
    <g id="line2d_30">
     <path d="M 130.185937 64.774375 
L 150.185937 64.774375 
" style="fill:none;stroke:#ff0000;stroke-linecap:square;stroke-width:1.5;"/>
    </g>
    <g id="line2d_31"/>
    <g id="text_20">
     <!-- $\it{A priori}$ model -->
     <defs>
      <path d="M 36.8125 72.90625 
L 48 72.90625 
L 61.53125 0 
L 51.21875 0 
L 48.1875 18.703125 
L 15.375 18.703125 
L 5.078125 0 
L -5.328125 0 
z
M 40.375 63.1875 
L 19.921875 26.90625 
L 46.6875 26.90625 
z
" id="DejaVuSans-Oblique-65"/>
      <path d="M 49.609375 33.6875 
Q 49.609375 40.875 46.484375 44.671875 
Q 43.359375 48.484375 37.5 48.484375 
Q 33.5 48.484375 29.859375 46.4375 
Q 26.21875 44.390625 23.390625 40.484375 
Q 20.609375 36.625 18.9375 31.15625 
Q 17.28125 25.6875 17.28125 20.3125 
Q 17.28125 13.484375 20.40625 9.796875 
Q 23.53125 6.109375 29.296875 6.109375 
Q 33.546875 6.109375 37.1875 8.109375 
Q 40.828125 10.109375 43.40625 13.921875 
Q 46.1875 17.921875 47.890625 23.34375 
Q 49.609375 28.765625 49.609375 33.6875 
z
M 21.78125 46.390625 
Q 25.390625 51.125 30.296875 53.5625 
Q 35.203125 56 41.21875 56 
Q 49.609375 56 54.25 50.5 
Q 58.890625 45.015625 58.890625 35.109375 
Q 58.890625 27 56 19.65625 
Q 53.125 12.3125 47.703125 6.5 
Q 44.09375 2.640625 39.546875 0.609375 
Q 35.015625 -1.421875 29.984375 -1.421875 
Q 24.171875 -1.421875 20.21875 1 
Q 16.265625 3.421875 14.3125 8.203125 
L 8.6875 -20.796875 
L -0.296875 -20.796875 
L 14.40625 54.6875 
L 23.390625 54.6875 
z
" id="DejaVuSans-Oblique-112"/>
      <path d="M 44.578125 46.390625 
Q 43.21875 47.125 41.453125 47.515625 
Q 39.703125 47.90625 37.703125 47.90625 
Q 30.515625 47.90625 25.140625 42.453125 
Q 19.78125 37.015625 18.015625 27.875 
L 12.5 0 
L 3.515625 0 
L 14.203125 54.6875 
L 23.1875 54.6875 
L 21.484375 46.1875 
Q 25.046875 50.921875 30 53.453125 
Q 34.96875 56 40.578125 56 
Q 42.046875 56 43.453125 55.828125 
Q 44.875 55.671875 46.296875 55.28125 
z
" id="DejaVuSans-Oblique-114"/>
      <path d="M 18.3125 75.984375 
L 27.296875 75.984375 
L 25.09375 64.59375 
L 16.109375 64.59375 
z
M 14.203125 54.6875 
L 23.1875 54.6875 
L 12.5 0 
L 3.515625 0 
z
" id="DejaVuSans-Oblique-105"/>
      <path d="M 25.390625 -1.421875 
Q 15.765625 -1.421875 10.171875 4.515625 
Q 4.59375 10.453125 4.59375 20.703125 
Q 4.59375 26.65625 6.515625 32.828125 
Q 8.453125 39.015625 11.53125 43.21875 
Q 16.359375 49.75 22.3125 52.875 
Q 28.265625 56 35.796875 56 
Q 45.125 56 50.859375 50.1875 
Q 56.59375 44.390625 56.59375 35.015625 
Q 56.59375 28.515625 54.6875 22.0625 
Q 52.78125 15.625 49.703125 11.375 
Q 44.921875 4.828125 38.96875 1.703125 
Q 33.015625 -1.421875 25.390625 -1.421875 
z
M 13.921875 21 
Q 13.921875 13.578125 17.015625 9.890625 
Q 20.125 6.203125 26.421875 6.203125 
Q 35.453125 6.203125 41.375 14.078125 
Q 47.3125 21.96875 47.3125 34.078125 
Q 47.3125 41.15625 44.140625 44.765625 
Q 40.96875 48.390625 34.8125 48.390625 
Q 29.734375 48.390625 25.78125 46.015625 
Q 21.828125 43.65625 18.703125 38.8125 
Q 16.40625 35.203125 15.15625 30.5625 
Q 13.921875 25.921875 13.921875 21 
z
" id="DejaVuSans-Oblique-111"/>
      <path d="M 45.40625 46.390625 
L 45.40625 75.984375 
L 54.390625 75.984375 
L 54.390625 0 
L 45.40625 0 
L 45.40625 8.203125 
Q 42.578125 3.328125 38.25 0.953125 
Q 33.9375 -1.421875 27.875 -1.421875 
Q 17.96875 -1.421875 11.734375 6.484375 
Q 5.515625 14.40625 5.515625 27.296875 
Q 5.515625 40.1875 11.734375 48.09375 
Q 17.96875 56 27.875 56 
Q 33.9375 56 38.25 53.625 
Q 42.578125 51.265625 45.40625 46.390625 
z
M 14.796875 27.296875 
Q 14.796875 17.390625 18.875 11.75 
Q 22.953125 6.109375 30.078125 6.109375 
Q 37.203125 6.109375 41.296875 11.75 
Q 45.40625 17.390625 45.40625 27.296875 
Q 45.40625 37.203125 41.296875 42.84375 
Q 37.203125 48.484375 30.078125 48.484375 
Q 22.953125 48.484375 18.875 42.84375 
Q 14.796875 37.203125 14.796875 27.296875 
z
" id="DejaVuSans-100"/>
     </defs>
     <g transform="translate(158.185937 68.274375)scale(0.1 -0.1)">
      <use transform="translate(0 0.015625)" xlink:href="#DejaVuSans-Oblique-65"/>
      <use transform="translate(68.408203 0.015625)" xlink:href="#DejaVuSans-Oblique-112"/>
      <use transform="translate(131.884766 0.015625)" xlink:href="#DejaVuSans-Oblique-114"/>
      <use transform="translate(172.998047 0.015625)" xlink:href="#DejaVuSans-Oblique-105"/>
      <use transform="translate(200.78125 0.015625)" xlink:href="#DejaVuSans-Oblique-111"/>
      <use transform="translate(261.962891 0.015625)" xlink:href="#DejaVuSans-Oblique-114"/>
      <use transform="translate(303.076172 0.015625)" xlink:href="#DejaVuSans-Oblique-105"/>
      <use transform="translate(330.859375 0.015625)" xlink:href="#DejaVuSans-32"/>
      <use transform="translate(362.646484 0.015625)" xlink:href="#DejaVuSans-109"/>
      <use transform="translate(460.058594 0.015625)" xlink:href="#DejaVuSans-111"/>
      <use transform="translate(521.240234 0.015625)" xlink:href="#DejaVuSans-100"/>
      <use transform="translate(584.716797 0.015625)" xlink:href="#DejaVuSans-101"/>
      <use transform="translate(646.240234 0.015625)" xlink:href="#DejaVuSans-108"/>
     </g>
    </g>
    <g id="line2d_32">
     <path d="M 130.185937 79.472813 
L 150.185937 79.472813 
" style="fill:none;stroke:#ffffff;stroke-linecap:square;stroke-width:1.5;"/>
    </g>
    <g id="line2d_33"/>
    <g id="text_21">
     <!-- T:1210 -->
     <defs>
      <path d="M 11.71875 12.40625 
L 22.015625 12.40625 
L 22.015625 0 
L 11.71875 0 
z
M 11.71875 51.703125 
L 22.015625 51.703125 
L 22.015625 39.3125 
L 11.71875 39.3125 
z
" id="DejaVuSans-58"/>
     </defs>
     <g transform="translate(158.185937 82.972813)scale(0.1 -0.1)">
      <use xlink:href="#DejaVuSans-84"/>
      <use x="60.912109" xlink:href="#DejaVuSans-58"/>
      <use x="94.603516" xlink:href="#DejaVuSans-49"/>
      <use x="158.226562" xlink:href="#DejaVuSans-50"/>
      <use x="221.849609" xlink:href="#DejaVuSans-49"/>
      <use x="285.472656" xlink:href="#DejaVuSans-48"/>
     </g>
    </g>
    <g id="line2d_34">
     <path d="M 130.185937 94.150937 
L 150.185937 94.150937 
" style="fill:none;stroke:#ffffff;stroke-linecap:square;stroke-width:1.5;"/>
    </g>
    <g id="line2d_35"/>
    <g id="text_22">
     <!-- P:1.668 -->
     <defs>
      <path d="M 19.671875 64.796875 
L 19.671875 37.40625 
L 32.078125 37.40625 
Q 38.96875 37.40625 42.71875 40.96875 
Q 46.484375 44.53125 46.484375 51.125 
Q 46.484375 57.671875 42.71875 61.234375 
Q 38.96875 64.796875 32.078125 64.796875 
z
M 9.8125 72.90625 
L 32.078125 72.90625 
Q 44.34375 72.90625 50.609375 67.359375 
Q 56.890625 61.8125 56.890625 51.125 
Q 56.890625 40.328125 50.609375 34.8125 
Q 44.34375 29.296875 32.078125 29.296875 
L 19.671875 29.296875 
L 19.671875 0 
L 9.8125 0 
z
" id="DejaVuSans-80"/>
     </defs>
     <g transform="translate(158.185937 97.650937)scale(0.1 -0.1)">
      <use xlink:href="#DejaVuSans-80"/>
      <use x="60.302734" xlink:href="#DejaVuSans-58"/>
      <use x="93.994141" xlink:href="#DejaVuSans-49"/>
      <use x="157.617188" xlink:href="#DejaVuSans-46"/>
      <use x="189.404297" xlink:href="#DejaVuSans-54"/>
      <use x="253.027344" xlink:href="#DejaVuSans-54"/>
      <use x="316.650391" xlink:href="#DejaVuSans-56"/>
     </g>
    </g>
    <g id="line2d_36">
     <path d="M 271.926563 35.416562 
L 291.926563 35.416562 
" style="fill:none;stroke:#ffffff;stroke-linecap:square;stroke-width:1.5;"/>
    </g>
    <g id="line2d_37"/>
    <g id="text_23">
     <!-- H2O2: 0.002399 -->
     <defs>
      <path d="M 9.8125 72.90625 
L 19.671875 72.90625 
L 19.671875 43.015625 
L 55.515625 43.015625 
L 55.515625 72.90625 
L 65.375 72.90625 
L 65.375 0 
L 55.515625 0 
L 55.515625 34.71875 
L 19.671875 34.71875 
L 19.671875 0 
L 9.8125 0 
z
" id="DejaVuSans-72"/>
      <path d="M 39.40625 66.21875 
Q 28.65625 66.21875 22.328125 58.203125 
Q 16.015625 50.203125 16.015625 36.375 
Q 16.015625 22.609375 22.328125 14.59375 
Q 28.65625 6.59375 39.40625 6.59375 
Q 50.140625 6.59375 56.421875 14.59375 
Q 62.703125 22.609375 62.703125 36.375 
Q 62.703125 50.203125 56.421875 58.203125 
Q 50.140625 66.21875 39.40625 66.21875 
z
M 39.40625 74.21875 
Q 54.734375 74.21875 63.90625 63.9375 
Q 73.09375 53.65625 73.09375 36.375 
Q 73.09375 19.140625 63.90625 8.859375 
Q 54.734375 -1.421875 39.40625 -1.421875 
Q 24.03125 -1.421875 14.8125 8.828125 
Q 5.609375 19.09375 5.609375 36.375 
Q 5.609375 53.65625 14.8125 63.9375 
Q 24.03125 74.21875 39.40625 74.21875 
z
" id="DejaVuSans-79"/>
      <path d="M 40.578125 39.3125 
Q 47.65625 37.796875 51.625 33 
Q 55.609375 28.21875 55.609375 21.1875 
Q 55.609375 10.40625 48.1875 4.484375 
Q 40.765625 -1.421875 27.09375 -1.421875 
Q 22.515625 -1.421875 17.65625 -0.515625 
Q 12.796875 0.390625 7.625 2.203125 
L 7.625 11.71875 
Q 11.71875 9.328125 16.59375 8.109375 
Q 21.484375 6.890625 26.8125 6.890625 
Q 36.078125 6.890625 40.9375 10.546875 
Q 45.796875 14.203125 45.796875 21.1875 
Q 45.796875 27.640625 41.28125 31.265625 
Q 36.765625 34.90625 28.71875 34.90625 
L 20.21875 34.90625 
L 20.21875 43.015625 
L 29.109375 43.015625 
Q 36.375 43.015625 40.234375 45.921875 
Q 44.09375 48.828125 44.09375 54.296875 
Q 44.09375 59.90625 40.109375 62.90625 
Q 36.140625 65.921875 28.71875 65.921875 
Q 24.65625 65.921875 20.015625 65.03125 
Q 15.375 64.15625 9.8125 62.3125 
L 9.8125 71.09375 
Q 15.4375 72.65625 20.34375 73.4375 
Q 25.25 74.21875 29.59375 74.21875 
Q 40.828125 74.21875 47.359375 69.109375 
Q 53.90625 64.015625 53.90625 55.328125 
Q 53.90625 49.265625 50.4375 45.09375 
Q 46.96875 40.921875 40.578125 39.3125 
z
" id="DejaVuSans-51"/>
     </defs>
     <g transform="translate(299.926563 38.916562)scale(0.1 -0.1)">
      <use xlink:href="#DejaVuSans-72"/>
      <use x="75.195312" xlink:href="#DejaVuSans-50"/>
      <use x="138.818359" xlink:href="#DejaVuSans-79"/>
      <use x="217.529297" xlink:href="#DejaVuSans-50"/>
      <use x="281.152344" xlink:href="#DejaVuSans-58"/>
      <use x="314.84375" xlink:href="#DejaVuSans-32"/>
      <use x="346.630859" xlink:href="#DejaVuSans-48"/>
      <use x="410.253906" xlink:href="#DejaVuSans-46"/>
      <use x="442.041016" xlink:href="#DejaVuSans-48"/>
      <use x="505.664062" xlink:href="#DejaVuSans-48"/>
      <use x="569.287109" xlink:href="#DejaVuSans-50"/>
      <use x="632.910156" xlink:href="#DejaVuSans-51"/>
      <use x="696.533203" xlink:href="#DejaVuSans-57"/>
      <use x="760.15625" xlink:href="#DejaVuSans-57"/>
     </g>
    </g>
    <g id="line2d_38">
     <path d="M 271.926563 50.094687 
L 291.926563 50.094687 
" style="fill:none;stroke:#ffffff;stroke-linecap:square;stroke-width:1.5;"/>
    </g>
    <g id="line2d_39"/>
    <g id="text_24">
     <!-- H2O: 0.001113 -->
     <g transform="translate(299.926563 53.594687)scale(0.1 -0.1)">
      <use xlink:href="#DejaVuSans-72"/>
      <use x="75.195312" xlink:href="#DejaVuSans-50"/>
      <use x="138.818359" xlink:href="#DejaVuSans-79"/>
      <use x="217.513672" xlink:href="#DejaVuSans-58"/>
      <use x="251.205078" xlink:href="#DejaVuSans-32"/>
      <use x="282.992188" xlink:href="#DejaVuSans-48"/>
      <use x="346.615234" xlink:href="#DejaVuSans-46"/>
      <use x="378.402344" xlink:href="#DejaVuSans-48"/>
      <use x="442.025391" xlink:href="#DejaVuSans-48"/>
      <use x="505.648438" xlink:href="#DejaVuSans-49"/>
      <use x="569.271484" xlink:href="#DejaVuSans-49"/>
      <use x="632.894531" xlink:href="#DejaVuSans-49"/>
      <use x="696.517578" xlink:href="#DejaVuSans-51"/>
     </g>
    </g>
    <g id="line2d_40">
     <path d="M 271.926563 64.772812 
L 291.926563 64.772812 
" style="fill:none;stroke:#ffffff;stroke-linecap:square;stroke-width:1.5;"/>
    </g>
    <g id="line2d_41"/>
    <g id="text_25">
     <!-- O2: 0.000556 -->
     <g transform="translate(299.926563 68.272812)scale(0.1 -0.1)">
      <use xlink:href="#DejaVuSans-79"/>
      <use x="78.710938" xlink:href="#DejaVuSans-50"/>
      <use x="142.333984" xlink:href="#DejaVuSans-58"/>
      <use x="176.025391" xlink:href="#DejaVuSans-32"/>
      <use x="207.8125" xlink:href="#DejaVuSans-48"/>
      <use x="271.435547" xlink:href="#DejaVuSans-46"/>
      <use x="303.222656" xlink:href="#DejaVuSans-48"/>
      <use x="366.845703" xlink:href="#DejaVuSans-48"/>
      <use x="430.46875" xlink:href="#DejaVuSans-48"/>
      <use x="494.091797" xlink:href="#DejaVuSans-53"/>
      <use x="557.714844" xlink:href="#DejaVuSans-53"/>
      <use x="621.337891" xlink:href="#DejaVuSans-54"/>
     </g>
    </g>
    <g id="line2d_42">
     <path d="M 271.926563 79.450938 
L 291.926563 79.450938 
" style="fill:none;stroke:#ffffff;stroke-linecap:square;stroke-width:1.5;"/>
    </g>
    <g id="line2d_43"/>
    <g id="text_26">
     <!-- Ar: 0.995907 -->
     <g transform="translate(299.926563 82.950938)scale(0.1 -0.1)">
      <use xlink:href="#DejaVuSans-65"/>
      <use x="68.408203" xlink:href="#DejaVuSans-114"/>
      <use x="109.505859" xlink:href="#DejaVuSans-58"/>
      <use x="143.197266" xlink:href="#DejaVuSans-32"/>
      <use x="174.984375" xlink:href="#DejaVuSans-48"/>
      <use x="238.607422" xlink:href="#DejaVuSans-46"/>
      <use x="270.394531" xlink:href="#DejaVuSans-57"/>
      <use x="334.017578" xlink:href="#DejaVuSans-57"/>
      <use x="397.640625" xlink:href="#DejaVuSans-53"/>
      <use x="461.263672" xlink:href="#DejaVuSans-57"/>
      <use x="524.886719" xlink:href="#DejaVuSans-48"/>
      <use x="588.509766" xlink:href="#DejaVuSans-55"/>
     </g>
    </g>
   </g>
  </g>
 </g>
 <defs>
  <clipPath id="p33b7977a90">
   <rect height="217.44" width="334.8" x="56.50625" y="22.318125"/>
  </clipPath>
 </defs>
</svg>
