<?xml version="1.0" encoding="utf-8" standalone="no"?>
<!DOCTYPE svg PUBLIC "-//W3C//DTD SVG 1.1//EN"
  "http://www.w3.org/Graphics/SVG/1.1/DTD/svg11.dtd">
<!-- Created with matplotlib (https://matplotlib.org/) -->
<svg height="277.314375pt" version="1.1" viewBox="0 0 395.64375 277.314375" width="395.64375pt" xmlns="http://www.w3.org/2000/svg" xmlns:xlink="http://www.w3.org/1999/xlink">
 <defs>
  <style type="text/css">
*{stroke-linecap:butt;stroke-linejoin:round;}
  </style>
 </defs>
 <g id="figure_1">
  <g id="patch_1">
   <path d="M 0 277.314375 
L 395.64375 277.314375 
L 395.64375 0 
L 0 0 
z
" style="fill:none;"/>
  </g>
  <g id="axes_1">
   <g id="patch_2">
    <path d="M 50.14375 239.758125 
L 384.94375 239.758125 
L 384.94375 22.318125 
L 50.14375 22.318125 
z
" style="fill:none;"/>
   </g>
   <g id="matplotlib.axis_1">
    <g id="xtick_1">
     <g id="line2d_1">
      <defs>
       <path d="M 0 0 
L 0 3.5 
" id="m5ef0aaff40" style="stroke:#000000;stroke-width:0.8;"/>
      </defs>
      <g>
       <use style="stroke:#000000;stroke-width:0.8;" x="65.361932" xlink:href="#m5ef0aaff40" y="239.758125"/>
      </g>
     </g>
     <g id="text_1">
      <!-- 0.0 -->
      <defs>
       <path d="M 31.78125 66.40625 
Q 24.171875 66.40625 20.328125 58.90625 
Q 16.5 51.421875 16.5 36.375 
Q 16.5 21.390625 20.328125 13.890625 
Q 24.171875 6.390625 31.78125 6.390625 
Q 39.453125 6.390625 43.28125 13.890625 
Q 47.125 21.390625 47.125 36.375 
Q 47.125 51.421875 43.28125 58.90625 
Q 39.453125 66.40625 31.78125 66.40625 
z
M 31.78125 74.21875 
Q 44.046875 74.21875 50.515625 64.515625 
Q 56.984375 54.828125 56.984375 36.375 
Q 56.984375 17.96875 50.515625 8.265625 
Q 44.046875 -1.421875 31.78125 -1.421875 
Q 19.53125 -1.421875 13.0625 8.265625 
Q 6.59375 17.96875 6.59375 36.375 
Q 6.59375 54.828125 13.0625 64.515625 
Q 19.53125 74.21875 31.78125 74.21875 
z
" id="DejaVuSans-48"/>
       <path d="M 10.6875 12.40625 
L 21 12.40625 
L 21 0 
L 10.6875 0 
z
" id="DejaVuSans-46"/>
      </defs>
      <g transform="translate(57.410369 254.356562)scale(0.1 -0.1)">
       <use xlink:href="#DejaVuSans-48"/>
       <use x="63.623047" xlink:href="#DejaVuSans-46"/>
       <use x="95.410156" xlink:href="#DejaVuSans-48"/>
      </g>
     </g>
    </g>
    <g id="xtick_2">
     <g id="line2d_2">
      <g>
       <use style="stroke:#000000;stroke-width:0.8;" x="125.899201" xlink:href="#m5ef0aaff40" y="239.758125"/>
      </g>
     </g>
     <g id="text_2">
      <!-- 0.2 -->
      <defs>
       <path d="M 19.1875 8.296875 
L 53.609375 8.296875 
L 53.609375 0 
L 7.328125 0 
L 7.328125 8.296875 
Q 12.9375 14.109375 22.625 23.890625 
Q 32.328125 33.6875 34.8125 36.53125 
Q 39.546875 41.84375 41.421875 45.53125 
Q 43.3125 49.21875 43.3125 52.78125 
Q 43.3125 58.59375 39.234375 62.25 
Q 35.15625 65.921875 28.609375 65.921875 
Q 23.96875 65.921875 18.8125 64.3125 
Q 13.671875 62.703125 7.8125 59.421875 
L 7.8125 69.390625 
Q 13.765625 71.78125 18.9375 73 
Q 24.125 74.21875 28.421875 74.21875 
Q 39.75 74.21875 46.484375 68.546875 
Q 53.21875 62.890625 53.21875 53.421875 
Q 53.21875 48.921875 51.53125 44.890625 
Q 49.859375 40.875 45.40625 35.40625 
Q 44.1875 33.984375 37.640625 27.21875 
Q 31.109375 20.453125 19.1875 8.296875 
z
" id="DejaVuSans-50"/>
      </defs>
      <g transform="translate(117.947638 254.356562)scale(0.1 -0.1)">
       <use xlink:href="#DejaVuSans-48"/>
       <use x="63.623047" xlink:href="#DejaVuSans-46"/>
       <use x="95.410156" xlink:href="#DejaVuSans-50"/>
      </g>
     </g>
    </g>
    <g id="xtick_3">
     <g id="line2d_3">
      <g>
       <use style="stroke:#000000;stroke-width:0.8;" x="186.43647" xlink:href="#m5ef0aaff40" y="239.758125"/>
      </g>
     </g>
     <g id="text_3">
      <!-- 0.4 -->
      <defs>
       <path d="M 37.796875 64.3125 
L 12.890625 25.390625 
L 37.796875 25.390625 
z
M 35.203125 72.90625 
L 47.609375 72.90625 
L 47.609375 25.390625 
L 58.015625 25.390625 
L 58.015625 17.1875 
L 47.609375 17.1875 
L 47.609375 0 
L 37.796875 0 
L 37.796875 17.1875 
L 4.890625 17.1875 
L 4.890625 26.703125 
z
" id="DejaVuSans-52"/>
      </defs>
      <g transform="translate(178.484907 254.356562)scale(0.1 -0.1)">
       <use xlink:href="#DejaVuSans-48"/>
       <use x="63.623047" xlink:href="#DejaVuSans-46"/>
       <use x="95.410156" xlink:href="#DejaVuSans-52"/>
      </g>
     </g>
    </g>
    <g id="xtick_4">
     <g id="line2d_4">
      <g>
       <use style="stroke:#000000;stroke-width:0.8;" x="246.973738" xlink:href="#m5ef0aaff40" y="239.758125"/>
      </g>
     </g>
     <g id="text_4">
      <!-- 0.6 -->
      <defs>
       <path d="M 33.015625 40.375 
Q 26.375 40.375 22.484375 35.828125 
Q 18.609375 31.296875 18.609375 23.390625 
Q 18.609375 15.53125 22.484375 10.953125 
Q 26.375 6.390625 33.015625 6.390625 
Q 39.65625 6.390625 43.53125 10.953125 
Q 47.40625 15.53125 47.40625 23.390625 
Q 47.40625 31.296875 43.53125 35.828125 
Q 39.65625 40.375 33.015625 40.375 
z
M 52.59375 71.296875 
L 52.59375 62.3125 
Q 48.875 64.0625 45.09375 64.984375 
Q 41.3125 65.921875 37.59375 65.921875 
Q 27.828125 65.921875 22.671875 59.328125 
Q 17.53125 52.734375 16.796875 39.40625 
Q 19.671875 43.65625 24.015625 45.921875 
Q 28.375 48.1875 33.59375 48.1875 
Q 44.578125 48.1875 50.953125 41.515625 
Q 57.328125 34.859375 57.328125 23.390625 
Q 57.328125 12.15625 50.6875 5.359375 
Q 44.046875 -1.421875 33.015625 -1.421875 
Q 20.359375 -1.421875 13.671875 8.265625 
Q 6.984375 17.96875 6.984375 36.375 
Q 6.984375 53.65625 15.1875 63.9375 
Q 23.390625 74.21875 37.203125 74.21875 
Q 40.921875 74.21875 44.703125 73.484375 
Q 48.484375 72.75 52.59375 71.296875 
z
" id="DejaVuSans-54"/>
      </defs>
      <g transform="translate(239.022176 254.356562)scale(0.1 -0.1)">
       <use xlink:href="#DejaVuSans-48"/>
       <use x="63.623047" xlink:href="#DejaVuSans-46"/>
       <use x="95.410156" xlink:href="#DejaVuSans-54"/>
      </g>
     </g>
    </g>
    <g id="xtick_5">
     <g id="line2d_5">
      <g>
       <use style="stroke:#000000;stroke-width:0.8;" x="307.511007" xlink:href="#m5ef0aaff40" y="239.758125"/>
      </g>
     </g>
     <g id="text_5">
      <!-- 0.8 -->
      <defs>
       <path d="M 31.78125 34.625 
Q 24.75 34.625 20.71875 30.859375 
Q 16.703125 27.09375 16.703125 20.515625 
Q 16.703125 13.921875 20.71875 10.15625 
Q 24.75 6.390625 31.78125 6.390625 
Q 38.8125 6.390625 42.859375 10.171875 
Q 46.921875 13.96875 46.921875 20.515625 
Q 46.921875 27.09375 42.890625 30.859375 
Q 38.875 34.625 31.78125 34.625 
z
M 21.921875 38.8125 
Q 15.578125 40.375 12.03125 44.71875 
Q 8.5 49.078125 8.5 55.328125 
Q 8.5 64.0625 14.71875 69.140625 
Q 20.953125 74.21875 31.78125 74.21875 
Q 42.671875 74.21875 48.875 69.140625 
Q 55.078125 64.0625 55.078125 55.328125 
Q 55.078125 49.078125 51.53125 44.71875 
Q 48 40.375 41.703125 38.8125 
Q 48.828125 37.15625 52.796875 32.3125 
Q 56.78125 27.484375 56.78125 20.515625 
Q 56.78125 9.90625 50.3125 4.234375 
Q 43.84375 -1.421875 31.78125 -1.421875 
Q 19.734375 -1.421875 13.25 4.234375 
Q 6.78125 9.90625 6.78125 20.515625 
Q 6.78125 27.484375 10.78125 32.3125 
Q 14.796875 37.15625 21.921875 38.8125 
z
M 18.3125 54.390625 
Q 18.3125 48.734375 21.84375 45.5625 
Q 25.390625 42.390625 31.78125 42.390625 
Q 38.140625 42.390625 41.71875 45.5625 
Q 45.3125 48.734375 45.3125 54.390625 
Q 45.3125 60.0625 41.71875 63.234375 
Q 38.140625 66.40625 31.78125 66.40625 
Q 25.390625 66.40625 21.84375 63.234375 
Q 18.3125 60.0625 18.3125 54.390625 
z
" id="DejaVuSans-56"/>
      </defs>
      <g transform="translate(299.559445 254.356562)scale(0.1 -0.1)">
       <use xlink:href="#DejaVuSans-48"/>
       <use x="63.623047" xlink:href="#DejaVuSans-46"/>
       <use x="95.410156" xlink:href="#DejaVuSans-56"/>
      </g>
     </g>
    </g>
    <g id="xtick_6">
     <g id="line2d_6">
      <g>
       <use style="stroke:#000000;stroke-width:0.8;" x="368.048276" xlink:href="#m5ef0aaff40" y="239.758125"/>
      </g>
     </g>
     <g id="text_6">
      <!-- 1.0 -->
      <defs>
       <path d="M 12.40625 8.296875 
L 28.515625 8.296875 
L 28.515625 63.921875 
L 10.984375 60.40625 
L 10.984375 69.390625 
L 28.421875 72.90625 
L 38.28125 72.90625 
L 38.28125 8.296875 
L 54.390625 8.296875 
L 54.390625 0 
L 12.40625 0 
z
" id="DejaVuSans-49"/>
      </defs>
      <g transform="translate(360.096714 254.356562)scale(0.1 -0.1)">
       <use xlink:href="#DejaVuSans-49"/>
       <use x="63.623047" xlink:href="#DejaVuSans-46"/>
       <use x="95.410156" xlink:href="#DejaVuSans-48"/>
      </g>
     </g>
    </g>
    <g id="text_7">
     <!-- Time (ms) -->
     <defs>
      <path d="M -0.296875 72.90625 
L 61.375 72.90625 
L 61.375 64.59375 
L 35.5 64.59375 
L 35.5 0 
L 25.59375 0 
L 25.59375 64.59375 
L -0.296875 64.59375 
z
" id="DejaVuSans-84"/>
      <path d="M 9.421875 54.6875 
L 18.40625 54.6875 
L 18.40625 0 
L 9.421875 0 
z
M 9.421875 75.984375 
L 18.40625 75.984375 
L 18.40625 64.59375 
L 9.421875 64.59375 
z
" id="DejaVuSans-105"/>
      <path d="M 52 44.1875 
Q 55.375 50.25 60.0625 53.125 
Q 64.75 56 71.09375 56 
Q 79.640625 56 84.28125 50.015625 
Q 88.921875 44.046875 88.921875 33.015625 
L 88.921875 0 
L 79.890625 0 
L 79.890625 32.71875 
Q 79.890625 40.578125 77.09375 44.375 
Q 74.3125 48.1875 68.609375 48.1875 
Q 61.625 48.1875 57.5625 43.546875 
Q 53.515625 38.921875 53.515625 30.90625 
L 53.515625 0 
L 44.484375 0 
L 44.484375 32.71875 
Q 44.484375 40.625 41.703125 44.40625 
Q 38.921875 48.1875 33.109375 48.1875 
Q 26.21875 48.1875 22.15625 43.53125 
Q 18.109375 38.875 18.109375 30.90625 
L 18.109375 0 
L 9.078125 0 
L 9.078125 54.6875 
L 18.109375 54.6875 
L 18.109375 46.1875 
Q 21.1875 51.21875 25.484375 53.609375 
Q 29.78125 56 35.6875 56 
Q 41.65625 56 45.828125 52.96875 
Q 50 49.953125 52 44.1875 
z
" id="DejaVuSans-109"/>
      <path d="M 56.203125 29.59375 
L 56.203125 25.203125 
L 14.890625 25.203125 
Q 15.484375 15.921875 20.484375 11.0625 
Q 25.484375 6.203125 34.421875 6.203125 
Q 39.59375 6.203125 44.453125 7.46875 
Q 49.3125 8.734375 54.109375 11.28125 
L 54.109375 2.78125 
Q 49.265625 0.734375 44.1875 -0.34375 
Q 39.109375 -1.421875 33.890625 -1.421875 
Q 20.796875 -1.421875 13.15625 6.1875 
Q 5.515625 13.8125 5.515625 26.8125 
Q 5.515625 40.234375 12.765625 48.109375 
Q 20.015625 56 32.328125 56 
Q 43.359375 56 49.78125 48.890625 
Q 56.203125 41.796875 56.203125 29.59375 
z
M 47.21875 32.234375 
Q 47.125 39.59375 43.09375 43.984375 
Q 39.0625 48.390625 32.421875 48.390625 
Q 24.90625 48.390625 20.390625 44.140625 
Q 15.875 39.890625 15.1875 32.171875 
z
" id="DejaVuSans-101"/>
      <path id="DejaVuSans-32"/>
      <path d="M 31 75.875 
Q 24.46875 64.65625 21.28125 53.65625 
Q 18.109375 42.671875 18.109375 31.390625 
Q 18.109375 20.125 21.3125 9.0625 
Q 24.515625 -2 31 -13.1875 
L 23.1875 -13.1875 
Q 15.875 -1.703125 12.234375 9.375 
Q 8.59375 20.453125 8.59375 31.390625 
Q 8.59375 42.28125 12.203125 53.3125 
Q 15.828125 64.359375 23.1875 75.875 
z
" id="DejaVuSans-40"/>
      <path d="M 44.28125 53.078125 
L 44.28125 44.578125 
Q 40.484375 46.53125 36.375 47.5 
Q 32.28125 48.484375 27.875 48.484375 
Q 21.1875 48.484375 17.84375 46.4375 
Q 14.5 44.390625 14.5 40.28125 
Q 14.5 37.15625 16.890625 35.375 
Q 19.28125 33.59375 26.515625 31.984375 
L 29.59375 31.296875 
Q 39.15625 29.25 43.1875 25.515625 
Q 47.21875 21.78125 47.21875 15.09375 
Q 47.21875 7.46875 41.1875 3.015625 
Q 35.15625 -1.421875 24.609375 -1.421875 
Q 20.21875 -1.421875 15.453125 -0.5625 
Q 10.6875 0.296875 5.421875 2 
L 5.421875 11.28125 
Q 10.40625 8.6875 15.234375 7.390625 
Q 20.0625 6.109375 24.8125 6.109375 
Q 31.15625 6.109375 34.5625 8.28125 
Q 37.984375 10.453125 37.984375 14.40625 
Q 37.984375 18.0625 35.515625 20.015625 
Q 33.0625 21.96875 24.703125 23.78125 
L 21.578125 24.515625 
Q 13.234375 26.265625 9.515625 29.90625 
Q 5.8125 33.546875 5.8125 39.890625 
Q 5.8125 47.609375 11.28125 51.796875 
Q 16.75 56 26.8125 56 
Q 31.78125 56 36.171875 55.265625 
Q 40.578125 54.546875 44.28125 53.078125 
z
" id="DejaVuSans-115"/>
      <path d="M 8.015625 75.875 
L 15.828125 75.875 
Q 23.140625 64.359375 26.78125 53.3125 
Q 30.421875 42.28125 30.421875 31.390625 
Q 30.421875 20.453125 26.78125 9.375 
Q 23.140625 -1.703125 15.828125 -13.1875 
L 8.015625 -13.1875 
Q 14.5 -2 17.703125 9.0625 
Q 20.90625 20.125 20.90625 31.390625 
Q 20.90625 42.671875 17.703125 53.65625 
Q 14.5 64.65625 8.015625 75.875 
z
" id="DejaVuSans-41"/>
     </defs>
     <g transform="translate(192.190625 268.034687)scale(0.1 -0.1)">
      <use xlink:href="#DejaVuSans-84"/>
      <use x="61.037109" xlink:href="#DejaVuSans-105"/>
      <use x="88.820312" xlink:href="#DejaVuSans-109"/>
      <use x="186.232422" xlink:href="#DejaVuSans-101"/>
      <use x="247.755859" xlink:href="#DejaVuSans-32"/>
      <use x="279.542969" xlink:href="#DejaVuSans-40"/>
      <use x="318.556641" xlink:href="#DejaVuSans-109"/>
      <use x="415.96875" xlink:href="#DejaVuSans-115"/>
      <use x="468.068359" xlink:href="#DejaVuSans-41"/>
     </g>
    </g>
   </g>
   <g id="matplotlib.axis_2">
    <g id="ytick_1">
     <g id="line2d_7">
      <defs>
       <path d="M 0 0 
L -3.5 0 
" id="mfb73872006" style="stroke:#000000;stroke-width:0.8;"/>
      </defs>
      <g>
       <use style="stroke:#000000;stroke-width:0.8;" x="50.14375" xlink:href="#mfb73872006" y="230.899313"/>
      </g>
     </g>
     <g id="text_8">
      <!-- 0.00 -->
      <g transform="translate(20.878125 234.698532)scale(0.1 -0.1)">
       <use xlink:href="#DejaVuSans-48"/>
       <use x="63.623047" xlink:href="#DejaVuSans-46"/>
       <use x="95.410156" xlink:href="#DejaVuSans-48"/>
       <use x="159.033203" xlink:href="#DejaVuSans-48"/>
      </g>
     </g>
    </g>
    <g id="ytick_2">
     <g id="line2d_8">
      <g>
       <use style="stroke:#000000;stroke-width:0.8;" x="50.14375" xlink:href="#mfb73872006" y="205.301174"/>
      </g>
     </g>
     <g id="text_9">
      <!-- 0.02 -->
      <g transform="translate(20.878125 209.100392)scale(0.1 -0.1)">
       <use xlink:href="#DejaVuSans-48"/>
       <use x="63.623047" xlink:href="#DejaVuSans-46"/>
       <use x="95.410156" xlink:href="#DejaVuSans-48"/>
       <use x="159.033203" xlink:href="#DejaVuSans-50"/>
      </g>
     </g>
    </g>
    <g id="ytick_3">
     <g id="line2d_9">
      <g>
       <use style="stroke:#000000;stroke-width:0.8;" x="50.14375" xlink:href="#mfb73872006" y="179.703034"/>
      </g>
     </g>
     <g id="text_10">
      <!-- 0.04 -->
      <g transform="translate(20.878125 183.502253)scale(0.1 -0.1)">
       <use xlink:href="#DejaVuSans-48"/>
       <use x="63.623047" xlink:href="#DejaVuSans-46"/>
       <use x="95.410156" xlink:href="#DejaVuSans-48"/>
       <use x="159.033203" xlink:href="#DejaVuSans-52"/>
      </g>
     </g>
    </g>
    <g id="ytick_4">
     <g id="line2d_10">
      <g>
       <use style="stroke:#000000;stroke-width:0.8;" x="50.14375" xlink:href="#mfb73872006" y="154.104894"/>
      </g>
     </g>
     <g id="text_11">
      <!-- 0.06 -->
      <g transform="translate(20.878125 157.904113)scale(0.1 -0.1)">
       <use xlink:href="#DejaVuSans-48"/>
       <use x="63.623047" xlink:href="#DejaVuSans-46"/>
       <use x="95.410156" xlink:href="#DejaVuSans-48"/>
       <use x="159.033203" xlink:href="#DejaVuSans-54"/>
      </g>
     </g>
    </g>
    <g id="ytick_5">
     <g id="line2d_11">
      <g>
       <use style="stroke:#000000;stroke-width:0.8;" x="50.14375" xlink:href="#mfb73872006" y="128.506754"/>
      </g>
     </g>
     <g id="text_12">
      <!-- 0.08 -->
      <g transform="translate(20.878125 132.305973)scale(0.1 -0.1)">
       <use xlink:href="#DejaVuSans-48"/>
       <use x="63.623047" xlink:href="#DejaVuSans-46"/>
       <use x="95.410156" xlink:href="#DejaVuSans-48"/>
       <use x="159.033203" xlink:href="#DejaVuSans-56"/>
      </g>
     </g>
    </g>
    <g id="ytick_6">
     <g id="line2d_12">
      <g>
       <use style="stroke:#000000;stroke-width:0.8;" x="50.14375" xlink:href="#mfb73872006" y="102.908615"/>
      </g>
     </g>
     <g id="text_13">
      <!-- 0.10 -->
      <g transform="translate(20.878125 106.707833)scale(0.1 -0.1)">
       <use xlink:href="#DejaVuSans-48"/>
       <use x="63.623047" xlink:href="#DejaVuSans-46"/>
       <use x="95.410156" xlink:href="#DejaVuSans-49"/>
       <use x="159.033203" xlink:href="#DejaVuSans-48"/>
      </g>
     </g>
    </g>
    <g id="ytick_7">
     <g id="line2d_13">
      <g>
       <use style="stroke:#000000;stroke-width:0.8;" x="50.14375" xlink:href="#mfb73872006" y="77.310475"/>
      </g>
     </g>
     <g id="text_14">
      <!-- 0.12 -->
      <g transform="translate(20.878125 81.109694)scale(0.1 -0.1)">
       <use xlink:href="#DejaVuSans-48"/>
       <use x="63.623047" xlink:href="#DejaVuSans-46"/>
       <use x="95.410156" xlink:href="#DejaVuSans-49"/>
       <use x="159.033203" xlink:href="#DejaVuSans-50"/>
      </g>
     </g>
    </g>
    <g id="ytick_8">
     <g id="line2d_14">
      <g>
       <use style="stroke:#000000;stroke-width:0.8;" x="50.14375" xlink:href="#mfb73872006" y="51.712335"/>
      </g>
     </g>
     <g id="text_15">
      <!-- 0.14 -->
      <g transform="translate(20.878125 55.511554)scale(0.1 -0.1)">
       <use xlink:href="#DejaVuSans-48"/>
       <use x="63.623047" xlink:href="#DejaVuSans-46"/>
       <use x="95.410156" xlink:href="#DejaVuSans-49"/>
       <use x="159.033203" xlink:href="#DejaVuSans-52"/>
      </g>
     </g>
    </g>
    <g id="ytick_9">
     <g id="line2d_15">
      <g>
       <use style="stroke:#000000;stroke-width:0.8;" x="50.14375" xlink:href="#mfb73872006" y="26.114195"/>
      </g>
     </g>
     <g id="text_16">
      <!-- 0.16 -->
      <g transform="translate(20.878125 29.913414)scale(0.1 -0.1)">
       <use xlink:href="#DejaVuSans-48"/>
       <use x="63.623047" xlink:href="#DejaVuSans-46"/>
       <use x="95.410156" xlink:href="#DejaVuSans-49"/>
       <use x="159.033203" xlink:href="#DejaVuSans-54"/>
      </g>
     </g>
    </g>
    <g id="text_17">
     <!-- Absorbance227 -->
     <defs>
      <path d="M 34.1875 63.1875 
L 20.796875 26.90625 
L 47.609375 26.90625 
z
M 28.609375 72.90625 
L 39.796875 72.90625 
L 67.578125 0 
L 57.328125 0 
L 50.6875 18.703125 
L 17.828125 18.703125 
L 11.1875 0 
L 0.78125 0 
z
" id="DejaVuSans-65"/>
      <path d="M 48.6875 27.296875 
Q 48.6875 37.203125 44.609375 42.84375 
Q 40.53125 48.484375 33.40625 48.484375 
Q 26.265625 48.484375 22.1875 42.84375 
Q 18.109375 37.203125 18.109375 27.296875 
Q 18.109375 17.390625 22.1875 11.75 
Q 26.265625 6.109375 33.40625 6.109375 
Q 40.53125 6.109375 44.609375 11.75 
Q 48.6875 17.390625 48.6875 27.296875 
z
M 18.109375 46.390625 
Q 20.953125 51.265625 25.265625 53.625 
Q 29.59375 56 35.59375 56 
Q 45.5625 56 51.78125 48.09375 
Q 58.015625 40.1875 58.015625 27.296875 
Q 58.015625 14.40625 51.78125 6.484375 
Q 45.5625 -1.421875 35.59375 -1.421875 
Q 29.59375 -1.421875 25.265625 0.953125 
Q 20.953125 3.328125 18.109375 8.203125 
L 18.109375 0 
L 9.078125 0 
L 9.078125 75.984375 
L 18.109375 75.984375 
z
" id="DejaVuSans-98"/>
      <path d="M 30.609375 48.390625 
Q 23.390625 48.390625 19.1875 42.75 
Q 14.984375 37.109375 14.984375 27.296875 
Q 14.984375 17.484375 19.15625 11.84375 
Q 23.34375 6.203125 30.609375 6.203125 
Q 37.796875 6.203125 41.984375 11.859375 
Q 46.1875 17.53125 46.1875 27.296875 
Q 46.1875 37.015625 41.984375 42.703125 
Q 37.796875 48.390625 30.609375 48.390625 
z
M 30.609375 56 
Q 42.328125 56 49.015625 48.375 
Q 55.71875 40.765625 55.71875 27.296875 
Q 55.71875 13.875 49.015625 6.21875 
Q 42.328125 -1.421875 30.609375 -1.421875 
Q 18.84375 -1.421875 12.171875 6.21875 
Q 5.515625 13.875 5.515625 27.296875 
Q 5.515625 40.765625 12.171875 48.375 
Q 18.84375 56 30.609375 56 
z
" id="DejaVuSans-111"/>
      <path d="M 41.109375 46.296875 
Q 39.59375 47.171875 37.8125 47.578125 
Q 36.03125 48 33.890625 48 
Q 26.265625 48 22.1875 43.046875 
Q 18.109375 38.09375 18.109375 28.8125 
L 18.109375 0 
L 9.078125 0 
L 9.078125 54.6875 
L 18.109375 54.6875 
L 18.109375 46.1875 
Q 20.953125 51.171875 25.484375 53.578125 
Q 30.03125 56 36.53125 56 
Q 37.453125 56 38.578125 55.875 
Q 39.703125 55.765625 41.0625 55.515625 
z
" id="DejaVuSans-114"/>
      <path d="M 34.28125 27.484375 
Q 23.390625 27.484375 19.1875 25 
Q 14.984375 22.515625 14.984375 16.5 
Q 14.984375 11.71875 18.140625 8.90625 
Q 21.296875 6.109375 26.703125 6.109375 
Q 34.1875 6.109375 38.703125 11.40625 
Q 43.21875 16.703125 43.21875 25.484375 
L 43.21875 27.484375 
z
M 52.203125 31.203125 
L 52.203125 0 
L 43.21875 0 
L 43.21875 8.296875 
Q 40.140625 3.328125 35.546875 0.953125 
Q 30.953125 -1.421875 24.3125 -1.421875 
Q 15.921875 -1.421875 10.953125 3.296875 
Q 6 8.015625 6 15.921875 
Q 6 25.140625 12.171875 29.828125 
Q 18.359375 34.515625 30.609375 34.515625 
L 43.21875 34.515625 
L 43.21875 35.40625 
Q 43.21875 41.609375 39.140625 45 
Q 35.0625 48.390625 27.6875 48.390625 
Q 23 48.390625 18.546875 47.265625 
Q 14.109375 46.140625 10.015625 43.890625 
L 10.015625 52.203125 
Q 14.9375 54.109375 19.578125 55.046875 
Q 24.21875 56 28.609375 56 
Q 40.484375 56 46.34375 49.84375 
Q 52.203125 43.703125 52.203125 31.203125 
z
" id="DejaVuSans-97"/>
      <path d="M 54.890625 33.015625 
L 54.890625 0 
L 45.90625 0 
L 45.90625 32.71875 
Q 45.90625 40.484375 42.875 44.328125 
Q 39.84375 48.1875 33.796875 48.1875 
Q 26.515625 48.1875 22.3125 43.546875 
Q 18.109375 38.921875 18.109375 30.90625 
L 18.109375 0 
L 9.078125 0 
L 9.078125 54.6875 
L 18.109375 54.6875 
L 18.109375 46.1875 
Q 21.34375 51.125 25.703125 53.5625 
Q 30.078125 56 35.796875 56 
Q 45.21875 56 50.046875 50.171875 
Q 54.890625 44.34375 54.890625 33.015625 
z
" id="DejaVuSans-110"/>
      <path d="M 48.78125 52.59375 
L 48.78125 44.1875 
Q 44.96875 46.296875 41.140625 47.34375 
Q 37.3125 48.390625 33.40625 48.390625 
Q 24.65625 48.390625 19.8125 42.84375 
Q 14.984375 37.3125 14.984375 27.296875 
Q 14.984375 17.28125 19.8125 11.734375 
Q 24.65625 6.203125 33.40625 6.203125 
Q 37.3125 6.203125 41.140625 7.25 
Q 44.96875 8.296875 48.78125 10.40625 
L 48.78125 2.09375 
Q 45.015625 0.34375 40.984375 -0.53125 
Q 36.96875 -1.421875 32.421875 -1.421875 
Q 20.0625 -1.421875 12.78125 6.34375 
Q 5.515625 14.109375 5.515625 27.296875 
Q 5.515625 40.671875 12.859375 48.328125 
Q 20.21875 56 33.015625 56 
Q 37.15625 56 41.109375 55.140625 
Q 45.0625 54.296875 48.78125 52.59375 
z
" id="DejaVuSans-99"/>
      <path d="M 8.203125 72.90625 
L 55.078125 72.90625 
L 55.078125 68.703125 
L 28.609375 0 
L 18.3125 0 
L 43.21875 64.59375 
L 8.203125 64.59375 
z
" id="DejaVuSans-55"/>
     </defs>
     <g transform="translate(14.798438 170.12875)rotate(-90)scale(0.1 -0.1)">
      <use xlink:href="#DejaVuSans-65"/>
      <use x="68.408203" xlink:href="#DejaVuSans-98"/>
      <use x="131.884766" xlink:href="#DejaVuSans-115"/>
      <use x="183.984375" xlink:href="#DejaVuSans-111"/>
      <use x="245.166016" xlink:href="#DejaVuSans-114"/>
      <use x="286.279297" xlink:href="#DejaVuSans-98"/>
      <use x="349.755859" xlink:href="#DejaVuSans-97"/>
      <use x="411.035156" xlink:href="#DejaVuSans-110"/>
      <use x="474.414062" xlink:href="#DejaVuSans-99"/>
      <use x="529.394531" xlink:href="#DejaVuSans-101"/>
      <use x="590.917969" xlink:href="#DejaVuSans-50"/>
      <use x="654.541016" xlink:href="#DejaVuSans-50"/>
      <use x="718.164062" xlink:href="#DejaVuSans-55"/>
     </g>
    </g>
   </g>
   <g id="line2d_16">
    <defs>
     <path d="M 0 3 
C 0.795609 3 1.55874 2.683901 2.12132 2.12132 
C 2.683901 1.55874 3 0.795609 3 0 
C 3 -0.795609 2.683901 -1.55874 2.12132 -2.12132 
C 1.55874 -2.683901 0.795609 -3 0 -3 
C -0.795609 -3 -1.55874 -2.683901 -2.12132 -2.12132 
C -2.683901 -1.55874 -3 -0.795609 -3 0 
C -3 0.795609 -2.683901 1.55874 -2.12132 2.12132 
C -1.55874 2.683901 -0.795609 3 0 3 
z
" id="m4232031826" style="stroke:#000000;"/>
    </defs>
    <g clip-path="url(#pfd4fed24de)">
     <use style="stroke:#000000;" x="65.361932" xlink:href="#m4232031826" y="134.828343"/>
     <use style="stroke:#000000;" x="65.361939" xlink:href="#m4232031826" y="134.828471"/>
     <use style="stroke:#000000;" x="65.36196" xlink:href="#m4232031826" y="134.828471"/>
     <use style="stroke:#000000;" x="65.361982" xlink:href="#m4232031826" y="134.828471"/>
     <use style="stroke:#000000;" x="65.362004" xlink:href="#m4232031826" y="134.828471"/>
     <use style="stroke:#000000;" x="65.362026" xlink:href="#m4232031826" y="134.828471"/>
     <use style="stroke:#000000;" x="65.362073" xlink:href="#m4232031826" y="134.828471"/>
     <use style="stroke:#000000;" x="65.362159" xlink:href="#m4232031826" y="134.828599"/>
     <use style="stroke:#000000;" x="65.36231" xlink:href="#m4232031826" y="134.828727"/>
     <use style="stroke:#000000;" x="65.362583" xlink:href="#m4232031826" y="134.828983"/>
     <use style="stroke:#000000;" x="65.36313" xlink:href="#m4232031826" y="134.829367"/>
     <use style="stroke:#000000;" x="65.363678" xlink:href="#m4232031826" y="134.829751"/>
     <use style="stroke:#000000;" x="65.364226" xlink:href="#m4232031826" y="134.830263"/>
     <use style="stroke:#000000;" x="65.36511" xlink:href="#m4232031826" y="134.830903"/>
     <use style="stroke:#000000;" x="65.365988" xlink:href="#m4232031826" y="134.831671"/>
     <use style="stroke:#000000;" x="65.366866" xlink:href="#m4232031826" y="134.832311"/>
     <use style="stroke:#000000;" x="65.367774" xlink:href="#m4232031826" y="134.832951"/>
     <use style="stroke:#000000;" x="65.36956" xlink:href="#m4232031826" y="134.834359"/>
     <use style="stroke:#000000;" x="65.371376" xlink:href="#m4232031826" y="134.835638"/>
     <use style="stroke:#000000;" x="65.37643" xlink:href="#m4232031826" y="134.839222"/>
     <use style="stroke:#000000;" x="65.381455" xlink:href="#m4232031826" y="134.842422"/>
     <use style="stroke:#000000;" x="65.38648" xlink:href="#m4232031826" y="134.845494"/>
     <use style="stroke:#000000;" x="65.391504" xlink:href="#m4232031826" y="134.848437"/>
     <use style="stroke:#000000;" x="65.396438" xlink:href="#m4232031826" y="134.850997"/>
     <use style="stroke:#000000;" x="65.404611" xlink:href="#m4232031826" y="134.854837"/>
     <use style="stroke:#000000;" x="65.412783" xlink:href="#m4232031826" y="134.858037"/>
     <use style="stroke:#000000;" x="65.420956" xlink:href="#m4232031826" y="134.860597"/>
     <use style="stroke:#000000;" x="65.429128" xlink:href="#m4232031826" y="134.862644"/>
     <use style="stroke:#000000;" x="65.437301" xlink:href="#m4232031826" y="134.864052"/>
     <use style="stroke:#000000;" x="65.445473" xlink:href="#m4232031826" y="134.864948"/>
     <use style="stroke:#000000;" x="65.457581" xlink:href="#m4232031826" y="134.865204"/>
     <use style="stroke:#000000;" x="65.477861" xlink:href="#m4232031826" y="134.862772"/>
     <use style="stroke:#000000;" x="65.497838" xlink:href="#m4232031826" y="134.857141"/>
     <use style="stroke:#000000;" x="65.518118" xlink:href="#m4232031826" y="134.848054"/>
     <use style="stroke:#000000;" x="65.538095" xlink:href="#m4232031826" y="134.835638"/>
     <use style="stroke:#000000;" x="65.558073" xlink:href="#m4232031826" y="134.820152"/>
     <use style="stroke:#000000;" x="65.578353" xlink:href="#m4232031826" y="134.801337"/>
     <use style="stroke:#000000;" x="65.59833" xlink:href="#m4232031826" y="134.779451"/>
     <use style="stroke:#000000;" x="65.61861" xlink:href="#m4232031826" y="134.754364"/>
     <use style="stroke:#000000;" x="65.638587" xlink:href="#m4232031826" y="134.726334"/>
     <use style="stroke:#000000;" x="65.676726" xlink:href="#m4232031826" y="134.664003"/>
     <use style="stroke:#000000;" x="65.703967" xlink:href="#m4232031826" y="134.616646"/>
     <use style="stroke:#000000;" x="65.728182" xlink:href="#m4232031826" y="134.564426"/>
     <use style="stroke:#000000;" x="65.755424" xlink:href="#m4232031826" y="134.507726"/>
     <use style="stroke:#000000;" x="65.779639" xlink:href="#m4232031826" y="134.446547"/>
     <use style="stroke:#000000;" x="65.806881" xlink:href="#m4232031826" y="134.381015"/>
     <use style="stroke:#000000;" x="65.831096" xlink:href="#m4232031826" y="134.311005"/>
     <use style="stroke:#000000;" x="65.858337" xlink:href="#m4232031826" y="134.236898"/>
     <use style="stroke:#000000;" x="65.900714" xlink:href="#m4232031826" y="134.1043"/>
     <use style="stroke:#000000;" x="65.94309" xlink:href="#m4232031826" y="133.960694"/>
     <use style="stroke:#000000;" x="65.985466" xlink:href="#m4232031826" y="133.806465"/>
     <use style="stroke:#000000;" x="66.027842" xlink:href="#m4232031826" y="133.641741"/>
     <use style="stroke:#000000;" x="66.070218" xlink:href="#m4232031826" y="133.467034"/>
     <use style="stroke:#000000;" x="66.112594" xlink:href="#m4232031826" y="133.282727"/>
     <use style="stroke:#000000;" x="66.15497" xlink:href="#m4232031826" y="133.088949"/>
     <use style="stroke:#000000;" x="66.200373" xlink:href="#m4232031826" y="132.88634"/>
     <use style="stroke:#000000;" x="66.242749" xlink:href="#m4232031826" y="132.674899"/>
     <use style="stroke:#000000;" x="66.285125" xlink:href="#m4232031826" y="132.455139"/>
     <use style="stroke:#000000;" x="66.327501" xlink:href="#m4232031826" y="132.227444"/>
     <use style="stroke:#000000;" x="66.369877" xlink:href="#m4232031826" y="131.991813"/>
     <use style="stroke:#000000;" x="66.412253" xlink:href="#m4232031826" y="131.748759"/>
     <use style="stroke:#000000;" x="66.45463" xlink:href="#m4232031826" y="131.498665"/>
     <use style="stroke:#000000;" x="66.497006" xlink:href="#m4232031826" y="131.241532"/>
     <use style="stroke:#000000;" x="66.542409" xlink:href="#m4232031826" y="130.977743"/>
     <use style="stroke:#000000;" x="66.584785" xlink:href="#m4232031826" y="130.707554"/>
     <use style="stroke:#000000;" x="66.627161" xlink:href="#m4232031826" y="130.431222"/>
     <use style="stroke:#000000;" x="66.669537" xlink:href="#m4232031826" y="130.149003"/>
     <use style="stroke:#000000;" x="66.711913" xlink:href="#m4232031826" y="129.861152"/>
     <use style="stroke:#000000;" x="66.754289" xlink:href="#m4232031826" y="129.567797"/>
     <use style="stroke:#000000;" x="66.796665" xlink:href="#m4232031826" y="129.269451"/>
     <use style="stroke:#000000;" x="66.839041" xlink:href="#m4232031826" y="128.965985"/>
     <use style="stroke:#000000;" x="66.905632" xlink:href="#m4232031826" y="128.497923"/>
     <use style="stroke:#000000;" x="66.969196" xlink:href="#m4232031826" y="128.01975"/>
     <use style="stroke:#000000;" x="67.035787" xlink:href="#m4232031826" y="127.532105"/>
     <use style="stroke:#000000;" x="67.099351" xlink:href="#m4232031826" y="127.035629"/>
     <use style="stroke:#000000;" x="67.162916" xlink:href="#m4232031826" y="126.530962"/>
     <use style="stroke:#000000;" x="67.229507" xlink:href="#m4232031826" y="126.018743"/>
     <use style="stroke:#000000;" x="67.293071" xlink:href="#m4232031826" y="125.499485"/>
     <use style="stroke:#000000;" x="67.356635" xlink:href="#m4232031826" y="124.973827"/>
     <use style="stroke:#000000;" x="67.423226" xlink:href="#m4232031826" y="124.442282"/>
     <use style="stroke:#000000;" x="67.48679" xlink:href="#m4232031826" y="123.905233"/>
     <use style="stroke:#000000;" x="67.550354" xlink:href="#m4232031826" y="123.363448"/>
     <use style="stroke:#000000;" x="67.616945" xlink:href="#m4232031826" y="122.817056"/>
     <use style="stroke:#000000;" x="67.680509" xlink:href="#m4232031826" y="122.266696"/>
     <use style="stroke:#000000;" x="67.7471" xlink:href="#m4232031826" y="121.71288"/>
     <use style="stroke:#000000;" x="67.810664" xlink:href="#m4232031826" y="121.155737"/>
     <use style="stroke:#000000;" x="67.874228" xlink:href="#m4232031826" y="120.595905"/>
     <use style="stroke:#000000;" x="67.940819" xlink:href="#m4232031826" y="120.033514"/>
     <use style="stroke:#000000;" x="68.004384" xlink:href="#m4232031826" y="119.469203"/>
     <use style="stroke:#000000;" x="68.067948" xlink:href="#m4232031826" y="118.9031"/>
     <use style="stroke:#000000;" x="68.134539" xlink:href="#m4232031826" y="118.33559"/>
     <use style="stroke:#000000;" x="68.198103" xlink:href="#m4232031826" y="117.767055"/>
     <use style="stroke:#000000;" x="68.261667" xlink:href="#m4232031826" y="117.197624"/>
     <use style="stroke:#000000;" x="68.328258" xlink:href="#m4232031826" y="116.627682"/>
     <use style="stroke:#000000;" x="68.388795" xlink:href="#m4232031826" y="116.057483"/>
     <use style="stroke:#000000;" x="68.449333" xlink:href="#m4232031826" y="115.487285"/>
     <use style="stroke:#000000;" x="68.50987" xlink:href="#m4232031826" y="114.917342"/>
     <use style="stroke:#000000;" x="68.600676" xlink:href="#m4232031826" y="114.347783"/>
     <use style="stroke:#000000;" x="68.661213" xlink:href="#m4232031826" y="113.778993"/>
     <use style="stroke:#000000;" x="68.72175" xlink:href="#m4232031826" y="113.21097"/>
     <use style="stroke:#000000;" x="68.782288" xlink:href="#m4232031826" y="112.644099"/>
     <use style="stroke:#000000;" x="68.842825" xlink:href="#m4232031826" y="112.078508"/>
     <use style="stroke:#000000;" x="68.903362" xlink:href="#m4232031826" y="111.514325"/>
     <use style="stroke:#000000;" x="68.963899" xlink:href="#m4232031826" y="110.951678"/>
     <use style="stroke:#000000;" x="69.024437" xlink:href="#m4232031826" y="110.390823"/>
     <use style="stroke:#000000;" x="69.115242" xlink:href="#m4232031826" y="109.831888"/>
     <use style="stroke:#000000;" x="69.17578" xlink:href="#m4232031826" y="109.275128"/>
     <use style="stroke:#000000;" x="69.236317" xlink:href="#m4232031826" y="108.720416"/>
     <use style="stroke:#000000;" x="69.296854" xlink:href="#m4232031826" y="108.168008"/>
     <use style="stroke:#000000;" x="69.357392" xlink:href="#m4232031826" y="107.61816"/>
     <use style="stroke:#000000;" x="69.448197" xlink:href="#m4232031826" y="106.798124"/>
     <use style="stroke:#000000;" x="69.569272" xlink:href="#m4232031826" y="105.984103"/>
     <use style="stroke:#000000;" x="69.660078" xlink:href="#m4232031826" y="105.17661"/>
     <use style="stroke:#000000;" x="69.750884" xlink:href="#m4232031826" y="104.3759"/>
     <use style="stroke:#000000;" x="69.84169" xlink:href="#m4232031826" y="103.582102"/>
     <use style="stroke:#000000;" x="69.932496" xlink:href="#m4232031826" y="102.795983"/>
     <use style="stroke:#000000;" x="70.05357" xlink:href="#m4232031826" y="102.016519"/>
     <use style="stroke:#000000;" x="70.144376" xlink:href="#m4232031826" y="101.244736"/>
     <use style="stroke:#000000;" x="70.235182" xlink:href="#m4232031826" y="100.481911"/>
     <use style="stroke:#000000;" x="70.325988" xlink:href="#m4232031826" y="99.726766"/>
     <use style="stroke:#000000;" x="70.416794" xlink:href="#m4232031826" y="98.9793"/>
     <use style="stroke:#000000;" x="70.537868" xlink:href="#m4232031826" y="98.239514"/>
     <use style="stroke:#000000;" x="70.628674" xlink:href="#m4232031826" y="97.509967"/>
     <use style="stroke:#000000;" x="70.71948" xlink:href="#m4232031826" y="96.78682"/>
     <use style="stroke:#000000;" x="70.810286" xlink:href="#m4232031826" y="96.073911"/>
     <use style="stroke:#000000;" x="70.901092" xlink:href="#m4232031826" y="95.368683"/>
     <use style="stroke:#000000;" x="71.022166" xlink:href="#m4232031826" y="94.673693"/>
     <use style="stroke:#000000;" x="71.112972" xlink:href="#m4232031826" y="93.986383"/>
     <use style="stroke:#000000;" x="71.203778" xlink:href="#m4232031826" y="93.308032"/>
     <use style="stroke:#000000;" x="71.294584" xlink:href="#m4232031826" y="92.638641"/>
     <use style="stroke:#000000;" x="71.38539" xlink:href="#m4232031826" y="91.978209"/>
     <use style="stroke:#000000;" x="71.506465" xlink:href="#m4232031826" y="91.326736"/>
     <use style="stroke:#000000;" x="71.597271" xlink:href="#m4232031826" y="90.682943"/>
     <use style="stroke:#000000;" x="71.688076" xlink:href="#m4232031826" y="90.049389"/>
     <use style="stroke:#000000;" x="71.778882" xlink:href="#m4232031826" y="89.424795"/>
     <use style="stroke:#000000;" x="71.869688" xlink:href="#m4232031826" y="88.809159"/>
     <use style="stroke:#000000;" x="71.990763" xlink:href="#m4232031826" y="88.202483"/>
     <use style="stroke:#000000;" x="72.081569" xlink:href="#m4232031826" y="87.603487"/>
     <use style="stroke:#000000;" x="72.172375" xlink:href="#m4232031826" y="87.01473"/>
     <use style="stroke:#000000;" x="72.26318" xlink:href="#m4232031826" y="86.433652"/>
     <use style="stroke:#000000;" x="72.384255" xlink:href="#m4232031826" y="85.862813"/>
     <use style="stroke:#000000;" x="72.475061" xlink:href="#m4232031826" y="85.299654"/>
     <use style="stroke:#000000;" x="72.565867" xlink:href="#m4232031826" y="84.745455"/>
     <use style="stroke:#000000;" x="72.656673" xlink:href="#m4232031826" y="84.198934"/>
     <use style="stroke:#000000;" x="72.747479" xlink:href="#m4232031826" y="83.662653"/>
     <use style="stroke:#000000;" x="72.868553" xlink:href="#m4232031826" y="83.134052"/>
     <use style="stroke:#000000;" x="72.959359" xlink:href="#m4232031826" y="82.614409"/>
     <use style="stroke:#000000;" x="73.050165" xlink:href="#m4232031826" y="82.102447"/>
     <use style="stroke:#000000;" x="73.140971" xlink:href="#m4232031826" y="81.599443"/>
     <use style="stroke:#000000;" x="73.231777" xlink:href="#m4232031826" y="81.104119"/>
     <use style="stroke:#000000;" x="73.352851" xlink:href="#m4232031826" y="80.617755"/>
     <use style="stroke:#000000;" x="73.473926" xlink:href="#m4232031826" y="79.901007"/>
     <use style="stroke:#000000;" x="73.625269" xlink:href="#m4232031826" y="79.203457"/>
     <use style="stroke:#000000;" x="73.776612" xlink:href="#m4232031826" y="78.522547"/>
     <use style="stroke:#000000;" x="73.927955" xlink:href="#m4232031826" y="77.859555"/>
     <use style="stroke:#000000;" x="74.079299" xlink:href="#m4232031826" y="77.215762"/>
     <use style="stroke:#000000;" x="74.230642" xlink:href="#m4232031826" y="76.588607"/>
     <use style="stroke:#000000;" x="74.351716" xlink:href="#m4232031826" y="75.978092"/>
     <use style="stroke:#000000;" x="74.503059" xlink:href="#m4232031826" y="75.384215"/>
     <use style="stroke:#000000;" x="74.654403" xlink:href="#m4232031826" y="74.808257"/>
     <use style="stroke:#000000;" x="74.805746" xlink:href="#m4232031826" y="74.247657"/>
     <use style="stroke:#000000;" x="74.957089" xlink:href="#m4232031826" y="73.703697"/>
     <use style="stroke:#000000;" x="75.078163" xlink:href="#m4232031826" y="73.176375"/>
     <use style="stroke:#000000;" x="75.229507" xlink:href="#m4232031826" y="72.664413"/>
     <use style="stroke:#000000;" x="75.38085" xlink:href="#m4232031826" y="72.166529"/>
     <use style="stroke:#000000;" x="75.532193" xlink:href="#m4232031826" y="71.685284"/>
     <use style="stroke:#000000;" x="75.683536" xlink:href="#m4232031826" y="71.218118"/>
     <use style="stroke:#000000;" x="75.834879" xlink:href="#m4232031826" y="70.76631"/>
     <use style="stroke:#000000;" x="75.955954" xlink:href="#m4232031826" y="70.328582"/>
     <use style="stroke:#000000;" x="76.107297" xlink:href="#m4232031826" y="69.906213"/>
     <use style="stroke:#000000;" x="76.25864" xlink:href="#m4232031826" y="69.496643"/>
     <use style="stroke:#000000;" x="76.409983" xlink:href="#m4232031826" y="69.099872"/>
     <use style="stroke:#000000;" x="76.561327" xlink:href="#m4232031826" y="68.718459"/>
     <use style="stroke:#000000;" x="76.71267" xlink:href="#m4232031826" y="68.348566"/>
     <use style="stroke:#000000;" x="76.833744" xlink:href="#m4232031826" y="67.992752"/>
     <use style="stroke:#000000;" x="76.985087" xlink:href="#m4232031826" y="67.649737"/>
     <use style="stroke:#000000;" x="77.136431" xlink:href="#m4232031826" y="67.319521"/>
     <use style="stroke:#000000;" x="77.287774" xlink:href="#m4232031826" y="67.000824"/>
     <use style="stroke:#000000;" x="77.499654" xlink:href="#m4232031826" y="66.543897"/>
     <use style="stroke:#000000;" x="77.711535" xlink:href="#m4232031826" y="66.113849"/>
     <use style="stroke:#000000;" x="77.953684" xlink:href="#m4232031826" y="65.709398"/>
     <use style="stroke:#000000;" x="78.165564" xlink:href="#m4232031826" y="65.330546"/>
     <use style="stroke:#000000;" x="78.377445" xlink:href="#m4232031826" y="64.976011"/>
     <use style="stroke:#000000;" x="78.589325" xlink:href="#m4232031826" y="64.644515"/>
     <use style="stroke:#000000;" x="78.831474" xlink:href="#m4232031826" y="64.337338"/>
     <use style="stroke:#000000;" x="79.043355" xlink:href="#m4232031826" y="64.051918"/>
     <use style="stroke:#000000;" x="79.255235" xlink:href="#m4232031826" y="63.788258"/>
     <use style="stroke:#000000;" x="79.467115" xlink:href="#m4232031826" y="63.546355"/>
     <use style="stroke:#000000;" x="79.709265" xlink:href="#m4232031826" y="63.324931"/>
     <use style="stroke:#000000;" x="79.921145" xlink:href="#m4232031826" y="63.122706"/>
     <use style="stroke:#000000;" x="80.133025" xlink:href="#m4232031826" y="62.939679"/>
     <use style="stroke:#000000;" x="80.375174" xlink:href="#m4232031826" y="62.775851"/>
     <use style="stroke:#000000;" x="80.587055" xlink:href="#m4232031826" y="62.631222"/>
     <use style="stroke:#000000;" x="80.798935" xlink:href="#m4232031826" y="62.503231"/>
     <use style="stroke:#000000;" x="81.010816" xlink:href="#m4232031826" y="62.391879"/>
     <use style="stroke:#000000;" x="81.252965" xlink:href="#m4232031826" y="62.298446"/>
     <use style="stroke:#000000;" x="81.464845" xlink:href="#m4232031826" y="62.219092"/>
     <use style="stroke:#000000;" x="81.676726" xlink:href="#m4232031826" y="62.157656"/>
     <use style="stroke:#000000;" x="81.888606" xlink:href="#m4232031826" y="62.10902"/>
     <use style="stroke:#000000;" x="82.130755" xlink:href="#m4232031826" y="62.077022"/>
     <use style="stroke:#000000;" x="82.342636" xlink:href="#m4232031826" y="62.057823"/>
     <use style="stroke:#000000;" x="82.554516" xlink:href="#m4232031826" y="62.052704"/>
     <use style="stroke:#000000;" x="82.766397" xlink:href="#m4232031826" y="62.061663"/>
     <use style="stroke:#000000;" x="83.008546" xlink:href="#m4232031826" y="62.082142"/>
     <use style="stroke:#000000;" x="83.220426" xlink:href="#m4232031826" y="62.115419"/>
     <use style="stroke:#000000;" x="83.432307" xlink:href="#m4232031826" y="62.161496"/>
     <use style="stroke:#000000;" x="83.644187" xlink:href="#m4232031826" y="62.219092"/>
     <use style="stroke:#000000;" x="83.886336" xlink:href="#m4232031826" y="62.286927"/>
     <use style="stroke:#000000;" x="84.098217" xlink:href="#m4232031826" y="62.367561"/>
     <use style="stroke:#000000;" x="84.310097" xlink:href="#m4232031826" y="62.457154"/>
     <use style="stroke:#000000;" x="84.552246" xlink:href="#m4232031826" y="62.556987"/>
     <use style="stroke:#000000;" x="84.764126" xlink:href="#m4232031826" y="62.667059"/>
     <use style="stroke:#000000;" x="84.976007" xlink:href="#m4232031826" y="62.78737"/>
     <use style="stroke:#000000;" x="85.187887" xlink:href="#m4232031826" y="62.916641"/>
     <use style="stroke:#000000;" x="85.430036" xlink:href="#m4232031826" y="63.053591"/>
     <use style="stroke:#000000;" x="85.641917" xlink:href="#m4232031826" y="63.20078"/>
     <use style="stroke:#000000;" x="85.853797" xlink:href="#m4232031826" y="63.355649"/>
     <use style="stroke:#000000;" x="86.186752" xlink:href="#m4232031826" y="63.605231"/>
     <use style="stroke:#000000;" x="86.519707" xlink:href="#m4232031826" y="63.871452"/>
     <use style="stroke:#000000;" x="86.852662" xlink:href="#m4232031826" y="64.155591"/>
     <use style="stroke:#000000;" x="87.185617" xlink:href="#m4232031826" y="64.453809"/>
     <use style="stroke:#000000;" x="87.518572" xlink:href="#m4232031826" y="64.768666"/>
     <use style="stroke:#000000;" x="87.851527" xlink:href="#m4232031826" y="65.096323"/>
     <use style="stroke:#000000;" x="88.184482" xlink:href="#m4232031826" y="65.438058"/>
     <use style="stroke:#000000;" x="88.517437" xlink:href="#m4232031826" y="65.792592"/>
     <use style="stroke:#000000;" x="88.850392" xlink:href="#m4232031826" y="66.158645"/>
     <use style="stroke:#000000;" x="89.183347" xlink:href="#m4232031826" y="66.536218"/>
     <use style="stroke:#000000;" x="89.516302" xlink:href="#m4232031826" y="66.92403"/>
     <use style="stroke:#000000;" x="89.849257" xlink:href="#m4232031826" y="67.323361"/>
     <use style="stroke:#000000;" x="90.182212" xlink:href="#m4232031826" y="67.730371"/>
     <use style="stroke:#000000;" x="90.515167" xlink:href="#m4232031826" y="68.147621"/>
     <use style="stroke:#000000;" x="90.848122" xlink:href="#m4232031826" y="68.57383"/>
     <use style="stroke:#000000;" x="91.181077" xlink:href="#m4232031826" y="69.006438"/>
     <use style="stroke:#000000;" x="91.514032" xlink:href="#m4232031826" y="69.448006"/>
     <use style="stroke:#000000;" x="91.846987" xlink:href="#m4232031826" y="69.895974"/>
     <use style="stroke:#000000;" x="92.179942" xlink:href="#m4232031826" y="70.350341"/>
     <use style="stroke:#000000;" x="92.66424" xlink:href="#m4232031826" y="71.04789"/>
     <use style="stroke:#000000;" x="93.178807" xlink:href="#m4232031826" y="71.758238"/>
     <use style="stroke:#000000;" x="93.663105" xlink:href="#m4232031826" y="72.480106"/>
     <use style="stroke:#000000;" x="94.177672" xlink:href="#m4232031826" y="73.212213"/>
     <use style="stroke:#000000;" x="94.692239" xlink:href="#m4232031826" y="73.954559"/>
     <use style="stroke:#000000;" x="95.176537" xlink:href="#m4232031826" y="74.704584"/>
     <use style="stroke:#000000;" x="95.630566" xlink:href="#m4232031826" y="75.462289"/>
     <use style="stroke:#000000;" x="96.235939" xlink:href="#m4232031826" y="76.226394"/>
     <use style="stroke:#000000;" x="96.538625" xlink:href="#m4232031826" y="76.996898"/>
     <use style="stroke:#000000;" x="97.143998" xlink:href="#m4232031826" y="77.772521"/>
     <use style="stroke:#000000;" x="97.749371" xlink:href="#m4232031826" y="78.553265"/>
     <use style="stroke:#000000;" x="98.052057" xlink:href="#m4232031826" y="79.336568"/>
     <use style="stroke:#000000;" x="98.65743" xlink:href="#m4232031826" y="80.12371"/>
     <use style="stroke:#000000;" x="99.262802" xlink:href="#m4232031826" y="80.913413"/>
     <use style="stroke:#000000;" x="99.565489" xlink:href="#m4232031826" y="81.705675"/>
     <use style="stroke:#000000;" x="100.170861" xlink:href="#m4232031826" y="82.499218"/>
     <use style="stroke:#000000;" x="100.776234" xlink:href="#m4232031826" y="83.29404"/>
     <use style="stroke:#000000;" x="101.07892" xlink:href="#m4232031826" y="84.090142"/>
     <use style="stroke:#000000;" x="101.684293" xlink:href="#m4232031826" y="84.886244"/>
     <use style="stroke:#000000;" x="102.289666" xlink:href="#m4232031826" y="85.682347"/>
     <use style="stroke:#000000;" x="102.592352" xlink:href="#m4232031826" y="86.478449"/>
     <use style="stroke:#000000;" x="103.197725" xlink:href="#m4232031826" y="87.274551"/>
     <use style="stroke:#000000;" x="103.803098" xlink:href="#m4232031826" y="88.069373"/>
     <use style="stroke:#000000;" x="104.105784" xlink:href="#m4232031826" y="88.862915"/>
     <use style="stroke:#000000;" x="104.711157" xlink:href="#m4232031826" y="89.655178"/>
     <use style="stroke:#000000;" x="105.316529" xlink:href="#m4232031826" y="90.44616"/>
     <use style="stroke:#000000;" x="105.619216" xlink:href="#m4232031826" y="91.234583"/>
     <use style="stroke:#000000;" x="106.224588" xlink:href="#m4232031826" y="92.021726"/>
     <use style="stroke:#000000;" x="106.829961" xlink:href="#m4232031826" y="92.807589"/>
     <use style="stroke:#000000;" x="107.132647" xlink:href="#m4232031826" y="93.589612"/>
     <use style="stroke:#000000;" x="107.73802" xlink:href="#m4232031826" y="94.370355"/>
     <use style="stroke:#000000;" x="108.343393" xlink:href="#m4232031826" y="95.148539"/>
     <use style="stroke:#000000;" x="108.646079" xlink:href="#m4232031826" y="95.922882"/>
     <use style="stroke:#000000;" x="109.251452" xlink:href="#m4232031826" y="96.695946"/>
     <use style="stroke:#000000;" x="109.856824" xlink:href="#m4232031826" y="97.46517"/>
     <use style="stroke:#000000;" x="110.462197" xlink:href="#m4232031826" y="98.617087"/>
     <use style="stroke:#000000;" x="111.370256" xlink:href="#m4232031826" y="99.761323"/>
     <use style="stroke:#000000;" x="111.975629" xlink:href="#m4232031826" y="100.899161"/>
     <use style="stroke:#000000;" x="112.883688" xlink:href="#m4232031826" y="102.028039"/>
     <use style="stroke:#000000;" x="113.489061" xlink:href="#m4232031826" y="103.150005"/>
     <use style="stroke:#000000;" x="114.094433" xlink:href="#m4232031826" y="104.263652"/>
     <use style="stroke:#000000;" x="115.002492" xlink:href="#m4232031826" y="105.369236"/>
     <use style="stroke:#000000;" x="115.607865" xlink:href="#m4232031826" y="106.4665"/>
     <use style="stroke:#000000;" x="116.515924" xlink:href="#m4232031826" y="107.555445"/>
     <use style="stroke:#000000;" x="117.121297" xlink:href="#m4232031826" y="108.635814"/>
     <use style="stroke:#000000;" x="118.029356" xlink:href="#m4232031826" y="109.707609"/>
     <use style="stroke:#000000;" x="118.634728" xlink:href="#m4232031826" y="110.770699"/>
     <use style="stroke:#000000;" x="119.542787" xlink:href="#m4232031826" y="111.825215"/>
     <use style="stroke:#000000;" x="120.14816" xlink:href="#m4232031826" y="112.871027"/>
     <use style="stroke:#000000;" x="121.056219" xlink:href="#m4232031826" y="113.908135"/>
     <use style="stroke:#000000;" x="121.661592" xlink:href="#m4232031826" y="114.936541"/>
     <use style="stroke:#000000;" x="122.569651" xlink:href="#m4232031826" y="115.956114"/>
     <use style="stroke:#000000;" x="123.175024" xlink:href="#m4232031826" y="116.967113"/>
     <use style="stroke:#000000;" x="124.083083" xlink:href="#m4232031826" y="117.96928"/>
     <use style="stroke:#000000;" x="124.688455" xlink:href="#m4232031826" y="118.962872"/>
     <use style="stroke:#000000;" x="125.596514" xlink:href="#m4232031826" y="119.94776"/>
     <use style="stroke:#000000;" x="126.201887" xlink:href="#m4232031826" y="120.923945"/>
     <use style="stroke:#000000;" x="127.109946" xlink:href="#m4232031826" y="121.891555"/>
     <use style="stroke:#000000;" x="127.715319" xlink:href="#m4232031826" y="122.850717"/>
     <use style="stroke:#000000;" x="128.623378" xlink:href="#m4232031826" y="123.801304"/>
     <use style="stroke:#000000;" x="129.22875" xlink:href="#m4232031826" y="124.743444"/>
     <use style="stroke:#000000;" x="130.439496" xlink:href="#m4232031826" y="126.160685"/>
     <use style="stroke:#000000;" x="131.650241" xlink:href="#m4232031826" y="127.558599"/>
     <use style="stroke:#000000;" x="132.860987" xlink:href="#m4232031826" y="128.937315"/>
     <use style="stroke:#000000;" x="133.769046" xlink:href="#m4232031826" y="130.297344"/>
     <use style="stroke:#000000;" x="135.065451" xlink:href="#m4232031826" y="131.638559"/>
     <use style="stroke:#000000;" x="136.212935" xlink:href="#m4232031826" y="132.961343"/>
     <use style="stroke:#000000;" x="137.360419" xlink:href="#m4232031826" y="134.265824"/>
     <use style="stroke:#000000;" x="138.507903" xlink:href="#m4232031826" y="135.552258"/>
     <use style="stroke:#000000;" x="139.655387" xlink:href="#m4232031826" y="136.82103"/>
     <use style="stroke:#000000;" x="140.802871" xlink:href="#m4232031826" y="138.072139"/>
     <use style="stroke:#000000;" x="141.950355" xlink:href="#m4232031826" y="139.305842"/>
     <use style="stroke:#000000;" x="143.097839" xlink:href="#m4232031826" y="140.522521"/>
     <use style="stroke:#000000;" x="144.245323" xlink:href="#m4232031826" y="141.722434"/>
     <use style="stroke:#000000;" x="145.392807" xlink:href="#m4232031826" y="142.90558"/>
     <use style="stroke:#000000;" x="146.540291" xlink:href="#m4232031826" y="144.072215"/>
     <use style="stroke:#000000;" x="147.687774" xlink:href="#m4232031826" y="145.222852"/>
     <use style="stroke:#000000;" x="148.835258" xlink:href="#m4232031826" y="146.357361"/>
     <use style="stroke:#000000;" x="149.982742" xlink:href="#m4232031826" y="147.476256"/>
     <use style="stroke:#000000;" x="151.130226" xlink:href="#m4232031826" y="148.579536"/>
     <use style="stroke:#000000;" x="152.860079" xlink:href="#m4232031826" y="150.213977"/>
     <use style="stroke:#000000;" x="154.590234" xlink:href="#m4232031826" y="151.814501"/>
     <use style="stroke:#000000;" x="156.320086" xlink:href="#m4232031826" y="153.381619"/>
     <use style="stroke:#000000;" x="158.049939" xlink:href="#m4232031826" y="154.916227"/>
     <use style="stroke:#000000;" x="159.779791" xlink:href="#m4232031826" y="156.418966"/>
     <use style="stroke:#000000;" x="161.509946" xlink:href="#m4232031826" y="157.890347"/>
     <use style="stroke:#000000;" x="163.239799" xlink:href="#m4232031826" y="159.331394"/>
     <use style="stroke:#000000;" x="164.969651" xlink:href="#m4232031826" y="160.742492"/>
     <use style="stroke:#000000;" x="166.699806" xlink:href="#m4232031826" y="162.124407"/>
     <use style="stroke:#000000;" x="168.429659" xlink:href="#m4232031826" y="163.477781"/>
     <use style="stroke:#000000;" x="170.159511" xlink:href="#m4232031826" y="164.803125"/>
     <use style="stroke:#000000;" x="171.889364" xlink:href="#m4232031826" y="166.101206"/>
     <use style="stroke:#000000;" x="173.619519" xlink:href="#m4232031826" y="167.372538"/>
     <use style="stroke:#000000;" x="175.349371" xlink:href="#m4232031826" y="168.617631"/>
     <use style="stroke:#000000;" x="177.079224" xlink:href="#m4232031826" y="169.837255"/>
     <use style="stroke:#000000;" x="178.809379" xlink:href="#m4232031826" y="171.031664"/>
     <use style="stroke:#000000;" x="180.539231" xlink:href="#m4232031826" y="172.201755"/>
     <use style="stroke:#000000;" x="182.269084" xlink:href="#m4232031826" y="173.347784"/>
     <use style="stroke:#000000;" x="183.999239" xlink:href="#m4232031826" y="174.470262"/>
     <use style="stroke:#000000;" x="185.729092" xlink:href="#m4232031826" y="175.569958"/>
     <use style="stroke:#000000;" x="188.324022" xlink:href="#m4232031826" y="177.177521"/>
     <use style="stroke:#000000;" x="190.918952" xlink:href="#m4232031826" y="178.736192"/>
     <use style="stroke:#000000;" x="193.514184" xlink:href="#m4232031826" y="180.247506"/>
     <use style="stroke:#000000;" x="196.109114" xlink:href="#m4232031826" y="181.713"/>
     <use style="stroke:#000000;" x="198.704044" xlink:href="#m4232031826" y="183.13408"/>
     <use style="stroke:#000000;" x="201.298974" xlink:href="#m4232031826" y="184.512412"/>
     <use style="stroke:#000000;" x="203.893904" xlink:href="#m4232031826" y="185.849019"/>
     <use style="stroke:#000000;" x="206.489137" xlink:href="#m4232031826" y="187.145437"/>
     <use style="stroke:#000000;" x="209.084067" xlink:href="#m4232031826" y="188.402818"/>
     <use style="stroke:#000000;" x="211.678997" xlink:href="#m4232031826" y="189.622441"/>
     <use style="stroke:#000000;" x="214.273927" xlink:href="#m4232031826" y="190.805587"/>
     <use style="stroke:#000000;" x="216.86916" xlink:href="#m4232031826" y="191.953408"/>
     <use style="stroke:#000000;" x="219.46409" xlink:href="#m4232031826" y="193.066799"/>
     <use style="stroke:#000000;" x="222.05902" xlink:href="#m4232031826" y="194.14704"/>
     <use style="stroke:#000000;" x="224.65395" xlink:href="#m4232031826" y="195.195156"/>
     <use style="stroke:#000000;" x="227.249183" xlink:href="#m4232031826" y="196.212042"/>
     <use style="stroke:#000000;" x="229.844113" xlink:href="#m4232031826" y="197.198722"/>
     <use style="stroke:#000000;" x="232.439043" xlink:href="#m4232031826" y="198.156221"/>
     <use style="stroke:#000000;" x="235.033973" xlink:href="#m4232031826" y="199.085305"/>
     <use style="stroke:#000000;" x="237.629206" xlink:href="#m4232031826" y="199.987"/>
     <use style="stroke:#000000;" x="240.224136" xlink:href="#m4232031826" y="200.862072"/>
     <use style="stroke:#000000;" x="242.819066" xlink:href="#m4232031826" y="201.71129"/>
     <use style="stroke:#000000;" x="245.413996" xlink:href="#m4232031826" y="202.535551"/>
     <use style="stroke:#000000;" x="248.008926" xlink:href="#m4232031826" y="203.33562"/>
     <use style="stroke:#000000;" x="250.604158" xlink:href="#m4232031826" y="204.112268"/>
     <use style="stroke:#000000;" x="253.199088" xlink:href="#m4232031826" y="204.866133"/>
     <use style="stroke:#000000;" x="255.794018" xlink:href="#m4232031826" y="205.597856"/>
     <use style="stroke:#000000;" x="258.388948" xlink:href="#m4232031826" y="206.308332"/>
     <use style="stroke:#000000;" x="260.274079" xlink:href="#m4232031826" y="206.811336"/>
     <use style="stroke:#000000;" x="262.15921" xlink:href="#m4232031826" y="207.303716"/>
     <use style="stroke:#000000;" x="264.044037" xlink:href="#m4232031826" y="207.785601"/>
     <use style="stroke:#000000;" x="265.929168" xlink:href="#m4232031826" y="208.257247"/>
     <use style="stroke:#000000;" x="267.306694" xlink:href="#m4232031826" y="208.595526"/>
     <use style="stroke:#000000;" x="268.684522" xlink:href="#m4232031826" y="208.928686"/>
     <use style="stroke:#000000;" x="270.062047" xlink:href="#m4232031826" y="209.256598"/>
     <use style="stroke:#000000;" x="271.439876" xlink:href="#m4232031826" y="209.579519"/>
     <use style="stroke:#000000;" x="272.817401" xlink:href="#m4232031826" y="209.897448"/>
     <use style="stroke:#000000;" x="274.195229" xlink:href="#m4232031826" y="210.210385"/>
     <use style="stroke:#000000;" x="275.572755" xlink:href="#m4232031826" y="210.518458"/>
     <use style="stroke:#000000;" x="276.950583" xlink:href="#m4232031826" y="210.821796"/>
     <use style="stroke:#000000;" x="278.328109" xlink:href="#m4232031826" y="211.120527"/>
     <use style="stroke:#000000;" x="279.705937" xlink:href="#m4232031826" y="211.414521"/>
     <use style="stroke:#000000;" x="281.083463" xlink:href="#m4232031826" y="211.704036"/>
     <use style="stroke:#000000;" x="282.461291" xlink:href="#m4232031826" y="211.989199"/>
     <use style="stroke:#000000;" x="283.838816" xlink:href="#m4232031826" y="212.269883"/>
     <use style="stroke:#000000;" x="286.084446" xlink:href="#m4232031826" y="212.718107"/>
     <use style="stroke:#000000;" x="288.329774" xlink:href="#m4232031826" y="213.155195"/>
     <use style="stroke:#000000;" x="290.575404" xlink:href="#m4232031826" y="213.581404"/>
     <use style="stroke:#000000;" x="292.820731" xlink:href="#m4232031826" y="213.99699"/>
     <use style="stroke:#000000;" x="295.066361" xlink:href="#m4232031826" y="214.402336"/>
     <use style="stroke:#000000;" x="297.311991" xlink:href="#m4232031826" y="214.797571"/>
     <use style="stroke:#000000;" x="299.557318" xlink:href="#m4232031826" y="215.182951"/>
     <use style="stroke:#000000;" x="301.802948" xlink:href="#m4232031826" y="215.55886"/>
     <use style="stroke:#000000;" x="304.048275" xlink:href="#m4232031826" y="215.925553"/>
     <use style="stroke:#000000;" x="306.293905" xlink:href="#m4232031826" y="216.283031"/>
     <use style="stroke:#000000;" x="308.539535" xlink:href="#m4232031826" y="216.631806"/>
     <use style="stroke:#000000;" x="310.784863" xlink:href="#m4232031826" y="216.972005"/>
     <use style="stroke:#000000;" x="313.030493" xlink:href="#m4232031826" y="217.303757"/>
     <use style="stroke:#000000;" x="315.276123" xlink:href="#m4232031826" y="217.627318"/>
     <use style="stroke:#000000;" x="317.52145" xlink:href="#m4232031826" y="217.942943"/>
     <use style="stroke:#000000;" x="319.76708" xlink:href="#m4232031826" y="218.250888"/>
     <use style="stroke:#000000;" x="322.012407" xlink:href="#m4232031826" y="218.551257"/>
     <use style="stroke:#000000;" x="324.258037" xlink:href="#m4232031826" y="218.844279"/>
     <use style="stroke:#000000;" x="326.503667" xlink:href="#m4232031826" y="219.130121"/>
     <use style="stroke:#000000;" x="328.748995" xlink:href="#m4232031826" y="219.408987"/>
     <use style="stroke:#000000;" x="330.994625" xlink:href="#m4232031826" y="219.681057"/>
     <use style="stroke:#000000;" x="333.239952" xlink:href="#m4232031826" y="219.946484"/>
     <use style="stroke:#000000;" x="335.485582" xlink:href="#m4232031826" y="220.205447"/>
     <use style="stroke:#000000;" x="337.731212" xlink:href="#m4232031826" y="220.458114"/>
     <use style="stroke:#000000;" x="339.976539" xlink:href="#m4232031826" y="220.704637"/>
     <use style="stroke:#000000;" x="342.222169" xlink:href="#m4232031826" y="220.945182"/>
     <use style="stroke:#000000;" x="344.467496" xlink:href="#m4232031826" y="221.179892"/>
     <use style="stroke:#000000;" x="346.713126" xlink:href="#m4232031826" y="221.408905"/>
     <use style="stroke:#000000;" x="348.958756" xlink:href="#m4232031826" y="221.63239"/>
     <use style="stroke:#000000;" x="351.204084" xlink:href="#m4232031826" y="221.850473"/>
     <use style="stroke:#000000;" x="353.449714" xlink:href="#m4232031826" y="222.063271"/>
     <use style="stroke:#000000;" x="355.695344" xlink:href="#m4232031826" y="222.270948"/>
     <use style="stroke:#000000;" x="357.940671" xlink:href="#m4232031826" y="222.473622"/>
     <use style="stroke:#000000;" x="360.186301" xlink:href="#m4232031826" y="222.671406"/>
     <use style="stroke:#000000;" x="362.431628" xlink:href="#m4232031826" y="222.864441"/>
     <use style="stroke:#000000;" x="364.677258" xlink:href="#m4232031826" y="223.052831"/>
     <use style="stroke:#000000;" x="366.922888" xlink:href="#m4232031826" y="223.236689"/>
     <use style="stroke:#000000;" x="369.168216" xlink:href="#m4232031826" y="223.416145"/>
    </g>
   </g>
   <g id="line2d_17">
    <path clip-path="url(#pfd4fed24de)" d="M 65.361932 131.704542 
L 65.547349 131.713558 
L 65.745078 131.480854 
L 66.052554 130.68762 
L 66.522603 128.653645 
L 67.16892 124.703215 
L 68.259228 116.422848 
L 71.091517 94.394162 
L 72.554995 85.016411 
L 73.88543 77.946641 
L 75.082821 72.690013 
L 76.217697 68.578662 
L 77.423101 65.036465 
L 78.628505 62.243026 
L 79.633008 60.419567 
L 80.738967 58.880421 
L 81.646034 57.945022 
L 82.553101 57.273173 
L 83.460168 56.838699 
L 84.367235 56.617851 
L 85.274302 56.589085 
L 86.483725 56.816022 
L 87.872247 57.40183 
L 89.26077 58.283556 
L 90.649292 59.414461 
L 92.500655 61.241383 
L 94.814859 63.928353 
L 97.591903 67.584393 
L 101.090292 72.629595 
L 106.687714 81.217812 
L 118.582236 99.620441 
L 124.671232 108.574457 
L 130.205221 116.309519 
L 135.411644 123.211834 
L 140.994755 130.204844 
L 146.577866 136.781623 
L 152.160976 142.95572 
L 157.881757 148.882323 
L 163.365461 154.202208 
L 167.980217 158.419022 
L 173.176511 162.897329 
L 178.061163 166.859723 
L 182.513493 170.273484 
L 188.543507 174.61281 
L 194.573521 178.645235 
L 198.593531 181.173336 
L 204.867758 184.878862 
L 211.141986 188.310133 
L 217.416213 191.487001 
L 223.690441 194.428009 
L 229.964668 197.150447 
L 236.238896 199.670409 
L 242.513123 202.002861 
L 248.787351 204.1617 
L 258.198692 207.102387 
L 266.736845 209.490514 
L 275.012997 211.577379 
L 285.181497 213.866392 
L 295.349998 215.885811 
L 305.518498 217.667435 
L 315.686999 219.239282 
L 328.397624 220.946411 
L 341.10825 222.405967 
L 353.818876 223.653675 
L 369.071626 224.91392 
L 369.071626 224.91392 
" style="fill:none;stroke:#0000ff;stroke-linecap:square;stroke-width:1.5;"/>
   </g>
   <g id="line2d_18">
    <path clip-path="url(#pfd4fed24de)" d="M 65.361932 131.535257 
L 65.602253 131.621772 
L 65.822731 131.462434 
L 66.087606 130.996892 
L 66.486831 129.798012 
L 67.002376 127.518721 
L 67.777387 122.964863 
L 69.069072 113.788087 
L 71.355231 97.510571 
L 72.650718 89.832623 
L 73.816656 84.184711 
L 74.853046 80.155472 
L 75.759887 77.341381 
L 76.732355 74.991945 
L 77.704824 73.259165 
L 78.482798 72.266476 
L 79.260773 71.584437 
L 80.038748 71.179718 
L 80.816722 71.021847 
L 81.594697 71.083201 
L 82.372672 71.338876 
L 83.25397 71.835147 
L 84.429033 72.79075 
L 85.604097 74.028593 
L 87.072927 75.897545 
L 88.835523 78.507981 
L 91.064387 82.224623 
L 94.184797 87.921897 
L 99.534072 98.270313 
L 107.227983 113.075804 
L 112.105437 121.975369 
L 116.814278 130.084807 
L 121.147917 137.101829 
L 125.481556 143.688756 
L 130.033081 150.154314 
L 134.44624 155.997791 
L 138.642431 161.184118 
L 143.041388 166.254808 
L 146.216528 169.694089 
L 150.602325 174.157428 
L 155.342121 178.628534 
L 160.081918 182.758579 
L 164.830264 186.578651 
L 170.175359 190.52757 
L 175.520454 194.134221 
L 180.865549 197.427288 
L 186.210643 200.433265 
L 191.555738 203.176559 
L 196.900833 205.679609 
L 202.245928 207.963011 
L 207.591023 210.045652 
L 214.717816 212.539893 
L 221.844609 214.744802 
L 228.971403 216.693224 
L 236.098196 218.414295 
L 243.224989 219.933847 
L 252.13348 221.584538 
L 261.041972 222.99505 
L 269.950463 224.199023 
L 280.640653 225.411652 
L 291.330843 226.410898 
L 303.802731 227.354184 
L 318.056318 228.195306 
L 334.091602 228.905766 
L 351.908585 229.474806 
L 369.725568 229.874489 
L 369.725568 229.874489 
" style="fill:none;stroke:#ff0000;stroke-linecap:square;stroke-width:1.5;"/>
   </g>
   <g id="line2d_19">
    <path clip-path="url(#pfd4fed24de)" d="M 65.361932 111.632725 
L 65.578353 111.673804 
L 65.806881 111.447214 
L 66.112594 110.767747 
L 66.542409 109.197289 
L 67.099351 106.319738 
L 67.940819 100.700959 
L 69.357392 89.507841 
L 71.778882 70.535937 
L 73.231777 60.94057 
L 74.503059 53.909867 
L 75.683536 48.484638 
L 76.833744 44.123504 
L 77.953684 40.681544 
L 79.043355 38.003751 
L 80.133025 35.92167 
L 81.252965 34.32962 
L 82.130755 33.422409 
L 83.008546 32.785017 
L 83.886336 32.39079 
L 84.764126 32.215884 
L 85.641917 32.23809 
L 86.519707 32.443688 
L 87.518572 32.864922 
L 88.850392 33.700838 
L 90.182212 34.809926 
L 91.846987 36.519081 
L 93.663105 38.705301 
L 95.630566 41.370716 
L 98.65743 45.907381 
L 102.592352 52.286962 
L 110.462197 65.630887 
L 118.029356 78.268224 
L 123.175024 86.490648 
L 128.623378 94.792084 
L 133.769046 102.226089 
L 138.507903 108.725525 
L 143.097839 114.711075 
L 148.835258 121.777592 
L 152.860079 126.467003 
L 158.049939 132.214968 
L 163.239799 137.63443 
L 168.429659 142.749085 
L 173.619519 147.576297 
L 178.809379 152.137703 
L 185.729092 157.80646 
L 190.918952 161.783385 
L 196.109114 165.544013 
L 201.298974 169.088378 
L 209.084067 174.041708 
L 214.273927 177.129989 
L 222.05902 181.423292 
L 229.844113 185.370528 
L 237.629206 188.991316 
L 245.413996 192.334224 
L 253.199088 195.398935 
L 262.15921 198.614209 
L 270.062047 201.212444 
L 279.705937 204.092668 
L 288.329774 206.425807 
L 297.311991 208.637167 
L 306.293905 210.64858 
L 315.276123 212.475324 
L 326.503667 214.530999 
L 337.731212 216.3551 
L 351.204084 218.278493 
L 364.677258 219.947357 
L 366.922888 220.192277 
L 369.168216 220.233867 
L 369.168216 220.233867 
" style="fill:none;stroke:#0000ff;stroke-dasharray:5.55,2.4;stroke-dashoffset:0;stroke-width:1.5;"/>
   </g>
   <g id="line2d_20">
    <path clip-path="url(#pfd4fed24de)" d="M 65.361932 148.398398 
L 65.538095 148.384197 
L 65.728182 148.126989 
L 66.027842 147.278811 
L 66.45463 145.31651 
L 67.099351 141.177821 
L 68.328258 131.497319 
L 70.325988 116.036465 
L 71.688076 107.244587 
L 72.959359 100.431773 
L 74.230642 94.832376 
L 75.38085 90.677578 
L 76.561327 87.196578 
L 77.711535 84.471068 
L 78.831474 82.367093 
L 79.921145 80.782967 
L 81.010816 79.594598 
L 82.130755 78.744188 
L 83.220426 78.229773 
L 84.310097 77.990866 
L 85.430036 77.998559 
L 86.519707 78.216902 
L 87.851527 78.743372 
L 89.183347 79.511556 
L 90.848122 80.755607 
L 92.66424 82.408003 
L 94.692239 84.543728 
L 97.143998 87.434353 
L 100.776234 92.15333 
L 105.316529 98.459678 
L 122.569651 122.774338 
L 127.715319 129.569938 
L 132.860987 136.04859 
L 138.507903 142.77987 
L 144.245323 149.206492 
L 149.982742 155.221639 
L 154.590234 159.765903 
L 159.779791 164.58901 
L 164.969651 169.105225 
L 170.159511 173.334348 
L 175.349371 177.29312 
L 180.539231 180.989122 
L 185.729092 184.435728 
L 190.918952 187.663837 
L 196.109114 190.668737 
L 201.298974 193.472808 
L 206.489137 196.083105 
L 211.678997 198.521605 
L 216.86916 200.787195 
L 224.65395 203.900041 
L 232.439043 206.702943 
L 240.224136 209.213927 
L 248.008926 211.466441 
L 255.794018 213.491259 
L 264.044037 215.413773 
L 272.817401 217.226027 
L 282.461291 218.978126 
L 292.820731 220.615449 
L 304.048275 222.139696 
L 315.276123 223.443148 
L 328.748995 224.75598 
L 342.222169 225.841397 
L 357.940671 226.871137 
L 369.168216 227.540342 
L 369.168216 227.540342 
" style="fill:none;stroke:#0000ff;stroke-dasharray:5.55,2.4;stroke-dashoffset:0;stroke-width:1.5;"/>
   </g>
   <g id="line2d_21"/>
   <g id="line2d_22"/>
   <g id="line2d_23"/>
   <g id="line2d_24"/>
   <g id="line2d_25"/>
   <g id="line2d_26"/>
   <g id="patch_3">
    <path d="M 50.14375 239.758125 
L 50.14375 22.318125 
" style="fill:none;stroke:#000000;stroke-linecap:square;stroke-linejoin:miter;stroke-width:0.8;"/>
   </g>
   <g id="patch_4">
    <path d="M 384.94375 239.758125 
L 384.94375 22.318125 
" style="fill:none;stroke:#000000;stroke-linecap:square;stroke-linejoin:miter;stroke-width:0.8;"/>
   </g>
   <g id="patch_5">
    <path d="M 50.14375 239.758125 
L 384.94375 239.758125 
" style="fill:none;stroke:#000000;stroke-linecap:square;stroke-linejoin:miter;stroke-width:0.8;"/>
   </g>
   <g id="patch_6">
    <path d="M 50.14375 22.318125 
L 384.94375 22.318125 
" style="fill:none;stroke:#000000;stroke-linecap:square;stroke-linejoin:miter;stroke-width:0.8;"/>
   </g>
   <g id="text_18">
    <!-- Experiment_13 -->
    <defs>
     <path d="M 9.8125 72.90625 
L 55.90625 72.90625 
L 55.90625 64.59375 
L 19.671875 64.59375 
L 19.671875 43.015625 
L 54.390625 43.015625 
L 54.390625 34.71875 
L 19.671875 34.71875 
L 19.671875 8.296875 
L 56.78125 8.296875 
L 56.78125 0 
L 9.8125 0 
z
" id="DejaVuSans-69"/>
     <path d="M 54.890625 54.6875 
L 35.109375 28.078125 
L 55.90625 0 
L 45.3125 0 
L 29.390625 21.484375 
L 13.484375 0 
L 2.875 0 
L 24.125 28.609375 
L 4.6875 54.6875 
L 15.28125 54.6875 
L 29.78125 35.203125 
L 44.28125 54.6875 
z
" id="DejaVuSans-120"/>
     <path d="M 18.109375 8.203125 
L 18.109375 -20.796875 
L 9.078125 -20.796875 
L 9.078125 54.6875 
L 18.109375 54.6875 
L 18.109375 46.390625 
Q 20.953125 51.265625 25.265625 53.625 
Q 29.59375 56 35.59375 56 
Q 45.5625 56 51.78125 48.09375 
Q 58.015625 40.1875 58.015625 27.296875 
Q 58.015625 14.40625 51.78125 6.484375 
Q 45.5625 -1.421875 35.59375 -1.421875 
Q 29.59375 -1.421875 25.265625 0.953125 
Q 20.953125 3.328125 18.109375 8.203125 
z
M 48.6875 27.296875 
Q 48.6875 37.203125 44.609375 42.84375 
Q 40.53125 48.484375 33.40625 48.484375 
Q 26.265625 48.484375 22.1875 42.84375 
Q 18.109375 37.203125 18.109375 27.296875 
Q 18.109375 17.390625 22.1875 11.75 
Q 26.265625 6.109375 33.40625 6.109375 
Q 40.53125 6.109375 44.609375 11.75 
Q 48.6875 17.390625 48.6875 27.296875 
z
" id="DejaVuSans-112"/>
     <path d="M 18.3125 70.21875 
L 18.3125 54.6875 
L 36.8125 54.6875 
L 36.8125 47.703125 
L 18.3125 47.703125 
L 18.3125 18.015625 
Q 18.3125 11.328125 20.140625 9.421875 
Q 21.96875 7.515625 27.59375 7.515625 
L 36.8125 7.515625 
L 36.8125 0 
L 27.59375 0 
Q 17.1875 0 13.234375 3.875 
Q 9.28125 7.765625 9.28125 18.015625 
L 9.28125 47.703125 
L 2.6875 47.703125 
L 2.6875 54.6875 
L 9.28125 54.6875 
L 9.28125 70.21875 
z
" id="DejaVuSans-116"/>
     <path d="M 50.984375 -16.609375 
L 50.984375 -23.578125 
L -0.984375 -23.578125 
L -0.984375 -16.609375 
z
" id="DejaVuSans-95"/>
     <path d="M 40.578125 39.3125 
Q 47.65625 37.796875 51.625 33 
Q 55.609375 28.21875 55.609375 21.1875 
Q 55.609375 10.40625 48.1875 4.484375 
Q 40.765625 -1.421875 27.09375 -1.421875 
Q 22.515625 -1.421875 17.65625 -0.515625 
Q 12.796875 0.390625 7.625 2.203125 
L 7.625 11.71875 
Q 11.71875 9.328125 16.59375 8.109375 
Q 21.484375 6.890625 26.8125 6.890625 
Q 36.078125 6.890625 40.9375 10.546875 
Q 45.796875 14.203125 45.796875 21.1875 
Q 45.796875 27.640625 41.28125 31.265625 
Q 36.765625 34.90625 28.71875 34.90625 
L 20.21875 34.90625 
L 20.21875 43.015625 
L 29.109375 43.015625 
Q 36.375 43.015625 40.234375 45.921875 
Q 44.09375 48.828125 44.09375 54.296875 
Q 44.09375 59.90625 40.109375 62.90625 
Q 36.140625 65.921875 28.71875 65.921875 
Q 24.65625 65.921875 20.015625 65.03125 
Q 15.375 64.15625 9.8125 62.3125 
L 9.8125 71.09375 
Q 15.4375 72.65625 20.34375 73.4375 
Q 25.25 74.21875 29.59375 74.21875 
Q 40.828125 74.21875 47.359375 69.109375 
Q 53.90625 64.015625 53.90625 55.328125 
Q 53.90625 49.265625 50.4375 45.09375 
Q 46.96875 40.921875 40.578125 39.3125 
z
" id="DejaVuSans-51"/>
    </defs>
    <g transform="translate(172.240938 16.318125)scale(0.12 -0.12)">
     <use xlink:href="#DejaVuSans-69"/>
     <use x="63.183594" xlink:href="#DejaVuSans-120"/>
     <use x="122.363281" xlink:href="#DejaVuSans-112"/>
     <use x="185.839844" xlink:href="#DejaVuSans-101"/>
     <use x="247.363281" xlink:href="#DejaVuSans-114"/>
     <use x="288.476562" xlink:href="#DejaVuSans-105"/>
     <use x="316.259766" xlink:href="#DejaVuSans-109"/>
     <use x="413.671875" xlink:href="#DejaVuSans-101"/>
     <use x="475.195312" xlink:href="#DejaVuSans-110"/>
     <use x="538.574219" xlink:href="#DejaVuSans-116"/>
     <use x="577.783203" xlink:href="#DejaVuSans-95"/>
     <use x="627.783203" xlink:href="#DejaVuSans-49"/>
     <use x="691.40625" xlink:href="#DejaVuSans-51"/>
    </g>
   </g>
   <g id="legend_1">
    <g id="patch_7">
     <path d="M 121.823438 103.730625 
L 377.94375 103.730625 
Q 379.94375 103.730625 379.94375 101.730625 
L 379.94375 29.318125 
Q 379.94375 27.318125 377.94375 27.318125 
L 121.823438 27.318125 
Q 119.823438 27.318125 119.823438 29.318125 
L 119.823438 101.730625 
Q 119.823438 103.730625 121.823438 103.730625 
z
" style="fill:#ffffff;opacity:0.8;stroke:#cccccc;stroke-linejoin:miter;"/>
    </g>
    <g id="line2d_27"/>
    <g id="line2d_28">
     <g>
      <use style="stroke:#000000;" x="133.823438" xlink:href="#m4232031826" y="35.416562"/>
     </g>
    </g>
    <g id="text_19">
     <!-- Experimental Data -->
     <defs>
      <path d="M 9.421875 75.984375 
L 18.40625 75.984375 
L 18.40625 0 
L 9.421875 0 
z
" id="DejaVuSans-108"/>
      <path d="M 19.671875 64.796875 
L 19.671875 8.109375 
L 31.59375 8.109375 
Q 46.6875 8.109375 53.6875 14.9375 
Q 60.6875 21.78125 60.6875 36.53125 
Q 60.6875 51.171875 53.6875 57.984375 
Q 46.6875 64.796875 31.59375 64.796875 
z
M 9.8125 72.90625 
L 30.078125 72.90625 
Q 51.265625 72.90625 61.171875 64.09375 
Q 71.09375 55.28125 71.09375 36.53125 
Q 71.09375 17.671875 61.125 8.828125 
Q 51.171875 0 30.078125 0 
L 9.8125 0 
z
" id="DejaVuSans-68"/>
     </defs>
     <g transform="translate(151.823438 38.916562)scale(0.1 -0.1)">
      <use xlink:href="#DejaVuSans-69"/>
      <use x="63.183594" xlink:href="#DejaVuSans-120"/>
      <use x="122.363281" xlink:href="#DejaVuSans-112"/>
      <use x="185.839844" xlink:href="#DejaVuSans-101"/>
      <use x="247.363281" xlink:href="#DejaVuSans-114"/>
      <use x="288.476562" xlink:href="#DejaVuSans-105"/>
      <use x="316.259766" xlink:href="#DejaVuSans-109"/>
      <use x="413.671875" xlink:href="#DejaVuSans-101"/>
      <use x="475.195312" xlink:href="#DejaVuSans-110"/>
      <use x="538.574219" xlink:href="#DejaVuSans-116"/>
      <use x="577.783203" xlink:href="#DejaVuSans-97"/>
      <use x="639.0625" xlink:href="#DejaVuSans-108"/>
      <use x="666.845703" xlink:href="#DejaVuSans-32"/>
      <use x="698.632812" xlink:href="#DejaVuSans-68"/>
      <use x="775.634766" xlink:href="#DejaVuSans-97"/>
      <use x="836.914062" xlink:href="#DejaVuSans-116"/>
      <use x="876.123047" xlink:href="#DejaVuSans-97"/>
     </g>
    </g>
    <g id="line2d_29">
     <path d="M 123.823438 50.094687 
L 143.823438 50.094687 
" style="fill:none;stroke:#0000ff;stroke-linecap:square;stroke-width:1.5;"/>
    </g>
    <g id="line2d_30"/>
    <g id="text_20">
     <!-- MSI -->
     <defs>
      <path d="M 9.8125 72.90625 
L 24.515625 72.90625 
L 43.109375 23.296875 
L 61.8125 72.90625 
L 76.515625 72.90625 
L 76.515625 0 
L 66.890625 0 
L 66.890625 64.015625 
L 48.09375 14.015625 
L 38.1875 14.015625 
L 19.390625 64.015625 
L 19.390625 0 
L 9.8125 0 
z
" id="DejaVuSans-77"/>
      <path d="M 53.515625 70.515625 
L 53.515625 60.890625 
Q 47.90625 63.578125 42.921875 64.890625 
Q 37.9375 66.21875 33.296875 66.21875 
Q 25.25 66.21875 20.875 63.09375 
Q 16.5 59.96875 16.5 54.203125 
Q 16.5 49.359375 19.40625 46.890625 
Q 22.3125 44.4375 30.421875 42.921875 
L 36.375 41.703125 
Q 47.40625 39.59375 52.65625 34.296875 
Q 57.90625 29 57.90625 20.125 
Q 57.90625 9.515625 50.796875 4.046875 
Q 43.703125 -1.421875 29.984375 -1.421875 
Q 24.8125 -1.421875 18.96875 -0.25 
Q 13.140625 0.921875 6.890625 3.21875 
L 6.890625 13.375 
Q 12.890625 10.015625 18.65625 8.296875 
Q 24.421875 6.59375 29.984375 6.59375 
Q 38.421875 6.59375 43.015625 9.90625 
Q 47.609375 13.234375 47.609375 19.390625 
Q 47.609375 24.75 44.3125 27.78125 
Q 41.015625 30.8125 33.5 32.328125 
L 27.484375 33.5 
Q 16.453125 35.6875 11.515625 40.375 
Q 6.59375 45.0625 6.59375 53.421875 
Q 6.59375 63.09375 13.40625 68.65625 
Q 20.21875 74.21875 32.171875 74.21875 
Q 37.3125 74.21875 42.625 73.28125 
Q 47.953125 72.359375 53.515625 70.515625 
z
" id="DejaVuSans-83"/>
      <path d="M 9.8125 72.90625 
L 19.671875 72.90625 
L 19.671875 0 
L 9.8125 0 
z
" id="DejaVuSans-73"/>
     </defs>
     <g transform="translate(151.823438 53.594687)scale(0.1 -0.1)">
      <use xlink:href="#DejaVuSans-77"/>
      <use x="86.279297" xlink:href="#DejaVuSans-83"/>
      <use x="149.755859" xlink:href="#DejaVuSans-73"/>
     </g>
    </g>
    <g id="line2d_31">
     <path d="M 123.823438 64.774375 
L 143.823438 64.774375 
" style="fill:none;stroke:#ff0000;stroke-linecap:square;stroke-width:1.5;"/>
    </g>
    <g id="line2d_32"/>
    <g id="text_21">
     <!-- $\it{A priori}$ model -->
     <defs>
      <path d="M 36.8125 72.90625 
L 48 72.90625 
L 61.53125 0 
L 51.21875 0 
L 48.1875 18.703125 
L 15.375 18.703125 
L 5.078125 0 
L -5.328125 0 
z
M 40.375 63.1875 
L 19.921875 26.90625 
L 46.6875 26.90625 
z
" id="DejaVuSans-Oblique-65"/>
      <path d="M 49.609375 33.6875 
Q 49.609375 40.875 46.484375 44.671875 
Q 43.359375 48.484375 37.5 48.484375 
Q 33.5 48.484375 29.859375 46.4375 
Q 26.21875 44.390625 23.390625 40.484375 
Q 20.609375 36.625 18.9375 31.15625 
Q 17.28125 25.6875 17.28125 20.3125 
Q 17.28125 13.484375 20.40625 9.796875 
Q 23.53125 6.109375 29.296875 6.109375 
Q 33.546875 6.109375 37.1875 8.109375 
Q 40.828125 10.109375 43.40625 13.921875 
Q 46.1875 17.921875 47.890625 23.34375 
Q 49.609375 28.765625 49.609375 33.6875 
z
M 21.78125 46.390625 
Q 25.390625 51.125 30.296875 53.5625 
Q 35.203125 56 41.21875 56 
Q 49.609375 56 54.25 50.5 
Q 58.890625 45.015625 58.890625 35.109375 
Q 58.890625 27 56 19.65625 
Q 53.125 12.3125 47.703125 6.5 
Q 44.09375 2.640625 39.546875 0.609375 
Q 35.015625 -1.421875 29.984375 -1.421875 
Q 24.171875 -1.421875 20.21875 1 
Q 16.265625 3.421875 14.3125 8.203125 
L 8.6875 -20.796875 
L -0.296875 -20.796875 
L 14.40625 54.6875 
L 23.390625 54.6875 
z
" id="DejaVuSans-Oblique-112"/>
      <path d="M 44.578125 46.390625 
Q 43.21875 47.125 41.453125 47.515625 
Q 39.703125 47.90625 37.703125 47.90625 
Q 30.515625 47.90625 25.140625 42.453125 
Q 19.78125 37.015625 18.015625 27.875 
L 12.5 0 
L 3.515625 0 
L 14.203125 54.6875 
L 23.1875 54.6875 
L 21.484375 46.1875 
Q 25.046875 50.921875 30 53.453125 
Q 34.96875 56 40.578125 56 
Q 42.046875 56 43.453125 55.828125 
Q 44.875 55.671875 46.296875 55.28125 
z
" id="DejaVuSans-Oblique-114"/>
      <path d="M 18.3125 75.984375 
L 27.296875 75.984375 
L 25.09375 64.59375 
L 16.109375 64.59375 
z
M 14.203125 54.6875 
L 23.1875 54.6875 
L 12.5 0 
L 3.515625 0 
z
" id="DejaVuSans-Oblique-105"/>
      <path d="M 25.390625 -1.421875 
Q 15.765625 -1.421875 10.171875 4.515625 
Q 4.59375 10.453125 4.59375 20.703125 
Q 4.59375 26.65625 6.515625 32.828125 
Q 8.453125 39.015625 11.53125 43.21875 
Q 16.359375 49.75 22.3125 52.875 
Q 28.265625 56 35.796875 56 
Q 45.125 56 50.859375 50.1875 
Q 56.59375 44.390625 56.59375 35.015625 
Q 56.59375 28.515625 54.6875 22.0625 
Q 52.78125 15.625 49.703125 11.375 
Q 44.921875 4.828125 38.96875 1.703125 
Q 33.015625 -1.421875 25.390625 -1.421875 
z
M 13.921875 21 
Q 13.921875 13.578125 17.015625 9.890625 
Q 20.125 6.203125 26.421875 6.203125 
Q 35.453125 6.203125 41.375 14.078125 
Q 47.3125 21.96875 47.3125 34.078125 
Q 47.3125 41.15625 44.140625 44.765625 
Q 40.96875 48.390625 34.8125 48.390625 
Q 29.734375 48.390625 25.78125 46.015625 
Q 21.828125 43.65625 18.703125 38.8125 
Q 16.40625 35.203125 15.15625 30.5625 
Q 13.921875 25.921875 13.921875 21 
z
" id="DejaVuSans-Oblique-111"/>
      <path d="M 45.40625 46.390625 
L 45.40625 75.984375 
L 54.390625 75.984375 
L 54.390625 0 
L 45.40625 0 
L 45.40625 8.203125 
Q 42.578125 3.328125 38.25 0.953125 
Q 33.9375 -1.421875 27.875 -1.421875 
Q 17.96875 -1.421875 11.734375 6.484375 
Q 5.515625 14.40625 5.515625 27.296875 
Q 5.515625 40.1875 11.734375 48.09375 
Q 17.96875 56 27.875 56 
Q 33.9375 56 38.25 53.625 
Q 42.578125 51.265625 45.40625 46.390625 
z
M 14.796875 27.296875 
Q 14.796875 17.390625 18.875 11.75 
Q 22.953125 6.109375 30.078125 6.109375 
Q 37.203125 6.109375 41.296875 11.75 
Q 45.40625 17.390625 45.40625 27.296875 
Q 45.40625 37.203125 41.296875 42.84375 
Q 37.203125 48.484375 30.078125 48.484375 
Q 22.953125 48.484375 18.875 42.84375 
Q 14.796875 37.203125 14.796875 27.296875 
z
" id="DejaVuSans-100"/>
     </defs>
     <g transform="translate(151.823438 68.274375)scale(0.1 -0.1)">
      <use transform="translate(0 0.015625)" xlink:href="#DejaVuSans-Oblique-65"/>
      <use transform="translate(68.408203 0.015625)" xlink:href="#DejaVuSans-Oblique-112"/>
      <use transform="translate(131.884766 0.015625)" xlink:href="#DejaVuSans-Oblique-114"/>
      <use transform="translate(172.998047 0.015625)" xlink:href="#DejaVuSans-Oblique-105"/>
      <use transform="translate(200.78125 0.015625)" xlink:href="#DejaVuSans-Oblique-111"/>
      <use transform="translate(261.962891 0.015625)" xlink:href="#DejaVuSans-Oblique-114"/>
      <use transform="translate(303.076172 0.015625)" xlink:href="#DejaVuSans-Oblique-105"/>
      <use transform="translate(330.859375 0.015625)" xlink:href="#DejaVuSans-32"/>
      <use transform="translate(362.646484 0.015625)" xlink:href="#DejaVuSans-109"/>
      <use transform="translate(460.058594 0.015625)" xlink:href="#DejaVuSans-111"/>
      <use transform="translate(521.240234 0.015625)" xlink:href="#DejaVuSans-100"/>
      <use transform="translate(584.716797 0.015625)" xlink:href="#DejaVuSans-101"/>
      <use transform="translate(646.240234 0.015625)" xlink:href="#DejaVuSans-108"/>
     </g>
    </g>
    <g id="line2d_33">
     <path d="M 123.823438 79.472813 
L 143.823438 79.472813 
" style="fill:none;stroke:#ffffff;stroke-linecap:square;stroke-width:1.5;"/>
    </g>
    <g id="line2d_34"/>
    <g id="text_22">
     <!-- T:1182 -->
     <defs>
      <path d="M 11.71875 12.40625 
L 22.015625 12.40625 
L 22.015625 0 
L 11.71875 0 
z
M 11.71875 51.703125 
L 22.015625 51.703125 
L 22.015625 39.3125 
L 11.71875 39.3125 
z
" id="DejaVuSans-58"/>
     </defs>
     <g transform="translate(151.823438 82.972813)scale(0.1 -0.1)">
      <use xlink:href="#DejaVuSans-84"/>
      <use x="60.912109" xlink:href="#DejaVuSans-58"/>
      <use x="94.603516" xlink:href="#DejaVuSans-49"/>
      <use x="158.226562" xlink:href="#DejaVuSans-49"/>
      <use x="221.849609" xlink:href="#DejaVuSans-56"/>
      <use x="285.472656" xlink:href="#DejaVuSans-50"/>
     </g>
    </g>
    <g id="line2d_35">
     <path d="M 123.823438 94.150937 
L 143.823438 94.150937 
" style="fill:none;stroke:#ffffff;stroke-linecap:square;stroke-width:1.5;"/>
    </g>
    <g id="line2d_36"/>
    <g id="text_23">
     <!-- P:1.676 -->
     <defs>
      <path d="M 19.671875 64.796875 
L 19.671875 37.40625 
L 32.078125 37.40625 
Q 38.96875 37.40625 42.71875 40.96875 
Q 46.484375 44.53125 46.484375 51.125 
Q 46.484375 57.671875 42.71875 61.234375 
Q 38.96875 64.796875 32.078125 64.796875 
z
M 9.8125 72.90625 
L 32.078125 72.90625 
Q 44.34375 72.90625 50.609375 67.359375 
Q 56.890625 61.8125 56.890625 51.125 
Q 56.890625 40.328125 50.609375 34.8125 
Q 44.34375 29.296875 32.078125 29.296875 
L 19.671875 29.296875 
L 19.671875 0 
L 9.8125 0 
z
" id="DejaVuSans-80"/>
     </defs>
     <g transform="translate(151.823438 97.650937)scale(0.1 -0.1)">
      <use xlink:href="#DejaVuSans-80"/>
      <use x="60.302734" xlink:href="#DejaVuSans-58"/>
      <use x="93.994141" xlink:href="#DejaVuSans-49"/>
      <use x="157.617188" xlink:href="#DejaVuSans-46"/>
      <use x="189.404297" xlink:href="#DejaVuSans-54"/>
      <use x="253.027344" xlink:href="#DejaVuSans-55"/>
      <use x="316.650391" xlink:href="#DejaVuSans-54"/>
     </g>
    </g>
    <g id="line2d_37">
     <path d="M 265.564063 35.416562 
L 285.564063 35.416562 
" style="fill:none;stroke:#ffffff;stroke-linecap:square;stroke-width:1.5;"/>
    </g>
    <g id="line2d_38"/>
    <g id="text_24">
     <!-- H2O2: 0.002046 -->
     <defs>
      <path d="M 9.8125 72.90625 
L 19.671875 72.90625 
L 19.671875 43.015625 
L 55.515625 43.015625 
L 55.515625 72.90625 
L 65.375 72.90625 
L 65.375 0 
L 55.515625 0 
L 55.515625 34.71875 
L 19.671875 34.71875 
L 19.671875 0 
L 9.8125 0 
z
" id="DejaVuSans-72"/>
      <path d="M 39.40625 66.21875 
Q 28.65625 66.21875 22.328125 58.203125 
Q 16.015625 50.203125 16.015625 36.375 
Q 16.015625 22.609375 22.328125 14.59375 
Q 28.65625 6.59375 39.40625 6.59375 
Q 50.140625 6.59375 56.421875 14.59375 
Q 62.703125 22.609375 62.703125 36.375 
Q 62.703125 50.203125 56.421875 58.203125 
Q 50.140625 66.21875 39.40625 66.21875 
z
M 39.40625 74.21875 
Q 54.734375 74.21875 63.90625 63.9375 
Q 73.09375 53.65625 73.09375 36.375 
Q 73.09375 19.140625 63.90625 8.859375 
Q 54.734375 -1.421875 39.40625 -1.421875 
Q 24.03125 -1.421875 14.8125 8.828125 
Q 5.609375 19.09375 5.609375 36.375 
Q 5.609375 53.65625 14.8125 63.9375 
Q 24.03125 74.21875 39.40625 74.21875 
z
" id="DejaVuSans-79"/>
     </defs>
     <g transform="translate(293.564063 38.916562)scale(0.1 -0.1)">
      <use xlink:href="#DejaVuSans-72"/>
      <use x="75.195312" xlink:href="#DejaVuSans-50"/>
      <use x="138.818359" xlink:href="#DejaVuSans-79"/>
      <use x="217.529297" xlink:href="#DejaVuSans-50"/>
      <use x="281.152344" xlink:href="#DejaVuSans-58"/>
      <use x="314.84375" xlink:href="#DejaVuSans-32"/>
      <use x="346.630859" xlink:href="#DejaVuSans-48"/>
      <use x="410.253906" xlink:href="#DejaVuSans-46"/>
      <use x="442.041016" xlink:href="#DejaVuSans-48"/>
      <use x="505.664062" xlink:href="#DejaVuSans-48"/>
      <use x="569.287109" xlink:href="#DejaVuSans-50"/>
      <use x="632.910156" xlink:href="#DejaVuSans-48"/>
      <use x="696.533203" xlink:href="#DejaVuSans-52"/>
      <use x="760.15625" xlink:href="#DejaVuSans-54"/>
     </g>
    </g>
    <g id="line2d_39">
     <path d="M 265.564063 50.094687 
L 285.564063 50.094687 
" style="fill:none;stroke:#ffffff;stroke-linecap:square;stroke-width:1.5;"/>
    </g>
    <g id="line2d_40"/>
    <g id="text_25">
     <!-- H2O: 0.001113 -->
     <g transform="translate(293.564063 53.594687)scale(0.1 -0.1)">
      <use xlink:href="#DejaVuSans-72"/>
      <use x="75.195312" xlink:href="#DejaVuSans-50"/>
      <use x="138.818359" xlink:href="#DejaVuSans-79"/>
      <use x="217.513672" xlink:href="#DejaVuSans-58"/>
      <use x="251.205078" xlink:href="#DejaVuSans-32"/>
      <use x="282.992188" xlink:href="#DejaVuSans-48"/>
      <use x="346.615234" xlink:href="#DejaVuSans-46"/>
      <use x="378.402344" xlink:href="#DejaVuSans-48"/>
      <use x="442.025391" xlink:href="#DejaVuSans-48"/>
      <use x="505.648438" xlink:href="#DejaVuSans-49"/>
      <use x="569.271484" xlink:href="#DejaVuSans-49"/>
      <use x="632.894531" xlink:href="#DejaVuSans-49"/>
      <use x="696.517578" xlink:href="#DejaVuSans-51"/>
     </g>
    </g>
    <g id="line2d_41">
     <path d="M 265.564063 64.772812 
L 285.564063 64.772812 
" style="fill:none;stroke:#ffffff;stroke-linecap:square;stroke-width:1.5;"/>
    </g>
    <g id="line2d_42"/>
    <g id="text_26">
     <!-- O2: 0.000556 -->
     <defs>
      <path d="M 10.796875 72.90625 
L 49.515625 72.90625 
L 49.515625 64.59375 
L 19.828125 64.59375 
L 19.828125 46.734375 
Q 21.96875 47.46875 24.109375 47.828125 
Q 26.265625 48.1875 28.421875 48.1875 
Q 40.625 48.1875 47.75 41.5 
Q 54.890625 34.8125 54.890625 23.390625 
Q 54.890625 11.625 47.5625 5.09375 
Q 40.234375 -1.421875 26.90625 -1.421875 
Q 22.3125 -1.421875 17.546875 -0.640625 
Q 12.796875 0.140625 7.71875 1.703125 
L 7.71875 11.625 
Q 12.109375 9.234375 16.796875 8.0625 
Q 21.484375 6.890625 26.703125 6.890625 
Q 35.15625 6.890625 40.078125 11.328125 
Q 45.015625 15.765625 45.015625 23.390625 
Q 45.015625 31 40.078125 35.4375 
Q 35.15625 39.890625 26.703125 39.890625 
Q 22.75 39.890625 18.8125 39.015625 
Q 14.890625 38.140625 10.796875 36.28125 
z
" id="DejaVuSans-53"/>
     </defs>
     <g transform="translate(293.564063 68.272812)scale(0.1 -0.1)">
      <use xlink:href="#DejaVuSans-79"/>
      <use x="78.710938" xlink:href="#DejaVuSans-50"/>
      <use x="142.333984" xlink:href="#DejaVuSans-58"/>
      <use x="176.025391" xlink:href="#DejaVuSans-32"/>
      <use x="207.8125" xlink:href="#DejaVuSans-48"/>
      <use x="271.435547" xlink:href="#DejaVuSans-46"/>
      <use x="303.222656" xlink:href="#DejaVuSans-48"/>
      <use x="366.845703" xlink:href="#DejaVuSans-48"/>
      <use x="430.46875" xlink:href="#DejaVuSans-48"/>
      <use x="494.091797" xlink:href="#DejaVuSans-53"/>
      <use x="557.714844" xlink:href="#DejaVuSans-53"/>
      <use x="621.337891" xlink:href="#DejaVuSans-54"/>
     </g>
    </g>
    <g id="line2d_43">
     <path d="M 265.564063 79.450938 
L 285.564063 79.450938 
" style="fill:none;stroke:#ffffff;stroke-linecap:square;stroke-width:1.5;"/>
    </g>
    <g id="line2d_44"/>
    <g id="text_27">
     <!-- Ar: 0.99626 -->
     <defs>
      <path d="M 10.984375 1.515625 
L 10.984375 10.5 
Q 14.703125 8.734375 18.5 7.8125 
Q 22.3125 6.890625 25.984375 6.890625 
Q 35.75 6.890625 40.890625 13.453125 
Q 46.046875 20.015625 46.78125 33.40625 
Q 43.953125 29.203125 39.59375 26.953125 
Q 35.25 24.703125 29.984375 24.703125 
Q 19.046875 24.703125 12.671875 31.3125 
Q 6.296875 37.9375 6.296875 49.421875 
Q 6.296875 60.640625 12.9375 67.421875 
Q 19.578125 74.21875 30.609375 74.21875 
Q 43.265625 74.21875 49.921875 64.515625 
Q 56.59375 54.828125 56.59375 36.375 
Q 56.59375 19.140625 48.40625 8.859375 
Q 40.234375 -1.421875 26.421875 -1.421875 
Q 22.703125 -1.421875 18.890625 -0.6875 
Q 15.09375 0.046875 10.984375 1.515625 
z
M 30.609375 32.421875 
Q 37.25 32.421875 41.125 36.953125 
Q 45.015625 41.5 45.015625 49.421875 
Q 45.015625 57.28125 41.125 61.84375 
Q 37.25 66.40625 30.609375 66.40625 
Q 23.96875 66.40625 20.09375 61.84375 
Q 16.21875 57.28125 16.21875 49.421875 
Q 16.21875 41.5 20.09375 36.953125 
Q 23.96875 32.421875 30.609375 32.421875 
z
" id="DejaVuSans-57"/>
     </defs>
     <g transform="translate(293.564063 82.950938)scale(0.1 -0.1)">
      <use xlink:href="#DejaVuSans-65"/>
      <use x="68.408203" xlink:href="#DejaVuSans-114"/>
      <use x="109.505859" xlink:href="#DejaVuSans-58"/>
      <use x="143.197266" xlink:href="#DejaVuSans-32"/>
      <use x="174.984375" xlink:href="#DejaVuSans-48"/>
      <use x="238.607422" xlink:href="#DejaVuSans-46"/>
      <use x="270.394531" xlink:href="#DejaVuSans-57"/>
      <use x="334.017578" xlink:href="#DejaVuSans-57"/>
      <use x="397.640625" xlink:href="#DejaVuSans-54"/>
      <use x="461.263672" xlink:href="#DejaVuSans-50"/>
      <use x="524.886719" xlink:href="#DejaVuSans-54"/>
     </g>
    </g>
   </g>
  </g>
 </g>
 <defs>
  <clipPath id="pfd4fed24de">
   <rect height="217.44" width="334.8" x="50.14375" y="22.318125"/>
  </clipPath>
 </defs>
</svg>
