<?xml version="1.0" encoding="utf-8" standalone="no"?>
<!DOCTYPE svg PUBLIC "-//W3C//DTD SVG 1.1//EN"
  "http://www.w3.org/Graphics/SVG/1.1/DTD/svg11.dtd">
<!-- Created with matplotlib (https://matplotlib.org/) -->
<svg height="277.314375pt" version="1.1" viewBox="0 0 392.465625 277.314375" width="392.465625pt" xmlns="http://www.w3.org/2000/svg" xmlns:xlink="http://www.w3.org/1999/xlink">
 <defs>
  <style type="text/css">
*{stroke-linecap:butt;stroke-linejoin:round;}
  </style>
 </defs>
 <g id="figure_1">
  <g id="patch_1">
   <path d="M 0 277.314375 
L 392.465625 277.314375 
L 392.465625 0 
L 0 0 
z
" style="fill:none;"/>
  </g>
  <g id="axes_1">
   <g id="patch_2">
    <path d="M 46.965625 239.758125 
L 381.765625 239.758125 
L 381.765625 22.318125 
L 46.965625 22.318125 
z
" style="fill:none;"/>
   </g>
   <g id="matplotlib.axis_1">
    <g id="xtick_1">
     <g id="line2d_1">
      <defs>
       <path d="M 0 0 
L 0 3.5 
" id="m5f7611fe9f" style="stroke:#000000;stroke-width:0.8;"/>
      </defs>
      <g>
       <use style="stroke:#000000;stroke-width:0.8;" x="62.183807" xlink:href="#m5f7611fe9f" y="239.758125"/>
      </g>
     </g>
     <g id="text_1">
      <!-- 0.0 -->
      <defs>
       <path d="M 31.78125 66.40625 
Q 24.171875 66.40625 20.328125 58.90625 
Q 16.5 51.421875 16.5 36.375 
Q 16.5 21.390625 20.328125 13.890625 
Q 24.171875 6.390625 31.78125 6.390625 
Q 39.453125 6.390625 43.28125 13.890625 
Q 47.125 21.390625 47.125 36.375 
Q 47.125 51.421875 43.28125 58.90625 
Q 39.453125 66.40625 31.78125 66.40625 
z
M 31.78125 74.21875 
Q 44.046875 74.21875 50.515625 64.515625 
Q 56.984375 54.828125 56.984375 36.375 
Q 56.984375 17.96875 50.515625 8.265625 
Q 44.046875 -1.421875 31.78125 -1.421875 
Q 19.53125 -1.421875 13.0625 8.265625 
Q 6.59375 17.96875 6.59375 36.375 
Q 6.59375 54.828125 13.0625 64.515625 
Q 19.53125 74.21875 31.78125 74.21875 
z
" id="DejaVuSans-48"/>
       <path d="M 10.6875 12.40625 
L 21 12.40625 
L 21 0 
L 10.6875 0 
z
" id="DejaVuSans-46"/>
      </defs>
      <g transform="translate(54.232244 254.356562)scale(0.1 -0.1)">
       <use xlink:href="#DejaVuSans-48"/>
       <use x="63.623047" xlink:href="#DejaVuSans-46"/>
       <use x="95.410156" xlink:href="#DejaVuSans-48"/>
      </g>
     </g>
    </g>
    <g id="xtick_2">
     <g id="line2d_2">
      <g>
       <use style="stroke:#000000;stroke-width:0.8;" x="122.878709" xlink:href="#m5f7611fe9f" y="239.758125"/>
      </g>
     </g>
     <g id="text_2">
      <!-- 0.2 -->
      <defs>
       <path d="M 19.1875 8.296875 
L 53.609375 8.296875 
L 53.609375 0 
L 7.328125 0 
L 7.328125 8.296875 
Q 12.9375 14.109375 22.625 23.890625 
Q 32.328125 33.6875 34.8125 36.53125 
Q 39.546875 41.84375 41.421875 45.53125 
Q 43.3125 49.21875 43.3125 52.78125 
Q 43.3125 58.59375 39.234375 62.25 
Q 35.15625 65.921875 28.609375 65.921875 
Q 23.96875 65.921875 18.8125 64.3125 
Q 13.671875 62.703125 7.8125 59.421875 
L 7.8125 69.390625 
Q 13.765625 71.78125 18.9375 73 
Q 24.125 74.21875 28.421875 74.21875 
Q 39.75 74.21875 46.484375 68.546875 
Q 53.21875 62.890625 53.21875 53.421875 
Q 53.21875 48.921875 51.53125 44.890625 
Q 49.859375 40.875 45.40625 35.40625 
Q 44.1875 33.984375 37.640625 27.21875 
Q 31.109375 20.453125 19.1875 8.296875 
z
" id="DejaVuSans-50"/>
      </defs>
      <g transform="translate(114.927146 254.356562)scale(0.1 -0.1)">
       <use xlink:href="#DejaVuSans-48"/>
       <use x="63.623047" xlink:href="#DejaVuSans-46"/>
       <use x="95.410156" xlink:href="#DejaVuSans-50"/>
      </g>
     </g>
    </g>
    <g id="xtick_3">
     <g id="line2d_3">
      <g>
       <use style="stroke:#000000;stroke-width:0.8;" x="183.573611" xlink:href="#m5f7611fe9f" y="239.758125"/>
      </g>
     </g>
     <g id="text_3">
      <!-- 0.4 -->
      <defs>
       <path d="M 37.796875 64.3125 
L 12.890625 25.390625 
L 37.796875 25.390625 
z
M 35.203125 72.90625 
L 47.609375 72.90625 
L 47.609375 25.390625 
L 58.015625 25.390625 
L 58.015625 17.1875 
L 47.609375 17.1875 
L 47.609375 0 
L 37.796875 0 
L 37.796875 17.1875 
L 4.890625 17.1875 
L 4.890625 26.703125 
z
" id="DejaVuSans-52"/>
      </defs>
      <g transform="translate(175.622049 254.356562)scale(0.1 -0.1)">
       <use xlink:href="#DejaVuSans-48"/>
       <use x="63.623047" xlink:href="#DejaVuSans-46"/>
       <use x="95.410156" xlink:href="#DejaVuSans-52"/>
      </g>
     </g>
    </g>
    <g id="xtick_4">
     <g id="line2d_4">
      <g>
       <use style="stroke:#000000;stroke-width:0.8;" x="244.268513" xlink:href="#m5f7611fe9f" y="239.758125"/>
      </g>
     </g>
     <g id="text_4">
      <!-- 0.6 -->
      <defs>
       <path d="M 33.015625 40.375 
Q 26.375 40.375 22.484375 35.828125 
Q 18.609375 31.296875 18.609375 23.390625 
Q 18.609375 15.53125 22.484375 10.953125 
Q 26.375 6.390625 33.015625 6.390625 
Q 39.65625 6.390625 43.53125 10.953125 
Q 47.40625 15.53125 47.40625 23.390625 
Q 47.40625 31.296875 43.53125 35.828125 
Q 39.65625 40.375 33.015625 40.375 
z
M 52.59375 71.296875 
L 52.59375 62.3125 
Q 48.875 64.0625 45.09375 64.984375 
Q 41.3125 65.921875 37.59375 65.921875 
Q 27.828125 65.921875 22.671875 59.328125 
Q 17.53125 52.734375 16.796875 39.40625 
Q 19.671875 43.65625 24.015625 45.921875 
Q 28.375 48.1875 33.59375 48.1875 
Q 44.578125 48.1875 50.953125 41.515625 
Q 57.328125 34.859375 57.328125 23.390625 
Q 57.328125 12.15625 50.6875 5.359375 
Q 44.046875 -1.421875 33.015625 -1.421875 
Q 20.359375 -1.421875 13.671875 8.265625 
Q 6.984375 17.96875 6.984375 36.375 
Q 6.984375 53.65625 15.1875 63.9375 
Q 23.390625 74.21875 37.203125 74.21875 
Q 40.921875 74.21875 44.703125 73.484375 
Q 48.484375 72.75 52.59375 71.296875 
z
" id="DejaVuSans-54"/>
      </defs>
      <g transform="translate(236.316951 254.356562)scale(0.1 -0.1)">
       <use xlink:href="#DejaVuSans-48"/>
       <use x="63.623047" xlink:href="#DejaVuSans-46"/>
       <use x="95.410156" xlink:href="#DejaVuSans-54"/>
      </g>
     </g>
    </g>
    <g id="xtick_5">
     <g id="line2d_5">
      <g>
       <use style="stroke:#000000;stroke-width:0.8;" x="304.963415" xlink:href="#m5f7611fe9f" y="239.758125"/>
      </g>
     </g>
     <g id="text_5">
      <!-- 0.8 -->
      <defs>
       <path d="M 31.78125 34.625 
Q 24.75 34.625 20.71875 30.859375 
Q 16.703125 27.09375 16.703125 20.515625 
Q 16.703125 13.921875 20.71875 10.15625 
Q 24.75 6.390625 31.78125 6.390625 
Q 38.8125 6.390625 42.859375 10.171875 
Q 46.921875 13.96875 46.921875 20.515625 
Q 46.921875 27.09375 42.890625 30.859375 
Q 38.875 34.625 31.78125 34.625 
z
M 21.921875 38.8125 
Q 15.578125 40.375 12.03125 44.71875 
Q 8.5 49.078125 8.5 55.328125 
Q 8.5 64.0625 14.71875 69.140625 
Q 20.953125 74.21875 31.78125 74.21875 
Q 42.671875 74.21875 48.875 69.140625 
Q 55.078125 64.0625 55.078125 55.328125 
Q 55.078125 49.078125 51.53125 44.71875 
Q 48 40.375 41.703125 38.8125 
Q 48.828125 37.15625 52.796875 32.3125 
Q 56.78125 27.484375 56.78125 20.515625 
Q 56.78125 9.90625 50.3125 4.234375 
Q 43.84375 -1.421875 31.78125 -1.421875 
Q 19.734375 -1.421875 13.25 4.234375 
Q 6.78125 9.90625 6.78125 20.515625 
Q 6.78125 27.484375 10.78125 32.3125 
Q 14.796875 37.15625 21.921875 38.8125 
z
M 18.3125 54.390625 
Q 18.3125 48.734375 21.84375 45.5625 
Q 25.390625 42.390625 31.78125 42.390625 
Q 38.140625 42.390625 41.71875 45.5625 
Q 45.3125 48.734375 45.3125 54.390625 
Q 45.3125 60.0625 41.71875 63.234375 
Q 38.140625 66.40625 31.78125 66.40625 
Q 25.390625 66.40625 21.84375 63.234375 
Q 18.3125 60.0625 18.3125 54.390625 
z
" id="DejaVuSans-56"/>
      </defs>
      <g transform="translate(297.011853 254.356562)scale(0.1 -0.1)">
       <use xlink:href="#DejaVuSans-48"/>
       <use x="63.623047" xlink:href="#DejaVuSans-46"/>
       <use x="95.410156" xlink:href="#DejaVuSans-56"/>
      </g>
     </g>
    </g>
    <g id="xtick_6">
     <g id="line2d_6">
      <g>
       <use style="stroke:#000000;stroke-width:0.8;" x="365.658318" xlink:href="#m5f7611fe9f" y="239.758125"/>
      </g>
     </g>
     <g id="text_6">
      <!-- 1.0 -->
      <defs>
       <path d="M 12.40625 8.296875 
L 28.515625 8.296875 
L 28.515625 63.921875 
L 10.984375 60.40625 
L 10.984375 69.390625 
L 28.421875 72.90625 
L 38.28125 72.90625 
L 38.28125 8.296875 
L 54.390625 8.296875 
L 54.390625 0 
L 12.40625 0 
z
" id="DejaVuSans-49"/>
      </defs>
      <g transform="translate(357.706755 254.356562)scale(0.1 -0.1)">
       <use xlink:href="#DejaVuSans-49"/>
       <use x="63.623047" xlink:href="#DejaVuSans-46"/>
       <use x="95.410156" xlink:href="#DejaVuSans-48"/>
      </g>
     </g>
    </g>
    <g id="text_7">
     <!-- Time (ms) -->
     <defs>
      <path d="M -0.296875 72.90625 
L 61.375 72.90625 
L 61.375 64.59375 
L 35.5 64.59375 
L 35.5 0 
L 25.59375 0 
L 25.59375 64.59375 
L -0.296875 64.59375 
z
" id="DejaVuSans-84"/>
      <path d="M 9.421875 54.6875 
L 18.40625 54.6875 
L 18.40625 0 
L 9.421875 0 
z
M 9.421875 75.984375 
L 18.40625 75.984375 
L 18.40625 64.59375 
L 9.421875 64.59375 
z
" id="DejaVuSans-105"/>
      <path d="M 52 44.1875 
Q 55.375 50.25 60.0625 53.125 
Q 64.75 56 71.09375 56 
Q 79.640625 56 84.28125 50.015625 
Q 88.921875 44.046875 88.921875 33.015625 
L 88.921875 0 
L 79.890625 0 
L 79.890625 32.71875 
Q 79.890625 40.578125 77.09375 44.375 
Q 74.3125 48.1875 68.609375 48.1875 
Q 61.625 48.1875 57.5625 43.546875 
Q 53.515625 38.921875 53.515625 30.90625 
L 53.515625 0 
L 44.484375 0 
L 44.484375 32.71875 
Q 44.484375 40.625 41.703125 44.40625 
Q 38.921875 48.1875 33.109375 48.1875 
Q 26.21875 48.1875 22.15625 43.53125 
Q 18.109375 38.875 18.109375 30.90625 
L 18.109375 0 
L 9.078125 0 
L 9.078125 54.6875 
L 18.109375 54.6875 
L 18.109375 46.1875 
Q 21.1875 51.21875 25.484375 53.609375 
Q 29.78125 56 35.6875 56 
Q 41.65625 56 45.828125 52.96875 
Q 50 49.953125 52 44.1875 
z
" id="DejaVuSans-109"/>
      <path d="M 56.203125 29.59375 
L 56.203125 25.203125 
L 14.890625 25.203125 
Q 15.484375 15.921875 20.484375 11.0625 
Q 25.484375 6.203125 34.421875 6.203125 
Q 39.59375 6.203125 44.453125 7.46875 
Q 49.3125 8.734375 54.109375 11.28125 
L 54.109375 2.78125 
Q 49.265625 0.734375 44.1875 -0.34375 
Q 39.109375 -1.421875 33.890625 -1.421875 
Q 20.796875 -1.421875 13.15625 6.1875 
Q 5.515625 13.8125 5.515625 26.8125 
Q 5.515625 40.234375 12.765625 48.109375 
Q 20.015625 56 32.328125 56 
Q 43.359375 56 49.78125 48.890625 
Q 56.203125 41.796875 56.203125 29.59375 
z
M 47.21875 32.234375 
Q 47.125 39.59375 43.09375 43.984375 
Q 39.0625 48.390625 32.421875 48.390625 
Q 24.90625 48.390625 20.390625 44.140625 
Q 15.875 39.890625 15.1875 32.171875 
z
" id="DejaVuSans-101"/>
      <path id="DejaVuSans-32"/>
      <path d="M 31 75.875 
Q 24.46875 64.65625 21.28125 53.65625 
Q 18.109375 42.671875 18.109375 31.390625 
Q 18.109375 20.125 21.3125 9.0625 
Q 24.515625 -2 31 -13.1875 
L 23.1875 -13.1875 
Q 15.875 -1.703125 12.234375 9.375 
Q 8.59375 20.453125 8.59375 31.390625 
Q 8.59375 42.28125 12.203125 53.3125 
Q 15.828125 64.359375 23.1875 75.875 
z
" id="DejaVuSans-40"/>
      <path d="M 44.28125 53.078125 
L 44.28125 44.578125 
Q 40.484375 46.53125 36.375 47.5 
Q 32.28125 48.484375 27.875 48.484375 
Q 21.1875 48.484375 17.84375 46.4375 
Q 14.5 44.390625 14.5 40.28125 
Q 14.5 37.15625 16.890625 35.375 
Q 19.28125 33.59375 26.515625 31.984375 
L 29.59375 31.296875 
Q 39.15625 29.25 43.1875 25.515625 
Q 47.21875 21.78125 47.21875 15.09375 
Q 47.21875 7.46875 41.1875 3.015625 
Q 35.15625 -1.421875 24.609375 -1.421875 
Q 20.21875 -1.421875 15.453125 -0.5625 
Q 10.6875 0.296875 5.421875 2 
L 5.421875 11.28125 
Q 10.40625 8.6875 15.234375 7.390625 
Q 20.0625 6.109375 24.8125 6.109375 
Q 31.15625 6.109375 34.5625 8.28125 
Q 37.984375 10.453125 37.984375 14.40625 
Q 37.984375 18.0625 35.515625 20.015625 
Q 33.0625 21.96875 24.703125 23.78125 
L 21.578125 24.515625 
Q 13.234375 26.265625 9.515625 29.90625 
Q 5.8125 33.546875 5.8125 39.890625 
Q 5.8125 47.609375 11.28125 51.796875 
Q 16.75 56 26.8125 56 
Q 31.78125 56 36.171875 55.265625 
Q 40.578125 54.546875 44.28125 53.078125 
z
" id="DejaVuSans-115"/>
      <path d="M 8.015625 75.875 
L 15.828125 75.875 
Q 23.140625 64.359375 26.78125 53.3125 
Q 30.421875 42.28125 30.421875 31.390625 
Q 30.421875 20.453125 26.78125 9.375 
Q 23.140625 -1.703125 15.828125 -13.1875 
L 8.015625 -13.1875 
Q 14.5 -2 17.703125 9.0625 
Q 20.90625 20.125 20.90625 31.390625 
Q 20.90625 42.671875 17.703125 53.65625 
Q 14.5 64.65625 8.015625 75.875 
z
" id="DejaVuSans-41"/>
     </defs>
     <g transform="translate(189.0125 268.034687)scale(0.1 -0.1)">
      <use xlink:href="#DejaVuSans-84"/>
      <use x="61.037109" xlink:href="#DejaVuSans-105"/>
      <use x="88.820312" xlink:href="#DejaVuSans-109"/>
      <use x="186.232422" xlink:href="#DejaVuSans-101"/>
      <use x="247.755859" xlink:href="#DejaVuSans-32"/>
      <use x="279.542969" xlink:href="#DejaVuSans-40"/>
      <use x="318.556641" xlink:href="#DejaVuSans-109"/>
      <use x="415.96875" xlink:href="#DejaVuSans-115"/>
      <use x="468.068359" xlink:href="#DejaVuSans-41"/>
     </g>
    </g>
   </g>
   <g id="matplotlib.axis_2">
    <g id="ytick_1">
     <g id="line2d_7">
      <defs>
       <path d="M 0 0 
L -3.5 0 
" id="m3d9f585b41" style="stroke:#000000;stroke-width:0.8;"/>
      </defs>
      <g>
       <use style="stroke:#000000;stroke-width:0.8;" x="46.965625" xlink:href="#m3d9f585b41" y="229.874489"/>
      </g>
     </g>
     <g id="text_8">
      <!-- 0 -->
      <g transform="translate(33.603125 233.673707)scale(0.1 -0.1)">
       <use xlink:href="#DejaVuSans-48"/>
      </g>
     </g>
    </g>
    <g id="ytick_2">
     <g id="line2d_8">
      <g>
       <use style="stroke:#000000;stroke-width:0.8;" x="46.965625" xlink:href="#m3d9f585b41" y="202.594662"/>
      </g>
     </g>
     <g id="text_9">
      <!-- 25 -->
      <defs>
       <path d="M 10.796875 72.90625 
L 49.515625 72.90625 
L 49.515625 64.59375 
L 19.828125 64.59375 
L 19.828125 46.734375 
Q 21.96875 47.46875 24.109375 47.828125 
Q 26.265625 48.1875 28.421875 48.1875 
Q 40.625 48.1875 47.75 41.5 
Q 54.890625 34.8125 54.890625 23.390625 
Q 54.890625 11.625 47.5625 5.09375 
Q 40.234375 -1.421875 26.90625 -1.421875 
Q 22.3125 -1.421875 17.546875 -0.640625 
Q 12.796875 0.140625 7.71875 1.703125 
L 7.71875 11.625 
Q 12.109375 9.234375 16.796875 8.0625 
Q 21.484375 6.890625 26.703125 6.890625 
Q 35.15625 6.890625 40.078125 11.328125 
Q 45.015625 15.765625 45.015625 23.390625 
Q 45.015625 31 40.078125 35.4375 
Q 35.15625 39.890625 26.703125 39.890625 
Q 22.75 39.890625 18.8125 39.015625 
Q 14.890625 38.140625 10.796875 36.28125 
z
" id="DejaVuSans-53"/>
      </defs>
      <g transform="translate(27.240625 206.39388)scale(0.1 -0.1)">
       <use xlink:href="#DejaVuSans-50"/>
       <use x="63.623047" xlink:href="#DejaVuSans-53"/>
      </g>
     </g>
    </g>
    <g id="ytick_3">
     <g id="line2d_9">
      <g>
       <use style="stroke:#000000;stroke-width:0.8;" x="46.965625" xlink:href="#m3d9f585b41" y="175.314835"/>
      </g>
     </g>
     <g id="text_10">
      <!-- 50 -->
      <g transform="translate(27.240625 179.114054)scale(0.1 -0.1)">
       <use xlink:href="#DejaVuSans-53"/>
       <use x="63.623047" xlink:href="#DejaVuSans-48"/>
      </g>
     </g>
    </g>
    <g id="ytick_4">
     <g id="line2d_10">
      <g>
       <use style="stroke:#000000;stroke-width:0.8;" x="46.965625" xlink:href="#m3d9f585b41" y="148.035008"/>
      </g>
     </g>
     <g id="text_11">
      <!-- 75 -->
      <defs>
       <path d="M 8.203125 72.90625 
L 55.078125 72.90625 
L 55.078125 68.703125 
L 28.609375 0 
L 18.3125 0 
L 43.21875 64.59375 
L 8.203125 64.59375 
z
" id="DejaVuSans-55"/>
      </defs>
      <g transform="translate(27.240625 151.834227)scale(0.1 -0.1)">
       <use xlink:href="#DejaVuSans-55"/>
       <use x="63.623047" xlink:href="#DejaVuSans-53"/>
      </g>
     </g>
    </g>
    <g id="ytick_5">
     <g id="line2d_11">
      <g>
       <use style="stroke:#000000;stroke-width:0.8;" x="46.965625" xlink:href="#m3d9f585b41" y="120.755181"/>
      </g>
     </g>
     <g id="text_12">
      <!-- 100 -->
      <g transform="translate(20.878125 124.5544)scale(0.1 -0.1)">
       <use xlink:href="#DejaVuSans-49"/>
       <use x="63.623047" xlink:href="#DejaVuSans-48"/>
       <use x="127.246094" xlink:href="#DejaVuSans-48"/>
      </g>
     </g>
    </g>
    <g id="ytick_6">
     <g id="line2d_12">
      <g>
       <use style="stroke:#000000;stroke-width:0.8;" x="46.965625" xlink:href="#m3d9f585b41" y="93.475354"/>
      </g>
     </g>
     <g id="text_13">
      <!-- 125 -->
      <g transform="translate(20.878125 97.274573)scale(0.1 -0.1)">
       <use xlink:href="#DejaVuSans-49"/>
       <use x="63.623047" xlink:href="#DejaVuSans-50"/>
       <use x="127.246094" xlink:href="#DejaVuSans-53"/>
      </g>
     </g>
    </g>
    <g id="ytick_7">
     <g id="line2d_13">
      <g>
       <use style="stroke:#000000;stroke-width:0.8;" x="46.965625" xlink:href="#m3d9f585b41" y="66.195527"/>
      </g>
     </g>
     <g id="text_14">
      <!-- 150 -->
      <g transform="translate(20.878125 69.994746)scale(0.1 -0.1)">
       <use xlink:href="#DejaVuSans-49"/>
       <use x="63.623047" xlink:href="#DejaVuSans-53"/>
       <use x="127.246094" xlink:href="#DejaVuSans-48"/>
      </g>
     </g>
    </g>
    <g id="ytick_8">
     <g id="line2d_14">
      <g>
       <use style="stroke:#000000;stroke-width:0.8;" x="46.965625" xlink:href="#m3d9f585b41" y="38.9157"/>
      </g>
     </g>
     <g id="text_15">
      <!-- 175 -->
      <g transform="translate(20.878125 42.714919)scale(0.1 -0.1)">
       <use xlink:href="#DejaVuSans-49"/>
       <use x="63.623047" xlink:href="#DejaVuSans-55"/>
       <use x="127.246094" xlink:href="#DejaVuSans-53"/>
      </g>
     </g>
    </g>
    <g id="text_16">
     <!-- ppmOH -->
     <defs>
      <path d="M 18.109375 8.203125 
L 18.109375 -20.796875 
L 9.078125 -20.796875 
L 9.078125 54.6875 
L 18.109375 54.6875 
L 18.109375 46.390625 
Q 20.953125 51.265625 25.265625 53.625 
Q 29.59375 56 35.59375 56 
Q 45.5625 56 51.78125 48.09375 
Q 58.015625 40.1875 58.015625 27.296875 
Q 58.015625 14.40625 51.78125 6.484375 
Q 45.5625 -1.421875 35.59375 -1.421875 
Q 29.59375 -1.421875 25.265625 0.953125 
Q 20.953125 3.328125 18.109375 8.203125 
z
M 48.6875 27.296875 
Q 48.6875 37.203125 44.609375 42.84375 
Q 40.53125 48.484375 33.40625 48.484375 
Q 26.265625 48.484375 22.1875 42.84375 
Q 18.109375 37.203125 18.109375 27.296875 
Q 18.109375 17.390625 22.1875 11.75 
Q 26.265625 6.109375 33.40625 6.109375 
Q 40.53125 6.109375 44.609375 11.75 
Q 48.6875 17.390625 48.6875 27.296875 
z
" id="DejaVuSans-112"/>
      <path d="M 39.40625 66.21875 
Q 28.65625 66.21875 22.328125 58.203125 
Q 16.015625 50.203125 16.015625 36.375 
Q 16.015625 22.609375 22.328125 14.59375 
Q 28.65625 6.59375 39.40625 6.59375 
Q 50.140625 6.59375 56.421875 14.59375 
Q 62.703125 22.609375 62.703125 36.375 
Q 62.703125 50.203125 56.421875 58.203125 
Q 50.140625 66.21875 39.40625 66.21875 
z
M 39.40625 74.21875 
Q 54.734375 74.21875 63.90625 63.9375 
Q 73.09375 53.65625 73.09375 36.375 
Q 73.09375 19.140625 63.90625 8.859375 
Q 54.734375 -1.421875 39.40625 -1.421875 
Q 24.03125 -1.421875 14.8125 8.828125 
Q 5.609375 19.09375 5.609375 36.375 
Q 5.609375 53.65625 14.8125 63.9375 
Q 24.03125 74.21875 39.40625 74.21875 
z
" id="DejaVuSans-79"/>
      <path d="M 9.8125 72.90625 
L 19.671875 72.90625 
L 19.671875 43.015625 
L 55.515625 43.015625 
L 55.515625 72.90625 
L 65.375 72.90625 
L 65.375 0 
L 55.515625 0 
L 55.515625 34.71875 
L 19.671875 34.71875 
L 19.671875 0 
L 9.8125 0 
z
" id="DejaVuSans-72"/>
     </defs>
     <g transform="translate(14.798438 149.952969)rotate(-90)scale(0.1 -0.1)">
      <use xlink:href="#DejaVuSans-112"/>
      <use x="63.476562" xlink:href="#DejaVuSans-112"/>
      <use x="126.953125" xlink:href="#DejaVuSans-109"/>
      <use x="224.365234" xlink:href="#DejaVuSans-79"/>
      <use x="303.076172" xlink:href="#DejaVuSans-72"/>
     </g>
    </g>
   </g>
   <g id="line2d_15">
    <path clip-path="url(#p057b155994)" d="M 62.183807 229.874489 
L 62.796918 193.112844 
L 63.434912 167.322337 
L 64.019739 151.797296 
L 64.604567 141.88082 
L 65.110677 136.579493 
L 65.591235 133.578872 
L 65.991701 132.187721 
L 66.392166 131.538346 
L 66.712538 131.419462 
L 67.03291 131.568258 
L 67.433376 132.031951 
L 68.07412 133.19007 
L 69.358741 136.148697 
L 71.287238 140.461883 
L 72.677401 143.017255 
L 74.130263 145.191575 
L 75.583124 146.954054 
L 77.217594 148.564728 
L 78.952433 149.960352 
L 81.14703 151.404307 
L 83.757802 152.813207 
L 87.062198 154.301783 
L 91.192692 155.901645 
L 97.395379 158.039846 
L 107.532449 161.270105 
L 122.358483 165.758868 
L 135.868697 169.628765 
L 147.886358 172.858531 
L 160.706927 176.067602 
L 173.527495 179.038257 
L 187.508072 182.027914 
L 201.615171 184.809954 
L 216.275321 187.480735 
L 232.401485 190.184437 
L 248.527649 192.656561 
L 264.653813 194.900766 
L 280.779977 196.916943 
L 296.906141 198.707443 
L 313.032306 200.280435 
L 330.624485 201.765373 
L 348.216664 203.033462 
L 366.547443 204.154268 
L 366.547443 204.154268 
" style="fill:none;stroke:#0000ff;stroke-linecap:square;stroke-width:1.5;"/>
   </g>
   <g id="line2d_16">
    <path clip-path="url(#p057b155994)" d="M 62.183807 229.874489 
L 62.94729 164.471175 
L 63.721501 115.856791 
L 64.431194 84.014848 
L 65.140887 61.921076 
L 65.786063 48.492868 
L 66.399802 40.247449 
L 66.887796 36.1181 
L 67.375789 33.644713 
L 67.766184 32.601917 
L 68.05898 32.25703 
L 68.351776 32.220516 
L 68.644572 32.440637 
L 69.034967 33.056381 
L 69.620559 34.493574 
L 70.498948 37.362969 
L 75.403651 54.588034 
L 76.802209 58.375913 
L 78.348109 61.968922 
L 79.894009 65.052321 
L 81.772957 68.270729 
L 83.771246 71.221834 
L 86.102582 74.231599 
L 88.749618 77.264271 
L 91.979306 80.604646 
L 96.087493 84.499272 
L 101.196606 89.009367 
L 107.217429 94.026598 
L 114.182903 99.545963 
L 121.149394 104.81812 
L 129.606645 110.933517 
L 138.063897 116.783773 
L 148.179418 123.498406 
L 158.586044 130.14634 
L 169.710417 136.993174 
L 179.955603 143.042675 
L 189.17627 148.232673 
L 197.372419 152.602547 
L 205.568569 156.709893 
L 212.740199 160.069572 
L 219.911829 163.200945 
L 227.08346 166.101663 
L 234.25509 168.77533 
L 241.426721 171.230309 
L 249.62287 173.783441 
L 257.819019 176.087297 
L 266.015168 178.1644 
L 275.246242 180.260483 
L 284.498128 182.132502 
L 295.291996 184.065007 
L 306.085864 185.76483 
L 318.421713 187.466777 
L 330.757563 188.953272 
L 345.48857 190.495274 
L 361.794433 191.960914 
L 366.453251 192.340227 
L 366.453251 192.340227 
" style="fill:none;stroke:#ff0000;stroke-linecap:square;stroke-width:1.5;"/>
   </g>
   <g id="line2d_17">
    <defs>
     <path d="M 0 3 
C 0.795609 3 1.55874 2.683901 2.12132 2.12132 
C 2.683901 1.55874 3 0.795609 3 0 
C 3 -0.795609 2.683901 -1.55874 2.12132 -2.12132 
C 1.55874 -2.683901 0.795609 -3 0 -3 
C -0.795609 -3 -1.55874 -2.683901 -2.12132 -2.12132 
C -2.683901 -1.55874 -3 -0.795609 -3 0 
C -3 0.795609 -2.683901 1.55874 -2.12132 2.12132 
C -1.55874 2.683901 -0.795609 3 0 3 
z
" id="mf48420077f" style="stroke:#000000;"/>
    </defs>
    <g clip-path="url(#p057b155994)">
     <use style="stroke:#000000;" x="65.130544" xlink:href="#mf48420077f" y="129.996495"/>
     <use style="stroke:#000000;" x="65.18517" xlink:href="#mf48420077f" y="129.687797"/>
     <use style="stroke:#000000;" x="65.248899" xlink:href="#mf48420077f" y="129.402559"/>
     <use style="stroke:#000000;" x="65.279247" xlink:href="#mf48420077f" y="129.139799"/>
     <use style="stroke:#000000;" x="65.339942" xlink:href="#mf48420077f" y="128.898537"/>
     <use style="stroke:#000000;" x="65.400637" xlink:href="#mf48420077f" y="128.677897"/>
     <use style="stroke:#000000;" x="65.461332" xlink:href="#mf48420077f" y="128.477118"/>
     <use style="stroke:#000000;" x="65.522026" xlink:href="#mf48420077f" y="128.295107"/>
     <use style="stroke:#000000;" x="65.552374" xlink:href="#mf48420077f" y="128.131319"/>
     <use style="stroke:#000000;" x="65.613069" xlink:href="#mf48420077f" y="127.984772"/>
     <use style="stroke:#000000;" x="65.704111" xlink:href="#mf48420077f" y="127.794467"/>
     <use style="stroke:#000000;" x="65.764806" xlink:href="#mf48420077f" y="127.639518"/>
     <use style="stroke:#000000;" x="65.855848" xlink:href="#mf48420077f" y="127.517632"/>
     <use style="stroke:#000000;" x="65.946891" xlink:href="#mf48420077f" y="127.426517"/>
     <use style="stroke:#000000;" x="66.007586" xlink:href="#mf48420077f" y="127.36421"/>
     <use style="stroke:#000000;" x="66.098628" xlink:href="#mf48420077f" y="127.328528"/>
     <use style="stroke:#000000;" x="66.18967" xlink:href="#mf48420077f" y="127.317725"/>
     <use style="stroke:#000000;" x="66.250365" xlink:href="#mf48420077f" y="127.329837"/>
     <use style="stroke:#000000;" x="66.341408" xlink:href="#mf48420077f" y="127.363446"/>
     <use style="stroke:#000000;" x="66.43245" xlink:href="#mf48420077f" y="127.416806"/>
     <use style="stroke:#000000;" x="66.523492" xlink:href="#mf48420077f" y="127.488497"/>
     <use style="stroke:#000000;" x="66.584187" xlink:href="#mf48420077f" y="127.577102"/>
     <use style="stroke:#000000;" x="66.67523" xlink:href="#mf48420077f" y="127.681202"/>
     <use style="stroke:#000000;" x="66.766272" xlink:href="#mf48420077f" y="127.799705"/>
     <use style="stroke:#000000;" x="66.826967" xlink:href="#mf48420077f" y="127.931521"/>
     <use style="stroke:#000000;" x="66.918009" xlink:href="#mf48420077f" y="128.075231"/>
     <use style="stroke:#000000;" x="67.009052" xlink:href="#mf48420077f" y="128.230181"/>
     <use style="stroke:#000000;" x="67.069746" xlink:href="#mf48420077f" y="128.395169"/>
     <use style="stroke:#000000;" x="67.160789" xlink:href="#mf48420077f" y="128.569433"/>
     <use style="stroke:#000000;" x="67.251831" xlink:href="#mf48420077f" y="128.752099"/>
     <use style="stroke:#000000;" x="67.312526" xlink:href="#mf48420077f" y="128.942293"/>
     <use style="stroke:#000000;" x="67.403568" xlink:href="#mf48420077f" y="129.139254"/>
     <use style="stroke:#000000;" x="67.494611" xlink:href="#mf48420077f" y="129.342543"/>
     <use style="stroke:#000000;" x="67.555306" xlink:href="#mf48420077f" y="129.551288"/>
     <use style="stroke:#000000;" x="67.646348" xlink:href="#mf48420077f" y="129.764944"/>
     <use style="stroke:#000000;" x="67.73739" xlink:href="#mf48420077f" y="129.982964"/>
     <use style="stroke:#000000;" x="67.798085" xlink:href="#mf48420077f" y="130.204804"/>
     <use style="stroke:#000000;" x="67.889128" xlink:href="#mf48420077f" y="130.429917"/>
     <use style="stroke:#000000;" x="67.98017" xlink:href="#mf48420077f" y="130.658085"/>
     <use style="stroke:#000000;" x="68.040865" xlink:href="#mf48420077f" y="130.888545"/>
     <use style="stroke:#000000;" x="68.131907" xlink:href="#mf48420077f" y="131.121188"/>
     <use style="stroke:#000000;" x="68.22295" xlink:href="#mf48420077f" y="131.355576"/>
     <use style="stroke:#000000;" x="68.283644" xlink:href="#mf48420077f" y="131.591274"/>
     <use style="stroke:#000000;" x="68.374687" xlink:href="#mf48420077f" y="131.828063"/>
     <use style="stroke:#000000;" x="68.465729" xlink:href="#mf48420077f" y="132.065615"/>
     <use style="stroke:#000000;" x="68.556772" xlink:href="#mf48420077f" y="132.303605"/>
     <use style="stroke:#000000;" x="68.617466" xlink:href="#mf48420077f" y="132.541921"/>
     <use style="stroke:#000000;" x="68.708509" xlink:href="#mf48420077f" y="132.780238"/>
     <use style="stroke:#000000;" x="68.799551" xlink:href="#mf48420077f" y="133.018336"/>
     <use style="stroke:#000000;" x="68.860246" xlink:href="#mf48420077f" y="133.255998"/>
     <use style="stroke:#000000;" x="68.951288" xlink:href="#mf48420077f" y="133.493223"/>
     <use style="stroke:#000000;" x="69.042331" xlink:href="#mf48420077f" y="133.729685"/>
     <use style="stroke:#000000;" x="69.103026" xlink:href="#mf48420077f" y="133.965164"/>
     <use style="stroke:#000000;" x="69.194068" xlink:href="#mf48420077f" y="134.199771"/>
     <use style="stroke:#000000;" x="69.28511" xlink:href="#mf48420077f" y="134.433177"/>
     <use style="stroke:#000000;" x="69.345805" xlink:href="#mf48420077f" y="134.665274"/>
     <use style="stroke:#000000;" x="69.436848" xlink:href="#mf48420077f" y="134.896061"/>
     <use style="stroke:#000000;" x="69.52789" xlink:href="#mf48420077f" y="135.125321"/>
     <use style="stroke:#000000;" x="69.588585" xlink:href="#mf48420077f" y="135.353053"/>
     <use style="stroke:#000000;" x="69.679627" xlink:href="#mf48420077f" y="135.579257"/>
     <use style="stroke:#000000;" x="69.77067" xlink:href="#mf48420077f" y="135.803716"/>
     <use style="stroke:#000000;" x="69.892059" xlink:href="#mf48420077f" y="136.138603"/>
     <use style="stroke:#000000;" x="70.013449" xlink:href="#mf48420077f" y="136.469452"/>
     <use style="stroke:#000000;" x="70.134839" xlink:href="#mf48420077f" y="136.795828"/>
     <use style="stroke:#000000;" x="70.256229" xlink:href="#mf48420077f" y="137.117839"/>
     <use style="stroke:#000000;" x="70.377619" xlink:href="#mf48420077f" y="137.435377"/>
     <use style="stroke:#000000;" x="70.499008" xlink:href="#mf48420077f" y="137.748112"/>
     <use style="stroke:#000000;" x="70.620398" xlink:href="#mf48420077f" y="138.056265"/>
     <use style="stroke:#000000;" x="70.741788" xlink:href="#mf48420077f" y="138.359726"/>
     <use style="stroke:#000000;" x="70.863178" xlink:href="#mf48420077f" y="138.658386"/>
     <use style="stroke:#000000;" x="70.984568" xlink:href="#mf48420077f" y="138.952244"/>
     <use style="stroke:#000000;" x="71.105957" xlink:href="#mf48420077f" y="139.241301"/>
     <use style="stroke:#000000;" x="71.227347" xlink:href="#mf48420077f" y="139.525775"/>
     <use style="stroke:#000000;" x="71.348737" xlink:href="#mf48420077f" y="139.805448"/>
     <use style="stroke:#000000;" x="71.470127" xlink:href="#mf48420077f" y="140.080429"/>
     <use style="stroke:#000000;" x="71.591517" xlink:href="#mf48420077f" y="140.350717"/>
     <use style="stroke:#000000;" x="71.712906" xlink:href="#mf48420077f" y="140.616423"/>
     <use style="stroke:#000000;" x="71.834296" xlink:href="#mf48420077f" y="140.877545"/>
     <use style="stroke:#000000;" x="71.955686" xlink:href="#mf48420077f" y="141.134194"/>
     <use style="stroke:#000000;" x="72.077076" xlink:href="#mf48420077f" y="141.386478"/>
     <use style="stroke:#000000;" x="72.228813" xlink:href="#mf48420077f" y="141.634288"/>
     <use style="stroke:#000000;" x="72.350203" xlink:href="#mf48420077f" y="141.877842"/>
     <use style="stroke:#000000;" x="72.471593" xlink:href="#mf48420077f" y="142.11714"/>
     <use style="stroke:#000000;" x="72.653677" xlink:href="#mf48420077f" y="142.471014"/>
     <use style="stroke:#000000;" x="72.835762" xlink:href="#mf48420077f" y="142.815613"/>
     <use style="stroke:#000000;" x="73.017847" xlink:href="#mf48420077f" y="143.151155"/>
     <use style="stroke:#000000;" x="73.199932" xlink:href="#mf48420077f" y="143.477858"/>
     <use style="stroke:#000000;" x="73.382016" xlink:href="#mf48420077f" y="143.79605"/>
     <use style="stroke:#000000;" x="73.564101" xlink:href="#mf48420077f" y="144.106058"/>
     <use style="stroke:#000000;" x="73.746186" xlink:href="#mf48420077f" y="144.407991"/>
     <use style="stroke:#000000;" x="73.92827" xlink:href="#mf48420077f" y="144.702068"/>
     <use style="stroke:#000000;" x="74.140703" xlink:href="#mf48420077f" y="144.988724"/>
     <use style="stroke:#000000;" x="74.322787" xlink:href="#mf48420077f" y="145.26807"/>
     <use style="stroke:#000000;" x="74.504872" xlink:href="#mf48420077f" y="145.540431"/>
     <use style="stroke:#000000;" x="74.686957" xlink:href="#mf48420077f" y="145.805919"/>
     <use style="stroke:#000000;" x="74.869041" xlink:href="#mf48420077f" y="146.06475"/>
     <use style="stroke:#000000;" x="75.051126" xlink:href="#mf48420077f" y="146.317361"/>
     <use style="stroke:#000000;" x="75.233211" xlink:href="#mf48420077f" y="146.563752"/>
     <use style="stroke:#000000;" x="75.415295" xlink:href="#mf48420077f" y="146.804251"/>
     <use style="stroke:#000000;" x="75.59738" xlink:href="#mf48420077f" y="147.038967"/>
     <use style="stroke:#000000;" x="75.809812" xlink:href="#mf48420077f" y="147.268117"/>
     <use style="stroke:#000000;" x="75.991897" xlink:href="#mf48420077f" y="147.491921"/>
     <use style="stroke:#000000;" x="76.173982" xlink:href="#mf48420077f" y="147.710596"/>
     <use style="stroke:#000000;" x="76.356066" xlink:href="#mf48420077f" y="147.924361"/>
     <use style="stroke:#000000;" x="76.538151" xlink:href="#mf48420077f" y="148.133215"/>
     <use style="stroke:#000000;" x="76.720236" xlink:href="#mf48420077f" y="148.337377"/>
     <use style="stroke:#000000;" x="76.902321" xlink:href="#mf48420077f" y="148.537175"/>
     <use style="stroke:#000000;" x="77.084405" xlink:href="#mf48420077f" y="148.732608"/>
     <use style="stroke:#000000;" x="77.26649" xlink:href="#mf48420077f" y="148.923785"/>
     <use style="stroke:#000000;" x="77.448575" xlink:href="#mf48420077f" y="149.111033"/>
     <use style="stroke:#000000;" x="77.661007" xlink:href="#mf48420077f" y="149.294245"/>
     <use style="stroke:#000000;" x="77.843092" xlink:href="#mf48420077f" y="149.473855"/>
     <use style="stroke:#000000;" x="78.025176" xlink:href="#mf48420077f" y="149.649755"/>
     <use style="stroke:#000000;" x="78.207261" xlink:href="#mf48420077f" y="149.822055"/>
     <use style="stroke:#000000;" x="78.389346" xlink:href="#mf48420077f" y="149.991081"/>
     <use style="stroke:#000000;" x="78.57143" xlink:href="#mf48420077f" y="150.156833"/>
     <use style="stroke:#000000;" x="78.753515" xlink:href="#mf48420077f" y="150.319421"/>
     <use style="stroke:#000000;" x="78.9356" xlink:href="#mf48420077f" y="150.478953"/>
     <use style="stroke:#000000;" x="79.117685" xlink:href="#mf48420077f" y="150.635539"/>
     <use style="stroke:#000000;" x="79.330117" xlink:href="#mf48420077f" y="150.789288"/>
     <use style="stroke:#000000;" x="79.512201" xlink:href="#mf48420077f" y="150.940309"/>
     <use style="stroke:#000000;" x="79.694286" xlink:href="#mf48420077f" y="151.088603"/>
     <use style="stroke:#000000;" x="79.876371" xlink:href="#mf48420077f" y="151.234386"/>
     <use style="stroke:#000000;" x="80.058456" xlink:href="#mf48420077f" y="151.377769"/>
     <use style="stroke:#000000;" x="80.24054" xlink:href="#mf48420077f" y="151.518642"/>
     <use style="stroke:#000000;" x="80.422625" xlink:href="#mf48420077f" y="151.657332"/>
     <use style="stroke:#000000;" x="80.695752" xlink:href="#mf48420077f" y="151.862913"/>
     <use style="stroke:#000000;" x="80.999226" xlink:href="#mf48420077f" y="152.063693"/>
     <use style="stroke:#000000;" x="81.272354" xlink:href="#mf48420077f" y="152.259889"/>
     <use style="stroke:#000000;" x="81.545481" xlink:href="#mf48420077f" y="152.451721"/>
     <use style="stroke:#000000;" x="81.818608" xlink:href="#mf48420077f" y="152.639297"/>
     <use style="stroke:#000000;" x="82.122082" xlink:href="#mf48420077f" y="152.822945"/>
     <use style="stroke:#000000;" x="82.395209" xlink:href="#mf48420077f" y="153.002883"/>
     <use style="stroke:#000000;" x="82.668336" xlink:href="#mf48420077f" y="153.17911"/>
     <use style="stroke:#000000;" x="82.941463" xlink:href="#mf48420077f" y="153.352064"/>
     <use style="stroke:#000000;" x="83.244938" xlink:href="#mf48420077f" y="153.521745"/>
     <use style="stroke:#000000;" x="83.518065" xlink:href="#mf48420077f" y="153.68837"/>
     <use style="stroke:#000000;" x="83.791192" xlink:href="#mf48420077f" y="153.85194"/>
     <use style="stroke:#000000;" x="84.064319" xlink:href="#mf48420077f" y="154.012891"/>
     <use style="stroke:#000000;" x="84.367794" xlink:href="#mf48420077f" y="154.171005"/>
     <use style="stroke:#000000;" x="84.640921" xlink:href="#mf48420077f" y="154.326718"/>
     <use style="stroke:#000000;" x="84.914048" xlink:href="#mf48420077f" y="154.479922"/>
     <use style="stroke:#000000;" x="85.187175" xlink:href="#mf48420077f" y="154.630943"/>
     <use style="stroke:#000000;" x="85.490649" xlink:href="#mf48420077f" y="154.779672"/>
     <use style="stroke:#000000;" x="85.763776" xlink:href="#mf48420077f" y="154.926329"/>
     <use style="stroke:#000000;" x="86.036903" xlink:href="#mf48420077f" y="155.071021"/>
     <use style="stroke:#000000;" x="86.31003" xlink:href="#mf48420077f" y="155.213749"/>
     <use style="stroke:#000000;" x="86.613505" xlink:href="#mf48420077f" y="155.354622"/>
     <use style="stroke:#000000;" x="86.886632" xlink:href="#mf48420077f" y="155.493858"/>
     <use style="stroke:#000000;" x="87.159759" xlink:href="#mf48420077f" y="155.631348"/>
     <use style="stroke:#000000;" x="87.584623" xlink:href="#mf48420077f" y="155.834747"/>
     <use style="stroke:#000000;" x="88.009488" xlink:href="#mf48420077f" y="156.034872"/>
     <use style="stroke:#000000;" x="88.434352" xlink:href="#mf48420077f" y="156.231832"/>
     <use style="stroke:#000000;" x="88.859216" xlink:href="#mf48420077f" y="156.425846"/>
     <use style="stroke:#000000;" x="89.253733" xlink:href="#mf48420077f" y="156.617132"/>
     <use style="stroke:#000000;" x="89.678597" xlink:href="#mf48420077f" y="156.8058"/>
     <use style="stroke:#000000;" x="90.103462" xlink:href="#mf48420077f" y="156.992066"/>
     <use style="stroke:#000000;" x="90.528326" xlink:href="#mf48420077f" y="157.176151"/>
     <use style="stroke:#000000;" x="90.95319" xlink:href="#mf48420077f" y="157.358052"/>
     <use style="stroke:#000000;" x="91.378055" xlink:href="#mf48420077f" y="157.537881"/>
     <use style="stroke:#000000;" x="91.802919" xlink:href="#mf48420077f" y="157.715964"/>
     <use style="stroke:#000000;" x="92.227783" xlink:href="#mf48420077f" y="157.892191"/>
     <use style="stroke:#000000;" x="92.531258" xlink:href="#mf48420077f" y="158.066782"/>
     <use style="stroke:#000000;" x="93.138207" xlink:href="#mf48420077f" y="158.239736"/>
     <use style="stroke:#000000;" x="93.441681" xlink:href="#mf48420077f" y="158.411163"/>
     <use style="stroke:#000000;" x="94.04863" xlink:href="#mf48420077f" y="158.58128"/>
     <use style="stroke:#000000;" x="94.352105" xlink:href="#mf48420077f" y="158.749978"/>
     <use style="stroke:#000000;" x="94.655579" xlink:href="#mf48420077f" y="158.917476"/>
     <use style="stroke:#000000;" x="95.262528" xlink:href="#mf48420077f" y="159.083774"/>
     <use style="stroke:#000000;" x="95.566003" xlink:href="#mf48420077f" y="159.248872"/>
     <use style="stroke:#000000;" x="95.869478" xlink:href="#mf48420077f" y="159.412878"/>
     <use style="stroke:#000000;" x="96.476427" xlink:href="#mf48420077f" y="159.575902"/>
     <use style="stroke:#000000;" x="96.779901" xlink:href="#mf48420077f" y="159.737835"/>
     <use style="stroke:#000000;" x="97.38685" xlink:href="#mf48420077f" y="159.898895"/>
     <use style="stroke:#000000;" x="97.690325" xlink:href="#mf48420077f" y="160.059083"/>
     <use style="stroke:#000000;" x="97.993799" xlink:href="#mf48420077f" y="160.218397"/>
     <use style="stroke:#000000;" x="98.600748" xlink:href="#mf48420077f" y="160.376838"/>
     <use style="stroke:#000000;" x="98.904223" xlink:href="#mf48420077f" y="160.534515"/>
     <use style="stroke:#000000;" x="99.511172" xlink:href="#mf48420077f" y="160.691429"/>
     <use style="stroke:#000000;" x="99.814646" xlink:href="#mf48420077f" y="160.847688"/>
     <use style="stroke:#000000;" x="100.118121" xlink:href="#mf48420077f" y="161.003183"/>
     <use style="stroke:#000000;" x="100.72507" xlink:href="#mf48420077f" y="161.235607"/>
     <use style="stroke:#000000;" x="101.332019" xlink:href="#mf48420077f" y="161.466722"/>
     <use style="stroke:#000000;" x="102.242442" xlink:href="#mf48420077f" y="161.696418"/>
     <use style="stroke:#000000;" x="102.849391" xlink:href="#mf48420077f" y="161.924805"/>
     <use style="stroke:#000000;" x="103.45634" xlink:href="#mf48420077f" y="162.151882"/>
     <use style="stroke:#000000;" x="104.063289" xlink:href="#mf48420077f" y="162.377868"/>
     <use style="stroke:#000000;" x="104.670238" xlink:href="#mf48420077f" y="162.602763"/>
     <use style="stroke:#000000;" x="105.277187" xlink:href="#mf48420077f" y="162.826457"/>
     <use style="stroke:#000000;" x="105.884136" xlink:href="#mf48420077f" y="163.04917"/>
     <use style="stroke:#000000;" x="106.491085" xlink:href="#mf48420077f" y="163.270791"/>
     <use style="stroke:#000000;" x="107.098034" xlink:href="#mf48420077f" y="163.49143"/>
     <use style="stroke:#000000;" x="107.704983" xlink:href="#mf48420077f" y="163.711197"/>
     <use style="stroke:#000000;" x="108.311932" xlink:href="#mf48420077f" y="163.929981"/>
     <use style="stroke:#000000;" x="109.073957" xlink:href="#mf48420077f" y="164.147892"/>
     <use style="stroke:#000000;" x="109.707005" xlink:href="#mf48420077f" y="164.364931"/>
     <use style="stroke:#000000;" x="110.339749" xlink:href="#mf48420077f" y="164.581096"/>
     <use style="stroke:#000000;" x="110.972797" xlink:href="#mf48420077f" y="164.796497"/>
     <use style="stroke:#000000;" x="111.605541" xlink:href="#mf48420077f" y="165.010917"/>
     <use style="stroke:#000000;" x="112.238589" xlink:href="#mf48420077f" y="165.224682"/>
     <use style="stroke:#000000;" x="112.871334" xlink:href="#mf48420077f" y="165.437573"/>
     <use style="stroke:#000000;" x="113.504078" xlink:href="#mf48420077f" y="165.649701"/>
     <use style="stroke:#000000;" x="114.137126" xlink:href="#mf48420077f" y="165.860956"/>
     <use style="stroke:#000000;" x="114.76987" xlink:href="#mf48420077f" y="166.071556"/>
     <use style="stroke:#000000;" x="115.402918" xlink:href="#mf48420077f" y="166.281393"/>
     <use style="stroke:#000000;" x="116.36038" xlink:href="#mf48420077f" y="166.597512"/>
     <use style="stroke:#000000;" x="117.318146" xlink:href="#mf48420077f" y="166.911884"/>
     <use style="stroke:#000000;" x="118.275911" xlink:href="#mf48420077f" y="167.22462"/>
     <use style="stroke:#000000;" x="119.233373" xlink:href="#mf48420077f" y="167.535719"/>
     <use style="stroke:#000000;" x="120.191139" xlink:href="#mf48420077f" y="167.845182"/>
     <use style="stroke:#000000;" x="121.148601" xlink:href="#mf48420077f" y="168.153007"/>
     <use style="stroke:#000000;" x="122.106366" xlink:href="#mf48420077f" y="168.459196"/>
     <use style="stroke:#000000;" x="123.064132" xlink:href="#mf48420077f" y="168.763857"/>
     <use style="stroke:#000000;" x="124.021594" xlink:href="#mf48420077f" y="169.066991"/>
     <use style="stroke:#000000;" x="124.97936" xlink:href="#mf48420077f" y="169.368378"/>
     <use style="stroke:#000000;" x="125.936822" xlink:href="#mf48420077f" y="169.668347"/>
     <use style="stroke:#000000;" x="126.894587" xlink:href="#mf48420077f" y="169.966679"/>
     <use style="stroke:#000000;" x="127.852353" xlink:href="#mf48420077f" y="170.263375"/>
     <use style="stroke:#000000;" x="128.809815" xlink:href="#mf48420077f" y="170.558652"/>
     <use style="stroke:#000000;" x="129.76758" xlink:href="#mf48420077f" y="170.852182"/>
     <use style="stroke:#000000;" x="130.725042" xlink:href="#mf48420077f" y="171.144295"/>
     <use style="stroke:#000000;" x="131.682808" xlink:href="#mf48420077f" y="171.43477"/>
     <use style="stroke:#000000;" x="132.640574" xlink:href="#mf48420077f" y="171.723718"/>
     <use style="stroke:#000000;" x="133.598036" xlink:href="#mf48420077f" y="172.011139"/>
     <use style="stroke:#000000;" x="134.555801" xlink:href="#mf48420077f" y="172.296922"/>
     <use style="stroke:#000000;" x="135.513263" xlink:href="#mf48420077f" y="172.581287"/>
     <use style="stroke:#000000;" x="136.471029" xlink:href="#mf48420077f" y="172.864015"/>
     <use style="stroke:#000000;" x="137.428491" xlink:href="#mf48420077f" y="173.145106"/>
     <use style="stroke:#000000;" x="138.386256" xlink:href="#mf48420077f" y="173.424779"/>
     <use style="stroke:#000000;" x="139.344022" xlink:href="#mf48420077f" y="173.702815"/>
     <use style="stroke:#000000;" x="140.301484" xlink:href="#mf48420077f" y="173.979324"/>
     <use style="stroke:#000000;" x="141.25925" xlink:href="#mf48420077f" y="174.254195"/>
     <use style="stroke:#000000;" x="142.216712" xlink:href="#mf48420077f" y="174.527648"/>
     <use style="stroke:#000000;" x="143.174477" xlink:href="#mf48420077f" y="174.799464"/>
     <use style="stroke:#000000;" x="144.132243" xlink:href="#mf48420077f" y="175.069753"/>
     <use style="stroke:#000000;" x="145.089705" xlink:href="#mf48420077f" y="175.338514"/>
     <use style="stroke:#000000;" x="146.047471" xlink:href="#mf48420077f" y="175.605747"/>
     <use style="stroke:#000000;" x="147.004933" xlink:href="#mf48420077f" y="175.871343"/>
     <use style="stroke:#000000;" x="147.962698" xlink:href="#mf48420077f" y="176.135521"/>
     <use style="stroke:#000000;" x="148.920464" xlink:href="#mf48420077f" y="176.398062"/>
     <use style="stroke:#000000;" x="149.877926" xlink:href="#mf48420077f" y="176.659076"/>
     <use style="stroke:#000000;" x="150.835691" xlink:href="#mf48420077f" y="176.918561"/>
     <use style="stroke:#000000;" x="151.793153" xlink:href="#mf48420077f" y="177.176519"/>
     <use style="stroke:#000000;" x="152.750919" xlink:href="#mf48420077f" y="177.43295"/>
     <use style="stroke:#000000;" x="153.708685" xlink:href="#mf48420077f" y="177.687852"/>
     <use style="stroke:#000000;" x="154.666147" xlink:href="#mf48420077f" y="177.941118"/>
     <use style="stroke:#000000;" x="155.623912" xlink:href="#mf48420077f" y="178.192966"/>
     <use style="stroke:#000000;" x="156.581374" xlink:href="#mf48420077f" y="178.443285"/>
     <use style="stroke:#000000;" x="157.53914" xlink:href="#mf48420077f" y="178.692077"/>
     <use style="stroke:#000000;" x="158.496905" xlink:href="#mf48420077f" y="178.939342"/>
     <use style="stroke:#000000;" x="159.454367" xlink:href="#mf48420077f" y="179.185078"/>
     <use style="stroke:#000000;" x="160.412133" xlink:href="#mf48420077f" y="179.429397"/>
     <use style="stroke:#000000;" x="161.369595" xlink:href="#mf48420077f" y="179.672187"/>
     <use style="stroke:#000000;" x="162.327361" xlink:href="#mf48420077f" y="179.91345"/>
     <use style="stroke:#000000;" x="163.285126" xlink:href="#mf48420077f" y="180.153185"/>
     <use style="stroke:#000000;" x="164.242588" xlink:href="#mf48420077f" y="180.391392"/>
     <use style="stroke:#000000;" x="165.200354" xlink:href="#mf48420077f" y="180.628181"/>
     <use style="stroke:#000000;" x="166.157816" xlink:href="#mf48420077f" y="180.863552"/>
     <use style="stroke:#000000;" x="167.115581" xlink:href="#mf48420077f" y="181.097394"/>
     <use style="stroke:#000000;" x="168.073044" xlink:href="#mf48420077f" y="181.329709"/>
     <use style="stroke:#000000;" x="169.030809" xlink:href="#mf48420077f" y="181.560606"/>
     <use style="stroke:#000000;" x="169.988575" xlink:href="#mf48420077f" y="181.790084"/>
     <use style="stroke:#000000;" x="170.946037" xlink:href="#mf48420077f" y="182.018034"/>
     <use style="stroke:#000000;" x="171.903802" xlink:href="#mf48420077f" y="182.244675"/>
     <use style="stroke:#000000;" x="172.861264" xlink:href="#mf48420077f" y="182.469679"/>
     <use style="stroke:#000000;" x="173.81903" xlink:href="#mf48420077f" y="182.693373"/>
     <use style="stroke:#000000;" x="174.776795" xlink:href="#mf48420077f" y="182.915649"/>
     <use style="stroke:#000000;" x="175.734258" xlink:href="#mf48420077f" y="183.136507"/>
     <use style="stroke:#000000;" x="176.692023" xlink:href="#mf48420077f" y="183.355837"/>
     <use style="stroke:#000000;" x="177.649485" xlink:href="#mf48420077f" y="183.573857"/>
     <use style="stroke:#000000;" x="178.607251" xlink:href="#mf48420077f" y="183.790459"/>
     <use style="stroke:#000000;" x="179.565016" xlink:href="#mf48420077f" y="184.005642"/>
     <use style="stroke:#000000;" x="180.522478" xlink:href="#mf48420077f" y="184.219516"/>
     <use style="stroke:#000000;" x="181.480244" xlink:href="#mf48420077f" y="184.431971"/>
     <use style="stroke:#000000;" x="182.437706" xlink:href="#mf48420077f" y="184.643008"/>
     <use style="stroke:#000000;" x="183.395472" xlink:href="#mf48420077f" y="184.852626"/>
     <use style="stroke:#000000;" x="184.353237" xlink:href="#mf48420077f" y="185.061044"/>
     <use style="stroke:#000000;" x="185.310699" xlink:href="#mf48420077f" y="185.267934"/>
     <use style="stroke:#000000;" x="186.268465" xlink:href="#mf48420077f" y="185.473624"/>
     <use style="stroke:#000000;" x="187.225927" xlink:href="#mf48420077f" y="185.677895"/>
     <use style="stroke:#000000;" x="188.183692" xlink:href="#mf48420077f" y="185.880857"/>
     <use style="stroke:#000000;" x="189.141458" xlink:href="#mf48420077f" y="186.08251"/>
     <use style="stroke:#000000;" x="190.09892" xlink:href="#mf48420077f" y="186.282853"/>
     <use style="stroke:#000000;" x="191.056686" xlink:href="#mf48420077f" y="186.481887"/>
     <use style="stroke:#000000;" x="192.014148" xlink:href="#mf48420077f" y="186.679502"/>
     <use style="stroke:#000000;" x="192.971913" xlink:href="#mf48420077f" y="186.875916"/>
     <use style="stroke:#000000;" x="193.929375" xlink:href="#mf48420077f" y="187.071131"/>
     <use style="stroke:#000000;" x="194.887141" xlink:href="#mf48420077f" y="187.264927"/>
     <use style="stroke:#000000;" x="195.844906" xlink:href="#mf48420077f" y="187.457522"/>
     <use style="stroke:#000000;" x="196.802369" xlink:href="#mf48420077f" y="187.648808"/>
     <use style="stroke:#000000;" x="197.760134" xlink:href="#mf48420077f" y="187.838894"/>
     <use style="stroke:#000000;" x="198.717596" xlink:href="#mf48420077f" y="188.027671"/>
     <use style="stroke:#000000;" x="199.675362" xlink:href="#mf48420077f" y="188.215247"/>
     <use style="stroke:#000000;" x="200.633127" xlink:href="#mf48420077f" y="188.401513"/>
     <use style="stroke:#000000;" x="201.590589" xlink:href="#mf48420077f" y="188.586689"/>
     <use style="stroke:#000000;" x="202.548355" xlink:href="#mf48420077f" y="188.770555"/>
     <use style="stroke:#000000;" x="203.505817" xlink:href="#mf48420077f" y="188.953221"/>
     <use style="stroke:#000000;" x="204.463583" xlink:href="#mf48420077f" y="189.134577"/>
     <use style="stroke:#000000;" x="205.421348" xlink:href="#mf48420077f" y="189.314842"/>
     <use style="stroke:#000000;" x="206.37881" xlink:href="#mf48420077f" y="189.493907"/>
     <use style="stroke:#000000;" x="207.336576" xlink:href="#mf48420077f" y="189.671771"/>
     <use style="stroke:#000000;" x="208.294038" xlink:href="#mf48420077f" y="189.848545"/>
     <use style="stroke:#000000;" x="209.251803" xlink:href="#mf48420077f" y="190.024008"/>
     <use style="stroke:#000000;" x="210.209569" xlink:href="#mf48420077f" y="190.198381"/>
     <use style="stroke:#000000;" x="211.167031" xlink:href="#mf48420077f" y="190.371553"/>
     <use style="stroke:#000000;" x="212.124797" xlink:href="#mf48420077f" y="190.543635"/>
     <use style="stroke:#000000;" x="213.082259" xlink:href="#mf48420077f" y="190.714515"/>
     <use style="stroke:#000000;" x="214.040024" xlink:href="#mf48420077f" y="190.884305"/>
     <use style="stroke:#000000;" x="214.99779" xlink:href="#mf48420077f" y="191.053003"/>
     <use style="stroke:#000000;" x="215.955252" xlink:href="#mf48420077f" y="191.220502"/>
     <use style="stroke:#000000;" x="216.913017" xlink:href="#mf48420077f" y="191.386909"/>
     <use style="stroke:#000000;" x="217.87048" xlink:href="#mf48420077f" y="191.552224"/>
     <use style="stroke:#000000;" x="218.828245" xlink:href="#mf48420077f" y="191.71634"/>
     <use style="stroke:#000000;" x="219.786011" xlink:href="#mf48420077f" y="191.879473"/>
     <use style="stroke:#000000;" x="220.743473" xlink:href="#mf48420077f" y="192.041406"/>
     <use style="stroke:#000000;" x="221.701238" xlink:href="#mf48420077f" y="192.202357"/>
     <use style="stroke:#000000;" x="222.6587" xlink:href="#mf48420077f" y="192.362108"/>
     <use style="stroke:#000000;" x="223.616466" xlink:href="#mf48420077f" y="192.520876"/>
     <use style="stroke:#000000;" x="224.573928" xlink:href="#mf48420077f" y="192.678554"/>
     <use style="stroke:#000000;" x="225.531694" xlink:href="#mf48420077f" y="192.83514"/>
     <use style="stroke:#000000;" x="226.489459" xlink:href="#mf48420077f" y="192.990744"/>
     <use style="stroke:#000000;" x="227.446921" xlink:href="#mf48420077f" y="193.145148"/>
     <use style="stroke:#000000;" x="228.404687" xlink:href="#mf48420077f" y="193.298679"/>
     <use style="stroke:#000000;" x="229.362149" xlink:href="#mf48420077f" y="193.451009"/>
     <use style="stroke:#000000;" x="230.319914" xlink:href="#mf48420077f" y="193.602358"/>
     <use style="stroke:#000000;" x="231.27768" xlink:href="#mf48420077f" y="193.752724"/>
     <use style="stroke:#000000;" x="232.235142" xlink:href="#mf48420077f" y="193.901999"/>
     <use style="stroke:#000000;" x="233.192908" xlink:href="#mf48420077f" y="194.050293"/>
     <use style="stroke:#000000;" x="234.15037" xlink:href="#mf48420077f" y="194.197604"/>
     <use style="stroke:#000000;" x="235.108135" xlink:href="#mf48420077f" y="194.343824"/>
     <use style="stroke:#000000;" x="236.065901" xlink:href="#mf48420077f" y="194.489061"/>
     <use style="stroke:#000000;" x="237.023363" xlink:href="#mf48420077f" y="194.633317"/>
     <use style="stroke:#000000;" x="237.981128" xlink:href="#mf48420077f" y="194.776482"/>
     <use style="stroke:#000000;" x="238.93859" xlink:href="#mf48420077f" y="194.918773"/>
     <use style="stroke:#000000;" x="239.896356" xlink:href="#mf48420077f" y="195.059974"/>
     <use style="stroke:#000000;" x="240.854122" xlink:href="#mf48420077f" y="195.200301"/>
     <use style="stroke:#000000;" x="241.811584" xlink:href="#mf48420077f" y="195.339537"/>
     <use style="stroke:#000000;" x="242.769349" xlink:href="#mf48420077f" y="195.4779"/>
     <use style="stroke:#000000;" x="243.726811" xlink:href="#mf48420077f" y="195.615173"/>
     <use style="stroke:#000000;" x="245.16528" xlink:href="#mf48420077f" y="195.819553"/>
     <use style="stroke:#000000;" x="246.603446" xlink:href="#mf48420077f" y="196.02186"/>
     <use style="stroke:#000000;" x="248.041612" xlink:href="#mf48420077f" y="196.221876"/>
     <use style="stroke:#000000;" x="249.479778" xlink:href="#mf48420077f" y="196.419818"/>
     <use style="stroke:#000000;" x="250.917943" xlink:href="#mf48420077f" y="196.615688"/>
     <use style="stroke:#000000;" x="252.356109" xlink:href="#mf48420077f" y="196.809265"/>
     <use style="stroke:#000000;" x="253.794578" xlink:href="#mf48420077f" y="197.000879"/>
     <use style="stroke:#000000;" x="255.232744" xlink:href="#mf48420077f" y="197.19031"/>
     <use style="stroke:#000000;" x="256.67091" xlink:href="#mf48420077f" y="197.377668"/>
     <use style="stroke:#000000;" x="258.109075" xlink:href="#mf48420077f" y="197.562952"/>
     <use style="stroke:#000000;" x="259.547241" xlink:href="#mf48420077f" y="197.746164"/>
     <use style="stroke:#000000;" x="260.98571" xlink:href="#mf48420077f" y="197.927302"/>
     <use style="stroke:#000000;" x="262.423876" xlink:href="#mf48420077f" y="198.106366"/>
     <use style="stroke:#000000;" x="263.862042" xlink:href="#mf48420077f" y="198.283467"/>
     <use style="stroke:#000000;" x="265.300207" xlink:href="#mf48420077f" y="198.458494"/>
     <use style="stroke:#000000;" x="266.738373" xlink:href="#mf48420077f" y="198.631558"/>
     <use style="stroke:#000000;" x="268.176842" xlink:href="#mf48420077f" y="198.802548"/>
     <use style="stroke:#000000;" x="269.615008" xlink:href="#mf48420077f" y="198.971573"/>
     <use style="stroke:#000000;" x="271.053174" xlink:href="#mf48420077f" y="199.138526"/>
     <use style="stroke:#000000;" x="272.491339" xlink:href="#mf48420077f" y="199.303623"/>
     <use style="stroke:#000000;" x="273.929505" xlink:href="#mf48420077f" y="199.466757"/>
     <use style="stroke:#000000;" x="275.367671" xlink:href="#mf48420077f" y="199.627926"/>
     <use style="stroke:#000000;" x="276.80614" xlink:href="#mf48420077f" y="199.787131"/>
     <use style="stroke:#000000;" x="278.244306" xlink:href="#mf48420077f" y="199.944372"/>
     <use style="stroke:#000000;" x="279.682471" xlink:href="#mf48420077f" y="200.099649"/>
     <use style="stroke:#000000;" x="281.120637" xlink:href="#mf48420077f" y="200.25318"/>
     <use style="stroke:#000000;" x="282.558803" xlink:href="#mf48420077f" y="200.404637"/>
     <use style="stroke:#000000;" x="283.997272" xlink:href="#mf48420077f" y="200.554349"/>
     <use style="stroke:#000000;" x="285.435438" xlink:href="#mf48420077f" y="200.702096"/>
     <use style="stroke:#000000;" x="286.873603" xlink:href="#mf48420077f" y="200.848098"/>
     <use style="stroke:#000000;" x="288.311769" xlink:href="#mf48420077f" y="200.992136"/>
     <use style="stroke:#000000;" x="289.749935" xlink:href="#mf48420077f" y="201.134318"/>
     <use style="stroke:#000000;" x="291.1881" xlink:href="#mf48420077f" y="201.274755"/>
     <use style="stroke:#000000;" x="292.62657" xlink:href="#mf48420077f" y="201.413336"/>
     <use style="stroke:#000000;" x="294.064735" xlink:href="#mf48420077f" y="201.550063"/>
     <use style="stroke:#000000;" x="295.502901" xlink:href="#mf48420077f" y="201.685152"/>
     <use style="stroke:#000000;" x="296.941067" xlink:href="#mf48420077f" y="201.818278"/>
     <use style="stroke:#000000;" x="298.379232" xlink:href="#mf48420077f" y="201.949767"/>
     <use style="stroke:#000000;" x="299.817702" xlink:href="#mf48420077f" y="202.079509"/>
     <use style="stroke:#000000;" x="301.255867" xlink:href="#mf48420077f" y="202.207397"/>
     <use style="stroke:#000000;" x="302.694033" xlink:href="#mf48420077f" y="202.333648"/>
     <use style="stroke:#000000;" x="304.132199" xlink:href="#mf48420077f" y="202.458263"/>
     <use style="stroke:#000000;" x="305.570364" xlink:href="#mf48420077f" y="202.581022"/>
     <use style="stroke:#000000;" x="307.008834" xlink:href="#mf48420077f" y="202.702253"/>
     <use style="stroke:#000000;" x="308.446999" xlink:href="#mf48420077f" y="202.821739"/>
     <use style="stroke:#000000;" x="309.885165" xlink:href="#mf48420077f" y="202.939588"/>
     <use style="stroke:#000000;" x="311.323331" xlink:href="#mf48420077f" y="203.0558"/>
     <use style="stroke:#000000;" x="312.761496" xlink:href="#mf48420077f" y="203.170375"/>
     <use style="stroke:#000000;" x="314.199662" xlink:href="#mf48420077f" y="203.283423"/>
     <use style="stroke:#000000;" x="315.638131" xlink:href="#mf48420077f" y="203.394724"/>
     <use style="stroke:#000000;" x="317.076297" xlink:href="#mf48420077f" y="203.504608"/>
     <use style="stroke:#000000;" x="318.514463" xlink:href="#mf48420077f" y="203.612854"/>
     <use style="stroke:#000000;" x="319.952628" xlink:href="#mf48420077f" y="203.719573"/>
     <use style="stroke:#000000;" x="321.390794" xlink:href="#mf48420077f" y="203.824764"/>
     <use style="stroke:#000000;" x="322.829263" xlink:href="#mf48420077f" y="203.928427"/>
     <use style="stroke:#000000;" x="324.267429" xlink:href="#mf48420077f" y="204.030672"/>
     <use style="stroke:#000000;" x="325.705595" xlink:href="#mf48420077f" y="204.131389"/>
     <use style="stroke:#000000;" x="327.143761" xlink:href="#mf48420077f" y="204.230688"/>
     <use style="stroke:#000000;" x="328.581926" xlink:href="#mf48420077f" y="204.328458"/>
     <use style="stroke:#000000;" x="330.020092" xlink:href="#mf48420077f" y="204.42492"/>
     <use style="stroke:#000000;" x="331.458561" xlink:href="#mf48420077f" y="204.519854"/>
     <use style="stroke:#000000;" x="332.896727" xlink:href="#mf48420077f" y="204.613478"/>
     <use style="stroke:#000000;" x="334.334893" xlink:href="#mf48420077f" y="204.705684"/>
     <use style="stroke:#000000;" x="335.773058" xlink:href="#mf48420077f" y="204.796471"/>
     <use style="stroke:#000000;" x="337.211224" xlink:href="#mf48420077f" y="204.886058"/>
     <use style="stroke:#000000;" x="338.649693" xlink:href="#mf48420077f" y="204.974226"/>
     <use style="stroke:#000000;" x="340.087859" xlink:href="#mf48420077f" y="205.061085"/>
     <use style="stroke:#000000;" x="341.526025" xlink:href="#mf48420077f" y="205.146744"/>
     <use style="stroke:#000000;" x="342.96419" xlink:href="#mf48420077f" y="205.230984"/>
     <use style="stroke:#000000;" x="344.402356" xlink:href="#mf48420077f" y="205.314024"/>
     <use style="stroke:#000000;" x="345.840825" xlink:href="#mf48420077f" y="205.395863"/>
     <use style="stroke:#000000;" x="347.278991" xlink:href="#mf48420077f" y="205.476503"/>
     <use style="stroke:#000000;" x="348.717157" xlink:href="#mf48420077f" y="205.555832"/>
     <use style="stroke:#000000;" x="350.155322" xlink:href="#mf48420077f" y="205.634071"/>
     <use style="stroke:#000000;" x="351.593488" xlink:href="#mf48420077f" y="205.711109"/>
     <use style="stroke:#000000;" x="353.031654" xlink:href="#mf48420077f" y="205.787056"/>
     <use style="stroke:#000000;" x="354.470123" xlink:href="#mf48420077f" y="205.861694"/>
     <use style="stroke:#000000;" x="355.908289" xlink:href="#mf48420077f" y="205.935349"/>
     <use style="stroke:#000000;" x="357.346454" xlink:href="#mf48420077f" y="206.007914"/>
     <use style="stroke:#000000;" x="358.78462" xlink:href="#mf48420077f" y="206.079278"/>
     <use style="stroke:#000000;" x="360.222786" xlink:href="#mf48420077f" y="206.14966"/>
     <use style="stroke:#000000;" x="361.661255" xlink:href="#mf48420077f" y="206.21895"/>
     <use style="stroke:#000000;" x="363.099421" xlink:href="#mf48420077f" y="206.287259"/>
     <use style="stroke:#000000;" x="364.537586" xlink:href="#mf48420077f" y="206.354477"/>
     <use style="stroke:#000000;" x="365.976966" xlink:href="#mf48420077f" y="206.420712"/>
    </g>
   </g>
   <g id="line2d_18">
    <path clip-path="url(#p057b155994)" d="M 65.130544 125.95811 
L 65.613069 122.971808 
L 66.007586 121.686415 
L 66.341408 121.196067 
L 66.67523 121.116404 
L 67.009052 121.348622 
L 67.403568 121.916287 
L 68.040865 123.256762 
L 69.436848 126.89483 
L 71.227347 131.343479 
L 72.653677 134.259635 
L 73.92827 136.404542 
L 75.415295 138.460135 
L 76.902321 140.146864 
L 78.57143 141.718183 
L 80.422625 143.178105 
L 82.668336 144.675043 
L 85.490649 146.282543 
L 89.253733 148.143503 
L 94.352105 150.394555 
L 101.332019 153.24181 
L 112.238589 157.436251 
L 123.064132 161.368423 
L 133.598036 164.955781 
L 143.174477 167.996475 
L 152.750919 170.824836 
L 163.285126 173.702208 
L 173.81903 176.354833 
L 185.310699 179.023255 
L 197.760134 181.685068 
L 211.167031 184.32543 
L 225.531694 186.931626 
L 240.854122 189.488405 
L 256.67091 191.904433 
L 272.491339 194.102467 
L 288.311769 196.08183 
L 304.132199 197.843036 
L 319.952628 199.390584 
L 337.211224 200.847266 
L 354.470123 202.085501 
L 364.537586 202.710536 
L 365.976966 202.704383 
L 365.976966 202.704383 
" style="fill:none;stroke:#0000ff;stroke-dasharray:5.55,2.4;stroke-dashoffset:0;stroke-width:1.5;"/>
   </g>
   <g id="line2d_19">
    <path clip-path="url(#p057b155994)" d="M 65.130544 145.838649 
L 65.613069 142.962185 
L 66.098628 141.396021 
L 66.43245 140.889534 
L 66.766272 140.734127 
L 67.069746 140.827862 
L 67.494611 141.233175 
L 68.131907 142.237802 
L 69.345805 144.715497 
L 71.348737 148.736611 
L 72.653677 150.90013 
L 73.92827 152.652316 
L 75.415295 154.320953 
L 76.902321 155.67432 
L 78.753515 157.036103 
L 80.695752 158.190748 
L 83.244938 159.41892 
L 86.31003 160.621667 
L 90.103462 161.866486 
L 95.869478 163.497201 
L 105.884136 166.051495 
L 130.725042 172.098996 
L 149.877926 176.557093 
L 166.157816 180.117589 
L 182.437706 183.436496 
L 198.717596 186.51372 
L 214.99779 189.36112 
L 231.27768 191.986757 
L 246.603446 194.255084 
L 262.423876 196.383893 
L 278.244306 198.292914 
L 294.064735 199.985093 
L 311.323331 201.597879 
L 328.581926 202.989725 
L 347.278991 204.279805 
L 365.976966 205.465499 
L 365.976966 205.465499 
" style="fill:none;stroke:#0000ff;stroke-dasharray:5.55,2.4;stroke-dashoffset:0;stroke-width:1.5;"/>
   </g>
   <g id="line2d_20"/>
   <g id="line2d_21"/>
   <g id="line2d_22"/>
   <g id="line2d_23"/>
   <g id="line2d_24"/>
   <g id="line2d_25"/>
   <g id="patch_3">
    <path d="M 46.965625 239.758125 
L 46.965625 22.318125 
" style="fill:none;stroke:#000000;stroke-linecap:square;stroke-linejoin:miter;stroke-width:0.8;"/>
   </g>
   <g id="patch_4">
    <path d="M 381.765625 239.758125 
L 381.765625 22.318125 
" style="fill:none;stroke:#000000;stroke-linecap:square;stroke-linejoin:miter;stroke-width:0.8;"/>
   </g>
   <g id="patch_5">
    <path d="M 46.965625 239.758125 
L 381.765625 239.758125 
" style="fill:none;stroke:#000000;stroke-linecap:square;stroke-linejoin:miter;stroke-width:0.8;"/>
   </g>
   <g id="patch_6">
    <path d="M 46.965625 22.318125 
L 381.765625 22.318125 
" style="fill:none;stroke:#000000;stroke-linecap:square;stroke-linejoin:miter;stroke-width:0.8;"/>
   </g>
   <g id="text_17">
    <!-- Experiment_20 -->
    <defs>
     <path d="M 9.8125 72.90625 
L 55.90625 72.90625 
L 55.90625 64.59375 
L 19.671875 64.59375 
L 19.671875 43.015625 
L 54.390625 43.015625 
L 54.390625 34.71875 
L 19.671875 34.71875 
L 19.671875 8.296875 
L 56.78125 8.296875 
L 56.78125 0 
L 9.8125 0 
z
" id="DejaVuSans-69"/>
     <path d="M 54.890625 54.6875 
L 35.109375 28.078125 
L 55.90625 0 
L 45.3125 0 
L 29.390625 21.484375 
L 13.484375 0 
L 2.875 0 
L 24.125 28.609375 
L 4.6875 54.6875 
L 15.28125 54.6875 
L 29.78125 35.203125 
L 44.28125 54.6875 
z
" id="DejaVuSans-120"/>
     <path d="M 41.109375 46.296875 
Q 39.59375 47.171875 37.8125 47.578125 
Q 36.03125 48 33.890625 48 
Q 26.265625 48 22.1875 43.046875 
Q 18.109375 38.09375 18.109375 28.8125 
L 18.109375 0 
L 9.078125 0 
L 9.078125 54.6875 
L 18.109375 54.6875 
L 18.109375 46.1875 
Q 20.953125 51.171875 25.484375 53.578125 
Q 30.03125 56 36.53125 56 
Q 37.453125 56 38.578125 55.875 
Q 39.703125 55.765625 41.0625 55.515625 
z
" id="DejaVuSans-114"/>
     <path d="M 54.890625 33.015625 
L 54.890625 0 
L 45.90625 0 
L 45.90625 32.71875 
Q 45.90625 40.484375 42.875 44.328125 
Q 39.84375 48.1875 33.796875 48.1875 
Q 26.515625 48.1875 22.3125 43.546875 
Q 18.109375 38.921875 18.109375 30.90625 
L 18.109375 0 
L 9.078125 0 
L 9.078125 54.6875 
L 18.109375 54.6875 
L 18.109375 46.1875 
Q 21.34375 51.125 25.703125 53.5625 
Q 30.078125 56 35.796875 56 
Q 45.21875 56 50.046875 50.171875 
Q 54.890625 44.34375 54.890625 33.015625 
z
" id="DejaVuSans-110"/>
     <path d="M 18.3125 70.21875 
L 18.3125 54.6875 
L 36.8125 54.6875 
L 36.8125 47.703125 
L 18.3125 47.703125 
L 18.3125 18.015625 
Q 18.3125 11.328125 20.140625 9.421875 
Q 21.96875 7.515625 27.59375 7.515625 
L 36.8125 7.515625 
L 36.8125 0 
L 27.59375 0 
Q 17.1875 0 13.234375 3.875 
Q 9.28125 7.765625 9.28125 18.015625 
L 9.28125 47.703125 
L 2.6875 47.703125 
L 2.6875 54.6875 
L 9.28125 54.6875 
L 9.28125 70.21875 
z
" id="DejaVuSans-116"/>
     <path d="M 50.984375 -16.609375 
L 50.984375 -23.578125 
L -0.984375 -23.578125 
L -0.984375 -16.609375 
z
" id="DejaVuSans-95"/>
    </defs>
    <g transform="translate(169.062813 16.318125)scale(0.12 -0.12)">
     <use xlink:href="#DejaVuSans-69"/>
     <use x="63.183594" xlink:href="#DejaVuSans-120"/>
     <use x="122.363281" xlink:href="#DejaVuSans-112"/>
     <use x="185.839844" xlink:href="#DejaVuSans-101"/>
     <use x="247.363281" xlink:href="#DejaVuSans-114"/>
     <use x="288.476562" xlink:href="#DejaVuSans-105"/>
     <use x="316.259766" xlink:href="#DejaVuSans-109"/>
     <use x="413.671875" xlink:href="#DejaVuSans-101"/>
     <use x="475.195312" xlink:href="#DejaVuSans-110"/>
     <use x="538.574219" xlink:href="#DejaVuSans-116"/>
     <use x="577.783203" xlink:href="#DejaVuSans-95"/>
     <use x="627.783203" xlink:href="#DejaVuSans-50"/>
     <use x="691.40625" xlink:href="#DejaVuSans-48"/>
    </g>
   </g>
   <g id="legend_1">
    <g id="patch_7">
     <path d="M 118.645313 103.730625 
L 374.765625 103.730625 
Q 376.765625 103.730625 376.765625 101.730625 
L 376.765625 29.318125 
Q 376.765625 27.318125 374.765625 27.318125 
L 118.645313 27.318125 
Q 116.645313 27.318125 116.645313 29.318125 
L 116.645313 101.730625 
Q 116.645313 103.730625 118.645313 103.730625 
z
" style="fill:#ffffff;opacity:0.8;stroke:#cccccc;stroke-linejoin:miter;"/>
    </g>
    <g id="line2d_26">
     <path d="M 120.645313 35.416562 
L 140.645313 35.416562 
" style="fill:none;stroke:#0000ff;stroke-linecap:square;stroke-width:1.5;"/>
    </g>
    <g id="line2d_27"/>
    <g id="text_18">
     <!-- MSI -->
     <defs>
      <path d="M 9.8125 72.90625 
L 24.515625 72.90625 
L 43.109375 23.296875 
L 61.8125 72.90625 
L 76.515625 72.90625 
L 76.515625 0 
L 66.890625 0 
L 66.890625 64.015625 
L 48.09375 14.015625 
L 38.1875 14.015625 
L 19.390625 64.015625 
L 19.390625 0 
L 9.8125 0 
z
" id="DejaVuSans-77"/>
      <path d="M 53.515625 70.515625 
L 53.515625 60.890625 
Q 47.90625 63.578125 42.921875 64.890625 
Q 37.9375 66.21875 33.296875 66.21875 
Q 25.25 66.21875 20.875 63.09375 
Q 16.5 59.96875 16.5 54.203125 
Q 16.5 49.359375 19.40625 46.890625 
Q 22.3125 44.4375 30.421875 42.921875 
L 36.375 41.703125 
Q 47.40625 39.59375 52.65625 34.296875 
Q 57.90625 29 57.90625 20.125 
Q 57.90625 9.515625 50.796875 4.046875 
Q 43.703125 -1.421875 29.984375 -1.421875 
Q 24.8125 -1.421875 18.96875 -0.25 
Q 13.140625 0.921875 6.890625 3.21875 
L 6.890625 13.375 
Q 12.890625 10.015625 18.65625 8.296875 
Q 24.421875 6.59375 29.984375 6.59375 
Q 38.421875 6.59375 43.015625 9.90625 
Q 47.609375 13.234375 47.609375 19.390625 
Q 47.609375 24.75 44.3125 27.78125 
Q 41.015625 30.8125 33.5 32.328125 
L 27.484375 33.5 
Q 16.453125 35.6875 11.515625 40.375 
Q 6.59375 45.0625 6.59375 53.421875 
Q 6.59375 63.09375 13.40625 68.65625 
Q 20.21875 74.21875 32.171875 74.21875 
Q 37.3125 74.21875 42.625 73.28125 
Q 47.953125 72.359375 53.515625 70.515625 
z
" id="DejaVuSans-83"/>
      <path d="M 9.8125 72.90625 
L 19.671875 72.90625 
L 19.671875 0 
L 9.8125 0 
z
" id="DejaVuSans-73"/>
     </defs>
     <g transform="translate(148.645313 38.916562)scale(0.1 -0.1)">
      <use xlink:href="#DejaVuSans-77"/>
      <use x="86.279297" xlink:href="#DejaVuSans-83"/>
      <use x="149.755859" xlink:href="#DejaVuSans-73"/>
     </g>
    </g>
    <g id="line2d_28">
     <path d="M 120.645313 50.09625 
L 140.645313 50.09625 
" style="fill:none;stroke:#ff0000;stroke-linecap:square;stroke-width:1.5;"/>
    </g>
    <g id="line2d_29"/>
    <g id="text_19">
     <!-- $\it{A priori}$ model -->
     <defs>
      <path d="M 36.8125 72.90625 
L 48 72.90625 
L 61.53125 0 
L 51.21875 0 
L 48.1875 18.703125 
L 15.375 18.703125 
L 5.078125 0 
L -5.328125 0 
z
M 40.375 63.1875 
L 19.921875 26.90625 
L 46.6875 26.90625 
z
" id="DejaVuSans-Oblique-65"/>
      <path d="M 49.609375 33.6875 
Q 49.609375 40.875 46.484375 44.671875 
Q 43.359375 48.484375 37.5 48.484375 
Q 33.5 48.484375 29.859375 46.4375 
Q 26.21875 44.390625 23.390625 40.484375 
Q 20.609375 36.625 18.9375 31.15625 
Q 17.28125 25.6875 17.28125 20.3125 
Q 17.28125 13.484375 20.40625 9.796875 
Q 23.53125 6.109375 29.296875 6.109375 
Q 33.546875 6.109375 37.1875 8.109375 
Q 40.828125 10.109375 43.40625 13.921875 
Q 46.1875 17.921875 47.890625 23.34375 
Q 49.609375 28.765625 49.609375 33.6875 
z
M 21.78125 46.390625 
Q 25.390625 51.125 30.296875 53.5625 
Q 35.203125 56 41.21875 56 
Q 49.609375 56 54.25 50.5 
Q 58.890625 45.015625 58.890625 35.109375 
Q 58.890625 27 56 19.65625 
Q 53.125 12.3125 47.703125 6.5 
Q 44.09375 2.640625 39.546875 0.609375 
Q 35.015625 -1.421875 29.984375 -1.421875 
Q 24.171875 -1.421875 20.21875 1 
Q 16.265625 3.421875 14.3125 8.203125 
L 8.6875 -20.796875 
L -0.296875 -20.796875 
L 14.40625 54.6875 
L 23.390625 54.6875 
z
" id="DejaVuSans-Oblique-112"/>
      <path d="M 44.578125 46.390625 
Q 43.21875 47.125 41.453125 47.515625 
Q 39.703125 47.90625 37.703125 47.90625 
Q 30.515625 47.90625 25.140625 42.453125 
Q 19.78125 37.015625 18.015625 27.875 
L 12.5 0 
L 3.515625 0 
L 14.203125 54.6875 
L 23.1875 54.6875 
L 21.484375 46.1875 
Q 25.046875 50.921875 30 53.453125 
Q 34.96875 56 40.578125 56 
Q 42.046875 56 43.453125 55.828125 
Q 44.875 55.671875 46.296875 55.28125 
z
" id="DejaVuSans-Oblique-114"/>
      <path d="M 18.3125 75.984375 
L 27.296875 75.984375 
L 25.09375 64.59375 
L 16.109375 64.59375 
z
M 14.203125 54.6875 
L 23.1875 54.6875 
L 12.5 0 
L 3.515625 0 
z
" id="DejaVuSans-Oblique-105"/>
      <path d="M 25.390625 -1.421875 
Q 15.765625 -1.421875 10.171875 4.515625 
Q 4.59375 10.453125 4.59375 20.703125 
Q 4.59375 26.65625 6.515625 32.828125 
Q 8.453125 39.015625 11.53125 43.21875 
Q 16.359375 49.75 22.3125 52.875 
Q 28.265625 56 35.796875 56 
Q 45.125 56 50.859375 50.1875 
Q 56.59375 44.390625 56.59375 35.015625 
Q 56.59375 28.515625 54.6875 22.0625 
Q 52.78125 15.625 49.703125 11.375 
Q 44.921875 4.828125 38.96875 1.703125 
Q 33.015625 -1.421875 25.390625 -1.421875 
z
M 13.921875 21 
Q 13.921875 13.578125 17.015625 9.890625 
Q 20.125 6.203125 26.421875 6.203125 
Q 35.453125 6.203125 41.375 14.078125 
Q 47.3125 21.96875 47.3125 34.078125 
Q 47.3125 41.15625 44.140625 44.765625 
Q 40.96875 48.390625 34.8125 48.390625 
Q 29.734375 48.390625 25.78125 46.015625 
Q 21.828125 43.65625 18.703125 38.8125 
Q 16.40625 35.203125 15.15625 30.5625 
Q 13.921875 25.921875 13.921875 21 
z
" id="DejaVuSans-Oblique-111"/>
      <path d="M 30.609375 48.390625 
Q 23.390625 48.390625 19.1875 42.75 
Q 14.984375 37.109375 14.984375 27.296875 
Q 14.984375 17.484375 19.15625 11.84375 
Q 23.34375 6.203125 30.609375 6.203125 
Q 37.796875 6.203125 41.984375 11.859375 
Q 46.1875 17.53125 46.1875 27.296875 
Q 46.1875 37.015625 41.984375 42.703125 
Q 37.796875 48.390625 30.609375 48.390625 
z
M 30.609375 56 
Q 42.328125 56 49.015625 48.375 
Q 55.71875 40.765625 55.71875 27.296875 
Q 55.71875 13.875 49.015625 6.21875 
Q 42.328125 -1.421875 30.609375 -1.421875 
Q 18.84375 -1.421875 12.171875 6.21875 
Q 5.515625 13.875 5.515625 27.296875 
Q 5.515625 40.765625 12.171875 48.375 
Q 18.84375 56 30.609375 56 
z
" id="DejaVuSans-111"/>
      <path d="M 45.40625 46.390625 
L 45.40625 75.984375 
L 54.390625 75.984375 
L 54.390625 0 
L 45.40625 0 
L 45.40625 8.203125 
Q 42.578125 3.328125 38.25 0.953125 
Q 33.9375 -1.421875 27.875 -1.421875 
Q 17.96875 -1.421875 11.734375 6.484375 
Q 5.515625 14.40625 5.515625 27.296875 
Q 5.515625 40.1875 11.734375 48.09375 
Q 17.96875 56 27.875 56 
Q 33.9375 56 38.25 53.625 
Q 42.578125 51.265625 45.40625 46.390625 
z
M 14.796875 27.296875 
Q 14.796875 17.390625 18.875 11.75 
Q 22.953125 6.109375 30.078125 6.109375 
Q 37.203125 6.109375 41.296875 11.75 
Q 45.40625 17.390625 45.40625 27.296875 
Q 45.40625 37.203125 41.296875 42.84375 
Q 37.203125 48.484375 30.078125 48.484375 
Q 22.953125 48.484375 18.875 42.84375 
Q 14.796875 37.203125 14.796875 27.296875 
z
" id="DejaVuSans-100"/>
      <path d="M 9.421875 75.984375 
L 18.40625 75.984375 
L 18.40625 0 
L 9.421875 0 
z
" id="DejaVuSans-108"/>
     </defs>
     <g transform="translate(148.645313 53.59625)scale(0.1 -0.1)">
      <use transform="translate(0 0.015625)" xlink:href="#DejaVuSans-Oblique-65"/>
      <use transform="translate(68.408203 0.015625)" xlink:href="#DejaVuSans-Oblique-112"/>
      <use transform="translate(131.884766 0.015625)" xlink:href="#DejaVuSans-Oblique-114"/>
      <use transform="translate(172.998047 0.015625)" xlink:href="#DejaVuSans-Oblique-105"/>
      <use transform="translate(200.78125 0.015625)" xlink:href="#DejaVuSans-Oblique-111"/>
      <use transform="translate(261.962891 0.015625)" xlink:href="#DejaVuSans-Oblique-114"/>
      <use transform="translate(303.076172 0.015625)" xlink:href="#DejaVuSans-Oblique-105"/>
      <use transform="translate(330.859375 0.015625)" xlink:href="#DejaVuSans-32"/>
      <use transform="translate(362.646484 0.015625)" xlink:href="#DejaVuSans-109"/>
      <use transform="translate(460.058594 0.015625)" xlink:href="#DejaVuSans-111"/>
      <use transform="translate(521.240234 0.015625)" xlink:href="#DejaVuSans-100"/>
      <use transform="translate(584.716797 0.015625)" xlink:href="#DejaVuSans-101"/>
      <use transform="translate(646.240234 0.015625)" xlink:href="#DejaVuSans-108"/>
     </g>
    </g>
    <g id="line2d_30"/>
    <g id="line2d_31">
     <g>
      <use style="stroke:#000000;" x="130.645313" xlink:href="#mf48420077f" y="64.794688"/>
     </g>
    </g>
    <g id="text_20">
     <!-- Experimental Data -->
     <defs>
      <path d="M 34.28125 27.484375 
Q 23.390625 27.484375 19.1875 25 
Q 14.984375 22.515625 14.984375 16.5 
Q 14.984375 11.71875 18.140625 8.90625 
Q 21.296875 6.109375 26.703125 6.109375 
Q 34.1875 6.109375 38.703125 11.40625 
Q 43.21875 16.703125 43.21875 25.484375 
L 43.21875 27.484375 
z
M 52.203125 31.203125 
L 52.203125 0 
L 43.21875 0 
L 43.21875 8.296875 
Q 40.140625 3.328125 35.546875 0.953125 
Q 30.953125 -1.421875 24.3125 -1.421875 
Q 15.921875 -1.421875 10.953125 3.296875 
Q 6 8.015625 6 15.921875 
Q 6 25.140625 12.171875 29.828125 
Q 18.359375 34.515625 30.609375 34.515625 
L 43.21875 34.515625 
L 43.21875 35.40625 
Q 43.21875 41.609375 39.140625 45 
Q 35.0625 48.390625 27.6875 48.390625 
Q 23 48.390625 18.546875 47.265625 
Q 14.109375 46.140625 10.015625 43.890625 
L 10.015625 52.203125 
Q 14.9375 54.109375 19.578125 55.046875 
Q 24.21875 56 28.609375 56 
Q 40.484375 56 46.34375 49.84375 
Q 52.203125 43.703125 52.203125 31.203125 
z
" id="DejaVuSans-97"/>
      <path d="M 19.671875 64.796875 
L 19.671875 8.109375 
L 31.59375 8.109375 
Q 46.6875 8.109375 53.6875 14.9375 
Q 60.6875 21.78125 60.6875 36.53125 
Q 60.6875 51.171875 53.6875 57.984375 
Q 46.6875 64.796875 31.59375 64.796875 
z
M 9.8125 72.90625 
L 30.078125 72.90625 
Q 51.265625 72.90625 61.171875 64.09375 
Q 71.09375 55.28125 71.09375 36.53125 
Q 71.09375 17.671875 61.125 8.828125 
Q 51.171875 0 30.078125 0 
L 9.8125 0 
z
" id="DejaVuSans-68"/>
     </defs>
     <g transform="translate(148.645313 68.294688)scale(0.1 -0.1)">
      <use xlink:href="#DejaVuSans-69"/>
      <use x="63.183594" xlink:href="#DejaVuSans-120"/>
      <use x="122.363281" xlink:href="#DejaVuSans-112"/>
      <use x="185.839844" xlink:href="#DejaVuSans-101"/>
      <use x="247.363281" xlink:href="#DejaVuSans-114"/>
      <use x="288.476562" xlink:href="#DejaVuSans-105"/>
      <use x="316.259766" xlink:href="#DejaVuSans-109"/>
      <use x="413.671875" xlink:href="#DejaVuSans-101"/>
      <use x="475.195312" xlink:href="#DejaVuSans-110"/>
      <use x="538.574219" xlink:href="#DejaVuSans-116"/>
      <use x="577.783203" xlink:href="#DejaVuSans-97"/>
      <use x="639.0625" xlink:href="#DejaVuSans-108"/>
      <use x="666.845703" xlink:href="#DejaVuSans-32"/>
      <use x="698.632812" xlink:href="#DejaVuSans-68"/>
      <use x="775.634766" xlink:href="#DejaVuSans-97"/>
      <use x="836.914062" xlink:href="#DejaVuSans-116"/>
      <use x="876.123047" xlink:href="#DejaVuSans-97"/>
     </g>
    </g>
    <g id="line2d_32">
     <path d="M 120.645313 79.472813 
L 140.645313 79.472813 
" style="fill:none;stroke:#ffffff;stroke-linecap:square;stroke-width:1.5;"/>
    </g>
    <g id="line2d_33"/>
    <g id="text_21">
     <!-- T:1245 -->
     <defs>
      <path d="M 11.71875 12.40625 
L 22.015625 12.40625 
L 22.015625 0 
L 11.71875 0 
z
M 11.71875 51.703125 
L 22.015625 51.703125 
L 22.015625 39.3125 
L 11.71875 39.3125 
z
" id="DejaVuSans-58"/>
     </defs>
     <g transform="translate(148.645313 82.972813)scale(0.1 -0.1)">
      <use xlink:href="#DejaVuSans-84"/>
      <use x="60.912109" xlink:href="#DejaVuSans-58"/>
      <use x="94.603516" xlink:href="#DejaVuSans-49"/>
      <use x="158.226562" xlink:href="#DejaVuSans-50"/>
      <use x="221.849609" xlink:href="#DejaVuSans-52"/>
      <use x="285.472656" xlink:href="#DejaVuSans-53"/>
     </g>
    </g>
    <g id="line2d_34">
     <path d="M 120.645313 94.150937 
L 140.645313 94.150937 
" style="fill:none;stroke:#ffffff;stroke-linecap:square;stroke-width:1.5;"/>
    </g>
    <g id="line2d_35"/>
    <g id="text_22">
     <!-- P:1.644 -->
     <defs>
      <path d="M 19.671875 64.796875 
L 19.671875 37.40625 
L 32.078125 37.40625 
Q 38.96875 37.40625 42.71875 40.96875 
Q 46.484375 44.53125 46.484375 51.125 
Q 46.484375 57.671875 42.71875 61.234375 
Q 38.96875 64.796875 32.078125 64.796875 
z
M 9.8125 72.90625 
L 32.078125 72.90625 
Q 44.34375 72.90625 50.609375 67.359375 
Q 56.890625 61.8125 56.890625 51.125 
Q 56.890625 40.328125 50.609375 34.8125 
Q 44.34375 29.296875 32.078125 29.296875 
L 19.671875 29.296875 
L 19.671875 0 
L 9.8125 0 
z
" id="DejaVuSans-80"/>
     </defs>
     <g transform="translate(148.645313 97.650937)scale(0.1 -0.1)">
      <use xlink:href="#DejaVuSans-80"/>
      <use x="60.302734" xlink:href="#DejaVuSans-58"/>
      <use x="93.994141" xlink:href="#DejaVuSans-49"/>
      <use x="157.617188" xlink:href="#DejaVuSans-46"/>
      <use x="189.404297" xlink:href="#DejaVuSans-54"/>
      <use x="253.027344" xlink:href="#DejaVuSans-52"/>
      <use x="316.650391" xlink:href="#DejaVuSans-52"/>
     </g>
    </g>
    <g id="line2d_36">
     <path d="M 262.385938 35.416562 
L 282.385938 35.416562 
" style="fill:none;stroke:#ffffff;stroke-linecap:square;stroke-width:1.5;"/>
    </g>
    <g id="line2d_37"/>
    <g id="text_23">
     <!-- H2O2: 0.002058 -->
     <g transform="translate(290.385938 38.916562)scale(0.1 -0.1)">
      <use xlink:href="#DejaVuSans-72"/>
      <use x="75.195312" xlink:href="#DejaVuSans-50"/>
      <use x="138.818359" xlink:href="#DejaVuSans-79"/>
      <use x="217.529297" xlink:href="#DejaVuSans-50"/>
      <use x="281.152344" xlink:href="#DejaVuSans-58"/>
      <use x="314.84375" xlink:href="#DejaVuSans-32"/>
      <use x="346.630859" xlink:href="#DejaVuSans-48"/>
      <use x="410.253906" xlink:href="#DejaVuSans-46"/>
      <use x="442.041016" xlink:href="#DejaVuSans-48"/>
      <use x="505.664062" xlink:href="#DejaVuSans-48"/>
      <use x="569.287109" xlink:href="#DejaVuSans-50"/>
      <use x="632.910156" xlink:href="#DejaVuSans-48"/>
      <use x="696.533203" xlink:href="#DejaVuSans-53"/>
      <use x="760.15625" xlink:href="#DejaVuSans-56"/>
     </g>
    </g>
    <g id="line2d_38">
     <path d="M 262.385938 50.094687 
L 282.385938 50.094687 
" style="fill:none;stroke:#ffffff;stroke-linecap:square;stroke-width:1.5;"/>
    </g>
    <g id="line2d_39"/>
    <g id="text_24">
     <!-- H2O: 0.001113 -->
     <defs>
      <path d="M 40.578125 39.3125 
Q 47.65625 37.796875 51.625 33 
Q 55.609375 28.21875 55.609375 21.1875 
Q 55.609375 10.40625 48.1875 4.484375 
Q 40.765625 -1.421875 27.09375 -1.421875 
Q 22.515625 -1.421875 17.65625 -0.515625 
Q 12.796875 0.390625 7.625 2.203125 
L 7.625 11.71875 
Q 11.71875 9.328125 16.59375 8.109375 
Q 21.484375 6.890625 26.8125 6.890625 
Q 36.078125 6.890625 40.9375 10.546875 
Q 45.796875 14.203125 45.796875 21.1875 
Q 45.796875 27.640625 41.28125 31.265625 
Q 36.765625 34.90625 28.71875 34.90625 
L 20.21875 34.90625 
L 20.21875 43.015625 
L 29.109375 43.015625 
Q 36.375 43.015625 40.234375 45.921875 
Q 44.09375 48.828125 44.09375 54.296875 
Q 44.09375 59.90625 40.109375 62.90625 
Q 36.140625 65.921875 28.71875 65.921875 
Q 24.65625 65.921875 20.015625 65.03125 
Q 15.375 64.15625 9.8125 62.3125 
L 9.8125 71.09375 
Q 15.4375 72.65625 20.34375 73.4375 
Q 25.25 74.21875 29.59375 74.21875 
Q 40.828125 74.21875 47.359375 69.109375 
Q 53.90625 64.015625 53.90625 55.328125 
Q 53.90625 49.265625 50.4375 45.09375 
Q 46.96875 40.921875 40.578125 39.3125 
z
" id="DejaVuSans-51"/>
     </defs>
     <g transform="translate(290.385938 53.594687)scale(0.1 -0.1)">
      <use xlink:href="#DejaVuSans-72"/>
      <use x="75.195312" xlink:href="#DejaVuSans-50"/>
      <use x="138.818359" xlink:href="#DejaVuSans-79"/>
      <use x="217.513672" xlink:href="#DejaVuSans-58"/>
      <use x="251.205078" xlink:href="#DejaVuSans-32"/>
      <use x="282.992188" xlink:href="#DejaVuSans-48"/>
      <use x="346.615234" xlink:href="#DejaVuSans-46"/>
      <use x="378.402344" xlink:href="#DejaVuSans-48"/>
      <use x="442.025391" xlink:href="#DejaVuSans-48"/>
      <use x="505.648438" xlink:href="#DejaVuSans-49"/>
      <use x="569.271484" xlink:href="#DejaVuSans-49"/>
      <use x="632.894531" xlink:href="#DejaVuSans-49"/>
      <use x="696.517578" xlink:href="#DejaVuSans-51"/>
     </g>
    </g>
    <g id="line2d_40">
     <path d="M 262.385938 64.772812 
L 282.385938 64.772812 
" style="fill:none;stroke:#ffffff;stroke-linecap:square;stroke-width:1.5;"/>
    </g>
    <g id="line2d_41"/>
    <g id="text_25">
     <!-- O2: 0.000556 -->
     <g transform="translate(290.385938 68.272812)scale(0.1 -0.1)">
      <use xlink:href="#DejaVuSans-79"/>
      <use x="78.710938" xlink:href="#DejaVuSans-50"/>
      <use x="142.333984" xlink:href="#DejaVuSans-58"/>
      <use x="176.025391" xlink:href="#DejaVuSans-32"/>
      <use x="207.8125" xlink:href="#DejaVuSans-48"/>
      <use x="271.435547" xlink:href="#DejaVuSans-46"/>
      <use x="303.222656" xlink:href="#DejaVuSans-48"/>
      <use x="366.845703" xlink:href="#DejaVuSans-48"/>
      <use x="430.46875" xlink:href="#DejaVuSans-48"/>
      <use x="494.091797" xlink:href="#DejaVuSans-53"/>
      <use x="557.714844" xlink:href="#DejaVuSans-53"/>
      <use x="621.337891" xlink:href="#DejaVuSans-54"/>
     </g>
    </g>
    <g id="line2d_42">
     <path d="M 262.385938 79.450938 
L 282.385938 79.450938 
" style="fill:none;stroke:#ffffff;stroke-linecap:square;stroke-width:1.5;"/>
    </g>
    <g id="line2d_43"/>
    <g id="text_26">
     <!-- Ar: 0.996248 -->
     <defs>
      <path d="M 34.1875 63.1875 
L 20.796875 26.90625 
L 47.609375 26.90625 
z
M 28.609375 72.90625 
L 39.796875 72.90625 
L 67.578125 0 
L 57.328125 0 
L 50.6875 18.703125 
L 17.828125 18.703125 
L 11.1875 0 
L 0.78125 0 
z
" id="DejaVuSans-65"/>
      <path d="M 10.984375 1.515625 
L 10.984375 10.5 
Q 14.703125 8.734375 18.5 7.8125 
Q 22.3125 6.890625 25.984375 6.890625 
Q 35.75 6.890625 40.890625 13.453125 
Q 46.046875 20.015625 46.78125 33.40625 
Q 43.953125 29.203125 39.59375 26.953125 
Q 35.25 24.703125 29.984375 24.703125 
Q 19.046875 24.703125 12.671875 31.3125 
Q 6.296875 37.9375 6.296875 49.421875 
Q 6.296875 60.640625 12.9375 67.421875 
Q 19.578125 74.21875 30.609375 74.21875 
Q 43.265625 74.21875 49.921875 64.515625 
Q 56.59375 54.828125 56.59375 36.375 
Q 56.59375 19.140625 48.40625 8.859375 
Q 40.234375 -1.421875 26.421875 -1.421875 
Q 22.703125 -1.421875 18.890625 -0.6875 
Q 15.09375 0.046875 10.984375 1.515625 
z
M 30.609375 32.421875 
Q 37.25 32.421875 41.125 36.953125 
Q 45.015625 41.5 45.015625 49.421875 
Q 45.015625 57.28125 41.125 61.84375 
Q 37.25 66.40625 30.609375 66.40625 
Q 23.96875 66.40625 20.09375 61.84375 
Q 16.21875 57.28125 16.21875 49.421875 
Q 16.21875 41.5 20.09375 36.953125 
Q 23.96875 32.421875 30.609375 32.421875 
z
" id="DejaVuSans-57"/>
     </defs>
     <g transform="translate(290.385938 82.950938)scale(0.1 -0.1)">
      <use xlink:href="#DejaVuSans-65"/>
      <use x="68.408203" xlink:href="#DejaVuSans-114"/>
      <use x="109.505859" xlink:href="#DejaVuSans-58"/>
      <use x="143.197266" xlink:href="#DejaVuSans-32"/>
      <use x="174.984375" xlink:href="#DejaVuSans-48"/>
      <use x="238.607422" xlink:href="#DejaVuSans-46"/>
      <use x="270.394531" xlink:href="#DejaVuSans-57"/>
      <use x="334.017578" xlink:href="#DejaVuSans-57"/>
      <use x="397.640625" xlink:href="#DejaVuSans-54"/>
      <use x="461.263672" xlink:href="#DejaVuSans-50"/>
      <use x="524.886719" xlink:href="#DejaVuSans-52"/>
      <use x="588.509766" xlink:href="#DejaVuSans-56"/>
     </g>
    </g>
   </g>
  </g>
 </g>
 <defs>
  <clipPath id="p057b155994">
   <rect height="217.44" width="334.8" x="46.965625" y="22.318125"/>
  </clipPath>
 </defs>
</svg>
