<?xml version="1.0" encoding="utf-8" standalone="no"?>
<!DOCTYPE svg PUBLIC "-//W3C//DTD SVG 1.1//EN"
  "http://www.w3.org/Graphics/SVG/1.1/DTD/svg11.dtd">
<!-- Created with matplotlib (https://matplotlib.org/) -->
<svg height="277.314375pt" version="1.1" viewBox="0 0 395.64375 277.314375" width="395.64375pt" xmlns="http://www.w3.org/2000/svg" xmlns:xlink="http://www.w3.org/1999/xlink">
 <defs>
  <style type="text/css">
*{stroke-linecap:butt;stroke-linejoin:round;}
  </style>
 </defs>
 <g id="figure_1">
  <g id="patch_1">
   <path d="M 0 277.314375 
L 395.64375 277.314375 
L 395.64375 0 
L 0 0 
z
" style="fill:none;"/>
  </g>
  <g id="axes_1">
   <g id="patch_2">
    <path d="M 50.14375 239.758125 
L 384.94375 239.758125 
L 384.94375 22.318125 
L 50.14375 22.318125 
z
" style="fill:none;"/>
   </g>
   <g id="matplotlib.axis_1">
    <g id="xtick_1">
     <g id="line2d_1">
      <defs>
       <path d="M 0 0 
L 0 3.5 
" id="m77619fa38d" style="stroke:#000000;stroke-width:0.8;"/>
      </defs>
      <g>
       <use style="stroke:#000000;stroke-width:0.8;" x="65.361932" xlink:href="#m77619fa38d" y="239.758125"/>
      </g>
     </g>
     <g id="text_1">
      <!-- 0.0 -->
      <defs>
       <path d="M 31.78125 66.40625 
Q 24.171875 66.40625 20.328125 58.90625 
Q 16.5 51.421875 16.5 36.375 
Q 16.5 21.390625 20.328125 13.890625 
Q 24.171875 6.390625 31.78125 6.390625 
Q 39.453125 6.390625 43.28125 13.890625 
Q 47.125 21.390625 47.125 36.375 
Q 47.125 51.421875 43.28125 58.90625 
Q 39.453125 66.40625 31.78125 66.40625 
z
M 31.78125 74.21875 
Q 44.046875 74.21875 50.515625 64.515625 
Q 56.984375 54.828125 56.984375 36.375 
Q 56.984375 17.96875 50.515625 8.265625 
Q 44.046875 -1.421875 31.78125 -1.421875 
Q 19.53125 -1.421875 13.0625 8.265625 
Q 6.59375 17.96875 6.59375 36.375 
Q 6.59375 54.828125 13.0625 64.515625 
Q 19.53125 74.21875 31.78125 74.21875 
z
" id="DejaVuSans-48"/>
       <path d="M 10.6875 12.40625 
L 21 12.40625 
L 21 0 
L 10.6875 0 
z
" id="DejaVuSans-46"/>
      </defs>
      <g transform="translate(57.410369 254.356562)scale(0.1 -0.1)">
       <use xlink:href="#DejaVuSans-48"/>
       <use x="63.623047" xlink:href="#DejaVuSans-46"/>
       <use x="95.410156" xlink:href="#DejaVuSans-48"/>
      </g>
     </g>
    </g>
    <g id="xtick_2">
     <g id="line2d_2">
      <g>
       <use style="stroke:#000000;stroke-width:0.8;" x="125.985496" xlink:href="#m77619fa38d" y="239.758125"/>
      </g>
     </g>
     <g id="text_2">
      <!-- 0.2 -->
      <defs>
       <path d="M 19.1875 8.296875 
L 53.609375 8.296875 
L 53.609375 0 
L 7.328125 0 
L 7.328125 8.296875 
Q 12.9375 14.109375 22.625 23.890625 
Q 32.328125 33.6875 34.8125 36.53125 
Q 39.546875 41.84375 41.421875 45.53125 
Q 43.3125 49.21875 43.3125 52.78125 
Q 43.3125 58.59375 39.234375 62.25 
Q 35.15625 65.921875 28.609375 65.921875 
Q 23.96875 65.921875 18.8125 64.3125 
Q 13.671875 62.703125 7.8125 59.421875 
L 7.8125 69.390625 
Q 13.765625 71.78125 18.9375 73 
Q 24.125 74.21875 28.421875 74.21875 
Q 39.75 74.21875 46.484375 68.546875 
Q 53.21875 62.890625 53.21875 53.421875 
Q 53.21875 48.921875 51.53125 44.890625 
Q 49.859375 40.875 45.40625 35.40625 
Q 44.1875 33.984375 37.640625 27.21875 
Q 31.109375 20.453125 19.1875 8.296875 
z
" id="DejaVuSans-50"/>
      </defs>
      <g transform="translate(118.033934 254.356562)scale(0.1 -0.1)">
       <use xlink:href="#DejaVuSans-48"/>
       <use x="63.623047" xlink:href="#DejaVuSans-46"/>
       <use x="95.410156" xlink:href="#DejaVuSans-50"/>
      </g>
     </g>
    </g>
    <g id="xtick_3">
     <g id="line2d_3">
      <g>
       <use style="stroke:#000000;stroke-width:0.8;" x="186.609061" xlink:href="#m77619fa38d" y="239.758125"/>
      </g>
     </g>
     <g id="text_3">
      <!-- 0.4 -->
      <defs>
       <path d="M 37.796875 64.3125 
L 12.890625 25.390625 
L 37.796875 25.390625 
z
M 35.203125 72.90625 
L 47.609375 72.90625 
L 47.609375 25.390625 
L 58.015625 25.390625 
L 58.015625 17.1875 
L 47.609375 17.1875 
L 47.609375 0 
L 37.796875 0 
L 37.796875 17.1875 
L 4.890625 17.1875 
L 4.890625 26.703125 
z
" id="DejaVuSans-52"/>
      </defs>
      <g transform="translate(178.657498 254.356562)scale(0.1 -0.1)">
       <use xlink:href="#DejaVuSans-48"/>
       <use x="63.623047" xlink:href="#DejaVuSans-46"/>
       <use x="95.410156" xlink:href="#DejaVuSans-52"/>
      </g>
     </g>
    </g>
    <g id="xtick_4">
     <g id="line2d_4">
      <g>
       <use style="stroke:#000000;stroke-width:0.8;" x="247.232625" xlink:href="#m77619fa38d" y="239.758125"/>
      </g>
     </g>
     <g id="text_4">
      <!-- 0.6 -->
      <defs>
       <path d="M 33.015625 40.375 
Q 26.375 40.375 22.484375 35.828125 
Q 18.609375 31.296875 18.609375 23.390625 
Q 18.609375 15.53125 22.484375 10.953125 
Q 26.375 6.390625 33.015625 6.390625 
Q 39.65625 6.390625 43.53125 10.953125 
Q 47.40625 15.53125 47.40625 23.390625 
Q 47.40625 31.296875 43.53125 35.828125 
Q 39.65625 40.375 33.015625 40.375 
z
M 52.59375 71.296875 
L 52.59375 62.3125 
Q 48.875 64.0625 45.09375 64.984375 
Q 41.3125 65.921875 37.59375 65.921875 
Q 27.828125 65.921875 22.671875 59.328125 
Q 17.53125 52.734375 16.796875 39.40625 
Q 19.671875 43.65625 24.015625 45.921875 
Q 28.375 48.1875 33.59375 48.1875 
Q 44.578125 48.1875 50.953125 41.515625 
Q 57.328125 34.859375 57.328125 23.390625 
Q 57.328125 12.15625 50.6875 5.359375 
Q 44.046875 -1.421875 33.015625 -1.421875 
Q 20.359375 -1.421875 13.671875 8.265625 
Q 6.984375 17.96875 6.984375 36.375 
Q 6.984375 53.65625 15.1875 63.9375 
Q 23.390625 74.21875 37.203125 74.21875 
Q 40.921875 74.21875 44.703125 73.484375 
Q 48.484375 72.75 52.59375 71.296875 
z
" id="DejaVuSans-54"/>
      </defs>
      <g transform="translate(239.281063 254.356562)scale(0.1 -0.1)">
       <use xlink:href="#DejaVuSans-48"/>
       <use x="63.623047" xlink:href="#DejaVuSans-46"/>
       <use x="95.410156" xlink:href="#DejaVuSans-54"/>
      </g>
     </g>
    </g>
    <g id="xtick_5">
     <g id="line2d_5">
      <g>
       <use style="stroke:#000000;stroke-width:0.8;" x="307.85619" xlink:href="#m77619fa38d" y="239.758125"/>
      </g>
     </g>
     <g id="text_5">
      <!-- 0.8 -->
      <defs>
       <path d="M 31.78125 34.625 
Q 24.75 34.625 20.71875 30.859375 
Q 16.703125 27.09375 16.703125 20.515625 
Q 16.703125 13.921875 20.71875 10.15625 
Q 24.75 6.390625 31.78125 6.390625 
Q 38.8125 6.390625 42.859375 10.171875 
Q 46.921875 13.96875 46.921875 20.515625 
Q 46.921875 27.09375 42.890625 30.859375 
Q 38.875 34.625 31.78125 34.625 
z
M 21.921875 38.8125 
Q 15.578125 40.375 12.03125 44.71875 
Q 8.5 49.078125 8.5 55.328125 
Q 8.5 64.0625 14.71875 69.140625 
Q 20.953125 74.21875 31.78125 74.21875 
Q 42.671875 74.21875 48.875 69.140625 
Q 55.078125 64.0625 55.078125 55.328125 
Q 55.078125 49.078125 51.53125 44.71875 
Q 48 40.375 41.703125 38.8125 
Q 48.828125 37.15625 52.796875 32.3125 
Q 56.78125 27.484375 56.78125 20.515625 
Q 56.78125 9.90625 50.3125 4.234375 
Q 43.84375 -1.421875 31.78125 -1.421875 
Q 19.734375 -1.421875 13.25 4.234375 
Q 6.78125 9.90625 6.78125 20.515625 
Q 6.78125 27.484375 10.78125 32.3125 
Q 14.796875 37.15625 21.921875 38.8125 
z
M 18.3125 54.390625 
Q 18.3125 48.734375 21.84375 45.5625 
Q 25.390625 42.390625 31.78125 42.390625 
Q 38.140625 42.390625 41.71875 45.5625 
Q 45.3125 48.734375 45.3125 54.390625 
Q 45.3125 60.0625 41.71875 63.234375 
Q 38.140625 66.40625 31.78125 66.40625 
Q 25.390625 66.40625 21.84375 63.234375 
Q 18.3125 60.0625 18.3125 54.390625 
z
" id="DejaVuSans-56"/>
      </defs>
      <g transform="translate(299.904627 254.356562)scale(0.1 -0.1)">
       <use xlink:href="#DejaVuSans-48"/>
       <use x="63.623047" xlink:href="#DejaVuSans-46"/>
       <use x="95.410156" xlink:href="#DejaVuSans-56"/>
      </g>
     </g>
    </g>
    <g id="xtick_6">
     <g id="line2d_6">
      <g>
       <use style="stroke:#000000;stroke-width:0.8;" x="368.479754" xlink:href="#m77619fa38d" y="239.758125"/>
      </g>
     </g>
     <g id="text_6">
      <!-- 1.0 -->
      <defs>
       <path d="M 12.40625 8.296875 
L 28.515625 8.296875 
L 28.515625 63.921875 
L 10.984375 60.40625 
L 10.984375 69.390625 
L 28.421875 72.90625 
L 38.28125 72.90625 
L 38.28125 8.296875 
L 54.390625 8.296875 
L 54.390625 0 
L 12.40625 0 
z
" id="DejaVuSans-49"/>
      </defs>
      <g transform="translate(360.528191 254.356562)scale(0.1 -0.1)">
       <use xlink:href="#DejaVuSans-49"/>
       <use x="63.623047" xlink:href="#DejaVuSans-46"/>
       <use x="95.410156" xlink:href="#DejaVuSans-48"/>
      </g>
     </g>
    </g>
    <g id="text_7">
     <!-- Time (ms) -->
     <defs>
      <path d="M -0.296875 72.90625 
L 61.375 72.90625 
L 61.375 64.59375 
L 35.5 64.59375 
L 35.5 0 
L 25.59375 0 
L 25.59375 64.59375 
L -0.296875 64.59375 
z
" id="DejaVuSans-84"/>
      <path d="M 9.421875 54.6875 
L 18.40625 54.6875 
L 18.40625 0 
L 9.421875 0 
z
M 9.421875 75.984375 
L 18.40625 75.984375 
L 18.40625 64.59375 
L 9.421875 64.59375 
z
" id="DejaVuSans-105"/>
      <path d="M 52 44.1875 
Q 55.375 50.25 60.0625 53.125 
Q 64.75 56 71.09375 56 
Q 79.640625 56 84.28125 50.015625 
Q 88.921875 44.046875 88.921875 33.015625 
L 88.921875 0 
L 79.890625 0 
L 79.890625 32.71875 
Q 79.890625 40.578125 77.09375 44.375 
Q 74.3125 48.1875 68.609375 48.1875 
Q 61.625 48.1875 57.5625 43.546875 
Q 53.515625 38.921875 53.515625 30.90625 
L 53.515625 0 
L 44.484375 0 
L 44.484375 32.71875 
Q 44.484375 40.625 41.703125 44.40625 
Q 38.921875 48.1875 33.109375 48.1875 
Q 26.21875 48.1875 22.15625 43.53125 
Q 18.109375 38.875 18.109375 30.90625 
L 18.109375 0 
L 9.078125 0 
L 9.078125 54.6875 
L 18.109375 54.6875 
L 18.109375 46.1875 
Q 21.1875 51.21875 25.484375 53.609375 
Q 29.78125 56 35.6875 56 
Q 41.65625 56 45.828125 52.96875 
Q 50 49.953125 52 44.1875 
z
" id="DejaVuSans-109"/>
      <path d="M 56.203125 29.59375 
L 56.203125 25.203125 
L 14.890625 25.203125 
Q 15.484375 15.921875 20.484375 11.0625 
Q 25.484375 6.203125 34.421875 6.203125 
Q 39.59375 6.203125 44.453125 7.46875 
Q 49.3125 8.734375 54.109375 11.28125 
L 54.109375 2.78125 
Q 49.265625 0.734375 44.1875 -0.34375 
Q 39.109375 -1.421875 33.890625 -1.421875 
Q 20.796875 -1.421875 13.15625 6.1875 
Q 5.515625 13.8125 5.515625 26.8125 
Q 5.515625 40.234375 12.765625 48.109375 
Q 20.015625 56 32.328125 56 
Q 43.359375 56 49.78125 48.890625 
Q 56.203125 41.796875 56.203125 29.59375 
z
M 47.21875 32.234375 
Q 47.125 39.59375 43.09375 43.984375 
Q 39.0625 48.390625 32.421875 48.390625 
Q 24.90625 48.390625 20.390625 44.140625 
Q 15.875 39.890625 15.1875 32.171875 
z
" id="DejaVuSans-101"/>
      <path id="DejaVuSans-32"/>
      <path d="M 31 75.875 
Q 24.46875 64.65625 21.28125 53.65625 
Q 18.109375 42.671875 18.109375 31.390625 
Q 18.109375 20.125 21.3125 9.0625 
Q 24.515625 -2 31 -13.1875 
L 23.1875 -13.1875 
Q 15.875 -1.703125 12.234375 9.375 
Q 8.59375 20.453125 8.59375 31.390625 
Q 8.59375 42.28125 12.203125 53.3125 
Q 15.828125 64.359375 23.1875 75.875 
z
" id="DejaVuSans-40"/>
      <path d="M 44.28125 53.078125 
L 44.28125 44.578125 
Q 40.484375 46.53125 36.375 47.5 
Q 32.28125 48.484375 27.875 48.484375 
Q 21.1875 48.484375 17.84375 46.4375 
Q 14.5 44.390625 14.5 40.28125 
Q 14.5 37.15625 16.890625 35.375 
Q 19.28125 33.59375 26.515625 31.984375 
L 29.59375 31.296875 
Q 39.15625 29.25 43.1875 25.515625 
Q 47.21875 21.78125 47.21875 15.09375 
Q 47.21875 7.46875 41.1875 3.015625 
Q 35.15625 -1.421875 24.609375 -1.421875 
Q 20.21875 -1.421875 15.453125 -0.5625 
Q 10.6875 0.296875 5.421875 2 
L 5.421875 11.28125 
Q 10.40625 8.6875 15.234375 7.390625 
Q 20.0625 6.109375 24.8125 6.109375 
Q 31.15625 6.109375 34.5625 8.28125 
Q 37.984375 10.453125 37.984375 14.40625 
Q 37.984375 18.0625 35.515625 20.015625 
Q 33.0625 21.96875 24.703125 23.78125 
L 21.578125 24.515625 
Q 13.234375 26.265625 9.515625 29.90625 
Q 5.8125 33.546875 5.8125 39.890625 
Q 5.8125 47.609375 11.28125 51.796875 
Q 16.75 56 26.8125 56 
Q 31.78125 56 36.171875 55.265625 
Q 40.578125 54.546875 44.28125 53.078125 
z
" id="DejaVuSans-115"/>
      <path d="M 8.015625 75.875 
L 15.828125 75.875 
Q 23.140625 64.359375 26.78125 53.3125 
Q 30.421875 42.28125 30.421875 31.390625 
Q 30.421875 20.453125 26.78125 9.375 
Q 23.140625 -1.703125 15.828125 -13.1875 
L 8.015625 -13.1875 
Q 14.5 -2 17.703125 9.0625 
Q 20.90625 20.125 20.90625 31.390625 
Q 20.90625 42.671875 17.703125 53.65625 
Q 14.5 64.65625 8.015625 75.875 
z
" id="DejaVuSans-41"/>
     </defs>
     <g transform="translate(192.190625 268.034687)scale(0.1 -0.1)">
      <use xlink:href="#DejaVuSans-84"/>
      <use x="61.037109" xlink:href="#DejaVuSans-105"/>
      <use x="88.820312" xlink:href="#DejaVuSans-109"/>
      <use x="186.232422" xlink:href="#DejaVuSans-101"/>
      <use x="247.755859" xlink:href="#DejaVuSans-32"/>
      <use x="279.542969" xlink:href="#DejaVuSans-40"/>
      <use x="318.556641" xlink:href="#DejaVuSans-109"/>
      <use x="415.96875" xlink:href="#DejaVuSans-115"/>
      <use x="468.068359" xlink:href="#DejaVuSans-41"/>
     </g>
    </g>
   </g>
   <g id="matplotlib.axis_2">
    <g id="ytick_1">
     <g id="line2d_7">
      <defs>
       <path d="M 0 0 
L -3.5 0 
" id="m0539a6556e" style="stroke:#000000;stroke-width:0.8;"/>
      </defs>
      <g>
       <use style="stroke:#000000;stroke-width:0.8;" x="50.14375" xlink:href="#m0539a6556e" y="230.057709"/>
      </g>
     </g>
     <g id="text_8">
      <!-- 0.00 -->
      <g transform="translate(20.878125 233.856928)scale(0.1 -0.1)">
       <use xlink:href="#DejaVuSans-48"/>
       <use x="63.623047" xlink:href="#DejaVuSans-46"/>
       <use x="95.410156" xlink:href="#DejaVuSans-48"/>
       <use x="159.033203" xlink:href="#DejaVuSans-48"/>
      </g>
     </g>
    </g>
    <g id="ytick_2">
     <g id="line2d_8">
      <g>
       <use style="stroke:#000000;stroke-width:0.8;" x="50.14375" xlink:href="#m0539a6556e" y="187.787228"/>
      </g>
     </g>
     <g id="text_9">
      <!-- 0.05 -->
      <defs>
       <path d="M 10.796875 72.90625 
L 49.515625 72.90625 
L 49.515625 64.59375 
L 19.828125 64.59375 
L 19.828125 46.734375 
Q 21.96875 47.46875 24.109375 47.828125 
Q 26.265625 48.1875 28.421875 48.1875 
Q 40.625 48.1875 47.75 41.5 
Q 54.890625 34.8125 54.890625 23.390625 
Q 54.890625 11.625 47.5625 5.09375 
Q 40.234375 -1.421875 26.90625 -1.421875 
Q 22.3125 -1.421875 17.546875 -0.640625 
Q 12.796875 0.140625 7.71875 1.703125 
L 7.71875 11.625 
Q 12.109375 9.234375 16.796875 8.0625 
Q 21.484375 6.890625 26.703125 6.890625 
Q 35.15625 6.890625 40.078125 11.328125 
Q 45.015625 15.765625 45.015625 23.390625 
Q 45.015625 31 40.078125 35.4375 
Q 35.15625 39.890625 26.703125 39.890625 
Q 22.75 39.890625 18.8125 39.015625 
Q 14.890625 38.140625 10.796875 36.28125 
z
" id="DejaVuSans-53"/>
      </defs>
      <g transform="translate(20.878125 191.586447)scale(0.1 -0.1)">
       <use xlink:href="#DejaVuSans-48"/>
       <use x="63.623047" xlink:href="#DejaVuSans-46"/>
       <use x="95.410156" xlink:href="#DejaVuSans-48"/>
       <use x="159.033203" xlink:href="#DejaVuSans-53"/>
      </g>
     </g>
    </g>
    <g id="ytick_3">
     <g id="line2d_9">
      <g>
       <use style="stroke:#000000;stroke-width:0.8;" x="50.14375" xlink:href="#m0539a6556e" y="145.516746"/>
      </g>
     </g>
     <g id="text_10">
      <!-- 0.10 -->
      <g transform="translate(20.878125 149.315965)scale(0.1 -0.1)">
       <use xlink:href="#DejaVuSans-48"/>
       <use x="63.623047" xlink:href="#DejaVuSans-46"/>
       <use x="95.410156" xlink:href="#DejaVuSans-49"/>
       <use x="159.033203" xlink:href="#DejaVuSans-48"/>
      </g>
     </g>
    </g>
    <g id="ytick_4">
     <g id="line2d_10">
      <g>
       <use style="stroke:#000000;stroke-width:0.8;" x="50.14375" xlink:href="#m0539a6556e" y="103.246265"/>
      </g>
     </g>
     <g id="text_11">
      <!-- 0.15 -->
      <g transform="translate(20.878125 107.045484)scale(0.1 -0.1)">
       <use xlink:href="#DejaVuSans-48"/>
       <use x="63.623047" xlink:href="#DejaVuSans-46"/>
       <use x="95.410156" xlink:href="#DejaVuSans-49"/>
       <use x="159.033203" xlink:href="#DejaVuSans-53"/>
      </g>
     </g>
    </g>
    <g id="ytick_5">
     <g id="line2d_11">
      <g>
       <use style="stroke:#000000;stroke-width:0.8;" x="50.14375" xlink:href="#m0539a6556e" y="60.975784"/>
      </g>
     </g>
     <g id="text_12">
      <!-- 0.20 -->
      <g transform="translate(20.878125 64.775003)scale(0.1 -0.1)">
       <use xlink:href="#DejaVuSans-48"/>
       <use x="63.623047" xlink:href="#DejaVuSans-46"/>
       <use x="95.410156" xlink:href="#DejaVuSans-50"/>
       <use x="159.033203" xlink:href="#DejaVuSans-48"/>
      </g>
     </g>
    </g>
    <g id="text_13">
     <!-- Absorbance227 -->
     <defs>
      <path d="M 34.1875 63.1875 
L 20.796875 26.90625 
L 47.609375 26.90625 
z
M 28.609375 72.90625 
L 39.796875 72.90625 
L 67.578125 0 
L 57.328125 0 
L 50.6875 18.703125 
L 17.828125 18.703125 
L 11.1875 0 
L 0.78125 0 
z
" id="DejaVuSans-65"/>
      <path d="M 48.6875 27.296875 
Q 48.6875 37.203125 44.609375 42.84375 
Q 40.53125 48.484375 33.40625 48.484375 
Q 26.265625 48.484375 22.1875 42.84375 
Q 18.109375 37.203125 18.109375 27.296875 
Q 18.109375 17.390625 22.1875 11.75 
Q 26.265625 6.109375 33.40625 6.109375 
Q 40.53125 6.109375 44.609375 11.75 
Q 48.6875 17.390625 48.6875 27.296875 
z
M 18.109375 46.390625 
Q 20.953125 51.265625 25.265625 53.625 
Q 29.59375 56 35.59375 56 
Q 45.5625 56 51.78125 48.09375 
Q 58.015625 40.1875 58.015625 27.296875 
Q 58.015625 14.40625 51.78125 6.484375 
Q 45.5625 -1.421875 35.59375 -1.421875 
Q 29.59375 -1.421875 25.265625 0.953125 
Q 20.953125 3.328125 18.109375 8.203125 
L 18.109375 0 
L 9.078125 0 
L 9.078125 75.984375 
L 18.109375 75.984375 
z
" id="DejaVuSans-98"/>
      <path d="M 30.609375 48.390625 
Q 23.390625 48.390625 19.1875 42.75 
Q 14.984375 37.109375 14.984375 27.296875 
Q 14.984375 17.484375 19.15625 11.84375 
Q 23.34375 6.203125 30.609375 6.203125 
Q 37.796875 6.203125 41.984375 11.859375 
Q 46.1875 17.53125 46.1875 27.296875 
Q 46.1875 37.015625 41.984375 42.703125 
Q 37.796875 48.390625 30.609375 48.390625 
z
M 30.609375 56 
Q 42.328125 56 49.015625 48.375 
Q 55.71875 40.765625 55.71875 27.296875 
Q 55.71875 13.875 49.015625 6.21875 
Q 42.328125 -1.421875 30.609375 -1.421875 
Q 18.84375 -1.421875 12.171875 6.21875 
Q 5.515625 13.875 5.515625 27.296875 
Q 5.515625 40.765625 12.171875 48.375 
Q 18.84375 56 30.609375 56 
z
" id="DejaVuSans-111"/>
      <path d="M 41.109375 46.296875 
Q 39.59375 47.171875 37.8125 47.578125 
Q 36.03125 48 33.890625 48 
Q 26.265625 48 22.1875 43.046875 
Q 18.109375 38.09375 18.109375 28.8125 
L 18.109375 0 
L 9.078125 0 
L 9.078125 54.6875 
L 18.109375 54.6875 
L 18.109375 46.1875 
Q 20.953125 51.171875 25.484375 53.578125 
Q 30.03125 56 36.53125 56 
Q 37.453125 56 38.578125 55.875 
Q 39.703125 55.765625 41.0625 55.515625 
z
" id="DejaVuSans-114"/>
      <path d="M 34.28125 27.484375 
Q 23.390625 27.484375 19.1875 25 
Q 14.984375 22.515625 14.984375 16.5 
Q 14.984375 11.71875 18.140625 8.90625 
Q 21.296875 6.109375 26.703125 6.109375 
Q 34.1875 6.109375 38.703125 11.40625 
Q 43.21875 16.703125 43.21875 25.484375 
L 43.21875 27.484375 
z
M 52.203125 31.203125 
L 52.203125 0 
L 43.21875 0 
L 43.21875 8.296875 
Q 40.140625 3.328125 35.546875 0.953125 
Q 30.953125 -1.421875 24.3125 -1.421875 
Q 15.921875 -1.421875 10.953125 3.296875 
Q 6 8.015625 6 15.921875 
Q 6 25.140625 12.171875 29.828125 
Q 18.359375 34.515625 30.609375 34.515625 
L 43.21875 34.515625 
L 43.21875 35.40625 
Q 43.21875 41.609375 39.140625 45 
Q 35.0625 48.390625 27.6875 48.390625 
Q 23 48.390625 18.546875 47.265625 
Q 14.109375 46.140625 10.015625 43.890625 
L 10.015625 52.203125 
Q 14.9375 54.109375 19.578125 55.046875 
Q 24.21875 56 28.609375 56 
Q 40.484375 56 46.34375 49.84375 
Q 52.203125 43.703125 52.203125 31.203125 
z
" id="DejaVuSans-97"/>
      <path d="M 54.890625 33.015625 
L 54.890625 0 
L 45.90625 0 
L 45.90625 32.71875 
Q 45.90625 40.484375 42.875 44.328125 
Q 39.84375 48.1875 33.796875 48.1875 
Q 26.515625 48.1875 22.3125 43.546875 
Q 18.109375 38.921875 18.109375 30.90625 
L 18.109375 0 
L 9.078125 0 
L 9.078125 54.6875 
L 18.109375 54.6875 
L 18.109375 46.1875 
Q 21.34375 51.125 25.703125 53.5625 
Q 30.078125 56 35.796875 56 
Q 45.21875 56 50.046875 50.171875 
Q 54.890625 44.34375 54.890625 33.015625 
z
" id="DejaVuSans-110"/>
      <path d="M 48.78125 52.59375 
L 48.78125 44.1875 
Q 44.96875 46.296875 41.140625 47.34375 
Q 37.3125 48.390625 33.40625 48.390625 
Q 24.65625 48.390625 19.8125 42.84375 
Q 14.984375 37.3125 14.984375 27.296875 
Q 14.984375 17.28125 19.8125 11.734375 
Q 24.65625 6.203125 33.40625 6.203125 
Q 37.3125 6.203125 41.140625 7.25 
Q 44.96875 8.296875 48.78125 10.40625 
L 48.78125 2.09375 
Q 45.015625 0.34375 40.984375 -0.53125 
Q 36.96875 -1.421875 32.421875 -1.421875 
Q 20.0625 -1.421875 12.78125 6.34375 
Q 5.515625 14.109375 5.515625 27.296875 
Q 5.515625 40.671875 12.859375 48.328125 
Q 20.21875 56 33.015625 56 
Q 37.15625 56 41.109375 55.140625 
Q 45.0625 54.296875 48.78125 52.59375 
z
" id="DejaVuSans-99"/>
      <path d="M 8.203125 72.90625 
L 55.078125 72.90625 
L 55.078125 68.703125 
L 28.609375 0 
L 18.3125 0 
L 43.21875 64.59375 
L 8.203125 64.59375 
z
" id="DejaVuSans-55"/>
     </defs>
     <g transform="translate(14.798438 170.12875)rotate(-90)scale(0.1 -0.1)">
      <use xlink:href="#DejaVuSans-65"/>
      <use x="68.408203" xlink:href="#DejaVuSans-98"/>
      <use x="131.884766" xlink:href="#DejaVuSans-115"/>
      <use x="183.984375" xlink:href="#DejaVuSans-111"/>
      <use x="245.166016" xlink:href="#DejaVuSans-114"/>
      <use x="286.279297" xlink:href="#DejaVuSans-98"/>
      <use x="349.755859" xlink:href="#DejaVuSans-97"/>
      <use x="411.035156" xlink:href="#DejaVuSans-110"/>
      <use x="474.414062" xlink:href="#DejaVuSans-99"/>
      <use x="529.394531" xlink:href="#DejaVuSans-101"/>
      <use x="590.917969" xlink:href="#DejaVuSans-50"/>
      <use x="654.541016" xlink:href="#DejaVuSans-50"/>
      <use x="718.164062" xlink:href="#DejaVuSans-55"/>
     </g>
    </g>
   </g>
   <g id="line2d_12">
    <defs>
     <path d="M 0 3 
C 0.795609 3 1.55874 2.683901 2.12132 2.12132 
C 2.683901 1.55874 3 0.795609 3 0 
C 3 -0.795609 2.683901 -1.55874 2.12132 -2.12132 
C 1.55874 -2.683901 0.795609 -3 0 -3 
C -0.795609 -3 -1.55874 -2.683901 -2.12132 -2.12132 
C -2.683901 -1.55874 -3 -0.795609 -3 0 
C -3 0.795609 -2.683901 1.55874 -2.12132 2.12132 
C -1.55874 2.683901 -0.795609 3 0 3 
z
" id="m20d24fa919" style="stroke:#000000;"/>
    </defs>
    <g clip-path="url(#pfecd0ae9cd)">
     <use style="stroke:#000000;" x="65.361932" xlink:href="#m20d24fa919" y="156.425743"/>
     <use style="stroke:#000000;" x="65.361938" xlink:href="#m20d24fa919" y="156.425743"/>
     <use style="stroke:#000000;" x="65.361959" xlink:href="#m20d24fa919" y="156.425743"/>
     <use style="stroke:#000000;" x="65.361981" xlink:href="#m20d24fa919" y="156.425743"/>
     <use style="stroke:#000000;" x="65.362002" xlink:href="#m20d24fa919" y="156.425743"/>
     <use style="stroke:#000000;" x="65.362035" xlink:href="#m20d24fa919" y="156.425828"/>
     <use style="stroke:#000000;" x="65.362089" xlink:href="#m20d24fa919" y="156.425828"/>
     <use style="stroke:#000000;" x="65.362181" xlink:href="#m20d24fa919" y="156.425912"/>
     <use style="stroke:#000000;" x="65.362341" xlink:href="#m20d24fa919" y="156.425997"/>
     <use style="stroke:#000000;" x="65.36262" xlink:href="#m20d24fa919" y="156.42625"/>
     <use style="stroke:#000000;" x="65.363156" xlink:href="#m20d24fa919" y="156.426589"/>
     <use style="stroke:#000000;" x="65.364126" xlink:href="#m20d24fa919" y="156.427265"/>
     <use style="stroke:#000000;" x="65.365084" xlink:href="#m20d24fa919" y="156.427941"/>
     <use style="stroke:#000000;" x="65.366054" xlink:href="#m20d24fa919" y="156.428618"/>
     <use style="stroke:#000000;" x="65.367024" xlink:href="#m20d24fa919" y="156.429294"/>
     <use style="stroke:#000000;" x="65.368055" xlink:href="#m20d24fa919" y="156.42997"/>
     <use style="stroke:#000000;" x="65.369055" xlink:href="#m20d24fa919" y="156.430647"/>
     <use style="stroke:#000000;" x="65.370055" xlink:href="#m20d24fa919" y="156.431323"/>
     <use style="stroke:#000000;" x="65.372117" xlink:href="#m20d24fa919" y="156.432676"/>
     <use style="stroke:#000000;" x="65.374147" xlink:href="#m20d24fa919" y="156.433944"/>
     <use style="stroke:#000000;" x="65.376209" xlink:href="#m20d24fa919" y="156.435296"/>
     <use style="stroke:#000000;" x="65.37827" xlink:href="#m20d24fa919" y="156.436564"/>
     <use style="stroke:#000000;" x="65.381816" xlink:href="#m20d24fa919" y="156.438678"/>
     <use style="stroke:#000000;" x="65.38997" xlink:href="#m20d24fa919" y="156.443412"/>
     <use style="stroke:#000000;" x="65.398003" xlink:href="#m20d24fa919" y="156.447724"/>
     <use style="stroke:#000000;" x="65.406187" xlink:href="#m20d24fa919" y="156.451697"/>
     <use style="stroke:#000000;" x="65.414371" xlink:href="#m20d24fa919" y="156.455248"/>
     <use style="stroke:#000000;" x="65.422555" xlink:href="#m20d24fa919" y="156.458461"/>
     <use style="stroke:#000000;" x="65.43074" xlink:href="#m20d24fa919" y="156.461335"/>
     <use style="stroke:#000000;" x="65.441046" xlink:href="#m20d24fa919" y="156.464378"/>
     <use style="stroke:#000000;" x="65.451352" xlink:href="#m20d24fa919" y="156.466915"/>
     <use style="stroke:#000000;" x="65.461354" xlink:href="#m20d24fa919" y="156.468775"/>
     <use style="stroke:#000000;" x="65.47166" xlink:href="#m20d24fa919" y="156.470212"/>
     <use style="stroke:#000000;" x="65.494091" xlink:href="#m20d24fa919" y="156.471226"/>
     <use style="stroke:#000000;" x="65.516522" xlink:href="#m20d24fa919" y="156.469705"/>
     <use style="stroke:#000000;" x="65.538953" xlink:href="#m20d24fa919" y="156.465562"/>
     <use style="stroke:#000000;" x="65.56108" xlink:href="#m20d24fa919" y="156.458799"/>
     <use style="stroke:#000000;" x="65.583511" xlink:href="#m20d24fa919" y="156.449584"/>
     <use style="stroke:#000000;" x="65.605942" xlink:href="#m20d24fa919" y="156.437833"/>
     <use style="stroke:#000000;" x="65.628372" xlink:href="#m20d24fa919" y="156.423545"/>
     <use style="stroke:#000000;" x="65.650803" xlink:href="#m20d24fa919" y="156.406891"/>
     <use style="stroke:#000000;" x="65.674143" xlink:href="#m20d24fa919" y="156.387784"/>
     <use style="stroke:#000000;" x="65.71658" xlink:href="#m20d24fa919" y="156.3434"/>
     <use style="stroke:#000000;" x="65.746891" xlink:href="#m20d24fa919" y="156.306625"/>
     <use style="stroke:#000000;" x="65.780234" xlink:href="#m20d24fa919" y="156.265538"/>
     <use style="stroke:#000000;" x="65.810546" xlink:href="#m20d24fa919" y="156.22014"/>
     <use style="stroke:#000000;" x="65.840858" xlink:href="#m20d24fa919" y="156.170599"/>
     <use style="stroke:#000000;" x="65.87117" xlink:href="#m20d24fa919" y="156.116831"/>
     <use style="stroke:#000000;" x="65.925731" xlink:href="#m20d24fa919" y="156.011915"/>
     <use style="stroke:#000000;" x="65.983323" xlink:href="#m20d24fa919" y="155.894741"/>
     <use style="stroke:#000000;" x="66.037885" xlink:href="#m20d24fa919" y="155.765732"/>
     <use style="stroke:#000000;" x="66.092446" xlink:href="#m20d24fa919" y="155.625309"/>
     <use style="stroke:#000000;" x="66.147007" xlink:href="#m20d24fa919" y="155.473812"/>
     <use style="stroke:#000000;" x="66.201568" xlink:href="#m20d24fa919" y="155.311747"/>
     <use style="stroke:#000000;" x="66.256129" xlink:href="#m20d24fa919" y="155.139368"/>
     <use style="stroke:#000000;" x="66.310691" xlink:href="#m20d24fa919" y="154.957267"/>
     <use style="stroke:#000000;" x="66.365252" xlink:href="#m20d24fa919" y="154.765612"/>
     <use style="stroke:#000000;" x="66.419813" xlink:href="#m20d24fa919" y="154.564828"/>
     <use style="stroke:#000000;" x="66.474374" xlink:href="#m20d24fa919" y="154.355335"/>
     <use style="stroke:#000000;" x="66.531967" xlink:href="#m20d24fa919" y="154.137473"/>
     <use style="stroke:#000000;" x="66.586528" xlink:href="#m20d24fa919" y="153.911495"/>
     <use style="stroke:#000000;" x="66.641089" xlink:href="#m20d24fa919" y="153.677908"/>
     <use style="stroke:#000000;" x="66.69565" xlink:href="#m20d24fa919" y="153.436882"/>
     <use style="stroke:#000000;" x="66.750211" xlink:href="#m20d24fa919" y="153.188754"/>
     <use style="stroke:#000000;" x="66.804773" xlink:href="#m20d24fa919" y="152.933948"/>
     <use style="stroke:#000000;" x="66.859334" xlink:href="#m20d24fa919" y="152.672716"/>
     <use style="stroke:#000000;" x="66.913895" xlink:href="#m20d24fa919" y="152.405398"/>
     <use style="stroke:#000000;" x="66.968456" xlink:href="#m20d24fa919" y="152.132246"/>
     <use style="stroke:#000000;" x="67.023017" xlink:href="#m20d24fa919" y="151.853514"/>
     <use style="stroke:#000000;" x="67.08061" xlink:href="#m20d24fa919" y="151.569457"/>
     <use style="stroke:#000000;" x="67.135171" xlink:href="#m20d24fa919" y="151.280496"/>
     <use style="stroke:#000000;" x="67.189732" xlink:href="#m20d24fa919" y="150.9868"/>
     <use style="stroke:#000000;" x="67.244293" xlink:href="#m20d24fa919" y="150.688624"/>
     <use style="stroke:#000000;" x="67.298855" xlink:href="#m20d24fa919" y="150.386221"/>
     <use style="stroke:#000000;" x="67.353416" xlink:href="#m20d24fa919" y="150.079845"/>
     <use style="stroke:#000000;" x="67.407977" xlink:href="#m20d24fa919" y="149.769749"/>
     <use style="stroke:#000000;" x="67.462538" xlink:href="#m20d24fa919" y="149.456186"/>
     <use style="stroke:#000000;" x="67.5171" xlink:href="#m20d24fa919" y="149.139411"/>
     <use style="stroke:#000000;" x="67.571661" xlink:href="#m20d24fa919" y="148.819508"/>
     <use style="stroke:#000000;" x="67.629253" xlink:href="#m20d24fa919" y="148.496731"/>
     <use style="stroke:#000000;" x="67.683814" xlink:href="#m20d24fa919" y="148.171417"/>
     <use style="stroke:#000000;" x="67.738376" xlink:href="#m20d24fa919" y="147.843652"/>
     <use style="stroke:#000000;" x="67.792937" xlink:href="#m20d24fa919" y="147.513604"/>
     <use style="stroke:#000000;" x="67.847498" xlink:href="#m20d24fa919" y="147.181612"/>
     <use style="stroke:#000000;" x="67.902059" xlink:href="#m20d24fa919" y="146.847675"/>
     <use style="stroke:#000000;" x="67.95662" xlink:href="#m20d24fa919" y="146.512132"/>
     <use style="stroke:#000000;" x="68.011182" xlink:href="#m20d24fa919" y="146.175067"/>
     <use style="stroke:#000000;" x="68.065743" xlink:href="#m20d24fa919" y="145.836649"/>
     <use style="stroke:#000000;" x="68.120304" xlink:href="#m20d24fa919" y="145.497302"/>
     <use style="stroke:#000000;" x="68.205177" xlink:href="#m20d24fa919" y="144.985829"/>
     <use style="stroke:#000000;" x="68.287019" xlink:href="#m20d24fa919" y="144.472666"/>
     <use style="stroke:#000000;" x="68.368861" xlink:href="#m20d24fa919" y="143.957811"/>
     <use style="stroke:#000000;" x="68.453734" xlink:href="#m20d24fa919" y="143.442957"/>
     <use style="stroke:#000000;" x="68.544669" xlink:href="#m20d24fa919" y="142.927257"/>
     <use style="stroke:#000000;" x="68.605293" xlink:href="#m20d24fa919" y="142.411557"/>
     <use style="stroke:#000000;" x="68.696228" xlink:href="#m20d24fa919" y="141.895857"/>
     <use style="stroke:#000000;" x="68.787163" xlink:href="#m20d24fa919" y="141.381848"/>
     <use style="stroke:#000000;" x="68.847787" xlink:href="#m20d24fa919" y="140.868684"/>
     <use style="stroke:#000000;" x="68.938722" xlink:href="#m20d24fa919" y="140.356366"/>
     <use style="stroke:#000000;" x="69.029657" xlink:href="#m20d24fa919" y="139.846584"/>
     <use style="stroke:#000000;" x="69.120593" xlink:href="#m20d24fa919" y="139.338493"/>
     <use style="stroke:#000000;" x="69.181216" xlink:href="#m20d24fa919" y="138.832093"/>
     <use style="stroke:#000000;" x="69.272152" xlink:href="#m20d24fa919" y="138.329074"/>
     <use style="stroke:#000000;" x="69.363087" xlink:href="#m20d24fa919" y="137.828591"/>
     <use style="stroke:#000000;" x="69.423711" xlink:href="#m20d24fa919" y="137.33149"/>
     <use style="stroke:#000000;" x="69.514646" xlink:href="#m20d24fa919" y="136.837771"/>
     <use style="stroke:#000000;" x="69.605581" xlink:href="#m20d24fa919" y="136.346588"/>
     <use style="stroke:#000000;" x="69.696517" xlink:href="#m20d24fa919" y="135.859632"/>
     <use style="stroke:#000000;" x="69.75714" xlink:href="#m20d24fa919" y="135.376903"/>
     <use style="stroke:#000000;" x="69.848076" xlink:href="#m20d24fa919" y="134.897556"/>
     <use style="stroke:#000000;" x="69.939011" xlink:href="#m20d24fa919" y="134.423281"/>
     <use style="stroke:#000000;" x="70.029946" xlink:href="#m20d24fa919" y="133.952388"/>
     <use style="stroke:#000000;" x="70.09057" xlink:href="#m20d24fa919" y="133.485722"/>
     <use style="stroke:#000000;" x="70.181505" xlink:href="#m20d24fa919" y="133.024128"/>
     <use style="stroke:#000000;" x="70.272441" xlink:href="#m20d24fa919" y="132.566762"/>
     <use style="stroke:#000000;" x="70.333064" xlink:href="#m20d24fa919" y="132.114468"/>
     <use style="stroke:#000000;" x="70.423999" xlink:href="#m20d24fa919" y="131.666401"/>
     <use style="stroke:#000000;" x="70.514935" xlink:href="#m20d24fa919" y="131.224251"/>
     <use style="stroke:#000000;" x="70.60587" xlink:href="#m20d24fa919" y="130.786329"/>
     <use style="stroke:#000000;" x="70.666494" xlink:href="#m20d24fa919" y="130.353479"/>
     <use style="stroke:#000000;" x="70.787741" xlink:href="#m20d24fa919" y="129.707586"/>
     <use style="stroke:#000000;" x="70.908988" xlink:href="#m20d24fa919" y="129.074375"/>
     <use style="stroke:#000000;" x="71.060547" xlink:href="#m20d24fa919" y="128.452153"/>
     <use style="stroke:#000000;" x="71.181794" xlink:href="#m20d24fa919" y="127.842613"/>
     <use style="stroke:#000000;" x="71.303041" xlink:href="#m20d24fa919" y="127.244908"/>
     <use style="stroke:#000000;" x="71.424288" xlink:href="#m20d24fa919" y="126.659039"/>
     <use style="stroke:#000000;" x="71.545535" xlink:href="#m20d24fa919" y="126.085852"/>
     <use style="stroke:#000000;" x="71.666783" xlink:href="#m20d24fa919" y="125.5245"/>
     <use style="stroke:#000000;" x="71.78803" xlink:href="#m20d24fa919" y="124.974983"/>
     <use style="stroke:#000000;" x="71.909277" xlink:href="#m20d24fa919" y="124.438148"/>
     <use style="stroke:#000000;" x="72.030524" xlink:href="#m20d24fa919" y="123.913149"/>
     <use style="stroke:#000000;" x="72.182083" xlink:href="#m20d24fa919" y="123.399985"/>
     <use style="stroke:#000000;" x="72.30333" xlink:href="#m20d24fa919" y="122.898657"/>
     <use style="stroke:#000000;" x="72.424577" xlink:href="#m20d24fa919" y="122.409165"/>
     <use style="stroke:#000000;" x="72.545824" xlink:href="#m20d24fa919" y="121.931509"/>
     <use style="stroke:#000000;" x="72.667071" xlink:href="#m20d24fa919" y="121.465688"/>
     <use style="stroke:#000000;" x="72.788318" xlink:href="#m20d24fa919" y="121.010858"/>
     <use style="stroke:#000000;" x="72.909566" xlink:href="#m20d24fa919" y="120.567863"/>
     <use style="stroke:#000000;" x="73.030813" xlink:href="#m20d24fa919" y="120.135859"/>
     <use style="stroke:#000000;" x="73.15206" xlink:href="#m20d24fa919" y="119.71569"/>
     <use style="stroke:#000000;" x="73.303619" xlink:href="#m20d24fa919" y="119.305666"/>
     <use style="stroke:#000000;" x="73.424866" xlink:href="#m20d24fa919" y="118.906633"/>
     <use style="stroke:#000000;" x="73.546113" xlink:href="#m20d24fa919" y="118.51859"/>
     <use style="stroke:#000000;" x="73.66736" xlink:href="#m20d24fa919" y="118.140692"/>
     <use style="stroke:#000000;" x="73.788607" xlink:href="#m20d24fa919" y="117.773784"/>
     <use style="stroke:#000000;" x="73.909854" xlink:href="#m20d24fa919" y="117.416176"/>
     <use style="stroke:#000000;" x="74.031102" xlink:href="#m20d24fa919" y="117.069558"/>
     <use style="stroke:#000000;" x="74.152349" xlink:href="#m20d24fa919" y="116.73224"/>
     <use style="stroke:#000000;" x="74.273596" xlink:href="#m20d24fa919" y="116.405066"/>
     <use style="stroke:#000000;" x="74.425155" xlink:href="#m20d24fa919" y="116.088037"/>
     <use style="stroke:#000000;" x="74.546402" xlink:href="#m20d24fa919" y="115.780308"/>
     <use style="stroke:#000000;" x="74.667649" xlink:href="#m20d24fa919" y="115.481033"/>
     <use style="stroke:#000000;" x="74.788896" xlink:href="#m20d24fa919" y="115.191903"/>
     <use style="stroke:#000000;" x="74.910143" xlink:href="#m20d24fa919" y="114.911227"/>
     <use style="stroke:#000000;" x="75.03139" xlink:href="#m20d24fa919" y="114.639005"/>
     <use style="stroke:#000000;" x="75.152637" xlink:href="#m20d24fa919" y="114.376083"/>
     <use style="stroke:#000000;" x="75.273885" xlink:href="#m20d24fa919" y="114.121615"/>
     <use style="stroke:#000000;" x="75.395132" xlink:href="#m20d24fa919" y="113.8756"/>
     <use style="stroke:#000000;" x="75.546691" xlink:href="#m20d24fa919" y="113.63804"/>
     <use style="stroke:#000000;" x="75.667938" xlink:href="#m20d24fa919" y="113.408934"/>
     <use style="stroke:#000000;" x="75.789185" xlink:href="#m20d24fa919" y="113.186592"/>
     <use style="stroke:#000000;" x="75.910432" xlink:href="#m20d24fa919" y="112.972703"/>
     <use style="stroke:#000000;" x="76.031679" xlink:href="#m20d24fa919" y="112.767268"/>
     <use style="stroke:#000000;" x="76.152926" xlink:href="#m20d24fa919" y="112.568597"/>
     <use style="stroke:#000000;" x="76.274173" xlink:href="#m20d24fa919" y="112.377535"/>
     <use style="stroke:#000000;" x="76.395421" xlink:href="#m20d24fa919" y="112.193235"/>
     <use style="stroke:#000000;" x="76.516668" xlink:href="#m20d24fa919" y="112.016545"/>
     <use style="stroke:#000000;" x="76.637915" xlink:href="#m20d24fa919" y="111.846617"/>
     <use style="stroke:#000000;" x="76.789474" xlink:href="#m20d24fa919" y="111.683453"/>
     <use style="stroke:#000000;" x="76.910721" xlink:href="#m20d24fa919" y="111.527898"/>
     <use style="stroke:#000000;" x="77.092592" xlink:href="#m20d24fa919" y="111.303019"/>
     <use style="stroke:#000000;" x="77.274462" xlink:href="#m20d24fa919" y="111.094203"/>
     <use style="stroke:#000000;" x="77.456333" xlink:href="#m20d24fa919" y="110.898913"/>
     <use style="stroke:#000000;" x="77.668515" xlink:href="#m20d24fa919" y="110.717995"/>
     <use style="stroke:#000000;" x="77.850386" xlink:href="#m20d24fa919" y="110.549759"/>
     <use style="stroke:#000000;" x="78.032257" xlink:href="#m20d24fa919" y="110.395894"/>
     <use style="stroke:#000000;" x="78.214127" xlink:href="#m20d24fa919" y="110.253866"/>
     <use style="stroke:#000000;" x="78.42631" xlink:href="#m20d24fa919" y="110.124518"/>
     <use style="stroke:#000000;" x="78.608181" xlink:href="#m20d24fa919" y="110.007851"/>
     <use style="stroke:#000000;" x="78.790051" xlink:href="#m20d24fa919" y="109.902175"/>
     <use style="stroke:#000000;" x="78.971922" xlink:href="#m20d24fa919" y="109.808335"/>
     <use style="stroke:#000000;" x="79.184105" xlink:href="#m20d24fa919" y="109.725485"/>
     <use style="stroke:#000000;" x="79.365975" xlink:href="#m20d24fa919" y="109.653625"/>
     <use style="stroke:#000000;" x="79.547846" xlink:href="#m20d24fa919" y="109.59191"/>
     <use style="stroke:#000000;" x="79.729717" xlink:href="#m20d24fa919" y="109.54034"/>
     <use style="stroke:#000000;" x="79.911587" xlink:href="#m20d24fa919" y="109.498069"/>
     <use style="stroke:#000000;" x="80.12377" xlink:href="#m20d24fa919" y="109.465944"/>
     <use style="stroke:#000000;" x="80.30564" xlink:href="#m20d24fa919" y="109.443118"/>
     <use style="stroke:#000000;" x="80.487511" xlink:href="#m20d24fa919" y="109.428746"/>
     <use style="stroke:#000000;" x="80.669382" xlink:href="#m20d24fa919" y="109.423673"/>
     <use style="stroke:#000000;" x="80.881564" xlink:href="#m20d24fa919" y="109.42621"/>
     <use style="stroke:#000000;" x="81.063435" xlink:href="#m20d24fa919" y="109.438045"/>
     <use style="stroke:#000000;" x="81.245306" xlink:href="#m20d24fa919" y="109.45749"/>
     <use style="stroke:#000000;" x="81.427176" xlink:href="#m20d24fa919" y="109.484543"/>
     <use style="stroke:#000000;" x="81.639359" xlink:href="#m20d24fa919" y="109.519205"/>
     <use style="stroke:#000000;" x="81.82123" xlink:href="#m20d24fa919" y="109.56063"/>
     <use style="stroke:#000000;" x="82.0031" xlink:href="#m20d24fa919" y="109.609663"/>
     <use style="stroke:#000000;" x="82.184971" xlink:href="#m20d24fa919" y="109.666306"/>
     <use style="stroke:#000000;" x="82.366842" xlink:href="#m20d24fa919" y="109.728866"/>
     <use style="stroke:#000000;" x="82.579024" xlink:href="#m20d24fa919" y="109.797344"/>
     <use style="stroke:#000000;" x="82.760895" xlink:href="#m20d24fa919" y="109.872586"/>
     <use style="stroke:#000000;" x="82.942766" xlink:href="#m20d24fa919" y="109.954591"/>
     <use style="stroke:#000000;" x="83.124636" xlink:href="#m20d24fa919" y="110.041668"/>
     <use style="stroke:#000000;" x="83.336819" xlink:href="#m20d24fa919" y="110.134663"/>
     <use style="stroke:#000000;" x="83.518689" xlink:href="#m20d24fa919" y="110.233576"/>
     <use style="stroke:#000000;" x="83.70056" xlink:href="#m20d24fa919" y="110.337561"/>
     <use style="stroke:#000000;" x="83.882431" xlink:href="#m20d24fa919" y="110.446619"/>
     <use style="stroke:#000000;" x="84.094613" xlink:href="#m20d24fa919" y="110.560749"/>
     <use style="stroke:#000000;" x="84.276484" xlink:href="#m20d24fa919" y="110.679952"/>
     <use style="stroke:#000000;" x="84.458355" xlink:href="#m20d24fa919" y="110.804227"/>
     <use style="stroke:#000000;" x="84.640225" xlink:href="#m20d24fa919" y="110.93273"/>
     <use style="stroke:#000000;" x="84.822096" xlink:href="#m20d24fa919" y="111.066304"/>
     <use style="stroke:#000000;" x="85.034278" xlink:href="#m20d24fa919" y="111.203261"/>
     <use style="stroke:#000000;" x="85.216149" xlink:href="#m20d24fa919" y="111.345289"/>
     <use style="stroke:#000000;" x="85.488955" xlink:href="#m20d24fa919" y="111.567632"/>
     <use style="stroke:#000000;" x="85.792073" xlink:href="#m20d24fa919" y="111.797584"/>
     <use style="stroke:#000000;" x="86.064879" xlink:href="#m20d24fa919" y="112.036834"/>
     <use style="stroke:#000000;" x="86.367997" xlink:href="#m20d24fa919" y="112.28454"/>
     <use style="stroke:#000000;" x="86.640803" xlink:href="#m20d24fa919" y="112.539853"/>
     <use style="stroke:#000000;" x="86.913609" xlink:href="#m20d24fa919" y="112.80193"/>
     <use style="stroke:#000000;" x="87.216727" xlink:href="#m20d24fa919" y="113.071616"/>
     <use style="stroke:#000000;" x="87.489533" xlink:href="#m20d24fa919" y="113.347219"/>
     <use style="stroke:#000000;" x="87.792651" xlink:href="#m20d24fa919" y="113.629586"/>
     <use style="stroke:#000000;" x="88.065457" xlink:href="#m20d24fa919" y="113.918716"/>
     <use style="stroke:#000000;" x="88.368575" xlink:href="#m20d24fa919" y="114.212919"/>
     <use style="stroke:#000000;" x="88.641381" xlink:href="#m20d24fa919" y="114.512194"/>
     <use style="stroke:#000000;" x="88.914187" xlink:href="#m20d24fa919" y="114.817387"/>
     <use style="stroke:#000000;" x="89.217304" xlink:href="#m20d24fa919" y="115.126807"/>
     <use style="stroke:#000000;" x="89.49011" xlink:href="#m20d24fa919" y="115.441299"/>
     <use style="stroke:#000000;" x="89.793228" xlink:href="#m20d24fa919" y="115.760018"/>
     <use style="stroke:#000000;" x="90.066034" xlink:href="#m20d24fa919" y="116.08381"/>
     <use style="stroke:#000000;" x="90.33884" xlink:href="#m20d24fa919" y="116.410138"/>
     <use style="stroke:#000000;" x="90.641958" xlink:href="#m20d24fa919" y="116.741539"/>
     <use style="stroke:#000000;" x="90.914764" xlink:href="#m20d24fa919" y="117.075476"/>
     <use style="stroke:#000000;" x="91.217882" xlink:href="#m20d24fa919" y="117.41364"/>
     <use style="stroke:#000000;" x="91.642247" xlink:href="#m20d24fa919" y="117.941175"/>
     <use style="stroke:#000000;" x="92.096924" xlink:href="#m20d24fa919" y="118.475474"/>
     <use style="stroke:#000000;" x="92.521289" xlink:href="#m20d24fa919" y="119.016536"/>
     <use style="stroke:#000000;" x="92.975965" xlink:href="#m20d24fa919" y="119.562671"/>
     <use style="stroke:#000000;" x="93.40033" xlink:href="#m20d24fa919" y="120.113878"/>
     <use style="stroke:#000000;" x="93.855007" xlink:href="#m20d24fa919" y="120.670158"/>
     <use style="stroke:#000000;" x="94.279372" xlink:href="#m20d24fa919" y="121.230664"/>
     <use style="stroke:#000000;" x="94.734049" xlink:href="#m20d24fa919" y="121.794552"/>
     <use style="stroke:#000000;" x="95.158414" xlink:href="#m20d24fa919" y="122.362668"/>
     <use style="stroke:#000000;" x="95.61309" xlink:href="#m20d24fa919" y="122.932474"/>
     <use style="stroke:#000000;" x="95.976832" xlink:href="#m20d24fa919" y="123.505661"/>
     <use style="stroke:#000000;" x="96.583067" xlink:href="#m20d24fa919" y="124.08054"/>
     <use style="stroke:#000000;" x="96.886185" xlink:href="#m20d24fa919" y="124.657109"/>
     <use style="stroke:#000000;" x="97.492421" xlink:href="#m20d24fa919" y="125.23537"/>
     <use style="stroke:#000000;" x="97.795539" xlink:href="#m20d24fa919" y="125.814475"/>
     <use style="stroke:#000000;" x="98.401774" xlink:href="#m20d24fa919" y="126.395272"/>
     <use style="stroke:#000000;" x="98.704892" xlink:href="#m20d24fa919" y="126.976068"/>
     <use style="stroke:#000000;" x="99.00801" xlink:href="#m20d24fa919" y="127.55771"/>
     <use style="stroke:#000000;" x="99.614246" xlink:href="#m20d24fa919" y="128.139352"/>
     <use style="stroke:#000000;" x="99.917364" xlink:href="#m20d24fa919" y="128.720993"/>
     <use style="stroke:#000000;" x="100.523599" xlink:href="#m20d24fa919" y="129.302635"/>
     <use style="stroke:#000000;" x="100.826717" xlink:href="#m20d24fa919" y="129.884277"/>
     <use style="stroke:#000000;" x="101.432953" xlink:href="#m20d24fa919" y="130.465074"/>
     <use style="stroke:#000000;" x="101.73607" xlink:href="#m20d24fa919" y="131.045025"/>
     <use style="stroke:#000000;" x="102.342306" xlink:href="#m20d24fa919" y="131.623285"/>
     <use style="stroke:#000000;" x="102.645424" xlink:href="#m20d24fa919" y="132.201545"/>
     <use style="stroke:#000000;" x="102.948542" xlink:href="#m20d24fa919" y="132.778114"/>
     <use style="stroke:#000000;" x="103.554777" xlink:href="#m20d24fa919" y="133.353838"/>
     <use style="stroke:#000000;" x="103.857895" xlink:href="#m20d24fa919" y="133.927871"/>
     <use style="stroke:#000000;" x="104.464131" xlink:href="#m20d24fa919" y="134.501059"/>
     <use style="stroke:#000000;" x="104.767249" xlink:href="#m20d24fa919" y="135.071711"/>
     <use style="stroke:#000000;" x="105.373484" xlink:href="#m20d24fa919" y="135.641517"/>
     <use style="stroke:#000000;" x="105.676602" xlink:href="#m20d24fa919" y="136.208787"/>
     <use style="stroke:#000000;" x="106.282838" xlink:href="#m20d24fa919" y="137.058423"/>
     <use style="stroke:#000000;" x="107.192191" xlink:href="#m20d24fa919" y="137.902987"/>
     <use style="stroke:#000000;" x="107.798427" xlink:href="#m20d24fa919" y="138.743325"/>
     <use style="stroke:#000000;" x="108.404663" xlink:href="#m20d24fa919" y="139.577744"/>
     <use style="stroke:#000000;" x="109.010898" xlink:href="#m20d24fa919" y="140.407936"/>
     <use style="stroke:#000000;" x="109.617134" xlink:href="#m20d24fa919" y="141.232211"/>
     <use style="stroke:#000000;" x="110.223369" xlink:href="#m20d24fa919" y="142.051412"/>
     <use style="stroke:#000000;" x="111.132723" xlink:href="#m20d24fa919" y="142.864696"/>
     <use style="stroke:#000000;" x="111.738959" xlink:href="#m20d24fa919" y="143.672908"/>
     <use style="stroke:#000000;" x="112.345194" xlink:href="#m20d24fa919" y="144.474356"/>
     <use style="stroke:#000000;" x="112.95143" xlink:href="#m20d24fa919" y="145.270732"/>
     <use style="stroke:#000000;" x="113.557666" xlink:href="#m20d24fa919" y="146.060345"/>
     <use style="stroke:#000000;" x="114.467019" xlink:href="#m20d24fa919" y="146.844293"/>
     <use style="stroke:#000000;" x="115.073255" xlink:href="#m20d24fa919" y="147.62207"/>
     <use style="stroke:#000000;" x="115.67949" xlink:href="#m20d24fa919" y="148.393675"/>
     <use style="stroke:#000000;" x="116.285726" xlink:href="#m20d24fa919" y="149.159109"/>
     <use style="stroke:#000000;" x="116.891962" xlink:href="#m20d24fa919" y="149.918287"/>
     <use style="stroke:#000000;" x="117.801315" xlink:href="#m20d24fa919" y="150.671209"/>
     <use style="stroke:#000000;" x="118.407551" xlink:href="#m20d24fa919" y="151.417875"/>
     <use style="stroke:#000000;" x="119.013786" xlink:href="#m20d24fa919" y="152.1582"/>
     <use style="stroke:#000000;" x="119.620022" xlink:href="#m20d24fa919" y="152.892354"/>
     <use style="stroke:#000000;" x="120.226258" xlink:href="#m20d24fa919" y="153.620082"/>
     <use style="stroke:#000000;" x="120.832493" xlink:href="#m20d24fa919" y="154.341639"/>
     <use style="stroke:#000000;" x="121.741847" xlink:href="#m20d24fa919" y="155.056856"/>
     <use style="stroke:#000000;" x="122.348082" xlink:href="#m20d24fa919" y="155.765816"/>
     <use style="stroke:#000000;" x="122.954318" xlink:href="#m20d24fa919" y="156.468605"/>
     <use style="stroke:#000000;" x="123.560554" xlink:href="#m20d24fa919" y="157.165054"/>
     <use style="stroke:#000000;" x="124.469907" xlink:href="#m20d24fa919" y="158.201695"/>
     <use style="stroke:#000000;" x="125.682378" xlink:href="#m20d24fa919" y="159.224303"/>
     <use style="stroke:#000000;" x="126.591732" xlink:href="#m20d24fa919" y="160.233045"/>
     <use style="stroke:#000000;" x="127.501085" xlink:href="#m20d24fa919" y="161.228008"/>
     <use style="stroke:#000000;" x="128.713557" xlink:href="#m20d24fa919" y="162.20936"/>
     <use style="stroke:#000000;" x="129.62291" xlink:href="#m20d24fa919" y="163.177184"/>
     <use style="stroke:#000000;" x="130.584703" xlink:href="#m20d24fa919" y="164.131652"/>
     <use style="stroke:#000000;" x="131.580748" xlink:href="#m20d24fa919" y="165.072846"/>
     <use style="stroke:#000000;" x="132.576793" xlink:href="#m20d24fa919" y="166.000937"/>
     <use style="stroke:#000000;" x="133.573142" xlink:href="#m20d24fa919" y="166.916009"/>
     <use style="stroke:#000000;" x="134.569187" xlink:href="#m20d24fa919" y="167.818314"/>
     <use style="stroke:#000000;" x="135.565232" xlink:href="#m20d24fa919" y="168.707939"/>
     <use style="stroke:#000000;" x="136.56158" xlink:href="#m20d24fa919" y="169.585051"/>
     <use style="stroke:#000000;" x="137.557625" xlink:href="#m20d24fa919" y="170.449821"/>
     <use style="stroke:#000000;" x="138.55367" xlink:href="#m20d24fa919" y="171.302332"/>
     <use style="stroke:#000000;" x="139.549716" xlink:href="#m20d24fa919" y="172.142838"/>
     <use style="stroke:#000000;" x="140.546064" xlink:href="#m20d24fa919" y="172.971424"/>
     <use style="stroke:#000000;" x="141.542109" xlink:href="#m20d24fa919" y="173.788259"/>
     <use style="stroke:#000000;" x="142.538154" xlink:href="#m20d24fa919" y="174.593427"/>
     <use style="stroke:#000000;" x="143.534503" xlink:href="#m20d24fa919" y="175.387267"/>
     <use style="stroke:#000000;" x="144.530548" xlink:href="#m20d24fa919" y="176.169778"/>
     <use style="stroke:#000000;" x="145.526593" xlink:href="#m20d24fa919" y="176.94113"/>
     <use style="stroke:#000000;" x="146.522941" xlink:href="#m20d24fa919" y="177.701491"/>
     <use style="stroke:#000000;" x="147.518986" xlink:href="#m20d24fa919" y="178.451031"/>
     <use style="stroke:#000000;" x="149.027604" xlink:href="#m20d24fa919" y="179.565957"/>
     <use style="stroke:#000000;" x="150.536221" xlink:href="#m20d24fa919" y="180.656789"/>
     <use style="stroke:#000000;" x="152.044839" xlink:href="#m20d24fa919" y="181.724204"/>
     <use style="stroke:#000000;" x="153.553153" xlink:href="#m20d24fa919" y="182.768623"/>
     <use style="stroke:#000000;" x="155.06177" xlink:href="#m20d24fa919" y="183.790554"/>
     <use style="stroke:#000000;" x="156.570388" xlink:href="#m20d24fa919" y="184.79042"/>
     <use style="stroke:#000000;" x="158.079005" xlink:href="#m20d24fa919" y="185.768812"/>
     <use style="stroke:#000000;" x="159.587622" xlink:href="#m20d24fa919" y="186.726154"/>
     <use style="stroke:#000000;" x="161.09624" xlink:href="#m20d24fa919" y="187.662783"/>
     <use style="stroke:#000000;" x="162.604857" xlink:href="#m20d24fa919" y="188.579377"/>
     <use style="stroke:#000000;" x="164.113475" xlink:href="#m20d24fa919" y="189.476103"/>
     <use style="stroke:#000000;" x="165.622092" xlink:href="#m20d24fa919" y="190.353638"/>
     <use style="stroke:#000000;" x="167.130406" xlink:href="#m20d24fa919" y="191.212151"/>
     <use style="stroke:#000000;" x="168.639024" xlink:href="#m20d24fa919" y="192.052319"/>
     <use style="stroke:#000000;" x="170.147641" xlink:href="#m20d24fa919" y="192.874396"/>
     <use style="stroke:#000000;" x="171.656258" xlink:href="#m20d24fa919" y="193.678718"/>
     <use style="stroke:#000000;" x="173.164876" xlink:href="#m20d24fa919" y="194.465795"/>
     <use style="stroke:#000000;" x="174.673493" xlink:href="#m20d24fa919" y="195.235963"/>
     <use style="stroke:#000000;" x="176.182111" xlink:href="#m20d24fa919" y="195.989646"/>
     <use style="stroke:#000000;" x="177.690728" xlink:href="#m20d24fa919" y="196.727096"/>
     <use style="stroke:#000000;" x="179.199346" xlink:href="#m20d24fa919" y="197.448654"/>
     <use style="stroke:#000000;" x="180.707963" xlink:href="#m20d24fa919" y="198.154824"/>
     <use style="stroke:#000000;" x="182.216277" xlink:href="#m20d24fa919" y="198.845777"/>
     <use style="stroke:#000000;" x="183.724895" xlink:href="#m20d24fa919" y="199.521936"/>
     <use style="stroke:#000000;" x="185.998884" xlink:href="#m20d24fa919" y="200.513771"/>
     <use style="stroke:#000000;" x="188.272874" xlink:href="#m20d24fa919" y="201.473818"/>
     <use style="stroke:#000000;" x="190.546864" xlink:href="#m20d24fa919" y="202.403008"/>
     <use style="stroke:#000000;" x="192.820854" xlink:href="#m20d24fa919" y="203.302439"/>
     <use style="stroke:#000000;" x="195.094844" xlink:href="#m20d24fa919" y="204.172957"/>
     <use style="stroke:#000000;" x="197.368834" xlink:href="#m20d24fa919" y="205.015577"/>
     <use style="stroke:#000000;" x="199.642521" xlink:href="#m20d24fa919" y="205.831144"/>
     <use style="stroke:#000000;" x="201.916511" xlink:href="#m20d24fa919" y="206.620587"/>
     <use style="stroke:#000000;" x="204.190501" xlink:href="#m20d24fa919" y="207.384753"/>
     <use style="stroke:#000000;" x="206.46449" xlink:href="#m20d24fa919" y="208.124486"/>
     <use style="stroke:#000000;" x="208.73848" xlink:href="#m20d24fa919" y="208.840464"/>
     <use style="stroke:#000000;" x="211.01247" xlink:href="#m20d24fa919" y="209.53353"/>
     <use style="stroke:#000000;" x="213.28646" xlink:href="#m20d24fa919" y="210.204448"/>
     <use style="stroke:#000000;" x="215.560147" xlink:href="#m20d24fa919" y="210.853891"/>
     <use style="stroke:#000000;" x="217.834137" xlink:href="#m20d24fa919" y="211.482622"/>
     <use style="stroke:#000000;" x="220.108127" xlink:href="#m20d24fa919" y="212.091148"/>
     <use style="stroke:#000000;" x="222.382117" xlink:href="#m20d24fa919" y="212.680314"/>
     <use style="stroke:#000000;" x="224.656107" xlink:href="#m20d24fa919" y="213.250543"/>
     <use style="stroke:#000000;" x="226.930096" xlink:href="#m20d24fa919" y="213.802595"/>
     <use style="stroke:#000000;" x="229.204086" xlink:href="#m20d24fa919" y="214.336979"/>
     <use style="stroke:#000000;" x="231.477773" xlink:href="#m20d24fa919" y="214.8542"/>
     <use style="stroke:#000000;" x="233.751763" xlink:href="#m20d24fa919" y="215.355021"/>
     <use style="stroke:#000000;" x="236.025753" xlink:href="#m20d24fa919" y="215.839694"/>
     <use style="stroke:#000000;" x="238.299743" xlink:href="#m20d24fa919" y="216.308897"/>
     <use style="stroke:#000000;" x="239.926576" xlink:href="#m20d24fa919" y="216.635394"/>
     <use style="stroke:#000000;" x="241.55341" xlink:href="#m20d24fa919" y="216.954367"/>
     <use style="stroke:#000000;" x="243.180243" xlink:href="#m20d24fa919" y="217.265985"/>
     <use style="stroke:#000000;" x="244.807076" xlink:href="#m20d24fa919" y="217.570417"/>
     <use style="stroke:#000000;" x="246.434213" xlink:href="#m20d24fa919" y="217.867832"/>
     <use style="stroke:#000000;" x="248.061046" xlink:href="#m20d24fa919" y="218.158399"/>
     <use style="stroke:#000000;" x="249.687879" xlink:href="#m20d24fa919" y="218.442288"/>
     <use style="stroke:#000000;" x="251.314713" xlink:href="#m20d24fa919" y="218.719667"/>
     <use style="stroke:#000000;" x="252.941546" xlink:href="#m20d24fa919" y="218.990621"/>
     <use style="stroke:#000000;" x="254.568379" xlink:href="#m20d24fa919" y="219.255403"/>
     <use style="stroke:#000000;" x="256.195213" xlink:href="#m20d24fa919" y="219.514014"/>
     <use style="stroke:#000000;" x="257.822046" xlink:href="#m20d24fa919" y="219.766622"/>
     <use style="stroke:#000000;" x="259.44888" xlink:href="#m20d24fa919" y="220.013482"/>
     <use style="stroke:#000000;" x="261.075713" xlink:href="#m20d24fa919" y="220.254593"/>
     <use style="stroke:#000000;" x="262.702849" xlink:href="#m20d24fa919" y="220.490124"/>
     <use style="stroke:#000000;" x="264.329683" xlink:href="#m20d24fa919" y="220.720244"/>
     <use style="stroke:#000000;" x="265.956516" xlink:href="#m20d24fa919" y="220.945039"/>
     <use style="stroke:#000000;" x="268.427229" xlink:href="#m20d24fa919" y="221.276608"/>
     <use style="stroke:#000000;" x="270.897943" xlink:href="#m20d24fa919" y="221.596511"/>
     <use style="stroke:#000000;" x="273.368656" xlink:href="#m20d24fa919" y="221.905213"/>
     <use style="stroke:#000000;" x="275.83937" xlink:href="#m20d24fa919" y="222.203127"/>
     <use style="stroke:#000000;" x="278.310083" xlink:href="#m20d24fa919" y="222.490608"/>
     <use style="stroke:#000000;" x="280.780796" xlink:href="#m20d24fa919" y="222.768004"/>
     <use style="stroke:#000000;" x="283.25151" xlink:href="#m20d24fa919" y="223.035652"/>
     <use style="stroke:#000000;" x="285.72192" xlink:href="#m20d24fa919" y="223.293899"/>
     <use style="stroke:#000000;" x="288.192633" xlink:href="#m20d24fa919" y="223.54305"/>
     <use style="stroke:#000000;" x="290.663347" xlink:href="#m20d24fa919" y="223.783425"/>
     <use style="stroke:#000000;" x="293.13406" xlink:href="#m20d24fa919" y="224.015313"/>
     <use style="stroke:#000000;" x="295.604773" xlink:href="#m20d24fa919" y="224.239"/>
     <use style="stroke:#000000;" x="298.075487" xlink:href="#m20d24fa919" y="224.454774"/>
     <use style="stroke:#000000;" x="300.5462" xlink:href="#m20d24fa919" y="224.662888"/>
     <use style="stroke:#000000;" x="303.016913" xlink:href="#m20d24fa919" y="224.863622"/>
     <use style="stroke:#000000;" x="305.487627" xlink:href="#m20d24fa919" y="225.057213"/>
     <use style="stroke:#000000;" x="307.95834" xlink:href="#m20d24fa919" y="225.243904"/>
     <use style="stroke:#000000;" x="310.429054" xlink:href="#m20d24fa919" y="225.423934"/>
     <use style="stroke:#000000;" x="312.899767" xlink:href="#m20d24fa919" y="225.597522"/>
     <use style="stroke:#000000;" x="315.37048" xlink:href="#m20d24fa919" y="225.764888"/>
     <use style="stroke:#000000;" x="317.841194" xlink:href="#m20d24fa919" y="225.926243"/>
     <use style="stroke:#000000;" x="320.311907" xlink:href="#m20d24fa919" y="226.081798"/>
     <use style="stroke:#000000;" x="322.78262" xlink:href="#m20d24fa919" y="226.23174"/>
     <use style="stroke:#000000;" x="325.253334" xlink:href="#m20d24fa919" y="226.376263"/>
     <use style="stroke:#000000;" x="327.724047" xlink:href="#m20d24fa919" y="226.515553"/>
     <use style="stroke:#000000;" x="330.194761" xlink:href="#m20d24fa919" y="226.649778"/>
     <use style="stroke:#000000;" x="332.665474" xlink:href="#m20d24fa919" y="226.779126"/>
     <use style="stroke:#000000;" x="335.136187" xlink:href="#m20d24fa919" y="226.903756"/>
     <use style="stroke:#000000;" x="337.606901" xlink:href="#m20d24fa919" y="227.02383"/>
     <use style="stroke:#000000;" x="340.077614" xlink:href="#m20d24fa919" y="227.139499"/>
     <use style="stroke:#000000;" x="342.548327" xlink:href="#m20d24fa919" y="227.250924"/>
     <use style="stroke:#000000;" x="345.018738" xlink:href="#m20d24fa919" y="227.35824"/>
     <use style="stroke:#000000;" x="347.489451" xlink:href="#m20d24fa919" y="227.461583"/>
     <use style="stroke:#000000;" x="349.960164" xlink:href="#m20d24fa919" y="227.561105"/>
     <use style="stroke:#000000;" x="352.430878" xlink:href="#m20d24fa919" y="227.656923"/>
     <use style="stroke:#000000;" x="354.901591" xlink:href="#m20d24fa919" y="227.749183"/>
     <use style="stroke:#000000;" x="357.372304" xlink:href="#m20d24fa919" y="227.837985"/>
     <use style="stroke:#000000;" x="359.843018" xlink:href="#m20d24fa919" y="227.923464"/>
     <use style="stroke:#000000;" x="362.313731" xlink:href="#m20d24fa919" y="228.005731"/>
     <use style="stroke:#000000;" x="364.784445" xlink:href="#m20d24fa919" y="228.084903"/>
     <use style="stroke:#000000;" x="367.255158" xlink:href="#m20d24fa919" y="228.161075"/>
     <use style="stroke:#000000;" x="369.725568" xlink:href="#m20d24fa919" y="228.234363"/>
    </g>
   </g>
   <g id="line2d_13">
    <path clip-path="url(#pfecd0ae9cd)" d="M 65.361932 156.425728 
L 65.552318 156.439955 
L 65.744158 156.220112 
L 66.047676 155.464417 
L 66.484694 153.686862 
L 67.1645 149.861533 
L 71.107972 125.713674 
L 72.218355 121.04323 
L 73.217699 117.724998 
L 74.106006 115.400139 
L 75.111196 113.388739 
L 75.948855 112.15085 
L 76.786514 111.259935 
L 77.624173 110.673222 
L 78.461832 110.352851 
L 79.217151 110.264545 
L 80.228045 110.405193 
L 81.238939 110.800794 
L 82.502557 111.594735 
L 83.766174 112.661765 
L 85.282526 114.228188 
L 87.177967 116.518901 
L 89.831583 120.150641 
L 93.622463 125.816351 
L 106.224598 145.022672 
L 110.704853 151.351722 
L 115.526194 157.738867 
L 119.543978 162.716102 
L 124.046654 167.925953 
L 128.237825 172.437786 
L 131.783841 176.012215 
L 136.275263 180.236617 
L 140.766685 184.142059 
L 145.847449 188.202068 
L 150.928212 191.910744 
L 156.008976 195.296459 
L 161.089739 198.385908 
L 166.170503 201.20401 
L 171.76178 204.019222 
L 177.174015 206.484661 
L 182.935091 208.855054 
L 188.794487 211.023345 
L 194.756115 213.00366 
L 200.828461 214.810627 
L 208.317474 216.779668 
L 216.872619 218.722278 
L 225.21992 220.345821 
L 233.567221 221.739083 
L 241.914522 222.934585 
L 252.348648 224.19298 
L 262.782774 225.231617 
L 275.303725 226.240851 
L 289.911502 227.157417 
L 306.606104 227.940582 
L 325.387531 228.572424 
L 348.342608 229.092993 
L 369.21086 229.402802 
L 369.21086 229.402802 
" style="fill:none;stroke:#0000ff;stroke-linecap:square;stroke-width:1.5;"/>
   </g>
   <g id="line2d_14">
    <path clip-path="url(#pfecd0ae9cd)" d="M 65.361932 156.425728 
L 65.599781 156.491956 
L 65.817481 156.317702 
L 66.115571 155.755486 
L 66.565004 154.310002 
L 67.141015 151.65199 
L 68.118011 145.898813 
L 70.873966 129.024411 
L 72.012951 123.62338 
L 73.038038 119.79728 
L 73.949227 117.176601 
L 74.746516 115.429731 
L 75.603729 114.057106 
L 76.460942 113.14424 
L 77.146712 112.703346 
L 77.832482 112.488173 
L 78.518252 112.472372 
L 79.375465 112.697023 
L 80.232678 113.155213 
L 81.264251 113.966262 
L 82.557367 115.308408 
L 84.109105 117.287385 
L 85.919466 119.962445 
L 88.526547 124.256302 
L 92.832054 131.871311 
L 100.291466 145.045395 
L 104.56269 152.127772 
L 108.711382 158.570314 
L 112.399108 163.91763 
L 116.086834 168.909821 
L 119.77456 173.557697 
L 123.462286 177.876619 
L 127.009237 181.736701 
L 130.615992 185.383474 
L 134.483339 189.001527 
L 138.350687 192.337708 
L 142.218035 195.412215 
L 146.085382 198.244254 
L 149.95273 200.851941 
L 153.820077 203.252267 
L 158.72521 206.023179 
L 163.631374 208.516323 
L 168.299364 210.654872 
L 173.708886 212.876703 
L 178.598787 214.671959 
L 184.339019 216.548883 
L 191.25087 218.517119 
L 198.16013 220.207331 
L 206.196453 221.874714 
L 214.232776 223.269484 
L 222.269099 224.434729 
L 232.314503 225.623278 
L 242.359906 226.568191 
L 254.41439 227.446711 
L 266.468875 228.10767 
L 280.53244 228.671127 
L 298.614166 229.159494 
L 320.714054 229.519102 
L 350.850265 229.770111 
L 368.931992 229.848503 
L 368.931992 229.848503 
" style="fill:none;stroke:#ff0000;stroke-linecap:square;stroke-width:1.5;"/>
   </g>
   <g id="line2d_15">
    <path clip-path="url(#pfecd0ae9cd)" d="M 65.361932 81.980825 
L 65.71658 82.312611 
L 65.983323 82.321929 
L 66.256129 82.123131 
L 66.586528 81.595465 
L 67.023017 80.418202 
L 67.571661 78.220658 
L 68.287019 74.40027 
L 69.605581 65.851751 
L 71.545535 53.396758 
L 72.788318 46.800637 
L 73.909854 42.01063 
L 74.910143 38.6509 
L 75.910432 36.083782 
L 76.789474 34.420752 
L 77.668515 33.260828 
L 78.42631 32.619381 
L 79.184105 32.2801 
L 79.911587 32.207782 
L 80.669382 32.368885 
L 81.427176 32.747373 
L 82.366842 33.484029 
L 83.518689 34.732566 
L 84.822096 36.537973 
L 86.367997 39.100723 
L 88.368575 42.938473 
L 90.914764 48.405392 
L 94.279372 56.202239 
L 107.192191 86.694544 
L 111.738959 96.648133 
L 115.67949 104.796443 
L 119.620022 112.487821 
L 123.560554 119.72548 
L 127.501085 126.525152 
L 131.580748 133.121736 
L 135.565232 139.150541 
L 139.549716 144.802877 
L 143.534503 150.085901 
L 147.518986 155.045259 
L 152.044839 160.278159 
L 156.570388 165.140028 
L 161.09624 169.658156 
L 165.622092 173.838846 
L 170.147641 177.730993 
L 174.673493 181.338815 
L 179.199346 184.68905 
L 183.724895 187.801919 
L 188.272874 190.707052 
L 192.820854 193.401276 
L 197.368834 195.909092 
L 201.916511 198.237883 
L 208.73848 201.426404 
L 215.560147 204.282667 
L 222.382117 206.85647 
L 229.204086 209.16415 
L 236.025753 211.234052 
L 243.180243 213.181822 
L 251.314713 215.15051 
L 259.44888 216.887494 
L 268.427229 218.570557 
L 278.310083 220.176164 
L 288.192633 221.561439 
L 300.5462 223.030176 
L 312.899767 224.253705 
L 327.724047 225.4587 
L 342.548327 226.429461 
L 359.843018 227.326237 
L 369.725568 227.716798 
L 369.725568 227.716798 
" style="fill:none;stroke:#0000ff;stroke-dasharray:5.55,2.4;stroke-dashoffset:0;stroke-width:1.5;"/>
   </g>
   <g id="line2d_16">
    <path clip-path="url(#pfecd0ae9cd)" d="M 65.361932 193.443833 
L 65.538953 193.411999 
L 65.746891 193.148665 
L 66.037885 192.431258 
L 66.531967 190.504394 
L 67.353416 186.140875 
L 69.696517 173.215683 
L 70.787741 168.639926 
L 71.78803 165.355206 
L 72.788318 162.820727 
L 73.788607 160.910993 
L 74.788896 159.514859 
L 75.789185 158.541455 
L 76.789474 157.91643 
L 77.668515 157.607472 
L 78.608181 157.484563 
L 79.729717 157.572973 
L 81.063435 157.951703 
L 82.366842 158.549108 
L 84.094613 159.607478 
L 86.064879 161.087991 
L 88.641381 163.318121 
L 92.521289 167.021413 
L 105.676602 179.872189 
L 110.223369 183.962453 
L 115.073255 188.040572 
L 119.620022 191.589609 
L 124.469907 195.087062 
L 129.62291 198.49016 
L 134.569187 201.469847 
L 139.549716 204.208548 
L 144.530548 206.698729 
L 149.027604 208.75353 
L 155.06177 211.241463 
L 161.09624 213.453819 
L 167.130406 215.413836 
L 173.164876 217.150839 
L 179.199346 218.688231 
L 185.998884 220.208089 
L 192.820854 221.535384 
L 201.916511 223.038174 
L 211.01247 224.2828 
L 220.108127 225.312065 
L 231.477773 226.351401 
L 243.180243 227.188442 
L 256.195213 227.904106 
L 270.897943 228.503858 
L 288.192633 229.001239 
L 310.429054 229.414282 
L 340.077614 229.721656 
L 369.725568 229.874489 
L 369.725568 229.874489 
" style="fill:none;stroke:#0000ff;stroke-dasharray:5.55,2.4;stroke-dashoffset:0;stroke-width:1.5;"/>
   </g>
   <g id="line2d_17"/>
   <g id="line2d_18"/>
   <g id="line2d_19"/>
   <g id="line2d_20"/>
   <g id="line2d_21"/>
   <g id="line2d_22"/>
   <g id="patch_3">
    <path d="M 50.14375 239.758125 
L 50.14375 22.318125 
" style="fill:none;stroke:#000000;stroke-linecap:square;stroke-linejoin:miter;stroke-width:0.8;"/>
   </g>
   <g id="patch_4">
    <path d="M 384.94375 239.758125 
L 384.94375 22.318125 
" style="fill:none;stroke:#000000;stroke-linecap:square;stroke-linejoin:miter;stroke-width:0.8;"/>
   </g>
   <g id="patch_5">
    <path d="M 50.14375 239.758125 
L 384.94375 239.758125 
" style="fill:none;stroke:#000000;stroke-linecap:square;stroke-linejoin:miter;stroke-width:0.8;"/>
   </g>
   <g id="patch_6">
    <path d="M 50.14375 22.318125 
L 384.94375 22.318125 
" style="fill:none;stroke:#000000;stroke-linecap:square;stroke-linejoin:miter;stroke-width:0.8;"/>
   </g>
   <g id="text_14">
    <!-- Experiment_15 -->
    <defs>
     <path d="M 9.8125 72.90625 
L 55.90625 72.90625 
L 55.90625 64.59375 
L 19.671875 64.59375 
L 19.671875 43.015625 
L 54.390625 43.015625 
L 54.390625 34.71875 
L 19.671875 34.71875 
L 19.671875 8.296875 
L 56.78125 8.296875 
L 56.78125 0 
L 9.8125 0 
z
" id="DejaVuSans-69"/>
     <path d="M 54.890625 54.6875 
L 35.109375 28.078125 
L 55.90625 0 
L 45.3125 0 
L 29.390625 21.484375 
L 13.484375 0 
L 2.875 0 
L 24.125 28.609375 
L 4.6875 54.6875 
L 15.28125 54.6875 
L 29.78125 35.203125 
L 44.28125 54.6875 
z
" id="DejaVuSans-120"/>
     <path d="M 18.109375 8.203125 
L 18.109375 -20.796875 
L 9.078125 -20.796875 
L 9.078125 54.6875 
L 18.109375 54.6875 
L 18.109375 46.390625 
Q 20.953125 51.265625 25.265625 53.625 
Q 29.59375 56 35.59375 56 
Q 45.5625 56 51.78125 48.09375 
Q 58.015625 40.1875 58.015625 27.296875 
Q 58.015625 14.40625 51.78125 6.484375 
Q 45.5625 -1.421875 35.59375 -1.421875 
Q 29.59375 -1.421875 25.265625 0.953125 
Q 20.953125 3.328125 18.109375 8.203125 
z
M 48.6875 27.296875 
Q 48.6875 37.203125 44.609375 42.84375 
Q 40.53125 48.484375 33.40625 48.484375 
Q 26.265625 48.484375 22.1875 42.84375 
Q 18.109375 37.203125 18.109375 27.296875 
Q 18.109375 17.390625 22.1875 11.75 
Q 26.265625 6.109375 33.40625 6.109375 
Q 40.53125 6.109375 44.609375 11.75 
Q 48.6875 17.390625 48.6875 27.296875 
z
" id="DejaVuSans-112"/>
     <path d="M 18.3125 70.21875 
L 18.3125 54.6875 
L 36.8125 54.6875 
L 36.8125 47.703125 
L 18.3125 47.703125 
L 18.3125 18.015625 
Q 18.3125 11.328125 20.140625 9.421875 
Q 21.96875 7.515625 27.59375 7.515625 
L 36.8125 7.515625 
L 36.8125 0 
L 27.59375 0 
Q 17.1875 0 13.234375 3.875 
Q 9.28125 7.765625 9.28125 18.015625 
L 9.28125 47.703125 
L 2.6875 47.703125 
L 2.6875 54.6875 
L 9.28125 54.6875 
L 9.28125 70.21875 
z
" id="DejaVuSans-116"/>
     <path d="M 50.984375 -16.609375 
L 50.984375 -23.578125 
L -0.984375 -23.578125 
L -0.984375 -16.609375 
z
" id="DejaVuSans-95"/>
    </defs>
    <g transform="translate(172.240938 16.318125)scale(0.12 -0.12)">
     <use xlink:href="#DejaVuSans-69"/>
     <use x="63.183594" xlink:href="#DejaVuSans-120"/>
     <use x="122.363281" xlink:href="#DejaVuSans-112"/>
     <use x="185.839844" xlink:href="#DejaVuSans-101"/>
     <use x="247.363281" xlink:href="#DejaVuSans-114"/>
     <use x="288.476562" xlink:href="#DejaVuSans-105"/>
     <use x="316.259766" xlink:href="#DejaVuSans-109"/>
     <use x="413.671875" xlink:href="#DejaVuSans-101"/>
     <use x="475.195312" xlink:href="#DejaVuSans-110"/>
     <use x="538.574219" xlink:href="#DejaVuSans-116"/>
     <use x="577.783203" xlink:href="#DejaVuSans-95"/>
     <use x="627.783203" xlink:href="#DejaVuSans-49"/>
     <use x="691.40625" xlink:href="#DejaVuSans-53"/>
    </g>
   </g>
   <g id="legend_1">
    <g id="patch_7">
     <path d="M 121.823438 103.730625 
L 377.94375 103.730625 
Q 379.94375 103.730625 379.94375 101.730625 
L 379.94375 29.318125 
Q 379.94375 27.318125 377.94375 27.318125 
L 121.823438 27.318125 
Q 119.823438 27.318125 119.823438 29.318125 
L 119.823438 101.730625 
Q 119.823438 103.730625 121.823438 103.730625 
z
" style="fill:#ffffff;opacity:0.8;stroke:#cccccc;stroke-linejoin:miter;"/>
    </g>
    <g id="line2d_23"/>
    <g id="line2d_24">
     <g>
      <use style="stroke:#000000;" x="133.823438" xlink:href="#m20d24fa919" y="35.416562"/>
     </g>
    </g>
    <g id="text_15">
     <!-- Experimental Data -->
     <defs>
      <path d="M 9.421875 75.984375 
L 18.40625 75.984375 
L 18.40625 0 
L 9.421875 0 
z
" id="DejaVuSans-108"/>
      <path d="M 19.671875 64.796875 
L 19.671875 8.109375 
L 31.59375 8.109375 
Q 46.6875 8.109375 53.6875 14.9375 
Q 60.6875 21.78125 60.6875 36.53125 
Q 60.6875 51.171875 53.6875 57.984375 
Q 46.6875 64.796875 31.59375 64.796875 
z
M 9.8125 72.90625 
L 30.078125 72.90625 
Q 51.265625 72.90625 61.171875 64.09375 
Q 71.09375 55.28125 71.09375 36.53125 
Q 71.09375 17.671875 61.125 8.828125 
Q 51.171875 0 30.078125 0 
L 9.8125 0 
z
" id="DejaVuSans-68"/>
     </defs>
     <g transform="translate(151.823438 38.916562)scale(0.1 -0.1)">
      <use xlink:href="#DejaVuSans-69"/>
      <use x="63.183594" xlink:href="#DejaVuSans-120"/>
      <use x="122.363281" xlink:href="#DejaVuSans-112"/>
      <use x="185.839844" xlink:href="#DejaVuSans-101"/>
      <use x="247.363281" xlink:href="#DejaVuSans-114"/>
      <use x="288.476562" xlink:href="#DejaVuSans-105"/>
      <use x="316.259766" xlink:href="#DejaVuSans-109"/>
      <use x="413.671875" xlink:href="#DejaVuSans-101"/>
      <use x="475.195312" xlink:href="#DejaVuSans-110"/>
      <use x="538.574219" xlink:href="#DejaVuSans-116"/>
      <use x="577.783203" xlink:href="#DejaVuSans-97"/>
      <use x="639.0625" xlink:href="#DejaVuSans-108"/>
      <use x="666.845703" xlink:href="#DejaVuSans-32"/>
      <use x="698.632812" xlink:href="#DejaVuSans-68"/>
      <use x="775.634766" xlink:href="#DejaVuSans-97"/>
      <use x="836.914062" xlink:href="#DejaVuSans-116"/>
      <use x="876.123047" xlink:href="#DejaVuSans-97"/>
     </g>
    </g>
    <g id="line2d_25">
     <path d="M 123.823438 50.094687 
L 143.823438 50.094687 
" style="fill:none;stroke:#0000ff;stroke-linecap:square;stroke-width:1.5;"/>
    </g>
    <g id="line2d_26"/>
    <g id="text_16">
     <!-- MSI -->
     <defs>
      <path d="M 9.8125 72.90625 
L 24.515625 72.90625 
L 43.109375 23.296875 
L 61.8125 72.90625 
L 76.515625 72.90625 
L 76.515625 0 
L 66.890625 0 
L 66.890625 64.015625 
L 48.09375 14.015625 
L 38.1875 14.015625 
L 19.390625 64.015625 
L 19.390625 0 
L 9.8125 0 
z
" id="DejaVuSans-77"/>
      <path d="M 53.515625 70.515625 
L 53.515625 60.890625 
Q 47.90625 63.578125 42.921875 64.890625 
Q 37.9375 66.21875 33.296875 66.21875 
Q 25.25 66.21875 20.875 63.09375 
Q 16.5 59.96875 16.5 54.203125 
Q 16.5 49.359375 19.40625 46.890625 
Q 22.3125 44.4375 30.421875 42.921875 
L 36.375 41.703125 
Q 47.40625 39.59375 52.65625 34.296875 
Q 57.90625 29 57.90625 20.125 
Q 57.90625 9.515625 50.796875 4.046875 
Q 43.703125 -1.421875 29.984375 -1.421875 
Q 24.8125 -1.421875 18.96875 -0.25 
Q 13.140625 0.921875 6.890625 3.21875 
L 6.890625 13.375 
Q 12.890625 10.015625 18.65625 8.296875 
Q 24.421875 6.59375 29.984375 6.59375 
Q 38.421875 6.59375 43.015625 9.90625 
Q 47.609375 13.234375 47.609375 19.390625 
Q 47.609375 24.75 44.3125 27.78125 
Q 41.015625 30.8125 33.5 32.328125 
L 27.484375 33.5 
Q 16.453125 35.6875 11.515625 40.375 
Q 6.59375 45.0625 6.59375 53.421875 
Q 6.59375 63.09375 13.40625 68.65625 
Q 20.21875 74.21875 32.171875 74.21875 
Q 37.3125 74.21875 42.625 73.28125 
Q 47.953125 72.359375 53.515625 70.515625 
z
" id="DejaVuSans-83"/>
      <path d="M 9.8125 72.90625 
L 19.671875 72.90625 
L 19.671875 0 
L 9.8125 0 
z
" id="DejaVuSans-73"/>
     </defs>
     <g transform="translate(151.823438 53.594687)scale(0.1 -0.1)">
      <use xlink:href="#DejaVuSans-77"/>
      <use x="86.279297" xlink:href="#DejaVuSans-83"/>
      <use x="149.755859" xlink:href="#DejaVuSans-73"/>
     </g>
    </g>
    <g id="line2d_27">
     <path d="M 123.823438 64.774375 
L 143.823438 64.774375 
" style="fill:none;stroke:#ff0000;stroke-linecap:square;stroke-width:1.5;"/>
    </g>
    <g id="line2d_28"/>
    <g id="text_17">
     <!-- $\it{A priori}$ model -->
     <defs>
      <path d="M 36.8125 72.90625 
L 48 72.90625 
L 61.53125 0 
L 51.21875 0 
L 48.1875 18.703125 
L 15.375 18.703125 
L 5.078125 0 
L -5.328125 0 
z
M 40.375 63.1875 
L 19.921875 26.90625 
L 46.6875 26.90625 
z
" id="DejaVuSans-Oblique-65"/>
      <path d="M 49.609375 33.6875 
Q 49.609375 40.875 46.484375 44.671875 
Q 43.359375 48.484375 37.5 48.484375 
Q 33.5 48.484375 29.859375 46.4375 
Q 26.21875 44.390625 23.390625 40.484375 
Q 20.609375 36.625 18.9375 31.15625 
Q 17.28125 25.6875 17.28125 20.3125 
Q 17.28125 13.484375 20.40625 9.796875 
Q 23.53125 6.109375 29.296875 6.109375 
Q 33.546875 6.109375 37.1875 8.109375 
Q 40.828125 10.109375 43.40625 13.921875 
Q 46.1875 17.921875 47.890625 23.34375 
Q 49.609375 28.765625 49.609375 33.6875 
z
M 21.78125 46.390625 
Q 25.390625 51.125 30.296875 53.5625 
Q 35.203125 56 41.21875 56 
Q 49.609375 56 54.25 50.5 
Q 58.890625 45.015625 58.890625 35.109375 
Q 58.890625 27 56 19.65625 
Q 53.125 12.3125 47.703125 6.5 
Q 44.09375 2.640625 39.546875 0.609375 
Q 35.015625 -1.421875 29.984375 -1.421875 
Q 24.171875 -1.421875 20.21875 1 
Q 16.265625 3.421875 14.3125 8.203125 
L 8.6875 -20.796875 
L -0.296875 -20.796875 
L 14.40625 54.6875 
L 23.390625 54.6875 
z
" id="DejaVuSans-Oblique-112"/>
      <path d="M 44.578125 46.390625 
Q 43.21875 47.125 41.453125 47.515625 
Q 39.703125 47.90625 37.703125 47.90625 
Q 30.515625 47.90625 25.140625 42.453125 
Q 19.78125 37.015625 18.015625 27.875 
L 12.5 0 
L 3.515625 0 
L 14.203125 54.6875 
L 23.1875 54.6875 
L 21.484375 46.1875 
Q 25.046875 50.921875 30 53.453125 
Q 34.96875 56 40.578125 56 
Q 42.046875 56 43.453125 55.828125 
Q 44.875 55.671875 46.296875 55.28125 
z
" id="DejaVuSans-Oblique-114"/>
      <path d="M 18.3125 75.984375 
L 27.296875 75.984375 
L 25.09375 64.59375 
L 16.109375 64.59375 
z
M 14.203125 54.6875 
L 23.1875 54.6875 
L 12.5 0 
L 3.515625 0 
z
" id="DejaVuSans-Oblique-105"/>
      <path d="M 25.390625 -1.421875 
Q 15.765625 -1.421875 10.171875 4.515625 
Q 4.59375 10.453125 4.59375 20.703125 
Q 4.59375 26.65625 6.515625 32.828125 
Q 8.453125 39.015625 11.53125 43.21875 
Q 16.359375 49.75 22.3125 52.875 
Q 28.265625 56 35.796875 56 
Q 45.125 56 50.859375 50.1875 
Q 56.59375 44.390625 56.59375 35.015625 
Q 56.59375 28.515625 54.6875 22.0625 
Q 52.78125 15.625 49.703125 11.375 
Q 44.921875 4.828125 38.96875 1.703125 
Q 33.015625 -1.421875 25.390625 -1.421875 
z
M 13.921875 21 
Q 13.921875 13.578125 17.015625 9.890625 
Q 20.125 6.203125 26.421875 6.203125 
Q 35.453125 6.203125 41.375 14.078125 
Q 47.3125 21.96875 47.3125 34.078125 
Q 47.3125 41.15625 44.140625 44.765625 
Q 40.96875 48.390625 34.8125 48.390625 
Q 29.734375 48.390625 25.78125 46.015625 
Q 21.828125 43.65625 18.703125 38.8125 
Q 16.40625 35.203125 15.15625 30.5625 
Q 13.921875 25.921875 13.921875 21 
z
" id="DejaVuSans-Oblique-111"/>
      <path d="M 45.40625 46.390625 
L 45.40625 75.984375 
L 54.390625 75.984375 
L 54.390625 0 
L 45.40625 0 
L 45.40625 8.203125 
Q 42.578125 3.328125 38.25 0.953125 
Q 33.9375 -1.421875 27.875 -1.421875 
Q 17.96875 -1.421875 11.734375 6.484375 
Q 5.515625 14.40625 5.515625 27.296875 
Q 5.515625 40.1875 11.734375 48.09375 
Q 17.96875 56 27.875 56 
Q 33.9375 56 38.25 53.625 
Q 42.578125 51.265625 45.40625 46.390625 
z
M 14.796875 27.296875 
Q 14.796875 17.390625 18.875 11.75 
Q 22.953125 6.109375 30.078125 6.109375 
Q 37.203125 6.109375 41.296875 11.75 
Q 45.40625 17.390625 45.40625 27.296875 
Q 45.40625 37.203125 41.296875 42.84375 
Q 37.203125 48.484375 30.078125 48.484375 
Q 22.953125 48.484375 18.875 42.84375 
Q 14.796875 37.203125 14.796875 27.296875 
z
" id="DejaVuSans-100"/>
     </defs>
     <g transform="translate(151.823438 68.274375)scale(0.1 -0.1)">
      <use transform="translate(0 0.015625)" xlink:href="#DejaVuSans-Oblique-65"/>
      <use transform="translate(68.408203 0.015625)" xlink:href="#DejaVuSans-Oblique-112"/>
      <use transform="translate(131.884766 0.015625)" xlink:href="#DejaVuSans-Oblique-114"/>
      <use transform="translate(172.998047 0.015625)" xlink:href="#DejaVuSans-Oblique-105"/>
      <use transform="translate(200.78125 0.015625)" xlink:href="#DejaVuSans-Oblique-111"/>
      <use transform="translate(261.962891 0.015625)" xlink:href="#DejaVuSans-Oblique-114"/>
      <use transform="translate(303.076172 0.015625)" xlink:href="#DejaVuSans-Oblique-105"/>
      <use transform="translate(330.859375 0.015625)" xlink:href="#DejaVuSans-32"/>
      <use transform="translate(362.646484 0.015625)" xlink:href="#DejaVuSans-109"/>
      <use transform="translate(460.058594 0.015625)" xlink:href="#DejaVuSans-111"/>
      <use transform="translate(521.240234 0.015625)" xlink:href="#DejaVuSans-100"/>
      <use transform="translate(584.716797 0.015625)" xlink:href="#DejaVuSans-101"/>
      <use transform="translate(646.240234 0.015625)" xlink:href="#DejaVuSans-108"/>
     </g>
    </g>
    <g id="line2d_29">
     <path d="M 123.823438 79.472813 
L 143.823438 79.472813 
" style="fill:none;stroke:#ffffff;stroke-linecap:square;stroke-width:1.5;"/>
    </g>
    <g id="line2d_30"/>
    <g id="text_18">
     <!-- T:1200 -->
     <defs>
      <path d="M 11.71875 12.40625 
L 22.015625 12.40625 
L 22.015625 0 
L 11.71875 0 
z
M 11.71875 51.703125 
L 22.015625 51.703125 
L 22.015625 39.3125 
L 11.71875 39.3125 
z
" id="DejaVuSans-58"/>
     </defs>
     <g transform="translate(151.823438 82.972813)scale(0.1 -0.1)">
      <use xlink:href="#DejaVuSans-84"/>
      <use x="60.912109" xlink:href="#DejaVuSans-58"/>
      <use x="94.603516" xlink:href="#DejaVuSans-49"/>
      <use x="158.226562" xlink:href="#DejaVuSans-50"/>
      <use x="221.849609" xlink:href="#DejaVuSans-48"/>
      <use x="285.472656" xlink:href="#DejaVuSans-48"/>
     </g>
    </g>
    <g id="line2d_31">
     <path d="M 123.823438 94.150937 
L 143.823438 94.150937 
" style="fill:none;stroke:#ffffff;stroke-linecap:square;stroke-width:1.5;"/>
    </g>
    <g id="line2d_32"/>
    <g id="text_19">
     <!-- P:1.641 -->
     <defs>
      <path d="M 19.671875 64.796875 
L 19.671875 37.40625 
L 32.078125 37.40625 
Q 38.96875 37.40625 42.71875 40.96875 
Q 46.484375 44.53125 46.484375 51.125 
Q 46.484375 57.671875 42.71875 61.234375 
Q 38.96875 64.796875 32.078125 64.796875 
z
M 9.8125 72.90625 
L 32.078125 72.90625 
Q 44.34375 72.90625 50.609375 67.359375 
Q 56.890625 61.8125 56.890625 51.125 
Q 56.890625 40.328125 50.609375 34.8125 
Q 44.34375 29.296875 32.078125 29.296875 
L 19.671875 29.296875 
L 19.671875 0 
L 9.8125 0 
z
" id="DejaVuSans-80"/>
     </defs>
     <g transform="translate(151.823438 97.650937)scale(0.1 -0.1)">
      <use xlink:href="#DejaVuSans-80"/>
      <use x="60.302734" xlink:href="#DejaVuSans-58"/>
      <use x="93.994141" xlink:href="#DejaVuSans-49"/>
      <use x="157.617188" xlink:href="#DejaVuSans-46"/>
      <use x="189.404297" xlink:href="#DejaVuSans-54"/>
      <use x="253.027344" xlink:href="#DejaVuSans-52"/>
      <use x="316.650391" xlink:href="#DejaVuSans-49"/>
     </g>
    </g>
    <g id="line2d_33">
     <path d="M 265.564063 35.416562 
L 285.564063 35.416562 
" style="fill:none;stroke:#ffffff;stroke-linecap:square;stroke-width:1.5;"/>
    </g>
    <g id="line2d_34"/>
    <g id="text_20">
     <!-- H2O2: 0.002323 -->
     <defs>
      <path d="M 9.8125 72.90625 
L 19.671875 72.90625 
L 19.671875 43.015625 
L 55.515625 43.015625 
L 55.515625 72.90625 
L 65.375 72.90625 
L 65.375 0 
L 55.515625 0 
L 55.515625 34.71875 
L 19.671875 34.71875 
L 19.671875 0 
L 9.8125 0 
z
" id="DejaVuSans-72"/>
      <path d="M 39.40625 66.21875 
Q 28.65625 66.21875 22.328125 58.203125 
Q 16.015625 50.203125 16.015625 36.375 
Q 16.015625 22.609375 22.328125 14.59375 
Q 28.65625 6.59375 39.40625 6.59375 
Q 50.140625 6.59375 56.421875 14.59375 
Q 62.703125 22.609375 62.703125 36.375 
Q 62.703125 50.203125 56.421875 58.203125 
Q 50.140625 66.21875 39.40625 66.21875 
z
M 39.40625 74.21875 
Q 54.734375 74.21875 63.90625 63.9375 
Q 73.09375 53.65625 73.09375 36.375 
Q 73.09375 19.140625 63.90625 8.859375 
Q 54.734375 -1.421875 39.40625 -1.421875 
Q 24.03125 -1.421875 14.8125 8.828125 
Q 5.609375 19.09375 5.609375 36.375 
Q 5.609375 53.65625 14.8125 63.9375 
Q 24.03125 74.21875 39.40625 74.21875 
z
" id="DejaVuSans-79"/>
      <path d="M 40.578125 39.3125 
Q 47.65625 37.796875 51.625 33 
Q 55.609375 28.21875 55.609375 21.1875 
Q 55.609375 10.40625 48.1875 4.484375 
Q 40.765625 -1.421875 27.09375 -1.421875 
Q 22.515625 -1.421875 17.65625 -0.515625 
Q 12.796875 0.390625 7.625 2.203125 
L 7.625 11.71875 
Q 11.71875 9.328125 16.59375 8.109375 
Q 21.484375 6.890625 26.8125 6.890625 
Q 36.078125 6.890625 40.9375 10.546875 
Q 45.796875 14.203125 45.796875 21.1875 
Q 45.796875 27.640625 41.28125 31.265625 
Q 36.765625 34.90625 28.71875 34.90625 
L 20.21875 34.90625 
L 20.21875 43.015625 
L 29.109375 43.015625 
Q 36.375 43.015625 40.234375 45.921875 
Q 44.09375 48.828125 44.09375 54.296875 
Q 44.09375 59.90625 40.109375 62.90625 
Q 36.140625 65.921875 28.71875 65.921875 
Q 24.65625 65.921875 20.015625 65.03125 
Q 15.375 64.15625 9.8125 62.3125 
L 9.8125 71.09375 
Q 15.4375 72.65625 20.34375 73.4375 
Q 25.25 74.21875 29.59375 74.21875 
Q 40.828125 74.21875 47.359375 69.109375 
Q 53.90625 64.015625 53.90625 55.328125 
Q 53.90625 49.265625 50.4375 45.09375 
Q 46.96875 40.921875 40.578125 39.3125 
z
" id="DejaVuSans-51"/>
     </defs>
     <g transform="translate(293.564063 38.916562)scale(0.1 -0.1)">
      <use xlink:href="#DejaVuSans-72"/>
      <use x="75.195312" xlink:href="#DejaVuSans-50"/>
      <use x="138.818359" xlink:href="#DejaVuSans-79"/>
      <use x="217.529297" xlink:href="#DejaVuSans-50"/>
      <use x="281.152344" xlink:href="#DejaVuSans-58"/>
      <use x="314.84375" xlink:href="#DejaVuSans-32"/>
      <use x="346.630859" xlink:href="#DejaVuSans-48"/>
      <use x="410.253906" xlink:href="#DejaVuSans-46"/>
      <use x="442.041016" xlink:href="#DejaVuSans-48"/>
      <use x="505.664062" xlink:href="#DejaVuSans-48"/>
      <use x="569.287109" xlink:href="#DejaVuSans-50"/>
      <use x="632.910156" xlink:href="#DejaVuSans-51"/>
      <use x="696.533203" xlink:href="#DejaVuSans-50"/>
      <use x="760.15625" xlink:href="#DejaVuSans-51"/>
     </g>
    </g>
    <g id="line2d_35">
     <path d="M 265.564063 50.094687 
L 285.564063 50.094687 
" style="fill:none;stroke:#ffffff;stroke-linecap:square;stroke-width:1.5;"/>
    </g>
    <g id="line2d_36"/>
    <g id="text_21">
     <!-- H2O: 0.001113 -->
     <g transform="translate(293.564063 53.594687)scale(0.1 -0.1)">
      <use xlink:href="#DejaVuSans-72"/>
      <use x="75.195312" xlink:href="#DejaVuSans-50"/>
      <use x="138.818359" xlink:href="#DejaVuSans-79"/>
      <use x="217.513672" xlink:href="#DejaVuSans-58"/>
      <use x="251.205078" xlink:href="#DejaVuSans-32"/>
      <use x="282.992188" xlink:href="#DejaVuSans-48"/>
      <use x="346.615234" xlink:href="#DejaVuSans-46"/>
      <use x="378.402344" xlink:href="#DejaVuSans-48"/>
      <use x="442.025391" xlink:href="#DejaVuSans-48"/>
      <use x="505.648438" xlink:href="#DejaVuSans-49"/>
      <use x="569.271484" xlink:href="#DejaVuSans-49"/>
      <use x="632.894531" xlink:href="#DejaVuSans-49"/>
      <use x="696.517578" xlink:href="#DejaVuSans-51"/>
     </g>
    </g>
    <g id="line2d_37">
     <path d="M 265.564063 64.772812 
L 285.564063 64.772812 
" style="fill:none;stroke:#ffffff;stroke-linecap:square;stroke-width:1.5;"/>
    </g>
    <g id="line2d_38"/>
    <g id="text_22">
     <!-- O2: 0.000556 -->
     <g transform="translate(293.564063 68.272812)scale(0.1 -0.1)">
      <use xlink:href="#DejaVuSans-79"/>
      <use x="78.710938" xlink:href="#DejaVuSans-50"/>
      <use x="142.333984" xlink:href="#DejaVuSans-58"/>
      <use x="176.025391" xlink:href="#DejaVuSans-32"/>
      <use x="207.8125" xlink:href="#DejaVuSans-48"/>
      <use x="271.435547" xlink:href="#DejaVuSans-46"/>
      <use x="303.222656" xlink:href="#DejaVuSans-48"/>
      <use x="366.845703" xlink:href="#DejaVuSans-48"/>
      <use x="430.46875" xlink:href="#DejaVuSans-48"/>
      <use x="494.091797" xlink:href="#DejaVuSans-53"/>
      <use x="557.714844" xlink:href="#DejaVuSans-53"/>
      <use x="621.337891" xlink:href="#DejaVuSans-54"/>
     </g>
    </g>
    <g id="line2d_39">
     <path d="M 265.564063 79.450938 
L 285.564063 79.450938 
" style="fill:none;stroke:#ffffff;stroke-linecap:square;stroke-width:1.5;"/>
    </g>
    <g id="line2d_40"/>
    <g id="text_23">
     <!-- Ar: 0.995983 -->
     <defs>
      <path d="M 10.984375 1.515625 
L 10.984375 10.5 
Q 14.703125 8.734375 18.5 7.8125 
Q 22.3125 6.890625 25.984375 6.890625 
Q 35.75 6.890625 40.890625 13.453125 
Q 46.046875 20.015625 46.78125 33.40625 
Q 43.953125 29.203125 39.59375 26.953125 
Q 35.25 24.703125 29.984375 24.703125 
Q 19.046875 24.703125 12.671875 31.3125 
Q 6.296875 37.9375 6.296875 49.421875 
Q 6.296875 60.640625 12.9375 67.421875 
Q 19.578125 74.21875 30.609375 74.21875 
Q 43.265625 74.21875 49.921875 64.515625 
Q 56.59375 54.828125 56.59375 36.375 
Q 56.59375 19.140625 48.40625 8.859375 
Q 40.234375 -1.421875 26.421875 -1.421875 
Q 22.703125 -1.421875 18.890625 -0.6875 
Q 15.09375 0.046875 10.984375 1.515625 
z
M 30.609375 32.421875 
Q 37.25 32.421875 41.125 36.953125 
Q 45.015625 41.5 45.015625 49.421875 
Q 45.015625 57.28125 41.125 61.84375 
Q 37.25 66.40625 30.609375 66.40625 
Q 23.96875 66.40625 20.09375 61.84375 
Q 16.21875 57.28125 16.21875 49.421875 
Q 16.21875 41.5 20.09375 36.953125 
Q 23.96875 32.421875 30.609375 32.421875 
z
" id="DejaVuSans-57"/>
     </defs>
     <g transform="translate(293.564063 82.950938)scale(0.1 -0.1)">
      <use xlink:href="#DejaVuSans-65"/>
      <use x="68.408203" xlink:href="#DejaVuSans-114"/>
      <use x="109.505859" xlink:href="#DejaVuSans-58"/>
      <use x="143.197266" xlink:href="#DejaVuSans-32"/>
      <use x="174.984375" xlink:href="#DejaVuSans-48"/>
      <use x="238.607422" xlink:href="#DejaVuSans-46"/>
      <use x="270.394531" xlink:href="#DejaVuSans-57"/>
      <use x="334.017578" xlink:href="#DejaVuSans-57"/>
      <use x="397.640625" xlink:href="#DejaVuSans-53"/>
      <use x="461.263672" xlink:href="#DejaVuSans-57"/>
      <use x="524.886719" xlink:href="#DejaVuSans-56"/>
      <use x="588.509766" xlink:href="#DejaVuSans-51"/>
     </g>
    </g>
   </g>
  </g>
 </g>
 <defs>
  <clipPath id="pfecd0ae9cd">
   <rect height="217.44" width="334.8" x="50.14375" y="22.318125"/>
  </clipPath>
 </defs>
</svg>
