<?xml version="1.0" encoding="UTF-8" standalone="no"?>
<svg
   xmlns:dc="http://purl.org/dc/elements/1.1/"
   xmlns:cc="http://creativecommons.org/ns#"
   xmlns:rdf="http://www.w3.org/1999/02/22-rdf-syntax-ns#"
   xmlns:svg="http://www.w3.org/2000/svg"
   xmlns="http://www.w3.org/2000/svg"
   xmlns:xlink="http://www.w3.org/1999/xlink"
   id="svg2754"
   width="395.478125pt"
   viewBox="0 0 395.478125 277.314375"
   version="1.1"
   height="277.314375pt">
  <metadata
     id="metadata2758">
    <rdf:RDF>
      <cc:Work
         rdf:about="">
        <dc:format>image/svg+xml</dc:format>
        <dc:type
           rdf:resource="http://purl.org/dc/dcmitype/StillImage" />
        <dc:title></dc:title>
      </cc:Work>
    </rdf:RDF>
  </metadata>
  <defs
     id="defs2072">
    <style
       id="style2070"
       type="text/css">
*{stroke-linecap:butt;stroke-linejoin:round;}
  </style>
    <clipPath
       id="pb3973cdf16">
      <rect
         id="rect4203"
         y="22.318125"
         x="49.978127"
         width="334.79999"
         height="217.44" />
    </clipPath>
    <clipPath
       id="clipPath4769">
      <rect
         id="rect4767"
         y="22.318125"
         x="49.978127"
         width="334.79999"
         height="217.44" />
    </clipPath>
    <clipPath
       id="clipPath4773">
      <rect
         id="rect4771"
         y="22.318125"
         x="49.978127"
         width="334.79999"
         height="217.44" />
    </clipPath>
    <clipPath
       id="clipPath4777">
      <rect
         id="rect4775"
         y="22.318125"
         x="49.978127"
         width="334.79999"
         height="217.44" />
    </clipPath>
    <clipPath
       id="clipPath4781">
      <rect
         id="rect4779"
         y="22.318125"
         x="49.978127"
         width="334.79999"
         height="217.44" />
    </clipPath>
    <clipPath
       id="clipPath4785">
      <rect
         id="rect4783"
         y="22.318125"
         x="49.978127"
         width="334.79999"
         height="217.44" />
    </clipPath>
    <clipPath
       id="clipPath4789">
      <rect
         id="rect4787"
         y="22.318125"
         x="49.978127"
         width="334.79999"
         height="217.44" />
    </clipPath>
    <path
       style="stroke:#000000;stroke-width:0.80000001"
       id="m13d985a289"
       d="M 0,0 V 3.5" />
    <path
       id="DejaVuSans-53-9"
       d="m 10.796875,72.90625 h 38.71875 v -8.3125 h -29.6875 V 46.734375 q 2.140625,0.734375 4.28125,1.09375 2.15625,0.359375 4.3125,0.359375 Q 40.625,48.1875 47.75,41.5 54.890625,34.8125 54.890625,23.390625 54.890625,11.625 47.5625,5.09375 40.234375,-1.421875 26.90625,-1.421875 q -4.59375,0 -9.359375,0.78125 -4.75,0.78125 -9.828125,2.34375 V 11.625 q 4.390625,-2.390625 9.078125,-3.5625 4.6875,-1.171875 9.90625,-1.171875 8.453125,0 13.375,4.4375 4.9375,4.4375 4.9375,12.0625 0,7.609375 -4.9375,12.046875 -4.921875,4.453125 -13.375,4.453125 -3.953125,0 -7.890625,-0.875 -3.921875,-0.875 -8.015625,-2.734375 z" />
    <path
       id="DejaVuSans-48-1"
       d="m 31.78125,66.40625 q -7.609375,0 -11.453125,-7.5 Q 16.5,51.421875 16.5,36.375 q 0,-14.984375 3.828125,-22.484375 3.84375,-7.5 11.453125,-7.5 7.671875,0 11.5,7.5 3.84375,7.5 3.84375,22.484375 0,15.046875 -3.84375,22.53125 -3.828125,7.5 -11.5,7.5 z m 0,7.8125 q 12.265625,0 18.734375,-9.703125 6.46875,-9.6875 6.46875,-28.140625 0,-18.40625 -6.46875,-28.109375 -6.46875,-9.6875 -18.734375,-9.6875 -12.25,0 -18.71875,9.6875 Q 6.59375,17.96875 6.59375,36.375 q 0,18.453125 6.46875,28.140625 6.46875,9.703125 18.71875,9.703125 z" />
    <path
       id="DejaVuSans-49-9"
       d="m 12.40625,8.296875 h 16.109375 v 55.625 L 10.984375,60.40625 v 8.984375 l 17.4375,3.515625 H 38.28125 V 8.296875 H 54.390625 V 0 H 12.40625 Z" />
    <path
       id="DejaVuSans-50-1"
       d="M 19.1875,8.296875 H 53.609375 V 0 H 7.328125 v 8.296875 q 5.609375,5.8125 15.296875,15.59375 9.703125,9.796875 12.1875,12.640625 4.734375,5.3125 6.609375,9 1.890625,3.6875 1.890625,7.25 0,5.8125 -4.078125,9.46875 -4.078125,3.671875 -10.625,3.671875 -4.640625,0 -9.796875,-1.609375 -5.140625,-1.609375 -11,-4.890625 v 9.96875 Q 13.765625,71.78125 18.9375,73 q 5.1875,1.21875 9.484375,1.21875 11.328125,0 18.0625,-5.671875 6.734375,-5.65625 6.734375,-15.125 0,-4.5 -1.6875,-8.53125 Q 49.859375,40.875 45.40625,35.40625 44.1875,33.984375 37.640625,27.21875 31.109375,20.453125 19.1875,8.296875 Z" />
    <path
       id="DejaVuSans-84-0"
       d="M -0.296875,72.90625 H 61.375 v -8.3125 H 35.5 V 0 H 25.59375 V 64.59375 H -0.296875 Z" />
    <path
       id="DejaVuSans-101-2"
       d="m 56.203125,29.59375 v -4.390625 h -41.3125 q 0.59375,-9.28125 5.59375,-14.140625 5,-4.859375 13.9375,-4.859375 5.171875,0 10.03125,1.265625 4.859375,1.265625 9.65625,3.8125 v -8.5 q -4.84375,-2.046875 -9.921875,-3.125 -5.078125,-1.078125 -10.296875,-1.078125 -13.09375,0 -20.734375,7.609375 -7.640625,7.625 -7.640625,20.625 0,13.421875 7.25,21.296875 Q 20.015625,56 32.328125,56 q 11.03125,0 17.453125,-7.109375 6.421875,-7.09375 6.421875,-19.296875 z m -8.984375,2.640625 q -0.09375,7.359375 -4.125,11.75 -4.03125,4.40625 -10.671875,4.40625 -7.515625,0 -12.03125,-4.25 -4.515625,-4.25 -5.203125,-11.96875 z" />
    <path
       id="DejaVuSans-109-3"
       d="M 52,44.1875 Q 55.375,50.25 60.0625,53.125 64.75,56 71.09375,56 q 8.546875,0 13.1875,-5.984375 4.640625,-5.96875 4.640625,-17 V 0 h -9.03125 v 32.71875 q 0,7.859375 -2.796875,11.65625 -2.78125,3.8125 -8.484375,3.8125 -6.984375,0 -11.046875,-4.640625 -4.046875,-4.625 -4.046875,-12.640625 V 0 h -9.03125 v 32.71875 q 0,7.90625 -2.78125,11.6875 -2.78125,3.78125 -8.59375,3.78125 -6.890625,0 -10.953125,-4.65625 -4.046875,-4.65625 -4.046875,-12.625 V 0 h -9.03125 v 54.6875 h 9.03125 v -8.5 q 3.078125,5.03125 7.375,7.421875 Q 29.78125,56 35.6875,56 41.65625,56 45.828125,52.96875 50,49.953125 52,44.1875 Z" />
    <path
       id="DejaVuSans-112-7"
       d="m 18.109375,8.203125 v -29 H 9.078125 V 54.6875 h 9.03125 v -8.296875 q 2.84375,4.875 7.15625,7.234375 Q 29.59375,56 35.59375,56 q 9.96875,0 16.1875,-7.90625 6.234375,-7.90625 6.234375,-20.796875 0,-12.890625 -6.234375,-20.8125 -6.21875,-7.90625 -16.1875,-7.90625 -6,0 -10.328125,2.375 -4.3125,2.375 -7.15625,7.25 z M 48.6875,27.296875 q 0,9.90625 -4.078125,15.546875 -4.078125,5.640625 -11.203125,5.640625 -7.140625,0 -11.21875,-5.640625 -4.078125,-5.640625 -4.078125,-15.546875 0,-9.90625 4.078125,-15.546875 4.078125,-5.640625 11.21875,-5.640625 7.125,0 11.203125,5.640625 4.078125,5.640625 4.078125,15.546875 z" />
    <path
       id="DejaVuSans-114-5"
       d="m 41.109375,46.296875 q -1.515625,0.875 -3.296875,1.28125 Q 36.03125,48 33.890625,48 26.265625,48 22.1875,43.046875 18.109375,38.09375 18.109375,28.8125 V 0 h -9.03125 v 54.6875 h 9.03125 v -8.5 q 2.84375,4.984375 7.375,7.390625 Q 30.03125,56 36.53125,56 q 0.921875,0 2.046875,-0.125 1.125,-0.109375 2.484375,-0.359375 z" />
    <path
       id="DejaVuSans-97-9"
       d="m 34.28125,27.484375 q -10.890625,0 -15.09375,-2.484375 -4.203125,-2.484375 -4.203125,-8.5 0,-4.78125 3.15625,-7.59375 3.15625,-2.796875 8.5625,-2.796875 7.484375,0 12,5.296875 4.515625,5.296875 4.515625,14.078125 v 2 z m 17.921875,3.71875 V 0 H 43.21875 v 8.296875 q -3.078125,-4.96875 -7.671875,-7.34375 -4.59375,-2.375 -11.234375,-2.375 -8.390625,0 -13.359375,4.71875 Q 6,8.015625 6,15.921875 q 0,9.21875 6.171875,13.90625 6.1875,4.6875 18.4375,4.6875 H 43.21875 v 0.890625 q 0,6.203125 -4.078125,9.59375 -4.078125,3.390625 -11.453125,3.390625 -4.6875,0 -9.140625,-1.125 -4.4375,-1.125 -8.53125,-3.375 v 8.3125 q 4.921875,1.90625 9.5625,2.84375 Q 24.21875,56 28.609375,56 q 11.875,0 17.734375,-6.15625 5.859375,-6.140625 5.859375,-18.640625 z" />
    <path
       id="DejaVuSans-116-2"
       d="M 18.3125,70.21875 V 54.6875 h 18.5 v -6.984375 h -18.5 v -29.6875 q 0,-6.6875 1.828125,-8.59375 1.828125,-1.90625 7.453125,-1.90625 H 36.8125 V 0 H 27.59375 Q 17.1875,0 13.234375,3.875 9.28125,7.765625 9.28125,18.015625 v 29.6875 H 2.6875 V 54.6875 h 6.59375 v 15.53125 z" />
    <path
       id="DejaVuSans-117-2"
       d="M 8.5,21.578125 V 54.6875 h 8.984375 V 21.921875 q 0,-7.765625 3.015625,-11.65625 3.03125,-3.875 9.09375,-3.875 7.265625,0 11.484375,4.640625 4.234375,4.640625 4.234375,12.65625 v 31 h 8.984375 V 0 H 45.3125 V 8.40625 Q 42.046875,3.421875 37.71875,1 33.40625,-1.421875 27.6875,-1.421875 18.265625,-1.421875 13.375,4.4375 8.5,10.296875 8.5,21.578125 Z M 31.109375,56 Z" />
    <path
       id="DejaVuSans-32-8"
       d="" />
    <path
       id="DejaVuSans-40-9"
       d="M 31,75.875 Q 24.46875,64.65625 21.28125,53.65625 18.109375,42.671875 18.109375,31.390625 18.109375,20.125 21.3125,9.0625 24.515625,-2 31,-13.1875 H 23.1875 Q 15.875,-1.703125 12.234375,9.375 8.59375,20.453125 8.59375,31.390625 q 0,10.890625 3.609375,21.921875 3.625,11.046875 10.984375,22.5625 z" />
    <path
       id="DejaVuSans-75-7"
       d="m 9.8125,72.90625 h 9.859375 v -30.8125 l 32.71875,30.8125 H 65.09375 L 28.90625,38.921875 67.671875,0 H 54.6875 L 19.671875,35.109375 V 0 H 9.8125 Z" />
    <path
       id="DejaVuSans-41-3"
       d="m 8.015625,75.875 h 7.8125 q 7.3125,-11.515625 10.953125,-22.5625 3.640625,-11.03125 3.640625,-21.921875 0,-10.9375 -3.640625,-22.015625 -3.640625,-11.078125 -10.953125,-22.5625 h -7.8125 Q 14.5,-2 17.703125,9.0625 20.90625,20.125 20.90625,31.390625 q 0,11.28125 -3.203125,22.265625 -3.203125,11 -9.6875,22.21875 z" />
    <path
       style="stroke:#000000;stroke-width:0.80000001"
       id="m72c730da5e"
       d="M 0,0 H -3.5" />
    <path
       id="DejaVuSans-51-4"
       d="M 40.578125,39.3125 Q 47.65625,37.796875 51.625,33 q 3.984375,-4.78125 3.984375,-11.8125 0,-10.78125 -7.421875,-16.703125 -7.421875,-5.90625 -21.09375,-5.90625 -4.578125,0 -9.4375,0.90625 -4.859375,0.90625 -10.03125,2.71875 v 9.515625 q 4.09375,-2.390625 8.96875,-3.609375 4.890625,-1.21875 10.21875,-1.21875 9.265625,0 14.125,3.65625 4.859375,3.65625 4.859375,10.640625 0,6.453125 -4.515625,10.078125 -4.515625,3.640625 -12.5625,3.640625 h -8.5 v 8.109375 h 8.890625 q 7.265625,0 11.125,2.90625 3.859375,2.90625 3.859375,8.375 0,5.609375 -3.984375,8.609375 -3.96875,3.015625 -11.390625,3.015625 -4.0625,0 -8.703125,-0.890625 Q 15.375,64.15625 9.8125,62.3125 v 8.78125 q 5.625,1.5625 10.53125,2.34375 4.90625,0.78125 9.25,0.78125 11.234375,0 17.765625,-5.109375 6.546875,-5.09375 6.546875,-13.78125 0,-6.0625 -3.46875,-10.234375 -3.46875,-4.171875 -9.859375,-5.78125 z" />
    <path
       id="DejaVuSans-52-6"
       d="M 37.796875,64.3125 12.890625,25.390625 h 24.90625 z m -2.59375,8.59375 h 12.40625 V 25.390625 h 10.40625 V 17.1875 H 47.609375 V 0 h -9.8125 V 17.1875 H 4.890625 v 9.515625 z" />
    <path
       style="stroke:#000000;stroke-width:0.60000002"
       id="m168c50297c"
       d="M 0,0 H -2" />
    <path
       id="DejaVuSans-111-5"
       d="m 30.609375,48.390625 q -7.21875,0 -11.421875,-5.640625 -4.203125,-5.640625 -4.203125,-15.453125 0,-9.8125 4.171875,-15.453125 4.1875,-5.640625 11.453125,-5.640625 7.1875,0 11.375,5.65625 4.203125,5.671875 4.203125,15.4375 0,9.71875 -4.203125,15.40625 -4.1875,5.6875 -11.375,5.6875 z m 0,7.609375 q 11.71875,0 18.40625,-7.625 6.703125,-7.609375 6.703125,-21.078125 0,-13.421875 -6.703125,-21.078125 -6.6875,-7.640625 -18.40625,-7.640625 -11.765625,0 -18.4375,7.640625 -6.65625,7.65625 -6.65625,21.078125 0,13.46875 6.65625,21.078125 Q 18.84375,56 30.609375,56 Z" />
    <path
       id="DejaVuSans-108-9"
       d="M 9.421875,75.984375 H 18.40625 V 0 H 9.421875 Z" />
    <path
       id="DejaVuSans-47-4"
       d="M 25.390625,72.90625 H 33.6875 L 8.296875,-9.28125 H 0 Z" />
    <path
       id="DejaVuSans-94-9"
       d="m 46.6875,72.90625 26.5,-27.203125 H 63.375 L 41.890625,64.984375 20.40625,45.703125 h -9.8125 L 37.109375,72.90625 Z" />
    <path
       id="DejaVuSans-45-0"
       d="m 4.890625,31.390625 h 26.3125 v -8 h -26.3125 z" />
    <path
       id="DejaVuSans-115-9"
       d="m 44.28125,53.078125 v -8.5 Q 40.484375,46.53125 36.375,47.5 q -4.09375,0.984375 -8.5,0.984375 -6.6875,0 -10.03125,-2.046875 Q 14.5,44.390625 14.5,40.28125 q 0,-3.125 2.390625,-4.90625 2.390625,-1.78125 9.625,-3.390625 l 3.078125,-0.6875 Q 39.15625,29.25 43.1875,25.515625 47.21875,21.78125 47.21875,15.09375 q 0,-7.625 -6.03125,-12.078125 -6.03125,-4.4375 -16.578125,-4.4375 -4.390625,0 -9.15625,0.859375 Q 10.6875,0.296875 5.421875,2 v 9.28125 q 4.984375,-2.59375 9.8125,-3.890625 4.828125,-1.28125 9.578125,-1.28125 6.34375,0 9.75,2.171875 3.421875,2.171875 3.421875,6.125 0,3.65625 -2.46875,5.609375 -2.453125,1.953125 -10.8125,3.765625 l -3.125,0.734375 q -8.34375,1.75 -12.0625,5.390625 -3.703125,3.640625 -3.703125,9.984375 0,7.71875 5.46875,11.90625 Q 16.75,56 26.8125,56 q 4.96875,0 9.359375,-0.734375 4.40625,-0.71875 8.109375,-2.1875 z" />
    <path
       style="stroke:#000000"
       id="m331c0fbe8a"
       d="M 0,3 C 0.795609,3 1.55874,2.683901 2.12132,2.12132 2.683901,1.55874 3,0.795609 3,0 3,-0.795609 2.683901,-1.55874 2.12132,-2.12132 1.55874,-2.683901 0.795609,-3 0,-3 -0.795609,-3 -1.55874,-2.683901 -2.12132,-2.12132 -2.683901,-1.55874 -3,-0.795609 -3,0 -3,0.795609 -2.683901,1.55874 -2.12132,2.12132 -1.55874,2.683901 -0.795609,3 0,3 Z" />
    <path
       id="DejaVuSans-72-6"
       d="m 9.8125,72.90625 h 9.859375 V 43.015625 h 35.84375 V 72.90625 H 65.375 V 0 H 55.515625 V 34.71875 H 19.671875 V 0 H 9.8125 Z" />
    <path
       id="DejaVuSans-79-7"
       d="m 39.40625,66.21875 q -10.75,0 -17.078125,-8.015625 -6.3125,-8 -6.3125,-21.828125 0,-13.765625 6.3125,-21.78125 6.328125,-8 17.078125,-8 10.734375,0 17.015625,8 6.28125,8.015625 6.28125,21.78125 0,13.828125 -6.28125,21.828125 -6.28125,8.015625 -17.015625,8.015625 z m 0,8 q 15.328125,0 24.5,-10.28125 9.1875,-10.28125 9.1875,-27.5625 0,-17.234375 -9.1875,-27.515625 -9.171875,-10.28125 -24.5,-10.28125 -15.375,0 -24.59375,10.25 Q 5.609375,19.09375 5.609375,36.375 q 0,17.28125 9.203125,27.5625 9.21875,10.28125 24.59375,10.28125 z" />
    <path
       id="DejaVuSans-60-3"
       d="M 73.1875,49.21875 22.796875,31.296875 73.1875,13.484375 V 4.59375 L 10.59375,27.296875 V 35.40625 L 73.1875,58.109375 Z" />
    <path
       id="DejaVuSans-61-6"
       d="M 10.59375,45.40625 H 73.1875 V 37.203125 H 10.59375 Z m 0,-19.921875 H 73.1875 V 17.1875 H 10.59375 Z" />
    <path
       id="DejaVuSans-62-5"
       d="m 10.59375,49.21875 v 8.890625 L 73.1875,35.40625 V 27.296875 L 10.59375,4.59375 v 8.890625 l 50.296875,17.8125 z" />
    <path
       id="DejaVuSans-43-6"
       d="M 46,62.703125 V 35.5 H 73.1875 V 27.203125 H 46 V 0 H 37.796875 V 27.203125 H 10.59375 V 35.5 h 27.203125 v 27.203125 z" />
  </defs>
  <g
     id="figure_1">
    <g
       id="patch_1">
      <path
         id="path2074"
         style="fill:#ffffff;"
         d="M 0 277.314375  L 395.478125 277.314375  L 395.478125 0  L 0 0  z " />
    </g>
    <g
       id="axes_1">
      <g
         id="patch_2">
        <path
           id="path2077"
           style="fill:#ffffff;"
           d="M 49.978125 239.758125  L 384.778125 239.758125  L 384.778125 22.318125  L 49.978125 22.318125  z " />
      </g>
      <g
         id="matplotlib.axis_1">
        <g
           id="xtick_1">
          <g
             id="line2d_1">
            <defs
               id="defs2081">
              <path
                 style="stroke:#000000;stroke-width:0.8;"
                 id="m896a5084b8"
                 d="M 0 0  L 0 3.5  " />
            </defs>
            <g
               id="g2085">
              <use
                 id="use2083"
                 y="239.758125"
                 xlink:href="#m896a5084b8"
                 x="104.895912"
                 style="stroke:#000000;stroke-width:0.8;" />
            </g>
          </g>
          <g
             id="text_1">
            <!-- 500 -->
            <defs
               id="defs2090">
              <path
                 id="DejaVuSans-53"
                 d="M 10.796875 72.90625  L 49.515625 72.90625  L 49.515625 64.59375  L 19.828125 64.59375  L 19.828125 46.734375  Q 21.96875 47.46875 24.109375 47.828125  Q 26.265625 48.1875 28.421875 48.1875  Q 40.625 48.1875 47.75 41.5  Q 54.890625 34.8125 54.890625 23.390625  Q 54.890625 11.625 47.5625 5.09375  Q 40.234375 -1.421875 26.90625 -1.421875  Q 22.3125 -1.421875 17.546875 -0.640625  Q 12.796875 0.140625 7.71875 1.703125  L 7.71875 11.625  Q 12.109375 9.234375 16.796875 8.0625  Q 21.484375 6.890625 26.703125 6.890625  Q 35.15625 6.890625 40.078125 11.328125  Q 45.015625 15.765625 45.015625 23.390625  Q 45.015625 31 40.078125 35.4375  Q 35.15625 39.890625 26.703125 39.890625  Q 22.75 39.890625 18.8125 39.015625  Q 14.890625 38.140625 10.796875 36.28125  z " />
              <path
                 id="DejaVuSans-48"
                 d="M 31.78125 66.40625  Q 24.171875 66.40625 20.328125 58.90625  Q 16.5 51.421875 16.5 36.375  Q 16.5 21.390625 20.328125 13.890625  Q 24.171875 6.390625 31.78125 6.390625  Q 39.453125 6.390625 43.28125 13.890625  Q 47.125 21.390625 47.125 36.375  Q 47.125 51.421875 43.28125 58.90625  Q 39.453125 66.40625 31.78125 66.40625  z M 31.78125 74.21875  Q 44.046875 74.21875 50.515625 64.515625  Q 56.984375 54.828125 56.984375 36.375  Q 56.984375 17.96875 50.515625 8.265625  Q 44.046875 -1.421875 31.78125 -1.421875  Q 19.53125 -1.421875 13.0625 8.265625  Q 6.59375 17.96875 6.59375 36.375  Q 6.59375 54.828125 13.0625 64.515625  Q 19.53125 74.21875 31.78125 74.21875  z " />
            </defs>
            <g
               id="g2098"
               transform="translate(95.352162 254.356562)scale(0.1 -0.1)">
              <use
                 id="use2092"
                 xlink:href="#DejaVuSans-53" />
              <use
                 id="use2094"
                 xlink:href="#DejaVuSans-48"
                 x="63.623047" />
              <use
                 id="use2096"
                 xlink:href="#DejaVuSans-48"
                 x="127.246094" />
            </g>
          </g>
        </g>
        <g
           id="xtick_2">
          <g
             id="line2d_2">
            <g
               id="g2104">
              <use
                 id="use2102"
                 y="239.758125"
                 xlink:href="#m896a5084b8"
                 x="171.061919"
                 style="stroke:#000000;stroke-width:0.8;" />
            </g>
          </g>
          <g
             id="text_2">
            <!-- 1000 -->
            <defs
               id="defs2108">
              <path
                 id="DejaVuSans-49"
                 d="M 12.40625 8.296875  L 28.515625 8.296875  L 28.515625 63.921875  L 10.984375 60.40625  L 10.984375 69.390625  L 28.421875 72.90625  L 38.28125 72.90625  L 38.28125 8.296875  L 54.390625 8.296875  L 54.390625 0  L 12.40625 0  z " />
            </defs>
            <g
               id="g2118"
               transform="translate(158.336919 254.356562)scale(0.1 -0.1)">
              <use
                 id="use2110"
                 xlink:href="#DejaVuSans-49" />
              <use
                 id="use2112"
                 xlink:href="#DejaVuSans-48"
                 x="63.623047" />
              <use
                 id="use2114"
                 xlink:href="#DejaVuSans-48"
                 x="127.246094" />
              <use
                 id="use2116"
                 xlink:href="#DejaVuSans-48"
                 x="190.869141" />
            </g>
          </g>
        </g>
        <g
           id="xtick_3">
          <g
             id="line2d_3">
            <g
               id="g2124">
              <use
                 id="use2122"
                 y="239.758125"
                 xlink:href="#m896a5084b8"
                 x="237.227927"
                 style="stroke:#000000;stroke-width:0.8;" />
            </g>
          </g>
          <g
             id="text_3">
            <!-- 1500 -->
            <g
               id="g2135"
               transform="translate(224.502927 254.356562)scale(0.1 -0.1)">
              <use
                 id="use2127"
                 xlink:href="#DejaVuSans-49" />
              <use
                 id="use2129"
                 xlink:href="#DejaVuSans-53"
                 x="63.623047" />
              <use
                 id="use2131"
                 xlink:href="#DejaVuSans-48"
                 x="127.246094" />
              <use
                 id="use2133"
                 xlink:href="#DejaVuSans-48"
                 x="190.869141" />
            </g>
          </g>
        </g>
        <g
           id="xtick_4">
          <g
             id="line2d_4">
            <g
               id="g2141">
              <use
                 id="use2139"
                 y="239.758125"
                 xlink:href="#m896a5084b8"
                 x="303.393935"
                 style="stroke:#000000;stroke-width:0.8;" />
            </g>
          </g>
          <g
             id="text_4">
            <!-- 2000 -->
            <defs
               id="defs2145">
              <path
                 id="DejaVuSans-50"
                 d="M 19.1875 8.296875  L 53.609375 8.296875  L 53.609375 0  L 7.328125 0  L 7.328125 8.296875  Q 12.9375 14.109375 22.625 23.890625  Q 32.328125 33.6875 34.8125 36.53125  Q 39.546875 41.84375 41.421875 45.53125  Q 43.3125 49.21875 43.3125 52.78125  Q 43.3125 58.59375 39.234375 62.25  Q 35.15625 65.921875 28.609375 65.921875  Q 23.96875 65.921875 18.8125 64.3125  Q 13.671875 62.703125 7.8125 59.421875  L 7.8125 69.390625  Q 13.765625 71.78125 18.9375 73  Q 24.125 74.21875 28.421875 74.21875  Q 39.75 74.21875 46.484375 68.546875  Q 53.21875 62.890625 53.21875 53.421875  Q 53.21875 48.921875 51.53125 44.890625  Q 49.859375 40.875 45.40625 35.40625  Q 44.1875 33.984375 37.640625 27.21875  Q 31.109375 20.453125 19.1875 8.296875  z " />
            </defs>
            <g
               id="g2155"
               transform="translate(290.668935 254.356562)scale(0.1 -0.1)">
              <use
                 id="use2147"
                 xlink:href="#DejaVuSans-50" />
              <use
                 id="use2149"
                 xlink:href="#DejaVuSans-48"
                 x="63.623047" />
              <use
                 id="use2151"
                 xlink:href="#DejaVuSans-48"
                 x="127.246094" />
              <use
                 id="use2153"
                 xlink:href="#DejaVuSans-48"
                 x="190.869141" />
            </g>
          </g>
        </g>
        <g
           id="xtick_5">
          <g
             id="line2d_5">
            <g
               id="g2161">
              <use
                 id="use2159"
                 y="239.758125"
                 xlink:href="#m896a5084b8"
                 x="369.559943"
                 style="stroke:#000000;stroke-width:0.8;" />
            </g>
          </g>
          <g
             id="text_5">
            <!-- 2500 -->
            <g
               id="g2172"
               transform="translate(356.834943 254.356562)scale(0.1 -0.1)">
              <use
                 id="use2164"
                 xlink:href="#DejaVuSans-50" />
              <use
                 id="use2166"
                 xlink:href="#DejaVuSans-53"
                 x="63.623047" />
              <use
                 id="use2168"
                 xlink:href="#DejaVuSans-48"
                 x="127.246094" />
              <use
                 id="use2170"
                 xlink:href="#DejaVuSans-48"
                 x="190.869141" />
            </g>
          </g>
        </g>
        <g
           id="text_6">
          <!-- Temperature (K) -->
          <defs
             id="defs2188">
            <path
               id="DejaVuSans-84"
               d="M -0.296875 72.90625  L 61.375 72.90625  L 61.375 64.59375  L 35.5 64.59375  L 35.5 0  L 25.59375 0  L 25.59375 64.59375  L -0.296875 64.59375  z " />
            <path
               id="DejaVuSans-101"
               d="M 56.203125 29.59375  L 56.203125 25.203125  L 14.890625 25.203125  Q 15.484375 15.921875 20.484375 11.0625  Q 25.484375 6.203125 34.421875 6.203125  Q 39.59375 6.203125 44.453125 7.46875  Q 49.3125 8.734375 54.109375 11.28125  L 54.109375 2.78125  Q 49.265625 0.734375 44.1875 -0.34375  Q 39.109375 -1.421875 33.890625 -1.421875  Q 20.796875 -1.421875 13.15625 6.1875  Q 5.515625 13.8125 5.515625 26.8125  Q 5.515625 40.234375 12.765625 48.109375  Q 20.015625 56 32.328125 56  Q 43.359375 56 49.78125 48.890625  Q 56.203125 41.796875 56.203125 29.59375  z M 47.21875 32.234375  Q 47.125 39.59375 43.09375 43.984375  Q 39.0625 48.390625 32.421875 48.390625  Q 24.90625 48.390625 20.390625 44.140625  Q 15.875 39.890625 15.1875 32.171875  z " />
            <path
               id="DejaVuSans-109"
               d="M 52 44.1875  Q 55.375 50.25 60.0625 53.125  Q 64.75 56 71.09375 56  Q 79.640625 56 84.28125 50.015625  Q 88.921875 44.046875 88.921875 33.015625  L 88.921875 0  L 79.890625 0  L 79.890625 32.71875  Q 79.890625 40.578125 77.09375 44.375  Q 74.3125 48.1875 68.609375 48.1875  Q 61.625 48.1875 57.5625 43.546875  Q 53.515625 38.921875 53.515625 30.90625  L 53.515625 0  L 44.484375 0  L 44.484375 32.71875  Q 44.484375 40.625 41.703125 44.40625  Q 38.921875 48.1875 33.109375 48.1875  Q 26.21875 48.1875 22.15625 43.53125  Q 18.109375 38.875 18.109375 30.90625  L 18.109375 0  L 9.078125 0  L 9.078125 54.6875  L 18.109375 54.6875  L 18.109375 46.1875  Q 21.1875 51.21875 25.484375 53.609375  Q 29.78125 56 35.6875 56  Q 41.65625 56 45.828125 52.96875  Q 50 49.953125 52 44.1875  z " />
            <path
               id="DejaVuSans-112"
               d="M 18.109375 8.203125  L 18.109375 -20.796875  L 9.078125 -20.796875  L 9.078125 54.6875  L 18.109375 54.6875  L 18.109375 46.390625  Q 20.953125 51.265625 25.265625 53.625  Q 29.59375 56 35.59375 56  Q 45.5625 56 51.78125 48.09375  Q 58.015625 40.1875 58.015625 27.296875  Q 58.015625 14.40625 51.78125 6.484375  Q 45.5625 -1.421875 35.59375 -1.421875  Q 29.59375 -1.421875 25.265625 0.953125  Q 20.953125 3.328125 18.109375 8.203125  z M 48.6875 27.296875  Q 48.6875 37.203125 44.609375 42.84375  Q 40.53125 48.484375 33.40625 48.484375  Q 26.265625 48.484375 22.1875 42.84375  Q 18.109375 37.203125 18.109375 27.296875  Q 18.109375 17.390625 22.1875 11.75  Q 26.265625 6.109375 33.40625 6.109375  Q 40.53125 6.109375 44.609375 11.75  Q 48.6875 17.390625 48.6875 27.296875  z " />
            <path
               id="DejaVuSans-114"
               d="M 41.109375 46.296875  Q 39.59375 47.171875 37.8125 47.578125  Q 36.03125 48 33.890625 48  Q 26.265625 48 22.1875 43.046875  Q 18.109375 38.09375 18.109375 28.8125  L 18.109375 0  L 9.078125 0  L 9.078125 54.6875  L 18.109375 54.6875  L 18.109375 46.1875  Q 20.953125 51.171875 25.484375 53.578125  Q 30.03125 56 36.53125 56  Q 37.453125 56 38.578125 55.875  Q 39.703125 55.765625 41.0625 55.515625  z " />
            <path
               id="DejaVuSans-97"
               d="M 34.28125 27.484375  Q 23.390625 27.484375 19.1875 25  Q 14.984375 22.515625 14.984375 16.5  Q 14.984375 11.71875 18.140625 8.90625  Q 21.296875 6.109375 26.703125 6.109375  Q 34.1875 6.109375 38.703125 11.40625  Q 43.21875 16.703125 43.21875 25.484375  L 43.21875 27.484375  z M 52.203125 31.203125  L 52.203125 0  L 43.21875 0  L 43.21875 8.296875  Q 40.140625 3.328125 35.546875 0.953125  Q 30.953125 -1.421875 24.3125 -1.421875  Q 15.921875 -1.421875 10.953125 3.296875  Q 6 8.015625 6 15.921875  Q 6 25.140625 12.171875 29.828125  Q 18.359375 34.515625 30.609375 34.515625  L 43.21875 34.515625  L 43.21875 35.40625  Q 43.21875 41.609375 39.140625 45  Q 35.0625 48.390625 27.6875 48.390625  Q 23 48.390625 18.546875 47.265625  Q 14.109375 46.140625 10.015625 43.890625  L 10.015625 52.203125  Q 14.9375 54.109375 19.578125 55.046875  Q 24.21875 56 28.609375 56  Q 40.484375 56 46.34375 49.84375  Q 52.203125 43.703125 52.203125 31.203125  z " />
            <path
               id="DejaVuSans-116"
               d="M 18.3125 70.21875  L 18.3125 54.6875  L 36.8125 54.6875  L 36.8125 47.703125  L 18.3125 47.703125  L 18.3125 18.015625  Q 18.3125 11.328125 20.140625 9.421875  Q 21.96875 7.515625 27.59375 7.515625  L 36.8125 7.515625  L 36.8125 0  L 27.59375 0  Q 17.1875 0 13.234375 3.875  Q 9.28125 7.765625 9.28125 18.015625  L 9.28125 47.703125  L 2.6875 47.703125  L 2.6875 54.6875  L 9.28125 54.6875  L 9.28125 70.21875  z " />
            <path
               id="DejaVuSans-117"
               d="M 8.5 21.578125  L 8.5 54.6875  L 17.484375 54.6875  L 17.484375 21.921875  Q 17.484375 14.15625 20.5 10.265625  Q 23.53125 6.390625 29.59375 6.390625  Q 36.859375 6.390625 41.078125 11.03125  Q 45.3125 15.671875 45.3125 23.6875  L 45.3125 54.6875  L 54.296875 54.6875  L 54.296875 0  L 45.3125 0  L 45.3125 8.40625  Q 42.046875 3.421875 37.71875 1  Q 33.40625 -1.421875 27.6875 -1.421875  Q 18.265625 -1.421875 13.375 4.4375  Q 8.5 10.296875 8.5 21.578125  z M 31.109375 56  z " />
            <path
               id="DejaVuSans-32" />
            <path
               id="DejaVuSans-40"
               d="M 31 75.875  Q 24.46875 64.65625 21.28125 53.65625  Q 18.109375 42.671875 18.109375 31.390625  Q 18.109375 20.125 21.3125 9.0625  Q 24.515625 -2 31 -13.1875  L 23.1875 -13.1875  Q 15.875 -1.703125 12.234375 9.375  Q 8.59375 20.453125 8.59375 31.390625  Q 8.59375 42.28125 12.203125 53.3125  Q 15.828125 64.359375 23.1875 75.875  z " />
            <path
               id="DejaVuSans-75"
               d="M 9.8125 72.90625  L 19.671875 72.90625  L 19.671875 42.09375  L 52.390625 72.90625  L 65.09375 72.90625  L 28.90625 38.921875  L 67.671875 0  L 54.6875 0  L 19.671875 35.109375  L 19.671875 0  L 9.8125 0  z " />
            <path
               id="DejaVuSans-41"
               d="M 8.015625 75.875  L 15.828125 75.875  Q 23.140625 64.359375 26.78125 53.3125  Q 30.421875 42.28125 30.421875 31.390625  Q 30.421875 20.453125 26.78125 9.375  Q 23.140625 -1.703125 15.828125 -13.1875  L 8.015625 -13.1875  Q 14.5 -2 17.703125 9.0625  Q 20.90625 20.125 20.90625 31.390625  Q 20.90625 42.671875 17.703125 53.65625  Q 14.5 64.65625 8.015625 75.875  z " />
          </defs>
          <g
             id="g2220"
             transform="translate(175.991406 268.034687)scale(0.1 -0.1)">
            <use
               id="use2190"
               xlink:href="#DejaVuSans-84" />
            <use
               id="use2192"
               xlink:href="#DejaVuSans-101"
               x="60.818359" />
            <use
               id="use2194"
               xlink:href="#DejaVuSans-109"
               x="122.341797" />
            <use
               id="use2196"
               xlink:href="#DejaVuSans-112"
               x="219.753906" />
            <use
               id="use2198"
               xlink:href="#DejaVuSans-101"
               x="283.230469" />
            <use
               id="use2200"
               xlink:href="#DejaVuSans-114"
               x="344.753906" />
            <use
               id="use2202"
               xlink:href="#DejaVuSans-97"
               x="385.867188" />
            <use
               id="use2204"
               xlink:href="#DejaVuSans-116"
               x="447.146484" />
            <use
               id="use2206"
               xlink:href="#DejaVuSans-117"
               x="486.355469" />
            <use
               id="use2208"
               xlink:href="#DejaVuSans-114"
               x="549.734375" />
            <use
               id="use2210"
               xlink:href="#DejaVuSans-101"
               x="590.816406" />
            <use
               id="use2212"
               xlink:href="#DejaVuSans-32"
               x="652.339844" />
            <use
               id="use2214"
               xlink:href="#DejaVuSans-40"
               x="684.126953" />
            <use
               id="use2216"
               xlink:href="#DejaVuSans-75"
               x="723.140625" />
            <use
               id="use2218"
               xlink:href="#DejaVuSans-41"
               x="788.716797" />
          </g>
        </g>
      </g>
      <g
         id="matplotlib.axis_2">
        <g
           id="ytick_1">
          <g
             id="line2d_6">
            <defs
               id="defs2225">
              <path
                 style="stroke:#000000;stroke-width:0.8;"
                 id="me658301e7c"
                 d="M 0 0  L -3.5 0  " />
            </defs>
            <g
               id="g2229">
              <use
                 id="use2227"
                 y="213.791274"
                 xlink:href="#me658301e7c"
                 x="49.978125"
                 style="stroke:#000000;stroke-width:0.8;" />
            </g>
          </g>
          <g
             id="text_7">
            <!-- $\mathdefault{10^{11}}$ -->
            <g
               id="g2240"
               transform="translate(20.878125 217.590493)scale(0.1 -0.1)">
              <use
                 id="use2232"
                 xlink:href="#DejaVuSans-49"
                 transform="translate(0 0.684375)" />
              <use
                 id="use2234"
                 xlink:href="#DejaVuSans-48"
                 transform="translate(63.623047 0.684375)" />
              <use
                 id="use2236"
                 xlink:href="#DejaVuSans-49"
                 transform="translate(128.203125 38.965625)scale(0.7)" />
              <use
                 id="use2238"
                 xlink:href="#DejaVuSans-49"
                 transform="translate(172.739258 38.965625)scale(0.7)" />
            </g>
          </g>
        </g>
        <g
           id="ytick_2">
          <g
             id="line2d_7">
            <g
               id="g2246">
              <use
                 id="use2244"
                 y="151.519185"
                 xlink:href="#me658301e7c"
                 x="49.978125"
                 style="stroke:#000000;stroke-width:0.8;" />
            </g>
          </g>
          <g
             id="text_8">
            <!-- $\mathdefault{10^{12}}$ -->
            <g
               id="g2257"
               transform="translate(20.878125 155.318403)scale(0.1 -0.1)">
              <use
                 id="use2249"
                 xlink:href="#DejaVuSans-49"
                 transform="translate(0 0.765625)" />
              <use
                 id="use2251"
                 xlink:href="#DejaVuSans-48"
                 transform="translate(63.623047 0.765625)" />
              <use
                 id="use2253"
                 xlink:href="#DejaVuSans-49"
                 transform="translate(128.203125 39.046875)scale(0.7)" />
              <use
                 id="use2255"
                 xlink:href="#DejaVuSans-50"
                 transform="translate(172.739258 39.046875)scale(0.7)" />
            </g>
          </g>
        </g>
        <g
           id="ytick_3">
          <g
             id="line2d_8">
            <g
               id="g2263">
              <use
                 id="use2261"
                 y="89.247095"
                 xlink:href="#me658301e7c"
                 x="49.978125"
                 style="stroke:#000000;stroke-width:0.8;" />
            </g>
          </g>
          <g
             id="text_9">
            <!-- $\mathdefault{10^{13}}$ -->
            <defs
               id="defs2267">
              <path
                 id="DejaVuSans-51"
                 d="M 40.578125 39.3125  Q 47.65625 37.796875 51.625 33  Q 55.609375 28.21875 55.609375 21.1875  Q 55.609375 10.40625 48.1875 4.484375  Q 40.765625 -1.421875 27.09375 -1.421875  Q 22.515625 -1.421875 17.65625 -0.515625  Q 12.796875 0.390625 7.625 2.203125  L 7.625 11.71875  Q 11.71875 9.328125 16.59375 8.109375  Q 21.484375 6.890625 26.8125 6.890625  Q 36.078125 6.890625 40.9375 10.546875  Q 45.796875 14.203125 45.796875 21.1875  Q 45.796875 27.640625 41.28125 31.265625  Q 36.765625 34.90625 28.71875 34.90625  L 20.21875 34.90625  L 20.21875 43.015625  L 29.109375 43.015625  Q 36.375 43.015625 40.234375 45.921875  Q 44.09375 48.828125 44.09375 54.296875  Q 44.09375 59.90625 40.109375 62.90625  Q 36.140625 65.921875 28.71875 65.921875  Q 24.65625 65.921875 20.015625 65.03125  Q 15.375 64.15625 9.8125 62.3125  L 9.8125 71.09375  Q 15.4375 72.65625 20.34375 73.4375  Q 25.25 74.21875 29.59375 74.21875  Q 40.828125 74.21875 47.359375 69.109375  Q 53.90625 64.015625 53.90625 55.328125  Q 53.90625 49.265625 50.4375 45.09375  Q 46.96875 40.921875 40.578125 39.3125  z " />
            </defs>
            <g
               id="g2277"
               transform="translate(20.878125 93.046314)scale(0.1 -0.1)">
              <use
                 id="use2269"
                 xlink:href="#DejaVuSans-49"
                 transform="translate(0 0.765625)" />
              <use
                 id="use2271"
                 xlink:href="#DejaVuSans-48"
                 transform="translate(63.623047 0.765625)" />
              <use
                 id="use2273"
                 xlink:href="#DejaVuSans-49"
                 transform="translate(128.203125 39.046875)scale(0.7)" />
              <use
                 id="use2275"
                 xlink:href="#DejaVuSans-51"
                 transform="translate(172.739258 39.046875)scale(0.7)" />
            </g>
          </g>
        </g>
        <g
           id="ytick_4">
          <g
             id="line2d_9">
            <g
               id="g2283">
              <use
                 id="use2281"
                 y="26.975005"
                 xlink:href="#me658301e7c"
                 x="49.978125"
                 style="stroke:#000000;stroke-width:0.8;" />
            </g>
          </g>
          <g
             id="text_10">
            <!-- $\mathdefault{10^{14}}$ -->
            <defs
               id="defs2287">
              <path
                 id="DejaVuSans-52"
                 d="M 37.796875 64.3125  L 12.890625 25.390625  L 37.796875 25.390625  z M 35.203125 72.90625  L 47.609375 72.90625  L 47.609375 25.390625  L 58.015625 25.390625  L 58.015625 17.1875  L 47.609375 17.1875  L 47.609375 0  L 37.796875 0  L 37.796875 17.1875  L 4.890625 17.1875  L 4.890625 26.703125  z " />
            </defs>
            <g
               id="g2297"
               transform="translate(20.878125 30.774224)scale(0.1 -0.1)">
              <use
                 id="use2289"
                 xlink:href="#DejaVuSans-49"
                 transform="translate(0 0.684375)" />
              <use
                 id="use2291"
                 xlink:href="#DejaVuSans-48"
                 transform="translate(63.623047 0.684375)" />
              <use
                 id="use2293"
                 xlink:href="#DejaVuSans-49"
                 transform="translate(128.203125 38.965625)scale(0.7)" />
              <use
                 id="use2295"
                 xlink:href="#DejaVuSans-52"
                 transform="translate(172.739258 38.965625)scale(0.7)" />
            </g>
          </g>
        </g>
        <g
           id="ytick_5">
          <g
             id="line2d_10">
            <defs
               id="defs2302">
              <path
                 style="stroke:#000000;stroke-width:0.6;"
                 id="m9cfb379f6b"
                 d="M 0 0  L -2 0  " />
            </defs>
            <g
               id="g2306">
              <use
                 id="use2304"
                 y="238.57183"
                 xlink:href="#m9cfb379f6b"
                 x="49.978125"
                 style="stroke:#000000;stroke-width:0.6;" />
            </g>
          </g>
        </g>
        <g
           id="ytick_6">
          <g
             id="line2d_11">
            <g
               id="g2312">
              <use
                 id="use2310"
                 y="232.537041"
                 xlink:href="#m9cfb379f6b"
                 x="49.978125"
                 style="stroke:#000000;stroke-width:0.6;" />
            </g>
          </g>
        </g>
        <g
           id="ytick_7">
          <g
             id="line2d_12">
            <g
               id="g2318">
              <use
                 id="use2316"
                 y="227.606259"
                 xlink:href="#m9cfb379f6b"
                 x="49.978125"
                 style="stroke:#000000;stroke-width:0.6;" />
            </g>
          </g>
        </g>
        <g
           id="ytick_8">
          <g
             id="line2d_13">
            <g
               id="g2324">
              <use
                 id="use2322"
                 y="223.437343"
                 xlink:href="#m9cfb379f6b"
                 x="49.978125"
                 style="stroke:#000000;stroke-width:0.6;" />
            </g>
          </g>
        </g>
        <g
           id="ytick_9">
          <g
             id="line2d_14">
            <g
               id="g2330">
              <use
                 id="use2328"
                 y="219.826063"
                 xlink:href="#m9cfb379f6b"
                 x="49.978125"
                 style="stroke:#000000;stroke-width:0.6;" />
            </g>
          </g>
        </g>
        <g
           id="ytick_10">
          <g
             id="line2d_15">
            <g
               id="g2336">
              <use
                 id="use2334"
                 y="216.640689"
                 xlink:href="#m9cfb379f6b"
                 x="49.978125"
                 style="stroke:#000000;stroke-width:0.6;" />
            </g>
          </g>
        </g>
        <g
           id="ytick_11">
          <g
             id="line2d_16">
            <g
               id="g2342">
              <use
                 id="use2340"
                 y="195.045507"
                 xlink:href="#m9cfb379f6b"
                 x="49.978125"
                 style="stroke:#000000;stroke-width:0.6;" />
            </g>
          </g>
        </g>
        <g
           id="ytick_12">
          <g
             id="line2d_17">
            <g
               id="g2348">
              <use
                 id="use2346"
                 y="184.079937"
                 xlink:href="#m9cfb379f6b"
                 x="49.978125"
                 style="stroke:#000000;stroke-width:0.6;" />
            </g>
          </g>
        </g>
        <g
           id="ytick_13">
          <g
             id="line2d_18">
            <g
               id="g2354">
              <use
                 id="use2352"
                 y="176.29974"
                 xlink:href="#m9cfb379f6b"
                 x="49.978125"
                 style="stroke:#000000;stroke-width:0.6;" />
            </g>
          </g>
        </g>
        <g
           id="ytick_14">
          <g
             id="line2d_19">
            <g
               id="g2360">
              <use
                 id="use2358"
                 y="170.264951"
                 xlink:href="#m9cfb379f6b"
                 x="49.978125"
                 style="stroke:#000000;stroke-width:0.6;" />
            </g>
          </g>
        </g>
        <g
           id="ytick_15">
          <g
             id="line2d_20">
            <g
               id="g2366">
              <use
                 id="use2364"
                 y="165.33417"
                 xlink:href="#m9cfb379f6b"
                 x="49.978125"
                 style="stroke:#000000;stroke-width:0.6;" />
            </g>
          </g>
        </g>
        <g
           id="ytick_16">
          <g
             id="line2d_21">
            <g
               id="g2372">
              <use
                 id="use2370"
                 y="161.165253"
                 xlink:href="#m9cfb379f6b"
                 x="49.978125"
                 style="stroke:#000000;stroke-width:0.6;" />
            </g>
          </g>
        </g>
        <g
           id="ytick_17">
          <g
             id="line2d_22">
            <g
               id="g2378">
              <use
                 id="use2376"
                 y="157.553974"
                 xlink:href="#m9cfb379f6b"
                 x="49.978125"
                 style="stroke:#000000;stroke-width:0.6;" />
            </g>
          </g>
        </g>
        <g
           id="ytick_18">
          <g
             id="line2d_23">
            <g
               id="g2384">
              <use
                 id="use2382"
                 y="154.368599"
                 xlink:href="#m9cfb379f6b"
                 x="49.978125"
                 style="stroke:#000000;stroke-width:0.6;" />
            </g>
          </g>
        </g>
        <g
           id="ytick_19">
          <g
             id="line2d_24">
            <g
               id="g2390">
              <use
                 id="use2388"
                 y="132.773418"
                 xlink:href="#m9cfb379f6b"
                 x="49.978125"
                 style="stroke:#000000;stroke-width:0.6;" />
            </g>
          </g>
        </g>
        <g
           id="ytick_20">
          <g
             id="line2d_25">
            <g
               id="g2396">
              <use
                 id="use2394"
                 y="121.807847"
                 xlink:href="#m9cfb379f6b"
                 x="49.978125"
                 style="stroke:#000000;stroke-width:0.6;" />
            </g>
          </g>
        </g>
        <g
           id="ytick_21">
          <g
             id="line2d_26">
            <g
               id="g2402">
              <use
                 id="use2400"
                 y="114.027651"
                 xlink:href="#m9cfb379f6b"
                 x="49.978125"
                 style="stroke:#000000;stroke-width:0.6;" />
            </g>
          </g>
        </g>
        <g
           id="ytick_22">
          <g
             id="line2d_27">
            <g
               id="g2408">
              <use
                 id="use2406"
                 y="107.992862"
                 xlink:href="#m9cfb379f6b"
                 x="49.978125"
                 style="stroke:#000000;stroke-width:0.6;" />
            </g>
          </g>
        </g>
        <g
           id="ytick_23">
          <g
             id="line2d_28">
            <g
               id="g2414">
              <use
                 id="use2412"
                 y="103.06208"
                 xlink:href="#m9cfb379f6b"
                 x="49.978125"
                 style="stroke:#000000;stroke-width:0.6;" />
            </g>
          </g>
        </g>
        <g
           id="ytick_24">
          <g
             id="line2d_29">
            <g
               id="g2420">
              <use
                 id="use2418"
                 y="98.893164"
                 xlink:href="#m9cfb379f6b"
                 x="49.978125"
                 style="stroke:#000000;stroke-width:0.6;" />
            </g>
          </g>
        </g>
        <g
           id="ytick_25">
          <g
             id="line2d_30">
            <g
               id="g2426">
              <use
                 id="use2424"
                 y="95.281884"
                 xlink:href="#m9cfb379f6b"
                 x="49.978125"
                 style="stroke:#000000;stroke-width:0.6;" />
            </g>
          </g>
        </g>
        <g
           id="ytick_26">
          <g
             id="line2d_31">
            <g
               id="g2432">
              <use
                 id="use2430"
                 y="92.096509"
                 xlink:href="#m9cfb379f6b"
                 x="49.978125"
                 style="stroke:#000000;stroke-width:0.6;" />
            </g>
          </g>
        </g>
        <g
           id="ytick_27">
          <g
             id="line2d_32">
            <g
               id="g2438">
              <use
                 id="use2436"
                 y="70.501328"
                 xlink:href="#m9cfb379f6b"
                 x="49.978125"
                 style="stroke:#000000;stroke-width:0.6;" />
            </g>
          </g>
        </g>
        <g
           id="ytick_28">
          <g
             id="line2d_33">
            <g
               id="g2444">
              <use
                 id="use2442"
                 y="59.535757"
                 xlink:href="#m9cfb379f6b"
                 x="49.978125"
                 style="stroke:#000000;stroke-width:0.6;" />
            </g>
          </g>
        </g>
        <g
           id="ytick_29">
          <g
             id="line2d_34">
            <g
               id="g2450">
              <use
                 id="use2448"
                 y="51.755561"
                 xlink:href="#m9cfb379f6b"
                 x="49.978125"
                 style="stroke:#000000;stroke-width:0.6;" />
            </g>
          </g>
        </g>
        <g
           id="ytick_30">
          <g
             id="line2d_35">
            <g
               id="g2456">
              <use
                 id="use2454"
                 y="45.720772"
                 xlink:href="#m9cfb379f6b"
                 x="49.978125"
                 style="stroke:#000000;stroke-width:0.6;" />
            </g>
          </g>
        </g>
        <g
           id="ytick_31">
          <g
             id="line2d_36">
            <g
               id="g2462">
              <use
                 id="use2460"
                 y="40.78999"
                 xlink:href="#m9cfb379f6b"
                 x="49.978125"
                 style="stroke:#000000;stroke-width:0.6;" />
            </g>
          </g>
        </g>
        <g
           id="ytick_32">
          <g
             id="line2d_37">
            <g
               id="g2468">
              <use
                 id="use2466"
                 y="36.621074"
                 xlink:href="#m9cfb379f6b"
                 x="49.978125"
                 style="stroke:#000000;stroke-width:0.6;" />
            </g>
          </g>
        </g>
        <g
           id="ytick_33">
          <g
             id="line2d_38">
            <g
               id="g2474">
              <use
                 id="use2472"
                 y="33.009794"
                 xlink:href="#m9cfb379f6b"
                 x="49.978125"
                 style="stroke:#000000;stroke-width:0.6;" />
            </g>
          </g>
        </g>
        <g
           id="ytick_34">
          <g
             id="line2d_39">
            <g
               id="g2480">
              <use
                 id="use2478"
                 y="29.82442"
                 xlink:href="#m9cfb379f6b"
                 x="49.978125"
                 style="stroke:#000000;stroke-width:0.6;" />
            </g>
          </g>
        </g>
        <g
           id="text_11">
          <!-- Kmol/m^3-s -->
          <defs
             id="defs2490">
            <path
               id="DejaVuSans-111"
               d="M 30.609375 48.390625  Q 23.390625 48.390625 19.1875 42.75  Q 14.984375 37.109375 14.984375 27.296875  Q 14.984375 17.484375 19.15625 11.84375  Q 23.34375 6.203125 30.609375 6.203125  Q 37.796875 6.203125 41.984375 11.859375  Q 46.1875 17.53125 46.1875 27.296875  Q 46.1875 37.015625 41.984375 42.703125  Q 37.796875 48.390625 30.609375 48.390625  z M 30.609375 56  Q 42.328125 56 49.015625 48.375  Q 55.71875 40.765625 55.71875 27.296875  Q 55.71875 13.875 49.015625 6.21875  Q 42.328125 -1.421875 30.609375 -1.421875  Q 18.84375 -1.421875 12.171875 6.21875  Q 5.515625 13.875 5.515625 27.296875  Q 5.515625 40.765625 12.171875 48.375  Q 18.84375 56 30.609375 56  z " />
            <path
               id="DejaVuSans-108"
               d="M 9.421875 75.984375  L 18.40625 75.984375  L 18.40625 0  L 9.421875 0  z " />
            <path
               id="DejaVuSans-47"
               d="M 25.390625 72.90625  L 33.6875 72.90625  L 8.296875 -9.28125  L 0 -9.28125  z " />
            <path
               id="DejaVuSans-94"
               d="M 46.6875 72.90625  L 73.1875 45.703125  L 63.375 45.703125  L 41.890625 64.984375  L 20.40625 45.703125  L 10.59375 45.703125  L 37.109375 72.90625  z " />
            <path
               id="DejaVuSans-45"
               d="M 4.890625 31.390625  L 31.203125 31.390625  L 31.203125 23.390625  L 4.890625 23.390625  z " />
            <path
               id="DejaVuSans-115"
               d="M 44.28125 53.078125  L 44.28125 44.578125  Q 40.484375 46.53125 36.375 47.5  Q 32.28125 48.484375 27.875 48.484375  Q 21.1875 48.484375 17.84375 46.4375  Q 14.5 44.390625 14.5 40.28125  Q 14.5 37.15625 16.890625 35.375  Q 19.28125 33.59375 26.515625 31.984375  L 29.59375 31.296875  Q 39.15625 29.25 43.1875 25.515625  Q 47.21875 21.78125 47.21875 15.09375  Q 47.21875 7.46875 41.1875 3.015625  Q 35.15625 -1.421875 24.609375 -1.421875  Q 20.21875 -1.421875 15.453125 -0.5625  Q 10.6875 0.296875 5.421875 2  L 5.421875 11.28125  Q 10.40625 8.6875 15.234375 7.390625  Q 20.0625 6.109375 24.8125 6.109375  Q 31.15625 6.109375 34.5625 8.28125  Q 37.984375 10.453125 37.984375 14.40625  Q 37.984375 18.0625 35.515625 20.015625  Q 33.0625 21.96875 24.703125 23.78125  L 21.578125 24.515625  Q 13.234375 26.265625 9.515625 29.90625  Q 5.8125 33.546875 5.8125 39.890625  Q 5.8125 47.609375 11.28125 51.796875  Q 16.75 56 26.8125 56  Q 31.78125 56 36.171875 55.265625  Q 40.578125 54.546875 44.28125 53.078125  z " />
          </defs>
          <g
             id="g2512"
             transform="translate(14.798438 161.970156)rotate(-90)scale(0.1 -0.1)">
            <use
               id="use2492"
               xlink:href="#DejaVuSans-75" />
            <use
               id="use2494"
               xlink:href="#DejaVuSans-109"
               x="65.576172" />
            <use
               id="use2496"
               xlink:href="#DejaVuSans-111"
               x="162.988281" />
            <use
               id="use2498"
               xlink:href="#DejaVuSans-108"
               x="224.169922" />
            <use
               id="use2500"
               xlink:href="#DejaVuSans-47"
               x="251.953125" />
            <use
               id="use2502"
               xlink:href="#DejaVuSans-109"
               x="285.644531" />
            <use
               id="use2504"
               xlink:href="#DejaVuSans-94"
               x="383.056641" />
            <use
               id="use2506"
               xlink:href="#DejaVuSans-51"
               x="466.845703" />
            <use
               id="use2508"
               xlink:href="#DejaVuSans-45"
               x="530.46875" />
            <use
               id="use2510"
               xlink:href="#DejaVuSans-115"
               x="566.552734" />
          </g>
        </g>
      </g>
      <g
         id="line2d_40">
        <path
           id="path2516"
           style="fill:none;stroke:#0000ff;stroke-linecap:square;stroke-width:1.5;"
           d="M 71.812908 102.779377  L 74.59188 109.211276  L 77.23852 114.774206  L 79.752829 119.563008  L 82.267137 123.898287  L 84.913777 128.010925  L 87.560417 131.703205  L 90.207058 135.016062  L 92.853698 137.987262  L 95.63267 140.776635  L 98.543975 143.373545  L 101.455279 145.672737  L 104.498916 147.792043  L 107.674884 149.726735  L 110.983184 151.47416  L 114.423817 153.033409  L 117.996781 154.405021  L 121.702078 155.590725  L 125.672038 156.624018  L 129.774331 157.463714  L 134.141287 158.132855  L 138.772908 158.619689  L 143.801524 158.920815  L 149.094805 159.014903  L 154.785082 158.895243  L 161.004686 158.539447  L 167.753619 157.927059  L 175.164212 157.026655  L 183.368797 155.799788  L 192.499706 154.205021  L 202.953935 152.14791  L 215.393145 149.464231  L 231.272987 145.797168  L 264.885319 137.730438  L 286.323105 132.731378  L 302.599943 129.160369  L 316.891801 126.248147  L 329.99267 123.800889  L 342.299548 121.723841  L 354.077097 119.95978  L 365.325319 118.497539  L 369.427611 118.021638  L 369.427611 118.021638  "
           clip-path="url(#p8287ed2316)" />
      </g>
      <g
         id="line2d_41">
        <path
           id="path2519"
           style="fill:none;stroke:#0000ff;stroke-dasharray:5.55,2.4;stroke-dashoffset:0;stroke-width:1.5;"
           d="M 65.196307 32.201761  L 71.812908 51.061952  L 78.164844 66.81983  L 78.164844 66.81983  L 78.429508 67.418023  L 80.679153 72.320109  L 82.399469 75.854933  L 84.384449 79.71436  L 85.046109 80.950679  L 86.104765 82.878446  L 89.01607 87.874605  L 91.66271 92.053314  L 92.589034 93.439442  L 94.044686 95.541663  L 94.97101 96.832716  L 98.279311 101.16378  L 98.940971 101.980087  L 104.895912 108.648968  L 106.219232 109.977694  L 111.512512 114.798822  L 115.085477 117.646551  L 118.129113 119.840407  L 121.17275 121.838122  L 124.745714 123.952691  L 128.318678 125.838357  L 131.362315 127.278385  L 134.405951 128.576661  L 137.978916 129.932817  L 141.55188 131.121049  L 142.822609 131.505628  L 143.862949 131.80626  L 144.595516 132.01044  L 144.924379 132.100111  L 145.504811 132.255406  L 145.504811 132.255406  L 148.06602 132.896469  L 149.933278 133.320017  L 150.02381 133.339642  L 150.02381 133.339642  L 151.212117 133.589621  L 154.843518 134.268675  L 154.843518 134.268675  L 157.67137 134.713497  L 157.828718 134.736186  L 159.563293 134.972364  L 160.099457 135.040281  L 161.847892 135.245525  L 163.533398 135.420491  L 164.445319 135.506061  L 164.974647 135.552864  L 165.735922 135.616539  L 166.686569 135.690122  L 166.694963 135.690743  L 166.827295 135.700462  L 167.046881 135.716313  L 168.385186 135.805572  L 168.385186 135.805572  L 168.385186 135.805572  L 168.508271 135.813154  L 169.751701 135.883936  L 170.0032 135.89698  L 170.891431 135.939676  L 171.061919 135.947276  L 171.79163 135.97766  L 171.92127 135.982698  L 172.704176 136.010832  L 173.0469 136.021923  L 173.762573 136.04271  L 174.237888 136.054759  L 174.702448 136.065196  L 174.837825 136.06799  L 175.381899 136.078104  L 176.068174 136.088333  L 176.622148 136.094559  L 177.67852 136.10148  L 177.743613 136.101697  L 178.168843 136.102517  L 178.596683 136.10231  L 179.6635 136.097343  L 180.776028 136.085514  L 181.516149 136.073959  L 182.569051 136.052549  L 183.482566 136.029329  L 184.162789 136.009288  L 184.295121 136.00512  L 186.934116 135.904086  L 188.230357 135.842322  L 188.529746 135.826953  L 189.323738 135.784224  L 190.911722 135.690338  L 196.734331 135.255402  L 197.528323 135.185689  L 199.910299 134.962534  L 202.821603 134.662504  L 204.144923 134.516691  L 210.761524 133.706268  L 217.378125 132.775108  L 223.994726 131.741945  L 230.611327 130.623796  L 237.227927 129.436162  L 243.844528 128.193189  L 250.461129 126.907818  L 257.07773 125.591909  L 263.694331 124.256357  L 270.310931 122.911185  L 276.927532 121.565644  L 283.544133 120.228282  L 290.160734 118.907025  L 296.777334 117.609234  L 303.393935 116.341763  L 303.393935 116.341763  L 310.010536 115.111006  L 316.627137 113.922939  L 323.243738 112.783151  L 329.860338 111.696871  L 336.476939 110.668991  L 343.09354 109.704079  L 349.710141 108.806383  L 356.326742 107.97984  L 362.943342 107.228064  L 369.559943 106.554343  L 369.559943 106.554343  "
           clip-path="url(#p8287ed2316)" />
      </g>
      <g
         id="line2d_42">
        <path
           id="path2522"
           style="fill:none;stroke:#0000ff;stroke-dasharray:5.55,2.4;stroke-dashoffset:0;stroke-width:1.5;"
           d="M 65.196307 138.898874  L 71.812908 154.496803  L 78.164844 166.36686  L 78.164844 166.36686  L 78.429508 166.784407  L 80.679153 170.102207  L 82.399469 172.374188  L 84.384449 174.732401  L 85.046109 175.459664  L 86.104765 176.565471  L 89.01607 179.264862  L 91.66271 181.327152  L 92.589034 181.969586  L 94.044686 182.902478  L 94.97101 183.44989  L 98.279311 185.136756  L 98.940971 185.427633  L 104.895912 187.448407  L 106.219232 187.768459  L 111.512512 188.662008  L 115.085477 188.964597  L 118.129113 189.062293  L 121.17275 189.031969  L 124.745714 188.853986  L 128.318678 188.542717  L 131.362315 188.186337  L 134.405951 187.756497  L 137.978916 187.169744  L 141.55188 186.505727  L 142.822609 186.252969  L 143.862949 186.040054  L 144.595516 185.887028  L 144.924379 185.817522  L 145.504811 185.693648  L 145.504811 185.693648  L 148.06602 185.129631  L 149.933278 184.701713  L 150.02381 184.680629  L 150.02381 184.680629  L 151.212117 184.401124  L 154.843518 183.517202  L 154.843518 183.517202  L 157.67137 182.800932  L 157.828718 182.760423  L 159.563293 182.309591  L 160.099457 182.168707  L 161.847892 181.704545  L 163.533398 181.250609  L 164.445319 181.002527  L 164.974647 180.857762  L 165.735922 180.648611  L 166.686569 180.385907  L 166.694963 180.383581  L 166.827295 180.346879  L 167.046881 180.28591  L 168.385186 179.912508  L 168.385186 179.912508  L 168.385186 179.912508  L 168.508271 179.878014  L 169.751701 179.528165  L 170.0032 179.457106  L 170.891431 179.205374  L 171.061919 179.156922  L 171.79163 178.949064  L 171.92127 178.912057  L 172.704176 178.688072  L 173.0469 178.589758  L 173.762573 178.383963  L 174.237888 178.24692  L 174.702448 178.112706  L 174.837825 178.073545  L 175.381899 177.915937  L 176.068174 177.716642  L 176.622148 177.555376  L 177.67852 177.246931  L 177.743613 177.227887  L 178.168843 177.103366  L 178.596683 176.977897  L 179.6635 176.664262  L 180.776028 176.336063  L 181.516149 176.117124  L 182.569051 175.804877  L 183.482566 175.533262  L 184.162789 175.33061  L 184.295121 175.291148  L 186.934116 174.501753  L 188.230357 174.112476  L 188.529746 174.022436  L 189.323738 173.783425  L 190.911722 173.304505  L 196.734331 171.54039  L 197.528323 171.299094  L 199.910299 170.574511  L 202.821603 169.687952  L 204.144923 169.284793  L 210.761524 167.269753  L 217.378125 165.260785  L 223.994726 163.26366  L 230.611327 161.283353  L 237.227927 159.32423  L 243.844528 157.3902  L 250.461129 155.484831  L 257.07773 153.611436  L 263.694331 151.773148  L 270.310931 149.972966  L 276.927532 148.213797  L 283.544133 146.498481  L 290.160734 144.829816  L 296.777334 143.210568  L 303.393935 141.643492  L 303.393935 141.643492  L 310.010536 140.131335  L 316.627137 138.67685  L 323.243738 137.282808  L 329.860338 135.952005  L 336.476939 134.68728  L 343.09354 133.49153  L 349.710141 132.367725  L 356.326742 131.318933  L 362.943342 130.34834  L 369.559943 129.459284  L 369.559943 129.459284  "
           clip-path="url(#p8287ed2316)" />
      </g>
      <g
         id="line2d_43">
        <path
           id="path2525"
           style="fill:none;stroke:#ff0000;stroke-linecap:square;stroke-width:1.5;"
           d="M 71.812908 157.646643  L 74.327216 162.835337  L 76.709192 167.227789  L 78.958836 170.920416  L 81.208481 174.197433  L 83.458125 177.091692  L 85.707769 179.637459  L 88.089746 181.990112  L 90.471722 184.026302  L 92.853698 185.779666  L 95.368006 187.356959  L 98.014647 188.747852  L 100.793619 189.945626  L 103.704923 190.94672  L 106.74856 191.750275  L 109.924528 192.357687  L 113.365161 192.78457  L 117.070457 193.012482  L 121.040417 193.028514  L 125.407374 192.815165  L 130.171327 192.351091  L 135.332275 191.622823  L 141.154884 190.571683  L 147.639153 189.172176  L 155.182078 187.308546  L 163.915991 184.914409  L 174.634884 181.734161  L 188.662078 177.324542  L 214.996149 168.758761  L 240.0069 160.724489  L 257.73939 155.26223  L 273.4869 150.64213  L 288.043421 146.599582  L 301.938283 142.969087  L 315.303817 139.705271  L 328.272354 136.766929  L 340.843896 134.145435  L 353.150773 131.805925  L 365.192987 129.743157  L 369.427611 129.072635  L 369.427611 129.072635  "
           clip-path="url(#p8287ed2316)" />
      </g>
      <g
         id="line2d_44">
        <path
           id="path2528"
           style="fill:none;stroke:#ff0000;stroke-dasharray:5.55,2.4;stroke-dashoffset:0;stroke-width:1.5;"
           d="M 65.196307 89.945791  L 71.812908 107.26156  L 78.164844 121.167096  L 78.164844 121.167096  L 78.429508 121.678629  L 80.679153 125.818832  L 82.399469 128.744184  L 84.384449 131.876879  L 85.046109 132.866259  L 86.104765 134.394789  L 89.01607 138.272211  L 91.66271 141.416152  L 92.589034 142.437825  L 94.044686 143.966132  L 94.97101 144.891652  L 98.279311 147.91953  L 98.940971 148.476237  L 104.895912 152.839115  L 106.219232 153.665089  L 111.512512 156.520093  L 115.085477 158.085988  L 118.129113 159.219119  L 121.17275 160.185906  L 124.745714 161.129065  L 128.318678 161.8856  L 131.362315 162.397093  L 134.405951 162.79724  L 137.978916 163.137349  L 141.55188 163.350106  L 142.822609 163.39736  L 143.862949 163.425524  L 144.595516 163.439826  L 144.924379 163.444788  L 145.504811 163.451371  L 145.504811 163.451371  L 148.06602 163.448279  L 149.933278 163.414416  L 150.02381 163.412123  L 150.02381 163.412123  L 151.212117 163.376596  L 154.843518 163.208063  L 154.843518 163.208063  L 157.67137 163.018228  L 157.828718 163.006242  L 159.563293 162.864565  L 160.099457 162.817302  L 161.847892 162.65218  L 163.533398 162.477593  L 164.445319 162.377058  L 164.974647 162.316797  L 165.735922 162.227721  L 166.686569 162.112573  L 166.694963 162.111538  L 166.827295 162.095164  L 167.046881 162.067814  L 168.385186 161.896314  L 168.385186 161.896314  L 168.385186 161.896314  L 168.508271 161.880132  L 169.751701 161.71288  L 170.0032 161.678228  L 170.891431 161.553668  L 171.061919 161.529377  L 171.79163 161.424033  L 171.92127 161.405087  L 172.704176 161.289209  L 173.0469 161.237702  L 173.762573 161.128639  L 174.237888 161.055093  L 174.702448 160.982365  L 174.837825 160.961016  L 175.381899 160.874513  L 176.068174 160.763816  L 176.622148 160.67319  L 177.67852 160.497293  L 177.743613 160.486324  L 178.168843 160.414301  L 178.596683 160.341199  L 179.6635 160.156178  L 180.776028 159.95916  L 181.516149 159.825849  L 182.569051 159.633191  L 183.482566 159.463242  L 184.162789 159.335048  L 184.295121 159.309948  L 186.934116 158.798797  L 188.230357 158.540601  L 188.529746 158.480325  L 189.323738 158.31933  L 190.911722 157.992496  L 196.734331 156.742974  L 197.528323 156.566841  L 199.910299 156.03089  L 202.821603 155.361402  L 204.144923 155.052199  L 210.761524 153.465535  L 217.378125 151.821903  L 223.994726 150.134716  L 230.611327 148.415967  L 237.227927 146.6764  L 243.844528 144.92567  L 250.461129 143.172463  L 257.07773 141.424609  L 263.694331 139.689179  L 270.310931 137.972572  L 276.927532 136.280588  L 283.544133 134.618498  L 290.160734 132.991104  L 296.777334 131.40279  L 303.393935 129.857565  L 303.393935 129.857565  L 310.010536 128.359106  L 316.627137 126.910788  L 323.243738 125.515707  L 329.860338 124.176704  L 336.476939 122.896375  L 343.09354 121.677082  L 349.710141 120.520955  L 356.326742 119.429893  L 362.943342 118.40555  L 369.559943 117.449328  L 369.559943 117.449328  "
           clip-path="url(#p8287ed2316)" />
      </g>
      <g
         id="line2d_45">
        <path
           id="path2531"
           style="fill:none;stroke:#ff0000;stroke-dasharray:5.55,2.4;stroke-dashoffset:0;stroke-width:1.5;"
           d="M 65.196307 193.879768  L 71.812908 208.031727  L 78.164844 218.165234  L 78.164844 218.165234  L 78.429508 218.501553  L 80.679153 221.105308  L 82.399469 222.806193  L 84.384449 224.483556  L 85.046109 224.979501  L 86.104765 225.711358  L 89.01607 227.363073  L 91.66271 228.456586  L 92.589034 228.757867  L 94.044686 229.1536  L 94.97101 229.358929  L 98.279311 229.82646  L 98.940971 229.874489  L 104.895912 229.738758  L 106.219232 229.588824  L 111.512512 228.645011  L 115.085477 227.750271  L 118.129113 226.857525  L 121.17275 225.864905  L 124.745714 224.593899  L 128.318678 223.229486  L 131.362315 222.007386  L 134.405951 220.740472  L 137.978916 219.207108  L 141.55188 217.634654  L 142.822609 217.067841  L 143.862949 216.601289  L 144.595516 216.271524  L 144.924379 216.123175  L 145.504811 215.860896  L 145.504811 215.860896  L 148.06602 214.697474  L 149.933278 213.844026  L 150.02381 213.802554  L 150.02381 213.802554  L 151.212117 213.257488  L 154.843518 211.585398  L 154.843518 211.585398  L 157.67137 210.279158  L 157.828718 210.206421  L 159.563293 209.404424  L 160.099457 209.156508  L 161.847892 208.348215  L 163.533398 207.569538  L 164.445319 207.148581  L 164.974647 206.904369  L 165.735922 206.553342  L 166.686569 206.115357  L 166.694963 206.111492  L 166.827295 206.050559  L 167.046881 205.949468  L 168.385186 205.333918  L 168.385186 205.333918  L 168.385186 205.333918  L 168.508271 205.277357  L 169.751701 204.706486  L 170.0032 204.591143  L 170.891431 204.184123  L 171.061919 204.106063  L 171.79163 203.772197  L 171.92127 203.712925  L 172.704176 203.355249  L 173.0469 203.198827  L 173.762573 202.872496  L 174.237888 202.656001  L 174.702448 202.444593  L 174.837825 202.383022  L 175.381899 202.135738  L 176.068174 201.824205  L 176.622148 201.57305  L 177.67852 201.094937  L 177.743613 201.065511  L 178.168843 200.873389  L 178.596683 200.680271  L 179.6635 200.199549  L 180.776028 199.699504  L 181.516149 199.367583  L 182.569051 198.896436  L 183.482566 198.488676  L 184.162789 198.185675  L 184.295121 198.126792  L 186.934116 196.956884  L 188.230357 196.385359  L 188.529746 196.253655  L 189.323738 195.904919  L 190.911722 195.209873  L 196.734331 192.68997  L 197.528323 192.349928  L 199.910299 191.335089  L 202.821603 190.105651  L 204.144923 189.550839  L 210.761524 186.815112  L 217.378125 184.144248  L 223.994726 181.539025  L 230.611327 178.999725  L 237.227927 176.526298  L 243.844528 174.118492  L 250.461129 171.77595  L 257.07773 169.498278  L 263.694331 167.285096  L 270.310931 165.136072  L 276.927532 163.050947  L 283.544133 161.029544  L 290.160734 159.071784  L 296.777334 157.177683  L 303.393935 155.347358  L 303.393935 155.347358  L 310.010536 153.581028  L 316.627137 151.879015  L 323.243738 150.241747  L 329.860338 148.669761  L 336.476939 147.163712  L 343.09354 145.72438  L 349.710141 144.352683  L 356.326742 143.049689  L 362.943342 141.81664  L 369.559943 140.654968  L 369.559943 140.654968  "
           clip-path="url(#p8287ed2316)" />
      </g>
      <g
         id="line2d_46">
        <defs
           id="defs2535">
          <path
             style="stroke:#000000;"
             id="meda0eb969e"
             d="M 0 3  C 0.795609 3 1.55874 2.683901 2.12132 2.12132  C 2.683901 1.55874 3 0.795609 3 0  C 3 -0.795609 2.683901 -1.55874 2.12132 -2.12132  C 1.55874 -2.683901 0.795609 -3 0 -3  C -0.795609 -3 -1.55874 -2.683901 -2.12132 -2.12132  C -2.683901 -1.55874 -3 -0.795609 -3 0  C -3 0.795609 -2.683901 1.55874 -2.12132 2.12132  C -1.55874 2.683901 -0.795609 3 0 3  z " />
        </defs>
        <g
           id="g2683"
           clip-path="url(#p8287ed2316)">
          <use
             id="use2537"
             y="130.146068"
             xlink:href="#meda0eb969e"
             x="78.164844"
             style="stroke:#000000;" />
          <use
             id="use2539"
             y="133.947945"
             xlink:href="#meda0eb969e"
             x="80.679153"
             style="stroke:#000000;" />
          <use
             id="use2541"
             y="133.110591"
             xlink:href="#meda0eb969e"
             x="82.399469"
             style="stroke:#000000;" />
          <use
             id="use2543"
             y="141.55864"
             xlink:href="#meda0eb969e"
             x="84.384449"
             style="stroke:#000000;" />
          <use
             id="use2545"
             y="138.173741"
             xlink:href="#meda0eb969e"
             x="86.104765"
             style="stroke:#000000;" />
          <use
             id="use2547"
             y="147.876619"
             xlink:href="#meda0eb969e"
             x="89.01607"
             style="stroke:#000000;" />
          <use
             id="use2549"
             y="147.7347"
             xlink:href="#meda0eb969e"
             x="92.589034"
             style="stroke:#000000;" />
          <use
             id="use2551"
             y="148.74438"
             xlink:href="#meda0eb969e"
             x="94.97101"
             style="stroke:#000000;" />
          <use
             id="use2553"
             y="146.086679"
             xlink:href="#meda0eb969e"
             x="98.940971"
             style="stroke:#000000;" />
          <use
             id="use2555"
             y="163.153821"
             xlink:href="#meda0eb969e"
             x="106.219232"
             style="stroke:#000000;" />
          <use
             id="use2557"
             y="132.773418"
             xlink:href="#meda0eb969e"
             x="78.164844"
             style="stroke:#000000;" />
          <use
             id="use2559"
             y="154.368599"
             xlink:href="#meda0eb969e"
             x="94.044686"
             style="stroke:#000000;" />
          <use
             id="use2561"
             y="168.842619"
             xlink:href="#meda0eb969e"
             x="115.085477"
             style="stroke:#000000;" />
          <use
             id="use2563"
             y="170.811322"
             xlink:href="#meda0eb969e"
             x="121.17275"
             style="stroke:#000000;" />
          <use
             id="use2565"
             y="170.536757"
             xlink:href="#meda0eb969e"
             x="128.318678"
             style="stroke:#000000;" />
          <use
             id="use2567"
             y="172.696913"
             xlink:href="#meda0eb969e"
             x="134.405951"
             style="stroke:#000000;" />
          <use
             id="use2569"
             y="168.083605"
             xlink:href="#meda0eb969e"
             x="141.55188"
             style="stroke:#000000;" />
          <use
             id="use2571"
             y="173.295266"
             xlink:href="#meda0eb969e"
             x="142.822609"
             style="stroke:#000000;" />
          <use
             id="use2573"
             y="167.103627"
             xlink:href="#meda0eb969e"
             x="143.862949"
             style="stroke:#000000;" />
          <use
             id="use2575"
             y="166.438177"
             xlink:href="#meda0eb969e"
             x="145.504811"
             style="stroke:#000000;" />
          <use
             id="use2577"
             y="159.227358"
             xlink:href="#meda0eb969e"
             x="145.504811"
             style="stroke:#000000;" />
          <use
             id="use2579"
             y="159.662399"
             xlink:href="#meda0eb969e"
             x="144.924379"
             style="stroke:#000000;" />
          <use
             id="use2581"
             y="166.532245"
             xlink:href="#meda0eb969e"
             x="148.06602"
             style="stroke:#000000;" />
          <use
             id="use2583"
             y="166.673963"
             xlink:href="#meda0eb969e"
             x="150.02381"
             style="stroke:#000000;" />
          <use
             id="use2585"
             y="165.605975"
             xlink:href="#meda0eb969e"
             x="150.02381"
             style="stroke:#000000;" />
          <use
             id="use2587"
             y="156.952219"
             xlink:href="#meda0eb969e"
             x="149.933278"
             style="stroke:#000000;" />
          <use
             id="use2589"
             y="158.834627"
             xlink:href="#meda0eb969e"
             x="154.843518"
             style="stroke:#000000;" />
          <use
             id="use2591"
             y="156.266687"
             xlink:href="#meda0eb969e"
             x="154.843518"
             style="stroke:#000000;" />
          <use
             id="use2593"
             y="162.511813"
             xlink:href="#meda0eb969e"
             x="160.099457"
             style="stroke:#000000;" />
          <use
             id="use2595"
             y="152.623192"
             xlink:href="#meda0eb969e"
             x="159.563293"
             style="stroke:#000000;" />
          <use
             id="use2597"
             y="147.273108"
             xlink:href="#meda0eb969e"
             x="157.67137"
             style="stroke:#000000;" />
          <use
             id="use2599"
             y="151.79099"
             xlink:href="#meda0eb969e"
             x="161.847892"
             style="stroke:#000000;" />
          <use
             id="use2601"
             y="162.756561"
             xlink:href="#meda0eb969e"
             x="163.533398"
             style="stroke:#000000;" />
          <use
             id="use2603"
             y="153.42372"
             xlink:href="#meda0eb969e"
             x="168.385186"
             style="stroke:#000000;" />
          <use
             id="use2605"
             y="145.268901"
             xlink:href="#meda0eb969e"
             x="168.385186"
             style="stroke:#000000;" />
          <use
             id="use2607"
             y="144.842996"
             xlink:href="#meda0eb969e"
             x="168.508271"
             style="stroke:#000000;" />
          <use
             id="use2609"
             y="144.842996"
             xlink:href="#meda0eb969e"
             x="169.751701"
             style="stroke:#000000;" />
          <use
             id="use2611"
             y="143.005309"
             xlink:href="#meda0eb969e"
             x="167.046881"
             style="stroke:#000000;" />
          <use
             id="use2613"
             y="144.842996"
             xlink:href="#meda0eb969e"
             x="176.068174"
             style="stroke:#000000;" />
          <use
             id="use2615"
             y="134.59104"
             xlink:href="#meda0eb969e"
             x="176.622148"
             style="stroke:#000000;" />
          <use
             id="use2617"
             y="133.182157"
             xlink:href="#meda0eb969e"
             x="174.702448"
             style="stroke:#000000;" />
          <use
             id="use2619"
             y="140.916632"
             xlink:href="#meda0eb969e"
             x="180.776028"
             style="stroke:#000000;" />
          <use
             id="use2621"
             y="124.757612"
             xlink:href="#meda0eb969e"
             x="182.569051"
             style="stroke:#000000;" />
          <use
             id="use2623"
             y="151.79099"
             xlink:href="#meda0eb969e"
             x="165.735922"
             style="stroke:#000000;" />
          <use
             id="use2625"
             y="148.213879"
             xlink:href="#meda0eb969e"
             x="166.686569"
             style="stroke:#000000;" />
          <use
             id="use2627"
             y="153.020494"
             xlink:href="#meda0eb969e"
             x="168.385186"
             style="stroke:#000000;" />
          <use
             id="use2629"
             y="151.79099"
             xlink:href="#meda0eb969e"
             x="170.891431"
             style="stroke:#000000;" />
          <use
             id="use2631"
             y="149.188558"
             xlink:href="#meda0eb969e"
             x="170.0032"
             style="stroke:#000000;" />
          <use
             id="use2633"
             y="144.423694"
             xlink:href="#meda0eb969e"
             x="174.837825"
             style="stroke:#000000;" />
          <use
             id="use2635"
             y="140.553614"
             xlink:href="#meda0eb969e"
             x="175.381899"
             style="stroke:#000000;" />
          <use
             id="use2637"
             y="144.423694"
             xlink:href="#meda0eb969e"
             x="177.743613"
             style="stroke:#000000;" />
          <use
             id="use2639"
             y="138.808207"
             xlink:href="#meda0eb969e"
             x="171.92127"
             style="stroke:#000000;" />
          <use
             id="use2641"
             y="135.622832"
             xlink:href="#meda0eb969e"
             x="172.704176"
             style="stroke:#000000;" />
          <use
             id="use2643"
             y="135.622832"
             xlink:href="#meda0eb969e"
             x="171.79163"
             style="stroke:#000000;" />
          <use
             id="use2645"
             y="132.773418"
             xlink:href="#meda0eb969e"
             x="173.762573"
             style="stroke:#000000;" />
          <use
             id="use2647"
             y="135.773498"
             xlink:href="#meda0eb969e"
             x="178.596683"
             style="stroke:#000000;" />
          <use
             id="use2649"
             y="132.908979"
             xlink:href="#meda0eb969e"
             x="178.168843"
             style="stroke:#000000;" />
          <use
             id="use2651"
             y="126.738629"
             xlink:href="#meda0eb969e"
             x="183.482566"
             style="stroke:#000000;" />
          <use
             id="use2653"
             y="126.630667"
             xlink:href="#meda0eb969e"
             x="186.934116"
             style="stroke:#000000;" />
          <use
             id="use2655"
             y="121.628149"
             xlink:href="#meda0eb969e"
             x="188.230357"
             style="stroke:#000000;" />
          <use
             id="use2657"
             y="159.662399"
             xlink:href="#meda0eb969e"
             x="164.974647"
             style="stroke:#000000;" />
          <use
             id="use2659"
             y="158.238679"
             xlink:href="#meda0eb969e"
             x="166.694963"
             style="stroke:#000000;" />
          <use
             id="use2661"
             y="158.238679"
             xlink:href="#meda0eb969e"
             x="166.827295"
             style="stroke:#000000;" />
          <use
             id="use2663"
             y="153.192569"
             xlink:href="#meda0eb969e"
             x="173.0469"
             style="stroke:#000000;" />
          <use
             id="use2665"
             y="156.558361"
             xlink:href="#meda0eb969e"
             x="174.237888"
             style="stroke:#000000;" />
          <use
             id="use2667"
             y="152.342936"
             xlink:href="#meda0eb969e"
             x="179.6635"
             style="stroke:#000000;" />
          <use
             id="use2669"
             y="153.481817"
             xlink:href="#meda0eb969e"
             x="181.516149"
             style="stroke:#000000;" />
          <use
             id="use2671"
             y="154.069763"
             xlink:href="#meda0eb969e"
             x="184.162789"
             style="stroke:#000000;" />
          <use
             id="use2673"
             y="147.975601"
             xlink:href="#meda0eb969e"
             x="188.529746"
             style="stroke:#000000;" />
          <use
             id="use2675"
             y="150.199683"
             xlink:href="#meda0eb969e"
             x="189.323738"
             style="stroke:#000000;" />
          <use
             id="use2677"
             y="152.065555"
             xlink:href="#meda0eb969e"
             x="196.734331"
             style="stroke:#000000;" />
          <use
             id="use2679"
             y="139.666832"
             xlink:href="#meda0eb969e"
             x="199.910299"
             style="stroke:#000000;" />
          <use
             id="use2681"
             y="140.553614"
             xlink:href="#meda0eb969e"
             x="202.821603"
             style="stroke:#000000;" />
        </g>
      </g>
      <g
         id="patch_3">
        <path
           id="path2686"
           style="fill:none;stroke:#000000;stroke-linecap:square;stroke-linejoin:miter;stroke-width:0.8;"
           d="M 49.978125 239.758125  L 49.978125 22.318125  " />
      </g>
      <g
         id="patch_4">
        <path
           id="path2689"
           style="fill:none;stroke:#000000;stroke-linecap:square;stroke-linejoin:miter;stroke-width:0.8;"
           d="M 384.778125 239.758125  L 384.778125 22.318125  " />
      </g>
      <g
         id="patch_5">
        <path
           id="path2692"
           style="fill:none;stroke:#000000;stroke-linecap:square;stroke-linejoin:miter;stroke-width:0.8;"
           d="M 49.978125 239.758125  L 384.778125 239.758125  " />
      </g>
      <g
         id="patch_6">
        <path
           id="path2695"
           style="fill:none;stroke:#000000;stroke-linecap:square;stroke-linejoin:miter;stroke-width:0.8;"
           d="M 49.978125 22.318125  L 384.778125 22.318125  " />
      </g>
      <g
         id="text_12">
        <!-- 2 HO2 &lt;=&gt; H2O2 + O2 -->
        <defs
           id="defs2704">
          <path
             id="DejaVuSans-72"
             d="M 9.8125 72.90625  L 19.671875 72.90625  L 19.671875 43.015625  L 55.515625 43.015625  L 55.515625 72.90625  L 65.375 72.90625  L 65.375 0  L 55.515625 0  L 55.515625 34.71875  L 19.671875 34.71875  L 19.671875 0  L 9.8125 0  z " />
          <path
             id="DejaVuSans-79"
             d="M 39.40625 66.21875  Q 28.65625 66.21875 22.328125 58.203125  Q 16.015625 50.203125 16.015625 36.375  Q 16.015625 22.609375 22.328125 14.59375  Q 28.65625 6.59375 39.40625 6.59375  Q 50.140625 6.59375 56.421875 14.59375  Q 62.703125 22.609375 62.703125 36.375  Q 62.703125 50.203125 56.421875 58.203125  Q 50.140625 66.21875 39.40625 66.21875  z M 39.40625 74.21875  Q 54.734375 74.21875 63.90625 63.9375  Q 73.09375 53.65625 73.09375 36.375  Q 73.09375 19.140625 63.90625 8.859375  Q 54.734375 -1.421875 39.40625 -1.421875  Q 24.03125 -1.421875 14.8125 8.828125  Q 5.609375 19.09375 5.609375 36.375  Q 5.609375 53.65625 14.8125 63.9375  Q 24.03125 74.21875 39.40625 74.21875  z " />
          <path
             id="DejaVuSans-60"
             d="M 73.1875 49.21875  L 22.796875 31.296875  L 73.1875 13.484375  L 73.1875 4.59375  L 10.59375 27.296875  L 10.59375 35.40625  L 73.1875 58.109375  z " />
          <path
             id="DejaVuSans-61"
             d="M 10.59375 45.40625  L 73.1875 45.40625  L 73.1875 37.203125  L 10.59375 37.203125  z M 10.59375 25.484375  L 73.1875 25.484375  L 73.1875 17.1875  L 10.59375 17.1875  z " />
          <path
             id="DejaVuSans-62"
             d="M 10.59375 49.21875  L 10.59375 58.109375  L 73.1875 35.40625  L 73.1875 27.296875  L 10.59375 4.59375  L 10.59375 13.484375  L 60.890625 31.296875  z " />
          <path
             id="DejaVuSans-43"
             d="M 46 62.703125  L 46 35.5  L 73.1875 35.5  L 73.1875 27.203125  L 46 27.203125  L 46 0  L 37.796875 0  L 37.796875 27.203125  L 10.59375 27.203125  L 10.59375 35.5  L 37.796875 35.5  L 37.796875 62.703125  z " />
        </defs>
        <g
           id="g2744"
           transform="translate(145.45125 16.318125)scale(0.12 -0.12)">
          <use
             id="use2706"
             xlink:href="#DejaVuSans-50" />
          <use
             id="use2708"
             xlink:href="#DejaVuSans-32"
             x="63.623047" />
          <use
             id="use2710"
             xlink:href="#DejaVuSans-72"
             x="95.410156" />
          <use
             id="use2712"
             xlink:href="#DejaVuSans-79"
             x="170.605469" />
          <use
             id="use2714"
             xlink:href="#DejaVuSans-50"
             x="249.316406" />
          <use
             id="use2716"
             xlink:href="#DejaVuSans-32"
             x="312.939453" />
          <use
             id="use2718"
             xlink:href="#DejaVuSans-60"
             x="344.726562" />
          <use
             id="use2720"
             xlink:href="#DejaVuSans-61"
             x="428.515625" />
          <use
             id="use2722"
             xlink:href="#DejaVuSans-62"
             x="512.304688" />
          <use
             id="use2724"
             xlink:href="#DejaVuSans-32"
             x="596.09375" />
          <use
             id="use2726"
             xlink:href="#DejaVuSans-72"
             x="627.880859" />
          <use
             id="use2728"
             xlink:href="#DejaVuSans-50"
             x="703.076172" />
          <use
             id="use2730"
             xlink:href="#DejaVuSans-79"
             x="766.699219" />
          <use
             id="use2732"
             xlink:href="#DejaVuSans-50"
             x="845.410156" />
          <use
             id="use2734"
             xlink:href="#DejaVuSans-32"
             x="909.033203" />
          <use
             id="use2736"
             xlink:href="#DejaVuSans-43"
             x="940.820312" />
          <use
             id="use2738"
             xlink:href="#DejaVuSans-32"
             x="1024.609375" />
          <use
             id="use2740"
             xlink:href="#DejaVuSans-79"
             x="1056.396484" />
          <use
             id="use2742"
             xlink:href="#DejaVuSans-50"
             x="1135.107422" />
        </g>
      </g>
    </g>
  </g>
  <defs
     id="defs2752">
    <clipPath
       id="p8287ed2316">
      <rect
         id="rect2749"
         y="22.318125"
         x="49.978125"
         width="334.8"
         height="217.44" />
    </clipPath>
  </defs>
  <g
     transform="translate(-0.01902984,-0.05201774)"
     style="stroke-linecap:butt;stroke-linejoin:round"
     id="figure_1-3">
    <g
       style="stroke-linecap:butt;stroke-linejoin:round"
       id="axes_1-7">
      <g
         style="stroke:#00ff00;stroke-linecap:butt;stroke-linejoin:round;stroke-opacity:1"
         id="line2d_43-1">
        <path
           id="path3970"
           style="fill:none;stroke:#00ff00;stroke-width:1.5;stroke-linecap:square;stroke-linejoin:round;stroke-opacity:1"
           d="m 71.812908,87.339698 3.043636,6.514507 2.911304,5.712407 2.911305,5.216808 2.911304,4.75192 2.911304,4.32417 2.911305,3.93435 3.043636,3.73547 3.043636,3.38658 3.175969,3.19855 3.175973,2.88989 3.3083,2.71464 3.44063,2.53493 3.57296,2.35245 3.7053,2.16863 3.83763,1.98467 3.96996,1.80155 4.10229,1.62009 4.36696,1.48251 4.49928,1.29329 4.76396,1.13762 5.02861,0.96989 5.29328,0.79283 5.55795,0.60901 5.95494,0.42803 6.35194,0.2316 6.74893,0.024 7.27826,-0.1961 7.93992,-0.4386 8.73391,-0.71025 9.66024,-1.01396 10.98356,-1.38398 12.8362,-1.85018 16.27684,-2.58355 64.31336,-10.45018 14.68886,-2.02287 13.2332,-1.6019 12.30687,-1.26919 11.64522,-0.9798 3.17597,-0.22691 v 0"
           clip-path="url(#pb3973cdf16)" />
      </g>
      <g
         style="stroke:#00ff00;stroke-linecap:butt;stroke-linejoin:round;stroke-opacity:1"
         id="line2d_44-7">
        <path
           id="path3973"
           style="fill:none;stroke:#00ff00;stroke-width:1.5;stroke-linecap:butt;stroke-linejoin:round;stroke-dasharray:5.55, 2.4;stroke-dashoffset:0;stroke-opacity:1"
           d="m 65.196307,32.201761 6.616601,16.967702 6.351936,14.477653 v 0 l 0.264664,0.558306 2.249645,4.602752 1.720316,3.350961 1.98498,3.691286 0.66166,1.189976 1.058656,1.863049 2.911305,4.873084 2.64664,4.128377 0.926324,1.380687 1.455652,2.105199 0.926324,1.29981 3.308301,4.401196 0.66166,0.836923 5.954939,6.935178 1.32332,1.40464 5.29328,5.1713 3.57297,3.11789 3.04363,2.44035 3.04364,2.2562 3.57296,2.43001 3.57297,2.21098 3.04363,1.72288 3.04364,1.5849 3.57297,1.69586 3.57296,1.52987 1.27073,0.50629 1.04034,0.4003 0.73257,0.27435 0.32886,0.12117 0.58043,0.21087 v 0 l 2.56121,0.88607 1.86726,0.60176 0.0905,0.0283 v 0 l 1.18831,0.36314 3.6314,1.02339 v 0 l 2.82785,0.71108 0.15735,0.0374 1.73457,0.39848 0.53617,0.11793 1.74843,0.36778 1.68551,0.33082 0.91192,0.16955 0.52933,0.0954 0.76127,0.13346 0.95065,0.16045 0.008,0.001 0.13233,0.0218 0.21959,0.0359 1.33831,0.2109 v 0 0 l 0.12308,0.0187 1.24343,0.18322 0.2515,0.0357 0.88823,0.12262 0.17049,0.0229 0.72971,0.0958 0.12964,0.0166 0.78291,0.0981 0.34272,0.0416 0.71567,0.0844 0.47532,0.0542 0.46456,0.0516 0.13537,0.0148 0.54408,0.0582 0.68627,0.0707 0.55398,0.0549 1.05637,0.0994 0.0651,0.006 0.42523,0.0379 0.42784,0.037 1.06682,0.0876 1.11253,0.0843 0.74012,0.0521 1.0529,0.0688 0.91352,0.0547 0.68022,0.0378 0.13233,0.007 2.639,0.12143 1.29624,0.0465 0.29939,0.01 0.79399,0.0232 1.58798,0.0371 5.82261,0.037 0.79399,-0.006 2.38198,-0.0348 2.9113,-0.0728 1.32332,-0.0436 6.6166,-0.30985 6.6166,-0.44748 6.61661,-0.56594 6.6166,-0.6669 6.6166,-0.75183 6.6166,-0.82207 6.6166,-0.87882 6.6166,-0.9232 6.6166,-0.95614 6.6166,-0.97858 6.6166,-0.99128 6.6166,-0.99498 6.6166,-0.99031 6.6166,-0.97787 6.6166,-0.95817 v 0 l 6.61661,-0.93169 6.6166,-0.89885 6.6166,-0.86005 6.6166,-0.81566 6.6166,-0.76603 6.6166,-0.71145 6.6166,-0.65228 6.6166,-0.58879 6.6166,-0.52129 6.6166,-0.45009 v 0"
           clip-path="url(#pb3973cdf16)" />
      </g>
      <g
         style="stroke:#00ff00;stroke-linecap:butt;stroke-linejoin:round;stroke-opacity:1"
         id="line2d_45-7">
        <path
           id="path3976"
           style="fill:none;stroke:#00ff00;stroke-width:1.5;stroke-linecap:butt;stroke-linejoin:round;stroke-dasharray:5.55, 2.4;stroke-dashoffset:0;stroke-opacity:1"
           d="m 65.196307,111.08313 6.616601,14.4268 6.351936,11.45618 v 0 l 0.264664,0.41816 2.249645,3.37441 1.720316,2.37267 1.98498,2.52916 0.66166,0.79609 1.058656,1.22723 2.911305,3.09757 2.64664,2.49361 0.926324,0.80653 1.455652,1.20273 0.926324,0.72606 3.308301,2.36223 0.66166,0.43197 5.954939,3.35598 1.32332,0.62869 5.29328,2.15278 3.57297,1.16447 3.04363,0.8333 3.04364,0.70303 3.57296,0.67647 3.57297,0.53304 3.04363,0.35288 3.04364,0.26892 3.57297,0.21885 3.57296,0.12463 1.27073,0.0235 1.04034,0.0115 0.73257,0.004 0.32886,7.9e-4 0.58043,-2e-4 v 0 l 2.56121,-0.0241 1.86726,-0.0403 0.0905,-0.002 v 0 l 1.18831,-0.0356 3.6314,-0.15153 v 0 l 2.82785,-0.15939 0.15735,-0.01 1.73457,-0.11545 0.53617,-0.0381 1.74843,-0.13193 1.68551,-0.13786 0.91192,-0.0788 0.52933,-0.047 0.76127,-0.0693 0.95065,-0.0892 0.008,-8e-4 0.13233,-0.0127 0.21959,-0.0211 1.33831,-0.13209 v 0 0 l 0.12308,-0.0124 1.24343,-0.12812 0.2515,-0.0265 0.88823,-0.095 0.17049,-0.0185 0.72971,-0.0801 0.12964,-0.0144 0.78291,-0.0879 0.34272,-0.039 0.71567,-0.0824 0.47532,-0.0555 0.46456,-0.0548 0.13537,-0.0161 0.54408,-0.0651 0.68627,-0.0832 0.55398,-0.068 1.05637,-0.13175 0.0651,-0.008 0.42523,-0.0538 0.42784,-0.0546 1.06682,-0.13802 1.11253,-0.14666 0.74012,-0.0991 1.0529,-0.14295 0.91352,-0.1259 0.68022,-0.0948 0.13233,-0.0186 2.639,-0.37718 1.29624,-0.19001 0.29939,-0.0443 0.79399,-0.11829 1.58798,-0.23978 5.82261,-0.91326 0.79399,-0.12836 2.38198,-0.39012 2.9113,-0.48648 1.32332,-0.22441 6.6166,-1.14948 6.6166,-1.18845 6.61661,-1.21899 6.6166,-1.24202 6.6166,-1.25819 6.6166,-1.26807 6.6166,-1.27207 6.6166,-1.27053 6.6166,-1.2637 6.6166,-1.25179 6.6166,-1.23498 6.6166,-1.2134 6.6166,-1.18716 6.6166,-1.15637 6.6166,-1.12111 v 0 l 6.61661,-1.08144 6.6166,-1.03745 6.6166,-0.98917 6.6166,-0.93663 6.6166,-0.87985 6.6166,-0.81887 6.6166,-0.75363 6.6166,-0.68414 6.6166,-0.61034 6.6166,-0.53213 v 0"
           clip-path="url(#pb3973cdf16)" />
      </g>
      <g
         style="stroke-linecap:butt;stroke-linejoin:round"
         id="patch_3-1">
        <path
           id="path4140"
           style="fill:none;stroke:#000000;stroke-width:0.80000001;stroke-linecap:square;stroke-linejoin:miter"
           d="M 49.978125,239.75812 V 22.318125" />
      </g>
      <g
         style="stroke-linecap:butt;stroke-linejoin:round"
         id="patch_4-5">
        <path
           id="path4143"
           style="fill:none;stroke:#000000;stroke-width:0.80000001;stroke-linecap:square;stroke-linejoin:miter"
           d="M 384.77812,239.75812 V 22.318125" />
      </g>
      <g
         style="stroke-linecap:butt;stroke-linejoin:round"
         id="patch_5-9">
        <path
           id="path4146"
           style="fill:none;stroke:#000000;stroke-width:0.80000001;stroke-linecap:square;stroke-linejoin:miter"
           d="M 49.978125,239.75812 H 384.77812" />
      </g>
      <g
         style="stroke-linecap:butt;stroke-linejoin:round"
         id="patch_6-7">
        <path
           id="path4149"
           style="fill:none;stroke:#000000;stroke-width:0.80000001;stroke-linecap:square;stroke-linejoin:miter"
           d="M 49.978125,22.318125 H 384.77812" />
      </g>
    </g>
  </g>
</svg>
