<?xml version="1.0" encoding="UTF-8" standalone="no"?>
<svg
   xmlns:dc="http://purl.org/dc/elements/1.1/"
   xmlns:cc="http://creativecommons.org/ns#"
   xmlns:rdf="http://www.w3.org/1999/02/22-rdf-syntax-ns#"
   xmlns:svg="http://www.w3.org/2000/svg"
   xmlns="http://www.w3.org/2000/svg"
   xmlns:xlink="http://www.w3.org/1999/xlink"
   id="svg2636"
   width="395.478125pt"
   viewBox="0 0 395.478125 277.314375"
   version="1.1"
   height="277.314375pt">
  <metadata
     id="metadata2640">
    <rdf:RDF>
      <cc:Work
         rdf:about="">
        <dc:format>image/svg+xml</dc:format>
        <dc:type
           rdf:resource="http://purl.org/dc/dcmitype/StillImage" />
        <dc:title></dc:title>
      </cc:Work>
    </rdf:RDF>
  </metadata>
  <defs
     id="defs2053">
    <style
       id="style2051"
       type="text/css">
*{stroke-linecap:butt;stroke-linejoin:round;}
  </style>
    <clipPath
       id="pf848a59b89">
      <rect
         id="rect3851"
         y="22.318125"
         x="49.978127"
         width="334.79999"
         height="217.44" />
    </clipPath>
    <clipPath
       id="clipPath4417">
      <rect
         id="rect4415"
         y="22.318125"
         x="49.978127"
         width="334.79999"
         height="217.44" />
    </clipPath>
    <clipPath
       id="clipPath4421">
      <rect
         id="rect4419"
         y="22.318125"
         x="49.978127"
         width="334.79999"
         height="217.44" />
    </clipPath>
    <clipPath
       id="clipPath4425">
      <rect
         id="rect4423"
         y="22.318125"
         x="49.978127"
         width="334.79999"
         height="217.44" />
    </clipPath>
    <clipPath
       id="clipPath4429">
      <rect
         id="rect4427"
         y="22.318125"
         x="49.978127"
         width="334.79999"
         height="217.44" />
    </clipPath>
    <clipPath
       id="clipPath4433">
      <rect
         id="rect4431"
         y="22.318125"
         x="49.978127"
         width="334.79999"
         height="217.44" />
    </clipPath>
    <clipPath
       id="clipPath4437">
      <rect
         id="rect4435"
         y="22.318125"
         x="49.978127"
         width="334.79999"
         height="217.44" />
    </clipPath>
    <path
       style="stroke:#000000;stroke-width:0.80000001"
       id="me8ab29c10c"
       d="M 0,0 V 3.5" />
    <path
       id="DejaVuSans-53-9"
       d="m 10.796875,72.90625 h 38.71875 v -8.3125 h -29.6875 V 46.734375 q 2.140625,0.734375 4.28125,1.09375 2.15625,0.359375 4.3125,0.359375 Q 40.625,48.1875 47.75,41.5 54.890625,34.8125 54.890625,23.390625 54.890625,11.625 47.5625,5.09375 40.234375,-1.421875 26.90625,-1.421875 q -4.59375,0 -9.359375,0.78125 -4.75,0.78125 -9.828125,2.34375 V 11.625 q 4.390625,-2.390625 9.078125,-3.5625 4.6875,-1.171875 9.90625,-1.171875 8.453125,0 13.375,4.4375 4.9375,4.4375 4.9375,12.0625 0,7.609375 -4.9375,12.046875 -4.921875,4.453125 -13.375,4.453125 -3.953125,0 -7.890625,-0.875 -3.921875,-0.875 -8.015625,-2.734375 z" />
    <path
       id="DejaVuSans-48-1"
       d="m 31.78125,66.40625 q -7.609375,0 -11.453125,-7.5 Q 16.5,51.421875 16.5,36.375 q 0,-14.984375 3.828125,-22.484375 3.84375,-7.5 11.453125,-7.5 7.671875,0 11.5,7.5 3.84375,7.5 3.84375,22.484375 0,15.046875 -3.84375,22.53125 -3.828125,7.5 -11.5,7.5 z m 0,7.8125 q 12.265625,0 18.734375,-9.703125 6.46875,-9.6875 6.46875,-28.140625 0,-18.40625 -6.46875,-28.109375 -6.46875,-9.6875 -18.734375,-9.6875 -12.25,0 -18.71875,9.6875 Q 6.59375,17.96875 6.59375,36.375 q 0,18.453125 6.46875,28.140625 6.46875,9.703125 18.71875,9.703125 z" />
    <path
       id="DejaVuSans-49-9"
       d="m 12.40625,8.296875 h 16.109375 v 55.625 L 10.984375,60.40625 v 8.984375 l 17.4375,3.515625 H 38.28125 V 8.296875 H 54.390625 V 0 H 12.40625 Z" />
    <path
       id="DejaVuSans-50-1"
       d="M 19.1875,8.296875 H 53.609375 V 0 H 7.328125 v 8.296875 q 5.609375,5.8125 15.296875,15.59375 9.703125,9.796875 12.1875,12.640625 4.734375,5.3125 6.609375,9 1.890625,3.6875 1.890625,7.25 0,5.8125 -4.078125,9.46875 -4.078125,3.671875 -10.625,3.671875 -4.640625,0 -9.796875,-1.609375 -5.140625,-1.609375 -11,-4.890625 v 9.96875 Q 13.765625,71.78125 18.9375,73 q 5.1875,1.21875 9.484375,1.21875 11.328125,0 18.0625,-5.671875 6.734375,-5.65625 6.734375,-15.125 0,-4.5 -1.6875,-8.53125 Q 49.859375,40.875 45.40625,35.40625 44.1875,33.984375 37.640625,27.21875 31.109375,20.453125 19.1875,8.296875 Z" />
    <path
       id="DejaVuSans-84-0"
       d="M -0.296875,72.90625 H 61.375 v -8.3125 H 35.5 V 0 H 25.59375 V 64.59375 H -0.296875 Z" />
    <path
       id="DejaVuSans-101-2"
       d="m 56.203125,29.59375 v -4.390625 h -41.3125 q 0.59375,-9.28125 5.59375,-14.140625 5,-4.859375 13.9375,-4.859375 5.171875,0 10.03125,1.265625 4.859375,1.265625 9.65625,3.8125 v -8.5 q -4.84375,-2.046875 -9.921875,-3.125 -5.078125,-1.078125 -10.296875,-1.078125 -13.09375,0 -20.734375,7.609375 -7.640625,7.625 -7.640625,20.625 0,13.421875 7.25,21.296875 Q 20.015625,56 32.328125,56 q 11.03125,0 17.453125,-7.109375 6.421875,-7.09375 6.421875,-19.296875 z m -8.984375,2.640625 q -0.09375,7.359375 -4.125,11.75 -4.03125,4.40625 -10.671875,4.40625 -7.515625,0 -12.03125,-4.25 -4.515625,-4.25 -5.203125,-11.96875 z" />
    <path
       id="DejaVuSans-109-3"
       d="M 52,44.1875 Q 55.375,50.25 60.0625,53.125 64.75,56 71.09375,56 q 8.546875,0 13.1875,-5.984375 4.640625,-5.96875 4.640625,-17 V 0 h -9.03125 v 32.71875 q 0,7.859375 -2.796875,11.65625 -2.78125,3.8125 -8.484375,3.8125 -6.984375,0 -11.046875,-4.640625 -4.046875,-4.625 -4.046875,-12.640625 V 0 h -9.03125 v 32.71875 q 0,7.90625 -2.78125,11.6875 -2.78125,3.78125 -8.59375,3.78125 -6.890625,0 -10.953125,-4.65625 -4.046875,-4.65625 -4.046875,-12.625 V 0 h -9.03125 v 54.6875 h 9.03125 v -8.5 q 3.078125,5.03125 7.375,7.421875 Q 29.78125,56 35.6875,56 41.65625,56 45.828125,52.96875 50,49.953125 52,44.1875 Z" />
    <path
       id="DejaVuSans-112-7"
       d="m 18.109375,8.203125 v -29 H 9.078125 V 54.6875 h 9.03125 v -8.296875 q 2.84375,4.875 7.15625,7.234375 Q 29.59375,56 35.59375,56 q 9.96875,0 16.1875,-7.90625 6.234375,-7.90625 6.234375,-20.796875 0,-12.890625 -6.234375,-20.8125 -6.21875,-7.90625 -16.1875,-7.90625 -6,0 -10.328125,2.375 -4.3125,2.375 -7.15625,7.25 z M 48.6875,27.296875 q 0,9.90625 -4.078125,15.546875 -4.078125,5.640625 -11.203125,5.640625 -7.140625,0 -11.21875,-5.640625 -4.078125,-5.640625 -4.078125,-15.546875 0,-9.90625 4.078125,-15.546875 4.078125,-5.640625 11.21875,-5.640625 7.125,0 11.203125,5.640625 4.078125,5.640625 4.078125,15.546875 z" />
    <path
       id="DejaVuSans-114-5"
       d="m 41.109375,46.296875 q -1.515625,0.875 -3.296875,1.28125 Q 36.03125,48 33.890625,48 26.265625,48 22.1875,43.046875 18.109375,38.09375 18.109375,28.8125 V 0 h -9.03125 v 54.6875 h 9.03125 v -8.5 q 2.84375,4.984375 7.375,7.390625 Q 30.03125,56 36.53125,56 q 0.921875,0 2.046875,-0.125 1.125,-0.109375 2.484375,-0.359375 z" />
    <path
       id="DejaVuSans-97-9"
       d="m 34.28125,27.484375 q -10.890625,0 -15.09375,-2.484375 -4.203125,-2.484375 -4.203125,-8.5 0,-4.78125 3.15625,-7.59375 3.15625,-2.796875 8.5625,-2.796875 7.484375,0 12,5.296875 4.515625,5.296875 4.515625,14.078125 v 2 z m 17.921875,3.71875 V 0 H 43.21875 v 8.296875 q -3.078125,-4.96875 -7.671875,-7.34375 -4.59375,-2.375 -11.234375,-2.375 -8.390625,0 -13.359375,4.71875 Q 6,8.015625 6,15.921875 q 0,9.21875 6.171875,13.90625 6.1875,4.6875 18.4375,4.6875 H 43.21875 v 0.890625 q 0,6.203125 -4.078125,9.59375 -4.078125,3.390625 -11.453125,3.390625 -4.6875,0 -9.140625,-1.125 -4.4375,-1.125 -8.53125,-3.375 v 8.3125 q 4.921875,1.90625 9.5625,2.84375 Q 24.21875,56 28.609375,56 q 11.875,0 17.734375,-6.15625 5.859375,-6.140625 5.859375,-18.640625 z" />
    <path
       id="DejaVuSans-116-2"
       d="M 18.3125,70.21875 V 54.6875 h 18.5 v -6.984375 h -18.5 v -29.6875 q 0,-6.6875 1.828125,-8.59375 1.828125,-1.90625 7.453125,-1.90625 H 36.8125 V 0 H 27.59375 Q 17.1875,0 13.234375,3.875 9.28125,7.765625 9.28125,18.015625 v 29.6875 H 2.6875 V 54.6875 h 6.59375 v 15.53125 z" />
    <path
       id="DejaVuSans-117-2"
       d="M 8.5,21.578125 V 54.6875 h 8.984375 V 21.921875 q 0,-7.765625 3.015625,-11.65625 3.03125,-3.875 9.09375,-3.875 7.265625,0 11.484375,4.640625 4.234375,4.640625 4.234375,12.65625 v 31 h 8.984375 V 0 H 45.3125 V 8.40625 Q 42.046875,3.421875 37.71875,1 33.40625,-1.421875 27.6875,-1.421875 18.265625,-1.421875 13.375,4.4375 8.5,10.296875 8.5,21.578125 Z M 31.109375,56 Z" />
    <path
       id="DejaVuSans-32-8"
       d="" />
    <path
       id="DejaVuSans-40-9"
       d="M 31,75.875 Q 24.46875,64.65625 21.28125,53.65625 18.109375,42.671875 18.109375,31.390625 18.109375,20.125 21.3125,9.0625 24.515625,-2 31,-13.1875 H 23.1875 Q 15.875,-1.703125 12.234375,9.375 8.59375,20.453125 8.59375,31.390625 q 0,10.890625 3.609375,21.921875 3.625,11.046875 10.984375,22.5625 z" />
    <path
       id="DejaVuSans-75-7"
       d="m 9.8125,72.90625 h 9.859375 v -30.8125 l 32.71875,30.8125 H 65.09375 L 28.90625,38.921875 67.671875,0 H 54.6875 L 19.671875,35.109375 V 0 H 9.8125 Z" />
    <path
       id="DejaVuSans-41-3"
       d="m 8.015625,75.875 h 7.8125 q 7.3125,-11.515625 10.953125,-22.5625 3.640625,-11.03125 3.640625,-21.921875 0,-10.9375 -3.640625,-22.015625 -3.640625,-11.078125 -10.953125,-22.5625 h -7.8125 Q 14.5,-2 17.703125,9.0625 20.90625,20.125 20.90625,31.390625 q 0,11.28125 -3.203125,22.265625 -3.203125,11 -9.6875,22.21875 z" />
    <path
       style="stroke:#000000;stroke-width:0.80000001"
       id="m548dd496c3"
       d="M 0,0 H -3.5" />
    <path
       id="DejaVuSans-51-4"
       d="M 40.578125,39.3125 Q 47.65625,37.796875 51.625,33 q 3.984375,-4.78125 3.984375,-11.8125 0,-10.78125 -7.421875,-16.703125 -7.421875,-5.90625 -21.09375,-5.90625 -4.578125,0 -9.4375,0.90625 -4.859375,0.90625 -10.03125,2.71875 v 9.515625 q 4.09375,-2.390625 8.96875,-3.609375 4.890625,-1.21875 10.21875,-1.21875 9.265625,0 14.125,3.65625 4.859375,3.65625 4.859375,10.640625 0,6.453125 -4.515625,10.078125 -4.515625,3.640625 -12.5625,3.640625 h -8.5 v 8.109375 h 8.890625 q 7.265625,0 11.125,2.90625 3.859375,2.90625 3.859375,8.375 0,5.609375 -3.984375,8.609375 -3.96875,3.015625 -11.390625,3.015625 -4.0625,0 -8.703125,-0.890625 Q 15.375,64.15625 9.8125,62.3125 v 8.78125 q 5.625,1.5625 10.53125,2.34375 4.90625,0.78125 9.25,0.78125 11.234375,0 17.765625,-5.109375 6.546875,-5.09375 6.546875,-13.78125 0,-6.0625 -3.46875,-10.234375 -3.46875,-4.171875 -9.859375,-5.78125 z" />
    <path
       id="DejaVuSans-52-5"
       d="M 37.796875,64.3125 12.890625,25.390625 h 24.90625 z m -2.59375,8.59375 h 12.40625 V 25.390625 h 10.40625 V 17.1875 H 47.609375 V 0 h -9.8125 V 17.1875 H 4.890625 v 9.515625 z" />
    <path
       style="stroke:#000000;stroke-width:0.60000002"
       id="m22d81844e7"
       d="M 0,0 H -2" />
    <path
       id="DejaVuSans-111-2"
       d="m 30.609375,48.390625 q -7.21875,0 -11.421875,-5.640625 -4.203125,-5.640625 -4.203125,-15.453125 0,-9.8125 4.171875,-15.453125 4.1875,-5.640625 11.453125,-5.640625 7.1875,0 11.375,5.65625 4.203125,5.671875 4.203125,15.4375 0,9.71875 -4.203125,15.40625 -4.1875,5.6875 -11.375,5.6875 z m 0,7.609375 q 11.71875,0 18.40625,-7.625 6.703125,-7.609375 6.703125,-21.078125 0,-13.421875 -6.703125,-21.078125 -6.6875,-7.640625 -18.40625,-7.640625 -11.765625,0 -18.4375,7.640625 -6.65625,7.65625 -6.65625,21.078125 0,13.46875 6.65625,21.078125 Q 18.84375,56 30.609375,56 Z" />
    <path
       id="DejaVuSans-108-7"
       d="M 9.421875,75.984375 H 18.40625 V 0 H 9.421875 Z" />
    <path
       id="DejaVuSans-47-2"
       d="M 25.390625,72.90625 H 33.6875 L 8.296875,-9.28125 H 0 Z" />
    <path
       id="DejaVuSans-94-2"
       d="m 46.6875,72.90625 26.5,-27.203125 H 63.375 L 41.890625,64.984375 20.40625,45.703125 h -9.8125 L 37.109375,72.90625 Z" />
    <path
       id="DejaVuSans-45-6"
       d="m 4.890625,31.390625 h 26.3125 v -8 h -26.3125 z" />
    <path
       id="DejaVuSans-115-1"
       d="m 44.28125,53.078125 v -8.5 Q 40.484375,46.53125 36.375,47.5 q -4.09375,0.984375 -8.5,0.984375 -6.6875,0 -10.03125,-2.046875 Q 14.5,44.390625 14.5,40.28125 q 0,-3.125 2.390625,-4.90625 2.390625,-1.78125 9.625,-3.390625 l 3.078125,-0.6875 Q 39.15625,29.25 43.1875,25.515625 47.21875,21.78125 47.21875,15.09375 q 0,-7.625 -6.03125,-12.078125 -6.03125,-4.4375 -16.578125,-4.4375 -4.390625,0 -9.15625,0.859375 Q 10.6875,0.296875 5.421875,2 v 9.28125 q 4.984375,-2.59375 9.8125,-3.890625 4.828125,-1.28125 9.578125,-1.28125 6.34375,0 9.75,2.171875 3.421875,2.171875 3.421875,6.125 0,3.65625 -2.46875,5.609375 -2.453125,1.953125 -10.8125,3.765625 l -3.125,0.734375 q -8.34375,1.75 -12.0625,5.390625 -3.703125,3.640625 -3.703125,9.984375 0,7.71875 5.46875,11.90625 Q 16.75,56 26.8125,56 q 4.96875,0 9.359375,-0.734375 4.40625,-0.71875 8.109375,-2.1875 z" />
    <path
       style="stroke:#000000"
       id="m89149d4a4d"
       d="M 0,3 C 0.795609,3 1.55874,2.683901 2.12132,2.12132 2.683901,1.55874 3,0.795609 3,0 3,-0.795609 2.683901,-1.55874 2.12132,-2.12132 1.55874,-2.683901 0.795609,-3 0,-3 -0.795609,-3 -1.55874,-2.683901 -2.12132,-2.12132 -2.683901,-1.55874 -3,-0.795609 -3,0 -3,0.795609 -2.683901,1.55874 -2.12132,2.12132 -1.55874,2.683901 -0.795609,3 0,3 Z" />
    <path
       id="DejaVuSans-67-1"
       d="M 64.40625,67.28125 V 56.890625 q -4.984375,4.640625 -10.625,6.921875 -5.640625,2.296875 -11.984375,2.296875 -12.5,0 -19.140625,-7.640625 -6.640625,-7.640625 -6.640625,-22.09375 0,-14.40625 6.640625,-22.046875 Q 29.296875,6.6875 41.796875,6.6875 q 6.34375,0 11.984375,2.296875 5.640625,2.296875 10.625,6.9375 V 5.609375 Q 59.234375,2.09375 53.4375,0.328125 q -5.78125,-1.75 -12.21875,-1.75 -16.5625,0 -26.09375,10.125 Q 5.609375,18.84375 5.609375,36.375 q 0,17.578125 9.515625,27.703125 9.53125,10.140625 26.09375,10.140625 6.53125,0 12.3125,-1.734375 5.796875,-1.734375 10.875,-5.203125 z" />
    <path
       id="DejaVuSans-72-1"
       d="m 9.8125,72.90625 h 9.859375 V 43.015625 h 35.84375 V 72.90625 H 65.375 V 0 H 55.515625 V 34.71875 H 19.671875 V 0 H 9.8125 Z" />
    <path
       id="DejaVuSans-43-5"
       d="M 46,62.703125 V 35.5 H 73.1875 V 27.203125 H 46 V 0 H 37.796875 V 27.203125 H 10.59375 V 35.5 h 27.203125 v 27.203125 z" />
    <path
       id="DejaVuSans-79-9"
       d="m 39.40625,66.21875 q -10.75,0 -17.078125,-8.015625 -6.3125,-8 -6.3125,-21.828125 0,-13.765625 6.3125,-21.78125 6.328125,-8 17.078125,-8 10.734375,0 17.015625,8 6.28125,8.015625 6.28125,21.78125 0,13.828125 -6.28125,21.828125 -6.28125,8.015625 -17.015625,8.015625 z m 0,8 q 15.328125,0 24.5,-10.28125 9.1875,-10.28125 9.1875,-27.5625 0,-17.234375 -9.1875,-27.515625 -9.171875,-10.28125 -24.5,-10.28125 -15.375,0 -24.59375,10.25 Q 5.609375,19.09375 5.609375,36.375 q 0,17.28125 9.203125,27.5625 9.21875,10.28125 24.59375,10.28125 z" />
    <path
       id="DejaVuSans-60-7"
       d="M 73.1875,49.21875 22.796875,31.296875 73.1875,13.484375 V 4.59375 L 10.59375,27.296875 V 35.40625 L 73.1875,58.109375 Z" />
    <path
       id="DejaVuSans-61-7"
       d="M 10.59375,45.40625 H 73.1875 V 37.203125 H 10.59375 Z m 0,-19.921875 H 73.1875 V 17.1875 H 10.59375 Z" />
    <path
       id="DejaVuSans-62-6"
       d="m 10.59375,49.21875 v 8.890625 L 73.1875,35.40625 V 27.296875 L 10.59375,4.59375 v 8.890625 l 50.296875,17.8125 z" />
  </defs>
  <g
     id="figure_1">
    <g
       id="patch_1">
      <path
         id="path2055"
         style="fill:#ffffff;"
         d="M 0 277.314375  L 395.478125 277.314375  L 395.478125 0  L 0 0  z " />
    </g>
    <g
       id="axes_1">
      <g
         id="patch_2">
        <path
           id="path2058"
           style="fill:#ffffff;"
           d="M 49.978125 239.758125  L 384.778125 239.758125  L 384.778125 22.318125  L 49.978125 22.318125  z " />
      </g>
      <g
         id="matplotlib.axis_1">
        <g
           id="xtick_1">
          <g
             id="line2d_1">
            <defs
               id="defs2062">
              <path
                 style="stroke:#000000;stroke-width:0.8;"
                 id="m04d8b9e297"
                 d="M 0 0  L 0 3.5  " />
            </defs>
            <g
               id="g2066">
              <use
                 id="use2064"
                 y="239.758125"
                 xlink:href="#m04d8b9e297"
                 x="104.895912"
                 style="stroke:#000000;stroke-width:0.8;" />
            </g>
          </g>
          <g
             id="text_1">
            <!-- 500 -->
            <defs
               id="defs2071">
              <path
                 id="DejaVuSans-53"
                 d="M 10.796875 72.90625  L 49.515625 72.90625  L 49.515625 64.59375  L 19.828125 64.59375  L 19.828125 46.734375  Q 21.96875 47.46875 24.109375 47.828125  Q 26.265625 48.1875 28.421875 48.1875  Q 40.625 48.1875 47.75 41.5  Q 54.890625 34.8125 54.890625 23.390625  Q 54.890625 11.625 47.5625 5.09375  Q 40.234375 -1.421875 26.90625 -1.421875  Q 22.3125 -1.421875 17.546875 -0.640625  Q 12.796875 0.140625 7.71875 1.703125  L 7.71875 11.625  Q 12.109375 9.234375 16.796875 8.0625  Q 21.484375 6.890625 26.703125 6.890625  Q 35.15625 6.890625 40.078125 11.328125  Q 45.015625 15.765625 45.015625 23.390625  Q 45.015625 31 40.078125 35.4375  Q 35.15625 39.890625 26.703125 39.890625  Q 22.75 39.890625 18.8125 39.015625  Q 14.890625 38.140625 10.796875 36.28125  z " />
              <path
                 id="DejaVuSans-48"
                 d="M 31.78125 66.40625  Q 24.171875 66.40625 20.328125 58.90625  Q 16.5 51.421875 16.5 36.375  Q 16.5 21.390625 20.328125 13.890625  Q 24.171875 6.390625 31.78125 6.390625  Q 39.453125 6.390625 43.28125 13.890625  Q 47.125 21.390625 47.125 36.375  Q 47.125 51.421875 43.28125 58.90625  Q 39.453125 66.40625 31.78125 66.40625  z M 31.78125 74.21875  Q 44.046875 74.21875 50.515625 64.515625  Q 56.984375 54.828125 56.984375 36.375  Q 56.984375 17.96875 50.515625 8.265625  Q 44.046875 -1.421875 31.78125 -1.421875  Q 19.53125 -1.421875 13.0625 8.265625  Q 6.59375 17.96875 6.59375 36.375  Q 6.59375 54.828125 13.0625 64.515625  Q 19.53125 74.21875 31.78125 74.21875  z " />
            </defs>
            <g
               id="g2079"
               transform="translate(95.352162 254.356562)scale(0.1 -0.1)">
              <use
                 id="use2073"
                 xlink:href="#DejaVuSans-53" />
              <use
                 id="use2075"
                 xlink:href="#DejaVuSans-48"
                 x="63.623047" />
              <use
                 id="use2077"
                 xlink:href="#DejaVuSans-48"
                 x="127.246094" />
            </g>
          </g>
        </g>
        <g
           id="xtick_2">
          <g
             id="line2d_2">
            <g
               id="g2085">
              <use
                 id="use2083"
                 y="239.758125"
                 xlink:href="#m04d8b9e297"
                 x="171.061919"
                 style="stroke:#000000;stroke-width:0.8;" />
            </g>
          </g>
          <g
             id="text_2">
            <!-- 1000 -->
            <defs
               id="defs2089">
              <path
                 id="DejaVuSans-49"
                 d="M 12.40625 8.296875  L 28.515625 8.296875  L 28.515625 63.921875  L 10.984375 60.40625  L 10.984375 69.390625  L 28.421875 72.90625  L 38.28125 72.90625  L 38.28125 8.296875  L 54.390625 8.296875  L 54.390625 0  L 12.40625 0  z " />
            </defs>
            <g
               id="g2099"
               transform="translate(158.336919 254.356562)scale(0.1 -0.1)">
              <use
                 id="use2091"
                 xlink:href="#DejaVuSans-49" />
              <use
                 id="use2093"
                 xlink:href="#DejaVuSans-48"
                 x="63.623047" />
              <use
                 id="use2095"
                 xlink:href="#DejaVuSans-48"
                 x="127.246094" />
              <use
                 id="use2097"
                 xlink:href="#DejaVuSans-48"
                 x="190.869141" />
            </g>
          </g>
        </g>
        <g
           id="xtick_3">
          <g
             id="line2d_3">
            <g
               id="g2105">
              <use
                 id="use2103"
                 y="239.758125"
                 xlink:href="#m04d8b9e297"
                 x="237.227927"
                 style="stroke:#000000;stroke-width:0.8;" />
            </g>
          </g>
          <g
             id="text_3">
            <!-- 1500 -->
            <g
               id="g2116"
               transform="translate(224.502927 254.356562)scale(0.1 -0.1)">
              <use
                 id="use2108"
                 xlink:href="#DejaVuSans-49" />
              <use
                 id="use2110"
                 xlink:href="#DejaVuSans-53"
                 x="63.623047" />
              <use
                 id="use2112"
                 xlink:href="#DejaVuSans-48"
                 x="127.246094" />
              <use
                 id="use2114"
                 xlink:href="#DejaVuSans-48"
                 x="190.869141" />
            </g>
          </g>
        </g>
        <g
           id="xtick_4">
          <g
             id="line2d_4">
            <g
               id="g2122">
              <use
                 id="use2120"
                 y="239.758125"
                 xlink:href="#m04d8b9e297"
                 x="303.393935"
                 style="stroke:#000000;stroke-width:0.8;" />
            </g>
          </g>
          <g
             id="text_4">
            <!-- 2000 -->
            <defs
               id="defs2126">
              <path
                 id="DejaVuSans-50"
                 d="M 19.1875 8.296875  L 53.609375 8.296875  L 53.609375 0  L 7.328125 0  L 7.328125 8.296875  Q 12.9375 14.109375 22.625 23.890625  Q 32.328125 33.6875 34.8125 36.53125  Q 39.546875 41.84375 41.421875 45.53125  Q 43.3125 49.21875 43.3125 52.78125  Q 43.3125 58.59375 39.234375 62.25  Q 35.15625 65.921875 28.609375 65.921875  Q 23.96875 65.921875 18.8125 64.3125  Q 13.671875 62.703125 7.8125 59.421875  L 7.8125 69.390625  Q 13.765625 71.78125 18.9375 73  Q 24.125 74.21875 28.421875 74.21875  Q 39.75 74.21875 46.484375 68.546875  Q 53.21875 62.890625 53.21875 53.421875  Q 53.21875 48.921875 51.53125 44.890625  Q 49.859375 40.875 45.40625 35.40625  Q 44.1875 33.984375 37.640625 27.21875  Q 31.109375 20.453125 19.1875 8.296875  z " />
            </defs>
            <g
               id="g2136"
               transform="translate(290.668935 254.356562)scale(0.1 -0.1)">
              <use
                 id="use2128"
                 xlink:href="#DejaVuSans-50" />
              <use
                 id="use2130"
                 xlink:href="#DejaVuSans-48"
                 x="63.623047" />
              <use
                 id="use2132"
                 xlink:href="#DejaVuSans-48"
                 x="127.246094" />
              <use
                 id="use2134"
                 xlink:href="#DejaVuSans-48"
                 x="190.869141" />
            </g>
          </g>
        </g>
        <g
           id="xtick_5">
          <g
             id="line2d_5">
            <g
               id="g2142">
              <use
                 id="use2140"
                 y="239.758125"
                 xlink:href="#m04d8b9e297"
                 x="369.559943"
                 style="stroke:#000000;stroke-width:0.8;" />
            </g>
          </g>
          <g
             id="text_5">
            <!-- 2500 -->
            <g
               id="g2153"
               transform="translate(356.834943 254.356562)scale(0.1 -0.1)">
              <use
                 id="use2145"
                 xlink:href="#DejaVuSans-50" />
              <use
                 id="use2147"
                 xlink:href="#DejaVuSans-53"
                 x="63.623047" />
              <use
                 id="use2149"
                 xlink:href="#DejaVuSans-48"
                 x="127.246094" />
              <use
                 id="use2151"
                 xlink:href="#DejaVuSans-48"
                 x="190.869141" />
            </g>
          </g>
        </g>
        <g
           id="text_6">
          <!-- Temperature (K) -->
          <defs
             id="defs2169">
            <path
               id="DejaVuSans-84"
               d="M -0.296875 72.90625  L 61.375 72.90625  L 61.375 64.59375  L 35.5 64.59375  L 35.5 0  L 25.59375 0  L 25.59375 64.59375  L -0.296875 64.59375  z " />
            <path
               id="DejaVuSans-101"
               d="M 56.203125 29.59375  L 56.203125 25.203125  L 14.890625 25.203125  Q 15.484375 15.921875 20.484375 11.0625  Q 25.484375 6.203125 34.421875 6.203125  Q 39.59375 6.203125 44.453125 7.46875  Q 49.3125 8.734375 54.109375 11.28125  L 54.109375 2.78125  Q 49.265625 0.734375 44.1875 -0.34375  Q 39.109375 -1.421875 33.890625 -1.421875  Q 20.796875 -1.421875 13.15625 6.1875  Q 5.515625 13.8125 5.515625 26.8125  Q 5.515625 40.234375 12.765625 48.109375  Q 20.015625 56 32.328125 56  Q 43.359375 56 49.78125 48.890625  Q 56.203125 41.796875 56.203125 29.59375  z M 47.21875 32.234375  Q 47.125 39.59375 43.09375 43.984375  Q 39.0625 48.390625 32.421875 48.390625  Q 24.90625 48.390625 20.390625 44.140625  Q 15.875 39.890625 15.1875 32.171875  z " />
            <path
               id="DejaVuSans-109"
               d="M 52 44.1875  Q 55.375 50.25 60.0625 53.125  Q 64.75 56 71.09375 56  Q 79.640625 56 84.28125 50.015625  Q 88.921875 44.046875 88.921875 33.015625  L 88.921875 0  L 79.890625 0  L 79.890625 32.71875  Q 79.890625 40.578125 77.09375 44.375  Q 74.3125 48.1875 68.609375 48.1875  Q 61.625 48.1875 57.5625 43.546875  Q 53.515625 38.921875 53.515625 30.90625  L 53.515625 0  L 44.484375 0  L 44.484375 32.71875  Q 44.484375 40.625 41.703125 44.40625  Q 38.921875 48.1875 33.109375 48.1875  Q 26.21875 48.1875 22.15625 43.53125  Q 18.109375 38.875 18.109375 30.90625  L 18.109375 0  L 9.078125 0  L 9.078125 54.6875  L 18.109375 54.6875  L 18.109375 46.1875  Q 21.1875 51.21875 25.484375 53.609375  Q 29.78125 56 35.6875 56  Q 41.65625 56 45.828125 52.96875  Q 50 49.953125 52 44.1875  z " />
            <path
               id="DejaVuSans-112"
               d="M 18.109375 8.203125  L 18.109375 -20.796875  L 9.078125 -20.796875  L 9.078125 54.6875  L 18.109375 54.6875  L 18.109375 46.390625  Q 20.953125 51.265625 25.265625 53.625  Q 29.59375 56 35.59375 56  Q 45.5625 56 51.78125 48.09375  Q 58.015625 40.1875 58.015625 27.296875  Q 58.015625 14.40625 51.78125 6.484375  Q 45.5625 -1.421875 35.59375 -1.421875  Q 29.59375 -1.421875 25.265625 0.953125  Q 20.953125 3.328125 18.109375 8.203125  z M 48.6875 27.296875  Q 48.6875 37.203125 44.609375 42.84375  Q 40.53125 48.484375 33.40625 48.484375  Q 26.265625 48.484375 22.1875 42.84375  Q 18.109375 37.203125 18.109375 27.296875  Q 18.109375 17.390625 22.1875 11.75  Q 26.265625 6.109375 33.40625 6.109375  Q 40.53125 6.109375 44.609375 11.75  Q 48.6875 17.390625 48.6875 27.296875  z " />
            <path
               id="DejaVuSans-114"
               d="M 41.109375 46.296875  Q 39.59375 47.171875 37.8125 47.578125  Q 36.03125 48 33.890625 48  Q 26.265625 48 22.1875 43.046875  Q 18.109375 38.09375 18.109375 28.8125  L 18.109375 0  L 9.078125 0  L 9.078125 54.6875  L 18.109375 54.6875  L 18.109375 46.1875  Q 20.953125 51.171875 25.484375 53.578125  Q 30.03125 56 36.53125 56  Q 37.453125 56 38.578125 55.875  Q 39.703125 55.765625 41.0625 55.515625  z " />
            <path
               id="DejaVuSans-97"
               d="M 34.28125 27.484375  Q 23.390625 27.484375 19.1875 25  Q 14.984375 22.515625 14.984375 16.5  Q 14.984375 11.71875 18.140625 8.90625  Q 21.296875 6.109375 26.703125 6.109375  Q 34.1875 6.109375 38.703125 11.40625  Q 43.21875 16.703125 43.21875 25.484375  L 43.21875 27.484375  z M 52.203125 31.203125  L 52.203125 0  L 43.21875 0  L 43.21875 8.296875  Q 40.140625 3.328125 35.546875 0.953125  Q 30.953125 -1.421875 24.3125 -1.421875  Q 15.921875 -1.421875 10.953125 3.296875  Q 6 8.015625 6 15.921875  Q 6 25.140625 12.171875 29.828125  Q 18.359375 34.515625 30.609375 34.515625  L 43.21875 34.515625  L 43.21875 35.40625  Q 43.21875 41.609375 39.140625 45  Q 35.0625 48.390625 27.6875 48.390625  Q 23 48.390625 18.546875 47.265625  Q 14.109375 46.140625 10.015625 43.890625  L 10.015625 52.203125  Q 14.9375 54.109375 19.578125 55.046875  Q 24.21875 56 28.609375 56  Q 40.484375 56 46.34375 49.84375  Q 52.203125 43.703125 52.203125 31.203125  z " />
            <path
               id="DejaVuSans-116"
               d="M 18.3125 70.21875  L 18.3125 54.6875  L 36.8125 54.6875  L 36.8125 47.703125  L 18.3125 47.703125  L 18.3125 18.015625  Q 18.3125 11.328125 20.140625 9.421875  Q 21.96875 7.515625 27.59375 7.515625  L 36.8125 7.515625  L 36.8125 0  L 27.59375 0  Q 17.1875 0 13.234375 3.875  Q 9.28125 7.765625 9.28125 18.015625  L 9.28125 47.703125  L 2.6875 47.703125  L 2.6875 54.6875  L 9.28125 54.6875  L 9.28125 70.21875  z " />
            <path
               id="DejaVuSans-117"
               d="M 8.5 21.578125  L 8.5 54.6875  L 17.484375 54.6875  L 17.484375 21.921875  Q 17.484375 14.15625 20.5 10.265625  Q 23.53125 6.390625 29.59375 6.390625  Q 36.859375 6.390625 41.078125 11.03125  Q 45.3125 15.671875 45.3125 23.6875  L 45.3125 54.6875  L 54.296875 54.6875  L 54.296875 0  L 45.3125 0  L 45.3125 8.40625  Q 42.046875 3.421875 37.71875 1  Q 33.40625 -1.421875 27.6875 -1.421875  Q 18.265625 -1.421875 13.375 4.4375  Q 8.5 10.296875 8.5 21.578125  z M 31.109375 56  z " />
            <path
               id="DejaVuSans-32" />
            <path
               id="DejaVuSans-40"
               d="M 31 75.875  Q 24.46875 64.65625 21.28125 53.65625  Q 18.109375 42.671875 18.109375 31.390625  Q 18.109375 20.125 21.3125 9.0625  Q 24.515625 -2 31 -13.1875  L 23.1875 -13.1875  Q 15.875 -1.703125 12.234375 9.375  Q 8.59375 20.453125 8.59375 31.390625  Q 8.59375 42.28125 12.203125 53.3125  Q 15.828125 64.359375 23.1875 75.875  z " />
            <path
               id="DejaVuSans-75"
               d="M 9.8125 72.90625  L 19.671875 72.90625  L 19.671875 42.09375  L 52.390625 72.90625  L 65.09375 72.90625  L 28.90625 38.921875  L 67.671875 0  L 54.6875 0  L 19.671875 35.109375  L 19.671875 0  L 9.8125 0  z " />
            <path
               id="DejaVuSans-41"
               d="M 8.015625 75.875  L 15.828125 75.875  Q 23.140625 64.359375 26.78125 53.3125  Q 30.421875 42.28125 30.421875 31.390625  Q 30.421875 20.453125 26.78125 9.375  Q 23.140625 -1.703125 15.828125 -13.1875  L 8.015625 -13.1875  Q 14.5 -2 17.703125 9.0625  Q 20.90625 20.125 20.90625 31.390625  Q 20.90625 42.671875 17.703125 53.65625  Q 14.5 64.65625 8.015625 75.875  z " />
          </defs>
          <g
             id="g2201"
             transform="translate(175.991406 268.034687)scale(0.1 -0.1)">
            <use
               id="use2171"
               xlink:href="#DejaVuSans-84" />
            <use
               id="use2173"
               xlink:href="#DejaVuSans-101"
               x="60.818359" />
            <use
               id="use2175"
               xlink:href="#DejaVuSans-109"
               x="122.341797" />
            <use
               id="use2177"
               xlink:href="#DejaVuSans-112"
               x="219.753906" />
            <use
               id="use2179"
               xlink:href="#DejaVuSans-101"
               x="283.230469" />
            <use
               id="use2181"
               xlink:href="#DejaVuSans-114"
               x="344.753906" />
            <use
               id="use2183"
               xlink:href="#DejaVuSans-97"
               x="385.867188" />
            <use
               id="use2185"
               xlink:href="#DejaVuSans-116"
               x="447.146484" />
            <use
               id="use2187"
               xlink:href="#DejaVuSans-117"
               x="486.355469" />
            <use
               id="use2189"
               xlink:href="#DejaVuSans-114"
               x="549.734375" />
            <use
               id="use2191"
               xlink:href="#DejaVuSans-101"
               x="590.816406" />
            <use
               id="use2193"
               xlink:href="#DejaVuSans-32"
               x="652.339844" />
            <use
               id="use2195"
               xlink:href="#DejaVuSans-40"
               x="684.126953" />
            <use
               id="use2197"
               xlink:href="#DejaVuSans-75"
               x="723.140625" />
            <use
               id="use2199"
               xlink:href="#DejaVuSans-41"
               x="788.716797" />
          </g>
        </g>
      </g>
      <g
         id="matplotlib.axis_2">
        <g
           id="ytick_1">
          <g
             id="line2d_6">
            <defs
               id="defs2206">
              <path
                 style="stroke:#000000;stroke-width:0.8;"
                 id="me29cdc6a8a"
                 d="M 0 0  L -3.5 0  " />
            </defs>
            <g
               id="g2210">
              <use
                 id="use2208"
                 y="231.843878"
                 xlink:href="#me29cdc6a8a"
                 x="49.978125"
                 style="stroke:#000000;stroke-width:0.8;" />
            </g>
          </g>
          <g
             id="text_7">
            <!-- $\mathdefault{10^{12}}$ -->
            <g
               id="g2221"
               transform="translate(20.878125 235.643097)scale(0.1 -0.1)">
              <use
                 id="use2213"
                 xlink:href="#DejaVuSans-49"
                 transform="translate(0 0.765625)" />
              <use
                 id="use2215"
                 xlink:href="#DejaVuSans-48"
                 transform="translate(63.623047 0.765625)" />
              <use
                 id="use2217"
                 xlink:href="#DejaVuSans-49"
                 transform="translate(128.203125 39.046875)scale(0.7)" />
              <use
                 id="use2219"
                 xlink:href="#DejaVuSans-50"
                 transform="translate(172.739258 39.046875)scale(0.7)" />
            </g>
          </g>
        </g>
        <g
           id="ytick_2">
          <g
             id="line2d_7">
            <g
               id="g2227">
              <use
                 id="use2225"
                 y="169.181828"
                 xlink:href="#me29cdc6a8a"
                 x="49.978125"
                 style="stroke:#000000;stroke-width:0.8;" />
            </g>
          </g>
          <g
             id="text_8">
            <!-- $\mathdefault{10^{13}}$ -->
            <defs
               id="defs2231">
              <path
                 id="DejaVuSans-51"
                 d="M 40.578125 39.3125  Q 47.65625 37.796875 51.625 33  Q 55.609375 28.21875 55.609375 21.1875  Q 55.609375 10.40625 48.1875 4.484375  Q 40.765625 -1.421875 27.09375 -1.421875  Q 22.515625 -1.421875 17.65625 -0.515625  Q 12.796875 0.390625 7.625 2.203125  L 7.625 11.71875  Q 11.71875 9.328125 16.59375 8.109375  Q 21.484375 6.890625 26.8125 6.890625  Q 36.078125 6.890625 40.9375 10.546875  Q 45.796875 14.203125 45.796875 21.1875  Q 45.796875 27.640625 41.28125 31.265625  Q 36.765625 34.90625 28.71875 34.90625  L 20.21875 34.90625  L 20.21875 43.015625  L 29.109375 43.015625  Q 36.375 43.015625 40.234375 45.921875  Q 44.09375 48.828125 44.09375 54.296875  Q 44.09375 59.90625 40.109375 62.90625  Q 36.140625 65.921875 28.71875 65.921875  Q 24.65625 65.921875 20.015625 65.03125  Q 15.375 64.15625 9.8125 62.3125  L 9.8125 71.09375  Q 15.4375 72.65625 20.34375 73.4375  Q 25.25 74.21875 29.59375 74.21875  Q 40.828125 74.21875 47.359375 69.109375  Q 53.90625 64.015625 53.90625 55.328125  Q 53.90625 49.265625 50.4375 45.09375  Q 46.96875 40.921875 40.578125 39.3125  z " />
            </defs>
            <g
               id="g2241"
               transform="translate(20.878125 172.981047)scale(0.1 -0.1)">
              <use
                 id="use2233"
                 xlink:href="#DejaVuSans-49"
                 transform="translate(0 0.765625)" />
              <use
                 id="use2235"
                 xlink:href="#DejaVuSans-48"
                 transform="translate(63.623047 0.765625)" />
              <use
                 id="use2237"
                 xlink:href="#DejaVuSans-49"
                 transform="translate(128.203125 39.046875)scale(0.7)" />
              <use
                 id="use2239"
                 xlink:href="#DejaVuSans-51"
                 transform="translate(172.739258 39.046875)scale(0.7)" />
            </g>
          </g>
        </g>
        <g
           id="ytick_3">
          <g
             id="line2d_8">
            <g
               id="g2247">
              <use
                 id="use2245"
                 y="106.519778"
                 xlink:href="#me29cdc6a8a"
                 x="49.978125"
                 style="stroke:#000000;stroke-width:0.8;" />
            </g>
          </g>
          <g
             id="text_9">
            <!-- $\mathdefault{10^{14}}$ -->
            <defs
               id="defs2251">
              <path
                 id="DejaVuSans-52"
                 d="M 37.796875 64.3125  L 12.890625 25.390625  L 37.796875 25.390625  z M 35.203125 72.90625  L 47.609375 72.90625  L 47.609375 25.390625  L 58.015625 25.390625  L 58.015625 17.1875  L 47.609375 17.1875  L 47.609375 0  L 37.796875 0  L 37.796875 17.1875  L 4.890625 17.1875  L 4.890625 26.703125  z " />
            </defs>
            <g
               id="g2261"
               transform="translate(20.878125 110.318997)scale(0.1 -0.1)">
              <use
                 id="use2253"
                 xlink:href="#DejaVuSans-49"
                 transform="translate(0 0.684375)" />
              <use
                 id="use2255"
                 xlink:href="#DejaVuSans-48"
                 transform="translate(63.623047 0.684375)" />
              <use
                 id="use2257"
                 xlink:href="#DejaVuSans-49"
                 transform="translate(128.203125 38.965625)scale(0.7)" />
              <use
                 id="use2259"
                 xlink:href="#DejaVuSans-52"
                 transform="translate(172.739258 38.965625)scale(0.7)" />
            </g>
          </g>
        </g>
        <g
           id="ytick_4">
          <g
             id="line2d_9">
            <g
               id="g2267">
              <use
                 id="use2265"
                 y="43.857728"
                 xlink:href="#me29cdc6a8a"
                 x="49.978125"
                 style="stroke:#000000;stroke-width:0.8;" />
            </g>
          </g>
          <g
             id="text_10">
            <!-- $\mathdefault{10^{15}}$ -->
            <g
               id="g2278"
               transform="translate(20.878125 47.656947)scale(0.1 -0.1)">
              <use
                 id="use2270"
                 xlink:href="#DejaVuSans-49"
                 transform="translate(0 0.684375)" />
              <use
                 id="use2272"
                 xlink:href="#DejaVuSans-48"
                 transform="translate(63.623047 0.684375)" />
              <use
                 id="use2274"
                 xlink:href="#DejaVuSans-49"
                 transform="translate(128.203125 38.965625)scale(0.7)" />
              <use
                 id="use2276"
                 xlink:href="#DejaVuSans-53"
                 transform="translate(172.739258 38.965625)scale(0.7)" />
            </g>
          </g>
        </g>
        <g
           id="ytick_5">
          <g
             id="line2d_10">
            <defs
               id="defs2283">
              <path
                 style="stroke:#000000;stroke-width:0.6;"
                 id="m6a13a48369"
                 d="M 0 0  L -2 0  " />
            </defs>
            <g
               id="g2287">
              <use
                 id="use2285"
                 y="237.916458"
                 xlink:href="#m6a13a48369"
                 x="49.978125"
                 style="stroke:#000000;stroke-width:0.6;" />
            </g>
          </g>
        </g>
        <g
           id="ytick_6">
          <g
             id="line2d_11">
            <g
               id="g2293">
              <use
                 id="use2291"
                 y="234.711137"
                 xlink:href="#m6a13a48369"
                 x="49.978125"
                 style="stroke:#000000;stroke-width:0.6;" />
            </g>
          </g>
        </g>
        <g
           id="ytick_7">
          <g
             id="line2d_12">
            <g
               id="g2299">
              <use
                 id="use2297"
                 y="212.980722"
                 xlink:href="#m6a13a48369"
                 x="49.978125"
                 style="stroke:#000000;stroke-width:0.6;" />
            </g>
          </g>
        </g>
        <g
           id="ytick_8">
          <g
             id="line2d_13">
            <g
               id="g2305">
              <use
                 id="use2303"
                 y="201.946482"
                 xlink:href="#m6a13a48369"
                 x="49.978125"
                 style="stroke:#000000;stroke-width:0.6;" />
            </g>
          </g>
        </g>
        <g
           id="ytick_9">
          <g
             id="line2d_14">
            <g
               id="g2311">
              <use
                 id="use2309"
                 y="194.117565"
                 xlink:href="#m6a13a48369"
                 x="49.978125"
                 style="stroke:#000000;stroke-width:0.6;" />
            </g>
          </g>
        </g>
        <g
           id="ytick_10">
          <g
             id="line2d_15">
            <g
               id="g2317">
              <use
                 id="use2315"
                 y="188.044985"
                 xlink:href="#m6a13a48369"
                 x="49.978125"
                 style="stroke:#000000;stroke-width:0.6;" />
            </g>
          </g>
        </g>
        <g
           id="ytick_11">
          <g
             id="line2d_16">
            <g
               id="g2323">
              <use
                 id="use2321"
                 y="183.083326"
                 xlink:href="#m6a13a48369"
                 x="49.978125"
                 style="stroke:#000000;stroke-width:0.6;" />
            </g>
          </g>
        </g>
        <g
           id="ytick_12">
          <g
             id="line2d_17">
            <g
               id="g2329">
              <use
                 id="use2327"
                 y="178.888303"
                 xlink:href="#m6a13a48369"
                 x="49.978125"
                 style="stroke:#000000;stroke-width:0.6;" />
            </g>
          </g>
        </g>
        <g
           id="ytick_13">
          <g
             id="line2d_18">
            <g
               id="g2335">
              <use
                 id="use2333"
                 y="175.254408"
                 xlink:href="#m6a13a48369"
                 x="49.978125"
                 style="stroke:#000000;stroke-width:0.6;" />
            </g>
          </g>
        </g>
        <g
           id="ytick_14">
          <g
             id="line2d_19">
            <g
               id="g2341">
              <use
                 id="use2339"
                 y="172.049086"
                 xlink:href="#m6a13a48369"
                 x="49.978125"
                 style="stroke:#000000;stroke-width:0.6;" />
            </g>
          </g>
        </g>
        <g
           id="ytick_15">
          <g
             id="line2d_20">
            <g
               id="g2347">
              <use
                 id="use2345"
                 y="150.318672"
                 xlink:href="#m6a13a48369"
                 x="49.978125"
                 style="stroke:#000000;stroke-width:0.6;" />
            </g>
          </g>
        </g>
        <g
           id="ytick_16">
          <g
             id="line2d_21">
            <g
               id="g2353">
              <use
                 id="use2351"
                 y="139.284432"
                 xlink:href="#m6a13a48369"
                 x="49.978125"
                 style="stroke:#000000;stroke-width:0.6;" />
            </g>
          </g>
        </g>
        <g
           id="ytick_17">
          <g
             id="line2d_22">
            <g
               id="g2359">
              <use
                 id="use2357"
                 y="131.455515"
                 xlink:href="#m6a13a48369"
                 x="49.978125"
                 style="stroke:#000000;stroke-width:0.6;" />
            </g>
          </g>
        </g>
        <g
           id="ytick_18">
          <g
             id="line2d_23">
            <g
               id="g2365">
              <use
                 id="use2363"
                 y="125.382935"
                 xlink:href="#m6a13a48369"
                 x="49.978125"
                 style="stroke:#000000;stroke-width:0.6;" />
            </g>
          </g>
        </g>
        <g
           id="ytick_19">
          <g
             id="line2d_24">
            <g
               id="g2371">
              <use
                 id="use2369"
                 y="120.421276"
                 xlink:href="#m6a13a48369"
                 x="49.978125"
                 style="stroke:#000000;stroke-width:0.6;" />
            </g>
          </g>
        </g>
        <g
           id="ytick_20">
          <g
             id="line2d_25">
            <g
               id="g2377">
              <use
                 id="use2375"
                 y="116.226252"
                 xlink:href="#m6a13a48369"
                 x="49.978125"
                 style="stroke:#000000;stroke-width:0.6;" />
            </g>
          </g>
        </g>
        <g
           id="ytick_21">
          <g
             id="line2d_26">
            <g
               id="g2383">
              <use
                 id="use2381"
                 y="112.592358"
                 xlink:href="#m6a13a48369"
                 x="49.978125"
                 style="stroke:#000000;stroke-width:0.6;" />
            </g>
          </g>
        </g>
        <g
           id="ytick_22">
          <g
             id="line2d_27">
            <g
               id="g2389">
              <use
                 id="use2387"
                 y="109.387036"
                 xlink:href="#m6a13a48369"
                 x="49.978125"
                 style="stroke:#000000;stroke-width:0.6;" />
            </g>
          </g>
        </g>
        <g
           id="ytick_23">
          <g
             id="line2d_28">
            <g
               id="g2395">
              <use
                 id="use2393"
                 y="87.656621"
                 xlink:href="#m6a13a48369"
                 x="49.978125"
                 style="stroke:#000000;stroke-width:0.6;" />
            </g>
          </g>
        </g>
        <g
           id="ytick_24">
          <g
             id="line2d_29">
            <g
               id="g2401">
              <use
                 id="use2399"
                 y="76.622382"
                 xlink:href="#m6a13a48369"
                 x="49.978125"
                 style="stroke:#000000;stroke-width:0.6;" />
            </g>
          </g>
        </g>
        <g
           id="ytick_25">
          <g
             id="line2d_30">
            <g
               id="g2407">
              <use
                 id="use2405"
                 y="68.793465"
                 xlink:href="#m6a13a48369"
                 x="49.978125"
                 style="stroke:#000000;stroke-width:0.6;" />
            </g>
          </g>
        </g>
        <g
           id="ytick_26">
          <g
             id="line2d_31">
            <g
               id="g2413">
              <use
                 id="use2411"
                 y="62.720885"
                 xlink:href="#m6a13a48369"
                 x="49.978125"
                 style="stroke:#000000;stroke-width:0.6;" />
            </g>
          </g>
        </g>
        <g
           id="ytick_27">
          <g
             id="line2d_32">
            <g
               id="g2419">
              <use
                 id="use2417"
                 y="57.759225"
                 xlink:href="#m6a13a48369"
                 x="49.978125"
                 style="stroke:#000000;stroke-width:0.6;" />
            </g>
          </g>
        </g>
        <g
           id="ytick_28">
          <g
             id="line2d_33">
            <g
               id="g2425">
              <use
                 id="use2423"
                 y="53.564202"
                 xlink:href="#m6a13a48369"
                 x="49.978125"
                 style="stroke:#000000;stroke-width:0.6;" />
            </g>
          </g>
        </g>
        <g
           id="ytick_29">
          <g
             id="line2d_34">
            <g
               id="g2431">
              <use
                 id="use2429"
                 y="49.930308"
                 xlink:href="#m6a13a48369"
                 x="49.978125"
                 style="stroke:#000000;stroke-width:0.6;" />
            </g>
          </g>
        </g>
        <g
           id="ytick_30">
          <g
             id="line2d_35">
            <g
               id="g2437">
              <use
                 id="use2435"
                 y="46.724986"
                 xlink:href="#m6a13a48369"
                 x="49.978125"
                 style="stroke:#000000;stroke-width:0.6;" />
            </g>
          </g>
        </g>
        <g
           id="ytick_31">
          <g
             id="line2d_36">
            <g
               id="g2443">
              <use
                 id="use2441"
                 y="24.994571"
                 xlink:href="#m6a13a48369"
                 x="49.978125"
                 style="stroke:#000000;stroke-width:0.6;" />
            </g>
          </g>
        </g>
        <g
           id="text_11">
          <!-- Kmol/m^3-s -->
          <defs
             id="defs2453">
            <path
               id="DejaVuSans-111"
               d="M 30.609375 48.390625  Q 23.390625 48.390625 19.1875 42.75  Q 14.984375 37.109375 14.984375 27.296875  Q 14.984375 17.484375 19.15625 11.84375  Q 23.34375 6.203125 30.609375 6.203125  Q 37.796875 6.203125 41.984375 11.859375  Q 46.1875 17.53125 46.1875 27.296875  Q 46.1875 37.015625 41.984375 42.703125  Q 37.796875 48.390625 30.609375 48.390625  z M 30.609375 56  Q 42.328125 56 49.015625 48.375  Q 55.71875 40.765625 55.71875 27.296875  Q 55.71875 13.875 49.015625 6.21875  Q 42.328125 -1.421875 30.609375 -1.421875  Q 18.84375 -1.421875 12.171875 6.21875  Q 5.515625 13.875 5.515625 27.296875  Q 5.515625 40.765625 12.171875 48.375  Q 18.84375 56 30.609375 56  z " />
            <path
               id="DejaVuSans-108"
               d="M 9.421875 75.984375  L 18.40625 75.984375  L 18.40625 0  L 9.421875 0  z " />
            <path
               id="DejaVuSans-47"
               d="M 25.390625 72.90625  L 33.6875 72.90625  L 8.296875 -9.28125  L 0 -9.28125  z " />
            <path
               id="DejaVuSans-94"
               d="M 46.6875 72.90625  L 73.1875 45.703125  L 63.375 45.703125  L 41.890625 64.984375  L 20.40625 45.703125  L 10.59375 45.703125  L 37.109375 72.90625  z " />
            <path
               id="DejaVuSans-45"
               d="M 4.890625 31.390625  L 31.203125 31.390625  L 31.203125 23.390625  L 4.890625 23.390625  z " />
            <path
               id="DejaVuSans-115"
               d="M 44.28125 53.078125  L 44.28125 44.578125  Q 40.484375 46.53125 36.375 47.5  Q 32.28125 48.484375 27.875 48.484375  Q 21.1875 48.484375 17.84375 46.4375  Q 14.5 44.390625 14.5 40.28125  Q 14.5 37.15625 16.890625 35.375  Q 19.28125 33.59375 26.515625 31.984375  L 29.59375 31.296875  Q 39.15625 29.25 43.1875 25.515625  Q 47.21875 21.78125 47.21875 15.09375  Q 47.21875 7.46875 41.1875 3.015625  Q 35.15625 -1.421875 24.609375 -1.421875  Q 20.21875 -1.421875 15.453125 -0.5625  Q 10.6875 0.296875 5.421875 2  L 5.421875 11.28125  Q 10.40625 8.6875 15.234375 7.390625  Q 20.0625 6.109375 24.8125 6.109375  Q 31.15625 6.109375 34.5625 8.28125  Q 37.984375 10.453125 37.984375 14.40625  Q 37.984375 18.0625 35.515625 20.015625  Q 33.0625 21.96875 24.703125 23.78125  L 21.578125 24.515625  Q 13.234375 26.265625 9.515625 29.90625  Q 5.8125 33.546875 5.8125 39.890625  Q 5.8125 47.609375 11.28125 51.796875  Q 16.75 56 26.8125 56  Q 31.78125 56 36.171875 55.265625  Q 40.578125 54.546875 44.28125 53.078125  z " />
          </defs>
          <g
             id="g2475"
             transform="translate(14.798438 161.970156)rotate(-90)scale(0.1 -0.1)">
            <use
               id="use2455"
               xlink:href="#DejaVuSans-75" />
            <use
               id="use2457"
               xlink:href="#DejaVuSans-109"
               x="65.576172" />
            <use
               id="use2459"
               xlink:href="#DejaVuSans-111"
               x="162.988281" />
            <use
               id="use2461"
               xlink:href="#DejaVuSans-108"
               x="224.169922" />
            <use
               id="use2463"
               xlink:href="#DejaVuSans-47"
               x="251.953125" />
            <use
               id="use2465"
               xlink:href="#DejaVuSans-109"
               x="285.644531" />
            <use
               id="use2467"
               xlink:href="#DejaVuSans-94"
               x="383.056641" />
            <use
               id="use2469"
               xlink:href="#DejaVuSans-51"
               x="466.845703" />
            <use
               id="use2471"
               xlink:href="#DejaVuSans-45"
               x="530.46875" />
            <use
               id="use2473"
               xlink:href="#DejaVuSans-115"
               x="566.552734" />
          </g>
        </g>
      </g>
      <g
         id="line2d_37">
        <path
           id="path2479"
           style="fill:none;stroke:#0000ff;stroke-linecap:square;stroke-width:1.5;"
           d="M 71.812908 140.133724  L 73.665556 147.99628  L 75.518204 154.872896  L 77.370852 160.914698  L 79.2235 166.244298  L 81.208481 171.278017  L 83.193461 175.71075  L 85.178441 179.626026  L 87.295753 183.309835  L 89.413066 186.553557  L 91.66271 189.582793  L 93.912354 192.239181  L 96.294331 194.69948  L 98.676307 196.844823  L 101.190615 198.812509  L 103.837255 200.597667  L 106.616228 202.198461  L 109.527532 203.615586  L 112.571168 204.851803  L 115.879469 205.951067  L 119.452433 206.893837  L 123.290062 207.666534  L 127.392354 208.260912  L 131.891643 208.682683  L 136.787927 208.915025  L 142.21354 208.946684  L 148.300813 208.754413  L 155.182078 208.307789  L 162.989667 207.573745  L 172.120576 206.486427  L 183.104133 204.945705  L 196.866663 202.778434  L 215.657809 199.576839  L 253.372433 192.867282  L 292.675042 185.973497  L 323.37607 180.817305  L 352.886109 176.087201  L 369.427611 173.534815  L 369.427611 173.534815  "
           clip-path="url(#pf921c912bf)" />
      </g>
      <g
         id="line2d_38">
        <path
           id="path2482"
           style="fill:none;stroke:#0000ff;stroke-dasharray:5.55,2.4;stroke-dashoffset:0;stroke-width:1.5;"
           d="M 65.196307 33.136175  L 71.812908 86.148816  L 78.429508 119.004433  L 85.046109 140.689281  L 91.66271 155.607733  L 98.279311 166.157916  L 104.895912 173.749739  L 104.895912 173.749739  L 111.512512 179.262151  L 118.129113 183.269053  L 118.129113 183.269053  L 124.745714 186.159496  L 131.362315 188.205528  L 131.362315 188.205528  L 137.978916 189.602407  L 144.595516 190.49343  L 144.595516 190.49343  L 151.212117 190.98579  L 157.828718 191.161016  L 157.828718 191.161016  L 164.445319 191.082026  L 171.061919 190.797999  L 171.061919 190.797999  L 177.67852 190.347809  L 178.37022 190.29247  L 178.37022 190.29247  L 180.545546 190.109189  L 181.003521 190.068876  L 183.293328 189.858746  L 184.295121 189.762494  L 184.667212 189.726099  L 186.613551 189.53022  L 188.44541 189.337774  L 190.849711 189.074017  L 190.911722 189.067054  L 191.994608 188.944201  L 196.917703 188.357547  L 197.528323 188.28178  L 199.09303 188.084817  L 204.130605 187.425186  L 204.144923 187.42326  L 210.761524 186.505134  L 217.378125 185.538681  L 223.994726 184.53327  L 230.611327 183.496716  L 237.227927 182.435561  L 243.844528 181.3553  L 250.461129 180.260559  L 257.07773 179.15524  L 257.615236 179.065088  L 263.209148 178.124409  L 263.665787 178.047452  L 263.694331 178.042641  L 264.008275 177.989719  L 265.492379 177.739412  L 267.433107 177.41181  L 267.889772 177.334683  L 268.346396 177.257549  L 270.287151 176.929573  L 270.310931 176.925553  L 270.972128 176.81377  L 272.912857 176.485567  L 274.282797 176.253823  L 275.081924 176.118621  L 275.538562 176.04136  L 276.223526 175.925463  L 276.927532 175.80634  L 280.333348 175.230078  L 283.544133 174.687005  L 290.160734 173.569243  L 296.777334 172.454489  L 303.393935 171.343959  L 310.010536 170.238675  L 316.627137 169.139501  L 323.243738 168.047158  L 329.860338 166.962251  L 336.476939 165.88528  L 336.476939 165.88528  L 343.09354 164.816657  L 349.710141 163.756719  L 356.326742 162.705734  L 362.943342 161.663917  L 369.559943 160.631432  L 369.559943 160.631432  "
           clip-path="url(#pf921c912bf)" />
      </g>
      <g
         id="line2d_39">
        <path
           id="path2485"
           style="fill:none;stroke:#0000ff;stroke-dasharray:5.55,2.4;stroke-dashoffset:0;stroke-width:1.5;"
           d="M 65.196307 168.099807  L 71.812908 194.118631  L 78.429508 209.076574  L 85.046109 218.070021  L 91.66271 223.557852  L 98.279311 226.856736  L 104.895912 228.72707  L 104.895912 228.72707  L 111.512512 229.633865  L 118.129113 229.874489  L 118.129113 229.874489  L 124.745714 229.64601  L 131.362315 229.082861  L 131.362315 229.082861  L 137.978916 228.278945  L 144.595516 227.301156  L 144.595516 227.301156  L 151.212117 226.197924  L 157.828718 225.004792  L 157.828718 225.004792  L 164.445319 223.748132  L 171.061919 222.447691  L 171.061919 222.447691  L 177.67852 221.118364  L 178.37022 220.978213  L 178.37022 220.978213  L 180.545546 220.536336  L 181.003521 220.443112  L 183.293328 219.976143  L 184.295121 219.771448  L 184.667212 219.695367  L 186.613551 219.296995  L 188.44541 218.92155  L 190.849711 218.428275  L 190.911722 218.415547  L 191.994608 218.193258  L 196.917703 217.18254  L 197.528323 217.057229  L 199.09303 216.736231  L 204.130605 215.704437  L 204.144923 215.701509  L 210.761524 214.352218  L 217.378125 213.012268  L 223.994726 211.683861  L 230.611327 210.368647  L 237.227927 209.067844  L 243.844528 207.782332  L 250.461129 206.512727  L 257.07773 205.259434  L 257.615236 205.158346  L 263.209148 204.112819  L 263.665787 204.027996  L 263.694331 204.022697  L 264.008275 203.96443  L 265.492379 203.689494  L 267.433107 203.331234  L 267.889772 203.247143  L 268.346396 203.163138  L 270.287151 202.806985  L 270.310931 202.80263  L 270.972128 202.681626  L 272.912857 202.32742  L 274.282797 202.078254  L 275.081924 201.933238  L 275.538562 201.850481  L 276.223526 201.726494  L 276.927532 201.599245  L 280.333348 200.986303  L 283.544133 200.412478  L 290.160734 199.242199  L 296.777334 198.088234  L 303.393935 196.95037  L 310.010536 195.828368  L 316.627137 194.721967  L 323.243738 193.630891  L 329.860338 192.554854  L 336.476939 191.493565  L 336.476939 191.493565  L 343.09354 190.446725  L 349.710141 189.414039  L 356.326742 188.395207  L 362.943342 187.389934  L 369.559943 186.397928  L 369.559943 186.397928  "
           clip-path="url(#pf921c912bf)" />
      </g>
      <g
         id="line2d_40">
        <path
           id="path2488"
           style="fill:none;stroke:#ff0000;stroke-linecap:square;stroke-width:1.5;"
           d="M 71.812908 139.353914  L 73.665556 147.248801  L 75.518204 154.154318  L 77.370852 160.222092  L 79.2235 165.575146  L 81.208481 170.63158  L 83.193461 175.084865  L 85.178441 179.018812  L 87.295753 182.72073  L 89.413066 185.980929  L 91.66271 189.026109  L 93.912354 191.697028  L 96.294331 194.171363  L 98.676307 196.32952  L 101.190615 198.309565  L 103.837255 200.106591  L 106.616228 201.718741  L 109.527532 203.146694  L 112.571168 204.393206  L 115.879469 205.502619  L 119.320101 206.424094  L 123.025398 207.190789  L 127.12769 207.808637  L 131.626979 208.252449  L 136.523263 208.505172  L 141.948876 208.555855  L 148.036149 208.381353  L 154.785082 207.961457  L 162.59267 207.246137  L 171.591248 206.192827  L 182.442473 204.689646  L 195.940338 202.583374  L 214.202157 199.491778  L 247.814489 193.52913  L 290.690062 185.990563  L 321.655753 180.778164  L 351.165793 176.0359  L 369.427611 173.214261  L 369.427611 173.214261  "
           clip-path="url(#pf921c912bf)" />
      </g>
      <g
         id="line2d_41">
        <path
           id="path2491"
           style="fill:none;stroke:#ff0000;stroke-dasharray:5.55,2.4;stroke-dashoffset:0;stroke-width:1.5;"
           d="M 65.196307 32.201761  L 71.812908 85.369007  L 78.429508 118.325515  L 85.046109 140.080875  L 91.66271 155.051049  L 98.279311 165.640556  L 104.895912 173.263115  L 104.895912 173.263115  L 111.512512 178.800083  L 118.129113 182.826957  L 118.129113 182.826957  L 124.745714 185.733883  L 131.362315 187.793685  L 131.362315 187.793685  L 137.978916 189.20219  L 144.595516 190.103115  L 144.595516 190.103115  L 151.212117 190.603972  L 157.828718 190.78654  L 157.828718 190.78654  L 164.445319 190.713928  L 171.061919 190.435471  L 171.061919 190.435471  L 177.67852 189.990166  L 178.37022 189.935302  L 178.37022 189.935302  L 180.545546 189.753476  L 181.003521 189.713461  L 183.293328 189.504786  L 184.295121 189.409151  L 184.667212 189.372982  L 186.613551 189.178261  L 188.44541 188.986867  L 190.849711 188.724438  L 190.911722 188.717508  L 191.994608 188.595235  L 196.917703 188.011072  L 197.528323 187.935598  L 199.09303 187.739374  L 204.130605 187.081985  L 204.144923 187.080065  L 210.761524 186.164596  L 217.378125 185.200511  L 223.994726 184.197212  L 230.611327 183.162545  L 237.227927 182.103077  L 243.844528 181.024324  L 250.461129 179.930931  L 257.07773 178.826817  L 257.615236 178.736757  L 263.209148 177.796987  L 263.665787 177.720101  L 263.694331 177.715294  L 264.008275 177.66242  L 265.492379 177.412337  L 267.433107 177.085019  L 267.889772 177.007958  L 268.346396 176.930888  L 270.287151 176.603183  L 270.310931 176.599166  L 270.972128 176.487473  L 272.912857 176.159528  L 274.282797 175.927961  L 275.081924 175.792861  L 275.538562 175.715657  L 276.223526 175.599845  L 276.927532 175.480809  L 280.333348 174.904949  L 283.544133 174.362234  L 290.160734 173.245146  L 296.777334 172.130988  L 303.393935 171.020982  L 310.010536 169.916158  L 316.627137 168.817383  L 323.243738 167.725386  L 329.860338 166.640774  L 336.476939 165.564052  L 336.476939 165.564052  L 343.09354 164.495636  L 349.710141 163.435865  L 356.326742 162.385013  L 362.943342 161.343296  L 369.559943 160.31088  L 369.559943 160.31088  "
           clip-path="url(#pf921c912bf)" />
      </g>
      <g
         id="line2d_42">
        <path
           id="path2494"
           style="fill:none;stroke:#ff0000;stroke-dasharray:5.55,2.4;stroke-dashoffset:0;stroke-width:1.5;"
           d="M 65.196307 167.165393  L 71.812908 193.338822  L 78.429508 208.397656  L 85.046109 217.461615  L 91.66271 223.001168  L 98.279311 226.339376  L 104.895912 228.240446  L 104.895912 228.240446  L 111.512512 229.171797  L 118.129113 229.432393  L 118.129113 229.432393  L 124.745714 229.220397  L 131.362315 228.671018  L 131.362315 228.671018  L 137.978916 227.878728  L 144.595516 226.91084  L 144.595516 226.91084  L 151.212117 225.816106  L 157.828718 224.630316  L 157.828718 224.630316  L 164.445319 223.380034  L 171.061919 222.085163  L 171.061919 222.085163  L 177.67852 220.76072  L 178.37022 220.621045  L 178.37022 220.621045  L 180.545546 220.180622  L 181.003521 220.087697  L 183.293328 219.622183  L 184.295121 219.418105  L 184.667212 219.34225  L 186.613551 218.945036  L 188.44541 218.570643  L 190.849711 218.078696  L 190.911722 218.066002  L 191.994608 217.844291  L 196.917703 216.836065  L 197.528323 216.711047  L 199.09303 216.390788  L 204.130605 215.361236  L 204.144923 215.358314  L 210.761524 214.01168  L 217.378125 212.674098  L 223.994726 211.347804  L 230.611327 210.034476  L 237.227927 208.73536  L 243.844528 207.451356  L 250.461129 206.183098  L 257.07773 204.931011  L 257.615236 204.830015  L 263.209148 203.785397  L 263.665787 203.700645  L 263.694331 203.69535  L 264.008275 203.637131  L 265.492379 203.362419  L 267.433107 203.004443  L 267.889772 202.920417  L 268.346396 202.836477  L 270.287151 202.480595  L 270.310931 202.476243  L 270.972128 202.355329  L 272.912857 202.001382  L 274.282797 201.752392  L 275.081924 201.607477  L 275.538562 201.524778  L 276.223526 201.400876  L 276.927532 201.273714  L 280.333348 200.661174  L 283.544133 200.087707  L 290.160734 198.918102  L 296.777334 197.764733  L 303.393935 196.627393  L 310.010536 195.50585  L 316.627137 194.399849  L 323.243738 193.309118  L 329.860338 192.233376  L 336.476939 191.172336  L 336.476939 191.172336  L 343.09354 190.125704  L 349.710141 189.093186  L 356.326742 188.074486  L 362.943342 187.069313  L 369.559943 186.077376  L 369.559943 186.077376  "
           clip-path="url(#pf921c912bf)" />
      </g>
      <g
         id="line2d_43">
        <defs
           id="defs2498">
          <path
             style="stroke:#000000;"
             id="m6d79203dae"
             d="M 0 3  C 0.795609 3 1.55874 2.683901 2.12132 2.12132  C 2.683901 1.55874 3 0.795609 3 0  C 3 -0.795609 2.683901 -1.55874 2.12132 -2.12132  C 1.55874 -2.683901 0.795609 -3 0 -3  C -0.795609 -3 -1.55874 -2.683901 -2.12132 -2.12132  C -2.683901 -1.55874 -3 -0.795609 -3 0  C -3 0.795609 -2.683901 1.55874 -2.12132 2.12132  C -1.55874 2.683901 -0.795609 3 0 3  z " />
        </defs>
        <g
           id="g2558"
           clip-path="url(#pf921c912bf)">
          <use
             id="use2500"
             y="217.403477"
             xlink:href="#m6d79203dae"
             x="274.282797"
             style="stroke:#000000;" />
          <use
             id="use2502"
             y="211.523675"
             xlink:href="#m6d79203dae"
             x="280.333348"
             style="stroke:#000000;" />
          <use
             id="use2504"
             y="207.236682"
             xlink:href="#m6d79203dae"
             x="272.912857"
             style="stroke:#000000;" />
          <use
             id="use2506"
             y="205.945668"
             xlink:href="#m6d79203dae"
             x="275.081924"
             style="stroke:#000000;" />
          <use
             id="use2508"
             y="201.407578"
             xlink:href="#m6d79203dae"
             x="275.538562"
             style="stroke:#000000;" />
          <use
             id="use2510"
             y="197.365442"
             xlink:href="#m6d79203dae"
             x="276.223526"
             style="stroke:#000000;" />
          <use
             id="use2512"
             y="191.772344"
             xlink:href="#m6d79203dae"
             x="270.972128"
             style="stroke:#000000;" />
          <use
             id="use2514"
             y="184.005915"
             xlink:href="#m6d79203dae"
             x="268.346396"
             style="stroke:#000000;" />
          <use
             id="use2516"
             y="184.005915"
             xlink:href="#m6d79203dae"
             x="270.287151"
             style="stroke:#000000;" />
          <use
             id="use2518"
             y="190.972785"
             xlink:href="#m6d79203dae"
             x="267.433107"
             style="stroke:#000000;" />
          <use
             id="use2520"
             y="190.432693"
             xlink:href="#m6d79203dae"
             x="265.492379"
             style="stroke:#000000;" />
          <use
             id="use2522"
             y="188.044985"
             xlink:href="#m6d79203dae"
             x="263.665787"
             style="stroke:#000000;" />
          <use
             id="use2524"
             y="193.981835"
             xlink:href="#m6d79203dae"
             x="263.209148"
             style="stroke:#000000;" />
          <use
             id="use2526"
             y="177.339286"
             xlink:href="#m6d79203dae"
             x="264.008275"
             style="stroke:#000000;" />
          <use
             id="use2528"
             y="175.734866"
             xlink:href="#m6d79203dae"
             x="267.889772"
             style="stroke:#000000;" />
          <use
             id="use2530"
             y="177.858366"
             xlink:href="#m6d79203dae"
             x="257.615236"
             style="stroke:#000000;" />
          <use
             id="use2532"
             y="186.769105"
             xlink:href="#m6d79203dae"
             x="178.37022"
             style="stroke:#000000;" />
          <use
             id="use2534"
             y="193.445586"
             xlink:href="#m6d79203dae"
             x="178.37022"
             style="stroke:#000000;" />
          <use
             id="use2536"
             y="188.099467"
             xlink:href="#m6d79203dae"
             x="181.003521"
             style="stroke:#000000;" />
          <use
             id="use2538"
             y="193.71239"
             xlink:href="#m6d79203dae"
             x="180.545546"
             style="stroke:#000000;" />
          <use
             id="use2540"
             y="194.806558"
             xlink:href="#m6d79203dae"
             x="183.293328"
             style="stroke:#000000;" />
          <use
             id="use2542"
             y="201.407578"
             xlink:href="#m6d79203dae"
             x="184.667212"
             style="stroke:#000000;" />
          <use
             id="use2544"
             y="194.253975"
             xlink:href="#m6d79203dae"
             x="186.613551"
             style="stroke:#000000;" />
          <use
             id="use2546"
             y="188.373526"
             xlink:href="#m6d79203dae"
             x="188.44541"
             style="stroke:#000000;" />
          <use
             id="use2548"
             y="188.099467"
             xlink:href="#m6d79203dae"
             x="190.849711"
             style="stroke:#000000;" />
          <use
             id="use2550"
             y="187.828141"
             xlink:href="#m6d79203dae"
             x="191.994608"
             style="stroke:#000000;" />
          <use
             id="use2552"
             y="187.828141"
             xlink:href="#m6d79203dae"
             x="196.917703"
             style="stroke:#000000;" />
          <use
             id="use2554"
             y="187.828141"
             xlink:href="#m6d79203dae"
             x="199.09303"
             style="stroke:#000000;" />
          <use
             id="use2556"
             y="193.981835"
             xlink:href="#m6d79203dae"
             x="204.130605"
             style="stroke:#000000;" />
        </g>
      </g>
      <g
         id="patch_3">
        <path
           id="path2561"
           style="fill:none;stroke:#000000;stroke-linecap:square;stroke-linejoin:miter;stroke-width:0.8;"
           d="M 49.978125 239.758125  L 49.978125 22.318125  " />
      </g>
      <g
         id="patch_4">
        <path
           id="path2564"
           style="fill:none;stroke:#000000;stroke-linecap:square;stroke-linejoin:miter;stroke-width:0.8;"
           d="M 384.778125 239.758125  L 384.778125 22.318125  " />
      </g>
      <g
         id="patch_5">
        <path
           id="path2567"
           style="fill:none;stroke:#000000;stroke-linecap:square;stroke-linejoin:miter;stroke-width:0.8;"
           d="M 49.978125 239.758125  L 384.778125 239.758125  " />
      </g>
      <g
         id="patch_6">
        <path
           id="path2570"
           style="fill:none;stroke:#000000;stroke-linecap:square;stroke-linejoin:miter;stroke-width:0.8;"
           d="M 49.978125 22.318125  L 384.778125 22.318125  " />
      </g>
      <g
         id="text_12">
        <!-- CH3 + HO2 &lt;=&gt; CH4 + O2 -->
        <defs
           id="defs2580">
          <path
             id="DejaVuSans-67"
             d="M 64.40625 67.28125  L 64.40625 56.890625  Q 59.421875 61.53125 53.78125 63.8125  Q 48.140625 66.109375 41.796875 66.109375  Q 29.296875 66.109375 22.65625 58.46875  Q 16.015625 50.828125 16.015625 36.375  Q 16.015625 21.96875 22.65625 14.328125  Q 29.296875 6.6875 41.796875 6.6875  Q 48.140625 6.6875 53.78125 8.984375  Q 59.421875 11.28125 64.40625 15.921875  L 64.40625 5.609375  Q 59.234375 2.09375 53.4375 0.328125  Q 47.65625 -1.421875 41.21875 -1.421875  Q 24.65625 -1.421875 15.125 8.703125  Q 5.609375 18.84375 5.609375 36.375  Q 5.609375 53.953125 15.125 64.078125  Q 24.65625 74.21875 41.21875 74.21875  Q 47.75 74.21875 53.53125 72.484375  Q 59.328125 70.75 64.40625 67.28125  z " />
          <path
             id="DejaVuSans-72"
             d="M 9.8125 72.90625  L 19.671875 72.90625  L 19.671875 43.015625  L 55.515625 43.015625  L 55.515625 72.90625  L 65.375 72.90625  L 65.375 0  L 55.515625 0  L 55.515625 34.71875  L 19.671875 34.71875  L 19.671875 0  L 9.8125 0  z " />
          <path
             id="DejaVuSans-43"
             d="M 46 62.703125  L 46 35.5  L 73.1875 35.5  L 73.1875 27.203125  L 46 27.203125  L 46 0  L 37.796875 0  L 37.796875 27.203125  L 10.59375 27.203125  L 10.59375 35.5  L 37.796875 35.5  L 37.796875 62.703125  z " />
          <path
             id="DejaVuSans-79"
             d="M 39.40625 66.21875  Q 28.65625 66.21875 22.328125 58.203125  Q 16.015625 50.203125 16.015625 36.375  Q 16.015625 22.609375 22.328125 14.59375  Q 28.65625 6.59375 39.40625 6.59375  Q 50.140625 6.59375 56.421875 14.59375  Q 62.703125 22.609375 62.703125 36.375  Q 62.703125 50.203125 56.421875 58.203125  Q 50.140625 66.21875 39.40625 66.21875  z M 39.40625 74.21875  Q 54.734375 74.21875 63.90625 63.9375  Q 73.09375 53.65625 73.09375 36.375  Q 73.09375 19.140625 63.90625 8.859375  Q 54.734375 -1.421875 39.40625 -1.421875  Q 24.03125 -1.421875 14.8125 8.828125  Q 5.609375 19.09375 5.609375 36.375  Q 5.609375 53.65625 14.8125 63.9375  Q 24.03125 74.21875 39.40625 74.21875  z " />
          <path
             id="DejaVuSans-60"
             d="M 73.1875 49.21875  L 22.796875 31.296875  L 73.1875 13.484375  L 73.1875 4.59375  L 10.59375 27.296875  L 10.59375 35.40625  L 73.1875 58.109375  z " />
          <path
             id="DejaVuSans-61"
             d="M 10.59375 45.40625  L 73.1875 45.40625  L 73.1875 37.203125  L 10.59375 37.203125  z M 10.59375 25.484375  L 73.1875 25.484375  L 73.1875 17.1875  L 10.59375 17.1875  z " />
          <path
             id="DejaVuSans-62"
             d="M 10.59375 49.21875  L 10.59375 58.109375  L 73.1875 35.40625  L 73.1875 27.296875  L 10.59375 4.59375  L 10.59375 13.484375  L 60.890625 31.296875  z " />
        </defs>
        <g
           id="g2626"
           transform="translate(134.165625 16.318125)scale(0.12 -0.12)">
          <use
             id="use2582"
             xlink:href="#DejaVuSans-67" />
          <use
             id="use2584"
             xlink:href="#DejaVuSans-72"
             x="69.824219" />
          <use
             id="use2586"
             xlink:href="#DejaVuSans-51"
             x="145.019531" />
          <use
             id="use2588"
             xlink:href="#DejaVuSans-32"
             x="208.642578" />
          <use
             id="use2590"
             xlink:href="#DejaVuSans-43"
             x="240.429688" />
          <use
             id="use2592"
             xlink:href="#DejaVuSans-32"
             x="324.21875" />
          <use
             id="use2594"
             xlink:href="#DejaVuSans-72"
             x="356.005859" />
          <use
             id="use2596"
             xlink:href="#DejaVuSans-79"
             x="431.201172" />
          <use
             id="use2598"
             xlink:href="#DejaVuSans-50"
             x="509.912109" />
          <use
             id="use2600"
             xlink:href="#DejaVuSans-32"
             x="573.535156" />
          <use
             id="use2602"
             xlink:href="#DejaVuSans-60"
             x="605.322266" />
          <use
             id="use2604"
             xlink:href="#DejaVuSans-61"
             x="689.111328" />
          <use
             id="use2606"
             xlink:href="#DejaVuSans-62"
             x="772.900391" />
          <use
             id="use2608"
             xlink:href="#DejaVuSans-32"
             x="856.689453" />
          <use
             id="use2610"
             xlink:href="#DejaVuSans-67"
             x="888.476562" />
          <use
             id="use2612"
             xlink:href="#DejaVuSans-72"
             x="958.300781" />
          <use
             id="use2614"
             xlink:href="#DejaVuSans-52"
             x="1033.496094" />
          <use
             id="use2616"
             xlink:href="#DejaVuSans-32"
             x="1097.119141" />
          <use
             id="use2618"
             xlink:href="#DejaVuSans-43"
             x="1128.90625" />
          <use
             id="use2620"
             xlink:href="#DejaVuSans-32"
             x="1212.695312" />
          <use
             id="use2622"
             xlink:href="#DejaVuSans-79"
             x="1244.482422" />
          <use
             id="use2624"
             xlink:href="#DejaVuSans-50"
             x="1323.193359" />
        </g>
      </g>
    </g>
  </g>
  <defs
     id="defs2634">
    <clipPath
       id="pf921c912bf">
      <rect
         id="rect2631"
         y="22.318125"
         x="49.978125"
         width="334.8"
         height="217.44" />
    </clipPath>
  </defs>
  <g
     transform="translate(-5.5737793,292.72074)"
     style="stroke-linecap:butt;stroke-linejoin:round"
     id="figure_1-3">
    <g
       transform="translate(5.4939594,-292.75756)"
       style="stroke:#00fe00;stroke-linecap:butt;stroke-linejoin:round;stroke-opacity:1"
       id="axes_1-7">
      <g
         style="stroke:#00fe00;stroke-linecap:butt;stroke-linejoin:round;stroke-opacity:1"
         id="line2d_37-0">
        <path
           id="path3699"
           style="fill:none;stroke:#00fe00;stroke-width:1.5;stroke-linecap:square;stroke-linejoin:round;stroke-opacity:1"
           d="m 71.812908,140.13372 1.852648,7.86256 1.852648,6.87662 1.852648,6.0418 1.852648,5.3296 1.984981,5.03372 1.98498,4.43273 1.98498,3.91528 2.117312,3.6838 2.117313,3.24373 2.249644,3.02923 2.249644,2.65639 2.381977,2.4603 2.381976,2.14534 2.514303,1.96769 2.64665,1.78516 2.77897,1.60079 2.9113,1.41713 3.04364,1.23621 3.3083,1.09927 3.57296,0.94277 3.83763,0.77269 4.10229,0.59438 4.49929,0.42177 4.89629,0.23235 5.42561,0.0316 6.08727,-0.19227 6.88127,-0.44662 7.80759,-0.73405 9.13091,-1.08731 10.98355,-1.54073 13.76253,-2.16727 18.79115,-3.20159 37.71462,-6.70956 39.30261,-6.89378 30.70103,-5.1562 29.51004,-4.7301 16.5415,-2.55239 v 0"
           clip-path="url(#pf848a59b89)" />
      </g>
      <g
         style="stroke:#00fe00;stroke-linecap:butt;stroke-linejoin:round;stroke-opacity:1"
         id="line2d_38-6">
        <path
           id="path3702"
           style="fill:none;stroke:#00fe00;stroke-width:1.5;stroke-linecap:butt;stroke-linejoin:round;stroke-dasharray:5.55, 2.4;stroke-dashoffset:0;stroke-opacity:1"
           d="m 65.196307,33.136176 6.616601,53.01264 6.6166,32.855614 6.616601,21.68485 6.616601,14.91845 6.616601,10.55019 6.616599,7.59182 v 0 l 6.6166,5.51241 6.6166,4.0069 v 0 l 6.6166,2.89045 6.6166,2.04603 v 0 l 6.61661,1.39688 6.6166,0.89102 v 0 l 6.6166,0.49236 6.6166,0.17523 v 0 l 6.6166,-0.079 6.6166,-0.28403 v 0 l 6.6166,-0.45019 0.6917,-0.0553 v 0 l 2.17533,-0.18328 0.45797,-0.0403 2.28981,-0.21013 1.00179,-0.0963 0.37209,-0.0364 1.94634,-0.19588 1.83186,-0.19245 2.4043,-0.26375 0.062,-0.007 1.08289,-0.12285 4.92309,-0.58665 0.61062,-0.0758 1.56471,-0.19696 5.03757,-0.65963 0.0143,-0.002 6.6166,-0.91813 6.6166,-0.96645 6.61661,-1.00541 6.6166,-1.03655 6.6166,-1.06116 6.6166,-1.08026 6.6166,-1.09474 6.6166,-1.10532 0.53751,-0.0901 5.59391,-0.94068 0.45664,-0.077 0.0285,-0.005 0.31395,-0.0529 1.4841,-0.25031 1.94073,-0.3276 0.45666,-0.0771 0.45663,-0.0771 1.94075,-0.32798 0.0238,-0.004 0.6612,-0.11178 1.94073,-0.3282 1.36994,-0.23175 0.79912,-0.1352 0.45664,-0.0773 0.68497,-0.1159 0.704,-0.11912 3.40582,-0.57626 3.21078,-0.54308 6.6166,-1.11776 6.6166,-1.11475 6.6166,-1.11053 6.61661,-1.10529 6.6166,-1.09917 6.6166,-1.09234 6.6166,-1.08491 6.6166,-1.07697 v 0 l 6.6166,-1.06862 6.6166,-1.05994 6.6166,-1.05099 6.6166,-1.04181 6.6166,-1.03249 v 0"
           clip-path="url(#pf848a59b89)" />
      </g>
      <g
         style="stroke:#00fe00;stroke-linecap:butt;stroke-linejoin:round;stroke-opacity:1"
         id="line2d_39-1">
        <path
           id="path3705"
           style="fill:none;stroke:#00fe00;stroke-width:1.5;stroke-linecap:butt;stroke-linejoin:round;stroke-dasharray:5.55, 2.4;stroke-dashoffset:0;stroke-opacity:1"
           d="m 65.196307,168.09981 6.616601,26.01882 6.6166,14.95794 6.616601,8.99345 6.616601,5.48783 6.616601,3.29889 6.616599,1.87033 v 0 l 6.6166,0.90679 6.6166,0.24063 v 0 l 6.6166,-0.22848 6.6166,-0.56315 v 0 l 6.61661,-0.80392 6.6166,-0.97778 v 0 l 6.6166,-1.10324 6.6166,-1.19313 v 0 l 6.6166,-1.25666 6.6166,-1.30044 v 0 l 6.6166,-1.32933 0.6917,-0.14015 v 0 l 2.17533,-0.44187 0.45797,-0.0932 2.28981,-0.46697 1.00179,-0.20469 0.37209,-0.0761 1.94634,-0.39838 1.83186,-0.37544 2.4043,-0.49327 0.062,-0.0127 1.08289,-0.22229 4.92309,-1.01072 0.61062,-0.12531 1.56471,-0.321 5.03757,-1.03179 0.0143,-0.003 6.6166,-1.34929 6.6166,-1.33995 6.61661,-1.32841 6.6166,-1.31521 6.6166,-1.30081 6.6166,-1.28551 6.6166,-1.2696 6.6166,-1.2533 0.53751,-0.10108 5.59391,-1.04553 0.45664,-0.0848 0.0285,-0.005 0.31395,-0.0583 1.4841,-0.27494 1.94073,-0.35826 0.45666,-0.0841 0.45663,-0.084 1.94075,-0.35616 0.0238,-0.004 0.6612,-0.121 1.94073,-0.35421 1.36994,-0.24917 0.79912,-0.14501 0.45664,-0.0828 0.68497,-0.12399 0.704,-0.12725 3.40582,-0.61294 3.21078,-0.57382 6.6166,-1.17028 6.6166,-1.15397 6.6166,-1.13786 6.61661,-1.122 6.6166,-1.1064 6.6166,-1.09108 6.6166,-1.07604 6.6166,-1.06129 v 0 l 6.6166,-1.04684 6.6166,-1.03268 6.6166,-1.01883 6.6166,-1.00528 6.6166,-0.992 v 0"
           clip-path="url(#pf848a59b89)" />
      </g>
      <g
         style="stroke:#00fe00;stroke-linecap:butt;stroke-linejoin:round;stroke-opacity:1"
         id="line2d_40-5">
        <path
           id="path3708"
           style="fill:none;stroke:#00fe00;stroke-width:1.5;stroke-linecap:square;stroke-linejoin:round;stroke-opacity:1"
           d="m 71.812908,139.35391 1.852648,7.89489 1.852648,6.90552 1.852648,6.06777 1.852648,5.35306 1.984981,5.05643 1.98498,4.45328 1.98498,3.93395 2.117312,3.70192 2.117313,3.2602 2.249644,3.04518 2.249644,2.67092 2.381977,2.47433 2.381976,2.15816 2.514303,1.98004 2.64665,1.79703 2.77897,1.61215 2.9113,1.42795 3.04364,1.24652 3.3083,1.10941 3.44063,0.92147 3.7053,0.7667 4.10229,0.61785 4.49929,0.44381 4.89628,0.25272 5.42562,0.0507 6.08727,-0.1745 6.74893,-0.41989 7.80759,-0.71532 8.99858,-1.05331 10.85122,-1.50318 13.49787,-2.10628 18.26182,-3.09159 33.61233,-5.96265 42.87557,-7.53857 30.96569,-5.2124 29.51004,-4.74226 18.26182,-2.82164 v 0"
           clip-path="url(#pf848a59b89)" />
      </g>
      <g
         style="stroke:#00fe00;stroke-linecap:butt;stroke-linejoin:round;stroke-opacity:1"
         id="line2d_41-9">
        <path
           id="path3711"
           style="fill:none;stroke:#00fe00;stroke-width:1.5;stroke-linecap:butt;stroke-linejoin:round;stroke-dasharray:5.55, 2.4;stroke-dashoffset:0;stroke-opacity:1"
           d="m 65.196307,32.201761 6.616601,53.167246 6.6166,32.956503 6.616601,21.75536 6.616601,14.97018 6.616601,10.58951 6.616599,7.62255 v 0 l 6.6166,5.53697 6.6166,4.02688 v 0 l 6.6166,2.90692 6.6166,2.0598 v 0 l 6.61661,1.40851 6.6166,0.90092 v 0 l 6.6166,0.50086 6.6166,0.18257 v 0 l 6.6166,-0.0726 6.6166,-0.27846 v 0 l 6.6166,-0.4453 0.6917,-0.0549 v 0 l 2.17533,-0.18182 0.45797,-0.04 2.28981,-0.20867 1.00179,-0.0956 0.37209,-0.0362 1.94634,-0.19472 1.83186,-0.19139 2.4043,-0.26243 0.062,-0.007 1.08289,-0.12228 4.92309,-0.58416 0.61062,-0.0755 1.56471,-0.19623 5.03757,-0.65739 0.0143,-0.002 6.6166,-0.91546 6.6166,-0.96409 6.61661,-1.0033 6.6166,-1.03467 6.6166,-1.05946 6.6166,-1.07876 6.6166,-1.09339 6.6166,-1.10411 0.53751,-0.0901 5.59391,-0.93977 0.45664,-0.0769 0.0285,-0.005 0.31395,-0.0529 1.4841,-0.25008 1.94073,-0.32732 0.45666,-0.0771 0.45663,-0.0771 1.94075,-0.32771 0.0238,-0.004 0.6612,-0.1117 1.94073,-0.32794 1.36994,-0.23157 0.79912,-0.1351 0.45664,-0.0772 0.68497,-0.11582 0.704,-0.11903 3.40582,-0.57586 3.21078,-0.54272 6.6166,-1.11708 6.6166,-1.11416 6.6166,-1.11001 6.61661,-1.10482 6.6166,-1.09878 6.6166,-1.09199 6.6166,-1.08462 6.6166,-1.07672 v 0 l 6.6166,-1.06841 6.6166,-1.05978 6.6166,-1.05085 6.6166,-1.04171 6.6166,-1.03242 v 0"
           clip-path="url(#pf848a59b89)" />
      </g>
      <g
         style="stroke:#00fe00;stroke-linecap:butt;stroke-linejoin:round;stroke-opacity:1"
         id="line2d_42-4">
        <path
           id="path3714"
           style="fill:none;stroke:#00fe00;stroke-width:1.5;stroke-linecap:butt;stroke-linejoin:round;stroke-dasharray:5.55, 2.4;stroke-dashoffset:0;stroke-opacity:1"
           d="m 65.196307,167.16539 6.616601,26.17343 6.6166,15.05884 6.616601,9.06395 6.616601,5.53956 6.616601,3.33821 6.616599,1.90107 v 0 l 6.6166,0.93135 6.6166,0.26059 v 0 l 6.6166,-0.21199 6.6166,-0.54938 v 0 l 6.61661,-0.79229 6.6166,-0.96789 v 0 l 6.6166,-1.09473 6.6166,-1.18579 v 0 l 6.6166,-1.25029 6.6166,-1.29487 v 0 l 6.6166,-1.32444 0.6917,-0.13968 v 0 l 2.17533,-0.44042 0.45797,-0.0929 2.28981,-0.46552 1.00179,-0.20408 0.37209,-0.0759 1.94634,-0.39722 1.83186,-0.37439 2.4043,-0.49194 0.062,-0.0127 1.08289,-0.22171 4.92309,-1.00823 0.61062,-0.12501 1.56471,-0.32026 5.03757,-1.02955 0.0143,-0.003 6.6166,-1.34663 6.6166,-1.33758 6.61661,-1.3263 6.6166,-1.31332 6.6166,-1.29912 6.6166,-1.284 6.6166,-1.26826 6.6166,-1.25209 0.53751,-0.101 5.59391,-1.04461 0.45664,-0.0848 0.0285,-0.005 0.31395,-0.0582 1.4841,-0.27471 1.94073,-0.35798 0.45666,-0.084 0.45663,-0.0839 1.94075,-0.35589 0.0238,-0.004 0.6612,-0.12091 1.94073,-0.35395 1.36994,-0.24899 0.79912,-0.14491 0.45664,-0.0827 0.68497,-0.1239 0.704,-0.12717 3.40582,-0.61254 3.21078,-0.57346 6.6166,-1.16961 6.6166,-1.15337 6.6166,-1.13734 6.61661,-1.12154 6.6166,-1.106 6.6166,-1.09073 6.6166,-1.07574 6.6166,-1.06104 v 0 l 6.6166,-1.04664 6.6166,-1.03252 6.6166,-1.01869 6.6166,-1.00518 6.6166,-0.99193 v 0"
           clip-path="url(#pf848a59b89)" />
      </g>
    </g>
  </g>
</svg>
