<?xml version="1.0" encoding="utf-8" standalone="no"?>
<!DOCTYPE svg PUBLIC "-//W3C//DTD SVG 1.1//EN"
  "http://www.w3.org/Graphics/SVG/1.1/DTD/svg11.dtd">
<!-- Created with matplotlib (https://matplotlib.org/) -->
<svg height="277.314375pt" version="1.1" viewBox="0 0 395.478125 277.314375" width="395.478125pt" xmlns="http://www.w3.org/2000/svg" xmlns:xlink="http://www.w3.org/1999/xlink">
 <defs>
  <style type="text/css">
*{stroke-linecap:butt;stroke-linejoin:round;}
  </style>
 </defs>
 <g id="figure_1">
  <g id="patch_1">
   <path d="M 0 277.314375 
L 395.478125 277.314375 
L 395.478125 0 
L 0 0 
z
" style="fill:#ffffff;"/>
  </g>
  <g id="axes_1">
   <g id="patch_2">
    <path d="M 49.978125 239.758125 
L 384.778125 239.758125 
L 384.778125 22.318125 
L 49.978125 22.318125 
z
" style="fill:#ffffff;"/>
   </g>
   <g id="matplotlib.axis_1">
    <g id="xtick_1">
     <g id="line2d_1">
      <defs>
       <path d="M 0 0 
L 0 3.5 
" id="m0a9964c262" style="stroke:#000000;stroke-width:0.8;"/>
      </defs>
      <g>
       <use style="stroke:#000000;stroke-width:0.8;" x="104.895912" xlink:href="#m0a9964c262" y="239.758125"/>
      </g>
     </g>
     <g id="text_1">
      <!-- 500 -->
      <defs>
       <path d="M 10.796875 72.90625 
L 49.515625 72.90625 
L 49.515625 64.59375 
L 19.828125 64.59375 
L 19.828125 46.734375 
Q 21.96875 47.46875 24.109375 47.828125 
Q 26.265625 48.1875 28.421875 48.1875 
Q 40.625 48.1875 47.75 41.5 
Q 54.890625 34.8125 54.890625 23.390625 
Q 54.890625 11.625 47.5625 5.09375 
Q 40.234375 -1.421875 26.90625 -1.421875 
Q 22.3125 -1.421875 17.546875 -0.640625 
Q 12.796875 0.140625 7.71875 1.703125 
L 7.71875 11.625 
Q 12.109375 9.234375 16.796875 8.0625 
Q 21.484375 6.890625 26.703125 6.890625 
Q 35.15625 6.890625 40.078125 11.328125 
Q 45.015625 15.765625 45.015625 23.390625 
Q 45.015625 31 40.078125 35.4375 
Q 35.15625 39.890625 26.703125 39.890625 
Q 22.75 39.890625 18.8125 39.015625 
Q 14.890625 38.140625 10.796875 36.28125 
z
" id="DejaVuSans-53"/>
       <path d="M 31.78125 66.40625 
Q 24.171875 66.40625 20.328125 58.90625 
Q 16.5 51.421875 16.5 36.375 
Q 16.5 21.390625 20.328125 13.890625 
Q 24.171875 6.390625 31.78125 6.390625 
Q 39.453125 6.390625 43.28125 13.890625 
Q 47.125 21.390625 47.125 36.375 
Q 47.125 51.421875 43.28125 58.90625 
Q 39.453125 66.40625 31.78125 66.40625 
z
M 31.78125 74.21875 
Q 44.046875 74.21875 50.515625 64.515625 
Q 56.984375 54.828125 56.984375 36.375 
Q 56.984375 17.96875 50.515625 8.265625 
Q 44.046875 -1.421875 31.78125 -1.421875 
Q 19.53125 -1.421875 13.0625 8.265625 
Q 6.59375 17.96875 6.59375 36.375 
Q 6.59375 54.828125 13.0625 64.515625 
Q 19.53125 74.21875 31.78125 74.21875 
z
" id="DejaVuSans-48"/>
      </defs>
      <g transform="translate(95.352162 254.356562)scale(0.1 -0.1)">
       <use xlink:href="#DejaVuSans-53"/>
       <use x="63.623047" xlink:href="#DejaVuSans-48"/>
       <use x="127.246094" xlink:href="#DejaVuSans-48"/>
      </g>
     </g>
    </g>
    <g id="xtick_2">
     <g id="line2d_2">
      <g>
       <use style="stroke:#000000;stroke-width:0.8;" x="171.061919" xlink:href="#m0a9964c262" y="239.758125"/>
      </g>
     </g>
     <g id="text_2">
      <!-- 1000 -->
      <defs>
       <path d="M 12.40625 8.296875 
L 28.515625 8.296875 
L 28.515625 63.921875 
L 10.984375 60.40625 
L 10.984375 69.390625 
L 28.421875 72.90625 
L 38.28125 72.90625 
L 38.28125 8.296875 
L 54.390625 8.296875 
L 54.390625 0 
L 12.40625 0 
z
" id="DejaVuSans-49"/>
      </defs>
      <g transform="translate(158.336919 254.356562)scale(0.1 -0.1)">
       <use xlink:href="#DejaVuSans-49"/>
       <use x="63.623047" xlink:href="#DejaVuSans-48"/>
       <use x="127.246094" xlink:href="#DejaVuSans-48"/>
       <use x="190.869141" xlink:href="#DejaVuSans-48"/>
      </g>
     </g>
    </g>
    <g id="xtick_3">
     <g id="line2d_3">
      <g>
       <use style="stroke:#000000;stroke-width:0.8;" x="237.227927" xlink:href="#m0a9964c262" y="239.758125"/>
      </g>
     </g>
     <g id="text_3">
      <!-- 1500 -->
      <g transform="translate(224.502927 254.356562)scale(0.1 -0.1)">
       <use xlink:href="#DejaVuSans-49"/>
       <use x="63.623047" xlink:href="#DejaVuSans-53"/>
       <use x="127.246094" xlink:href="#DejaVuSans-48"/>
       <use x="190.869141" xlink:href="#DejaVuSans-48"/>
      </g>
     </g>
    </g>
    <g id="xtick_4">
     <g id="line2d_4">
      <g>
       <use style="stroke:#000000;stroke-width:0.8;" x="303.393935" xlink:href="#m0a9964c262" y="239.758125"/>
      </g>
     </g>
     <g id="text_4">
      <!-- 2000 -->
      <defs>
       <path d="M 19.1875 8.296875 
L 53.609375 8.296875 
L 53.609375 0 
L 7.328125 0 
L 7.328125 8.296875 
Q 12.9375 14.109375 22.625 23.890625 
Q 32.328125 33.6875 34.8125 36.53125 
Q 39.546875 41.84375 41.421875 45.53125 
Q 43.3125 49.21875 43.3125 52.78125 
Q 43.3125 58.59375 39.234375 62.25 
Q 35.15625 65.921875 28.609375 65.921875 
Q 23.96875 65.921875 18.8125 64.3125 
Q 13.671875 62.703125 7.8125 59.421875 
L 7.8125 69.390625 
Q 13.765625 71.78125 18.9375 73 
Q 24.125 74.21875 28.421875 74.21875 
Q 39.75 74.21875 46.484375 68.546875 
Q 53.21875 62.890625 53.21875 53.421875 
Q 53.21875 48.921875 51.53125 44.890625 
Q 49.859375 40.875 45.40625 35.40625 
Q 44.1875 33.984375 37.640625 27.21875 
Q 31.109375 20.453125 19.1875 8.296875 
z
" id="DejaVuSans-50"/>
      </defs>
      <g transform="translate(290.668935 254.356562)scale(0.1 -0.1)">
       <use xlink:href="#DejaVuSans-50"/>
       <use x="63.623047" xlink:href="#DejaVuSans-48"/>
       <use x="127.246094" xlink:href="#DejaVuSans-48"/>
       <use x="190.869141" xlink:href="#DejaVuSans-48"/>
      </g>
     </g>
    </g>
    <g id="xtick_5">
     <g id="line2d_5">
      <g>
       <use style="stroke:#000000;stroke-width:0.8;" x="369.559943" xlink:href="#m0a9964c262" y="239.758125"/>
      </g>
     </g>
     <g id="text_5">
      <!-- 2500 -->
      <g transform="translate(356.834943 254.356562)scale(0.1 -0.1)">
       <use xlink:href="#DejaVuSans-50"/>
       <use x="63.623047" xlink:href="#DejaVuSans-53"/>
       <use x="127.246094" xlink:href="#DejaVuSans-48"/>
       <use x="190.869141" xlink:href="#DejaVuSans-48"/>
      </g>
     </g>
    </g>
    <g id="text_6">
     <!-- Temperature (K) -->
     <defs>
      <path d="M -0.296875 72.90625 
L 61.375 72.90625 
L 61.375 64.59375 
L 35.5 64.59375 
L 35.5 0 
L 25.59375 0 
L 25.59375 64.59375 
L -0.296875 64.59375 
z
" id="DejaVuSans-84"/>
      <path d="M 56.203125 29.59375 
L 56.203125 25.203125 
L 14.890625 25.203125 
Q 15.484375 15.921875 20.484375 11.0625 
Q 25.484375 6.203125 34.421875 6.203125 
Q 39.59375 6.203125 44.453125 7.46875 
Q 49.3125 8.734375 54.109375 11.28125 
L 54.109375 2.78125 
Q 49.265625 0.734375 44.1875 -0.34375 
Q 39.109375 -1.421875 33.890625 -1.421875 
Q 20.796875 -1.421875 13.15625 6.1875 
Q 5.515625 13.8125 5.515625 26.8125 
Q 5.515625 40.234375 12.765625 48.109375 
Q 20.015625 56 32.328125 56 
Q 43.359375 56 49.78125 48.890625 
Q 56.203125 41.796875 56.203125 29.59375 
z
M 47.21875 32.234375 
Q 47.125 39.59375 43.09375 43.984375 
Q 39.0625 48.390625 32.421875 48.390625 
Q 24.90625 48.390625 20.390625 44.140625 
Q 15.875 39.890625 15.1875 32.171875 
z
" id="DejaVuSans-101"/>
      <path d="M 52 44.1875 
Q 55.375 50.25 60.0625 53.125 
Q 64.75 56 71.09375 56 
Q 79.640625 56 84.28125 50.015625 
Q 88.921875 44.046875 88.921875 33.015625 
L 88.921875 0 
L 79.890625 0 
L 79.890625 32.71875 
Q 79.890625 40.578125 77.09375 44.375 
Q 74.3125 48.1875 68.609375 48.1875 
Q 61.625 48.1875 57.5625 43.546875 
Q 53.515625 38.921875 53.515625 30.90625 
L 53.515625 0 
L 44.484375 0 
L 44.484375 32.71875 
Q 44.484375 40.625 41.703125 44.40625 
Q 38.921875 48.1875 33.109375 48.1875 
Q 26.21875 48.1875 22.15625 43.53125 
Q 18.109375 38.875 18.109375 30.90625 
L 18.109375 0 
L 9.078125 0 
L 9.078125 54.6875 
L 18.109375 54.6875 
L 18.109375 46.1875 
Q 21.1875 51.21875 25.484375 53.609375 
Q 29.78125 56 35.6875 56 
Q 41.65625 56 45.828125 52.96875 
Q 50 49.953125 52 44.1875 
z
" id="DejaVuSans-109"/>
      <path d="M 18.109375 8.203125 
L 18.109375 -20.796875 
L 9.078125 -20.796875 
L 9.078125 54.6875 
L 18.109375 54.6875 
L 18.109375 46.390625 
Q 20.953125 51.265625 25.265625 53.625 
Q 29.59375 56 35.59375 56 
Q 45.5625 56 51.78125 48.09375 
Q 58.015625 40.1875 58.015625 27.296875 
Q 58.015625 14.40625 51.78125 6.484375 
Q 45.5625 -1.421875 35.59375 -1.421875 
Q 29.59375 -1.421875 25.265625 0.953125 
Q 20.953125 3.328125 18.109375 8.203125 
z
M 48.6875 27.296875 
Q 48.6875 37.203125 44.609375 42.84375 
Q 40.53125 48.484375 33.40625 48.484375 
Q 26.265625 48.484375 22.1875 42.84375 
Q 18.109375 37.203125 18.109375 27.296875 
Q 18.109375 17.390625 22.1875 11.75 
Q 26.265625 6.109375 33.40625 6.109375 
Q 40.53125 6.109375 44.609375 11.75 
Q 48.6875 17.390625 48.6875 27.296875 
z
" id="DejaVuSans-112"/>
      <path d="M 41.109375 46.296875 
Q 39.59375 47.171875 37.8125 47.578125 
Q 36.03125 48 33.890625 48 
Q 26.265625 48 22.1875 43.046875 
Q 18.109375 38.09375 18.109375 28.8125 
L 18.109375 0 
L 9.078125 0 
L 9.078125 54.6875 
L 18.109375 54.6875 
L 18.109375 46.1875 
Q 20.953125 51.171875 25.484375 53.578125 
Q 30.03125 56 36.53125 56 
Q 37.453125 56 38.578125 55.875 
Q 39.703125 55.765625 41.0625 55.515625 
z
" id="DejaVuSans-114"/>
      <path d="M 34.28125 27.484375 
Q 23.390625 27.484375 19.1875 25 
Q 14.984375 22.515625 14.984375 16.5 
Q 14.984375 11.71875 18.140625 8.90625 
Q 21.296875 6.109375 26.703125 6.109375 
Q 34.1875 6.109375 38.703125 11.40625 
Q 43.21875 16.703125 43.21875 25.484375 
L 43.21875 27.484375 
z
M 52.203125 31.203125 
L 52.203125 0 
L 43.21875 0 
L 43.21875 8.296875 
Q 40.140625 3.328125 35.546875 0.953125 
Q 30.953125 -1.421875 24.3125 -1.421875 
Q 15.921875 -1.421875 10.953125 3.296875 
Q 6 8.015625 6 15.921875 
Q 6 25.140625 12.171875 29.828125 
Q 18.359375 34.515625 30.609375 34.515625 
L 43.21875 34.515625 
L 43.21875 35.40625 
Q 43.21875 41.609375 39.140625 45 
Q 35.0625 48.390625 27.6875 48.390625 
Q 23 48.390625 18.546875 47.265625 
Q 14.109375 46.140625 10.015625 43.890625 
L 10.015625 52.203125 
Q 14.9375 54.109375 19.578125 55.046875 
Q 24.21875 56 28.609375 56 
Q 40.484375 56 46.34375 49.84375 
Q 52.203125 43.703125 52.203125 31.203125 
z
" id="DejaVuSans-97"/>
      <path d="M 18.3125 70.21875 
L 18.3125 54.6875 
L 36.8125 54.6875 
L 36.8125 47.703125 
L 18.3125 47.703125 
L 18.3125 18.015625 
Q 18.3125 11.328125 20.140625 9.421875 
Q 21.96875 7.515625 27.59375 7.515625 
L 36.8125 7.515625 
L 36.8125 0 
L 27.59375 0 
Q 17.1875 0 13.234375 3.875 
Q 9.28125 7.765625 9.28125 18.015625 
L 9.28125 47.703125 
L 2.6875 47.703125 
L 2.6875 54.6875 
L 9.28125 54.6875 
L 9.28125 70.21875 
z
" id="DejaVuSans-116"/>
      <path d="M 8.5 21.578125 
L 8.5 54.6875 
L 17.484375 54.6875 
L 17.484375 21.921875 
Q 17.484375 14.15625 20.5 10.265625 
Q 23.53125 6.390625 29.59375 6.390625 
Q 36.859375 6.390625 41.078125 11.03125 
Q 45.3125 15.671875 45.3125 23.6875 
L 45.3125 54.6875 
L 54.296875 54.6875 
L 54.296875 0 
L 45.3125 0 
L 45.3125 8.40625 
Q 42.046875 3.421875 37.71875 1 
Q 33.40625 -1.421875 27.6875 -1.421875 
Q 18.265625 -1.421875 13.375 4.4375 
Q 8.5 10.296875 8.5 21.578125 
z
M 31.109375 56 
z
" id="DejaVuSans-117"/>
      <path id="DejaVuSans-32"/>
      <path d="M 31 75.875 
Q 24.46875 64.65625 21.28125 53.65625 
Q 18.109375 42.671875 18.109375 31.390625 
Q 18.109375 20.125 21.3125 9.0625 
Q 24.515625 -2 31 -13.1875 
L 23.1875 -13.1875 
Q 15.875 -1.703125 12.234375 9.375 
Q 8.59375 20.453125 8.59375 31.390625 
Q 8.59375 42.28125 12.203125 53.3125 
Q 15.828125 64.359375 23.1875 75.875 
z
" id="DejaVuSans-40"/>
      <path d="M 9.8125 72.90625 
L 19.671875 72.90625 
L 19.671875 42.09375 
L 52.390625 72.90625 
L 65.09375 72.90625 
L 28.90625 38.921875 
L 67.671875 0 
L 54.6875 0 
L 19.671875 35.109375 
L 19.671875 0 
L 9.8125 0 
z
" id="DejaVuSans-75"/>
      <path d="M 8.015625 75.875 
L 15.828125 75.875 
Q 23.140625 64.359375 26.78125 53.3125 
Q 30.421875 42.28125 30.421875 31.390625 
Q 30.421875 20.453125 26.78125 9.375 
Q 23.140625 -1.703125 15.828125 -13.1875 
L 8.015625 -13.1875 
Q 14.5 -2 17.703125 9.0625 
Q 20.90625 20.125 20.90625 31.390625 
Q 20.90625 42.671875 17.703125 53.65625 
Q 14.5 64.65625 8.015625 75.875 
z
" id="DejaVuSans-41"/>
     </defs>
     <g transform="translate(175.991406 268.034687)scale(0.1 -0.1)">
      <use xlink:href="#DejaVuSans-84"/>
      <use x="60.818359" xlink:href="#DejaVuSans-101"/>
      <use x="122.341797" xlink:href="#DejaVuSans-109"/>
      <use x="219.753906" xlink:href="#DejaVuSans-112"/>
      <use x="283.230469" xlink:href="#DejaVuSans-101"/>
      <use x="344.753906" xlink:href="#DejaVuSans-114"/>
      <use x="385.867188" xlink:href="#DejaVuSans-97"/>
      <use x="447.146484" xlink:href="#DejaVuSans-116"/>
      <use x="486.355469" xlink:href="#DejaVuSans-117"/>
      <use x="549.734375" xlink:href="#DejaVuSans-114"/>
      <use x="590.816406" xlink:href="#DejaVuSans-101"/>
      <use x="652.339844" xlink:href="#DejaVuSans-32"/>
      <use x="684.126953" xlink:href="#DejaVuSans-40"/>
      <use x="723.140625" xlink:href="#DejaVuSans-75"/>
      <use x="788.716797" xlink:href="#DejaVuSans-41"/>
     </g>
    </g>
   </g>
   <g id="matplotlib.axis_2">
    <g id="ytick_1">
     <g id="line2d_6">
      <defs>
       <path d="M 0 0 
L -3.5 0 
" id="mf9ae068dd1" style="stroke:#000000;stroke-width:0.8;"/>
      </defs>
      <g>
       <use style="stroke:#000000;stroke-width:0.8;" x="49.978125" xlink:href="#mf9ae068dd1" y="218.360147"/>
      </g>
     </g>
     <g id="text_7">
      <!-- $\mathdefault{10^{10}}$ -->
      <g transform="translate(20.878125 222.159366)scale(0.1 -0.1)">
       <use transform="translate(0 0.765625)" xlink:href="#DejaVuSans-49"/>
       <use transform="translate(63.623047 0.765625)" xlink:href="#DejaVuSans-48"/>
       <use transform="translate(128.203125 39.046875)scale(0.7)" xlink:href="#DejaVuSans-49"/>
       <use transform="translate(172.739258 39.046875)scale(0.7)" xlink:href="#DejaVuSans-48"/>
      </g>
     </g>
    </g>
    <g id="ytick_2">
     <g id="line2d_7">
      <g>
       <use style="stroke:#000000;stroke-width:0.8;" x="49.978125" xlink:href="#mf9ae068dd1" y="173.731179"/>
      </g>
     </g>
     <g id="text_8">
      <!-- $\mathdefault{10^{11}}$ -->
      <g transform="translate(20.878125 177.530398)scale(0.1 -0.1)">
       <use transform="translate(0 0.684375)" xlink:href="#DejaVuSans-49"/>
       <use transform="translate(63.623047 0.684375)" xlink:href="#DejaVuSans-48"/>
       <use transform="translate(128.203125 38.965625)scale(0.7)" xlink:href="#DejaVuSans-49"/>
       <use transform="translate(172.739258 38.965625)scale(0.7)" xlink:href="#DejaVuSans-49"/>
      </g>
     </g>
    </g>
    <g id="ytick_3">
     <g id="line2d_8">
      <g>
       <use style="stroke:#000000;stroke-width:0.8;" x="49.978125" xlink:href="#mf9ae068dd1" y="129.102211"/>
      </g>
     </g>
     <g id="text_9">
      <!-- $\mathdefault{10^{12}}$ -->
      <g transform="translate(20.878125 132.901429)scale(0.1 -0.1)">
       <use transform="translate(0 0.765625)" xlink:href="#DejaVuSans-49"/>
       <use transform="translate(63.623047 0.765625)" xlink:href="#DejaVuSans-48"/>
       <use transform="translate(128.203125 39.046875)scale(0.7)" xlink:href="#DejaVuSans-49"/>
       <use transform="translate(172.739258 39.046875)scale(0.7)" xlink:href="#DejaVuSans-50"/>
      </g>
     </g>
    </g>
    <g id="ytick_4">
     <g id="line2d_9">
      <g>
       <use style="stroke:#000000;stroke-width:0.8;" x="49.978125" xlink:href="#mf9ae068dd1" y="84.473243"/>
      </g>
     </g>
     <g id="text_10">
      <!-- $\mathdefault{10^{13}}$ -->
      <defs>
       <path d="M 40.578125 39.3125 
Q 47.65625 37.796875 51.625 33 
Q 55.609375 28.21875 55.609375 21.1875 
Q 55.609375 10.40625 48.1875 4.484375 
Q 40.765625 -1.421875 27.09375 -1.421875 
Q 22.515625 -1.421875 17.65625 -0.515625 
Q 12.796875 0.390625 7.625 2.203125 
L 7.625 11.71875 
Q 11.71875 9.328125 16.59375 8.109375 
Q 21.484375 6.890625 26.8125 6.890625 
Q 36.078125 6.890625 40.9375 10.546875 
Q 45.796875 14.203125 45.796875 21.1875 
Q 45.796875 27.640625 41.28125 31.265625 
Q 36.765625 34.90625 28.71875 34.90625 
L 20.21875 34.90625 
L 20.21875 43.015625 
L 29.109375 43.015625 
Q 36.375 43.015625 40.234375 45.921875 
Q 44.09375 48.828125 44.09375 54.296875 
Q 44.09375 59.90625 40.109375 62.90625 
Q 36.140625 65.921875 28.71875 65.921875 
Q 24.65625 65.921875 20.015625 65.03125 
Q 15.375 64.15625 9.8125 62.3125 
L 9.8125 71.09375 
Q 15.4375 72.65625 20.34375 73.4375 
Q 25.25 74.21875 29.59375 74.21875 
Q 40.828125 74.21875 47.359375 69.109375 
Q 53.90625 64.015625 53.90625 55.328125 
Q 53.90625 49.265625 50.4375 45.09375 
Q 46.96875 40.921875 40.578125 39.3125 
z
" id="DejaVuSans-51"/>
      </defs>
      <g transform="translate(20.878125 88.272461)scale(0.1 -0.1)">
       <use transform="translate(0 0.765625)" xlink:href="#DejaVuSans-49"/>
       <use transform="translate(63.623047 0.765625)" xlink:href="#DejaVuSans-48"/>
       <use transform="translate(128.203125 39.046875)scale(0.7)" xlink:href="#DejaVuSans-49"/>
       <use transform="translate(172.739258 39.046875)scale(0.7)" xlink:href="#DejaVuSans-51"/>
      </g>
     </g>
    </g>
    <g id="ytick_5">
     <g id="line2d_10">
      <g>
       <use style="stroke:#000000;stroke-width:0.8;" x="49.978125" xlink:href="#mf9ae068dd1" y="39.844274"/>
      </g>
     </g>
     <g id="text_11">
      <!-- $\mathdefault{10^{14}}$ -->
      <defs>
       <path d="M 37.796875 64.3125 
L 12.890625 25.390625 
L 37.796875 25.390625 
z
M 35.203125 72.90625 
L 47.609375 72.90625 
L 47.609375 25.390625 
L 58.015625 25.390625 
L 58.015625 17.1875 
L 47.609375 17.1875 
L 47.609375 0 
L 37.796875 0 
L 37.796875 17.1875 
L 4.890625 17.1875 
L 4.890625 26.703125 
z
" id="DejaVuSans-52"/>
      </defs>
      <g transform="translate(20.878125 43.643493)scale(0.1 -0.1)">
       <use transform="translate(0 0.684375)" xlink:href="#DejaVuSans-49"/>
       <use transform="translate(63.623047 0.684375)" xlink:href="#DejaVuSans-48"/>
       <use transform="translate(128.203125 38.965625)scale(0.7)" xlink:href="#DejaVuSans-49"/>
       <use transform="translate(172.739258 38.965625)scale(0.7)" xlink:href="#DejaVuSans-52"/>
      </g>
     </g>
    </g>
    <g id="ytick_6">
     <g id="line2d_11">
      <defs>
       <path d="M 0 0 
L -2 0 
" id="m076131382f" style="stroke:#000000;stroke-width:0.6;"/>
      </defs>
      <g>
       <use style="stroke:#000000;stroke-width:0.6;" x="49.978125" xlink:href="#m076131382f" y="236.119799"/>
      </g>
     </g>
    </g>
    <g id="ytick_7">
     <g id="line2d_12">
      <g>
       <use style="stroke:#000000;stroke-width:0.6;" x="49.978125" xlink:href="#m076131382f" y="231.794805"/>
      </g>
     </g>
    </g>
    <g id="ytick_8">
     <g id="line2d_13">
      <g>
       <use style="stroke:#000000;stroke-width:0.6;" x="49.978125" xlink:href="#m076131382f" y="228.261028"/>
      </g>
     </g>
    </g>
    <g id="ytick_9">
     <g id="line2d_14">
      <g>
       <use style="stroke:#000000;stroke-width:0.6;" x="49.978125" xlink:href="#m076131382f" y="225.273262"/>
      </g>
     </g>
    </g>
    <g id="ytick_10">
     <g id="line2d_15">
      <g>
       <use style="stroke:#000000;stroke-width:0.6;" x="49.978125" xlink:href="#m076131382f" y="222.685141"/>
      </g>
     </g>
    </g>
    <g id="ytick_11">
     <g id="line2d_16">
      <g>
       <use style="stroke:#000000;stroke-width:0.6;" x="49.978125" xlink:href="#m076131382f" y="220.402257"/>
      </g>
     </g>
    </g>
    <g id="ytick_12">
     <g id="line2d_17">
      <g>
       <use style="stroke:#000000;stroke-width:0.6;" x="49.978125" xlink:href="#m076131382f" y="204.925489"/>
      </g>
     </g>
    </g>
    <g id="ytick_13">
     <g id="line2d_18">
      <g>
       <use style="stroke:#000000;stroke-width:0.6;" x="49.978125" xlink:href="#m076131382f" y="197.066718"/>
      </g>
     </g>
    </g>
    <g id="ytick_14">
     <g id="line2d_19">
      <g>
       <use style="stroke:#000000;stroke-width:0.6;" x="49.978125" xlink:href="#m076131382f" y="191.490831"/>
      </g>
     </g>
    </g>
    <g id="ytick_15">
     <g id="line2d_20">
      <g>
       <use style="stroke:#000000;stroke-width:0.6;" x="49.978125" xlink:href="#m076131382f" y="187.165837"/>
      </g>
     </g>
    </g>
    <g id="ytick_16">
     <g id="line2d_21">
      <g>
       <use style="stroke:#000000;stroke-width:0.6;" x="49.978125" xlink:href="#m076131382f" y="183.63206"/>
      </g>
     </g>
    </g>
    <g id="ytick_17">
     <g id="line2d_22">
      <g>
       <use style="stroke:#000000;stroke-width:0.6;" x="49.978125" xlink:href="#m076131382f" y="180.644293"/>
      </g>
     </g>
    </g>
    <g id="ytick_18">
     <g id="line2d_23">
      <g>
       <use style="stroke:#000000;stroke-width:0.6;" x="49.978125" xlink:href="#m076131382f" y="178.056173"/>
      </g>
     </g>
    </g>
    <g id="ytick_19">
     <g id="line2d_24">
      <g>
       <use style="stroke:#000000;stroke-width:0.6;" x="49.978125" xlink:href="#m076131382f" y="175.773288"/>
      </g>
     </g>
    </g>
    <g id="ytick_20">
     <g id="line2d_25">
      <g>
       <use style="stroke:#000000;stroke-width:0.6;" x="49.978125" xlink:href="#m076131382f" y="160.296521"/>
      </g>
     </g>
    </g>
    <g id="ytick_21">
     <g id="line2d_26">
      <g>
       <use style="stroke:#000000;stroke-width:0.6;" x="49.978125" xlink:href="#m076131382f" y="152.43775"/>
      </g>
     </g>
    </g>
    <g id="ytick_22">
     <g id="line2d_27">
      <g>
       <use style="stroke:#000000;stroke-width:0.6;" x="49.978125" xlink:href="#m076131382f" y="146.861863"/>
      </g>
     </g>
    </g>
    <g id="ytick_23">
     <g id="line2d_28">
      <g>
       <use style="stroke:#000000;stroke-width:0.6;" x="49.978125" xlink:href="#m076131382f" y="142.536869"/>
      </g>
     </g>
    </g>
    <g id="ytick_24">
     <g id="line2d_29">
      <g>
       <use style="stroke:#000000;stroke-width:0.6;" x="49.978125" xlink:href="#m076131382f" y="139.003091"/>
      </g>
     </g>
    </g>
    <g id="ytick_25">
     <g id="line2d_30">
      <g>
       <use style="stroke:#000000;stroke-width:0.6;" x="49.978125" xlink:href="#m076131382f" y="136.015325"/>
      </g>
     </g>
    </g>
    <g id="ytick_26">
     <g id="line2d_31">
      <g>
       <use style="stroke:#000000;stroke-width:0.6;" x="49.978125" xlink:href="#m076131382f" y="133.427205"/>
      </g>
     </g>
    </g>
    <g id="ytick_27">
     <g id="line2d_32">
      <g>
       <use style="stroke:#000000;stroke-width:0.6;" x="49.978125" xlink:href="#m076131382f" y="131.14432"/>
      </g>
     </g>
    </g>
    <g id="ytick_28">
     <g id="line2d_33">
      <g>
       <use style="stroke:#000000;stroke-width:0.6;" x="49.978125" xlink:href="#m076131382f" y="115.667553"/>
      </g>
     </g>
    </g>
    <g id="ytick_29">
     <g id="line2d_34">
      <g>
       <use style="stroke:#000000;stroke-width:0.6;" x="49.978125" xlink:href="#m076131382f" y="107.808781"/>
      </g>
     </g>
    </g>
    <g id="ytick_30">
     <g id="line2d_35">
      <g>
       <use style="stroke:#000000;stroke-width:0.6;" x="49.978125" xlink:href="#m076131382f" y="102.232895"/>
      </g>
     </g>
    </g>
    <g id="ytick_31">
     <g id="line2d_36">
      <g>
       <use style="stroke:#000000;stroke-width:0.6;" x="49.978125" xlink:href="#m076131382f" y="97.907901"/>
      </g>
     </g>
    </g>
    <g id="ytick_32">
     <g id="line2d_37">
      <g>
       <use style="stroke:#000000;stroke-width:0.6;" x="49.978125" xlink:href="#m076131382f" y="94.374123"/>
      </g>
     </g>
    </g>
    <g id="ytick_33">
     <g id="line2d_38">
      <g>
       <use style="stroke:#000000;stroke-width:0.6;" x="49.978125" xlink:href="#m076131382f" y="91.386357"/>
      </g>
     </g>
    </g>
    <g id="ytick_34">
     <g id="line2d_39">
      <g>
       <use style="stroke:#000000;stroke-width:0.6;" x="49.978125" xlink:href="#m076131382f" y="88.798236"/>
      </g>
     </g>
    </g>
    <g id="ytick_35">
     <g id="line2d_40">
      <g>
       <use style="stroke:#000000;stroke-width:0.6;" x="49.978125" xlink:href="#m076131382f" y="86.515352"/>
      </g>
     </g>
    </g>
    <g id="ytick_36">
     <g id="line2d_41">
      <g>
       <use style="stroke:#000000;stroke-width:0.6;" x="49.978125" xlink:href="#m076131382f" y="71.038585"/>
      </g>
     </g>
    </g>
    <g id="ytick_37">
     <g id="line2d_42">
      <g>
       <use style="stroke:#000000;stroke-width:0.6;" x="49.978125" xlink:href="#m076131382f" y="63.179813"/>
      </g>
     </g>
    </g>
    <g id="ytick_38">
     <g id="line2d_43">
      <g>
       <use style="stroke:#000000;stroke-width:0.6;" x="49.978125" xlink:href="#m076131382f" y="57.603926"/>
      </g>
     </g>
    </g>
    <g id="ytick_39">
     <g id="line2d_44">
      <g>
       <use style="stroke:#000000;stroke-width:0.6;" x="49.978125" xlink:href="#m076131382f" y="53.278933"/>
      </g>
     </g>
    </g>
    <g id="ytick_40">
     <g id="line2d_45">
      <g>
       <use style="stroke:#000000;stroke-width:0.6;" x="49.978125" xlink:href="#m076131382f" y="49.745155"/>
      </g>
     </g>
    </g>
    <g id="ytick_41">
     <g id="line2d_46">
      <g>
       <use style="stroke:#000000;stroke-width:0.6;" x="49.978125" xlink:href="#m076131382f" y="46.757389"/>
      </g>
     </g>
    </g>
    <g id="ytick_42">
     <g id="line2d_47">
      <g>
       <use style="stroke:#000000;stroke-width:0.6;" x="49.978125" xlink:href="#m076131382f" y="44.169268"/>
      </g>
     </g>
    </g>
    <g id="ytick_43">
     <g id="line2d_48">
      <g>
       <use style="stroke:#000000;stroke-width:0.6;" x="49.978125" xlink:href="#m076131382f" y="41.886384"/>
      </g>
     </g>
    </g>
    <g id="ytick_44">
     <g id="line2d_49">
      <g>
       <use style="stroke:#000000;stroke-width:0.6;" x="49.978125" xlink:href="#m076131382f" y="26.409616"/>
      </g>
     </g>
    </g>
    <g id="text_12">
     <!-- Kmol/m^3-s -->
     <defs>
      <path d="M 30.609375 48.390625 
Q 23.390625 48.390625 19.1875 42.75 
Q 14.984375 37.109375 14.984375 27.296875 
Q 14.984375 17.484375 19.15625 11.84375 
Q 23.34375 6.203125 30.609375 6.203125 
Q 37.796875 6.203125 41.984375 11.859375 
Q 46.1875 17.53125 46.1875 27.296875 
Q 46.1875 37.015625 41.984375 42.703125 
Q 37.796875 48.390625 30.609375 48.390625 
z
M 30.609375 56 
Q 42.328125 56 49.015625 48.375 
Q 55.71875 40.765625 55.71875 27.296875 
Q 55.71875 13.875 49.015625 6.21875 
Q 42.328125 -1.421875 30.609375 -1.421875 
Q 18.84375 -1.421875 12.171875 6.21875 
Q 5.515625 13.875 5.515625 27.296875 
Q 5.515625 40.765625 12.171875 48.375 
Q 18.84375 56 30.609375 56 
z
" id="DejaVuSans-111"/>
      <path d="M 9.421875 75.984375 
L 18.40625 75.984375 
L 18.40625 0 
L 9.421875 0 
z
" id="DejaVuSans-108"/>
      <path d="M 25.390625 72.90625 
L 33.6875 72.90625 
L 8.296875 -9.28125 
L 0 -9.28125 
z
" id="DejaVuSans-47"/>
      <path d="M 46.6875 72.90625 
L 73.1875 45.703125 
L 63.375 45.703125 
L 41.890625 64.984375 
L 20.40625 45.703125 
L 10.59375 45.703125 
L 37.109375 72.90625 
z
" id="DejaVuSans-94"/>
      <path d="M 4.890625 31.390625 
L 31.203125 31.390625 
L 31.203125 23.390625 
L 4.890625 23.390625 
z
" id="DejaVuSans-45"/>
      <path d="M 44.28125 53.078125 
L 44.28125 44.578125 
Q 40.484375 46.53125 36.375 47.5 
Q 32.28125 48.484375 27.875 48.484375 
Q 21.1875 48.484375 17.84375 46.4375 
Q 14.5 44.390625 14.5 40.28125 
Q 14.5 37.15625 16.890625 35.375 
Q 19.28125 33.59375 26.515625 31.984375 
L 29.59375 31.296875 
Q 39.15625 29.25 43.1875 25.515625 
Q 47.21875 21.78125 47.21875 15.09375 
Q 47.21875 7.46875 41.1875 3.015625 
Q 35.15625 -1.421875 24.609375 -1.421875 
Q 20.21875 -1.421875 15.453125 -0.5625 
Q 10.6875 0.296875 5.421875 2 
L 5.421875 11.28125 
Q 10.40625 8.6875 15.234375 7.390625 
Q 20.0625 6.109375 24.8125 6.109375 
Q 31.15625 6.109375 34.5625 8.28125 
Q 37.984375 10.453125 37.984375 14.40625 
Q 37.984375 18.0625 35.515625 20.015625 
Q 33.0625 21.96875 24.703125 23.78125 
L 21.578125 24.515625 
Q 13.234375 26.265625 9.515625 29.90625 
Q 5.8125 33.546875 5.8125 39.890625 
Q 5.8125 47.609375 11.28125 51.796875 
Q 16.75 56 26.8125 56 
Q 31.78125 56 36.171875 55.265625 
Q 40.578125 54.546875 44.28125 53.078125 
z
" id="DejaVuSans-115"/>
     </defs>
     <g transform="translate(14.798438 161.970156)rotate(-90)scale(0.1 -0.1)">
      <use xlink:href="#DejaVuSans-75"/>
      <use x="65.576172" xlink:href="#DejaVuSans-109"/>
      <use x="162.988281" xlink:href="#DejaVuSans-111"/>
      <use x="224.169922" xlink:href="#DejaVuSans-108"/>
      <use x="251.953125" xlink:href="#DejaVuSans-47"/>
      <use x="285.644531" xlink:href="#DejaVuSans-109"/>
      <use x="383.056641" xlink:href="#DejaVuSans-94"/>
      <use x="466.845703" xlink:href="#DejaVuSans-51"/>
      <use x="530.46875" xlink:href="#DejaVuSans-45"/>
      <use x="566.552734" xlink:href="#DejaVuSans-115"/>
     </g>
    </g>
   </g>
   <g id="line2d_50">
    <path clip-path="url(#pf162d8a9d4)" d="M 71.812908 108.568269 
L 74.59188 112.985729 
L 77.23852 116.768343 
L 79.752829 119.989369 
L 82.399469 123.014638 
L 85.046109 125.69803 
L 87.69275 128.073386 
L 90.471722 130.271037 
L 93.383026 132.283827 
L 96.426663 134.108289 
L 99.602631 135.743897 
L 102.910931 137.192417 
L 106.351564 138.457354 
L 110.05686 139.579672 
L 114.026821 140.542696 
L 118.261445 141.334405 
L 122.760734 141.946904 
L 127.657018 142.384876 
L 132.950299 142.631036 
L 138.772908 142.672431 
L 145.124844 142.489339 
L 152.138441 142.059501 
L 159.94603 141.35311 
L 168.679943 140.336678 
L 178.737176 138.937529 
L 190.514726 137.068865 
L 205.071248 134.524992 
L 225.450378 130.718618 
L 277.059864 120.994268 
L 296.115674 117.681811 
L 312.92184 114.981601 
L 328.404686 112.714839 
L 343.09354 110.787256 
L 357.120734 109.170485 
L 369.427611 107.947159 
L 369.427611 107.947159 
" style="fill:none;stroke:#0000ff;stroke-linecap:square;stroke-width:1.5;"/>
   </g>
   <g id="line2d_51">
    <path clip-path="url(#pf162d8a9d4)" d="M 65.196307 60.479084 
L 71.812908 73.555344 
L 78.164844 84.319927 
L 78.164844 84.319927 
L 78.429508 84.723879 
L 80.679153 88.019351 
L 82.399469 90.378419 
L 84.384449 92.936522 
L 85.046109 93.751918 
L 86.104765 95.019272 
L 89.01607 98.279709 
L 91.66271 100.978219 
L 92.589034 101.867252 
L 94.044686 103.209483 
L 94.97101 104.03004 
L 98.279311 106.760614 
L 98.940971 107.271243 
L 104.895912 111.389567 
L 106.219232 112.197643 
L 111.512512 115.088738 
L 115.085477 116.761681 
L 118.129113 118.029353 
L 121.17275 119.164889 
L 124.745714 120.343651 
L 128.318678 121.370334 
L 131.362315 122.135177 
L 134.405951 122.807033 
L 137.978916 123.486225 
L 141.55188 124.056541 
L 142.822609 124.234843 
L 143.862949 124.37167 
L 144.595516 124.463195 
L 144.924379 124.503006 
L 145.504811 124.571367 
L 145.504811 124.571367 
L 148.06602 124.844749 
L 149.933278 125.016101 
L 150.02381 125.02383 
L 150.02381 125.02383 
L 151.212117 125.120432 
L 154.843518 125.361848 
L 154.843518 125.361848 
L 157.67137 125.496819 
L 157.828718 125.503031 
L 159.563293 125.562764 
L 160.099457 125.578038 
L 161.847892 125.617687 
L 163.533398 125.641612 
L 164.445319 125.648889 
L 164.974647 125.65133 
L 165.735922 125.652579 
L 166.686569 125.650457 
L 166.694963 125.65042 
L 166.827295 125.649799 
L 167.046881 125.648599 
L 168.385186 125.63673 
L 168.385186 125.63673 
L 168.385186 125.63673 
L 168.508271 125.635251 
L 169.751701 125.61671 
L 170.0032 125.612174 
L 170.891431 125.594076 
L 171.061919 125.590235 
L 171.79163 125.572476 
L 171.92127 125.569099 
L 172.704176 125.547299 
L 173.0469 125.537004 
L 173.762573 125.514047 
L 174.237888 125.497723 
L 174.702448 125.480948 
L 174.837825 125.475908 
L 175.381899 125.454969 
L 176.068174 125.427012 
L 176.622148 125.403203 
L 177.67852 125.35478 
L 177.743613 125.351668 
L 178.168843 125.330977 
L 178.596683 125.309531 
L 179.6635 125.253348 
L 180.776028 125.190718 
L 181.516149 125.146818 
L 182.569051 125.081355 
L 183.482566 125.021751 
L 184.162789 124.975707 
L 184.295121 124.966588 
L 186.934116 124.773942 
L 188.230357 124.672031 
L 188.529746 124.647833 
L 189.323738 124.582479 
L 190.911722 124.446743 
L 196.734331 123.895212 
L 197.528323 123.813863 
L 199.910299 123.5616 
L 202.821603 123.237357 
L 204.144923 123.084499 
L 210.761524 122.273444 
L 217.378125 121.393984 
L 223.994726 120.458091 
L 230.611327 119.476589 
L 237.227927 118.459283 
L 243.844528 117.415076 
L 250.461129 116.352063 
L 257.07773 115.277618 
L 263.694331 114.198474 
L 270.310931 113.120783 
L 276.927532 112.050184 
L 283.544133 110.991854 
L 290.160734 109.950562 
L 296.777334 108.930702 
L 303.393935 107.936344 
L 303.393935 107.936344 
L 310.010536 106.971253 
L 316.627137 106.038929 
L 323.243738 105.142617 
L 329.860338 104.285337 
L 336.476939 103.469886 
L 343.09354 102.698855 
L 349.710141 101.97463 
L 356.326742 101.299393 
L 362.943342 100.675119 
L 369.559943 100.103571 
L 369.559943 100.103571 
" style="fill:none;stroke:#0000ff;stroke-dasharray:5.55,2.4;stroke-dashoffset:0;stroke-width:1.5;"/>
   </g>
   <g id="line2d_52">
    <path clip-path="url(#pf162d8a9d4)" d="M 65.196307 132.749658 
L 71.812908 143.581194 
L 78.164844 151.672305 
L 78.164844 151.672305 
L 78.429508 151.952117 
L 80.679153 154.159121 
L 82.399469 155.650857 
L 84.384449 157.178204 
L 85.046109 157.644141 
L 86.104765 158.3473 
L 89.01607 160.031637 
L 91.66271 161.278302 
L 92.589034 161.657274 
L 94.044686 162.197632 
L 94.97101 162.508303 
L 98.279311 163.426281 
L 98.940971 163.576809 
L 104.895912 164.510757 
L 106.219232 164.628093 
L 111.512512 164.830658 
L 115.085477 164.762378 
L 118.129113 164.596641 
L 121.17275 164.345969 
L 124.745714 163.958525 
L 128.318678 163.485215 
L 131.362315 163.024254 
L 134.405951 162.51759 
L 137.978916 161.872671 
L 141.55188 161.181642 
L 142.822609 160.926174 
L 143.862949 160.71358 
L 144.595516 160.562111 
L 144.924379 160.493654 
L 145.504811 160.372155 
L 145.504811 160.372155 
L 148.06602 159.826298 
L 149.933278 159.419146 
L 150.02381 159.399224 
L 150.02381 159.399224 
L 151.212117 159.136244 
L 154.843518 158.316946 
L 154.843518 158.316946 
L 157.67137 157.664709 
L 157.828718 157.628095 
L 159.563293 157.222403 
L 160.099457 157.096275 
L 161.847892 156.682768 
L 163.533398 156.281208 
L 164.445319 156.062856 
L 164.974647 155.935783 
L 165.735922 155.752627 
L 166.686569 155.523277 
L 166.694963 155.521249 
L 166.827295 155.489269 
L 167.046881 155.436174 
L 168.385186 155.111863 
L 168.385186 155.111863 
L 168.385186 155.111863 
L 168.508271 155.081976 
L 169.751701 154.779531 
L 170.0032 154.718247 
L 170.891431 154.501526 
L 171.061919 154.45988 
L 171.79163 154.281466 
L 171.92127 154.249741 
L 172.704176 154.057988 
L 173.0469 153.973961 
L 173.762573 153.798334 
L 174.237888 153.681578 
L 174.702448 153.567381 
L 174.837825 153.534088 
L 175.381899 153.40022 
L 176.068174 153.231224 
L 176.622148 153.094701 
L 177.67852 152.834125 
L 177.743613 152.818059 
L 178.168843 152.71308 
L 178.596683 152.607413 
L 179.6635 152.343766 
L 180.776028 152.0686 
L 181.516149 151.88544 
L 182.569051 151.624758 
L 183.482566 151.398502 
L 184.162789 151.229989 
L 184.295121 151.197204 
L 186.934116 150.543302 
L 188.230357 150.222147 
L 188.529746 150.147983 
L 189.323738 149.951324 
L 190.911722 149.55817 
L 196.734331 148.119742 
L 197.528323 147.924115 
L 199.910299 147.338187 
L 202.821603 146.624247 
L 204.144923 146.300618 
L 210.761524 144.692101 
L 217.378125 143.102103 
L 223.994726 141.533498 
L 230.611327 139.988665 
L 237.227927 138.469622 
L 243.844528 136.978126 
L 250.461129 135.51576 
L 257.07773 134.083986 
L 263.694331 132.684194 
L 270.310931 131.317731 
L 276.927532 129.985928 
L 283.544133 128.690114 
L 290.160734 127.431625 
L 296.777334 126.211814 
L 303.393935 125.032057 
L 303.393935 125.032057 
L 310.010536 123.893757 
L 316.627137 122.798345 
L 323.243738 121.747292 
L 329.860338 120.742108 
L 336.476939 119.784356 
L 343.09354 118.875656 
L 349.710141 118.017698 
L 356.326742 117.212255 
L 362.943342 116.461198 
L 369.559943 115.766515 
L 369.559943 115.766515 
" style="fill:none;stroke:#0000ff;stroke-dasharray:5.55,2.4;stroke-dashoffset:0;stroke-width:1.5;"/>
   </g>
   <g id="line2d_53">
    <path clip-path="url(#pf162d8a9d4)" d="M 71.812908 133.493619 
L 74.327216 137.212236 
L 76.709192 140.360205 
L 79.091168 143.152803 
L 81.473145 145.61298 
L 83.855121 147.768858 
L 86.369429 149.746521 
L 88.883738 151.45041 
L 91.530378 152.981478 
L 94.30935 154.333425 
L 97.220655 155.503488 
L 100.264291 156.491811 
L 103.572591 157.330106 
L 107.145556 157.998099 
L 110.983184 158.481591 
L 115.085477 158.771878 
L 119.584765 158.864763 
L 124.48105 158.743601 
L 130.038995 158.376802 
L 136.258599 157.734468 
L 143.272196 156.779838 
L 151.344449 155.450968 
L 160.872354 153.650957 
L 172.649904 151.189828 
L 188.529746 147.626736 
L 226.641366 138.751333 
L 250.196465 133.428278 
L 269.252275 129.346944 
L 286.587769 125.858537 
L 302.864607 122.807126 
L 318.479785 120.104453 
L 333.565635 117.718575 
L 348.122157 115.639384 
L 362.414014 113.822414 
L 369.427611 113.015287 
L 369.427611 113.015287 
" style="fill:none;stroke:#ff0000;stroke-linecap:square;stroke-width:1.5;"/>
   </g>
   <g id="line2d_54">
    <path clip-path="url(#pf162d8a9d4)" d="M 65.196307 32.201761 
L 71.812908 45.939136 
L 78.164844 57.501984 
L 78.164844 57.501984 
L 78.429508 57.943547 
L 80.679153 61.570484 
L 82.399469 64.195647 
L 84.384449 67.071988 
L 85.046109 67.995732 
L 86.104765 69.438474 
L 89.01607 73.191696 
L 91.66271 76.3476 
L 92.589034 77.398076 
L 94.044686 78.994886 
L 94.97101 79.97781 
L 98.279311 83.288631 
L 98.940971 83.915105 
L 104.895912 89.066259 
L 106.219232 90.10044 
L 111.512512 93.879154 
L 115.085477 96.133882 
L 118.129113 97.88499 
L 121.17275 99.49226 
L 124.745714 101.209465 
L 128.318678 102.757821 
L 131.362315 103.953798 
L 134.405951 105.044669 
L 137.978916 106.200468 
L 141.55188 107.231175 
L 142.822609 107.569374 
L 143.862949 107.835628 
L 144.595516 108.017496 
L 144.924379 108.097652 
L 145.504811 108.236901 
L 145.504811 108.236901 
L 148.06602 108.818251 
L 149.933278 109.209233 
L 150.02381 109.227507 
L 150.02381 109.227507 
L 151.212117 109.46164 
L 154.843518 110.113345 
L 154.843518 110.113345 
L 157.67137 110.557619 
L 157.828718 110.580785 
L 159.563293 110.825638 
L 160.099457 110.897482 
L 161.847892 111.119497 
L 163.533398 111.316204 
L 164.445319 111.415744 
L 164.974647 111.47135 
L 165.735922 111.548565 
L 166.686569 111.640488 
L 166.694963 111.641278 
L 166.827295 111.653676 
L 167.046881 111.67404 
L 168.385186 111.792568 
L 168.385186 111.792568 
L 168.385186 111.792568 
L 168.508271 111.802993 
L 169.751701 111.903884 
L 170.0032 111.923323 
L 170.891431 111.989409 
L 171.061919 112.00164 
L 171.79163 112.052359 
L 171.92127 112.061095 
L 172.704176 112.112108 
L 173.0469 112.133506 
L 173.762573 112.176377 
L 174.237888 112.203509 
L 174.702448 112.229006 
L 174.837825 112.236247 
L 175.381899 112.264494 
L 176.068174 112.298194 
L 176.622148 112.323843 
L 177.67852 112.368964 
L 177.743613 112.371584 
L 178.168843 112.388242 
L 178.596683 112.404211 
L 179.6635 112.440618 
L 180.776028 112.473483 
L 181.516149 112.492517 
L 182.569051 112.515773 
L 183.482566 112.532376 
L 184.162789 112.542621 
L 184.295121 112.544406 
L 186.934116 112.566196 
L 188.230357 112.567521 
L 188.529746 112.566973 
L 189.323738 112.563994 
L 190.911722 112.551501 
L 196.734331 112.435137 
L 197.528323 112.411146 
L 199.910299 112.32818 
L 202.821603 112.205312 
L 204.144923 112.142014 
L 210.761524 111.760889 
L 217.378125 111.282933 
L 223.994726 110.721912 
L 230.611327 110.090379 
L 237.227927 109.399832 
L 243.844528 108.660834 
L 250.461129 107.883134 
L 257.07773 107.075751 
L 263.694331 106.247062 
L 270.310931 105.404868 
L 276.927532 104.556455 
L 283.544133 103.708648 
L 290.160734 102.867859 
L 296.777334 102.040124 
L 303.393935 101.231138 
L 303.393935 101.231138 
L 310.010536 100.446292 
L 316.627137 99.69069 
L 323.243738 98.969177 
L 329.860338 98.286356 
L 336.476939 97.6466 
L 343.09354 97.054063 
L 349.710141 96.512688 
L 356.326742 96.026204 
L 362.943342 95.598129 
L 369.559943 95.231758 
L 369.559943 95.231758 
" style="fill:none;stroke:#ff0000;stroke-dasharray:5.55,2.4;stroke-dashoffset:0;stroke-width:1.5;"/>
   </g>
   <g id="line2d_55">
    <path clip-path="url(#pf162d8a9d4)" d="M 65.196307 212.233282 
L 71.812908 221.048101 
L 78.164844 226.713481 
L 78.164844 226.713481 
L 78.429508 226.879554 
L 80.679153 228.085855 
L 82.399469 228.77621 
L 84.384449 229.347127 
L 85.046109 229.48788 
L 86.104765 229.665106 
L 89.01607 229.874489 
L 91.66271 229.755469 
L 92.589034 229.653124 
L 94.044686 229.435229 
L 94.97101 229.262758 
L 98.279311 228.457016 
L 98.940971 228.263943 
L 104.895912 226.142288 
L 106.219232 225.592608 
L 111.512512 223.183601 
L 115.085477 221.409875 
L 118.129113 219.831045 
L 121.17275 218.205261 
L 124.745714 216.253095 
L 128.318678 214.269087 
L 131.362315 212.563834 
L 134.405951 210.851772 
L 137.978916 208.840794 
L 141.55188 206.835624 
L 142.822609 206.125069 
L 143.862949 205.544632 
L 144.595516 205.13668 
L 144.924379 204.953761 
L 145.504811 204.631262 
L 145.504811 204.631262 
L 148.06602 203.213897 
L 149.933278 202.187 
L 150.02381 202.137361 
L 150.02381 202.137361 
L 151.212117 201.48713 
L 154.843518 199.516293 
L 154.843518 199.516293 
L 157.67137 197.999817 
L 157.828718 197.915932 
L 159.563293 196.994769 
L 160.099457 196.711377 
L 161.847892 195.791739 
L 163.533398 194.911849 
L 164.445319 194.438568 
L 164.974647 194.164753 
L 165.735922 193.772126 
L 166.686569 193.283786 
L 166.694963 193.279484 
L 166.827295 193.211682 
L 167.046881 193.099268 
L 168.385186 192.416678 
L 168.385186 192.416678 
L 168.385186 192.416678 
L 168.508271 192.35412 
L 169.751701 191.724234 
L 170.0032 191.597297 
L 170.891431 191.150241 
L 171.061919 191.064657 
L 171.79163 190.699166 
L 171.92127 190.634372 
L 172.704176 190.243974 
L 173.0469 190.073559 
L 173.762573 189.718651 
L 174.237888 189.483652 
L 174.702448 189.254523 
L 174.837825 189.187855 
L 175.381899 188.920389 
L 176.068174 188.584088 
L 176.622148 188.313492 
L 177.67852 187.799657 
L 177.743613 187.768087 
L 178.168843 187.562122 
L 178.596683 187.355359 
L 179.6635 186.84183 
L 180.776028 186.309395 
L 181.516149 185.956941 
L 182.569051 185.457951 
L 183.482566 185.027317 
L 184.162789 184.708045 
L 184.295121 184.64607 
L 186.934116 183.419505 
L 188.230357 182.823538 
L 188.529746 182.686498 
L 189.323738 182.324165 
L 190.911722 181.6043 
L 196.734331 179.019204 
L 197.528323 178.673264 
L 199.910299 177.644816 
L 202.821603 176.406767 
L 204.144923 175.850845 
L 210.761524 173.134213 
L 217.378125 170.520069 
L 223.994726 168.00482 
L 230.611327 165.584706 
L 237.227927 163.255898 
L 243.844528 161.014569 
L 250.461129 158.856941 
L 257.07773 156.779322 
L 263.694331 154.778133 
L 270.310931 152.849918 
L 276.927532 150.991364 
L 283.544133 149.199297 
L 290.160734 147.470689 
L 296.777334 145.802657 
L 303.393935 144.192464 
L 303.393935 144.192464 
L 310.010536 142.637512 
L 316.627137 141.135345 
L 323.243738 139.683643 
L 329.860338 138.280225 
L 336.476939 136.923048 
L 343.09354 135.61021 
L 349.710141 134.339953 
L 356.326742 133.110672 
L 362.943342 131.920926 
L 369.559943 130.769452 
L 369.559943 130.769452 
" style="fill:none;stroke:#ff0000;stroke-dasharray:5.55,2.4;stroke-dashoffset:0;stroke-width:1.5;"/>
   </g>
   <g id="line2d_56">
    <defs>
     <path d="M 0 3 
C 0.795609 3 1.55874 2.683901 2.12132 2.12132 
C 2.683901 1.55874 3 0.795609 3 0 
C 3 -0.795609 2.683901 -1.55874 2.12132 -2.12132 
C 1.55874 -2.683901 0.795609 -3 0 -3 
C -0.795609 -3 -1.55874 -2.683901 -2.12132 -2.12132 
C -2.683901 -1.55874 -3 -0.795609 -3 0 
C -3 0.795609 -2.683901 1.55874 -2.12132 2.12132 
C -1.55874 2.683901 -0.795609 3 0 3 
z
" id="mbaf059b80a" style="stroke:#000000;"/>
    </defs>
    <g clip-path="url(#pf162d8a9d4)">
     <use style="stroke:#000000;" x="78.164844" xlink:href="#mbaf059b80a" y="113.82024"/>
     <use style="stroke:#000000;" x="80.679153" xlink:href="#mbaf059b80a" y="116.458769"/>
     <use style="stroke:#000000;" x="82.399469" xlink:href="#mbaf059b80a" y="115.862349"/>
     <use style="stroke:#000000;" x="84.384449" xlink:href="#mbaf059b80a" y="121.900523"/>
     <use style="stroke:#000000;" x="86.104765" xlink:href="#mbaf059b80a" y="119.513951"/>
     <use style="stroke:#000000;" x="89.01607" xlink:href="#mbaf059b80a" y="126.562606"/>
     <use style="stroke:#000000;" x="92.589034" xlink:href="#mbaf059b80a" y="126.393329"/>
     <use style="stroke:#000000;" x="94.97101" xlink:href="#mbaf059b80a" y="127.079493"/>
     <use style="stroke:#000000;" x="98.940971" xlink:href="#mbaf059b80a" y="125.248061"/>
     <use style="stroke:#000000;" x="106.219232" xlink:href="#mbaf059b80a" y="137.451695"/>
     <use style="stroke:#000000;" x="78.164844" xlink:href="#mbaf059b80a" y="115.667553"/>
     <use style="stroke:#000000;" x="94.044686" xlink:href="#mbaf059b80a" y="131.14432"/>
     <use style="stroke:#000000;" x="115.085477" xlink:href="#mbaf059b80a" y="141.517516"/>
     <use style="stroke:#000000;" x="121.17275" xlink:href="#mbaf059b80a" y="142.92844"/>
     <use style="stroke:#000000;" x="128.318678" xlink:href="#mbaf059b80a" y="142.731666"/>
     <use style="stroke:#000000;" x="134.405951" xlink:href="#mbaf059b80a" y="144.2798"/>
     <use style="stroke:#000000;" x="141.55188" xlink:href="#mbaf059b80a" y="140.973548"/>
     <use style="stroke:#000000;" x="142.822609" xlink:href="#mbaf059b80a" y="144.708625"/>
     <use style="stroke:#000000;" x="143.862949" xlink:href="#mbaf059b80a" y="140.271221"/>
     <use style="stroke:#000000;" x="145.504811" xlink:href="#mbaf059b80a" y="139.794308"/>
     <use style="stroke:#000000;" x="145.504811" xlink:href="#mbaf059b80a" y="134.626481"/>
     <use style="stroke:#000000;" x="144.924379" xlink:href="#mbaf059b80a" y="134.938264"/>
     <use style="stroke:#000000;" x="148.06602" xlink:href="#mbaf059b80a" y="139.861724"/>
     <use style="stroke:#000000;" x="150.02381" xlink:href="#mbaf059b80a" y="139.96329"/>
     <use style="stroke:#000000;" x="150.02381" xlink:href="#mbaf059b80a" y="139.197888"/>
     <use style="stroke:#000000;" x="149.933278" xlink:href="#mbaf059b80a" y="132.995941"/>
     <use style="stroke:#000000;" x="154.843518" xlink:href="#mbaf059b80a" y="134.345019"/>
     <use style="stroke:#000000;" x="154.843518" xlink:href="#mbaf059b80a" y="132.504636"/>
     <use style="stroke:#000000;" x="160.099457" xlink:href="#mbaf059b80a" y="136.980374"/>
     <use style="stroke:#000000;" x="159.563293" xlink:href="#mbaf059b80a" y="129.893427"/>
     <use style="stroke:#000000;" x="157.67137" xlink:href="#mbaf059b80a" y="126.059146"/>
     <use style="stroke:#000000;" x="161.847892" xlink:href="#mbaf059b80a" y="129.297007"/>
     <use style="stroke:#000000;" x="163.533398" xlink:href="#mbaf059b80a" y="137.155779"/>
     <use style="stroke:#000000;" x="168.385186" xlink:href="#mbaf059b80a" y="130.467147"/>
     <use style="stroke:#000000;" x="168.385186" xlink:href="#mbaf059b80a" y="124.622777"/>
     <use style="stroke:#000000;" x="168.508271" xlink:href="#mbaf059b80a" y="124.31754"/>
     <use style="stroke:#000000;" x="169.751701" xlink:href="#mbaf059b80a" y="124.31754"/>
     <use style="stroke:#000000;" x="167.046881" xlink:href="#mbaf059b80a" y="123.000513"/>
     <use style="stroke:#000000;" x="176.068174" xlink:href="#mbaf059b80a" y="124.31754"/>
     <use style="stroke:#000000;" x="176.622148" xlink:href="#mbaf059b80a" y="116.9702"/>
     <use style="stroke:#000000;" x="174.702448" xlink:href="#mbaf059b80a" y="115.960487"/>
     <use style="stroke:#000000;" x="180.776028" xlink:href="#mbaf059b80a" y="121.503606"/>
     <use style="stroke:#000000;" x="182.569051" xlink:href="#mbaf059b80a" y="109.92281"/>
     <use style="stroke:#000000;" x="165.735922" xlink:href="#mbaf059b80a" y="129.297007"/>
     <use style="stroke:#000000;" x="166.686569" xlink:href="#mbaf059b80a" y="126.733375"/>
     <use style="stroke:#000000;" x="168.385186" xlink:href="#mbaf059b80a" y="130.178164"/>
     <use style="stroke:#000000;" x="170.891431" xlink:href="#mbaf059b80a" y="129.297007"/>
     <use style="stroke:#000000;" x="170.0032" xlink:href="#mbaf059b80a" y="127.431905"/>
     <use style="stroke:#000000;" x="174.837825" xlink:href="#mbaf059b80a" y="124.017036"/>
     <use style="stroke:#000000;" x="175.381899" xlink:href="#mbaf059b80a" y="121.24344"/>
     <use style="stroke:#000000;" x="177.743613" xlink:href="#mbaf059b80a" y="124.017036"/>
     <use style="stroke:#000000;" x="171.92127" xlink:href="#mbaf059b80a" y="119.992547"/>
     <use style="stroke:#000000;" x="172.704176" xlink:href="#mbaf059b80a" y="117.709662"/>
     <use style="stroke:#000000;" x="171.79163" xlink:href="#mbaf059b80a" y="117.709662"/>
     <use style="stroke:#000000;" x="173.762573" xlink:href="#mbaf059b80a" y="115.667553"/>
     <use style="stroke:#000000;" x="178.596683" xlink:href="#mbaf059b80a" y="117.817641"/>
     <use style="stroke:#000000;" x="178.168843" xlink:href="#mbaf059b80a" y="115.764706"/>
     <use style="stroke:#000000;" x="183.482566" xlink:href="#mbaf059b80a" y="111.342559"/>
     <use style="stroke:#000000;" x="186.934116" xlink:href="#mbaf059b80a" y="111.265185"/>
     <use style="stroke:#000000;" x="188.230357" xlink:href="#mbaf059b80a" y="107.679996"/>
     <use style="stroke:#000000;" x="164.974647" xlink:href="#mbaf059b80a" y="134.938264"/>
     <use style="stroke:#000000;" x="166.694963" xlink:href="#mbaf059b80a" y="133.917917"/>
     <use style="stroke:#000000;" x="166.827295" xlink:href="#mbaf059b80a" y="133.917917"/>
     <use style="stroke:#000000;" x="173.0469" xlink:href="#mbaf059b80a" y="130.301487"/>
     <use style="stroke:#000000;" x="174.237888" xlink:href="#mbaf059b80a" y="132.713672"/>
     <use style="stroke:#000000;" x="179.6635" xlink:href="#mbaf059b80a" y="129.692575"/>
     <use style="stroke:#000000;" x="181.516149" xlink:href="#mbaf059b80a" y="130.508784"/>
     <use style="stroke:#000000;" x="184.162789" xlink:href="#mbaf059b80a" y="130.930151"/>
     <use style="stroke:#000000;" x="188.529746" xlink:href="#mbaf059b80a" y="126.562606"/>
     <use style="stroke:#000000;" x="189.323738" xlink:href="#mbaf059b80a" y="128.156554"/>
     <use style="stroke:#000000;" x="196.734331" xlink:href="#mbaf059b80a" y="129.493782"/>
     <use style="stroke:#000000;" x="199.910299" xlink:href="#mbaf059b80a" y="120.607903"/>
     <use style="stroke:#000000;" x="202.821603" xlink:href="#mbaf059b80a" y="121.24344"/>
    </g>
   </g>
   <g id="patch_3">
    <path d="M 49.978125 239.758125 
L 49.978125 22.318125 
" style="fill:none;stroke:#000000;stroke-linecap:square;stroke-linejoin:miter;stroke-width:0.8;"/>
   </g>
   <g id="patch_4">
    <path d="M 384.778125 239.758125 
L 384.778125 22.318125 
" style="fill:none;stroke:#000000;stroke-linecap:square;stroke-linejoin:miter;stroke-width:0.8;"/>
   </g>
   <g id="patch_5">
    <path d="M 49.978125 239.758125 
L 384.778125 239.758125 
" style="fill:none;stroke:#000000;stroke-linecap:square;stroke-linejoin:miter;stroke-width:0.8;"/>
   </g>
   <g id="patch_6">
    <path d="M 49.978125 22.318125 
L 384.778125 22.318125 
" style="fill:none;stroke:#000000;stroke-linecap:square;stroke-linejoin:miter;stroke-width:0.8;"/>
   </g>
   <g id="text_13">
    <!-- 2 HO2 &lt;=&gt; H2O2 + O2 -->
    <defs>
     <path d="M 9.8125 72.90625 
L 19.671875 72.90625 
L 19.671875 43.015625 
L 55.515625 43.015625 
L 55.515625 72.90625 
L 65.375 72.90625 
L 65.375 0 
L 55.515625 0 
L 55.515625 34.71875 
L 19.671875 34.71875 
L 19.671875 0 
L 9.8125 0 
z
" id="DejaVuSans-72"/>
     <path d="M 39.40625 66.21875 
Q 28.65625 66.21875 22.328125 58.203125 
Q 16.015625 50.203125 16.015625 36.375 
Q 16.015625 22.609375 22.328125 14.59375 
Q 28.65625 6.59375 39.40625 6.59375 
Q 50.140625 6.59375 56.421875 14.59375 
Q 62.703125 22.609375 62.703125 36.375 
Q 62.703125 50.203125 56.421875 58.203125 
Q 50.140625 66.21875 39.40625 66.21875 
z
M 39.40625 74.21875 
Q 54.734375 74.21875 63.90625 63.9375 
Q 73.09375 53.65625 73.09375 36.375 
Q 73.09375 19.140625 63.90625 8.859375 
Q 54.734375 -1.421875 39.40625 -1.421875 
Q 24.03125 -1.421875 14.8125 8.828125 
Q 5.609375 19.09375 5.609375 36.375 
Q 5.609375 53.65625 14.8125 63.9375 
Q 24.03125 74.21875 39.40625 74.21875 
z
" id="DejaVuSans-79"/>
     <path d="M 73.1875 49.21875 
L 22.796875 31.296875 
L 73.1875 13.484375 
L 73.1875 4.59375 
L 10.59375 27.296875 
L 10.59375 35.40625 
L 73.1875 58.109375 
z
" id="DejaVuSans-60"/>
     <path d="M 10.59375 45.40625 
L 73.1875 45.40625 
L 73.1875 37.203125 
L 10.59375 37.203125 
z
M 10.59375 25.484375 
L 73.1875 25.484375 
L 73.1875 17.1875 
L 10.59375 17.1875 
z
" id="DejaVuSans-61"/>
     <path d="M 10.59375 49.21875 
L 10.59375 58.109375 
L 73.1875 35.40625 
L 73.1875 27.296875 
L 10.59375 4.59375 
L 10.59375 13.484375 
L 60.890625 31.296875 
z
" id="DejaVuSans-62"/>
     <path d="M 46 62.703125 
L 46 35.5 
L 73.1875 35.5 
L 73.1875 27.203125 
L 46 27.203125 
L 46 0 
L 37.796875 0 
L 37.796875 27.203125 
L 10.59375 27.203125 
L 10.59375 35.5 
L 37.796875 35.5 
L 37.796875 62.703125 
z
" id="DejaVuSans-43"/>
    </defs>
    <g transform="translate(145.45125 16.318125)scale(0.12 -0.12)">
     <use xlink:href="#DejaVuSans-50"/>
     <use x="63.623047" xlink:href="#DejaVuSans-32"/>
     <use x="95.410156" xlink:href="#DejaVuSans-72"/>
     <use x="170.605469" xlink:href="#DejaVuSans-79"/>
     <use x="249.316406" xlink:href="#DejaVuSans-50"/>
     <use x="312.939453" xlink:href="#DejaVuSans-32"/>
     <use x="344.726562" xlink:href="#DejaVuSans-60"/>
     <use x="428.515625" xlink:href="#DejaVuSans-61"/>
     <use x="512.304688" xlink:href="#DejaVuSans-62"/>
     <use x="596.09375" xlink:href="#DejaVuSans-32"/>
     <use x="627.880859" xlink:href="#DejaVuSans-72"/>
     <use x="703.076172" xlink:href="#DejaVuSans-50"/>
     <use x="766.699219" xlink:href="#DejaVuSans-79"/>
     <use x="845.410156" xlink:href="#DejaVuSans-50"/>
     <use x="909.033203" xlink:href="#DejaVuSans-32"/>
     <use x="940.820312" xlink:href="#DejaVuSans-43"/>
     <use x="1024.609375" xlink:href="#DejaVuSans-32"/>
     <use x="1056.396484" xlink:href="#DejaVuSans-79"/>
     <use x="1135.107422" xlink:href="#DejaVuSans-50"/>
    </g>
   </g>
  </g>
 </g>
 <defs>
  <clipPath id="pf162d8a9d4">
   <rect height="217.44" width="334.8" x="49.978125" y="22.318125"/>
  </clipPath>
 </defs>
</svg>
