<?xml version="1.0" encoding="utf-8" standalone="no"?>
<!DOCTYPE svg PUBLIC "-//W3C//DTD SVG 1.1//EN"
  "http://www.w3.org/Graphics/SVG/1.1/DTD/svg11.dtd">
<!-- Created with matplotlib (https://matplotlib.org/) -->
<svg height="277.314375pt" version="1.1" viewBox="0 0 395.64375 277.314375" width="395.64375pt" xmlns="http://www.w3.org/2000/svg" xmlns:xlink="http://www.w3.org/1999/xlink">
 <defs>
  <style type="text/css">
*{stroke-linecap:butt;stroke-linejoin:round;}
  </style>
 </defs>
 <g id="figure_1">
  <g id="patch_1">
   <path d="M 0 277.314375 
L 395.64375 277.314375 
L 395.64375 0 
L 0 0 
z
" style="fill:none;"/>
  </g>
  <g id="axes_1">
   <g id="patch_2">
    <path d="M 50.14375 239.758125 
L 384.94375 239.758125 
L 384.94375 22.318125 
L 50.14375 22.318125 
z
" style="fill:none;"/>
   </g>
   <g id="matplotlib.axis_1">
    <g id="xtick_1">
     <g id="line2d_1">
      <defs>
       <path d="M 0 0 
L 0 3.5 
" id="meb465e9278" style="stroke:#000000;stroke-width:0.8;"/>
      </defs>
      <g>
       <use style="stroke:#000000;stroke-width:0.8;" x="65.361932" xlink:href="#meb465e9278" y="239.758125"/>
      </g>
     </g>
     <g id="text_1">
      <!-- 0.0 -->
      <defs>
       <path d="M 31.78125 66.40625 
Q 24.171875 66.40625 20.328125 58.90625 
Q 16.5 51.421875 16.5 36.375 
Q 16.5 21.390625 20.328125 13.890625 
Q 24.171875 6.390625 31.78125 6.390625 
Q 39.453125 6.390625 43.28125 13.890625 
Q 47.125 21.390625 47.125 36.375 
Q 47.125 51.421875 43.28125 58.90625 
Q 39.453125 66.40625 31.78125 66.40625 
z
M 31.78125 74.21875 
Q 44.046875 74.21875 50.515625 64.515625 
Q 56.984375 54.828125 56.984375 36.375 
Q 56.984375 17.96875 50.515625 8.265625 
Q 44.046875 -1.421875 31.78125 -1.421875 
Q 19.53125 -1.421875 13.0625 8.265625 
Q 6.59375 17.96875 6.59375 36.375 
Q 6.59375 54.828125 13.0625 64.515625 
Q 19.53125 74.21875 31.78125 74.21875 
z
" id="DejaVuSans-48"/>
       <path d="M 10.6875 12.40625 
L 21 12.40625 
L 21 0 
L 10.6875 0 
z
" id="DejaVuSans-46"/>
      </defs>
      <g transform="translate(57.410369 254.356562)scale(0.1 -0.1)">
       <use xlink:href="#DejaVuSans-48"/>
       <use x="63.623047" xlink:href="#DejaVuSans-46"/>
       <use x="95.410156" xlink:href="#DejaVuSans-48"/>
      </g>
     </g>
    </g>
    <g id="xtick_2">
     <g id="line2d_2">
      <g>
       <use style="stroke:#000000;stroke-width:0.8;" x="125.961959" xlink:href="#meb465e9278" y="239.758125"/>
      </g>
     </g>
     <g id="text_2">
      <!-- 0.2 -->
      <defs>
       <path d="M 19.1875 8.296875 
L 53.609375 8.296875 
L 53.609375 0 
L 7.328125 0 
L 7.328125 8.296875 
Q 12.9375 14.109375 22.625 23.890625 
Q 32.328125 33.6875 34.8125 36.53125 
Q 39.546875 41.84375 41.421875 45.53125 
Q 43.3125 49.21875 43.3125 52.78125 
Q 43.3125 58.59375 39.234375 62.25 
Q 35.15625 65.921875 28.609375 65.921875 
Q 23.96875 65.921875 18.8125 64.3125 
Q 13.671875 62.703125 7.8125 59.421875 
L 7.8125 69.390625 
Q 13.765625 71.78125 18.9375 73 
Q 24.125 74.21875 28.421875 74.21875 
Q 39.75 74.21875 46.484375 68.546875 
Q 53.21875 62.890625 53.21875 53.421875 
Q 53.21875 48.921875 51.53125 44.890625 
Q 49.859375 40.875 45.40625 35.40625 
Q 44.1875 33.984375 37.640625 27.21875 
Q 31.109375 20.453125 19.1875 8.296875 
z
" id="DejaVuSans-50"/>
      </defs>
      <g transform="translate(118.010396 254.356562)scale(0.1 -0.1)">
       <use xlink:href="#DejaVuSans-48"/>
       <use x="63.623047" xlink:href="#DejaVuSans-46"/>
       <use x="95.410156" xlink:href="#DejaVuSans-50"/>
      </g>
     </g>
    </g>
    <g id="xtick_3">
     <g id="line2d_3">
      <g>
       <use style="stroke:#000000;stroke-width:0.8;" x="186.561986" xlink:href="#meb465e9278" y="239.758125"/>
      </g>
     </g>
     <g id="text_3">
      <!-- 0.4 -->
      <defs>
       <path d="M 37.796875 64.3125 
L 12.890625 25.390625 
L 37.796875 25.390625 
z
M 35.203125 72.90625 
L 47.609375 72.90625 
L 47.609375 25.390625 
L 58.015625 25.390625 
L 58.015625 17.1875 
L 47.609375 17.1875 
L 47.609375 0 
L 37.796875 0 
L 37.796875 17.1875 
L 4.890625 17.1875 
L 4.890625 26.703125 
z
" id="DejaVuSans-52"/>
      </defs>
      <g transform="translate(178.610424 254.356562)scale(0.1 -0.1)">
       <use xlink:href="#DejaVuSans-48"/>
       <use x="63.623047" xlink:href="#DejaVuSans-46"/>
       <use x="95.410156" xlink:href="#DejaVuSans-52"/>
      </g>
     </g>
    </g>
    <g id="xtick_4">
     <g id="line2d_4">
      <g>
       <use style="stroke:#000000;stroke-width:0.8;" x="247.162013" xlink:href="#meb465e9278" y="239.758125"/>
      </g>
     </g>
     <g id="text_4">
      <!-- 0.6 -->
      <defs>
       <path d="M 33.015625 40.375 
Q 26.375 40.375 22.484375 35.828125 
Q 18.609375 31.296875 18.609375 23.390625 
Q 18.609375 15.53125 22.484375 10.953125 
Q 26.375 6.390625 33.015625 6.390625 
Q 39.65625 6.390625 43.53125 10.953125 
Q 47.40625 15.53125 47.40625 23.390625 
Q 47.40625 31.296875 43.53125 35.828125 
Q 39.65625 40.375 33.015625 40.375 
z
M 52.59375 71.296875 
L 52.59375 62.3125 
Q 48.875 64.0625 45.09375 64.984375 
Q 41.3125 65.921875 37.59375 65.921875 
Q 27.828125 65.921875 22.671875 59.328125 
Q 17.53125 52.734375 16.796875 39.40625 
Q 19.671875 43.65625 24.015625 45.921875 
Q 28.375 48.1875 33.59375 48.1875 
Q 44.578125 48.1875 50.953125 41.515625 
Q 57.328125 34.859375 57.328125 23.390625 
Q 57.328125 12.15625 50.6875 5.359375 
Q 44.046875 -1.421875 33.015625 -1.421875 
Q 20.359375 -1.421875 13.671875 8.265625 
Q 6.984375 17.96875 6.984375 36.375 
Q 6.984375 53.65625 15.1875 63.9375 
Q 23.390625 74.21875 37.203125 74.21875 
Q 40.921875 74.21875 44.703125 73.484375 
Q 48.484375 72.75 52.59375 71.296875 
z
" id="DejaVuSans-54"/>
      </defs>
      <g transform="translate(239.210451 254.356562)scale(0.1 -0.1)">
       <use xlink:href="#DejaVuSans-48"/>
       <use x="63.623047" xlink:href="#DejaVuSans-46"/>
       <use x="95.410156" xlink:href="#DejaVuSans-54"/>
      </g>
     </g>
    </g>
    <g id="xtick_5">
     <g id="line2d_5">
      <g>
       <use style="stroke:#000000;stroke-width:0.8;" x="307.76204" xlink:href="#meb465e9278" y="239.758125"/>
      </g>
     </g>
     <g id="text_5">
      <!-- 0.8 -->
      <defs>
       <path d="M 31.78125 34.625 
Q 24.75 34.625 20.71875 30.859375 
Q 16.703125 27.09375 16.703125 20.515625 
Q 16.703125 13.921875 20.71875 10.15625 
Q 24.75 6.390625 31.78125 6.390625 
Q 38.8125 6.390625 42.859375 10.171875 
Q 46.921875 13.96875 46.921875 20.515625 
Q 46.921875 27.09375 42.890625 30.859375 
Q 38.875 34.625 31.78125 34.625 
z
M 21.921875 38.8125 
Q 15.578125 40.375 12.03125 44.71875 
Q 8.5 49.078125 8.5 55.328125 
Q 8.5 64.0625 14.71875 69.140625 
Q 20.953125 74.21875 31.78125 74.21875 
Q 42.671875 74.21875 48.875 69.140625 
Q 55.078125 64.0625 55.078125 55.328125 
Q 55.078125 49.078125 51.53125 44.71875 
Q 48 40.375 41.703125 38.8125 
Q 48.828125 37.15625 52.796875 32.3125 
Q 56.78125 27.484375 56.78125 20.515625 
Q 56.78125 9.90625 50.3125 4.234375 
Q 43.84375 -1.421875 31.78125 -1.421875 
Q 19.734375 -1.421875 13.25 4.234375 
Q 6.78125 9.90625 6.78125 20.515625 
Q 6.78125 27.484375 10.78125 32.3125 
Q 14.796875 37.15625 21.921875 38.8125 
z
M 18.3125 54.390625 
Q 18.3125 48.734375 21.84375 45.5625 
Q 25.390625 42.390625 31.78125 42.390625 
Q 38.140625 42.390625 41.71875 45.5625 
Q 45.3125 48.734375 45.3125 54.390625 
Q 45.3125 60.0625 41.71875 63.234375 
Q 38.140625 66.40625 31.78125 66.40625 
Q 25.390625 66.40625 21.84375 63.234375 
Q 18.3125 60.0625 18.3125 54.390625 
z
" id="DejaVuSans-56"/>
      </defs>
      <g transform="translate(299.810478 254.356562)scale(0.1 -0.1)">
       <use xlink:href="#DejaVuSans-48"/>
       <use x="63.623047" xlink:href="#DejaVuSans-46"/>
       <use x="95.410156" xlink:href="#DejaVuSans-56"/>
      </g>
     </g>
    </g>
    <g id="xtick_6">
     <g id="line2d_6">
      <g>
       <use style="stroke:#000000;stroke-width:0.8;" x="368.362068" xlink:href="#meb465e9278" y="239.758125"/>
      </g>
     </g>
     <g id="text_6">
      <!-- 1.0 -->
      <defs>
       <path d="M 12.40625 8.296875 
L 28.515625 8.296875 
L 28.515625 63.921875 
L 10.984375 60.40625 
L 10.984375 69.390625 
L 28.421875 72.90625 
L 38.28125 72.90625 
L 38.28125 8.296875 
L 54.390625 8.296875 
L 54.390625 0 
L 12.40625 0 
z
" id="DejaVuSans-49"/>
      </defs>
      <g transform="translate(360.410505 254.356562)scale(0.1 -0.1)">
       <use xlink:href="#DejaVuSans-49"/>
       <use x="63.623047" xlink:href="#DejaVuSans-46"/>
       <use x="95.410156" xlink:href="#DejaVuSans-48"/>
      </g>
     </g>
    </g>
    <g id="text_7">
     <!-- Time (ms) -->
     <defs>
      <path d="M -0.296875 72.90625 
L 61.375 72.90625 
L 61.375 64.59375 
L 35.5 64.59375 
L 35.5 0 
L 25.59375 0 
L 25.59375 64.59375 
L -0.296875 64.59375 
z
" id="DejaVuSans-84"/>
      <path d="M 9.421875 54.6875 
L 18.40625 54.6875 
L 18.40625 0 
L 9.421875 0 
z
M 9.421875 75.984375 
L 18.40625 75.984375 
L 18.40625 64.59375 
L 9.421875 64.59375 
z
" id="DejaVuSans-105"/>
      <path d="M 52 44.1875 
Q 55.375 50.25 60.0625 53.125 
Q 64.75 56 71.09375 56 
Q 79.640625 56 84.28125 50.015625 
Q 88.921875 44.046875 88.921875 33.015625 
L 88.921875 0 
L 79.890625 0 
L 79.890625 32.71875 
Q 79.890625 40.578125 77.09375 44.375 
Q 74.3125 48.1875 68.609375 48.1875 
Q 61.625 48.1875 57.5625 43.546875 
Q 53.515625 38.921875 53.515625 30.90625 
L 53.515625 0 
L 44.484375 0 
L 44.484375 32.71875 
Q 44.484375 40.625 41.703125 44.40625 
Q 38.921875 48.1875 33.109375 48.1875 
Q 26.21875 48.1875 22.15625 43.53125 
Q 18.109375 38.875 18.109375 30.90625 
L 18.109375 0 
L 9.078125 0 
L 9.078125 54.6875 
L 18.109375 54.6875 
L 18.109375 46.1875 
Q 21.1875 51.21875 25.484375 53.609375 
Q 29.78125 56 35.6875 56 
Q 41.65625 56 45.828125 52.96875 
Q 50 49.953125 52 44.1875 
z
" id="DejaVuSans-109"/>
      <path d="M 56.203125 29.59375 
L 56.203125 25.203125 
L 14.890625 25.203125 
Q 15.484375 15.921875 20.484375 11.0625 
Q 25.484375 6.203125 34.421875 6.203125 
Q 39.59375 6.203125 44.453125 7.46875 
Q 49.3125 8.734375 54.109375 11.28125 
L 54.109375 2.78125 
Q 49.265625 0.734375 44.1875 -0.34375 
Q 39.109375 -1.421875 33.890625 -1.421875 
Q 20.796875 -1.421875 13.15625 6.1875 
Q 5.515625 13.8125 5.515625 26.8125 
Q 5.515625 40.234375 12.765625 48.109375 
Q 20.015625 56 32.328125 56 
Q 43.359375 56 49.78125 48.890625 
Q 56.203125 41.796875 56.203125 29.59375 
z
M 47.21875 32.234375 
Q 47.125 39.59375 43.09375 43.984375 
Q 39.0625 48.390625 32.421875 48.390625 
Q 24.90625 48.390625 20.390625 44.140625 
Q 15.875 39.890625 15.1875 32.171875 
z
" id="DejaVuSans-101"/>
      <path id="DejaVuSans-32"/>
      <path d="M 31 75.875 
Q 24.46875 64.65625 21.28125 53.65625 
Q 18.109375 42.671875 18.109375 31.390625 
Q 18.109375 20.125 21.3125 9.0625 
Q 24.515625 -2 31 -13.1875 
L 23.1875 -13.1875 
Q 15.875 -1.703125 12.234375 9.375 
Q 8.59375 20.453125 8.59375 31.390625 
Q 8.59375 42.28125 12.203125 53.3125 
Q 15.828125 64.359375 23.1875 75.875 
z
" id="DejaVuSans-40"/>
      <path d="M 44.28125 53.078125 
L 44.28125 44.578125 
Q 40.484375 46.53125 36.375 47.5 
Q 32.28125 48.484375 27.875 48.484375 
Q 21.1875 48.484375 17.84375 46.4375 
Q 14.5 44.390625 14.5 40.28125 
Q 14.5 37.15625 16.890625 35.375 
Q 19.28125 33.59375 26.515625 31.984375 
L 29.59375 31.296875 
Q 39.15625 29.25 43.1875 25.515625 
Q 47.21875 21.78125 47.21875 15.09375 
Q 47.21875 7.46875 41.1875 3.015625 
Q 35.15625 -1.421875 24.609375 -1.421875 
Q 20.21875 -1.421875 15.453125 -0.5625 
Q 10.6875 0.296875 5.421875 2 
L 5.421875 11.28125 
Q 10.40625 8.6875 15.234375 7.390625 
Q 20.0625 6.109375 24.8125 6.109375 
Q 31.15625 6.109375 34.5625 8.28125 
Q 37.984375 10.453125 37.984375 14.40625 
Q 37.984375 18.0625 35.515625 20.015625 
Q 33.0625 21.96875 24.703125 23.78125 
L 21.578125 24.515625 
Q 13.234375 26.265625 9.515625 29.90625 
Q 5.8125 33.546875 5.8125 39.890625 
Q 5.8125 47.609375 11.28125 51.796875 
Q 16.75 56 26.8125 56 
Q 31.78125 56 36.171875 55.265625 
Q 40.578125 54.546875 44.28125 53.078125 
z
" id="DejaVuSans-115"/>
      <path d="M 8.015625 75.875 
L 15.828125 75.875 
Q 23.140625 64.359375 26.78125 53.3125 
Q 30.421875 42.28125 30.421875 31.390625 
Q 30.421875 20.453125 26.78125 9.375 
Q 23.140625 -1.703125 15.828125 -13.1875 
L 8.015625 -13.1875 
Q 14.5 -2 17.703125 9.0625 
Q 20.90625 20.125 20.90625 31.390625 
Q 20.90625 42.671875 17.703125 53.65625 
Q 14.5 64.65625 8.015625 75.875 
z
" id="DejaVuSans-41"/>
     </defs>
     <g transform="translate(192.190625 268.034687)scale(0.1 -0.1)">
      <use xlink:href="#DejaVuSans-84"/>
      <use x="61.037109" xlink:href="#DejaVuSans-105"/>
      <use x="88.820312" xlink:href="#DejaVuSans-109"/>
      <use x="186.232422" xlink:href="#DejaVuSans-101"/>
      <use x="247.755859" xlink:href="#DejaVuSans-32"/>
      <use x="279.542969" xlink:href="#DejaVuSans-40"/>
      <use x="318.556641" xlink:href="#DejaVuSans-109"/>
      <use x="415.96875" xlink:href="#DejaVuSans-115"/>
      <use x="468.068359" xlink:href="#DejaVuSans-41"/>
     </g>
    </g>
   </g>
   <g id="matplotlib.axis_2">
    <g id="ytick_1">
     <g id="line2d_7">
      <defs>
       <path d="M 0 0 
L -3.5 0 
" id="m6144d13b84" style="stroke:#000000;stroke-width:0.8;"/>
      </defs>
      <g>
       <use style="stroke:#000000;stroke-width:0.8;" x="50.14375" xlink:href="#m6144d13b84" y="230.884779"/>
      </g>
     </g>
     <g id="text_8">
      <!-- 0.00 -->
      <g transform="translate(20.878125 234.683997)scale(0.1 -0.1)">
       <use xlink:href="#DejaVuSans-48"/>
       <use x="63.623047" xlink:href="#DejaVuSans-46"/>
       <use x="95.410156" xlink:href="#DejaVuSans-48"/>
       <use x="159.033203" xlink:href="#DejaVuSans-48"/>
      </g>
     </g>
    </g>
    <g id="ytick_2">
     <g id="line2d_8">
      <g>
       <use style="stroke:#000000;stroke-width:0.8;" x="50.14375" xlink:href="#m6144d13b84" y="200.244364"/>
      </g>
     </g>
     <g id="text_9">
      <!-- 0.02 -->
      <g transform="translate(20.878125 204.043583)scale(0.1 -0.1)">
       <use xlink:href="#DejaVuSans-48"/>
       <use x="63.623047" xlink:href="#DejaVuSans-46"/>
       <use x="95.410156" xlink:href="#DejaVuSans-48"/>
       <use x="159.033203" xlink:href="#DejaVuSans-50"/>
      </g>
     </g>
    </g>
    <g id="ytick_3">
     <g id="line2d_9">
      <g>
       <use style="stroke:#000000;stroke-width:0.8;" x="50.14375" xlink:href="#m6144d13b84" y="169.603949"/>
      </g>
     </g>
     <g id="text_10">
      <!-- 0.04 -->
      <g transform="translate(20.878125 173.403168)scale(0.1 -0.1)">
       <use xlink:href="#DejaVuSans-48"/>
       <use x="63.623047" xlink:href="#DejaVuSans-46"/>
       <use x="95.410156" xlink:href="#DejaVuSans-48"/>
       <use x="159.033203" xlink:href="#DejaVuSans-52"/>
      </g>
     </g>
    </g>
    <g id="ytick_4">
     <g id="line2d_10">
      <g>
       <use style="stroke:#000000;stroke-width:0.8;" x="50.14375" xlink:href="#m6144d13b84" y="138.963534"/>
      </g>
     </g>
     <g id="text_11">
      <!-- 0.06 -->
      <g transform="translate(20.878125 142.762753)scale(0.1 -0.1)">
       <use xlink:href="#DejaVuSans-48"/>
       <use x="63.623047" xlink:href="#DejaVuSans-46"/>
       <use x="95.410156" xlink:href="#DejaVuSans-48"/>
       <use x="159.033203" xlink:href="#DejaVuSans-54"/>
      </g>
     </g>
    </g>
    <g id="ytick_5">
     <g id="line2d_11">
      <g>
       <use style="stroke:#000000;stroke-width:0.8;" x="50.14375" xlink:href="#m6144d13b84" y="108.32312"/>
      </g>
     </g>
     <g id="text_12">
      <!-- 0.08 -->
      <g transform="translate(20.878125 112.122338)scale(0.1 -0.1)">
       <use xlink:href="#DejaVuSans-48"/>
       <use x="63.623047" xlink:href="#DejaVuSans-46"/>
       <use x="95.410156" xlink:href="#DejaVuSans-48"/>
       <use x="159.033203" xlink:href="#DejaVuSans-56"/>
      </g>
     </g>
    </g>
    <g id="ytick_6">
     <g id="line2d_12">
      <g>
       <use style="stroke:#000000;stroke-width:0.8;" x="50.14375" xlink:href="#m6144d13b84" y="77.682705"/>
      </g>
     </g>
     <g id="text_13">
      <!-- 0.10 -->
      <g transform="translate(20.878125 81.481924)scale(0.1 -0.1)">
       <use xlink:href="#DejaVuSans-48"/>
       <use x="63.623047" xlink:href="#DejaVuSans-46"/>
       <use x="95.410156" xlink:href="#DejaVuSans-49"/>
       <use x="159.033203" xlink:href="#DejaVuSans-48"/>
      </g>
     </g>
    </g>
    <g id="ytick_7">
     <g id="line2d_13">
      <g>
       <use style="stroke:#000000;stroke-width:0.8;" x="50.14375" xlink:href="#m6144d13b84" y="47.04229"/>
      </g>
     </g>
     <g id="text_14">
      <!-- 0.12 -->
      <g transform="translate(20.878125 50.841509)scale(0.1 -0.1)">
       <use xlink:href="#DejaVuSans-48"/>
       <use x="63.623047" xlink:href="#DejaVuSans-46"/>
       <use x="95.410156" xlink:href="#DejaVuSans-49"/>
       <use x="159.033203" xlink:href="#DejaVuSans-50"/>
      </g>
     </g>
    </g>
    <g id="text_15">
     <!-- Absorbance227 -->
     <defs>
      <path d="M 34.1875 63.1875 
L 20.796875 26.90625 
L 47.609375 26.90625 
z
M 28.609375 72.90625 
L 39.796875 72.90625 
L 67.578125 0 
L 57.328125 0 
L 50.6875 18.703125 
L 17.828125 18.703125 
L 11.1875 0 
L 0.78125 0 
z
" id="DejaVuSans-65"/>
      <path d="M 48.6875 27.296875 
Q 48.6875 37.203125 44.609375 42.84375 
Q 40.53125 48.484375 33.40625 48.484375 
Q 26.265625 48.484375 22.1875 42.84375 
Q 18.109375 37.203125 18.109375 27.296875 
Q 18.109375 17.390625 22.1875 11.75 
Q 26.265625 6.109375 33.40625 6.109375 
Q 40.53125 6.109375 44.609375 11.75 
Q 48.6875 17.390625 48.6875 27.296875 
z
M 18.109375 46.390625 
Q 20.953125 51.265625 25.265625 53.625 
Q 29.59375 56 35.59375 56 
Q 45.5625 56 51.78125 48.09375 
Q 58.015625 40.1875 58.015625 27.296875 
Q 58.015625 14.40625 51.78125 6.484375 
Q 45.5625 -1.421875 35.59375 -1.421875 
Q 29.59375 -1.421875 25.265625 0.953125 
Q 20.953125 3.328125 18.109375 8.203125 
L 18.109375 0 
L 9.078125 0 
L 9.078125 75.984375 
L 18.109375 75.984375 
z
" id="DejaVuSans-98"/>
      <path d="M 30.609375 48.390625 
Q 23.390625 48.390625 19.1875 42.75 
Q 14.984375 37.109375 14.984375 27.296875 
Q 14.984375 17.484375 19.15625 11.84375 
Q 23.34375 6.203125 30.609375 6.203125 
Q 37.796875 6.203125 41.984375 11.859375 
Q 46.1875 17.53125 46.1875 27.296875 
Q 46.1875 37.015625 41.984375 42.703125 
Q 37.796875 48.390625 30.609375 48.390625 
z
M 30.609375 56 
Q 42.328125 56 49.015625 48.375 
Q 55.71875 40.765625 55.71875 27.296875 
Q 55.71875 13.875 49.015625 6.21875 
Q 42.328125 -1.421875 30.609375 -1.421875 
Q 18.84375 -1.421875 12.171875 6.21875 
Q 5.515625 13.875 5.515625 27.296875 
Q 5.515625 40.765625 12.171875 48.375 
Q 18.84375 56 30.609375 56 
z
" id="DejaVuSans-111"/>
      <path d="M 41.109375 46.296875 
Q 39.59375 47.171875 37.8125 47.578125 
Q 36.03125 48 33.890625 48 
Q 26.265625 48 22.1875 43.046875 
Q 18.109375 38.09375 18.109375 28.8125 
L 18.109375 0 
L 9.078125 0 
L 9.078125 54.6875 
L 18.109375 54.6875 
L 18.109375 46.1875 
Q 20.953125 51.171875 25.484375 53.578125 
Q 30.03125 56 36.53125 56 
Q 37.453125 56 38.578125 55.875 
Q 39.703125 55.765625 41.0625 55.515625 
z
" id="DejaVuSans-114"/>
      <path d="M 34.28125 27.484375 
Q 23.390625 27.484375 19.1875 25 
Q 14.984375 22.515625 14.984375 16.5 
Q 14.984375 11.71875 18.140625 8.90625 
Q 21.296875 6.109375 26.703125 6.109375 
Q 34.1875 6.109375 38.703125 11.40625 
Q 43.21875 16.703125 43.21875 25.484375 
L 43.21875 27.484375 
z
M 52.203125 31.203125 
L 52.203125 0 
L 43.21875 0 
L 43.21875 8.296875 
Q 40.140625 3.328125 35.546875 0.953125 
Q 30.953125 -1.421875 24.3125 -1.421875 
Q 15.921875 -1.421875 10.953125 3.296875 
Q 6 8.015625 6 15.921875 
Q 6 25.140625 12.171875 29.828125 
Q 18.359375 34.515625 30.609375 34.515625 
L 43.21875 34.515625 
L 43.21875 35.40625 
Q 43.21875 41.609375 39.140625 45 
Q 35.0625 48.390625 27.6875 48.390625 
Q 23 48.390625 18.546875 47.265625 
Q 14.109375 46.140625 10.015625 43.890625 
L 10.015625 52.203125 
Q 14.9375 54.109375 19.578125 55.046875 
Q 24.21875 56 28.609375 56 
Q 40.484375 56 46.34375 49.84375 
Q 52.203125 43.703125 52.203125 31.203125 
z
" id="DejaVuSans-97"/>
      <path d="M 54.890625 33.015625 
L 54.890625 0 
L 45.90625 0 
L 45.90625 32.71875 
Q 45.90625 40.484375 42.875 44.328125 
Q 39.84375 48.1875 33.796875 48.1875 
Q 26.515625 48.1875 22.3125 43.546875 
Q 18.109375 38.921875 18.109375 30.90625 
L 18.109375 0 
L 9.078125 0 
L 9.078125 54.6875 
L 18.109375 54.6875 
L 18.109375 46.1875 
Q 21.34375 51.125 25.703125 53.5625 
Q 30.078125 56 35.796875 56 
Q 45.21875 56 50.046875 50.171875 
Q 54.890625 44.34375 54.890625 33.015625 
z
" id="DejaVuSans-110"/>
      <path d="M 48.78125 52.59375 
L 48.78125 44.1875 
Q 44.96875 46.296875 41.140625 47.34375 
Q 37.3125 48.390625 33.40625 48.390625 
Q 24.65625 48.390625 19.8125 42.84375 
Q 14.984375 37.3125 14.984375 27.296875 
Q 14.984375 17.28125 19.8125 11.734375 
Q 24.65625 6.203125 33.40625 6.203125 
Q 37.3125 6.203125 41.140625 7.25 
Q 44.96875 8.296875 48.78125 10.40625 
L 48.78125 2.09375 
Q 45.015625 0.34375 40.984375 -0.53125 
Q 36.96875 -1.421875 32.421875 -1.421875 
Q 20.0625 -1.421875 12.78125 6.34375 
Q 5.515625 14.109375 5.515625 27.296875 
Q 5.515625 40.671875 12.859375 48.328125 
Q 20.21875 56 33.015625 56 
Q 37.15625 56 41.109375 55.140625 
Q 45.0625 54.296875 48.78125 52.59375 
z
" id="DejaVuSans-99"/>
      <path d="M 8.203125 72.90625 
L 55.078125 72.90625 
L 55.078125 68.703125 
L 28.609375 0 
L 18.3125 0 
L 43.21875 64.59375 
L 8.203125 64.59375 
z
" id="DejaVuSans-55"/>
     </defs>
     <g transform="translate(14.798438 170.12875)rotate(-90)scale(0.1 -0.1)">
      <use xlink:href="#DejaVuSans-65"/>
      <use x="68.408203" xlink:href="#DejaVuSans-98"/>
      <use x="131.884766" xlink:href="#DejaVuSans-115"/>
      <use x="183.984375" xlink:href="#DejaVuSans-111"/>
      <use x="245.166016" xlink:href="#DejaVuSans-114"/>
      <use x="286.279297" xlink:href="#DejaVuSans-98"/>
      <use x="349.755859" xlink:href="#DejaVuSans-97"/>
      <use x="411.035156" xlink:href="#DejaVuSans-110"/>
      <use x="474.414062" xlink:href="#DejaVuSans-99"/>
      <use x="529.394531" xlink:href="#DejaVuSans-101"/>
      <use x="590.917969" xlink:href="#DejaVuSans-50"/>
      <use x="654.541016" xlink:href="#DejaVuSans-50"/>
      <use x="718.164062" xlink:href="#DejaVuSans-55"/>
     </g>
    </g>
   </g>
   <g id="line2d_14">
    <defs>
     <path d="M 0 3 
C 0.795609 3 1.55874 2.683901 2.12132 2.12132 
C 2.683901 1.55874 3 0.795609 3 0 
C 3 -0.795609 2.683901 -1.55874 2.12132 -2.12132 
C 1.55874 -2.683901 0.795609 -3 0 -3 
C -0.795609 -3 -1.55874 -2.683901 -2.12132 -2.12132 
C -2.683901 -1.55874 -3 -0.795609 -3 0 
C -3 0.795609 -2.683901 1.55874 -2.12132 2.12132 
C -1.55874 2.683901 -0.795609 3 0 3 
z
" id="m8b9d5dd50e" style="stroke:#000000;"/>
    </defs>
    <g clip-path="url(#pa1f1608dc2)">
     <use style="stroke:#000000;" x="65.361932" xlink:href="#m8b9d5dd50e" y="131.349851"/>
     <use style="stroke:#000000;" x="65.361939" xlink:href="#m8b9d5dd50e" y="131.349851"/>
     <use style="stroke:#000000;" x="65.361964" xlink:href="#m8b9d5dd50e" y="131.349851"/>
     <use style="stroke:#000000;" x="65.361989" xlink:href="#m8b9d5dd50e" y="131.349851"/>
     <use style="stroke:#000000;" x="65.362015" xlink:href="#m8b9d5dd50e" y="131.349851"/>
     <use style="stroke:#000000;" x="65.362053" xlink:href="#m8b9d5dd50e" y="131.349851"/>
     <use style="stroke:#000000;" x="65.362115" xlink:href="#m8b9d5dd50e" y="131.350004"/>
     <use style="stroke:#000000;" x="65.362221" xlink:href="#m8b9d5dd50e" y="131.350004"/>
     <use style="stroke:#000000;" x="65.362404" xlink:href="#m8b9d5dd50e" y="131.350157"/>
     <use style="stroke:#000000;" x="65.362729" xlink:href="#m8b9d5dd50e" y="131.350464"/>
     <use style="stroke:#000000;" x="65.36338" xlink:href="#m8b9d5dd50e" y="131.350923"/>
     <use style="stroke:#000000;" x="65.364032" xlink:href="#m8b9d5dd50e" y="131.351383"/>
     <use style="stroke:#000000;" x="65.36468" xlink:href="#m8b9d5dd50e" y="131.351996"/>
     <use style="stroke:#000000;" x="65.365719" xlink:href="#m8b9d5dd50e" y="131.352762"/>
     <use style="stroke:#000000;" x="65.36678" xlink:href="#m8b9d5dd50e" y="131.353528"/>
     <use style="stroke:#000000;" x="65.36784" xlink:href="#m8b9d5dd50e" y="131.354294"/>
     <use style="stroke:#000000;" x="65.368901" xlink:href="#m8b9d5dd50e" y="131.35506"/>
     <use style="stroke:#000000;" x="65.371052" xlink:href="#m8b9d5dd50e" y="131.356592"/>
     <use style="stroke:#000000;" x="65.373203" xlink:href="#m8b9d5dd50e" y="131.358124"/>
     <use style="stroke:#000000;" x="65.379082" xlink:href="#m8b9d5dd50e" y="131.362107"/>
     <use style="stroke:#000000;" x="65.38496" xlink:href="#m8b9d5dd50e" y="131.365937"/>
     <use style="stroke:#000000;" x="65.390838" xlink:href="#m8b9d5dd50e" y="131.369461"/>
     <use style="stroke:#000000;" x="65.396777" xlink:href="#m8b9d5dd50e" y="131.372678"/>
     <use style="stroke:#000000;" x="65.402534" xlink:href="#m8b9d5dd50e" y="131.375742"/>
     <use style="stroke:#000000;" x="65.412533" xlink:href="#m8b9d5dd50e" y="131.380491"/>
     <use style="stroke:#000000;" x="65.422532" xlink:href="#m8b9d5dd50e" y="131.384475"/>
     <use style="stroke:#000000;" x="65.434349" xlink:href="#m8b9d5dd50e" y="131.388305"/>
     <use style="stroke:#000000;" x="65.446166" xlink:href="#m8b9d5dd50e" y="131.391369"/>
     <use style="stroke:#000000;" x="65.457983" xlink:href="#m8b9d5dd50e" y="131.39336"/>
     <use style="stroke:#000000;" x="65.4698" xlink:href="#m8b9d5dd50e" y="131.394433"/>
     <use style="stroke:#000000;" x="65.48192" xlink:href="#m8b9d5dd50e" y="131.394739"/>
     <use style="stroke:#000000;" x="65.501615" xlink:href="#m8b9d5dd50e" y="131.393054"/>
     <use style="stroke:#000000;" x="65.52131" xlink:href="#m8b9d5dd50e" y="131.388918"/>
     <use style="stroke:#000000;" x="65.541308" xlink:href="#m8b9d5dd50e" y="131.38233"/>
     <use style="stroke:#000000;" x="65.561003" xlink:href="#m8b9d5dd50e" y="131.373291"/>
     <use style="stroke:#000000;" x="65.581001" xlink:href="#m8b9d5dd50e" y="131.361801"/>
     <use style="stroke:#000000;" x="65.614331" xlink:href="#m8b9d5dd50e" y="131.336982"/>
     <use style="stroke:#000000;" x="65.647964" xlink:href="#m8b9d5dd50e" y="131.305729"/>
     <use style="stroke:#000000;" x="65.680082" xlink:href="#m8b9d5dd50e" y="131.267888"/>
     <use style="stroke:#000000;" x="65.713412" xlink:href="#m8b9d5dd50e" y="131.223612"/>
     <use style="stroke:#000000;" x="65.746742" xlink:href="#m8b9d5dd50e" y="131.173209"/>
     <use style="stroke:#000000;" x="65.783102" xlink:href="#m8b9d5dd50e" y="131.116524"/>
     <use style="stroke:#000000;" x="65.834612" xlink:href="#m8b9d5dd50e" y="131.01204"/>
     <use style="stroke:#000000;" x="65.889152" xlink:href="#m8b9d5dd50e" y="130.892236"/>
     <use style="stroke:#000000;" x="65.943692" xlink:href="#m8b9d5dd50e" y="130.757725"/>
     <use style="stroke:#000000;" x="65.998232" xlink:href="#m8b9d5dd50e" y="130.609119"/>
     <use style="stroke:#000000;" x="66.052772" xlink:href="#m8b9d5dd50e" y="130.446725"/>
     <use style="stroke:#000000;" x="66.107312" xlink:href="#m8b9d5dd50e" y="130.271155"/>
     <use style="stroke:#000000;" x="66.161852" xlink:href="#m8b9d5dd50e" y="130.083023"/>
     <use style="stroke:#000000;" x="66.216392" xlink:href="#m8b9d5dd50e" y="129.882482"/>
     <use style="stroke:#000000;" x="66.270932" xlink:href="#m8b9d5dd50e" y="129.670297"/>
     <use style="stroke:#000000;" x="66.325472" xlink:href="#m8b9d5dd50e" y="129.446775"/>
     <use style="stroke:#000000;" x="66.380012" xlink:href="#m8b9d5dd50e" y="129.212376"/>
     <use style="stroke:#000000;" x="66.434552" xlink:href="#m8b9d5dd50e" y="128.967406"/>
     <use style="stroke:#000000;" x="66.489092" xlink:href="#m8b9d5dd50e" y="128.712477"/>
     <use style="stroke:#000000;" x="66.543632" xlink:href="#m8b9d5dd50e" y="128.447744"/>
     <use style="stroke:#000000;" x="66.598172" xlink:href="#m8b9d5dd50e" y="128.173972"/>
     <use style="stroke:#000000;" x="66.652712" xlink:href="#m8b9d5dd50e" y="127.891161"/>
     <use style="stroke:#000000;" x="66.707252" xlink:href="#m8b9d5dd50e" y="127.599771"/>
     <use style="stroke:#000000;" x="66.761792" xlink:href="#m8b9d5dd50e" y="127.300414"/>
     <use style="stroke:#000000;" x="66.813302" xlink:href="#m8b9d5dd50e" y="126.99309"/>
     <use style="stroke:#000000;" x="66.867842" xlink:href="#m8b9d5dd50e" y="126.67826"/>
     <use style="stroke:#000000;" x="66.922383" xlink:href="#m8b9d5dd50e" y="126.356383"/>
     <use style="stroke:#000000;" x="66.976923" xlink:href="#m8b9d5dd50e" y="126.027764"/>
     <use style="stroke:#000000;" x="67.031463" xlink:href="#m8b9d5dd50e" y="125.692558"/>
     <use style="stroke:#000000;" x="67.086003" xlink:href="#m8b9d5dd50e" y="125.351071"/>
     <use style="stroke:#000000;" x="67.140543" xlink:href="#m8b9d5dd50e" y="125.003761"/>
     <use style="stroke:#000000;" x="67.195083" xlink:href="#m8b9d5dd50e" y="124.650784"/>
     <use style="stroke:#000000;" x="67.249623" xlink:href="#m8b9d5dd50e" y="124.292597"/>
     <use style="stroke:#000000;" x="67.304163" xlink:href="#m8b9d5dd50e" y="123.929202"/>
     <use style="stroke:#000000;" x="67.358703" xlink:href="#m8b9d5dd50e" y="123.561058"/>
     <use style="stroke:#000000;" x="67.413243" xlink:href="#m8b9d5dd50e" y="123.188317"/>
     <use style="stroke:#000000;" x="67.467783" xlink:href="#m8b9d5dd50e" y="122.811133"/>
     <use style="stroke:#000000;" x="67.522323" xlink:href="#m8b9d5dd50e" y="122.43012"/>
     <use style="stroke:#000000;" x="67.604133" xlink:href="#m8b9d5dd50e" y="121.846573"/>
     <use style="stroke:#000000;" x="67.685943" xlink:href="#m8b9d5dd50e" y="121.254907"/>
     <use style="stroke:#000000;" x="67.767753" xlink:href="#m8b9d5dd50e" y="120.65604"/>
     <use style="stroke:#000000;" x="67.849563" xlink:href="#m8b9d5dd50e" y="120.050738"/>
     <use style="stroke:#000000;" x="67.931373" xlink:href="#m8b9d5dd50e" y="119.439309"/>
     <use style="stroke:#000000;" x="68.013183" xlink:href="#m8b9d5dd50e" y="118.822671"/>
     <use style="stroke:#000000;" x="68.098023" xlink:href="#m8b9d5dd50e" y="118.201436"/>
     <use style="stroke:#000000;" x="68.179833" xlink:href="#m8b9d5dd50e" y="117.576065"/>
     <use style="stroke:#000000;" x="68.261643" xlink:href="#m8b9d5dd50e" y="116.947018"/>
     <use style="stroke:#000000;" x="68.343453" xlink:href="#m8b9d5dd50e" y="116.315059"/>
     <use style="stroke:#000000;" x="68.422233" xlink:href="#m8b9d5dd50e" y="115.680649"/>
     <use style="stroke:#000000;" x="68.513133" xlink:href="#m8b9d5dd50e" y="115.044095"/>
     <use style="stroke:#000000;" x="68.604033" xlink:href="#m8b9d5dd50e" y="114.405855"/>
     <use style="stroke:#000000;" x="68.664633" xlink:href="#m8b9d5dd50e" y="113.766543"/>
     <use style="stroke:#000000;" x="68.755533" xlink:href="#m8b9d5dd50e" y="113.126464"/>
     <use style="stroke:#000000;" x="68.846433" xlink:href="#m8b9d5dd50e" y="112.485926"/>
     <use style="stroke:#000000;" x="68.907033" xlink:href="#m8b9d5dd50e" y="111.845235"/>
     <use style="stroke:#000000;" x="68.997933" xlink:href="#m8b9d5dd50e" y="111.205004"/>
     <use style="stroke:#000000;" x="69.088833" xlink:href="#m8b9d5dd50e" y="110.565385"/>
     <use style="stroke:#000000;" x="69.179734" xlink:href="#m8b9d5dd50e" y="109.926686"/>
     <use style="stroke:#000000;" x="69.240334" xlink:href="#m8b9d5dd50e" y="109.289059"/>
     <use style="stroke:#000000;" x="69.331234" xlink:href="#m8b9d5dd50e" y="108.653117"/>
     <use style="stroke:#000000;" x="69.422134" xlink:href="#m8b9d5dd50e" y="108.01886"/>
     <use style="stroke:#000000;" x="69.482734" xlink:href="#m8b9d5dd50e" y="107.386442"/>
     <use style="stroke:#000000;" x="69.573634" xlink:href="#m8b9d5dd50e" y="106.756475"/>
     <use style="stroke:#000000;" x="69.664534" xlink:href="#m8b9d5dd50e" y="106.128806"/>
     <use style="stroke:#000000;" x="69.755434" xlink:href="#m8b9d5dd50e" y="105.503742"/>
     <use style="stroke:#000000;" x="69.816034" xlink:href="#m8b9d5dd50e" y="104.881588"/>
     <use style="stroke:#000000;" x="69.906934" xlink:href="#m8b9d5dd50e" y="104.262499"/>
     <use style="stroke:#000000;" x="69.997834" xlink:href="#m8b9d5dd50e" y="103.646473"/>
     <use style="stroke:#000000;" x="70.058434" xlink:href="#m8b9d5dd50e" y="103.033818"/>
     <use style="stroke:#000000;" x="70.149334" xlink:href="#m8b9d5dd50e" y="102.424687"/>
     <use style="stroke:#000000;" x="70.240234" xlink:href="#m8b9d5dd50e" y="101.819079"/>
     <use style="stroke:#000000;" x="70.331134" xlink:href="#m8b9d5dd50e" y="101.217301"/>
     <use style="stroke:#000000;" x="70.391734" xlink:href="#m8b9d5dd50e" y="100.6192"/>
     <use style="stroke:#000000;" x="70.482634" xlink:href="#m8b9d5dd50e" y="100.025236"/>
     <use style="stroke:#000000;" x="70.573534" xlink:href="#m8b9d5dd50e" y="99.435408"/>
     <use style="stroke:#000000;" x="70.634134" xlink:href="#m8b9d5dd50e" y="98.849716"/>
     <use style="stroke:#000000;" x="70.725034" xlink:href="#m8b9d5dd50e" y="98.268161"/>
     <use style="stroke:#000000;" x="70.815934" xlink:href="#m8b9d5dd50e" y="97.691049"/>
     <use style="stroke:#000000;" x="70.937134" xlink:href="#m8b9d5dd50e" y="96.828062"/>
     <use style="stroke:#000000;" x="71.058334" xlink:href="#m8b9d5dd50e" y="95.975339"/>
     <use style="stroke:#000000;" x="71.179534" xlink:href="#m8b9d5dd50e" y="95.133034"/>
     <use style="stroke:#000000;" x="71.300734" xlink:href="#m8b9d5dd50e" y="94.301606"/>
     <use style="stroke:#000000;" x="71.421935" xlink:href="#m8b9d5dd50e" y="93.480903"/>
     <use style="stroke:#000000;" x="71.543135" xlink:href="#m8b9d5dd50e" y="92.67123"/>
     <use style="stroke:#000000;" x="71.664335" xlink:href="#m8b9d5dd50e" y="91.872587"/>
     <use style="stroke:#000000;" x="71.815835" xlink:href="#m8b9d5dd50e" y="91.085129"/>
     <use style="stroke:#000000;" x="71.937035" xlink:href="#m8b9d5dd50e" y="90.309007"/>
     <use style="stroke:#000000;" x="72.058235" xlink:href="#m8b9d5dd50e" y="89.544069"/>
     <use style="stroke:#000000;" x="72.179435" xlink:href="#m8b9d5dd50e" y="88.790468"/>
     <use style="stroke:#000000;" x="72.300635" xlink:href="#m8b9d5dd50e" y="88.048204"/>
     <use style="stroke:#000000;" x="72.421835" xlink:href="#m8b9d5dd50e" y="87.317277"/>
     <use style="stroke:#000000;" x="72.543035" xlink:href="#m8b9d5dd50e" y="86.59784"/>
     <use style="stroke:#000000;" x="72.664235" xlink:href="#m8b9d5dd50e" y="85.889587"/>
     <use style="stroke:#000000;" x="72.785435" xlink:href="#m8b9d5dd50e" y="85.192671"/>
     <use style="stroke:#000000;" x="72.906635" xlink:href="#m8b9d5dd50e" y="84.507091"/>
     <use style="stroke:#000000;" x="73.058135" xlink:href="#m8b9d5dd50e" y="83.832849"/>
     <use style="stroke:#000000;" x="73.179335" xlink:href="#m8b9d5dd50e" y="83.169637"/>
     <use style="stroke:#000000;" x="73.300535" xlink:href="#m8b9d5dd50e" y="82.517762"/>
     <use style="stroke:#000000;" x="73.421735" xlink:href="#m8b9d5dd50e" y="81.876765"/>
     <use style="stroke:#000000;" x="73.542935" xlink:href="#m8b9d5dd50e" y="81.246951"/>
     <use style="stroke:#000000;" x="73.664136" xlink:href="#m8b9d5dd50e" y="80.628015"/>
     <use style="stroke:#000000;" x="73.785336" xlink:href="#m8b9d5dd50e" y="80.019956"/>
     <use style="stroke:#000000;" x="73.906536" xlink:href="#m8b9d5dd50e" y="79.422621"/>
     <use style="stroke:#000000;" x="74.027736" xlink:href="#m8b9d5dd50e" y="78.83601"/>
     <use style="stroke:#000000;" x="74.148936" xlink:href="#m8b9d5dd50e" y="78.260124"/>
     <use style="stroke:#000000;" x="74.300436" xlink:href="#m8b9d5dd50e" y="77.694655"/>
     <use style="stroke:#000000;" x="74.421636" xlink:href="#m8b9d5dd50e" y="77.138838"/>
     <use style="stroke:#000000;" x="74.542836" xlink:href="#m8b9d5dd50e" y="76.59497"/>
     <use style="stroke:#000000;" x="74.664036" xlink:href="#m8b9d5dd50e" y="76.060295"/>
     <use style="stroke:#000000;" x="74.785236" xlink:href="#m8b9d5dd50e" y="75.536344"/>
     <use style="stroke:#000000;" x="74.906436" xlink:href="#m8b9d5dd50e" y="75.021585"/>
     <use style="stroke:#000000;" x="75.027636" xlink:href="#m8b9d5dd50e" y="74.51755"/>
     <use style="stroke:#000000;" x="75.148836" xlink:href="#m8b9d5dd50e" y="74.022707"/>
     <use style="stroke:#000000;" x="75.270036" xlink:href="#m8b9d5dd50e" y="73.538589"/>
     <use style="stroke:#000000;" x="75.391236" xlink:href="#m8b9d5dd50e" y="73.06213"/>
     <use style="stroke:#000000;" x="75.512436" xlink:href="#m8b9d5dd50e" y="72.596396"/>
     <use style="stroke:#000000;" x="75.663936" xlink:href="#m8b9d5dd50e" y="72.141386"/>
     <use style="stroke:#000000;" x="75.785136" xlink:href="#m8b9d5dd50e" y="71.694036"/>
     <use style="stroke:#000000;" x="75.906337" xlink:href="#m8b9d5dd50e" y="71.255878"/>
     <use style="stroke:#000000;" x="76.027537" xlink:href="#m8b9d5dd50e" y="70.826912"/>
     <use style="stroke:#000000;" x="76.209337" xlink:href="#m8b9d5dd50e" y="70.197252"/>
     <use style="stroke:#000000;" x="76.391137" xlink:href="#m8b9d5dd50e" y="69.589039"/>
     <use style="stroke:#000000;" x="76.572937" xlink:href="#m8b9d5dd50e" y="68.999211"/>
     <use style="stroke:#000000;" x="76.785037" xlink:href="#m8b9d5dd50e" y="68.427768"/>
     <use style="stroke:#000000;" x="76.966837" xlink:href="#m8b9d5dd50e" y="67.87624"/>
     <use style="stroke:#000000;" x="77.148637" xlink:href="#m8b9d5dd50e" y="67.343097"/>
     <use style="stroke:#000000;" x="77.330437" xlink:href="#m8b9d5dd50e" y="66.828338"/>
     <use style="stroke:#000000;" x="77.512237" xlink:href="#m8b9d5dd50e" y="66.331963"/>
     <use style="stroke:#000000;" x="77.694037" xlink:href="#m8b9d5dd50e" y="65.852441"/>
     <use style="stroke:#000000;" x="77.906137" xlink:href="#m8b9d5dd50e" y="65.391303"/>
     <use style="stroke:#000000;" x="78.087938" xlink:href="#m8b9d5dd50e" y="64.945485"/>
     <use style="stroke:#000000;" x="78.269738" xlink:href="#m8b9d5dd50e" y="64.516519"/>
     <use style="stroke:#000000;" x="78.451538" xlink:href="#m8b9d5dd50e" y="64.104405"/>
     <use style="stroke:#000000;" x="78.633338" xlink:href="#m8b9d5dd50e" y="63.707612"/>
     <use style="stroke:#000000;" x="78.845438" xlink:href="#m8b9d5dd50e" y="63.327671"/>
     <use style="stroke:#000000;" x="79.027238" xlink:href="#m8b9d5dd50e" y="62.961518"/>
     <use style="stroke:#000000;" x="79.209038" xlink:href="#m8b9d5dd50e" y="62.610685"/>
     <use style="stroke:#000000;" x="79.390838" xlink:href="#m8b9d5dd50e" y="62.27364"/>
     <use style="stroke:#000000;" x="79.572638" xlink:href="#m8b9d5dd50e" y="61.951916"/>
     <use style="stroke:#000000;" x="79.754438" xlink:href="#m8b9d5dd50e" y="61.64398"/>
     <use style="stroke:#000000;" x="79.966538" xlink:href="#m8b9d5dd50e" y="61.349832"/>
     <use style="stroke:#000000;" x="80.148338" xlink:href="#m8b9d5dd50e" y="61.069472"/>
     <use style="stroke:#000000;" x="80.330139" xlink:href="#m8b9d5dd50e" y="60.802901"/>
     <use style="stroke:#000000;" x="80.602839" xlink:href="#m8b9d5dd50e" y="60.416831"/>
     <use style="stroke:#000000;" x="80.905839" xlink:href="#m8b9d5dd50e" y="60.061402"/>
     <use style="stroke:#000000;" x="81.178539" xlink:href="#m8b9d5dd50e" y="59.73355"/>
     <use style="stroke:#000000;" x="81.481539" xlink:href="#m8b9d5dd50e" y="59.433274"/>
     <use style="stroke:#000000;" x="81.754239" xlink:href="#m8b9d5dd50e" y="59.160574"/>
     <use style="stroke:#000000;" x="82.057239" xlink:href="#m8b9d5dd50e" y="58.912387"/>
     <use style="stroke:#000000;" x="82.329939" xlink:href="#m8b9d5dd50e" y="58.690244"/>
     <use style="stroke:#000000;" x="82.63294" xlink:href="#m8b9d5dd50e" y="58.492613"/>
     <use style="stroke:#000000;" x="82.90564" xlink:href="#m8b9d5dd50e" y="58.316431"/>
     <use style="stroke:#000000;" x="83.20864" xlink:href="#m8b9d5dd50e" y="58.164761"/>
     <use style="stroke:#000000;" x="83.48134" xlink:href="#m8b9d5dd50e" y="58.034539"/>
     <use style="stroke:#000000;" x="83.78434" xlink:href="#m8b9d5dd50e" y="57.925766"/>
     <use style="stroke:#000000;" x="84.05704" xlink:href="#m8b9d5dd50e" y="57.836908"/>
     <use style="stroke:#000000;" x="84.36004" xlink:href="#m8b9d5dd50e" y="57.767967"/>
     <use style="stroke:#000000;" x="84.63274" xlink:href="#m8b9d5dd50e" y="57.717411"/>
     <use style="stroke:#000000;" x="84.935741" xlink:href="#m8b9d5dd50e" y="57.68677"/>
     <use style="stroke:#000000;" x="85.208441" xlink:href="#m8b9d5dd50e" y="57.672982"/>
     <use style="stroke:#000000;" x="85.511441" xlink:href="#m8b9d5dd50e" y="57.676046"/>
     <use style="stroke:#000000;" x="85.784141" xlink:href="#m8b9d5dd50e" y="57.695962"/>
     <use style="stroke:#000000;" x="86.087141" xlink:href="#m8b9d5dd50e" y="57.732731"/>
     <use style="stroke:#000000;" x="86.359841" xlink:href="#m8b9d5dd50e" y="57.78482"/>
     <use style="stroke:#000000;" x="86.662841" xlink:href="#m8b9d5dd50e" y="57.852229"/>
     <use style="stroke:#000000;" x="86.935541" xlink:href="#m8b9d5dd50e" y="57.933426"/>
     <use style="stroke:#000000;" x="87.208242" xlink:href="#m8b9d5dd50e" y="58.028411"/>
     <use style="stroke:#000000;" x="87.511242" xlink:href="#m8b9d5dd50e" y="58.137184"/>
     <use style="stroke:#000000;" x="87.783942" xlink:href="#m8b9d5dd50e" y="58.259746"/>
     <use style="stroke:#000000;" x="88.086942" xlink:href="#m8b9d5dd50e" y="58.393032"/>
     <use style="stroke:#000000;" x="88.359642" xlink:href="#m8b9d5dd50e" y="58.540106"/>
     <use style="stroke:#000000;" x="88.662642" xlink:href="#m8b9d5dd50e" y="58.697904"/>
     <use style="stroke:#000000;" x="88.935342" xlink:href="#m8b9d5dd50e" y="58.867958"/>
     <use style="stroke:#000000;" x="89.238343" xlink:href="#m8b9d5dd50e" y="59.048737"/>
     <use style="stroke:#000000;" x="89.511043" xlink:href="#m8b9d5dd50e" y="59.240239"/>
     <use style="stroke:#000000;" x="89.814043" xlink:href="#m8b9d5dd50e" y="59.440934"/>
     <use style="stroke:#000000;" x="90.086743" xlink:href="#m8b9d5dd50e" y="59.652353"/>
     <use style="stroke:#000000;" x="90.389743" xlink:href="#m8b9d5dd50e" y="59.872964"/>
     <use style="stroke:#000000;" x="90.662443" xlink:href="#m8b9d5dd50e" y="60.101235"/>
     <use style="stroke:#000000;" x="90.965443" xlink:href="#m8b9d5dd50e" y="60.34023"/>
     <use style="stroke:#000000;" x="91.238143" xlink:href="#m8b9d5dd50e" y="60.586886"/>
     <use style="stroke:#000000;" x="91.541144" xlink:href="#m8b9d5dd50e" y="60.841201"/>
     <use style="stroke:#000000;" x="91.813844" xlink:href="#m8b9d5dd50e" y="61.104709"/>
     <use style="stroke:#000000;" x="92.268344" xlink:href="#m8b9d5dd50e" y="61.516822"/>
     <use style="stroke:#000000;" x="92.692544" xlink:href="#m8b9d5dd50e" y="61.944256"/>
     <use style="stroke:#000000;" x="93.116744" xlink:href="#m8b9d5dd50e" y="62.388542"/>
     <use style="stroke:#000000;" x="93.571244" xlink:href="#m8b9d5dd50e" y="62.846616"/>
     <use style="stroke:#000000;" x="93.995445" xlink:href="#m8b9d5dd50e" y="63.318479"/>
     <use style="stroke:#000000;" x="94.419645" xlink:href="#m8b9d5dd50e" y="63.802597"/>
     <use style="stroke:#000000;" x="94.874145" xlink:href="#m8b9d5dd50e" y="64.300504"/>
     <use style="stroke:#000000;" x="95.298345" xlink:href="#m8b9d5dd50e" y="64.807603"/>
     <use style="stroke:#000000;" x="95.661945" xlink:href="#m8b9d5dd50e" y="65.326958"/>
     <use style="stroke:#000000;" x="96.267946" xlink:href="#m8b9d5dd50e" y="65.855505"/>
     <use style="stroke:#000000;" x="96.570946" xlink:href="#m8b9d5dd50e" y="66.394776"/>
     <use style="stroke:#000000;" x="97.176946" xlink:href="#m8b9d5dd50e" y="66.941708"/>
     <use style="stroke:#000000;" x="97.479946" xlink:href="#m8b9d5dd50e" y="67.496299"/>
     <use style="stroke:#000000;" x="97.782946" xlink:href="#m8b9d5dd50e" y="68.060083"/>
     <use style="stroke:#000000;" x="98.388947" xlink:href="#m8b9d5dd50e" y="68.629994"/>
     <use style="stroke:#000000;" x="98.994947" xlink:href="#m8b9d5dd50e" y="69.49865"/>
     <use style="stroke:#000000;" x="99.600947" xlink:href="#m8b9d5dd50e" y="70.382626"/>
     <use style="stroke:#000000;" x="100.206947" xlink:href="#m8b9d5dd50e" y="71.277326"/>
     <use style="stroke:#000000;" x="101.115948" xlink:href="#m8b9d5dd50e" y="72.182751"/>
     <use style="stroke:#000000;" x="101.721948" xlink:href="#m8b9d5dd50e" y="73.098899"/>
     <use style="stroke:#000000;" x="102.327948" xlink:href="#m8b9d5dd50e" y="74.022707"/>
     <use style="stroke:#000000;" x="102.933949" xlink:href="#m8b9d5dd50e" y="74.952644"/>
     <use style="stroke:#000000;" x="103.539949" xlink:href="#m8b9d5dd50e" y="75.890241"/>
     <use style="stroke:#000000;" x="104.145949" xlink:href="#m8b9d5dd50e" y="76.832433"/>
     <use style="stroke:#000000;" x="104.751949" xlink:href="#m8b9d5dd50e" y="77.779682"/>
     <use style="stroke:#000000;" x="105.66095" xlink:href="#m8b9d5dd50e" y="78.730454"/>
     <use style="stroke:#000000;" x="106.26695" xlink:href="#m8b9d5dd50e" y="79.684137"/>
     <use style="stroke:#000000;" x="106.87295" xlink:href="#m8b9d5dd50e" y="80.640118"/>
     <use style="stroke:#000000;" x="107.478951" xlink:href="#m8b9d5dd50e" y="81.597631"/>
     <use style="stroke:#000000;" x="108.084951" xlink:href="#m8b9d5dd50e" y="82.556369"/>
     <use style="stroke:#000000;" x="108.690951" xlink:href="#m8b9d5dd50e" y="83.515568"/>
     <use style="stroke:#000000;" x="109.599952" xlink:href="#m8b9d5dd50e" y="84.474766"/>
     <use style="stroke:#000000;" x="110.205952" xlink:href="#m8b9d5dd50e" y="85.433351"/>
     <use style="stroke:#000000;" x="110.811952" xlink:href="#m8b9d5dd50e" y="86.39117"/>
     <use style="stroke:#000000;" x="111.417952" xlink:href="#m8b9d5dd50e" y="87.347764"/>
     <use style="stroke:#000000;" x="112.023953" xlink:href="#m8b9d5dd50e" y="88.302673"/>
     <use style="stroke:#000000;" x="112.629953" xlink:href="#m8b9d5dd50e" y="89.255436"/>
     <use style="stroke:#000000;" x="113.538953" xlink:href="#m8b9d5dd50e" y="90.206055"/>
     <use style="stroke:#000000;" x="114.144954" xlink:href="#m8b9d5dd50e" y="91.15407"/>
     <use style="stroke:#000000;" x="114.750954" xlink:href="#m8b9d5dd50e" y="92.099173"/>
     <use style="stroke:#000000;" x="115.356954" xlink:href="#m8b9d5dd50e" y="93.04106"/>
     <use style="stroke:#000000;" x="115.962954" xlink:href="#m8b9d5dd50e" y="93.979729"/>
     <use style="stroke:#000000;" x="116.568955" xlink:href="#m8b9d5dd50e" y="94.914874"/>
     <use style="stroke:#000000;" x="117.174955" xlink:href="#m8b9d5dd50e" y="95.84619"/>
     <use style="stroke:#000000;" x="118.083955" xlink:href="#m8b9d5dd50e" y="96.773522"/>
     <use style="stroke:#000000;" x="118.689956" xlink:href="#m8b9d5dd50e" y="97.696871"/>
     <use style="stroke:#000000;" x="119.295956" xlink:href="#m8b9d5dd50e" y="98.61593"/>
     <use style="stroke:#000000;" x="119.901956" xlink:href="#m8b9d5dd50e" y="99.5307"/>
     <use style="stroke:#000000;" x="120.507957" xlink:href="#m8b9d5dd50e" y="100.441026"/>
     <use style="stroke:#000000;" x="121.113957" xlink:href="#m8b9d5dd50e" y="101.346604"/>
     <use style="stroke:#000000;" x="122.022957" xlink:href="#m8b9d5dd50e" y="102.247585"/>
     <use style="stroke:#000000;" x="122.628957" xlink:href="#m8b9d5dd50e" y="103.143817"/>
     <use style="stroke:#000000;" x="123.234958" xlink:href="#m8b9d5dd50e" y="104.035147"/>
     <use style="stroke:#000000;" x="124.143958" xlink:href="#m8b9d5dd50e" y="105.37352"/>
     <use style="stroke:#000000;" x="125.052959" xlink:href="#m8b9d5dd50e" y="106.700403"/>
     <use style="stroke:#000000;" x="126.264959" xlink:href="#m8b9d5dd50e" y="108.01549"/>
     <use style="stroke:#000000;" x="127.17396" xlink:href="#m8b9d5dd50e" y="109.31878"/>
     <use style="stroke:#000000;" x="128.08296" xlink:href="#m8b9d5dd50e" y="110.609967"/>
     <use style="stroke:#000000;" x="128.99196" xlink:href="#m8b9d5dd50e" y="111.889051"/>
     <use style="stroke:#000000;" x="130.203961" xlink:href="#m8b9d5dd50e" y="113.156032"/>
     <use style="stroke:#000000;" x="131.112961" xlink:href="#m8b9d5dd50e" y="114.410604"/>
     <use style="stroke:#000000;" x="132.021962" xlink:href="#m8b9d5dd50e" y="115.653073"/>
     <use style="stroke:#000000;" x="133.233962" xlink:href="#m8b9d5dd50e" y="116.883132"/>
     <use style="stroke:#000000;" x="134.142963" xlink:href="#m8b9d5dd50e" y="118.100782"/>
     <use style="stroke:#000000;" x="135.051963" xlink:href="#m8b9d5dd50e" y="119.30633"/>
     <use style="stroke:#000000;" x="135.960963" xlink:href="#m8b9d5dd50e" y="120.499467"/>
     <use style="stroke:#000000;" x="137.172964" xlink:href="#m8b9d5dd50e" y="121.680349"/>
     <use style="stroke:#000000;" x="138.081964" xlink:href="#m8b9d5dd50e" y="122.848974"/>
     <use style="stroke:#000000;" x="138.990965" xlink:href="#m8b9d5dd50e" y="124.005497"/>
     <use style="stroke:#000000;" x="139.899965" xlink:href="#m8b9d5dd50e" y="125.149916"/>
     <use style="stroke:#000000;" x="141.111966" xlink:href="#m8b9d5dd50e" y="126.282386"/>
     <use style="stroke:#000000;" x="142.020966" xlink:href="#m8b9d5dd50e" y="127.402753"/>
     <use style="stroke:#000000;" x="142.929967" xlink:href="#m8b9d5dd50e" y="128.511323"/>
     <use style="stroke:#000000;" x="143.838967" xlink:href="#m8b9d5dd50e" y="129.607943"/>
     <use style="stroke:#000000;" x="145.050968" xlink:href="#m8b9d5dd50e" y="130.69292"/>
     <use style="stroke:#000000;" x="145.959968" xlink:href="#m8b9d5dd50e" y="131.766254"/>
     <use style="stroke:#000000;" x="146.868968" xlink:href="#m8b9d5dd50e" y="132.827945"/>
     <use style="stroke:#000000;" x="148.080969" xlink:href="#m8b9d5dd50e" y="133.878298"/>
     <use style="stroke:#000000;" x="148.989969" xlink:href="#m8b9d5dd50e" y="134.917161"/>
     <use style="stroke:#000000;" x="150.50497" xlink:href="#m8b9d5dd50e" y="136.468792"/>
     <use style="stroke:#000000;" x="152.019971" xlink:href="#m8b9d5dd50e" y="137.994838"/>
     <use style="stroke:#000000;" x="153.534971" xlink:href="#m8b9d5dd50e" y="139.495912"/>
     <use style="stroke:#000000;" x="154.920288" xlink:href="#m8b9d5dd50e" y="140.972167"/>
     <use style="stroke:#000000;" x="156.418018" xlink:href="#m8b9d5dd50e" y="142.42391"/>
     <use style="stroke:#000000;" x="157.91605" xlink:href="#m8b9d5dd50e" y="143.851753"/>
     <use style="stroke:#000000;" x="159.41378" xlink:href="#m8b9d5dd50e" y="145.256003"/>
     <use style="stroke:#000000;" x="160.91151" xlink:href="#m8b9d5dd50e" y="146.636967"/>
     <use style="stroke:#000000;" x="162.409239" xlink:href="#m8b9d5dd50e" y="147.99495"/>
     <use style="stroke:#000000;" x="163.907272" xlink:href="#m8b9d5dd50e" y="149.330412"/>
     <use style="stroke:#000000;" x="165.405002" xlink:href="#m8b9d5dd50e" y="150.643661"/>
     <use style="stroke:#000000;" x="166.902731" xlink:href="#m8b9d5dd50e" y="151.935001"/>
     <use style="stroke:#000000;" x="168.400764" xlink:href="#m8b9d5dd50e" y="153.205046"/>
     <use style="stroke:#000000;" x="169.898494" xlink:href="#m8b9d5dd50e" y="154.453949"/>
     <use style="stroke:#000000;" x="171.396223" xlink:href="#m8b9d5dd50e" y="155.682017"/>
     <use style="stroke:#000000;" x="172.893953" xlink:href="#m8b9d5dd50e" y="156.889709"/>
     <use style="stroke:#000000;" x="174.391986" xlink:href="#m8b9d5dd50e" y="158.077332"/>
     <use style="stroke:#000000;" x="175.889715" xlink:href="#m8b9d5dd50e" y="159.245191"/>
     <use style="stroke:#000000;" x="177.387445" xlink:href="#m8b9d5dd50e" y="160.393594"/>
     <use style="stroke:#000000;" x="178.885478" xlink:href="#m8b9d5dd50e" y="161.522999"/>
     <use style="stroke:#000000;" x="180.383207" xlink:href="#m8b9d5dd50e" y="162.633714"/>
     <use style="stroke:#000000;" x="182.645709" xlink:href="#m8b9d5dd50e" y="164.2765"/>
     <use style="stroke:#000000;" x="184.908211" xlink:href="#m8b9d5dd50e" y="165.878381"/>
     <use style="stroke:#000000;" x="187.170713" xlink:href="#m8b9d5dd50e" y="167.440276"/>
     <use style="stroke:#000000;" x="189.433215" xlink:href="#m8b9d5dd50e" y="168.963258"/>
     <use style="stroke:#000000;" x="191.695717" xlink:href="#m8b9d5dd50e" y="170.448399"/>
     <use style="stroke:#000000;" x="193.957916" xlink:href="#m8b9d5dd50e" y="171.896465"/>
     <use style="stroke:#000000;" x="196.220418" xlink:href="#m8b9d5dd50e" y="173.308682"/>
     <use style="stroke:#000000;" x="198.48292" xlink:href="#m8b9d5dd50e" y="174.685815"/>
     <use style="stroke:#000000;" x="200.745422" xlink:href="#m8b9d5dd50e" y="176.028938"/>
     <use style="stroke:#000000;" x="203.007924" xlink:href="#m8b9d5dd50e" y="177.338662"/>
     <use style="stroke:#000000;" x="205.270427" xlink:href="#m8b9d5dd50e" y="178.616061"/>
     <use style="stroke:#000000;" x="207.532929" xlink:href="#m8b9d5dd50e" y="179.8619"/>
     <use style="stroke:#000000;" x="209.795431" xlink:href="#m8b9d5dd50e" y="181.076793"/>
     <use style="stroke:#000000;" x="212.057933" xlink:href="#m8b9d5dd50e" y="182.261964"/>
     <use style="stroke:#000000;" x="214.320435" xlink:href="#m8b9d5dd50e" y="183.417874"/>
     <use style="stroke:#000000;" x="216.582937" xlink:href="#m8b9d5dd50e" y="184.545288"/>
     <use style="stroke:#000000;" x="218.845439" xlink:href="#m8b9d5dd50e" y="185.644972"/>
     <use style="stroke:#000000;" x="221.107638" xlink:href="#m8b9d5dd50e" y="186.71754"/>
     <use style="stroke:#000000;" x="223.37014" xlink:href="#m8b9d5dd50e" y="187.76391"/>
     <use style="stroke:#000000;" x="225.632642" xlink:href="#m8b9d5dd50e" y="188.784696"/>
     <use style="stroke:#000000;" x="227.895144" xlink:href="#m8b9d5dd50e" y="189.780509"/>
     <use style="stroke:#000000;" x="230.157646" xlink:href="#m8b9d5dd50e" y="190.75181"/>
     <use style="stroke:#000000;" x="232.420148" xlink:href="#m8b9d5dd50e" y="191.699518"/>
     <use style="stroke:#000000;" x="234.68265" xlink:href="#m8b9d5dd50e" y="192.62394"/>
     <use style="stroke:#000000;" x="236.945152" xlink:href="#m8b9d5dd50e" y="193.525993"/>
     <use style="stroke:#000000;" x="239.207654" xlink:href="#m8b9d5dd50e" y="194.405986"/>
     <use style="stroke:#000000;" x="241.470156" xlink:href="#m8b9d5dd50e" y="195.264531"/>
     <use style="stroke:#000000;" x="243.732658" xlink:href="#m8b9d5dd50e" y="196.102393"/>
     <use style="stroke:#000000;" x="245.99516" xlink:href="#m8b9d5dd50e" y="196.919726"/>
     <use style="stroke:#000000;" x="248.257359" xlink:href="#m8b9d5dd50e" y="197.717296"/>
     <use style="stroke:#000000;" x="250.519861" xlink:href="#m8b9d5dd50e" y="198.495562"/>
     <use style="stroke:#000000;" x="252.782363" xlink:href="#m8b9d5dd50e" y="199.254985"/>
     <use style="stroke:#000000;" x="255.044865" xlink:href="#m8b9d5dd50e" y="199.996023"/>
     <use style="stroke:#000000;" x="257.307367" xlink:href="#m8b9d5dd50e" y="200.719137"/>
     <use style="stroke:#000000;" x="259.569869" xlink:href="#m8b9d5dd50e" y="201.424786"/>
     <use style="stroke:#000000;" x="261.832371" xlink:href="#m8b9d5dd50e" y="202.113429"/>
     <use style="stroke:#000000;" x="264.094873" xlink:href="#m8b9d5dd50e" y="202.785527"/>
     <use style="stroke:#000000;" x="266.357375" xlink:href="#m8b9d5dd50e" y="203.441538"/>
     <use style="stroke:#000000;" x="268.619877" xlink:href="#m8b9d5dd50e" y="204.081616"/>
     <use style="stroke:#000000;" x="270.186994" xlink:href="#m8b9d5dd50e" y="204.516097"/>
     <use style="stroke:#000000;" x="271.754413" xlink:href="#m8b9d5dd50e" y="204.943225"/>
     <use style="stroke:#000000;" x="273.321833" xlink:href="#m8b9d5dd50e" y="205.363305"/>
     <use style="stroke:#000000;" x="274.88895" xlink:href="#m8b9d5dd50e" y="205.776338"/>
     <use style="stroke:#000000;" x="276.456369" xlink:href="#m8b9d5dd50e" y="206.182476"/>
     <use style="stroke:#000000;" x="278.023789" xlink:href="#m8b9d5dd50e" y="206.581874"/>
     <use style="stroke:#000000;" x="279.590906" xlink:href="#m8b9d5dd50e" y="206.974684"/>
     <use style="stroke:#000000;" x="281.158326" xlink:href="#m8b9d5dd50e" y="207.360907"/>
     <use style="stroke:#000000;" x="282.725745" xlink:href="#m8b9d5dd50e" y="207.740695"/>
     <use style="stroke:#000000;" x="284.292862" xlink:href="#m8b9d5dd50e" y="208.114201"/>
     <use style="stroke:#000000;" x="285.860282" xlink:href="#m8b9d5dd50e" y="208.48158"/>
     <use style="stroke:#000000;" x="287.427701" xlink:href="#m8b9d5dd50e" y="208.84283"/>
     <use style="stroke:#000000;" x="288.994818" xlink:href="#m8b9d5dd50e" y="209.197953"/>
     <use style="stroke:#000000;" x="290.562238" xlink:href="#m8b9d5dd50e" y="209.547407"/>
     <use style="stroke:#000000;" x="292.129657" xlink:href="#m8b9d5dd50e" y="209.891039"/>
     <use style="stroke:#000000;" x="294.716067" xlink:href="#m8b9d5dd50e" y="210.44563"/>
     <use style="stroke:#000000;" x="297.302779" xlink:href="#m8b9d5dd50e" y="210.985208"/>
     <use style="stroke:#000000;" x="299.889188" xlink:href="#m8b9d5dd50e" y="211.510232"/>
     <use style="stroke:#000000;" x="302.4759" xlink:href="#m8b9d5dd50e" y="212.021007"/>
     <use style="stroke:#000000;" x="305.062309" xlink:href="#m8b9d5dd50e" y="212.517995"/>
     <use style="stroke:#000000;" x="307.649021" xlink:href="#m8b9d5dd50e" y="213.001654"/>
     <use style="stroke:#000000;" x="310.235431" xlink:href="#m8b9d5dd50e" y="213.472137"/>
     <use style="stroke:#000000;" x="312.822143" xlink:href="#m8b9d5dd50e" y="213.929905"/>
     <use style="stroke:#000000;" x="315.408552" xlink:href="#m8b9d5dd50e" y="214.37557"/>
     <use style="stroke:#000000;" x="317.995264" xlink:href="#m8b9d5dd50e" y="214.808979"/>
     <use style="stroke:#000000;" x="320.581673" xlink:href="#m8b9d5dd50e" y="215.230897"/>
     <use style="stroke:#000000;" x="323.168385" xlink:href="#m8b9d5dd50e" y="215.641525"/>
     <use style="stroke:#000000;" x="325.754794" xlink:href="#m8b9d5dd50e" y="216.041091"/>
     <use style="stroke:#000000;" x="328.341507" xlink:href="#m8b9d5dd50e" y="216.429964"/>
     <use style="stroke:#000000;" x="330.928219" xlink:href="#m8b9d5dd50e" y="216.808419"/>
     <use style="stroke:#000000;" x="333.514628" xlink:href="#m8b9d5dd50e" y="217.176763"/>
     <use style="stroke:#000000;" x="336.10134" xlink:href="#m8b9d5dd50e" y="217.535271"/>
     <use style="stroke:#000000;" x="338.687749" xlink:href="#m8b9d5dd50e" y="217.884219"/>
     <use style="stroke:#000000;" x="341.274461" xlink:href="#m8b9d5dd50e" y="218.223853"/>
     <use style="stroke:#000000;" x="343.860871" xlink:href="#m8b9d5dd50e" y="218.554448"/>
     <use style="stroke:#000000;" x="346.447583" xlink:href="#m8b9d5dd50e" y="218.876249"/>
     <use style="stroke:#000000;" x="349.033992" xlink:href="#m8b9d5dd50e" y="219.189501"/>
     <use style="stroke:#000000;" x="351.620704" xlink:href="#m8b9d5dd50e" y="219.494419"/>
     <use style="stroke:#000000;" x="354.207113" xlink:href="#m8b9d5dd50e" y="219.791248"/>
     <use style="stroke:#000000;" x="356.793825" xlink:href="#m8b9d5dd50e" y="220.080218"/>
     <use style="stroke:#000000;" x="359.380235" xlink:href="#m8b9d5dd50e" y="220.361527"/>
     <use style="stroke:#000000;" x="361.966947" xlink:href="#m8b9d5dd50e" y="220.635391"/>
     <use style="stroke:#000000;" x="364.553356" xlink:href="#m8b9d5dd50e" y="220.902009"/>
     <use style="stroke:#000000;" x="367.140068" xlink:href="#m8b9d5dd50e" y="221.161595"/>
     <use style="stroke:#000000;" x="369.725568" xlink:href="#m8b9d5dd50e" y="221.414317"/>
    </g>
   </g>
   <g id="line2d_15">
    <path clip-path="url(#pa1f1608dc2)" d="M 65.361932 127.391403 
L 65.565547 127.427063 
L 65.767048 127.210715 
L 66.029806 126.596515 
L 66.420977 125.09464 
L 67.007732 121.836478 
L 67.888427 115.537719 
L 71.675357 86.825731 
L 73.003717 79.067631 
L 74.184481 73.390634 
L 75.365246 68.755334 
L 76.54601 65.038721 
L 77.652982 62.281885 
L 78.759957 60.137208 
L 79.866932 58.525526 
L 80.752513 57.57328 
L 81.638093 56.886823 
L 82.523673 56.438512 
L 83.299458 56.221983 
L 84.298439 56.160537 
L 85.297421 56.317649 
L 86.296403 56.668173 
L 87.628379 57.398289 
L 88.960354 58.386996 
L 90.309901 59.612241 
L 92.343005 61.807292 
L 94.376109 64.335836 
L 96.91749 67.846592 
L 100.475423 73.207497 
L 105.322249 80.974231 
L 119.923402 104.658988 
L 125.302775 112.91084 
L 130.682147 120.772381 
L 135.661009 127.67687 
L 140.524789 134.070219 
L 145.183948 139.870964 
L 149.843106 145.36167 
L 154.502264 150.551636 
L 159.765328 156.066363 
L 164.83731 161.047106 
L 169.837534 165.652531 
L 174.704834 169.859664 
L 180.491819 174.527382 
L 185.50065 178.291173 
L 191.277801 182.33394 
L 197.054953 186.077608 
L 201.995078 189.057106 
L 208.023893 192.434822 
L 214.052709 195.548085 
L 220.081525 198.416501 
L 226.110341 201.058411 
L 232.139156 203.490931 
L 238.167972 205.730006 
L 246.289163 208.466373 
L 254.428475 210.916903 
L 262.183477 213.007531 
L 270.667862 215.050165 
L 279.268325 216.887555 
L 287.868789 218.51602 
L 297.683977 220.148768 
L 307.499165 221.570041 
L 317.314353 222.806591 
L 330.40127 224.208064 
L 343.488187 225.370139 
L 356.575105 226.332712 
L 369.662022 227.129157 
L 369.662022 227.129157 
" style="fill:none;stroke:#0000ff;stroke-linecap:square;stroke-width:1.5;"/>
   </g>
   <g id="line2d_16">
    <path clip-path="url(#pa1f1608dc2)" d="M 65.361932 128.895822 
L 65.618058 129.011838 
L 65.840113 128.867292 
L 66.096349 128.441408 
L 66.452155 127.436968 
L 66.946501 125.361369 
L 67.638585 121.42503 
L 68.726145 113.714424 
L 72.303763 87.123601 
L 73.659117 79.177824 
L 74.863877 73.430381 
L 75.918041 69.367672 
L 76.972206 66.126161 
L 77.95111 63.774045 
L 78.854828 62.102068 
L 79.758546 60.855416 
L 80.662264 59.985695 
L 81.565982 59.449222 
L 82.4697 59.207 
L 83.373418 59.224442 
L 84.277136 59.470985 
L 85.406784 60.060568 
L 86.426169 60.825745 
L 87.792553 62.146421 
L 89.500533 64.190825 
L 91.208513 66.584881 
L 93.089272 69.53488 
L 95.66115 73.960769 
L 99.261779 80.650066 
L 105.434286 92.705919 
L 113.857077 109.058444 
L 119.19437 118.91629 
L 124.155048 127.591006 
L 128.732161 135.139218 
L 132.405339 140.871569 
L 136.541973 146.980992 
L 140.678606 152.730015 
L 145.445452 158.921779 
L 149.37483 163.690673 
L 153.315538 168.182847 
L 157.711109 172.866869 
L 162.10668 177.224853 
L 166.502251 181.27587 
L 170.897822 185.038647 
L 175.293393 188.531351 
L 179.688964 191.771453 
L 184.084535 194.775639 
L 188.480106 197.559768 
L 192.875677 200.138844 
L 198.736439 203.282985 
L 204.011916 205.848704 
L 209.050511 208.08541 
L 215.035827 210.49459 
L 221.162242 212.707593 
L 226.760674 214.527541 
L 234.225251 216.684772 
L 241.458564 218.513793 
L 250.068608 220.397822 
L 258.678651 222.005441 
L 267.288695 223.375404 
L 275.898738 224.541194 
L 286.661292 225.754975 
L 297.423847 226.742559 
L 310.338912 227.684754 
L 325.406488 228.519064 
L 342.626575 229.208154 
L 361.999173 229.740154 
L 368.456705 229.874489 
L 368.456705 229.874489 
" style="fill:none;stroke:#ff0000;stroke-linecap:square;stroke-width:1.5;"/>
   </g>
   <g id="line2d_17">
    <path clip-path="url(#pa1f1608dc2)" d="M 65.361932 107.860931 
L 65.581001 107.945448 
L 65.783102 107.803771 
L 66.052772 107.320291 
L 66.434552 106.137539 
L 66.976923 103.623916 
L 67.685943 99.224215 
L 68.846433 90.38028 
L 71.937035 66.09431 
L 73.300535 57.41929 
L 74.542836 50.909988 
L 75.663936 46.097865 
L 76.785037 42.194462 
L 77.906137 39.082484 
L 79.027238 36.672174 
L 79.966538 35.125081 
L 80.905839 33.945599 
L 81.754239 33.168896 
L 82.63294 32.624572 
L 83.48134 32.319943 
L 84.36004 32.201761 
L 85.208441 32.272125 
L 86.359841 32.607589 
L 87.511242 33.194574 
L 88.935342 34.204355 
L 90.389743 35.515687 
L 92.268344 37.551639 
L 94.419645 40.251797 
L 96.570946 43.253964 
L 99.600947 47.837916 
L 104.145949 55.198419 
L 124.143958 88.268753 
L 128.99196 95.731649 
L 134.142963 103.311274 
L 138.990965 110.101097 
L 143.838967 116.562364 
L 148.989969 123.074759 
L 154.920288 130.128217 
L 160.91151 136.811647 
L 166.902731 143.053448 
L 172.893953 148.888454 
L 178.885478 154.34426 
L 184.908211 159.461502 
L 191.695717 164.838755 
L 198.48292 169.806623 
L 205.270427 174.407493 
L 212.057933 178.663167 
L 218.845439 182.605998 
L 225.632642 186.262452 
L 232.420148 189.638653 
L 239.207654 192.758088 
L 245.99516 195.657365 
L 255.044865 199.177039 
L 264.094873 202.340135 
L 271.754413 204.773742 
L 279.590906 207.055469 
L 288.994818 209.529645 
L 297.302779 211.514813 
L 307.649021 213.723687 
L 317.995264 215.688749 
L 328.341507 217.4304 
L 338.687749 218.984752 
L 351.620704 220.680986 
L 364.553356 222.14587 
L 369.725568 222.56103 
L 369.725568 222.56103 
" style="fill:none;stroke:#0000ff;stroke-dasharray:5.55,2.4;stroke-dashoffset:0;stroke-width:1.5;"/>
   </g>
   <g id="line2d_18">
    <path clip-path="url(#pa1f1608dc2)" d="M 65.361932 143.821343 
L 65.541308 143.834209 
L 65.746742 143.582612 
L 66.052772 142.743791 
L 66.489092 140.773735 
L 67.140543 136.635207 
L 68.343453 127.242613 
L 70.331134 112.030019 
L 71.664335 103.585855 
L 72.906635 97.112683 
L 74.148936 91.849285 
L 75.270036 88.00406 
L 76.391137 84.904596 
L 77.512237 82.449779 
L 78.633338 80.55291 
L 79.754438 79.139103 
L 80.602839 78.3551 
L 81.481539 77.770227 
L 82.63294 77.324459 
L 83.78434 77.196878 
L 84.935741 77.344057 
L 86.087141 77.738146 
L 87.208242 78.320375 
L 88.662642 79.340972 
L 90.086743 80.586888 
L 91.813844 82.359094 
L 93.995445 84.939579 
L 96.570946 88.352231 
L 100.206947 93.626269 
L 105.66095 102.060139 
L 118.083955 121.44207 
L 123.234958 129.073204 
L 128.99196 137.176112 
L 134.142963 144.009656 
L 138.990965 150.075887 
L 143.838967 155.786212 
L 148.989969 161.472681 
L 153.534971 166.177562 
L 157.91605 170.435652 
L 162.409239 174.541768 
L 166.902731 178.393694 
L 171.396223 182.007365 
L 177.387445 186.45653 
L 182.645709 190.050407 
L 187.170713 192.924466 
L 191.695717 195.60202 
L 198.48292 199.290659 
L 205.270427 202.609656 
L 212.057933 205.588485 
L 218.845439 208.267657 
L 225.632642 210.673275 
L 232.420148 212.832222 
L 239.207654 214.763643 
L 245.99516 216.496774 
L 252.782363 218.050567 
L 261.832371 219.869798 
L 271.754413 221.574265 
L 281.158326 222.953265 
L 292.129657 224.308354 
L 302.4759 225.378839 
L 315.408552 226.480017 
L 328.341507 227.364508 
L 343.860871 228.195675 
L 361.966947 228.921714 
L 369.725568 229.190266 
L 369.725568 229.190266 
" style="fill:none;stroke:#0000ff;stroke-dasharray:5.55,2.4;stroke-dashoffset:0;stroke-width:1.5;"/>
   </g>
   <g id="line2d_19"/>
   <g id="line2d_20"/>
   <g id="line2d_21"/>
   <g id="line2d_22"/>
   <g id="line2d_23"/>
   <g id="line2d_24"/>
   <g id="patch_3">
    <path d="M 50.14375 239.758125 
L 50.14375 22.318125 
" style="fill:none;stroke:#000000;stroke-linecap:square;stroke-linejoin:miter;stroke-width:0.8;"/>
   </g>
   <g id="patch_4">
    <path d="M 384.94375 239.758125 
L 384.94375 22.318125 
" style="fill:none;stroke:#000000;stroke-linecap:square;stroke-linejoin:miter;stroke-width:0.8;"/>
   </g>
   <g id="patch_5">
    <path d="M 50.14375 239.758125 
L 384.94375 239.758125 
" style="fill:none;stroke:#000000;stroke-linecap:square;stroke-linejoin:miter;stroke-width:0.8;"/>
   </g>
   <g id="patch_6">
    <path d="M 50.14375 22.318125 
L 384.94375 22.318125 
" style="fill:none;stroke:#000000;stroke-linecap:square;stroke-linejoin:miter;stroke-width:0.8;"/>
   </g>
   <g id="text_16">
    <!-- Experiment_15 -->
    <defs>
     <path d="M 9.8125 72.90625 
L 55.90625 72.90625 
L 55.90625 64.59375 
L 19.671875 64.59375 
L 19.671875 43.015625 
L 54.390625 43.015625 
L 54.390625 34.71875 
L 19.671875 34.71875 
L 19.671875 8.296875 
L 56.78125 8.296875 
L 56.78125 0 
L 9.8125 0 
z
" id="DejaVuSans-69"/>
     <path d="M 54.890625 54.6875 
L 35.109375 28.078125 
L 55.90625 0 
L 45.3125 0 
L 29.390625 21.484375 
L 13.484375 0 
L 2.875 0 
L 24.125 28.609375 
L 4.6875 54.6875 
L 15.28125 54.6875 
L 29.78125 35.203125 
L 44.28125 54.6875 
z
" id="DejaVuSans-120"/>
     <path d="M 18.109375 8.203125 
L 18.109375 -20.796875 
L 9.078125 -20.796875 
L 9.078125 54.6875 
L 18.109375 54.6875 
L 18.109375 46.390625 
Q 20.953125 51.265625 25.265625 53.625 
Q 29.59375 56 35.59375 56 
Q 45.5625 56 51.78125 48.09375 
Q 58.015625 40.1875 58.015625 27.296875 
Q 58.015625 14.40625 51.78125 6.484375 
Q 45.5625 -1.421875 35.59375 -1.421875 
Q 29.59375 -1.421875 25.265625 0.953125 
Q 20.953125 3.328125 18.109375 8.203125 
z
M 48.6875 27.296875 
Q 48.6875 37.203125 44.609375 42.84375 
Q 40.53125 48.484375 33.40625 48.484375 
Q 26.265625 48.484375 22.1875 42.84375 
Q 18.109375 37.203125 18.109375 27.296875 
Q 18.109375 17.390625 22.1875 11.75 
Q 26.265625 6.109375 33.40625 6.109375 
Q 40.53125 6.109375 44.609375 11.75 
Q 48.6875 17.390625 48.6875 27.296875 
z
" id="DejaVuSans-112"/>
     <path d="M 18.3125 70.21875 
L 18.3125 54.6875 
L 36.8125 54.6875 
L 36.8125 47.703125 
L 18.3125 47.703125 
L 18.3125 18.015625 
Q 18.3125 11.328125 20.140625 9.421875 
Q 21.96875 7.515625 27.59375 7.515625 
L 36.8125 7.515625 
L 36.8125 0 
L 27.59375 0 
Q 17.1875 0 13.234375 3.875 
Q 9.28125 7.765625 9.28125 18.015625 
L 9.28125 47.703125 
L 2.6875 47.703125 
L 2.6875 54.6875 
L 9.28125 54.6875 
L 9.28125 70.21875 
z
" id="DejaVuSans-116"/>
     <path d="M 50.984375 -16.609375 
L 50.984375 -23.578125 
L -0.984375 -23.578125 
L -0.984375 -16.609375 
z
" id="DejaVuSans-95"/>
     <path d="M 10.796875 72.90625 
L 49.515625 72.90625 
L 49.515625 64.59375 
L 19.828125 64.59375 
L 19.828125 46.734375 
Q 21.96875 47.46875 24.109375 47.828125 
Q 26.265625 48.1875 28.421875 48.1875 
Q 40.625 48.1875 47.75 41.5 
Q 54.890625 34.8125 54.890625 23.390625 
Q 54.890625 11.625 47.5625 5.09375 
Q 40.234375 -1.421875 26.90625 -1.421875 
Q 22.3125 -1.421875 17.546875 -0.640625 
Q 12.796875 0.140625 7.71875 1.703125 
L 7.71875 11.625 
Q 12.109375 9.234375 16.796875 8.0625 
Q 21.484375 6.890625 26.703125 6.890625 
Q 35.15625 6.890625 40.078125 11.328125 
Q 45.015625 15.765625 45.015625 23.390625 
Q 45.015625 31 40.078125 35.4375 
Q 35.15625 39.890625 26.703125 39.890625 
Q 22.75 39.890625 18.8125 39.015625 
Q 14.890625 38.140625 10.796875 36.28125 
z
" id="DejaVuSans-53"/>
    </defs>
    <g transform="translate(172.240938 16.318125)scale(0.12 -0.12)">
     <use xlink:href="#DejaVuSans-69"/>
     <use x="63.183594" xlink:href="#DejaVuSans-120"/>
     <use x="122.363281" xlink:href="#DejaVuSans-112"/>
     <use x="185.839844" xlink:href="#DejaVuSans-101"/>
     <use x="247.363281" xlink:href="#DejaVuSans-114"/>
     <use x="288.476562" xlink:href="#DejaVuSans-105"/>
     <use x="316.259766" xlink:href="#DejaVuSans-109"/>
     <use x="413.671875" xlink:href="#DejaVuSans-101"/>
     <use x="475.195312" xlink:href="#DejaVuSans-110"/>
     <use x="538.574219" xlink:href="#DejaVuSans-116"/>
     <use x="577.783203" xlink:href="#DejaVuSans-95"/>
     <use x="627.783203" xlink:href="#DejaVuSans-49"/>
     <use x="691.40625" xlink:href="#DejaVuSans-53"/>
    </g>
   </g>
   <g id="legend_1">
    <g id="patch_7">
     <path d="M 121.823438 103.730625 
L 377.94375 103.730625 
Q 379.94375 103.730625 379.94375 101.730625 
L 379.94375 29.318125 
Q 379.94375 27.318125 377.94375 27.318125 
L 121.823438 27.318125 
Q 119.823438 27.318125 119.823438 29.318125 
L 119.823438 101.730625 
Q 119.823438 103.730625 121.823438 103.730625 
z
" style="fill:#ffffff;opacity:0.8;stroke:#cccccc;stroke-linejoin:miter;"/>
    </g>
    <g id="line2d_25"/>
    <g id="line2d_26">
     <g>
      <use style="stroke:#000000;" x="133.823438" xlink:href="#m8b9d5dd50e" y="35.416562"/>
     </g>
    </g>
    <g id="text_17">
     <!-- Experimental Data -->
     <defs>
      <path d="M 9.421875 75.984375 
L 18.40625 75.984375 
L 18.40625 0 
L 9.421875 0 
z
" id="DejaVuSans-108"/>
      <path d="M 19.671875 64.796875 
L 19.671875 8.109375 
L 31.59375 8.109375 
Q 46.6875 8.109375 53.6875 14.9375 
Q 60.6875 21.78125 60.6875 36.53125 
Q 60.6875 51.171875 53.6875 57.984375 
Q 46.6875 64.796875 31.59375 64.796875 
z
M 9.8125 72.90625 
L 30.078125 72.90625 
Q 51.265625 72.90625 61.171875 64.09375 
Q 71.09375 55.28125 71.09375 36.53125 
Q 71.09375 17.671875 61.125 8.828125 
Q 51.171875 0 30.078125 0 
L 9.8125 0 
z
" id="DejaVuSans-68"/>
     </defs>
     <g transform="translate(151.823438 38.916562)scale(0.1 -0.1)">
      <use xlink:href="#DejaVuSans-69"/>
      <use x="63.183594" xlink:href="#DejaVuSans-120"/>
      <use x="122.363281" xlink:href="#DejaVuSans-112"/>
      <use x="185.839844" xlink:href="#DejaVuSans-101"/>
      <use x="247.363281" xlink:href="#DejaVuSans-114"/>
      <use x="288.476562" xlink:href="#DejaVuSans-105"/>
      <use x="316.259766" xlink:href="#DejaVuSans-109"/>
      <use x="413.671875" xlink:href="#DejaVuSans-101"/>
      <use x="475.195312" xlink:href="#DejaVuSans-110"/>
      <use x="538.574219" xlink:href="#DejaVuSans-116"/>
      <use x="577.783203" xlink:href="#DejaVuSans-97"/>
      <use x="639.0625" xlink:href="#DejaVuSans-108"/>
      <use x="666.845703" xlink:href="#DejaVuSans-32"/>
      <use x="698.632812" xlink:href="#DejaVuSans-68"/>
      <use x="775.634766" xlink:href="#DejaVuSans-97"/>
      <use x="836.914062" xlink:href="#DejaVuSans-116"/>
      <use x="876.123047" xlink:href="#DejaVuSans-97"/>
     </g>
    </g>
    <g id="line2d_27">
     <path d="M 123.823438 50.094687 
L 143.823438 50.094687 
" style="fill:none;stroke:#0000ff;stroke-linecap:square;stroke-width:1.5;"/>
    </g>
    <g id="line2d_28"/>
    <g id="text_18">
     <!-- MSI -->
     <defs>
      <path d="M 9.8125 72.90625 
L 24.515625 72.90625 
L 43.109375 23.296875 
L 61.8125 72.90625 
L 76.515625 72.90625 
L 76.515625 0 
L 66.890625 0 
L 66.890625 64.015625 
L 48.09375 14.015625 
L 38.1875 14.015625 
L 19.390625 64.015625 
L 19.390625 0 
L 9.8125 0 
z
" id="DejaVuSans-77"/>
      <path d="M 53.515625 70.515625 
L 53.515625 60.890625 
Q 47.90625 63.578125 42.921875 64.890625 
Q 37.9375 66.21875 33.296875 66.21875 
Q 25.25 66.21875 20.875 63.09375 
Q 16.5 59.96875 16.5 54.203125 
Q 16.5 49.359375 19.40625 46.890625 
Q 22.3125 44.4375 30.421875 42.921875 
L 36.375 41.703125 
Q 47.40625 39.59375 52.65625 34.296875 
Q 57.90625 29 57.90625 20.125 
Q 57.90625 9.515625 50.796875 4.046875 
Q 43.703125 -1.421875 29.984375 -1.421875 
Q 24.8125 -1.421875 18.96875 -0.25 
Q 13.140625 0.921875 6.890625 3.21875 
L 6.890625 13.375 
Q 12.890625 10.015625 18.65625 8.296875 
Q 24.421875 6.59375 29.984375 6.59375 
Q 38.421875 6.59375 43.015625 9.90625 
Q 47.609375 13.234375 47.609375 19.390625 
Q 47.609375 24.75 44.3125 27.78125 
Q 41.015625 30.8125 33.5 32.328125 
L 27.484375 33.5 
Q 16.453125 35.6875 11.515625 40.375 
Q 6.59375 45.0625 6.59375 53.421875 
Q 6.59375 63.09375 13.40625 68.65625 
Q 20.21875 74.21875 32.171875 74.21875 
Q 37.3125 74.21875 42.625 73.28125 
Q 47.953125 72.359375 53.515625 70.515625 
z
" id="DejaVuSans-83"/>
      <path d="M 9.8125 72.90625 
L 19.671875 72.90625 
L 19.671875 0 
L 9.8125 0 
z
" id="DejaVuSans-73"/>
     </defs>
     <g transform="translate(151.823438 53.594687)scale(0.1 -0.1)">
      <use xlink:href="#DejaVuSans-77"/>
      <use x="86.279297" xlink:href="#DejaVuSans-83"/>
      <use x="149.755859" xlink:href="#DejaVuSans-73"/>
     </g>
    </g>
    <g id="line2d_29">
     <path d="M 123.823438 64.774375 
L 143.823438 64.774375 
" style="fill:none;stroke:#ff0000;stroke-linecap:square;stroke-width:1.5;"/>
    </g>
    <g id="line2d_30"/>
    <g id="text_19">
     <!-- $\it{A priori}$ model -->
     <defs>
      <path d="M 36.8125 72.90625 
L 48 72.90625 
L 61.53125 0 
L 51.21875 0 
L 48.1875 18.703125 
L 15.375 18.703125 
L 5.078125 0 
L -5.328125 0 
z
M 40.375 63.1875 
L 19.921875 26.90625 
L 46.6875 26.90625 
z
" id="DejaVuSans-Oblique-65"/>
      <path d="M 49.609375 33.6875 
Q 49.609375 40.875 46.484375 44.671875 
Q 43.359375 48.484375 37.5 48.484375 
Q 33.5 48.484375 29.859375 46.4375 
Q 26.21875 44.390625 23.390625 40.484375 
Q 20.609375 36.625 18.9375 31.15625 
Q 17.28125 25.6875 17.28125 20.3125 
Q 17.28125 13.484375 20.40625 9.796875 
Q 23.53125 6.109375 29.296875 6.109375 
Q 33.546875 6.109375 37.1875 8.109375 
Q 40.828125 10.109375 43.40625 13.921875 
Q 46.1875 17.921875 47.890625 23.34375 
Q 49.609375 28.765625 49.609375 33.6875 
z
M 21.78125 46.390625 
Q 25.390625 51.125 30.296875 53.5625 
Q 35.203125 56 41.21875 56 
Q 49.609375 56 54.25 50.5 
Q 58.890625 45.015625 58.890625 35.109375 
Q 58.890625 27 56 19.65625 
Q 53.125 12.3125 47.703125 6.5 
Q 44.09375 2.640625 39.546875 0.609375 
Q 35.015625 -1.421875 29.984375 -1.421875 
Q 24.171875 -1.421875 20.21875 1 
Q 16.265625 3.421875 14.3125 8.203125 
L 8.6875 -20.796875 
L -0.296875 -20.796875 
L 14.40625 54.6875 
L 23.390625 54.6875 
z
" id="DejaVuSans-Oblique-112"/>
      <path d="M 44.578125 46.390625 
Q 43.21875 47.125 41.453125 47.515625 
Q 39.703125 47.90625 37.703125 47.90625 
Q 30.515625 47.90625 25.140625 42.453125 
Q 19.78125 37.015625 18.015625 27.875 
L 12.5 0 
L 3.515625 0 
L 14.203125 54.6875 
L 23.1875 54.6875 
L 21.484375 46.1875 
Q 25.046875 50.921875 30 53.453125 
Q 34.96875 56 40.578125 56 
Q 42.046875 56 43.453125 55.828125 
Q 44.875 55.671875 46.296875 55.28125 
z
" id="DejaVuSans-Oblique-114"/>
      <path d="M 18.3125 75.984375 
L 27.296875 75.984375 
L 25.09375 64.59375 
L 16.109375 64.59375 
z
M 14.203125 54.6875 
L 23.1875 54.6875 
L 12.5 0 
L 3.515625 0 
z
" id="DejaVuSans-Oblique-105"/>
      <path d="M 25.390625 -1.421875 
Q 15.765625 -1.421875 10.171875 4.515625 
Q 4.59375 10.453125 4.59375 20.703125 
Q 4.59375 26.65625 6.515625 32.828125 
Q 8.453125 39.015625 11.53125 43.21875 
Q 16.359375 49.75 22.3125 52.875 
Q 28.265625 56 35.796875 56 
Q 45.125 56 50.859375 50.1875 
Q 56.59375 44.390625 56.59375 35.015625 
Q 56.59375 28.515625 54.6875 22.0625 
Q 52.78125 15.625 49.703125 11.375 
Q 44.921875 4.828125 38.96875 1.703125 
Q 33.015625 -1.421875 25.390625 -1.421875 
z
M 13.921875 21 
Q 13.921875 13.578125 17.015625 9.890625 
Q 20.125 6.203125 26.421875 6.203125 
Q 35.453125 6.203125 41.375 14.078125 
Q 47.3125 21.96875 47.3125 34.078125 
Q 47.3125 41.15625 44.140625 44.765625 
Q 40.96875 48.390625 34.8125 48.390625 
Q 29.734375 48.390625 25.78125 46.015625 
Q 21.828125 43.65625 18.703125 38.8125 
Q 16.40625 35.203125 15.15625 30.5625 
Q 13.921875 25.921875 13.921875 21 
z
" id="DejaVuSans-Oblique-111"/>
      <path d="M 45.40625 46.390625 
L 45.40625 75.984375 
L 54.390625 75.984375 
L 54.390625 0 
L 45.40625 0 
L 45.40625 8.203125 
Q 42.578125 3.328125 38.25 0.953125 
Q 33.9375 -1.421875 27.875 -1.421875 
Q 17.96875 -1.421875 11.734375 6.484375 
Q 5.515625 14.40625 5.515625 27.296875 
Q 5.515625 40.1875 11.734375 48.09375 
Q 17.96875 56 27.875 56 
Q 33.9375 56 38.25 53.625 
Q 42.578125 51.265625 45.40625 46.390625 
z
M 14.796875 27.296875 
Q 14.796875 17.390625 18.875 11.75 
Q 22.953125 6.109375 30.078125 6.109375 
Q 37.203125 6.109375 41.296875 11.75 
Q 45.40625 17.390625 45.40625 27.296875 
Q 45.40625 37.203125 41.296875 42.84375 
Q 37.203125 48.484375 30.078125 48.484375 
Q 22.953125 48.484375 18.875 42.84375 
Q 14.796875 37.203125 14.796875 27.296875 
z
" id="DejaVuSans-100"/>
     </defs>
     <g transform="translate(151.823438 68.274375)scale(0.1 -0.1)">
      <use transform="translate(0 0.015625)" xlink:href="#DejaVuSans-Oblique-65"/>
      <use transform="translate(68.408203 0.015625)" xlink:href="#DejaVuSans-Oblique-112"/>
      <use transform="translate(131.884766 0.015625)" xlink:href="#DejaVuSans-Oblique-114"/>
      <use transform="translate(172.998047 0.015625)" xlink:href="#DejaVuSans-Oblique-105"/>
      <use transform="translate(200.78125 0.015625)" xlink:href="#DejaVuSans-Oblique-111"/>
      <use transform="translate(261.962891 0.015625)" xlink:href="#DejaVuSans-Oblique-114"/>
      <use transform="translate(303.076172 0.015625)" xlink:href="#DejaVuSans-Oblique-105"/>
      <use transform="translate(330.859375 0.015625)" xlink:href="#DejaVuSans-32"/>
      <use transform="translate(362.646484 0.015625)" xlink:href="#DejaVuSans-109"/>
      <use transform="translate(460.058594 0.015625)" xlink:href="#DejaVuSans-111"/>
      <use transform="translate(521.240234 0.015625)" xlink:href="#DejaVuSans-100"/>
      <use transform="translate(584.716797 0.015625)" xlink:href="#DejaVuSans-101"/>
      <use transform="translate(646.240234 0.015625)" xlink:href="#DejaVuSans-108"/>
     </g>
    </g>
    <g id="line2d_31">
     <path d="M 123.823438 79.472813 
L 143.823438 79.472813 
" style="fill:none;stroke:#ffffff;stroke-linecap:square;stroke-width:1.5;"/>
    </g>
    <g id="line2d_32"/>
    <g id="text_20">
     <!-- T:1194 -->
     <defs>
      <path d="M 11.71875 12.40625 
L 22.015625 12.40625 
L 22.015625 0 
L 11.71875 0 
z
M 11.71875 51.703125 
L 22.015625 51.703125 
L 22.015625 39.3125 
L 11.71875 39.3125 
z
" id="DejaVuSans-58"/>
      <path d="M 10.984375 1.515625 
L 10.984375 10.5 
Q 14.703125 8.734375 18.5 7.8125 
Q 22.3125 6.890625 25.984375 6.890625 
Q 35.75 6.890625 40.890625 13.453125 
Q 46.046875 20.015625 46.78125 33.40625 
Q 43.953125 29.203125 39.59375 26.953125 
Q 35.25 24.703125 29.984375 24.703125 
Q 19.046875 24.703125 12.671875 31.3125 
Q 6.296875 37.9375 6.296875 49.421875 
Q 6.296875 60.640625 12.9375 67.421875 
Q 19.578125 74.21875 30.609375 74.21875 
Q 43.265625 74.21875 49.921875 64.515625 
Q 56.59375 54.828125 56.59375 36.375 
Q 56.59375 19.140625 48.40625 8.859375 
Q 40.234375 -1.421875 26.421875 -1.421875 
Q 22.703125 -1.421875 18.890625 -0.6875 
Q 15.09375 0.046875 10.984375 1.515625 
z
M 30.609375 32.421875 
Q 37.25 32.421875 41.125 36.953125 
Q 45.015625 41.5 45.015625 49.421875 
Q 45.015625 57.28125 41.125 61.84375 
Q 37.25 66.40625 30.609375 66.40625 
Q 23.96875 66.40625 20.09375 61.84375 
Q 16.21875 57.28125 16.21875 49.421875 
Q 16.21875 41.5 20.09375 36.953125 
Q 23.96875 32.421875 30.609375 32.421875 
z
" id="DejaVuSans-57"/>
     </defs>
     <g transform="translate(151.823438 82.972813)scale(0.1 -0.1)">
      <use xlink:href="#DejaVuSans-84"/>
      <use x="60.912109" xlink:href="#DejaVuSans-58"/>
      <use x="94.603516" xlink:href="#DejaVuSans-49"/>
      <use x="158.226562" xlink:href="#DejaVuSans-49"/>
      <use x="221.849609" xlink:href="#DejaVuSans-57"/>
      <use x="285.472656" xlink:href="#DejaVuSans-52"/>
     </g>
    </g>
    <g id="line2d_33">
     <path d="M 123.823438 94.150937 
L 143.823438 94.150937 
" style="fill:none;stroke:#ffffff;stroke-linecap:square;stroke-width:1.5;"/>
    </g>
    <g id="line2d_34"/>
    <g id="text_21">
     <!-- P:1.548 -->
     <defs>
      <path d="M 19.671875 64.796875 
L 19.671875 37.40625 
L 32.078125 37.40625 
Q 38.96875 37.40625 42.71875 40.96875 
Q 46.484375 44.53125 46.484375 51.125 
Q 46.484375 57.671875 42.71875 61.234375 
Q 38.96875 64.796875 32.078125 64.796875 
z
M 9.8125 72.90625 
L 32.078125 72.90625 
Q 44.34375 72.90625 50.609375 67.359375 
Q 56.890625 61.8125 56.890625 51.125 
Q 56.890625 40.328125 50.609375 34.8125 
Q 44.34375 29.296875 32.078125 29.296875 
L 19.671875 29.296875 
L 19.671875 0 
L 9.8125 0 
z
" id="DejaVuSans-80"/>
     </defs>
     <g transform="translate(151.823438 97.650937)scale(0.1 -0.1)">
      <use xlink:href="#DejaVuSans-80"/>
      <use x="60.302734" xlink:href="#DejaVuSans-58"/>
      <use x="93.994141" xlink:href="#DejaVuSans-49"/>
      <use x="157.617188" xlink:href="#DejaVuSans-46"/>
      <use x="189.404297" xlink:href="#DejaVuSans-53"/>
      <use x="253.027344" xlink:href="#DejaVuSans-52"/>
      <use x="316.650391" xlink:href="#DejaVuSans-56"/>
     </g>
    </g>
    <g id="line2d_35">
     <path d="M 265.564063 35.416562 
L 285.564063 35.416562 
" style="fill:none;stroke:#ffffff;stroke-linecap:square;stroke-width:1.5;"/>
    </g>
    <g id="line2d_36"/>
    <g id="text_22">
     <!-- H2O2: 0.001905 -->
     <defs>
      <path d="M 9.8125 72.90625 
L 19.671875 72.90625 
L 19.671875 43.015625 
L 55.515625 43.015625 
L 55.515625 72.90625 
L 65.375 72.90625 
L 65.375 0 
L 55.515625 0 
L 55.515625 34.71875 
L 19.671875 34.71875 
L 19.671875 0 
L 9.8125 0 
z
" id="DejaVuSans-72"/>
      <path d="M 39.40625 66.21875 
Q 28.65625 66.21875 22.328125 58.203125 
Q 16.015625 50.203125 16.015625 36.375 
Q 16.015625 22.609375 22.328125 14.59375 
Q 28.65625 6.59375 39.40625 6.59375 
Q 50.140625 6.59375 56.421875 14.59375 
Q 62.703125 22.609375 62.703125 36.375 
Q 62.703125 50.203125 56.421875 58.203125 
Q 50.140625 66.21875 39.40625 66.21875 
z
M 39.40625 74.21875 
Q 54.734375 74.21875 63.90625 63.9375 
Q 73.09375 53.65625 73.09375 36.375 
Q 73.09375 19.140625 63.90625 8.859375 
Q 54.734375 -1.421875 39.40625 -1.421875 
Q 24.03125 -1.421875 14.8125 8.828125 
Q 5.609375 19.09375 5.609375 36.375 
Q 5.609375 53.65625 14.8125 63.9375 
Q 24.03125 74.21875 39.40625 74.21875 
z
" id="DejaVuSans-79"/>
     </defs>
     <g transform="translate(293.564063 38.916562)scale(0.1 -0.1)">
      <use xlink:href="#DejaVuSans-72"/>
      <use x="75.195312" xlink:href="#DejaVuSans-50"/>
      <use x="138.818359" xlink:href="#DejaVuSans-79"/>
      <use x="217.529297" xlink:href="#DejaVuSans-50"/>
      <use x="281.152344" xlink:href="#DejaVuSans-58"/>
      <use x="314.84375" xlink:href="#DejaVuSans-32"/>
      <use x="346.630859" xlink:href="#DejaVuSans-48"/>
      <use x="410.253906" xlink:href="#DejaVuSans-46"/>
      <use x="442.041016" xlink:href="#DejaVuSans-48"/>
      <use x="505.664062" xlink:href="#DejaVuSans-48"/>
      <use x="569.287109" xlink:href="#DejaVuSans-49"/>
      <use x="632.910156" xlink:href="#DejaVuSans-57"/>
      <use x="696.533203" xlink:href="#DejaVuSans-48"/>
      <use x="760.15625" xlink:href="#DejaVuSans-53"/>
     </g>
    </g>
    <g id="line2d_37">
     <path d="M 265.564063 50.094687 
L 285.564063 50.094687 
" style="fill:none;stroke:#ffffff;stroke-linecap:square;stroke-width:1.5;"/>
    </g>
    <g id="line2d_38"/>
    <g id="text_23">
     <!-- H2O: 0.001113 -->
     <defs>
      <path d="M 40.578125 39.3125 
Q 47.65625 37.796875 51.625 33 
Q 55.609375 28.21875 55.609375 21.1875 
Q 55.609375 10.40625 48.1875 4.484375 
Q 40.765625 -1.421875 27.09375 -1.421875 
Q 22.515625 -1.421875 17.65625 -0.515625 
Q 12.796875 0.390625 7.625 2.203125 
L 7.625 11.71875 
Q 11.71875 9.328125 16.59375 8.109375 
Q 21.484375 6.890625 26.8125 6.890625 
Q 36.078125 6.890625 40.9375 10.546875 
Q 45.796875 14.203125 45.796875 21.1875 
Q 45.796875 27.640625 41.28125 31.265625 
Q 36.765625 34.90625 28.71875 34.90625 
L 20.21875 34.90625 
L 20.21875 43.015625 
L 29.109375 43.015625 
Q 36.375 43.015625 40.234375 45.921875 
Q 44.09375 48.828125 44.09375 54.296875 
Q 44.09375 59.90625 40.109375 62.90625 
Q 36.140625 65.921875 28.71875 65.921875 
Q 24.65625 65.921875 20.015625 65.03125 
Q 15.375 64.15625 9.8125 62.3125 
L 9.8125 71.09375 
Q 15.4375 72.65625 20.34375 73.4375 
Q 25.25 74.21875 29.59375 74.21875 
Q 40.828125 74.21875 47.359375 69.109375 
Q 53.90625 64.015625 53.90625 55.328125 
Q 53.90625 49.265625 50.4375 45.09375 
Q 46.96875 40.921875 40.578125 39.3125 
z
" id="DejaVuSans-51"/>
     </defs>
     <g transform="translate(293.564063 53.594687)scale(0.1 -0.1)">
      <use xlink:href="#DejaVuSans-72"/>
      <use x="75.195312" xlink:href="#DejaVuSans-50"/>
      <use x="138.818359" xlink:href="#DejaVuSans-79"/>
      <use x="217.513672" xlink:href="#DejaVuSans-58"/>
      <use x="251.205078" xlink:href="#DejaVuSans-32"/>
      <use x="282.992188" xlink:href="#DejaVuSans-48"/>
      <use x="346.615234" xlink:href="#DejaVuSans-46"/>
      <use x="378.402344" xlink:href="#DejaVuSans-48"/>
      <use x="442.025391" xlink:href="#DejaVuSans-48"/>
      <use x="505.648438" xlink:href="#DejaVuSans-49"/>
      <use x="569.271484" xlink:href="#DejaVuSans-49"/>
      <use x="632.894531" xlink:href="#DejaVuSans-49"/>
      <use x="696.517578" xlink:href="#DejaVuSans-51"/>
     </g>
    </g>
    <g id="line2d_39">
     <path d="M 265.564063 64.772812 
L 285.564063 64.772812 
" style="fill:none;stroke:#ffffff;stroke-linecap:square;stroke-width:1.5;"/>
    </g>
    <g id="line2d_40"/>
    <g id="text_24">
     <!-- O2: 0.000556 -->
     <g transform="translate(293.564063 68.272812)scale(0.1 -0.1)">
      <use xlink:href="#DejaVuSans-79"/>
      <use x="78.710938" xlink:href="#DejaVuSans-50"/>
      <use x="142.333984" xlink:href="#DejaVuSans-58"/>
      <use x="176.025391" xlink:href="#DejaVuSans-32"/>
      <use x="207.8125" xlink:href="#DejaVuSans-48"/>
      <use x="271.435547" xlink:href="#DejaVuSans-46"/>
      <use x="303.222656" xlink:href="#DejaVuSans-48"/>
      <use x="366.845703" xlink:href="#DejaVuSans-48"/>
      <use x="430.46875" xlink:href="#DejaVuSans-48"/>
      <use x="494.091797" xlink:href="#DejaVuSans-53"/>
      <use x="557.714844" xlink:href="#DejaVuSans-53"/>
      <use x="621.337891" xlink:href="#DejaVuSans-54"/>
     </g>
    </g>
    <g id="line2d_41">
     <path d="M 265.564063 79.450938 
L 285.564063 79.450938 
" style="fill:none;stroke:#ffffff;stroke-linecap:square;stroke-width:1.5;"/>
    </g>
    <g id="line2d_42"/>
    <g id="text_25">
     <!-- Ar: 0.996401 -->
     <g transform="translate(293.564063 82.950938)scale(0.1 -0.1)">
      <use xlink:href="#DejaVuSans-65"/>
      <use x="68.408203" xlink:href="#DejaVuSans-114"/>
      <use x="109.505859" xlink:href="#DejaVuSans-58"/>
      <use x="143.197266" xlink:href="#DejaVuSans-32"/>
      <use x="174.984375" xlink:href="#DejaVuSans-48"/>
      <use x="238.607422" xlink:href="#DejaVuSans-46"/>
      <use x="270.394531" xlink:href="#DejaVuSans-57"/>
      <use x="334.017578" xlink:href="#DejaVuSans-57"/>
      <use x="397.640625" xlink:href="#DejaVuSans-54"/>
      <use x="461.263672" xlink:href="#DejaVuSans-52"/>
      <use x="524.886719" xlink:href="#DejaVuSans-48"/>
      <use x="588.509766" xlink:href="#DejaVuSans-49"/>
     </g>
    </g>
   </g>
  </g>
 </g>
 <defs>
  <clipPath id="pa1f1608dc2">
   <rect height="217.44" width="334.8" x="50.14375" y="22.318125"/>
  </clipPath>
 </defs>
</svg>
