<?xml version="1.0" encoding="utf-8" standalone="no"?>
<!DOCTYPE svg PUBLIC "-//W3C//DTD SVG 1.1//EN"
  "http://www.w3.org/Graphics/SVG/1.1/DTD/svg11.dtd">
<!-- Created with matplotlib (https://matplotlib.org/) -->
<svg height="277.314375pt" version="1.1" viewBox="0 0 392.465625 277.314375" width="392.465625pt" xmlns="http://www.w3.org/2000/svg" xmlns:xlink="http://www.w3.org/1999/xlink">
 <defs>
  <style type="text/css">
*{stroke-linecap:butt;stroke-linejoin:round;}
  </style>
 </defs>
 <g id="figure_1">
  <g id="patch_1">
   <path d="M 0 277.314375 
L 392.465625 277.314375 
L 392.465625 0 
L 0 0 
z
" style="fill:none;"/>
  </g>
  <g id="axes_1">
   <g id="patch_2">
    <path d="M 46.965625 239.758125 
L 381.765625 239.758125 
L 381.765625 22.318125 
L 46.965625 22.318125 
z
" style="fill:none;"/>
   </g>
   <g id="matplotlib.axis_1">
    <g id="xtick_1">
     <g id="line2d_1">
      <defs>
       <path d="M 0 0 
L 0 3.5 
" id="mddd864fcac" style="stroke:#000000;stroke-width:0.8;"/>
      </defs>
      <g>
       <use style="stroke:#000000;stroke-width:0.8;" x="62.183807" xlink:href="#mddd864fcac" y="239.758125"/>
      </g>
     </g>
     <g id="text_1">
      <!-- 0.0 -->
      <defs>
       <path d="M 31.78125 66.40625 
Q 24.171875 66.40625 20.328125 58.90625 
Q 16.5 51.421875 16.5 36.375 
Q 16.5 21.390625 20.328125 13.890625 
Q 24.171875 6.390625 31.78125 6.390625 
Q 39.453125 6.390625 43.28125 13.890625 
Q 47.125 21.390625 47.125 36.375 
Q 47.125 51.421875 43.28125 58.90625 
Q 39.453125 66.40625 31.78125 66.40625 
z
M 31.78125 74.21875 
Q 44.046875 74.21875 50.515625 64.515625 
Q 56.984375 54.828125 56.984375 36.375 
Q 56.984375 17.96875 50.515625 8.265625 
Q 44.046875 -1.421875 31.78125 -1.421875 
Q 19.53125 -1.421875 13.0625 8.265625 
Q 6.59375 17.96875 6.59375 36.375 
Q 6.59375 54.828125 13.0625 64.515625 
Q 19.53125 74.21875 31.78125 74.21875 
z
" id="DejaVuSans-48"/>
       <path d="M 10.6875 12.40625 
L 21 12.40625 
L 21 0 
L 10.6875 0 
z
" id="DejaVuSans-46"/>
      </defs>
      <g transform="translate(54.232244 254.356562)scale(0.1 -0.1)">
       <use xlink:href="#DejaVuSans-48"/>
       <use x="63.623047" xlink:href="#DejaVuSans-46"/>
       <use x="95.410156" xlink:href="#DejaVuSans-48"/>
      </g>
     </g>
    </g>
    <g id="xtick_2">
     <g id="line2d_2">
      <g>
       <use style="stroke:#000000;stroke-width:0.8;" x="122.741369" xlink:href="#mddd864fcac" y="239.758125"/>
      </g>
     </g>
     <g id="text_2">
      <!-- 0.2 -->
      <defs>
       <path d="M 19.1875 8.296875 
L 53.609375 8.296875 
L 53.609375 0 
L 7.328125 0 
L 7.328125 8.296875 
Q 12.9375 14.109375 22.625 23.890625 
Q 32.328125 33.6875 34.8125 36.53125 
Q 39.546875 41.84375 41.421875 45.53125 
Q 43.3125 49.21875 43.3125 52.78125 
Q 43.3125 58.59375 39.234375 62.25 
Q 35.15625 65.921875 28.609375 65.921875 
Q 23.96875 65.921875 18.8125 64.3125 
Q 13.671875 62.703125 7.8125 59.421875 
L 7.8125 69.390625 
Q 13.765625 71.78125 18.9375 73 
Q 24.125 74.21875 28.421875 74.21875 
Q 39.75 74.21875 46.484375 68.546875 
Q 53.21875 62.890625 53.21875 53.421875 
Q 53.21875 48.921875 51.53125 44.890625 
Q 49.859375 40.875 45.40625 35.40625 
Q 44.1875 33.984375 37.640625 27.21875 
Q 31.109375 20.453125 19.1875 8.296875 
z
" id="DejaVuSans-50"/>
      </defs>
      <g transform="translate(114.789807 254.356562)scale(0.1 -0.1)">
       <use xlink:href="#DejaVuSans-48"/>
       <use x="63.623047" xlink:href="#DejaVuSans-46"/>
       <use x="95.410156" xlink:href="#DejaVuSans-50"/>
      </g>
     </g>
    </g>
    <g id="xtick_3">
     <g id="line2d_3">
      <g>
       <use style="stroke:#000000;stroke-width:0.8;" x="183.298932" xlink:href="#mddd864fcac" y="239.758125"/>
      </g>
     </g>
     <g id="text_3">
      <!-- 0.4 -->
      <defs>
       <path d="M 37.796875 64.3125 
L 12.890625 25.390625 
L 37.796875 25.390625 
z
M 35.203125 72.90625 
L 47.609375 72.90625 
L 47.609375 25.390625 
L 58.015625 25.390625 
L 58.015625 17.1875 
L 47.609375 17.1875 
L 47.609375 0 
L 37.796875 0 
L 37.796875 17.1875 
L 4.890625 17.1875 
L 4.890625 26.703125 
z
" id="DejaVuSans-52"/>
      </defs>
      <g transform="translate(175.347369 254.356562)scale(0.1 -0.1)">
       <use xlink:href="#DejaVuSans-48"/>
       <use x="63.623047" xlink:href="#DejaVuSans-46"/>
       <use x="95.410156" xlink:href="#DejaVuSans-52"/>
      </g>
     </g>
    </g>
    <g id="xtick_4">
     <g id="line2d_4">
      <g>
       <use style="stroke:#000000;stroke-width:0.8;" x="243.856494" xlink:href="#mddd864fcac" y="239.758125"/>
      </g>
     </g>
     <g id="text_4">
      <!-- 0.6 -->
      <defs>
       <path d="M 33.015625 40.375 
Q 26.375 40.375 22.484375 35.828125 
Q 18.609375 31.296875 18.609375 23.390625 
Q 18.609375 15.53125 22.484375 10.953125 
Q 26.375 6.390625 33.015625 6.390625 
Q 39.65625 6.390625 43.53125 10.953125 
Q 47.40625 15.53125 47.40625 23.390625 
Q 47.40625 31.296875 43.53125 35.828125 
Q 39.65625 40.375 33.015625 40.375 
z
M 52.59375 71.296875 
L 52.59375 62.3125 
Q 48.875 64.0625 45.09375 64.984375 
Q 41.3125 65.921875 37.59375 65.921875 
Q 27.828125 65.921875 22.671875 59.328125 
Q 17.53125 52.734375 16.796875 39.40625 
Q 19.671875 43.65625 24.015625 45.921875 
Q 28.375 48.1875 33.59375 48.1875 
Q 44.578125 48.1875 50.953125 41.515625 
Q 57.328125 34.859375 57.328125 23.390625 
Q 57.328125 12.15625 50.6875 5.359375 
Q 44.046875 -1.421875 33.015625 -1.421875 
Q 20.359375 -1.421875 13.671875 8.265625 
Q 6.984375 17.96875 6.984375 36.375 
Q 6.984375 53.65625 15.1875 63.9375 
Q 23.390625 74.21875 37.203125 74.21875 
Q 40.921875 74.21875 44.703125 73.484375 
Q 48.484375 72.75 52.59375 71.296875 
z
" id="DejaVuSans-54"/>
      </defs>
      <g transform="translate(235.904932 254.356562)scale(0.1 -0.1)">
       <use xlink:href="#DejaVuSans-48"/>
       <use x="63.623047" xlink:href="#DejaVuSans-46"/>
       <use x="95.410156" xlink:href="#DejaVuSans-54"/>
      </g>
     </g>
    </g>
    <g id="xtick_5">
     <g id="line2d_5">
      <g>
       <use style="stroke:#000000;stroke-width:0.8;" x="304.414057" xlink:href="#mddd864fcac" y="239.758125"/>
      </g>
     </g>
     <g id="text_5">
      <!-- 0.8 -->
      <defs>
       <path d="M 31.78125 34.625 
Q 24.75 34.625 20.71875 30.859375 
Q 16.703125 27.09375 16.703125 20.515625 
Q 16.703125 13.921875 20.71875 10.15625 
Q 24.75 6.390625 31.78125 6.390625 
Q 38.8125 6.390625 42.859375 10.171875 
Q 46.921875 13.96875 46.921875 20.515625 
Q 46.921875 27.09375 42.890625 30.859375 
Q 38.875 34.625 31.78125 34.625 
z
M 21.921875 38.8125 
Q 15.578125 40.375 12.03125 44.71875 
Q 8.5 49.078125 8.5 55.328125 
Q 8.5 64.0625 14.71875 69.140625 
Q 20.953125 74.21875 31.78125 74.21875 
Q 42.671875 74.21875 48.875 69.140625 
Q 55.078125 64.0625 55.078125 55.328125 
Q 55.078125 49.078125 51.53125 44.71875 
Q 48 40.375 41.703125 38.8125 
Q 48.828125 37.15625 52.796875 32.3125 
Q 56.78125 27.484375 56.78125 20.515625 
Q 56.78125 9.90625 50.3125 4.234375 
Q 43.84375 -1.421875 31.78125 -1.421875 
Q 19.734375 -1.421875 13.25 4.234375 
Q 6.78125 9.90625 6.78125 20.515625 
Q 6.78125 27.484375 10.78125 32.3125 
Q 14.796875 37.15625 21.921875 38.8125 
z
M 18.3125 54.390625 
Q 18.3125 48.734375 21.84375 45.5625 
Q 25.390625 42.390625 31.78125 42.390625 
Q 38.140625 42.390625 41.71875 45.5625 
Q 45.3125 48.734375 45.3125 54.390625 
Q 45.3125 60.0625 41.71875 63.234375 
Q 38.140625 66.40625 31.78125 66.40625 
Q 25.390625 66.40625 21.84375 63.234375 
Q 18.3125 60.0625 18.3125 54.390625 
z
" id="DejaVuSans-56"/>
      </defs>
      <g transform="translate(296.462494 254.356562)scale(0.1 -0.1)">
       <use xlink:href="#DejaVuSans-48"/>
       <use x="63.623047" xlink:href="#DejaVuSans-46"/>
       <use x="95.410156" xlink:href="#DejaVuSans-56"/>
      </g>
     </g>
    </g>
    <g id="xtick_6">
     <g id="line2d_6">
      <g>
       <use style="stroke:#000000;stroke-width:0.8;" x="364.971619" xlink:href="#mddd864fcac" y="239.758125"/>
      </g>
     </g>
     <g id="text_6">
      <!-- 1.0 -->
      <defs>
       <path d="M 12.40625 8.296875 
L 28.515625 8.296875 
L 28.515625 63.921875 
L 10.984375 60.40625 
L 10.984375 69.390625 
L 28.421875 72.90625 
L 38.28125 72.90625 
L 38.28125 8.296875 
L 54.390625 8.296875 
L 54.390625 0 
L 12.40625 0 
z
" id="DejaVuSans-49"/>
      </defs>
      <g transform="translate(357.020056 254.356562)scale(0.1 -0.1)">
       <use xlink:href="#DejaVuSans-49"/>
       <use x="63.623047" xlink:href="#DejaVuSans-46"/>
       <use x="95.410156" xlink:href="#DejaVuSans-48"/>
      </g>
     </g>
    </g>
    <g id="text_7">
     <!-- Time (ms) -->
     <defs>
      <path d="M -0.296875 72.90625 
L 61.375 72.90625 
L 61.375 64.59375 
L 35.5 64.59375 
L 35.5 0 
L 25.59375 0 
L 25.59375 64.59375 
L -0.296875 64.59375 
z
" id="DejaVuSans-84"/>
      <path d="M 9.421875 54.6875 
L 18.40625 54.6875 
L 18.40625 0 
L 9.421875 0 
z
M 9.421875 75.984375 
L 18.40625 75.984375 
L 18.40625 64.59375 
L 9.421875 64.59375 
z
" id="DejaVuSans-105"/>
      <path d="M 52 44.1875 
Q 55.375 50.25 60.0625 53.125 
Q 64.75 56 71.09375 56 
Q 79.640625 56 84.28125 50.015625 
Q 88.921875 44.046875 88.921875 33.015625 
L 88.921875 0 
L 79.890625 0 
L 79.890625 32.71875 
Q 79.890625 40.578125 77.09375 44.375 
Q 74.3125 48.1875 68.609375 48.1875 
Q 61.625 48.1875 57.5625 43.546875 
Q 53.515625 38.921875 53.515625 30.90625 
L 53.515625 0 
L 44.484375 0 
L 44.484375 32.71875 
Q 44.484375 40.625 41.703125 44.40625 
Q 38.921875 48.1875 33.109375 48.1875 
Q 26.21875 48.1875 22.15625 43.53125 
Q 18.109375 38.875 18.109375 30.90625 
L 18.109375 0 
L 9.078125 0 
L 9.078125 54.6875 
L 18.109375 54.6875 
L 18.109375 46.1875 
Q 21.1875 51.21875 25.484375 53.609375 
Q 29.78125 56 35.6875 56 
Q 41.65625 56 45.828125 52.96875 
Q 50 49.953125 52 44.1875 
z
" id="DejaVuSans-109"/>
      <path d="M 56.203125 29.59375 
L 56.203125 25.203125 
L 14.890625 25.203125 
Q 15.484375 15.921875 20.484375 11.0625 
Q 25.484375 6.203125 34.421875 6.203125 
Q 39.59375 6.203125 44.453125 7.46875 
Q 49.3125 8.734375 54.109375 11.28125 
L 54.109375 2.78125 
Q 49.265625 0.734375 44.1875 -0.34375 
Q 39.109375 -1.421875 33.890625 -1.421875 
Q 20.796875 -1.421875 13.15625 6.1875 
Q 5.515625 13.8125 5.515625 26.8125 
Q 5.515625 40.234375 12.765625 48.109375 
Q 20.015625 56 32.328125 56 
Q 43.359375 56 49.78125 48.890625 
Q 56.203125 41.796875 56.203125 29.59375 
z
M 47.21875 32.234375 
Q 47.125 39.59375 43.09375 43.984375 
Q 39.0625 48.390625 32.421875 48.390625 
Q 24.90625 48.390625 20.390625 44.140625 
Q 15.875 39.890625 15.1875 32.171875 
z
" id="DejaVuSans-101"/>
      <path id="DejaVuSans-32"/>
      <path d="M 31 75.875 
Q 24.46875 64.65625 21.28125 53.65625 
Q 18.109375 42.671875 18.109375 31.390625 
Q 18.109375 20.125 21.3125 9.0625 
Q 24.515625 -2 31 -13.1875 
L 23.1875 -13.1875 
Q 15.875 -1.703125 12.234375 9.375 
Q 8.59375 20.453125 8.59375 31.390625 
Q 8.59375 42.28125 12.203125 53.3125 
Q 15.828125 64.359375 23.1875 75.875 
z
" id="DejaVuSans-40"/>
      <path d="M 44.28125 53.078125 
L 44.28125 44.578125 
Q 40.484375 46.53125 36.375 47.5 
Q 32.28125 48.484375 27.875 48.484375 
Q 21.1875 48.484375 17.84375 46.4375 
Q 14.5 44.390625 14.5 40.28125 
Q 14.5 37.15625 16.890625 35.375 
Q 19.28125 33.59375 26.515625 31.984375 
L 29.59375 31.296875 
Q 39.15625 29.25 43.1875 25.515625 
Q 47.21875 21.78125 47.21875 15.09375 
Q 47.21875 7.46875 41.1875 3.015625 
Q 35.15625 -1.421875 24.609375 -1.421875 
Q 20.21875 -1.421875 15.453125 -0.5625 
Q 10.6875 0.296875 5.421875 2 
L 5.421875 11.28125 
Q 10.40625 8.6875 15.234375 7.390625 
Q 20.0625 6.109375 24.8125 6.109375 
Q 31.15625 6.109375 34.5625 8.28125 
Q 37.984375 10.453125 37.984375 14.40625 
Q 37.984375 18.0625 35.515625 20.015625 
Q 33.0625 21.96875 24.703125 23.78125 
L 21.578125 24.515625 
Q 13.234375 26.265625 9.515625 29.90625 
Q 5.8125 33.546875 5.8125 39.890625 
Q 5.8125 47.609375 11.28125 51.796875 
Q 16.75 56 26.8125 56 
Q 31.78125 56 36.171875 55.265625 
Q 40.578125 54.546875 44.28125 53.078125 
z
" id="DejaVuSans-115"/>
      <path d="M 8.015625 75.875 
L 15.828125 75.875 
Q 23.140625 64.359375 26.78125 53.3125 
Q 30.421875 42.28125 30.421875 31.390625 
Q 30.421875 20.453125 26.78125 9.375 
Q 23.140625 -1.703125 15.828125 -13.1875 
L 8.015625 -13.1875 
Q 14.5 -2 17.703125 9.0625 
Q 20.90625 20.125 20.90625 31.390625 
Q 20.90625 42.671875 17.703125 53.65625 
Q 14.5 64.65625 8.015625 75.875 
z
" id="DejaVuSans-41"/>
     </defs>
     <g transform="translate(189.0125 268.034687)scale(0.1 -0.1)">
      <use xlink:href="#DejaVuSans-84"/>
      <use x="61.037109" xlink:href="#DejaVuSans-105"/>
      <use x="88.820312" xlink:href="#DejaVuSans-109"/>
      <use x="186.232422" xlink:href="#DejaVuSans-101"/>
      <use x="247.755859" xlink:href="#DejaVuSans-32"/>
      <use x="279.542969" xlink:href="#DejaVuSans-40"/>
      <use x="318.556641" xlink:href="#DejaVuSans-109"/>
      <use x="415.96875" xlink:href="#DejaVuSans-115"/>
      <use x="468.068359" xlink:href="#DejaVuSans-41"/>
     </g>
    </g>
   </g>
   <g id="matplotlib.axis_2">
    <g id="ytick_1">
     <g id="line2d_7">
      <defs>
       <path d="M 0 0 
L -3.5 0 
" id="m2caa0ca0ae" style="stroke:#000000;stroke-width:0.8;"/>
      </defs>
      <g>
       <use style="stroke:#000000;stroke-width:0.8;" x="46.965625" xlink:href="#m2caa0ca0ae" y="229.874489"/>
      </g>
     </g>
     <g id="text_8">
      <!-- 0 -->
      <g transform="translate(33.603125 233.673707)scale(0.1 -0.1)">
       <use xlink:href="#DejaVuSans-48"/>
      </g>
     </g>
    </g>
    <g id="ytick_2">
     <g id="line2d_8">
      <g>
       <use style="stroke:#000000;stroke-width:0.8;" x="46.965625" xlink:href="#m2caa0ca0ae" y="199.154228"/>
      </g>
     </g>
     <g id="text_9">
      <!-- 20 -->
      <g transform="translate(27.240625 202.953447)scale(0.1 -0.1)">
       <use xlink:href="#DejaVuSans-50"/>
       <use x="63.623047" xlink:href="#DejaVuSans-48"/>
      </g>
     </g>
    </g>
    <g id="ytick_3">
     <g id="line2d_9">
      <g>
       <use style="stroke:#000000;stroke-width:0.8;" x="46.965625" xlink:href="#m2caa0ca0ae" y="168.433968"/>
      </g>
     </g>
     <g id="text_10">
      <!-- 40 -->
      <g transform="translate(27.240625 172.233187)scale(0.1 -0.1)">
       <use xlink:href="#DejaVuSans-52"/>
       <use x="63.623047" xlink:href="#DejaVuSans-48"/>
      </g>
     </g>
    </g>
    <g id="ytick_4">
     <g id="line2d_10">
      <g>
       <use style="stroke:#000000;stroke-width:0.8;" x="46.965625" xlink:href="#m2caa0ca0ae" y="137.713708"/>
      </g>
     </g>
     <g id="text_11">
      <!-- 60 -->
      <g transform="translate(27.240625 141.512927)scale(0.1 -0.1)">
       <use xlink:href="#DejaVuSans-54"/>
       <use x="63.623047" xlink:href="#DejaVuSans-48"/>
      </g>
     </g>
    </g>
    <g id="ytick_5">
     <g id="line2d_11">
      <g>
       <use style="stroke:#000000;stroke-width:0.8;" x="46.965625" xlink:href="#m2caa0ca0ae" y="106.993448"/>
      </g>
     </g>
     <g id="text_12">
      <!-- 80 -->
      <g transform="translate(27.240625 110.792666)scale(0.1 -0.1)">
       <use xlink:href="#DejaVuSans-56"/>
       <use x="63.623047" xlink:href="#DejaVuSans-48"/>
      </g>
     </g>
    </g>
    <g id="ytick_6">
     <g id="line2d_12">
      <g>
       <use style="stroke:#000000;stroke-width:0.8;" x="46.965625" xlink:href="#m2caa0ca0ae" y="76.273188"/>
      </g>
     </g>
     <g id="text_13">
      <!-- 100 -->
      <g transform="translate(20.878125 80.072406)scale(0.1 -0.1)">
       <use xlink:href="#DejaVuSans-49"/>
       <use x="63.623047" xlink:href="#DejaVuSans-48"/>
       <use x="127.246094" xlink:href="#DejaVuSans-48"/>
      </g>
     </g>
    </g>
    <g id="ytick_7">
     <g id="line2d_13">
      <g>
       <use style="stroke:#000000;stroke-width:0.8;" x="46.965625" xlink:href="#m2caa0ca0ae" y="45.552927"/>
      </g>
     </g>
     <g id="text_14">
      <!-- 120 -->
      <g transform="translate(20.878125 49.352146)scale(0.1 -0.1)">
       <use xlink:href="#DejaVuSans-49"/>
       <use x="63.623047" xlink:href="#DejaVuSans-50"/>
       <use x="127.246094" xlink:href="#DejaVuSans-48"/>
      </g>
     </g>
    </g>
    <g id="text_15">
     <!-- ppmOH -->
     <defs>
      <path d="M 18.109375 8.203125 
L 18.109375 -20.796875 
L 9.078125 -20.796875 
L 9.078125 54.6875 
L 18.109375 54.6875 
L 18.109375 46.390625 
Q 20.953125 51.265625 25.265625 53.625 
Q 29.59375 56 35.59375 56 
Q 45.5625 56 51.78125 48.09375 
Q 58.015625 40.1875 58.015625 27.296875 
Q 58.015625 14.40625 51.78125 6.484375 
Q 45.5625 -1.421875 35.59375 -1.421875 
Q 29.59375 -1.421875 25.265625 0.953125 
Q 20.953125 3.328125 18.109375 8.203125 
z
M 48.6875 27.296875 
Q 48.6875 37.203125 44.609375 42.84375 
Q 40.53125 48.484375 33.40625 48.484375 
Q 26.265625 48.484375 22.1875 42.84375 
Q 18.109375 37.203125 18.109375 27.296875 
Q 18.109375 17.390625 22.1875 11.75 
Q 26.265625 6.109375 33.40625 6.109375 
Q 40.53125 6.109375 44.609375 11.75 
Q 48.6875 17.390625 48.6875 27.296875 
z
" id="DejaVuSans-112"/>
      <path d="M 39.40625 66.21875 
Q 28.65625 66.21875 22.328125 58.203125 
Q 16.015625 50.203125 16.015625 36.375 
Q 16.015625 22.609375 22.328125 14.59375 
Q 28.65625 6.59375 39.40625 6.59375 
Q 50.140625 6.59375 56.421875 14.59375 
Q 62.703125 22.609375 62.703125 36.375 
Q 62.703125 50.203125 56.421875 58.203125 
Q 50.140625 66.21875 39.40625 66.21875 
z
M 39.40625 74.21875 
Q 54.734375 74.21875 63.90625 63.9375 
Q 73.09375 53.65625 73.09375 36.375 
Q 73.09375 19.140625 63.90625 8.859375 
Q 54.734375 -1.421875 39.40625 -1.421875 
Q 24.03125 -1.421875 14.8125 8.828125 
Q 5.609375 19.09375 5.609375 36.375 
Q 5.609375 53.65625 14.8125 63.9375 
Q 24.03125 74.21875 39.40625 74.21875 
z
" id="DejaVuSans-79"/>
      <path d="M 9.8125 72.90625 
L 19.671875 72.90625 
L 19.671875 43.015625 
L 55.515625 43.015625 
L 55.515625 72.90625 
L 65.375 72.90625 
L 65.375 0 
L 55.515625 0 
L 55.515625 34.71875 
L 19.671875 34.71875 
L 19.671875 0 
L 9.8125 0 
z
" id="DejaVuSans-72"/>
     </defs>
     <g transform="translate(14.798438 149.952969)rotate(-90)scale(0.1 -0.1)">
      <use xlink:href="#DejaVuSans-112"/>
      <use x="63.476562" xlink:href="#DejaVuSans-112"/>
      <use x="126.953125" xlink:href="#DejaVuSans-109"/>
      <use x="224.365234" xlink:href="#DejaVuSans-79"/>
      <use x="303.076172" xlink:href="#DejaVuSans-72"/>
     </g>
    </g>
   </g>
   <g id="line2d_14">
    <path clip-path="url(#p92b6039ddb)" d="M 62.183807 229.874489 
L 62.790967 183.718215 
L 63.39691 153.247742 
L 63.982672 134.230402 
L 64.505946 123.416024 
L 65.02922 116.756184 
L 65.487085 113.380415 
L 65.915919 111.713412 
L 66.213934 111.189958 
L 66.51195 111.064814 
L 66.809965 111.251423 
L 67.207319 111.864001 
L 67.80335 113.303854 
L 68.896072 116.704182 
L 71.134184 123.689446 
L 72.479105 127.144245 
L 73.824027 129.995332 
L 75.094253 132.213808 
L 76.439306 134.154798 
L 78.008534 136.000849 
L 79.694409 137.599121 
L 81.398515 138.909515 
L 83.443442 140.18262 
L 85.829191 141.371027 
L 88.214939 142.335951 
L 91.316449 143.367304 
L 95.451796 144.501182 
L 101.419198 145.891185 
L 119.844647 149.807242 
L 137.53291 153.732478 
L 185.750655 164.595097 
L 204.671249 168.544996 
L 223.591843 172.246037 
L 242.512437 175.704967 
L 261.433031 178.937986 
L 280.353626 181.957157 
L 299.27422 184.76474 
L 318.194814 187.354372 
L 337.115408 189.716427 
L 356.036002 191.844121 
L 366.547443 192.924648 
L 366.547443 192.924648 
" style="fill:none;stroke:#0000ff;stroke-linecap:square;stroke-width:1.5;"/>
   </g>
   <g id="line2d_15">
    <path clip-path="url(#p92b6039ddb)" d="M 62.183807 229.874489 
L 62.932886 162.723502 
L 63.677902 114.568893 
L 64.401392 81.678398 
L 65.059111 61.057341 
L 65.716829 47.292634 
L 66.279482 39.730038 
L 66.778758 35.537024 
L 67.278034 33.185623 
L 67.677454 32.345518 
L 67.97702 32.201761 
L 68.276585 32.400833 
L 68.676006 33.100581 
L 69.175282 34.512099 
L 69.974123 37.594223 
L 71.474695 44.584909 
L 73.728297 54.90266 
L 75.230698 60.775771 
L 76.660365 65.526919 
L 78.017297 69.356834 
L 79.600384 73.12088 
L 81.183472 76.268766 
L 82.798412 78.976986 
L 84.534393 81.443714 
L 86.270374 83.55065 
L 88.353552 85.713309 
L 90.436729 87.570854 
L 92.940081 89.501323 
L 95.615517 91.295661 
L 98.882956 93.218436 
L 103.033821 95.371433 
L 108.153147 97.744498 
L 114.896126 100.596987 
L 124.206879 104.27396 
L 137.629176 109.319094 
L 154.420022 115.376925 
L 170.901646 121.093833 
L 190.198491 127.547806 
L 216.482554 136.077633 
L 248.83217 146.350706 
L 269.47303 152.694145 
L 284.786027 157.187141 
L 299.504143 161.262422 
L 312.382495 164.593766 
L 325.260846 167.684691 
L 338.139197 170.526964 
L 351.017549 173.122682 
L 363.8959 175.481754 
L 365.735664 175.80028 
L 365.735664 175.80028 
" style="fill:none;stroke:#ff0000;stroke-linecap:square;stroke-width:1.5;"/>
   </g>
   <g id="line2d_16">
    <defs>
     <path d="M 0 3 
C 0.795609 3 1.55874 2.683901 2.12132 2.12132 
C 2.683901 1.55874 3 0.795609 3 0 
C 3 -0.795609 2.683901 -1.55874 2.12132 -2.12132 
C 1.55874 -2.683901 0.795609 -3 0 -3 
C -0.795609 -3 -1.55874 -2.683901 -2.12132 -2.12132 
C -2.683901 -1.55874 -3 -0.795609 -3 0 
C -3 0.795609 -2.683901 1.55874 -2.12132 2.12132 
C -1.55874 2.683901 -0.795609 3 0 3 
z
" id="m02a7a3cfd2" style="stroke:#000000;"/>
    </defs>
    <g clip-path="url(#p92b6039ddb)">
     <use style="stroke:#000000;" x="65.363079" xlink:href="#m02a7a3cfd2" y="134.452292"/>
     <use style="stroke:#000000;" x="65.423636" xlink:href="#m02a7a3cfd2" y="134.356905"/>
     <use style="stroke:#000000;" x="65.484194" xlink:href="#m02a7a3cfd2" y="134.277493"/>
     <use style="stroke:#000000;" x="65.544752" xlink:href="#m02a7a3cfd2" y="134.213134"/>
     <use style="stroke:#000000;" x="65.605309" xlink:href="#m02a7a3cfd2" y="134.16306"/>
     <use style="stroke:#000000;" x="65.635588" xlink:href="#m02a7a3cfd2" y="134.126503"/>
     <use style="stroke:#000000;" x="65.696145" xlink:href="#m02a7a3cfd2" y="134.102695"/>
     <use style="stroke:#000000;" x="65.756703" xlink:href="#m02a7a3cfd2" y="134.090714"/>
     <use style="stroke:#000000;" x="65.817261" xlink:href="#m02a7a3cfd2" y="134.0901"/>
     <use style="stroke:#000000;" x="65.877818" xlink:href="#m02a7a3cfd2" y="134.100237"/>
     <use style="stroke:#000000;" x="65.938376" xlink:href="#m02a7a3cfd2" y="134.120206"/>
     <use style="stroke:#000000;" x="65.998933" xlink:href="#m02a7a3cfd2" y="134.149697"/>
     <use style="stroke:#000000;" x="66.059491" xlink:href="#m02a7a3cfd2" y="134.187944"/>
     <use style="stroke:#000000;" x="66.08977" xlink:href="#m02a7a3cfd2" y="134.234639"/>
     <use style="stroke:#000000;" x="66.150327" xlink:href="#m02a7a3cfd2" y="134.289013"/>
     <use style="stroke:#000000;" x="66.210885" xlink:href="#m02a7a3cfd2" y="134.350915"/>
     <use style="stroke:#000000;" x="66.301721" xlink:href="#m02a7a3cfd2" y="134.456746"/>
     <use style="stroke:#000000;" x="66.392557" xlink:href="#m02a7a3cfd2" y="134.576709"/>
     <use style="stroke:#000000;" x="66.483394" xlink:href="#m02a7a3cfd2" y="134.70942"/>
     <use style="stroke:#000000;" x="66.57423" xlink:href="#m02a7a3cfd2" y="134.853652"/>
     <use style="stroke:#000000;" x="66.634788" xlink:href="#m02a7a3cfd2" y="135.008328"/>
     <use style="stroke:#000000;" x="66.725624" xlink:href="#m02a7a3cfd2" y="135.172221"/>
     <use style="stroke:#000000;" x="66.81646" xlink:href="#m02a7a3cfd2" y="135.344562"/>
     <use style="stroke:#000000;" x="66.907297" xlink:href="#m02a7a3cfd2" y="135.524275"/>
     <use style="stroke:#000000;" x="66.998133" xlink:href="#m02a7a3cfd2" y="135.710593"/>
     <use style="stroke:#000000;" x="67.058691" xlink:href="#m02a7a3cfd2" y="135.902749"/>
     <use style="stroke:#000000;" x="67.149527" xlink:href="#m02a7a3cfd2" y="136.100126"/>
     <use style="stroke:#000000;" x="67.240363" xlink:href="#m02a7a3cfd2" y="136.301805"/>
     <use style="stroke:#000000;" x="67.3312" xlink:href="#m02a7a3cfd2" y="136.507477"/>
     <use style="stroke:#000000;" x="67.422036" xlink:href="#m02a7a3cfd2" y="136.716528"/>
     <use style="stroke:#000000;" x="67.512872" xlink:href="#m02a7a3cfd2" y="136.928345"/>
     <use style="stroke:#000000;" x="67.57343" xlink:href="#m02a7a3cfd2" y="137.142618"/>
     <use style="stroke:#000000;" x="67.664266" xlink:href="#m02a7a3cfd2" y="137.358735"/>
     <use style="stroke:#000000;" x="67.755103" xlink:href="#m02a7a3cfd2" y="137.576542"/>
     <use style="stroke:#000000;" x="67.845939" xlink:href="#m02a7a3cfd2" y="137.795424"/>
     <use style="stroke:#000000;" x="67.936775" xlink:href="#m02a7a3cfd2" y="138.015381"/>
     <use style="stroke:#000000;" x="67.997333" xlink:href="#m02a7a3cfd2" y="138.235799"/>
     <use style="stroke:#000000;" x="68.088169" xlink:href="#m02a7a3cfd2" y="138.456677"/>
     <use style="stroke:#000000;" x="68.179005" xlink:href="#m02a7a3cfd2" y="138.677556"/>
     <use style="stroke:#000000;" x="68.269842" xlink:href="#m02a7a3cfd2" y="138.898281"/>
     <use style="stroke:#000000;" x="68.360678" xlink:href="#m02a7a3cfd2" y="139.118545"/>
     <use style="stroke:#000000;" x="68.451515" xlink:href="#m02a7a3cfd2" y="139.338503"/>
     <use style="stroke:#000000;" x="68.512072" xlink:href="#m02a7a3cfd2" y="139.557692"/>
     <use style="stroke:#000000;" x="68.602908" xlink:href="#m02a7a3cfd2" y="139.775959"/>
     <use style="stroke:#000000;" x="68.693745" xlink:href="#m02a7a3cfd2" y="139.993305"/>
     <use style="stroke:#000000;" x="68.784581" xlink:href="#m02a7a3cfd2" y="140.209576"/>
     <use style="stroke:#000000;" x="68.875417" xlink:href="#m02a7a3cfd2" y="140.424771"/>
     <use style="stroke:#000000;" x="68.966254" xlink:href="#m02a7a3cfd2" y="140.63843"/>
     <use style="stroke:#000000;" x="69.026811" xlink:href="#m02a7a3cfd2" y="140.850861"/>
     <use style="stroke:#000000;" x="69.117648" xlink:href="#m02a7a3cfd2" y="141.061756"/>
     <use style="stroke:#000000;" x="69.208484" xlink:href="#m02a7a3cfd2" y="141.271114"/>
     <use style="stroke:#000000;" x="69.29932" xlink:href="#m02a7a3cfd2" y="141.478783"/>
     <use style="stroke:#000000;" x="69.390157" xlink:href="#m02a7a3cfd2" y="141.684916"/>
     <use style="stroke:#000000;" x="69.450714" xlink:href="#m02a7a3cfd2" y="141.889359"/>
     <use style="stroke:#000000;" x="69.541551" xlink:href="#m02a7a3cfd2" y="142.091959"/>
     <use style="stroke:#000000;" x="69.632387" xlink:href="#m02a7a3cfd2" y="142.29287"/>
     <use style="stroke:#000000;" x="69.753502" xlink:href="#m02a7a3cfd2" y="142.593775"/>
     <use style="stroke:#000000;" x="69.904896" xlink:href="#m02a7a3cfd2" y="142.890533"/>
     <use style="stroke:#000000;" x="70.026011" xlink:href="#m02a7a3cfd2" y="143.18299"/>
     <use style="stroke:#000000;" x="70.147126" xlink:href="#m02a7a3cfd2" y="143.470992"/>
     <use style="stroke:#000000;" x="70.268241" xlink:href="#m02a7a3cfd2" y="143.754694"/>
     <use style="stroke:#000000;" x="70.419635" xlink:href="#m02a7a3cfd2" y="144.034094"/>
     <use style="stroke:#000000;" x="70.54075" xlink:href="#m02a7a3cfd2" y="144.309041"/>
     <use style="stroke:#000000;" x="70.661866" xlink:href="#m02a7a3cfd2" y="144.579686"/>
     <use style="stroke:#000000;" x="70.813259" xlink:href="#m02a7a3cfd2" y="144.846031"/>
     <use style="stroke:#000000;" x="70.934375" xlink:href="#m02a7a3cfd2" y="145.108075"/>
     <use style="stroke:#000000;" x="71.05549" xlink:href="#m02a7a3cfd2" y="145.365818"/>
     <use style="stroke:#000000;" x="71.176605" xlink:href="#m02a7a3cfd2" y="145.61926"/>
     <use style="stroke:#000000;" x="71.327999" xlink:href="#m02a7a3cfd2" y="145.868555"/>
     <use style="stroke:#000000;" x="71.449114" xlink:href="#m02a7a3cfd2" y="146.113856"/>
     <use style="stroke:#000000;" x="71.570229" xlink:href="#m02a7a3cfd2" y="146.354856"/>
     <use style="stroke:#000000;" x="71.721623" xlink:href="#m02a7a3cfd2" y="146.592017"/>
     <use style="stroke:#000000;" x="71.842738" xlink:href="#m02a7a3cfd2" y="146.825184"/>
     <use style="stroke:#000000;" x="71.963853" xlink:href="#m02a7a3cfd2" y="147.054357"/>
     <use style="stroke:#000000;" x="72.084968" xlink:href="#m02a7a3cfd2" y="147.27969"/>
     <use style="stroke:#000000;" x="72.236362" xlink:href="#m02a7a3cfd2" y="147.501336"/>
     <use style="stroke:#000000;" x="72.418035" xlink:href="#m02a7a3cfd2" y="147.829429"/>
     <use style="stroke:#000000;" x="72.629986" xlink:href="#m02a7a3cfd2" y="148.149227"/>
     <use style="stroke:#000000;" x="72.811659" xlink:href="#m02a7a3cfd2" y="148.460884"/>
     <use style="stroke:#000000;" x="72.993332" xlink:href="#m02a7a3cfd2" y="148.764707"/>
     <use style="stroke:#000000;" x="73.205283" xlink:href="#m02a7a3cfd2" y="149.061004"/>
     <use style="stroke:#000000;" x="73.386956" xlink:href="#m02a7a3cfd2" y="149.349928"/>
     <use style="stroke:#000000;" x="73.598907" xlink:href="#m02a7a3cfd2" y="149.631479"/>
     <use style="stroke:#000000;" x="73.78058" xlink:href="#m02a7a3cfd2" y="149.906272"/>
     <use style="stroke:#000000;" x="73.992531" xlink:href="#m02a7a3cfd2" y="150.174153"/>
     <use style="stroke:#000000;" x="74.174204" xlink:href="#m02a7a3cfd2" y="150.435429"/>
     <use style="stroke:#000000;" x="74.386156" xlink:href="#m02a7a3cfd2" y="150.690407"/>
     <use style="stroke:#000000;" x="74.567828" xlink:href="#m02a7a3cfd2" y="150.939087"/>
     <use style="stroke:#000000;" x="74.77978" xlink:href="#m02a7a3cfd2" y="151.181777"/>
     <use style="stroke:#000000;" x="74.961452" xlink:href="#m02a7a3cfd2" y="151.41863"/>
     <use style="stroke:#000000;" x="75.173404" xlink:href="#m02a7a3cfd2" y="151.649954"/>
     <use style="stroke:#000000;" x="75.355077" xlink:href="#m02a7a3cfd2" y="151.875594"/>
     <use style="stroke:#000000;" x="75.567028" xlink:href="#m02a7a3cfd2" y="152.096012"/>
     <use style="stroke:#000000;" x="75.748701" xlink:href="#m02a7a3cfd2" y="152.311208"/>
     <use style="stroke:#000000;" x="75.930373" xlink:href="#m02a7a3cfd2" y="152.521488"/>
     <use style="stroke:#000000;" x="76.142325" xlink:href="#m02a7a3cfd2" y="152.726853"/>
     <use style="stroke:#000000;" x="76.323998" xlink:href="#m02a7a3cfd2" y="152.927456"/>
     <use style="stroke:#000000;" x="76.535949" xlink:href="#m02a7a3cfd2" y="153.123605"/>
     <use style="stroke:#000000;" x="76.717622" xlink:href="#m02a7a3cfd2" y="153.315299"/>
     <use style="stroke:#000000;" x="76.929573" xlink:href="#m02a7a3cfd2" y="153.502693"/>
     <use style="stroke:#000000;" x="77.111246" xlink:href="#m02a7a3cfd2" y="153.685939"/>
     <use style="stroke:#000000;" x="77.323197" xlink:href="#m02a7a3cfd2" y="153.865038"/>
     <use style="stroke:#000000;" x="77.50487" xlink:href="#m02a7a3cfd2" y="154.040297"/>
     <use style="stroke:#000000;" x="77.716822" xlink:href="#m02a7a3cfd2" y="154.21187"/>
     <use style="stroke:#000000;" x="77.898494" xlink:href="#m02a7a3cfd2" y="154.379603"/>
     <use style="stroke:#000000;" x="78.110446" xlink:href="#m02a7a3cfd2" y="154.543956"/>
     <use style="stroke:#000000;" x="78.292118" xlink:href="#m02a7a3cfd2" y="154.704623"/>
     <use style="stroke:#000000;" x="78.473791" xlink:href="#m02a7a3cfd2" y="154.862064"/>
     <use style="stroke:#000000;" x="78.685743" xlink:href="#m02a7a3cfd2" y="155.01628"/>
     <use style="stroke:#000000;" x="78.867415" xlink:href="#m02a7a3cfd2" y="155.16727"/>
     <use style="stroke:#000000;" x="79.079367" xlink:href="#m02a7a3cfd2" y="155.315342"/>
     <use style="stroke:#000000;" x="79.261039" xlink:href="#m02a7a3cfd2" y="155.460342"/>
     <use style="stroke:#000000;" x="79.472991" xlink:href="#m02a7a3cfd2" y="155.602423"/>
     <use style="stroke:#000000;" x="79.654664" xlink:href="#m02a7a3cfd2" y="155.741893"/>
     <use style="stroke:#000000;" x="79.866615" xlink:href="#m02a7a3cfd2" y="155.878444"/>
     <use style="stroke:#000000;" x="80.048288" xlink:href="#m02a7a3cfd2" y="156.012538"/>
     <use style="stroke:#000000;" x="80.260239" xlink:href="#m02a7a3cfd2" y="156.144021"/>
     <use style="stroke:#000000;" x="80.441912" xlink:href="#m02a7a3cfd2" y="156.273046"/>
     <use style="stroke:#000000;" x="80.7447" xlink:href="#m02a7a3cfd2" y="156.464433"/>
     <use style="stroke:#000000;" x="81.047488" xlink:href="#m02a7a3cfd2" y="156.650598"/>
     <use style="stroke:#000000;" x="81.350275" xlink:href="#m02a7a3cfd2" y="156.831694"/>
     <use style="stroke:#000000;" x="81.622784" xlink:href="#m02a7a3cfd2" y="157.007875"/>
     <use style="stroke:#000000;" x="81.925572" xlink:href="#m02a7a3cfd2" y="157.179601"/>
     <use style="stroke:#000000;" x="82.22836" xlink:href="#m02a7a3cfd2" y="157.347026"/>
     <use style="stroke:#000000;" x="82.531148" xlink:href="#m02a7a3cfd2" y="157.510151"/>
     <use style="stroke:#000000;" x="82.833936" xlink:href="#m02a7a3cfd2" y="157.669435"/>
     <use style="stroke:#000000;" x="83.106445" xlink:href="#m02a7a3cfd2" y="157.824726"/>
     <use style="stroke:#000000;" x="83.409232" xlink:href="#m02a7a3cfd2" y="157.976484"/>
     <use style="stroke:#000000;" x="83.71202" xlink:href="#m02a7a3cfd2" y="158.12471"/>
     <use style="stroke:#000000;" x="84.014808" xlink:href="#m02a7a3cfd2" y="158.269709"/>
     <use style="stroke:#000000;" x="84.317596" xlink:href="#m02a7a3cfd2" y="158.411483"/>
     <use style="stroke:#000000;" x="84.620384" xlink:href="#m02a7a3cfd2" y="158.550185"/>
     <use style="stroke:#000000;" x="84.892893" xlink:href="#m02a7a3cfd2" y="158.685969"/>
     <use style="stroke:#000000;" x="85.195681" xlink:href="#m02a7a3cfd2" y="158.818988"/>
     <use style="stroke:#000000;" x="85.498468" xlink:href="#m02a7a3cfd2" y="158.949395"/>
     <use style="stroke:#000000;" x="85.801256" xlink:href="#m02a7a3cfd2" y="159.077191"/>
     <use style="stroke:#000000;" x="86.104044" xlink:href="#m02a7a3cfd2" y="159.202684"/>
     <use style="stroke:#000000;" x="86.527947" xlink:href="#m02a7a3cfd2" y="159.386544"/>
     <use style="stroke:#000000;" x="86.982129" xlink:href="#m02a7a3cfd2" y="159.56549"/>
     <use style="stroke:#000000;" x="87.43631" xlink:href="#m02a7a3cfd2" y="159.739674"/>
     <use style="stroke:#000000;" x="87.890492" xlink:href="#m02a7a3cfd2" y="159.90971"/>
     <use style="stroke:#000000;" x="88.314395" xlink:href="#m02a7a3cfd2" y="160.075753"/>
     <use style="stroke:#000000;" x="88.768577" xlink:href="#m02a7a3cfd2" y="160.237803"/>
     <use style="stroke:#000000;" x="89.222758" xlink:href="#m02a7a3cfd2" y="160.396473"/>
     <use style="stroke:#000000;" x="89.646661" xlink:href="#m02a7a3cfd2" y="160.55161"/>
     <use style="stroke:#000000;" x="90.100843" xlink:href="#m02a7a3cfd2" y="160.703676"/>
     <use style="stroke:#000000;" x="90.555025" xlink:href="#m02a7a3cfd2" y="160.852822"/>
     <use style="stroke:#000000;" x="91.009207" xlink:href="#m02a7a3cfd2" y="160.999051"/>
     <use style="stroke:#000000;" x="91.433109" xlink:href="#m02a7a3cfd2" y="161.142822"/>
     <use style="stroke:#000000;" x="91.887291" xlink:href="#m02a7a3cfd2" y="161.283981"/>
     <use style="stroke:#000000;" x="92.341473" xlink:href="#m02a7a3cfd2" y="161.42299"/>
     <use style="stroke:#000000;" x="92.765376" xlink:href="#m02a7a3cfd2" y="161.559696"/>
     <use style="stroke:#000000;" x="93.370951" xlink:href="#m02a7a3cfd2" y="161.694404"/>
     <use style="stroke:#000000;" x="93.673739" xlink:href="#m02a7a3cfd2" y="161.827115"/>
     <use style="stroke:#000000;" x="93.976527" xlink:href="#m02a7a3cfd2" y="161.957984"/>
     <use style="stroke:#000000;" x="94.582103" xlink:href="#m02a7a3cfd2" y="162.087162"/>
     <use style="stroke:#000000;" x="94.884891" xlink:href="#m02a7a3cfd2" y="162.214652"/>
     <use style="stroke:#000000;" x="95.490466" xlink:href="#m02a7a3cfd2" y="162.340605"/>
     <use style="stroke:#000000;" x="95.793254" xlink:href="#m02a7a3cfd2" y="162.465175"/>
     <use style="stroke:#000000;" x="96.39883" xlink:href="#m02a7a3cfd2" y="162.588363"/>
     <use style="stroke:#000000;" x="96.701617" xlink:href="#m02a7a3cfd2" y="162.710169"/>
     <use style="stroke:#000000;" x="97.307193" xlink:href="#m02a7a3cfd2" y="162.8309"/>
     <use style="stroke:#000000;" x="97.609981" xlink:href="#m02a7a3cfd2" y="162.950248"/>
     <use style="stroke:#000000;" x="98.215556" xlink:href="#m02a7a3cfd2" y="163.068675"/>
     <use style="stroke:#000000;" x="98.518344" xlink:href="#m02a7a3cfd2" y="163.186026"/>
     <use style="stroke:#000000;" x="99.12392" xlink:href="#m02a7a3cfd2" y="163.302302"/>
     <use style="stroke:#000000;" x="99.426708" xlink:href="#m02a7a3cfd2" y="163.417657"/>
     <use style="stroke:#000000;" x="100.032283" xlink:href="#m02a7a3cfd2" y="163.532243"/>
     <use style="stroke:#000000;" x="100.335071" xlink:href="#m02a7a3cfd2" y="163.645908"/>
     <use style="stroke:#000000;" x="100.940647" xlink:href="#m02a7a3cfd2" y="163.758652"/>
     <use style="stroke:#000000;" x="101.243435" xlink:href="#m02a7a3cfd2" y="163.870781"/>
     <use style="stroke:#000000;" x="101.84901" xlink:href="#m02a7a3cfd2" y="163.982142"/>
     <use style="stroke:#000000;" x="102.454586" xlink:href="#m02a7a3cfd2" y="164.148031"/>
     <use style="stroke:#000000;" x="103.060161" xlink:href="#m02a7a3cfd2" y="164.312538"/>
     <use style="stroke:#000000;" x="103.665737" xlink:href="#m02a7a3cfd2" y="164.475663"/>
     <use style="stroke:#000000;" x="104.271313" xlink:href="#m02a7a3cfd2" y="164.637558"/>
     <use style="stroke:#000000;" x="105.179676" xlink:href="#m02a7a3cfd2" y="164.798379"/>
     <use style="stroke:#000000;" x="105.785252" xlink:href="#m02a7a3cfd2" y="164.957971"/>
     <use style="stroke:#000000;" x="106.390827" xlink:href="#m02a7a3cfd2" y="165.116641"/>
     <use style="stroke:#000000;" x="106.996403" xlink:href="#m02a7a3cfd2" y="165.274236"/>
     <use style="stroke:#000000;" x="107.601979" xlink:href="#m02a7a3cfd2" y="165.431063"/>
     <use style="stroke:#000000;" x="108.510342" xlink:href="#m02a7a3cfd2" y="165.586968"/>
     <use style="stroke:#000000;" x="109.115918" xlink:href="#m02a7a3cfd2" y="165.741952"/>
     <use style="stroke:#000000;" x="109.721493" xlink:href="#m02a7a3cfd2" y="165.896321"/>
     <use style="stroke:#000000;" x="110.327069" xlink:href="#m02a7a3cfd2" y="166.050076"/>
     <use style="stroke:#000000;" x="111.235432" xlink:href="#m02a7a3cfd2" y="166.203063"/>
     <use style="stroke:#000000;" x="111.841008" xlink:href="#m02a7a3cfd2" y="166.355435"/>
     <use style="stroke:#000000;" x="112.446584" xlink:href="#m02a7a3cfd2" y="166.507193"/>
     <use style="stroke:#000000;" x="113.052159" xlink:href="#m02a7a3cfd2" y="166.658337"/>
     <use style="stroke:#000000;" x="113.657735" xlink:href="#m02a7a3cfd2" y="166.80902"/>
     <use style="stroke:#000000;" x="114.566098" xlink:href="#m02a7a3cfd2" y="166.959089"/>
     <use style="stroke:#000000;" x="115.103547" xlink:href="#m02a7a3cfd2" y="167.10885"/>
     <use style="stroke:#000000;" x="115.773313" xlink:href="#m02a7a3cfd2" y="167.257997"/>
     <use style="stroke:#000000;" x="116.443383" xlink:href="#m02a7a3cfd2" y="167.406683"/>
     <use style="stroke:#000000;" x="117.113149" xlink:href="#m02a7a3cfd2" y="167.554908"/>
     <use style="stroke:#000000;" x="117.782916" xlink:href="#m02a7a3cfd2" y="167.702826"/>
     <use style="stroke:#000000;" x="118.452985" xlink:href="#m02a7a3cfd2" y="167.850283"/>
     <use style="stroke:#000000;" x="119.462177" xlink:href="#m02a7a3cfd2" y="168.071623"/>
     <use style="stroke:#000000;" x="120.471369" xlink:href="#m02a7a3cfd2" y="168.292194"/>
     <use style="stroke:#000000;" x="121.480561" xlink:href="#m02a7a3cfd2" y="168.511844"/>
     <use style="stroke:#000000;" x="122.489753" xlink:href="#m02a7a3cfd2" y="168.73088"/>
     <use style="stroke:#000000;" x="123.498944" xlink:href="#m02a7a3cfd2" y="168.948993"/>
     <use style="stroke:#000000;" x="124.508439" xlink:href="#m02a7a3cfd2" y="169.166493"/>
     <use style="stroke:#000000;" x="125.517631" xlink:href="#m02a7a3cfd2" y="169.383224"/>
     <use style="stroke:#000000;" x="126.526822" xlink:href="#m02a7a3cfd2" y="169.599341"/>
     <use style="stroke:#000000;" x="127.536014" xlink:href="#m02a7a3cfd2" y="169.81469"/>
     <use style="stroke:#000000;" x="128.545206" xlink:href="#m02a7a3cfd2" y="170.029425"/>
     <use style="stroke:#000000;" x="129.554398" xlink:href="#m02a7a3cfd2" y="170.243545"/>
     <use style="stroke:#000000;" x="130.56359" xlink:href="#m02a7a3cfd2" y="170.457051"/>
     <use style="stroke:#000000;" x="131.572781" xlink:href="#m02a7a3cfd2" y="170.669789"/>
     <use style="stroke:#000000;" x="132.582276" xlink:href="#m02a7a3cfd2" y="170.882066"/>
     <use style="stroke:#000000;" x="133.591468" xlink:href="#m02a7a3cfd2" y="171.093575"/>
     <use style="stroke:#000000;" x="134.600659" xlink:href="#m02a7a3cfd2" y="171.304623"/>
     <use style="stroke:#000000;" x="135.609851" xlink:href="#m02a7a3cfd2" y="171.515057"/>
     <use style="stroke:#000000;" x="136.619043" xlink:href="#m02a7a3cfd2" y="171.724722"/>
     <use style="stroke:#000000;" x="137.628235" xlink:href="#m02a7a3cfd2" y="171.933927"/>
     <use style="stroke:#000000;" x="138.637427" xlink:href="#m02a7a3cfd2" y="172.142518"/>
     <use style="stroke:#000000;" x="139.646921" xlink:href="#m02a7a3cfd2" y="172.350494"/>
     <use style="stroke:#000000;" x="140.656113" xlink:href="#m02a7a3cfd2" y="172.55801"/>
     <use style="stroke:#000000;" x="142.17853" xlink:href="#m02a7a3cfd2" y="172.869667"/>
     <use style="stroke:#000000;" x="143.700947" xlink:href="#m02a7a3cfd2" y="173.180095"/>
     <use style="stroke:#000000;" x="145.223062" xlink:href="#m02a7a3cfd2" y="173.488987"/>
     <use style="stroke:#000000;" x="146.745479" xlink:href="#m02a7a3cfd2" y="173.79665"/>
     <use style="stroke:#000000;" x="148.267896" xlink:href="#m02a7a3cfd2" y="174.102931"/>
     <use style="stroke:#000000;" x="149.790313" xlink:href="#m02a7a3cfd2" y="174.40783"/>
     <use style="stroke:#000000;" x="151.31273" xlink:href="#m02a7a3cfd2" y="174.711346"/>
     <use style="stroke:#000000;" x="152.835147" xlink:href="#m02a7a3cfd2" y="175.01348"/>
     <use style="stroke:#000000;" x="154.357564" xlink:href="#m02a7a3cfd2" y="175.314231"/>
     <use style="stroke:#000000;" x="155.879981" xlink:href="#m02a7a3cfd2" y="175.6136"/>
     <use style="stroke:#000000;" x="157.402398" xlink:href="#m02a7a3cfd2" y="175.911433"/>
     <use style="stroke:#000000;" x="158.924816" xlink:href="#m02a7a3cfd2" y="176.208037"/>
     <use style="stroke:#000000;" x="160.447233" xlink:href="#m02a7a3cfd2" y="176.502952"/>
     <use style="stroke:#000000;" x="161.96965" xlink:href="#m02a7a3cfd2" y="176.796637"/>
     <use style="stroke:#000000;" x="163.492067" xlink:href="#m02a7a3cfd2" y="177.088787"/>
     <use style="stroke:#000000;" x="165.014484" xlink:href="#m02a7a3cfd2" y="177.379554"/>
     <use style="stroke:#000000;" x="166.536901" xlink:href="#m02a7a3cfd2" y="177.668786"/>
     <use style="stroke:#000000;" x="168.059318" xlink:href="#m02a7a3cfd2" y="177.956481"/>
     <use style="stroke:#000000;" x="169.581433" xlink:href="#m02a7a3cfd2" y="178.242794"/>
     <use style="stroke:#000000;" x="171.10385" xlink:href="#m02a7a3cfd2" y="178.527571"/>
     <use style="stroke:#000000;" x="172.626267" xlink:href="#m02a7a3cfd2" y="178.810811"/>
     <use style="stroke:#000000;" x="174.148684" xlink:href="#m02a7a3cfd2" y="179.092516"/>
     <use style="stroke:#000000;" x="175.671101" xlink:href="#m02a7a3cfd2" y="179.372838"/>
     <use style="stroke:#000000;" x="177.193518" xlink:href="#m02a7a3cfd2" y="179.651471"/>
     <use style="stroke:#000000;" x="178.715935" xlink:href="#m02a7a3cfd2" y="179.928722"/>
     <use style="stroke:#000000;" x="180.238352" xlink:href="#m02a7a3cfd2" y="180.204436"/>
     <use style="stroke:#000000;" x="181.76077" xlink:href="#m02a7a3cfd2" y="180.478461"/>
     <use style="stroke:#000000;" x="183.283187" xlink:href="#m02a7a3cfd2" y="180.751103"/>
     <use style="stroke:#000000;" x="184.805604" xlink:href="#m02a7a3cfd2" y="181.022056"/>
     <use style="stroke:#000000;" x="186.328021" xlink:href="#m02a7a3cfd2" y="181.291472"/>
     <use style="stroke:#000000;" x="187.850438" xlink:href="#m02a7a3cfd2" y="181.559353"/>
     <use style="stroke:#000000;" x="189.372855" xlink:href="#m02a7a3cfd2" y="181.825698"/>
     <use style="stroke:#000000;" x="190.895272" xlink:href="#m02a7a3cfd2" y="182.090353"/>
     <use style="stroke:#000000;" x="192.417689" xlink:href="#m02a7a3cfd2" y="182.353472"/>
     <use style="stroke:#000000;" x="193.940107" xlink:href="#m02a7a3cfd2" y="182.615055"/>
     <use style="stroke:#000000;" x="195.462221" xlink:href="#m02a7a3cfd2" y="182.874948"/>
     <use style="stroke:#000000;" x="196.984638" xlink:href="#m02a7a3cfd2" y="183.133306"/>
     <use style="stroke:#000000;" x="198.507055" xlink:href="#m02a7a3cfd2" y="183.390127"/>
     <use style="stroke:#000000;" x="200.029472" xlink:href="#m02a7a3cfd2" y="183.645259"/>
     <use style="stroke:#000000;" x="201.551889" xlink:href="#m02a7a3cfd2" y="183.898854"/>
     <use style="stroke:#000000;" x="203.074306" xlink:href="#m02a7a3cfd2" y="184.150914"/>
     <use style="stroke:#000000;" x="204.596724" xlink:href="#m02a7a3cfd2" y="184.401131"/>
     <use style="stroke:#000000;" x="206.119141" xlink:href="#m02a7a3cfd2" y="184.649965"/>
     <use style="stroke:#000000;" x="207.641558" xlink:href="#m02a7a3cfd2" y="184.897109"/>
     <use style="stroke:#000000;" x="209.163975" xlink:href="#m02a7a3cfd2" y="185.142564"/>
     <use style="stroke:#000000;" x="210.686392" xlink:href="#m02a7a3cfd2" y="185.386483"/>
     <use style="stroke:#000000;" x="212.208809" xlink:href="#m02a7a3cfd2" y="185.628866"/>
     <use style="stroke:#000000;" x="213.731226" xlink:href="#m02a7a3cfd2" y="185.869559"/>
     <use style="stroke:#000000;" x="215.253643" xlink:href="#m02a7a3cfd2" y="186.108716"/>
     <use style="stroke:#000000;" x="216.776061" xlink:href="#m02a7a3cfd2" y="186.346184"/>
     <use style="stroke:#000000;" x="218.298478" xlink:href="#m02a7a3cfd2" y="186.581962"/>
     <use style="stroke:#000000;" x="219.820592" xlink:href="#m02a7a3cfd2" y="186.816204"/>
     <use style="stroke:#000000;" x="221.343009" xlink:href="#m02a7a3cfd2" y="187.04891"/>
     <use style="stroke:#000000;" x="222.865426" xlink:href="#m02a7a3cfd2" y="187.279926"/>
     <use style="stroke:#000000;" x="224.387843" xlink:href="#m02a7a3cfd2" y="187.509407"/>
     <use style="stroke:#000000;" x="225.91026" xlink:href="#m02a7a3cfd2" y="187.737197"/>
     <use style="stroke:#000000;" x="227.432678" xlink:href="#m02a7a3cfd2" y="187.963452"/>
     <use style="stroke:#000000;" x="228.955095" xlink:href="#m02a7a3cfd2" y="188.188017"/>
     <use style="stroke:#000000;" x="230.477512" xlink:href="#m02a7a3cfd2" y="188.411046"/>
     <use style="stroke:#000000;" x="231.999929" xlink:href="#m02a7a3cfd2" y="188.632539"/>
     <use style="stroke:#000000;" x="233.522346" xlink:href="#m02a7a3cfd2" y="188.852343"/>
     <use style="stroke:#000000;" x="235.044763" xlink:href="#m02a7a3cfd2" y="189.07061"/>
     <use style="stroke:#000000;" x="236.56718" xlink:href="#m02a7a3cfd2" y="189.287188"/>
     <use style="stroke:#000000;" x="238.089597" xlink:href="#m02a7a3cfd2" y="189.50223"/>
     <use style="stroke:#000000;" x="239.612015" xlink:href="#m02a7a3cfd2" y="189.715736"/>
     <use style="stroke:#000000;" x="241.134432" xlink:href="#m02a7a3cfd2" y="189.927705"/>
     <use style="stroke:#000000;" x="242.656849" xlink:href="#m02a7a3cfd2" y="190.137986"/>
     <use style="stroke:#000000;" x="244.179266" xlink:href="#m02a7a3cfd2" y="190.34673"/>
     <use style="stroke:#000000;" x="245.70138" xlink:href="#m02a7a3cfd2" y="190.553938"/>
     <use style="stroke:#000000;" x="247.223797" xlink:href="#m02a7a3cfd2" y="190.75961"/>
     <use style="stroke:#000000;" x="248.746214" xlink:href="#m02a7a3cfd2" y="190.963746"/>
     <use style="stroke:#000000;" x="250.268632" xlink:href="#m02a7a3cfd2" y="191.166193"/>
     <use style="stroke:#000000;" x="251.791049" xlink:href="#m02a7a3cfd2" y="191.367257"/>
     <use style="stroke:#000000;" x="253.313466" xlink:href="#m02a7a3cfd2" y="191.566631"/>
     <use style="stroke:#000000;" x="254.835883" xlink:href="#m02a7a3cfd2" y="191.764623"/>
     <use style="stroke:#000000;" x="256.3583" xlink:href="#m02a7a3cfd2" y="191.960926"/>
     <use style="stroke:#000000;" x="257.880717" xlink:href="#m02a7a3cfd2" y="192.155846"/>
     <use style="stroke:#000000;" x="259.403134" xlink:href="#m02a7a3cfd2" y="192.349076"/>
     <use style="stroke:#000000;" x="260.925551" xlink:href="#m02a7a3cfd2" y="192.540924"/>
     <use style="stroke:#000000;" x="262.447969" xlink:href="#m02a7a3cfd2" y="192.731236"/>
     <use style="stroke:#000000;" x="263.970386" xlink:href="#m02a7a3cfd2" y="192.920012"/>
     <use style="stroke:#000000;" x="265.492803" xlink:href="#m02a7a3cfd2" y="193.107406"/>
     <use style="stroke:#000000;" x="267.01522" xlink:href="#m02a7a3cfd2" y="193.293264"/>
     <use style="stroke:#000000;" x="268.537637" xlink:href="#m02a7a3cfd2" y="193.477585"/>
     <use style="stroke:#000000;" x="270.060054" xlink:href="#m02a7a3cfd2" y="193.660371"/>
     <use style="stroke:#000000;" x="271.582168" xlink:href="#m02a7a3cfd2" y="193.841774"/>
     <use style="stroke:#000000;" x="273.104586" xlink:href="#m02a7a3cfd2" y="194.021795"/>
     <use style="stroke:#000000;" x="274.627003" xlink:href="#m02a7a3cfd2" y="194.200126"/>
     <use style="stroke:#000000;" x="276.14942" xlink:href="#m02a7a3cfd2" y="194.377228"/>
     <use style="stroke:#000000;" x="277.671837" xlink:href="#m02a7a3cfd2" y="194.552794"/>
     <use style="stroke:#000000;" x="279.194254" xlink:href="#m02a7a3cfd2" y="194.726978"/>
     <use style="stroke:#000000;" x="280.716671" xlink:href="#m02a7a3cfd2" y="194.899626"/>
     <use style="stroke:#000000;" x="282.239088" xlink:href="#m02a7a3cfd2" y="195.070891"/>
     <use style="stroke:#000000;" x="283.761505" xlink:href="#m02a7a3cfd2" y="195.240774"/>
     <use style="stroke:#000000;" x="285.283923" xlink:href="#m02a7a3cfd2" y="195.409275"/>
     <use style="stroke:#000000;" x="286.80634" xlink:href="#m02a7a3cfd2" y="195.576393"/>
     <use style="stroke:#000000;" x="288.328757" xlink:href="#m02a7a3cfd2" y="195.741976"/>
     <use style="stroke:#000000;" x="289.851174" xlink:href="#m02a7a3cfd2" y="195.906329"/>
     <use style="stroke:#000000;" x="291.373591" xlink:href="#m02a7a3cfd2" y="196.069146"/>
     <use style="stroke:#000000;" x="292.896008" xlink:href="#m02a7a3cfd2" y="196.230735"/>
     <use style="stroke:#000000;" x="294.418425" xlink:href="#m02a7a3cfd2" y="196.390941"/>
     <use style="stroke:#000000;" x="295.94054" xlink:href="#m02a7a3cfd2" y="196.549765"/>
     <use style="stroke:#000000;" x="297.462957" xlink:href="#m02a7a3cfd2" y="196.707206"/>
     <use style="stroke:#000000;" x="298.985374" xlink:href="#m02a7a3cfd2" y="196.863265"/>
     <use style="stroke:#000000;" x="300.507791" xlink:href="#m02a7a3cfd2" y="197.018095"/>
     <use style="stroke:#000000;" x="302.030208" xlink:href="#m02a7a3cfd2" y="197.171543"/>
     <use style="stroke:#000000;" x="303.552625" xlink:href="#m02a7a3cfd2" y="197.323762"/>
     <use style="stroke:#000000;" x="305.075042" xlink:href="#m02a7a3cfd2" y="197.474598"/>
     <use style="stroke:#000000;" x="306.597459" xlink:href="#m02a7a3cfd2" y="197.624206"/>
     <use style="stroke:#000000;" x="308.119877" xlink:href="#m02a7a3cfd2" y="197.772431"/>
     <use style="stroke:#000000;" x="309.642294" xlink:href="#m02a7a3cfd2" y="197.919428"/>
     <use style="stroke:#000000;" x="311.164711" xlink:href="#m02a7a3cfd2" y="198.065042"/>
     <use style="stroke:#000000;" x="312.687128" xlink:href="#m02a7a3cfd2" y="198.20958"/>
     <use style="stroke:#000000;" x="314.209545" xlink:href="#m02a7a3cfd2" y="198.352737"/>
     <use style="stroke:#000000;" x="315.731962" xlink:href="#m02a7a3cfd2" y="198.494664"/>
     <use style="stroke:#000000;" x="317.254379" xlink:href="#m02a7a3cfd2" y="198.63521"/>
     <use style="stroke:#000000;" x="318.776796" xlink:href="#m02a7a3cfd2" y="198.77468"/>
     <use style="stroke:#000000;" x="320.299214" xlink:href="#m02a7a3cfd2" y="198.912921"/>
     <use style="stroke:#000000;" x="321.821328" xlink:href="#m02a7a3cfd2" y="199.049933"/>
     <use style="stroke:#000000;" x="323.343745" xlink:href="#m02a7a3cfd2" y="199.185717"/>
     <use style="stroke:#000000;" x="324.866162" xlink:href="#m02a7a3cfd2" y="199.320271"/>
     <use style="stroke:#000000;" x="326.388579" xlink:href="#m02a7a3cfd2" y="199.453597"/>
     <use style="stroke:#000000;" x="327.910996" xlink:href="#m02a7a3cfd2" y="199.585848"/>
     <use style="stroke:#000000;" x="329.433413" xlink:href="#m02a7a3cfd2" y="199.71687"/>
     <use style="stroke:#000000;" x="330.955831" xlink:href="#m02a7a3cfd2" y="199.846663"/>
     <use style="stroke:#000000;" x="332.478248" xlink:href="#m02a7a3cfd2" y="199.975381"/>
     <use style="stroke:#000000;" x="334.000665" xlink:href="#m02a7a3cfd2" y="200.10287"/>
     <use style="stroke:#000000;" x="335.523082" xlink:href="#m02a7a3cfd2" y="200.229284"/>
     <use style="stroke:#000000;" x="337.045499" xlink:href="#m02a7a3cfd2" y="200.354623"/>
     <use style="stroke:#000000;" x="338.567916" xlink:href="#m02a7a3cfd2" y="200.478732"/>
     <use style="stroke:#000000;" x="340.090333" xlink:href="#m02a7a3cfd2" y="200.601614"/>
     <use style="stroke:#000000;" x="341.61275" xlink:href="#m02a7a3cfd2" y="200.723573"/>
     <use style="stroke:#000000;" x="343.135168" xlink:href="#m02a7a3cfd2" y="200.844304"/>
     <use style="stroke:#000000;" x="344.657585" xlink:href="#m02a7a3cfd2" y="200.963959"/>
     <use style="stroke:#000000;" x="346.179699" xlink:href="#m02a7a3cfd2" y="201.082539"/>
     <use style="stroke:#000000;" x="347.702116" xlink:href="#m02a7a3cfd2" y="201.200044"/>
     <use style="stroke:#000000;" x="349.224533" xlink:href="#m02a7a3cfd2" y="201.316474"/>
     <use style="stroke:#000000;" x="350.74695" xlink:href="#m02a7a3cfd2" y="201.431829"/>
     <use style="stroke:#000000;" x="352.269367" xlink:href="#m02a7a3cfd2" y="201.546108"/>
     <use style="stroke:#000000;" x="353.791785" xlink:href="#m02a7a3cfd2" y="201.659312"/>
     <use style="stroke:#000000;" x="355.314202" xlink:href="#m02a7a3cfd2" y="201.771441"/>
     <use style="stroke:#000000;" x="356.836619" xlink:href="#m02a7a3cfd2" y="201.882648"/>
     <use style="stroke:#000000;" x="358.359036" xlink:href="#m02a7a3cfd2" y="201.99278"/>
     <use style="stroke:#000000;" x="359.881453" xlink:href="#m02a7a3cfd2" y="202.101837"/>
     <use style="stroke:#000000;" x="361.40387" xlink:href="#m02a7a3cfd2" y="202.209973"/>
     <use style="stroke:#000000;" x="362.926287" xlink:href="#m02a7a3cfd2" y="202.317033"/>
     <use style="stroke:#000000;" x="364.448704" xlink:href="#m02a7a3cfd2" y="202.423018"/>
     <use style="stroke:#000000;" x="365.970819" xlink:href="#m02a7a3cfd2" y="202.528081"/>
    </g>
   </g>
   <g id="line2d_17">
    <path clip-path="url(#p92b6039ddb)" d="M 65.363079 90.950727 
L 65.756703 89.046348 
L 66.08977 88.340907 
L 66.301721 88.236021 
L 66.57423 88.412166 
L 66.907297 88.996047 
L 67.422036 90.473501 
L 68.269842 93.737204 
L 71.176605 105.483161 
L 72.418035 109.479891 
L 73.78058 113.090269 
L 74.961452 115.661204 
L 76.323998 118.110473 
L 77.716822 120.158665 
L 79.261039 122.013021 
L 80.7447 123.479486 
L 82.531148 124.934728 
L 84.620384 126.322675 
L 86.982129 127.605514 
L 89.646661 128.81036 
L 93.370951 130.233682 
L 98.518344 131.948902 
L 142.17853 145.902322 
L 158.924816 151.25097 
L 172.626267 155.403779 
L 184.805604 158.881379 
L 196.984638 162.14512 
L 209.163975 165.194933 
L 222.865426 168.377576 
L 236.56718 171.312432 
L 250.268632 174.016997 
L 265.492803 176.777888 
L 282.239088 179.559926 
L 300.507791 182.347688 
L 320.299214 185.132351 
L 340.090333 187.695008 
L 359.881453 190.030747 
L 364.448704 190.535094 
L 365.970819 189.880434 
L 365.970819 189.880434 
" style="fill:none;stroke:#0000ff;stroke-dasharray:5.55,2.4;stroke-dashoffset:0;stroke-width:1.5;"/>
   </g>
   <g id="line2d_18">
    <path clip-path="url(#p92b6039ddb)" d="M 65.363079 133.411524 
L 65.817261 131.332928 
L 66.210885 130.42082 
L 66.57423 130.123084 
L 66.81646 130.141839 
L 67.149527 130.396578 
L 67.664266 131.157982 
L 68.451515 132.836874 
L 72.418035 141.970656 
L 73.78058 144.309262 
L 75.173404 146.275074 
L 76.717622 148.050227 
L 78.292118 149.517488 
L 80.048288 150.841142 
L 81.925572 151.979535 
L 84.014808 152.999569 
L 86.527947 153.974489 
L 89.646661 154.916913 
L 93.370951 155.789308 
L 98.215556 156.675632 
L 105.179676 157.703815 
L 148.267896 163.655618 
L 171.10385 167.254277 
L 253.313466 180.403913 
L 283.761505 185.0122 
L 305.075042 188.012366 
L 323.343745 190.360212 
L 340.090333 192.304155 
L 358.359036 194.194019 
L 364.448704 194.773444 
L 365.970819 195.630452 
L 365.970819 195.630452 
" style="fill:none;stroke:#0000ff;stroke-dasharray:5.55,2.4;stroke-dashoffset:0;stroke-width:1.5;"/>
   </g>
   <g id="line2d_19"/>
   <g id="line2d_20"/>
   <g id="line2d_21"/>
   <g id="line2d_22"/>
   <g id="line2d_23"/>
   <g id="line2d_24"/>
   <g id="patch_3">
    <path d="M 46.965625 239.758125 
L 46.965625 22.318125 
" style="fill:none;stroke:#000000;stroke-linecap:square;stroke-linejoin:miter;stroke-width:0.8;"/>
   </g>
   <g id="patch_4">
    <path d="M 381.765625 239.758125 
L 381.765625 22.318125 
" style="fill:none;stroke:#000000;stroke-linecap:square;stroke-linejoin:miter;stroke-width:0.8;"/>
   </g>
   <g id="patch_5">
    <path d="M 46.965625 239.758125 
L 381.765625 239.758125 
" style="fill:none;stroke:#000000;stroke-linecap:square;stroke-linejoin:miter;stroke-width:0.8;"/>
   </g>
   <g id="patch_6">
    <path d="M 46.965625 22.318125 
L 381.765625 22.318125 
" style="fill:none;stroke:#000000;stroke-linecap:square;stroke-linejoin:miter;stroke-width:0.8;"/>
   </g>
   <g id="text_16">
    <!-- Experiment_20 -->
    <defs>
     <path d="M 9.8125 72.90625 
L 55.90625 72.90625 
L 55.90625 64.59375 
L 19.671875 64.59375 
L 19.671875 43.015625 
L 54.390625 43.015625 
L 54.390625 34.71875 
L 19.671875 34.71875 
L 19.671875 8.296875 
L 56.78125 8.296875 
L 56.78125 0 
L 9.8125 0 
z
" id="DejaVuSans-69"/>
     <path d="M 54.890625 54.6875 
L 35.109375 28.078125 
L 55.90625 0 
L 45.3125 0 
L 29.390625 21.484375 
L 13.484375 0 
L 2.875 0 
L 24.125 28.609375 
L 4.6875 54.6875 
L 15.28125 54.6875 
L 29.78125 35.203125 
L 44.28125 54.6875 
z
" id="DejaVuSans-120"/>
     <path d="M 41.109375 46.296875 
Q 39.59375 47.171875 37.8125 47.578125 
Q 36.03125 48 33.890625 48 
Q 26.265625 48 22.1875 43.046875 
Q 18.109375 38.09375 18.109375 28.8125 
L 18.109375 0 
L 9.078125 0 
L 9.078125 54.6875 
L 18.109375 54.6875 
L 18.109375 46.1875 
Q 20.953125 51.171875 25.484375 53.578125 
Q 30.03125 56 36.53125 56 
Q 37.453125 56 38.578125 55.875 
Q 39.703125 55.765625 41.0625 55.515625 
z
" id="DejaVuSans-114"/>
     <path d="M 54.890625 33.015625 
L 54.890625 0 
L 45.90625 0 
L 45.90625 32.71875 
Q 45.90625 40.484375 42.875 44.328125 
Q 39.84375 48.1875 33.796875 48.1875 
Q 26.515625 48.1875 22.3125 43.546875 
Q 18.109375 38.921875 18.109375 30.90625 
L 18.109375 0 
L 9.078125 0 
L 9.078125 54.6875 
L 18.109375 54.6875 
L 18.109375 46.1875 
Q 21.34375 51.125 25.703125 53.5625 
Q 30.078125 56 35.796875 56 
Q 45.21875 56 50.046875 50.171875 
Q 54.890625 44.34375 54.890625 33.015625 
z
" id="DejaVuSans-110"/>
     <path d="M 18.3125 70.21875 
L 18.3125 54.6875 
L 36.8125 54.6875 
L 36.8125 47.703125 
L 18.3125 47.703125 
L 18.3125 18.015625 
Q 18.3125 11.328125 20.140625 9.421875 
Q 21.96875 7.515625 27.59375 7.515625 
L 36.8125 7.515625 
L 36.8125 0 
L 27.59375 0 
Q 17.1875 0 13.234375 3.875 
Q 9.28125 7.765625 9.28125 18.015625 
L 9.28125 47.703125 
L 2.6875 47.703125 
L 2.6875 54.6875 
L 9.28125 54.6875 
L 9.28125 70.21875 
z
" id="DejaVuSans-116"/>
     <path d="M 50.984375 -16.609375 
L 50.984375 -23.578125 
L -0.984375 -23.578125 
L -0.984375 -16.609375 
z
" id="DejaVuSans-95"/>
    </defs>
    <g transform="translate(169.062813 16.318125)scale(0.12 -0.12)">
     <use xlink:href="#DejaVuSans-69"/>
     <use x="63.183594" xlink:href="#DejaVuSans-120"/>
     <use x="122.363281" xlink:href="#DejaVuSans-112"/>
     <use x="185.839844" xlink:href="#DejaVuSans-101"/>
     <use x="247.363281" xlink:href="#DejaVuSans-114"/>
     <use x="288.476562" xlink:href="#DejaVuSans-105"/>
     <use x="316.259766" xlink:href="#DejaVuSans-109"/>
     <use x="413.671875" xlink:href="#DejaVuSans-101"/>
     <use x="475.195312" xlink:href="#DejaVuSans-110"/>
     <use x="538.574219" xlink:href="#DejaVuSans-116"/>
     <use x="577.783203" xlink:href="#DejaVuSans-95"/>
     <use x="627.783203" xlink:href="#DejaVuSans-50"/>
     <use x="691.40625" xlink:href="#DejaVuSans-48"/>
    </g>
   </g>
   <g id="legend_1">
    <g id="patch_7">
     <path d="M 118.645313 103.730625 
L 374.765625 103.730625 
Q 376.765625 103.730625 376.765625 101.730625 
L 376.765625 29.318125 
Q 376.765625 27.318125 374.765625 27.318125 
L 118.645313 27.318125 
Q 116.645313 27.318125 116.645313 29.318125 
L 116.645313 101.730625 
Q 116.645313 103.730625 118.645313 103.730625 
z
" style="fill:#ffffff;opacity:0.8;stroke:#cccccc;stroke-linejoin:miter;"/>
    </g>
    <g id="line2d_25">
     <path d="M 120.645313 35.416562 
L 140.645313 35.416562 
" style="fill:none;stroke:#0000ff;stroke-linecap:square;stroke-width:1.5;"/>
    </g>
    <g id="line2d_26"/>
    <g id="text_17">
     <!-- MSI -->
     <defs>
      <path d="M 9.8125 72.90625 
L 24.515625 72.90625 
L 43.109375 23.296875 
L 61.8125 72.90625 
L 76.515625 72.90625 
L 76.515625 0 
L 66.890625 0 
L 66.890625 64.015625 
L 48.09375 14.015625 
L 38.1875 14.015625 
L 19.390625 64.015625 
L 19.390625 0 
L 9.8125 0 
z
" id="DejaVuSans-77"/>
      <path d="M 53.515625 70.515625 
L 53.515625 60.890625 
Q 47.90625 63.578125 42.921875 64.890625 
Q 37.9375 66.21875 33.296875 66.21875 
Q 25.25 66.21875 20.875 63.09375 
Q 16.5 59.96875 16.5 54.203125 
Q 16.5 49.359375 19.40625 46.890625 
Q 22.3125 44.4375 30.421875 42.921875 
L 36.375 41.703125 
Q 47.40625 39.59375 52.65625 34.296875 
Q 57.90625 29 57.90625 20.125 
Q 57.90625 9.515625 50.796875 4.046875 
Q 43.703125 -1.421875 29.984375 -1.421875 
Q 24.8125 -1.421875 18.96875 -0.25 
Q 13.140625 0.921875 6.890625 3.21875 
L 6.890625 13.375 
Q 12.890625 10.015625 18.65625 8.296875 
Q 24.421875 6.59375 29.984375 6.59375 
Q 38.421875 6.59375 43.015625 9.90625 
Q 47.609375 13.234375 47.609375 19.390625 
Q 47.609375 24.75 44.3125 27.78125 
Q 41.015625 30.8125 33.5 32.328125 
L 27.484375 33.5 
Q 16.453125 35.6875 11.515625 40.375 
Q 6.59375 45.0625 6.59375 53.421875 
Q 6.59375 63.09375 13.40625 68.65625 
Q 20.21875 74.21875 32.171875 74.21875 
Q 37.3125 74.21875 42.625 73.28125 
Q 47.953125 72.359375 53.515625 70.515625 
z
" id="DejaVuSans-83"/>
      <path d="M 9.8125 72.90625 
L 19.671875 72.90625 
L 19.671875 0 
L 9.8125 0 
z
" id="DejaVuSans-73"/>
     </defs>
     <g transform="translate(148.645313 38.916562)scale(0.1 -0.1)">
      <use xlink:href="#DejaVuSans-77"/>
      <use x="86.279297" xlink:href="#DejaVuSans-83"/>
      <use x="149.755859" xlink:href="#DejaVuSans-73"/>
     </g>
    </g>
    <g id="line2d_27">
     <path d="M 120.645313 50.09625 
L 140.645313 50.09625 
" style="fill:none;stroke:#ff0000;stroke-linecap:square;stroke-width:1.5;"/>
    </g>
    <g id="line2d_28"/>
    <g id="text_18">
     <!-- $\it{A priori}$ model -->
     <defs>
      <path d="M 36.8125 72.90625 
L 48 72.90625 
L 61.53125 0 
L 51.21875 0 
L 48.1875 18.703125 
L 15.375 18.703125 
L 5.078125 0 
L -5.328125 0 
z
M 40.375 63.1875 
L 19.921875 26.90625 
L 46.6875 26.90625 
z
" id="DejaVuSans-Oblique-65"/>
      <path d="M 49.609375 33.6875 
Q 49.609375 40.875 46.484375 44.671875 
Q 43.359375 48.484375 37.5 48.484375 
Q 33.5 48.484375 29.859375 46.4375 
Q 26.21875 44.390625 23.390625 40.484375 
Q 20.609375 36.625 18.9375 31.15625 
Q 17.28125 25.6875 17.28125 20.3125 
Q 17.28125 13.484375 20.40625 9.796875 
Q 23.53125 6.109375 29.296875 6.109375 
Q 33.546875 6.109375 37.1875 8.109375 
Q 40.828125 10.109375 43.40625 13.921875 
Q 46.1875 17.921875 47.890625 23.34375 
Q 49.609375 28.765625 49.609375 33.6875 
z
M 21.78125 46.390625 
Q 25.390625 51.125 30.296875 53.5625 
Q 35.203125 56 41.21875 56 
Q 49.609375 56 54.25 50.5 
Q 58.890625 45.015625 58.890625 35.109375 
Q 58.890625 27 56 19.65625 
Q 53.125 12.3125 47.703125 6.5 
Q 44.09375 2.640625 39.546875 0.609375 
Q 35.015625 -1.421875 29.984375 -1.421875 
Q 24.171875 -1.421875 20.21875 1 
Q 16.265625 3.421875 14.3125 8.203125 
L 8.6875 -20.796875 
L -0.296875 -20.796875 
L 14.40625 54.6875 
L 23.390625 54.6875 
z
" id="DejaVuSans-Oblique-112"/>
      <path d="M 44.578125 46.390625 
Q 43.21875 47.125 41.453125 47.515625 
Q 39.703125 47.90625 37.703125 47.90625 
Q 30.515625 47.90625 25.140625 42.453125 
Q 19.78125 37.015625 18.015625 27.875 
L 12.5 0 
L 3.515625 0 
L 14.203125 54.6875 
L 23.1875 54.6875 
L 21.484375 46.1875 
Q 25.046875 50.921875 30 53.453125 
Q 34.96875 56 40.578125 56 
Q 42.046875 56 43.453125 55.828125 
Q 44.875 55.671875 46.296875 55.28125 
z
" id="DejaVuSans-Oblique-114"/>
      <path d="M 18.3125 75.984375 
L 27.296875 75.984375 
L 25.09375 64.59375 
L 16.109375 64.59375 
z
M 14.203125 54.6875 
L 23.1875 54.6875 
L 12.5 0 
L 3.515625 0 
z
" id="DejaVuSans-Oblique-105"/>
      <path d="M 25.390625 -1.421875 
Q 15.765625 -1.421875 10.171875 4.515625 
Q 4.59375 10.453125 4.59375 20.703125 
Q 4.59375 26.65625 6.515625 32.828125 
Q 8.453125 39.015625 11.53125 43.21875 
Q 16.359375 49.75 22.3125 52.875 
Q 28.265625 56 35.796875 56 
Q 45.125 56 50.859375 50.1875 
Q 56.59375 44.390625 56.59375 35.015625 
Q 56.59375 28.515625 54.6875 22.0625 
Q 52.78125 15.625 49.703125 11.375 
Q 44.921875 4.828125 38.96875 1.703125 
Q 33.015625 -1.421875 25.390625 -1.421875 
z
M 13.921875 21 
Q 13.921875 13.578125 17.015625 9.890625 
Q 20.125 6.203125 26.421875 6.203125 
Q 35.453125 6.203125 41.375 14.078125 
Q 47.3125 21.96875 47.3125 34.078125 
Q 47.3125 41.15625 44.140625 44.765625 
Q 40.96875 48.390625 34.8125 48.390625 
Q 29.734375 48.390625 25.78125 46.015625 
Q 21.828125 43.65625 18.703125 38.8125 
Q 16.40625 35.203125 15.15625 30.5625 
Q 13.921875 25.921875 13.921875 21 
z
" id="DejaVuSans-Oblique-111"/>
      <path d="M 30.609375 48.390625 
Q 23.390625 48.390625 19.1875 42.75 
Q 14.984375 37.109375 14.984375 27.296875 
Q 14.984375 17.484375 19.15625 11.84375 
Q 23.34375 6.203125 30.609375 6.203125 
Q 37.796875 6.203125 41.984375 11.859375 
Q 46.1875 17.53125 46.1875 27.296875 
Q 46.1875 37.015625 41.984375 42.703125 
Q 37.796875 48.390625 30.609375 48.390625 
z
M 30.609375 56 
Q 42.328125 56 49.015625 48.375 
Q 55.71875 40.765625 55.71875 27.296875 
Q 55.71875 13.875 49.015625 6.21875 
Q 42.328125 -1.421875 30.609375 -1.421875 
Q 18.84375 -1.421875 12.171875 6.21875 
Q 5.515625 13.875 5.515625 27.296875 
Q 5.515625 40.765625 12.171875 48.375 
Q 18.84375 56 30.609375 56 
z
" id="DejaVuSans-111"/>
      <path d="M 45.40625 46.390625 
L 45.40625 75.984375 
L 54.390625 75.984375 
L 54.390625 0 
L 45.40625 0 
L 45.40625 8.203125 
Q 42.578125 3.328125 38.25 0.953125 
Q 33.9375 -1.421875 27.875 -1.421875 
Q 17.96875 -1.421875 11.734375 6.484375 
Q 5.515625 14.40625 5.515625 27.296875 
Q 5.515625 40.1875 11.734375 48.09375 
Q 17.96875 56 27.875 56 
Q 33.9375 56 38.25 53.625 
Q 42.578125 51.265625 45.40625 46.390625 
z
M 14.796875 27.296875 
Q 14.796875 17.390625 18.875 11.75 
Q 22.953125 6.109375 30.078125 6.109375 
Q 37.203125 6.109375 41.296875 11.75 
Q 45.40625 17.390625 45.40625 27.296875 
Q 45.40625 37.203125 41.296875 42.84375 
Q 37.203125 48.484375 30.078125 48.484375 
Q 22.953125 48.484375 18.875 42.84375 
Q 14.796875 37.203125 14.796875 27.296875 
z
" id="DejaVuSans-100"/>
      <path d="M 9.421875 75.984375 
L 18.40625 75.984375 
L 18.40625 0 
L 9.421875 0 
z
" id="DejaVuSans-108"/>
     </defs>
     <g transform="translate(148.645313 53.59625)scale(0.1 -0.1)">
      <use transform="translate(0 0.015625)" xlink:href="#DejaVuSans-Oblique-65"/>
      <use transform="translate(68.408203 0.015625)" xlink:href="#DejaVuSans-Oblique-112"/>
      <use transform="translate(131.884766 0.015625)" xlink:href="#DejaVuSans-Oblique-114"/>
      <use transform="translate(172.998047 0.015625)" xlink:href="#DejaVuSans-Oblique-105"/>
      <use transform="translate(200.78125 0.015625)" xlink:href="#DejaVuSans-Oblique-111"/>
      <use transform="translate(261.962891 0.015625)" xlink:href="#DejaVuSans-Oblique-114"/>
      <use transform="translate(303.076172 0.015625)" xlink:href="#DejaVuSans-Oblique-105"/>
      <use transform="translate(330.859375 0.015625)" xlink:href="#DejaVuSans-32"/>
      <use transform="translate(362.646484 0.015625)" xlink:href="#DejaVuSans-109"/>
      <use transform="translate(460.058594 0.015625)" xlink:href="#DejaVuSans-111"/>
      <use transform="translate(521.240234 0.015625)" xlink:href="#DejaVuSans-100"/>
      <use transform="translate(584.716797 0.015625)" xlink:href="#DejaVuSans-101"/>
      <use transform="translate(646.240234 0.015625)" xlink:href="#DejaVuSans-108"/>
     </g>
    </g>
    <g id="line2d_29"/>
    <g id="line2d_30">
     <g>
      <use style="stroke:#000000;" x="130.645313" xlink:href="#m02a7a3cfd2" y="64.794688"/>
     </g>
    </g>
    <g id="text_19">
     <!-- Experimental Data -->
     <defs>
      <path d="M 34.28125 27.484375 
Q 23.390625 27.484375 19.1875 25 
Q 14.984375 22.515625 14.984375 16.5 
Q 14.984375 11.71875 18.140625 8.90625 
Q 21.296875 6.109375 26.703125 6.109375 
Q 34.1875 6.109375 38.703125 11.40625 
Q 43.21875 16.703125 43.21875 25.484375 
L 43.21875 27.484375 
z
M 52.203125 31.203125 
L 52.203125 0 
L 43.21875 0 
L 43.21875 8.296875 
Q 40.140625 3.328125 35.546875 0.953125 
Q 30.953125 -1.421875 24.3125 -1.421875 
Q 15.921875 -1.421875 10.953125 3.296875 
Q 6 8.015625 6 15.921875 
Q 6 25.140625 12.171875 29.828125 
Q 18.359375 34.515625 30.609375 34.515625 
L 43.21875 34.515625 
L 43.21875 35.40625 
Q 43.21875 41.609375 39.140625 45 
Q 35.0625 48.390625 27.6875 48.390625 
Q 23 48.390625 18.546875 47.265625 
Q 14.109375 46.140625 10.015625 43.890625 
L 10.015625 52.203125 
Q 14.9375 54.109375 19.578125 55.046875 
Q 24.21875 56 28.609375 56 
Q 40.484375 56 46.34375 49.84375 
Q 52.203125 43.703125 52.203125 31.203125 
z
" id="DejaVuSans-97"/>
      <path d="M 19.671875 64.796875 
L 19.671875 8.109375 
L 31.59375 8.109375 
Q 46.6875 8.109375 53.6875 14.9375 
Q 60.6875 21.78125 60.6875 36.53125 
Q 60.6875 51.171875 53.6875 57.984375 
Q 46.6875 64.796875 31.59375 64.796875 
z
M 9.8125 72.90625 
L 30.078125 72.90625 
Q 51.265625 72.90625 61.171875 64.09375 
Q 71.09375 55.28125 71.09375 36.53125 
Q 71.09375 17.671875 61.125 8.828125 
Q 51.171875 0 30.078125 0 
L 9.8125 0 
z
" id="DejaVuSans-68"/>
     </defs>
     <g transform="translate(148.645313 68.294688)scale(0.1 -0.1)">
      <use xlink:href="#DejaVuSans-69"/>
      <use x="63.183594" xlink:href="#DejaVuSans-120"/>
      <use x="122.363281" xlink:href="#DejaVuSans-112"/>
      <use x="185.839844" xlink:href="#DejaVuSans-101"/>
      <use x="247.363281" xlink:href="#DejaVuSans-114"/>
      <use x="288.476562" xlink:href="#DejaVuSans-105"/>
      <use x="316.259766" xlink:href="#DejaVuSans-109"/>
      <use x="413.671875" xlink:href="#DejaVuSans-101"/>
      <use x="475.195312" xlink:href="#DejaVuSans-110"/>
      <use x="538.574219" xlink:href="#DejaVuSans-116"/>
      <use x="577.783203" xlink:href="#DejaVuSans-97"/>
      <use x="639.0625" xlink:href="#DejaVuSans-108"/>
      <use x="666.845703" xlink:href="#DejaVuSans-32"/>
      <use x="698.632812" xlink:href="#DejaVuSans-68"/>
      <use x="775.634766" xlink:href="#DejaVuSans-97"/>
      <use x="836.914062" xlink:href="#DejaVuSans-116"/>
      <use x="876.123047" xlink:href="#DejaVuSans-97"/>
     </g>
    </g>
    <g id="line2d_31">
     <path d="M 120.645313 79.472813 
L 140.645313 79.472813 
" style="fill:none;stroke:#ffffff;stroke-linecap:square;stroke-width:1.5;"/>
    </g>
    <g id="line2d_32"/>
    <g id="text_20">
     <!-- T:1210 -->
     <defs>
      <path d="M 11.71875 12.40625 
L 22.015625 12.40625 
L 22.015625 0 
L 11.71875 0 
z
M 11.71875 51.703125 
L 22.015625 51.703125 
L 22.015625 39.3125 
L 11.71875 39.3125 
z
" id="DejaVuSans-58"/>
     </defs>
     <g transform="translate(148.645313 82.972813)scale(0.1 -0.1)">
      <use xlink:href="#DejaVuSans-84"/>
      <use x="60.912109" xlink:href="#DejaVuSans-58"/>
      <use x="94.603516" xlink:href="#DejaVuSans-49"/>
      <use x="158.226562" xlink:href="#DejaVuSans-50"/>
      <use x="221.849609" xlink:href="#DejaVuSans-49"/>
      <use x="285.472656" xlink:href="#DejaVuSans-48"/>
     </g>
    </g>
    <g id="line2d_33">
     <path d="M 120.645313 94.150937 
L 140.645313 94.150937 
" style="fill:none;stroke:#ffffff;stroke-linecap:square;stroke-width:1.5;"/>
    </g>
    <g id="line2d_34"/>
    <g id="text_21">
     <!-- P:1.668 -->
     <defs>
      <path d="M 19.671875 64.796875 
L 19.671875 37.40625 
L 32.078125 37.40625 
Q 38.96875 37.40625 42.71875 40.96875 
Q 46.484375 44.53125 46.484375 51.125 
Q 46.484375 57.671875 42.71875 61.234375 
Q 38.96875 64.796875 32.078125 64.796875 
z
M 9.8125 72.90625 
L 32.078125 72.90625 
Q 44.34375 72.90625 50.609375 67.359375 
Q 56.890625 61.8125 56.890625 51.125 
Q 56.890625 40.328125 50.609375 34.8125 
Q 44.34375 29.296875 32.078125 29.296875 
L 19.671875 29.296875 
L 19.671875 0 
L 9.8125 0 
z
" id="DejaVuSans-80"/>
     </defs>
     <g transform="translate(148.645313 97.650937)scale(0.1 -0.1)">
      <use xlink:href="#DejaVuSans-80"/>
      <use x="60.302734" xlink:href="#DejaVuSans-58"/>
      <use x="93.994141" xlink:href="#DejaVuSans-49"/>
      <use x="157.617188" xlink:href="#DejaVuSans-46"/>
      <use x="189.404297" xlink:href="#DejaVuSans-54"/>
      <use x="253.027344" xlink:href="#DejaVuSans-54"/>
      <use x="316.650391" xlink:href="#DejaVuSans-56"/>
     </g>
    </g>
    <g id="line2d_35">
     <path d="M 262.385938 35.416562 
L 282.385938 35.416562 
" style="fill:none;stroke:#ffffff;stroke-linecap:square;stroke-width:1.5;"/>
    </g>
    <g id="line2d_36"/>
    <g id="text_22">
     <!-- H2O2: 0.002399 -->
     <defs>
      <path d="M 40.578125 39.3125 
Q 47.65625 37.796875 51.625 33 
Q 55.609375 28.21875 55.609375 21.1875 
Q 55.609375 10.40625 48.1875 4.484375 
Q 40.765625 -1.421875 27.09375 -1.421875 
Q 22.515625 -1.421875 17.65625 -0.515625 
Q 12.796875 0.390625 7.625 2.203125 
L 7.625 11.71875 
Q 11.71875 9.328125 16.59375 8.109375 
Q 21.484375 6.890625 26.8125 6.890625 
Q 36.078125 6.890625 40.9375 10.546875 
Q 45.796875 14.203125 45.796875 21.1875 
Q 45.796875 27.640625 41.28125 31.265625 
Q 36.765625 34.90625 28.71875 34.90625 
L 20.21875 34.90625 
L 20.21875 43.015625 
L 29.109375 43.015625 
Q 36.375 43.015625 40.234375 45.921875 
Q 44.09375 48.828125 44.09375 54.296875 
Q 44.09375 59.90625 40.109375 62.90625 
Q 36.140625 65.921875 28.71875 65.921875 
Q 24.65625 65.921875 20.015625 65.03125 
Q 15.375 64.15625 9.8125 62.3125 
L 9.8125 71.09375 
Q 15.4375 72.65625 20.34375 73.4375 
Q 25.25 74.21875 29.59375 74.21875 
Q 40.828125 74.21875 47.359375 69.109375 
Q 53.90625 64.015625 53.90625 55.328125 
Q 53.90625 49.265625 50.4375 45.09375 
Q 46.96875 40.921875 40.578125 39.3125 
z
" id="DejaVuSans-51"/>
      <path d="M 10.984375 1.515625 
L 10.984375 10.5 
Q 14.703125 8.734375 18.5 7.8125 
Q 22.3125 6.890625 25.984375 6.890625 
Q 35.75 6.890625 40.890625 13.453125 
Q 46.046875 20.015625 46.78125 33.40625 
Q 43.953125 29.203125 39.59375 26.953125 
Q 35.25 24.703125 29.984375 24.703125 
Q 19.046875 24.703125 12.671875 31.3125 
Q 6.296875 37.9375 6.296875 49.421875 
Q 6.296875 60.640625 12.9375 67.421875 
Q 19.578125 74.21875 30.609375 74.21875 
Q 43.265625 74.21875 49.921875 64.515625 
Q 56.59375 54.828125 56.59375 36.375 
Q 56.59375 19.140625 48.40625 8.859375 
Q 40.234375 -1.421875 26.421875 -1.421875 
Q 22.703125 -1.421875 18.890625 -0.6875 
Q 15.09375 0.046875 10.984375 1.515625 
z
M 30.609375 32.421875 
Q 37.25 32.421875 41.125 36.953125 
Q 45.015625 41.5 45.015625 49.421875 
Q 45.015625 57.28125 41.125 61.84375 
Q 37.25 66.40625 30.609375 66.40625 
Q 23.96875 66.40625 20.09375 61.84375 
Q 16.21875 57.28125 16.21875 49.421875 
Q 16.21875 41.5 20.09375 36.953125 
Q 23.96875 32.421875 30.609375 32.421875 
z
" id="DejaVuSans-57"/>
     </defs>
     <g transform="translate(290.385938 38.916562)scale(0.1 -0.1)">
      <use xlink:href="#DejaVuSans-72"/>
      <use x="75.195312" xlink:href="#DejaVuSans-50"/>
      <use x="138.818359" xlink:href="#DejaVuSans-79"/>
      <use x="217.529297" xlink:href="#DejaVuSans-50"/>
      <use x="281.152344" xlink:href="#DejaVuSans-58"/>
      <use x="314.84375" xlink:href="#DejaVuSans-32"/>
      <use x="346.630859" xlink:href="#DejaVuSans-48"/>
      <use x="410.253906" xlink:href="#DejaVuSans-46"/>
      <use x="442.041016" xlink:href="#DejaVuSans-48"/>
      <use x="505.664062" xlink:href="#DejaVuSans-48"/>
      <use x="569.287109" xlink:href="#DejaVuSans-50"/>
      <use x="632.910156" xlink:href="#DejaVuSans-51"/>
      <use x="696.533203" xlink:href="#DejaVuSans-57"/>
      <use x="760.15625" xlink:href="#DejaVuSans-57"/>
     </g>
    </g>
    <g id="line2d_37">
     <path d="M 262.385938 50.094687 
L 282.385938 50.094687 
" style="fill:none;stroke:#ffffff;stroke-linecap:square;stroke-width:1.5;"/>
    </g>
    <g id="line2d_38"/>
    <g id="text_23">
     <!-- H2O: 0.001113 -->
     <g transform="translate(290.385938 53.594687)scale(0.1 -0.1)">
      <use xlink:href="#DejaVuSans-72"/>
      <use x="75.195312" xlink:href="#DejaVuSans-50"/>
      <use x="138.818359" xlink:href="#DejaVuSans-79"/>
      <use x="217.513672" xlink:href="#DejaVuSans-58"/>
      <use x="251.205078" xlink:href="#DejaVuSans-32"/>
      <use x="282.992188" xlink:href="#DejaVuSans-48"/>
      <use x="346.615234" xlink:href="#DejaVuSans-46"/>
      <use x="378.402344" xlink:href="#DejaVuSans-48"/>
      <use x="442.025391" xlink:href="#DejaVuSans-48"/>
      <use x="505.648438" xlink:href="#DejaVuSans-49"/>
      <use x="569.271484" xlink:href="#DejaVuSans-49"/>
      <use x="632.894531" xlink:href="#DejaVuSans-49"/>
      <use x="696.517578" xlink:href="#DejaVuSans-51"/>
     </g>
    </g>
    <g id="line2d_39">
     <path d="M 262.385938 64.772812 
L 282.385938 64.772812 
" style="fill:none;stroke:#ffffff;stroke-linecap:square;stroke-width:1.5;"/>
    </g>
    <g id="line2d_40"/>
    <g id="text_24">
     <!-- O2: 0.000556 -->
     <defs>
      <path d="M 10.796875 72.90625 
L 49.515625 72.90625 
L 49.515625 64.59375 
L 19.828125 64.59375 
L 19.828125 46.734375 
Q 21.96875 47.46875 24.109375 47.828125 
Q 26.265625 48.1875 28.421875 48.1875 
Q 40.625 48.1875 47.75 41.5 
Q 54.890625 34.8125 54.890625 23.390625 
Q 54.890625 11.625 47.5625 5.09375 
Q 40.234375 -1.421875 26.90625 -1.421875 
Q 22.3125 -1.421875 17.546875 -0.640625 
Q 12.796875 0.140625 7.71875 1.703125 
L 7.71875 11.625 
Q 12.109375 9.234375 16.796875 8.0625 
Q 21.484375 6.890625 26.703125 6.890625 
Q 35.15625 6.890625 40.078125 11.328125 
Q 45.015625 15.765625 45.015625 23.390625 
Q 45.015625 31 40.078125 35.4375 
Q 35.15625 39.890625 26.703125 39.890625 
Q 22.75 39.890625 18.8125 39.015625 
Q 14.890625 38.140625 10.796875 36.28125 
z
" id="DejaVuSans-53"/>
     </defs>
     <g transform="translate(290.385938 68.272812)scale(0.1 -0.1)">
      <use xlink:href="#DejaVuSans-79"/>
      <use x="78.710938" xlink:href="#DejaVuSans-50"/>
      <use x="142.333984" xlink:href="#DejaVuSans-58"/>
      <use x="176.025391" xlink:href="#DejaVuSans-32"/>
      <use x="207.8125" xlink:href="#DejaVuSans-48"/>
      <use x="271.435547" xlink:href="#DejaVuSans-46"/>
      <use x="303.222656" xlink:href="#DejaVuSans-48"/>
      <use x="366.845703" xlink:href="#DejaVuSans-48"/>
      <use x="430.46875" xlink:href="#DejaVuSans-48"/>
      <use x="494.091797" xlink:href="#DejaVuSans-53"/>
      <use x="557.714844" xlink:href="#DejaVuSans-53"/>
      <use x="621.337891" xlink:href="#DejaVuSans-54"/>
     </g>
    </g>
    <g id="line2d_41">
     <path d="M 262.385938 79.450938 
L 282.385938 79.450938 
" style="fill:none;stroke:#ffffff;stroke-linecap:square;stroke-width:1.5;"/>
    </g>
    <g id="line2d_42"/>
    <g id="text_25">
     <!-- Ar: 0.995907 -->
     <defs>
      <path d="M 34.1875 63.1875 
L 20.796875 26.90625 
L 47.609375 26.90625 
z
M 28.609375 72.90625 
L 39.796875 72.90625 
L 67.578125 0 
L 57.328125 0 
L 50.6875 18.703125 
L 17.828125 18.703125 
L 11.1875 0 
L 0.78125 0 
z
" id="DejaVuSans-65"/>
      <path d="M 8.203125 72.90625 
L 55.078125 72.90625 
L 55.078125 68.703125 
L 28.609375 0 
L 18.3125 0 
L 43.21875 64.59375 
L 8.203125 64.59375 
z
" id="DejaVuSans-55"/>
     </defs>
     <g transform="translate(290.385938 82.950938)scale(0.1 -0.1)">
      <use xlink:href="#DejaVuSans-65"/>
      <use x="68.408203" xlink:href="#DejaVuSans-114"/>
      <use x="109.505859" xlink:href="#DejaVuSans-58"/>
      <use x="143.197266" xlink:href="#DejaVuSans-32"/>
      <use x="174.984375" xlink:href="#DejaVuSans-48"/>
      <use x="238.607422" xlink:href="#DejaVuSans-46"/>
      <use x="270.394531" xlink:href="#DejaVuSans-57"/>
      <use x="334.017578" xlink:href="#DejaVuSans-57"/>
      <use x="397.640625" xlink:href="#DejaVuSans-53"/>
      <use x="461.263672" xlink:href="#DejaVuSans-57"/>
      <use x="524.886719" xlink:href="#DejaVuSans-48"/>
      <use x="588.509766" xlink:href="#DejaVuSans-55"/>
     </g>
    </g>
   </g>
  </g>
 </g>
 <defs>
  <clipPath id="p92b6039ddb">
   <rect height="217.44" width="334.8" x="46.965625" y="22.318125"/>
  </clipPath>
 </defs>
</svg>
