<?xml version="1.0" encoding="utf-8" standalone="no"?>
<!DOCTYPE svg PUBLIC "-//W3C//DTD SVG 1.1//EN"
  "http://www.w3.org/Graphics/SVG/1.1/DTD/svg11.dtd">
<!-- Created with matplotlib (https://matplotlib.org/) -->
<svg height="277.314375pt" version="1.1" viewBox="0 0 395.64375 277.314375" width="395.64375pt" xmlns="http://www.w3.org/2000/svg" xmlns:xlink="http://www.w3.org/1999/xlink">
 <defs>
  <style type="text/css">
*{stroke-linecap:butt;stroke-linejoin:round;}
  </style>
 </defs>
 <g id="figure_1">
  <g id="patch_1">
   <path d="M 0 277.314375 
L 395.64375 277.314375 
L 395.64375 0 
L 0 0 
z
" style="fill:none;"/>
  </g>
  <g id="axes_1">
   <g id="patch_2">
    <path d="M 50.14375 239.758125 
L 384.94375 239.758125 
L 384.94375 22.318125 
L 50.14375 22.318125 
z
" style="fill:none;"/>
   </g>
   <g id="matplotlib.axis_1">
    <g id="xtick_1">
     <g id="line2d_1">
      <defs>
       <path d="M 0 0 
L 0 3.5 
" id="m7d5d3bc7b0" style="stroke:#000000;stroke-width:0.8;"/>
      </defs>
      <g>
       <use style="stroke:#000000;stroke-width:0.8;" x="65.361932" xlink:href="#m7d5d3bc7b0" y="239.758125"/>
      </g>
     </g>
     <g id="text_1">
      <!-- 0.0 -->
      <defs>
       <path d="M 31.78125 66.40625 
Q 24.171875 66.40625 20.328125 58.90625 
Q 16.5 51.421875 16.5 36.375 
Q 16.5 21.390625 20.328125 13.890625 
Q 24.171875 6.390625 31.78125 6.390625 
Q 39.453125 6.390625 43.28125 13.890625 
Q 47.125 21.390625 47.125 36.375 
Q 47.125 51.421875 43.28125 58.90625 
Q 39.453125 66.40625 31.78125 66.40625 
z
M 31.78125 74.21875 
Q 44.046875 74.21875 50.515625 64.515625 
Q 56.984375 54.828125 56.984375 36.375 
Q 56.984375 17.96875 50.515625 8.265625 
Q 44.046875 -1.421875 31.78125 -1.421875 
Q 19.53125 -1.421875 13.0625 8.265625 
Q 6.59375 17.96875 6.59375 36.375 
Q 6.59375 54.828125 13.0625 64.515625 
Q 19.53125 74.21875 31.78125 74.21875 
z
" id="DejaVuSans-48"/>
       <path d="M 10.6875 12.40625 
L 21 12.40625 
L 21 0 
L 10.6875 0 
z
" id="DejaVuSans-46"/>
      </defs>
      <g transform="translate(57.410369 254.356562)scale(0.1 -0.1)">
       <use xlink:href="#DejaVuSans-48"/>
       <use x="63.623047" xlink:href="#DejaVuSans-46"/>
       <use x="95.410156" xlink:href="#DejaVuSans-48"/>
      </g>
     </g>
    </g>
    <g id="xtick_2">
     <g id="line2d_2">
      <g>
       <use style="stroke:#000000;stroke-width:0.8;" x="125.397952" xlink:href="#m7d5d3bc7b0" y="239.758125"/>
      </g>
     </g>
     <g id="text_2">
      <!-- 0.2 -->
      <defs>
       <path d="M 19.1875 8.296875 
L 53.609375 8.296875 
L 53.609375 0 
L 7.328125 0 
L 7.328125 8.296875 
Q 12.9375 14.109375 22.625 23.890625 
Q 32.328125 33.6875 34.8125 36.53125 
Q 39.546875 41.84375 41.421875 45.53125 
Q 43.3125 49.21875 43.3125 52.78125 
Q 43.3125 58.59375 39.234375 62.25 
Q 35.15625 65.921875 28.609375 65.921875 
Q 23.96875 65.921875 18.8125 64.3125 
Q 13.671875 62.703125 7.8125 59.421875 
L 7.8125 69.390625 
Q 13.765625 71.78125 18.9375 73 
Q 24.125 74.21875 28.421875 74.21875 
Q 39.75 74.21875 46.484375 68.546875 
Q 53.21875 62.890625 53.21875 53.421875 
Q 53.21875 48.921875 51.53125 44.890625 
Q 49.859375 40.875 45.40625 35.40625 
Q 44.1875 33.984375 37.640625 27.21875 
Q 31.109375 20.453125 19.1875 8.296875 
z
" id="DejaVuSans-50"/>
      </defs>
      <g transform="translate(117.44639 254.356562)scale(0.1 -0.1)">
       <use xlink:href="#DejaVuSans-48"/>
       <use x="63.623047" xlink:href="#DejaVuSans-46"/>
       <use x="95.410156" xlink:href="#DejaVuSans-50"/>
      </g>
     </g>
    </g>
    <g id="xtick_3">
     <g id="line2d_3">
      <g>
       <use style="stroke:#000000;stroke-width:0.8;" x="185.433973" xlink:href="#m7d5d3bc7b0" y="239.758125"/>
      </g>
     </g>
     <g id="text_3">
      <!-- 0.4 -->
      <defs>
       <path d="M 37.796875 64.3125 
L 12.890625 25.390625 
L 37.796875 25.390625 
z
M 35.203125 72.90625 
L 47.609375 72.90625 
L 47.609375 25.390625 
L 58.015625 25.390625 
L 58.015625 17.1875 
L 47.609375 17.1875 
L 47.609375 0 
L 37.796875 0 
L 37.796875 17.1875 
L 4.890625 17.1875 
L 4.890625 26.703125 
z
" id="DejaVuSans-52"/>
      </defs>
      <g transform="translate(177.482411 254.356562)scale(0.1 -0.1)">
       <use xlink:href="#DejaVuSans-48"/>
       <use x="63.623047" xlink:href="#DejaVuSans-46"/>
       <use x="95.410156" xlink:href="#DejaVuSans-52"/>
      </g>
     </g>
    </g>
    <g id="xtick_4">
     <g id="line2d_4">
      <g>
       <use style="stroke:#000000;stroke-width:0.8;" x="245.469994" xlink:href="#m7d5d3bc7b0" y="239.758125"/>
      </g>
     </g>
     <g id="text_4">
      <!-- 0.6 -->
      <defs>
       <path d="M 33.015625 40.375 
Q 26.375 40.375 22.484375 35.828125 
Q 18.609375 31.296875 18.609375 23.390625 
Q 18.609375 15.53125 22.484375 10.953125 
Q 26.375 6.390625 33.015625 6.390625 
Q 39.65625 6.390625 43.53125 10.953125 
Q 47.40625 15.53125 47.40625 23.390625 
Q 47.40625 31.296875 43.53125 35.828125 
Q 39.65625 40.375 33.015625 40.375 
z
M 52.59375 71.296875 
L 52.59375 62.3125 
Q 48.875 64.0625 45.09375 64.984375 
Q 41.3125 65.921875 37.59375 65.921875 
Q 27.828125 65.921875 22.671875 59.328125 
Q 17.53125 52.734375 16.796875 39.40625 
Q 19.671875 43.65625 24.015625 45.921875 
Q 28.375 48.1875 33.59375 48.1875 
Q 44.578125 48.1875 50.953125 41.515625 
Q 57.328125 34.859375 57.328125 23.390625 
Q 57.328125 12.15625 50.6875 5.359375 
Q 44.046875 -1.421875 33.015625 -1.421875 
Q 20.359375 -1.421875 13.671875 8.265625 
Q 6.984375 17.96875 6.984375 36.375 
Q 6.984375 53.65625 15.1875 63.9375 
Q 23.390625 74.21875 37.203125 74.21875 
Q 40.921875 74.21875 44.703125 73.484375 
Q 48.484375 72.75 52.59375 71.296875 
z
" id="DejaVuSans-54"/>
      </defs>
      <g transform="translate(237.518431 254.356562)scale(0.1 -0.1)">
       <use xlink:href="#DejaVuSans-48"/>
       <use x="63.623047" xlink:href="#DejaVuSans-46"/>
       <use x="95.410156" xlink:href="#DejaVuSans-54"/>
      </g>
     </g>
    </g>
    <g id="xtick_5">
     <g id="line2d_5">
      <g>
       <use style="stroke:#000000;stroke-width:0.8;" x="305.506014" xlink:href="#m7d5d3bc7b0" y="239.758125"/>
      </g>
     </g>
     <g id="text_5">
      <!-- 0.8 -->
      <defs>
       <path d="M 31.78125 34.625 
Q 24.75 34.625 20.71875 30.859375 
Q 16.703125 27.09375 16.703125 20.515625 
Q 16.703125 13.921875 20.71875 10.15625 
Q 24.75 6.390625 31.78125 6.390625 
Q 38.8125 6.390625 42.859375 10.171875 
Q 46.921875 13.96875 46.921875 20.515625 
Q 46.921875 27.09375 42.890625 30.859375 
Q 38.875 34.625 31.78125 34.625 
z
M 21.921875 38.8125 
Q 15.578125 40.375 12.03125 44.71875 
Q 8.5 49.078125 8.5 55.328125 
Q 8.5 64.0625 14.71875 69.140625 
Q 20.953125 74.21875 31.78125 74.21875 
Q 42.671875 74.21875 48.875 69.140625 
Q 55.078125 64.0625 55.078125 55.328125 
Q 55.078125 49.078125 51.53125 44.71875 
Q 48 40.375 41.703125 38.8125 
Q 48.828125 37.15625 52.796875 32.3125 
Q 56.78125 27.484375 56.78125 20.515625 
Q 56.78125 9.90625 50.3125 4.234375 
Q 43.84375 -1.421875 31.78125 -1.421875 
Q 19.734375 -1.421875 13.25 4.234375 
Q 6.78125 9.90625 6.78125 20.515625 
Q 6.78125 27.484375 10.78125 32.3125 
Q 14.796875 37.15625 21.921875 38.8125 
z
M 18.3125 54.390625 
Q 18.3125 48.734375 21.84375 45.5625 
Q 25.390625 42.390625 31.78125 42.390625 
Q 38.140625 42.390625 41.71875 45.5625 
Q 45.3125 48.734375 45.3125 54.390625 
Q 45.3125 60.0625 41.71875 63.234375 
Q 38.140625 66.40625 31.78125 66.40625 
Q 25.390625 66.40625 21.84375 63.234375 
Q 18.3125 60.0625 18.3125 54.390625 
z
" id="DejaVuSans-56"/>
      </defs>
      <g transform="translate(297.554452 254.356562)scale(0.1 -0.1)">
       <use xlink:href="#DejaVuSans-48"/>
       <use x="63.623047" xlink:href="#DejaVuSans-46"/>
       <use x="95.410156" xlink:href="#DejaVuSans-56"/>
      </g>
     </g>
    </g>
    <g id="xtick_6">
     <g id="line2d_6">
      <g>
       <use style="stroke:#000000;stroke-width:0.8;" x="365.542035" xlink:href="#m7d5d3bc7b0" y="239.758125"/>
      </g>
     </g>
     <g id="text_6">
      <!-- 1.0 -->
      <defs>
       <path d="M 12.40625 8.296875 
L 28.515625 8.296875 
L 28.515625 63.921875 
L 10.984375 60.40625 
L 10.984375 69.390625 
L 28.421875 72.90625 
L 38.28125 72.90625 
L 38.28125 8.296875 
L 54.390625 8.296875 
L 54.390625 0 
L 12.40625 0 
z
" id="DejaVuSans-49"/>
      </defs>
      <g transform="translate(357.590472 254.356562)scale(0.1 -0.1)">
       <use xlink:href="#DejaVuSans-49"/>
       <use x="63.623047" xlink:href="#DejaVuSans-46"/>
       <use x="95.410156" xlink:href="#DejaVuSans-48"/>
      </g>
     </g>
    </g>
    <g id="text_7">
     <!-- Time (ms) -->
     <defs>
      <path d="M -0.296875 72.90625 
L 61.375 72.90625 
L 61.375 64.59375 
L 35.5 64.59375 
L 35.5 0 
L 25.59375 0 
L 25.59375 64.59375 
L -0.296875 64.59375 
z
" id="DejaVuSans-84"/>
      <path d="M 9.421875 54.6875 
L 18.40625 54.6875 
L 18.40625 0 
L 9.421875 0 
z
M 9.421875 75.984375 
L 18.40625 75.984375 
L 18.40625 64.59375 
L 9.421875 64.59375 
z
" id="DejaVuSans-105"/>
      <path d="M 52 44.1875 
Q 55.375 50.25 60.0625 53.125 
Q 64.75 56 71.09375 56 
Q 79.640625 56 84.28125 50.015625 
Q 88.921875 44.046875 88.921875 33.015625 
L 88.921875 0 
L 79.890625 0 
L 79.890625 32.71875 
Q 79.890625 40.578125 77.09375 44.375 
Q 74.3125 48.1875 68.609375 48.1875 
Q 61.625 48.1875 57.5625 43.546875 
Q 53.515625 38.921875 53.515625 30.90625 
L 53.515625 0 
L 44.484375 0 
L 44.484375 32.71875 
Q 44.484375 40.625 41.703125 44.40625 
Q 38.921875 48.1875 33.109375 48.1875 
Q 26.21875 48.1875 22.15625 43.53125 
Q 18.109375 38.875 18.109375 30.90625 
L 18.109375 0 
L 9.078125 0 
L 9.078125 54.6875 
L 18.109375 54.6875 
L 18.109375 46.1875 
Q 21.1875 51.21875 25.484375 53.609375 
Q 29.78125 56 35.6875 56 
Q 41.65625 56 45.828125 52.96875 
Q 50 49.953125 52 44.1875 
z
" id="DejaVuSans-109"/>
      <path d="M 56.203125 29.59375 
L 56.203125 25.203125 
L 14.890625 25.203125 
Q 15.484375 15.921875 20.484375 11.0625 
Q 25.484375 6.203125 34.421875 6.203125 
Q 39.59375 6.203125 44.453125 7.46875 
Q 49.3125 8.734375 54.109375 11.28125 
L 54.109375 2.78125 
Q 49.265625 0.734375 44.1875 -0.34375 
Q 39.109375 -1.421875 33.890625 -1.421875 
Q 20.796875 -1.421875 13.15625 6.1875 
Q 5.515625 13.8125 5.515625 26.8125 
Q 5.515625 40.234375 12.765625 48.109375 
Q 20.015625 56 32.328125 56 
Q 43.359375 56 49.78125 48.890625 
Q 56.203125 41.796875 56.203125 29.59375 
z
M 47.21875 32.234375 
Q 47.125 39.59375 43.09375 43.984375 
Q 39.0625 48.390625 32.421875 48.390625 
Q 24.90625 48.390625 20.390625 44.140625 
Q 15.875 39.890625 15.1875 32.171875 
z
" id="DejaVuSans-101"/>
      <path id="DejaVuSans-32"/>
      <path d="M 31 75.875 
Q 24.46875 64.65625 21.28125 53.65625 
Q 18.109375 42.671875 18.109375 31.390625 
Q 18.109375 20.125 21.3125 9.0625 
Q 24.515625 -2 31 -13.1875 
L 23.1875 -13.1875 
Q 15.875 -1.703125 12.234375 9.375 
Q 8.59375 20.453125 8.59375 31.390625 
Q 8.59375 42.28125 12.203125 53.3125 
Q 15.828125 64.359375 23.1875 75.875 
z
" id="DejaVuSans-40"/>
      <path d="M 44.28125 53.078125 
L 44.28125 44.578125 
Q 40.484375 46.53125 36.375 47.5 
Q 32.28125 48.484375 27.875 48.484375 
Q 21.1875 48.484375 17.84375 46.4375 
Q 14.5 44.390625 14.5 40.28125 
Q 14.5 37.15625 16.890625 35.375 
Q 19.28125 33.59375 26.515625 31.984375 
L 29.59375 31.296875 
Q 39.15625 29.25 43.1875 25.515625 
Q 47.21875 21.78125 47.21875 15.09375 
Q 47.21875 7.46875 41.1875 3.015625 
Q 35.15625 -1.421875 24.609375 -1.421875 
Q 20.21875 -1.421875 15.453125 -0.5625 
Q 10.6875 0.296875 5.421875 2 
L 5.421875 11.28125 
Q 10.40625 8.6875 15.234375 7.390625 
Q 20.0625 6.109375 24.8125 6.109375 
Q 31.15625 6.109375 34.5625 8.28125 
Q 37.984375 10.453125 37.984375 14.40625 
Q 37.984375 18.0625 35.515625 20.015625 
Q 33.0625 21.96875 24.703125 23.78125 
L 21.578125 24.515625 
Q 13.234375 26.265625 9.515625 29.90625 
Q 5.8125 33.546875 5.8125 39.890625 
Q 5.8125 47.609375 11.28125 51.796875 
Q 16.75 56 26.8125 56 
Q 31.78125 56 36.171875 55.265625 
Q 40.578125 54.546875 44.28125 53.078125 
z
" id="DejaVuSans-115"/>
      <path d="M 8.015625 75.875 
L 15.828125 75.875 
Q 23.140625 64.359375 26.78125 53.3125 
Q 30.421875 42.28125 30.421875 31.390625 
Q 30.421875 20.453125 26.78125 9.375 
Q 23.140625 -1.703125 15.828125 -13.1875 
L 8.015625 -13.1875 
Q 14.5 -2 17.703125 9.0625 
Q 20.90625 20.125 20.90625 31.390625 
Q 20.90625 42.671875 17.703125 53.65625 
Q 14.5 64.65625 8.015625 75.875 
z
" id="DejaVuSans-41"/>
     </defs>
     <g transform="translate(192.190625 268.034687)scale(0.1 -0.1)">
      <use xlink:href="#DejaVuSans-84"/>
      <use x="61.037109" xlink:href="#DejaVuSans-105"/>
      <use x="88.820312" xlink:href="#DejaVuSans-109"/>
      <use x="186.232422" xlink:href="#DejaVuSans-101"/>
      <use x="247.755859" xlink:href="#DejaVuSans-32"/>
      <use x="279.542969" xlink:href="#DejaVuSans-40"/>
      <use x="318.556641" xlink:href="#DejaVuSans-109"/>
      <use x="415.96875" xlink:href="#DejaVuSans-115"/>
      <use x="468.068359" xlink:href="#DejaVuSans-41"/>
     </g>
    </g>
   </g>
   <g id="matplotlib.axis_2">
    <g id="ytick_1">
     <g id="line2d_7">
      <defs>
       <path d="M 0 0 
L -3.5 0 
" id="me8099d0e0e" style="stroke:#000000;stroke-width:0.8;"/>
      </defs>
      <g>
       <use style="stroke:#000000;stroke-width:0.8;" x="50.14375" xlink:href="#me8099d0e0e" y="218.270239"/>
      </g>
     </g>
     <g id="text_8">
      <!-- 0.02 -->
      <g transform="translate(20.878125 222.069458)scale(0.1 -0.1)">
       <use xlink:href="#DejaVuSans-48"/>
       <use x="63.623047" xlink:href="#DejaVuSans-46"/>
       <use x="95.410156" xlink:href="#DejaVuSans-48"/>
       <use x="159.033203" xlink:href="#DejaVuSans-50"/>
      </g>
     </g>
    </g>
    <g id="ytick_2">
     <g id="line2d_8">
      <g>
       <use style="stroke:#000000;stroke-width:0.8;" x="50.14375" xlink:href="#me8099d0e0e" y="186.425551"/>
      </g>
     </g>
     <g id="text_9">
      <!-- 0.04 -->
      <g transform="translate(20.878125 190.22477)scale(0.1 -0.1)">
       <use xlink:href="#DejaVuSans-48"/>
       <use x="63.623047" xlink:href="#DejaVuSans-46"/>
       <use x="95.410156" xlink:href="#DejaVuSans-48"/>
       <use x="159.033203" xlink:href="#DejaVuSans-52"/>
      </g>
     </g>
    </g>
    <g id="ytick_3">
     <g id="line2d_9">
      <g>
       <use style="stroke:#000000;stroke-width:0.8;" x="50.14375" xlink:href="#me8099d0e0e" y="154.580863"/>
      </g>
     </g>
     <g id="text_10">
      <!-- 0.06 -->
      <g transform="translate(20.878125 158.380082)scale(0.1 -0.1)">
       <use xlink:href="#DejaVuSans-48"/>
       <use x="63.623047" xlink:href="#DejaVuSans-46"/>
       <use x="95.410156" xlink:href="#DejaVuSans-48"/>
       <use x="159.033203" xlink:href="#DejaVuSans-54"/>
      </g>
     </g>
    </g>
    <g id="ytick_4">
     <g id="line2d_10">
      <g>
       <use style="stroke:#000000;stroke-width:0.8;" x="50.14375" xlink:href="#me8099d0e0e" y="122.736175"/>
      </g>
     </g>
     <g id="text_11">
      <!-- 0.08 -->
      <g transform="translate(20.878125 126.535394)scale(0.1 -0.1)">
       <use xlink:href="#DejaVuSans-48"/>
       <use x="63.623047" xlink:href="#DejaVuSans-46"/>
       <use x="95.410156" xlink:href="#DejaVuSans-48"/>
       <use x="159.033203" xlink:href="#DejaVuSans-56"/>
      </g>
     </g>
    </g>
    <g id="ytick_5">
     <g id="line2d_11">
      <g>
       <use style="stroke:#000000;stroke-width:0.8;" x="50.14375" xlink:href="#me8099d0e0e" y="90.891488"/>
      </g>
     </g>
     <g id="text_12">
      <!-- 0.10 -->
      <g transform="translate(20.878125 94.690706)scale(0.1 -0.1)">
       <use xlink:href="#DejaVuSans-48"/>
       <use x="63.623047" xlink:href="#DejaVuSans-46"/>
       <use x="95.410156" xlink:href="#DejaVuSans-49"/>
       <use x="159.033203" xlink:href="#DejaVuSans-48"/>
      </g>
     </g>
    </g>
    <g id="ytick_6">
     <g id="line2d_12">
      <g>
       <use style="stroke:#000000;stroke-width:0.8;" x="50.14375" xlink:href="#me8099d0e0e" y="59.0468"/>
      </g>
     </g>
     <g id="text_13">
      <!-- 0.12 -->
      <g transform="translate(20.878125 62.846018)scale(0.1 -0.1)">
       <use xlink:href="#DejaVuSans-48"/>
       <use x="63.623047" xlink:href="#DejaVuSans-46"/>
       <use x="95.410156" xlink:href="#DejaVuSans-49"/>
       <use x="159.033203" xlink:href="#DejaVuSans-50"/>
      </g>
     </g>
    </g>
    <g id="ytick_7">
     <g id="line2d_13">
      <g>
       <use style="stroke:#000000;stroke-width:0.8;" x="50.14375" xlink:href="#me8099d0e0e" y="27.202112"/>
      </g>
     </g>
     <g id="text_14">
      <!-- 0.14 -->
      <g transform="translate(20.878125 31.00133)scale(0.1 -0.1)">
       <use xlink:href="#DejaVuSans-48"/>
       <use x="63.623047" xlink:href="#DejaVuSans-46"/>
       <use x="95.410156" xlink:href="#DejaVuSans-49"/>
       <use x="159.033203" xlink:href="#DejaVuSans-52"/>
      </g>
     </g>
    </g>
    <g id="text_15">
     <!-- Absorbance227 -->
     <defs>
      <path d="M 34.1875 63.1875 
L 20.796875 26.90625 
L 47.609375 26.90625 
z
M 28.609375 72.90625 
L 39.796875 72.90625 
L 67.578125 0 
L 57.328125 0 
L 50.6875 18.703125 
L 17.828125 18.703125 
L 11.1875 0 
L 0.78125 0 
z
" id="DejaVuSans-65"/>
      <path d="M 48.6875 27.296875 
Q 48.6875 37.203125 44.609375 42.84375 
Q 40.53125 48.484375 33.40625 48.484375 
Q 26.265625 48.484375 22.1875 42.84375 
Q 18.109375 37.203125 18.109375 27.296875 
Q 18.109375 17.390625 22.1875 11.75 
Q 26.265625 6.109375 33.40625 6.109375 
Q 40.53125 6.109375 44.609375 11.75 
Q 48.6875 17.390625 48.6875 27.296875 
z
M 18.109375 46.390625 
Q 20.953125 51.265625 25.265625 53.625 
Q 29.59375 56 35.59375 56 
Q 45.5625 56 51.78125 48.09375 
Q 58.015625 40.1875 58.015625 27.296875 
Q 58.015625 14.40625 51.78125 6.484375 
Q 45.5625 -1.421875 35.59375 -1.421875 
Q 29.59375 -1.421875 25.265625 0.953125 
Q 20.953125 3.328125 18.109375 8.203125 
L 18.109375 0 
L 9.078125 0 
L 9.078125 75.984375 
L 18.109375 75.984375 
z
" id="DejaVuSans-98"/>
      <path d="M 30.609375 48.390625 
Q 23.390625 48.390625 19.1875 42.75 
Q 14.984375 37.109375 14.984375 27.296875 
Q 14.984375 17.484375 19.15625 11.84375 
Q 23.34375 6.203125 30.609375 6.203125 
Q 37.796875 6.203125 41.984375 11.859375 
Q 46.1875 17.53125 46.1875 27.296875 
Q 46.1875 37.015625 41.984375 42.703125 
Q 37.796875 48.390625 30.609375 48.390625 
z
M 30.609375 56 
Q 42.328125 56 49.015625 48.375 
Q 55.71875 40.765625 55.71875 27.296875 
Q 55.71875 13.875 49.015625 6.21875 
Q 42.328125 -1.421875 30.609375 -1.421875 
Q 18.84375 -1.421875 12.171875 6.21875 
Q 5.515625 13.875 5.515625 27.296875 
Q 5.515625 40.765625 12.171875 48.375 
Q 18.84375 56 30.609375 56 
z
" id="DejaVuSans-111"/>
      <path d="M 41.109375 46.296875 
Q 39.59375 47.171875 37.8125 47.578125 
Q 36.03125 48 33.890625 48 
Q 26.265625 48 22.1875 43.046875 
Q 18.109375 38.09375 18.109375 28.8125 
L 18.109375 0 
L 9.078125 0 
L 9.078125 54.6875 
L 18.109375 54.6875 
L 18.109375 46.1875 
Q 20.953125 51.171875 25.484375 53.578125 
Q 30.03125 56 36.53125 56 
Q 37.453125 56 38.578125 55.875 
Q 39.703125 55.765625 41.0625 55.515625 
z
" id="DejaVuSans-114"/>
      <path d="M 34.28125 27.484375 
Q 23.390625 27.484375 19.1875 25 
Q 14.984375 22.515625 14.984375 16.5 
Q 14.984375 11.71875 18.140625 8.90625 
Q 21.296875 6.109375 26.703125 6.109375 
Q 34.1875 6.109375 38.703125 11.40625 
Q 43.21875 16.703125 43.21875 25.484375 
L 43.21875 27.484375 
z
M 52.203125 31.203125 
L 52.203125 0 
L 43.21875 0 
L 43.21875 8.296875 
Q 40.140625 3.328125 35.546875 0.953125 
Q 30.953125 -1.421875 24.3125 -1.421875 
Q 15.921875 -1.421875 10.953125 3.296875 
Q 6 8.015625 6 15.921875 
Q 6 25.140625 12.171875 29.828125 
Q 18.359375 34.515625 30.609375 34.515625 
L 43.21875 34.515625 
L 43.21875 35.40625 
Q 43.21875 41.609375 39.140625 45 
Q 35.0625 48.390625 27.6875 48.390625 
Q 23 48.390625 18.546875 47.265625 
Q 14.109375 46.140625 10.015625 43.890625 
L 10.015625 52.203125 
Q 14.9375 54.109375 19.578125 55.046875 
Q 24.21875 56 28.609375 56 
Q 40.484375 56 46.34375 49.84375 
Q 52.203125 43.703125 52.203125 31.203125 
z
" id="DejaVuSans-97"/>
      <path d="M 54.890625 33.015625 
L 54.890625 0 
L 45.90625 0 
L 45.90625 32.71875 
Q 45.90625 40.484375 42.875 44.328125 
Q 39.84375 48.1875 33.796875 48.1875 
Q 26.515625 48.1875 22.3125 43.546875 
Q 18.109375 38.921875 18.109375 30.90625 
L 18.109375 0 
L 9.078125 0 
L 9.078125 54.6875 
L 18.109375 54.6875 
L 18.109375 46.1875 
Q 21.34375 51.125 25.703125 53.5625 
Q 30.078125 56 35.796875 56 
Q 45.21875 56 50.046875 50.171875 
Q 54.890625 44.34375 54.890625 33.015625 
z
" id="DejaVuSans-110"/>
      <path d="M 48.78125 52.59375 
L 48.78125 44.1875 
Q 44.96875 46.296875 41.140625 47.34375 
Q 37.3125 48.390625 33.40625 48.390625 
Q 24.65625 48.390625 19.8125 42.84375 
Q 14.984375 37.3125 14.984375 27.296875 
Q 14.984375 17.28125 19.8125 11.734375 
Q 24.65625 6.203125 33.40625 6.203125 
Q 37.3125 6.203125 41.140625 7.25 
Q 44.96875 8.296875 48.78125 10.40625 
L 48.78125 2.09375 
Q 45.015625 0.34375 40.984375 -0.53125 
Q 36.96875 -1.421875 32.421875 -1.421875 
Q 20.0625 -1.421875 12.78125 6.34375 
Q 5.515625 14.109375 5.515625 27.296875 
Q 5.515625 40.671875 12.859375 48.328125 
Q 20.21875 56 33.015625 56 
Q 37.15625 56 41.109375 55.140625 
Q 45.0625 54.296875 48.78125 52.59375 
z
" id="DejaVuSans-99"/>
      <path d="M 8.203125 72.90625 
L 55.078125 72.90625 
L 55.078125 68.703125 
L 28.609375 0 
L 18.3125 0 
L 43.21875 64.59375 
L 8.203125 64.59375 
z
" id="DejaVuSans-55"/>
     </defs>
     <g transform="translate(14.798438 170.12875)rotate(-90)scale(0.1 -0.1)">
      <use xlink:href="#DejaVuSans-65"/>
      <use x="68.408203" xlink:href="#DejaVuSans-98"/>
      <use x="131.884766" xlink:href="#DejaVuSans-115"/>
      <use x="183.984375" xlink:href="#DejaVuSans-111"/>
      <use x="245.166016" xlink:href="#DejaVuSans-114"/>
      <use x="286.279297" xlink:href="#DejaVuSans-98"/>
      <use x="349.755859" xlink:href="#DejaVuSans-97"/>
      <use x="411.035156" xlink:href="#DejaVuSans-110"/>
      <use x="474.414062" xlink:href="#DejaVuSans-99"/>
      <use x="529.394531" xlink:href="#DejaVuSans-101"/>
      <use x="590.917969" xlink:href="#DejaVuSans-50"/>
      <use x="654.541016" xlink:href="#DejaVuSans-50"/>
      <use x="718.164062" xlink:href="#DejaVuSans-55"/>
     </g>
    </g>
   </g>
   <g id="line2d_14">
    <defs>
     <path d="M 0 3 
C 0.795609 3 1.55874 2.683901 2.12132 2.12132 
C 2.683901 1.55874 3 0.795609 3 0 
C 3 -0.795609 2.683901 -1.55874 2.12132 -2.12132 
C 1.55874 -2.683901 0.795609 -3 0 -3 
C -0.795609 -3 -1.55874 -2.683901 -2.12132 -2.12132 
C -2.683901 -1.55874 -3 -0.795609 -3 0 
C -3 0.795609 -2.683901 1.55874 -2.12132 2.12132 
C -1.55874 2.683901 -0.795609 3 0 3 
z
" id="ma3c0ae78af" style="stroke:#000000;"/>
    </defs>
    <g clip-path="url(#pb62246ca11)">
     <use style="stroke:#000000;" x="65.361932" xlink:href="#ma3c0ae78af" y="123.008288"/>
     <use style="stroke:#000000;" x="65.361942" xlink:href="#ma3c0ae78af" y="123.008288"/>
     <use style="stroke:#000000;" x="65.361974" xlink:href="#ma3c0ae78af" y="123.008288"/>
     <use style="stroke:#000000;" x="65.362007" xlink:href="#ma3c0ae78af" y="123.008288"/>
     <use style="stroke:#000000;" x="65.362039" xlink:href="#ma3c0ae78af" y="123.008288"/>
     <use style="stroke:#000000;" x="65.362072" xlink:href="#ma3c0ae78af" y="123.008448"/>
     <use style="stroke:#000000;" x="65.362142" xlink:href="#ma3c0ae78af" y="123.008448"/>
     <use style="stroke:#000000;" x="65.362271" xlink:href="#ma3c0ae78af" y="123.008448"/>
     <use style="stroke:#000000;" x="65.362499" xlink:href="#ma3c0ae78af" y="123.008607"/>
     <use style="stroke:#000000;" x="65.36291" xlink:href="#ma3c0ae78af" y="123.008766"/>
     <use style="stroke:#000000;" x="65.363835" xlink:href="#ma3c0ae78af" y="123.009244"/>
     <use style="stroke:#000000;" x="65.364757" xlink:href="#ma3c0ae78af" y="123.009721"/>
     <use style="stroke:#000000;" x="65.365684" xlink:href="#ma3c0ae78af" y="123.010199"/>
     <use style="stroke:#000000;" x="65.366615" xlink:href="#ma3c0ae78af" y="123.010677"/>
     <use style="stroke:#000000;" x="65.367515" xlink:href="#ma3c0ae78af" y="123.011154"/>
     <use style="stroke:#000000;" x="65.368806" xlink:href="#ma3c0ae78af" y="123.011791"/>
     <use style="stroke:#000000;" x="65.370097" xlink:href="#ma3c0ae78af" y="123.012269"/>
     <use style="stroke:#000000;" x="65.371387" xlink:href="#ma3c0ae78af" y="123.012906"/>
     <use style="stroke:#000000;" x="65.372678" xlink:href="#ma3c0ae78af" y="123.013543"/>
     <use style="stroke:#000000;" x="65.376671" xlink:href="#ma3c0ae78af" y="123.015294"/>
     <use style="stroke:#000000;" x="65.380633" xlink:href="#ma3c0ae78af" y="123.017046"/>
     <use style="stroke:#000000;" x="65.387177" xlink:href="#ma3c0ae78af" y="123.019593"/>
     <use style="stroke:#000000;" x="65.393751" xlink:href="#ma3c0ae78af" y="123.022141"/>
     <use style="stroke:#000000;" x="65.400355" xlink:href="#ma3c0ae78af" y="123.024211"/>
     <use style="stroke:#000000;" x="65.406659" xlink:href="#ma3c0ae78af" y="123.026281"/>
     <use style="stroke:#000000;" x="65.413263" xlink:href="#ma3c0ae78af" y="123.028032"/>
     <use style="stroke:#000000;" x="65.419867" xlink:href="#ma3c0ae78af" y="123.029465"/>
     <use style="stroke:#000000;" x="65.426471" xlink:href="#ma3c0ae78af" y="123.030739"/>
     <use style="stroke:#000000;" x="65.439979" xlink:href="#ma3c0ae78af" y="123.032809"/>
     <use style="stroke:#000000;" x="65.453487" xlink:href="#ma3c0ae78af" y="123.033923"/>
     <use style="stroke:#000000;" x="65.466695" xlink:href="#ma3c0ae78af" y="123.034242"/>
     <use style="stroke:#000000;" x="65.480203" xlink:href="#ma3c0ae78af" y="123.033605"/>
     <use style="stroke:#000000;" x="65.493711" xlink:href="#ma3c0ae78af" y="123.032013"/>
     <use style="stroke:#000000;" x="65.507219" xlink:href="#ma3c0ae78af" y="123.029624"/>
     <use style="stroke:#000000;" x="65.529432" xlink:href="#ma3c0ae78af" y="123.023733"/>
     <use style="stroke:#000000;" x="65.551646" xlink:href="#ma3c0ae78af" y="123.015613"/>
     <use style="stroke:#000000;" x="65.573859" xlink:href="#ma3c0ae78af" y="123.005104"/>
     <use style="stroke:#000000;" x="65.596072" xlink:href="#ma3c0ae78af" y="122.992525"/>
     <use style="stroke:#000000;" x="65.618286" xlink:href="#ma3c0ae78af" y="122.977558"/>
     <use style="stroke:#000000;" x="65.662112" xlink:href="#ma3c0ae78af" y="122.940937"/>
     <use style="stroke:#000000;" x="65.707139" xlink:href="#ma3c0ae78af" y="122.895877"/>
     <use style="stroke:#000000;" x="65.752166" xlink:href="#ma3c0ae78af" y="122.842378"/>
     <use style="stroke:#000000;" x="65.797193" xlink:href="#ma3c0ae78af" y="122.780917"/>
     <use style="stroke:#000000;" x="65.84222" xlink:href="#ma3c0ae78af" y="122.711655"/>
     <use style="stroke:#000000;" x="65.887247" xlink:href="#ma3c0ae78af" y="122.63475"/>
     <use style="stroke:#000000;" x="65.932274" xlink:href="#ma3c0ae78af" y="122.55068"/>
     <use style="stroke:#000000;" x="65.977301" xlink:href="#ma3c0ae78af" y="122.459445"/>
     <use style="stroke:#000000;" x="66.022328" xlink:href="#ma3c0ae78af" y="122.361204"/>
     <use style="stroke:#000000;" x="66.067355" xlink:href="#ma3c0ae78af" y="122.256435"/>
     <use style="stroke:#000000;" x="66.10938" xlink:href="#ma3c0ae78af" y="122.145297"/>
     <use style="stroke:#000000;" x="66.154407" xlink:href="#ma3c0ae78af" y="122.02779"/>
     <use style="stroke:#000000;" x="66.199434" xlink:href="#ma3c0ae78af" y="121.904233"/>
     <use style="stroke:#000000;" x="66.244461" xlink:href="#ma3c0ae78af" y="121.774944"/>
     <use style="stroke:#000000;" x="66.289488" xlink:href="#ma3c0ae78af" y="121.639922"/>
     <use style="stroke:#000000;" x="66.334515" xlink:href="#ma3c0ae78af" y="121.499487"/>
     <use style="stroke:#000000;" x="66.379542" xlink:href="#ma3c0ae78af" y="121.353798"/>
     <use style="stroke:#000000;" x="66.424569" xlink:href="#ma3c0ae78af" y="121.202854"/>
     <use style="stroke:#000000;" x="66.469596" xlink:href="#ma3c0ae78af" y="121.047133"/>
     <use style="stroke:#000000;" x="66.514623" xlink:href="#ma3c0ae78af" y="120.886477"/>
     <use style="stroke:#000000;" x="66.556649" xlink:href="#ma3c0ae78af" y="120.721362"/>
     <use style="stroke:#000000;" x="66.601676" xlink:href="#ma3c0ae78af" y="120.551789"/>
     <use style="stroke:#000000;" x="66.646703" xlink:href="#ma3c0ae78af" y="120.377917"/>
     <use style="stroke:#000000;" x="66.69173" xlink:href="#ma3c0ae78af" y="120.199746"/>
     <use style="stroke:#000000;" x="66.736757" xlink:href="#ma3c0ae78af" y="120.017754"/>
     <use style="stroke:#000000;" x="66.781784" xlink:href="#ma3c0ae78af" y="119.831781"/>
     <use style="stroke:#000000;" x="66.850825" xlink:href="#ma3c0ae78af" y="119.544223"/>
     <use style="stroke:#000000;" x="66.916865" xlink:href="#ma3c0ae78af" y="119.248545"/>
     <use style="stroke:#000000;" x="66.982904" xlink:href="#ma3c0ae78af" y="118.945384"/>
     <use style="stroke:#000000;" x="67.051946" xlink:href="#ma3c0ae78af" y="118.635057"/>
     <use style="stroke:#000000;" x="67.117985" xlink:href="#ma3c0ae78af" y="118.317884"/>
     <use style="stroke:#000000;" x="67.187027" xlink:href="#ma3c0ae78af" y="117.994342"/>
     <use style="stroke:#000000;" x="67.253066" xlink:href="#ma3c0ae78af" y="117.66475"/>
     <use style="stroke:#000000;" x="67.322108" xlink:href="#ma3c0ae78af" y="117.329425"/>
     <use style="stroke:#000000;" x="67.388148" xlink:href="#ma3c0ae78af" y="116.988846"/>
     <use style="stroke:#000000;" x="67.457189" xlink:href="#ma3c0ae78af" y="116.643331"/>
     <use style="stroke:#000000;" x="67.523229" xlink:href="#ma3c0ae78af" y="116.29304"/>
     <use style="stroke:#000000;" x="67.59227" xlink:href="#ma3c0ae78af" y="115.93829"/>
     <use style="stroke:#000000;" x="67.65831" xlink:href="#ma3c0ae78af" y="115.57956"/>
     <use style="stroke:#000000;" x="67.727351" xlink:href="#ma3c0ae78af" y="115.216849"/>
     <use style="stroke:#000000;" x="67.793391" xlink:href="#ma3c0ae78af" y="114.850635"/>
     <use style="stroke:#000000;" x="67.862432" xlink:href="#ma3c0ae78af" y="114.481077"/>
     <use style="stroke:#000000;" x="67.928472" xlink:href="#ma3c0ae78af" y="114.108335"/>
     <use style="stroke:#000000;" x="67.997513" xlink:href="#ma3c0ae78af" y="113.732886"/>
     <use style="stroke:#000000;" x="68.063553" xlink:href="#ma3c0ae78af" y="113.354571"/>
     <use style="stroke:#000000;" x="68.132594" xlink:href="#ma3c0ae78af" y="112.974027"/>
     <use style="stroke:#000000;" x="68.198634" xlink:href="#ma3c0ae78af" y="112.591095"/>
     <use style="stroke:#000000;" x="68.267675" xlink:href="#ma3c0ae78af" y="112.206252"/>
     <use style="stroke:#000000;" x="68.333715" xlink:href="#ma3c0ae78af" y="111.819498"/>
     <use style="stroke:#000000;" x="68.393751" xlink:href="#ma3c0ae78af" y="111.430993"/>
     <use style="stroke:#000000;" x="68.483805" xlink:href="#ma3c0ae78af" y="111.040895"/>
     <use style="stroke:#000000;" x="68.543841" xlink:href="#ma3c0ae78af" y="110.649683"/>
     <use style="stroke:#000000;" x="68.603877" xlink:href="#ma3c0ae78af" y="110.257038"/>
     <use style="stroke:#000000;" x="68.663913" xlink:href="#ma3c0ae78af" y="109.863438"/>
     <use style="stroke:#000000;" x="68.753967" xlink:href="#ma3c0ae78af" y="109.468882"/>
     <use style="stroke:#000000;" x="68.814003" xlink:href="#ma3c0ae78af" y="109.073531"/>
     <use style="stroke:#000000;" x="68.874039" xlink:href="#ma3c0ae78af" y="108.677542"/>
     <use style="stroke:#000000;" x="68.934075" xlink:href="#ma3c0ae78af" y="108.281076"/>
     <use style="stroke:#000000;" x="69.024129" xlink:href="#ma3c0ae78af" y="107.884131"/>
     <use style="stroke:#000000;" x="69.084165" xlink:href="#ma3c0ae78af" y="107.486869"/>
     <use style="stroke:#000000;" x="69.144201" xlink:href="#ma3c0ae78af" y="107.089288"/>
     <use style="stroke:#000000;" x="69.204237" xlink:href="#ma3c0ae78af" y="106.691707"/>
     <use style="stroke:#000000;" x="69.294291" xlink:href="#ma3c0ae78af" y="106.294126"/>
     <use style="stroke:#000000;" x="69.354327" xlink:href="#ma3c0ae78af" y="105.896705"/>
     <use style="stroke:#000000;" x="69.414363" xlink:href="#ma3c0ae78af" y="105.499442"/>
     <use style="stroke:#000000;" x="69.504417" xlink:href="#ma3c0ae78af" y="104.903628"/>
     <use style="stroke:#000000;" x="69.624489" xlink:href="#ma3c0ae78af" y="104.308769"/>
     <use style="stroke:#000000;" x="69.714543" xlink:href="#ma3c0ae78af" y="103.714866"/>
     <use style="stroke:#000000;" x="69.834615" xlink:href="#ma3c0ae78af" y="103.122555"/>
     <use style="stroke:#000000;" x="69.924669" xlink:href="#ma3c0ae78af" y="102.531517"/>
     <use style="stroke:#000000;" x="70.014723" xlink:href="#ma3c0ae78af" y="101.94239"/>
     <use style="stroke:#000000;" x="70.134795" xlink:href="#ma3c0ae78af" y="101.355174"/>
     <use style="stroke:#000000;" x="70.224849" xlink:href="#ma3c0ae78af" y="100.770187"/>
     <use style="stroke:#000000;" x="70.314904" xlink:href="#ma3c0ae78af" y="100.18743"/>
     <use style="stroke:#000000;" x="70.434976" xlink:href="#ma3c0ae78af" y="99.60706"/>
     <use style="stroke:#000000;" x="70.52503" xlink:href="#ma3c0ae78af" y="99.029238"/>
     <use style="stroke:#000000;" x="70.645102" xlink:href="#ma3c0ae78af" y="98.454123"/>
     <use style="stroke:#000000;" x="70.735156" xlink:href="#ma3c0ae78af" y="97.881874"/>
     <use style="stroke:#000000;" x="70.82521" xlink:href="#ma3c0ae78af" y="97.31265"/>
     <use style="stroke:#000000;" x="70.945282" xlink:href="#ma3c0ae78af" y="96.746293"/>
     <use style="stroke:#000000;" x="71.035336" xlink:href="#ma3c0ae78af" y="96.183279"/>
     <use style="stroke:#000000;" x="71.12539" xlink:href="#ma3c0ae78af" y="95.62329"/>
     <use style="stroke:#000000;" x="71.245462" xlink:href="#ma3c0ae78af" y="95.066645"/>
     <use style="stroke:#000000;" x="71.335516" xlink:href="#ma3c0ae78af" y="94.513343"/>
     <use style="stroke:#000000;" x="71.455588" xlink:href="#ma3c0ae78af" y="93.963545"/>
     <use style="stroke:#000000;" x="71.545642" xlink:href="#ma3c0ae78af" y="93.417249"/>
     <use style="stroke:#000000;" x="71.635696" xlink:href="#ma3c0ae78af" y="92.874615"/>
     <use style="stroke:#000000;" x="71.755768" xlink:href="#ma3c0ae78af" y="92.335326"/>
     <use style="stroke:#000000;" x="71.845822" xlink:href="#ma3c0ae78af" y="91.799857"/>
     <use style="stroke:#000000;" x="71.935876" xlink:href="#ma3c0ae78af" y="91.26821"/>
     <use style="stroke:#000000;" x="72.055948" xlink:href="#ma3c0ae78af" y="90.740225"/>
     <use style="stroke:#000000;" x="72.146002" xlink:href="#ma3c0ae78af" y="90.21638"/>
     <use style="stroke:#000000;" x="72.266074" xlink:href="#ma3c0ae78af" y="89.69572"/>
     <use style="stroke:#000000;" x="72.356128" xlink:href="#ma3c0ae78af" y="89.178243"/>
     <use style="stroke:#000000;" x="72.446182" xlink:href="#ma3c0ae78af" y="88.665544"/>
     <use style="stroke:#000000;" x="72.566254" xlink:href="#ma3c0ae78af" y="88.157621"/>
     <use style="stroke:#000000;" x="72.656308" xlink:href="#ma3c0ae78af" y="87.652883"/>
     <use style="stroke:#000000;" x="72.746362" xlink:href="#ma3c0ae78af" y="87.151329"/>
     <use style="stroke:#000000;" x="72.866434" xlink:href="#ma3c0ae78af" y="86.654552"/>
     <use style="stroke:#000000;" x="72.956488" xlink:href="#ma3c0ae78af" y="86.160959"/>
     <use style="stroke:#000000;" x="73.07656" xlink:href="#ma3c0ae78af" y="85.672143"/>
     <use style="stroke:#000000;" x="73.166614" xlink:href="#ma3c0ae78af" y="85.186512"/>
     <use style="stroke:#000000;" x="73.256669" xlink:href="#ma3c0ae78af" y="84.705657"/>
     <use style="stroke:#000000;" x="73.406759" xlink:href="#ma3c0ae78af" y="83.985967"/>
     <use style="stroke:#000000;" x="73.556849" xlink:href="#ma3c0ae78af" y="83.274238"/>
     <use style="stroke:#000000;" x="73.736957" xlink:href="#ma3c0ae78af" y="82.573655"/>
     <use style="stroke:#000000;" x="73.887047" xlink:href="#ma3c0ae78af" y="81.881033"/>
     <use style="stroke:#000000;" x="74.037137" xlink:href="#ma3c0ae78af" y="81.197965"/>
     <use style="stroke:#000000;" x="74.187227" xlink:href="#ma3c0ae78af" y="80.522857"/>
     <use style="stroke:#000000;" x="74.337317" xlink:href="#ma3c0ae78af" y="79.858895"/>
     <use style="stroke:#000000;" x="74.487407" xlink:href="#ma3c0ae78af" y="79.201303"/>
     <use style="stroke:#000000;" x="74.637497" xlink:href="#ma3c0ae78af" y="78.554855"/>
     <use style="stroke:#000000;" x="74.787587" xlink:href="#ma3c0ae78af" y="77.916369"/>
     <use style="stroke:#000000;" x="74.937677" xlink:href="#ma3c0ae78af" y="77.287437"/>
     <use style="stroke:#000000;" x="75.087767" xlink:href="#ma3c0ae78af" y="76.666465"/>
     <use style="stroke:#000000;" x="75.267875" xlink:href="#ma3c0ae78af" y="76.055047"/>
     <use style="stroke:#000000;" x="75.417965" xlink:href="#ma3c0ae78af" y="75.451591"/>
     <use style="stroke:#000000;" x="75.568055" xlink:href="#ma3c0ae78af" y="74.857687"/>
     <use style="stroke:#000000;" x="75.718145" xlink:href="#ma3c0ae78af" y="74.271745"/>
     <use style="stroke:#000000;" x="75.868235" xlink:href="#ma3c0ae78af" y="73.693764"/>
     <use style="stroke:#000000;" x="76.018325" xlink:href="#ma3c0ae78af" y="73.125336"/>
     <use style="stroke:#000000;" x="76.168416" xlink:href="#ma3c0ae78af" y="72.566462"/>
     <use style="stroke:#000000;" x="76.318506" xlink:href="#ma3c0ae78af" y="72.013957"/>
     <use style="stroke:#000000;" x="76.468596" xlink:href="#ma3c0ae78af" y="71.471005"/>
     <use style="stroke:#000000;" x="76.618686" xlink:href="#ma3c0ae78af" y="70.936014"/>
     <use style="stroke:#000000;" x="76.798794" xlink:href="#ma3c0ae78af" y="70.408984"/>
     <use style="stroke:#000000;" x="76.948884" xlink:href="#ma3c0ae78af" y="69.891508"/>
     <use style="stroke:#000000;" x="77.098974" xlink:href="#ma3c0ae78af" y="69.380401"/>
     <use style="stroke:#000000;" x="77.249064" xlink:href="#ma3c0ae78af" y="68.878847"/>
     <use style="stroke:#000000;" x="77.399154" xlink:href="#ma3c0ae78af" y="68.383662"/>
     <use style="stroke:#000000;" x="77.639298" xlink:href="#ma3c0ae78af" y="67.649642"/>
     <use style="stroke:#000000;" x="77.849424" xlink:href="#ma3c0ae78af" y="66.931544"/>
     <use style="stroke:#000000;" x="78.089568" xlink:href="#ma3c0ae78af" y="66.232553"/>
     <use style="stroke:#000000;" x="78.329712" xlink:href="#ma3c0ae78af" y="65.551077"/>
     <use style="stroke:#000000;" x="78.569856" xlink:href="#ma3c0ae78af" y="64.887115"/>
     <use style="stroke:#000000;" x="78.779982" xlink:href="#ma3c0ae78af" y="64.239076"/>
     <use style="stroke:#000000;" x="79.020127" xlink:href="#ma3c0ae78af" y="63.608551"/>
     <use style="stroke:#000000;" x="79.260271" xlink:href="#ma3c0ae78af" y="62.995541"/>
     <use style="stroke:#000000;" x="79.500415" xlink:href="#ma3c0ae78af" y="62.398453"/>
     <use style="stroke:#000000;" x="79.710541" xlink:href="#ma3c0ae78af" y="61.817287"/>
     <use style="stroke:#000000;" x="79.950685" xlink:href="#ma3c0ae78af" y="61.252044"/>
     <use style="stroke:#000000;" x="80.190829" xlink:href="#ma3c0ae78af" y="60.702723"/>
     <use style="stroke:#000000;" x="80.430973" xlink:href="#ma3c0ae78af" y="60.167733"/>
     <use style="stroke:#000000;" x="80.641099" xlink:href="#ma3c0ae78af" y="59.648664"/>
     <use style="stroke:#000000;" x="80.881243" xlink:href="#ma3c0ae78af" y="59.145518"/>
     <use style="stroke:#000000;" x="81.121387" xlink:href="#ma3c0ae78af" y="58.65511"/>
     <use style="stroke:#000000;" x="81.361531" xlink:href="#ma3c0ae78af" y="58.180624"/>
     <use style="stroke:#000000;" x="81.571657" xlink:href="#ma3c0ae78af" y="57.720468"/>
     <use style="stroke:#000000;" x="81.811801" xlink:href="#ma3c0ae78af" y="57.274643"/>
     <use style="stroke:#000000;" x="82.172018" xlink:href="#ma3c0ae78af" y="56.615458"/>
     <use style="stroke:#000000;" x="82.532234" xlink:href="#ma3c0ae78af" y="55.986525"/>
     <use style="stroke:#000000;" x="82.89245" xlink:href="#ma3c0ae78af" y="55.391029"/>
     <use style="stroke:#000000;" x="83.252666" xlink:href="#ma3c0ae78af" y="54.824194"/>
     <use style="stroke:#000000;" x="83.612882" xlink:href="#ma3c0ae78af" y="54.287611"/>
     <use style="stroke:#000000;" x="83.973098" xlink:href="#ma3c0ae78af" y="53.779688"/>
     <use style="stroke:#000000;" x="84.303296" xlink:href="#ma3c0ae78af" y="53.298833"/>
     <use style="stroke:#000000;" x="84.663512" xlink:href="#ma3c0ae78af" y="52.846639"/>
     <use style="stroke:#000000;" x="85.023729" xlink:href="#ma3c0ae78af" y="52.41992"/>
     <use style="stroke:#000000;" x="85.383945" xlink:href="#ma3c0ae78af" y="52.020269"/>
     <use style="stroke:#000000;" x="85.744161" xlink:href="#ma3c0ae78af" y="51.644502"/>
     <use style="stroke:#000000;" x="86.104377" xlink:href="#ma3c0ae78af" y="51.29421"/>
     <use style="stroke:#000000;" x="86.464593" xlink:href="#ma3c0ae78af" y="50.967802"/>
     <use style="stroke:#000000;" x="86.824809" xlink:href="#ma3c0ae78af" y="50.663686"/>
     <use style="stroke:#000000;" x="87.185025" xlink:href="#ma3c0ae78af" y="50.38186"/>
     <use style="stroke:#000000;" x="87.545241" xlink:href="#ma3c0ae78af" y="50.122326"/>
     <use style="stroke:#000000;" x="87.905458" xlink:href="#ma3c0ae78af" y="49.883491"/>
     <use style="stroke:#000000;" x="88.265674" xlink:href="#ma3c0ae78af" y="49.665355"/>
     <use style="stroke:#000000;" x="88.595872" xlink:href="#ma3c0ae78af" y="49.467917"/>
     <use style="stroke:#000000;" x="88.956088" xlink:href="#ma3c0ae78af" y="49.289587"/>
     <use style="stroke:#000000;" x="89.316304" xlink:href="#ma3c0ae78af" y="49.128772"/>
     <use style="stroke:#000000;" x="89.67652" xlink:href="#ma3c0ae78af" y="48.987063"/>
     <use style="stroke:#000000;" x="90.036736" xlink:href="#ma3c0ae78af" y="48.864461"/>
     <use style="stroke:#000000;" x="90.396952" xlink:href="#ma3c0ae78af" y="48.757781"/>
     <use style="stroke:#000000;" x="90.757169" xlink:href="#ma3c0ae78af" y="48.667024"/>
     <use style="stroke:#000000;" x="91.117385" xlink:href="#ma3c0ae78af" y="48.593781"/>
     <use style="stroke:#000000;" x="91.477601" xlink:href="#ma3c0ae78af" y="48.534868"/>
     <use style="stroke:#000000;" x="91.837817" xlink:href="#ma3c0ae78af" y="48.491878"/>
     <use style="stroke:#000000;" x="92.198033" xlink:href="#ma3c0ae78af" y="48.463218"/>
     <use style="stroke:#000000;" x="92.528231" xlink:href="#ma3c0ae78af" y="48.448887"/>
     <use style="stroke:#000000;" x="92.888447" xlink:href="#ma3c0ae78af" y="48.448887"/>
     <use style="stroke:#000000;" x="93.248663" xlink:href="#ma3c0ae78af" y="48.461625"/>
     <use style="stroke:#000000;" x="93.60888" xlink:href="#ma3c0ae78af" y="48.487101"/>
     <use style="stroke:#000000;" x="93.969096" xlink:href="#ma3c0ae78af" y="48.525315"/>
     <use style="stroke:#000000;" x="94.50942" xlink:href="#ma3c0ae78af" y="48.606519"/>
     <use style="stroke:#000000;" x="95.049744" xlink:href="#ma3c0ae78af" y="48.711606"/>
     <use style="stroke:#000000;" x="95.680122" xlink:href="#ma3c0ae78af" y="48.843762"/>
     <use style="stroke:#000000;" x="95.980302" xlink:href="#ma3c0ae78af" y="48.998208"/>
     <use style="stroke:#000000;" x="96.580663" xlink:href="#ma3c0ae78af" y="49.174946"/>
     <use style="stroke:#000000;" x="97.181023" xlink:href="#ma3c0ae78af" y="49.372383"/>
     <use style="stroke:#000000;" x="97.781383" xlink:href="#ma3c0ae78af" y="49.59052"/>
     <use style="stroke:#000000;" x="98.381743" xlink:href="#ma3c0ae78af" y="49.829355"/>
     <use style="stroke:#000000;" x="98.681923" xlink:href="#ma3c0ae78af" y="50.084112"/>
     <use style="stroke:#000000;" x="99.282283" xlink:href="#ma3c0ae78af" y="50.357977"/>
     <use style="stroke:#000000;" x="99.882644" xlink:href="#ma3c0ae78af" y="50.647763"/>
     <use style="stroke:#000000;" x="100.483004" xlink:href="#ma3c0ae78af" y="50.953472"/>
     <use style="stroke:#000000;" x="101.083364" xlink:href="#ma3c0ae78af" y="51.273511"/>
     <use style="stroke:#000000;" x="101.383544" xlink:href="#ma3c0ae78af" y="51.607881"/>
     <use style="stroke:#000000;" x="101.983904" xlink:href="#ma3c0ae78af" y="51.954988"/>
     <use style="stroke:#000000;" x="102.884445" xlink:href="#ma3c0ae78af" y="52.510677"/>
     <use style="stroke:#000000;" x="103.784985" xlink:href="#ma3c0ae78af" y="53.093435"/>
     <use style="stroke:#000000;" x="104.385345" xlink:href="#ma3c0ae78af" y="53.700077"/>
     <use style="stroke:#000000;" x="105.285886" xlink:href="#ma3c0ae78af" y="54.330601"/>
     <use style="stroke:#000000;" x="106.186426" xlink:href="#ma3c0ae78af" y="54.981825"/>
     <use style="stroke:#000000;" x="107.086966" xlink:href="#ma3c0ae78af" y="55.652156"/>
     <use style="stroke:#000000;" x="107.687326" xlink:href="#ma3c0ae78af" y="56.340001"/>
     <use style="stroke:#000000;" x="108.587867" xlink:href="#ma3c0ae78af" y="57.043769"/>
     <use style="stroke:#000000;" x="109.488407" xlink:href="#ma3c0ae78af" y="57.761866"/>
     <use style="stroke:#000000;" x="110.088767" xlink:href="#ma3c0ae78af" y="58.494294"/>
     <use style="stroke:#000000;" x="110.989307" xlink:href="#ma3c0ae78af" y="59.237868"/>
     <use style="stroke:#000000;" x="111.889848" xlink:href="#ma3c0ae78af" y="59.990995"/>
     <use style="stroke:#000000;" x="112.790388" xlink:href="#ma3c0ae78af" y="60.755267"/>
     <use style="stroke:#000000;" x="113.390748" xlink:href="#ma3c0ae78af" y="61.527501"/>
     <use style="stroke:#000000;" x="114.291289" xlink:href="#ma3c0ae78af" y="62.307696"/>
     <use style="stroke:#000000;" x="115.191829" xlink:href="#ma3c0ae78af" y="63.095852"/>
     <use style="stroke:#000000;" x="116.092369" xlink:href="#ma3c0ae78af" y="63.888784"/>
     <use style="stroke:#000000;" x="116.692729" xlink:href="#ma3c0ae78af" y="64.688086"/>
     <use style="stroke:#000000;" x="117.59327" xlink:href="#ma3c0ae78af" y="65.492164"/>
     <use style="stroke:#000000;" x="118.49381" xlink:href="#ma3c0ae78af" y="66.299427"/>
     <use style="stroke:#000000;" x="119.09417" xlink:href="#ma3c0ae78af" y="67.109875"/>
     <use style="stroke:#000000;" x="119.994711" xlink:href="#ma3c0ae78af" y="67.925099"/>
     <use style="stroke:#000000;" x="120.895251" xlink:href="#ma3c0ae78af" y="68.741915"/>
     <use style="stroke:#000000;" x="121.795791" xlink:href="#ma3c0ae78af" y="69.560323"/>
     <use style="stroke:#000000;" x="122.396151" xlink:href="#ma3c0ae78af" y="70.380324"/>
     <use style="stroke:#000000;" x="123.296692" xlink:href="#ma3c0ae78af" y="71.200325"/>
     <use style="stroke:#000000;" x="124.197232" xlink:href="#ma3c0ae78af" y="72.02351"/>
     <use style="stroke:#000000;" x="125.097772" xlink:href="#ma3c0ae78af" y="72.845103"/>
     <use style="stroke:#000000;" x="125.698133" xlink:href="#ma3c0ae78af" y="73.668288"/>
     <use style="stroke:#000000;" x="126.598673" xlink:href="#ma3c0ae78af" y="74.489881"/>
     <use style="stroke:#000000;" x="127.499213" xlink:href="#ma3c0ae78af" y="75.311474"/>
     <use style="stroke:#000000;" x="128.399753" xlink:href="#ma3c0ae78af" y="76.133067"/>
     <use style="stroke:#000000;" x="129.000114" xlink:href="#ma3c0ae78af" y="76.953068"/>
     <use style="stroke:#000000;" x="129.900654" xlink:href="#ma3c0ae78af" y="77.773068"/>
     <use style="stroke:#000000;" x="130.801194" xlink:href="#ma3c0ae78af" y="78.589885"/>
     <use style="stroke:#000000;" x="131.401555" xlink:href="#ma3c0ae78af" y="79.405109"/>
     <use style="stroke:#000000;" x="132.302095" xlink:href="#ma3c0ae78af" y="80.220333"/>
     <use style="stroke:#000000;" x="133.202635" xlink:href="#ma3c0ae78af" y="81.032372"/>
     <use style="stroke:#000000;" x="134.103175" xlink:href="#ma3c0ae78af" y="81.842819"/>
     <use style="stroke:#000000;" x="134.703536" xlink:href="#ma3c0ae78af" y="82.650082"/>
     <use style="stroke:#000000;" x="135.604076" xlink:href="#ma3c0ae78af" y="83.455753"/>
     <use style="stroke:#000000;" x="136.804796" xlink:href="#ma3c0ae78af" y="84.664259"/>
     <use style="stroke:#000000;" x="138.005517" xlink:href="#ma3c0ae78af" y="85.864804"/>
     <use style="stroke:#000000;" x="139.206237" xlink:href="#ma3c0ae78af" y="87.060572"/>
     <use style="stroke:#000000;" x="140.707138" xlink:href="#ma3c0ae78af" y="88.249971"/>
     <use style="stroke:#000000;" x="141.907858" xlink:href="#ma3c0ae78af" y="89.431409"/>
     <use style="stroke:#000000;" x="143.108579" xlink:href="#ma3c0ae78af" y="90.606478"/>
     <use style="stroke:#000000;" x="144.309299" xlink:href="#ma3c0ae78af" y="91.775496"/>
     <use style="stroke:#000000;" x="145.510019" xlink:href="#ma3c0ae78af" y="92.936713"/>
     <use style="stroke:#000000;" x="146.71074" xlink:href="#ma3c0ae78af" y="94.090446"/>
     <use style="stroke:#000000;" x="147.91146" xlink:href="#ma3c0ae78af" y="95.236854"/>
     <use style="stroke:#000000;" x="149.112181" xlink:href="#ma3c0ae78af" y="96.37562"/>
     <use style="stroke:#000000;" x="150.312901" xlink:href="#ma3c0ae78af" y="97.506903"/>
     <use style="stroke:#000000;" x="151.813802" xlink:href="#ma3c0ae78af" y="98.630384"/>
     <use style="stroke:#000000;" x="153.014522" xlink:href="#ma3c0ae78af" y="99.746062"/>
     <use style="stroke:#000000;" x="154.215242" xlink:href="#ma3c0ae78af" y="100.854098"/>
     <use style="stroke:#000000;" x="155.415963" xlink:href="#ma3c0ae78af" y="101.954332"/>
     <use style="stroke:#000000;" x="156.616683" xlink:href="#ma3c0ae78af" y="103.046764"/>
     <use style="stroke:#000000;" x="157.817404" xlink:href="#ma3c0ae78af" y="104.131235"/>
     <use style="stroke:#000000;" x="159.018124" xlink:href="#ma3c0ae78af" y="105.207904"/>
     <use style="stroke:#000000;" x="160.218844" xlink:href="#ma3c0ae78af" y="106.276771"/>
     <use style="stroke:#000000;" x="161.419565" xlink:href="#ma3c0ae78af" y="107.337836"/>
     <use style="stroke:#000000;" x="162.620285" xlink:href="#ma3c0ae78af" y="108.391099"/>
     <use style="stroke:#000000;" x="164.121186" xlink:href="#ma3c0ae78af" y="109.43656"/>
     <use style="stroke:#000000;" x="165.236355" xlink:href="#ma3c0ae78af" y="110.474219"/>
     <use style="stroke:#000000;" x="166.469795" xlink:href="#ma3c0ae78af" y="111.504076"/>
     <use style="stroke:#000000;" x="168.340217" xlink:href="#ma3c0ae78af" y="113.05141"/>
     <use style="stroke:#000000;" x="170.210639" xlink:href="#ma3c0ae78af" y="114.58091"/>
     <use style="stroke:#000000;" x="172.081362" xlink:href="#ma3c0ae78af" y="116.093055"/>
     <use style="stroke:#000000;" x="173.951784" xlink:href="#ma3c0ae78af" y="117.587845"/>
     <use style="stroke:#000000;" x="175.822206" xlink:href="#ma3c0ae78af" y="119.065438"/>
     <use style="stroke:#000000;" x="177.692929" xlink:href="#ma3c0ae78af" y="120.525836"/>
     <use style="stroke:#000000;" x="179.563351" xlink:href="#ma3c0ae78af" y="121.969355"/>
     <use style="stroke:#000000;" x="181.433773" xlink:href="#ma3c0ae78af" y="123.396316"/>
     <use style="stroke:#000000;" x="183.304495" xlink:href="#ma3c0ae78af" y="124.806558"/>
     <use style="stroke:#000000;" x="185.174918" xlink:href="#ma3c0ae78af" y="126.2004"/>
     <use style="stroke:#000000;" x="187.04534" xlink:href="#ma3c0ae78af" y="127.57816"/>
     <use style="stroke:#000000;" x="188.916062" xlink:href="#ma3c0ae78af" y="128.93968"/>
     <use style="stroke:#000000;" x="190.786484" xlink:href="#ma3c0ae78af" y="130.285596"/>
     <use style="stroke:#000000;" x="192.656907" xlink:href="#ma3c0ae78af" y="131.615589"/>
     <use style="stroke:#000000;" x="194.527329" xlink:href="#ma3c0ae78af" y="132.930297"/>
     <use style="stroke:#000000;" x="196.398051" xlink:href="#ma3c0ae78af" y="134.22956"/>
     <use style="stroke:#000000;" x="198.268474" xlink:href="#ma3c0ae78af" y="135.513697"/>
     <use style="stroke:#000000;" x="200.138896" xlink:href="#ma3c0ae78af" y="136.783027"/>
     <use style="stroke:#000000;" x="202.009618" xlink:href="#ma3c0ae78af" y="138.037389"/>
     <use style="stroke:#000000;" x="203.88004" xlink:href="#ma3c0ae78af" y="139.277262"/>
     <use style="stroke:#000000;" x="205.750463" xlink:href="#ma3c0ae78af" y="140.502645"/>
     <use style="stroke:#000000;" x="207.621185" xlink:href="#ma3c0ae78af" y="141.713858"/>
     <use style="stroke:#000000;" x="210.450983" xlink:href="#ma3c0ae78af" y="143.519452"/>
     <use style="stroke:#000000;" x="213.280781" xlink:href="#ma3c0ae78af" y="145.293519"/>
     <use style="stroke:#000000;" x="216.110879" xlink:href="#ma3c0ae78af" y="147.036538"/>
     <use style="stroke:#000000;" x="218.940677" xlink:href="#ma3c0ae78af" y="148.748986"/>
     <use style="stroke:#000000;" x="221.770775" xlink:href="#ma3c0ae78af" y="150.431501"/>
     <use style="stroke:#000000;" x="224.600572" xlink:href="#ma3c0ae78af" y="152.084558"/>
     <use style="stroke:#000000;" x="227.43037" xlink:href="#ma3c0ae78af" y="153.708956"/>
     <use style="stroke:#000000;" x="230.260468" xlink:href="#ma3c0ae78af" y="155.305012"/>
     <use style="stroke:#000000;" x="233.090266" xlink:href="#ma3c0ae78af" y="156.873203"/>
     <use style="stroke:#000000;" x="235.920064" xlink:href="#ma3c0ae78af" y="158.414168"/>
     <use style="stroke:#000000;" x="238.750162" xlink:href="#ma3c0ae78af" y="159.928383"/>
     <use style="stroke:#000000;" x="241.57996" xlink:href="#ma3c0ae78af" y="161.416326"/>
     <use style="stroke:#000000;" x="245.851222" xlink:href="#ma3c0ae78af" y="163.61345"/>
     <use style="stroke:#000000;" x="250.122485" xlink:href="#ma3c0ae78af" y="165.753413"/>
     <use style="stroke:#000000;" x="254.393748" xlink:href="#ma3c0ae78af" y="167.837966"/>
     <use style="stroke:#000000;" x="258.665011" xlink:href="#ma3c0ae78af" y="169.868384"/>
     <use style="stroke:#000000;" x="262.936273" xlink:href="#ma3c0ae78af" y="171.846257"/>
     <use style="stroke:#000000;" x="267.207536" xlink:href="#ma3c0ae78af" y="173.77302"/>
     <use style="stroke:#000000;" x="271.478799" xlink:href="#ma3c0ae78af" y="175.650264"/>
     <use style="stroke:#000000;" x="275.750061" xlink:href="#ma3c0ae78af" y="177.479105"/>
     <use style="stroke:#000000;" x="280.021324" xlink:href="#ma3c0ae78af" y="179.260974"/>
     <use style="stroke:#000000;" x="284.292587" xlink:href="#ma3c0ae78af" y="180.996987"/>
     <use style="stroke:#000000;" x="288.563849" xlink:href="#ma3c0ae78af" y="182.688577"/>
     <use style="stroke:#000000;" x="292.835112" xlink:href="#ma3c0ae78af" y="184.337017"/>
     <use style="stroke:#000000;" x="297.106375" xlink:href="#ma3c0ae78af" y="185.943264"/>
     <use style="stroke:#000000;" x="301.377637" xlink:href="#ma3c0ae78af" y="187.508589"/>
     <use style="stroke:#000000;" x="305.6489" xlink:href="#ma3c0ae78af" y="189.03395"/>
     <use style="stroke:#000000;" x="309.920163" xlink:href="#ma3c0ae78af" y="190.520619"/>
     <use style="stroke:#000000;" x="314.191425" xlink:href="#ma3c0ae78af" y="191.969552"/>
     <use style="stroke:#000000;" x="318.462688" xlink:href="#ma3c0ae78af" y="193.381705"/>
     <use style="stroke:#000000;" x="322.733951" xlink:href="#ma3c0ae78af" y="194.758192"/>
     <use style="stroke:#000000;" x="327.005214" xlink:href="#ma3c0ae78af" y="196.099808"/>
     <use style="stroke:#000000;" x="331.276476" xlink:href="#ma3c0ae78af" y="197.40751"/>
     <use style="stroke:#000000;" x="335.547739" xlink:href="#ma3c0ae78af" y="198.682253"/>
     <use style="stroke:#000000;" x="339.819002" xlink:href="#ma3c0ae78af" y="199.924992"/>
     <use style="stroke:#000000;" x="342.945978" xlink:href="#ma3c0ae78af" y="200.814892"/>
     <use style="stroke:#000000;" x="346.072954" xlink:href="#ma3c0ae78af" y="201.688392"/>
     <use style="stroke:#000000;" x="349.19993" xlink:href="#ma3c0ae78af" y="202.54581"/>
     <use style="stroke:#000000;" x="352.327206" xlink:href="#ma3c0ae78af" y="203.387465"/>
     <use style="stroke:#000000;" x="354.610076" xlink:href="#ma3c0ae78af" y="203.992196"/>
     <use style="stroke:#000000;" x="356.892946" xlink:href="#ma3c0ae78af" y="204.588647"/>
     <use style="stroke:#000000;" x="359.176116" xlink:href="#ma3c0ae78af" y="205.177137"/>
     <use style="stroke:#000000;" x="361.458985" xlink:href="#ma3c0ae78af" y="205.757824"/>
     <use style="stroke:#000000;" x="363.742155" xlink:href="#ma3c0ae78af" y="206.330551"/>
     <use style="stroke:#000000;" x="366.025325" xlink:href="#ma3c0ae78af" y="206.895635"/>
    </g>
   </g>
   <g id="line2d_15">
    <path clip-path="url(#pb62246ca11)" d="M 65.361932 127.434517 
L 65.603587 127.433559 
L 65.85768 127.211959 
L 66.196084 126.616705 
L 66.682009 125.27674 
L 67.410896 122.491946 
L 68.54472 117.097902 
L 73.167047 94.11942 
L 74.873829 87.132989 
L 76.521562 81.302392 
L 78.169294 76.301551 
L 79.641627 72.46846 
L 81.312409 68.770052 
L 82.98319 65.690228 
L 84.375508 63.546046 
L 86.078589 61.389468 
L 87.78167 59.690649 
L 89.484751 58.397144 
L 91.187832 57.462413 
L 92.503866 56.95951 
L 93.8199 56.628903 
L 95.793951 56.422143 
L 97.768003 56.520845 
L 99.742054 56.883763 
L 101.716105 57.474909 
L 103.690157 58.262881 
L 106.322225 59.57285 
L 109.309835 61.35542 
L 112.297445 63.388567 
L 116.280925 66.396791 
L 121.260275 70.496961 
L 127.235495 75.729183 
L 138.190065 85.702403 
L 153.104646 99.239008 
L 162.170872 107.187015 
L 171.751864 115.266737 
L 181.332857 122.987354 
L 190.913849 130.338188 
L 200.494841 137.32009 
L 209.84367 143.784052 
L 218.09517 149.211046 
L 226.033549 154.193616 
L 235.294992 159.721369 
L 244.005035 164.650435 
L 252.196333 169.0572 
L 261.451147 173.780623 
L 271.873706 178.790565 
L 282.296264 183.489539 
L 292.718823 187.894562 
L 303.141381 192.022065 
L 313.56394 195.88785 
L 323.986498 199.507058 
L 334.409057 202.894161 
L 344.831615 206.062957 
L 355.254174 209.026573 
L 365.988573 211.877535 
L 365.988573 211.877535 
" style="fill:none;stroke:#0000ff;stroke-linecap:square;stroke-width:1.5;"/>
   </g>
   <g id="line2d_16">
    <path clip-path="url(#pb62246ca11)" d="M 65.361932 129.353126 
L 65.648388 129.406866 
L 65.920569 129.246708 
L 66.308672 128.699389 
L 66.770452 127.622857 
L 67.416945 125.480036 
L 68.340506 121.46986 
L 69.687383 114.4417 
L 74.09902 90.672601 
L 75.790215 83.080936 
L 77.27001 77.351314 
L 78.749806 72.441094 
L 80.229601 68.286104 
L 81.709397 64.812002 
L 83.197664 61.929949 
L 84.474533 59.893084 
L 85.751401 58.216135 
L 87.028269 56.862867 
L 88.305137 55.800823 
L 89.582006 55.001009 
L 90.858874 54.437535 
L 92.309215 54.054962 
L 93.759555 53.917394 
L 95.209896 53.998186 
L 96.660237 54.27372 
L 98.381414 54.824614 
L 100.644266 55.86987 
L 102.907119 57.224806 
L 105.169971 58.838546 
L 108.187107 61.319352 
L 111.204243 64.099952 
L 114.975663 67.894575 
L 119.501367 72.779961 
L 125.973055 80.145435 
L 152.427254 110.732063 
L 160.357391 119.359197 
L 167.631156 126.932378 
L 174.346745 133.618939 
L 181.421394 140.339774 
L 187.663195 145.994507 
L 193.487097 151.041379 
L 199.310999 155.871387 
L 205.134902 160.489913 
L 210.958804 164.903021 
L 216.782706 169.117216 
L 222.606608 173.139274 
L 228.43051 176.976112 
L 237.166364 182.399309 
L 245.902217 187.444767 
L 254.63807 192.135345 
L 262.576388 196.10857 
L 271.034049 200.057398 
L 278.881488 203.474791 
L 285.584442 206.21683 
L 293.802241 209.369086 
L 302.020041 212.304436 
L 312.631079 215.796383 
L 321.728606 218.542261 
L 330.826132 221.076712 
L 341.58178 223.82146 
L 350.963043 226.010399 
L 360.344306 228.023567 
L 369.725568 229.874489 
L 369.725568 229.874489 
" style="fill:none;stroke:#ff0000;stroke-linecap:square;stroke-width:1.5;"/>
   </g>
   <g id="line2d_17">
    <path clip-path="url(#pb62246ca11)" d="M 65.361932 104.485071 
L 65.618286 104.517252 
L 65.887247 104.342974 
L 66.244461 103.828942 
L 66.736757 102.692501 
L 67.388148 100.599397 
L 68.333715 96.745863 
L 69.924669 89.167584 
L 73.406759 72.42177 
L 75.267875 64.621568 
L 76.948884 58.47454 
L 78.569856 53.335443 
L 80.190829 48.923416 
L 81.811801 45.187385 
L 83.252666 42.373146 
L 84.663512 40.044418 
L 86.104377 38.042302 
L 87.545241 36.407082 
L 88.956088 35.111687 
L 90.396952 34.073896 
L 91.477601 33.469289 
L 92.888447 32.86468 
L 94.50942 32.41564 
L 95.980302 32.228922 
L 97.781383 32.229069 
L 99.882644 32.520478 
L 101.983904 33.074508 
L 104.385345 33.979766 
L 107.086966 35.3032 
L 110.088767 37.073376 
L 113.390748 39.310594 
L 116.692729 41.792196 
L 120.895251 45.214239 
L 126.598673 50.196008 
L 134.103175 57.089827 
L 161.419565 82.496614 
L 170.210639 90.262132 
L 177.692929 96.633297 
L 185.174918 102.775623 
L 192.656907 108.684767 
L 200.138896 114.364288 
L 207.621185 119.818642 
L 216.110879 125.741308 
L 224.600572 131.402413 
L 233.090266 136.798247 
L 241.57996 141.955954 
L 250.122485 146.904916 
L 258.665011 151.618231 
L 267.207536 156.124445 
L 275.750061 160.430316 
L 284.292587 164.536682 
L 292.835112 168.459052 
L 301.377637 172.19891 
L 309.920163 175.774299 
L 318.462688 179.184361 
L 331.276476 184.016374 
L 342.945978 188.131201 
L 354.610076 191.991534 
L 366.025325 195.532104 
L 366.025325 195.532104 
" style="fill:none;stroke:#0000ff;stroke-dasharray:5.55,2.4;stroke-dashoffset:0;stroke-width:1.5;"/>
   </g>
   <g id="line2d_18">
    <path clip-path="url(#pb62246ca11)" d="M 65.361932 146.767417 
L 65.596072 146.744252 
L 65.84222 146.494256 
L 66.199434 145.783264 
L 66.736757 144.092685 
L 67.457189 141.020369 
L 68.753967 134.329968 
L 71.755768 118.67296 
L 73.406759 111.334006 
L 74.937677 105.467817 
L 76.468596 100.415095 
L 78.089568 95.852807 
L 79.710541 91.997883 
L 81.361531 88.698279 
L 82.89245 86.140984 
L 84.303296 84.163858 
L 85.744161 82.487074 
L 87.185025 81.116656 
L 88.595872 80.04113 
L 90.036736 79.196455 
L 91.477601 78.58366 
L 92.888447 78.188848 
L 94.50942 77.955424 
L 95.980302 77.929603 
L 97.781383 78.107745 
L 99.882644 78.584944 
L 101.983904 79.307082 
L 104.385345 80.384666 
L 107.086966 81.865929 
L 110.088767 83.773406 
L 113.390748 86.124319 
L 117.59327 89.395779 
L 123.296692 94.153162 
L 132.302095 102.025724 
L 149.112181 116.778935 
L 159.018124 125.152122 
L 168.340217 132.714504 
L 177.692929 139.969647 
L 185.174918 145.524676 
L 192.656907 150.858393 
L 202.009618 157.213382 
L 210.450983 162.659369 
L 218.940677 167.861438 
L 227.43037 172.792501 
L 235.920064 177.463897 
L 245.851222 182.609794 
L 254.393748 186.77637 
L 262.936273 190.706978 
L 271.478799 194.417002 
L 280.021324 197.908747 
L 288.563849 201.199353 
L 297.106375 204.296297 
L 305.6489 207.208455 
L 314.191425 209.950584 
L 322.733951 212.525153 
L 331.276476 214.94301 
L 342.945978 218.005219 
L 354.610076 220.815194 
L 366.025325 223.328145 
L 366.025325 223.328145 
" style="fill:none;stroke:#0000ff;stroke-dasharray:5.55,2.4;stroke-dashoffset:0;stroke-width:1.5;"/>
   </g>
   <g id="line2d_19"/>
   <g id="line2d_20"/>
   <g id="line2d_21"/>
   <g id="line2d_22"/>
   <g id="line2d_23"/>
   <g id="line2d_24"/>
   <g id="patch_3">
    <path d="M 50.14375 239.758125 
L 50.14375 22.318125 
" style="fill:none;stroke:#000000;stroke-linecap:square;stroke-linejoin:miter;stroke-width:0.8;"/>
   </g>
   <g id="patch_4">
    <path d="M 384.94375 239.758125 
L 384.94375 22.318125 
" style="fill:none;stroke:#000000;stroke-linecap:square;stroke-linejoin:miter;stroke-width:0.8;"/>
   </g>
   <g id="patch_5">
    <path d="M 50.14375 239.758125 
L 384.94375 239.758125 
" style="fill:none;stroke:#000000;stroke-linecap:square;stroke-linejoin:miter;stroke-width:0.8;"/>
   </g>
   <g id="patch_6">
    <path d="M 50.14375 22.318125 
L 384.94375 22.318125 
" style="fill:none;stroke:#000000;stroke-linecap:square;stroke-linejoin:miter;stroke-width:0.8;"/>
   </g>
   <g id="text_16">
    <!-- Experiment_12 -->
    <defs>
     <path d="M 9.8125 72.90625 
L 55.90625 72.90625 
L 55.90625 64.59375 
L 19.671875 64.59375 
L 19.671875 43.015625 
L 54.390625 43.015625 
L 54.390625 34.71875 
L 19.671875 34.71875 
L 19.671875 8.296875 
L 56.78125 8.296875 
L 56.78125 0 
L 9.8125 0 
z
" id="DejaVuSans-69"/>
     <path d="M 54.890625 54.6875 
L 35.109375 28.078125 
L 55.90625 0 
L 45.3125 0 
L 29.390625 21.484375 
L 13.484375 0 
L 2.875 0 
L 24.125 28.609375 
L 4.6875 54.6875 
L 15.28125 54.6875 
L 29.78125 35.203125 
L 44.28125 54.6875 
z
" id="DejaVuSans-120"/>
     <path d="M 18.109375 8.203125 
L 18.109375 -20.796875 
L 9.078125 -20.796875 
L 9.078125 54.6875 
L 18.109375 54.6875 
L 18.109375 46.390625 
Q 20.953125 51.265625 25.265625 53.625 
Q 29.59375 56 35.59375 56 
Q 45.5625 56 51.78125 48.09375 
Q 58.015625 40.1875 58.015625 27.296875 
Q 58.015625 14.40625 51.78125 6.484375 
Q 45.5625 -1.421875 35.59375 -1.421875 
Q 29.59375 -1.421875 25.265625 0.953125 
Q 20.953125 3.328125 18.109375 8.203125 
z
M 48.6875 27.296875 
Q 48.6875 37.203125 44.609375 42.84375 
Q 40.53125 48.484375 33.40625 48.484375 
Q 26.265625 48.484375 22.1875 42.84375 
Q 18.109375 37.203125 18.109375 27.296875 
Q 18.109375 17.390625 22.1875 11.75 
Q 26.265625 6.109375 33.40625 6.109375 
Q 40.53125 6.109375 44.609375 11.75 
Q 48.6875 17.390625 48.6875 27.296875 
z
" id="DejaVuSans-112"/>
     <path d="M 18.3125 70.21875 
L 18.3125 54.6875 
L 36.8125 54.6875 
L 36.8125 47.703125 
L 18.3125 47.703125 
L 18.3125 18.015625 
Q 18.3125 11.328125 20.140625 9.421875 
Q 21.96875 7.515625 27.59375 7.515625 
L 36.8125 7.515625 
L 36.8125 0 
L 27.59375 0 
Q 17.1875 0 13.234375 3.875 
Q 9.28125 7.765625 9.28125 18.015625 
L 9.28125 47.703125 
L 2.6875 47.703125 
L 2.6875 54.6875 
L 9.28125 54.6875 
L 9.28125 70.21875 
z
" id="DejaVuSans-116"/>
     <path d="M 50.984375 -16.609375 
L 50.984375 -23.578125 
L -0.984375 -23.578125 
L -0.984375 -16.609375 
z
" id="DejaVuSans-95"/>
    </defs>
    <g transform="translate(172.240938 16.318125)scale(0.12 -0.12)">
     <use xlink:href="#DejaVuSans-69"/>
     <use x="63.183594" xlink:href="#DejaVuSans-120"/>
     <use x="122.363281" xlink:href="#DejaVuSans-112"/>
     <use x="185.839844" xlink:href="#DejaVuSans-101"/>
     <use x="247.363281" xlink:href="#DejaVuSans-114"/>
     <use x="288.476562" xlink:href="#DejaVuSans-105"/>
     <use x="316.259766" xlink:href="#DejaVuSans-109"/>
     <use x="413.671875" xlink:href="#DejaVuSans-101"/>
     <use x="475.195312" xlink:href="#DejaVuSans-110"/>
     <use x="538.574219" xlink:href="#DejaVuSans-116"/>
     <use x="577.783203" xlink:href="#DejaVuSans-95"/>
     <use x="627.783203" xlink:href="#DejaVuSans-49"/>
     <use x="691.40625" xlink:href="#DejaVuSans-50"/>
    </g>
   </g>
   <g id="legend_1">
    <g id="patch_7">
     <path d="M 57.14375 234.758125 
L 313.264063 234.758125 
Q 315.264063 234.758125 315.264063 232.758125 
L 315.264063 160.345625 
Q 315.264063 158.345625 313.264063 158.345625 
L 57.14375 158.345625 
Q 55.14375 158.345625 55.14375 160.345625 
L 55.14375 232.758125 
Q 55.14375 234.758125 57.14375 234.758125 
z
" style="fill:#ffffff;opacity:0.8;stroke:#cccccc;stroke-linejoin:miter;"/>
    </g>
    <g id="line2d_25"/>
    <g id="line2d_26">
     <g>
      <use style="stroke:#000000;" x="69.14375" xlink:href="#ma3c0ae78af" y="166.444062"/>
     </g>
    </g>
    <g id="text_17">
     <!-- Experimental Data -->
     <defs>
      <path d="M 9.421875 75.984375 
L 18.40625 75.984375 
L 18.40625 0 
L 9.421875 0 
z
" id="DejaVuSans-108"/>
      <path d="M 19.671875 64.796875 
L 19.671875 8.109375 
L 31.59375 8.109375 
Q 46.6875 8.109375 53.6875 14.9375 
Q 60.6875 21.78125 60.6875 36.53125 
Q 60.6875 51.171875 53.6875 57.984375 
Q 46.6875 64.796875 31.59375 64.796875 
z
M 9.8125 72.90625 
L 30.078125 72.90625 
Q 51.265625 72.90625 61.171875 64.09375 
Q 71.09375 55.28125 71.09375 36.53125 
Q 71.09375 17.671875 61.125 8.828125 
Q 51.171875 0 30.078125 0 
L 9.8125 0 
z
" id="DejaVuSans-68"/>
     </defs>
     <g transform="translate(87.14375 169.944062)scale(0.1 -0.1)">
      <use xlink:href="#DejaVuSans-69"/>
      <use x="63.183594" xlink:href="#DejaVuSans-120"/>
      <use x="122.363281" xlink:href="#DejaVuSans-112"/>
      <use x="185.839844" xlink:href="#DejaVuSans-101"/>
      <use x="247.363281" xlink:href="#DejaVuSans-114"/>
      <use x="288.476562" xlink:href="#DejaVuSans-105"/>
      <use x="316.259766" xlink:href="#DejaVuSans-109"/>
      <use x="413.671875" xlink:href="#DejaVuSans-101"/>
      <use x="475.195312" xlink:href="#DejaVuSans-110"/>
      <use x="538.574219" xlink:href="#DejaVuSans-116"/>
      <use x="577.783203" xlink:href="#DejaVuSans-97"/>
      <use x="639.0625" xlink:href="#DejaVuSans-108"/>
      <use x="666.845703" xlink:href="#DejaVuSans-32"/>
      <use x="698.632812" xlink:href="#DejaVuSans-68"/>
      <use x="775.634766" xlink:href="#DejaVuSans-97"/>
      <use x="836.914062" xlink:href="#DejaVuSans-116"/>
      <use x="876.123047" xlink:href="#DejaVuSans-97"/>
     </g>
    </g>
    <g id="line2d_27">
     <path d="M 59.14375 181.122187 
L 79.14375 181.122187 
" style="fill:none;stroke:#0000ff;stroke-linecap:square;stroke-width:1.5;"/>
    </g>
    <g id="line2d_28"/>
    <g id="text_18">
     <!-- MSI -->
     <defs>
      <path d="M 9.8125 72.90625 
L 24.515625 72.90625 
L 43.109375 23.296875 
L 61.8125 72.90625 
L 76.515625 72.90625 
L 76.515625 0 
L 66.890625 0 
L 66.890625 64.015625 
L 48.09375 14.015625 
L 38.1875 14.015625 
L 19.390625 64.015625 
L 19.390625 0 
L 9.8125 0 
z
" id="DejaVuSans-77"/>
      <path d="M 53.515625 70.515625 
L 53.515625 60.890625 
Q 47.90625 63.578125 42.921875 64.890625 
Q 37.9375 66.21875 33.296875 66.21875 
Q 25.25 66.21875 20.875 63.09375 
Q 16.5 59.96875 16.5 54.203125 
Q 16.5 49.359375 19.40625 46.890625 
Q 22.3125 44.4375 30.421875 42.921875 
L 36.375 41.703125 
Q 47.40625 39.59375 52.65625 34.296875 
Q 57.90625 29 57.90625 20.125 
Q 57.90625 9.515625 50.796875 4.046875 
Q 43.703125 -1.421875 29.984375 -1.421875 
Q 24.8125 -1.421875 18.96875 -0.25 
Q 13.140625 0.921875 6.890625 3.21875 
L 6.890625 13.375 
Q 12.890625 10.015625 18.65625 8.296875 
Q 24.421875 6.59375 29.984375 6.59375 
Q 38.421875 6.59375 43.015625 9.90625 
Q 47.609375 13.234375 47.609375 19.390625 
Q 47.609375 24.75 44.3125 27.78125 
Q 41.015625 30.8125 33.5 32.328125 
L 27.484375 33.5 
Q 16.453125 35.6875 11.515625 40.375 
Q 6.59375 45.0625 6.59375 53.421875 
Q 6.59375 63.09375 13.40625 68.65625 
Q 20.21875 74.21875 32.171875 74.21875 
Q 37.3125 74.21875 42.625 73.28125 
Q 47.953125 72.359375 53.515625 70.515625 
z
" id="DejaVuSans-83"/>
      <path d="M 9.8125 72.90625 
L 19.671875 72.90625 
L 19.671875 0 
L 9.8125 0 
z
" id="DejaVuSans-73"/>
     </defs>
     <g transform="translate(87.14375 184.622187)scale(0.1 -0.1)">
      <use xlink:href="#DejaVuSans-77"/>
      <use x="86.279297" xlink:href="#DejaVuSans-83"/>
      <use x="149.755859" xlink:href="#DejaVuSans-73"/>
     </g>
    </g>
    <g id="line2d_29">
     <path d="M 59.14375 195.801875 
L 79.14375 195.801875 
" style="fill:none;stroke:#ff0000;stroke-linecap:square;stroke-width:1.5;"/>
    </g>
    <g id="line2d_30"/>
    <g id="text_19">
     <!-- $\it{A priori}$ model -->
     <defs>
      <path d="M 36.8125 72.90625 
L 48 72.90625 
L 61.53125 0 
L 51.21875 0 
L 48.1875 18.703125 
L 15.375 18.703125 
L 5.078125 0 
L -5.328125 0 
z
M 40.375 63.1875 
L 19.921875 26.90625 
L 46.6875 26.90625 
z
" id="DejaVuSans-Oblique-65"/>
      <path d="M 49.609375 33.6875 
Q 49.609375 40.875 46.484375 44.671875 
Q 43.359375 48.484375 37.5 48.484375 
Q 33.5 48.484375 29.859375 46.4375 
Q 26.21875 44.390625 23.390625 40.484375 
Q 20.609375 36.625 18.9375 31.15625 
Q 17.28125 25.6875 17.28125 20.3125 
Q 17.28125 13.484375 20.40625 9.796875 
Q 23.53125 6.109375 29.296875 6.109375 
Q 33.546875 6.109375 37.1875 8.109375 
Q 40.828125 10.109375 43.40625 13.921875 
Q 46.1875 17.921875 47.890625 23.34375 
Q 49.609375 28.765625 49.609375 33.6875 
z
M 21.78125 46.390625 
Q 25.390625 51.125 30.296875 53.5625 
Q 35.203125 56 41.21875 56 
Q 49.609375 56 54.25 50.5 
Q 58.890625 45.015625 58.890625 35.109375 
Q 58.890625 27 56 19.65625 
Q 53.125 12.3125 47.703125 6.5 
Q 44.09375 2.640625 39.546875 0.609375 
Q 35.015625 -1.421875 29.984375 -1.421875 
Q 24.171875 -1.421875 20.21875 1 
Q 16.265625 3.421875 14.3125 8.203125 
L 8.6875 -20.796875 
L -0.296875 -20.796875 
L 14.40625 54.6875 
L 23.390625 54.6875 
z
" id="DejaVuSans-Oblique-112"/>
      <path d="M 44.578125 46.390625 
Q 43.21875 47.125 41.453125 47.515625 
Q 39.703125 47.90625 37.703125 47.90625 
Q 30.515625 47.90625 25.140625 42.453125 
Q 19.78125 37.015625 18.015625 27.875 
L 12.5 0 
L 3.515625 0 
L 14.203125 54.6875 
L 23.1875 54.6875 
L 21.484375 46.1875 
Q 25.046875 50.921875 30 53.453125 
Q 34.96875 56 40.578125 56 
Q 42.046875 56 43.453125 55.828125 
Q 44.875 55.671875 46.296875 55.28125 
z
" id="DejaVuSans-Oblique-114"/>
      <path d="M 18.3125 75.984375 
L 27.296875 75.984375 
L 25.09375 64.59375 
L 16.109375 64.59375 
z
M 14.203125 54.6875 
L 23.1875 54.6875 
L 12.5 0 
L 3.515625 0 
z
" id="DejaVuSans-Oblique-105"/>
      <path d="M 25.390625 -1.421875 
Q 15.765625 -1.421875 10.171875 4.515625 
Q 4.59375 10.453125 4.59375 20.703125 
Q 4.59375 26.65625 6.515625 32.828125 
Q 8.453125 39.015625 11.53125 43.21875 
Q 16.359375 49.75 22.3125 52.875 
Q 28.265625 56 35.796875 56 
Q 45.125 56 50.859375 50.1875 
Q 56.59375 44.390625 56.59375 35.015625 
Q 56.59375 28.515625 54.6875 22.0625 
Q 52.78125 15.625 49.703125 11.375 
Q 44.921875 4.828125 38.96875 1.703125 
Q 33.015625 -1.421875 25.390625 -1.421875 
z
M 13.921875 21 
Q 13.921875 13.578125 17.015625 9.890625 
Q 20.125 6.203125 26.421875 6.203125 
Q 35.453125 6.203125 41.375 14.078125 
Q 47.3125 21.96875 47.3125 34.078125 
Q 47.3125 41.15625 44.140625 44.765625 
Q 40.96875 48.390625 34.8125 48.390625 
Q 29.734375 48.390625 25.78125 46.015625 
Q 21.828125 43.65625 18.703125 38.8125 
Q 16.40625 35.203125 15.15625 30.5625 
Q 13.921875 25.921875 13.921875 21 
z
" id="DejaVuSans-Oblique-111"/>
      <path d="M 45.40625 46.390625 
L 45.40625 75.984375 
L 54.390625 75.984375 
L 54.390625 0 
L 45.40625 0 
L 45.40625 8.203125 
Q 42.578125 3.328125 38.25 0.953125 
Q 33.9375 -1.421875 27.875 -1.421875 
Q 17.96875 -1.421875 11.734375 6.484375 
Q 5.515625 14.40625 5.515625 27.296875 
Q 5.515625 40.1875 11.734375 48.09375 
Q 17.96875 56 27.875 56 
Q 33.9375 56 38.25 53.625 
Q 42.578125 51.265625 45.40625 46.390625 
z
M 14.796875 27.296875 
Q 14.796875 17.390625 18.875 11.75 
Q 22.953125 6.109375 30.078125 6.109375 
Q 37.203125 6.109375 41.296875 11.75 
Q 45.40625 17.390625 45.40625 27.296875 
Q 45.40625 37.203125 41.296875 42.84375 
Q 37.203125 48.484375 30.078125 48.484375 
Q 22.953125 48.484375 18.875 42.84375 
Q 14.796875 37.203125 14.796875 27.296875 
z
" id="DejaVuSans-100"/>
     </defs>
     <g transform="translate(87.14375 199.301875)scale(0.1 -0.1)">
      <use transform="translate(0 0.015625)" xlink:href="#DejaVuSans-Oblique-65"/>
      <use transform="translate(68.408203 0.015625)" xlink:href="#DejaVuSans-Oblique-112"/>
      <use transform="translate(131.884766 0.015625)" xlink:href="#DejaVuSans-Oblique-114"/>
      <use transform="translate(172.998047 0.015625)" xlink:href="#DejaVuSans-Oblique-105"/>
      <use transform="translate(200.78125 0.015625)" xlink:href="#DejaVuSans-Oblique-111"/>
      <use transform="translate(261.962891 0.015625)" xlink:href="#DejaVuSans-Oblique-114"/>
      <use transform="translate(303.076172 0.015625)" xlink:href="#DejaVuSans-Oblique-105"/>
      <use transform="translate(330.859375 0.015625)" xlink:href="#DejaVuSans-32"/>
      <use transform="translate(362.646484 0.015625)" xlink:href="#DejaVuSans-109"/>
      <use transform="translate(460.058594 0.015625)" xlink:href="#DejaVuSans-111"/>
      <use transform="translate(521.240234 0.015625)" xlink:href="#DejaVuSans-100"/>
      <use transform="translate(584.716797 0.015625)" xlink:href="#DejaVuSans-101"/>
      <use transform="translate(646.240234 0.015625)" xlink:href="#DejaVuSans-108"/>
     </g>
    </g>
    <g id="line2d_31">
     <path d="M 59.14375 210.500312 
L 79.14375 210.500312 
" style="fill:none;stroke:#ffffff;stroke-linecap:square;stroke-width:1.5;"/>
    </g>
    <g id="line2d_32"/>
    <g id="text_20">
     <!-- T:1138 -->
     <defs>
      <path d="M 11.71875 12.40625 
L 22.015625 12.40625 
L 22.015625 0 
L 11.71875 0 
z
M 11.71875 51.703125 
L 22.015625 51.703125 
L 22.015625 39.3125 
L 11.71875 39.3125 
z
" id="DejaVuSans-58"/>
      <path d="M 40.578125 39.3125 
Q 47.65625 37.796875 51.625 33 
Q 55.609375 28.21875 55.609375 21.1875 
Q 55.609375 10.40625 48.1875 4.484375 
Q 40.765625 -1.421875 27.09375 -1.421875 
Q 22.515625 -1.421875 17.65625 -0.515625 
Q 12.796875 0.390625 7.625 2.203125 
L 7.625 11.71875 
Q 11.71875 9.328125 16.59375 8.109375 
Q 21.484375 6.890625 26.8125 6.890625 
Q 36.078125 6.890625 40.9375 10.546875 
Q 45.796875 14.203125 45.796875 21.1875 
Q 45.796875 27.640625 41.28125 31.265625 
Q 36.765625 34.90625 28.71875 34.90625 
L 20.21875 34.90625 
L 20.21875 43.015625 
L 29.109375 43.015625 
Q 36.375 43.015625 40.234375 45.921875 
Q 44.09375 48.828125 44.09375 54.296875 
Q 44.09375 59.90625 40.109375 62.90625 
Q 36.140625 65.921875 28.71875 65.921875 
Q 24.65625 65.921875 20.015625 65.03125 
Q 15.375 64.15625 9.8125 62.3125 
L 9.8125 71.09375 
Q 15.4375 72.65625 20.34375 73.4375 
Q 25.25 74.21875 29.59375 74.21875 
Q 40.828125 74.21875 47.359375 69.109375 
Q 53.90625 64.015625 53.90625 55.328125 
Q 53.90625 49.265625 50.4375 45.09375 
Q 46.96875 40.921875 40.578125 39.3125 
z
" id="DejaVuSans-51"/>
     </defs>
     <g transform="translate(87.14375 214.000312)scale(0.1 -0.1)">
      <use xlink:href="#DejaVuSans-84"/>
      <use x="60.912109" xlink:href="#DejaVuSans-58"/>
      <use x="94.603516" xlink:href="#DejaVuSans-49"/>
      <use x="158.226562" xlink:href="#DejaVuSans-49"/>
      <use x="221.849609" xlink:href="#DejaVuSans-51"/>
      <use x="285.472656" xlink:href="#DejaVuSans-56"/>
     </g>
    </g>
    <g id="line2d_33">
     <path d="M 59.14375 225.178437 
L 79.14375 225.178437 
" style="fill:none;stroke:#ffffff;stroke-linecap:square;stroke-width:1.5;"/>
    </g>
    <g id="line2d_34"/>
    <g id="text_21">
     <!-- P:1.676 -->
     <defs>
      <path d="M 19.671875 64.796875 
L 19.671875 37.40625 
L 32.078125 37.40625 
Q 38.96875 37.40625 42.71875 40.96875 
Q 46.484375 44.53125 46.484375 51.125 
Q 46.484375 57.671875 42.71875 61.234375 
Q 38.96875 64.796875 32.078125 64.796875 
z
M 9.8125 72.90625 
L 32.078125 72.90625 
Q 44.34375 72.90625 50.609375 67.359375 
Q 56.890625 61.8125 56.890625 51.125 
Q 56.890625 40.328125 50.609375 34.8125 
Q 44.34375 29.296875 32.078125 29.296875 
L 19.671875 29.296875 
L 19.671875 0 
L 9.8125 0 
z
" id="DejaVuSans-80"/>
     </defs>
     <g transform="translate(87.14375 228.678437)scale(0.1 -0.1)">
      <use xlink:href="#DejaVuSans-80"/>
      <use x="60.302734" xlink:href="#DejaVuSans-58"/>
      <use x="93.994141" xlink:href="#DejaVuSans-49"/>
      <use x="157.617188" xlink:href="#DejaVuSans-46"/>
      <use x="189.404297" xlink:href="#DejaVuSans-54"/>
      <use x="253.027344" xlink:href="#DejaVuSans-55"/>
      <use x="316.650391" xlink:href="#DejaVuSans-54"/>
     </g>
    </g>
    <g id="line2d_35">
     <path d="M 200.884375 166.444062 
L 220.884375 166.444062 
" style="fill:none;stroke:#ffffff;stroke-linecap:square;stroke-width:1.5;"/>
    </g>
    <g id="line2d_36"/>
    <g id="text_22">
     <!-- H2O2: 0.001977 -->
     <defs>
      <path d="M 9.8125 72.90625 
L 19.671875 72.90625 
L 19.671875 43.015625 
L 55.515625 43.015625 
L 55.515625 72.90625 
L 65.375 72.90625 
L 65.375 0 
L 55.515625 0 
L 55.515625 34.71875 
L 19.671875 34.71875 
L 19.671875 0 
L 9.8125 0 
z
" id="DejaVuSans-72"/>
      <path d="M 39.40625 66.21875 
Q 28.65625 66.21875 22.328125 58.203125 
Q 16.015625 50.203125 16.015625 36.375 
Q 16.015625 22.609375 22.328125 14.59375 
Q 28.65625 6.59375 39.40625 6.59375 
Q 50.140625 6.59375 56.421875 14.59375 
Q 62.703125 22.609375 62.703125 36.375 
Q 62.703125 50.203125 56.421875 58.203125 
Q 50.140625 66.21875 39.40625 66.21875 
z
M 39.40625 74.21875 
Q 54.734375 74.21875 63.90625 63.9375 
Q 73.09375 53.65625 73.09375 36.375 
Q 73.09375 19.140625 63.90625 8.859375 
Q 54.734375 -1.421875 39.40625 -1.421875 
Q 24.03125 -1.421875 14.8125 8.828125 
Q 5.609375 19.09375 5.609375 36.375 
Q 5.609375 53.65625 14.8125 63.9375 
Q 24.03125 74.21875 39.40625 74.21875 
z
" id="DejaVuSans-79"/>
      <path d="M 10.984375 1.515625 
L 10.984375 10.5 
Q 14.703125 8.734375 18.5 7.8125 
Q 22.3125 6.890625 25.984375 6.890625 
Q 35.75 6.890625 40.890625 13.453125 
Q 46.046875 20.015625 46.78125 33.40625 
Q 43.953125 29.203125 39.59375 26.953125 
Q 35.25 24.703125 29.984375 24.703125 
Q 19.046875 24.703125 12.671875 31.3125 
Q 6.296875 37.9375 6.296875 49.421875 
Q 6.296875 60.640625 12.9375 67.421875 
Q 19.578125 74.21875 30.609375 74.21875 
Q 43.265625 74.21875 49.921875 64.515625 
Q 56.59375 54.828125 56.59375 36.375 
Q 56.59375 19.140625 48.40625 8.859375 
Q 40.234375 -1.421875 26.421875 -1.421875 
Q 22.703125 -1.421875 18.890625 -0.6875 
Q 15.09375 0.046875 10.984375 1.515625 
z
M 30.609375 32.421875 
Q 37.25 32.421875 41.125 36.953125 
Q 45.015625 41.5 45.015625 49.421875 
Q 45.015625 57.28125 41.125 61.84375 
Q 37.25 66.40625 30.609375 66.40625 
Q 23.96875 66.40625 20.09375 61.84375 
Q 16.21875 57.28125 16.21875 49.421875 
Q 16.21875 41.5 20.09375 36.953125 
Q 23.96875 32.421875 30.609375 32.421875 
z
" id="DejaVuSans-57"/>
     </defs>
     <g transform="translate(228.884375 169.944062)scale(0.1 -0.1)">
      <use xlink:href="#DejaVuSans-72"/>
      <use x="75.195312" xlink:href="#DejaVuSans-50"/>
      <use x="138.818359" xlink:href="#DejaVuSans-79"/>
      <use x="217.529297" xlink:href="#DejaVuSans-50"/>
      <use x="281.152344" xlink:href="#DejaVuSans-58"/>
      <use x="314.84375" xlink:href="#DejaVuSans-32"/>
      <use x="346.630859" xlink:href="#DejaVuSans-48"/>
      <use x="410.253906" xlink:href="#DejaVuSans-46"/>
      <use x="442.041016" xlink:href="#DejaVuSans-48"/>
      <use x="505.664062" xlink:href="#DejaVuSans-48"/>
      <use x="569.287109" xlink:href="#DejaVuSans-49"/>
      <use x="632.910156" xlink:href="#DejaVuSans-57"/>
      <use x="696.533203" xlink:href="#DejaVuSans-55"/>
      <use x="760.15625" xlink:href="#DejaVuSans-55"/>
     </g>
    </g>
    <g id="line2d_37">
     <path d="M 200.884375 181.122187 
L 220.884375 181.122187 
" style="fill:none;stroke:#ffffff;stroke-linecap:square;stroke-width:1.5;"/>
    </g>
    <g id="line2d_38"/>
    <g id="text_23">
     <!-- H2O: 0.001113 -->
     <g transform="translate(228.884375 184.622187)scale(0.1 -0.1)">
      <use xlink:href="#DejaVuSans-72"/>
      <use x="75.195312" xlink:href="#DejaVuSans-50"/>
      <use x="138.818359" xlink:href="#DejaVuSans-79"/>
      <use x="217.513672" xlink:href="#DejaVuSans-58"/>
      <use x="251.205078" xlink:href="#DejaVuSans-32"/>
      <use x="282.992188" xlink:href="#DejaVuSans-48"/>
      <use x="346.615234" xlink:href="#DejaVuSans-46"/>
      <use x="378.402344" xlink:href="#DejaVuSans-48"/>
      <use x="442.025391" xlink:href="#DejaVuSans-48"/>
      <use x="505.648438" xlink:href="#DejaVuSans-49"/>
      <use x="569.271484" xlink:href="#DejaVuSans-49"/>
      <use x="632.894531" xlink:href="#DejaVuSans-49"/>
      <use x="696.517578" xlink:href="#DejaVuSans-51"/>
     </g>
    </g>
    <g id="line2d_39">
     <path d="M 200.884375 195.800312 
L 220.884375 195.800312 
" style="fill:none;stroke:#ffffff;stroke-linecap:square;stroke-width:1.5;"/>
    </g>
    <g id="line2d_40"/>
    <g id="text_24">
     <!-- O2: 0.000556 -->
     <defs>
      <path d="M 10.796875 72.90625 
L 49.515625 72.90625 
L 49.515625 64.59375 
L 19.828125 64.59375 
L 19.828125 46.734375 
Q 21.96875 47.46875 24.109375 47.828125 
Q 26.265625 48.1875 28.421875 48.1875 
Q 40.625 48.1875 47.75 41.5 
Q 54.890625 34.8125 54.890625 23.390625 
Q 54.890625 11.625 47.5625 5.09375 
Q 40.234375 -1.421875 26.90625 -1.421875 
Q 22.3125 -1.421875 17.546875 -0.640625 
Q 12.796875 0.140625 7.71875 1.703125 
L 7.71875 11.625 
Q 12.109375 9.234375 16.796875 8.0625 
Q 21.484375 6.890625 26.703125 6.890625 
Q 35.15625 6.890625 40.078125 11.328125 
Q 45.015625 15.765625 45.015625 23.390625 
Q 45.015625 31 40.078125 35.4375 
Q 35.15625 39.890625 26.703125 39.890625 
Q 22.75 39.890625 18.8125 39.015625 
Q 14.890625 38.140625 10.796875 36.28125 
z
" id="DejaVuSans-53"/>
     </defs>
     <g transform="translate(228.884375 199.300312)scale(0.1 -0.1)">
      <use xlink:href="#DejaVuSans-79"/>
      <use x="78.710938" xlink:href="#DejaVuSans-50"/>
      <use x="142.333984" xlink:href="#DejaVuSans-58"/>
      <use x="176.025391" xlink:href="#DejaVuSans-32"/>
      <use x="207.8125" xlink:href="#DejaVuSans-48"/>
      <use x="271.435547" xlink:href="#DejaVuSans-46"/>
      <use x="303.222656" xlink:href="#DejaVuSans-48"/>
      <use x="366.845703" xlink:href="#DejaVuSans-48"/>
      <use x="430.46875" xlink:href="#DejaVuSans-48"/>
      <use x="494.091797" xlink:href="#DejaVuSans-53"/>
      <use x="557.714844" xlink:href="#DejaVuSans-53"/>
      <use x="621.337891" xlink:href="#DejaVuSans-54"/>
     </g>
    </g>
    <g id="line2d_41">
     <path d="M 200.884375 210.478437 
L 220.884375 210.478437 
" style="fill:none;stroke:#ffffff;stroke-linecap:square;stroke-width:1.5;"/>
    </g>
    <g id="line2d_42"/>
    <g id="text_25">
     <!-- Ar: 0.996329 -->
     <g transform="translate(228.884375 213.978437)scale(0.1 -0.1)">
      <use xlink:href="#DejaVuSans-65"/>
      <use x="68.408203" xlink:href="#DejaVuSans-114"/>
      <use x="109.505859" xlink:href="#DejaVuSans-58"/>
      <use x="143.197266" xlink:href="#DejaVuSans-32"/>
      <use x="174.984375" xlink:href="#DejaVuSans-48"/>
      <use x="238.607422" xlink:href="#DejaVuSans-46"/>
      <use x="270.394531" xlink:href="#DejaVuSans-57"/>
      <use x="334.017578" xlink:href="#DejaVuSans-57"/>
      <use x="397.640625" xlink:href="#DejaVuSans-54"/>
      <use x="461.263672" xlink:href="#DejaVuSans-51"/>
      <use x="524.886719" xlink:href="#DejaVuSans-50"/>
      <use x="588.509766" xlink:href="#DejaVuSans-57"/>
     </g>
    </g>
   </g>
  </g>
 </g>
 <defs>
  <clipPath id="pb62246ca11">
   <rect height="217.44" width="334.8" x="50.14375" y="22.318125"/>
  </clipPath>
 </defs>
</svg>
