<?xml version="1.0" encoding="utf-8" standalone="no"?>
<!DOCTYPE svg PUBLIC "-//W3C//DTD SVG 1.1//EN"
  "http://www.w3.org/Graphics/SVG/1.1/DTD/svg11.dtd">
<!-- Created with matplotlib (https://matplotlib.org/) -->
<svg height="277.314375pt" version="1.1" viewBox="0 0 392.465625 277.314375" width="392.465625pt" xmlns="http://www.w3.org/2000/svg" xmlns:xlink="http://www.w3.org/1999/xlink">
 <defs>
  <style type="text/css">
*{stroke-linecap:butt;stroke-linejoin:round;}
  </style>
 </defs>
 <g id="figure_1">
  <g id="patch_1">
   <path d="M 0 277.314375 
L 392.465625 277.314375 
L 392.465625 0 
L 0 0 
z
" style="fill:none;"/>
  </g>
  <g id="axes_1">
   <g id="patch_2">
    <path d="M 46.965625 239.758125 
L 381.765625 239.758125 
L 381.765625 22.318125 
L 46.965625 22.318125 
z
" style="fill:none;"/>
   </g>
   <g id="matplotlib.axis_1">
    <g id="xtick_1">
     <g id="line2d_1">
      <defs>
       <path d="M 0 0 
L 0 3.5 
" id="m84d97e97a3" style="stroke:#000000;stroke-width:0.8;"/>
      </defs>
      <g>
       <use style="stroke:#000000;stroke-width:0.8;" x="62.183807" xlink:href="#m84d97e97a3" y="239.758125"/>
      </g>
     </g>
     <g id="text_1">
      <!-- 0.0 -->
      <defs>
       <path d="M 31.78125 66.40625 
Q 24.171875 66.40625 20.328125 58.90625 
Q 16.5 51.421875 16.5 36.375 
Q 16.5 21.390625 20.328125 13.890625 
Q 24.171875 6.390625 31.78125 6.390625 
Q 39.453125 6.390625 43.28125 13.890625 
Q 47.125 21.390625 47.125 36.375 
Q 47.125 51.421875 43.28125 58.90625 
Q 39.453125 66.40625 31.78125 66.40625 
z
M 31.78125 74.21875 
Q 44.046875 74.21875 50.515625 64.515625 
Q 56.984375 54.828125 56.984375 36.375 
Q 56.984375 17.96875 50.515625 8.265625 
Q 44.046875 -1.421875 31.78125 -1.421875 
Q 19.53125 -1.421875 13.0625 8.265625 
Q 6.59375 17.96875 6.59375 36.375 
Q 6.59375 54.828125 13.0625 64.515625 
Q 19.53125 74.21875 31.78125 74.21875 
z
" id="DejaVuSans-48"/>
       <path d="M 10.6875 12.40625 
L 21 12.40625 
L 21 0 
L 10.6875 0 
z
" id="DejaVuSans-46"/>
      </defs>
      <g transform="translate(54.232244 254.356562)scale(0.1 -0.1)">
       <use xlink:href="#DejaVuSans-48"/>
       <use x="63.623047" xlink:href="#DejaVuSans-46"/>
       <use x="95.410156" xlink:href="#DejaVuSans-48"/>
      </g>
     </g>
    </g>
    <g id="xtick_2">
     <g id="line2d_2">
      <g>
       <use style="stroke:#000000;stroke-width:0.8;" x="122.729988" xlink:href="#m84d97e97a3" y="239.758125"/>
      </g>
     </g>
     <g id="text_2">
      <!-- 0.2 -->
      <defs>
       <path d="M 19.1875 8.296875 
L 53.609375 8.296875 
L 53.609375 0 
L 7.328125 0 
L 7.328125 8.296875 
Q 12.9375 14.109375 22.625 23.890625 
Q 32.328125 33.6875 34.8125 36.53125 
Q 39.546875 41.84375 41.421875 45.53125 
Q 43.3125 49.21875 43.3125 52.78125 
Q 43.3125 58.59375 39.234375 62.25 
Q 35.15625 65.921875 28.609375 65.921875 
Q 23.96875 65.921875 18.8125 64.3125 
Q 13.671875 62.703125 7.8125 59.421875 
L 7.8125 69.390625 
Q 13.765625 71.78125 18.9375 73 
Q 24.125 74.21875 28.421875 74.21875 
Q 39.75 74.21875 46.484375 68.546875 
Q 53.21875 62.890625 53.21875 53.421875 
Q 53.21875 48.921875 51.53125 44.890625 
Q 49.859375 40.875 45.40625 35.40625 
Q 44.1875 33.984375 37.640625 27.21875 
Q 31.109375 20.453125 19.1875 8.296875 
z
" id="DejaVuSans-50"/>
      </defs>
      <g transform="translate(114.778425 254.356562)scale(0.1 -0.1)">
       <use xlink:href="#DejaVuSans-48"/>
       <use x="63.623047" xlink:href="#DejaVuSans-46"/>
       <use x="95.410156" xlink:href="#DejaVuSans-50"/>
      </g>
     </g>
    </g>
    <g id="xtick_3">
     <g id="line2d_3">
      <g>
       <use style="stroke:#000000;stroke-width:0.8;" x="183.276168" xlink:href="#m84d97e97a3" y="239.758125"/>
      </g>
     </g>
     <g id="text_3">
      <!-- 0.4 -->
      <defs>
       <path d="M 37.796875 64.3125 
L 12.890625 25.390625 
L 37.796875 25.390625 
z
M 35.203125 72.90625 
L 47.609375 72.90625 
L 47.609375 25.390625 
L 58.015625 25.390625 
L 58.015625 17.1875 
L 47.609375 17.1875 
L 47.609375 0 
L 37.796875 0 
L 37.796875 17.1875 
L 4.890625 17.1875 
L 4.890625 26.703125 
z
" id="DejaVuSans-52"/>
      </defs>
      <g transform="translate(175.324606 254.356562)scale(0.1 -0.1)">
       <use xlink:href="#DejaVuSans-48"/>
       <use x="63.623047" xlink:href="#DejaVuSans-46"/>
       <use x="95.410156" xlink:href="#DejaVuSans-52"/>
      </g>
     </g>
    </g>
    <g id="xtick_4">
     <g id="line2d_4">
      <g>
       <use style="stroke:#000000;stroke-width:0.8;" x="243.822349" xlink:href="#m84d97e97a3" y="239.758125"/>
      </g>
     </g>
     <g id="text_4">
      <!-- 0.6 -->
      <defs>
       <path d="M 33.015625 40.375 
Q 26.375 40.375 22.484375 35.828125 
Q 18.609375 31.296875 18.609375 23.390625 
Q 18.609375 15.53125 22.484375 10.953125 
Q 26.375 6.390625 33.015625 6.390625 
Q 39.65625 6.390625 43.53125 10.953125 
Q 47.40625 15.53125 47.40625 23.390625 
Q 47.40625 31.296875 43.53125 35.828125 
Q 39.65625 40.375 33.015625 40.375 
z
M 52.59375 71.296875 
L 52.59375 62.3125 
Q 48.875 64.0625 45.09375 64.984375 
Q 41.3125 65.921875 37.59375 65.921875 
Q 27.828125 65.921875 22.671875 59.328125 
Q 17.53125 52.734375 16.796875 39.40625 
Q 19.671875 43.65625 24.015625 45.921875 
Q 28.375 48.1875 33.59375 48.1875 
Q 44.578125 48.1875 50.953125 41.515625 
Q 57.328125 34.859375 57.328125 23.390625 
Q 57.328125 12.15625 50.6875 5.359375 
Q 44.046875 -1.421875 33.015625 -1.421875 
Q 20.359375 -1.421875 13.671875 8.265625 
Q 6.984375 17.96875 6.984375 36.375 
Q 6.984375 53.65625 15.1875 63.9375 
Q 23.390625 74.21875 37.203125 74.21875 
Q 40.921875 74.21875 44.703125 73.484375 
Q 48.484375 72.75 52.59375 71.296875 
z
" id="DejaVuSans-54"/>
      </defs>
      <g transform="translate(235.870787 254.356562)scale(0.1 -0.1)">
       <use xlink:href="#DejaVuSans-48"/>
       <use x="63.623047" xlink:href="#DejaVuSans-46"/>
       <use x="95.410156" xlink:href="#DejaVuSans-54"/>
      </g>
     </g>
    </g>
    <g id="xtick_5">
     <g id="line2d_5">
      <g>
       <use style="stroke:#000000;stroke-width:0.8;" x="304.36853" xlink:href="#m84d97e97a3" y="239.758125"/>
      </g>
     </g>
     <g id="text_5">
      <!-- 0.8 -->
      <defs>
       <path d="M 31.78125 34.625 
Q 24.75 34.625 20.71875 30.859375 
Q 16.703125 27.09375 16.703125 20.515625 
Q 16.703125 13.921875 20.71875 10.15625 
Q 24.75 6.390625 31.78125 6.390625 
Q 38.8125 6.390625 42.859375 10.171875 
Q 46.921875 13.96875 46.921875 20.515625 
Q 46.921875 27.09375 42.890625 30.859375 
Q 38.875 34.625 31.78125 34.625 
z
M 21.921875 38.8125 
Q 15.578125 40.375 12.03125 44.71875 
Q 8.5 49.078125 8.5 55.328125 
Q 8.5 64.0625 14.71875 69.140625 
Q 20.953125 74.21875 31.78125 74.21875 
Q 42.671875 74.21875 48.875 69.140625 
Q 55.078125 64.0625 55.078125 55.328125 
Q 55.078125 49.078125 51.53125 44.71875 
Q 48 40.375 41.703125 38.8125 
Q 48.828125 37.15625 52.796875 32.3125 
Q 56.78125 27.484375 56.78125 20.515625 
Q 56.78125 9.90625 50.3125 4.234375 
Q 43.84375 -1.421875 31.78125 -1.421875 
Q 19.734375 -1.421875 13.25 4.234375 
Q 6.78125 9.90625 6.78125 20.515625 
Q 6.78125 27.484375 10.78125 32.3125 
Q 14.796875 37.15625 21.921875 38.8125 
z
M 18.3125 54.390625 
Q 18.3125 48.734375 21.84375 45.5625 
Q 25.390625 42.390625 31.78125 42.390625 
Q 38.140625 42.390625 41.71875 45.5625 
Q 45.3125 48.734375 45.3125 54.390625 
Q 45.3125 60.0625 41.71875 63.234375 
Q 38.140625 66.40625 31.78125 66.40625 
Q 25.390625 66.40625 21.84375 63.234375 
Q 18.3125 60.0625 18.3125 54.390625 
z
" id="DejaVuSans-56"/>
      </defs>
      <g transform="translate(296.416967 254.356562)scale(0.1 -0.1)">
       <use xlink:href="#DejaVuSans-48"/>
       <use x="63.623047" xlink:href="#DejaVuSans-46"/>
       <use x="95.410156" xlink:href="#DejaVuSans-56"/>
      </g>
     </g>
    </g>
    <g id="xtick_6">
     <g id="line2d_6">
      <g>
       <use style="stroke:#000000;stroke-width:0.8;" x="364.914711" xlink:href="#m84d97e97a3" y="239.758125"/>
      </g>
     </g>
     <g id="text_6">
      <!-- 1.0 -->
      <defs>
       <path d="M 12.40625 8.296875 
L 28.515625 8.296875 
L 28.515625 63.921875 
L 10.984375 60.40625 
L 10.984375 69.390625 
L 28.421875 72.90625 
L 38.28125 72.90625 
L 38.28125 8.296875 
L 54.390625 8.296875 
L 54.390625 0 
L 12.40625 0 
z
" id="DejaVuSans-49"/>
      </defs>
      <g transform="translate(356.963148 254.356562)scale(0.1 -0.1)">
       <use xlink:href="#DejaVuSans-49"/>
       <use x="63.623047" xlink:href="#DejaVuSans-46"/>
       <use x="95.410156" xlink:href="#DejaVuSans-48"/>
      </g>
     </g>
    </g>
    <g id="text_7">
     <!-- Time (ms) -->
     <defs>
      <path d="M -0.296875 72.90625 
L 61.375 72.90625 
L 61.375 64.59375 
L 35.5 64.59375 
L 35.5 0 
L 25.59375 0 
L 25.59375 64.59375 
L -0.296875 64.59375 
z
" id="DejaVuSans-84"/>
      <path d="M 9.421875 54.6875 
L 18.40625 54.6875 
L 18.40625 0 
L 9.421875 0 
z
M 9.421875 75.984375 
L 18.40625 75.984375 
L 18.40625 64.59375 
L 9.421875 64.59375 
z
" id="DejaVuSans-105"/>
      <path d="M 52 44.1875 
Q 55.375 50.25 60.0625 53.125 
Q 64.75 56 71.09375 56 
Q 79.640625 56 84.28125 50.015625 
Q 88.921875 44.046875 88.921875 33.015625 
L 88.921875 0 
L 79.890625 0 
L 79.890625 32.71875 
Q 79.890625 40.578125 77.09375 44.375 
Q 74.3125 48.1875 68.609375 48.1875 
Q 61.625 48.1875 57.5625 43.546875 
Q 53.515625 38.921875 53.515625 30.90625 
L 53.515625 0 
L 44.484375 0 
L 44.484375 32.71875 
Q 44.484375 40.625 41.703125 44.40625 
Q 38.921875 48.1875 33.109375 48.1875 
Q 26.21875 48.1875 22.15625 43.53125 
Q 18.109375 38.875 18.109375 30.90625 
L 18.109375 0 
L 9.078125 0 
L 9.078125 54.6875 
L 18.109375 54.6875 
L 18.109375 46.1875 
Q 21.1875 51.21875 25.484375 53.609375 
Q 29.78125 56 35.6875 56 
Q 41.65625 56 45.828125 52.96875 
Q 50 49.953125 52 44.1875 
z
" id="DejaVuSans-109"/>
      <path d="M 56.203125 29.59375 
L 56.203125 25.203125 
L 14.890625 25.203125 
Q 15.484375 15.921875 20.484375 11.0625 
Q 25.484375 6.203125 34.421875 6.203125 
Q 39.59375 6.203125 44.453125 7.46875 
Q 49.3125 8.734375 54.109375 11.28125 
L 54.109375 2.78125 
Q 49.265625 0.734375 44.1875 -0.34375 
Q 39.109375 -1.421875 33.890625 -1.421875 
Q 20.796875 -1.421875 13.15625 6.1875 
Q 5.515625 13.8125 5.515625 26.8125 
Q 5.515625 40.234375 12.765625 48.109375 
Q 20.015625 56 32.328125 56 
Q 43.359375 56 49.78125 48.890625 
Q 56.203125 41.796875 56.203125 29.59375 
z
M 47.21875 32.234375 
Q 47.125 39.59375 43.09375 43.984375 
Q 39.0625 48.390625 32.421875 48.390625 
Q 24.90625 48.390625 20.390625 44.140625 
Q 15.875 39.890625 15.1875 32.171875 
z
" id="DejaVuSans-101"/>
      <path id="DejaVuSans-32"/>
      <path d="M 31 75.875 
Q 24.46875 64.65625 21.28125 53.65625 
Q 18.109375 42.671875 18.109375 31.390625 
Q 18.109375 20.125 21.3125 9.0625 
Q 24.515625 -2 31 -13.1875 
L 23.1875 -13.1875 
Q 15.875 -1.703125 12.234375 9.375 
Q 8.59375 20.453125 8.59375 31.390625 
Q 8.59375 42.28125 12.203125 53.3125 
Q 15.828125 64.359375 23.1875 75.875 
z
" id="DejaVuSans-40"/>
      <path d="M 44.28125 53.078125 
L 44.28125 44.578125 
Q 40.484375 46.53125 36.375 47.5 
Q 32.28125 48.484375 27.875 48.484375 
Q 21.1875 48.484375 17.84375 46.4375 
Q 14.5 44.390625 14.5 40.28125 
Q 14.5 37.15625 16.890625 35.375 
Q 19.28125 33.59375 26.515625 31.984375 
L 29.59375 31.296875 
Q 39.15625 29.25 43.1875 25.515625 
Q 47.21875 21.78125 47.21875 15.09375 
Q 47.21875 7.46875 41.1875 3.015625 
Q 35.15625 -1.421875 24.609375 -1.421875 
Q 20.21875 -1.421875 15.453125 -0.5625 
Q 10.6875 0.296875 5.421875 2 
L 5.421875 11.28125 
Q 10.40625 8.6875 15.234375 7.390625 
Q 20.0625 6.109375 24.8125 6.109375 
Q 31.15625 6.109375 34.5625 8.28125 
Q 37.984375 10.453125 37.984375 14.40625 
Q 37.984375 18.0625 35.515625 20.015625 
Q 33.0625 21.96875 24.703125 23.78125 
L 21.578125 24.515625 
Q 13.234375 26.265625 9.515625 29.90625 
Q 5.8125 33.546875 5.8125 39.890625 
Q 5.8125 47.609375 11.28125 51.796875 
Q 16.75 56 26.8125 56 
Q 31.78125 56 36.171875 55.265625 
Q 40.578125 54.546875 44.28125 53.078125 
z
" id="DejaVuSans-115"/>
      <path d="M 8.015625 75.875 
L 15.828125 75.875 
Q 23.140625 64.359375 26.78125 53.3125 
Q 30.421875 42.28125 30.421875 31.390625 
Q 30.421875 20.453125 26.78125 9.375 
Q 23.140625 -1.703125 15.828125 -13.1875 
L 8.015625 -13.1875 
Q 14.5 -2 17.703125 9.0625 
Q 20.90625 20.125 20.90625 31.390625 
Q 20.90625 42.671875 17.703125 53.65625 
Q 14.5 64.65625 8.015625 75.875 
z
" id="DejaVuSans-41"/>
     </defs>
     <g transform="translate(189.0125 268.034687)scale(0.1 -0.1)">
      <use xlink:href="#DejaVuSans-84"/>
      <use x="61.037109" xlink:href="#DejaVuSans-105"/>
      <use x="88.820312" xlink:href="#DejaVuSans-109"/>
      <use x="186.232422" xlink:href="#DejaVuSans-101"/>
      <use x="247.755859" xlink:href="#DejaVuSans-32"/>
      <use x="279.542969" xlink:href="#DejaVuSans-40"/>
      <use x="318.556641" xlink:href="#DejaVuSans-109"/>
      <use x="415.96875" xlink:href="#DejaVuSans-115"/>
      <use x="468.068359" xlink:href="#DejaVuSans-41"/>
     </g>
    </g>
   </g>
   <g id="matplotlib.axis_2">
    <g id="ytick_1">
     <g id="line2d_7">
      <defs>
       <path d="M 0 0 
L -3.5 0 
" id="m853cf0b71e" style="stroke:#000000;stroke-width:0.8;"/>
      </defs>
      <g>
       <use style="stroke:#000000;stroke-width:0.8;" x="46.965625" xlink:href="#m853cf0b71e" y="229.874489"/>
      </g>
     </g>
     <g id="text_8">
      <!-- 0 -->
      <g transform="translate(33.603125 233.673707)scale(0.1 -0.1)">
       <use xlink:href="#DejaVuSans-48"/>
      </g>
     </g>
    </g>
    <g id="ytick_2">
     <g id="line2d_8">
      <g>
       <use style="stroke:#000000;stroke-width:0.8;" x="46.965625" xlink:href="#m853cf0b71e" y="202.328583"/>
      </g>
     </g>
     <g id="text_9">
      <!-- 25 -->
      <defs>
       <path d="M 10.796875 72.90625 
L 49.515625 72.90625 
L 49.515625 64.59375 
L 19.828125 64.59375 
L 19.828125 46.734375 
Q 21.96875 47.46875 24.109375 47.828125 
Q 26.265625 48.1875 28.421875 48.1875 
Q 40.625 48.1875 47.75 41.5 
Q 54.890625 34.8125 54.890625 23.390625 
Q 54.890625 11.625 47.5625 5.09375 
Q 40.234375 -1.421875 26.90625 -1.421875 
Q 22.3125 -1.421875 17.546875 -0.640625 
Q 12.796875 0.140625 7.71875 1.703125 
L 7.71875 11.625 
Q 12.109375 9.234375 16.796875 8.0625 
Q 21.484375 6.890625 26.703125 6.890625 
Q 35.15625 6.890625 40.078125 11.328125 
Q 45.015625 15.765625 45.015625 23.390625 
Q 45.015625 31 40.078125 35.4375 
Q 35.15625 39.890625 26.703125 39.890625 
Q 22.75 39.890625 18.8125 39.015625 
Q 14.890625 38.140625 10.796875 36.28125 
z
" id="DejaVuSans-53"/>
      </defs>
      <g transform="translate(27.240625 206.127802)scale(0.1 -0.1)">
       <use xlink:href="#DejaVuSans-50"/>
       <use x="63.623047" xlink:href="#DejaVuSans-53"/>
      </g>
     </g>
    </g>
    <g id="ytick_3">
     <g id="line2d_9">
      <g>
       <use style="stroke:#000000;stroke-width:0.8;" x="46.965625" xlink:href="#m853cf0b71e" y="174.782677"/>
      </g>
     </g>
     <g id="text_10">
      <!-- 50 -->
      <g transform="translate(27.240625 178.581896)scale(0.1 -0.1)">
       <use xlink:href="#DejaVuSans-53"/>
       <use x="63.623047" xlink:href="#DejaVuSans-48"/>
      </g>
     </g>
    </g>
    <g id="ytick_4">
     <g id="line2d_10">
      <g>
       <use style="stroke:#000000;stroke-width:0.8;" x="46.965625" xlink:href="#m853cf0b71e" y="147.236771"/>
      </g>
     </g>
     <g id="text_11">
      <!-- 75 -->
      <defs>
       <path d="M 8.203125 72.90625 
L 55.078125 72.90625 
L 55.078125 68.703125 
L 28.609375 0 
L 18.3125 0 
L 43.21875 64.59375 
L 8.203125 64.59375 
z
" id="DejaVuSans-55"/>
      </defs>
      <g transform="translate(27.240625 151.03599)scale(0.1 -0.1)">
       <use xlink:href="#DejaVuSans-55"/>
       <use x="63.623047" xlink:href="#DejaVuSans-53"/>
      </g>
     </g>
    </g>
    <g id="ytick_5">
     <g id="line2d_11">
      <g>
       <use style="stroke:#000000;stroke-width:0.8;" x="46.965625" xlink:href="#m853cf0b71e" y="119.690865"/>
      </g>
     </g>
     <g id="text_12">
      <!-- 100 -->
      <g transform="translate(20.878125 123.490084)scale(0.1 -0.1)">
       <use xlink:href="#DejaVuSans-49"/>
       <use x="63.623047" xlink:href="#DejaVuSans-48"/>
       <use x="127.246094" xlink:href="#DejaVuSans-48"/>
      </g>
     </g>
    </g>
    <g id="ytick_6">
     <g id="line2d_12">
      <g>
       <use style="stroke:#000000;stroke-width:0.8;" x="46.965625" xlink:href="#m853cf0b71e" y="92.144959"/>
      </g>
     </g>
     <g id="text_13">
      <!-- 125 -->
      <g transform="translate(20.878125 95.944178)scale(0.1 -0.1)">
       <use xlink:href="#DejaVuSans-49"/>
       <use x="63.623047" xlink:href="#DejaVuSans-50"/>
       <use x="127.246094" xlink:href="#DejaVuSans-53"/>
      </g>
     </g>
    </g>
    <g id="ytick_7">
     <g id="line2d_13">
      <g>
       <use style="stroke:#000000;stroke-width:0.8;" x="46.965625" xlink:href="#m853cf0b71e" y="64.599054"/>
      </g>
     </g>
     <g id="text_14">
      <!-- 150 -->
      <g transform="translate(20.878125 68.398272)scale(0.1 -0.1)">
       <use xlink:href="#DejaVuSans-49"/>
       <use x="63.623047" xlink:href="#DejaVuSans-53"/>
       <use x="127.246094" xlink:href="#DejaVuSans-48"/>
      </g>
     </g>
    </g>
    <g id="ytick_8">
     <g id="line2d_14">
      <g>
       <use style="stroke:#000000;stroke-width:0.8;" x="46.965625" xlink:href="#m853cf0b71e" y="37.053148"/>
      </g>
     </g>
     <g id="text_15">
      <!-- 175 -->
      <g transform="translate(20.878125 40.852366)scale(0.1 -0.1)">
       <use xlink:href="#DejaVuSans-49"/>
       <use x="63.623047" xlink:href="#DejaVuSans-55"/>
       <use x="127.246094" xlink:href="#DejaVuSans-53"/>
      </g>
     </g>
    </g>
    <g id="text_16">
     <!-- ppmOH -->
     <defs>
      <path d="M 18.109375 8.203125 
L 18.109375 -20.796875 
L 9.078125 -20.796875 
L 9.078125 54.6875 
L 18.109375 54.6875 
L 18.109375 46.390625 
Q 20.953125 51.265625 25.265625 53.625 
Q 29.59375 56 35.59375 56 
Q 45.5625 56 51.78125 48.09375 
Q 58.015625 40.1875 58.015625 27.296875 
Q 58.015625 14.40625 51.78125 6.484375 
Q 45.5625 -1.421875 35.59375 -1.421875 
Q 29.59375 -1.421875 25.265625 0.953125 
Q 20.953125 3.328125 18.109375 8.203125 
z
M 48.6875 27.296875 
Q 48.6875 37.203125 44.609375 42.84375 
Q 40.53125 48.484375 33.40625 48.484375 
Q 26.265625 48.484375 22.1875 42.84375 
Q 18.109375 37.203125 18.109375 27.296875 
Q 18.109375 17.390625 22.1875 11.75 
Q 26.265625 6.109375 33.40625 6.109375 
Q 40.53125 6.109375 44.609375 11.75 
Q 48.6875 17.390625 48.6875 27.296875 
z
" id="DejaVuSans-112"/>
      <path d="M 39.40625 66.21875 
Q 28.65625 66.21875 22.328125 58.203125 
Q 16.015625 50.203125 16.015625 36.375 
Q 16.015625 22.609375 22.328125 14.59375 
Q 28.65625 6.59375 39.40625 6.59375 
Q 50.140625 6.59375 56.421875 14.59375 
Q 62.703125 22.609375 62.703125 36.375 
Q 62.703125 50.203125 56.421875 58.203125 
Q 50.140625 66.21875 39.40625 66.21875 
z
M 39.40625 74.21875 
Q 54.734375 74.21875 63.90625 63.9375 
Q 73.09375 53.65625 73.09375 36.375 
Q 73.09375 19.140625 63.90625 8.859375 
Q 54.734375 -1.421875 39.40625 -1.421875 
Q 24.03125 -1.421875 14.8125 8.828125 
Q 5.609375 19.09375 5.609375 36.375 
Q 5.609375 53.65625 14.8125 63.9375 
Q 24.03125 74.21875 39.40625 74.21875 
z
" id="DejaVuSans-79"/>
      <path d="M 9.8125 72.90625 
L 19.671875 72.90625 
L 19.671875 43.015625 
L 55.515625 43.015625 
L 55.515625 72.90625 
L 65.375 72.90625 
L 65.375 0 
L 55.515625 0 
L 55.515625 34.71875 
L 19.671875 34.71875 
L 19.671875 0 
L 9.8125 0 
z
" id="DejaVuSans-72"/>
     </defs>
     <g transform="translate(14.798438 149.952969)rotate(-90)scale(0.1 -0.1)">
      <use xlink:href="#DejaVuSans-112"/>
      <use x="63.476562" xlink:href="#DejaVuSans-112"/>
      <use x="126.953125" xlink:href="#DejaVuSans-109"/>
      <use x="224.365234" xlink:href="#DejaVuSans-79"/>
      <use x="303.076172" xlink:href="#DejaVuSans-72"/>
     </g>
    </g>
   </g>
   <g id="line2d_15">
    <path clip-path="url(#ped7fd2a386)" d="M 62.183807 229.874489 
L 62.788383 183.559371 
L 63.423798 150.413817 
L 64.006262 130.4105 
L 64.588726 117.700234 
L 65.118238 110.764195 
L 65.545634 107.509644 
L 65.9475 105.863137 
L 66.268992 105.295983 
L 66.510112 105.212855 
L 66.751231 105.366088 
L 67.072724 105.863511 
L 67.554963 107.068526 
L 68.358695 109.789255 
L 71.705366 121.827096 
L 72.978561 125.374467 
L 74.254706 128.32504 
L 75.53085 130.77437 
L 76.989301 133.089356 
L 78.359205 134.900301 
L 80.015602 136.736276 
L 81.948065 138.519015 
L 84.021372 140.126846 
L 86.522833 141.779803 
L 89.441204 143.447698 
L 93.193396 145.339465 
L 98.201023 147.617606 
L 105.733637 150.789032 
L 116.687346 155.151319 
L 128.72077 159.714456 
L 140.31475 163.877346 
L 151.119167 167.536707 
L 163.124074 171.35399 
L 175.128981 174.921455 
L 186.923274 178.197444 
L 198.591758 181.224978 
L 210.260243 184.043137 
L 221.928727 186.649482 
L 233.597212 189.039427 
L 245.265697 191.209913 
L 256.934181 193.162138 
L 268.602666 194.902723 
L 281.567649 196.602922 
L 294.532632 198.07808 
L 308.794113 199.470592 
L 324.360547 200.754259 
L 341.901319 201.956115 
L 361.391066 203.048875 
L 365.289015 203.241964 
L 365.289015 203.241964 
" style="fill:none;stroke:#0000ff;stroke-linecap:square;stroke-width:1.5;"/>
   </g>
   <g id="line2d_16">
    <path clip-path="url(#ped7fd2a386)" d="M 62.183807 229.874489 
L 62.929563 165.017186 
L 63.723954 114.423509 
L 64.457238 81.465177 
L 65.129414 60.565426 
L 65.740484 47.713365 
L 66.322039 39.754643 
L 66.874078 35.194561 
L 67.334111 33.122187 
L 67.702137 32.354438 
L 67.978157 32.201761 
L 68.254176 32.35212 
L 68.622202 32.943206 
L 69.082235 34.176474 
L 69.818287 36.940879 
L 70.971037 42.295538 
L 74.018989 56.738691 
L 75.544376 62.814522 
L 77.001548 67.779979 
L 78.45872 72.02169 
L 79.915892 75.658049 
L 81.589467 79.231492 
L 83.171311 82.139004 
L 85.069525 85.161068 
L 86.967738 87.791439 
L 89.18232 90.487818 
L 91.826066 93.319306 
L 94.842577 96.181214 
L 98.361841 99.173683 
L 102.383856 102.280184 
L 107.301742 105.771662 
L 112.478448 109.197794 
L 119.300128 113.444611 
L 126.892835 117.918936 
L 136.527032 123.328602 
L 148.302162 129.665898 
L 163.28869 137.456352 
L 178.275219 145.012757 
L 191.120815 151.25198 
L 201.825478 156.201897 
L 211.459675 160.400295 
L 220.023406 163.891879 
L 228.587136 167.136387 
L 237.150867 170.124815 
L 245.714597 172.857997 
L 254.278328 175.344621 
L 262.842059 177.59888 
L 271.405789 179.638267 
L 281.039986 181.699396 
L 290.144337 183.443902 
L 301.391775 185.359507 
L 312.639212 187.045614 
L 325.493427 188.734036 
L 339.954419 190.379293 
L 354.451502 191.805877 
L 366.547443 192.854487 
L 366.547443 192.854487 
" style="fill:none;stroke:#ff0000;stroke-linecap:square;stroke-width:1.5;"/>
   </g>
   <g id="line2d_17">
    <defs>
     <path d="M 0 3 
C 0.795609 3 1.55874 2.683901 2.12132 2.12132 
C 2.683901 1.55874 3 0.795609 3 0 
C 3 -0.795609 2.683901 -1.55874 2.12132 -2.12132 
C 1.55874 -2.683901 0.795609 -3 0 -3 
C -0.795609 -3 -1.55874 -2.683901 -2.12132 -2.12132 
C -2.683901 -1.55874 -3 -0.795609 -3 0 
C -3 0.795609 -2.683901 1.55874 -2.12132 2.12132 
C -1.55874 2.683901 -0.795609 3 0 3 
z
" id="m2ddca6ac76" style="stroke:#000000;"/>
    </defs>
    <g clip-path="url(#ped7fd2a386)">
     <use style="stroke:#000000;" x="65.123324" xlink:href="#m2ddca6ac76" y="129.022316"/>
     <use style="stroke:#000000;" x="65.177815" xlink:href="#m2ddca6ac76" y="128.710607"/>
     <use style="stroke:#000000;" x="65.241389" xlink:href="#m2ddca6ac76" y="128.422587"/>
     <use style="stroke:#000000;" x="65.271662" xlink:href="#m2ddca6ac76" y="128.157265"/>
     <use style="stroke:#000000;" x="65.332208" xlink:href="#m2ddca6ac76" y="127.913649"/>
     <use style="stroke:#000000;" x="65.392754" xlink:href="#m2ddca6ac76" y="127.690857"/>
     <use style="stroke:#000000;" x="65.453301" xlink:href="#m2ddca6ac76" y="127.48812"/>
     <use style="stroke:#000000;" x="65.513847" xlink:href="#m2ddca6ac76" y="127.304333"/>
     <use style="stroke:#000000;" x="65.54412" xlink:href="#m2ddca6ac76" y="127.138948"/>
     <use style="stroke:#000000;" x="65.604666" xlink:href="#m2ddca6ac76" y="126.990971"/>
     <use style="stroke:#000000;" x="65.695485" xlink:href="#m2ddca6ac76" y="126.798811"/>
     <use style="stroke:#000000;" x="65.756031" xlink:href="#m2ddca6ac76" y="126.64235"/>
     <use style="stroke:#000000;" x="65.846851" xlink:href="#m2ddca6ac76" y="126.519275"/>
     <use style="stroke:#000000;" x="65.93767" xlink:href="#m2ddca6ac76" y="126.427272"/>
     <use style="stroke:#000000;" x="65.998216" xlink:href="#m2ddca6ac76" y="126.364357"/>
     <use style="stroke:#000000;" x="66.089035" xlink:href="#m2ddca6ac76" y="126.328327"/>
     <use style="stroke:#000000;" x="66.179855" xlink:href="#m2ddca6ac76" y="126.317419"/>
     <use style="stroke:#000000;" x="66.240401" xlink:href="#m2ddca6ac76" y="126.329649"/>
     <use style="stroke:#000000;" x="66.33122" xlink:href="#m2ddca6ac76" y="126.363586"/>
     <use style="stroke:#000000;" x="66.422039" xlink:href="#m2ddca6ac76" y="126.417465"/>
     <use style="stroke:#000000;" x="66.512859" xlink:href="#m2ddca6ac76" y="126.489856"/>
     <use style="stroke:#000000;" x="66.573405" xlink:href="#m2ddca6ac76" y="126.579325"/>
     <use style="stroke:#000000;" x="66.664224" xlink:href="#m2ddca6ac76" y="126.68444"/>
     <use style="stroke:#000000;" x="66.755043" xlink:href="#m2ddca6ac76" y="126.8041"/>
     <use style="stroke:#000000;" x="66.81559" xlink:href="#m2ddca6ac76" y="126.937201"/>
     <use style="stroke:#000000;" x="66.906409" xlink:href="#m2ddca6ac76" y="127.082313"/>
     <use style="stroke:#000000;" x="66.997228" xlink:href="#m2ddca6ac76" y="127.238774"/>
     <use style="stroke:#000000;" x="67.057774" xlink:href="#m2ddca6ac76" y="127.405372"/>
     <use style="stroke:#000000;" x="67.148594" xlink:href="#m2ddca6ac76" y="127.581335"/>
     <use style="stroke:#000000;" x="67.239413" xlink:href="#m2ddca6ac76" y="127.765782"/>
     <use style="stroke:#000000;" x="67.299959" xlink:href="#m2ddca6ac76" y="127.957832"/>
     <use style="stroke:#000000;" x="67.390778" xlink:href="#m2ddca6ac76" y="128.156714"/>
     <use style="stroke:#000000;" x="67.481598" xlink:href="#m2ddca6ac76" y="128.361986"/>
     <use style="stroke:#000000;" x="67.542144" xlink:href="#m2ddca6ac76" y="128.572767"/>
     <use style="stroke:#000000;" x="67.632963" xlink:href="#m2ddca6ac76" y="128.788507"/>
     <use style="stroke:#000000;" x="67.723782" xlink:href="#m2ddca6ac76" y="129.008654"/>
     <use style="stroke:#000000;" x="67.784329" xlink:href="#m2ddca6ac76" y="129.232657"/>
     <use style="stroke:#000000;" x="67.875148" xlink:href="#m2ddca6ac76" y="129.459966"/>
     <use style="stroke:#000000;" x="67.965967" xlink:href="#m2ddca6ac76" y="129.69036"/>
     <use style="stroke:#000000;" x="68.026513" xlink:href="#m2ddca6ac76" y="129.923067"/>
     <use style="stroke:#000000;" x="68.117333" xlink:href="#m2ddca6ac76" y="130.157979"/>
     <use style="stroke:#000000;" x="68.208152" xlink:href="#m2ddca6ac76" y="130.394653"/>
     <use style="stroke:#000000;" x="68.268698" xlink:href="#m2ddca6ac76" y="130.63265"/>
     <use style="stroke:#000000;" x="68.359517" xlink:href="#m2ddca6ac76" y="130.871748"/>
     <use style="stroke:#000000;" x="68.450337" xlink:href="#m2ddca6ac76" y="131.111618"/>
     <use style="stroke:#000000;" x="68.541156" xlink:href="#m2ddca6ac76" y="131.351929"/>
     <use style="stroke:#000000;" x="68.601702" xlink:href="#m2ddca6ac76" y="131.59257"/>
     <use style="stroke:#000000;" x="68.692521" xlink:href="#m2ddca6ac76" y="131.833211"/>
     <use style="stroke:#000000;" x="68.783341" xlink:href="#m2ddca6ac76" y="132.073631"/>
     <use style="stroke:#000000;" x="68.843887" xlink:href="#m2ddca6ac76" y="132.313611"/>
     <use style="stroke:#000000;" x="68.934706" xlink:href="#m2ddca6ac76" y="132.553151"/>
     <use style="stroke:#000000;" x="69.025525" xlink:href="#m2ddca6ac76" y="132.791918"/>
     <use style="stroke:#000000;" x="69.086071" xlink:href="#m2ddca6ac76" y="133.029695"/>
     <use style="stroke:#000000;" x="69.176891" xlink:href="#m2ddca6ac76" y="133.26659"/>
     <use style="stroke:#000000;" x="69.26771" xlink:href="#m2ddca6ac76" y="133.502272"/>
     <use style="stroke:#000000;" x="69.328256" xlink:href="#m2ddca6ac76" y="133.736633"/>
     <use style="stroke:#000000;" x="69.419075" xlink:href="#m2ddca6ac76" y="133.969671"/>
     <use style="stroke:#000000;" x="69.509895" xlink:href="#m2ddca6ac76" y="134.201167"/>
     <use style="stroke:#000000;" x="69.570441" xlink:href="#m2ddca6ac76" y="134.43112"/>
     <use style="stroke:#000000;" x="69.66126" xlink:href="#m2ddca6ac76" y="134.659531"/>
     <use style="stroke:#000000;" x="69.752079" xlink:href="#m2ddca6ac76" y="134.886179"/>
     <use style="stroke:#000000;" x="69.873172" xlink:href="#m2ddca6ac76" y="135.224332"/>
     <use style="stroke:#000000;" x="69.994264" xlink:href="#m2ddca6ac76" y="135.558409"/>
     <use style="stroke:#000000;" x="70.115356" xlink:href="#m2ddca6ac76" y="135.887968"/>
     <use style="stroke:#000000;" x="70.236449" xlink:href="#m2ddca6ac76" y="136.21312"/>
     <use style="stroke:#000000;" x="70.357541" xlink:href="#m2ddca6ac76" y="136.533754"/>
     <use style="stroke:#000000;" x="70.478634" xlink:href="#m2ddca6ac76" y="136.849541"/>
     <use style="stroke:#000000;" x="70.599726" xlink:href="#m2ddca6ac76" y="137.160699"/>
     <use style="stroke:#000000;" x="70.720818" xlink:href="#m2ddca6ac76" y="137.46712"/>
     <use style="stroke:#000000;" x="70.841911" xlink:href="#m2ddca6ac76" y="137.768692"/>
     <use style="stroke:#000000;" x="70.963003" xlink:href="#m2ddca6ac76" y="138.065417"/>
     <use style="stroke:#000000;" x="71.084095" xlink:href="#m2ddca6ac76" y="138.357293"/>
     <use style="stroke:#000000;" x="71.205188" xlink:href="#m2ddca6ac76" y="138.644542"/>
     <use style="stroke:#000000;" x="71.32628" xlink:href="#m2ddca6ac76" y="138.926943"/>
     <use style="stroke:#000000;" x="71.447372" xlink:href="#m2ddca6ac76" y="139.204605"/>
     <use style="stroke:#000000;" x="71.568465" xlink:href="#m2ddca6ac76" y="139.47753"/>
     <use style="stroke:#000000;" x="71.689557" xlink:href="#m2ddca6ac76" y="139.745827"/>
     <use style="stroke:#000000;" x="71.81065" xlink:href="#m2ddca6ac76" y="140.009497"/>
     <use style="stroke:#000000;" x="71.931742" xlink:href="#m2ddca6ac76" y="140.268649"/>
     <use style="stroke:#000000;" x="72.052834" xlink:href="#m2ddca6ac76" y="140.523393"/>
     <use style="stroke:#000000;" x="72.2042" xlink:href="#m2ddca6ac76" y="140.77362"/>
     <use style="stroke:#000000;" x="72.325292" xlink:href="#m2ddca6ac76" y="141.01955"/>
     <use style="stroke:#000000;" x="72.446384" xlink:href="#m2ddca6ac76" y="141.261183"/>
     <use style="stroke:#000000;" x="72.628023" xlink:href="#m2ddca6ac76" y="141.618508"/>
     <use style="stroke:#000000;" x="72.809662" xlink:href="#m2ddca6ac76" y="141.966468"/>
     <use style="stroke:#000000;" x="72.9913" xlink:href="#m2ddca6ac76" y="142.305283"/>
     <use style="stroke:#000000;" x="73.172939" xlink:href="#m2ddca6ac76" y="142.635172"/>
     <use style="stroke:#000000;" x="73.354577" xlink:href="#m2ddca6ac76" y="142.956468"/>
     <use style="stroke:#000000;" x="73.536216" xlink:href="#m2ddca6ac76" y="143.2695"/>
     <use style="stroke:#000000;" x="73.717854" xlink:href="#m2ddca6ac76" y="143.574378"/>
     <use style="stroke:#000000;" x="73.899493" xlink:href="#m2ddca6ac76" y="143.871323"/>
     <use style="stroke:#000000;" x="74.111404" xlink:href="#m2ddca6ac76" y="144.160775"/>
     <use style="stroke:#000000;" x="74.293043" xlink:href="#m2ddca6ac76" y="144.442845"/>
     <use style="stroke:#000000;" x="74.474682" xlink:href="#m2ddca6ac76" y="144.717863"/>
     <use style="stroke:#000000;" x="74.65632" xlink:href="#m2ddca6ac76" y="144.98594"/>
     <use style="stroke:#000000;" x="74.837959" xlink:href="#m2ddca6ac76" y="145.247296"/>
     <use style="stroke:#000000;" x="75.019597" xlink:href="#m2ddca6ac76" y="145.502371"/>
     <use style="stroke:#000000;" x="75.201236" xlink:href="#m2ddca6ac76" y="145.751165"/>
     <use style="stroke:#000000;" x="75.382874" xlink:href="#m2ddca6ac76" y="145.99401"/>
     <use style="stroke:#000000;" x="75.564513" xlink:href="#m2ddca6ac76" y="146.231015"/>
     <use style="stroke:#000000;" x="75.776424" xlink:href="#m2ddca6ac76" y="146.462401"/>
     <use style="stroke:#000000;" x="75.958063" xlink:href="#m2ddca6ac76" y="146.688387"/>
     <use style="stroke:#000000;" x="76.139701" xlink:href="#m2ddca6ac76" y="146.909195"/>
     <use style="stroke:#000000;" x="76.32134" xlink:href="#m2ddca6ac76" y="147.125045"/>
     <use style="stroke:#000000;" x="76.502979" xlink:href="#m2ddca6ac76" y="147.335936"/>
     <use style="stroke:#000000;" x="76.684617" xlink:href="#m2ddca6ac76" y="147.54209"/>
     <use style="stroke:#000000;" x="76.866256" xlink:href="#m2ddca6ac76" y="147.743836"/>
     <use style="stroke:#000000;" x="77.047894" xlink:href="#m2ddca6ac76" y="147.941175"/>
     <use style="stroke:#000000;" x="77.229533" xlink:href="#m2ddca6ac76" y="148.134217"/>
     <use style="stroke:#000000;" x="77.411171" xlink:href="#m2ddca6ac76" y="148.323292"/>
     <use style="stroke:#000000;" x="77.623083" xlink:href="#m2ddca6ac76" y="148.50829"/>
     <use style="stroke:#000000;" x="77.804721" xlink:href="#m2ddca6ac76" y="148.689652"/>
     <use style="stroke:#000000;" x="77.98636" xlink:href="#m2ddca6ac76" y="148.867268"/>
     <use style="stroke:#000000;" x="78.167999" xlink:href="#m2ddca6ac76" y="149.041248"/>
     <use style="stroke:#000000;" x="78.349637" xlink:href="#m2ddca6ac76" y="149.211923"/>
     <use style="stroke:#000000;" x="78.531276" xlink:href="#m2ddca6ac76" y="149.379292"/>
     <use style="stroke:#000000;" x="78.712914" xlink:href="#m2ddca6ac76" y="149.543465"/>
     <use style="stroke:#000000;" x="78.894553" xlink:href="#m2ddca6ac76" y="149.704554"/>
     <use style="stroke:#000000;" x="79.076191" xlink:href="#m2ddca6ac76" y="149.862667"/>
     <use style="stroke:#000000;" x="79.288103" xlink:href="#m2ddca6ac76" y="150.017916"/>
     <use style="stroke:#000000;" x="79.469741" xlink:href="#m2ddca6ac76" y="150.17041"/>
     <use style="stroke:#000000;" x="79.65138" xlink:href="#m2ddca6ac76" y="150.32015"/>
     <use style="stroke:#000000;" x="79.833019" xlink:href="#m2ddca6ac76" y="150.467355"/>
     <use style="stroke:#000000;" x="80.014657" xlink:href="#m2ddca6ac76" y="150.612136"/>
     <use style="stroke:#000000;" x="80.196296" xlink:href="#m2ddca6ac76" y="150.754383"/>
     <use style="stroke:#000000;" x="80.377934" xlink:href="#m2ddca6ac76" y="150.894427"/>
     <use style="stroke:#000000;" x="80.650392" xlink:href="#m2ddca6ac76" y="151.102013"/>
     <use style="stroke:#000000;" x="80.953123" xlink:href="#m2ddca6ac76" y="151.30475"/>
     <use style="stroke:#000000;" x="81.225581" xlink:href="#m2ddca6ac76" y="151.502861"/>
     <use style="stroke:#000000;" x="81.498038" xlink:href="#m2ddca6ac76" y="151.696563"/>
     <use style="stroke:#000000;" x="81.770496" xlink:href="#m2ddca6ac76" y="151.885969"/>
     <use style="stroke:#000000;" x="82.073227" xlink:href="#m2ddca6ac76" y="152.071408"/>
     <use style="stroke:#000000;" x="82.345685" xlink:href="#m2ddca6ac76" y="152.253101"/>
     <use style="stroke:#000000;" x="82.618143" xlink:href="#m2ddca6ac76" y="152.431047"/>
     <use style="stroke:#000000;" x="82.890601" xlink:href="#m2ddca6ac76" y="152.605689"/>
     <use style="stroke:#000000;" x="83.193332" xlink:href="#m2ddca6ac76" y="152.777024"/>
     <use style="stroke:#000000;" x="83.465789" xlink:href="#m2ddca6ac76" y="152.945274"/>
     <use style="stroke:#000000;" x="83.738247" xlink:href="#m2ddca6ac76" y="153.11044"/>
     <use style="stroke:#000000;" x="84.010705" xlink:href="#m2ddca6ac76" y="153.272961"/>
     <use style="stroke:#000000;" x="84.313436" xlink:href="#m2ddca6ac76" y="153.432617"/>
     <use style="stroke:#000000;" x="84.585894" xlink:href="#m2ddca6ac76" y="153.589849"/>
     <use style="stroke:#000000;" x="84.858352" xlink:href="#m2ddca6ac76" y="153.744546"/>
     <use style="stroke:#000000;" x="85.130809" xlink:href="#m2ddca6ac76" y="153.897041"/>
     <use style="stroke:#000000;" x="85.43354" xlink:href="#m2ddca6ac76" y="154.047221"/>
     <use style="stroke:#000000;" x="85.705998" xlink:href="#m2ddca6ac76" y="154.195308"/>
     <use style="stroke:#000000;" x="85.978456" xlink:href="#m2ddca6ac76" y="154.341411"/>
     <use style="stroke:#000000;" x="86.250914" xlink:href="#m2ddca6ac76" y="154.485531"/>
     <use style="stroke:#000000;" x="86.553645" xlink:href="#m2ddca6ac76" y="154.627778"/>
     <use style="stroke:#000000;" x="86.826102" xlink:href="#m2ddca6ac76" y="154.768373"/>
     <use style="stroke:#000000;" x="87.09856" xlink:href="#m2ddca6ac76" y="154.907204"/>
     <use style="stroke:#000000;" x="87.522383" xlink:href="#m2ddca6ac76" y="155.112586"/>
     <use style="stroke:#000000;" x="87.946207" xlink:href="#m2ddca6ac76" y="155.314663"/>
     <use style="stroke:#000000;" x="88.37003" xlink:href="#m2ddca6ac76" y="155.513545"/>
     <use style="stroke:#000000;" x="88.793853" xlink:href="#m2ddca6ac76" y="155.709451"/>
     <use style="stroke:#000000;" x="89.187403" xlink:href="#m2ddca6ac76" y="155.902603"/>
     <use style="stroke:#000000;" x="89.611227" xlink:href="#m2ddca6ac76" y="156.09311"/>
     <use style="stroke:#000000;" x="90.03505" xlink:href="#m2ddca6ac76" y="156.281194"/>
     <use style="stroke:#000000;" x="90.458873" xlink:href="#m2ddca6ac76" y="156.467074"/>
     <use style="stroke:#000000;" x="90.882696" xlink:href="#m2ddca6ac76" y="156.65075"/>
     <use style="stroke:#000000;" x="91.30652" xlink:href="#m2ddca6ac76" y="156.832332"/>
     <use style="stroke:#000000;" x="91.730343" xlink:href="#m2ddca6ac76" y="157.012152"/>
     <use style="stroke:#000000;" x="92.154166" xlink:href="#m2ddca6ac76" y="157.190099"/>
     <use style="stroke:#000000;" x="92.456897" xlink:href="#m2ddca6ac76" y="157.366392"/>
     <use style="stroke:#000000;" x="93.062359" xlink:href="#m2ddca6ac76" y="157.541033"/>
     <use style="stroke:#000000;" x="93.36509" xlink:href="#m2ddca6ac76" y="157.714132"/>
     <use style="stroke:#000000;" x="93.970552" xlink:href="#m2ddca6ac76" y="157.885908"/>
     <use style="stroke:#000000;" x="94.273283" xlink:href="#m2ddca6ac76" y="158.056252"/>
     <use style="stroke:#000000;" x="94.576014" xlink:href="#m2ddca6ac76" y="158.225384"/>
     <use style="stroke:#000000;" x="95.181475" xlink:href="#m2ddca6ac76" y="158.393304"/>
     <use style="stroke:#000000;" x="95.484206" xlink:href="#m2ddca6ac76" y="158.560012"/>
     <use style="stroke:#000000;" x="95.786937" xlink:href="#m2ddca6ac76" y="158.725618"/>
     <use style="stroke:#000000;" x="96.392399" xlink:href="#m2ddca6ac76" y="158.890232"/>
     <use style="stroke:#000000;" x="96.69513" xlink:href="#m2ddca6ac76" y="159.053744"/>
     <use style="stroke:#000000;" x="97.300592" xlink:href="#m2ddca6ac76" y="159.216375"/>
     <use style="stroke:#000000;" x="97.603323" xlink:href="#m2ddca6ac76" y="159.378125"/>
     <use style="stroke:#000000;" x="97.906053" xlink:href="#m2ddca6ac76" y="159.538993"/>
     <use style="stroke:#000000;" x="98.511515" xlink:href="#m2ddca6ac76" y="159.69898"/>
     <use style="stroke:#000000;" x="98.814246" xlink:href="#m2ddca6ac76" y="159.858195"/>
     <use style="stroke:#000000;" x="99.419708" xlink:href="#m2ddca6ac76" y="160.016639"/>
     <use style="stroke:#000000;" x="99.722439" xlink:href="#m2ddca6ac76" y="160.174422"/>
     <use style="stroke:#000000;" x="100.02517" xlink:href="#m2ddca6ac76" y="160.331434"/>
     <use style="stroke:#000000;" x="100.630632" xlink:href="#m2ddca6ac76" y="160.566125"/>
     <use style="stroke:#000000;" x="101.236093" xlink:href="#m2ddca6ac76" y="160.799494"/>
     <use style="stroke:#000000;" x="102.144286" xlink:href="#m2ddca6ac76" y="161.03143"/>
     <use style="stroke:#000000;" x="102.749748" xlink:href="#m2ddca6ac76" y="161.262045"/>
     <use style="stroke:#000000;" x="103.35521" xlink:href="#m2ddca6ac76" y="161.491337"/>
     <use style="stroke:#000000;" x="103.960672" xlink:href="#m2ddca6ac76" y="161.719527"/>
     <use style="stroke:#000000;" x="104.566133" xlink:href="#m2ddca6ac76" y="161.946615"/>
     <use style="stroke:#000000;" x="105.171595" xlink:href="#m2ddca6ac76" y="162.172492"/>
     <use style="stroke:#000000;" x="105.777057" xlink:href="#m2ddca6ac76" y="162.397377"/>
     <use style="stroke:#000000;" x="106.382519" xlink:href="#m2ddca6ac76" y="162.62116"/>
     <use style="stroke:#000000;" x="106.987981" xlink:href="#m2ddca6ac76" y="162.843951"/>
     <use style="stroke:#000000;" x="107.593442" xlink:href="#m2ddca6ac76" y="163.065861"/>
     <use style="stroke:#000000;" x="108.198904" xlink:href="#m2ddca6ac76" y="163.286779"/>
     <use style="stroke:#000000;" x="108.959061" xlink:href="#m2ddca6ac76" y="163.506816"/>
     <use style="stroke:#000000;" x="109.590558" xlink:href="#m2ddca6ac76" y="163.725971"/>
     <use style="stroke:#000000;" x="110.221752" xlink:href="#m2ddca6ac76" y="163.944244"/>
     <use style="stroke:#000000;" x="110.853249" xlink:href="#m2ddca6ac76" y="164.161747"/>
     <use style="stroke:#000000;" x="111.484443" xlink:href="#m2ddca6ac76" y="164.378258"/>
     <use style="stroke:#000000;" x="112.115939" xlink:href="#m2ddca6ac76" y="164.594108"/>
     <use style="stroke:#000000;" x="112.747133" xlink:href="#m2ddca6ac76" y="164.809076"/>
     <use style="stroke:#000000;" x="113.378327" xlink:href="#m2ddca6ac76" y="165.023273"/>
     <use style="stroke:#000000;" x="114.009824" xlink:href="#m2ddca6ac76" y="165.236588"/>
     <use style="stroke:#000000;" x="114.641018" xlink:href="#m2ddca6ac76" y="165.449243"/>
     <use style="stroke:#000000;" x="115.272514" xlink:href="#m2ddca6ac76" y="165.661126"/>
     <use style="stroke:#000000;" x="116.22763" xlink:href="#m2ddca6ac76" y="165.980328"/>
     <use style="stroke:#000000;" x="117.183049" xlink:href="#m2ddca6ac76" y="166.297767"/>
     <use style="stroke:#000000;" x="118.138468" xlink:href="#m2ddca6ac76" y="166.613553"/>
     <use style="stroke:#000000;" x="119.093584" xlink:href="#m2ddca6ac76" y="166.927686"/>
     <use style="stroke:#000000;" x="120.049003" xlink:href="#m2ddca6ac76" y="167.240167"/>
     <use style="stroke:#000000;" x="121.004119" xlink:href="#m2ddca6ac76" y="167.550995"/>
     <use style="stroke:#000000;" x="121.959537" xlink:href="#m2ddca6ac76" y="167.86017"/>
     <use style="stroke:#000000;" x="122.914956" xlink:href="#m2ddca6ac76" y="168.167803"/>
     <use style="stroke:#000000;" x="123.870072" xlink:href="#m2ddca6ac76" y="168.473893"/>
     <use style="stroke:#000000;" x="124.825491" xlink:href="#m2ddca6ac76" y="168.77822"/>
     <use style="stroke:#000000;" x="125.780607" xlink:href="#m2ddca6ac76" y="169.081115"/>
     <use style="stroke:#000000;" x="126.736026" xlink:href="#m2ddca6ac76" y="169.382357"/>
     <use style="stroke:#000000;" x="127.691444" xlink:href="#m2ddca6ac76" y="169.681946"/>
     <use style="stroke:#000000;" x="128.64656" xlink:href="#m2ddca6ac76" y="169.980103"/>
     <use style="stroke:#000000;" x="129.601979" xlink:href="#m2ddca6ac76" y="170.276497"/>
     <use style="stroke:#000000;" x="130.557095" xlink:href="#m2ddca6ac76" y="170.571459"/>
     <use style="stroke:#000000;" x="131.512514" xlink:href="#m2ddca6ac76" y="170.864768"/>
     <use style="stroke:#000000;" x="132.467933" xlink:href="#m2ddca6ac76" y="171.156534"/>
     <use style="stroke:#000000;" x="133.423049" xlink:href="#m2ddca6ac76" y="171.446758"/>
     <use style="stroke:#000000;" x="134.378467" xlink:href="#m2ddca6ac76" y="171.735329"/>
     <use style="stroke:#000000;" x="135.333583" xlink:href="#m2ddca6ac76" y="172.022467"/>
     <use style="stroke:#000000;" x="136.289002" xlink:href="#m2ddca6ac76" y="172.307953"/>
     <use style="stroke:#000000;" x="137.244118" xlink:href="#m2ddca6ac76" y="172.591786"/>
     <use style="stroke:#000000;" x="138.199537" xlink:href="#m2ddca6ac76" y="172.874186"/>
     <use style="stroke:#000000;" x="139.154955" xlink:href="#m2ddca6ac76" y="173.154934"/>
     <use style="stroke:#000000;" x="140.110071" xlink:href="#m2ddca6ac76" y="173.43414"/>
     <use style="stroke:#000000;" x="141.06549" xlink:href="#m2ddca6ac76" y="173.711692"/>
     <use style="stroke:#000000;" x="142.020606" xlink:href="#m2ddca6ac76" y="173.987812"/>
     <use style="stroke:#000000;" x="142.976025" xlink:href="#m2ddca6ac76" y="174.26228"/>
     <use style="stroke:#000000;" x="143.931444" xlink:href="#m2ddca6ac76" y="174.535205"/>
     <use style="stroke:#000000;" x="144.88656" xlink:href="#m2ddca6ac76" y="174.806587"/>
     <use style="stroke:#000000;" x="145.841978" xlink:href="#m2ddca6ac76" y="175.076427"/>
     <use style="stroke:#000000;" x="146.797094" xlink:href="#m2ddca6ac76" y="175.344613"/>
     <use style="stroke:#000000;" x="147.752513" xlink:href="#m2ddca6ac76" y="175.611368"/>
     <use style="stroke:#000000;" x="148.707932" xlink:href="#m2ddca6ac76" y="175.87647"/>
     <use style="stroke:#000000;" x="149.663048" xlink:href="#m2ddca6ac76" y="176.140029"/>
     <use style="stroke:#000000;" x="150.618467" xlink:href="#m2ddca6ac76" y="176.402046"/>
     <use style="stroke:#000000;" x="151.573583" xlink:href="#m2ddca6ac76" y="176.66252"/>
     <use style="stroke:#000000;" x="152.529001" xlink:href="#m2ddca6ac76" y="176.921451"/>
     <use style="stroke:#000000;" x="153.48442" xlink:href="#m2ddca6ac76" y="177.17884"/>
     <use style="stroke:#000000;" x="154.439536" xlink:href="#m2ddca6ac76" y="177.434576"/>
     <use style="stroke:#000000;" x="155.394955" xlink:href="#m2ddca6ac76" y="177.68888"/>
     <use style="stroke:#000000;" x="156.350071" xlink:href="#m2ddca6ac76" y="177.941641"/>
     <use style="stroke:#000000;" x="157.30549" xlink:href="#m2ddca6ac76" y="178.19286"/>
     <use style="stroke:#000000;" x="158.260908" xlink:href="#m2ddca6ac76" y="178.442536"/>
     <use style="stroke:#000000;" x="159.216024" xlink:href="#m2ddca6ac76" y="178.69067"/>
     <use style="stroke:#000000;" x="160.171443" xlink:href="#m2ddca6ac76" y="178.937371"/>
     <use style="stroke:#000000;" x="161.126559" xlink:href="#m2ddca6ac76" y="179.182529"/>
     <use style="stroke:#000000;" x="162.081978" xlink:href="#m2ddca6ac76" y="179.426145"/>
     <use style="stroke:#000000;" x="163.037396" xlink:href="#m2ddca6ac76" y="179.668219"/>
     <use style="stroke:#000000;" x="163.992512" xlink:href="#m2ddca6ac76" y="179.90875"/>
     <use style="stroke:#000000;" x="164.947931" xlink:href="#m2ddca6ac76" y="180.147848"/>
     <use style="stroke:#000000;" x="165.903047" xlink:href="#m2ddca6ac76" y="180.385514"/>
     <use style="stroke:#000000;" x="166.858466" xlink:href="#m2ddca6ac76" y="180.621638"/>
     <use style="stroke:#000000;" x="167.813582" xlink:href="#m2ddca6ac76" y="180.856219"/>
     <use style="stroke:#000000;" x="168.769001" xlink:href="#m2ddca6ac76" y="181.089367"/>
     <use style="stroke:#000000;" x="169.724419" xlink:href="#m2ddca6ac76" y="181.321083"/>
     <use style="stroke:#000000;" x="170.679535" xlink:href="#m2ddca6ac76" y="181.551257"/>
     <use style="stroke:#000000;" x="171.634954" xlink:href="#m2ddca6ac76" y="181.780108"/>
     <use style="stroke:#000000;" x="172.59007" xlink:href="#m2ddca6ac76" y="182.007307"/>
     <use style="stroke:#000000;" x="173.545489" xlink:href="#m2ddca6ac76" y="182.233183"/>
     <use style="stroke:#000000;" x="174.500908" xlink:href="#m2ddca6ac76" y="182.457627"/>
     <use style="stroke:#000000;" x="175.456024" xlink:href="#m2ddca6ac76" y="182.680639"/>
     <use style="stroke:#000000;" x="176.411442" xlink:href="#m2ddca6ac76" y="182.902108"/>
     <use style="stroke:#000000;" x="177.366558" xlink:href="#m2ddca6ac76" y="183.122255"/>
     <use style="stroke:#000000;" x="178.321977" xlink:href="#m2ddca6ac76" y="183.34097"/>
     <use style="stroke:#000000;" x="179.277396" xlink:href="#m2ddca6ac76" y="183.558252"/>
     <use style="stroke:#000000;" x="180.232512" xlink:href="#m2ddca6ac76" y="183.774212"/>
     <use style="stroke:#000000;" x="181.187931" xlink:href="#m2ddca6ac76" y="183.988739"/>
     <use style="stroke:#000000;" x="182.143047" xlink:href="#m2ddca6ac76" y="184.201834"/>
     <use style="stroke:#000000;" x="183.098465" xlink:href="#m2ddca6ac76" y="184.413497"/>
     <use style="stroke:#000000;" x="184.053884" xlink:href="#m2ddca6ac76" y="184.623948"/>
     <use style="stroke:#000000;" x="185.009" xlink:href="#m2ddca6ac76" y="184.832856"/>
     <use style="stroke:#000000;" x="185.964419" xlink:href="#m2ddca6ac76" y="185.040552"/>
     <use style="stroke:#000000;" x="186.919535" xlink:href="#m2ddca6ac76" y="185.246816"/>
     <use style="stroke:#000000;" x="187.874953" xlink:href="#m2ddca6ac76" y="185.451757"/>
     <use style="stroke:#000000;" x="188.830372" xlink:href="#m2ddca6ac76" y="185.655377"/>
     <use style="stroke:#000000;" x="189.785488" xlink:href="#m2ddca6ac76" y="185.857674"/>
     <use style="stroke:#000000;" x="190.740907" xlink:href="#m2ddca6ac76" y="186.058649"/>
     <use style="stroke:#000000;" x="191.696023" xlink:href="#m2ddca6ac76" y="186.258191"/>
     <use style="stroke:#000000;" x="192.651442" xlink:href="#m2ddca6ac76" y="186.456522"/>
     <use style="stroke:#000000;" x="193.606558" xlink:href="#m2ddca6ac76" y="186.65364"/>
     <use style="stroke:#000000;" x="194.561976" xlink:href="#m2ddca6ac76" y="186.849326"/>
     <use style="stroke:#000000;" x="195.517395" xlink:href="#m2ddca6ac76" y="187.0438"/>
     <use style="stroke:#000000;" x="196.472511" xlink:href="#m2ddca6ac76" y="187.236952"/>
     <use style="stroke:#000000;" x="197.42793" xlink:href="#m2ddca6ac76" y="187.428892"/>
     <use style="stroke:#000000;" x="198.383046" xlink:href="#m2ddca6ac76" y="187.61951"/>
     <use style="stroke:#000000;" x="199.338465" xlink:href="#m2ddca6ac76" y="187.808915"/>
     <use style="stroke:#000000;" x="200.293883" xlink:href="#m2ddca6ac76" y="187.996999"/>
     <use style="stroke:#000000;" x="201.248999" xlink:href="#m2ddca6ac76" y="188.183981"/>
     <use style="stroke:#000000;" x="202.204418" xlink:href="#m2ddca6ac76" y="188.36964"/>
     <use style="stroke:#000000;" x="203.159534" xlink:href="#m2ddca6ac76" y="188.554087"/>
     <use style="stroke:#000000;" x="204.114953" xlink:href="#m2ddca6ac76" y="188.737213"/>
     <use style="stroke:#000000;" x="205.070372" xlink:href="#m2ddca6ac76" y="188.919236"/>
     <use style="stroke:#000000;" x="206.025488" xlink:href="#m2ddca6ac76" y="189.100047"/>
     <use style="stroke:#000000;" x="206.980906" xlink:href="#m2ddca6ac76" y="189.279646"/>
     <use style="stroke:#000000;" x="207.936022" xlink:href="#m2ddca6ac76" y="189.458144"/>
     <use style="stroke:#000000;" x="208.891441" xlink:href="#m2ddca6ac76" y="189.635319"/>
     <use style="stroke:#000000;" x="209.84686" xlink:href="#m2ddca6ac76" y="189.811393"/>
     <use style="stroke:#000000;" x="210.801976" xlink:href="#m2ddca6ac76" y="189.986254"/>
     <use style="stroke:#000000;" x="211.757394" xlink:href="#m2ddca6ac76" y="190.160014"/>
     <use style="stroke:#000000;" x="212.71251" xlink:href="#m2ddca6ac76" y="190.332561"/>
     <use style="stroke:#000000;" x="213.667929" xlink:href="#m2ddca6ac76" y="190.504007"/>
     <use style="stroke:#000000;" x="214.623348" xlink:href="#m2ddca6ac76" y="190.674351"/>
     <use style="stroke:#000000;" x="215.578464" xlink:href="#m2ddca6ac76" y="190.843483"/>
     <use style="stroke:#000000;" x="216.533883" xlink:href="#m2ddca6ac76" y="191.011513"/>
     <use style="stroke:#000000;" x="217.488999" xlink:href="#m2ddca6ac76" y="191.178441"/>
     <use style="stroke:#000000;" x="218.444417" xlink:href="#m2ddca6ac76" y="191.344157"/>
     <use style="stroke:#000000;" x="219.399836" xlink:href="#m2ddca6ac76" y="191.508882"/>
     <use style="stroke:#000000;" x="220.354952" xlink:href="#m2ddca6ac76" y="191.672394"/>
     <use style="stroke:#000000;" x="221.310371" xlink:href="#m2ddca6ac76" y="191.834915"/>
     <use style="stroke:#000000;" x="222.265487" xlink:href="#m2ddca6ac76" y="191.996224"/>
     <use style="stroke:#000000;" x="223.220906" xlink:href="#m2ddca6ac76" y="192.156541"/>
     <use style="stroke:#000000;" x="224.176022" xlink:href="#m2ddca6ac76" y="192.315756"/>
     <use style="stroke:#000000;" x="225.13144" xlink:href="#m2ddca6ac76" y="192.47387"/>
     <use style="stroke:#000000;" x="226.086859" xlink:href="#m2ddca6ac76" y="192.630992"/>
     <use style="stroke:#000000;" x="227.041975" xlink:href="#m2ddca6ac76" y="192.786901"/>
     <use style="stroke:#000000;" x="227.997394" xlink:href="#m2ddca6ac76" y="192.94193"/>
     <use style="stroke:#000000;" x="228.95251" xlink:href="#m2ddca6ac76" y="193.095746"/>
     <use style="stroke:#000000;" x="229.907929" xlink:href="#m2ddca6ac76" y="193.248571"/>
     <use style="stroke:#000000;" x="230.863347" xlink:href="#m2ddca6ac76" y="193.400404"/>
     <use style="stroke:#000000;" x="231.818463" xlink:href="#m2ddca6ac76" y="193.551135"/>
     <use style="stroke:#000000;" x="232.773882" xlink:href="#m2ddca6ac76" y="193.700875"/>
     <use style="stroke:#000000;" x="233.728998" xlink:href="#m2ddca6ac76" y="193.849622"/>
     <use style="stroke:#000000;" x="234.684417" xlink:href="#m2ddca6ac76" y="193.997269"/>
     <use style="stroke:#000000;" x="235.639835" xlink:href="#m2ddca6ac76" y="194.143923"/>
     <use style="stroke:#000000;" x="236.594951" xlink:href="#m2ddca6ac76" y="194.289586"/>
     <use style="stroke:#000000;" x="237.55037" xlink:href="#m2ddca6ac76" y="194.434147"/>
     <use style="stroke:#000000;" x="238.505486" xlink:href="#m2ddca6ac76" y="194.577826"/>
     <use style="stroke:#000000;" x="239.460905" xlink:href="#m2ddca6ac76" y="194.720404"/>
     <use style="stroke:#000000;" x="240.416324" xlink:href="#m2ddca6ac76" y="194.8621"/>
     <use style="stroke:#000000;" x="241.37144" xlink:href="#m2ddca6ac76" y="195.002694"/>
     <use style="stroke:#000000;" x="242.326858" xlink:href="#m2ddca6ac76" y="195.142407"/>
     <use style="stroke:#000000;" x="243.281974" xlink:href="#m2ddca6ac76" y="195.281018"/>
     <use style="stroke:#000000;" x="244.716919" xlink:href="#m2ddca6ac76" y="195.487392"/>
     <use style="stroke:#000000;" x="246.151561" xlink:href="#m2ddca6ac76" y="195.691672"/>
     <use style="stroke:#000000;" x="247.586202" xlink:href="#m2ddca6ac76" y="195.893639"/>
     <use style="stroke:#000000;" x="249.020844" xlink:href="#m2ddca6ac76" y="196.093512"/>
     <use style="stroke:#000000;" x="250.455486" xlink:href="#m2ddca6ac76" y="196.291292"/>
     <use style="stroke:#000000;" x="251.890128" xlink:href="#m2ddca6ac76" y="196.486757"/>
     <use style="stroke:#000000;" x="253.325072" xlink:href="#m2ddca6ac76" y="196.68024"/>
     <use style="stroke:#000000;" x="254.759714" xlink:href="#m2ddca6ac76" y="196.871519"/>
     <use style="stroke:#000000;" x="256.194356" xlink:href="#m2ddca6ac76" y="197.060704"/>
     <use style="stroke:#000000;" x="257.628997" xlink:href="#m2ddca6ac76" y="197.247796"/>
     <use style="stroke:#000000;" x="259.063639" xlink:href="#m2ddca6ac76" y="197.432794"/>
     <use style="stroke:#000000;" x="260.498584" xlink:href="#m2ddca6ac76" y="197.615699"/>
     <use style="stroke:#000000;" x="261.933225" xlink:href="#m2ddca6ac76" y="197.79651"/>
     <use style="stroke:#000000;" x="263.367867" xlink:href="#m2ddca6ac76" y="197.975338"/>
     <use style="stroke:#000000;" x="264.802509" xlink:href="#m2ddca6ac76" y="198.152073"/>
     <use style="stroke:#000000;" x="266.237151" xlink:href="#m2ddca6ac76" y="198.326824"/>
     <use style="stroke:#000000;" x="267.672095" xlink:href="#m2ddca6ac76" y="198.499482"/>
     <use style="stroke:#000000;" x="269.106737" xlink:href="#m2ddca6ac76" y="198.670156"/>
     <use style="stroke:#000000;" x="270.541379" xlink:href="#m2ddca6ac76" y="198.838737"/>
     <use style="stroke:#000000;" x="271.97602" xlink:href="#m2ddca6ac76" y="199.005445"/>
     <use style="stroke:#000000;" x="273.410662" xlink:href="#m2ddca6ac76" y="199.170169"/>
     <use style="stroke:#000000;" x="274.845304" xlink:href="#m2ddca6ac76" y="199.33291"/>
     <use style="stroke:#000000;" x="276.280248" xlink:href="#m2ddca6ac76" y="199.493668"/>
     <use style="stroke:#000000;" x="277.71489" xlink:href="#m2ddca6ac76" y="199.652443"/>
     <use style="stroke:#000000;" x="279.149532" xlink:href="#m2ddca6ac76" y="199.809234"/>
     <use style="stroke:#000000;" x="280.584174" xlink:href="#m2ddca6ac76" y="199.964263"/>
     <use style="stroke:#000000;" x="282.018815" xlink:href="#m2ddca6ac76" y="200.117198"/>
     <use style="stroke:#000000;" x="283.45376" xlink:href="#m2ddca6ac76" y="200.268369"/>
     <use style="stroke:#000000;" x="284.888402" xlink:href="#m2ddca6ac76" y="200.417558"/>
     <use style="stroke:#000000;" x="286.323043" xlink:href="#m2ddca6ac76" y="200.564984"/>
     <use style="stroke:#000000;" x="287.757685" xlink:href="#m2ddca6ac76" y="200.710426"/>
     <use style="stroke:#000000;" x="289.192327" xlink:href="#m2ddca6ac76" y="200.853995"/>
     <use style="stroke:#000000;" x="290.626969" xlink:href="#m2ddca6ac76" y="200.995802"/>
     <use style="stroke:#000000;" x="292.061913" xlink:href="#m2ddca6ac76" y="201.135735"/>
     <use style="stroke:#000000;" x="293.496555" xlink:href="#m2ddca6ac76" y="201.273795"/>
     <use style="stroke:#000000;" x="294.931197" xlink:href="#m2ddca6ac76" y="201.410202"/>
     <use style="stroke:#000000;" x="296.365838" xlink:href="#m2ddca6ac76" y="201.544626"/>
     <use style="stroke:#000000;" x="297.80048" xlink:href="#m2ddca6ac76" y="201.677398"/>
     <use style="stroke:#000000;" x="299.235425" xlink:href="#m2ddca6ac76" y="201.808406"/>
     <use style="stroke:#000000;" x="300.670066" xlink:href="#m2ddca6ac76" y="201.937541"/>
     <use style="stroke:#000000;" x="302.104708" xlink:href="#m2ddca6ac76" y="202.065024"/>
     <use style="stroke:#000000;" x="303.53935" xlink:href="#m2ddca6ac76" y="202.190853"/>
     <use style="stroke:#000000;" x="304.973992" xlink:href="#m2ddca6ac76" y="202.31481"/>
     <use style="stroke:#000000;" x="306.408936" xlink:href="#m2ddca6ac76" y="202.437224"/>
     <use style="stroke:#000000;" x="307.843578" xlink:href="#m2ddca6ac76" y="202.557875"/>
     <use style="stroke:#000000;" x="309.27822" xlink:href="#m2ddca6ac76" y="202.676873"/>
     <use style="stroke:#000000;" x="310.712861" xlink:href="#m2ddca6ac76" y="202.794219"/>
     <use style="stroke:#000000;" x="312.147503" xlink:href="#m2ddca6ac76" y="202.909912"/>
     <use style="stroke:#000000;" x="313.582145" xlink:href="#m2ddca6ac76" y="203.024062"/>
     <use style="stroke:#000000;" x="315.017089" xlink:href="#m2ddca6ac76" y="203.136449"/>
     <use style="stroke:#000000;" x="316.451731" xlink:href="#m2ddca6ac76" y="203.247404"/>
     <use style="stroke:#000000;" x="317.886373" xlink:href="#m2ddca6ac76" y="203.356706"/>
     <use style="stroke:#000000;" x="319.321015" xlink:href="#m2ddca6ac76" y="203.464466"/>
     <use style="stroke:#000000;" x="320.755656" xlink:href="#m2ddca6ac76" y="203.570683"/>
     <use style="stroke:#000000;" x="322.190601" xlink:href="#m2ddca6ac76" y="203.675357"/>
     <use style="stroke:#000000;" x="323.625243" xlink:href="#m2ddca6ac76" y="203.778599"/>
     <use style="stroke:#000000;" x="325.059884" xlink:href="#m2ddca6ac76" y="203.880299"/>
     <use style="stroke:#000000;" x="326.494526" xlink:href="#m2ddca6ac76" y="203.980566"/>
     <use style="stroke:#000000;" x="327.929168" xlink:href="#m2ddca6ac76" y="204.07929"/>
     <use style="stroke:#000000;" x="329.36381" xlink:href="#m2ddca6ac76" y="204.176693"/>
     <use style="stroke:#000000;" x="330.798754" xlink:href="#m2ddca6ac76" y="204.272552"/>
     <use style="stroke:#000000;" x="332.233396" xlink:href="#m2ddca6ac76" y="204.36709"/>
     <use style="stroke:#000000;" x="333.668038" xlink:href="#m2ddca6ac76" y="204.460195"/>
     <use style="stroke:#000000;" x="335.102679" xlink:href="#m2ddca6ac76" y="204.551868"/>
     <use style="stroke:#000000;" x="336.537321" xlink:href="#m2ddca6ac76" y="204.642329"/>
     <use style="stroke:#000000;" x="337.972266" xlink:href="#m2ddca6ac76" y="204.731357"/>
     <use style="stroke:#000000;" x="339.406907" xlink:href="#m2ddca6ac76" y="204.819063"/>
     <use style="stroke:#000000;" x="340.841549" xlink:href="#m2ddca6ac76" y="204.905557"/>
     <use style="stroke:#000000;" x="342.276191" xlink:href="#m2ddca6ac76" y="204.990619"/>
     <use style="stroke:#000000;" x="343.710833" xlink:href="#m2ddca6ac76" y="205.074469"/>
     <use style="stroke:#000000;" x="345.145777" xlink:href="#m2ddca6ac76" y="205.157107"/>
     <use style="stroke:#000000;" x="346.580419" xlink:href="#m2ddca6ac76" y="205.238532"/>
     <use style="stroke:#000000;" x="348.015061" xlink:href="#m2ddca6ac76" y="205.318636"/>
     <use style="stroke:#000000;" x="349.449702" xlink:href="#m2ddca6ac76" y="205.397637"/>
     <use style="stroke:#000000;" x="350.884344" xlink:href="#m2ddca6ac76" y="205.475427"/>
     <use style="stroke:#000000;" x="352.318986" xlink:href="#m2ddca6ac76" y="205.552115"/>
     <use style="stroke:#000000;" x="353.75393" xlink:href="#m2ddca6ac76" y="205.627481"/>
     <use style="stroke:#000000;" x="355.188572" xlink:href="#m2ddca6ac76" y="205.701854"/>
     <use style="stroke:#000000;" x="356.623214" xlink:href="#m2ddca6ac76" y="205.775127"/>
     <use style="stroke:#000000;" x="358.057856" xlink:href="#m2ddca6ac76" y="205.847187"/>
     <use style="stroke:#000000;" x="359.492497" xlink:href="#m2ddca6ac76" y="205.918255"/>
     <use style="stroke:#000000;" x="360.927442" xlink:href="#m2ddca6ac76" y="205.988222"/>
     <use style="stroke:#000000;" x="362.362084" xlink:href="#m2ddca6ac76" y="206.057197"/>
     <use style="stroke:#000000;" x="363.796725" xlink:href="#m2ddca6ac76" y="206.12507"/>
     <use style="stroke:#000000;" x="365.232578" xlink:href="#m2ddca6ac76" y="206.191951"/>
    </g>
   </g>
   <g id="line2d_18">
    <path clip-path="url(#ped7fd2a386)" d="M 65.123324 87.72088 
L 65.54412 84.507222 
L 65.93767 83.078046 
L 66.179855 82.772726 
L 66.422039 82.813206 
L 66.664224 83.132842 
L 67.057774 84.116112 
L 67.632963 86.246579 
L 68.783341 91.623022 
L 70.841911 101.148058 
L 72.2042 106.34511 
L 73.536216 110.521782 
L 74.837959 113.87599 
L 76.139701 116.657475 
L 77.623083 119.287983 
L 79.076191 121.443368 
L 80.650392 123.430071 
L 82.618143 125.541954 
L 84.858352 127.5995 
L 87.522383 129.727387 
L 90.882696 132.109228 
L 95.484206 135.06327 
L 101.236093 138.49835 
L 109.590558 143.218269 
L 118.138468 147.802869 
L 126.736026 152.162791 
L 135.333583 156.255172 
L 143.931444 160.074107 
L 152.529001 163.622536 
L 161.126559 166.911424 
L 169.724419 169.954026 
L 178.321977 172.764378 
L 186.919535 175.359235 
L 196.472511 178.015258 
L 206.980906 180.699393 
L 218.444417 183.393288 
L 230.863347 186.080975 
L 243.281974 188.549074 
L 256.194356 190.884043 
L 269.106737 192.974524 
L 280.584174 194.61983 
L 293.496555 196.230981 
L 306.408936 197.60064 
L 319.321015 198.751342 
L 333.668038 199.809223 
L 350.884344 200.835762 
L 365.232578 201.534365 
L 365.232578 201.534365 
" style="fill:none;stroke:#0000ff;stroke-dasharray:5.55,2.4;stroke-dashoffset:0;stroke-width:1.5;"/>
   </g>
   <g id="line2d_19">
    <path clip-path="url(#ped7fd2a386)" d="M 65.123324 129.991183 
L 65.604666 126.558236 
L 65.998216 124.980787 
L 66.33122 124.302299 
L 66.664224 124.097 
L 66.906409 124.181534 
L 67.299959 124.644416 
L 67.784329 125.609423 
L 68.601702 127.802063 
L 71.931742 137.272558 
L 73.172939 140.023614 
L 74.474682 142.425338 
L 75.958063 144.665916 
L 77.411171 146.458957 
L 79.076191 148.143473 
L 80.953123 149.692664 
L 82.890601 151.010471 
L 85.130809 152.280377 
L 87.946207 153.613396 
L 91.30652 154.954161 
L 95.786937 156.490966 
L 102.144286 158.418918 
L 114.009824 161.735456 
L 143.931444 169.812564 
L 168.769001 176.299385 
L 191.696023 182.064957 
L 207.936022 185.929654 
L 220.354952 188.664467 
L 231.818463 190.966307 
L 243.281974 193.034289 
L 254.759714 194.871363 
L 266.237151 196.489862 
L 279.149532 198.081974 
L 293.496555 199.614828 
L 309.27822 201.069366 
L 326.494526 202.435959 
L 345.145777 203.697259 
L 365.232578 204.841471 
L 365.232578 204.841471 
" style="fill:none;stroke:#0000ff;stroke-dasharray:5.55,2.4;stroke-dashoffset:0;stroke-width:1.5;"/>
   </g>
   <g id="line2d_20"/>
   <g id="line2d_21"/>
   <g id="line2d_22"/>
   <g id="line2d_23"/>
   <g id="line2d_24"/>
   <g id="line2d_25"/>
   <g id="patch_3">
    <path d="M 46.965625 239.758125 
L 46.965625 22.318125 
" style="fill:none;stroke:#000000;stroke-linecap:square;stroke-linejoin:miter;stroke-width:0.8;"/>
   </g>
   <g id="patch_4">
    <path d="M 381.765625 239.758125 
L 381.765625 22.318125 
" style="fill:none;stroke:#000000;stroke-linecap:square;stroke-linejoin:miter;stroke-width:0.8;"/>
   </g>
   <g id="patch_5">
    <path d="M 46.965625 239.758125 
L 381.765625 239.758125 
" style="fill:none;stroke:#000000;stroke-linecap:square;stroke-linejoin:miter;stroke-width:0.8;"/>
   </g>
   <g id="patch_6">
    <path d="M 46.965625 22.318125 
L 381.765625 22.318125 
" style="fill:none;stroke:#000000;stroke-linecap:square;stroke-linejoin:miter;stroke-width:0.8;"/>
   </g>
   <g id="text_17">
    <!-- Experiment_21 -->
    <defs>
     <path d="M 9.8125 72.90625 
L 55.90625 72.90625 
L 55.90625 64.59375 
L 19.671875 64.59375 
L 19.671875 43.015625 
L 54.390625 43.015625 
L 54.390625 34.71875 
L 19.671875 34.71875 
L 19.671875 8.296875 
L 56.78125 8.296875 
L 56.78125 0 
L 9.8125 0 
z
" id="DejaVuSans-69"/>
     <path d="M 54.890625 54.6875 
L 35.109375 28.078125 
L 55.90625 0 
L 45.3125 0 
L 29.390625 21.484375 
L 13.484375 0 
L 2.875 0 
L 24.125 28.609375 
L 4.6875 54.6875 
L 15.28125 54.6875 
L 29.78125 35.203125 
L 44.28125 54.6875 
z
" id="DejaVuSans-120"/>
     <path d="M 41.109375 46.296875 
Q 39.59375 47.171875 37.8125 47.578125 
Q 36.03125 48 33.890625 48 
Q 26.265625 48 22.1875 43.046875 
Q 18.109375 38.09375 18.109375 28.8125 
L 18.109375 0 
L 9.078125 0 
L 9.078125 54.6875 
L 18.109375 54.6875 
L 18.109375 46.1875 
Q 20.953125 51.171875 25.484375 53.578125 
Q 30.03125 56 36.53125 56 
Q 37.453125 56 38.578125 55.875 
Q 39.703125 55.765625 41.0625 55.515625 
z
" id="DejaVuSans-114"/>
     <path d="M 54.890625 33.015625 
L 54.890625 0 
L 45.90625 0 
L 45.90625 32.71875 
Q 45.90625 40.484375 42.875 44.328125 
Q 39.84375 48.1875 33.796875 48.1875 
Q 26.515625 48.1875 22.3125 43.546875 
Q 18.109375 38.921875 18.109375 30.90625 
L 18.109375 0 
L 9.078125 0 
L 9.078125 54.6875 
L 18.109375 54.6875 
L 18.109375 46.1875 
Q 21.34375 51.125 25.703125 53.5625 
Q 30.078125 56 35.796875 56 
Q 45.21875 56 50.046875 50.171875 
Q 54.890625 44.34375 54.890625 33.015625 
z
" id="DejaVuSans-110"/>
     <path d="M 18.3125 70.21875 
L 18.3125 54.6875 
L 36.8125 54.6875 
L 36.8125 47.703125 
L 18.3125 47.703125 
L 18.3125 18.015625 
Q 18.3125 11.328125 20.140625 9.421875 
Q 21.96875 7.515625 27.59375 7.515625 
L 36.8125 7.515625 
L 36.8125 0 
L 27.59375 0 
Q 17.1875 0 13.234375 3.875 
Q 9.28125 7.765625 9.28125 18.015625 
L 9.28125 47.703125 
L 2.6875 47.703125 
L 2.6875 54.6875 
L 9.28125 54.6875 
L 9.28125 70.21875 
z
" id="DejaVuSans-116"/>
     <path d="M 50.984375 -16.609375 
L 50.984375 -23.578125 
L -0.984375 -23.578125 
L -0.984375 -16.609375 
z
" id="DejaVuSans-95"/>
    </defs>
    <g transform="translate(169.062813 16.318125)scale(0.12 -0.12)">
     <use xlink:href="#DejaVuSans-69"/>
     <use x="63.183594" xlink:href="#DejaVuSans-120"/>
     <use x="122.363281" xlink:href="#DejaVuSans-112"/>
     <use x="185.839844" xlink:href="#DejaVuSans-101"/>
     <use x="247.363281" xlink:href="#DejaVuSans-114"/>
     <use x="288.476562" xlink:href="#DejaVuSans-105"/>
     <use x="316.259766" xlink:href="#DejaVuSans-109"/>
     <use x="413.671875" xlink:href="#DejaVuSans-101"/>
     <use x="475.195312" xlink:href="#DejaVuSans-110"/>
     <use x="538.574219" xlink:href="#DejaVuSans-116"/>
     <use x="577.783203" xlink:href="#DejaVuSans-95"/>
     <use x="627.783203" xlink:href="#DejaVuSans-50"/>
     <use x="691.40625" xlink:href="#DejaVuSans-49"/>
    </g>
   </g>
   <g id="legend_1">
    <g id="patch_7">
     <path d="M 118.645313 103.730625 
L 374.765625 103.730625 
Q 376.765625 103.730625 376.765625 101.730625 
L 376.765625 29.318125 
Q 376.765625 27.318125 374.765625 27.318125 
L 118.645313 27.318125 
Q 116.645313 27.318125 116.645313 29.318125 
L 116.645313 101.730625 
Q 116.645313 103.730625 118.645313 103.730625 
z
" style="fill:#ffffff;opacity:0.8;stroke:#cccccc;stroke-linejoin:miter;"/>
    </g>
    <g id="line2d_26">
     <path d="M 120.645313 35.416562 
L 140.645313 35.416562 
" style="fill:none;stroke:#0000ff;stroke-linecap:square;stroke-width:1.5;"/>
    </g>
    <g id="line2d_27"/>
    <g id="text_18">
     <!-- MSI -->
     <defs>
      <path d="M 9.8125 72.90625 
L 24.515625 72.90625 
L 43.109375 23.296875 
L 61.8125 72.90625 
L 76.515625 72.90625 
L 76.515625 0 
L 66.890625 0 
L 66.890625 64.015625 
L 48.09375 14.015625 
L 38.1875 14.015625 
L 19.390625 64.015625 
L 19.390625 0 
L 9.8125 0 
z
" id="DejaVuSans-77"/>
      <path d="M 53.515625 70.515625 
L 53.515625 60.890625 
Q 47.90625 63.578125 42.921875 64.890625 
Q 37.9375 66.21875 33.296875 66.21875 
Q 25.25 66.21875 20.875 63.09375 
Q 16.5 59.96875 16.5 54.203125 
Q 16.5 49.359375 19.40625 46.890625 
Q 22.3125 44.4375 30.421875 42.921875 
L 36.375 41.703125 
Q 47.40625 39.59375 52.65625 34.296875 
Q 57.90625 29 57.90625 20.125 
Q 57.90625 9.515625 50.796875 4.046875 
Q 43.703125 -1.421875 29.984375 -1.421875 
Q 24.8125 -1.421875 18.96875 -0.25 
Q 13.140625 0.921875 6.890625 3.21875 
L 6.890625 13.375 
Q 12.890625 10.015625 18.65625 8.296875 
Q 24.421875 6.59375 29.984375 6.59375 
Q 38.421875 6.59375 43.015625 9.90625 
Q 47.609375 13.234375 47.609375 19.390625 
Q 47.609375 24.75 44.3125 27.78125 
Q 41.015625 30.8125 33.5 32.328125 
L 27.484375 33.5 
Q 16.453125 35.6875 11.515625 40.375 
Q 6.59375 45.0625 6.59375 53.421875 
Q 6.59375 63.09375 13.40625 68.65625 
Q 20.21875 74.21875 32.171875 74.21875 
Q 37.3125 74.21875 42.625 73.28125 
Q 47.953125 72.359375 53.515625 70.515625 
z
" id="DejaVuSans-83"/>
      <path d="M 9.8125 72.90625 
L 19.671875 72.90625 
L 19.671875 0 
L 9.8125 0 
z
" id="DejaVuSans-73"/>
     </defs>
     <g transform="translate(148.645313 38.916562)scale(0.1 -0.1)">
      <use xlink:href="#DejaVuSans-77"/>
      <use x="86.279297" xlink:href="#DejaVuSans-83"/>
      <use x="149.755859" xlink:href="#DejaVuSans-73"/>
     </g>
    </g>
    <g id="line2d_28">
     <path d="M 120.645313 50.09625 
L 140.645313 50.09625 
" style="fill:none;stroke:#ff0000;stroke-linecap:square;stroke-width:1.5;"/>
    </g>
    <g id="line2d_29"/>
    <g id="text_19">
     <!-- $\it{A priori}$ model -->
     <defs>
      <path d="M 36.8125 72.90625 
L 48 72.90625 
L 61.53125 0 
L 51.21875 0 
L 48.1875 18.703125 
L 15.375 18.703125 
L 5.078125 0 
L -5.328125 0 
z
M 40.375 63.1875 
L 19.921875 26.90625 
L 46.6875 26.90625 
z
" id="DejaVuSans-Oblique-65"/>
      <path d="M 49.609375 33.6875 
Q 49.609375 40.875 46.484375 44.671875 
Q 43.359375 48.484375 37.5 48.484375 
Q 33.5 48.484375 29.859375 46.4375 
Q 26.21875 44.390625 23.390625 40.484375 
Q 20.609375 36.625 18.9375 31.15625 
Q 17.28125 25.6875 17.28125 20.3125 
Q 17.28125 13.484375 20.40625 9.796875 
Q 23.53125 6.109375 29.296875 6.109375 
Q 33.546875 6.109375 37.1875 8.109375 
Q 40.828125 10.109375 43.40625 13.921875 
Q 46.1875 17.921875 47.890625 23.34375 
Q 49.609375 28.765625 49.609375 33.6875 
z
M 21.78125 46.390625 
Q 25.390625 51.125 30.296875 53.5625 
Q 35.203125 56 41.21875 56 
Q 49.609375 56 54.25 50.5 
Q 58.890625 45.015625 58.890625 35.109375 
Q 58.890625 27 56 19.65625 
Q 53.125 12.3125 47.703125 6.5 
Q 44.09375 2.640625 39.546875 0.609375 
Q 35.015625 -1.421875 29.984375 -1.421875 
Q 24.171875 -1.421875 20.21875 1 
Q 16.265625 3.421875 14.3125 8.203125 
L 8.6875 -20.796875 
L -0.296875 -20.796875 
L 14.40625 54.6875 
L 23.390625 54.6875 
z
" id="DejaVuSans-Oblique-112"/>
      <path d="M 44.578125 46.390625 
Q 43.21875 47.125 41.453125 47.515625 
Q 39.703125 47.90625 37.703125 47.90625 
Q 30.515625 47.90625 25.140625 42.453125 
Q 19.78125 37.015625 18.015625 27.875 
L 12.5 0 
L 3.515625 0 
L 14.203125 54.6875 
L 23.1875 54.6875 
L 21.484375 46.1875 
Q 25.046875 50.921875 30 53.453125 
Q 34.96875 56 40.578125 56 
Q 42.046875 56 43.453125 55.828125 
Q 44.875 55.671875 46.296875 55.28125 
z
" id="DejaVuSans-Oblique-114"/>
      <path d="M 18.3125 75.984375 
L 27.296875 75.984375 
L 25.09375 64.59375 
L 16.109375 64.59375 
z
M 14.203125 54.6875 
L 23.1875 54.6875 
L 12.5 0 
L 3.515625 0 
z
" id="DejaVuSans-Oblique-105"/>
      <path d="M 25.390625 -1.421875 
Q 15.765625 -1.421875 10.171875 4.515625 
Q 4.59375 10.453125 4.59375 20.703125 
Q 4.59375 26.65625 6.515625 32.828125 
Q 8.453125 39.015625 11.53125 43.21875 
Q 16.359375 49.75 22.3125 52.875 
Q 28.265625 56 35.796875 56 
Q 45.125 56 50.859375 50.1875 
Q 56.59375 44.390625 56.59375 35.015625 
Q 56.59375 28.515625 54.6875 22.0625 
Q 52.78125 15.625 49.703125 11.375 
Q 44.921875 4.828125 38.96875 1.703125 
Q 33.015625 -1.421875 25.390625 -1.421875 
z
M 13.921875 21 
Q 13.921875 13.578125 17.015625 9.890625 
Q 20.125 6.203125 26.421875 6.203125 
Q 35.453125 6.203125 41.375 14.078125 
Q 47.3125 21.96875 47.3125 34.078125 
Q 47.3125 41.15625 44.140625 44.765625 
Q 40.96875 48.390625 34.8125 48.390625 
Q 29.734375 48.390625 25.78125 46.015625 
Q 21.828125 43.65625 18.703125 38.8125 
Q 16.40625 35.203125 15.15625 30.5625 
Q 13.921875 25.921875 13.921875 21 
z
" id="DejaVuSans-Oblique-111"/>
      <path d="M 30.609375 48.390625 
Q 23.390625 48.390625 19.1875 42.75 
Q 14.984375 37.109375 14.984375 27.296875 
Q 14.984375 17.484375 19.15625 11.84375 
Q 23.34375 6.203125 30.609375 6.203125 
Q 37.796875 6.203125 41.984375 11.859375 
Q 46.1875 17.53125 46.1875 27.296875 
Q 46.1875 37.015625 41.984375 42.703125 
Q 37.796875 48.390625 30.609375 48.390625 
z
M 30.609375 56 
Q 42.328125 56 49.015625 48.375 
Q 55.71875 40.765625 55.71875 27.296875 
Q 55.71875 13.875 49.015625 6.21875 
Q 42.328125 -1.421875 30.609375 -1.421875 
Q 18.84375 -1.421875 12.171875 6.21875 
Q 5.515625 13.875 5.515625 27.296875 
Q 5.515625 40.765625 12.171875 48.375 
Q 18.84375 56 30.609375 56 
z
" id="DejaVuSans-111"/>
      <path d="M 45.40625 46.390625 
L 45.40625 75.984375 
L 54.390625 75.984375 
L 54.390625 0 
L 45.40625 0 
L 45.40625 8.203125 
Q 42.578125 3.328125 38.25 0.953125 
Q 33.9375 -1.421875 27.875 -1.421875 
Q 17.96875 -1.421875 11.734375 6.484375 
Q 5.515625 14.40625 5.515625 27.296875 
Q 5.515625 40.1875 11.734375 48.09375 
Q 17.96875 56 27.875 56 
Q 33.9375 56 38.25 53.625 
Q 42.578125 51.265625 45.40625 46.390625 
z
M 14.796875 27.296875 
Q 14.796875 17.390625 18.875 11.75 
Q 22.953125 6.109375 30.078125 6.109375 
Q 37.203125 6.109375 41.296875 11.75 
Q 45.40625 17.390625 45.40625 27.296875 
Q 45.40625 37.203125 41.296875 42.84375 
Q 37.203125 48.484375 30.078125 48.484375 
Q 22.953125 48.484375 18.875 42.84375 
Q 14.796875 37.203125 14.796875 27.296875 
z
" id="DejaVuSans-100"/>
      <path d="M 9.421875 75.984375 
L 18.40625 75.984375 
L 18.40625 0 
L 9.421875 0 
z
" id="DejaVuSans-108"/>
     </defs>
     <g transform="translate(148.645313 53.59625)scale(0.1 -0.1)">
      <use transform="translate(0 0.015625)" xlink:href="#DejaVuSans-Oblique-65"/>
      <use transform="translate(68.408203 0.015625)" xlink:href="#DejaVuSans-Oblique-112"/>
      <use transform="translate(131.884766 0.015625)" xlink:href="#DejaVuSans-Oblique-114"/>
      <use transform="translate(172.998047 0.015625)" xlink:href="#DejaVuSans-Oblique-105"/>
      <use transform="translate(200.78125 0.015625)" xlink:href="#DejaVuSans-Oblique-111"/>
      <use transform="translate(261.962891 0.015625)" xlink:href="#DejaVuSans-Oblique-114"/>
      <use transform="translate(303.076172 0.015625)" xlink:href="#DejaVuSans-Oblique-105"/>
      <use transform="translate(330.859375 0.015625)" xlink:href="#DejaVuSans-32"/>
      <use transform="translate(362.646484 0.015625)" xlink:href="#DejaVuSans-109"/>
      <use transform="translate(460.058594 0.015625)" xlink:href="#DejaVuSans-111"/>
      <use transform="translate(521.240234 0.015625)" xlink:href="#DejaVuSans-100"/>
      <use transform="translate(584.716797 0.015625)" xlink:href="#DejaVuSans-101"/>
      <use transform="translate(646.240234 0.015625)" xlink:href="#DejaVuSans-108"/>
     </g>
    </g>
    <g id="line2d_30"/>
    <g id="line2d_31">
     <g>
      <use style="stroke:#000000;" x="130.645313" xlink:href="#m2ddca6ac76" y="64.794688"/>
     </g>
    </g>
    <g id="text_20">
     <!-- Experimental Data -->
     <defs>
      <path d="M 34.28125 27.484375 
Q 23.390625 27.484375 19.1875 25 
Q 14.984375 22.515625 14.984375 16.5 
Q 14.984375 11.71875 18.140625 8.90625 
Q 21.296875 6.109375 26.703125 6.109375 
Q 34.1875 6.109375 38.703125 11.40625 
Q 43.21875 16.703125 43.21875 25.484375 
L 43.21875 27.484375 
z
M 52.203125 31.203125 
L 52.203125 0 
L 43.21875 0 
L 43.21875 8.296875 
Q 40.140625 3.328125 35.546875 0.953125 
Q 30.953125 -1.421875 24.3125 -1.421875 
Q 15.921875 -1.421875 10.953125 3.296875 
Q 6 8.015625 6 15.921875 
Q 6 25.140625 12.171875 29.828125 
Q 18.359375 34.515625 30.609375 34.515625 
L 43.21875 34.515625 
L 43.21875 35.40625 
Q 43.21875 41.609375 39.140625 45 
Q 35.0625 48.390625 27.6875 48.390625 
Q 23 48.390625 18.546875 47.265625 
Q 14.109375 46.140625 10.015625 43.890625 
L 10.015625 52.203125 
Q 14.9375 54.109375 19.578125 55.046875 
Q 24.21875 56 28.609375 56 
Q 40.484375 56 46.34375 49.84375 
Q 52.203125 43.703125 52.203125 31.203125 
z
" id="DejaVuSans-97"/>
      <path d="M 19.671875 64.796875 
L 19.671875 8.109375 
L 31.59375 8.109375 
Q 46.6875 8.109375 53.6875 14.9375 
Q 60.6875 21.78125 60.6875 36.53125 
Q 60.6875 51.171875 53.6875 57.984375 
Q 46.6875 64.796875 31.59375 64.796875 
z
M 9.8125 72.90625 
L 30.078125 72.90625 
Q 51.265625 72.90625 61.171875 64.09375 
Q 71.09375 55.28125 71.09375 36.53125 
Q 71.09375 17.671875 61.125 8.828125 
Q 51.171875 0 30.078125 0 
L 9.8125 0 
z
" id="DejaVuSans-68"/>
     </defs>
     <g transform="translate(148.645313 68.294688)scale(0.1 -0.1)">
      <use xlink:href="#DejaVuSans-69"/>
      <use x="63.183594" xlink:href="#DejaVuSans-120"/>
      <use x="122.363281" xlink:href="#DejaVuSans-112"/>
      <use x="185.839844" xlink:href="#DejaVuSans-101"/>
      <use x="247.363281" xlink:href="#DejaVuSans-114"/>
      <use x="288.476562" xlink:href="#DejaVuSans-105"/>
      <use x="316.259766" xlink:href="#DejaVuSans-109"/>
      <use x="413.671875" xlink:href="#DejaVuSans-101"/>
      <use x="475.195312" xlink:href="#DejaVuSans-110"/>
      <use x="538.574219" xlink:href="#DejaVuSans-116"/>
      <use x="577.783203" xlink:href="#DejaVuSans-97"/>
      <use x="639.0625" xlink:href="#DejaVuSans-108"/>
      <use x="666.845703" xlink:href="#DejaVuSans-32"/>
      <use x="698.632812" xlink:href="#DejaVuSans-68"/>
      <use x="775.634766" xlink:href="#DejaVuSans-97"/>
      <use x="836.914062" xlink:href="#DejaVuSans-116"/>
      <use x="876.123047" xlink:href="#DejaVuSans-97"/>
     </g>
    </g>
    <g id="line2d_32">
     <path d="M 120.645313 79.472813 
L 140.645313 79.472813 
" style="fill:none;stroke:#ffffff;stroke-linecap:square;stroke-width:1.5;"/>
    </g>
    <g id="line2d_33"/>
    <g id="text_21">
     <!-- T:1245 -->
     <defs>
      <path d="M 11.71875 12.40625 
L 22.015625 12.40625 
L 22.015625 0 
L 11.71875 0 
z
M 11.71875 51.703125 
L 22.015625 51.703125 
L 22.015625 39.3125 
L 11.71875 39.3125 
z
" id="DejaVuSans-58"/>
     </defs>
     <g transform="translate(148.645313 82.972813)scale(0.1 -0.1)">
      <use xlink:href="#DejaVuSans-84"/>
      <use x="60.912109" xlink:href="#DejaVuSans-58"/>
      <use x="94.603516" xlink:href="#DejaVuSans-49"/>
      <use x="158.226562" xlink:href="#DejaVuSans-50"/>
      <use x="221.849609" xlink:href="#DejaVuSans-52"/>
      <use x="285.472656" xlink:href="#DejaVuSans-53"/>
     </g>
    </g>
    <g id="line2d_34">
     <path d="M 120.645313 94.150937 
L 140.645313 94.150937 
" style="fill:none;stroke:#ffffff;stroke-linecap:square;stroke-width:1.5;"/>
    </g>
    <g id="line2d_35"/>
    <g id="text_22">
     <!-- P:1.644 -->
     <defs>
      <path d="M 19.671875 64.796875 
L 19.671875 37.40625 
L 32.078125 37.40625 
Q 38.96875 37.40625 42.71875 40.96875 
Q 46.484375 44.53125 46.484375 51.125 
Q 46.484375 57.671875 42.71875 61.234375 
Q 38.96875 64.796875 32.078125 64.796875 
z
M 9.8125 72.90625 
L 32.078125 72.90625 
Q 44.34375 72.90625 50.609375 67.359375 
Q 56.890625 61.8125 56.890625 51.125 
Q 56.890625 40.328125 50.609375 34.8125 
Q 44.34375 29.296875 32.078125 29.296875 
L 19.671875 29.296875 
L 19.671875 0 
L 9.8125 0 
z
" id="DejaVuSans-80"/>
     </defs>
     <g transform="translate(148.645313 97.650937)scale(0.1 -0.1)">
      <use xlink:href="#DejaVuSans-80"/>
      <use x="60.302734" xlink:href="#DejaVuSans-58"/>
      <use x="93.994141" xlink:href="#DejaVuSans-49"/>
      <use x="157.617188" xlink:href="#DejaVuSans-46"/>
      <use x="189.404297" xlink:href="#DejaVuSans-54"/>
      <use x="253.027344" xlink:href="#DejaVuSans-52"/>
      <use x="316.650391" xlink:href="#DejaVuSans-52"/>
     </g>
    </g>
    <g id="line2d_36">
     <path d="M 262.385938 35.416562 
L 282.385938 35.416562 
" style="fill:none;stroke:#ffffff;stroke-linecap:square;stroke-width:1.5;"/>
    </g>
    <g id="line2d_37"/>
    <g id="text_23">
     <!-- H2O2: 0.002058 -->
     <g transform="translate(290.385938 38.916562)scale(0.1 -0.1)">
      <use xlink:href="#DejaVuSans-72"/>
      <use x="75.195312" xlink:href="#DejaVuSans-50"/>
      <use x="138.818359" xlink:href="#DejaVuSans-79"/>
      <use x="217.529297" xlink:href="#DejaVuSans-50"/>
      <use x="281.152344" xlink:href="#DejaVuSans-58"/>
      <use x="314.84375" xlink:href="#DejaVuSans-32"/>
      <use x="346.630859" xlink:href="#DejaVuSans-48"/>
      <use x="410.253906" xlink:href="#DejaVuSans-46"/>
      <use x="442.041016" xlink:href="#DejaVuSans-48"/>
      <use x="505.664062" xlink:href="#DejaVuSans-48"/>
      <use x="569.287109" xlink:href="#DejaVuSans-50"/>
      <use x="632.910156" xlink:href="#DejaVuSans-48"/>
      <use x="696.533203" xlink:href="#DejaVuSans-53"/>
      <use x="760.15625" xlink:href="#DejaVuSans-56"/>
     </g>
    </g>
    <g id="line2d_38">
     <path d="M 262.385938 50.094687 
L 282.385938 50.094687 
" style="fill:none;stroke:#ffffff;stroke-linecap:square;stroke-width:1.5;"/>
    </g>
    <g id="line2d_39"/>
    <g id="text_24">
     <!-- H2O: 0.001113 -->
     <defs>
      <path d="M 40.578125 39.3125 
Q 47.65625 37.796875 51.625 33 
Q 55.609375 28.21875 55.609375 21.1875 
Q 55.609375 10.40625 48.1875 4.484375 
Q 40.765625 -1.421875 27.09375 -1.421875 
Q 22.515625 -1.421875 17.65625 -0.515625 
Q 12.796875 0.390625 7.625 2.203125 
L 7.625 11.71875 
Q 11.71875 9.328125 16.59375 8.109375 
Q 21.484375 6.890625 26.8125 6.890625 
Q 36.078125 6.890625 40.9375 10.546875 
Q 45.796875 14.203125 45.796875 21.1875 
Q 45.796875 27.640625 41.28125 31.265625 
Q 36.765625 34.90625 28.71875 34.90625 
L 20.21875 34.90625 
L 20.21875 43.015625 
L 29.109375 43.015625 
Q 36.375 43.015625 40.234375 45.921875 
Q 44.09375 48.828125 44.09375 54.296875 
Q 44.09375 59.90625 40.109375 62.90625 
Q 36.140625 65.921875 28.71875 65.921875 
Q 24.65625 65.921875 20.015625 65.03125 
Q 15.375 64.15625 9.8125 62.3125 
L 9.8125 71.09375 
Q 15.4375 72.65625 20.34375 73.4375 
Q 25.25 74.21875 29.59375 74.21875 
Q 40.828125 74.21875 47.359375 69.109375 
Q 53.90625 64.015625 53.90625 55.328125 
Q 53.90625 49.265625 50.4375 45.09375 
Q 46.96875 40.921875 40.578125 39.3125 
z
" id="DejaVuSans-51"/>
     </defs>
     <g transform="translate(290.385938 53.594687)scale(0.1 -0.1)">
      <use xlink:href="#DejaVuSans-72"/>
      <use x="75.195312" xlink:href="#DejaVuSans-50"/>
      <use x="138.818359" xlink:href="#DejaVuSans-79"/>
      <use x="217.513672" xlink:href="#DejaVuSans-58"/>
      <use x="251.205078" xlink:href="#DejaVuSans-32"/>
      <use x="282.992188" xlink:href="#DejaVuSans-48"/>
      <use x="346.615234" xlink:href="#DejaVuSans-46"/>
      <use x="378.402344" xlink:href="#DejaVuSans-48"/>
      <use x="442.025391" xlink:href="#DejaVuSans-48"/>
      <use x="505.648438" xlink:href="#DejaVuSans-49"/>
      <use x="569.271484" xlink:href="#DejaVuSans-49"/>
      <use x="632.894531" xlink:href="#DejaVuSans-49"/>
      <use x="696.517578" xlink:href="#DejaVuSans-51"/>
     </g>
    </g>
    <g id="line2d_40">
     <path d="M 262.385938 64.772812 
L 282.385938 64.772812 
" style="fill:none;stroke:#ffffff;stroke-linecap:square;stroke-width:1.5;"/>
    </g>
    <g id="line2d_41"/>
    <g id="text_25">
     <!-- O2: 0.000556 -->
     <g transform="translate(290.385938 68.272812)scale(0.1 -0.1)">
      <use xlink:href="#DejaVuSans-79"/>
      <use x="78.710938" xlink:href="#DejaVuSans-50"/>
      <use x="142.333984" xlink:href="#DejaVuSans-58"/>
      <use x="176.025391" xlink:href="#DejaVuSans-32"/>
      <use x="207.8125" xlink:href="#DejaVuSans-48"/>
      <use x="271.435547" xlink:href="#DejaVuSans-46"/>
      <use x="303.222656" xlink:href="#DejaVuSans-48"/>
      <use x="366.845703" xlink:href="#DejaVuSans-48"/>
      <use x="430.46875" xlink:href="#DejaVuSans-48"/>
      <use x="494.091797" xlink:href="#DejaVuSans-53"/>
      <use x="557.714844" xlink:href="#DejaVuSans-53"/>
      <use x="621.337891" xlink:href="#DejaVuSans-54"/>
     </g>
    </g>
    <g id="line2d_42">
     <path d="M 262.385938 79.450938 
L 282.385938 79.450938 
" style="fill:none;stroke:#ffffff;stroke-linecap:square;stroke-width:1.5;"/>
    </g>
    <g id="line2d_43"/>
    <g id="text_26">
     <!-- Ar: 0.996248 -->
     <defs>
      <path d="M 34.1875 63.1875 
L 20.796875 26.90625 
L 47.609375 26.90625 
z
M 28.609375 72.90625 
L 39.796875 72.90625 
L 67.578125 0 
L 57.328125 0 
L 50.6875 18.703125 
L 17.828125 18.703125 
L 11.1875 0 
L 0.78125 0 
z
" id="DejaVuSans-65"/>
      <path d="M 10.984375 1.515625 
L 10.984375 10.5 
Q 14.703125 8.734375 18.5 7.8125 
Q 22.3125 6.890625 25.984375 6.890625 
Q 35.75 6.890625 40.890625 13.453125 
Q 46.046875 20.015625 46.78125 33.40625 
Q 43.953125 29.203125 39.59375 26.953125 
Q 35.25 24.703125 29.984375 24.703125 
Q 19.046875 24.703125 12.671875 31.3125 
Q 6.296875 37.9375 6.296875 49.421875 
Q 6.296875 60.640625 12.9375 67.421875 
Q 19.578125 74.21875 30.609375 74.21875 
Q 43.265625 74.21875 49.921875 64.515625 
Q 56.59375 54.828125 56.59375 36.375 
Q 56.59375 19.140625 48.40625 8.859375 
Q 40.234375 -1.421875 26.421875 -1.421875 
Q 22.703125 -1.421875 18.890625 -0.6875 
Q 15.09375 0.046875 10.984375 1.515625 
z
M 30.609375 32.421875 
Q 37.25 32.421875 41.125 36.953125 
Q 45.015625 41.5 45.015625 49.421875 
Q 45.015625 57.28125 41.125 61.84375 
Q 37.25 66.40625 30.609375 66.40625 
Q 23.96875 66.40625 20.09375 61.84375 
Q 16.21875 57.28125 16.21875 49.421875 
Q 16.21875 41.5 20.09375 36.953125 
Q 23.96875 32.421875 30.609375 32.421875 
z
" id="DejaVuSans-57"/>
     </defs>
     <g transform="translate(290.385938 82.950938)scale(0.1 -0.1)">
      <use xlink:href="#DejaVuSans-65"/>
      <use x="68.408203" xlink:href="#DejaVuSans-114"/>
      <use x="109.505859" xlink:href="#DejaVuSans-58"/>
      <use x="143.197266" xlink:href="#DejaVuSans-32"/>
      <use x="174.984375" xlink:href="#DejaVuSans-48"/>
      <use x="238.607422" xlink:href="#DejaVuSans-46"/>
      <use x="270.394531" xlink:href="#DejaVuSans-57"/>
      <use x="334.017578" xlink:href="#DejaVuSans-57"/>
      <use x="397.640625" xlink:href="#DejaVuSans-54"/>
      <use x="461.263672" xlink:href="#DejaVuSans-50"/>
      <use x="524.886719" xlink:href="#DejaVuSans-52"/>
      <use x="588.509766" xlink:href="#DejaVuSans-56"/>
     </g>
    </g>
   </g>
  </g>
 </g>
 <defs>
  <clipPath id="ped7fd2a386">
   <rect height="217.44" width="334.8" x="46.965625" y="22.318125"/>
  </clipPath>
 </defs>
</svg>
