<?xml version="1.0" encoding="utf-8" standalone="no"?>
<!DOCTYPE svg PUBLIC "-//W3C//DTD SVG 1.1//EN"
  "http://www.w3.org/Graphics/SVG/1.1/DTD/svg11.dtd">
<!-- Created with matplotlib (https://matplotlib.org/) -->
<svg height="277.314375pt" version="1.1" viewBox="0 0 398.828125 277.314375" width="398.828125pt" xmlns="http://www.w3.org/2000/svg" xmlns:xlink="http://www.w3.org/1999/xlink">
 <defs>
  <style type="text/css">
*{stroke-linecap:butt;stroke-linejoin:round;}
  </style>
 </defs>
 <g id="figure_1">
  <g id="patch_1">
   <path d="M 0 277.314375 
L 398.828125 277.314375 
L 398.828125 0 
L 0 0 
z
" style="fill:none;"/>
  </g>
  <g id="axes_1">
   <g id="patch_2">
    <path d="M 53.328125 239.758125 
L 388.128125 239.758125 
L 388.128125 22.318125 
L 53.328125 22.318125 
z
" style="fill:none;"/>
   </g>
   <g id="matplotlib.axis_1">
    <g id="xtick_1">
     <g id="line2d_1">
      <defs>
       <path d="M 0 0 
L 0 3.5 
" id="mf5bc9ceaf4" style="stroke:#000000;stroke-width:0.8;"/>
      </defs>
      <g>
       <use style="stroke:#000000;stroke-width:0.8;" x="68.546307" xlink:href="#mf5bc9ceaf4" y="239.758125"/>
      </g>
     </g>
     <g id="text_1">
      <!-- 0.0 -->
      <defs>
       <path d="M 31.78125 66.40625 
Q 24.171875 66.40625 20.328125 58.90625 
Q 16.5 51.421875 16.5 36.375 
Q 16.5 21.390625 20.328125 13.890625 
Q 24.171875 6.390625 31.78125 6.390625 
Q 39.453125 6.390625 43.28125 13.890625 
Q 47.125 21.390625 47.125 36.375 
Q 47.125 51.421875 43.28125 58.90625 
Q 39.453125 66.40625 31.78125 66.40625 
z
M 31.78125 74.21875 
Q 44.046875 74.21875 50.515625 64.515625 
Q 56.984375 54.828125 56.984375 36.375 
Q 56.984375 17.96875 50.515625 8.265625 
Q 44.046875 -1.421875 31.78125 -1.421875 
Q 19.53125 -1.421875 13.0625 8.265625 
Q 6.59375 17.96875 6.59375 36.375 
Q 6.59375 54.828125 13.0625 64.515625 
Q 19.53125 74.21875 31.78125 74.21875 
z
" id="DejaVuSans-48"/>
       <path d="M 10.6875 12.40625 
L 21 12.40625 
L 21 0 
L 10.6875 0 
z
" id="DejaVuSans-46"/>
      </defs>
      <g transform="translate(60.594744 254.356562)scale(0.1 -0.1)">
       <use xlink:href="#DejaVuSans-48"/>
       <use x="63.623047" xlink:href="#DejaVuSans-46"/>
       <use x="95.410156" xlink:href="#DejaVuSans-48"/>
      </g>
     </g>
    </g>
    <g id="xtick_2">
     <g id="line2d_2">
      <g>
       <use style="stroke:#000000;stroke-width:0.8;" x="129.272684" xlink:href="#mf5bc9ceaf4" y="239.758125"/>
      </g>
     </g>
     <g id="text_2">
      <!-- 0.2 -->
      <defs>
       <path d="M 19.1875 8.296875 
L 53.609375 8.296875 
L 53.609375 0 
L 7.328125 0 
L 7.328125 8.296875 
Q 12.9375 14.109375 22.625 23.890625 
Q 32.328125 33.6875 34.8125 36.53125 
Q 39.546875 41.84375 41.421875 45.53125 
Q 43.3125 49.21875 43.3125 52.78125 
Q 43.3125 58.59375 39.234375 62.25 
Q 35.15625 65.921875 28.609375 65.921875 
Q 23.96875 65.921875 18.8125 64.3125 
Q 13.671875 62.703125 7.8125 59.421875 
L 7.8125 69.390625 
Q 13.765625 71.78125 18.9375 73 
Q 24.125 74.21875 28.421875 74.21875 
Q 39.75 74.21875 46.484375 68.546875 
Q 53.21875 62.890625 53.21875 53.421875 
Q 53.21875 48.921875 51.53125 44.890625 
Q 49.859375 40.875 45.40625 35.40625 
Q 44.1875 33.984375 37.640625 27.21875 
Q 31.109375 20.453125 19.1875 8.296875 
z
" id="DejaVuSans-50"/>
      </defs>
      <g transform="translate(121.321121 254.356562)scale(0.1 -0.1)">
       <use xlink:href="#DejaVuSans-48"/>
       <use x="63.623047" xlink:href="#DejaVuSans-46"/>
       <use x="95.410156" xlink:href="#DejaVuSans-50"/>
      </g>
     </g>
    </g>
    <g id="xtick_3">
     <g id="line2d_3">
      <g>
       <use style="stroke:#000000;stroke-width:0.8;" x="189.99906" xlink:href="#mf5bc9ceaf4" y="239.758125"/>
      </g>
     </g>
     <g id="text_3">
      <!-- 0.4 -->
      <defs>
       <path d="M 37.796875 64.3125 
L 12.890625 25.390625 
L 37.796875 25.390625 
z
M 35.203125 72.90625 
L 47.609375 72.90625 
L 47.609375 25.390625 
L 58.015625 25.390625 
L 58.015625 17.1875 
L 47.609375 17.1875 
L 47.609375 0 
L 37.796875 0 
L 37.796875 17.1875 
L 4.890625 17.1875 
L 4.890625 26.703125 
z
" id="DejaVuSans-52"/>
      </defs>
      <g transform="translate(182.047498 254.356562)scale(0.1 -0.1)">
       <use xlink:href="#DejaVuSans-48"/>
       <use x="63.623047" xlink:href="#DejaVuSans-46"/>
       <use x="95.410156" xlink:href="#DejaVuSans-52"/>
      </g>
     </g>
    </g>
    <g id="xtick_4">
     <g id="line2d_4">
      <g>
       <use style="stroke:#000000;stroke-width:0.8;" x="250.725437" xlink:href="#mf5bc9ceaf4" y="239.758125"/>
      </g>
     </g>
     <g id="text_4">
      <!-- 0.6 -->
      <defs>
       <path d="M 33.015625 40.375 
Q 26.375 40.375 22.484375 35.828125 
Q 18.609375 31.296875 18.609375 23.390625 
Q 18.609375 15.53125 22.484375 10.953125 
Q 26.375 6.390625 33.015625 6.390625 
Q 39.65625 6.390625 43.53125 10.953125 
Q 47.40625 15.53125 47.40625 23.390625 
Q 47.40625 31.296875 43.53125 35.828125 
Q 39.65625 40.375 33.015625 40.375 
z
M 52.59375 71.296875 
L 52.59375 62.3125 
Q 48.875 64.0625 45.09375 64.984375 
Q 41.3125 65.921875 37.59375 65.921875 
Q 27.828125 65.921875 22.671875 59.328125 
Q 17.53125 52.734375 16.796875 39.40625 
Q 19.671875 43.65625 24.015625 45.921875 
Q 28.375 48.1875 33.59375 48.1875 
Q 44.578125 48.1875 50.953125 41.515625 
Q 57.328125 34.859375 57.328125 23.390625 
Q 57.328125 12.15625 50.6875 5.359375 
Q 44.046875 -1.421875 33.015625 -1.421875 
Q 20.359375 -1.421875 13.671875 8.265625 
Q 6.984375 17.96875 6.984375 36.375 
Q 6.984375 53.65625 15.1875 63.9375 
Q 23.390625 74.21875 37.203125 74.21875 
Q 40.921875 74.21875 44.703125 73.484375 
Q 48.484375 72.75 52.59375 71.296875 
z
" id="DejaVuSans-54"/>
      </defs>
      <g transform="translate(242.773874 254.356562)scale(0.1 -0.1)">
       <use xlink:href="#DejaVuSans-48"/>
       <use x="63.623047" xlink:href="#DejaVuSans-46"/>
       <use x="95.410156" xlink:href="#DejaVuSans-54"/>
      </g>
     </g>
    </g>
    <g id="xtick_5">
     <g id="line2d_5">
      <g>
       <use style="stroke:#000000;stroke-width:0.8;" x="311.451814" xlink:href="#mf5bc9ceaf4" y="239.758125"/>
      </g>
     </g>
     <g id="text_5">
      <!-- 0.8 -->
      <defs>
       <path d="M 31.78125 34.625 
Q 24.75 34.625 20.71875 30.859375 
Q 16.703125 27.09375 16.703125 20.515625 
Q 16.703125 13.921875 20.71875 10.15625 
Q 24.75 6.390625 31.78125 6.390625 
Q 38.8125 6.390625 42.859375 10.171875 
Q 46.921875 13.96875 46.921875 20.515625 
Q 46.921875 27.09375 42.890625 30.859375 
Q 38.875 34.625 31.78125 34.625 
z
M 21.921875 38.8125 
Q 15.578125 40.375 12.03125 44.71875 
Q 8.5 49.078125 8.5 55.328125 
Q 8.5 64.0625 14.71875 69.140625 
Q 20.953125 74.21875 31.78125 74.21875 
Q 42.671875 74.21875 48.875 69.140625 
Q 55.078125 64.0625 55.078125 55.328125 
Q 55.078125 49.078125 51.53125 44.71875 
Q 48 40.375 41.703125 38.8125 
Q 48.828125 37.15625 52.796875 32.3125 
Q 56.78125 27.484375 56.78125 20.515625 
Q 56.78125 9.90625 50.3125 4.234375 
Q 43.84375 -1.421875 31.78125 -1.421875 
Q 19.734375 -1.421875 13.25 4.234375 
Q 6.78125 9.90625 6.78125 20.515625 
Q 6.78125 27.484375 10.78125 32.3125 
Q 14.796875 37.15625 21.921875 38.8125 
z
M 18.3125 54.390625 
Q 18.3125 48.734375 21.84375 45.5625 
Q 25.390625 42.390625 31.78125 42.390625 
Q 38.140625 42.390625 41.71875 45.5625 
Q 45.3125 48.734375 45.3125 54.390625 
Q 45.3125 60.0625 41.71875 63.234375 
Q 38.140625 66.40625 31.78125 66.40625 
Q 25.390625 66.40625 21.84375 63.234375 
Q 18.3125 60.0625 18.3125 54.390625 
z
" id="DejaVuSans-56"/>
      </defs>
      <g transform="translate(303.500251 254.356562)scale(0.1 -0.1)">
       <use xlink:href="#DejaVuSans-48"/>
       <use x="63.623047" xlink:href="#DejaVuSans-46"/>
       <use x="95.410156" xlink:href="#DejaVuSans-56"/>
      </g>
     </g>
    </g>
    <g id="xtick_6">
     <g id="line2d_6">
      <g>
       <use style="stroke:#000000;stroke-width:0.8;" x="372.17819" xlink:href="#mf5bc9ceaf4" y="239.758125"/>
      </g>
     </g>
     <g id="text_6">
      <!-- 1.0 -->
      <defs>
       <path d="M 12.40625 8.296875 
L 28.515625 8.296875 
L 28.515625 63.921875 
L 10.984375 60.40625 
L 10.984375 69.390625 
L 28.421875 72.90625 
L 38.28125 72.90625 
L 38.28125 8.296875 
L 54.390625 8.296875 
L 54.390625 0 
L 12.40625 0 
z
" id="DejaVuSans-49"/>
      </defs>
      <g transform="translate(364.226628 254.356562)scale(0.1 -0.1)">
       <use xlink:href="#DejaVuSans-49"/>
       <use x="63.623047" xlink:href="#DejaVuSans-46"/>
       <use x="95.410156" xlink:href="#DejaVuSans-48"/>
      </g>
     </g>
    </g>
    <g id="text_7">
     <!-- Time (ms) -->
     <defs>
      <path d="M -0.296875 72.90625 
L 61.375 72.90625 
L 61.375 64.59375 
L 35.5 64.59375 
L 35.5 0 
L 25.59375 0 
L 25.59375 64.59375 
L -0.296875 64.59375 
z
" id="DejaVuSans-84"/>
      <path d="M 9.421875 54.6875 
L 18.40625 54.6875 
L 18.40625 0 
L 9.421875 0 
z
M 9.421875 75.984375 
L 18.40625 75.984375 
L 18.40625 64.59375 
L 9.421875 64.59375 
z
" id="DejaVuSans-105"/>
      <path d="M 52 44.1875 
Q 55.375 50.25 60.0625 53.125 
Q 64.75 56 71.09375 56 
Q 79.640625 56 84.28125 50.015625 
Q 88.921875 44.046875 88.921875 33.015625 
L 88.921875 0 
L 79.890625 0 
L 79.890625 32.71875 
Q 79.890625 40.578125 77.09375 44.375 
Q 74.3125 48.1875 68.609375 48.1875 
Q 61.625 48.1875 57.5625 43.546875 
Q 53.515625 38.921875 53.515625 30.90625 
L 53.515625 0 
L 44.484375 0 
L 44.484375 32.71875 
Q 44.484375 40.625 41.703125 44.40625 
Q 38.921875 48.1875 33.109375 48.1875 
Q 26.21875 48.1875 22.15625 43.53125 
Q 18.109375 38.875 18.109375 30.90625 
L 18.109375 0 
L 9.078125 0 
L 9.078125 54.6875 
L 18.109375 54.6875 
L 18.109375 46.1875 
Q 21.1875 51.21875 25.484375 53.609375 
Q 29.78125 56 35.6875 56 
Q 41.65625 56 45.828125 52.96875 
Q 50 49.953125 52 44.1875 
z
" id="DejaVuSans-109"/>
      <path d="M 56.203125 29.59375 
L 56.203125 25.203125 
L 14.890625 25.203125 
Q 15.484375 15.921875 20.484375 11.0625 
Q 25.484375 6.203125 34.421875 6.203125 
Q 39.59375 6.203125 44.453125 7.46875 
Q 49.3125 8.734375 54.109375 11.28125 
L 54.109375 2.78125 
Q 49.265625 0.734375 44.1875 -0.34375 
Q 39.109375 -1.421875 33.890625 -1.421875 
Q 20.796875 -1.421875 13.15625 6.1875 
Q 5.515625 13.8125 5.515625 26.8125 
Q 5.515625 40.234375 12.765625 48.109375 
Q 20.015625 56 32.328125 56 
Q 43.359375 56 49.78125 48.890625 
Q 56.203125 41.796875 56.203125 29.59375 
z
M 47.21875 32.234375 
Q 47.125 39.59375 43.09375 43.984375 
Q 39.0625 48.390625 32.421875 48.390625 
Q 24.90625 48.390625 20.390625 44.140625 
Q 15.875 39.890625 15.1875 32.171875 
z
" id="DejaVuSans-101"/>
      <path id="DejaVuSans-32"/>
      <path d="M 31 75.875 
Q 24.46875 64.65625 21.28125 53.65625 
Q 18.109375 42.671875 18.109375 31.390625 
Q 18.109375 20.125 21.3125 9.0625 
Q 24.515625 -2 31 -13.1875 
L 23.1875 -13.1875 
Q 15.875 -1.703125 12.234375 9.375 
Q 8.59375 20.453125 8.59375 31.390625 
Q 8.59375 42.28125 12.203125 53.3125 
Q 15.828125 64.359375 23.1875 75.875 
z
" id="DejaVuSans-40"/>
      <path d="M 44.28125 53.078125 
L 44.28125 44.578125 
Q 40.484375 46.53125 36.375 47.5 
Q 32.28125 48.484375 27.875 48.484375 
Q 21.1875 48.484375 17.84375 46.4375 
Q 14.5 44.390625 14.5 40.28125 
Q 14.5 37.15625 16.890625 35.375 
Q 19.28125 33.59375 26.515625 31.984375 
L 29.59375 31.296875 
Q 39.15625 29.25 43.1875 25.515625 
Q 47.21875 21.78125 47.21875 15.09375 
Q 47.21875 7.46875 41.1875 3.015625 
Q 35.15625 -1.421875 24.609375 -1.421875 
Q 20.21875 -1.421875 15.453125 -0.5625 
Q 10.6875 0.296875 5.421875 2 
L 5.421875 11.28125 
Q 10.40625 8.6875 15.234375 7.390625 
Q 20.0625 6.109375 24.8125 6.109375 
Q 31.15625 6.109375 34.5625 8.28125 
Q 37.984375 10.453125 37.984375 14.40625 
Q 37.984375 18.0625 35.515625 20.015625 
Q 33.0625 21.96875 24.703125 23.78125 
L 21.578125 24.515625 
Q 13.234375 26.265625 9.515625 29.90625 
Q 5.8125 33.546875 5.8125 39.890625 
Q 5.8125 47.609375 11.28125 51.796875 
Q 16.75 56 26.8125 56 
Q 31.78125 56 36.171875 55.265625 
Q 40.578125 54.546875 44.28125 53.078125 
z
" id="DejaVuSans-115"/>
      <path d="M 8.015625 75.875 
L 15.828125 75.875 
Q 23.140625 64.359375 26.78125 53.3125 
Q 30.421875 42.28125 30.421875 31.390625 
Q 30.421875 20.453125 26.78125 9.375 
Q 23.140625 -1.703125 15.828125 -13.1875 
L 8.015625 -13.1875 
Q 14.5 -2 17.703125 9.0625 
Q 20.90625 20.125 20.90625 31.390625 
Q 20.90625 42.671875 17.703125 53.65625 
Q 14.5 64.65625 8.015625 75.875 
z
" id="DejaVuSans-41"/>
     </defs>
     <g transform="translate(195.375 268.034687)scale(0.1 -0.1)">
      <use xlink:href="#DejaVuSans-84"/>
      <use x="61.037109" xlink:href="#DejaVuSans-105"/>
      <use x="88.820312" xlink:href="#DejaVuSans-109"/>
      <use x="186.232422" xlink:href="#DejaVuSans-101"/>
      <use x="247.755859" xlink:href="#DejaVuSans-32"/>
      <use x="279.542969" xlink:href="#DejaVuSans-40"/>
      <use x="318.556641" xlink:href="#DejaVuSans-109"/>
      <use x="415.96875" xlink:href="#DejaVuSans-115"/>
      <use x="468.068359" xlink:href="#DejaVuSans-41"/>
     </g>
    </g>
   </g>
   <g id="matplotlib.axis_2">
    <g id="ytick_1">
     <g id="line2d_7">
      <defs>
       <path d="M 0 0 
L -3.5 0 
" id="m91a58400d3" style="stroke:#000000;stroke-width:0.8;"/>
      </defs>
      <g>
       <use style="stroke:#000000;stroke-width:0.8;" x="53.328125" xlink:href="#m91a58400d3" y="221.726071"/>
      </g>
     </g>
     <g id="text_8">
      <!-- 1000 -->
      <g transform="translate(20.878125 225.52529)scale(0.1 -0.1)">
       <use xlink:href="#DejaVuSans-49"/>
       <use x="63.623047" xlink:href="#DejaVuSans-48"/>
       <use x="127.246094" xlink:href="#DejaVuSans-48"/>
       <use x="190.869141" xlink:href="#DejaVuSans-48"/>
      </g>
     </g>
    </g>
    <g id="ytick_2">
     <g id="line2d_8">
      <g>
       <use style="stroke:#000000;stroke-width:0.8;" x="53.328125" xlink:href="#m91a58400d3" y="175.234629"/>
      </g>
     </g>
     <g id="text_9">
      <!-- 1500 -->
      <defs>
       <path d="M 10.796875 72.90625 
L 49.515625 72.90625 
L 49.515625 64.59375 
L 19.828125 64.59375 
L 19.828125 46.734375 
Q 21.96875 47.46875 24.109375 47.828125 
Q 26.265625 48.1875 28.421875 48.1875 
Q 40.625 48.1875 47.75 41.5 
Q 54.890625 34.8125 54.890625 23.390625 
Q 54.890625 11.625 47.5625 5.09375 
Q 40.234375 -1.421875 26.90625 -1.421875 
Q 22.3125 -1.421875 17.546875 -0.640625 
Q 12.796875 0.140625 7.71875 1.703125 
L 7.71875 11.625 
Q 12.109375 9.234375 16.796875 8.0625 
Q 21.484375 6.890625 26.703125 6.890625 
Q 35.15625 6.890625 40.078125 11.328125 
Q 45.015625 15.765625 45.015625 23.390625 
Q 45.015625 31 40.078125 35.4375 
Q 35.15625 39.890625 26.703125 39.890625 
Q 22.75 39.890625 18.8125 39.015625 
Q 14.890625 38.140625 10.796875 36.28125 
z
" id="DejaVuSans-53"/>
      </defs>
      <g transform="translate(20.878125 179.033847)scale(0.1 -0.1)">
       <use xlink:href="#DejaVuSans-49"/>
       <use x="63.623047" xlink:href="#DejaVuSans-53"/>
       <use x="127.246094" xlink:href="#DejaVuSans-48"/>
       <use x="190.869141" xlink:href="#DejaVuSans-48"/>
      </g>
     </g>
    </g>
    <g id="ytick_3">
     <g id="line2d_9">
      <g>
       <use style="stroke:#000000;stroke-width:0.8;" x="53.328125" xlink:href="#m91a58400d3" y="128.743186"/>
      </g>
     </g>
     <g id="text_10">
      <!-- 2000 -->
      <g transform="translate(20.878125 132.542405)scale(0.1 -0.1)">
       <use xlink:href="#DejaVuSans-50"/>
       <use x="63.623047" xlink:href="#DejaVuSans-48"/>
       <use x="127.246094" xlink:href="#DejaVuSans-48"/>
       <use x="190.869141" xlink:href="#DejaVuSans-48"/>
      </g>
     </g>
    </g>
    <g id="ytick_4">
     <g id="line2d_10">
      <g>
       <use style="stroke:#000000;stroke-width:0.8;" x="53.328125" xlink:href="#m91a58400d3" y="82.251744"/>
      </g>
     </g>
     <g id="text_11">
      <!-- 2500 -->
      <g transform="translate(20.878125 86.050963)scale(0.1 -0.1)">
       <use xlink:href="#DejaVuSans-50"/>
       <use x="63.623047" xlink:href="#DejaVuSans-53"/>
       <use x="127.246094" xlink:href="#DejaVuSans-48"/>
       <use x="190.869141" xlink:href="#DejaVuSans-48"/>
      </g>
     </g>
    </g>
    <g id="ytick_5">
     <g id="line2d_11">
      <g>
       <use style="stroke:#000000;stroke-width:0.8;" x="53.328125" xlink:href="#m91a58400d3" y="35.760301"/>
      </g>
     </g>
     <g id="text_12">
      <!-- 3000 -->
      <defs>
       <path d="M 40.578125 39.3125 
Q 47.65625 37.796875 51.625 33 
Q 55.609375 28.21875 55.609375 21.1875 
Q 55.609375 10.40625 48.1875 4.484375 
Q 40.765625 -1.421875 27.09375 -1.421875 
Q 22.515625 -1.421875 17.65625 -0.515625 
Q 12.796875 0.390625 7.625 2.203125 
L 7.625 11.71875 
Q 11.71875 9.328125 16.59375 8.109375 
Q 21.484375 6.890625 26.8125 6.890625 
Q 36.078125 6.890625 40.9375 10.546875 
Q 45.796875 14.203125 45.796875 21.1875 
Q 45.796875 27.640625 41.28125 31.265625 
Q 36.765625 34.90625 28.71875 34.90625 
L 20.21875 34.90625 
L 20.21875 43.015625 
L 29.109375 43.015625 
Q 36.375 43.015625 40.234375 45.921875 
Q 44.09375 48.828125 44.09375 54.296875 
Q 44.09375 59.90625 40.109375 62.90625 
Q 36.140625 65.921875 28.71875 65.921875 
Q 24.65625 65.921875 20.015625 65.03125 
Q 15.375 64.15625 9.8125 62.3125 
L 9.8125 71.09375 
Q 15.4375 72.65625 20.34375 73.4375 
Q 25.25 74.21875 29.59375 74.21875 
Q 40.828125 74.21875 47.359375 69.109375 
Q 53.90625 64.015625 53.90625 55.328125 
Q 53.90625 49.265625 50.4375 45.09375 
Q 46.96875 40.921875 40.578125 39.3125 
z
" id="DejaVuSans-51"/>
      </defs>
      <g transform="translate(20.878125 39.55952)scale(0.1 -0.1)">
       <use xlink:href="#DejaVuSans-51"/>
       <use x="63.623047" xlink:href="#DejaVuSans-48"/>
       <use x="127.246094" xlink:href="#DejaVuSans-48"/>
       <use x="190.869141" xlink:href="#DejaVuSans-48"/>
      </g>
     </g>
    </g>
    <g id="text_13">
     <!-- ppmH2O -->
     <defs>
      <path d="M 18.109375 8.203125 
L 18.109375 -20.796875 
L 9.078125 -20.796875 
L 9.078125 54.6875 
L 18.109375 54.6875 
L 18.109375 46.390625 
Q 20.953125 51.265625 25.265625 53.625 
Q 29.59375 56 35.59375 56 
Q 45.5625 56 51.78125 48.09375 
Q 58.015625 40.1875 58.015625 27.296875 
Q 58.015625 14.40625 51.78125 6.484375 
Q 45.5625 -1.421875 35.59375 -1.421875 
Q 29.59375 -1.421875 25.265625 0.953125 
Q 20.953125 3.328125 18.109375 8.203125 
z
M 48.6875 27.296875 
Q 48.6875 37.203125 44.609375 42.84375 
Q 40.53125 48.484375 33.40625 48.484375 
Q 26.265625 48.484375 22.1875 42.84375 
Q 18.109375 37.203125 18.109375 27.296875 
Q 18.109375 17.390625 22.1875 11.75 
Q 26.265625 6.109375 33.40625 6.109375 
Q 40.53125 6.109375 44.609375 11.75 
Q 48.6875 17.390625 48.6875 27.296875 
z
" id="DejaVuSans-112"/>
      <path d="M 9.8125 72.90625 
L 19.671875 72.90625 
L 19.671875 43.015625 
L 55.515625 43.015625 
L 55.515625 72.90625 
L 65.375 72.90625 
L 65.375 0 
L 55.515625 0 
L 55.515625 34.71875 
L 19.671875 34.71875 
L 19.671875 0 
L 9.8125 0 
z
" id="DejaVuSans-72"/>
      <path d="M 39.40625 66.21875 
Q 28.65625 66.21875 22.328125 58.203125 
Q 16.015625 50.203125 16.015625 36.375 
Q 16.015625 22.609375 22.328125 14.59375 
Q 28.65625 6.59375 39.40625 6.59375 
Q 50.140625 6.59375 56.421875 14.59375 
Q 62.703125 22.609375 62.703125 36.375 
Q 62.703125 50.203125 56.421875 58.203125 
Q 50.140625 66.21875 39.40625 66.21875 
z
M 39.40625 74.21875 
Q 54.734375 74.21875 63.90625 63.9375 
Q 73.09375 53.65625 73.09375 36.375 
Q 73.09375 19.140625 63.90625 8.859375 
Q 54.734375 -1.421875 39.40625 -1.421875 
Q 24.03125 -1.421875 14.8125 8.828125 
Q 5.609375 19.09375 5.609375 36.375 
Q 5.609375 53.65625 14.8125 63.9375 
Q 24.03125 74.21875 39.40625 74.21875 
z
" id="DejaVuSans-79"/>
     </defs>
     <g transform="translate(14.798438 153.134219)rotate(-90)scale(0.1 -0.1)">
      <use xlink:href="#DejaVuSans-112"/>
      <use x="63.476562" xlink:href="#DejaVuSans-112"/>
      <use x="126.953125" xlink:href="#DejaVuSans-109"/>
      <use x="224.365234" xlink:href="#DejaVuSans-72"/>
      <use x="299.560547" xlink:href="#DejaVuSans-50"/>
      <use x="363.183594" xlink:href="#DejaVuSans-79"/>
     </g>
    </g>
   </g>
   <g id="line2d_12">
    <path clip-path="url(#p3d92fad60d)" d="M 68.546307 211.194783 
L 68.866061 211.09842 
L 69.259709 210.739153 
L 69.747698 209.983831 
L 70.418683 208.496565 
L 71.333663 205.851354 
L 72.617556 201.386606 
L 75.393399 190.666781 
L 78.603713 178.627513 
L 81.335597 169.283816 
L 84.076135 160.736879 
L 86.816673 152.920082 
L 89.456841 145.994808 
L 92.309258 139.103842 
L 95.32222 132.421286 
L 98.17713 126.599012 
L 101.032039 121.227661 
L 103.886949 116.269182 
L 107.217677 110.961596 
L 110.548405 106.123212 
L 113.954225 101.617039 
L 116.826448 98.133951 
L 119.931435 94.66777 
L 123.036423 91.487406 
L 126.14141 88.569294 
L 129.66091 85.551472 
L 133.180411 82.814055 
L 136.699911 80.330879 
L 140.219411 78.078169 
L 143.738912 76.034331 
L 148.336773 73.646621 
L 152.886584 71.563631 
L 157.95327 69.530743 
L 162.86964 67.810247 
L 168.594513 66.07692 
L 174.7073 64.500491 
L 180.820086 63.163631 
L 186.932872 62.028648 
L 195.083254 60.775364 
L 203.233636 59.763772 
L 213.421613 58.765876 
L 223.60959 57.996479 
L 235.835163 57.298 
L 250.098331 56.707003 
L 268.43669 56.187148 
L 290.85024 55.782103 
L 321.414172 55.4593 
L 368.278868 55.210325 
L 372.354059 55.196352 
L 372.354059 55.196352 
" style="fill:none;stroke:#0000ff;stroke-linecap:square;stroke-width:1.5;"/>
   </g>
   <g id="line2d_13">
    <path clip-path="url(#p3d92fad60d)" d="M 68.546307 211.194783 
L 68.949839 211.0878 
L 69.380168 210.75328 
L 69.925257 210.04134 
L 70.622417 208.725308 
L 71.493866 206.549424 
L 72.62675 203.040422 
L 74.152388 197.50442 
L 77.172742 185.453591 
L 80.525543 172.381756 
L 83.104246 163.160153 
L 85.68295 154.735096 
L 88.167797 147.320415 
L 90.861655 139.982499 
L 93.555513 133.292884 
L 96.284119 127.104838 
L 99.0301 121.41179 
L 101.77608 116.201156 
L 104.522061 111.426851 
L 107.498746 106.697881 
L 110.252217 102.699223 
L 113.005688 99.029316 
L 115.75916 95.659972 
L 119.200999 91.832398 
L 122.275051 88.740879 
L 125.807394 85.531232 
L 129.226072 82.739128 
L 132.32374 80.449521 
L 135.479833 78.32917 
L 139.42684 75.948901 
L 143.120575 73.965661 
L 146.81431 72.192381 
L 151.73929 70.11558 
L 156.66427 68.324539 
L 161.589249 66.778745 
L 166.514229 65.443474 
L 172.670454 64.025503 
L 178.826679 62.841315 
L 186.214149 61.67252 
L 193.601619 60.72597 
L 202.220334 59.843109 
L 212.070294 59.059156 
L 224.382743 58.32756 
L 239.157683 57.703125 
L 257.626358 57.174015 
L 281.020012 56.742904 
L 314.263627 56.375789 
L 363.057521 56.081562 
L 372.323802 56.043444 
L 372.323802 56.043444 
" style="fill:none;stroke:#ff0000;stroke-linecap:square;stroke-width:1.5;"/>
   </g>
   <g id="line2d_14">
    <defs>
     <path d="M 0 3 
C 0.795609 3 1.55874 2.683901 2.12132 2.12132 
C 2.683901 1.55874 3 0.795609 3 0 
C 3 -0.795609 2.683901 -1.55874 2.12132 -2.12132 
C 1.55874 -2.683901 0.795609 -3 0 -3 
C -0.795609 -3 -1.55874 -2.683901 -2.12132 -2.12132 
C -2.683901 -1.55874 -3 -0.795609 -3 0 
C -3 0.795609 -2.683901 1.55874 -2.12132 2.12132 
C -1.55874 2.683901 -0.795609 3 0 3 
z
" id="m0d49f56103" style="stroke:#000000;"/>
    </defs>
    <g clip-path="url(#p3d92fad60d)">
     <use style="stroke:#000000;" x="68.546307" xlink:href="#m0d49f56103" y="211.216216"/>
     <use style="stroke:#000000;" x="68.546313" xlink:href="#m0d49f56103" y="211.216216"/>
     <use style="stroke:#000000;" x="68.546333" xlink:href="#m0d49f56103" y="211.216216"/>
     <use style="stroke:#000000;" x="68.546354" xlink:href="#m0d49f56103" y="211.216216"/>
     <use style="stroke:#000000;" x="68.546374" xlink:href="#m0d49f56103" y="211.216216"/>
     <use style="stroke:#000000;" x="68.546405" xlink:href="#m0d49f56103" y="211.216216"/>
     <use style="stroke:#000000;" x="68.546455" xlink:href="#m0d49f56103" y="211.216216"/>
     <use style="stroke:#000000;" x="68.546541" xlink:href="#m0d49f56103" y="211.216216"/>
     <use style="stroke:#000000;" x="68.546689" xlink:href="#m0d49f56103" y="211.216216"/>
     <use style="stroke:#000000;" x="68.546947" xlink:href="#m0d49f56103" y="211.216216"/>
     <use style="stroke:#000000;" x="68.547455" xlink:href="#m0d49f56103" y="211.216216"/>
     <use style="stroke:#000000;" x="68.548286" xlink:href="#m0d49f56103" y="211.216216"/>
     <use style="stroke:#000000;" x="68.549115" xlink:href="#m0d49f56103" y="211.216216"/>
     <use style="stroke:#000000;" x="68.54995" xlink:href="#m0d49f56103" y="211.216216"/>
     <use style="stroke:#000000;" x="68.55077" xlink:href="#m0d49f56103" y="211.216216"/>
     <use style="stroke:#000000;" x="68.551681" xlink:href="#m0d49f56103" y="211.216216"/>
     <use style="stroke:#000000;" x="68.552592" xlink:href="#m0d49f56103" y="211.216216"/>
     <use style="stroke:#000000;" x="68.553503" xlink:href="#m0d49f56103" y="211.216216"/>
     <use style="stroke:#000000;" x="68.555143" xlink:href="#m0d49f56103" y="211.216216"/>
     <use style="stroke:#000000;" x="68.556752" xlink:href="#m0d49f56103" y="211.216216"/>
     <use style="stroke:#000000;" x="68.558361" xlink:href="#m0d49f56103" y="211.216216"/>
     <use style="stroke:#000000;" x="68.560001" xlink:href="#m0d49f56103" y="211.216216"/>
     <use style="stroke:#000000;" x="68.563189" xlink:href="#m0d49f56103" y="211.216216"/>
     <use style="stroke:#000000;" x="68.570476" xlink:href="#m0d49f56103" y="211.216216"/>
     <use style="stroke:#000000;" x="68.577885" xlink:href="#m0d49f56103" y="211.215286"/>
     <use style="stroke:#000000;" x="68.585172" xlink:href="#m0d49f56103" y="211.214356"/>
     <use style="stroke:#000000;" x="68.592459" xlink:href="#m0d49f56103" y="211.214356"/>
     <use style="stroke:#000000;" x="68.599746" xlink:href="#m0d49f56103" y="211.213426"/>
     <use style="stroke:#000000;" x="68.607033" xlink:href="#m0d49f56103" y="211.212496"/>
     <use style="stroke:#000000;" x="68.615231" xlink:href="#m0d49f56103" y="211.210637"/>
     <use style="stroke:#000000;" x="68.623733" xlink:href="#m0d49f56103" y="211.209707"/>
     <use style="stroke:#000000;" x="68.632235" xlink:href="#m0d49f56103" y="211.207847"/>
     <use style="stroke:#000000;" x="68.640433" xlink:href="#m0d49f56103" y="211.205988"/>
     <use style="stroke:#000000;" x="68.648934" xlink:href="#m0d49f56103" y="211.204128"/>
     <use style="stroke:#000000;" x="68.663205" xlink:href="#m0d49f56103" y="211.200409"/>
     <use style="stroke:#000000;" x="68.68537" xlink:href="#m0d49f56103" y="211.1939"/>
     <use style="stroke:#000000;" x="68.707232" xlink:href="#m0d49f56103" y="211.186461"/>
     <use style="stroke:#000000;" x="68.729397" xlink:href="#m0d49f56103" y="211.177163"/>
     <use style="stroke:#000000;" x="68.751258" xlink:href="#m0d49f56103" y="211.167865"/>
     <use style="stroke:#000000;" x="68.773423" xlink:href="#m0d49f56103" y="211.156707"/>
     <use style="stroke:#000000;" x="68.822005" xlink:href="#m0d49f56103" y="211.128812"/>
     <use style="stroke:#000000;" x="68.852975" xlink:href="#m0d49f56103" y="211.108356"/>
     <use style="stroke:#000000;" x="68.886375" xlink:href="#m0d49f56103" y="211.08604"/>
     <use style="stroke:#000000;" x="68.916738" xlink:href="#m0d49f56103" y="211.060934"/>
     <use style="stroke:#000000;" x="68.950137" xlink:href="#m0d49f56103" y="211.033969"/>
     <use style="stroke:#000000;" x="68.9805" xlink:href="#m0d49f56103" y="211.006074"/>
     <use style="stroke:#000000;" x="69.0139" xlink:href="#m0d49f56103" y="210.97539"/>
     <use style="stroke:#000000;" x="69.044263" xlink:href="#m0d49f56103" y="210.942846"/>
     <use style="stroke:#000000;" x="69.074626" xlink:href="#m0d49f56103" y="210.908442"/>
     <use style="stroke:#000000;" x="69.147498" xlink:href="#m0d49f56103" y="210.825688"/>
     <use style="stroke:#000000;" x="69.217333" xlink:href="#m0d49f56103" y="210.734564"/>
     <use style="stroke:#000000;" x="69.265914" xlink:href="#m0d49f56103" y="210.668547"/>
     <use style="stroke:#000000;" x="69.311459" xlink:href="#m0d49f56103" y="210.599739"/>
     <use style="stroke:#000000;" x="69.36004" xlink:href="#m0d49f56103" y="210.527213"/>
     <use style="stroke:#000000;" x="69.408621" xlink:href="#m0d49f56103" y="210.451896"/>
     <use style="stroke:#000000;" x="69.454166" xlink:href="#m0d49f56103" y="210.372861"/>
     <use style="stroke:#000000;" x="69.502747" xlink:href="#m0d49f56103" y="210.290106"/>
     <use style="stroke:#000000;" x="69.548292" xlink:href="#m0d49f56103" y="210.204562"/>
     <use style="stroke:#000000;" x="69.596873" xlink:href="#m0d49f56103" y="210.116228"/>
     <use style="stroke:#000000;" x="69.645454" xlink:href="#m0d49f56103" y="210.025105"/>
     <use style="stroke:#000000;" x="69.690999" xlink:href="#m0d49f56103" y="209.931192"/>
     <use style="stroke:#000000;" x="69.73958" xlink:href="#m0d49f56103" y="209.83449"/>
     <use style="stroke:#000000;" x="69.785125" xlink:href="#m0d49f56103" y="209.735928"/>
     <use style="stroke:#000000;" x="69.833706" xlink:href="#m0d49f56103" y="209.633647"/>
     <use style="stroke:#000000;" x="69.882287" xlink:href="#m0d49f56103" y="209.529506"/>
     <use style="stroke:#000000;" x="69.927832" xlink:href="#m0d49f56103" y="209.422576"/>
     <use style="stroke:#000000;" x="69.976413" xlink:href="#m0d49f56103" y="209.313786"/>
     <use style="stroke:#000000;" x="70.021958" xlink:href="#m0d49f56103" y="209.202206"/>
     <use style="stroke:#000000;" x="70.070539" xlink:href="#m0d49f56103" y="209.088767"/>
     <use style="stroke:#000000;" x="70.116084" xlink:href="#m0d49f56103" y="208.972539"/>
     <use style="stroke:#000000;" x="70.164665" xlink:href="#m0d49f56103" y="208.85445"/>
     <use style="stroke:#000000;" x="70.213246" xlink:href="#m0d49f56103" y="208.735432"/>
     <use style="stroke:#000000;" x="70.258791" xlink:href="#m0d49f56103" y="208.613625"/>
     <use style="stroke:#000000;" x="70.307372" xlink:href="#m0d49f56103" y="208.489958"/>
     <use style="stroke:#000000;" x="70.352917" xlink:href="#m0d49f56103" y="208.364431"/>
     <use style="stroke:#000000;" x="70.401498" xlink:href="#m0d49f56103" y="208.237044"/>
     <use style="stroke:#000000;" x="70.450079" xlink:href="#m0d49f56103" y="208.107798"/>
     <use style="stroke:#000000;" x="70.495624" xlink:href="#m0d49f56103" y="207.977622"/>
     <use style="stroke:#000000;" x="70.568495" xlink:href="#m0d49f56103" y="207.776779"/>
     <use style="stroke:#000000;" x="70.63833" xlink:href="#m0d49f56103" y="207.573146"/>
     <use style="stroke:#000000;" x="70.711202" xlink:href="#m0d49f56103" y="207.366724"/>
     <use style="stroke:#000000;" x="70.781037" xlink:href="#m0d49f56103" y="207.156583"/>
     <use style="stroke:#000000;" x="70.853909" xlink:href="#m0d49f56103" y="206.942722"/>
     <use style="stroke:#000000;" x="70.923744" xlink:href="#m0d49f56103" y="206.727002"/>
     <use style="stroke:#000000;" x="70.996616" xlink:href="#m0d49f56103" y="206.508492"/>
     <use style="stroke:#000000;" x="71.066451" xlink:href="#m0d49f56103" y="206.287193"/>
     <use style="stroke:#000000;" x="71.139323" xlink:href="#m0d49f56103" y="206.063104"/>
     <use style="stroke:#000000;" x="71.209158" xlink:href="#m0d49f56103" y="205.837156"/>
     <use style="stroke:#000000;" x="71.28203" xlink:href="#m0d49f56103" y="205.609348"/>
     <use style="stroke:#000000;" x="71.354902" xlink:href="#m0d49f56103" y="205.37875"/>
     <use style="stroke:#000000;" x="71.424737" xlink:href="#m0d49f56103" y="205.146293"/>
     <use style="stroke:#000000;" x="71.497609" xlink:href="#m0d49f56103" y="204.912906"/>
     <use style="stroke:#000000;" x="71.567444" xlink:href="#m0d49f56103" y="204.676729"/>
     <use style="stroke:#000000;" x="71.643352" xlink:href="#m0d49f56103" y="204.439623"/>
     <use style="stroke:#000000;" x="71.704078" xlink:href="#m0d49f56103" y="204.200657"/>
     <use style="stroke:#000000;" x="71.795168" xlink:href="#m0d49f56103" y="203.959831"/>
     <use style="stroke:#000000;" x="71.855894" xlink:href="#m0d49f56103" y="203.718076"/>
     <use style="stroke:#000000;" x="71.916621" xlink:href="#m0d49f56103" y="203.474461"/>
     <use style="stroke:#000000;" x="72.00771" xlink:href="#m0d49f56103" y="203.230846"/>
     <use style="stroke:#000000;" x="72.068437" xlink:href="#m0d49f56103" y="202.985371"/>
     <use style="stroke:#000000;" x="72.129163" xlink:href="#m0d49f56103" y="202.738966"/>
     <use style="stroke:#000000;" x="72.220253" xlink:href="#m0d49f56103" y="202.491632"/>
     <use style="stroke:#000000;" x="72.280979" xlink:href="#m0d49f56103" y="202.243367"/>
     <use style="stroke:#000000;" x="72.341705" xlink:href="#m0d49f56103" y="201.994173"/>
     <use style="stroke:#000000;" x="72.432795" xlink:href="#m0d49f56103" y="201.744049"/>
     <use style="stroke:#000000;" x="72.493521" xlink:href="#m0d49f56103" y="201.493925"/>
     <use style="stroke:#000000;" x="72.554248" xlink:href="#m0d49f56103" y="201.242871"/>
     <use style="stroke:#000000;" x="72.645337" xlink:href="#m0d49f56103" y="200.990888"/>
     <use style="stroke:#000000;" x="72.706064" xlink:href="#m0d49f56103" y="200.738904"/>
     <use style="stroke:#000000;" x="72.797153" xlink:href="#m0d49f56103" y="200.485991"/>
     <use style="stroke:#000000;" x="72.85788" xlink:href="#m0d49f56103" y="200.233077"/>
     <use style="stroke:#000000;" x="72.918606" xlink:href="#m0d49f56103" y="199.979234"/>
     <use style="stroke:#000000;" x="73.009696" xlink:href="#m0d49f56103" y="199.725391"/>
     <use style="stroke:#000000;" x="73.100785" xlink:href="#m0d49f56103" y="199.343231"/>
     <use style="stroke:#000000;" x="73.222238" xlink:href="#m0d49f56103" y="198.961071"/>
     <use style="stroke:#000000;" x="73.313327" xlink:href="#m0d49f56103" y="198.577982"/>
     <use style="stroke:#000000;" x="73.43478" xlink:href="#m0d49f56103" y="198.194892"/>
     <use style="stroke:#000000;" x="73.52587" xlink:href="#m0d49f56103" y="197.811803"/>
     <use style="stroke:#000000;" x="73.647322" xlink:href="#m0d49f56103" y="197.428714"/>
     <use style="stroke:#000000;" x="73.738412" xlink:href="#m0d49f56103" y="197.045624"/>
     <use style="stroke:#000000;" x="73.859865" xlink:href="#m0d49f56103" y="196.662535"/>
     <use style="stroke:#000000;" x="73.950954" xlink:href="#m0d49f56103" y="196.280375"/>
     <use style="stroke:#000000;" x="74.072407" xlink:href="#m0d49f56103" y="195.898215"/>
     <use style="stroke:#000000;" x="74.163497" xlink:href="#m0d49f56103" y="195.516056"/>
     <use style="stroke:#000000;" x="74.284949" xlink:href="#m0d49f56103" y="195.134826"/>
     <use style="stroke:#000000;" x="74.406402" xlink:href="#m0d49f56103" y="194.754526"/>
     <use style="stroke:#000000;" x="74.497492" xlink:href="#m0d49f56103" y="194.374226"/>
     <use style="stroke:#000000;" x="74.618944" xlink:href="#m0d49f56103" y="193.994856"/>
     <use style="stroke:#000000;" x="74.710034" xlink:href="#m0d49f56103" y="193.615485"/>
     <use style="stroke:#000000;" x="74.831487" xlink:href="#m0d49f56103" y="193.237975"/>
     <use style="stroke:#000000;" x="74.922576" xlink:href="#m0d49f56103" y="192.860464"/>
     <use style="stroke:#000000;" x="75.044029" xlink:href="#m0d49f56103" y="192.483884"/>
     <use style="stroke:#000000;" x="75.135119" xlink:href="#m0d49f56103" y="192.108233"/>
     <use style="stroke:#000000;" x="75.256571" xlink:href="#m0d49f56103" y="191.734442"/>
     <use style="stroke:#000000;" x="75.347661" xlink:href="#m0d49f56103" y="191.36065"/>
     <use style="stroke:#000000;" x="75.469114" xlink:href="#m0d49f56103" y="190.987789"/>
     <use style="stroke:#000000;" x="75.560203" xlink:href="#m0d49f56103" y="190.616787"/>
     <use style="stroke:#000000;" x="75.681656" xlink:href="#m0d49f56103" y="190.245786"/>
     <use style="stroke:#000000;" x="75.772746" xlink:href="#m0d49f56103" y="189.876644"/>
     <use style="stroke:#000000;" x="75.894198" xlink:href="#m0d49f56103" y="189.508431"/>
     <use style="stroke:#000000;" x="76.015651" xlink:href="#m0d49f56103" y="189.140219"/>
     <use style="stroke:#000000;" x="76.106741" xlink:href="#m0d49f56103" y="188.774796"/>
     <use style="stroke:#000000;" x="76.228193" xlink:href="#m0d49f56103" y="188.409374"/>
     <use style="stroke:#000000;" x="76.319283" xlink:href="#m0d49f56103" y="188.045811"/>
     <use style="stroke:#000000;" x="76.440736" xlink:href="#m0d49f56103" y="187.682248"/>
     <use style="stroke:#000000;" x="76.531825" xlink:href="#m0d49f56103" y="187.320544"/>
     <use style="stroke:#000000;" x="76.653278" xlink:href="#m0d49f56103" y="186.9607"/>
     <use style="stroke:#000000;" x="76.744368" xlink:href="#m0d49f56103" y="186.600857"/>
     <use style="stroke:#000000;" x="76.86582" xlink:href="#m0d49f56103" y="186.242872"/>
     <use style="stroke:#000000;" x="76.95691" xlink:href="#m0d49f56103" y="185.885818"/>
     <use style="stroke:#000000;" x="77.078363" xlink:href="#m0d49f56103" y="185.529694"/>
     <use style="stroke:#000000;" x="77.169452" xlink:href="#m0d49f56103" y="185.175429"/>
     <use style="stroke:#000000;" x="77.290905" xlink:href="#m0d49f56103" y="184.822094"/>
     <use style="stroke:#000000;" x="77.412358" xlink:href="#m0d49f56103" y="184.469689"/>
     <use style="stroke:#000000;" x="77.503447" xlink:href="#m0d49f56103" y="184.118214"/>
     <use style="stroke:#000000;" x="77.6249" xlink:href="#m0d49f56103" y="183.768598"/>
     <use style="stroke:#000000;" x="77.71599" xlink:href="#m0d49f56103" y="183.419912"/>
     <use style="stroke:#000000;" x="77.837442" xlink:href="#m0d49f56103" y="183.072156"/>
     <use style="stroke:#000000;" x="77.928532" xlink:href="#m0d49f56103" y="182.72626"/>
     <use style="stroke:#000000;" x="78.049985" xlink:href="#m0d49f56103" y="182.381293"/>
     <use style="stroke:#000000;" x="78.141074" xlink:href="#m0d49f56103" y="182.037257"/>
     <use style="stroke:#000000;" x="78.323253" xlink:href="#m0d49f56103" y="181.521202"/>
     <use style="stroke:#000000;" x="78.475069" xlink:href="#m0d49f56103" y="181.007936"/>
     <use style="stroke:#000000;" x="78.626885" xlink:href="#m0d49f56103" y="180.49653"/>
     <use style="stroke:#000000;" x="78.809064" xlink:href="#m0d49f56103" y="179.988844"/>
     <use style="stroke:#000000;" x="78.96088" xlink:href="#m0d49f56103" y="179.483017"/>
     <use style="stroke:#000000;" x="79.112696" xlink:href="#m0d49f56103" y="178.979979"/>
     <use style="stroke:#000000;" x="79.294875" xlink:href="#m0d49f56103" y="178.479731"/>
     <use style="stroke:#000000;" x="79.446691" xlink:href="#m0d49f56103" y="177.982273"/>
     <use style="stroke:#000000;" x="79.598507" xlink:href="#m0d49f56103" y="177.487604"/>
     <use style="stroke:#000000;" x="79.780687" xlink:href="#m0d49f56103" y="176.994795"/>
     <use style="stroke:#000000;" x="79.932502" xlink:href="#m0d49f56103" y="176.504775"/>
     <use style="stroke:#000000;" x="80.084318" xlink:href="#m0d49f56103" y="176.017545"/>
     <use style="stroke:#000000;" x="80.266498" xlink:href="#m0d49f56103" y="175.532174"/>
     <use style="stroke:#000000;" x="80.418313" xlink:href="#m0d49f56103" y="175.050523"/>
     <use style="stroke:#000000;" x="80.570129" xlink:href="#m0d49f56103" y="174.569801"/>
     <use style="stroke:#000000;" x="80.752309" xlink:href="#m0d49f56103" y="174.092799"/>
     <use style="stroke:#000000;" x="80.904124" xlink:href="#m0d49f56103" y="173.617656"/>
     <use style="stroke:#000000;" x="81.05594" xlink:href="#m0d49f56103" y="173.144373"/>
     <use style="stroke:#000000;" x="81.207756" xlink:href="#m0d49f56103" y="172.67388"/>
     <use style="stroke:#000000;" x="81.389935" xlink:href="#m0d49f56103" y="172.206176"/>
     <use style="stroke:#000000;" x="81.541751" xlink:href="#m0d49f56103" y="171.740332"/>
     <use style="stroke:#000000;" x="81.693567" xlink:href="#m0d49f56103" y="171.277277"/>
     <use style="stroke:#000000;" x="81.966836" xlink:href="#m0d49f56103" y="170.578976"/>
     <use style="stroke:#000000;" x="82.209742" xlink:href="#m0d49f56103" y="169.885323"/>
     <use style="stroke:#000000;" x="82.452647" xlink:href="#m0d49f56103" y="169.19632"/>
     <use style="stroke:#000000;" x="82.695553" xlink:href="#m0d49f56103" y="168.513826"/>
     <use style="stroke:#000000;" x="82.938458" xlink:href="#m0d49f56103" y="167.835051"/>
     <use style="stroke:#000000;" x="83.181364" xlink:href="#m0d49f56103" y="167.161855"/>
     <use style="stroke:#000000;" x="83.424269" xlink:href="#m0d49f56103" y="166.494238"/>
     <use style="stroke:#000000;" x="83.667175" xlink:href="#m0d49f56103" y="165.83034"/>
     <use style="stroke:#000000;" x="83.91008" xlink:href="#m0d49f56103" y="165.172021"/>
     <use style="stroke:#000000;" x="84.152986" xlink:href="#m0d49f56103" y="164.518351"/>
     <use style="stroke:#000000;" x="84.395891" xlink:href="#m0d49f56103" y="163.869331"/>
     <use style="stroke:#000000;" x="84.638797" xlink:href="#m0d49f56103" y="163.224959"/>
     <use style="stroke:#000000;" x="84.912065" xlink:href="#m0d49f56103" y="162.585237"/>
     <use style="stroke:#000000;" x="85.154971" xlink:href="#m0d49f56103" y="161.950164"/>
     <use style="stroke:#000000;" x="85.397876" xlink:href="#m0d49f56103" y="161.31881"/>
     <use style="stroke:#000000;" x="85.640782" xlink:href="#m0d49f56103" y="160.693035"/>
     <use style="stroke:#000000;" x="85.883687" xlink:href="#m0d49f56103" y="160.07098"/>
     <use style="stroke:#000000;" x="86.126593" xlink:href="#m0d49f56103" y="159.452644"/>
     <use style="stroke:#000000;" x="86.369498" xlink:href="#m0d49f56103" y="158.839886"/>
     <use style="stroke:#000000;" x="86.612404" xlink:href="#m0d49f56103" y="158.229919"/>
     <use style="stroke:#000000;" x="86.855309" xlink:href="#m0d49f56103" y="157.62553"/>
     <use style="stroke:#000000;" x="87.098215" xlink:href="#m0d49f56103" y="157.024861"/>
     <use style="stroke:#000000;" x="87.34112" xlink:href="#m0d49f56103" y="156.42791"/>
     <use style="stroke:#000000;" x="87.614389" xlink:href="#m0d49f56103" y="155.83468"/>
     <use style="stroke:#000000;" x="87.857295" xlink:href="#m0d49f56103" y="155.246098"/>
     <use style="stroke:#000000;" x="88.1002" xlink:href="#m0d49f56103" y="154.661236"/>
     <use style="stroke:#000000;" x="88.343106" xlink:href="#m0d49f56103" y="154.081022"/>
     <use style="stroke:#000000;" x="88.586011" xlink:href="#m0d49f56103" y="153.503599"/>
     <use style="stroke:#000000;" x="88.828917" xlink:href="#m0d49f56103" y="152.930824"/>
     <use style="stroke:#000000;" x="89.071822" xlink:href="#m0d49f56103" y="152.361769"/>
     <use style="stroke:#000000;" x="89.314728" xlink:href="#m0d49f56103" y="151.796433"/>
     <use style="stroke:#000000;" x="89.557633" xlink:href="#m0d49f56103" y="151.234816"/>
     <use style="stroke:#000000;" x="89.800539" xlink:href="#m0d49f56103" y="150.676919"/>
     <use style="stroke:#000000;" x="90.043444" xlink:href="#m0d49f56103" y="150.122741"/>
     <use style="stroke:#000000;" x="90.28635" xlink:href="#m0d49f56103" y="149.571352"/>
     <use style="stroke:#000000;" x="90.559618" xlink:href="#m0d49f56103" y="149.024613"/>
     <use style="stroke:#000000;" x="90.802524" xlink:href="#m0d49f56103" y="148.480663"/>
     <use style="stroke:#000000;" x="91.045429" xlink:href="#m0d49f56103" y="147.941363"/>
     <use style="stroke:#000000;" x="91.288335" xlink:href="#m0d49f56103" y="147.404851"/>
     <use style="stroke:#000000;" x="91.53124" xlink:href="#m0d49f56103" y="146.871129"/>
     <use style="stroke:#000000;" x="91.774146" xlink:href="#m0d49f56103" y="146.342057"/>
     <use style="stroke:#000000;" x="92.138504" xlink:href="#m0d49f56103" y="145.544264"/>
     <use style="stroke:#000000;" x="92.533226" xlink:href="#m0d49f56103" y="144.753909"/>
     <use style="stroke:#000000;" x="92.897584" xlink:href="#m0d49f56103" y="143.970993"/>
     <use style="stroke:#000000;" x="93.261942" xlink:href="#m0d49f56103" y="143.196446"/>
     <use style="stroke:#000000;" x="93.6263" xlink:href="#m0d49f56103" y="142.429337"/>
     <use style="stroke:#000000;" x="94.021022" xlink:href="#m0d49f56103" y="141.668737"/>
     <use style="stroke:#000000;" x="94.38538" xlink:href="#m0d49f56103" y="140.915576"/>
     <use style="stroke:#000000;" x="94.749738" xlink:href="#m0d49f56103" y="140.169853"/>
     <use style="stroke:#000000;" x="95.114097" xlink:href="#m0d49f56103" y="139.431569"/>
     <use style="stroke:#000000;" x="95.508818" xlink:href="#m0d49f56103" y="138.699794"/>
     <use style="stroke:#000000;" x="95.873176" xlink:href="#m0d49f56103" y="137.975457"/>
     <use style="stroke:#000000;" x="96.237535" xlink:href="#m0d49f56103" y="137.257629"/>
     <use style="stroke:#000000;" x="96.632256" xlink:href="#m0d49f56103" y="136.54631"/>
     <use style="stroke:#000000;" x="96.996614" xlink:href="#m0d49f56103" y="135.84243"/>
     <use style="stroke:#000000;" x="97.360973" xlink:href="#m0d49f56103" y="135.144128"/>
     <use style="stroke:#000000;" x="97.725331" xlink:href="#m0d49f56103" y="134.453265"/>
     <use style="stroke:#000000;" x="98.120052" xlink:href="#m0d49f56103" y="133.767981"/>
     <use style="stroke:#000000;" x="98.484411" xlink:href="#m0d49f56103" y="133.090136"/>
     <use style="stroke:#000000;" x="98.848769" xlink:href="#m0d49f56103" y="132.41787"/>
     <use style="stroke:#000000;" x="99.213127" xlink:href="#m0d49f56103" y="131.752112"/>
     <use style="stroke:#000000;" x="99.516759" xlink:href="#m0d49f56103" y="131.091934"/>
     <use style="stroke:#000000;" x="100.124023" xlink:href="#m0d49f56103" y="130.438264"/>
     <use style="stroke:#000000;" x="100.427655" xlink:href="#m0d49f56103" y="129.791103"/>
     <use style="stroke:#000000;" x="100.731286" xlink:href="#m0d49f56103" y="129.149521"/>
     <use style="stroke:#000000;" x="101.034918" xlink:href="#m0d49f56103" y="128.513519"/>
     <use style="stroke:#000000;" x="101.33855" xlink:href="#m0d49f56103" y="127.884024"/>
     <use style="stroke:#000000;" x="101.945814" xlink:href="#m0d49f56103" y="126.943967"/>
     <use style="stroke:#000000;" x="102.553078" xlink:href="#m0d49f56103" y="126.016928"/>
     <use style="stroke:#000000;" x="103.160342" xlink:href="#m0d49f56103" y="125.102906"/>
     <use style="stroke:#000000;" x="103.767605" xlink:href="#m0d49f56103" y="124.200972"/>
     <use style="stroke:#000000;" x="104.374869" xlink:href="#m0d49f56103" y="123.311126"/>
     <use style="stroke:#000000;" x="104.982133" xlink:href="#m0d49f56103" y="122.434298"/>
     <use style="stroke:#000000;" x="105.285765" xlink:href="#m0d49f56103" y="121.568627"/>
     <use style="stroke:#000000;" x="105.893028" xlink:href="#m0d49f56103" y="120.715974"/>
     <use style="stroke:#000000;" x="106.500292" xlink:href="#m0d49f56103" y="119.873549"/>
     <use style="stroke:#000000;" x="107.107556" xlink:href="#m0d49f56103" y="119.043212"/>
     <use style="stroke:#000000;" x="107.71482" xlink:href="#m0d49f56103" y="118.224032"/>
     <use style="stroke:#000000;" x="108.322084" xlink:href="#m0d49f56103" y="117.416011"/>
     <use style="stroke:#000000;" x="108.929347" xlink:href="#m0d49f56103" y="116.619148"/>
     <use style="stroke:#000000;" x="109.232979" xlink:href="#m0d49f56103" y="115.833443"/>
     <use style="stroke:#000000;" x="109.840243" xlink:href="#m0d49f56103" y="115.057965"/>
     <use style="stroke:#000000;" x="110.447507" xlink:href="#m0d49f56103" y="114.292716"/>
     <use style="stroke:#000000;" x="111.054771" xlink:href="#m0d49f56103" y="113.537695"/>
     <use style="stroke:#000000;" x="111.662034" xlink:href="#m0d49f56103" y="112.792902"/>
     <use style="stroke:#000000;" x="112.269298" xlink:href="#m0d49f56103" y="112.058337"/>
     <use style="stroke:#000000;" x="112.876562" xlink:href="#m0d49f56103" y="111.333071"/>
     <use style="stroke:#000000;" x="113.180194" xlink:href="#m0d49f56103" y="110.618032"/>
     <use style="stroke:#000000;" x="113.787457" xlink:href="#m0d49f56103" y="109.913222"/>
     <use style="stroke:#000000;" x="114.394721" xlink:href="#m0d49f56103" y="109.21678"/>
     <use style="stroke:#000000;" x="115.001985" xlink:href="#m0d49f56103" y="108.530567"/>
     <use style="stroke:#000000;" x="115.609249" xlink:href="#m0d49f56103" y="107.852721"/>
     <use style="stroke:#000000;" x="116.216513" xlink:href="#m0d49f56103" y="107.184175"/>
     <use style="stroke:#000000;" x="116.520144" xlink:href="#m0d49f56103" y="106.524926"/>
     <use style="stroke:#000000;" x="117.127408" xlink:href="#m0d49f56103" y="105.874046"/>
     <use style="stroke:#000000;" x="117.734672" xlink:href="#m0d49f56103" y="105.231534"/>
     <use style="stroke:#000000;" x="118.341936" xlink:href="#m0d49f56103" y="104.598321"/>
     <use style="stroke:#000000;" x="119.252831" xlink:href="#m0d49f56103" y="103.661983"/>
     <use style="stroke:#000000;" x="120.163727" xlink:href="#m0d49f56103" y="102.745172"/>
     <use style="stroke:#000000;" x="120.770991" xlink:href="#m0d49f56103" y="101.846957"/>
     <use style="stroke:#000000;" x="121.681886" xlink:href="#m0d49f56103" y="100.965479"/>
     <use style="stroke:#000000;" x="122.592782" xlink:href="#m0d49f56103" y="100.101668"/>
     <use style="stroke:#000000;" x="123.503678" xlink:href="#m0d49f56103" y="99.255524"/>
     <use style="stroke:#000000;" x="124.414573" xlink:href="#m0d49f56103" y="98.426117"/>
     <use style="stroke:#000000;" x="125.021837" xlink:href="#m0d49f56103" y="97.612516"/>
     <use style="stroke:#000000;" x="125.932733" xlink:href="#m0d49f56103" y="96.815653"/>
     <use style="stroke:#000000;" x="126.843628" xlink:href="#m0d49f56103" y="96.033667"/>
     <use style="stroke:#000000;" x="127.754524" xlink:href="#m0d49f56103" y="95.267488"/>
     <use style="stroke:#000000;" x="128.361788" xlink:href="#m0d49f56103" y="94.516186"/>
     <use style="stroke:#000000;" x="129.272684" xlink:href="#m0d49f56103" y="93.779762"/>
     <use style="stroke:#000000;" x="130.183579" xlink:href="#m0d49f56103" y="93.058215"/>
     <use style="stroke:#000000;" x="131.094475" xlink:href="#m0d49f56103" y="92.349685"/>
     <use style="stroke:#000000;" x="132.00537" xlink:href="#m0d49f56103" y="91.656033"/>
     <use style="stroke:#000000;" x="132.612634" xlink:href="#m0d49f56103" y="90.975398"/>
     <use style="stroke:#000000;" x="133.52353" xlink:href="#m0d49f56103" y="90.308711"/>
     <use style="stroke:#000000;" x="134.434426" xlink:href="#m0d49f56103" y="89.654111"/>
     <use style="stroke:#000000;" x="135.345321" xlink:href="#m0d49f56103" y="89.012529"/>
     <use style="stroke:#000000;" x="136.256217" xlink:href="#m0d49f56103" y="88.383965"/>
     <use style="stroke:#000000;" x="136.953052" xlink:href="#m0d49f56103" y="87.767489"/>
     <use style="stroke:#000000;" x="138.221626" xlink:href="#m0d49f56103" y="86.864625"/>
     <use style="stroke:#000000;" x="139.489896" xlink:href="#m0d49f56103" y="85.987796"/>
     <use style="stroke:#000000;" x="140.75847" xlink:href="#m0d49f56103" y="85.136073"/>
     <use style="stroke:#000000;" x="142.027044" xlink:href="#m0d49f56103" y="84.309455"/>
     <use style="stroke:#000000;" x="143.295618" xlink:href="#m0d49f56103" y="83.506083"/>
     <use style="stroke:#000000;" x="144.563889" xlink:href="#m0d49f56103" y="82.726886"/>
     <use style="stroke:#000000;" x="145.832463" xlink:href="#m0d49f56103" y="81.969076"/>
     <use style="stroke:#000000;" x="147.101037" xlink:href="#m0d49f56103" y="81.233581"/>
     <use style="stroke:#000000;" x="148.369611" xlink:href="#m0d49f56103" y="80.519473"/>
     <use style="stroke:#000000;" x="149.637881" xlink:href="#m0d49f56103" y="79.82489"/>
     <use style="stroke:#000000;" x="150.906455" xlink:href="#m0d49f56103" y="79.150765"/>
     <use style="stroke:#000000;" x="152.175029" xlink:href="#m0d49f56103" y="78.496165"/>
     <use style="stroke:#000000;" x="153.443603" xlink:href="#m0d49f56103" y="77.859232"/>
     <use style="stroke:#000000;" x="154.711874" xlink:href="#m0d49f56103" y="77.240896"/>
     <use style="stroke:#000000;" x="155.980448" xlink:href="#m0d49f56103" y="76.641157"/>
     <use style="stroke:#000000;" x="157.249022" xlink:href="#m0d49f56103" y="76.057224"/>
     <use style="stroke:#000000;" x="158.517596" xlink:href="#m0d49f56103" y="75.490028"/>
     <use style="stroke:#000000;" x="159.785866" xlink:href="#m0d49f56103" y="74.93957"/>
     <use style="stroke:#000000;" x="161.05444" xlink:href="#m0d49f56103" y="74.403988"/>
     <use style="stroke:#000000;" x="162.323014" xlink:href="#m0d49f56103" y="73.883284"/>
     <use style="stroke:#000000;" x="163.591588" xlink:href="#m0d49f56103" y="73.377457"/>
     <use style="stroke:#000000;" x="164.859858" xlink:href="#m0d49f56103" y="72.886508"/>
     <use style="stroke:#000000;" x="166.128432" xlink:href="#m0d49f56103" y="72.408576"/>
     <use style="stroke:#000000;" x="167.397006" xlink:href="#m0d49f56103" y="71.944591"/>
     <use style="stroke:#000000;" x="168.66558" xlink:href="#m0d49f56103" y="71.493624"/>
     <use style="stroke:#000000;" x="169.933851" xlink:href="#m0d49f56103" y="71.054745"/>
     <use style="stroke:#000000;" x="171.202425" xlink:href="#m0d49f56103" y="70.627953"/>
     <use style="stroke:#000000;" x="172.470999" xlink:href="#m0d49f56103" y="70.214179"/>
     <use style="stroke:#000000;" x="173.739573" xlink:href="#m0d49f56103" y="69.810634"/>
     <use style="stroke:#000000;" x="175.007843" xlink:href="#m0d49f56103" y="69.419176"/>
     <use style="stroke:#000000;" x="176.276417" xlink:href="#m0d49f56103" y="69.037946"/>
     <use style="stroke:#000000;" x="177.544991" xlink:href="#m0d49f56103" y="68.667874"/>
     <use style="stroke:#000000;" x="178.813262" xlink:href="#m0d49f56103" y="68.30803"/>
     <use style="stroke:#000000;" x="180.081836" xlink:href="#m0d49f56103" y="67.957485"/>
     <use style="stroke:#000000;" x="181.35041" xlink:href="#m0d49f56103" y="67.617168"/>
     <use style="stroke:#000000;" x="182.618984" xlink:href="#m0d49f56103" y="67.286148"/>
     <use style="stroke:#000000;" x="183.887254" xlink:href="#m0d49f56103" y="66.963498"/>
     <use style="stroke:#000000;" x="185.155828" xlink:href="#m0d49f56103" y="66.650146"/>
     <use style="stroke:#000000;" x="186.424402" xlink:href="#m0d49f56103" y="66.346091"/>
     <use style="stroke:#000000;" x="187.692976" xlink:href="#m0d49f56103" y="66.049476"/>
     <use style="stroke:#000000;" x="188.961246" xlink:href="#m0d49f56103" y="65.761229"/>
     <use style="stroke:#000000;" x="190.22982" xlink:href="#m0d49f56103" y="65.481351"/>
     <use style="stroke:#000000;" x="191.498394" xlink:href="#m0d49f56103" y="65.207981"/>
     <use style="stroke:#000000;" x="192.766968" xlink:href="#m0d49f56103" y="64.94298"/>
     <use style="stroke:#000000;" x="194.035239" xlink:href="#m0d49f56103" y="64.684487"/>
     <use style="stroke:#000000;" x="195.303813" xlink:href="#m0d49f56103" y="64.433434"/>
     <use style="stroke:#000000;" x="196.572387" xlink:href="#m0d49f56103" y="64.188889"/>
     <use style="stroke:#000000;" x="197.840961" xlink:href="#m0d49f56103" y="63.950852"/>
     <use style="stroke:#000000;" x="199.109231" xlink:href="#m0d49f56103" y="63.720255"/>
     <use style="stroke:#000000;" x="200.377805" xlink:href="#m0d49f56103" y="63.494306"/>
     <use style="stroke:#000000;" x="201.646379" xlink:href="#m0d49f56103" y="63.275797"/>
     <use style="stroke:#000000;" x="202.914953" xlink:href="#m0d49f56103" y="63.061936"/>
     <use style="stroke:#000000;" x="204.183224" xlink:href="#m0d49f56103" y="62.854584"/>
     <use style="stroke:#000000;" x="205.451798" xlink:href="#m0d49f56103" y="62.652811"/>
     <use style="stroke:#000000;" x="206.720372" xlink:href="#m0d49f56103" y="62.455688"/>
     <use style="stroke:#000000;" x="207.988946" xlink:href="#m0d49f56103" y="62.264143"/>
     <use style="stroke:#000000;" x="209.257216" xlink:href="#m0d49f56103" y="62.078177"/>
     <use style="stroke:#000000;" x="210.52579" xlink:href="#m0d49f56103" y="61.89686"/>
     <use style="stroke:#000000;" x="211.794364" xlink:href="#m0d49f56103" y="61.720193"/>
     <use style="stroke:#000000;" x="213.062938" xlink:href="#m0d49f56103" y="61.548175"/>
     <use style="stroke:#000000;" x="214.331208" xlink:href="#m0d49f56103" y="61.380805"/>
     <use style="stroke:#000000;" x="215.599782" xlink:href="#m0d49f56103" y="61.218085"/>
     <use style="stroke:#000000;" x="216.868356" xlink:href="#m0d49f56103" y="61.059085"/>
     <use style="stroke:#000000;" x="218.136931" xlink:href="#m0d49f56103" y="60.904733"/>
     <use style="stroke:#000000;" x="219.405201" xlink:href="#m0d49f56103" y="60.754101"/>
     <use style="stroke:#000000;" x="220.673775" xlink:href="#m0d49f56103" y="60.607188"/>
     <use style="stroke:#000000;" x="221.942349" xlink:href="#m0d49f56103" y="60.464924"/>
     <use style="stroke:#000000;" x="223.210923" xlink:href="#m0d49f56103" y="60.32545"/>
     <use style="stroke:#000000;" x="224.479193" xlink:href="#m0d49f56103" y="60.190624"/>
     <use style="stroke:#000000;" x="225.747767" xlink:href="#m0d49f56103" y="60.058589"/>
     <use style="stroke:#000000;" x="227.016341" xlink:href="#m0d49f56103" y="59.930272"/>
     <use style="stroke:#000000;" x="228.284915" xlink:href="#m0d49f56103" y="59.804746"/>
     <use style="stroke:#000000;" x="229.553186" xlink:href="#m0d49f56103" y="59.682938"/>
     <use style="stroke:#000000;" x="230.82176" xlink:href="#m0d49f56103" y="59.56392"/>
     <use style="stroke:#000000;" x="232.090334" xlink:href="#m0d49f56103" y="59.447691"/>
     <use style="stroke:#000000;" x="233.358908" xlink:href="#m0d49f56103" y="59.335182"/>
     <use style="stroke:#000000;" x="234.627178" xlink:href="#m0d49f56103" y="59.225462"/>
     <use style="stroke:#000000;" x="235.895752" xlink:href="#m0d49f56103" y="59.118532"/>
     <use style="stroke:#000000;" x="237.164326" xlink:href="#m0d49f56103" y="59.014391"/>
     <use style="stroke:#000000;" x="238.4329" xlink:href="#m0d49f56103" y="58.91211"/>
     <use style="stroke:#000000;" x="239.701171" xlink:href="#m0d49f56103" y="58.813548"/>
     <use style="stroke:#000000;" x="240.969745" xlink:href="#m0d49f56103" y="58.716846"/>
     <use style="stroke:#000000;" x="242.238319" xlink:href="#m0d49f56103" y="58.622003"/>
     <use style="stroke:#000000;" x="243.506589" xlink:href="#m0d49f56103" y="58.53088"/>
     <use style="stroke:#000000;" x="244.775163" xlink:href="#m0d49f56103" y="58.440687"/>
     <use style="stroke:#000000;" x="246.043737" xlink:href="#m0d49f56103" y="58.354213"/>
     <use style="stroke:#000000;" x="247.312311" xlink:href="#m0d49f56103" y="58.268668"/>
     <use style="stroke:#000000;" x="248.580581" xlink:href="#m0d49f56103" y="58.185914"/>
     <use style="stroke:#000000;" x="249.849155" xlink:href="#m0d49f56103" y="58.105018"/>
     <use style="stroke:#000000;" x="251.117729" xlink:href="#m0d49f56103" y="58.025983"/>
     <use style="stroke:#000000;" x="253.02059" xlink:href="#m0d49f56103" y="57.911614"/>
     <use style="stroke:#000000;" x="254.923755" xlink:href="#m0d49f56103" y="57.800964"/>
     <use style="stroke:#000000;" x="256.826616" xlink:href="#m0d49f56103" y="57.694964"/>
     <use style="stroke:#000000;" x="258.729781" xlink:href="#m0d49f56103" y="57.592683"/>
     <use style="stroke:#000000;" x="260.632642" xlink:href="#m0d49f56103" y="57.494121"/>
     <use style="stroke:#000000;" x="262.535806" xlink:href="#m0d49f56103" y="57.399278"/>
     <use style="stroke:#000000;" x="264.438667" xlink:href="#m0d49f56103" y="57.307225"/>
     <use style="stroke:#000000;" x="266.341832" xlink:href="#m0d49f56103" y="57.218891"/>
     <use style="stroke:#000000;" x="268.244693" xlink:href="#m0d49f56103" y="57.134277"/>
     <use style="stroke:#000000;" x="270.147858" xlink:href="#m0d49f56103" y="57.052452"/>
     <use style="stroke:#000000;" x="272.050719" xlink:href="#m0d49f56103" y="56.973417"/>
     <use style="stroke:#000000;" x="273.953883" xlink:href="#m0d49f56103" y="56.897171"/>
     <use style="stroke:#000000;" x="275.856744" xlink:href="#m0d49f56103" y="56.823714"/>
     <use style="stroke:#000000;" x="277.759909" xlink:href="#m0d49f56103" y="56.753047"/>
     <use style="stroke:#000000;" x="279.66277" xlink:href="#m0d49f56103" y="56.68517"/>
     <use style="stroke:#000000;" x="281.565935" xlink:href="#m0d49f56103" y="56.619152"/>
     <use style="stroke:#000000;" x="283.468796" xlink:href="#m0d49f56103" y="56.554994"/>
     <use style="stroke:#000000;" x="285.37196" xlink:href="#m0d49f56103" y="56.493625"/>
     <use style="stroke:#000000;" x="287.274821" xlink:href="#m0d49f56103" y="56.435046"/>
     <use style="stroke:#000000;" x="289.177986" xlink:href="#m0d49f56103" y="56.378326"/>
     <use style="stroke:#000000;" x="291.080847" xlink:href="#m0d49f56103" y="56.322536"/>
     <use style="stroke:#000000;" x="292.984012" xlink:href="#m0d49f56103" y="56.269536"/>
     <use style="stroke:#000000;" x="294.886873" xlink:href="#m0d49f56103" y="56.218396"/>
     <use style="stroke:#000000;" x="296.790037" xlink:href="#m0d49f56103" y="56.169115"/>
     <use style="stroke:#000000;" x="298.692898" xlink:href="#m0d49f56103" y="56.120764"/>
     <use style="stroke:#000000;" x="300.596063" xlink:href="#m0d49f56103" y="56.075202"/>
     <use style="stroke:#000000;" x="302.498924" xlink:href="#m0d49f56103" y="56.03057"/>
     <use style="stroke:#000000;" x="304.402089" xlink:href="#m0d49f56103" y="55.986868"/>
     <use style="stroke:#000000;" x="306.30495" xlink:href="#m0d49f56103" y="55.945026"/>
     <use style="stroke:#000000;" x="308.208114" xlink:href="#m0d49f56103" y="55.905043"/>
     <use style="stroke:#000000;" x="310.110975" xlink:href="#m0d49f56103" y="55.865991"/>
     <use style="stroke:#000000;" x="312.01414" xlink:href="#m0d49f56103" y="55.828797"/>
     <use style="stroke:#000000;" x="313.917001" xlink:href="#m0d49f56103" y="55.792534"/>
     <use style="stroke:#000000;" x="315.820166" xlink:href="#m0d49f56103" y="55.757201"/>
     <use style="stroke:#000000;" x="317.723027" xlink:href="#m0d49f56103" y="55.723727"/>
     <use style="stroke:#000000;" x="319.626191" xlink:href="#m0d49f56103" y="55.690253"/>
     <use style="stroke:#000000;" x="321.529052" xlink:href="#m0d49f56103" y="55.658639"/>
     <use style="stroke:#000000;" x="323.432217" xlink:href="#m0d49f56103" y="55.627954"/>
     <use style="stroke:#000000;" x="325.335078" xlink:href="#m0d49f56103" y="55.59913"/>
     <use style="stroke:#000000;" x="327.238243" xlink:href="#m0d49f56103" y="55.570305"/>
     <use style="stroke:#000000;" x="329.141104" xlink:href="#m0d49f56103" y="55.54241"/>
     <use style="stroke:#000000;" x="331.044268" xlink:href="#m0d49f56103" y="55.515445"/>
     <use style="stroke:#000000;" x="332.947129" xlink:href="#m0d49f56103" y="55.48941"/>
     <use style="stroke:#000000;" x="334.850294" xlink:href="#m0d49f56103" y="55.464304"/>
     <use style="stroke:#000000;" x="336.753155" xlink:href="#m0d49f56103" y="55.440129"/>
     <use style="stroke:#000000;" x="338.65632" xlink:href="#m0d49f56103" y="55.416883"/>
     <use style="stroke:#000000;" x="340.559181" xlink:href="#m0d49f56103" y="55.393637"/>
     <use style="stroke:#000000;" x="342.462345" xlink:href="#m0d49f56103" y="55.371322"/>
     <use style="stroke:#000000;" x="344.365206" xlink:href="#m0d49f56103" y="55.349936"/>
     <use style="stroke:#000000;" x="346.268371" xlink:href="#m0d49f56103" y="55.329479"/>
     <use style="stroke:#000000;" x="348.171232" xlink:href="#m0d49f56103" y="55.309953"/>
     <use style="stroke:#000000;" x="350.074396" xlink:href="#m0d49f56103" y="55.290426"/>
     <use style="stroke:#000000;" x="351.977257" xlink:href="#m0d49f56103" y="55.2709"/>
     <use style="stroke:#000000;" x="353.880422" xlink:href="#m0d49f56103" y="55.253233"/>
     <use style="stroke:#000000;" x="355.783283" xlink:href="#m0d49f56103" y="55.235567"/>
     <use style="stroke:#000000;" x="357.686448" xlink:href="#m0d49f56103" y="55.2179"/>
     <use style="stroke:#000000;" x="359.589309" xlink:href="#m0d49f56103" y="55.202093"/>
     <use style="stroke:#000000;" x="361.492473" xlink:href="#m0d49f56103" y="55.185356"/>
     <use style="stroke:#000000;" x="363.395334" xlink:href="#m0d49f56103" y="55.170479"/>
     <use style="stroke:#000000;" x="365.298499" xlink:href="#m0d49f56103" y="55.154671"/>
     <use style="stroke:#000000;" x="367.20136" xlink:href="#m0d49f56103" y="55.140724"/>
     <use style="stroke:#000000;" x="369.104525" xlink:href="#m0d49f56103" y="55.125847"/>
     <use style="stroke:#000000;" x="371.007386" xlink:href="#m0d49f56103" y="55.112829"/>
     <use style="stroke:#000000;" x="372.909943" xlink:href="#m0d49f56103" y="55.098882"/>
    </g>
   </g>
   <g id="line2d_15">
    <path clip-path="url(#p3d92fad60d)" d="M 68.546307 188.401993 
L 68.886375 188.295465 
L 69.265914 187.947528 
L 69.785125 187.142045 
L 70.450079 185.660714 
L 71.354902 183.034279 
L 72.645337 178.493256 
L 74.922576 169.497815 
L 78.626885 155.002358 
L 81.389935 145.141071 
L 83.91008 136.907298 
L 86.612404 128.811396 
L 89.314728 121.398295 
L 92.138504 114.303251 
L 95.114097 107.477651 
L 98.120052 101.192938 
L 101.034918 95.632016 
L 103.767605 90.853343 
L 106.500292 86.457338 
L 109.232979 82.412334 
L 112.269298 78.297459 
L 115.001985 74.941135 
L 118.341936 71.119994 
L 121.681886 67.707187 
L 125.021837 64.630936 
L 129.272684 61.125747 
L 132.612634 58.628681 
L 136.256217 56.164645 
L 139.489896 54.181022 
L 143.295618 52.062366 
L 147.101037 50.174787 
L 150.906455 48.487648 
L 155.980448 46.516937 
L 161.05444 44.776623 
L 168.66558 42.591631 
L 173.739573 41.34379 
L 182.618984 39.524221 
L 188.961246 38.489445 
L 197.840961 37.258376 
L 207.988946 36.158693 
L 219.405201 35.220487 
L 233.358908 34.38345 
L 249.849155 33.697282 
L 268.244693 33.178029 
L 292.984012 32.746481 
L 329.141104 32.403421 
L 372.909943 32.201761 
L 372.909943 32.201761 
" style="fill:none;stroke:#0000ff;stroke-dasharray:5.55,2.4;stroke-dashoffset:0;stroke-width:1.5;"/>
   </g>
   <g id="line2d_16">
    <path clip-path="url(#p3d92fad60d)" d="M 68.546307 229.874488 
L 68.886375 229.767621 
L 69.265914 229.420029 
L 69.785125 228.619289 
L 70.495624 227.043932 
L 71.424737 224.383962 
L 72.85788 219.499224 
L 80.084318 193.801195 
L 82.695553 185.747031 
L 85.397876 178.105519 
L 88.343106 170.467899 
L 91.288335 163.451517 
L 94.38538 156.65995 
L 97.725331 149.936752 
L 101.034918 143.823735 
L 104.374869 138.159803 
L 107.71482 132.957058 
L 111.054771 128.179363 
L 115.001985 123.002703 
L 118.341936 119.065958 
L 121.681886 115.420623 
L 125.932733 111.185603 
L 129.272684 108.206241 
L 132.612634 105.488494 
L 136.256217 102.787173 
L 139.489896 100.603388 
L 143.295618 98.270905 
L 147.101037 96.150537 
L 152.175029 93.630867 
L 155.980448 91.954257 
L 161.05444 89.99337 
L 164.859858 88.685493 
L 168.66558 87.499938 
L 176.276417 85.487878 
L 181.35041 84.376989 
L 190.22982 82.737018 
L 197.840961 81.630286 
L 204.183224 80.853237 
L 214.331208 79.854698 
L 224.479193 79.090992 
L 235.895752 78.435554 
L 249.849155 77.848954 
L 268.244693 77.324007 
L 289.177986 76.934031 
L 321.529052 76.58436 
L 367.20136 76.337671 
L 372.909943 76.319304 
L 372.909943 76.319304 
" style="fill:none;stroke:#0000ff;stroke-dasharray:5.55,2.4;stroke-dashoffset:0;stroke-width:1.5;"/>
   </g>
   <g id="line2d_17"/>
   <g id="line2d_18"/>
   <g id="line2d_19"/>
   <g id="line2d_20"/>
   <g id="line2d_21"/>
   <g id="line2d_22"/>
   <g id="patch_3">
    <path d="M 53.328125 239.758125 
L 53.328125 22.318125 
" style="fill:none;stroke:#000000;stroke-linecap:square;stroke-linejoin:miter;stroke-width:0.8;"/>
   </g>
   <g id="patch_4">
    <path d="M 388.128125 239.758125 
L 388.128125 22.318125 
" style="fill:none;stroke:#000000;stroke-linecap:square;stroke-linejoin:miter;stroke-width:0.8;"/>
   </g>
   <g id="patch_5">
    <path d="M 53.328125 239.758125 
L 388.128125 239.758125 
" style="fill:none;stroke:#000000;stroke-linecap:square;stroke-linejoin:miter;stroke-width:0.8;"/>
   </g>
   <g id="patch_6">
    <path d="M 53.328125 22.318125 
L 388.128125 22.318125 
" style="fill:none;stroke:#000000;stroke-linecap:square;stroke-linejoin:miter;stroke-width:0.8;"/>
   </g>
   <g id="text_14">
    <!-- Experiment_17 -->
    <defs>
     <path d="M 9.8125 72.90625 
L 55.90625 72.90625 
L 55.90625 64.59375 
L 19.671875 64.59375 
L 19.671875 43.015625 
L 54.390625 43.015625 
L 54.390625 34.71875 
L 19.671875 34.71875 
L 19.671875 8.296875 
L 56.78125 8.296875 
L 56.78125 0 
L 9.8125 0 
z
" id="DejaVuSans-69"/>
     <path d="M 54.890625 54.6875 
L 35.109375 28.078125 
L 55.90625 0 
L 45.3125 0 
L 29.390625 21.484375 
L 13.484375 0 
L 2.875 0 
L 24.125 28.609375 
L 4.6875 54.6875 
L 15.28125 54.6875 
L 29.78125 35.203125 
L 44.28125 54.6875 
z
" id="DejaVuSans-120"/>
     <path d="M 41.109375 46.296875 
Q 39.59375 47.171875 37.8125 47.578125 
Q 36.03125 48 33.890625 48 
Q 26.265625 48 22.1875 43.046875 
Q 18.109375 38.09375 18.109375 28.8125 
L 18.109375 0 
L 9.078125 0 
L 9.078125 54.6875 
L 18.109375 54.6875 
L 18.109375 46.1875 
Q 20.953125 51.171875 25.484375 53.578125 
Q 30.03125 56 36.53125 56 
Q 37.453125 56 38.578125 55.875 
Q 39.703125 55.765625 41.0625 55.515625 
z
" id="DejaVuSans-114"/>
     <path d="M 54.890625 33.015625 
L 54.890625 0 
L 45.90625 0 
L 45.90625 32.71875 
Q 45.90625 40.484375 42.875 44.328125 
Q 39.84375 48.1875 33.796875 48.1875 
Q 26.515625 48.1875 22.3125 43.546875 
Q 18.109375 38.921875 18.109375 30.90625 
L 18.109375 0 
L 9.078125 0 
L 9.078125 54.6875 
L 18.109375 54.6875 
L 18.109375 46.1875 
Q 21.34375 51.125 25.703125 53.5625 
Q 30.078125 56 35.796875 56 
Q 45.21875 56 50.046875 50.171875 
Q 54.890625 44.34375 54.890625 33.015625 
z
" id="DejaVuSans-110"/>
     <path d="M 18.3125 70.21875 
L 18.3125 54.6875 
L 36.8125 54.6875 
L 36.8125 47.703125 
L 18.3125 47.703125 
L 18.3125 18.015625 
Q 18.3125 11.328125 20.140625 9.421875 
Q 21.96875 7.515625 27.59375 7.515625 
L 36.8125 7.515625 
L 36.8125 0 
L 27.59375 0 
Q 17.1875 0 13.234375 3.875 
Q 9.28125 7.765625 9.28125 18.015625 
L 9.28125 47.703125 
L 2.6875 47.703125 
L 2.6875 54.6875 
L 9.28125 54.6875 
L 9.28125 70.21875 
z
" id="DejaVuSans-116"/>
     <path d="M 50.984375 -16.609375 
L 50.984375 -23.578125 
L -0.984375 -23.578125 
L -0.984375 -16.609375 
z
" id="DejaVuSans-95"/>
     <path d="M 8.203125 72.90625 
L 55.078125 72.90625 
L 55.078125 68.703125 
L 28.609375 0 
L 18.3125 0 
L 43.21875 64.59375 
L 8.203125 64.59375 
z
" id="DejaVuSans-55"/>
    </defs>
    <g transform="translate(175.425313 16.318125)scale(0.12 -0.12)">
     <use xlink:href="#DejaVuSans-69"/>
     <use x="63.183594" xlink:href="#DejaVuSans-120"/>
     <use x="122.363281" xlink:href="#DejaVuSans-112"/>
     <use x="185.839844" xlink:href="#DejaVuSans-101"/>
     <use x="247.363281" xlink:href="#DejaVuSans-114"/>
     <use x="288.476562" xlink:href="#DejaVuSans-105"/>
     <use x="316.259766" xlink:href="#DejaVuSans-109"/>
     <use x="413.671875" xlink:href="#DejaVuSans-101"/>
     <use x="475.195312" xlink:href="#DejaVuSans-110"/>
     <use x="538.574219" xlink:href="#DejaVuSans-116"/>
     <use x="577.783203" xlink:href="#DejaVuSans-95"/>
     <use x="627.783203" xlink:href="#DejaVuSans-49"/>
     <use x="691.40625" xlink:href="#DejaVuSans-55"/>
    </g>
   </g>
   <g id="legend_1">
    <g id="patch_7">
     <path d="M 125.007812 234.758125 
L 381.128125 234.758125 
Q 383.128125 234.758125 383.128125 232.758125 
L 383.128125 160.345625 
Q 383.128125 158.345625 381.128125 158.345625 
L 125.007812 158.345625 
Q 123.007812 158.345625 123.007812 160.345625 
L 123.007812 232.758125 
Q 123.007812 234.758125 125.007812 234.758125 
z
" style="fill:#ffffff;opacity:0.8;stroke:#cccccc;stroke-linejoin:miter;"/>
    </g>
    <g id="line2d_23">
     <path d="M 127.007812 166.444062 
L 147.007812 166.444062 
" style="fill:none;stroke:#0000ff;stroke-linecap:square;stroke-width:1.5;"/>
    </g>
    <g id="line2d_24"/>
    <g id="text_15">
     <!-- MSI -->
     <defs>
      <path d="M 9.8125 72.90625 
L 24.515625 72.90625 
L 43.109375 23.296875 
L 61.8125 72.90625 
L 76.515625 72.90625 
L 76.515625 0 
L 66.890625 0 
L 66.890625 64.015625 
L 48.09375 14.015625 
L 38.1875 14.015625 
L 19.390625 64.015625 
L 19.390625 0 
L 9.8125 0 
z
" id="DejaVuSans-77"/>
      <path d="M 53.515625 70.515625 
L 53.515625 60.890625 
Q 47.90625 63.578125 42.921875 64.890625 
Q 37.9375 66.21875 33.296875 66.21875 
Q 25.25 66.21875 20.875 63.09375 
Q 16.5 59.96875 16.5 54.203125 
Q 16.5 49.359375 19.40625 46.890625 
Q 22.3125 44.4375 30.421875 42.921875 
L 36.375 41.703125 
Q 47.40625 39.59375 52.65625 34.296875 
Q 57.90625 29 57.90625 20.125 
Q 57.90625 9.515625 50.796875 4.046875 
Q 43.703125 -1.421875 29.984375 -1.421875 
Q 24.8125 -1.421875 18.96875 -0.25 
Q 13.140625 0.921875 6.890625 3.21875 
L 6.890625 13.375 
Q 12.890625 10.015625 18.65625 8.296875 
Q 24.421875 6.59375 29.984375 6.59375 
Q 38.421875 6.59375 43.015625 9.90625 
Q 47.609375 13.234375 47.609375 19.390625 
Q 47.609375 24.75 44.3125 27.78125 
Q 41.015625 30.8125 33.5 32.328125 
L 27.484375 33.5 
Q 16.453125 35.6875 11.515625 40.375 
Q 6.59375 45.0625 6.59375 53.421875 
Q 6.59375 63.09375 13.40625 68.65625 
Q 20.21875 74.21875 32.171875 74.21875 
Q 37.3125 74.21875 42.625 73.28125 
Q 47.953125 72.359375 53.515625 70.515625 
z
" id="DejaVuSans-83"/>
      <path d="M 9.8125 72.90625 
L 19.671875 72.90625 
L 19.671875 0 
L 9.8125 0 
z
" id="DejaVuSans-73"/>
     </defs>
     <g transform="translate(155.007812 169.944062)scale(0.1 -0.1)">
      <use xlink:href="#DejaVuSans-77"/>
      <use x="86.279297" xlink:href="#DejaVuSans-83"/>
      <use x="149.755859" xlink:href="#DejaVuSans-73"/>
     </g>
    </g>
    <g id="line2d_25">
     <path d="M 127.007812 181.12375 
L 147.007812 181.12375 
" style="fill:none;stroke:#ff0000;stroke-linecap:square;stroke-width:1.5;"/>
    </g>
    <g id="line2d_26"/>
    <g id="text_16">
     <!-- $\it{A priori}$ model -->
     <defs>
      <path d="M 36.8125 72.90625 
L 48 72.90625 
L 61.53125 0 
L 51.21875 0 
L 48.1875 18.703125 
L 15.375 18.703125 
L 5.078125 0 
L -5.328125 0 
z
M 40.375 63.1875 
L 19.921875 26.90625 
L 46.6875 26.90625 
z
" id="DejaVuSans-Oblique-65"/>
      <path d="M 49.609375 33.6875 
Q 49.609375 40.875 46.484375 44.671875 
Q 43.359375 48.484375 37.5 48.484375 
Q 33.5 48.484375 29.859375 46.4375 
Q 26.21875 44.390625 23.390625 40.484375 
Q 20.609375 36.625 18.9375 31.15625 
Q 17.28125 25.6875 17.28125 20.3125 
Q 17.28125 13.484375 20.40625 9.796875 
Q 23.53125 6.109375 29.296875 6.109375 
Q 33.546875 6.109375 37.1875 8.109375 
Q 40.828125 10.109375 43.40625 13.921875 
Q 46.1875 17.921875 47.890625 23.34375 
Q 49.609375 28.765625 49.609375 33.6875 
z
M 21.78125 46.390625 
Q 25.390625 51.125 30.296875 53.5625 
Q 35.203125 56 41.21875 56 
Q 49.609375 56 54.25 50.5 
Q 58.890625 45.015625 58.890625 35.109375 
Q 58.890625 27 56 19.65625 
Q 53.125 12.3125 47.703125 6.5 
Q 44.09375 2.640625 39.546875 0.609375 
Q 35.015625 -1.421875 29.984375 -1.421875 
Q 24.171875 -1.421875 20.21875 1 
Q 16.265625 3.421875 14.3125 8.203125 
L 8.6875 -20.796875 
L -0.296875 -20.796875 
L 14.40625 54.6875 
L 23.390625 54.6875 
z
" id="DejaVuSans-Oblique-112"/>
      <path d="M 44.578125 46.390625 
Q 43.21875 47.125 41.453125 47.515625 
Q 39.703125 47.90625 37.703125 47.90625 
Q 30.515625 47.90625 25.140625 42.453125 
Q 19.78125 37.015625 18.015625 27.875 
L 12.5 0 
L 3.515625 0 
L 14.203125 54.6875 
L 23.1875 54.6875 
L 21.484375 46.1875 
Q 25.046875 50.921875 30 53.453125 
Q 34.96875 56 40.578125 56 
Q 42.046875 56 43.453125 55.828125 
Q 44.875 55.671875 46.296875 55.28125 
z
" id="DejaVuSans-Oblique-114"/>
      <path d="M 18.3125 75.984375 
L 27.296875 75.984375 
L 25.09375 64.59375 
L 16.109375 64.59375 
z
M 14.203125 54.6875 
L 23.1875 54.6875 
L 12.5 0 
L 3.515625 0 
z
" id="DejaVuSans-Oblique-105"/>
      <path d="M 25.390625 -1.421875 
Q 15.765625 -1.421875 10.171875 4.515625 
Q 4.59375 10.453125 4.59375 20.703125 
Q 4.59375 26.65625 6.515625 32.828125 
Q 8.453125 39.015625 11.53125 43.21875 
Q 16.359375 49.75 22.3125 52.875 
Q 28.265625 56 35.796875 56 
Q 45.125 56 50.859375 50.1875 
Q 56.59375 44.390625 56.59375 35.015625 
Q 56.59375 28.515625 54.6875 22.0625 
Q 52.78125 15.625 49.703125 11.375 
Q 44.921875 4.828125 38.96875 1.703125 
Q 33.015625 -1.421875 25.390625 -1.421875 
z
M 13.921875 21 
Q 13.921875 13.578125 17.015625 9.890625 
Q 20.125 6.203125 26.421875 6.203125 
Q 35.453125 6.203125 41.375 14.078125 
Q 47.3125 21.96875 47.3125 34.078125 
Q 47.3125 41.15625 44.140625 44.765625 
Q 40.96875 48.390625 34.8125 48.390625 
Q 29.734375 48.390625 25.78125 46.015625 
Q 21.828125 43.65625 18.703125 38.8125 
Q 16.40625 35.203125 15.15625 30.5625 
Q 13.921875 25.921875 13.921875 21 
z
" id="DejaVuSans-Oblique-111"/>
      <path d="M 30.609375 48.390625 
Q 23.390625 48.390625 19.1875 42.75 
Q 14.984375 37.109375 14.984375 27.296875 
Q 14.984375 17.484375 19.15625 11.84375 
Q 23.34375 6.203125 30.609375 6.203125 
Q 37.796875 6.203125 41.984375 11.859375 
Q 46.1875 17.53125 46.1875 27.296875 
Q 46.1875 37.015625 41.984375 42.703125 
Q 37.796875 48.390625 30.609375 48.390625 
z
M 30.609375 56 
Q 42.328125 56 49.015625 48.375 
Q 55.71875 40.765625 55.71875 27.296875 
Q 55.71875 13.875 49.015625 6.21875 
Q 42.328125 -1.421875 30.609375 -1.421875 
Q 18.84375 -1.421875 12.171875 6.21875 
Q 5.515625 13.875 5.515625 27.296875 
Q 5.515625 40.765625 12.171875 48.375 
Q 18.84375 56 30.609375 56 
z
" id="DejaVuSans-111"/>
      <path d="M 45.40625 46.390625 
L 45.40625 75.984375 
L 54.390625 75.984375 
L 54.390625 0 
L 45.40625 0 
L 45.40625 8.203125 
Q 42.578125 3.328125 38.25 0.953125 
Q 33.9375 -1.421875 27.875 -1.421875 
Q 17.96875 -1.421875 11.734375 6.484375 
Q 5.515625 14.40625 5.515625 27.296875 
Q 5.515625 40.1875 11.734375 48.09375 
Q 17.96875 56 27.875 56 
Q 33.9375 56 38.25 53.625 
Q 42.578125 51.265625 45.40625 46.390625 
z
M 14.796875 27.296875 
Q 14.796875 17.390625 18.875 11.75 
Q 22.953125 6.109375 30.078125 6.109375 
Q 37.203125 6.109375 41.296875 11.75 
Q 45.40625 17.390625 45.40625 27.296875 
Q 45.40625 37.203125 41.296875 42.84375 
Q 37.203125 48.484375 30.078125 48.484375 
Q 22.953125 48.484375 18.875 42.84375 
Q 14.796875 37.203125 14.796875 27.296875 
z
" id="DejaVuSans-100"/>
      <path d="M 9.421875 75.984375 
L 18.40625 75.984375 
L 18.40625 0 
L 9.421875 0 
z
" id="DejaVuSans-108"/>
     </defs>
     <g transform="translate(155.007812 184.62375)scale(0.1 -0.1)">
      <use transform="translate(0 0.015625)" xlink:href="#DejaVuSans-Oblique-65"/>
      <use transform="translate(68.408203 0.015625)" xlink:href="#DejaVuSans-Oblique-112"/>
      <use transform="translate(131.884766 0.015625)" xlink:href="#DejaVuSans-Oblique-114"/>
      <use transform="translate(172.998047 0.015625)" xlink:href="#DejaVuSans-Oblique-105"/>
      <use transform="translate(200.78125 0.015625)" xlink:href="#DejaVuSans-Oblique-111"/>
      <use transform="translate(261.962891 0.015625)" xlink:href="#DejaVuSans-Oblique-114"/>
      <use transform="translate(303.076172 0.015625)" xlink:href="#DejaVuSans-Oblique-105"/>
      <use transform="translate(330.859375 0.015625)" xlink:href="#DejaVuSans-32"/>
      <use transform="translate(362.646484 0.015625)" xlink:href="#DejaVuSans-109"/>
      <use transform="translate(460.058594 0.015625)" xlink:href="#DejaVuSans-111"/>
      <use transform="translate(521.240234 0.015625)" xlink:href="#DejaVuSans-100"/>
      <use transform="translate(584.716797 0.015625)" xlink:href="#DejaVuSans-101"/>
      <use transform="translate(646.240234 0.015625)" xlink:href="#DejaVuSans-108"/>
     </g>
    </g>
    <g id="line2d_27"/>
    <g id="line2d_28">
     <g>
      <use style="stroke:#000000;" x="137.007812" xlink:href="#m0d49f56103" y="195.822187"/>
     </g>
    </g>
    <g id="text_17">
     <!-- Experimental Data -->
     <defs>
      <path d="M 34.28125 27.484375 
Q 23.390625 27.484375 19.1875 25 
Q 14.984375 22.515625 14.984375 16.5 
Q 14.984375 11.71875 18.140625 8.90625 
Q 21.296875 6.109375 26.703125 6.109375 
Q 34.1875 6.109375 38.703125 11.40625 
Q 43.21875 16.703125 43.21875 25.484375 
L 43.21875 27.484375 
z
M 52.203125 31.203125 
L 52.203125 0 
L 43.21875 0 
L 43.21875 8.296875 
Q 40.140625 3.328125 35.546875 0.953125 
Q 30.953125 -1.421875 24.3125 -1.421875 
Q 15.921875 -1.421875 10.953125 3.296875 
Q 6 8.015625 6 15.921875 
Q 6 25.140625 12.171875 29.828125 
Q 18.359375 34.515625 30.609375 34.515625 
L 43.21875 34.515625 
L 43.21875 35.40625 
Q 43.21875 41.609375 39.140625 45 
Q 35.0625 48.390625 27.6875 48.390625 
Q 23 48.390625 18.546875 47.265625 
Q 14.109375 46.140625 10.015625 43.890625 
L 10.015625 52.203125 
Q 14.9375 54.109375 19.578125 55.046875 
Q 24.21875 56 28.609375 56 
Q 40.484375 56 46.34375 49.84375 
Q 52.203125 43.703125 52.203125 31.203125 
z
" id="DejaVuSans-97"/>
      <path d="M 19.671875 64.796875 
L 19.671875 8.109375 
L 31.59375 8.109375 
Q 46.6875 8.109375 53.6875 14.9375 
Q 60.6875 21.78125 60.6875 36.53125 
Q 60.6875 51.171875 53.6875 57.984375 
Q 46.6875 64.796875 31.59375 64.796875 
z
M 9.8125 72.90625 
L 30.078125 72.90625 
Q 51.265625 72.90625 61.171875 64.09375 
Q 71.09375 55.28125 71.09375 36.53125 
Q 71.09375 17.671875 61.125 8.828125 
Q 51.171875 0 30.078125 0 
L 9.8125 0 
z
" id="DejaVuSans-68"/>
     </defs>
     <g transform="translate(155.007812 199.322187)scale(0.1 -0.1)">
      <use xlink:href="#DejaVuSans-69"/>
      <use x="63.183594" xlink:href="#DejaVuSans-120"/>
      <use x="122.363281" xlink:href="#DejaVuSans-112"/>
      <use x="185.839844" xlink:href="#DejaVuSans-101"/>
      <use x="247.363281" xlink:href="#DejaVuSans-114"/>
      <use x="288.476562" xlink:href="#DejaVuSans-105"/>
      <use x="316.259766" xlink:href="#DejaVuSans-109"/>
      <use x="413.671875" xlink:href="#DejaVuSans-101"/>
      <use x="475.195312" xlink:href="#DejaVuSans-110"/>
      <use x="538.574219" xlink:href="#DejaVuSans-116"/>
      <use x="577.783203" xlink:href="#DejaVuSans-97"/>
      <use x="639.0625" xlink:href="#DejaVuSans-108"/>
      <use x="666.845703" xlink:href="#DejaVuSans-32"/>
      <use x="698.632812" xlink:href="#DejaVuSans-68"/>
      <use x="775.634766" xlink:href="#DejaVuSans-97"/>
      <use x="836.914062" xlink:href="#DejaVuSans-116"/>
      <use x="876.123047" xlink:href="#DejaVuSans-97"/>
     </g>
    </g>
    <g id="line2d_29">
     <path d="M 127.007812 210.500312 
L 147.007812 210.500312 
" style="fill:none;stroke:#ffffff;stroke-linecap:square;stroke-width:1.5;"/>
    </g>
    <g id="line2d_30"/>
    <g id="text_18">
     <!-- T:1227 -->
     <defs>
      <path d="M 11.71875 12.40625 
L 22.015625 12.40625 
L 22.015625 0 
L 11.71875 0 
z
M 11.71875 51.703125 
L 22.015625 51.703125 
L 22.015625 39.3125 
L 11.71875 39.3125 
z
" id="DejaVuSans-58"/>
     </defs>
     <g transform="translate(155.007812 214.000312)scale(0.1 -0.1)">
      <use xlink:href="#DejaVuSans-84"/>
      <use x="60.912109" xlink:href="#DejaVuSans-58"/>
      <use x="94.603516" xlink:href="#DejaVuSans-49"/>
      <use x="158.226562" xlink:href="#DejaVuSans-50"/>
      <use x="221.849609" xlink:href="#DejaVuSans-50"/>
      <use x="285.472656" xlink:href="#DejaVuSans-55"/>
     </g>
    </g>
    <g id="line2d_31">
     <path d="M 127.007812 225.178437 
L 147.007812 225.178437 
" style="fill:none;stroke:#ffffff;stroke-linecap:square;stroke-width:1.5;"/>
    </g>
    <g id="line2d_32"/>
    <g id="text_19">
     <!-- P:1.558 -->
     <defs>
      <path d="M 19.671875 64.796875 
L 19.671875 37.40625 
L 32.078125 37.40625 
Q 38.96875 37.40625 42.71875 40.96875 
Q 46.484375 44.53125 46.484375 51.125 
Q 46.484375 57.671875 42.71875 61.234375 
Q 38.96875 64.796875 32.078125 64.796875 
z
M 9.8125 72.90625 
L 32.078125 72.90625 
Q 44.34375 72.90625 50.609375 67.359375 
Q 56.890625 61.8125 56.890625 51.125 
Q 56.890625 40.328125 50.609375 34.8125 
Q 44.34375 29.296875 32.078125 29.296875 
L 19.671875 29.296875 
L 19.671875 0 
L 9.8125 0 
z
" id="DejaVuSans-80"/>
     </defs>
     <g transform="translate(155.007812 228.678437)scale(0.1 -0.1)">
      <use xlink:href="#DejaVuSans-80"/>
      <use x="60.302734" xlink:href="#DejaVuSans-58"/>
      <use x="93.994141" xlink:href="#DejaVuSans-49"/>
      <use x="157.617188" xlink:href="#DejaVuSans-46"/>
      <use x="189.404297" xlink:href="#DejaVuSans-53"/>
      <use x="253.027344" xlink:href="#DejaVuSans-53"/>
      <use x="316.650391" xlink:href="#DejaVuSans-56"/>
     </g>
    </g>
    <g id="line2d_33">
     <path d="M 268.748438 166.444062 
L 288.748438 166.444062 
" style="fill:none;stroke:#ffffff;stroke-linecap:square;stroke-width:1.5;"/>
    </g>
    <g id="line2d_34"/>
    <g id="text_20">
     <!-- H2O2: 0.001696 -->
     <defs>
      <path d="M 10.984375 1.515625 
L 10.984375 10.5 
Q 14.703125 8.734375 18.5 7.8125 
Q 22.3125 6.890625 25.984375 6.890625 
Q 35.75 6.890625 40.890625 13.453125 
Q 46.046875 20.015625 46.78125 33.40625 
Q 43.953125 29.203125 39.59375 26.953125 
Q 35.25 24.703125 29.984375 24.703125 
Q 19.046875 24.703125 12.671875 31.3125 
Q 6.296875 37.9375 6.296875 49.421875 
Q 6.296875 60.640625 12.9375 67.421875 
Q 19.578125 74.21875 30.609375 74.21875 
Q 43.265625 74.21875 49.921875 64.515625 
Q 56.59375 54.828125 56.59375 36.375 
Q 56.59375 19.140625 48.40625 8.859375 
Q 40.234375 -1.421875 26.421875 -1.421875 
Q 22.703125 -1.421875 18.890625 -0.6875 
Q 15.09375 0.046875 10.984375 1.515625 
z
M 30.609375 32.421875 
Q 37.25 32.421875 41.125 36.953125 
Q 45.015625 41.5 45.015625 49.421875 
Q 45.015625 57.28125 41.125 61.84375 
Q 37.25 66.40625 30.609375 66.40625 
Q 23.96875 66.40625 20.09375 61.84375 
Q 16.21875 57.28125 16.21875 49.421875 
Q 16.21875 41.5 20.09375 36.953125 
Q 23.96875 32.421875 30.609375 32.421875 
z
" id="DejaVuSans-57"/>
     </defs>
     <g transform="translate(296.748438 169.944062)scale(0.1 -0.1)">
      <use xlink:href="#DejaVuSans-72"/>
      <use x="75.195312" xlink:href="#DejaVuSans-50"/>
      <use x="138.818359" xlink:href="#DejaVuSans-79"/>
      <use x="217.529297" xlink:href="#DejaVuSans-50"/>
      <use x="281.152344" xlink:href="#DejaVuSans-58"/>
      <use x="314.84375" xlink:href="#DejaVuSans-32"/>
      <use x="346.630859" xlink:href="#DejaVuSans-48"/>
      <use x="410.253906" xlink:href="#DejaVuSans-46"/>
      <use x="442.041016" xlink:href="#DejaVuSans-48"/>
      <use x="505.664062" xlink:href="#DejaVuSans-48"/>
      <use x="569.287109" xlink:href="#DejaVuSans-49"/>
      <use x="632.910156" xlink:href="#DejaVuSans-54"/>
      <use x="696.533203" xlink:href="#DejaVuSans-57"/>
      <use x="760.15625" xlink:href="#DejaVuSans-54"/>
     </g>
    </g>
    <g id="line2d_35">
     <path d="M 268.748438 181.122187 
L 288.748438 181.122187 
" style="fill:none;stroke:#ffffff;stroke-linecap:square;stroke-width:1.5;"/>
    </g>
    <g id="line2d_36"/>
    <g id="text_21">
     <!-- H2O: 0.001113 -->
     <g transform="translate(296.748438 184.622187)scale(0.1 -0.1)">
      <use xlink:href="#DejaVuSans-72"/>
      <use x="75.195312" xlink:href="#DejaVuSans-50"/>
      <use x="138.818359" xlink:href="#DejaVuSans-79"/>
      <use x="217.513672" xlink:href="#DejaVuSans-58"/>
      <use x="251.205078" xlink:href="#DejaVuSans-32"/>
      <use x="282.992188" xlink:href="#DejaVuSans-48"/>
      <use x="346.615234" xlink:href="#DejaVuSans-46"/>
      <use x="378.402344" xlink:href="#DejaVuSans-48"/>
      <use x="442.025391" xlink:href="#DejaVuSans-48"/>
      <use x="505.648438" xlink:href="#DejaVuSans-49"/>
      <use x="569.271484" xlink:href="#DejaVuSans-49"/>
      <use x="632.894531" xlink:href="#DejaVuSans-49"/>
      <use x="696.517578" xlink:href="#DejaVuSans-51"/>
     </g>
    </g>
    <g id="line2d_37">
     <path d="M 268.748438 195.800312 
L 288.748438 195.800312 
" style="fill:none;stroke:#ffffff;stroke-linecap:square;stroke-width:1.5;"/>
    </g>
    <g id="line2d_38"/>
    <g id="text_22">
     <!-- O2: 0.000556 -->
     <g transform="translate(296.748438 199.300312)scale(0.1 -0.1)">
      <use xlink:href="#DejaVuSans-79"/>
      <use x="78.710938" xlink:href="#DejaVuSans-50"/>
      <use x="142.333984" xlink:href="#DejaVuSans-58"/>
      <use x="176.025391" xlink:href="#DejaVuSans-32"/>
      <use x="207.8125" xlink:href="#DejaVuSans-48"/>
      <use x="271.435547" xlink:href="#DejaVuSans-46"/>
      <use x="303.222656" xlink:href="#DejaVuSans-48"/>
      <use x="366.845703" xlink:href="#DejaVuSans-48"/>
      <use x="430.46875" xlink:href="#DejaVuSans-48"/>
      <use x="494.091797" xlink:href="#DejaVuSans-53"/>
      <use x="557.714844" xlink:href="#DejaVuSans-53"/>
      <use x="621.337891" xlink:href="#DejaVuSans-54"/>
     </g>
    </g>
    <g id="line2d_39">
     <path d="M 268.748438 210.478437 
L 288.748438 210.478437 
" style="fill:none;stroke:#ffffff;stroke-linecap:square;stroke-width:1.5;"/>
    </g>
    <g id="line2d_40"/>
    <g id="text_23">
     <!-- Ar: 0.996401 -->
     <defs>
      <path d="M 34.1875 63.1875 
L 20.796875 26.90625 
L 47.609375 26.90625 
z
M 28.609375 72.90625 
L 39.796875 72.90625 
L 67.578125 0 
L 57.328125 0 
L 50.6875 18.703125 
L 17.828125 18.703125 
L 11.1875 0 
L 0.78125 0 
z
" id="DejaVuSans-65"/>
     </defs>
     <g transform="translate(296.748438 213.978437)scale(0.1 -0.1)">
      <use xlink:href="#DejaVuSans-65"/>
      <use x="68.408203" xlink:href="#DejaVuSans-114"/>
      <use x="109.505859" xlink:href="#DejaVuSans-58"/>
      <use x="143.197266" xlink:href="#DejaVuSans-32"/>
      <use x="174.984375" xlink:href="#DejaVuSans-48"/>
      <use x="238.607422" xlink:href="#DejaVuSans-46"/>
      <use x="270.394531" xlink:href="#DejaVuSans-57"/>
      <use x="334.017578" xlink:href="#DejaVuSans-57"/>
      <use x="397.640625" xlink:href="#DejaVuSans-54"/>
      <use x="461.263672" xlink:href="#DejaVuSans-52"/>
      <use x="524.886719" xlink:href="#DejaVuSans-48"/>
      <use x="588.509766" xlink:href="#DejaVuSans-49"/>
     </g>
    </g>
   </g>
  </g>
 </g>
 <defs>
  <clipPath id="p3d92fad60d">
   <rect height="217.44" width="334.8" x="53.328125" y="22.318125"/>
  </clipPath>
 </defs>
</svg>
