<?xml version="1.0" encoding="utf-8" standalone="no"?>
<!DOCTYPE svg PUBLIC "-//W3C//DTD SVG 1.1//EN"
  "http://www.w3.org/Graphics/SVG/1.1/DTD/svg11.dtd">
<!-- Created with matplotlib (https://matplotlib.org/) -->
<svg height="277.314375pt" version="1.1" viewBox="0 0 395.64375 277.314375" width="395.64375pt" xmlns="http://www.w3.org/2000/svg" xmlns:xlink="http://www.w3.org/1999/xlink">
 <defs>
  <style type="text/css">
*{stroke-linecap:butt;stroke-linejoin:round;}
  </style>
 </defs>
 <g id="figure_1">
  <g id="patch_1">
   <path d="M 0 277.314375 
L 395.64375 277.314375 
L 395.64375 0 
L 0 0 
z
" style="fill:none;"/>
  </g>
  <g id="axes_1">
   <g id="patch_2">
    <path d="M 50.14375 239.758125 
L 384.94375 239.758125 
L 384.94375 22.318125 
L 50.14375 22.318125 
z
" style="fill:none;"/>
   </g>
   <g id="matplotlib.axis_1">
    <g id="xtick_1">
     <g id="line2d_1">
      <defs>
       <path d="M 0 0 
L 0 3.5 
" id="m6bec433be8" style="stroke:#000000;stroke-width:0.8;"/>
      </defs>
      <g>
       <use style="stroke:#000000;stroke-width:0.8;" x="65.361932" xlink:href="#m6bec433be8" y="239.758125"/>
      </g>
     </g>
     <g id="text_1">
      <!-- 0.0 -->
      <defs>
       <path d="M 31.78125 66.40625 
Q 24.171875 66.40625 20.328125 58.90625 
Q 16.5 51.421875 16.5 36.375 
Q 16.5 21.390625 20.328125 13.890625 
Q 24.171875 6.390625 31.78125 6.390625 
Q 39.453125 6.390625 43.28125 13.890625 
Q 47.125 21.390625 47.125 36.375 
Q 47.125 51.421875 43.28125 58.90625 
Q 39.453125 66.40625 31.78125 66.40625 
z
M 31.78125 74.21875 
Q 44.046875 74.21875 50.515625 64.515625 
Q 56.984375 54.828125 56.984375 36.375 
Q 56.984375 17.96875 50.515625 8.265625 
Q 44.046875 -1.421875 31.78125 -1.421875 
Q 19.53125 -1.421875 13.0625 8.265625 
Q 6.59375 17.96875 6.59375 36.375 
Q 6.59375 54.828125 13.0625 64.515625 
Q 19.53125 74.21875 31.78125 74.21875 
z
" id="DejaVuSans-48"/>
       <path d="M 10.6875 12.40625 
L 21 12.40625 
L 21 0 
L 10.6875 0 
z
" id="DejaVuSans-46"/>
      </defs>
      <g transform="translate(57.410369 254.356562)scale(0.1 -0.1)">
       <use xlink:href="#DejaVuSans-48"/>
       <use x="63.623047" xlink:href="#DejaVuSans-46"/>
       <use x="95.410156" xlink:href="#DejaVuSans-48"/>
      </g>
     </g>
    </g>
    <g id="xtick_2">
     <g id="line2d_2">
      <g>
       <use style="stroke:#000000;stroke-width:0.8;" x="125.876163" xlink:href="#m6bec433be8" y="239.758125"/>
      </g>
     </g>
     <g id="text_2">
      <!-- 0.2 -->
      <defs>
       <path d="M 19.1875 8.296875 
L 53.609375 8.296875 
L 53.609375 0 
L 7.328125 0 
L 7.328125 8.296875 
Q 12.9375 14.109375 22.625 23.890625 
Q 32.328125 33.6875 34.8125 36.53125 
Q 39.546875 41.84375 41.421875 45.53125 
Q 43.3125 49.21875 43.3125 52.78125 
Q 43.3125 58.59375 39.234375 62.25 
Q 35.15625 65.921875 28.609375 65.921875 
Q 23.96875 65.921875 18.8125 64.3125 
Q 13.671875 62.703125 7.8125 59.421875 
L 7.8125 69.390625 
Q 13.765625 71.78125 18.9375 73 
Q 24.125 74.21875 28.421875 74.21875 
Q 39.75 74.21875 46.484375 68.546875 
Q 53.21875 62.890625 53.21875 53.421875 
Q 53.21875 48.921875 51.53125 44.890625 
Q 49.859375 40.875 45.40625 35.40625 
Q 44.1875 33.984375 37.640625 27.21875 
Q 31.109375 20.453125 19.1875 8.296875 
z
" id="DejaVuSans-50"/>
      </defs>
      <g transform="translate(117.924601 254.356562)scale(0.1 -0.1)">
       <use xlink:href="#DejaVuSans-48"/>
       <use x="63.623047" xlink:href="#DejaVuSans-46"/>
       <use x="95.410156" xlink:href="#DejaVuSans-50"/>
      </g>
     </g>
    </g>
    <g id="xtick_3">
     <g id="line2d_3">
      <g>
       <use style="stroke:#000000;stroke-width:0.8;" x="186.390394" xlink:href="#m6bec433be8" y="239.758125"/>
      </g>
     </g>
     <g id="text_3">
      <!-- 0.4 -->
      <defs>
       <path d="M 37.796875 64.3125 
L 12.890625 25.390625 
L 37.796875 25.390625 
z
M 35.203125 72.90625 
L 47.609375 72.90625 
L 47.609375 25.390625 
L 58.015625 25.390625 
L 58.015625 17.1875 
L 47.609375 17.1875 
L 47.609375 0 
L 37.796875 0 
L 37.796875 17.1875 
L 4.890625 17.1875 
L 4.890625 26.703125 
z
" id="DejaVuSans-52"/>
      </defs>
      <g transform="translate(178.438832 254.356562)scale(0.1 -0.1)">
       <use xlink:href="#DejaVuSans-48"/>
       <use x="63.623047" xlink:href="#DejaVuSans-46"/>
       <use x="95.410156" xlink:href="#DejaVuSans-52"/>
      </g>
     </g>
    </g>
    <g id="xtick_4">
     <g id="line2d_4">
      <g>
       <use style="stroke:#000000;stroke-width:0.8;" x="246.904626" xlink:href="#m6bec433be8" y="239.758125"/>
      </g>
     </g>
     <g id="text_4">
      <!-- 0.6 -->
      <defs>
       <path d="M 33.015625 40.375 
Q 26.375 40.375 22.484375 35.828125 
Q 18.609375 31.296875 18.609375 23.390625 
Q 18.609375 15.53125 22.484375 10.953125 
Q 26.375 6.390625 33.015625 6.390625 
Q 39.65625 6.390625 43.53125 10.953125 
Q 47.40625 15.53125 47.40625 23.390625 
Q 47.40625 31.296875 43.53125 35.828125 
Q 39.65625 40.375 33.015625 40.375 
z
M 52.59375 71.296875 
L 52.59375 62.3125 
Q 48.875 64.0625 45.09375 64.984375 
Q 41.3125 65.921875 37.59375 65.921875 
Q 27.828125 65.921875 22.671875 59.328125 
Q 17.53125 52.734375 16.796875 39.40625 
Q 19.671875 43.65625 24.015625 45.921875 
Q 28.375 48.1875 33.59375 48.1875 
Q 44.578125 48.1875 50.953125 41.515625 
Q 57.328125 34.859375 57.328125 23.390625 
Q 57.328125 12.15625 50.6875 5.359375 
Q 44.046875 -1.421875 33.015625 -1.421875 
Q 20.359375 -1.421875 13.671875 8.265625 
Q 6.984375 17.96875 6.984375 36.375 
Q 6.984375 53.65625 15.1875 63.9375 
Q 23.390625 74.21875 37.203125 74.21875 
Q 40.921875 74.21875 44.703125 73.484375 
Q 48.484375 72.75 52.59375 71.296875 
z
" id="DejaVuSans-54"/>
      </defs>
      <g transform="translate(238.953063 254.356562)scale(0.1 -0.1)">
       <use xlink:href="#DejaVuSans-48"/>
       <use x="63.623047" xlink:href="#DejaVuSans-46"/>
       <use x="95.410156" xlink:href="#DejaVuSans-54"/>
      </g>
     </g>
    </g>
    <g id="xtick_5">
     <g id="line2d_5">
      <g>
       <use style="stroke:#000000;stroke-width:0.8;" x="307.418857" xlink:href="#m6bec433be8" y="239.758125"/>
      </g>
     </g>
     <g id="text_5">
      <!-- 0.8 -->
      <defs>
       <path d="M 31.78125 34.625 
Q 24.75 34.625 20.71875 30.859375 
Q 16.703125 27.09375 16.703125 20.515625 
Q 16.703125 13.921875 20.71875 10.15625 
Q 24.75 6.390625 31.78125 6.390625 
Q 38.8125 6.390625 42.859375 10.171875 
Q 46.921875 13.96875 46.921875 20.515625 
Q 46.921875 27.09375 42.890625 30.859375 
Q 38.875 34.625 31.78125 34.625 
z
M 21.921875 38.8125 
Q 15.578125 40.375 12.03125 44.71875 
Q 8.5 49.078125 8.5 55.328125 
Q 8.5 64.0625 14.71875 69.140625 
Q 20.953125 74.21875 31.78125 74.21875 
Q 42.671875 74.21875 48.875 69.140625 
Q 55.078125 64.0625 55.078125 55.328125 
Q 55.078125 49.078125 51.53125 44.71875 
Q 48 40.375 41.703125 38.8125 
Q 48.828125 37.15625 52.796875 32.3125 
Q 56.78125 27.484375 56.78125 20.515625 
Q 56.78125 9.90625 50.3125 4.234375 
Q 43.84375 -1.421875 31.78125 -1.421875 
Q 19.734375 -1.421875 13.25 4.234375 
Q 6.78125 9.90625 6.78125 20.515625 
Q 6.78125 27.484375 10.78125 32.3125 
Q 14.796875 37.15625 21.921875 38.8125 
z
M 18.3125 54.390625 
Q 18.3125 48.734375 21.84375 45.5625 
Q 25.390625 42.390625 31.78125 42.390625 
Q 38.140625 42.390625 41.71875 45.5625 
Q 45.3125 48.734375 45.3125 54.390625 
Q 45.3125 60.0625 41.71875 63.234375 
Q 38.140625 66.40625 31.78125 66.40625 
Q 25.390625 66.40625 21.84375 63.234375 
Q 18.3125 60.0625 18.3125 54.390625 
z
" id="DejaVuSans-56"/>
      </defs>
      <g transform="translate(299.467295 254.356562)scale(0.1 -0.1)">
       <use xlink:href="#DejaVuSans-48"/>
       <use x="63.623047" xlink:href="#DejaVuSans-46"/>
       <use x="95.410156" xlink:href="#DejaVuSans-56"/>
      </g>
     </g>
    </g>
    <g id="xtick_6">
     <g id="line2d_6">
      <g>
       <use style="stroke:#000000;stroke-width:0.8;" x="367.933088" xlink:href="#m6bec433be8" y="239.758125"/>
      </g>
     </g>
     <g id="text_6">
      <!-- 1.0 -->
      <defs>
       <path d="M 12.40625 8.296875 
L 28.515625 8.296875 
L 28.515625 63.921875 
L 10.984375 60.40625 
L 10.984375 69.390625 
L 28.421875 72.90625 
L 38.28125 72.90625 
L 38.28125 8.296875 
L 54.390625 8.296875 
L 54.390625 0 
L 12.40625 0 
z
" id="DejaVuSans-49"/>
      </defs>
      <g transform="translate(359.981526 254.356562)scale(0.1 -0.1)">
       <use xlink:href="#DejaVuSans-49"/>
       <use x="63.623047" xlink:href="#DejaVuSans-46"/>
       <use x="95.410156" xlink:href="#DejaVuSans-48"/>
      </g>
     </g>
    </g>
    <g id="text_7">
     <!-- Time (ms) -->
     <defs>
      <path d="M -0.296875 72.90625 
L 61.375 72.90625 
L 61.375 64.59375 
L 35.5 64.59375 
L 35.5 0 
L 25.59375 0 
L 25.59375 64.59375 
L -0.296875 64.59375 
z
" id="DejaVuSans-84"/>
      <path d="M 9.421875 54.6875 
L 18.40625 54.6875 
L 18.40625 0 
L 9.421875 0 
z
M 9.421875 75.984375 
L 18.40625 75.984375 
L 18.40625 64.59375 
L 9.421875 64.59375 
z
" id="DejaVuSans-105"/>
      <path d="M 52 44.1875 
Q 55.375 50.25 60.0625 53.125 
Q 64.75 56 71.09375 56 
Q 79.640625 56 84.28125 50.015625 
Q 88.921875 44.046875 88.921875 33.015625 
L 88.921875 0 
L 79.890625 0 
L 79.890625 32.71875 
Q 79.890625 40.578125 77.09375 44.375 
Q 74.3125 48.1875 68.609375 48.1875 
Q 61.625 48.1875 57.5625 43.546875 
Q 53.515625 38.921875 53.515625 30.90625 
L 53.515625 0 
L 44.484375 0 
L 44.484375 32.71875 
Q 44.484375 40.625 41.703125 44.40625 
Q 38.921875 48.1875 33.109375 48.1875 
Q 26.21875 48.1875 22.15625 43.53125 
Q 18.109375 38.875 18.109375 30.90625 
L 18.109375 0 
L 9.078125 0 
L 9.078125 54.6875 
L 18.109375 54.6875 
L 18.109375 46.1875 
Q 21.1875 51.21875 25.484375 53.609375 
Q 29.78125 56 35.6875 56 
Q 41.65625 56 45.828125 52.96875 
Q 50 49.953125 52 44.1875 
z
" id="DejaVuSans-109"/>
      <path d="M 56.203125 29.59375 
L 56.203125 25.203125 
L 14.890625 25.203125 
Q 15.484375 15.921875 20.484375 11.0625 
Q 25.484375 6.203125 34.421875 6.203125 
Q 39.59375 6.203125 44.453125 7.46875 
Q 49.3125 8.734375 54.109375 11.28125 
L 54.109375 2.78125 
Q 49.265625 0.734375 44.1875 -0.34375 
Q 39.109375 -1.421875 33.890625 -1.421875 
Q 20.796875 -1.421875 13.15625 6.1875 
Q 5.515625 13.8125 5.515625 26.8125 
Q 5.515625 40.234375 12.765625 48.109375 
Q 20.015625 56 32.328125 56 
Q 43.359375 56 49.78125 48.890625 
Q 56.203125 41.796875 56.203125 29.59375 
z
M 47.21875 32.234375 
Q 47.125 39.59375 43.09375 43.984375 
Q 39.0625 48.390625 32.421875 48.390625 
Q 24.90625 48.390625 20.390625 44.140625 
Q 15.875 39.890625 15.1875 32.171875 
z
" id="DejaVuSans-101"/>
      <path id="DejaVuSans-32"/>
      <path d="M 31 75.875 
Q 24.46875 64.65625 21.28125 53.65625 
Q 18.109375 42.671875 18.109375 31.390625 
Q 18.109375 20.125 21.3125 9.0625 
Q 24.515625 -2 31 -13.1875 
L 23.1875 -13.1875 
Q 15.875 -1.703125 12.234375 9.375 
Q 8.59375 20.453125 8.59375 31.390625 
Q 8.59375 42.28125 12.203125 53.3125 
Q 15.828125 64.359375 23.1875 75.875 
z
" id="DejaVuSans-40"/>
      <path d="M 44.28125 53.078125 
L 44.28125 44.578125 
Q 40.484375 46.53125 36.375 47.5 
Q 32.28125 48.484375 27.875 48.484375 
Q 21.1875 48.484375 17.84375 46.4375 
Q 14.5 44.390625 14.5 40.28125 
Q 14.5 37.15625 16.890625 35.375 
Q 19.28125 33.59375 26.515625 31.984375 
L 29.59375 31.296875 
Q 39.15625 29.25 43.1875 25.515625 
Q 47.21875 21.78125 47.21875 15.09375 
Q 47.21875 7.46875 41.1875 3.015625 
Q 35.15625 -1.421875 24.609375 -1.421875 
Q 20.21875 -1.421875 15.453125 -0.5625 
Q 10.6875 0.296875 5.421875 2 
L 5.421875 11.28125 
Q 10.40625 8.6875 15.234375 7.390625 
Q 20.0625 6.109375 24.8125 6.109375 
Q 31.15625 6.109375 34.5625 8.28125 
Q 37.984375 10.453125 37.984375 14.40625 
Q 37.984375 18.0625 35.515625 20.015625 
Q 33.0625 21.96875 24.703125 23.78125 
L 21.578125 24.515625 
Q 13.234375 26.265625 9.515625 29.90625 
Q 5.8125 33.546875 5.8125 39.890625 
Q 5.8125 47.609375 11.28125 51.796875 
Q 16.75 56 26.8125 56 
Q 31.78125 56 36.171875 55.265625 
Q 40.578125 54.546875 44.28125 53.078125 
z
" id="DejaVuSans-115"/>
      <path d="M 8.015625 75.875 
L 15.828125 75.875 
Q 23.140625 64.359375 26.78125 53.3125 
Q 30.421875 42.28125 30.421875 31.390625 
Q 30.421875 20.453125 26.78125 9.375 
Q 23.140625 -1.703125 15.828125 -13.1875 
L 8.015625 -13.1875 
Q 14.5 -2 17.703125 9.0625 
Q 20.90625 20.125 20.90625 31.390625 
Q 20.90625 42.671875 17.703125 53.65625 
Q 14.5 64.65625 8.015625 75.875 
z
" id="DejaVuSans-41"/>
     </defs>
     <g transform="translate(192.190625 268.034687)scale(0.1 -0.1)">
      <use xlink:href="#DejaVuSans-84"/>
      <use x="61.037109" xlink:href="#DejaVuSans-105"/>
      <use x="88.820312" xlink:href="#DejaVuSans-109"/>
      <use x="186.232422" xlink:href="#DejaVuSans-101"/>
      <use x="247.755859" xlink:href="#DejaVuSans-32"/>
      <use x="279.542969" xlink:href="#DejaVuSans-40"/>
      <use x="318.556641" xlink:href="#DejaVuSans-109"/>
      <use x="415.96875" xlink:href="#DejaVuSans-115"/>
      <use x="468.068359" xlink:href="#DejaVuSans-41"/>
     </g>
    </g>
   </g>
   <g id="matplotlib.axis_2">
    <g id="ytick_1">
     <g id="line2d_7">
      <defs>
       <path d="M 0 0 
L -3.5 0 
" id="m72f6945ec7" style="stroke:#000000;stroke-width:0.8;"/>
      </defs>
      <g>
       <use style="stroke:#000000;stroke-width:0.8;" x="50.14375" xlink:href="#m72f6945ec7" y="231.065396"/>
      </g>
     </g>
     <g id="text_8">
      <!-- 0.00 -->
      <g transform="translate(20.878125 234.864615)scale(0.1 -0.1)">
       <use xlink:href="#DejaVuSans-48"/>
       <use x="63.623047" xlink:href="#DejaVuSans-46"/>
       <use x="95.410156" xlink:href="#DejaVuSans-48"/>
       <use x="159.033203" xlink:href="#DejaVuSans-48"/>
      </g>
     </g>
    </g>
    <g id="ytick_2">
     <g id="line2d_8">
      <g>
       <use style="stroke:#000000;stroke-width:0.8;" x="50.14375" xlink:href="#m72f6945ec7" y="198.004455"/>
      </g>
     </g>
     <g id="text_9">
      <!-- 0.02 -->
      <g transform="translate(20.878125 201.803674)scale(0.1 -0.1)">
       <use xlink:href="#DejaVuSans-48"/>
       <use x="63.623047" xlink:href="#DejaVuSans-46"/>
       <use x="95.410156" xlink:href="#DejaVuSans-48"/>
       <use x="159.033203" xlink:href="#DejaVuSans-50"/>
      </g>
     </g>
    </g>
    <g id="ytick_3">
     <g id="line2d_9">
      <g>
       <use style="stroke:#000000;stroke-width:0.8;" x="50.14375" xlink:href="#m72f6945ec7" y="164.943515"/>
      </g>
     </g>
     <g id="text_10">
      <!-- 0.04 -->
      <g transform="translate(20.878125 168.742734)scale(0.1 -0.1)">
       <use xlink:href="#DejaVuSans-48"/>
       <use x="63.623047" xlink:href="#DejaVuSans-46"/>
       <use x="95.410156" xlink:href="#DejaVuSans-48"/>
       <use x="159.033203" xlink:href="#DejaVuSans-52"/>
      </g>
     </g>
    </g>
    <g id="ytick_4">
     <g id="line2d_10">
      <g>
       <use style="stroke:#000000;stroke-width:0.8;" x="50.14375" xlink:href="#m72f6945ec7" y="131.882575"/>
      </g>
     </g>
     <g id="text_11">
      <!-- 0.06 -->
      <g transform="translate(20.878125 135.681793)scale(0.1 -0.1)">
       <use xlink:href="#DejaVuSans-48"/>
       <use x="63.623047" xlink:href="#DejaVuSans-46"/>
       <use x="95.410156" xlink:href="#DejaVuSans-48"/>
       <use x="159.033203" xlink:href="#DejaVuSans-54"/>
      </g>
     </g>
    </g>
    <g id="ytick_5">
     <g id="line2d_11">
      <g>
       <use style="stroke:#000000;stroke-width:0.8;" x="50.14375" xlink:href="#m72f6945ec7" y="98.821634"/>
      </g>
     </g>
     <g id="text_12">
      <!-- 0.08 -->
      <g transform="translate(20.878125 102.620853)scale(0.1 -0.1)">
       <use xlink:href="#DejaVuSans-48"/>
       <use x="63.623047" xlink:href="#DejaVuSans-46"/>
       <use x="95.410156" xlink:href="#DejaVuSans-48"/>
       <use x="159.033203" xlink:href="#DejaVuSans-56"/>
      </g>
     </g>
    </g>
    <g id="ytick_6">
     <g id="line2d_12">
      <g>
       <use style="stroke:#000000;stroke-width:0.8;" x="50.14375" xlink:href="#m72f6945ec7" y="65.760694"/>
      </g>
     </g>
     <g id="text_13">
      <!-- 0.10 -->
      <g transform="translate(20.878125 69.559913)scale(0.1 -0.1)">
       <use xlink:href="#DejaVuSans-48"/>
       <use x="63.623047" xlink:href="#DejaVuSans-46"/>
       <use x="95.410156" xlink:href="#DejaVuSans-49"/>
       <use x="159.033203" xlink:href="#DejaVuSans-48"/>
      </g>
     </g>
    </g>
    <g id="ytick_7">
     <g id="line2d_13">
      <g>
       <use style="stroke:#000000;stroke-width:0.8;" x="50.14375" xlink:href="#m72f6945ec7" y="32.699754"/>
      </g>
     </g>
     <g id="text_14">
      <!-- 0.12 -->
      <g transform="translate(20.878125 36.498972)scale(0.1 -0.1)">
       <use xlink:href="#DejaVuSans-48"/>
       <use x="63.623047" xlink:href="#DejaVuSans-46"/>
       <use x="95.410156" xlink:href="#DejaVuSans-49"/>
       <use x="159.033203" xlink:href="#DejaVuSans-50"/>
      </g>
     </g>
    </g>
    <g id="text_15">
     <!-- Absorbance227 -->
     <defs>
      <path d="M 34.1875 63.1875 
L 20.796875 26.90625 
L 47.609375 26.90625 
z
M 28.609375 72.90625 
L 39.796875 72.90625 
L 67.578125 0 
L 57.328125 0 
L 50.6875 18.703125 
L 17.828125 18.703125 
L 11.1875 0 
L 0.78125 0 
z
" id="DejaVuSans-65"/>
      <path d="M 48.6875 27.296875 
Q 48.6875 37.203125 44.609375 42.84375 
Q 40.53125 48.484375 33.40625 48.484375 
Q 26.265625 48.484375 22.1875 42.84375 
Q 18.109375 37.203125 18.109375 27.296875 
Q 18.109375 17.390625 22.1875 11.75 
Q 26.265625 6.109375 33.40625 6.109375 
Q 40.53125 6.109375 44.609375 11.75 
Q 48.6875 17.390625 48.6875 27.296875 
z
M 18.109375 46.390625 
Q 20.953125 51.265625 25.265625 53.625 
Q 29.59375 56 35.59375 56 
Q 45.5625 56 51.78125 48.09375 
Q 58.015625 40.1875 58.015625 27.296875 
Q 58.015625 14.40625 51.78125 6.484375 
Q 45.5625 -1.421875 35.59375 -1.421875 
Q 29.59375 -1.421875 25.265625 0.953125 
Q 20.953125 3.328125 18.109375 8.203125 
L 18.109375 0 
L 9.078125 0 
L 9.078125 75.984375 
L 18.109375 75.984375 
z
" id="DejaVuSans-98"/>
      <path d="M 30.609375 48.390625 
Q 23.390625 48.390625 19.1875 42.75 
Q 14.984375 37.109375 14.984375 27.296875 
Q 14.984375 17.484375 19.15625 11.84375 
Q 23.34375 6.203125 30.609375 6.203125 
Q 37.796875 6.203125 41.984375 11.859375 
Q 46.1875 17.53125 46.1875 27.296875 
Q 46.1875 37.015625 41.984375 42.703125 
Q 37.796875 48.390625 30.609375 48.390625 
z
M 30.609375 56 
Q 42.328125 56 49.015625 48.375 
Q 55.71875 40.765625 55.71875 27.296875 
Q 55.71875 13.875 49.015625 6.21875 
Q 42.328125 -1.421875 30.609375 -1.421875 
Q 18.84375 -1.421875 12.171875 6.21875 
Q 5.515625 13.875 5.515625 27.296875 
Q 5.515625 40.765625 12.171875 48.375 
Q 18.84375 56 30.609375 56 
z
" id="DejaVuSans-111"/>
      <path d="M 41.109375 46.296875 
Q 39.59375 47.171875 37.8125 47.578125 
Q 36.03125 48 33.890625 48 
Q 26.265625 48 22.1875 43.046875 
Q 18.109375 38.09375 18.109375 28.8125 
L 18.109375 0 
L 9.078125 0 
L 9.078125 54.6875 
L 18.109375 54.6875 
L 18.109375 46.1875 
Q 20.953125 51.171875 25.484375 53.578125 
Q 30.03125 56 36.53125 56 
Q 37.453125 56 38.578125 55.875 
Q 39.703125 55.765625 41.0625 55.515625 
z
" id="DejaVuSans-114"/>
      <path d="M 34.28125 27.484375 
Q 23.390625 27.484375 19.1875 25 
Q 14.984375 22.515625 14.984375 16.5 
Q 14.984375 11.71875 18.140625 8.90625 
Q 21.296875 6.109375 26.703125 6.109375 
Q 34.1875 6.109375 38.703125 11.40625 
Q 43.21875 16.703125 43.21875 25.484375 
L 43.21875 27.484375 
z
M 52.203125 31.203125 
L 52.203125 0 
L 43.21875 0 
L 43.21875 8.296875 
Q 40.140625 3.328125 35.546875 0.953125 
Q 30.953125 -1.421875 24.3125 -1.421875 
Q 15.921875 -1.421875 10.953125 3.296875 
Q 6 8.015625 6 15.921875 
Q 6 25.140625 12.171875 29.828125 
Q 18.359375 34.515625 30.609375 34.515625 
L 43.21875 34.515625 
L 43.21875 35.40625 
Q 43.21875 41.609375 39.140625 45 
Q 35.0625 48.390625 27.6875 48.390625 
Q 23 48.390625 18.546875 47.265625 
Q 14.109375 46.140625 10.015625 43.890625 
L 10.015625 52.203125 
Q 14.9375 54.109375 19.578125 55.046875 
Q 24.21875 56 28.609375 56 
Q 40.484375 56 46.34375 49.84375 
Q 52.203125 43.703125 52.203125 31.203125 
z
" id="DejaVuSans-97"/>
      <path d="M 54.890625 33.015625 
L 54.890625 0 
L 45.90625 0 
L 45.90625 32.71875 
Q 45.90625 40.484375 42.875 44.328125 
Q 39.84375 48.1875 33.796875 48.1875 
Q 26.515625 48.1875 22.3125 43.546875 
Q 18.109375 38.921875 18.109375 30.90625 
L 18.109375 0 
L 9.078125 0 
L 9.078125 54.6875 
L 18.109375 54.6875 
L 18.109375 46.1875 
Q 21.34375 51.125 25.703125 53.5625 
Q 30.078125 56 35.796875 56 
Q 45.21875 56 50.046875 50.171875 
Q 54.890625 44.34375 54.890625 33.015625 
z
" id="DejaVuSans-110"/>
      <path d="M 48.78125 52.59375 
L 48.78125 44.1875 
Q 44.96875 46.296875 41.140625 47.34375 
Q 37.3125 48.390625 33.40625 48.390625 
Q 24.65625 48.390625 19.8125 42.84375 
Q 14.984375 37.3125 14.984375 27.296875 
Q 14.984375 17.28125 19.8125 11.734375 
Q 24.65625 6.203125 33.40625 6.203125 
Q 37.3125 6.203125 41.140625 7.25 
Q 44.96875 8.296875 48.78125 10.40625 
L 48.78125 2.09375 
Q 45.015625 0.34375 40.984375 -0.53125 
Q 36.96875 -1.421875 32.421875 -1.421875 
Q 20.0625 -1.421875 12.78125 6.34375 
Q 5.515625 14.109375 5.515625 27.296875 
Q 5.515625 40.671875 12.859375 48.328125 
Q 20.21875 56 33.015625 56 
Q 37.15625 56 41.109375 55.140625 
Q 45.0625 54.296875 48.78125 52.59375 
z
" id="DejaVuSans-99"/>
      <path d="M 8.203125 72.90625 
L 55.078125 72.90625 
L 55.078125 68.703125 
L 28.609375 0 
L 18.3125 0 
L 43.21875 64.59375 
L 8.203125 64.59375 
z
" id="DejaVuSans-55"/>
     </defs>
     <g transform="translate(14.798438 170.12875)rotate(-90)scale(0.1 -0.1)">
      <use xlink:href="#DejaVuSans-65"/>
      <use x="68.408203" xlink:href="#DejaVuSans-98"/>
      <use x="131.884766" xlink:href="#DejaVuSans-115"/>
      <use x="183.984375" xlink:href="#DejaVuSans-111"/>
      <use x="245.166016" xlink:href="#DejaVuSans-114"/>
      <use x="286.279297" xlink:href="#DejaVuSans-98"/>
      <use x="349.755859" xlink:href="#DejaVuSans-97"/>
      <use x="411.035156" xlink:href="#DejaVuSans-110"/>
      <use x="474.414062" xlink:href="#DejaVuSans-99"/>
      <use x="529.394531" xlink:href="#DejaVuSans-101"/>
      <use x="590.917969" xlink:href="#DejaVuSans-50"/>
      <use x="654.541016" xlink:href="#DejaVuSans-50"/>
      <use x="718.164062" xlink:href="#DejaVuSans-55"/>
     </g>
    </g>
   </g>
   <g id="line2d_14">
    <defs>
     <path d="M 0 3 
C 0.795609 3 1.55874 2.683901 2.12132 2.12132 
C 2.683901 1.55874 3 0.795609 3 0 
C 3 -0.795609 2.683901 -1.55874 2.12132 -2.12132 
C 1.55874 -2.683901 0.795609 -3 0 -3 
C -0.795609 -3 -1.55874 -2.683901 -2.12132 -2.12132 
C -2.683901 -1.55874 -3 -0.795609 -3 0 
C -3 0.795609 -2.683901 1.55874 -2.12132 2.12132 
C -1.55874 2.683901 -0.795609 3 0 3 
z
" id="m97625ea210" style="stroke:#000000;"/>
    </defs>
    <g clip-path="url(#pfbb4de9e54)">
     <use style="stroke:#000000;" x="65.361932" xlink:href="#m97625ea210" y="142.636141"/>
     <use style="stroke:#000000;" x="65.36194" xlink:href="#m97625ea210" y="142.636141"/>
     <use style="stroke:#000000;" x="65.361967" xlink:href="#m97625ea210" y="142.636141"/>
     <use style="stroke:#000000;" x="65.361994" xlink:href="#m97625ea210" y="142.636141"/>
     <use style="stroke:#000000;" x="65.36202" xlink:href="#m97625ea210" y="142.636141"/>
     <use style="stroke:#000000;" x="65.362061" xlink:href="#m97625ea210" y="142.636141"/>
     <use style="stroke:#000000;" x="65.362128" xlink:href="#m97625ea210" y="142.636307"/>
     <use style="stroke:#000000;" x="65.36224" xlink:href="#m97625ea210" y="142.636307"/>
     <use style="stroke:#000000;" x="65.362437" xlink:href="#m97625ea210" y="142.636472"/>
     <use style="stroke:#000000;" x="65.362782" xlink:href="#m97625ea210" y="142.636637"/>
     <use style="stroke:#000000;" x="65.36349" xlink:href="#m97625ea210" y="142.637133"/>
     <use style="stroke:#000000;" x="65.364201" xlink:href="#m97625ea210" y="142.637629"/>
     <use style="stroke:#000000;" x="65.364912" xlink:href="#m97625ea210" y="142.638125"/>
     <use style="stroke:#000000;" x="65.366017" xlink:href="#m97625ea210" y="142.638952"/>
     <use style="stroke:#000000;" x="65.367136" xlink:href="#m97625ea210" y="142.639613"/>
     <use style="stroke:#000000;" x="65.368225" xlink:href="#m97625ea210" y="142.640439"/>
     <use style="stroke:#000000;" x="65.369345" xlink:href="#m97625ea210" y="142.641101"/>
     <use style="stroke:#000000;" x="65.371402" xlink:href="#m97625ea210" y="142.642423"/>
     <use style="stroke:#000000;" x="65.37346" xlink:href="#m97625ea210" y="142.643746"/>
     <use style="stroke:#000000;" x="65.375548" xlink:href="#m97625ea210" y="142.644903"/>
     <use style="stroke:#000000;" x="65.378997" xlink:href="#m97625ea210" y="142.646886"/>
     <use style="stroke:#000000;" x="65.385139" xlink:href="#m97625ea210" y="142.650358"/>
     <use style="stroke:#000000;" x="65.391281" xlink:href="#m97625ea210" y="142.653498"/>
     <use style="stroke:#000000;" x="65.397333" xlink:href="#m97625ea210" y="142.656309"/>
     <use style="stroke:#000000;" x="65.403687" xlink:href="#m97625ea210" y="142.658954"/>
     <use style="stroke:#000000;" x="65.413671" xlink:href="#m97625ea210" y="142.662425"/>
     <use style="stroke:#000000;" x="65.423656" xlink:href="#m97625ea210" y="142.6654"/>
     <use style="stroke:#000000;" x="65.433641" xlink:href="#m97625ea210" y="142.667549"/>
     <use style="stroke:#000000;" x="65.443929" xlink:href="#m97625ea210" y="142.669037"/>
     <use style="stroke:#000000;" x="65.453913" xlink:href="#m97625ea210" y="142.669864"/>
     <use style="stroke:#000000;" x="65.463898" xlink:href="#m97625ea210" y="142.669864"/>
     <use style="stroke:#000000;" x="65.473883" xlink:href="#m97625ea210" y="142.669202"/>
     <use style="stroke:#000000;" x="65.492037" xlink:href="#m97625ea210" y="142.666392"/>
     <use style="stroke:#000000;" x="65.510494" xlink:href="#m97625ea210" y="142.661268"/>
     <use style="stroke:#000000;" x="65.538331" xlink:href="#m97625ea210" y="142.649035"/>
     <use style="stroke:#000000;" x="65.56647" xlink:href="#m97625ea210" y="142.631513"/>
     <use style="stroke:#000000;" x="65.594306" xlink:href="#m97625ea210" y="142.609032"/>
     <use style="stroke:#000000;" x="65.622446" xlink:href="#m97625ea210" y="142.581591"/>
     <use style="stroke:#000000;" x="65.650282" xlink:href="#m97625ea210" y="142.549191"/>
     <use style="stroke:#000000;" x="65.69476" xlink:href="#m97625ea210" y="142.487202"/>
     <use style="stroke:#000000;" x="65.740146" xlink:href="#m97625ea210" y="142.413311"/>
     <use style="stroke:#000000;" x="65.785531" xlink:href="#m97625ea210" y="142.327683"/>
     <use style="stroke:#000000;" x="65.830917" xlink:href="#m97625ea210" y="142.230649"/>
     <use style="stroke:#000000;" x="65.876303" xlink:href="#m97625ea210" y="142.122705"/>
     <use style="stroke:#000000;" x="65.918663" xlink:href="#m97625ea210" y="142.004016"/>
     <use style="stroke:#000000;" x="65.964048" xlink:href="#m97625ea210" y="141.875079"/>
     <use style="stroke:#000000;" x="66.009434" xlink:href="#m97625ea210" y="141.735892"/>
     <use style="stroke:#000000;" x="66.05482" xlink:href="#m97625ea210" y="141.587118"/>
     <use style="stroke:#000000;" x="66.100205" xlink:href="#m97625ea210" y="141.428921"/>
     <use style="stroke:#000000;" x="66.145591" xlink:href="#m97625ea210" y="141.261633"/>
     <use style="stroke:#000000;" x="66.187951" xlink:href="#m97625ea210" y="141.085418"/>
     <use style="stroke:#000000;" x="66.233337" xlink:href="#m97625ea210" y="140.900607"/>
     <use style="stroke:#000000;" x="66.278722" xlink:href="#m97625ea210" y="140.707532"/>
     <use style="stroke:#000000;" x="66.324108" xlink:href="#m97625ea210" y="140.506356"/>
     <use style="stroke:#000000;" x="66.369494" xlink:href="#m97625ea210" y="140.297411"/>
     <use style="stroke:#000000;" x="66.436059" xlink:href="#m97625ea210" y="139.969942"/>
     <use style="stroke:#000000;" x="66.502625" xlink:href="#m97625ea210" y="139.626273"/>
     <use style="stroke:#000000;" x="66.572216" xlink:href="#m97625ea210" y="139.267397"/>
     <use style="stroke:#000000;" x="66.638782" xlink:href="#m97625ea210" y="138.893974"/>
     <use style="stroke:#000000;" x="66.705348" xlink:href="#m97625ea210" y="138.506995"/>
     <use style="stroke:#000000;" x="66.774939" xlink:href="#m97625ea210" y="138.106793"/>
     <use style="stroke:#000000;" x="66.841505" xlink:href="#m97625ea210" y="137.694357"/>
     <use style="stroke:#000000;" x="66.90807" xlink:href="#m97625ea210" y="137.270351"/>
     <use style="stroke:#000000;" x="66.974636" xlink:href="#m97625ea210" y="136.835434"/>
     <use style="stroke:#000000;" x="67.044227" xlink:href="#m97625ea210" y="136.389938"/>
     <use style="stroke:#000000;" x="67.110793" xlink:href="#m97625ea210" y="135.934854"/>
     <use style="stroke:#000000;" x="67.177359" xlink:href="#m97625ea210" y="135.470679"/>
     <use style="stroke:#000000;" x="67.243924" xlink:href="#m97625ea210" y="134.997907"/>
     <use style="stroke:#000000;" x="67.313516" xlink:href="#m97625ea210" y="134.517036"/>
     <use style="stroke:#000000;" x="67.380081" xlink:href="#m97625ea210" y="134.02856"/>
     <use style="stroke:#000000;" x="67.446647" xlink:href="#m97625ea210" y="133.533142"/>
     <use style="stroke:#000000;" x="67.516238" xlink:href="#m97625ea210" y="133.031277"/>
     <use style="stroke:#000000;" x="67.582804" xlink:href="#m97625ea210" y="132.52313"/>
     <use style="stroke:#000000;" x="67.64937" xlink:href="#m97625ea210" y="132.009529"/>
     <use style="stroke:#000000;" x="67.715935" xlink:href="#m97625ea210" y="131.490637"/>
     <use style="stroke:#000000;" x="67.785527" xlink:href="#m97625ea210" y="130.966952"/>
     <use style="stroke:#000000;" x="67.852092" xlink:href="#m97625ea210" y="130.438803"/>
     <use style="stroke:#000000;" x="67.918658" xlink:href="#m97625ea210" y="129.906688"/>
     <use style="stroke:#000000;" x="67.988249" xlink:href="#m97625ea210" y="129.37077"/>
     <use style="stroke:#000000;" x="68.054815" xlink:href="#m97625ea210" y="128.831711"/>
     <use style="stroke:#000000;" x="68.121381" xlink:href="#m97625ea210" y="128.289512"/>
     <use style="stroke:#000000;" x="68.187946" xlink:href="#m97625ea210" y="127.744833"/>
     <use style="stroke:#000000;" x="68.257538" xlink:href="#m97625ea210" y="127.197674"/>
     <use style="stroke:#000000;" x="68.324103" xlink:href="#m97625ea210" y="126.648532"/>
     <use style="stroke:#000000;" x="68.387643" xlink:href="#m97625ea210" y="126.097406"/>
     <use style="stroke:#000000;" x="68.448158" xlink:href="#m97625ea210" y="125.544958"/>
     <use style="stroke:#000000;" x="68.538929" xlink:href="#m97625ea210" y="124.991187"/>
     <use style="stroke:#000000;" x="68.599443" xlink:href="#m97625ea210" y="124.436424"/>
     <use style="stroke:#000000;" x="68.659957" xlink:href="#m97625ea210" y="123.880835"/>
     <use style="stroke:#000000;" x="68.720472" xlink:href="#m97625ea210" y="123.32475"/>
     <use style="stroke:#000000;" x="68.780986" xlink:href="#m97625ea210" y="122.768335"/>
     <use style="stroke:#000000;" x="68.871757" xlink:href="#m97625ea210" y="122.211919"/>
     <use style="stroke:#000000;" x="68.932271" xlink:href="#m97625ea210" y="121.655338"/>
     <use style="stroke:#000000;" x="68.992786" xlink:href="#m97625ea210" y="121.099253"/>
     <use style="stroke:#000000;" x="69.0533" xlink:href="#m97625ea210" y="120.543499"/>
     <use style="stroke:#000000;" x="69.174328" xlink:href="#m97625ea210" y="119.708545"/>
     <use style="stroke:#000000;" x="69.2651" xlink:href="#m97625ea210" y="118.875409"/>
     <use style="stroke:#000000;" x="69.355871" xlink:href="#m97625ea210" y="118.044918"/>
     <use style="stroke:#000000;" x="69.4769" xlink:href="#m97625ea210" y="117.217237"/>
     <use style="stroke:#000000;" x="69.567671" xlink:href="#m97625ea210" y="116.393028"/>
     <use style="stroke:#000000;" x="69.688699" xlink:href="#m97625ea210" y="115.572456"/>
     <use style="stroke:#000000;" x="69.779471" xlink:href="#m97625ea210" y="114.756181"/>
     <use style="stroke:#000000;" x="69.870242" xlink:href="#m97625ea210" y="113.944535"/>
     <use style="stroke:#000000;" x="69.991271" xlink:href="#m97625ea210" y="113.137517"/>
     <use style="stroke:#000000;" x="70.082042" xlink:href="#m97625ea210" y="112.33579"/>
     <use style="stroke:#000000;" x="70.172813" xlink:href="#m97625ea210" y="111.539517"/>
     <use style="stroke:#000000;" x="70.293842" xlink:href="#m97625ea210" y="110.748865"/>
     <use style="stroke:#000000;" x="70.384613" xlink:href="#m97625ea210" y="109.964163"/>
     <use style="stroke:#000000;" x="70.475384" xlink:href="#m97625ea210" y="109.185578"/>
     <use style="stroke:#000000;" x="70.596413" xlink:href="#m97625ea210" y="108.413274"/>
     <use style="stroke:#000000;" x="70.687184" xlink:href="#m97625ea210" y="107.647583"/>
     <use style="stroke:#000000;" x="70.777956" xlink:href="#m97625ea210" y="106.888504"/>
     <use style="stroke:#000000;" x="70.898984" xlink:href="#m97625ea210" y="106.136367"/>
     <use style="stroke:#000000;" x="70.989755" xlink:href="#m97625ea210" y="105.391009"/>
     <use style="stroke:#000000;" x="71.080527" xlink:href="#m97625ea210" y="104.652923"/>
     <use style="stroke:#000000;" x="71.201555" xlink:href="#m97625ea210" y="103.921946"/>
     <use style="stroke:#000000;" x="71.292326" xlink:href="#m97625ea210" y="103.198076"/>
     <use style="stroke:#000000;" x="71.413355" xlink:href="#m97625ea210" y="102.481811"/>
     <use style="stroke:#000000;" x="71.504126" xlink:href="#m97625ea210" y="101.772819"/>
     <use style="stroke:#000000;" x="71.594898" xlink:href="#m97625ea210" y="101.071431"/>
     <use style="stroke:#000000;" x="71.715926" xlink:href="#m97625ea210" y="100.377648"/>
     <use style="stroke:#000000;" x="71.806697" xlink:href="#m97625ea210" y="99.691302"/>
     <use style="stroke:#000000;" x="71.897469" xlink:href="#m97625ea210" y="99.012727"/>
     <use style="stroke:#000000;" x="72.018497" xlink:href="#m97625ea210" y="98.341755"/>
     <use style="stroke:#000000;" x="72.109269" xlink:href="#m97625ea210" y="97.678552"/>
     <use style="stroke:#000000;" x="72.20004" xlink:href="#m97625ea210" y="97.022954"/>
     <use style="stroke:#000000;" x="72.321068" xlink:href="#m97625ea210" y="96.375125"/>
     <use style="stroke:#000000;" x="72.41184" xlink:href="#m97625ea210" y="95.735065"/>
     <use style="stroke:#000000;" x="72.502611" xlink:href="#m97625ea210" y="95.102774"/>
     <use style="stroke:#000000;" x="72.62364" xlink:href="#m97625ea210" y="94.478088"/>
     <use style="stroke:#000000;" x="72.714411" xlink:href="#m97625ea210" y="93.861171"/>
     <use style="stroke:#000000;" x="72.805182" xlink:href="#m97625ea210" y="93.252023"/>
     <use style="stroke:#000000;" x="72.926211" xlink:href="#m97625ea210" y="92.650479"/>
     <use style="stroke:#000000;" x="73.016982" xlink:href="#m97625ea210" y="92.056705"/>
     <use style="stroke:#000000;" x="73.107753" xlink:href="#m97625ea210" y="91.470534"/>
     <use style="stroke:#000000;" x="73.228782" xlink:href="#m97625ea210" y="90.891968"/>
     <use style="stroke:#000000;" x="73.319553" xlink:href="#m97625ea210" y="90.321005"/>
     <use style="stroke:#000000;" x="73.440582" xlink:href="#m97625ea210" y="89.757647"/>
     <use style="stroke:#000000;" x="73.591867" xlink:href="#m97625ea210" y="88.920875"/>
     <use style="stroke:#000000;" x="73.743153" xlink:href="#m97625ea210" y="88.101129"/>
     <use style="stroke:#000000;" x="73.894438" xlink:href="#m97625ea210" y="87.298409"/>
     <use style="stroke:#000000;" x="74.045724" xlink:href="#m97625ea210" y="86.51222"/>
     <use style="stroke:#000000;" x="74.19701" xlink:href="#m97625ea210" y="85.742726"/>
     <use style="stroke:#000000;" x="74.348295" xlink:href="#m97625ea210" y="84.989763"/>
     <use style="stroke:#000000;" x="74.499581" xlink:href="#m97625ea210" y="84.253"/>
     <use style="stroke:#000000;" x="74.650866" xlink:href="#m97625ea210" y="83.532107"/>
     <use style="stroke:#000000;" x="74.802152" xlink:href="#m97625ea210" y="82.827247"/>
     <use style="stroke:#000000;" x="74.953437" xlink:href="#m97625ea210" y="82.138092"/>
     <use style="stroke:#000000;" x="75.104723" xlink:href="#m97625ea210" y="81.464475"/>
     <use style="stroke:#000000;" x="75.256009" xlink:href="#m97625ea210" y="80.806232"/>
     <use style="stroke:#000000;" x="75.407294" xlink:href="#m97625ea210" y="80.163031"/>
     <use style="stroke:#000000;" x="75.55858" xlink:href="#m97625ea210" y="79.534874"/>
     <use style="stroke:#000000;" x="75.740122" xlink:href="#m97625ea210" y="78.921262"/>
     <use style="stroke:#000000;" x="75.891408" xlink:href="#m97625ea210" y="78.322364"/>
     <use style="stroke:#000000;" x="76.042694" xlink:href="#m97625ea210" y="77.737681"/>
     <use style="stroke:#000000;" x="76.193979" xlink:href="#m97625ea210" y="77.167214"/>
     <use style="stroke:#000000;" x="76.345265" xlink:href="#m97625ea210" y="76.610799"/>
     <use style="stroke:#000000;" x="76.49655" xlink:href="#m97625ea210" y="76.067938"/>
     <use style="stroke:#000000;" x="76.647836" xlink:href="#m97625ea210" y="75.538798"/>
     <use style="stroke:#000000;" x="76.799122" xlink:href="#m97625ea210" y="75.022882"/>
     <use style="stroke:#000000;" x="76.950407" xlink:href="#m97625ea210" y="74.52019"/>
     <use style="stroke:#000000;" x="77.101693" xlink:href="#m97625ea210" y="74.030392"/>
     <use style="stroke:#000000;" x="77.252978" xlink:href="#m97625ea210" y="73.553488"/>
     <use style="stroke:#000000;" x="77.404264" xlink:href="#m97625ea210" y="73.089147"/>
     <use style="stroke:#000000;" x="77.555549" xlink:href="#m97625ea210" y="72.637039"/>
     <use style="stroke:#000000;" x="77.706835" xlink:href="#m97625ea210" y="72.197328"/>
     <use style="stroke:#000000;" x="77.858121" xlink:href="#m97625ea210" y="71.76952"/>
     <use style="stroke:#000000;" x="78.009406" xlink:href="#m97625ea210" y="71.353613"/>
     <use style="stroke:#000000;" x="78.190949" xlink:href="#m97625ea210" y="70.949278"/>
     <use style="stroke:#000000;" x="78.402749" xlink:href="#m97625ea210" y="70.35881"/>
     <use style="stroke:#000000;" x="78.644806" xlink:href="#m97625ea210" y="69.794129"/>
     <use style="stroke:#000000;" x="78.886863" xlink:href="#m97625ea210" y="69.254244"/>
     <use style="stroke:#000000;" x="79.098662" xlink:href="#m97625ea210" y="68.738989"/>
     <use style="stroke:#000000;" x="79.340719" xlink:href="#m97625ea210" y="68.247538"/>
     <use style="stroke:#000000;" x="79.582776" xlink:href="#m97625ea210" y="67.77923"/>
     <use style="stroke:#000000;" x="79.794576" xlink:href="#m97625ea210" y="67.333734"/>
     <use style="stroke:#000000;" x="80.036633" xlink:href="#m97625ea210" y="66.910388"/>
     <use style="stroke:#000000;" x="80.27869" xlink:href="#m97625ea210" y="66.508532"/>
     <use style="stroke:#000000;" x="80.49049" xlink:href="#m97625ea210" y="66.12767"/>
     <use style="stroke:#000000;" x="80.732547" xlink:href="#m97625ea210" y="65.767306"/>
     <use style="stroke:#000000;" x="80.974603" xlink:href="#m97625ea210" y="65.426778"/>
     <use style="stroke:#000000;" x="81.186403" xlink:href="#m97625ea210" y="65.106087"/>
     <use style="stroke:#000000;" x="81.42846" xlink:href="#m97625ea210" y="64.80358"/>
     <use style="stroke:#000000;" x="81.670517" xlink:href="#m97625ea210" y="64.520909"/>
     <use style="stroke:#000000;" x="81.882317" xlink:href="#m97625ea210" y="64.256421"/>
     <use style="stroke:#000000;" x="82.124374" xlink:href="#m97625ea210" y="64.008464"/>
     <use style="stroke:#000000;" x="82.366431" xlink:href="#m97625ea210" y="63.777038"/>
     <use style="stroke:#000000;" x="82.699259" xlink:href="#m97625ea210" y="63.462959"/>
     <use style="stroke:#000000;" x="83.062344" xlink:href="#m97625ea210" y="63.183594"/>
     <use style="stroke:#000000;" x="83.395173" xlink:href="#m97625ea210" y="62.938943"/>
     <use style="stroke:#000000;" x="83.758258" xlink:href="#m97625ea210" y="62.727353"/>
     <use style="stroke:#000000;" x="84.091086" xlink:href="#m97625ea210" y="62.548824"/>
     <use style="stroke:#000000;" x="84.454172" xlink:href="#m97625ea210" y="62.400049"/>
     <use style="stroke:#000000;" x="84.787" xlink:href="#m97625ea210" y="62.282683"/>
     <use style="stroke:#000000;" x="85.150085" xlink:href="#m97625ea210" y="62.191765"/>
     <use style="stroke:#000000;" x="85.482914" xlink:href="#m97625ea210" y="62.12895"/>
     <use style="stroke:#000000;" x="85.845999" xlink:href="#m97625ea210" y="62.092583"/>
     <use style="stroke:#000000;" x="86.178827" xlink:href="#m97625ea210" y="62.081011"/>
     <use style="stroke:#000000;" x="86.541913" xlink:href="#m97625ea210" y="62.092583"/>
     <use style="stroke:#000000;" x="86.874741" xlink:href="#m97625ea210" y="62.12895"/>
     <use style="stroke:#000000;" x="87.237826" xlink:href="#m97625ea210" y="62.185153"/>
     <use style="stroke:#000000;" x="87.570655" xlink:href="#m97625ea210" y="62.2645"/>
     <use style="stroke:#000000;" x="87.93374" xlink:href="#m97625ea210" y="62.363682"/>
     <use style="stroke:#000000;" x="88.266568" xlink:href="#m97625ea210" y="62.482702"/>
     <use style="stroke:#000000;" x="88.629654" xlink:href="#m97625ea210" y="62.619905"/>
     <use style="stroke:#000000;" x="88.962482" xlink:href="#m97625ea210" y="62.775291"/>
     <use style="stroke:#000000;" x="89.325567" xlink:href="#m97625ea210" y="62.947208"/>
     <use style="stroke:#000000;" x="89.658396" xlink:href="#m97625ea210" y="63.135655"/>
     <use style="stroke:#000000;" x="90.021481" xlink:href="#m97625ea210" y="63.340633"/>
     <use style="stroke:#000000;" x="90.354309" xlink:href="#m97625ea210" y="63.560488"/>
     <use style="stroke:#000000;" x="90.717395" xlink:href="#m97625ea210" y="63.793568"/>
     <use style="stroke:#000000;" x="91.050223" xlink:href="#m97625ea210" y="64.041525"/>
     <use style="stroke:#000000;" x="91.413308" xlink:href="#m97625ea210" y="64.302706"/>
     <use style="stroke:#000000;" x="91.746137" xlink:href="#m97625ea210" y="64.575459"/>
     <use style="stroke:#000000;" x="92.109222" xlink:href="#m97625ea210" y="64.861436"/>
     <use style="stroke:#000000;" x="92.44205" xlink:href="#m97625ea210" y="65.157332"/>
     <use style="stroke:#000000;" x="92.805136" xlink:href="#m97625ea210" y="65.464799"/>
     <use style="stroke:#000000;" x="93.137964" xlink:href="#m97625ea210" y="65.783671"/>
     <use style="stroke:#000000;" x="93.501049" xlink:href="#m97625ea210" y="66.111966"/>
     <use style="stroke:#000000;" x="93.833878" xlink:href="#m97625ea210" y="66.449849"/>
     <use style="stroke:#000000;" x="94.196963" xlink:href="#m97625ea210" y="66.796824"/>
     <use style="stroke:#000000;" x="94.560048" xlink:href="#m97625ea210" y="67.152394"/>
     <use style="stroke:#000000;" x="95.074419" xlink:href="#m97625ea210" y="67.70319"/>
     <use style="stroke:#000000;" x="95.58879" xlink:href="#m97625ea210" y="68.271342"/>
     <use style="stroke:#000000;" x="96.22419" xlink:href="#m97625ea210" y="68.855859"/>
     <use style="stroke:#000000;" x="96.526761" xlink:href="#m97625ea210" y="69.455254"/>
     <use style="stroke:#000000;" x="97.131903" xlink:href="#m97625ea210" y="70.068534"/>
     <use style="stroke:#000000;" x="97.737046" xlink:href="#m97625ea210" y="70.694543"/>
     <use style="stroke:#000000;" x="98.342188" xlink:href="#m97625ea210" y="71.33262"/>
     <use style="stroke:#000000;" x="98.644759" xlink:href="#m97625ea210" y="71.981606"/>
     <use style="stroke:#000000;" x="99.249901" xlink:href="#m97625ea210" y="72.640676"/>
     <use style="stroke:#000000;" x="99.855044" xlink:href="#m97625ea210" y="73.309003"/>
     <use style="stroke:#000000;" x="100.460186" xlink:href="#m97625ea210" y="73.98576"/>
     <use style="stroke:#000000;" x="100.762757" xlink:href="#m97625ea210" y="74.670287"/>
     <use style="stroke:#000000;" x="101.367899" xlink:href="#m97625ea210" y="75.361922"/>
     <use style="stroke:#000000;" x="101.973042" xlink:href="#m97625ea210" y="76.060003"/>
     <use style="stroke:#000000;" x="102.275613" xlink:href="#m97625ea210" y="76.763871"/>
     <use style="stroke:#000000;" x="102.880755" xlink:href="#m97625ea210" y="77.473028"/>
     <use style="stroke:#000000;" x="103.485898" xlink:href="#m97625ea210" y="78.186814"/>
     <use style="stroke:#000000;" x="104.09104" xlink:href="#m97625ea210" y="78.904732"/>
     <use style="stroke:#000000;" x="104.393611" xlink:href="#m97625ea210" y="79.626452"/>
     <use style="stroke:#000000;" x="104.998753" xlink:href="#m97625ea210" y="80.351479"/>
     <use style="stroke:#000000;" x="105.603896" xlink:href="#m97625ea210" y="81.079315"/>
     <use style="stroke:#000000;" x="106.209038" xlink:href="#m97625ea210" y="81.809466"/>
     <use style="stroke:#000000;" x="106.511609" xlink:href="#m97625ea210" y="82.541931"/>
     <use style="stroke:#000000;" x="107.116751" xlink:href="#m97625ea210" y="83.275884"/>
     <use style="stroke:#000000;" x="107.721894" xlink:href="#m97625ea210" y="84.011325"/>
     <use style="stroke:#000000;" x="108.327036" xlink:href="#m97625ea210" y="84.747757"/>
     <use style="stroke:#000000;" x="108.629607" xlink:href="#m97625ea210" y="85.485016"/>
     <use style="stroke:#000000;" x="109.23475" xlink:href="#m97625ea210" y="86.222771"/>
     <use style="stroke:#000000;" x="109.839892" xlink:href="#m97625ea210" y="86.960857"/>
     <use style="stroke:#000000;" x="110.142463" xlink:href="#m97625ea210" y="87.698777"/>
     <use style="stroke:#000000;" x="110.747605" xlink:href="#m97625ea210" y="88.436532"/>
     <use style="stroke:#000000;" x="111.655319" xlink:href="#m97625ea210" y="89.546718"/>
     <use style="stroke:#000000;" x="112.260461" xlink:href="#m97625ea210" y="90.655251"/>
     <use style="stroke:#000000;" x="113.168175" xlink:href="#m97625ea210" y="91.761305"/>
     <use style="stroke:#000000;" x="114.075888" xlink:href="#m97625ea210" y="92.864714"/>
     <use style="stroke:#000000;" x="114.68103" xlink:href="#m97625ea210" y="93.964486"/>
     <use style="stroke:#000000;" x="115.588744" xlink:href="#m97625ea210" y="95.060622"/>
     <use style="stroke:#000000;" x="116.193886" xlink:href="#m97625ea210" y="96.152459"/>
     <use style="stroke:#000000;" x="117.1016" xlink:href="#m97625ea210" y="97.239503"/>
     <use style="stroke:#000000;" x="118.009313" xlink:href="#m97625ea210" y="98.321753"/>
     <use style="stroke:#000000;" x="118.614455" xlink:href="#m97625ea210" y="99.398548"/>
     <use style="stroke:#000000;" x="119.522169" xlink:href="#m97625ea210" y="100.469888"/>
     <use style="stroke:#000000;" x="120.127311" xlink:href="#m97625ea210" y="101.535276"/>
     <use style="stroke:#000000;" x="121.035025" xlink:href="#m97625ea210" y="102.594714"/>
     <use style="stroke:#000000;" x="121.942738" xlink:href="#m97625ea210" y="103.64787"/>
     <use style="stroke:#000000;" x="122.54788" xlink:href="#m97625ea210" y="104.694745"/>
     <use style="stroke:#000000;" x="123.455594" xlink:href="#m97625ea210" y="105.734842"/>
     <use style="stroke:#000000;" x="124.363307" xlink:href="#m97625ea210" y="106.768327"/>
     <use style="stroke:#000000;" x="124.96845" xlink:href="#m97625ea210" y="107.794869"/>
     <use style="stroke:#000000;" x="125.876163" xlink:href="#m97625ea210" y="108.814469"/>
     <use style="stroke:#000000;" x="126.481305" xlink:href="#m97625ea210" y="109.82696"/>
     <use style="stroke:#000000;" x="127.389019" xlink:href="#m97625ea210" y="110.832509"/>
     <use style="stroke:#000000;" x="128.296732" xlink:href="#m97625ea210" y="111.830618"/>
     <use style="stroke:#000000;" x="128.901875" xlink:href="#m97625ea210" y="112.82162"/>
     <use style="stroke:#000000;" x="129.809588" xlink:href="#m97625ea210" y="113.805348"/>
     <use style="stroke:#000000;" x="130.41473" xlink:href="#m97625ea210" y="114.781638"/>
     <use style="stroke:#000000;" x="131.322444" xlink:href="#m97625ea210" y="115.750489"/>
     <use style="stroke:#000000;" x="132.230157" xlink:href="#m97625ea210" y="116.712066"/>
     <use style="stroke:#000000;" x="132.8353" xlink:href="#m97625ea210" y="117.666205"/>
     <use style="stroke:#000000;" x="133.743013" xlink:href="#m97625ea210" y="118.612905"/>
     <use style="stroke:#000000;" x="134.348156" xlink:href="#m97625ea210" y="119.552001"/>
     <use style="stroke:#000000;" x="135.55844" xlink:href="#m97625ea210" y="120.963869"/>
     <use style="stroke:#000000;" x="136.768725" xlink:href="#m97625ea210" y="122.358379"/>
     <use style="stroke:#000000;" x="137.979009" xlink:href="#m97625ea210" y="123.736028"/>
     <use style="stroke:#000000;" x="139.189294" xlink:href="#m97625ea210" y="125.096486"/>
     <use style="stroke:#000000;" x="140.399579" xlink:href="#m97625ea210" y="126.440248"/>
     <use style="stroke:#000000;" x="141.609863" xlink:href="#m97625ea210" y="127.766984"/>
     <use style="stroke:#000000;" x="142.820148" xlink:href="#m97625ea210" y="129.077189"/>
     <use style="stroke:#000000;" x="144.030433" xlink:href="#m97625ea210" y="130.370863"/>
     <use style="stroke:#000000;" x="145.240717" xlink:href="#m97625ea210" y="131.647842"/>
     <use style="stroke:#000000;" x="146.451002" xlink:href="#m97625ea210" y="132.908786"/>
     <use style="stroke:#000000;" x="147.661286" xlink:href="#m97625ea210" y="134.153531"/>
     <use style="stroke:#000000;" x="148.871571" xlink:href="#m97625ea210" y="135.382241"/>
     <use style="stroke:#000000;" x="150.081856" xlink:href="#m97625ea210" y="136.595081"/>
     <use style="stroke:#000000;" x="151.29214" xlink:href="#m97625ea210" y="137.792218"/>
     <use style="stroke:#000000;" x="152.502425" xlink:href="#m97625ea210" y="138.973981"/>
     <use style="stroke:#000000;" x="153.71271" xlink:href="#m97625ea210" y="140.140371"/>
     <use style="stroke:#000000;" x="154.922994" xlink:href="#m97625ea210" y="141.291553"/>
     <use style="stroke:#000000;" x="156.133279" xlink:href="#m97625ea210" y="142.427858"/>
     <use style="stroke:#000000;" x="157.268526" xlink:href="#m97625ea210" y="143.549285"/>
     <use style="stroke:#000000;" x="158.467615" xlink:href="#m97625ea210" y="144.656165"/>
     <use style="stroke:#000000;" x="159.666402" xlink:href="#m97625ea210" y="145.748498"/>
     <use style="stroke:#000000;" x="160.865189" xlink:href="#m97625ea210" y="146.826616"/>
     <use style="stroke:#000000;" x="162.064279" xlink:href="#m97625ea210" y="147.890517"/>
     <use style="stroke:#000000;" x="163.866695" xlink:href="#m97625ea210" y="149.464218"/>
     <use style="stroke:#000000;" x="165.669414" xlink:href="#m97625ea210" y="151.007006"/>
     <use style="stroke:#000000;" x="167.472133" xlink:href="#m97625ea210" y="152.519544"/>
     <use style="stroke:#000000;" x="169.274852" xlink:href="#m97625ea210" y="154.002493"/>
     <use style="stroke:#000000;" x="171.077268" xlink:href="#m97625ea210" y="155.456182"/>
     <use style="stroke:#000000;" x="172.879987" xlink:href="#m97625ea210" y="156.881274"/>
     <use style="stroke:#000000;" x="174.682706" xlink:href="#m97625ea210" y="158.278595"/>
     <use style="stroke:#000000;" x="176.485425" xlink:href="#m97625ea210" y="159.64831"/>
     <use style="stroke:#000000;" x="178.287841" xlink:href="#m97625ea210" y="160.991245"/>
     <use style="stroke:#000000;" x="180.09056" xlink:href="#m97625ea210" y="162.307732"/>
     <use style="stroke:#000000;" x="181.893279" xlink:href="#m97625ea210" y="163.598596"/>
     <use style="stroke:#000000;" x="183.695998" xlink:href="#m97625ea210" y="164.864004"/>
     <use style="stroke:#000000;" x="185.498415" xlink:href="#m97625ea210" y="166.104781"/>
     <use style="stroke:#000000;" x="187.301134" xlink:href="#m97625ea210" y="167.321093"/>
     <use style="stroke:#000000;" x="189.103853" xlink:href="#m97625ea210" y="168.513766"/>
     <use style="stroke:#000000;" x="190.906572" xlink:href="#m97625ea210" y="169.682966"/>
     <use style="stroke:#000000;" x="192.708988" xlink:href="#m97625ea210" y="170.82952"/>
     <use style="stroke:#000000;" x="194.511707" xlink:href="#m97625ea210" y="171.953592"/>
     <use style="stroke:#000000;" x="196.314426" xlink:href="#m97625ea210" y="173.055843"/>
     <use style="stroke:#000000;" x="198.117145" xlink:href="#m97625ea210" y="174.13644"/>
     <use style="stroke:#000000;" x="199.919561" xlink:href="#m97625ea210" y="175.196209"/>
     <use style="stroke:#000000;" x="201.72228" xlink:href="#m97625ea210" y="176.235314"/>
     <use style="stroke:#000000;" x="203.524999" xlink:href="#m97625ea210" y="177.254087"/>
     <use style="stroke:#000000;" x="206.27174" xlink:href="#m97625ea210" y="178.768609"/>
     <use style="stroke:#000000;" x="209.018178" xlink:href="#m97625ea210" y="180.238663"/>
     <use style="stroke:#000000;" x="211.764919" xlink:href="#m97625ea210" y="181.665408"/>
     <use style="stroke:#000000;" x="214.51166" xlink:href="#m97625ea210" y="183.050496"/>
     <use style="stroke:#000000;" x="217.258401" xlink:href="#m97625ea210" y="184.394919"/>
     <use style="stroke:#000000;" x="220.005142" xlink:href="#m97625ea210" y="185.7"/>
     <use style="stroke:#000000;" x="222.751581" xlink:href="#m97625ea210" y="186.967061"/>
     <use style="stroke:#000000;" x="225.498322" xlink:href="#m97625ea210" y="188.197093"/>
     <use style="stroke:#000000;" x="228.245063" xlink:href="#m97625ea210" y="189.391254"/>
     <use style="stroke:#000000;" x="230.991804" xlink:href="#m97625ea210" y="190.550701"/>
     <use style="stroke:#000000;" x="233.738544" xlink:href="#m97625ea210" y="191.676426"/>
     <use style="stroke:#000000;" x="236.484983" xlink:href="#m97625ea210" y="192.769586"/>
     <use style="stroke:#000000;" x="239.231724" xlink:href="#m97625ea210" y="193.831008"/>
     <use style="stroke:#000000;" x="241.978465" xlink:href="#m97625ea210" y="194.861682"/>
     <use style="stroke:#000000;" x="244.725206" xlink:href="#m97625ea210" y="195.862768"/>
     <use style="stroke:#000000;" x="247.471947" xlink:href="#m97625ea210" y="196.834759"/>
     <use style="stroke:#000000;" x="250.218688" xlink:href="#m97625ea210" y="197.778815"/>
     <use style="stroke:#000000;" x="252.965126" xlink:href="#m97625ea210" y="198.69576"/>
     <use style="stroke:#000000;" x="255.711867" xlink:href="#m97625ea210" y="199.586256"/>
     <use style="stroke:#000000;" x="258.458608" xlink:href="#m97625ea210" y="200.45113"/>
     <use style="stroke:#000000;" x="261.205349" xlink:href="#m97625ea210" y="201.291374"/>
     <use style="stroke:#000000;" x="263.95209" xlink:href="#m97625ea210" y="202.107483"/>
     <use style="stroke:#000000;" x="266.698528" xlink:href="#m97625ea210" y="202.90012"/>
     <use style="stroke:#000000;" x="269.445269" xlink:href="#m97625ea210" y="203.670274"/>
     <use style="stroke:#000000;" x="272.19201" xlink:href="#m97625ea210" y="204.418443"/>
     <use style="stroke:#000000;" x="274.938751" xlink:href="#m97625ea210" y="205.145288"/>
     <use style="stroke:#000000;" x="277.685492" xlink:href="#m97625ea210" y="205.85147"/>
     <use style="stroke:#000000;" x="280.431931" xlink:href="#m97625ea210" y="206.53765"/>
     <use style="stroke:#000000;" x="283.178671" xlink:href="#m97625ea210" y="207.204323"/>
     <use style="stroke:#000000;" x="285.925412" xlink:href="#m97625ea210" y="207.851987"/>
     <use style="stroke:#000000;" x="288.672153" xlink:href="#m97625ea210" y="208.481467"/>
     <use style="stroke:#000000;" x="291.418894" xlink:href="#m97625ea210" y="209.093095"/>
     <use style="stroke:#000000;" x="294.165333" xlink:href="#m97625ea210" y="209.687531"/>
     <use style="stroke:#000000;" x="296.912074" xlink:href="#m97625ea210" y="210.265105"/>
     <use style="stroke:#000000;" x="299.658815" xlink:href="#m97625ea210" y="210.82648"/>
     <use style="stroke:#000000;" x="302.405556" xlink:href="#m97625ea210" y="211.372151"/>
     <use style="stroke:#000000;" x="305.152297" xlink:href="#m97625ea210" y="211.902448"/>
     <use style="stroke:#000000;" x="307.898735" xlink:href="#m97625ea210" y="212.417868"/>
     <use style="stroke:#000000;" x="310.645476" xlink:href="#m97625ea210" y="212.918742"/>
     <use style="stroke:#000000;" x="313.392217" xlink:href="#m97625ea210" y="213.405729"/>
     <use style="stroke:#000000;" x="316.138958" xlink:href="#m97625ea210" y="213.879162"/>
     <use style="stroke:#000000;" x="318.885699" xlink:href="#m97625ea210" y="214.339205"/>
     <use style="stroke:#000000;" x="321.63244" xlink:href="#m97625ea210" y="214.786586"/>
     <use style="stroke:#000000;" x="324.378878" xlink:href="#m97625ea210" y="215.221486"/>
     <use style="stroke:#000000;" x="327.125619" xlink:href="#m97625ea210" y="215.644286"/>
     <use style="stroke:#000000;" x="329.87236" xlink:href="#m97625ea210" y="216.055349"/>
     <use style="stroke:#000000;" x="331.909572" xlink:href="#m97625ea210" y="216.352864"/>
     <use style="stroke:#000000;" x="333.946783" xlink:href="#m97625ea210" y="216.644247"/>
     <use style="stroke:#000000;" x="335.983995" xlink:href="#m97625ea210" y="216.929612"/>
     <use style="stroke:#000000;" x="338.021206" xlink:href="#m97625ea210" y="217.209126"/>
     <use style="stroke:#000000;" x="340.058115" xlink:href="#m97625ea210" y="217.482887"/>
     <use style="stroke:#000000;" x="342.095327" xlink:href="#m97625ea210" y="217.751028"/>
     <use style="stroke:#000000;" x="344.132539" xlink:href="#m97625ea210" y="218.013664"/>
     <use style="stroke:#000000;" x="346.16975" xlink:href="#m97625ea210" y="218.270928"/>
     <use style="stroke:#000000;" x="348.206962" xlink:href="#m97625ea210" y="218.522918"/>
     <use style="stroke:#000000;" x="350.244173" xlink:href="#m97625ea210" y="218.769751"/>
     <use style="stroke:#000000;" x="352.281385" xlink:href="#m97625ea210" y="219.011542"/>
     <use style="stroke:#000000;" x="354.318597" xlink:href="#m97625ea210" y="219.248391"/>
     <use style="stroke:#000000;" x="356.355808" xlink:href="#m97625ea210" y="219.480413"/>
     <use style="stroke:#000000;" x="358.39302" xlink:href="#m97625ea210" y="219.707707"/>
     <use style="stroke:#000000;" x="360.429929" xlink:href="#m97625ea210" y="219.930389"/>
     <use style="stroke:#000000;" x="362.467141" xlink:href="#m97625ea210" y="220.148525"/>
     <use style="stroke:#000000;" x="364.504352" xlink:href="#m97625ea210" y="220.362231"/>
     <use style="stroke:#000000;" x="366.541564" xlink:href="#m97625ea210" y="220.571589"/>
     <use style="stroke:#000000;" x="368.577565" xlink:href="#m97625ea210" y="220.776716"/>
    </g>
   </g>
   <g id="line2d_15">
    <path clip-path="url(#pfbb4de9e54)" d="M 65.361932 127.179313 
L 65.566719 127.223017 
L 65.78392 127.019183 
L 66.092981 126.337523 
L 66.50848 124.811591 
L 67.131729 121.526103 
L 68.033634 115.439376 
L 72.121401 86.19459 
L 73.38364 79.214307 
L 74.645879 73.416941 
L 75.908119 68.698473 
L 77.012578 65.354187 
L 78.198788 62.476246 
L 79.396441 60.224878 
L 80.354563 58.838059 
L 81.312686 57.776341 
L 82.270808 57.004588 
L 83.22893 56.491613 
L 84.187052 56.209727 
L 85.26581 56.138331 
L 86.344567 56.297694 
L 87.423325 56.660497 
L 88.861668 57.419489 
L 90.300011 58.448183 
L 92.116347 60.067782 
L 94.310676 62.408897 
L 96.505006 65.076473 
L 99.247917 68.749572 
L 103.087993 74.314978 
L 108.301372 82.290242 
L 121.4772 102.599539 
L 127.241624 111.060181 
L 132.460269 118.380075 
L 138.069953 125.857479 
L 143.702936 132.947405 
L 148.557835 138.722663 
L 152.864814 143.591235 
L 158.503404 149.613495 
L 164.141995 155.252454 
L 169.780585 160.52634 
L 176.06178 165.99465 
L 181.669862 170.535652 
L 186.988811 174.56258 
L 191.059829 177.470391 
L 196.890583 181.386392 
L 202.721337 185.026462 
L 208.552091 188.408672 
L 214.382845 191.550153 
L 220.564162 194.635651 
L 226.745479 197.486923 
L 232.926796 200.12096 
L 239.108113 202.553643 
L 245.289431 204.799792 
L 251.470748 206.873221 
L 260.742723 209.687385 
L 270.014699 212.181281 
L 279.286675 214.390385 
L 288.55865 216.346395 
L 297.830626 218.077599 
L 307.102602 219.609213 
L 318.930332 221.308631 
L 329.888753 222.661395 
L 340.26428 223.77191 
L 354.994924 225.105071 
L 369.725568 226.197784 
L 369.725568 226.197784 
" style="fill:none;stroke:#0000ff;stroke-linecap:square;stroke-width:1.5;"/>
   </g>
   <g id="line2d_16">
    <path clip-path="url(#pfbb4de9e54)" d="M 65.361932 128.627088 
L 65.6293 128.752721 
L 65.868466 128.609444 
L 66.173134 128.107605 
L 66.602793 126.860217 
L 67.156444 124.472612 
L 67.894646 120.252053 
L 69.094224 111.872419 
L 72.376203 88.187739 
L 73.764471 80.075586 
L 75.013911 74.092767 
L 76.124526 69.78964 
L 77.096394 66.746466 
L 78.137797 64.160592 
L 79.1792 62.196515 
L 80.012323 61.022336 
L 80.845445 60.162312 
L 81.678568 59.583705 
L 82.51169 59.256794 
L 83.344813 59.154785 
L 84.283101 59.279287 
L 85.221388 59.628109 
L 86.472438 60.396135 
L 87.723489 61.460446 
L 89.287301 63.137246 
L 91.163877 65.559583 
L 93.058853 68.359808 
L 95.450575 72.271613 
L 98.798986 78.227082 
L 103.589401 87.267002 
L 115.125432 109.235206 
L 120.172446 118.355023 
L 125.131842 126.864485 
L 129.560729 134.049956 
L 134.04515 140.915678 
L 138.415916 147.2109 
L 142.864237 153.223707 
L 147.260407 158.787728 
L 151.456581 163.761742 
L 156.360613 169.177685 
L 160.038638 172.972693 
L 163.850371 176.676664 
L 167.662103 180.159062 
L 171.473836 183.431357 
L 175.285569 186.50474 
L 181.003169 190.765478 
L 186.720768 194.637908 
L 192.438367 198.154794 
L 198.155967 201.346667 
L 203.873566 204.241829 
L 209.591166 206.866413 
L 215.6951 209.396829 
L 221.551434 211.585355 
L 228.168383 213.803643 
L 234.872413 215.803541 
L 241.576443 217.580586 
L 248.280473 219.158554 
L 257.21918 220.989376 
L 266.157887 222.548491 
L 275.096595 223.874359 
L 284.035302 225.000163 
L 295.208685 226.169299 
L 306.382069 227.117667 
L 319.79013 228.019278 
L 335.432867 228.814194 
L 353.310281 229.467386 
L 368.953019 229.874489 
L 368.953019 229.874489 
" style="fill:none;stroke:#ff0000;stroke-linecap:square;stroke-width:1.5;"/>
   </g>
   <g id="line2d_17">
    <path clip-path="url(#pfbb4de9e54)" d="M 65.361932 107.604507 
L 65.594306 107.694104 
L 65.830917 107.532388 
L 66.145591 106.965181 
L 66.572216 105.646062 
L 67.177359 102.879066 
L 67.988249 97.950798 
L 69.2651 88.567889 
L 72.109269 67.304189 
L 73.440582 59.013534 
L 74.802152 51.95439 
L 76.042694 46.717441 
L 77.252978 42.59263 
L 78.402749 39.471514 
L 79.582776 36.965957 
L 80.732547 35.119753 
L 81.670517 33.993637 
L 82.699259 33.103886 
L 83.758258 32.522506 
L 84.787 32.249294 
L 85.845999 32.218492 
L 86.874741 32.40863 
L 87.93374 32.803224 
L 89.325567 33.587993 
L 90.717395 34.631571 
L 92.44205 36.228438 
L 94.560048 38.544688 
L 97.131903 41.768158 
L 100.460186 46.415591 
L 104.393611 52.343047 
L 110.747605 62.381996 
L 121.942738 80.069359 
L 128.296732 89.663564 
L 133.743013 97.517043 
L 139.189294 105.003093 
L 144.030433 111.34006 
L 150.081856 118.848852 
L 156.133279 125.908009 
L 162.064279 132.413003 
L 167.472133 137.995353 
L 172.879987 143.275058 
L 178.287841 148.253505 
L 183.695998 152.959074 
L 189.103853 157.388209 
L 194.511707 161.571833 
L 201.72228 166.79059 
L 206.27174 169.882762 
L 214.51166 175.106156 
L 222.751581 179.882993 
L 230.991804 184.257133 
L 239.231724 188.272569 
L 247.471947 191.935461 
L 255.711867 195.289829 
L 263.95209 198.366209 
L 272.19201 201.172275 
L 280.431931 203.73949 
L 288.672153 206.098288 
L 296.912074 208.245617 
L 307.898735 210.83508 
L 318.885699 213.139115 
L 329.87236 215.180056 
L 340.058115 216.872491 
L 352.281385 218.672306 
L 366.541564 220.495961 
L 368.577565 220.444765 
L 368.577565 220.444765 
" style="fill:none;stroke:#0000ff;stroke-dasharray:5.55,2.4;stroke-dashoffset:0;stroke-width:1.5;"/>
   </g>
   <g id="line2d_18">
    <path clip-path="url(#pfbb4de9e54)" d="M 65.361932 143.65052 
L 65.56647 143.658646 
L 65.785531 143.392457 
L 66.100205 142.573908 
L 66.572216 140.560802 
L 67.243924 136.542545 
L 68.448158 127.706107 
L 70.596413 112.097355 
L 71.897469 104.195866 
L 73.228782 97.485633 
L 74.499581 92.267146 
L 75.740122 88.148784 
L 76.950407 84.935211 
L 78.009406 82.683925 
L 79.098662 80.851112 
L 80.27869 79.346564 
L 81.42846 78.301118 
L 82.366431 77.718702 
L 83.395173 77.328648 
L 84.454172 77.167803 
L 85.482914 77.224431 
L 86.541913 77.47476 
L 87.93374 78.065081 
L 89.325567 78.912867 
L 91.050223 80.262579 
L 93.137964 82.269318 
L 95.58879 85.026335 
L 98.644759 88.90671 
L 102.275613 93.943017 
L 107.721894 101.94723 
L 120.127311 120.346665 
L 126.481305 129.292675 
L 132.230157 136.961795 
L 136.768725 142.703816 
L 141.609863 148.518438 
L 146.451002 154.013684 
L 151.29214 159.191315 
L 156.133279 164.062124 
L 160.865189 168.539898 
L 165.669414 172.809533 
L 171.077268 177.294751 
L 176.485425 181.463658 
L 181.893279 185.328144 
L 187.301134 188.91196 
L 192.708988 192.226238 
L 198.117145 195.296699 
L 203.524999 198.133496 
L 209.018178 200.799899 
L 214.51166 203.254494 
L 220.005142 205.516848 
L 225.498322 207.603321 
L 233.738544 210.430003 
L 241.978465 212.925984 
L 250.218688 215.126466 
L 258.458608 217.068727 
L 266.698528 218.783007 
L 274.938751 220.290309 
L 283.178671 221.618075 
L 294.165333 223.142949 
L 305.152297 224.426628 
L 316.138958 225.506794 
L 329.87236 226.617323 
L 344.132539 227.537489 
L 360.429929 228.36129 
L 368.577565 228.761955 
L 368.577565 228.761955 
" style="fill:none;stroke:#0000ff;stroke-dasharray:5.55,2.4;stroke-dashoffset:0;stroke-width:1.5;"/>
   </g>
   <g id="line2d_19"/>
   <g id="line2d_20"/>
   <g id="line2d_21"/>
   <g id="line2d_22"/>
   <g id="line2d_23"/>
   <g id="line2d_24"/>
   <g id="patch_3">
    <path d="M 50.14375 239.758125 
L 50.14375 22.318125 
" style="fill:none;stroke:#000000;stroke-linecap:square;stroke-linejoin:miter;stroke-width:0.8;"/>
   </g>
   <g id="patch_4">
    <path d="M 384.94375 239.758125 
L 384.94375 22.318125 
" style="fill:none;stroke:#000000;stroke-linecap:square;stroke-linejoin:miter;stroke-width:0.8;"/>
   </g>
   <g id="patch_5">
    <path d="M 50.14375 239.758125 
L 384.94375 239.758125 
" style="fill:none;stroke:#000000;stroke-linecap:square;stroke-linejoin:miter;stroke-width:0.8;"/>
   </g>
   <g id="patch_6">
    <path d="M 50.14375 22.318125 
L 384.94375 22.318125 
" style="fill:none;stroke:#000000;stroke-linecap:square;stroke-linejoin:miter;stroke-width:0.8;"/>
   </g>
   <g id="text_16">
    <!-- Experiment_17 -->
    <defs>
     <path d="M 9.8125 72.90625 
L 55.90625 72.90625 
L 55.90625 64.59375 
L 19.671875 64.59375 
L 19.671875 43.015625 
L 54.390625 43.015625 
L 54.390625 34.71875 
L 19.671875 34.71875 
L 19.671875 8.296875 
L 56.78125 8.296875 
L 56.78125 0 
L 9.8125 0 
z
" id="DejaVuSans-69"/>
     <path d="M 54.890625 54.6875 
L 35.109375 28.078125 
L 55.90625 0 
L 45.3125 0 
L 29.390625 21.484375 
L 13.484375 0 
L 2.875 0 
L 24.125 28.609375 
L 4.6875 54.6875 
L 15.28125 54.6875 
L 29.78125 35.203125 
L 44.28125 54.6875 
z
" id="DejaVuSans-120"/>
     <path d="M 18.109375 8.203125 
L 18.109375 -20.796875 
L 9.078125 -20.796875 
L 9.078125 54.6875 
L 18.109375 54.6875 
L 18.109375 46.390625 
Q 20.953125 51.265625 25.265625 53.625 
Q 29.59375 56 35.59375 56 
Q 45.5625 56 51.78125 48.09375 
Q 58.015625 40.1875 58.015625 27.296875 
Q 58.015625 14.40625 51.78125 6.484375 
Q 45.5625 -1.421875 35.59375 -1.421875 
Q 29.59375 -1.421875 25.265625 0.953125 
Q 20.953125 3.328125 18.109375 8.203125 
z
M 48.6875 27.296875 
Q 48.6875 37.203125 44.609375 42.84375 
Q 40.53125 48.484375 33.40625 48.484375 
Q 26.265625 48.484375 22.1875 42.84375 
Q 18.109375 37.203125 18.109375 27.296875 
Q 18.109375 17.390625 22.1875 11.75 
Q 26.265625 6.109375 33.40625 6.109375 
Q 40.53125 6.109375 44.609375 11.75 
Q 48.6875 17.390625 48.6875 27.296875 
z
" id="DejaVuSans-112"/>
     <path d="M 18.3125 70.21875 
L 18.3125 54.6875 
L 36.8125 54.6875 
L 36.8125 47.703125 
L 18.3125 47.703125 
L 18.3125 18.015625 
Q 18.3125 11.328125 20.140625 9.421875 
Q 21.96875 7.515625 27.59375 7.515625 
L 36.8125 7.515625 
L 36.8125 0 
L 27.59375 0 
Q 17.1875 0 13.234375 3.875 
Q 9.28125 7.765625 9.28125 18.015625 
L 9.28125 47.703125 
L 2.6875 47.703125 
L 2.6875 54.6875 
L 9.28125 54.6875 
L 9.28125 70.21875 
z
" id="DejaVuSans-116"/>
     <path d="M 50.984375 -16.609375 
L 50.984375 -23.578125 
L -0.984375 -23.578125 
L -0.984375 -16.609375 
z
" id="DejaVuSans-95"/>
    </defs>
    <g transform="translate(172.240938 16.318125)scale(0.12 -0.12)">
     <use xlink:href="#DejaVuSans-69"/>
     <use x="63.183594" xlink:href="#DejaVuSans-120"/>
     <use x="122.363281" xlink:href="#DejaVuSans-112"/>
     <use x="185.839844" xlink:href="#DejaVuSans-101"/>
     <use x="247.363281" xlink:href="#DejaVuSans-114"/>
     <use x="288.476562" xlink:href="#DejaVuSans-105"/>
     <use x="316.259766" xlink:href="#DejaVuSans-109"/>
     <use x="413.671875" xlink:href="#DejaVuSans-101"/>
     <use x="475.195312" xlink:href="#DejaVuSans-110"/>
     <use x="538.574219" xlink:href="#DejaVuSans-116"/>
     <use x="577.783203" xlink:href="#DejaVuSans-95"/>
     <use x="627.783203" xlink:href="#DejaVuSans-49"/>
     <use x="691.40625" xlink:href="#DejaVuSans-55"/>
    </g>
   </g>
   <g id="legend_1">
    <g id="patch_7">
     <path d="M 121.823438 103.730625 
L 377.94375 103.730625 
Q 379.94375 103.730625 379.94375 101.730625 
L 379.94375 29.318125 
Q 379.94375 27.318125 377.94375 27.318125 
L 121.823438 27.318125 
Q 119.823438 27.318125 119.823438 29.318125 
L 119.823438 101.730625 
Q 119.823438 103.730625 121.823438 103.730625 
z
" style="fill:#ffffff;opacity:0.8;stroke:#cccccc;stroke-linejoin:miter;"/>
    </g>
    <g id="line2d_25"/>
    <g id="line2d_26">
     <g>
      <use style="stroke:#000000;" x="133.823438" xlink:href="#m97625ea210" y="35.416562"/>
     </g>
    </g>
    <g id="text_17">
     <!-- Experimental Data -->
     <defs>
      <path d="M 9.421875 75.984375 
L 18.40625 75.984375 
L 18.40625 0 
L 9.421875 0 
z
" id="DejaVuSans-108"/>
      <path d="M 19.671875 64.796875 
L 19.671875 8.109375 
L 31.59375 8.109375 
Q 46.6875 8.109375 53.6875 14.9375 
Q 60.6875 21.78125 60.6875 36.53125 
Q 60.6875 51.171875 53.6875 57.984375 
Q 46.6875 64.796875 31.59375 64.796875 
z
M 9.8125 72.90625 
L 30.078125 72.90625 
Q 51.265625 72.90625 61.171875 64.09375 
Q 71.09375 55.28125 71.09375 36.53125 
Q 71.09375 17.671875 61.125 8.828125 
Q 51.171875 0 30.078125 0 
L 9.8125 0 
z
" id="DejaVuSans-68"/>
     </defs>
     <g transform="translate(151.823438 38.916562)scale(0.1 -0.1)">
      <use xlink:href="#DejaVuSans-69"/>
      <use x="63.183594" xlink:href="#DejaVuSans-120"/>
      <use x="122.363281" xlink:href="#DejaVuSans-112"/>
      <use x="185.839844" xlink:href="#DejaVuSans-101"/>
      <use x="247.363281" xlink:href="#DejaVuSans-114"/>
      <use x="288.476562" xlink:href="#DejaVuSans-105"/>
      <use x="316.259766" xlink:href="#DejaVuSans-109"/>
      <use x="413.671875" xlink:href="#DejaVuSans-101"/>
      <use x="475.195312" xlink:href="#DejaVuSans-110"/>
      <use x="538.574219" xlink:href="#DejaVuSans-116"/>
      <use x="577.783203" xlink:href="#DejaVuSans-97"/>
      <use x="639.0625" xlink:href="#DejaVuSans-108"/>
      <use x="666.845703" xlink:href="#DejaVuSans-32"/>
      <use x="698.632812" xlink:href="#DejaVuSans-68"/>
      <use x="775.634766" xlink:href="#DejaVuSans-97"/>
      <use x="836.914062" xlink:href="#DejaVuSans-116"/>
      <use x="876.123047" xlink:href="#DejaVuSans-97"/>
     </g>
    </g>
    <g id="line2d_27">
     <path d="M 123.823438 50.094687 
L 143.823438 50.094687 
" style="fill:none;stroke:#0000ff;stroke-linecap:square;stroke-width:1.5;"/>
    </g>
    <g id="line2d_28"/>
    <g id="text_18">
     <!-- MSI -->
     <defs>
      <path d="M 9.8125 72.90625 
L 24.515625 72.90625 
L 43.109375 23.296875 
L 61.8125 72.90625 
L 76.515625 72.90625 
L 76.515625 0 
L 66.890625 0 
L 66.890625 64.015625 
L 48.09375 14.015625 
L 38.1875 14.015625 
L 19.390625 64.015625 
L 19.390625 0 
L 9.8125 0 
z
" id="DejaVuSans-77"/>
      <path d="M 53.515625 70.515625 
L 53.515625 60.890625 
Q 47.90625 63.578125 42.921875 64.890625 
Q 37.9375 66.21875 33.296875 66.21875 
Q 25.25 66.21875 20.875 63.09375 
Q 16.5 59.96875 16.5 54.203125 
Q 16.5 49.359375 19.40625 46.890625 
Q 22.3125 44.4375 30.421875 42.921875 
L 36.375 41.703125 
Q 47.40625 39.59375 52.65625 34.296875 
Q 57.90625 29 57.90625 20.125 
Q 57.90625 9.515625 50.796875 4.046875 
Q 43.703125 -1.421875 29.984375 -1.421875 
Q 24.8125 -1.421875 18.96875 -0.25 
Q 13.140625 0.921875 6.890625 3.21875 
L 6.890625 13.375 
Q 12.890625 10.015625 18.65625 8.296875 
Q 24.421875 6.59375 29.984375 6.59375 
Q 38.421875 6.59375 43.015625 9.90625 
Q 47.609375 13.234375 47.609375 19.390625 
Q 47.609375 24.75 44.3125 27.78125 
Q 41.015625 30.8125 33.5 32.328125 
L 27.484375 33.5 
Q 16.453125 35.6875 11.515625 40.375 
Q 6.59375 45.0625 6.59375 53.421875 
Q 6.59375 63.09375 13.40625 68.65625 
Q 20.21875 74.21875 32.171875 74.21875 
Q 37.3125 74.21875 42.625 73.28125 
Q 47.953125 72.359375 53.515625 70.515625 
z
" id="DejaVuSans-83"/>
      <path d="M 9.8125 72.90625 
L 19.671875 72.90625 
L 19.671875 0 
L 9.8125 0 
z
" id="DejaVuSans-73"/>
     </defs>
     <g transform="translate(151.823438 53.594687)scale(0.1 -0.1)">
      <use xlink:href="#DejaVuSans-77"/>
      <use x="86.279297" xlink:href="#DejaVuSans-83"/>
      <use x="149.755859" xlink:href="#DejaVuSans-73"/>
     </g>
    </g>
    <g id="line2d_29">
     <path d="M 123.823438 64.774375 
L 143.823438 64.774375 
" style="fill:none;stroke:#ff0000;stroke-linecap:square;stroke-width:1.5;"/>
    </g>
    <g id="line2d_30"/>
    <g id="text_19">
     <!-- $\it{A priori}$ model -->
     <defs>
      <path d="M 36.8125 72.90625 
L 48 72.90625 
L 61.53125 0 
L 51.21875 0 
L 48.1875 18.703125 
L 15.375 18.703125 
L 5.078125 0 
L -5.328125 0 
z
M 40.375 63.1875 
L 19.921875 26.90625 
L 46.6875 26.90625 
z
" id="DejaVuSans-Oblique-65"/>
      <path d="M 49.609375 33.6875 
Q 49.609375 40.875 46.484375 44.671875 
Q 43.359375 48.484375 37.5 48.484375 
Q 33.5 48.484375 29.859375 46.4375 
Q 26.21875 44.390625 23.390625 40.484375 
Q 20.609375 36.625 18.9375 31.15625 
Q 17.28125 25.6875 17.28125 20.3125 
Q 17.28125 13.484375 20.40625 9.796875 
Q 23.53125 6.109375 29.296875 6.109375 
Q 33.546875 6.109375 37.1875 8.109375 
Q 40.828125 10.109375 43.40625 13.921875 
Q 46.1875 17.921875 47.890625 23.34375 
Q 49.609375 28.765625 49.609375 33.6875 
z
M 21.78125 46.390625 
Q 25.390625 51.125 30.296875 53.5625 
Q 35.203125 56 41.21875 56 
Q 49.609375 56 54.25 50.5 
Q 58.890625 45.015625 58.890625 35.109375 
Q 58.890625 27 56 19.65625 
Q 53.125 12.3125 47.703125 6.5 
Q 44.09375 2.640625 39.546875 0.609375 
Q 35.015625 -1.421875 29.984375 -1.421875 
Q 24.171875 -1.421875 20.21875 1 
Q 16.265625 3.421875 14.3125 8.203125 
L 8.6875 -20.796875 
L -0.296875 -20.796875 
L 14.40625 54.6875 
L 23.390625 54.6875 
z
" id="DejaVuSans-Oblique-112"/>
      <path d="M 44.578125 46.390625 
Q 43.21875 47.125 41.453125 47.515625 
Q 39.703125 47.90625 37.703125 47.90625 
Q 30.515625 47.90625 25.140625 42.453125 
Q 19.78125 37.015625 18.015625 27.875 
L 12.5 0 
L 3.515625 0 
L 14.203125 54.6875 
L 23.1875 54.6875 
L 21.484375 46.1875 
Q 25.046875 50.921875 30 53.453125 
Q 34.96875 56 40.578125 56 
Q 42.046875 56 43.453125 55.828125 
Q 44.875 55.671875 46.296875 55.28125 
z
" id="DejaVuSans-Oblique-114"/>
      <path d="M 18.3125 75.984375 
L 27.296875 75.984375 
L 25.09375 64.59375 
L 16.109375 64.59375 
z
M 14.203125 54.6875 
L 23.1875 54.6875 
L 12.5 0 
L 3.515625 0 
z
" id="DejaVuSans-Oblique-105"/>
      <path d="M 25.390625 -1.421875 
Q 15.765625 -1.421875 10.171875 4.515625 
Q 4.59375 10.453125 4.59375 20.703125 
Q 4.59375 26.65625 6.515625 32.828125 
Q 8.453125 39.015625 11.53125 43.21875 
Q 16.359375 49.75 22.3125 52.875 
Q 28.265625 56 35.796875 56 
Q 45.125 56 50.859375 50.1875 
Q 56.59375 44.390625 56.59375 35.015625 
Q 56.59375 28.515625 54.6875 22.0625 
Q 52.78125 15.625 49.703125 11.375 
Q 44.921875 4.828125 38.96875 1.703125 
Q 33.015625 -1.421875 25.390625 -1.421875 
z
M 13.921875 21 
Q 13.921875 13.578125 17.015625 9.890625 
Q 20.125 6.203125 26.421875 6.203125 
Q 35.453125 6.203125 41.375 14.078125 
Q 47.3125 21.96875 47.3125 34.078125 
Q 47.3125 41.15625 44.140625 44.765625 
Q 40.96875 48.390625 34.8125 48.390625 
Q 29.734375 48.390625 25.78125 46.015625 
Q 21.828125 43.65625 18.703125 38.8125 
Q 16.40625 35.203125 15.15625 30.5625 
Q 13.921875 25.921875 13.921875 21 
z
" id="DejaVuSans-Oblique-111"/>
      <path d="M 45.40625 46.390625 
L 45.40625 75.984375 
L 54.390625 75.984375 
L 54.390625 0 
L 45.40625 0 
L 45.40625 8.203125 
Q 42.578125 3.328125 38.25 0.953125 
Q 33.9375 -1.421875 27.875 -1.421875 
Q 17.96875 -1.421875 11.734375 6.484375 
Q 5.515625 14.40625 5.515625 27.296875 
Q 5.515625 40.1875 11.734375 48.09375 
Q 17.96875 56 27.875 56 
Q 33.9375 56 38.25 53.625 
Q 42.578125 51.265625 45.40625 46.390625 
z
M 14.796875 27.296875 
Q 14.796875 17.390625 18.875 11.75 
Q 22.953125 6.109375 30.078125 6.109375 
Q 37.203125 6.109375 41.296875 11.75 
Q 45.40625 17.390625 45.40625 27.296875 
Q 45.40625 37.203125 41.296875 42.84375 
Q 37.203125 48.484375 30.078125 48.484375 
Q 22.953125 48.484375 18.875 42.84375 
Q 14.796875 37.203125 14.796875 27.296875 
z
" id="DejaVuSans-100"/>
     </defs>
     <g transform="translate(151.823438 68.274375)scale(0.1 -0.1)">
      <use transform="translate(0 0.015625)" xlink:href="#DejaVuSans-Oblique-65"/>
      <use transform="translate(68.408203 0.015625)" xlink:href="#DejaVuSans-Oblique-112"/>
      <use transform="translate(131.884766 0.015625)" xlink:href="#DejaVuSans-Oblique-114"/>
      <use transform="translate(172.998047 0.015625)" xlink:href="#DejaVuSans-Oblique-105"/>
      <use transform="translate(200.78125 0.015625)" xlink:href="#DejaVuSans-Oblique-111"/>
      <use transform="translate(261.962891 0.015625)" xlink:href="#DejaVuSans-Oblique-114"/>
      <use transform="translate(303.076172 0.015625)" xlink:href="#DejaVuSans-Oblique-105"/>
      <use transform="translate(330.859375 0.015625)" xlink:href="#DejaVuSans-32"/>
      <use transform="translate(362.646484 0.015625)" xlink:href="#DejaVuSans-109"/>
      <use transform="translate(460.058594 0.015625)" xlink:href="#DejaVuSans-111"/>
      <use transform="translate(521.240234 0.015625)" xlink:href="#DejaVuSans-100"/>
      <use transform="translate(584.716797 0.015625)" xlink:href="#DejaVuSans-101"/>
      <use transform="translate(646.240234 0.015625)" xlink:href="#DejaVuSans-108"/>
     </g>
    </g>
    <g id="line2d_31">
     <path d="M 123.823438 79.472813 
L 143.823438 79.472813 
" style="fill:none;stroke:#ffffff;stroke-linecap:square;stroke-width:1.5;"/>
    </g>
    <g id="line2d_32"/>
    <g id="text_20">
     <!-- T:1186 -->
     <defs>
      <path d="M 11.71875 12.40625 
L 22.015625 12.40625 
L 22.015625 0 
L 11.71875 0 
z
M 11.71875 51.703125 
L 22.015625 51.703125 
L 22.015625 39.3125 
L 11.71875 39.3125 
z
" id="DejaVuSans-58"/>
     </defs>
     <g transform="translate(151.823438 82.972813)scale(0.1 -0.1)">
      <use xlink:href="#DejaVuSans-84"/>
      <use x="60.912109" xlink:href="#DejaVuSans-58"/>
      <use x="94.603516" xlink:href="#DejaVuSans-49"/>
      <use x="158.226562" xlink:href="#DejaVuSans-49"/>
      <use x="221.849609" xlink:href="#DejaVuSans-56"/>
      <use x="285.472656" xlink:href="#DejaVuSans-54"/>
     </g>
    </g>
    <g id="line2d_33">
     <path d="M 123.823438 94.150937 
L 143.823438 94.150937 
" style="fill:none;stroke:#ffffff;stroke-linecap:square;stroke-width:1.5;"/>
    </g>
    <g id="line2d_34"/>
    <g id="text_21">
     <!-- P:1.706 -->
     <defs>
      <path d="M 19.671875 64.796875 
L 19.671875 37.40625 
L 32.078125 37.40625 
Q 38.96875 37.40625 42.71875 40.96875 
Q 46.484375 44.53125 46.484375 51.125 
Q 46.484375 57.671875 42.71875 61.234375 
Q 38.96875 64.796875 32.078125 64.796875 
z
M 9.8125 72.90625 
L 32.078125 72.90625 
Q 44.34375 72.90625 50.609375 67.359375 
Q 56.890625 61.8125 56.890625 51.125 
Q 56.890625 40.328125 50.609375 34.8125 
Q 44.34375 29.296875 32.078125 29.296875 
L 19.671875 29.296875 
L 19.671875 0 
L 9.8125 0 
z
" id="DejaVuSans-80"/>
     </defs>
     <g transform="translate(151.823438 97.650937)scale(0.1 -0.1)">
      <use xlink:href="#DejaVuSans-80"/>
      <use x="60.302734" xlink:href="#DejaVuSans-58"/>
      <use x="93.994141" xlink:href="#DejaVuSans-49"/>
      <use x="157.617188" xlink:href="#DejaVuSans-46"/>
      <use x="189.404297" xlink:href="#DejaVuSans-55"/>
      <use x="253.027344" xlink:href="#DejaVuSans-48"/>
      <use x="316.650391" xlink:href="#DejaVuSans-54"/>
     </g>
    </g>
    <g id="line2d_35">
     <path d="M 265.564063 35.416562 
L 285.564063 35.416562 
" style="fill:none;stroke:#ffffff;stroke-linecap:square;stroke-width:1.5;"/>
    </g>
    <g id="line2d_36"/>
    <g id="text_22">
     <!-- H2O2: 0.001606 -->
     <defs>
      <path d="M 9.8125 72.90625 
L 19.671875 72.90625 
L 19.671875 43.015625 
L 55.515625 43.015625 
L 55.515625 72.90625 
L 65.375 72.90625 
L 65.375 0 
L 55.515625 0 
L 55.515625 34.71875 
L 19.671875 34.71875 
L 19.671875 0 
L 9.8125 0 
z
" id="DejaVuSans-72"/>
      <path d="M 39.40625 66.21875 
Q 28.65625 66.21875 22.328125 58.203125 
Q 16.015625 50.203125 16.015625 36.375 
Q 16.015625 22.609375 22.328125 14.59375 
Q 28.65625 6.59375 39.40625 6.59375 
Q 50.140625 6.59375 56.421875 14.59375 
Q 62.703125 22.609375 62.703125 36.375 
Q 62.703125 50.203125 56.421875 58.203125 
Q 50.140625 66.21875 39.40625 66.21875 
z
M 39.40625 74.21875 
Q 54.734375 74.21875 63.90625 63.9375 
Q 73.09375 53.65625 73.09375 36.375 
Q 73.09375 19.140625 63.90625 8.859375 
Q 54.734375 -1.421875 39.40625 -1.421875 
Q 24.03125 -1.421875 14.8125 8.828125 
Q 5.609375 19.09375 5.609375 36.375 
Q 5.609375 53.65625 14.8125 63.9375 
Q 24.03125 74.21875 39.40625 74.21875 
z
" id="DejaVuSans-79"/>
     </defs>
     <g transform="translate(293.564063 38.916562)scale(0.1 -0.1)">
      <use xlink:href="#DejaVuSans-72"/>
      <use x="75.195312" xlink:href="#DejaVuSans-50"/>
      <use x="138.818359" xlink:href="#DejaVuSans-79"/>
      <use x="217.529297" xlink:href="#DejaVuSans-50"/>
      <use x="281.152344" xlink:href="#DejaVuSans-58"/>
      <use x="314.84375" xlink:href="#DejaVuSans-32"/>
      <use x="346.630859" xlink:href="#DejaVuSans-48"/>
      <use x="410.253906" xlink:href="#DejaVuSans-46"/>
      <use x="442.041016" xlink:href="#DejaVuSans-48"/>
      <use x="505.664062" xlink:href="#DejaVuSans-48"/>
      <use x="569.287109" xlink:href="#DejaVuSans-49"/>
      <use x="632.910156" xlink:href="#DejaVuSans-54"/>
      <use x="696.533203" xlink:href="#DejaVuSans-48"/>
      <use x="760.15625" xlink:href="#DejaVuSans-54"/>
     </g>
    </g>
    <g id="line2d_37">
     <path d="M 265.564063 50.094687 
L 285.564063 50.094687 
" style="fill:none;stroke:#ffffff;stroke-linecap:square;stroke-width:1.5;"/>
    </g>
    <g id="line2d_38"/>
    <g id="text_23">
     <!-- H2O: 0.001113 -->
     <defs>
      <path d="M 40.578125 39.3125 
Q 47.65625 37.796875 51.625 33 
Q 55.609375 28.21875 55.609375 21.1875 
Q 55.609375 10.40625 48.1875 4.484375 
Q 40.765625 -1.421875 27.09375 -1.421875 
Q 22.515625 -1.421875 17.65625 -0.515625 
Q 12.796875 0.390625 7.625 2.203125 
L 7.625 11.71875 
Q 11.71875 9.328125 16.59375 8.109375 
Q 21.484375 6.890625 26.8125 6.890625 
Q 36.078125 6.890625 40.9375 10.546875 
Q 45.796875 14.203125 45.796875 21.1875 
Q 45.796875 27.640625 41.28125 31.265625 
Q 36.765625 34.90625 28.71875 34.90625 
L 20.21875 34.90625 
L 20.21875 43.015625 
L 29.109375 43.015625 
Q 36.375 43.015625 40.234375 45.921875 
Q 44.09375 48.828125 44.09375 54.296875 
Q 44.09375 59.90625 40.109375 62.90625 
Q 36.140625 65.921875 28.71875 65.921875 
Q 24.65625 65.921875 20.015625 65.03125 
Q 15.375 64.15625 9.8125 62.3125 
L 9.8125 71.09375 
Q 15.4375 72.65625 20.34375 73.4375 
Q 25.25 74.21875 29.59375 74.21875 
Q 40.828125 74.21875 47.359375 69.109375 
Q 53.90625 64.015625 53.90625 55.328125 
Q 53.90625 49.265625 50.4375 45.09375 
Q 46.96875 40.921875 40.578125 39.3125 
z
" id="DejaVuSans-51"/>
     </defs>
     <g transform="translate(293.564063 53.594687)scale(0.1 -0.1)">
      <use xlink:href="#DejaVuSans-72"/>
      <use x="75.195312" xlink:href="#DejaVuSans-50"/>
      <use x="138.818359" xlink:href="#DejaVuSans-79"/>
      <use x="217.513672" xlink:href="#DejaVuSans-58"/>
      <use x="251.205078" xlink:href="#DejaVuSans-32"/>
      <use x="282.992188" xlink:href="#DejaVuSans-48"/>
      <use x="346.615234" xlink:href="#DejaVuSans-46"/>
      <use x="378.402344" xlink:href="#DejaVuSans-48"/>
      <use x="442.025391" xlink:href="#DejaVuSans-48"/>
      <use x="505.648438" xlink:href="#DejaVuSans-49"/>
      <use x="569.271484" xlink:href="#DejaVuSans-49"/>
      <use x="632.894531" xlink:href="#DejaVuSans-49"/>
      <use x="696.517578" xlink:href="#DejaVuSans-51"/>
     </g>
    </g>
    <g id="line2d_39">
     <path d="M 265.564063 64.772812 
L 285.564063 64.772812 
" style="fill:none;stroke:#ffffff;stroke-linecap:square;stroke-width:1.5;"/>
    </g>
    <g id="line2d_40"/>
    <g id="text_24">
     <!-- O2: 0.000556 -->
     <defs>
      <path d="M 10.796875 72.90625 
L 49.515625 72.90625 
L 49.515625 64.59375 
L 19.828125 64.59375 
L 19.828125 46.734375 
Q 21.96875 47.46875 24.109375 47.828125 
Q 26.265625 48.1875 28.421875 48.1875 
Q 40.625 48.1875 47.75 41.5 
Q 54.890625 34.8125 54.890625 23.390625 
Q 54.890625 11.625 47.5625 5.09375 
Q 40.234375 -1.421875 26.90625 -1.421875 
Q 22.3125 -1.421875 17.546875 -0.640625 
Q 12.796875 0.140625 7.71875 1.703125 
L 7.71875 11.625 
Q 12.109375 9.234375 16.796875 8.0625 
Q 21.484375 6.890625 26.703125 6.890625 
Q 35.15625 6.890625 40.078125 11.328125 
Q 45.015625 15.765625 45.015625 23.390625 
Q 45.015625 31 40.078125 35.4375 
Q 35.15625 39.890625 26.703125 39.890625 
Q 22.75 39.890625 18.8125 39.015625 
Q 14.890625 38.140625 10.796875 36.28125 
z
" id="DejaVuSans-53"/>
     </defs>
     <g transform="translate(293.564063 68.272812)scale(0.1 -0.1)">
      <use xlink:href="#DejaVuSans-79"/>
      <use x="78.710938" xlink:href="#DejaVuSans-50"/>
      <use x="142.333984" xlink:href="#DejaVuSans-58"/>
      <use x="176.025391" xlink:href="#DejaVuSans-32"/>
      <use x="207.8125" xlink:href="#DejaVuSans-48"/>
      <use x="271.435547" xlink:href="#DejaVuSans-46"/>
      <use x="303.222656" xlink:href="#DejaVuSans-48"/>
      <use x="366.845703" xlink:href="#DejaVuSans-48"/>
      <use x="430.46875" xlink:href="#DejaVuSans-48"/>
      <use x="494.091797" xlink:href="#DejaVuSans-53"/>
      <use x="557.714844" xlink:href="#DejaVuSans-53"/>
      <use x="621.337891" xlink:href="#DejaVuSans-54"/>
     </g>
    </g>
    <g id="line2d_41">
     <path d="M 265.564063 79.450938 
L 285.564063 79.450938 
" style="fill:none;stroke:#ffffff;stroke-linecap:square;stroke-width:1.5;"/>
    </g>
    <g id="line2d_42"/>
    <g id="text_25">
     <!-- Ar: 0.9967 -->
     <defs>
      <path d="M 10.984375 1.515625 
L 10.984375 10.5 
Q 14.703125 8.734375 18.5 7.8125 
Q 22.3125 6.890625 25.984375 6.890625 
Q 35.75 6.890625 40.890625 13.453125 
Q 46.046875 20.015625 46.78125 33.40625 
Q 43.953125 29.203125 39.59375 26.953125 
Q 35.25 24.703125 29.984375 24.703125 
Q 19.046875 24.703125 12.671875 31.3125 
Q 6.296875 37.9375 6.296875 49.421875 
Q 6.296875 60.640625 12.9375 67.421875 
Q 19.578125 74.21875 30.609375 74.21875 
Q 43.265625 74.21875 49.921875 64.515625 
Q 56.59375 54.828125 56.59375 36.375 
Q 56.59375 19.140625 48.40625 8.859375 
Q 40.234375 -1.421875 26.421875 -1.421875 
Q 22.703125 -1.421875 18.890625 -0.6875 
Q 15.09375 0.046875 10.984375 1.515625 
z
M 30.609375 32.421875 
Q 37.25 32.421875 41.125 36.953125 
Q 45.015625 41.5 45.015625 49.421875 
Q 45.015625 57.28125 41.125 61.84375 
Q 37.25 66.40625 30.609375 66.40625 
Q 23.96875 66.40625 20.09375 61.84375 
Q 16.21875 57.28125 16.21875 49.421875 
Q 16.21875 41.5 20.09375 36.953125 
Q 23.96875 32.421875 30.609375 32.421875 
z
" id="DejaVuSans-57"/>
     </defs>
     <g transform="translate(293.564063 82.950938)scale(0.1 -0.1)">
      <use xlink:href="#DejaVuSans-65"/>
      <use x="68.408203" xlink:href="#DejaVuSans-114"/>
      <use x="109.505859" xlink:href="#DejaVuSans-58"/>
      <use x="143.197266" xlink:href="#DejaVuSans-32"/>
      <use x="174.984375" xlink:href="#DejaVuSans-48"/>
      <use x="238.607422" xlink:href="#DejaVuSans-46"/>
      <use x="270.394531" xlink:href="#DejaVuSans-57"/>
      <use x="334.017578" xlink:href="#DejaVuSans-57"/>
      <use x="397.640625" xlink:href="#DejaVuSans-54"/>
      <use x="461.263672" xlink:href="#DejaVuSans-55"/>
     </g>
    </g>
   </g>
  </g>
 </g>
 <defs>
  <clipPath id="pfbb4de9e54">
   <rect height="217.44" width="334.8" x="50.14375" y="22.318125"/>
  </clipPath>
 </defs>
</svg>
