<?xml version="1.0" encoding="utf-8" standalone="no"?>
<!DOCTYPE svg PUBLIC "-//W3C//DTD SVG 1.1//EN"
  "http://www.w3.org/Graphics/SVG/1.1/DTD/svg11.dtd">
<!-- Created with matplotlib (https://matplotlib.org/) -->
<svg height="277.314375pt" version="1.1" viewBox="0 0 402.00625 277.314375" width="402.00625pt" xmlns="http://www.w3.org/2000/svg" xmlns:xlink="http://www.w3.org/1999/xlink">
 <defs>
  <style type="text/css">
*{stroke-linecap:butt;stroke-linejoin:round;}
  </style>
 </defs>
 <g id="figure_1">
  <g id="patch_1">
   <path d="M 0 277.314375 
L 402.00625 277.314375 
L 402.00625 0 
L 0 0 
z
" style="fill:none;"/>
  </g>
  <g id="axes_1">
   <g id="patch_2">
    <path d="M 56.50625 239.758125 
L 391.30625 239.758125 
L 391.30625 22.318125 
L 56.50625 22.318125 
z
" style="fill:none;"/>
   </g>
   <g id="matplotlib.axis_1">
    <g id="xtick_1">
     <g id="line2d_1">
      <defs>
       <path d="M 0 0 
L 0 3.5 
" id="m460d65f097" style="stroke:#000000;stroke-width:0.8;"/>
      </defs>
      <g>
       <use style="stroke:#000000;stroke-width:0.8;" x="71.724432" xlink:href="#m460d65f097" y="239.758125"/>
      </g>
     </g>
     <g id="text_1">
      <!-- 0.0 -->
      <defs>
       <path d="M 31.78125 66.40625 
Q 24.171875 66.40625 20.328125 58.90625 
Q 16.5 51.421875 16.5 36.375 
Q 16.5 21.390625 20.328125 13.890625 
Q 24.171875 6.390625 31.78125 6.390625 
Q 39.453125 6.390625 43.28125 13.890625 
Q 47.125 21.390625 47.125 36.375 
Q 47.125 51.421875 43.28125 58.90625 
Q 39.453125 66.40625 31.78125 66.40625 
z
M 31.78125 74.21875 
Q 44.046875 74.21875 50.515625 64.515625 
Q 56.984375 54.828125 56.984375 36.375 
Q 56.984375 17.96875 50.515625 8.265625 
Q 44.046875 -1.421875 31.78125 -1.421875 
Q 19.53125 -1.421875 13.0625 8.265625 
Q 6.59375 17.96875 6.59375 36.375 
Q 6.59375 54.828125 13.0625 64.515625 
Q 19.53125 74.21875 31.78125 74.21875 
z
" id="DejaVuSans-48"/>
       <path d="M 10.6875 12.40625 
L 21 12.40625 
L 21 0 
L 10.6875 0 
z
" id="DejaVuSans-46"/>
      </defs>
      <g transform="translate(63.772869 254.356562)scale(0.1 -0.1)">
       <use xlink:href="#DejaVuSans-48"/>
       <use x="63.623047" xlink:href="#DejaVuSans-46"/>
       <use x="95.410156" xlink:href="#DejaVuSans-48"/>
      </g>
     </g>
    </g>
    <g id="xtick_2">
     <g id="line2d_2">
      <g>
       <use style="stroke:#000000;stroke-width:0.8;" x="132.130748" xlink:href="#m460d65f097" y="239.758125"/>
      </g>
     </g>
     <g id="text_2">
      <!-- 0.2 -->
      <defs>
       <path d="M 19.1875 8.296875 
L 53.609375 8.296875 
L 53.609375 0 
L 7.328125 0 
L 7.328125 8.296875 
Q 12.9375 14.109375 22.625 23.890625 
Q 32.328125 33.6875 34.8125 36.53125 
Q 39.546875 41.84375 41.421875 45.53125 
Q 43.3125 49.21875 43.3125 52.78125 
Q 43.3125 58.59375 39.234375 62.25 
Q 35.15625 65.921875 28.609375 65.921875 
Q 23.96875 65.921875 18.8125 64.3125 
Q 13.671875 62.703125 7.8125 59.421875 
L 7.8125 69.390625 
Q 13.765625 71.78125 18.9375 73 
Q 24.125 74.21875 28.421875 74.21875 
Q 39.75 74.21875 46.484375 68.546875 
Q 53.21875 62.890625 53.21875 53.421875 
Q 53.21875 48.921875 51.53125 44.890625 
Q 49.859375 40.875 45.40625 35.40625 
Q 44.1875 33.984375 37.640625 27.21875 
Q 31.109375 20.453125 19.1875 8.296875 
z
" id="DejaVuSans-50"/>
      </defs>
      <g transform="translate(124.179185 254.356562)scale(0.1 -0.1)">
       <use xlink:href="#DejaVuSans-48"/>
       <use x="63.623047" xlink:href="#DejaVuSans-46"/>
       <use x="95.410156" xlink:href="#DejaVuSans-50"/>
      </g>
     </g>
    </g>
    <g id="xtick_3">
     <g id="line2d_3">
      <g>
       <use style="stroke:#000000;stroke-width:0.8;" x="192.537063" xlink:href="#m460d65f097" y="239.758125"/>
      </g>
     </g>
     <g id="text_3">
      <!-- 0.4 -->
      <defs>
       <path d="M 37.796875 64.3125 
L 12.890625 25.390625 
L 37.796875 25.390625 
z
M 35.203125 72.90625 
L 47.609375 72.90625 
L 47.609375 25.390625 
L 58.015625 25.390625 
L 58.015625 17.1875 
L 47.609375 17.1875 
L 47.609375 0 
L 37.796875 0 
L 37.796875 17.1875 
L 4.890625 17.1875 
L 4.890625 26.703125 
z
" id="DejaVuSans-52"/>
      </defs>
      <g transform="translate(184.585501 254.356562)scale(0.1 -0.1)">
       <use xlink:href="#DejaVuSans-48"/>
       <use x="63.623047" xlink:href="#DejaVuSans-46"/>
       <use x="95.410156" xlink:href="#DejaVuSans-52"/>
      </g>
     </g>
    </g>
    <g id="xtick_4">
     <g id="line2d_4">
      <g>
       <use style="stroke:#000000;stroke-width:0.8;" x="252.943379" xlink:href="#m460d65f097" y="239.758125"/>
      </g>
     </g>
     <g id="text_4">
      <!-- 0.6 -->
      <defs>
       <path d="M 33.015625 40.375 
Q 26.375 40.375 22.484375 35.828125 
Q 18.609375 31.296875 18.609375 23.390625 
Q 18.609375 15.53125 22.484375 10.953125 
Q 26.375 6.390625 33.015625 6.390625 
Q 39.65625 6.390625 43.53125 10.953125 
Q 47.40625 15.53125 47.40625 23.390625 
Q 47.40625 31.296875 43.53125 35.828125 
Q 39.65625 40.375 33.015625 40.375 
z
M 52.59375 71.296875 
L 52.59375 62.3125 
Q 48.875 64.0625 45.09375 64.984375 
Q 41.3125 65.921875 37.59375 65.921875 
Q 27.828125 65.921875 22.671875 59.328125 
Q 17.53125 52.734375 16.796875 39.40625 
Q 19.671875 43.65625 24.015625 45.921875 
Q 28.375 48.1875 33.59375 48.1875 
Q 44.578125 48.1875 50.953125 41.515625 
Q 57.328125 34.859375 57.328125 23.390625 
Q 57.328125 12.15625 50.6875 5.359375 
Q 44.046875 -1.421875 33.015625 -1.421875 
Q 20.359375 -1.421875 13.671875 8.265625 
Q 6.984375 17.96875 6.984375 36.375 
Q 6.984375 53.65625 15.1875 63.9375 
Q 23.390625 74.21875 37.203125 74.21875 
Q 40.921875 74.21875 44.703125 73.484375 
Q 48.484375 72.75 52.59375 71.296875 
z
" id="DejaVuSans-54"/>
      </defs>
      <g transform="translate(244.991817 254.356562)scale(0.1 -0.1)">
       <use xlink:href="#DejaVuSans-48"/>
       <use x="63.623047" xlink:href="#DejaVuSans-46"/>
       <use x="95.410156" xlink:href="#DejaVuSans-54"/>
      </g>
     </g>
    </g>
    <g id="xtick_5">
     <g id="line2d_5">
      <g>
       <use style="stroke:#000000;stroke-width:0.8;" x="313.349695" xlink:href="#m460d65f097" y="239.758125"/>
      </g>
     </g>
     <g id="text_5">
      <!-- 0.8 -->
      <defs>
       <path d="M 31.78125 34.625 
Q 24.75 34.625 20.71875 30.859375 
Q 16.703125 27.09375 16.703125 20.515625 
Q 16.703125 13.921875 20.71875 10.15625 
Q 24.75 6.390625 31.78125 6.390625 
Q 38.8125 6.390625 42.859375 10.171875 
Q 46.921875 13.96875 46.921875 20.515625 
Q 46.921875 27.09375 42.890625 30.859375 
Q 38.875 34.625 31.78125 34.625 
z
M 21.921875 38.8125 
Q 15.578125 40.375 12.03125 44.71875 
Q 8.5 49.078125 8.5 55.328125 
Q 8.5 64.0625 14.71875 69.140625 
Q 20.953125 74.21875 31.78125 74.21875 
Q 42.671875 74.21875 48.875 69.140625 
Q 55.078125 64.0625 55.078125 55.328125 
Q 55.078125 49.078125 51.53125 44.71875 
Q 48 40.375 41.703125 38.8125 
Q 48.828125 37.15625 52.796875 32.3125 
Q 56.78125 27.484375 56.78125 20.515625 
Q 56.78125 9.90625 50.3125 4.234375 
Q 43.84375 -1.421875 31.78125 -1.421875 
Q 19.734375 -1.421875 13.25 4.234375 
Q 6.78125 9.90625 6.78125 20.515625 
Q 6.78125 27.484375 10.78125 32.3125 
Q 14.796875 37.15625 21.921875 38.8125 
z
M 18.3125 54.390625 
Q 18.3125 48.734375 21.84375 45.5625 
Q 25.390625 42.390625 31.78125 42.390625 
Q 38.140625 42.390625 41.71875 45.5625 
Q 45.3125 48.734375 45.3125 54.390625 
Q 45.3125 60.0625 41.71875 63.234375 
Q 38.140625 66.40625 31.78125 66.40625 
Q 25.390625 66.40625 21.84375 63.234375 
Q 18.3125 60.0625 18.3125 54.390625 
z
" id="DejaVuSans-56"/>
      </defs>
      <g transform="translate(305.398132 254.356562)scale(0.1 -0.1)">
       <use xlink:href="#DejaVuSans-48"/>
       <use x="63.623047" xlink:href="#DejaVuSans-46"/>
       <use x="95.410156" xlink:href="#DejaVuSans-56"/>
      </g>
     </g>
    </g>
    <g id="xtick_6">
     <g id="line2d_6">
      <g>
       <use style="stroke:#000000;stroke-width:0.8;" x="373.756011" xlink:href="#m460d65f097" y="239.758125"/>
      </g>
     </g>
     <g id="text_6">
      <!-- 1.0 -->
      <defs>
       <path d="M 12.40625 8.296875 
L 28.515625 8.296875 
L 28.515625 63.921875 
L 10.984375 60.40625 
L 10.984375 69.390625 
L 28.421875 72.90625 
L 38.28125 72.90625 
L 38.28125 8.296875 
L 54.390625 8.296875 
L 54.390625 0 
L 12.40625 0 
z
" id="DejaVuSans-49"/>
      </defs>
      <g transform="translate(365.804448 254.356562)scale(0.1 -0.1)">
       <use xlink:href="#DejaVuSans-49"/>
       <use x="63.623047" xlink:href="#DejaVuSans-46"/>
       <use x="95.410156" xlink:href="#DejaVuSans-48"/>
      </g>
     </g>
    </g>
    <g id="text_7">
     <!-- Time (ms) -->
     <defs>
      <path d="M -0.296875 72.90625 
L 61.375 72.90625 
L 61.375 64.59375 
L 35.5 64.59375 
L 35.5 0 
L 25.59375 0 
L 25.59375 64.59375 
L -0.296875 64.59375 
z
" id="DejaVuSans-84"/>
      <path d="M 9.421875 54.6875 
L 18.40625 54.6875 
L 18.40625 0 
L 9.421875 0 
z
M 9.421875 75.984375 
L 18.40625 75.984375 
L 18.40625 64.59375 
L 9.421875 64.59375 
z
" id="DejaVuSans-105"/>
      <path d="M 52 44.1875 
Q 55.375 50.25 60.0625 53.125 
Q 64.75 56 71.09375 56 
Q 79.640625 56 84.28125 50.015625 
Q 88.921875 44.046875 88.921875 33.015625 
L 88.921875 0 
L 79.890625 0 
L 79.890625 32.71875 
Q 79.890625 40.578125 77.09375 44.375 
Q 74.3125 48.1875 68.609375 48.1875 
Q 61.625 48.1875 57.5625 43.546875 
Q 53.515625 38.921875 53.515625 30.90625 
L 53.515625 0 
L 44.484375 0 
L 44.484375 32.71875 
Q 44.484375 40.625 41.703125 44.40625 
Q 38.921875 48.1875 33.109375 48.1875 
Q 26.21875 48.1875 22.15625 43.53125 
Q 18.109375 38.875 18.109375 30.90625 
L 18.109375 0 
L 9.078125 0 
L 9.078125 54.6875 
L 18.109375 54.6875 
L 18.109375 46.1875 
Q 21.1875 51.21875 25.484375 53.609375 
Q 29.78125 56 35.6875 56 
Q 41.65625 56 45.828125 52.96875 
Q 50 49.953125 52 44.1875 
z
" id="DejaVuSans-109"/>
      <path d="M 56.203125 29.59375 
L 56.203125 25.203125 
L 14.890625 25.203125 
Q 15.484375 15.921875 20.484375 11.0625 
Q 25.484375 6.203125 34.421875 6.203125 
Q 39.59375 6.203125 44.453125 7.46875 
Q 49.3125 8.734375 54.109375 11.28125 
L 54.109375 2.78125 
Q 49.265625 0.734375 44.1875 -0.34375 
Q 39.109375 -1.421875 33.890625 -1.421875 
Q 20.796875 -1.421875 13.15625 6.1875 
Q 5.515625 13.8125 5.515625 26.8125 
Q 5.515625 40.234375 12.765625 48.109375 
Q 20.015625 56 32.328125 56 
Q 43.359375 56 49.78125 48.890625 
Q 56.203125 41.796875 56.203125 29.59375 
z
M 47.21875 32.234375 
Q 47.125 39.59375 43.09375 43.984375 
Q 39.0625 48.390625 32.421875 48.390625 
Q 24.90625 48.390625 20.390625 44.140625 
Q 15.875 39.890625 15.1875 32.171875 
z
" id="DejaVuSans-101"/>
      <path id="DejaVuSans-32"/>
      <path d="M 31 75.875 
Q 24.46875 64.65625 21.28125 53.65625 
Q 18.109375 42.671875 18.109375 31.390625 
Q 18.109375 20.125 21.3125 9.0625 
Q 24.515625 -2 31 -13.1875 
L 23.1875 -13.1875 
Q 15.875 -1.703125 12.234375 9.375 
Q 8.59375 20.453125 8.59375 31.390625 
Q 8.59375 42.28125 12.203125 53.3125 
Q 15.828125 64.359375 23.1875 75.875 
z
" id="DejaVuSans-40"/>
      <path d="M 44.28125 53.078125 
L 44.28125 44.578125 
Q 40.484375 46.53125 36.375 47.5 
Q 32.28125 48.484375 27.875 48.484375 
Q 21.1875 48.484375 17.84375 46.4375 
Q 14.5 44.390625 14.5 40.28125 
Q 14.5 37.15625 16.890625 35.375 
Q 19.28125 33.59375 26.515625 31.984375 
L 29.59375 31.296875 
Q 39.15625 29.25 43.1875 25.515625 
Q 47.21875 21.78125 47.21875 15.09375 
Q 47.21875 7.46875 41.1875 3.015625 
Q 35.15625 -1.421875 24.609375 -1.421875 
Q 20.21875 -1.421875 15.453125 -0.5625 
Q 10.6875 0.296875 5.421875 2 
L 5.421875 11.28125 
Q 10.40625 8.6875 15.234375 7.390625 
Q 20.0625 6.109375 24.8125 6.109375 
Q 31.15625 6.109375 34.5625 8.28125 
Q 37.984375 10.453125 37.984375 14.40625 
Q 37.984375 18.0625 35.515625 20.015625 
Q 33.0625 21.96875 24.703125 23.78125 
L 21.578125 24.515625 
Q 13.234375 26.265625 9.515625 29.90625 
Q 5.8125 33.546875 5.8125 39.890625 
Q 5.8125 47.609375 11.28125 51.796875 
Q 16.75 56 26.8125 56 
Q 31.78125 56 36.171875 55.265625 
Q 40.578125 54.546875 44.28125 53.078125 
z
" id="DejaVuSans-115"/>
      <path d="M 8.015625 75.875 
L 15.828125 75.875 
Q 23.140625 64.359375 26.78125 53.3125 
Q 30.421875 42.28125 30.421875 31.390625 
Q 30.421875 20.453125 26.78125 9.375 
Q 23.140625 -1.703125 15.828125 -13.1875 
L 8.015625 -13.1875 
Q 14.5 -2 17.703125 9.0625 
Q 20.90625 20.125 20.90625 31.390625 
Q 20.90625 42.671875 17.703125 53.65625 
Q 14.5 64.65625 8.015625 75.875 
z
" id="DejaVuSans-41"/>
     </defs>
     <g transform="translate(198.553125 268.034687)scale(0.1 -0.1)">
      <use xlink:href="#DejaVuSans-84"/>
      <use x="61.037109" xlink:href="#DejaVuSans-105"/>
      <use x="88.820312" xlink:href="#DejaVuSans-109"/>
      <use x="186.232422" xlink:href="#DejaVuSans-101"/>
      <use x="247.755859" xlink:href="#DejaVuSans-32"/>
      <use x="279.542969" xlink:href="#DejaVuSans-40"/>
      <use x="318.556641" xlink:href="#DejaVuSans-109"/>
      <use x="415.96875" xlink:href="#DejaVuSans-115"/>
      <use x="468.068359" xlink:href="#DejaVuSans-41"/>
     </g>
    </g>
   </g>
   <g id="matplotlib.axis_2">
    <g id="ytick_1">
     <g id="line2d_7">
      <defs>
       <path d="M 0 0 
L -3.5 0 
" id="mf7fb5b8b9e" style="stroke:#000000;stroke-width:0.8;"/>
      </defs>
      <g>
       <use style="stroke:#000000;stroke-width:0.8;" x="56.50625" xlink:href="#mf7fb5b8b9e" y="230.405208"/>
      </g>
     </g>
     <g id="text_8">
      <!-- 0.000 -->
      <g transform="translate(20.878125 234.204427)scale(0.1 -0.1)">
       <use xlink:href="#DejaVuSans-48"/>
       <use x="63.623047" xlink:href="#DejaVuSans-46"/>
       <use x="95.410156" xlink:href="#DejaVuSans-48"/>
       <use x="159.033203" xlink:href="#DejaVuSans-48"/>
       <use x="222.65625" xlink:href="#DejaVuSans-48"/>
      </g>
     </g>
    </g>
    <g id="ytick_2">
     <g id="line2d_8">
      <g>
       <use style="stroke:#000000;stroke-width:0.8;" x="56.50625" xlink:href="#mf7fb5b8b9e" y="202.748007"/>
      </g>
     </g>
     <g id="text_9">
      <!-- 0.025 -->
      <defs>
       <path d="M 10.796875 72.90625 
L 49.515625 72.90625 
L 49.515625 64.59375 
L 19.828125 64.59375 
L 19.828125 46.734375 
Q 21.96875 47.46875 24.109375 47.828125 
Q 26.265625 48.1875 28.421875 48.1875 
Q 40.625 48.1875 47.75 41.5 
Q 54.890625 34.8125 54.890625 23.390625 
Q 54.890625 11.625 47.5625 5.09375 
Q 40.234375 -1.421875 26.90625 -1.421875 
Q 22.3125 -1.421875 17.546875 -0.640625 
Q 12.796875 0.140625 7.71875 1.703125 
L 7.71875 11.625 
Q 12.109375 9.234375 16.796875 8.0625 
Q 21.484375 6.890625 26.703125 6.890625 
Q 35.15625 6.890625 40.078125 11.328125 
Q 45.015625 15.765625 45.015625 23.390625 
Q 45.015625 31 40.078125 35.4375 
Q 35.15625 39.890625 26.703125 39.890625 
Q 22.75 39.890625 18.8125 39.015625 
Q 14.890625 38.140625 10.796875 36.28125 
z
" id="DejaVuSans-53"/>
      </defs>
      <g transform="translate(20.878125 206.547226)scale(0.1 -0.1)">
       <use xlink:href="#DejaVuSans-48"/>
       <use x="63.623047" xlink:href="#DejaVuSans-46"/>
       <use x="95.410156" xlink:href="#DejaVuSans-48"/>
       <use x="159.033203" xlink:href="#DejaVuSans-50"/>
       <use x="222.65625" xlink:href="#DejaVuSans-53"/>
      </g>
     </g>
    </g>
    <g id="ytick_3">
     <g id="line2d_9">
      <g>
       <use style="stroke:#000000;stroke-width:0.8;" x="56.50625" xlink:href="#mf7fb5b8b9e" y="175.090806"/>
      </g>
     </g>
     <g id="text_10">
      <!-- 0.050 -->
      <g transform="translate(20.878125 178.890025)scale(0.1 -0.1)">
       <use xlink:href="#DejaVuSans-48"/>
       <use x="63.623047" xlink:href="#DejaVuSans-46"/>
       <use x="95.410156" xlink:href="#DejaVuSans-48"/>
       <use x="159.033203" xlink:href="#DejaVuSans-53"/>
       <use x="222.65625" xlink:href="#DejaVuSans-48"/>
      </g>
     </g>
    </g>
    <g id="ytick_4">
     <g id="line2d_10">
      <g>
       <use style="stroke:#000000;stroke-width:0.8;" x="56.50625" xlink:href="#mf7fb5b8b9e" y="147.433605"/>
      </g>
     </g>
     <g id="text_11">
      <!-- 0.075 -->
      <defs>
       <path d="M 8.203125 72.90625 
L 55.078125 72.90625 
L 55.078125 68.703125 
L 28.609375 0 
L 18.3125 0 
L 43.21875 64.59375 
L 8.203125 64.59375 
z
" id="DejaVuSans-55"/>
      </defs>
      <g transform="translate(20.878125 151.232824)scale(0.1 -0.1)">
       <use xlink:href="#DejaVuSans-48"/>
       <use x="63.623047" xlink:href="#DejaVuSans-46"/>
       <use x="95.410156" xlink:href="#DejaVuSans-48"/>
       <use x="159.033203" xlink:href="#DejaVuSans-55"/>
       <use x="222.65625" xlink:href="#DejaVuSans-53"/>
      </g>
     </g>
    </g>
    <g id="ytick_5">
     <g id="line2d_11">
      <g>
       <use style="stroke:#000000;stroke-width:0.8;" x="56.50625" xlink:href="#mf7fb5b8b9e" y="119.776404"/>
      </g>
     </g>
     <g id="text_12">
      <!-- 0.100 -->
      <g transform="translate(20.878125 123.575623)scale(0.1 -0.1)">
       <use xlink:href="#DejaVuSans-48"/>
       <use x="63.623047" xlink:href="#DejaVuSans-46"/>
       <use x="95.410156" xlink:href="#DejaVuSans-49"/>
       <use x="159.033203" xlink:href="#DejaVuSans-48"/>
       <use x="222.65625" xlink:href="#DejaVuSans-48"/>
      </g>
     </g>
    </g>
    <g id="ytick_6">
     <g id="line2d_12">
      <g>
       <use style="stroke:#000000;stroke-width:0.8;" x="56.50625" xlink:href="#mf7fb5b8b9e" y="92.119203"/>
      </g>
     </g>
     <g id="text_13">
      <!-- 0.125 -->
      <g transform="translate(20.878125 95.918422)scale(0.1 -0.1)">
       <use xlink:href="#DejaVuSans-48"/>
       <use x="63.623047" xlink:href="#DejaVuSans-46"/>
       <use x="95.410156" xlink:href="#DejaVuSans-49"/>
       <use x="159.033203" xlink:href="#DejaVuSans-50"/>
       <use x="222.65625" xlink:href="#DejaVuSans-53"/>
      </g>
     </g>
    </g>
    <g id="ytick_7">
     <g id="line2d_13">
      <g>
       <use style="stroke:#000000;stroke-width:0.8;" x="56.50625" xlink:href="#mf7fb5b8b9e" y="64.462002"/>
      </g>
     </g>
     <g id="text_14">
      <!-- 0.150 -->
      <g transform="translate(20.878125 68.261221)scale(0.1 -0.1)">
       <use xlink:href="#DejaVuSans-48"/>
       <use x="63.623047" xlink:href="#DejaVuSans-46"/>
       <use x="95.410156" xlink:href="#DejaVuSans-49"/>
       <use x="159.033203" xlink:href="#DejaVuSans-53"/>
       <use x="222.65625" xlink:href="#DejaVuSans-48"/>
      </g>
     </g>
    </g>
    <g id="ytick_8">
     <g id="line2d_14">
      <g>
       <use style="stroke:#000000;stroke-width:0.8;" x="56.50625" xlink:href="#mf7fb5b8b9e" y="36.804801"/>
      </g>
     </g>
     <g id="text_15">
      <!-- 0.175 -->
      <g transform="translate(20.878125 40.60402)scale(0.1 -0.1)">
       <use xlink:href="#DejaVuSans-48"/>
       <use x="63.623047" xlink:href="#DejaVuSans-46"/>
       <use x="95.410156" xlink:href="#DejaVuSans-49"/>
       <use x="159.033203" xlink:href="#DejaVuSans-55"/>
       <use x="222.65625" xlink:href="#DejaVuSans-53"/>
      </g>
     </g>
    </g>
    <g id="text_16">
     <!-- Absorbance227 -->
     <defs>
      <path d="M 34.1875 63.1875 
L 20.796875 26.90625 
L 47.609375 26.90625 
z
M 28.609375 72.90625 
L 39.796875 72.90625 
L 67.578125 0 
L 57.328125 0 
L 50.6875 18.703125 
L 17.828125 18.703125 
L 11.1875 0 
L 0.78125 0 
z
" id="DejaVuSans-65"/>
      <path d="M 48.6875 27.296875 
Q 48.6875 37.203125 44.609375 42.84375 
Q 40.53125 48.484375 33.40625 48.484375 
Q 26.265625 48.484375 22.1875 42.84375 
Q 18.109375 37.203125 18.109375 27.296875 
Q 18.109375 17.390625 22.1875 11.75 
Q 26.265625 6.109375 33.40625 6.109375 
Q 40.53125 6.109375 44.609375 11.75 
Q 48.6875 17.390625 48.6875 27.296875 
z
M 18.109375 46.390625 
Q 20.953125 51.265625 25.265625 53.625 
Q 29.59375 56 35.59375 56 
Q 45.5625 56 51.78125 48.09375 
Q 58.015625 40.1875 58.015625 27.296875 
Q 58.015625 14.40625 51.78125 6.484375 
Q 45.5625 -1.421875 35.59375 -1.421875 
Q 29.59375 -1.421875 25.265625 0.953125 
Q 20.953125 3.328125 18.109375 8.203125 
L 18.109375 0 
L 9.078125 0 
L 9.078125 75.984375 
L 18.109375 75.984375 
z
" id="DejaVuSans-98"/>
      <path d="M 30.609375 48.390625 
Q 23.390625 48.390625 19.1875 42.75 
Q 14.984375 37.109375 14.984375 27.296875 
Q 14.984375 17.484375 19.15625 11.84375 
Q 23.34375 6.203125 30.609375 6.203125 
Q 37.796875 6.203125 41.984375 11.859375 
Q 46.1875 17.53125 46.1875 27.296875 
Q 46.1875 37.015625 41.984375 42.703125 
Q 37.796875 48.390625 30.609375 48.390625 
z
M 30.609375 56 
Q 42.328125 56 49.015625 48.375 
Q 55.71875 40.765625 55.71875 27.296875 
Q 55.71875 13.875 49.015625 6.21875 
Q 42.328125 -1.421875 30.609375 -1.421875 
Q 18.84375 -1.421875 12.171875 6.21875 
Q 5.515625 13.875 5.515625 27.296875 
Q 5.515625 40.765625 12.171875 48.375 
Q 18.84375 56 30.609375 56 
z
" id="DejaVuSans-111"/>
      <path d="M 41.109375 46.296875 
Q 39.59375 47.171875 37.8125 47.578125 
Q 36.03125 48 33.890625 48 
Q 26.265625 48 22.1875 43.046875 
Q 18.109375 38.09375 18.109375 28.8125 
L 18.109375 0 
L 9.078125 0 
L 9.078125 54.6875 
L 18.109375 54.6875 
L 18.109375 46.1875 
Q 20.953125 51.171875 25.484375 53.578125 
Q 30.03125 56 36.53125 56 
Q 37.453125 56 38.578125 55.875 
Q 39.703125 55.765625 41.0625 55.515625 
z
" id="DejaVuSans-114"/>
      <path d="M 34.28125 27.484375 
Q 23.390625 27.484375 19.1875 25 
Q 14.984375 22.515625 14.984375 16.5 
Q 14.984375 11.71875 18.140625 8.90625 
Q 21.296875 6.109375 26.703125 6.109375 
Q 34.1875 6.109375 38.703125 11.40625 
Q 43.21875 16.703125 43.21875 25.484375 
L 43.21875 27.484375 
z
M 52.203125 31.203125 
L 52.203125 0 
L 43.21875 0 
L 43.21875 8.296875 
Q 40.140625 3.328125 35.546875 0.953125 
Q 30.953125 -1.421875 24.3125 -1.421875 
Q 15.921875 -1.421875 10.953125 3.296875 
Q 6 8.015625 6 15.921875 
Q 6 25.140625 12.171875 29.828125 
Q 18.359375 34.515625 30.609375 34.515625 
L 43.21875 34.515625 
L 43.21875 35.40625 
Q 43.21875 41.609375 39.140625 45 
Q 35.0625 48.390625 27.6875 48.390625 
Q 23 48.390625 18.546875 47.265625 
Q 14.109375 46.140625 10.015625 43.890625 
L 10.015625 52.203125 
Q 14.9375 54.109375 19.578125 55.046875 
Q 24.21875 56 28.609375 56 
Q 40.484375 56 46.34375 49.84375 
Q 52.203125 43.703125 52.203125 31.203125 
z
" id="DejaVuSans-97"/>
      <path d="M 54.890625 33.015625 
L 54.890625 0 
L 45.90625 0 
L 45.90625 32.71875 
Q 45.90625 40.484375 42.875 44.328125 
Q 39.84375 48.1875 33.796875 48.1875 
Q 26.515625 48.1875 22.3125 43.546875 
Q 18.109375 38.921875 18.109375 30.90625 
L 18.109375 0 
L 9.078125 0 
L 9.078125 54.6875 
L 18.109375 54.6875 
L 18.109375 46.1875 
Q 21.34375 51.125 25.703125 53.5625 
Q 30.078125 56 35.796875 56 
Q 45.21875 56 50.046875 50.171875 
Q 54.890625 44.34375 54.890625 33.015625 
z
" id="DejaVuSans-110"/>
      <path d="M 48.78125 52.59375 
L 48.78125 44.1875 
Q 44.96875 46.296875 41.140625 47.34375 
Q 37.3125 48.390625 33.40625 48.390625 
Q 24.65625 48.390625 19.8125 42.84375 
Q 14.984375 37.3125 14.984375 27.296875 
Q 14.984375 17.28125 19.8125 11.734375 
Q 24.65625 6.203125 33.40625 6.203125 
Q 37.3125 6.203125 41.140625 7.25 
Q 44.96875 8.296875 48.78125 10.40625 
L 48.78125 2.09375 
Q 45.015625 0.34375 40.984375 -0.53125 
Q 36.96875 -1.421875 32.421875 -1.421875 
Q 20.0625 -1.421875 12.78125 6.34375 
Q 5.515625 14.109375 5.515625 27.296875 
Q 5.515625 40.671875 12.859375 48.328125 
Q 20.21875 56 33.015625 56 
Q 37.15625 56 41.109375 55.140625 
Q 45.0625 54.296875 48.78125 52.59375 
z
" id="DejaVuSans-99"/>
     </defs>
     <g transform="translate(14.798437 170.12875)rotate(-90)scale(0.1 -0.1)">
      <use xlink:href="#DejaVuSans-65"/>
      <use x="68.408203" xlink:href="#DejaVuSans-98"/>
      <use x="131.884766" xlink:href="#DejaVuSans-115"/>
      <use x="183.984375" xlink:href="#DejaVuSans-111"/>
      <use x="245.166016" xlink:href="#DejaVuSans-114"/>
      <use x="286.279297" xlink:href="#DejaVuSans-98"/>
      <use x="349.755859" xlink:href="#DejaVuSans-97"/>
      <use x="411.035156" xlink:href="#DejaVuSans-110"/>
      <use x="474.414062" xlink:href="#DejaVuSans-99"/>
      <use x="529.394531" xlink:href="#DejaVuSans-101"/>
      <use x="590.917969" xlink:href="#DejaVuSans-50"/>
      <use x="654.541016" xlink:href="#DejaVuSans-50"/>
      <use x="718.164062" xlink:href="#DejaVuSans-55"/>
     </g>
    </g>
   </g>
   <g id="line2d_15">
    <defs>
     <path d="M 0 3 
C 0.795609 3 1.55874 2.683901 2.12132 2.12132 
C 2.683901 1.55874 3 0.795609 3 0 
C 3 -0.795609 2.683901 -1.55874 2.12132 -2.12132 
C 1.55874 -2.683901 0.795609 -3 0 -3 
C -0.795609 -3 -1.55874 -2.683901 -2.12132 -2.12132 
C -2.683901 -1.55874 -3 -0.795609 -3 0 
C -3 0.795609 -2.683901 1.55874 -2.12132 2.12132 
C -1.55874 2.683901 -0.795609 3 0 3 
z
" id="m1d38f25030" style="stroke:#000000;"/>
    </defs>
    <g clip-path="url(#p9521c7dc7f)">
     <use style="stroke:#000000;" x="71.724432" xlink:href="#m1d38f25030" y="158.530006"/>
     <use style="stroke:#000000;" x="71.724439" xlink:href="#m1d38f25030" y="158.530006"/>
     <use style="stroke:#000000;" x="71.724464" xlink:href="#m1d38f25030" y="158.530006"/>
     <use style="stroke:#000000;" x="71.724489" xlink:href="#m1d38f25030" y="158.530006"/>
     <use style="stroke:#000000;" x="71.724514" xlink:href="#m1d38f25030" y="158.530006"/>
     <use style="stroke:#000000;" x="71.724552" xlink:href="#m1d38f25030" y="158.530006"/>
     <use style="stroke:#000000;" x="71.724615" xlink:href="#m1d38f25030" y="158.530117"/>
     <use style="stroke:#000000;" x="71.72472" xlink:href="#m1d38f25030" y="158.530117"/>
     <use style="stroke:#000000;" x="71.724903" xlink:href="#m1d38f25030" y="158.530227"/>
     <use style="stroke:#000000;" x="71.725226" xlink:href="#m1d38f25030" y="158.530448"/>
     <use style="stroke:#000000;" x="71.725876" xlink:href="#m1d38f25030" y="158.53078"/>
     <use style="stroke:#000000;" x="71.726525" xlink:href="#m1d38f25030" y="158.531112"/>
     <use style="stroke:#000000;" x="71.727171" xlink:href="#m1d38f25030" y="158.531555"/>
     <use style="stroke:#000000;" x="71.728207" xlink:href="#m1d38f25030" y="158.532108"/>
     <use style="stroke:#000000;" x="71.729264" xlink:href="#m1d38f25030" y="158.532661"/>
     <use style="stroke:#000000;" x="71.730321" xlink:href="#m1d38f25030" y="158.533214"/>
     <use style="stroke:#000000;" x="71.731379" xlink:href="#m1d38f25030" y="158.533767"/>
     <use style="stroke:#000000;" x="71.733523" xlink:href="#m1d38f25030" y="158.534874"/>
     <use style="stroke:#000000;" x="71.735667" xlink:href="#m1d38f25030" y="158.53598"/>
     <use style="stroke:#000000;" x="71.741527" xlink:href="#m1d38f25030" y="158.538856"/>
     <use style="stroke:#000000;" x="71.747386" xlink:href="#m1d38f25030" y="158.541622"/>
     <use style="stroke:#000000;" x="71.753246" xlink:href="#m1d38f25030" y="158.544166"/>
     <use style="stroke:#000000;" x="71.759165" xlink:href="#m1d38f25030" y="158.54649"/>
     <use style="stroke:#000000;" x="71.764904" xlink:href="#m1d38f25030" y="158.548702"/>
     <use style="stroke:#000000;" x="71.774871" xlink:href="#m1d38f25030" y="158.552132"/>
     <use style="stroke:#000000;" x="71.784838" xlink:href="#m1d38f25030" y="158.555008"/>
     <use style="stroke:#000000;" x="71.796617" xlink:href="#m1d38f25030" y="158.557774"/>
     <use style="stroke:#000000;" x="71.808397" xlink:href="#m1d38f25030" y="158.559986"/>
     <use style="stroke:#000000;" x="71.820176" xlink:href="#m1d38f25030" y="158.561425"/>
     <use style="stroke:#000000;" x="71.831955" xlink:href="#m1d38f25030" y="158.562199"/>
     <use style="stroke:#000000;" x="71.844036" xlink:href="#m1d38f25030" y="158.56242"/>
     <use style="stroke:#000000;" x="71.863668" xlink:href="#m1d38f25030" y="158.561203"/>
     <use style="stroke:#000000;" x="71.8833" xlink:href="#m1d38f25030" y="158.558216"/>
     <use style="stroke:#000000;" x="71.903235" xlink:href="#m1d38f25030" y="158.553459"/>
     <use style="stroke:#000000;" x="71.922867" xlink:href="#m1d38f25030" y="158.546932"/>
     <use style="stroke:#000000;" x="71.942801" xlink:href="#m1d38f25030" y="158.538635"/>
     <use style="stroke:#000000;" x="71.976024" xlink:href="#m1d38f25030" y="158.520713"/>
     <use style="stroke:#000000;" x="72.00955" xlink:href="#m1d38f25030" y="158.498145"/>
     <use style="stroke:#000000;" x="72.041565" xlink:href="#m1d38f25030" y="158.47082"/>
     <use style="stroke:#000000;" x="72.074788" xlink:href="#m1d38f25030" y="158.438848"/>
     <use style="stroke:#000000;" x="72.108012" xlink:href="#m1d38f25030" y="158.402451"/>
     <use style="stroke:#000000;" x="72.144256" xlink:href="#m1d38f25030" y="158.361518"/>
     <use style="stroke:#000000;" x="72.195601" xlink:href="#m1d38f25030" y="158.286069"/>
     <use style="stroke:#000000;" x="72.249967" xlink:href="#m1d38f25030" y="158.199558"/>
     <use style="stroke:#000000;" x="72.304332" xlink:href="#m1d38f25030" y="158.102426"/>
     <use style="stroke:#000000;" x="72.358698" xlink:href="#m1d38f25030" y="157.995116"/>
     <use style="stroke:#000000;" x="72.413064" xlink:href="#m1d38f25030" y="157.877849"/>
     <use style="stroke:#000000;" x="72.46743" xlink:href="#m1d38f25030" y="157.751069"/>
     <use style="stroke:#000000;" x="72.521795" xlink:href="#m1d38f25030" y="157.615216"/>
     <use style="stroke:#000000;" x="72.576161" xlink:href="#m1d38f25030" y="157.470403"/>
     <use style="stroke:#000000;" x="72.630527" xlink:href="#m1d38f25030" y="157.317182"/>
     <use style="stroke:#000000;" x="72.684892" xlink:href="#m1d38f25030" y="157.155775"/>
     <use style="stroke:#000000;" x="72.739258" xlink:href="#m1d38f25030" y="156.986513"/>
     <use style="stroke:#000000;" x="72.793624" xlink:href="#m1d38f25030" y="156.809617"/>
     <use style="stroke:#000000;" x="72.847989" xlink:href="#m1d38f25030" y="156.625531"/>
     <use style="stroke:#000000;" x="72.902355" xlink:href="#m1d38f25030" y="156.434365"/>
     <use style="stroke:#000000;" x="72.956721" xlink:href="#m1d38f25030" y="156.236671"/>
     <use style="stroke:#000000;" x="73.011086" xlink:href="#m1d38f25030" y="156.03245"/>
     <use style="stroke:#000000;" x="73.065452" xlink:href="#m1d38f25030" y="155.822034"/>
     <use style="stroke:#000000;" x="73.119818" xlink:href="#m1d38f25030" y="155.605865"/>
     <use style="stroke:#000000;" x="73.171163" xlink:href="#m1d38f25030" y="155.383944"/>
     <use style="stroke:#000000;" x="73.225529" xlink:href="#m1d38f25030" y="155.156602"/>
     <use style="stroke:#000000;" x="73.279894" xlink:href="#m1d38f25030" y="154.924171"/>
     <use style="stroke:#000000;" x="73.33426" xlink:href="#m1d38f25030" y="154.686872"/>
     <use style="stroke:#000000;" x="73.388626" xlink:href="#m1d38f25030" y="154.444816"/>
     <use style="stroke:#000000;" x="73.442992" xlink:href="#m1d38f25030" y="154.198225"/>
     <use style="stroke:#000000;" x="73.497357" xlink:href="#m1d38f25030" y="153.947429"/>
     <use style="stroke:#000000;" x="73.551723" xlink:href="#m1d38f25030" y="153.69254"/>
     <use style="stroke:#000000;" x="73.606089" xlink:href="#m1d38f25030" y="153.43389"/>
     <use style="stroke:#000000;" x="73.660454" xlink:href="#m1d38f25030" y="153.171479"/>
     <use style="stroke:#000000;" x="73.71482" xlink:href="#m1d38f25030" y="152.905638"/>
     <use style="stroke:#000000;" x="73.769186" xlink:href="#m1d38f25030" y="152.636478"/>
     <use style="stroke:#000000;" x="73.823551" xlink:href="#m1d38f25030" y="152.36411"/>
     <use style="stroke:#000000;" x="73.877917" xlink:href="#m1d38f25030" y="152.088976"/>
     <use style="stroke:#000000;" x="73.959466" xlink:href="#m1d38f25030" y="151.667591"/>
     <use style="stroke:#000000;" x="74.041014" xlink:href="#m1d38f25030" y="151.240342"/>
     <use style="stroke:#000000;" x="74.122563" xlink:href="#m1d38f25030" y="150.807894"/>
     <use style="stroke:#000000;" x="74.204111" xlink:href="#m1d38f25030" y="150.3708"/>
     <use style="stroke:#000000;" x="74.28566" xlink:href="#m1d38f25030" y="149.92928"/>
     <use style="stroke:#000000;" x="74.367208" xlink:href="#m1d38f25030" y="149.483999"/>
     <use style="stroke:#000000;" x="74.451777" xlink:href="#m1d38f25030" y="149.0354"/>
     <use style="stroke:#000000;" x="74.533325" xlink:href="#m1d38f25030" y="148.583813"/>
     <use style="stroke:#000000;" x="74.614874" xlink:href="#m1d38f25030" y="148.129571"/>
     <use style="stroke:#000000;" x="74.696423" xlink:href="#m1d38f25030" y="147.673227"/>
     <use style="stroke:#000000;" x="74.774951" xlink:href="#m1d38f25030" y="147.215113"/>
     <use style="stroke:#000000;" x="74.86556" xlink:href="#m1d38f25030" y="146.75545"/>
     <use style="stroke:#000000;" x="74.95617" xlink:href="#m1d38f25030" y="146.294571"/>
     <use style="stroke:#000000;" x="75.016576" xlink:href="#m1d38f25030" y="145.832917"/>
     <use style="stroke:#000000;" x="75.107185" xlink:href="#m1d38f25030" y="145.37071"/>
     <use style="stroke:#000000;" x="75.197795" xlink:href="#m1d38f25030" y="144.908171"/>
     <use style="stroke:#000000;" x="75.258201" xlink:href="#m1d38f25030" y="144.445521"/>
     <use style="stroke:#000000;" x="75.348811" xlink:href="#m1d38f25030" y="143.983203"/>
     <use style="stroke:#000000;" x="75.43942" xlink:href="#m1d38f25030" y="143.521328"/>
     <use style="stroke:#000000;" x="75.53003" xlink:href="#m1d38f25030" y="143.060117"/>
     <use style="stroke:#000000;" x="75.590436" xlink:href="#m1d38f25030" y="142.599679"/>
     <use style="stroke:#000000;" x="75.681045" xlink:href="#m1d38f25030" y="142.140459"/>
     <use style="stroke:#000000;" x="75.771655" xlink:href="#m1d38f25030" y="141.682456"/>
     <use style="stroke:#000000;" x="75.832061" xlink:href="#m1d38f25030" y="141.22578"/>
     <use style="stroke:#000000;" x="75.922671" xlink:href="#m1d38f25030" y="140.770875"/>
     <use style="stroke:#000000;" x="76.01328" xlink:href="#m1d38f25030" y="140.317629"/>
     <use style="stroke:#000000;" x="76.10389" xlink:href="#m1d38f25030" y="139.866263"/>
     <use style="stroke:#000000;" x="76.164296" xlink:href="#m1d38f25030" y="139.416999"/>
     <use style="stroke:#000000;" x="76.254905" xlink:href="#m1d38f25030" y="138.969948"/>
     <use style="stroke:#000000;" x="76.345515" xlink:href="#m1d38f25030" y="138.52511"/>
     <use style="stroke:#000000;" x="76.405921" xlink:href="#m1d38f25030" y="138.082705"/>
     <use style="stroke:#000000;" x="76.496531" xlink:href="#m1d38f25030" y="137.642845"/>
     <use style="stroke:#000000;" x="76.58714" xlink:href="#m1d38f25030" y="137.20553"/>
     <use style="stroke:#000000;" x="76.67775" xlink:href="#m1d38f25030" y="136.77098"/>
     <use style="stroke:#000000;" x="76.738156" xlink:href="#m1d38f25030" y="136.339085"/>
     <use style="stroke:#000000;" x="76.828765" xlink:href="#m1d38f25030" y="135.910177"/>
     <use style="stroke:#000000;" x="76.919375" xlink:href="#m1d38f25030" y="135.484256"/>
     <use style="stroke:#000000;" x="76.979781" xlink:href="#m1d38f25030" y="135.061322"/>
     <use style="stroke:#000000;" x="77.070391" xlink:href="#m1d38f25030" y="134.641375"/>
     <use style="stroke:#000000;" x="77.161" xlink:href="#m1d38f25030" y="134.224637"/>
     <use style="stroke:#000000;" x="77.281813" xlink:href="#m1d38f25030" y="133.601464"/>
     <use style="stroke:#000000;" x="77.402625" xlink:href="#m1d38f25030" y="132.985705"/>
     <use style="stroke:#000000;" x="77.523438" xlink:href="#m1d38f25030" y="132.377467"/>
     <use style="stroke:#000000;" x="77.644251" xlink:href="#m1d38f25030" y="131.777085"/>
     <use style="stroke:#000000;" x="77.765063" xlink:href="#m1d38f25030" y="131.184446"/>
     <use style="stroke:#000000;" x="77.885876" xlink:href="#m1d38f25030" y="130.599773"/>
     <use style="stroke:#000000;" x="78.006689" xlink:href="#m1d38f25030" y="130.023065"/>
     <use style="stroke:#000000;" x="78.157704" xlink:href="#m1d38f25030" y="129.454433"/>
     <use style="stroke:#000000;" x="78.278517" xlink:href="#m1d38f25030" y="128.893988"/>
     <use style="stroke:#000000;" x="78.39933" xlink:href="#m1d38f25030" y="128.341618"/>
     <use style="stroke:#000000;" x="78.520142" xlink:href="#m1d38f25030" y="127.797435"/>
     <use style="stroke:#000000;" x="78.640955" xlink:href="#m1d38f25030" y="127.261438"/>
     <use style="stroke:#000000;" x="78.761768" xlink:href="#m1d38f25030" y="126.733628"/>
     <use style="stroke:#000000;" x="78.88258" xlink:href="#m1d38f25030" y="126.214115"/>
     <use style="stroke:#000000;" x="79.003393" xlink:href="#m1d38f25030" y="125.702678"/>
     <use style="stroke:#000000;" x="79.124205" xlink:href="#m1d38f25030" y="125.199428"/>
     <use style="stroke:#000000;" x="79.245018" xlink:href="#m1d38f25030" y="124.704364"/>
     <use style="stroke:#000000;" x="79.396034" xlink:href="#m1d38f25030" y="124.217487"/>
     <use style="stroke:#000000;" x="79.516847" xlink:href="#m1d38f25030" y="123.738575"/>
     <use style="stroke:#000000;" x="79.637659" xlink:href="#m1d38f25030" y="123.267849"/>
     <use style="stroke:#000000;" x="79.758472" xlink:href="#m1d38f25030" y="122.804978"/>
     <use style="stroke:#000000;" x="79.879284" xlink:href="#m1d38f25030" y="122.350183"/>
     <use style="stroke:#000000;" x="80.000097" xlink:href="#m1d38f25030" y="121.903243"/>
     <use style="stroke:#000000;" x="80.12091" xlink:href="#m1d38f25030" y="121.464157"/>
     <use style="stroke:#000000;" x="80.241722" xlink:href="#m1d38f25030" y="121.032815"/>
     <use style="stroke:#000000;" x="80.362535" xlink:href="#m1d38f25030" y="120.609218"/>
     <use style="stroke:#000000;" x="80.483348" xlink:href="#m1d38f25030" y="120.193364"/>
     <use style="stroke:#000000;" x="80.634363" xlink:href="#m1d38f25030" y="119.785033"/>
     <use style="stroke:#000000;" x="80.755176" xlink:href="#m1d38f25030" y="119.383672"/>
     <use style="stroke:#000000;" x="80.875989" xlink:href="#m1d38f25030" y="118.99094"/>
     <use style="stroke:#000000;" x="80.996801" xlink:href="#m1d38f25030" y="118.604845"/>
     <use style="stroke:#000000;" x="81.117614" xlink:href="#m1d38f25030" y="118.226495"/>
     <use style="stroke:#000000;" x="81.238427" xlink:href="#m1d38f25030" y="117.854782"/>
     <use style="stroke:#000000;" x="81.359239" xlink:href="#m1d38f25030" y="117.490813"/>
     <use style="stroke:#000000;" x="81.480052" xlink:href="#m1d38f25030" y="117.133482"/>
     <use style="stroke:#000000;" x="81.600864" xlink:href="#m1d38f25030" y="116.783895"/>
     <use style="stroke:#000000;" x="81.721677" xlink:href="#m1d38f25030" y="116.439839"/>
     <use style="stroke:#000000;" x="81.84249" xlink:href="#m1d38f25030" y="116.103528"/>
     <use style="stroke:#000000;" x="81.993505" xlink:href="#m1d38f25030" y="115.77496"/>
     <use style="stroke:#000000;" x="82.114318" xlink:href="#m1d38f25030" y="115.451924"/>
     <use style="stroke:#000000;" x="82.235131" xlink:href="#m1d38f25030" y="115.135526"/>
     <use style="stroke:#000000;" x="82.355943" xlink:href="#m1d38f25030" y="114.825765"/>
     <use style="stroke:#000000;" x="82.537162" xlink:href="#m1d38f25030" y="114.371081"/>
     <use style="stroke:#000000;" x="82.718381" xlink:href="#m1d38f25030" y="113.931884"/>
     <use style="stroke:#000000;" x="82.8996" xlink:href="#m1d38f25030" y="113.505963"/>
     <use style="stroke:#000000;" x="83.111022" xlink:href="#m1d38f25030" y="113.093318"/>
     <use style="stroke:#000000;" x="83.292241" xlink:href="#m1d38f25030" y="112.695054"/>
     <use style="stroke:#000000;" x="83.47346" xlink:href="#m1d38f25030" y="112.310066"/>
     <use style="stroke:#000000;" x="83.654679" xlink:href="#m1d38f25030" y="111.938353"/>
     <use style="stroke:#000000;" x="83.835898" xlink:href="#m1d38f25030" y="111.579916"/>
     <use style="stroke:#000000;" x="84.017117" xlink:href="#m1d38f25030" y="111.233648"/>
     <use style="stroke:#000000;" x="84.228539" xlink:href="#m1d38f25030" y="110.900655"/>
     <use style="stroke:#000000;" x="84.409758" xlink:href="#m1d38f25030" y="110.578725"/>
     <use style="stroke:#000000;" x="84.590977" xlink:href="#m1d38f25030" y="110.268965"/>
     <use style="stroke:#000000;" x="84.772196" xlink:href="#m1d38f25030" y="109.971373"/>
     <use style="stroke:#000000;" x="84.953415" xlink:href="#m1d38f25030" y="109.684845"/>
     <use style="stroke:#000000;" x="85.164837" xlink:href="#m1d38f25030" y="109.410485"/>
     <use style="stroke:#000000;" x="85.346056" xlink:href="#m1d38f25030" y="109.146082"/>
     <use style="stroke:#000000;" x="85.527275" xlink:href="#m1d38f25030" y="108.892742"/>
     <use style="stroke:#000000;" x="85.708494" xlink:href="#m1d38f25030" y="108.649359"/>
     <use style="stroke:#000000;" x="85.889713" xlink:href="#m1d38f25030" y="108.417038"/>
     <use style="stroke:#000000;" x="86.070932" xlink:href="#m1d38f25030" y="108.194675"/>
     <use style="stroke:#000000;" x="86.282354" xlink:href="#m1d38f25030" y="107.982267"/>
     <use style="stroke:#000000;" x="86.463573" xlink:href="#m1d38f25030" y="107.779817"/>
     <use style="stroke:#000000;" x="86.644792" xlink:href="#m1d38f25030" y="107.587322"/>
     <use style="stroke:#000000;" x="86.91662" xlink:href="#m1d38f25030" y="107.308538"/>
     <use style="stroke:#000000;" x="87.218652" xlink:href="#m1d38f25030" y="107.051879"/>
     <use style="stroke:#000000;" x="87.49048" xlink:href="#m1d38f25030" y="106.815133"/>
     <use style="stroke:#000000;" x="87.792512" xlink:href="#m1d38f25030" y="106.598301"/>
     <use style="stroke:#000000;" x="88.06434" xlink:href="#m1d38f25030" y="106.401382"/>
     <use style="stroke:#000000;" x="88.366372" xlink:href="#m1d38f25030" y="106.222163"/>
     <use style="stroke:#000000;" x="88.6382" xlink:href="#m1d38f25030" y="106.061751"/>
     <use style="stroke:#000000;" x="88.940232" xlink:href="#m1d38f25030" y="105.91904"/>
     <use style="stroke:#000000;" x="89.21206" xlink:href="#m1d38f25030" y="105.791817"/>
     <use style="stroke:#000000;" x="89.514092" xlink:href="#m1d38f25030" y="105.682294"/>
     <use style="stroke:#000000;" x="89.78592" xlink:href="#m1d38f25030" y="105.58826"/>
     <use style="stroke:#000000;" x="90.087952" xlink:href="#m1d38f25030" y="105.509714"/>
     <use style="stroke:#000000;" x="90.35978" xlink:href="#m1d38f25030" y="105.445549"/>
     <use style="stroke:#000000;" x="90.661812" xlink:href="#m1d38f25030" y="105.395766"/>
     <use style="stroke:#000000;" x="90.93364" xlink:href="#m1d38f25030" y="105.359258"/>
     <use style="stroke:#000000;" x="91.235672" xlink:href="#m1d38f25030" y="105.337133"/>
     <use style="stroke:#000000;" x="91.5075" xlink:href="#m1d38f25030" y="105.327176"/>
     <use style="stroke:#000000;" x="91.809532" xlink:href="#m1d38f25030" y="105.329389"/>
     <use style="stroke:#000000;" x="92.08136" xlink:href="#m1d38f25030" y="105.34377"/>
     <use style="stroke:#000000;" x="92.383392" xlink:href="#m1d38f25030" y="105.370321"/>
     <use style="stroke:#000000;" x="92.65522" xlink:href="#m1d38f25030" y="105.407935"/>
     <use style="stroke:#000000;" x="92.957252" xlink:href="#m1d38f25030" y="105.456612"/>
     <use style="stroke:#000000;" x="93.22908" xlink:href="#m1d38f25030" y="105.515245"/>
     <use style="stroke:#000000;" x="93.500909" xlink:href="#m1d38f25030" y="105.583835"/>
     <use style="stroke:#000000;" x="93.80294" xlink:href="#m1d38f25030" y="105.662381"/>
     <use style="stroke:#000000;" x="94.074769" xlink:href="#m1d38f25030" y="105.750884"/>
     <use style="stroke:#000000;" x="94.3768" xlink:href="#m1d38f25030" y="105.847131"/>
     <use style="stroke:#000000;" x="94.648629" xlink:href="#m1d38f25030" y="105.953335"/>
     <use style="stroke:#000000;" x="94.95066" xlink:href="#m1d38f25030" y="106.067283"/>
     <use style="stroke:#000000;" x="95.222489" xlink:href="#m1d38f25030" y="106.190081"/>
     <use style="stroke:#000000;" x="95.52452" xlink:href="#m1d38f25030" y="106.320623"/>
     <use style="stroke:#000000;" x="95.796349" xlink:href="#m1d38f25030" y="106.458909"/>
     <use style="stroke:#000000;" x="96.09838" xlink:href="#m1d38f25030" y="106.603832"/>
     <use style="stroke:#000000;" x="96.370209" xlink:href="#m1d38f25030" y="106.7565"/>
     <use style="stroke:#000000;" x="96.67224" xlink:href="#m1d38f25030" y="106.915806"/>
     <use style="stroke:#000000;" x="96.944069" xlink:href="#m1d38f25030" y="107.080643"/>
     <use style="stroke:#000000;" x="97.2461" xlink:href="#m1d38f25030" y="107.253223"/>
     <use style="stroke:#000000;" x="97.517929" xlink:href="#m1d38f25030" y="107.431336"/>
     <use style="stroke:#000000;" x="97.81996" xlink:href="#m1d38f25030" y="107.61498"/>
     <use style="stroke:#000000;" x="98.091789" xlink:href="#m1d38f25030" y="107.805261"/>
     <use style="stroke:#000000;" x="98.544836" xlink:href="#m1d38f25030" y="108.102853"/>
     <use style="stroke:#000000;" x="98.96768" xlink:href="#m1d38f25030" y="108.411507"/>
     <use style="stroke:#000000;" x="99.390524" xlink:href="#m1d38f25030" y="108.732331"/>
     <use style="stroke:#000000;" x="99.843572" xlink:href="#m1d38f25030" y="109.063111"/>
     <use style="stroke:#000000;" x="100.266416" xlink:href="#m1d38f25030" y="109.403847"/>
     <use style="stroke:#000000;" x="100.68926" xlink:href="#m1d38f25030" y="109.753434"/>
     <use style="stroke:#000000;" x="101.142308" xlink:href="#m1d38f25030" y="110.112978"/>
     <use style="stroke:#000000;" x="101.565152" xlink:href="#m1d38f25030" y="110.479159"/>
     <use style="stroke:#000000;" x="101.92759" xlink:href="#m1d38f25030" y="110.854191"/>
     <use style="stroke:#000000;" x="102.531653" xlink:href="#m1d38f25030" y="111.23586"/>
     <use style="stroke:#000000;" x="102.833684" xlink:href="#m1d38f25030" y="111.625274"/>
     <use style="stroke:#000000;" x="103.437748" xlink:href="#m1d38f25030" y="112.020219"/>
     <use style="stroke:#000000;" x="103.739779" xlink:href="#m1d38f25030" y="112.420695"/>
     <use style="stroke:#000000;" x="104.041811" xlink:href="#m1d38f25030" y="112.827809"/>
     <use style="stroke:#000000;" x="104.645874" xlink:href="#m1d38f25030" y="113.239348"/>
     <use style="stroke:#000000;" x="105.249937" xlink:href="#m1d38f25030" y="113.866613"/>
     <use style="stroke:#000000;" x="105.854" xlink:href="#m1d38f25030" y="114.504942"/>
     <use style="stroke:#000000;" x="106.458063" xlink:href="#m1d38f25030" y="115.151014"/>
     <use style="stroke:#000000;" x="107.364158" xlink:href="#m1d38f25030" y="115.80483"/>
     <use style="stroke:#000000;" x="107.968221" xlink:href="#m1d38f25030" y="116.46639"/>
     <use style="stroke:#000000;" x="108.572284" xlink:href="#m1d38f25030" y="117.133482"/>
     <use style="stroke:#000000;" x="109.176348" xlink:href="#m1d38f25030" y="117.804999"/>
     <use style="stroke:#000000;" x="109.780411" xlink:href="#m1d38f25030" y="118.482047"/>
     <use style="stroke:#000000;" x="110.384474" xlink:href="#m1d38f25030" y="119.162414"/>
     <use style="stroke:#000000;" x="110.988537" xlink:href="#m1d38f25030" y="119.846432"/>
     <use style="stroke:#000000;" x="111.894632" xlink:href="#m1d38f25030" y="120.532994"/>
     <use style="stroke:#000000;" x="112.498695" xlink:href="#m1d38f25030" y="121.221659"/>
     <use style="stroke:#000000;" x="113.102758" xlink:href="#m1d38f25030" y="121.911983"/>
     <use style="stroke:#000000;" x="113.706821" xlink:href="#m1d38f25030" y="122.603413"/>
     <use style="stroke:#000000;" x="114.310884" xlink:href="#m1d38f25030" y="123.295728"/>
     <use style="stroke:#000000;" x="114.914948" xlink:href="#m1d38f25030" y="123.988375"/>
     <use style="stroke:#000000;" x="115.821042" xlink:href="#m1d38f25030" y="124.681021"/>
     <use style="stroke:#000000;" x="116.425105" xlink:href="#m1d38f25030" y="125.373226"/>
     <use style="stroke:#000000;" x="117.029169" xlink:href="#m1d38f25030" y="126.064877"/>
     <use style="stroke:#000000;" x="117.633232" xlink:href="#m1d38f25030" y="126.755643"/>
     <use style="stroke:#000000;" x="118.237295" xlink:href="#m1d38f25030" y="127.445193"/>
     <use style="stroke:#000000;" x="118.841358" xlink:href="#m1d38f25030" y="128.133193"/>
     <use style="stroke:#000000;" x="119.747453" xlink:href="#m1d38f25030" y="128.819645"/>
     <use style="stroke:#000000;" x="120.351516" xlink:href="#m1d38f25030" y="129.504216"/>
     <use style="stroke:#000000;" x="120.955579" xlink:href="#m1d38f25030" y="130.186685"/>
     <use style="stroke:#000000;" x="121.559642" xlink:href="#m1d38f25030" y="130.866831"/>
     <use style="stroke:#000000;" x="122.163705" xlink:href="#m1d38f25030" y="131.544654"/>
     <use style="stroke:#000000;" x="122.767769" xlink:href="#m1d38f25030" y="132.219932"/>
     <use style="stroke:#000000;" x="123.371832" xlink:href="#m1d38f25030" y="132.892444"/>
     <use style="stroke:#000000;" x="124.277927" xlink:href="#m1d38f25030" y="133.562081"/>
     <use style="stroke:#000000;" x="124.88199" xlink:href="#m1d38f25030" y="134.22884"/>
     <use style="stroke:#000000;" x="125.486053" xlink:href="#m1d38f25030" y="134.892503"/>
     <use style="stroke:#000000;" x="126.090116" xlink:href="#m1d38f25030" y="135.553067"/>
     <use style="stroke:#000000;" x="126.694179" xlink:href="#m1d38f25030" y="136.210424"/>
     <use style="stroke:#000000;" x="127.298242" xlink:href="#m1d38f25030" y="136.86435"/>
     <use style="stroke:#000000;" x="128.204337" xlink:href="#m1d38f25030" y="137.514958"/>
     <use style="stroke:#000000;" x="128.8084" xlink:href="#m1d38f25030" y="138.162137"/>
     <use style="stroke:#000000;" x="129.412463" xlink:href="#m1d38f25030" y="138.805775"/>
     <use style="stroke:#000000;" x="130.318558" xlink:href="#m1d38f25030" y="139.772229"/>
     <use style="stroke:#000000;" x="131.224653" xlink:href="#m1d38f25030" y="140.730385"/>
     <use style="stroke:#000000;" x="132.432779" xlink:href="#m1d38f25030" y="141.680022"/>
     <use style="stroke:#000000;" x="133.338874" xlink:href="#m1d38f25030" y="142.621141"/>
     <use style="stroke:#000000;" x="134.244969" xlink:href="#m1d38f25030" y="143.553521"/>
     <use style="stroke:#000000;" x="135.151063" xlink:href="#m1d38f25030" y="144.477161"/>
     <use style="stroke:#000000;" x="136.35919" xlink:href="#m1d38f25030" y="145.392061"/>
     <use style="stroke:#000000;" x="137.265284" xlink:href="#m1d38f25030" y="146.298"/>
     <use style="stroke:#000000;" x="138.171379" xlink:href="#m1d38f25030" y="147.1952"/>
     <use style="stroke:#000000;" x="139.379505" xlink:href="#m1d38f25030" y="148.083439"/>
     <use style="stroke:#000000;" x="140.2856" xlink:href="#m1d38f25030" y="148.962716"/>
     <use style="stroke:#000000;" x="141.191695" xlink:href="#m1d38f25030" y="149.833254"/>
     <use style="stroke:#000000;" x="142.09779" xlink:href="#m1d38f25030" y="150.694832"/>
     <use style="stroke:#000000;" x="143.305916" xlink:href="#m1d38f25030" y="151.547558"/>
     <use style="stroke:#000000;" x="144.212011" xlink:href="#m1d38f25030" y="152.391435"/>
     <use style="stroke:#000000;" x="145.118105" xlink:href="#m1d38f25030" y="153.226572"/>
     <use style="stroke:#000000;" x="146.0242" xlink:href="#m1d38f25030" y="154.052969"/>
     <use style="stroke:#000000;" x="147.232326" xlink:href="#m1d38f25030" y="154.870737"/>
     <use style="stroke:#000000;" x="148.138421" xlink:href="#m1d38f25030" y="155.679765"/>
     <use style="stroke:#000000;" x="149.044516" xlink:href="#m1d38f25030" y="156.480276"/>
     <use style="stroke:#000000;" x="149.950611" xlink:href="#m1d38f25030" y="157.272156"/>
     <use style="stroke:#000000;" x="151.158737" xlink:href="#m1d38f25030" y="158.05563"/>
     <use style="stroke:#000000;" x="152.064832" xlink:href="#m1d38f25030" y="158.830695"/>
     <use style="stroke:#000000;" x="152.970926" xlink:href="#m1d38f25030" y="159.597353"/>
     <use style="stroke:#000000;" x="154.179053" xlink:href="#m1d38f25030" y="160.355824"/>
     <use style="stroke:#000000;" x="155.085148" xlink:href="#m1d38f25030" y="161.105998"/>
     <use style="stroke:#000000;" x="156.595305" xlink:href="#m1d38f25030" y="162.226446"/>
     <use style="stroke:#000000;" x="158.105463" xlink:href="#m1d38f25030" y="163.32842"/>
     <use style="stroke:#000000;" x="159.615621" xlink:href="#m1d38f25030" y="164.412361"/>
     <use style="stroke:#000000;" x="160.99651" xlink:href="#m1d38f25030" y="165.47838"/>
     <use style="stroke:#000000;" x="162.489452" xlink:href="#m1d38f25030" y="166.526698"/>
     <use style="stroke:#000000;" x="163.982696" xlink:href="#m1d38f25030" y="167.557759"/>
     <use style="stroke:#000000;" x="165.475638" xlink:href="#m1d38f25030" y="168.571783"/>
     <use style="stroke:#000000;" x="166.96858" xlink:href="#m1d38f25030" y="169.568991"/>
     <use style="stroke:#000000;" x="168.461522" xlink:href="#m1d38f25030" y="170.549604"/>
     <use style="stroke:#000000;" x="169.954766" xlink:href="#m1d38f25030" y="171.513956"/>
     <use style="stroke:#000000;" x="171.447708" xlink:href="#m1d38f25030" y="172.462266"/>
     <use style="stroke:#000000;" x="172.94065" xlink:href="#m1d38f25030" y="173.394756"/>
     <use style="stroke:#000000;" x="174.433895" xlink:href="#m1d38f25030" y="174.311869"/>
     <use style="stroke:#000000;" x="175.926837" xlink:href="#m1d38f25030" y="175.213715"/>
     <use style="stroke:#000000;" x="177.419779" xlink:href="#m1d38f25030" y="176.100515"/>
     <use style="stroke:#000000;" x="178.912721" xlink:href="#m1d38f25030" y="176.972602"/>
     <use style="stroke:#000000;" x="180.405965" xlink:href="#m1d38f25030" y="177.830196"/>
     <use style="stroke:#000000;" x="181.898907" xlink:href="#m1d38f25030" y="178.67352"/>
     <use style="stroke:#000000;" x="183.391849" xlink:href="#m1d38f25030" y="179.502793"/>
     <use style="stroke:#000000;" x="184.885093" xlink:href="#m1d38f25030" y="180.318349"/>
     <use style="stroke:#000000;" x="186.378035" xlink:href="#m1d38f25030" y="181.120408"/>
     <use style="stroke:#000000;" x="188.633305" xlink:href="#m1d38f25030" y="182.30668"/>
     <use style="stroke:#000000;" x="190.888575" xlink:href="#m1d38f25030" y="183.463415"/>
     <use style="stroke:#000000;" x="193.143845" xlink:href="#m1d38f25030" y="184.591276"/>
     <use style="stroke:#000000;" x="195.399115" xlink:href="#m1d38f25030" y="185.691037"/>
     <use style="stroke:#000000;" x="197.654384" xlink:href="#m1d38f25030" y="186.763472"/>
     <use style="stroke:#000000;" x="199.909352" xlink:href="#m1d38f25030" y="187.809136"/>
     <use style="stroke:#000000;" x="202.164622" xlink:href="#m1d38f25030" y="188.828912"/>
     <use style="stroke:#000000;" x="204.419892" xlink:href="#m1d38f25030" y="189.823354"/>
     <use style="stroke:#000000;" x="206.675162" xlink:href="#m1d38f25030" y="190.793237"/>
     <use style="stroke:#000000;" x="208.930431" xlink:href="#m1d38f25030" y="191.739003"/>
     <use style="stroke:#000000;" x="211.185701" xlink:href="#m1d38f25030" y="192.661426"/>
     <use style="stroke:#000000;" x="213.440971" xlink:href="#m1d38f25030" y="193.561059"/>
     <use style="stroke:#000000;" x="215.696241" xlink:href="#m1d38f25030" y="194.438346"/>
     <use style="stroke:#000000;" x="217.95151" xlink:href="#m1d38f25030" y="195.29417"/>
     <use style="stroke:#000000;" x="220.20678" xlink:href="#m1d38f25030" y="196.128864"/>
     <use style="stroke:#000000;" x="222.46205" xlink:href="#m1d38f25030" y="196.942982"/>
     <use style="stroke:#000000;" x="224.71732" xlink:href="#m1d38f25030" y="197.737075"/>
     <use style="stroke:#000000;" x="226.972288" xlink:href="#m1d38f25030" y="198.511588"/>
     <use style="stroke:#000000;" x="229.227557" xlink:href="#m1d38f25030" y="199.267182"/>
     <use style="stroke:#000000;" x="231.482827" xlink:href="#m1d38f25030" y="200.004302"/>
     <use style="stroke:#000000;" x="233.738097" xlink:href="#m1d38f25030" y="200.723389"/>
     <use style="stroke:#000000;" x="235.993367" xlink:href="#m1d38f25030" y="201.424776"/>
     <use style="stroke:#000000;" x="238.248637" xlink:href="#m1d38f25030" y="202.109126"/>
     <use style="stroke:#000000;" x="240.503906" xlink:href="#m1d38f25030" y="202.77666"/>
     <use style="stroke:#000000;" x="242.759176" xlink:href="#m1d38f25030" y="203.428042"/>
     <use style="stroke:#000000;" x="245.014446" xlink:href="#m1d38f25030" y="204.063494"/>
     <use style="stroke:#000000;" x="247.269716" xlink:href="#m1d38f25030" y="204.683458"/>
     <use style="stroke:#000000;" x="249.524986" xlink:href="#m1d38f25030" y="205.288487"/>
     <use style="stroke:#000000;" x="251.780255" xlink:href="#m1d38f25030" y="205.878692"/>
     <use style="stroke:#000000;" x="254.035223" xlink:href="#m1d38f25030" y="206.454625"/>
     <use style="stroke:#000000;" x="256.290493" xlink:href="#m1d38f25030" y="207.016619"/>
     <use style="stroke:#000000;" x="258.545763" xlink:href="#m1d38f25030" y="207.565006"/>
     <use style="stroke:#000000;" x="260.801033" xlink:href="#m1d38f25030" y="208.100118"/>
     <use style="stroke:#000000;" x="263.056302" xlink:href="#m1d38f25030" y="208.622286"/>
     <use style="stroke:#000000;" x="265.311572" xlink:href="#m1d38f25030" y="209.131842"/>
     <use style="stroke:#000000;" x="267.566842" xlink:href="#m1d38f25030" y="209.629119"/>
     <use style="stroke:#000000;" x="269.822112" xlink:href="#m1d38f25030" y="210.114447"/>
     <use style="stroke:#000000;" x="272.077382" xlink:href="#m1d38f25030" y="210.58816"/>
     <use style="stroke:#000000;" x="274.332651" xlink:href="#m1d38f25030" y="211.050367"/>
     <use style="stroke:#000000;" x="275.894759" xlink:href="#m1d38f25030" y="211.36411"/>
     <use style="stroke:#000000;" x="277.457168" xlink:href="#m1d38f25030" y="211.672543"/>
     <use style="stroke:#000000;" x="279.019577" xlink:href="#m1d38f25030" y="211.975887"/>
     <use style="stroke:#000000;" x="280.581685" xlink:href="#m1d38f25030" y="212.274143"/>
     <use style="stroke:#000000;" x="282.144094" xlink:href="#m1d38f25030" y="212.56742"/>
     <use style="stroke:#000000;" x="283.706503" xlink:href="#m1d38f25030" y="212.855829"/>
     <use style="stroke:#000000;" x="285.268611" xlink:href="#m1d38f25030" y="213.139481"/>
     <use style="stroke:#000000;" x="286.83102" xlink:href="#m1d38f25030" y="213.418376"/>
     <use style="stroke:#000000;" x="288.39343" xlink:href="#m1d38f25030" y="213.692625"/>
     <use style="stroke:#000000;" x="289.955537" xlink:href="#m1d38f25030" y="213.962338"/>
     <use style="stroke:#000000;" x="291.517946" xlink:href="#m1d38f25030" y="214.227626"/>
     <use style="stroke:#000000;" x="293.080356" xlink:href="#m1d38f25030" y="214.488489"/>
     <use style="stroke:#000000;" x="294.642463" xlink:href="#m1d38f25030" y="214.744926"/>
     <use style="stroke:#000000;" x="296.204872" xlink:href="#m1d38f25030" y="214.997271"/>
     <use style="stroke:#000000;" x="297.767282" xlink:href="#m1d38f25030" y="215.245411"/>
     <use style="stroke:#000000;" x="300.345423" xlink:href="#m1d38f25030" y="215.645887"/>
     <use style="stroke:#000000;" x="302.923867" xlink:href="#m1d38f25030" y="216.035522"/>
     <use style="stroke:#000000;" x="305.502008" xlink:href="#m1d38f25030" y="216.414647"/>
     <use style="stroke:#000000;" x="308.080452" xlink:href="#m1d38f25030" y="216.783483"/>
     <use style="stroke:#000000;" x="310.658593" xlink:href="#m1d38f25030" y="217.142363"/>
     <use style="stroke:#000000;" x="313.237037" xlink:href="#m1d38f25030" y="217.491618"/>
     <use style="stroke:#000000;" x="315.815179" xlink:href="#m1d38f25030" y="217.831359"/>
     <use style="stroke:#000000;" x="318.393622" xlink:href="#m1d38f25030" y="218.161918"/>
     <use style="stroke:#000000;" x="320.971764" xlink:href="#m1d38f25030" y="218.483737"/>
     <use style="stroke:#000000;" x="323.550207" xlink:href="#m1d38f25030" y="218.796706"/>
     <use style="stroke:#000000;" x="326.128349" xlink:href="#m1d38f25030" y="219.101378"/>
     <use style="stroke:#000000;" x="328.706792" xlink:href="#m1d38f25030" y="219.397896"/>
     <use style="stroke:#000000;" x="331.284934" xlink:href="#m1d38f25030" y="219.686427"/>
     <use style="stroke:#000000;" x="333.863378" xlink:href="#m1d38f25030" y="219.967237"/>
     <use style="stroke:#000000;" x="336.441821" xlink:href="#m1d38f25030" y="220.240523"/>
     <use style="stroke:#000000;" x="339.019963" xlink:href="#m1d38f25030" y="220.506508"/>
     <use style="stroke:#000000;" x="341.598406" xlink:href="#m1d38f25030" y="220.76539"/>
     <use style="stroke:#000000;" x="344.176548" xlink:href="#m1d38f25030" y="221.017369"/>
     <use style="stroke:#000000;" x="346.754991" xlink:href="#m1d38f25030" y="221.262622"/>
     <use style="stroke:#000000;" x="349.333133" xlink:href="#m1d38f25030" y="221.501348"/>
     <use style="stroke:#000000;" x="351.911577" xlink:href="#m1d38f25030" y="221.733724"/>
     <use style="stroke:#000000;" x="354.489718" xlink:href="#m1d38f25030" y="221.959927"/>
     <use style="stroke:#000000;" x="357.068162" xlink:href="#m1d38f25030" y="222.180111"/>
     <use style="stroke:#000000;" x="359.646303" xlink:href="#m1d38f25030" y="222.394455"/>
     <use style="stroke:#000000;" x="362.224747" xlink:href="#m1d38f25030" y="222.603123"/>
     <use style="stroke:#000000;" x="364.802888" xlink:href="#m1d38f25030" y="222.806259"/>
     <use style="stroke:#000000;" x="367.381332" xlink:href="#m1d38f25030" y="223.004019"/>
     <use style="stroke:#000000;" x="369.959474" xlink:href="#m1d38f25030" y="223.196547"/>
     <use style="stroke:#000000;" x="372.537917" xlink:href="#m1d38f25030" y="223.383996"/>
     <use style="stroke:#000000;" x="375.115153" xlink:href="#m1d38f25030" y="223.566489"/>
    </g>
   </g>
   <g id="line2d_16">
    <path clip-path="url(#p9521c7dc7f)" d="M 71.724432 158.529984 
L 71.965551 158.555442 
L 72.188058 158.362001 
L 72.513912 157.752933 
L 73.002694 156.246996 
L 73.683648 153.298511 
L 74.829991 147.153489 
L 77.299197 133.709733 
L 78.661936 127.587411 
L 79.90079 123.031818 
L 81.015759 119.709882 
L 82.07283 117.173157 
L 83.195888 115.054249 
L 84.318946 113.452439 
L 85.254828 112.461351 
L 86.19071 111.743752 
L 87.126591 111.267321 
L 88.254922 110.973225 
L 89.383252 110.94466 
L 90.511582 111.144097 
L 91.921995 111.66526 
L 93.332408 112.439096 
L 94.758121 113.432744 
L 96.911992 115.253946 
L 99.496637 117.818804 
L 102.512057 121.164715 
L 106.61285 126.067934 
L 124.104771 147.396976 
L 129.287563 153.233858 
L 134.470354 158.747885 
L 139.872798 164.141649 
L 144.855933 168.798859 
L 148.786435 172.262533 
L 153.806706 176.427177 
L 158.826977 180.313456 
L 163.847248 183.935855 
L 168.86752 187.309209 
L 173.887791 190.448286 
L 178.908062 193.367529 
L 185.183401 196.728644 
L 191.45874 199.793983 
L 197.883299 202.65125 
L 204.258823 205.229552 
L 210.821507 207.639342 
L 217.336871 209.808431 
L 223.852235 211.775063 
L 231.729624 213.908544 
L 239.607012 215.802223 
L 247.484401 217.482462 
L 255.361789 218.972841 
L 265.864973 220.700739 
L 276.368158 222.172008 
L 286.871343 223.424127 
L 300.000323 224.729514 
L 313.129304 225.794894 
L 329.078827 226.827998 
L 344.637201 227.61536 
L 364.365346 228.372125 
L 376.088068 228.72123 
L 376.088068 228.72123 
" style="fill:none;stroke:#0000ff;stroke-linecap:square;stroke-width:1.5;"/>
   </g>
   <g id="line2d_17">
    <path clip-path="url(#p9521c7dc7f)" d="M 71.724432 158.529984 
L 72.003694 158.611918 
L 72.27947 158.45658 
L 72.614064 157.985439 
L 73.10683 156.805809 
L 73.796701 154.386498 
L 74.782232 149.902202 
L 79.244527 128.195108 
L 80.445435 123.870265 
L 81.646344 120.37166 
L 82.697139 117.940194 
L 83.747933 116.036957 
L 84.723782 114.689495 
L 85.624612 113.762911 
L 86.525441 113.105664 
L 87.42627 112.686612 
L 88.3271 112.477833 
L 89.453136 112.475021 
L 90.579173 112.719929 
L 91.70521 113.176424 
L 93.06184 113.963947 
L 94.76436 115.254623 
L 96.807384 117.153221 
L 98.850409 119.340793 
L 101.926797 123.016192 
L 106.028648 128.347569 
L 124.281126 152.658358 
L 129.417117 158.912007 
L 133.979598 164.146156 
L 138.553531 169.080381 
L 142.676942 173.260497 
L 146.800352 177.19152 
L 152.169706 181.949935 
L 156.605739 185.587463 
L 160.857396 188.8374 
L 165.238916 191.957489 
L 169.620437 194.858251 
L 174.001957 197.552897 
L 179.843984 200.847327 
L 185.686011 203.827406 
L 191.528039 206.520654 
L 197.370066 208.952739 
L 203.212093 211.147435 
L 209.931214 213.406463 
L 216.146939 215.268823 
L 223.30636 217.172137 
L 230.747075 218.906583 
L 238.187791 220.422223 
L 247.258162 222.012097 
L 255.840683 223.29112 
L 266.568834 224.62884 
L 277.296985 225.723381 
L 290.170766 226.774748 
L 303.044548 227.596005 
L 318.063959 228.326551 
L 335.229001 228.933328 
L 356.685304 229.446428 
L 373.850346 229.719873 
L 373.850346 229.719873 
" style="fill:none;stroke:#ff0000;stroke-linecap:square;stroke-width:1.5;"/>
   </g>
   <g id="line2d_18">
    <path clip-path="url(#p9521c7dc7f)" d="M 71.724432 85.861235 
L 72.144256 86.234637 
L 72.521795 86.28397 
L 72.847989 86.105848 
L 73.225529 85.636833 
L 73.71482 84.602455 
L 74.28566 82.814872 
L 75.016576 79.738977 
L 76.10389 74.029349 
L 80.12091 51.88256 
L 81.359239 46.594204 
L 82.537162 42.450079 
L 83.654679 39.275428 
L 84.772196 36.780144 
L 85.708494 35.164013 
L 86.644792 33.938704 
L 87.49048 33.137436 
L 88.366372 32.58112 
L 89.21206 32.285254 
L 90.087952 32.201761 
L 90.93364 32.317917 
L 92.08136 32.749893 
L 93.22908 33.457974 
L 94.3768 34.407453 
L 95.796349 35.866973 
L 97.517929 37.985168 
L 99.390524 40.635893 
L 101.92759 44.667366 
L 105.249937 50.464622 
L 109.780411 58.897173 
L 123.371832 84.565066 
L 128.8084 94.257846 
L 133.338874 101.951569 
L 138.171379 109.750373 
L 143.305916 117.566163 
L 148.138421 124.486587 
L 152.970926 130.996727 
L 158.105463 137.487535 
L 162.489452 142.695745 
L 166.96858 147.714205 
L 171.447708 152.448277 
L 175.926837 156.904299 
L 180.405965 161.105864 
L 184.885093 165.062151 
L 188.633305 168.195949 
L 193.143845 171.764496 
L 197.654384 175.127763 
L 202.164622 178.293227 
L 206.675162 181.266522 
L 211.185701 184.078065 
L 217.95151 187.982151 
L 224.71732 191.55046 
L 231.482827 194.817373 
L 238.248637 197.797705 
L 245.014446 200.536554 
L 251.780255 203.028221 
L 258.545763 205.315863 
L 265.311572 207.408698 
L 274.332651 209.924289 
L 282.144094 211.879286 
L 291.517946 213.977544 
L 300.345423 215.736271 
L 310.658593 217.553281 
L 320.971764 219.147298 
L 331.284934 220.546483 
L 344.176548 222.05868 
L 357.068162 223.34882 
L 375.115153 224.890251 
L 375.115153 224.890251 
" style="fill:none;stroke:#0000ff;stroke-dasharray:5.55,2.4;stroke-dashoffset:0;stroke-width:1.5;"/>
   </g>
   <g id="line2d_19">
    <path clip-path="url(#p9521c7dc7f)" d="M 71.724432 194.664889 
L 71.942801 194.639749 
L 72.195601 194.388407 
L 72.576161 193.627409 
L 73.119818 191.915167 
L 73.877917 188.726035 
L 77.523438 172.335022 
L 78.640955 168.687459 
L 79.758472 165.771222 
L 80.875989 163.48796 
L 81.993505 161.737521 
L 82.8996 160.645362 
L 84.017117 159.638313 
L 85.164837 158.932936 
L 86.282354 158.511478 
L 87.49048 158.302611 
L 88.940232 158.328889 
L 90.35978 158.593466 
L 92.08136 159.165425 
L 94.074769 160.096113 
L 96.370209 161.429204 
L 99.390524 163.478165 
L 103.437748 166.534484 
L 111.894632 173.311219 
L 119.747453 179.473565 
L 126.090116 184.15472 
L 131.224653 187.709057 
L 137.265284 191.608627 
L 143.305916 195.205806 
L 149.044516 198.350926 
L 155.085148 201.391395 
L 160.99651 204.11246 
L 166.96858 206.623603 
L 172.94065 208.912501 
L 178.912721 210.996935 
L 186.378035 213.335751 
L 193.143845 215.224359 
L 199.909352 216.914346 
L 208.930431 218.891573 
L 217.95151 220.591245 
L 226.972288 222.048829 
L 235.993367 223.298408 
L 247.269716 224.609942 
L 258.545763 225.686693 
L 272.077382 226.725973 
L 286.83102 227.607593 
L 302.923867 228.335417 
L 320.971764 228.933614 
L 344.176548 229.458521 
L 372.537917 229.852889 
L 375.115153 229.874489 
L 375.115153 229.874489 
" style="fill:none;stroke:#0000ff;stroke-dasharray:5.55,2.4;stroke-dashoffset:0;stroke-width:1.5;"/>
   </g>
   <g id="line2d_20"/>
   <g id="line2d_21"/>
   <g id="line2d_22"/>
   <g id="line2d_23"/>
   <g id="line2d_24"/>
   <g id="line2d_25"/>
   <g id="patch_3">
    <path d="M 56.50625 239.758125 
L 56.50625 22.318125 
" style="fill:none;stroke:#000000;stroke-linecap:square;stroke-linejoin:miter;stroke-width:0.8;"/>
   </g>
   <g id="patch_4">
    <path d="M 391.30625 239.758125 
L 391.30625 22.318125 
" style="fill:none;stroke:#000000;stroke-linecap:square;stroke-linejoin:miter;stroke-width:0.8;"/>
   </g>
   <g id="patch_5">
    <path d="M 56.50625 239.758125 
L 391.30625 239.758125 
" style="fill:none;stroke:#000000;stroke-linecap:square;stroke-linejoin:miter;stroke-width:0.8;"/>
   </g>
   <g id="patch_6">
    <path d="M 56.50625 22.318125 
L 391.30625 22.318125 
" style="fill:none;stroke:#000000;stroke-linecap:square;stroke-linejoin:miter;stroke-width:0.8;"/>
   </g>
   <g id="text_17">
    <!-- Experiment_16 -->
    <defs>
     <path d="M 9.8125 72.90625 
L 55.90625 72.90625 
L 55.90625 64.59375 
L 19.671875 64.59375 
L 19.671875 43.015625 
L 54.390625 43.015625 
L 54.390625 34.71875 
L 19.671875 34.71875 
L 19.671875 8.296875 
L 56.78125 8.296875 
L 56.78125 0 
L 9.8125 0 
z
" id="DejaVuSans-69"/>
     <path d="M 54.890625 54.6875 
L 35.109375 28.078125 
L 55.90625 0 
L 45.3125 0 
L 29.390625 21.484375 
L 13.484375 0 
L 2.875 0 
L 24.125 28.609375 
L 4.6875 54.6875 
L 15.28125 54.6875 
L 29.78125 35.203125 
L 44.28125 54.6875 
z
" id="DejaVuSans-120"/>
     <path d="M 18.109375 8.203125 
L 18.109375 -20.796875 
L 9.078125 -20.796875 
L 9.078125 54.6875 
L 18.109375 54.6875 
L 18.109375 46.390625 
Q 20.953125 51.265625 25.265625 53.625 
Q 29.59375 56 35.59375 56 
Q 45.5625 56 51.78125 48.09375 
Q 58.015625 40.1875 58.015625 27.296875 
Q 58.015625 14.40625 51.78125 6.484375 
Q 45.5625 -1.421875 35.59375 -1.421875 
Q 29.59375 -1.421875 25.265625 0.953125 
Q 20.953125 3.328125 18.109375 8.203125 
z
M 48.6875 27.296875 
Q 48.6875 37.203125 44.609375 42.84375 
Q 40.53125 48.484375 33.40625 48.484375 
Q 26.265625 48.484375 22.1875 42.84375 
Q 18.109375 37.203125 18.109375 27.296875 
Q 18.109375 17.390625 22.1875 11.75 
Q 26.265625 6.109375 33.40625 6.109375 
Q 40.53125 6.109375 44.609375 11.75 
Q 48.6875 17.390625 48.6875 27.296875 
z
" id="DejaVuSans-112"/>
     <path d="M 18.3125 70.21875 
L 18.3125 54.6875 
L 36.8125 54.6875 
L 36.8125 47.703125 
L 18.3125 47.703125 
L 18.3125 18.015625 
Q 18.3125 11.328125 20.140625 9.421875 
Q 21.96875 7.515625 27.59375 7.515625 
L 36.8125 7.515625 
L 36.8125 0 
L 27.59375 0 
Q 17.1875 0 13.234375 3.875 
Q 9.28125 7.765625 9.28125 18.015625 
L 9.28125 47.703125 
L 2.6875 47.703125 
L 2.6875 54.6875 
L 9.28125 54.6875 
L 9.28125 70.21875 
z
" id="DejaVuSans-116"/>
     <path d="M 50.984375 -16.609375 
L 50.984375 -23.578125 
L -0.984375 -23.578125 
L -0.984375 -16.609375 
z
" id="DejaVuSans-95"/>
    </defs>
    <g transform="translate(178.603437 16.318125)scale(0.12 -0.12)">
     <use xlink:href="#DejaVuSans-69"/>
     <use x="63.183594" xlink:href="#DejaVuSans-120"/>
     <use x="122.363281" xlink:href="#DejaVuSans-112"/>
     <use x="185.839844" xlink:href="#DejaVuSans-101"/>
     <use x="247.363281" xlink:href="#DejaVuSans-114"/>
     <use x="288.476562" xlink:href="#DejaVuSans-105"/>
     <use x="316.259766" xlink:href="#DejaVuSans-109"/>
     <use x="413.671875" xlink:href="#DejaVuSans-101"/>
     <use x="475.195312" xlink:href="#DejaVuSans-110"/>
     <use x="538.574219" xlink:href="#DejaVuSans-116"/>
     <use x="577.783203" xlink:href="#DejaVuSans-95"/>
     <use x="627.783203" xlink:href="#DejaVuSans-49"/>
     <use x="691.40625" xlink:href="#DejaVuSans-54"/>
    </g>
   </g>
   <g id="legend_1">
    <g id="patch_7">
     <path d="M 128.185937 103.730625 
L 384.30625 103.730625 
Q 386.30625 103.730625 386.30625 101.730625 
L 386.30625 29.318125 
Q 386.30625 27.318125 384.30625 27.318125 
L 128.185937 27.318125 
Q 126.185937 27.318125 126.185937 29.318125 
L 126.185937 101.730625 
Q 126.185937 103.730625 128.185937 103.730625 
z
" style="fill:#ffffff;opacity:0.8;stroke:#cccccc;stroke-linejoin:miter;"/>
    </g>
    <g id="line2d_26"/>
    <g id="line2d_27">
     <g>
      <use style="stroke:#000000;" x="140.185937" xlink:href="#m1d38f25030" y="35.416562"/>
     </g>
    </g>
    <g id="text_18">
     <!-- Experimental Data -->
     <defs>
      <path d="M 9.421875 75.984375 
L 18.40625 75.984375 
L 18.40625 0 
L 9.421875 0 
z
" id="DejaVuSans-108"/>
      <path d="M 19.671875 64.796875 
L 19.671875 8.109375 
L 31.59375 8.109375 
Q 46.6875 8.109375 53.6875 14.9375 
Q 60.6875 21.78125 60.6875 36.53125 
Q 60.6875 51.171875 53.6875 57.984375 
Q 46.6875 64.796875 31.59375 64.796875 
z
M 9.8125 72.90625 
L 30.078125 72.90625 
Q 51.265625 72.90625 61.171875 64.09375 
Q 71.09375 55.28125 71.09375 36.53125 
Q 71.09375 17.671875 61.125 8.828125 
Q 51.171875 0 30.078125 0 
L 9.8125 0 
z
" id="DejaVuSans-68"/>
     </defs>
     <g transform="translate(158.185937 38.916562)scale(0.1 -0.1)">
      <use xlink:href="#DejaVuSans-69"/>
      <use x="63.183594" xlink:href="#DejaVuSans-120"/>
      <use x="122.363281" xlink:href="#DejaVuSans-112"/>
      <use x="185.839844" xlink:href="#DejaVuSans-101"/>
      <use x="247.363281" xlink:href="#DejaVuSans-114"/>
      <use x="288.476562" xlink:href="#DejaVuSans-105"/>
      <use x="316.259766" xlink:href="#DejaVuSans-109"/>
      <use x="413.671875" xlink:href="#DejaVuSans-101"/>
      <use x="475.195312" xlink:href="#DejaVuSans-110"/>
      <use x="538.574219" xlink:href="#DejaVuSans-116"/>
      <use x="577.783203" xlink:href="#DejaVuSans-97"/>
      <use x="639.0625" xlink:href="#DejaVuSans-108"/>
      <use x="666.845703" xlink:href="#DejaVuSans-32"/>
      <use x="698.632812" xlink:href="#DejaVuSans-68"/>
      <use x="775.634766" xlink:href="#DejaVuSans-97"/>
      <use x="836.914062" xlink:href="#DejaVuSans-116"/>
      <use x="876.123047" xlink:href="#DejaVuSans-97"/>
     </g>
    </g>
    <g id="line2d_28">
     <path d="M 130.185937 50.094687 
L 150.185937 50.094687 
" style="fill:none;stroke:#0000ff;stroke-linecap:square;stroke-width:1.5;"/>
    </g>
    <g id="line2d_29"/>
    <g id="text_19">
     <!-- MSI -->
     <defs>
      <path d="M 9.8125 72.90625 
L 24.515625 72.90625 
L 43.109375 23.296875 
L 61.8125 72.90625 
L 76.515625 72.90625 
L 76.515625 0 
L 66.890625 0 
L 66.890625 64.015625 
L 48.09375 14.015625 
L 38.1875 14.015625 
L 19.390625 64.015625 
L 19.390625 0 
L 9.8125 0 
z
" id="DejaVuSans-77"/>
      <path d="M 53.515625 70.515625 
L 53.515625 60.890625 
Q 47.90625 63.578125 42.921875 64.890625 
Q 37.9375 66.21875 33.296875 66.21875 
Q 25.25 66.21875 20.875 63.09375 
Q 16.5 59.96875 16.5 54.203125 
Q 16.5 49.359375 19.40625 46.890625 
Q 22.3125 44.4375 30.421875 42.921875 
L 36.375 41.703125 
Q 47.40625 39.59375 52.65625 34.296875 
Q 57.90625 29 57.90625 20.125 
Q 57.90625 9.515625 50.796875 4.046875 
Q 43.703125 -1.421875 29.984375 -1.421875 
Q 24.8125 -1.421875 18.96875 -0.25 
Q 13.140625 0.921875 6.890625 3.21875 
L 6.890625 13.375 
Q 12.890625 10.015625 18.65625 8.296875 
Q 24.421875 6.59375 29.984375 6.59375 
Q 38.421875 6.59375 43.015625 9.90625 
Q 47.609375 13.234375 47.609375 19.390625 
Q 47.609375 24.75 44.3125 27.78125 
Q 41.015625 30.8125 33.5 32.328125 
L 27.484375 33.5 
Q 16.453125 35.6875 11.515625 40.375 
Q 6.59375 45.0625 6.59375 53.421875 
Q 6.59375 63.09375 13.40625 68.65625 
Q 20.21875 74.21875 32.171875 74.21875 
Q 37.3125 74.21875 42.625 73.28125 
Q 47.953125 72.359375 53.515625 70.515625 
z
" id="DejaVuSans-83"/>
      <path d="M 9.8125 72.90625 
L 19.671875 72.90625 
L 19.671875 0 
L 9.8125 0 
z
" id="DejaVuSans-73"/>
     </defs>
     <g transform="translate(158.185937 53.594687)scale(0.1 -0.1)">
      <use xlink:href="#DejaVuSans-77"/>
      <use x="86.279297" xlink:href="#DejaVuSans-83"/>
      <use x="149.755859" xlink:href="#DejaVuSans-73"/>
     </g>
    </g>
    <g id="line2d_30">
     <path d="M 130.185937 64.774375 
L 150.185937 64.774375 
" style="fill:none;stroke:#ff0000;stroke-linecap:square;stroke-width:1.5;"/>
    </g>
    <g id="line2d_31"/>
    <g id="text_20">
     <!-- $\it{A priori}$ model -->
     <defs>
      <path d="M 36.8125 72.90625 
L 48 72.90625 
L 61.53125 0 
L 51.21875 0 
L 48.1875 18.703125 
L 15.375 18.703125 
L 5.078125 0 
L -5.328125 0 
z
M 40.375 63.1875 
L 19.921875 26.90625 
L 46.6875 26.90625 
z
" id="DejaVuSans-Oblique-65"/>
      <path d="M 49.609375 33.6875 
Q 49.609375 40.875 46.484375 44.671875 
Q 43.359375 48.484375 37.5 48.484375 
Q 33.5 48.484375 29.859375 46.4375 
Q 26.21875 44.390625 23.390625 40.484375 
Q 20.609375 36.625 18.9375 31.15625 
Q 17.28125 25.6875 17.28125 20.3125 
Q 17.28125 13.484375 20.40625 9.796875 
Q 23.53125 6.109375 29.296875 6.109375 
Q 33.546875 6.109375 37.1875 8.109375 
Q 40.828125 10.109375 43.40625 13.921875 
Q 46.1875 17.921875 47.890625 23.34375 
Q 49.609375 28.765625 49.609375 33.6875 
z
M 21.78125 46.390625 
Q 25.390625 51.125 30.296875 53.5625 
Q 35.203125 56 41.21875 56 
Q 49.609375 56 54.25 50.5 
Q 58.890625 45.015625 58.890625 35.109375 
Q 58.890625 27 56 19.65625 
Q 53.125 12.3125 47.703125 6.5 
Q 44.09375 2.640625 39.546875 0.609375 
Q 35.015625 -1.421875 29.984375 -1.421875 
Q 24.171875 -1.421875 20.21875 1 
Q 16.265625 3.421875 14.3125 8.203125 
L 8.6875 -20.796875 
L -0.296875 -20.796875 
L 14.40625 54.6875 
L 23.390625 54.6875 
z
" id="DejaVuSans-Oblique-112"/>
      <path d="M 44.578125 46.390625 
Q 43.21875 47.125 41.453125 47.515625 
Q 39.703125 47.90625 37.703125 47.90625 
Q 30.515625 47.90625 25.140625 42.453125 
Q 19.78125 37.015625 18.015625 27.875 
L 12.5 0 
L 3.515625 0 
L 14.203125 54.6875 
L 23.1875 54.6875 
L 21.484375 46.1875 
Q 25.046875 50.921875 30 53.453125 
Q 34.96875 56 40.578125 56 
Q 42.046875 56 43.453125 55.828125 
Q 44.875 55.671875 46.296875 55.28125 
z
" id="DejaVuSans-Oblique-114"/>
      <path d="M 18.3125 75.984375 
L 27.296875 75.984375 
L 25.09375 64.59375 
L 16.109375 64.59375 
z
M 14.203125 54.6875 
L 23.1875 54.6875 
L 12.5 0 
L 3.515625 0 
z
" id="DejaVuSans-Oblique-105"/>
      <path d="M 25.390625 -1.421875 
Q 15.765625 -1.421875 10.171875 4.515625 
Q 4.59375 10.453125 4.59375 20.703125 
Q 4.59375 26.65625 6.515625 32.828125 
Q 8.453125 39.015625 11.53125 43.21875 
Q 16.359375 49.75 22.3125 52.875 
Q 28.265625 56 35.796875 56 
Q 45.125 56 50.859375 50.1875 
Q 56.59375 44.390625 56.59375 35.015625 
Q 56.59375 28.515625 54.6875 22.0625 
Q 52.78125 15.625 49.703125 11.375 
Q 44.921875 4.828125 38.96875 1.703125 
Q 33.015625 -1.421875 25.390625 -1.421875 
z
M 13.921875 21 
Q 13.921875 13.578125 17.015625 9.890625 
Q 20.125 6.203125 26.421875 6.203125 
Q 35.453125 6.203125 41.375 14.078125 
Q 47.3125 21.96875 47.3125 34.078125 
Q 47.3125 41.15625 44.140625 44.765625 
Q 40.96875 48.390625 34.8125 48.390625 
Q 29.734375 48.390625 25.78125 46.015625 
Q 21.828125 43.65625 18.703125 38.8125 
Q 16.40625 35.203125 15.15625 30.5625 
Q 13.921875 25.921875 13.921875 21 
z
" id="DejaVuSans-Oblique-111"/>
      <path d="M 45.40625 46.390625 
L 45.40625 75.984375 
L 54.390625 75.984375 
L 54.390625 0 
L 45.40625 0 
L 45.40625 8.203125 
Q 42.578125 3.328125 38.25 0.953125 
Q 33.9375 -1.421875 27.875 -1.421875 
Q 17.96875 -1.421875 11.734375 6.484375 
Q 5.515625 14.40625 5.515625 27.296875 
Q 5.515625 40.1875 11.734375 48.09375 
Q 17.96875 56 27.875 56 
Q 33.9375 56 38.25 53.625 
Q 42.578125 51.265625 45.40625 46.390625 
z
M 14.796875 27.296875 
Q 14.796875 17.390625 18.875 11.75 
Q 22.953125 6.109375 30.078125 6.109375 
Q 37.203125 6.109375 41.296875 11.75 
Q 45.40625 17.390625 45.40625 27.296875 
Q 45.40625 37.203125 41.296875 42.84375 
Q 37.203125 48.484375 30.078125 48.484375 
Q 22.953125 48.484375 18.875 42.84375 
Q 14.796875 37.203125 14.796875 27.296875 
z
" id="DejaVuSans-100"/>
     </defs>
     <g transform="translate(158.185937 68.274375)scale(0.1 -0.1)">
      <use transform="translate(0 0.015625)" xlink:href="#DejaVuSans-Oblique-65"/>
      <use transform="translate(68.408203 0.015625)" xlink:href="#DejaVuSans-Oblique-112"/>
      <use transform="translate(131.884766 0.015625)" xlink:href="#DejaVuSans-Oblique-114"/>
      <use transform="translate(172.998047 0.015625)" xlink:href="#DejaVuSans-Oblique-105"/>
      <use transform="translate(200.78125 0.015625)" xlink:href="#DejaVuSans-Oblique-111"/>
      <use transform="translate(261.962891 0.015625)" xlink:href="#DejaVuSans-Oblique-114"/>
      <use transform="translate(303.076172 0.015625)" xlink:href="#DejaVuSans-Oblique-105"/>
      <use transform="translate(330.859375 0.015625)" xlink:href="#DejaVuSans-32"/>
      <use transform="translate(362.646484 0.015625)" xlink:href="#DejaVuSans-109"/>
      <use transform="translate(460.058594 0.015625)" xlink:href="#DejaVuSans-111"/>
      <use transform="translate(521.240234 0.015625)" xlink:href="#DejaVuSans-100"/>
      <use transform="translate(584.716797 0.015625)" xlink:href="#DejaVuSans-101"/>
      <use transform="translate(646.240234 0.015625)" xlink:href="#DejaVuSans-108"/>
     </g>
    </g>
    <g id="line2d_32">
     <path d="M 130.185937 79.472813 
L 150.185937 79.472813 
" style="fill:none;stroke:#ffffff;stroke-linecap:square;stroke-width:1.5;"/>
    </g>
    <g id="line2d_33"/>
    <g id="text_21">
     <!-- T:1194 -->
     <defs>
      <path d="M 11.71875 12.40625 
L 22.015625 12.40625 
L 22.015625 0 
L 11.71875 0 
z
M 11.71875 51.703125 
L 22.015625 51.703125 
L 22.015625 39.3125 
L 11.71875 39.3125 
z
" id="DejaVuSans-58"/>
      <path d="M 10.984375 1.515625 
L 10.984375 10.5 
Q 14.703125 8.734375 18.5 7.8125 
Q 22.3125 6.890625 25.984375 6.890625 
Q 35.75 6.890625 40.890625 13.453125 
Q 46.046875 20.015625 46.78125 33.40625 
Q 43.953125 29.203125 39.59375 26.953125 
Q 35.25 24.703125 29.984375 24.703125 
Q 19.046875 24.703125 12.671875 31.3125 
Q 6.296875 37.9375 6.296875 49.421875 
Q 6.296875 60.640625 12.9375 67.421875 
Q 19.578125 74.21875 30.609375 74.21875 
Q 43.265625 74.21875 49.921875 64.515625 
Q 56.59375 54.828125 56.59375 36.375 
Q 56.59375 19.140625 48.40625 8.859375 
Q 40.234375 -1.421875 26.421875 -1.421875 
Q 22.703125 -1.421875 18.890625 -0.6875 
Q 15.09375 0.046875 10.984375 1.515625 
z
M 30.609375 32.421875 
Q 37.25 32.421875 41.125 36.953125 
Q 45.015625 41.5 45.015625 49.421875 
Q 45.015625 57.28125 41.125 61.84375 
Q 37.25 66.40625 30.609375 66.40625 
Q 23.96875 66.40625 20.09375 61.84375 
Q 16.21875 57.28125 16.21875 49.421875 
Q 16.21875 41.5 20.09375 36.953125 
Q 23.96875 32.421875 30.609375 32.421875 
z
" id="DejaVuSans-57"/>
     </defs>
     <g transform="translate(158.185937 82.972813)scale(0.1 -0.1)">
      <use xlink:href="#DejaVuSans-84"/>
      <use x="60.912109" xlink:href="#DejaVuSans-58"/>
      <use x="94.603516" xlink:href="#DejaVuSans-49"/>
      <use x="158.226562" xlink:href="#DejaVuSans-49"/>
      <use x="221.849609" xlink:href="#DejaVuSans-57"/>
      <use x="285.472656" xlink:href="#DejaVuSans-52"/>
     </g>
    </g>
    <g id="line2d_34">
     <path d="M 130.185937 94.150937 
L 150.185937 94.150937 
" style="fill:none;stroke:#ffffff;stroke-linecap:square;stroke-width:1.5;"/>
    </g>
    <g id="line2d_35"/>
    <g id="text_22">
     <!-- P:1.548 -->
     <defs>
      <path d="M 19.671875 64.796875 
L 19.671875 37.40625 
L 32.078125 37.40625 
Q 38.96875 37.40625 42.71875 40.96875 
Q 46.484375 44.53125 46.484375 51.125 
Q 46.484375 57.671875 42.71875 61.234375 
Q 38.96875 64.796875 32.078125 64.796875 
z
M 9.8125 72.90625 
L 32.078125 72.90625 
Q 44.34375 72.90625 50.609375 67.359375 
Q 56.890625 61.8125 56.890625 51.125 
Q 56.890625 40.328125 50.609375 34.8125 
Q 44.34375 29.296875 32.078125 29.296875 
L 19.671875 29.296875 
L 19.671875 0 
L 9.8125 0 
z
" id="DejaVuSans-80"/>
     </defs>
     <g transform="translate(158.185937 97.650937)scale(0.1 -0.1)">
      <use xlink:href="#DejaVuSans-80"/>
      <use x="60.302734" xlink:href="#DejaVuSans-58"/>
      <use x="93.994141" xlink:href="#DejaVuSans-49"/>
      <use x="157.617188" xlink:href="#DejaVuSans-46"/>
      <use x="189.404297" xlink:href="#DejaVuSans-53"/>
      <use x="253.027344" xlink:href="#DejaVuSans-52"/>
      <use x="316.650391" xlink:href="#DejaVuSans-56"/>
     </g>
    </g>
    <g id="line2d_36">
     <path d="M 271.926563 35.416562 
L 291.926563 35.416562 
" style="fill:none;stroke:#ffffff;stroke-linecap:square;stroke-width:1.5;"/>
    </g>
    <g id="line2d_37"/>
    <g id="text_23">
     <!-- H2O2: 0.001905 -->
     <defs>
      <path d="M 9.8125 72.90625 
L 19.671875 72.90625 
L 19.671875 43.015625 
L 55.515625 43.015625 
L 55.515625 72.90625 
L 65.375 72.90625 
L 65.375 0 
L 55.515625 0 
L 55.515625 34.71875 
L 19.671875 34.71875 
L 19.671875 0 
L 9.8125 0 
z
" id="DejaVuSans-72"/>
      <path d="M 39.40625 66.21875 
Q 28.65625 66.21875 22.328125 58.203125 
Q 16.015625 50.203125 16.015625 36.375 
Q 16.015625 22.609375 22.328125 14.59375 
Q 28.65625 6.59375 39.40625 6.59375 
Q 50.140625 6.59375 56.421875 14.59375 
Q 62.703125 22.609375 62.703125 36.375 
Q 62.703125 50.203125 56.421875 58.203125 
Q 50.140625 66.21875 39.40625 66.21875 
z
M 39.40625 74.21875 
Q 54.734375 74.21875 63.90625 63.9375 
Q 73.09375 53.65625 73.09375 36.375 
Q 73.09375 19.140625 63.90625 8.859375 
Q 54.734375 -1.421875 39.40625 -1.421875 
Q 24.03125 -1.421875 14.8125 8.828125 
Q 5.609375 19.09375 5.609375 36.375 
Q 5.609375 53.65625 14.8125 63.9375 
Q 24.03125 74.21875 39.40625 74.21875 
z
" id="DejaVuSans-79"/>
     </defs>
     <g transform="translate(299.926563 38.916562)scale(0.1 -0.1)">
      <use xlink:href="#DejaVuSans-72"/>
      <use x="75.195312" xlink:href="#DejaVuSans-50"/>
      <use x="138.818359" xlink:href="#DejaVuSans-79"/>
      <use x="217.529297" xlink:href="#DejaVuSans-50"/>
      <use x="281.152344" xlink:href="#DejaVuSans-58"/>
      <use x="314.84375" xlink:href="#DejaVuSans-32"/>
      <use x="346.630859" xlink:href="#DejaVuSans-48"/>
      <use x="410.253906" xlink:href="#DejaVuSans-46"/>
      <use x="442.041016" xlink:href="#DejaVuSans-48"/>
      <use x="505.664062" xlink:href="#DejaVuSans-48"/>
      <use x="569.287109" xlink:href="#DejaVuSans-49"/>
      <use x="632.910156" xlink:href="#DejaVuSans-57"/>
      <use x="696.533203" xlink:href="#DejaVuSans-48"/>
      <use x="760.15625" xlink:href="#DejaVuSans-53"/>
     </g>
    </g>
    <g id="line2d_38">
     <path d="M 271.926563 50.094687 
L 291.926563 50.094687 
" style="fill:none;stroke:#ffffff;stroke-linecap:square;stroke-width:1.5;"/>
    </g>
    <g id="line2d_39"/>
    <g id="text_24">
     <!-- H2O: 0.001113 -->
     <defs>
      <path d="M 40.578125 39.3125 
Q 47.65625 37.796875 51.625 33 
Q 55.609375 28.21875 55.609375 21.1875 
Q 55.609375 10.40625 48.1875 4.484375 
Q 40.765625 -1.421875 27.09375 -1.421875 
Q 22.515625 -1.421875 17.65625 -0.515625 
Q 12.796875 0.390625 7.625 2.203125 
L 7.625 11.71875 
Q 11.71875 9.328125 16.59375 8.109375 
Q 21.484375 6.890625 26.8125 6.890625 
Q 36.078125 6.890625 40.9375 10.546875 
Q 45.796875 14.203125 45.796875 21.1875 
Q 45.796875 27.640625 41.28125 31.265625 
Q 36.765625 34.90625 28.71875 34.90625 
L 20.21875 34.90625 
L 20.21875 43.015625 
L 29.109375 43.015625 
Q 36.375 43.015625 40.234375 45.921875 
Q 44.09375 48.828125 44.09375 54.296875 
Q 44.09375 59.90625 40.109375 62.90625 
Q 36.140625 65.921875 28.71875 65.921875 
Q 24.65625 65.921875 20.015625 65.03125 
Q 15.375 64.15625 9.8125 62.3125 
L 9.8125 71.09375 
Q 15.4375 72.65625 20.34375 73.4375 
Q 25.25 74.21875 29.59375 74.21875 
Q 40.828125 74.21875 47.359375 69.109375 
Q 53.90625 64.015625 53.90625 55.328125 
Q 53.90625 49.265625 50.4375 45.09375 
Q 46.96875 40.921875 40.578125 39.3125 
z
" id="DejaVuSans-51"/>
     </defs>
     <g transform="translate(299.926563 53.594687)scale(0.1 -0.1)">
      <use xlink:href="#DejaVuSans-72"/>
      <use x="75.195312" xlink:href="#DejaVuSans-50"/>
      <use x="138.818359" xlink:href="#DejaVuSans-79"/>
      <use x="217.513672" xlink:href="#DejaVuSans-58"/>
      <use x="251.205078" xlink:href="#DejaVuSans-32"/>
      <use x="282.992188" xlink:href="#DejaVuSans-48"/>
      <use x="346.615234" xlink:href="#DejaVuSans-46"/>
      <use x="378.402344" xlink:href="#DejaVuSans-48"/>
      <use x="442.025391" xlink:href="#DejaVuSans-48"/>
      <use x="505.648438" xlink:href="#DejaVuSans-49"/>
      <use x="569.271484" xlink:href="#DejaVuSans-49"/>
      <use x="632.894531" xlink:href="#DejaVuSans-49"/>
      <use x="696.517578" xlink:href="#DejaVuSans-51"/>
     </g>
    </g>
    <g id="line2d_40">
     <path d="M 271.926563 64.772812 
L 291.926563 64.772812 
" style="fill:none;stroke:#ffffff;stroke-linecap:square;stroke-width:1.5;"/>
    </g>
    <g id="line2d_41"/>
    <g id="text_25">
     <!-- O2: 0.000556 -->
     <g transform="translate(299.926563 68.272812)scale(0.1 -0.1)">
      <use xlink:href="#DejaVuSans-79"/>
      <use x="78.710938" xlink:href="#DejaVuSans-50"/>
      <use x="142.333984" xlink:href="#DejaVuSans-58"/>
      <use x="176.025391" xlink:href="#DejaVuSans-32"/>
      <use x="207.8125" xlink:href="#DejaVuSans-48"/>
      <use x="271.435547" xlink:href="#DejaVuSans-46"/>
      <use x="303.222656" xlink:href="#DejaVuSans-48"/>
      <use x="366.845703" xlink:href="#DejaVuSans-48"/>
      <use x="430.46875" xlink:href="#DejaVuSans-48"/>
      <use x="494.091797" xlink:href="#DejaVuSans-53"/>
      <use x="557.714844" xlink:href="#DejaVuSans-53"/>
      <use x="621.337891" xlink:href="#DejaVuSans-54"/>
     </g>
    </g>
    <g id="line2d_42">
     <path d="M 271.926563 79.450938 
L 291.926563 79.450938 
" style="fill:none;stroke:#ffffff;stroke-linecap:square;stroke-width:1.5;"/>
    </g>
    <g id="line2d_43"/>
    <g id="text_26">
     <!-- Ar: 0.996401 -->
     <g transform="translate(299.926563 82.950938)scale(0.1 -0.1)">
      <use xlink:href="#DejaVuSans-65"/>
      <use x="68.408203" xlink:href="#DejaVuSans-114"/>
      <use x="109.505859" xlink:href="#DejaVuSans-58"/>
      <use x="143.197266" xlink:href="#DejaVuSans-32"/>
      <use x="174.984375" xlink:href="#DejaVuSans-48"/>
      <use x="238.607422" xlink:href="#DejaVuSans-46"/>
      <use x="270.394531" xlink:href="#DejaVuSans-57"/>
      <use x="334.017578" xlink:href="#DejaVuSans-57"/>
      <use x="397.640625" xlink:href="#DejaVuSans-54"/>
      <use x="461.263672" xlink:href="#DejaVuSans-52"/>
      <use x="524.886719" xlink:href="#DejaVuSans-48"/>
      <use x="588.509766" xlink:href="#DejaVuSans-49"/>
     </g>
    </g>
   </g>
  </g>
 </g>
 <defs>
  <clipPath id="p9521c7dc7f">
   <rect height="217.44" width="334.8" x="56.50625" y="22.318125"/>
  </clipPath>
 </defs>
</svg>
