<?xml version="1.0" encoding="utf-8" standalone="no"?>
<!DOCTYPE svg PUBLIC "-//W3C//DTD SVG 1.1//EN"
  "http://www.w3.org/Graphics/SVG/1.1/DTD/svg11.dtd">
<!-- Created with matplotlib (https://matplotlib.org/) -->
<svg height="277.314375pt" version="1.1" viewBox="0 0 395.64375 277.314375" width="395.64375pt" xmlns="http://www.w3.org/2000/svg" xmlns:xlink="http://www.w3.org/1999/xlink">
 <defs>
  <style type="text/css">
*{stroke-linecap:butt;stroke-linejoin:round;}
  </style>
 </defs>
 <g id="figure_1">
  <g id="patch_1">
   <path d="M 0 277.314375 
L 395.64375 277.314375 
L 395.64375 0 
L 0 0 
z
" style="fill:none;"/>
  </g>
  <g id="axes_1">
   <g id="patch_2">
    <path d="M 50.14375 239.758125 
L 384.94375 239.758125 
L 384.94375 22.318125 
L 50.14375 22.318125 
z
" style="fill:none;"/>
   </g>
   <g id="matplotlib.axis_1">
    <g id="xtick_1">
     <g id="line2d_1">
      <defs>
       <path d="M 0 0 
L 0 3.5 
" id="m673aba144c" style="stroke:#000000;stroke-width:0.8;"/>
      </defs>
      <g>
       <use style="stroke:#000000;stroke-width:0.8;" x="65.361932" xlink:href="#m673aba144c" y="239.758125"/>
      </g>
     </g>
     <g id="text_1">
      <!-- 0.0 -->
      <defs>
       <path d="M 31.78125 66.40625 
Q 24.171875 66.40625 20.328125 58.90625 
Q 16.5 51.421875 16.5 36.375 
Q 16.5 21.390625 20.328125 13.890625 
Q 24.171875 6.390625 31.78125 6.390625 
Q 39.453125 6.390625 43.28125 13.890625 
Q 47.125 21.390625 47.125 36.375 
Q 47.125 51.421875 43.28125 58.90625 
Q 39.453125 66.40625 31.78125 66.40625 
z
M 31.78125 74.21875 
Q 44.046875 74.21875 50.515625 64.515625 
Q 56.984375 54.828125 56.984375 36.375 
Q 56.984375 17.96875 50.515625 8.265625 
Q 44.046875 -1.421875 31.78125 -1.421875 
Q 19.53125 -1.421875 13.0625 8.265625 
Q 6.59375 17.96875 6.59375 36.375 
Q 6.59375 54.828125 13.0625 64.515625 
Q 19.53125 74.21875 31.78125 74.21875 
z
" id="DejaVuSans-48"/>
       <path d="M 10.6875 12.40625 
L 21 12.40625 
L 21 0 
L 10.6875 0 
z
" id="DejaVuSans-46"/>
      </defs>
      <g transform="translate(57.410369 254.356562)scale(0.1 -0.1)">
       <use xlink:href="#DejaVuSans-48"/>
       <use x="63.623047" xlink:href="#DejaVuSans-46"/>
       <use x="95.410156" xlink:href="#DejaVuSans-48"/>
      </g>
     </g>
    </g>
    <g id="xtick_2">
     <g id="line2d_2">
      <g>
       <use style="stroke:#000000;stroke-width:0.8;" x="126.066588" xlink:href="#m673aba144c" y="239.758125"/>
      </g>
     </g>
     <g id="text_2">
      <!-- 0.2 -->
      <defs>
       <path d="M 19.1875 8.296875 
L 53.609375 8.296875 
L 53.609375 0 
L 7.328125 0 
L 7.328125 8.296875 
Q 12.9375 14.109375 22.625 23.890625 
Q 32.328125 33.6875 34.8125 36.53125 
Q 39.546875 41.84375 41.421875 45.53125 
Q 43.3125 49.21875 43.3125 52.78125 
Q 43.3125 58.59375 39.234375 62.25 
Q 35.15625 65.921875 28.609375 65.921875 
Q 23.96875 65.921875 18.8125 64.3125 
Q 13.671875 62.703125 7.8125 59.421875 
L 7.8125 69.390625 
Q 13.765625 71.78125 18.9375 73 
Q 24.125 74.21875 28.421875 74.21875 
Q 39.75 74.21875 46.484375 68.546875 
Q 53.21875 62.890625 53.21875 53.421875 
Q 53.21875 48.921875 51.53125 44.890625 
Q 49.859375 40.875 45.40625 35.40625 
Q 44.1875 33.984375 37.640625 27.21875 
Q 31.109375 20.453125 19.1875 8.296875 
z
" id="DejaVuSans-50"/>
      </defs>
      <g transform="translate(118.115026 254.356562)scale(0.1 -0.1)">
       <use xlink:href="#DejaVuSans-48"/>
       <use x="63.623047" xlink:href="#DejaVuSans-46"/>
       <use x="95.410156" xlink:href="#DejaVuSans-50"/>
      </g>
     </g>
    </g>
    <g id="xtick_3">
     <g id="line2d_3">
      <g>
       <use style="stroke:#000000;stroke-width:0.8;" x="186.771244" xlink:href="#m673aba144c" y="239.758125"/>
      </g>
     </g>
     <g id="text_3">
      <!-- 0.4 -->
      <defs>
       <path d="M 37.796875 64.3125 
L 12.890625 25.390625 
L 37.796875 25.390625 
z
M 35.203125 72.90625 
L 47.609375 72.90625 
L 47.609375 25.390625 
L 58.015625 25.390625 
L 58.015625 17.1875 
L 47.609375 17.1875 
L 47.609375 0 
L 37.796875 0 
L 37.796875 17.1875 
L 4.890625 17.1875 
L 4.890625 26.703125 
z
" id="DejaVuSans-52"/>
      </defs>
      <g transform="translate(178.819682 254.356562)scale(0.1 -0.1)">
       <use xlink:href="#DejaVuSans-48"/>
       <use x="63.623047" xlink:href="#DejaVuSans-46"/>
       <use x="95.410156" xlink:href="#DejaVuSans-52"/>
      </g>
     </g>
    </g>
    <g id="xtick_4">
     <g id="line2d_4">
      <g>
       <use style="stroke:#000000;stroke-width:0.8;" x="247.475901" xlink:href="#m673aba144c" y="239.758125"/>
      </g>
     </g>
     <g id="text_4">
      <!-- 0.6 -->
      <defs>
       <path d="M 33.015625 40.375 
Q 26.375 40.375 22.484375 35.828125 
Q 18.609375 31.296875 18.609375 23.390625 
Q 18.609375 15.53125 22.484375 10.953125 
Q 26.375 6.390625 33.015625 6.390625 
Q 39.65625 6.390625 43.53125 10.953125 
Q 47.40625 15.53125 47.40625 23.390625 
Q 47.40625 31.296875 43.53125 35.828125 
Q 39.65625 40.375 33.015625 40.375 
z
M 52.59375 71.296875 
L 52.59375 62.3125 
Q 48.875 64.0625 45.09375 64.984375 
Q 41.3125 65.921875 37.59375 65.921875 
Q 27.828125 65.921875 22.671875 59.328125 
Q 17.53125 52.734375 16.796875 39.40625 
Q 19.671875 43.65625 24.015625 45.921875 
Q 28.375 48.1875 33.59375 48.1875 
Q 44.578125 48.1875 50.953125 41.515625 
Q 57.328125 34.859375 57.328125 23.390625 
Q 57.328125 12.15625 50.6875 5.359375 
Q 44.046875 -1.421875 33.015625 -1.421875 
Q 20.359375 -1.421875 13.671875 8.265625 
Q 6.984375 17.96875 6.984375 36.375 
Q 6.984375 53.65625 15.1875 63.9375 
Q 23.390625 74.21875 37.203125 74.21875 
Q 40.921875 74.21875 44.703125 73.484375 
Q 48.484375 72.75 52.59375 71.296875 
z
" id="DejaVuSans-54"/>
      </defs>
      <g transform="translate(239.524338 254.356562)scale(0.1 -0.1)">
       <use xlink:href="#DejaVuSans-48"/>
       <use x="63.623047" xlink:href="#DejaVuSans-46"/>
       <use x="95.410156" xlink:href="#DejaVuSans-54"/>
      </g>
     </g>
    </g>
    <g id="xtick_5">
     <g id="line2d_5">
      <g>
       <use style="stroke:#000000;stroke-width:0.8;" x="308.180557" xlink:href="#m673aba144c" y="239.758125"/>
      </g>
     </g>
     <g id="text_5">
      <!-- 0.8 -->
      <defs>
       <path d="M 31.78125 34.625 
Q 24.75 34.625 20.71875 30.859375 
Q 16.703125 27.09375 16.703125 20.515625 
Q 16.703125 13.921875 20.71875 10.15625 
Q 24.75 6.390625 31.78125 6.390625 
Q 38.8125 6.390625 42.859375 10.171875 
Q 46.921875 13.96875 46.921875 20.515625 
Q 46.921875 27.09375 42.890625 30.859375 
Q 38.875 34.625 31.78125 34.625 
z
M 21.921875 38.8125 
Q 15.578125 40.375 12.03125 44.71875 
Q 8.5 49.078125 8.5 55.328125 
Q 8.5 64.0625 14.71875 69.140625 
Q 20.953125 74.21875 31.78125 74.21875 
Q 42.671875 74.21875 48.875 69.140625 
Q 55.078125 64.0625 55.078125 55.328125 
Q 55.078125 49.078125 51.53125 44.71875 
Q 48 40.375 41.703125 38.8125 
Q 48.828125 37.15625 52.796875 32.3125 
Q 56.78125 27.484375 56.78125 20.515625 
Q 56.78125 9.90625 50.3125 4.234375 
Q 43.84375 -1.421875 31.78125 -1.421875 
Q 19.734375 -1.421875 13.25 4.234375 
Q 6.78125 9.90625 6.78125 20.515625 
Q 6.78125 27.484375 10.78125 32.3125 
Q 14.796875 37.15625 21.921875 38.8125 
z
M 18.3125 54.390625 
Q 18.3125 48.734375 21.84375 45.5625 
Q 25.390625 42.390625 31.78125 42.390625 
Q 38.140625 42.390625 41.71875 45.5625 
Q 45.3125 48.734375 45.3125 54.390625 
Q 45.3125 60.0625 41.71875 63.234375 
Q 38.140625 66.40625 31.78125 66.40625 
Q 25.390625 66.40625 21.84375 63.234375 
Q 18.3125 60.0625 18.3125 54.390625 
z
" id="DejaVuSans-56"/>
      </defs>
      <g transform="translate(300.228995 254.356562)scale(0.1 -0.1)">
       <use xlink:href="#DejaVuSans-48"/>
       <use x="63.623047" xlink:href="#DejaVuSans-46"/>
       <use x="95.410156" xlink:href="#DejaVuSans-56"/>
      </g>
     </g>
    </g>
    <g id="xtick_6">
     <g id="line2d_6">
      <g>
       <use style="stroke:#000000;stroke-width:0.8;" x="368.885213" xlink:href="#m673aba144c" y="239.758125"/>
      </g>
     </g>
     <g id="text_6">
      <!-- 1.0 -->
      <defs>
       <path d="M 12.40625 8.296875 
L 28.515625 8.296875 
L 28.515625 63.921875 
L 10.984375 60.40625 
L 10.984375 69.390625 
L 28.421875 72.90625 
L 38.28125 72.90625 
L 38.28125 8.296875 
L 54.390625 8.296875 
L 54.390625 0 
L 12.40625 0 
z
" id="DejaVuSans-49"/>
      </defs>
      <g transform="translate(360.933651 254.356562)scale(0.1 -0.1)">
       <use xlink:href="#DejaVuSans-49"/>
       <use x="63.623047" xlink:href="#DejaVuSans-46"/>
       <use x="95.410156" xlink:href="#DejaVuSans-48"/>
      </g>
     </g>
    </g>
    <g id="text_7">
     <!-- Time (ms) -->
     <defs>
      <path d="M -0.296875 72.90625 
L 61.375 72.90625 
L 61.375 64.59375 
L 35.5 64.59375 
L 35.5 0 
L 25.59375 0 
L 25.59375 64.59375 
L -0.296875 64.59375 
z
" id="DejaVuSans-84"/>
      <path d="M 9.421875 54.6875 
L 18.40625 54.6875 
L 18.40625 0 
L 9.421875 0 
z
M 9.421875 75.984375 
L 18.40625 75.984375 
L 18.40625 64.59375 
L 9.421875 64.59375 
z
" id="DejaVuSans-105"/>
      <path d="M 52 44.1875 
Q 55.375 50.25 60.0625 53.125 
Q 64.75 56 71.09375 56 
Q 79.640625 56 84.28125 50.015625 
Q 88.921875 44.046875 88.921875 33.015625 
L 88.921875 0 
L 79.890625 0 
L 79.890625 32.71875 
Q 79.890625 40.578125 77.09375 44.375 
Q 74.3125 48.1875 68.609375 48.1875 
Q 61.625 48.1875 57.5625 43.546875 
Q 53.515625 38.921875 53.515625 30.90625 
L 53.515625 0 
L 44.484375 0 
L 44.484375 32.71875 
Q 44.484375 40.625 41.703125 44.40625 
Q 38.921875 48.1875 33.109375 48.1875 
Q 26.21875 48.1875 22.15625 43.53125 
Q 18.109375 38.875 18.109375 30.90625 
L 18.109375 0 
L 9.078125 0 
L 9.078125 54.6875 
L 18.109375 54.6875 
L 18.109375 46.1875 
Q 21.1875 51.21875 25.484375 53.609375 
Q 29.78125 56 35.6875 56 
Q 41.65625 56 45.828125 52.96875 
Q 50 49.953125 52 44.1875 
z
" id="DejaVuSans-109"/>
      <path d="M 56.203125 29.59375 
L 56.203125 25.203125 
L 14.890625 25.203125 
Q 15.484375 15.921875 20.484375 11.0625 
Q 25.484375 6.203125 34.421875 6.203125 
Q 39.59375 6.203125 44.453125 7.46875 
Q 49.3125 8.734375 54.109375 11.28125 
L 54.109375 2.78125 
Q 49.265625 0.734375 44.1875 -0.34375 
Q 39.109375 -1.421875 33.890625 -1.421875 
Q 20.796875 -1.421875 13.15625 6.1875 
Q 5.515625 13.8125 5.515625 26.8125 
Q 5.515625 40.234375 12.765625 48.109375 
Q 20.015625 56 32.328125 56 
Q 43.359375 56 49.78125 48.890625 
Q 56.203125 41.796875 56.203125 29.59375 
z
M 47.21875 32.234375 
Q 47.125 39.59375 43.09375 43.984375 
Q 39.0625 48.390625 32.421875 48.390625 
Q 24.90625 48.390625 20.390625 44.140625 
Q 15.875 39.890625 15.1875 32.171875 
z
" id="DejaVuSans-101"/>
      <path id="DejaVuSans-32"/>
      <path d="M 31 75.875 
Q 24.46875 64.65625 21.28125 53.65625 
Q 18.109375 42.671875 18.109375 31.390625 
Q 18.109375 20.125 21.3125 9.0625 
Q 24.515625 -2 31 -13.1875 
L 23.1875 -13.1875 
Q 15.875 -1.703125 12.234375 9.375 
Q 8.59375 20.453125 8.59375 31.390625 
Q 8.59375 42.28125 12.203125 53.3125 
Q 15.828125 64.359375 23.1875 75.875 
z
" id="DejaVuSans-40"/>
      <path d="M 44.28125 53.078125 
L 44.28125 44.578125 
Q 40.484375 46.53125 36.375 47.5 
Q 32.28125 48.484375 27.875 48.484375 
Q 21.1875 48.484375 17.84375 46.4375 
Q 14.5 44.390625 14.5 40.28125 
Q 14.5 37.15625 16.890625 35.375 
Q 19.28125 33.59375 26.515625 31.984375 
L 29.59375 31.296875 
Q 39.15625 29.25 43.1875 25.515625 
Q 47.21875 21.78125 47.21875 15.09375 
Q 47.21875 7.46875 41.1875 3.015625 
Q 35.15625 -1.421875 24.609375 -1.421875 
Q 20.21875 -1.421875 15.453125 -0.5625 
Q 10.6875 0.296875 5.421875 2 
L 5.421875 11.28125 
Q 10.40625 8.6875 15.234375 7.390625 
Q 20.0625 6.109375 24.8125 6.109375 
Q 31.15625 6.109375 34.5625 8.28125 
Q 37.984375 10.453125 37.984375 14.40625 
Q 37.984375 18.0625 35.515625 20.015625 
Q 33.0625 21.96875 24.703125 23.78125 
L 21.578125 24.515625 
Q 13.234375 26.265625 9.515625 29.90625 
Q 5.8125 33.546875 5.8125 39.890625 
Q 5.8125 47.609375 11.28125 51.796875 
Q 16.75 56 26.8125 56 
Q 31.78125 56 36.171875 55.265625 
Q 40.578125 54.546875 44.28125 53.078125 
z
" id="DejaVuSans-115"/>
      <path d="M 8.015625 75.875 
L 15.828125 75.875 
Q 23.140625 64.359375 26.78125 53.3125 
Q 30.421875 42.28125 30.421875 31.390625 
Q 30.421875 20.453125 26.78125 9.375 
Q 23.140625 -1.703125 15.828125 -13.1875 
L 8.015625 -13.1875 
Q 14.5 -2 17.703125 9.0625 
Q 20.90625 20.125 20.90625 31.390625 
Q 20.90625 42.671875 17.703125 53.65625 
Q 14.5 64.65625 8.015625 75.875 
z
" id="DejaVuSans-41"/>
     </defs>
     <g transform="translate(192.190625 268.034687)scale(0.1 -0.1)">
      <use xlink:href="#DejaVuSans-84"/>
      <use x="61.037109" xlink:href="#DejaVuSans-105"/>
      <use x="88.820312" xlink:href="#DejaVuSans-109"/>
      <use x="186.232422" xlink:href="#DejaVuSans-101"/>
      <use x="247.755859" xlink:href="#DejaVuSans-32"/>
      <use x="279.542969" xlink:href="#DejaVuSans-40"/>
      <use x="318.556641" xlink:href="#DejaVuSans-109"/>
      <use x="415.96875" xlink:href="#DejaVuSans-115"/>
      <use x="468.068359" xlink:href="#DejaVuSans-41"/>
     </g>
    </g>
   </g>
   <g id="matplotlib.axis_2">
    <g id="ytick_1">
     <g id="line2d_7">
      <defs>
       <path d="M 0 0 
L -3.5 0 
" id="mf96411de20" style="stroke:#000000;stroke-width:0.8;"/>
      </defs>
      <g>
       <use style="stroke:#000000;stroke-width:0.8;" x="50.14375" xlink:href="#mf96411de20" y="230.019589"/>
      </g>
     </g>
     <g id="text_8">
      <!-- 0.00 -->
      <g transform="translate(20.878125 233.818808)scale(0.1 -0.1)">
       <use xlink:href="#DejaVuSans-48"/>
       <use x="63.623047" xlink:href="#DejaVuSans-46"/>
       <use x="95.410156" xlink:href="#DejaVuSans-48"/>
       <use x="159.033203" xlink:href="#DejaVuSans-48"/>
      </g>
     </g>
    </g>
    <g id="ytick_2">
     <g id="line2d_8">
      <g>
       <use style="stroke:#000000;stroke-width:0.8;" x="50.14375" xlink:href="#mf96411de20" y="197.053335"/>
      </g>
     </g>
     <g id="text_9">
      <!-- 0.02 -->
      <g transform="translate(20.878125 200.852554)scale(0.1 -0.1)">
       <use xlink:href="#DejaVuSans-48"/>
       <use x="63.623047" xlink:href="#DejaVuSans-46"/>
       <use x="95.410156" xlink:href="#DejaVuSans-48"/>
       <use x="159.033203" xlink:href="#DejaVuSans-50"/>
      </g>
     </g>
    </g>
    <g id="ytick_3">
     <g id="line2d_9">
      <g>
       <use style="stroke:#000000;stroke-width:0.8;" x="50.14375" xlink:href="#mf96411de20" y="164.08708"/>
      </g>
     </g>
     <g id="text_10">
      <!-- 0.04 -->
      <g transform="translate(20.878125 167.886299)scale(0.1 -0.1)">
       <use xlink:href="#DejaVuSans-48"/>
       <use x="63.623047" xlink:href="#DejaVuSans-46"/>
       <use x="95.410156" xlink:href="#DejaVuSans-48"/>
       <use x="159.033203" xlink:href="#DejaVuSans-52"/>
      </g>
     </g>
    </g>
    <g id="ytick_4">
     <g id="line2d_10">
      <g>
       <use style="stroke:#000000;stroke-width:0.8;" x="50.14375" xlink:href="#mf96411de20" y="131.120826"/>
      </g>
     </g>
     <g id="text_11">
      <!-- 0.06 -->
      <g transform="translate(20.878125 134.920045)scale(0.1 -0.1)">
       <use xlink:href="#DejaVuSans-48"/>
       <use x="63.623047" xlink:href="#DejaVuSans-46"/>
       <use x="95.410156" xlink:href="#DejaVuSans-48"/>
       <use x="159.033203" xlink:href="#DejaVuSans-54"/>
      </g>
     </g>
    </g>
    <g id="ytick_5">
     <g id="line2d_11">
      <g>
       <use style="stroke:#000000;stroke-width:0.8;" x="50.14375" xlink:href="#mf96411de20" y="98.154571"/>
      </g>
     </g>
     <g id="text_12">
      <!-- 0.08 -->
      <g transform="translate(20.878125 101.95379)scale(0.1 -0.1)">
       <use xlink:href="#DejaVuSans-48"/>
       <use x="63.623047" xlink:href="#DejaVuSans-46"/>
       <use x="95.410156" xlink:href="#DejaVuSans-48"/>
       <use x="159.033203" xlink:href="#DejaVuSans-56"/>
      </g>
     </g>
    </g>
    <g id="ytick_6">
     <g id="line2d_12">
      <g>
       <use style="stroke:#000000;stroke-width:0.8;" x="50.14375" xlink:href="#mf96411de20" y="65.188317"/>
      </g>
     </g>
     <g id="text_13">
      <!-- 0.10 -->
      <g transform="translate(20.878125 68.987536)scale(0.1 -0.1)">
       <use xlink:href="#DejaVuSans-48"/>
       <use x="63.623047" xlink:href="#DejaVuSans-46"/>
       <use x="95.410156" xlink:href="#DejaVuSans-49"/>
       <use x="159.033203" xlink:href="#DejaVuSans-48"/>
      </g>
     </g>
    </g>
    <g id="ytick_7">
     <g id="line2d_13">
      <g>
       <use style="stroke:#000000;stroke-width:0.8;" x="50.14375" xlink:href="#mf96411de20" y="32.222063"/>
      </g>
     </g>
     <g id="text_14">
      <!-- 0.12 -->
      <g transform="translate(20.878125 36.021281)scale(0.1 -0.1)">
       <use xlink:href="#DejaVuSans-48"/>
       <use x="63.623047" xlink:href="#DejaVuSans-46"/>
       <use x="95.410156" xlink:href="#DejaVuSans-49"/>
       <use x="159.033203" xlink:href="#DejaVuSans-50"/>
      </g>
     </g>
    </g>
    <g id="text_15">
     <!-- Absorbance227 -->
     <defs>
      <path d="M 34.1875 63.1875 
L 20.796875 26.90625 
L 47.609375 26.90625 
z
M 28.609375 72.90625 
L 39.796875 72.90625 
L 67.578125 0 
L 57.328125 0 
L 50.6875 18.703125 
L 17.828125 18.703125 
L 11.1875 0 
L 0.78125 0 
z
" id="DejaVuSans-65"/>
      <path d="M 48.6875 27.296875 
Q 48.6875 37.203125 44.609375 42.84375 
Q 40.53125 48.484375 33.40625 48.484375 
Q 26.265625 48.484375 22.1875 42.84375 
Q 18.109375 37.203125 18.109375 27.296875 
Q 18.109375 17.390625 22.1875 11.75 
Q 26.265625 6.109375 33.40625 6.109375 
Q 40.53125 6.109375 44.609375 11.75 
Q 48.6875 17.390625 48.6875 27.296875 
z
M 18.109375 46.390625 
Q 20.953125 51.265625 25.265625 53.625 
Q 29.59375 56 35.59375 56 
Q 45.5625 56 51.78125 48.09375 
Q 58.015625 40.1875 58.015625 27.296875 
Q 58.015625 14.40625 51.78125 6.484375 
Q 45.5625 -1.421875 35.59375 -1.421875 
Q 29.59375 -1.421875 25.265625 0.953125 
Q 20.953125 3.328125 18.109375 8.203125 
L 18.109375 0 
L 9.078125 0 
L 9.078125 75.984375 
L 18.109375 75.984375 
z
" id="DejaVuSans-98"/>
      <path d="M 30.609375 48.390625 
Q 23.390625 48.390625 19.1875 42.75 
Q 14.984375 37.109375 14.984375 27.296875 
Q 14.984375 17.484375 19.15625 11.84375 
Q 23.34375 6.203125 30.609375 6.203125 
Q 37.796875 6.203125 41.984375 11.859375 
Q 46.1875 17.53125 46.1875 27.296875 
Q 46.1875 37.015625 41.984375 42.703125 
Q 37.796875 48.390625 30.609375 48.390625 
z
M 30.609375 56 
Q 42.328125 56 49.015625 48.375 
Q 55.71875 40.765625 55.71875 27.296875 
Q 55.71875 13.875 49.015625 6.21875 
Q 42.328125 -1.421875 30.609375 -1.421875 
Q 18.84375 -1.421875 12.171875 6.21875 
Q 5.515625 13.875 5.515625 27.296875 
Q 5.515625 40.765625 12.171875 48.375 
Q 18.84375 56 30.609375 56 
z
" id="DejaVuSans-111"/>
      <path d="M 41.109375 46.296875 
Q 39.59375 47.171875 37.8125 47.578125 
Q 36.03125 48 33.890625 48 
Q 26.265625 48 22.1875 43.046875 
Q 18.109375 38.09375 18.109375 28.8125 
L 18.109375 0 
L 9.078125 0 
L 9.078125 54.6875 
L 18.109375 54.6875 
L 18.109375 46.1875 
Q 20.953125 51.171875 25.484375 53.578125 
Q 30.03125 56 36.53125 56 
Q 37.453125 56 38.578125 55.875 
Q 39.703125 55.765625 41.0625 55.515625 
z
" id="DejaVuSans-114"/>
      <path d="M 34.28125 27.484375 
Q 23.390625 27.484375 19.1875 25 
Q 14.984375 22.515625 14.984375 16.5 
Q 14.984375 11.71875 18.140625 8.90625 
Q 21.296875 6.109375 26.703125 6.109375 
Q 34.1875 6.109375 38.703125 11.40625 
Q 43.21875 16.703125 43.21875 25.484375 
L 43.21875 27.484375 
z
M 52.203125 31.203125 
L 52.203125 0 
L 43.21875 0 
L 43.21875 8.296875 
Q 40.140625 3.328125 35.546875 0.953125 
Q 30.953125 -1.421875 24.3125 -1.421875 
Q 15.921875 -1.421875 10.953125 3.296875 
Q 6 8.015625 6 15.921875 
Q 6 25.140625 12.171875 29.828125 
Q 18.359375 34.515625 30.609375 34.515625 
L 43.21875 34.515625 
L 43.21875 35.40625 
Q 43.21875 41.609375 39.140625 45 
Q 35.0625 48.390625 27.6875 48.390625 
Q 23 48.390625 18.546875 47.265625 
Q 14.109375 46.140625 10.015625 43.890625 
L 10.015625 52.203125 
Q 14.9375 54.109375 19.578125 55.046875 
Q 24.21875 56 28.609375 56 
Q 40.484375 56 46.34375 49.84375 
Q 52.203125 43.703125 52.203125 31.203125 
z
" id="DejaVuSans-97"/>
      <path d="M 54.890625 33.015625 
L 54.890625 0 
L 45.90625 0 
L 45.90625 32.71875 
Q 45.90625 40.484375 42.875 44.328125 
Q 39.84375 48.1875 33.796875 48.1875 
Q 26.515625 48.1875 22.3125 43.546875 
Q 18.109375 38.921875 18.109375 30.90625 
L 18.109375 0 
L 9.078125 0 
L 9.078125 54.6875 
L 18.109375 54.6875 
L 18.109375 46.1875 
Q 21.34375 51.125 25.703125 53.5625 
Q 30.078125 56 35.796875 56 
Q 45.21875 56 50.046875 50.171875 
Q 54.890625 44.34375 54.890625 33.015625 
z
" id="DejaVuSans-110"/>
      <path d="M 48.78125 52.59375 
L 48.78125 44.1875 
Q 44.96875 46.296875 41.140625 47.34375 
Q 37.3125 48.390625 33.40625 48.390625 
Q 24.65625 48.390625 19.8125 42.84375 
Q 14.984375 37.3125 14.984375 27.296875 
Q 14.984375 17.28125 19.8125 11.734375 
Q 24.65625 6.203125 33.40625 6.203125 
Q 37.3125 6.203125 41.140625 7.25 
Q 44.96875 8.296875 48.78125 10.40625 
L 48.78125 2.09375 
Q 45.015625 0.34375 40.984375 -0.53125 
Q 36.96875 -1.421875 32.421875 -1.421875 
Q 20.0625 -1.421875 12.78125 6.34375 
Q 5.515625 14.109375 5.515625 27.296875 
Q 5.515625 40.671875 12.859375 48.328125 
Q 20.21875 56 33.015625 56 
Q 37.15625 56 41.109375 55.140625 
Q 45.0625 54.296875 48.78125 52.59375 
z
" id="DejaVuSans-99"/>
      <path d="M 8.203125 72.90625 
L 55.078125 72.90625 
L 55.078125 68.703125 
L 28.609375 0 
L 18.3125 0 
L 43.21875 64.59375 
L 8.203125 64.59375 
z
" id="DejaVuSans-55"/>
     </defs>
     <g transform="translate(14.798438 170.12875)rotate(-90)scale(0.1 -0.1)">
      <use xlink:href="#DejaVuSans-65"/>
      <use x="68.408203" xlink:href="#DejaVuSans-98"/>
      <use x="131.884766" xlink:href="#DejaVuSans-115"/>
      <use x="183.984375" xlink:href="#DejaVuSans-111"/>
      <use x="245.166016" xlink:href="#DejaVuSans-114"/>
      <use x="286.279297" xlink:href="#DejaVuSans-98"/>
      <use x="349.755859" xlink:href="#DejaVuSans-97"/>
      <use x="411.035156" xlink:href="#DejaVuSans-110"/>
      <use x="474.414062" xlink:href="#DejaVuSans-99"/>
      <use x="529.394531" xlink:href="#DejaVuSans-101"/>
      <use x="590.917969" xlink:href="#DejaVuSans-50"/>
      <use x="654.541016" xlink:href="#DejaVuSans-50"/>
      <use x="718.164062" xlink:href="#DejaVuSans-55"/>
     </g>
    </g>
   </g>
   <g id="line2d_14">
    <defs>
     <path d="M 0 3 
C 0.795609 3 1.55874 2.683901 2.12132 2.12132 
C 2.683901 1.55874 3 0.795609 3 0 
C 3 -0.795609 2.683901 -1.55874 2.12132 -2.12132 
C 1.55874 -2.683901 0.795609 -3 0 -3 
C -0.795609 -3 -1.55874 -2.683901 -2.12132 -2.12132 
C -2.683901 -1.55874 -3 -0.795609 -3 0 
C -3 0.795609 -2.683901 1.55874 -2.12132 2.12132 
C -1.55874 2.683901 -0.795609 3 0 3 
z
" id="mf044c3c2dd" style="stroke:#000000;"/>
    </defs>
    <g clip-path="url(#p2946b31651)">
     <use style="stroke:#000000;" x="65.361932" xlink:href="#mf044c3c2dd" y="122.833934"/>
     <use style="stroke:#000000;" x="65.361938" xlink:href="#mf044c3c2dd" y="122.833934"/>
     <use style="stroke:#000000;" x="65.361958" xlink:href="#mf044c3c2dd" y="122.833934"/>
     <use style="stroke:#000000;" x="65.361979" xlink:href="#mf044c3c2dd" y="122.833934"/>
     <use style="stroke:#000000;" x="65.361999" xlink:href="#mf044c3c2dd" y="122.833934"/>
     <use style="stroke:#000000;" x="65.36203" xlink:href="#mf044c3c2dd" y="122.833934"/>
     <use style="stroke:#000000;" x="65.36208" xlink:href="#mf044c3c2dd" y="122.834099"/>
     <use style="stroke:#000000;" x="65.362166" xlink:href="#mf044c3c2dd" y="122.834099"/>
     <use style="stroke:#000000;" x="65.362314" xlink:href="#mf044c3c2dd" y="122.834428"/>
     <use style="stroke:#000000;" x="65.362572" xlink:href="#mf044c3c2dd" y="122.834758"/>
     <use style="stroke:#000000;" x="65.363079" xlink:href="#mf044c3c2dd" y="122.835417"/>
     <use style="stroke:#000000;" x="65.363911" xlink:href="#mf044c3c2dd" y="122.836571"/>
     <use style="stroke:#000000;" x="65.364739" xlink:href="#mf044c3c2dd" y="122.837725"/>
     <use style="stroke:#000000;" x="65.365574" xlink:href="#mf044c3c2dd" y="122.838879"/>
     <use style="stroke:#000000;" x="65.366394" xlink:href="#mf044c3c2dd" y="122.840032"/>
     <use style="stroke:#000000;" x="65.367304" xlink:href="#mf044c3c2dd" y="122.841186"/>
     <use style="stroke:#000000;" x="65.368215" xlink:href="#mf044c3c2dd" y="122.842505"/>
     <use style="stroke:#000000;" x="65.369125" xlink:href="#mf044c3c2dd" y="122.843659"/>
     <use style="stroke:#000000;" x="65.370764" xlink:href="#mf044c3c2dd" y="122.845802"/>
     <use style="stroke:#000000;" x="65.372373" xlink:href="#mf044c3c2dd" y="122.847944"/>
     <use style="stroke:#000000;" x="65.373982" xlink:href="#mf044c3c2dd" y="122.850087"/>
     <use style="stroke:#000000;" x="65.375621" xlink:href="#mf044c3c2dd" y="122.852065"/>
     <use style="stroke:#000000;" x="65.378808" xlink:href="#mf044c3c2dd" y="122.856021"/>
     <use style="stroke:#000000;" x="65.386092" xlink:href="#mf044c3c2dd" y="122.864757"/>
     <use style="stroke:#000000;" x="65.393498" xlink:href="#mf044c3c2dd" y="122.873164"/>
     <use style="stroke:#000000;" x="65.400783" xlink:href="#mf044c3c2dd" y="122.880911"/>
     <use style="stroke:#000000;" x="65.408067" xlink:href="#mf044c3c2dd" y="122.888163"/>
     <use style="stroke:#000000;" x="65.415352" xlink:href="#mf044c3c2dd" y="122.894921"/>
     <use style="stroke:#000000;" x="65.422636" xlink:href="#mf044c3c2dd" y="122.90135"/>
     <use style="stroke:#000000;" x="65.430832" xlink:href="#mf044c3c2dd" y="122.907943"/>
     <use style="stroke:#000000;" x="65.43933" xlink:href="#mf044c3c2dd" y="122.914042"/>
     <use style="stroke:#000000;" x="65.447829" xlink:href="#mf044c3c2dd" y="122.919481"/>
     <use style="stroke:#000000;" x="65.456024" xlink:href="#mf044c3c2dd" y="122.924261"/>
     <use style="stroke:#000000;" x="65.464523" xlink:href="#mf044c3c2dd" y="122.928382"/>
     <use style="stroke:#000000;" x="65.478788" xlink:href="#mf044c3c2dd" y="122.933986"/>
     <use style="stroke:#000000;" x="65.500945" xlink:href="#mf044c3c2dd" y="122.939096"/>
     <use style="stroke:#000000;" x="65.522799" xlink:href="#mf044c3c2dd" y="122.940085"/>
     <use style="stroke:#000000;" x="65.544956" xlink:href="#mf044c3c2dd" y="122.936953"/>
     <use style="stroke:#000000;" x="65.56681" xlink:href="#mf044c3c2dd" y="122.929701"/>
     <use style="stroke:#000000;" x="65.588967" xlink:href="#mf044c3c2dd" y="122.918327"/>
     <use style="stroke:#000000;" x="65.637531" xlink:href="#mf044c3c2dd" y="122.879427"/>
     <use style="stroke:#000000;" x="65.66849" xlink:href="#mf044c3c2dd" y="122.843988"/>
     <use style="stroke:#000000;" x="65.701878" xlink:href="#mf044c3c2dd" y="122.800803"/>
     <use style="stroke:#000000;" x="65.73223" xlink:href="#mf044c3c2dd" y="122.74987"/>
     <use style="stroke:#000000;" x="65.765618" xlink:href="#mf044c3c2dd" y="122.691519"/>
     <use style="stroke:#000000;" x="65.79597" xlink:href="#mf044c3c2dd" y="122.625917"/>
     <use style="stroke:#000000;" x="65.829358" xlink:href="#mf044c3c2dd" y="122.553226"/>
     <use style="stroke:#000000;" x="65.85971" xlink:href="#mf044c3c2dd" y="122.473613"/>
     <use style="stroke:#000000;" x="65.890062" xlink:href="#mf044c3c2dd" y="122.387076"/>
     <use style="stroke:#000000;" x="65.962908" xlink:href="#mf044c3c2dd" y="122.169828"/>
     <use style="stroke:#000000;" x="66.032718" xlink:href="#mf044c3c2dd" y="121.921098"/>
     <use style="stroke:#000000;" x="66.081282" xlink:href="#mf044c3c2dd" y="121.73863"/>
     <use style="stroke:#000000;" x="66.12681" xlink:href="#mf044c3c2dd" y="121.543305"/>
     <use style="stroke:#000000;" x="66.175374" xlink:href="#mf044c3c2dd" y="121.335617"/>
     <use style="stroke:#000000;" x="66.223938" xlink:href="#mf044c3c2dd" y="121.116227"/>
     <use style="stroke:#000000;" x="66.269466" xlink:href="#mf044c3c2dd" y="120.885463"/>
     <use style="stroke:#000000;" x="66.31803" xlink:href="#mf044c3c2dd" y="120.643656"/>
     <use style="stroke:#000000;" x="66.363559" xlink:href="#mf044c3c2dd" y="120.391464"/>
     <use style="stroke:#000000;" x="66.412122" xlink:href="#mf044c3c2dd" y="120.129217"/>
     <use style="stroke:#000000;" x="66.460686" xlink:href="#mf044c3c2dd" y="119.857246"/>
     <use style="stroke:#000000;" x="66.506215" xlink:href="#mf044c3c2dd" y="119.576044"/>
     <use style="stroke:#000000;" x="66.554778" xlink:href="#mf044c3c2dd" y="119.285941"/>
     <use style="stroke:#000000;" x="66.600307" xlink:href="#mf044c3c2dd" y="118.987596"/>
     <use style="stroke:#000000;" x="66.648871" xlink:href="#mf044c3c2dd" y="118.68101"/>
     <use style="stroke:#000000;" x="66.697434" xlink:href="#mf044c3c2dd" y="118.366677"/>
     <use style="stroke:#000000;" x="66.742963" xlink:href="#mf044c3c2dd" y="118.045091"/>
     <use style="stroke:#000000;" x="66.791526" xlink:href="#mf044c3c2dd" y="117.716417"/>
     <use style="stroke:#000000;" x="66.837055" xlink:href="#mf044c3c2dd" y="117.38115"/>
     <use style="stroke:#000000;" x="66.885619" xlink:href="#mf044c3c2dd" y="117.03962"/>
     <use style="stroke:#000000;" x="66.931147" xlink:href="#mf044c3c2dd" y="116.692156"/>
     <use style="stroke:#000000;" x="66.979711" xlink:href="#mf044c3c2dd" y="116.338922"/>
     <use style="stroke:#000000;" x="67.028275" xlink:href="#mf044c3c2dd" y="115.980249"/>
     <use style="stroke:#000000;" x="67.073803" xlink:href="#mf044c3c2dd" y="115.616632"/>
     <use style="stroke:#000000;" x="67.122367" xlink:href="#mf044c3c2dd" y="115.248234"/>
     <use style="stroke:#000000;" x="67.167895" xlink:href="#mf044c3c2dd" y="114.875221"/>
     <use style="stroke:#000000;" x="67.216459" xlink:href="#mf044c3c2dd" y="114.498251"/>
     <use style="stroke:#000000;" x="67.265023" xlink:href="#mf044c3c2dd" y="114.117162"/>
     <use style="stroke:#000000;" x="67.310551" xlink:href="#mf044c3c2dd" y="113.732445"/>
     <use style="stroke:#000000;" x="67.383397" xlink:href="#mf044c3c2dd" y="113.145646"/>
     <use style="stroke:#000000;" x="67.453207" xlink:href="#mf044c3c2dd" y="112.551924"/>
     <use style="stroke:#000000;" x="67.526053" xlink:href="#mf044c3c2dd" y="111.952103"/>
     <use style="stroke:#000000;" x="67.595863" xlink:href="#mf044c3c2dd" y="111.346842"/>
     <use style="stroke:#000000;" x="67.668709" xlink:href="#mf044c3c2dd" y="110.736967"/>
     <use style="stroke:#000000;" x="67.738519" xlink:href="#mf044c3c2dd" y="110.1233"/>
     <use style="stroke:#000000;" x="67.811365" xlink:href="#mf044c3c2dd" y="109.506172"/>
     <use style="stroke:#000000;" x="67.881175" xlink:href="#mf044c3c2dd" y="108.886406"/>
     <use style="stroke:#000000;" x="67.954021" xlink:href="#mf044c3c2dd" y="108.264827"/>
     <use style="stroke:#000000;" x="68.023831" xlink:href="#mf044c3c2dd" y="107.6416"/>
     <use style="stroke:#000000;" x="68.096677" xlink:href="#mf044c3c2dd" y="107.017549"/>
     <use style="stroke:#000000;" x="68.169522" xlink:href="#mf044c3c2dd" y="106.393168"/>
     <use style="stroke:#000000;" x="68.239333" xlink:href="#mf044c3c2dd" y="105.768952"/>
     <use style="stroke:#000000;" x="68.312178" xlink:href="#mf044c3c2dd" y="105.145231"/>
     <use style="stroke:#000000;" x="68.381988" xlink:href="#mf044c3c2dd" y="104.522498"/>
     <use style="stroke:#000000;" x="68.457869" xlink:href="#mf044c3c2dd" y="103.901249"/>
     <use style="stroke:#000000;" x="68.518574" xlink:href="#mf044c3c2dd" y="103.281813"/>
     <use style="stroke:#000000;" x="68.609631" xlink:href="#mf044c3c2dd" y="102.664685"/>
     <use style="stroke:#000000;" x="68.670336" xlink:href="#mf044c3c2dd" y="102.050194"/>
     <use style="stroke:#000000;" x="68.73104" xlink:href="#mf044c3c2dd" y="101.438505"/>
     <use style="stroke:#000000;" x="68.822097" xlink:href="#mf044c3c2dd" y="100.830113"/>
     <use style="stroke:#000000;" x="68.882802" xlink:href="#mf044c3c2dd" y="100.225182"/>
     <use style="stroke:#000000;" x="68.943507" xlink:href="#mf044c3c2dd" y="99.624042"/>
     <use style="stroke:#000000;" x="69.034564" xlink:href="#mf044c3c2dd" y="99.027023"/>
     <use style="stroke:#000000;" x="69.095268" xlink:href="#mf044c3c2dd" y="98.43429"/>
     <use style="stroke:#000000;" x="69.155973" xlink:href="#mf044c3c2dd" y="97.846172"/>
     <use style="stroke:#000000;" x="69.24703" xlink:href="#mf044c3c2dd" y="97.262669"/>
     <use style="stroke:#000000;" x="69.307734" xlink:href="#mf044c3c2dd" y="96.684276"/>
     <use style="stroke:#000000;" x="69.368439" xlink:href="#mf044c3c2dd" y="96.110829"/>
     <use style="stroke:#000000;" x="69.459496" xlink:href="#mf044c3c2dd" y="95.54282"/>
     <use style="stroke:#000000;" x="69.520201" xlink:href="#mf044c3c2dd" y="94.980251"/>
     <use style="stroke:#000000;" x="69.611258" xlink:href="#mf044c3c2dd" y="94.423121"/>
     <use style="stroke:#000000;" x="69.671962" xlink:href="#mf044c3c2dd" y="93.871925"/>
     <use style="stroke:#000000;" x="69.732667" xlink:href="#mf044c3c2dd" y="93.326499"/>
     <use style="stroke:#000000;" x="69.823724" xlink:href="#mf044c3c2dd" y="92.787171"/>
     <use style="stroke:#000000;" x="69.914781" xlink:href="#mf044c3c2dd" y="91.987904"/>
     <use style="stroke:#000000;" x="70.03619" xlink:href="#mf044c3c2dd" y="91.202813"/>
     <use style="stroke:#000000;" x="70.127247" xlink:href="#mf044c3c2dd" y="90.431897"/>
     <use style="stroke:#000000;" x="70.248657" xlink:href="#mf044c3c2dd" y="89.675651"/>
     <use style="stroke:#000000;" x="70.339714" xlink:href="#mf044c3c2dd" y="88.934075"/>
     <use style="stroke:#000000;" x="70.461123" xlink:href="#mf044c3c2dd" y="88.207334"/>
     <use style="stroke:#000000;" x="70.55218" xlink:href="#mf044c3c2dd" y="87.495757"/>
     <use style="stroke:#000000;" x="70.673589" xlink:href="#mf044c3c2dd" y="86.79918"/>
     <use style="stroke:#000000;" x="70.764646" xlink:href="#mf044c3c2dd" y="86.117768"/>
     <use style="stroke:#000000;" x="70.886056" xlink:href="#mf044c3c2dd" y="85.45152"/>
     <use style="stroke:#000000;" x="70.977113" xlink:href="#mf044c3c2dd" y="84.800436"/>
     <use style="stroke:#000000;" x="71.098522" xlink:href="#mf044c3c2dd" y="84.164517"/>
     <use style="stroke:#000000;" x="71.219931" xlink:href="#mf044c3c2dd" y="83.543763"/>
     <use style="stroke:#000000;" x="71.310988" xlink:href="#mf044c3c2dd" y="82.938008"/>
     <use style="stroke:#000000;" x="71.432397" xlink:href="#mf044c3c2dd" y="82.347417"/>
     <use style="stroke:#000000;" x="71.523454" xlink:href="#mf044c3c2dd" y="81.771826"/>
     <use style="stroke:#000000;" x="71.644864" xlink:href="#mf044c3c2dd" y="81.210906"/>
     <use style="stroke:#000000;" x="71.735921" xlink:href="#mf044c3c2dd" y="80.66482"/>
     <use style="stroke:#000000;" x="71.85733" xlink:href="#mf044c3c2dd" y="80.133404"/>
     <use style="stroke:#000000;" x="71.948387" xlink:href="#mf044c3c2dd" y="79.616493"/>
     <use style="stroke:#000000;" x="72.069796" xlink:href="#mf044c3c2dd" y="79.113922"/>
     <use style="stroke:#000000;" x="72.160853" xlink:href="#mf044c3c2dd" y="78.625527"/>
     <use style="stroke:#000000;" x="72.282263" xlink:href="#mf044c3c2dd" y="78.151143"/>
     <use style="stroke:#000000;" x="72.37332" xlink:href="#mf044c3c2dd" y="77.690769"/>
     <use style="stroke:#000000;" x="72.494729" xlink:href="#mf044c3c2dd" y="77.244076"/>
     <use style="stroke:#000000;" x="72.585786" xlink:href="#mf044c3c2dd" y="76.811065"/>
     <use style="stroke:#000000;" x="72.707195" xlink:href="#mf044c3c2dd" y="76.391404"/>
     <use style="stroke:#000000;" x="72.828605" xlink:href="#mf044c3c2dd" y="75.98493"/>
     <use style="stroke:#000000;" x="72.919662" xlink:href="#mf044c3c2dd" y="75.591478"/>
     <use style="stroke:#000000;" x="73.041071" xlink:href="#mf044c3c2dd" y="75.210883"/>
     <use style="stroke:#000000;" x="73.132128" xlink:href="#mf044c3c2dd" y="74.842979"/>
     <use style="stroke:#000000;" x="73.253537" xlink:href="#mf044c3c2dd" y="74.487603"/>
     <use style="stroke:#000000;" x="73.344594" xlink:href="#mf044c3c2dd" y="74.144424"/>
     <use style="stroke:#000000;" x="73.466003" xlink:href="#mf044c3c2dd" y="73.813443"/>
     <use style="stroke:#000000;" x="73.55706" xlink:href="#mf044c3c2dd" y="73.49433"/>
     <use style="stroke:#000000;" x="73.67847" xlink:href="#mf044c3c2dd" y="73.187084"/>
     <use style="stroke:#000000;" x="73.769527" xlink:href="#mf044c3c2dd" y="72.891212"/>
     <use style="stroke:#000000;" x="73.890936" xlink:href="#mf044c3c2dd" y="72.606878"/>
     <use style="stroke:#000000;" x="73.981993" xlink:href="#mf044c3c2dd" y="72.333588"/>
     <use style="stroke:#000000;" x="74.103402" xlink:href="#mf044c3c2dd" y="72.071341"/>
     <use style="stroke:#000000;" x="74.224812" xlink:href="#mf044c3c2dd" y="71.819809"/>
     <use style="stroke:#000000;" x="74.315869" xlink:href="#mf044c3c2dd" y="71.57899"/>
     <use style="stroke:#000000;" x="74.437278" xlink:href="#mf044c3c2dd" y="71.348556"/>
     <use style="stroke:#000000;" x="74.528335" xlink:href="#mf044c3c2dd" y="71.128342"/>
     <use style="stroke:#000000;" x="74.649744" xlink:href="#mf044c3c2dd" y="70.918182"/>
     <use style="stroke:#000000;" x="74.740801" xlink:href="#mf044c3c2dd" y="70.717912"/>
     <use style="stroke:#000000;" x="74.862211" xlink:href="#mf044c3c2dd" y="70.527367"/>
     <use style="stroke:#000000;" x="74.953268" xlink:href="#mf044c3c2dd" y="70.346382"/>
     <use style="stroke:#000000;" x="75.135381" xlink:href="#mf044c3c2dd" y="70.091223"/>
     <use style="stroke:#000000;" x="75.287143" xlink:href="#mf044c3c2dd" y="69.856833"/>
     <use style="stroke:#000000;" x="75.438905" xlink:href="#mf044c3c2dd" y="69.642552"/>
     <use style="stroke:#000000;" x="75.621019" xlink:href="#mf044c3c2dd" y="69.447722"/>
     <use style="stroke:#000000;" x="75.77278" xlink:href="#mf044c3c2dd" y="69.271847"/>
     <use style="stroke:#000000;" x="75.924542" xlink:href="#mf044c3c2dd" y="69.114433"/>
     <use style="stroke:#000000;" x="76.106656" xlink:href="#mf044c3c2dd" y="68.974986"/>
     <use style="stroke:#000000;" x="76.258418" xlink:href="#mf044c3c2dd" y="68.852846"/>
     <use style="stroke:#000000;" x="76.410179" xlink:href="#mf044c3c2dd" y="68.747684"/>
     <use style="stroke:#000000;" x="76.592293" xlink:href="#mf044c3c2dd" y="68.658839"/>
     <use style="stroke:#000000;" x="76.744055" xlink:href="#mf044c3c2dd" y="68.585984"/>
     <use style="stroke:#000000;" x="76.895817" xlink:href="#mf044c3c2dd" y="68.528623"/>
     <use style="stroke:#000000;" x="77.07793" xlink:href="#mf044c3c2dd" y="68.486096"/>
     <use style="stroke:#000000;" x="77.229692" xlink:href="#mf044c3c2dd" y="68.458075"/>
     <use style="stroke:#000000;" x="77.381454" xlink:href="#mf044c3c2dd" y="68.444394"/>
     <use style="stroke:#000000;" x="77.563568" xlink:href="#mf044c3c2dd" y="68.444229"/>
     <use style="stroke:#000000;" x="77.715329" xlink:href="#mf044c3c2dd" y="68.457251"/>
     <use style="stroke:#000000;" x="77.867091" xlink:href="#mf044c3c2dd" y="68.483294"/>
     <use style="stroke:#000000;" x="78.018853" xlink:href="#mf044c3c2dd" y="68.5217"/>
     <use style="stroke:#000000;" x="78.200967" xlink:href="#mf044c3c2dd" y="68.572138"/>
     <use style="stroke:#000000;" x="78.352728" xlink:href="#mf044c3c2dd" y="68.63428"/>
     <use style="stroke:#000000;" x="78.50449" xlink:href="#mf044c3c2dd" y="68.707959"/>
     <use style="stroke:#000000;" x="78.777661" xlink:href="#mf044c3c2dd" y="68.840484"/>
     <use style="stroke:#000000;" x="79.020479" xlink:href="#mf044c3c2dd" y="68.997073"/>
     <use style="stroke:#000000;" x="79.263298" xlink:href="#mf044c3c2dd" y="69.176739"/>
     <use style="stroke:#000000;" x="79.506117" xlink:href="#mf044c3c2dd" y="69.378163"/>
     <use style="stroke:#000000;" x="79.748935" xlink:href="#mf044c3c2dd" y="69.600685"/>
     <use style="stroke:#000000;" x="79.991754" xlink:href="#mf044c3c2dd" y="69.842822"/>
     <use style="stroke:#000000;" x="80.234573" xlink:href="#mf044c3c2dd" y="70.103915"/>
     <use style="stroke:#000000;" x="80.477391" xlink:href="#mf044c3c2dd" y="70.383139"/>
     <use style="stroke:#000000;" x="80.72021" xlink:href="#mf044c3c2dd" y="70.679176"/>
     <use style="stroke:#000000;" x="80.963028" xlink:href="#mf044c3c2dd" y="70.991696"/>
     <use style="stroke:#000000;" x="81.205847" xlink:href="#mf044c3c2dd" y="71.319546"/>
     <use style="stroke:#000000;" x="81.448666" xlink:href="#mf044c3c2dd" y="71.662065"/>
     <use style="stroke:#000000;" x="81.721837" xlink:href="#mf044c3c2dd" y="72.01843"/>
     <use style="stroke:#000000;" x="81.964655" xlink:href="#mf044c3c2dd" y="72.388147"/>
     <use style="stroke:#000000;" x="82.207474" xlink:href="#mf044c3c2dd" y="72.770226"/>
     <use style="stroke:#000000;" x="82.450293" xlink:href="#mf044c3c2dd" y="73.164337"/>
     <use style="stroke:#000000;" x="82.693111" xlink:href="#mf044c3c2dd" y="73.569658"/>
     <use style="stroke:#000000;" x="82.93593" xlink:href="#mf044c3c2dd" y="73.985692"/>
     <use style="stroke:#000000;" x="83.178748" xlink:href="#mf044c3c2dd" y="74.411781"/>
     <use style="stroke:#000000;" x="83.421567" xlink:href="#mf044c3c2dd" y="74.84743"/>
     <use style="stroke:#000000;" x="83.664386" xlink:href="#mf044c3c2dd" y="75.292144"/>
     <use style="stroke:#000000;" x="83.907204" xlink:href="#mf044c3c2dd" y="75.745265"/>
     <use style="stroke:#000000;" x="84.150023" xlink:href="#mf044c3c2dd" y="76.206628"/>
     <use style="stroke:#000000;" x="84.423194" xlink:href="#mf044c3c2dd" y="76.675573"/>
     <use style="stroke:#000000;" x="84.666013" xlink:href="#mf044c3c2dd" y="77.151606"/>
     <use style="stroke:#000000;" x="84.908831" xlink:href="#mf044c3c2dd" y="77.634397"/>
     <use style="stroke:#000000;" x="85.15165" xlink:href="#mf044c3c2dd" y="78.123616"/>
     <use style="stroke:#000000;" x="85.394468" xlink:href="#mf044c3c2dd" y="78.618769"/>
     <use style="stroke:#000000;" x="85.637287" xlink:href="#mf044c3c2dd" y="79.119691"/>
     <use style="stroke:#000000;" x="85.880106" xlink:href="#mf044c3c2dd" y="79.625723"/>
     <use style="stroke:#000000;" x="86.122924" xlink:href="#mf044c3c2dd" y="80.1367"/>
     <use style="stroke:#000000;" x="86.365743" xlink:href="#mf044c3c2dd" y="80.652292"/>
     <use style="stroke:#000000;" x="86.608562" xlink:href="#mf044c3c2dd" y="81.17217"/>
     <use style="stroke:#000000;" x="86.85138" xlink:href="#mf044c3c2dd" y="81.696004"/>
     <use style="stroke:#000000;" x="87.094199" xlink:href="#mf044c3c2dd" y="82.223794"/>
     <use style="stroke:#000000;" x="87.36737" xlink:href="#mf044c3c2dd" y="82.75488"/>
     <use style="stroke:#000000;" x="87.610188" xlink:href="#mf044c3c2dd" y="83.289098"/>
     <use style="stroke:#000000;" x="87.853007" xlink:href="#mf044c3c2dd" y="83.826448"/>
     <use style="stroke:#000000;" x="88.095826" xlink:href="#mf044c3c2dd" y="84.366436"/>
     <use style="stroke:#000000;" x="88.338644" xlink:href="#mf044c3c2dd" y="84.90906"/>
     <use style="stroke:#000000;" x="88.581463" xlink:href="#mf044c3c2dd" y="85.453827"/>
     <use style="stroke:#000000;" x="88.945691" xlink:href="#mf044c3c2dd" y="86.285401"/>
     <use style="stroke:#000000;" x="89.340271" xlink:href="#mf044c3c2dd" y="87.120931"/>
     <use style="stroke:#000000;" x="89.704499" xlink:href="#mf044c3c2dd" y="87.960087"/>
     <use style="stroke:#000000;" x="90.068727" xlink:href="#mf044c3c2dd" y="88.80221"/>
     <use style="stroke:#000000;" x="90.432955" xlink:href="#mf044c3c2dd" y="89.646641"/>
     <use style="stroke:#000000;" x="90.827535" xlink:href="#mf044c3c2dd" y="90.492884"/>
     <use style="stroke:#000000;" x="91.191763" xlink:href="#mf044c3c2dd" y="91.340611"/>
     <use style="stroke:#000000;" x="91.555991" xlink:href="#mf044c3c2dd" y="92.189328"/>
     <use style="stroke:#000000;" x="91.920219" xlink:href="#mf044c3c2dd" y="93.038374"/>
     <use style="stroke:#000000;" x="92.314799" xlink:href="#mf044c3c2dd" y="93.887749"/>
     <use style="stroke:#000000;" x="92.679027" xlink:href="#mf044c3c2dd" y="94.736795"/>
     <use style="stroke:#000000;" x="93.043255" xlink:href="#mf044c3c2dd" y="95.585182"/>
     <use style="stroke:#000000;" x="93.437835" xlink:href="#mf044c3c2dd" y="96.432744"/>
     <use style="stroke:#000000;" x="93.802063" xlink:href="#mf044c3c2dd" y="97.279153"/>
     <use style="stroke:#000000;" x="94.166291" xlink:href="#mf044c3c2dd" y="98.124078"/>
     <use style="stroke:#000000;" x="94.530519" xlink:href="#mf044c3c2dd" y="98.967354"/>
     <use style="stroke:#000000;" x="94.925099" xlink:href="#mf044c3c2dd" y="99.808488"/>
     <use style="stroke:#000000;" x="95.289327" xlink:href="#mf044c3c2dd" y="100.647644"/>
     <use style="stroke:#000000;" x="95.653555" xlink:href="#mf044c3c2dd" y="101.484328"/>
     <use style="stroke:#000000;" x="96.017783" xlink:href="#mf044c3c2dd" y="102.318374"/>
     <use style="stroke:#000000;" x="96.321307" xlink:href="#mf044c3c2dd" y="103.149783"/>
     <use style="stroke:#000000;" x="96.928353" xlink:href="#mf044c3c2dd" y="103.978225"/>
     <use style="stroke:#000000;" x="97.231876" xlink:href="#mf044c3c2dd" y="104.8037"/>
     <use style="stroke:#000000;" x="97.5354" xlink:href="#mf044c3c2dd" y="105.625879"/>
     <use style="stroke:#000000;" x="97.838923" xlink:href="#mf044c3c2dd" y="106.44476"/>
     <use style="stroke:#000000;" x="98.142446" xlink:href="#mf044c3c2dd" y="107.260016"/>
     <use style="stroke:#000000;" x="98.749493" xlink:href="#mf044c3c2dd" y="108.484218"/>
     <use style="stroke:#000000;" x="99.356539" xlink:href="#mf044c3c2dd" y="109.700013"/>
     <use style="stroke:#000000;" x="99.963586" xlink:href="#mf044c3c2dd" y="110.906908"/>
     <use style="stroke:#000000;" x="100.570632" xlink:href="#mf044c3c2dd" y="112.104901"/>
     <use style="stroke:#000000;" x="101.177679" xlink:href="#mf044c3c2dd" y="113.2935"/>
     <use style="stroke:#000000;" x="101.784726" xlink:href="#mf044c3c2dd" y="114.472703"/>
     <use style="stroke:#000000;" x="102.088249" xlink:href="#mf044c3c2dd" y="115.64218"/>
     <use style="stroke:#000000;" x="102.695295" xlink:href="#mf044c3c2dd" y="116.801768"/>
     <use style="stroke:#000000;" x="103.302342" xlink:href="#mf044c3c2dd" y="117.951631"/>
     <use style="stroke:#000000;" x="103.909389" xlink:href="#mf044c3c2dd" y="119.09144"/>
     <use style="stroke:#000000;" x="104.516435" xlink:href="#mf044c3c2dd" y="120.221028"/>
     <use style="stroke:#000000;" x="105.123482" xlink:href="#mf044c3c2dd" y="121.340398"/>
     <use style="stroke:#000000;" x="105.730528" xlink:href="#mf044c3c2dd" y="122.449712"/>
     <use style="stroke:#000000;" x="106.034052" xlink:href="#mf044c3c2dd" y="123.548642"/>
     <use style="stroke:#000000;" x="106.641098" xlink:href="#mf044c3c2dd" y="124.637353"/>
     <use style="stroke:#000000;" x="107.248145" xlink:href="#mf044c3c2dd" y="125.715679"/>
     <use style="stroke:#000000;" x="107.855191" xlink:href="#mf044c3c2dd" y="126.783785"/>
     <use style="stroke:#000000;" x="108.462238" xlink:href="#mf044c3c2dd" y="127.841508"/>
     <use style="stroke:#000000;" x="109.069284" xlink:href="#mf044c3c2dd" y="128.88901"/>
     <use style="stroke:#000000;" x="109.676331" xlink:href="#mf044c3c2dd" y="129.926129"/>
     <use style="stroke:#000000;" x="109.979854" xlink:href="#mf044c3c2dd" y="130.953192"/>
     <use style="stroke:#000000;" x="110.586901" xlink:href="#mf044c3c2dd" y="131.969872"/>
     <use style="stroke:#000000;" x="111.193947" xlink:href="#mf044c3c2dd" y="132.976496"/>
     <use style="stroke:#000000;" x="111.800994" xlink:href="#mf044c3c2dd" y="133.973066"/>
     <use style="stroke:#000000;" x="112.40804" xlink:href="#mf044c3c2dd" y="134.959581"/>
     <use style="stroke:#000000;" x="113.015087" xlink:href="#mf044c3c2dd" y="135.936207"/>
     <use style="stroke:#000000;" x="113.31861" xlink:href="#mf044c3c2dd" y="136.902777"/>
     <use style="stroke:#000000;" x="113.925657" xlink:href="#mf044c3c2dd" y="137.859458"/>
     <use style="stroke:#000000;" x="114.532703" xlink:href="#mf044c3c2dd" y="138.806414"/>
     <use style="stroke:#000000;" x="115.13975" xlink:href="#mf044c3c2dd" y="139.743479"/>
     <use style="stroke:#000000;" x="116.05032" xlink:href="#mf044c3c2dd" y="141.132677"/>
     <use style="stroke:#000000;" x="116.96089" xlink:href="#mf044c3c2dd" y="142.500447"/>
     <use style="stroke:#000000;" x="117.567936" xlink:href="#mf044c3c2dd" y="143.846789"/>
     <use style="stroke:#000000;" x="118.478506" xlink:href="#mf044c3c2dd" y="145.172197"/>
     <use style="stroke:#000000;" x="119.389076" xlink:href="#mf044c3c2dd" y="146.477002"/>
     <use style="stroke:#000000;" x="120.299646" xlink:href="#mf044c3c2dd" y="147.761202"/>
     <use style="stroke:#000000;" x="121.210216" xlink:href="#mf044c3c2dd" y="149.025458"/>
     <use style="stroke:#000000;" x="121.817262" xlink:href="#mf044c3c2dd" y="150.269604"/>
     <use style="stroke:#000000;" x="122.727832" xlink:href="#mf044c3c2dd" y="151.494301"/>
     <use style="stroke:#000000;" x="123.638402" xlink:href="#mf044c3c2dd" y="152.699712"/>
     <use style="stroke:#000000;" x="124.548972" xlink:href="#mf044c3c2dd" y="153.886003"/>
     <use style="stroke:#000000;" x="125.156018" xlink:href="#mf044c3c2dd" y="155.053667"/>
     <use style="stroke:#000000;" x="126.066588" xlink:href="#mf044c3c2dd" y="156.202871"/>
     <use style="stroke:#000000;" x="126.977158" xlink:href="#mf044c3c2dd" y="157.333778"/>
     <use style="stroke:#000000;" x="127.887728" xlink:href="#mf044c3c2dd" y="158.447049"/>
     <use style="stroke:#000000;" x="128.798298" xlink:href="#mf044c3c2dd" y="159.542517"/>
     <use style="stroke:#000000;" x="129.405344" xlink:href="#mf044c3c2dd" y="160.620679"/>
     <use style="stroke:#000000;" x="130.315914" xlink:href="#mf044c3c2dd" y="161.681698"/>
     <use style="stroke:#000000;" x="131.226484" xlink:href="#mf044c3c2dd" y="162.726069"/>
     <use style="stroke:#000000;" x="132.137054" xlink:href="#mf044c3c2dd" y="163.753791"/>
     <use style="stroke:#000000;" x="133.047624" xlink:href="#mf044c3c2dd" y="164.765361"/>
     <use style="stroke:#000000;" x="133.74421" xlink:href="#mf044c3c2dd" y="165.760777"/>
     <use style="stroke:#000000;" x="135.01233" xlink:href="#mf044c3c2dd" y="167.225138"/>
     <use style="stroke:#000000;" x="136.280147" xlink:href="#mf044c3c2dd" y="168.655049"/>
     <use style="stroke:#000000;" x="137.548267" xlink:href="#mf044c3c2dd" y="170.051005"/>
     <use style="stroke:#000000;" x="138.816387" xlink:href="#mf044c3c2dd" y="171.41416"/>
     <use style="stroke:#000000;" x="140.084507" xlink:href="#mf044c3c2dd" y="172.745008"/>
     <use style="stroke:#000000;" x="141.352324" xlink:href="#mf044c3c2dd" y="174.044537"/>
     <use style="stroke:#000000;" x="142.620444" xlink:href="#mf044c3c2dd" y="175.313409"/>
     <use style="stroke:#000000;" x="143.888565" xlink:href="#mf044c3c2dd" y="176.552445"/>
     <use style="stroke:#000000;" x="145.156685" xlink:href="#mf044c3c2dd" y="177.762472"/>
     <use style="stroke:#000000;" x="146.424502" xlink:href="#mf044c3c2dd" y="178.943817"/>
     <use style="stroke:#000000;" x="147.692622" xlink:href="#mf044c3c2dd" y="180.097636"/>
     <use style="stroke:#000000;" x="148.960742" xlink:href="#mf044c3c2dd" y="181.224423"/>
     <use style="stroke:#000000;" x="150.228862" xlink:href="#mf044c3c2dd" y="182.324672"/>
     <use style="stroke:#000000;" x="151.496679" xlink:href="#mf044c3c2dd" y="183.399207"/>
     <use style="stroke:#000000;" x="152.764799" xlink:href="#mf044c3c2dd" y="184.448687"/>
     <use style="stroke:#000000;" x="154.03292" xlink:href="#mf044c3c2dd" y="185.473608"/>
     <use style="stroke:#000000;" x="155.30104" xlink:href="#mf044c3c2dd" y="186.474629"/>
     <use style="stroke:#000000;" x="156.568857" xlink:href="#mf044c3c2dd" y="187.452243"/>
     <use style="stroke:#000000;" x="157.836977" xlink:href="#mf044c3c2dd" y="188.407275"/>
     <use style="stroke:#000000;" x="159.105097" xlink:href="#mf044c3c2dd" y="189.339891"/>
     <use style="stroke:#000000;" x="160.373218" xlink:href="#mf044c3c2dd" y="190.251078"/>
     <use style="stroke:#000000;" x="161.641034" xlink:href="#mf044c3c2dd" y="191.141002"/>
     <use style="stroke:#000000;" x="162.909155" xlink:href="#mf044c3c2dd" y="192.010157"/>
     <use style="stroke:#000000;" x="164.177275" xlink:href="#mf044c3c2dd" y="192.859368"/>
     <use style="stroke:#000000;" x="165.445395" xlink:href="#mf044c3c2dd" y="193.688964"/>
     <use style="stroke:#000000;" x="166.713212" xlink:href="#mf044c3c2dd" y="194.499274"/>
     <use style="stroke:#000000;" x="167.981332" xlink:href="#mf044c3c2dd" y="195.290959"/>
     <use style="stroke:#000000;" x="169.249452" xlink:href="#mf044c3c2dd" y="196.064347"/>
     <use style="stroke:#000000;" x="170.517573" xlink:href="#mf044c3c2dd" y="196.819934"/>
     <use style="stroke:#000000;" x="171.785389" xlink:href="#mf044c3c2dd" y="197.558048"/>
     <use style="stroke:#000000;" x="173.05351" xlink:href="#mf044c3c2dd" y="198.27935"/>
     <use style="stroke:#000000;" x="174.32163" xlink:href="#mf044c3c2dd" y="198.984003"/>
     <use style="stroke:#000000;" x="175.589447" xlink:href="#mf044c3c2dd" y="199.672504"/>
     <use style="stroke:#000000;" x="176.857567" xlink:href="#mf044c3c2dd" y="200.345345"/>
     <use style="stroke:#000000;" x="178.125687" xlink:href="#mf044c3c2dd" y="201.002692"/>
     <use style="stroke:#000000;" x="179.393808" xlink:href="#mf044c3c2dd" y="201.64504"/>
     <use style="stroke:#000000;" x="180.661624" xlink:href="#mf044c3c2dd" y="202.272552"/>
     <use style="stroke:#000000;" x="181.929745" xlink:href="#mf044c3c2dd" y="202.885889"/>
     <use style="stroke:#000000;" x="183.197865" xlink:href="#mf044c3c2dd" y="203.485381"/>
     <use style="stroke:#000000;" x="184.465985" xlink:href="#mf044c3c2dd" y="204.071026"/>
     <use style="stroke:#000000;" x="185.733802" xlink:href="#mf044c3c2dd" y="204.643485"/>
     <use style="stroke:#000000;" x="187.001922" xlink:href="#mf044c3c2dd" y="205.202758"/>
     <use style="stroke:#000000;" x="188.270042" xlink:href="#mf044c3c2dd" y="205.749503"/>
     <use style="stroke:#000000;" x="189.538163" xlink:href="#mf044c3c2dd" y="206.283886"/>
     <use style="stroke:#000000;" x="190.805979" xlink:href="#mf044c3c2dd" y="206.806071"/>
     <use style="stroke:#000000;" x="192.0741" xlink:href="#mf044c3c2dd" y="207.316389"/>
     <use style="stroke:#000000;" x="193.34222" xlink:href="#mf044c3c2dd" y="207.815169"/>
     <use style="stroke:#000000;" x="194.61034" xlink:href="#mf044c3c2dd" y="208.302904"/>
     <use style="stroke:#000000;" x="195.878157" xlink:href="#mf044c3c2dd" y="208.779431"/>
     <use style="stroke:#000000;" x="197.146277" xlink:href="#mf044c3c2dd" y="209.245245"/>
     <use style="stroke:#000000;" x="198.414397" xlink:href="#mf044c3c2dd" y="209.700673"/>
     <use style="stroke:#000000;" x="199.682518" xlink:href="#mf044c3c2dd" y="210.145718"/>
     <use style="stroke:#000000;" x="200.950335" xlink:href="#mf044c3c2dd" y="210.580872"/>
     <use style="stroke:#000000;" x="202.218455" xlink:href="#mf044c3c2dd" y="211.006137"/>
     <use style="stroke:#000000;" x="203.486575" xlink:href="#mf044c3c2dd" y="211.422006"/>
     <use style="stroke:#000000;" x="204.754695" xlink:href="#mf044c3c2dd" y="211.82848"/>
     <use style="stroke:#000000;" x="206.022512" xlink:href="#mf044c3c2dd" y="212.225724"/>
     <use style="stroke:#000000;" x="207.290632" xlink:href="#mf044c3c2dd" y="212.614231"/>
     <use style="stroke:#000000;" x="208.558753" xlink:href="#mf044c3c2dd" y="212.994167"/>
     <use style="stroke:#000000;" x="209.826873" xlink:href="#mf044c3c2dd" y="213.365367"/>
     <use style="stroke:#000000;" x="211.09469" xlink:href="#mf044c3c2dd" y="213.728474"/>
     <use style="stroke:#000000;" x="212.36281" xlink:href="#mf044c3c2dd" y="214.083422"/>
     <use style="stroke:#000000;" x="213.63093" xlink:href="#mf044c3c2dd" y="214.430474"/>
     <use style="stroke:#000000;" x="214.89905" xlink:href="#mf044c3c2dd" y="214.769812"/>
     <use style="stroke:#000000;" x="216.166867" xlink:href="#mf044c3c2dd" y="215.101601"/>
     <use style="stroke:#000000;" x="217.434987" xlink:href="#mf044c3c2dd" y="215.426022"/>
     <use style="stroke:#000000;" x="218.703108" xlink:href="#mf044c3c2dd" y="215.74324"/>
     <use style="stroke:#000000;" x="219.971228" xlink:href="#mf044c3c2dd" y="216.053436"/>
     <use style="stroke:#000000;" x="221.239045" xlink:href="#mf044c3c2dd" y="216.356758"/>
     <use style="stroke:#000000;" x="222.507165" xlink:href="#mf044c3c2dd" y="216.653355"/>
     <use style="stroke:#000000;" x="223.775285" xlink:href="#mf044c3c2dd" y="216.943409"/>
     <use style="stroke:#000000;" x="225.043406" xlink:href="#mf044c3c2dd" y="217.227034"/>
     <use style="stroke:#000000;" x="226.311222" xlink:href="#mf044c3c2dd" y="217.504412"/>
     <use style="stroke:#000000;" x="227.579343" xlink:href="#mf044c3c2dd" y="217.775675"/>
     <use style="stroke:#000000;" x="228.847463" xlink:href="#mf044c3c2dd" y="218.040955"/>
     <use style="stroke:#000000;" x="230.115583" xlink:href="#mf044c3c2dd" y="218.300399"/>
     <use style="stroke:#000000;" x="231.3834" xlink:href="#mf044c3c2dd" y="218.554124"/>
     <use style="stroke:#000000;" x="232.65152" xlink:href="#mf044c3c2dd" y="218.802261"/>
     <use style="stroke:#000000;" x="233.91964" xlink:href="#mf044c3c2dd" y="219.044958"/>
     <use style="stroke:#000000;" x="235.187761" xlink:href="#mf044c3c2dd" y="219.282332"/>
     <use style="stroke:#000000;" x="236.455577" xlink:href="#mf044c3c2dd" y="219.51448"/>
     <use style="stroke:#000000;" x="237.723698" xlink:href="#mf044c3c2dd" y="219.741552"/>
     <use style="stroke:#000000;" x="238.991818" xlink:href="#mf044c3c2dd" y="219.963645"/>
     <use style="stroke:#000000;" x="240.259635" xlink:href="#mf044c3c2dd" y="220.180876"/>
     <use style="stroke:#000000;" x="241.527755" xlink:href="#mf044c3c2dd" y="220.39336"/>
     <use style="stroke:#000000;" x="242.795875" xlink:href="#mf044c3c2dd" y="220.60118"/>
     <use style="stroke:#000000;" x="244.063996" xlink:href="#mf044c3c2dd" y="220.804483"/>
     <use style="stroke:#000000;" x="245.331812" xlink:href="#mf044c3c2dd" y="221.003335"/>
     <use style="stroke:#000000;" x="246.599933" xlink:href="#mf044c3c2dd" y="221.197852"/>
     <use style="stroke:#000000;" x="247.868053" xlink:href="#mf044c3c2dd" y="221.388117"/>
     <use style="stroke:#000000;" x="249.770233" xlink:href="#mf044c3c2dd" y="221.665825"/>
     <use style="stroke:#000000;" x="251.672717" xlink:href="#mf044c3c2dd" y="221.9345"/>
     <use style="stroke:#000000;" x="253.574898" xlink:href="#mf044c3c2dd" y="222.194472"/>
     <use style="stroke:#000000;" x="255.477381" xlink:href="#mf044c3c2dd" y="222.446004"/>
     <use style="stroke:#000000;" x="257.379562" xlink:href="#mf044c3c2dd" y="222.689394"/>
     <use style="stroke:#000000;" x="259.282046" xlink:href="#mf044c3c2dd" y="222.924889"/>
     <use style="stroke:#000000;" x="261.184226" xlink:href="#mf044c3c2dd" y="223.152784"/>
     <use style="stroke:#000000;" x="263.08671" xlink:href="#mf044c3c2dd" y="223.373312"/>
     <use style="stroke:#000000;" x="264.988891" xlink:href="#mf044c3c2dd" y="223.586703"/>
     <use style="stroke:#000000;" x="266.891374" xlink:href="#mf044c3c2dd" y="223.79322"/>
     <use style="stroke:#000000;" x="268.793555" xlink:href="#mf044c3c2dd" y="223.993078"/>
     <use style="stroke:#000000;" x="270.696039" xlink:href="#mf044c3c2dd" y="224.186491"/>
     <use style="stroke:#000000;" x="272.598219" xlink:href="#mf044c3c2dd" y="224.373673"/>
     <use style="stroke:#000000;" x="274.500703" xlink:href="#mf044c3c2dd" y="224.554823"/>
     <use style="stroke:#000000;" x="276.402884" xlink:href="#mf044c3c2dd" y="224.730154"/>
     <use style="stroke:#000000;" x="278.305367" xlink:href="#mf044c3c2dd" y="224.899831"/>
     <use style="stroke:#000000;" x="280.207548" xlink:href="#mf044c3c2dd" y="225.064069"/>
     <use style="stroke:#000000;" x="282.110032" xlink:href="#mf044c3c2dd" y="225.223032"/>
     <use style="stroke:#000000;" x="284.012212" xlink:href="#mf044c3c2dd" y="225.376886"/>
     <use style="stroke:#000000;" x="285.914696" xlink:href="#mf044c3c2dd" y="225.525794"/>
     <use style="stroke:#000000;" x="287.816877" xlink:href="#mf044c3c2dd" y="225.669923"/>
     <use style="stroke:#000000;" x="289.71936" xlink:href="#mf044c3c2dd" y="225.809436"/>
     <use style="stroke:#000000;" x="291.621541" xlink:href="#mf044c3c2dd" y="225.944466"/>
     <use style="stroke:#000000;" x="293.524025" xlink:href="#mf044c3c2dd" y="226.075177"/>
     <use style="stroke:#000000;" x="295.426205" xlink:href="#mf044c3c2dd" y="226.201685"/>
     <use style="stroke:#000000;" x="297.328689" xlink:href="#mf044c3c2dd" y="226.324138"/>
     <use style="stroke:#000000;" x="299.23087" xlink:href="#mf044c3c2dd" y="226.442685"/>
     <use style="stroke:#000000;" x="301.133353" xlink:href="#mf044c3c2dd" y="226.557424"/>
     <use style="stroke:#000000;" x="303.035534" xlink:href="#mf044c3c2dd" y="226.668471"/>
     <use style="stroke:#000000;" x="304.938018" xlink:href="#mf044c3c2dd" y="226.775973"/>
     <use style="stroke:#000000;" x="306.840198" xlink:href="#mf044c3c2dd" y="226.880031"/>
     <use style="stroke:#000000;" x="308.742682" xlink:href="#mf044c3c2dd" y="226.98076"/>
     <use style="stroke:#000000;" x="310.644863" xlink:href="#mf044c3c2dd" y="227.078258"/>
     <use style="stroke:#000000;" x="312.547346" xlink:href="#mf044c3c2dd" y="227.172623"/>
     <use style="stroke:#000000;" x="314.449527" xlink:href="#mf044c3c2dd" y="227.263973"/>
     <use style="stroke:#000000;" x="316.352011" xlink:href="#mf044c3c2dd" y="227.352388"/>
     <use style="stroke:#000000;" x="318.254191" xlink:href="#mf044c3c2dd" y="227.437969"/>
     <use style="stroke:#000000;" x="320.156675" xlink:href="#mf044c3c2dd" y="227.520813"/>
     <use style="stroke:#000000;" x="322.058856" xlink:href="#mf044c3c2dd" y="227.601003"/>
     <use style="stroke:#000000;" x="323.961339" xlink:href="#mf044c3c2dd" y="227.678606"/>
     <use style="stroke:#000000;" x="325.86352" xlink:href="#mf044c3c2dd" y="227.753736"/>
     <use style="stroke:#000000;" x="327.766004" xlink:href="#mf044c3c2dd" y="227.826443"/>
     <use style="stroke:#000000;" x="329.668184" xlink:href="#mf044c3c2dd" y="227.89681"/>
     <use style="stroke:#000000;" x="331.570668" xlink:href="#mf044c3c2dd" y="227.964918"/>
     <use style="stroke:#000000;" x="333.472849" xlink:href="#mf044c3c2dd" y="228.03085"/>
     <use style="stroke:#000000;" x="335.375332" xlink:href="#mf044c3c2dd" y="228.094657"/>
     <use style="stroke:#000000;" x="337.277513" xlink:href="#mf044c3c2dd" y="228.156402"/>
     <use style="stroke:#000000;" x="339.179997" xlink:href="#mf044c3c2dd" y="228.21617"/>
     <use style="stroke:#000000;" x="341.082177" xlink:href="#mf044c3c2dd" y="228.27401"/>
     <use style="stroke:#000000;" x="342.984661" xlink:href="#mf044c3c2dd" y="228.329986"/>
     <use style="stroke:#000000;" x="344.886842" xlink:href="#mf044c3c2dd" y="228.38415"/>
     <use style="stroke:#000000;" x="346.789325" xlink:href="#mf044c3c2dd" y="228.436574"/>
     <use style="stroke:#000000;" x="348.691506" xlink:href="#mf044c3c2dd" y="228.487306"/>
     <use style="stroke:#000000;" x="350.59399" xlink:href="#mf044c3c2dd" y="228.5364"/>
     <use style="stroke:#000000;" x="352.49617" xlink:href="#mf044c3c2dd" y="228.583906"/>
     <use style="stroke:#000000;" x="354.398654" xlink:href="#mf044c3c2dd" y="228.629877"/>
     <use style="stroke:#000000;" x="356.300835" xlink:href="#mf044c3c2dd" y="228.67436"/>
     <use style="stroke:#000000;" x="358.203318" xlink:href="#mf044c3c2dd" y="228.717402"/>
     <use style="stroke:#000000;" x="360.105499" xlink:href="#mf044c3c2dd" y="228.75905"/>
     <use style="stroke:#000000;" x="362.007983" xlink:href="#mf044c3c2dd" y="228.799348"/>
     <use style="stroke:#000000;" x="363.910163" xlink:href="#mf044c3c2dd" y="228.838337"/>
     <use style="stroke:#000000;" x="365.812647" xlink:href="#mf044c3c2dd" y="228.876062"/>
     <use style="stroke:#000000;" x="367.714828" xlink:href="#mf044c3c2dd" y="228.912559"/>
     <use style="stroke:#000000;" x="369.616704" xlink:href="#mf044c3c2dd" y="228.947869"/>
    </g>
   </g>
   <g id="line2d_15">
    <path clip-path="url(#p2946b31651)" d="M 65.361932 130.96345 
L 65.557958 131.039327 
L 65.734268 130.814196 
L 65.988551 130.053556 
L 66.399154 127.908165 
L 66.963733 123.565187 
L 67.917791 114.123385 
L 70.361585 89.096998 
L 71.530698 79.621352 
L 72.582901 72.837916 
L 73.518192 68.095378 
L 74.453482 64.424371 
L 75.273491 61.975325 
L 76.1544 60.037661 
L 76.859127 58.93833 
L 77.563854 58.189857 
L 78.26858 57.751579 
L 78.973307 57.587485 
L 79.678034 57.665757 
L 80.382761 57.958302 
L 81.175597 58.512767 
L 82.232711 59.572135 
L 83.289826 60.940354 
L 84.611219 63.005592 
L 86.19689 65.894969 
L 88.313506 70.264791 
L 91.092607 76.583013 
L 95.459766 87.156933 
L 103.451076 106.574524 
L 108.249263 117.586775 
L 111.745833 125.169615 
L 115.402775 132.668557 
L 119.059717 139.717766 
L 122.71666 146.321407 
L 126.71962 153.053579 
L 130.645304 159.173084 
L 134.444255 164.663287 
L 138.251588 169.763729 
L 141.716821 174.076751 
L 145.355302 178.28849 
L 149.41087 182.625278 
L 153.466439 186.611459 
L 157.522007 190.273196 
L 161.577576 193.635182 
L 165.633145 196.720589 
L 169.688713 199.551074 
L 173.744282 202.146808 
L 177.799851 204.526527 
L 183.140111 207.359694 
L 188.080572 209.705451 
L 192.698165 211.68235 
L 197.953456 213.703877 
L 203.323827 215.544063 
L 209.895611 217.521144 
L 216.892772 219.335548 
L 224.544481 221.024681 
L 231.54116 222.338205 
L 240.287009 223.717707 
L 249.032857 224.852705 
L 259.527876 225.95098 
L 270.022894 226.817366 
L 282.267082 227.598187 
L 296.26044 228.258918 
L 313.752137 228.833302 
L 334.742174 229.273235 
L 360.97972 229.588801 
L 369.725568 229.657001 
L 369.725568 229.657001 
" style="fill:none;stroke:#0000ff;stroke-linecap:square;stroke-width:1.5;"/>
   </g>
   <g id="line2d_16">
    <path clip-path="url(#p2946b31651)" d="M 65.361932 132.426101 
L 65.606823 132.618474 
L 65.799386 132.498735 
L 66.031507 132.062253 
L 66.391934 130.815651 
L 66.914617 127.973198 
L 67.611527 122.763023 
L 68.831119 111.536071 
L 70.966008 91.79832 
L 72.147463 82.924366 
L 73.197645 76.658961 
L 74.116555 72.406137 
L 75.035464 69.207308 
L 75.823101 67.216456 
L 76.610738 65.837767 
L 77.336883 65.044819 
L 77.931756 64.697645 
L 78.526628 64.593188 
L 79.121501 64.706197 
L 79.716374 65.013651 
L 80.509537 65.690285 
L 81.500991 66.903937 
L 82.690737 68.804595 
L 84.078773 71.504786 
L 85.874036 75.56806 
L 88.267719 81.653911 
L 91.717324 91.138751 
L 101.324818 117.868584 
L 104.98856 127.359284 
L 108.429168 135.747497 
L 111.869776 143.59681 
L 115.310385 150.902064 
L 118.567165 157.32481 
L 121.958768 163.522567 
L 125.347982 169.23904 
L 128.590978 174.287029 
L 131.482398 178.459977 
L 134.638874 182.684018 
L 137.447917 186.169832 
L 141.140331 190.387168 
L 144.832745 194.221123 
L 148.525158 197.703469 
L 152.217572 200.863983 
L 155.909986 203.730385 
L 159.6024 206.32836 
L 163.294814 208.681611 
L 166.987227 210.811945 
L 170.679641 212.739382 
L 175.602859 215.025147 
L 180.526078 217.021825 
L 185.449296 218.764149 
L 190.372515 220.282856 
L 196.526538 221.907852 
L 202.68056 223.271849 
L 208.834583 224.414373 
L 216.219411 225.540322 
L 223.604239 226.445068 
L 232.219871 227.275111 
L 242.066307 227.990187 
L 253.143549 228.57023 
L 266.682399 229.049279 
L 283.913664 229.419622 
L 307.298951 229.678416 
L 343.094466 229.831434 
L 369.030773 229.871026 
L 369.030773 229.871026 
" style="fill:none;stroke:#ff0000;stroke-linecap:square;stroke-width:1.5;"/>
   </g>
   <g id="line2d_17">
    <path clip-path="url(#p2946b31651)" d="M 65.361932 112.159402 
L 65.56681 112.3101 
L 65.73223 112.201136 
L 65.962908 111.729635 
L 66.31803 110.377769 
L 66.791526 107.535882 
L 67.453207 102.001187 
L 68.457869 91.382488 
L 70.977113 63.990632 
L 72.160853 53.990307 
L 73.132128 47.492683 
L 74.103402 42.405438 
L 74.953268 38.98175 
L 75.77278 36.465298 
L 76.592293 34.61851 
L 77.381454 33.383575 
L 78.018853 32.73051 
L 78.777661 32.301577 
L 79.506117 32.201761 
L 80.234573 32.374944 
L 80.963028 32.77907 
L 81.964655 33.666282 
L 82.93593 34.838534 
L 84.150023 36.655388 
L 85.637287 39.300204 
L 87.610188 43.346451 
L 90.068727 48.967144 
L 93.802063 58.164158 
L 105.730528 88.020977 
L 109.979854 97.946527 
L 114.532703 107.967265 
L 118.478506 116.114083 
L 122.727832 124.343752 
L 126.977158 132.016159 
L 131.226484 139.165284 
L 135.01233 145.106644 
L 138.816387 150.699163 
L 142.620444 155.929216 
L 146.424502 160.820822 
L 150.228862 165.39458 
L 154.03292 169.674516 
L 157.836977 173.670139 
L 161.641034 177.409116 
L 165.445395 180.898683 
L 170.517573 185.190222 
L 174.32163 188.169433 
L 179.393808 191.838245 
L 184.465985 195.190307 
L 189.538163 198.248808 
L 194.61034 201.039613 
L 199.682518 203.587082 
L 206.022512 206.463931 
L 211.09469 208.538509 
L 217.434987 210.878623 
L 223.775285 212.974214 
L 230.115583 214.843217 
L 236.455577 216.512761 
L 244.063996 218.280289 
L 251.672717 219.825432 
L 261.184226 221.485481 
L 270.696039 222.886096 
L 280.207548 224.070815 
L 291.621541 225.250744 
L 303.035534 226.214131 
L 316.352011 227.113098 
L 331.570668 227.904651 
L 348.691506 228.559715 
L 367.714828 229.065914 
L 369.616704 229.109627 
L 369.616704 229.109627 
" style="fill:none;stroke:#0000ff;stroke-dasharray:5.55,2.4;stroke-dashoffset:0;stroke-width:1.5;"/>
   </g>
   <g id="line2d_18">
    <path clip-path="url(#p2946b31651)" d="M 65.361932 146.767399 
L 65.522799 146.812407 
L 65.66849 146.633313 
L 65.890062 145.99678 
L 66.269466 144.039183 
L 66.837055 139.614614 
L 67.881175 129.180278 
L 69.671962 111.564077 
L 70.764646 102.838694 
L 71.85733 95.816132 
L 72.828605 90.89497 
L 73.769527 87.173426 
L 74.649744 84.502696 
L 75.438905 82.689012 
L 76.258418 81.317173 
L 77.07793 80.389985 
L 77.715329 79.950916 
L 78.50449 79.695169 
L 79.263298 79.725212 
L 79.991754 79.969551 
L 80.963028 80.595874 
L 81.964655 81.538795 
L 83.178748 83.031638 
L 84.666013 85.276284 
L 86.365743 88.284014 
L 88.581463 92.715687 
L 91.555991 99.240189 
L 96.928353 111.723584 
L 103.302342 126.390932 
L 107.855191 136.278401 
L 111.800994 144.313721 
L 115.13975 150.693152 
L 118.478506 156.685804 
L 121.817262 162.29558 
L 125.156018 167.526328 
L 128.798298 172.818931 
L 132.137054 177.312318 
L 135.01233 180.91762 
L 138.816387 185.339106 
L 142.620444 189.386248 
L 146.424502 193.084375 
L 150.228862 196.463911 
L 154.03292 199.546968 
L 157.836977 202.361875 
L 161.641034 204.925475 
L 165.445395 207.257719 
L 169.249452 209.381667 
L 174.32163 211.917437 
L 179.393808 214.151119 
L 184.465985 216.115829 
L 189.538163 217.842872 
L 194.61034 219.360703 
L 200.950335 221.001159 
L 207.290632 222.394229 
L 214.89905 223.789923 
L 222.507165 224.934945 
L 231.3834 226.011117 
L 240.259635 226.862007 
L 249.770233 227.574031 
L 261.184226 228.220865 
L 274.500703 228.759536 
L 291.621541 229.216605 
L 312.547346 229.546597 
L 342.984661 229.783179 
L 369.616704 229.874489 
L 369.616704 229.874489 
" style="fill:none;stroke:#0000ff;stroke-dasharray:5.55,2.4;stroke-dashoffset:0;stroke-width:1.5;"/>
   </g>
   <g id="line2d_19"/>
   <g id="line2d_20"/>
   <g id="line2d_21"/>
   <g id="line2d_22"/>
   <g id="line2d_23"/>
   <g id="line2d_24"/>
   <g id="patch_3">
    <path d="M 50.14375 239.758125 
L 50.14375 22.318125 
" style="fill:none;stroke:#000000;stroke-linecap:square;stroke-linejoin:miter;stroke-width:0.8;"/>
   </g>
   <g id="patch_4">
    <path d="M 384.94375 239.758125 
L 384.94375 22.318125 
" style="fill:none;stroke:#000000;stroke-linecap:square;stroke-linejoin:miter;stroke-width:0.8;"/>
   </g>
   <g id="patch_5">
    <path d="M 50.14375 239.758125 
L 384.94375 239.758125 
" style="fill:none;stroke:#000000;stroke-linecap:square;stroke-linejoin:miter;stroke-width:0.8;"/>
   </g>
   <g id="patch_6">
    <path d="M 50.14375 22.318125 
L 384.94375 22.318125 
" style="fill:none;stroke:#000000;stroke-linecap:square;stroke-linejoin:miter;stroke-width:0.8;"/>
   </g>
   <g id="text_16">
    <!-- Experiment_16 -->
    <defs>
     <path d="M 9.8125 72.90625 
L 55.90625 72.90625 
L 55.90625 64.59375 
L 19.671875 64.59375 
L 19.671875 43.015625 
L 54.390625 43.015625 
L 54.390625 34.71875 
L 19.671875 34.71875 
L 19.671875 8.296875 
L 56.78125 8.296875 
L 56.78125 0 
L 9.8125 0 
z
" id="DejaVuSans-69"/>
     <path d="M 54.890625 54.6875 
L 35.109375 28.078125 
L 55.90625 0 
L 45.3125 0 
L 29.390625 21.484375 
L 13.484375 0 
L 2.875 0 
L 24.125 28.609375 
L 4.6875 54.6875 
L 15.28125 54.6875 
L 29.78125 35.203125 
L 44.28125 54.6875 
z
" id="DejaVuSans-120"/>
     <path d="M 18.109375 8.203125 
L 18.109375 -20.796875 
L 9.078125 -20.796875 
L 9.078125 54.6875 
L 18.109375 54.6875 
L 18.109375 46.390625 
Q 20.953125 51.265625 25.265625 53.625 
Q 29.59375 56 35.59375 56 
Q 45.5625 56 51.78125 48.09375 
Q 58.015625 40.1875 58.015625 27.296875 
Q 58.015625 14.40625 51.78125 6.484375 
Q 45.5625 -1.421875 35.59375 -1.421875 
Q 29.59375 -1.421875 25.265625 0.953125 
Q 20.953125 3.328125 18.109375 8.203125 
z
M 48.6875 27.296875 
Q 48.6875 37.203125 44.609375 42.84375 
Q 40.53125 48.484375 33.40625 48.484375 
Q 26.265625 48.484375 22.1875 42.84375 
Q 18.109375 37.203125 18.109375 27.296875 
Q 18.109375 17.390625 22.1875 11.75 
Q 26.265625 6.109375 33.40625 6.109375 
Q 40.53125 6.109375 44.609375 11.75 
Q 48.6875 17.390625 48.6875 27.296875 
z
" id="DejaVuSans-112"/>
     <path d="M 18.3125 70.21875 
L 18.3125 54.6875 
L 36.8125 54.6875 
L 36.8125 47.703125 
L 18.3125 47.703125 
L 18.3125 18.015625 
Q 18.3125 11.328125 20.140625 9.421875 
Q 21.96875 7.515625 27.59375 7.515625 
L 36.8125 7.515625 
L 36.8125 0 
L 27.59375 0 
Q 17.1875 0 13.234375 3.875 
Q 9.28125 7.765625 9.28125 18.015625 
L 9.28125 47.703125 
L 2.6875 47.703125 
L 2.6875 54.6875 
L 9.28125 54.6875 
L 9.28125 70.21875 
z
" id="DejaVuSans-116"/>
     <path d="M 50.984375 -16.609375 
L 50.984375 -23.578125 
L -0.984375 -23.578125 
L -0.984375 -16.609375 
z
" id="DejaVuSans-95"/>
    </defs>
    <g transform="translate(172.240938 16.318125)scale(0.12 -0.12)">
     <use xlink:href="#DejaVuSans-69"/>
     <use x="63.183594" xlink:href="#DejaVuSans-120"/>
     <use x="122.363281" xlink:href="#DejaVuSans-112"/>
     <use x="185.839844" xlink:href="#DejaVuSans-101"/>
     <use x="247.363281" xlink:href="#DejaVuSans-114"/>
     <use x="288.476562" xlink:href="#DejaVuSans-105"/>
     <use x="316.259766" xlink:href="#DejaVuSans-109"/>
     <use x="413.671875" xlink:href="#DejaVuSans-101"/>
     <use x="475.195312" xlink:href="#DejaVuSans-110"/>
     <use x="538.574219" xlink:href="#DejaVuSans-116"/>
     <use x="577.783203" xlink:href="#DejaVuSans-95"/>
     <use x="627.783203" xlink:href="#DejaVuSans-49"/>
     <use x="691.40625" xlink:href="#DejaVuSans-54"/>
    </g>
   </g>
   <g id="legend_1">
    <g id="patch_7">
     <path d="M 121.823438 103.730625 
L 377.94375 103.730625 
Q 379.94375 103.730625 379.94375 101.730625 
L 379.94375 29.318125 
Q 379.94375 27.318125 377.94375 27.318125 
L 121.823438 27.318125 
Q 119.823438 27.318125 119.823438 29.318125 
L 119.823438 101.730625 
Q 119.823438 103.730625 121.823438 103.730625 
z
" style="fill:#ffffff;opacity:0.8;stroke:#cccccc;stroke-linejoin:miter;"/>
    </g>
    <g id="line2d_25"/>
    <g id="line2d_26">
     <g>
      <use style="stroke:#000000;" x="133.823438" xlink:href="#mf044c3c2dd" y="35.416562"/>
     </g>
    </g>
    <g id="text_17">
     <!-- Experimental Data -->
     <defs>
      <path d="M 9.421875 75.984375 
L 18.40625 75.984375 
L 18.40625 0 
L 9.421875 0 
z
" id="DejaVuSans-108"/>
      <path d="M 19.671875 64.796875 
L 19.671875 8.109375 
L 31.59375 8.109375 
Q 46.6875 8.109375 53.6875 14.9375 
Q 60.6875 21.78125 60.6875 36.53125 
Q 60.6875 51.171875 53.6875 57.984375 
Q 46.6875 64.796875 31.59375 64.796875 
z
M 9.8125 72.90625 
L 30.078125 72.90625 
Q 51.265625 72.90625 61.171875 64.09375 
Q 71.09375 55.28125 71.09375 36.53125 
Q 71.09375 17.671875 61.125 8.828125 
Q 51.171875 0 30.078125 0 
L 9.8125 0 
z
" id="DejaVuSans-68"/>
     </defs>
     <g transform="translate(151.823438 38.916562)scale(0.1 -0.1)">
      <use xlink:href="#DejaVuSans-69"/>
      <use x="63.183594" xlink:href="#DejaVuSans-120"/>
      <use x="122.363281" xlink:href="#DejaVuSans-112"/>
      <use x="185.839844" xlink:href="#DejaVuSans-101"/>
      <use x="247.363281" xlink:href="#DejaVuSans-114"/>
      <use x="288.476562" xlink:href="#DejaVuSans-105"/>
      <use x="316.259766" xlink:href="#DejaVuSans-109"/>
      <use x="413.671875" xlink:href="#DejaVuSans-101"/>
      <use x="475.195312" xlink:href="#DejaVuSans-110"/>
      <use x="538.574219" xlink:href="#DejaVuSans-116"/>
      <use x="577.783203" xlink:href="#DejaVuSans-97"/>
      <use x="639.0625" xlink:href="#DejaVuSans-108"/>
      <use x="666.845703" xlink:href="#DejaVuSans-32"/>
      <use x="698.632812" xlink:href="#DejaVuSans-68"/>
      <use x="775.634766" xlink:href="#DejaVuSans-97"/>
      <use x="836.914062" xlink:href="#DejaVuSans-116"/>
      <use x="876.123047" xlink:href="#DejaVuSans-97"/>
     </g>
    </g>
    <g id="line2d_27">
     <path d="M 123.823438 50.094687 
L 143.823438 50.094687 
" style="fill:none;stroke:#0000ff;stroke-linecap:square;stroke-width:1.5;"/>
    </g>
    <g id="line2d_28"/>
    <g id="text_18">
     <!-- MSI -->
     <defs>
      <path d="M 9.8125 72.90625 
L 24.515625 72.90625 
L 43.109375 23.296875 
L 61.8125 72.90625 
L 76.515625 72.90625 
L 76.515625 0 
L 66.890625 0 
L 66.890625 64.015625 
L 48.09375 14.015625 
L 38.1875 14.015625 
L 19.390625 64.015625 
L 19.390625 0 
L 9.8125 0 
z
" id="DejaVuSans-77"/>
      <path d="M 53.515625 70.515625 
L 53.515625 60.890625 
Q 47.90625 63.578125 42.921875 64.890625 
Q 37.9375 66.21875 33.296875 66.21875 
Q 25.25 66.21875 20.875 63.09375 
Q 16.5 59.96875 16.5 54.203125 
Q 16.5 49.359375 19.40625 46.890625 
Q 22.3125 44.4375 30.421875 42.921875 
L 36.375 41.703125 
Q 47.40625 39.59375 52.65625 34.296875 
Q 57.90625 29 57.90625 20.125 
Q 57.90625 9.515625 50.796875 4.046875 
Q 43.703125 -1.421875 29.984375 -1.421875 
Q 24.8125 -1.421875 18.96875 -0.25 
Q 13.140625 0.921875 6.890625 3.21875 
L 6.890625 13.375 
Q 12.890625 10.015625 18.65625 8.296875 
Q 24.421875 6.59375 29.984375 6.59375 
Q 38.421875 6.59375 43.015625 9.90625 
Q 47.609375 13.234375 47.609375 19.390625 
Q 47.609375 24.75 44.3125 27.78125 
Q 41.015625 30.8125 33.5 32.328125 
L 27.484375 33.5 
Q 16.453125 35.6875 11.515625 40.375 
Q 6.59375 45.0625 6.59375 53.421875 
Q 6.59375 63.09375 13.40625 68.65625 
Q 20.21875 74.21875 32.171875 74.21875 
Q 37.3125 74.21875 42.625 73.28125 
Q 47.953125 72.359375 53.515625 70.515625 
z
" id="DejaVuSans-83"/>
      <path d="M 9.8125 72.90625 
L 19.671875 72.90625 
L 19.671875 0 
L 9.8125 0 
z
" id="DejaVuSans-73"/>
     </defs>
     <g transform="translate(151.823438 53.594687)scale(0.1 -0.1)">
      <use xlink:href="#DejaVuSans-77"/>
      <use x="86.279297" xlink:href="#DejaVuSans-83"/>
      <use x="149.755859" xlink:href="#DejaVuSans-73"/>
     </g>
    </g>
    <g id="line2d_29">
     <path d="M 123.823438 64.774375 
L 143.823438 64.774375 
" style="fill:none;stroke:#ff0000;stroke-linecap:square;stroke-width:1.5;"/>
    </g>
    <g id="line2d_30"/>
    <g id="text_19">
     <!-- $\it{A priori}$ model -->
     <defs>
      <path d="M 36.8125 72.90625 
L 48 72.90625 
L 61.53125 0 
L 51.21875 0 
L 48.1875 18.703125 
L 15.375 18.703125 
L 5.078125 0 
L -5.328125 0 
z
M 40.375 63.1875 
L 19.921875 26.90625 
L 46.6875 26.90625 
z
" id="DejaVuSans-Oblique-65"/>
      <path d="M 49.609375 33.6875 
Q 49.609375 40.875 46.484375 44.671875 
Q 43.359375 48.484375 37.5 48.484375 
Q 33.5 48.484375 29.859375 46.4375 
Q 26.21875 44.390625 23.390625 40.484375 
Q 20.609375 36.625 18.9375 31.15625 
Q 17.28125 25.6875 17.28125 20.3125 
Q 17.28125 13.484375 20.40625 9.796875 
Q 23.53125 6.109375 29.296875 6.109375 
Q 33.546875 6.109375 37.1875 8.109375 
Q 40.828125 10.109375 43.40625 13.921875 
Q 46.1875 17.921875 47.890625 23.34375 
Q 49.609375 28.765625 49.609375 33.6875 
z
M 21.78125 46.390625 
Q 25.390625 51.125 30.296875 53.5625 
Q 35.203125 56 41.21875 56 
Q 49.609375 56 54.25 50.5 
Q 58.890625 45.015625 58.890625 35.109375 
Q 58.890625 27 56 19.65625 
Q 53.125 12.3125 47.703125 6.5 
Q 44.09375 2.640625 39.546875 0.609375 
Q 35.015625 -1.421875 29.984375 -1.421875 
Q 24.171875 -1.421875 20.21875 1 
Q 16.265625 3.421875 14.3125 8.203125 
L 8.6875 -20.796875 
L -0.296875 -20.796875 
L 14.40625 54.6875 
L 23.390625 54.6875 
z
" id="DejaVuSans-Oblique-112"/>
      <path d="M 44.578125 46.390625 
Q 43.21875 47.125 41.453125 47.515625 
Q 39.703125 47.90625 37.703125 47.90625 
Q 30.515625 47.90625 25.140625 42.453125 
Q 19.78125 37.015625 18.015625 27.875 
L 12.5 0 
L 3.515625 0 
L 14.203125 54.6875 
L 23.1875 54.6875 
L 21.484375 46.1875 
Q 25.046875 50.921875 30 53.453125 
Q 34.96875 56 40.578125 56 
Q 42.046875 56 43.453125 55.828125 
Q 44.875 55.671875 46.296875 55.28125 
z
" id="DejaVuSans-Oblique-114"/>
      <path d="M 18.3125 75.984375 
L 27.296875 75.984375 
L 25.09375 64.59375 
L 16.109375 64.59375 
z
M 14.203125 54.6875 
L 23.1875 54.6875 
L 12.5 0 
L 3.515625 0 
z
" id="DejaVuSans-Oblique-105"/>
      <path d="M 25.390625 -1.421875 
Q 15.765625 -1.421875 10.171875 4.515625 
Q 4.59375 10.453125 4.59375 20.703125 
Q 4.59375 26.65625 6.515625 32.828125 
Q 8.453125 39.015625 11.53125 43.21875 
Q 16.359375 49.75 22.3125 52.875 
Q 28.265625 56 35.796875 56 
Q 45.125 56 50.859375 50.1875 
Q 56.59375 44.390625 56.59375 35.015625 
Q 56.59375 28.515625 54.6875 22.0625 
Q 52.78125 15.625 49.703125 11.375 
Q 44.921875 4.828125 38.96875 1.703125 
Q 33.015625 -1.421875 25.390625 -1.421875 
z
M 13.921875 21 
Q 13.921875 13.578125 17.015625 9.890625 
Q 20.125 6.203125 26.421875 6.203125 
Q 35.453125 6.203125 41.375 14.078125 
Q 47.3125 21.96875 47.3125 34.078125 
Q 47.3125 41.15625 44.140625 44.765625 
Q 40.96875 48.390625 34.8125 48.390625 
Q 29.734375 48.390625 25.78125 46.015625 
Q 21.828125 43.65625 18.703125 38.8125 
Q 16.40625 35.203125 15.15625 30.5625 
Q 13.921875 25.921875 13.921875 21 
z
" id="DejaVuSans-Oblique-111"/>
      <path d="M 45.40625 46.390625 
L 45.40625 75.984375 
L 54.390625 75.984375 
L 54.390625 0 
L 45.40625 0 
L 45.40625 8.203125 
Q 42.578125 3.328125 38.25 0.953125 
Q 33.9375 -1.421875 27.875 -1.421875 
Q 17.96875 -1.421875 11.734375 6.484375 
Q 5.515625 14.40625 5.515625 27.296875 
Q 5.515625 40.1875 11.734375 48.09375 
Q 17.96875 56 27.875 56 
Q 33.9375 56 38.25 53.625 
Q 42.578125 51.265625 45.40625 46.390625 
z
M 14.796875 27.296875 
Q 14.796875 17.390625 18.875 11.75 
Q 22.953125 6.109375 30.078125 6.109375 
Q 37.203125 6.109375 41.296875 11.75 
Q 45.40625 17.390625 45.40625 27.296875 
Q 45.40625 37.203125 41.296875 42.84375 
Q 37.203125 48.484375 30.078125 48.484375 
Q 22.953125 48.484375 18.875 42.84375 
Q 14.796875 37.203125 14.796875 27.296875 
z
" id="DejaVuSans-100"/>
     </defs>
     <g transform="translate(151.823438 68.274375)scale(0.1 -0.1)">
      <use transform="translate(0 0.015625)" xlink:href="#DejaVuSans-Oblique-65"/>
      <use transform="translate(68.408203 0.015625)" xlink:href="#DejaVuSans-Oblique-112"/>
      <use transform="translate(131.884766 0.015625)" xlink:href="#DejaVuSans-Oblique-114"/>
      <use transform="translate(172.998047 0.015625)" xlink:href="#DejaVuSans-Oblique-105"/>
      <use transform="translate(200.78125 0.015625)" xlink:href="#DejaVuSans-Oblique-111"/>
      <use transform="translate(261.962891 0.015625)" xlink:href="#DejaVuSans-Oblique-114"/>
      <use transform="translate(303.076172 0.015625)" xlink:href="#DejaVuSans-Oblique-105"/>
      <use transform="translate(330.859375 0.015625)" xlink:href="#DejaVuSans-32"/>
      <use transform="translate(362.646484 0.015625)" xlink:href="#DejaVuSans-109"/>
      <use transform="translate(460.058594 0.015625)" xlink:href="#DejaVuSans-111"/>
      <use transform="translate(521.240234 0.015625)" xlink:href="#DejaVuSans-100"/>
      <use transform="translate(584.716797 0.015625)" xlink:href="#DejaVuSans-101"/>
      <use transform="translate(646.240234 0.015625)" xlink:href="#DejaVuSans-108"/>
     </g>
    </g>
    <g id="line2d_31">
     <path d="M 123.823438 79.472813 
L 143.823438 79.472813 
" style="fill:none;stroke:#ffffff;stroke-linecap:square;stroke-width:1.5;"/>
    </g>
    <g id="line2d_32"/>
    <g id="text_20">
     <!-- T:1227 -->
     <defs>
      <path d="M 11.71875 12.40625 
L 22.015625 12.40625 
L 22.015625 0 
L 11.71875 0 
z
M 11.71875 51.703125 
L 22.015625 51.703125 
L 22.015625 39.3125 
L 11.71875 39.3125 
z
" id="DejaVuSans-58"/>
     </defs>
     <g transform="translate(151.823438 82.972813)scale(0.1 -0.1)">
      <use xlink:href="#DejaVuSans-84"/>
      <use x="60.912109" xlink:href="#DejaVuSans-58"/>
      <use x="94.603516" xlink:href="#DejaVuSans-49"/>
      <use x="158.226562" xlink:href="#DejaVuSans-50"/>
      <use x="221.849609" xlink:href="#DejaVuSans-50"/>
      <use x="285.472656" xlink:href="#DejaVuSans-55"/>
     </g>
    </g>
    <g id="line2d_33">
     <path d="M 123.823438 94.150937 
L 143.823438 94.150937 
" style="fill:none;stroke:#ffffff;stroke-linecap:square;stroke-width:1.5;"/>
    </g>
    <g id="line2d_34"/>
    <g id="text_21">
     <!-- P:1.558 -->
     <defs>
      <path d="M 19.671875 64.796875 
L 19.671875 37.40625 
L 32.078125 37.40625 
Q 38.96875 37.40625 42.71875 40.96875 
Q 46.484375 44.53125 46.484375 51.125 
Q 46.484375 57.671875 42.71875 61.234375 
Q 38.96875 64.796875 32.078125 64.796875 
z
M 9.8125 72.90625 
L 32.078125 72.90625 
Q 44.34375 72.90625 50.609375 67.359375 
Q 56.890625 61.8125 56.890625 51.125 
Q 56.890625 40.328125 50.609375 34.8125 
Q 44.34375 29.296875 32.078125 29.296875 
L 19.671875 29.296875 
L 19.671875 0 
L 9.8125 0 
z
" id="DejaVuSans-80"/>
      <path d="M 10.796875 72.90625 
L 49.515625 72.90625 
L 49.515625 64.59375 
L 19.828125 64.59375 
L 19.828125 46.734375 
Q 21.96875 47.46875 24.109375 47.828125 
Q 26.265625 48.1875 28.421875 48.1875 
Q 40.625 48.1875 47.75 41.5 
Q 54.890625 34.8125 54.890625 23.390625 
Q 54.890625 11.625 47.5625 5.09375 
Q 40.234375 -1.421875 26.90625 -1.421875 
Q 22.3125 -1.421875 17.546875 -0.640625 
Q 12.796875 0.140625 7.71875 1.703125 
L 7.71875 11.625 
Q 12.109375 9.234375 16.796875 8.0625 
Q 21.484375 6.890625 26.703125 6.890625 
Q 35.15625 6.890625 40.078125 11.328125 
Q 45.015625 15.765625 45.015625 23.390625 
Q 45.015625 31 40.078125 35.4375 
Q 35.15625 39.890625 26.703125 39.890625 
Q 22.75 39.890625 18.8125 39.015625 
Q 14.890625 38.140625 10.796875 36.28125 
z
" id="DejaVuSans-53"/>
     </defs>
     <g transform="translate(151.823438 97.650937)scale(0.1 -0.1)">
      <use xlink:href="#DejaVuSans-80"/>
      <use x="60.302734" xlink:href="#DejaVuSans-58"/>
      <use x="93.994141" xlink:href="#DejaVuSans-49"/>
      <use x="157.617188" xlink:href="#DejaVuSans-46"/>
      <use x="189.404297" xlink:href="#DejaVuSans-53"/>
      <use x="253.027344" xlink:href="#DejaVuSans-53"/>
      <use x="316.650391" xlink:href="#DejaVuSans-56"/>
     </g>
    </g>
    <g id="line2d_35">
     <path d="M 265.564063 35.416562 
L 285.564063 35.416562 
" style="fill:none;stroke:#ffffff;stroke-linecap:square;stroke-width:1.5;"/>
    </g>
    <g id="line2d_36"/>
    <g id="text_22">
     <!-- H2O2: 0.001696 -->
     <defs>
      <path d="M 9.8125 72.90625 
L 19.671875 72.90625 
L 19.671875 43.015625 
L 55.515625 43.015625 
L 55.515625 72.90625 
L 65.375 72.90625 
L 65.375 0 
L 55.515625 0 
L 55.515625 34.71875 
L 19.671875 34.71875 
L 19.671875 0 
L 9.8125 0 
z
" id="DejaVuSans-72"/>
      <path d="M 39.40625 66.21875 
Q 28.65625 66.21875 22.328125 58.203125 
Q 16.015625 50.203125 16.015625 36.375 
Q 16.015625 22.609375 22.328125 14.59375 
Q 28.65625 6.59375 39.40625 6.59375 
Q 50.140625 6.59375 56.421875 14.59375 
Q 62.703125 22.609375 62.703125 36.375 
Q 62.703125 50.203125 56.421875 58.203125 
Q 50.140625 66.21875 39.40625 66.21875 
z
M 39.40625 74.21875 
Q 54.734375 74.21875 63.90625 63.9375 
Q 73.09375 53.65625 73.09375 36.375 
Q 73.09375 19.140625 63.90625 8.859375 
Q 54.734375 -1.421875 39.40625 -1.421875 
Q 24.03125 -1.421875 14.8125 8.828125 
Q 5.609375 19.09375 5.609375 36.375 
Q 5.609375 53.65625 14.8125 63.9375 
Q 24.03125 74.21875 39.40625 74.21875 
z
" id="DejaVuSans-79"/>
      <path d="M 10.984375 1.515625 
L 10.984375 10.5 
Q 14.703125 8.734375 18.5 7.8125 
Q 22.3125 6.890625 25.984375 6.890625 
Q 35.75 6.890625 40.890625 13.453125 
Q 46.046875 20.015625 46.78125 33.40625 
Q 43.953125 29.203125 39.59375 26.953125 
Q 35.25 24.703125 29.984375 24.703125 
Q 19.046875 24.703125 12.671875 31.3125 
Q 6.296875 37.9375 6.296875 49.421875 
Q 6.296875 60.640625 12.9375 67.421875 
Q 19.578125 74.21875 30.609375 74.21875 
Q 43.265625 74.21875 49.921875 64.515625 
Q 56.59375 54.828125 56.59375 36.375 
Q 56.59375 19.140625 48.40625 8.859375 
Q 40.234375 -1.421875 26.421875 -1.421875 
Q 22.703125 -1.421875 18.890625 -0.6875 
Q 15.09375 0.046875 10.984375 1.515625 
z
M 30.609375 32.421875 
Q 37.25 32.421875 41.125 36.953125 
Q 45.015625 41.5 45.015625 49.421875 
Q 45.015625 57.28125 41.125 61.84375 
Q 37.25 66.40625 30.609375 66.40625 
Q 23.96875 66.40625 20.09375 61.84375 
Q 16.21875 57.28125 16.21875 49.421875 
Q 16.21875 41.5 20.09375 36.953125 
Q 23.96875 32.421875 30.609375 32.421875 
z
" id="DejaVuSans-57"/>
     </defs>
     <g transform="translate(293.564063 38.916562)scale(0.1 -0.1)">
      <use xlink:href="#DejaVuSans-72"/>
      <use x="75.195312" xlink:href="#DejaVuSans-50"/>
      <use x="138.818359" xlink:href="#DejaVuSans-79"/>
      <use x="217.529297" xlink:href="#DejaVuSans-50"/>
      <use x="281.152344" xlink:href="#DejaVuSans-58"/>
      <use x="314.84375" xlink:href="#DejaVuSans-32"/>
      <use x="346.630859" xlink:href="#DejaVuSans-48"/>
      <use x="410.253906" xlink:href="#DejaVuSans-46"/>
      <use x="442.041016" xlink:href="#DejaVuSans-48"/>
      <use x="505.664062" xlink:href="#DejaVuSans-48"/>
      <use x="569.287109" xlink:href="#DejaVuSans-49"/>
      <use x="632.910156" xlink:href="#DejaVuSans-54"/>
      <use x="696.533203" xlink:href="#DejaVuSans-57"/>
      <use x="760.15625" xlink:href="#DejaVuSans-54"/>
     </g>
    </g>
    <g id="line2d_37">
     <path d="M 265.564063 50.094687 
L 285.564063 50.094687 
" style="fill:none;stroke:#ffffff;stroke-linecap:square;stroke-width:1.5;"/>
    </g>
    <g id="line2d_38"/>
    <g id="text_23">
     <!-- H2O: 0.001113 -->
     <defs>
      <path d="M 40.578125 39.3125 
Q 47.65625 37.796875 51.625 33 
Q 55.609375 28.21875 55.609375 21.1875 
Q 55.609375 10.40625 48.1875 4.484375 
Q 40.765625 -1.421875 27.09375 -1.421875 
Q 22.515625 -1.421875 17.65625 -0.515625 
Q 12.796875 0.390625 7.625 2.203125 
L 7.625 11.71875 
Q 11.71875 9.328125 16.59375 8.109375 
Q 21.484375 6.890625 26.8125 6.890625 
Q 36.078125 6.890625 40.9375 10.546875 
Q 45.796875 14.203125 45.796875 21.1875 
Q 45.796875 27.640625 41.28125 31.265625 
Q 36.765625 34.90625 28.71875 34.90625 
L 20.21875 34.90625 
L 20.21875 43.015625 
L 29.109375 43.015625 
Q 36.375 43.015625 40.234375 45.921875 
Q 44.09375 48.828125 44.09375 54.296875 
Q 44.09375 59.90625 40.109375 62.90625 
Q 36.140625 65.921875 28.71875 65.921875 
Q 24.65625 65.921875 20.015625 65.03125 
Q 15.375 64.15625 9.8125 62.3125 
L 9.8125 71.09375 
Q 15.4375 72.65625 20.34375 73.4375 
Q 25.25 74.21875 29.59375 74.21875 
Q 40.828125 74.21875 47.359375 69.109375 
Q 53.90625 64.015625 53.90625 55.328125 
Q 53.90625 49.265625 50.4375 45.09375 
Q 46.96875 40.921875 40.578125 39.3125 
z
" id="DejaVuSans-51"/>
     </defs>
     <g transform="translate(293.564063 53.594687)scale(0.1 -0.1)">
      <use xlink:href="#DejaVuSans-72"/>
      <use x="75.195312" xlink:href="#DejaVuSans-50"/>
      <use x="138.818359" xlink:href="#DejaVuSans-79"/>
      <use x="217.513672" xlink:href="#DejaVuSans-58"/>
      <use x="251.205078" xlink:href="#DejaVuSans-32"/>
      <use x="282.992188" xlink:href="#DejaVuSans-48"/>
      <use x="346.615234" xlink:href="#DejaVuSans-46"/>
      <use x="378.402344" xlink:href="#DejaVuSans-48"/>
      <use x="442.025391" xlink:href="#DejaVuSans-48"/>
      <use x="505.648438" xlink:href="#DejaVuSans-49"/>
      <use x="569.271484" xlink:href="#DejaVuSans-49"/>
      <use x="632.894531" xlink:href="#DejaVuSans-49"/>
      <use x="696.517578" xlink:href="#DejaVuSans-51"/>
     </g>
    </g>
    <g id="line2d_39">
     <path d="M 265.564063 64.772812 
L 285.564063 64.772812 
" style="fill:none;stroke:#ffffff;stroke-linecap:square;stroke-width:1.5;"/>
    </g>
    <g id="line2d_40"/>
    <g id="text_24">
     <!-- O2: 0.000556 -->
     <g transform="translate(293.564063 68.272812)scale(0.1 -0.1)">
      <use xlink:href="#DejaVuSans-79"/>
      <use x="78.710938" xlink:href="#DejaVuSans-50"/>
      <use x="142.333984" xlink:href="#DejaVuSans-58"/>
      <use x="176.025391" xlink:href="#DejaVuSans-32"/>
      <use x="207.8125" xlink:href="#DejaVuSans-48"/>
      <use x="271.435547" xlink:href="#DejaVuSans-46"/>
      <use x="303.222656" xlink:href="#DejaVuSans-48"/>
      <use x="366.845703" xlink:href="#DejaVuSans-48"/>
      <use x="430.46875" xlink:href="#DejaVuSans-48"/>
      <use x="494.091797" xlink:href="#DejaVuSans-53"/>
      <use x="557.714844" xlink:href="#DejaVuSans-53"/>
      <use x="621.337891" xlink:href="#DejaVuSans-54"/>
     </g>
    </g>
    <g id="line2d_41">
     <path d="M 265.564063 79.450938 
L 285.564063 79.450938 
" style="fill:none;stroke:#ffffff;stroke-linecap:square;stroke-width:1.5;"/>
    </g>
    <g id="line2d_42"/>
    <g id="text_25">
     <!-- Ar: 0.996401 -->
     <g transform="translate(293.564063 82.950938)scale(0.1 -0.1)">
      <use xlink:href="#DejaVuSans-65"/>
      <use x="68.408203" xlink:href="#DejaVuSans-114"/>
      <use x="109.505859" xlink:href="#DejaVuSans-58"/>
      <use x="143.197266" xlink:href="#DejaVuSans-32"/>
      <use x="174.984375" xlink:href="#DejaVuSans-48"/>
      <use x="238.607422" xlink:href="#DejaVuSans-46"/>
      <use x="270.394531" xlink:href="#DejaVuSans-57"/>
      <use x="334.017578" xlink:href="#DejaVuSans-57"/>
      <use x="397.640625" xlink:href="#DejaVuSans-54"/>
      <use x="461.263672" xlink:href="#DejaVuSans-52"/>
      <use x="524.886719" xlink:href="#DejaVuSans-48"/>
      <use x="588.509766" xlink:href="#DejaVuSans-49"/>
     </g>
    </g>
   </g>
  </g>
 </g>
 <defs>
  <clipPath id="p2946b31651">
   <rect height="217.44" width="334.8" x="50.14375" y="22.318125"/>
  </clipPath>
 </defs>
</svg>
