<?xml version="1.0" encoding="utf-8" standalone="no"?>
<!DOCTYPE svg PUBLIC "-//W3C//DTD SVG 1.1//EN"
  "http://www.w3.org/Graphics/SVG/1.1/DTD/svg11.dtd">
<!-- Created with matplotlib (https://matplotlib.org/) -->
<svg height="277.314375pt" version="1.1" viewBox="0 0 395.64375 277.314375" width="395.64375pt" xmlns="http://www.w3.org/2000/svg" xmlns:xlink="http://www.w3.org/1999/xlink">
 <defs>
  <style type="text/css">
*{stroke-linecap:butt;stroke-linejoin:round;}
  </style>
 </defs>
 <g id="figure_1">
  <g id="patch_1">
   <path d="M 0 277.314375 
L 395.64375 277.314375 
L 395.64375 0 
L 0 0 
z
" style="fill:none;"/>
  </g>
  <g id="axes_1">
   <g id="patch_2">
    <path d="M 50.14375 239.758125 
L 384.94375 239.758125 
L 384.94375 22.318125 
L 50.14375 22.318125 
z
" style="fill:none;"/>
   </g>
   <g id="matplotlib.axis_1">
    <g id="xtick_1">
     <g id="line2d_1">
      <defs>
       <path d="M 0 0 
L 0 3.5 
" id="m83c81f31b6" style="stroke:#000000;stroke-width:0.8;"/>
      </defs>
      <g>
       <use style="stroke:#000000;stroke-width:0.8;" x="65.361932" xlink:href="#m83c81f31b6" y="239.758125"/>
      </g>
     </g>
     <g id="text_1">
      <!-- 0.0 -->
      <defs>
       <path d="M 31.78125 66.40625 
Q 24.171875 66.40625 20.328125 58.90625 
Q 16.5 51.421875 16.5 36.375 
Q 16.5 21.390625 20.328125 13.890625 
Q 24.171875 6.390625 31.78125 6.390625 
Q 39.453125 6.390625 43.28125 13.890625 
Q 47.125 21.390625 47.125 36.375 
Q 47.125 51.421875 43.28125 58.90625 
Q 39.453125 66.40625 31.78125 66.40625 
z
M 31.78125 74.21875 
Q 44.046875 74.21875 50.515625 64.515625 
Q 56.984375 54.828125 56.984375 36.375 
Q 56.984375 17.96875 50.515625 8.265625 
Q 44.046875 -1.421875 31.78125 -1.421875 
Q 19.53125 -1.421875 13.0625 8.265625 
Q 6.59375 17.96875 6.59375 36.375 
Q 6.59375 54.828125 13.0625 64.515625 
Q 19.53125 74.21875 31.78125 74.21875 
z
" id="DejaVuSans-48"/>
       <path d="M 10.6875 12.40625 
L 21 12.40625 
L 21 0 
L 10.6875 0 
z
" id="DejaVuSans-46"/>
      </defs>
      <g transform="translate(57.410369 254.356562)scale(0.1 -0.1)">
       <use xlink:href="#DejaVuSans-48"/>
       <use x="63.623047" xlink:href="#DejaVuSans-46"/>
       <use x="95.410156" xlink:href="#DejaVuSans-48"/>
      </g>
     </g>
    </g>
    <g id="xtick_2">
     <g id="line2d_2">
      <g>
       <use style="stroke:#000000;stroke-width:0.8;" x="125.258962" xlink:href="#m83c81f31b6" y="239.758125"/>
      </g>
     </g>
     <g id="text_2">
      <!-- 0.2 -->
      <defs>
       <path d="M 19.1875 8.296875 
L 53.609375 8.296875 
L 53.609375 0 
L 7.328125 0 
L 7.328125 8.296875 
Q 12.9375 14.109375 22.625 23.890625 
Q 32.328125 33.6875 34.8125 36.53125 
Q 39.546875 41.84375 41.421875 45.53125 
Q 43.3125 49.21875 43.3125 52.78125 
Q 43.3125 58.59375 39.234375 62.25 
Q 35.15625 65.921875 28.609375 65.921875 
Q 23.96875 65.921875 18.8125 64.3125 
Q 13.671875 62.703125 7.8125 59.421875 
L 7.8125 69.390625 
Q 13.765625 71.78125 18.9375 73 
Q 24.125 74.21875 28.421875 74.21875 
Q 39.75 74.21875 46.484375 68.546875 
Q 53.21875 62.890625 53.21875 53.421875 
Q 53.21875 48.921875 51.53125 44.890625 
Q 49.859375 40.875 45.40625 35.40625 
Q 44.1875 33.984375 37.640625 27.21875 
Q 31.109375 20.453125 19.1875 8.296875 
z
" id="DejaVuSans-50"/>
      </defs>
      <g transform="translate(117.3074 254.356562)scale(0.1 -0.1)">
       <use xlink:href="#DejaVuSans-48"/>
       <use x="63.623047" xlink:href="#DejaVuSans-46"/>
       <use x="95.410156" xlink:href="#DejaVuSans-50"/>
      </g>
     </g>
    </g>
    <g id="xtick_3">
     <g id="line2d_3">
      <g>
       <use style="stroke:#000000;stroke-width:0.8;" x="185.155992" xlink:href="#m83c81f31b6" y="239.758125"/>
      </g>
     </g>
     <g id="text_3">
      <!-- 0.4 -->
      <defs>
       <path d="M 37.796875 64.3125 
L 12.890625 25.390625 
L 37.796875 25.390625 
z
M 35.203125 72.90625 
L 47.609375 72.90625 
L 47.609375 25.390625 
L 58.015625 25.390625 
L 58.015625 17.1875 
L 47.609375 17.1875 
L 47.609375 0 
L 37.796875 0 
L 37.796875 17.1875 
L 4.890625 17.1875 
L 4.890625 26.703125 
z
" id="DejaVuSans-52"/>
      </defs>
      <g transform="translate(177.20443 254.356562)scale(0.1 -0.1)">
       <use xlink:href="#DejaVuSans-48"/>
       <use x="63.623047" xlink:href="#DejaVuSans-46"/>
       <use x="95.410156" xlink:href="#DejaVuSans-52"/>
      </g>
     </g>
    </g>
    <g id="xtick_4">
     <g id="line2d_4">
      <g>
       <use style="stroke:#000000;stroke-width:0.8;" x="245.053023" xlink:href="#m83c81f31b6" y="239.758125"/>
      </g>
     </g>
     <g id="text_4">
      <!-- 0.6 -->
      <defs>
       <path d="M 33.015625 40.375 
Q 26.375 40.375 22.484375 35.828125 
Q 18.609375 31.296875 18.609375 23.390625 
Q 18.609375 15.53125 22.484375 10.953125 
Q 26.375 6.390625 33.015625 6.390625 
Q 39.65625 6.390625 43.53125 10.953125 
Q 47.40625 15.53125 47.40625 23.390625 
Q 47.40625 31.296875 43.53125 35.828125 
Q 39.65625 40.375 33.015625 40.375 
z
M 52.59375 71.296875 
L 52.59375 62.3125 
Q 48.875 64.0625 45.09375 64.984375 
Q 41.3125 65.921875 37.59375 65.921875 
Q 27.828125 65.921875 22.671875 59.328125 
Q 17.53125 52.734375 16.796875 39.40625 
Q 19.671875 43.65625 24.015625 45.921875 
Q 28.375 48.1875 33.59375 48.1875 
Q 44.578125 48.1875 50.953125 41.515625 
Q 57.328125 34.859375 57.328125 23.390625 
Q 57.328125 12.15625 50.6875 5.359375 
Q 44.046875 -1.421875 33.015625 -1.421875 
Q 20.359375 -1.421875 13.671875 8.265625 
Q 6.984375 17.96875 6.984375 36.375 
Q 6.984375 53.65625 15.1875 63.9375 
Q 23.390625 74.21875 37.203125 74.21875 
Q 40.921875 74.21875 44.703125 73.484375 
Q 48.484375 72.75 52.59375 71.296875 
z
" id="DejaVuSans-54"/>
      </defs>
      <g transform="translate(237.10146 254.356562)scale(0.1 -0.1)">
       <use xlink:href="#DejaVuSans-48"/>
       <use x="63.623047" xlink:href="#DejaVuSans-46"/>
       <use x="95.410156" xlink:href="#DejaVuSans-54"/>
      </g>
     </g>
    </g>
    <g id="xtick_5">
     <g id="line2d_5">
      <g>
       <use style="stroke:#000000;stroke-width:0.8;" x="304.950053" xlink:href="#m83c81f31b6" y="239.758125"/>
      </g>
     </g>
     <g id="text_5">
      <!-- 0.8 -->
      <defs>
       <path d="M 31.78125 34.625 
Q 24.75 34.625 20.71875 30.859375 
Q 16.703125 27.09375 16.703125 20.515625 
Q 16.703125 13.921875 20.71875 10.15625 
Q 24.75 6.390625 31.78125 6.390625 
Q 38.8125 6.390625 42.859375 10.171875 
Q 46.921875 13.96875 46.921875 20.515625 
Q 46.921875 27.09375 42.890625 30.859375 
Q 38.875 34.625 31.78125 34.625 
z
M 21.921875 38.8125 
Q 15.578125 40.375 12.03125 44.71875 
Q 8.5 49.078125 8.5 55.328125 
Q 8.5 64.0625 14.71875 69.140625 
Q 20.953125 74.21875 31.78125 74.21875 
Q 42.671875 74.21875 48.875 69.140625 
Q 55.078125 64.0625 55.078125 55.328125 
Q 55.078125 49.078125 51.53125 44.71875 
Q 48 40.375 41.703125 38.8125 
Q 48.828125 37.15625 52.796875 32.3125 
Q 56.78125 27.484375 56.78125 20.515625 
Q 56.78125 9.90625 50.3125 4.234375 
Q 43.84375 -1.421875 31.78125 -1.421875 
Q 19.734375 -1.421875 13.25 4.234375 
Q 6.78125 9.90625 6.78125 20.515625 
Q 6.78125 27.484375 10.78125 32.3125 
Q 14.796875 37.15625 21.921875 38.8125 
z
M 18.3125 54.390625 
Q 18.3125 48.734375 21.84375 45.5625 
Q 25.390625 42.390625 31.78125 42.390625 
Q 38.140625 42.390625 41.71875 45.5625 
Q 45.3125 48.734375 45.3125 54.390625 
Q 45.3125 60.0625 41.71875 63.234375 
Q 38.140625 66.40625 31.78125 66.40625 
Q 25.390625 66.40625 21.84375 63.234375 
Q 18.3125 60.0625 18.3125 54.390625 
z
" id="DejaVuSans-56"/>
      </defs>
      <g transform="translate(296.99849 254.356562)scale(0.1 -0.1)">
       <use xlink:href="#DejaVuSans-48"/>
       <use x="63.623047" xlink:href="#DejaVuSans-46"/>
       <use x="95.410156" xlink:href="#DejaVuSans-56"/>
      </g>
     </g>
    </g>
    <g id="xtick_6">
     <g id="line2d_6">
      <g>
       <use style="stroke:#000000;stroke-width:0.8;" x="364.847083" xlink:href="#m83c81f31b6" y="239.758125"/>
      </g>
     </g>
     <g id="text_6">
      <!-- 1.0 -->
      <defs>
       <path d="M 12.40625 8.296875 
L 28.515625 8.296875 
L 28.515625 63.921875 
L 10.984375 60.40625 
L 10.984375 69.390625 
L 28.421875 72.90625 
L 38.28125 72.90625 
L 38.28125 8.296875 
L 54.390625 8.296875 
L 54.390625 0 
L 12.40625 0 
z
" id="DejaVuSans-49"/>
      </defs>
      <g transform="translate(356.895521 254.356562)scale(0.1 -0.1)">
       <use xlink:href="#DejaVuSans-49"/>
       <use x="63.623047" xlink:href="#DejaVuSans-46"/>
       <use x="95.410156" xlink:href="#DejaVuSans-48"/>
      </g>
     </g>
    </g>
    <g id="text_7">
     <!-- Time (ms) -->
     <defs>
      <path d="M -0.296875 72.90625 
L 61.375 72.90625 
L 61.375 64.59375 
L 35.5 64.59375 
L 35.5 0 
L 25.59375 0 
L 25.59375 64.59375 
L -0.296875 64.59375 
z
" id="DejaVuSans-84"/>
      <path d="M 9.421875 54.6875 
L 18.40625 54.6875 
L 18.40625 0 
L 9.421875 0 
z
M 9.421875 75.984375 
L 18.40625 75.984375 
L 18.40625 64.59375 
L 9.421875 64.59375 
z
" id="DejaVuSans-105"/>
      <path d="M 52 44.1875 
Q 55.375 50.25 60.0625 53.125 
Q 64.75 56 71.09375 56 
Q 79.640625 56 84.28125 50.015625 
Q 88.921875 44.046875 88.921875 33.015625 
L 88.921875 0 
L 79.890625 0 
L 79.890625 32.71875 
Q 79.890625 40.578125 77.09375 44.375 
Q 74.3125 48.1875 68.609375 48.1875 
Q 61.625 48.1875 57.5625 43.546875 
Q 53.515625 38.921875 53.515625 30.90625 
L 53.515625 0 
L 44.484375 0 
L 44.484375 32.71875 
Q 44.484375 40.625 41.703125 44.40625 
Q 38.921875 48.1875 33.109375 48.1875 
Q 26.21875 48.1875 22.15625 43.53125 
Q 18.109375 38.875 18.109375 30.90625 
L 18.109375 0 
L 9.078125 0 
L 9.078125 54.6875 
L 18.109375 54.6875 
L 18.109375 46.1875 
Q 21.1875 51.21875 25.484375 53.609375 
Q 29.78125 56 35.6875 56 
Q 41.65625 56 45.828125 52.96875 
Q 50 49.953125 52 44.1875 
z
" id="DejaVuSans-109"/>
      <path d="M 56.203125 29.59375 
L 56.203125 25.203125 
L 14.890625 25.203125 
Q 15.484375 15.921875 20.484375 11.0625 
Q 25.484375 6.203125 34.421875 6.203125 
Q 39.59375 6.203125 44.453125 7.46875 
Q 49.3125 8.734375 54.109375 11.28125 
L 54.109375 2.78125 
Q 49.265625 0.734375 44.1875 -0.34375 
Q 39.109375 -1.421875 33.890625 -1.421875 
Q 20.796875 -1.421875 13.15625 6.1875 
Q 5.515625 13.8125 5.515625 26.8125 
Q 5.515625 40.234375 12.765625 48.109375 
Q 20.015625 56 32.328125 56 
Q 43.359375 56 49.78125 48.890625 
Q 56.203125 41.796875 56.203125 29.59375 
z
M 47.21875 32.234375 
Q 47.125 39.59375 43.09375 43.984375 
Q 39.0625 48.390625 32.421875 48.390625 
Q 24.90625 48.390625 20.390625 44.140625 
Q 15.875 39.890625 15.1875 32.171875 
z
" id="DejaVuSans-101"/>
      <path id="DejaVuSans-32"/>
      <path d="M 31 75.875 
Q 24.46875 64.65625 21.28125 53.65625 
Q 18.109375 42.671875 18.109375 31.390625 
Q 18.109375 20.125 21.3125 9.0625 
Q 24.515625 -2 31 -13.1875 
L 23.1875 -13.1875 
Q 15.875 -1.703125 12.234375 9.375 
Q 8.59375 20.453125 8.59375 31.390625 
Q 8.59375 42.28125 12.203125 53.3125 
Q 15.828125 64.359375 23.1875 75.875 
z
" id="DejaVuSans-40"/>
      <path d="M 44.28125 53.078125 
L 44.28125 44.578125 
Q 40.484375 46.53125 36.375 47.5 
Q 32.28125 48.484375 27.875 48.484375 
Q 21.1875 48.484375 17.84375 46.4375 
Q 14.5 44.390625 14.5 40.28125 
Q 14.5 37.15625 16.890625 35.375 
Q 19.28125 33.59375 26.515625 31.984375 
L 29.59375 31.296875 
Q 39.15625 29.25 43.1875 25.515625 
Q 47.21875 21.78125 47.21875 15.09375 
Q 47.21875 7.46875 41.1875 3.015625 
Q 35.15625 -1.421875 24.609375 -1.421875 
Q 20.21875 -1.421875 15.453125 -0.5625 
Q 10.6875 0.296875 5.421875 2 
L 5.421875 11.28125 
Q 10.40625 8.6875 15.234375 7.390625 
Q 20.0625 6.109375 24.8125 6.109375 
Q 31.15625 6.109375 34.5625 8.28125 
Q 37.984375 10.453125 37.984375 14.40625 
Q 37.984375 18.0625 35.515625 20.015625 
Q 33.0625 21.96875 24.703125 23.78125 
L 21.578125 24.515625 
Q 13.234375 26.265625 9.515625 29.90625 
Q 5.8125 33.546875 5.8125 39.890625 
Q 5.8125 47.609375 11.28125 51.796875 
Q 16.75 56 26.8125 56 
Q 31.78125 56 36.171875 55.265625 
Q 40.578125 54.546875 44.28125 53.078125 
z
" id="DejaVuSans-115"/>
      <path d="M 8.015625 75.875 
L 15.828125 75.875 
Q 23.140625 64.359375 26.78125 53.3125 
Q 30.421875 42.28125 30.421875 31.390625 
Q 30.421875 20.453125 26.78125 9.375 
Q 23.140625 -1.703125 15.828125 -13.1875 
L 8.015625 -13.1875 
Q 14.5 -2 17.703125 9.0625 
Q 20.90625 20.125 20.90625 31.390625 
Q 20.90625 42.671875 17.703125 53.65625 
Q 14.5 64.65625 8.015625 75.875 
z
" id="DejaVuSans-41"/>
     </defs>
     <g transform="translate(192.190625 268.034687)scale(0.1 -0.1)">
      <use xlink:href="#DejaVuSans-84"/>
      <use x="61.037109" xlink:href="#DejaVuSans-105"/>
      <use x="88.820312" xlink:href="#DejaVuSans-109"/>
      <use x="186.232422" xlink:href="#DejaVuSans-101"/>
      <use x="247.755859" xlink:href="#DejaVuSans-32"/>
      <use x="279.542969" xlink:href="#DejaVuSans-40"/>
      <use x="318.556641" xlink:href="#DejaVuSans-109"/>
      <use x="415.96875" xlink:href="#DejaVuSans-115"/>
      <use x="468.068359" xlink:href="#DejaVuSans-41"/>
     </g>
    </g>
   </g>
   <g id="matplotlib.axis_2">
    <g id="ytick_1">
     <g id="line2d_7">
      <defs>
       <path d="M 0 0 
L -3.5 0 
" id="m47ff2d0f70" style="stroke:#000000;stroke-width:0.8;"/>
      </defs>
      <g>
       <use style="stroke:#000000;stroke-width:0.8;" x="50.14375" xlink:href="#m47ff2d0f70" y="228.350751"/>
      </g>
     </g>
     <g id="text_8">
      <!-- 0.02 -->
      <g transform="translate(20.878125 232.14997)scale(0.1 -0.1)">
       <use xlink:href="#DejaVuSans-48"/>
       <use x="63.623047" xlink:href="#DejaVuSans-46"/>
       <use x="95.410156" xlink:href="#DejaVuSans-48"/>
       <use x="159.033203" xlink:href="#DejaVuSans-50"/>
      </g>
     </g>
    </g>
    <g id="ytick_2">
     <g id="line2d_8">
      <g>
       <use style="stroke:#000000;stroke-width:0.8;" x="50.14375" xlink:href="#m47ff2d0f70" y="201.360168"/>
      </g>
     </g>
     <g id="text_9">
      <!-- 0.04 -->
      <g transform="translate(20.878125 205.159387)scale(0.1 -0.1)">
       <use xlink:href="#DejaVuSans-48"/>
       <use x="63.623047" xlink:href="#DejaVuSans-46"/>
       <use x="95.410156" xlink:href="#DejaVuSans-48"/>
       <use x="159.033203" xlink:href="#DejaVuSans-52"/>
      </g>
     </g>
    </g>
    <g id="ytick_3">
     <g id="line2d_9">
      <g>
       <use style="stroke:#000000;stroke-width:0.8;" x="50.14375" xlink:href="#m47ff2d0f70" y="174.369585"/>
      </g>
     </g>
     <g id="text_10">
      <!-- 0.06 -->
      <g transform="translate(20.878125 178.168804)scale(0.1 -0.1)">
       <use xlink:href="#DejaVuSans-48"/>
       <use x="63.623047" xlink:href="#DejaVuSans-46"/>
       <use x="95.410156" xlink:href="#DejaVuSans-48"/>
       <use x="159.033203" xlink:href="#DejaVuSans-54"/>
      </g>
     </g>
    </g>
    <g id="ytick_4">
     <g id="line2d_10">
      <g>
       <use style="stroke:#000000;stroke-width:0.8;" x="50.14375" xlink:href="#m47ff2d0f70" y="147.379002"/>
      </g>
     </g>
     <g id="text_11">
      <!-- 0.08 -->
      <g transform="translate(20.878125 151.178221)scale(0.1 -0.1)">
       <use xlink:href="#DejaVuSans-48"/>
       <use x="63.623047" xlink:href="#DejaVuSans-46"/>
       <use x="95.410156" xlink:href="#DejaVuSans-48"/>
       <use x="159.033203" xlink:href="#DejaVuSans-56"/>
      </g>
     </g>
    </g>
    <g id="ytick_5">
     <g id="line2d_11">
      <g>
       <use style="stroke:#000000;stroke-width:0.8;" x="50.14375" xlink:href="#m47ff2d0f70" y="120.388419"/>
      </g>
     </g>
     <g id="text_12">
      <!-- 0.10 -->
      <g transform="translate(20.878125 124.187637)scale(0.1 -0.1)">
       <use xlink:href="#DejaVuSans-48"/>
       <use x="63.623047" xlink:href="#DejaVuSans-46"/>
       <use x="95.410156" xlink:href="#DejaVuSans-49"/>
       <use x="159.033203" xlink:href="#DejaVuSans-48"/>
      </g>
     </g>
    </g>
    <g id="ytick_6">
     <g id="line2d_12">
      <g>
       <use style="stroke:#000000;stroke-width:0.8;" x="50.14375" xlink:href="#m47ff2d0f70" y="93.397836"/>
      </g>
     </g>
     <g id="text_13">
      <!-- 0.12 -->
      <g transform="translate(20.878125 97.197054)scale(0.1 -0.1)">
       <use xlink:href="#DejaVuSans-48"/>
       <use x="63.623047" xlink:href="#DejaVuSans-46"/>
       <use x="95.410156" xlink:href="#DejaVuSans-49"/>
       <use x="159.033203" xlink:href="#DejaVuSans-50"/>
      </g>
     </g>
    </g>
    <g id="ytick_7">
     <g id="line2d_13">
      <g>
       <use style="stroke:#000000;stroke-width:0.8;" x="50.14375" xlink:href="#m47ff2d0f70" y="66.407253"/>
      </g>
     </g>
     <g id="text_14">
      <!-- 0.14 -->
      <g transform="translate(20.878125 70.206471)scale(0.1 -0.1)">
       <use xlink:href="#DejaVuSans-48"/>
       <use x="63.623047" xlink:href="#DejaVuSans-46"/>
       <use x="95.410156" xlink:href="#DejaVuSans-49"/>
       <use x="159.033203" xlink:href="#DejaVuSans-52"/>
      </g>
     </g>
    </g>
    <g id="ytick_8">
     <g id="line2d_14">
      <g>
       <use style="stroke:#000000;stroke-width:0.8;" x="50.14375" xlink:href="#m47ff2d0f70" y="39.41667"/>
      </g>
     </g>
     <g id="text_15">
      <!-- 0.16 -->
      <g transform="translate(20.878125 43.215888)scale(0.1 -0.1)">
       <use xlink:href="#DejaVuSans-48"/>
       <use x="63.623047" xlink:href="#DejaVuSans-46"/>
       <use x="95.410156" xlink:href="#DejaVuSans-49"/>
       <use x="159.033203" xlink:href="#DejaVuSans-54"/>
      </g>
     </g>
    </g>
    <g id="text_16">
     <!-- Absorbance227 -->
     <defs>
      <path d="M 34.1875 63.1875 
L 20.796875 26.90625 
L 47.609375 26.90625 
z
M 28.609375 72.90625 
L 39.796875 72.90625 
L 67.578125 0 
L 57.328125 0 
L 50.6875 18.703125 
L 17.828125 18.703125 
L 11.1875 0 
L 0.78125 0 
z
" id="DejaVuSans-65"/>
      <path d="M 48.6875 27.296875 
Q 48.6875 37.203125 44.609375 42.84375 
Q 40.53125 48.484375 33.40625 48.484375 
Q 26.265625 48.484375 22.1875 42.84375 
Q 18.109375 37.203125 18.109375 27.296875 
Q 18.109375 17.390625 22.1875 11.75 
Q 26.265625 6.109375 33.40625 6.109375 
Q 40.53125 6.109375 44.609375 11.75 
Q 48.6875 17.390625 48.6875 27.296875 
z
M 18.109375 46.390625 
Q 20.953125 51.265625 25.265625 53.625 
Q 29.59375 56 35.59375 56 
Q 45.5625 56 51.78125 48.09375 
Q 58.015625 40.1875 58.015625 27.296875 
Q 58.015625 14.40625 51.78125 6.484375 
Q 45.5625 -1.421875 35.59375 -1.421875 
Q 29.59375 -1.421875 25.265625 0.953125 
Q 20.953125 3.328125 18.109375 8.203125 
L 18.109375 0 
L 9.078125 0 
L 9.078125 75.984375 
L 18.109375 75.984375 
z
" id="DejaVuSans-98"/>
      <path d="M 30.609375 48.390625 
Q 23.390625 48.390625 19.1875 42.75 
Q 14.984375 37.109375 14.984375 27.296875 
Q 14.984375 17.484375 19.15625 11.84375 
Q 23.34375 6.203125 30.609375 6.203125 
Q 37.796875 6.203125 41.984375 11.859375 
Q 46.1875 17.53125 46.1875 27.296875 
Q 46.1875 37.015625 41.984375 42.703125 
Q 37.796875 48.390625 30.609375 48.390625 
z
M 30.609375 56 
Q 42.328125 56 49.015625 48.375 
Q 55.71875 40.765625 55.71875 27.296875 
Q 55.71875 13.875 49.015625 6.21875 
Q 42.328125 -1.421875 30.609375 -1.421875 
Q 18.84375 -1.421875 12.171875 6.21875 
Q 5.515625 13.875 5.515625 27.296875 
Q 5.515625 40.765625 12.171875 48.375 
Q 18.84375 56 30.609375 56 
z
" id="DejaVuSans-111"/>
      <path d="M 41.109375 46.296875 
Q 39.59375 47.171875 37.8125 47.578125 
Q 36.03125 48 33.890625 48 
Q 26.265625 48 22.1875 43.046875 
Q 18.109375 38.09375 18.109375 28.8125 
L 18.109375 0 
L 9.078125 0 
L 9.078125 54.6875 
L 18.109375 54.6875 
L 18.109375 46.1875 
Q 20.953125 51.171875 25.484375 53.578125 
Q 30.03125 56 36.53125 56 
Q 37.453125 56 38.578125 55.875 
Q 39.703125 55.765625 41.0625 55.515625 
z
" id="DejaVuSans-114"/>
      <path d="M 34.28125 27.484375 
Q 23.390625 27.484375 19.1875 25 
Q 14.984375 22.515625 14.984375 16.5 
Q 14.984375 11.71875 18.140625 8.90625 
Q 21.296875 6.109375 26.703125 6.109375 
Q 34.1875 6.109375 38.703125 11.40625 
Q 43.21875 16.703125 43.21875 25.484375 
L 43.21875 27.484375 
z
M 52.203125 31.203125 
L 52.203125 0 
L 43.21875 0 
L 43.21875 8.296875 
Q 40.140625 3.328125 35.546875 0.953125 
Q 30.953125 -1.421875 24.3125 -1.421875 
Q 15.921875 -1.421875 10.953125 3.296875 
Q 6 8.015625 6 15.921875 
Q 6 25.140625 12.171875 29.828125 
Q 18.359375 34.515625 30.609375 34.515625 
L 43.21875 34.515625 
L 43.21875 35.40625 
Q 43.21875 41.609375 39.140625 45 
Q 35.0625 48.390625 27.6875 48.390625 
Q 23 48.390625 18.546875 47.265625 
Q 14.109375 46.140625 10.015625 43.890625 
L 10.015625 52.203125 
Q 14.9375 54.109375 19.578125 55.046875 
Q 24.21875 56 28.609375 56 
Q 40.484375 56 46.34375 49.84375 
Q 52.203125 43.703125 52.203125 31.203125 
z
" id="DejaVuSans-97"/>
      <path d="M 54.890625 33.015625 
L 54.890625 0 
L 45.90625 0 
L 45.90625 32.71875 
Q 45.90625 40.484375 42.875 44.328125 
Q 39.84375 48.1875 33.796875 48.1875 
Q 26.515625 48.1875 22.3125 43.546875 
Q 18.109375 38.921875 18.109375 30.90625 
L 18.109375 0 
L 9.078125 0 
L 9.078125 54.6875 
L 18.109375 54.6875 
L 18.109375 46.1875 
Q 21.34375 51.125 25.703125 53.5625 
Q 30.078125 56 35.796875 56 
Q 45.21875 56 50.046875 50.171875 
Q 54.890625 44.34375 54.890625 33.015625 
z
" id="DejaVuSans-110"/>
      <path d="M 48.78125 52.59375 
L 48.78125 44.1875 
Q 44.96875 46.296875 41.140625 47.34375 
Q 37.3125 48.390625 33.40625 48.390625 
Q 24.65625 48.390625 19.8125 42.84375 
Q 14.984375 37.3125 14.984375 27.296875 
Q 14.984375 17.28125 19.8125 11.734375 
Q 24.65625 6.203125 33.40625 6.203125 
Q 37.3125 6.203125 41.140625 7.25 
Q 44.96875 8.296875 48.78125 10.40625 
L 48.78125 2.09375 
Q 45.015625 0.34375 40.984375 -0.53125 
Q 36.96875 -1.421875 32.421875 -1.421875 
Q 20.0625 -1.421875 12.78125 6.34375 
Q 5.515625 14.109375 5.515625 27.296875 
Q 5.515625 40.671875 12.859375 48.328125 
Q 20.21875 56 33.015625 56 
Q 37.15625 56 41.109375 55.140625 
Q 45.0625 54.296875 48.78125 52.59375 
z
" id="DejaVuSans-99"/>
      <path d="M 8.203125 72.90625 
L 55.078125 72.90625 
L 55.078125 68.703125 
L 28.609375 0 
L 18.3125 0 
L 43.21875 64.59375 
L 8.203125 64.59375 
z
" id="DejaVuSans-55"/>
     </defs>
     <g transform="translate(14.798438 170.12875)rotate(-90)scale(0.1 -0.1)">
      <use xlink:href="#DejaVuSans-65"/>
      <use x="68.408203" xlink:href="#DejaVuSans-98"/>
      <use x="131.884766" xlink:href="#DejaVuSans-115"/>
      <use x="183.984375" xlink:href="#DejaVuSans-111"/>
      <use x="245.166016" xlink:href="#DejaVuSans-114"/>
      <use x="286.279297" xlink:href="#DejaVuSans-98"/>
      <use x="349.755859" xlink:href="#DejaVuSans-97"/>
      <use x="411.035156" xlink:href="#DejaVuSans-110"/>
      <use x="474.414062" xlink:href="#DejaVuSans-99"/>
      <use x="529.394531" xlink:href="#DejaVuSans-101"/>
      <use x="590.917969" xlink:href="#DejaVuSans-50"/>
      <use x="654.541016" xlink:href="#DejaVuSans-50"/>
      <use x="718.164062" xlink:href="#DejaVuSans-55"/>
     </g>
    </g>
   </g>
   <g id="line2d_15">
    <defs>
     <path d="M 0 3 
C 0.795609 3 1.55874 2.683901 2.12132 2.12132 
C 2.683901 1.55874 3 0.795609 3 0 
C 3 -0.795609 2.683901 -1.55874 2.12132 -2.12132 
C 1.55874 -2.683901 0.795609 -3 0 -3 
C -0.795609 -3 -1.55874 -2.683901 -2.12132 -2.12132 
C -2.683901 -1.55874 -3 -0.795609 -3 0 
C -3 0.795609 -2.683901 1.55874 -2.12132 2.12132 
C -1.55874 2.683901 -0.795609 3 0 3 
z
" id="mbc5a335aea" style="stroke:#000000;"/>
    </defs>
    <g clip-path="url(#p0176fcbaaa)">
     <use style="stroke:#000000;" x="65.361932" xlink:href="#mbc5a335aea" y="163.129087"/>
     <use style="stroke:#000000;" x="65.361945" xlink:href="#mbc5a335aea" y="163.129087"/>
     <use style="stroke:#000000;" x="65.361994" xlink:href="#mbc5a335aea" y="163.129087"/>
     <use style="stroke:#000000;" x="65.362042" xlink:href="#mbc5a335aea" y="163.129087"/>
     <use style="stroke:#000000;" x="65.362091" xlink:href="#mbc5a335aea" y="163.129087"/>
     <use style="stroke:#000000;" x="65.362166" xlink:href="#mbc5a335aea" y="163.129087"/>
     <use style="stroke:#000000;" x="65.362288" xlink:href="#mbc5a335aea" y="163.129087"/>
     <use style="stroke:#000000;" x="65.362498" xlink:href="#mbc5a335aea" y="163.129222"/>
     <use style="stroke:#000000;" x="65.362863" xlink:href="#mbc5a335aea" y="163.129222"/>
     <use style="stroke:#000000;" x="65.363516" xlink:href="#mbc5a335aea" y="163.129491"/>
     <use style="stroke:#000000;" x="65.365136" xlink:href="#mbc5a335aea" y="163.129896"/>
     <use style="stroke:#000000;" x="65.366754" xlink:href="#mbc5a335aea" y="163.130166"/>
     <use style="stroke:#000000;" x="65.368371" xlink:href="#mbc5a335aea" y="163.130571"/>
     <use style="stroke:#000000;" x="65.369988" xlink:href="#mbc5a335aea" y="163.130976"/>
     <use style="stroke:#000000;" x="65.371605" xlink:href="#mbc5a335aea" y="163.131381"/>
     <use style="stroke:#000000;" x="65.373492" xlink:href="#mbc5a335aea" y="163.131786"/>
     <use style="stroke:#000000;" x="65.375409" xlink:href="#mbc5a335aea" y="163.132191"/>
     <use style="stroke:#000000;" x="65.377295" xlink:href="#mbc5a335aea" y="163.132595"/>
     <use style="stroke:#000000;" x="65.3802" xlink:href="#mbc5a335aea" y="163.13327"/>
     <use style="stroke:#000000;" x="65.383105" xlink:href="#mbc5a335aea" y="163.133945"/>
     <use style="stroke:#000000;" x="65.38601" xlink:href="#mbc5a335aea" y="163.134485"/>
     <use style="stroke:#000000;" x="65.390622" xlink:href="#mbc5a335aea" y="163.135429"/>
     <use style="stroke:#000000;" x="65.39787" xlink:href="#mbc5a335aea" y="163.136779"/>
     <use style="stroke:#000000;" x="65.405058" xlink:href="#mbc5a335aea" y="163.138128"/>
     <use style="stroke:#000000;" x="65.412245" xlink:href="#mbc5a335aea" y="163.139208"/>
     <use style="stroke:#000000;" x="65.425722" xlink:href="#mbc5a335aea" y="163.141232"/>
     <use style="stroke:#000000;" x="65.439498" xlink:href="#mbc5a335aea" y="163.142987"/>
     <use style="stroke:#000000;" x="65.453275" xlink:href="#mbc5a335aea" y="163.144336"/>
     <use style="stroke:#000000;" x="65.467051" xlink:href="#mbc5a335aea" y="163.145416"/>
     <use style="stroke:#000000;" x="65.480827" xlink:href="#mbc5a335aea" y="163.146091"/>
     <use style="stroke:#000000;" x="65.501492" xlink:href="#mbc5a335aea" y="163.146496"/>
     <use style="stroke:#000000;" x="65.522156" xlink:href="#mbc5a335aea" y="163.146361"/>
     <use style="stroke:#000000;" x="65.54312" xlink:href="#mbc5a335aea" y="163.145416"/>
     <use style="stroke:#000000;" x="65.563785" xlink:href="#mbc5a335aea" y="163.143662"/>
     <use style="stroke:#000000;" x="65.584449" xlink:href="#mbc5a335aea" y="163.141367"/>
     <use style="stroke:#000000;" x="65.617093" xlink:href="#mbc5a335aea" y="163.136239"/>
     <use style="stroke:#000000;" x="65.667407" xlink:href="#mbc5a335aea" y="163.124903"/>
     <use style="stroke:#000000;" x="65.70035" xlink:href="#mbc5a335aea" y="163.115726"/>
     <use style="stroke:#000000;" x="65.733293" xlink:href="#mbc5a335aea" y="163.10493"/>
     <use style="stroke:#000000;" x="65.763242" xlink:href="#mbc5a335aea" y="163.092649"/>
     <use style="stroke:#000000;" x="65.796185" xlink:href="#mbc5a335aea" y="163.079019"/>
     <use style="stroke:#000000;" x="65.829129" xlink:href="#mbc5a335aea" y="163.063769"/>
     <use style="stroke:#000000;" x="65.859077" xlink:href="#mbc5a335aea" y="163.047035"/>
     <use style="stroke:#000000;" x="65.892021" xlink:href="#mbc5a335aea" y="163.028952"/>
     <use style="stroke:#000000;" x="65.951918" xlink:href="#mbc5a335aea" y="162.991974"/>
     <use style="stroke:#000000;" x="66.011815" xlink:href="#mbc5a335aea" y="162.950409"/>
     <use style="stroke:#000000;" x="66.068717" xlink:href="#mbc5a335aea" y="162.90439"/>
     <use style="stroke:#000000;" x="66.128614" xlink:href="#mbc5a335aea" y="162.853918"/>
     <use style="stroke:#000000;" x="66.188511" xlink:href="#mbc5a335aea" y="162.799397"/>
     <use style="stroke:#000000;" x="66.245413" xlink:href="#mbc5a335aea" y="162.740827"/>
     <use style="stroke:#000000;" x="66.30531" xlink:href="#mbc5a335aea" y="162.678344"/>
     <use style="stroke:#000000;" x="66.395156" xlink:href="#mbc5a335aea" y="162.576454"/>
     <use style="stroke:#000000;" x="66.485001" xlink:href="#mbc5a335aea" y="162.466333"/>
     <use style="stroke:#000000;" x="66.574847" xlink:href="#mbc5a335aea" y="162.348384"/>
     <use style="stroke:#000000;" x="66.661697" xlink:href="#mbc5a335aea" y="162.222878"/>
     <use style="stroke:#000000;" x="66.751543" xlink:href="#mbc5a335aea" y="162.090354"/>
     <use style="stroke:#000000;" x="66.841388" xlink:href="#mbc5a335aea" y="161.950948"/>
     <use style="stroke:#000000;" x="66.931234" xlink:href="#mbc5a335aea" y="161.805199"/>
     <use style="stroke:#000000;" x="67.02108" xlink:href="#mbc5a335aea" y="161.653377"/>
     <use style="stroke:#000000;" x="67.10793" xlink:href="#mbc5a335aea" y="161.495886"/>
     <use style="stroke:#000000;" x="67.197776" xlink:href="#mbc5a335aea" y="161.332863"/>
     <use style="stroke:#000000;" x="67.287621" xlink:href="#mbc5a335aea" y="161.164712"/>
     <use style="stroke:#000000;" x="67.377467" xlink:href="#mbc5a335aea" y="160.991702"/>
     <use style="stroke:#000000;" x="67.467312" xlink:href="#mbc5a335aea" y="160.814104"/>
     <use style="stroke:#000000;" x="67.557158" xlink:href="#mbc5a335aea" y="160.632053"/>
     <use style="stroke:#000000;" x="67.644009" xlink:href="#mbc5a335aea" y="160.446088"/>
     <use style="stroke:#000000;" x="67.733854" xlink:href="#mbc5a335aea" y="160.256074"/>
     <use style="stroke:#000000;" x="67.8237" xlink:href="#mbc5a335aea" y="160.062552"/>
     <use style="stroke:#000000;" x="67.913545" xlink:href="#mbc5a335aea" y="159.86552"/>
     <use style="stroke:#000000;" x="68.003391" xlink:href="#mbc5a335aea" y="159.665385"/>
     <use style="stroke:#000000;" x="68.090242" xlink:href="#mbc5a335aea" y="159.462146"/>
     <use style="stroke:#000000;" x="68.180087" xlink:href="#mbc5a335aea" y="159.256208"/>
     <use style="stroke:#000000;" x="68.269933" xlink:href="#mbc5a335aea" y="159.047571"/>
     <use style="stroke:#000000;" x="68.356783" xlink:href="#mbc5a335aea" y="158.836504"/>
     <use style="stroke:#000000;" x="68.446629" xlink:href="#mbc5a335aea" y="158.623009"/>
     <use style="stroke:#000000;" x="68.536474" xlink:href="#mbc5a335aea" y="158.407489"/>
     <use style="stroke:#000000;" x="68.62632" xlink:href="#mbc5a335aea" y="158.19008"/>
     <use style="stroke:#000000;" x="68.716166" xlink:href="#mbc5a335aea" y="157.970646"/>
     <use style="stroke:#000000;" x="68.806011" xlink:href="#mbc5a335aea" y="157.749728"/>
     <use style="stroke:#000000;" x="68.895857" xlink:href="#mbc5a335aea" y="157.527056"/>
     <use style="stroke:#000000;" x="68.985702" xlink:href="#mbc5a335aea" y="157.303034"/>
     <use style="stroke:#000000;" x="69.075548" xlink:href="#mbc5a335aea" y="157.077798"/>
     <use style="stroke:#000000;" x="69.165393" xlink:href="#mbc5a335aea" y="156.851212"/>
     <use style="stroke:#000000;" x="69.255239" xlink:href="#mbc5a335aea" y="156.623681"/>
     <use style="stroke:#000000;" x="69.345084" xlink:href="#mbc5a335aea" y="156.395071"/>
     <use style="stroke:#000000;" x="69.43493" xlink:href="#mbc5a335aea" y="156.165651"/>
     <use style="stroke:#000000;" x="69.524775" xlink:href="#mbc5a335aea" y="155.935421"/>
     <use style="stroke:#000000;" x="69.614621" xlink:href="#mbc5a335aea" y="155.704517"/>
     <use style="stroke:#000000;" x="69.704467" xlink:href="#mbc5a335aea" y="155.473073"/>
     <use style="stroke:#000000;" x="69.794312" xlink:href="#mbc5a335aea" y="155.241089"/>
     <use style="stroke:#000000;" x="69.884158" xlink:href="#mbc5a335aea" y="155.0087"/>
     <use style="stroke:#000000;" x="69.974003" xlink:href="#mbc5a335aea" y="154.776041"/>
     <use style="stroke:#000000;" x="70.063849" xlink:href="#mbc5a335aea" y="154.542977"/>
     <use style="stroke:#000000;" x="70.153694" xlink:href="#mbc5a335aea" y="154.309779"/>
     <use style="stroke:#000000;" x="70.24354" xlink:href="#mbc5a335aea" y="154.07631"/>
     <use style="stroke:#000000;" x="70.333385" xlink:href="#mbc5a335aea" y="153.842977"/>
     <use style="stroke:#000000;" x="70.423231" xlink:href="#mbc5a335aea" y="153.609508"/>
     <use style="stroke:#000000;" x="70.513076" xlink:href="#mbc5a335aea" y="153.376039"/>
     <use style="stroke:#000000;" x="70.602922" xlink:href="#mbc5a335aea" y="153.142841"/>
     <use style="stroke:#000000;" x="70.692768" xlink:href="#mbc5a335aea" y="152.909642"/>
     <use style="stroke:#000000;" x="70.812562" xlink:href="#mbc5a335aea" y="152.559709"/>
     <use style="stroke:#000000;" x="70.962304" xlink:href="#mbc5a335aea" y="152.210316"/>
     <use style="stroke:#000000;" x="71.082098" xlink:href="#mbc5a335aea" y="151.861733"/>
     <use style="stroke:#000000;" x="71.231841" xlink:href="#mbc5a335aea" y="151.514094"/>
     <use style="stroke:#000000;" x="71.351635" xlink:href="#mbc5a335aea" y="151.1674"/>
     <use style="stroke:#000000;" x="71.501377" xlink:href="#mbc5a335aea" y="150.821921"/>
     <use style="stroke:#000000;" x="71.621171" xlink:href="#mbc5a335aea" y="150.477656"/>
     <use style="stroke:#000000;" x="71.740966" xlink:href="#mbc5a335aea" y="150.13474"/>
     <use style="stroke:#000000;" x="71.890708" xlink:href="#mbc5a335aea" y="149.793309"/>
     <use style="stroke:#000000;" x="72.010502" xlink:href="#mbc5a335aea" y="149.453363"/>
     <use style="stroke:#000000;" x="72.160245" xlink:href="#mbc5a335aea" y="149.115171"/>
     <use style="stroke:#000000;" x="72.280039" xlink:href="#mbc5a335aea" y="148.778464"/>
     <use style="stroke:#000000;" x="72.429781" xlink:href="#mbc5a335aea" y="148.443645"/>
     <use style="stroke:#000000;" x="72.549575" xlink:href="#mbc5a335aea" y="148.110582"/>
     <use style="stroke:#000000;" x="72.699318" xlink:href="#mbc5a335aea" y="147.779542"/>
     <use style="stroke:#000000;" x="72.819112" xlink:href="#mbc5a335aea" y="147.450257"/>
     <use style="stroke:#000000;" x="72.968855" xlink:href="#mbc5a335aea" y="147.122996"/>
     <use style="stroke:#000000;" x="73.088649" xlink:href="#mbc5a335aea" y="146.79776"/>
     <use style="stroke:#000000;" x="73.238391" xlink:href="#mbc5a335aea" y="146.474547"/>
     <use style="stroke:#000000;" x="73.358185" xlink:href="#mbc5a335aea" y="146.153359"/>
     <use style="stroke:#000000;" x="73.507928" xlink:href="#mbc5a335aea" y="145.834466"/>
     <use style="stroke:#000000;" x="73.627722" xlink:href="#mbc5a335aea" y="145.517596"/>
     <use style="stroke:#000000;" x="73.777465" xlink:href="#mbc5a335aea" y="145.202886"/>
     <use style="stroke:#000000;" x="73.897259" xlink:href="#mbc5a335aea" y="144.89047"/>
     <use style="stroke:#000000;" x="74.047001" xlink:href="#mbc5a335aea" y="144.580213"/>
     <use style="stroke:#000000;" x="74.166795" xlink:href="#mbc5a335aea" y="144.272251"/>
     <use style="stroke:#000000;" x="74.316538" xlink:href="#mbc5a335aea" y="143.966447"/>
     <use style="stroke:#000000;" x="74.436332" xlink:href="#mbc5a335aea" y="143.662938"/>
     <use style="stroke:#000000;" x="74.586074" xlink:href="#mbc5a335aea" y="143.361723"/>
     <use style="stroke:#000000;" x="74.705869" xlink:href="#mbc5a335aea" y="143.062803"/>
     <use style="stroke:#000000;" x="74.855611" xlink:href="#mbc5a335aea" y="142.766176"/>
     <use style="stroke:#000000;" x="74.975405" xlink:href="#mbc5a335aea" y="142.471844"/>
     <use style="stroke:#000000;" x="75.125148" xlink:href="#mbc5a335aea" y="142.179941"/>
     <use style="stroke:#000000;" x="75.244942" xlink:href="#mbc5a335aea" y="141.890197"/>
     <use style="stroke:#000000;" x="75.364736" xlink:href="#mbc5a335aea" y="141.602882"/>
     <use style="stroke:#000000;" x="75.514478" xlink:href="#mbc5a335aea" y="141.317727"/>
     <use style="stroke:#000000;" x="75.634273" xlink:href="#mbc5a335aea" y="141.035"/>
     <use style="stroke:#000000;" x="75.784015" xlink:href="#mbc5a335aea" y="140.754568"/>
     <use style="stroke:#000000;" x="75.993655" xlink:href="#mbc5a335aea" y="140.337968"/>
     <use style="stroke:#000000;" x="76.173346" xlink:href="#mbc5a335aea" y="139.926497"/>
     <use style="stroke:#000000;" x="76.382985" xlink:href="#mbc5a335aea" y="139.520289"/>
     <use style="stroke:#000000;" x="76.592625" xlink:href="#mbc5a335aea" y="139.119344"/>
     <use style="stroke:#000000;" x="76.802265" xlink:href="#mbc5a335aea" y="138.723527"/>
     <use style="stroke:#000000;" x="76.981956" xlink:href="#mbc5a335aea" y="138.332838"/>
     <use style="stroke:#000000;" x="77.191595" xlink:href="#mbc5a335aea" y="137.947277"/>
     <use style="stroke:#000000;" x="77.401235" xlink:href="#mbc5a335aea" y="137.566845"/>
     <use style="stroke:#000000;" x="77.580926" xlink:href="#mbc5a335aea" y="137.191541"/>
     <use style="stroke:#000000;" x="77.790566" xlink:href="#mbc5a335aea" y="136.82123"/>
     <use style="stroke:#000000;" x="78.000205" xlink:href="#mbc5a335aea" y="136.455913"/>
     <use style="stroke:#000000;" x="78.209845" xlink:href="#mbc5a335aea" y="136.095589"/>
     <use style="stroke:#000000;" x="78.389536" xlink:href="#mbc5a335aea" y="135.740258"/>
     <use style="stroke:#000000;" x="78.599175" xlink:href="#mbc5a335aea" y="135.38992"/>
     <use style="stroke:#000000;" x="78.808815" xlink:href="#mbc5a335aea" y="135.044305"/>
     <use style="stroke:#000000;" x="79.018455" xlink:href="#mbc5a335aea" y="134.703684"/>
     <use style="stroke:#000000;" x="79.198146" xlink:href="#mbc5a335aea" y="134.367786"/>
     <use style="stroke:#000000;" x="79.407785" xlink:href="#mbc5a335aea" y="134.036747"/>
     <use style="stroke:#000000;" x="79.617425" xlink:href="#mbc5a335aea" y="133.710431"/>
     <use style="stroke:#000000;" x="79.797116" xlink:href="#mbc5a335aea" y="133.388838"/>
     <use style="stroke:#000000;" x="80.006756" xlink:href="#mbc5a335aea" y="133.071834"/>
     <use style="stroke:#000000;" x="80.216395" xlink:href="#mbc5a335aea" y="132.759418"/>
     <use style="stroke:#000000;" x="80.426035" xlink:href="#mbc5a335aea" y="132.451725"/>
     <use style="stroke:#000000;" x="80.605726" xlink:href="#mbc5a335aea" y="132.148486"/>
     <use style="stroke:#000000;" x="80.815366" xlink:href="#mbc5a335aea" y="131.849835"/>
     <use style="stroke:#000000;" x="81.025005" xlink:href="#mbc5a335aea" y="131.555638"/>
     <use style="stroke:#000000;" x="81.234645" xlink:href="#mbc5a335aea" y="131.265894"/>
     <use style="stroke:#000000;" x="81.53413" xlink:href="#mbc5a335aea" y="130.833909"/>
     <use style="stroke:#000000;" x="81.833615" xlink:href="#mbc5a335aea" y="130.411912"/>
     <use style="stroke:#000000;" x="82.1331" xlink:href="#mbc5a335aea" y="129.9999"/>
     <use style="stroke:#000000;" x="82.432585" xlink:href="#mbc5a335aea" y="129.597606"/>
     <use style="stroke:#000000;" x="82.762019" xlink:href="#mbc5a335aea" y="129.204758"/>
     <use style="stroke:#000000;" x="83.061504" xlink:href="#mbc5a335aea" y="128.821491"/>
     <use style="stroke:#000000;" x="83.360989" xlink:href="#mbc5a335aea" y="128.447537"/>
     <use style="stroke:#000000;" x="83.660475" xlink:href="#mbc5a335aea" y="128.082759"/>
     <use style="stroke:#000000;" x="83.989908" xlink:href="#mbc5a335aea" y="127.727023"/>
     <use style="stroke:#000000;" x="84.289393" xlink:href="#mbc5a335aea" y="127.380329"/>
     <use style="stroke:#000000;" x="84.588879" xlink:href="#mbc5a335aea" y="127.042272"/>
     <use style="stroke:#000000;" x="84.888364" xlink:href="#mbc5a335aea" y="126.712987"/>
     <use style="stroke:#000000;" x="85.187849" xlink:href="#mbc5a335aea" y="126.392069"/>
     <use style="stroke:#000000;" x="85.517282" xlink:href="#mbc5a335aea" y="126.079788"/>
     <use style="stroke:#000000;" x="85.816768" xlink:href="#mbc5a335aea" y="125.775604"/>
     <use style="stroke:#000000;" x="86.116253" xlink:href="#mbc5a335aea" y="125.479652"/>
     <use style="stroke:#000000;" x="86.415738" xlink:href="#mbc5a335aea" y="125.191663"/>
     <use style="stroke:#000000;" x="86.894914" xlink:href="#mbc5a335aea" y="124.77034"/>
     <use style="stroke:#000000;" x="87.344142" xlink:href="#mbc5a335aea" y="124.366696"/>
     <use style="stroke:#000000;" x="87.823318" xlink:href="#mbc5a335aea" y="123.98046"/>
     <use style="stroke:#000000;" x="88.272546" xlink:href="#mbc5a335aea" y="123.610959"/>
     <use style="stroke:#000000;" x="88.751722" xlink:href="#mbc5a335aea" y="123.258058"/>
     <use style="stroke:#000000;" x="89.20095" xlink:href="#mbc5a335aea" y="122.92135"/>
     <use style="stroke:#000000;" x="89.680126" xlink:href="#mbc5a335aea" y="122.600297"/>
     <use style="stroke:#000000;" x="90.129354" xlink:href="#mbc5a335aea" y="122.294494"/>
     <use style="stroke:#000000;" x="90.60853" xlink:href="#mbc5a335aea" y="122.003805"/>
     <use style="stroke:#000000;" x="91.057758" xlink:href="#mbc5a335aea" y="121.727691"/>
     <use style="stroke:#000000;" x="91.776522" xlink:href="#mbc5a335aea" y="121.334574"/>
     <use style="stroke:#000000;" x="92.495287" xlink:href="#mbc5a335aea" y="120.97317"/>
     <use style="stroke:#000000;" x="93.184102" xlink:href="#mbc5a335aea" y="120.6424"/>
     <use style="stroke:#000000;" x="93.902867" xlink:href="#mbc5a335aea" y="120.341185"/>
     <use style="stroke:#000000;" x="94.591683" xlink:href="#mbc5a335aea" y="120.067231"/>
     <use style="stroke:#000000;" x="95.310447" xlink:href="#mbc5a335aea" y="119.821616"/>
     <use style="stroke:#000000;" x="95.909417" xlink:href="#mbc5a335aea" y="119.601643"/>
     <use style="stroke:#000000;" x="96.807873" xlink:href="#mbc5a335aea" y="119.407311"/>
     <use style="stroke:#000000;" x="97.406843" xlink:href="#mbc5a335aea" y="119.23727"/>
     <use style="stroke:#000000;" x="98.005813" xlink:href="#mbc5a335aea" y="119.088822"/>
     <use style="stroke:#000000;" x="98.904269" xlink:href="#mbc5a335aea" y="118.964665"/>
     <use style="stroke:#000000;" x="99.503239" xlink:href="#mbc5a335aea" y="118.860752"/>
     <use style="stroke:#000000;" x="100.401695" xlink:href="#mbc5a335aea" y="118.777081"/>
     <use style="stroke:#000000;" x="101.000665" xlink:href="#mbc5a335aea" y="118.712304"/>
     <use style="stroke:#000000;" x="101.599635" xlink:href="#mbc5a335aea" y="118.667769"/>
     <use style="stroke:#000000;" x="102.498091" xlink:href="#mbc5a335aea" y="118.640778"/>
     <use style="stroke:#000000;" x="103.097061" xlink:href="#mbc5a335aea" y="118.631332"/>
     <use style="stroke:#000000;" x="103.696031" xlink:href="#mbc5a335aea" y="118.638079"/>
     <use style="stroke:#000000;" x="104.594487" xlink:href="#mbc5a335aea" y="118.661021"/>
     <use style="stroke:#000000;" x="105.193457" xlink:href="#mbc5a335aea" y="118.698808"/>
     <use style="stroke:#000000;" x="105.792427" xlink:href="#mbc5a335aea" y="118.75144"/>
     <use style="stroke:#000000;" x="106.690883" xlink:href="#mbc5a335aea" y="118.818916"/>
     <use style="stroke:#000000;" x="107.289853" xlink:href="#mbc5a335aea" y="118.898539"/>
     <use style="stroke:#000000;" x="107.888823" xlink:href="#mbc5a335aea" y="118.991656"/>
     <use style="stroke:#000000;" x="108.787279" xlink:href="#mbc5a335aea" y="119.09557"/>
     <use style="stroke:#000000;" x="109.386249" xlink:href="#mbc5a335aea" y="119.212979"/>
     <use style="stroke:#000000;" x="110.284704" xlink:href="#mbc5a335aea" y="119.339835"/>
     <use style="stroke:#000000;" x="110.883675" xlink:href="#mbc5a335aea" y="119.478836"/>
     <use style="stroke:#000000;" x="111.482645" xlink:href="#mbc5a335aea" y="119.627284"/>
     <use style="stroke:#000000;" x="112.381101" xlink:href="#mbc5a335aea" y="119.786529"/>
     <use style="stroke:#000000;" x="113.279556" xlink:href="#mbc5a335aea" y="120.049687"/>
     <use style="stroke:#000000;" x="114.477497" xlink:href="#mbc5a335aea" y="120.334438"/>
     <use style="stroke:#000000;" x="115.675437" xlink:href="#mbc5a335aea" y="120.639431"/>
     <use style="stroke:#000000;" x="116.573893" xlink:href="#mbc5a335aea" y="120.961699"/>
     <use style="stroke:#000000;" x="117.771833" xlink:href="#mbc5a335aea" y="121.300835"/>
     <use style="stroke:#000000;" x="118.969774" xlink:href="#mbc5a335aea" y="121.655627"/>
     <use style="stroke:#000000;" x="119.868229" xlink:href="#mbc5a335aea" y="122.024723"/>
     <use style="stroke:#000000;" x="121.06617" xlink:href="#mbc5a335aea" y="122.407179"/>
     <use style="stroke:#000000;" x="122.264111" xlink:href="#mbc5a335aea" y="122.802052"/>
     <use style="stroke:#000000;" x="123.162566" xlink:href="#mbc5a335aea" y="123.208395"/>
     <use style="stroke:#000000;" x="124.360507" xlink:href="#mbc5a335aea" y="123.625264"/>
     <use style="stroke:#000000;" x="125.258962" xlink:href="#mbc5a335aea" y="124.051851"/>
     <use style="stroke:#000000;" x="126.456903" xlink:href="#mbc5a335aea" y="124.487479"/>
     <use style="stroke:#000000;" x="127.654843" xlink:href="#mbc5a335aea" y="124.931339"/>
     <use style="stroke:#000000;" x="128.553299" xlink:href="#mbc5a335aea" y="125.382891"/>
     <use style="stroke:#000000;" x="129.751239" xlink:href="#mbc5a335aea" y="125.841326"/>
     <use style="stroke:#000000;" x="130.94918" xlink:href="#mbc5a335aea" y="126.305969"/>
     <use style="stroke:#000000;" x="131.847635" xlink:href="#mbc5a335aea" y="126.77655"/>
     <use style="stroke:#000000;" x="133.045576" xlink:href="#mbc5a335aea" y="127.252529"/>
     <use style="stroke:#000000;" x="134.243517" xlink:href="#mbc5a335aea" y="127.733096"/>
     <use style="stroke:#000000;" x="135.141972" xlink:href="#mbc5a335aea" y="128.218117"/>
     <use style="stroke:#000000;" x="136.339913" xlink:href="#mbc5a335aea" y="128.707051"/>
     <use style="stroke:#000000;" x="137.537853" xlink:href="#mbc5a335aea" y="129.199495"/>
     <use style="stroke:#000000;" x="138.436309" xlink:href="#mbc5a335aea" y="129.695042"/>
     <use style="stroke:#000000;" x="139.634249" xlink:href="#mbc5a335aea" y="130.193423"/>
     <use style="stroke:#000000;" x="140.83219" xlink:href="#mbc5a335aea" y="130.694233"/>
     <use style="stroke:#000000;" x="141.730645" xlink:href="#mbc5a335aea" y="131.197338"/>
     <use style="stroke:#000000;" x="142.928586" xlink:href="#mbc5a335aea" y="131.702196"/>
     <use style="stroke:#000000;" x="144.126527" xlink:href="#mbc5a335aea" y="132.208675"/>
     <use style="stroke:#000000;" x="145.024982" xlink:href="#mbc5a335aea" y="132.716502"/>
     <use style="stroke:#000000;" x="146.222923" xlink:href="#mbc5a335aea" y="133.22541"/>
     <use style="stroke:#000000;" x="147.420863" xlink:href="#mbc5a335aea" y="133.735262"/>
     <use style="stroke:#000000;" x="148.319319" xlink:href="#mbc5a335aea" y="134.245789"/>
     <use style="stroke:#000000;" x="149.517259" xlink:href="#mbc5a335aea" y="134.756856"/>
     <use style="stroke:#000000;" x="150.7152" xlink:href="#mbc5a335aea" y="135.268192"/>
     <use style="stroke:#000000;" x="151.613655" xlink:href="#mbc5a335aea" y="135.779799"/>
     <use style="stroke:#000000;" x="152.811596" xlink:href="#mbc5a335aea" y="136.29127"/>
     <use style="stroke:#000000;" x="154.009537" xlink:href="#mbc5a335aea" y="136.802742"/>
     <use style="stroke:#000000;" x="154.907992" xlink:href="#mbc5a335aea" y="137.313809"/>
     <use style="stroke:#000000;" x="156.105933" xlink:href="#mbc5a335aea" y="137.82447"/>
     <use style="stroke:#000000;" x="157.303873" xlink:href="#mbc5a335aea" y="138.334727"/>
     <use style="stroke:#000000;" x="158.801299" xlink:href="#mbc5a335aea" y="139.103824"/>
     <use style="stroke:#000000;" x="160.59821" xlink:href="#mbc5a335aea" y="139.871301"/>
     <use style="stroke:#000000;" x="162.095636" xlink:href="#mbc5a335aea" y="140.636484"/>
     <use style="stroke:#000000;" x="163.892547" xlink:href="#mbc5a335aea" y="141.399373"/>
     <use style="stroke:#000000;" x="165.389972" xlink:href="#mbc5a335aea" y="142.159563"/>
     <use style="stroke:#000000;" x="167.186883" xlink:href="#mbc5a335aea" y="142.916919"/>
     <use style="stroke:#000000;" x="168.684309" xlink:href="#mbc5a335aea" y="143.67117"/>
     <use style="stroke:#000000;" x="170.48122" xlink:href="#mbc5a335aea" y="144.422048"/>
     <use style="stroke:#000000;" x="171.978646" xlink:href="#mbc5a335aea" y="145.169688"/>
     <use style="stroke:#000000;" x="173.775557" xlink:href="#mbc5a335aea" y="145.913548"/>
     <use style="stroke:#000000;" x="175.272982" xlink:href="#mbc5a335aea" y="146.6539"/>
     <use style="stroke:#000000;" x="177.069893" xlink:href="#mbc5a335aea" y="147.390338"/>
     <use style="stroke:#000000;" x="178.567319" xlink:href="#mbc5a335aea" y="148.122862"/>
     <use style="stroke:#000000;" x="180.36423" xlink:href="#mbc5a335aea" y="148.851338"/>
     <use style="stroke:#000000;" x="181.861656" xlink:href="#mbc5a335aea" y="149.575765"/>
     <use style="stroke:#000000;" x="183.658567" xlink:href="#mbc5a335aea" y="150.296009"/>
     <use style="stroke:#000000;" x="185.155992" xlink:href="#mbc5a335aea" y="151.012069"/>
     <use style="stroke:#000000;" x="186.952903" xlink:href="#mbc5a335aea" y="151.723946"/>
     <use style="stroke:#000000;" x="188.450329" xlink:href="#mbc5a335aea" y="152.431369"/>
     <use style="stroke:#000000;" x="190.24724" xlink:href="#mbc5a335aea" y="153.134609"/>
     <use style="stroke:#000000;" x="192.044151" xlink:href="#mbc5a335aea" y="153.833395"/>
     <use style="stroke:#000000;" x="193.541577" xlink:href="#mbc5a335aea" y="154.527728"/>
     <use style="stroke:#000000;" x="195.338487" xlink:href="#mbc5a335aea" y="155.217742"/>
     <use style="stroke:#000000;" x="196.835913" xlink:href="#mbc5a335aea" y="155.903303"/>
     <use style="stroke:#000000;" x="198.632824" xlink:href="#mbc5a335aea" y="156.58441"/>
     <use style="stroke:#000000;" x="200.13025" xlink:href="#mbc5a335aea" y="157.261064"/>
     <use style="stroke:#000000;" x="201.927161" xlink:href="#mbc5a335aea" y="157.933264"/>
     <use style="stroke:#000000;" x="204.323042" xlink:href="#mbc5a335aea" y="158.935155"/>
     <use style="stroke:#000000;" x="206.718923" xlink:href="#mbc5a335aea" y="159.926924"/>
     <use style="stroke:#000000;" x="209.41429" xlink:href="#mbc5a335aea" y="160.908706"/>
     <use style="stroke:#000000;" x="211.810171" xlink:href="#mbc5a335aea" y="161.880502"/>
     <use style="stroke:#000000;" x="214.206052" xlink:href="#mbc5a335aea" y="162.842447"/>
     <use style="stroke:#000000;" x="216.601933" xlink:href="#mbc5a335aea" y="163.794405"/>
     <use style="stroke:#000000;" x="219.2973" xlink:href="#mbc5a335aea" y="164.736646"/>
     <use style="stroke:#000000;" x="221.693181" xlink:href="#mbc5a335aea" y="165.669035"/>
     <use style="stroke:#000000;" x="224.089062" xlink:href="#mbc5a335aea" y="166.591709"/>
     <use style="stroke:#000000;" x="226.784428" xlink:href="#mbc5a335aea" y="167.5048"/>
     <use style="stroke:#000000;" x="229.165036" xlink:href="#mbc5a335aea" y="168.408445"/>
     <use style="stroke:#000000;" x="231.650463" xlink:href="#mbc5a335aea" y="169.302508"/>
     <use style="stroke:#000000;" x="234.13619" xlink:href="#mbc5a335aea" y="170.187259"/>
     <use style="stroke:#000000;" x="236.621617" xlink:href="#mbc5a335aea" y="171.062699"/>
     <use style="stroke:#000000;" x="239.107344" xlink:href="#mbc5a335aea" y="171.928826"/>
     <use style="stroke:#000000;" x="241.592771" xlink:href="#mbc5a335aea" y="172.785912"/>
     <use style="stroke:#000000;" x="244.078198" xlink:href="#mbc5a335aea" y="173.633957"/>
     <use style="stroke:#000000;" x="246.563925" xlink:href="#mbc5a335aea" y="174.473094"/>
     <use style="stroke:#000000;" x="249.049352" xlink:href="#mbc5a335aea" y="175.303324"/>
     <use style="stroke:#000000;" x="251.535079" xlink:href="#mbc5a335aea" y="176.124782"/>
     <use style="stroke:#000000;" x="255.365494" xlink:href="#mbc5a335aea" y="177.373772"/>
     <use style="stroke:#000000;" x="259.19561" xlink:href="#mbc5a335aea" y="178.602383"/>
     <use style="stroke:#000000;" x="263.026025" xlink:href="#mbc5a335aea" y="179.811021"/>
     <use style="stroke:#000000;" x="266.85644" xlink:href="#mbc5a335aea" y="181.000091"/>
     <use style="stroke:#000000;" x="270.686855" xlink:href="#mbc5a335aea" y="182.169863"/>
     <use style="stroke:#000000;" x="274.516971" xlink:href="#mbc5a335aea" y="183.320472"/>
     <use style="stroke:#000000;" x="278.347386" xlink:href="#mbc5a335aea" y="184.452592"/>
     <use style="stroke:#000000;" x="282.177801" xlink:href="#mbc5a335aea" y="185.566223"/>
     <use style="stroke:#000000;" x="286.008216" xlink:href="#mbc5a335aea" y="186.661771"/>
     <use style="stroke:#000000;" x="289.838631" xlink:href="#mbc5a335aea" y="187.73964"/>
     <use style="stroke:#000000;" x="293.668747" xlink:href="#mbc5a335aea" y="188.799965"/>
     <use style="stroke:#000000;" x="297.499162" xlink:href="#mbc5a335aea" y="189.843016"/>
     <use style="stroke:#000000;" x="301.329577" xlink:href="#mbc5a335aea" y="190.869333"/>
     <use style="stroke:#000000;" x="305.159992" xlink:href="#mbc5a335aea" y="191.879051"/>
     <use style="stroke:#000000;" x="308.990107" xlink:href="#mbc5a335aea" y="192.872439"/>
     <use style="stroke:#000000;" x="314.760288" xlink:href="#mbc5a335aea" y="194.338568"/>
     <use style="stroke:#000000;" x="320.530169" xlink:href="#mbc5a335aea" y="195.769204"/>
     <use style="stroke:#000000;" x="326.30005" xlink:href="#mbc5a335aea" y="197.165292"/>
     <use style="stroke:#000000;" x="332.069931" xlink:href="#mbc5a335aea" y="198.527641"/>
     <use style="stroke:#000000;" x="337.839812" xlink:href="#mbc5a335aea" y="199.857062"/>
     <use style="stroke:#000000;" x="343.609692" xlink:href="#mbc5a335aea" y="201.1545"/>
     <use style="stroke:#000000;" x="349.379573" xlink:href="#mbc5a335aea" y="202.420763"/>
     <use style="stroke:#000000;" x="355.149454" xlink:href="#mbc5a335aea" y="203.656527"/>
     <use style="stroke:#000000;" x="360.919335" xlink:href="#mbc5a335aea" y="204.862601"/>
     <use style="stroke:#000000;" x="366.688917" xlink:href="#mbc5a335aea" y="206.039795"/>
    </g>
   </g>
   <g id="line2d_16">
    <path clip-path="url(#p0176fcbaaa)" d="M 65.361932 162.667624 
L 65.754077 162.656436 
L 66.167592 162.440007 
L 66.704467 161.902471 
L 67.393422 160.884267 
L 68.373035 158.998521 
L 69.964905 155.349889 
L 74.512816 144.633921 
L 76.549036 140.457682 
L 78.585256 136.776786 
L 80.639818 133.547939 
L 82.604881 130.883088 
L 84.569944 128.59639 
L 86.263525 126.902308 
L 88.392052 125.102395 
L 90.520579 123.63316 
L 92.2234 122.671994 
L 94.156678 121.788887 
L 96.089955 121.105877 
L 98.667658 120.471856 
L 100.928997 120.145299 
L 103.846456 119.998109 
L 106.763916 120.1157 
L 109.681376 120.456803 
L 112.598835 120.986054 
L 116.488781 121.93277 
L 120.378728 123.100958 
L 125.24116 124.799984 
L 130.103593 126.695986 
L 137.438228 129.807076 
L 147.706717 134.447183 
L 182.934103 150.624651 
L 196.199858 156.400963 
L 209.465614 161.923347 
L 222.840829 167.223778 
L 234.093313 171.475094 
L 247.064755 176.144776 
L 256.969386 179.548276 
L 270.964394 184.126326 
L 284.959402 188.444563 
L 298.954409 192.515161 
L 312.949417 196.350273 
L 326.944425 199.961842 
L 340.939433 203.36149 
L 358.415981 207.326367 
L 365.661203 208.883296 
L 365.661203 208.883296 
" style="fill:none;stroke:#0000ff;stroke-linecap:square;stroke-width:1.5;"/>
   </g>
   <g id="line2d_17">
    <path clip-path="url(#p0176fcbaaa)" d="M 65.361932 162.667624 
L 65.765203 162.700929 
L 66.2149 162.543322 
L 66.7716 162.100039 
L 67.381587 161.347593 
L 68.230427 159.930227 
L 69.362215 157.555921 
L 71.132632 153.212888 
L 76.05945 140.821576 
L 78.201545 136.177692 
L 80.129431 132.519881 
L 81.954047 129.505079 
L 83.886536 126.755248 
L 85.819024 124.42131 
L 87.751512 122.461262 
L 89.684001 120.835288 
L 91.45755 119.60592 
L 93.398446 118.518274 
L 95.339341 117.671497 
L 97.280237 117.039637 
L 99.706356 116.517376 
L 101.66578 116.287822 
L 103.877081 116.210778 
L 106.825481 116.37076 
L 109.773882 116.78874 
L 113.097715 117.520273 
L 116.421547 118.482196 
L 120.853324 120.05534 
L 125.285101 121.89097 
L 130.824822 124.462379 
L 137.472487 127.834221 
L 145.786883 132.32351 
L 162.454187 141.675981 
L 179.521536 151.160321 
L 191.592577 157.611894 
L 201.987443 162.943964 
L 212.382309 168.050293 
L 222.777176 172.923648 
L 234.104246 177.967848 
L 243.965604 182.136403 
L 254.623595 186.41426 
L 265.155179 190.416716 
L 276.546231 194.504191 
L 287.937282 198.351592 
L 299.328334 201.97047 
L 314.845397 206.553267 
L 328.539499 210.286009 
L 342.2336 213.746343 
L 355.979584 216.964079 
L 369.725568 219.943033 
L 369.725568 219.943033 
" style="fill:none;stroke:#ff0000;stroke-linecap:square;stroke-width:1.5;"/>
   </g>
   <g id="line2d_18">
    <path clip-path="url(#p0176fcbaaa)" d="M 65.361932 68.970771 
L 66.011815 69.163633 
L 66.661697 69.142433 
L 67.377467 68.903205 
L 68.180087 68.392712 
L 69.075548 67.555369 
L 70.153694 66.231671 
L 71.501377 64.209947 
L 73.507928 60.742018 
L 80.006756 49.200105 
L 82.432585 45.501713 
L 84.588879 42.615635 
L 86.415738 40.479964 
L 88.272546 38.590104 
L 90.129354 36.976123 
L 91.776522 35.767911 
L 93.902867 34.50036 
L 95.909417 33.580334 
L 98.005813 32.884387 
L 100.401695 32.405008 
L 102.498091 32.218413 
L 104.594487 32.233465 
L 107.289853 32.522179 
L 109.386249 32.929097 
L 112.381101 33.754938 
L 115.675437 34.949091 
L 118.969774 36.396495 
L 123.162566 38.53085 
L 127.654843 41.109099 
L 133.045576 44.495355 
L 139.634249 48.939342 
L 148.319319 55.093542 
L 185.155992 81.557812 
L 196.835913 89.496316 
L 206.718923 95.96268 
L 216.601933 102.189462 
L 226.784428 108.351168 
L 236.621617 114.063383 
L 246.563925 119.602271 
L 255.365494 124.310763 
L 266.85644 130.208711 
L 278.347386 135.817526 
L 289.838631 141.164315 
L 301.329577 146.251451 
L 314.760288 151.895734 
L 326.30005 156.495114 
L 337.839812 160.872412 
L 349.379573 165.048014 
L 360.919335 169.025957 
L 366.688917 170.589993 
L 366.688917 170.589993 
" style="fill:none;stroke:#0000ff;stroke-dasharray:5.55,2.4;stroke-dashoffset:0;stroke-width:1.5;"/>
   </g>
   <g id="line2d_19">
    <path clip-path="url(#p0176fcbaaa)" d="M 65.361932 209.258861 
L 65.763242 209.208536 
L 66.245413 208.919138 
L 66.841388 208.283383 
L 67.644009 207.073725 
L 68.806011 204.865554 
L 71.231841 199.631583 
L 73.777465 194.349681 
L 75.784015 190.67857 
L 77.790566 187.489854 
L 79.617425 184.984409 
L 81.53413 182.724045 
L 83.360989 180.883872 
L 85.187849 179.314376 
L 87.344142 177.770454 
L 89.680126 176.422712 
L 91.776522 175.464592 
L 93.902867 174.705259 
L 95.909417 174.156576 
L 98.904269 173.602715 
L 101.599635 173.334984 
L 105.193457 173.256686 
L 108.787279 173.436456 
L 112.381101 173.824161 
L 116.573893 174.478934 
L 122.264111 175.629033 
L 128.553299 177.14339 
L 137.537853 179.574084 
L 151.613655 183.668324 
L 180.36423 192.070411 
L 196.835913 196.636863 
L 211.810171 200.579027 
L 226.784428 204.312952 
L 241.592771 207.80184 
L 255.365494 210.866723 
L 270.686855 214.082833 
L 286.008216 217.099086 
L 301.329577 219.919637 
L 314.760288 222.242519 
L 332.069931 225.039494 
L 349.379573 227.621715 
L 360.919335 229.233065 
L 366.688917 229.874489 
L 366.688917 229.874489 
" style="fill:none;stroke:#0000ff;stroke-dasharray:5.55,2.4;stroke-dashoffset:0;stroke-width:1.5;"/>
   </g>
   <g id="line2d_20"/>
   <g id="line2d_21"/>
   <g id="line2d_22"/>
   <g id="line2d_23"/>
   <g id="line2d_24"/>
   <g id="line2d_25"/>
   <g id="patch_3">
    <path d="M 50.14375 239.758125 
L 50.14375 22.318125 
" style="fill:none;stroke:#000000;stroke-linecap:square;stroke-linejoin:miter;stroke-width:0.8;"/>
   </g>
   <g id="patch_4">
    <path d="M 384.94375 239.758125 
L 384.94375 22.318125 
" style="fill:none;stroke:#000000;stroke-linecap:square;stroke-linejoin:miter;stroke-width:0.8;"/>
   </g>
   <g id="patch_5">
    <path d="M 50.14375 239.758125 
L 384.94375 239.758125 
" style="fill:none;stroke:#000000;stroke-linecap:square;stroke-linejoin:miter;stroke-width:0.8;"/>
   </g>
   <g id="patch_6">
    <path d="M 50.14375 22.318125 
L 384.94375 22.318125 
" style="fill:none;stroke:#000000;stroke-linecap:square;stroke-linejoin:miter;stroke-width:0.8;"/>
   </g>
   <g id="text_17">
    <!-- Experiment_12 -->
    <defs>
     <path d="M 9.8125 72.90625 
L 55.90625 72.90625 
L 55.90625 64.59375 
L 19.671875 64.59375 
L 19.671875 43.015625 
L 54.390625 43.015625 
L 54.390625 34.71875 
L 19.671875 34.71875 
L 19.671875 8.296875 
L 56.78125 8.296875 
L 56.78125 0 
L 9.8125 0 
z
" id="DejaVuSans-69"/>
     <path d="M 54.890625 54.6875 
L 35.109375 28.078125 
L 55.90625 0 
L 45.3125 0 
L 29.390625 21.484375 
L 13.484375 0 
L 2.875 0 
L 24.125 28.609375 
L 4.6875 54.6875 
L 15.28125 54.6875 
L 29.78125 35.203125 
L 44.28125 54.6875 
z
" id="DejaVuSans-120"/>
     <path d="M 18.109375 8.203125 
L 18.109375 -20.796875 
L 9.078125 -20.796875 
L 9.078125 54.6875 
L 18.109375 54.6875 
L 18.109375 46.390625 
Q 20.953125 51.265625 25.265625 53.625 
Q 29.59375 56 35.59375 56 
Q 45.5625 56 51.78125 48.09375 
Q 58.015625 40.1875 58.015625 27.296875 
Q 58.015625 14.40625 51.78125 6.484375 
Q 45.5625 -1.421875 35.59375 -1.421875 
Q 29.59375 -1.421875 25.265625 0.953125 
Q 20.953125 3.328125 18.109375 8.203125 
z
M 48.6875 27.296875 
Q 48.6875 37.203125 44.609375 42.84375 
Q 40.53125 48.484375 33.40625 48.484375 
Q 26.265625 48.484375 22.1875 42.84375 
Q 18.109375 37.203125 18.109375 27.296875 
Q 18.109375 17.390625 22.1875 11.75 
Q 26.265625 6.109375 33.40625 6.109375 
Q 40.53125 6.109375 44.609375 11.75 
Q 48.6875 17.390625 48.6875 27.296875 
z
" id="DejaVuSans-112"/>
     <path d="M 18.3125 70.21875 
L 18.3125 54.6875 
L 36.8125 54.6875 
L 36.8125 47.703125 
L 18.3125 47.703125 
L 18.3125 18.015625 
Q 18.3125 11.328125 20.140625 9.421875 
Q 21.96875 7.515625 27.59375 7.515625 
L 36.8125 7.515625 
L 36.8125 0 
L 27.59375 0 
Q 17.1875 0 13.234375 3.875 
Q 9.28125 7.765625 9.28125 18.015625 
L 9.28125 47.703125 
L 2.6875 47.703125 
L 2.6875 54.6875 
L 9.28125 54.6875 
L 9.28125 70.21875 
z
" id="DejaVuSans-116"/>
     <path d="M 50.984375 -16.609375 
L 50.984375 -23.578125 
L -0.984375 -23.578125 
L -0.984375 -16.609375 
z
" id="DejaVuSans-95"/>
    </defs>
    <g transform="translate(172.240938 16.318125)scale(0.12 -0.12)">
     <use xlink:href="#DejaVuSans-69"/>
     <use x="63.183594" xlink:href="#DejaVuSans-120"/>
     <use x="122.363281" xlink:href="#DejaVuSans-112"/>
     <use x="185.839844" xlink:href="#DejaVuSans-101"/>
     <use x="247.363281" xlink:href="#DejaVuSans-114"/>
     <use x="288.476562" xlink:href="#DejaVuSans-105"/>
     <use x="316.259766" xlink:href="#DejaVuSans-109"/>
     <use x="413.671875" xlink:href="#DejaVuSans-101"/>
     <use x="475.195312" xlink:href="#DejaVuSans-110"/>
     <use x="538.574219" xlink:href="#DejaVuSans-116"/>
     <use x="577.783203" xlink:href="#DejaVuSans-95"/>
     <use x="627.783203" xlink:href="#DejaVuSans-49"/>
     <use x="691.40625" xlink:href="#DejaVuSans-50"/>
    </g>
   </g>
   <g id="legend_1">
    <g id="patch_7">
     <path d="M 121.823438 103.730625 
L 377.94375 103.730625 
Q 379.94375 103.730625 379.94375 101.730625 
L 379.94375 29.318125 
Q 379.94375 27.318125 377.94375 27.318125 
L 121.823438 27.318125 
Q 119.823438 27.318125 119.823438 29.318125 
L 119.823438 101.730625 
Q 119.823438 103.730625 121.823438 103.730625 
z
" style="fill:#ffffff;opacity:0.8;stroke:#cccccc;stroke-linejoin:miter;"/>
    </g>
    <g id="line2d_26"/>
    <g id="line2d_27">
     <g>
      <use style="stroke:#000000;" x="133.823438" xlink:href="#mbc5a335aea" y="35.416562"/>
     </g>
    </g>
    <g id="text_18">
     <!-- Experimental Data -->
     <defs>
      <path d="M 9.421875 75.984375 
L 18.40625 75.984375 
L 18.40625 0 
L 9.421875 0 
z
" id="DejaVuSans-108"/>
      <path d="M 19.671875 64.796875 
L 19.671875 8.109375 
L 31.59375 8.109375 
Q 46.6875 8.109375 53.6875 14.9375 
Q 60.6875 21.78125 60.6875 36.53125 
Q 60.6875 51.171875 53.6875 57.984375 
Q 46.6875 64.796875 31.59375 64.796875 
z
M 9.8125 72.90625 
L 30.078125 72.90625 
Q 51.265625 72.90625 61.171875 64.09375 
Q 71.09375 55.28125 71.09375 36.53125 
Q 71.09375 17.671875 61.125 8.828125 
Q 51.171875 0 30.078125 0 
L 9.8125 0 
z
" id="DejaVuSans-68"/>
     </defs>
     <g transform="translate(151.823438 38.916562)scale(0.1 -0.1)">
      <use xlink:href="#DejaVuSans-69"/>
      <use x="63.183594" xlink:href="#DejaVuSans-120"/>
      <use x="122.363281" xlink:href="#DejaVuSans-112"/>
      <use x="185.839844" xlink:href="#DejaVuSans-101"/>
      <use x="247.363281" xlink:href="#DejaVuSans-114"/>
      <use x="288.476562" xlink:href="#DejaVuSans-105"/>
      <use x="316.259766" xlink:href="#DejaVuSans-109"/>
      <use x="413.671875" xlink:href="#DejaVuSans-101"/>
      <use x="475.195312" xlink:href="#DejaVuSans-110"/>
      <use x="538.574219" xlink:href="#DejaVuSans-116"/>
      <use x="577.783203" xlink:href="#DejaVuSans-97"/>
      <use x="639.0625" xlink:href="#DejaVuSans-108"/>
      <use x="666.845703" xlink:href="#DejaVuSans-32"/>
      <use x="698.632812" xlink:href="#DejaVuSans-68"/>
      <use x="775.634766" xlink:href="#DejaVuSans-97"/>
      <use x="836.914062" xlink:href="#DejaVuSans-116"/>
      <use x="876.123047" xlink:href="#DejaVuSans-97"/>
     </g>
    </g>
    <g id="line2d_28">
     <path d="M 123.823438 50.094687 
L 143.823438 50.094687 
" style="fill:none;stroke:#0000ff;stroke-linecap:square;stroke-width:1.5;"/>
    </g>
    <g id="line2d_29"/>
    <g id="text_19">
     <!-- MSI -->
     <defs>
      <path d="M 9.8125 72.90625 
L 24.515625 72.90625 
L 43.109375 23.296875 
L 61.8125 72.90625 
L 76.515625 72.90625 
L 76.515625 0 
L 66.890625 0 
L 66.890625 64.015625 
L 48.09375 14.015625 
L 38.1875 14.015625 
L 19.390625 64.015625 
L 19.390625 0 
L 9.8125 0 
z
" id="DejaVuSans-77"/>
      <path d="M 53.515625 70.515625 
L 53.515625 60.890625 
Q 47.90625 63.578125 42.921875 64.890625 
Q 37.9375 66.21875 33.296875 66.21875 
Q 25.25 66.21875 20.875 63.09375 
Q 16.5 59.96875 16.5 54.203125 
Q 16.5 49.359375 19.40625 46.890625 
Q 22.3125 44.4375 30.421875 42.921875 
L 36.375 41.703125 
Q 47.40625 39.59375 52.65625 34.296875 
Q 57.90625 29 57.90625 20.125 
Q 57.90625 9.515625 50.796875 4.046875 
Q 43.703125 -1.421875 29.984375 -1.421875 
Q 24.8125 -1.421875 18.96875 -0.25 
Q 13.140625 0.921875 6.890625 3.21875 
L 6.890625 13.375 
Q 12.890625 10.015625 18.65625 8.296875 
Q 24.421875 6.59375 29.984375 6.59375 
Q 38.421875 6.59375 43.015625 9.90625 
Q 47.609375 13.234375 47.609375 19.390625 
Q 47.609375 24.75 44.3125 27.78125 
Q 41.015625 30.8125 33.5 32.328125 
L 27.484375 33.5 
Q 16.453125 35.6875 11.515625 40.375 
Q 6.59375 45.0625 6.59375 53.421875 
Q 6.59375 63.09375 13.40625 68.65625 
Q 20.21875 74.21875 32.171875 74.21875 
Q 37.3125 74.21875 42.625 73.28125 
Q 47.953125 72.359375 53.515625 70.515625 
z
" id="DejaVuSans-83"/>
      <path d="M 9.8125 72.90625 
L 19.671875 72.90625 
L 19.671875 0 
L 9.8125 0 
z
" id="DejaVuSans-73"/>
     </defs>
     <g transform="translate(151.823438 53.594687)scale(0.1 -0.1)">
      <use xlink:href="#DejaVuSans-77"/>
      <use x="86.279297" xlink:href="#DejaVuSans-83"/>
      <use x="149.755859" xlink:href="#DejaVuSans-73"/>
     </g>
    </g>
    <g id="line2d_30">
     <path d="M 123.823438 64.774375 
L 143.823438 64.774375 
" style="fill:none;stroke:#ff0000;stroke-linecap:square;stroke-width:1.5;"/>
    </g>
    <g id="line2d_31"/>
    <g id="text_20">
     <!-- $\it{A priori}$ model -->
     <defs>
      <path d="M 36.8125 72.90625 
L 48 72.90625 
L 61.53125 0 
L 51.21875 0 
L 48.1875 18.703125 
L 15.375 18.703125 
L 5.078125 0 
L -5.328125 0 
z
M 40.375 63.1875 
L 19.921875 26.90625 
L 46.6875 26.90625 
z
" id="DejaVuSans-Oblique-65"/>
      <path d="M 49.609375 33.6875 
Q 49.609375 40.875 46.484375 44.671875 
Q 43.359375 48.484375 37.5 48.484375 
Q 33.5 48.484375 29.859375 46.4375 
Q 26.21875 44.390625 23.390625 40.484375 
Q 20.609375 36.625 18.9375 31.15625 
Q 17.28125 25.6875 17.28125 20.3125 
Q 17.28125 13.484375 20.40625 9.796875 
Q 23.53125 6.109375 29.296875 6.109375 
Q 33.546875 6.109375 37.1875 8.109375 
Q 40.828125 10.109375 43.40625 13.921875 
Q 46.1875 17.921875 47.890625 23.34375 
Q 49.609375 28.765625 49.609375 33.6875 
z
M 21.78125 46.390625 
Q 25.390625 51.125 30.296875 53.5625 
Q 35.203125 56 41.21875 56 
Q 49.609375 56 54.25 50.5 
Q 58.890625 45.015625 58.890625 35.109375 
Q 58.890625 27 56 19.65625 
Q 53.125 12.3125 47.703125 6.5 
Q 44.09375 2.640625 39.546875 0.609375 
Q 35.015625 -1.421875 29.984375 -1.421875 
Q 24.171875 -1.421875 20.21875 1 
Q 16.265625 3.421875 14.3125 8.203125 
L 8.6875 -20.796875 
L -0.296875 -20.796875 
L 14.40625 54.6875 
L 23.390625 54.6875 
z
" id="DejaVuSans-Oblique-112"/>
      <path d="M 44.578125 46.390625 
Q 43.21875 47.125 41.453125 47.515625 
Q 39.703125 47.90625 37.703125 47.90625 
Q 30.515625 47.90625 25.140625 42.453125 
Q 19.78125 37.015625 18.015625 27.875 
L 12.5 0 
L 3.515625 0 
L 14.203125 54.6875 
L 23.1875 54.6875 
L 21.484375 46.1875 
Q 25.046875 50.921875 30 53.453125 
Q 34.96875 56 40.578125 56 
Q 42.046875 56 43.453125 55.828125 
Q 44.875 55.671875 46.296875 55.28125 
z
" id="DejaVuSans-Oblique-114"/>
      <path d="M 18.3125 75.984375 
L 27.296875 75.984375 
L 25.09375 64.59375 
L 16.109375 64.59375 
z
M 14.203125 54.6875 
L 23.1875 54.6875 
L 12.5 0 
L 3.515625 0 
z
" id="DejaVuSans-Oblique-105"/>
      <path d="M 25.390625 -1.421875 
Q 15.765625 -1.421875 10.171875 4.515625 
Q 4.59375 10.453125 4.59375 20.703125 
Q 4.59375 26.65625 6.515625 32.828125 
Q 8.453125 39.015625 11.53125 43.21875 
Q 16.359375 49.75 22.3125 52.875 
Q 28.265625 56 35.796875 56 
Q 45.125 56 50.859375 50.1875 
Q 56.59375 44.390625 56.59375 35.015625 
Q 56.59375 28.515625 54.6875 22.0625 
Q 52.78125 15.625 49.703125 11.375 
Q 44.921875 4.828125 38.96875 1.703125 
Q 33.015625 -1.421875 25.390625 -1.421875 
z
M 13.921875 21 
Q 13.921875 13.578125 17.015625 9.890625 
Q 20.125 6.203125 26.421875 6.203125 
Q 35.453125 6.203125 41.375 14.078125 
Q 47.3125 21.96875 47.3125 34.078125 
Q 47.3125 41.15625 44.140625 44.765625 
Q 40.96875 48.390625 34.8125 48.390625 
Q 29.734375 48.390625 25.78125 46.015625 
Q 21.828125 43.65625 18.703125 38.8125 
Q 16.40625 35.203125 15.15625 30.5625 
Q 13.921875 25.921875 13.921875 21 
z
" id="DejaVuSans-Oblique-111"/>
      <path d="M 45.40625 46.390625 
L 45.40625 75.984375 
L 54.390625 75.984375 
L 54.390625 0 
L 45.40625 0 
L 45.40625 8.203125 
Q 42.578125 3.328125 38.25 0.953125 
Q 33.9375 -1.421875 27.875 -1.421875 
Q 17.96875 -1.421875 11.734375 6.484375 
Q 5.515625 14.40625 5.515625 27.296875 
Q 5.515625 40.1875 11.734375 48.09375 
Q 17.96875 56 27.875 56 
Q 33.9375 56 38.25 53.625 
Q 42.578125 51.265625 45.40625 46.390625 
z
M 14.796875 27.296875 
Q 14.796875 17.390625 18.875 11.75 
Q 22.953125 6.109375 30.078125 6.109375 
Q 37.203125 6.109375 41.296875 11.75 
Q 45.40625 17.390625 45.40625 27.296875 
Q 45.40625 37.203125 41.296875 42.84375 
Q 37.203125 48.484375 30.078125 48.484375 
Q 22.953125 48.484375 18.875 42.84375 
Q 14.796875 37.203125 14.796875 27.296875 
z
" id="DejaVuSans-100"/>
     </defs>
     <g transform="translate(151.823438 68.274375)scale(0.1 -0.1)">
      <use transform="translate(0 0.015625)" xlink:href="#DejaVuSans-Oblique-65"/>
      <use transform="translate(68.408203 0.015625)" xlink:href="#DejaVuSans-Oblique-112"/>
      <use transform="translate(131.884766 0.015625)" xlink:href="#DejaVuSans-Oblique-114"/>
      <use transform="translate(172.998047 0.015625)" xlink:href="#DejaVuSans-Oblique-105"/>
      <use transform="translate(200.78125 0.015625)" xlink:href="#DejaVuSans-Oblique-111"/>
      <use transform="translate(261.962891 0.015625)" xlink:href="#DejaVuSans-Oblique-114"/>
      <use transform="translate(303.076172 0.015625)" xlink:href="#DejaVuSans-Oblique-105"/>
      <use transform="translate(330.859375 0.015625)" xlink:href="#DejaVuSans-32"/>
      <use transform="translate(362.646484 0.015625)" xlink:href="#DejaVuSans-109"/>
      <use transform="translate(460.058594 0.015625)" xlink:href="#DejaVuSans-111"/>
      <use transform="translate(521.240234 0.015625)" xlink:href="#DejaVuSans-100"/>
      <use transform="translate(584.716797 0.015625)" xlink:href="#DejaVuSans-101"/>
      <use transform="translate(646.240234 0.015625)" xlink:href="#DejaVuSans-108"/>
     </g>
    </g>
    <g id="line2d_32">
     <path d="M 123.823438 79.472813 
L 143.823438 79.472813 
" style="fill:none;stroke:#ffffff;stroke-linecap:square;stroke-width:1.5;"/>
    </g>
    <g id="line2d_33"/>
    <g id="text_21">
     <!-- T:1108 -->
     <defs>
      <path d="M 11.71875 12.40625 
L 22.015625 12.40625 
L 22.015625 0 
L 11.71875 0 
z
M 11.71875 51.703125 
L 22.015625 51.703125 
L 22.015625 39.3125 
L 11.71875 39.3125 
z
" id="DejaVuSans-58"/>
     </defs>
     <g transform="translate(151.823438 82.972813)scale(0.1 -0.1)">
      <use xlink:href="#DejaVuSans-84"/>
      <use x="60.912109" xlink:href="#DejaVuSans-58"/>
      <use x="94.603516" xlink:href="#DejaVuSans-49"/>
      <use x="158.226562" xlink:href="#DejaVuSans-49"/>
      <use x="221.849609" xlink:href="#DejaVuSans-48"/>
      <use x="285.472656" xlink:href="#DejaVuSans-56"/>
     </g>
    </g>
    <g id="line2d_34">
     <path d="M 123.823438 94.150937 
L 143.823438 94.150937 
" style="fill:none;stroke:#ffffff;stroke-linecap:square;stroke-width:1.5;"/>
    </g>
    <g id="line2d_35"/>
    <g id="text_22">
     <!-- P:1.774 -->
     <defs>
      <path d="M 19.671875 64.796875 
L 19.671875 37.40625 
L 32.078125 37.40625 
Q 38.96875 37.40625 42.71875 40.96875 
Q 46.484375 44.53125 46.484375 51.125 
Q 46.484375 57.671875 42.71875 61.234375 
Q 38.96875 64.796875 32.078125 64.796875 
z
M 9.8125 72.90625 
L 32.078125 72.90625 
Q 44.34375 72.90625 50.609375 67.359375 
Q 56.890625 61.8125 56.890625 51.125 
Q 56.890625 40.328125 50.609375 34.8125 
Q 44.34375 29.296875 32.078125 29.296875 
L 19.671875 29.296875 
L 19.671875 0 
L 9.8125 0 
z
" id="DejaVuSans-80"/>
     </defs>
     <g transform="translate(151.823438 97.650937)scale(0.1 -0.1)">
      <use xlink:href="#DejaVuSans-80"/>
      <use x="60.302734" xlink:href="#DejaVuSans-58"/>
      <use x="93.994141" xlink:href="#DejaVuSans-49"/>
      <use x="157.617188" xlink:href="#DejaVuSans-46"/>
      <use x="189.404297" xlink:href="#DejaVuSans-55"/>
      <use x="253.027344" xlink:href="#DejaVuSans-55"/>
      <use x="316.650391" xlink:href="#DejaVuSans-52"/>
     </g>
    </g>
    <g id="line2d_36">
     <path d="M 265.564063 35.416562 
L 285.564063 35.416562 
" style="fill:none;stroke:#ffffff;stroke-linecap:square;stroke-width:1.5;"/>
    </g>
    <g id="line2d_37"/>
    <g id="text_23">
     <!-- H2O2: 0.001611 -->
     <defs>
      <path d="M 9.8125 72.90625 
L 19.671875 72.90625 
L 19.671875 43.015625 
L 55.515625 43.015625 
L 55.515625 72.90625 
L 65.375 72.90625 
L 65.375 0 
L 55.515625 0 
L 55.515625 34.71875 
L 19.671875 34.71875 
L 19.671875 0 
L 9.8125 0 
z
" id="DejaVuSans-72"/>
      <path d="M 39.40625 66.21875 
Q 28.65625 66.21875 22.328125 58.203125 
Q 16.015625 50.203125 16.015625 36.375 
Q 16.015625 22.609375 22.328125 14.59375 
Q 28.65625 6.59375 39.40625 6.59375 
Q 50.140625 6.59375 56.421875 14.59375 
Q 62.703125 22.609375 62.703125 36.375 
Q 62.703125 50.203125 56.421875 58.203125 
Q 50.140625 66.21875 39.40625 66.21875 
z
M 39.40625 74.21875 
Q 54.734375 74.21875 63.90625 63.9375 
Q 73.09375 53.65625 73.09375 36.375 
Q 73.09375 19.140625 63.90625 8.859375 
Q 54.734375 -1.421875 39.40625 -1.421875 
Q 24.03125 -1.421875 14.8125 8.828125 
Q 5.609375 19.09375 5.609375 36.375 
Q 5.609375 53.65625 14.8125 63.9375 
Q 24.03125 74.21875 39.40625 74.21875 
z
" id="DejaVuSans-79"/>
     </defs>
     <g transform="translate(293.564063 38.916562)scale(0.1 -0.1)">
      <use xlink:href="#DejaVuSans-72"/>
      <use x="75.195312" xlink:href="#DejaVuSans-50"/>
      <use x="138.818359" xlink:href="#DejaVuSans-79"/>
      <use x="217.529297" xlink:href="#DejaVuSans-50"/>
      <use x="281.152344" xlink:href="#DejaVuSans-58"/>
      <use x="314.84375" xlink:href="#DejaVuSans-32"/>
      <use x="346.630859" xlink:href="#DejaVuSans-48"/>
      <use x="410.253906" xlink:href="#DejaVuSans-46"/>
      <use x="442.041016" xlink:href="#DejaVuSans-48"/>
      <use x="505.664062" xlink:href="#DejaVuSans-48"/>
      <use x="569.287109" xlink:href="#DejaVuSans-49"/>
      <use x="632.910156" xlink:href="#DejaVuSans-54"/>
      <use x="696.533203" xlink:href="#DejaVuSans-49"/>
      <use x="760.15625" xlink:href="#DejaVuSans-49"/>
     </g>
    </g>
    <g id="line2d_38">
     <path d="M 265.564063 50.094687 
L 285.564063 50.094687 
" style="fill:none;stroke:#ffffff;stroke-linecap:square;stroke-width:1.5;"/>
    </g>
    <g id="line2d_39"/>
    <g id="text_24">
     <!-- H2O: 0.001113 -->
     <defs>
      <path d="M 40.578125 39.3125 
Q 47.65625 37.796875 51.625 33 
Q 55.609375 28.21875 55.609375 21.1875 
Q 55.609375 10.40625 48.1875 4.484375 
Q 40.765625 -1.421875 27.09375 -1.421875 
Q 22.515625 -1.421875 17.65625 -0.515625 
Q 12.796875 0.390625 7.625 2.203125 
L 7.625 11.71875 
Q 11.71875 9.328125 16.59375 8.109375 
Q 21.484375 6.890625 26.8125 6.890625 
Q 36.078125 6.890625 40.9375 10.546875 
Q 45.796875 14.203125 45.796875 21.1875 
Q 45.796875 27.640625 41.28125 31.265625 
Q 36.765625 34.90625 28.71875 34.90625 
L 20.21875 34.90625 
L 20.21875 43.015625 
L 29.109375 43.015625 
Q 36.375 43.015625 40.234375 45.921875 
Q 44.09375 48.828125 44.09375 54.296875 
Q 44.09375 59.90625 40.109375 62.90625 
Q 36.140625 65.921875 28.71875 65.921875 
Q 24.65625 65.921875 20.015625 65.03125 
Q 15.375 64.15625 9.8125 62.3125 
L 9.8125 71.09375 
Q 15.4375 72.65625 20.34375 73.4375 
Q 25.25 74.21875 29.59375 74.21875 
Q 40.828125 74.21875 47.359375 69.109375 
Q 53.90625 64.015625 53.90625 55.328125 
Q 53.90625 49.265625 50.4375 45.09375 
Q 46.96875 40.921875 40.578125 39.3125 
z
" id="DejaVuSans-51"/>
     </defs>
     <g transform="translate(293.564063 53.594687)scale(0.1 -0.1)">
      <use xlink:href="#DejaVuSans-72"/>
      <use x="75.195312" xlink:href="#DejaVuSans-50"/>
      <use x="138.818359" xlink:href="#DejaVuSans-79"/>
      <use x="217.513672" xlink:href="#DejaVuSans-58"/>
      <use x="251.205078" xlink:href="#DejaVuSans-32"/>
      <use x="282.992188" xlink:href="#DejaVuSans-48"/>
      <use x="346.615234" xlink:href="#DejaVuSans-46"/>
      <use x="378.402344" xlink:href="#DejaVuSans-48"/>
      <use x="442.025391" xlink:href="#DejaVuSans-48"/>
      <use x="505.648438" xlink:href="#DejaVuSans-49"/>
      <use x="569.271484" xlink:href="#DejaVuSans-49"/>
      <use x="632.894531" xlink:href="#DejaVuSans-49"/>
      <use x="696.517578" xlink:href="#DejaVuSans-51"/>
     </g>
    </g>
    <g id="line2d_40">
     <path d="M 265.564063 64.772812 
L 285.564063 64.772812 
" style="fill:none;stroke:#ffffff;stroke-linecap:square;stroke-width:1.5;"/>
    </g>
    <g id="line2d_41"/>
    <g id="text_25">
     <!-- O2: 0.000556 -->
     <defs>
      <path d="M 10.796875 72.90625 
L 49.515625 72.90625 
L 49.515625 64.59375 
L 19.828125 64.59375 
L 19.828125 46.734375 
Q 21.96875 47.46875 24.109375 47.828125 
Q 26.265625 48.1875 28.421875 48.1875 
Q 40.625 48.1875 47.75 41.5 
Q 54.890625 34.8125 54.890625 23.390625 
Q 54.890625 11.625 47.5625 5.09375 
Q 40.234375 -1.421875 26.90625 -1.421875 
Q 22.3125 -1.421875 17.546875 -0.640625 
Q 12.796875 0.140625 7.71875 1.703125 
L 7.71875 11.625 
Q 12.109375 9.234375 16.796875 8.0625 
Q 21.484375 6.890625 26.703125 6.890625 
Q 35.15625 6.890625 40.078125 11.328125 
Q 45.015625 15.765625 45.015625 23.390625 
Q 45.015625 31 40.078125 35.4375 
Q 35.15625 39.890625 26.703125 39.890625 
Q 22.75 39.890625 18.8125 39.015625 
Q 14.890625 38.140625 10.796875 36.28125 
z
" id="DejaVuSans-53"/>
     </defs>
     <g transform="translate(293.564063 68.272812)scale(0.1 -0.1)">
      <use xlink:href="#DejaVuSans-79"/>
      <use x="78.710938" xlink:href="#DejaVuSans-50"/>
      <use x="142.333984" xlink:href="#DejaVuSans-58"/>
      <use x="176.025391" xlink:href="#DejaVuSans-32"/>
      <use x="207.8125" xlink:href="#DejaVuSans-48"/>
      <use x="271.435547" xlink:href="#DejaVuSans-46"/>
      <use x="303.222656" xlink:href="#DejaVuSans-48"/>
      <use x="366.845703" xlink:href="#DejaVuSans-48"/>
      <use x="430.46875" xlink:href="#DejaVuSans-48"/>
      <use x="494.091797" xlink:href="#DejaVuSans-53"/>
      <use x="557.714844" xlink:href="#DejaVuSans-53"/>
      <use x="621.337891" xlink:href="#DejaVuSans-54"/>
     </g>
    </g>
    <g id="line2d_42">
     <path d="M 265.564063 79.450938 
L 285.564063 79.450938 
" style="fill:none;stroke:#ffffff;stroke-linecap:square;stroke-width:1.5;"/>
    </g>
    <g id="line2d_43"/>
    <g id="text_26">
     <!-- Ar: 0.991716 -->
     <defs>
      <path d="M 10.984375 1.515625 
L 10.984375 10.5 
Q 14.703125 8.734375 18.5 7.8125 
Q 22.3125 6.890625 25.984375 6.890625 
Q 35.75 6.890625 40.890625 13.453125 
Q 46.046875 20.015625 46.78125 33.40625 
Q 43.953125 29.203125 39.59375 26.953125 
Q 35.25 24.703125 29.984375 24.703125 
Q 19.046875 24.703125 12.671875 31.3125 
Q 6.296875 37.9375 6.296875 49.421875 
Q 6.296875 60.640625 12.9375 67.421875 
Q 19.578125 74.21875 30.609375 74.21875 
Q 43.265625 74.21875 49.921875 64.515625 
Q 56.59375 54.828125 56.59375 36.375 
Q 56.59375 19.140625 48.40625 8.859375 
Q 40.234375 -1.421875 26.421875 -1.421875 
Q 22.703125 -1.421875 18.890625 -0.6875 
Q 15.09375 0.046875 10.984375 1.515625 
z
M 30.609375 32.421875 
Q 37.25 32.421875 41.125 36.953125 
Q 45.015625 41.5 45.015625 49.421875 
Q 45.015625 57.28125 41.125 61.84375 
Q 37.25 66.40625 30.609375 66.40625 
Q 23.96875 66.40625 20.09375 61.84375 
Q 16.21875 57.28125 16.21875 49.421875 
Q 16.21875 41.5 20.09375 36.953125 
Q 23.96875 32.421875 30.609375 32.421875 
z
" id="DejaVuSans-57"/>
     </defs>
     <g transform="translate(293.564063 82.950938)scale(0.1 -0.1)">
      <use xlink:href="#DejaVuSans-65"/>
      <use x="68.408203" xlink:href="#DejaVuSans-114"/>
      <use x="109.505859" xlink:href="#DejaVuSans-58"/>
      <use x="143.197266" xlink:href="#DejaVuSans-32"/>
      <use x="174.984375" xlink:href="#DejaVuSans-48"/>
      <use x="238.607422" xlink:href="#DejaVuSans-46"/>
      <use x="270.394531" xlink:href="#DejaVuSans-57"/>
      <use x="334.017578" xlink:href="#DejaVuSans-57"/>
      <use x="397.640625" xlink:href="#DejaVuSans-49"/>
      <use x="461.263672" xlink:href="#DejaVuSans-55"/>
      <use x="524.886719" xlink:href="#DejaVuSans-49"/>
      <use x="588.509766" xlink:href="#DejaVuSans-54"/>
     </g>
    </g>
   </g>
  </g>
 </g>
 <defs>
  <clipPath id="p0176fcbaaa">
   <rect height="217.44" width="334.8" x="50.14375" y="22.318125"/>
  </clipPath>
 </defs>
</svg>
