<?xml version="1.0" encoding="utf-8" standalone="no"?>
<!DOCTYPE svg PUBLIC "-//W3C//DTD SVG 1.1//EN"
  "http://www.w3.org/Graphics/SVG/1.1/DTD/svg11.dtd">
<!-- Created with matplotlib (https://matplotlib.org/) -->
<svg height="277.314375pt" version="1.1" viewBox="0 0 392.465625 277.314375" width="392.465625pt" xmlns="http://www.w3.org/2000/svg" xmlns:xlink="http://www.w3.org/1999/xlink">
 <defs>
  <style type="text/css">
*{stroke-linecap:butt;stroke-linejoin:round;}
  </style>
 </defs>
 <g id="figure_1">
  <g id="patch_1">
   <path d="M 0 277.314375 
L 392.465625 277.314375 
L 392.465625 0 
L 0 0 
z
" style="fill:none;"/>
  </g>
  <g id="axes_1">
   <g id="patch_2">
    <path d="M 46.965625 239.758125 
L 381.765625 239.758125 
L 381.765625 22.318125 
L 46.965625 22.318125 
z
" style="fill:none;"/>
   </g>
   <g id="matplotlib.axis_1">
    <g id="xtick_1">
     <g id="line2d_1">
      <defs>
       <path d="M 0 0 
L 0 3.5 
" id="m52de5b8c81" style="stroke:#000000;stroke-width:0.8;"/>
      </defs>
      <g>
       <use style="stroke:#000000;stroke-width:0.8;" x="62.183807" xlink:href="#m52de5b8c81" y="239.758125"/>
      </g>
     </g>
     <g id="text_1">
      <!-- 0.0 -->
      <defs>
       <path d="M 31.78125 66.40625 
Q 24.171875 66.40625 20.328125 58.90625 
Q 16.5 51.421875 16.5 36.375 
Q 16.5 21.390625 20.328125 13.890625 
Q 24.171875 6.390625 31.78125 6.390625 
Q 39.453125 6.390625 43.28125 13.890625 
Q 47.125 21.390625 47.125 36.375 
Q 47.125 51.421875 43.28125 58.90625 
Q 39.453125 66.40625 31.78125 66.40625 
z
M 31.78125 74.21875 
Q 44.046875 74.21875 50.515625 64.515625 
Q 56.984375 54.828125 56.984375 36.375 
Q 56.984375 17.96875 50.515625 8.265625 
Q 44.046875 -1.421875 31.78125 -1.421875 
Q 19.53125 -1.421875 13.0625 8.265625 
Q 6.59375 17.96875 6.59375 36.375 
Q 6.59375 54.828125 13.0625 64.515625 
Q 19.53125 74.21875 31.78125 74.21875 
z
" id="DejaVuSans-48"/>
       <path d="M 10.6875 12.40625 
L 21 12.40625 
L 21 0 
L 10.6875 0 
z
" id="DejaVuSans-46"/>
      </defs>
      <g transform="translate(54.232244 254.356562)scale(0.1 -0.1)">
       <use xlink:href="#DejaVuSans-48"/>
       <use x="63.623047" xlink:href="#DejaVuSans-46"/>
       <use x="95.410156" xlink:href="#DejaVuSans-48"/>
      </g>
     </g>
    </g>
    <g id="xtick_2">
     <g id="line2d_2">
      <g>
       <use style="stroke:#000000;stroke-width:0.8;" x="122.718257" xlink:href="#m52de5b8c81" y="239.758125"/>
      </g>
     </g>
     <g id="text_2">
      <!-- 0.2 -->
      <defs>
       <path d="M 19.1875 8.296875 
L 53.609375 8.296875 
L 53.609375 0 
L 7.328125 0 
L 7.328125 8.296875 
Q 12.9375 14.109375 22.625 23.890625 
Q 32.328125 33.6875 34.8125 36.53125 
Q 39.546875 41.84375 41.421875 45.53125 
Q 43.3125 49.21875 43.3125 52.78125 
Q 43.3125 58.59375 39.234375 62.25 
Q 35.15625 65.921875 28.609375 65.921875 
Q 23.96875 65.921875 18.8125 64.3125 
Q 13.671875 62.703125 7.8125 59.421875 
L 7.8125 69.390625 
Q 13.765625 71.78125 18.9375 73 
Q 24.125 74.21875 28.421875 74.21875 
Q 39.75 74.21875 46.484375 68.546875 
Q 53.21875 62.890625 53.21875 53.421875 
Q 53.21875 48.921875 51.53125 44.890625 
Q 49.859375 40.875 45.40625 35.40625 
Q 44.1875 33.984375 37.640625 27.21875 
Q 31.109375 20.453125 19.1875 8.296875 
z
" id="DejaVuSans-50"/>
      </defs>
      <g transform="translate(114.766695 254.356562)scale(0.1 -0.1)">
       <use xlink:href="#DejaVuSans-48"/>
       <use x="63.623047" xlink:href="#DejaVuSans-46"/>
       <use x="95.410156" xlink:href="#DejaVuSans-50"/>
      </g>
     </g>
    </g>
    <g id="xtick_3">
     <g id="line2d_3">
      <g>
       <use style="stroke:#000000;stroke-width:0.8;" x="183.252708" xlink:href="#m52de5b8c81" y="239.758125"/>
      </g>
     </g>
     <g id="text_3">
      <!-- 0.4 -->
      <defs>
       <path d="M 37.796875 64.3125 
L 12.890625 25.390625 
L 37.796875 25.390625 
z
M 35.203125 72.90625 
L 47.609375 72.90625 
L 47.609375 25.390625 
L 58.015625 25.390625 
L 58.015625 17.1875 
L 47.609375 17.1875 
L 47.609375 0 
L 37.796875 0 
L 37.796875 17.1875 
L 4.890625 17.1875 
L 4.890625 26.703125 
z
" id="DejaVuSans-52"/>
      </defs>
      <g transform="translate(175.301145 254.356562)scale(0.1 -0.1)">
       <use xlink:href="#DejaVuSans-48"/>
       <use x="63.623047" xlink:href="#DejaVuSans-46"/>
       <use x="95.410156" xlink:href="#DejaVuSans-52"/>
      </g>
     </g>
    </g>
    <g id="xtick_4">
     <g id="line2d_4">
      <g>
       <use style="stroke:#000000;stroke-width:0.8;" x="243.787158" xlink:href="#m52de5b8c81" y="239.758125"/>
      </g>
     </g>
     <g id="text_4">
      <!-- 0.6 -->
      <defs>
       <path d="M 33.015625 40.375 
Q 26.375 40.375 22.484375 35.828125 
Q 18.609375 31.296875 18.609375 23.390625 
Q 18.609375 15.53125 22.484375 10.953125 
Q 26.375 6.390625 33.015625 6.390625 
Q 39.65625 6.390625 43.53125 10.953125 
Q 47.40625 15.53125 47.40625 23.390625 
Q 47.40625 31.296875 43.53125 35.828125 
Q 39.65625 40.375 33.015625 40.375 
z
M 52.59375 71.296875 
L 52.59375 62.3125 
Q 48.875 64.0625 45.09375 64.984375 
Q 41.3125 65.921875 37.59375 65.921875 
Q 27.828125 65.921875 22.671875 59.328125 
Q 17.53125 52.734375 16.796875 39.40625 
Q 19.671875 43.65625 24.015625 45.921875 
Q 28.375 48.1875 33.59375 48.1875 
Q 44.578125 48.1875 50.953125 41.515625 
Q 57.328125 34.859375 57.328125 23.390625 
Q 57.328125 12.15625 50.6875 5.359375 
Q 44.046875 -1.421875 33.015625 -1.421875 
Q 20.359375 -1.421875 13.671875 8.265625 
Q 6.984375 17.96875 6.984375 36.375 
Q 6.984375 53.65625 15.1875 63.9375 
Q 23.390625 74.21875 37.203125 74.21875 
Q 40.921875 74.21875 44.703125 73.484375 
Q 48.484375 72.75 52.59375 71.296875 
z
" id="DejaVuSans-54"/>
      </defs>
      <g transform="translate(235.835596 254.356562)scale(0.1 -0.1)">
       <use xlink:href="#DejaVuSans-48"/>
       <use x="63.623047" xlink:href="#DejaVuSans-46"/>
       <use x="95.410156" xlink:href="#DejaVuSans-54"/>
      </g>
     </g>
    </g>
    <g id="xtick_5">
     <g id="line2d_5">
      <g>
       <use style="stroke:#000000;stroke-width:0.8;" x="304.321608" xlink:href="#m52de5b8c81" y="239.758125"/>
      </g>
     </g>
     <g id="text_5">
      <!-- 0.8 -->
      <defs>
       <path d="M 31.78125 34.625 
Q 24.75 34.625 20.71875 30.859375 
Q 16.703125 27.09375 16.703125 20.515625 
Q 16.703125 13.921875 20.71875 10.15625 
Q 24.75 6.390625 31.78125 6.390625 
Q 38.8125 6.390625 42.859375 10.171875 
Q 46.921875 13.96875 46.921875 20.515625 
Q 46.921875 27.09375 42.890625 30.859375 
Q 38.875 34.625 31.78125 34.625 
z
M 21.921875 38.8125 
Q 15.578125 40.375 12.03125 44.71875 
Q 8.5 49.078125 8.5 55.328125 
Q 8.5 64.0625 14.71875 69.140625 
Q 20.953125 74.21875 31.78125 74.21875 
Q 42.671875 74.21875 48.875 69.140625 
Q 55.078125 64.0625 55.078125 55.328125 
Q 55.078125 49.078125 51.53125 44.71875 
Q 48 40.375 41.703125 38.8125 
Q 48.828125 37.15625 52.796875 32.3125 
Q 56.78125 27.484375 56.78125 20.515625 
Q 56.78125 9.90625 50.3125 4.234375 
Q 43.84375 -1.421875 31.78125 -1.421875 
Q 19.734375 -1.421875 13.25 4.234375 
Q 6.78125 9.90625 6.78125 20.515625 
Q 6.78125 27.484375 10.78125 32.3125 
Q 14.796875 37.15625 21.921875 38.8125 
z
M 18.3125 54.390625 
Q 18.3125 48.734375 21.84375 45.5625 
Q 25.390625 42.390625 31.78125 42.390625 
Q 38.140625 42.390625 41.71875 45.5625 
Q 45.3125 48.734375 45.3125 54.390625 
Q 45.3125 60.0625 41.71875 63.234375 
Q 38.140625 66.40625 31.78125 66.40625 
Q 25.390625 66.40625 21.84375 63.234375 
Q 18.3125 60.0625 18.3125 54.390625 
z
" id="DejaVuSans-56"/>
      </defs>
      <g transform="translate(296.370046 254.356562)scale(0.1 -0.1)">
       <use xlink:href="#DejaVuSans-48"/>
       <use x="63.623047" xlink:href="#DejaVuSans-46"/>
       <use x="95.410156" xlink:href="#DejaVuSans-56"/>
      </g>
     </g>
    </g>
    <g id="xtick_6">
     <g id="line2d_6">
      <g>
       <use style="stroke:#000000;stroke-width:0.8;" x="364.856059" xlink:href="#m52de5b8c81" y="239.758125"/>
      </g>
     </g>
     <g id="text_6">
      <!-- 1.0 -->
      <defs>
       <path d="M 12.40625 8.296875 
L 28.515625 8.296875 
L 28.515625 63.921875 
L 10.984375 60.40625 
L 10.984375 69.390625 
L 28.421875 72.90625 
L 38.28125 72.90625 
L 38.28125 8.296875 
L 54.390625 8.296875 
L 54.390625 0 
L 12.40625 0 
z
" id="DejaVuSans-49"/>
      </defs>
      <g transform="translate(356.904496 254.356562)scale(0.1 -0.1)">
       <use xlink:href="#DejaVuSans-49"/>
       <use x="63.623047" xlink:href="#DejaVuSans-46"/>
       <use x="95.410156" xlink:href="#DejaVuSans-48"/>
      </g>
     </g>
    </g>
    <g id="text_7">
     <!-- Time (ms) -->
     <defs>
      <path d="M -0.296875 72.90625 
L 61.375 72.90625 
L 61.375 64.59375 
L 35.5 64.59375 
L 35.5 0 
L 25.59375 0 
L 25.59375 64.59375 
L -0.296875 64.59375 
z
" id="DejaVuSans-84"/>
      <path d="M 9.421875 54.6875 
L 18.40625 54.6875 
L 18.40625 0 
L 9.421875 0 
z
M 9.421875 75.984375 
L 18.40625 75.984375 
L 18.40625 64.59375 
L 9.421875 64.59375 
z
" id="DejaVuSans-105"/>
      <path d="M 52 44.1875 
Q 55.375 50.25 60.0625 53.125 
Q 64.75 56 71.09375 56 
Q 79.640625 56 84.28125 50.015625 
Q 88.921875 44.046875 88.921875 33.015625 
L 88.921875 0 
L 79.890625 0 
L 79.890625 32.71875 
Q 79.890625 40.578125 77.09375 44.375 
Q 74.3125 48.1875 68.609375 48.1875 
Q 61.625 48.1875 57.5625 43.546875 
Q 53.515625 38.921875 53.515625 30.90625 
L 53.515625 0 
L 44.484375 0 
L 44.484375 32.71875 
Q 44.484375 40.625 41.703125 44.40625 
Q 38.921875 48.1875 33.109375 48.1875 
Q 26.21875 48.1875 22.15625 43.53125 
Q 18.109375 38.875 18.109375 30.90625 
L 18.109375 0 
L 9.078125 0 
L 9.078125 54.6875 
L 18.109375 54.6875 
L 18.109375 46.1875 
Q 21.1875 51.21875 25.484375 53.609375 
Q 29.78125 56 35.6875 56 
Q 41.65625 56 45.828125 52.96875 
Q 50 49.953125 52 44.1875 
z
" id="DejaVuSans-109"/>
      <path d="M 56.203125 29.59375 
L 56.203125 25.203125 
L 14.890625 25.203125 
Q 15.484375 15.921875 20.484375 11.0625 
Q 25.484375 6.203125 34.421875 6.203125 
Q 39.59375 6.203125 44.453125 7.46875 
Q 49.3125 8.734375 54.109375 11.28125 
L 54.109375 2.78125 
Q 49.265625 0.734375 44.1875 -0.34375 
Q 39.109375 -1.421875 33.890625 -1.421875 
Q 20.796875 -1.421875 13.15625 6.1875 
Q 5.515625 13.8125 5.515625 26.8125 
Q 5.515625 40.234375 12.765625 48.109375 
Q 20.015625 56 32.328125 56 
Q 43.359375 56 49.78125 48.890625 
Q 56.203125 41.796875 56.203125 29.59375 
z
M 47.21875 32.234375 
Q 47.125 39.59375 43.09375 43.984375 
Q 39.0625 48.390625 32.421875 48.390625 
Q 24.90625 48.390625 20.390625 44.140625 
Q 15.875 39.890625 15.1875 32.171875 
z
" id="DejaVuSans-101"/>
      <path id="DejaVuSans-32"/>
      <path d="M 31 75.875 
Q 24.46875 64.65625 21.28125 53.65625 
Q 18.109375 42.671875 18.109375 31.390625 
Q 18.109375 20.125 21.3125 9.0625 
Q 24.515625 -2 31 -13.1875 
L 23.1875 -13.1875 
Q 15.875 -1.703125 12.234375 9.375 
Q 8.59375 20.453125 8.59375 31.390625 
Q 8.59375 42.28125 12.203125 53.3125 
Q 15.828125 64.359375 23.1875 75.875 
z
" id="DejaVuSans-40"/>
      <path d="M 44.28125 53.078125 
L 44.28125 44.578125 
Q 40.484375 46.53125 36.375 47.5 
Q 32.28125 48.484375 27.875 48.484375 
Q 21.1875 48.484375 17.84375 46.4375 
Q 14.5 44.390625 14.5 40.28125 
Q 14.5 37.15625 16.890625 35.375 
Q 19.28125 33.59375 26.515625 31.984375 
L 29.59375 31.296875 
Q 39.15625 29.25 43.1875 25.515625 
Q 47.21875 21.78125 47.21875 15.09375 
Q 47.21875 7.46875 41.1875 3.015625 
Q 35.15625 -1.421875 24.609375 -1.421875 
Q 20.21875 -1.421875 15.453125 -0.5625 
Q 10.6875 0.296875 5.421875 2 
L 5.421875 11.28125 
Q 10.40625 8.6875 15.234375 7.390625 
Q 20.0625 6.109375 24.8125 6.109375 
Q 31.15625 6.109375 34.5625 8.28125 
Q 37.984375 10.453125 37.984375 14.40625 
Q 37.984375 18.0625 35.515625 20.015625 
Q 33.0625 21.96875 24.703125 23.78125 
L 21.578125 24.515625 
Q 13.234375 26.265625 9.515625 29.90625 
Q 5.8125 33.546875 5.8125 39.890625 
Q 5.8125 47.609375 11.28125 51.796875 
Q 16.75 56 26.8125 56 
Q 31.78125 56 36.171875 55.265625 
Q 40.578125 54.546875 44.28125 53.078125 
z
" id="DejaVuSans-115"/>
      <path d="M 8.015625 75.875 
L 15.828125 75.875 
Q 23.140625 64.359375 26.78125 53.3125 
Q 30.421875 42.28125 30.421875 31.390625 
Q 30.421875 20.453125 26.78125 9.375 
Q 23.140625 -1.703125 15.828125 -13.1875 
L 8.015625 -13.1875 
Q 14.5 -2 17.703125 9.0625 
Q 20.90625 20.125 20.90625 31.390625 
Q 20.90625 42.671875 17.703125 53.65625 
Q 14.5 64.65625 8.015625 75.875 
z
" id="DejaVuSans-41"/>
     </defs>
     <g transform="translate(189.0125 268.034687)scale(0.1 -0.1)">
      <use xlink:href="#DejaVuSans-84"/>
      <use x="61.037109" xlink:href="#DejaVuSans-105"/>
      <use x="88.820312" xlink:href="#DejaVuSans-109"/>
      <use x="186.232422" xlink:href="#DejaVuSans-101"/>
      <use x="247.755859" xlink:href="#DejaVuSans-32"/>
      <use x="279.542969" xlink:href="#DejaVuSans-40"/>
      <use x="318.556641" xlink:href="#DejaVuSans-109"/>
      <use x="415.96875" xlink:href="#DejaVuSans-115"/>
      <use x="468.068359" xlink:href="#DejaVuSans-41"/>
     </g>
    </g>
   </g>
   <g id="matplotlib.axis_2">
    <g id="ytick_1">
     <g id="line2d_7">
      <defs>
       <path d="M 0 0 
L -3.5 0 
" id="m79234faba0" style="stroke:#000000;stroke-width:0.8;"/>
      </defs>
      <g>
       <use style="stroke:#000000;stroke-width:0.8;" x="46.965625" xlink:href="#m79234faba0" y="229.874489"/>
      </g>
     </g>
     <g id="text_8">
      <!-- 0 -->
      <g transform="translate(33.603125 233.673707)scale(0.1 -0.1)">
       <use xlink:href="#DejaVuSans-48"/>
      </g>
     </g>
    </g>
    <g id="ytick_2">
     <g id="line2d_8">
      <g>
       <use style="stroke:#000000;stroke-width:0.8;" x="46.965625" xlink:href="#m79234faba0" y="203.834968"/>
      </g>
     </g>
     <g id="text_9">
      <!-- 25 -->
      <defs>
       <path d="M 10.796875 72.90625 
L 49.515625 72.90625 
L 49.515625 64.59375 
L 19.828125 64.59375 
L 19.828125 46.734375 
Q 21.96875 47.46875 24.109375 47.828125 
Q 26.265625 48.1875 28.421875 48.1875 
Q 40.625 48.1875 47.75 41.5 
Q 54.890625 34.8125 54.890625 23.390625 
Q 54.890625 11.625 47.5625 5.09375 
Q 40.234375 -1.421875 26.90625 -1.421875 
Q 22.3125 -1.421875 17.546875 -0.640625 
Q 12.796875 0.140625 7.71875 1.703125 
L 7.71875 11.625 
Q 12.109375 9.234375 16.796875 8.0625 
Q 21.484375 6.890625 26.703125 6.890625 
Q 35.15625 6.890625 40.078125 11.328125 
Q 45.015625 15.765625 45.015625 23.390625 
Q 45.015625 31 40.078125 35.4375 
Q 35.15625 39.890625 26.703125 39.890625 
Q 22.75 39.890625 18.8125 39.015625 
Q 14.890625 38.140625 10.796875 36.28125 
z
" id="DejaVuSans-53"/>
      </defs>
      <g transform="translate(27.240625 207.634187)scale(0.1 -0.1)">
       <use xlink:href="#DejaVuSans-50"/>
       <use x="63.623047" xlink:href="#DejaVuSans-53"/>
      </g>
     </g>
    </g>
    <g id="ytick_3">
     <g id="line2d_9">
      <g>
       <use style="stroke:#000000;stroke-width:0.8;" x="46.965625" xlink:href="#m79234faba0" y="177.795447"/>
      </g>
     </g>
     <g id="text_10">
      <!-- 50 -->
      <g transform="translate(27.240625 181.594666)scale(0.1 -0.1)">
       <use xlink:href="#DejaVuSans-53"/>
       <use x="63.623047" xlink:href="#DejaVuSans-48"/>
      </g>
     </g>
    </g>
    <g id="ytick_4">
     <g id="line2d_10">
      <g>
       <use style="stroke:#000000;stroke-width:0.8;" x="46.965625" xlink:href="#m79234faba0" y="151.755927"/>
      </g>
     </g>
     <g id="text_11">
      <!-- 75 -->
      <defs>
       <path d="M 8.203125 72.90625 
L 55.078125 72.90625 
L 55.078125 68.703125 
L 28.609375 0 
L 18.3125 0 
L 43.21875 64.59375 
L 8.203125 64.59375 
z
" id="DejaVuSans-55"/>
      </defs>
      <g transform="translate(27.240625 155.555146)scale(0.1 -0.1)">
       <use xlink:href="#DejaVuSans-55"/>
       <use x="63.623047" xlink:href="#DejaVuSans-53"/>
      </g>
     </g>
    </g>
    <g id="ytick_5">
     <g id="line2d_11">
      <g>
       <use style="stroke:#000000;stroke-width:0.8;" x="46.965625" xlink:href="#m79234faba0" y="125.716406"/>
      </g>
     </g>
     <g id="text_12">
      <!-- 100 -->
      <g transform="translate(20.878125 129.515625)scale(0.1 -0.1)">
       <use xlink:href="#DejaVuSans-49"/>
       <use x="63.623047" xlink:href="#DejaVuSans-48"/>
       <use x="127.246094" xlink:href="#DejaVuSans-48"/>
      </g>
     </g>
    </g>
    <g id="ytick_6">
     <g id="line2d_12">
      <g>
       <use style="stroke:#000000;stroke-width:0.8;" x="46.965625" xlink:href="#m79234faba0" y="99.676886"/>
      </g>
     </g>
     <g id="text_13">
      <!-- 125 -->
      <g transform="translate(20.878125 103.476104)scale(0.1 -0.1)">
       <use xlink:href="#DejaVuSans-49"/>
       <use x="63.623047" xlink:href="#DejaVuSans-50"/>
       <use x="127.246094" xlink:href="#DejaVuSans-53"/>
      </g>
     </g>
    </g>
    <g id="ytick_7">
     <g id="line2d_13">
      <g>
       <use style="stroke:#000000;stroke-width:0.8;" x="46.965625" xlink:href="#m79234faba0" y="73.637365"/>
      </g>
     </g>
     <g id="text_14">
      <!-- 150 -->
      <g transform="translate(20.878125 77.436584)scale(0.1 -0.1)">
       <use xlink:href="#DejaVuSans-49"/>
       <use x="63.623047" xlink:href="#DejaVuSans-53"/>
       <use x="127.246094" xlink:href="#DejaVuSans-48"/>
      </g>
     </g>
    </g>
    <g id="ytick_8">
     <g id="line2d_14">
      <g>
       <use style="stroke:#000000;stroke-width:0.8;" x="46.965625" xlink:href="#m79234faba0" y="47.597844"/>
      </g>
     </g>
     <g id="text_15">
      <!-- 175 -->
      <g transform="translate(20.878125 51.397063)scale(0.1 -0.1)">
       <use xlink:href="#DejaVuSans-49"/>
       <use x="63.623047" xlink:href="#DejaVuSans-55"/>
       <use x="127.246094" xlink:href="#DejaVuSans-53"/>
      </g>
     </g>
    </g>
    <g id="text_16">
     <!-- ppmOH -->
     <defs>
      <path d="M 18.109375 8.203125 
L 18.109375 -20.796875 
L 9.078125 -20.796875 
L 9.078125 54.6875 
L 18.109375 54.6875 
L 18.109375 46.390625 
Q 20.953125 51.265625 25.265625 53.625 
Q 29.59375 56 35.59375 56 
Q 45.5625 56 51.78125 48.09375 
Q 58.015625 40.1875 58.015625 27.296875 
Q 58.015625 14.40625 51.78125 6.484375 
Q 45.5625 -1.421875 35.59375 -1.421875 
Q 29.59375 -1.421875 25.265625 0.953125 
Q 20.953125 3.328125 18.109375 8.203125 
z
M 48.6875 27.296875 
Q 48.6875 37.203125 44.609375 42.84375 
Q 40.53125 48.484375 33.40625 48.484375 
Q 26.265625 48.484375 22.1875 42.84375 
Q 18.109375 37.203125 18.109375 27.296875 
Q 18.109375 17.390625 22.1875 11.75 
Q 26.265625 6.109375 33.40625 6.109375 
Q 40.53125 6.109375 44.609375 11.75 
Q 48.6875 17.390625 48.6875 27.296875 
z
" id="DejaVuSans-112"/>
      <path d="M 39.40625 66.21875 
Q 28.65625 66.21875 22.328125 58.203125 
Q 16.015625 50.203125 16.015625 36.375 
Q 16.015625 22.609375 22.328125 14.59375 
Q 28.65625 6.59375 39.40625 6.59375 
Q 50.140625 6.59375 56.421875 14.59375 
Q 62.703125 22.609375 62.703125 36.375 
Q 62.703125 50.203125 56.421875 58.203125 
Q 50.140625 66.21875 39.40625 66.21875 
z
M 39.40625 74.21875 
Q 54.734375 74.21875 63.90625 63.9375 
Q 73.09375 53.65625 73.09375 36.375 
Q 73.09375 19.140625 63.90625 8.859375 
Q 54.734375 -1.421875 39.40625 -1.421875 
Q 24.03125 -1.421875 14.8125 8.828125 
Q 5.609375 19.09375 5.609375 36.375 
Q 5.609375 53.65625 14.8125 63.9375 
Q 24.03125 74.21875 39.40625 74.21875 
z
" id="DejaVuSans-79"/>
      <path d="M 9.8125 72.90625 
L 19.671875 72.90625 
L 19.671875 43.015625 
L 55.515625 43.015625 
L 55.515625 72.90625 
L 65.375 72.90625 
L 65.375 0 
L 55.515625 0 
L 55.515625 34.71875 
L 19.671875 34.71875 
L 19.671875 0 
L 9.8125 0 
z
" id="DejaVuSans-72"/>
     </defs>
     <g transform="translate(14.798438 149.952969)rotate(-90)scale(0.1 -0.1)">
      <use xlink:href="#DejaVuSans-112"/>
      <use x="63.476562" xlink:href="#DejaVuSans-112"/>
      <use x="126.953125" xlink:href="#DejaVuSans-109"/>
      <use x="224.365234" xlink:href="#DejaVuSans-79"/>
      <use x="303.076172" xlink:href="#DejaVuSans-72"/>
     </g>
    </g>
   </g>
   <g id="line2d_15">
    <path clip-path="url(#pc7140fb858)" d="M 62.183807 229.874489 
L 62.717304 183.120019 
L 63.26093 153.604698 
L 63.760061 137.379961 
L 64.213816 128.768437 
L 64.645627 124.284044 
L 64.989658 122.510505 
L 65.264882 121.91286 
L 65.4713 121.826099 
L 65.677719 121.981145 
L 66.021749 122.643108 
L 66.572198 124.370262 
L 67.845671 129.423079 
L 69.194676 134.400347 
L 70.336142 137.824929 
L 71.47855 140.575647 
L 72.725671 142.957652 
L 73.972791 144.844235 
L 75.142964 146.27419 
L 76.55196 147.668295 
L 78.195789 148.961706 
L 79.961405 150.066168 
L 82.083643 151.125561 
L 84.559586 152.118578 
L 88.096648 153.270275 
L 93.402241 154.721509 
L 121.332683 162.038549 
L 151.887219 170.349661 
L 166.645825 174.086285 
L 181.46337 177.589543 
L 195.357928 180.655121 
L 210.206407 183.709536 
L 225.054886 186.54007 
L 239.903365 189.140842 
L 253.761945 191.350945 
L 267.620525 193.343861 
L 281.00774 195.061962 
L 295.882422 196.740118 
L 310.757105 198.191971 
L 327.119256 199.555244 
L 344.968875 200.802205 
L 364.305962 201.919379 
L 366.547443 202.035416 
L 366.547443 202.035416 
" style="fill:none;stroke:#0000ff;stroke-linecap:square;stroke-width:1.5;"/>
   </g>
   <g id="line2d_16">
    <path clip-path="url(#pc7140fb858)" d="M 62.183807 229.874489 
L 62.867693 155.202034 
L 63.542468 104.390898 
L 64.184748 72.088699 
L 64.777623 52.8143 
L 65.322004 41.809965 
L 65.769399 36.37641 
L 66.216793 33.395408 
L 66.516435 32.460388 
L 66.741512 32.205713 
L 66.966588 32.271276 
L 67.191665 32.606665 
L 67.529279 33.519937 
L 68.09197 35.83601 
L 68.992276 40.688234 
L 71.805731 56.499239 
L 73.101688 62.387675 
L 74.456862 67.480289 
L 75.812036 71.654325 
L 77.16721 75.097044 
L 78.696057 78.304483 
L 80.224905 80.968858 
L 81.753752 83.226035 
L 83.588446 85.535975 
L 85.620747 87.725208 
L 87.904525 89.858846 
L 90.650109 92.113082 
L 94.221893 94.721761 
L 98.867052 97.797301 
L 105.426652 101.832681 
L 115.250307 107.57477 
L 126.851938 114.100408 
L 138.863177 120.610317 
L 152.402984 127.679177 
L 167.572102 135.331997 
L 183.656395 143.193792 
L 196.902283 149.43087 
L 208.255901 154.525895 
L 217.71725 158.535589 
L 226.232464 161.925515 
L 234.747678 165.086766 
L 243.262892 168.008434 
L 251.778106 170.688804 
L 260.293319 173.133874 
L 268.808533 175.355343 
L 278.288852 177.584367 
L 288.245399 179.673658 
L 298.201947 181.533059 
L 309.580858 183.411648 
L 320.959769 185.063163 
L 333.761045 186.690636 
L 346.602203 188.11668 
L 361.606819 189.565681 
L 365.893852 189.942572 
L 365.893852 189.942572 
" style="fill:none;stroke:#ff0000;stroke-linecap:square;stroke-width:1.5;"/>
   </g>
   <g id="line2d_17">
    <defs>
     <path d="M 0 3 
C 0.795609 3 1.55874 2.683901 2.12132 2.12132 
C 2.683901 1.55874 3 0.795609 3 0 
C 3 -0.795609 2.683901 -1.55874 2.12132 -2.12132 
C 1.55874 -2.683901 0.795609 -3 0 -3 
C -0.795609 -3 -1.55874 -2.683901 -2.12132 -2.12132 
C -2.683901 -1.55874 -3 -0.795609 -3 0 
C -3 0.795609 -2.683901 1.55874 -2.12132 2.12132 
C -1.55874 2.683901 -0.795609 3 0 3 
z
" id="m16fdb190e3" style="stroke:#000000;"/>
    </defs>
    <g clip-path="url(#pc7140fb858)">
     <use style="stroke:#000000;" x="64.644532" xlink:href="#m16fdb190e3" y="137.857697"/>
     <use style="stroke:#000000;" x="64.699013" xlink:href="#m16fdb190e3" y="137.707189"/>
     <use style="stroke:#000000;" x="64.756521" xlink:href="#m16fdb190e3" y="137.584699"/>
     <use style="stroke:#000000;" x="64.814029" xlink:href="#m16fdb190e3" y="137.488457"/>
     <use style="stroke:#000000;" x="64.86851" xlink:href="#m16fdb190e3" y="137.416692"/>
     <use style="stroke:#000000;" x="64.926017" xlink:href="#m16fdb190e3" y="137.367634"/>
     <use style="stroke:#000000;" x="64.983525" xlink:href="#m16fdb190e3" y="137.339719"/>
     <use style="stroke:#000000;" x="65.038006" xlink:href="#m16fdb190e3" y="137.331595"/>
     <use style="stroke:#000000;" x="65.095514" xlink:href="#m16fdb190e3" y="137.341698"/>
     <use style="stroke:#000000;" x="65.153022" xlink:href="#m16fdb190e3" y="137.368675"/>
     <use style="stroke:#000000;" x="65.207503" xlink:href="#m16fdb190e3" y="137.41138"/>
     <use style="stroke:#000000;" x="65.271064" xlink:href="#m16fdb190e3" y="137.468667"/>
     <use style="stroke:#000000;" x="65.331598" xlink:href="#m16fdb190e3" y="137.539286"/>
     <use style="stroke:#000000;" x="65.392133" xlink:href="#m16fdb190e3" y="137.6223"/>
     <use style="stroke:#000000;" x="65.4224" xlink:href="#m16fdb190e3" y="137.716563"/>
     <use style="stroke:#000000;" x="65.482934" xlink:href="#m16fdb190e3" y="137.82145"/>
     <use style="stroke:#000000;" x="65.543469" xlink:href="#m16fdb190e3" y="137.935816"/>
     <use style="stroke:#000000;" x="65.604003" xlink:href="#m16fdb190e3" y="138.059035"/>
     <use style="stroke:#000000;" x="65.664538" xlink:href="#m16fdb190e3" y="138.190274"/>
     <use style="stroke:#000000;" x="65.725072" xlink:href="#m16fdb190e3" y="138.328804"/>
     <use style="stroke:#000000;" x="65.785607" xlink:href="#m16fdb190e3" y="138.473897"/>
     <use style="stroke:#000000;" x="65.815874" xlink:href="#m16fdb190e3" y="138.62503"/>
     <use style="stroke:#000000;" x="65.876408" xlink:href="#m16fdb190e3" y="138.78158"/>
     <use style="stroke:#000000;" x="65.936943" xlink:href="#m16fdb190e3" y="138.943025"/>
     <use style="stroke:#000000;" x="65.997477" xlink:href="#m16fdb190e3" y="139.108844"/>
     <use style="stroke:#000000;" x="66.058012" xlink:href="#m16fdb190e3" y="139.278518"/>
     <use style="stroke:#000000;" x="66.118546" xlink:href="#m16fdb190e3" y="139.451628"/>
     <use style="stroke:#000000;" x="66.179081" xlink:href="#m16fdb190e3" y="139.62776"/>
     <use style="stroke:#000000;" x="66.239615" xlink:href="#m16fdb190e3" y="139.806495"/>
     <use style="stroke:#000000;" x="66.269882" xlink:href="#m16fdb190e3" y="139.987522"/>
     <use style="stroke:#000000;" x="66.330417" xlink:href="#m16fdb190e3" y="140.170423"/>
     <use style="stroke:#000000;" x="66.390951" xlink:href="#m16fdb190e3" y="140.354887"/>
     <use style="stroke:#000000;" x="66.451486" xlink:href="#m16fdb190e3" y="140.540705"/>
     <use style="stroke:#000000;" x="66.51202" xlink:href="#m16fdb190e3" y="140.727565"/>
     <use style="stroke:#000000;" x="66.572554" xlink:href="#m16fdb190e3" y="140.915258"/>
     <use style="stroke:#000000;" x="66.633089" xlink:href="#m16fdb190e3" y="141.103471"/>
     <use style="stroke:#000000;" x="66.663356" xlink:href="#m16fdb190e3" y="141.292102"/>
     <use style="stroke:#000000;" x="66.723891" xlink:href="#m16fdb190e3" y="141.480732"/>
     <use style="stroke:#000000;" x="66.784425" xlink:href="#m16fdb190e3" y="141.669467"/>
     <use style="stroke:#000000;" x="66.84496" xlink:href="#m16fdb190e3" y="141.857888"/>
     <use style="stroke:#000000;" x="66.905494" xlink:href="#m16fdb190e3" y="142.045998"/>
     <use style="stroke:#000000;" x="66.966028" xlink:href="#m16fdb190e3" y="142.233483"/>
     <use style="stroke:#000000;" x="67.026563" xlink:href="#m16fdb190e3" y="142.420446"/>
     <use style="stroke:#000000;" x="67.087097" xlink:href="#m16fdb190e3" y="142.606577"/>
     <use style="stroke:#000000;" x="67.147632" xlink:href="#m16fdb190e3" y="142.884679"/>
     <use style="stroke:#000000;" x="67.238433" xlink:href="#m16fdb190e3" y="143.160489"/>
     <use style="stroke:#000000;" x="67.329235" xlink:href="#m16fdb190e3" y="143.433592"/>
     <use style="stroke:#000000;" x="67.420037" xlink:href="#m16fdb190e3" y="143.703882"/>
     <use style="stroke:#000000;" x="67.510838" xlink:href="#m16fdb190e3" y="143.971152"/>
     <use style="stroke:#000000;" x="67.571373" xlink:href="#m16fdb190e3" y="144.234984"/>
     <use style="stroke:#000000;" x="67.662175" xlink:href="#m16fdb190e3" y="144.495484"/>
     <use style="stroke:#000000;" x="67.752976" xlink:href="#m16fdb190e3" y="144.752442"/>
     <use style="stroke:#000000;" x="67.843778" xlink:href="#m16fdb190e3" y="145.005754"/>
     <use style="stroke:#000000;" x="67.93458" xlink:href="#m16fdb190e3" y="145.255213"/>
     <use style="stroke:#000000;" x="67.995114" xlink:href="#m16fdb190e3" y="145.500922"/>
     <use style="stroke:#000000;" x="68.085916" xlink:href="#m16fdb190e3" y="145.742777"/>
     <use style="stroke:#000000;" x="68.176717" xlink:href="#m16fdb190e3" y="145.980674"/>
     <use style="stroke:#000000;" x="68.267519" xlink:href="#m16fdb190e3" y="146.214717"/>
     <use style="stroke:#000000;" x="68.358321" xlink:href="#m16fdb190e3" y="146.444698"/>
     <use style="stroke:#000000;" x="68.418855" xlink:href="#m16fdb190e3" y="146.670929"/>
     <use style="stroke:#000000;" x="68.509657" xlink:href="#m16fdb190e3" y="146.893098"/>
     <use style="stroke:#000000;" x="68.600459" xlink:href="#m16fdb190e3" y="147.111414"/>
     <use style="stroke:#000000;" x="68.69126" xlink:href="#m16fdb190e3" y="147.325875"/>
     <use style="stroke:#000000;" x="68.782062" xlink:href="#m16fdb190e3" y="147.536587"/>
     <use style="stroke:#000000;" x="68.842596" xlink:href="#m16fdb190e3" y="147.743341"/>
     <use style="stroke:#000000;" x="68.933398" xlink:href="#m16fdb190e3" y="147.946449"/>
     <use style="stroke:#000000;" x="69.0242" xlink:href="#m16fdb190e3" y="148.145808"/>
     <use style="stroke:#000000;" x="69.115001" xlink:href="#m16fdb190e3" y="148.341417"/>
     <use style="stroke:#000000;" x="69.205803" xlink:href="#m16fdb190e3" y="148.533484"/>
     <use style="stroke:#000000;" x="69.266338" xlink:href="#m16fdb190e3" y="148.72201"/>
     <use style="stroke:#000000;" x="69.357139" xlink:href="#m16fdb190e3" y="148.906995"/>
     <use style="stroke:#000000;" x="69.447941" xlink:href="#m16fdb190e3" y="149.088543"/>
     <use style="stroke:#000000;" x="69.56901" xlink:href="#m16fdb190e3" y="149.358208"/>
     <use style="stroke:#000000;" x="69.720346" xlink:href="#m16fdb190e3" y="149.62027"/>
     <use style="stroke:#000000;" x="69.841415" xlink:href="#m16fdb190e3" y="149.874832"/>
     <use style="stroke:#000000;" x="69.962484" xlink:href="#m16fdb190e3" y="150.122312"/>
     <use style="stroke:#000000;" x="70.083553" xlink:href="#m16fdb190e3" y="150.362708"/>
     <use style="stroke:#000000;" x="70.234889" xlink:href="#m16fdb190e3" y="150.596439"/>
     <use style="stroke:#000000;" x="70.355958" xlink:href="#m16fdb190e3" y="150.823712"/>
     <use style="stroke:#000000;" x="70.477027" xlink:href="#m16fdb190e3" y="151.044527"/>
     <use style="stroke:#000000;" x="70.598095" xlink:href="#m16fdb190e3" y="151.259301"/>
     <use style="stroke:#000000;" x="70.749432" xlink:href="#m16fdb190e3" y="151.468138"/>
     <use style="stroke:#000000;" x="70.8705" xlink:href="#m16fdb190e3" y="151.671246"/>
     <use style="stroke:#000000;" x="70.991569" xlink:href="#m16fdb190e3" y="151.868834"/>
     <use style="stroke:#000000;" x="71.112638" xlink:href="#m16fdb190e3" y="152.061006"/>
     <use style="stroke:#000000;" x="71.263974" xlink:href="#m16fdb190e3" y="152.248074"/>
     <use style="stroke:#000000;" x="71.385043" xlink:href="#m16fdb190e3" y="152.430142"/>
     <use style="stroke:#000000;" x="71.506112" xlink:href="#m16fdb190e3" y="152.607419"/>
     <use style="stroke:#000000;" x="71.657448" xlink:href="#m16fdb190e3" y="152.780113"/>
     <use style="stroke:#000000;" x="71.778517" xlink:href="#m16fdb190e3" y="152.948224"/>
     <use style="stroke:#000000;" x="71.899586" xlink:href="#m16fdb190e3" y="153.112065"/>
     <use style="stroke:#000000;" x="72.020655" xlink:href="#m16fdb190e3" y="153.271635"/>
     <use style="stroke:#000000;" x="72.171991" xlink:href="#m16fdb190e3" y="153.427247"/>
     <use style="stroke:#000000;" x="72.29306" xlink:href="#m16fdb190e3" y="153.578902"/>
     <use style="stroke:#000000;" x="72.414129" xlink:href="#m16fdb190e3" y="153.72691"/>
     <use style="stroke:#000000;" x="72.535198" xlink:href="#m16fdb190e3" y="153.871169"/>
     <use style="stroke:#000000;" x="72.686534" xlink:href="#m16fdb190e3" y="154.011991"/>
     <use style="stroke:#000000;" x="72.807603" xlink:href="#m16fdb190e3" y="154.149375"/>
     <use style="stroke:#000000;" x="72.928672" xlink:href="#m16fdb190e3" y="154.283531"/>
     <use style="stroke:#000000;" x="73.049741" xlink:href="#m16fdb190e3" y="154.414458"/>
     <use style="stroke:#000000;" x="73.201077" xlink:href="#m16fdb190e3" y="154.542468"/>
     <use style="stroke:#000000;" x="73.322146" xlink:href="#m16fdb190e3" y="154.667458"/>
     <use style="stroke:#000000;" x="73.443215" xlink:href="#m16fdb190e3" y="154.789635"/>
     <use style="stroke:#000000;" x="73.594551" xlink:href="#m16fdb190e3" y="154.909105"/>
     <use style="stroke:#000000;" x="73.71562" xlink:href="#m16fdb190e3" y="155.025866"/>
     <use style="stroke:#000000;" x="73.836689" xlink:href="#m16fdb190e3" y="155.140127"/>
     <use style="stroke:#000000;" x="73.957757" xlink:href="#m16fdb190e3" y="155.251889"/>
     <use style="stroke:#000000;" x="74.109094" xlink:href="#m16fdb190e3" y="155.361255"/>
     <use style="stroke:#000000;" x="74.230162" xlink:href="#m16fdb190e3" y="155.468329"/>
     <use style="stroke:#000000;" x="74.351231" xlink:href="#m16fdb190e3" y="155.573216"/>
     <use style="stroke:#000000;" x="74.4723" xlink:href="#m16fdb190e3" y="155.675916"/>
     <use style="stroke:#000000;" x="74.623636" xlink:href="#m16fdb190e3" y="155.776637"/>
     <use style="stroke:#000000;" x="74.744705" xlink:href="#m16fdb190e3" y="155.875275"/>
     <use style="stroke:#000000;" x="74.926309" xlink:href="#m16fdb190e3" y="156.020992"/>
     <use style="stroke:#000000;" x="75.138179" xlink:href="#m16fdb190e3" y="156.162439"/>
     <use style="stroke:#000000;" x="75.319783" xlink:href="#m16fdb190e3" y="156.299927"/>
     <use style="stroke:#000000;" x="75.531653" xlink:href="#m16fdb190e3" y="156.433666"/>
     <use style="stroke:#000000;" x="75.713256" xlink:href="#m16fdb190e3" y="156.56376"/>
     <use style="stroke:#000000;" x="75.925127" xlink:href="#m16fdb190e3" y="156.690416"/>
     <use style="stroke:#000000;" x="76.10673" xlink:href="#m16fdb190e3" y="156.813843"/>
     <use style="stroke:#000000;" x="76.318601" xlink:href="#m16fdb190e3" y="156.934146"/>
     <use style="stroke:#000000;" x="76.500204" xlink:href="#m16fdb190e3" y="157.051532"/>
     <use style="stroke:#000000;" x="76.681808" xlink:href="#m16fdb190e3" y="157.16621"/>
     <use style="stroke:#000000;" x="76.893678" xlink:href="#m16fdb190e3" y="157.27818"/>
     <use style="stroke:#000000;" x="77.075282" xlink:href="#m16fdb190e3" y="157.387546"/>
     <use style="stroke:#000000;" x="77.287152" xlink:href="#m16fdb190e3" y="157.494621"/>
     <use style="stroke:#000000;" x="77.468756" xlink:href="#m16fdb190e3" y="157.599404"/>
     <use style="stroke:#000000;" x="77.680626" xlink:href="#m16fdb190e3" y="157.701999"/>
     <use style="stroke:#000000;" x="77.862229" xlink:href="#m16fdb190e3" y="157.802512"/>
     <use style="stroke:#000000;" x="78.0741" xlink:href="#m16fdb190e3" y="157.901045"/>
     <use style="stroke:#000000;" x="78.255703" xlink:href="#m16fdb190e3" y="157.997704"/>
     <use style="stroke:#000000;" x="78.467574" xlink:href="#m16fdb190e3" y="158.092696"/>
     <use style="stroke:#000000;" x="78.649177" xlink:href="#m16fdb190e3" y="158.185918"/>
     <use style="stroke:#000000;" x="78.861048" xlink:href="#m16fdb190e3" y="158.277473"/>
     <use style="stroke:#000000;" x="79.042651" xlink:href="#m16fdb190e3" y="158.367569"/>
     <use style="stroke:#000000;" x="79.224255" xlink:href="#m16fdb190e3" y="158.456208"/>
     <use style="stroke:#000000;" x="79.436125" xlink:href="#m16fdb190e3" y="158.543492"/>
     <use style="stroke:#000000;" x="79.617729" xlink:href="#m16fdb190e3" y="158.629319"/>
     <use style="stroke:#000000;" x="79.920401" xlink:href="#m16fdb190e3" y="158.757746"/>
     <use style="stroke:#000000;" x="80.223073" xlink:href="#m16fdb190e3" y="158.88336"/>
     <use style="stroke:#000000;" x="80.525745" xlink:href="#m16fdb190e3" y="159.006475"/>
     <use style="stroke:#000000;" x="80.828418" xlink:href="#m16fdb190e3" y="159.127299"/>
     <use style="stroke:#000000;" x="81.100823" xlink:href="#m16fdb190e3" y="159.24583"/>
     <use style="stroke:#000000;" x="81.403495" xlink:href="#m16fdb190e3" y="159.362383"/>
     <use style="stroke:#000000;" x="81.706167" xlink:href="#m16fdb190e3" y="159.477061"/>
     <use style="stroke:#000000;" x="82.008839" xlink:href="#m16fdb190e3" y="159.589969"/>
     <use style="stroke:#000000;" x="82.311512" xlink:href="#m16fdb190e3" y="159.70121"/>
     <use style="stroke:#000000;" x="82.614184" xlink:href="#m16fdb190e3" y="159.810888"/>
     <use style="stroke:#000000;" x="82.886589" xlink:href="#m16fdb190e3" y="159.919212"/>
     <use style="stroke:#000000;" x="83.189261" xlink:href="#m16fdb190e3" y="160.026183"/>
     <use style="stroke:#000000;" x="83.491933" xlink:href="#m16fdb190e3" y="160.131799"/>
     <use style="stroke:#000000;" x="83.794606" xlink:href="#m16fdb190e3" y="160.236374"/>
     <use style="stroke:#000000;" x="84.097278" xlink:href="#m16fdb190e3" y="160.339803"/>
     <use style="stroke:#000000;" x="84.39995" xlink:href="#m16fdb190e3" y="160.44219"/>
     <use style="stroke:#000000;" x="84.672355" xlink:href="#m16fdb190e3" y="160.54364"/>
     <use style="stroke:#000000;" x="84.975027" xlink:href="#m16fdb190e3" y="160.644257"/>
     <use style="stroke:#000000;" x="85.2777" xlink:href="#m16fdb190e3" y="160.74404"/>
     <use style="stroke:#000000;" x="85.580372" xlink:href="#m16fdb190e3" y="160.84299"/>
     <use style="stroke:#000000;" x="85.883044" xlink:href="#m16fdb190e3" y="160.941212"/>
     <use style="stroke:#000000;" x="86.185716" xlink:href="#m16fdb190e3" y="161.038704"/>
     <use style="stroke:#000000;" x="86.458121" xlink:href="#m16fdb190e3" y="161.135675"/>
     <use style="stroke:#000000;" x="86.760794" xlink:href="#m16fdb190e3" y="161.231917"/>
     <use style="stroke:#000000;" x="87.063466" xlink:href="#m16fdb190e3" y="161.327638"/>
     <use style="stroke:#000000;" x="87.366138" xlink:href="#m16fdb190e3" y="161.422839"/>
     <use style="stroke:#000000;" x="87.66881" xlink:href="#m16fdb190e3" y="161.517518"/>
     <use style="stroke:#000000;" x="87.971483" xlink:href="#m16fdb190e3" y="161.611677"/>
     <use style="stroke:#000000;" x="88.243888" xlink:href="#m16fdb190e3" y="161.705524"/>
     <use style="stroke:#000000;" x="88.54656" xlink:href="#m16fdb190e3" y="161.798849"/>
     <use style="stroke:#000000;" x="88.849232" xlink:href="#m16fdb190e3" y="161.891758"/>
     <use style="stroke:#000000;" x="89.303241" xlink:href="#m16fdb190e3" y="162.031955"/>
     <use style="stroke:#000000;" x="89.757249" xlink:href="#m16fdb190e3" y="162.171423"/>
     <use style="stroke:#000000;" x="90.211257" xlink:href="#m16fdb190e3" y="162.310057"/>
     <use style="stroke:#000000;" x="90.665266" xlink:href="#m16fdb190e3" y="162.448067"/>
     <use style="stroke:#000000;" x="91.119274" xlink:href="#m16fdb190e3" y="162.585555"/>
     <use style="stroke:#000000;" x="91.573282" xlink:href="#m16fdb190e3" y="162.722315"/>
     <use style="stroke:#000000;" x="91.997024" xlink:href="#m16fdb190e3" y="162.858658"/>
     <use style="stroke:#000000;" x="92.451032" xlink:href="#m16fdb190e3" y="162.994376"/>
     <use style="stroke:#000000;" x="93.056377" xlink:href="#m16fdb190e3" y="163.129781"/>
     <use style="stroke:#000000;" x="93.359049" xlink:href="#m16fdb190e3" y="163.264666"/>
     <use style="stroke:#000000;" x="93.964393" xlink:href="#m16fdb190e3" y="163.399134"/>
     <use style="stroke:#000000;" x="94.267066" xlink:href="#m16fdb190e3" y="163.53329"/>
     <use style="stroke:#000000;" x="94.569738" xlink:href="#m16fdb190e3" y="163.667029"/>
     <use style="stroke:#000000;" x="95.175082" xlink:href="#m16fdb190e3" y="163.800455"/>
     <use style="stroke:#000000;" x="95.477755" xlink:href="#m16fdb190e3" y="163.933465"/>
     <use style="stroke:#000000;" x="96.083099" xlink:href="#m16fdb190e3" y="164.066266"/>
     <use style="stroke:#000000;" x="96.385771" xlink:href="#m16fdb190e3" y="164.198756"/>
     <use style="stroke:#000000;" x="96.991116" xlink:href="#m16fdb190e3" y="164.331036"/>
     <use style="stroke:#000000;" x="97.293788" xlink:href="#m16fdb190e3" y="164.463005"/>
     <use style="stroke:#000000;" x="97.899133" xlink:href="#m16fdb190e3" y="164.59466"/>
     <use style="stroke:#000000;" x="98.201805" xlink:href="#m16fdb190e3" y="164.726108"/>
     <use style="stroke:#000000;" x="98.807149" xlink:href="#m16fdb190e3" y="164.857347"/>
     <use style="stroke:#000000;" x="99.412494" xlink:href="#m16fdb190e3" y="165.054414"/>
     <use style="stroke:#000000;" x="100.017838" xlink:href="#m16fdb190e3" y="165.250961"/>
     <use style="stroke:#000000;" x="100.925855" xlink:href="#m16fdb190e3" y="165.446986"/>
     <use style="stroke:#000000;" x="101.5312" xlink:href="#m16fdb190e3" y="165.642595"/>
     <use style="stroke:#000000;" x="102.136544" xlink:href="#m16fdb190e3" y="165.837787"/>
     <use style="stroke:#000000;" x="102.741889" xlink:href="#m16fdb190e3" y="166.032459"/>
     <use style="stroke:#000000;" x="103.649905" xlink:href="#m16fdb190e3" y="166.226713"/>
     <use style="stroke:#000000;" x="104.25525" xlink:href="#m16fdb190e3" y="166.420552"/>
     <use style="stroke:#000000;" x="104.860594" xlink:href="#m16fdb190e3" y="166.613973"/>
     <use style="stroke:#000000;" x="105.465939" xlink:href="#m16fdb190e3" y="166.806978"/>
     <use style="stroke:#000000;" x="106.373956" xlink:href="#m16fdb190e3" y="166.999566"/>
     <use style="stroke:#000000;" x="106.9793" xlink:href="#m16fdb190e3" y="167.191738"/>
     <use style="stroke:#000000;" x="107.584645" xlink:href="#m16fdb190e3" y="167.383493"/>
     <use style="stroke:#000000;" x="108.189989" xlink:href="#m16fdb190e3" y="167.574831"/>
     <use style="stroke:#000000;" x="109.098006" xlink:href="#m16fdb190e3" y="167.765753"/>
     <use style="stroke:#000000;" x="109.70335" xlink:href="#m16fdb190e3" y="167.956258"/>
     <use style="stroke:#000000;" x="110.320196" xlink:href="#m16fdb190e3" y="168.146347"/>
     <use style="stroke:#000000;" x="110.99909" xlink:href="#m16fdb190e3" y="168.336019"/>
     <use style="stroke:#000000;" x="112.020306" xlink:href="#m16fdb190e3" y="168.620474"/>
     <use style="stroke:#000000;" x="113.041523" xlink:href="#m16fdb190e3" y="168.903993"/>
     <use style="stroke:#000000;" x="114.062739" xlink:href="#m16fdb190e3" y="169.186469"/>
     <use style="stroke:#000000;" x="115.084258" xlink:href="#m16fdb190e3" y="169.468009"/>
     <use style="stroke:#000000;" x="116.105474" xlink:href="#m16fdb190e3" y="169.748611"/>
     <use style="stroke:#000000;" x="117.12669" xlink:href="#m16fdb190e3" y="170.028171"/>
     <use style="stroke:#000000;" x="118.147906" xlink:href="#m16fdb190e3" y="170.30669"/>
     <use style="stroke:#000000;" x="119.169122" xlink:href="#m16fdb190e3" y="170.584167"/>
     <use style="stroke:#000000;" x="120.190339" xlink:href="#m16fdb190e3" y="170.860602"/>
     <use style="stroke:#000000;" x="121.211555" xlink:href="#m16fdb190e3" y="171.135996"/>
     <use style="stroke:#000000;" x="122.232771" xlink:href="#m16fdb190e3" y="171.410245"/>
     <use style="stroke:#000000;" x="123.25429" xlink:href="#m16fdb190e3" y="171.683555"/>
     <use style="stroke:#000000;" x="124.275506" xlink:href="#m16fdb190e3" y="171.955616"/>
     <use style="stroke:#000000;" x="125.296722" xlink:href="#m16fdb190e3" y="172.22674"/>
     <use style="stroke:#000000;" x="126.317938" xlink:href="#m16fdb190e3" y="172.496613"/>
     <use style="stroke:#000000;" x="127.339155" xlink:href="#m16fdb190e3" y="172.765341"/>
     <use style="stroke:#000000;" x="128.360371" xlink:href="#m16fdb190e3" y="173.033027"/>
     <use style="stroke:#000000;" x="129.381587" xlink:href="#m16fdb190e3" y="173.299464"/>
     <use style="stroke:#000000;" x="130.403106" xlink:href="#m16fdb190e3" y="173.564859"/>
     <use style="stroke:#000000;" x="131.424322" xlink:href="#m16fdb190e3" y="173.828899"/>
     <use style="stroke:#000000;" x="132.445538" xlink:href="#m16fdb190e3" y="174.091899"/>
     <use style="stroke:#000000;" x="133.466754" xlink:href="#m16fdb190e3" y="174.353648"/>
     <use style="stroke:#000000;" x="134.48797" xlink:href="#m16fdb190e3" y="174.614147"/>
     <use style="stroke:#000000;" x="135.509187" xlink:href="#m16fdb190e3" y="174.873501"/>
     <use style="stroke:#000000;" x="136.530403" xlink:href="#m16fdb190e3" y="175.131605"/>
     <use style="stroke:#000000;" x="137.551619" xlink:href="#m16fdb190e3" y="175.388458"/>
     <use style="stroke:#000000;" x="138.573138" xlink:href="#m16fdb190e3" y="175.644166"/>
     <use style="stroke:#000000;" x="139.594354" xlink:href="#m16fdb190e3" y="175.89852"/>
     <use style="stroke:#000000;" x="140.61557" xlink:href="#m16fdb190e3" y="176.151625"/>
     <use style="stroke:#000000;" x="141.636786" xlink:href="#m16fdb190e3" y="176.403479"/>
     <use style="stroke:#000000;" x="142.658003" xlink:href="#m16fdb190e3" y="176.654083"/>
     <use style="stroke:#000000;" x="143.679219" xlink:href="#m16fdb190e3" y="176.903334"/>
     <use style="stroke:#000000;" x="144.700435" xlink:href="#m16fdb190e3" y="177.151438"/>
     <use style="stroke:#000000;" x="145.721954" xlink:href="#m16fdb190e3" y="177.398084"/>
     <use style="stroke:#000000;" x="146.74317" xlink:href="#m16fdb190e3" y="177.643585"/>
     <use style="stroke:#000000;" x="147.764386" xlink:href="#m16fdb190e3" y="177.887732"/>
     <use style="stroke:#000000;" x="148.785602" xlink:href="#m16fdb190e3" y="178.130524"/>
     <use style="stroke:#000000;" x="149.806818" xlink:href="#m16fdb190e3" y="178.372067"/>
     <use style="stroke:#000000;" x="150.828035" xlink:href="#m16fdb190e3" y="178.612255"/>
     <use style="stroke:#000000;" x="151.849251" xlink:href="#m16fdb190e3" y="178.851194"/>
     <use style="stroke:#000000;" x="152.870467" xlink:href="#m16fdb190e3" y="179.088778"/>
     <use style="stroke:#000000;" x="153.891986" xlink:href="#m16fdb190e3" y="179.325009"/>
     <use style="stroke:#000000;" x="154.913202" xlink:href="#m16fdb190e3" y="179.55999"/>
     <use style="stroke:#000000;" x="155.934418" xlink:href="#m16fdb190e3" y="179.793616"/>
     <use style="stroke:#000000;" x="156.955634" xlink:href="#m16fdb190e3" y="180.025889"/>
     <use style="stroke:#000000;" x="157.976851" xlink:href="#m16fdb190e3" y="180.256807"/>
     <use style="stroke:#000000;" x="158.998067" xlink:href="#m16fdb190e3" y="180.486476"/>
     <use style="stroke:#000000;" x="160.019283" xlink:href="#m16fdb190e3" y="180.71479"/>
     <use style="stroke:#000000;" x="161.040802" xlink:href="#m16fdb190e3" y="180.941751"/>
     <use style="stroke:#000000;" x="162.062018" xlink:href="#m16fdb190e3" y="181.167357"/>
     <use style="stroke:#000000;" x="163.083234" xlink:href="#m16fdb190e3" y="181.391609"/>
     <use style="stroke:#000000;" x="164.10445" xlink:href="#m16fdb190e3" y="181.614612"/>
     <use style="stroke:#000000;" x="165.125666" xlink:href="#m16fdb190e3" y="181.83626"/>
     <use style="stroke:#000000;" x="166.146883" xlink:href="#m16fdb190e3" y="182.056555"/>
     <use style="stroke:#000000;" x="167.168099" xlink:href="#m16fdb190e3" y="182.275495"/>
     <use style="stroke:#000000;" x="168.189315" xlink:href="#m16fdb190e3" y="182.493185"/>
     <use style="stroke:#000000;" x="169.210834" xlink:href="#m16fdb190e3" y="182.709522"/>
     <use style="stroke:#000000;" x="170.23205" xlink:href="#m16fdb190e3" y="182.924504"/>
     <use style="stroke:#000000;" x="171.253266" xlink:href="#m16fdb190e3" y="183.138132"/>
     <use style="stroke:#000000;" x="172.274482" xlink:href="#m16fdb190e3" y="183.35051"/>
     <use style="stroke:#000000;" x="173.295699" xlink:href="#m16fdb190e3" y="183.561535"/>
     <use style="stroke:#000000;" x="174.316915" xlink:href="#m16fdb190e3" y="183.771205"/>
     <use style="stroke:#000000;" x="175.338131" xlink:href="#m16fdb190e3" y="183.979625"/>
     <use style="stroke:#000000;" x="176.35965" xlink:href="#m16fdb190e3" y="184.186692"/>
     <use style="stroke:#000000;" x="177.380866" xlink:href="#m16fdb190e3" y="184.392508"/>
     <use style="stroke:#000000;" x="178.402082" xlink:href="#m16fdb190e3" y="184.59697"/>
     <use style="stroke:#000000;" x="179.423298" xlink:href="#m16fdb190e3" y="184.800079"/>
     <use style="stroke:#000000;" x="180.444515" xlink:href="#m16fdb190e3" y="185.001937"/>
     <use style="stroke:#000000;" x="181.465731" xlink:href="#m16fdb190e3" y="185.202545"/>
     <use style="stroke:#000000;" x="182.486947" xlink:href="#m16fdb190e3" y="185.401904"/>
     <use style="stroke:#000000;" x="183.508163" xlink:href="#m16fdb190e3" y="185.599908"/>
     <use style="stroke:#000000;" x="184.529682" xlink:href="#m16fdb190e3" y="185.796663"/>
     <use style="stroke:#000000;" x="185.550898" xlink:href="#m16fdb190e3" y="185.992064"/>
     <use style="stroke:#000000;" x="186.572114" xlink:href="#m16fdb190e3" y="186.186318"/>
     <use style="stroke:#000000;" x="187.59333" xlink:href="#m16fdb190e3" y="186.379219"/>
     <use style="stroke:#000000;" x="188.614547" xlink:href="#m16fdb190e3" y="186.57087"/>
     <use style="stroke:#000000;" x="189.635763" xlink:href="#m16fdb190e3" y="186.761271"/>
     <use style="stroke:#000000;" x="190.656979" xlink:href="#m16fdb190e3" y="186.950422"/>
     <use style="stroke:#000000;" x="191.678195" xlink:href="#m16fdb190e3" y="187.138323"/>
     <use style="stroke:#000000;" x="192.699714" xlink:href="#m16fdb190e3" y="187.325079"/>
     <use style="stroke:#000000;" x="193.72093" xlink:href="#m16fdb190e3" y="187.51048"/>
     <use style="stroke:#000000;" x="194.742146" xlink:href="#m16fdb190e3" y="187.694736"/>
     <use style="stroke:#000000;" x="195.763363" xlink:href="#m16fdb190e3" y="187.877742"/>
     <use style="stroke:#000000;" x="196.784579" xlink:href="#m16fdb190e3" y="188.059497"/>
     <use style="stroke:#000000;" x="197.805795" xlink:href="#m16fdb190e3" y="188.240108"/>
     <use style="stroke:#000000;" x="198.827011" xlink:href="#m16fdb190e3" y="188.419468"/>
     <use style="stroke:#000000;" x="199.84853" xlink:href="#m16fdb190e3" y="188.597682"/>
     <use style="stroke:#000000;" x="200.869746" xlink:href="#m16fdb190e3" y="188.774647"/>
     <use style="stroke:#000000;" x="201.890962" xlink:href="#m16fdb190e3" y="188.950466"/>
     <use style="stroke:#000000;" x="202.912178" xlink:href="#m16fdb190e3" y="189.125035"/>
     <use style="stroke:#000000;" x="203.933395" xlink:href="#m16fdb190e3" y="189.298562"/>
     <use style="stroke:#000000;" x="204.954611" xlink:href="#m16fdb190e3" y="189.470839"/>
     <use style="stroke:#000000;" x="205.975827" xlink:href="#m16fdb190e3" y="189.641867"/>
     <use style="stroke:#000000;" x="206.997043" xlink:href="#m16fdb190e3" y="189.811853"/>
     <use style="stroke:#000000;" x="208.018562" xlink:href="#m16fdb190e3" y="189.980693"/>
     <use style="stroke:#000000;" x="209.039778" xlink:href="#m16fdb190e3" y="190.148388"/>
     <use style="stroke:#000000;" x="210.060994" xlink:href="#m16fdb190e3" y="190.314937"/>
     <use style="stroke:#000000;" x="211.082211" xlink:href="#m16fdb190e3" y="190.48034"/>
     <use style="stroke:#000000;" x="212.103427" xlink:href="#m16fdb190e3" y="190.644597"/>
     <use style="stroke:#000000;" x="213.124643" xlink:href="#m16fdb190e3" y="190.807708"/>
     <use style="stroke:#000000;" x="214.145859" xlink:href="#m16fdb190e3" y="190.969778"/>
     <use style="stroke:#000000;" x="215.167378" xlink:href="#m16fdb190e3" y="191.130703"/>
     <use style="stroke:#000000;" x="216.188594" xlink:href="#m16fdb190e3" y="191.290585"/>
     <use style="stroke:#000000;" x="217.20981" xlink:href="#m16fdb190e3" y="191.449322"/>
     <use style="stroke:#000000;" x="218.231026" xlink:href="#m16fdb190e3" y="191.607018"/>
     <use style="stroke:#000000;" x="219.252243" xlink:href="#m16fdb190e3" y="191.763567"/>
     <use style="stroke:#000000;" x="220.273459" xlink:href="#m16fdb190e3" y="191.919075"/>
     <use style="stroke:#000000;" x="221.294675" xlink:href="#m16fdb190e3" y="192.073542"/>
     <use style="stroke:#000000;" x="222.315891" xlink:href="#m16fdb190e3" y="192.226862"/>
     <use style="stroke:#000000;" x="223.33741" xlink:href="#m16fdb190e3" y="192.379246"/>
     <use style="stroke:#000000;" x="224.358626" xlink:href="#m16fdb190e3" y="192.530483"/>
     <use style="stroke:#000000;" x="225.379842" xlink:href="#m16fdb190e3" y="192.680679"/>
     <use style="stroke:#000000;" x="226.401059" xlink:href="#m16fdb190e3" y="192.829833"/>
     <use style="stroke:#000000;" x="227.422275" xlink:href="#m16fdb190e3" y="192.977946"/>
     <use style="stroke:#000000;" x="228.443491" xlink:href="#m16fdb190e3" y="193.125017"/>
     <use style="stroke:#000000;" x="229.464707" xlink:href="#m16fdb190e3" y="193.271151"/>
     <use style="stroke:#000000;" x="230.486226" xlink:href="#m16fdb190e3" y="193.416139"/>
     <use style="stroke:#000000;" x="231.507442" xlink:href="#m16fdb190e3" y="193.56019"/>
     <use style="stroke:#000000;" x="232.528658" xlink:href="#m16fdb190e3" y="193.703199"/>
     <use style="stroke:#000000;" x="233.549874" xlink:href="#m16fdb190e3" y="193.845271"/>
     <use style="stroke:#000000;" x="234.571091" xlink:href="#m16fdb190e3" y="193.986301"/>
     <use style="stroke:#000000;" x="235.592307" xlink:href="#m16fdb190e3" y="194.126289"/>
     <use style="stroke:#000000;" x="236.613523" xlink:href="#m16fdb190e3" y="194.26534"/>
     <use style="stroke:#000000;" x="237.634739" xlink:href="#m16fdb190e3" y="194.40335"/>
     <use style="stroke:#000000;" x="238.656258" xlink:href="#m16fdb190e3" y="194.540422"/>
     <use style="stroke:#000000;" x="239.677474" xlink:href="#m16fdb190e3" y="194.676556"/>
     <use style="stroke:#000000;" x="240.69869" xlink:href="#m16fdb190e3" y="194.811649"/>
     <use style="stroke:#000000;" x="241.719907" xlink:href="#m16fdb190e3" y="194.945805"/>
     <use style="stroke:#000000;" x="242.741123" xlink:href="#m16fdb190e3" y="195.078919"/>
     <use style="stroke:#000000;" x="243.762339" xlink:href="#m16fdb190e3" y="195.2112"/>
     <use style="stroke:#000000;" x="244.783555" xlink:href="#m16fdb190e3" y="195.342439"/>
     <use style="stroke:#000000;" x="245.805074" xlink:href="#m16fdb190e3" y="195.472741"/>
     <use style="stroke:#000000;" x="246.82629" xlink:href="#m16fdb190e3" y="195.602105"/>
     <use style="stroke:#000000;" x="247.847506" xlink:href="#m16fdb190e3" y="195.730532"/>
     <use style="stroke:#000000;" x="248.868723" xlink:href="#m16fdb190e3" y="195.858021"/>
     <use style="stroke:#000000;" x="249.889939" xlink:href="#m16fdb190e3" y="195.984573"/>
     <use style="stroke:#000000;" x="250.911155" xlink:href="#m16fdb190e3" y="196.110188"/>
     <use style="stroke:#000000;" x="251.932371" xlink:href="#m16fdb190e3" y="196.234865"/>
     <use style="stroke:#000000;" x="252.953587" xlink:href="#m16fdb190e3" y="196.358605"/>
     <use style="stroke:#000000;" x="253.975106" xlink:href="#m16fdb190e3" y="196.481407"/>
     <use style="stroke:#000000;" x="254.996322" xlink:href="#m16fdb190e3" y="196.603377"/>
     <use style="stroke:#000000;" x="256.017538" xlink:href="#m16fdb190e3" y="196.724408"/>
     <use style="stroke:#000000;" x="257.038755" xlink:href="#m16fdb190e3" y="196.844503"/>
     <use style="stroke:#000000;" x="258.059971" xlink:href="#m16fdb190e3" y="196.963659"/>
     <use style="stroke:#000000;" x="259.081187" xlink:href="#m16fdb190e3" y="197.081983"/>
     <use style="stroke:#000000;" x="260.102403" xlink:href="#m16fdb190e3" y="197.199369"/>
     <use style="stroke:#000000;" x="261.123619" xlink:href="#m16fdb190e3" y="197.315818"/>
     <use style="stroke:#000000;" x="262.145138" xlink:href="#m16fdb190e3" y="197.431433"/>
     <use style="stroke:#000000;" x="263.166354" xlink:href="#m16fdb190e3" y="197.546111"/>
     <use style="stroke:#000000;" x="264.187571" xlink:href="#m16fdb190e3" y="197.659956"/>
     <use style="stroke:#000000;" x="265.208787" xlink:href="#m16fdb190e3" y="197.772864"/>
     <use style="stroke:#000000;" x="266.230003" xlink:href="#m16fdb190e3" y="197.884938"/>
     <use style="stroke:#000000;" x="267.251219" xlink:href="#m16fdb190e3" y="197.996074"/>
     <use style="stroke:#000000;" x="268.272435" xlink:href="#m16fdb190e3" y="198.106378"/>
     <use style="stroke:#000000;" x="269.293954" xlink:href="#m16fdb190e3" y="198.215848"/>
     <use style="stroke:#000000;" x="270.31517" xlink:href="#m16fdb190e3" y="198.324381"/>
     <use style="stroke:#000000;" x="271.336386" xlink:href="#m16fdb190e3" y="198.43208"/>
     <use style="stroke:#000000;" x="272.357603" xlink:href="#m16fdb190e3" y="198.538946"/>
     <use style="stroke:#000000;" x="273.378819" xlink:href="#m16fdb190e3" y="198.644875"/>
     <use style="stroke:#000000;" x="274.400035" xlink:href="#m16fdb190e3" y="198.74997"/>
     <use style="stroke:#000000;" x="275.421251" xlink:href="#m16fdb190e3" y="198.854233"/>
     <use style="stroke:#000000;" x="276.954891" xlink:href="#m16fdb190e3" y="199.00922"/>
     <use style="stroke:#000000;" x="278.488229" xlink:href="#m16fdb190e3" y="199.162332"/>
     <use style="stroke:#000000;" x="280.021567" xlink:href="#m16fdb190e3" y="199.313466"/>
     <use style="stroke:#000000;" x="281.555207" xlink:href="#m16fdb190e3" y="199.462724"/>
     <use style="stroke:#000000;" x="283.088545" xlink:href="#m16fdb190e3" y="199.610212"/>
     <use style="stroke:#000000;" x="284.621882" xlink:href="#m16fdb190e3" y="199.755721"/>
     <use style="stroke:#000000;" x="286.155523" xlink:href="#m16fdb190e3" y="199.899355"/>
     <use style="stroke:#000000;" x="287.68886" xlink:href="#m16fdb190e3" y="200.041218"/>
     <use style="stroke:#000000;" x="289.222198" xlink:href="#m16fdb190e3" y="200.181311"/>
     <use style="stroke:#000000;" x="290.755838" xlink:href="#m16fdb190e3" y="200.319529"/>
     <use style="stroke:#000000;" x="292.289176" xlink:href="#m16fdb190e3" y="200.455872"/>
     <use style="stroke:#000000;" x="293.822513" xlink:href="#m16fdb190e3" y="200.590548"/>
     <use style="stroke:#000000;" x="295.356154" xlink:href="#m16fdb190e3" y="200.72335"/>
     <use style="stroke:#000000;" x="296.889491" xlink:href="#m16fdb190e3" y="200.85438"/>
     <use style="stroke:#000000;" x="298.423132" xlink:href="#m16fdb190e3" y="200.983745"/>
     <use style="stroke:#000000;" x="299.956469" xlink:href="#m16fdb190e3" y="201.111234"/>
     <use style="stroke:#000000;" x="301.489807" xlink:href="#m16fdb190e3" y="201.237057"/>
     <use style="stroke:#000000;" x="303.023447" xlink:href="#m16fdb190e3" y="201.361214"/>
     <use style="stroke:#000000;" x="304.556785" xlink:href="#m16fdb190e3" y="201.483599"/>
     <use style="stroke:#000000;" x="306.090122" xlink:href="#m16fdb190e3" y="201.604319"/>
     <use style="stroke:#000000;" x="307.623763" xlink:href="#m16fdb190e3" y="201.723371"/>
     <use style="stroke:#000000;" x="309.1571" xlink:href="#m16fdb190e3" y="201.840757"/>
     <use style="stroke:#000000;" x="310.690438" xlink:href="#m16fdb190e3" y="201.956477"/>
     <use style="stroke:#000000;" x="312.224078" xlink:href="#m16fdb190e3" y="202.07053"/>
     <use style="stroke:#000000;" x="313.757416" xlink:href="#m16fdb190e3" y="202.183021"/>
     <use style="stroke:#000000;" x="315.290754" xlink:href="#m16fdb190e3" y="202.293845"/>
     <use style="stroke:#000000;" x="316.824394" xlink:href="#m16fdb190e3" y="202.403107"/>
     <use style="stroke:#000000;" x="318.357732" xlink:href="#m16fdb190e3" y="202.510806"/>
     <use style="stroke:#000000;" x="319.891069" xlink:href="#m16fdb190e3" y="202.616943"/>
     <use style="stroke:#000000;" x="321.424709" xlink:href="#m16fdb190e3" y="202.721518"/>
     <use style="stroke:#000000;" x="322.958047" xlink:href="#m16fdb190e3" y="202.824531"/>
     <use style="stroke:#000000;" x="324.491385" xlink:href="#m16fdb190e3" y="202.926085"/>
     <use style="stroke:#000000;" x="326.025025" xlink:href="#m16fdb190e3" y="203.026181"/>
     <use style="stroke:#000000;" x="327.558363" xlink:href="#m16fdb190e3" y="203.124714"/>
     <use style="stroke:#000000;" x="329.0917" xlink:href="#m16fdb190e3" y="203.221789"/>
     <use style="stroke:#000000;" x="330.625341" xlink:href="#m16fdb190e3" y="203.317407"/>
     <use style="stroke:#000000;" x="332.158678" xlink:href="#m16fdb190e3" y="203.41167"/>
     <use style="stroke:#000000;" x="333.692016" xlink:href="#m16fdb190e3" y="203.504474"/>
     <use style="stroke:#000000;" x="335.225656" xlink:href="#m16fdb190e3" y="203.595821"/>
     <use style="stroke:#000000;" x="336.758994" xlink:href="#m16fdb190e3" y="203.685814"/>
     <use style="stroke:#000000;" x="338.292331" xlink:href="#m16fdb190e3" y="203.774556"/>
     <use style="stroke:#000000;" x="339.825972" xlink:href="#m16fdb190e3" y="203.861841"/>
     <use style="stroke:#000000;" x="341.359309" xlink:href="#m16fdb190e3" y="203.947771"/>
     <use style="stroke:#000000;" x="342.89295" xlink:href="#m16fdb190e3" y="204.032452"/>
     <use style="stroke:#000000;" x="344.426287" xlink:href="#m16fdb190e3" y="204.115882"/>
     <use style="stroke:#000000;" x="345.959625" xlink:href="#m16fdb190e3" y="204.197959"/>
     <use style="stroke:#000000;" x="347.493265" xlink:href="#m16fdb190e3" y="204.278786"/>
     <use style="stroke:#000000;" x="349.026603" xlink:href="#m16fdb190e3" y="204.358362"/>
     <use style="stroke:#000000;" x="350.55994" xlink:href="#m16fdb190e3" y="204.436689"/>
     <use style="stroke:#000000;" x="352.093581" xlink:href="#m16fdb190e3" y="204.51387"/>
     <use style="stroke:#000000;" x="353.626918" xlink:href="#m16fdb190e3" y="204.589802"/>
     <use style="stroke:#000000;" x="355.160256" xlink:href="#m16fdb190e3" y="204.664587"/>
     <use style="stroke:#000000;" x="356.693896" xlink:href="#m16fdb190e3" y="204.738227"/>
     <use style="stroke:#000000;" x="358.227234" xlink:href="#m16fdb190e3" y="204.810721"/>
     <use style="stroke:#000000;" x="359.760572" xlink:href="#m16fdb190e3" y="204.882069"/>
     <use style="stroke:#000000;" x="361.294212" xlink:href="#m16fdb190e3" y="204.952272"/>
     <use style="stroke:#000000;" x="362.827549" xlink:href="#m16fdb190e3" y="205.021537"/>
     <use style="stroke:#000000;" x="364.360887" xlink:href="#m16fdb190e3" y="205.089552"/>
     <use style="stroke:#000000;" x="365.894225" xlink:href="#m16fdb190e3" y="205.15663"/>
    </g>
   </g>
   <g id="line2d_18">
    <path clip-path="url(#pc7140fb858)" d="M 64.644532 110.477514 
L 64.983525 108.679464 
L 65.271064 108.108459 
L 65.482934 108.112741 
L 65.725072 108.449816 
L 66.118546 109.53991 
L 66.784425 112.266015 
L 69.56901 124.511708 
L 70.749432 128.346462 
L 71.899586 131.314036 
L 73.049741 133.681763 
L 74.230162 135.629197 
L 75.531653 137.348162 
L 76.893678 138.786885 
L 78.467574 140.115496 
L 80.223073 141.294871 
L 82.311512 142.418794 
L 84.975027 143.577787 
L 88.54656 144.873227 
L 95.477755 147.106397 
L 106.9793 150.865428 
L 120.190339 155.45249 
L 138.573138 161.802178 
L 149.806818 165.445816 
L 161.040802 168.845837 
L 172.274482 171.997179 
L 183.508163 174.916938 
L 195.763363 177.866274 
L 209.039778 180.817829 
L 222.315891 183.543819 
L 236.613523 186.246986 
L 250.911155 188.717063 
L 265.208787 190.951947 
L 278.488229 192.81286 
L 292.289176 194.526517 
L 306.090122 196.021748 
L 321.424709 197.443082 
L 336.758994 198.638777 
L 353.626918 199.733068 
L 364.360887 200.326692 
L 365.894225 200.149959 
L 365.894225 200.149959 
" style="fill:none;stroke:#0000ff;stroke-dasharray:5.55,2.4;stroke-dashoffset:0;stroke-width:1.5;"/>
   </g>
   <g id="line2d_19">
    <path clip-path="url(#pc7140fb858)" d="M 64.644532 136.50882 
L 65.038006 134.631924 
L 65.331598 134.075755 
L 65.543469 134.006635 
L 65.785607 134.190622 
L 66.058012 134.647495 
L 66.572554 135.984424 
L 67.752976 139.936808 
L 69.205803 144.531036 
L 70.355958 147.473348 
L 71.506112 149.835909 
L 72.686534 151.779116 
L 73.957757 153.455511 
L 75.319783 154.890918 
L 76.893678 156.213282 
L 78.649177 157.380598 
L 80.525745 158.373229 
L 82.886589 159.366418 
L 85.883044 160.356346 
L 89.757249 161.36945 
L 95.477755 162.596733 
L 131.424322 169.855472 
L 183.508163 181.01134 
L 201.890962 184.643519 
L 219.252243 187.851737 
L 234.571091 190.46615 
L 248.868723 192.693209 
L 263.166354 194.696567 
L 276.954891 196.414526 
L 292.289176 198.090704 
L 307.623763 199.543941 
L 324.491385 200.918542 
L 342.89295 202.191865 
L 362.827549 203.349699 
L 364.360887 203.431597 
L 365.894225 203.737897 
L 365.894225 203.737897 
" style="fill:none;stroke:#0000ff;stroke-dasharray:5.55,2.4;stroke-dashoffset:0;stroke-width:1.5;"/>
   </g>
   <g id="line2d_20"/>
   <g id="line2d_21"/>
   <g id="line2d_22"/>
   <g id="line2d_23"/>
   <g id="line2d_24"/>
   <g id="line2d_25"/>
   <g id="patch_3">
    <path d="M 46.965625 239.758125 
L 46.965625 22.318125 
" style="fill:none;stroke:#000000;stroke-linecap:square;stroke-linejoin:miter;stroke-width:0.8;"/>
   </g>
   <g id="patch_4">
    <path d="M 381.765625 239.758125 
L 381.765625 22.318125 
" style="fill:none;stroke:#000000;stroke-linecap:square;stroke-linejoin:miter;stroke-width:0.8;"/>
   </g>
   <g id="patch_5">
    <path d="M 46.965625 239.758125 
L 381.765625 239.758125 
" style="fill:none;stroke:#000000;stroke-linecap:square;stroke-linejoin:miter;stroke-width:0.8;"/>
   </g>
   <g id="patch_6">
    <path d="M 46.965625 22.318125 
L 381.765625 22.318125 
" style="fill:none;stroke:#000000;stroke-linecap:square;stroke-linejoin:miter;stroke-width:0.8;"/>
   </g>
   <g id="text_17">
    <!-- Experiment_24 -->
    <defs>
     <path d="M 9.8125 72.90625 
L 55.90625 72.90625 
L 55.90625 64.59375 
L 19.671875 64.59375 
L 19.671875 43.015625 
L 54.390625 43.015625 
L 54.390625 34.71875 
L 19.671875 34.71875 
L 19.671875 8.296875 
L 56.78125 8.296875 
L 56.78125 0 
L 9.8125 0 
z
" id="DejaVuSans-69"/>
     <path d="M 54.890625 54.6875 
L 35.109375 28.078125 
L 55.90625 0 
L 45.3125 0 
L 29.390625 21.484375 
L 13.484375 0 
L 2.875 0 
L 24.125 28.609375 
L 4.6875 54.6875 
L 15.28125 54.6875 
L 29.78125 35.203125 
L 44.28125 54.6875 
z
" id="DejaVuSans-120"/>
     <path d="M 41.109375 46.296875 
Q 39.59375 47.171875 37.8125 47.578125 
Q 36.03125 48 33.890625 48 
Q 26.265625 48 22.1875 43.046875 
Q 18.109375 38.09375 18.109375 28.8125 
L 18.109375 0 
L 9.078125 0 
L 9.078125 54.6875 
L 18.109375 54.6875 
L 18.109375 46.1875 
Q 20.953125 51.171875 25.484375 53.578125 
Q 30.03125 56 36.53125 56 
Q 37.453125 56 38.578125 55.875 
Q 39.703125 55.765625 41.0625 55.515625 
z
" id="DejaVuSans-114"/>
     <path d="M 54.890625 33.015625 
L 54.890625 0 
L 45.90625 0 
L 45.90625 32.71875 
Q 45.90625 40.484375 42.875 44.328125 
Q 39.84375 48.1875 33.796875 48.1875 
Q 26.515625 48.1875 22.3125 43.546875 
Q 18.109375 38.921875 18.109375 30.90625 
L 18.109375 0 
L 9.078125 0 
L 9.078125 54.6875 
L 18.109375 54.6875 
L 18.109375 46.1875 
Q 21.34375 51.125 25.703125 53.5625 
Q 30.078125 56 35.796875 56 
Q 45.21875 56 50.046875 50.171875 
Q 54.890625 44.34375 54.890625 33.015625 
z
" id="DejaVuSans-110"/>
     <path d="M 18.3125 70.21875 
L 18.3125 54.6875 
L 36.8125 54.6875 
L 36.8125 47.703125 
L 18.3125 47.703125 
L 18.3125 18.015625 
Q 18.3125 11.328125 20.140625 9.421875 
Q 21.96875 7.515625 27.59375 7.515625 
L 36.8125 7.515625 
L 36.8125 0 
L 27.59375 0 
Q 17.1875 0 13.234375 3.875 
Q 9.28125 7.765625 9.28125 18.015625 
L 9.28125 47.703125 
L 2.6875 47.703125 
L 2.6875 54.6875 
L 9.28125 54.6875 
L 9.28125 70.21875 
z
" id="DejaVuSans-116"/>
     <path d="M 50.984375 -16.609375 
L 50.984375 -23.578125 
L -0.984375 -23.578125 
L -0.984375 -16.609375 
z
" id="DejaVuSans-95"/>
    </defs>
    <g transform="translate(169.062813 16.318125)scale(0.12 -0.12)">
     <use xlink:href="#DejaVuSans-69"/>
     <use x="63.183594" xlink:href="#DejaVuSans-120"/>
     <use x="122.363281" xlink:href="#DejaVuSans-112"/>
     <use x="185.839844" xlink:href="#DejaVuSans-101"/>
     <use x="247.363281" xlink:href="#DejaVuSans-114"/>
     <use x="288.476562" xlink:href="#DejaVuSans-105"/>
     <use x="316.259766" xlink:href="#DejaVuSans-109"/>
     <use x="413.671875" xlink:href="#DejaVuSans-101"/>
     <use x="475.195312" xlink:href="#DejaVuSans-110"/>
     <use x="538.574219" xlink:href="#DejaVuSans-116"/>
     <use x="577.783203" xlink:href="#DejaVuSans-95"/>
     <use x="627.783203" xlink:href="#DejaVuSans-50"/>
     <use x="691.40625" xlink:href="#DejaVuSans-52"/>
    </g>
   </g>
   <g id="legend_1">
    <g id="patch_7">
     <path d="M 118.645313 103.730625 
L 374.765625 103.730625 
Q 376.765625 103.730625 376.765625 101.730625 
L 376.765625 29.318125 
Q 376.765625 27.318125 374.765625 27.318125 
L 118.645313 27.318125 
Q 116.645313 27.318125 116.645313 29.318125 
L 116.645313 101.730625 
Q 116.645313 103.730625 118.645313 103.730625 
z
" style="fill:#ffffff;opacity:0.8;stroke:#cccccc;stroke-linejoin:miter;"/>
    </g>
    <g id="line2d_26">
     <path d="M 120.645313 35.416562 
L 140.645313 35.416562 
" style="fill:none;stroke:#0000ff;stroke-linecap:square;stroke-width:1.5;"/>
    </g>
    <g id="line2d_27"/>
    <g id="text_18">
     <!-- MSI -->
     <defs>
      <path d="M 9.8125 72.90625 
L 24.515625 72.90625 
L 43.109375 23.296875 
L 61.8125 72.90625 
L 76.515625 72.90625 
L 76.515625 0 
L 66.890625 0 
L 66.890625 64.015625 
L 48.09375 14.015625 
L 38.1875 14.015625 
L 19.390625 64.015625 
L 19.390625 0 
L 9.8125 0 
z
" id="DejaVuSans-77"/>
      <path d="M 53.515625 70.515625 
L 53.515625 60.890625 
Q 47.90625 63.578125 42.921875 64.890625 
Q 37.9375 66.21875 33.296875 66.21875 
Q 25.25 66.21875 20.875 63.09375 
Q 16.5 59.96875 16.5 54.203125 
Q 16.5 49.359375 19.40625 46.890625 
Q 22.3125 44.4375 30.421875 42.921875 
L 36.375 41.703125 
Q 47.40625 39.59375 52.65625 34.296875 
Q 57.90625 29 57.90625 20.125 
Q 57.90625 9.515625 50.796875 4.046875 
Q 43.703125 -1.421875 29.984375 -1.421875 
Q 24.8125 -1.421875 18.96875 -0.25 
Q 13.140625 0.921875 6.890625 3.21875 
L 6.890625 13.375 
Q 12.890625 10.015625 18.65625 8.296875 
Q 24.421875 6.59375 29.984375 6.59375 
Q 38.421875 6.59375 43.015625 9.90625 
Q 47.609375 13.234375 47.609375 19.390625 
Q 47.609375 24.75 44.3125 27.78125 
Q 41.015625 30.8125 33.5 32.328125 
L 27.484375 33.5 
Q 16.453125 35.6875 11.515625 40.375 
Q 6.59375 45.0625 6.59375 53.421875 
Q 6.59375 63.09375 13.40625 68.65625 
Q 20.21875 74.21875 32.171875 74.21875 
Q 37.3125 74.21875 42.625 73.28125 
Q 47.953125 72.359375 53.515625 70.515625 
z
" id="DejaVuSans-83"/>
      <path d="M 9.8125 72.90625 
L 19.671875 72.90625 
L 19.671875 0 
L 9.8125 0 
z
" id="DejaVuSans-73"/>
     </defs>
     <g transform="translate(148.645313 38.916562)scale(0.1 -0.1)">
      <use xlink:href="#DejaVuSans-77"/>
      <use x="86.279297" xlink:href="#DejaVuSans-83"/>
      <use x="149.755859" xlink:href="#DejaVuSans-73"/>
     </g>
    </g>
    <g id="line2d_28">
     <path d="M 120.645313 50.09625 
L 140.645313 50.09625 
" style="fill:none;stroke:#ff0000;stroke-linecap:square;stroke-width:1.5;"/>
    </g>
    <g id="line2d_29"/>
    <g id="text_19">
     <!-- $\it{A priori}$ model -->
     <defs>
      <path d="M 36.8125 72.90625 
L 48 72.90625 
L 61.53125 0 
L 51.21875 0 
L 48.1875 18.703125 
L 15.375 18.703125 
L 5.078125 0 
L -5.328125 0 
z
M 40.375 63.1875 
L 19.921875 26.90625 
L 46.6875 26.90625 
z
" id="DejaVuSans-Oblique-65"/>
      <path d="M 49.609375 33.6875 
Q 49.609375 40.875 46.484375 44.671875 
Q 43.359375 48.484375 37.5 48.484375 
Q 33.5 48.484375 29.859375 46.4375 
Q 26.21875 44.390625 23.390625 40.484375 
Q 20.609375 36.625 18.9375 31.15625 
Q 17.28125 25.6875 17.28125 20.3125 
Q 17.28125 13.484375 20.40625 9.796875 
Q 23.53125 6.109375 29.296875 6.109375 
Q 33.546875 6.109375 37.1875 8.109375 
Q 40.828125 10.109375 43.40625 13.921875 
Q 46.1875 17.921875 47.890625 23.34375 
Q 49.609375 28.765625 49.609375 33.6875 
z
M 21.78125 46.390625 
Q 25.390625 51.125 30.296875 53.5625 
Q 35.203125 56 41.21875 56 
Q 49.609375 56 54.25 50.5 
Q 58.890625 45.015625 58.890625 35.109375 
Q 58.890625 27 56 19.65625 
Q 53.125 12.3125 47.703125 6.5 
Q 44.09375 2.640625 39.546875 0.609375 
Q 35.015625 -1.421875 29.984375 -1.421875 
Q 24.171875 -1.421875 20.21875 1 
Q 16.265625 3.421875 14.3125 8.203125 
L 8.6875 -20.796875 
L -0.296875 -20.796875 
L 14.40625 54.6875 
L 23.390625 54.6875 
z
" id="DejaVuSans-Oblique-112"/>
      <path d="M 44.578125 46.390625 
Q 43.21875 47.125 41.453125 47.515625 
Q 39.703125 47.90625 37.703125 47.90625 
Q 30.515625 47.90625 25.140625 42.453125 
Q 19.78125 37.015625 18.015625 27.875 
L 12.5 0 
L 3.515625 0 
L 14.203125 54.6875 
L 23.1875 54.6875 
L 21.484375 46.1875 
Q 25.046875 50.921875 30 53.453125 
Q 34.96875 56 40.578125 56 
Q 42.046875 56 43.453125 55.828125 
Q 44.875 55.671875 46.296875 55.28125 
z
" id="DejaVuSans-Oblique-114"/>
      <path d="M 18.3125 75.984375 
L 27.296875 75.984375 
L 25.09375 64.59375 
L 16.109375 64.59375 
z
M 14.203125 54.6875 
L 23.1875 54.6875 
L 12.5 0 
L 3.515625 0 
z
" id="DejaVuSans-Oblique-105"/>
      <path d="M 25.390625 -1.421875 
Q 15.765625 -1.421875 10.171875 4.515625 
Q 4.59375 10.453125 4.59375 20.703125 
Q 4.59375 26.65625 6.515625 32.828125 
Q 8.453125 39.015625 11.53125 43.21875 
Q 16.359375 49.75 22.3125 52.875 
Q 28.265625 56 35.796875 56 
Q 45.125 56 50.859375 50.1875 
Q 56.59375 44.390625 56.59375 35.015625 
Q 56.59375 28.515625 54.6875 22.0625 
Q 52.78125 15.625 49.703125 11.375 
Q 44.921875 4.828125 38.96875 1.703125 
Q 33.015625 -1.421875 25.390625 -1.421875 
z
M 13.921875 21 
Q 13.921875 13.578125 17.015625 9.890625 
Q 20.125 6.203125 26.421875 6.203125 
Q 35.453125 6.203125 41.375 14.078125 
Q 47.3125 21.96875 47.3125 34.078125 
Q 47.3125 41.15625 44.140625 44.765625 
Q 40.96875 48.390625 34.8125 48.390625 
Q 29.734375 48.390625 25.78125 46.015625 
Q 21.828125 43.65625 18.703125 38.8125 
Q 16.40625 35.203125 15.15625 30.5625 
Q 13.921875 25.921875 13.921875 21 
z
" id="DejaVuSans-Oblique-111"/>
      <path d="M 30.609375 48.390625 
Q 23.390625 48.390625 19.1875 42.75 
Q 14.984375 37.109375 14.984375 27.296875 
Q 14.984375 17.484375 19.15625 11.84375 
Q 23.34375 6.203125 30.609375 6.203125 
Q 37.796875 6.203125 41.984375 11.859375 
Q 46.1875 17.53125 46.1875 27.296875 
Q 46.1875 37.015625 41.984375 42.703125 
Q 37.796875 48.390625 30.609375 48.390625 
z
M 30.609375 56 
Q 42.328125 56 49.015625 48.375 
Q 55.71875 40.765625 55.71875 27.296875 
Q 55.71875 13.875 49.015625 6.21875 
Q 42.328125 -1.421875 30.609375 -1.421875 
Q 18.84375 -1.421875 12.171875 6.21875 
Q 5.515625 13.875 5.515625 27.296875 
Q 5.515625 40.765625 12.171875 48.375 
Q 18.84375 56 30.609375 56 
z
" id="DejaVuSans-111"/>
      <path d="M 45.40625 46.390625 
L 45.40625 75.984375 
L 54.390625 75.984375 
L 54.390625 0 
L 45.40625 0 
L 45.40625 8.203125 
Q 42.578125 3.328125 38.25 0.953125 
Q 33.9375 -1.421875 27.875 -1.421875 
Q 17.96875 -1.421875 11.734375 6.484375 
Q 5.515625 14.40625 5.515625 27.296875 
Q 5.515625 40.1875 11.734375 48.09375 
Q 17.96875 56 27.875 56 
Q 33.9375 56 38.25 53.625 
Q 42.578125 51.265625 45.40625 46.390625 
z
M 14.796875 27.296875 
Q 14.796875 17.390625 18.875 11.75 
Q 22.953125 6.109375 30.078125 6.109375 
Q 37.203125 6.109375 41.296875 11.75 
Q 45.40625 17.390625 45.40625 27.296875 
Q 45.40625 37.203125 41.296875 42.84375 
Q 37.203125 48.484375 30.078125 48.484375 
Q 22.953125 48.484375 18.875 42.84375 
Q 14.796875 37.203125 14.796875 27.296875 
z
" id="DejaVuSans-100"/>
      <path d="M 9.421875 75.984375 
L 18.40625 75.984375 
L 18.40625 0 
L 9.421875 0 
z
" id="DejaVuSans-108"/>
     </defs>
     <g transform="translate(148.645313 53.59625)scale(0.1 -0.1)">
      <use transform="translate(0 0.015625)" xlink:href="#DejaVuSans-Oblique-65"/>
      <use transform="translate(68.408203 0.015625)" xlink:href="#DejaVuSans-Oblique-112"/>
      <use transform="translate(131.884766 0.015625)" xlink:href="#DejaVuSans-Oblique-114"/>
      <use transform="translate(172.998047 0.015625)" xlink:href="#DejaVuSans-Oblique-105"/>
      <use transform="translate(200.78125 0.015625)" xlink:href="#DejaVuSans-Oblique-111"/>
      <use transform="translate(261.962891 0.015625)" xlink:href="#DejaVuSans-Oblique-114"/>
      <use transform="translate(303.076172 0.015625)" xlink:href="#DejaVuSans-Oblique-105"/>
      <use transform="translate(330.859375 0.015625)" xlink:href="#DejaVuSans-32"/>
      <use transform="translate(362.646484 0.015625)" xlink:href="#DejaVuSans-109"/>
      <use transform="translate(460.058594 0.015625)" xlink:href="#DejaVuSans-111"/>
      <use transform="translate(521.240234 0.015625)" xlink:href="#DejaVuSans-100"/>
      <use transform="translate(584.716797 0.015625)" xlink:href="#DejaVuSans-101"/>
      <use transform="translate(646.240234 0.015625)" xlink:href="#DejaVuSans-108"/>
     </g>
    </g>
    <g id="line2d_30"/>
    <g id="line2d_31">
     <g>
      <use style="stroke:#000000;" x="130.645313" xlink:href="#m16fdb190e3" y="64.794688"/>
     </g>
    </g>
    <g id="text_20">
     <!-- Experimental Data -->
     <defs>
      <path d="M 34.28125 27.484375 
Q 23.390625 27.484375 19.1875 25 
Q 14.984375 22.515625 14.984375 16.5 
Q 14.984375 11.71875 18.140625 8.90625 
Q 21.296875 6.109375 26.703125 6.109375 
Q 34.1875 6.109375 38.703125 11.40625 
Q 43.21875 16.703125 43.21875 25.484375 
L 43.21875 27.484375 
z
M 52.203125 31.203125 
L 52.203125 0 
L 43.21875 0 
L 43.21875 8.296875 
Q 40.140625 3.328125 35.546875 0.953125 
Q 30.953125 -1.421875 24.3125 -1.421875 
Q 15.921875 -1.421875 10.953125 3.296875 
Q 6 8.015625 6 15.921875 
Q 6 25.140625 12.171875 29.828125 
Q 18.359375 34.515625 30.609375 34.515625 
L 43.21875 34.515625 
L 43.21875 35.40625 
Q 43.21875 41.609375 39.140625 45 
Q 35.0625 48.390625 27.6875 48.390625 
Q 23 48.390625 18.546875 47.265625 
Q 14.109375 46.140625 10.015625 43.890625 
L 10.015625 52.203125 
Q 14.9375 54.109375 19.578125 55.046875 
Q 24.21875 56 28.609375 56 
Q 40.484375 56 46.34375 49.84375 
Q 52.203125 43.703125 52.203125 31.203125 
z
" id="DejaVuSans-97"/>
      <path d="M 19.671875 64.796875 
L 19.671875 8.109375 
L 31.59375 8.109375 
Q 46.6875 8.109375 53.6875 14.9375 
Q 60.6875 21.78125 60.6875 36.53125 
Q 60.6875 51.171875 53.6875 57.984375 
Q 46.6875 64.796875 31.59375 64.796875 
z
M 9.8125 72.90625 
L 30.078125 72.90625 
Q 51.265625 72.90625 61.171875 64.09375 
Q 71.09375 55.28125 71.09375 36.53125 
Q 71.09375 17.671875 61.125 8.828125 
Q 51.171875 0 30.078125 0 
L 9.8125 0 
z
" id="DejaVuSans-68"/>
     </defs>
     <g transform="translate(148.645313 68.294688)scale(0.1 -0.1)">
      <use xlink:href="#DejaVuSans-69"/>
      <use x="63.183594" xlink:href="#DejaVuSans-120"/>
      <use x="122.363281" xlink:href="#DejaVuSans-112"/>
      <use x="185.839844" xlink:href="#DejaVuSans-101"/>
      <use x="247.363281" xlink:href="#DejaVuSans-114"/>
      <use x="288.476562" xlink:href="#DejaVuSans-105"/>
      <use x="316.259766" xlink:href="#DejaVuSans-109"/>
      <use x="413.671875" xlink:href="#DejaVuSans-101"/>
      <use x="475.195312" xlink:href="#DejaVuSans-110"/>
      <use x="538.574219" xlink:href="#DejaVuSans-116"/>
      <use x="577.783203" xlink:href="#DejaVuSans-97"/>
      <use x="639.0625" xlink:href="#DejaVuSans-108"/>
      <use x="666.845703" xlink:href="#DejaVuSans-32"/>
      <use x="698.632812" xlink:href="#DejaVuSans-68"/>
      <use x="775.634766" xlink:href="#DejaVuSans-97"/>
      <use x="836.914062" xlink:href="#DejaVuSans-116"/>
      <use x="876.123047" xlink:href="#DejaVuSans-97"/>
     </g>
    </g>
    <g id="line2d_32">
     <path d="M 120.645313 79.472813 
L 140.645313 79.472813 
" style="fill:none;stroke:#ffffff;stroke-linecap:square;stroke-width:1.5;"/>
    </g>
    <g id="line2d_33"/>
    <g id="text_21">
     <!-- T:1244 -->
     <defs>
      <path d="M 11.71875 12.40625 
L 22.015625 12.40625 
L 22.015625 0 
L 11.71875 0 
z
M 11.71875 51.703125 
L 22.015625 51.703125 
L 22.015625 39.3125 
L 11.71875 39.3125 
z
" id="DejaVuSans-58"/>
     </defs>
     <g transform="translate(148.645313 82.972813)scale(0.1 -0.1)">
      <use xlink:href="#DejaVuSans-84"/>
      <use x="60.912109" xlink:href="#DejaVuSans-58"/>
      <use x="94.603516" xlink:href="#DejaVuSans-49"/>
      <use x="158.226562" xlink:href="#DejaVuSans-50"/>
      <use x="221.849609" xlink:href="#DejaVuSans-52"/>
      <use x="285.472656" xlink:href="#DejaVuSans-52"/>
     </g>
    </g>
    <g id="line2d_34">
     <path d="M 120.645313 94.150937 
L 140.645313 94.150937 
" style="fill:none;stroke:#ffffff;stroke-linecap:square;stroke-width:1.5;"/>
    </g>
    <g id="line2d_35"/>
    <g id="text_22">
     <!-- P:1.546 -->
     <defs>
      <path d="M 19.671875 64.796875 
L 19.671875 37.40625 
L 32.078125 37.40625 
Q 38.96875 37.40625 42.71875 40.96875 
Q 46.484375 44.53125 46.484375 51.125 
Q 46.484375 57.671875 42.71875 61.234375 
Q 38.96875 64.796875 32.078125 64.796875 
z
M 9.8125 72.90625 
L 32.078125 72.90625 
Q 44.34375 72.90625 50.609375 67.359375 
Q 56.890625 61.8125 56.890625 51.125 
Q 56.890625 40.328125 50.609375 34.8125 
Q 44.34375 29.296875 32.078125 29.296875 
L 19.671875 29.296875 
L 19.671875 0 
L 9.8125 0 
z
" id="DejaVuSans-80"/>
     </defs>
     <g transform="translate(148.645313 97.650937)scale(0.1 -0.1)">
      <use xlink:href="#DejaVuSans-80"/>
      <use x="60.302734" xlink:href="#DejaVuSans-58"/>
      <use x="93.994141" xlink:href="#DejaVuSans-49"/>
      <use x="157.617188" xlink:href="#DejaVuSans-46"/>
      <use x="189.404297" xlink:href="#DejaVuSans-53"/>
      <use x="253.027344" xlink:href="#DejaVuSans-52"/>
      <use x="316.650391" xlink:href="#DejaVuSans-54"/>
     </g>
    </g>
    <g id="line2d_36">
     <path d="M 262.385938 35.416562 
L 282.385938 35.416562 
" style="fill:none;stroke:#ffffff;stroke-linecap:square;stroke-width:1.5;"/>
    </g>
    <g id="line2d_37"/>
    <g id="text_23">
     <!-- H2O2: 0.003036 -->
     <defs>
      <path d="M 40.578125 39.3125 
Q 47.65625 37.796875 51.625 33 
Q 55.609375 28.21875 55.609375 21.1875 
Q 55.609375 10.40625 48.1875 4.484375 
Q 40.765625 -1.421875 27.09375 -1.421875 
Q 22.515625 -1.421875 17.65625 -0.515625 
Q 12.796875 0.390625 7.625 2.203125 
L 7.625 11.71875 
Q 11.71875 9.328125 16.59375 8.109375 
Q 21.484375 6.890625 26.8125 6.890625 
Q 36.078125 6.890625 40.9375 10.546875 
Q 45.796875 14.203125 45.796875 21.1875 
Q 45.796875 27.640625 41.28125 31.265625 
Q 36.765625 34.90625 28.71875 34.90625 
L 20.21875 34.90625 
L 20.21875 43.015625 
L 29.109375 43.015625 
Q 36.375 43.015625 40.234375 45.921875 
Q 44.09375 48.828125 44.09375 54.296875 
Q 44.09375 59.90625 40.109375 62.90625 
Q 36.140625 65.921875 28.71875 65.921875 
Q 24.65625 65.921875 20.015625 65.03125 
Q 15.375 64.15625 9.8125 62.3125 
L 9.8125 71.09375 
Q 15.4375 72.65625 20.34375 73.4375 
Q 25.25 74.21875 29.59375 74.21875 
Q 40.828125 74.21875 47.359375 69.109375 
Q 53.90625 64.015625 53.90625 55.328125 
Q 53.90625 49.265625 50.4375 45.09375 
Q 46.96875 40.921875 40.578125 39.3125 
z
" id="DejaVuSans-51"/>
     </defs>
     <g transform="translate(290.385938 38.916562)scale(0.1 -0.1)">
      <use xlink:href="#DejaVuSans-72"/>
      <use x="75.195312" xlink:href="#DejaVuSans-50"/>
      <use x="138.818359" xlink:href="#DejaVuSans-79"/>
      <use x="217.529297" xlink:href="#DejaVuSans-50"/>
      <use x="281.152344" xlink:href="#DejaVuSans-58"/>
      <use x="314.84375" xlink:href="#DejaVuSans-32"/>
      <use x="346.630859" xlink:href="#DejaVuSans-48"/>
      <use x="410.253906" xlink:href="#DejaVuSans-46"/>
      <use x="442.041016" xlink:href="#DejaVuSans-48"/>
      <use x="505.664062" xlink:href="#DejaVuSans-48"/>
      <use x="569.287109" xlink:href="#DejaVuSans-51"/>
      <use x="632.910156" xlink:href="#DejaVuSans-48"/>
      <use x="696.533203" xlink:href="#DejaVuSans-51"/>
      <use x="760.15625" xlink:href="#DejaVuSans-54"/>
     </g>
    </g>
    <g id="line2d_38">
     <path d="M 262.385938 50.094687 
L 282.385938 50.094687 
" style="fill:none;stroke:#ffffff;stroke-linecap:square;stroke-width:1.5;"/>
    </g>
    <g id="line2d_39"/>
    <g id="text_24">
     <!-- H2O: 0.001113 -->
     <g transform="translate(290.385938 53.594687)scale(0.1 -0.1)">
      <use xlink:href="#DejaVuSans-72"/>
      <use x="75.195312" xlink:href="#DejaVuSans-50"/>
      <use x="138.818359" xlink:href="#DejaVuSans-79"/>
      <use x="217.513672" xlink:href="#DejaVuSans-58"/>
      <use x="251.205078" xlink:href="#DejaVuSans-32"/>
      <use x="282.992188" xlink:href="#DejaVuSans-48"/>
      <use x="346.615234" xlink:href="#DejaVuSans-46"/>
      <use x="378.402344" xlink:href="#DejaVuSans-48"/>
      <use x="442.025391" xlink:href="#DejaVuSans-48"/>
      <use x="505.648438" xlink:href="#DejaVuSans-49"/>
      <use x="569.271484" xlink:href="#DejaVuSans-49"/>
      <use x="632.894531" xlink:href="#DejaVuSans-49"/>
      <use x="696.517578" xlink:href="#DejaVuSans-51"/>
     </g>
    </g>
    <g id="line2d_40">
     <path d="M 262.385938 64.772812 
L 282.385938 64.772812 
" style="fill:none;stroke:#ffffff;stroke-linecap:square;stroke-width:1.5;"/>
    </g>
    <g id="line2d_41"/>
    <g id="text_25">
     <!-- O2: 0.000556 -->
     <g transform="translate(290.385938 68.272812)scale(0.1 -0.1)">
      <use xlink:href="#DejaVuSans-79"/>
      <use x="78.710938" xlink:href="#DejaVuSans-50"/>
      <use x="142.333984" xlink:href="#DejaVuSans-58"/>
      <use x="176.025391" xlink:href="#DejaVuSans-32"/>
      <use x="207.8125" xlink:href="#DejaVuSans-48"/>
      <use x="271.435547" xlink:href="#DejaVuSans-46"/>
      <use x="303.222656" xlink:href="#DejaVuSans-48"/>
      <use x="366.845703" xlink:href="#DejaVuSans-48"/>
      <use x="430.46875" xlink:href="#DejaVuSans-48"/>
      <use x="494.091797" xlink:href="#DejaVuSans-53"/>
      <use x="557.714844" xlink:href="#DejaVuSans-53"/>
      <use x="621.337891" xlink:href="#DejaVuSans-54"/>
     </g>
    </g>
    <g id="line2d_42">
     <path d="M 262.385938 79.450938 
L 282.385938 79.450938 
" style="fill:none;stroke:#ffffff;stroke-linecap:square;stroke-width:1.5;"/>
    </g>
    <g id="line2d_43"/>
    <g id="text_26">
     <!-- Ar: 0.99527 -->
     <defs>
      <path d="M 34.1875 63.1875 
L 20.796875 26.90625 
L 47.609375 26.90625 
z
M 28.609375 72.90625 
L 39.796875 72.90625 
L 67.578125 0 
L 57.328125 0 
L 50.6875 18.703125 
L 17.828125 18.703125 
L 11.1875 0 
L 0.78125 0 
z
" id="DejaVuSans-65"/>
      <path d="M 10.984375 1.515625 
L 10.984375 10.5 
Q 14.703125 8.734375 18.5 7.8125 
Q 22.3125 6.890625 25.984375 6.890625 
Q 35.75 6.890625 40.890625 13.453125 
Q 46.046875 20.015625 46.78125 33.40625 
Q 43.953125 29.203125 39.59375 26.953125 
Q 35.25 24.703125 29.984375 24.703125 
Q 19.046875 24.703125 12.671875 31.3125 
Q 6.296875 37.9375 6.296875 49.421875 
Q 6.296875 60.640625 12.9375 67.421875 
Q 19.578125 74.21875 30.609375 74.21875 
Q 43.265625 74.21875 49.921875 64.515625 
Q 56.59375 54.828125 56.59375 36.375 
Q 56.59375 19.140625 48.40625 8.859375 
Q 40.234375 -1.421875 26.421875 -1.421875 
Q 22.703125 -1.421875 18.890625 -0.6875 
Q 15.09375 0.046875 10.984375 1.515625 
z
M 30.609375 32.421875 
Q 37.25 32.421875 41.125 36.953125 
Q 45.015625 41.5 45.015625 49.421875 
Q 45.015625 57.28125 41.125 61.84375 
Q 37.25 66.40625 30.609375 66.40625 
Q 23.96875 66.40625 20.09375 61.84375 
Q 16.21875 57.28125 16.21875 49.421875 
Q 16.21875 41.5 20.09375 36.953125 
Q 23.96875 32.421875 30.609375 32.421875 
z
" id="DejaVuSans-57"/>
     </defs>
     <g transform="translate(290.385938 82.950938)scale(0.1 -0.1)">
      <use xlink:href="#DejaVuSans-65"/>
      <use x="68.408203" xlink:href="#DejaVuSans-114"/>
      <use x="109.505859" xlink:href="#DejaVuSans-58"/>
      <use x="143.197266" xlink:href="#DejaVuSans-32"/>
      <use x="174.984375" xlink:href="#DejaVuSans-48"/>
      <use x="238.607422" xlink:href="#DejaVuSans-46"/>
      <use x="270.394531" xlink:href="#DejaVuSans-57"/>
      <use x="334.017578" xlink:href="#DejaVuSans-57"/>
      <use x="397.640625" xlink:href="#DejaVuSans-53"/>
      <use x="461.263672" xlink:href="#DejaVuSans-50"/>
      <use x="524.886719" xlink:href="#DejaVuSans-55"/>
     </g>
    </g>
   </g>
  </g>
 </g>
 <defs>
  <clipPath id="pc7140fb858">
   <rect height="217.44" width="334.8" x="46.965625" y="22.318125"/>
  </clipPath>
 </defs>
</svg>
