<?xml version="1.0" encoding="utf-8" standalone="no"?>
<!DOCTYPE svg PUBLIC "-//W3C//DTD SVG 1.1//EN"
  "http://www.w3.org/Graphics/SVG/1.1/DTD/svg11.dtd">
<!-- Created with matplotlib (https://matplotlib.org/) -->
<svg height="277.314375pt" version="1.1" viewBox="0 0 402.00625 277.314375" width="402.00625pt" xmlns="http://www.w3.org/2000/svg" xmlns:xlink="http://www.w3.org/1999/xlink">
 <defs>
  <style type="text/css">
*{stroke-linecap:butt;stroke-linejoin:round;}
  </style>
 </defs>
 <g id="figure_1">
  <g id="patch_1">
   <path d="M 0 277.314375 
L 402.00625 277.314375 
L 402.00625 0 
L 0 0 
z
" style="fill:none;"/>
  </g>
  <g id="axes_1">
   <g id="patch_2">
    <path d="M 56.50625 239.758125 
L 391.30625 239.758125 
L 391.30625 22.318125 
L 56.50625 22.318125 
z
" style="fill:none;"/>
   </g>
   <g id="matplotlib.axis_1">
    <g id="xtick_1">
     <g id="line2d_1">
      <defs>
       <path d="M 0 0 
L 0 3.5 
" id="m8e48444c13" style="stroke:#000000;stroke-width:0.8;"/>
      </defs>
      <g>
       <use style="stroke:#000000;stroke-width:0.8;" x="71.724432" xlink:href="#m8e48444c13" y="239.758125"/>
      </g>
     </g>
     <g id="text_1">
      <!-- 0.0 -->
      <defs>
       <path d="M 31.78125 66.40625 
Q 24.171875 66.40625 20.328125 58.90625 
Q 16.5 51.421875 16.5 36.375 
Q 16.5 21.390625 20.328125 13.890625 
Q 24.171875 6.390625 31.78125 6.390625 
Q 39.453125 6.390625 43.28125 13.890625 
Q 47.125 21.390625 47.125 36.375 
Q 47.125 51.421875 43.28125 58.90625 
Q 39.453125 66.40625 31.78125 66.40625 
z
M 31.78125 74.21875 
Q 44.046875 74.21875 50.515625 64.515625 
Q 56.984375 54.828125 56.984375 36.375 
Q 56.984375 17.96875 50.515625 8.265625 
Q 44.046875 -1.421875 31.78125 -1.421875 
Q 19.53125 -1.421875 13.0625 8.265625 
Q 6.59375 17.96875 6.59375 36.375 
Q 6.59375 54.828125 13.0625 64.515625 
Q 19.53125 74.21875 31.78125 74.21875 
z
" id="DejaVuSans-48"/>
       <path d="M 10.6875 12.40625 
L 21 12.40625 
L 21 0 
L 10.6875 0 
z
" id="DejaVuSans-46"/>
      </defs>
      <g transform="translate(63.772869 254.356562)scale(0.1 -0.1)">
       <use xlink:href="#DejaVuSans-48"/>
       <use x="63.623047" xlink:href="#DejaVuSans-46"/>
       <use x="95.410156" xlink:href="#DejaVuSans-48"/>
      </g>
     </g>
    </g>
    <g id="xtick_2">
     <g id="line2d_2">
      <g>
       <use style="stroke:#000000;stroke-width:0.8;" x="131.760452" xlink:href="#m8e48444c13" y="239.758125"/>
      </g>
     </g>
     <g id="text_2">
      <!-- 0.2 -->
      <defs>
       <path d="M 19.1875 8.296875 
L 53.609375 8.296875 
L 53.609375 0 
L 7.328125 0 
L 7.328125 8.296875 
Q 12.9375 14.109375 22.625 23.890625 
Q 32.328125 33.6875 34.8125 36.53125 
Q 39.546875 41.84375 41.421875 45.53125 
Q 43.3125 49.21875 43.3125 52.78125 
Q 43.3125 58.59375 39.234375 62.25 
Q 35.15625 65.921875 28.609375 65.921875 
Q 23.96875 65.921875 18.8125 64.3125 
Q 13.671875 62.703125 7.8125 59.421875 
L 7.8125 69.390625 
Q 13.765625 71.78125 18.9375 73 
Q 24.125 74.21875 28.421875 74.21875 
Q 39.75 74.21875 46.484375 68.546875 
Q 53.21875 62.890625 53.21875 53.421875 
Q 53.21875 48.921875 51.53125 44.890625 
Q 49.859375 40.875 45.40625 35.40625 
Q 44.1875 33.984375 37.640625 27.21875 
Q 31.109375 20.453125 19.1875 8.296875 
z
" id="DejaVuSans-50"/>
      </defs>
      <g transform="translate(123.80889 254.356562)scale(0.1 -0.1)">
       <use xlink:href="#DejaVuSans-48"/>
       <use x="63.623047" xlink:href="#DejaVuSans-46"/>
       <use x="95.410156" xlink:href="#DejaVuSans-50"/>
      </g>
     </g>
    </g>
    <g id="xtick_3">
     <g id="line2d_3">
      <g>
       <use style="stroke:#000000;stroke-width:0.8;" x="191.796473" xlink:href="#m8e48444c13" y="239.758125"/>
      </g>
     </g>
     <g id="text_3">
      <!-- 0.4 -->
      <defs>
       <path d="M 37.796875 64.3125 
L 12.890625 25.390625 
L 37.796875 25.390625 
z
M 35.203125 72.90625 
L 47.609375 72.90625 
L 47.609375 25.390625 
L 58.015625 25.390625 
L 58.015625 17.1875 
L 47.609375 17.1875 
L 47.609375 0 
L 37.796875 0 
L 37.796875 17.1875 
L 4.890625 17.1875 
L 4.890625 26.703125 
z
" id="DejaVuSans-52"/>
      </defs>
      <g transform="translate(183.844911 254.356562)scale(0.1 -0.1)">
       <use xlink:href="#DejaVuSans-48"/>
       <use x="63.623047" xlink:href="#DejaVuSans-46"/>
       <use x="95.410156" xlink:href="#DejaVuSans-52"/>
      </g>
     </g>
    </g>
    <g id="xtick_4">
     <g id="line2d_4">
      <g>
       <use style="stroke:#000000;stroke-width:0.8;" x="251.832494" xlink:href="#m8e48444c13" y="239.758125"/>
      </g>
     </g>
     <g id="text_4">
      <!-- 0.6 -->
      <defs>
       <path d="M 33.015625 40.375 
Q 26.375 40.375 22.484375 35.828125 
Q 18.609375 31.296875 18.609375 23.390625 
Q 18.609375 15.53125 22.484375 10.953125 
Q 26.375 6.390625 33.015625 6.390625 
Q 39.65625 6.390625 43.53125 10.953125 
Q 47.40625 15.53125 47.40625 23.390625 
Q 47.40625 31.296875 43.53125 35.828125 
Q 39.65625 40.375 33.015625 40.375 
z
M 52.59375 71.296875 
L 52.59375 62.3125 
Q 48.875 64.0625 45.09375 64.984375 
Q 41.3125 65.921875 37.59375 65.921875 
Q 27.828125 65.921875 22.671875 59.328125 
Q 17.53125 52.734375 16.796875 39.40625 
Q 19.671875 43.65625 24.015625 45.921875 
Q 28.375 48.1875 33.59375 48.1875 
Q 44.578125 48.1875 50.953125 41.515625 
Q 57.328125 34.859375 57.328125 23.390625 
Q 57.328125 12.15625 50.6875 5.359375 
Q 44.046875 -1.421875 33.015625 -1.421875 
Q 20.359375 -1.421875 13.671875 8.265625 
Q 6.984375 17.96875 6.984375 36.375 
Q 6.984375 53.65625 15.1875 63.9375 
Q 23.390625 74.21875 37.203125 74.21875 
Q 40.921875 74.21875 44.703125 73.484375 
Q 48.484375 72.75 52.59375 71.296875 
z
" id="DejaVuSans-54"/>
      </defs>
      <g transform="translate(243.880931 254.356562)scale(0.1 -0.1)">
       <use xlink:href="#DejaVuSans-48"/>
       <use x="63.623047" xlink:href="#DejaVuSans-46"/>
       <use x="95.410156" xlink:href="#DejaVuSans-54"/>
      </g>
     </g>
    </g>
    <g id="xtick_5">
     <g id="line2d_5">
      <g>
       <use style="stroke:#000000;stroke-width:0.8;" x="311.868514" xlink:href="#m8e48444c13" y="239.758125"/>
      </g>
     </g>
     <g id="text_5">
      <!-- 0.8 -->
      <defs>
       <path d="M 31.78125 34.625 
Q 24.75 34.625 20.71875 30.859375 
Q 16.703125 27.09375 16.703125 20.515625 
Q 16.703125 13.921875 20.71875 10.15625 
Q 24.75 6.390625 31.78125 6.390625 
Q 38.8125 6.390625 42.859375 10.171875 
Q 46.921875 13.96875 46.921875 20.515625 
Q 46.921875 27.09375 42.890625 30.859375 
Q 38.875 34.625 31.78125 34.625 
z
M 21.921875 38.8125 
Q 15.578125 40.375 12.03125 44.71875 
Q 8.5 49.078125 8.5 55.328125 
Q 8.5 64.0625 14.71875 69.140625 
Q 20.953125 74.21875 31.78125 74.21875 
Q 42.671875 74.21875 48.875 69.140625 
Q 55.078125 64.0625 55.078125 55.328125 
Q 55.078125 49.078125 51.53125 44.71875 
Q 48 40.375 41.703125 38.8125 
Q 48.828125 37.15625 52.796875 32.3125 
Q 56.78125 27.484375 56.78125 20.515625 
Q 56.78125 9.90625 50.3125 4.234375 
Q 43.84375 -1.421875 31.78125 -1.421875 
Q 19.734375 -1.421875 13.25 4.234375 
Q 6.78125 9.90625 6.78125 20.515625 
Q 6.78125 27.484375 10.78125 32.3125 
Q 14.796875 37.15625 21.921875 38.8125 
z
M 18.3125 54.390625 
Q 18.3125 48.734375 21.84375 45.5625 
Q 25.390625 42.390625 31.78125 42.390625 
Q 38.140625 42.390625 41.71875 45.5625 
Q 45.3125 48.734375 45.3125 54.390625 
Q 45.3125 60.0625 41.71875 63.234375 
Q 38.140625 66.40625 31.78125 66.40625 
Q 25.390625 66.40625 21.84375 63.234375 
Q 18.3125 60.0625 18.3125 54.390625 
z
" id="DejaVuSans-56"/>
      </defs>
      <g transform="translate(303.916952 254.356562)scale(0.1 -0.1)">
       <use xlink:href="#DejaVuSans-48"/>
       <use x="63.623047" xlink:href="#DejaVuSans-46"/>
       <use x="95.410156" xlink:href="#DejaVuSans-56"/>
      </g>
     </g>
    </g>
    <g id="xtick_6">
     <g id="line2d_6">
      <g>
       <use style="stroke:#000000;stroke-width:0.8;" x="371.904535" xlink:href="#m8e48444c13" y="239.758125"/>
      </g>
     </g>
     <g id="text_6">
      <!-- 1.0 -->
      <defs>
       <path d="M 12.40625 8.296875 
L 28.515625 8.296875 
L 28.515625 63.921875 
L 10.984375 60.40625 
L 10.984375 69.390625 
L 28.421875 72.90625 
L 38.28125 72.90625 
L 38.28125 8.296875 
L 54.390625 8.296875 
L 54.390625 0 
L 12.40625 0 
z
" id="DejaVuSans-49"/>
      </defs>
      <g transform="translate(363.952972 254.356562)scale(0.1 -0.1)">
       <use xlink:href="#DejaVuSans-49"/>
       <use x="63.623047" xlink:href="#DejaVuSans-46"/>
       <use x="95.410156" xlink:href="#DejaVuSans-48"/>
      </g>
     </g>
    </g>
    <g id="text_7">
     <!-- Time (ms) -->
     <defs>
      <path d="M -0.296875 72.90625 
L 61.375 72.90625 
L 61.375 64.59375 
L 35.5 64.59375 
L 35.5 0 
L 25.59375 0 
L 25.59375 64.59375 
L -0.296875 64.59375 
z
" id="DejaVuSans-84"/>
      <path d="M 9.421875 54.6875 
L 18.40625 54.6875 
L 18.40625 0 
L 9.421875 0 
z
M 9.421875 75.984375 
L 18.40625 75.984375 
L 18.40625 64.59375 
L 9.421875 64.59375 
z
" id="DejaVuSans-105"/>
      <path d="M 52 44.1875 
Q 55.375 50.25 60.0625 53.125 
Q 64.75 56 71.09375 56 
Q 79.640625 56 84.28125 50.015625 
Q 88.921875 44.046875 88.921875 33.015625 
L 88.921875 0 
L 79.890625 0 
L 79.890625 32.71875 
Q 79.890625 40.578125 77.09375 44.375 
Q 74.3125 48.1875 68.609375 48.1875 
Q 61.625 48.1875 57.5625 43.546875 
Q 53.515625 38.921875 53.515625 30.90625 
L 53.515625 0 
L 44.484375 0 
L 44.484375 32.71875 
Q 44.484375 40.625 41.703125 44.40625 
Q 38.921875 48.1875 33.109375 48.1875 
Q 26.21875 48.1875 22.15625 43.53125 
Q 18.109375 38.875 18.109375 30.90625 
L 18.109375 0 
L 9.078125 0 
L 9.078125 54.6875 
L 18.109375 54.6875 
L 18.109375 46.1875 
Q 21.1875 51.21875 25.484375 53.609375 
Q 29.78125 56 35.6875 56 
Q 41.65625 56 45.828125 52.96875 
Q 50 49.953125 52 44.1875 
z
" id="DejaVuSans-109"/>
      <path d="M 56.203125 29.59375 
L 56.203125 25.203125 
L 14.890625 25.203125 
Q 15.484375 15.921875 20.484375 11.0625 
Q 25.484375 6.203125 34.421875 6.203125 
Q 39.59375 6.203125 44.453125 7.46875 
Q 49.3125 8.734375 54.109375 11.28125 
L 54.109375 2.78125 
Q 49.265625 0.734375 44.1875 -0.34375 
Q 39.109375 -1.421875 33.890625 -1.421875 
Q 20.796875 -1.421875 13.15625 6.1875 
Q 5.515625 13.8125 5.515625 26.8125 
Q 5.515625 40.234375 12.765625 48.109375 
Q 20.015625 56 32.328125 56 
Q 43.359375 56 49.78125 48.890625 
Q 56.203125 41.796875 56.203125 29.59375 
z
M 47.21875 32.234375 
Q 47.125 39.59375 43.09375 43.984375 
Q 39.0625 48.390625 32.421875 48.390625 
Q 24.90625 48.390625 20.390625 44.140625 
Q 15.875 39.890625 15.1875 32.171875 
z
" id="DejaVuSans-101"/>
      <path id="DejaVuSans-32"/>
      <path d="M 31 75.875 
Q 24.46875 64.65625 21.28125 53.65625 
Q 18.109375 42.671875 18.109375 31.390625 
Q 18.109375 20.125 21.3125 9.0625 
Q 24.515625 -2 31 -13.1875 
L 23.1875 -13.1875 
Q 15.875 -1.703125 12.234375 9.375 
Q 8.59375 20.453125 8.59375 31.390625 
Q 8.59375 42.28125 12.203125 53.3125 
Q 15.828125 64.359375 23.1875 75.875 
z
" id="DejaVuSans-40"/>
      <path d="M 44.28125 53.078125 
L 44.28125 44.578125 
Q 40.484375 46.53125 36.375 47.5 
Q 32.28125 48.484375 27.875 48.484375 
Q 21.1875 48.484375 17.84375 46.4375 
Q 14.5 44.390625 14.5 40.28125 
Q 14.5 37.15625 16.890625 35.375 
Q 19.28125 33.59375 26.515625 31.984375 
L 29.59375 31.296875 
Q 39.15625 29.25 43.1875 25.515625 
Q 47.21875 21.78125 47.21875 15.09375 
Q 47.21875 7.46875 41.1875 3.015625 
Q 35.15625 -1.421875 24.609375 -1.421875 
Q 20.21875 -1.421875 15.453125 -0.5625 
Q 10.6875 0.296875 5.421875 2 
L 5.421875 11.28125 
Q 10.40625 8.6875 15.234375 7.390625 
Q 20.0625 6.109375 24.8125 6.109375 
Q 31.15625 6.109375 34.5625 8.28125 
Q 37.984375 10.453125 37.984375 14.40625 
Q 37.984375 18.0625 35.515625 20.015625 
Q 33.0625 21.96875 24.703125 23.78125 
L 21.578125 24.515625 
Q 13.234375 26.265625 9.515625 29.90625 
Q 5.8125 33.546875 5.8125 39.890625 
Q 5.8125 47.609375 11.28125 51.796875 
Q 16.75 56 26.8125 56 
Q 31.78125 56 36.171875 55.265625 
Q 40.578125 54.546875 44.28125 53.078125 
z
" id="DejaVuSans-115"/>
      <path d="M 8.015625 75.875 
L 15.828125 75.875 
Q 23.140625 64.359375 26.78125 53.3125 
Q 30.421875 42.28125 30.421875 31.390625 
Q 30.421875 20.453125 26.78125 9.375 
Q 23.140625 -1.703125 15.828125 -13.1875 
L 8.015625 -13.1875 
Q 14.5 -2 17.703125 9.0625 
Q 20.90625 20.125 20.90625 31.390625 
Q 20.90625 42.671875 17.703125 53.65625 
Q 14.5 64.65625 8.015625 75.875 
z
" id="DejaVuSans-41"/>
     </defs>
     <g transform="translate(198.553125 268.034687)scale(0.1 -0.1)">
      <use xlink:href="#DejaVuSans-84"/>
      <use x="61.037109" xlink:href="#DejaVuSans-105"/>
      <use x="88.820312" xlink:href="#DejaVuSans-109"/>
      <use x="186.232422" xlink:href="#DejaVuSans-101"/>
      <use x="247.755859" xlink:href="#DejaVuSans-32"/>
      <use x="279.542969" xlink:href="#DejaVuSans-40"/>
      <use x="318.556641" xlink:href="#DejaVuSans-109"/>
      <use x="415.96875" xlink:href="#DejaVuSans-115"/>
      <use x="468.068359" xlink:href="#DejaVuSans-41"/>
     </g>
    </g>
   </g>
   <g id="matplotlib.axis_2">
    <g id="ytick_1">
     <g id="line2d_7">
      <defs>
       <path d="M 0 0 
L -3.5 0 
" id="m4c1279c3d1" style="stroke:#000000;stroke-width:0.8;"/>
      </defs>
      <g>
       <use style="stroke:#000000;stroke-width:0.8;" x="56.50625" xlink:href="#m4c1279c3d1" y="239.612083"/>
      </g>
     </g>
     <g id="text_8">
      <!-- 0.000 -->
      <g transform="translate(20.878125 243.411302)scale(0.1 -0.1)">
       <use xlink:href="#DejaVuSans-48"/>
       <use x="63.623047" xlink:href="#DejaVuSans-46"/>
       <use x="95.410156" xlink:href="#DejaVuSans-48"/>
       <use x="159.033203" xlink:href="#DejaVuSans-48"/>
       <use x="222.65625" xlink:href="#DejaVuSans-48"/>
      </g>
     </g>
    </g>
    <g id="ytick_2">
     <g id="line2d_8">
      <g>
       <use style="stroke:#000000;stroke-width:0.8;" x="56.50625" xlink:href="#m4c1279c3d1" y="214.077968"/>
      </g>
     </g>
     <g id="text_9">
      <!-- 0.025 -->
      <defs>
       <path d="M 10.796875 72.90625 
L 49.515625 72.90625 
L 49.515625 64.59375 
L 19.828125 64.59375 
L 19.828125 46.734375 
Q 21.96875 47.46875 24.109375 47.828125 
Q 26.265625 48.1875 28.421875 48.1875 
Q 40.625 48.1875 47.75 41.5 
Q 54.890625 34.8125 54.890625 23.390625 
Q 54.890625 11.625 47.5625 5.09375 
Q 40.234375 -1.421875 26.90625 -1.421875 
Q 22.3125 -1.421875 17.546875 -0.640625 
Q 12.796875 0.140625 7.71875 1.703125 
L 7.71875 11.625 
Q 12.109375 9.234375 16.796875 8.0625 
Q 21.484375 6.890625 26.703125 6.890625 
Q 35.15625 6.890625 40.078125 11.328125 
Q 45.015625 15.765625 45.015625 23.390625 
Q 45.015625 31 40.078125 35.4375 
Q 35.15625 39.890625 26.703125 39.890625 
Q 22.75 39.890625 18.8125 39.015625 
Q 14.890625 38.140625 10.796875 36.28125 
z
" id="DejaVuSans-53"/>
      </defs>
      <g transform="translate(20.878125 217.877186)scale(0.1 -0.1)">
       <use xlink:href="#DejaVuSans-48"/>
       <use x="63.623047" xlink:href="#DejaVuSans-46"/>
       <use x="95.410156" xlink:href="#DejaVuSans-48"/>
       <use x="159.033203" xlink:href="#DejaVuSans-50"/>
       <use x="222.65625" xlink:href="#DejaVuSans-53"/>
      </g>
     </g>
    </g>
    <g id="ytick_3">
     <g id="line2d_9">
      <g>
       <use style="stroke:#000000;stroke-width:0.8;" x="56.50625" xlink:href="#m4c1279c3d1" y="188.543852"/>
      </g>
     </g>
     <g id="text_10">
      <!-- 0.050 -->
      <g transform="translate(20.878125 192.343071)scale(0.1 -0.1)">
       <use xlink:href="#DejaVuSans-48"/>
       <use x="63.623047" xlink:href="#DejaVuSans-46"/>
       <use x="95.410156" xlink:href="#DejaVuSans-48"/>
       <use x="159.033203" xlink:href="#DejaVuSans-53"/>
       <use x="222.65625" xlink:href="#DejaVuSans-48"/>
      </g>
     </g>
    </g>
    <g id="ytick_4">
     <g id="line2d_10">
      <g>
       <use style="stroke:#000000;stroke-width:0.8;" x="56.50625" xlink:href="#m4c1279c3d1" y="163.009736"/>
      </g>
     </g>
     <g id="text_11">
      <!-- 0.075 -->
      <defs>
       <path d="M 8.203125 72.90625 
L 55.078125 72.90625 
L 55.078125 68.703125 
L 28.609375 0 
L 18.3125 0 
L 43.21875 64.59375 
L 8.203125 64.59375 
z
" id="DejaVuSans-55"/>
      </defs>
      <g transform="translate(20.878125 166.808955)scale(0.1 -0.1)">
       <use xlink:href="#DejaVuSans-48"/>
       <use x="63.623047" xlink:href="#DejaVuSans-46"/>
       <use x="95.410156" xlink:href="#DejaVuSans-48"/>
       <use x="159.033203" xlink:href="#DejaVuSans-55"/>
       <use x="222.65625" xlink:href="#DejaVuSans-53"/>
      </g>
     </g>
    </g>
    <g id="ytick_5">
     <g id="line2d_11">
      <g>
       <use style="stroke:#000000;stroke-width:0.8;" x="56.50625" xlink:href="#m4c1279c3d1" y="137.47562"/>
      </g>
     </g>
     <g id="text_12">
      <!-- 0.100 -->
      <g transform="translate(20.878125 141.274839)scale(0.1 -0.1)">
       <use xlink:href="#DejaVuSans-48"/>
       <use x="63.623047" xlink:href="#DejaVuSans-46"/>
       <use x="95.410156" xlink:href="#DejaVuSans-49"/>
       <use x="159.033203" xlink:href="#DejaVuSans-48"/>
       <use x="222.65625" xlink:href="#DejaVuSans-48"/>
      </g>
     </g>
    </g>
    <g id="ytick_6">
     <g id="line2d_12">
      <g>
       <use style="stroke:#000000;stroke-width:0.8;" x="56.50625" xlink:href="#m4c1279c3d1" y="111.941505"/>
      </g>
     </g>
     <g id="text_13">
      <!-- 0.125 -->
      <g transform="translate(20.878125 115.740723)scale(0.1 -0.1)">
       <use xlink:href="#DejaVuSans-48"/>
       <use x="63.623047" xlink:href="#DejaVuSans-46"/>
       <use x="95.410156" xlink:href="#DejaVuSans-49"/>
       <use x="159.033203" xlink:href="#DejaVuSans-50"/>
       <use x="222.65625" xlink:href="#DejaVuSans-53"/>
      </g>
     </g>
    </g>
    <g id="ytick_7">
     <g id="line2d_13">
      <g>
       <use style="stroke:#000000;stroke-width:0.8;" x="56.50625" xlink:href="#m4c1279c3d1" y="86.407389"/>
      </g>
     </g>
     <g id="text_14">
      <!-- 0.150 -->
      <g transform="translate(20.878125 90.206608)scale(0.1 -0.1)">
       <use xlink:href="#DejaVuSans-48"/>
       <use x="63.623047" xlink:href="#DejaVuSans-46"/>
       <use x="95.410156" xlink:href="#DejaVuSans-49"/>
       <use x="159.033203" xlink:href="#DejaVuSans-53"/>
       <use x="222.65625" xlink:href="#DejaVuSans-48"/>
      </g>
     </g>
    </g>
    <g id="ytick_8">
     <g id="line2d_14">
      <g>
       <use style="stroke:#000000;stroke-width:0.8;" x="56.50625" xlink:href="#m4c1279c3d1" y="60.873273"/>
      </g>
     </g>
     <g id="text_15">
      <!-- 0.175 -->
      <g transform="translate(20.878125 64.672492)scale(0.1 -0.1)">
       <use xlink:href="#DejaVuSans-48"/>
       <use x="63.623047" xlink:href="#DejaVuSans-46"/>
       <use x="95.410156" xlink:href="#DejaVuSans-49"/>
       <use x="159.033203" xlink:href="#DejaVuSans-55"/>
       <use x="222.65625" xlink:href="#DejaVuSans-53"/>
      </g>
     </g>
    </g>
    <g id="ytick_9">
     <g id="line2d_15">
      <g>
       <use style="stroke:#000000;stroke-width:0.8;" x="56.50625" xlink:href="#m4c1279c3d1" y="35.339157"/>
      </g>
     </g>
     <g id="text_16">
      <!-- 0.200 -->
      <g transform="translate(20.878125 39.138376)scale(0.1 -0.1)">
       <use xlink:href="#DejaVuSans-48"/>
       <use x="63.623047" xlink:href="#DejaVuSans-46"/>
       <use x="95.410156" xlink:href="#DejaVuSans-50"/>
       <use x="159.033203" xlink:href="#DejaVuSans-48"/>
       <use x="222.65625" xlink:href="#DejaVuSans-48"/>
      </g>
     </g>
    </g>
    <g id="text_17">
     <!-- Absorbance227 -->
     <defs>
      <path d="M 34.1875 63.1875 
L 20.796875 26.90625 
L 47.609375 26.90625 
z
M 28.609375 72.90625 
L 39.796875 72.90625 
L 67.578125 0 
L 57.328125 0 
L 50.6875 18.703125 
L 17.828125 18.703125 
L 11.1875 0 
L 0.78125 0 
z
" id="DejaVuSans-65"/>
      <path d="M 48.6875 27.296875 
Q 48.6875 37.203125 44.609375 42.84375 
Q 40.53125 48.484375 33.40625 48.484375 
Q 26.265625 48.484375 22.1875 42.84375 
Q 18.109375 37.203125 18.109375 27.296875 
Q 18.109375 17.390625 22.1875 11.75 
Q 26.265625 6.109375 33.40625 6.109375 
Q 40.53125 6.109375 44.609375 11.75 
Q 48.6875 17.390625 48.6875 27.296875 
z
M 18.109375 46.390625 
Q 20.953125 51.265625 25.265625 53.625 
Q 29.59375 56 35.59375 56 
Q 45.5625 56 51.78125 48.09375 
Q 58.015625 40.1875 58.015625 27.296875 
Q 58.015625 14.40625 51.78125 6.484375 
Q 45.5625 -1.421875 35.59375 -1.421875 
Q 29.59375 -1.421875 25.265625 0.953125 
Q 20.953125 3.328125 18.109375 8.203125 
L 18.109375 0 
L 9.078125 0 
L 9.078125 75.984375 
L 18.109375 75.984375 
z
" id="DejaVuSans-98"/>
      <path d="M 30.609375 48.390625 
Q 23.390625 48.390625 19.1875 42.75 
Q 14.984375 37.109375 14.984375 27.296875 
Q 14.984375 17.484375 19.15625 11.84375 
Q 23.34375 6.203125 30.609375 6.203125 
Q 37.796875 6.203125 41.984375 11.859375 
Q 46.1875 17.53125 46.1875 27.296875 
Q 46.1875 37.015625 41.984375 42.703125 
Q 37.796875 48.390625 30.609375 48.390625 
z
M 30.609375 56 
Q 42.328125 56 49.015625 48.375 
Q 55.71875 40.765625 55.71875 27.296875 
Q 55.71875 13.875 49.015625 6.21875 
Q 42.328125 -1.421875 30.609375 -1.421875 
Q 18.84375 -1.421875 12.171875 6.21875 
Q 5.515625 13.875 5.515625 27.296875 
Q 5.515625 40.765625 12.171875 48.375 
Q 18.84375 56 30.609375 56 
z
" id="DejaVuSans-111"/>
      <path d="M 41.109375 46.296875 
Q 39.59375 47.171875 37.8125 47.578125 
Q 36.03125 48 33.890625 48 
Q 26.265625 48 22.1875 43.046875 
Q 18.109375 38.09375 18.109375 28.8125 
L 18.109375 0 
L 9.078125 0 
L 9.078125 54.6875 
L 18.109375 54.6875 
L 18.109375 46.1875 
Q 20.953125 51.171875 25.484375 53.578125 
Q 30.03125 56 36.53125 56 
Q 37.453125 56 38.578125 55.875 
Q 39.703125 55.765625 41.0625 55.515625 
z
" id="DejaVuSans-114"/>
      <path d="M 34.28125 27.484375 
Q 23.390625 27.484375 19.1875 25 
Q 14.984375 22.515625 14.984375 16.5 
Q 14.984375 11.71875 18.140625 8.90625 
Q 21.296875 6.109375 26.703125 6.109375 
Q 34.1875 6.109375 38.703125 11.40625 
Q 43.21875 16.703125 43.21875 25.484375 
L 43.21875 27.484375 
z
M 52.203125 31.203125 
L 52.203125 0 
L 43.21875 0 
L 43.21875 8.296875 
Q 40.140625 3.328125 35.546875 0.953125 
Q 30.953125 -1.421875 24.3125 -1.421875 
Q 15.921875 -1.421875 10.953125 3.296875 
Q 6 8.015625 6 15.921875 
Q 6 25.140625 12.171875 29.828125 
Q 18.359375 34.515625 30.609375 34.515625 
L 43.21875 34.515625 
L 43.21875 35.40625 
Q 43.21875 41.609375 39.140625 45 
Q 35.0625 48.390625 27.6875 48.390625 
Q 23 48.390625 18.546875 47.265625 
Q 14.109375 46.140625 10.015625 43.890625 
L 10.015625 52.203125 
Q 14.9375 54.109375 19.578125 55.046875 
Q 24.21875 56 28.609375 56 
Q 40.484375 56 46.34375 49.84375 
Q 52.203125 43.703125 52.203125 31.203125 
z
" id="DejaVuSans-97"/>
      <path d="M 54.890625 33.015625 
L 54.890625 0 
L 45.90625 0 
L 45.90625 32.71875 
Q 45.90625 40.484375 42.875 44.328125 
Q 39.84375 48.1875 33.796875 48.1875 
Q 26.515625 48.1875 22.3125 43.546875 
Q 18.109375 38.921875 18.109375 30.90625 
L 18.109375 0 
L 9.078125 0 
L 9.078125 54.6875 
L 18.109375 54.6875 
L 18.109375 46.1875 
Q 21.34375 51.125 25.703125 53.5625 
Q 30.078125 56 35.796875 56 
Q 45.21875 56 50.046875 50.171875 
Q 54.890625 44.34375 54.890625 33.015625 
z
" id="DejaVuSans-110"/>
      <path d="M 48.78125 52.59375 
L 48.78125 44.1875 
Q 44.96875 46.296875 41.140625 47.34375 
Q 37.3125 48.390625 33.40625 48.390625 
Q 24.65625 48.390625 19.8125 42.84375 
Q 14.984375 37.3125 14.984375 27.296875 
Q 14.984375 17.28125 19.8125 11.734375 
Q 24.65625 6.203125 33.40625 6.203125 
Q 37.3125 6.203125 41.140625 7.25 
Q 44.96875 8.296875 48.78125 10.40625 
L 48.78125 2.09375 
Q 45.015625 0.34375 40.984375 -0.53125 
Q 36.96875 -1.421875 32.421875 -1.421875 
Q 20.0625 -1.421875 12.78125 6.34375 
Q 5.515625 14.109375 5.515625 27.296875 
Q 5.515625 40.671875 12.859375 48.328125 
Q 20.21875 56 33.015625 56 
Q 37.15625 56 41.109375 55.140625 
Q 45.0625 54.296875 48.78125 52.59375 
z
" id="DejaVuSans-99"/>
     </defs>
     <g transform="translate(14.798437 170.12875)rotate(-90)scale(0.1 -0.1)">
      <use xlink:href="#DejaVuSans-65"/>
      <use x="68.408203" xlink:href="#DejaVuSans-98"/>
      <use x="131.884766" xlink:href="#DejaVuSans-115"/>
      <use x="183.984375" xlink:href="#DejaVuSans-111"/>
      <use x="245.166016" xlink:href="#DejaVuSans-114"/>
      <use x="286.279297" xlink:href="#DejaVuSans-98"/>
      <use x="349.755859" xlink:href="#DejaVuSans-97"/>
      <use x="411.035156" xlink:href="#DejaVuSans-110"/>
      <use x="474.414062" xlink:href="#DejaVuSans-99"/>
      <use x="529.394531" xlink:href="#DejaVuSans-101"/>
      <use x="590.917969" xlink:href="#DejaVuSans-50"/>
      <use x="654.541016" xlink:href="#DejaVuSans-50"/>
      <use x="718.164062" xlink:href="#DejaVuSans-55"/>
     </g>
    </g>
   </g>
   <g id="line2d_16">
    <defs>
     <path d="M 0 3 
C 0.795609 3 1.55874 2.683901 2.12132 2.12132 
C 2.683901 1.55874 3 0.795609 3 0 
C 3 -0.795609 2.683901 -1.55874 2.12132 -2.12132 
C 1.55874 -2.683901 0.795609 -3 0 -3 
C -0.795609 -3 -1.55874 -2.683901 -2.12132 -2.12132 
C -2.683901 -1.55874 -3 -0.795609 -3 0 
C -3 0.795609 -2.683901 1.55874 -2.12132 2.12132 
C -1.55874 2.683901 -0.795609 3 0 3 
z
" id="m812f3f1467" style="stroke:#000000;"/>
    </defs>
    <g clip-path="url(#pf017195079)">
     <use style="stroke:#000000;" x="71.724432" xlink:href="#m812f3f1467" y="158.077464"/>
     <use style="stroke:#000000;" x="71.724442" xlink:href="#m812f3f1467" y="158.077464"/>
     <use style="stroke:#000000;" x="71.724474" xlink:href="#m812f3f1467" y="158.077464"/>
     <use style="stroke:#000000;" x="71.724507" xlink:href="#m812f3f1467" y="158.077464"/>
     <use style="stroke:#000000;" x="71.724539" xlink:href="#m812f3f1467" y="158.077464"/>
     <use style="stroke:#000000;" x="71.724572" xlink:href="#m812f3f1467" y="158.077566"/>
     <use style="stroke:#000000;" x="71.724642" xlink:href="#m812f3f1467" y="158.077566"/>
     <use style="stroke:#000000;" x="71.724771" xlink:href="#m812f3f1467" y="158.077566"/>
     <use style="stroke:#000000;" x="71.724999" xlink:href="#m812f3f1467" y="158.077668"/>
     <use style="stroke:#000000;" x="71.72541" xlink:href="#m812f3f1467" y="158.077771"/>
     <use style="stroke:#000000;" x="71.726335" xlink:href="#m812f3f1467" y="158.078077"/>
     <use style="stroke:#000000;" x="71.727257" xlink:href="#m812f3f1467" y="158.078383"/>
     <use style="stroke:#000000;" x="71.728184" xlink:href="#m812f3f1467" y="158.07869"/>
     <use style="stroke:#000000;" x="71.729115" xlink:href="#m812f3f1467" y="158.078996"/>
     <use style="stroke:#000000;" x="71.730015" xlink:href="#m812f3f1467" y="158.079303"/>
     <use style="stroke:#000000;" x="71.731306" xlink:href="#m812f3f1467" y="158.079711"/>
     <use style="stroke:#000000;" x="71.732597" xlink:href="#m812f3f1467" y="158.080018"/>
     <use style="stroke:#000000;" x="71.733887" xlink:href="#m812f3f1467" y="158.080426"/>
     <use style="stroke:#000000;" x="71.735178" xlink:href="#m812f3f1467" y="158.080835"/>
     <use style="stroke:#000000;" x="71.739171" xlink:href="#m812f3f1467" y="158.081958"/>
     <use style="stroke:#000000;" x="71.743133" xlink:href="#m812f3f1467" y="158.083082"/>
     <use style="stroke:#000000;" x="71.749677" xlink:href="#m812f3f1467" y="158.084716"/>
     <use style="stroke:#000000;" x="71.756251" xlink:href="#m812f3f1467" y="158.08635"/>
     <use style="stroke:#000000;" x="71.762855" xlink:href="#m812f3f1467" y="158.087678"/>
     <use style="stroke:#000000;" x="71.769159" xlink:href="#m812f3f1467" y="158.089006"/>
     <use style="stroke:#000000;" x="71.775763" xlink:href="#m812f3f1467" y="158.090129"/>
     <use style="stroke:#000000;" x="71.782367" xlink:href="#m812f3f1467" y="158.091048"/>
     <use style="stroke:#000000;" x="71.788971" xlink:href="#m812f3f1467" y="158.091865"/>
     <use style="stroke:#000000;" x="71.802479" xlink:href="#m812f3f1467" y="158.093193"/>
     <use style="stroke:#000000;" x="71.815987" xlink:href="#m812f3f1467" y="158.093908"/>
     <use style="stroke:#000000;" x="71.829195" xlink:href="#m812f3f1467" y="158.094112"/>
     <use style="stroke:#000000;" x="71.842703" xlink:href="#m812f3f1467" y="158.093704"/>
     <use style="stroke:#000000;" x="71.856211" xlink:href="#m812f3f1467" y="158.092682"/>
     <use style="stroke:#000000;" x="71.869719" xlink:href="#m812f3f1467" y="158.09115"/>
     <use style="stroke:#000000;" x="71.891932" xlink:href="#m812f3f1467" y="158.087371"/>
     <use style="stroke:#000000;" x="71.914146" xlink:href="#m812f3f1467" y="158.082162"/>
     <use style="stroke:#000000;" x="71.936359" xlink:href="#m812f3f1467" y="158.075421"/>
     <use style="stroke:#000000;" x="71.958572" xlink:href="#m812f3f1467" y="158.067353"/>
     <use style="stroke:#000000;" x="71.980786" xlink:href="#m812f3f1467" y="158.057752"/>
     <use style="stroke:#000000;" x="72.024612" xlink:href="#m812f3f1467" y="158.03426"/>
     <use style="stroke:#000000;" x="72.069639" xlink:href="#m812f3f1467" y="158.005356"/>
     <use style="stroke:#000000;" x="72.114666" xlink:href="#m812f3f1467" y="157.971038"/>
     <use style="stroke:#000000;" x="72.159693" xlink:href="#m812f3f1467" y="157.931613"/>
     <use style="stroke:#000000;" x="72.20472" xlink:href="#m812f3f1467" y="157.887184"/>
     <use style="stroke:#000000;" x="72.249747" xlink:href="#m812f3f1467" y="157.837852"/>
     <use style="stroke:#000000;" x="72.294774" xlink:href="#m812f3f1467" y="157.783924"/>
     <use style="stroke:#000000;" x="72.339801" xlink:href="#m812f3f1467" y="157.7254"/>
     <use style="stroke:#000000;" x="72.384828" xlink:href="#m812f3f1467" y="157.662382"/>
     <use style="stroke:#000000;" x="72.429855" xlink:href="#m812f3f1467" y="157.595176"/>
     <use style="stroke:#000000;" x="72.47188" xlink:href="#m812f3f1467" y="157.523885"/>
     <use style="stroke:#000000;" x="72.516907" xlink:href="#m812f3f1467" y="157.448508"/>
     <use style="stroke:#000000;" x="72.561934" xlink:href="#m812f3f1467" y="157.36925"/>
     <use style="stroke:#000000;" x="72.606961" xlink:href="#m812f3f1467" y="157.286315"/>
     <use style="stroke:#000000;" x="72.651988" xlink:href="#m812f3f1467" y="157.199703"/>
     <use style="stroke:#000000;" x="72.697015" xlink:href="#m812f3f1467" y="157.109619"/>
     <use style="stroke:#000000;" x="72.742042" xlink:href="#m812f3f1467" y="157.016164"/>
     <use style="stroke:#000000;" x="72.787069" xlink:href="#m812f3f1467" y="156.919339"/>
     <use style="stroke:#000000;" x="72.832096" xlink:href="#m812f3f1467" y="156.819449"/>
     <use style="stroke:#000000;" x="72.877123" xlink:href="#m812f3f1467" y="156.716394"/>
     <use style="stroke:#000000;" x="72.919149" xlink:href="#m812f3f1467" y="156.610478"/>
     <use style="stroke:#000000;" x="72.964176" xlink:href="#m812f3f1467" y="156.501703"/>
     <use style="stroke:#000000;" x="73.009203" xlink:href="#m812f3f1467" y="156.39017"/>
     <use style="stroke:#000000;" x="73.05423" xlink:href="#m812f3f1467" y="156.275879"/>
     <use style="stroke:#000000;" x="73.099257" xlink:href="#m812f3f1467" y="156.159137"/>
     <use style="stroke:#000000;" x="73.144284" xlink:href="#m812f3f1467" y="156.039842"/>
     <use style="stroke:#000000;" x="73.213325" xlink:href="#m812f3f1467" y="155.855383"/>
     <use style="stroke:#000000;" x="73.279365" xlink:href="#m812f3f1467" y="155.665716"/>
     <use style="stroke:#000000;" x="73.345404" xlink:href="#m812f3f1467" y="155.471248"/>
     <use style="stroke:#000000;" x="73.414446" xlink:href="#m812f3f1467" y="155.272184"/>
     <use style="stroke:#000000;" x="73.480485" xlink:href="#m812f3f1467" y="155.068728"/>
     <use style="stroke:#000000;" x="73.549527" xlink:href="#m812f3f1467" y="154.861187"/>
     <use style="stroke:#000000;" x="73.615566" xlink:href="#m812f3f1467" y="154.649764"/>
     <use style="stroke:#000000;" x="73.684608" xlink:href="#m812f3f1467" y="154.434665"/>
     <use style="stroke:#000000;" x="73.750648" xlink:href="#m812f3f1467" y="154.216195"/>
     <use style="stroke:#000000;" x="73.819689" xlink:href="#m812f3f1467" y="153.994559"/>
     <use style="stroke:#000000;" x="73.885729" xlink:href="#m812f3f1467" y="153.769859"/>
     <use style="stroke:#000000;" x="73.95477" xlink:href="#m812f3f1467" y="153.542299"/>
     <use style="stroke:#000000;" x="74.02081" xlink:href="#m812f3f1467" y="153.312185"/>
     <use style="stroke:#000000;" x="74.089851" xlink:href="#m812f3f1467" y="153.079518"/>
     <use style="stroke:#000000;" x="74.155891" xlink:href="#m812f3f1467" y="152.844605"/>
     <use style="stroke:#000000;" x="74.224932" xlink:href="#m812f3f1467" y="152.607546"/>
     <use style="stroke:#000000;" x="74.290972" xlink:href="#m812f3f1467" y="152.368444"/>
     <use style="stroke:#000000;" x="74.360013" xlink:href="#m812f3f1467" y="152.127607"/>
     <use style="stroke:#000000;" x="74.426053" xlink:href="#m812f3f1467" y="151.88493"/>
     <use style="stroke:#000000;" x="74.495094" xlink:href="#m812f3f1467" y="151.640824"/>
     <use style="stroke:#000000;" x="74.561134" xlink:href="#m812f3f1467" y="151.395186"/>
     <use style="stroke:#000000;" x="74.630175" xlink:href="#m812f3f1467" y="151.148322"/>
     <use style="stroke:#000000;" x="74.696215" xlink:href="#m812f3f1467" y="150.900233"/>
     <use style="stroke:#000000;" x="74.756251" xlink:href="#m812f3f1467" y="150.65102"/>
     <use style="stroke:#000000;" x="74.846305" xlink:href="#m812f3f1467" y="150.400785"/>
     <use style="stroke:#000000;" x="74.906341" xlink:href="#m812f3f1467" y="150.149836"/>
     <use style="stroke:#000000;" x="74.966377" xlink:href="#m812f3f1467" y="149.897968"/>
     <use style="stroke:#000000;" x="75.026413" xlink:href="#m812f3f1467" y="149.645486"/>
     <use style="stroke:#000000;" x="75.116467" xlink:href="#m812f3f1467" y="149.392392"/>
     <use style="stroke:#000000;" x="75.176503" xlink:href="#m812f3f1467" y="149.138787"/>
     <use style="stroke:#000000;" x="75.236539" xlink:href="#m812f3f1467" y="148.884774"/>
     <use style="stroke:#000000;" x="75.296575" xlink:href="#m812f3f1467" y="148.630454"/>
     <use style="stroke:#000000;" x="75.386629" xlink:href="#m812f3f1467" y="148.375828"/>
     <use style="stroke:#000000;" x="75.446665" xlink:href="#m812f3f1467" y="148.120997"/>
     <use style="stroke:#000000;" x="75.506701" xlink:href="#m812f3f1467" y="147.865963"/>
     <use style="stroke:#000000;" x="75.566737" xlink:href="#m812f3f1467" y="147.610928"/>
     <use style="stroke:#000000;" x="75.656791" xlink:href="#m812f3f1467" y="147.355893"/>
     <use style="stroke:#000000;" x="75.716827" xlink:href="#m812f3f1467" y="147.100961"/>
     <use style="stroke:#000000;" x="75.776863" xlink:href="#m812f3f1467" y="146.84613"/>
     <use style="stroke:#000000;" x="75.866917" xlink:href="#m812f3f1467" y="146.463935"/>
     <use style="stroke:#000000;" x="75.986989" xlink:href="#m812f3f1467" y="146.082354"/>
     <use style="stroke:#000000;" x="76.077043" xlink:href="#m812f3f1467" y="145.701385"/>
     <use style="stroke:#000000;" x="76.197115" xlink:href="#m812f3f1467" y="145.321437"/>
     <use style="stroke:#000000;" x="76.287169" xlink:href="#m812f3f1467" y="144.942306"/>
     <use style="stroke:#000000;" x="76.377223" xlink:href="#m812f3f1467" y="144.564402"/>
     <use style="stroke:#000000;" x="76.497295" xlink:href="#m812f3f1467" y="144.187722"/>
     <use style="stroke:#000000;" x="76.587349" xlink:href="#m812f3f1467" y="143.812473"/>
     <use style="stroke:#000000;" x="76.677404" xlink:href="#m812f3f1467" y="143.438653"/>
     <use style="stroke:#000000;" x="76.797476" xlink:href="#m812f3f1467" y="143.066366"/>
     <use style="stroke:#000000;" x="76.88753" xlink:href="#m812f3f1467" y="142.695713"/>
     <use style="stroke:#000000;" x="77.007602" xlink:href="#m812f3f1467" y="142.326796"/>
     <use style="stroke:#000000;" x="77.097656" xlink:href="#m812f3f1467" y="141.959717"/>
     <use style="stroke:#000000;" x="77.18771" xlink:href="#m812f3f1467" y="141.59458"/>
     <use style="stroke:#000000;" x="77.307782" xlink:href="#m812f3f1467" y="141.23128"/>
     <use style="stroke:#000000;" x="77.397836" xlink:href="#m812f3f1467" y="140.870126"/>
     <use style="stroke:#000000;" x="77.48789" xlink:href="#m812f3f1467" y="140.510912"/>
     <use style="stroke:#000000;" x="77.607962" xlink:href="#m812f3f1467" y="140.153843"/>
     <use style="stroke:#000000;" x="77.698016" xlink:href="#m812f3f1467" y="139.798918"/>
     <use style="stroke:#000000;" x="77.818088" xlink:href="#m812f3f1467" y="139.446241"/>
     <use style="stroke:#000000;" x="77.908142" xlink:href="#m812f3f1467" y="139.095811"/>
     <use style="stroke:#000000;" x="77.998196" xlink:href="#m812f3f1467" y="138.74773"/>
     <use style="stroke:#000000;" x="78.118268" xlink:href="#m812f3f1467" y="138.401794"/>
     <use style="stroke:#000000;" x="78.208322" xlink:href="#m812f3f1467" y="138.058309"/>
     <use style="stroke:#000000;" x="78.298376" xlink:href="#m812f3f1467" y="137.717275"/>
     <use style="stroke:#000000;" x="78.418448" xlink:href="#m812f3f1467" y="137.378591"/>
     <use style="stroke:#000000;" x="78.508502" xlink:href="#m812f3f1467" y="137.042562"/>
     <use style="stroke:#000000;" x="78.628574" xlink:href="#m812f3f1467" y="136.708575"/>
     <use style="stroke:#000000;" x="78.718628" xlink:href="#m812f3f1467" y="136.376632"/>
     <use style="stroke:#000000;" x="78.808682" xlink:href="#m812f3f1467" y="136.047753"/>
     <use style="stroke:#000000;" x="78.928754" xlink:href="#m812f3f1467" y="135.721937"/>
     <use style="stroke:#000000;" x="79.018808" xlink:href="#m812f3f1467" y="135.398165"/>
     <use style="stroke:#000000;" x="79.108862" xlink:href="#m812f3f1467" y="135.076435"/>
     <use style="stroke:#000000;" x="79.228934" xlink:href="#m812f3f1467" y="134.757769"/>
     <use style="stroke:#000000;" x="79.318988" xlink:href="#m812f3f1467" y="134.441146"/>
     <use style="stroke:#000000;" x="79.43906" xlink:href="#m812f3f1467" y="134.127587"/>
     <use style="stroke:#000000;" x="79.529114" xlink:href="#m812f3f1467" y="133.816071"/>
     <use style="stroke:#000000;" x="79.619169" xlink:href="#m812f3f1467" y="133.507619"/>
     <use style="stroke:#000000;" x="79.769259" xlink:href="#m812f3f1467" y="133.045962"/>
     <use style="stroke:#000000;" x="79.919349" xlink:href="#m812f3f1467" y="132.589412"/>
     <use style="stroke:#000000;" x="80.099457" xlink:href="#m812f3f1467" y="132.140011"/>
     <use style="stroke:#000000;" x="80.249547" xlink:href="#m812f3f1467" y="131.695718"/>
     <use style="stroke:#000000;" x="80.399637" xlink:href="#m812f3f1467" y="131.257552"/>
     <use style="stroke:#000000;" x="80.549727" xlink:href="#m812f3f1467" y="130.824494"/>
     <use style="stroke:#000000;" x="80.699817" xlink:href="#m812f3f1467" y="130.398585"/>
     <use style="stroke:#000000;" x="80.849907" xlink:href="#m812f3f1467" y="129.976761"/>
     <use style="stroke:#000000;" x="80.999997" xlink:href="#m812f3f1467" y="129.562087"/>
     <use style="stroke:#000000;" x="81.150087" xlink:href="#m812f3f1467" y="129.15252"/>
     <use style="stroke:#000000;" x="81.300177" xlink:href="#m812f3f1467" y="128.749081"/>
     <use style="stroke:#000000;" x="81.450267" xlink:href="#m812f3f1467" y="128.350749"/>
     <use style="stroke:#000000;" x="81.630375" xlink:href="#m812f3f1467" y="127.958545"/>
     <use style="stroke:#000000;" x="81.780465" xlink:href="#m812f3f1467" y="127.571447"/>
     <use style="stroke:#000000;" x="81.930555" xlink:href="#m812f3f1467" y="127.190478"/>
     <use style="stroke:#000000;" x="82.080645" xlink:href="#m812f3f1467" y="126.814616"/>
     <use style="stroke:#000000;" x="82.230735" xlink:href="#m812f3f1467" y="126.443861"/>
     <use style="stroke:#000000;" x="82.380825" xlink:href="#m812f3f1467" y="126.079234"/>
     <use style="stroke:#000000;" x="82.530916" xlink:href="#m812f3f1467" y="125.720735"/>
     <use style="stroke:#000000;" x="82.681006" xlink:href="#m812f3f1467" y="125.366321"/>
     <use style="stroke:#000000;" x="82.831096" xlink:href="#m812f3f1467" y="125.018036"/>
     <use style="stroke:#000000;" x="82.981186" xlink:href="#m812f3f1467" y="124.674857"/>
     <use style="stroke:#000000;" x="83.161294" xlink:href="#m812f3f1467" y="124.336786"/>
     <use style="stroke:#000000;" x="83.311384" xlink:href="#m812f3f1467" y="124.004842"/>
     <use style="stroke:#000000;" x="83.461474" xlink:href="#m812f3f1467" y="123.676984"/>
     <use style="stroke:#000000;" x="83.611564" xlink:href="#m812f3f1467" y="123.355254"/>
     <use style="stroke:#000000;" x="83.761654" xlink:href="#m812f3f1467" y="123.03761"/>
     <use style="stroke:#000000;" x="84.001798" xlink:href="#m812f3f1467" y="122.566761"/>
     <use style="stroke:#000000;" x="84.211924" xlink:href="#m812f3f1467" y="122.106125"/>
     <use style="stroke:#000000;" x="84.452068" xlink:href="#m812f3f1467" y="121.657746"/>
     <use style="stroke:#000000;" x="84.692212" xlink:href="#m812f3f1467" y="121.220602"/>
     <use style="stroke:#000000;" x="84.932356" xlink:href="#m812f3f1467" y="120.794693"/>
     <use style="stroke:#000000;" x="85.142482" xlink:href="#m812f3f1467" y="120.378998"/>
     <use style="stroke:#000000;" x="85.382627" xlink:href="#m812f3f1467" y="119.974537"/>
     <use style="stroke:#000000;" x="85.622771" xlink:href="#m812f3f1467" y="119.581312"/>
     <use style="stroke:#000000;" x="85.862915" xlink:href="#m812f3f1467" y="119.1983"/>
     <use style="stroke:#000000;" x="86.073041" xlink:href="#m812f3f1467" y="118.825502"/>
     <use style="stroke:#000000;" x="86.313185" xlink:href="#m812f3f1467" y="118.462918"/>
     <use style="stroke:#000000;" x="86.553329" xlink:href="#m812f3f1467" y="118.110547"/>
     <use style="stroke:#000000;" x="86.793473" xlink:href="#m812f3f1467" y="117.767368"/>
     <use style="stroke:#000000;" x="87.003599" xlink:href="#m812f3f1467" y="117.434404"/>
     <use style="stroke:#000000;" x="87.243743" xlink:href="#m812f3f1467" y="117.111652"/>
     <use style="stroke:#000000;" x="87.483887" xlink:href="#m812f3f1467" y="116.797072"/>
     <use style="stroke:#000000;" x="87.724031" xlink:href="#m812f3f1467" y="116.492705"/>
     <use style="stroke:#000000;" x="87.934157" xlink:href="#m812f3f1467" y="116.197531"/>
     <use style="stroke:#000000;" x="88.174301" xlink:href="#m812f3f1467" y="115.911549"/>
     <use style="stroke:#000000;" x="88.534518" xlink:href="#m812f3f1467" y="115.488704"/>
     <use style="stroke:#000000;" x="88.894734" xlink:href="#m812f3f1467" y="115.085265"/>
     <use style="stroke:#000000;" x="89.25495" xlink:href="#m812f3f1467" y="114.703275"/>
     <use style="stroke:#000000;" x="89.615166" xlink:href="#m812f3f1467" y="114.339669"/>
     <use style="stroke:#000000;" x="89.975382" xlink:href="#m812f3f1467" y="113.995469"/>
     <use style="stroke:#000000;" x="90.335598" xlink:href="#m812f3f1467" y="113.669654"/>
     <use style="stroke:#000000;" x="90.665796" xlink:href="#m812f3f1467" y="113.361201"/>
     <use style="stroke:#000000;" x="91.026012" xlink:href="#m812f3f1467" y="113.071134"/>
     <use style="stroke:#000000;" x="91.386229" xlink:href="#m812f3f1467" y="112.797408"/>
     <use style="stroke:#000000;" x="91.746445" xlink:href="#m812f3f1467" y="112.541046"/>
     <use style="stroke:#000000;" x="92.106661" xlink:href="#m812f3f1467" y="112.300004"/>
     <use style="stroke:#000000;" x="92.466877" xlink:href="#m812f3f1467" y="112.075303"/>
     <use style="stroke:#000000;" x="92.827093" xlink:href="#m812f3f1467" y="111.865924"/>
     <use style="stroke:#000000;" x="93.187309" xlink:href="#m812f3f1467" y="111.670843"/>
     <use style="stroke:#000000;" x="93.547525" xlink:href="#m812f3f1467" y="111.490061"/>
     <use style="stroke:#000000;" x="93.907741" xlink:href="#m812f3f1467" y="111.323579"/>
     <use style="stroke:#000000;" x="94.267958" xlink:href="#m812f3f1467" y="111.170374"/>
     <use style="stroke:#000000;" x="94.628174" xlink:href="#m812f3f1467" y="111.030447"/>
     <use style="stroke:#000000;" x="94.958372" xlink:href="#m812f3f1467" y="110.903798"/>
     <use style="stroke:#000000;" x="95.318588" xlink:href="#m812f3f1467" y="110.789405"/>
     <use style="stroke:#000000;" x="95.678804" xlink:href="#m812f3f1467" y="110.686247"/>
     <use style="stroke:#000000;" x="96.03902" xlink:href="#m812f3f1467" y="110.595346"/>
     <use style="stroke:#000000;" x="96.399236" xlink:href="#m812f3f1467" y="110.516701"/>
     <use style="stroke:#000000;" x="96.759452" xlink:href="#m812f3f1467" y="110.448269"/>
     <use style="stroke:#000000;" x="97.119669" xlink:href="#m812f3f1467" y="110.390052"/>
     <use style="stroke:#000000;" x="97.479885" xlink:href="#m812f3f1467" y="110.343069"/>
     <use style="stroke:#000000;" x="97.840101" xlink:href="#m812f3f1467" y="110.305278"/>
     <use style="stroke:#000000;" x="98.200317" xlink:href="#m812f3f1467" y="110.277702"/>
     <use style="stroke:#000000;" x="98.560533" xlink:href="#m812f3f1467" y="110.259317"/>
     <use style="stroke:#000000;" x="98.890731" xlink:href="#m812f3f1467" y="110.250125"/>
     <use style="stroke:#000000;" x="99.250947" xlink:href="#m812f3f1467" y="110.250125"/>
     <use style="stroke:#000000;" x="99.611163" xlink:href="#m812f3f1467" y="110.258296"/>
     <use style="stroke:#000000;" x="99.97138" xlink:href="#m812f3f1467" y="110.274637"/>
     <use style="stroke:#000000;" x="100.331596" xlink:href="#m812f3f1467" y="110.29915"/>
     <use style="stroke:#000000;" x="100.87192" xlink:href="#m812f3f1467" y="110.35124"/>
     <use style="stroke:#000000;" x="101.412244" xlink:href="#m812f3f1467" y="110.41865"/>
     <use style="stroke:#000000;" x="102.042622" xlink:href="#m812f3f1467" y="110.503423"/>
     <use style="stroke:#000000;" x="102.342802" xlink:href="#m812f3f1467" y="110.602496"/>
     <use style="stroke:#000000;" x="102.943163" xlink:href="#m812f3f1467" y="110.715867"/>
     <use style="stroke:#000000;" x="103.543523" xlink:href="#m812f3f1467" y="110.842516"/>
     <use style="stroke:#000000;" x="104.143883" xlink:href="#m812f3f1467" y="110.982443"/>
     <use style="stroke:#000000;" x="104.744243" xlink:href="#m812f3f1467" y="111.135648"/>
     <use style="stroke:#000000;" x="105.044423" xlink:href="#m812f3f1467" y="111.299066"/>
     <use style="stroke:#000000;" x="105.644783" xlink:href="#m812f3f1467" y="111.474741"/>
     <use style="stroke:#000000;" x="106.245144" xlink:href="#m812f3f1467" y="111.660629"/>
     <use style="stroke:#000000;" x="106.845504" xlink:href="#m812f3f1467" y="111.856731"/>
     <use style="stroke:#000000;" x="107.445864" xlink:href="#m812f3f1467" y="112.062026"/>
     <use style="stroke:#000000;" x="107.746044" xlink:href="#m812f3f1467" y="112.276512"/>
     <use style="stroke:#000000;" x="108.346404" xlink:href="#m812f3f1467" y="112.49917"/>
     <use style="stroke:#000000;" x="109.246945" xlink:href="#m812f3f1467" y="112.855626"/>
     <use style="stroke:#000000;" x="110.147485" xlink:href="#m812f3f1467" y="113.229445"/>
     <use style="stroke:#000000;" x="110.747845" xlink:href="#m812f3f1467" y="113.618585"/>
     <use style="stroke:#000000;" x="111.648386" xlink:href="#m812f3f1467" y="114.023046"/>
     <use style="stroke:#000000;" x="112.548926" xlink:href="#m812f3f1467" y="114.440784"/>
     <use style="stroke:#000000;" x="113.449466" xlink:href="#m812f3f1467" y="114.870778"/>
     <use style="stroke:#000000;" x="114.049826" xlink:href="#m812f3f1467" y="115.312008"/>
     <use style="stroke:#000000;" x="114.950367" xlink:href="#m812f3f1467" y="115.763451"/>
     <use style="stroke:#000000;" x="115.850907" xlink:href="#m812f3f1467" y="116.224086"/>
     <use style="stroke:#000000;" x="116.451267" xlink:href="#m812f3f1467" y="116.693914"/>
     <use style="stroke:#000000;" x="117.351807" xlink:href="#m812f3f1467" y="117.170891"/>
     <use style="stroke:#000000;" x="118.252348" xlink:href="#m812f3f1467" y="117.653997"/>
     <use style="stroke:#000000;" x="119.152888" xlink:href="#m812f3f1467" y="118.144252"/>
     <use style="stroke:#000000;" x="119.753248" xlink:href="#m812f3f1467" y="118.639614"/>
     <use style="stroke:#000000;" x="120.653789" xlink:href="#m812f3f1467" y="119.140082"/>
     <use style="stroke:#000000;" x="121.554329" xlink:href="#m812f3f1467" y="119.645658"/>
     <use style="stroke:#000000;" x="122.454869" xlink:href="#m812f3f1467" y="120.154298"/>
     <use style="stroke:#000000;" x="123.055229" xlink:href="#m812f3f1467" y="120.667023"/>
     <use style="stroke:#000000;" x="123.95577" xlink:href="#m812f3f1467" y="121.182812"/>
     <use style="stroke:#000000;" x="124.85631" xlink:href="#m812f3f1467" y="121.700644"/>
     <use style="stroke:#000000;" x="125.45667" xlink:href="#m812f3f1467" y="122.220518"/>
     <use style="stroke:#000000;" x="126.357211" xlink:href="#m812f3f1467" y="122.743457"/>
     <use style="stroke:#000000;" x="127.257751" xlink:href="#m812f3f1467" y="123.267417"/>
     <use style="stroke:#000000;" x="128.158291" xlink:href="#m812f3f1467" y="123.792398"/>
     <use style="stroke:#000000;" x="128.758651" xlink:href="#m812f3f1467" y="124.318401"/>
     <use style="stroke:#000000;" x="129.659192" xlink:href="#m812f3f1467" y="124.844404"/>
     <use style="stroke:#000000;" x="130.559732" xlink:href="#m812f3f1467" y="125.372449"/>
     <use style="stroke:#000000;" x="131.460272" xlink:href="#m812f3f1467" y="125.899474"/>
     <use style="stroke:#000000;" x="132.060633" xlink:href="#m812f3f1467" y="126.427519"/>
     <use style="stroke:#000000;" x="132.961173" xlink:href="#m812f3f1467" y="126.954543"/>
     <use style="stroke:#000000;" x="133.861713" xlink:href="#m812f3f1467" y="127.481567"/>
     <use style="stroke:#000000;" x="134.762253" xlink:href="#m812f3f1467" y="128.008592"/>
     <use style="stroke:#000000;" x="135.362614" xlink:href="#m812f3f1467" y="128.534594"/>
     <use style="stroke:#000000;" x="136.263154" xlink:href="#m812f3f1467" y="129.060597"/>
     <use style="stroke:#000000;" x="137.163694" xlink:href="#m812f3f1467" y="129.584557"/>
     <use style="stroke:#000000;" x="137.764055" xlink:href="#m812f3f1467" y="130.107496"/>
     <use style="stroke:#000000;" x="138.664595" xlink:href="#m812f3f1467" y="130.630435"/>
     <use style="stroke:#000000;" x="139.565135" xlink:href="#m812f3f1467" y="131.151331"/>
     <use style="stroke:#000000;" x="140.465675" xlink:href="#m812f3f1467" y="131.671205"/>
     <use style="stroke:#000000;" x="141.066036" xlink:href="#m812f3f1467" y="132.189037"/>
     <use style="stroke:#000000;" x="141.966576" xlink:href="#m812f3f1467" y="132.705847"/>
     <use style="stroke:#000000;" x="143.167296" xlink:href="#m812f3f1467" y="133.481063"/>
     <use style="stroke:#000000;" x="144.368017" xlink:href="#m812f3f1467" y="134.251172"/>
     <use style="stroke:#000000;" x="145.568737" xlink:href="#m812f3f1467" y="135.018217"/>
     <use style="stroke:#000000;" x="147.069638" xlink:href="#m812f3f1467" y="135.781176"/>
     <use style="stroke:#000000;" x="148.270358" xlink:href="#m812f3f1467" y="136.539029"/>
     <use style="stroke:#000000;" x="149.471079" xlink:href="#m812f3f1467" y="137.292796"/>
     <use style="stroke:#000000;" x="150.671799" xlink:href="#m812f3f1467" y="138.042682"/>
     <use style="stroke:#000000;" x="151.872519" xlink:href="#m812f3f1467" y="138.787563"/>
     <use style="stroke:#000000;" x="153.07324" xlink:href="#m812f3f1467" y="139.527644"/>
     <use style="stroke:#000000;" x="154.27396" xlink:href="#m812f3f1467" y="140.263027"/>
     <use style="stroke:#000000;" x="155.474681" xlink:href="#m812f3f1467" y="140.993507"/>
     <use style="stroke:#000000;" x="156.675401" xlink:href="#m812f3f1467" y="141.719186"/>
     <use style="stroke:#000000;" x="158.176302" xlink:href="#m812f3f1467" y="142.439861"/>
     <use style="stroke:#000000;" x="159.377022" xlink:href="#m812f3f1467" y="143.155531"/>
     <use style="stroke:#000000;" x="160.577742" xlink:href="#m812f3f1467" y="143.866299"/>
     <use style="stroke:#000000;" x="161.778463" xlink:href="#m812f3f1467" y="144.572062"/>
     <use style="stroke:#000000;" x="162.979183" xlink:href="#m812f3f1467" y="145.27282"/>
     <use style="stroke:#000000;" x="164.179904" xlink:href="#m812f3f1467" y="145.968471"/>
     <use style="stroke:#000000;" x="165.380624" xlink:href="#m812f3f1467" y="146.659118"/>
     <use style="stroke:#000000;" x="166.581344" xlink:href="#m812f3f1467" y="147.34476"/>
     <use style="stroke:#000000;" x="167.782065" xlink:href="#m812f3f1467" y="148.025398"/>
     <use style="stroke:#000000;" x="168.982785" xlink:href="#m812f3f1467" y="148.70103"/>
     <use style="stroke:#000000;" x="170.483686" xlink:href="#m812f3f1467" y="149.371658"/>
     <use style="stroke:#000000;" x="171.598855" xlink:href="#m812f3f1467" y="150.037282"/>
     <use style="stroke:#000000;" x="172.832295" xlink:href="#m812f3f1467" y="150.6979"/>
     <use style="stroke:#000000;" x="174.702717" xlink:href="#m812f3f1467" y="151.690463"/>
     <use style="stroke:#000000;" x="176.573139" xlink:href="#m812f3f1467" y="152.671585"/>
     <use style="stroke:#000000;" x="178.443862" xlink:href="#m812f3f1467" y="153.641575"/>
     <use style="stroke:#000000;" x="180.314284" xlink:href="#m812f3f1467" y="154.600433"/>
     <use style="stroke:#000000;" x="182.184706" xlink:href="#m812f3f1467" y="155.548259"/>
     <use style="stroke:#000000;" x="184.055429" xlink:href="#m812f3f1467" y="156.485055"/>
     <use style="stroke:#000000;" x="185.925851" xlink:href="#m812f3f1467" y="157.411024"/>
     <use style="stroke:#000000;" x="187.796273" xlink:href="#m812f3f1467" y="158.326371"/>
     <use style="stroke:#000000;" x="189.666995" xlink:href="#m812f3f1467" y="159.230993"/>
     <use style="stroke:#000000;" x="191.537418" xlink:href="#m812f3f1467" y="160.125096"/>
     <use style="stroke:#000000;" x="193.40784" xlink:href="#m812f3f1467" y="161.008883"/>
     <use style="stroke:#000000;" x="195.278562" xlink:href="#m812f3f1467" y="161.882252"/>
     <use style="stroke:#000000;" x="197.148984" xlink:href="#m812f3f1467" y="162.745611"/>
     <use style="stroke:#000000;" x="199.019407" xlink:href="#m812f3f1467" y="163.598757"/>
     <use style="stroke:#000000;" x="200.889829" xlink:href="#m812f3f1467" y="164.442098"/>
     <use style="stroke:#000000;" x="202.760551" xlink:href="#m812f3f1467" y="165.275531"/>
     <use style="stroke:#000000;" x="204.630974" xlink:href="#m812f3f1467" y="166.099262"/>
     <use style="stroke:#000000;" x="206.501396" xlink:href="#m812f3f1467" y="166.913494"/>
     <use style="stroke:#000000;" x="208.372118" xlink:href="#m812f3f1467" y="167.718125"/>
     <use style="stroke:#000000;" x="210.24254" xlink:href="#m812f3f1467" y="168.513462"/>
     <use style="stroke:#000000;" x="212.112963" xlink:href="#m812f3f1467" y="169.299504"/>
     <use style="stroke:#000000;" x="213.983685" xlink:href="#m812f3f1467" y="170.076456"/>
     <use style="stroke:#000000;" x="216.813483" xlink:href="#m812f3f1467" y="171.234683"/>
     <use style="stroke:#000000;" x="219.643281" xlink:href="#m812f3f1467" y="172.372688"/>
     <use style="stroke:#000000;" x="222.473379" xlink:href="#m812f3f1467" y="173.490776"/>
     <use style="stroke:#000000;" x="225.303177" xlink:href="#m812f3f1467" y="174.589253"/>
     <use style="stroke:#000000;" x="228.133275" xlink:href="#m812f3f1467" y="175.668529"/>
     <use style="stroke:#000000;" x="230.963072" xlink:href="#m812f3f1467" y="176.72891"/>
     <use style="stroke:#000000;" x="233.79287" xlink:href="#m812f3f1467" y="177.770906"/>
     <use style="stroke:#000000;" x="236.622968" xlink:href="#m812f3f1467" y="178.794722"/>
     <use style="stroke:#000000;" x="239.452766" xlink:href="#m812f3f1467" y="179.800664"/>
     <use style="stroke:#000000;" x="242.282564" xlink:href="#m812f3f1467" y="180.789141"/>
     <use style="stroke:#000000;" x="245.112662" xlink:href="#m812f3f1467" y="181.760459"/>
     <use style="stroke:#000000;" x="247.94246" xlink:href="#m812f3f1467" y="182.714924"/>
     <use style="stroke:#000000;" x="252.213722" xlink:href="#m812f3f1467" y="184.124305"/>
     <use style="stroke:#000000;" x="256.484985" xlink:href="#m812f3f1467" y="185.497019"/>
     <use style="stroke:#000000;" x="260.756248" xlink:href="#m812f3f1467" y="186.83419"/>
     <use style="stroke:#000000;" x="265.027511" xlink:href="#m812f3f1467" y="188.136634"/>
     <use style="stroke:#000000;" x="269.298773" xlink:href="#m812f3f1467" y="189.405373"/>
     <use style="stroke:#000000;" x="273.570036" xlink:href="#m812f3f1467" y="190.641326"/>
     <use style="stroke:#000000;" x="277.841299" xlink:href="#m812f3f1467" y="191.845515"/>
     <use style="stroke:#000000;" x="282.112561" xlink:href="#m812f3f1467" y="193.018655"/>
     <use style="stroke:#000000;" x="286.383824" xlink:href="#m812f3f1467" y="194.161664"/>
     <use style="stroke:#000000;" x="290.655087" xlink:href="#m812f3f1467" y="195.275258"/>
     <use style="stroke:#000000;" x="294.926349" xlink:href="#m812f3f1467" y="196.360355"/>
     <use style="stroke:#000000;" x="299.197612" xlink:href="#m812f3f1467" y="197.417774"/>
     <use style="stroke:#000000;" x="303.468875" xlink:href="#m812f3f1467" y="198.448127"/>
     <use style="stroke:#000000;" x="307.740137" xlink:href="#m812f3f1467" y="199.45223"/>
     <use style="stroke:#000000;" x="312.0114" xlink:href="#m812f3f1467" y="200.430698"/>
     <use style="stroke:#000000;" x="316.282663" xlink:href="#m812f3f1467" y="201.384346"/>
     <use style="stroke:#000000;" x="320.553925" xlink:href="#m812f3f1467" y="202.313788"/>
     <use style="stroke:#000000;" x="324.825188" xlink:href="#m812f3f1467" y="203.219636"/>
     <use style="stroke:#000000;" x="329.096451" xlink:href="#m812f3f1467" y="204.102606"/>
     <use style="stroke:#000000;" x="333.367714" xlink:href="#m812f3f1467" y="204.963208"/>
     <use style="stroke:#000000;" x="337.638976" xlink:href="#m812f3f1467" y="205.802054"/>
     <use style="stroke:#000000;" x="341.910239" xlink:href="#m812f3f1467" y="206.619759"/>
     <use style="stroke:#000000;" x="346.181502" xlink:href="#m812f3f1467" y="207.416934"/>
     <use style="stroke:#000000;" x="349.308478" xlink:href="#m812f3f1467" y="207.987775"/>
     <use style="stroke:#000000;" x="352.435454" xlink:href="#m812f3f1467" y="208.548095"/>
     <use style="stroke:#000000;" x="355.56243" xlink:href="#m812f3f1467" y="209.0981"/>
     <use style="stroke:#000000;" x="358.689706" xlink:href="#m812f3f1467" y="209.637993"/>
     <use style="stroke:#000000;" x="360.972576" xlink:href="#m812f3f1467" y="210.025908"/>
     <use style="stroke:#000000;" x="363.255446" xlink:href="#m812f3f1467" y="210.408511"/>
     <use style="stroke:#000000;" x="365.538616" xlink:href="#m812f3f1467" y="210.786007"/>
     <use style="stroke:#000000;" x="367.821485" xlink:href="#m812f3f1467" y="211.158499"/>
     <use style="stroke:#000000;" x="370.104655" xlink:href="#m812f3f1467" y="211.525884"/>
     <use style="stroke:#000000;" x="372.387825" xlink:href="#m812f3f1467" y="211.888366"/>
    </g>
   </g>
   <g id="line2d_17">
    <path clip-path="url(#pf017195079)" d="M 71.724432 158.077475 
L 72.025939 158.067921 
L 72.3644 157.821465 
L 72.851192 157.110089 
L 73.50025 155.668058 
L 74.473836 152.829893 
L 76.340875 146.487366 
L 78.776839 138.446403 
L 80.546789 133.373954 
L 82.20269 129.299273 
L 83.858591 125.842453 
L 85.330503 123.243769 
L 86.89914 120.915995 
L 88.560717 118.893813 
L 90.222295 117.27531 
L 91.749882 116.102059 
L 93.429361 115.119145 
L 95.10884 114.41952 
L 96.788318 113.968229 
L 98.696306 113.717861 
L 100.641443 113.71063 
L 102.58658 113.917698 
L 105.180096 114.473464 
L 107.773612 115.291938 
L 111.015507 116.606627 
L 114.257402 118.170631 
L 118.178166 120.305825 
L 123.079121 123.230518 
L 129.940459 127.599062 
L 158.365998 146.017303 
L 168.058728 151.895357 
L 176.183534 156.595633 
L 184.896777 161.399449 
L 193.796933 166.054209 
L 202.69709 170.459675 
L 211.597246 174.623863 
L 222.421649 179.376723 
L 233.246051 183.804449 
L 244.070453 187.92536 
L 254.916305 191.76495 
L 265.367229 195.207246 
L 276.916573 198.736156 
L 287.381885 201.700438 
L 296.763164 204.181079 
L 310.835082 207.610835 
L 324.907001 210.718386 
L 338.978919 213.53232 
L 353.050838 216.079039 
L 367.122756 218.382849 
L 373.054072 219.286596 
L 373.054072 219.286596 
" style="fill:none;stroke:#0000ff;stroke-linecap:square;stroke-width:1.5;"/>
   </g>
   <g id="line2d_18">
    <path clip-path="url(#pf017195079)" d="M 71.724432 158.077475 
L 72.049359 158.111221 
L 72.401368 157.941402 
L 72.855884 157.444239 
L 73.410021 156.481632 
L 74.148869 154.721132 
L 75.213536 151.528741 
L 77.165013 144.767861 
L 79.827322 135.704728 
L 81.518517 130.680341 
L 83.209711 126.36206 
L 84.689507 123.153828 
L 86.169302 120.43946 
L 87.649098 118.172282 
L 88.92173 116.543632 
L 90.517815 114.874381 
L 92.113901 113.572425 
L 93.709986 112.591985 
L 95.306072 111.893164 
L 96.902157 111.441321 
L 98.671715 111.192773 
L 100.605502 111.184528 
L 102.53929 111.413082 
L 104.743914 111.919739 
L 107.006766 112.670154 
L 110.023903 113.968748 
L 113.041039 115.540332 
L 116.812459 117.798473 
L 121.338163 120.820488 
L 126.618151 124.629493 
L 134.622516 130.709496 
L 154.061934 145.587098 
L 162.335619 151.625538 
L 171.026312 157.678816 
L 178.210699 162.43942 
L 186.223444 167.481258 
L 194.025695 172.11961 
L 202.761548 177.00179 
L 211.497402 181.566024 
L 220.233255 185.82603 
L 228.969108 189.796895 
L 237.704961 193.494283 
L 246.440815 196.933935 
L 255.176668 200.131358 
L 263.912521 203.101619 
L 273.167718 206.016768 
L 283.69914 209.06447 
L 291.946942 211.265273 
L 302.904008 213.955538 
L 312.928562 216.201225 
L 325.058597 218.666978 
L 337.188632 220.88218 
L 347.94428 222.656417 
L 362.016174 224.734789 
L 376.088068 226.566653 
L 376.088068 226.566653 
" style="fill:none;stroke:#ff0000;stroke-linecap:square;stroke-width:1.5;"/>
   </g>
   <g id="line2d_19">
    <path clip-path="url(#pf017195079)" d="M 71.724432 75.642698 
L 72.20472 75.843137 
L 72.697015 75.821928 
L 73.213325 75.575595 
L 73.819689 75.012213 
L 74.495094 74.060139 
L 75.296575 72.543889 
L 76.377223 69.984731 
L 77.998196 65.473204 
L 82.530916 52.506549 
L 84.452068 47.81309 
L 86.073041 44.3778 
L 87.724031 41.378347 
L 89.25495 39.036123 
L 90.665796 37.228594 
L 92.106661 35.711804 
L 93.547525 34.500068 
L 94.958372 33.586344 
L 96.399236 32.906819 
L 97.840101 32.46854 
L 99.611163 32.221181 
L 100.87192 32.218305 
L 102.342802 32.38252 
L 104.143883 32.80329 
L 106.245144 33.562013 
L 108.346404 34.567701 
L 110.747845 35.976639 
L 113.449466 37.830911 
L 116.451267 40.160958 
L 119.753248 42.975313 
L 123.95577 46.834394 
L 129.659192 52.395868 
L 139.565135 62.443412 
L 153.07324 76.09662 
L 161.778463 84.577253 
L 168.982785 91.336897 
L 176.573139 98.178721 
L 184.055429 104.635099 
L 191.537418 110.810755 
L 199.019407 116.703999 
L 206.501396 122.330861 
L 213.983685 127.690657 
L 222.473379 133.479484 
L 230.963072 138.949315 
L 239.452766 144.134293 
L 247.94246 149.047634 
L 256.484985 153.725861 
L 265.027511 158.153559 
L 273.570036 162.344746 
L 282.112561 166.310398 
L 290.655087 170.058299 
L 299.197612 173.61482 
L 307.740137 176.985102 
L 316.282663 180.18017 
L 324.825188 183.208679 
L 337.638976 187.442858 
L 349.308478 191.019781 
L 360.972576 194.340117 
L 370.104655 196.777899 
L 372.387825 196.76666 
L 372.387825 196.76666 
" style="fill:none;stroke:#0000ff;stroke-dasharray:5.55,2.4;stroke-dashoffset:0;stroke-width:1.5;"/>
   </g>
   <g id="line2d_20">
    <path clip-path="url(#pf017195079)" d="M 71.724432 199.068586 
L 72.024612 199.021725 
L 72.384828 198.736356 
L 72.877123 198.02157 
L 73.549527 196.596055 
L 74.561134 193.857216 
L 79.228934 180.478279 
L 80.699817 177.153668 
L 82.230735 174.22381 
L 83.761654 171.779134 
L 85.382627 169.648529 
L 87.003599 167.922793 
L 88.534518 166.609431 
L 90.335598 165.401781 
L 92.106661 164.514734 
L 93.907741 163.87273 
L 95.678804 163.458789 
L 97.840101 163.197664 
L 99.97138 163.159892 
L 102.342802 163.331163 
L 105.044423 163.742722 
L 108.346404 164.491958 
L 112.548926 165.732984 
L 117.351807 167.417065 
L 123.95577 170.0076 
L 135.362614 174.786702 
L 151.872519 181.677801 
L 162.979183 186.082679 
L 172.832295 189.787479 
L 184.055429 193.762779 
L 195.278562 197.479691 
L 206.501396 200.941383 
L 216.813483 203.904648 
L 228.133275 206.93249 
L 239.452766 209.732806 
L 252.213722 212.633651 
L 265.027511 215.287012 
L 277.841299 217.701431 
L 290.655087 219.895379 
L 303.468875 221.884838 
L 316.282663 223.687628 
L 333.367714 225.824166 
L 349.308478 227.572043 
L 365.538616 229.134796 
L 370.104655 229.540033 
L 372.387825 229.874489 
L 372.387825 229.874489 
" style="fill:none;stroke:#0000ff;stroke-dasharray:5.55,2.4;stroke-dashoffset:0;stroke-width:1.5;"/>
   </g>
   <g id="line2d_21"/>
   <g id="line2d_22"/>
   <g id="line2d_23"/>
   <g id="line2d_24"/>
   <g id="line2d_25"/>
   <g id="line2d_26"/>
   <g id="patch_3">
    <path d="M 56.50625 239.758125 
L 56.50625 22.318125 
" style="fill:none;stroke:#000000;stroke-linecap:square;stroke-linejoin:miter;stroke-width:0.8;"/>
   </g>
   <g id="patch_4">
    <path d="M 391.30625 239.758125 
L 391.30625 22.318125 
" style="fill:none;stroke:#000000;stroke-linecap:square;stroke-linejoin:miter;stroke-width:0.8;"/>
   </g>
   <g id="patch_5">
    <path d="M 56.50625 239.758125 
L 391.30625 239.758125 
" style="fill:none;stroke:#000000;stroke-linecap:square;stroke-linejoin:miter;stroke-width:0.8;"/>
   </g>
   <g id="patch_6">
    <path d="M 56.50625 22.318125 
L 391.30625 22.318125 
" style="fill:none;stroke:#000000;stroke-linecap:square;stroke-linejoin:miter;stroke-width:0.8;"/>
   </g>
   <g id="text_18">
    <!-- Experiment_13 -->
    <defs>
     <path d="M 9.8125 72.90625 
L 55.90625 72.90625 
L 55.90625 64.59375 
L 19.671875 64.59375 
L 19.671875 43.015625 
L 54.390625 43.015625 
L 54.390625 34.71875 
L 19.671875 34.71875 
L 19.671875 8.296875 
L 56.78125 8.296875 
L 56.78125 0 
L 9.8125 0 
z
" id="DejaVuSans-69"/>
     <path d="M 54.890625 54.6875 
L 35.109375 28.078125 
L 55.90625 0 
L 45.3125 0 
L 29.390625 21.484375 
L 13.484375 0 
L 2.875 0 
L 24.125 28.609375 
L 4.6875 54.6875 
L 15.28125 54.6875 
L 29.78125 35.203125 
L 44.28125 54.6875 
z
" id="DejaVuSans-120"/>
     <path d="M 18.109375 8.203125 
L 18.109375 -20.796875 
L 9.078125 -20.796875 
L 9.078125 54.6875 
L 18.109375 54.6875 
L 18.109375 46.390625 
Q 20.953125 51.265625 25.265625 53.625 
Q 29.59375 56 35.59375 56 
Q 45.5625 56 51.78125 48.09375 
Q 58.015625 40.1875 58.015625 27.296875 
Q 58.015625 14.40625 51.78125 6.484375 
Q 45.5625 -1.421875 35.59375 -1.421875 
Q 29.59375 -1.421875 25.265625 0.953125 
Q 20.953125 3.328125 18.109375 8.203125 
z
M 48.6875 27.296875 
Q 48.6875 37.203125 44.609375 42.84375 
Q 40.53125 48.484375 33.40625 48.484375 
Q 26.265625 48.484375 22.1875 42.84375 
Q 18.109375 37.203125 18.109375 27.296875 
Q 18.109375 17.390625 22.1875 11.75 
Q 26.265625 6.109375 33.40625 6.109375 
Q 40.53125 6.109375 44.609375 11.75 
Q 48.6875 17.390625 48.6875 27.296875 
z
" id="DejaVuSans-112"/>
     <path d="M 18.3125 70.21875 
L 18.3125 54.6875 
L 36.8125 54.6875 
L 36.8125 47.703125 
L 18.3125 47.703125 
L 18.3125 18.015625 
Q 18.3125 11.328125 20.140625 9.421875 
Q 21.96875 7.515625 27.59375 7.515625 
L 36.8125 7.515625 
L 36.8125 0 
L 27.59375 0 
Q 17.1875 0 13.234375 3.875 
Q 9.28125 7.765625 9.28125 18.015625 
L 9.28125 47.703125 
L 2.6875 47.703125 
L 2.6875 54.6875 
L 9.28125 54.6875 
L 9.28125 70.21875 
z
" id="DejaVuSans-116"/>
     <path d="M 50.984375 -16.609375 
L 50.984375 -23.578125 
L -0.984375 -23.578125 
L -0.984375 -16.609375 
z
" id="DejaVuSans-95"/>
     <path d="M 40.578125 39.3125 
Q 47.65625 37.796875 51.625 33 
Q 55.609375 28.21875 55.609375 21.1875 
Q 55.609375 10.40625 48.1875 4.484375 
Q 40.765625 -1.421875 27.09375 -1.421875 
Q 22.515625 -1.421875 17.65625 -0.515625 
Q 12.796875 0.390625 7.625 2.203125 
L 7.625 11.71875 
Q 11.71875 9.328125 16.59375 8.109375 
Q 21.484375 6.890625 26.8125 6.890625 
Q 36.078125 6.890625 40.9375 10.546875 
Q 45.796875 14.203125 45.796875 21.1875 
Q 45.796875 27.640625 41.28125 31.265625 
Q 36.765625 34.90625 28.71875 34.90625 
L 20.21875 34.90625 
L 20.21875 43.015625 
L 29.109375 43.015625 
Q 36.375 43.015625 40.234375 45.921875 
Q 44.09375 48.828125 44.09375 54.296875 
Q 44.09375 59.90625 40.109375 62.90625 
Q 36.140625 65.921875 28.71875 65.921875 
Q 24.65625 65.921875 20.015625 65.03125 
Q 15.375 64.15625 9.8125 62.3125 
L 9.8125 71.09375 
Q 15.4375 72.65625 20.34375 73.4375 
Q 25.25 74.21875 29.59375 74.21875 
Q 40.828125 74.21875 47.359375 69.109375 
Q 53.90625 64.015625 53.90625 55.328125 
Q 53.90625 49.265625 50.4375 45.09375 
Q 46.96875 40.921875 40.578125 39.3125 
z
" id="DejaVuSans-51"/>
    </defs>
    <g transform="translate(178.603437 16.318125)scale(0.12 -0.12)">
     <use xlink:href="#DejaVuSans-69"/>
     <use x="63.183594" xlink:href="#DejaVuSans-120"/>
     <use x="122.363281" xlink:href="#DejaVuSans-112"/>
     <use x="185.839844" xlink:href="#DejaVuSans-101"/>
     <use x="247.363281" xlink:href="#DejaVuSans-114"/>
     <use x="288.476562" xlink:href="#DejaVuSans-105"/>
     <use x="316.259766" xlink:href="#DejaVuSans-109"/>
     <use x="413.671875" xlink:href="#DejaVuSans-101"/>
     <use x="475.195312" xlink:href="#DejaVuSans-110"/>
     <use x="538.574219" xlink:href="#DejaVuSans-116"/>
     <use x="577.783203" xlink:href="#DejaVuSans-95"/>
     <use x="627.783203" xlink:href="#DejaVuSans-49"/>
     <use x="691.40625" xlink:href="#DejaVuSans-51"/>
    </g>
   </g>
   <g id="legend_1">
    <g id="patch_7">
     <path d="M 128.185937 103.730625 
L 384.30625 103.730625 
Q 386.30625 103.730625 386.30625 101.730625 
L 386.30625 29.318125 
Q 386.30625 27.318125 384.30625 27.318125 
L 128.185937 27.318125 
Q 126.185937 27.318125 126.185937 29.318125 
L 126.185937 101.730625 
Q 126.185937 103.730625 128.185937 103.730625 
z
" style="fill:#ffffff;opacity:0.8;stroke:#cccccc;stroke-linejoin:miter;"/>
    </g>
    <g id="line2d_27"/>
    <g id="line2d_28">
     <g>
      <use style="stroke:#000000;" x="140.185937" xlink:href="#m812f3f1467" y="35.416562"/>
     </g>
    </g>
    <g id="text_19">
     <!-- Experimental Data -->
     <defs>
      <path d="M 9.421875 75.984375 
L 18.40625 75.984375 
L 18.40625 0 
L 9.421875 0 
z
" id="DejaVuSans-108"/>
      <path d="M 19.671875 64.796875 
L 19.671875 8.109375 
L 31.59375 8.109375 
Q 46.6875 8.109375 53.6875 14.9375 
Q 60.6875 21.78125 60.6875 36.53125 
Q 60.6875 51.171875 53.6875 57.984375 
Q 46.6875 64.796875 31.59375 64.796875 
z
M 9.8125 72.90625 
L 30.078125 72.90625 
Q 51.265625 72.90625 61.171875 64.09375 
Q 71.09375 55.28125 71.09375 36.53125 
Q 71.09375 17.671875 61.125 8.828125 
Q 51.171875 0 30.078125 0 
L 9.8125 0 
z
" id="DejaVuSans-68"/>
     </defs>
     <g transform="translate(158.185937 38.916562)scale(0.1 -0.1)">
      <use xlink:href="#DejaVuSans-69"/>
      <use x="63.183594" xlink:href="#DejaVuSans-120"/>
      <use x="122.363281" xlink:href="#DejaVuSans-112"/>
      <use x="185.839844" xlink:href="#DejaVuSans-101"/>
      <use x="247.363281" xlink:href="#DejaVuSans-114"/>
      <use x="288.476562" xlink:href="#DejaVuSans-105"/>
      <use x="316.259766" xlink:href="#DejaVuSans-109"/>
      <use x="413.671875" xlink:href="#DejaVuSans-101"/>
      <use x="475.195312" xlink:href="#DejaVuSans-110"/>
      <use x="538.574219" xlink:href="#DejaVuSans-116"/>
      <use x="577.783203" xlink:href="#DejaVuSans-97"/>
      <use x="639.0625" xlink:href="#DejaVuSans-108"/>
      <use x="666.845703" xlink:href="#DejaVuSans-32"/>
      <use x="698.632812" xlink:href="#DejaVuSans-68"/>
      <use x="775.634766" xlink:href="#DejaVuSans-97"/>
      <use x="836.914062" xlink:href="#DejaVuSans-116"/>
      <use x="876.123047" xlink:href="#DejaVuSans-97"/>
     </g>
    </g>
    <g id="line2d_29">
     <path d="M 130.185937 50.094687 
L 150.185937 50.094687 
" style="fill:none;stroke:#0000ff;stroke-linecap:square;stroke-width:1.5;"/>
    </g>
    <g id="line2d_30"/>
    <g id="text_20">
     <!-- MSI -->
     <defs>
      <path d="M 9.8125 72.90625 
L 24.515625 72.90625 
L 43.109375 23.296875 
L 61.8125 72.90625 
L 76.515625 72.90625 
L 76.515625 0 
L 66.890625 0 
L 66.890625 64.015625 
L 48.09375 14.015625 
L 38.1875 14.015625 
L 19.390625 64.015625 
L 19.390625 0 
L 9.8125 0 
z
" id="DejaVuSans-77"/>
      <path d="M 53.515625 70.515625 
L 53.515625 60.890625 
Q 47.90625 63.578125 42.921875 64.890625 
Q 37.9375 66.21875 33.296875 66.21875 
Q 25.25 66.21875 20.875 63.09375 
Q 16.5 59.96875 16.5 54.203125 
Q 16.5 49.359375 19.40625 46.890625 
Q 22.3125 44.4375 30.421875 42.921875 
L 36.375 41.703125 
Q 47.40625 39.59375 52.65625 34.296875 
Q 57.90625 29 57.90625 20.125 
Q 57.90625 9.515625 50.796875 4.046875 
Q 43.703125 -1.421875 29.984375 -1.421875 
Q 24.8125 -1.421875 18.96875 -0.25 
Q 13.140625 0.921875 6.890625 3.21875 
L 6.890625 13.375 
Q 12.890625 10.015625 18.65625 8.296875 
Q 24.421875 6.59375 29.984375 6.59375 
Q 38.421875 6.59375 43.015625 9.90625 
Q 47.609375 13.234375 47.609375 19.390625 
Q 47.609375 24.75 44.3125 27.78125 
Q 41.015625 30.8125 33.5 32.328125 
L 27.484375 33.5 
Q 16.453125 35.6875 11.515625 40.375 
Q 6.59375 45.0625 6.59375 53.421875 
Q 6.59375 63.09375 13.40625 68.65625 
Q 20.21875 74.21875 32.171875 74.21875 
Q 37.3125 74.21875 42.625 73.28125 
Q 47.953125 72.359375 53.515625 70.515625 
z
" id="DejaVuSans-83"/>
      <path d="M 9.8125 72.90625 
L 19.671875 72.90625 
L 19.671875 0 
L 9.8125 0 
z
" id="DejaVuSans-73"/>
     </defs>
     <g transform="translate(158.185937 53.594687)scale(0.1 -0.1)">
      <use xlink:href="#DejaVuSans-77"/>
      <use x="86.279297" xlink:href="#DejaVuSans-83"/>
      <use x="149.755859" xlink:href="#DejaVuSans-73"/>
     </g>
    </g>
    <g id="line2d_31">
     <path d="M 130.185937 64.774375 
L 150.185937 64.774375 
" style="fill:none;stroke:#ff0000;stroke-linecap:square;stroke-width:1.5;"/>
    </g>
    <g id="line2d_32"/>
    <g id="text_21">
     <!-- $\it{A priori}$ model -->
     <defs>
      <path d="M 36.8125 72.90625 
L 48 72.90625 
L 61.53125 0 
L 51.21875 0 
L 48.1875 18.703125 
L 15.375 18.703125 
L 5.078125 0 
L -5.328125 0 
z
M 40.375 63.1875 
L 19.921875 26.90625 
L 46.6875 26.90625 
z
" id="DejaVuSans-Oblique-65"/>
      <path d="M 49.609375 33.6875 
Q 49.609375 40.875 46.484375 44.671875 
Q 43.359375 48.484375 37.5 48.484375 
Q 33.5 48.484375 29.859375 46.4375 
Q 26.21875 44.390625 23.390625 40.484375 
Q 20.609375 36.625 18.9375 31.15625 
Q 17.28125 25.6875 17.28125 20.3125 
Q 17.28125 13.484375 20.40625 9.796875 
Q 23.53125 6.109375 29.296875 6.109375 
Q 33.546875 6.109375 37.1875 8.109375 
Q 40.828125 10.109375 43.40625 13.921875 
Q 46.1875 17.921875 47.890625 23.34375 
Q 49.609375 28.765625 49.609375 33.6875 
z
M 21.78125 46.390625 
Q 25.390625 51.125 30.296875 53.5625 
Q 35.203125 56 41.21875 56 
Q 49.609375 56 54.25 50.5 
Q 58.890625 45.015625 58.890625 35.109375 
Q 58.890625 27 56 19.65625 
Q 53.125 12.3125 47.703125 6.5 
Q 44.09375 2.640625 39.546875 0.609375 
Q 35.015625 -1.421875 29.984375 -1.421875 
Q 24.171875 -1.421875 20.21875 1 
Q 16.265625 3.421875 14.3125 8.203125 
L 8.6875 -20.796875 
L -0.296875 -20.796875 
L 14.40625 54.6875 
L 23.390625 54.6875 
z
" id="DejaVuSans-Oblique-112"/>
      <path d="M 44.578125 46.390625 
Q 43.21875 47.125 41.453125 47.515625 
Q 39.703125 47.90625 37.703125 47.90625 
Q 30.515625 47.90625 25.140625 42.453125 
Q 19.78125 37.015625 18.015625 27.875 
L 12.5 0 
L 3.515625 0 
L 14.203125 54.6875 
L 23.1875 54.6875 
L 21.484375 46.1875 
Q 25.046875 50.921875 30 53.453125 
Q 34.96875 56 40.578125 56 
Q 42.046875 56 43.453125 55.828125 
Q 44.875 55.671875 46.296875 55.28125 
z
" id="DejaVuSans-Oblique-114"/>
      <path d="M 18.3125 75.984375 
L 27.296875 75.984375 
L 25.09375 64.59375 
L 16.109375 64.59375 
z
M 14.203125 54.6875 
L 23.1875 54.6875 
L 12.5 0 
L 3.515625 0 
z
" id="DejaVuSans-Oblique-105"/>
      <path d="M 25.390625 -1.421875 
Q 15.765625 -1.421875 10.171875 4.515625 
Q 4.59375 10.453125 4.59375 20.703125 
Q 4.59375 26.65625 6.515625 32.828125 
Q 8.453125 39.015625 11.53125 43.21875 
Q 16.359375 49.75 22.3125 52.875 
Q 28.265625 56 35.796875 56 
Q 45.125 56 50.859375 50.1875 
Q 56.59375 44.390625 56.59375 35.015625 
Q 56.59375 28.515625 54.6875 22.0625 
Q 52.78125 15.625 49.703125 11.375 
Q 44.921875 4.828125 38.96875 1.703125 
Q 33.015625 -1.421875 25.390625 -1.421875 
z
M 13.921875 21 
Q 13.921875 13.578125 17.015625 9.890625 
Q 20.125 6.203125 26.421875 6.203125 
Q 35.453125 6.203125 41.375 14.078125 
Q 47.3125 21.96875 47.3125 34.078125 
Q 47.3125 41.15625 44.140625 44.765625 
Q 40.96875 48.390625 34.8125 48.390625 
Q 29.734375 48.390625 25.78125 46.015625 
Q 21.828125 43.65625 18.703125 38.8125 
Q 16.40625 35.203125 15.15625 30.5625 
Q 13.921875 25.921875 13.921875 21 
z
" id="DejaVuSans-Oblique-111"/>
      <path d="M 45.40625 46.390625 
L 45.40625 75.984375 
L 54.390625 75.984375 
L 54.390625 0 
L 45.40625 0 
L 45.40625 8.203125 
Q 42.578125 3.328125 38.25 0.953125 
Q 33.9375 -1.421875 27.875 -1.421875 
Q 17.96875 -1.421875 11.734375 6.484375 
Q 5.515625 14.40625 5.515625 27.296875 
Q 5.515625 40.1875 11.734375 48.09375 
Q 17.96875 56 27.875 56 
Q 33.9375 56 38.25 53.625 
Q 42.578125 51.265625 45.40625 46.390625 
z
M 14.796875 27.296875 
Q 14.796875 17.390625 18.875 11.75 
Q 22.953125 6.109375 30.078125 6.109375 
Q 37.203125 6.109375 41.296875 11.75 
Q 45.40625 17.390625 45.40625 27.296875 
Q 45.40625 37.203125 41.296875 42.84375 
Q 37.203125 48.484375 30.078125 48.484375 
Q 22.953125 48.484375 18.875 42.84375 
Q 14.796875 37.203125 14.796875 27.296875 
z
" id="DejaVuSans-100"/>
     </defs>
     <g transform="translate(158.185937 68.274375)scale(0.1 -0.1)">
      <use transform="translate(0 0.015625)" xlink:href="#DejaVuSans-Oblique-65"/>
      <use transform="translate(68.408203 0.015625)" xlink:href="#DejaVuSans-Oblique-112"/>
      <use transform="translate(131.884766 0.015625)" xlink:href="#DejaVuSans-Oblique-114"/>
      <use transform="translate(172.998047 0.015625)" xlink:href="#DejaVuSans-Oblique-105"/>
      <use transform="translate(200.78125 0.015625)" xlink:href="#DejaVuSans-Oblique-111"/>
      <use transform="translate(261.962891 0.015625)" xlink:href="#DejaVuSans-Oblique-114"/>
      <use transform="translate(303.076172 0.015625)" xlink:href="#DejaVuSans-Oblique-105"/>
      <use transform="translate(330.859375 0.015625)" xlink:href="#DejaVuSans-32"/>
      <use transform="translate(362.646484 0.015625)" xlink:href="#DejaVuSans-109"/>
      <use transform="translate(460.058594 0.015625)" xlink:href="#DejaVuSans-111"/>
      <use transform="translate(521.240234 0.015625)" xlink:href="#DejaVuSans-100"/>
      <use transform="translate(584.716797 0.015625)" xlink:href="#DejaVuSans-101"/>
      <use transform="translate(646.240234 0.015625)" xlink:href="#DejaVuSans-108"/>
     </g>
    </g>
    <g id="line2d_33">
     <path d="M 130.185937 79.472813 
L 150.185937 79.472813 
" style="fill:none;stroke:#ffffff;stroke-linecap:square;stroke-width:1.5;"/>
    </g>
    <g id="line2d_34"/>
    <g id="text_22">
     <!-- T:1138 -->
     <defs>
      <path d="M 11.71875 12.40625 
L 22.015625 12.40625 
L 22.015625 0 
L 11.71875 0 
z
M 11.71875 51.703125 
L 22.015625 51.703125 
L 22.015625 39.3125 
L 11.71875 39.3125 
z
" id="DejaVuSans-58"/>
     </defs>
     <g transform="translate(158.185937 82.972813)scale(0.1 -0.1)">
      <use xlink:href="#DejaVuSans-84"/>
      <use x="60.912109" xlink:href="#DejaVuSans-58"/>
      <use x="94.603516" xlink:href="#DejaVuSans-49"/>
      <use x="158.226562" xlink:href="#DejaVuSans-49"/>
      <use x="221.849609" xlink:href="#DejaVuSans-51"/>
      <use x="285.472656" xlink:href="#DejaVuSans-56"/>
     </g>
    </g>
    <g id="line2d_35">
     <path d="M 130.185937 94.150937 
L 150.185937 94.150937 
" style="fill:none;stroke:#ffffff;stroke-linecap:square;stroke-width:1.5;"/>
    </g>
    <g id="line2d_36"/>
    <g id="text_23">
     <!-- P:1.676 -->
     <defs>
      <path d="M 19.671875 64.796875 
L 19.671875 37.40625 
L 32.078125 37.40625 
Q 38.96875 37.40625 42.71875 40.96875 
Q 46.484375 44.53125 46.484375 51.125 
Q 46.484375 57.671875 42.71875 61.234375 
Q 38.96875 64.796875 32.078125 64.796875 
z
M 9.8125 72.90625 
L 32.078125 72.90625 
Q 44.34375 72.90625 50.609375 67.359375 
Q 56.890625 61.8125 56.890625 51.125 
Q 56.890625 40.328125 50.609375 34.8125 
Q 44.34375 29.296875 32.078125 29.296875 
L 19.671875 29.296875 
L 19.671875 0 
L 9.8125 0 
z
" id="DejaVuSans-80"/>
     </defs>
     <g transform="translate(158.185937 97.650937)scale(0.1 -0.1)">
      <use xlink:href="#DejaVuSans-80"/>
      <use x="60.302734" xlink:href="#DejaVuSans-58"/>
      <use x="93.994141" xlink:href="#DejaVuSans-49"/>
      <use x="157.617188" xlink:href="#DejaVuSans-46"/>
      <use x="189.404297" xlink:href="#DejaVuSans-54"/>
      <use x="253.027344" xlink:href="#DejaVuSans-55"/>
      <use x="316.650391" xlink:href="#DejaVuSans-54"/>
     </g>
    </g>
    <g id="line2d_37">
     <path d="M 271.926563 35.416562 
L 291.926563 35.416562 
" style="fill:none;stroke:#ffffff;stroke-linecap:square;stroke-width:1.5;"/>
    </g>
    <g id="line2d_38"/>
    <g id="text_24">
     <!-- H2O2: 0.001977 -->
     <defs>
      <path d="M 9.8125 72.90625 
L 19.671875 72.90625 
L 19.671875 43.015625 
L 55.515625 43.015625 
L 55.515625 72.90625 
L 65.375 72.90625 
L 65.375 0 
L 55.515625 0 
L 55.515625 34.71875 
L 19.671875 34.71875 
L 19.671875 0 
L 9.8125 0 
z
" id="DejaVuSans-72"/>
      <path d="M 39.40625 66.21875 
Q 28.65625 66.21875 22.328125 58.203125 
Q 16.015625 50.203125 16.015625 36.375 
Q 16.015625 22.609375 22.328125 14.59375 
Q 28.65625 6.59375 39.40625 6.59375 
Q 50.140625 6.59375 56.421875 14.59375 
Q 62.703125 22.609375 62.703125 36.375 
Q 62.703125 50.203125 56.421875 58.203125 
Q 50.140625 66.21875 39.40625 66.21875 
z
M 39.40625 74.21875 
Q 54.734375 74.21875 63.90625 63.9375 
Q 73.09375 53.65625 73.09375 36.375 
Q 73.09375 19.140625 63.90625 8.859375 
Q 54.734375 -1.421875 39.40625 -1.421875 
Q 24.03125 -1.421875 14.8125 8.828125 
Q 5.609375 19.09375 5.609375 36.375 
Q 5.609375 53.65625 14.8125 63.9375 
Q 24.03125 74.21875 39.40625 74.21875 
z
" id="DejaVuSans-79"/>
      <path d="M 10.984375 1.515625 
L 10.984375 10.5 
Q 14.703125 8.734375 18.5 7.8125 
Q 22.3125 6.890625 25.984375 6.890625 
Q 35.75 6.890625 40.890625 13.453125 
Q 46.046875 20.015625 46.78125 33.40625 
Q 43.953125 29.203125 39.59375 26.953125 
Q 35.25 24.703125 29.984375 24.703125 
Q 19.046875 24.703125 12.671875 31.3125 
Q 6.296875 37.9375 6.296875 49.421875 
Q 6.296875 60.640625 12.9375 67.421875 
Q 19.578125 74.21875 30.609375 74.21875 
Q 43.265625 74.21875 49.921875 64.515625 
Q 56.59375 54.828125 56.59375 36.375 
Q 56.59375 19.140625 48.40625 8.859375 
Q 40.234375 -1.421875 26.421875 -1.421875 
Q 22.703125 -1.421875 18.890625 -0.6875 
Q 15.09375 0.046875 10.984375 1.515625 
z
M 30.609375 32.421875 
Q 37.25 32.421875 41.125 36.953125 
Q 45.015625 41.5 45.015625 49.421875 
Q 45.015625 57.28125 41.125 61.84375 
Q 37.25 66.40625 30.609375 66.40625 
Q 23.96875 66.40625 20.09375 61.84375 
Q 16.21875 57.28125 16.21875 49.421875 
Q 16.21875 41.5 20.09375 36.953125 
Q 23.96875 32.421875 30.609375 32.421875 
z
" id="DejaVuSans-57"/>
     </defs>
     <g transform="translate(299.926563 38.916562)scale(0.1 -0.1)">
      <use xlink:href="#DejaVuSans-72"/>
      <use x="75.195312" xlink:href="#DejaVuSans-50"/>
      <use x="138.818359" xlink:href="#DejaVuSans-79"/>
      <use x="217.529297" xlink:href="#DejaVuSans-50"/>
      <use x="281.152344" xlink:href="#DejaVuSans-58"/>
      <use x="314.84375" xlink:href="#DejaVuSans-32"/>
      <use x="346.630859" xlink:href="#DejaVuSans-48"/>
      <use x="410.253906" xlink:href="#DejaVuSans-46"/>
      <use x="442.041016" xlink:href="#DejaVuSans-48"/>
      <use x="505.664062" xlink:href="#DejaVuSans-48"/>
      <use x="569.287109" xlink:href="#DejaVuSans-49"/>
      <use x="632.910156" xlink:href="#DejaVuSans-57"/>
      <use x="696.533203" xlink:href="#DejaVuSans-55"/>
      <use x="760.15625" xlink:href="#DejaVuSans-55"/>
     </g>
    </g>
    <g id="line2d_39">
     <path d="M 271.926563 50.094687 
L 291.926563 50.094687 
" style="fill:none;stroke:#ffffff;stroke-linecap:square;stroke-width:1.5;"/>
    </g>
    <g id="line2d_40"/>
    <g id="text_25">
     <!-- H2O: 0.001113 -->
     <g transform="translate(299.926563 53.594687)scale(0.1 -0.1)">
      <use xlink:href="#DejaVuSans-72"/>
      <use x="75.195312" xlink:href="#DejaVuSans-50"/>
      <use x="138.818359" xlink:href="#DejaVuSans-79"/>
      <use x="217.513672" xlink:href="#DejaVuSans-58"/>
      <use x="251.205078" xlink:href="#DejaVuSans-32"/>
      <use x="282.992188" xlink:href="#DejaVuSans-48"/>
      <use x="346.615234" xlink:href="#DejaVuSans-46"/>
      <use x="378.402344" xlink:href="#DejaVuSans-48"/>
      <use x="442.025391" xlink:href="#DejaVuSans-48"/>
      <use x="505.648438" xlink:href="#DejaVuSans-49"/>
      <use x="569.271484" xlink:href="#DejaVuSans-49"/>
      <use x="632.894531" xlink:href="#DejaVuSans-49"/>
      <use x="696.517578" xlink:href="#DejaVuSans-51"/>
     </g>
    </g>
    <g id="line2d_41">
     <path d="M 271.926563 64.772812 
L 291.926563 64.772812 
" style="fill:none;stroke:#ffffff;stroke-linecap:square;stroke-width:1.5;"/>
    </g>
    <g id="line2d_42"/>
    <g id="text_26">
     <!-- O2: 0.000556 -->
     <g transform="translate(299.926563 68.272812)scale(0.1 -0.1)">
      <use xlink:href="#DejaVuSans-79"/>
      <use x="78.710938" xlink:href="#DejaVuSans-50"/>
      <use x="142.333984" xlink:href="#DejaVuSans-58"/>
      <use x="176.025391" xlink:href="#DejaVuSans-32"/>
      <use x="207.8125" xlink:href="#DejaVuSans-48"/>
      <use x="271.435547" xlink:href="#DejaVuSans-46"/>
      <use x="303.222656" xlink:href="#DejaVuSans-48"/>
      <use x="366.845703" xlink:href="#DejaVuSans-48"/>
      <use x="430.46875" xlink:href="#DejaVuSans-48"/>
      <use x="494.091797" xlink:href="#DejaVuSans-53"/>
      <use x="557.714844" xlink:href="#DejaVuSans-53"/>
      <use x="621.337891" xlink:href="#DejaVuSans-54"/>
     </g>
    </g>
    <g id="line2d_43">
     <path d="M 271.926563 79.450938 
L 291.926563 79.450938 
" style="fill:none;stroke:#ffffff;stroke-linecap:square;stroke-width:1.5;"/>
    </g>
    <g id="line2d_44"/>
    <g id="text_27">
     <!-- Ar: 0.996329 -->
     <g transform="translate(299.926563 82.950938)scale(0.1 -0.1)">
      <use xlink:href="#DejaVuSans-65"/>
      <use x="68.408203" xlink:href="#DejaVuSans-114"/>
      <use x="109.505859" xlink:href="#DejaVuSans-58"/>
      <use x="143.197266" xlink:href="#DejaVuSans-32"/>
      <use x="174.984375" xlink:href="#DejaVuSans-48"/>
      <use x="238.607422" xlink:href="#DejaVuSans-46"/>
      <use x="270.394531" xlink:href="#DejaVuSans-57"/>
      <use x="334.017578" xlink:href="#DejaVuSans-57"/>
      <use x="397.640625" xlink:href="#DejaVuSans-54"/>
      <use x="461.263672" xlink:href="#DejaVuSans-51"/>
      <use x="524.886719" xlink:href="#DejaVuSans-50"/>
      <use x="588.509766" xlink:href="#DejaVuSans-57"/>
     </g>
    </g>
   </g>
  </g>
 </g>
 <defs>
  <clipPath id="pf017195079">
   <rect height="217.44" width="334.8" x="56.50625" y="22.318125"/>
  </clipPath>
 </defs>
</svg>
