<?xml version="1.0" encoding="utf-8" standalone="no"?>
<!DOCTYPE svg PUBLIC "-//W3C//DTD SVG 1.1//EN"
  "http://www.w3.org/Graphics/SVG/1.1/DTD/svg11.dtd">
<!-- Created with matplotlib (https://matplotlib.org/) -->
<svg height="277.314375pt" version="1.1" viewBox="0 0 398.828125 277.314375" width="398.828125pt" xmlns="http://www.w3.org/2000/svg" xmlns:xlink="http://www.w3.org/1999/xlink">
 <defs>
  <style type="text/css">
*{stroke-linecap:butt;stroke-linejoin:round;}
  </style>
 </defs>
 <g id="figure_1">
  <g id="patch_1">
   <path d="M 0 277.314375 
L 398.828125 277.314375 
L 398.828125 0 
L 0 0 
z
" style="fill:none;"/>
  </g>
  <g id="axes_1">
   <g id="patch_2">
    <path d="M 53.328125 239.758125 
L 388.128125 239.758125 
L 388.128125 22.318125 
L 53.328125 22.318125 
z
" style="fill:none;"/>
   </g>
   <g id="matplotlib.axis_1">
    <g id="xtick_1">
     <g id="line2d_1">
      <defs>
       <path d="M 0 0 
L 0 3.5 
" id="m1f8664358f" style="stroke:#000000;stroke-width:0.8;"/>
      </defs>
      <g>
       <use style="stroke:#000000;stroke-width:0.8;" x="68.546307" xlink:href="#m1f8664358f" y="239.758125"/>
      </g>
     </g>
     <g id="text_1">
      <!-- 0.0 -->
      <defs>
       <path d="M 31.78125 66.40625 
Q 24.171875 66.40625 20.328125 58.90625 
Q 16.5 51.421875 16.5 36.375 
Q 16.5 21.390625 20.328125 13.890625 
Q 24.171875 6.390625 31.78125 6.390625 
Q 39.453125 6.390625 43.28125 13.890625 
Q 47.125 21.390625 47.125 36.375 
Q 47.125 51.421875 43.28125 58.90625 
Q 39.453125 66.40625 31.78125 66.40625 
z
M 31.78125 74.21875 
Q 44.046875 74.21875 50.515625 64.515625 
Q 56.984375 54.828125 56.984375 36.375 
Q 56.984375 17.96875 50.515625 8.265625 
Q 44.046875 -1.421875 31.78125 -1.421875 
Q 19.53125 -1.421875 13.0625 8.265625 
Q 6.59375 17.96875 6.59375 36.375 
Q 6.59375 54.828125 13.0625 64.515625 
Q 19.53125 74.21875 31.78125 74.21875 
z
" id="DejaVuSans-48"/>
       <path d="M 10.6875 12.40625 
L 21 12.40625 
L 21 0 
L 10.6875 0 
z
" id="DejaVuSans-46"/>
      </defs>
      <g transform="translate(60.594744 254.356562)scale(0.1 -0.1)">
       <use xlink:href="#DejaVuSans-48"/>
       <use x="63.623047" xlink:href="#DejaVuSans-46"/>
       <use x="95.410156" xlink:href="#DejaVuSans-48"/>
      </g>
     </g>
    </g>
    <g id="xtick_2">
     <g id="line2d_2">
      <g>
       <use style="stroke:#000000;stroke-width:0.8;" x="129.060538" xlink:href="#m1f8664358f" y="239.758125"/>
      </g>
     </g>
     <g id="text_2">
      <!-- 0.2 -->
      <defs>
       <path d="M 19.1875 8.296875 
L 53.609375 8.296875 
L 53.609375 0 
L 7.328125 0 
L 7.328125 8.296875 
Q 12.9375 14.109375 22.625 23.890625 
Q 32.328125 33.6875 34.8125 36.53125 
Q 39.546875 41.84375 41.421875 45.53125 
Q 43.3125 49.21875 43.3125 52.78125 
Q 43.3125 58.59375 39.234375 62.25 
Q 35.15625 65.921875 28.609375 65.921875 
Q 23.96875 65.921875 18.8125 64.3125 
Q 13.671875 62.703125 7.8125 59.421875 
L 7.8125 69.390625 
Q 13.765625 71.78125 18.9375 73 
Q 24.125 74.21875 28.421875 74.21875 
Q 39.75 74.21875 46.484375 68.546875 
Q 53.21875 62.890625 53.21875 53.421875 
Q 53.21875 48.921875 51.53125 44.890625 
Q 49.859375 40.875 45.40625 35.40625 
Q 44.1875 33.984375 37.640625 27.21875 
Q 31.109375 20.453125 19.1875 8.296875 
z
" id="DejaVuSans-50"/>
      </defs>
      <g transform="translate(121.108976 254.356562)scale(0.1 -0.1)">
       <use xlink:href="#DejaVuSans-48"/>
       <use x="63.623047" xlink:href="#DejaVuSans-46"/>
       <use x="95.410156" xlink:href="#DejaVuSans-50"/>
      </g>
     </g>
    </g>
    <g id="xtick_3">
     <g id="line2d_3">
      <g>
       <use style="stroke:#000000;stroke-width:0.8;" x="189.574769" xlink:href="#m1f8664358f" y="239.758125"/>
      </g>
     </g>
     <g id="text_3">
      <!-- 0.4 -->
      <defs>
       <path d="M 37.796875 64.3125 
L 12.890625 25.390625 
L 37.796875 25.390625 
z
M 35.203125 72.90625 
L 47.609375 72.90625 
L 47.609375 25.390625 
L 58.015625 25.390625 
L 58.015625 17.1875 
L 47.609375 17.1875 
L 47.609375 0 
L 37.796875 0 
L 37.796875 17.1875 
L 4.890625 17.1875 
L 4.890625 26.703125 
z
" id="DejaVuSans-52"/>
      </defs>
      <g transform="translate(181.623207 254.356562)scale(0.1 -0.1)">
       <use xlink:href="#DejaVuSans-48"/>
       <use x="63.623047" xlink:href="#DejaVuSans-46"/>
       <use x="95.410156" xlink:href="#DejaVuSans-52"/>
      </g>
     </g>
    </g>
    <g id="xtick_4">
     <g id="line2d_4">
      <g>
       <use style="stroke:#000000;stroke-width:0.8;" x="250.089001" xlink:href="#m1f8664358f" y="239.758125"/>
      </g>
     </g>
     <g id="text_4">
      <!-- 0.6 -->
      <defs>
       <path d="M 33.015625 40.375 
Q 26.375 40.375 22.484375 35.828125 
Q 18.609375 31.296875 18.609375 23.390625 
Q 18.609375 15.53125 22.484375 10.953125 
Q 26.375 6.390625 33.015625 6.390625 
Q 39.65625 6.390625 43.53125 10.953125 
Q 47.40625 15.53125 47.40625 23.390625 
Q 47.40625 31.296875 43.53125 35.828125 
Q 39.65625 40.375 33.015625 40.375 
z
M 52.59375 71.296875 
L 52.59375 62.3125 
Q 48.875 64.0625 45.09375 64.984375 
Q 41.3125 65.921875 37.59375 65.921875 
Q 27.828125 65.921875 22.671875 59.328125 
Q 17.53125 52.734375 16.796875 39.40625 
Q 19.671875 43.65625 24.015625 45.921875 
Q 28.375 48.1875 33.59375 48.1875 
Q 44.578125 48.1875 50.953125 41.515625 
Q 57.328125 34.859375 57.328125 23.390625 
Q 57.328125 12.15625 50.6875 5.359375 
Q 44.046875 -1.421875 33.015625 -1.421875 
Q 20.359375 -1.421875 13.671875 8.265625 
Q 6.984375 17.96875 6.984375 36.375 
Q 6.984375 53.65625 15.1875 63.9375 
Q 23.390625 74.21875 37.203125 74.21875 
Q 40.921875 74.21875 44.703125 73.484375 
Q 48.484375 72.75 52.59375 71.296875 
z
" id="DejaVuSans-54"/>
      </defs>
      <g transform="translate(242.137438 254.356562)scale(0.1 -0.1)">
       <use xlink:href="#DejaVuSans-48"/>
       <use x="63.623047" xlink:href="#DejaVuSans-46"/>
       <use x="95.410156" xlink:href="#DejaVuSans-54"/>
      </g>
     </g>
    </g>
    <g id="xtick_5">
     <g id="line2d_5">
      <g>
       <use style="stroke:#000000;stroke-width:0.8;" x="310.603232" xlink:href="#m1f8664358f" y="239.758125"/>
      </g>
     </g>
     <g id="text_5">
      <!-- 0.8 -->
      <defs>
       <path d="M 31.78125 34.625 
Q 24.75 34.625 20.71875 30.859375 
Q 16.703125 27.09375 16.703125 20.515625 
Q 16.703125 13.921875 20.71875 10.15625 
Q 24.75 6.390625 31.78125 6.390625 
Q 38.8125 6.390625 42.859375 10.171875 
Q 46.921875 13.96875 46.921875 20.515625 
Q 46.921875 27.09375 42.890625 30.859375 
Q 38.875 34.625 31.78125 34.625 
z
M 21.921875 38.8125 
Q 15.578125 40.375 12.03125 44.71875 
Q 8.5 49.078125 8.5 55.328125 
Q 8.5 64.0625 14.71875 69.140625 
Q 20.953125 74.21875 31.78125 74.21875 
Q 42.671875 74.21875 48.875 69.140625 
Q 55.078125 64.0625 55.078125 55.328125 
Q 55.078125 49.078125 51.53125 44.71875 
Q 48 40.375 41.703125 38.8125 
Q 48.828125 37.15625 52.796875 32.3125 
Q 56.78125 27.484375 56.78125 20.515625 
Q 56.78125 9.90625 50.3125 4.234375 
Q 43.84375 -1.421875 31.78125 -1.421875 
Q 19.734375 -1.421875 13.25 4.234375 
Q 6.78125 9.90625 6.78125 20.515625 
Q 6.78125 27.484375 10.78125 32.3125 
Q 14.796875 37.15625 21.921875 38.8125 
z
M 18.3125 54.390625 
Q 18.3125 48.734375 21.84375 45.5625 
Q 25.390625 42.390625 31.78125 42.390625 
Q 38.140625 42.390625 41.71875 45.5625 
Q 45.3125 48.734375 45.3125 54.390625 
Q 45.3125 60.0625 41.71875 63.234375 
Q 38.140625 66.40625 31.78125 66.40625 
Q 25.390625 66.40625 21.84375 63.234375 
Q 18.3125 60.0625 18.3125 54.390625 
z
" id="DejaVuSans-56"/>
      </defs>
      <g transform="translate(302.65167 254.356562)scale(0.1 -0.1)">
       <use xlink:href="#DejaVuSans-48"/>
       <use x="63.623047" xlink:href="#DejaVuSans-46"/>
       <use x="95.410156" xlink:href="#DejaVuSans-56"/>
      </g>
     </g>
    </g>
    <g id="xtick_6">
     <g id="line2d_6">
      <g>
       <use style="stroke:#000000;stroke-width:0.8;" x="371.117463" xlink:href="#m1f8664358f" y="239.758125"/>
      </g>
     </g>
     <g id="text_6">
      <!-- 1.0 -->
      <defs>
       <path d="M 12.40625 8.296875 
L 28.515625 8.296875 
L 28.515625 63.921875 
L 10.984375 60.40625 
L 10.984375 69.390625 
L 28.421875 72.90625 
L 38.28125 72.90625 
L 38.28125 8.296875 
L 54.390625 8.296875 
L 54.390625 0 
L 12.40625 0 
z
" id="DejaVuSans-49"/>
      </defs>
      <g transform="translate(363.165901 254.356562)scale(0.1 -0.1)">
       <use xlink:href="#DejaVuSans-49"/>
       <use x="63.623047" xlink:href="#DejaVuSans-46"/>
       <use x="95.410156" xlink:href="#DejaVuSans-48"/>
      </g>
     </g>
    </g>
    <g id="text_7">
     <!-- Time (ms) -->
     <defs>
      <path d="M -0.296875 72.90625 
L 61.375 72.90625 
L 61.375 64.59375 
L 35.5 64.59375 
L 35.5 0 
L 25.59375 0 
L 25.59375 64.59375 
L -0.296875 64.59375 
z
" id="DejaVuSans-84"/>
      <path d="M 9.421875 54.6875 
L 18.40625 54.6875 
L 18.40625 0 
L 9.421875 0 
z
M 9.421875 75.984375 
L 18.40625 75.984375 
L 18.40625 64.59375 
L 9.421875 64.59375 
z
" id="DejaVuSans-105"/>
      <path d="M 52 44.1875 
Q 55.375 50.25 60.0625 53.125 
Q 64.75 56 71.09375 56 
Q 79.640625 56 84.28125 50.015625 
Q 88.921875 44.046875 88.921875 33.015625 
L 88.921875 0 
L 79.890625 0 
L 79.890625 32.71875 
Q 79.890625 40.578125 77.09375 44.375 
Q 74.3125 48.1875 68.609375 48.1875 
Q 61.625 48.1875 57.5625 43.546875 
Q 53.515625 38.921875 53.515625 30.90625 
L 53.515625 0 
L 44.484375 0 
L 44.484375 32.71875 
Q 44.484375 40.625 41.703125 44.40625 
Q 38.921875 48.1875 33.109375 48.1875 
Q 26.21875 48.1875 22.15625 43.53125 
Q 18.109375 38.875 18.109375 30.90625 
L 18.109375 0 
L 9.078125 0 
L 9.078125 54.6875 
L 18.109375 54.6875 
L 18.109375 46.1875 
Q 21.1875 51.21875 25.484375 53.609375 
Q 29.78125 56 35.6875 56 
Q 41.65625 56 45.828125 52.96875 
Q 50 49.953125 52 44.1875 
z
" id="DejaVuSans-109"/>
      <path d="M 56.203125 29.59375 
L 56.203125 25.203125 
L 14.890625 25.203125 
Q 15.484375 15.921875 20.484375 11.0625 
Q 25.484375 6.203125 34.421875 6.203125 
Q 39.59375 6.203125 44.453125 7.46875 
Q 49.3125 8.734375 54.109375 11.28125 
L 54.109375 2.78125 
Q 49.265625 0.734375 44.1875 -0.34375 
Q 39.109375 -1.421875 33.890625 -1.421875 
Q 20.796875 -1.421875 13.15625 6.1875 
Q 5.515625 13.8125 5.515625 26.8125 
Q 5.515625 40.234375 12.765625 48.109375 
Q 20.015625 56 32.328125 56 
Q 43.359375 56 49.78125 48.890625 
Q 56.203125 41.796875 56.203125 29.59375 
z
M 47.21875 32.234375 
Q 47.125 39.59375 43.09375 43.984375 
Q 39.0625 48.390625 32.421875 48.390625 
Q 24.90625 48.390625 20.390625 44.140625 
Q 15.875 39.890625 15.1875 32.171875 
z
" id="DejaVuSans-101"/>
      <path id="DejaVuSans-32"/>
      <path d="M 31 75.875 
Q 24.46875 64.65625 21.28125 53.65625 
Q 18.109375 42.671875 18.109375 31.390625 
Q 18.109375 20.125 21.3125 9.0625 
Q 24.515625 -2 31 -13.1875 
L 23.1875 -13.1875 
Q 15.875 -1.703125 12.234375 9.375 
Q 8.59375 20.453125 8.59375 31.390625 
Q 8.59375 42.28125 12.203125 53.3125 
Q 15.828125 64.359375 23.1875 75.875 
z
" id="DejaVuSans-40"/>
      <path d="M 44.28125 53.078125 
L 44.28125 44.578125 
Q 40.484375 46.53125 36.375 47.5 
Q 32.28125 48.484375 27.875 48.484375 
Q 21.1875 48.484375 17.84375 46.4375 
Q 14.5 44.390625 14.5 40.28125 
Q 14.5 37.15625 16.890625 35.375 
Q 19.28125 33.59375 26.515625 31.984375 
L 29.59375 31.296875 
Q 39.15625 29.25 43.1875 25.515625 
Q 47.21875 21.78125 47.21875 15.09375 
Q 47.21875 7.46875 41.1875 3.015625 
Q 35.15625 -1.421875 24.609375 -1.421875 
Q 20.21875 -1.421875 15.453125 -0.5625 
Q 10.6875 0.296875 5.421875 2 
L 5.421875 11.28125 
Q 10.40625 8.6875 15.234375 7.390625 
Q 20.0625 6.109375 24.8125 6.109375 
Q 31.15625 6.109375 34.5625 8.28125 
Q 37.984375 10.453125 37.984375 14.40625 
Q 37.984375 18.0625 35.515625 20.015625 
Q 33.0625 21.96875 24.703125 23.78125 
L 21.578125 24.515625 
Q 13.234375 26.265625 9.515625 29.90625 
Q 5.8125 33.546875 5.8125 39.890625 
Q 5.8125 47.609375 11.28125 51.796875 
Q 16.75 56 26.8125 56 
Q 31.78125 56 36.171875 55.265625 
Q 40.578125 54.546875 44.28125 53.078125 
z
" id="DejaVuSans-115"/>
      <path d="M 8.015625 75.875 
L 15.828125 75.875 
Q 23.140625 64.359375 26.78125 53.3125 
Q 30.421875 42.28125 30.421875 31.390625 
Q 30.421875 20.453125 26.78125 9.375 
Q 23.140625 -1.703125 15.828125 -13.1875 
L 8.015625 -13.1875 
Q 14.5 -2 17.703125 9.0625 
Q 20.90625 20.125 20.90625 31.390625 
Q 20.90625 42.671875 17.703125 53.65625 
Q 14.5 64.65625 8.015625 75.875 
z
" id="DejaVuSans-41"/>
     </defs>
     <g transform="translate(195.375 268.034687)scale(0.1 -0.1)">
      <use xlink:href="#DejaVuSans-84"/>
      <use x="61.037109" xlink:href="#DejaVuSans-105"/>
      <use x="88.820312" xlink:href="#DejaVuSans-109"/>
      <use x="186.232422" xlink:href="#DejaVuSans-101"/>
      <use x="247.755859" xlink:href="#DejaVuSans-32"/>
      <use x="279.542969" xlink:href="#DejaVuSans-40"/>
      <use x="318.556641" xlink:href="#DejaVuSans-109"/>
      <use x="415.96875" xlink:href="#DejaVuSans-115"/>
      <use x="468.068359" xlink:href="#DejaVuSans-41"/>
     </g>
    </g>
   </g>
   <g id="matplotlib.axis_2">
    <g id="ytick_1">
     <g id="line2d_7">
      <defs>
       <path d="M 0 0 
L -3.5 0 
" id="m1f9d554c71" style="stroke:#000000;stroke-width:0.8;"/>
      </defs>
      <g>
       <use style="stroke:#000000;stroke-width:0.8;" x="53.328125" xlink:href="#m1f9d554c71" y="224.649485"/>
      </g>
     </g>
     <g id="text_8">
      <!-- 1000 -->
      <g transform="translate(20.878125 228.448704)scale(0.1 -0.1)">
       <use xlink:href="#DejaVuSans-49"/>
       <use x="63.623047" xlink:href="#DejaVuSans-48"/>
       <use x="127.246094" xlink:href="#DejaVuSans-48"/>
       <use x="190.869141" xlink:href="#DejaVuSans-48"/>
      </g>
     </g>
    </g>
    <g id="ytick_2">
     <g id="line2d_8">
      <g>
       <use style="stroke:#000000;stroke-width:0.8;" x="53.328125" xlink:href="#m1f9d554c71" y="199.093634"/>
      </g>
     </g>
     <g id="text_9">
      <!-- 1250 -->
      <defs>
       <path d="M 10.796875 72.90625 
L 49.515625 72.90625 
L 49.515625 64.59375 
L 19.828125 64.59375 
L 19.828125 46.734375 
Q 21.96875 47.46875 24.109375 47.828125 
Q 26.265625 48.1875 28.421875 48.1875 
Q 40.625 48.1875 47.75 41.5 
Q 54.890625 34.8125 54.890625 23.390625 
Q 54.890625 11.625 47.5625 5.09375 
Q 40.234375 -1.421875 26.90625 -1.421875 
Q 22.3125 -1.421875 17.546875 -0.640625 
Q 12.796875 0.140625 7.71875 1.703125 
L 7.71875 11.625 
Q 12.109375 9.234375 16.796875 8.0625 
Q 21.484375 6.890625 26.703125 6.890625 
Q 35.15625 6.890625 40.078125 11.328125 
Q 45.015625 15.765625 45.015625 23.390625 
Q 45.015625 31 40.078125 35.4375 
Q 35.15625 39.890625 26.703125 39.890625 
Q 22.75 39.890625 18.8125 39.015625 
Q 14.890625 38.140625 10.796875 36.28125 
z
" id="DejaVuSans-53"/>
      </defs>
      <g transform="translate(20.878125 202.892852)scale(0.1 -0.1)">
       <use xlink:href="#DejaVuSans-49"/>
       <use x="63.623047" xlink:href="#DejaVuSans-50"/>
       <use x="127.246094" xlink:href="#DejaVuSans-53"/>
       <use x="190.869141" xlink:href="#DejaVuSans-48"/>
      </g>
     </g>
    </g>
    <g id="ytick_3">
     <g id="line2d_9">
      <g>
       <use style="stroke:#000000;stroke-width:0.8;" x="53.328125" xlink:href="#m1f9d554c71" y="173.537782"/>
      </g>
     </g>
     <g id="text_10">
      <!-- 1500 -->
      <g transform="translate(20.878125 177.337001)scale(0.1 -0.1)">
       <use xlink:href="#DejaVuSans-49"/>
       <use x="63.623047" xlink:href="#DejaVuSans-53"/>
       <use x="127.246094" xlink:href="#DejaVuSans-48"/>
       <use x="190.869141" xlink:href="#DejaVuSans-48"/>
      </g>
     </g>
    </g>
    <g id="ytick_4">
     <g id="line2d_10">
      <g>
       <use style="stroke:#000000;stroke-width:0.8;" x="53.328125" xlink:href="#m1f9d554c71" y="147.981931"/>
      </g>
     </g>
     <g id="text_11">
      <!-- 1750 -->
      <defs>
       <path d="M 8.203125 72.90625 
L 55.078125 72.90625 
L 55.078125 68.703125 
L 28.609375 0 
L 18.3125 0 
L 43.21875 64.59375 
L 8.203125 64.59375 
z
" id="DejaVuSans-55"/>
      </defs>
      <g transform="translate(20.878125 151.78115)scale(0.1 -0.1)">
       <use xlink:href="#DejaVuSans-49"/>
       <use x="63.623047" xlink:href="#DejaVuSans-55"/>
       <use x="127.246094" xlink:href="#DejaVuSans-53"/>
       <use x="190.869141" xlink:href="#DejaVuSans-48"/>
      </g>
     </g>
    </g>
    <g id="ytick_5">
     <g id="line2d_11">
      <g>
       <use style="stroke:#000000;stroke-width:0.8;" x="53.328125" xlink:href="#m1f9d554c71" y="122.42608"/>
      </g>
     </g>
     <g id="text_12">
      <!-- 2000 -->
      <g transform="translate(20.878125 126.225299)scale(0.1 -0.1)">
       <use xlink:href="#DejaVuSans-50"/>
       <use x="63.623047" xlink:href="#DejaVuSans-48"/>
       <use x="127.246094" xlink:href="#DejaVuSans-48"/>
       <use x="190.869141" xlink:href="#DejaVuSans-48"/>
      </g>
     </g>
    </g>
    <g id="ytick_6">
     <g id="line2d_12">
      <g>
       <use style="stroke:#000000;stroke-width:0.8;" x="53.328125" xlink:href="#m1f9d554c71" y="96.870229"/>
      </g>
     </g>
     <g id="text_13">
      <!-- 2250 -->
      <g transform="translate(20.878125 100.669447)scale(0.1 -0.1)">
       <use xlink:href="#DejaVuSans-50"/>
       <use x="63.623047" xlink:href="#DejaVuSans-50"/>
       <use x="127.246094" xlink:href="#DejaVuSans-53"/>
       <use x="190.869141" xlink:href="#DejaVuSans-48"/>
      </g>
     </g>
    </g>
    <g id="ytick_7">
     <g id="line2d_13">
      <g>
       <use style="stroke:#000000;stroke-width:0.8;" x="53.328125" xlink:href="#m1f9d554c71" y="71.314377"/>
      </g>
     </g>
     <g id="text_14">
      <!-- 2500 -->
      <g transform="translate(20.878125 75.113596)scale(0.1 -0.1)">
       <use xlink:href="#DejaVuSans-50"/>
       <use x="63.623047" xlink:href="#DejaVuSans-53"/>
       <use x="127.246094" xlink:href="#DejaVuSans-48"/>
       <use x="190.869141" xlink:href="#DejaVuSans-48"/>
      </g>
     </g>
    </g>
    <g id="ytick_8">
     <g id="line2d_14">
      <g>
       <use style="stroke:#000000;stroke-width:0.8;" x="53.328125" xlink:href="#m1f9d554c71" y="45.758526"/>
      </g>
     </g>
     <g id="text_15">
      <!-- 2750 -->
      <g transform="translate(20.878125 49.557745)scale(0.1 -0.1)">
       <use xlink:href="#DejaVuSans-50"/>
       <use x="63.623047" xlink:href="#DejaVuSans-55"/>
       <use x="127.246094" xlink:href="#DejaVuSans-53"/>
       <use x="190.869141" xlink:href="#DejaVuSans-48"/>
      </g>
     </g>
    </g>
    <g id="text_16">
     <!-- ppmH2O -->
     <defs>
      <path d="M 18.109375 8.203125 
L 18.109375 -20.796875 
L 9.078125 -20.796875 
L 9.078125 54.6875 
L 18.109375 54.6875 
L 18.109375 46.390625 
Q 20.953125 51.265625 25.265625 53.625 
Q 29.59375 56 35.59375 56 
Q 45.5625 56 51.78125 48.09375 
Q 58.015625 40.1875 58.015625 27.296875 
Q 58.015625 14.40625 51.78125 6.484375 
Q 45.5625 -1.421875 35.59375 -1.421875 
Q 29.59375 -1.421875 25.265625 0.953125 
Q 20.953125 3.328125 18.109375 8.203125 
z
M 48.6875 27.296875 
Q 48.6875 37.203125 44.609375 42.84375 
Q 40.53125 48.484375 33.40625 48.484375 
Q 26.265625 48.484375 22.1875 42.84375 
Q 18.109375 37.203125 18.109375 27.296875 
Q 18.109375 17.390625 22.1875 11.75 
Q 26.265625 6.109375 33.40625 6.109375 
Q 40.53125 6.109375 44.609375 11.75 
Q 48.6875 17.390625 48.6875 27.296875 
z
" id="DejaVuSans-112"/>
      <path d="M 9.8125 72.90625 
L 19.671875 72.90625 
L 19.671875 43.015625 
L 55.515625 43.015625 
L 55.515625 72.90625 
L 65.375 72.90625 
L 65.375 0 
L 55.515625 0 
L 55.515625 34.71875 
L 19.671875 34.71875 
L 19.671875 0 
L 9.8125 0 
z
" id="DejaVuSans-72"/>
      <path d="M 39.40625 66.21875 
Q 28.65625 66.21875 22.328125 58.203125 
Q 16.015625 50.203125 16.015625 36.375 
Q 16.015625 22.609375 22.328125 14.59375 
Q 28.65625 6.59375 39.40625 6.59375 
Q 50.140625 6.59375 56.421875 14.59375 
Q 62.703125 22.609375 62.703125 36.375 
Q 62.703125 50.203125 56.421875 58.203125 
Q 50.140625 66.21875 39.40625 66.21875 
z
M 39.40625 74.21875 
Q 54.734375 74.21875 63.90625 63.9375 
Q 73.09375 53.65625 73.09375 36.375 
Q 73.09375 19.140625 63.90625 8.859375 
Q 54.734375 -1.421875 39.40625 -1.421875 
Q 24.03125 -1.421875 14.8125 8.828125 
Q 5.609375 19.09375 5.609375 36.375 
Q 5.609375 53.65625 14.8125 63.9375 
Q 24.03125 74.21875 39.40625 74.21875 
z
" id="DejaVuSans-79"/>
     </defs>
     <g transform="translate(14.798438 153.134219)rotate(-90)scale(0.1 -0.1)">
      <use xlink:href="#DejaVuSans-112"/>
      <use x="63.476562" xlink:href="#DejaVuSans-112"/>
      <use x="126.953125" xlink:href="#DejaVuSans-109"/>
      <use x="224.365234" xlink:href="#DejaVuSans-72"/>
      <use x="299.560547" xlink:href="#DejaVuSans-50"/>
      <use x="363.183594" xlink:href="#DejaVuSans-79"/>
     </g>
    </g>
   </g>
   <g id="line2d_15">
    <path clip-path="url(#pf74d7f5efe)" d="M 68.546307 213.117747 
L 68.968295 213.022033 
L 69.485105 212.676509 
L 70.177604 211.903629 
L 71.008603 210.628808 
L 72.265038 208.228453 
L 74.254393 203.838982 
L 81.143633 188.297583 
L 84.736591 180.891172 
L 88.450185 173.741264 
L 92.405629 166.616051 
L 96.397887 159.876662 
L 100.786545 152.938203 
L 105.175203 146.447976 
L 109.015279 141.108213 
L 113.132725 135.710315 
L 117.250172 130.630179 
L 121.367618 125.848421 
L 126.308553 120.479468 
L 131.249488 115.487026 
L 135.644644 111.341716 
L 140.452945 107.105002 
L 145.673587 102.83464 
L 150.528485 99.150513 
L 156.049189 95.273282 
L 161.687779 91.630885 
L 167.32637 88.284523 
L 172.96496 85.210869 
L 179.246155 82.081632 
L 185.547819 79.227552 
L 191.717279 76.685656 
L 198.131373 74.283856 
L 205.905712 71.670011 
L 213.680051 69.347869 
L 220.657879 67.485224 
L 229.929854 65.297263 
L 239.20183 63.397 
L 248.473806 61.74626 
L 257.745781 60.311873 
L 267.017757 59.065055 
L 279.380391 57.651744 
L 291.743025 56.477717 
L 304.10566 55.501545 
L 320.219069 54.470452 
L 337.556397 53.602776 
L 358.179299 52.818981 
L 372.909943 52.385573 
L 372.909943 52.385573 
" style="fill:none;stroke:#0000ff;stroke-linecap:square;stroke-width:1.5;"/>
   </g>
   <g id="line2d_16">
    <path clip-path="url(#pf74d7f5efe)" d="M 68.546307 213.095396 
L 69.052841 212.985983 
L 69.602617 212.64 
L 70.248544 211.973201 
L 71.079021 210.768204 
L 72.094048 208.86701 
L 73.385901 205.937807 
L 75.144098 201.360201 
L 78.753594 191.161869 
L 82.780136 180.047508 
L 86.112627 171.533083 
L 89.344051 163.900256 
L 92.471676 157.046598 
L 95.764884 150.336946 
L 99.113295 143.99184 
L 102.461705 138.080495 
L 106.052774 132.17879 
L 109.657784 126.671169 
L 113.262794 121.547315 
L 116.867803 116.777605 
L 120.472813 112.335784 
L 124.077823 108.198236 
L 128.316217 103.69393 
L 132.315272 99.773845 
L 136.292932 96.167848 
L 140.663698 92.516389 
L 145.034465 89.16456 
L 148.959699 86.389521 
L 153.414947 83.487874 
L 158.31898 80.573658 
L 163.223013 77.926529 
L 168.940612 75.144954 
L 174.658211 72.658158 
L 180.375811 70.434738 
L 186.09341 68.446588 
L 191.811009 66.668561 
L 197.528609 65.078167 
L 205.152075 63.215085 
L 212.775541 61.608252 
L 220.353537 60.229368 
L 229.118081 58.866357 
L 238.056788 57.692978 
L 249.230172 56.480739 
L 260.403555 55.498686 
L 273.811616 54.560506 
L 289.454353 53.720807 
L 307.331767 53.008885 
L 327.443858 52.43137 
L 354.259979 51.905323 
L 372.137394 51.657422 
L 372.137394 51.657422 
" style="fill:none;stroke:#ff0000;stroke-linecap:square;stroke-width:1.5;"/>
   </g>
   <g id="line2d_17">
    <defs>
     <path d="M 0 3 
C 0.795609 3 1.55874 2.683901 2.12132 2.12132 
C 2.683901 1.55874 3 0.795609 3 0 
C 3 -0.795609 2.683901 -1.55874 2.12132 -2.12132 
C 1.55874 -2.683901 0.795609 -3 0 -3 
C -0.795609 -3 -1.55874 -2.683901 -2.12132 -2.12132 
C -2.683901 -1.55874 -3 -0.795609 -3 0 
C -3 0.795609 -2.683901 1.55874 -2.12132 2.12132 
C -1.55874 2.683901 -0.795609 3 0 3 
z
" id="me8cf22af39" style="stroke:#000000;"/>
    </defs>
    <g clip-path="url(#pf74d7f5efe)">
     <use style="stroke:#000000;" x="68.546307" xlink:href="#me8cf22af39" y="213.095173"/>
     <use style="stroke:#000000;" x="68.546315" xlink:href="#me8cf22af39" y="213.095173"/>
     <use style="stroke:#000000;" x="68.546342" xlink:href="#me8cf22af39" y="213.095173"/>
     <use style="stroke:#000000;" x="68.546369" xlink:href="#me8cf22af39" y="213.095173"/>
     <use style="stroke:#000000;" x="68.546395" xlink:href="#me8cf22af39" y="213.095173"/>
     <use style="stroke:#000000;" x="68.546436" xlink:href="#me8cf22af39" y="213.095173"/>
     <use style="stroke:#000000;" x="68.546503" xlink:href="#me8cf22af39" y="213.095173"/>
     <use style="stroke:#000000;" x="68.546615" xlink:href="#me8cf22af39" y="213.095173"/>
     <use style="stroke:#000000;" x="68.546812" xlink:href="#me8cf22af39" y="213.095173"/>
     <use style="stroke:#000000;" x="68.547157" xlink:href="#me8cf22af39" y="213.095173"/>
     <use style="stroke:#000000;" x="68.547865" xlink:href="#me8cf22af39" y="213.095173"/>
     <use style="stroke:#000000;" x="68.548576" xlink:href="#me8cf22af39" y="213.095173"/>
     <use style="stroke:#000000;" x="68.549287" xlink:href="#me8cf22af39" y="213.095173"/>
     <use style="stroke:#000000;" x="68.550392" xlink:href="#me8cf22af39" y="213.095173"/>
     <use style="stroke:#000000;" x="68.551511" xlink:href="#me8cf22af39" y="213.095173"/>
     <use style="stroke:#000000;" x="68.5526" xlink:href="#me8cf22af39" y="213.095173"/>
     <use style="stroke:#000000;" x="68.55372" xlink:href="#me8cf22af39" y="213.095173"/>
     <use style="stroke:#000000;" x="68.555777" xlink:href="#me8cf22af39" y="213.095173"/>
     <use style="stroke:#000000;" x="68.557835" xlink:href="#me8cf22af39" y="213.095173"/>
     <use style="stroke:#000000;" x="68.559923" xlink:href="#me8cf22af39" y="213.095173"/>
     <use style="stroke:#000000;" x="68.563372" xlink:href="#me8cf22af39" y="213.095173"/>
     <use style="stroke:#000000;" x="68.569514" xlink:href="#me8cf22af39" y="213.095173"/>
     <use style="stroke:#000000;" x="68.575656" xlink:href="#me8cf22af39" y="213.095173"/>
     <use style="stroke:#000000;" x="68.581708" xlink:href="#me8cf22af39" y="213.094151"/>
     <use style="stroke:#000000;" x="68.588062" xlink:href="#me8cf22af39" y="213.094151"/>
     <use style="stroke:#000000;" x="68.598046" xlink:href="#me8cf22af39" y="213.093129"/>
     <use style="stroke:#000000;" x="68.608031" xlink:href="#me8cf22af39" y="213.092107"/>
     <use style="stroke:#000000;" x="68.618016" xlink:href="#me8cf22af39" y="213.091084"/>
     <use style="stroke:#000000;" x="68.628304" xlink:href="#me8cf22af39" y="213.090062"/>
     <use style="stroke:#000000;" x="68.638288" xlink:href="#me8cf22af39" y="213.08904"/>
     <use style="stroke:#000000;" x="68.648273" xlink:href="#me8cf22af39" y="213.088018"/>
     <use style="stroke:#000000;" x="68.658258" xlink:href="#me8cf22af39" y="213.085973"/>
     <use style="stroke:#000000;" x="68.676412" xlink:href="#me8cf22af39" y="213.082906"/>
     <use style="stroke:#000000;" x="68.694869" xlink:href="#me8cf22af39" y="213.078818"/>
     <use style="stroke:#000000;" x="68.722706" xlink:href="#me8cf22af39" y="213.072684"/>
     <use style="stroke:#000000;" x="68.750845" xlink:href="#me8cf22af39" y="213.064506"/>
     <use style="stroke:#000000;" x="68.778681" xlink:href="#me8cf22af39" y="213.056328"/>
     <use style="stroke:#000000;" x="68.806821" xlink:href="#me8cf22af39" y="213.046106"/>
     <use style="stroke:#000000;" x="68.834657" xlink:href="#me8cf22af39" y="213.034861"/>
     <use style="stroke:#000000;" x="68.879135" xlink:href="#me8cf22af39" y="213.015439"/>
     <use style="stroke:#000000;" x="68.924521" xlink:href="#me8cf22af39" y="212.99295"/>
     <use style="stroke:#000000;" x="68.969906" xlink:href="#me8cf22af39" y="212.968416"/>
     <use style="stroke:#000000;" x="69.015292" xlink:href="#me8cf22af39" y="212.941838"/>
     <use style="stroke:#000000;" x="69.060678" xlink:href="#me8cf22af39" y="212.912193"/>
     <use style="stroke:#000000;" x="69.103038" xlink:href="#me8cf22af39" y="212.880504"/>
     <use style="stroke:#000000;" x="69.148423" xlink:href="#me8cf22af39" y="212.84677"/>
     <use style="stroke:#000000;" x="69.193809" xlink:href="#me8cf22af39" y="212.810992"/>
     <use style="stroke:#000000;" x="69.239195" xlink:href="#me8cf22af39" y="212.772147"/>
     <use style="stroke:#000000;" x="69.28458" xlink:href="#me8cf22af39" y="212.73228"/>
     <use style="stroke:#000000;" x="69.329966" xlink:href="#me8cf22af39" y="212.690369"/>
     <use style="stroke:#000000;" x="69.372326" xlink:href="#me8cf22af39" y="212.64539"/>
     <use style="stroke:#000000;" x="69.417712" xlink:href="#me8cf22af39" y="212.59939"/>
     <use style="stroke:#000000;" x="69.463097" xlink:href="#me8cf22af39" y="212.551345"/>
     <use style="stroke:#000000;" x="69.508483" xlink:href="#me8cf22af39" y="212.502278"/>
     <use style="stroke:#000000;" x="69.553869" xlink:href="#me8cf22af39" y="212.450144"/>
     <use style="stroke:#000000;" x="69.620434" xlink:href="#me8cf22af39" y="212.370409"/>
     <use style="stroke:#000000;" x="69.687" xlink:href="#me8cf22af39" y="212.285564"/>
     <use style="stroke:#000000;" x="69.756591" xlink:href="#me8cf22af39" y="212.198674"/>
     <use style="stroke:#000000;" x="69.823157" xlink:href="#me8cf22af39" y="212.107695"/>
     <use style="stroke:#000000;" x="69.889723" xlink:href="#me8cf22af39" y="212.012627"/>
     <use style="stroke:#000000;" x="69.959314" xlink:href="#me8cf22af39" y="211.915515"/>
     <use style="stroke:#000000;" x="70.02588" xlink:href="#me8cf22af39" y="211.815336"/>
     <use style="stroke:#000000;" x="70.092445" xlink:href="#me8cf22af39" y="211.712091"/>
     <use style="stroke:#000000;" x="70.159011" xlink:href="#me8cf22af39" y="211.606801"/>
     <use style="stroke:#000000;" x="70.228602" xlink:href="#me8cf22af39" y="211.497421"/>
     <use style="stroke:#000000;" x="70.295168" xlink:href="#me8cf22af39" y="211.38702"/>
     <use style="stroke:#000000;" x="70.361734" xlink:href="#me8cf22af39" y="211.273552"/>
     <use style="stroke:#000000;" x="70.428299" xlink:href="#me8cf22af39" y="211.15804"/>
     <use style="stroke:#000000;" x="70.497891" xlink:href="#me8cf22af39" y="211.039461"/>
     <use style="stroke:#000000;" x="70.564456" xlink:href="#me8cf22af39" y="210.919859"/>
     <use style="stroke:#000000;" x="70.631022" xlink:href="#me8cf22af39" y="210.797191"/>
     <use style="stroke:#000000;" x="70.700613" xlink:href="#me8cf22af39" y="210.673501"/>
     <use style="stroke:#000000;" x="70.767179" xlink:href="#me8cf22af39" y="210.546744"/>
     <use style="stroke:#000000;" x="70.833745" xlink:href="#me8cf22af39" y="210.419987"/>
     <use style="stroke:#000000;" x="70.90031" xlink:href="#me8cf22af39" y="210.290163"/>
     <use style="stroke:#000000;" x="70.969902" xlink:href="#me8cf22af39" y="210.159317"/>
     <use style="stroke:#000000;" x="71.036467" xlink:href="#me8cf22af39" y="210.026427"/>
     <use style="stroke:#000000;" x="71.103033" xlink:href="#me8cf22af39" y="209.892514"/>
     <use style="stroke:#000000;" x="71.172624" xlink:href="#me8cf22af39" y="209.756557"/>
     <use style="stroke:#000000;" x="71.23919" xlink:href="#me8cf22af39" y="209.619578"/>
     <use style="stroke:#000000;" x="71.305756" xlink:href="#me8cf22af39" y="209.481576"/>
     <use style="stroke:#000000;" x="71.372321" xlink:href="#me8cf22af39" y="209.342552"/>
     <use style="stroke:#000000;" x="71.441913" xlink:href="#me8cf22af39" y="209.201484"/>
     <use style="stroke:#000000;" x="71.508478" xlink:href="#me8cf22af39" y="209.060416"/>
     <use style="stroke:#000000;" x="71.572018" xlink:href="#me8cf22af39" y="208.917303"/>
     <use style="stroke:#000000;" x="71.632533" xlink:href="#me8cf22af39" y="208.773168"/>
     <use style="stroke:#000000;" x="71.723304" xlink:href="#me8cf22af39" y="208.629033"/>
     <use style="stroke:#000000;" x="71.783818" xlink:href="#me8cf22af39" y="208.482853"/>
     <use style="stroke:#000000;" x="71.844332" xlink:href="#me8cf22af39" y="208.336674"/>
     <use style="stroke:#000000;" x="71.904847" xlink:href="#me8cf22af39" y="208.189472"/>
     <use style="stroke:#000000;" x="71.965361" xlink:href="#me8cf22af39" y="208.041248"/>
     <use style="stroke:#000000;" x="72.056132" xlink:href="#me8cf22af39" y="207.892002"/>
     <use style="stroke:#000000;" x="72.116646" xlink:href="#me8cf22af39" y="207.742756"/>
     <use style="stroke:#000000;" x="72.177161" xlink:href="#me8cf22af39" y="207.592487"/>
     <use style="stroke:#000000;" x="72.237675" xlink:href="#me8cf22af39" y="207.441197"/>
     <use style="stroke:#000000;" x="72.358703" xlink:href="#me8cf22af39" y="207.213239"/>
     <use style="stroke:#000000;" x="72.449475" xlink:href="#me8cf22af39" y="206.983236"/>
     <use style="stroke:#000000;" x="72.540246" xlink:href="#me8cf22af39" y="206.752211"/>
     <use style="stroke:#000000;" x="72.661275" xlink:href="#me8cf22af39" y="206.521186"/>
     <use style="stroke:#000000;" x="72.752046" xlink:href="#me8cf22af39" y="206.288117"/>
     <use style="stroke:#000000;" x="72.873074" xlink:href="#me8cf22af39" y="206.055047"/>
     <use style="stroke:#000000;" x="72.963846" xlink:href="#me8cf22af39" y="205.820956"/>
     <use style="stroke:#000000;" x="73.054617" xlink:href="#me8cf22af39" y="205.585842"/>
     <use style="stroke:#000000;" x="73.175646" xlink:href="#me8cf22af39" y="205.349706"/>
     <use style="stroke:#000000;" x="73.266417" xlink:href="#me8cf22af39" y="205.11357"/>
     <use style="stroke:#000000;" x="73.357188" xlink:href="#me8cf22af39" y="204.877434"/>
     <use style="stroke:#000000;" x="73.478217" xlink:href="#me8cf22af39" y="204.640275"/>
     <use style="stroke:#000000;" x="73.568988" xlink:href="#me8cf22af39" y="204.403117"/>
     <use style="stroke:#000000;" x="73.659759" xlink:href="#me8cf22af39" y="204.164937"/>
     <use style="stroke:#000000;" x="73.780788" xlink:href="#me8cf22af39" y="203.927778"/>
     <use style="stroke:#000000;" x="73.871559" xlink:href="#me8cf22af39" y="203.689598"/>
     <use style="stroke:#000000;" x="73.962331" xlink:href="#me8cf22af39" y="203.450395"/>
     <use style="stroke:#000000;" x="74.083359" xlink:href="#me8cf22af39" y="203.212215"/>
     <use style="stroke:#000000;" x="74.17413" xlink:href="#me8cf22af39" y="202.974034"/>
     <use style="stroke:#000000;" x="74.264902" xlink:href="#me8cf22af39" y="202.734831"/>
     <use style="stroke:#000000;" x="74.38593" xlink:href="#me8cf22af39" y="202.496651"/>
     <use style="stroke:#000000;" x="74.476701" xlink:href="#me8cf22af39" y="202.25847"/>
     <use style="stroke:#000000;" x="74.59773" xlink:href="#me8cf22af39" y="202.019267"/>
     <use style="stroke:#000000;" x="74.688501" xlink:href="#me8cf22af39" y="201.781087"/>
     <use style="stroke:#000000;" x="74.779273" xlink:href="#me8cf22af39" y="201.542906"/>
     <use style="stroke:#000000;" x="74.900301" xlink:href="#me8cf22af39" y="201.304726"/>
     <use style="stroke:#000000;" x="74.991072" xlink:href="#me8cf22af39" y="201.066545"/>
     <use style="stroke:#000000;" x="75.081844" xlink:href="#me8cf22af39" y="200.828365"/>
     <use style="stroke:#000000;" x="75.202872" xlink:href="#me8cf22af39" y="200.591206"/>
     <use style="stroke:#000000;" x="75.293644" xlink:href="#me8cf22af39" y="200.354048"/>
     <use style="stroke:#000000;" x="75.384415" xlink:href="#me8cf22af39" y="200.11689"/>
     <use style="stroke:#000000;" x="75.505443" xlink:href="#me8cf22af39" y="199.879732"/>
     <use style="stroke:#000000;" x="75.596215" xlink:href="#me8cf22af39" y="199.642573"/>
     <use style="stroke:#000000;" x="75.686986" xlink:href="#me8cf22af39" y="199.406437"/>
     <use style="stroke:#000000;" x="75.808015" xlink:href="#me8cf22af39" y="199.170301"/>
     <use style="stroke:#000000;" x="75.898786" xlink:href="#me8cf22af39" y="198.935187"/>
     <use style="stroke:#000000;" x="75.989557" xlink:href="#me8cf22af39" y="198.700073"/>
     <use style="stroke:#000000;" x="76.110586" xlink:href="#me8cf22af39" y="198.46496"/>
     <use style="stroke:#000000;" x="76.201357" xlink:href="#me8cf22af39" y="198.229846"/>
     <use style="stroke:#000000;" x="76.292128" xlink:href="#me8cf22af39" y="197.995754"/>
     <use style="stroke:#000000;" x="76.413157" xlink:href="#me8cf22af39" y="197.761663"/>
     <use style="stroke:#000000;" x="76.503928" xlink:href="#me8cf22af39" y="197.528593"/>
     <use style="stroke:#000000;" x="76.624957" xlink:href="#me8cf22af39" y="197.294502"/>
     <use style="stroke:#000000;" x="76.776242" xlink:href="#me8cf22af39" y="196.943875"/>
     <use style="stroke:#000000;" x="76.927528" xlink:href="#me8cf22af39" y="196.593249"/>
     <use style="stroke:#000000;" x="77.078813" xlink:href="#me8cf22af39" y="196.243645"/>
     <use style="stroke:#000000;" x="77.230099" xlink:href="#me8cf22af39" y="195.895063"/>
     <use style="stroke:#000000;" x="77.381385" xlink:href="#me8cf22af39" y="195.547504"/>
     <use style="stroke:#000000;" x="77.53267" xlink:href="#me8cf22af39" y="195.200966"/>
     <use style="stroke:#000000;" x="77.683956" xlink:href="#me8cf22af39" y="194.854429"/>
     <use style="stroke:#000000;" x="77.835241" xlink:href="#me8cf22af39" y="194.509936"/>
     <use style="stroke:#000000;" x="77.986527" xlink:href="#me8cf22af39" y="194.166465"/>
     <use style="stroke:#000000;" x="78.137812" xlink:href="#me8cf22af39" y="193.824017"/>
     <use style="stroke:#000000;" x="78.289098" xlink:href="#me8cf22af39" y="193.482591"/>
     <use style="stroke:#000000;" x="78.440384" xlink:href="#me8cf22af39" y="193.142187"/>
     <use style="stroke:#000000;" x="78.591669" xlink:href="#me8cf22af39" y="192.802805"/>
     <use style="stroke:#000000;" x="78.742955" xlink:href="#me8cf22af39" y="192.464446"/>
     <use style="stroke:#000000;" x="78.924497" xlink:href="#me8cf22af39" y="192.126086"/>
     <use style="stroke:#000000;" x="79.075783" xlink:href="#me8cf22af39" y="191.789771"/>
     <use style="stroke:#000000;" x="79.227069" xlink:href="#me8cf22af39" y="191.454478"/>
     <use style="stroke:#000000;" x="79.378354" xlink:href="#me8cf22af39" y="191.120208"/>
     <use style="stroke:#000000;" x="79.52964" xlink:href="#me8cf22af39" y="190.78696"/>
     <use style="stroke:#000000;" x="79.680925" xlink:href="#me8cf22af39" y="190.454734"/>
     <use style="stroke:#000000;" x="79.832211" xlink:href="#me8cf22af39" y="190.12353"/>
     <use style="stroke:#000000;" x="79.983497" xlink:href="#me8cf22af39" y="189.793348"/>
     <use style="stroke:#000000;" x="80.134782" xlink:href="#me8cf22af39" y="189.464189"/>
     <use style="stroke:#000000;" x="80.286068" xlink:href="#me8cf22af39" y="189.136052"/>
     <use style="stroke:#000000;" x="80.437353" xlink:href="#me8cf22af39" y="188.809959"/>
     <use style="stroke:#000000;" x="80.588639" xlink:href="#me8cf22af39" y="188.483866"/>
     <use style="stroke:#000000;" x="80.739924" xlink:href="#me8cf22af39" y="188.158796"/>
     <use style="stroke:#000000;" x="80.89121" xlink:href="#me8cf22af39" y="187.834748"/>
     <use style="stroke:#000000;" x="81.042496" xlink:href="#me8cf22af39" y="187.511722"/>
     <use style="stroke:#000000;" x="81.193781" xlink:href="#me8cf22af39" y="187.189718"/>
     <use style="stroke:#000000;" x="81.375324" xlink:href="#me8cf22af39" y="186.868737"/>
     <use style="stroke:#000000;" x="81.587124" xlink:href="#me8cf22af39" y="186.384198"/>
     <use style="stroke:#000000;" x="81.829181" xlink:href="#me8cf22af39" y="185.902725"/>
     <use style="stroke:#000000;" x="82.071238" xlink:href="#me8cf22af39" y="185.423298"/>
     <use style="stroke:#000000;" x="82.283037" xlink:href="#me8cf22af39" y="184.945914"/>
     <use style="stroke:#000000;" x="82.525094" xlink:href="#me8cf22af39" y="184.470575"/>
     <use style="stroke:#000000;" x="82.767151" xlink:href="#me8cf22af39" y="183.998303"/>
     <use style="stroke:#000000;" x="82.978951" xlink:href="#me8cf22af39" y="183.527053"/>
     <use style="stroke:#000000;" x="83.221008" xlink:href="#me8cf22af39" y="183.05887"/>
     <use style="stroke:#000000;" x="83.463065" xlink:href="#me8cf22af39" y="182.592732"/>
     <use style="stroke:#000000;" x="83.674865" xlink:href="#me8cf22af39" y="182.128637"/>
     <use style="stroke:#000000;" x="83.916922" xlink:href="#me8cf22af39" y="181.666587"/>
     <use style="stroke:#000000;" x="84.158978" xlink:href="#me8cf22af39" y="181.206582"/>
     <use style="stroke:#000000;" x="84.370778" xlink:href="#me8cf22af39" y="180.748621"/>
     <use style="stroke:#000000;" x="84.612835" xlink:href="#me8cf22af39" y="180.292705"/>
     <use style="stroke:#000000;" x="84.854892" xlink:href="#me8cf22af39" y="179.838833"/>
     <use style="stroke:#000000;" x="85.066692" xlink:href="#me8cf22af39" y="179.387006"/>
     <use style="stroke:#000000;" x="85.308749" xlink:href="#me8cf22af39" y="178.937223"/>
     <use style="stroke:#000000;" x="85.550806" xlink:href="#me8cf22af39" y="178.489484"/>
     <use style="stroke:#000000;" x="85.883634" xlink:href="#me8cf22af39" y="177.820943"/>
     <use style="stroke:#000000;" x="86.246719" xlink:href="#me8cf22af39" y="177.157513"/>
     <use style="stroke:#000000;" x="86.579548" xlink:href="#me8cf22af39" y="176.49715"/>
     <use style="stroke:#000000;" x="86.942633" xlink:href="#me8cf22af39" y="175.841898"/>
     <use style="stroke:#000000;" x="87.275461" xlink:href="#me8cf22af39" y="175.190735"/>
     <use style="stroke:#000000;" x="87.638547" xlink:href="#me8cf22af39" y="174.543661"/>
     <use style="stroke:#000000;" x="87.971375" xlink:href="#me8cf22af39" y="173.900675"/>
     <use style="stroke:#000000;" x="88.33446" xlink:href="#me8cf22af39" y="173.262801"/>
     <use style="stroke:#000000;" x="88.667289" xlink:href="#me8cf22af39" y="172.627994"/>
     <use style="stroke:#000000;" x="89.030374" xlink:href="#me8cf22af39" y="171.997276"/>
     <use style="stroke:#000000;" x="89.363202" xlink:href="#me8cf22af39" y="171.370646"/>
     <use style="stroke:#000000;" x="89.726288" xlink:href="#me8cf22af39" y="170.748106"/>
     <use style="stroke:#000000;" x="90.059116" xlink:href="#me8cf22af39" y="170.129654"/>
     <use style="stroke:#000000;" x="90.422201" xlink:href="#me8cf22af39" y="169.514269"/>
     <use style="stroke:#000000;" x="90.75503" xlink:href="#me8cf22af39" y="168.903995"/>
     <use style="stroke:#000000;" x="91.118115" xlink:href="#me8cf22af39" y="168.296788"/>
     <use style="stroke:#000000;" x="91.450943" xlink:href="#me8cf22af39" y="167.692648"/>
     <use style="stroke:#000000;" x="91.814029" xlink:href="#me8cf22af39" y="167.092597"/>
     <use style="stroke:#000000;" x="92.146857" xlink:href="#me8cf22af39" y="166.496634"/>
     <use style="stroke:#000000;" x="92.509942" xlink:href="#me8cf22af39" y="165.903738"/>
     <use style="stroke:#000000;" x="92.842771" xlink:href="#me8cf22af39" y="165.314932"/>
     <use style="stroke:#000000;" x="93.205856" xlink:href="#me8cf22af39" y="164.729192"/>
     <use style="stroke:#000000;" x="93.538684" xlink:href="#me8cf22af39" y="164.14754"/>
     <use style="stroke:#000000;" x="93.90177" xlink:href="#me8cf22af39" y="163.568956"/>
     <use style="stroke:#000000;" x="94.234598" xlink:href="#me8cf22af39" y="162.993438"/>
     <use style="stroke:#000000;" x="94.597683" xlink:href="#me8cf22af39" y="162.422009"/>
     <use style="stroke:#000000;" x="94.930512" xlink:href="#me8cf22af39" y="161.853647"/>
     <use style="stroke:#000000;" x="95.293597" xlink:href="#me8cf22af39" y="161.288352"/>
     <use style="stroke:#000000;" x="95.626425" xlink:href="#me8cf22af39" y="160.727145"/>
     <use style="stroke:#000000;" x="95.989511" xlink:href="#me8cf22af39" y="160.167983"/>
     <use style="stroke:#000000;" x="96.322339" xlink:href="#me8cf22af39" y="159.61291"/>
     <use style="stroke:#000000;" x="96.685424" xlink:href="#me8cf22af39" y="159.060904"/>
     <use style="stroke:#000000;" x="97.018253" xlink:href="#me8cf22af39" y="158.511964"/>
     <use style="stroke:#000000;" x="97.381338" xlink:href="#me8cf22af39" y="157.966091"/>
     <use style="stroke:#000000;" x="97.744423" xlink:href="#me8cf22af39" y="157.424307"/>
     <use style="stroke:#000000;" x="98.258794" xlink:href="#me8cf22af39" y="156.612653"/>
     <use style="stroke:#000000;" x="98.773165" xlink:href="#me8cf22af39" y="155.809177"/>
     <use style="stroke:#000000;" x="99.408565" xlink:href="#me8cf22af39" y="155.011835"/>
     <use style="stroke:#000000;" x="99.711136" xlink:href="#me8cf22af39" y="154.221648"/>
     <use style="stroke:#000000;" x="100.316278" xlink:href="#me8cf22af39" y="153.437594"/>
     <use style="stroke:#000000;" x="100.921421" xlink:href="#me8cf22af39" y="152.660696"/>
     <use style="stroke:#000000;" x="101.526563" xlink:href="#me8cf22af39" y="151.889932"/>
     <use style="stroke:#000000;" x="101.829134" xlink:href="#me8cf22af39" y="151.126323"/>
     <use style="stroke:#000000;" x="102.434276" xlink:href="#me8cf22af39" y="150.368848"/>
     <use style="stroke:#000000;" x="103.039419" xlink:href="#me8cf22af39" y="149.616483"/>
     <use style="stroke:#000000;" x="103.644561" xlink:href="#me8cf22af39" y="148.871275"/>
     <use style="stroke:#000000;" x="103.947132" xlink:href="#me8cf22af39" y="148.132199"/>
     <use style="stroke:#000000;" x="104.552274" xlink:href="#me8cf22af39" y="147.399258"/>
     <use style="stroke:#000000;" x="105.157417" xlink:href="#me8cf22af39" y="146.672449"/>
     <use style="stroke:#000000;" x="105.459988" xlink:href="#me8cf22af39" y="145.950752"/>
     <use style="stroke:#000000;" x="106.06513" xlink:href="#me8cf22af39" y="145.235188"/>
     <use style="stroke:#000000;" x="106.670273" xlink:href="#me8cf22af39" y="144.525758"/>
     <use style="stroke:#000000;" x="107.275415" xlink:href="#me8cf22af39" y="143.822461"/>
     <use style="stroke:#000000;" x="107.577986" xlink:href="#me8cf22af39" y="143.124275"/>
     <use style="stroke:#000000;" x="108.183128" xlink:href="#me8cf22af39" y="142.432222"/>
     <use style="stroke:#000000;" x="108.788271" xlink:href="#me8cf22af39" y="141.745281"/>
     <use style="stroke:#000000;" x="109.393413" xlink:href="#me8cf22af39" y="141.063451"/>
     <use style="stroke:#000000;" x="109.695984" xlink:href="#me8cf22af39" y="140.387754"/>
     <use style="stroke:#000000;" x="110.301126" xlink:href="#me8cf22af39" y="139.717169"/>
     <use style="stroke:#000000;" x="110.906269" xlink:href="#me8cf22af39" y="139.052717"/>
     <use style="stroke:#000000;" x="111.511411" xlink:href="#me8cf22af39" y="138.392353"/>
     <use style="stroke:#000000;" x="111.813982" xlink:href="#me8cf22af39" y="137.738124"/>
     <use style="stroke:#000000;" x="112.419125" xlink:href="#me8cf22af39" y="137.089005"/>
     <use style="stroke:#000000;" x="113.024267" xlink:href="#me8cf22af39" y="136.444998"/>
     <use style="stroke:#000000;" x="113.326838" xlink:href="#me8cf22af39" y="135.805079"/>
     <use style="stroke:#000000;" x="113.93198" xlink:href="#me8cf22af39" y="135.171294"/>
     <use style="stroke:#000000;" x="114.839694" xlink:href="#me8cf22af39" y="134.225727"/>
     <use style="stroke:#000000;" x="115.444836" xlink:href="#me8cf22af39" y="133.292428"/>
     <use style="stroke:#000000;" x="116.35255" xlink:href="#me8cf22af39" y="132.36935"/>
     <use style="stroke:#000000;" x="117.260263" xlink:href="#me8cf22af39" y="131.456495"/>
     <use style="stroke:#000000;" x="117.865405" xlink:href="#me8cf22af39" y="130.555907"/>
     <use style="stroke:#000000;" x="118.773119" xlink:href="#me8cf22af39" y="129.664519"/>
     <use style="stroke:#000000;" x="119.378261" xlink:href="#me8cf22af39" y="128.784376"/>
     <use style="stroke:#000000;" x="120.285975" xlink:href="#me8cf22af39" y="127.914454"/>
     <use style="stroke:#000000;" x="121.193688" xlink:href="#me8cf22af39" y="127.054756"/>
     <use style="stroke:#000000;" x="121.79883" xlink:href="#me8cf22af39" y="126.205279"/>
     <use style="stroke:#000000;" x="122.706544" xlink:href="#me8cf22af39" y="125.365003"/>
     <use style="stroke:#000000;" x="123.311686" xlink:href="#me8cf22af39" y="124.534949"/>
     <use style="stroke:#000000;" x="124.2194" xlink:href="#me8cf22af39" y="123.715117"/>
     <use style="stroke:#000000;" x="125.127113" xlink:href="#me8cf22af39" y="122.904485"/>
     <use style="stroke:#000000;" x="125.732255" xlink:href="#me8cf22af39" y="122.103054"/>
     <use style="stroke:#000000;" x="126.639969" xlink:href="#me8cf22af39" y="121.310823"/>
     <use style="stroke:#000000;" x="127.547682" xlink:href="#me8cf22af39" y="120.527791"/>
     <use style="stroke:#000000;" x="128.152825" xlink:href="#me8cf22af39" y="119.75396"/>
     <use style="stroke:#000000;" x="129.060538" xlink:href="#me8cf22af39" y="118.989329"/>
     <use style="stroke:#000000;" x="129.66568" xlink:href="#me8cf22af39" y="118.233898"/>
     <use style="stroke:#000000;" x="130.573394" xlink:href="#me8cf22af39" y="117.486645"/>
     <use style="stroke:#000000;" x="131.481107" xlink:href="#me8cf22af39" y="116.74757"/>
     <use style="stroke:#000000;" x="132.08625" xlink:href="#me8cf22af39" y="116.017695"/>
     <use style="stroke:#000000;" x="132.993963" xlink:href="#me8cf22af39" y="115.295997"/>
     <use style="stroke:#000000;" x="133.599105" xlink:href="#me8cf22af39" y="114.5835"/>
     <use style="stroke:#000000;" x="134.506819" xlink:href="#me8cf22af39" y="113.878159"/>
     <use style="stroke:#000000;" x="135.414532" xlink:href="#me8cf22af39" y="113.180995"/>
     <use style="stroke:#000000;" x="136.019675" xlink:href="#me8cf22af39" y="112.492009"/>
     <use style="stroke:#000000;" x="136.927388" xlink:href="#me8cf22af39" y="111.811202"/>
     <use style="stroke:#000000;" x="137.532531" xlink:href="#me8cf22af39" y="111.138571"/>
     <use style="stroke:#000000;" x="138.742815" xlink:href="#me8cf22af39" y="110.130649"/>
     <use style="stroke:#000000;" x="139.9531" xlink:href="#me8cf22af39" y="109.141126"/>
     <use style="stroke:#000000;" x="141.163384" xlink:href="#me8cf22af39" y="108.167959"/>
     <use style="stroke:#000000;" x="142.373669" xlink:href="#me8cf22af39" y="107.212171"/>
     <use style="stroke:#000000;" x="143.583954" xlink:href="#me8cf22af39" y="106.272737"/>
     <use style="stroke:#000000;" x="144.794238" xlink:href="#me8cf22af39" y="105.34966"/>
     <use style="stroke:#000000;" x="146.004523" xlink:href="#me8cf22af39" y="104.442938"/>
     <use style="stroke:#000000;" x="147.214808" xlink:href="#me8cf22af39" y="103.55155"/>
     <use style="stroke:#000000;" x="148.425092" xlink:href="#me8cf22af39" y="102.675496"/>
     <use style="stroke:#000000;" x="149.635377" xlink:href="#me8cf22af39" y="101.814775"/>
     <use style="stroke:#000000;" x="150.845661" xlink:href="#me8cf22af39" y="100.968365"/>
     <use style="stroke:#000000;" x="152.055946" xlink:href="#me8cf22af39" y="100.136266"/>
     <use style="stroke:#000000;" x="153.266231" xlink:href="#me8cf22af39" y="99.318479"/>
     <use style="stroke:#000000;" x="154.476515" xlink:href="#me8cf22af39" y="98.515003"/>
     <use style="stroke:#000000;" x="155.6868" xlink:href="#me8cf22af39" y="97.725839"/>
     <use style="stroke:#000000;" x="156.897085" xlink:href="#me8cf22af39" y="96.949963"/>
     <use style="stroke:#000000;" x="158.107369" xlink:href="#me8cf22af39" y="96.187376"/>
     <use style="stroke:#000000;" x="159.317654" xlink:href="#me8cf22af39" y="95.437057"/>
     <use style="stroke:#000000;" x="160.452901" xlink:href="#me8cf22af39" y="94.700026"/>
     <use style="stroke:#000000;" x="161.65199" xlink:href="#me8cf22af39" y="93.975262"/>
     <use style="stroke:#000000;" x="162.850777" xlink:href="#me8cf22af39" y="93.263787"/>
     <use style="stroke:#000000;" x="164.049564" xlink:href="#me8cf22af39" y="92.563557"/>
     <use style="stroke:#000000;" x="165.248654" xlink:href="#me8cf22af39" y="91.875593"/>
     <use style="stroke:#000000;" x="167.05107" xlink:href="#me8cf22af39" y="90.863581"/>
     <use style="stroke:#000000;" x="168.853789" xlink:href="#me8cf22af39" y="89.876103"/>
     <use style="stroke:#000000;" x="170.656508" xlink:href="#me8cf22af39" y="88.914181"/>
     <use style="stroke:#000000;" x="172.459227" xlink:href="#me8cf22af39" y="87.976792"/>
     <use style="stroke:#000000;" x="174.261643" xlink:href="#me8cf22af39" y="87.063937"/>
     <use style="stroke:#000000;" x="176.064362" xlink:href="#me8cf22af39" y="86.173572"/>
     <use style="stroke:#000000;" x="177.867081" xlink:href="#me8cf22af39" y="85.305695"/>
     <use style="stroke:#000000;" x="179.6698" xlink:href="#me8cf22af39" y="84.459285"/>
     <use style="stroke:#000000;" x="181.472216" xlink:href="#me8cf22af39" y="83.634342"/>
     <use style="stroke:#000000;" x="183.274935" xlink:href="#me8cf22af39" y="82.830866"/>
     <use style="stroke:#000000;" x="185.077654" xlink:href="#me8cf22af39" y="82.046813"/>
     <use style="stroke:#000000;" x="186.880373" xlink:href="#me8cf22af39" y="81.283204"/>
     <use style="stroke:#000000;" x="188.68279" xlink:href="#me8cf22af39" y="80.537995"/>
     <use style="stroke:#000000;" x="190.485509" xlink:href="#me8cf22af39" y="79.812209"/>
     <use style="stroke:#000000;" x="192.288228" xlink:href="#me8cf22af39" y="79.103801"/>
     <use style="stroke:#000000;" x="194.090947" xlink:href="#me8cf22af39" y="78.413793"/>
     <use style="stroke:#000000;" x="195.893363" xlink:href="#me8cf22af39" y="77.741163"/>
     <use style="stroke:#000000;" x="197.696082" xlink:href="#me8cf22af39" y="77.084889"/>
     <use style="stroke:#000000;" x="199.498801" xlink:href="#me8cf22af39" y="76.44497"/>
     <use style="stroke:#000000;" x="201.30152" xlink:href="#me8cf22af39" y="75.821407"/>
     <use style="stroke:#000000;" x="203.103936" xlink:href="#me8cf22af39" y="75.212156"/>
     <use style="stroke:#000000;" x="204.906655" xlink:href="#me8cf22af39" y="74.61926"/>
     <use style="stroke:#000000;" x="206.709374" xlink:href="#me8cf22af39" y="74.040676"/>
     <use style="stroke:#000000;" x="209.456115" xlink:href="#me8cf22af39" y="73.186088"/>
     <use style="stroke:#000000;" x="212.202553" xlink:href="#me8cf22af39" y="72.364212"/>
     <use style="stroke:#000000;" x="214.949294" xlink:href="#me8cf22af39" y="71.573003"/>
     <use style="stroke:#000000;" x="217.696035" xlink:href="#me8cf22af39" y="70.810416"/>
     <use style="stroke:#000000;" x="220.442776" xlink:href="#me8cf22af39" y="70.076452"/>
     <use style="stroke:#000000;" x="223.189517" xlink:href="#me8cf22af39" y="69.370088"/>
     <use style="stroke:#000000;" x="225.935956" xlink:href="#me8cf22af39" y="68.690303"/>
     <use style="stroke:#000000;" x="228.682697" xlink:href="#me8cf22af39" y="68.035051"/>
     <use style="stroke:#000000;" x="231.429438" xlink:href="#me8cf22af39" y="67.404332"/>
     <use style="stroke:#000000;" x="234.176179" xlink:href="#me8cf22af39" y="66.796103"/>
     <use style="stroke:#000000;" x="236.922919" xlink:href="#me8cf22af39" y="66.210363"/>
     <use style="stroke:#000000;" x="239.669358" xlink:href="#me8cf22af39" y="65.647112"/>
     <use style="stroke:#000000;" x="242.416099" xlink:href="#me8cf22af39" y="65.103283"/>
     <use style="stroke:#000000;" x="245.16284" xlink:href="#me8cf22af39" y="64.5799"/>
     <use style="stroke:#000000;" x="247.909581" xlink:href="#me8cf22af39" y="64.075938"/>
     <use style="stroke:#000000;" x="250.656322" xlink:href="#me8cf22af39" y="63.589355"/>
     <use style="stroke:#000000;" x="253.403063" xlink:href="#me8cf22af39" y="63.121172"/>
     <use style="stroke:#000000;" x="256.149501" xlink:href="#me8cf22af39" y="62.670366"/>
     <use style="stroke:#000000;" x="258.896242" xlink:href="#me8cf22af39" y="62.234895"/>
     <use style="stroke:#000000;" x="261.642983" xlink:href="#me8cf22af39" y="61.815779"/>
     <use style="stroke:#000000;" x="264.389724" xlink:href="#me8cf22af39" y="61.410974"/>
     <use style="stroke:#000000;" x="267.136465" xlink:href="#me8cf22af39" y="61.021503"/>
     <use style="stroke:#000000;" x="269.882903" xlink:href="#me8cf22af39" y="60.645321"/>
     <use style="stroke:#000000;" x="272.629644" xlink:href="#me8cf22af39" y="60.28345"/>
     <use style="stroke:#000000;" x="275.376385" xlink:href="#me8cf22af39" y="59.933846"/>
     <use style="stroke:#000000;" x="278.123126" xlink:href="#me8cf22af39" y="59.596509"/>
     <use style="stroke:#000000;" x="280.869867" xlink:href="#me8cf22af39" y="59.271438"/>
     <use style="stroke:#000000;" x="283.616306" xlink:href="#me8cf22af39" y="58.958634"/>
     <use style="stroke:#000000;" x="286.363046" xlink:href="#me8cf22af39" y="58.656053"/>
     <use style="stroke:#000000;" x="289.109787" xlink:href="#me8cf22af39" y="58.364716"/>
     <use style="stroke:#000000;" x="291.856528" xlink:href="#me8cf22af39" y="58.08258"/>
     <use style="stroke:#000000;" x="294.603269" xlink:href="#me8cf22af39" y="57.811688"/>
     <use style="stroke:#000000;" x="297.349708" xlink:href="#me8cf22af39" y="57.548974"/>
     <use style="stroke:#000000;" x="300.096449" xlink:href="#me8cf22af39" y="57.296482"/>
     <use style="stroke:#000000;" x="302.84319" xlink:href="#me8cf22af39" y="57.052168"/>
     <use style="stroke:#000000;" x="305.589931" xlink:href="#me8cf22af39" y="56.816032"/>
     <use style="stroke:#000000;" x="308.336672" xlink:href="#me8cf22af39" y="56.589096"/>
     <use style="stroke:#000000;" x="311.08311" xlink:href="#me8cf22af39" y="56.369316"/>
     <use style="stroke:#000000;" x="313.829851" xlink:href="#me8cf22af39" y="56.157713"/>
     <use style="stroke:#000000;" x="316.576592" xlink:href="#me8cf22af39" y="55.953266"/>
     <use style="stroke:#000000;" x="319.323333" xlink:href="#me8cf22af39" y="55.754953"/>
     <use style="stroke:#000000;" x="322.070074" xlink:href="#me8cf22af39" y="55.564817"/>
     <use style="stroke:#000000;" x="324.816815" xlink:href="#me8cf22af39" y="55.379793"/>
     <use style="stroke:#000000;" x="327.563253" xlink:href="#me8cf22af39" y="55.201924"/>
     <use style="stroke:#000000;" x="330.309994" xlink:href="#me8cf22af39" y="55.030189"/>
     <use style="stroke:#000000;" x="333.056735" xlink:href="#me8cf22af39" y="54.863565"/>
     <use style="stroke:#000000;" x="335.093947" xlink:href="#me8cf22af39" y="54.743963"/>
     <use style="stroke:#000000;" x="337.131158" xlink:href="#me8cf22af39" y="54.627429"/>
     <use style="stroke:#000000;" x="339.16837" xlink:href="#me8cf22af39" y="54.513961"/>
     <use style="stroke:#000000;" x="341.205581" xlink:href="#me8cf22af39" y="54.40356"/>
     <use style="stroke:#000000;" x="343.24249" xlink:href="#me8cf22af39" y="54.295203"/>
     <use style="stroke:#000000;" x="345.279702" xlink:href="#me8cf22af39" y="54.189913"/>
     <use style="stroke:#000000;" x="347.316914" xlink:href="#me8cf22af39" y="54.087689"/>
     <use style="stroke:#000000;" x="349.354125" xlink:href="#me8cf22af39" y="53.98751"/>
     <use style="stroke:#000000;" x="351.391337" xlink:href="#me8cf22af39" y="53.889376"/>
     <use style="stroke:#000000;" x="353.428548" xlink:href="#me8cf22af39" y="53.794308"/>
     <use style="stroke:#000000;" x="355.46576" xlink:href="#me8cf22af39" y="53.701285"/>
     <use style="stroke:#000000;" x="357.502972" xlink:href="#me8cf22af39" y="53.611328"/>
     <use style="stroke:#000000;" x="359.540183" xlink:href="#me8cf22af39" y="53.522394"/>
     <use style="stroke:#000000;" x="361.577395" xlink:href="#me8cf22af39" y="53.436526"/>
     <use style="stroke:#000000;" x="363.614304" xlink:href="#me8cf22af39" y="53.352703"/>
     <use style="stroke:#000000;" x="365.651516" xlink:href="#me8cf22af39" y="53.270924"/>
     <use style="stroke:#000000;" x="367.688727" xlink:href="#me8cf22af39" y="53.190168"/>
     <use style="stroke:#000000;" x="369.725939" xlink:href="#me8cf22af39" y="53.112478"/>
     <use style="stroke:#000000;" x="371.76194" xlink:href="#me8cf22af39" y="53.036833"/>
    </g>
   </g>
   <g id="line2d_18">
    <path clip-path="url(#pf74d7f5efe)" d="M 68.546307 193.466233 
L 68.969906 193.372937 
L 69.508483 193.018159 
L 70.159011 192.310869 
L 71.036467 190.9947 
L 72.237675 188.73746 
L 74.083359 184.713543 
L 82.978951 164.664123 
L 86.579548 157.295134 
L 90.422201 149.909568 
L 94.597683 142.388471 
L 98.773165 135.346462 
L 103.039419 128.608763 
L 107.275415 122.346985 
L 111.511411 116.484989 
L 115.444836 111.378179 
L 119.378261 106.575736 
L 123.311686 102.060777 
L 128.152825 96.875269 
L 132.993963 92.07087 
L 137.532531 87.89907 
L 142.373669 83.786176 
L 146.004523 80.88425 
L 149.635377 78.166982 
L 153.266231 75.574348 
L 159.317654 71.560414 
L 164.049564 68.688274 
L 168.853789 65.990651 
L 174.261643 63.197935 
L 179.6698 60.636154 
L 185.077654 58.267278 
L 192.288228 55.437444 
L 199.498801 52.896462 
L 204.906655 51.174725 
L 214.949294 48.292098 
L 225.935956 45.644544 
L 234.176179 43.906325 
L 242.416099 42.358921 
L 250.656322 40.991574 
L 261.642983 39.386887 
L 272.629644 38.052323 
L 283.616306 36.930509 
L 297.349708 35.733979 
L 311.08311 34.756301 
L 327.563253 33.811977 
L 347.316914 32.935031 
L 369.725939 32.201761 
L 371.76194 32.517567 
L 371.76194 32.517567 
" style="fill:none;stroke:#0000ff;stroke-dasharray:5.55,2.4;stroke-dashoffset:0;stroke-width:1.5;"/>
   </g>
   <g id="line2d_19">
    <path clip-path="url(#pf74d7f5efe)" d="M 68.546307 229.874488 
L 68.969906 229.777824 
L 69.508483 229.411652 
L 70.159011 228.685231 
L 71.036467 227.343153 
L 72.237675 225.065991 
L 74.264902 220.659495 
L 80.286068 207.329941 
L 83.674865 200.449161 
L 87.275461 193.634712 
L 91.118115 186.844203 
L 94.930512 180.530133 
L 98.773165 174.540557 
L 103.039419 168.285241 
L 107.577986 162.044382 
L 111.813982 156.571056 
L 116.35255 151.053549 
L 121.193688 145.539021 
L 125.732255 140.691028 
L 130.573394 135.842853 
L 136.019675 130.753028 
L 141.163384 126.25206 
L 148.425092 120.480113 
L 153.266231 116.944928 
L 158.107369 113.658156 
L 164.049564 109.914975 
L 168.853789 107.104122 
L 174.261643 104.160558 
L 179.6698 101.431498 
L 186.880373 98.116375 
L 192.288228 95.860659 
L 197.696082 93.769555 
L 204.906655 91.235854 
L 209.456115 89.802669 
L 214.949294 88.161165 
L 220.442776 86.632865 
L 228.682697 84.617055 
L 236.922919 82.835884 
L 245.16284 81.272579 
L 256.149501 79.478902 
L 267.136465 77.971199 
L 278.123126 76.6745 
L 289.109787 75.583163 
L 302.84319 74.458866 
L 316.576592 73.545637 
L 333.056735 72.668165 
L 361.577395 71.583333 
L 369.725939 71.347541 
L 371.76194 70.970367 
L 371.76194 70.970367 
" style="fill:none;stroke:#0000ff;stroke-dasharray:5.55,2.4;stroke-dashoffset:0;stroke-width:1.5;"/>
   </g>
   <g id="line2d_20"/>
   <g id="line2d_21"/>
   <g id="line2d_22"/>
   <g id="line2d_23"/>
   <g id="line2d_24"/>
   <g id="line2d_25"/>
   <g id="patch_3">
    <path d="M 53.328125 239.758125 
L 53.328125 22.318125 
" style="fill:none;stroke:#000000;stroke-linecap:square;stroke-linejoin:miter;stroke-width:0.8;"/>
   </g>
   <g id="patch_4">
    <path d="M 388.128125 239.758125 
L 388.128125 22.318125 
" style="fill:none;stroke:#000000;stroke-linecap:square;stroke-linejoin:miter;stroke-width:0.8;"/>
   </g>
   <g id="patch_5">
    <path d="M 53.328125 239.758125 
L 388.128125 239.758125 
" style="fill:none;stroke:#000000;stroke-linecap:square;stroke-linejoin:miter;stroke-width:0.8;"/>
   </g>
   <g id="patch_6">
    <path d="M 53.328125 22.318125 
L 388.128125 22.318125 
" style="fill:none;stroke:#000000;stroke-linecap:square;stroke-linejoin:miter;stroke-width:0.8;"/>
   </g>
   <g id="text_17">
    <!-- Experiment_17 -->
    <defs>
     <path d="M 9.8125 72.90625 
L 55.90625 72.90625 
L 55.90625 64.59375 
L 19.671875 64.59375 
L 19.671875 43.015625 
L 54.390625 43.015625 
L 54.390625 34.71875 
L 19.671875 34.71875 
L 19.671875 8.296875 
L 56.78125 8.296875 
L 56.78125 0 
L 9.8125 0 
z
" id="DejaVuSans-69"/>
     <path d="M 54.890625 54.6875 
L 35.109375 28.078125 
L 55.90625 0 
L 45.3125 0 
L 29.390625 21.484375 
L 13.484375 0 
L 2.875 0 
L 24.125 28.609375 
L 4.6875 54.6875 
L 15.28125 54.6875 
L 29.78125 35.203125 
L 44.28125 54.6875 
z
" id="DejaVuSans-120"/>
     <path d="M 41.109375 46.296875 
Q 39.59375 47.171875 37.8125 47.578125 
Q 36.03125 48 33.890625 48 
Q 26.265625 48 22.1875 43.046875 
Q 18.109375 38.09375 18.109375 28.8125 
L 18.109375 0 
L 9.078125 0 
L 9.078125 54.6875 
L 18.109375 54.6875 
L 18.109375 46.1875 
Q 20.953125 51.171875 25.484375 53.578125 
Q 30.03125 56 36.53125 56 
Q 37.453125 56 38.578125 55.875 
Q 39.703125 55.765625 41.0625 55.515625 
z
" id="DejaVuSans-114"/>
     <path d="M 54.890625 33.015625 
L 54.890625 0 
L 45.90625 0 
L 45.90625 32.71875 
Q 45.90625 40.484375 42.875 44.328125 
Q 39.84375 48.1875 33.796875 48.1875 
Q 26.515625 48.1875 22.3125 43.546875 
Q 18.109375 38.921875 18.109375 30.90625 
L 18.109375 0 
L 9.078125 0 
L 9.078125 54.6875 
L 18.109375 54.6875 
L 18.109375 46.1875 
Q 21.34375 51.125 25.703125 53.5625 
Q 30.078125 56 35.796875 56 
Q 45.21875 56 50.046875 50.171875 
Q 54.890625 44.34375 54.890625 33.015625 
z
" id="DejaVuSans-110"/>
     <path d="M 18.3125 70.21875 
L 18.3125 54.6875 
L 36.8125 54.6875 
L 36.8125 47.703125 
L 18.3125 47.703125 
L 18.3125 18.015625 
Q 18.3125 11.328125 20.140625 9.421875 
Q 21.96875 7.515625 27.59375 7.515625 
L 36.8125 7.515625 
L 36.8125 0 
L 27.59375 0 
Q 17.1875 0 13.234375 3.875 
Q 9.28125 7.765625 9.28125 18.015625 
L 9.28125 47.703125 
L 2.6875 47.703125 
L 2.6875 54.6875 
L 9.28125 54.6875 
L 9.28125 70.21875 
z
" id="DejaVuSans-116"/>
     <path d="M 50.984375 -16.609375 
L 50.984375 -23.578125 
L -0.984375 -23.578125 
L -0.984375 -16.609375 
z
" id="DejaVuSans-95"/>
    </defs>
    <g transform="translate(175.425313 16.318125)scale(0.12 -0.12)">
     <use xlink:href="#DejaVuSans-69"/>
     <use x="63.183594" xlink:href="#DejaVuSans-120"/>
     <use x="122.363281" xlink:href="#DejaVuSans-112"/>
     <use x="185.839844" xlink:href="#DejaVuSans-101"/>
     <use x="247.363281" xlink:href="#DejaVuSans-114"/>
     <use x="288.476562" xlink:href="#DejaVuSans-105"/>
     <use x="316.259766" xlink:href="#DejaVuSans-109"/>
     <use x="413.671875" xlink:href="#DejaVuSans-101"/>
     <use x="475.195312" xlink:href="#DejaVuSans-110"/>
     <use x="538.574219" xlink:href="#DejaVuSans-116"/>
     <use x="577.783203" xlink:href="#DejaVuSans-95"/>
     <use x="627.783203" xlink:href="#DejaVuSans-49"/>
     <use x="691.40625" xlink:href="#DejaVuSans-55"/>
    </g>
   </g>
   <g id="legend_1">
    <g id="patch_7">
     <path d="M 125.007812 234.758125 
L 381.128125 234.758125 
Q 383.128125 234.758125 383.128125 232.758125 
L 383.128125 160.345625 
Q 383.128125 158.345625 381.128125 158.345625 
L 125.007812 158.345625 
Q 123.007812 158.345625 123.007812 160.345625 
L 123.007812 232.758125 
Q 123.007812 234.758125 125.007812 234.758125 
z
" style="fill:#ffffff;opacity:0.8;stroke:#cccccc;stroke-linejoin:miter;"/>
    </g>
    <g id="line2d_26">
     <path d="M 127.007812 166.444062 
L 147.007812 166.444062 
" style="fill:none;stroke:#0000ff;stroke-linecap:square;stroke-width:1.5;"/>
    </g>
    <g id="line2d_27"/>
    <g id="text_18">
     <!-- MSI -->
     <defs>
      <path d="M 9.8125 72.90625 
L 24.515625 72.90625 
L 43.109375 23.296875 
L 61.8125 72.90625 
L 76.515625 72.90625 
L 76.515625 0 
L 66.890625 0 
L 66.890625 64.015625 
L 48.09375 14.015625 
L 38.1875 14.015625 
L 19.390625 64.015625 
L 19.390625 0 
L 9.8125 0 
z
" id="DejaVuSans-77"/>
      <path d="M 53.515625 70.515625 
L 53.515625 60.890625 
Q 47.90625 63.578125 42.921875 64.890625 
Q 37.9375 66.21875 33.296875 66.21875 
Q 25.25 66.21875 20.875 63.09375 
Q 16.5 59.96875 16.5 54.203125 
Q 16.5 49.359375 19.40625 46.890625 
Q 22.3125 44.4375 30.421875 42.921875 
L 36.375 41.703125 
Q 47.40625 39.59375 52.65625 34.296875 
Q 57.90625 29 57.90625 20.125 
Q 57.90625 9.515625 50.796875 4.046875 
Q 43.703125 -1.421875 29.984375 -1.421875 
Q 24.8125 -1.421875 18.96875 -0.25 
Q 13.140625 0.921875 6.890625 3.21875 
L 6.890625 13.375 
Q 12.890625 10.015625 18.65625 8.296875 
Q 24.421875 6.59375 29.984375 6.59375 
Q 38.421875 6.59375 43.015625 9.90625 
Q 47.609375 13.234375 47.609375 19.390625 
Q 47.609375 24.75 44.3125 27.78125 
Q 41.015625 30.8125 33.5 32.328125 
L 27.484375 33.5 
Q 16.453125 35.6875 11.515625 40.375 
Q 6.59375 45.0625 6.59375 53.421875 
Q 6.59375 63.09375 13.40625 68.65625 
Q 20.21875 74.21875 32.171875 74.21875 
Q 37.3125 74.21875 42.625 73.28125 
Q 47.953125 72.359375 53.515625 70.515625 
z
" id="DejaVuSans-83"/>
      <path d="M 9.8125 72.90625 
L 19.671875 72.90625 
L 19.671875 0 
L 9.8125 0 
z
" id="DejaVuSans-73"/>
     </defs>
     <g transform="translate(155.007812 169.944062)scale(0.1 -0.1)">
      <use xlink:href="#DejaVuSans-77"/>
      <use x="86.279297" xlink:href="#DejaVuSans-83"/>
      <use x="149.755859" xlink:href="#DejaVuSans-73"/>
     </g>
    </g>
    <g id="line2d_28">
     <path d="M 127.007812 181.12375 
L 147.007812 181.12375 
" style="fill:none;stroke:#ff0000;stroke-linecap:square;stroke-width:1.5;"/>
    </g>
    <g id="line2d_29"/>
    <g id="text_19">
     <!-- $\it{A priori}$ model -->
     <defs>
      <path d="M 36.8125 72.90625 
L 48 72.90625 
L 61.53125 0 
L 51.21875 0 
L 48.1875 18.703125 
L 15.375 18.703125 
L 5.078125 0 
L -5.328125 0 
z
M 40.375 63.1875 
L 19.921875 26.90625 
L 46.6875 26.90625 
z
" id="DejaVuSans-Oblique-65"/>
      <path d="M 49.609375 33.6875 
Q 49.609375 40.875 46.484375 44.671875 
Q 43.359375 48.484375 37.5 48.484375 
Q 33.5 48.484375 29.859375 46.4375 
Q 26.21875 44.390625 23.390625 40.484375 
Q 20.609375 36.625 18.9375 31.15625 
Q 17.28125 25.6875 17.28125 20.3125 
Q 17.28125 13.484375 20.40625 9.796875 
Q 23.53125 6.109375 29.296875 6.109375 
Q 33.546875 6.109375 37.1875 8.109375 
Q 40.828125 10.109375 43.40625 13.921875 
Q 46.1875 17.921875 47.890625 23.34375 
Q 49.609375 28.765625 49.609375 33.6875 
z
M 21.78125 46.390625 
Q 25.390625 51.125 30.296875 53.5625 
Q 35.203125 56 41.21875 56 
Q 49.609375 56 54.25 50.5 
Q 58.890625 45.015625 58.890625 35.109375 
Q 58.890625 27 56 19.65625 
Q 53.125 12.3125 47.703125 6.5 
Q 44.09375 2.640625 39.546875 0.609375 
Q 35.015625 -1.421875 29.984375 -1.421875 
Q 24.171875 -1.421875 20.21875 1 
Q 16.265625 3.421875 14.3125 8.203125 
L 8.6875 -20.796875 
L -0.296875 -20.796875 
L 14.40625 54.6875 
L 23.390625 54.6875 
z
" id="DejaVuSans-Oblique-112"/>
      <path d="M 44.578125 46.390625 
Q 43.21875 47.125 41.453125 47.515625 
Q 39.703125 47.90625 37.703125 47.90625 
Q 30.515625 47.90625 25.140625 42.453125 
Q 19.78125 37.015625 18.015625 27.875 
L 12.5 0 
L 3.515625 0 
L 14.203125 54.6875 
L 23.1875 54.6875 
L 21.484375 46.1875 
Q 25.046875 50.921875 30 53.453125 
Q 34.96875 56 40.578125 56 
Q 42.046875 56 43.453125 55.828125 
Q 44.875 55.671875 46.296875 55.28125 
z
" id="DejaVuSans-Oblique-114"/>
      <path d="M 18.3125 75.984375 
L 27.296875 75.984375 
L 25.09375 64.59375 
L 16.109375 64.59375 
z
M 14.203125 54.6875 
L 23.1875 54.6875 
L 12.5 0 
L 3.515625 0 
z
" id="DejaVuSans-Oblique-105"/>
      <path d="M 25.390625 -1.421875 
Q 15.765625 -1.421875 10.171875 4.515625 
Q 4.59375 10.453125 4.59375 20.703125 
Q 4.59375 26.65625 6.515625 32.828125 
Q 8.453125 39.015625 11.53125 43.21875 
Q 16.359375 49.75 22.3125 52.875 
Q 28.265625 56 35.796875 56 
Q 45.125 56 50.859375 50.1875 
Q 56.59375 44.390625 56.59375 35.015625 
Q 56.59375 28.515625 54.6875 22.0625 
Q 52.78125 15.625 49.703125 11.375 
Q 44.921875 4.828125 38.96875 1.703125 
Q 33.015625 -1.421875 25.390625 -1.421875 
z
M 13.921875 21 
Q 13.921875 13.578125 17.015625 9.890625 
Q 20.125 6.203125 26.421875 6.203125 
Q 35.453125 6.203125 41.375 14.078125 
Q 47.3125 21.96875 47.3125 34.078125 
Q 47.3125 41.15625 44.140625 44.765625 
Q 40.96875 48.390625 34.8125 48.390625 
Q 29.734375 48.390625 25.78125 46.015625 
Q 21.828125 43.65625 18.703125 38.8125 
Q 16.40625 35.203125 15.15625 30.5625 
Q 13.921875 25.921875 13.921875 21 
z
" id="DejaVuSans-Oblique-111"/>
      <path d="M 30.609375 48.390625 
Q 23.390625 48.390625 19.1875 42.75 
Q 14.984375 37.109375 14.984375 27.296875 
Q 14.984375 17.484375 19.15625 11.84375 
Q 23.34375 6.203125 30.609375 6.203125 
Q 37.796875 6.203125 41.984375 11.859375 
Q 46.1875 17.53125 46.1875 27.296875 
Q 46.1875 37.015625 41.984375 42.703125 
Q 37.796875 48.390625 30.609375 48.390625 
z
M 30.609375 56 
Q 42.328125 56 49.015625 48.375 
Q 55.71875 40.765625 55.71875 27.296875 
Q 55.71875 13.875 49.015625 6.21875 
Q 42.328125 -1.421875 30.609375 -1.421875 
Q 18.84375 -1.421875 12.171875 6.21875 
Q 5.515625 13.875 5.515625 27.296875 
Q 5.515625 40.765625 12.171875 48.375 
Q 18.84375 56 30.609375 56 
z
" id="DejaVuSans-111"/>
      <path d="M 45.40625 46.390625 
L 45.40625 75.984375 
L 54.390625 75.984375 
L 54.390625 0 
L 45.40625 0 
L 45.40625 8.203125 
Q 42.578125 3.328125 38.25 0.953125 
Q 33.9375 -1.421875 27.875 -1.421875 
Q 17.96875 -1.421875 11.734375 6.484375 
Q 5.515625 14.40625 5.515625 27.296875 
Q 5.515625 40.1875 11.734375 48.09375 
Q 17.96875 56 27.875 56 
Q 33.9375 56 38.25 53.625 
Q 42.578125 51.265625 45.40625 46.390625 
z
M 14.796875 27.296875 
Q 14.796875 17.390625 18.875 11.75 
Q 22.953125 6.109375 30.078125 6.109375 
Q 37.203125 6.109375 41.296875 11.75 
Q 45.40625 17.390625 45.40625 27.296875 
Q 45.40625 37.203125 41.296875 42.84375 
Q 37.203125 48.484375 30.078125 48.484375 
Q 22.953125 48.484375 18.875 42.84375 
Q 14.796875 37.203125 14.796875 27.296875 
z
" id="DejaVuSans-100"/>
      <path d="M 9.421875 75.984375 
L 18.40625 75.984375 
L 18.40625 0 
L 9.421875 0 
z
" id="DejaVuSans-108"/>
     </defs>
     <g transform="translate(155.007812 184.62375)scale(0.1 -0.1)">
      <use transform="translate(0 0.015625)" xlink:href="#DejaVuSans-Oblique-65"/>
      <use transform="translate(68.408203 0.015625)" xlink:href="#DejaVuSans-Oblique-112"/>
      <use transform="translate(131.884766 0.015625)" xlink:href="#DejaVuSans-Oblique-114"/>
      <use transform="translate(172.998047 0.015625)" xlink:href="#DejaVuSans-Oblique-105"/>
      <use transform="translate(200.78125 0.015625)" xlink:href="#DejaVuSans-Oblique-111"/>
      <use transform="translate(261.962891 0.015625)" xlink:href="#DejaVuSans-Oblique-114"/>
      <use transform="translate(303.076172 0.015625)" xlink:href="#DejaVuSans-Oblique-105"/>
      <use transform="translate(330.859375 0.015625)" xlink:href="#DejaVuSans-32"/>
      <use transform="translate(362.646484 0.015625)" xlink:href="#DejaVuSans-109"/>
      <use transform="translate(460.058594 0.015625)" xlink:href="#DejaVuSans-111"/>
      <use transform="translate(521.240234 0.015625)" xlink:href="#DejaVuSans-100"/>
      <use transform="translate(584.716797 0.015625)" xlink:href="#DejaVuSans-101"/>
      <use transform="translate(646.240234 0.015625)" xlink:href="#DejaVuSans-108"/>
     </g>
    </g>
    <g id="line2d_30"/>
    <g id="line2d_31">
     <g>
      <use style="stroke:#000000;" x="137.007812" xlink:href="#me8cf22af39" y="195.822187"/>
     </g>
    </g>
    <g id="text_20">
     <!-- Experimental Data -->
     <defs>
      <path d="M 34.28125 27.484375 
Q 23.390625 27.484375 19.1875 25 
Q 14.984375 22.515625 14.984375 16.5 
Q 14.984375 11.71875 18.140625 8.90625 
Q 21.296875 6.109375 26.703125 6.109375 
Q 34.1875 6.109375 38.703125 11.40625 
Q 43.21875 16.703125 43.21875 25.484375 
L 43.21875 27.484375 
z
M 52.203125 31.203125 
L 52.203125 0 
L 43.21875 0 
L 43.21875 8.296875 
Q 40.140625 3.328125 35.546875 0.953125 
Q 30.953125 -1.421875 24.3125 -1.421875 
Q 15.921875 -1.421875 10.953125 3.296875 
Q 6 8.015625 6 15.921875 
Q 6 25.140625 12.171875 29.828125 
Q 18.359375 34.515625 30.609375 34.515625 
L 43.21875 34.515625 
L 43.21875 35.40625 
Q 43.21875 41.609375 39.140625 45 
Q 35.0625 48.390625 27.6875 48.390625 
Q 23 48.390625 18.546875 47.265625 
Q 14.109375 46.140625 10.015625 43.890625 
L 10.015625 52.203125 
Q 14.9375 54.109375 19.578125 55.046875 
Q 24.21875 56 28.609375 56 
Q 40.484375 56 46.34375 49.84375 
Q 52.203125 43.703125 52.203125 31.203125 
z
" id="DejaVuSans-97"/>
      <path d="M 19.671875 64.796875 
L 19.671875 8.109375 
L 31.59375 8.109375 
Q 46.6875 8.109375 53.6875 14.9375 
Q 60.6875 21.78125 60.6875 36.53125 
Q 60.6875 51.171875 53.6875 57.984375 
Q 46.6875 64.796875 31.59375 64.796875 
z
M 9.8125 72.90625 
L 30.078125 72.90625 
Q 51.265625 72.90625 61.171875 64.09375 
Q 71.09375 55.28125 71.09375 36.53125 
Q 71.09375 17.671875 61.125 8.828125 
Q 51.171875 0 30.078125 0 
L 9.8125 0 
z
" id="DejaVuSans-68"/>
     </defs>
     <g transform="translate(155.007812 199.322187)scale(0.1 -0.1)">
      <use xlink:href="#DejaVuSans-69"/>
      <use x="63.183594" xlink:href="#DejaVuSans-120"/>
      <use x="122.363281" xlink:href="#DejaVuSans-112"/>
      <use x="185.839844" xlink:href="#DejaVuSans-101"/>
      <use x="247.363281" xlink:href="#DejaVuSans-114"/>
      <use x="288.476562" xlink:href="#DejaVuSans-105"/>
      <use x="316.259766" xlink:href="#DejaVuSans-109"/>
      <use x="413.671875" xlink:href="#DejaVuSans-101"/>
      <use x="475.195312" xlink:href="#DejaVuSans-110"/>
      <use x="538.574219" xlink:href="#DejaVuSans-116"/>
      <use x="577.783203" xlink:href="#DejaVuSans-97"/>
      <use x="639.0625" xlink:href="#DejaVuSans-108"/>
      <use x="666.845703" xlink:href="#DejaVuSans-32"/>
      <use x="698.632812" xlink:href="#DejaVuSans-68"/>
      <use x="775.634766" xlink:href="#DejaVuSans-97"/>
      <use x="836.914062" xlink:href="#DejaVuSans-116"/>
      <use x="876.123047" xlink:href="#DejaVuSans-97"/>
     </g>
    </g>
    <g id="line2d_32">
     <path d="M 127.007812 210.500312 
L 147.007812 210.500312 
" style="fill:none;stroke:#ffffff;stroke-linecap:square;stroke-width:1.5;"/>
    </g>
    <g id="line2d_33"/>
    <g id="text_21">
     <!-- T:1186 -->
     <defs>
      <path d="M 11.71875 12.40625 
L 22.015625 12.40625 
L 22.015625 0 
L 11.71875 0 
z
M 11.71875 51.703125 
L 22.015625 51.703125 
L 22.015625 39.3125 
L 11.71875 39.3125 
z
" id="DejaVuSans-58"/>
     </defs>
     <g transform="translate(155.007812 214.000312)scale(0.1 -0.1)">
      <use xlink:href="#DejaVuSans-84"/>
      <use x="60.912109" xlink:href="#DejaVuSans-58"/>
      <use x="94.603516" xlink:href="#DejaVuSans-49"/>
      <use x="158.226562" xlink:href="#DejaVuSans-49"/>
      <use x="221.849609" xlink:href="#DejaVuSans-56"/>
      <use x="285.472656" xlink:href="#DejaVuSans-54"/>
     </g>
    </g>
    <g id="line2d_34">
     <path d="M 127.007812 225.178437 
L 147.007812 225.178437 
" style="fill:none;stroke:#ffffff;stroke-linecap:square;stroke-width:1.5;"/>
    </g>
    <g id="line2d_35"/>
    <g id="text_22">
     <!-- P:1.706 -->
     <defs>
      <path d="M 19.671875 64.796875 
L 19.671875 37.40625 
L 32.078125 37.40625 
Q 38.96875 37.40625 42.71875 40.96875 
Q 46.484375 44.53125 46.484375 51.125 
Q 46.484375 57.671875 42.71875 61.234375 
Q 38.96875 64.796875 32.078125 64.796875 
z
M 9.8125 72.90625 
L 32.078125 72.90625 
Q 44.34375 72.90625 50.609375 67.359375 
Q 56.890625 61.8125 56.890625 51.125 
Q 56.890625 40.328125 50.609375 34.8125 
Q 44.34375 29.296875 32.078125 29.296875 
L 19.671875 29.296875 
L 19.671875 0 
L 9.8125 0 
z
" id="DejaVuSans-80"/>
     </defs>
     <g transform="translate(155.007812 228.678437)scale(0.1 -0.1)">
      <use xlink:href="#DejaVuSans-80"/>
      <use x="60.302734" xlink:href="#DejaVuSans-58"/>
      <use x="93.994141" xlink:href="#DejaVuSans-49"/>
      <use x="157.617188" xlink:href="#DejaVuSans-46"/>
      <use x="189.404297" xlink:href="#DejaVuSans-55"/>
      <use x="253.027344" xlink:href="#DejaVuSans-48"/>
      <use x="316.650391" xlink:href="#DejaVuSans-54"/>
     </g>
    </g>
    <g id="line2d_36">
     <path d="M 268.748438 166.444062 
L 288.748438 166.444062 
" style="fill:none;stroke:#ffffff;stroke-linecap:square;stroke-width:1.5;"/>
    </g>
    <g id="line2d_37"/>
    <g id="text_23">
     <!-- H2O2: 0.001606 -->
     <g transform="translate(296.748438 169.944062)scale(0.1 -0.1)">
      <use xlink:href="#DejaVuSans-72"/>
      <use x="75.195312" xlink:href="#DejaVuSans-50"/>
      <use x="138.818359" xlink:href="#DejaVuSans-79"/>
      <use x="217.529297" xlink:href="#DejaVuSans-50"/>
      <use x="281.152344" xlink:href="#DejaVuSans-58"/>
      <use x="314.84375" xlink:href="#DejaVuSans-32"/>
      <use x="346.630859" xlink:href="#DejaVuSans-48"/>
      <use x="410.253906" xlink:href="#DejaVuSans-46"/>
      <use x="442.041016" xlink:href="#DejaVuSans-48"/>
      <use x="505.664062" xlink:href="#DejaVuSans-48"/>
      <use x="569.287109" xlink:href="#DejaVuSans-49"/>
      <use x="632.910156" xlink:href="#DejaVuSans-54"/>
      <use x="696.533203" xlink:href="#DejaVuSans-48"/>
      <use x="760.15625" xlink:href="#DejaVuSans-54"/>
     </g>
    </g>
    <g id="line2d_38">
     <path d="M 268.748438 181.122187 
L 288.748438 181.122187 
" style="fill:none;stroke:#ffffff;stroke-linecap:square;stroke-width:1.5;"/>
    </g>
    <g id="line2d_39"/>
    <g id="text_24">
     <!-- H2O: 0.001113 -->
     <defs>
      <path d="M 40.578125 39.3125 
Q 47.65625 37.796875 51.625 33 
Q 55.609375 28.21875 55.609375 21.1875 
Q 55.609375 10.40625 48.1875 4.484375 
Q 40.765625 -1.421875 27.09375 -1.421875 
Q 22.515625 -1.421875 17.65625 -0.515625 
Q 12.796875 0.390625 7.625 2.203125 
L 7.625 11.71875 
Q 11.71875 9.328125 16.59375 8.109375 
Q 21.484375 6.890625 26.8125 6.890625 
Q 36.078125 6.890625 40.9375 10.546875 
Q 45.796875 14.203125 45.796875 21.1875 
Q 45.796875 27.640625 41.28125 31.265625 
Q 36.765625 34.90625 28.71875 34.90625 
L 20.21875 34.90625 
L 20.21875 43.015625 
L 29.109375 43.015625 
Q 36.375 43.015625 40.234375 45.921875 
Q 44.09375 48.828125 44.09375 54.296875 
Q 44.09375 59.90625 40.109375 62.90625 
Q 36.140625 65.921875 28.71875 65.921875 
Q 24.65625 65.921875 20.015625 65.03125 
Q 15.375 64.15625 9.8125 62.3125 
L 9.8125 71.09375 
Q 15.4375 72.65625 20.34375 73.4375 
Q 25.25 74.21875 29.59375 74.21875 
Q 40.828125 74.21875 47.359375 69.109375 
Q 53.90625 64.015625 53.90625 55.328125 
Q 53.90625 49.265625 50.4375 45.09375 
Q 46.96875 40.921875 40.578125 39.3125 
z
" id="DejaVuSans-51"/>
     </defs>
     <g transform="translate(296.748438 184.622187)scale(0.1 -0.1)">
      <use xlink:href="#DejaVuSans-72"/>
      <use x="75.195312" xlink:href="#DejaVuSans-50"/>
      <use x="138.818359" xlink:href="#DejaVuSans-79"/>
      <use x="217.513672" xlink:href="#DejaVuSans-58"/>
      <use x="251.205078" xlink:href="#DejaVuSans-32"/>
      <use x="282.992188" xlink:href="#DejaVuSans-48"/>
      <use x="346.615234" xlink:href="#DejaVuSans-46"/>
      <use x="378.402344" xlink:href="#DejaVuSans-48"/>
      <use x="442.025391" xlink:href="#DejaVuSans-48"/>
      <use x="505.648438" xlink:href="#DejaVuSans-49"/>
      <use x="569.271484" xlink:href="#DejaVuSans-49"/>
      <use x="632.894531" xlink:href="#DejaVuSans-49"/>
      <use x="696.517578" xlink:href="#DejaVuSans-51"/>
     </g>
    </g>
    <g id="line2d_40">
     <path d="M 268.748438 195.800312 
L 288.748438 195.800312 
" style="fill:none;stroke:#ffffff;stroke-linecap:square;stroke-width:1.5;"/>
    </g>
    <g id="line2d_41"/>
    <g id="text_25">
     <!-- O2: 0.000556 -->
     <g transform="translate(296.748438 199.300312)scale(0.1 -0.1)">
      <use xlink:href="#DejaVuSans-79"/>
      <use x="78.710938" xlink:href="#DejaVuSans-50"/>
      <use x="142.333984" xlink:href="#DejaVuSans-58"/>
      <use x="176.025391" xlink:href="#DejaVuSans-32"/>
      <use x="207.8125" xlink:href="#DejaVuSans-48"/>
      <use x="271.435547" xlink:href="#DejaVuSans-46"/>
      <use x="303.222656" xlink:href="#DejaVuSans-48"/>
      <use x="366.845703" xlink:href="#DejaVuSans-48"/>
      <use x="430.46875" xlink:href="#DejaVuSans-48"/>
      <use x="494.091797" xlink:href="#DejaVuSans-53"/>
      <use x="557.714844" xlink:href="#DejaVuSans-53"/>
      <use x="621.337891" xlink:href="#DejaVuSans-54"/>
     </g>
    </g>
    <g id="line2d_42">
     <path d="M 268.748438 210.478437 
L 288.748438 210.478437 
" style="fill:none;stroke:#ffffff;stroke-linecap:square;stroke-width:1.5;"/>
    </g>
    <g id="line2d_43"/>
    <g id="text_26">
     <!-- Ar: 0.9967 -->
     <defs>
      <path d="M 34.1875 63.1875 
L 20.796875 26.90625 
L 47.609375 26.90625 
z
M 28.609375 72.90625 
L 39.796875 72.90625 
L 67.578125 0 
L 57.328125 0 
L 50.6875 18.703125 
L 17.828125 18.703125 
L 11.1875 0 
L 0.78125 0 
z
" id="DejaVuSans-65"/>
      <path d="M 10.984375 1.515625 
L 10.984375 10.5 
Q 14.703125 8.734375 18.5 7.8125 
Q 22.3125 6.890625 25.984375 6.890625 
Q 35.75 6.890625 40.890625 13.453125 
Q 46.046875 20.015625 46.78125 33.40625 
Q 43.953125 29.203125 39.59375 26.953125 
Q 35.25 24.703125 29.984375 24.703125 
Q 19.046875 24.703125 12.671875 31.3125 
Q 6.296875 37.9375 6.296875 49.421875 
Q 6.296875 60.640625 12.9375 67.421875 
Q 19.578125 74.21875 30.609375 74.21875 
Q 43.265625 74.21875 49.921875 64.515625 
Q 56.59375 54.828125 56.59375 36.375 
Q 56.59375 19.140625 48.40625 8.859375 
Q 40.234375 -1.421875 26.421875 -1.421875 
Q 22.703125 -1.421875 18.890625 -0.6875 
Q 15.09375 0.046875 10.984375 1.515625 
z
M 30.609375 32.421875 
Q 37.25 32.421875 41.125 36.953125 
Q 45.015625 41.5 45.015625 49.421875 
Q 45.015625 57.28125 41.125 61.84375 
Q 37.25 66.40625 30.609375 66.40625 
Q 23.96875 66.40625 20.09375 61.84375 
Q 16.21875 57.28125 16.21875 49.421875 
Q 16.21875 41.5 20.09375 36.953125 
Q 23.96875 32.421875 30.609375 32.421875 
z
" id="DejaVuSans-57"/>
     </defs>
     <g transform="translate(296.748438 213.978437)scale(0.1 -0.1)">
      <use xlink:href="#DejaVuSans-65"/>
      <use x="68.408203" xlink:href="#DejaVuSans-114"/>
      <use x="109.505859" xlink:href="#DejaVuSans-58"/>
      <use x="143.197266" xlink:href="#DejaVuSans-32"/>
      <use x="174.984375" xlink:href="#DejaVuSans-48"/>
      <use x="238.607422" xlink:href="#DejaVuSans-46"/>
      <use x="270.394531" xlink:href="#DejaVuSans-57"/>
      <use x="334.017578" xlink:href="#DejaVuSans-57"/>
      <use x="397.640625" xlink:href="#DejaVuSans-54"/>
      <use x="461.263672" xlink:href="#DejaVuSans-55"/>
     </g>
    </g>
   </g>
  </g>
 </g>
 <defs>
  <clipPath id="pf74d7f5efe">
   <rect height="217.44" width="334.8" x="53.328125" y="22.318125"/>
  </clipPath>
 </defs>
</svg>
