<?xml version="1.0" encoding="utf-8" standalone="no"?>
<!DOCTYPE svg PUBLIC "-//W3C//DTD SVG 1.1//EN"
  "http://www.w3.org/Graphics/SVG/1.1/DTD/svg11.dtd">
<!-- Created with matplotlib (http://matplotlib.org/) -->
<svg height="277pt" version="1.1" viewBox="0 0 386 277" width="386pt" xmlns="http://www.w3.org/2000/svg" xmlns:xlink="http://www.w3.org/1999/xlink">
 <defs>
  <style type="text/css">
*{stroke-linecap:butt;stroke-linejoin:round;}
  </style>
 </defs>
 <g id="figure_1">
  <g id="patch_1">
   <path d="M 0 277.314375 
L 386.103125 277.314375 
L 386.103125 0 
L 0 0 
z
" style="fill:#ffffff;"/>
  </g>
  <g id="axes_1">
   <g id="patch_2">
    <path d="M 40.603125 239.758125 
L 375.403125 239.758125 
L 375.403125 22.318125 
L 40.603125 22.318125 
z
" style="fill:#ffffff;"/>
   </g>
   <g id="matplotlib.axis_1">
    <g id="xtick_1">
     <g id="line2d_1">
      <defs>
       <path d="M 0 0 
L 0 3.5 
" id="mcf3a1f1159" style="stroke:#000000;stroke-width:0.8;"/>
      </defs>
      <g>
       <use style="stroke:#000000;stroke-width:0.8;" x="55.821307" xlink:href="#mcf3a1f1159" y="239.758125"/>
      </g>
     </g>
     <g id="text_1">
      <!-- 0.0 -->
      <defs>
       <path d="M 31.78125 66.40625 
Q 24.171875 66.40625 20.328125 58.90625 
Q 16.5 51.421875 16.5 36.375 
Q 16.5 21.390625 20.328125 13.890625 
Q 24.171875 6.390625 31.78125 6.390625 
Q 39.453125 6.390625 43.28125 13.890625 
Q 47.125 21.390625 47.125 36.375 
Q 47.125 51.421875 43.28125 58.90625 
Q 39.453125 66.40625 31.78125 66.40625 
z
M 31.78125 74.21875 
Q 44.046875 74.21875 50.515625 64.515625 
Q 56.984375 54.828125 56.984375 36.375 
Q 56.984375 17.96875 50.515625 8.265625 
Q 44.046875 -1.421875 31.78125 -1.421875 
Q 19.53125 -1.421875 13.0625 8.265625 
Q 6.59375 17.96875 6.59375 36.375 
Q 6.59375 54.828125 13.0625 64.515625 
Q 19.53125 74.21875 31.78125 74.21875 
z
" id="DejaVuSans-30"/>
       <path d="M 10.6875 12.40625 
L 21 12.40625 
L 21 0 
L 10.6875 0 
z
" id="DejaVuSans-2e"/>
      </defs>
      <g transform="translate(47.869744 254.356562)scale(0.1 -0.1)">
       <use xlink:href="#DejaVuSans-30"/>
       <use x="63.623047" xlink:href="#DejaVuSans-2e"/>
       <use x="95.410156" xlink:href="#DejaVuSans-30"/>
      </g>
     </g>
    </g>
    <g id="xtick_2">
     <g id="line2d_2">
      <g>
       <use style="stroke:#000000;stroke-width:0.8;" x="98.788283" xlink:href="#mcf3a1f1159" y="239.758125"/>
      </g>
     </g>
     <g id="text_2">
      <!-- 0.1 -->
      <defs>
       <path d="M 12.40625 8.296875 
L 28.515625 8.296875 
L 28.515625 63.921875 
L 10.984375 60.40625 
L 10.984375 69.390625 
L 28.421875 72.90625 
L 38.28125 72.90625 
L 38.28125 8.296875 
L 54.390625 8.296875 
L 54.390625 0 
L 12.40625 0 
z
" id="DejaVuSans-31"/>
      </defs>
      <g transform="translate(90.836721 254.356562)scale(0.1 -0.1)">
       <use xlink:href="#DejaVuSans-30"/>
       <use x="63.623047" xlink:href="#DejaVuSans-2e"/>
       <use x="95.410156" xlink:href="#DejaVuSans-31"/>
      </g>
     </g>
    </g>
    <g id="xtick_3">
     <g id="line2d_3">
      <g>
       <use style="stroke:#000000;stroke-width:0.8;" x="141.75526" xlink:href="#mcf3a1f1159" y="239.758125"/>
      </g>
     </g>
     <g id="text_3">
      <!-- 0.2 -->
      <defs>
       <path d="M 19.1875 8.296875 
L 53.609375 8.296875 
L 53.609375 0 
L 7.328125 0 
L 7.328125 8.296875 
Q 12.9375 14.109375 22.625 23.890625 
Q 32.328125 33.6875 34.8125 36.53125 
Q 39.546875 41.84375 41.421875 45.53125 
Q 43.3125 49.21875 43.3125 52.78125 
Q 43.3125 58.59375 39.234375 62.25 
Q 35.15625 65.921875 28.609375 65.921875 
Q 23.96875 65.921875 18.8125 64.3125 
Q 13.671875 62.703125 7.8125 59.421875 
L 7.8125 69.390625 
Q 13.765625 71.78125 18.9375 73 
Q 24.125 74.21875 28.421875 74.21875 
Q 39.75 74.21875 46.484375 68.546875 
Q 53.21875 62.890625 53.21875 53.421875 
Q 53.21875 48.921875 51.53125 44.890625 
Q 49.859375 40.875 45.40625 35.40625 
Q 44.1875 33.984375 37.640625 27.21875 
Q 31.109375 20.453125 19.1875 8.296875 
z
" id="DejaVuSans-32"/>
      </defs>
      <g transform="translate(133.803697 254.356562)scale(0.1 -0.1)">
       <use xlink:href="#DejaVuSans-30"/>
       <use x="63.623047" xlink:href="#DejaVuSans-2e"/>
       <use x="95.410156" xlink:href="#DejaVuSans-32"/>
      </g>
     </g>
    </g>
    <g id="xtick_4">
     <g id="line2d_4">
      <g>
       <use style="stroke:#000000;stroke-width:0.8;" x="184.722236" xlink:href="#mcf3a1f1159" y="239.758125"/>
      </g>
     </g>
     <g id="text_4">
      <!-- 0.3 -->
      <defs>
       <path d="M 40.578125 39.3125 
Q 47.65625 37.796875 51.625 33 
Q 55.609375 28.21875 55.609375 21.1875 
Q 55.609375 10.40625 48.1875 4.484375 
Q 40.765625 -1.421875 27.09375 -1.421875 
Q 22.515625 -1.421875 17.65625 -0.515625 
Q 12.796875 0.390625 7.625 2.203125 
L 7.625 11.71875 
Q 11.71875 9.328125 16.59375 8.109375 
Q 21.484375 6.890625 26.8125 6.890625 
Q 36.078125 6.890625 40.9375 10.546875 
Q 45.796875 14.203125 45.796875 21.1875 
Q 45.796875 27.640625 41.28125 31.265625 
Q 36.765625 34.90625 28.71875 34.90625 
L 20.21875 34.90625 
L 20.21875 43.015625 
L 29.109375 43.015625 
Q 36.375 43.015625 40.234375 45.921875 
Q 44.09375 48.828125 44.09375 54.296875 
Q 44.09375 59.90625 40.109375 62.90625 
Q 36.140625 65.921875 28.71875 65.921875 
Q 24.65625 65.921875 20.015625 65.03125 
Q 15.375 64.15625 9.8125 62.3125 
L 9.8125 71.09375 
Q 15.4375 72.65625 20.34375 73.4375 
Q 25.25 74.21875 29.59375 74.21875 
Q 40.828125 74.21875 47.359375 69.109375 
Q 53.90625 64.015625 53.90625 55.328125 
Q 53.90625 49.265625 50.4375 45.09375 
Q 46.96875 40.921875 40.578125 39.3125 
z
" id="DejaVuSans-33"/>
      </defs>
      <g transform="translate(176.770674 254.356562)scale(0.1 -0.1)">
       <use xlink:href="#DejaVuSans-30"/>
       <use x="63.623047" xlink:href="#DejaVuSans-2e"/>
       <use x="95.410156" xlink:href="#DejaVuSans-33"/>
      </g>
     </g>
    </g>
    <g id="xtick_5">
     <g id="line2d_5">
      <g>
       <use style="stroke:#000000;stroke-width:0.8;" x="227.689213" xlink:href="#mcf3a1f1159" y="239.758125"/>
      </g>
     </g>
     <g id="text_5">
      <!-- 0.4 -->
      <defs>
       <path d="M 37.796875 64.3125 
L 12.890625 25.390625 
L 37.796875 25.390625 
z
M 35.203125 72.90625 
L 47.609375 72.90625 
L 47.609375 25.390625 
L 58.015625 25.390625 
L 58.015625 17.1875 
L 47.609375 17.1875 
L 47.609375 0 
L 37.796875 0 
L 37.796875 17.1875 
L 4.890625 17.1875 
L 4.890625 26.703125 
z
" id="DejaVuSans-34"/>
      </defs>
      <g transform="translate(219.737651 254.356562)scale(0.1 -0.1)">
       <use xlink:href="#DejaVuSans-30"/>
       <use x="63.623047" xlink:href="#DejaVuSans-2e"/>
       <use x="95.410156" xlink:href="#DejaVuSans-34"/>
      </g>
     </g>
    </g>
    <g id="xtick_6">
     <g id="line2d_6">
      <g>
       <use style="stroke:#000000;stroke-width:0.8;" x="270.65619" xlink:href="#mcf3a1f1159" y="239.758125"/>
      </g>
     </g>
     <g id="text_6">
      <!-- 0.5 -->
      <defs>
       <path d="M 10.796875 72.90625 
L 49.515625 72.90625 
L 49.515625 64.59375 
L 19.828125 64.59375 
L 19.828125 46.734375 
Q 21.96875 47.46875 24.109375 47.828125 
Q 26.265625 48.1875 28.421875 48.1875 
Q 40.625 48.1875 47.75 41.5 
Q 54.890625 34.8125 54.890625 23.390625 
Q 54.890625 11.625 47.5625 5.09375 
Q 40.234375 -1.421875 26.90625 -1.421875 
Q 22.3125 -1.421875 17.546875 -0.640625 
Q 12.796875 0.140625 7.71875 1.703125 
L 7.71875 11.625 
Q 12.109375 9.234375 16.796875 8.0625 
Q 21.484375 6.890625 26.703125 6.890625 
Q 35.15625 6.890625 40.078125 11.328125 
Q 45.015625 15.765625 45.015625 23.390625 
Q 45.015625 31 40.078125 35.4375 
Q 35.15625 39.890625 26.703125 39.890625 
Q 22.75 39.890625 18.8125 39.015625 
Q 14.890625 38.140625 10.796875 36.28125 
z
" id="DejaVuSans-35"/>
      </defs>
      <g transform="translate(262.704627 254.356562)scale(0.1 -0.1)">
       <use xlink:href="#DejaVuSans-30"/>
       <use x="63.623047" xlink:href="#DejaVuSans-2e"/>
       <use x="95.410156" xlink:href="#DejaVuSans-35"/>
      </g>
     </g>
    </g>
    <g id="xtick_7">
     <g id="line2d_7">
      <g>
       <use style="stroke:#000000;stroke-width:0.8;" x="313.623166" xlink:href="#mcf3a1f1159" y="239.758125"/>
      </g>
     </g>
     <g id="text_7">
      <!-- 0.6 -->
      <defs>
       <path d="M 33.015625 40.375 
Q 26.375 40.375 22.484375 35.828125 
Q 18.609375 31.296875 18.609375 23.390625 
Q 18.609375 15.53125 22.484375 10.953125 
Q 26.375 6.390625 33.015625 6.390625 
Q 39.65625 6.390625 43.53125 10.953125 
Q 47.40625 15.53125 47.40625 23.390625 
Q 47.40625 31.296875 43.53125 35.828125 
Q 39.65625 40.375 33.015625 40.375 
z
M 52.59375 71.296875 
L 52.59375 62.3125 
Q 48.875 64.0625 45.09375 64.984375 
Q 41.3125 65.921875 37.59375 65.921875 
Q 27.828125 65.921875 22.671875 59.328125 
Q 17.53125 52.734375 16.796875 39.40625 
Q 19.671875 43.65625 24.015625 45.921875 
Q 28.375 48.1875 33.59375 48.1875 
Q 44.578125 48.1875 50.953125 41.515625 
Q 57.328125 34.859375 57.328125 23.390625 
Q 57.328125 12.15625 50.6875 5.359375 
Q 44.046875 -1.421875 33.015625 -1.421875 
Q 20.359375 -1.421875 13.671875 8.265625 
Q 6.984375 17.96875 6.984375 36.375 
Q 6.984375 53.65625 15.1875 63.9375 
Q 23.390625 74.21875 37.203125 74.21875 
Q 40.921875 74.21875 44.703125 73.484375 
Q 48.484375 72.75 52.59375 71.296875 
z
" id="DejaVuSans-36"/>
      </defs>
      <g transform="translate(305.671604 254.356562)scale(0.1 -0.1)">
       <use xlink:href="#DejaVuSans-30"/>
       <use x="63.623047" xlink:href="#DejaVuSans-2e"/>
       <use x="95.410156" xlink:href="#DejaVuSans-36"/>
      </g>
     </g>
    </g>
    <g id="xtick_8">
     <g id="line2d_8">
      <g>
       <use style="stroke:#000000;stroke-width:0.8;" x="356.590143" xlink:href="#mcf3a1f1159" y="239.758125"/>
      </g>
     </g>
     <g id="text_8">
      <!-- 0.7 -->
      <defs>
       <path d="M 8.203125 72.90625 
L 55.078125 72.90625 
L 55.078125 68.703125 
L 28.609375 0 
L 18.3125 0 
L 43.21875 64.59375 
L 8.203125 64.59375 
z
" id="DejaVuSans-37"/>
      </defs>
      <g transform="translate(348.63858 254.356562)scale(0.1 -0.1)">
       <use xlink:href="#DejaVuSans-30"/>
       <use x="63.623047" xlink:href="#DejaVuSans-2e"/>
       <use x="95.410156" xlink:href="#DejaVuSans-37"/>
      </g>
     </g>
    </g>
    <g id="text_9">
     <!-- Time (ms) -->
     <defs>
      <path d="M -0.296875 72.90625 
L 61.375 72.90625 
L 61.375 64.59375 
L 35.5 64.59375 
L 35.5 0 
L 25.59375 0 
L 25.59375 64.59375 
L -0.296875 64.59375 
z
" id="DejaVuSans-54"/>
      <path d="M 9.421875 54.6875 
L 18.40625 54.6875 
L 18.40625 0 
L 9.421875 0 
z
M 9.421875 75.984375 
L 18.40625 75.984375 
L 18.40625 64.59375 
L 9.421875 64.59375 
z
" id="DejaVuSans-69"/>
      <path d="M 52 44.1875 
Q 55.375 50.25 60.0625 53.125 
Q 64.75 56 71.09375 56 
Q 79.640625 56 84.28125 50.015625 
Q 88.921875 44.046875 88.921875 33.015625 
L 88.921875 0 
L 79.890625 0 
L 79.890625 32.71875 
Q 79.890625 40.578125 77.09375 44.375 
Q 74.3125 48.1875 68.609375 48.1875 
Q 61.625 48.1875 57.5625 43.546875 
Q 53.515625 38.921875 53.515625 30.90625 
L 53.515625 0 
L 44.484375 0 
L 44.484375 32.71875 
Q 44.484375 40.625 41.703125 44.40625 
Q 38.921875 48.1875 33.109375 48.1875 
Q 26.21875 48.1875 22.15625 43.53125 
Q 18.109375 38.875 18.109375 30.90625 
L 18.109375 0 
L 9.078125 0 
L 9.078125 54.6875 
L 18.109375 54.6875 
L 18.109375 46.1875 
Q 21.1875 51.21875 25.484375 53.609375 
Q 29.78125 56 35.6875 56 
Q 41.65625 56 45.828125 52.96875 
Q 50 49.953125 52 44.1875 
z
" id="DejaVuSans-6d"/>
      <path d="M 56.203125 29.59375 
L 56.203125 25.203125 
L 14.890625 25.203125 
Q 15.484375 15.921875 20.484375 11.0625 
Q 25.484375 6.203125 34.421875 6.203125 
Q 39.59375 6.203125 44.453125 7.46875 
Q 49.3125 8.734375 54.109375 11.28125 
L 54.109375 2.78125 
Q 49.265625 0.734375 44.1875 -0.34375 
Q 39.109375 -1.421875 33.890625 -1.421875 
Q 20.796875 -1.421875 13.15625 6.1875 
Q 5.515625 13.8125 5.515625 26.8125 
Q 5.515625 40.234375 12.765625 48.109375 
Q 20.015625 56 32.328125 56 
Q 43.359375 56 49.78125 48.890625 
Q 56.203125 41.796875 56.203125 29.59375 
z
M 47.21875 32.234375 
Q 47.125 39.59375 43.09375 43.984375 
Q 39.0625 48.390625 32.421875 48.390625 
Q 24.90625 48.390625 20.390625 44.140625 
Q 15.875 39.890625 15.1875 32.171875 
z
" id="DejaVuSans-65"/>
      <path id="DejaVuSans-20"/>
      <path d="M 31 75.875 
Q 24.46875 64.65625 21.28125 53.65625 
Q 18.109375 42.671875 18.109375 31.390625 
Q 18.109375 20.125 21.3125 9.0625 
Q 24.515625 -2 31 -13.1875 
L 23.1875 -13.1875 
Q 15.875 -1.703125 12.234375 9.375 
Q 8.59375 20.453125 8.59375 31.390625 
Q 8.59375 42.28125 12.203125 53.3125 
Q 15.828125 64.359375 23.1875 75.875 
z
" id="DejaVuSans-28"/>
      <path d="M 44.28125 53.078125 
L 44.28125 44.578125 
Q 40.484375 46.53125 36.375 47.5 
Q 32.28125 48.484375 27.875 48.484375 
Q 21.1875 48.484375 17.84375 46.4375 
Q 14.5 44.390625 14.5 40.28125 
Q 14.5 37.15625 16.890625 35.375 
Q 19.28125 33.59375 26.515625 31.984375 
L 29.59375 31.296875 
Q 39.15625 29.25 43.1875 25.515625 
Q 47.21875 21.78125 47.21875 15.09375 
Q 47.21875 7.46875 41.1875 3.015625 
Q 35.15625 -1.421875 24.609375 -1.421875 
Q 20.21875 -1.421875 15.453125 -0.5625 
Q 10.6875 0.296875 5.421875 2 
L 5.421875 11.28125 
Q 10.40625 8.6875 15.234375 7.390625 
Q 20.0625 6.109375 24.8125 6.109375 
Q 31.15625 6.109375 34.5625 8.28125 
Q 37.984375 10.453125 37.984375 14.40625 
Q 37.984375 18.0625 35.515625 20.015625 
Q 33.0625 21.96875 24.703125 23.78125 
L 21.578125 24.515625 
Q 13.234375 26.265625 9.515625 29.90625 
Q 5.8125 33.546875 5.8125 39.890625 
Q 5.8125 47.609375 11.28125 51.796875 
Q 16.75 56 26.8125 56 
Q 31.78125 56 36.171875 55.265625 
Q 40.578125 54.546875 44.28125 53.078125 
z
" id="DejaVuSans-73"/>
      <path d="M 8.015625 75.875 
L 15.828125 75.875 
Q 23.140625 64.359375 26.78125 53.3125 
Q 30.421875 42.28125 30.421875 31.390625 
Q 30.421875 20.453125 26.78125 9.375 
Q 23.140625 -1.703125 15.828125 -13.1875 
L 8.015625 -13.1875 
Q 14.5 -2 17.703125 9.0625 
Q 20.90625 20.125 20.90625 31.390625 
Q 20.90625 42.671875 17.703125 53.65625 
Q 14.5 64.65625 8.015625 75.875 
z
" id="DejaVuSans-29"/>
     </defs>
     <g transform="translate(182.65 268.034687)scale(0.1 -0.1)">
      <use xlink:href="#DejaVuSans-54"/>
      <use x="61.037109" xlink:href="#DejaVuSans-69"/>
      <use x="88.820312" xlink:href="#DejaVuSans-6d"/>
      <use x="186.232422" xlink:href="#DejaVuSans-65"/>
      <use x="247.755859" xlink:href="#DejaVuSans-20"/>
      <use x="279.542969" xlink:href="#DejaVuSans-28"/>
      <use x="318.556641" xlink:href="#DejaVuSans-6d"/>
      <use x="415.96875" xlink:href="#DejaVuSans-73"/>
      <use x="468.068359" xlink:href="#DejaVuSans-29"/>
     </g>
    </g>
   </g>
   <g id="matplotlib.axis_2">
    <g id="ytick_1">
     <g id="line2d_9">
      <defs>
       <path d="M 0 0 
L -3.5 0 
" id="m9a85758f75" style="stroke:#000000;stroke-width:0.8;"/>
      </defs>
      <g>
       <use style="stroke:#000000;stroke-width:0.8;" x="40.603125" xlink:href="#m9a85758f75" y="229.874489"/>
      </g>
     </g>
     <g id="text_10">
      <!-- 0 -->
      <g transform="translate(27.240625 233.673707)scale(0.1 -0.1)">
       <use xlink:href="#DejaVuSans-30"/>
      </g>
     </g>
    </g>
    <g id="ytick_2">
     <g id="line2d_10">
      <g>
       <use style="stroke:#000000;stroke-width:0.8;" x="40.603125" xlink:href="#m9a85758f75" y="189.392862"/>
      </g>
     </g>
     <g id="text_11">
      <!-- 5 -->
      <g transform="translate(27.240625 193.19208)scale(0.1 -0.1)">
       <use xlink:href="#DejaVuSans-35"/>
      </g>
     </g>
    </g>
    <g id="ytick_3">
     <g id="line2d_11">
      <g>
       <use style="stroke:#000000;stroke-width:0.8;" x="40.603125" xlink:href="#m9a85758f75" y="148.911234"/>
      </g>
     </g>
     <g id="text_12">
      <!-- 10 -->
      <g transform="translate(20.878125 152.710453)scale(0.1 -0.1)">
       <use xlink:href="#DejaVuSans-31"/>
       <use x="63.623047" xlink:href="#DejaVuSans-30"/>
      </g>
     </g>
    </g>
    <g id="ytick_4">
     <g id="line2d_12">
      <g>
       <use style="stroke:#000000;stroke-width:0.8;" x="40.603125" xlink:href="#m9a85758f75" y="108.429607"/>
      </g>
     </g>
     <g id="text_13">
      <!-- 15 -->
      <g transform="translate(20.878125 112.228826)scale(0.1 -0.1)">
       <use xlink:href="#DejaVuSans-31"/>
       <use x="63.623047" xlink:href="#DejaVuSans-35"/>
      </g>
     </g>
    </g>
    <g id="ytick_5">
     <g id="line2d_13">
      <g>
       <use style="stroke:#000000;stroke-width:0.8;" x="40.603125" xlink:href="#m9a85758f75" y="67.94798"/>
      </g>
     </g>
     <g id="text_14">
      <!-- 20 -->
      <g transform="translate(20.878125 71.747199)scale(0.1 -0.1)">
       <use xlink:href="#DejaVuSans-32"/>
       <use x="63.623047" xlink:href="#DejaVuSans-30"/>
      </g>
     </g>
    </g>
    <g id="ytick_6">
     <g id="line2d_14">
      <g>
       <use style="stroke:#000000;stroke-width:0.8;" x="40.603125" xlink:href="#m9a85758f75" y="27.466353"/>
      </g>
     </g>
     <g id="text_15">
      <!-- 25 -->
      <g transform="translate(20.878125 31.265572)scale(0.1 -0.1)">
       <use xlink:href="#DejaVuSans-32"/>
       <use x="63.623047" xlink:href="#DejaVuSans-35"/>
      </g>
     </g>
    </g>
    <g id="text_16">
     <!-- ppmOH -->
     <defs>
      <path d="M 18.109375 8.203125 
L 18.109375 -20.796875 
L 9.078125 -20.796875 
L 9.078125 54.6875 
L 18.109375 54.6875 
L 18.109375 46.390625 
Q 20.953125 51.265625 25.265625 53.625 
Q 29.59375 56 35.59375 56 
Q 45.5625 56 51.78125 48.09375 
Q 58.015625 40.1875 58.015625 27.296875 
Q 58.015625 14.40625 51.78125 6.484375 
Q 45.5625 -1.421875 35.59375 -1.421875 
Q 29.59375 -1.421875 25.265625 0.953125 
Q 20.953125 3.328125 18.109375 8.203125 
z
M 48.6875 27.296875 
Q 48.6875 37.203125 44.609375 42.84375 
Q 40.53125 48.484375 33.40625 48.484375 
Q 26.265625 48.484375 22.1875 42.84375 
Q 18.109375 37.203125 18.109375 27.296875 
Q 18.109375 17.390625 22.1875 11.75 
Q 26.265625 6.109375 33.40625 6.109375 
Q 40.53125 6.109375 44.609375 11.75 
Q 48.6875 17.390625 48.6875 27.296875 
z
" id="DejaVuSans-70"/>
      <path d="M 39.40625 66.21875 
Q 28.65625 66.21875 22.328125 58.203125 
Q 16.015625 50.203125 16.015625 36.375 
Q 16.015625 22.609375 22.328125 14.59375 
Q 28.65625 6.59375 39.40625 6.59375 
Q 50.140625 6.59375 56.421875 14.59375 
Q 62.703125 22.609375 62.703125 36.375 
Q 62.703125 50.203125 56.421875 58.203125 
Q 50.140625 66.21875 39.40625 66.21875 
z
M 39.40625 74.21875 
Q 54.734375 74.21875 63.90625 63.9375 
Q 73.09375 53.65625 73.09375 36.375 
Q 73.09375 19.140625 63.90625 8.859375 
Q 54.734375 -1.421875 39.40625 -1.421875 
Q 24.03125 -1.421875 14.8125 8.828125 
Q 5.609375 19.09375 5.609375 36.375 
Q 5.609375 53.65625 14.8125 63.9375 
Q 24.03125 74.21875 39.40625 74.21875 
z
" id="DejaVuSans-4f"/>
      <path d="M 9.8125 72.90625 
L 19.671875 72.90625 
L 19.671875 43.015625 
L 55.515625 43.015625 
L 55.515625 72.90625 
L 65.375 72.90625 
L 65.375 0 
L 55.515625 0 
L 55.515625 34.71875 
L 19.671875 34.71875 
L 19.671875 0 
L 9.8125 0 
z
" id="DejaVuSans-48"/>
     </defs>
     <g transform="translate(14.798438 149.952969)rotate(-90)scale(0.1 -0.1)">
      <use xlink:href="#DejaVuSans-70"/>
      <use x="63.476562" xlink:href="#DejaVuSans-70"/>
      <use x="126.953125" xlink:href="#DejaVuSans-6d"/>
      <use x="224.365234" xlink:href="#DejaVuSans-4f"/>
      <use x="303.076172" xlink:href="#DejaVuSans-48"/>
     </g>
    </g>
   </g>
   <g id="line2d_15">
    <path clip-path="url(#pabfe38c9a5)" d="M 55.821307 229.874489 
L 59.469765 229.770169 
L 66.739731 229.399628 
L 75.387086 228.741062 
L 83.615121 227.927615 
L 93.725447 226.710975 
L 103.835774 225.277954 
L 113.946101 223.64205 
L 124.056428 221.808861 
L 134.166755 219.778574 
L 144.277081 217.547559 
L 154.395425 215.107389 
L 163.506745 212.725522 
L 172.618064 210.161119 
L 181.729384 207.405862 
L 190.840703 204.450664 
L 199.952023 201.28578 
L 209.063342 197.90091 
L 218.174662 194.285299 
L 227.285981 190.427844 
L 236.397301 186.317214 
L 245.508621 181.941984 
L 254.61994 177.290794 
L 263.73126 172.352529 
L 272.842579 167.116535 
L 281.953899 161.572856 
L 291.065218 155.71251 
L 300.176538 149.527794 
L 309.287857 143.012632 
L 318.399177 136.162939 
L 327.510496 128.977023 
L 336.621816 121.456003 
L 345.733136 113.604236 
L 354.844455 105.429741 
L 357.881562 102.635157 
L 357.881562 102.635157 
" style="fill:none;stroke:#0000ff;stroke-linecap:square;stroke-width:1.5;"/>
   </g>
   <g id="line2d_16">
    <path clip-path="url(#pabfe38c9a5)" d="M 55.821307 229.874489 
L 59.493392 229.768125 
L 66.787523 229.386349 
L 75.262882 228.721099 
L 84.950134 227.714025 
L 93.884105 226.581814 
L 105.537104 224.840326 
L 116.567216 222.932045 
L 126.818643 220.937236 
L 137.07007 218.728152 
L 147.321497 216.299682 
L 157.572925 213.643804 
L 167.824352 210.750236 
L 178.075779 207.606862 
L 188.444997 204.159283 
L 196.251358 201.37659 
L 204.057719 198.425242 
L 211.864081 195.297794 
L 219.670442 191.986487 
L 227.476803 188.483295 
L 235.283164 184.779976 
L 243.089525 180.868125 
L 250.895887 176.739244 
L 258.702248 172.384813 
L 266.508609 167.796385 
L 274.31497 162.965681 
L 282.121331 157.884711 
L 289.927692 152.545903 
L 297.734054 146.942252 
L 305.540415 141.067485 
L 313.346776 134.916246 
L 321.153137 128.484289 
L 328.959498 121.768697 
L 336.76586 114.768105 
L 344.572221 107.482942 
L 352.378582 99.915665 
L 360.184943 92.071008 
L 360.184943 92.071008 
" style="fill:none;stroke:#ff0000;stroke-linecap:square;stroke-width:1.5;"/>
   </g>
   <g id="line2d_17">
    <defs>
     <path d="M 0 3 
C 0.795609 3 1.55874 2.683901 2.12132 2.12132 
C 2.683901 1.55874 3 0.795609 3 0 
C 3 -0.795609 2.683901 -1.55874 2.12132 -2.12132 
C 1.55874 -2.683901 0.795609 -3 0 -3 
C -0.795609 -3 -1.55874 -2.683901 -2.12132 -2.12132 
C -2.683901 -1.55874 -3 -0.795609 -3 0 
C -3 0.795609 -2.683901 1.55874 -2.12132 2.12132 
C -1.55874 2.683901 -0.795609 3 0 3 
z
" id="mac9de2e91e" style="stroke:#000000;"/>
    </defs>
    <g clip-path="url(#pabfe38c9a5)">
     <use style="stroke:#000000;" x="56.28535" xlink:href="#mac9de2e91e" y="202.068631"/>
     <use style="stroke:#000000;" x="60.719542" xlink:href="#mac9de2e91e" y="203.041728"/>
     <use style="stroke:#000000;" x="62.352287" xlink:href="#mac9de2e91e" y="209.168136"/>
     <use style="stroke:#000000;" x="67.937994" xlink:href="#mac9de2e91e" y="227.085887"/>
     <use style="stroke:#000000;" x="69.184036" xlink:href="#mac9de2e91e" y="223.87465"/>
     <use style="stroke:#000000;" x="79.925781" xlink:href="#mac9de2e91e" y="225.505558"/>
     <use style="stroke:#000000;" x="81.859295" xlink:href="#mac9de2e91e" y="222.307048"/>
     <use style="stroke:#000000;" x="84.781049" xlink:href="#mac9de2e91e" y="226.267721"/>
     <use style="stroke:#000000;" x="88.261374" xlink:href="#mac9de2e91e" y="212.271863"/>
     <use style="stroke:#000000;" x="90.151921" xlink:href="#mac9de2e91e" y="216.098591"/>
     <use style="stroke:#000000;" x="91.569831" xlink:href="#mac9de2e91e" y="221.212878"/>
     <use style="stroke:#000000;" x="96.081364" xlink:href="#mac9de2e91e" y="225.137887"/>
     <use style="stroke:#000000;" x="95.909496" xlink:href="#mac9de2e91e" y="220.111616"/>
     <use style="stroke:#000000;" x="101.653321" xlink:href="#mac9de2e91e" y="225.56441"/>
     <use style="stroke:#000000;" x="104.428129" xlink:href="#mac9de2e91e" y="221.730395"/>
     <use style="stroke:#000000;" x="110.55436" xlink:href="#mac9de2e91e" y="225.676771"/>
     <use style="stroke:#000000;" x="113.030977" xlink:href="#mac9de2e91e" y="227.147962"/>
     <use style="stroke:#000000;" x="115.296196" xlink:href="#mac9de2e91e" y="223.736859"/>
     <use style="stroke:#000000;" x="118.396693" xlink:href="#mac9de2e91e" y="216.31282"/>
     <use style="stroke:#000000;" x="125.966615" xlink:href="#mac9de2e91e" y="219.165965"/>
     <use style="stroke:#000000;" x="130.045899" xlink:href="#mac9de2e91e" y="219.054316"/>
     <use style="stroke:#000000;" x="130.579979" xlink:href="#mac9de2e91e" y="222.424833"/>
     <use style="stroke:#000000;" x="134.564307" xlink:href="#mac9de2e91e" y="216.917939"/>
     <use style="stroke:#000000;" x="137.109241" xlink:href="#mac9de2e91e" y="218.640756"/>
     <use style="stroke:#000000;" x="138.596328" xlink:href="#mac9de2e91e" y="222.402803"/>
     <use style="stroke:#000000;" x="141.387892" xlink:href="#mac9de2e91e" y="216.583723"/>
     <use style="stroke:#000000;" x="145.730135" xlink:href="#mac9de2e91e" y="214.495033"/>
     <use style="stroke:#000000;" x="143.907046" xlink:href="#mac9de2e91e" y="226.353235"/>
     <use style="stroke:#000000;" x="146.42577" xlink:href="#mac9de2e91e" y="219.556612"/>
     <use style="stroke:#000000;" x="149.11937" xlink:href="#mac9de2e91e" y="225.278747"/>
     <use style="stroke:#000000;" x="151.049017" xlink:href="#mac9de2e91e" y="221.596725"/>
     <use style="stroke:#000000;" x="153.943702" xlink:href="#mac9de2e91e" y="216.113407"/>
     <use style="stroke:#000000;" x="156.489925" xlink:href="#mac9de2e91e" y="218.507167"/>
     <use style="stroke:#000000;" x="160.788771" xlink:href="#mac9de2e91e" y="217.382263"/>
     <use style="stroke:#000000;" x="165.254759" xlink:href="#mac9de2e91e" y="213.111209"/>
     <use style="stroke:#000000;" x="165.390534" xlink:href="#mac9de2e91e" y="221.96782"/>
     <use style="stroke:#000000;" x="169.244672" xlink:href="#mac9de2e91e" y="215.242405"/>
     <use style="stroke:#000000;" x="172.730583" xlink:href="#mac9de2e91e" y="218.790943"/>
     <use style="stroke:#000000;" x="176.197159" xlink:href="#mac9de2e91e" y="216.336299"/>
     <use style="stroke:#000000;" x="179.286055" xlink:href="#mac9de2e91e" y="212.787922"/>
     <use style="stroke:#000000;" x="182.392137" xlink:href="#mac9de2e91e" y="207.195871"/>
     <use style="stroke:#000000;" x="183.554824" xlink:href="#mac9de2e91e" y="211.01928"/>
     <use style="stroke:#000000;" x="185.375334" xlink:href="#mac9de2e91e" y="203.684252"/>
     <use style="stroke:#000000;" x="187.390056" xlink:href="#mac9de2e91e" y="214.845766"/>
     <use style="stroke:#000000;" x="192.573162" xlink:href="#mac9de2e91e" y="205.657084"/>
     <use style="stroke:#000000;" x="192.054981" xlink:href="#mac9de2e91e" y="211.986467"/>
     <use style="stroke:#000000;" x="195.47816" xlink:href="#mac9de2e91e" y="206.36616"/>
     <use style="stroke:#000000;" x="197.532411" xlink:href="#mac9de2e91e" y="212.847269"/>
     <use style="stroke:#000000;" x="198.842904" xlink:href="#mac9de2e91e" y="207.588624"/>
     <use style="stroke:#000000;" x="200.800479" xlink:href="#mac9de2e91e" y="200.649426"/>
     <use style="stroke:#000000;" x="203.886797" xlink:href="#mac9de2e91e" y="204.837574"/>
     <use style="stroke:#000000;" x="205.264748" xlink:href="#mac9de2e91e" y="208.994065"/>
     <use style="stroke:#000000;" x="206.860971" xlink:href="#mac9de2e91e" y="207.347597"/>
     <use style="stroke:#000000;" x="208.61918" xlink:href="#mac9de2e91e" y="199.022145"/>
     <use style="stroke:#000000;" x="209.653825" xlink:href="#mac9de2e91e" y="201.427968"/>
     <use style="stroke:#000000;" x="211.061423" xlink:href="#mac9de2e91e" y="209.525589"/>
     <use style="stroke:#000000;" x="214.602331" xlink:href="#mac9de2e91e" y="203.847231"/>
     <use style="stroke:#000000;" x="217.441589" xlink:href="#mac9de2e91e" y="203.431971"/>
     <use style="stroke:#000000;" x="222.055383" xlink:href="#mac9de2e91e" y="198.364805"/>
     <use style="stroke:#000000;" x="221.191747" xlink:href="#mac9de2e91e" y="208.997223"/>
     <use style="stroke:#000000;" x="225.943035" xlink:href="#mac9de2e91e" y="195.963758"/>
     <use style="stroke:#000000;" x="226.981117" xlink:href="#mac9de2e91e" y="194.125892"/>
     <use style="stroke:#000000;" x="232.084305" xlink:href="#mac9de2e91e" y="193.205016"/>
     <use style="stroke:#000000;" x="232.41558" xlink:href="#mac9de2e91e" y="196.782783"/>
     <use style="stroke:#000000;" x="236.692513" xlink:href="#mac9de2e91e" y="193.201454"/>
     <use style="stroke:#000000;" x="239.475484" xlink:href="#mac9de2e91e" y="192.259042"/>
     <use style="stroke:#000000;" x="242.673946" xlink:href="#mac9de2e91e" y="188.235897"/>
     <use style="stroke:#000000;" x="243.1367" xlink:href="#mac9de2e91e" y="183.426113"/>
     <use style="stroke:#000000;" x="247.454022" xlink:href="#mac9de2e91e" y="181.792517"/>
     <use style="stroke:#000000;" x="249.622566" xlink:href="#mac9de2e91e" y="183.513715"/>
     <use style="stroke:#000000;" x="253.534279" xlink:href="#mac9de2e91e" y="184.483655"/>
     <use style="stroke:#000000;" x="253.490023" xlink:href="#mac9de2e91e" y="181.436522"/>
     <use style="stroke:#000000;" x="254.697395" xlink:href="#mac9de2e91e" y="188.330462"/>
     <use style="stroke:#000000;" x="257.965893" xlink:href="#mac9de2e91e" y="176.005021"/>
     <use style="stroke:#000000;" x="259.565983" xlink:href="#mac9de2e91e" y="186.328159"/>
     <use style="stroke:#000000;" x="261.713902" xlink:href="#mac9de2e91e" y="181.797051"/>
     <use style="stroke:#000000;" x="263.854088" xlink:href="#mac9de2e91e" y="178.178398"/>
     <use style="stroke:#000000;" x="266.090089" xlink:href="#mac9de2e91e" y="188.134854"/>
     <use style="stroke:#000000;" x="269.317768" xlink:href="#mac9de2e91e" y="180.681215"/>
     <use style="stroke:#000000;" x="271.564511" xlink:href="#mac9de2e91e" y="172.774182"/>
     <use style="stroke:#000000;" x="273.134954" xlink:href="#mac9de2e91e" y="178.316845"/>
     <use style="stroke:#000000;" x="277.104244" xlink:href="#mac9de2e91e" y="174.565413"/>
     <use style="stroke:#000000;" x="276.519463" xlink:href="#mac9de2e91e" y="177.223842"/>
     <use style="stroke:#000000;" x="281.349381" xlink:href="#mac9de2e91e" y="179.772403"/>
     <use style="stroke:#000000;" x="281.599878" xlink:href="#mac9de2e91e" y="175.136933"/>
     <use style="stroke:#000000;" x="286.949267" xlink:href="#mac9de2e91e" y="171.217259"/>
     <use style="stroke:#000000;" x="288.347842" xlink:href="#mac9de2e91e" y="175.446779"/>
     <use style="stroke:#000000;" x="294.437981" xlink:href="#mac9de2e91e" y="178.641427"/>
     <use style="stroke:#000000;" x="295.530202" xlink:href="#mac9de2e91e" y="174.259129"/>
     <use style="stroke:#000000;" x="298.120251" xlink:href="#mac9de2e91e" y="167.31823"/>
     <use style="stroke:#000000;" x="299.576832" xlink:href="#mac9de2e91e" y="169.70446"/>
     <use style="stroke:#000000;" x="303.164574" xlink:href="#mac9de2e91e" y="162.382629"/>
     <use style="stroke:#000000;" x="305.910594" xlink:href="#mac9de2e91e" y="169.084767"/>
     <use style="stroke:#000000;" x="309.211317" xlink:href="#mac9de2e91e" y="152.981905"/>
     <use style="stroke:#000000;" x="311.288341" xlink:href="#mac9de2e91e" y="156.808066"/>
     <use style="stroke:#000000;" x="313.180606" xlink:href="#mac9de2e91e" y="149.285042"/>
     <use style="stroke:#000000;" x="314.972759" xlink:href="#mac9de2e91e" y="145.247647"/>
     <use style="stroke:#000000;" x="315.588476" xlink:href="#mac9de2e91e" y="147.270919"/>
     <use style="stroke:#000000;" x="320.932279" xlink:href="#mac9de2e91e" y="152.815606"/>
     <use style="stroke:#000000;" x="322.729587" xlink:href="#mac9de2e91e" y="150.919042"/>
     <use style="stroke:#000000;" x="324.799306" xlink:href="#mac9de2e91e" y="155.653773"/>
     <use style="stroke:#000000;" x="326.246864" xlink:href="#mac9de2e91e" y="159.065646"/>
     <use style="stroke:#000000;" x="329.10116" xlink:href="#mac9de2e91e" y="145.883209"/>
     <use style="stroke:#000000;" x="333.012014" xlink:href="#mac9de2e91e" y="157.313439"/>
     <use style="stroke:#000000;" x="336.079856" xlink:href="#mac9de2e91e" y="143.820265"/>
     <use style="stroke:#000000;" x="337.736233" xlink:href="#mac9de2e91e" y="147.51057"/>
     <use style="stroke:#000000;" x="341.447291" xlink:href="#mac9de2e91e" y="152.651656"/>
     <use style="stroke:#000000;" x="340.874112" xlink:href="#mac9de2e91e" y="150.594946"/>
     <use style="stroke:#000000;" x="345.121827" xlink:href="#mac9de2e91e" y="147.232866"/>
     <use style="stroke:#000000;" x="349.585666" xlink:href="#mac9de2e91e" y="140.45948"/>
     <use style="stroke:#000000;" x="352.309343" xlink:href="#mac9de2e91e" y="145.454103"/>
     <use style="stroke:#000000;" x="354.033178" xlink:href="#mac9de2e91e" y="141.14281"/>
     <use style="stroke:#000000;" x="356.529559" xlink:href="#mac9de2e91e" y="145.296225"/>
    </g>
   </g>
   <g id="line2d_18">
    <path clip-path="url(#pabfe38c9a5)" d="M 56.28535 229.867389 
L 60.719542 229.669353 
L 62.352287 229.568038 
L 67.937994 229.11668 
L 69.184036 228.994839 
L 79.925781 227.665777 
L 81.859295 227.37764 
L 84.781049 226.916339 
L 88.261374 226.326784 
L 90.151921 225.989389 
L 91.569831 225.728677 
L 96.081364 224.854171 
L 95.909496 224.889044 
L 101.653321 223.684855 
L 104.428129 223.066101 
L 110.55436 221.618445 
L 113.030977 221.001207 
L 115.296196 220.421691 
L 118.396693 219.603032 
L 125.966615 217.486023 
L 130.045899 216.272416 
L 130.579979 216.109454 
L 134.564307 214.871433 
L 137.109241 214.057221 
L 138.596328 213.572324 
L 141.387892 212.640497 
L 145.730135 211.1457 
L 143.907046 211.782738 
L 146.42577 210.900815 
L 149.11937 209.939234 
L 151.049017 209.235848 
L 153.943702 208.157977 
L 156.489925 207.188099 
L 160.788771 205.506476 
L 165.254759 203.687858 
L 165.390534 203.631667 
L 169.244672 202.010498 
L 172.730583 200.499498 
L 176.197159 198.956871 
L 179.286055 197.543176 
L 182.392137 196.085715 
L 183.554824 195.529815 
L 185.375334 194.653477 
L 187.390056 193.671141 
L 192.573162 191.067026 
L 192.054981 191.332154 
L 195.47816 189.562717 
L 197.532411 188.481241 
L 198.842904 187.780514 
L 200.800479 186.723007 
L 203.886797 185.023679 
L 205.264748 184.254169 
L 206.860971 183.352623 
L 208.61918 182.349362 
L 209.653825 181.751482 
L 211.061423 180.930398 
L 214.602331 178.828342 
L 217.441589 177.104972 
L 222.055383 174.233821 
L 221.191747 174.782347 
L 225.943035 171.739495 
L 226.981117 171.065212 
L 232.084305 167.668312 
L 232.41558 167.444798 
L 236.692513 164.500128 
L 239.475484 162.535066 
L 242.673946 160.237563 
L 243.1367 159.900083 
L 247.454022 156.718113 
L 249.622566 155.079567 
L 253.534279 152.064126 
L 253.490023 152.098509 
L 254.697395 151.159569 
L 257.965893 148.576565 
L 259.565983 147.291661 
L 261.713902 145.547577 
L 263.854088 143.786297 
L 266.090089 141.912078 
L 269.317768 139.175275 
L 271.564511 137.239145 
L 273.134954 135.876307 
L 277.104244 132.358341 
L 276.519463 132.883227 
L 281.349381 128.514044 
L 281.599878 128.285739 
L 286.949267 123.296314 
L 288.347842 121.971364 
L 294.437981 116.08344 
L 295.530202 115.004339 
L 298.120251 112.42798 
L 299.576832 110.962484 
L 303.164574 107.314144 
L 305.910594 104.477462 
L 309.211317 101.022541 
L 311.288341 98.810445 
L 313.180606 96.784343 
L 314.972759 94.854336 
L 315.588476 94.18825 
L 320.932279 88.318964 
L 322.729587 86.308403 
L 324.799306 83.981155 
L 326.246864 82.339797 
L 329.10116 79.087348 
L 333.012014 74.581256 
L 336.079856 70.983532 
L 337.736233 69.024929 
L 341.447291 64.611745 
L 340.874112 65.295878 
L 345.121827 60.19967 
L 349.585666 54.75859 
L 352.309343 51.409604 
L 354.033178 49.278302 
L 356.529559 46.622709 
" style="fill:none;stroke:#0000ff;stroke-dasharray:5.55,2.4;stroke-dashoffset:0;stroke-width:1.5;"/>
   </g>
   <g id="line2d_19">
    <path clip-path="url(#pabfe38c9a5)" d="M 56.28535 229.870454 
L 60.719542 229.757806 
L 62.352287 229.703013 
L 67.937994 229.470869 
L 69.184036 229.410218 
L 79.925781 228.76983 
L 81.859295 228.634123 
L 84.781049 228.416705 
L 88.261374 228.14256 
L 90.151921 227.986183 
L 91.569831 227.866043 
L 96.081364 227.463133 
L 95.909496 227.479176 
L 101.653321 226.928767 
L 104.428129 226.646913 
L 110.55436 225.990985 
L 113.030977 225.712312 
L 115.296196 225.450528 
L 118.396693 225.082359 
L 125.966615 224.132317 
L 130.045899 223.591455 
L 130.579979 223.518513 
L 134.564307 222.966457 
L 137.109241 222.601954 
L 138.596328 222.385925 
L 141.387892 221.972728 
L 145.730135 221.309669 
L 143.907046 221.590405 
L 146.42577 221.201886 
L 149.11937 220.772724 
L 151.049017 220.462349 
L 153.943702 219.985027 
L 156.489925 219.554641 
L 160.788771 218.809279 
L 165.254759 218.006472 
L 165.390534 217.98173 
L 169.244672 217.266611 
L 172.730583 216.600341 
L 176.197159 215.9161 
L 179.286055 215.293501 
L 182.392137 214.652849 
L 183.554824 214.408712 
L 185.375334 214.02304 
L 187.390056 213.588487 
L 192.573162 212.439031 
L 192.054981 212.555766 
L 195.47816 211.77595 
L 197.532411 211.298817 
L 198.842904 210.989559 
L 200.800479 210.523288 
L 203.886797 209.773862 
L 205.264748 209.433411 
L 206.860971 209.034291 
L 208.61918 208.589922 
L 209.653825 208.325111 
L 211.061423 207.961463 
L 214.602331 207.034338 
L 217.441589 206.271455 
L 222.055383 204.997183 
L 221.191747 205.240614 
L 225.943035 203.890869 
L 226.981117 203.592002 
L 232.084305 202.077927 
L 232.41558 201.97801 
L 236.692513 200.668068 
L 239.475484 199.795675 
L 242.673946 198.766426 
L 243.1367 198.614012 
L 247.454022 197.180711 
L 249.622566 196.447962 
L 253.534279 195.098905 
L 253.490023 195.114357 
L 254.697395 194.692154 
L 257.965893 193.520257 
L 259.565983 192.935064 
L 261.713902 192.143445 
L 263.854088 191.347198 
L 266.090089 190.499836 
L 269.317768 189.253107 
L 271.564511 188.365998 
L 273.134954 187.740687 
L 277.104244 186.125754 
L 276.519463 186.366878 
L 281.349381 184.353143 
L 281.599878 184.247554 
L 286.949267 181.935567 
L 288.347842 181.319922 
L 294.437981 178.558913 
L 295.530202 178.049834 
L 298.120251 176.834617 
L 299.576832 176.144072 
L 303.164574 174.412003 
L 305.910594 173.054719 
L 309.211317 171.394076 
L 311.288341 170.329796 
L 313.180606 169.349744 
L 314.972759 168.410306 
L 315.588476 168.085154 
L 320.932279 165.205049 
L 322.729587 164.215731 
L 324.799306 163.066805 
L 326.246864 162.249189 
L 329.10116 160.617825 
L 333.012014 158.33552 
L 336.079856 156.51389 
L 337.736233 155.514275 
L 341.447291 153.236729 
L 340.874112 153.592224 
L 345.121827 150.930224 
L 349.585666 148.065691 
L 352.309343 146.281558 
L 354.033178 145.135482 
L 356.529559 143.246062 
" style="fill:none;stroke:#0000ff;stroke-dasharray:5.55,2.4;stroke-dashoffset:0;stroke-width:1.5;"/>
   </g>
   <g id="line2d_20">
    <path clip-path="url(#pabfe38c9a5)" d="M 56.28535 229.867376 
L 60.719542 229.666332 
L 62.352287 229.562299 
L 67.937994 229.097177 
L 69.184036 228.971369 
L 79.925781 227.590929 
L 81.859295 227.291717 
L 84.781049 226.810033 
L 88.261374 226.1958 
L 90.151921 225.842698 
L 91.569831 225.569861 
L 96.081364 224.64959 
L 95.909496 224.685668 
L 101.653321 223.434029 
L 104.428129 222.78755 
L 110.55436 221.271923 
L 113.030977 220.626449 
L 115.296196 220.016835 
L 118.396693 219.15891 
L 125.966615 216.936997 
L 130.045899 215.665528 
L 130.579979 215.494864 
L 134.564307 214.197531 
L 137.109241 213.341108 
L 138.596328 212.829318 
L 141.387892 211.852928 
L 145.730135 210.280878 
L 143.907046 210.94891 
L 146.42577 210.023023 
L 149.11937 209.010389 
L 151.049017 208.270153 
L 153.943702 207.13696 
L 156.489925 206.116646 
L 160.788771 204.341754 
L 165.254759 202.43094 
L 165.390534 202.371155 
L 169.244672 200.658723 
L 172.730583 199.067719 
L 176.197159 197.434826 
L 179.286055 195.943178 
L 182.392137 194.403481 
L 183.554824 193.820506 
L 185.375334 192.893896 
L 187.390056 191.850208 
L 192.573162 189.101789 
L 192.054981 189.38125 
L 195.47816 187.509638 
L 197.532411 186.361295 
L 198.842904 185.619987 
L 200.800479 184.501153 
L 203.886797 182.700708 
L 205.264748 181.878113 
L 206.860971 180.921896 
L 208.61918 179.857417 
L 209.653825 179.220192 
L 211.061423 178.353057 
L 214.602331 176.123777 
L 217.441589 174.294795 
L 222.055383 171.240303 
L 221.191747 171.820537 
L 225.943035 168.583908 
L 226.981117 167.866862 
L 232.084305 164.241439 
L 232.41558 164.000055 
L 236.692513 160.856052 
L 239.475484 158.768635 
L 242.673946 156.313794 
L 243.1367 155.957631 
L 247.454022 152.547392 
L 249.622566 150.795179 
L 253.534279 147.57478 
L 253.490023 147.611542 
L 254.697395 146.608573 
L 257.965893 143.826545 
L 259.565983 142.445012 
L 261.713902 140.569336 
L 263.854088 138.67364 
L 266.090089 136.673198 
L 269.317768 133.725089 
L 271.564511 131.640815 
L 273.134954 130.166784 
L 277.104244 126.377966 
L 276.519463 126.940064 
L 281.349381 122.226826 
L 281.599878 121.980434 
L 286.949267 116.581363 
L 288.347842 115.139183 
L 294.437981 108.743322 
L 295.530202 107.567578 
L 298.120251 104.771614 
L 299.576832 103.171389 
L 303.164574 99.196995 
L 305.910594 96.112469 
L 309.211317 92.340405 
L 311.288341 89.925542 
L 313.180606 87.722152 
L 314.972759 85.597509 
L 315.588476 84.866542 
L 320.932279 78.431732 
L 322.729587 76.21829 
L 324.799306 73.665516 
L 326.246864 71.854173 
L 329.10116 68.271532 
L 333.012014 63.284645 
L 336.079856 59.314951 
L 337.736233 57.152815 
L 341.447291 52.265399 
L 340.874112 53.029404 
L 345.121827 47.363311 
L 349.585666 41.318656 
L 352.309343 37.590188 
L 354.033178 35.199562 
L 356.529559 32.201761 
" style="fill:none;stroke:#ff0000;stroke-dasharray:5.55,2.4;stroke-dashoffset:0;stroke-width:1.5;"/>
   </g>
   <g id="line2d_21">
    <path clip-path="url(#pabfe38c9a5)" d="M 56.28535 229.870442 
L 60.719542 229.756381 
L 62.352287 229.700696 
L 67.937994 229.462944 
L 69.184036 229.401082 
L 79.925781 228.741985 
L 81.859295 228.60156 
L 84.781049 228.378506 
L 88.261374 228.094412 
L 90.151921 227.932755 
L 91.569831 227.808109 
L 96.081364 227.38872 
L 95.909496 227.405134 
L 101.653321 226.838144 
L 104.428129 226.546529 
L 110.55436 225.866435 
L 113.030977 225.577166 
L 115.296196 225.304883 
L 118.396693 224.922857 
L 125.966615 223.936547 
L 130.045899 223.37397 
L 130.579979 223.298275 
L 134.564307 222.725514 
L 137.109241 222.347858 
L 138.596328 222.121786 
L 141.387892 221.69176 
L 145.730135 221.002248 
L 143.907046 221.29476 
L 146.42577 220.889572 
L 149.11937 220.446276 
L 151.049017 220.121842 
L 153.943702 219.625397 
L 156.489925 219.178588 
L 160.788771 218.403774 
L 165.254759 217.570024 
L 165.390534 217.543934 
L 169.244672 216.797107 
L 172.730583 216.10322 
L 176.197159 215.393524 
L 179.286055 214.744491 
L 182.392137 214.074076 
L 183.554824 213.820508 
L 185.375334 213.418351 
L 187.390056 212.966639 
L 192.573162 211.772602 
L 192.054981 211.894203 
L 195.47816 211.079037 
L 197.532411 210.580118 
L 198.842904 210.258611 
L 200.800479 209.773952 
L 203.886797 208.995612 
L 205.264748 208.638289 
L 206.860971 208.222862 
L 208.61918 207.76015 
L 209.653825 207.482721 
L 211.061423 207.105383 
L 214.602331 206.134478 
L 217.441589 205.33742 
L 222.055383 204.009358 
L 221.191747 204.261024 
L 225.943035 202.856595 
L 226.981117 202.545435 
L 232.084305 200.969392 
L 232.41558 200.864235 
L 236.692513 199.493775 
L 239.475484 198.582055 
L 242.673946 197.50694 
L 243.1367 197.35096 
L 247.454022 195.853996 
L 249.622566 195.082954 
L 253.534279 193.667808 
L 253.490023 193.68395 
L 254.697395 193.243574 
L 257.965893 192.019011 
L 259.565983 191.410002 
L 261.713902 190.582132 
L 263.854088 189.743753 
L 266.090089 188.857733 
L 269.317768 187.547524 
L 271.564511 186.619517 
L 273.134954 185.962392 
L 277.104244 184.269994 
L 276.519463 184.521308 
L 281.349381 182.409076 
L 281.599878 182.298481 
L 286.949267 179.8708 
L 288.347842 179.22087 
L 294.437981 176.326297 
L 295.530202 175.791008 
L 298.120251 174.516186 
L 299.576832 173.782932 
L 303.164574 171.955677 
L 305.910594 170.530374 
L 309.211317 168.778326 
L 311.288341 167.650204 
L 313.180606 166.618854 
L 314.972759 165.619865 
L 315.588476 165.275728 
L 320.932279 162.240349 
L 322.729587 161.189561 
L 324.799306 159.975015 
L 326.246864 159.108108 
L 329.10116 157.387784 
L 333.012014 154.970943 
L 336.079856 153.028607 
L 337.736233 151.964572 
L 341.447291 149.543284 
L 340.874112 149.924216 
L 345.121827 147.089553 
L 349.585666 144.029608 
L 352.309343 142.131009 
L 354.033178 140.903588 
L 356.529559 138.904481 
" style="fill:none;stroke:#ff0000;stroke-dasharray:5.55,2.4;stroke-dashoffset:0;stroke-width:1.5;"/>
   </g>
   <g id="line2d_22"/>
   <g id="line2d_23"/>
   <g id="line2d_24"/>
   <g id="line2d_25"/>
   <g id="line2d_26"/>
   <g id="patch_3">
    <path d="M 40.603125 239.758125 
L 40.603125 22.318125 
" style="fill:none;stroke:#000000;stroke-linecap:square;stroke-linejoin:miter;stroke-width:0.8;"/>
   </g>
   <g id="patch_4">
    <path d="M 375.403125 239.758125 
L 375.403125 22.318125 
" style="fill:none;stroke:#000000;stroke-linecap:square;stroke-linejoin:miter;stroke-width:0.8;"/>
   </g>
   <g id="patch_5">
    <path d="M 40.603125 239.758125 
L 375.403125 239.758125 
" style="fill:none;stroke:#000000;stroke-linecap:square;stroke-linejoin:miter;stroke-width:0.8;"/>
   </g>
   <g id="patch_6">
    <path d="M 40.603125 22.318125 
L 375.403125 22.318125 
" style="fill:none;stroke:#000000;stroke-linecap:square;stroke-linejoin:miter;stroke-width:0.8;"/>
   </g>
   <g id="text_17">
    <!-- Experiment_11 -->
    <defs>
     <path d="M 9.8125 72.90625 
L 55.90625 72.90625 
L 55.90625 64.59375 
L 19.671875 64.59375 
L 19.671875 43.015625 
L 54.390625 43.015625 
L 54.390625 34.71875 
L 19.671875 34.71875 
L 19.671875 8.296875 
L 56.78125 8.296875 
L 56.78125 0 
L 9.8125 0 
z
" id="DejaVuSans-45"/>
     <path d="M 54.890625 54.6875 
L 35.109375 28.078125 
L 55.90625 0 
L 45.3125 0 
L 29.390625 21.484375 
L 13.484375 0 
L 2.875 0 
L 24.125 28.609375 
L 4.6875 54.6875 
L 15.28125 54.6875 
L 29.78125 35.203125 
L 44.28125 54.6875 
z
" id="DejaVuSans-78"/>
     <path d="M 41.109375 46.296875 
Q 39.59375 47.171875 37.8125 47.578125 
Q 36.03125 48 33.890625 48 
Q 26.265625 48 22.1875 43.046875 
Q 18.109375 38.09375 18.109375 28.8125 
L 18.109375 0 
L 9.078125 0 
L 9.078125 54.6875 
L 18.109375 54.6875 
L 18.109375 46.1875 
Q 20.953125 51.171875 25.484375 53.578125 
Q 30.03125 56 36.53125 56 
Q 37.453125 56 38.578125 55.875 
Q 39.703125 55.765625 41.0625 55.515625 
z
" id="DejaVuSans-72"/>
     <path d="M 54.890625 33.015625 
L 54.890625 0 
L 45.90625 0 
L 45.90625 32.71875 
Q 45.90625 40.484375 42.875 44.328125 
Q 39.84375 48.1875 33.796875 48.1875 
Q 26.515625 48.1875 22.3125 43.546875 
Q 18.109375 38.921875 18.109375 30.90625 
L 18.109375 0 
L 9.078125 0 
L 9.078125 54.6875 
L 18.109375 54.6875 
L 18.109375 46.1875 
Q 21.34375 51.125 25.703125 53.5625 
Q 30.078125 56 35.796875 56 
Q 45.21875 56 50.046875 50.171875 
Q 54.890625 44.34375 54.890625 33.015625 
z
" id="DejaVuSans-6e"/>
     <path d="M 18.3125 70.21875 
L 18.3125 54.6875 
L 36.8125 54.6875 
L 36.8125 47.703125 
L 18.3125 47.703125 
L 18.3125 18.015625 
Q 18.3125 11.328125 20.140625 9.421875 
Q 21.96875 7.515625 27.59375 7.515625 
L 36.8125 7.515625 
L 36.8125 0 
L 27.59375 0 
Q 17.1875 0 13.234375 3.875 
Q 9.28125 7.765625 9.28125 18.015625 
L 9.28125 47.703125 
L 2.6875 47.703125 
L 2.6875 54.6875 
L 9.28125 54.6875 
L 9.28125 70.21875 
z
" id="DejaVuSans-74"/>
     <path d="M 50.984375 -16.609375 
L 50.984375 -23.578125 
L -0.984375 -23.578125 
L -0.984375 -16.609375 
z
" id="DejaVuSans-5f"/>
    </defs>
    <g transform="translate(162.700312 16.318125)scale(0.12 -0.12)">
     <use xlink:href="#DejaVuSans-45"/>
     <use x="63.183594" xlink:href="#DejaVuSans-78"/>
     <use x="122.363281" xlink:href="#DejaVuSans-70"/>
     <use x="185.839844" xlink:href="#DejaVuSans-65"/>
     <use x="247.363281" xlink:href="#DejaVuSans-72"/>
     <use x="288.476562" xlink:href="#DejaVuSans-69"/>
     <use x="316.259766" xlink:href="#DejaVuSans-6d"/>
     <use x="413.671875" xlink:href="#DejaVuSans-65"/>
     <use x="475.195312" xlink:href="#DejaVuSans-6e"/>
     <use x="538.574219" xlink:href="#DejaVuSans-74"/>
     <use x="577.783203" xlink:href="#DejaVuSans-5f"/>
     <use x="627.783203" xlink:href="#DejaVuSans-31"/>
     <use x="691.40625" xlink:href="#DejaVuSans-31"/>
    </g>
   </g>
   <g id="legend_1">
    <g id="patch_7">
     <path d="M 47.603125 89.0525 
L 312.595312 89.0525 
Q 314.595312 89.0525 314.595312 87.0525 
L 314.595312 29.318125 
Q 314.595312 27.318125 312.595312 27.318125 
L 47.603125 27.318125 
Q 45.603125 27.318125 45.603125 29.318125 
L 45.603125 87.0525 
Q 45.603125 89.0525 47.603125 89.0525 
z
" style="fill:#ffffff;opacity:0.8;stroke:#cccccc;stroke-linejoin:miter;"/>
    </g>
    <g id="line2d_27">
     <path d="M 49.603125 35.416562 
L 69.603125 35.416562 
" style="fill:none;stroke:#0000ff;stroke-linecap:square;stroke-width:1.5;"/>
    </g>
    <g id="line2d_28"/>
    <g id="text_18">
     <!-- MSI -->
     <defs>
      <path d="M 9.8125 72.90625 
L 24.515625 72.90625 
L 43.109375 23.296875 
L 61.8125 72.90625 
L 76.515625 72.90625 
L 76.515625 0 
L 66.890625 0 
L 66.890625 64.015625 
L 48.09375 14.015625 
L 38.1875 14.015625 
L 19.390625 64.015625 
L 19.390625 0 
L 9.8125 0 
z
" id="DejaVuSans-4d"/>
      <path d="M 53.515625 70.515625 
L 53.515625 60.890625 
Q 47.90625 63.578125 42.921875 64.890625 
Q 37.9375 66.21875 33.296875 66.21875 
Q 25.25 66.21875 20.875 63.09375 
Q 16.5 59.96875 16.5 54.203125 
Q 16.5 49.359375 19.40625 46.890625 
Q 22.3125 44.4375 30.421875 42.921875 
L 36.375 41.703125 
Q 47.40625 39.59375 52.65625 34.296875 
Q 57.90625 29 57.90625 20.125 
Q 57.90625 9.515625 50.796875 4.046875 
Q 43.703125 -1.421875 29.984375 -1.421875 
Q 24.8125 -1.421875 18.96875 -0.25 
Q 13.140625 0.921875 6.890625 3.21875 
L 6.890625 13.375 
Q 12.890625 10.015625 18.65625 8.296875 
Q 24.421875 6.59375 29.984375 6.59375 
Q 38.421875 6.59375 43.015625 9.90625 
Q 47.609375 13.234375 47.609375 19.390625 
Q 47.609375 24.75 44.3125 27.78125 
Q 41.015625 30.8125 33.5 32.328125 
L 27.484375 33.5 
Q 16.453125 35.6875 11.515625 40.375 
Q 6.59375 45.0625 6.59375 53.421875 
Q 6.59375 63.09375 13.40625 68.65625 
Q 20.21875 74.21875 32.171875 74.21875 
Q 37.3125 74.21875 42.625 73.28125 
Q 47.953125 72.359375 53.515625 70.515625 
z
" id="DejaVuSans-53"/>
      <path d="M 9.8125 72.90625 
L 19.671875 72.90625 
L 19.671875 0 
L 9.8125 0 
z
" id="DejaVuSans-49"/>
     </defs>
     <g transform="translate(77.603125 38.916562)scale(0.1 -0.1)">
      <use xlink:href="#DejaVuSans-4d"/>
      <use x="86.279297" xlink:href="#DejaVuSans-53"/>
      <use x="149.755859" xlink:href="#DejaVuSans-49"/>
     </g>
    </g>
    <g id="line2d_29">
     <path d="M 49.603125 50.09625 
L 69.603125 50.09625 
" style="fill:none;stroke:#ff0000;stroke-linecap:square;stroke-width:1.5;"/>
    </g>
    <g id="line2d_30"/>
    <g id="text_19">
     <!-- $\it{A priori}$ model -->
     <defs>
      <path d="M 36.8125 72.90625 
L 48 72.90625 
L 61.53125 0 
L 51.21875 0 
L 48.1875 18.703125 
L 15.375 18.703125 
L 5.078125 0 
L -5.328125 0 
z
M 40.375 63.1875 
L 19.921875 26.90625 
L 46.6875 26.90625 
z
" id="DejaVuSans-Oblique-41"/>
      <path d="M 49.609375 33.6875 
Q 49.609375 40.875 46.484375 44.671875 
Q 43.359375 48.484375 37.5 48.484375 
Q 33.5 48.484375 29.859375 46.4375 
Q 26.21875 44.390625 23.390625 40.484375 
Q 20.609375 36.625 18.9375 31.15625 
Q 17.28125 25.6875 17.28125 20.3125 
Q 17.28125 13.484375 20.40625 9.796875 
Q 23.53125 6.109375 29.296875 6.109375 
Q 33.546875 6.109375 37.1875 8.109375 
Q 40.828125 10.109375 43.40625 13.921875 
Q 46.1875 17.921875 47.890625 23.34375 
Q 49.609375 28.765625 49.609375 33.6875 
z
M 21.78125 46.390625 
Q 25.390625 51.125 30.296875 53.5625 
Q 35.203125 56 41.21875 56 
Q 49.609375 56 54.25 50.5 
Q 58.890625 45.015625 58.890625 35.109375 
Q 58.890625 27 56 19.65625 
Q 53.125 12.3125 47.703125 6.5 
Q 44.09375 2.640625 39.546875 0.609375 
Q 35.015625 -1.421875 29.984375 -1.421875 
Q 24.171875 -1.421875 20.21875 1 
Q 16.265625 3.421875 14.3125 8.203125 
L 8.6875 -20.796875 
L -0.296875 -20.796875 
L 14.40625 54.6875 
L 23.390625 54.6875 
z
" id="DejaVuSans-Oblique-70"/>
      <path d="M 44.578125 46.390625 
Q 43.21875 47.125 41.453125 47.515625 
Q 39.703125 47.90625 37.703125 47.90625 
Q 30.515625 47.90625 25.140625 42.453125 
Q 19.78125 37.015625 18.015625 27.875 
L 12.5 0 
L 3.515625 0 
L 14.203125 54.6875 
L 23.1875 54.6875 
L 21.484375 46.1875 
Q 25.046875 50.921875 30 53.453125 
Q 34.96875 56 40.578125 56 
Q 42.046875 56 43.453125 55.828125 
Q 44.875 55.671875 46.296875 55.28125 
z
" id="DejaVuSans-Oblique-72"/>
      <path d="M 18.3125 75.984375 
L 27.296875 75.984375 
L 25.09375 64.59375 
L 16.109375 64.59375 
z
M 14.203125 54.6875 
L 23.1875 54.6875 
L 12.5 0 
L 3.515625 0 
z
" id="DejaVuSans-Oblique-69"/>
      <path d="M 25.390625 -1.421875 
Q 15.765625 -1.421875 10.171875 4.515625 
Q 4.59375 10.453125 4.59375 20.703125 
Q 4.59375 26.65625 6.515625 32.828125 
Q 8.453125 39.015625 11.53125 43.21875 
Q 16.359375 49.75 22.3125 52.875 
Q 28.265625 56 35.796875 56 
Q 45.125 56 50.859375 50.1875 
Q 56.59375 44.390625 56.59375 35.015625 
Q 56.59375 28.515625 54.6875 22.0625 
Q 52.78125 15.625 49.703125 11.375 
Q 44.921875 4.828125 38.96875 1.703125 
Q 33.015625 -1.421875 25.390625 -1.421875 
z
M 13.921875 21 
Q 13.921875 13.578125 17.015625 9.890625 
Q 20.125 6.203125 26.421875 6.203125 
Q 35.453125 6.203125 41.375 14.078125 
Q 47.3125 21.96875 47.3125 34.078125 
Q 47.3125 41.15625 44.140625 44.765625 
Q 40.96875 48.390625 34.8125 48.390625 
Q 29.734375 48.390625 25.78125 46.015625 
Q 21.828125 43.65625 18.703125 38.8125 
Q 16.40625 35.203125 15.15625 30.5625 
Q 13.921875 25.921875 13.921875 21 
z
" id="DejaVuSans-Oblique-6f"/>
      <path d="M 30.609375 48.390625 
Q 23.390625 48.390625 19.1875 42.75 
Q 14.984375 37.109375 14.984375 27.296875 
Q 14.984375 17.484375 19.15625 11.84375 
Q 23.34375 6.203125 30.609375 6.203125 
Q 37.796875 6.203125 41.984375 11.859375 
Q 46.1875 17.53125 46.1875 27.296875 
Q 46.1875 37.015625 41.984375 42.703125 
Q 37.796875 48.390625 30.609375 48.390625 
z
M 30.609375 56 
Q 42.328125 56 49.015625 48.375 
Q 55.71875 40.765625 55.71875 27.296875 
Q 55.71875 13.875 49.015625 6.21875 
Q 42.328125 -1.421875 30.609375 -1.421875 
Q 18.84375 -1.421875 12.171875 6.21875 
Q 5.515625 13.875 5.515625 27.296875 
Q 5.515625 40.765625 12.171875 48.375 
Q 18.84375 56 30.609375 56 
z
" id="DejaVuSans-6f"/>
      <path d="M 45.40625 46.390625 
L 45.40625 75.984375 
L 54.390625 75.984375 
L 54.390625 0 
L 45.40625 0 
L 45.40625 8.203125 
Q 42.578125 3.328125 38.25 0.953125 
Q 33.9375 -1.421875 27.875 -1.421875 
Q 17.96875 -1.421875 11.734375 6.484375 
Q 5.515625 14.40625 5.515625 27.296875 
Q 5.515625 40.1875 11.734375 48.09375 
Q 17.96875 56 27.875 56 
Q 33.9375 56 38.25 53.625 
Q 42.578125 51.265625 45.40625 46.390625 
z
M 14.796875 27.296875 
Q 14.796875 17.390625 18.875 11.75 
Q 22.953125 6.109375 30.078125 6.109375 
Q 37.203125 6.109375 41.296875 11.75 
Q 45.40625 17.390625 45.40625 27.296875 
Q 45.40625 37.203125 41.296875 42.84375 
Q 37.203125 48.484375 30.078125 48.484375 
Q 22.953125 48.484375 18.875 42.84375 
Q 14.796875 37.203125 14.796875 27.296875 
z
" id="DejaVuSans-64"/>
      <path d="M 9.421875 75.984375 
L 18.40625 75.984375 
L 18.40625 0 
L 9.421875 0 
z
" id="DejaVuSans-6c"/>
     </defs>
     <g transform="translate(77.603125 53.59625)scale(0.1 -0.1)">
      <use transform="translate(0 0.015625)" xlink:href="#DejaVuSans-Oblique-41"/>
      <use transform="translate(68.408203 0.015625)" xlink:href="#DejaVuSans-Oblique-70"/>
      <use transform="translate(131.884766 0.015625)" xlink:href="#DejaVuSans-Oblique-72"/>
      <use transform="translate(172.998047 0.015625)" xlink:href="#DejaVuSans-Oblique-69"/>
      <use transform="translate(200.78125 0.015625)" xlink:href="#DejaVuSans-Oblique-6f"/>
      <use transform="translate(261.962891 0.015625)" xlink:href="#DejaVuSans-Oblique-72"/>
      <use transform="translate(303.076172 0.015625)" xlink:href="#DejaVuSans-Oblique-69"/>
      <use transform="translate(330.859375 0.015625)" xlink:href="#DejaVuSans-20"/>
      <use transform="translate(362.646484 0.015625)" xlink:href="#DejaVuSans-6d"/>
      <use transform="translate(460.058594 0.015625)" xlink:href="#DejaVuSans-6f"/>
      <use transform="translate(521.240234 0.015625)" xlink:href="#DejaVuSans-64"/>
      <use transform="translate(584.716797 0.015625)" xlink:href="#DejaVuSans-65"/>
      <use transform="translate(646.240234 0.015625)" xlink:href="#DejaVuSans-6c"/>
     </g>
    </g>
    <g id="line2d_31"/>
    <g id="line2d_32">
     <g>
      <use style="stroke:#000000;" x="59.603125" xlink:href="#mac9de2e91e" y="64.794687"/>
     </g>
    </g>
    <g id="text_20">
     <!-- Experimental Data -->
     <defs>
      <path d="M 34.28125 27.484375 
Q 23.390625 27.484375 19.1875 25 
Q 14.984375 22.515625 14.984375 16.5 
Q 14.984375 11.71875 18.140625 8.90625 
Q 21.296875 6.109375 26.703125 6.109375 
Q 34.1875 6.109375 38.703125 11.40625 
Q 43.21875 16.703125 43.21875 25.484375 
L 43.21875 27.484375 
z
M 52.203125 31.203125 
L 52.203125 0 
L 43.21875 0 
L 43.21875 8.296875 
Q 40.140625 3.328125 35.546875 0.953125 
Q 30.953125 -1.421875 24.3125 -1.421875 
Q 15.921875 -1.421875 10.953125 3.296875 
Q 6 8.015625 6 15.921875 
Q 6 25.140625 12.171875 29.828125 
Q 18.359375 34.515625 30.609375 34.515625 
L 43.21875 34.515625 
L 43.21875 35.40625 
Q 43.21875 41.609375 39.140625 45 
Q 35.0625 48.390625 27.6875 48.390625 
Q 23 48.390625 18.546875 47.265625 
Q 14.109375 46.140625 10.015625 43.890625 
L 10.015625 52.203125 
Q 14.9375 54.109375 19.578125 55.046875 
Q 24.21875 56 28.609375 56 
Q 40.484375 56 46.34375 49.84375 
Q 52.203125 43.703125 52.203125 31.203125 
z
" id="DejaVuSans-61"/>
      <path d="M 19.671875 64.796875 
L 19.671875 8.109375 
L 31.59375 8.109375 
Q 46.6875 8.109375 53.6875 14.9375 
Q 60.6875 21.78125 60.6875 36.53125 
Q 60.6875 51.171875 53.6875 57.984375 
Q 46.6875 64.796875 31.59375 64.796875 
z
M 9.8125 72.90625 
L 30.078125 72.90625 
Q 51.265625 72.90625 61.171875 64.09375 
Q 71.09375 55.28125 71.09375 36.53125 
Q 71.09375 17.671875 61.125 8.828125 
Q 51.171875 0 30.078125 0 
L 9.8125 0 
z
" id="DejaVuSans-44"/>
     </defs>
     <g transform="translate(77.603125 68.294687)scale(0.1 -0.1)">
      <use xlink:href="#DejaVuSans-45"/>
      <use x="63.183594" xlink:href="#DejaVuSans-78"/>
      <use x="122.363281" xlink:href="#DejaVuSans-70"/>
      <use x="185.839844" xlink:href="#DejaVuSans-65"/>
      <use x="247.363281" xlink:href="#DejaVuSans-72"/>
      <use x="288.476562" xlink:href="#DejaVuSans-69"/>
      <use x="316.259766" xlink:href="#DejaVuSans-6d"/>
      <use x="413.671875" xlink:href="#DejaVuSans-65"/>
      <use x="475.195312" xlink:href="#DejaVuSans-6e"/>
      <use x="538.574219" xlink:href="#DejaVuSans-74"/>
      <use x="577.783203" xlink:href="#DejaVuSans-61"/>
      <use x="639.0625" xlink:href="#DejaVuSans-6c"/>
      <use x="666.845703" xlink:href="#DejaVuSans-20"/>
      <use x="698.632812" xlink:href="#DejaVuSans-44"/>
      <use x="775.634766" xlink:href="#DejaVuSans-61"/>
      <use x="836.914062" xlink:href="#DejaVuSans-74"/>
      <use x="876.123047" xlink:href="#DejaVuSans-61"/>
     </g>
    </g>
    <g id="line2d_33">
     <path d="M 49.603125 79.472812 
L 69.603125 79.472812 
" style="fill:none;stroke:#ffffff;stroke-linecap:square;stroke-width:1.5;"/>
    </g>
    <g id="line2d_34"/>
    <g id="text_21">
     <!-- T:1795 -->
     <defs>
      <path d="M 11.71875 12.40625 
L 22.015625 12.40625 
L 22.015625 0 
L 11.71875 0 
z
M 11.71875 51.703125 
L 22.015625 51.703125 
L 22.015625 39.3125 
L 11.71875 39.3125 
z
" id="DejaVuSans-3a"/>
      <path d="M 10.984375 1.515625 
L 10.984375 10.5 
Q 14.703125 8.734375 18.5 7.8125 
Q 22.3125 6.890625 25.984375 6.890625 
Q 35.75 6.890625 40.890625 13.453125 
Q 46.046875 20.015625 46.78125 33.40625 
Q 43.953125 29.203125 39.59375 26.953125 
Q 35.25 24.703125 29.984375 24.703125 
Q 19.046875 24.703125 12.671875 31.3125 
Q 6.296875 37.9375 6.296875 49.421875 
Q 6.296875 60.640625 12.9375 67.421875 
Q 19.578125 74.21875 30.609375 74.21875 
Q 43.265625 74.21875 49.921875 64.515625 
Q 56.59375 54.828125 56.59375 36.375 
Q 56.59375 19.140625 48.40625 8.859375 
Q 40.234375 -1.421875 26.421875 -1.421875 
Q 22.703125 -1.421875 18.890625 -0.6875 
Q 15.09375 0.046875 10.984375 1.515625 
z
M 30.609375 32.421875 
Q 37.25 32.421875 41.125 36.953125 
Q 45.015625 41.5 45.015625 49.421875 
Q 45.015625 57.28125 41.125 61.84375 
Q 37.25 66.40625 30.609375 66.40625 
Q 23.96875 66.40625 20.09375 61.84375 
Q 16.21875 57.28125 16.21875 49.421875 
Q 16.21875 41.5 20.09375 36.953125 
Q 23.96875 32.421875 30.609375 32.421875 
z
" id="DejaVuSans-39"/>
     </defs>
     <g transform="translate(77.603125 82.972812)scale(0.1 -0.1)">
      <use xlink:href="#DejaVuSans-54"/>
      <use x="60.912109" xlink:href="#DejaVuSans-3a"/>
      <use x="94.603516" xlink:href="#DejaVuSans-31"/>
      <use x="158.226562" xlink:href="#DejaVuSans-37"/>
      <use x="221.849609" xlink:href="#DejaVuSans-39"/>
      <use x="285.472656" xlink:href="#DejaVuSans-35"/>
     </g>
    </g>
    <g id="line2d_35">
     <path d="M 191.34375 35.416562 
L 211.34375 35.416562 
" style="fill:none;stroke:#ffffff;stroke-linecap:square;stroke-width:1.5;"/>
    </g>
    <g id="line2d_36"/>
    <g id="text_22">
     <!-- P:0.9488 -->
     <defs>
      <path d="M 19.671875 64.796875 
L 19.671875 37.40625 
L 32.078125 37.40625 
Q 38.96875 37.40625 42.71875 40.96875 
Q 46.484375 44.53125 46.484375 51.125 
Q 46.484375 57.671875 42.71875 61.234375 
Q 38.96875 64.796875 32.078125 64.796875 
z
M 9.8125 72.90625 
L 32.078125 72.90625 
Q 44.34375 72.90625 50.609375 67.359375 
Q 56.890625 61.8125 56.890625 51.125 
Q 56.890625 40.328125 50.609375 34.8125 
Q 44.34375 29.296875 32.078125 29.296875 
L 19.671875 29.296875 
L 19.671875 0 
L 9.8125 0 
z
" id="DejaVuSans-50"/>
      <path d="M 31.78125 34.625 
Q 24.75 34.625 20.71875 30.859375 
Q 16.703125 27.09375 16.703125 20.515625 
Q 16.703125 13.921875 20.71875 10.15625 
Q 24.75 6.390625 31.78125 6.390625 
Q 38.8125 6.390625 42.859375 10.171875 
Q 46.921875 13.96875 46.921875 20.515625 
Q 46.921875 27.09375 42.890625 30.859375 
Q 38.875 34.625 31.78125 34.625 
z
M 21.921875 38.8125 
Q 15.578125 40.375 12.03125 44.71875 
Q 8.5 49.078125 8.5 55.328125 
Q 8.5 64.0625 14.71875 69.140625 
Q 20.953125 74.21875 31.78125 74.21875 
Q 42.671875 74.21875 48.875 69.140625 
Q 55.078125 64.0625 55.078125 55.328125 
Q 55.078125 49.078125 51.53125 44.71875 
Q 48 40.375 41.703125 38.8125 
Q 48.828125 37.15625 52.796875 32.3125 
Q 56.78125 27.484375 56.78125 20.515625 
Q 56.78125 9.90625 50.3125 4.234375 
Q 43.84375 -1.421875 31.78125 -1.421875 
Q 19.734375 -1.421875 13.25 4.234375 
Q 6.78125 9.90625 6.78125 20.515625 
Q 6.78125 27.484375 10.78125 32.3125 
Q 14.796875 37.15625 21.921875 38.8125 
z
M 18.3125 54.390625 
Q 18.3125 48.734375 21.84375 45.5625 
Q 25.390625 42.390625 31.78125 42.390625 
Q 38.140625 42.390625 41.71875 45.5625 
Q 45.3125 48.734375 45.3125 54.390625 
Q 45.3125 60.0625 41.71875 63.234375 
Q 38.140625 66.40625 31.78125 66.40625 
Q 25.390625 66.40625 21.84375 63.234375 
Q 18.3125 60.0625 18.3125 54.390625 
z
" id="DejaVuSans-38"/>
     </defs>
     <g transform="translate(219.34375 38.916562)scale(0.1 -0.1)">
      <use xlink:href="#DejaVuSans-50"/>
      <use x="60.302734" xlink:href="#DejaVuSans-3a"/>
      <use x="93.994141" xlink:href="#DejaVuSans-30"/>
      <use x="157.617188" xlink:href="#DejaVuSans-2e"/>
      <use x="189.404297" xlink:href="#DejaVuSans-39"/>
      <use x="253.027344" xlink:href="#DejaVuSans-34"/>
      <use x="316.650391" xlink:href="#DejaVuSans-38"/>
      <use x="380.273438" xlink:href="#DejaVuSans-38"/>
     </g>
    </g>
    <g id="line2d_37">
     <path d="M 191.34375 50.094687 
L 211.34375 50.094687 
" style="fill:none;stroke:#ffffff;stroke-linecap:square;stroke-width:1.5;"/>
    </g>
    <g id="line2d_38"/>
    <g id="text_23">
     <!-- CH4: 7.04639e-05 -->
     <defs>
      <path d="M 64.40625 67.28125 
L 64.40625 56.890625 
Q 59.421875 61.53125 53.78125 63.8125 
Q 48.140625 66.109375 41.796875 66.109375 
Q 29.296875 66.109375 22.65625 58.46875 
Q 16.015625 50.828125 16.015625 36.375 
Q 16.015625 21.96875 22.65625 14.328125 
Q 29.296875 6.6875 41.796875 6.6875 
Q 48.140625 6.6875 53.78125 8.984375 
Q 59.421875 11.28125 64.40625 15.921875 
L 64.40625 5.609375 
Q 59.234375 2.09375 53.4375 0.328125 
Q 47.65625 -1.421875 41.21875 -1.421875 
Q 24.65625 -1.421875 15.125 8.703125 
Q 5.609375 18.84375 5.609375 36.375 
Q 5.609375 53.953125 15.125 64.078125 
Q 24.65625 74.21875 41.21875 74.21875 
Q 47.75 74.21875 53.53125 72.484375 
Q 59.328125 70.75 64.40625 67.28125 
z
" id="DejaVuSans-43"/>
      <path d="M 4.890625 31.390625 
L 31.203125 31.390625 
L 31.203125 23.390625 
L 4.890625 23.390625 
z
" id="DejaVuSans-2d"/>
     </defs>
     <g transform="translate(219.34375 53.594687)scale(0.1 -0.1)">
      <use xlink:href="#DejaVuSans-43"/>
      <use x="69.824219" xlink:href="#DejaVuSans-48"/>
      <use x="145.019531" xlink:href="#DejaVuSans-34"/>
      <use x="208.642578" xlink:href="#DejaVuSans-3a"/>
      <use x="242.333984" xlink:href="#DejaVuSans-20"/>
      <use x="274.121094" xlink:href="#DejaVuSans-37"/>
      <use x="337.744141" xlink:href="#DejaVuSans-2e"/>
      <use x="369.53125" xlink:href="#DejaVuSans-30"/>
      <use x="433.154297" xlink:href="#DejaVuSans-34"/>
      <use x="496.777344" xlink:href="#DejaVuSans-36"/>
      <use x="560.400391" xlink:href="#DejaVuSans-33"/>
      <use x="624.023438" xlink:href="#DejaVuSans-39"/>
      <use x="687.646484" xlink:href="#DejaVuSans-65"/>
      <use x="749.169922" xlink:href="#DejaVuSans-2d"/>
      <use x="785.253906" xlink:href="#DejaVuSans-30"/>
      <use x="848.876953" xlink:href="#DejaVuSans-35"/>
     </g>
    </g>
    <g id="line2d_39">
     <path d="M 191.34375 64.772812 
L 211.34375 64.772812 
" style="fill:none;stroke:#ffffff;stroke-linecap:square;stroke-width:1.5;"/>
    </g>
    <g id="line2d_40"/>
    <g id="text_24">
     <!-- O2: 0.143376 -->
     <g transform="translate(219.34375 68.272812)scale(0.1 -0.1)">
      <use xlink:href="#DejaVuSans-4f"/>
      <use x="78.710938" xlink:href="#DejaVuSans-32"/>
      <use x="142.333984" xlink:href="#DejaVuSans-3a"/>
      <use x="176.025391" xlink:href="#DejaVuSans-20"/>
      <use x="207.8125" xlink:href="#DejaVuSans-30"/>
      <use x="271.435547" xlink:href="#DejaVuSans-2e"/>
      <use x="303.222656" xlink:href="#DejaVuSans-31"/>
      <use x="366.845703" xlink:href="#DejaVuSans-34"/>
      <use x="430.46875" xlink:href="#DejaVuSans-33"/>
      <use x="494.091797" xlink:href="#DejaVuSans-33"/>
      <use x="557.714844" xlink:href="#DejaVuSans-37"/>
      <use x="621.337891" xlink:href="#DejaVuSans-36"/>
     </g>
    </g>
    <g id="line2d_41">
     <path d="M 191.34375 79.450937 
L 211.34375 79.450937 
" style="fill:none;stroke:#ffffff;stroke-linecap:square;stroke-width:1.5;"/>
    </g>
    <g id="line2d_42"/>
    <g id="text_25">
     <!-- Ar: 0.85653 -->
     <defs>
      <path d="M 34.1875 63.1875 
L 20.796875 26.90625 
L 47.609375 26.90625 
z
M 28.609375 72.90625 
L 39.796875 72.90625 
L 67.578125 0 
L 57.328125 0 
L 50.6875 18.703125 
L 17.828125 18.703125 
L 11.1875 0 
L 0.78125 0 
z
" id="DejaVuSans-41"/>
     </defs>
     <g transform="translate(219.34375 82.950937)scale(0.1 -0.1)">
      <use xlink:href="#DejaVuSans-41"/>
      <use x="68.408203" xlink:href="#DejaVuSans-72"/>
      <use x="109.505859" xlink:href="#DejaVuSans-3a"/>
      <use x="143.197266" xlink:href="#DejaVuSans-20"/>
      <use x="174.984375" xlink:href="#DejaVuSans-30"/>
      <use x="238.607422" xlink:href="#DejaVuSans-2e"/>
      <use x="270.394531" xlink:href="#DejaVuSans-38"/>
      <use x="334.017578" xlink:href="#DejaVuSans-35"/>
      <use x="397.640625" xlink:href="#DejaVuSans-36"/>
      <use x="461.263672" xlink:href="#DejaVuSans-35"/>
      <use x="524.886719" xlink:href="#DejaVuSans-33"/>
     </g>
    </g>
   </g>
  </g>
 </g>
 <defs>
  <clipPath id="pabfe38c9a5">
   <rect height="217.44" width="334.8" x="40.603125" y="22.318125"/>
  </clipPath>
 </defs>
</svg>
