<?xml version="1.0" encoding="utf-8" standalone="no"?>
<!DOCTYPE svg PUBLIC "-//W3C//DTD SVG 1.1//EN"
  "http://www.w3.org/Graphics/SVG/1.1/DTD/svg11.dtd">
<!-- Created with matplotlib (https://matplotlib.org/) -->
<svg height="277.314375pt" version="1.1" viewBox="0 0 392.465625 277.314375" width="392.465625pt" xmlns="http://www.w3.org/2000/svg" xmlns:xlink="http://www.w3.org/1999/xlink">
 <defs>
  <style type="text/css">
*{stroke-linecap:butt;stroke-linejoin:round;}
  </style>
 </defs>
 <g id="figure_1">
  <g id="patch_1">
   <path d="M 0 277.314375 
L 392.465625 277.314375 
L 392.465625 0 
L 0 0 
z
" style="fill:none;"/>
  </g>
  <g id="axes_1">
   <g id="patch_2">
    <path d="M 46.965625 239.758125 
L 381.765625 239.758125 
L 381.765625 22.318125 
L 46.965625 22.318125 
z
" style="fill:none;"/>
   </g>
   <g id="matplotlib.axis_1">
    <g id="xtick_1">
     <g id="line2d_1">
      <defs>
       <path d="M 0 0 
L 0 3.5 
" id="m58bf61e2a1" style="stroke:#000000;stroke-width:0.8;"/>
      </defs>
      <g>
       <use style="stroke:#000000;stroke-width:0.8;" x="62.183807" xlink:href="#m58bf61e2a1" y="239.758125"/>
      </g>
     </g>
     <g id="text_1">
      <!-- 0.0 -->
      <defs>
       <path d="M 31.78125 66.40625 
Q 24.171875 66.40625 20.328125 58.90625 
Q 16.5 51.421875 16.5 36.375 
Q 16.5 21.390625 20.328125 13.890625 
Q 24.171875 6.390625 31.78125 6.390625 
Q 39.453125 6.390625 43.28125 13.890625 
Q 47.125 21.390625 47.125 36.375 
Q 47.125 51.421875 43.28125 58.90625 
Q 39.453125 66.40625 31.78125 66.40625 
z
M 31.78125 74.21875 
Q 44.046875 74.21875 50.515625 64.515625 
Q 56.984375 54.828125 56.984375 36.375 
Q 56.984375 17.96875 50.515625 8.265625 
Q 44.046875 -1.421875 31.78125 -1.421875 
Q 19.53125 -1.421875 13.0625 8.265625 
Q 6.59375 17.96875 6.59375 36.375 
Q 6.59375 54.828125 13.0625 64.515625 
Q 19.53125 74.21875 31.78125 74.21875 
z
" id="DejaVuSans-48"/>
       <path d="M 10.6875 12.40625 
L 21 12.40625 
L 21 0 
L 10.6875 0 
z
" id="DejaVuSans-46"/>
      </defs>
      <g transform="translate(54.232244 254.356562)scale(0.1 -0.1)">
       <use xlink:href="#DejaVuSans-48"/>
       <use x="63.623047" xlink:href="#DejaVuSans-46"/>
       <use x="95.410156" xlink:href="#DejaVuSans-48"/>
      </g>
     </g>
    </g>
    <g id="xtick_2">
     <g id="line2d_2">
      <g>
       <use style="stroke:#000000;stroke-width:0.8;" x="122.179979" xlink:href="#m58bf61e2a1" y="239.758125"/>
      </g>
     </g>
     <g id="text_2">
      <!-- 0.2 -->
      <defs>
       <path d="M 19.1875 8.296875 
L 53.609375 8.296875 
L 53.609375 0 
L 7.328125 0 
L 7.328125 8.296875 
Q 12.9375 14.109375 22.625 23.890625 
Q 32.328125 33.6875 34.8125 36.53125 
Q 39.546875 41.84375 41.421875 45.53125 
Q 43.3125 49.21875 43.3125 52.78125 
Q 43.3125 58.59375 39.234375 62.25 
Q 35.15625 65.921875 28.609375 65.921875 
Q 23.96875 65.921875 18.8125 64.3125 
Q 13.671875 62.703125 7.8125 59.421875 
L 7.8125 69.390625 
Q 13.765625 71.78125 18.9375 73 
Q 24.125 74.21875 28.421875 74.21875 
Q 39.75 74.21875 46.484375 68.546875 
Q 53.21875 62.890625 53.21875 53.421875 
Q 53.21875 48.921875 51.53125 44.890625 
Q 49.859375 40.875 45.40625 35.40625 
Q 44.1875 33.984375 37.640625 27.21875 
Q 31.109375 20.453125 19.1875 8.296875 
z
" id="DejaVuSans-50"/>
      </defs>
      <g transform="translate(114.228417 254.356562)scale(0.1 -0.1)">
       <use xlink:href="#DejaVuSans-48"/>
       <use x="63.623047" xlink:href="#DejaVuSans-46"/>
       <use x="95.410156" xlink:href="#DejaVuSans-50"/>
      </g>
     </g>
    </g>
    <g id="xtick_3">
     <g id="line2d_3">
      <g>
       <use style="stroke:#000000;stroke-width:0.8;" x="182.176152" xlink:href="#m58bf61e2a1" y="239.758125"/>
      </g>
     </g>
     <g id="text_3">
      <!-- 0.4 -->
      <defs>
       <path d="M 37.796875 64.3125 
L 12.890625 25.390625 
L 37.796875 25.390625 
z
M 35.203125 72.90625 
L 47.609375 72.90625 
L 47.609375 25.390625 
L 58.015625 25.390625 
L 58.015625 17.1875 
L 47.609375 17.1875 
L 47.609375 0 
L 37.796875 0 
L 37.796875 17.1875 
L 4.890625 17.1875 
L 4.890625 26.703125 
z
" id="DejaVuSans-52"/>
      </defs>
      <g transform="translate(174.224589 254.356562)scale(0.1 -0.1)">
       <use xlink:href="#DejaVuSans-48"/>
       <use x="63.623047" xlink:href="#DejaVuSans-46"/>
       <use x="95.410156" xlink:href="#DejaVuSans-52"/>
      </g>
     </g>
    </g>
    <g id="xtick_4">
     <g id="line2d_4">
      <g>
       <use style="stroke:#000000;stroke-width:0.8;" x="242.172325" xlink:href="#m58bf61e2a1" y="239.758125"/>
      </g>
     </g>
     <g id="text_4">
      <!-- 0.6 -->
      <defs>
       <path d="M 33.015625 40.375 
Q 26.375 40.375 22.484375 35.828125 
Q 18.609375 31.296875 18.609375 23.390625 
Q 18.609375 15.53125 22.484375 10.953125 
Q 26.375 6.390625 33.015625 6.390625 
Q 39.65625 6.390625 43.53125 10.953125 
Q 47.40625 15.53125 47.40625 23.390625 
Q 47.40625 31.296875 43.53125 35.828125 
Q 39.65625 40.375 33.015625 40.375 
z
M 52.59375 71.296875 
L 52.59375 62.3125 
Q 48.875 64.0625 45.09375 64.984375 
Q 41.3125 65.921875 37.59375 65.921875 
Q 27.828125 65.921875 22.671875 59.328125 
Q 17.53125 52.734375 16.796875 39.40625 
Q 19.671875 43.65625 24.015625 45.921875 
Q 28.375 48.1875 33.59375 48.1875 
Q 44.578125 48.1875 50.953125 41.515625 
Q 57.328125 34.859375 57.328125 23.390625 
Q 57.328125 12.15625 50.6875 5.359375 
Q 44.046875 -1.421875 33.015625 -1.421875 
Q 20.359375 -1.421875 13.671875 8.265625 
Q 6.984375 17.96875 6.984375 36.375 
Q 6.984375 53.65625 15.1875 63.9375 
Q 23.390625 74.21875 37.203125 74.21875 
Q 40.921875 74.21875 44.703125 73.484375 
Q 48.484375 72.75 52.59375 71.296875 
z
" id="DejaVuSans-54"/>
      </defs>
      <g transform="translate(234.220762 254.356562)scale(0.1 -0.1)">
       <use xlink:href="#DejaVuSans-48"/>
       <use x="63.623047" xlink:href="#DejaVuSans-46"/>
       <use x="95.410156" xlink:href="#DejaVuSans-54"/>
      </g>
     </g>
    </g>
    <g id="xtick_5">
     <g id="line2d_5">
      <g>
       <use style="stroke:#000000;stroke-width:0.8;" x="302.168497" xlink:href="#m58bf61e2a1" y="239.758125"/>
      </g>
     </g>
     <g id="text_5">
      <!-- 0.8 -->
      <defs>
       <path d="M 31.78125 34.625 
Q 24.75 34.625 20.71875 30.859375 
Q 16.703125 27.09375 16.703125 20.515625 
Q 16.703125 13.921875 20.71875 10.15625 
Q 24.75 6.390625 31.78125 6.390625 
Q 38.8125 6.390625 42.859375 10.171875 
Q 46.921875 13.96875 46.921875 20.515625 
Q 46.921875 27.09375 42.890625 30.859375 
Q 38.875 34.625 31.78125 34.625 
z
M 21.921875 38.8125 
Q 15.578125 40.375 12.03125 44.71875 
Q 8.5 49.078125 8.5 55.328125 
Q 8.5 64.0625 14.71875 69.140625 
Q 20.953125 74.21875 31.78125 74.21875 
Q 42.671875 74.21875 48.875 69.140625 
Q 55.078125 64.0625 55.078125 55.328125 
Q 55.078125 49.078125 51.53125 44.71875 
Q 48 40.375 41.703125 38.8125 
Q 48.828125 37.15625 52.796875 32.3125 
Q 56.78125 27.484375 56.78125 20.515625 
Q 56.78125 9.90625 50.3125 4.234375 
Q 43.84375 -1.421875 31.78125 -1.421875 
Q 19.734375 -1.421875 13.25 4.234375 
Q 6.78125 9.90625 6.78125 20.515625 
Q 6.78125 27.484375 10.78125 32.3125 
Q 14.796875 37.15625 21.921875 38.8125 
z
M 18.3125 54.390625 
Q 18.3125 48.734375 21.84375 45.5625 
Q 25.390625 42.390625 31.78125 42.390625 
Q 38.140625 42.390625 41.71875 45.5625 
Q 45.3125 48.734375 45.3125 54.390625 
Q 45.3125 60.0625 41.71875 63.234375 
Q 38.140625 66.40625 31.78125 66.40625 
Q 25.390625 66.40625 21.84375 63.234375 
Q 18.3125 60.0625 18.3125 54.390625 
z
" id="DejaVuSans-56"/>
      </defs>
      <g transform="translate(294.216935 254.356562)scale(0.1 -0.1)">
       <use xlink:href="#DejaVuSans-48"/>
       <use x="63.623047" xlink:href="#DejaVuSans-46"/>
       <use x="95.410156" xlink:href="#DejaVuSans-56"/>
      </g>
     </g>
    </g>
    <g id="xtick_6">
     <g id="line2d_6">
      <g>
       <use style="stroke:#000000;stroke-width:0.8;" x="362.16467" xlink:href="#m58bf61e2a1" y="239.758125"/>
      </g>
     </g>
     <g id="text_6">
      <!-- 1.0 -->
      <defs>
       <path d="M 12.40625 8.296875 
L 28.515625 8.296875 
L 28.515625 63.921875 
L 10.984375 60.40625 
L 10.984375 69.390625 
L 28.421875 72.90625 
L 38.28125 72.90625 
L 38.28125 8.296875 
L 54.390625 8.296875 
L 54.390625 0 
L 12.40625 0 
z
" id="DejaVuSans-49"/>
      </defs>
      <g transform="translate(354.213107 254.356562)scale(0.1 -0.1)">
       <use xlink:href="#DejaVuSans-49"/>
       <use x="63.623047" xlink:href="#DejaVuSans-46"/>
       <use x="95.410156" xlink:href="#DejaVuSans-48"/>
      </g>
     </g>
    </g>
    <g id="text_7">
     <!-- Time (ms) -->
     <defs>
      <path d="M -0.296875 72.90625 
L 61.375 72.90625 
L 61.375 64.59375 
L 35.5 64.59375 
L 35.5 0 
L 25.59375 0 
L 25.59375 64.59375 
L -0.296875 64.59375 
z
" id="DejaVuSans-84"/>
      <path d="M 9.421875 54.6875 
L 18.40625 54.6875 
L 18.40625 0 
L 9.421875 0 
z
M 9.421875 75.984375 
L 18.40625 75.984375 
L 18.40625 64.59375 
L 9.421875 64.59375 
z
" id="DejaVuSans-105"/>
      <path d="M 52 44.1875 
Q 55.375 50.25 60.0625 53.125 
Q 64.75 56 71.09375 56 
Q 79.640625 56 84.28125 50.015625 
Q 88.921875 44.046875 88.921875 33.015625 
L 88.921875 0 
L 79.890625 0 
L 79.890625 32.71875 
Q 79.890625 40.578125 77.09375 44.375 
Q 74.3125 48.1875 68.609375 48.1875 
Q 61.625 48.1875 57.5625 43.546875 
Q 53.515625 38.921875 53.515625 30.90625 
L 53.515625 0 
L 44.484375 0 
L 44.484375 32.71875 
Q 44.484375 40.625 41.703125 44.40625 
Q 38.921875 48.1875 33.109375 48.1875 
Q 26.21875 48.1875 22.15625 43.53125 
Q 18.109375 38.875 18.109375 30.90625 
L 18.109375 0 
L 9.078125 0 
L 9.078125 54.6875 
L 18.109375 54.6875 
L 18.109375 46.1875 
Q 21.1875 51.21875 25.484375 53.609375 
Q 29.78125 56 35.6875 56 
Q 41.65625 56 45.828125 52.96875 
Q 50 49.953125 52 44.1875 
z
" id="DejaVuSans-109"/>
      <path d="M 56.203125 29.59375 
L 56.203125 25.203125 
L 14.890625 25.203125 
Q 15.484375 15.921875 20.484375 11.0625 
Q 25.484375 6.203125 34.421875 6.203125 
Q 39.59375 6.203125 44.453125 7.46875 
Q 49.3125 8.734375 54.109375 11.28125 
L 54.109375 2.78125 
Q 49.265625 0.734375 44.1875 -0.34375 
Q 39.109375 -1.421875 33.890625 -1.421875 
Q 20.796875 -1.421875 13.15625 6.1875 
Q 5.515625 13.8125 5.515625 26.8125 
Q 5.515625 40.234375 12.765625 48.109375 
Q 20.015625 56 32.328125 56 
Q 43.359375 56 49.78125 48.890625 
Q 56.203125 41.796875 56.203125 29.59375 
z
M 47.21875 32.234375 
Q 47.125 39.59375 43.09375 43.984375 
Q 39.0625 48.390625 32.421875 48.390625 
Q 24.90625 48.390625 20.390625 44.140625 
Q 15.875 39.890625 15.1875 32.171875 
z
" id="DejaVuSans-101"/>
      <path id="DejaVuSans-32"/>
      <path d="M 31 75.875 
Q 24.46875 64.65625 21.28125 53.65625 
Q 18.109375 42.671875 18.109375 31.390625 
Q 18.109375 20.125 21.3125 9.0625 
Q 24.515625 -2 31 -13.1875 
L 23.1875 -13.1875 
Q 15.875 -1.703125 12.234375 9.375 
Q 8.59375 20.453125 8.59375 31.390625 
Q 8.59375 42.28125 12.203125 53.3125 
Q 15.828125 64.359375 23.1875 75.875 
z
" id="DejaVuSans-40"/>
      <path d="M 44.28125 53.078125 
L 44.28125 44.578125 
Q 40.484375 46.53125 36.375 47.5 
Q 32.28125 48.484375 27.875 48.484375 
Q 21.1875 48.484375 17.84375 46.4375 
Q 14.5 44.390625 14.5 40.28125 
Q 14.5 37.15625 16.890625 35.375 
Q 19.28125 33.59375 26.515625 31.984375 
L 29.59375 31.296875 
Q 39.15625 29.25 43.1875 25.515625 
Q 47.21875 21.78125 47.21875 15.09375 
Q 47.21875 7.46875 41.1875 3.015625 
Q 35.15625 -1.421875 24.609375 -1.421875 
Q 20.21875 -1.421875 15.453125 -0.5625 
Q 10.6875 0.296875 5.421875 2 
L 5.421875 11.28125 
Q 10.40625 8.6875 15.234375 7.390625 
Q 20.0625 6.109375 24.8125 6.109375 
Q 31.15625 6.109375 34.5625 8.28125 
Q 37.984375 10.453125 37.984375 14.40625 
Q 37.984375 18.0625 35.515625 20.015625 
Q 33.0625 21.96875 24.703125 23.78125 
L 21.578125 24.515625 
Q 13.234375 26.265625 9.515625 29.90625 
Q 5.8125 33.546875 5.8125 39.890625 
Q 5.8125 47.609375 11.28125 51.796875 
Q 16.75 56 26.8125 56 
Q 31.78125 56 36.171875 55.265625 
Q 40.578125 54.546875 44.28125 53.078125 
z
" id="DejaVuSans-115"/>
      <path d="M 8.015625 75.875 
L 15.828125 75.875 
Q 23.140625 64.359375 26.78125 53.3125 
Q 30.421875 42.28125 30.421875 31.390625 
Q 30.421875 20.453125 26.78125 9.375 
Q 23.140625 -1.703125 15.828125 -13.1875 
L 8.015625 -13.1875 
Q 14.5 -2 17.703125 9.0625 
Q 20.90625 20.125 20.90625 31.390625 
Q 20.90625 42.671875 17.703125 53.65625 
Q 14.5 64.65625 8.015625 75.875 
z
" id="DejaVuSans-41"/>
     </defs>
     <g transform="translate(189.0125 268.034687)scale(0.1 -0.1)">
      <use xlink:href="#DejaVuSans-84"/>
      <use x="61.037109" xlink:href="#DejaVuSans-105"/>
      <use x="88.820312" xlink:href="#DejaVuSans-109"/>
      <use x="186.232422" xlink:href="#DejaVuSans-101"/>
      <use x="247.755859" xlink:href="#DejaVuSans-32"/>
      <use x="279.542969" xlink:href="#DejaVuSans-40"/>
      <use x="318.556641" xlink:href="#DejaVuSans-109"/>
      <use x="415.96875" xlink:href="#DejaVuSans-115"/>
      <use x="468.068359" xlink:href="#DejaVuSans-41"/>
     </g>
    </g>
   </g>
   <g id="matplotlib.axis_2">
    <g id="ytick_1">
     <g id="line2d_7">
      <defs>
       <path d="M 0 0 
L -3.5 0 
" id="m4b64ea494c" style="stroke:#000000;stroke-width:0.8;"/>
      </defs>
      <g>
       <use style="stroke:#000000;stroke-width:0.8;" x="46.965625" xlink:href="#m4b64ea494c" y="229.874489"/>
      </g>
     </g>
     <g id="text_8">
      <!-- 0 -->
      <g transform="translate(33.603125 233.673707)scale(0.1 -0.1)">
       <use xlink:href="#DejaVuSans-48"/>
      </g>
     </g>
    </g>
    <g id="ytick_2">
     <g id="line2d_8">
      <g>
       <use style="stroke:#000000;stroke-width:0.8;" x="46.965625" xlink:href="#m4b64ea494c" y="183.926955"/>
      </g>
     </g>
     <g id="text_9">
      <!-- 50 -->
      <defs>
       <path d="M 10.796875 72.90625 
L 49.515625 72.90625 
L 49.515625 64.59375 
L 19.828125 64.59375 
L 19.828125 46.734375 
Q 21.96875 47.46875 24.109375 47.828125 
Q 26.265625 48.1875 28.421875 48.1875 
Q 40.625 48.1875 47.75 41.5 
Q 54.890625 34.8125 54.890625 23.390625 
Q 54.890625 11.625 47.5625 5.09375 
Q 40.234375 -1.421875 26.90625 -1.421875 
Q 22.3125 -1.421875 17.546875 -0.640625 
Q 12.796875 0.140625 7.71875 1.703125 
L 7.71875 11.625 
Q 12.109375 9.234375 16.796875 8.0625 
Q 21.484375 6.890625 26.703125 6.890625 
Q 35.15625 6.890625 40.078125 11.328125 
Q 45.015625 15.765625 45.015625 23.390625 
Q 45.015625 31 40.078125 35.4375 
Q 35.15625 39.890625 26.703125 39.890625 
Q 22.75 39.890625 18.8125 39.015625 
Q 14.890625 38.140625 10.796875 36.28125 
z
" id="DejaVuSans-53"/>
      </defs>
      <g transform="translate(27.240625 187.726174)scale(0.1 -0.1)">
       <use xlink:href="#DejaVuSans-53"/>
       <use x="63.623047" xlink:href="#DejaVuSans-48"/>
      </g>
     </g>
    </g>
    <g id="ytick_3">
     <g id="line2d_9">
      <g>
       <use style="stroke:#000000;stroke-width:0.8;" x="46.965625" xlink:href="#m4b64ea494c" y="137.979422"/>
      </g>
     </g>
     <g id="text_10">
      <!-- 100 -->
      <g transform="translate(20.878125 141.778641)scale(0.1 -0.1)">
       <use xlink:href="#DejaVuSans-49"/>
       <use x="63.623047" xlink:href="#DejaVuSans-48"/>
       <use x="127.246094" xlink:href="#DejaVuSans-48"/>
      </g>
     </g>
    </g>
    <g id="ytick_4">
     <g id="line2d_10">
      <g>
       <use style="stroke:#000000;stroke-width:0.8;" x="46.965625" xlink:href="#m4b64ea494c" y="92.031889"/>
      </g>
     </g>
     <g id="text_11">
      <!-- 150 -->
      <g transform="translate(20.878125 95.831108)scale(0.1 -0.1)">
       <use xlink:href="#DejaVuSans-49"/>
       <use x="63.623047" xlink:href="#DejaVuSans-53"/>
       <use x="127.246094" xlink:href="#DejaVuSans-48"/>
      </g>
     </g>
    </g>
    <g id="ytick_5">
     <g id="line2d_11">
      <g>
       <use style="stroke:#000000;stroke-width:0.8;" x="46.965625" xlink:href="#m4b64ea494c" y="46.084356"/>
      </g>
     </g>
     <g id="text_12">
      <!-- 200 -->
      <g transform="translate(20.878125 49.883575)scale(0.1 -0.1)">
       <use xlink:href="#DejaVuSans-50"/>
       <use x="63.623047" xlink:href="#DejaVuSans-48"/>
       <use x="127.246094" xlink:href="#DejaVuSans-48"/>
      </g>
     </g>
    </g>
    <g id="text_13">
     <!-- ppmOH -->
     <defs>
      <path d="M 18.109375 8.203125 
L 18.109375 -20.796875 
L 9.078125 -20.796875 
L 9.078125 54.6875 
L 18.109375 54.6875 
L 18.109375 46.390625 
Q 20.953125 51.265625 25.265625 53.625 
Q 29.59375 56 35.59375 56 
Q 45.5625 56 51.78125 48.09375 
Q 58.015625 40.1875 58.015625 27.296875 
Q 58.015625 14.40625 51.78125 6.484375 
Q 45.5625 -1.421875 35.59375 -1.421875 
Q 29.59375 -1.421875 25.265625 0.953125 
Q 20.953125 3.328125 18.109375 8.203125 
z
M 48.6875 27.296875 
Q 48.6875 37.203125 44.609375 42.84375 
Q 40.53125 48.484375 33.40625 48.484375 
Q 26.265625 48.484375 22.1875 42.84375 
Q 18.109375 37.203125 18.109375 27.296875 
Q 18.109375 17.390625 22.1875 11.75 
Q 26.265625 6.109375 33.40625 6.109375 
Q 40.53125 6.109375 44.609375 11.75 
Q 48.6875 17.390625 48.6875 27.296875 
z
" id="DejaVuSans-112"/>
      <path d="M 39.40625 66.21875 
Q 28.65625 66.21875 22.328125 58.203125 
Q 16.015625 50.203125 16.015625 36.375 
Q 16.015625 22.609375 22.328125 14.59375 
Q 28.65625 6.59375 39.40625 6.59375 
Q 50.140625 6.59375 56.421875 14.59375 
Q 62.703125 22.609375 62.703125 36.375 
Q 62.703125 50.203125 56.421875 58.203125 
Q 50.140625 66.21875 39.40625 66.21875 
z
M 39.40625 74.21875 
Q 54.734375 74.21875 63.90625 63.9375 
Q 73.09375 53.65625 73.09375 36.375 
Q 73.09375 19.140625 63.90625 8.859375 
Q 54.734375 -1.421875 39.40625 -1.421875 
Q 24.03125 -1.421875 14.8125 8.828125 
Q 5.609375 19.09375 5.609375 36.375 
Q 5.609375 53.65625 14.8125 63.9375 
Q 24.03125 74.21875 39.40625 74.21875 
z
" id="DejaVuSans-79"/>
      <path d="M 9.8125 72.90625 
L 19.671875 72.90625 
L 19.671875 43.015625 
L 55.515625 43.015625 
L 55.515625 72.90625 
L 65.375 72.90625 
L 65.375 0 
L 55.515625 0 
L 55.515625 34.71875 
L 19.671875 34.71875 
L 19.671875 0 
L 9.8125 0 
z
" id="DejaVuSans-72"/>
     </defs>
     <g transform="translate(14.798438 149.952969)rotate(-90)scale(0.1 -0.1)">
      <use xlink:href="#DejaVuSans-112"/>
      <use x="63.476562" xlink:href="#DejaVuSans-112"/>
      <use x="126.953125" xlink:href="#DejaVuSans-109"/>
      <use x="224.365234" xlink:href="#DejaVuSans-79"/>
      <use x="303.076172" xlink:href="#DejaVuSans-72"/>
     </g>
    </g>
   </g>
   <g id="line2d_12">
    <path clip-path="url(#p9d920d00f2)" d="M 62.183807 229.874489 
L 62.705415 164.414104 
L 63.209001 126.601511 
L 63.653342 107.614287 
L 64.068989 98.144551 
L 64.428177 94.289755 
L 64.697568 93.179926 
L 64.877162 93.045044 
L 65.056756 93.274121 
L 65.326147 94.120687 
L 65.820031 96.617573 
L 68.221119 109.995884 
L 69.135218 113.449981 
L 70.049317 116.07986 
L 70.963416 118.091677 
L 71.878719 119.656373 
L 72.949381 121.084133 
L 74.172995 122.356646 
L 75.561471 123.506214 
L 77.420712 124.766272 
L 80.441979 126.517177 
L 89.464919 131.632981 
L 94.947642 135.041919 
L 102.201692 139.818175 
L 132.772201 160.266112 
L 140.747117 165.18245 
L 147.39288 169.02281 
L 153.374067 172.240048 
L 159.355253 175.204017 
L 165.33644 177.898228 
L 170.65305 180.061362 
L 175.969661 182.008562 
L 181.950847 183.950769 
L 187.932034 185.646695 
L 193.913221 187.118003 
L 200.558984 188.518536 
L 207.541266 189.759899 
L 215.550032 190.94065 
L 224.559895 192.018506 
L 234.570853 192.975877 
L 246.584003 193.879865 
L 260.606577 194.70117 
L 278.6697 195.5214 
L 302.753864 196.371179 
L 335.262289 197.27955 
L 364.858972 197.970517 
L 364.858972 197.970517 
" style="fill:none;stroke:#0000ff;stroke-linecap:square;stroke-width:1.5;"/>
   </g>
   <g id="line2d_13">
    <path clip-path="url(#p9d920d00f2)" d="M 62.183807 229.874489 
L 62.685716 150.348838 
L 63.15824 104.950589 
L 63.632679 78.977225 
L 64.039341 67.264962 
L 64.396581 62.323087 
L 64.704399 60.768519 
L 64.858308 60.663057 
L 65.012217 60.899228 
L 65.268732 61.878035 
L 65.730459 64.834096 
L 66.910964 74.584807 
L 68.067293 83.214884 
L 69.069445 89.137112 
L 70.033591 93.642686 
L 71.074981 97.503528 
L 72.232081 100.904105 
L 73.340314 103.539979 
L 74.743216 106.279445 
L 76.321481 108.830675 
L 78.075108 111.248626 
L 80.333574 113.978067 
L 83.323076 117.232791 
L 87.853103 121.815013 
L 94.596281 128.315521 
L 101.903693 135.060988 
L 108.202264 140.590013 
L 114.234886 145.607745 
L 120.236642 150.321082 
L 126.454672 154.913431 
L 132.672702 159.215554 
L 138.890732 163.23098 
L 144.543487 166.632191 
L 150.196242 169.793603 
L 155.848996 172.712748 
L 161.501751 175.389077 
L 167.154506 177.825406 
L 172.80726 180.028566 
L 178.460015 182.009295 
L 184.679351 183.948313 
L 191.467882 185.802358 
L 198.256412 187.412042 
L 205.893509 188.968803 
L 213.530606 190.296024 
L 222.016269 191.546452 
L 231.359684 192.700601 
L 241.579223 193.750595 
L 254.353646 194.823753 
L 268.405511 195.776562 
L 285.177002 196.691725 
L 306.481319 197.616518 
L 332.817715 198.521012 
L 366.547443 199.440575 
L 366.547443 199.440575 
" style="fill:none;stroke:#ff0000;stroke-linecap:square;stroke-width:1.5;"/>
   </g>
   <g id="line2d_14">
    <defs>
     <path d="M 0 3 
C 0.795609 3 1.55874 2.683901 2.12132 2.12132 
C 2.683901 1.55874 3 0.795609 3 0 
C 3 -0.795609 2.683901 -1.55874 2.12132 -2.12132 
C 1.55874 -2.683901 0.795609 -3 0 -3 
C -0.795609 -3 -1.55874 -2.683901 -2.12132 -2.12132 
C -2.683901 -1.55874 -3 -0.795609 -3 0 
C -3 0.795609 -2.683901 1.55874 -2.12132 2.12132 
C -1.55874 2.683901 -0.795609 3 0 3 
z
" id="med57bb06a8" style="stroke:#000000;"/>
    </defs>
    <g clip-path="url(#p9d920d00f2)">
     <use style="stroke:#000000;" x="62.183807" xlink:href="#med57bb06a8" y="229.874489"/>
     <use style="stroke:#000000;" x="62.183813" xlink:href="#med57bb06a8" y="229.874258"/>
     <use style="stroke:#000000;" x="62.18383" xlink:href="#med57bb06a8" y="229.873534"/>
     <use style="stroke:#000000;" x="62.183848" xlink:href="#med57bb06a8" y="229.872809"/>
     <use style="stroke:#000000;" x="62.183866" xlink:href="#med57bb06a8" y="229.872085"/>
     <use style="stroke:#000000;" x="62.183884" xlink:href="#med57bb06a8" y="229.871361"/>
     <use style="stroke:#000000;" x="62.183922" xlink:href="#med57bb06a8" y="229.869831"/>
     <use style="stroke:#000000;" x="62.183991" xlink:href="#med57bb06a8" y="229.867049"/>
     <use style="stroke:#000000;" x="62.184113" xlink:href="#med57bb06a8" y="229.862115"/>
     <use style="stroke:#000000;" x="62.184332" xlink:href="#med57bb06a8" y="229.853292"/>
     <use style="stroke:#000000;" x="62.184782" xlink:href="#med57bb06a8" y="229.835067"/>
     <use style="stroke:#000000;" x="62.185232" xlink:href="#med57bb06a8" y="229.81685"/>
     <use style="stroke:#000000;" x="62.185682" xlink:href="#med57bb06a8" y="229.798641"/>
     <use style="stroke:#000000;" x="62.186384" xlink:href="#med57bb06a8" y="229.770327"/>
     <use style="stroke:#000000;" x="62.187077" xlink:href="#med57bb06a8" y="229.742032"/>
     <use style="stroke:#000000;" x="62.187797" xlink:href="#med57bb06a8" y="229.713757"/>
     <use style="stroke:#000000;" x="62.188487" xlink:href="#med57bb06a8" y="229.6855"/>
     <use style="stroke:#000000;" x="62.189776" xlink:href="#med57bb06a8" y="229.633073"/>
     <use style="stroke:#000000;" x="62.191096" xlink:href="#med57bb06a8" y="229.580712"/>
     <use style="stroke:#000000;" x="62.192386" xlink:href="#med57bb06a8" y="229.528416"/>
     <use style="stroke:#000000;" x="62.194576" xlink:href="#med57bb06a8" y="229.440789"/>
     <use style="stroke:#000000;" x="62.198326" xlink:href="#med57bb06a8" y="229.290446"/>
     <use style="stroke:#000000;" x="62.202106" xlink:href="#med57bb06a8" y="229.140644"/>
     <use style="stroke:#000000;" x="62.205855" xlink:href="#med57bb06a8" y="228.991381"/>
     <use style="stroke:#000000;" x="62.209605" xlink:href="#med57bb06a8" y="228.842656"/>
     <use style="stroke:#000000;" x="62.215905" xlink:href="#med57bb06a8" y="228.590988"/>
     <use style="stroke:#000000;" x="62.222504" xlink:href="#med57bb06a8" y="228.340858"/>
     <use style="stroke:#000000;" x="62.228804" xlink:href="#med57bb06a8" y="228.092258"/>
     <use style="stroke:#000000;" x="62.235104" xlink:href="#med57bb06a8" y="227.845178"/>
     <use style="stroke:#000000;" x="62.241703" xlink:href="#med57bb06a8" y="227.599609"/>
     <use style="stroke:#000000;" x="62.248003" xlink:href="#med57bb06a8" y="227.355543"/>
     <use style="stroke:#000000;" x="62.254302" xlink:href="#med57bb06a8" y="227.112969"/>
     <use style="stroke:#000000;" x="62.264502" xlink:href="#med57bb06a8" y="226.726085"/>
     <use style="stroke:#000000;" x="62.275001" xlink:href="#med57bb06a8" y="226.343"/>
     <use style="stroke:#000000;" x="62.2945" xlink:href="#med57bb06a8" y="225.617911"/>
     <use style="stroke:#000000;" x="62.314298" xlink:href="#med57bb06a8" y="224.90644"/>
     <use style="stroke:#000000;" x="62.334097" xlink:href="#med57bb06a8" y="224.208335"/>
     <use style="stroke:#000000;" x="62.353896" xlink:href="#med57bb06a8" y="223.52335"/>
     <use style="stroke:#000000;" x="62.373695" xlink:href="#med57bb06a8" y="222.851243"/>
     <use style="stroke:#000000;" x="62.405493" xlink:href="#med57bb06a8" y="221.790311"/>
     <use style="stroke:#000000;" x="62.437291" xlink:href="#med57bb06a8" y="220.761502"/>
     <use style="stroke:#000000;" x="62.469389" xlink:href="#med57bb06a8" y="219.763866"/>
     <use style="stroke:#000000;" x="62.501787" xlink:href="#med57bb06a8" y="218.796481"/>
     <use style="stroke:#000000;" x="62.531785" xlink:href="#med57bb06a8" y="217.858453"/>
     <use style="stroke:#000000;" x="62.564783" xlink:href="#med57bb06a8" y="216.948914"/>
     <use style="stroke:#000000;" x="62.59778" xlink:href="#med57bb06a8" y="216.067025"/>
     <use style="stroke:#000000;" x="62.627778" xlink:href="#med57bb06a8" y="215.211968"/>
     <use style="stroke:#000000;" x="62.660776" xlink:href="#med57bb06a8" y="214.382953"/>
     <use style="stroke:#000000;" x="62.693774" xlink:href="#med57bb06a8" y="213.579211"/>
     <use style="stroke:#000000;" x="62.723772" xlink:href="#med57bb06a8" y="212.799998"/>
     <use style="stroke:#000000;" x="62.75677" xlink:href="#med57bb06a8" y="212.044592"/>
     <use style="stroke:#000000;" x="62.789768" xlink:href="#med57bb06a8" y="211.31229"/>
     <use style="stroke:#000000;" x="62.819766" xlink:href="#med57bb06a8" y="210.602413"/>
     <use style="stroke:#000000;" x="62.852764" xlink:href="#med57bb06a8" y="209.914302"/>
     <use style="stroke:#000000;" x="62.885762" xlink:href="#med57bb06a8" y="209.247315"/>
     <use style="stroke:#000000;" x="62.91576" xlink:href="#med57bb06a8" y="208.600831"/>
     <use style="stroke:#000000;" x="62.948758" xlink:href="#med57bb06a8" y="207.974248"/>
     <use style="stroke:#000000;" x="62.978756" xlink:href="#med57bb06a8" y="207.36698"/>
     <use style="stroke:#000000;" x="63.011754" xlink:href="#med57bb06a8" y="206.778459"/>
     <use style="stroke:#000000;" x="63.044752" xlink:href="#med57bb06a8" y="206.208135"/>
     <use style="stroke:#000000;" x="63.07475" xlink:href="#med57bb06a8" y="205.655473"/>
     <use style="stroke:#000000;" x="63.107748" xlink:href="#med57bb06a8" y="205.119953"/>
     <use style="stroke:#000000;" x="63.140746" xlink:href="#med57bb06a8" y="204.601073"/>
     <use style="stroke:#000000;" x="63.170744" xlink:href="#med57bb06a8" y="204.098343"/>
     <use style="stroke:#000000;" x="63.203742" xlink:href="#med57bb06a8" y="203.611289"/>
     <use style="stroke:#000000;" x="63.23674" xlink:href="#med57bb06a8" y="203.139451"/>
     <use style="stroke:#000000;" x="63.266738" xlink:href="#med57bb06a8" y="202.682381"/>
     <use style="stroke:#000000;" x="63.314735" xlink:href="#med57bb06a8" y="202.0231"/>
     <use style="stroke:#000000;" x="63.362732" xlink:href="#med57bb06a8" y="201.394704"/>
     <use style="stroke:#000000;" x="63.410729" xlink:href="#med57bb06a8" y="200.795843"/>
     <use style="stroke:#000000;" x="63.458725" xlink:href="#med57bb06a8" y="200.225222"/>
     <use style="stroke:#000000;" x="63.506722" xlink:href="#med57bb06a8" y="199.681606"/>
     <use style="stroke:#000000;" x="63.554719" xlink:href="#med57bb06a8" y="199.163813"/>
     <use style="stroke:#000000;" x="63.602716" xlink:href="#med57bb06a8" y="198.670711"/>
     <use style="stroke:#000000;" x="63.650713" xlink:href="#med57bb06a8" y="198.20122"/>
     <use style="stroke:#000000;" x="63.69871" xlink:href="#med57bb06a8" y="197.754304"/>
     <use style="stroke:#000000;" x="63.746707" xlink:href="#med57bb06a8" y="197.328975"/>
     <use style="stroke:#000000;" x="63.794704" xlink:href="#med57bb06a8" y="196.924286"/>
     <use style="stroke:#000000;" x="63.842701" xlink:href="#med57bb06a8" y="196.539332"/>
     <use style="stroke:#000000;" x="63.890698" xlink:href="#med57bb06a8" y="196.173246"/>
     <use style="stroke:#000000;" x="63.938695" xlink:href="#med57bb06a8" y="195.825201"/>
     <use style="stroke:#000000;" x="63.986692" xlink:href="#med57bb06a8" y="195.494404"/>
     <use style="stroke:#000000;" x="64.034689" xlink:href="#med57bb06a8" y="195.180096"/>
     <use style="stroke:#000000;" x="64.082686" xlink:href="#med57bb06a8" y="194.881554"/>
     <use style="stroke:#000000;" x="64.130683" xlink:href="#med57bb06a8" y="194.598083"/>
     <use style="stroke:#000000;" x="64.17868" xlink:href="#med57bb06a8" y="194.32902"/>
     <use style="stroke:#000000;" x="64.226676" xlink:href="#med57bb06a8" y="194.07373"/>
     <use style="stroke:#000000;" x="64.274673" xlink:href="#med57bb06a8" y="193.831606"/>
     <use style="stroke:#000000;" x="64.32267" xlink:href="#med57bb06a8" y="193.602067"/>
     <use style="stroke:#000000;" x="64.370667" xlink:href="#med57bb06a8" y="193.384557"/>
     <use style="stroke:#000000;" x="64.418664" xlink:href="#med57bb06a8" y="193.178545"/>
     <use style="stroke:#000000;" x="64.466661" xlink:href="#med57bb06a8" y="192.983523"/>
     <use style="stroke:#000000;" x="64.514658" xlink:href="#med57bb06a8" y="192.799003"/>
     <use style="stroke:#000000;" x="64.562655" xlink:href="#med57bb06a8" y="192.624521"/>
     <use style="stroke:#000000;" x="64.610652" xlink:href="#med57bb06a8" y="192.459631"/>
     <use style="stroke:#000000;" x="64.658649" xlink:href="#med57bb06a8" y="192.303907"/>
     <use style="stroke:#000000;" x="64.706646" xlink:href="#med57bb06a8" y="192.156943"/>
     <use style="stroke:#000000;" x="64.754643" xlink:href="#med57bb06a8" y="192.018347"/>
     <use style="stroke:#000000;" x="64.79964" xlink:href="#med57bb06a8" y="191.887748"/>
     <use style="stroke:#000000;" x="64.847637" xlink:href="#med57bb06a8" y="191.764789"/>
     <use style="stroke:#000000;" x="64.895634" xlink:href="#med57bb06a8" y="191.649129"/>
     <use style="stroke:#000000;" x="64.943631" xlink:href="#med57bb06a8" y="191.540441"/>
     <use style="stroke:#000000;" x="64.991628" xlink:href="#med57bb06a8" y="191.438413"/>
     <use style="stroke:#000000;" x="65.039625" xlink:href="#med57bb06a8" y="191.342747"/>
     <use style="stroke:#000000;" x="65.087622" xlink:href="#med57bb06a8" y="191.253156"/>
     <use style="stroke:#000000;" x="65.159617" xlink:href="#med57bb06a8" y="191.129399"/>
     <use style="stroke:#000000;" x="65.243612" xlink:href="#med57bb06a8" y="191.017862"/>
     <use style="stroke:#000000;" x="65.303608" xlink:href="#med57bb06a8" y="190.917726"/>
     <use style="stroke:#000000;" x="65.363604" xlink:href="#med57bb06a8" y="190.828223"/>
     <use style="stroke:#000000;" x="65.453598" xlink:href="#med57bb06a8" y="190.748636"/>
     <use style="stroke:#000000;" x="65.513594" xlink:href="#med57bb06a8" y="190.678294"/>
     <use style="stroke:#000000;" x="65.603589" xlink:href="#med57bb06a8" y="190.616571"/>
     <use style="stroke:#000000;" x="65.663585" xlink:href="#med57bb06a8" y="190.562878"/>
     <use style="stroke:#000000;" x="65.723581" xlink:href="#med57bb06a8" y="190.516667"/>
     <use style="stroke:#000000;" x="65.813575" xlink:href="#med57bb06a8" y="190.477425"/>
     <use style="stroke:#000000;" x="65.873571" xlink:href="#med57bb06a8" y="190.444672"/>
     <use style="stroke:#000000;" x="65.963566" xlink:href="#med57bb06a8" y="190.417958"/>
     <use style="stroke:#000000;" x="66.023562" xlink:href="#med57bb06a8" y="190.396863"/>
     <use style="stroke:#000000;" x="66.083558" xlink:href="#med57bb06a8" y="190.380996"/>
     <use style="stroke:#000000;" x="66.173552" xlink:href="#med57bb06a8" y="190.369988"/>
     <use style="stroke:#000000;" x="66.233548" xlink:href="#med57bb06a8" y="190.363497"/>
     <use style="stroke:#000000;" x="66.323543" xlink:href="#med57bb06a8" y="190.361202"/>
     <use style="stroke:#000000;" x="66.383539" xlink:href="#med57bb06a8" y="190.362802"/>
     <use style="stroke:#000000;" x="66.443535" xlink:href="#med57bb06a8" y="190.368017"/>
     <use style="stroke:#000000;" x="66.533529" xlink:href="#med57bb06a8" y="190.376584"/>
     <use style="stroke:#000000;" x="66.593526" xlink:href="#med57bb06a8" y="190.388258"/>
     <use style="stroke:#000000;" x="66.68352" xlink:href="#med57bb06a8" y="190.40281"/>
     <use style="stroke:#000000;" x="66.743516" xlink:href="#med57bb06a8" y="190.420025"/>
     <use style="stroke:#000000;" x="66.803512" xlink:href="#med57bb06a8" y="190.439704"/>
     <use style="stroke:#000000;" x="66.893506" xlink:href="#med57bb06a8" y="190.461659"/>
     <use style="stroke:#000000;" x="66.953503" xlink:href="#med57bb06a8" y="190.485714"/>
     <use style="stroke:#000000;" x="67.043497" xlink:href="#med57bb06a8" y="190.511707"/>
     <use style="stroke:#000000;" x="67.103493" xlink:href="#med57bb06a8" y="190.539485"/>
     <use style="stroke:#000000;" x="67.163489" xlink:href="#med57bb06a8" y="190.568904"/>
     <use style="stroke:#000000;" x="67.253483" xlink:href="#med57bb06a8" y="190.599831"/>
     <use style="stroke:#000000;" x="67.31348" xlink:href="#med57bb06a8" y="190.632141"/>
     <use style="stroke:#000000;" x="67.403474" xlink:href="#med57bb06a8" y="190.665719"/>
     <use style="stroke:#000000;" x="67.46347" xlink:href="#med57bb06a8" y="190.700455"/>
     <use style="stroke:#000000;" x="67.523466" xlink:href="#med57bb06a8" y="190.736247"/>
     <use style="stroke:#000000;" x="67.61346" xlink:href="#med57bb06a8" y="190.773001"/>
     <use style="stroke:#000000;" x="67.673457" xlink:href="#med57bb06a8" y="190.810628"/>
     <use style="stroke:#000000;" x="67.793449" xlink:href="#med57bb06a8" y="190.868638"/>
     <use style="stroke:#000000;" x="67.883443" xlink:href="#med57bb06a8" y="190.928176"/>
     <use style="stroke:#000000;" x="68.003436" xlink:href="#med57bb06a8" y="190.989009"/>
     <use style="stroke:#000000;" x="68.123428" xlink:href="#med57bb06a8" y="191.050928"/>
     <use style="stroke:#000000;" x="68.213422" xlink:href="#med57bb06a8" y="191.113743"/>
     <use style="stroke:#000000;" x="68.333415" xlink:href="#med57bb06a8" y="191.177285"/>
     <use style="stroke:#000000;" x="68.423409" xlink:href="#med57bb06a8" y="191.2414"/>
     <use style="stroke:#000000;" x="68.543401" xlink:href="#med57bb06a8" y="191.305951"/>
     <use style="stroke:#000000;" x="68.663393" xlink:href="#med57bb06a8" y="191.370813"/>
     <use style="stroke:#000000;" x="68.753388" xlink:href="#med57bb06a8" y="191.435877"/>
     <use style="stroke:#000000;" x="68.87338" xlink:href="#med57bb06a8" y="191.501041"/>
     <use style="stroke:#000000;" x="68.993372" xlink:href="#med57bb06a8" y="191.566216"/>
     <use style="stroke:#000000;" x="69.083367" xlink:href="#med57bb06a8" y="191.631322"/>
     <use style="stroke:#000000;" x="69.203359" xlink:href="#med57bb06a8" y="191.696288"/>
     <use style="stroke:#000000;" x="69.293353" xlink:href="#med57bb06a8" y="191.761049"/>
     <use style="stroke:#000000;" x="69.413346" xlink:href="#med57bb06a8" y="191.825547"/>
     <use style="stroke:#000000;" x="69.533338" xlink:href="#med57bb06a8" y="191.889733"/>
     <use style="stroke:#000000;" x="69.623332" xlink:href="#med57bb06a8" y="191.953561"/>
     <use style="stroke:#000000;" x="69.743325" xlink:href="#med57bb06a8" y="192.01699"/>
     <use style="stroke:#000000;" x="69.833319" xlink:href="#med57bb06a8" y="192.079986"/>
     <use style="stroke:#000000;" x="69.953311" xlink:href="#med57bb06a8" y="192.142516"/>
     <use style="stroke:#000000;" x="70.073304" xlink:href="#med57bb06a8" y="192.204553"/>
     <use style="stroke:#000000;" x="70.163298" xlink:href="#med57bb06a8" y="192.266073"/>
     <use style="stroke:#000000;" x="70.28329" xlink:href="#med57bb06a8" y="192.327056"/>
     <use style="stroke:#000000;" x="70.373284" xlink:href="#med57bb06a8" y="192.387482"/>
     <use style="stroke:#000000;" x="70.493277" xlink:href="#med57bb06a8" y="192.447337"/>
     <use style="stroke:#000000;" x="70.643267" xlink:href="#med57bb06a8" y="192.536736"/>
     <use style="stroke:#000000;" x="70.823256" xlink:href="#med57bb06a8" y="192.624759"/>
     <use style="stroke:#000000;" x="70.973246" xlink:href="#med57bb06a8" y="192.71138"/>
     <use style="stroke:#000000;" x="71.153235" xlink:href="#med57bb06a8" y="192.796577"/>
     <use style="stroke:#000000;" x="71.303225" xlink:href="#med57bb06a8" y="192.880338"/>
     <use style="stroke:#000000;" x="71.483214" xlink:href="#med57bb06a8" y="192.962654"/>
     <use style="stroke:#000000;" x="71.633204" xlink:href="#med57bb06a8" y="193.043523"/>
     <use style="stroke:#000000;" x="71.813193" xlink:href="#med57bb06a8" y="193.122948"/>
     <use style="stroke:#000000;" x="71.963183" xlink:href="#med57bb06a8" y="193.200933"/>
     <use style="stroke:#000000;" x="72.143171" xlink:href="#med57bb06a8" y="193.277487"/>
     <use style="stroke:#000000;" x="72.293162" xlink:href="#med57bb06a8" y="193.352621"/>
     <use style="stroke:#000000;" x="72.443152" xlink:href="#med57bb06a8" y="193.426348"/>
     <use style="stroke:#000000;" x="72.623141" xlink:href="#med57bb06a8" y="193.498683"/>
     <use style="stroke:#000000;" x="72.773131" xlink:href="#med57bb06a8" y="193.569643"/>
     <use style="stroke:#000000;" x="72.95312" xlink:href="#med57bb06a8" y="193.639246"/>
     <use style="stroke:#000000;" x="73.10311" xlink:href="#med57bb06a8" y="193.707511"/>
     <use style="stroke:#000000;" x="73.283099" xlink:href="#med57bb06a8" y="193.774457"/>
     <use style="stroke:#000000;" x="73.433089" xlink:href="#med57bb06a8" y="193.840105"/>
     <use style="stroke:#000000;" x="73.613078" xlink:href="#med57bb06a8" y="193.904476"/>
     <use style="stroke:#000000;" x="73.853062" xlink:href="#med57bb06a8" y="193.999768"/>
     <use style="stroke:#000000;" x="74.093047" xlink:href="#med57bb06a8" y="194.092245"/>
     <use style="stroke:#000000;" x="74.333032" xlink:href="#med57bb06a8" y="194.181981"/>
     <use style="stroke:#000000;" x="74.603015" xlink:href="#med57bb06a8" y="194.269055"/>
     <use style="stroke:#000000;" x="74.842999" xlink:href="#med57bb06a8" y="194.353542"/>
     <use style="stroke:#000000;" x="75.082984" xlink:href="#med57bb06a8" y="194.435519"/>
     <use style="stroke:#000000;" x="75.352967" xlink:href="#med57bb06a8" y="194.51506"/>
     <use style="stroke:#000000;" x="75.592951" xlink:href="#med57bb06a8" y="194.592241"/>
     <use style="stroke:#000000;" x="75.832936" xlink:href="#med57bb06a8" y="194.667133"/>
     <use style="stroke:#000000;" x="76.072921" xlink:href="#med57bb06a8" y="194.739808"/>
     <use style="stroke:#000000;" x="76.342904" xlink:href="#med57bb06a8" y="194.810336"/>
     <use style="stroke:#000000;" x="76.582888" xlink:href="#med57bb06a8" y="194.878786"/>
     <use style="stroke:#000000;" x="76.822873" xlink:href="#med57bb06a8" y="194.945223"/>
     <use style="stroke:#000000;" x="77.092856" xlink:href="#med57bb06a8" y="195.009713"/>
     <use style="stroke:#000000;" x="77.33284" xlink:href="#med57bb06a8" y="195.07232"/>
     <use style="stroke:#000000;" x="77.692817" xlink:href="#med57bb06a8" y="195.163091"/>
     <use style="stroke:#000000;" x="78.082793" xlink:href="#med57bb06a8" y="195.24994"/>
     <use style="stroke:#000000;" x="78.44277" xlink:href="#med57bb06a8" y="195.333062"/>
     <use style="stroke:#000000;" x="78.832745" xlink:href="#med57bb06a8" y="195.412642"/>
     <use style="stroke:#000000;" x="79.192722" xlink:href="#med57bb06a8" y="195.488858"/>
     <use style="stroke:#000000;" x="79.552699" xlink:href="#med57bb06a8" y="195.561877"/>
     <use style="stroke:#000000;" x="79.942674" xlink:href="#med57bb06a8" y="195.631863"/>
     <use style="stroke:#000000;" x="80.302651" xlink:href="#med57bb06a8" y="195.698968"/>
     <use style="stroke:#000000;" x="80.692626" xlink:href="#med57bb06a8" y="195.76334"/>
     <use style="stroke:#000000;" x="81.052603" xlink:href="#med57bb06a8" y="195.825117"/>
     <use style="stroke:#000000;" x="81.442578" xlink:href="#med57bb06a8" y="195.884433"/>
     <use style="stroke:#000000;" x="81.802555" xlink:href="#med57bb06a8" y="195.941414"/>
     <use style="stroke:#000000;" x="82.402517" xlink:href="#med57bb06a8" y="196.025856"/>
     <use style="stroke:#000000;" x="82.972481" xlink:href="#med57bb06a8" y="196.105341"/>
     <use style="stroke:#000000;" x="83.542444" xlink:href="#med57bb06a8" y="196.180264"/>
     <use style="stroke:#000000;" x="84.142406" xlink:href="#med57bb06a8" y="196.250987"/>
     <use style="stroke:#000000;" x="84.71237" xlink:href="#med57bb06a8" y="196.317846"/>
     <use style="stroke:#000000;" x="85.312331" xlink:href="#med57bb06a8" y="196.381149"/>
     <use style="stroke:#000000;" x="85.882295" xlink:href="#med57bb06a8" y="196.441182"/>
     <use style="stroke:#000000;" x="86.452259" xlink:href="#med57bb06a8" y="196.498205"/>
     <use style="stroke:#000000;" x="87.05222" xlink:href="#med57bb06a8" y="196.552461"/>
     <use style="stroke:#000000;" x="87.622184" xlink:href="#med57bb06a8" y="196.604172"/>
     <use style="stroke:#000000;" x="88.222146" xlink:href="#med57bb06a8" y="196.653541"/>
     <use style="stroke:#000000;" x="88.792109" xlink:href="#med57bb06a8" y="196.700758"/>
     <use style="stroke:#000000;" x="89.392071" xlink:href="#med57bb06a8" y="196.745996"/>
     <use style="stroke:#000000;" x="89.962035" xlink:href="#med57bb06a8" y="196.789413"/>
     <use style="stroke:#000000;" x="90.531998" xlink:href="#med57bb06a8" y="196.831157"/>
     <use style="stroke:#000000;" x="91.13196" xlink:href="#med57bb06a8" y="196.871362"/>
     <use style="stroke:#000000;" x="91.701924" xlink:href="#med57bb06a8" y="196.910153"/>
     <use style="stroke:#000000;" x="92.288086" xlink:href="#med57bb06a8" y="196.947644"/>
     <use style="stroke:#000000;" x="92.870349" xlink:href="#med57bb06a8" y="196.98394"/>
     <use style="stroke:#000000;" x="93.452612" xlink:href="#med57bb06a8" y="197.019137"/>
     <use style="stroke:#000000;" x="94.034875" xlink:href="#med57bb06a8" y="197.053325"/>
     <use style="stroke:#000000;" x="94.616838" xlink:href="#med57bb06a8" y="197.086586"/>
     <use style="stroke:#000000;" x="95.199101" xlink:href="#med57bb06a8" y="197.118995"/>
     <use style="stroke:#000000;" x="95.781363" xlink:href="#med57bb06a8" y="197.150621"/>
     <use style="stroke:#000000;" x="96.363626" xlink:href="#med57bb06a8" y="197.181528"/>
     <use style="stroke:#000000;" x="96.945889" xlink:href="#med57bb06a8" y="197.211776"/>
     <use style="stroke:#000000;" x="97.527852" xlink:href="#med57bb06a8" y="197.241418"/>
     <use style="stroke:#000000;" x="98.110115" xlink:href="#med57bb06a8" y="197.270504"/>
     <use style="stroke:#000000;" x="98.692378" xlink:href="#med57bb06a8" y="197.299081"/>
     <use style="stroke:#000000;" x="99.274641" xlink:href="#med57bb06a8" y="197.32719"/>
     <use style="stroke:#000000;" x="99.856903" xlink:href="#med57bb06a8" y="197.354871"/>
     <use style="stroke:#000000;" x="100.438866" xlink:href="#med57bb06a8" y="197.382159"/>
     <use style="stroke:#000000;" x="101.021129" xlink:href="#med57bb06a8" y="197.409088"/>
     <use style="stroke:#000000;" x="101.603392" xlink:href="#med57bb06a8" y="197.435688"/>
     <use style="stroke:#000000;" x="102.185655" xlink:href="#med57bb06a8" y="197.461988"/>
     <use style="stroke:#000000;" x="102.767618" xlink:href="#med57bb06a8" y="197.488014"/>
     <use style="stroke:#000000;" x="103.349881" xlink:href="#med57bb06a8" y="197.513788"/>
     <use style="stroke:#000000;" x="103.932144" xlink:href="#med57bb06a8" y="197.539334"/>
     <use style="stroke:#000000;" x="104.514406" xlink:href="#med57bb06a8" y="197.564672"/>
     <use style="stroke:#000000;" x="105.096669" xlink:href="#med57bb06a8" y="197.589821"/>
     <use style="stroke:#000000;" x="105.678632" xlink:href="#med57bb06a8" y="197.614797"/>
     <use style="stroke:#000000;" x="106.260895" xlink:href="#med57bb06a8" y="197.639618"/>
     <use style="stroke:#000000;" x="106.843158" xlink:href="#med57bb06a8" y="197.664297"/>
     <use style="stroke:#000000;" x="107.425421" xlink:href="#med57bb06a8" y="197.688849"/>
     <use style="stroke:#000000;" x="108.007684" xlink:href="#med57bb06a8" y="197.713285"/>
     <use style="stroke:#000000;" x="108.589646" xlink:href="#med57bb06a8" y="197.737618"/>
     <use style="stroke:#000000;" x="109.171909" xlink:href="#med57bb06a8" y="197.761858"/>
     <use style="stroke:#000000;" x="109.754172" xlink:href="#med57bb06a8" y="197.786016"/>
     <use style="stroke:#000000;" x="110.336435" xlink:href="#med57bb06a8" y="197.810099"/>
     <use style="stroke:#000000;" x="110.918698" xlink:href="#med57bb06a8" y="197.834118"/>
     <use style="stroke:#000000;" x="111.500661" xlink:href="#med57bb06a8" y="197.858078"/>
     <use style="stroke:#000000;" x="112.380805" xlink:href="#med57bb06a8" y="197.894197"/>
     <use style="stroke:#000000;" x="113.260648" xlink:href="#med57bb06a8" y="197.930224"/>
     <use style="stroke:#000000;" x="114.140492" xlink:href="#med57bb06a8" y="197.966177"/>
     <use style="stroke:#000000;" x="115.020336" xlink:href="#med57bb06a8" y="198.002075"/>
     <use style="stroke:#000000;" x="115.90018" xlink:href="#med57bb06a8" y="198.037934"/>
     <use style="stroke:#000000;" x="116.780324" xlink:href="#med57bb06a8" y="198.073766"/>
     <use style="stroke:#000000;" x="117.660168" xlink:href="#med57bb06a8" y="198.109584"/>
     <use style="stroke:#000000;" x="118.540012" xlink:href="#med57bb06a8" y="198.1454"/>
     <use style="stroke:#000000;" x="119.419855" xlink:href="#med57bb06a8" y="198.181222"/>
     <use style="stroke:#000000;" x="120.299699" xlink:href="#med57bb06a8" y="198.217058"/>
     <use style="stroke:#000000;" x="121.179543" xlink:href="#med57bb06a8" y="198.252917"/>
     <use style="stroke:#000000;" x="122.059687" xlink:href="#med57bb06a8" y="198.288804"/>
     <use style="stroke:#000000;" x="122.939531" xlink:href="#med57bb06a8" y="198.324726"/>
     <use style="stroke:#000000;" x="123.819375" xlink:href="#med57bb06a8" y="198.360687"/>
     <use style="stroke:#000000;" x="124.699219" xlink:href="#med57bb06a8" y="198.396692"/>
     <use style="stroke:#000000;" x="125.579063" xlink:href="#med57bb06a8" y="198.432744"/>
     <use style="stroke:#000000;" x="126.459206" xlink:href="#med57bb06a8" y="198.468847"/>
     <use style="stroke:#000000;" x="127.33905" xlink:href="#med57bb06a8" y="198.505003"/>
     <use style="stroke:#000000;" x="128.218894" xlink:href="#med57bb06a8" y="198.541215"/>
     <use style="stroke:#000000;" x="129.098738" xlink:href="#med57bb06a8" y="198.577485"/>
     <use style="stroke:#000000;" x="129.978582" xlink:href="#med57bb06a8" y="198.613815"/>
     <use style="stroke:#000000;" x="131.315597" xlink:href="#med57bb06a8" y="198.669136"/>
     <use style="stroke:#000000;" x="132.652611" xlink:href="#med57bb06a8" y="198.724602"/>
     <use style="stroke:#000000;" x="133.989626" xlink:href="#med57bb06a8" y="198.780217"/>
     <use style="stroke:#000000;" x="135.326941" xlink:href="#med57bb06a8" y="198.835981"/>
     <use style="stroke:#000000;" x="136.663955" xlink:href="#med57bb06a8" y="198.891896"/>
     <use style="stroke:#000000;" x="138.00097" xlink:href="#med57bb06a8" y="198.947961"/>
     <use style="stroke:#000000;" x="139.337985" xlink:href="#med57bb06a8" y="199.004178"/>
     <use style="stroke:#000000;" x="140.675" xlink:href="#med57bb06a8" y="199.060545"/>
     <use style="stroke:#000000;" x="142.012014" xlink:href="#med57bb06a8" y="199.11706"/>
     <use style="stroke:#000000;" x="143.349029" xlink:href="#med57bb06a8" y="199.173723"/>
     <use style="stroke:#000000;" x="144.686044" xlink:href="#med57bb06a8" y="199.23053"/>
     <use style="stroke:#000000;" x="146.023058" xlink:href="#med57bb06a8" y="199.287482"/>
     <use style="stroke:#000000;" x="147.360073" xlink:href="#med57bb06a8" y="199.344573"/>
     <use style="stroke:#000000;" x="148.697088" xlink:href="#med57bb06a8" y="199.401804"/>
     <use style="stroke:#000000;" x="150.034102" xlink:href="#med57bb06a8" y="199.45917"/>
     <use style="stroke:#000000;" x="151.371117" xlink:href="#med57bb06a8" y="199.516669"/>
     <use style="stroke:#000000;" x="153.422686" xlink:href="#med57bb06a8" y="199.605147"/>
     <use style="stroke:#000000;" x="155.474255" xlink:href="#med57bb06a8" y="199.69392"/>
     <use style="stroke:#000000;" x="157.525825" xlink:href="#med57bb06a8" y="199.782977"/>
     <use style="stroke:#000000;" x="159.577394" xlink:href="#med57bb06a8" y="199.872307"/>
     <use style="stroke:#000000;" x="161.628663" xlink:href="#med57bb06a8" y="199.961899"/>
     <use style="stroke:#000000;" x="163.680232" xlink:href="#med57bb06a8" y="200.051739"/>
     <use style="stroke:#000000;" x="165.731801" xlink:href="#med57bb06a8" y="200.141818"/>
     <use style="stroke:#000000;" x="167.78337" xlink:href="#med57bb06a8" y="200.232123"/>
     <use style="stroke:#000000;" x="169.834939" xlink:href="#med57bb06a8" y="200.322642"/>
     <use style="stroke:#000000;" x="171.886508" xlink:href="#med57bb06a8" y="200.413364"/>
     <use style="stroke:#000000;" x="173.938078" xlink:href="#med57bb06a8" y="200.504277"/>
     <use style="stroke:#000000;" x="175.989647" xlink:href="#med57bb06a8" y="200.59537"/>
     <use style="stroke:#000000;" x="178.040916" xlink:href="#med57bb06a8" y="200.686631"/>
     <use style="stroke:#000000;" x="180.092485" xlink:href="#med57bb06a8" y="200.778049"/>
     <use style="stroke:#000000;" x="182.144054" xlink:href="#med57bb06a8" y="200.869612"/>
     <use style="stroke:#000000;" x="184.195623" xlink:href="#med57bb06a8" y="200.96131"/>
     <use style="stroke:#000000;" x="186.247192" xlink:href="#med57bb06a8" y="201.053133"/>
     <use style="stroke:#000000;" x="188.298761" xlink:href="#med57bb06a8" y="201.145068"/>
     <use style="stroke:#000000;" x="190.350331" xlink:href="#med57bb06a8" y="201.237104"/>
     <use style="stroke:#000000;" x="192.4019" xlink:href="#med57bb06a8" y="201.329232"/>
     <use style="stroke:#000000;" x="193.894904" xlink:href="#med57bb06a8" y="201.396342"/>
     <use style="stroke:#000000;" x="195.388209" xlink:href="#med57bb06a8" y="201.463491"/>
     <use style="stroke:#000000;" x="196.881514" xlink:href="#med57bb06a8" y="201.530674"/>
     <use style="stroke:#000000;" x="198.374819" xlink:href="#med57bb06a8" y="201.597889"/>
     <use style="stroke:#000000;" x="199.868123" xlink:href="#med57bb06a8" y="201.66513"/>
     <use style="stroke:#000000;" x="201.361428" xlink:href="#med57bb06a8" y="201.732395"/>
     <use style="stroke:#000000;" x="202.854733" xlink:href="#med57bb06a8" y="201.799679"/>
     <use style="stroke:#000000;" x="204.348038" xlink:href="#med57bb06a8" y="201.866979"/>
     <use style="stroke:#000000;" x="205.841342" xlink:href="#med57bb06a8" y="201.93429"/>
     <use style="stroke:#000000;" x="207.334347" xlink:href="#med57bb06a8" y="202.001609"/>
     <use style="stroke:#000000;" x="208.827652" xlink:href="#med57bb06a8" y="202.068933"/>
     <use style="stroke:#000000;" x="210.320957" xlink:href="#med57bb06a8" y="202.136258"/>
     <use style="stroke:#000000;" x="211.814261" xlink:href="#med57bb06a8" y="202.203579"/>
     <use style="stroke:#000000;" x="213.307566" xlink:href="#med57bb06a8" y="202.270894"/>
     <use style="stroke:#000000;" x="214.800871" xlink:href="#med57bb06a8" y="202.338199"/>
     <use style="stroke:#000000;" x="216.294175" xlink:href="#med57bb06a8" y="202.405491"/>
     <use style="stroke:#000000;" x="217.78748" xlink:href="#med57bb06a8" y="202.472766"/>
     <use style="stroke:#000000;" x="219.280785" xlink:href="#med57bb06a8" y="202.54002"/>
     <use style="stroke:#000000;" x="220.77379" xlink:href="#med57bb06a8" y="202.60725"/>
     <use style="stroke:#000000;" x="223.094742" xlink:href="#med57bb06a8" y="202.711678"/>
     <use style="stroke:#000000;" x="225.415394" xlink:href="#med57bb06a8" y="202.816027"/>
     <use style="stroke:#000000;" x="227.736046" xlink:href="#med57bb06a8" y="202.920286"/>
     <use style="stroke:#000000;" x="230.056697" xlink:href="#med57bb06a8" y="203.024442"/>
     <use style="stroke:#000000;" x="232.377349" xlink:href="#med57bb06a8" y="203.128482"/>
     <use style="stroke:#000000;" x="234.698301" xlink:href="#med57bb06a8" y="203.232397"/>
     <use style="stroke:#000000;" x="237.018953" xlink:href="#med57bb06a8" y="203.336173"/>
     <use style="stroke:#000000;" x="239.339605" xlink:href="#med57bb06a8" y="203.439799"/>
     <use style="stroke:#000000;" x="241.660257" xlink:href="#med57bb06a8" y="203.543265"/>
     <use style="stroke:#000000;" x="243.981209" xlink:href="#med57bb06a8" y="203.646559"/>
     <use style="stroke:#000000;" x="246.301861" xlink:href="#med57bb06a8" y="203.749671"/>
     <use style="stroke:#000000;" x="248.622513" xlink:href="#med57bb06a8" y="203.852589"/>
     <use style="stroke:#000000;" x="250.943165" xlink:href="#med57bb06a8" y="203.955303"/>
     <use style="stroke:#000000;" x="253.263817" xlink:href="#med57bb06a8" y="204.057804"/>
     <use style="stroke:#000000;" x="255.584769" xlink:href="#med57bb06a8" y="204.16008"/>
     <use style="stroke:#000000;" x="257.905421" xlink:href="#med57bb06a8" y="204.262122"/>
     <use style="stroke:#000000;" x="259.505219" xlink:href="#med57bb06a8" y="204.332332"/>
     <use style="stroke:#000000;" x="261.105317" xlink:href="#med57bb06a8" y="204.402423"/>
     <use style="stroke:#000000;" x="262.705415" xlink:href="#med57bb06a8" y="204.472392"/>
     <use style="stroke:#000000;" x="264.305213" xlink:href="#med57bb06a8" y="204.542235"/>
     <use style="stroke:#000000;" x="265.905311" xlink:href="#med57bb06a8" y="204.611951"/>
     <use style="stroke:#000000;" x="267.505108" xlink:href="#med57bb06a8" y="204.681535"/>
     <use style="stroke:#000000;" x="269.105206" xlink:href="#med57bb06a8" y="204.750985"/>
     <use style="stroke:#000000;" x="270.705004" xlink:href="#med57bb06a8" y="204.820298"/>
     <use style="stroke:#000000;" x="272.305102" xlink:href="#med57bb06a8" y="204.889472"/>
     <use style="stroke:#000000;" x="273.9052" xlink:href="#med57bb06a8" y="204.958502"/>
     <use style="stroke:#000000;" x="275.504998" xlink:href="#med57bb06a8" y="205.027387"/>
     <use style="stroke:#000000;" x="277.105096" xlink:href="#med57bb06a8" y="205.096124"/>
     <use style="stroke:#000000;" x="278.704894" xlink:href="#med57bb06a8" y="205.16471"/>
     <use style="stroke:#000000;" x="280.304992" xlink:href="#med57bb06a8" y="205.233143"/>
     <use style="stroke:#000000;" x="281.90479" xlink:href="#med57bb06a8" y="205.301419"/>
     <use style="stroke:#000000;" x="283.504888" xlink:href="#med57bb06a8" y="205.369536"/>
     <use style="stroke:#000000;" x="285.104986" xlink:href="#med57bb06a8" y="205.437492"/>
     <use style="stroke:#000000;" x="286.704784" xlink:href="#med57bb06a8" y="205.505284"/>
     <use style="stroke:#000000;" x="288.304882" xlink:href="#med57bb06a8" y="205.572909"/>
     <use style="stroke:#000000;" x="289.90468" xlink:href="#med57bb06a8" y="205.640366"/>
     <use style="stroke:#000000;" x="291.504777" xlink:href="#med57bb06a8" y="205.707651"/>
     <use style="stroke:#000000;" x="293.104875" xlink:href="#med57bb06a8" y="205.774763"/>
     <use style="stroke:#000000;" x="294.704673" xlink:href="#med57bb06a8" y="205.841699"/>
     <use style="stroke:#000000;" x="296.304771" xlink:href="#med57bb06a8" y="205.908457"/>
     <use style="stroke:#000000;" x="297.904569" xlink:href="#med57bb06a8" y="205.975034"/>
     <use style="stroke:#000000;" x="299.504667" xlink:href="#med57bb06a8" y="206.041429"/>
     <use style="stroke:#000000;" x="301.104465" xlink:href="#med57bb06a8" y="206.107639"/>
     <use style="stroke:#000000;" x="302.704563" xlink:href="#med57bb06a8" y="206.173661"/>
     <use style="stroke:#000000;" x="304.304661" xlink:href="#med57bb06a8" y="206.239495"/>
     <use style="stroke:#000000;" x="305.904459" xlink:href="#med57bb06a8" y="206.305137"/>
     <use style="stroke:#000000;" x="307.504557" xlink:href="#med57bb06a8" y="206.370586"/>
     <use style="stroke:#000000;" x="309.104355" xlink:href="#med57bb06a8" y="206.43584"/>
     <use style="stroke:#000000;" x="310.704453" xlink:href="#med57bb06a8" y="206.500897"/>
     <use style="stroke:#000000;" x="312.304551" xlink:href="#med57bb06a8" y="206.565754"/>
     <use style="stroke:#000000;" x="313.904348" xlink:href="#med57bb06a8" y="206.630411"/>
     <use style="stroke:#000000;" x="316.467985" xlink:href="#med57bb06a8" y="206.73358"/>
     <use style="stroke:#000000;" x="319.031321" xlink:href="#med57bb06a8" y="206.83622"/>
     <use style="stroke:#000000;" x="321.594658" xlink:href="#med57bb06a8" y="206.938326"/>
     <use style="stroke:#000000;" x="324.158294" xlink:href="#med57bb06a8" y="207.039888"/>
     <use style="stroke:#000000;" x="326.721631" xlink:href="#med57bb06a8" y="207.140902"/>
     <use style="stroke:#000000;" x="329.285267" xlink:href="#med57bb06a8" y="207.241359"/>
     <use style="stroke:#000000;" x="331.848604" xlink:href="#med57bb06a8" y="207.341255"/>
     <use style="stroke:#000000;" x="334.41224" xlink:href="#med57bb06a8" y="207.440583"/>
     <use style="stroke:#000000;" x="336.975577" xlink:href="#med57bb06a8" y="207.539336"/>
     <use style="stroke:#000000;" x="339.539213" xlink:href="#med57bb06a8" y="207.63751"/>
     <use style="stroke:#000000;" x="342.10255" xlink:href="#med57bb06a8" y="207.735099"/>
     <use style="stroke:#000000;" x="344.666186" xlink:href="#med57bb06a8" y="207.832097"/>
     <use style="stroke:#000000;" x="347.229523" xlink:href="#med57bb06a8" y="207.9285"/>
     <use style="stroke:#000000;" x="349.793159" xlink:href="#med57bb06a8" y="208.024303"/>
     <use style="stroke:#000000;" x="352.356495" xlink:href="#med57bb06a8" y="208.119502"/>
     <use style="stroke:#000000;" x="354.919832" xlink:href="#med57bb06a8" y="208.214091"/>
     <use style="stroke:#000000;" x="357.483468" xlink:href="#med57bb06a8" y="208.308068"/>
     <use style="stroke:#000000;" x="360.046805" xlink:href="#med57bb06a8" y="208.401427"/>
     <use style="stroke:#000000;" x="362.610441" xlink:href="#med57bb06a8" y="208.494166"/>
    </g>
   </g>
   <g id="line2d_15">
    <path clip-path="url(#p9d920d00f2)" d="M 62.183807 229.874489 
L 62.693774 152.075548 
L 63.170744 108.824793 
L 63.602716 86.622608 
L 63.986692 76.08328 
L 64.32267 71.628524 
L 64.610652 70.187029 
L 64.79964 70.088652 
L 64.991628 70.486131 
L 65.303608 71.883674 
L 65.873571 75.749615 
L 67.673457 88.655529 
L 68.543401 93.27324 
L 69.413346 96.825478 
L 70.373284 99.789721 
L 71.303225 101.966613 
L 72.293162 103.762671 
L 73.433089 105.385654 
L 74.842999 106.982948 
L 76.582888 108.613017 
L 79.552699 111.057036 
L 85.882295 116.220256 
L 91.13196 120.818162 
L 99.274641 128.299335 
L 110.336435 138.433079 
L 116.780324 144.04373 
L 122.059687 148.377144 
L 127.33905 152.421045 
L 132.652611 156.178319 
L 138.00097 159.665197 
L 143.349029 162.908497 
L 150.034102 166.697879 
L 157.525825 170.658827 
L 163.680232 173.689065 
L 169.834939 176.49196 
L 175.989647 179.037664 
L 182.144054 181.295563 
L 188.298761 183.25045 
L 193.894904 184.76088 
L 199.868123 186.106983 
L 205.841342 187.20558 
L 211.814261 188.09769 
L 219.280785 188.985102 
L 227.736046 189.766862 
L 239.339605 190.583976 
L 253.263817 191.328963 
L 273.9052 192.181346 
L 302.704563 193.125468 
L 342.10255 194.183924 
L 362.610441 194.646712 
L 362.610441 194.646712 
" style="fill:none;stroke:#0000ff;stroke-dasharray:5.55,2.4;stroke-dashoffset:0;stroke-width:1.5;"/>
   </g>
   <g id="line2d_16">
    <path clip-path="url(#p9d920d00f2)" d="M 62.183807 229.874489 
L 62.723772 174.277101 
L 63.23674 142.249664 
L 63.69871 125.602754 
L 64.130683 117.222339 
L 64.514658 113.707881 
L 64.79964 112.721414 
L 64.991628 112.603234 
L 65.159617 112.772449 
L 65.453598 113.516768 
L 65.963566 115.6173 
L 68.213422 125.841882 
L 69.203359 128.969101 
L 70.163298 131.257489 
L 71.153235 133.043007 
L 72.143171 134.406867 
L 73.283099 135.60892 
L 74.603015 136.664345 
L 76.072921 137.563676 
L 78.082793 138.516537 
L 81.052603 139.642733 
L 92.870349 143.862154 
L 98.692378 146.27558 
L 105.096669 149.181817 
L 112.380805 152.747745 
L 119.419855 156.433338 
L 126.459206 160.358488 
L 135.326941 165.576236 
L 146.023058 171.829634 
L 151.371117 174.726081 
L 157.525825 177.764587 
L 163.680232 180.452762 
L 169.834939 182.794889 
L 175.989647 184.818783 
L 182.144054 186.570838 
L 188.298761 188.101903 
L 196.881514 189.957442 
L 205.841342 191.628152 
L 214.800871 193.065339 
L 223.094742 194.200841 
L 232.377349 195.267849 
L 243.981209 196.342391 
L 255.584769 197.190472 
L 270.705004 198.050348 
L 288.304882 198.81859 
L 312.304551 199.625586 
L 344.666186 200.474995 
L 362.610441 200.891373 
L 362.610441 200.891373 
" style="fill:none;stroke:#0000ff;stroke-dasharray:5.55,2.4;stroke-dashoffset:0;stroke-width:1.5;"/>
   </g>
   <g id="line2d_17">
    <path clip-path="url(#p9d920d00f2)" d="M 62.183807 229.874489 
L 62.693774 132.495215 
L 63.170744 79.194253 
L 63.602716 52.075338 
L 63.986692 39.301563 
L 64.32267 33.962159 
L 64.610652 32.31043 
L 64.754643 32.215005 
L 64.895634 32.486772 
L 65.159617 33.73878 
L 65.663585 37.823145 
L 68.543401 64.524886 
L 69.533338 70.76152 
L 70.493277 75.569378 
L 71.633204 80.112282 
L 72.773131 83.761159 
L 74.093047 87.230004 
L 75.592951 90.521854 
L 77.33284 93.796077 
L 79.552699 97.47495 
L 82.402517 101.757054 
L 86.452259 107.423851 
L 91.701924 114.368937 
L 96.945889 120.929937 
L 101.603392 126.421341 
L 106.260895 131.577351 
L 110.918698 136.392277 
L 115.020336 140.356089 
L 119.419855 144.331293 
L 123.819375 148.037851 
L 128.218894 151.495476 
L 132.652611 154.749954 
L 138.00097 158.401651 
L 143.349029 161.78981 
L 148.697088 164.944715 
L 153.422686 167.55642 
L 159.577394 170.724006 
L 165.731801 173.63144 
L 171.886508 176.278885 
L 178.040916 178.664216 
L 184.195623 180.789147 
L 190.350331 182.662293 
L 196.881514 184.390243 
L 202.854733 185.755926 
L 210.320957 187.208238 
L 217.78748 188.42045 
L 225.415394 189.455476 
L 234.698301 190.494815 
L 246.301861 191.539535 
L 259.505219 192.483817 
L 275.504998 193.390143 
L 296.304771 194.317643 
L 321.594658 195.210851 
L 354.919832 196.153869 
L 362.610441 196.332286 
L 362.610441 196.332286 
" style="fill:none;stroke:#ff0000;stroke-dasharray:5.55,2.4;stroke-dashoffset:0;stroke-width:1.5;"/>
   </g>
   <g id="line2d_18">
    <path clip-path="url(#p9d920d00f2)" d="M 62.183807 229.874489 
L 62.693774 163.326254 
L 63.203742 122.809696 
L 63.650713 102.138639 
L 64.082686 91.167478 
L 64.466661 86.474269 
L 64.754643 85.06717 
L 64.943631 84.863152 
L 65.087622 84.993318 
L 65.363604 85.779388 
L 65.813575 88.056807 
L 66.803512 94.649706 
L 68.123428 102.848947 
L 69.083367 107.556206 
L 70.073304 111.403387 
L 71.153235 114.698737 
L 72.293162 117.428622 
L 73.433089 119.612276 
L 74.603015 121.450883 
L 76.072921 123.356395 
L 77.692817 125.107501 
L 79.942674 127.161618 
L 82.402517 129.120135 
L 86.452259 132.045321 
L 103.349881 143.691665 
L 121.179543 155.906525 
L 129.978582 161.688492 
L 138.00097 166.690335 
L 144.686044 170.578421 
L 150.034102 173.462135 
L 155.474255 176.165033 
L 161.628663 178.932005 
L 167.78337 181.394034 
L 173.938078 183.569775 
L 180.092485 185.486753 
L 186.247192 187.17709 
L 193.894904 189.009828 
L 201.361428 190.560106 
L 210.320957 192.165716 
L 219.280785 193.539521 
L 230.056697 194.938755 
L 241.660257 196.189939 
L 253.263817 197.227519 
L 267.505108 198.273079 
L 283.504888 199.221374 
L 302.704563 200.13269 
L 326.721631 201.034718 
L 357.483468 201.941238 
L 362.610441 202.083937 
L 362.610441 202.083937 
" style="fill:none;stroke:#ff0000;stroke-dasharray:5.55,2.4;stroke-dashoffset:0;stroke-width:1.5;"/>
   </g>
   <g id="line2d_19"/>
   <g id="line2d_20"/>
   <g id="line2d_21"/>
   <g id="line2d_22"/>
   <g id="line2d_23"/>
   <g id="line2d_24"/>
   <g id="patch_3">
    <path d="M 46.965625 239.758125 
L 46.965625 22.318125 
" style="fill:none;stroke:#000000;stroke-linecap:square;stroke-linejoin:miter;stroke-width:0.8;"/>
   </g>
   <g id="patch_4">
    <path d="M 381.765625 239.758125 
L 381.765625 22.318125 
" style="fill:none;stroke:#000000;stroke-linecap:square;stroke-linejoin:miter;stroke-width:0.8;"/>
   </g>
   <g id="patch_5">
    <path d="M 46.965625 239.758125 
L 381.765625 239.758125 
" style="fill:none;stroke:#000000;stroke-linecap:square;stroke-linejoin:miter;stroke-width:0.8;"/>
   </g>
   <g id="patch_6">
    <path d="M 46.965625 22.318125 
L 381.765625 22.318125 
" style="fill:none;stroke:#000000;stroke-linecap:square;stroke-linejoin:miter;stroke-width:0.8;"/>
   </g>
   <g id="text_14">
    <!-- Experiment_11 -->
    <defs>
     <path d="M 9.8125 72.90625 
L 55.90625 72.90625 
L 55.90625 64.59375 
L 19.671875 64.59375 
L 19.671875 43.015625 
L 54.390625 43.015625 
L 54.390625 34.71875 
L 19.671875 34.71875 
L 19.671875 8.296875 
L 56.78125 8.296875 
L 56.78125 0 
L 9.8125 0 
z
" id="DejaVuSans-69"/>
     <path d="M 54.890625 54.6875 
L 35.109375 28.078125 
L 55.90625 0 
L 45.3125 0 
L 29.390625 21.484375 
L 13.484375 0 
L 2.875 0 
L 24.125 28.609375 
L 4.6875 54.6875 
L 15.28125 54.6875 
L 29.78125 35.203125 
L 44.28125 54.6875 
z
" id="DejaVuSans-120"/>
     <path d="M 41.109375 46.296875 
Q 39.59375 47.171875 37.8125 47.578125 
Q 36.03125 48 33.890625 48 
Q 26.265625 48 22.1875 43.046875 
Q 18.109375 38.09375 18.109375 28.8125 
L 18.109375 0 
L 9.078125 0 
L 9.078125 54.6875 
L 18.109375 54.6875 
L 18.109375 46.1875 
Q 20.953125 51.171875 25.484375 53.578125 
Q 30.03125 56 36.53125 56 
Q 37.453125 56 38.578125 55.875 
Q 39.703125 55.765625 41.0625 55.515625 
z
" id="DejaVuSans-114"/>
     <path d="M 54.890625 33.015625 
L 54.890625 0 
L 45.90625 0 
L 45.90625 32.71875 
Q 45.90625 40.484375 42.875 44.328125 
Q 39.84375 48.1875 33.796875 48.1875 
Q 26.515625 48.1875 22.3125 43.546875 
Q 18.109375 38.921875 18.109375 30.90625 
L 18.109375 0 
L 9.078125 0 
L 9.078125 54.6875 
L 18.109375 54.6875 
L 18.109375 46.1875 
Q 21.34375 51.125 25.703125 53.5625 
Q 30.078125 56 35.796875 56 
Q 45.21875 56 50.046875 50.171875 
Q 54.890625 44.34375 54.890625 33.015625 
z
" id="DejaVuSans-110"/>
     <path d="M 18.3125 70.21875 
L 18.3125 54.6875 
L 36.8125 54.6875 
L 36.8125 47.703125 
L 18.3125 47.703125 
L 18.3125 18.015625 
Q 18.3125 11.328125 20.140625 9.421875 
Q 21.96875 7.515625 27.59375 7.515625 
L 36.8125 7.515625 
L 36.8125 0 
L 27.59375 0 
Q 17.1875 0 13.234375 3.875 
Q 9.28125 7.765625 9.28125 18.015625 
L 9.28125 47.703125 
L 2.6875 47.703125 
L 2.6875 54.6875 
L 9.28125 54.6875 
L 9.28125 70.21875 
z
" id="DejaVuSans-116"/>
     <path d="M 50.984375 -16.609375 
L 50.984375 -23.578125 
L -0.984375 -23.578125 
L -0.984375 -16.609375 
z
" id="DejaVuSans-95"/>
    </defs>
    <g transform="translate(169.062813 16.318125)scale(0.12 -0.12)">
     <use xlink:href="#DejaVuSans-69"/>
     <use x="63.183594" xlink:href="#DejaVuSans-120"/>
     <use x="122.363281" xlink:href="#DejaVuSans-112"/>
     <use x="185.839844" xlink:href="#DejaVuSans-101"/>
     <use x="247.363281" xlink:href="#DejaVuSans-114"/>
     <use x="288.476562" xlink:href="#DejaVuSans-105"/>
     <use x="316.259766" xlink:href="#DejaVuSans-109"/>
     <use x="413.671875" xlink:href="#DejaVuSans-101"/>
     <use x="475.195312" xlink:href="#DejaVuSans-110"/>
     <use x="538.574219" xlink:href="#DejaVuSans-116"/>
     <use x="577.783203" xlink:href="#DejaVuSans-95"/>
     <use x="627.783203" xlink:href="#DejaVuSans-49"/>
     <use x="691.40625" xlink:href="#DejaVuSans-49"/>
    </g>
   </g>
   <g id="legend_1">
    <g id="patch_7">
     <path d="M 118.645313 103.730625 
L 374.765625 103.730625 
Q 376.765625 103.730625 376.765625 101.730625 
L 376.765625 29.318125 
Q 376.765625 27.318125 374.765625 27.318125 
L 118.645313 27.318125 
Q 116.645313 27.318125 116.645313 29.318125 
L 116.645313 101.730625 
Q 116.645313 103.730625 118.645313 103.730625 
z
" style="fill:#ffffff;opacity:0.8;stroke:#cccccc;stroke-linejoin:miter;"/>
    </g>
    <g id="line2d_25">
     <path d="M 120.645313 35.416562 
L 140.645313 35.416562 
" style="fill:none;stroke:#0000ff;stroke-linecap:square;stroke-width:1.5;"/>
    </g>
    <g id="line2d_26"/>
    <g id="text_15">
     <!-- MSI -->
     <defs>
      <path d="M 9.8125 72.90625 
L 24.515625 72.90625 
L 43.109375 23.296875 
L 61.8125 72.90625 
L 76.515625 72.90625 
L 76.515625 0 
L 66.890625 0 
L 66.890625 64.015625 
L 48.09375 14.015625 
L 38.1875 14.015625 
L 19.390625 64.015625 
L 19.390625 0 
L 9.8125 0 
z
" id="DejaVuSans-77"/>
      <path d="M 53.515625 70.515625 
L 53.515625 60.890625 
Q 47.90625 63.578125 42.921875 64.890625 
Q 37.9375 66.21875 33.296875 66.21875 
Q 25.25 66.21875 20.875 63.09375 
Q 16.5 59.96875 16.5 54.203125 
Q 16.5 49.359375 19.40625 46.890625 
Q 22.3125 44.4375 30.421875 42.921875 
L 36.375 41.703125 
Q 47.40625 39.59375 52.65625 34.296875 
Q 57.90625 29 57.90625 20.125 
Q 57.90625 9.515625 50.796875 4.046875 
Q 43.703125 -1.421875 29.984375 -1.421875 
Q 24.8125 -1.421875 18.96875 -0.25 
Q 13.140625 0.921875 6.890625 3.21875 
L 6.890625 13.375 
Q 12.890625 10.015625 18.65625 8.296875 
Q 24.421875 6.59375 29.984375 6.59375 
Q 38.421875 6.59375 43.015625 9.90625 
Q 47.609375 13.234375 47.609375 19.390625 
Q 47.609375 24.75 44.3125 27.78125 
Q 41.015625 30.8125 33.5 32.328125 
L 27.484375 33.5 
Q 16.453125 35.6875 11.515625 40.375 
Q 6.59375 45.0625 6.59375 53.421875 
Q 6.59375 63.09375 13.40625 68.65625 
Q 20.21875 74.21875 32.171875 74.21875 
Q 37.3125 74.21875 42.625 73.28125 
Q 47.953125 72.359375 53.515625 70.515625 
z
" id="DejaVuSans-83"/>
      <path d="M 9.8125 72.90625 
L 19.671875 72.90625 
L 19.671875 0 
L 9.8125 0 
z
" id="DejaVuSans-73"/>
     </defs>
     <g transform="translate(148.645313 38.916562)scale(0.1 -0.1)">
      <use xlink:href="#DejaVuSans-77"/>
      <use x="86.279297" xlink:href="#DejaVuSans-83"/>
      <use x="149.755859" xlink:href="#DejaVuSans-73"/>
     </g>
    </g>
    <g id="line2d_27">
     <path d="M 120.645313 50.09625 
L 140.645313 50.09625 
" style="fill:none;stroke:#ff0000;stroke-linecap:square;stroke-width:1.5;"/>
    </g>
    <g id="line2d_28"/>
    <g id="text_16">
     <!-- $\it{A priori}$ model -->
     <defs>
      <path d="M 36.8125 72.90625 
L 48 72.90625 
L 61.53125 0 
L 51.21875 0 
L 48.1875 18.703125 
L 15.375 18.703125 
L 5.078125 0 
L -5.328125 0 
z
M 40.375 63.1875 
L 19.921875 26.90625 
L 46.6875 26.90625 
z
" id="DejaVuSans-Oblique-65"/>
      <path d="M 49.609375 33.6875 
Q 49.609375 40.875 46.484375 44.671875 
Q 43.359375 48.484375 37.5 48.484375 
Q 33.5 48.484375 29.859375 46.4375 
Q 26.21875 44.390625 23.390625 40.484375 
Q 20.609375 36.625 18.9375 31.15625 
Q 17.28125 25.6875 17.28125 20.3125 
Q 17.28125 13.484375 20.40625 9.796875 
Q 23.53125 6.109375 29.296875 6.109375 
Q 33.546875 6.109375 37.1875 8.109375 
Q 40.828125 10.109375 43.40625 13.921875 
Q 46.1875 17.921875 47.890625 23.34375 
Q 49.609375 28.765625 49.609375 33.6875 
z
M 21.78125 46.390625 
Q 25.390625 51.125 30.296875 53.5625 
Q 35.203125 56 41.21875 56 
Q 49.609375 56 54.25 50.5 
Q 58.890625 45.015625 58.890625 35.109375 
Q 58.890625 27 56 19.65625 
Q 53.125 12.3125 47.703125 6.5 
Q 44.09375 2.640625 39.546875 0.609375 
Q 35.015625 -1.421875 29.984375 -1.421875 
Q 24.171875 -1.421875 20.21875 1 
Q 16.265625 3.421875 14.3125 8.203125 
L 8.6875 -20.796875 
L -0.296875 -20.796875 
L 14.40625 54.6875 
L 23.390625 54.6875 
z
" id="DejaVuSans-Oblique-112"/>
      <path d="M 44.578125 46.390625 
Q 43.21875 47.125 41.453125 47.515625 
Q 39.703125 47.90625 37.703125 47.90625 
Q 30.515625 47.90625 25.140625 42.453125 
Q 19.78125 37.015625 18.015625 27.875 
L 12.5 0 
L 3.515625 0 
L 14.203125 54.6875 
L 23.1875 54.6875 
L 21.484375 46.1875 
Q 25.046875 50.921875 30 53.453125 
Q 34.96875 56 40.578125 56 
Q 42.046875 56 43.453125 55.828125 
Q 44.875 55.671875 46.296875 55.28125 
z
" id="DejaVuSans-Oblique-114"/>
      <path d="M 18.3125 75.984375 
L 27.296875 75.984375 
L 25.09375 64.59375 
L 16.109375 64.59375 
z
M 14.203125 54.6875 
L 23.1875 54.6875 
L 12.5 0 
L 3.515625 0 
z
" id="DejaVuSans-Oblique-105"/>
      <path d="M 25.390625 -1.421875 
Q 15.765625 -1.421875 10.171875 4.515625 
Q 4.59375 10.453125 4.59375 20.703125 
Q 4.59375 26.65625 6.515625 32.828125 
Q 8.453125 39.015625 11.53125 43.21875 
Q 16.359375 49.75 22.3125 52.875 
Q 28.265625 56 35.796875 56 
Q 45.125 56 50.859375 50.1875 
Q 56.59375 44.390625 56.59375 35.015625 
Q 56.59375 28.515625 54.6875 22.0625 
Q 52.78125 15.625 49.703125 11.375 
Q 44.921875 4.828125 38.96875 1.703125 
Q 33.015625 -1.421875 25.390625 -1.421875 
z
M 13.921875 21 
Q 13.921875 13.578125 17.015625 9.890625 
Q 20.125 6.203125 26.421875 6.203125 
Q 35.453125 6.203125 41.375 14.078125 
Q 47.3125 21.96875 47.3125 34.078125 
Q 47.3125 41.15625 44.140625 44.765625 
Q 40.96875 48.390625 34.8125 48.390625 
Q 29.734375 48.390625 25.78125 46.015625 
Q 21.828125 43.65625 18.703125 38.8125 
Q 16.40625 35.203125 15.15625 30.5625 
Q 13.921875 25.921875 13.921875 21 
z
" id="DejaVuSans-Oblique-111"/>
      <path d="M 30.609375 48.390625 
Q 23.390625 48.390625 19.1875 42.75 
Q 14.984375 37.109375 14.984375 27.296875 
Q 14.984375 17.484375 19.15625 11.84375 
Q 23.34375 6.203125 30.609375 6.203125 
Q 37.796875 6.203125 41.984375 11.859375 
Q 46.1875 17.53125 46.1875 27.296875 
Q 46.1875 37.015625 41.984375 42.703125 
Q 37.796875 48.390625 30.609375 48.390625 
z
M 30.609375 56 
Q 42.328125 56 49.015625 48.375 
Q 55.71875 40.765625 55.71875 27.296875 
Q 55.71875 13.875 49.015625 6.21875 
Q 42.328125 -1.421875 30.609375 -1.421875 
Q 18.84375 -1.421875 12.171875 6.21875 
Q 5.515625 13.875 5.515625 27.296875 
Q 5.515625 40.765625 12.171875 48.375 
Q 18.84375 56 30.609375 56 
z
" id="DejaVuSans-111"/>
      <path d="M 45.40625 46.390625 
L 45.40625 75.984375 
L 54.390625 75.984375 
L 54.390625 0 
L 45.40625 0 
L 45.40625 8.203125 
Q 42.578125 3.328125 38.25 0.953125 
Q 33.9375 -1.421875 27.875 -1.421875 
Q 17.96875 -1.421875 11.734375 6.484375 
Q 5.515625 14.40625 5.515625 27.296875 
Q 5.515625 40.1875 11.734375 48.09375 
Q 17.96875 56 27.875 56 
Q 33.9375 56 38.25 53.625 
Q 42.578125 51.265625 45.40625 46.390625 
z
M 14.796875 27.296875 
Q 14.796875 17.390625 18.875 11.75 
Q 22.953125 6.109375 30.078125 6.109375 
Q 37.203125 6.109375 41.296875 11.75 
Q 45.40625 17.390625 45.40625 27.296875 
Q 45.40625 37.203125 41.296875 42.84375 
Q 37.203125 48.484375 30.078125 48.484375 
Q 22.953125 48.484375 18.875 42.84375 
Q 14.796875 37.203125 14.796875 27.296875 
z
" id="DejaVuSans-100"/>
      <path d="M 9.421875 75.984375 
L 18.40625 75.984375 
L 18.40625 0 
L 9.421875 0 
z
" id="DejaVuSans-108"/>
     </defs>
     <g transform="translate(148.645313 53.59625)scale(0.1 -0.1)">
      <use transform="translate(0 0.015625)" xlink:href="#DejaVuSans-Oblique-65"/>
      <use transform="translate(68.408203 0.015625)" xlink:href="#DejaVuSans-Oblique-112"/>
      <use transform="translate(131.884766 0.015625)" xlink:href="#DejaVuSans-Oblique-114"/>
      <use transform="translate(172.998047 0.015625)" xlink:href="#DejaVuSans-Oblique-105"/>
      <use transform="translate(200.78125 0.015625)" xlink:href="#DejaVuSans-Oblique-111"/>
      <use transform="translate(261.962891 0.015625)" xlink:href="#DejaVuSans-Oblique-114"/>
      <use transform="translate(303.076172 0.015625)" xlink:href="#DejaVuSans-Oblique-105"/>
      <use transform="translate(330.859375 0.015625)" xlink:href="#DejaVuSans-32"/>
      <use transform="translate(362.646484 0.015625)" xlink:href="#DejaVuSans-109"/>
      <use transform="translate(460.058594 0.015625)" xlink:href="#DejaVuSans-111"/>
      <use transform="translate(521.240234 0.015625)" xlink:href="#DejaVuSans-100"/>
      <use transform="translate(584.716797 0.015625)" xlink:href="#DejaVuSans-101"/>
      <use transform="translate(646.240234 0.015625)" xlink:href="#DejaVuSans-108"/>
     </g>
    </g>
    <g id="line2d_29"/>
    <g id="line2d_30">
     <g>
      <use style="stroke:#000000;" x="130.645313" xlink:href="#med57bb06a8" y="64.794688"/>
     </g>
    </g>
    <g id="text_17">
     <!-- Experimental Data -->
     <defs>
      <path d="M 34.28125 27.484375 
Q 23.390625 27.484375 19.1875 25 
Q 14.984375 22.515625 14.984375 16.5 
Q 14.984375 11.71875 18.140625 8.90625 
Q 21.296875 6.109375 26.703125 6.109375 
Q 34.1875 6.109375 38.703125 11.40625 
Q 43.21875 16.703125 43.21875 25.484375 
L 43.21875 27.484375 
z
M 52.203125 31.203125 
L 52.203125 0 
L 43.21875 0 
L 43.21875 8.296875 
Q 40.140625 3.328125 35.546875 0.953125 
Q 30.953125 -1.421875 24.3125 -1.421875 
Q 15.921875 -1.421875 10.953125 3.296875 
Q 6 8.015625 6 15.921875 
Q 6 25.140625 12.171875 29.828125 
Q 18.359375 34.515625 30.609375 34.515625 
L 43.21875 34.515625 
L 43.21875 35.40625 
Q 43.21875 41.609375 39.140625 45 
Q 35.0625 48.390625 27.6875 48.390625 
Q 23 48.390625 18.546875 47.265625 
Q 14.109375 46.140625 10.015625 43.890625 
L 10.015625 52.203125 
Q 14.9375 54.109375 19.578125 55.046875 
Q 24.21875 56 28.609375 56 
Q 40.484375 56 46.34375 49.84375 
Q 52.203125 43.703125 52.203125 31.203125 
z
" id="DejaVuSans-97"/>
      <path d="M 19.671875 64.796875 
L 19.671875 8.109375 
L 31.59375 8.109375 
Q 46.6875 8.109375 53.6875 14.9375 
Q 60.6875 21.78125 60.6875 36.53125 
Q 60.6875 51.171875 53.6875 57.984375 
Q 46.6875 64.796875 31.59375 64.796875 
z
M 9.8125 72.90625 
L 30.078125 72.90625 
Q 51.265625 72.90625 61.171875 64.09375 
Q 71.09375 55.28125 71.09375 36.53125 
Q 71.09375 17.671875 61.125 8.828125 
Q 51.171875 0 30.078125 0 
L 9.8125 0 
z
" id="DejaVuSans-68"/>
     </defs>
     <g transform="translate(148.645313 68.294688)scale(0.1 -0.1)">
      <use xlink:href="#DejaVuSans-69"/>
      <use x="63.183594" xlink:href="#DejaVuSans-120"/>
      <use x="122.363281" xlink:href="#DejaVuSans-112"/>
      <use x="185.839844" xlink:href="#DejaVuSans-101"/>
      <use x="247.363281" xlink:href="#DejaVuSans-114"/>
      <use x="288.476562" xlink:href="#DejaVuSans-105"/>
      <use x="316.259766" xlink:href="#DejaVuSans-109"/>
      <use x="413.671875" xlink:href="#DejaVuSans-101"/>
      <use x="475.195312" xlink:href="#DejaVuSans-110"/>
      <use x="538.574219" xlink:href="#DejaVuSans-116"/>
      <use x="577.783203" xlink:href="#DejaVuSans-97"/>
      <use x="639.0625" xlink:href="#DejaVuSans-108"/>
      <use x="666.845703" xlink:href="#DejaVuSans-32"/>
      <use x="698.632812" xlink:href="#DejaVuSans-68"/>
      <use x="775.634766" xlink:href="#DejaVuSans-97"/>
      <use x="836.914062" xlink:href="#DejaVuSans-116"/>
      <use x="876.123047" xlink:href="#DejaVuSans-97"/>
     </g>
    </g>
    <g id="line2d_31">
     <path d="M 120.645313 79.472813 
L 140.645313 79.472813 
" style="fill:none;stroke:#ffffff;stroke-linecap:square;stroke-width:1.5;"/>
    </g>
    <g id="line2d_32"/>
    <g id="text_18">
     <!-- T:1283 -->
     <defs>
      <path d="M 11.71875 12.40625 
L 22.015625 12.40625 
L 22.015625 0 
L 11.71875 0 
z
M 11.71875 51.703125 
L 22.015625 51.703125 
L 22.015625 39.3125 
L 11.71875 39.3125 
z
" id="DejaVuSans-58"/>
      <path d="M 40.578125 39.3125 
Q 47.65625 37.796875 51.625 33 
Q 55.609375 28.21875 55.609375 21.1875 
Q 55.609375 10.40625 48.1875 4.484375 
Q 40.765625 -1.421875 27.09375 -1.421875 
Q 22.515625 -1.421875 17.65625 -0.515625 
Q 12.796875 0.390625 7.625 2.203125 
L 7.625 11.71875 
Q 11.71875 9.328125 16.59375 8.109375 
Q 21.484375 6.890625 26.8125 6.890625 
Q 36.078125 6.890625 40.9375 10.546875 
Q 45.796875 14.203125 45.796875 21.1875 
Q 45.796875 27.640625 41.28125 31.265625 
Q 36.765625 34.90625 28.71875 34.90625 
L 20.21875 34.90625 
L 20.21875 43.015625 
L 29.109375 43.015625 
Q 36.375 43.015625 40.234375 45.921875 
Q 44.09375 48.828125 44.09375 54.296875 
Q 44.09375 59.90625 40.109375 62.90625 
Q 36.140625 65.921875 28.71875 65.921875 
Q 24.65625 65.921875 20.015625 65.03125 
Q 15.375 64.15625 9.8125 62.3125 
L 9.8125 71.09375 
Q 15.4375 72.65625 20.34375 73.4375 
Q 25.25 74.21875 29.59375 74.21875 
Q 40.828125 74.21875 47.359375 69.109375 
Q 53.90625 64.015625 53.90625 55.328125 
Q 53.90625 49.265625 50.4375 45.09375 
Q 46.96875 40.921875 40.578125 39.3125 
z
" id="DejaVuSans-51"/>
     </defs>
     <g transform="translate(148.645313 82.972813)scale(0.1 -0.1)">
      <use xlink:href="#DejaVuSans-84"/>
      <use x="60.912109" xlink:href="#DejaVuSans-58"/>
      <use x="94.603516" xlink:href="#DejaVuSans-49"/>
      <use x="158.226562" xlink:href="#DejaVuSans-50"/>
      <use x="221.849609" xlink:href="#DejaVuSans-56"/>
      <use x="285.472656" xlink:href="#DejaVuSans-51"/>
     </g>
    </g>
    <g id="line2d_33">
     <path d="M 120.645313 94.150937 
L 140.645313 94.150937 
" style="fill:none;stroke:#ffffff;stroke-linecap:square;stroke-width:1.5;"/>
    </g>
    <g id="line2d_34"/>
    <g id="text_19">
     <!-- P:1.635 -->
     <defs>
      <path d="M 19.671875 64.796875 
L 19.671875 37.40625 
L 32.078125 37.40625 
Q 38.96875 37.40625 42.71875 40.96875 
Q 46.484375 44.53125 46.484375 51.125 
Q 46.484375 57.671875 42.71875 61.234375 
Q 38.96875 64.796875 32.078125 64.796875 
z
M 9.8125 72.90625 
L 32.078125 72.90625 
Q 44.34375 72.90625 50.609375 67.359375 
Q 56.890625 61.8125 56.890625 51.125 
Q 56.890625 40.328125 50.609375 34.8125 
Q 44.34375 29.296875 32.078125 29.296875 
L 19.671875 29.296875 
L 19.671875 0 
L 9.8125 0 
z
" id="DejaVuSans-80"/>
     </defs>
     <g transform="translate(148.645313 97.650937)scale(0.1 -0.1)">
      <use xlink:href="#DejaVuSans-80"/>
      <use x="60.302734" xlink:href="#DejaVuSans-58"/>
      <use x="93.994141" xlink:href="#DejaVuSans-49"/>
      <use x="157.617188" xlink:href="#DejaVuSans-46"/>
      <use x="189.404297" xlink:href="#DejaVuSans-54"/>
      <use x="253.027344" xlink:href="#DejaVuSans-51"/>
      <use x="316.650391" xlink:href="#DejaVuSans-53"/>
     </g>
    </g>
    <g id="line2d_35">
     <path d="M 262.385938 35.416562 
L 282.385938 35.416562 
" style="fill:none;stroke:#ffffff;stroke-linecap:square;stroke-width:1.5;"/>
    </g>
    <g id="line2d_36"/>
    <g id="text_20">
     <!-- H2O2: 0.003094 -->
     <defs>
      <path d="M 10.984375 1.515625 
L 10.984375 10.5 
Q 14.703125 8.734375 18.5 7.8125 
Q 22.3125 6.890625 25.984375 6.890625 
Q 35.75 6.890625 40.890625 13.453125 
Q 46.046875 20.015625 46.78125 33.40625 
Q 43.953125 29.203125 39.59375 26.953125 
Q 35.25 24.703125 29.984375 24.703125 
Q 19.046875 24.703125 12.671875 31.3125 
Q 6.296875 37.9375 6.296875 49.421875 
Q 6.296875 60.640625 12.9375 67.421875 
Q 19.578125 74.21875 30.609375 74.21875 
Q 43.265625 74.21875 49.921875 64.515625 
Q 56.59375 54.828125 56.59375 36.375 
Q 56.59375 19.140625 48.40625 8.859375 
Q 40.234375 -1.421875 26.421875 -1.421875 
Q 22.703125 -1.421875 18.890625 -0.6875 
Q 15.09375 0.046875 10.984375 1.515625 
z
M 30.609375 32.421875 
Q 37.25 32.421875 41.125 36.953125 
Q 45.015625 41.5 45.015625 49.421875 
Q 45.015625 57.28125 41.125 61.84375 
Q 37.25 66.40625 30.609375 66.40625 
Q 23.96875 66.40625 20.09375 61.84375 
Q 16.21875 57.28125 16.21875 49.421875 
Q 16.21875 41.5 20.09375 36.953125 
Q 23.96875 32.421875 30.609375 32.421875 
z
" id="DejaVuSans-57"/>
     </defs>
     <g transform="translate(290.385938 38.916562)scale(0.1 -0.1)">
      <use xlink:href="#DejaVuSans-72"/>
      <use x="75.195312" xlink:href="#DejaVuSans-50"/>
      <use x="138.818359" xlink:href="#DejaVuSans-79"/>
      <use x="217.529297" xlink:href="#DejaVuSans-50"/>
      <use x="281.152344" xlink:href="#DejaVuSans-58"/>
      <use x="314.84375" xlink:href="#DejaVuSans-32"/>
      <use x="346.630859" xlink:href="#DejaVuSans-48"/>
      <use x="410.253906" xlink:href="#DejaVuSans-46"/>
      <use x="442.041016" xlink:href="#DejaVuSans-48"/>
      <use x="505.664062" xlink:href="#DejaVuSans-48"/>
      <use x="569.287109" xlink:href="#DejaVuSans-51"/>
      <use x="632.910156" xlink:href="#DejaVuSans-48"/>
      <use x="696.533203" xlink:href="#DejaVuSans-57"/>
      <use x="760.15625" xlink:href="#DejaVuSans-52"/>
     </g>
    </g>
    <g id="line2d_37">
     <path d="M 262.385938 50.094687 
L 282.385938 50.094687 
" style="fill:none;stroke:#ffffff;stroke-linecap:square;stroke-width:1.5;"/>
    </g>
    <g id="line2d_38"/>
    <g id="text_21">
     <!-- H2O: 0.001113 -->
     <g transform="translate(290.385938 53.594687)scale(0.1 -0.1)">
      <use xlink:href="#DejaVuSans-72"/>
      <use x="75.195312" xlink:href="#DejaVuSans-50"/>
      <use x="138.818359" xlink:href="#DejaVuSans-79"/>
      <use x="217.513672" xlink:href="#DejaVuSans-58"/>
      <use x="251.205078" xlink:href="#DejaVuSans-32"/>
      <use x="282.992188" xlink:href="#DejaVuSans-48"/>
      <use x="346.615234" xlink:href="#DejaVuSans-46"/>
      <use x="378.402344" xlink:href="#DejaVuSans-48"/>
      <use x="442.025391" xlink:href="#DejaVuSans-48"/>
      <use x="505.648438" xlink:href="#DejaVuSans-49"/>
      <use x="569.271484" xlink:href="#DejaVuSans-49"/>
      <use x="632.894531" xlink:href="#DejaVuSans-49"/>
      <use x="696.517578" xlink:href="#DejaVuSans-51"/>
     </g>
    </g>
    <g id="line2d_39">
     <path d="M 262.385938 64.772812 
L 282.385938 64.772812 
" style="fill:none;stroke:#ffffff;stroke-linecap:square;stroke-width:1.5;"/>
    </g>
    <g id="line2d_40"/>
    <g id="text_22">
     <!-- O2: 0.000556 -->
     <g transform="translate(290.385938 68.272812)scale(0.1 -0.1)">
      <use xlink:href="#DejaVuSans-79"/>
      <use x="78.710938" xlink:href="#DejaVuSans-50"/>
      <use x="142.333984" xlink:href="#DejaVuSans-58"/>
      <use x="176.025391" xlink:href="#DejaVuSans-32"/>
      <use x="207.8125" xlink:href="#DejaVuSans-48"/>
      <use x="271.435547" xlink:href="#DejaVuSans-46"/>
      <use x="303.222656" xlink:href="#DejaVuSans-48"/>
      <use x="366.845703" xlink:href="#DejaVuSans-48"/>
      <use x="430.46875" xlink:href="#DejaVuSans-48"/>
      <use x="494.091797" xlink:href="#DejaVuSans-53"/>
      <use x="557.714844" xlink:href="#DejaVuSans-53"/>
      <use x="621.337891" xlink:href="#DejaVuSans-54"/>
     </g>
    </g>
    <g id="line2d_41">
     <path d="M 262.385938 79.450938 
L 282.385938 79.450938 
" style="fill:none;stroke:#ffffff;stroke-linecap:square;stroke-width:1.5;"/>
    </g>
    <g id="line2d_42"/>
    <g id="text_23">
     <!-- Ar: 0.995237 -->
     <defs>
      <path d="M 34.1875 63.1875 
L 20.796875 26.90625 
L 47.609375 26.90625 
z
M 28.609375 72.90625 
L 39.796875 72.90625 
L 67.578125 0 
L 57.328125 0 
L 50.6875 18.703125 
L 17.828125 18.703125 
L 11.1875 0 
L 0.78125 0 
z
" id="DejaVuSans-65"/>
      <path d="M 8.203125 72.90625 
L 55.078125 72.90625 
L 55.078125 68.703125 
L 28.609375 0 
L 18.3125 0 
L 43.21875 64.59375 
L 8.203125 64.59375 
z
" id="DejaVuSans-55"/>
     </defs>
     <g transform="translate(290.385938 82.950938)scale(0.1 -0.1)">
      <use xlink:href="#DejaVuSans-65"/>
      <use x="68.408203" xlink:href="#DejaVuSans-114"/>
      <use x="109.505859" xlink:href="#DejaVuSans-58"/>
      <use x="143.197266" xlink:href="#DejaVuSans-32"/>
      <use x="174.984375" xlink:href="#DejaVuSans-48"/>
      <use x="238.607422" xlink:href="#DejaVuSans-46"/>
      <use x="270.394531" xlink:href="#DejaVuSans-57"/>
      <use x="334.017578" xlink:href="#DejaVuSans-57"/>
      <use x="397.640625" xlink:href="#DejaVuSans-53"/>
      <use x="461.263672" xlink:href="#DejaVuSans-50"/>
      <use x="524.886719" xlink:href="#DejaVuSans-51"/>
      <use x="588.509766" xlink:href="#DejaVuSans-55"/>
     </g>
    </g>
   </g>
  </g>
 </g>
 <defs>
  <clipPath id="p9d920d00f2">
   <rect height="217.44" width="334.8" x="46.965625" y="22.318125"/>
  </clipPath>
 </defs>
</svg>
